<?xml version="1.0" encoding="UTF-8"?>
<svg width="80" height="80" xmlns="http://www.w3.org/2000/svg" xmlns:xlink="http://www.w3.org/1999/xlink">
 <path d="M61.594 18.56s-13.692 4.683-17.475 6.485c-1.982-.72-15.494-6.306-19.458-4.864-3.963 1.44-7.17 5.3-5.548 7.1 1.622 1.803 13.115 2.268 13.115 3.71 0 1.44-4.684 6.125-6.666 5.764-1.982-.36-17.477-5.678-19.446-1.894.12 4.046 8.456 3.696 6.114 4.777-2.342 1.08-5.945 2.702-5.765 4.324.18 1.621-.54 2.702 2.162 3.063 2.702.36 7.387.9 7.747-.18.36-1.082.36 4.684-1.802 7.926-2.162 3.243-2.162 5.946-.18 5.946s5.945 0 7.207-1.622c1.26-1.621 2.882-5.585 4.864-6.846 1.982-1.261 14.233-2.882 14.593-3.603.36-.72-1.622 8.287-2.522 12.07-.901 3.784-3.604 6.667.18 5.586 3.783-1.081 9.188-1.982 9.728-3.063.541-1.081 5.045-16.034 5.045-18.737 0-2.702-.36-6.125-.18-7.386.18-1.261 5.585-5.225 6.305-7.207.721-1.982 7.027-9.909 1.982-11.35z" fill="#fff" fill-rule="evenodd"/>
 <path d="M68.45 15.504l-.12.11-4.46 1.193c-6.648 1.738-13.09 3.791-19.18 6.461-3.857-3.446-10.373-2.68-15.358-3.247-3.027-.384-6.192-.122-8.896 1.554-1.428.782-2.593 1.262-2.72 2.87-.253 1.297-2.397 3.851-1.178 4.654 1.743.765 11.01 1.49 13.47 2.558-1.138.844-5.886 3.056-6.978 3.984-5.487-3.995-10.182-4.486-17.067-4.598l-4.935 2.905c2.336 2.576 5.532 4.032 8.179 6.125-1.704.513-3.493 1.074-4.55 2.337-1.41 1.416-.726 4.391.8 5.684 1.358 1.108 5.657.455 8.351.073.169.532.343 1.126.505 1.576-1.714 2.573-4.56 7.453-5.458 10.443-1.807 9.359 11.784.304 13.847-.877 2.14-1.598 3.634-3.586 4.827-5.768.16-.066.295-.141.478-.2 4.802-1.218 7.719-2.143 11.079-4.05-1.433 3.258-3.624 6.549-4.57 9.509-.952 3.058-2.937 5.625-1.765 8.693 3.847 2.269 8.45.488 12.25-1.844l5.615-2.505c2.027-3.68 2.824-6.698 4.113-10.716 1-5.875.802-10.399.037-15.35 2.346-2.019 3.376-3.604 6.687-7.968 2.067-2.814 7.557-10.128 7.013-13.464l.084-.09c-.032.01-.063.019-.095.027-.004-.025 0-.054-.005-.079zm-8.988 5.705c1.295-.067 2.186.071 2.553.384.04-.01.104-.057.147-.074.227 2.755-5.17 7.65-7.202 10.38-.367.482-.61.826-.903 1.23-.198-1.029-.373-2.002-.599-3.11l-2.926 3.803c2.359 7.888.617 12.976-1.035 21.237-.941 2.698-2.247 5.229-3.635 7.717-1.893.596-7.06 2.45-6.54.799-.406-2.716 1.245-5.246 2.054-7.99 1.4-5.298 2.003-10.693 1.308-16.095l-2.448 2.994c.358 1.474.146 3.026-.33 4.601-1.014.156-2.392.285-6.23 1.865-2.431.77-3.504 1.053-4.57 1.26.533-1.277 1.034-2.584 1.538-3.897.874-1.436.725-2.62.52-4.129l-4.417 2.18c.072 1.27-.847 3.711-1.508 4.922-1.422 3.823-3.769 7.702-6.918 10.622-1.827.319-3.533-.043-2.632-2.979 1.467-4.671 4.475-8.54 7.36-12.433l-4.376 1.98c-.633-1.875-1.288-3.745-2.144-5.531-1.922-2.715-6.835-4.257-9.314-6.485 6.889-1.587 10.763 1.662 14.32 4.704-.046.05-.094.097-.141.147l.23-.079.074.063.31-.194 6.971-2.348c8.073-7.681 16.883-11.997 23.423-14.047-.153 1.058-2.967 3.072-4.58 5.421 3.276-.682 5.903-2.438 7.506-4.806.33-.51.623-1.046.825-1.613 1.256-.26 2.408-.452 3.31-.499zm-31.255.588c4.387.032 8.935.791 12.465 3.378-2.888 1.448-5.101 2.327-7.784 4.146-2.686-1.52-12.352-1.613-12.734-2.867-.09-1.46 2.285-4.903 3.598-4.478a50.958 50.958 0 014.455-.179zm18.37 9.099c-.667.291-1.335.585-2.002.877-.982 1.356-2.772 2.357-4.118 3.383-1.891 1.402-3.47 2.13-5.61 2.989a9.66 9.66 0 00-1.687 1.302c1.58-.653 3.645-.274 5.217-.945 3.406-1.42 6.203-4.444 8.2-7.606zM11.782 41.658c.499.498-.216.669.198 1.267.313.656.623 1.549.93 2.485-1.637.25-3.657.526-4.297.436-2.67-1.008-.813-3.08 3.17-4.188z"/>
</svg>
