<?xml version="1.0" encoding="UTF-8"?>
<svg width="160" height="106.67" xmlns="http://www.w3.org/2000/svg" xmlns:xlink="http://www.w3.org/1999/xlink">
 <path d="M79.09 27.271c-3.562 4.05-.876 12.418-2.176 17.87-6.366.09-4.078 9.407-2.97 9.298-6.893-2.541-10.482 5.39-16.631 2.568-3.636-2.274-7.083 1.941-1.719 2.567 2.983-.021 8.185 2.854 5.097 4.995-18.003-.298-36.013-.615-53.991-1.658-.71-1.998-1.424-3.996-2.133-5.995-1.084 1.289.624 4.286.63 6.24.464 1.862 2.581 1.958 4.4 2.393l17.063 1.355c3.043 2.739 9.774 1.587 14.09 2.985 4.601-.299 6.486 2.093 9.647 4.392 2.306-.774 6.705-2.702 8.325-.05-.209 1.442-2.948 1.265-1.596 4.649 3.245.377 1.803-1.683 4.54.331 2.357.192 1.802-6.313-1.167-4.093-.842 1.998-.127-3.005 2.6-.6 2.462.78 4.613 1.19 3.865-2.135-.085-3.864 2.976 1.896 1.534 1.141-2.314.212-.013 4.316.965 2.69 3.803.3-.033-2.751.294-4.185.957-2.696 3.154-.203 3.735 1.553 1.482 3.051-3.682-.926-1.435 4.16 3.094 1.195 1.506-2.258 3.632.33 3.198-2.127-.797-3.651-.713-3.51-1.557-3.536 7.28-5.215 7-2.077-.42 3.3 2.701 1.464 4.628 1.323 2.278.272-4.135 1.156-1.014 4.495 2.195-.703 2.863-1.607 5.145.058 2.967-3.486-1.097-4.04-1.824-4.433.896-3.9 8.633 1.925 8.9-4.373-1.954-2.615.213-3.915 2.06-2.907-.991 3.366 1.657 2.48 3.928 2 6.598-1.078 13.194-2.18 19.794-3.243-1.413-2.791 3.066-1.487 4.678-2.175 4.72-.547 9.438-1.102 14.158-1.644-.669-2.523 3.993-.327 3.143-3.564.126-1.035 1.893-6.381.192-4.066-.39 7.659-8.888 4.962-14.039 6.28-15.53 1.373-31.071 2.977-46.654 3.483 3.694-2.11 9.716-2.971 14.222-4.776 2.683.073 10.17-4.422 3.837-3.54-6.546 1.314-13.017 2.969-19.515 4.496.173-3.203-5.625-3.165-1.242-5.138 2.652-4.083-1.64-6.247-2.85-9.662-.454-5.723 1.388-12.663-.433-17.828zm-.187.533c.949 5.691-.476 12.12.301 17.848.59 3.585 6.455 6.16 1.504 9.88-3.69 1.151 3.631 2.538 2.763 4.987 7.192-1.636 14.32-3.625 21.603-4.813-2.37 2.391-9.33 3.397-13.393 5.015-3.317.198-11.645 3.924-3.829 3.545 18.803-1.235 37.663-2.448 56.336-4.957 1.205-4.102 1.348-1.462.1.22-2.99-.483-2.038 2.351-4.998 1.846-5.602.654-11.206 1.29-16.806 1.954 1.44 2.77-3.02 1.657-4.631 2.425l-17.405 2.85c.864-3.139-1.034-3.23-3.58-2.59-2.346.044 2.947 5.552-1.826 6.214-2.327-.066-7.83-1.666-6.714 2.818 2.01-.305 3.87.645 1.695 2.849-.883-2.953-3.908-.252-4.29-.442-1.457-4.994 3.761.62 2.177-4.482-1.621-.247-5.06 2.163-5.278-.137.577-5.28-5.784-1.182-8.255-.843-.385 1.263.221 5.586 1.262 3.354 1.265-.458-.325 3.986-.67.768-2.06-.4-1.984 3.851-2.566-1.038 1.44 1.763 2.232-.084 1.585-2.493-1.156-2.252-5.347-3.636-4.799.029.731-2.341-3.802-3.188-2.795-.433.882 3.518-2.318 1.813-4.406 1.53-2.72-2.117-3.14 2.663-1.676 2.943 1.22-2.664 3.273.676 1.369 1.984-1.544-2.264-2.43-.663-3.993-.144-.506-4.046.311-1.461 1.788-1.802.095-2.366-.01-4.554-2.98-4.206-3.487-.036-1.575-6.857-6.864-5.637 1.152-.246 4.319.833 6.247 1.098l9.563 2c-.628-1.509-4.176-1.088-5.949-1.841-3.796-.795-7.594-1.578-11.388-2.381 1.576 2.758 9.356 3.289 4.655 7.487-4.908 2.32-4.527-5.508-9.898-3.584-5.027-1.228-11.619-.81-15.682-3.047-2.624-.72-6.05-.546-8.978-.928l-10.19-.807c-1.207-.722-3.241-2.518-2.574-3.75.461 4.651 6.598 1.736 9.688 2.83 17.276.72 34.694 1.204 51.872 1.179-.362-1.853-5.238.977-4.94-1.666-1.21-3.54 2.523-1.058 4.401-.835 3.921 1.269 1.193-.72-1.168-.917-4.078-1.255-8.294-1.884-12.185-3.745 2.305-2.136 7.804.973 11.137.858l8.405 1.405c-.73-1.452-4.218-.912-6.023-1.588-6.835-.15 1.858-5.195 5.116-3.82 3.245.676 5.04 1.148 3.775-2.883.756-2.298 3.698-5.206.1-2.071-.35 3.52-1.378 5.281-2.777 1.031.222-5.352 7.317-4.513 4.852-10.84.578-3.918-.232-8.714 1.212-12.227zm12.206 38.653l-8.704 2.666c1.264.988 4.175-1.066 6.082-1.264.589-.537 3.283-.254 2.622-1.402zm-22.886 7.566c1.269.275 3.682.937 1.57 1.54-1.221-1.29-1.537 2.137-1.57-1.54z" fill-rule="evenodd"/>
 <path d="M35.536 4.399C10.118.639-2.854 42.19 22.073 51.822c20.149 11.633 51.15-10.702 38.098-33.168-4.727-8.77-14.548-14.916-24.635-14.255zm0 .733C60.41.958 72.639 42.744 48.32 51.276 26.384 64.826-5.124 33.974 15.113 13.94c5.08-5.706 12.705-9.347 20.423-8.808z" fill-rule="evenodd"/>
</svg>
