<svg xmlns="http://www.w3.org/2000/svg" xmlns:xlink="http://www.w3.org/1999/xlink" height="160" width="420"><defs><linearGradient id="a"><stop offset="0" stop-color="#fff000"/><stop offset="1" stop-color="#ffd300"/></linearGradient><linearGradient gradientUnits="userSpaceOnUse" y2="158.978" x2="164.87" y1="96.298" x1="108.106" gradientTransform="scale(1.57814 .63366)" id="d" xlink:href="#a"/><linearGradient gradientUnits="userSpaceOnUse" y2="119.942" x2="67.275" y1="42.537" x1="26.301" gradientTransform="scale(2.37262 .42148)" id="b" xlink:href="#a"/><linearGradient gradientUnits="userSpaceOnUse" y2="115.787" x2="147.22" y1="36.662" x1="116.72" gradientTransform="scale(2.37262 .42148)" id="c" xlink:href="#a"/><linearGradient gradientUnits="userSpaceOnUse" y2="344.411" x2="62.576" y1="267.007" x1="27.455" gradientTransform="scale(2.37262 .42148)" id="e" xlink:href="#a"/><linearGradient gradientUnits="userSpaceOnUse" y2="350.286" x2="149.914" y1="269.441" x1="109.556" gradientTransform="scale(2.37262 .42148)" id="f" xlink:href="#a"/></defs><metadata/><g fill-rule="evenodd"><path d="M204.19 34.02c.465-9.806-9.478-18.364-19.111-16.58-6.689.872-12.95 7.696-10.838 14.641 1.35 4.754 7.31 8.685 11.986 5.976 4.075-1.213 4.485-9.306-.269-8.746-1.24 1.04-.266 3.715-2.456 3.895-4.393.209-5.081-5.892-1.943-8.048 5.064-4.552 13.651-1.594 16.013 4.45 2.475 5.557-.77 12.075-5.859 14.846-3.25 2.716-7.24 1.02-10.923.476C128.87 35.726 30.91 17.948 24.008 17.825c-4.616-.006-7.227 2.751-9.99 4.964-5.392 5.015-7.54 13.57-3.905 20.199 3.972 7.868 14.858 11.702 22.542 6.9 5.155-2.914 8.044-10.246 4.323-15.376-2.444-3.755-8.33-5.939-11.91-2.445-3.613 1.6-1.971 9.87 1.853 7.38.624-1.292-.036-3.286 2.078-3.398 4.392-.208 5.08 5.893 1.94 8.045-5.066 4.56-13.655 1.597-16.012-4.452-2.481-5.575.792-12.106 5.902-14.872 3.26-2.708 7.251-1.021 10.937-.473 51.897 9.2 150.99 26.75 156.641 27.115 4.639.206 6.35-2.277 8.93-3.955 3.953-3.303 6.826-8.192 6.853-13.436z" fill="url(#b)"/><path d="M211.162 32.27c-.466-9.808 9.477-18.365 19.11-16.58 6.69.871 12.95 7.695 10.839 14.64-1.35 4.754-7.31 8.685-11.986 5.976-4.075-1.213-4.486-9.306.268-8.746 1.24 1.039.266 3.715 2.456 3.895 4.394.208 5.082-5.892 1.944-8.048-5.065-4.552-13.652-1.594-16.013 4.45-2.476 5.556.77 12.074 5.858 14.846 3.25 2.716 7.241 1.02 10.923.476 51.921-9.204 149.882-26.983 156.782-27.105 4.616-.006 7.227 2.751 9.99 4.964 5.392 5.015 7.541 13.57 3.906 20.199-3.972 7.868-14.858 11.702-22.543 6.9-5.155-2.914-8.044-10.246-4.322-15.376 2.444-3.755 8.33-5.94 11.91-2.445 3.613 1.6 1.97 9.87-1.853 7.379-.624-1.292.036-3.285-2.079-3.398-4.391-.207-5.08 5.894-1.939 8.046 5.065 4.56 13.655 1.597 16.011-4.453 2.482-5.574-.792-12.105-5.902-14.87-3.259-2.709-7.25-1.023-10.937-.474-51.897 9.2-150.99 26.75-156.64 27.114-4.639.207-6.35-2.276-8.93-3.954-3.953-3.303-6.826-8.192-6.853-13.437z" fill="url(#c)"/><path d="M160.493 56.75c-3.654 0-6.603 4.633-6.603 10.39v25.342c0 5.757 2.949 10.39 6.603 10.39h101.666c3.654 0 6.603-4.633 6.603-10.39V67.14c0-5.757-2.95-10.39-6.603-10.39H160.493zm7.229 10.736h12.877v4.495h-8.102v4.281h7.624v4.496h-7.624v5.286h8.382v4.479h-13.157V67.486zm17.356 0h5.335l6.735 15.808V67.486h4.528v23.037h-5.335l-6.735-15.792v15.792h-4.528V67.486zm19.019 0h17.06v4.495h-6.126v18.542h-4.776V71.98h-6.158v-4.495zm19.53 0h12.876v4.495h-8.118v4.281h7.64v4.496h-7.64v5.286h8.398v4.479h-13.157V67.486zm17.355 0h7.295c2.439 0 4.22.513 5.352 1.531 1.14 1.018 1.712 2.623 1.712 4.825 0 1.522-.294 2.777-.889 3.754-.587.977-1.477 1.694-2.667 2.157.653.185 1.232.61 1.745 1.268.52.648 1.052 1.637 1.58 2.964l2.586 6.538h-5.088l-2.256-5.714c-.455-1.153-.912-1.95-1.383-2.372-.463-.421-1.084-.625-1.861-.625h-1.35v8.71h-4.776V67.487zm4.776 4.314v5.911h2.009c1 0 1.71-.245 2.14-.708.438-.463.659-1.213.659-2.272 0-1.05-.22-1.803-.659-2.256-.43-.453-1.14-.675-2.14-.675h-2.01z" fill="url(#d)"/><path d="M205.466 129.794c.466 9.807-9.477 18.365-19.11 16.58-6.689-.872-12.95-7.696-10.838-14.64 1.35-4.755 7.309-8.686 11.986-5.977 4.075 1.214 4.485 9.306-.27 8.747-1.24-1.04-.265-3.715-2.455-3.896-4.393-.208-5.082 5.892-1.944 8.048 5.065 4.552 13.652 1.594 16.013-4.45 2.476-5.556-.77-12.074-5.858-14.846-3.25-2.716-7.241-1.02-10.923-.475-51.921 9.203-149.882 26.982-156.782 27.104-4.616.006-7.227-2.75-9.99-4.964-5.392-5.015-7.541-13.57-3.906-20.199 3.972-7.867 14.858-11.702 22.543-6.9 5.155 2.914 8.044 10.246 4.322 15.376-2.444 3.755-8.33 5.94-11.91 2.445-3.613-1.6-1.97-9.87 1.853-7.379.624 1.292-.036 3.286 2.079 3.398 4.391.207 5.08-5.893 1.939-8.045-5.065-4.56-13.655-1.598-16.011 4.452-2.481 5.575.792 12.106 5.902 14.87 3.259 2.71 7.25 1.023 10.937.474 51.897-9.2 150.99-26.75 156.64-27.114 4.639-.207 6.35 2.276 8.931 3.955 3.952 3.302 6.825 8.191 6.852 13.436z" fill="url(#e)"/><path d="M212.438 131.545c-.465 9.807 9.478 18.365 19.111 16.58 6.689-.872 12.95-7.696 10.838-14.64-1.35-4.755-7.31-8.686-11.986-5.977-4.075 1.214-4.485 9.306.269 8.747 1.24-1.04.266-3.715 2.456-3.896 4.393-.208 5.081 5.892 1.943 8.048-5.064 4.552-13.651 1.595-16.012-4.45-2.476-5.556.77-12.074 5.858-14.846 3.25-2.716 7.24-1.02 10.923-.475 51.92 9.203 149.881 26.982 156.782 27.104 4.616.006 7.227-2.75 9.99-4.963 5.392-5.016 7.54-13.57 3.905-20.2-3.972-7.867-14.858-11.702-22.542-6.9-5.155 2.914-8.044 10.246-4.322 15.377 2.443 3.754 8.329 5.938 11.91 2.444 3.612-1.6 1.97-9.87-1.853-7.379-.625 1.292.035 3.286-2.08 3.398-4.39.207-5.08-5.893-1.938-8.045 5.065-4.56 13.654-1.598 16.01 4.452 2.482 5.575-.791 12.106-5.901 14.871-3.26 2.708-7.251 1.022-10.937.473-51.897-9.199-150.99-26.75-156.641-27.114-4.638-.207-6.35 2.276-8.93 3.955-3.952 3.303-6.826 8.191-6.853 13.436z" fill="url(#f)"/></g></svg>