<svg xmlns="http://www.w3.org/2000/svg" width="128" height="128"><metadata/><path d="M69.435 29.485c-4.153 3.523-1.768 8.103-3.198 11.863-1.827 3.315-7.118 1.711-10.44 2.703-2.146-1.629-2.01-6.306-3.858-8.252-1.911 3.508 3.448 10.153-3.3 10.737-6.487 1.103-.822-7.69-2.998-11.256-.498.926-.909 1.27-1.394 1.193 1.68 5.015-2.324 13.454-7.614 14.547-4.729 4.084-3.638-5.758-6.241-8.07.454-.293-1.069.704-.648 1.143 2.614 3.19 1.163 7.233.516 11.361-.252 1.963-6.58 2.854-4.768 3.569 2.03-.964-3.07 3.394-5.48 2.93.556-3.115-2.647-5.255-4.07-5.94 1.333 3.666 4.02 13.7-3.163 12.773-1.373-1.871-2.172-3.664-5.504-5.395 4.476 6.193 2.74 14.298-1.612 16.682C11.87 77.245 19.488 64.863 25.84 62.2c10.395-5.11 21.163-9.841 32.538-12.262 3.743-.003 11.211-3.48 11.022 2.428 2.24 5.566 1.156 11.838-2.58 16.502-3.522 5.394-9.786 10.167-16.525 7.691-6.466-1.616-11.073-7.295-12.252-13.731.402-2.748-2.636-6.24-4.667-3.465.417 5.644 3.371 12.372 7.765 16.162 5.487 4.636 13.787 4.869 19.587.665 6.558-4.218 12.74-10.914 13.109-19.066.183-2.874-3.594-9.907.845-7.745 9.063 1.171 14.382 6.771 17.961 6.522 3.19.217 6.295-.455 1.876 3.228 3.648.063-3.862 3.867-4.649 6.157-7.559 9.291-19.378 13.892-30.76 16.44-8.701 1.588-17.689 1.856-26.475.924-4.558-1.613-9.299-.53-13.784.733-3.57.847-8.082 1.447-10.715-1.664-4.738-3.626-5.735 3.635-.59 3.87 6.653 2.182 13-2.73 19.716-1.357 3.424-.207 6.568 1.417 3.141 4.555-.268 3.804-.34 7.134-.866 12.857 2.93-3.452 1.64-8.806 3.611-12.94.48-5.802 9.711-4.24 8.686 1.356.949 4.852 2.971 10.04.832 14.804 6.35-2.11 1.624-10.578 1.394-15.418-.846-3.088-.412-5.363 3.645-4.406 3.072.126 7.93-2.317 6.01 2.363 1.571 4.172 2.477 8.479 2.377 12.96 1.547-2.617 3.069-6.133 1.192-8.378-1.515-3.335-1.545-11.286 4.323-8.45 3.336 2.452 1.932 7.466 3.063 10.756 3.848-3.02.526-7.48.92-11.376 1.921-5.786 10.94-3.437 9.326 2.788.103 2.66 1.278 5.141 1.817 5.866 2.191-5.157-3.475-12.686 1.33-16.263 5.325-.937 8.764 3.94 12.367 6.908-.934-2.93-2.14-6.437-4.772-7.817-6.462-2.753 5.305-4.683 7.82-1.143.786 1.036.508-1.265.167-1.37-3.278-.778-5.51-6.157-.483-5.504 5.663-.388 8.605 6.428 12.869 7.375-1.197-2.984-5.327-7.15-8.406-8.876-1.701-.64-6.471-1.007-2.424-2.264 4.425 1.08 8.316 2.351 12.085 4.828.295-.006-.403-.76-.408-.71-2.348-1.602-8.003-5.704-7.538-6.345 4.352-1.176 8.51 1.397 11.927 2.625-1.702-2.691-4.876-4.736-5.995-4.947 6.842-.181 15.945-2.452 21.25-6.798-4.874 2.395-9.815 4.944-15.455 4.95-2.552.144-8.151.681-8.602.046 5.445-2.683 11.99-3.817 16.492-7.99-9.043 4.4-15.093 5.389-13.528 4.249 4.717-.305 11.271-9.196 12.334-10.566-7.85 5.78-1.935-1.655-.257-4.049-2.904 1.887-5.383 6.723-10.004 6.608-1.227-2.159-8.03 1.218-10.731-1.662.262-4.55.127-4.124-4.46.527-4.67.984-3.081-4.147-4.468-6.058-2.507 2.488-.434 7.4-6.268 5.494-4.619.977-3.713-5.168-4.073-7.568-2.381 2.162 1.288 9.086-4.43 7.506-7.214 1.75-3.35-6.702-4.249-10.651.006-1.11.685-1.513.611-2.62zM53.462 51.69c-4.69 1.07-11.402 6.465-8.775 11.568 4.73 4.493 15.019.927 14.144-6.178-.636-2.587-3.412-3.903-5.369-5.39zm-2.971 2.202c2.733 3.358-6.537 9.38-2.378 2.87.658-1.06 1.504-1.986 2.378-2.87zm3.557 3.511c-.367 3.14-6.904 5.84-1.868 2.143.715-.624 1.38-1.323 1.868-2.143zm1.519 1.326c.073 2.17-3.15 1.238-.17.156l.17-.156zm.163 1.09c1.522 2.9-5.64 3.8-1.343 1.225.469-.384.919-.792 1.343-1.225zm-3.282 1.947l-.782.434.782-.434z"/></svg>