<svg width="213.333" height="213.333" xmlns="http://www.w3.org/2000/svg"><path d="M54.085 41.354c-4.56-.832-9.42 2.896-4.428 5.576 4.99 10.702-5.683 12.304-12.726 16.105-1.916 4.984-13.075 12.056-3.497 10.977 9.72 2.448 14.381 6.072 17.516 15.19 6.083 1.33.706 8.699-1.654 7.815-4.592-5.394-1.274-1.041 1.757-1.137-7.828-1.613-13.543-17.551-12.879-17.399-.545 3.874 4.663 12.015-.693 5.111-8.246-9.637-17.396-18.625-24.76-28.941 1.055-7.82-13.257 5.263-3.646 3.562 5.43 6.1 11.6 12.841 16.57 18.543-6.95 9.33-12.29 21.628-7.517 33.143 3.428 10.273 5.56 21.714 12.446 30.276 8.866 1.514 15.326 12.378 25.273 9.96-12.726 1.908-5.564-15.409-2.108-22.288 5.43-10.622 12.816-20.207 21.249-28.613-7.094 4.432-13.34 14.686-18.55 22.333-5.704 7.546-7.946 20.31-9.493 26.542-7.651-4.364.011-17.402 2.883-24.457C55.505 113 62.86 103.23 71.363 94.677c-6.27 3.786-11.843 12.907-16.76 19.565-6.096 9.5-12.034 20.211-11.24 31.879-8.957-5.418-2.491-19.256.657-27.2 3.105-4.999 8.321-15.54 12.047-16.18 6.415 3.718 1.054-8.18 7.69-9.165 8.541-9.131-5.807 6.438-4.496 1.316-.296-5.112-2.853-14.916 4.342-7.265 9.396 7.338 19.371 17.495 18.07 30.42-.506 6.584 2.192 22.36-.363 22.825-2.936-4.676-9.797-9.527-.576-6.787 3.63-1.407-9.33.103-8.648-5.11-4.635-5.203-10.313-10.501-2.008-15.432 2.987-7.288 7.09 5.462 11.194 1.783-7.283-.06-8.766-6.708-3.845-9.758-10.697 9.427-20.59 20.934-24.132 35.236-1.558 3.44.49 13.729.134 4-.023-4.973 5.119-19.134 3.561-6.722-.062 10.541-.912 21.369 2.783 31.447 1.556 8.274 3.526-7.356 3.215-10.074.747-5.612-2.79-18.98.515-19.466-2.146 3.349 2.979 12.39.304 3.763.44-7.021 9.837 6.764 15.839 3.893-1.096.546-19.28-.523-15.645 1.423 9.637-2.697 19.62-.382 24.013 9.215 1.891 4.372 15.631 15.004 8.425 3.78-2.405-8.241-13.182-14.199-13.374-21.765-.905-10.776.296-21.835-1.829-32.442-4.305-10.433-13.155-18.742-22.815-24.24-1.127-4.263-1.725-11.72 4.793-5.89 11.624 7.969 21.505 19.923 24.856 33.79 1.132 11.487 2.122 23.496-1.16 34.703 1.75.873 3.262-13.428 2.85-18.233.097-10.887-.563-22.402-7.421-31.444-6.232-9.111-13.948-18.439-24.73-22.107-.851-9.997-1.75-19.99-2.66-29.982 2.384-1.06 1.544-3.39-.864-3.1zm-1.643.857c7.071.642-8.313 5.299-1.683.098l1.683-.098zm1.589 3.598c1.622 19.116 3.686 37.046 4.64 56.206-5.76 1.377-2.794-11.215-4.55-15.327-.595-5.28-2.152-20.614-1.976-20.309l4.16 35.362c1.41-1.93.022-6.508.16-9.434-1.924-15.183-3.368-30.953-5.591-45.77-.374-1.245 2.328.613 3.157-.728zM11.25 53.37c1.469 3.772-8.78 5.353-1.997.262.395-.205 1.58-.184 1.997-.262zm50.424-.413c-4.338-.783-8.273 2.505-1.61.711 6.984 5.44 16.167 9.033 23.323 14.889 12.226 11.422 23.62 25.35 27.339 42.02.13 8.644 4.452 19.295-1.438 26.333-1.607 3.227-8.575 9.768-4.81 2.69 2.019-10.033 1.527-20.646-.813-30.568-6.605-15.843-16.544-30.834-30.02-41.635-4.883-1.8-14.869-7.819-16.528-7.987 6.448 6.021 15.98 6.062 21.647 13.19 10.709 11.22 20.224 24.367 24.944 39.248 1.27 10.358 3.006 21.765-1.591 31.504-11.447 7.847-3.802-11.596-5.127-18.04.838-14.745-5.784-28.723-15.701-39.331-6.472-6.745-15.059-16.284-23.748-17.39 14.754 6.11 25.8 19.156 33.66 32.7 7.44 13.38 4.691 29.094 3.94 43.596.541 2.847-14.333 3.111-4.55 2.893 8.398.545 13.448-6.428 20.313-5.861 15.389-.905 30.878-2.439 46.306-1.541 7.77-.94 17.784 2.451 23.87-3.563 4.07-2.973 16.677-3.289 13.337-11.117-9.714-8.877-24.518.845-34.191-8.547 1.417-7.657 15.02-3.337 21.644-3.308 4.29.638 18.006 2.535 6.509-.344-4.446-.789-10.56-1.322-2.818-.895 6.822-.812-10.34-1.551-12.69-1.526-8.196.83-22.628-1.992-25.452 7.873 6.896 6.253 17.877 3 26.457 3.63 5.74.036 21.359-1.733 17.804 7.229-14.526 6.096-29.576 6.351-45.031 8.292-12.317 1.351-25.3.68-37.655.64 5.554 2.316 20.26-.083 21.953.785-7.066-.055-19.922 2.647-22.969.416 7.567-8.654 10.42-19.822 13.609-30.597-1.894-12.971-8.152-25.006-13.01-37.113-2.361-9.142-10.536-15.083-19.933-14.944-8.412.423-16.336-3.73-24.769-4.14l-2.201-.192zm-.034.677c6.924 2.044 19.89-.729 20.18 9.346 1.142 8.678-1.05-7.538.147-5.471 5.761.6 18.862 1.008 18.304 5.156-4.435-.177-19.362 11.932-8.807 4.812 6.766-4.876 13.952-6.746 15.78 3.486 3.094 8.67 11.132 21.908 9.838 28.408-4.997-.449-9.508-4.913-12.858-6.879 4.884 7.847 18.426 5.04 16.72 16.634-2.17 6.405-5.56 20.497-8.165 21.614.017-9.459-.297-19.27-3.642-28.22 1.302 4.319 18.004 8.687 7 4.245-8.454-2.382-9.15-11.09-14.127-17.488-8.036-6.472 7.156-6.28 8.008-11.047-5.97 4.927-12.955 8.451-16.522-.373-6.346-7.689-14.078-14.414-23.34-18.136-2.675-1.922-6.898-5.391-8.516-6.087zm-49.377 2.193c12.02 15.963 26.56 29.796 38.898 45.515-.058 3.091-4.829-3.31-6.805-4.786l-23.708-26.44L49.9 101.927c.034-2.368-3.683-5.086-5.281-7.531C33.272 82.059 21.632 69.867 10.285 57.53c-2.244 1.243 1.752-1.237 1.978-1.703zm38.299 1.093c-.58 6.331 5.568 20.387-4.753 13.979-3.802.247-14.302-8.84-6.643-1.756 6.752 2.892 15.966 3.05 13.772 12.828.233 3.943 2.73 13.314-2.157 5.929-4.001-5.94-4.404-9.08 2.034-6.875-6.637-2.603-18.325-6.481-21.274-9.323 3.825-8.747 10.731-10.444 19.02-14.782zm45.074 2.423c-3.385-.4-13.935 6.456-11.704 6.477 3.025-3.307 8.885-4.443 11.704-6.477zm-51.833 1.32c-.483 3.855 13.198 7.375 3.116 2.724-1.156-.752-2.306-1.584-3.116-2.723zm61.031 6.692c-3.745-.183-14.831 5.824-12.958 6.233 3.585-3.177 9.68-4.214 12.958-6.233zm2.473 5.657c-5.038.89-17.95 11.08-6.301 3.735 1.206-1.509 6.47-2.044 6.301-3.735zm-81.171 4.235c4.846 4.721 1.886 13.775 8.185 18.903 1.643 3.398 15.914 14.658 6.87 6.178-6.178-4.114-13.379-16.794-11.352-20.97 3.624 3.203 5.178 6.902 7.556 10.908 3.885 5.658 15.759 8.604 6.158 15.397-5.176 6.79-6.315 16.29-15.663 18.667-8.337 3.557 8.343-1.279 8.612-5.126-4.151 5.075.219 18.282-5.03 18.531-6.413-6.235-7.908-16.312-11.084-24.556-3.269-6.938-4.624-21.7-1.326-23.831-.557 11.716 8.636 20.282 17.17 26.84-4.79-6.133-15.266-12.263-16.131-22.16-2.926-4.664 3.08-16.122 3.994-14.147-2.09 11.265 4.277 22.122 13.442 28.291 7.857 5.47-5.656-5.29-6.999-7.397-6.09-6.31-7.133-17.12-5.2-24.268l.798-1.26zm74.65 6.979c-.51 4.656 16.212 10.039 13.598 8.024-5.112-1.289-10.183-3.937-13.598-8.024zm-39.807 1.812c-4.76 3.74.158 2.937 0 0zm-25.611 1.508L45.48 98.81c-3.898-3.225-8.118-6.433-10.112-11.264zm18.853 5.573c4.202 8.521-4.158 13.136-7.782 20.157-5.643 8.787-8.983 19.327-7.82 29.83-9.017-5.871-1.973-20.38 1.542-28.66 3.693-4.93 5.678-13.19 11.553-11.452.019-4.14-1.765-6.265 2.507-9.875zm109.798 19.26c-10.283.581-3.393 9.795 3.286 9.536-5.258.523-24.986.487-15.458-7.694 3.95-1.968 7.866-1.693 12.172-1.842zm-93.791 1.778c-1.72 5.85 18.564 9.514 5.658 5.488-2.275-1.366-4.15-3.323-5.658-5.488zm-38.011.983c-2.915 2.124-17.279 1.625-6.522 2.202 1.159-.186 7.664-.304 6.522-2.202zm33.725 3.828c1.629 4.327 10.788 9.777 15.398 9.248-5.85-1.491-11.376-4.734-15.398-9.248zm-1.558 2.504c10.374 13.418 20.667 25.44 29.829 39.718 2.44 4.44 5.256 8.3.059 2.676-.535-2.535-4.027-6.065-5.704-8.76-8.296-10.74-17.175-21.044-25.471-31.785-.173 2.375 3.978 5.721 5.372 8.296 7.975 10.333 15.804 20.229 23.78 30.562-10.626-12.52-20.221-25.528-30.033-38.79.71-1.035 1.329-.975 2.168-1.917zM61.809 124c2.905 4.665 12.305 14.988 10.949 15.807-6.312-4.249-13.249-7.3-10.949-15.807zm-1.054 2.158c-.131 13.557 1.786 26.6.64 40.106-1.427 9.111-4.304-11.946-3.523-16.795.003-4.171-.318-19.033.226-17.337.091 9.62.328 20.845.418 30.466 1.6-1.788.431-7.989.88-10.888-.072-7.511.002-15.751-.07-23.263.67-1.215.595-1.183 1.43-2.289zm133.737 1.11c.336 1.633.081 1.226 0 0zm-1.524 3.406c-6.474 2.724-12.381 5.755-18.603 8.45-9.779.42-19.57.06-29.352-.083 16.005-1.86 32.883-2.232 47.955-8.367zm-131.091 1.202c3.48 6.105 18.282 10.495 15.277 14.925-6.582-2.239-17.474-6.275-15.277-14.925z" fill-rule="evenodd"/><metadata/></svg>