<svg xmlns="http://www.w3.org/2000/svg" width="480" height="320" version="1.0"><metadata/><path d="M7.096 116.784c20.065-10.104 43.011.027 64.357-3.246 134.065 1.238 268.14 1.993 402.199.133-20.866 8.435-43.755.401-65.486 3.421-133.623-.612-267.773-2.276-401.07-.308z"/><path d="M146.406 34.25c-17.512 2.272-37.007 2.1-51.115 14.404-15.035 9.83-30.21 22.622-33.652 41.238-.617 6.038-6.224 18.637-3.608 20.546 8.365-8.499 3.84-22.793 11.162-32.382 7.82-14.29 22.37-23.133 35.611-31.769 19.45-9.564 42.168-8.728 63.13-6.205 30.182 5.976 56.68 27.988 69.174 55.923 1.5 3.774 5.306 24.893 8.118 15.364-4.449-20.19-15.648-38.421-31.63-51.53-16.758-15.495-39.026-24.103-61.767-24.849l-2.717-.324-2.706-.416zM98.69 134.7c90.127 5.782 180.43 7.909 270.64 11.96-1.06 15.503-31.685 7.994-43.958 13.163-70.57 7.912-140.81 19.26-211.544 25.334-8.593-1.081-47.06 4.386-23.588 5.87 108.514 10.497 217.858 2.008 326.38 12.353 12.007 14.503-24.009 12.126-33.04 13.923-79.67 2.965-159.553 2.846-238.975 10.422-8.732 1.438-30.133 6.465-10.373 11.274 56.66 14.434 115.445 16.497 173.424 21.657 10.46 3.193 39.566-2.638 38.583 10.407-7.693 7.715-36.516 1.168-12.731.45 27.155-6.678-17.503-8.851-27.005-9.99-55.408-5.524-111.178-8.46-166.065-18.306-15.155 5.346-25.928-20.785-3.993-14.554 40.56-7.633 82.123-5.733 123.179-8.042 53.23-1.686 106.562-3.364 159.469-9.869-8.883-14.187-39.233-3.098-54.736-7.985-88.374-6.329-172.09-3.838-260.531-7.863-10.484 2.698-34.867-8.488-11.38-9.997 91.038-6.814 181.853-18.116 271.723-34.037 5.126-5.481-22.473-1.921-28.785-3.965-78.848-4.17-157.783-8.256-236.693-10.823V134.7z"/><path d="M224.781 90.75c-1.385 2.038-4.307-.331-5.791 1.531-3.044 2.569-3.528 6.866-3.27 10.599-.181 4.127-1.908 8.123-1.338 12.294.07 3.113-.687 6.186-1.842 9.05-.549 3.042-.405 6.255-1.717 9.12-.627 2.235-1.144 4.585-.772 6.912 3.574 3.252 3.607 8.766 7.183 12.017 2.115 1.022 2.107 3.691 2.065 5.71.065 7.135.197 14.278-.242 21.405-.672 1.484-1.622 3.628-.225 4.982 1.454 1.038 2.945-.843 3.13-2.223 1.356-6.304.735-12.773.526-19.154-.031-2.148-.071-4.318.18-6.448.582-.662.189 1.879.335 2.43.092 6.598.504 13.186.765 19.777a83.59 83.59 0 01-.082 5.342c-1.75 1.665 1.16 4.862 2.968 3.242 1.256-1.912.022-4.196.416-6.268-1.418-1.864 2.098-2.397 2.766-1.232 1.87-.784 1.564-3.3.613-4.7-1.644-1.98-1.272-4.814-.735-7.146.483-5.36-1.511-10.923.528-16.118 1.503-5.153 2.82-10.375 3.587-15.69.708-2.93 1.76-5.884 1.337-8.946-.258-3.92-1.458-7.949-.125-11.81.995-3.63 2.681-7.596 1.197-11.33-1.63-3.393-5.767-4.285-7.926-7.226-1.524-1.814-2.65-3.93-3.53-6.12zm-2 3.031c2.046 1.189 1.048 4.242-.69 5.225-1.863 1.678-4.234-1.826-1.887-2.864.896-.745 1.848-1.442 2.577-2.36zm-.062 7.938c-1.346 1.234-.988 3.717-2.878 4.456-.776-2.073 1.5-3.43 2.878-4.456zm7 .625c2.26.246 3.715 2.654 3.552 4.798 2.056.922-1.88 3.266-1.352.926-.682-1.926-2.236-3.58-2.2-5.724zm-3.625.187c1.57.701-1.877 1.801-.276.373l.276-.373zm.469 6.063c-.019 4.884-2.306 9.34-3.22 14.062.468-4.783.7-9.82 3.22-14.062zm-6.063 8.562c.445.513-.64.17 0 0zm10.906 7.063c1.427 3.953-.257 8.042-1.12 11.915-1.298-2.143.065-4.593-.097-6.878.259-1.71.655-3.401 1.217-5.037zm-8.344 1.25c.543.197-.379.429 0 0zm-8.968 10.187c2.043.736-1.201 4.473-1.203 1.788.252-.683.726-1.25 1.203-1.788zm5.469.781c.33.307-.306.719 0 0zm10.28 2.47c-.033.268-.047.378 0 0zm-.03.405c-.028.303-.047.514 0 0zm-.032.375c.303.98-.498 1.248 0 0zm-8.25 5.5c1.139-.75-.353 1.128 0 0zm-3.344 2.532c1.302.784-.968 1.073 0 0zm8.313.281c-.133.49.434.062 0 0zm-3.406.938c.466 1.66-1.46-.699 0 0zM224.826 189.231c2.675-1.72 11.133-4.174 9.894 1.198-2.592 2.158-2.244 1.242.523 1.268 2.96 1.854-2.876 6.461 2.028 5.164 5.223-1.077 5.252 7.172 2.243 5.422 4.567-2.823 7.84 3.774 3.188 5.83 1.73 3.634 8.079 1.686 11.67 3.015 3.696.542 10.84-.138 10.538 5.302-1.25 4.593-6.805 5.41-10.205 7.955-5.08 4.046 4.682 3.853 7.396 3.398 3.511 1.227 10.352-2.993 11.281 2.179-4.25 4-9.805 7.136-15.41 8.443-2.537-5.246 5.969-5.244 9.293-6.088 2.92-.313 12.137-3.831 9.704 2.05-4.182 4.756-9.585 8.288-14.91 11.647-1.019-4.326 6.864-2.609 7.684-2.174-.092 3.285-9.647 5.517-3.984 6.304 3.692.6 11.446-1.55 10.998 4.286-2.074 1.12 2.666-1.91 2.418 1.208.956 4.748-8.017 1.236-5.48-2.045-4.203-1.073-10.746.309-12.805-4.416-1.303-3.662 5.663-6.998 5.202-2.565-3.095 1.954-8.9-2.252-3.757-4.405 3.17-2.736 10.134-5.66 11.262-7.786-4.492.092-8.59 2.415-13.054 2.836-6.197.483 1.664-3.416 3.731-4.1 1.63-.597 8.286-3.945 3.024-2.728-5.426.98-11.29.708-16.688-.42-6.113-2.917 1.773-7.358 4.78-9.114 3.514-.67 8.127-7.336 1.499-6.502-5.759-.985-11.785-1.65-17.062-4.315-5.038-1.27 4.047-5.653-1.455-4.815-4.169-.695-.246-5.863-.003-4.945-3.335.287-9.679-2.287-7.075-6.319 1.966-1.802 6.16.987 1.768 1.16-4.67.78-5.318-7.53-.359-5.734.013 2.198-10.488 4.789-7.877-.194z"/></svg>