<svg xmlns="http://www.w3.org/2000/svg" height="120" width="120"><metadata/><path d="M103.752 50.701s-15.465 7.635-18.597 4.307c-3.132-3.328-3.915-9.788-8.026-22.316-4.111-12.529-5.286-19.968-7.243-22.708-1.958-2.74-12.333 5.677-12.333 11.354s2.153 28.972 1.175 29.56c-.98.587-21.925 3.523-24.079 3.719-2.153.195-16.248-3.524-15.856-.196.391 3.328-1.566 9.984-.587 13.507.978 3.524-3.72 14.878 3.915 18.01-6.46 11.354-.98 20.163 8.222 20.555 4.698.391 16.052 9.005 20.554 6.264 6.656-2.153 27.406-11.55 29.951-12.724 2.35-1.175 8.418-4.894 11.354-9.201 2.545-5.873 16.052-12.529 15.857-18.206-.196-5.677-.98-22.512-4.307-21.925z" fill-rule="evenodd" fill="#fff"/><path d="M70.734 5.813c-3.177 1.736-6.777 2.82-8.855 6.002-6.556 6.89-10.354 16.744-8.265 26.237 1.045 3.399 1.743 11.9 4.492 12.887 1.202-1.087 4.275 1.157 4.227-.336-4.374-8.949-5.645-24.789-.278-33.62.23 4.989-2.672 12.839 2.112 15.75 3.017.08 5.405-1.731 7.576-3.57.624 10.57 4.655 20.546 9.749 29.707 1.97-.872 3.64-2.872 5.967-2.369 4.922-.44 10.527-.796 14.408-3.981.585 7.536 3.355 13.913 2.986 21.45-2.793 4.73-6.116 9.167-10.601 12.44-4.265 3.711-7.813 8.237-11.578 12.383-5.676 1.957-11.634 3.285-16.75 6.608-6.094 3.8-13.194 6.065-20.398 5.787-2.988-1.255-11.15-2.82-9.088-6.21 5.842-3.522 12.64-4.622 18.802-7.346 1.93-.514 7.254-5.64 2.846-3.207-3.402 1.335-8.323 3.339-10.755 3.91-6.294 2.425-12.563 7.713-19.683 5.744-4.881-2.184-8.58-8.353-6.097-13.607 1.037-6.281 8.627.13 12.927-2.849 5.873-1.704 11.29-4.931 17.298-6.076l4.724-3.52c-9.275 1.128-17.388 8.971-27.13 6.074-3.698-1.609-10.222-1.801-11.182-6.075-.11-3.795.087-11.09 4.905-6.232 4.672 2.65 10.231 4.385 15.515 2.503 3.778-1.14 7.154-3.343 10.077-5.958-4.295 1.892-9.001 3.152-13.683 3.178-3.953-2.055-8.894-3.697-12.637-6.672-5.357-2.194-2.12-14.699 3.226-9.291 10.251 3.161 20.25-5.126 30.533-2.08l5.81-2.407c-8.389-4.76-17.478 1.174-26.137 1.63-5.519 1.375-10.036-6.231-15.161-1.645-3.53 3.121-6.561 7.636-6.629 12.466.883 3.089 3.245 3.752.579 5.817-1.138 4.997-5.063 13.768 2.157 15.583 3.108.975 5.43 1.85 1.7 3.558-4.69 2.87-4.638 9.404-1.644 13.477 2.116 3.837 6.131 7.097 10.765 6.117 1.225-.018 4.91-1.447 2.158-.165 1.67 4.72 7.961 6.15 12.487 7.005 6.958-.079 13.662-2.36 19.591-5.923 4.663-3.022 10.016-4.337 15.146-6.27a40.825 40.825 0 0017.569-13.233c4.411-5.47 11.722-9.117 14.241-15.699 3.614-3.654.581-9.058.231-13.444-1.194-3.583-1.155-9.535-2.548-11.77-.841.351-7.4 3.464-8.866 3.413-3.989 1.216-8.51 1.518-12.337-.395-2.562-1.651-3.821-7.542-5.346-10.95-3.352-9.553-2.047-20.152-6.337-29.464a35.855 35.855 0 00-2.819-5.363zm-2.966 7.597c1.524 4.572 5.063 11.762 2.739 15.434-5.866.315-2.514-8.862-3.05-12.81.083-.877.187-1.752.311-2.624z"/></svg>