<svg width="160" height="160" xmlns="http://www.w3.org/2000/svg"><metadata/><path d="M77.283 7.425c-2.486 0-4.941.14-7.36.395-6.341.513-12.077 1.687-15.95 3.439l-.017.008h-.007c-.17.111-.286.213-.451.324a25.483 25.483 0 00-5.826 2.458C24.812 24.876 8.98 47.846 8.774 74.472c-.007.025-.018.047-.024.071v.04c0 .083.015.162.016.245 0 .056-.008.11-.008.166 0 13.113 3.808 25.349 10.37 35.713.592 1.421 1.539 2.783 2.799 4.087a68.665 68.665 0 0037.626 25.468 69.405 69.405 0 0017.73 2.3 70.19 70.19 0 006.181-.284c.069-.007.138-.004.206-.016 2.27-.207 4.503-.52 6.703-.94 4.98-.778 9.567-2.05 13.13-3.898a68.742 68.742 0 0022.362-14.797l.055-.055a51.675 51.675 0 008.687-10.577c7.077-10.631 11.201-23.34 11.201-37.001 0-14.651-4.746-28.206-12.79-39.278a68.646 68.646 0 00-30.077-23.374l-.023-.008c-4.523-2.33-10.678-3.732-17.2-4.38a69.95 69.95 0 00-8.435-.529zm-1.383.42c1.229-.017 2.47-.011 3.707.023a85.6 85.6 0 015.36.332c.304.034.605.08.908.118-2.22.24-4.748 1.565-7.564 3.96l-.056.009c-.24-.068-.47-.147-.711-.214l-.04-.016-.04.008c-.23.049-.45.101-.68.15-.98-1.27-1.922-2.328-2.79-2.972-.908-.675-1.77-1.024-2.568-1.051a2.902 2.902 0 00-.783.079c-1.012.246-1.882 1.039-2.632 2.269-.05.08-.087.2-.135.284-1.99-.264-3.913-.43-5.722-.427-1.912.003-3.693.193-5.407.475a68.62 68.62 0 0113.5-2.751l.056-.008a88.216 88.216 0 015.597-.269zm-4.482.663c.72.024 1.513.339 2.387.988.808.6 1.71 1.6 2.648 2.798-.245.054-.483.112-.727.166-2.636-.733-5.143-1.265-7.518-1.596.027-.045.045-.114.072-.158.724-1.189 1.542-1.908 2.442-2.127.225-.054.456-.079.696-.07zm15.358.071c.378.006.742.05 1.1.119 1.526.296 2.879 1.174 4.07 2.537-.318-.011-.61-.049-.933-.055-3.713-.07-7.752.268-12.094.996 2.997-2.455 5.625-3.632 7.857-3.597zm2.498.245a68.446 68.446 0 0113.596 3.85c.331.172.613.371.925.553-3.399-1.12-7.223-1.77-11.422-1.96-.925-1.117-1.955-1.948-3.099-2.443zM58.81 9.931c-.266.073-.534.145-.799.221.263-.075.528-.149.799-.221zm3.351.775c1.762-.001 3.636.164 5.573.419-.358.67-.692 1.444-.996 2.324-7.804.957-14.632 2.609-20.576 4.83 1.548-1.934 4.006-4.051 7.383-6.324.24-.088.48-.176.72-.261a31.468 31.468 0 017.896-.988zm5.897.458c2.216.307 4.552.788 7.004 1.447-.222.05-.444.098-.664.15-2.518.153-4.969.36-7.312.64.3-.853.623-1.598.972-2.237zm22.947.324c.419.008.8.062 1.21.08.61.753 1.154 1.697 1.676 2.71-4.35-.759-9.037-1.276-14.07-1.533-.295-.087-.589-.175-.886-.26 4.338-.73 8.371-1.064 12.07-.997zm1.637.103c4.714.238 8.898 1.108 12.584 2.522 1.842 1.537 3.204 2.985 4.173 4.347-4.504-1.732-9.536-3.12-15.121-4.118-.508-1.015-1.038-1.975-1.636-2.751zm-15.138.798c.017.005.031.012.048.016-.126.023-.245.04-.372.063.11-.023.214-.055.324-.079zm-25.168.04c-3.056 2.161-5.32 4.19-6.719 6.063a66.443 66.443 0 00-4.98 2.118c1.91-2.44 4.177-4.483 6.806-6.079a68.414 68.414 0 014.893-2.102zm24.33.15l.04.047c-.1.005-.193.02-.293.024-.005-.001-.01-.006-.015-.008.09-.02.178-.043.268-.063zm1.7.063c.043.012.084.028.126.04l-.166-.008c.013-.011.027-.02.04-.032zm-.94.309c.029 0 .057.006.086.007-.01.01-.021.015-.031.024l-.056-.031zm.545.023c.606.023 1.198.057 1.794.087 5.768 1.708 11.103 3.687 16.015 5.913.195.644.362 1.36.537 2.055a122.905 122.905 0 00-8.64-.79 99.731 99.731 0 00-9.928-7.075c.076-.069.146-.122.222-.19zm-1.945.008a92.739 92.739 0 00-10.355 5.937c.217-1.202.463-2.319.727-3.336.037-.14.081-.243.119-.38a128.337 128.337 0 017.991-2.126c.506-.03 1.005-.07 1.518-.095zm.593.048c.167.049.322.083.49.134l.055.079c-.047.044-.087.074-.134.119h-.008l-.008.008c-1.775 2-3.427 4.323-4.98 6.869-2.23.12-4.441.296-6.632.513.072-.47.128-.967.206-1.415a92.442 92.442 0 0111.01-6.307zm4.482.094c4.622.281 8.936.79 12.963 1.502.206.42.433.783.625 1.241.345.825.65 1.751.948 2.696-4.494-2.023-9.334-3.845-14.536-5.439zm-8.53.064a126.243 126.243 0 00-5.936 1.644c.111-.385.23-.746.348-1.099 1.813-.219 3.67-.403 5.589-.545zm4.791.308c.11.156.205.255.316.419.004.005.004.01.008.016a149.17 149.17 0 011.96 6.094c-.535.001-1.069-.007-1.604 0-1.625.021-3.252.068-4.87.142-.246.012-.489.035-.735.048 1.507-2.448 3.096-4.696 4.806-6.624.04-.038.079-.058.119-.095zm.443.063a99.425 99.425 0 019.327 6.648 138.3 138.3 0 00-7.161-.182 149.83 149.83 0 00-1.992-6.213l-.008-.016-.008-.023c-.056-.083-.103-.133-.158-.214zm27.2.016c.703.309 1.404.617 2.094.949-.545-.245-1.123-.453-1.691-.672-.045-.038-.081-.073-.127-.111l-.008-.008c-.082-.057-.184-.102-.269-.158zm-38.377.206c-.125.378-.248.75-.364 1.162-8.431 2.564-15.839 5.819-22.267 9.604-.159-.882-.112-1.814.205-2.814.299-.94.852-1.94 1.628-2.988 5.981-2.28 12.883-3.984 20.798-4.964zm39.46.671c4.308 1.79 7.919 4.33 10.868 7.478a62.642 62.642 0 00-7.027-3.272c-.884-1.33-2.161-2.73-3.842-4.206zm-11.636.238c5.655 1.023 10.73 2.45 15.264 4.229 1.11 1.699 1.596 3.258 1.525 4.671-.008.164-.048.322-.071.482-.148-.043-.286-.099-.435-.142a88.1 88.1 0 00-8.11-1.913 106.883 106.883 0 00-6.584-3.272 33.29 33.29 0 00-1.06-2.996c-.162-.389-.356-.697-.53-1.06zm-28.307.632c-.017.066-.038.115-.055.182-.287 1.104-.536 2.338-.767 3.652a90.22 90.22 0 00-2.727 1.897c-6.262.744-12.257 1.874-17.706 3.328 6.177-3.553 13.258-6.612 21.255-9.059zm42.614.04a68.447 68.447 0 0118.434 13.825c-2.702-2.49-5.83-4.754-9.375-6.767-2.023-2.29-4.334-4.318-7.02-5.968-.646-.397-1.353-.735-2.039-1.09zm-63.442.245a26.06 26.06 0 00-5.154 5.074c-.064.084-.119.177-.182.261-6.694 3.314-12.012 7.46-16.07 12.213a68.314 68.314 0 0121.406-17.548zm-.032 3.343c-.639.929-1.11 1.83-1.383 2.688-.344 1.082-.397 2.109-.206 3.075-2.017.564-3.98 1.158-5.818 1.81-.365.13-.7.27-1.059.403.962-2.08 2.085-4 3.375-5.739a64.764 64.764 0 015.091-2.237zm64.936.158a61.05 61.05 0 017.407 3.565c.333.379.689.736 1.004 1.13a34.38 34.38 0 012.917 4.324c-3.096-1.554-6.47-2.877-10.07-3.96.027-.186.069-.37.078-.561.07-1.392-.357-2.89-1.336-4.498zm-14.038.056a107.71 107.71 0 015.494 2.687c-1.65-.296-3.324-.553-5.02-.774-.16-.638-.297-1.316-.474-1.913zm-30.923.41c-.065.388-.12.806-.182 1.21-.609.062-1.221.113-1.826.182a89.75 89.75 0 012.008-1.391zm12.782.767c.567-.007 1.132.001 1.7 0 1.401 4.692 2.666 9.658 3.793 14.83-2.714.16-5.48.226-8.228.173a97.6 97.6 0 01-9.739-.68c1.934-5.229 4.158-9.995 6.656-14.117.322-.017.642-.048.964-.063 1.614-.075 3.233-.121 4.854-.143zm2.023 0c2.506.003 5.01.068 7.494.206a96.995 96.995 0 0110.394 9.817c.099.866.198 1.73.277 2.633-4.254 1.103-9.188 1.84-14.37 2.166a203.67 203.67 0 00-3.795-14.822zm-8.244.23c-2.475 4.117-4.671 8.865-6.585 14.054-.334-.041-.665-.09-.996-.134.185-5.051.543-9.585 1.107-13.414a147.3 147.3 0 016.474-.506zm16.283.015c2.803.168 5.575.424 8.3.775.624 2.542 1.118 5.385 1.486 8.49-2.993-3.238-6.23-6.352-9.786-9.265zm-23.081.522c-.56 3.823-.923 8.331-1.107 13.343-4.862-.683-9.236-1.76-12.663-3.21 3.436-3.532 7.262-6.838 11.454-9.88.769-.091 1.54-.174 2.316-.253zm31.721.3c1.957.258 3.893.552 5.786.91a96.439 96.439 0 017.486 4.49c-.96 1.306-2.439 2.477-4.363 3.493-1.55.82-3.402 1.53-5.43 2.15a97.029 97.029 0 00-1.97-2.22c-.368-3.225-.866-6.182-1.509-8.822zm-34.701.04a88.52 88.52 0 00-11.09 9.66c-1.46-.639-2.79-1.323-3.834-2.103-1.33-.994-2.288-2.096-2.798-3.304a5.447 5.447 0 01-.245-.767c5.497-1.52 11.586-2.7 17.967-3.486zm-22.45.04a33.42 33.42 0 00-3.193 5.604c-5.36 2.027-9.827 4.408-12.924 7.098.198-.244.38-.494.585-.735 3.932-4.634 9.078-8.692 15.533-11.967zm63.925 1.027a86.491 86.491 0 017.122 1.715c.165.048.319.11.483.159a5.953 5.953 0 01-.925 2.173 96.345 96.345 0 00-6.68-4.047zm14.972.664c4.968 2.938 9.069 6.389 12.33 10.245a43.444 43.444 0 011.756 2.22c.503.68.973 1.371 1.43 2.072-3.045-3.77-7.136-6.864-11.96-9.351-.941-1.682-1.987-3.28-3.169-4.759-.12-.15-.265-.279-.387-.427zm-7.06 1.304c3.726 1.124 7.217 2.49 10.388 4.119 1.966 3.533 3.409 7.49 4.37 11.746-4.332-4.888-9.556-9.476-15.73-13.612.478-.709.809-1.456.973-2.253zm-67.655.562c.07.264.146.528.253.782.54 1.275 1.54 2.414 2.901 3.43 1.043.78 2.354 1.467 3.787 2.103-6.31 6.555-11.305 13.837-15.146 21.422-.304.096-.624.178-.925.277-.793.26-1.531.559-2.3.837-.273-8.442.62-16.359 2.893-23.034a81.575 81.575 0 018.537-5.817zm-1.075.276a81.725 81.725 0 00-7.248 4.972c.362-1.017.757-2 1.185-2.956.452-.17.88-.35 1.344-.514a88.568 88.568 0 014.72-1.502zm67.577 1.66c6.33 4.238 11.658 8.953 16.046 13.976 1.013 4.737 1.406 9.841 1.297 15.129-.506-.213-.973-.442-1.494-.648-3.948-1.557-8.389-2.875-13.114-4a97.736 97.736 0 00-12.576-18.726c1.994-.618 3.826-1.32 5.367-2.134 1.954-1.032 3.477-2.235 4.474-3.597zm-74.059.514a41.011 41.011 0 00-1.248 3.178c-6.485 5.086-11.631 10.809-15.525 16.884-.754-2.265-.8-4.72.008-7.39.053-.153.152-.3.213-.451a42.516 42.516 0 012.356-3.637c2.95-3.26 7.918-6.176 14.196-8.584zm86.098 1.344c5.87 3.098 10.601 7.117 13.62 12.165.825 3.73.053 7.03-1.97 9.944a69.76 69.76 0 00-7.335-10.102c-.932-4.341-2.356-8.386-4.315-12.007zm-23.999 1.905a96.527 96.527 0 011.589 1.81c-.44.13-.91.242-1.368.364a105.23 105.23 0 00-.22-2.174zm-63.521.474c-2.19 6.654-3.048 14.471-2.767 22.797a67.002 67.002 0 00-5.21 2.15c-2.077-1.38-3.808-2.887-5.113-4.521a13.429 13.429 0 01-2.127-3.716c3.816-6.006 8.859-11.662 15.217-16.71zm16.22.277c3.49 1.5 7.946 2.592 12.892 3.28-.046 1.322-.088 2.67-.11 4.055a143.366 143.366 0 00-2.648 9.154c-8.99.79-17.587 2.324-25.16 4.671 3.824-7.49 8.779-14.685 15.026-21.16zm49.103 1.32a97.413 97.413 0 0112.482 18.52 142.465 142.465 0 00-13.557-2.482c.09-5.56-.072-10.812-.482-15.611.525-.14 1.056-.276 1.557-.427zm-1.865.506c.405 4.761.56 9.975.474 15.493-4.064-.537-8.24-.917-12.465-1.162-.701-4.134-1.473-8.214-2.332-12.181 5.156-.324 10.068-1.05 14.323-2.15zm-34.03 1.494c.297.04.594.081.894.118-.345.945-.654 1.938-.98 2.91.02-1.036.052-2.03.087-3.028zm1.226.158c3.172.381 6.484.623 9.849.688 2.775.053 5.567-.01 8.308-.174a273.706 273.706 0 012.331 12.149c-1.49-.084-2.981-.175-4.481-.221a170.817 170.817 0 00-17.287.316c-.049-3.03-.094-6.043-.048-8.861.431-1.317.863-2.63 1.328-3.897zm-45.855 4.15c-.06.129-.128.257-.182.387-3.594 6.195-5.5 13.079-5.984 20.244a58.318 58.318 0 00-2.56 9.588 20.946 20.946 0 00-1.771 4.055c.3-12.582 4.1-24.31 10.497-34.274zm44.195.727c-.03 2.526.02 5.215.063 7.905-.792.056-1.577.13-2.363.197.708-2.77 1.465-5.484 2.3-8.102zm-44.898 1.28c-.544 2.42-.414 4.683.332 6.775a60.574 60.574 0 00-5.4 10.774c.545-6.17 2.19-12.104 5.068-17.548zm107.874.325a69.206 69.206 0 017.02 9.778c-.304.417-.634.823-.989 1.225-1.232 1.393-2.826 2.67-4.624 3.865l-.237-.103c.115-5.143-.229-10.125-1.17-14.765zm9.636.434c3.558 7.062 5.1 14.921 4.964 23.019-.3-.327-.597-.655-.925-.973-.231-.223-.522-.429-.767-.648a64.199 64.199 0 00-5.525-12.039c1.947-2.756 2.78-5.886 2.253-9.359zm.893 1.1c4.984 9.049 7.904 19.359 8.181 30.305-.31-2.908-1.637-5.602-3.802-8.062.173-7.78-1.184-15.366-4.38-22.244zM75.25 47.651a178.46 178.46 0 016.198.079c1.52.047 3.034.136 4.545.221 1.036 6.144 1.852 12.41 2.545 18.655a165.435 165.435 0 01-23.635-.182 405.125 405.125 0 01-.624-12.26c-.074-2.105-.076-4.074-.11-6.11 3.658-.251 7.366-.39 11.081-.403zm11.059.316c4.21.246 8.362.635 12.41 1.17-.028 1.63-.066 3.275-.134 4.948-.155 3.79-.417 7.685-.767 11.612-2.927.375-5.918.675-8.964.877-.691-6.232-1.512-12.474-2.545-18.607zm-22.457.11c.035 2.034.037 4 .11 6.103.14 3.99.347 8.086.617 12.22-2.26-.184-4.479-.432-6.671-.71.72-4.705 1.577-9.365 2.616-13.881.274-1.192.58-2.355.878-3.526.816-.07 1.628-.147 2.45-.205zm-44.48.182a13.789 13.789 0 002.08 3.581c1.297 1.624 2.998 3.117 5.027 4.482-5.25 2.49-9.659 5.51-12.821 9.13a55.457 55.457 0 01.087-5.668 60.075 60.075 0 015.628-11.525zm41.698.056c-.288 1.139-.588 2.264-.854 3.423-1.041 4.524-1.903 9.193-2.624 13.904-8.768-1.138-16.882-3.008-23.374-5.652-.471-.192-.883-.409-1.336-.609a89.2 89.2 0 012.909-6.34c7.585-2.378 16.232-3.927 25.279-4.726zm37.965.861a141.83 141.83 0 0113.762 2.53 98.074 98.074 0 014.348 9.77c-5.598 1.88-12.07 3.277-19.01 4.182.347-3.911.612-7.79.766-11.565.068-1.663.106-3.296.134-4.917zm34.915 2.34c2.182 3.725 3.945 7.54 5.28 11.399-2.807-2.41-6.436-4.563-10.718-6.443 1.742-1.175 3.298-2.427 4.513-3.802.332-.375.637-.763.925-1.154zm-20.742.293c4.61 1.108 8.943 2.4 12.798 3.92.56.222 1.063.466 1.605.696-.003.098.002.194 0 .292-2.303 1.458-4.977 2.768-7.984 3.913-.693.264-1.449.496-2.174.743a98.383 98.383 0 00-4.245-9.564zm-77.844 1.36a89.549 89.549 0 00-2.696 5.896 97.691 97.691 0 01-.316-4.838c.796-.29 1.564-.6 2.387-.869.203-.067.42-.124.625-.19zm-3.328 1.177c.059 1.577.177 3.182.316 4.79-1.89-.858-3.658-1.768-5.201-2.766a66.591 66.591 0 014.885-2.024zm-5.249 2.182c1.646 1.078 3.555 2.049 5.589 2.964l.016.205c-4.56 11.295-6.595 22.979-6.324 33.808a47.976 47.976 0 01-6.687-3.517c-2.129-5.016-3.754-10.165-4.712-15.327a62.78 62.78 0 01-.995-8.743c3.176-3.732 7.695-6.84 13.113-9.39zm101.416.158c4.54 1.976 8.357 4.247 11.217 6.798a61 61 0 011.7 6.126 65.919 65.919 0 01-.807 5.762c-.788 4.27-2.035 8.524-3.612 12.703-2.612 1.903-5.683 3.636-9.233 5.146a38.5 38.5 0 00-3.81-2.119 87.354 87.354 0 00-.593-7.343c2.095-6.488 3.602-13.1 4.356-19.572.287-2.466.432-4.895.506-7.304.098-.063.18-.134.276-.197zm-.6.427c-.078 2.321-.222 4.666-.498 7.043-.725 6.228-2.142 12.596-4.119 18.852-.92-7.007-2.722-14.209-5.422-21.342.727-.248 1.486-.479 2.182-.743 2.94-1.12 5.578-2.39 7.857-3.81zm-94.848 2.553c.457.2.87.423 1.344.616 6.527 2.659 14.66 4.536 23.445 5.676a218.535 218.535 0 00-1.992 18.544c-5.951.849-11.557 2.044-16.528 3.605-3.183-9.127-5.368-18.64-6.269-27.761-.02-.198-.021-.388-.04-.585l.04-.095zm-.316.72c.903 9.141 3.089 18.671 6.276 27.815-1.704.543-3.353 1.112-4.893 1.74-2.734 1.113-5.185 2.366-7.296 3.746-.046-.02-.096-.035-.142-.055-.285-10.64 1.653-22.123 6.055-33.247zm-19.09.505a56.608 56.608 0 00-.007 4.917 24.01 24.01 0 00-2.024 2.798 58.035 58.035 0 012.031-7.715zm103.914.877c2.78 7.34 4.596 14.75 5.486 21.944-.66 2.04-1.385 4.058-2.166 6.063-.382-.155-.73-.325-1.122-.475-6.66-2.537-14.836-4.284-23.603-5.296a267.156 267.156 0 002.253-18.022c6.989-.908 13.508-2.316 19.152-4.214zm22.592 2.08c.113.104.254.202.363.308.404.39.78.79 1.139 1.193a60.534 60.534 0 01-.158 3.178 61.683 61.683 0 00-1.344-4.68zm1.81 1.865c2.42 2.852 3.707 5.996 3.565 9.414-.204 2.41-1.029 4.65-2.363 6.735a59.631 59.631 0 00-1.44-12.268c.122-1.297.199-2.592.238-3.881zm-83.805.292c2.215.282 4.459.526 6.743.712.367 5.557.881 11.141 1.454 16.67-3.472.245-6.874.603-10.189 1.068.398-6.1 1.061-12.307 1.992-18.45zm39.926.016a266.85 266.85 0 01-2.244 17.944 148.97 148.97 0 00-5.17-.49c-.346-5.429-.871-10.995-1.486-16.584 3.024-.202 5.992-.5 8.9-.87zm-84.429.269c.138 2.794.474 5.61.996 8.426.936 5.043 2.513 10.073 4.561 14.98-1.56-1.02-3.017-2.077-4.237-3.226-1.942-1.828-3.41-3.824-4.363-5.976a57.436 57.436 0 01.854-11.05 23.247 23.247 0 012.19-3.154zm51.57.458c3.86.306 7.797.476 11.738.506 3.988.03 7.98-.078 11.905-.332.613 5.571 1.132 11.118 1.478 16.529-4.49-.34-9.072-.517-13.66-.482-3.359.025-6.706.177-10.014.403-.572-5.514-1.08-11.082-1.447-16.624zM10.71 70.314a57.706 57.706 0 00-.719 9.407 14.152 14.152 0 01-.925-5.099v-.031-.008-.008c.381-1.488.946-2.904 1.644-4.26zm130.6.19a59.306 59.306 0 011.257 11.81c-1.06 1.55-2.4 3.015-4.015 4.387-.414.35-.913.673-1.36 1.011 1.493-4.039 2.67-8.152 3.43-12.275.305-1.646.51-3.29.688-4.933zm4.198 4.94a66.087 66.087 0 01-7.628 30.417 55.988 55.988 0 004.766-18.164c.156-1.749.233-3.512.23-5.289 1.452-2.145 2.367-4.467 2.632-6.964zm-136.37 2.57c.203.872.5 1.72.86 2.545.037 1.737.142 3.469.333 5.185a57.34 57.34 0 001.952 9.691 66.117 66.117 0 01-3.146-17.422zm1.209 3.304c.97 1.93 2.35 3.727 4.11 5.383 1.33 1.252 2.934 2.405 4.656 3.501a82.255 82.255 0 003.264 6.83c-.428.437-.835.885-1.201 1.344-2.462 3.082-3.452 6.652-2.577 10.647a56.817 56.817 0 01-7.952-23.31 57.347 57.347 0 01-.3-4.395zm132.204 1.58c-.01 1.6-.072 3.19-.213 4.767-.674 7.543-2.835 14.764-6.3 21.232.828-4.295-.423-8.078-3.249-11.296 1.605-3.038 2.981-6.169 4.182-9.343.597-.44 1.236-.86 1.778-1.32 1.493-1.266 2.769-2.613 3.802-4.04zm-66.161.388c4.599-.035 9.19.139 13.69.482.383 6.061.548 11.842.601 17.398-4.865.388-9.813.609-14.766.609-2.426 0-4.846-.057-7.256-.15-.858-5.704-1.6-11.755-2.245-17.936 3.296-.225 6.628-.378 9.976-.403zm-10.3.419c.644 6.169 1.39 12.207 2.245 17.904-4.381-.178-8.7-.518-12.908-1.004-.002-.156-.014-.303-.016-.459-.055-4.938.108-10.11.443-15.366 3.328-.468 6.746-.83 10.236-1.075zm24.307.095c1.72.134 3.423.291 5.106.482a235.604 235.604 0 01-3.32 16.758c-.394.034-.79.07-1.186.102-.053-5.538-.22-11.304-.6-17.342zm5.414.521c8.752 1.01 16.912 2.748 23.54 5.273.392.149.734.32 1.115.474a108.934 108.934 0 01-2.83 6.56c-7.551 2.129-16.152 3.58-25.12 4.388A236.058 236.058 0 0095.81 84.32zm27.018.15c.252 2.188.421 4.348.506 6.482-.778-.369-1.625-.708-2.458-1.051.7-1.797 1.35-3.605 1.952-5.43zm-67.3.356c-.331 5.24-.49 10.394-.434 15.32.001.142.006.276.008.418a141.13 141.13 0 01-11.842-1.889 123.354 123.354 0 01-4.134-10.268c4.93-1.546 10.494-2.735 16.402-3.58zm-16.71 3.668a123.906 123.906 0 004.055 10.094c-4.706-.981-9.15-2.162-13.13-3.604-.991-.36-1.909-.758-2.845-1.147 2.048-1.32 4.4-2.528 7.043-3.604a66.27 66.27 0 014.877-1.739zm97.662.134c-1.143 2.96-2.433 5.88-3.929 8.72-1.295-1.42-2.929-2.717-4.79-3.922 3.306-1.42 6.215-3.028 8.719-4.798zm-15.723 1.565c.88.363 1.776.716 2.593 1.107.042 1.17.063 2.33.055 3.478-.241.086-.459.184-.703.269a91.284 91.284 0 01-4.648 1.454 109.34 109.34 0 002.703-6.308zm-101.179.293a49.24 49.24 0 006.498 3.351c.001.05-.002.101 0 .15a24.455 24.455 0 00-3.462 2.815 82.217 82.217 0 01-3.036-6.316zm104.096.988a38.804 38.804 0 013.447 1.89c-1.088.455-2.24.877-3.4 1.296a82.523 82.523 0 00-.047-3.186zm3.755 2.103c1.955 1.249 3.646 2.606 4.972 4.078-3.108 5.842-6.962 11.33-11.343 16.268 1.393-4.67 2.27-9.782 2.577-15.193.069-1.223.067-2.48.079-3.73 1.27-.458 2.53-.922 3.715-1.423zm-100.863.458c1.008.422 2.004.853 3.075 1.241 4.06 1.471 8.59 2.675 13.39 3.668 1.296 2.832 2.663 5.608 4.15 8.26a93.558 93.558 0 007.185 10.948c-3.508 1.072-6.443 2.388-8.442 3.96-.414.326-.773.671-1.106 1.02-6.62-5.09-12.459-11.376-17.264-18.339a68.94 68.94 0 01-1.162-10.165c-.006-.151.005-.307 0-.459.063-.042.11-.092.174-.134zm-.49.372c.003.078-.003.159 0 .237.131 3.279.505 6.458 1.06 9.533-1.563-2.306-3.037-4.659-4.356-7.09.946-.944 2.07-1.831 3.296-2.68zm97.321.711c-.013 1.206-.012 2.417-.079 3.597-.32 5.656-1.281 10.968-2.79 15.793-.745.824-1.469 1.67-2.245 2.458-2.433 2.474-5.04 4.731-7.746 6.814-1.011-1.92-3.038-3.5-5.747-4.766-.275-.129-.596-.234-.885-.356a86.371 86.371 0 006.616-8.648c2.746-4.11 5.18-8.533 7.343-13.113 1.7-.482 3.353-1.001 4.94-1.55.207-.071.39-.157.593-.229zM117.462 97c-2.13 4.481-4.52 8.813-7.209 12.837a86.075 86.075 0 01-6.656 8.695c-3.492-1.427-7.92-2.42-12.82-2.995.137-2.764.235-5.642.268-8.688.371-1.376.741-2.755 1.09-4.181.107-.434.205-.89.309-1.328 8.92-.798 17.476-2.235 25.018-4.34zm-94.919.317a85.3 85.3 0 004.712 7.627c1.194 6.205 3.28 11.868 6.142 16.758-3.989-1.722-7.335-3.664-9.818-5.778a55.661 55.661 0 01-4.466-6.102c-1.218-4.27-.277-8.003 2.316-11.249a17.51 17.51 0 011.114-1.256zm110.08.592c2.803 3.236 3.998 6.981 3.043 11.304-3.843 6.431-10.498 11.156-18.718 14.473 1.532-2.739 2.827-5.743 3.85-8.995 4.582-5.071 8.599-10.734 11.825-16.782zm-89.196 1.123c3.74.76 7.65 1.375 11.683 1.85.092 6.01.485 11.65 1.147 16.741-.529.14-1.052.285-1.558.435a92.963 92.963 0 01-7.24-11.01c-1.443-2.573-2.77-5.273-4.032-8.016zm12.008 1.889c4.217.487 8.55.827 12.94 1.004.064.425.116.89.181 1.312a268.07 268.07 0 002.134 12.039c-5.066.412-9.915 1.172-14.117 2.26-.656-5.051-1.046-10.654-1.138-16.615zm36.677.45c-.096.405-.186.825-.285 1.226-.25 1.025-.52 2.004-.782 3.004.008-1.333-.036-2.758-.048-4.135.373-.03.744-.062 1.115-.094zm-1.43.12c.014 1.693.07 3.463.055 5.09-.001.075-.008.138-.008.213a148.99 148.99 0 01-2.554 8.482c-3.242-.28-6.618-.41-10.023-.364-1.46.02-2.924.065-4.379.142-.926.05-1.841.126-2.758.198-.76-3.75-1.479-7.781-2.143-12.062-.062-.401-.112-.845-.173-1.25 2.397.093 4.802.15 7.216.15 4.952 0 9.9-.213 14.766-.6zm-62.953 4.141c4.731 6.726 10.435 12.788 16.868 17.738-.51.575-.905 1.176-1.17 1.81-1.983-.557-3.915-1.137-5.722-1.778a70.253 70.253 0 01-3.826-1.486c-2.838-4.74-4.912-10.247-6.15-16.284zm62.96 2.585a219.584 219.584 0 01-.23 7.28 84.046 84.046 0 00-1.96-.198c.759-2.268 1.5-4.607 2.19-7.082zm44.36 2.45c-.21.36-.429.714-.647 1.068a67.794 67.794 0 01-8.83 10.742l-.047.047c-4.242 3.905-9.22 7.124-14.837 9.47 2.305-2.209 4.29-4.88 6.007-7.865 7.866-3.112 14.315-7.526 18.355-13.462zm-56.889 4.561c3.365-.043 6.701.09 9.905.364-1.889 5.583-3.972 10.469-6.213 14.276-2.372.037-4.746.009-7.114-.071-1.288-3.81-2.521-8.655-3.66-14.229.902-.07 1.8-.15 2.711-.197 1.451-.077 2.914-.124 4.371-.143zm42.108.048c-1.024 3.11-2.296 5.983-3.794 8.6a68.35 68.35 0 01-5.296 1.85 6.135 6.135 0 00-.514-1.629c2.745-2.106 5.385-4.395 7.85-6.9.606-.617 1.166-1.283 1.754-1.921zm-49.506.316c1.13 5.542 2.355 10.373 3.644 14.197-.498-.018-.998-.025-1.494-.048-2.575-.119-5.126-.328-7.652-.577-2.875-2.334-5.611-5.077-8.197-8.134-.168-1.017-.308-2.098-.45-3.17 4.2-1.09 9.065-1.854 14.149-2.268zm17.635.024a83.91 83.91 0 012.055.213c-.27 5.203-.724 9.85-1.36 13.723-2.28.159-4.57.273-6.877.316 2.238-3.83 4.31-8.698 6.182-14.252zm2.371.253c4.827.57 9.184 1.53 12.616 2.916-3.576 4.073-7.461 7.656-11.612 10.569-.778.071-1.564.117-2.348.174.633-3.869 1.077-8.494 1.344-13.66zm-67.363.332l.048.04a55.964 55.964 0 0015.05 12.457 32.308 32.308 0 007.754 6.166A68.298 68.298 0 0123.405 116.2zm1.36 1.067c2.413 1.785 5.417 3.42 8.9 4.893 1.25 2.075 2.615 4.027 4.158 5.778a55.59 55.59 0 01-13.058-10.671zm31.531.68c.116.868.232 1.744.364 2.576a77.955 77.955 0 01-1.74-2.19c.449-.131.91-.263 1.376-.386zm-1.707.474c.715.93 1.424 1.863 2.166 2.743.428 2.59.956 4.965 1.549 7.153-2.826-.419-5.586-.915-8.245-1.486a71.855 71.855 0 01-5.003-3.501c.317-.332.66-.659 1.059-.973 1.974-1.552 4.929-2.866 8.474-3.936zm49.103.49c.317.133.665.255.965.395 2.701 1.264 4.663 2.825 5.62 4.688a68.408 68.408 0 01-4.474 3.161c-4.278.983-8.776 1.696-13.39 2.143 4.03-2.888 7.799-6.414 11.28-10.387zm-46.503 2.782c2.373 2.762 4.877 5.25 7.494 7.415a143.55 143.55 0 01-6.031-.727 71.661 71.661 0 01-1.463-6.688zm-23.05.68c1.112.459 2.266.904 3.463 1.328 1.802.639 3.725 1.223 5.699 1.779-.417 1.203-.367 2.504.237 3.873.304.687.75 1.388 1.336 2.11a57.57 57.57 0 01-6.166-3.003c-1.696-1.824-3.21-3.88-4.568-6.087zm10.703 1.194a72.38 72.38 0 004.38 3.083c-1.891-.421-3.71-.891-5.486-1.384.25-.588.623-1.154 1.106-1.7zm65.57.735c.217.488.38.99.458 1.518-.172.05-.333.115-.506.166-1.168.338-2.372.64-3.581.932 1.238-.82 2.437-1.71 3.628-2.616zm5.81.008c-1.765 2.995-3.795 5.67-6.159 7.849-.077.071-.159.135-.237.206-.34.134-.691.25-1.035.379 1.874-2.498 2.623-4.728 2.419-6.703a69.477 69.477 0 005.011-1.731zm-72.62 1.257c2.034.565 4.132 1.086 6.315 1.557a65.428 65.428 0 009.596 5.05c.473 1.292.97 2.502 1.518 3.558-5.564-.708-10.735-2.075-15.485-3.992-.779-.871-1.361-1.712-1.715-2.514-.58-1.312-.625-2.527-.23-3.66zm67.291.577c.18 1.958-.6 4.215-2.64 6.798-6.109 2.2-12.924 3.379-20.362 3.304.113-.36.233-.694.34-1.083 6.227-1.5 12.183-4.168 17.714-7.715a84.137 84.137 0 004.506-1.162c.15-.044.292-.098.442-.142zm10.126.426a68.468 68.468 0 01-15.2 9.486l.007-.016c.283-.268.524-.527.783-.79 1.2-.786 2.341-1.672 3.423-2.648a51.293 51.293 0 0010.987-6.032zm-70.224.736c2.46.511 4.99.968 7.588 1.351.305 1.102.64 2.124.988 3.107a64.928 64.928 0 01-8.576-4.458zm54.265.332c-5.254 3.276-10.877 5.742-16.742 7.177a49.66 49.66 0 00.75-3.312c.954-.581 1.895-1.2 2.823-1.85 4.53-.418 8.946-1.086 13.169-2.015zm-46.321 1.075c2.1.303 4.241.544 6.402.758 3.495 2.826 7.189 5.06 11.043 6.57-.121.009-.242.022-.363.03-5.538-.554-10.918-1.987-16.047-4.141a45.456 45.456 0 01-1.035-3.217zm-19.303.482a58.067 58.067 0 005.904 2.79c1.44 1.604 3.692 3.31 6.672 5.09-4.52-1.494-8.49-3.932-11.865-7.153-.245-.234-.473-.486-.711-.727zm26.29.34c2.37.225 4.759.41 7.17.521.536.025 1.075.029 1.612.048.817 2.382 1.654 4.37 2.514 5.85-.045.003-.09.011-.134.015-3.89-1.441-7.625-3.63-11.162-6.434zm25.54.166c-.701.48-1.41.94-2.126 1.383.076-.406.158-.808.23-1.233a126.44 126.44 0 001.896-.15zm-2.229.174c-.083.494-.18.97-.269 1.438-3.072 1.862-6.273 3.356-9.58 4.427-.478.056-.95.095-1.423.142.01-.012.022-.02.032-.032.004-.004.004-.01.008-.015 1.47-1.455 2.887-3.37 4.244-5.652 2.344-.04 4.671-.147 6.988-.308zm-14.197.237c2.276.075 4.56.104 6.838.07-1.32 2.203-2.687 4.04-4.103 5.44l-.007.007h-.008c-.079.093-.152.147-.23.237-.843-1.437-1.679-3.396-2.49-5.754zm13.857 1.62a47.94 47.94 0 01-.727 3.162 49.755 49.755 0 01-5.96 1.036c-.611-.059-1.223-.115-1.842-.19a46.224 46.224 0 008.53-4.008zm-42.669.538c4.677 1.83 9.755 3.127 15.2 3.802.547 1.008 1.126 1.905 1.748 2.664-3.42.029-6.619-.393-9.589-1.226-3.27-1.845-5.753-3.606-7.359-5.24zm13.88.07c4.51 1.869 9.206 3.18 14.04 3.835-4.365.227-8.548.087-12.53-.396-.02-.038-.043-.064-.063-.102-.519-.992-.994-2.125-1.446-3.336zm49.27.586c-.494.42-1 .82-1.518 1.201.28-.315.562-.633.807-.94.238-.087.475-.172.711-.261zm-1.328.49a26.871 26.871 0 01-1.43 1.573c-5.378 3.521-11.925 5.032-19.525 3.857.155-.331.32-.62.466-.996.152-.388.285-.861.427-1.296 7.305.083 14.024-1.03 20.062-3.138zm-19.96 1.826c-.101.365-.224.658-.331.996a68.128 68.128 0 01-4.016-.174 50.25 50.25 0 004.348-.822zm-8.22.767c.013.001.026-.002.04 0 .272.034.535.055.806.087-.546.043-1.095.053-1.644.079.122-.039.241-.087.363-.127.146-.017.289-.021.435-.04zm-18.038.118c4.484.528 9.213.635 14.173.261.286.029.574.055.861.079-.254.064-.503.146-.758.206H75.9c-4.457 1.332-8.63 1.982-12.53 2.055-.615-.724-1.189-1.613-1.738-2.6zm15.983.087l-.047.016-.024-.008.07-.008zm4.41.032c1.845.175 3.655.279 5.431.308-.13.392-.25.826-.387 1.178-.157.402-.332.711-.498 1.059-2.626-.43-5.376-1.18-8.245-2.277a48.352 48.352 0 003.7-.268zm-4.64.348c.992 1.767 1.935 3.144 2.83 4.07.499.516.988.906 1.463 1.178-.514.023-1.027.065-1.541.08a89.448 89.448 0 01-10.23-.31c2.172-.478 4.547-2.075 7.13-4.924.117-.03.233-.063.349-.094zm.404.055c3.011 1.183 5.892 1.978 8.647 2.434-.396.782-.808 1.465-1.248 1.93-.29.304-.582.525-.886.687-.646.049-1.294.076-1.944.11-.596-.22-1.233-.656-1.913-1.359-.83-.858-1.722-2.164-2.656-3.802zm26.322.047c-.232.132-.437.277-.68.403-.402.165-.81.317-1.217.475a25.964 25.964 0 001.897-.878zm-27.745.174c-2.992 3.157-5.67 4.636-7.992 4.585a76.255 76.255 0 01-1.177-.135c-1.29-.312-2.484-1.096-3.573-2.292 3.856-.094 7.973-.738 12.355-2.047l.015-.008c.125-.03.247-.073.372-.103zm-24.884.364c.584.202 1.168.399 1.77.569.209.117.379.23.594.348-.8-.288-1.58-.6-2.364-.917zm50.036.608a68.455 68.455 0 01-11.69 3.226c-1.59.237-3.213.43-4.862.569.154-.122.305-.25.45-.403.487-.512.927-1.254 1.345-2.095 5.46.855 10.4.347 14.757-1.297zm-47.182.23c2.775.68 5.74 1.017 8.885.972.825.945 1.719 1.655 2.671 2.118a57.609 57.609 0 01-6.102-1.177c-.247-.065-.49-.139-.735-.206-1.639-.449-3.141-.952-4.41-1.526-.004-.001-.005-.006-.009-.007-.112-.06-.19-.115-.3-.174z" fill-rule="evenodd"/></svg>