<svg width="160" height="160" xmlns="http://www.w3.org/2000/svg" xmlns:xlink="http://www.w3.org/1999/xlink"><defs><linearGradient xlink:href="#c" id="g" x1="-.011" y1="1.051" x2=".604" y2=".687"/><linearGradient id="b"><stop offset="0"/><stop offset="1" stop-opacity="0"/></linearGradient><linearGradient id="c"><stop offset="0" stop-color="#fff"/><stop offset="1" stop-color="#fff" stop-opacity="0"/></linearGradient><linearGradient xlink:href="#a" id="d" x1=".388" y1=".657" x2=".731" y2=".46"/><linearGradient xlink:href="#b" id="e" x1="1.227" y1=".066" x2=".564" y2=".54"/><linearGradient xlink:href="#b" id="f" x1="-.043" y1=".924" x2=".608" y2=".646"/><linearGradient id="a"><stop offset="0" stop-color="#fff" stop-opacity="0"/><stop offset=".5" stop-color="#fff" stop-opacity=".247"/><stop offset="1" stop-color="#fff" stop-opacity="0"/></linearGradient><linearGradient xlink:href="#c" id="h" x1=".239" y1=".91" x2=".673" y2=".59"/><linearGradient xlink:href="#c" id="i" x1=".313" y1=".96" x2=".863" y2=".431"/><linearGradient xlink:href="#a" id="j" x1=".102" y1=".682" x2=".775" y2=".384"/><linearGradient xlink:href="#c" id="l" x1=".937" y1="-.074" x2=".401" y2=".301"/><linearGradient xlink:href="#c" id="k" x1=".817" y1=".029" x2=".352" y2=".392"/><linearGradient xlink:href="#c" id="m" x1="-.064" y1="1.025" x2=".446" y2=".53"/></defs><metadata/><path d="M74.094 6.156c-5.82-.025-12.533.97-19.438 3.063C36.245 14.8 23.363 26.14 25.906 34.53c0 0 40.131 105.83 40.144 105.87 2.543 8.39 19.851 10.086 38.263 4.505 18.411-5.581 31.293-16.922 28.75-25.312l-40.6-107.77c-2.065-3.776-9.556-5.629-18.37-5.668z" fill-rule="evenodd"/><path d="M65.172 34.419C46.76 40 30.055 40.165 26.716 35.025c0 0 9.543 26.124 9.555 26.164 2.543 8.39 18.97 10.087 37.38 4.506 18.412-5.582 31.294-16.923 28.75-25.313L91.986 12.055c-.595 8.283-7.262 15.27-26.813 22.364z" fill="#eca548" fill-rule="evenodd"/><path d="M30.294 31.765c-5.882-16.177 50-27.941 55.882-20.294 7.353 15.588-46.47 29.705-55.882 20.294z" fill="#dcdcdc" fill-rule="evenodd"/><path d="M72.156 6.688c-5.962.217-12.27 1.25-17.344 3.125-20.882 6.176-30.59 18.21-28.53 24.093 4.117 10 28.41 4.93 40.468.813 18.53-6.177 26.827-15.892 25.063-22.657-.736-3.86-9.72-5.737-19.657-5.374zm1.063 5.093c5.014-.354 8.855.285 10.031 2.344 4.706 7.647-42.675 25.588-47.969 15-2.867-6.397 22.896-16.282 37.938-17.344z" fill="#eca548" fill-rule="evenodd"/><path d="M93.079 12.781l-1.357-1.377c.58 2.15-.066 5.984-1.222 8.127-1.156 2.143-3.11 4.27-5.656 6.282-5.093 4.022-12.52 7.567-20.406 10.03-7.886 2.465-16.233 3.86-23.157 3.657-6.924-.204-12.992-2.381-15.238-6.057l-.218 1.332c2.607 4.266 8.305 5.765 15.425 5.975 7.12.21 15.566-1.22 23.563-3.719 7.996-2.499 15.537-6.083 20.812-10.25 2.638-2.083 4.73-4.3 6-6.656 1.27-2.355 2.124-4.86 1.454-7.344z" fill-rule="evenodd"/><path d="M71.327 39.82l2.399 6.354 6.334-2.39 1.08 2.86-6.334 2.392 2.398 6.353-2.889 1.09-2.398-6.353-6.335 2.39-1.08-2.86 6.335-2.392-2.398-6.353 2.888-1.09" font-size="12" font-weight="700" font-family="Bitstream Vera Sans" writing-mode="lr"/><path d="M111.254 123.547c2.198 2.423-.306 4.284-1.344 6.248 2.127.526 5.54.531 5.129 3.576-2.625-.253-5.32-1.593-7.961-1.196-1.987 1.04-4.827 1.978-4.383-1.293 3.186-.514 5.369-2.636 7.007-5.302l1.552-2.033zm-6.503-2.943c1.628 4.036 4.536-3.44.759-1.477-.946.116-1.528.626-.76 1.477zm-2.283-.385c-1.984 1.398-5.834 1.733-4.322-1.428 3.254-.572 7.176-3.228 9.892-2.947.933 2.387 3.49 6.239.504 8.09-1.97.495-4.258-1.512-4.927 1.43-1.328 1.293-2.74 3.701-3.305.686-.74-2.164 4.196-3.245 2.158-5.831zm1.657-13.92c.525 2.267 3.009 5.236 2.242 7.04-3.071 1.731-2.08-6.23-5.027-2.816.617 1.512 2.703 4.76-.58 4.154-.37-1.99-2.383-5.382-3.805-2.229.83 1.427 2.752 4.924-.458 4.163-.55-2.662-4.927-7.147-.152-7.503l7.78-2.809zm-4.224-10.222c.802 2.988 3.645 6.707 3.146 9.229-2.812 1.539-1.66-4.472-4.65-2.137-2.173.271-5.608 3.265-6.898 1.446-1.476-3.056 4.183-2.555 5.943-3.948 4.765-.473-2.53-3.605 2.459-4.59zM96.025 86.7c.802 2.988 3.645 6.706 3.146 9.228-2.812 1.54-1.66-4.471-4.65-2.136-2.173.27-5.608 3.265-6.898 1.446-1.476-3.056 4.184-2.555 5.943-3.949 4.765-.472-2.53-3.604 2.459-4.59zm-9.396.855c-.912-1.908-1.028-4.441-3.592-4.02-2.117-1.643-.346-3.178 1.782-2.316 2.895.38 7.382-1.275 9.214.759 2.218 3.635-4.238 5.14-5.952 7.69-1.455 2.178-3.025 1.43-2.854-1.006.294-.561 1.004-.634 1.402-1.107zm.566-3.981c.404 1.628 1.275 3.475 2.692 1.365 4.7-2.845-1.31-.925-2.692-1.365zm-1.112-9.763c2.214 3.364 3.23-3.997-.115-1.602-.766.28-.03 1.157.115 1.602zm-4.502 1.722c2.488 4.19 4.242-4.655.02-1.724-.904.264-.365 1.242-.02 1.724zm4.692.978c-.598 5.105-7.596 1.946-7.175-2.047-2.654-3.71 4.341-3.389 6.354-4.888 1.994-1.03 3.594-1.473 3.99 1.182 2.402 2.53.742 8.525-3.17 5.753z" font-size="12" font-weight="700" fill="#fff" font-family="Bitstream Vera Sans" writing-mode="lr"/><path d="M76.438 11.031c-7.9-.063-15.597 2.214-22.977 4.835-5.988 2.31-12.093 3.793-17.047 8.974-1.75 1.32-2.934 3.992-1.06 5.736 2.815 3.152 7.507 3.142 11.397 2.856 8.775-.945 17.192-4.046 25.075-7.913 4.09-2.184 8.413-4.424 11.31-8.153 1.452-1.629.814-4.17-1.155-5.024-1.674-.958-3.646-1.227-5.543-1.31zm-3.47 1.313c3.044-.144 6.529-.372 9.079 1.597 1.853 1.984-1.237 4.11-2.594 5.399-6.067 4.62-13.184 7.654-20.366 10.088-5.93 1.821-12.193 3.527-18.436 2.59-2.094-.374-5.003-1.627-5.057-3.78.262-2.132 2.836-4.192 4.652-5.496 7.73-4.664 16.506-7.08 25.26-9.186 2.46-.557 4.948-1.003 7.463-1.212z" fill-rule="evenodd"/><path d="M54.125 11.688c-5.304 1.8-9.012 5.003-8.281 7.156l2.378 5.037c.822 2.08 5.508 2.084 10.747.306 5.304-1.8 9.011-5.003 8.281-7.156-.055-.161-2.165-4.652-2.188-4.718-.365-1.077-5.148-2.87-10.937-.626z" fill="#c8c8c8" fill-rule="evenodd" stroke="#000" stroke-width="1pt"/><path d="M64.5 11.894c-.277 1.028-1.263 2.324-2.719 3.325-1.456 1-3.372 1.885-5.343 2.562-1.972.677-3.994 1.153-5.75 1.344-1.757.19-3.55.26-4.463-.694l-.14 1.228c1.136.539 2.857.888 4.727.685 1.87-.204 3.977-.67 6.032-1.375 2.055-.706 4.037-1.628 5.625-2.719s3.07-2.043 3.218-3.875l-1.187-.481z" fill-rule="evenodd"/><path d="M54.928 40.667c13.611-.608 28.009-5.349 39.19-12.726.031.14 41.505 106.139 41.47 106.177-1.724 2.402-19.858 12.951-37.228 13.99L54.928 40.666z" transform="translate(-10)" fill="url(#d)" fill-rule="evenodd"/><path d="M103.276 15.579l9.513 25.882c.892 6.019-7.266 14.223-12.232 16.855C99.381 55.375 89.3 30.659 89.3 30.659c4.013-1.337 12.858-8.074 13.976-15.08z" transform="translate(-10)" fill="url(#e)" fill-rule="evenodd"/><path d="M37.113 36.098l9.919 27.194c4.235 5.461 10.81 6.13 20.73 5.573.11.111-8.47-28.754-8.47-28.754-6.13 1.003-17.61.78-22.18-4.013z" transform="translate(-10)" fill="url(#f)" fill-rule="evenodd"/><path d="M49.894 16.194c-2.577.927-15.566 10.308-13.71 17.112 2.886 7.628 22.266 7.113 32.678 4.123-6.598-2.577-21.855-5.566-18.968-21.235z" transform="translate(-10)" fill="url(#g)" fill-rule="evenodd"/><path d="M60.298 14.24s-4.219 1.541-3.91 4.428c2.474 2.061 13.71-1.65 14.536-2.99-4.858.968-8.682 2.55-10.626-1.438z" transform="translate(-10)" fill="url(#h)" fill-rule="evenodd"/><path d="M57.316 20.214s1.031 3.196 2.062 4.123c3.711 1.238 6.597-.103 8.453-.515-6.804-.31-6.804-3.299-10.515-3.608z" transform="translate(-10)" fill="url(#i)" fill-rule="evenodd"/><path d="M65.46 19.286c2.474-.515 5.67-2.061 7.422-3.402.619.825 2.165 4.124 2.165 4.124-.722 1.237-3.917 3.196-6.598 3.711-.515-.619-2.989-4.433-2.989-4.433z" transform="translate(-10)" fill="url(#j)" fill-rule="evenodd"/><path d="M53.24 12.82s8.16-2.766 10.925-.415c-.553 1.66-1.383 2.49-2.904 2.904-1.521-.691.553-3.734-8.02-2.489z" fill="url(#k)" fill-rule="evenodd"/><path d="M54.485 9.64c10.786-3.32 34.71-5.117 37.337 2.489 1.521 6.084-4.563 13.69-13.69 18.115 7.606-10.095-5.947-22.126-23.647-20.605z" fill="url(#l)" fill-rule="evenodd"/><path d="M53.118 105.394s12.599 35.072 14.13 36.434c2.725 6.64 23.155 6.47 29.114 4.767-18.558-3.746-28.773-26.56-43.244-41.2z" fill="url(#m)" fill-rule="evenodd"/><path d="M74.156 5.438c-5.894-.026-12.665.984-19.625 3.093-9.2 2.79-17.027 6.98-22.312 11.594-5.19 4.53-7.97 9.524-6.907 14 .005.02-.005.042 0 .063.274 1.094 40.145 106.272 40.157 106.312.963 3.179 3.887 5.393 7.906 6.688 3.896 1.254 8.918 1.645 14.5 1.28 3.74-.364 15.158-2.31 16.656-3.062 6.012-1.822 11.7-4.377 16.209-7.122 2.324-1.58 3.827-2.429 5.604-4.19 2.749-2.331 4.936-4.745 6.25-7.188 1.378-2.564 1.855-5.185 1.125-7.594L93.487 12.046c-1.164-2.128-4.148-4.178-7.456-5.139-3.307-.96-7.426-1.449-11.875-1.468zm0 1.25c4.364.019 8.356.492 11.5 1.406 3.145.913 5.38 2.29 6.281 3.937L132.5 119.687c.614 2.025.24 4.262-1.031 6.626-1.27 2.363-3.421 4.826-6.281 7.187-1.095.639-3.688 2.784-5.438 3.813-2.098 1.186-9.655 5.115-15.563 6.906-5.089 1.395-10.087 2.517-15.54 3.091-5.682.42-11.104-.088-14.897-1.31-3.793-1.222-6.255-3.21-7.063-5.875L26.532 34.062c-1.036-3.83 1.393-8.51 6.5-12.968 5.108-4.458 12.79-8.63 21.844-11.375 6.85-2.077 13.534-3.057 19.281-3.031z" fill-rule="evenodd"/></svg>