<svg xmlns="http://www.w3.org/2000/svg" xmlns:xlink="http://www.w3.org/1999/xlink" width="160" height="160"><defs><radialGradient xlink:href="#a" id="b" cx=".521" cy=".62" r=".424" fx=".521" fy=".62"/><linearGradient id="a"><stop offset="0" stop-color="#fff" stop-opacity=".534"/><stop offset="1" stop-opacity=".691"/></linearGradient></defs><metadata/><path d="M111.896 20.93l5.099-13.417L119.14 21.2l8.587-10.197-1.342 10.465 19.857-8.587-14.49 12.88 15.832 11.002-17.174-4.83 13.954 24.15-16.637-19.857 2.147 30.054-7.514-26.029-13.685 13.954 8.855-18.515-15.027 8.05 9.392-9.392-17.71 4.83 9.392-8.318-13.685-3.22 16.368-3.22-2.415-12.612 8.05 9.123z" fill="#ff0" fill-rule="evenodd" stroke="#000" stroke-width="1pt"/><path d="M112.97 24.955l-6.172-6.44 3.757 8.319-13.149 1.073 12.344 2.415-6.44 4.562 12.611-2.952-2.415 4.025 7.514-3.757-2.952 8.319 5.098-4.025 3.489 9.123-1.61-12.343 5.903 2.683-5.098-6.172 8.586.537-6.708-2.952 4.562-5.098-8.855 1.342.536-5.099-5.635 7.782L116.19 16.1l-3.22 8.855z" fill="#ff3f00" fill-rule="evenodd" stroke="#000" stroke-width="1pt"/><g stroke="#000"><path d="M85.71 10.614c-6.76.237-12.84 5.308-16.201 8.49-3.399 3.247-3.558 9.307-3.047 13.292.51 3.984 1.844 7.062 1.844 7.062l5.718-2.5s-.986-2.314-1.375-5.344c-.385-3.006-.077-6.254 1.907-8.53 2.28-2.813 8.951-6.777 15.955-5.673 4.739 1.18 7.53 7.962 11.482 10.578 3.951 2.617 9.292 3.88 16.187 2.5 3.068-.908 2.889-6.5-1.218-6.125-5.695 1.14-8.797.228-11.5-1.562-2.704-1.79-5-4.85-7.782-8.188l-.062-.03c-2.492-2.569-7.29-4.017-11.909-3.97z" fill="#a6a667" fill-rule="evenodd" stroke-width="1.25"/><path d="M117.97 24.775s-6.72 6.57-11.705 5.286M105.51 22.811c-1.36 1.586-7.855-.529-10.725-2.643M88.366 10.652c.302.982-3.474 6.948-6.797 7.779M74.923 14.806s1.737 4.833-.604 8.534M66.162 28.098c2.115-.076 6.948 4.606 7.175 6.646" fill="none" stroke-width="1pt"/></g><path d="M61.645 35.724c-.574 2.542-.156 11.394-7.75 18.824-21.51 6.077-37.188 23.396-37.188 44.044 0 25.685 24.091 46.505 53.75 46.505s53.719-20.82 53.719-46.505c0-21.697-17.256-39.795-40.469-44.936-4.038-5.604-7.243-13.383-6.25-18.27-1.799-2.478-10.417-4.441-15.812.338z" fill-rule="evenodd"/><path d="M103.578 124.91a30.456 20.528 0 10-60.913 0 30.456 20.528 0 1060.913 0z" transform="matrix(1.33484 0 0 1.14505 -27.973 -22.278)" fill="url(#b)" fill-rule="evenodd"/></svg>