<svg width="106.667" height="106.667" xmlns="http://www.w3.org/2000/svg" xmlns:xlink="http://www.w3.org/1999/xlink"><defs><linearGradient id="a"><stop offset="0" stop-color="#fff" stop-opacity=".5"/><stop offset="1" stop-color="#fff" stop-opacity="0"/></linearGradient><linearGradient xlink:href="#a" id="b" x1=".099" y1=".087" x2=".613" y2=".554"/></defs><metadata/><path d="M147.206 156.417c-2.536.013-5.322.482-8.406 1.531-33.624 19.537 11.705 51.041 30.844 78.094v.25c.027-.039.066-.087.093-.125.027.038.067.086.094.125v-.663c17.018-29.844 61.437-61.557 30.844-77.681-24.237-8.244-30.712 19.198-30.938 20.188-.197-.864-5.142-21.807-22.531-21.72z" transform="matrix(1.03232 0 0 1.00252 -123.99 -144.246)" fill="red" fill-rule="evenodd" stroke="red" stroke-width="1.229" stroke-linejoin="round"/><path d="M229.844-2.394c-2.803.013-5.882.52-9.292 1.653-37.166 21.092 12.938 55.106 34.094 84.313v.27c.03-.042.074-.094.104-.135.03.041.073.093.103.135v-.716c18.811-32.22 67.911-66.459 34.094-83.867-26.79-8.9-33.947 20.727-34.197 21.795-.219-.932-5.685-23.543-24.906-23.448z" fill="url(#b)" fill-rule="evenodd" transform="matrix(.93391 0 0 .92857 -186.369 14.784)"/></svg>