<svg width="106.667" height="106.667" xmlns="http://www.w3.org/2000/svg" xmlns:xlink="http://www.w3.org/1999/xlink"><defs><linearGradient id="a"><stop offset="0" stop-color="#fff" stop-opacity=".5"/><stop offset="1" stop-color="#fff" stop-opacity="0"/></linearGradient><linearGradient xlink:href="#a" id="b" x1=".05" y1=".026" x2=".554" y2=".415"/></defs><metadata/><g fill-rule="evenodd"><path d="M51.263 10.875c-6.75 0-12.219 5.558-12.219 12.375 0 3.871 4.182 9.162 4.625 9.438 2.511 2.766 6.403 11.15 5.625 17.78-6.295.212-14.756-2.663-17.25-5.437-.17-.12-6.097-5.218-10.187-5.218-6.817 0-12.375 5.468-12.375 12.218s5.558 12.22 12.375 12.22c3.87 0 9.161-4.183 9.437-4.626 2.796-2.538 11.337-6.512 18-5.625.11 2.1-.367 29.794-2.031 31.188C43.665 88.2 39.107 88 39.107 88l.093 3.281 23.813-.093.094-3.282s-4.527.233-8.125-2.78c-1.656-1.388-2.237-30.338-2.25-31h.187v.03c6.298-.22 14.784 2.66 17.281 5.438.17.12 6.098 5.219 10.188 5.219 6.817 0 12.375-5.47 12.375-12.22 0-6.75-5.558-12.218-12.375-12.218-3.871 0-9.162 4.182-9.438 4.625-2.796 2.538-11.337 6.512-18 5.625v.094c-.442-2.983 2.535-14.784 5.313-17.281.12-.17 5.219-6.098 5.219-10.188 0-6.817-5.47-12.375-12.22-12.375z" stroke="#000" stroke-width="1pt"/><path d="M195.081 278.34c-6.75 0-12.219 5.558-12.219 12.375 0 3.871 4.183 9.161 4.625 9.437 2.512 2.767 6.403 11.15 5.625 17.782-6.294.21-14.756-2.664-17.25-5.438-.169-.12-6.097-5.219-10.187-5.219-6.817 0-12.375 5.469-12.375 12.219 0 6.75 5.558 12.219 12.375 12.219 3.871 0 9.161-4.182 9.437-4.625 2.796-2.538 11.338-6.512 18-5.625.11 2.099-.367 29.793-2.03 31.187-3.6 3.014-8.157 2.813-8.157 2.813l.094 3.281 23.812-.094.094-3.281s-4.527.232-8.125-2.781c-1.656-1.387-2.237-30.337-2.25-31h.187v.031c6.298-.22 14.784 2.66 17.282 5.438.17.12 6.097 5.218 10.187 5.218 6.817 0 12.375-5.468 12.375-12.218s-5.558-12.22-12.375-12.22c-3.871 0-9.161 4.183-9.437 4.626-2.796 2.538-11.337 6.512-18 5.625v.094c-.442-2.984 2.534-14.784 5.312-17.282.121-.17 5.219-6.097 5.219-10.187 0-6.817-5.469-12.375-12.219-12.375z" fill="url(#b)" transform="translate(-143.83 -267.594)"/></g></svg>