<svg width="106.667" height="106.667" xmlns="http://www.w3.org/2000/svg" xmlns:xlink="http://www.w3.org/1999/xlink"><defs><linearGradient id="a"><stop offset="0" stop-color="#fff" stop-opacity=".5"/><stop offset="1" stop-color="#fff" stop-opacity="0"/></linearGradient><linearGradient xlink:href="#a" id="b" x1=".338" y1=".215" x2=".525" y2=".369"/></defs><metadata/><g fill-rule="evenodd"><path d="M50.597 10.534C37.77 30.208 28.418 40.354 9.127 51.191c18.256 10.706 31.127 21.77 41.845 39.656 9.572-16.991 21.283-29.658 41.625-40.188-20.462-7.99-32.308-20.647-42-40.125z" fill="red" stroke="red" stroke-width="1pt" stroke-linejoin="round"/><path d="M212.603 226.424c-12.827 19.674-22.179 29.82-41.47 40.657 18.256 10.706 31.127 21.77 41.845 39.656 9.572-16.991 21.283-29.658 41.625-40.188-20.462-7.99-32.308-20.647-42-40.125z" fill="url(#b)" transform="translate(-162.09 -215.747)"/></g></svg>