<svg width="106.667" height="106.667" xmlns="http://www.w3.org/2000/svg" xmlns:xlink="http://www.w3.org/1999/xlink"><defs><linearGradient id="a"><stop offset="0" stop-color="#fff" stop-opacity=".5"/><stop offset="1" stop-color="#fff" stop-opacity="0"/></linearGradient><linearGradient xlink:href="#a" id="b" x1="-.094" y1=".067" x2=".481" y2=".574"/></defs><metadata/><path d="M49.752 4.165C38.81 22.785-3.627 56.174 21.877 66.29c15.481 4.657 22.849-4.876 25.969-11.187h.625c-.024 1.187-.579 29.376-2.219 30.75-3.598 3.013-8.156 2.781-8.156 2.781l.094 3.281 23.812-.093.094-3.25s-4.527.2-8.125-2.813c-1.64-1.374-2.227-29.516-2.25-30.687h.25c2.52 5.157 12.084 15.833 22.604 11.767 30.762-11.398-15.469-41.965-24.823-62.674z" fill-rule="evenodd" stroke="#000" stroke-width="1.25" stroke-linejoin="round"/><path d="M345.978-3.157c-10.944 18.62-53.38 52.008-27.875 62.125 15.48 4.657 22.848-4.877 25.968-11.188h.625c-.023 1.187-.578 29.376-2.218 30.75-3.599 3.014-8.157 2.781-8.157 2.781l.094 3.282 23.813-.094.093-3.25s-4.526.2-8.125-2.813c-1.64-1.374-2.226-29.516-2.25-30.687h.25c2.52 5.157 12.084 15.833 22.604 11.767 30.762-11.397-15.468-41.965-24.822-62.673z" fill="url(#b)" fill-rule="evenodd" transform="translate(-296.25 7.5)"/></svg>