<svg width="170.667" height="170.667" xmlns="http://www.w3.org/2000/svg" xmlns:xlink="http://www.w3.org/1999/xlink"><defs><linearGradient id="b"><stop offset="0" stop-color="#ff5c00" stop-opacity=".427"/><stop offset="1" stop-color="#fff" stop-opacity="0"/></linearGradient><linearGradient id="a"><stop offset="0" stop-color="#fff" stop-opacity=".502"/><stop offset="1" stop-color="#fff" stop-opacity="0"/></linearGradient><linearGradient xlink:href="#a" id="c" x1=".176" y1=".154" x2=".588" y2=".656"/><linearGradient xlink:href="#a" id="d" x1=".482" y1="-.036" x2=".606" y2=".236"/><linearGradient xlink:href="#a" id="g" x1=".176" y1=".092" x2=".691" y2=".538"/><linearGradient xlink:href="#a" id="h" x1="-.188" y1=".144" x2=".775" y2=".682"/><linearGradient xlink:href="#b" id="e" x1=".926" y1=".711" x2=".521" y2=".364"/><linearGradient xlink:href="#b" id="f" x1=".996" y1=".733" x2=".274" y2=".436"/></defs><metadata/><path d="M78.819 30.48c-10.137.16-20.99 1.745-32.158 5.49-7.596 1.582-29.97 17.34-30.153 34.091-.059-.589-.207-1.133-.219-1.745-2.939 5.202-2.722 19.36-2.479 25.664.137 1.396.711 3.023 1.386 4.682.362 4.555 2.548 9.159 7.11 13.534.012.012.023.03.036.043 1.218 1.52 2.539 2.868 3.938 3.66 1.151-1.649 20.91-10.937 36.715-17.833.138.203.285.402.438.596.782 8.35-2.66 20.185-2.042 24.983-.072.094-.297.379-.365.468 2.248 4.253 7.477 6.693 14.22 7.874 8.303 2.07 17.414 1.586 24.683.51 8.242-1.244 14.706-3.027 21.074-5.234 3.987-1.253 7.509-2.658 10.537-4.129.677-.3 1.235-.447 1.933-.766.972-.602 1.631-1.257 2.479-1.873.552-.374 1.397-.728 1.86-1.106.345-.292.583-.671.91-.979 1.032-.917 1.885-1.973 2.735-2.98.23-.296.512-.544.73-.85 3.337-4.302 5.585-9.49 7.911-17.237 2.863-5.173 3.104-17.881-1.385-33.58.021.437-.049.764-.037 1.19-.841-6.346-3.427-12.362-7.766-16.64C133.29 42.395 109.23 30 78.82 30.48zm15.97 27.366c-.147.131-.463.49-.62.639-.214-.03-.406-.057-.62-.085.263-.119.995-.442 1.24-.554z" fill="#ff0" fill-rule="evenodd"/><path d="M26.387 104s1.077-22.974 1.257-24.769c.18-1.795 60.845-27.82 63.178-28.358 1.167-.27-7.538 16.826-8.929 24.365C65.784 87.084 28.811 101.398 26.388 104z" fill="url(#c)" fill-rule="evenodd" transform="translate(1.25 10)"/><path d="M27.897 89.22C-1.8 67.713 36.695 38.647 47.124 36.476c44.671-14.981 84.055 4.633 94.216 12.523 8.476 9.481 11.073 33.013-1.777 44.112-13.63 11.142-67.992 21.402-76.803 4.728 5.874-7.744 25.63-33.194 32.488-39.327-13.997 6.364-58.31 24.784-67.351 30.708z" fill="#ffd900" fill-rule="evenodd"/><path d="M26.648 79.224C-3.048 57.717 35.446 28.65 45.875 26.48c44.67-14.982 84.053 4.632 94.213 12.523 8.476 9.48 11.073 33.012-1.777 44.111-13.63 11.142-67.99 21.402-76.8 4.729 5.874-7.744 25.63-33.194 32.487-39.328C80.001 54.88 35.69 73.3 26.648 79.224z" fill="url(#d)" fill-rule="evenodd" transform="translate(1.25 10)"/><path d="M26.675 79.052C-3.02 57.545 35.473 28.479 45.902 26.308c44.67-14.982 84.053 4.632 94.213 12.523 9.101 10.106 9.823 31.762-3.026 42.861-28.63 20.83-65.803 24.84-75.24 6.604 5.876-7.744 25.319-33.82 32.176-39.952-13.997 6.363-58.308 24.783-67.35 30.708z" fill="url(#e)" fill-rule="evenodd" transform="translate(1.25 10)"/><path d="M24.811 211.605v.6" fill="none" stroke="#000" stroke-width="1.681"/><path d="M63.746 98.544c1.099 9.532-3.771 24.081-1.508 27.074 10.194 9.26 26.728 7.727 38.29 6.017 13.462-2.034 21.278-4.92 32.867-10.212 9.553-5.917 12.043-11.094 15.927-24.033 2.863-5.172 4.195-15.036-.294-30.736-1.894 13.686-3.97 15.92-9.13 24.28-9.696 7.9-25.744 14.25-38.68 15.426-12.133.593-25.077.9-37.472-7.816zM27.378 94.117c.011 4.952.886 6.73.026 11.602-.548 3.242.027 5.683-1.206 9.007-2.826-1.6-3.69-2.675-5.716-5.693-4.804-5.43-3.642-8.193-5.852-13.247-.242-6.304-1.182-20.464 1.758-25.665.235 12.762 11.046 19.543 11.282 19.674l-.292 4.322z" fill="#ffc600" fill-rule="evenodd"/><path d="M62.507 89.068c1.099 9.532-3.771 24.081-1.508 27.074 10.194 9.26 26.728 7.728 38.29 6.017 13.462-2.033 21.278-4.92 32.867-10.212 9.553-5.917 12.043-11.093 15.928-24.032 2.862-5.173 4.195-15.037-.295-30.737-1.894 13.686-3.97 15.92-9.13 24.28-9.696 7.9-25.744 14.25-38.68 15.426-12.133.594-25.077.9-37.472-7.816z" fill="url(#f)" fill-rule="evenodd" transform="translate(1.25 10)"/><path d="M16.525 68.03c-.672 4.443 3.293 19.379 11.575 20.946 15.221-8.622 67.29-30.228 67.29-30.228L63.02 97.86c.671 6.532 25.294 9.145 34.695 8.884 8.506-.523 54.758-5.405 50.729-43.555M28.123 88.657s-.363 26.106-1.818 26.743" fill="none" stroke="#000" stroke-width="1.25"/><path d="M62.711 90.556c.385 3.847-2.693 19.813-2.308 23.66 3.655 3.079 20.198-18.851 15.966-18.466-4.232-1.155-9.618-1.924-13.658-5.194z" fill="url(#g)" fill-rule="evenodd" transform="translate(1.25 10)"/><path d="M14.62 61.508c-1.154 3.463-2.309 14.236-1.347 23.854 3.463 5.386 9.041-5.194 9.811-6.925-.962-1.732-5.771-3.848-8.464-16.929z" fill="url(#h)" fill-rule="evenodd" transform="translate(1.25 10)"/><path d="M78.763 30.392a106.06 106.06 0 00-32.156 5.5c-7.205 1.5-27.47 15.772-29.719 31.53 0 0-.554 1.215-.56.91-2.939 5.201-2.807 19.255-2.565 25.56.137 1.395.701 3.028 1.375 4.687.363 4.555 2.949 9.06 7.125 13.531.013.012 2.763 2.639 4.162 3.43 1.15-1.646 20.669-10.63 36.463-17.523 1.675 5.84-2.144 20.76-1.53 25.53.601 3.557 3.388 4.492 4.405 5.095 2.44 1.487 12.592 4.45 18.97 4.53 1.802.092 13.096-.445 15.155-.75 6.626-1 12.017-2.424 17.22-4.062 4.021-1.401 11.377-3.841 14.405-5.312 2.408-1.455 7.811-5.082 10.625-8.563 3.338-4.3 5.58-9.47 7.907-17.218 3.44-8.924.291-32.58-1.657-34.157-.384-4.328-4.988-13.039-7.53-14.875-1.285-1.526-8.63-5.219-10.022-6.093-6.218-3.185-25.963-12.162-52.073-11.75z" fill="none" stroke="#000" stroke-width="1.25" stroke-linejoin="round"/></svg>