<?xml version="1.0" encoding="UTF-8"?>
<svg width="160" height="160" xmlns="http://www.w3.org/2000/svg" xmlns:xlink="http://www.w3.org/1999/xlink">
 <defs>
  <linearGradient id="b" x1=".015" x2=".954" y1=".021" y2=".964">
   <stop stop-color="#8c8c8c" offset="0"/>
   <stop stop-color="#edeae8" offset=".445"/>
   <stop stop-color="#888" offset=".616"/>
   <stop stop-color="#e3e2e3" offset="1"/>
  </linearGradient>
 </defs>
 <path d="m75.675 9.71c-10.726-0.48-28.056 5.24-34.662 10.043-2.337 2.828 4.06 15.207 3.86 16.837-2.349 1.098-7.96 7.643-8.59 9.377-0.631 1.735-13.425-5.858-16.517-4.68-5.657 8.98-10.483 26.824-9.762 35.013 1.217 3.472 15.243 3.23 15.597 5.191-0.263 2.6 3.054 11.585 4.21 13.018 1.155 1.432-10.786 8.244-11.078 11.146 5.045 9.548 17.825 21.287 25.247 24.665 3.594 0.63 9.939-11.837 11.805-11.187 2.115 1.505 11.798 3.584 13.601 3.269s1.533 14.345 4.725 16.531c11.166 0.476 26.736-5.88 33.375-10.638 2.356-2.812-5.574-13.956-4.075-15.254 2.355-1.081 8.993-8.223 9.636-9.953 0.642-1.73 12.533 5.728 15.987 4.444 5.982-9.125 9.689-26.864 8.942-35.05-1.227-3.469-14.934-2.86-15.294-4.82 0.255-2.6-2.765-11.579-3.925-13.008s10.617-7.921 11.186-11.166c-4.925-9.362-17.514-22.48-24.919-25.897-3.59-0.65-10.313 12.11-12.176 11.45-2.107-1.516-11.141-3.33-12.946-3.024-1.804 0.305-1.49-14.03-4.227-16.308zm0.11 50.847c8.492 0 13.448 5.68 13.448 14.264s-5.278 13.618-13.77 13.618c-8.49 0-13.77-5.356-13.77-13.941 0-8.584 5.602-13.941 14.093-13.941z" fill-rule="evenodd"/>
 <path d="M74.419 11.839c-10.726-.48-24.83 3.949-31.436 8.753-2.337 2.828 5.027 14.884 3.537 16.192-2.348 1.098-9.573 8.933-10.203 10.667-.63 1.735-12.456-5.535-15.548-4.357-5.657 8.979-9.516 23.92-8.794 32.11 1.216 3.471 15.242 3.229 15.596 5.19-.263 2.6 2.731 12.876 3.887 14.308 1.156 1.433-10.785 7.922-11.078 10.824 5.045 9.548 15.89 19.674 23.312 23.052 3.593.63 10.261-11.837 12.128-11.187 2.115 1.505 12.443 3.907 14.245 3.591 1.803-.315 1.21 13.378 4.402 15.564 11.167.476 24.156-3.622 30.795-8.38 2.356-2.812-4.93-14.924-3.43-16.222 2.356-1.081 9.638-8.868 10.28-10.598.643-1.73 12.211 5.405 15.665 4.122 5.983-9.125 9.367-23.639 8.62-31.825-1.227-3.468-15.256-3.182-15.616-5.142.255-2.6-2.766-12.87-3.926-14.298-1.16-1.43 10.294-7.599 10.864-10.844-4.926-9.362-15.257-19.9-22.661-23.316-3.59-.65-10.313 11.788-12.176 11.128-2.107-1.517-12.431-3.976-14.236-3.67-1.805.305-1.49-13.385-4.227-15.662zm1.079 46.976c8.49 0 15.382 6.97 15.382 15.554 0 8.585-6.891 15.554-15.382 15.554-8.492 0-15.383-6.97-15.383-15.554s6.891-15.554 15.383-15.554z" fill="url(#b)" fill-rule="evenodd"/>
</svg>
