<svg width="266.667" height="266.667" xmlns="http://www.w3.org/2000/svg" xmlns:xlink="http://www.w3.org/1999/xlink"><defs><linearGradient id="a"><stop offset="0" stop-color="#fff" stop-opacity=".5"/><stop offset="1" stop-color="#fff" stop-opacity=".25"/></linearGradient><linearGradient xlink:href="#a" id="b" x1="-1.012" y1=".508" x2=".207" y2=".703"/></defs><g fill-rule="evenodd"><path d="M150.164 222.46l-62.312 18.631-48.07-42.163 14.243-60.795 62.312-18.63 48.07 42.163-14.243 60.794zM230.04 140.353l-62.313 18.631-48.069-42.163L133.9 56.026l62.312-18.63 48.07 42.163-14.243 60.794zM116.32 115.999L54.01 134.63 5.939 92.466l14.242-60.794 62.312-18.631 48.07 42.164-14.243 60.794z" fill="#ffc62a" stroke="#ff9500" stroke-width="2.5"/><path d="M84.335 16.584S25.572 31.818 25.572 34.539c0 2.72-13.602 52.233-13.058 57.13 0 2.176 39.719 39.174 44.616 39.174-19.043-44.615-29.381-99.025 27.205-114.26zM197.514 40.524s-58.762 15.234-58.762 17.955c0 2.72-13.602 52.233-13.058 57.13 0 2.176 39.719 39.175 44.615 39.175-19.043-44.616-29.38-99.026 27.205-114.26zM118.076 122.138s-58.762 15.235-58.762 17.955c0 2.72-13.602 52.233-13.058 57.13 0 2.176 39.719 39.175 44.616 39.175-19.044-44.616-29.381-99.025 27.204-114.26z" fill="url(#b)" transform="translate(-3.75)"/></g></svg>