<?xml version="1.0" encoding="UTF-8"?>
<svg width="640" height="640" version="1.0" xmlns="http://www.w3.org/2000/svg" xmlns:xlink="http://www.w3.org/1999/xlink">
 <defs>
  <radialGradient id="p" cx="113" cy="584.36" r="16.5" gradientTransform="matrix(1.5134 .0303 -.02856 1.4265 -40.317 -255.64)" gradientUnits="userSpaceOnUse" xlink:href="#a"/>
  <linearGradient id="b">
   <stop stop-color="#7f5808" offset="0"/>
   <stop stop-color="#966909" offset="1"/>
  </linearGradient>
  <linearGradient id="d" x1="239" x2="160.61" y1="701.36" y2="824.36" gradientUnits="userSpaceOnUse" xlink:href="#b"/>
  <linearGradient id="a">
   <stop stop-color="#fff" offset="0"/>
   <stop stop-color="#fff" stop-opacity="0" offset="1"/>
  </linearGradient>
  <linearGradient id="e" x1="239" x2="448" y1="701.36" y2="824.36" gradientUnits="userSpaceOnUse" xlink:href="#b"/>
  <linearGradient id="c" x1="226" x2="549" y1="763.38" y2="763.38" gradientUnits="userSpaceOnUse" xlink:href="#b"/>
  <filter id="v">
   <feGaussianBlur stdDeviation="2.954"/>
  </filter>
  <filter id="g" x="-.21" y="-.21" width="1.42" height="1.42">
   <feGaussianBlur stdDeviation="2.885"/>
  </filter>
 </defs>
 <path transform="matrix(.96929 0 0 -.96929 -65.476 832.73)" d="m387.5 687.38c-89.148 0-161.5 25.984-161.5 58v36c0 32.016 72.352 58 161.5 58s161.5-25.984 161.5-58v-36c0-32.016-72.352-58-161.5-58z" fill="url(#c)"/>
 <path transform="matrix(.96929 0 0 -.96929 -65.476 853.08)" d="M549 766.362a161.5 58 0 11-323 0 161.5 58 0 11323 0z" fill="url(#d)"/>
 <path d="m211.41 135.53-0.375 0.938c62.81 29.05 125.62 25.946 188.31 1.031l-0.25-1c-62.636 14.889-125.16 23.625-187.69-0.969z" fill="#375e6f" fill-opacity=".79" fill-rule="evenodd"/>
 <path d="m314.41 464.85c-86.41 0-156.54 25.185-156.54 56.218v34.894c0 31.033 70.13 56.22 156.54 56.22s156.54-25.187 156.54-56.22v-34.894c0-31.033-70.13-56.219-156.54-56.219z" fill="#7f5808"/>
 <path transform="matrix(.96929 0 0 .96929 -61.19 -221.77)" d="M549 766.362a161.5 58 0 11-323 0 161.5 58 0 11323 0z" fill="url(#e)"/>
 <path d="m298.42 223.97c0 16.319-13.244 29.563-29.563 29.563s-29.563-13.244-29.563-29.563 13.244-29.563 29.563-29.563 29.563 13.244 29.563 29.563z"/>
 <path transform="matrix(.96929 0 0 .96929 162.72 -347.78)" d="m132 581.86c0 9.108-7.392 16.5-16.5 16.5s-16.5-7.392-16.5-16.5 7.392-16.5 16.5-16.5 16.5 7.392 16.5 16.5z" fill="url(#p)" filter="url(#g)"/>
 <path d="m308.11 393.59c0 16.32-13.244 29.564-29.563 29.564s-29.563-13.245-29.563-29.564 13.244-29.563 29.563-29.563 29.563 13.244 29.563 29.563z"/>
 <path transform="matrix(.96929 0 0 .96929 172.41 -178.15)" d="m132 581.86c0 9.108-7.392 16.5-16.5 16.5s-16.5-7.392-16.5-16.5 7.392-16.5 16.5-16.5 16.5 7.392 16.5 16.5z" fill="url(#p)" filter="url(#g)"/>
 <path d="m258.68 495.37c0 16.318-13.245 29.563-29.564 29.563s-29.563-13.245-29.563-29.563c0-16.32 13.244-29.564 29.563-29.564 16.32 0 29.564 13.245 29.564 29.564z"/>
 <path transform="matrix(.96929 0 0 .96929 122.97 -76.377)" d="m132 581.86c0 9.108-7.392 16.5-16.5 16.5s-16.5-7.392-16.5-16.5 7.392-16.5 16.5-16.5 16.5 7.392 16.5 16.5z" fill="url(#p)" filter="url(#g)"/>
 <path d="m293.57 513.79c0 16.319-13.244 29.563-29.563 29.563-16.32 0-29.564-13.244-29.564-29.563s13.245-29.563 29.564-29.563 29.563 13.244 29.563 29.563z"/>
 <path transform="matrix(.96929 0 0 .96929 157.87 -57.96)" d="m132 581.86c0 9.108-7.392 16.5-16.5 16.5s-16.5-7.392-16.5-16.5 7.392-16.5 16.5-16.5 16.5 7.392 16.5 16.5z" fill="url(#p)" filter="url(#g)"/>
 <path d="m423.45 500.22c0 16.319-13.244 29.563-29.563 29.563s-29.563-13.244-29.563-29.563 13.244-29.563 29.563-29.563c16.32 0 29.563 13.244 29.563 29.563z"/>
 <path transform="matrix(.96929 0 0 .96929 287.75 -71.53)" d="m132 581.86c0 9.108-7.392 16.5-16.5 16.5s-16.5-7.392-16.5-16.5 7.392-16.5 16.5-16.5 16.5 7.392 16.5 16.5z" fill="url(#p)" filter="url(#g)"/>
 <path d="m385.65 513.79c0 16.319-13.244 29.563-29.563 29.563s-29.563-13.244-29.563-29.563 13.244-29.563 29.563-29.563 29.563 13.244 29.563 29.563z"/>
 <path transform="matrix(.96929 0 0 .96929 249.95 -57.96)" d="m132 581.86c0 9.108-7.392 16.5-16.5 16.5s-16.5-7.392-16.5-16.5 7.392-16.5 16.5-16.5 16.5 7.392 16.5 16.5z" fill="url(#p)" filter="url(#g)"/>
 <path d="m341.06 521.54c0 16.32-13.244 29.564-29.563 29.564-16.32 0-29.564-13.245-29.564-29.564s13.245-29.563 29.564-29.563 29.563 13.244 29.563 29.563z"/>
 <path transform="matrix(.96929 0 0 .96929 205.36 -50.206)" d="m132 581.86c0 9.108-7.392 16.5-16.5 16.5s-16.5-7.392-16.5-16.5 7.392-16.5 16.5-16.5 16.5 7.392 16.5 16.5z" fill="url(#p)" filter="url(#g)"/>
 <path d="m369.17 466.29c0 16.32-13.244 29.564-29.563 29.564s-29.563-13.244-29.563-29.563c0-16.32 13.244-29.563 29.563-29.563s29.563 13.244 29.563 29.563z"/>
 <path transform="matrix(.96929 0 0 .96929 233.47 -105.46)" d="m132 581.86c0 9.108-7.392 16.5-16.5 16.5s-16.5-7.392-16.5-16.5 7.392-16.5 16.5-16.5 16.5 7.392 16.5 16.5z" fill="url(#p)" filter="url(#g)"/>
 <path d="m324.59 469.2c0 16.319-13.244 29.563-29.563 29.563-16.32 0-29.563-13.244-29.563-29.563 0-16.32 13.244-29.564 29.563-29.564s29.563 13.245 29.563 29.564z"/>
 <path transform="matrix(.96929 0 0 .96929 188.89 -102.55)" d="m132 581.86c0 9.108-7.392 16.5-16.5 16.5s-16.5-7.392-16.5-16.5 7.392-16.5 16.5-16.5 16.5 7.392 16.5 16.5z" fill="url(#p)" filter="url(#g)"/>
 <path d="m414.73 452.72c0 16.32-13.244 29.564-29.563 29.564-16.32 0-29.564-13.244-29.564-29.563 0-16.32 13.245-29.563 29.564-29.563s29.563 13.244 29.563 29.563z"/>
 <path transform="matrix(.96929 0 0 .96929 279.03 -119.02)" d="m132 581.86c0 9.108-7.392 16.5-16.5 16.5s-16.5-7.392-16.5-16.5 7.392-16.5 16.5-16.5 16.5 7.392 16.5 16.5z" fill="url(#p)" filter="url(#g)"/>
 <path d="m280 446.9c0 16.319-13.244 29.563-29.563 29.563-16.32 0-29.564-13.244-29.564-29.563s13.245-29.563 29.564-29.563 29.563 13.244 29.563 29.563z"/>
 <path transform="matrix(.96929 0 0 .96929 144.3 -124.84)" d="m132 581.86c0 9.108-7.392 16.5-16.5 16.5s-16.5-7.392-16.5-16.5 7.392-16.5 16.5-16.5 16.5 7.392 16.5 16.5z" fill="url(#p)" filter="url(#g)"/>
 <path d="m337.19 417.83c0 16.32-13.244 29.564-29.563 29.564-16.32 0-29.564-13.245-29.564-29.564 0-16.318 13.245-29.563 29.564-29.563s29.563 13.245 29.563 29.563z"/>
 <path transform="matrix(.96929 0 0 .96929 201.49 -153.92)" d="m132 581.86c0 9.108-7.392 16.5-16.5 16.5s-16.5-7.392-16.5-16.5 7.392-16.5 16.5-16.5 16.5 7.392 16.5 16.5z" fill="url(#p)" filter="url(#g)"/>
 <path d="m324.59 266.62c0 16.319-13.244 29.563-29.563 29.563-16.32 0-29.563-13.244-29.563-29.563 0-16.32 13.244-29.564 29.563-29.564s29.563 13.245 29.563 29.564z"/>
 <path transform="matrix(.96929 0 0 .96929 188.89 -305.13)" d="m132 581.86c0 9.108-7.392 16.5-16.5 16.5s-16.5-7.392-16.5-16.5 7.392-16.5 16.5-16.5 16.5 7.392 16.5 16.5z" fill="url(#p)" filter="url(#g)"/>
 <path d="m344.94 315.08c0 16.319-13.244 29.563-29.563 29.563s-29.563-13.244-29.563-29.563 13.244-29.563 29.563-29.563 29.563 13.244 29.563 29.563z"/>
 <path transform="matrix(.96929 0 0 .96929 209.24 -256.66)" d="m132 581.86c0 9.108-7.392 16.5-16.5 16.5s-16.5-7.392-16.5-16.5 7.392-16.5 16.5-16.5 16.5 7.392 16.5 16.5z" fill="url(#p)" filter="url(#g)"/>
 <path d="m372.08 249.17c0 16.32-13.244 29.564-29.563 29.564s-29.563-13.245-29.563-29.564 13.244-29.563 29.563-29.563 29.563 13.244 29.563 29.563z"/>
 <path transform="matrix(.96929 0 0 .96929 236.38 -322.58)" d="m132 581.86c0 9.108-7.392 16.5-16.5 16.5s-16.5-7.392-16.5-16.5 7.392-16.5 16.5-16.5 16.5 7.392 16.5 16.5z" fill="url(#p)" filter="url(#g)"/>
 <path d="m310.17 76.347c-51.736 0-102.87 14.478-116.44 43.436-19.22 41.016 90.87 172.04 90.871 196.34 0 25.267-110.09 151.5-90.87 192.52 27.14 57.915 204.52 57.915 236.5 0 22.657-41.022-87.206-171.14-87.205-193.49 0-23.327 109.86-154.36 87.205-195.37-15.993-28.958-68.334-43.436-120.07-43.436z" fill="#005780" fill-opacity=".105" fill-rule="evenodd"/>
 <path d="m310.17 75.862c-36.481 0.687-75.995 5.214-105.41 28.791-15.998 11.578-19.019 33.627-11.926 50.302 20.326 55.173 58.186 97.3 84.821 149.17 7.983 19.725-8.465 39.488-16.318 56.061-24.838 39.905-54.72 78.066-68.542 123.6-6.773 18.29-2.861 38.307 13.145 47.356 39.126 22.953 93.293 27.262 137.4 22.604 30.903-4.51 70.015-15.58 89.5-42.158 11.616-19.653-2.382-43.503-10.168-62.233-20.748-44.296-50.407-83.426-73.231-126.52-7.765-19.336 19.143-46.416 26.492-62.917 24.183-39.707 45.523-66.745 58.677-111.9 6.827-18.576-3.628-38.741-20.148-48.193-30.036-19.195-69.334-23.53-104.3-23.965zm0.823 4.262c38.057 0.743 78.53 2.476 108.89 27.51 15.967 11.712 14.888 33.258 8.282 49.765-19.417 53.709-56.892 98.024-82.883 148.32-8.131 19.581 12.46 36.391 20.035 52.967 24.175 39.231 52.54 77.254 65.614 122.02 6.735 18.18-3.03 37.328-19.21 46.54-38.629 23.66-86.165 26.742-130.29 22.83-30.373-3.944-64.703-10.75-84.33-36.439-12.078-18.644 2.92-40.575 10.6-58.428 21.796-45.251 51.654-84.753 74.636-129.28 8.25-20.17-12.27-37.697-20.156-54.772-24.91-40.827-54.55-80.068-68.416-126.42-7.23-19.362 6.266-36.598 23.366-45.266 28.249-15.905 61.913-19.018 93.862-19.352z" fill="#375e6f" fill-opacity=".79" fill-rule="evenodd"/>
 <path transform="matrix(.96929 0 0 .96929 81.51 18.801)" d="m133.78 106.18c-19.83 42.316 84.75 175.5 84.75 200.56 1e-3 26.067-92.513 151.39-80.75 196.62 7.293 28.04 20.558 22.177 35 24 47.967 6.053 65.031-197.56 65.032-220.62 0-24.067-47.66-178.25-71.032-220.56-14.253 0.16-24.017 9.3-33 20z" fill="#fff" fill-opacity=".569" fill-rule="evenodd" filter="url(#v)"/>
</svg>
