<?xml version="1.0" encoding="UTF-8"?>
<svg width="533.33" height="533.33" xmlns="http://www.w3.org/2000/svg" xmlns:xlink="http://www.w3.org/1999/xlink">
 <defs>
  <linearGradient id="j" x1=".438" x2=".438" y1=".982" y2=".032">
   <stop stop-opacity=".225" offset="0"/>
   <stop stop-opacity=".494" offset=".5"/>
   <stop stop-opacity=".188" offset="1"/>
  </linearGradient>
  <linearGradient id="a">
   <stop stop-color="#fff" stop-opacity=".798" offset="0"/>
   <stop stop-color="#fff" stop-opacity=".191" offset="1"/>
  </linearGradient>
  <linearGradient id="e" x1=".02" x2=".955" y1=".042" y2=".958" xlink:href="#a"/>
  <linearGradient id="f" x1=".212" x2=".763" y1=".092" y2=".436" xlink:href="#a"/>
  <linearGradient id="h" x1=".327" x2=".961" y1=".008" y2=".722" xlink:href="#a"/>
  <linearGradient id="i" x1=".857" x2=".857" y1=".964" y2=".103" xlink:href="#a"/>
  <linearGradient id="c" x1=".068" x2=".703" y1=".051" y2=".492" xlink:href="#a"/>
  <linearGradient id="k" x1=".039" x2=".511" y1="-.053" y2=".17" xlink:href="#a"/>
  <linearGradient id="l" x1=".035" x2=".532" y1="-.064" y2=".515" xlink:href="#a"/>
  <linearGradient id="d" x1=".028" x2=".458" y1="-.121" y2=".47" xlink:href="#a"/>
  <linearGradient id="g" x1="-.018" x2=".582" y1=".005" y2=".579" xlink:href="#a"/>
  <linearGradient id="m" x1=".542" x2=".115" y1=".482" y2=".887" spreadMethod="reflect" xlink:href="#a"/>
 </defs>
 <g fill-rule="evenodd">
  <path d="M163.575 152.118l.021.023-8.664 9.572c3.96 3.394 11.427 13.97 16.673 25.232 4.287 1.037 13.141 3.864 17.087 7.53l7.205-6.617.07-.063 7.33-6.477c-3.235-4.306-5.125-13.407-5.71-17.778-10.655-6.39-20.397-14.916-23.36-19.208l-10.422 7.62-.02-.022-.117.104-.093.084z" fill="#dadac7" stroke="#000" stroke-width="1pt"/>
  <path d="m361.03 387.47c-61.002-65.477-120.48-131.49-180.34-197.57-1.39-8.361-11.944-17.185-19.036-24.769l15.29-13.773c7.922 8.027 13.843 18.69 22.675 20.653 59.899 65.416 119.95 130.88 179.11 197.81 15.95 18.893 27.042 40.083 40.563 60.124-19.42-14.157-40.396-24.661-58.259-42.473z" fill="#cacbcb" stroke="#000" stroke-linejoin="round" stroke-width="1.25"/>
  <path d="M97.921 100.854c.873.716 1.64.2 3.002 1.838 16.65 16.218 30.338 30.681 44.64 47.313.806 1.146 1.946 2.643 2.188 4.297l9.829-8.56 9.512-8.863c-1.62-.413-2.99-1.703-4.045-2.623-15.054-15.955-28.015-31.074-42.411-49.322-1.487-1.524-.871-2.255-1.493-3.197l-10.464 9.72-10.758 9.397z" fill="#cacbcb" stroke="#000" stroke-linejoin="round" stroke-width="1pt"/>
  <path transform="rotate(-42.013 248.29 245.45)" d="M234.398 38.183c.169 1.117 1.085 1.248 1 3.375 1.517 23.194 2.006 40.9 1.5 62.83-.168 1.391-.323 3.267-1.25 4.657l12.151.219 11.68-.219c-.927-1.39-1.082-3.266-1.25-4.656-.506-21.93-.017-39.637 1.5-62.83-.084-2.128.863-2.26 1.031-3.376l-12.96.22-13.402-.22z" fill="url(#c)"/>
  <path d="M122.897 87.398c-.796.813 3.742 15.095 8.508 29.475-13.54-6.107-26.973-11.949-27.846-11.256-1.698 1.164.747 3.91 3.983 4.656 1.287.291 13.49 6.051 25.526 11.62 3.48 10.39 7.342 21.735 7.552 22.765.598 3.306 2.893 5.656 4.348 3.613.61-.88-3.023-12.162-7.08-24.2 11.797 5.406 22.94 10.334 23.895 9.81 2.183-1.235.106-3.739-3.12-4.678-1.029-.325-12.118-5.456-22.437-10.154-4.388-12.863-8.954-25.865-9.114-27.205-.406-3.296-2.881-6.014-4.215-4.446z" fill="#9b9b5d" stroke="#000" stroke-width="1pt"/>
  <path d="M140.332 167.803c-5.672 4.387-16.51 10.783-20.72 16.259-3.532 4.625-2.587 8.345-.234 11.759 2.632 2.921 4.466 4.156 10.193 3.569 4.982-.88 12.327-5.812 6.823-11.921-3.748-3.36-5.142-.901-5.911 1.717.555-5.794 8.922-13.331 13.677-17.133-1.555-1.727-3.429-2.204-3.828-4.25zM182.156 129.837c4.954-5.184 12.443-15.298 18.327-18.915 4.968-3.031 8.57-1.704 11.72.991 2.631 2.922 3.669 4.875 2.489 10.509-1.393 4.863-7.063 11.655-12.567 5.546-2.951-4.077-.36-5.208 2.323-5.7-5.82-.051-14.187 7.486-18.463 11.82-1.555-1.727-1.835-3.64-3.829-4.25z" fill="#9b9b5d" stroke="#000" stroke-linejoin="round" stroke-width="1pt"/>
  <path d="m157.14 145.59-9.626 8.784s3.155 1.2 2.747 3.049-8.877 8.882-11.804 11.222c0.704 1.44 2.923 3.576 4.576 4.753 5.591-5.63 18.308-1.38 25.469-10.2 1e-3 2.961 2.607 6.834 6.436 8.125-1.196-3.958-3.412-9.195-3.104-10.075 0.949-0.262 5.474 2.778 9.287 4.379-0.886-3.942-4.467-6.937-7.411-7.246 9.517-6.204 6.613-19.294 12.794-24.27-0.998-1.766-2.892-4.195-4.25-5.045-2.633 2.667-10.53 10.335-12.41 10.548-1.882 0.214-2.556-2.633-2.556-2.633l-10.148 8.609z" fill="#9b9b5d" stroke="#000" stroke-linejoin="round" stroke-width="1pt"/>
  <path transform="rotate(-42.013 248.29 245.45)" d="M247.596 111.025l-12.37-.137s1.54 2.784 0 3.884c-1.541 1.1-12.54 1.098-16.282.878-.44 1.54-.662 3.293-.222 5.273 7.923-.44 14.747 11.23 25.97 9.469-1.98 2.2-3.076 5.942-1.096 9.463 1.76-3.74 3.4-9.115 4.218-9.562.88.44 2.208 5.727 3.968 9.469 1.981-3.521.004-7.263-1.976-9.464 11.223 1.76 18.487-9.909 26.41-9.469.44-1.98.219-3.952-.222-5.493-3.74.22-13.64.852-15.18-.249-1.54-1.1-1.676-3.006-1.236-3.886-2.2.44-11.982-.177-11.982-.176z" fill="url(#d)"/>
  <path d="M98.372 101.184c-.622-.942-.03-1.652-1.516-3.177-5.976-6.306-11.413-4.586-20.845-14.653-13.526-14.99 13.223-40.778 27.41-26.438 10.268 10.743 7.67 17.304 13.147 23.334 1.362 1.637 2.153 1.1 3.026 1.817l-10.758 9.396-10.464 9.721z" fill="#9b9b5d" stroke="#000" stroke-linejoin="round" stroke-width="1pt"/>
  <path transform="matrix(.79463 -.71583 .74477 .82676 -124.55 232.07)" d="m258.1 121.41c0 3.998-3.382 7.243-7.55 7.243-4.167 0-7.549-3.245-7.549-7.243 0-3.999 3.382-7.244 7.55-7.244 4.167 0 7.549 3.245 7.549 7.244z" fill="url(#e)" stroke="#000" stroke-width="1.146"/>
  <path transform="matrix(1.0633 -.95782 .95739 1.0628 -216.25 261.65)" d="m252.6 121.99c0 2.028-1.676 3.673-3.741 3.673s-3.74-1.645-3.74-3.672c0-2.028 1.675-3.673 3.74-3.673s3.74 1.645 3.74 3.673z" fill="#004691" stroke="#000" stroke-width=".874"/>
  <path transform="rotate(-42.013 248.29 245.45)" d="M246.126 124.62c-4.953-3.538.118-9.553 3.892-7.548 6.486 4.6.118 10.142-3.892 7.548z" fill="url(#f)"/>
  <path transform="rotate(-42.013 248.29 245.45)" d="M235.199 36.968c.169-1.117-.236-.808-.32-2.935-.22-8.685-4.97-11.046-5.24-24.839-.153-19.24 35.136-18.807 36.3-1.077.437 14.854-5.003 17.77-4.97 25.916-.084 2.127-.897 2.038-.729 3.155h-12.52l-12.521-.22z" fill="url(#g)"/>
  <path transform="matrix(.79463 -.71583 .74477 .82676 -196.44 152.89)" d="m258.1 121.41c0 3.998-3.382 7.243-7.55 7.243-4.167 0-7.549-3.245-7.549-7.243 0-3.999 3.382-7.244 7.55-7.244 4.167 0 7.549 3.245 7.549 7.244z" fill="url(#e)" stroke="#000" stroke-width="1.146"/>
  <path transform="matrix(1.0633 -.95782 .95739 1.0628 -288.15 182.47)" d="m252.6 121.99c0 2.028-1.676 3.673-3.741 3.673s-3.74-1.645-3.74-3.672c0-2.028 1.675-3.673 3.74-3.673s3.74 1.645 3.74 3.673z" fill="#004691" stroke="#000" stroke-width=".874"/>
  <path transform="rotate(-42.013 109.24 299.47)" d="M246.126 124.62c-4.953-3.538.118-9.553 3.892-7.548 6.486 4.6.118 10.142-3.892 7.548z" fill="url(#f)"/>
  <path transform="rotate(-42.013 248.29 245.45)" d="M229.53 9.663l10.037 1.867c.622-2.568 3.268-5.913 7.936-6.069 4.201-.156 7.625 2.723 8.559 5.913l9.959-.778c.778-2.567-.39-16.028-17.973-16.028-14.239 0-19.452 10.193-18.518 15.095z" fill="url(#h)"/>
  <path transform="rotate(-42.013 248.29 245.45)" d="m239.07 157.54c0.118 11.086 0.215 273.81 2.872 282.87 4.907 18.036 12.097 17.82 16.512-1.436 1.436-7.897-2.154-274.52-2.154-280.71-0.707-7.61-6.44-10.781-8.605-20.307-2.871 10.051-7.984 14.04-8.625 19.59z" fill="url(#i)" stroke="url(#j)" stroke-width="1pt"/>
  <path transform="rotate(-42.013 248.29 245.45)" d="M217.204 116.04c-7.15-.536-16.623-2.819-23.415-1.567-5.72 1.072-6.848 4.028-7.384 8.14 0 3.932.316 4.977 4.964 8.373 4.29 2.682 11.508 4.813 11.508-3.41-.536-5.005-3.217-3.45-5.541-2.02 4.29-3.933 13.79-5.474 19.868-5.116 0-2.324-1.072-2.612 0-4.4z" fill="url(#k)"/>
  <path transform="rotate(-42.013 248.29 245.45)" d="M277.954 115.6c7.15-.536 17.944-2.379 24.736-1.127 5.72 1.072 6.848 3.588 7.384 7.7 0 3.932.344 4.977-4.304 8.373-4.29 2.681-12.168 5.253-12.168-2.97.536-5.005 4.098-3.45 6.421-2.02-4.29-3.933-15.771-5.694-21.849-5.336 0-2.324.853-2.832-.22-4.62z" fill="url(#l)"/>
  <path transform="rotate(-42.013 248.29 245.45)" d="M260.844 45.03c-1.135.071-7.05 14.4-13.134 28.274-5.973-13.6-12.044-27.066-13.156-27.952-2.04-.272-1.517 2.86.387 5.581.761 1.078 5.973 13.389 11.188 25.583-4.367 10.048-9.092 21.062-9.625 21.968-1.088 2.993-2.452 5.322-.004 4.778 1.042-.245 6.03-11.876 11.074-23.535 5.146 11.913 10.399 23.712 11.46 23.962 1.768.272 1.764-1.074-.004-3.93-.548-.931-5.08-12.71-9.603-23.107 4.805-12.902 10.387-25.618 11.165-26.72 1.905-2.721 2.292-5.174.252-4.902z" fill="url(#m)"/>
 </g>
</svg>
