<svg width="400pt" height="400pt" xmlns="http://www.w3.org/2000/svg"><g fill-rule="evenodd"><path d="M215 202.5s11.25 126.25 5 175-10 66.25 3.75 83.75c28.75 7.5 121.25 17.5 142.5-15C365 403.75 315 345 306.25 297.5s29.41-93.604-28.09-104.854S213.75 205 215 202.5z" fill="#fafada" stroke="#000" stroke-width="10" stroke-linejoin="round"/><path d="M215 211.25s3.75 51.25-11.25 90c26.25 18.75 105-3.75 123.75-3.75-25-38.75-15-73.75-15-81.25s-100-7.5-97.5-5z" fill="#f0f0df" stroke="#000" stroke-width="10" stroke-linejoin="round"/><path d="M20 271.25C31.25 182.5 161.25 37.5 262.5 33.75 378.75 16.25 481.25 145 493.75 191.25c-31.25 18.75-182.5 30-220 46.25-37.5 23.75-232.5 36.25-253.75 33.75z" fill="#fa0000" stroke="#000" stroke-width="10" stroke-linejoin="round"/><path d="M255 118.75c-55 22.5-42.5 107.5 13.75 98.75 91.25-16.25 25-108.75-13.75-98.75zM32.272 254.454c-6.25-10 26.25-92.5 61.25-77.5 43.75 21.25-21.25 108.75-61.25 77.5zM248.363 38.522c80-11.25 26.25 27.5-1.25 35-23.75 5-105-7.5 1.25-35zM142.5 102.5c31.25-11.25 87.5 51.25 20 76.25-68.75 8.75-55-61.25-20-76.25zM430.933 107.659c-32.5-26.25-78.75-18.75-67.5 38.75 26.25 53.75 96.25 7.5 67.5-38.75zM327.183 42.817c-30 16.25 5 75 56.25 27.5-10-11.25-47.5-25-56.25-27.5zM488.274 187.887c-5-12.5-17.659-56.796-45.159-20.546-29.613 56.32 45.159 20.546 45.159 20.546z" fill="#faffff"/><path d="M296.116 307.443c6.473 9.71 56.635 106.796 58.253 124.596 1.618 17.8-16.181 24.272-25.89 21.035-9.709-3.236-43.69-134.304-32.363-145.63z" fill="#e6e4df"/><path d="M289.644 37.217c-80.906-6.473-216.828 79.288-260.518 223.3 12.945 4.855 4.855 12.946 45.308 0 53.398-190.938 174.757-197.41 215.21-223.3z" fill="#fff" fill-opacity=".433"/></g></svg>