<svg width="106.667" height="106.667" xmlns="http://www.w3.org/2000/svg" xmlns:xlink="http://www.w3.org/1999/xlink"><defs><linearGradient id="b"><stop offset="0" stop-color="#fff" stop-opacity=".5"/><stop offset="1" stop-color="#fff" stop-opacity="0"/></linearGradient><linearGradient id="a"><stop offset="0" stop-color="#fb0"/><stop offset="1" stop-color="#ffe600"/></linearGradient><linearGradient xlink:href="#a" id="c" x1=".881" y1=".914" x2="-.022" y2="-.063"/><linearGradient xlink:href="#b" id="d" x1=".071" y1=".445" x2="1.375" y2=".594"/><linearGradient xlink:href="#a" id="e" x1=".84" y1=".719" x2=".075" y2="0"/></defs><path d="M47.93 18.792a7.625 7.625 0 00-5.468 12.938L16.399 51.886a2.5 2.5 0 00-.843 2.813l12.843 35.78a2.5 2.5 0 002.438 1.657l38-1.156a2.5 2.5 0 002.312-1.813L81.774 52.7a2.5 2.5 0 00-.968-2.782l-27.22-18.5c1.182-1.343 1.97-3.07 1.97-5a7.625 7.625 0 00-7.625-7.625zm.22 3.782c2.01 0 3.624 1.806 3.624 4.03a4.313 4.313 0 01-1.062 2.845l-1.344-.907a2.5 2.5 0 00-1.656-.437 2.5 2.5 0 00-1.281.531l-.938.719c-.61-.72-1-1.689-1-2.75 0-2.225 1.646-4.031 3.656-4.031zm3.687 13.687l19.656 13.344-14.781.437-4.875-13.78zm-7.781.531l-4.032 13.72-14.218.405 18.25-14.125zm4.03 3.907l3.376 9.468-6.188.188 2.813-9.656zm23 13.937l-9.968 7.875-2.656-7.5 12.625-.375zm-17.874.5l3.781 10.625-8.187 6.469-8.22-5.844 3.22-10.969 9.406-.28zm-14.656.438l-2.282 7.75-10.406-7.407 12.688-.343zm36.53 2.25L68.025 81.98l-5.156-14.5 12.219-9.656zm-52.343 2.03l12.031 8.563-4.031 13.75-8-22.312zm36 10.876l4.063 11.469-9.782-6.938 5.719-4.531zm-19.656.75l5.594 4-8.813 6.969 3.219-10.97zm9.844 7l10.906 7.781-21.563.625 10.657-8.406z" fill="url(#c)" fill-rule="evenodd" stroke="#000" stroke-width="1.25" stroke-linejoin="round"/><path d="M16.334 53.074c.558-1.06 18.365-14.514 27.297-21.435-3.182-1.843-4.522-9.88 2.511-11.89-4.186 3.516-3.851 9.378-1.172 10.55 3.182 1.507 1.675 3.852-1.005 5.024-1.842 2.177-5.86 5.024-19.258 16.076 2.177.838 13.732-1.507 13.732 1.675.335 2.847-13.732 1.675-13.732 2.847 0 .837 11.555 6.029 8.876 9.21-1.842 1.508-11.388-7.87-11.89-6.028 7.703 18.086 5.526 21.1 11.387 26.794 3.852 2.345 3.684 6.866-3.517 4.69-1.004-1.173-13.732-35.503-13.23-37.513z" fill="url(#d)" fill-rule="evenodd"/><path d="M48.14 5.193c-4.945 0-8.969 4.956-8.969 11.063 0 6.106 4.024 11.062 8.97 11.062 1.429 0 2.429-.348 3.63-1.084-.101-1.152-.589-2.58-1.96-3.18-.53.324-.974.42-1.577.42-2.588 0-4.688-3.279-4.688-7.312 0-4.034 2.1-7.313 4.688-7.313 2.588 0 4.687 3.28 4.687 7.313 0 1.573-.173 2.63-.716 3.825 1.12 1.027 2.131 2.22 2.755 3.412 1.226-1.891 2.149-4.536 2.149-7.143 0-6.107-4.023-11.063-8.969-11.063z" fill="url(#e)" fill-rule="evenodd" stroke="#000" stroke-width="1pt" stroke-linejoin="round"/></svg>