<?xml version="1.0" encoding="UTF-8"?>
<svg width="128" height="128" xmlns="http://www.w3.org/2000/svg" xmlns:xlink="http://www.w3.org/1999/xlink">
 <defs>
  <linearGradient id="i" x1="114" x2="197" y1="112.36" y2="288.36" gradientTransform="matrix(.23497 0 0 .23497 33.06 -.523)" gradientUnits="userSpaceOnUse">
   <stop stop-color="#dec164" offset="0"/>
   <stop stop-color="#d5a864" offset="1"/>
  </linearGradient>
 </defs>
 <path transform="rotate(-59.3 77.738 116.02) scale(1.7924)" d="M44.533 39.618c1.928 7.02-1.56 14.775 2.08 21.443 2.219 5.16 5.314 12.466 7.834 14.881 8.316 4.444 18.033 1.55 23.535-1.79 2.856-2.987 4.008-7.076 5.146-10.938 3.165-4.74 3.927-10.797 5.74-16.192C90.66 40.56 86.09 35.1 84.063 29.25c-1.762-5.732-1.256-12.769-5.883-17.278-3.807-5.083-10.175-8.248-16.229-5.485-10.242 3.787-17.827 14.045-17.45 25.176" fill="url(#i)" fill-rule="evenodd"/>
 <path d="M27.889 82.692c.799 4.034 5.461 3.692 8.134 5.826 3.755 2.344 8.218 3.238 11.832 5.868C53.893 98.1 59.59 103.382 67 103.86c5.073-.172 8.119 4.413 12.902 4.824 6.662 1.28 13.462 1.632 20.132 2.87 9.415-2.067 15.784-10.32 19.942-18.482 2.537-5.65 4-11.933 3.57-18.123-.108-2.685.128-11.775-1.214-6.674-.34 4.823-5.999 7.105-6.169 12.082.433 3.12.428 4.87-1.87 7.705-2.916 5.388-9.37 6.92-13.716 10.791-4.145 2.53-9.147 2.26-13.78 1.857-7.915.3-15.875-1.561-22.759-5.51-5.444-2.96-11.205-5.62-17.476-6.067-6.234-.959-12.41-3.08-17.415-7.01-.44-.071-1.22-.042-1.257.57z" fill-opacity=".082" fill-rule="evenodd"/>
 <path d="M44.009 92.509l1.089 1.105c8.377 3.725 12.494 10.89 22.091 11.54 3.506.284 8.393.78 11.384 2.199 7.207 1.75 14.34 3.449 21.652 4.728 9.954-2.669 16.8-13.195 20.26-22.394 1.493-3.836 2.102-8.388 2.426-12.258.358-2.77.356-5.825-.332-8.386-.426.758-.139 4.206-.474 5.012-1.957-1.344-4.958 6.147-4.124 9.049-.985 3.194-2.282 6.239-4.645 8.752-3.799 3.783-8.834 5.997-13.14 9.111-6.353 3.212-13.697 1.52-20.493 1.44-9.293-.64-17.154-6.1-25.584-9.421-3.532-1.218-6.429.097-10.11-.477z" fill-opacity=".082" fill-rule="evenodd"/>
 <path d="M7.57 27.435c-2.469 6.11-1.578 10.173-2.638 16.623.076 2.914.448 9.324 1.818 6.155 2.466-7.02 5.298-19.79 13.063-22.619 5.083-2.49 10.74-3.497 16.357-3.259 4.893-.948 10.182-2.141 14.815.39 7.597 3.185 25.24 5.551 34.235 4.25 3.052 1.033-3.872-3.618-6.858-5.717-8.874-4.887-20.146-2.832-29.395-6.67-6.414-2.357-12.04-3.172-18.814-1.93-7.934.365-13.05-2.388-17.492 4.99-.593.8-4.593 6.928-5.09 7.787z" fill="#fff" fill-opacity=".124" fill-rule="evenodd"/>
 <path d="M3.842 42.21c2.031-7.236 2.633-15.368 7.808-21.255 4.983-5.477 12.858-5.995 19.772-6.431 4.11-.528 8.325-.75 12.352.427 6.49 1.616 12.639 4.72 19.414 5.058 4.62.554 9.122 1.89 13.476 3.437 3.4 1.104 1.699 4.175-1.274 3.213-6.3-.023-12.708-.154-18.72-2.276-3.34-.862-6.412-2.626-9.789-3.28-3.663-.522-7.185.998-10.764 1.293-3.931-.177-8.023-.187-11.659 1.516-5.437 1.422-10.952 4.363-13.468 9.646-2.186 3.597-3.16 7.752-4.698 11.608-1.634 2.087-3.383-1.636-2.45-2.955z" fill="#fff" fill-opacity=".125" fill-rule="evenodd"/>
 <path d="M9.59 21.313c-4.086 7.174-6.224 13.9-5.515 22.526-.333 10.789 4.514 19.247 8.39 28.979 4.536 8.784 16.033 9.943 21.903 17.438 7.424 3.586 14.948 4.723 21.144 10.508 8.443 6.253 20.283 7.854 30.421 8.806 8.187 1.545 15.445 6.092 22.413-.977 7.775-7.268 15.012-16.523 15.252-27.48 2.723-7.95 2.38-17.313-5.206-22.489-10.298-11.423-18.339-25.405-31.745-33.634-12.015-5.807-24.496-1.878-36.24-8.579-9.053-4.057-16.265-3.285-27.378-2.028-3.974.607-10.756 3.816-13.44 6.93zm1.089 2.182c6.225-7.43 16.315-6.772 24.846-8.136 8.568-1.463 15.892 4.523 23.81 6.21 12.077 2.28 26.681 1.872 35.576 11.925 10.685 10.223 15.846 22.963 26.71 33.022-.323 8.623.9 15.77-3.108 27.406-4.696 6.805-10.62 15.968-20.039 15.447-7.683-1.364-15.493-3.694-23.289-4.434-9.256-1.077-17.992-4.371-25.026-10.353-5.61-5.06-14.31-4.299-19.225-10.385-5.734-5.344-13.877-7.905-17.846-15.268-3.63-8.583-6.794-16.787-7.187-26.295-.8-7.009 1.207-14.637 4.778-19.14z"/>
 <path d="M88.702 88.54c.003.848.15 2.894.97 1.142 1.778-1.983 4.332-2.973 6.784-3.838 1.813.517 3.029 2.434 3.365 4.185-.323.972-1.244 3.002-.249 3.455 1.506-2.522 1.36-6.012-.687-8.2-.806-1.49-2.687-2.12-4.106-1.084-2.316.917-4.764 2.118-6.077 4.34zm1.13 4.697c-.462 1.536-.227 3.327 1.256 4.224 1.414 1.366 3.54 1.528 5.265.698 1.423.06 2.055-2.87.788-2.747-1.535 1.12-4.304 1.681-5.488-.218-.26-.925-1.92-2.365-1.524-.414-.053 1.943.004-2.82-.045-.234-.092 1.753-.177-1.043-.252-1.31z" fill-opacity=".129"/>
 <path d="M85.513 86.616c-1.675 2.402-1.575 5.481-1.379 8.272.175 1.418.97 2.774 2.084 3.665.707.706 1.708.354 1.384-.72-.344-1.517-2.252-1.971-2.652-3.47-.984-1.946-.2-4.263 1.067-5.878.55-.62 1.05-1.443 1.89-1.642.812-.548 1.138-1.789.718-2.668-.998-.444-1.609 1.192-2.402 1.649-.25.252-.49.514-.71.792zm18.252-.734c-.699 1.856.792 3.929-.32 5.696-.745 1.103-1.284 2.347-2.105 3.406-.745 1.023-1.632 1.957-2.699 2.646-.357.624-.404 2.134.544 2.103.923-.871 1.773-1.862 2.598-2.842 1.373-1.649 2.343-3.655 2.52-5.812.136-1.47.183-3.003-.193-4.435-.11-.257-.242-.503-.345-.762z" fill="#fff" fill-opacity=".171"/>
 <path d="M39.693 34.213c.385.604 1.411 2 1.207.378.377-2.217 1.755-4.076 3.116-5.8 1.528-.447 3.26.374 4.29 1.473.207.84.464 2.705 1.38 2.58-.062-2.48-1.739-4.907-4.188-5.546-1.247-.7-2.875-.304-3.421 1.076-1.24 1.699-2.448 3.66-2.384 5.84zm2.924 2.845c.363 1.305 1.338 2.479 2.801 2.45 1.626.34 3.218-.504 4.075-1.874 1.044-.598.174-2.976-.675-2.317-.592 1.492-2.316 3.14-4.018 2.318-.603-.543-2.437-.824-1.276.391.839 1.411-1.268-2.016-.137-.146.725 1.293-.596-.666-.77-.822z" fill-opacity=".129"/>
 <path d="M36.548 34.276c-.113 2.47 1.345 4.625 2.744 6.53.764.934 1.943 1.544 3.14 1.678.823.185 1.38-.517.665-1.138-.93-.929-2.498-.393-3.46-1.284-1.579-.946-2.063-2.954-1.886-4.678.113-.691.1-1.504.61-2.026.332-.757.006-1.79-.69-2.228-.913.133-.612 1.576-.973 2.26a8.18 8.18 0 00-.15.886zm12.705-8.75c.338 1.64 2.337 2.448 2.339 4.212-.035 1.123.14 2.254.032 3.381-.071 1.066-.284 2.133-.735 3.106.026.607.673 1.706 1.336 1.257.266-1.038.428-2.13.575-3.2.238-1.797.026-3.667-.82-5.288-.565-1.111-1.223-2.227-2.137-3.08-.194-.134-.4-.25-.59-.389z" fill="#fff" fill-opacity=".171"/>
 <path d="M44.952 80.922c-.118.639-.298 2.201.569.997 1.62-1.241 3.685-1.625 5.655-1.93 1.292.647 1.937 2.264 1.942 3.63-.381.687-1.363 2.086-.677 2.568 1.492-1.686 1.877-4.336.644-6.275-.396-1.236-1.723-1.979-2.94-1.399-1.874.363-3.888.92-5.193 2.409zm.185 3.698c-.565 1.092-.642 2.475.348 3.36.871 1.23 2.45 1.654 3.867 1.273 1.064.247 1.956-1.871.984-1.958-1.315.626-3.481.657-4.104-.942-.065-.734-1.11-2.054-1.09-.529-.315 1.457.403-2.124 0-.182-.318 1.308.014-.81-.005-1.022z" fill-opacity=".129"/>
 <path d="M42.822 79.02c-1.602 1.572-1.964 3.906-2.211 6.036-.07 1.093.337 2.228 1.05 3.057.433.632 1.237.509 1.145-.346-.044-1.192-1.417-1.805-1.506-2.991-.466-1.605.454-3.24 1.637-4.277.502-.39.995-.938 1.657-.97.69-.297 1.11-1.185.919-1.907-.689-.476-1.381.67-2.044.901a7.425 7.425 0 00-.647.497zm13.855 2.035c-.79 1.299.04 3.072-1.05 4.246-.716.725-1.298 1.585-2.067 2.267-.706.665-1.507 1.243-2.409 1.611-.357.42-.607 1.55.112 1.661.819-.525 1.6-1.151 2.36-1.772 1.269-1.048 2.284-2.422 2.723-4.022.31-1.088.563-2.236.483-3.369-.046-.208-.111-.413-.152-.622z" fill="#fff" fill-opacity=".171"/>
 <path d="M76.063 43.691c.28.625 1.057 2.087 1.09.526.664-2.045 2.225-3.612 3.752-5.052 1.507-.211 3.032.806 3.853 1.988.08.823.063 2.623.946 2.632.287-2.354-.962-4.883-3.19-5.828-1.081-.836-2.676-.687-3.385.543-1.409 1.434-2.823 3.121-3.066 5.191zm2.37 3.097c.162 1.285.922 2.53 2.31 2.707 1.49.546 3.113-.03 4.114-1.207 1.07-.42.578-2.79-.317-2.285-.767 1.329-2.627 2.649-4.122 1.634-.495-.597-2.19-1.118-1.26.193.596 1.451-.92-2.083-.11-.158.505 1.324-.472-.712-.614-.884z" fill-opacity=".129"/>
 <path d="M73.08 43.314c-.45 2.32.63 4.56 1.688 6.556.593.99 1.624 1.73 2.737 2.024.753.29 1.376-.297.787-.983-.751-1.008-2.308-.72-3.094-1.695-1.362-1.114-1.54-3.081-1.134-4.687.203-.638.302-1.408.858-1.831.42-.67.254-1.692-.343-2.203-.882-.002-.798 1.405-1.234 2.002a7.82 7.82 0 00-.265.817zm13.232-6.512c.092 1.599 1.87 2.641 1.627 4.31-.19 1.057-.18 2.151-.44 3.202-.215.998-.564 1.978-1.126 2.836-.06.577.4 1.707 1.09 1.374.395-.945.699-1.954.987-2.947.475-1.667.534-3.465-.04-5.115-.381-1.13-.848-2.276-1.594-3.21-.165-.154-.343-.292-.504-.45z" fill="#fff" fill-opacity=".171"/>
 <path d="M16.685 60.26c-.474-.24-1.66-.745-.915.215.598 1.562.42 3.273.2 4.89-.808.865-2.227.995-3.302.682-.45-.46-1.32-1.555-1.859-1.129.978 1.564 2.97 2.482 4.778 1.965 1.063-.024 1.955-.894 1.782-1.984.151-1.556.182-3.268-.684-4.638zm-2.948-.713c-.726-.698-1.794-1.08-2.72-.508-1.168.398-1.867 1.54-1.897 2.74-.442.779 1.014 1.971 1.308 1.229-.186-1.179.294-2.887 1.695-3.005.59.12 1.87-.394.668-.732-1.071-.586 1.574.81.143.041-.953-.553.633.2.803.235z" fill-opacity=".129"/>
 <path d="M18.674 59.03c-.863-1.624-2.611-2.45-4.227-3.14-.842-.308-1.828-.252-2.645.115-.597.192-.686.853.006.98.947.242 1.747-.694 2.699-.488 1.369.007 2.439 1.11 2.978 2.28.19.485.505 1 .376 1.526.074.61.674 1.148 1.285 1.165.534-.43-.205-1.24-.233-1.814a6.081 6.081 0 00-.24-.624zm-4.819 10.408c-.836-.922-2.422-.683-3.09-1.811-.403-.732-.944-1.389-1.3-2.151-.358-.71-.626-1.473-.706-2.266-.246-.378-1.076-.837-1.33-.298.222.765.532 1.524.843 2.265.528 1.24 1.371 2.356 2.526 3.073.782.497 1.625.962 2.533 1.163.175.012.35.008.524.025z" fill="#fff" fill-opacity=".171"/>
</svg>
