<?xml version="1.0" encoding="UTF-8"?>
<svg width="128" height="128" xmlns="http://www.w3.org/2000/svg" xmlns:xlink="http://www.w3.org/1999/xlink">
 <g fill-rule="evenodd">
  <path d="M55.82 68.506c-8.548 3.538-16.296 12.142-15.506 21.79.738 9.543 5.368 17.18 13.102 22.811 7.598 2.533 16.083-.793 23.86-.59 12.04-.76 21.685-1.408 32.827-6.595 6.498-3.596 9.773-7.094 10.815-14.752-.367-6.716-2.85-7.62-7.375-11.805-4.283-3.777-9.508-7.217-15.2-7.05-14.931-1.568-27.53-3.302-42.523-3.81z" fill="#ad8423"/>
  <path d="m50.767 112.79s9.213-18.912 9.213-22.306c31.034 2.425 12.608 18.911 52.37 13.092-10.668 7.274-45.096 10.183-61.583 9.214z" fill-opacity=".082"/>
  <path d="M51.889 67.475c-8.548 3.54-16.296 12.143-15.506 21.79.738 9.544 5.853 20.576 13.586 26.206 7.599 2.533 16.084-1.763 23.861-1.56 12.04-.76 24.594-.923 35.736-6.11 6.499-3.595 12.683-9.519 13.725-17.177-.367-6.715-6.244-11.013-10.77-15.198-4.283-3.778-9.993-5.763-15.685-5.596-14.93-1.568-29.954-1.847-44.947-2.355zm1.688 3.358c17.571.72 33.311-1.754 51.2 3.99 6.778 2.752 9.062 5.877 13.423 11.562 2.206 3.904 1.167 8.432-1.777 11.652-6.184 8.824-15.667 11.166-26.163 11.493-12.798 1.582-21.825 2.83-34.722 2.6 4.93-8.475 8.34-15.135 5.958-23.299-1.89-8.415-2.036-5.379-3.622-12.085-1.98-4.825-5.826-5.17-4.297-5.913z"/>
  <path d="m50.525 112.7s8.243-15.032 8.243-18.426c25.7 1.455 10.183 18.426 49.945 12.607-10.668 7.274-41.702 6.789-58.188 5.82z" fill-opacity=".082"/>
  <path d="m48.827 73.508-7.758 7.759 7.758 2.91-8.243 6.303 9.698 0.97 0.485 4.364-7.758-2.425 0.484 6.79 4.85 9.212-0.485-7.273 7.273-4.364-3.88 10.183 6.305-7.274s2.91-9.213 0.97-9.698-5.82 2.424-5.82 2.424l1.94-11.637-0.97-5.819-2.909 5.819-1.94-8.244z" fill="#fa0c08"/>
  <path d="M17.545 5.6C12.16 9.878-2.56 32.586 12.267 47.837c28.312 23.298 10.012 20.487 22.277 46.26 16.538-5.214 21.025-18.283 16.369-37.703C47.118 27.49 28.386 40.914 17.545 5.6z" fill-opacity=".082"/>
  <path d="M16.6 13.808c-4.736 3.76-12.03 20.098 1.008 33.507 24.895 20.487 7.996 20.033 18.782 42.696 12.121-6.603 11.628-17.691 8.744-35.575C41.797 29.022 26.132 44.86 16.6 13.808zM73.25 31.311c3.624 2.878 13.526 18.154 3.551 28.413-19.046 15.673-6.735 13.782-14.986 31.12-11.125-3.508-14.143-12.3-11.011-25.364 2.552-19.442 15.154-10.413 22.447-34.169z" fill-opacity=".082"/>
  <path d="M73.886 36.832c3.187 2.53 8.093 13.52-.678 22.541C56.461 73.155 67.83 72.85 60.574 88.095c-8.154-4.442-7.822-11.901-5.882-23.931 2.244-17.097 12.782-6.443 19.194-27.332z" fill-opacity=".082"/>
 </g>
</svg>
