<?xml version="1.0" encoding="UTF-8"?>
<svg width="128" height="128" xmlns="http://www.w3.org/2000/svg" xmlns:xlink="http://www.w3.org/1999/xlink">
 <g fill-rule="evenodd">
  <path d="m20.792 89.708s23.232-27.253 25.242-29.04 7.149-7.595 12.063-7.595 30.38-2.68 31.497-0.894c1.117 1.787 2.234 5.808 2.904 8.265 0.67 2.458 2.457 8.042 0.67 8.936-1.787 0.893-23.455 0.223-24.125 1.117-0.67 0.893-15.637 19.434-16.084 21.444-0.446 2.01-8.042 14.297-9.158 13.18-1.117-1.117-23.679-12.063-23.009-15.413z" fill="#f8f8f8"/>
  <path d="M89.147 52.403s3.128 5.808 3.574 8.712c.447 2.904 0 8.265-.67 9.158-.67.894 24.796 4.468 26.36 4.021 1.563-.447 3.127-2.68 3.35-4.69.224-2.011-.893-4.245-.67-8.266.223-4.021-1.564-9.606-5.138-9.606s-27.253 0-26.806.67z" fill="#daa612"/>
  <path d="M78.511 51.327c-8.05.314-16.125.606-24.123 1.613-4.142 1.433-6.46 5.568-9.64 8.349-8.73 9.435-16.982 19.297-25.296 29.098-.38 7.266 5.355 13.566 12.105 15.47 4.357 1.423 9.428 2.404 13.772.565 2.238-3.131 3.759-6.8 6.026-9.991 4.973-7.957 10.2-15.76 15.791-23.297 2.812-3.3 9.358-2.284 13.994-2.052 12.528.547 24.87 3.306 37.404 3.685 4.488-.799 4.42-6.318 3.762-9.801-.998-4.334 1.403-10.874-3.618-13.186-5.08-1.623-10.542-.692-15.793-.964-4.77.019-21.236.1-24.384.511zm20.275 1.274c5.94.057 11.92-.226 17.831.387 5.54 1.24 2.83 8.288 3.912 12.322 1.317 4.042-.62 9.457-5.711 7.52-7.226-.566-14.402-1.609-21.597-2.461 2.63-4.059-.456-8.813-.857-13.101-.498-2.46-3.909-5.408.472-4.563 1.983-.046 3.966-.087 5.95-.104zm-10.984.213c3.543 3.616 3.633 9.146 4.67 13.849.23 4.582-5.251 3.096-8.272 2.82-4.607-.33-9.256-.66-13.863-.2.355-3.284.875-9.128-3.286-10.018 4.243 4.422 2.13 13.728-.728 9.542-1.464-3.103-5.852-3.359-9.493-1.914 4.377-.206 8.556-.047 8.85 5.032-7.077 9.934-13.969 20.034-20.074 30.61-.902 1.05-6.659-10.84-16.597-12.103-2.057-.889-9.535.999-4.983-2.64 9.436-10.982 18.508-22.356 29.09-32.275 3.752-2.112 8.337-1.093 12.447-1.782 7.41-.4 14.823-.72 22.24-.921z"/>
  <path d="M21.737 92.21l1.815 5.806 1.451-3.629.726 6.17 6.532 4.354-3.992-4.718 8.347 1.452-1.452 3.266 8.347 1.088-7.258-10.16-1.452 2.54-5.806-.726 3.629-2.54-10.887-2.903z" fill="#fa0c08"/>
  <path d="m16.43 28.347c-4.962 3.941-18.523 24.864-4.863 38.915 26.086 21.466 9.225 18.876 20.525 42.622 15.238-4.804 19.372-16.846 15.082-34.738-3.496-26.63-20.756-14.262-30.743-46.799z" fill-opacity=".082"/>
  <path d="M15.56 35.91c-4.364 3.464-11.084 18.516.928 30.871 22.938 18.876 7.368 18.457 17.305 39.338 11.168-6.083 10.713-16.3 8.056-32.777-3.074-23.415-17.507-8.823-26.29-37.433z" fill-opacity=".082"/>
 </g>
</svg>
