<?xml version="1.0" encoding="UTF-8"?>
<svg width="128" height="128" xmlns="http://www.w3.org/2000/svg" xmlns:xlink="http://www.w3.org/1999/xlink">
 <g fill-rule="evenodd">
  <path d="m83.604 44.608c-8.507 7.597-13.633 23.91-17.854 32.104-6.004 4.415-7.513-4.232-10.71-7.41-6.395-7.247-14.046-13.598-23.51-15.803-11.592 3.143-22.8 10.484-25.645 22.723-1.737 5.065 3.01 10.517 6.005 14.076 7.512 7.92 16.231 14.604 27.118 17.109 11.633 1.77 22.354-1.45 31.957-8.216 7.997-5.544 10.41-14.959 13.359-23.608 2.038-5.796 5.607-16.677 7.827-18.136 3.475 1.023-6.62-7.81-8.547-12.84z" fill="#404040"/>
  <path d="M82.498 42.643s22.572-6.122 34.483-3.567c3.716 1.189 7.134.743 6.689 3.567-.446 2.824-1.768 6.777-4.74 6.777-10.144-3.415-24.295 7.75-25.78 8.494-2.512-1.989-7.892-10.85-10.652-15.271z" fill="#b9a165"/>
  <path d="m87.322 53.516s3.585 2.903 5.293 4.269c4.78-1.537 13.146-7.342 21.342-9.562-8.879-4.097-21.855 0.683-26.635 5.293zm-81.1 28.684s3.073 4.44 7.683 2.903 12.976-6.83 15.537-9.562c0.854 6.659 24.415 28.855 31.586 28.684-17.244 4.78-38.928 4.951-54.806-22.025z" fill-opacity=".082"/>
  <path d="M89.541 54.294s1.708 1.878 3.415 3.244c4.78-1.536 10.415-5.976 18.61-8.195-9.22-2.561-17.244.341-22.025 4.951z" fill-opacity=".082"/>
  <path d="M106.615 37.809c-8.682.19-17.54 1.417-25.44 5.207 4.451 3.105-2.787 5.752-4.268 8.451-6.575 7.003-5.161 18.115-11.909 24.97-6.004 4.415-6.918-4.975-10.116-8.152-5.502-7.694-14.194-14.788-23.807-15.804C19.483 55.625 7.829 63.71 4.985 75.947c-1.738 5.065 2.564 10.815 5.559 14.373 7.511 7.921 16.677 15.199 27.563 17.704 11.634 1.77 23.99-1.301 33.592-8.067 7.998-5.544 10.114-15.553 13.062-24.202 2.038-5.796 3.08-12.219 6.787-17.245 3.475 1.023 6.533-2.943 9.988-4.61 5.257-3.19 12.071-6.854 18.055-3.2 3.196-1.612 7.893-6.421 4.61-10.032-4.292-3.024-10.267-2.518-15.409-2.86a83.806 83.806 0 00-2.177 0zm0 1.365c5.38.147 10.418-.472 15.345 1.857 3.402 3.847-2.155 8.69-6.424 6.894-7.405-.704-13.297 3.468-19.261 7.15-.871.61-2.345 1.615-3.404 1.813-1.81-1.385-4.17-4.742-6.019-7.854-1.612-2.714-2.412-4.398-2.774-5.122-.008-.223.057-.475 0-.683 7.122-2.883 14.899-3.885 22.537-4.055zM83.608 45.13c.605 1.158.204 3.175 1.398 5.186 1.692 2.848 4.406 5.182 6.414 7-1.249.394-2.35 1.054-2.775 3.03-4.826 10.786-7.342 22.399-13.477 32.612-6.985 9.127-18.372 12.349-29.452 13.061-8.93.883-16.874-2.23-23.573-7.769-5.848-4.92-11.96-10.12-15.409-17.073-.709-6.724 3.531-13.03 8.238-17.5 4.726-4.37 10.575-7.454 16.775-9.135C44.352 56.373 54.13 66.815 58.81 78.145c4.693 2.851 9.26-1.753 10.756-5.976 3.462-7.091 3.561-15.941 9.903-21.427 1.757-1.162 3.345-3.852 4.14-5.613zM32.174 55.437c-7.822 2.457-15.206 7.206-19.55 14.3-2.038 3.334-3.557 7.05-4.14 10.926-.028 1.779 2.139 2.428 3.543 1.793 3.13-.88 5.79-2.858 8.323-4.823 3.09-2.557 5.951-5.374 8.665-8.324 2.255-2.55 4.517-5.437 4.952-8.92.139-1.801-.528-3.66-1.793-4.952zm4.524 2.476c-1.346 11.701-9.708 22.484-24.35 26.656l.522.768c17.944-4.56 23.877-15.294 24.458-27.157l-.63-.267z"/>
  <path d="m5.966 82.17s3.073 4.44 7.683 2.903 11.269-5.122 13.83-7.854c0.853 6.659 23.903 28.172 31.074 28-18.44 4.61-35.172 1.708-52.587-23.048z" fill-opacity=".082"/>
 </g>
</svg>
