<svg width="213.333" height="213.333" xmlns="http://www.w3.org/2000/svg" xmlns:xlink="http://www.w3.org/1999/xlink"><defs><linearGradient xlink:href="#a" y1=".094" x2=".906" y2=".883"/><linearGradient id="d"><stop offset="0" stop-color="#fff"/><stop offset="1" stop-color="#fff" stop-opacity="0"/></linearGradient><linearGradient id="b"><stop offset="0" stop-color="#fb0"/><stop offset="1" stop-color="#ffe600"/></linearGradient><linearGradient id="a"><stop offset="0" stop-color="#fff" stop-opacity="0"/><stop offset=".5" stop-color="#fff" stop-opacity=".15"/><stop offset="1" stop-color="#fff" stop-opacity="0"/></linearGradient><linearGradient xlink:href="#a" x1="1.167" y1=".031" x2="-.069" y2=".93"/><linearGradient xlink:href="#a" x1=".91" y1=".102" x2=".218" y2=".938"/><linearGradient xlink:href="#a" x1="1.017" y1=".188" x2="-.367" y2=".906"/><linearGradient xlink:href="#b" x1=".92" y1=".789" x2="-.556" y2="-.336"/><linearGradient xlink:href="#a" x1=".145" y1=".094" x2=".961" y2="1.016"/><linearGradient xlink:href="#a" x1=".4" y1=".078" x2=".9" y2=".93"/><linearGradient id="c"><stop offset="0" stop-color="#000026"/><stop offset=".544" stop-color="#3d001b"/><stop offset="1"/></linearGradient><linearGradient xlink:href="#a" x1=".161" y1=".07" x2=".613" y2=".813"/><linearGradient xlink:href="#a" x1=".152" y1=".047" x2=".843" y2=".844"/><linearGradient xlink:href="#b" x1=".881" y1=".914" x2="-.022" y2="-.063"/><linearGradient xlink:href="#a" x1="-.886" y1=".742" x2=".786" y2=".141"/><linearGradient xlink:href="#a" x1=".221" y1=".991" x2=".63" y2=".634"/><linearGradient xlink:href="#a" id="f" x1="-1.422" y1=".883" x2=".734" y2="-.078"/><linearGradient xlink:href="#a" id="g" x1="-1.047" y1=".906" x2=".766" y2=".063"/><linearGradient xlink:href="#c" x1=".483" y1=".047" x2=".483" y2="1.008"/><radialGradient xlink:href="#d" id="e" cx=".469" cy=".539" r=".463" fx=".469" fy=".539"/></defs><path d="M1170.016 146.178c0 73.183-60.668 132.578-135.42 132.578-74.753 0-135.421-59.395-135.421-132.578 0-73.184 60.668-132.579 135.42-132.579 74.753 0 135.421 59.395 135.421 132.579z" fill="url(#e)" fill-rule="evenodd"/><g fill-rule="evenodd"><path d="M178.634 119.295s-29.031-47.903-34.715-49.324c-.947 0-2.759-.385-3.232 1.51 0 5.21 33.21 52.077 36.526 54.446 2.842-.474 1.895-3.316 1.421-6.632z" fill="#0c0c0c" stroke="#000" stroke-width="1pt"/><path d="M146.194 71.528s-5.318-10.523-12.87-13.941c-9.04-4.63-17.33-2.742-23.258 1.414-2.404 2.69-8.554 6.118-5.57 10.62 1.23 1.83 3.242 2.558 5.543 1.66 2.702-2.09 8.185-16.374 20.985-7.73 5.832 3.461 6.376 6.518 9.326 9.01-.453 1.346 4.354-4.033 5.844-1.033z" stroke="#000" stroke-width="1pt"/><path d="M23.21 120.175S52.24 72.272 57.924 70.851c.947 0 2.758-.385 3.232 1.51 0 5.21-33.211 52.077-36.527 54.446-2.842-.474-1.894-3.316-1.42-6.632z" fill="#0c0c0c" stroke="#000" stroke-width="1pt"/><path d="M55.65 72.408s5.318-10.523 12.87-13.941c9.04-4.63 17.33-2.742 23.258 1.414 2.404 2.69 8.554 6.118 5.57 10.62-1.23 1.829-3.242 2.558-5.543 1.66-2.702-2.09-8.186-16.374-20.985-7.73-5.832 3.461-6.376 6.518-9.326 9.01.453 1.346-4.354-4.033-5.844-1.033z" stroke="#000" stroke-width="1pt"/><g><path d="M100.768 114.706c-1.97-.019-3.96.197-5.782.844s-3.66 1.803-4.5 3.844l2.993 2.178c.112-.271 2.138-.97 3.164-1.334 1.025-.365 2.53-.546 4.062-.532 1.533.015 3.11.223 4.313.563 1.202.34 1.978.973 1.875.844l3.906-3.125c-1.192-1.49-2.693-2.047-4.406-2.532-1.714-.484-3.656-.73-5.625-.75z" fill="#0c0c0c" stroke="#000" stroke-width="1.25" stroke-linejoin="round"/><g fill="#040405"><path d="M36.813 108.577c13.36-7.24 29.48-6.757 44.3-5.492 11.354.8 12.347 8.78 11.352 19.142-.05 7.08-2.79 15.038-9.97 17.759-10.29 3.376-21.477 3.158-32.152 2.13-9.37-1.132-16.602-8.825-18.395-17.268-.693-5.095-1.636-12.426 4.865-16.271z" fill="#000" fill-opacity=".8"/><path d="M30.77 119.262c0-4.902-5.518-.336-7.694 1.246-1.089.966-1.641 5.168-.553 6.317.932 1.632 5.438.272 7.422.272 2.016-2.016.589-4.782.825-7.835z" fill="#0c0c0c" stroke="#000" stroke-width="1pt"/><path d="M69.176 100.673c-11.628-.347-23.644.753-34.25 6.5-.021.01-.042.02-.063.032-3.895 2.303-5.77 5.954-6.343 9.406-.574 3.452-.067 6.819.28 9.375.01.052.02.104.032.156 2.013 9.477 9.975 17.975 20.531 19.25h.063c10.807 1.041 22.326 1.303 33.156-2.25l.125-.031c4.247-1.61 7.197-4.821 9-8.469 1.77-3.58 2.478-7.582 2.531-11.375h.032c.007-.076-.007-.143 0-.219.492-5.234.618-10.114-1.25-14.218-1.896-4.165-6.153-6.998-12.407-7.438-3.73-.318-7.561-.603-11.437-.719zm-.094 5c3.73.104 7.445.374 11.125.688h.063c5.1.359 6.996 1.915 8.187 4.531 1.191 2.617 1.328 6.833.844 11.875a2.5 2.5 0 00-.031.219c-.023 3.224-.657 6.656-2.032 9.437-1.37 2.773-3.362 4.886-6.28 6-.01.004-.023-.003-.032 0-9.725 3.167-20.523 3.013-31.031 2-8.17-.987-14.57-7.887-16.157-15.281-.002-.013-.028-.018-.03-.031-.337-2.494-.648-5.266-.25-7.656.401-2.42 1.337-4.343 3.874-5.875 9.434-5.112 20.563-6.219 31.75-5.907z" fill="#0c0c0c" stroke="#000" stroke-width="1.25" stroke-linejoin="round"/></g><g fill="#040405"><path d="M164.582 106.947c-13.36-7.24-29.48-6.757-44.3-5.492-11.354.8-12.347 8.78-11.352 19.142.05 7.08 2.79 15.037 9.97 17.758 10.29 3.376 21.477 3.159 32.152 2.13 9.37-1.132 16.602-8.825 18.395-17.267.692-5.095 1.636-12.427-4.865-16.271z" fill="#000" fill-opacity=".8"/><path d="M170.625 117.632c0-4.903 5.518-.337 7.694 1.245 1.088.967 1.64 5.169.553 6.317-.933 1.633-5.438.272-7.423.272-2.015-2.015-.588-4.782-.824-7.834z" fill="#0c0c0c" stroke="#000" stroke-width="1pt"/><path d="M132.219 99.043c11.627-.347 23.644.753 34.25 6.5l.062.031c3.896 2.304 5.77 5.954 6.344 9.406.573 3.452.066 6.82-.281 9.375-.009.053-.02.105-.031.157-2.013 9.477-9.975 17.974-20.532 19.25h-.062c-10.808 1.041-22.326 1.303-33.156-2.25a2.52 2.52 0 01-.125-.032c-4.247-1.61-7.198-4.82-9-8.468-1.77-3.58-2.479-7.583-2.532-11.375h-.031c-.007-.076.007-.143 0-.22-.492-5.233-.618-10.113 1.25-14.218 1.895-4.164 6.153-6.997 12.406-7.437 3.73-.319 7.562-.603 11.438-.72zm.094 5c-3.73.104-7.445.373-11.125.687h-.063c-5.1.36-6.997 1.915-8.187 4.532-1.191 2.616-1.328 6.833-.844 11.875a2.5 2.5 0 01.031.218c.023 3.225.657 6.657 2.031 9.438 1.37 2.772 3.362 4.885 6.282 6 .008.003.022-.003.03 0 9.726 3.167 20.523 3.012 31.032 2 8.169-.987 14.569-7.888 16.156-15.281.003-.013.029-.019.032-.032.336-2.493.647-5.266.25-7.656-.403-2.42-1.338-4.343-3.875-5.875-9.434-5.112-20.564-6.218-31.75-5.906z" fill="#0c0c0c" stroke="#000" stroke-width="1.25" stroke-linejoin="round"/></g><path d="M-118.415 142.084c-1.658.474-7.342 1.658-11.131 4.737-3.316 3.552-1.895 14.21 2.368 18.473 2.131 3.552 5.684 6.868 10.184 7.105 2.131-.948-6.395-22.262-1.421-30.315z" fill="url(#f)" transform="translate(165.611 -33.137)"/><path d="M-51.155 141.374c-2.132 4.026-3.08 18.473 1.894 24.157 4.737 5.21 7.816 4.262 10.658 4.736 3.789-2.131-4.737-27.71.473-31.025-4.026-1.42-11.604 0-13.025 2.132z" fill="url(#g)" transform="translate(165.611 -33.137)"/></g></g><metadata/></svg>