<svg width="533.333" height="533.333" xmlns="http://www.w3.org/2000/svg" xmlns:xlink="http://www.w3.org/1999/xlink"><defs><linearGradient id="b"><stop offset="0" stop-color="#0163ff" stop-opacity=".101"/><stop offset="1" stop-color="#fff" stop-opacity="0"/></linearGradient><linearGradient id="a"><stop offset="0" stop-color="#b0b0b0"/><stop offset="1" stop-color="#e8e8e9"/></linearGradient><linearGradient xlink:href="#a" id="f" x1="-.038" y1=".938" x2=".192" y2=".144"/><linearGradient xlink:href="#a" id="c" x1="1" y1=".903" x2=".077" y2=".287"/><linearGradient xlink:href="#a" id="d" x1=".465" y1="-.034" x2=".465" y2="1.056"/><linearGradient xlink:href="#a" id="i" x1=".893" y1="-.003" x2=".002" y2=".014"/><linearGradient xlink:href="#a" id="h" x1="-.036" y1=".332" x2="1.119" y2=".432"/><linearGradient xlink:href="#a" id="j" x1=".859" y1=".904" x2=".018" y2=".504"/><linearGradient xlink:href="#a" id="e" x1=".095" y1=".765" x2=".852" y2=".409"/><linearGradient xlink:href="#b" id="g" x1=".14" y1=".051" x2=".98" y2=".969"/></defs><metadata/><g fill-rule="evenodd"><path d="M185.21 64.144l11.218 284.065 54.169-1.063 10.76-289.474L222.31 1.839l-37.1 62.305z" stroke="#000" stroke-width="1.041" transform="matrix(1.02098 .79644 -.86356 .94162 258.185 -174.236)"/><path d="M186.821 62.143l11.789 283.653h25.845L223.32 4.388l-36.5 57.755z" fill="url(#c)" transform="matrix(1.02098 .79644 -.86356 .94162 258.185 -174.236)"/><path d="M194.132 463.612l6.989 22.986 44.618-.46 5.6-21.283-57.207-1.243z" stroke="#000" stroke-width="1.041" transform="matrix(1.02098 .79644 -.86356 .94162 258.185 -174.236)"/><path d="M195.21 465.048l7.254 18.91 41.26.525 7.255-18.91-55.77-.525z" fill="url(#d)" transform="matrix(1.02098 .79644 -.86356 .94162 258.185 -174.236)"/><path d="M197.705 347.222l1.487 27.031-1.602 3-.385 4.385 2.498 1.94.346 7.175-2.116 3.22.097 4.288 2.269 2.065.76 7.584h-.032l-2.598 2.61.192 4.546 2.75 2-.188 6.781-2.31 3.476-.096 3.68 2.75 2 .625 6.344-2.596 2.707-.192 4.77 3.038 1.71.094-.03.031 1.03 15.969.282-15.063 5.875-2.406 3.187v3.97l2.75 2 37.75-14.595 3.594.063.062-1.625 2.66-2.584-.097-4.354-1.673-2.218-.296-8.282 2.794-2.528-.481-4.097-1.712-2.16-.038-6.902 3.065-2.897.384-4.16-2.887-2.6.481-6.398 2.425-3.539v-3.776l-2.406-2.599.51-7.526 2.24-3.224v-3.969l-1.831-2.312-.2-7.688 2.719-3.156v-3.969l-2.375-2.343.281-8.282-51.041.094z" stroke="#000" stroke-width="1.28" transform="matrix(1.02098 .79644 -.86356 .94162 258.185 -174.236)"/><path d="M161.879 310.496L76.463 410.561l42.83 34.693 92.822-94.287-50.236-40.471z" fill="#303030"/><path d="M200.29 383.504l47.763-18.312 2.75-3.185v-3.981l-2.406-2.389-48.451 18.71-2.405 3.185v3.981l2.749 1.99zM203.726 465.112l41.235-15.923 2.749-3.185v-3.981l-2.406-2.389-41.922 16.322-2.405 3.185v3.98l2.749 1.991z" fill="#000090" stroke="#000" stroke-width="1.041" transform="matrix(1.02098 .79644 -.86356 .94162 258.185 -174.236)"/><path d="M170.79 446.963l4.658 26.044 94.915-.771 2.91-23.857-102.483-1.416z" stroke="#000" stroke-width="1.041" transform="matrix(1.02098 .79644 -.86356 .94162 258.185 -174.236)"/><path d="M202.351 448.79l42.953-16.72 2.75-3.184v-3.98l-2.406-2.39-43.64 17.118-2.406 3.185v3.981l2.75 1.99zM201.492 433.265l45.015-17.516 2.75-3.185v-3.98l-2.406-2.39-45.702 17.915-2.406 3.185v3.98l2.75 1.991zM201.32 417.341l45.703-17.914 2.749-3.184v-3.981l-2.406-2.389-46.39 18.312-2.405 3.185v3.981l2.75 1.99zM200.633 400.224l46.733-17.915 2.75-3.184v-3.981l-2.406-2.389-47.42 18.312-2.406 3.185v3.981l2.75 1.99z" fill="#000090" stroke="#000" stroke-width="1.041" transform="matrix(1.02098 .79644 -.86356 .94162 258.185 -174.236)"/><path d="M272.517 449.027l-3.628 22.062-46.172 1.037-1.795-21.882 51.595-1.217z" fill="url(#e)" transform="matrix(1.02098 .79644 -.86356 .94162 258.185 -174.236)"/><path d="M260.274 62.143l-11.788 283.653H222.64l1.133-341.408 36.5 57.755z" fill="url(#f)" transform="matrix(1.02098 .79644 -.86356 .94162 258.185 -174.236)"/><path d="M222.596 4.208l-36.5 57.781 11.79 283.653h49.875L259.55 61.989l-36.5-57.781-.227 68.287-.227-68.287z" fill="url(#g)" transform="matrix(1.02098 .79644 -.86356 .94162 258.185 -174.236)"/><path d="M158.28 346.135l1.532 32.002 62.149-12.814 62.914 10.527.595-31.065-63.056 2.074-64.134-.724z" stroke="#000" stroke-width="1.041" transform="matrix(1.02098 .79644 -.86356 .94162 258.185 -174.236)"/><path d="M284.532 346.86l-.907 27.314-60.989-9.945-.316-17.098 62.212-.272z" fill="url(#h)" transform="matrix(1.02098 .79644 -.86356 .94162 258.185 -174.236)"/><path d="M160.07 347.647l.906 27.315 62.08-10.71-.415-17.13-62.571.525z" fill="url(#i)" transform="matrix(1.02098 .79644 -.86356 .94162 258.185 -174.236)"/><path d="M172.765 448.502l3.628 22.061 47.04 1.62-1.934-21.96-48.734-1.721z" fill="url(#j)" transform="matrix(1.02098 .79644 -.86356 .94162 258.185 -174.236)"/><path d="M480.357 9.374L185.474 327.93l3.83 2.987 291.421-320.75-.368-.792z"/></g></svg>