<svg width="213.333" height="213.333" xmlns="http://www.w3.org/2000/svg"><metadata/><g fill-rule="evenodd"><path d="M7.795 97.974c2.496 3.84 28.858 15.12 36.573 12.78 2.917-2.917 2.647-16.27 4.375-19.687 4.223 13.283-4.838 85.654-5.104 96.978 11.25 7.869 95.169 7.024 114.9 2.34 3.032-4.298-7.291-67.993-6.255-97.13 1.995 2.919 3.134 10.578 3.645 13.853 8.14 2.341 37.725-4.375 39.912-8.02.076-7.293-20.224-63.437-25.328-66.354-5.738-4.943-40.461-16.901-45.4-22.35-1.14-.638-2.04-2.25-2.674-3.17-5.699 2.624-33.791 3.652-39.018-.439-1.263 1.513-1.13 2.479-3.03 3.352-3.645 0-35.826 15.275-46.538 23.912-7.73 9.17-27.4 59.291-26.058 63.935z"/><path d="M83.031 4.594c-5.578 7.87-20.593 10.564-29.864 16.897-9.156 5.603-21.16 8.951-25.501 19.76-8.88 18.034-17.11 35.24-21.885 54.812 3.106 9.337 16.747 10.859 25.065 14.627 2.798.734 8.59 2.37 12.27 1.512 2.965-2.644 3.82-7.78 5.317-16.662 4.079 17.298-5.396 65.862-6.618 93.043 7.618 6.331 22.639 4.251 33.748 5.523 27.842.908 59.962-.499 85.75-1.485-1.165-9.316-2.528-21.276-2.321-31.092-1.803-17.84-4.876-34.961-5.782-52.877-.58-1.203-.41-8.045-.798-11.447 2.468 5.17 4.018 11.28 4.05 12.41 5.424-.953 23.35-3.256 28.275-4.271 5.227-.299 10.083-.95 12.844-3.073-.096-2.48-1.575-7.146-2.59-14.762-6.18-18.75-12.255-37.83-21.991-55.072-9.107-7.773-22.374-9.42-32.973-14.85-9.338-2.638-12.53-7.51-18.929-11.288-11.784 3.273-24.26 4.59-38.067-1.705zm.938 3.861c12.06 3.538 25.288 3.075 37.5.607 8.502 9.039 22.07 10.7 32.919 16.2 11.088 3.22 20.883 11.293 23.477 23.087 6.521 16.226 13.13 34.394 16.894 51.5-11.273 4.968-25.05 5.793-37.384 5.276 1.177-6.226-7.287-21.468-7.2-7.866.06 30.523 7.657 62.47 8.191 92.933-30.244 2.214-63.21 3.206-93.645 1.27-10.507-.562-24.957-2.052-18.643-16.485 2.096-26.908 6.626-54.244 5.043-81.272-5.158-13.112-5.843 10.376-8.027 14.983-11.97-.26-25.133-4.358-35.054-10.773C12.934 78.117 21.953 57.75 31.185 39.6c5.994-10.353 18.834-13.413 28.57-19.381 7.246-4.786 17.82-6.34 24.214-11.764z"/></g></svg>