<svg width="106.667" height="106.667" xmlns="http://www.w3.org/2000/svg"><g stroke="#000" stroke-width="5.847" stroke-linejoin="round" fill-rule="evenodd"><path d="M241.249 100.198c22.751-9.14 131.963-68.223 133.999-84.51 39.699 30.538 109.61 141.85 108.593 160.172-22.395-27.484-123.495-85.842-242.592-75.662z" fill="#005900" transform="matrix(.2131 0 0 .21448 -49.773 1.78)"/><path d="M262.625 229.474c36.646-24.43 143.498-65.578 221.226-55.629-73.29-67.183-188.652-79.755-243.62-73.647 11.197 14.25 30.538 87.541 22.394 129.276z" fill="#d95900" transform="matrix(.2131 0 0 .21448 -49.773 1.78)"/><path d="M375.562 15.321c34.803 16.999 163.67 51.471 216.21 56.018-23.412 16.287-78.737 75.683-110.292 102.15 3.053-21.377-73.312-130.002-105.918-158.168z" fill="#d9c400" transform="matrix(.2131 0 0 .21448 -49.773 1.78)"/><path d="M479.444 174.506c9.161-2.036 85.506-85.506 112.99-102.81C603.63 89 677.572 199.566 697.93 233.158c-57.665-62.681-153.34-64.76-218.487-58.652z" fill="#0000a8" transform="matrix(.2131 0 0 .21448 -49.773 1.78)"/><path d="M367.472 331.267c31.556-54.968 105.497-134.744 114.7-157.118-69.219-7.125-146.928 14.304-219.547 55.336 33.592 30.538 97.721 82.442 104.847 101.782z" fill="#0000a8" transform="matrix(.2131 0 0 .21448 -49.773 1.78)"/><path d="M367.493 331.288c31.556-4.071 84.701-2.937 142.489 23.391 3.053 13.234-5.426-163.907-26.802-180.194-31.556 45.807-101.142 125.552-115.687 156.803z" fill="#d9c400" transform="matrix(.2131 0 0 .21448 -49.773 1.78)"/><path d="M485.551 173.488c74.31 22.395 138.439 122.152 158.797 177.12-20.358-5.09-117.072-6.118-133.359 5.079-2.036-10.18-1.007-134.356-25.438-182.199z" fill="#005900" transform="matrix(.2131 0 0 .21448 -49.773 1.78)"/><path d="M481.48 172.47c23.412 6.108 142.51-18.322 216.818 61.076-13.537 10.935-50.634 87.217-53.95 117.376-14.25-44.788-82.452-158.093-162.868-178.452z" fill="#d95900" transform="matrix(.2131 0 0 .21448 -49.773 1.78)"/><path d="M493.75 168.75c-5.19-4.62-16.593-8.912-22.565-1.221-1.888 9.521 4.524 12.65 11.494 16.848 9.805-.46 13.865-7.962 11.071-15.627z" fill="#3f3f3f" transform="matrix(.2131 0 0 .21448 -49.773 1.78)"/><path d="M478.75 171.25C341.25 415 349.375 416.875 337.5 424.375c-16.875.625-9.375-20-5-28.125-1.25-10-17.5-6.25-17.5 5.625-4.375 28.75 8.125 45.625 29.375 38.75C355.625 439.375 477.5 195 486.875 175c-.625-5-3.75-7.5-8.125-3.75z" fill="#3f3f3f" transform="matrix(.2131 0 0 .21448 -49.773 1.78)"/></g></svg>