<?xml version="1.0" encoding="UTF-8"?>
<!-- Creator: CorelDRAW X6 -->
<svg clip-rule="evenodd" fill-rule="evenodd" image-rendering="optimizeQuality" shape-rendering="geometricPrecision" text-rendering="geometricPrecision" version="1.1" viewBox="0 0 21000 33000" xml:space="preserve" xmlns="http://www.w3.org/2000/svg" xmlns:cc="http://web.resource.org/cc/" xmlns:dc="http://purl.org/dc/elements/1.1/" xmlns:rdf="http://www.w3.org/1999/02/22-rdf-syntax-ns#">
 <defs>
  <style type="text/css">
    .fil0 {fill:black}
    .fil4 {fill:#191919}
    .fil8 {fill:#4A4552}
    .fil7 {fill:#6E6948}
    .fil1 {fill:#8C843A}
    .fil6 {fill:#F27F5E}
    .fil2 {fill:#F2E0B7}
    .fil5 {fill:#FF6600}
    .fil3 {fill:white}
  </style>
 </defs>
 <g id="Layer_x0020_1">
  <g id="_208292408">
   <polygon class="fil0" points="8696 3323 9085 3627 9584 3348 10481 3120 10616 3145 10574 3264 10253 3509 10185 3627 10159 3627 10092 3695 10388 3670 10896 3644 11699 3881 12266 4287 12545 4660 12867 5438 12951 5988 12934 6952 12706 8323 12681 8348 12816 8670 12816 8915 12867 9465 12774 9854 12655 10133 12520 10362 12148 10632 11623 10751 11488 10751 11259 10768 11192 10768 11166 10793 11166 10869 11403 11047 11581 11352 12334 11233 13205 11047 13552 10954 13823 11005 14398 10751 15794 9998 16412 9651 16708 9676 16826 9854 17376 9651 17444 9583 17334 9448 17334 9194 17418 9050 17444 9033 17283 8830 17308 8619 17647 8433 17968 8458 18197 8619 18383 8873 18933 8551 19161 8484 19525 8484 19711 8568 19846 8805 19846 8830 19821 8847 19872 8890 20142 8940 20354 9194 20354 9423 20303 9490 20625 9693 20743 9879 20667 10159 20625 10201 20785 10362 20785 10590 20625 10886 20557 10929 20489 11005 20489 11208 20422 11352 19914 11715 18950 11876 18315 11800 17943 11690 17807 11597 17647 11555 17511 11487 17097 11622 17029 11690 17258 11986 17308 12172 17283 12214 17283 12257 17173 12333 16801 12418 16547 12418 15608 12697 14762 12883 14398 12925 14144 13018 13983 13154 13738 13204 12791 12951 12308 12883 11995 12832 12012 13382 11970 13500 11928 13957 11809 14211 11327 15725 11141 16157 11124 16174 11166 16225 12571 16250 13112 16292 13341 16292 14263 16335 14813 16546 15083 16842 15151 17071 15151 17485 15472 17942 16048 18306 16276 18399 16386 18517 16894 18238 17148 18238 17258 18373 17258 18424 17283 18450 17469 18196 17511 17874 17511 17502 17672 17282 17858 17164 18129 17164 18425 17299 18653 17553 18814 17917 18789 18492 18569 18949 18408 19135 17858 19541 17469 19752 16894 20142 16572 20463 16598 20489 16386 20945 16208 21148 15929 21335 15591 21335 15193 21148 14990 20785 14990 20573 14263 20091 13916 19862 13577 19482 13137 18771 13070 18331 12841 18517 12681 18585 12334 18678 11403 18813 11141 18788 11031 18813 10481 18856 10371 18906 10024 18906 9703 18974 9364 19016 8857 19338 8146 20006 8078 20116 7097 20869 6818 20988 6479 21174 6132 21284 5676 21445 4347 21681 3747 21656 3180 21495 2943 21842 2723 22384 2723 22426 2765 22477 3290 22570 3408 22637 3451 22705 3451 22959 3290 23280 2968 23483 2418 23602 1801 23576 1530 23441 1302 23094 1234 22773 1209 22181 1276 21817 1344 21563 1572 21055 1666 20624 1759 20438 1801 20277 2012 19727 2122 19592 2198 19524 2782 19456 2808 19321 2858 19177 3383 18813 3586 18746 4347 18771 4897 18974 5126 19110 5143 19135 5464 18585 6158 18010 6403 17849 6386 17392 6454 17020 6699 16681 7046 16411 7503 16225 7968 15632 8239 15032 8493 14279 8493 13500 8239 12925 8188 12578 8281 11893 8510 11394 8857 11005 9110 10819 9288 10751 9313 10726 8975 10497 8561 10015 7808 10108 7275 10159 6496 9947 5946 9693 5650 9465 5447 9101 5464 8484 5583 8120 5625 8069 5244 7976 5083 7866 4982 7654 5033 7274 5143 6995 5489 6792 5693 6741 5786 6766 5853 6766 5811 6149 5786 6123 5693 6284 5650 6326 5608 6326 5532 6242 5557 5869 5676 5599 5532 5599 4897 6030 4525 6352 4297 6555 3958 6995 3797 7274 3747 7274 3586 6741 3679 6081 3916 5463 3933 5345 4322 4676 4525 4406 4804 4152 5515 3746 5853 3602 6640 3441 7122 3348 7867 3424 7918 3374 7410 2891 7232 2798 7207 2781 7342 2731 8011 2959"/>
   <polygon class="fil1" points="8493 3348 8899 3644 9085 3830 9178 3746 9203 3670 9584 3424 10210 3264 10320 3213 10413 3213 9821 3805 9821 3856 9863 3907 10295 3746 10989 3763 11674 3991 12266 4499 12630 5226 12816 6030 12791 7333 12655 8204 12655 8230 12630 8255 11995 7638 11928 7612 11928 7519 11970 7451 12012 7401 12131 7401 12410 7274 12655 6927 12706 6715 12613 6259 12410 6030 12173 5869 11809 5827 11538 5895 11259 6106 11166 6216 11141 6242 11124 5802 10921 5252 10667 4913 10295 4609 9821 4499 9525 4567 8814 4930 8535 5142 8654 4770 8857 4406 8764 4313 8129 4431 7461 4753 7097 5074 6640 5641 6429 6081 6403 6106 6361 5895 6479 5362 6522 5319 6522 5303 6479 5277 6403 5277 5676 6081 5676 6123 5650 6149 5693 5785 5786 5573 5853 5523 5853 5438 5718 5438 5244 5683 4737 6056 4390 6377 3975 6792 3891 6995 3797 7088 3730 6952 3654 6631 3704 6284 3933 5523 4347 4753 4618 4406 5058 4067 5286 3949 5583 3788 5811 3695 6175 3627 6522 3585 6962 3467 7139 3509 7503 3509 7968 3585 8129 3627 8214 3627 8256 3585 8171 3424 7664 2959 7943 3052"/>
   <polygon class="fil2" points="8467 4981 8349 5345 8400 5362 8467 5362 8628 5184 9220 4795 9686 4609 10134 4676 10456 4888 10760 5277 10989 5895 10989 6690 11056 6741 11099 6741 11141 6512 11217 6394 11327 6326 11564 6377 11623 6445 11623 6741 11648 6766 11784 6605 11784 6529 11809 6512 11928 6580 12012 6741 11995 6808 11995 6876 12038 6927 12105 6927 12173 6741 12105 6555 11860 6326 11378 6242 11327 6259 11259 6259 11352 6123 11606 5962 12088 5988 12308 6149 12452 6326 12545 6715 12469 6995 12308 7223 12012 7333 11902 7333 11784 7544 11767 7638 12469 8323 12681 8712 12774 9465 12681 9879 12308 10429 11945 10607 11124 10726 10963 11005 10760 11140 10346 11072 10295 11030 10295 10886 10117 10726 9635 10683 9127 10480 8738 10066 9060 10108 9567 10362 9635 10362 9660 10269 9313 9998 9017 9905 8467 9922 7571 10040 6911 9947 6175 9676 5693 9313 5532 9050 5489 8687 5625 8204 5836 7841 6200 7426 5997 6876 5997 6766 5904 6512 5879 6030 6132 5709 6268 5624 6268 5599 6336 5523 6251 5802 6293 6309 6361 6377 6403 6377 6589 5920 7207 5091 7782 4660 8467 4431 8696 4448"/>
   <polygon class="fil0" points="7824 5319 7867 5506 7867 5523 7808 5523 7410 5049 7385 5023 7410 4981 7621 5074"/>
   <polygon class="fil0" points="9525 5226 9686 5463 9686 5523 9635 5573 9584 5573 9364 5277 9110 5091 8899 5116 9085 5023 9313 5049"/>
   <polygon class="fil0" points="9703 6106 9821 6555 9703 6902 9407 7088 9060 7130 8764 7037 8535 6715 8535 6394 8628 6081 8831 5827 9043 5734 9423 5802"/>
   <polygon class="fil0" points="7918 6081 8011 6326 8011 6555 8188 6690 8256 6792 8146 6792 7943 6673 7571 6690 7300 6834 7004 7130 7046 7316 7300 7519 7968 7654 8510 7612 8975 7544 9821 7654 10185 7841 10388 8120 10413 8323 10802 8687 11403 8991 11606 9194 11606 9583 11403 9761 10963 9973 10253 10040 9863 9973 9500 9786 9339 9583 9178 9237 8831 9008 7985 8847 7342 8754 7097 8670 6885 8509 6818 8365 6843 8204 6911 8069 7165 7883 7647 7722 7097 7494 6936 7223 7046 6952 6911 6792 6843 6555 6860 6242 6962 6005 7139 5844 7275 5785 7664 5802"/>
   <polygon class="fil3" points="9525 5988 9660 6284 9660 6741 9584 6876 9339 7011 8950 7011 8814 6952 8628 6673 8628 6631 8814 6673 8899 6648 8975 6529 8924 6242 8738 6106 8721 6106 8831 5920 8992 5802 9339 5844"/>
   <polygon class="fil3" points="7808 6123 7892 6419 7867 6512 7867 6580 7571 6631 7275 6766 7122 6902 7004 6766 7139 6766 7258 6580 7232 6326 7122 6191 7072 6149 6936 6165 7097 5920 7300 5827 7621 5895"/>
   <polygon class="fil3" points="8764 6377 8671 6377 8654 6352 8696 6242 8764 6242"/>
   <polygon class="fil3" points="7021 6470 6911 6419 6936 6284 6978 6259 7021 6377"/>
   <polygon class="fil2" points="5929 6969 5532 7172 5422 7274 5422 7333 5354 7384 5354 7722 5422 7798 5464 7798 5489 7773 5447 7587 5489 7494 5489 7519 5515 7544 5583 7544 5650 7477 5608 7401 5608 7333 5676 7274 5786 7333 5853 7248 5853 7172 5972 7172 6090 7401 5693 7934 5650 7976 5303 7908 5168 7815 5058 7561 5168 7062 5464 6834 5608 6808 5853 6851"/>
   <polygon class="fil0" points="8400 7248 8374 7333 8281 7384 8146 7358 8104 7291 8104 7198 8171 7130 8332 7155"/>
   <polygon class="fil0" points="10456 7274 10413 7316 10295 7291 10253 7248 10371 7172 10481 7223"/>
   <polygon class="fil0" points="9821 7333 9703 7384 9610 7384 9542 7316 9525 7316 9525 7274 9660 7198 9821 7223"/>
   <polygon class="fil0" points="6818 7587 6699 7654 6682 7638 6615 7638 6615 7561 6801 7451 6818 7477"/>
   <polygon class="fil0" points="10853 7519 10853 7587 10760 7654 10599 7654 10549 7612 10549 7561 10709 7477 10828 7494"/>
   <polygon class="fil3" points="9474 7705 9449 8526 8814 8551 8738 8526 8696 8484 8671 7748 8696 7722 8696 7654 8975 7638 9110 7680"/>
   <polygon class="fil3" points="8256 8594 7850 8687 7808 8619 7757 8416 7867 7748 8307 7748 8417 7705 8510 7722 8561 7680 8561 8551"/>
   <polygon class="fil4" points="10253 8094 10295 8365 10735 8780 11327 9076 11462 9211 11513 9397 11488 9558 11259 9761 10921 9905 10320 9947 9889 9854 9635 9744 9474 9533 9339 9211 9017 8966 8535 8847 8078 8754 8417 8670 8721 8670 9584 8644 9584 7773 9610 7705 10134 7959"/>
   <polygon class="fil4" points="7647 8433 7706 8729 7139 8594 6962 8433 6911 8391 6911 8187 7165 7934 7571 7815 7731 7748 7731 7959"/>
   <polygon class="fil0" points="6361 8120 6293 8187 6200 8187 6200 8094 6268 8027 6386 8044"/>
   <polygon class="fil2" points="18247 8873 18340 9194 18357 9211 18450 9050 18425 8991 18493 8873 19093 8551 19415 8551 19576 8644 19686 8780 19686 8873 19229 8991 18975 8991 18865 9076 18814 9127 18814 9262 18950 9465 19051 9465 19110 9533 18975 9533 18840 9448 18747 9287 18772 9050 19026 8873 19068 8873 19093 8847 19051 8805 18789 8940 18628 9127 18628 9355 18730 9516 18890 9651 18679 9744 18315 9786 18264 9533 18315 9465 18264 9262 18019 9050 17672 8940 17579 8966 17469 8915 17351 8729 17351 8670 17672 8484 17968 8568"/>
   <polygon class="fil2" points="20219 9194 20261 9355 20168 9558 19872 9854 19872 9879 19982 9879 20303 9600 20506 9693 20625 9905 20557 10176 20236 10480 19872 10683 19939 10751 20532 10336 20582 10294 20692 10429 20650 10683 20532 10869 20075 11208 19897 11275 19872 11301 19872 11326 19914 11368 20422 11089 20329 11326 19872 11639 19525 11732 18814 11775 18264 11690 17554 11394 17012 11597 16868 11140 16911 10793 16936 10726 16936 10683 17486 10429 17579 10294 17672 9837 17672 9693 17579 9583 17672 9558 17714 9490 17740 9372 17740 9313 17511 9169 17393 9194 17393 9152 17554 9033 17858 9101 18036 9194 18180 9372 18129 9600 18197 9744 18180 9761 18180 9812 18247 9879 18840 9786 18975 9719 19068 9744 19110 9676 19390 9490 19499 9330 19686 9211 19686 9194 19499 9194 19229 9465 19110 9330 19136 9152 19390 9008 19525 8966 19736 8940 20007 8966"/>
   <polygon class="fil0" points="10896 9033 11056 9194 11056 9355 10938 9626 10777 9719 10295 9786 10066 9744 9863 9516 9846 9262 9846 9194 10024 9008 10117 8991 10439 9033"/>
   <polygon class="fil5" points="10439 9152 10709 9076 10828 9076 10938 9211 10896 9516 10802 9600 10371 9719 10066 9651 9906 9448 9931 9194 10066 9050 10371 9076"/>
   <polygon class="fil3" points="19026 9127 19000 9372 18907 9237 18907 9152 19026 9050 19093 9050"/>
   <polygon class="fil3" points="17672 9355 17672 9448 17554 9516 17486 9490 17393 9355 17444 9262 17621 9313"/>
   <polygon class="fil2" points="17554 9812 17444 10336 17071 10548 17029 10548 17055 10480 17055 10404 16775 10066 16801 9947 17393 9719 17444 9676 17486 9676"/>
   <polygon class="fil6" points="16640 9761 16665 10176 16775 10336 16868 10429 16750 10362 16530 10387 15887 10607 14829 11047 14051 11301 13713 11487 13620 11597 13501 11487 13112 11462 12977 11529 12173 11555 11327 11597 10853 11639 10828 11665 10777 11665 10642 11462 10295 11233 10024 11140 9686 11191 9567 11250 9525 11301 9525 11326 9542 11352 9796 11250 10134 11326 10413 11487 10599 11690 10599 11851 10549 11935 10574 12011 10616 12037 10692 12037 10828 11758 11564 11732 12063 11732 12816 11665 12977 11639 13070 11597 13417 11597 13484 11665 13501 11961 13577 12037 13645 12037 13662 11715 13780 11555 14127 11368 14872 11140 16251 10565 16640 10480 16708 10497 16801 10590 16708 11030 16851 11622 17148 12079 17122 12257 16386 12401 15083 12764 14491 12832 14026 12967 13941 13061 13662 13061 13070 12883 11809 12697 10963 12722 10456 12807 10295 12883 10159 12883 9956 12993 9728 13272 9567 13610 9567 13661 9584 13678 9686 13593 9770 13433 10066 13154 10295 13044 10117 13407 10117 13450 10159 13500 10549 13044 10870 12857 11877 12832 11928 13154 11835 13864 11031 16174 10870 16318 10320 16521 9407 16614 8738 16546 7621 16199 7985 15725 8214 15353 8239 15243 8332 15082 8374 14871 8493 14533 8603 14050 8603 13839 8721 14025 8789 14397 8789 14600 8857 14668 8899 14668 8992 14346 8950 14025 8814 13678 8374 12832 8307 12536 8400 11825 8535 11487 8831 11072 9110 10886 9407 10768 9474 10768 9821 10844 10117 10886 10185 11115 10456 11233 10667 11275 10853 11208 11006 11140 11124 10979 11403 11275 11488 11394 11538 11436 11742 11411 12334 11326 13205 11140 13620 11072 13890 11191 14051 11275 14102 11233 13983 11047 14610 10726 16048 9947 16276 9786 16505 9719 16615 9761"/>
   <polygon class="fil7" points="8577 16639 9407 16749 10185 16681 10709 16521 10963 16385 11056 16385 11217 16292 11860 16318 12038 16360 12841 16385 13738 16411 14127 16436 14720 16614 14948 16868 14990 17164 14948 17502 14948 17849 14990 18035 15058 18170 15134 18238 15193 18103 15151 17807 15151 17714 15405 18052 15929 18399 16090 18450 16225 18517 16141 19219 15845 19752 15244 20277 14973 20412 14398 20023 13848 19566 13273 18695 13231 18145 13231 17764 13163 17688 13070 17739 13044 18213 12748 18467 12359 18585 11767 18678 10616 18746 10388 18813 10066 18813 9703 18906 9525 18932 9500 18949 9660 18771 10532 18170 10616 18103 10692 18035 10692 18010 10616 17984 10278 18145 9288 18839 8882 19160 8078 19913 7545 20345 7300 20573 6699 20971 5532 21377 4322 21563 3891 21563 3248 21402 2926 20827 2833 20489 2858 19566 2901 19245 3129 19042 3518 18839 4119 18856 4686 19016 5007 19219 5261 19482 5329 19456 5329 19321 5286 19219 5354 18906 5557 18585 5743 18450 5836 18306 6158 18077 6268 18052 6403 17942 6657 18306 6725 18373 6801 18373 6818 18306 6725 18077 6539 17807 6496 17460 6564 17003 6911 16571 7300 16335 7410 16292 8281 16521"/>
   <polygon class="fil8" points="18408 17460 18628 17807 18704 18289 18628 18585 18340 19084 17875 19431 16851 20049 16708 20167 16826 19888 16936 19778 16936 19752 16894 19702 16640 19981 16369 20692 16208 20945 15904 21216 15472 21174 15269 21013 15109 20692 15109 20505 15083 20489 15219 20370 15354 20328 15980 19752 16276 19245 16344 19016 16386 18610 16547 18467 16894 18306 17055 18306 17122 18467 17308 18627 17334 18627 17621 18128 17672 17824 17604 17604 17647 17417 17765 17257 17901 17206 18197 17282"/>
   <polygon class="fil8" points="2723 19592 2723 19803 2698 20548 2884 21148 3087 21445 2698 22206 2605 22544 2376 22637 2308 22637 2080 22451 1936 22451 1894 22502 2215 22747 2520 22705 2723 22587 3154 22637 3290 22730 3366 22798 3315 23069 2968 23373 2444 23483 1759 23441 1530 23280 1369 22984 1302 22705 1302 22206 1369 21766 1691 20945 1691 20827 1936 20091 2012 19846 2173 19642 2444 19541 2672 19592"/>
  </g>
 </g>
<metadata><rdf:RDF><cc:Work><dc:format>image/svg+xml</dc:format><dc:type rdf:resource="http://purl.org/dc/dcmitype/StillImage"/><cc:license rdf:resource="http://creativecommons.org/licenses/publicdomain/"/><dc:publisher><cc:Agent rdf:about="http://openclipart.org/"><dc:title>Openclipart</dc:title></cc:Agent></dc:publisher><dc:title>kid 3</dc:title><dc:date>2012-08-31T10:00:55</dc:date><dc:description/><dc:source>https://openclipart.org/detail/171990/kid-3-by-andinuryadin-171990</dc:source><dc:creator><cc:Agent><dc:title>andinuryadin</dc:title></cc:Agent></dc:creator><dc:subject><rdf:Bag><rdf:li>kid</rdf:li></rdf:Bag></dc:subject></cc:Work><cc:License rdf:about="http://creativecommons.org/licenses/publicdomain/"><cc:permits rdf:resource="http://creativecommons.org/ns#Reproduction"/><cc:permits rdf:resource="http://creativecommons.org/ns#Distribution"/><cc:permits rdf:resource="http://creativecommons.org/ns#DerivativeWorks"/></cc:License></rdf:RDF></metadata></svg>
