<?xml version="1.0" encoding="UTF-8"?>
<!-- Created with Inkscape (http://www.inkscape.org/) -->
<svg id="svg3876" version="1.1" viewBox="0 0 962.15 1092.2" xmlns="http://www.w3.org/2000/svg" xmlns:cc="http://creativecommons.org/ns#" xmlns:dc="http://purl.org/dc/elements/1.1/" xmlns:rdf="http://www.w3.org/1999/02/22-rdf-syntax-ns#" xmlns:xlink="http://www.w3.org/1999/xlink">
 <defs id="defs67">
  <linearGradient id="linearGradient5646" x1="574.79" x2="576.55" y1="599.03" y2="761.24" gradientUnits="userSpaceOnUse">
   <stop id="stop5678" stop-color="#5c5b59" offset="0"/>
   <stop id="stop5680" stop-color="#b0b0ad" offset=".25132"/>
   <stop id="stop5682" stop-color="#dddddb" offset=".83281"/>
   <stop id="stop5684" stop-color="#fff" offset="1"/>
  </linearGradient>
  <linearGradient id="linearGradient5674" x1="602.94" x2="615.66" y1="988.29" y2="524.36" gradientUnits="userSpaceOnUse">
   <stop id="stop5688" stop-color="#474645" offset="0"/>
   <stop id="stop5690" stop-color="#d3d3d1" offset=".29932"/>
   <stop id="stop5692" stop-color="#e6e6e6" offset=".70733"/>
   <stop id="stop5694" stop-color="#fff" offset="1"/>
  </linearGradient>
 </defs>
 <g id="layer1" transform="translate(115.49 -8.2591)">
  <g id="g3864" transform="translate(1665.9 130.28)" stroke="#000" stroke-linecap="round" stroke-linejoin="round" stroke-width="8.5">
   <path id="path3860" d="m-1777.1 751.43c22.545-51.084 45.159-101.83 71.429-134.29 10.574-20.304 22.968-37.425 48.571-31.429 15.87-43.986 36.232-65.509 55.714-91.429 23.712-8.3956 46.912-20.896 74.286 0 6.5185-39.064 34.186-66.043 67.143-90 0 0 82.711 26.165 107.14-11.429 23.187-35.678 101.85-105.6 108.57-100l70 47.143c37.346 26.021 51.497 57.84 58.571 91.429 45.752 12.473 59.602 33.617 85.714 51.429-2.2008 64.466 56.926 138.83 24.286 172.86 0 0-35.714 74.286-48.571 84.286s-198.57 30-204.29 30c-5.7143 0-90 0.71428-114.29-5-24.286-5.7143-137.14 8.5714-145.71 8.5714-8.5715 0-181.43 3.5714-181.43 3.5714-34.904-3.32-68.397-7.4468-77.143-25.714z" fill="#969593"/>
   <path id="path3862" d="m-1657 585.47c15.036 9.7263 29.936 19.993 38.386 56.063" fill="none"/>
  </g>
  <path id="path3847" d="m756.89 555.68c59.961 66.664 31.752 127.45 8.5714 188.57l-44.286 92.857 41.428 41.429c44.052-26.768 68.892-7.391 75.714 10 12.071 30.773-3.3824 54.509-35.714 65.714-24.546 4.0521-44.472 0.1838-55.714-18.572-20.406 2.4144-40.614 7.6007-62.857-15.714-34.761 0.0204-69.139 6.9254-105.71-25.714-22.072-25.354-18.988-38.988-10-57.143 6.5838-13.298 26.652-14.006 41.429-17.143 7.2544-80.618 33.431-104.47 57.143-135.71 0 0-109.09 12.869-132.86-10-35.436-34.101-3.0531-131.61 48.571-128.57 56.352-14.099 114.13-13.941 174.29 10z" fill="#fdd192" stroke="#000" stroke-width="8.5"/>
  <g id="g3818" transform="translate(25.901 -155.44)" stroke="#000" stroke-linecap="round" stroke-linejoin="round" stroke-width="8.5">
   <path id="path3037" d="m87.665 822.12c9.678 32.733 39.549 60.807 73.741 87.883 23.037 27.97 54.621 50.461 42.426 101.02l-71.73-11.09c-23.33-2.68-48.506-14.08-63.638 22.19-4.0356 11.334 0.77315 19.721 8.0812 27.274 0.5566 21.019 8.1558 29.362 18.183 33.335 5.977 17.607 18.974 27.024 36.365 31.315 11.794 16.245 23.926 32.196 63.64 24.244 19.593-8.8758 35.934-20.19 40.406-40.406 20.541-12.894 53.191-19.376 106.07-15.152 24.448-7.8935 27.232-27.452 27.274-48.487-15.892-43.661-33.783-43.344-51.518-46.467-17.081-41.289-28.928-86.317-39.396-132.33-11.26-40.582-37.364-68.727-83.843-79.802-76.514-6.5602-109.54 10.178-106.07 46.467z" fill="#fcd195"/>
   <path id="path3808" d="m76.429 1048.6c7.89-20.4 22.347-28.7 43.571-24.3" fill="none"/>
   <path id="path3810" d="m94.286 1083.6c6.5164-39.365 25.324-39.807 42.857-44.286" fill="none"/>
   <path id="path3812" d="m132.14 1115c-7.4994-38.017 3.7112-62.205 40-67.857" fill="none"/>
   <path id="path3814" d="m259.29 1022.1c17.284 10.092 21.474 0.5436 27.857-5.7143" fill="none"/>
   <path id="path3816" d="m302.14 988.57h17.143" fill="none"/>
  </g>
  <path id="path3788" d="m49.923 276.16c-2.0145-26.803 24.473-56.457 48.487-85.863h-54.548c41.698-20.558 69.179-45.855 94.954-71.721 25.805-32.997 49.082-79.898 79.802-85.863 20.569-4.8895 40.686-7.0642 58.589 4.0406 6.7718-11.863 15.635-22.966 51.518-24.244 43.529 5.3459 72.77 37.199 111.12 48.487l-33.335 4.0406c17.795 18.12 35.527 36.222 71.721 59.599h-20.203c27.67 26.07 58.49 51.566 57.579 82.833l-16.162-5.0508c22.346 44.302 27.47 91.735 20.203 141.42-15.256 50.222-52.57 92.11-187.89 96.975-135.52-5.8951-170.25-35.049-203.04-64.65-29.365-27.622-38.839-71.156-41.416-120.21z" fill="#c27d04" stroke="#000" stroke-width="8.5"/>
  <path id="path3828" d="m57.344 670.3c16.266-57.501 54.894-90.155 94.954-121.22l81.822-140.41 219.2-51.518s85.088 114.3 125.26 177.3c31.919 50.052 91.924 161.1 91.924 161.1s-72.289-8.2294-147.41-5.6128c-39.473 1.375-126.59 25.172-149.07 20.765-42.051-8.2444-54.563-36.522-96.975-40.911-64.043-6.628-135.87 0.50509-135.87 0.50509 2.0319-15.808 8.8245-24.476 16.162-32.325-40.107-0.51104-71.983 12.695-100.01 32.325z" fill="#a17f01" stroke="#000" stroke-width="8.5"/>
  <path id="path3841" d="m216.76 693.57c3.9283 20.951 14.375 37.557 42.426 42.426 57.82-57.595 101.56-117.54 143.44-177.79-4.9073-18.471-21.432-27.26-42.426-32.325-44.1 43.517-91.271 97.267-143.44 167.69z" fill="#683c10" stroke="#000" stroke-linecap="round" stroke-linejoin="round" stroke-width="8.5"/>
  <g id="g3824" transform="translate(231.62 33.135)" stroke="#000" stroke-width="8.5">
   <path id="path3820" d="m396.99 484.92c6.0985 2.2869-0.76694-295.59-18.183-304.06-31.159-15.138-63.341 3.6212-57.579 11.112 24.144 96.052 32.909 183.32 38.386 268.7 5.9607 14.579 20.75 20.329 37.376 24.244z" fill="#dededc"/>
   <path id="path3822" d="m320.36 189.64c23.168 7.111 43.371 6.4378 58.929-6.4286" fill="none"/>
  </g>
  <g id="g3811" transform="translate(-11.241 -4.0078)" stroke="#000" stroke-width="8.5">
   <path id="path3809" transform="translate(344.86 9.8564)" d="m310.71 326.43a38.214 26.429 0 0 1-38.214 26.429 38.214 26.429 0 0 1-38.214-26.429 38.214 26.429 0 0 1 38.214-26.429 38.214 26.429 0 0 1 38.214 26.429z" fill="#f5d29c" stroke-linecap="round" stroke-linejoin="round"/>
   <path id="path3807" transform="translate(355.57 14.142)" d="m295.71 285.36a42.5 28.929 0 0 1-42.5 28.929 42.5 28.929 0 0 1-42.5-28.929 42.5 28.929 0 0 1 42.5-28.929 42.5 28.929 0 0 1 42.5 28.929z" fill="#f5d29c" stroke-linecap="round" stroke-linejoin="round"/>
   <path id="path3805" transform="matrix(1 0 0 .89339 355.57 41.155)" d="m290.71 238.57a26.071 24.286 0 0 1-26.071 24.286 26.071 24.286 0 0 1-26.071-24.286 26.071 24.286 0 0 1 26.071-24.286 26.071 24.286 0 0 1 26.071 24.286z" fill="#f5d29c" stroke-linecap="round" stroke-linejoin="round"/>
   <path id="path3018" d="m495.98 358.65c20.47-4.4956 37.362 25.613 43.437 45.457 6.0807-34.159 6.7805-47.382 4.0406-78.078-16.736-9.9486-26.293-31.008-25.254-49.202 1.4369-25.147 25.854-35.762 46.64-40.406 10.839-2.4218 34.996 5.5875 41.611 14.51 12.047 16.25 12.85 41.046 6.2553 47.038-6.7748 6.1556-23.948 10.731-35.795 5.9594 8.2104 44.296 15.002 80.224 16.04 122.4 0.87364 35.505-3.3037 93.819-14.387 98.209-22.067 8.741-43.972-9.2501-56.323-29.518-18.662-30.623-32.794-61.428-38.386-101.02-1.7424-12.336-0.0467-32.683 12.122-35.355z" fill="#f5d29c"/>
   <path id="path3789" d="m539.15 397.71c-1.0313 28.076-7.0822 45.225-15.714 60" fill="#00698f" stroke-linecap="round"/>
   <path id="path3791" d="m560.57 262c0.84134 21.238 8.0553 32.917 16.429 42.857" fill="#00698f" stroke-linecap="round"/>
   <path id="path3793" d="m557 324.86c-4.543 2.4272-9.2672 3.0427-14.286 0.71429" fill="#00698f" stroke-linecap="round"/>
  </g>
  <ellipse id="path3849" transform="matrix(.99589 .090572 -.090572 .99589 0 0)" cx="574.49" cy="696.99" rx="85" ry="227.14" fill="#dededc" stroke="#000" stroke-linecap="round" stroke-linejoin="round" stroke-width="8.5"/>
  <ellipse id="path3851" transform="matrix(.99612 .08803 -.08803 .99612 0 0)" cx="578.13" cy="678.62" rx="33.69" ry="80.834" fill="url(#linearGradient5646)" stroke="#000" stroke-linecap="round" stroke-linejoin="round" stroke-width="8.262"/>
  <path id="path3853" d="m491.45 971.15c12.556 6.3411 32.724 13.162 54.286 15 46.277-2.8746 81.121 6.9662 108.57 7.8571 49.165-39.289 90.593-97.493 105.71-220-0.8408-95.63-17.822-180.5-64.286-245.71-57.066 5.7604-101.76-13.337-157.86-7.1428 35.003 36.691 64.485 88.685 57.143 222.14-11.172 108.51-28.405 191.64-103.57 227.86z" fill="url(#linearGradient5674)" stroke="#000" stroke-width="8.5"/>
  <g id="g3952" transform="translate(340.19 4.5637)" stroke="#000" stroke-width="8.5">
   <path id="path3954" d="m-130.81 357.64c-47.788-14.822-75.994 14.718-93.439 43.942-21.251 35.599-48.376 83.466-40.911 124.25 5.9257 32.374 36.047 43.173 63.64 61.114 10.561 6.8671 34.945 20.608 55.801 26.402 15.882 4.4123 30.567 1.8819 30.567 1.8819 0.55877 23.776-1.8886 50.078 23.234 75.761 14.749 15.079 42.983 23.458 63.64 19.193 10.767-2.2229 23.648-10.347 25.254-21.213 28.48-13.252 30.658-24.913 28.284-46.467 9.3947-16.334 12.032-37.41-1.0102-44.447-11.418-9.5755-20.819 10.192-28.284 13.637-11.129 5.1364-23.977-1.1198-30.305-11.617-5.7786-9.586-0.97854-22.757 5.4692-31.906 4.7709-6.77 6.6221-11.671 15.08-23.255 1.6043-2.1971-12.136-12.575-25.6-10.499-10.742 1.6567-20.959 13.909-34.85 9.0914-14.185-25.401-35.661-47.807-46.972-61.114 14.475-17.072 40.872-47.823 36.365-74.246-3.6838-21.598-25.035-44.017-45.962-50.508z" fill="#f9d394"/>
   <path id="path3927" d="m-37.112 646.66c21.413 12.665 41.181 5.599 60.714-4.2857" fill="none" stroke-linecap="round"/>
   <path id="path3929" d="m-53.54 679.51c5.3448 6.289 15.656 11.254 49.286 10" fill="none" stroke-linecap="round"/>
  </g>
  <g id="g3895" transform="translate(-656.69 41.622)" stroke="#000" stroke-width="8.5">
   <path id="path3842" d="m801.56 208.61c2.2047-45.788 21.122-53.083 37.857-54.286 20.604-1.4805 39.653 17.596 37.143 41.429-2.4498 23.261-12.415 49.325-40.714 52.857-23.522 2.9359-35.348-17.945-34.286-40z" fill="#fed097"/>
   <path id="path3844" d="m824.58 217.77c-0.21317-6.7283 4.8442-19.011 16.097-18.24 5.2839 0.36213 9.8498 6.9611 9.1557 15.671-0.68739 8.6253-4.2103 17.934-14.033 17.395-8.0512-0.44141-10.91-5.0768-11.219-14.827z" fill="none"/>
   <path id="path3886" d="m824.28 181.88c10.025-7.2166 22.336-11.767 40.406-9.5964" fill="none" stroke-linecap="round" stroke-linejoin="round"/>
  </g>
  <g id="g3890" transform="translate(-656.69 41.622)" stroke="#000" stroke-width="8.5">
   <path id="path3846" d="m1078.3 114.34c18.237 0.20672 39.903 14.895 42.857 47.857 2.4235 27.043-18.259 38.345-37.143 39.286-25.503 1.271-47.732-16.013-49.286-34.286-2.1627-25.429 11.663-53.219 43.571-52.857z" fill="#fecf99"/>
   <path id="path3866" d="m1058.2 167.9c-0.2018-10.946 8.5864-18.772 19.698-19.193 8.0407-0.30444 19.993 7.4061 20.203 22.728 0.1267 9.2345-11.175 17.583-21.718 17.678-8.8917 0.0797-17.91-6.4105-18.183-21.213z" fill="none"/>
   <path id="path3888" d="m1089.4 135.41c-19.645-10.468-26.983-1.7916-34.85 6.0609" fill="none" stroke-linecap="round"/>
  </g>
  <path id="path3772" d="m263.07 241.81c-11.124 5.0319-20.739 12.328-47.477-6.0609-34.191 35.716-52.907 77.804-41.416 132.33l19.193-22.223c7.6242 38.311-6.6712 70.903 58.589 124.25-2.4799-10.714-6.8149-20.499 1.0102-36.366 28.694 39.016 66.043 58.361 124.25 30.305 40.153-24.01 75.79-50.529 91.924-87.883 6.087-18.851 5.3613-39.064-2.0203-60.609l13.132 7.0711c-0.5292-34 0.045-68.4-29.294-91.924-19.986-14.557-44.365-22.085-77.782-15.152-3.1159 30.242-22.185 48.406-49.064 52.877-22.741 3.7827-49.411-4.2353-61.043-26.613z" fill="#c27d04" stroke="#000" stroke-width="8.5"/>
  <path id="path3774" d="m254.98 265.05c-10.417 12.543-16.122 29.425 0 48.487" fill="none" stroke="#000" stroke-linecap="round" stroke-width="8.5"/>
  <path id="path3776" d="m247.91 281.21c25.887 25.124 47.532 37.644 66.616 38.838 48.944 3.0626 58.83-20.812 82.887-48.939" fill="none" stroke="#000" stroke-linecap="round" stroke-width="8.5"/>
  <path id="path3778" d="m249.93 130.7c-31.933 0.42605-50.217 27.967-52.528 53.538-3.8308 42.382 24.998 62.387 47.477 63.64 35.312 1.9677 61.432-37.896 60.609-61.619-1.2866-37.107-32.634-55.864-55.558-55.558z" fill="#fff" stroke="#000" stroke-width="8.5"/>
  <path id="path3780" transform="matrix(1.3333 0 0 1.4 408.53 52.642)" d="m-112.13 91.469a7.5761 7.5761 0 0 1-7.5761 7.5761 7.5761 7.5761 0 0 1-7.5761-7.5761 7.5761 7.5761 0 0 1 7.5761-7.5761 7.5761 7.5761 0 0 1 7.5761 7.5761z"/>
  <path id="path3784" d="m345.9 112.51c30.288-0.83598 53.526 26.883 55.558 53.538 2.4131 31.65-24.074 48.291-44.447 49.497-24.8 1.4692-56.294-23.575-55.558-58.589 0.4331-20.605 17.898-43.714 44.447-44.447z" fill="#fff" stroke="#000" stroke-width="8.5"/>
  <path id="path3786" transform="matrix(1.3333 0 0 1.4 513.58 30.399)" d="m-112.13 91.469a7.5761 7.5761 0 0 1-7.5761 7.5761 7.5761 7.5761 0 0 1-7.5761-7.5761 7.5761 7.5761 0 0 1 7.5761-7.5761 7.5761 7.5761 0 0 1 7.5761 7.5761z"/>
  <path id="path3770" d="m261.4 227.8c0.9588-22.088 15.198-44.677 48.571-48.571 31.133-3.6327 57.314 12.414 62.857 37.143 4.1691 18.597-6.974 47.541-48.571 54.286-25.146 4.077-64.188-12.206-62.857-42.857z" fill="#fdd099" stroke="#000" stroke-width="8.5"/>
  <g id="g3836" transform="translate(193.27 109.09)" stroke="#000">
   <path id="path3830" d="m141.05 378.36c1.1118-35.903 40.946-74.566 76.785-72.154 53.444 3.5974 102.67 70.768 95.792 123.89-4.1101 31.725-43.892 52.233-75.745 49.275-48.992-4.5488-98.355-51.832-96.832-101.01z" fill="#c2cab7" stroke-width="8.5"/>
   <path id="path3832" d="m196.43 465.71c-6.8709-1.463-12.436 0.33883-22.857-10-3.47-65.75 35.03-105.44 86.43-137.14 12.352 4.0765 20.262 12.595 25 24.286-49.32 18.575-82.979 54.852-88.571 122.86z" fill="#ffe27d" stroke-linejoin="round" stroke-width="8.5"/>
   <path id="path3834" d="m166.78 451.68c-5.787-4.4381-11.931-5.3848-16.747-19.315 28.793-59.88 84.593-77.465 148.68-82.068 9.6977 9.2608 13.025 20.429 11.804 32.959-55.725-6.0802-105.27 10.693-143.74 68.424z" fill="#ffe37d" stroke-linejoin="round" stroke-width="8.7587"/>
  </g>
  <g id="g3847" transform="translate(354.14 6.6137)" fill="#ffe17d" stroke="#000" stroke-linejoin="round">
   <path id="path3843" d="m-22.223 541.49c1.9112-6.6751 6.1725-11 12.122-13.637 15.275 17.945 33.893 31.711 54.548 42.931-1.5023 8.1926-7.4367 12.839-15.657 15.657-20.964-11.59-39.428-25.322-51.013-44.952z" stroke-width="8"/>
   <path id="path3845" d="m-26.122 556.18c2.068-5.0626 5.7747-8.084 10.659-9.6391 10.423 15.358 23.821 27.731 39.032 38.284-1.8778 6.2857-6.9221 9.4158-13.6 10.918-15.421-10.87-28.702-23.2-36.091-39.56z" stroke-width="6.301"/>
  </g>
  <path id="path3868" d="m264.62 983.59c7.3402-17.176-1.5573-27.515 28.571-54.286 10.958 0.889 16.245 6.0302 16.429 15 2.1681-6.5466 8.4078-10.185 20-10 12.034 7.7026 15.044 16.694 17.857 25.714 0 0-8.2242 21.708-6.4286 26.428 1.1487 3.0201-31.137-16.141-35.714-17.857-12.055 9.1692-23.47 20.099-40.714 15z" fill="#e5e3e4" stroke="#000" stroke-linecap="round" stroke-linejoin="round" stroke-width="8.5"/>
  <path id="path3870" d="m386.05 1e3c-4.3514-11.152-12.156-21.873-6.4285-34.286 4.1425-17.873 22.04-20.846 42.143-21.429 13.035 3.9882 8.6142 13.795 10.714 21.429 6.0076-6.4459 14.181-4.2296 22.857 0 9.8638-2.6902 21.861 22.124 15.714 27.857-2.4677 2.3018-73.09 10.34-85 6.4286z" fill="#e5e3e4" stroke="#000" stroke-linecap="round" stroke-linejoin="round" stroke-width="8.5"/>
  <path id="path3872" d="m460.34 1069.3c-13.947 1.2279-24.593-29.277-5.7143-37.143l39.286-7.8571 21.429-10c12.771 3.3932 17.895 13.499 21.428 25 1.353 9.9221-10.339 14.626-22.143 19.286 7.0217 8.7861 4.9488 17.191 5.7143 25.714 2.5572 1.0229-23.407 19.156-30 8.5714-6.5611-10.534-29.153-24.926-30-23.571z" fill="#e5e3e4" stroke="#000" stroke-linecap="round" stroke-linejoin="round" stroke-width="8.5"/>
  <path id="path3874" d="m761.05 961.44c-4.2701 4.8802-27.419-7.229-22.143-17.143 11.789-22.153 46.679-35.103 47.143-30 14.455 9.01 21.218 19.729 23.572 31.429 4.0693 7.2462 3.7455 14.981-4.2857 23.571-17.106 2.0681-31.197-1.892-44.286-7.8572z" fill="#e5e3e4" stroke="#000" stroke-linecap="round" stroke-linejoin="round" stroke-width="8.5"/>
 </g>
 <metadata id="metadata65">
  <rdf:RDF>
   <cc:Work>
    <dc:format>image/svg+xml</dc:format>
    <dc:type rdf:resource="http://purl.org/dc/dcmitype/StillImage"/>
    <cc:license rdf:resource="http://creativecommons.org/licenses/publicdomain/"/>
    <dc:publisher>
     <cc:Agent rdf:about="http://openclipart.org/">
      <dc:title>Openclipart</dc:title>
     </cc:Agent>
    </dc:publisher>
    <dc:title/>
    <dc:date>2012-06-13T00:43:39</dc:date>
    <dc:description>A caveman</dc:description>
    <dc:source>https://openclipart.org/detail/170635/caveman-by-developingo-170635</dc:source>
    <dc:creator>
     <cc:Agent>
      <dc:title>developingo</dc:title>
     </cc:Agent>
    </dc:creator>
    <dc:subject>
     <rdf:Bag>
      <rdf:li>caveman</rdf:li>
      <rdf:li>primeval</rdf:li>
      <rdf:li>primitive</rdf:li>
     </rdf:Bag>
    </dc:subject>
   </cc:Work>
   <cc:License rdf:about="http://creativecommons.org/licenses/publicdomain/">
    <cc:permits rdf:resource="http://creativecommons.org/ns#Reproduction"/>
    <cc:permits rdf:resource="http://creativecommons.org/ns#Distribution"/>
    <cc:permits rdf:resource="http://creativecommons.org/ns#DerivativeWorks"/>
   </cc:License>
  </rdf:RDF>
 </metadata>
</svg>
