<?xml version="1.0" encoding="UTF-8"?>
<!-- Created with Inkscape (http://www.inkscape.org/) -->
<svg id="svg2" version="1.0" viewBox="0 0 533.87 484.5" xmlns="http://www.w3.org/2000/svg" xmlns:cc="http://web.resource.org/cc/" xmlns:dc="http://purl.org/dc/elements/1.1/" xmlns:rdf="http://www.w3.org/1999/02/22-rdf-syntax-ns#">
 <g id="layer1" transform="translate(-184.99 -188.84)">
  <path id="path3171" transform="matrix(.78122 -.45104 .45104 .78122 223.44 420.93)" d="m441.59 158.17a14.142 19.092 0 1 1-28.29 0 14.142 19.092 0 1 1 28.29 0z"/>
  <path id="path3173" transform="matrix(.22815 -.49724 .48744 .99013 464.6 413.3)" d="m441.59 158.17a14.142 19.092 0 1 1-28.29 0 14.142 19.092 0 1 1 28.29 0z"/>
  <path id="path3175" d="m614.39 329.05c7.42-0.84 12.09 1.89 12.4 7.34 0.34 5.75-1.23 8.47-10.62 6.98-6.49-1.04-1.84-5.32-17.76-1.24 1.6-4.18 5.75-7.78 9.35-9.16 2.97-1.14 2.54-3.45 6.63-3.92z"/>
  <path id="path3270" d="m592.42 613.17c-50.93-73.92-31.12-231.23-9.2-227.69 21.92 3.53 46.67 57.98 62.94 67.88 16.26 9.9-7.08 51.62-7.08 51.62s23.34-26.87 16.98-45.26c-6.37-18.38 44.54-9.9 50.91-2.82 6.36 7.07 9.9 19.09 9.9 19.09s0-19.09-9.9-28.29c-9.9-9.19-45.96-3.53-54.45-8.48s-38.18-38.89-36.06-50.21c2.12-11.31 36.06-14.85 41.01-6.36 4.95 8.48 4.95 14.85 4.95 14.85s1.41-24.04-4.24-26.16c-5.66-2.13-46.67 0.45-65.06-2.83-9.18-1.64-17.19-5.46-27.02-1.28-11.19 4.76-11.77-35.29-13.28-53.88-2.83-34.65 14.14-57.98 26.16-57.98s31.82 30.41 43.84 26.87 21.21-28.99 35.36-34.65c14.14-5.65 28.99 4.24 28.99 4.24s-25.46-21.21-37.48-9.89c-6.55 6.16-20.5 28.99-31.11 25.45-10.61-3.53-31.82-36.77-46.67-31.11s-16.26-37.48-41.01-43.14c-24.75-5.65-82.73-2.12-113.85 24.75-31.11 26.87-36.06 36.77-28.99 43.84 7.07 7.08 18.39 9.2 18.39 9.2s-11.32-4.95-15.56-12.73 41.15-46.58 67.88-53.03c36.38-8.79 67.85-3.7 73.38-1.13 7.17 3.33-29.54 13.85-31.66 25.17-2.12 11.31 4.95 23.33 4.95 23.33s-4.95-15.55-1.41-21.92c3.53-6.36 25.76-18.19 33.06-15.14 6.9 2.88 14.76 29.25 9.16 40.68-4.79 9.79-7.84 36.04-11.82 38.1-19.72 10.21-61.52-43.84-71.41-50.2-9.9-6.37-32.53 5.65-32.53 5.65s16.97-4.24 24.75 0.71 38.18 36.77 38.89 45.96c0.7 9.19-24.75 23.34-24.75 31.82 0 8.49 16.97 13.44 16.97 13.44s-9.9-7.78-11.31-13.44c-1.42-5.65 24.04-24.75 33.23-24.75s25.97 14.27 31.11 29.7c5.66 16.97-13.38 32.4-12.73 48.09 0.71 16.97 18.1 110.4-12.02 155.56s-25.63 81.82-25.63 81.82c34.47-1.82 66.96 8.28 103.42-5.45z" fill="#502d16" fill-rule="evenodd" stroke="#000" stroke-linejoin="round" stroke-width="4"/>
  <path id="path3178" transform="matrix(.90207 0 0 1.0301 250.18 183.54)" d="m425.75 182.12a3.125 5.375 0 1 1-6.25 0 3.125 5.375 0 1 1 6.25 0z"/>
  <path id="path3180" transform="matrix(.90207 0 0 1.0301 252.54 184.53)" d="m418.5 180.87a3.75 5.375 0 1 1-7.5 0 3.75 5.375 0 1 1 7.5 0z"/>
  <path id="path2385" d="m506.54 416.67c-76.23 13.65-146.16 9.71-214.04 0-6.29 0.04-112.58 103.22-105.13 105.13 71.92 10.57 142.32 11.24 210.89 0l108.28-105.13z" fill="#6b6b00" fill-rule="evenodd" stroke="#000" stroke-linecap="round" stroke-linejoin="round" stroke-width="4"/>
  <path id="path3164" d="m311.42 424.87-96.86 92.88c13.71 49.33 14.55 94.79 13.8 139.77l164.41 7 183.58-32.66c-5.32-36.52-10.44-73.09 14.35-116.78l-182.32-5.22-96.96-84.99z" fill="#999" stroke="#000" stroke-linecap="round" stroke-linejoin="round" stroke-width="4"/>
  <path id="path3378" d="m392.77 664.52c-0.51-50.24-2.37-100.16 15.61-154.66l182.32 5.22c-16.63 45.32-19.67 80.26-14.35 116.78l-183.58 32.66z" fill="#ccc" stroke="#000" stroke-linecap="round" stroke-linejoin="round" stroke-width="4"/>
  <path id="path2383" d="m292.5 416.67c76.22 13.65 146.16 9.71 214.04 0 12.12-3 109.33 99.08 105.13 105.13-17.46 2.56-34.59 6.41-51.54 7.06-7.94 0.31-6.66-1.43-7.3-4.46s-3.33-4.37-4.24-5.35c-1.08-1.15-6.87-6.71-7.75-3.97-0.55 1.73 4.67 8.22 4.16 10.61-0.67 3.16-4.15 5.24-4.54 5.27-46.09 4.33-91.49 3.97-139.68-9.16-9.63-1.71-108.38-105-108.28-105.13z" fill="#a9a900" fill-rule="evenodd" stroke="#000" stroke-linecap="round" stroke-linejoin="round" stroke-width="4"/>
  <path id="path3387" d="m266.5 577.86-15 21c-4.56 22.85-2.12 44.28-0.35 68.03l58.5 3 25.85-7.53c1.72-22.45 3.61-44.9-0.17-67.35l-12.5-17c-4.81-54.51-7.67-90.81-3.86-133.81l-11.64-15.15c2.09-6.68 13.09-3.52 13.09-3.52l2.91-25.87-23.83-8.3-36.47 7.21c5.47 55.76 7.6 118.31 3.47 179.29z" fill="#666" fill-rule="evenodd" stroke="#000" stroke-linecap="round" stroke-linejoin="round" stroke-width="4"/>
  <path id="path3197" d="m299.5 391.36c-0.44 63.14-0.68 126.21 3.5 187.5l6.5 21c3.47 25.49 1.18 46.34 0.15 70.03" fill="none" stroke="#000" stroke-linecap="round" stroke-linejoin="round" stroke-width="4"/>
  <path id="path3190" d="m442.16 654.51c-3.57-23.17-6.51-46.35-6.13-69.52 0 0 4.43-30.35 31.08-27.37 26.82 3 28.81 25.37 28.81 25.37 1.15 21.8-1.24 42.63-3.37 63.78l-50.39 7.74z" fill="#4d4d4d" fill-rule="evenodd" stroke="#000" stroke-linecap="round" stroke-linejoin="round" stroke-width="4"/>
  <path id="path3192" d="m442.27 655.71c-3.71-22.67-6.85-45.51-5.95-69.5 0 0 4.08-31.32 27.37-27.37 23.62 4 25.37 25.37 25.37 25.37 1.74 22.03-0.61 42.69-2.75 63.43l-44.04 8.07z" fill="#502d16" fill-rule="evenodd" stroke="#000" stroke-linecap="round" stroke-linejoin="round" stroke-width="4"/>
  <path id="path3203" d="m512.13 591.91 43.99-5.44s3.49-34.26-23.62-30.6c-27.14 3.66-20.79 34.98-20.37 36.04z" fill="#666" fill-rule="evenodd" stroke="#000" stroke-linejoin="round" stroke-width="4"/>
  <path id="path3205" d="m511.69 589.69 37.46-4.87s3.25-31.62-19.37-28.46c-22.64 3.17-18.43 32.26-18.09 33.33z" fill="#1a1a1a" fill-rule="evenodd" stroke="#000" stroke-linejoin="round" stroke-width="4"/>
  <path id="path3297" d="m526.82 578.51c2.41 2.78 14.44 1.25 15.94-1.07 1.44-2.24 1.32-13.25-8.39-13.03s-10.01 11.27-7.55 14.1z" fill="#999" fill-rule="evenodd"/>
  <path id="path2396" d="m479.74 568.86s0.8 14.77 0.48 23.32c-0.33 8.64-2.52 20.1-2.25 28.75 0.27 8.58 3.13 25.59 3.13 25.59m-12.86 2.03s1.77-22.47 0.98-33.12c-0.53-7.14-3.65-16.36-4-23.5-0.22-4.36 1.06-10.14 1-14.5-0.08-5.51-2.34-16.45-2.34-16.45m-12.69 2.43s2.3 17.82 3.03 24.27c0.84 7.43 2.77 17.27 3 24.75 0.19 6.3-1.64 14.7-1.25 21 0.37 6.03 2.79 16.81 2.79 16.81m-12.47 2.25s1.45-17.86 0.93-26.81c-0.41-7.04-2.74-16.23-3.25-23.25-0.68-9.29-0.23-31.04-0.23-31.04" fill="none" stroke="#000" stroke-linecap="round" stroke-width="2"/>
  <path id="path3272" d="m541.39 364.58c-10.82 3.32-13.92 20.11-8.14 34.64 3.99 10.01 15.91-16.26 15.56-18.38s1.25-18.93-7.42-16.26z" fill="#28170b" fill-rule="evenodd" stroke="#000" stroke-width="4"/>
  <path id="path3193" d="m420.2 588.96s-0.22-2.46 2.77-2.37c2.85 0.08 2.69 2.52 2.69 2.52l-1.4 69.8s0.33 0.53-2.5 0.45c-2.7-0.07-3.04 0.54-3.04 0.54l1.48-70.94z" fill-opacity=".31373"/>
  <path id="rect2396" d="m421.2 588.42s-0.5-1.9 2.46-2.28c2.82-0.37 2.96 1.58 2.96 1.58l7.59 58.35s-0.14-1.95-2.95-1.58c-2.67 0.34-2.46 2.28-2.46 2.28l-7.6-58.35z" fill="#502d16" stroke="#000" stroke-linecap="round" stroke-linejoin="round" stroke-width="2"/>
  <path id="path3169" d="m429.33 644.74c-6.78 5.23-2.6 12.46-2.43 16.21 0.3 6.38-6.72 11.39-6.72 11.39s7.71-1.41 11.78-4.03c3.6-2.31 4.11-6.77 4.11-6.77s1.99 4.38 4.48 5.66c2.48 1.28 7.65-0.11 7.65-0.11s-6.32-1.75-7.6-7.74c-1.29-6 2.89-12.02-4.64-15.09-2.14-0.87-5.32-0.52-6.63 0.48z" fill="#808000" fill-rule="evenodd" stroke="#000" stroke-linejoin="round" stroke-width="2"/>
  <path id="path3198" d="m258.54 399.46 40.96-8.1 26.76 9.32 1.96-15.24-27.99-15.35-42.48 10.7 0.79 18.67zm40.96-8.1 0.73-21.27" fill="#666" fill-rule="evenodd" stroke="#000" stroke-linejoin="round" stroke-width="4"/>
  <path id="path2403" transform="translate(184.99 188.84)" d="m251.53 417.16c-0.02-0.36 11.72-4.02 17.68-3.85 6.13 0.18 13.44 1.45 20.7 0.59 7.44-0.89 14.77-3.54 14.76-2.95 0 0.24-0.36 13.73-0.3 12.54 0.05-1.02-7.37 4.08-18.53 1.32-12.07-2.99-33.74 2.52-33.54 2.66 0.28 0.2-0.75-9.97-0.77-10.31z" fill="#502d16" fill-rule="evenodd" stroke="#000" stroke-linejoin="round" stroke-width="2"/>
  <path id="path3176" transform="matrix(.70655 0 0 .70655 274.37 310.42)" d="m300.07 419.28a5.3243 5.3243 0 1 1-10.65 0 5.3243 5.3243 0 1 1 10.65 0z" fill="#333" stroke="#000" stroke-linecap="round" stroke-linejoin="round" stroke-width="2.8306"/>
 </g>
 <metadata>
  <rdf:RDF>
   <cc:Work>
    <dc:format>image/svg+xml</dc:format>
    <dc:type rdf:resource="http://purl.org/dc/dcmitype/StillImage"/>
    <cc:license rdf:resource="http://creativecommons.org/licenses/publicdomain/"/>
    <dc:publisher>
     <cc:Agent rdf:about="http://openclipart.org/">
      <dc:title>Openclipart</dc:title>
     </cc:Agent>
    </dc:publisher>
    <dc:title>Witch's cottage</dc:title>
    <dc:date>2008-07-11T13:24:45</dc:date>
    <dc:description/>
    <dc:source>https://openclipart.org/detail/17709/witchs-cottage-by-lemmling</dc:source>
    <dc:creator>
     <cc:Agent>
      <dc:title>lemmling</dc:title>
     </cc:Agent>
    </dc:creator>
    <dc:subject>
     <rdf:Bag>
      <rdf:li>cabin</rdf:li>
      <rdf:li>cartoon</rdf:li>
      <rdf:li>colour</rdf:li>
      <rdf:li>cottage</rdf:li>
      <rdf:li>fairytale</rdf:li>
      <rdf:li>house</rdf:li>
      <rdf:li>witchs cottage</rdf:li>
     </rdf:Bag>
    </dc:subject>
   </cc:Work>
   <cc:License rdf:about="http://creativecommons.org/licenses/publicdomain/">
    <cc:permits rdf:resource="http://creativecommons.org/ns#Reproduction"/>
    <cc:permits rdf:resource="http://creativecommons.org/ns#Distribution"/>
    <cc:permits rdf:resource="http://creativecommons.org/ns#DerivativeWorks"/>
   </cc:License>
  </rdf:RDF>
 </metadata>
</svg>
