<?xml version="1.0" encoding="UTF-8"?>
<!-- Creator: CorelDRAW X6 -->
<svg id="svg9706" clip-rule="evenodd" fill-rule="evenodd" image-rendering="optimizeQuality" shape-rendering="geometricPrecision" text-rendering="geometricPrecision" version="1.1" viewBox="0 0 17744 12090" xml:space="preserve" xmlns="http://www.w3.org/2000/svg" xmlns:cc="http://creativecommons.org/ns#" xmlns:dc="http://purl.org/dc/elements/1.1/" xmlns:rdf="http://www.w3.org/1999/02/22-rdf-syntax-ns#">

<defs id="defs9708">
<style id="style9710" type="text/css">
    .fil0 {fill:black}
    .fil7 {fill:#000AB0}
    .fil15 {fill:#474747}
    .fil2 {fill:#595959}
    .fil1 {fill:#878787}
    .fil11 {fill:#A8A8A8}
    .fil5 {fill:#B8B8B8}
    .fil13 {fill:#CFCFCF}
    .fil9 {fill:#CFF0FF}
    .fil4 {fill:#D9D9D9}
    .fil14 {fill:#E0B073}
    .fil6 {fill:#F0C9A1}
    .fil8 {fill:#FFB036}
    .fil3 {fill:#FFFF7D}
    .fil10 {fill:#FFFFB0}
    .fil12 {fill:white}
  </style>
</defs>
<g id="Layer_x0020_1">
<g id="g10441">
<g id="g10502">
<path id="polygon9713" d="m4938 12090-616-92-654-148-672-204-666-253-647-314-586-364-511-407-401-456-185-610 49-605 222-591 364-561 450-524 506-469 505-413 487-327v-61-50l-135-234-136-241-142-258-123-253-117-272-87-258-61-259-19-247 50-43 98-74 56-31-6-62v-55l-7-62v-61l-12-62-6-56-6-55-6-37-272-93-197-110-136-142-80-161-49-191-12-203 6-228 12-241h-37-25l-135-154-136-160-123-160-80-155-25-148 49-129 148-105 278-68 49-117 56-86 61-62 68-43 74-37 92-12 105-6h136l31-56 37-49 37-56 43-49 203 18 167 56 129 86 105 124 80 141 62 167 49 185 50 203 166-92 154-37 130 12 104 74 68 99 31 142-18 166-62 197-111 136-93 123-74 111-49 111-43 111-25 130-24 148-7 185 62 43 68 61 25 31 24 37 13 31 18 31 56-12 55-7 56-12h61l56 148 86 210 111 240 129 247 142 222 154 185 167 117 166 37 13-99 18-80 12-62 19-43 12-55 19-50 18-68 37-74-74-24-105-19-129-37-123-30-130-50-98-49-74-68-25-68 74-61 99-62 98-68 111-68 99-80 92-74 74-74 62-74-167-74-147-61-130-74-99-74-67-99-31-111 12-148 62-179 37-43 43-31 37-24 43-13 37-18 49-6 50-13 68-12 123-278 129-234 136-197 154-160 173-124 222-86 265-55 320-13 222 50 204 80 185 104 172 130 148 148 130 179 111 203 92 234 339 87 401 148 407 191 376 253 296 289 179 333 6 364-191 401-62 12-62 19-55 18-56 19-61 12-56 18-61 19-56 18-37 56-12 62-6 49 12 55 12 44 25 55 31 49 49 68 6 130 7 111v92l11.075 91.075 14.3 97.15-25.375 89.775 13.3 139.15-26.3 162.85-55 104-56 111-55 111-56 111-55 93-74 148-13 49 611 99 616 74 611 43 616 25 611-7 622-12 623-31 635-24 142-580 166-524 198-475 252-419 309-382 382-333 468-296 568-247 178 6 142 7 93 6 80 12h49l43 12 31 13 43 18 6 62 7 80 6 136 12 228 6 351 13 512 12 703 18 943 315 31 246 25 185 18 154 25 130 18 129 19 136 24 179 44 12 55 13 62-62 12-105 31-166 31-204 37-253 37-283 37-321 43-345 49-31 62-37 148-55 197-50 240-68 247-55 247-55 209-44 161-203 240-241 234-289 216-302 197-327 167-321 154-320 123-296 105v37 43l388 105 395 105 394 105 395 111 388 104 395 105 394 105 395 111-6 31v37l-6 31v37l-167 43-351 86-481 111-536 136-555 123-500 111-400 80-229 50-18 36-12 44-709 98-728 62-752 6-758-12-765-43-746-44-734-49-690-31-167 173-252 148-321 105-357 86-377 49-357 37-308 19z"/>
<path id="polygon9715" d="m4883 11979-450-80-407-93-395-111-376-111-376-141-370-142-388-167-395-166 19-93 31-92 24-86 31-87 19-92 30-86 25-87 31-80 55-12h56l55-6h56l678 141 721 124 740 80 746 25 728-62 715-148 666-259 616-382 6-43 19-25 12-12 25-13 31-24 43-19 659-43 660-49 660-68 666-74 653-93 660-98 1332-222 357-93 339-80 315-80 277-68 234-62 185-43 124-30 74-7 18 19 31 25-234 117-228 123-229 117-228 123-234 111-684 333-111 25-80 18-56 13-37 18-43 19-19 18-764-37-820 31-851 93-851 166-838 228-783 302-715 370-604 444v31l6 37 6 31 6 37 43 12 50 12 43 13 49 18 43 13 50 18 49 12 49 19-277 154-272 129-271 87-265 74-284 43-277 25-296 12z" fill="#878787"/>
<path id="polygon9717" d="m11147 11504-500-18-524-6-548-13-549-6-555-25-543-43-530-61-493-74 19-43 18-44 25-43 24-37 759-400 770-333 777-266 802-197 801-135 826-62 839 12 863 93 715 185 536 148 383 104 259 74 148 44 74 30 18 13v18l-327 19-339 43-345 55-339 87-327 111-296 154-253 209-197 266-259 18-246 25-253 18-247 25-253 12-246 19-247 12z" fill="#878787"/>
<path id="polygon9719" d="m13397 11258 185-222 277-167 346-129 388-93 389-61 382-19 339 13 271 49-37 12-55 25-111 25-185 55-309 68-443 105-617 141z" fill="#595959"/>
<path id="polygon9721" d="m7577 11023 99-129 123-111 129-105 155-80 148-80 160-56 160-49 167-37-50 31-117 68-172 98-192 118-203 110-179 99-148 80z"/>
<path id="polygon9723" d="m7959 11023 43-92 87-74 117-80 142-68 142-74 141-55 124-50 111-37-50 50-98 74-130 74-142 80-154 67-135 74-124 62z"/>
<path id="polygon9725" d="m8483 10968v-37-25l136-86 117-62 80-43 62-31 37-24 43-6 37-13h43v25 31l-74 31-74 30-68 37-67 37-74 31-62 37-74 31z"/>
<path id="polygon9727" d="m8890 10968v-37-25l56-31 55-24 62-31 62-19 55-30 62-25 61-25 62-24-37 43-49 49-62 37-68 37-74 25-68 31-67 24z"/>
<path id="polygon9729" d="m1517 10832-44-31-43-24-43-25-37-24v-56l19-74 18-86 31-93 25-117 30-123 31-136 31-135-6-247-6-210-19-185-24-166-50-167-61-166-87-185-104-197-93-105-92-93-99-92-86-80-87-74-61-56-56-43-24-12v-56l6-30v-31l6-19 12-31 31-24 444 197 345 296 241 370 148 425 55 456-18 475-99 469-160 456-37 25z" fill="#81bd58"/>
<path id="polygon9731" d="m1134 10598-394-314-296-290-204-290-111-284-37-314 50-345 117-395 191-450 49-6 50-6 277 271 228 290 173 302 123 321 56 332v352l-68 376-130 407-37 18z" fill="#d9d9d9"/>
<path id="polygon9733" d="m4938 10512-388-37-370-37-370-50-364-49-370-68-363-61-364-62-364-56v-55-49l6-50 7-49v-49l6-43 6-50 6-43 481 86 468 81 451 74 456 55 444 31 462 18 475-6 505-31 241-67 216-68 191-80 185-74 172-93 191-92 198-111 222-118 548-86 561-68 555-61 574-56 561-55 567-50 567-49 567-43 463-86 456-93 450-98 456-111 438-130 444-142 444-160 450-173h37l43 13-19 37-6 43-12 31-6 30-19 25-18 37-25 43-31 62-888 321-918 277-950 228-968 185-974 129-974 99-955 56-925 24-364 278-339 222-333 166-327 130-351 86-364 62-407 43z" fill="#81bd58"/>
<path id="polygon9735" d="m4149 9988-209-37-272-31-314-43-327-50-333-61-290-68-234-80-148-87-43-234-43-209-56-198-55-185-74-185-86-178-99-179-111-179 111 25 191 55 222 68 247 68 240 55 222 37 173 6 104-24 37-167 56-191 68-209 68-204 61-216 62-191 37-166 18-124-104-74-155-74-197-67-209-56-222-55-216-37-191-37-154-13v-61-50l92-67 99-68 98-68 99-56 99-61 104-50 111-43 118-31 123 161 123 160 123 154 130 154 129 154 130 155 135 154 148 166 7 130-13 148-37 148-43 148-49 141-31 148-12 142 18 142h25 31l-68 68-93 92-98 105-93 111-74 105-24 111 30 105 111 92 13 49 12 50 12 49 13 56 43 12 55 12 62 6 68 7 68-7h67 68 68l12 130 25 105 25 74 49 61 56 37 80 25 111 12 141 6 25-43 25-37 18-31 25-30 18-44 19-49 25-62 43-80 142-24 123-25 92-18 87-19 55-18 62-19 55-12h62l6 31 12 37 13 24 24 37 25 31 49 43 56 56 74 80 179-19 185-31 185-30 185-31 178-37 185-31 185-25h185l6 6 19 25-327 210-339 154-358 111-363 74-383 37-376 24h-382z" fill="#b8b8b8"/>
<path id="polygon9737" d="m4149 9599-31-6h-24l-6-142v-111-98l12-80 18-87 37-80 50-99 80-104-13-37-6-31-86 12-55 56-56 74-49 86-74 74-99 68-136 43-184 12 6-142 37-111 55-98 80-74 87-74 111-56 117-55 129-37-12-49-12-56-118 12-104 50-111 68-93 92-99 86-92 87-92 67-87 56 99-265 160-185 204-117 246-62 259-25 271 13 266 37 252 49 31 197 25 161 12 111 19 80v55l6 43v31 43l-93 44-80 30-80 19-74 6-160-12-80-13-81-6-37 111-24 86-19 62-18 56-19 30-12 31-19 31-12 37h-55-56-55z" fill="#b9825e"/>
<path id="polygon9739" d="m5555 9408-19-31-30-68-50-98-49-111-56-123-49-99-37-86-18-50-7-74v-74l-6-67v-68l-6-74-12-136v-62l49-24 56-6 18 148 31 154 37 148 37 154 37 148 49 154 43 160 56 167-37 6z" fill="#000ab0"/>
<path id="polygon9741" d="m5795 9396-74-123-80-179-92-216-68-222-56-228-12-191 37-142 105-62 18 161 37 172 44 173 49 179 43 172 43 179 31 160 12 161h-24z" fill="#ffb036"/>
<path id="polygon9743" d="m5968 9371-86-179-68-178-62-179-37-173-37-179-18-178-19-179v-179l43-12 43-7 44-6 43-6 18 179 31 179 37 172 37 179 37 173 43 179 50 185 55 191h-43l-37 6h-37z" fill="#000ab0"/>
<path id="polygon9745" d="m6227 9322-74-210-56-191-49-185-37-166-37-179-18-179-19-185v-197h43 43l19 154 43 185 49 203 50 222 43 204 37 197 18 173 7 141-31 7z" fill="#ffb036"/>
<path id="polygon9747" d="m6430 9285-80-204-61-191-50-185-31-185-24-191-13-185-6-191 6-191 265-99 309-104 320-105 327-74 308-37 296 37 259 123 216 241-31 326-142 290-234 253-296 216-345 172-351 136-346 92z" fill="#000ab0"/>
<path id="polygon9749" d="m7577 9149v-49-37l419-204 315-277 197-327 74-339-55-333-179-283-321-216-450-99-37-92-6-93v-105l18-98 19-111 25-99 18-92 19-74 178-50 185-12h191l192 31 191 37 197 49 191 56 197 55h487l500 6 493-6 499-6 500-12 499-6 500-7h505l99-579 142-518 172-469 234-407 290-369 364-327 444-302 536-259-12 117v123l-12 117v130l-7 123-6 130-6 123v129l-37 19-37 18v50 49 49 50 49 49 50 49l56 12 61 25-18 179-19 148-12 129-6 130-13 129-6 160-12 192v252h166l136 6h99l86 7 68 6 68 12 74 12 92 25-136 62-185 12-215-6-216-6-216 12-172 74-118 142-43 246 68 74 111 56 129 37 148 18h148 148 136 123l-31 105-24 111-31 111-25 111-24 111-50 222-18 117-980 419-975 327-992 241-993 178-1017 124-1017 98-1036 81z" fill="#b8b8b8"/>
<path id="polygon9751" d="m10647 8311-265-173-92-203 31-198 129-154 167-98 172 18 130 160 61 339-31 56-24 55-37 50-31 49-49 31-50 37-55 18z"/>
<path id="polygon9753" d="m9334 8280-142-80-104-80-74-87-31-86-13-105 19-111 49-117 74-129 228-74 179 37 111 123 62 173-6 178-62 179-117 123z"/>
<path id="polygon9755" d="m11732 8200-191-142-86-142-12-148 61-129 105-105 148-56 160-6 179 68 49 111 25 117-18 105-37 111-74 80-87 74-104 43z"/>
<path id="polygon9757" d="m5037 8138c-101.78-246.82-410.41-300.42-560.84-516.91-286.68-297.11-569.36-648.33-633.12-1068-31.608-107.49 205.45-1064.3 244.01-1041.4 1088.2 268.07 577.56 106 1172.2-230.87-135.3-234.85-207.85 10.676-283.23 138.07-243.36 180.47-562.5 121.54-823.22 13.9-193.42-99.018-360.35-262.28-394.28-484.34-3.7566-272.6 199.97-484.75 413.85-617.53 207.98-48.765 480.99-56.498 597.31-265.22 43.054-212.47-169.31-429.29 43.434-617.68 219.41-184.93 525.35-153.55 790.29-115.25 396.01 57.771 773.92 195.81 1153.6 317.17 518.73 364.02 426.8 276.22 775.22 472.03 193.77-61.319 376.64-117.04 565.87 39.806 195.97 70.782 215.26 318.06 249.73 496.9-11.02 219.43-7.6068 443.84-99.373 648.82-58.892 225.4-180.92 428.97-318.6 613.52-129.31 67.296-250.04 229.92-409.11 154.49-74.316-37.739-240.92 5.4426-215.06-120.19-39.265-162.93-137.03-627.67-55.448-524.05-123.21 191.94-41.564 453.86-128.54 701.62-33.932 103.32-62.361 250.23 43.671 99.971 29.498-225.58 407.31-71.792 338.52 107.68-8.7602 249.36-45.258 558.62-304.13 673.76-727.17 360.48-1361.3 920.78-2162.8 1123.7z" fill="#b9825e"/>
<path id="polygon9759" d="m9266 7984v-93-67l7-56 12-37 12-31 31-18 49-19 74-6-12 68v62l-6 55-6 43-25 31-25 25-49 18z" fill="#cff0ff"/>
<path id="polygon9761" d="m10586 7965-13-61 7-43 6-31 24-12 19-13 43-6h37 62l-31 37-19 43-31 43-18 43h-43z" fill="#cff0ff"/>
<path id="polygon9763" d="m11788 7879-25-31-12-24v-31-49l18-31 31-13 13-6h30l31 6 50 13-13 37-6 43v43 43h-62z" fill="#cff0ff"/>
<path id="polygon9765" d="m6584 7540v-43-43l185-99 173-86 160-68 161-49 154-37h179l185 18 221 56-12 24v31l-191 19-185 24-179 31-166 37-173 37-172 49-173 44z" fill="#000ab0"/>
<path id="polygon9767" d="m4732 6826.1c-71.878-25.993-144.6-49.905-213.28-83.809-46.924-19.742-89.391-48.593-132.48-75.305-33.136-26.059-70.171-47.992-94.687-83.174-26.868-29.42-51.029-60.801-70.067-95.894-27.401-43.32-49.186-90.082-71.231-136.19-11.419-35.208-67.071-265.04-78.49-300.25l127.39-44.233c21.114 54.378 53.275 347.14 88.847 393.86 24.485 44.013 65.174 75.944 104.55 106.14 16.485 11.62 32.97 23.241 49.454 34.861v62c92.018 23.211 183.47 49.628 276.22 69.36 49.797 6.5446 99.585 13.246 149.93 10.64 49.451 2.9723 97.095-13.458 145.42-21.542 55.655-11.587 111.56-22.255 164.8-42.751 75.702-24.455 150.47-51.639 225.63-77.707-47.381 51.668-93.877 105.12-146.95 150.72-49.896 27.458-99.865 55.79-151.85 78.642-59.301 6.5034-118.05 16.299-176.2 29.635-55.266 3.5034-110.57 6.6729-164.71 19.129z"/>
<path id="polygon9769" d="m3736 6880-166-178-204-229-234-265-234-283-222-302-185-278-124-259-43-209 136-161 166-148 185-141 210-124 216-111 216-86 215-55 222-13 43 50 37 43 25 31 25 24 18 37 6 37-178 167-124 160-80 142-18 148 18 142 68 154 105 166 154 185-31 62-49 61-37 19-31 25-37 18-31 12-37 50-18 43-19 37-12 37-13 37v43l-6 49 13 74h30l37 6h37l37 7-18 86-19 92-24 81-13 80-18 74 6 86 12 92 37 111-24 31z" fill="#000ab0"/>
<path id="polygon9771" d="m15185 6560-56-19-49-18-55-13-43-12-13-68-6-61 37-62 43-37 31-37 37-25 31-24 43-25 49-25 68-18h265l278 6 265 12 277 19 271 18 278 37 277 31 284 50-142 67-234 62-315 43-345 37-370 25-351 18-315 13z" fill="#81bd58"/>
<path id="polygon9775" d="m15450 5801v-49-49-49-44h37 56l-19 44-18 147h-31z" fill="#878787"/>
<path id="polygon9777" d="m15740 5801-62-24-49-25v-68-61-68l6-62h-49-50-49-37v-61-62-62-55h49l50 6 55 6 56 6v-105-98-105-99-104-99-99-98l-68-7-62-6-68-12-55-6v-50-49l6-49 6-43 50-13 55-6 56-12 55-6v-142-142l6-142 6-135v-142-136l7-142 6-135h98l80 6 56 6 49 6h25l31 13 18 6 31 18 6 19 6 49 7 99 12 172v272l6 400 6 561 19 746-13 37-6 44-6 43v43l-12 37-6 43-7 43v49h-43-37-43-37-43-37-43z" fill="#a8a8a8"/>
<path id="polygon9779" d="m7694 5771-37-19-18-6-6-25v-24l172-31 117-80 62-130 31-154-6-185-13-179-18-172-6-148-68-19-62-6-61-6h-62l18 74 19 86 18 80 25 93 19 80 24 86 19 80 24 87-43 80-61 74-81 49-80 31h-86l-74-18-62-50-24-74 172-43 105-68 43-105 6-117-30-129-44-123-43-118-18-92 111-93 123-30 117 6 111 49 93 74 74 117 43 130 12 160h-43-43l-19-49-6-50-6-49v-43l-31-6-25-6-6 154 13 166 6 167v166l-37 136-68 117-117 74z"/>
<path id="polygon9781" d="m15475 5136v-62l6-55v-62l6-56v-61l6-56 6-55 7-56h24 31v50 55 56l6 55v56l6 55v55l7 56-56 12z" fill="#878787"/>
<path id="polygon9783" d="m5469 4982-74-31-62-31-62-37-49-37-49-49-37-50-31-55-19-50h-31-18l-62-148-43-129-37-129-12-111-6-124 12-117 25-129 43-136 172-99 179 37 167 130 135 216 81 240 24 265-68 241-160 197v37l12 43h50l68 12v25 31l-44-6-37-6h-37z"/>
<path id="polygon9787" d="m2189 4790-7-43-6-37v-37-31l99-80 80-55 62-43 68-37 55-44 74-37 80-49 111-55 25 18 18 12 6 13 7 24-210 148-148 118-117 80-74 61-56 31-30 19-25 12z" fill="#ffb036"/>
<path id="polygon9789" d="m5296 4716-117-98-80-99-62-99-37-92-31-111-6-105-6-123 12-123h62l61 6 56 12 62 19 55 18 62 19 61 24 81 37-19 62-18 68-19 61-18 68 18 37 25 43h43 43 43l50 6-13 93-12 80-19 62-18 55-43 31-50 25-74 18z" fill="#fff"/>
<path id="polygon9791" d="m2102 4513-18-43-12-25-13-18v-19l-6-37v-49l160-142 179-129 179-130 197-105 191-98 210-74 203-56 222-31v31l6 37v37l13 43-321 161-277 148-253 135-210 123-185 93-135 80-93 49z" fill="#000ab0"/>
<path id="polygon9793" d="m2922 4242-18-37-13-31 136-80 117-56 87-43 80-31 68-37 74-24 86-25 111-31v49 44l-93 37-92 37-93 37-86 37-92 37-93 37-92 37z" fill="#ffb036"/>
<path id="polygon9795" d="m1985 4192-12-37v-37l-6-30v-31l135-111 167-124 191-129 210-123 209-111 210-80 197-50h179l-12 43-7 62-141 62-136 68-142 61-136 68-141 62-136 67-142 62-129 68-105 74-74 62-55 37-37 37-37 12-19 12h-18z" fill="#ffb036"/>
<path id="polygon9797" d="m4439 4205 25-43 24-44 19-43 24-37 44-6h43l-6 56v37l-19 24-12 25-25 12-31 6-43 7z" fill="#fff"/>
<path id="polygon9799" d="m15475 4143v-123l6-111v-124l6-111v-117l12-234 7-111h24 31l-6 111v117l-6 117v117l-6 111v118 117 117h-37z" fill="#878787"/>
<path id="polygon9801" d="m8107 4014-24-25-44-6-37-6h-55l-74-7h-92v-30-25l-259-123-253-124-253-135-247-130-259-135-246-130-259-129-247-105 13-62 12-55 12-56 19-49 49 6 56 12 49 13 55 12-18 37-12 37-19 43-6 43 37-24 25-19 6-18 18-19 13-24 18-31 56 6 43 6 31 6 24 13 25 12 25 25-44 18-18 25-12 6-7 18-6 25v37l31-31 37-25 37-24 37-19 160 43 247 99 296 136 314 172 296 179 265 185 191 179 99 160h-62z" fill="#cfcfcf"/>
<path id="polygon9803" d="m1899 3915-12-56v-55l-7-49v-50l130-123 160-117 179-123 191-111 191-105 191-87 179-61 173-31 12 49 19 50 18 49 19 49-148 87-173 111-203 117-210 123-216 111-191 99-173 74z" fill="#000ab0"/>
<path id="polygon9805" d="m5413 3896-55-24-50-19-49-24-49-19-56-25-43-18-49-19-44-18-12-43-6-37 80-6h62l49 6 49 18 37 19 50 37 61 43 81 68-31 31z" fill="#a46b45"/>
<path id="polygon9807" d="m8249 3866-111-99-99-86-98-81-93-73-104-74-99-62-111-62-105-61v-31-25l-401-210-376-160-357-123-339-86-358-62-364-37-388-25h-426l-12 31-6 31-6 18v25l-13 19-12 18-74-37-61-25-62-30-49-25-56-37-43-31-56-43-43-37-6-123v-99l6-80 25-56 31-55 55-31 80-31 118-18v37 49 37 49l49-12 55-12 6-68 13-62 12-55 19-56 6-61 12-56 12-62 19-55h37l37 12 37 6 43 13-18 61-7 68-12 31-6 31-6 37v37l31 18 30 13h19 37 43 62l55 111 93 74 123 37 142 24h142l148-6h135l123 13 13-50 18-43 19-37 18-37h68 56l37-12 30-13 13-30 6-37 6-50 12-68h56l43 7h31 31l31-13 30-24-37-118-30-123-44-117-49-99-74-80-86-43h-111l-123 62-50 111-31 86-37 55-30 44-50 18-61 6-87-6-111-6-18-31-13-25-12-30-6-31-12-49-7-56-12-86-12-105h-56l-55 12-74 19-68 24-74 13-55 18-50 13-18 6 68-154 123-118 166-86 198-49 203-37h210l191 12 172 37 253 148 204 148 148 142 117 160 74 173 55 209 43 247 44 302 37-12 37-13v-55-56-55l6-55v-56-55-56l6-49 166 24 167 44 160 49 160 62 155 67 160 80 154 87 166 98 62 56 49 43 37 25 37 24 37 25 37 19v24 31h31 37v31 31h25 31l117 228 80 209 18 173-24 154-87 123-135 105-191 87z" fill="#000ab0"/>
<path id="polygon9809" d="m4180 3434-43-18-25-13-18-18-13-6-12-25-6-25 111-18 98-13 81-12h80 80 105l129 6 167 19-74 43-87 37-98 18-93 13h-105l-98 6h-99z" fill="#474747"/>
<path id="polygon9811" d="m2102 3366-18-49-12-43-19-50-12-43 265-135 203-99 148-80 111-43 68-31 55-19 44-6h43l12 31 12 37 13 37 12 43-290 142-215 111-161 74-105 62-74 30-43 19-24 6z" fill="#fff"/>
<path id="polygon9813" d="m2072 3021-25-25-19-18-24-13-31-12-49-25-62-18-93-31-111-31-234-296-111-259-12-234 92-203 161-179 234-142 284-117 326-74 25-49 31-50-43-12-44-6-37-6h-37l-80-179-74-142-67-123-50-105-49-111-31-123-18-148v-185l222 43 178 105 130 142 92 185 56 203 24 222-6 228-18 228-68 43-62 43-61 37-50 56-49 43-31 62-12 68 6 92 31 6 37 13 37-93 37-68 31-61 74-74 55-25 74-19 93-18 6-93 6-86 12-86 19-74 18-80 43-68 56-62 74-49 222 37 98 111v160l-74 204-117 215-129 222-111 204-74 179v43 49 43 56 43 49 43 56l-74 37-86 55-111 50-111 61-118 50-98 43-80 31z" fill="#b9825e"/>
<path id="polygon9815" d="m5586 2873-6-37-7-37-6-31v-24l-12-62v-56h43l43 7 43 6 43 12-6 56-6 55-6 56-6 55h-62z" fill="#cfcfcf"/>
<path id="polygon9817" d="m5413 2848-49-18h-43l6-62 6-55 6-56 12-49 31-6 37-6h37 43l-18 74-12 55-13 43-6 31-18 31z" fill="#cfcfcf"/>
<path id="polygon9819" d="m4969 2750v-43-37-37-37h43 43v30l7 37 6 37 6 44h-56z" fill="#cfcfcf"/>
<path id="polygon9821" d="m5142 2768v-49-37-49-37h49 43l-12 37-12 74v43l-37 12z" fill="#cfcfcf"/>
<path id="polygon9823" d="m1954 2472-37-92-30-74-44-68-37-43-49-43-49-37-136-74v-50-43l74 25 80 43 68 49 68 68 49 68 50 86 30 87 25 98h-37z" fill="#b9825e"/>
<path id="polygon9825" d="m5142 2078-31-6-25-7 6-37 7-37 6-37 6-30h-31-25l19-87 18-61 19-50 31-24 24-25 50-12 55-19 80-18v37l19 43 18 31 31 43 13 43 6 62-13 74-30 104h-68l-62 7h-62z" fill="#ffb036"/>
<path id="polygon9827" d="m5555 2041-6-93-6-68-7-61v-37l-12-37-6-37-12-43-7-37 93-93 92-111 87-105 86-74 74-30 80 49 68 142 74 277h-49-37l-37-12-25-13-43-43-25-49h-62-61l31 99 24 86 13 55 18 50 6 43-12 25-56-25-43-6-18-43-6-37-7-37-6-37h-43-43v30 37 31l6 37v31 37l6 31 7 37h-37l-31 6-37 6z" fill="#ffb036"/>
<path id="polygon9829" d="m4883 1936v-56-43-55-43l-62 18-55 31-62 18-55 31 6-86 18-56 31-49 37-31 37-37 37-31 31-43 37-55h-49l-74 24-37 19-68 25-62 24 12-92 44-62 55-55 148-74 86-25 87-25 86-18-6 129-6 99-13 80-6 68-25 62-18 80-37 92-43 124h-37z" fill="#ffb036"/>
<path id="polygon9831" d="m1313 1683-105-142-104-117-118-105-92-98-74-105-37-105 12-129 74-142 154 6 148 37 118 55 110 87 81 98 67 130 56 148 43 179-74 49-55 43-50 31-24 25-37 12-25 12-37 13z" fill="#b9825e"/>
<path id="polygon9833" d="m1726 1363-31-93-37-105-55-123-62-111-74-105-68-86-73-62-74-18 12-93 31-86 49-80 68-62 68-49 80-13 86 19 93 68 43 105 55 111 62 104 68 111 61 111 62 111 49 111 37 117-61 13-56 12-55 12-56 19-55 12-56 13-55 18z" fill="#b9825e"/>
</g>
</g>
</g>
<metadata id="metadata9835">
<rdf:RDF>
<cc:Work>
<dc:format>image/svg+xml</dc:format>
<dc:type rdf:resource="http://purl.org/dc/dcmitype/StillImage"/>
<cc:license rdf:resource="http://creativecommons.org/licenses/publicdomain/"/>
<dc:publisher>
<cc:Agent rdf:about="http://openclipart.org/">
<dc:title>Openclipart</dc:title>
</cc:Agent>
</dc:publisher>
<dc:title>pilot</dc:title>
<dc:date>2012-08-30T13:44:11</dc:date>
<dc:description/>
<dc:source>https://openclipart.org/detail/171973/pilot-by-andinuryadin-171973</dc:source>
<dc:creator>
<cc:Agent>
<dc:title>andinuryadin</dc:title>
</cc:Agent>
</dc:creator>
<dc:subject>
<rdf:Bag>
<rdf:li>pilot</rdf:li>
</rdf:Bag>
</dc:subject>
</cc:Work>
<cc:License rdf:about="http://creativecommons.org/licenses/publicdomain/">
<cc:permits rdf:resource="http://creativecommons.org/ns#Reproduction"/>
<cc:permits rdf:resource="http://creativecommons.org/ns#Distribution"/>
<cc:permits rdf:resource="http://creativecommons.org/ns#DerivativeWorks"/>
</cc:License>
</rdf:RDF>
</metadata>
</svg>
