<?xml version="1.0" encoding="UTF-8"?>
<!-- Generator: Adobe Illustrator 13.0.0, SVG Export Plug-In . SVG Version: 6.00 Build 14576)  -->
<svg id="Layer_1" enable-background="new 0 0 925.873 1209.848" version="1.1" viewBox="0 0 925.87 1209.8" xml:space="preserve" xmlns="http://www.w3.org/2000/svg" xmlns:cc="http://web.resource.org/cc/" xmlns:dc="http://purl.org/dc/elements/1.1/" xmlns:rdf="http://www.w3.org/1999/02/22-rdf-syntax-ns#">

	<path d="m516.11 755.59c3.717 6.206 10.781 9.053 15.666 14.068 0.32-10.26-7.24-17.47-15.67-14.07zm-1.53 18.74c-12.54-1.024-17.229-14.664-14.099-26.602-16.04 4.91 3.51 38.37 14.1 26.6zm-313.12-167.48c-9.647-1.288-14.396-10.544-21.913-12.552-4.421 4.896 3.114 7.31 3.114 12.552-25.941 38.455 0.941 95.521 20.373 114.32 1.228 5.385-2.354 5.938-1.574 10.913 34.766 9.562 68.224 68.431 112.72 48.487 3.849 0.9 3.318 6.123 9.399 4.771 2.335-9.787 11.079-17.263 12.532-29.753 3.295-28.872-19.453-62.226-26.62-84.567-0.267-5.118 6.963-6.899 3.111-10.974-33.191-0.207-41.996-19.925-62.617-32.845-5.2-3.276-11.402-3.276-15.643-6.308-9.257-6.488-11.998-13.082-21.909-15.583-3.8-1.02-6.91 2.03-10.97 1.54zm42.27 169.05c-31.617-27.336-47.343-42.425-76.686-70.416-17.304-16.524-31.512-28.318-32.904-50.106-11.795-10.627-13.678-31.207-23.465-43.818 45.212-44.764 114.87-63.414 175.32-97.016 36.61-20.415 73.59-38.129 111.16-54.879 0.9 5.652 0.471 7.946 1.578 15.726 0.245 7.743 16.418 10.917 18.776 15.605 0.305 0.633-5.016 2.704-3.133 4.707 2.599 2.727 8.477 0.945 10.974 3.114 1.412 1.311 0.904 7.638 3.114 10.955 5.855 8.744 18.52 7.475 18.795 21.932 13.229 1.104 19.812 15.172 32.856 20.35 20.742 8.295 47.29 2.561 68.883 12.532 8.413 23.099 14.75 45.621 20.354 73.57 2.474 12.205 8.936 23.713 10.955 34.423 1.566 8.168-2.222 16.829 0 25.042 1.371 5.179 9.651 11.034 12.521 20.392 6.13 20.008 3.593 37.312 14.087 50.065 4.832 5.856 12.457 7.946 15.662 14.069 19.496 8.168 33.787 0 50.096-6.247 0.256-5.773 5.992-11.61 3.133-15.644-1.37-7.987-14.099-4.669-15.665-12.532-1.954-19.635 9.791-33.579 1.566-50.104 15.911-22.711 27.399-49.82 46.974-68.863-3.265-23.055 24.787-36.999 12.51-64.172 17.948-27.99 53.812-53.974 46.975-108.03-0.655-5.08-4.433-11.222-4.711-17.202-0.775-17.3 16.053-52.438 6.266-73.571-3.908-8.578-32.012-16.053-39.129-17.221-28.439-4.707-51.057 14.295-72.017 6.267 66.477-27.026 142.47-56.185 217.61-75.146 28.616 61.366 41.668 129.45 34.431 209.78-3.913 43.348-13.301 83.071-27.521 119.07l-15.922-6.143c1.107-1.148 2.026-2.685 2.746-4.896-3.729-2.598-7.381-5.178-14.11-4.729-5.856-3.009-7.034-10.688-14.088-12.532l-14.272-0.983c1.959-1.942 3.574-4.236 4.885-6.838 0.278 4.812 8.428 3.234 7.832-1.556-11.014-2.865-20.598 7.004-25.03 15.624l-10.978 9.44c-6.07 6.041-15.654 14.66-14.088 23.465-6.653 4.79-15.703 7.268-17.221 17.239-1.031 5.694 3.4 5.961 3.145 10.936-3.008 5.731-19.77 4.67-15.665 12.491 7.444 5.569 22.903-8.231 29.741 1.578-0.267 6.571-7.105 7.513-3.121 14.147 14.212 13.678 36.848 4.934 48.469-9.173l17.401 2.414c-27.58 44.537-63.78 81.762-106.59 111.56-24.899 17.383-49.889 38.456-76.701 48.57-8.213 3.111-18 3.397-26.608 6.308-23.479 7.822-43.042 20.312-70.442 21.868-5.607 0.347-10.299-2.067-15.65-1.556-21.009 2.045-52.709 10.665-82.982 7.821-20.282-1.886-41.024-12.328-62.605-17.221-11.734-2.602-23.363-2.417-34.441-4.669-9.705-2.049-18.531-7.78-26.598-9.44-7.249-1.473-12.656 0.471-20.354-3.111-29.18-13.69-61.08-31.59-86.14-53.25z" fill="#184783"/>
	<path d="m107.56 296.9c2.335 10.156 2.007 23.035 14.069 23.483 1.31 6.391 0.263 5.407 0 12.514 4.259 16.645 19.717 22.052 23.486 39.13 8.025 10.341 24.447 6.123 37.552 9.399 6.47 1.615 10.789 7.064 17.24 7.821 7.904 0.96 18.347-3.276 26.62-1.578 6.594 1.394 10.811 6.326 15.643 6.285 14.212-0.121 24.737-15.255 36.02-17.259 16.686 4.688 34.562-2.621 54.772 0 6.45 10.812 28.258 6.263 34.441 17.259 11.877-1.431 23.427-10.789 31.331-10.955 3.396 4.915-2.357 11.509-3.133 17.202 14.393 16.113-4.65 36.468-3.133 53.218-33.952 17.548-71.545 29.794-106.48 50.106-32.868 19.247-67.614 39.394-101.75 53.236-28.484 11.609-52.502 22.115-73.571 43.817h-4.67c-29.651-63.659-35.586-171.34-18.798-248.91 4.303-19.91 8.216-41.59 20.358-54.76z" fill="#184783"/>
	<path d="m738.42 129.41c5.672 2.557 11.079 12.204 15.643 3.11-4.09-1.62-13.16-9.56-15.64-3.11zm-18.78-18.78c-3.789-2.847-15.326-9.911-18.787-3.155 0.707 6.081 13.568 0.083 14.099 6.308-0.53 7.475-1.905 8.353-1.585 18.734 1.77 0.327 2.414 1.781 3.141 3.133 6.254 0 11.018-1.473 14.088-4.707-3.254-0.862-10.311 2.004-10.955-1.536-1.77-2.92 1.09-11.64 0-18.77zm-144.03 20.31c-0.512 5.731 5.69 4.749 9.388 6.244-0.52-4.66-5.34-9.8-9.39-6.24zm-68.87 64.22c4.609-0.328 10.363 6.202 14.08 1.573-6.39-1.965-8.797-7.904-18.787-6.284-4.044 5.855-4.508 15.338-7.821 21.909 3.909 4.424 11.29 5.448 20.361 4.688-0.418-6.367-11.877-1.698-14.099-6.243 0.2-7.12 3.65-10.95 6.27-15.65zm-73.59 75.14c-17.937-0.184-25.942 9.501-39.13 14.047-0.78-2.373-2.293-3.97-3.133-6.225 5.487-3.42 10.77-6.982 15.643-10.974-12.386-0.388-18.573 5.403-20.332 15.685 16.501 15.379 26.085-12.408 48.529-6.244 2.99-2.256 2.783-7.659 4.688-11.019-9.196-4.236-20.99-14.064-31.309-4.707 3.44 0.32 20.54-1.58 25.04 9.43zm-72.01 14.05c2.704 3.072 8.089 3.4 14.11 3.155 0.429-6.206-0.595-10.875-4.711-12.491 0.06 9.22-7.62 4.63-9.4 9.34zm-6.27 0c-7.411-7.863-37.612-7.758-42.263 7.825 10.179-3.894 30.468 2.331 37.597-4.67-7.313-1.024-18.738 2.049-23.51-1.577 7.64-5.02 17.95-1.95 28.17-1.58zm-111.14 57.95c-17.797-3.239-5.938-29.979-9.38-43.863 19.311-16.155 33.726-37.243 64.172-42.264 3.461-0.244 3.4-3.849 3.133-7.821 8.744-1.352 11.489 6.902 17.221 12.514 9.418-1.374 12.593 0.878 18.799-3.114-3.009-11.651-13.045-16.196-18.799-25.023 8.089-20.659 18.204-39.189 32.886-53.255-0.083-8.929 0.697-9.953 1.555-15.646 9.275-11.343 32.435-16.216 28.175-35.997 12.408-17.322 37.842-21.664 54.795-34.46-0.715-11.61-16.178-10.913-23.487-14.069-3.009-1.311-7.554-5.569-10.955-6.285-10.175-2.048-21.909 4.199-31.308 3.193-11.098-1.287-15.315-10.668-25.042-12.551 40.953-21.461 94.765-29.444 150.29-25.023 72.524 5.694 150.48 18.78 208.19 50.065 12.86 7.005 26.436 14.969 39.142 23.445 10.556 7.064 20.343 14.887 29.485 23.344l-3.717 4.177c-0.184-0.268-0.459-0.614-0.715-0.9-10.239 6.06-13.248 31.655 0 29.75l1.107 4.835c-7.096 1.062-7.834 8.495-7.374 17.097 9.132 9.459 25.841 11.467 39.142 18.775 9.531 5.224 18.252 18.655 31.297 6.248l3.084-1.906c12.582 19.492 24.315 39.827 36.057 59.872-82.036 15.01-144.47 49.595-219.17 71.997-17.16-14.826-31.372-32.476-56.343-36.001-12.928-1.822-22.391 4.037-36.008 6.248-15.398 2.561-35.873-2.848-42.263 10.973-21.917-2.764-32.042-17.382-56.358-12.49-23.088 4.549-42.99 14.825-62.605 28.138-3.543 5.117 5.2 10.83 0 17.239 1.145 0.124 2.21 0.203 3.11 0.203l-7.821 6.04c-19.902 2.091-37.635-7-53.24-10.954-2.599-2.086 2.621-10.503-1.556-14.106-13.044-1.74-25.369-11.323-34.441-7.821-0.185-19.432-15.255-27.705-32.882-25.042-0.779 5.731-4.037 16.237-7.825 23.464-4.421 1.311-4.052-2.211-7.821-1.578 7.41 6.13-9.01 13.23-12.55 12.56z" fill="#184783"/>
	<path d="m815.14 586.48c5.076-1.435 9.109-3.871 12.313-7.23l14.272 0.983c2.55 9.994 9.787 15.255 18.799 18.799-6.851 5.223-13.301 18.982-14.088 25.064 5.403-4.549 11.211-8.624 10.966-18.78 3.901-0.55 7.299-0.632 9.775-2.926l15.922 6.143c-8.436 21.521-18.603 41.648-30.276 60.485l-17.4-2.4c5.928-7.269 8.978-15.993 6.304-23.713-3.183 21.031-29.207 44.657-48.518 29.692 0.46-5.265 2.478-9.011 1.577-15.646-5.23-4.402-11.752 0.983-14.109-4.707 2.418-7.087 0.791-11.347-1.556-17.16 10.495-9.87 24.47-24.613 25.042-39.149l10.99-9.43z" fill="#FFC751"/>
	<path d="m768.16 168.51c-9.592-10.176 5.08-22.357 0.715-28.85l3.717-4.177c24.53 22.606 44.609 49.633 62.824 78.075l-3.084 1.906h-15.643c-10.834-15.256-38.559-13.599-48.529-29.712-1.168-5.897 1.895-7.517 1.555-12.532-0.173 0-0.316 0.041-0.447 0.124l-1.11-4.84z" fill="#DDD1B3"/>
	<path d="m702.4 877.69c-7.828-5.796-9.132-18.02-10.954-29.754 14.159 1.578 15.462-9.603 26.62-10.973 0.791 8.333-5.416 15.314-1.566 25.042-6.01 3.94-10.7 9.17-14.1 15.68z" fill="#8D582B"/>
	<path d="m680.5 879.27c4.895 4.075 9.922-1.721 17.231 0v9.377c-7.66 5.44-20.7 6.83-17.23-9.38z" fill="#8D582B"/>
	<path d="m688.33 874.54c-12.265-7.558-15.993-23.672-28.187-31.267 7.313-1.661 14.295-3.483 18.799-7.822 4.18 10.87 4.82 28.17 9.39 39.09z" fill="#8D582B"/>
	<path d="m451.94 1009.2c33.929-7 61.642-1.024 93.933-4.666 7.946 12.962 10.751 30.469-4.707 37.571-20.15 1.024-41.875-10.3-59.484-1.574 14.427 7.393 36.979 8.334 61.05 10.932 13.975 12.777 29.034 28.341 26.62 48.529-50.096 2.621-89.433 6.146-136.2-1.574-0.061-24.612 10.77-38.252 21.932-51.644-0.595-0.757-1.19-1.615-1.774-2.413-6.9-10.2-9.64-23.2-1.37-35.1z" fill="#8D582B"/>
	<path d="m583.43 552.05c4.116 39.151 52.83 0.207 51.662-17.198-11.07 15.26-33.98 44.5-51.66 17.2zm12.54 87.68c1.423 15.561-0.99 31.063 9.388 39.148-4.881-24.959-12.254-67.282-10.973-90.829-13.9 10.51-0.18 32.77 1.58 51.68zm-82.98-212.91c-30.386 10.115-15.993 40.625-10.955 65.728 32.607-6.021 60.146-3.258 86.1-6.244 8.665 3.826 11.539 13.512 26.609 10.933 4.371 13.944 19.179 17.386 36.008 18.817 5.354 10.28 10.238 21.092 21.92 25.042 0.34 5.02-2.741 6.616-1.574 12.532 4.248 6.205 11.283 9.602 14.088 17.22-5.867 7.208-1.424 24.591 7.829 20.354 0.063-4.771-5.61-3.788-4.688-9.44 10.566-21.601-18.396-22.36-10.966-42.239-10.872-5.283-17.608-14.743-23.483-24.981-16.832-2.008-28.83-8.805-37.566-18.841-10.699 2.418-15.263-10.317-25.05-12.487-25.106-5.652-57.469 7.389-84.519 4.666-7.2-21.62-12.54-48.65 6.24-61.06zm-108.03 28.18c29.708-16.238 63.923-27.931 93.955-43.822 5.28 4.157 4.361 9.523 9.388 10.954 3.724-2.805-4.508-6.838-1.559-14.106 46.872-17.815 92.811-36.592 140.89-53.198 20.478 22.015 49.245-7.103 81.393 0 11.938 2.579 18.121 7.904 32.875 10.954-1.626 13.396 5.212 25.804 3.122 39.152-1.883 12.183-10.043 21.235-9.377 34.419 0.328 6.76 5.404 12.164 6.255 18.78 2.866 21.333-6.07 53.296-17.231 68.901-8.537 11.938-25.42 17.466-29.72 32.882 4.3 21.849 1.106 41.57-14.099 51.644 0.195 4.462-0.848 10.239 1.555 12.532-7.227 11.015-13.439 23.035-25.042 29.708 0.196 21.646-15.19 27.584-21.909 42.285 9.309 25.596-18.139 58.911 15.646 65.75-16.893 24.979-44.156 19.8-59.476 1.574-15.714-18.754-6.53-51.764-25.042-64.214-4.851-59.668-17.507-88.457-32.883-142.43-22.568 0.78-42.387-7.862-70.461-9.376-9-7.743-17.221-16.197-29.73-20.354-1.822-1.845-1.762-5.569-1.566-9.399-20.938-13.247-30.725-29.199-46.981-45.438 0.61-8.63 0.61-8.55 0-17.17z" fill="#C5A8B4"/>
	<path d="m470.73 979.44c-3.073 2.15-7.302 3.133-7.833 7.821 28.646 1.435 35.424 3.051 62.617 1.556-12.21-11.27-37.78-3.2-54.79-9.38zm-15.65 21.86c-0.923-30.631 9.305-50.187 12.521-76.704 10.687-7.434 31.233-14.106 42.263-10.955 27.396 7.679 21.446 57.028 31.297 84.526-30.06-2-55.36-4.98-86.08 3.13z" fill="#A36D35"/>
	<path d="m541.17 375.14c11.354-1.145 12.796-12.201 23.487-14.065 3.849 3.479 8.014 6.613 14.095 7.821 3.829-7.659 9.644-4.896 15.636-7.821 13.391-6.409 13.33-26.149 32.875-20.354-16.822-14.148-32.344 20.004-51.651 23.487-12.62-9.98-28.85 0.33-34.46 10.92zm-109.59-20.31c3.932 10.875 17.428 2.542 29.765 4.711 6.123 3.234 11.199 7.535 18.776 9.357 1.698 5.1 4.248 9.298 6.274 14.106h4.681c-6.05-23.19-31.36-27.07-59.49-28.18zm-61.04 32.84c-6.387-4.421-13.124-7.618-20.087-9.99l4.259-12.021c12.962 5.016 27.17 7.863 39.314 0.12l7.821-6.04c11.753 0 3.114-9.93 4.688-14.31 14.886-10.239 34.829-21.216 54.807-25.046 28.759-5.547 53.146 25.125 71.993 1.578 20.282 5.61 37.646-8.025 54.803-7.803 16.31 0.165 49.964 18.309 53.222 35.937-45.389 11.938-84.59 30.224-125.24 47.015-6.838 1.616-5.14-5.306-10.955-4.729-3.973 0.226-3.122 5.242-3.122 9.399-33.47 14.064-70.05 33.271-101.75 43.818 4.3-14.66 13.553-29.878 3.11-45.396 0.614-5.693 2.09-10.442 4.711-14.068-6.06-20.13-22.44 0-37.57 1.53z" fill="#92D7E6"/>
	<path d="m378.38 41.747c-44.311 7.554-84.668 32.065-122.12 51.621-4.177-23.035 29.938-21.111 40.707-34.423 4.896-2.086 4.504 0.392 10.955 0-0.306-7.821-13.29-18.836 0-21.887v6.244c7.434 0.553 9.911 0.35 15.665 4.669 4.873-4.116 9.377-0.534 15.643-1.555 13.38-2.172 29.94-15.277 39.16-4.669z" fill="#8D582B"/>
	<path d="m201.46 383c-3.973-0.429-5.204-4.259-10.958-6.304-11.015-3.811-27.008 0.223-34.419-4.669-2.497-1.597-4.443-8.273-9.418-14.069-8.334-9.765-20.271-20.824-18.758-37.574-0.53-1.187-1.311-2.109-2.169-2.968l6.839-0.162c22.975-4.733 56.697-33.273 93.944-14.068 1.106 19.126-1.842 41.054 15.643 43.818 18.923 2.93 31.207-17.937 34.441-32.845 8.726-3.706 12.656 1.638 18.776 4.669-2.599 22.26 21.151 23.469 36.019 23.469 2.479 3.212 1.107 10.359 3.11 14.087 6.021 2.824 12.943 6.387 20.192 9.275l-4.259 12.021c-22.647-7.742-48.16-6.409-75.394-7.208-8.499 2.659-16.381 16.565-28.175 17.198-6.35 0.351-10.71-6.409-18.799-7.821-8.52-1.48-19.76 3.91-26.6 3.15z" fill="#FAC9D4"/>
	<path d="m577.18 1121.9c-5.159-0.061-5.28-9.911-10.955-4.688-4.892 15.478 13.229 11.444 25.035 10.933 43.317-1.699 97.454 6.247 129.93-9.358-45.06 0.9-98.42 1.6-144.01 3.2zm-114.28 6.2c-7.238-0.042-17.865-3.909-20.343 3.133 32.936 10.258 86.492 6.677 118.98-1.574-29.12-3.5-71.11-1.2-98.64-1.5zm-151.85-7.8c-13.963-1.103-30.796-9.52-37.574-1.536 46.051 12.163 105.23 13.354 161.25 10.917 1.352-10.197-7.434-10.322-14.087-12.491-5.611 1.27 1.883 5.916-4.711 6.267-35.87-0.3-69.54-0.3-104.88-3.2zm-87.67 6.3c31.451-39.559 138.95-5.689 198.82-28.213 5.671 0.592 1.043 11.467 6.266 12.529 49.572-0.716 124.83 11.18 165.92-10.955 33.613 9.769 97.528 3.442 137.77 14.11 30.592 8.024 55.503 33.025 32.863 67.264-59.86 9.704-114.79 14.374-176.88 17.262-23.291 1.104-57.597-0.226-87.659-1.577-26.741-1.146-54.743 2.681-79.833 1.577-70.133-3.05-141.68-10.834-209.78-20.354 2.02-20.7 1.49-37.7 12.51-51.6z" fill="#A36D35"/>
	<path d="m311.05 772.79c11.998-48.611-18.961-96.975-48.529-123.66 12.86-0.143 21.992 19.33 40.708 14.106 4.504 32.476 32.924 67.407 25.061 103.3-1.39 1.209-3.562 1.661-6.285 1.536-1.167 5.856 1.906 7.476 1.578 12.491-4.24-0.941-3.932-6.492-9.399-6.243-4.567 3.276-9.584 6.078-18.798 4.729 4.45-2.87 9.8-4.86 15.67-6.27z" fill="#C5A8B4"/>
	<path d="m207.73 727.41c4.587-11.854-15.726-23.261-18.776-37.612 10.876 9.479 21.276 33.025 35.997 43.86-5.14 3.52-11.61-5.06-17.22-6.25z" fill="#fff"/>
	<path d="m184.24 672.58c4.236 1.533 3.604 7.9 4.707 12.529-3.07-2.67-4.17-7.33-4.71-12.53z" fill="#fff"/>
	<path d="m182.67 667.91c-12.121-17.425 0.799-39.07 3.152-61.062 30.717-0.144 41.814 17.077 64.172 28.217-11.546-4.301-37.243-12.98-51.64 0 50.167-13.945 108.4 61.49 111.15 114.22 0.448 8.296-2.948 16.158-6.266 20.376-55.571-0.941-92.818-54.776-114.28-104.9 0.595-11.384 0.779-23.196 7.821-28.134-14.21-5.12-15.21 20.48-14.1 31.27z" fill="#DDD1B3"/>
	<path d="m147.02 726.47c25.31 29.075 54.837 53.504 85.758 79.183 30.077 10.668 56.227 40.971 92.366 53.198 12.593 4.338 31.512 5.916 48.529 10.974 63.272 18.983 146.05 26.681 219.16 12.532 23.22-4.504 63.005-15.052 68.879-23.506 5.611-0.29 9.392 14.536 7.825 26.658-42.131 7.188-94.836 31.575-139.32 31.308-8.221-0.41-1.619-4.628-1.559-9.376-18.919 0.327-52.777-9.829-64.191 7.821-33.846-5.92-76.132-15.274-112.7-23.506-19.495-15.176-53.812-17.857-76.705-32.905-9.787-6.367-17.424-14.559-26.62-20.312-20.229-12.573-42.711-23.63-59.483-40.666-18.651-19.085-37.183-39.092-55.387-59.627l13.45-11.76z" fill="#8D582B"/>
	<path d="m212.44 166.98c-11.222 7.084-31.369 5.938-41.69 16.584l-1.495-1.329c25.227-29.753 54.324-55.552 83.87-81.046 4.956-0.757 6.146 3.4 9.399 0 26.168-14.069 49.388-30.98 81.393-39.13 0 0.757 0.143 1.394 0.35 1.984 0.817 3.524 3.89 4.938 2.806 10.586 6.695-3.664 11.342 3.77 17.198 4.669 11.938 1.702 24.225-3.317 34.464-1.574 13.963 2.354 20.331 11.998 32.841 12.552-16.095 13.206-41.977 16.686-54.117 33.865l-10.055-5.69c-1.943-5.099-15.643-6.511-19.759-2.376l-6.778-0.309c1.763-1.984 3.728-3.826 6.206-5.137-12.145 3.009-17.673 12.57-26.643 18.776l-9.174 0.185c0.452-1.19 0.452-2.396-0.203-3.317-5.2 1.555-6.797 6.797-12.532 7.821-4.956-11.485-18.181-2.132-26.616-3.152l-9.381 3.152c-17.405 3.438-25.84 15.929-35.996 26.639l-14.09 6.26z" fill="#C3D830"/>
	<path d="m132.58 317.26-6.839 0.162c-2.542-2.538-6.308-3.829-10.363-4.896 2.132-7.554-3.193-17.71-7.821-23.445 14.069-42.116 35.876-76.497 61.694-106.84l1.495 1.329c-1.432 1.556-2.682 3.258-3.706 5.303 14.476-7.942 33.971-10.872 45.396-21.887l14.088-6.247c17.405-3.479 21.317-20.497 35.996-26.639l9.381-3.152c3.604 9.211 14.23 1.657 20.35 0-0.244 13.553 16.321 5.22 19.002-1.352l9.174-0.185c11.181-0.207 15.07-7.6 20.437-13.64l6.778 0.309c-0.185 0.286-0.388 0.531-0.572 0.799 4.236 3.05 13.677 0.881 20.331 1.577l10.055 5.69c-0.78 1.189-1.578 2.376-2.21 3.687 2.026 11.406-5.306 13.433-7.844 20.354-5.201 0.061-11.098 4.425-17.198 7.822-1.845 7.064-6.082 11.692-4.711 21.89-5.814 7.393-33.417 40.459-32.886 51.682 0.534 12.062 15.194 13.658 18.798 26.597-16.953 2.399-13.188-16.012-31.308-12.487-5.814 2.128 0.327 6.47-4.711 9.354-30.917 1.988-41.217 24.553-62.613 36.038-2.972 2.256-2.806 7.6-4.692 10.917-30.66-21.7-70.53 1.85-95.51 17.27z" fill="#EC6A57"/>
	<path d="m48.057 469.11c2.169 13.165-1.846 27.621 1.573 40.666 16.486 63.903 34.954 123.37 65.75 173.78 9.501 15.602 20.15 29.753 31.636 42.918l-13.451 11.775c-17.405-19.556-34.482-39.562-51.066-59.363-34.447-56-55.396-134.4-67.334-211.37-6.244-40.339 0.328-71.44 4.711-112.7 1.759-16.196 15.191-43.776 21.909-64.172 13.963-42.425 25.061-74.758 50.104-106.48 23.407-29.606 42.654-58.972 72.016-82.989 11.674-9.523 26.661-17.466 40.686-28.176 13.496-10.321 27.911-19.043 42.285-26.597 28.175-14.887 60.591-47.486 92.347-28.176-4.3 18.509-26.228 11.343-39.129 10.955-8.007 4.379-5.755 16.708-7.845 23.506-6.838 1.494-8.846 6.714-15.643 9.357-6.06 2.455-13.493 0.203-17.221 1.597-15.458 5.611-48.59 32.721-62.617 45.396-61.7 55.8-121.74 132.09-144.02 226.98-7.965 33.865-15.93 77.051-12.529 109.57 0.904 9.01 6.516 15.73 7.826 23.51z" fill="#8D582B"/>
	<path d="m84.053 312.52c-31.76 102.18-21.133 236.6 23.506 325.63 3.193 6.327 7.701 12.021 10.936 18.776 3.134 6.474 5.938 14.046 9.418 20.377 12.98 23.445 42.572 46.623 62.595 67.305 17.221 17.812 39.009 33.334 61.042 50.062 27.6 20.949 62.124 43.863 95.522 53.259 18.817 5.307 39.619 5.1 59.461 9.381 16.893 3.664 33.357 12.163 50.114 15.643 37.168 7.863 82.564-0.244 120.53-4.669 14.61-1.698 27.264-8.417 40.708-12.529 11.847-3.668 27.388-10.382 39.129-1.577-4.628 6.326-13.451 4.462-20.342 6.243-40.84 10.751-98.697 27.418-151.87 21.932-54.784-5.693-106.06-19.431-154.95-31.309-66.101-35.036-126.16-76.972-176.92-133.04-35.815-39.601-59.548-91.997-76.704-154.98-5.407-20.066-15.892-39.517-18.776-57.928-3.072-20.026-0.982-41.912-3.133-61.039-3.932-34.584 1.574-71.768 10.932-109.59 22.791-91.549 74.186-159.51 134.65-214.47 13.229-12.104 26.168-27.787 43.821-31.309-2.071 17.345-16.034 17.673-26.578 26.639-13.063 11.019-26.108 27.973-40.708 42.244-40.01 39.25-73.67 94.8-92.387 154.96z" fill="#fff"/>
	<path d="m255.67 635.6c-1.291-3.396-3.829-2.865-6.164-4.748-2.008-1.657-3.114-4.79-5.118-6.244-3.829-2.847-9.011-1.863-12.901-4.59-4.955-3.521-4.628-7.656-10.729-9.438-5.652-1.619-11.139-3.092-16.629-4.342-4.79-1.107-9.931-1.946-14.928-2.169-6.119-0.248-6.816 1.495-8.556 6.898-3.092 9.604-4.056 18.983-6.658 28.854-2.252 8.537-3.11 17.507 0.697 25.675 4.074 8.744 4.281 16.054 6.473 25.535 1.514 6.553 9.539 13.004 13.471 18.103 3.4 4.379 12.532 15.805 8.887 21.476 7.742 0 5.979 2.256 11.96 5.938 3.725 2.377 10.604 3.996 15.089 3.359 1.024-11.139-8.006-16.626-14.844-23.465-7.208-7.128-9.991-18.268-16.178-26.477-5.118-6.756-10.563-16.648-11.832-24.59-1.25-7.743 0.448-23.469 6.387-27.728 3.521-2.538 9.339-3.562 13.391-4.748 5.427-1.661 12.163-2.252 17.857-1.661 9.907 1.065 22.112 5.897 30.875 10.875l-0.55-6.52z" fill="#C5A8B4"/>
	<path d="m552.97 566c3.253-9.132-22.188-4.463-22.278-13.981-0.075-7.701 6.981-6.843 12.088-8.809 6.861-2.621 7.904-7 16.464-5.855 5.878 0.779 8.172 3.4 12.502 6.801 1.566 1.187 2.854 2.331 4.485 3.479 1.943 1.412 4.677 2.211 6.624 3.664 3.092 2.211 6.59 9.768 7.637 13.085 1.453 4.628 1.299 10.933 1.073 15.888-0.952 22.116 5.54 42.715 6.545 64.685 0.274 5.92-0.647 11.222 1.604 16.75 2.018 4.896 3.227 8.887 4.484 13.985 0.821 3.193 3.266 5.856 4.116 8.971 0.953 3.479-0.154 7.779-0.46 11.181-0.594 6.142-1.555 11.896 0.02 18.098 1.709 6.718 6.48 13.045 10.055 18.817 3.336 5.449 4.605 12.92 8.243 17.94 3.581 4.975 8.835 8.412 10.932 14.844 1.525 4.587 1.333 10.913-2.335 14.231-4.104 3.747-11.76 3.747-15.661-0.678-3.901-4.339-0.226-11.832-5.694-15.274-5.027-3.092-10.751 1.883-12.848-4.831-1.401-4.546 2.006-10.322 2.293-15.644 0.38-6.718-2.162-7.659-4.926-12.615-2.877-5.117-1.71-10.585-3.461-15.809-1.698-5.034-6.304-8.126-8.74-12.592-2.5-4.546-2.244-12.059-3.167-17.115-1.973-10.978 3.31-19.27-1.77-29.919-4.545-9.58-6.676-20.147-9.99-29.629-1.744-4.934-2.9-10.544-4.365-15.644-1.419-5.016-0.572-10.502-1.901-15.417-1.477-5.448-3.329-9.094-3.924-15.01-0.5-4.937-1.371-8.744-5.392-12.246 0.889 0.637 1.781 1.292 2.651 1.924l-4.89-3.27z" fill="#EC6A57"/>
	<path d="m644.3 355.11c-1.495-5.855 1.86-13.165-3.799-16.317-4.057-2.252-12.801-2.847-17.425-2.149-4.188 0.572-6.492 3.05-10.179 4.997-2.496 1.329-5.619 1.966-7.637 4.218-2.061 2.372-1.781 5.302-3.473 7.595-5.034 6.94-21.336 11.938-28.582 9.686-9.75-3.009-16.536-0.715-24.726 4.896-8.428 5.75-15.838 11.813-20.806 20.312-1.936 3.396-3.02 7.78-6.635 9.682-5.023 2.727-8.936-2.579-13.041-1.002-7.588 2.931-1.555 24.737-1.638 30.243-0.136 7.147-5.426 10.895-7.332 17.387-1.525 5.136 0.083 11.218 0.132 16.44 0.064 5.445-0.847 10.424 0.125 15.644 1.454 7.618 2.866 9.911 10.8 10.853 13.21 1.518 27.328 0.84 41.148 0.678 11.817-0.143 25.697-6.164 36.693-2.293 4.843 1.739 9.121 4.462 14.242 6.243 5.313 1.864 8.578 2.252 12.234 6.922 6.357 8.251 19.307 11.938 29.874 12.532 4.157 0.264 3.657-0.595 6.809 2.293 2.346 2.087 3.513 4.934 6.39 6.982 5.744 4.033 6.316 4.236 8.025 11.508 1.363 5.795 4.116 9.787 7.482 14.679 3.096 4.508 2.715 10.446 4.365 14.663 1.936 4.955 4.318 9.418 7.43 13.289 3.543 4.463 4.097 9.192 5.592 14.272 2.323 8.006 7.852 27.456 19.175 22.315 10.698-4.873 10.812-21.295 10.27-32.084-0.274-5.776 1.138-10.507 2.222-15.643 1.465-6.962 0.564-9.644 6.778-13.556 6.13-3.871 6.612-7.762 9.899-12.796 1.781-2.663 5.375-5.307 7.465-7.863 6.797-8.48 11.67-20.437 14.426-31.146 1.42-5.569 5.076-10.115 5.988-15.726 0.851-5.182-0.256-11.079-0.543-16.196-0.613-10.688-5.807-18.144-4.229-29.016 1.514-10.465 1.597-22.402 6.563-31.881 4.854-9.297 2.067-18.613 0.388-28.382-1.156-6.632-4.052-7.614-7.475-12.57-2.896-4.259-3.725-7.965-9.252-9.708-5.367-1.698-11.663-1.228-17.078-2.843-5.735-1.702-11.24-3.216-17.304-3.71-5.784-0.365-8.631 1.763-13.7 3.197-6.184 1.698-12.713-0.041-18.96 1.883-12.634 3.849-24.18 5.569-36.784 0.369 1.394 0 2.813-0.041 4.229 0l-8.14 1.11z" fill="#C3D830"/>
	<path d="m431.78 263.24c-7.494-3.521-18.633-9.357-25.965-3.664-3.152 2.437-4.628 6.594-7.618 9.234-3.502 3.133-6.267 3.275-7.739 8.111-4.997 15.91 13.553 4.933 19.45 1.966 5.859-2.972 27.848-1.781 24.021-12.371l-2.15-3.28z" fill="#DDD1B3"/>
	<path d="m368.16 284.45c0.471-0.268 1.167 0.429 0.941-0.434-9.561-0.388-18.693-2.843-28.069-3.788-4.222-0.43-23.917 0.146-17.364 9.053 7.125 0.144 13.922 0.776 21.129 0.042 6.718-0.596 17.447 0.674 23.363-2.723v-2.15z" fill="#C5A8B4"/>
	<path d="m506.23 396.97c-1.86 0.613-4.451 11.139-3.683 14.129 0.512 2.026 2.444 3.009 3.099 4.914 0.874 2.437 0.708 5.362 0.583 8.006-0.12 2.926-0.275 5.427-1.103 8.27-0.851 2.848-2.12 3.318-3.133 5.569-2.222 4.896-1.423 7.904-5.283 12.247-4.259 4.812-9.614 7.738-15.489 9.889-3.698 1.416-7.098 1.536-10.363 4.508-3.08 2.865-4.729 6.714-7.987 9.542-6.387 5.506-9.008 9.091-13 16.257-2.572 4.688-4.711 8.518-9.411 11.181-11.056 6.266-13.474-4.033-19.413-11.674-3.438-4.421-5.935-3.932-10.401-6.429-3.645-2.048-5.814-6.963-7.291-10.83-5.076-13.474-8.638-36.038 0.166-48.962l102.69-26.63z" fill="#92D7E6"/>
	<path d="m855.81 592.76c6.729-0.448 10.382 2.132 14.11 4.729-0.72 2.211-1.639 3.747-2.746 4.896-2.477 2.294-5.874 2.376-9.775 2.926 0.245 10.156-5.562 14.231-10.966 18.78 0.787-6.082 7.237-19.842 14.088-25.064-9.012-3.544-16.249-8.805-18.799-18.799 7.06 1.83 8.24 9.51 14.09 12.52z"/>
	<path d="m815.14 586.48c4.433-8.62 14.017-18.489 25.03-15.624 0.596 4.79-7.554 6.368-7.832 1.556-1.311 2.602-2.926 4.896-4.885 6.838-3.21 3.34-7.25 5.78-12.32 7.22z"/>
	<path d="m801.04 209.22c-13.301-7.309-30.01-9.316-39.142-18.775-0.46-8.602 0.278-16.035 7.374-17.097 0.131-0.083 0.274-0.124 0.447-0.124 0.34 5.016-2.723 6.635-1.555 12.532 9.971 16.113 37.695 14.456 48.529 29.712h15.643c-13.04 12.42-21.76-1.02-31.29-6.24z"/>
	<path d="m780.67 652.23c2.357 5.69 8.879 0.305 14.109 4.707 0.9 6.636-1.117 10.382-1.577 15.646 19.311 14.965 45.335-8.661 48.518-29.692 2.674 7.72-0.376 16.444-6.304 23.713-11.621 14.106-34.257 22.851-48.469 9.173-3.984-6.635 2.854-7.576 3.121-14.147-6.838-9.81-22.297 3.991-29.741-1.578-4.104-7.821 12.657-6.76 15.665-12.491 0.256-4.975-4.176-5.241-3.145-10.936 1.518-9.972 10.567-12.449 17.221-17.239-1.566-8.805 8.018-17.424 14.088-23.465-0.572 14.536-14.547 29.279-25.042 39.149 2.33 5.81 3.96 10.07 1.54 17.16z"/>
	<path d="m768.16 168.51c-13.248 1.905-10.239-23.69 0-29.75 0.256 0.286 0.531 0.633 0.715 0.9 4.36 6.5-10.31 18.68-0.72 28.85z"/>
	<path d="m738.42 129.41c2.479-6.451 11.55 1.495 15.643 3.11-4.56 9.09-9.97-0.56-15.64-3.11z"/>
	<path d="m713.36 132.52c-0.32-10.382 1.055-11.26 1.585-18.734-0.53-6.225-13.392-0.227-14.099-6.308 3.461-6.756 14.998 0.309 18.787 3.155 1.096 7.125-1.77 15.847 0 18.776 0.645 3.54 7.701 0.674 10.955 1.536-3.07 3.234-7.834 4.707-14.088 4.707-0.71-1.37-1.36-2.83-3.13-3.15z"/>
	<path d="m583.43 552.05c17.68 27.297 40.595-1.942 51.662-17.198 1.17 17.41-47.55 56.35-51.66 17.2z"/>
	<path d="m595.97 639.73c-1.759-18.919-15.477-41.178-1.585-51.681-1.281 23.547 6.092 65.87 10.973 90.829-10.37-8.08-7.96-23.58-9.38-39.15z"/>
	<path d="m575.61 130.94c4.052-3.566 8.876 1.574 9.388 6.244-3.7-1.49-9.9-0.51-9.39-6.24z"/>
	<path d="m566.23 1117.2c5.675-5.223 5.795 4.628 10.955 4.688 45.592-1.619 98.952-2.252 144.01-3.114-32.475 15.605-86.611 7.659-129.93 9.358-11.8 0.4-29.93 4.5-25.03-11z"/>
	<path d="m541.17 375.14c5.611-10.586 21.849-20.903 34.441-10.932 19.308-3.483 34.829-37.636 51.651-23.487-19.545-5.796-19.484 13.944-32.875 20.354-5.992 2.926-11.807 0.162-15.636 7.821-6.082-1.208-10.247-4.342-14.095-7.821-10.68 1.87-12.12 12.93-23.47 14.07z"/>
	<path d="m516.11 755.59c8.428-3.397 15.993 3.811 15.666 14.068-4.89-5.02-11.95-7.87-15.67-14.07z"/>
	<path d="m470.73 979.44c17.014 6.184 42.58-1.883 54.784 9.377-27.192 1.495-33.971-0.121-62.617-1.556 0.53-4.69 4.76-5.68 7.84-7.82z"/>
	<path d="m502.04 492.55c-5.039-25.103-19.431-55.612 10.955-65.728-18.776 12.408-13.444 39.435-6.248 61.058 27.049 2.723 59.412-10.318 84.519-4.666 9.787 2.17 14.351 14.905 25.05 12.487 8.736 10.036 20.734 16.833 37.566 18.841 5.875 10.238 12.611 19.698 23.483 24.981-7.43 19.879 21.532 20.639 10.966 42.239-0.922 5.652 4.752 4.67 4.688 9.44-9.253 4.237-13.696-13.146-7.829-20.354-2.805-7.618-9.84-11.015-14.088-17.22-1.167-5.916 1.914-7.513 1.574-12.532-11.682-3.95-16.565-14.762-21.92-25.042-16.829-1.432-31.637-4.873-36.008-18.817-15.07 2.579-17.944-7.106-26.609-10.933-25.96 2.98-53.5 0.22-86.1 6.24z"/>
	<path d="m494.21 212.35c3.313-6.571 3.777-16.054 7.821-21.909 9.99-1.62 12.397 4.319 18.787 6.284-3.717 4.629-9.471-1.901-14.08-1.573-2.621 4.707-6.07 8.536-6.266 15.643 2.222 4.545 13.681-0.124 14.099 6.243-9.07 0.77-16.45-0.25-20.36-4.68z"/>
	<path d="m514.58 774.33c-10.585 11.771-30.141-21.688-14.099-26.602-3.13 11.93 1.56 25.57 14.1 26.6z"/>
	<path d="m442.55 1131.3c2.478-7.042 13.105-3.175 20.343-3.133 27.539 0.286 69.527-2.045 98.632 1.559-32.48 8.1-86.03 11.7-118.97 1.5z"/>
	<path d="m431.58 354.83c28.134 1.107 53.443 4.997 59.495 28.175h-4.681c-2.026-4.809-4.576-9.007-6.274-14.106-7.577-1.822-12.653-6.123-18.776-9.357-12.35-2.16-25.84 6.17-29.77-4.7z"/>
	<path d="m434.73 276.59c-22.444-6.164-32.028 21.623-48.529 6.244 1.759-10.281 7.946-16.072 20.332-15.685-4.873 3.991-10.156 7.554-15.643 10.974 0.84 2.255 2.354 3.852 3.133 6.225 13.188-4.546 21.193-14.23 39.13-14.047-4.504-11.015-21.604-9.108-25.042-9.437 10.318-9.357 22.113 0.471 31.309 4.707-1.91 3.37-1.7 8.77-4.69 11.03z"/>
	<path d="m361.14 284.35c1.781-4.707 9.459-0.121 9.399-9.336 4.116 1.616 5.14 6.285 4.711 12.491-6.02 0.25-11.41-0.08-14.11-3.15z"/>
	<path d="m347.64 116.08c4.116-4.135 17.815-2.723 19.759 2.376-6.654-0.696-16.095 1.473-20.331-1.577 0.19-0.27 0.39-0.52 0.57-0.8z"/>
	<path d="m312.61 292.17c4.65-15.583 34.852-15.688 42.263-7.825-10.217-0.365-20.535-3.438-28.176 1.578 4.771 3.626 16.196 0.553 23.51 1.577-7.12 7-27.41 0.78-37.59 4.67z"/>
	<path d="m320.43 129.41c8.97-6.206 14.498-15.768 26.643-18.776-2.478 1.311-4.443 3.152-6.206 5.137-5.36 6.04-9.25 13.43-20.43 13.64z"/>
	<path d="m434.73 1129.7c-56.023 2.437-115.2 1.246-161.25-10.917 6.778-7.983 23.611 0.434 37.574 1.536 35.341 2.889 69.003 2.889 104.88 3.156 6.594-0.351-0.9-4.997 4.711-6.267 6.66 2.2 15.44 2.3 14.09 12.5z"/>
	<path d="m271.9 130.94c8.436 1.021 21.66-8.333 26.616 3.152 5.735-1.024 7.332-6.267 12.532-7.821 0.655 0.922 0.655 2.127 0.203 3.317-2.681 6.571-19.246 14.904-19.002 1.352-6.12 1.66-16.74 9.21-20.35 0z"/>
	<path d="m262.52 134.1c-14.679 6.142-18.591 23.159-35.996 26.639 10.16-10.72 18.6-23.21 36-26.64z"/>
	<path d="m223.38 1126.6c-11.019 13.865-10.483 30.902-12.514 51.644 68.107 9.52 139.65 17.304 209.78 20.354 25.091 1.104 53.093-2.723 79.833-1.577 30.062 1.352 64.368 2.681 87.659 1.577 62.098-2.888 117.02-7.558 176.88-17.262 22.64-34.238-2.271-59.239-32.863-67.264-40.245-10.668-104.16-4.342-137.77-14.11-41.084 22.135-116.35 10.239-165.92 10.955-5.223-1.062-0.595-11.938-6.266-12.529-59.87 22.5-167.37-11.4-198.82 28.2zm46.96 70.4c-28.051-2.335-57.702 0.244-71.993-17.24 1.804-8.518 1.804-16.464 0-25.042 8.149-15.296 11.343-35.608 25.023-45.396 41.238-19.62 91.854-12.104 139.32-14.11 20.109-0.799 42.429-8.786 59.506 0 4.832-21.235 9.663-42.489 28.187-50.065l2.926-0.836c0.584 0.798 1.179 1.656 1.774 2.413-11.162 13.392-21.992 27.031-21.932 51.644 46.767 7.72 86.104 4.195 136.2 1.574 2.414-20.188-12.646-35.752-26.62-48.529-24.071-2.598-46.624-3.539-61.05-10.932 17.609-8.726 39.333 2.599 59.484 1.574 15.458-7.103 12.653-24.609 4.707-37.571l1.107-4.466c13.301 3.912 20.026 33.869 5.152 45.129 12.325 13.271 26.872 24.285 29.742 46.974 31.829-3.909 71.614 2.764 114.29 6.247 43.103 3.521 91.827 12.755 89.214 61.08-2.086 38.863-42.52 39.519-84.525 43.838-66.793 6.86-130.51 8.006-189.41 4.691-29.109-1.619-60.734 3.051-90.792 1.556-47.38-2.4-105.25-8.8-150.32-12.6z"/>
	<path d="m262.52 649.13c29.568 26.681 60.527 75.044 48.529 123.66-5.875 1.413-11.222 3.397-15.665 6.267 9.214 1.349 14.23-1.453 18.798-4.729 5.468-0.249 5.159 5.302 9.399 6.243 0.328-5.016-2.745-6.635-1.578-12.491 2.723 0.125 4.896-0.327 6.285-1.536 7.863-35.895-20.557-70.826-25.061-103.3-18.7 5.22-27.84-14.25-40.7-14.11zm-73.57 40.67c3.051 14.352 23.363 25.758 18.776 37.612 5.61 1.19 12.084 9.769 17.221 6.248-14.72-10.84-25.12-34.38-36-43.86zm0-4.69c-1.104-4.629-0.471-10.996-4.707-12.529 0.54 5.2 1.64 9.86 4.71 12.53zm-6.28-17.2c-1.106-10.793-0.102-36.389 14.106-31.29-7.042 4.938-7.227 16.75-7.821 28.134 21.461 50.126 58.708 103.96 114.28 104.9 3.317-4.218 6.714-12.08 6.266-20.376-2.745-52.725-60.979-128.16-111.15-114.22 14.396-12.98 40.094-4.301 51.64 0-22.357-11.14-33.455-28.36-64.172-28.217-2.37 22.01-15.29 43.65-3.16 61.08zm20.37 53.26c-19.432-18.799-46.314-75.865-20.373-114.32 0-5.242-7.535-7.656-3.114-12.552 7.517 2.008 12.266 11.264 21.913 12.552 4.052 0.493 7.166-2.561 10.974-1.537 9.911 2.501 12.652 9.095 21.909 15.583 4.24 3.031 10.442 3.031 15.643 6.308 20.621 12.92 29.426 32.638 62.617 32.845 3.852 4.074-3.378 5.855-3.111 10.974 7.167 22.342 29.915 55.695 26.62 84.567-1.453 12.49-10.197 19.966-12.532 29.753-6.081 1.352-5.551-3.871-9.399-4.771-44.496 19.943-77.954-38.926-112.72-48.487-0.78-4.96 2.8-5.52 1.57-10.9z"/>
	<path d="m167.04 188.87c1.024-2.045 2.274-3.747 3.706-5.303 10.321-10.646 30.469-9.5 41.69-16.584-11.43 11.01-30.92 13.93-45.4 21.88z"/>
	<path d="m226.53 303.19c-37.247-19.205-70.97 9.335-93.944 14.068 24.981-15.42 64.846-38.968 95.499-17.262 1.887-3.317 1.721-8.661 4.692-10.917 21.396-11.485 31.696-34.05 62.613-36.038 5.038-2.885-1.104-7.227 4.711-9.354 18.12-3.524 14.354 14.887 31.308 12.487-3.604-12.938-18.264-14.535-18.798-26.597-0.531-11.223 27.071-44.289 32.886-51.682-1.371-10.197 2.866-14.825 4.711-21.89 6.101-3.397 11.998-7.762 17.198-7.822 2.538-6.921 9.87-8.947 7.844-20.354 0.632-1.311 1.431-2.497 2.21-3.687 12.141-17.18 38.022-20.659 54.117-33.865-12.51-0.554-18.877-10.198-32.841-12.552-10.239-1.743-22.527 3.276-34.464 1.574-5.855-0.899-10.502-8.333-17.198-4.669 1.084-5.648-1.988-7.062-2.806-10.586l1.228-0.388c9.727 1.883 13.945 11.264 25.042 12.551 9.399 1.006 21.133-5.241 31.308-3.193 3.4 0.716 7.946 4.975 10.955 6.285 7.309 3.156 22.771 2.459 23.487 14.069-16.953 12.796-42.387 17.138-54.795 34.46 4.259 19.781-18.9 24.654-28.175 35.997-0.858 5.693-1.638 6.718-1.555 15.646-14.682 14.065-24.797 32.596-32.886 53.255 5.754 8.827 15.79 13.372 18.799 25.023-6.206 3.992-9.381 1.74-18.799 3.114-5.731-5.611-8.477-13.865-17.221-12.514 0.268 3.973 0.328 7.577-3.133 7.821-30.446 5.021-44.861 26.108-64.172 42.264 3.441 13.884-8.417 40.624 9.38 43.863 3.54 0.674 19.963-6.433 12.529-12.556 3.77-0.633 3.4 2.889 7.821 1.578 3.788-7.227 7.046-17.732 7.825-23.464 17.627-2.663 32.697 5.61 32.882 25.042 9.072-3.502 21.397 6.081 34.441 7.821 4.177 3.604-1.043 12.021 1.556 14.106 15.605 3.954 33.338 13.045 53.24 10.954-12.145 7.743-26.353 4.896-39.314-0.12-7.249-2.889-14.171-6.451-20.192-9.275-2.003-3.728-0.632-10.875-3.11-14.087-14.867 0-38.617-1.209-36.019-23.469-6.12-3.031-10.051-8.375-18.776-4.669-3.234 14.908-15.519 35.774-34.441 32.845-17.49-2.76-14.54-24.69-15.64-43.81z"/>
	<path d="m691.45 847.94c1.822 11.734 3.126 23.958 10.954 29.754 3.4-6.512 8.09-11.734 14.1-15.685-3.85-9.728 2.357-16.709 1.566-25.042-11.16 1.37-12.46 12.55-26.62 10.98zm-10.95 31.33c-3.469 16.216 9.572 14.826 17.231 9.377v-9.377c-7.31-1.73-12.34 4.07-17.23 0zm-1.56-43.82c-4.504 4.339-11.485 6.161-18.799 7.822 12.193 7.595 15.922 23.709 28.187 31.267-4.57-10.92-5.21-28.22-9.39-39.09zm-211.34 89.19c-3.216 26.518-13.444 46.073-12.521 76.704 30.713-8.149 56.012-5.178 86.081-3.133-9.851-27.498-3.901-76.848-31.297-84.526-11.02-3.11-31.57 3.57-42.26 11zm-62.64-469.64c0.614 8.619 0.614 8.536 0 17.197 16.257 16.238 26.044 32.19 46.981 45.438-0.196 3.83-0.256 7.555 1.566 9.399 12.51 4.157 20.73 12.611 29.73 20.354 28.074 1.514 47.893 10.156 70.461 9.376 15.375 53.974 28.032 82.763 32.883 142.43 18.512 12.45 9.328 45.46 25.042 64.214 15.319 18.226 42.583 23.404 59.476-1.574-33.785-6.839-6.338-40.154-15.646-65.75 6.719-14.701 22.105-20.64 21.909-42.285 11.603-6.673 17.815-18.693 25.042-29.708-2.402-2.293-1.359-8.07-1.555-12.532 15.205-10.073 18.398-29.795 14.099-51.644 4.3-15.416 21.183-20.944 29.72-32.882 11.161-15.605 20.098-47.568 17.231-68.901-0.851-6.616-5.927-12.021-6.255-18.78-0.666-13.184 7.494-22.236 9.377-34.419 2.09-13.349-4.748-25.757-3.122-39.152-14.754-3.05-20.938-8.375-32.875-10.954-32.147-7.103-60.915 22.015-81.393 0-48.077 16.606-94.016 35.383-140.89 53.198-2.949 7.269 5.283 11.302 1.559 14.106-5.027-1.431-4.108-6.797-9.388-10.954-30.03 15.87-64.24 27.56-93.95 43.8zm-108-396.06c-10.77 13.312-44.884 11.388-40.707 34.423 37.454-19.556 77.812-44.067 122.12-51.621-9.215-10.608-25.78 2.497-39.153 4.67-6.266 1.021-10.77-2.562-15.643 1.555-5.754-4.319-8.231-4.116-15.665-4.669v-6.244c-13.29 3.051-0.306 14.065 0 21.887-6.45 0.391-6.06-2.087-10.96-1e-3zm-10.97 455.6c-60.448 33.602-130.11 52.252-175.32 97.016 9.787 12.611 11.67 33.191 23.465 43.818 1.393 21.788 15.601 33.582 32.904 50.106 29.343 27.991 45.068 43.08 76.686 70.416 25.062 21.664 56.965 39.562 86.123 53.239 7.697 3.582 13.104 1.639 20.354 3.111 8.066 1.66 16.893 7.392 26.598 9.44 11.079 2.252 22.707 2.067 34.441 4.669 21.582 4.893 42.323 15.335 62.605 17.221 30.272 2.844 61.973-5.776 82.982-7.821 5.351-0.512 10.043 1.902 15.65 1.556 27.4-1.556 46.962-14.046 70.442-21.868 8.608-2.91 18.396-3.196 26.608-6.308 26.812-10.114 51.802-31.188 76.701-48.57 42.809-29.794 79.009-67.019 106.59-111.56 11.674-18.837 21.841-38.965 30.276-60.485 14.22-35.997 23.607-75.721 27.521-119.07 7.237-80.327-5.814-148.41-34.431-209.78-75.148 18.961-151.14 48.119-217.61 75.146 20.96 8.028 43.577-10.974 72.017-6.267 7.117 1.168 35.221 8.643 39.129 17.221 9.787 21.134-7.041 56.271-6.266 73.571 0.278 5.98 4.056 12.122 4.711 17.202 6.838 54.058-29.026 80.041-46.975 108.03 12.277 27.173-15.774 41.117-12.51 64.172-19.574 19.043-31.062 46.152-46.974 68.863 8.225 16.524-3.521 30.469-1.566 50.104 1.566 7.863 14.295 4.545 15.665 12.532 2.859 4.033-2.877 9.87-3.133 15.644-16.309 6.247-30.6 14.415-50.096 6.247-3.205-6.123-10.83-8.213-15.662-14.069-10.494-12.754-7.957-30.058-14.087-50.065-2.87-9.357-11.15-15.213-12.521-20.392-2.222-8.213 1.566-16.874 0-25.042-2.019-10.71-8.48-22.218-10.955-34.423-5.604-27.949-11.941-50.472-20.354-73.57-21.593-9.972-48.141-4.237-68.883-12.532-13.044-5.178-19.627-19.246-32.856-20.35-0.275-14.457-12.939-13.188-18.795-21.932-2.21-3.317-1.702-9.645-3.114-10.955-2.497-2.169-8.375-0.388-10.974-3.114-1.883-2.003 3.438-4.074 3.133-4.707-2.357-4.688-18.531-7.862-18.776-15.605-1.107-7.779-0.678-10.073-1.578-15.726-37.57 16.75-74.55 34.46-111.16 54.87zm-178.43-225.46c4.628 5.735 9.953 15.892 7.821 23.445 4.056 1.066 7.821 2.357 10.363 4.896 0.858 0.858 1.639 1.781 2.169 2.968-1.514 16.75 10.424 27.81 18.758 37.574 4.975 5.796 6.921 12.473 9.418 14.069 7.411 4.892 23.404 0.858 34.419 4.669 5.754 2.045 6.985 5.875 10.958 6.304 6.839 0.761 18.079-4.628 26.616-3.151 8.089 1.412 12.449 8.172 18.799 7.821 11.794-0.633 19.676-14.539 28.175-17.198 27.234 0.799 52.747-0.534 75.394 7.208 6.963 2.372 13.7 5.569 20.087 9.99 15.13-1.536 31.512-21.664 37.574-1.536-2.621 3.626-4.097 8.375-4.711 14.068 10.442 15.519 1.19 30.736-3.11 45.396 31.696-10.548 68.277-29.754 101.75-43.818 0-4.157-0.851-9.174 3.122-9.399 5.814-0.576 4.116 6.346 10.955 4.729 40.655-16.791 79.856-35.077 125.24-47.015-3.258-17.628-36.912-35.771-53.222-35.937-17.156-0.223-34.521 13.413-54.803 7.803-18.847 23.547-43.234-7.125-71.993-1.578-19.978 3.83-39.921 14.807-54.807 25.046-1.574 4.38 7.064 14.31-4.688 14.31-0.9 0-1.966-0.079-3.11-0.203 5.2-6.409-3.543-12.122 0-17.239 19.616-13.312 39.518-23.589 62.605-28.138 24.315-4.892 34.441 9.727 56.358 12.49 6.391-13.82 26.865-8.412 42.263-10.973 13.617-2.211 23.08-8.07 36.008-6.248 24.971 3.525 39.183 21.175 56.343 36.001 74.697-22.402 137.13-56.987 219.17-71.997-11.741-20.045-23.475-40.38-36.057-59.872-18.215-28.442-38.294-55.469-62.824-78.075-9.143-8.457-18.93-16.279-29.485-23.344-12.706-8.477-26.281-16.44-39.142-23.445-57.72-31.282-135.68-44.368-208.2-50.062-55.522-4.421-109.33 3.562-150.29 25.023l-1.228 0.388c-0.207-0.591-0.35-1.228-0.35-1.984-32.005 8.149-55.225 25.061-81.393 39.13-3.253 3.4-4.443-0.757-9.399 0-29.546 25.494-58.644 51.293-83.87 81.046-25.81 30.34-47.62 64.72-61.69 106.84zm0 7.82c-12.141 13.165-16.054 34.849-20.354 54.772-16.788 77.563-10.854 185.25 18.798 248.91h4.67c21.069-21.702 45.087-32.208 73.571-43.817 34.133-13.843 68.879-33.989 101.75-53.236 34.931-20.312 72.524-32.559 106.48-50.106-1.518-16.75 17.525-37.104 3.133-53.218 0.776-5.693 6.53-12.287 3.133-17.202-7.904 0.166-19.454 9.524-31.331 10.955-6.184-10.996-27.991-6.447-34.441-17.259-20.211-2.621-38.087 4.688-54.772 0-11.282 2.004-21.808 17.138-36.02 17.259-4.832 0.041-9.049-4.892-15.643-6.285-8.273-1.698-18.716 2.538-26.62 1.578-6.451-0.757-10.771-6.206-17.24-7.821-13.104-3.276-29.526 0.941-37.552-9.399-3.77-17.078-19.228-22.485-23.486-39.13 0.263-7.106 1.31-6.123 0-12.514-12.06-0.44-11.74-13.32-14.07-23.48zm-50.104 208.2c2.885 18.411 13.369 37.861 18.776 57.928 17.156 62.985 40.889 115.38 76.704 154.98 50.759 56.064 110.81 98 176.92 133.04 48.894 11.878 100.17 25.615 154.95 31.309 53.176 5.486 111.03-11.181 151.87-21.932 6.891-1.781 15.714 0.083 20.342-6.243-11.741-8.805-27.282-2.091-39.129 1.577-13.444 4.112-26.098 10.831-40.708 12.529-37.97 4.425-83.366 12.532-120.53 4.669-16.757-3.479-33.221-11.979-50.114-15.643-19.842-4.281-40.644-4.074-59.461-9.381-33.398-9.396-67.923-32.31-95.522-53.259-22.033-16.728-43.821-32.25-61.042-50.062-20.022-20.682-49.614-43.859-62.595-67.305-3.479-6.331-6.284-13.903-9.418-20.377-3.234-6.756-7.742-12.449-10.936-18.776-44.64-89.03-55.267-223.46-23.507-325.64 18.716-60.157 52.378-115.71 92.389-154.94 14.6-14.271 27.645-31.226 40.708-42.244 10.544-8.966 24.507-9.294 26.578-26.639-17.653 3.521-30.593 19.205-43.821 31.309-60.47 54.95-111.86 122.91-134.66 214.46-9.357 37.822-14.863 75.006-10.932 109.59 2.155 19.13 0.065 41.02 3.138 61.04zm-15.665-258.3c8.864-27.253 29.896-55.04 48.529-78.282 20.433-25.37 37.962-50.883 57.947-68.902 9.049-8.148 23.2-14.456 35.978-23.404 22.256-15.643 44.861-32.005 70.457-47.011 24.327-14.272 79.777-52.276 100.17-9.399 0.738 5.916-14.208 8.333-17.198 15.684 11.877 2.128 42.711-17.548 50.084 3.152 7.577-4.666 16.791-9.132 25.042-9.437 25.84-0.761 55.451-4.508 84.548-3.092 13.369 0.633 26.025 5.607 40.696 7.821 13.832 2.067 29.494 0.96 42.263 3.133 19.634 3.276 37.899 14.415 57.924 12.491 74.279 25.001 148.4 66.097 190.98 131.5 14.291 21.932 30.265 43.061 43.829 64.213 8.221 12.759 12.254 27.377 18.776 43.818 5.498 13.76 13.587 24.861 17.231 39.134 3.789 14.536 4.361 30.058 7.834 46.929 1.238 6.164 5.26 12.246 6.254 18.817 7.043 45.866-1.363 90.321-4.688 136.17-0.471 6.797-1.518 15.297-3.145 21.928-12.909 51.685-36.652 103.1-65.738 142.45-9.973 13.516-20.414 28.526-29.742 39.153-24.922 28.295-60.282 47.768-86.104 75.126-14.477 8.024-38.351 14.743-43.83 26.661 7.75 6.368 33.327-24.101 40.697 0 1.035 3.355-0.776 23.834-1.567 26.557-4.236 14.271-26.292 18.817-21.909 34.419-10.382 5.407-30.725 11.019-37.582-1.533-5.867 0-10.096 8.967-14.08 1.533-32.875 18.226-78.934 23.385-118.97 34.464 4.086 21.212 15.255 47.647 9.388 68.901 0.392 0.083 0.791 0.125 1.107 0.245l-1.107 4.466c-32.291 3.642-60.003-2.334-93.933 4.666-8.273 11.919-5.528 24.963 1.371 35.161l-2.926 0.836c-6.277-4.154-10.699-10.194-14.099-17.198 12.717-34.092 11.825-72.814 23.487-106.48-91.184-5.468-172.9-33.644-227-81.374-38.479-14.023-66.653-49.715-93.925-78.278-41.068-43.1-89.473-100.64-107.98-164.38-9.479-32.555-13.452-67.752-20.373-104.94-6.575-35.526-14.803-74.573-7.821-109.55 7.821-39.106 24.327-76.58 36.016-115.85 1.96-6.59 1.019-14.03 3.109-20.35zm50.103-62.62c-25.043 31.719-36.141 64.052-50.104 106.48-6.718 20.396-20.15 47.976-21.909 64.172-4.383 41.261-10.955 72.362-4.711 112.7 11.938 76.97 32.887 155.37 67.329 211.35 16.584 19.801 33.661 39.808 51.066 59.363 18.204 20.535 36.735 40.542 55.387 59.627 16.772 17.036 39.254 28.093 59.483 40.666 9.196 5.754 16.833 13.945 26.62 20.312 22.893 15.048 57.21 17.729 76.705 32.905 36.569 8.231 78.855 17.586 112.7 23.506 11.414-17.65 45.272-7.494 64.191-7.821-0.06 4.748-6.662 8.966 1.559 9.376 44.485 0.268 97.19-24.119 139.32-31.308 1.566-12.122-2.214-26.948-7.825-26.658-5.874 8.454-45.659 19.002-68.879 23.506-73.112 14.148-155.89 6.451-219.16-12.532-17.017-5.058-35.936-6.636-48.529-10.974-36.14-12.228-62.289-42.53-92.366-53.198-30.921-25.679-60.448-50.107-85.758-79.183-11.485-13.165-22.135-27.316-31.636-42.918-30.796-50.412-49.264-109.88-65.75-173.78-3.419-13.045 0.596-27.501-1.573-40.666-1.311-7.78-6.922-14.498-7.822-23.506-3.4-32.518 4.564-75.703 12.529-109.57 22.277-94.889 82.315-171.18 144.01-226.98 14.027-12.675 47.159-39.784 62.617-45.396 3.728-1.394 11.161 0.858 17.221-1.597 6.797-2.644 8.805-7.863 15.643-9.357 2.09-6.798-0.162-19.127 7.845-23.506 12.901 0.388 34.829 7.554 39.129-10.955-31.74-19.318-64.15 13.281-92.33 28.168-14.374 7.554-28.789 16.275-42.285 26.597-14.024 10.71-29.012 18.652-40.686 28.176-29.36 24.02-48.61 53.38-72.016 82.99z"/>

<metadata><rdf:RDF><cc:Work><dc:format>image/svg+xml</dc:format><dc:type rdf:resource="http://purl.org/dc/dcmitype/StillImage"/><cc:license rdf:resource="http://creativecommons.org/licenses/publicdomain/"/><dc:publisher><cc:Agent rdf:about="http://openclipart.org/"><dc:title>Openclipart</dc:title></cc:Agent></dc:publisher><dc:title>Globe</dc:title><dc:date>2007-10-12T22:39:31</dc:date><dc:description>Color drawing of a globe with wooden stand</dc:description><dc:source>https://openclipart.org/detail/6811/globe-by-stevelambert</dc:source><dc:creator><cc:Agent><dc:title>SteveLambert</dc:title></cc:Agent></dc:creator><dc:subject><rdf:Bag><rdf:li>earth</rdf:li><rdf:li>globe</rdf:li></rdf:Bag></dc:subject></cc:Work><cc:License rdf:about="http://creativecommons.org/licenses/publicdomain/"><cc:permits rdf:resource="http://creativecommons.org/ns#Reproduction"/><cc:permits rdf:resource="http://creativecommons.org/ns#Distribution"/><cc:permits rdf:resource="http://creativecommons.org/ns#DerivativeWorks"/></cc:License></rdf:RDF></metadata></svg>
