<?xml version="1.0" encoding="UTF-8"?>
<!-- Created with Inkscape (http://www.inkscape.org/) -->
<svg id="svg3260" version="1.0" viewBox="0 0 1185.4 650" xmlns="http://www.w3.org/2000/svg" xmlns:cc="http://web.resource.org/cc/" xmlns:dc="http://purl.org/dc/elements/1.1/" xmlns:rdf="http://www.w3.org/1999/02/22-rdf-syntax-ns#">
 <defs id="defs3262">
  <filter id="filter12042" x="-.18012" y="-.053863" width="1.3602" height="1.1077">
   <feGaussianBlur id="feGaussianBlur12044" stdDeviation="2.0350524"/>
  </filter>
  <filter id="filter11712">
   <feGaussianBlur id="feGaussianBlur11714" stdDeviation="1.4096254"/>
  </filter>
  <filter id="filter11658">
   <feGaussianBlur id="feGaussianBlur11660" stdDeviation="1.2532922"/>
  </filter>
  <filter id="filter11634">
   <feGaussianBlur id="feGaussianBlur11636" stdDeviation="1.4009267"/>
  </filter>
  <filter id="filter11606" x="-.1185" y="-.058187" width="1.237" height="1.1164">
   <feGaussianBlur id="feGaussianBlur11608" stdDeviation="1.5932381"/>
  </filter>
  <filter id="filter11340" x="-.078886" y="-.11233" width="1.1578" height="1.2247">
   <feGaussianBlur id="feGaussianBlur11342" stdDeviation="1.4592124"/>
  </filter>
  <filter id="filter11262" x="-.076727" y="-.11702" width="1.1535" height="1.234">
   <feGaussianBlur id="feGaussianBlur11264" stdDeviation="1.5208849"/>
  </filter>
  <filter id="filter6084" x="-.21437" y="-.43775" width="1.4287" height="1.8755">
   <feGaussianBlur id="feGaussianBlur6086" stdDeviation="43.410569"/>
  </filter>
  <filter id="filter11878" x="-.12519" y="-.16259" width="1.2504" height="1.3252">
   <feGaussianBlur id="feGaussianBlur11880" stdDeviation="29.582718"/>
  </filter>
 </defs>
 <g id="layer2">
  <g id="g2198" transform="translate(0,20)" fill-rule="evenodd">
   <path id="path2221" transform="translate(-227.29 -56.818)" d="m681.65 394.42s2.22-102.5-75.21-154.11c-77.43-51.62-160.39-65.18-214.14-47.34-53.75 17.85-80.09 69.07-122.35 105.34s-51.4 70.22-34.99 160.39c16.4 90.17 52.75 120.2 97.58 142.8 44.83 22.59 78.47 20.92 120.43 20.45s116.65-5.95 179.41-19.87c62.76-13.93 122.52-10.7 146.9-43.31 24.37-32.61 15.06-67.18 1.48-93.62s-94.97-70.29-99.11-70.73z" fill="#d8f8ff" filter="url(#filter11878)"/>
   <path id="path2223" transform="translate(-227.29 -56.818)" d="m797.3 473.77-97-55-51 17-46 29-37-48-89 2-41-34-67 32-49 47 65 43-69 52 65 17 36 25 132-38 48 60 53-18 52-52 62 39 38-98-5-20z" fill="#00f" filter="url(#filter6084)" opacity=".43496"/>
   <path id="path2225" transform="translate(-227.29 -56.818)" d="m689.36 224.52-11.97 34.1-9.67 57.78 7.19 65.72 24.63 52.7 27.2 31.78 20.07 14.98 10.31 13.27 48.97-26.26 46.22-16.03 42 3.59 38.79 19.66 25.2 24.05 72.5-15.85 12.7-4.61 12.6 1.01 206.6-52.48 16.9-11.06 14.3-64.78-25.5-97.17-32.7-71.31-65.8-66.7-22.6-11.76-59.4-1.23-135.91 19.15-45.49 3.19-67.85 19.3-86.27 35.22-54.88 32.1-8.14 11.64z" fill="#ff7423"/>
   <path id="path2227" transform="translate(-227.29 -56.818)" d="m1064.5 438.56-9.3 40.33 8.1 42.11 8.9 17.01 36.8 17.27 44-0.33 48.2-24.99 33.3-51.72 1.1-38.3-10.9-36.27-27.8-30.69-34.5-3.74-48.8 18.47-28.6 21.18-15.6 17.84-4.9 11.83z" fill="#4d4d4d"/>
   <path id="path2229" transform="translate(-227.29 -56.818)" d="m860.45 453.21-38.3 6.53-41.44 22.45-4.35 21.4-15.01 37.43 1.21 23.94 10.23 13.82 40.61 13.82 55.06 2.83 46.7-10.63 35.17-29.38 4.7-26.84-1.56-21.51 3.39-9.93-36.78-28.69-37.6-15.2-22.03-0.04z" fill="#4d4d4d"/>
   <path id="path2231" transform="translate(-227.29 -56.818)" d="m885.22 465.72-26.64-4.2-32.95 9.79-18.5 34.42 3.09 25.46 6.88 13.13 25.77 16.29 31.6 0.44 31.47-20.86 9.01-34.46-9.8-27.82s17.06 12.7 0 0c-17.06-12.69-20.76-10.59-19.93-12.19z" fill="#999"/>
   <path id="path2233" transform="translate(-227.29 -56.818)" d="m1168.9 406.78-23.3-1.37-24.7 7.54-21.9 26.91-6.9 30.18 2.5 22.34 22.5 16.94h37l31.1-21.43 14.6-31.89-5.5-26.87-15-18.94s9.7 4.68 0 0c-9.6-4.68-9.8-3.33-10.4-3.41z" fill="#999"/>
   <path id="path2235" transform="translate(-227.29 -56.818)" d="m726.09 465.22-29.51 2.32s18.46-12.91 0 0c-18.45 12.91-19.41 22.49-19.41 22.49l8.09 17.99 24.77 17.66 28.68-1.96s-16.49 21.04 0 0c16.5-21.03 14.37-36.3 14.37-36.3l-26.99-22.2z" fill="#ffe680"/>
   <path id="path2237" transform="translate(-227.29 -56.818)" d="m1310.2 350.71-13.2 0.69-21.2 13.02-10.8 22.71s5-16.33 0-0.33c-6.1 19.47 11.4 32.15 13.7 31.05l23.2-1.09 20.7-20.42 2.1-28.29s12 17.81 0 0c-11.9-17.81-13.5-14.87-14.5-17.34z" fill="#ffe680"/>
   <path id="path2239" transform="translate(-227.29 -56.818)" d="m673.64 180.09 18.59 43.16 47.01-35.83 75.51-31.27c18.41-12.89 39.18-17.67 59.59-20.53l57.19-15.38 49.36-0.4 29.01-5.55 0.5-46.858-57.46 6.312-64.63 13.021-68.64 23.105-56.58 24.66-52.71 28.04-36.74 17.52z" fill="#fea"/>
   <path id="path2241" transform="translate(-227.29 -56.818)" d="m1019.3 73.236 8.9 39.684 68.2-7.19 54.5 1.06-4.3-40.41-37.9-6.274-45.8 1.922-43.6 11.208z" fill="#fea"/>
   <path id="path2243" transform="translate(-227.29 -56.818)" d="m950.33 508.16 7.49 13.1 34.95-6.13 57.13-12.37 13.5-12.81s4 9.07 0 0c-4.1-9.06-24.8-11.39-24.8-11.39l-36.8 8.31-36.76 11.1s13.36-6.6 0 0-14.75 11.13-14.71 10.19z" fill="#784421"/>
   <path id="path2245" transform="translate(-227.29 -56.818)" d="m1040.3 326.63-4.4 22.95 47.6-8.92-7.2-22.27-36 8.24z" fill="#e3dedb" filter="url(#filter11262)"/>
   <path id="path2247" transform="translate(-227.29 -56.818)" d="m1131 300.76-2.2 20.68 18.7-0.69 24.7-13.49-7.3-16-33.9 9.5z" fill="#e3dedb" filter="url(#filter11340)"/>
   <path id="path2249" transform="translate(-227.29 -56.818)" d="m1276.6 267.68-16.2 2.94-2.7 22.38 12.3 24.3 18.4 3.7s-3.3 25.65 0 0c3.3-25.64-9.6-52.63-11.8-53.32z" fill="#ff0" filter="url(#filter11606)"/>
   <path id="path2251" transform="translate(-227.29 -56.818)" d="m736.58 240.77-4.05 67.28-8.57 27.06 11.4 7.98 134.36-42.58 2.7-40.62-10.66-42.48-42.09-1.56-83.09 24.92z" fill="#aef" filter="url(#filter11634)"/>
   <path id="path2253" transform="translate(-227.29 -56.818)" d="m909.2 207.12-3.44 42.69 21.63 44.54 16.8 13.17 75.31-20.42 51.5-43.96-4.2-47.66-13.4-31.05-18.9 0.73c-42.58 9.67-85.04 20.05-125.3 41.96z" fill="#aef" filter="url(#filter11658)"/>
   <path id="path2255" transform="translate(-227.29 -56.818)" d="m1096.4 158.08 49.4-13.67 24.2 0.61 26.5 18.76 37.7 48.13 13.4 25.53-30.1 16.33-47.5 16.28-37.1-0.87-23.3-34.17-13.8-45.37 0.6-31.56z" fill="#aef" filter="url(#filter11712)"/>
   <path id="path2257" transform="translate(-227.29 -56.818)" d="m868.29 494.97-15.32-1.53-16.8 9.18-2.35 16.61 16.01 13.78s-16.41 4.86 0 0 25.59-19.44 25.59-19.44l0.35-12.18s7.58 5.55 0 0c-7.57-5.55-8.61-2.94-7.48-6.42z" fill="#e6e6e6"/>
   <path id="path2259" transform="translate(-227.29 -56.818)" d="m1148 440.45-17.4 4.93s9.6-10.04 0 0c-9.6 10.05-7.9 24.99-7.9 24.99l9.1 7.91 18.3-5.19 6.6-14.03s7.5 17.37-0.3 0c-7.8-17.38-6.9-17.34-8.4-18.61z" fill="#e6e6e6"/>
   <path id="path2261" transform="translate(-227.29 -56.818)" d="m722.75 244.13-23.19 16.73-3.92 28.94c0.98 13.81-1.1 31.65 8.01 34.78l3.22 10.23 8.4-26.77c10.81-27.7 6.6-43.84 7.48-63.91z" fill="#803300" filter="url(#filter12042)"/>
  </g>
 </g>
 <g id="layer1" transform="translate(-227.29 -56.818)">
  <path id="path10727" d="m1087.6 76.822c-11.8 0.061-23.4 0.879-32.8 2.531-20.8 1.423-31.5 3.155-36.1 9.094-0.2-0.136-0.3 0.037-0.4 0.562-4.3 6.497-2 17.751 2.7 38.221 1.3 0.99 2.4 1.56 3.4 1.87-4.7 0.6-9.4 1.21-14.2 1.82-0.1-2.2-0.4-4.3-0.2-4.44-0.4-0.3-0.7-0.56-1-0.81 2.4-8.78 6.8-25.79 2.5-32.848-1.1-2.327-2-3.897-2.7-5.063-0.1 0.571-0.4 1.526-0.8 2.75 0.1 0.274 0.2 0.616 0.2 0.844 0-0.062-0.2-0.645-0.2-0.75-2.3 7.325-7.4 24.347-2.9 32.567-3.2-1.03 0.2 5.37 1.3 8.25-0.4 0.05-0.9 0.1-1.3 0.15-0.5-0.53-1.1-1.19-2-2.15 0.6 0.85 1.1 1.54 1.6 2.21-27.31 3.55-54.52 7.29-81.58 11.25 0.03 0.1 0.03 0.19 0.06 0.29-57.53 4.78-113.41 26.11-165.28 51.18-19.8 8.48-53.5 28.17-67.03 40.28-1.83-8.34-6.61-21.09-11.25-25.9-14.16-7.86 0.48 16.17 2 19.75 2.24 4.48 4.04 7.72 5.47 9.94-1.35 1.6-2.12 2.98-2.13 4.03-3.97-1.65-0.05 5.36 1.94 9.12-17.13 14.46-22.05 67.59-21.87 98.38 2.21 45.74 22.24 112.51 57.87 132.28-28.72-37.48-51.16-81.89-51.81-130.13-0.74-15.83 0.59-31.71 3.28-47.37 1.87 27.86-2.31 73.35 25.06 65.25 26.89-25.98 20.04-68.05 27.75-101.13-12.3-7.99-7.58 17.95-9.5 23.13 2.1 12.06-5.58 38.74-14.06 56.19-1.69-8.54-3.91-20.38-4.94-32.47l2.82 2 1.12-0.47c21.29-11.66 8.38-17.76-3.97-1.85-0.47-5.69-0.65-11.31-0.34-16.43 2.2 1.68 5.7-1.46 3.72-4.22 24.62-5.73 6-13.9-3.32-0.25 1.06-8.25 3.71-14.63 9.03-17-25.73 11.61-11.08 50.23-5.37 73.12-8.41 16.25-17.16 22.43-17.72-4.4-13.6-38.68 2.11-79.29 42.47-85.72 5.5-8.87-30.45-1.39-46.47 15.94 2.78-10.39 5.99-20.62 9.41-30.57-0.06-0.04-0.1-0.08-0.16-0.12 0.27-0.36 0.52-0.74 0.72-1.16 40.58-35.62 92.71-55.85 142.91-74.81 27.63-13.9 66.6-11.13 90.06-25.5 2.57 5.88 6.72-6.07 8.22 0.84 66.13-3.49 131.29-22.06 197.89-17.62 15.8 0.79 21.4 0.22 20.5-0.88 3.3-3.08 2.7-28.298-1.2-37.841 0.3-7.449-31.2-12.094-61.4-11.937zm-79.6 13.781v-0.094c-0.1-0.424-0.2-0.836-0.4-1.312 0 0.029 0 0.065-0.1 0.093 0.1 0.329 0.4 1.13 0.5 1.313zm-0.5-1.313c-0.4-1.114-0.4-1.161-1.5-4.437-71.9 4.501-142.95 21.257-209.6 48.497-42.03 20.77-87.99 36.58-124.37 66.91l2.87 1.94 2.94 0.12c77.3-45.59 161.1-82.9 249.9-99.5 23.41-7.297 70.57-5.126 79.76-13.53zm0.1-0.093c0.2-0.165 0.3-0.328 0.5-0.5 0.3-0.562 0.5-0.893 0.6-1.157-2.5-4.243-1.9-1.204-1.1 1.657zm1.1-1.657c0.1 0.064 0.1 0.152 0.1 0.219 0.2-0.705 0.3-0.822-0.1-0.219zm71.5-2.125c26.2-0.168 54.4 3.054 63 2.063-0.9 4.093 2 17.232-0.5 24.692 2 7.15 3.6 11.35 5 13.34-10.9-3.26-53.3-8.13-72.9-2.56-15.8 1.86-31.6 3.79-47.4 5.78 4.1-3.8-1.4-23.67-5.4-34.033 4.5-0.421 13-4.585 22.2-5.25 9.5-2.959 22.5-3.945 36-4.032zm71.3 39.965 1.6 4.19 3.4 2.16c-1.8-10.44 0.3 2.97 8.7 6 3.1-1.38 49.4 43.93 49.1 46.03 10 12.54 44.3 55.78 49.9 88.19 4.2 8.02 6.1 11.47 7 12.72-29.8-5.2-14.1 64.62 7.8 54.5 2.4 1.52 3.7 2.35 4.6 2.96-0.7-0.83-0.3-1.63 6.5 0.16 24.7-21.29-29.6-72.7-12.7-51.06-2.2-9.82 16.9 58.71 6.8 47.22-14.4 8.11-39.7-48.57-9.1-48.75l-2.9-4.85c-0.2-0.04-0.4-0.06-0.5-0.09-0.5-1.55-2.2-5.45 1.3 1.41-3.5-7.76 7.2 4.08-5.6-26.82-7.5-30.44-52.4-80.9-46.7-75.18-24.9-30.23-43.6-46.07-69.2-58.79zm132.1 216.75c0.7 0.83 2.2 1.54 0 0zm-136.7-181.75c-16.8 0.32-34.1 5.64-49.8 14.6 19.6 9.59 39.3-8.53 59.1-9.22 26.6 0.02 66 46.01 81.4 77.72 2.2 10.32 6 13.76 8.9 14.84-0.1-0.67-0.2-1.02-0.3-1.87 0.4 0.79 0.7 1.48 1 2.12 3.3 0.86 5-1.14 0.8 1.88 0.1 0.13 0.1 0.25 0.2 0.37 1.1 0.39 2.4 0.91 4 1.6 3.5-4.78-20.8-49.6-42.7-67.25-14.8-25.07-38.1-35.25-62.6-34.79zm101.3 100.44c-0.2-0.05-0.3-0.11-0.5-0.15 0.1-0.08 0.2-0.15 0.3-0.22-0.2-0.54-0.4-1.18-0.8-1.88-0.2-0.06-0.4-0.16-0.7-0.25 0.2 0.75 0.3 1.54 0.4 2.1-0.4-1.37-0.8-2.22-1-0.29-8.4-2.02 4.9 8.84 2.3 0.69zm-198.4-88.03c-55.93 5.07-111.18 22.58-161.68 47l0.75 0.78 1.63 1.66c35.18-16.36 72.07-29.18 110-37.6 12.1-5.21 81.8-9.5 49.3-11.84zm33.9 4.38c0.4 53.52 10.5 106.6 26.2 157.65 3.4 9.69 21.4 72.43 19.6 42.97-24.7-63.51-39.9-130.88-43-199.06l-0.8-0.44v-0.03l-2-1.09zm13.1 0.68c-8.2 0.33-3.4 29.88 0.4 46.69-0.3 16.49 28.1 70.89 33.1 59.16 0.3 8.77 1.7 9.12 2 6.12 1.8 3.21 5.5 1.71 8.8 0.78 26.7 8.18 95.3-10.08 97.8-33.56-32.3 16.89-69.4 33.17-106.8 28.25-0.7-4.27-2.9-9.69-8.3-12.72-18.3-26.62-26-66.15-24-93.84-1.1-0.64-2.1-0.91-3-0.88zm67.2 1.03c10.6 27.41 27.1 58.35 40.7 86.75 8.2-14.29-24.6-58.64-33.5-83.81l-7.2-2.94zm-93.3 0.29c-1.8 11.52-1 26.44 1 42.4-6-26.31-18.2-50.97-48.5-35.87-39.97 9.96-86.15 13.35-118.52 41.06 11.69 10.86-0.62-7.74 14.53-2.19 38.41-18.5 81.29-28.54 123.29-32.97 16.7-22.84 24.2 40.96 25.9 65.57-0.3 3.83-0.5 6.86-0.4 9.25-7.5 3.32-30.7 23.72-48.6 32.34-18.6 13.59-72.54 19.29-81 23.22-16.34-14.6-34.74-58.9-27.12-88.63-20.5 7.52-1.77 72.2 21.81 89.78 0.6-0.03 1.02-0.08 1.5-0.12 1.24 0.53 3.31 1.2 6.87 2.12-4.56 8 71.64-8.49 91.74-23.65 18.5-2.47 30.7-25.53 35-32.22 1.3 10.48 8.1-0.22 8.9-12.53 1.9 10.92 3.9 21.59 5.6 31.22 11.7 37.16 9.5 80.36 32 113.28-20.8-72.59-37.9-146.65-44-222.06zm-32 36.37c-36.4 0.39-87.19 26.34-123.11 40.69 10.85 5.65 22.85 0.32 33.03-3.97 32.39-20.81 71.68-21.7 106.68-34.69-5-1.47-10.6-2.09-16.6-2.03zm-604.83 2.53c-22.91 1.08-42.3 12.23-60.31 25.38-6.65 4.88-12.04 11.12-17.44 17.28l0.16 0.12c5.4-6.16 11.06-12.04 17.72-16.9 18.25-12.7 38.15-22.65 60.74-24.16 21.82-0.18 43.38 2.92 62.6 14 9.94 6.9 18.78 14.74 11.66 27.5-0.01 0.01-0.03 0.02-0.04 0.03-3.75-0.2-7.54-0.33-11.31-0.37-9.73 0.7-22.1 1.61-27.59 10.84 0.15 8.57 7.11 9.87 14.31 9.41 10.73-2.04 18.77-9.04 25.34-17.28 15.38 0.73 30.58 3.3 45.35 8.03 12.17 4.25 26.42 8.85 34.28 19.78 2.92 9.83-3.82 16.16-11.53 21.56-0.12 0.08-0.26 0.14-0.38 0.22-3.87 0.36-7.72 1.12-11.53 2.16-5.65 2.23-8.57 3.68-2.4 7.93 5.78-0.39 10.55-3.51 15.28-6.59 6.19-0.58 12.42-0.05 18.59 1.72 10.44 3.5 20.57 8.36 27.94 16.81 4.63 6.4 8.43 13.1 3.12 20.41-3.47 3.83-7.37 7.16-12.37 8.78 0 0-0.06 0.1-0.06 0.12-0.08 0.01-0.15 0.02-0.22 0.03-3.05 0.63-2.04 1.43-0.44 2.16-0.13 1.13 0.27 2.12 2.62 1.47 5.77-1.04 11.57-1.41 17.28 0.31 7.36 2.58 13.59 6.42 18.41 12.66 5.62 6.29 9.84 10.03 4 18.4l2.63 2.22c5.7-8.46 3-13.46-3.32-20.03-6.21-7.65-13.53-13.73-22.96-16.69-2.78-0.85-5.56-1.19-8.38-1.25 2.03-1.62 3.88-3.46 5.69-5.4 5.99-7.68 2.47-15.26-2.31-22.35-8.51-10.84-20.15-16.81-32.85-21.15-4.05-1.2-8.16-1.8-12.25-1.91 6.4-5.2 10.73-11.41 8.88-20.25-8.03-13.79-24.5-18.78-38.63-23.72-13.94-4.62-28.29-6.93-42.81-7.87 6.89-13.29-3.78-22.37-14.47-29.6-19.44-11.13-41.05-13.8-63-13.81zm454.84 3.88-2.18 3.15-0.32 5.63c5.62 75.23 15.24 150.32 17.75 225.78 6.74 48.91 4.42-19.23 2-35.22-1.15-66.85-13.8-132.75-17.25-199.34zm-42.47 9.31c-30.01 0.12-82.46 9.77-113.87 28.03 14.87 9.01 30.99-7.72 45.56-10.34 25.73-7.99 77.35-13.02 84.47-9.47 3.69 10.55 4.71 54.68 7.56 76.94-47.31 14.67-94.35 30.12-142.93 40.12-0.66-3.15 18.8-63.99 9.78-90.78-12.25-1.43-0.83 45.43-11.47 61.19-18.13 30.2 2.78 46.43 32.16 30.68 35.8-13.47 88.15-14.58 112.59-40.25 0.26 1.97 0.54 3.83 0.84 5.38 11.07-27.7 7.1-79.69-16.12-91.25-2.58-0.19-5.46-0.26-8.57-0.25zm193.16 27.06c-31.4-0.12-81.41 24.97-112.84 33.75 7.95 5.17 17.77 2.81 26.12 0.31 33.44-15.45 68.92-23.54 104.92-29.43-4.8-3.22-11-4.6-18.2-4.63zm-540.34 5.35c2.65-0.02 5.29 0.03 7.94 0.12-6.28 7.48-14.11 13.11-24.13 14.63-5.45 0.15-8.97 0.27-9.87-4.29 4.55-9.07 17.3-9.39 26.06-10.46zm662.14 43.59v1.84c0.2 0.06 0.3 0.1 0.5 0.16-0.1-0.8-0.3-1.5-0.5-2zm0.5 2c0.8 3.98 1.1 11.09 4.3 15.56-13.5-0.21-24.8 14.49-30.6 16.69 12.2 0.47 31.8-4.56 37.3-12.06 0.1-0.23 0.2-0.44 0.4-0.66 1.1 0.09 2.5 0.02 3.9-0.25-1-0.71-2-1.29-3.1-1.78 2.9-8.12-3.2-14.61-12.2-17.5zm-26.3 32.25c-0.9-0.04-1.8-0.09-2.6-0.19 0.7 0.58 1.6 0.59 2.6 0.19zm-2.6-0.19c-1.4-1.24-1.9-5.05-1.3-13.06-9.9 8.16-6.6 12.12 1.3 13.06zm28.4-32.22c-12.1-3.64-29.1-0.93-36.5 12.69 10.8 1.06 35.8 1.65 36.5-12.69zm-36.5 12.69c-7.6-1.24-5.7-0.55 0 0zm-416.14-1c-1.92-0.05-4.87 1.84-8.25 7.59 11.73 1.99 12.46-7.48 8.25-7.59zm364.94 12.5c-0.3-0.08-0.3 0.95-0.1 2.59-9.1-3.74-23.9-0.39-42.1 8.54l0.3 1.5c11.9 9.92 34.6-3.49 42.3-7.35 1.2 6.33 4 16.5 5.8 19.78-5.5-1.55-15.7-4.48-25.5 1.88-7.6 0.97-12.2 2.81-14.7 4.72-0.3-2.23-1-5.11-2.3-8.78-21.4 32.1 38.7 6.08 46 5.65 0.1-0.95 0.2-1.85 0.3-2.75-0.4 0.17-1.4-0.02-2.6-0.34 0.2-0.8 0.2-2.37 0-4.97 1.4 1.94 2.3 3.23 2.7 4.06 0.5-10.01-2-16.58-7-20.15 0.1 0.13-0.1 0.41-0.4 0.87-0.1-0.31-0.2-0.56-0.3-0.84 0.3-0.11 0.5-0.16 0.6-0.13-0.3-0.21-0.6-0.41-0.9-0.59-1.1-2.48-1.7-3.61-2.1-3.69zm10.1 24.53c-0.1 0.42-0.1 0.82-0.1 1.25 0.3-0.14 0.4-0.54 0.1-1.25zm201-13.69c-4.9 0.47 2.4 20.46 3.3 24.29-3.4 0.41-1.7 0.62 0.6 0.81-4.8 2.84-9.8 7.04-14.5 12.25-20.5 13.93-16.8 43.6-1.4 55.81-6 2.07-16.4 7.3-30.8 14.28 1.3 6.93 11.5 6.19 7.9 1.06 9.3 6.36 22.4-8.01 26.9-12.71 7.4 3.95 16.9 4.13 27.3-2.16 30.7-9.49 28.1-78.19-2-72.63-2.6-0.28-5.7 0.37-9 1.79-2.1-5.7-6.3-15.29-2.7-19.54-2.7-2.41-4.5-3.35-5.6-3.25zm23.9 25c20.5 14.4 8.9 71.35-25.8 64.75-38.9-0.59 0.2-70.81 26.6-63.06-0.2-0.61-0.5-1.17-0.8-1.69zm-122.1 14.16c-2.4 0.29-6.7 9.21-5.8 1.59-54.9-0.37-114.8 35.84-126.6 91.25-22.5 0-77.79 13.33-111.47 19.69l4.37 1.63c34.96-8.39 72.9-7.91 106.9-20.41-0.9 4.41-1.5 8.92-1.7 13.56 15 9.34 9.9-50.17 34.3-57.78 23.4-25.73 75.6-47.63 101.4-39.28 0.1-0.79 0.2-1.53 0.2-2.22 12.6 9.21 35.6 24.43 39.8 52.13 26.2 77.2-72 159.5-142.5 117.4-22-16.68-13.3-2.73-20.8-20.87-2.7-13.71-5.2-19.4-7-20.1 12.8-9.39 10.5-24.12-17.8-23.68-7.1 2.33-10.4 3.74-11.2 4.59-18.5-3.31-51.48 7.66-72.07 17.03-4.09-12.94-33.92-34.22-61.37-43.47-50.66-17.55-98.23 10.37-136.6 37.53-0.63 0.51 9.22 9.64 5.91 1.22 23.68-6.17 68.66-47.05 111-35.68 31.08 1.03 58.73 22.41 79.53 41.09-3.86 1.79-7.25 3.53-9.94 5.06 0.54 7.4 3.42 11.99 7.91 14.63-2.11 26.5-25.44 64.9-61.03 67.68-37.97 8.4-85.99 5.95-117.6-7.62-31.03-23.2 8.18-71.97 5.22-80.59-8.4-4.44-43.38 61.5-7.25 83.84 6.58 3.77 13.45 6.81 20.57 9.22-6.5-0.52-14.36-0.23-19 1.72-71.19 9.64-143.01 13.8-214.5 20.56 14.74-2.28 29.52-4.59 44.03-8.09 18.14-4.41 36.22-9.11 53.72-15.69 4-1.58 8.26-2.99 12.25-4.85 2.2 1.72 5.32 2.49 8.81 2.88 11.52 1.09 23.07 1.14 34.44-1.44 9.78-2.31 19.3-5.13 28-10.37 6.91-3.64 10.84-6.6 10.28-15.35l-1.57-0.78c0.93 8.52-2.98 11.34-9.65 14.94-8.54 5.25-17.82 8.55-27.53 10.81-11.28 2.32-22.79 2.83-34.22 1.66-3.17-0.55-6.06-1.17-8.16-2.56 3.51-1.67 6.81-3.68 9.53-6.44-1.41-3.32-2.15-4.01-6.4-3.6-3.19 0.44-5.51 0.85-6.75 4.16 0.2 1.78 0.75 3.19 1.56 4.34-3.84 1.88-7.89 3.39-11.75 4.97-17.45 6.68-35.58 11.31-53.78 15.41-18.46 3.83-37.08 6.74-55.75 9.28-6.84 1.1-13.51 2.25-20.22 1.97 1.71-1.06 3.39-2.2 5-3.44 5.06-5.52 6.93-9.13 0.06-13.87-4.84 0.29-8.64 2.05-11.75 6.12-3.23 4.76-4.33 7.97-0.72 11.75-2.14 1.13-4.35 2.16-6.59 3.1-33.16 3.86-66.21 8.7-99.03 15.31-1.52-0.01-3.05-0.04-4.56-0.06-15.65-0.54-31.13-2.8-46.5-5.6-4.91-0.83-9.75-1.82-14.5-3.25-2.43-1.15-4.84-2.26-7.35-3.22-5.98-1.52-12.22-1.05-18.34-1.03-10.45 0.06-20.88 0.6-31.31 1.1-0.84 0.1-1.67 0.2-2.5 0.31l0.47 1c1.02 0.26 2.06 0.52 3.09 0.78 10.71 0.63 21.39 0.75 32.12 0.53 6.01 0.06 12.2-0.14 17.97 1.72 2.46 1.09 4.87 2.32 7.44 3.16 4.76 1.23 9.62 1.99 14.5 2.59 15.36 2.23 30.76 4.62 46.31 4.69 1.01 0 2.02-0.03 3.03-0.03l0.35 0.56 2.56-0.56c22.28-0.21 44.53-1.8 66.34-6.75 8.23-1.96 16.75-3.8 24.94-6.44 36.63-4.19 73.37-7.51 110-11.25 57.45-2.96 115.16-9.8 172.06-14.41 10.06-0.88 14.08-2.08 14.41-3.22 29.58 7.28 62.09 4.96 91.44-0.75 7.51-0.75 15.28-3.22 22.68-7 26.54-0.29 56.49-7.34 83.76-7.84 136.9-7.32 274.2-10.5 411.2-11.25-3.2-11.32-79.7-1.26-109.3-3.88-126.8 5.78-254.5 2.76-380.5 20.1 23.1-14.02 40.65-40.33 31.03-64.44 18.52 9.16 60.67-10.97 80.67-11.44 8.9-0.52 16.2-3.01 21.5-6.4-2.4 5.83 1.5 33.12 22 41.9 62.2 45.48 156.7-12.66 160.3-85.4-0.1-35.19-16.1-78.05-50.3-88.91 0-4.11-0.7-5.37-1.7-5.25zm-36.3 36.56c-43 10.36 26.2 3.09 35 21.38 27.6 37.59-16.4 90.59-58 86.47-58.3-1.68-30.4-93.6 13.2-99.47-28-16.23-52.8 39.63-53.1 62.9-2.9 56 77.8 54.14 100.5 14.88 31.2-31.88 4.9-85.53-37.6-86.16zm-697.42 0.1c-14.69-0.08-29.35 2.79-43.84 5.68-17.35 5.11-35.44 8.81-51.53 17.38-0.61 0.57-1.21 1.14-1.81 1.72l0.12 0.19c0.74-0.39 1.48-0.78 2.22-1.16 16.61-7.26 33.69-13.56 51.47-17.34 20.78-4.95 42.36-8.9 63.53-3.88 10.05 3.97 18.42 9.68 12.84 21.31-4.73 6.56-10.6 11.88-17.56 15.85-1.27 0.3-2.52 0.62-3.78 0.97-6.61 2.16-6.5 3.34-3.03 2.34-3.05 1.39-2.26 1.18 3.78-1.19 16.72-5.02 34.19-5.64 51.56-5.4 22.14 1.12 44.3 3.68 65.44 10.68 6.58 2.46 18.08 5.39 22.06 12.35-12.25 0.64-24.33 2.78-36.25 5.62-6.7 1.94-10.25 3.55-3.59 8.56 7.19 3.19 14.63 3.1 22.31 2.57 8.34-1.07 16.85-3.53 20.69-11.5 0.03-1.3-0.18-2.51-0.53-3.63 0.53-0.03 1.06-0.09 1.59-0.12 12.4-0.12 24.74 0.91 35.63 7.5 6.8 4.48 11.68 8.72 4.43 16.18l0.25 0.25c7.93-8.01 2.57-12.64-5-17.78-10.92-7.17-23.54-7.75-36.15-7.81-0.48 0.01-0.96 0.04-1.44 0.06-4.07-7.88-17.31-11.09-24.5-13.68-21.18-6.84-43.34-8.85-65.41-10.19-15.95-0.76-31.81 0.36-47.28 4.03 6.7-3.94 12.38-9.17 16.97-15.53 5.85-11.95-2.74-17.65-13.16-21.81-6.67-1.55-13.35-2.19-20.03-2.22zm689.12 37.31c-1.5 0.09-1.3 2.02 2.2 6.5 3.3-11.3 13.8 14.02 0.7 23.75-31.4 20.82-24.4-21.67-2.9-21.59 0.3 0.86-6.6-15.03-6.9-5.69-22.9-1.64-24.9 55.06 15.2 34.5 24.6-14.65-2.8-37.79-8.3-37.47zm-275.21 19.94c-0.75 0.01-1.49 0.01-2.25 0.06-9.01 1.34-13.75 2.4-15.5 3.31-17.27-4.26-42.42 21.83-44.91 38.6-16.77 50.82 51.73 84.77 90.63 55.75 42.01-24.3 19.5-98.37-27.97-97.72zm-161.75 3.34c-0.76 0-1.51 0-2.28 0.03-64.13 12.05-5.47 90.29 39.56 63.66 37.14-6.13 4.32-52.08 1.22-47.13-5.32-7.44-18.89-16.56-38.5-16.56zm-99.88 0.66c0.25 0.68 0.41 1.4 0.5 2.15-2.97 8.26-11.75 10.17-19.72 11.22-7.62 0.44-15.11 0.16-22.06-3.37 1.39-1.81 3.29-3.67 5.53-4.1 11.69-3.2 23.67-5.05 35.75-5.9zm249.97 2.53c9.54 1.66 26.37 3.32 33.78 6.47 45.69 28.24 7.09 104.49-44.9 85.56-58.52-3.69-33.75-95.16 12.25-91-0.37-0.37-0.75-0.71-1.13-1.03zm-138.31 3.5c9.66 0.08 19.36 3.39 26.5 11.19 0.02 0.52 0.11 1.16 0.31 1.96 26.01 11.4-12.58 61.76-48.69 33.94-32.88-21.57-5.65-47.34 21.88-47.09zm328.68 14.56c10.5-0.08 20.7 0.65 13.6 6.97-30.5 21.99-71.62 16.43-105.84 27.97-0.02-0.04-0.05-0.08-0.06-0.13-0.01 0.05 0 0.11 0 0.16-0.3 0.1-0.61 0.18-0.91 0.28-0.69-25.73 64.21-24.58 85.71-32.31-1.3-1.15-2.9-2.06-4.8-2.75 3.3 0.03 7.8-0.15 12.3-0.19zm-396.37 3.84c-10.2 12.37-11.29 26.57-7.9 41.63 1.31 5.32 3.44 10.02 6.18 14.22-8.24 1.66-16.47 3.48-24.65 5.5-14.47 3.32-28.95 6.57-43.38 10.09-4.49-5.04-7.72-11.08-9-18.81 9.11-2.09 18.23-4.01 27.38-5.91l-0.1-0.18c-9.13 1.8-18.23 3.75-27.31 5.78-0.16-1.03-0.28-2.07-0.37-3.16-0.69-15.58 2.33-30 10.22-43.66l-2.22-1.68c-7.46 13.87-11.18 28.51-10.38 44.18 0.13 1.65 0.34 3.24 0.63 4.79-10.99 2.46-21.96 5.05-32.91 7.75-10.71 3.11-21.49 5.95-32.19 9.12-5.02-5.01-9.32-10.8-12.53-17.81-5.1-11.96-10.51-25-2.78-37.13l-2.28-2c-7.92 12.66-2.73 25.79 2.47 38.28 3.27 7.48 7.78 13.77 13.12 19.22-1.52 0.46-3.04 0.96-4.56 1.44-0.09 0.25-0.16 0.44-0.22 0.66-0.8 0.19-0.97 0.38-0.15 0.65-0.36 2.66 3.16 0.85 6.9-0.81 6.3 5.99 13.63 10.96 21.34 15.41-0.68 0.28-1.35 0.57-2.03 0.87 0.83 6.06 3.24 4.84 8.88 2.91 0.18 0.1 0.38 0.18 0.56 0.28 14.02 6.64 29.39 9.79 44.56 12.5l-0.09-0.28c-15.01-3.45-29.94-7.36-43.88-14.1l-0.46-0.68c4.92-1.66 9.8-3.5 14.72-5.16 10.86-3.43 21.83-6.56 32.84-9.5 5.98 6.17 13.73 10.96 22.25 14.84 14.47 5.33 7.37 2.97 21.31 7.07l-0.53-1.44c-14.05-4.56-6.9-1.97-21.44-7.88-7.32-3.89-14.08-7.99-19.43-13.15 14.07-3.72 28.22-7.13 42.4-10.38 8.31-1.82 16.63-3.58 24.97-5.28 7.21 9.67 17.91 16.36 29.63 21.1 13.04 4.46 6.69 2.5 18.93 5.87l-0.5-1.37c-12.39-3.98-6.01-1.73-19.19-6.88-10.26-5.27-19.7-10.81-26.15-19.28 19.48-3.93 39.05-7.44 58.72-10.28 2.7-0.38 5.39-0.75 8.09-1.13l-0.53-0.93c-2.78 0.24-5.57 0.5-8.34 0.75-19.99 2.4-39.87 5.38-59.6 9.28-2.31-3.54-4.12-7.58-5.31-12.25-3.11-14.67-3.47-28.55 6.88-40.66l-2.57-2.41zm211.19 1.19c-3.5 0.03-7.56 0.84-12.22 2.63-14.54 1.31-28.18 27.99-9.28 37.62 37.87 27.24 54.18-40.51 21.5-40.25zm-7.56 7.56c2.27-0.05 4.82 0.45 7.65 1.66-0.29-0.41-0.57-0.79-0.87-1.16 12.93 3.86 23.35 7.94 5.25 25.25-29.65 27.13-34-25.26-12.03-25.75zm-284.47 44.38c1.42 7.38 4.59 13.57 9 18.81-10.97 2.7-21.92 5.57-32.75 8.81-5.95 1.9-11.99 3.65-17.81 5.91-7.92-4.47-15.38-9.29-21.79-15.25 1.33-0.53 2.59-0.97 3.66-1.06l-0.16-0.22c9.24-2.81 18.47-5.62 27.76-8.28 10.56-3.41 21.29-6.2 32.09-8.72zm105.15 36.19c1.41 0.05 2.73 0.84 3.97 1.5-2.75 2.45-5.96 4.37-9.31 6.03-0.74-1.02-1.25-2.28-1.4-3.94 1.57-2.92 3.73-3.26 6.74-3.59zm-142.46 24.9c0.54 0 1.12 0.03 1.72 0.1 0.88 0.82-0.81 5.06-3.88 8.47-2.51 1.99-5.15 3.71-7.91 5.28-0.47-0.08-0.93-0.16-1.4-0.25-1.22-1.57-0.05-5.35 2.15-8.66 2.83-3.33 5.5-4.95 9.32-4.94zm-8.91 16.82c0.16 0.03 0.31 0.03 0.47 0.06-0.26 0.03-0.52 0.06-0.78 0.09 0.1-0.05 0.21-0.1 0.31-0.15zm-31.66 8.06c-3.14 0.76-6.3 1.47-9.4 2.19-15.68 3.31-31.54 5.15-47.47 5.9 18.89-3.11 37.86-5.76 56.87-8.09z"/>
 </g>
 <metadata>
  <rdf:RDF>
   <cc:Work>
    <dc:format>image/svg+xml</dc:format>
    <dc:type rdf:resource="http://purl.org/dc/dcmitype/StillImage"/>
    <cc:license rdf:resource="http://creativecommons.org/licenses/publicdomain/"/>
    <dc:publisher>
     <cc:Agent rdf:about="http://openclipart.org/">
      <dc:title>Openclipart</dc:title>
     </cc:Agent>
    </dc:publisher>
    <dc:title>Vintage camping van</dc:title>
    <dc:date>2012-07-16T08:18:48</dc:date>
    <dc:description>I've created this one to illustrate my own 1975 camping van :-)\nDrawn on Inkscape.</dc:description>
    <dc:source>https://openclipart.org/detail/171199/vintage-camping-van-by-sicabol-171199</dc:source>
    <dc:creator>
     <cc:Agent>
      <dc:title>Sicabol</dc:title>
     </cc:Agent>
    </dc:creator>
    <dc:subject>
     <rdf:Bag>
      <rdf:li>Combi</rdf:li>
      <rdf:li>bully</rdf:li>
      <rdf:li>camping</rdf:li>
      <rdf:li>car</rdf:li>
      <rdf:li>cartoon</rdf:li>
      <rdf:li>funny</rdf:li>
      <rdf:li>orange</rdf:li>
      <rdf:li>road</rdf:li>
      <rdf:li>toy</rdf:li>
      <rdf:li>trafic</rdf:li>
      <rdf:li>van</rdf:li>
      <rdf:li>vehicle</rdf:li>
     </rdf:Bag>
    </dc:subject>
   </cc:Work>
   <cc:License rdf:about="http://creativecommons.org/licenses/publicdomain/">
    <cc:permits rdf:resource="http://creativecommons.org/ns#Reproduction"/>
    <cc:permits rdf:resource="http://creativecommons.org/ns#Distribution"/>
    <cc:permits rdf:resource="http://creativecommons.org/ns#DerivativeWorks"/>
   </cc:License>
  </rdf:RDF>
 </metadata>
</svg>
