<?xml version="1.0" encoding="UTF-8"?>
<svg width="128" height="128" xmlns="http://www.w3.org/2000/svg" xmlns:xlink="http://www.w3.org/1999/xlink">
 <defs>
  <linearGradient id="f">
   <stop stop-color="#b2b2b2" offset="0"/>
   <stop stop-color="#fff" stop-opacity="0" offset="1"/>
  </linearGradient>
  <radialGradient id="g" cx="574.02" cy="469.34" r="41.5" gradientTransform="matrix(1.592 -1.2873 1.664 2.0578 -1126.3 261)" gradientUnits="userSpaceOnUse">
   <stop stop-color="#fff" offset="0"/>
   <stop stop-color="#fff" stop-opacity=".365" offset="1"/>
  </radialGradient>
  <radialGradient id="h" cx="355" cy="546.36" r="88.5" gradientTransform="matrix(.81243 -1.0401 .92656 .72375 -439.65 520.18)" gradientUnits="userSpaceOnUse">
   <stop stop-color="#fff" stop-opacity=".417" offset="0"/>
   <stop stop-color="#fff" stop-opacity="0" offset="1"/>
  </radialGradient>
  <radialGradient id="i" cx="384.16" cy="615.62" r="23" gradientTransform="matrix(1.0452 .00643 -.00308 .57455 -15.462 259.16)" gradientUnits="userSpaceOnUse" xlink:href="#f"/>
 </defs>
 <path d="M112.889 97.245a58.702 58.702 0 11-97.171-65.89 58.702 58.702 0 1197.171 65.89z"/>
 <path transform="rotate(34.14 657.12 -303.89) scale(.6633)" d="M610 487.862a41.5 41.5 0 11-83 0 41.5 41.5 0 1183 0z" fill="url(#g)"/>
 <path d="M72.335 58.287c-1.257-.852-1.976-.962-3.117-.733-1.14.229-2.625.782-3.494 2.062-.868 1.28-1.366 2.379-1.157 3.523.217 1.133 1.124 2.24 2.381 3.093 1.246.845 2.767 1.384 3.889 1.158 1.129-.236 1.79-1.224 2.658-2.505.876-1.292 1.03-2.87.824-3.995-.198-1.137-.738-1.758-1.984-2.603m-3.403-5.544c-1.26-1.551-2.095-3.25-2.228-4.785-.132-1.534.937-2.61 1.94-4.089 1.491-2.2 4.182-2.946 6.605-2.985 2.423-.04 3.996.371 7.174 2.526 3.155 2.14 4.217 3.824 5.077 6.09.868 2.254 1.017 4.802-.483 7.013-1.002 1.479-1.966 2.75-3.451 3.187-1.475.445-2.966.257-4.873-.339 1.438 1.689 1.934 3.19 2.081 4.903.166 1.71-.024 3.604-1.16 5.28-1.753 2.584-3.418 4.187-6.04 4.346-2.604.155-6.444-.75-9.82-3.038-3.388-2.297-5.568-5.414-6.41-7.906-.823-2.495.035-4.706 1.788-7.29 1.136-1.677 3.046-2.527 4.684-3.014 1.658-.49 3.015-.61 5.116.1m5.112-4.155c-.702 1.036-1.17 1.884-.978 2.83.203.953 1.052 1.936 2.123 2.662 1.047.71 2.229 1.165 3.178.993.95-.172 1.592-.961 2.295-1.997.702-1.036.857-2.334.658-3.268-.192-.945-.715-1.46-1.762-2.171-1.071-.726-1.72-.82-2.681-.656-.95.172-2.138.583-2.833 1.607" font-family="Bitstream Vera Sans" font-size="65.139" font-weight="700"/>
 <path transform="rotate(34.14 640.14 -71.55) scale(.6633)" d="M450 548.862a88.5 88.5 0 11-177 0 88.5 88.5 0 11177 0z" fill="url(#h)"/>
 <path transform="matrix(.9371 .28859 -.26927 .87437 -143.28 -544.32)" d="M408 614.862a23 14.5 0 11-46 0 23 14.5 0 1146 0z" fill="url(#i)"/>
 <path transform="matrix(.12815 .5225 -.48753 .11957 270.19 -199.43)" d="M408 614.862a23 14.5 0 11-46 0 23 14.5 0 1146 0z" fill="url(#i)"/>
</svg>
