<?xml version="1.0" encoding="UTF-8"?>
<svg width="400pt" height="400pt" xmlns="http://www.w3.org/2000/svg" xmlns:xlink="http://www.w3.org/1999/xlink">
 <defs>
  <radialGradient id="b" cx=".393" cy=".343" r=".779">
   <stop stop-color="#ff4f80" offset="0"/>
   <stop stop-color="#ff2c59" offset="1"/>
  </radialGradient>
 </defs>
 <g fill-rule="evenodd">
  <path transform="matrix(1.0781 0 0 1.1115 -58.551 -40.294)" d="m493.75 249.38c0 111.44-93.24 201.88-208.12 201.88s-208.12-90.44-208.12-201.88 93.24-201.88 208.12-201.88 208.12 90.44 208.12 201.88z" fill="url(#b)" stroke="#000" stroke-linejoin="round" stroke-width="9.135"/>
  <path d="m49.653 338.45c58.553-110.93 194.75-246.72 313.08-296.2 28.439 15.67 59.941 48.118 72.962 69.238-133.95 64.404-248.62 195.72-318.4 305.85-24.845-14.992-54.446-50.824-67.64-78.89z" fill="#0f0" stroke="#000" stroke-linejoin="round" stroke-width="10"/>
  <path d="m171.76 325.59-38.321 13.148 0.613 42.551-17.694-35.02-36.72 19.941 27.387-34.791-23.307-30.227 34.62 13.517 22.314-38.622-5.99 43.146 37.099 6.357zm95.373-105.03-41.367 6.149-5.904 41.392-12.791-37.03-40.765 13.014 33.463-29.034-19.29-33.349 33.47 19.087 28.844-33.626-12.776 40.83 37.116 12.567zm117.56-89.744-40.573-0.562-11.753 38.456-6.815-37.205-41.004 6.063 36.36-22.431-13.589-34.71 29.287 23.341 32.606-27.514-18.26 36.857 33.74 17.705z" fill="#ff0" font-size="12"/>
  <path d="m336.57 37.217c-150.49-69.58-372.17 76.052-288.03 276.7 45.306 16.181-51.78-343.04 288.03-276.7z" fill="#fff" fill-opacity=".25"/>
 </g>
</svg>
