<?xml version="1.0" encoding="UTF-8"?>
<svg width="400pt" height="400pt" xmlns="http://www.w3.org/2000/svg" xmlns:xlink="http://www.w3.org/1999/xlink">
 <path d="m393.55 316.68c3.712-0.412 69.899 7.155 74.645-9.46 11.867-33.227-8.703-60.918-37.184-71.203-28.481-5.538-24.524-2.373-61.708-7.911-34.019-44.303-18.987-113.92-100.48-108.39-91.772-2.373-106.01 75.949-136.08 98.893-21.362 25.316-102.06-11.076-104.43 31.645-3.165 15.032-5.538 51.424 18.987 67.247 11.867 0 31.646 0.791 39.557 0.791 0.791-56.17 67.247-47.468 68.039-1.582 18.195 1.582 156.64-1.582 166.14-2.373-0.825-51.491 75.739-53.252 72.507 2.339z" fill="red" fill-rule="evenodd" stroke="#000" stroke-linejoin="bevel" stroke-width="3.75"/>
 <path d="m140.66 226.52s39.557-70.411 70.411-88.608c19.778-8.702 35.601-13.449 49.051-12.658 0.791-5.538 4.746 89.399-1.583 102.06-12.658 3.165-112.34 0.791-117.88-0.791zm127.37-101.27s-4.747 99.684 3.165 102.85c13.449 0.79 83.069 2.372 86.234-4.748-14.24-7.12-12.658-107.59-89.399-98.101z" fill="#01ffff" fill-rule="evenodd" stroke="#000" stroke-linejoin="bevel" stroke-width="3.75"/>
 <path d="m36.234 236.8c-5.538 7.12-6.329 15.032-4.747 24.526 13.45 6.328 26.9-33.228 4.747-24.526z" fill="#ffffb6" fill-rule="evenodd" stroke="#000" stroke-linejoin="bevel" stroke-width="3.75"/>
 <path d="m463.45 266.87c1.582-9.494-14.24-13.449-13.45 0-1.581 13.45 14.24 13.45 13.45 0z" fill="#ae0000" fill-rule="evenodd" stroke="#000" stroke-linejoin="bevel" stroke-width="3.75"/>
 <path d="m22.785 293.76s3.164-11.075 20.57-1.582c16.613 13.45-22.152 22.944-20.57 1.582zm454.26-3.165s-3.165-11.075-20.57-1.582c-16.614 13.45 22.152 22.944 20.57 1.582z" fill="#bfbfbf" fill-rule="evenodd" stroke="#000" stroke-linejoin="bevel" stroke-width="3.75"/>
 <path d="m139.87 226.52c22.151 47.468 18.197 83.862 19.779 83.862 3.164 0 91.772 2.372 99.683-1.583 3.165-18.987-1.582-82.279-1.582-82.279-8.703 3.165-100.48 2.373-117.88 0zm130.54 0.791c0.791 6.329-2.373 79.905-2.373 82.279 13.449-1e-3 37.183 1.582 47.468-2.374 7.912-30.855 29.138-34.019 38.766-38.766 3.165-5.538 3.165-45.095 3.165-45.095-3.165 6.329-58.545 5.539-87.026 3.956z" fill="none" stroke="#000" stroke-linejoin="bevel" stroke-width="3.75"/>
 <path d="M250.633 239.177c-.791-6.329-20.57-6.329-22.152 1.583.791 8.702 21.36 7.911 22.152-1.583zM353.481 234.43c-.79-6.329-20.57-6.329-22.152 1.583.791 8.702 21.36 7.911 22.152-1.583z" fill="#bfbfbf" fill-rule="evenodd" stroke="#000" stroke-linejoin="bevel" stroke-width="3.75"/>
 <path d="m150.16 219.4c15.032-18.987 30.855-76.741 100.48-90.19-12.658 36.392-70.412 93.354-100.48 90.19z" fill="#fff" fill-opacity=".711" fill-rule="evenodd"/>
 <path d="m273.58 130.79c-3.165 5.538-3.956 51.424 2.374 80.696 18.987-61.708 42.721-89.399-2.374-80.696z" fill="#fff" fill-opacity=".714" fill-rule="evenodd"/>
 <g stroke="#000">
  <path d="m118.04 283.71c-31.73-1.177-39.403 58.067 3.774 60.577 47.723-2.783 30.283-62.79-3.774-60.577z" fill="#7f8080" fill-rule="evenodd" stroke-linejoin="bevel" stroke-width="3.75"/>
  <path d="m118.75 295.83c16.901-3.662 34.042 31.097 3.824 37.133-26.124 0.634-23.44-33.132-3.824-37.133z" fill="#bfbfbf" fill-rule="evenodd" stroke-width="3.75"/>
  <path d="m119.85 311.24c5.373-2.044 7.578 7.188 2.783 6.705-6.252 2.764-8.626-5.096-2.782-6.705z" fill="none" stroke-width="3.75"/>
  <path d="M119.596 299.656c-2.724.114-1.476 8.248 1.238 7.907 2.716-.34 1.249-8.238-1.238-7.907zM122.103 321.609c-2.723.113-1.475 8.247 1.24 7.907 2.714-.34 1.248-8.238-1.24-7.907zM135.695 313.003c-.114-2.723-8.248-1.475-7.907 1.24.34 2.714 8.238 1.248 7.907-1.24zM114.688 316.381c-.114-2.723-8.248-1.475-7.907 1.239.34 2.715 8.238 1.249 7.907-1.239z" fill="none" stroke-width="1.25"/>
  <path d="m334.4 289.38c-23.82 20.995 11.41 69.24 44.448 41.331 32.692-34.879-21.274-66.386-44.448-41.33z" fill="#7f8080" fill-rule="evenodd" stroke-linejoin="bevel" stroke-width="3.75"/>
  <path d="m343.25 297.68c9.735-14.293 46.099-0.89 28.341 24.295-18.507 18.449-39.81-7.886-28.34-24.295z" fill="#bfbfbf" fill-rule="evenodd" stroke-width="3.75"/>
  <path d="m354.66 308.1c2.488-5.181 10.444-5e-3 6.635 2.947-2.632 6.31-9.765 2.244-6.635-2.947z" fill="none" stroke-width="3.75"/>
  <path d="m346.5 299.88c-1.897 1.957 4.609 6.997 6.342 4.88 1.735-2.116-4.767-6.833-6.342-4.88zm16.934 14.192c-1.897 1.958 4.609 6.997 6.343 4.881s-4.767-6.833-6.343-4.88zm3.931-15.599c-1.958-1.896-6.997 4.61-4.881 6.343 2.116 1.735 6.833-4.767 4.88-6.343zm-12.908 16.914c-1.958-1.897-6.997 4.61-4.881 6.343 2.116 1.735 6.834-4.767 4.881-6.343z" fill="none" stroke-width="1.25"/>
 </g>
</svg>
