<?xml version="1.0" encoding="UTF-8"?>
<svg width="400pt" height="400pt" xmlns="http://www.w3.org/2000/svg">
 <path transform="matrix(1 0 0 1.1195 -36.46 -46.204)" d="m84.792 148.96c0.848 0 239.96 105.14 239.96 105.14l160.26-142.45-216.22-58.507-184 95.815z" fill="#e6e6e6" fill-rule="evenodd" stroke="#000" stroke-linejoin="round" stroke-width="9.451"/>
 <path d="m49.18 121.51c0 0.95 1.695 230.67 0.847 229.72l239.96 137.64-3.392-251.56-237.42-115.81z" fill="#e6e6e6" fill-rule="evenodd" font-size="12" stroke="#000" stroke-linejoin="round" stroke-width="10"/>
 <path transform="matrix(1 0 0 1.1195 -36.46 -46.204)" d="m326.45 478.8-2.544-224.7 161.11-142.45-2.544 217.07-156.02 150.08z" fill="#e6e6e6" fill-rule="evenodd" font-size="12" stroke="#000" stroke-linejoin="round" stroke-width="9.451"/>
 <path transform="matrix(1 0 0 1.1195 33.743 26.146)" d="m211.13 456.76" fill="none" stroke="#000" stroke-width="3.544"/>
 <path transform="matrix(1 0 0 1.1195 161.78 99.068)" d="m211.13 456.76" fill="none" stroke="#000" stroke-width="3.544"/>
 <path transform="matrix(1 0 0 1.1195 -52.745 89.74)" d="m211.13 456.76" fill="none" stroke="#000" stroke-width="3.544"/>
 <path transform="matrix(1 0 0 1.1195 75.29 162.66)" d="m211.13 456.76" fill="none" stroke="#000" stroke-width="3.544"/>
 <path d="m262.66 41.93c-11.867-6.329-45.886 11.867-22.943 23.734 17.405 5.538 44.304-15.822 22.943-23.734zm-51.424 30.855c-11.867-6.33-45.886 11.867-22.943 23.734 17.405 5.538 44.304-15.823 22.943-23.734zm-59.335 37.975c-11.867-6.33-45.886 11.866-22.943 23.734 17.405 5.537 44.304-15.823 22.943-23.735z" fill-rule="evenodd" stroke="#000" stroke-width="1pt"/>
 <path transform="matrix(1 0 0 1.1195 145.29 67.286)" d="m211.13 456.76" fill="none" stroke="#000" stroke-width="3.544"/>
 <path transform="matrix(1 0 0 1.1195 273.33 140.21)" d="m211.13 456.76" fill="none" stroke="#000" stroke-width="3.544"/>
 <path transform="matrix(1 0 0 1.1195 58.805 130.88)" d="m211.13 456.76" fill="none" stroke="#000" stroke-width="3.544"/>
 <path transform="matrix(1 0 0 1.1195 186.84 203.8)" d="m211.13 456.76" fill="none" stroke="#000" stroke-width="3.544"/>
 <path d="m374.21 83.07c-11.867-6.33-45.886 11.867-22.943 23.734 17.405 5.538 44.304-15.823 22.943-23.734zm-46.677 32.436c-11.867-6.329-45.886 11.867-22.943 23.734 17.405 5.538 44.304-15.822 22.943-23.734zm-57.753 40.348c-11.868-6.329-45.886 11.867-22.943 23.734 17.405 5.538 44.303-15.822 22.943-23.734zm-170.89 32.437c-11.867-6.33-21.36 30.855 1.583 42.721 17.405 5.538 19.778-34.81-1.583-42.72zm-6.329 100.48c-11.867-6.33-21.36 30.854 1.583 42.721 17.405 5.538 19.778-34.81-1.583-42.721z" fill-rule="evenodd" stroke="#000" stroke-width="1pt"/>
 <path transform="matrix(1 0 0 1.1195 164.28 91.811)" d="m211.13 456.76" fill="none" stroke="#000" stroke-width="3.544"/>
 <path transform="matrix(1 0 0 1.1195 292.32 164.73)" d="m211.13 456.76" fill="none" stroke="#000" stroke-width="3.544"/>
 <path transform="matrix(1 0 0 1.1195 77.793 155.4)" d="m211.13 456.76" fill="none" stroke="#000" stroke-width="3.544"/>
 <path transform="matrix(1 0 0 1.1195 205.83 228.33)" d="m211.13 456.76" fill="none" stroke="#000" stroke-width="3.544"/>
 <path transform="matrix(1 0 0 1.1195 275.83 132.95)" d="m211.13 456.76" fill="none" stroke="#000" stroke-width="3.544"/>
 <path transform="matrix(1 0 0 1.1195 403.87 205.87)" d="m211.13 456.76" fill="none" stroke="#000" stroke-width="3.544"/>
 <path transform="matrix(1 0 0 1.1195 189.34 196.54)" d="m211.13 456.76" fill="none" stroke="#000" stroke-width="3.544"/>
 <path transform="matrix(1 0 0 1.1195 317.38 269.47)" d="m211.13 456.76" fill="none" stroke="#000" stroke-width="3.544"/>
 <path d="m229.43 253.96c-11.867-6.33-21.36 30.854 1.583 42.721 17.405 5.538 19.778-34.81-1.583-42.721zm-6.329 100.47c-11.867-6.329-21.36 30.855 1.583 42.722 17.405 5.538 19.778-34.81-1.583-42.722zm106.8-111.55c-13.45 11.076-7.12 56.17 8.703 43.512 18.196-17.405 8.702-58.544-8.703-43.512zm78.323 32.437c-13.45 11.075-7.12 56.17 8.703 43.512 18.196-17.405 8.702-58.544-8.703-43.512z" fill-rule="evenodd" stroke="#000" stroke-width="1pt"/>
 <path d="m178.8 53.797c-18.988 9.494-103.64 48.26-114.72 67.247 9.494 11.867 120.25 57.753 119.46 57.753-0.79 0-140.82-56.17-4.746-125z" fill="#fff" fill-rule="evenodd"/>
 <path d="m380.54 61.709c8.703 3.164 56.17 13.449 58.544 18.987-1.582 6.33-44.303 44.304-51.424 49.842 7.912-10.285 46.678-47.469-7.12-68.83z" fill-opacity=".25" fill-rule="evenodd"/>
 <path d="M395.57 136.867c4.747-5.538 45.095-47.468 48.26-47.468 2.373 3.955.79 54.588 0 61.708-3.956-4.746 9.493-75.158-48.26-14.24z" fill-opacity=".247" fill-rule="evenodd"/>
</svg>
