<svg xmlns="http://www.w3.org/2000/svg" width="128" height="128"><metadata/><path d="M36.25 10.469c-8.297 1.963-10.266 10.95-9.451 18.343-.276 5.458 2.36 12.057.67 16.813-5.322 3.145-6.801 10.781-9.18 16.338-2.644 7.564-4.766 16.407-2.912 24.04 3.652 4.099 8.994-2.333 10.742-2.36 3.11 6.88-.266 15.19 1.537 22.42-4.566 1.747-12.177 6.53-7.906 12.03 6.029 3.86 13.536-.457 20.219 1.376 9.933-.65 22.92 3.71 29.75-6.031 3.137 5.046 8.547 6.516 14.149 5.279 8.692-1.07 17.877.78 26.257-1.546 6.392-2.491 4.842-12.775-2.272-12.935-6.956.067-9.657-2.89-7.644-9.572.61-5.037-.484-15.972 4.322-6.57 3.367 6.592 11.54 2.165 12.46-3.689 5.245-11.167-.356-23.983-8.155-32.438-3.941-6.2-8.616-6.253-6.596-14.184-.502-8.55 2.17-20.367-6.552-25.487-12.65-3.679-26.26-1.056-39.313-1.84l-20.125.013z" fill="#49270d"/><path d="M40.406 34.25c-.826 4.656.847 10.966-.5 16.254-.004 4.52-2.708 11.74.125 14.656 13.027-.994 26.082-2.172 39.125-.535 4.6-.549 13.243.227 11.996-6.432.617-7.921-.623-15.833-.746-23.724-14.626-.64-29.69-1.844-44.448-2.161-2.372-.999-3.72.752-5.552 1.942z" fill="red"/><path d="M46.011 14.404c-2.243-.07-4.752.804-6.852 2.035 1.46-.913-2.723 2.04-2.766 2.065-.158.219-2.15 2.533-2.393 4.346.22 3.663 2.28 4.996 5.642 5.613 4.088.369 8.83-1.605 10.656-5.382.811-2.962.764-5.454-1.31-7.754-.988-.617-1.982-.892-2.977-.923zm43.96 2.15s-4.174-.411-5.553.333c-2.316.588-4.45 3.908-5.126 6.101-.73 3.947 4.106 6.157 7.335 7.012 4.395-.13 7.403-3.048 7.94-7.1.327-3.703-.923-5.554-4.596-6.345z" fill="#161616"/><path d="M36.06 9.466c-3.458-.123-6.317 1.953-8.576 6.23-1.822 4.41-1.796 9.453-1.7 14.171.212 3.911.964 7.757 1.213 11.663l-2.312 4.145c-3.806 5.8-6.434 12.473-8.461 19.112-1.416 5.258-2.944 10.647-2.367 16.131.034.222-.86 3.355-.108 4.744 1.861 3.16 4.518 2.479 7.744 1.277.792-.456 1.978-1.443 3.147-2.588.066-.037.113-.053.182-.094-.049.02.92 1.321 1.085 2.367.354 3.191.268 6.42.25 9.625-.022 2.411-.019 4.822-.024 7.234.16.803.29 1.416.393 2.062-1.886.861-3.715 1.994-5.78 3.207-2.513 1.69-3.283 4.331-3.393 7.199.581 2.47 2.502 3.79 4.71 4.69 3.392.629 6.753-.183 10.115-.556 2.59-.147 5.144.326 7.734.379 2.308.018 4.617 0 6.924.004 2.401.26 4.804.433 7.224.457 2.591.093 5.059.065 7.543-.687 3.084-1.212 6.446-2.49 8.19-5.299 1.96 1.997 3.47 5.718 6.936 6.082 3.8.796 10.908-.914 14.508-.875 3.691.126 5.665 1.253 9.367 1.086 5.305.014 7.733.32 12.197-3.023 2.5-2.01 3.241-9.016 1.453-11.834-3.727-3.364-8.777-3.62-13.548-4.655.16-1.251.318-2.441.304-4.007.372-3.87.828-7.736.8-11.629.021-.501 3.263 5.507 5.864 6.207 1.257.404 2.406.23 3.634.015l3.673-1.866c1.626-2.306 2.748-4.966 3.742-7.602 1.283-3.91 2.189-7.706.962-11.785-1.292-5.42-2.373-10.776-6.374-14.943-3.33-4.137-6.595-8.338-9.732-12.616 0 0-.096-7.47-.197-11.353-.457-4.236-.192-8.514-.957-12.723-2.767-9.89-11.421-10.074-20.016-9.968-12.944-.326-44.5-.018-46.349.016zm9.21 2.487c11.225.056 23.588-.12 34.81.168 8.167-.029 16.262-.272 18.652 9.276.716 4.203.526 8.467.898 12.698.012 4.829-.155 9.676-.196 14.516-.056 7.157.053 14.307-.024 21.465.002.072-.002.144 0 .216 0 0-1.201 14.38-1.356 17.688.03 3.893-.602 13.913-.566 14.197l-5.907.718c5.696 1.733 14.412 1.528 19.03 5.695 1.466 2.427 1.659 5.47-.202 7.116-1.59.285-5.723 1.268-7.891 1.293-3.7.206-7.619-.038-11.306-.18-3.607-.064-6.867.825-10.875 1.023-3.515.466-5.396-3.316-7.327-5.55-1.406-1.876-2.74-3.124-2.858-5.406 0 0 2.259-2.183 2.97-2.829 0 0-4.302 1.967-4.419 2.117l-.083.034c-.053-.074-.49-5.25-.113-7.066.045-2.32-.093-4.618-.339-6.915l-.02.01c.051-.248 1.072-2.249 1.174-2.7.513-.026 1.222-.16 2.254-.497l3.457-2.514c-3.146.03-6.256 1.192-8.289 3.403-1.287-.824-2.662-1.513-3.516-2.642l-3.914 1.994c1.162 1.868 3.535 2.42 5.206 3.9-.134.208-.052 9.54-.074 10.38-2.366-.59-5.08-.48-7.484-.766-.752-.143-1.52-.15-2.278-.226l-3.374 2.421c.245.017 2.186.03 2.323.162 3.991.475 9.136-.265 11.54 3.55.992 2.342 1.71 4.787 1.159 7.342a7.546 7.546 0 00-.6 1.164c-.255.139-5.618 1.341-8.2 1.193-2.422-.006-4.833-.09-7.224-.452-2.31.005-4.624.002-6.934.005-2.602-.045-5.162-.448-7.758-.402-3.34.317-6.659 1.257-10.033.658-2.076-.868-3.872-1.836-4.42-4.233.163-2.447.823-4.542 2.628-6.09 1.387-.553 4.326-1.642 6.575-1.33l3.482-2.53a15.094 15.094 0 00-3.585.27c-.065-.925-.147-1.846-.304-2.764-.006-2.404.003-4.81-.015-7.214-.012-3.23.081-6.472-.26-9.688-.36-2.502-.724-5.034-.526-7.563.305-4.164.696-8.33.771-12.507.098-4.216.513-8.415.629-12.63.356-4.098.317-8.217.167-12.326-.28-3.902-.951-7.756-1.223-11.658-.11-4.706-.192-9.65 1.846-13.995.437-.97.517-1.046 2.814-1.694a160.61 160.61 0 0111.108-.305zm.741 2.45c-2.243-.07-5.552.005-7.652 1.236 1.46-.913-2.523 1.84-2.566 1.865-.158.219-1.55 3.533-1.793 5.346.02 4.263 3.08 6.196 6.242 6.013 4.088.369 8.63-1.805 10.456-5.582.811-2.962.364-5.654-1.71-7.954-.988-.617-1.982-.892-2.977-.923zm41.76.352s-3.574.788-4.953 1.532c-.116-.012-4.05 3.508-4.726 5.701-.73 3.947 3.706 7.957 6.935 8.812 4.395-.13 9.803-3.448 10.34-7.5.527-4.503-3.923-7.754-7.596-8.545zm-41.023 2.46c1.947 2.187.582 4.856-.339 7.673-.182.27-2.954.836-4.31 1.154-3.15-.589-4.77-2.379-4.903-5.917.181-.94 2.5-1.987 4.14-3.08.407-.054 4.642-.36 5.412.17zm39.179-.405c3.22.696 6.508 4.27 6.21 7.595-.109.669-4.392 3.307-4.97 4.168-2.872-.675-6.968-3.976-6.24-7.407.33-.749 1.533-2.306 1.683-2.773l3.317-1.583zM43.36 30.997l-3.507 2.44-1.178.722c.234 2.764.637 5.514.874 8.28.013 2.915-.36 5.835-.717 8.73-.28 2.78-.877 5.502-1.016 8.295-.068 2.262-.007 4.544.24 6.762 3.642.213 7.503-.449 11.255-.59 4.577-.873 9.215-.912 13.858-.893 4.113-.112 8.2.214 12.277.722 2.468.466 4.907.017 7.366-.177 4.162.242 5.583-.378 9.335-2.824.117-.432-.072-1.144-.216-1.787l.024-.01c.073-1.11.114-2.222.27-3.325.314-3.754.049-7.556-.162-11.309-.351-3.334-.678-6.722-.422-10.067.403-3.909-2.655-2.793-5.736-2.823-4.45.02-8.885-.132-13.317-.53-5.93-.298-11.847-.955-17.777-1.218-3.84.223-7.649.574-11.451-.398zm8 2.907c-.717 2.318-2.89 8.81-3.286 9.409-.003-.005-.007-.006-.01-.01-1.647-2.488-3.887-6.653-5.151-9.365 0 0 5.52.2 8.446-.034zm3.623.064c3.02.129 6.034.42 9.05.687 0 0-1.85 3.024-2.204 4.346-.48 1.709-1.726 4.5-2.554 6.787-1.889-3.71-3.075-7.864-4.292-11.82zm13.676 1.036c.185.011 5.623.432 8.162.491-.948 2.226-2.562 5.208-3.507 7.022a95.365 95.365 0 01-1.87 3.605c-.517-.799-1.296-1.938-1.793-3.929-.448-2.365-.857-4.776-.992-7.19zm17.782.5c-.811 2.087-2.16 5.73-2.559 6.758-.404.977-.697 1.608-.982 2.24-.615-2.688-1.48-6.345-2.725-8.963.795.007 5.997-.07 6.266-.034zm-32.95 2.083c.713 3.866 3.278 8.16 5.199 11.562.837-.302 5.312-6.728 6.424-10.167.206 1.754.448 3.507.8 5.23 1.094 3.485 1.552 5.433 3.256 5.465l-.02.024c.017-.009.023-.015.04-.024.894.009 2.122-.494 3.977-1.596 1.454-2.38 2.773-4.837 4.046-7.322.046-.097.084-.197.128-.294.953 2.103 1.433 4.37 1.945 6.644 3.611 3.402 7.273-3.765 8.426-6.63.02-.047.027-.12.045-.172.036 2.562.324 5.124.584 7.67.181 3.177.364 6.394.191 9.581-.8-1.948-3.699-4.118-4.611-5.817l-2.15 1.673a63.577 63.577 0 00-1.45 6.08c-.083-.291-2.576-5.786-4.075-8.123l-3.909 1.994.025.034s-2.51 4.617-3.305 6.703c-.163-.364-6.103-6.373-8.073-9.664l-3.447 1.96-.108.029c-.006.013-.015.03-.02.044l-.23.133c.036.052.08.1.117.152-.996 2.563-2.28 5.695-3.55 8.25-1.226-2.216-4.229-4.583-5.04-6.997-.22.066-2.966 2.502-4.993 6.363-.596.852-1.265 1.622-1.964 2.357-.119-1.723-.199-3.464-.103-5.2.138-2.779.714-5.49 1.007-8.255.253-2.193.256-7.416.356-9.625.28 1.016 2.042 4.568 2.545 5.36 3.275 4.811 6.247-1.839 7.214-5.119.226-.773.478-1.536.722-2.303zm-26.4 8.75c.001 2.495-.078 4.986-.3 7.475-.043 4.225-.53 8.42-.594 12.644-.1 4.113-.832 13.032-.845 13.298-1.867 2.177-1.273 3.026-2.322 5.166-2.098.699-3.987.821-5.333-1.262 0 0 .106-3.252-.04-4.753-.563-5.364.896-10.714 2.264-15.861 1.89-5.709 3.865-11.643 7.17-16.706zm75.938 3.33c2.276 2.83 4.422 5.766 6.737 8.564 3.754 4.188 5.005 9.475 6.237 14.8 1.08 4.055.101 7.815-1.189 11.659-.71 1.8-3.156 5.242-3.565 5.121-2.506-.644-4.554-1.373-5.082-4.179-.515-3.06-2.91-6.133-2.85-9.246-.323-2.793-.34-4.594-.166-8 0 0-.115-12.534-.122-18.719zm-43.68 5.559c1.833 1.989 5.881 6.712 6.04 7.096-3.41.006-6.82-.024-10.2.402 0 0 1.546-1.777 1.98-2.578.808-1.606 1.49-3.265 2.18-4.92zm14.628.457c1.01 1.537 1.868 3.145 2.387 4.96.125.782.385 1.499.717 2.185a105.79 105.79 0 00-5.5-.457c.72-1.996 1.55-4.322 2.396-6.688zm9.841.967c.487 1.291.862 2.63 1.385 3.914.31.74.657 1.462.997 2.185-1.378.09-2.745.28-4.115.368.344-1.244 1.46-5.63 1.733-6.467zM48.05 57.853c.6 1.856 1.137 3.724 2.068 5.426-2.632.157-5.257.352-7.867.786 0 0 5.647-5.939 5.8-6.212z"/><path d="M51.368 33.89c-2.927.235-8.47.063-8.47.063 1.265 2.712 3.51 6.856 5.157 9.344.003.004.028-.004.031 0 .397-.598 2.565-7.088 3.282-9.406zm3.625.063c1.217 3.956 2.392 8.135 4.28 11.844.829-2.286 2.083-5.072 2.563-6.781.354-1.322 2.188-4.375 2.188-4.375-3.017-.268-6.01-.559-9.031-.688zm13.656 1.063c.134 2.413.551 4.823 1 7.187.497 1.991 1.265 3.108 1.781 3.907a95.014 95.014 0 001.875-3.594c.944-1.814 2.553-4.805 3.5-7.031-2.539-.06-7.971-.458-8.156-.47zm17.781.5c-.268-.037-5.454.038-6.25.031 1.245 2.618 2.104 6.282 2.719 8.969.285-.631.564-1.273.969-2.25.398-1.029 1.751-4.664 2.562-6.75zM59.336 55.235c-.689 1.655-1.347 3.3-2.156 4.906-.433.8-2 2.594-2 2.594 3.379-.427 6.808-.4 10.219-.407-.159-.383-4.229-5.104-6.063-7.093zm14.657.437c-.846 2.367-1.687 4.692-2.407 6.688 1.836.098 3.67.274 5.5.468-.331-.685-.594-1.404-.718-2.187-.52-1.814-1.365-3.432-2.375-4.969zm9.812.969c-.274.837-1.374 5.224-1.719 6.469 1.371-.088 2.748-.285 4.125-.375-.34-.724-.69-1.417-1-2.157-.523-1.283-.919-2.646-1.406-3.937zm-35.75 1.219c-.152.273-5.812 6.218-5.812 6.218 2.61-.434 5.243-.656 7.875-.812-.931-1.703-1.463-3.55-2.063-5.406z" fill="#fff"/></svg>