<?xml version="1.0" encoding="UTF-8"?>
<svg width="256" height="256" version="1.0" xmlns="http://www.w3.org/2000/svg" xmlns:xlink="http://www.w3.org/1999/xlink">
 <defs>
  <linearGradient id="h" x1="104.77" x2="125.22" y1="107.58" y2="134.58" gradientTransform="matrix(.7997 0 0 .7997 101.71 304.02)" gradientUnits="userSpaceOnUse" xlink:href="#a"/>
  <linearGradient id="c">
   <stop stop-color="#e6e6e6" offset="0"/>
   <stop stop-color="#fff" offset=".711"/>
   <stop stop-color="#f5f5f5" offset="1"/>
  </linearGradient>
  <linearGradient id="b">
   <stop stop-color="#d3d3d3" offset="0"/>
   <stop stop-color="#ebebeb" offset="1"/>
  </linearGradient>
  <linearGradient id="a">
   <stop stop-color="#e6e6e6" offset="0"/>
   <stop stop-color="#fff" offset=".5"/>
   <stop stop-color="#f5f5f5" offset="1"/>
  </linearGradient>
  <linearGradient id="k" x1="130.72" x2="164.45" y1="396.71" y2="396.71" gradientTransform="matrix(.7997 0 0 .7997 22.337 64.546)" gradientUnits="userSpaceOnUse" xlink:href="#a"/>
  <linearGradient id="l" x1="335.69" x2="383.28" y1="430.21" y2="439.21" gradientTransform="matrix(.7997 0 0 .7997 22.337 64.546)" gradientUnits="userSpaceOnUse" xlink:href="#a"/>
  <linearGradient id="m" x1="168.94" x2="204.47" y1="448.4" y2="469.4" gradientTransform="matrix(.7997 0 0 .7997 22.337 64.546)" gradientUnits="userSpaceOnUse" xlink:href="#a"/>
  <linearGradient id="n" x1="213.12" x2="214.37" y1="389.57" y2="384.69" gradientTransform="matrix(.7997 0 0 .7997 22.337 64.546)" gradientUnits="userSpaceOnUse" xlink:href="#b"/>
  <linearGradient id="o" x1="182.2" x2="207.81" y1="216" y2="257" gradientTransform="matrix(.7997 0 0 .7997 101.71 304.02)" gradientUnits="userSpaceOnUse" xlink:href="#a"/>
  <linearGradient id="t" x1="258.78" x2="262.2" y1="501.2" y2="517.04" gradientTransform="matrix(.7997 0 0 .7997 22.337 64.546)" gradientUnits="userSpaceOnUse" xlink:href="#a"/>
  <linearGradient id="u" x1="268.5" x2="271.5" y1="206.5" y2="226" gradientTransform="matrix(.7997 0 0 .7997 101.71 304.02)" gradientUnits="userSpaceOnUse" xlink:href="#b"/>
  <linearGradient id="A" x1="307.18" x2="301.41" y1="510.72" y2="502.38" gradientTransform="matrix(.7997 0 0 .7997 22.337 64.546)" gradientUnits="userSpaceOnUse" xlink:href="#a"/>
  <linearGradient id="g" x1="85.25" x2="99.406" y1="65.453" y2="100.45" gradientTransform="matrix(.7997 0 0 .7997 101.71 304.02)" gradientUnits="userSpaceOnUse" xlink:href="#c"/>
  <linearGradient id="i" x1="149.75" x2="146.84" y1="412.16" y2="412.16" gradientTransform="matrix(.7997 0 0 .7997 22.337 64.546)" gradientUnits="userSpaceOnUse" xlink:href="#b"/>
  <linearGradient id="j" x1="232.36" x2="227.35" y1="365.91" y2="355.41" gradientTransform="matrix(.7997 0 0 .7997 22.337 64.546)" gradientUnits="userSpaceOnUse" xlink:href="#a"/>
  <linearGradient id="p" x1="263.53" x2="261.91" y1="178.25" y2="175.75" gradientTransform="matrix(.7997 0 0 .7997 101.71 304.02)" gradientUnits="userSpaceOnUse" xlink:href="#b"/>
  <linearGradient id="q" x1="278.14" x2="280.84" y1="505.26" y2="509.01" gradientTransform="matrix(.7997 0 0 .7997 22.337 64.546)" gradientUnits="userSpaceOnUse" xlink:href="#b"/>
  <linearGradient id="w" x1="287.12" x2="288.09" y1="570.74" y2="573.99" gradientTransform="matrix(.7997 0 0 .7997 22.337 64.546)" gradientUnits="userSpaceOnUse" xlink:href="#b"/>
  <linearGradient id="x" x1="283.91" x2="285.09" y1="575.66" y2="593.41" gradientTransform="matrix(.7997 0 0 .7997 22.337 64.546)" gradientUnits="userSpaceOnUse" xlink:href="#a"/>
  <linearGradient id="y" x1="270.26" x2="272.35" y1="33.851" y2="46.037" gradientTransform="matrix(.7997 0 0 .7997 101.71 304.02)" gradientUnits="userSpaceOnUse" xlink:href="#c"/>
  <linearGradient id="z" x1="272.18" x2="288.29" y1="44.611" y2="69.536" gradientTransform="matrix(.7997 0 0 .7997 101.71 304.02)" gradientUnits="userSpaceOnUse" xlink:href="#c"/>
  <linearGradient id="r" x1="204.25" x2="180.25" y1="478.44" y2="461.44" gradientUnits="userSpaceOnUse">
   <stop stop-color="#a10606" offset="0"/>
   <stop stop-color="#c80d0d" offset="1"/>
  </linearGradient>
  <linearGradient id="v" x1="154.5" x2="171.75" y1="582.91" y2="593.94" gradientTransform="matrix(.7997 0 0 .7997 21.537 61.347)" gradientUnits="userSpaceOnUse">
   <stop stop-color="#c7e7fc" offset="0"/>
   <stop stop-color="#f9fdff" offset="1"/>
  </linearGradient>
  <filter id="B">
   <feGaussianBlur stdDeviation="2.297"/>
  </filter>
  <filter id="s">
   <feGaussianBlur stdDeviation=".278"/>
  </filter>
  <filter id="f">
   <feGaussianBlur stdDeviation="2.94"/>
  </filter>
  <filter id="C">
   <feGaussianBlur stdDeviation="4.117"/>
  </filter>
  <filter id="D">
   <feGaussianBlur stdDeviation="1.112"/>
  </filter>
 </defs>
 <path transform="matrix(.7997 0 0 .7997 -77.712 -238.1)" d="M327.655 308.289c-9.175-.052-18.317 3.149-25.437 9.187l-2.188-2.062-15.593 16-5.313 2.219 5.406-2.407 1.5-1.562-37.593 16.719-14.782 6.125-38.843 17.718-22.688 10.063c-6.7 3.916-14.097 13.715-19.594 21.312l-1.843-64.968c-10.314 12.88-16.7 31.446-20.625 48.312v.093l.687 104.157L118 502.29c-2.747 3.288-1.793 7.629-2.406 11.625-1.725 5.44-8.063 10.312-8.063 10.312l10.063 10.532c3.423-3.412 7.443-6.457 12-7.907.483-.077.954-.162 1.437-.218l.22 34.75v.5l7.53-.22a37.403 37.403 0 0011.157 28.095l-1.188 1.687-.281.406.406.282 12.313 8.53.437.282.281-.406 1.532-2.25a37.31 37.31 0 0016.406 2.125v5.437l135.25-9.187c16.984-.303 34.055-12.596 48.562-22.25l-.562-.188-124.75 5.72-.219.03-8.625 10.25 2.281-11.343 71.188-38.75c.031.012.062.018.094.03l.125.063 20.218-3.062 1.188 4.969 6.531-6.157 41.406-6.28h.032l.03-.032c11.632-2.912 19.932-11.116 24.438-23.656l-55.53 8.218 2.468-11.375c.006-.012.025-.018.031-.03v-.063a544.171 544.171 0 014.938-10.563l33.125-18.187c-6.759-4.637-13.601-6.476-20.75-6.344-.526.01-1.065.032-1.594.062 6.034-16.427 9.442-34.843 4.906-58.937 2.796-17.723 5.58-26.962 8.375-39.781a34.478 34.478 0 004.938 7.062l1.468 1.219c1.123-1.056 2.436-2.215 2.407-5.125-3.35-2.99-4.969-7.372-6.438-11.531-.963-3.376-1.343-6.734-1.281-9.72 3.65-2.32 6.165-6.407 5.875-10.937 6.516 1.507 9.912 8.808 11.844 14.563 1.465 5.134 1.194 10.129.406 13.937-1.29 6.916-4.961 8.612-9.75 4.47-.238 1.9-.32 3.873-2.25 4.968 7.547 4.997 14.714-.427 17.094-9.156.984-4.756.727-10.402-.907-16.125-2.61-8.63-8.123-17.862-17.937-17.875-.225 0-.457.02-.688.03-2.763-3.6-7.226-5.594-11.593-5.405a12.447 12.447 0 00-4.844 1.218c-2.519-6.178-6.68-11.68-12.469-15.687-6.403-4.432-13.826-6.583-21.219-6.625zm41.782 24.719c.27-.011.523-.015.78 0 2.278.132 4.07 1.221 5.22 2.78-3.28 2.044-5.148 6.38-6 10.5-.124.72-.202 1.436-.282 2.157-1.482.064-3.144-.164-5-.906.206-4.125-.186-8.24-1.218-12.188 2.41-1.553 4.608-2.267 6.5-2.343zm7.343 8.437c-.248 1.904-1.051 3.917-2.28 5.313l.03-.157c.493-2.379 1.338-4.065 2.25-5.156zm-7.875 11.375c.012.972.098 1.942.188 2.906a29.995 29.995 0 00-2.594-2.718c-.094-.041-.187-.088-.281-.125.905.088 1.801.056 2.687-.063zm-132.78 28.219L199.53 418.6c1.005-7.398 2.657-14.508 6.25-20.968 3.908-4.789 7.258-.088 10.72 2.718 1.87-3.83 3.474-7.762 4.937-11.75l14.687-7.562zm-42.188 21.687c-.342.543-.69 1.064-1.032 1.625l-.03.032v.03l-13.095 34.438-25.468 26.157-1.5-53.25c10.792 1.674 21.997-1.608 32.312-4.5h.031l.032-.032 8.75-4.5zm137.03 3.47c-.514 4.984-.437 10.212.595 15.78 6.017-5.627 13.609-8.287 16.843.875 2.06 7.144 1.083 19.097-1.812 29.344-1.646 8.968-11.322 12.227-14.563 20.125-.744 2.286-.252 4.19.625 6l-42.75 23.469-28.343 4.281 69.406-99.875zm-136.218 64.28l-13.156 19 3.625-9.187 9.531-9.813zm-39.375 32.282l.125.062-2.656 6.969c-1.185.319-2.405.624-3.75.844l6.125-7.625.156-.157v-.093zm168.125.218c.529.39 1.021.806 1.531 1.22l.032-.032-.157 1.687-1.406-2.875zm-40.437 15.438l.062.219h-.062v-.22zm-1.094.375c-.023 4.3.954 8.674 2.719 13.25l-66.532 36.531 31.032-44.687 32.78-5.094zm1.687 7.812a27.64 27.64 0 002.313 5.844c-1.192-1.885-1.897-3.838-2.313-5.844z" fill-opacity=".784" filter="url(#f)"/>
 <path transform="translate(-99.25 -299.44)" d="M251.978 323.558l-43.584 18.093-42.51 19.368-8.771 4.373c-6.011 5.214-9.756 10.994-14.42 16.544v6.223l5.373 1 8.772-.85 10.32-2.699 10.472-4.798 3.374-4.823 3.399-4.099-10.597 4.948-2.549-1.824-2.124-2.274-1.274-4.649.85-3.123 27.29-12.996 26.59-11.17 20.342-8.073 9.047-9.171zm-33.513 32.588c-5.964 3.094-11.956 6.136-17.993 9.047-.47 1.415-.948 2.82-1.45 4.223l12.92-6.573 6.523-6.697z" fill="url(#g)"/>
 <path transform="translate(-99.25 -299.44)" d="M261.5 313.112l-80.596 82.794c-1.24 10.193-1.129 21.01-4.623 31.014l-5.923 15.12 9.546-9.847 78.097-112.809a29.604 29.604 0 014.623-5.223l-1.125-1.05zM164.56 412.7l-19.593 20.118.125 28.54 1.15.724L164.56 412.7zm-38.436 39.486l-9.622 9.871c-1.972 2.596-1.312 5.85-2.149 8.897-1.4 4.413-5.456 7.847-5.998 8.297l7.123 6.922c.45-.422 4.855-4.517 9.546-5.348.426-.063.848-.139 1.275-.2l-.175-28.44z" fill="url(#h)"/>
 <path transform="translate(-99.25 -299.44)" d="m141.29 330.48 3.124 131.63-1.374 1.325-3.274-130.08c0.509-0.956 1.013-1.908 1.524-2.874z" fill="url(#i)"/>
 <path transform="translate(-99.25 -299.44)" d="m240.13 333.9-19.618 20.143c-6.563 3.515-13.138 6.973-19.742 10.246 1.276-3.882 2.48-7.798 3.773-11.67-7.015 6.188-14.092 11.264-21.142 19.767a281.77 281.77 0 0 1-9.747 4.048c-3.483-1.707-6.525-4.255-5.148-10.846 22.252-11.661 47.13-21.534 71.624-31.688z" fill="url(#j)"/>
 <path transform="translate(-99.25 -299.44)" d="M139.276 333.86l3.117 130.196-5.523 5.324 6.448-.8-13.22 34.787 2.948.95a29.752 29.752 0 00-.475 3.648l-5.023.1-.674-139.774c2.56-14.485 7.688-25.48 12.402-34.43z" fill="url(#k)"/>
 <path transform="translate(-99.25 -299.44)" d="M312.23 342.15a8.643 8.643 0 012.025.6c.924.507 1.747 1.19 2.474 2.025a28.473 28.473 0 002.524 8.897c-2.394 10.892-5.357 19.528-7.122 32.938l-.025.075v.1c6.343 33.514-5.991 53.056-15.844 74.872l-4.973 20.968-6.823 6.797.3-7.672-4.398 6.298-1.575-8.147 5.623-27.965c2.603-.732 6.292-1.223 6.698-4.249-1.115-3.663-4.046-5.962-3.674-10.096 3.456-5.962 9.602-9.243 12.046-16.019 2.345-8.303 3.579-18.49 1.849-24.491-2.408-8.32-9.167-4.706-14.32-.725a48.947 48.947 0 01.125-13.145l19.968-28.715c2.603-3.76 4.302-7.996 5.123-12.345z" fill="url(#l)"/>
 <path transform="translate(-99.25 -299.44)" d="m203.45 354.37-8.2 22.555c-4.043-2.53-6.833-3.04-9.769 0.287-7.35 15.253-5.399 33.23-9.946 49.432l-10.721 27.365-26.965 38.96a30.05 30.05 0 0 0-4.524 10.122l-1.474-0.525 44.683-119.11c9.071-14.916 17.745-21.153 26.916-29.09z" fill="url(#m)"/>
 <path transform="translate(-99.25 -299.44)" d="M190.35 374.864c1.42.057 2.836.995 4.624 1.974l-.625 1.675c-1.89-1.92-4.157-3.34-6.373-2.824.818-.614 1.598-.856 2.374-.825z" fill="url(#n)"/>
 <path transform="translate(-99.25 -299.44)" d="M308.882 434.667c-1.952 5.188-4.725 10.776-7.047 15.67l22.667-12.37c-4.834-1.949-10.701-3.315-15.62-3.3zm-20.992 8.222l-31.614 17.319-.674.1-4.449 2.699c-1.786 3.76-3.048 7.367-3.374 10.996l.175.5-.2.025c-.232 3.588.453 7.207 2.475 11.02l-55.23 30.29-7.822 11.27a29.857 29.857 0 01-16.22 11.721l.8 2.4L262.2 491.97l.275.15 16.22-9.121-.7-2.95-.026-.1.025-.074 3.124-14.47c-.277-.625-.592-1.234-.874-1.85l-1.1-3.698c-.139-.106-.265-.176-.4-.275l-1.724-5.148 2.599 6.098 1.374 1.1 1.075-.6 2.024-9.297c3.164-.897 5.707-2.042 6.223-3.999-.455-1.752-1.566-3.268-2.424-4.848z" fill="url(#o)"/>
 <path transform="translate(-99.25 -299.44)" d="M324.951 438.166l-23.091 12.52c-.254.533-.496 1.068-.75 1.6l25.04-13.595c-.393-.186-.798-.351-1.199-.525zm-42.96 23.291l-.724.4.55.425.175-.825zm-.524 1.5z" fill="url(#p)"/>
 <path transform="translate(-99.25 -299.44)" d="M252.328 461.607l-1.55.85-.1.05c-2.386 3.909-3.51 7.72-3.623 11.596l-10.73 1.676 6.65-12.797 9.353-1.375z" fill="url(#q)"/>
 <path transform="translate(-99.25 -299.44)" d="M282.742 307.139c-8.757-.08-17.226 3.797-22.692 11.695L138.32 494.021c-8.198 11.844-6.325 27.027 3.573 36.711l10.871-15.77.225-.324.35.225 9.846 6.847.325.225-.225.325-10.57 15.295a29.094 29.094 0 0033.787-10.896l120.156-173.612c5.276-7.624 6.761-16.68 4.573-24.766-.01.007-.015.018-.025.025-.096-.352-.19-.701-.3-1.05.007-.003.019.004.025 0-.128-.41-.252-.82-.4-1.224-.015.01-.034.014-.05.025a29.441 29.441 0 00-.624-1.6c.01-.005.015-.019.025-.025-1.97-4.495-5.174-8.517-9.622-11.595-5.404-3.74-11.527-5.644-17.518-5.698z" fill="url(#r)"/>
 <path transform="matrix(.7997 0 0 .7997 -77.712 -238.1)" d="m167.16 567.73 11.5 7.968-14.813 21.375c-6.492 0.299-10.992-1.618-11.5-7.968l14.813-21.375z" fill-opacity=".446" filter="url(#s)"/>
 <path transform="translate(-99.25 -299.44)" d="m242.76 463.08-7.122 12.745-14.345 2.2 9.022-13.02 12.445-1.925z" fill="url(#t)"/>
 <path transform="translate(-99.25 -299.44)" d="M338.296 464.981l-43.809 6.773-2.424 11.17-.05.126-.1.074-4.748 4.474 32.063-4.748c8.84-2.22 15.496-8.447 19.068-17.869zm-59.478 18.543l-13.42 7.298 14.62-2.175-1.2-5.123z" fill="url(#u)"/>
 <path d="M166.473 168.01c1.845-.027 3.765.751 5.224 2.624 3.063 7.342-5.854 12.465-10.522 6.472-2.45-5.047 1.24-9.037 5.298-9.096z" fill="#ccc"/>
 <path d="M185.267 183.03l-.125.2.1.15.025-.35zm-.225.374l-3.724 6.273.6 3.074 3.124-9.347zm.15.55l-2.65 8.672 2.075-2.074.575-6.598z" fill="#f9f9f9"/>
 <path transform="translate(-99.25 -299.44)" d="m153.21 515.76 9.197 6.372-11.846 17.094c-5.192 0.239-8.79-1.294-9.197-6.373l11.846-17.093z" fill="url(#v)"/>
 <path transform="translate(-99.25 -299.44)" d="M310.307 519.836c-.792.449-1.548.919-2.325 1.375l-96.814 3.698.85-1.05 98.289-4.023z" fill="url(#w)"/>
 <path transform="translate(-99.25 -299.44)" d="M307.983 521.56c-8.863 5.275-19.362 11.456-34.113 14.52l-107.86 7.822.024-4.073a30.026 30.026 0 004.499-.875l1.124 2.9 34.588-18.82-1.5 9.672 6.148-7.722 97.09-3.424z" fill="url(#x)"/>
 <path transform="translate(-99.25 -299.44)" d="M315.78 323.883a6.226 6.226 0 00-.725.075c-1.884.31-2.735.52-4.124 1.374.145.419.449 1.2.575 1.624 1.84-.946 3.484-1.473 4.898-1.574 7.62-.546 9.068 9.494 4.424 13.02-.037.317-.078.618-.1.95 2.839-1.813 4.689-5.07 3.773-8.697-1.382-3.979-5.106-6.939-8.721-6.772zm-3.074 14.694c-.043.556-.079 1.12-.15 1.675 1.298.537 2.676.668 4.023.524.011-.4.023-.799.05-1.2-1.162-.061-2.467-.365-3.923-.999z" fill="url(#y)"/>
 <path transform="translate(-99.25 -299.44)" d="M324.826 328.58c-.141.006-.28.014-.425.026.332.57.627 1.177.85 1.824.015.076.012.15.025.225 5.707.749 8.428 7.594 10.021 12.32 1.206 4.223 1.364 8.39.7 11.596-1.31 4.829-3.722 7.704-8.447 4.549-.055.733-.323 1.738-1.15 2.574 5.321 2.75 10.734-.423 12.096-7.198.756-3.65.825-8.13-.45-12.595-1.982-5.948-5.988-13.602-13.22-13.32zm-2.424.826c-8.347 8.562-5.709 21.919 1.924 30.513.21.178.615.768.825.925.708-.53 1.313-1.596 1.375-2.674-2.093-2.15-4.417-5.747-5.573-9.796-1.206-4.223-1.363-8.415-.7-11.621.518-2.505 1.494-4.242 2.649-5.173-.007-.178-.003-.355-.025-.525a6.08 6.08 0 00-.475-1.65z" fill="url(#z)"/>
 <path transform="translate(-99.25 -299.44)" d="m266.02 466.31c-4.331-0.137-8.28 4.371-6.298 9.946 5.16 7.39 14.804 1.561 11.92-6.548-1.612-2.31-3.653-3.336-5.622-3.398z" fill="url(#A)"/>
 <path transform="matrix(.7997 0 0 .7997 -77.712 -238.1)" d="M324.687 309.383c-12.982.11-23.413 9.532-29.378 20.35-49.845 71.972-100.167 143.657-149.716 215.806-6.582 11.882-4.83 27.506 4.094 37.594-8.2-13.783-5.45-31.918 4.79-43.887C205.03 466.713 255.234 393.813 306 321.508c5.321-6.395 12.94-10.776 21.157-12.156-.823.005-1.647-.02-2.47.03z" fill="#fff" filter="url(#B)"/>
 <path transform="matrix(.7997 0 0 .7997 -77.712 -238.1)" d="M332.406 310.227c13.89 6.265 23.052 20.481 22.03 35.437-.439 17.556-14.654 30.064-23.184 44.243-45.553 65.616-90.776 131.565-136.534 196.976-2.23 2.631-4.799 5.037-7.687 7 16.324-4.905 22.732-22.315 32.42-34.568 45.797-66.42 92.173-132.718 137.61-199.213 9.053-15.22 3.639-37.197-12.155-45.594-4.232-2.41-8.884-4.133-13.657-4.813l.91.418.247.114zM187.03 593.883c-.18.015.042.08 0 0z" fill-opacity=".562" filter="url(#C)"/>
 <path d="M184.317 6.844c-7.338-.042-14.648 2.518-20.343 7.347l-1.749-1.65-19.943 20.493C117.154 43.46 91.523 53.525 68.634 65.547c-.772 4.703.366 8.829 5.423 12.246a372.976 372.976 0 009.297-3.874 87.206 87.206 0 00-5.073 6.998l-8.472 4.323c-7.865 2.324-16.77 5.044-25.341 3.449l-.175-6.123c4.606-6.424 9.01-12.469 16.12-17.519l.05-.025 89.367-39.835 1.2-1.25-91.093 40.486C54.58 67.555 48.664 75.39 44.268 81.466L42.794 29.51C34.546 39.81 29.439 54.658 26.3 68.146V68.221l.55 83.295-10.197 10.471c-2.197 2.63-1.434 6.1-1.924 9.297-1.38 4.35-6.448 8.247-6.448 8.247l8.047 8.422c2.738-2.73 5.953-5.164 9.597-6.323.386-.062.763-.13 1.15-.175l.174 27.79v.4l6.023-.175a29.912 29.912 0 008.922 22.466l-.95 1.35-.225.325.325.225c1.83 4.887 5.355 6.725 9.847 6.822l.35.225.224-.325 1.225-1.799a29.838 29.838 0 0013.12 1.7v4.348l108.16-7.348c13.583-.242 27.235-10.072 38.836-17.793l-.45-.15-99.763 4.573-.175.025-6.897 8.197 1.824-9.071 56.93-30.989c.024.01.05.015.074.025l.1.05 16.17-2.45.949 3.974 5.223-4.923 33.113-5.023h.025l.025-.025c9.301-2.329 15.939-8.89 19.543-18.918l-44.41 6.573 1.975-9.097c.005-.01.02-.015.025-.025v-.05a435.182 435.182 0 013.949-8.447l26.49-14.545c-5.405-3.708-10.877-5.178-16.594-5.073-.42.008-.851.026-1.274.05 4.825-13.137 7.55-27.864 3.923-47.133 2.236-14.173 4.463-21.561 6.698-31.813a27.572 27.572 0 003.948 5.648l1.175.974c.898-.844 1.947-1.77 1.924-4.098-2.679-2.391-3.973-5.896-5.148-9.222a26.64 26.64 0 01-1.025-7.772c2.92-1.856 4.93-5.124 4.699-8.747 5.21 1.205 7.926 7.044 9.471 11.646 1.172 4.106.956 8.1.325 11.146-1.032 5.53-3.967 6.887-7.797 3.574-.19 1.52-.256 3.098-1.8 3.973 6.036 3.997 11.768-.341 13.67-7.322.788-3.803.582-8.318-.724-12.895-2.088-6.901-6.497-14.284-14.345-14.295-.18 0-.365.016-.55.025-2.21-2.88-5.779-4.474-9.271-4.324a9.954 9.954 0 00-3.874.975c-2.014-4.94-5.342-9.341-9.971-12.545-5.121-3.544-11.057-5.265-16.969-5.298zm-.825.85c5.992.053 12.115 1.957 17.519 5.697 4.448 3.079 7.652 7.1 9.621 11.596-.01.006-.015.02-.025.025.227.527.43 1.062.625 1.6.015-.012.035-.015.05-.026.148.405.272.815.4 1.225-.007.004-.018-.004-.025 0 .11.348.203.698.3 1.05.01-.007.015-.019.025-.025 2.188 8.086.703 17.142-4.573 24.766L87.252 227.213a29.094 29.094 0 01-33.787 10.896l10.57-15.294.226-.325-.325-.225-9.847-6.847-.35-.225-.224.324-10.871 15.77c-9.899-9.684-11.771-24.868-3.574-36.712L160.8 19.39c5.467-7.898 13.935-11.774 22.692-11.696zm-21.242 5.972l1.125 1.05a29.604 29.604 0 00-4.624 5.223L80.655 132.748l-9.547 9.846 5.923-15.12c3.495-10.004 3.383-20.82 4.623-31.013l80.596-82.795zm54.28 10.771c3.616-.166 7.34 2.794 8.722 6.773.915 3.627-.935 6.883-3.774 8.697.023-.332.063-.633.1-.95 4.645-3.526 3.197-13.566-4.423-13.02-1.414.101-3.058.627-4.898 1.574-.126-.425-.43-1.206-.575-1.624 1.388-.854 2.24-1.064 4.123-1.375.24-.04.484-.064.725-.075zm1.2 2.174c.216-.008.418-.012.625 0 1.82.106 3.254.977 4.173 2.225-2.623 1.633-4.116 5.101-4.798 8.397-.1.574-.162 1.147-.225 1.724-1.185.051-2.515-.132-3.999-.725.165-3.298-.149-6.589-.974-9.746 1.927-1.243 3.685-1.814 5.198-1.875zm7.847 2.524c7.232-.282 11.238 7.373 13.22 13.32 1.275 4.466 1.206 8.945.45 12.596-1.362 6.774-6.775 9.947-12.096 7.197.827-.836 1.094-1.84 1.15-2.574 4.724 3.156 7.136.28 8.447-4.548.663-3.205.505-7.373-.7-11.596-1.593-4.726-4.314-11.572-10.021-12.32-.014-.076-.01-.15-.025-.225a10.434 10.434 0 00-.85-1.825c.144-.011.283-.019.425-.025zm-2.424.825c.228.523.4 1.07.475 1.65.022.17.017.346.025.524-1.156.932-2.131 2.669-2.65 5.174-.663 3.205-.505 7.397.7 11.62 1.156 4.05 3.48 7.647 5.573 9.797-.062 1.077-.666 2.144-1.374 2.674-.21-.158-.615-.748-.825-.925-7.633-8.595-10.272-21.952-1.924-30.514zm-181.11 1.075l3.125 131.627-1.375 1.324L40.52 33.91c.51-.957 1.014-1.908 1.525-2.874zm181.56 2.324c-.199 1.522-.841 3.132-1.825 4.248l.025-.125c.394-1.902 1.07-3.25 1.8-4.123zm-82.72 1.1L121.265 54.6c-6.563 3.516-13.139 6.973-19.743 10.246 1.277-3.882 2.48-7.798 3.774-11.67-7.015 6.189-14.092 11.265-21.142 19.768a281.772 281.772 0 01-9.747 4.048c-3.483-1.708-6.525-4.255-5.148-10.846 22.252-11.662 47.129-21.534 71.624-31.688zm-101.033.133l3.824 129.842-6.054 5.5 6.448-.8-13.22 34.788 2.949.95a29.752 29.752 0 00-.475 3.648l-5.023.1-.675-139.774c2.56-14.485 7.511-25.304 12.226-34.254zm173.606 4.54c1.457.634 2.761.937 3.924 1-.028.4-.04.8-.05 1.199-1.347.144-2.726.012-4.024-.525.072-.554.107-1.118.15-1.674zm3.849 3.324c.01.777.078 1.553.15 2.324a23.988 23.988 0 00-2.074-2.174c-.076-.033-.15-.07-.225-.1a9.3 9.3 0 002.149-.05zm-4.324.25a8.643 8.643 0 012.025.6c.924.505 1.747 1.188 2.474 2.024a28.473 28.473 0 002.524 8.896c-2.394 10.893-5.357 19.529-7.122 32.938l-.025.075v.1c6.343 33.515-5.991 53.057-15.845 74.873l-4.973 20.967-6.822 6.798.3-7.672-4.399 6.297-1.574-8.147 5.623-27.965c2.602-.732 6.291-1.223 6.697-4.248-1.115-3.664-4.046-5.963-3.673-10.096 3.455-5.963 9.602-9.243 12.045-16.02 2.346-8.303 3.58-18.489 1.85-24.49-2.408-8.321-9.167-4.707-14.32-.725a48.947 48.947 0 01.125-13.145l19.967-28.715c2.604-3.761 4.303-7.996 5.123-12.345zm-108.785 12.22l-8.199 22.201c-4.044-2.53-6.833-2.686-9.77.64-7.349 15.253-5.398 33.231-9.946 49.433l-10.72 27.365-26.966 38.96a30.05 30.05 0 00-4.523 10.122l-1.475-.525L77.281 84.015c9.07-14.916 17.744-21.153 26.915-29.089zm15.02 1.774l-6.523 6.698-12.92 6.573c.502-1.403.979-2.809 1.45-4.224 6.036-2.91 12.029-5.952 17.993-9.047zm-8.097 8.322l-29.265 30.04c.804-5.917 2.125-11.603 4.999-16.77 3.125-3.829 5.803-.07 8.571 2.175 1.496-3.064 2.78-6.208 3.949-9.397l11.746-6.048zM91.1 75.42c1.419.057 2.836.995 4.623 1.974l-.624 1.674c-1.891-1.92-4.157-3.339-6.373-2.824.818-.614 1.597-.856 2.374-.824zm-13.72 6.947c-.273.434-.552.85-.825 1.3l-.025.025v.025l-10.47 27.54-20.368 20.917-1.2-42.585c8.63 1.34 17.591-1.285 25.84-3.598h.026l.025-.025 6.997-3.599zm109.585 2.774c-.412 3.986-.35 8.167.475 12.62 4.812-4.5 10.883-6.627 13.47.7 1.647 5.713.865 15.272-1.45 23.467-1.316 7.17-9.053 9.778-11.645 16.094-.596 1.828-.202 3.351.5 4.798l-34.188 18.768-22.667 3.424 55.505-79.871zM76.031 93.987l-.55.55c-.012.02-.012.054-.024.075-4.474 7.5-8.138 19.29-9.722 25.99l.425.625.725.05c.026-.03.049-.095.075-.125 1.97-2.301 4.58-5.913 6.397-10.671 1.841-4.82 2.883-10.752 3.274-15.77l-.6-.724zm-.3.55l-9.421 25.915c.531-5.31 7.056-20.722 9.422-25.915zm.176.524c-.596 4.21-1.36 11.154-2.874 15.12-1.282 3.356-4.733 8.231-6.148 10.471l9.022-25.591zM65.31 113.255l-20.792 54.73c-.947.255-1.923.5-2.999.675l4.898-6.098.125-.125v-.175l-.824-28.89 19.592-20.117zm144.323 21.967c4.919-.015 11.036 1.226 15.87 3.174l-23.293 12.62c2.322-4.893 5.47-10.606 7.423-15.794zM78.03 136.546L67.51 151.741l2.899-7.348 7.622-7.847zm147.67 2.175c.401.174.807.339 1.2.524l-25.04 13.595c.254-.531.62-1.442.874-1.974l22.967-12.145zm-37.06 4.723c.858 1.58 1.968 3.095 2.424 4.848-.516 1.956-3.06 3.101-6.223 3.999l-2.024 9.296-1.075.6-1.375-1.1-2.599-6.097 1.85 5.498c.325 2.096 1.597 4.08 2.249 5.473l-3.124 14.47-.025.074.025.1.7 2.95-13.795 7.521-.625.55-1.325.225c.094.041.181.085.275.125l-91.466 49.807-.8-2.4a29.857 29.857 0 0016.22-11.72l7.821-11.27 55.23-30.29c-2.424-3.834-2.314-8.044-2.349-12.295.422-3.375 1.612-6.748 3.274-10.247l4.148-2.274 32.588-17.843zM26.873 152.74l.175 28.44c-.426.06-.848.136-1.274.2-4.691.83-9.096 4.925-9.547 5.348l-7.122-6.923c.541-.45 4.598-3.884 5.998-8.296.836-3.047.177-6.302 2.149-8.897l9.621-9.872zm155.869 9.272l-.175.825-.55-.425.725-.4zm-29.665.15l-1.55.85-.099.05c-2.386 3.909-3.511 7.72-3.624 11.595l-10.642 1.588 6.652-12.62 9.263-1.463zm27.915.375c.423.311.817.644 1.225.974l.025-.025-.125 1.35-1.125-2.3zm-37.486 1.1l-7.123 12.745-14.344 2.199 9.021-13.02 12.446-1.925zm95.54 1.899c-3.573 9.422-10.229 15.648-19.068 17.868l-32.063 4.748 4.748-4.473.1-.075.05-.125 2.424-11.17 43.809-6.773zm-72.274 1.324c-4.33-.137-8.28 4.372-6.297 9.947 5.16 7.39 14.804 1.56 11.92-6.548-1.612-2.31-3.654-3.337-5.623-3.399zm-.3 1.15c1.845-.027 3.765.751 5.224 2.624 3.063 7.342-5.854 12.465-10.522 6.472-2.45-5.047 1.24-9.037 5.298-9.096zm-18.693 7.172c-.018 3.439.763 6.937 2.174 10.596L96.75 214.993l24.816-35.737 26.215-4.074zm69.25 4.299c-2.231.045-4.477.29-6.673.574-5.047.953-11.967 1.715-15.269 4.724l.85.125c9.368.834 18.568-1.399 27.64-3.424l.45-.775-.375-.575c-2.174-.539-4.392-.695-6.623-.65zm-.325.524c2.3-.003 4.612.118 6.273.35l-27.34 4.028c3.666-1.246 10.631-3.388 14.82-3.978 1.658-.257 3.948-.396 6.247-.4zm6.397 1.075c-6.46 2.166-20.765 3.894-26.224 3.41l26.224-3.41zm-37.835 1.95l-.025.35-.1-.15.125-.2zm-.225.374l-3.124 9.347-.865-3.87 3.989-5.477zm.275-.2l-.347 7.082-2.427 2.34 2.774-9.422zm-5.748.875l1.2 5.123-14.62 2.174 13.42-7.297zM53.965 216.317l9.196 6.373-11.846 17.094c-4.314.374-7-2.511-9.196-6.373l11.846-17.094zm157.092 4.074c-.791.449-1.548.919-2.324 1.374l-96.815 3.699.85-1.05 98.29-4.023zm-2.948 1.849c-8.863 5.275-18.738 11.33-33.489 14.395l-107.86 7.822.025-4.074a30.026 30.026 0 004.498-.874l1.125 2.899 34.587-18.818-1.5 9.671 6.523-7.597 96.09-3.424zm-45.784 10.146c-5.229.294-10.733 1.629-14.995 2.95l.225.749c.015-.004.036.004.05 0l-.025.35c.033.006.068.019.1.025.008.001.018-.027.025-.025 7.96 1.536 17.396.35 27.69-1.125l-.05-.525h.15l.1-.8c-4.249-1.517-8.799-1.754-13.27-1.599zm12.645 1.775l-26.69 1.6c2.895-1.569 9.698-2.711 13.945-2.95 4.28-.137 8.545.603 12.745 1.35zm-.3.55c-6.696 1.752-20.696 2.88-25.69 1.424l25.69-1.425z"/>
 <path transform="translate(-99.25 -299.44)" d="M259.58 354.92c-7.425.155-15.762 5.261-21.25 13.781-7.633 11.854-6.98 25.999 1.563 31.5 8.544 5.502 21.68.26 29.313-11.593 7.633-11.854 6.98-25.999-1.563-31.5-2.402-1.548-5.156-2.249-8.062-2.188zm-.03 3.656c2.148.082 4.177.69 5.968 1.844 7.168 4.616 7.765 16.508 1.25 26.625s-17.582 14.49-24.75 9.875c-7.167-4.615-7.765-16.508-1.25-26.625 4.887-7.588 12.337-11.965 18.782-11.719zm-4.063 2.25l-.187.25-16.938 26.282-.156.25.219.156 3.75 2.406.218.125.157-.25 10.656-16.531-5.563 19.937-.062.188.156.094 4.406 2.843.22.157.155-.25 16.938-26.313.156-.25-.219-.156-3.718-2.406-.25-.125-.157.25-10.656 16.562 5.594-19.937.062-.22-.187-.093-4.375-2.844-.219-.125z" filter="url(#D)"/>
 <path d="m168.43 57.331c-8.396-5.407-21.377-0.256-28.938 11.486-7.562 11.742-6.88 25.69 1.516 31.097s21.377 0.257 28.938-11.485c7.562-11.742 6.88-25.691-1.516-31.098zm-1.8 2.796c7.313 4.71 7.91 16.79 1.323 27.018s-17.831 14.683-25.145 9.974c-7.313-4.71-7.91-16.79-1.323-27.019 6.587-10.228 17.831-14.683 25.145-9.973zm-10.148 1.04-16.936 26.298 3.738 2.407 11.615-18.038-6.051 21.622 4.402 2.835 16.935-26.299-3.737-2.407-11.616 18.038 6.05-21.621-4.401-2.835z" fill="#e6e6e6"/>
 <path d="M168.593 57.073c-8.543-5.502-21.689-.258-29.322 11.595-7.634 11.854-6.969 25.992 1.574 31.493 8.544 5.502 21.69.259 29.323-11.595 7.634-11.854 6.969-25.992-1.575-31.493zm-.075.255c8.249 5.312 8.697 19.322 1.207 30.952-7.49 11.63-20.305 16.688-28.554 11.376-8.249-5.312-9.072-19.322-1.582-30.952 7.49-11.63 20.68-16.688 28.929-11.376zm-1.725 2.54c-7.46-4.803-18.87-.255-25.53 10.084-6.657 10.34-6.077 22.61 1.383 27.414 7.46 4.804 18.87.255 25.529-10.084 6.658-10.34 6.078-22.61-1.382-27.413zm-.326.506c7.168 4.616 8.03 16.256 1.515 26.373s-17.844 14.729-25.01 10.113c-7.168-4.615-7.905-16.63-1.39-26.748 6.515-10.116 17.718-14.354 24.885-9.738zm-10.044.392l-.162.252-16.936 26.299-.163.253.222.142 3.737 2.407.222.143.163-.253 10.66-16.553-5.586 19.955-.046.194.152.098 4.402 2.835.222.142.163-.252 16.935-26.299.163-.253-.222-.142-3.737-2.407-.222-.143-.162.253-10.67 16.569 5.585-19.955.07-.2-.166-.108-4.402-2.835-.222-.142zm.118.29l4.028 3.095-6.005 21.427.49.182 11.329-18.66 3.42 2.997-16.61 25.793-4.029-2.594 5.994-21.412-.48-.198-11.453 17.785-3.294-2.121 16.61-26.294z"/>
</svg>
