<svg xmlns="http://www.w3.org/2000/svg" xmlns:xlink="http://www.w3.org/1999/xlink" width="160" height="160"><defs><linearGradient id="c"><stop offset="0" stop-color="#fff"/><stop offset="1" stop-color="#fff" stop-opacity=".008"/></linearGradient><linearGradient id="b"><stop offset="0" stop-color="#fff" stop-opacity="0"/><stop offset=".25" stop-color="#ff0019"/><stop offset=".415" stop-color="#fff"/><stop offset=".75" stop-color="#ff0019"/><stop offset="1" stop-color="#fff" stop-opacity="0"/></linearGradient><linearGradient id="a"><stop offset="0" stop-color="#fff" stop-opacity="0"/><stop offset=".25" stop-color="#00f"/><stop offset=".415" stop-color="#fff"/><stop offset=".75" stop-color="#00f"/><stop offset="1" stop-color="#fff" stop-opacity="0"/></linearGradient><linearGradient xlink:href="#a" id="f" x1="-.071" y1=".602" x2="1.063" y2=".586"/><linearGradient xlink:href="#b" id="d" x1="-.071" y1=".602" x2="1.063" y2=".586"/><linearGradient xlink:href="#c" id="g" x1=".136" y1=".328" x2=".674" y2=".734"/><linearGradient xlink:href="#c" id="e" x1=".178" y1=".867" x2=".644" y2=".328"/></defs><path d="M137.064 41.055c2.079-27.898 48.796-30.885 51.824 2.107V500.4c-14.425-6.895-35.499-10.942-51.824 2.107V41.055z" transform="matrix(.19234 -.20106 .1922 .20122 -14.734 42.993)" fill="url(#d)" fill-rule="evenodd"/><path d="M136.894 502.05c7.246 45.068 7.021 81.476 1.667 143.454 14.978 14.787 33.98 14.437 51.31-1.137-9.567-59.35-9.99-94.818-.718-143.44-18.2-11.036-40.382-9.782-52.26 1.123z" transform="matrix(.19234 -.20106 .1922 .20122 -14.734 42.993)" fill="#bfbfbf" fill-rule="evenodd" stroke="#000" stroke-width="4.495" stroke-linejoin="round"/><path d="M75.193 598.071c20.678-2.506 35.717 16.919 35.717 34.464M169.596 499.678c16.919 3.133 30.919 18.188 35.305 33.853" fill="none" stroke="#000" stroke-width="4.495" stroke-linejoin="round" transform="matrix(.00292 -.28444 .2719 .00305 -27.19 163.84)"/><path d="M144.651 134.728c-2.082-.476-9.744 2.918-8.312 9.49 5.9.156 9.354-5.87 8.312-9.49z" fill="#7f7f7f" fill-rule="evenodd"/><path d="M134.967 142.508c-4.706-6.071-16.16-18.963-26.22-26.59.046-1.133 1.147-3.025 1.438-4.118 3.388 5.502 16.339 17.071 26.082 26.133.387.634-.882 1.91-1.3 4.575z" fill="url(#e)" fill-rule="evenodd"/><g><path d="M137.064 41.055c2.079-27.898 48.796-30.885 51.824 2.107V500.4c-14.425-6.895-35.499-10.942-51.824 2.107V41.055z" transform="matrix(.19425 .19905 -.19027 .2032 99.66 -22.719)" fill="url(#f)" fill-rule="evenodd"/><path d="M136.894 502.05c7.246 45.068 7.021 81.476 1.667 143.454 14.978 14.787 33.98 14.437 51.31-1.137-9.567-59.35-9.99-94.818-.718-143.44-18.2-11.036-40.382-9.782-52.26 1.123z" transform="matrix(.19425 .19905 -.19027 .2032 99.66 -22.719)" fill="#bfbfbf" fill-rule="evenodd" stroke="#000" stroke-width="4.495" stroke-linejoin="round"/><path d="M75.193 598.071c20.678-2.506 35.717 16.919 35.717 34.464M169.596 499.678c16.919 3.133 30.919 18.188 35.305 33.853" fill="none" stroke="#000" stroke-width="4.495" stroke-linejoin="round" transform="matrix(.2719 0 0 .28445 -15.984 -34.451)"/><path d="M4.522 136.36c-.619 2.045 2.237 9.923 8.891 8.95.565-5.877-5.207-9.738-8.891-8.95z" fill="#7f7f7f" fill-rule="evenodd"/><path d="M5.979 134.846c5.876-4.948 18.545-17.029 25.027-27.732 1.134 0 4.124 1.49 4.488 2.001-5.36 3.608-17.042 16.557-25.7 26.66-.62.411-1.135-.62-3.815-.929z" fill="url(#g)" fill-rule="evenodd"/></g></svg>