<?xml version="1.0" encoding="UTF-8"?>
<svg width="200" height="200" version="1.0" xmlns="http://www.w3.org/2000/svg" xmlns:xlink="http://www.w3.org/1999/xlink">
 <defs>
  <linearGradient id="j" x1="171.14" x2="154.93" y1="331.53" y2="376.78" gradientTransform="matrix(.28644 0 0 .33456 73.98 14.878)" gradientUnits="userSpaceOnUse" xlink:href="#d"/>
  <linearGradient id="d">
   <stop stop-color="#ebebec" offset="0"/>
   <stop stop-color="#fefeff" offset="1"/>
  </linearGradient>
  <linearGradient id="i" x1="329.71" x2="10.363" y1="704.69" y2="728.42" gradientTransform="matrix(.5978 0 0 .16031 73.98 14.878)" gradientUnits="userSpaceOnUse" xlink:href="#d"/>
  <linearGradient id="k" x1="615.24" x2="624.07" y1="18.839" y2="19.561" gradientTransform="matrix(.24433 0 0 2.5519 33.386 28.26)" gradientUnits="userSpaceOnUse">
   <stop stop-color="#dfcba7" offset="0"/>
   <stop stop-color="#f1dbb4" offset="1"/>
  </linearGradient>
  <linearGradient id="l" x1="263.73" x2="315.16" y1="286.68" y2="320.08" gradientTransform="matrix(.32114 0 0 .29842 73.98 14.878)" gradientUnits="userSpaceOnUse" xlink:href="#d"/>
  <linearGradient id="m" x1="342.4" x2="438.46" y1="316.67" y2="347.91" gradientTransform="matrix(.27242 0 0 .35179 73.98 14.878)" gradientUnits="userSpaceOnUse" xlink:href="#d"/>
  <linearGradient id="n" x1="407.42" x2="515.52" y1="276.01" y2="344.27" gradientTransform="matrix(.28176 0 0 .34012 73.98 14.878)" gradientUnits="userSpaceOnUse" xlink:href="#d"/>
  <linearGradient id="o" x1="760.55" x2="612.6" y1="358.19" y2="329.76" gradientTransform="matrix(.27906 0 0 .34341 73.98 14.878)" gradientUnits="userSpaceOnUse" xlink:href="#d"/>
  <linearGradient id="p" x1="52.563" x2="262.78" y1="800.68" y2="779.94" gradientTransform="matrix(.60978 0 0 .15716 73.98 14.878)" gradientUnits="userSpaceOnUse" xlink:href="#d"/>
  <linearGradient id="q" x1="227.92" x2="232.89" y1="29.656" y2="32.984" gradientTransform="matrix(.6504 0 0 .95865 33.386 28.26)" gradientUnits="userSpaceOnUse">
   <stop stop-color="#084700" offset="0"/>
   <stop stop-color="#086200" offset="1"/>
  </linearGradient>
  <linearGradient id="r" x1="160.61" x2="83.461" y1="67.483" y2="168.11" gradientTransform="matrix(2.3638 0 0 .26377 33.386 28.26)" gradientUnits="userSpaceOnUse">
   <stop stop-color="#fff" offset="0"/>
   <stop stop-color="#fff" stop-opacity="0" offset="1"/>
  </linearGradient>
 </defs>
 <g fill-opacity=".124" fill-rule="evenodd">
  <path d="M7.842 177.466c-4.282-.258 4.787-2.886 6.047-3.695.642-.23 1.92-1.024 2.828-1.305.016.004.073-.016.092-.013l1.616-.83c-.095.026-.16.027-.259.055l10.55-5.42c.093-.02.164-.024.255-.041l7.79-3.995.133-.136 10.208-14.292c-15.265-.208-29.989-.768-44.102-1.712l67.531-20.719c33.717-2.647 68.897-1.928 88.005.136l-18.543 19.51c-18.34 1.262-36.09 2.105-53.25 2.54l-46.288 14.239-.85.312-8.36 4.32c-.018.015.01.011-.01.028 26.382-1.13 42.922 2.647 85.194.611-5.051.977-17.242 2.104-20.376 2.31.939.65 7.566 2.07 9.55 2.567-41.18 1.258-52.53-2.287-83.713-.652 0-.006-.017-.008-.017-.013l-2.734 1.413c-.026.041.022.064-.015.108-.275.302-1.454.76-1.9 1.087-.37.27-4.483 3.99-9.382 3.587z"/>
  <path d="M95.892 125.386c-11.308 1.143-23.074-.274-33.818 4.048l-51.08 15.655c12.909.842 25.843 1.027 38.771 1.38-3.016 4.495-7.719 10.258-9.72 13.988 15.797-4.698 31.496-10.027 47.352-14.342 17.34-.5 34.663-1.353 51.973-2.493l16.113-16.944c-19.812-1.812-39.72-1.707-59.59-1.292zm-66.29 42.077c-6.164 2.294-3.514 2.631 1.638 2.09 21.413-.425 43.272 1.722 64.39 1.15-4.51-2.015-3.976-1.953-8.078-1.68-19.243-.193-38.462-1.927-57.709-1.144v-.548l-.24.132zm-7.268 2.298c2.33 1.09 1.257-2.32 0 0zm1.533.57c.093.088.085-.124 0 0z"/>
  <path d="M95.98 126.787c-12.38.876-25.162.202-36.844 5.011L19.138 144.06c11.091.593 22.197.772 33.298 1.073-3.004 4.278-6.183 8.435-9.02 12.829 14.838-4.525 29.662-9.38 44.638-13.272a1694.84 1694.84 0 0050.703-2.447l13.66-14.361c-18.776-1.708-37.613-1.21-56.437-1.095z"/>
 </g>
 <path transform="matrix(.70055 0 0 .70055 -20.203 3.102)" d="m90.078 127.67c66.041-6.295 130.54-5.469 192.55 2.477l-27.862 44.887c-41.688 2.58-83.996 3.302-125.99 0.31l-38.696-47.674z" fill="url(#i)" fill-rule="evenodd"/>
 <path transform="matrix(.70055 0 0 .70055 -20.203 3.102)" d="M90.388 127.673s29.718 2.786 38.077.929c-3.406 7.12.619 44.268.619 44.268s-37.458-44.268-38.696-45.197z" fill="url(#j)" fill-rule="evenodd"/>
 <path d="M110.703 68.577l.234-21.55-1.522.234-.234 21.902 1.522-.586z" fill="#f4d398" fill-rule="evenodd"/>
 <path transform="matrix(.70055 0 0 .70055 -20.203 3.102)" d="M183.184 93.797V62.7l2.675.167.334 31.263-3.01-.334z" fill="url(#k)" fill-rule="evenodd"/>
 <path transform="matrix(.70055 0 0 .70055 -20.203 3.102)" d="M185.826 91.266l1.069-.43 27.94 59.435c-1.24-.31-63.772-6.19-63.772-6.19l32.291-53.79 2.472.975z" fill="url(#l)" fill-rule="evenodd"/>
 <path transform="matrix(.70055 0 0 .70055 -20.203 3.102)" d="M183.424 90.305l-39.79 51.918 39.02.134.77-52.052z" fill="url(#m)" fill-rule="evenodd"/>
 <path transform="matrix(.70055 0 0 .70055 -20.203 3.102)" d="m186.72 90.9 42.66 52.87-42.37-1.682-0.29-51.188z" fill="url(#n)" fill-rule="evenodd"/>
 <path transform="matrix(.70055 0 0 .70055 -20.203 3.102)" d="M281.7 130.15s-27.86-1.239-36.528-.93c-1.858 8.978 7.74 45.198 7.74 45.198 1.856-5.882 27.55-43.34 28.789-44.268z" fill="url(#o)" fill-rule="evenodd"/>
 <path transform="matrix(.70055 0 0 .70055 -20.203 3.102)" d="m90.078 127.67c77.495 13.518 127.44 11.248 192.55 2.477l-27.862 44.887c-33.02 4.747-85.234 6.398-125.99 0.31l-38.696-47.674z" fill="url(#p)" fill-rule="evenodd"/>
 <path transform="matrix(.70055 0 0 .70055 -20.203 3.102)" d="M183.094 66.983c-.515-.645-.134-2.48-.414-3.006.456-1.862-5.152-7.89 1.679-8.482 8.115-.928 3.611 7.615 3.386 8.236-.272.751.127 1.831-.322 2.526-.358.519-.815.97-1.422 1.254-1.037.361-1.899-.782-2.907-.528z" fill="url(#q)" fill-rule="evenodd"/>
 <path d="M108.85 44.308c-.451.632-1.159.9-1.58.6-.421-.3-.397-1.057.053-1.688.451-.632 1.159-.901 1.58-.6.421.3.397 1.056-.054 1.688z" fill="#fff" fill-opacity=".564"/>
 <path d="M107.986 51.301c.58.635 1.454.75 2.117.887.3.013.623-.07.828-.248 27.994 2.634 46.253-3.089 84.982-1.063-2.954.801-12.353 3.092-14.561 4.141 2.733.332 12.74 2.154 15.886 3.727-38.301-3.28-62.212 2.813-86.39.992-.145.34-.339.465-.58.567-.717.332-1.588.142-2.306-.272l.024-8.73z" fill="#00199f" fill-rule="evenodd"/>
 <path d="M107.986 51.301c.58.635 1.454.75 2.117.887.3.013.406 8.014.165 8.116-.717.332-1.588.142-2.306-.272l.024-8.73z" fill-opacity=".184" fill-rule="evenodd"/>
 <path transform="matrix(.70055 0 0 .70055 -20.203 3.102)" d="M187.187 69.714c39.96 3.76 66.025-4.409 121.308-1.517-4.216 1.143-17.633 4.414-20.785 5.911 3.9.473 18.184 3.074 22.676 5.32-54.673-4.683-88.804 4.016-123.317 1.416-.208.485-.174-10.876.118-11.13z" fill="url(#r)" fill-rule="evenodd"/>
</svg>
