<svg xmlns="http://www.w3.org/2000/svg" xmlns:xlink="http://www.w3.org/1999/xlink" width="170.667" height="170.667"><defs><linearGradient id="a"><stop offset="0" stop-opacity=".2"/><stop offset="1" stop-color="#fff" stop-opacity="0"/></linearGradient><linearGradient xlink:href="#a" id="b" x1=".884" y1="1.069" x2="-.112" y2="-.267"/><linearGradient xlink:href="#a" id="c" x1=".931" y1=".267" x2="-.221" y2="0"/></defs><g fill-rule="evenodd"><path d="M19.549 131.554l107.219-52.35-17.791-37.978-89.428 90.328z" fill="#f3fafa" stroke="#000" stroke-width="1.25" stroke-linejoin="round"/><path d="M15.806 134.15l98.664-87.984 12.32 34.087L15.807 134.15z" fill="#f3fafa" stroke="#000" stroke-width="1.25" stroke-linejoin="round"/><path d="M45.469 92.153l81.026 15.051 8.247-31.75-89.273 16.7z" fill="url(#b)" transform="rotate(-36.406 86.853 93.85)"/><path d="M36.382 78.482l98.963-14.226-1.65 10.309-97.313 3.917z" fill="url(#c)" transform="rotate(-36.406 86.853 93.85)"/><path d="M17.588 133.24l96.028-87.46 31.98 10.557L17.588 133.24zM16.347 133.742l92.81-92.153-14.765-20.975-78.045 113.128z" fill="#f3fafa" stroke="#000" stroke-width="1.25" stroke-linejoin="round"/><path d="M17.086 132.958l42.448-23.32-8.39-7.445-34.058 30.765z" fill="#f3fafa" stroke="#000" stroke-width="1.25" stroke-linejoin="round"/><path d="M16.821 133.317l33.121-32.21-7.877-7.27-25.244 39.48z" fill="#f3fafa" stroke="#000" stroke-width="1.25" stroke-linejoin="round"/><path d="M52.572 102.607l5.949 5.074 61.322-37.02-67.271 31.946zM20.94 128.14l18.713-28.937 5.541 5.375-24.254 23.563zM21.586 129.872l25.158-22.337 5.035 5.118-30.193 17.22z" fill="snow"/></g></svg>