<?xml version="1.0" encoding="UTF-8"?>
<svg width="533.33" height="533.33" xmlns="http://www.w3.org/2000/svg" xmlns:xlink="http://www.w3.org/1999/xlink">
 <defs>
  <radialGradient id="d" cx=".505" cy=".527" r=".475">
   <stop stop-color="#ff0004" stop-opacity=".658" offset="0"/>
   <stop stop-color="#e48e17" stop-opacity="0" offset="1"/>
  </radialGradient>
 </defs>
 <path d="m311.65 46.41c-25.185 0-45.625 19.32-45.625 43.125s20.44 43.125 45.625 43.125 45.625-19.32 45.625-43.125-20.44-43.125-45.625-43.125z" fill="#7f7f7f" fill-rule="evenodd" stroke="#000" stroke-linejoin="round" stroke-width="5"/>
 <path d="M347.71 87.416c0 23.805-20.44 43.125-45.624 43.125-25.185 0-45.625-19.32-45.625-43.125S276.9 44.29 302.086 44.29s45.625 19.32 45.625 43.125z" fill="#7f7f7f" fill-rule="evenodd" stroke="#000" stroke-linejoin="round" stroke-width="10"/>
 <path d="M320.007 118.34h-3.735l-.023-9.526a27.058 27.058 0 01-5.58-.886 27.376 27.376 0 01-5.258-2.026V97.61c1.768 1.245 3.55 2.205 5.35 2.88a18.664 18.664 0 005.51 1.108v-9.842l-.76-.19c-3.674-.886-6.288-2.279-7.84-4.178-1.538-1.899-2.306-4.63-2.306-8.196 0-3.777.937-6.72 2.813-8.83 1.89-2.131 4.581-3.291 8.07-3.481l.024-7.31h3.735v7.183a39.032 39.032 0 019.247 2.184v8.038c-1.537-.886-3.074-1.572-4.612-2.057a18.854 18.854 0 00-4.635-.918v9.083l.738.19c3.905.844 6.641 2.258 8.21 4.24 1.583 1.963 2.375 4.875 2.375 8.736 0 3.882-.938 6.867-2.814 8.956-1.875 2.068-4.711 3.249-8.509 3.544v9.59zm-3.735-35.984v-8.26c-1.092.085-1.968.496-2.629 1.235-.646.717-.968 1.635-.968 2.753 0 1.245.3 2.226.899 2.943.6.696 1.499 1.14 2.698 1.33zm3.735 10.317v8.798c1.338-.02 2.337-.38 2.998-1.076.677-.696 1.015-1.74 1.015-3.133 0-1.434-.308-2.5-.923-3.196-.615-.717-1.645-1.182-3.09-1.393zm-45.657 7.722h7.84v-30.54l-8.048 2.28v-8.292l8.002-2.28h8.44v38.832h7.84v8.419H274.35v-8.419z" fill="none" font-family="Bitstream Vera Sans" font-size="40" font-weight="700" stroke="#000" stroke-linejoin="round" stroke-width="5"/>
 <path transform="matrix(1.0576 0 0 1.2118 -10.158 -66)" d="M37.5 253.75c5-8.75 41.25-18.75 60-37.5C118.75 197.5 140 195 140 195s-1.25-13.75-16.25-23.75c-31.25-20 27.5-12.5 41.25 5 8.75-13.75 187.938-52.912 265.438 58.338 5-40 23.35 3.943 32.1.193 6.895.58 1.431-2.951 15.207-9.175-3.75 12.5-8.917 22.886-17.28 18.57-21.74-26.341-19.795-13.532-25.465 8.324 6.25 22.5-12.5 73.75-37.5 142.5l-20 1.25C365 380 362.5 360 355 338.75c-57.5 25-133.75 18.75-173.75 3.75-2.5 18.75-20 48.75-28.75 62.5h-18.75c-13.75-13.75-25-75-25-87.5-12.5 0-68.75-7.5-71.25-26.25 14.583-3.333 31.667-.417 43.75-10-14.167-6.667-28.333-.833-42.5-1.25l-1.25-26.25z" fill="#f1ccd3" fill-rule="evenodd" stroke="#000" stroke-linejoin="round" stroke-width="8.833"/>
 <path transform="matrix(1.0576 0 0 1.2118 -10.158 -66)" d="m127.06 222.65c-0.544-11.97-32.445-3.4-32.445 11.835 0 13.602 30.812 15.24 32.445-11.835z" fill="#fff" fill-rule="evenodd" stroke="#000" stroke-linejoin="round" stroke-width="8.833"/>
 <path transform="matrix(1.0576 0 0 1.2118 -10.158 -66)" d="m102.23 221.42c-6.53 2.176-11.426 18.499-2.176 20.131 8.705 2.72 15.234-20.675 2.176-20.131z" fill-rule="evenodd" stroke="#000" stroke-width="3.75"/>
 <path transform="matrix(1.0576 0 0 1.2118 -10.158 -66)" d="M237.5 171.25s60.625-1.875 84.375 10c5.625-6.25 8.125-10.625 11.25-11.875C318.75 160 260.625 158.75 245 157.5c-3.125 4.375-7.5 13.75-7.5 13.75z" fill-rule="evenodd" stroke="#000" stroke-width="1pt"/>
 <path d="m116.09 129.4s28.424 10.603 38.339 24.235c20.49-5.301-22.475-22.72-38.339-24.235z" fill-opacity=".25" fill-rule="evenodd"/>
 <path transform="matrix(1.0576 0 0 1.2118 -10.158 -66)" d="m160.62 223.12c-39.375-12.5-88.125 58.75-31.875 83.125 76.875 33.125 116.88-54.375 31.875-83.125z" fill="url(#d)" fill-rule="evenodd"/>
 <path d="m98.025 206.27c-4.028-1.978-13.235 9.89-3.453 19.12 2.877 1.32 9.207-18.46 3.453-19.12z" fill="#fff" fill-opacity=".5" fill-rule="evenodd"/>
 <path d="m38.6 243.2c115.66-86.371 205-168.79 368.93-62.14-187.02-109.45-369.51 116.2-368.93 62.141z" fill="#fff" fill-opacity=".5" fill-rule="evenodd"/>
</svg>
