<svg width="400pt" height="400pt" xmlns="http://www.w3.org/2000/svg"><g fill-rule="evenodd"><path d="M59.22 384.212s51.265-264.282 185.615-267.817c152.912 4.42 209.481 252.79 212.132 267.816-60.104 47.73-262.513 90.156-397.747.001z" fill="#006cc1" stroke="#000" stroke-width="10" stroke-linejoin="round"/><path d="M164.402 426.638c-10.017-164.403 66.586-304.94 78.666-310.244 16.794 2.652 124.627 205.061 108.718 310.244-45.963 10.606-134.35 15.91-187.384 0z" fill="#ffac00" stroke="#000" stroke-width="10" stroke-linejoin="round"/><path d="M6.935 103.571c-1.767 19.445 154.814 32.269 211.383 24.314 16.794-7.07 30.937-10.607 48.614-.884 68.944 15.91 230.694 8.839 227.158-16.794-17.677-22.981-162.634-20.329-231.577-7.07-8.839 5.303-23.865 9.722-44.194-2.652-14.142-9.723-205.346-17.856-211.384 3.086z" fill="#ffed00" stroke="#000" stroke-width="10" stroke-linejoin="round"/><path d="M228.042 107.556c-1.768 9.722 25.632 11.49 35.355 3.535 5.303-52.149-30.937-56.568-35.355-3.535z" fill="#ac00ff" stroke="#000" stroke-width="10" stroke-linejoin="round"/><path d="M63.64 380.676c29.168-132.583 97.227-229.81 126.395-241.3-144.956 159.098-32.704 312.01-126.395 241.3z" fill="#fff" fill-opacity=".5"/><path d="M243.952 74.852c-7.955 8.839-15.026 36.24-9.723 35.356 20.329 9.722 2.652-18.562 9.723-35.356z" fill="#fff" fill-opacity=".498"/><path d="M361.508 418.683c50.381-40.659 63.64-98.996 60.989-116.673 7.954 13.258 36.239 72.479 23.864 82.201-15.025 9.723-35.355 22.097-84.853 34.472z" fill-opacity=".25"/><path d="M271.352 107.556c-5.303-4.42 178.545-21.213 212.133 1.768-51.266-11.491-152.028-7.071-212.133-1.768z" fill-opacity=".247"/><path d="M12.973 100.185c-15.026 7.071 136.403 37.422 201.811 21.513-84.853-4.42-124.913 3.236-201.811-21.513z" fill="#fff" fill-opacity=".75"/></g></svg>