<svg width="400pt" height="400pt" xmlns="http://www.w3.org/2000/svg"><g fill-rule="evenodd"><path d="M271.335 360.757s12.771 37.858 27.244 69.693c14.474 31.837 40.017 47.324 43.422 47.324 3.405 0 6.811-18.069 5.96-28.394-.852-10.325-24.691-30.976 16.177 1.72 40.867 32.696 69.814 46.463 67.26 35.278 4.257-27.534-43.422-85.181-12.77-74.856 30.65 10.324 82.584 34.416 50.231-3.442s-65.557-55.067-37.46-54.207c28.095.86 55.34 13.767 41.718-11.185-13.623-24.952-79.16-63.758-107.256-80.106-22.136 11.185-65.578 40.527-94.526 98.175z" fill="#ff4000"/><path d="M284.054 339.743s9.327 44.94 19.502 58.506c10.175 13.567 12.719 11.871 15.263-6.783 2.544-18.654-15.263-37.309 15.262-16.958 30.526 20.35 56.811 45.787 41.549 14.414-15.263-31.373-19.503-39.004 1.695-27.981 21.198 11.023 41.549 19.502 16.11-11.023-19.501-22.046 19.502-27.982 26.286-30.525 16.111 2.544-68.681-44.941-77.16-44.941-9.328 1.696-55.116 58.507-58.507 65.291z" fill="#ff3" fill-opacity=".696"/><path d="M17.806 31.099c78.857 1.696 278.118 33.917 354.431 229.787-26.286 5.088-90.727 67.834-100.902 102.598C77.161 264.278 22.045 107.412 17.806 31.099z" fill="#d9d9d9" stroke="#000" stroke-width="10" stroke-linejoin="round"/><path d="M163.65 292.259s3.39 86.488 3.39 87.336c0 .848 104.295 48.332 110.23 50.876l-5.087-67.834c-9.327.848-92.424-52.571-108.534-70.378zM304.733 151.353s85.531 3.82 86.38 3.84c.847.022 45.754 105.452 48.151 111.448l-67.689-6.753c-9.098-33.045-46.892-88.6-66.842-108.535zM235.317 210.17s14.26 34.122 16.667 39.685c2.954 3.748 77.589 64.656 83.068 68.074l-3.18-21.68c-7.994-7.7-76.803-68.017-96.555-86.08z" fill="#bfbfbf" stroke="#000" stroke-width="10" stroke-linejoin="round"/><path d="M232.637 209.4l-16.769 24.28 20.645 35.734 85.754 67.744 12.387-18.545-81.991-69.24-20.026-39.974z" fill="#bfbfbf" stroke="#000" stroke-width="10" stroke-linejoin="round"/><path d="M124.645 131.154c-28.83 39.004 30.524 87.336 58.506 52.571 33.917-42.396-24.589-83.096-58.506-52.571z" fill="#bfbfbf" stroke="#000" stroke-width="12.5" stroke-linejoin="round"/><path d="M132.276 135.393c21.198-20.35 70.377 4.24 48.332 40.701-24.59 31.372-74.617-8.479-48.332-40.701z" fill="#aeffff" stroke="#000" stroke-width="10" stroke-linejoin="round"/><path d="M148.386 134.502c-6.86 4.738-24.9 19.624-10.175 37.352 12.719 3.392 30.525-35.656 10.175-37.352z" fill="#fff" fill-opacity=".75"/></g></svg>