<svg width="400pt" height="400pt" xmlns="http://www.w3.org/2000/svg"><g stroke="#000" stroke-width="10" stroke-linejoin="round"><path d="M288.75 237.5L446.25 80 232.5 12.5S48.75 120 50 120s238.75 121.25 238.75 117.5z" fill="#ff0" fill-rule="evenodd"/><path d="M290 487.5l-2.5-248.75L50 122.5v230l240 135z" fill="#0f0" fill-rule="evenodd"/><path d="M287.5 240c0-1.25 158.75-158.75 158.75-158.75v240S292.5 487.5 291.25 487.5s-3.75-245-3.75-247.5z" fill="red" fill-rule="evenodd"/><path d="M84.792 148.96c.848 0 239.962 105.143 239.962 105.143l160.258-142.451-216.221-58.507L84.792 148.96z" transform="matrix(1 0 0 1.11952 -36.46 -46.204)" fill="none"/><path d="M85.64 149.808c0 .848 1.696 206.045.848 205.197L326.45 477.954l-3.392-224.699L85.64 149.808z" transform="matrix(1 0 0 1.11952 -36.46 -46.204)" fill="none"/><path transform="matrix(1 0 0 1.11952 -36.46 -46.204)" d="M326.45 478.802l-2.544-224.699 161.106-142.451-2.544 217.068L326.45 478.802z" font-size="12" fill="none"/><path d="M211.133 456.756h-.848.848-.424z" transform="matrix(1 0 0 1.11952 19.502 17.444)" fill="none"/><path d="M211.133 456.756h-.848.848-.424z" transform="matrix(1 0 0 1.11952 147.538 90.365)" fill="none"/><path d="M211.133 456.756h-.848.848-.424z" transform="matrix(1 0 0 1.11952 -66.986 81.038)" fill="none"/><path d="M211.133 456.756h-.848.848-.424z" transform="matrix(1 0 0 1.11952 61.05 153.96)" fill="none"/><path d="M207.741 440.411V199.836l167.04-142.451" fill="none"/><path d="M120.405 390.618V157.44L302.708 34.49" fill="none"/><path d="M348.496 423.687c-.848 0-2.544-242.506-2.544-242.506L113.622 81.127" fill="none"/><path d="M401.068 371.964s-1.697-243.354-1.697-244.202c0-.848-221.307-83.096-221.307-83.096" fill="none"/><path d="M50.027 199.836l239.115 126.34 158.561-176.368" fill="none"/><path d="M48.332 271.061c1.695 0 239.962 138.211 239.962 138.211l159.409-178.911" fill="none"/></g></svg>