<svg xmlns="http://www.w3.org/2000/svg" xmlns:xlink="http://www.w3.org/1999/xlink" width="213.333" height="213.333"><defs><linearGradient id="a"><stop offset="0" stop-color="#fff" stop-opacity="0"/><stop offset="1" stop-color="#fff" stop-opacity=".4"/></linearGradient><linearGradient xlink:href="#a" id="b" x1=".5" y1=".68" x2=".522" y2=".141"/><linearGradient xlink:href="#a" id="c" x1=".605" y1=".352" x2=".293" y2="1.016"/><linearGradient xlink:href="#a" id="e" x1=".471" y1=".73" x2=".486" y2="-.068"/><linearGradient xlink:href="#a" id="d" x1=".273" y1=".695" x2=".152" y2=".297"/></defs><path d="M155.074 86.316a66.768 65.691 0 10-133.536 0 66.768 65.691 0 10133.536 0z" transform="matrix(1.10653 0 0 1.11909 .177 5.653)" fill="#fff" fill-rule="evenodd" stroke="#000" stroke-width="2.247" stroke-linejoin="round"/><path d="M63.19 63.552l28.24-16.8 26.036 16.417-12.061 30.727-32.211-1.053L63.19 63.552zM121.917 118.546l27.186-.383 2.872 24.265-28.274 20.634-18.87-16.66 17.086-27.856zM35.143 116.057l23.261 1.77 16.465 28.861-12.492 14.694-22.974-18.81-4.26-26.515zM28.25 90.402l14.215-25.415.862-11.2c-2.538 0-18.741 26.109-18.618 37.524 2.154 4.307 3.542-.909 3.542-.909zM142.81 46.1v17.748l16.904 28.083 10.834-1.005c.508-12.691-13.2-35.536-17.26-37.566-3.554-2.01-10.478-7.26-10.478-7.26z" fill-rule="evenodd"/><path d="M41.095 64.528l22.845-.507h0" fill="none" stroke="#000" stroke-width="2.5" stroke-linejoin="round"/><path d="M83.08 30.007l10.65 3.37 16.407-3.37s-22.997-3.046-27.058 0z" fill-rule="evenodd"/><path d="M93.892 33.053L91.86 47.775M27.388 91.942l8.123 24.875M59.37 117.832L73.586 92.45M115.721 64.02h26.398M105.568 93.972l15.737 24.876M159.887 92.45l-10.66 25.89M74.6 146.261l30.968.508M62.925 160.983l15.23 11.169M123.402 161.18l-13.265 13.51M151.765 142.2l6.092 1.523M39.065 143.215h0M37.289 143.108l2.344.67" fill="none" stroke="#000" stroke-width="2.5" stroke-linejoin="round"/><path d="M143.127 46.648L130.399 36.6" fill="none" stroke="#000" stroke-width="1pt"/><path d="M78.373 30.285l-16.566 9.713c-13.041 18.396 33.366 21.773 31.046 0-2.01-2.344-14.48-9.713-14.48-9.713z" transform="translate(13.174 17.367)" fill="url(#b)" fill-rule="evenodd"/><path d="M60.957 74.496c9.713.67 21.1 1.005 23.11.67 10.048-4.69-25.12-21.436-23.11-.67z" transform="translate(13.174 17.367)" fill="url(#c)" fill-rule="evenodd"/><path d="M26.794 39.998c-5.72.799-16.489 28.16-15.071 30.814 2.01 2.68 19.09-21.77 15.071-30.814z" transform="translate(13.174 17.367)" fill="url(#d)" fill-rule="evenodd"/><path d="M73.015 11.53s18.42-2.01 19.09 0c-8.038 3.684-11.387 7.033-19.09 0z" transform="translate(13.174 17.367)" fill="url(#e)" fill-rule="evenodd"/><path d="M167.68 76.117c26.875 105.58-89.974 112.89-115.131 81.015-2.657-55 110.13-4.094 115.13-81.015z" fill-opacity=".1" fill-rule="evenodd"/></svg>