<svg width="106.667" height="160" xmlns="http://www.w3.org/2000/svg" xmlns:xlink="http://www.w3.org/1999/xlink"><defs><linearGradient id="a"><stop offset="0" stop-color="#fff" stop-opacity=".5"/><stop offset="1" stop-color="#fff" stop-opacity="0"/></linearGradient><linearGradient xlink:href="#a" id="b" x1=".365" y1=".089" x2=".473" y2=".657"/><linearGradient xlink:href="#a" id="c" x1=".243" y1=".077" x2=".338" y2=".592"/><linearGradient xlink:href="#a" id="d" x1=".228" y1=".059" x2=".651" y2=".438"/><linearGradient xlink:href="#a" id="e" x1=".029" y1="-.096" x2=".464" y2=".176"/></defs><metadata/><path d="M71.743 95.878c-1.186.256-2.75 4.048-4.389-.958-1.015-4.04 3.528-3.078 4.625-7.375.757-3.533-.234-11.793-1.115-16.05-.77-2.349-4.485-9.194-6.252-13.71-2.047-7.27.224-7.813 3.696-6.663 6.514 2.485 8.276 14.397 8.965 19.663.991 4.23 2.205 12.457 4.65 16.576 2.261 3.16 6.044 10.122.858 11.113-2.222.184-2.885-.066-3.58-2.161.193 2.765-.021 6.97-4.873 6.345-3.404-.501-3.502-4.794-2.585-6.78z" fill="#cb844b" fill-rule="evenodd" stroke="#000" stroke-width="1.25" stroke-linejoin="round"/><path d="M21.47 94.561c-3.918-4.04.384-7.848 1.625-11.208 1.827-4.46 3.913-8.553 4.117-13.267-1.372-4.558.289-9.805 3.28-13.338 4.251-4.752 7.364-2.193 6.776 3.07 1.537 5.018.23 10.228-.637 15.238-1.333 5.818-5.511 10.36-7.658 15.888-1.558 3.063 1.83 8.407-3.095 9.659-3.394.487-4.088-3.967-4.408-6.042z" fill="#cb844b" fill-rule="evenodd" stroke="#000" stroke-width="1.25"/><path d="M31.185 92.584c3.042.21 11.387 6.864 13.84 9.83 1.844 2.365.608 3.645-.308 6.51-1.728 4.333-.815 8.798-.8 13-.272 3.06 3.193 8.13-.544 10.105-4.285 2.224-9.34 4.21-15.53 3.416-3.493-.364-7.262-1.03-9.208-4.31-1.592-4.386 2.904-6.307 5.753-9.724 2.262-2.87 2.117-13.039 2.121-21.812-.177-2.372 1.54-7.133 4.676-7.015z" fill="#cb844b" fill-rule="evenodd" stroke="#000" stroke-width="1.25"/><path d="M63.565 46.637c-4.368-.58-22.462 2.8-26.484 4.827-3.41 1.844-2.797 6.195-1.397 9.138 1.335 3.564 1.758 9.18-.067 13.126-2.121 4.078-5.987 15.984-4.46 18.425 2.114 3.257 3.938 5.735 7.528 7.65 4.349 2.246 9.372 4.17 14.302 3.99 6.396.207 11.927-2.182 16.682-5.74 3.401-2.56 6.42-6.018 6.076-10.196.227-3.938-.942-7.077-2.549-10.74-2.047-4.251-3.88-8.002-4.593-13.56-.893-5.93.352-14.422-5.038-16.92z" fill="#cb844b" fill-rule="evenodd" stroke="#000" stroke-width="1.25"/><path d="M67.212 94.64c-3.783 2.091-6.914 5.549-4.763 9.71 1.393 4.216 3.91 7.374 4.43 11.522.689 3.358 1.886 8.407 1.903 11.69-.206 4.915-3.807 7.672-1.319 12.105 1.578 3.846 6.242 5.065 10.437 5.302 5.63.227 8.56-.097 11.99-3.659 2.825-3.932.666-7.498-1.544-11.007-1.602-2.624-3.73-6.373-3.402-10.327-.298-5.023-1.221-10.37-3.017-15.44-1.455-5.29-4.158-9.905-6.537-13.752-1.829.053-4.88 2.11-8.178 3.857zM18.242 21.386c-2.154 2.883 1.86 9.347 4.635 9.02 2.878.568 6.75-9.903 5.772-12.076-2.077-.45-6.45-2.266-10.407 3.056zM56.592 11.704c.558-1.855 6.685-4.585 10.756-2.196 2.19 1.468 2.31 6.621.756 7.891-2.522 1.753-10.178-4.14-11.512-5.695h0z" fill="#cb844b" fill-rule="evenodd" stroke="#000" stroke-width="1.25"/><path d="M66.86 17.44c5.707 7.863 5.987 18.407-.121 25.347-5.541 5.68-11.485 8.627-18.96 9.157-8.244.371-14.688-1.056-19.687-5.54-6.304-6.14-6.732-15.544-3.039-23.21 2.852-4.978 10.291-8.959 16.174-10.438 2.928-.687 18.506-3.222 25.632 4.685z" fill="#cb844b" fill-rule="evenodd" stroke="#000" stroke-width="1.25"/><path d="M34.814 50.235c24.799-3.868 16.736-36.342 24.64-36.342 17.951 1.717 18.045 45.905-24.64 36.342z" fill-rule="evenodd" fill-opacity=".1"/><path d="M43.84 13.382c-16.36.3-24.881 17.734-19.94 24.797 14.145 9.018 11.248-19.838 19.94-24.797z" fill="#fff" fill-rule="evenodd" fill-opacity=".1"/><path d="M44.872 32.376c-4.96 1.775-9.796 4.869-10.682 9.986-.853 5.731 7.861 9.49 15.107 7.918 5.53-1.417 12.016-4.24 13.08-9.785.599-5.675-7.713-11.59-17.505-8.12z" fill="#fff" fill-rule="evenodd" stroke="#000" stroke-width="1.25"/><path d="M49.62 32.637c-2.417-.475-6.194.924-7.302 2.987-1.042 1.726.953 3.3 3.252 3.2 2.016-.215 5.51-1.05 6.068-2.428.445-1.68-.342-3.09-2.019-3.759zM49.1 24.002c.715 0 1.706.041 1.929 1.112.222.743.519 2.497.519 3.402 0 .797.204 1.832-.89 1.832-.746-.069-1.84-1.413-2.077-2.879 0-1.24-.473-3.371.519-3.467zM39.16 26.03c.934-.027 2.077 1.584 2.077 2.879.149.985 1.07 3.728-.297 3.728-1.552 0-2.225-3.333-2.225-3.728 0-.806-.85-2.847.445-2.879z" fill-rule="evenodd" stroke="#000" stroke-width=".297"/><path d="M46.207 20.404c.074-.924 4.096-1.543 6.231-.98-1.62.457-4.575 2.158-5.49 1.83-.52 0-.715-.269-.74-.85zM33.82 23.806c0-.796 4.158-2.39 5.86-.916-1.941.196-4.482 1.897-5.267 1.897-.52.086-.71-.322-.594-.98z" fill-rule="evenodd" fill-opacity=".75"/><path d="M41.386 44.15c1.041-.784 5.166-2.354 7.343-.653-1.631.13-5.646.916-5.637 2.158-.774 0-1.865-.807-1.706-1.504z" fill-rule="evenodd" stroke="#000" stroke-width=".297"/><path d="M59.262 11.18c1.678.197 7.26 3.022 8.693 4.788.377-6.138-6.634-6.262-8.693-4.787zM21.943 28.3c-4.12-5.334.264-8.484 3.198-8.223-1.425 1.897-3.328 5.5-3.198 8.223z" fill="#260000" fill-rule="evenodd" fill-opacity=".5"/><path d="M40.195 49.635c15.507-1.653 11.461-15.659 16.403-15.659 11.83 1.774 4.033 21.161-16.403 15.659z" fill-rule="evenodd" fill-opacity=".1"/><path d="M30.661 92.971c1.484 1.178 3.204 3.215 4.756 4.96 5.112 1.352-5.57 10.55-9.064 15.451 1.846-4.911-2.594-19.067 4.308-20.41zM63.437 106.11s-.511-6.312 2.556-7.214c3.068-.902 7.328 3.156 6.476 8.416-.852 5.26-2.556 19.838-.511 22.544 2.342 2.574 9.202 5.861 4.26 7.514-4.942 1.653-9.373-2.254-8.35-4.659 1.764-2.666 1.704-13.832-4.43-26.601z" fill="#fff" fill-rule="evenodd" fill-opacity=".1"/><g fill-rule="evenodd"><path d="M171.563 54.237c-3.438-2.101-7.5-8.11-7.5-13.75 0-4.252 7.308-6.658 10.625-5 3.536 1.662 7.812 7.219 7.812 12.5 0 4.43-6.764 8.353-10.938 6.25z" fill="#cb844b" stroke="#000" stroke-width="5.608" transform="matrix(.23737 0 0 .20934 4.334 1.064)"/><path d="M44.39 8.82c-.543.265 1.524 3.286 2.15 3.27.278-.077-.995-3.552-2.15-3.27z" fill-opacity=".1"/></g><path d="M39.15 26.129c.934-.028 2.078 1.583 2.078 2.878.148.985 1.07 3.729-.297 3.729-1.553 0-2.225-3.334-2.225-3.73 0-.805-.85-2.846.445-2.877z" fill="url(#b)" fill-rule="evenodd"/><path d="M49.075 23.97c.714 0 1.706.04 1.928 1.112.223.742.52 2.496.52 3.401 0 .797.203 1.832-.89 1.832-.746-.069-1.84-1.412-2.078-2.878 0-1.241-.472-3.372.52-3.467z" fill="url(#c)" fill-rule="evenodd"/><path d="M49.745 32.663c-2.416-.475-6.194.923-7.301 2.987-1.042 1.725.953 3.299 3.252 3.2 2.016-.215 5.51-1.051 6.068-2.429.444-1.68-.342-3.09-2.019-3.758z" fill="url(#d)" fill-rule="evenodd"/><path d="M41.505 44.172c1.041-.785 5.166-2.355 7.343-.655-1.631.131-5.646.916-5.637 2.16-.774 0-1.865-.808-1.706-1.505z" fill="url(#e)" fill-rule="evenodd"/><g fill-rule="evenodd"><path d="M171.563 54.237c-3.438-2.101-7.5-8.11-7.5-13.75 0-4.252 7.308-6.658 10.625-5 3.536 1.662 7.812 7.219 7.812 12.5 0 4.43-6.764 8.353-10.938 6.25z" fill="#cb844b" stroke="#000" stroke-width="5.608" transform="matrix(.23737 0 0 .20934 -.519 1.758)"/><path d="M39.537 9.514c-.542.266 1.525 3.287 2.151 3.271.277-.077-.995-3.552-2.15-3.27z" fill-opacity=".1"/></g><g fill-rule="evenodd"><path d="M171.563 54.237c-3.438-2.101-7.5-8.11-7.5-13.75 0-4.252 7.308-6.658 10.625-5 3.536 1.662 7.812 7.219 7.812 12.5 0 4.43-6.764 8.353-10.938 6.25z" fill="#cb844b" stroke="#000" stroke-width="5.608" transform="matrix(.23737 0 0 .20934 -4.326 4.297)"/><path d="M35.73 12.053c-.543.265 1.524 3.286 2.15 3.27.278-.077-.995-3.552-2.15-3.27z" fill-opacity=".1"/></g><path d="M47.72 96.188c6.835.008 18.404-2.975 16.822-12.986-1.902-11.188-2.584-27.696-14.674-26.315-11.357 1.882-7.602 9.61-7.819 14.255-.093 6.603-2.234 9.15-2.841 15.698-.764 3.259 3.909 8.884 8.512 9.348z" fill="#fff" fill-opacity=".376" fill-rule="evenodd" stroke="#000" stroke-width="1pt"/><path d="M50.766 86.543c-4.315-.254.761-4.57 1.015-1.27" fill="none" stroke="#000" stroke-width="1pt"/><path d="M69.192 60.746s-4.36-6.77-.883-9.782c4.125-.125 3.935 3.583 4.385 6.316.037 5.208-1.66 6.888-.548 16.065-.717-3.447-2.925-7.237-2.954-12.6z" fill="#fff" fill-opacity=".1" fill-rule="evenodd"/></svg>