<?xml version="1.0" encoding="UTF-8"?>
<svg width="128" height="128" xmlns="http://www.w3.org/2000/svg" xmlns:xlink="http://www.w3.org/1999/xlink">
 <defs>
  <linearGradient id="m" x1="177" x2="487.86" y1="507.36" y2="502.36" gradientTransform="matrix(.18583 .19626 -.19626 .18583 109.56 815.45)" gradientUnits="userSpaceOnUse" xlink:href="#d"/>
  <linearGradient id="r" x1="300" x2="372" y1="306.36" y2="452.36" gradientTransform="scale(.27028) rotate(-7.35 24732 1995)" gradientUnits="userSpaceOnUse">
   <stop stop-color="#fff" offset="0"/>
   <stop stop-color="#fff" stop-opacity="0" offset="1"/>
  </linearGradient>
  <linearGradient id="q" x1="340.5" x2="340.5" y1="756.37" y2="617.31" gradientTransform="matrix(.27028 0 0 .27028 667.45 481.12)" gradientUnits="userSpaceOnUse" xlink:href="#b"/>
  <linearGradient id="b">
   <stop stop-color="#b3b3b3" offset="0"/>
   <stop stop-color="#959595" offset="1"/>
  </linearGradient>
  <linearGradient id="p" x1="384.95" x2="325.76" y1="443.68" y2="348.59" gradientUnits="userSpaceOnUse">
   <stop stop-color="#adc5d5" offset="0"/>
   <stop stop-color="#dce6ed" offset="1"/>
  </linearGradient>
  <linearGradient id="o" x1="290.08" x2="417.25" y1="392.52" y2="393.57" gradientUnits="userSpaceOnUse" xlink:href="#d"/>
  <linearGradient id="d">
   <stop stop-color="#bfbfbf" offset="0"/>
   <stop stop-color="#eee" offset=".5"/>
   <stop stop-color="#979797" offset="1"/>
  </linearGradient>
  <linearGradient id="n" x1="342" x2="342" y1="601.4" y2="546.36" gradientTransform="matrix(.27028 0 0 .27028 667.45 481.12)" gradientUnits="userSpaceOnUse" xlink:href="#b"/>
  <linearGradient id="k" x1="366" x2="407" y1="639.36" y2="788.36" gradientUnits="userSpaceOnUse">
   <stop stop-color="#ff0" offset="0"/>
   <stop stop-color="#ff0" stop-opacity="0" offset="1"/>
  </linearGradient>
  <linearGradient id="j" x1="-731.23" x2="-634.35" y1="210.15" y2="201.14" gradientTransform="matrix(.27028 0 0 .27028 -865.02 -90.161)" gradientUnits="userSpaceOnUse" xlink:href="#b"/>
  <linearGradient id="i" x1="70.654" x2="119.07" y1="760.86" y2="714.97" gradientTransform="matrix(.27028 0 0 .27028 659.54 931.39)" gradientUnits="userSpaceOnUse" xlink:href="#b"/>
  <linearGradient id="g" x1="419" x2="406" y1="779.36" y2="507.36" gradientUnits="userSpaceOnUse">
   <stop stop-color="#ff4700" offset="0"/>
   <stop stop-color="#ffcf00" offset="1"/>
  </linearGradient>
  <filter id="l" x="-.108" y="-.177" width="1.215" height="1.354" color-interpolation-filters="sRGB">
   <feGaussianBlur stdDeviation="7.306"/>
  </filter>
  <filter id="h" color-interpolation-filters="sRGB">
   <feGaussianBlur stdDeviation="3.933"/>
  </filter>
 </defs>
 <path transform="scale(.27028) rotate(46.563 670.9 269.53)" d="m252 657.36-18 92 39-26-2 73 33-41 49 48 17-58 59 56 22-45 11 11-32-114-68-31-110 35z" fill="url(#g)" filter="url(#h)" overflow="visible"/>
 <path transform="matrix(.99562 .09352 -.5874 .8093 0 -924.36)" d="m675.97 1111.8h22.022v29.225h-22.022z" fill="url(#i)"/>
 <path transform="matrix(-.03908 -.99924 -.84013 .54239 0 -924.36)" d="m-1058.5-50.407h22.022v29.225h-22.022z" fill="url(#j)"/>
 <path transform="scale(.27028) rotate(46.563 670.9 269.53)" d="m268 653.36-9 41 32-22-2 60 28-36 20 31 30-43 46 31 9-67-86-15-68 20z" fill="url(#k)" filter="url(#l)" overflow="visible"/>
 <path transform="translate(0 -924.36)" d="M74.972 931.202c18.72-8.46 46.173.018 46.173.018s6.968 27.875-2.501 46.105c-9.47 18.23-60.57 47.674-60.57 47.674s-7.55-15.443-13.276-21.489c-5.725-6.046-20.733-14.427-20.733-14.427s32.188-49.42 50.907-57.88z" fill="url(#m)"/>
 <path transform="rotate(46.563 1074.1 -462.18)" d="m757.73 633.38h3.514v43.245h-3.514z" fill="url(#n)"/>
 <path transform="scale(.2593) rotate(46.563 658.1 270.69)" d="M411 400.862a61.5 61.5 0 11-123 0 61.5 61.5 0 11123 0z" fill="url(#o)"/>
 <path transform="rotate(46.564 192.06 63.415) scale(.27856)" d="M416 421.362a49 49 0 11-98 0 49 49 0 1198 0z" fill="url(#p)"/>
 <path transform="rotate(46.563 1074.1 -462.18)" d="m757.73 647.44h3.514v29.191h-3.514z" fill="url(#q)"/>
 <path transform="translate(0 -924.36)" d="M89.873 946.96c-6.958.898-11.872 7.267-10.974 14.225.237 1.838.86 3.526 1.77 5.01 3.62-9.06 9.959-14.605 17.648-17.351a12.647 12.647 0 00-8.444-1.883z" fill="url(#r)"/>
</svg>
