<svg width="400pt" height="400pt" xmlns="http://www.w3.org/2000/svg" xmlns:xlink="http://www.w3.org/1999/xlink"><defs><radialGradient xlink:href="#a" id="c" cx=".281" cy=".203" fx=".281" fy=".203" r=".997" gradientUnits="objectBoundingBox" spreadMethod="pad"/><radialGradient xlink:href="#a" id="b" cx=".264" cy=".227" fx=".264" fy=".227" r="1.036" gradientUnits="objectBoundingBox" spreadMethod="pad"/><linearGradient id="a"><stop offset="0" stop-color="#ff8a00"/><stop offset="1" stop-color="#ff0"/></linearGradient></defs><g fill-rule="evenodd"><path d="M249.006 11.985c-103.601.909-99.966 123.594 1.818 124.503 89.968-.908 96.33-126.32-1.818-124.503z" transform="matrix(1.39668 0 0 1.52098 -80.238 -8.768)" fill="url(#b)" stroke="#000" stroke-width="6.861" stroke-linejoin="round"/><path d="M259.701 18.976c-6.362-10.905-116.194 20.87-83.04 100.746 18.176 8.179 93.037-72.573 83.04-100.746z" fill="#fff" fill-opacity=".5"/><path d="M88.152 214.643c11.814-26.355 123.594-72.703 175.395-69.068 50.891-2.726 156.31 33.625 177.212 68.158-61.798-9.996-69.067 267.183-69.067 267.183-85.426-89.969-113.598-102.693-218.108 2.726-3.635-20.902-2.727-277.178-65.432-268.999z" transform="matrix(1 0 0 .8129 -1.119 93.847)" font-size="12" fill="url(#c)" stroke="#000" stroke-width="11.091" stroke-linejoin="round"/><path d="M216.08 228.438c-.909-12.56-89.06 13.297-113.598 34.721 25.446 12.559 49.983 70.181 52.71 183.948 26.354-96.038 68.158-147.01 60.888-218.669z" font-size="12" fill="#fff" fill-opacity=".498"/></g></svg>