<?xml version="1.0" encoding="UTF-8"?>
<svg width="400pt" height="400pt" xmlns="http://www.w3.org/2000/svg">
 <path transform="matrix(.74829 0 0 .69102 -12.506 -44.897)" d="m189.36 630.6c11.158-3.826 20.403-10.52 30.604-17.215 3.825-21.996 1.913-63.12 2.869-90.855-4.781-15.302-12.432-23.91-25.821-58.338-5.739-59.295-5.739-74.597-5.739-94.681 0-20.083 4.782-76.509 4.782-76.509s-68.858 251.52-53.556 292.65c15.301 41.124 40.167 47.819 46.861 44.95z" fill="#14030b" fill-rule="evenodd" stroke="#000" stroke-width="1.738"/>
 <path transform="matrix(.74829 0 0 .69102 -12.506 -44.897)" d="m221.05 520.41c0-8.047 3.212 87.165-2.509 92.677-8.142 14.737-100.2 41.202-128.4 49.88-17.44 5.657-33.51 11.072-48.661 25.734-22.651 29.571-15.663 68.143-15.663 68.143l648.42-6.695s29.648-30.603-42.08-88.942c-71.727-58.338-205.62-4.782-210.4-13.389-4.782-8.607-0.957-141.54-0.957-141.54-0.825 0-140.45 61.951-199.75 14.134z" fill="#ffddd0" fill-rule="evenodd" stroke="#000" stroke-width="1.738"/>
 <path transform="matrix(.74829 0 0 .69102 -12.506 -44.897)" d="m321.34 127.56c-25.822 3.825-42.08-0.957-88.942 37.298-49.731 55.469-53.626 160.48-36.342 296.54 13.091 41.706 34.429 92.705 82.247 111.83 22.226 6.382 74.597 8.606 100.42-14.346 87.986-59.295 59.295-294.56 64.076-337.6-9.563-32.516-56.425-88.942-121.46-93.723z" fill="#ffddd0" fill-rule="evenodd" stroke="#000" stroke-width="1.738"/>
 <path transform="matrix(.74829 0 0 .69102 -12.506 -44.897)" d="m318.47 161.98s-9.564-5.738-43.992 0c-39.212 12.433-49.732 23.909-55.47 43.993-18.171 56.425-19.127 99.462-31.56 162.58-0.957 63.12-4.782 77.466-4.782 153.98-1.912 60.251 1e-3 85.117 9.563 103.29 1e-3 8.607-71.253 28.249-87.985 32.961-10.52-6.695 3.825-353.34 31.56-403.07 49.731-115.72 100.42-153.98 128.15-165.45 20.084-4.782 42.08-3.825 53.557-0.956 7.651-0.956 8.607 65.989 0.956 72.684z" fill="#1a050f" fill-rule="evenodd" stroke="#000" stroke-width="1.738"/>
 <path transform="matrix(.74829 0 0 .69102 -12.506 -44.897)" d="m327.08 160.07c43.037 23.909 80.336 17.215 92.768 53.557 8.607 21.04 27.734 124.33 17.215 185.54-5.739 42.08-25.965 128.15-20.084 160.67-2.869 28.691 5.15 108.3-3.826 136.76-7.651 6.694-23.44 40.481 45.981 56.975 54.79-20.316 105.04-58.167 130.86-21.825 39.211 4.781 73.296-12.669 86.903-36.664 19.598-20.226-58.942-56.706-97.339-262.44-65.033-134.85-64.077-225.7-128.15-287.87-43.993-39.212-55.62-55.624-81.149-62.242-14.345 0.957-43.179-6.3-48.917 7.728-2.869 9.564 4.782 72.684 5.738 69.815z" fill="#1a050f" fill-rule="evenodd" stroke="#000" stroke-width="1.738"/>
 <path transform="matrix(.74829 0 0 .69102 -12.506 -44.897)" d="m226.66 337.96c0-0.956 19.127-18.171 26.778-18.171s21.996-4.782 35.386 4.782c11.476 13.389 5.738 7.651 7.651 16.258-8.607 0-14.345 2.869-23.909 3.826-10.521 0.957-27.735 6.695-45.906-6.695zm130.7 1.235c1.893-2.736 10.845-20.362 24.234-20.362 8.608-1.912 21.996-2.869 31.56 3.825 9.564 6.695 9.564 12.433 10.52 14.346 0.957 1.913-4.781 10.52-19.127 9.563-12.433-1.912-32.231-0.132-47.187-7.372z" fill="#fff" fill-rule="evenodd" stroke="#000" stroke-width="1.738"/>
 <path transform="matrix(.74829 0 0 .69102 -12.506 -44.897)" d="m213.27 307.35c0.956-4.782 11.476-16.258 21.039-19.127 11.477-1.914 22.954-1.914 34.43-0.957 9.564 3.825 24.866 15.302 26.778 18.171 1.913 2.869 1.913 3.825-17.214-3.826-12.433-7.651-21.996-9.563-31.561-8.607-11.476 1.913-21.996 7.651-33.472 14.346zm142.5-5.739s30.604-17.214 47.819-15.301c17.214 1.913 22.952 4.782 28.691 10.52 4.782 7.651 5.738 11.476 5.738 11.476s-8.608-7.651-20.084-13.389c-16.258-2.87-34.429-1.913-43.993 3.825-4.782 1.913-19.127 4.782-18.171 2.869z" fill="#1a050f" fill-rule="evenodd" stroke="#000" stroke-width="1.738"/>
 <path transform="matrix(.74829 0 0 .69102 -12.506 -44.897)" d="m302.21 423.07s-6.695 1.913-9.563-10.52c-0.957-13.389 6.694-24.866 10.519-24.866m-3.825-81.291s8.607 2.869 11.476 12.433-6.694 23.909-5.738 31.56l0.956 7.651m43.993-43.993s-7.651-0.956-8.607 10.52c-0.957 11.477 0 15.302 0.956 28.691 0.957 13.389 4.782 20.084 4.782 20.084m-29.199 40.574c-3.317 3.274-8.431-0.551-7.415-4.088 2.633-3.275 8.254-0.144 7.415 4.088z" fill="none" stroke="#000" stroke-width="1.738"/>
 <path transform="matrix(.74829 0 0 .74917 -12.506 -44.897)" d="m339.07 380.44c1.646-2.677 3.969-3.831 9.2 1e-3 -0.646 3.83-9.2 2.676-9.2-1e-3zm11.615 10.708c11.988-8.202 5.463-26.139 3.57-26.77" fill="none" stroke="#000" stroke-width="1.669"/>
 <path transform="matrix(.74829 0 0 .74917 -12.506 -44.897)" d="m270.05 298.99c-17.667-13.881-28.394 6.94-20.191 17.036 11.357 9.464 32.81 0.631 20.191-17.036zm104.74 11.988c-6.941-22.715 26.501-19.56 26.501-5.678-1.262 17.667-25.239 15.143-26.501 5.678z" fill="#36160f" fill-rule="evenodd" stroke="#000" stroke-width="1.669"/>
 <path transform="matrix(.74829 0 0 .74917 -12.506 -44.897)" d="M292.818 441.973c6.31.631 46.205.875 51.884-.387 14.174-13.2-46.835-25.482-51.884.387z" fill="#fff" fill-rule="evenodd" stroke="#000" stroke-width="1.669"/>
 <path transform="matrix(.74829 0 0 .69102 -12.506 -44.897)" d="m279.26 479.5c2.87-11.477 10.52-21.997 21.04-25.822s16.258-1.913 18.171-0.957c1.913 0.957 1.913 3.826 5.739 2.87 3.825-0.957 4.781-1.913 10.52-1.913 5.738 0 14.345 0 21.996 9.563 7.651 11.477 3.825 6.695 4.782 16.259-5.739 2.869-7.818 4.781-13.39-0.957-4.781-6.695-4.781-13.389-17.214-13.389s-13.389-5.738-25.822 2.869c-12.433 8.608-19.127 16.258-25.822 11.477z" fill="#ac6262" fill-rule="evenodd" stroke="#000" stroke-width="1.738"/>
 <path transform="matrix(.74829 0 0 .74917 -12.506 -44.897)" d="M288.402 442.848c16.405-.631 55.181-.825 60.86-.194 18.392 21.11-63.673 26.695-60.86.194z" fill="#fff" fill-rule="evenodd" stroke="#000" stroke-width="1.669"/>
 <path transform="matrix(.74829 0 0 .69102 -12.506 -44.897)" d="M279.259 482.367c12.468-.956 7.02 6.05 32.516 14.284 11.477.956 28.652 1.437 38.886-11.009 5.738-1.912 10.846-5.187 9.889 1.508-.956 6.694-4.782 22.952-30.604 30.603-38.254 5.738-56.426-27.735-50.687-35.386z" fill="#ac6262" fill-rule="evenodd" stroke="#000" stroke-width="1.738"/>
 <path transform="matrix(.74829 0 0 .74917 -12.506 -44.897)" d="m253.83 303.57c5.076-7.107 15.737-1.016 10.661 7.615-4.57 5.076-13.707 2.031-10.661-7.615z" fill-rule="evenodd" stroke="#000" stroke-width="1.669"/>
 <path transform="matrix(.74829 0 0 .74917 82.842 -45.657)" d="m253.83 303.57c5.076-7.107 15.737-1.016 10.661 7.615-4.57 5.076-13.707 2.031-10.661-7.615z" fill-rule="evenodd" stroke="#000" stroke-width="1.669"/>
 <path d="m180.85 177.2c-4.18 0-13.296 7.606 0 7.226 13.295-0.761 6.457-6.846 0-7.226zm95.347-0.761c-4.178 0-13.295 7.606 0 7.226 13.296-0.76 6.458-6.845 0-7.226z" fill="#fff" fill-opacity=".489" fill-rule="evenodd"/>
 <path transform="matrix(.74829 0 0 .74917 -12.506 -44.897)" d="m294.62 443.71v6.631m52.103-7.579 0.946 7.579m-27.472-7.105v14.684m8.526-15.158v14.211m10.421-15.157-1e-3 13.262m-29.366-11.368v13.736m-9.474-14.683v9.947m19.894-24.157v13.736m9.947-12.789-0.474 11.368m-22.262-10.42 0.474 10.42m-7.579-6.631v7.578m40.735-9.946-0.473 8.525" fill="none" stroke="#999" stroke-width="1.669"/>
 <path d="M213.268 307.387c4.962 4.258 22.33 4.968 29.063.355-3.189-7.807-30.126-5.678-29.063-.355zM206.18 276.515c3.544-5.322 10.987-11 23.038-5.322 10.278-2.485 18.785 5.677 18.785 5.677-17.722-6.033-32.608-8.162-41.824-.355z" fill="#fff" fill-opacity=".15" fill-rule="evenodd"/>
</svg>
