<svg xmlns="http://www.w3.org/2000/svg" width="128" height="128"><g fill-rule="evenodd"><path d="M58.971 9.29c14.596 2.105 21.833 11.884 25.192 25.663 5.321 18.144.936 39.367-12.898 52.653-6.994 7.851-9.041 19.052-11.974 29.117-2.76 6.41-10.345 3.811-16.582 1.972-8.454-2.114-12.595-5.327-18.266-11.916-4.177-5.053-5.229-9.43-4.609-15.887-.59.33 3.935-60.628 3.86-61.036C29.533 17.965 45.242 7.381 58.97 9.29z" fill="#e3b387"/><path d="M58.622 4.958C73.217 7.063 84.06 20.132 87.42 33.911c5.321 18.144.86 39.295-12.974 52.581-6.995 7.852-9.05 19.111-11.983 29.176-2.76 6.41-12.071 8.153-18.309 6.314-8.453-2.114-17.731-8.665-23.403-15.255-3.754-4.542-1.246-8.472-.514-13.891l.085-.093c-.264 4.449.844 9.441 3.561 12.465 6.516 7.739 16.484 12.813 26.72 12.432 6.257-1.977 7.436-9.128 9.523-14.463 4.496-11.506 11.592-20.938 18.37-30.992 8.691-17.276 7.862-36.068-4.615-51.178-4.45-5.114-9.069-8.304-15.906-9.11-14.389-1.725-28.758 4.509-32.428 17.948-.092.709-.24 1.395-.337 2.103l-1.687-1.126c.26-1.522 1.417-3.034 1.69-4.531 2.59-15.587 19.68-23.242 33.409-21.333z"/><path d="M57.758 18.458c5.485.03 8.972 5.077 11.327 9.41 2.712 4.815 4.789 9.961 6.52 15.2-4.768-5.068-4.794-4.605-6.175-7.303-2.154-5.015-4.938-7.103-9.3-10.563-3.45-1.39-10.936 3.728-8.182 1.04-6.055 5.953-8.736 11.875-11.403 20.286-1.165 6.296-.982 11.108 1.697 16.315 2.535 4.482 5.399 9.908 3.385 15.115-1.918 3.409-6.34 5.244-6.838 9.449-1.924 4.023 4.375 7.927 7.259 4.664 12.64-8.523 19.723-22.134 12.495-35.947-.69-3.169-3.539-9.479-5.699-12.89 1.983 1.797 8.507 9.698 10.174 12.059C68.56 65 66.065 74.93 61.073 84.777c-3.361 6.956-8.966 12.697-16.602 14.883-4.533.685-9.842-7.105-9.032-11.49.352-4.38 3.225-8.14 6.643-10.702 2.332-3.595-.016-7.792-1.668-11.135-3.01-6.17-8.394-11.952-7.612-19.297 1.122-8.095 7.174-11.004 12.778-16.382 3.513-3.105 6.751-9.98 11.065-12.005a6.003 6.003 0 011.113-.19z"/><path d="M59.531 54.15s5.517 19.985-.324 28.672c-5.841 8.687-15.731 21.645-17.602 15.485-6.431-5.697-3.55-15.328 4.5-23.119-1.535-11.424-2.27-23.552 13.426-21.038z" fill-opacity=".188"/></g><metadata/></svg>