<svg xmlns="http://www.w3.org/2000/svg" xmlns:xlink="http://www.w3.org/1999/xlink" width="280" height="280" version="1.0"><defs><linearGradient gradientUnits="userSpaceOnUse" y2="216.252" x2="122.592" y1="198.354" x1="93.17" id="G" xlink:href="#a"/><linearGradient id="d"><stop offset="0"/><stop offset="1" stop-color="#2f2f2f"/></linearGradient><linearGradient id="f"><stop offset="0" stop-color="#fff" stop-opacity="0"/><stop offset="1" stop-opacity=".28"/></linearGradient><linearGradient id="e"><stop offset="0" stop-color="#fff"/><stop offset="1" stop-color="#d9d9d9"/></linearGradient><linearGradient id="b"><stop offset="0" stop-color="#eebd9f"/><stop offset="1" stop-color="#f2cbb4"/></linearGradient><linearGradient id="c"><stop offset="0" stop-color="#9a0000"/><stop offset="1" stop-color="#e00000"/></linearGradient><linearGradient id="a"><stop offset="0" stop-color="#ff0"/><stop offset=".5" stop-color="gold"/><stop offset="1" stop-color="#ff0"/></linearGradient><linearGradient id="h"><stop offset="0" stop-color="#ff4343"/><stop offset="1" stop-color="#ffa5a5"/></linearGradient><linearGradient gradientUnits="userSpaceOnUse" y2="233.999" x2="139.673" y1="250.687" x1="116.581" id="J" xlink:href="#a"/><linearGradient gradientUnits="userSpaceOnUse" y2="252.522" x2="139.587" y1="233.772" x1="117.712" id="I" xlink:href="#a"/><linearGradient gradientTransform="translate(-243.413 -396.416)" gradientUnits="userSpaceOnUse" y2="488.612" x2="415.25" y1="443.112" x1="355" id="B" xlink:href="#d"/><linearGradient gradientTransform="translate(-243.413 -396.416)" gradientUnits="userSpaceOnUse" y2="451.612" x2="337.75" y1="457.862" x1="328.5" id="C" xlink:href="#h"/><linearGradient gradientTransform="translate(-243.413 -396.416)" gradientUnits="userSpaceOnUse" y2="449.094" x2="391.826" y1="458.844" x1="399.125" id="D" xlink:href="#h"/><linearGradient gradientUnits="userSpaceOnUse" y2="209.173" x2="131.327" y1="191.923" x1="108.625" id="j" xlink:href="#b"/><linearGradient gradientUnits="userSpaceOnUse" y2="173.75" x2="154.25" y1="122.5" x1="103" id="k" xlink:href="#b"/><linearGradient gradientUnits="userSpaceOnUse" y2="177.882" x2="203.194" y1="157.531" x1="161.645" id="n" xlink:href="#c"/><linearGradient gradientUnits="userSpaceOnUse" y2="193.45" x2="93.66" y1="164.764" x1="52.715" id="K" xlink:href="#c"/><linearGradient gradientUnits="userSpaceOnUse" y2="166.01" x2="216.56" y1="153.996" x1="174.807" id="m" xlink:href="#a"/><linearGradient gradientUnits="userSpaceOnUse" y2="188.054" x2="87.147" y1="143.431" x1="33.305" id="l" xlink:href="#a"/><linearGradient gradientUnits="userSpaceOnUse" y2="216.908" x2="159.553" y1="208.571" x1="131.462" id="H" xlink:href="#a"/><linearGradient id="g"><stop offset="0" stop-color="#00d900"/><stop offset="1" stop-color="#0f0"/></linearGradient><linearGradient gradientTransform="translate(-243.413 -396.416)" gradientUnits="userSpaceOnUse" y2="592.095" x2="382.162" y1="577.97" x1="366.15" id="A" xlink:href="#d"/><linearGradient gradientTransform="translate(-243.413 -396.416)" gradientUnits="userSpaceOnUse" y2="556.592" x2="390.677" y1="554.967" x1="385.377" id="z" xlink:href="#e"/><linearGradient gradientTransform="translate(-243.413 -396.416)" gradientUnits="userSpaceOnUse" y2="557.564" x2="358.875" y1="555.612" x1="353.125" id="y" xlink:href="#e"/><linearGradient gradientTransform="translate(-243.413 -396.416)" gradientUnits="userSpaceOnUse" y2="507.183" x2="344.715" y1="493.612" x1="339.75" id="u" xlink:href="#g"/><linearGradient gradientTransform="translate(-243.413 -396.416)" gradientUnits="userSpaceOnUse" y2="502.454" x2="394.912" y1="493.329" x1="386.273" id="w" xlink:href="#g"/><linearGradient gradientTransform="translate(-243.413 -396.416)" gradientUnits="userSpaceOnUse" y2="539.75" x2="399.092" y1="535.375" x1="378.374" id="F" xlink:href="#d"/><linearGradient gradientTransform="translate(-243.413 -396.416)" gradientUnits="userSpaceOnUse" y2="542.783" x2="368.317" y1="536.033" x1="344.922" id="E" xlink:href="#d"/><linearGradient gradientTransform="translate(-243.413 -396.416)" gradientUnits="userSpaceOnUse" y2="487.555" x2="358.323" y1="480.305" x1="337.383" id="s" xlink:href="#d"/><linearGradient gradientTransform="translate(-243.413 -396.416)" gradientUnits="userSpaceOnUse" y2="486.737" x2="402.25" y1="480.136" x1="384.5" id="t" xlink:href="#d"/><filter id="p"><feGaussianBlur stdDeviation=".3"/></filter><filter id="q"><feGaussianBlur stdDeviation=".304"/></filter><filter id="o" height="1.134" y="-.067" width="1.3" x="-.15"><feGaussianBlur stdDeviation="3.55"/></filter><filter id="r"><feGaussianBlur stdDeviation="1.227"/></filter><filter id="L" height="1.248" y="-.124" width="1.201" x="-.101"><feGaussianBlur stdDeviation=".808"/></filter><filter id="M" height="1.265" y="-.133" width="1.154" x="-.077"><feGaussianBlur stdDeviation=".968"/></filter><filter id="N" height="1.471" y="-.236" width="1.48" x="-.24"><feGaussianBlur stdDeviation="2.049"/></filter><filter id="i"><feGaussianBlur stdDeviation="2.12"/></filter><radialGradient gradientUnits="userSpaceOnUse" gradientTransform="matrix(.02476 .8405 -1.26555 .03728 710.652 -205.456)" r="17.413" fy="492.059" fx="339.75" cy="492.059" cx="339.75" id="v" xlink:href="#f"/><radialGradient gradientUnits="userSpaceOnUse" gradientTransform="matrix(1.1378 .53828 -.25514 .5393 -170.734 -373.004)" r="16.882" fy="491.833" fx="383.183" cy="491.833" cx="383.183" id="x" xlink:href="#f"/></defs><metadata/><path d="M803.031 17l-.969.156c.028 11.288-1.764 23.17 1.563 34.157-3.605 8.753-5.26 19.91-5.813 33.75l.031.218c.359.26.704.536 1.032.813-.005.543-.032 1.082-.032 1.625-3.918-3.127-8.77-4.987-13.28-4.531-.757.076-3.301-3.619-4.032-3.407-.82.238.178 4.391-.594 4.813.078.868-3.073 1.651-2.937 2.469.109.658 3.48 1.374 3.625 2 2.406 10.377 9.674 16.253 18.468 18.687.267 1.975.532 3.874.875 5.563-7.049 7.408-5.22 16.915-4.937 26.406v.093c.012.042.02.084.031.125-6.874.344-14.519-.808-22-4.437l-23.031-12.938c1.83 30.495 17.39 54.866 35.375 78.376a21.527 21.527 0 00-1.75 1.937c-5.625 7.103-6.757 17.52-11.094 36.438 13.53 4.34 27.762 3.419 41.75 3.125 7.865-.155 15.558.217 23.219.687 2.878 4.717 8.053 7.875 13.969 7.875 5.271 0 9.94-2.523 12.937-6.406 2.112.056 4.241.096 6.375.094 7.708 1.293 16.628-.553 24.406-1.438 12.72-2.088 24.216-4.788 38.188-6.25-4.202-18.45-7.717-31.06-13.438-38.281-1.708-2.158-3.8-4.016-6.468-5.688 5.581-6.227 12.103-19.817 16.812-34.094 3.219-12.78 8.963-24.72 9.656-38.343-10.153 8.626-22.91 12.742-35.937 14.312.21-5.661-1.491-11.51-5.688-17.531.235-3.81.35-7.545.344-11.188l.813-.562c5.19-2.011 9.683-4.875 12.875-8.875l.437-.313.125-.437c2.086-2.85 3.553-6.248 4.156-10.281.057-.38 3.553-.828 3.594-1.219.042-.395-3.37-.718-3.344-1.125-.418-.228.434-3.826 0-4-.443-.178-2.168 3.06-2.625 2.938-5.727-1.538-12.366 1.178-17.062 5.75-.058-.522-.126-1.019-.188-1.532.341-.397.687-.816 1.063-1.219.285-3.165.345-6.256.219-9.28l.062-1.094-.156-.594c-.885-13.14-5.614-24.712-13.563-33.219l-.28-.438c.75-8.738.094-17.539-.032-23.53l-.969-.157c-1.566 4.634-3.72 9.977-7.25 15.938-7.591-4.747-17.412-6.77-28.187-6.782-16.846.72-29.107 3.29-36.938 10.219-4.714-7.089-7.506-13.756-9.406-19.375zm20.531 165.844c.046.083.232.341.313.469l-.344-.438.031-.031zm30.719 26.219l.031.03-.219.157c.061-.064.127-.124.188-.188zm-12.906 34.25c3.03.195 6.058.37 9.093.562l1.907 4.875a14.577 14.577 0 01-10.032-4.344c-.073-.081-.145-.167-.218-.25-.076-.08-.146-.168-.219-.25-.115-.135-.231-.267-.344-.406-.056-.068-.133-.119-.187-.188zm11.25.687l1.031.063-.063.218-.343 1.281-.625-1.562zm3.25.188c2.233.122 4.469.23 6.718.312a13.99 13.99 0 01-4.968 3.313c-.093.034-.189.06-.282.093-.807.293-1.659.514-2.53.656l1.062-4.375z" fill-rule="evenodd" filter="url(#i)" transform="translate(-705.5 6.5)"/><path d="M113.297 193.762l-18.708 5.554c-6.509 1.939-11.05 5.354-15.733 8.662-5.937 9.15-7.546 23.246-10.43 35.885 0 0 12.551 3.36 14.496 3.36 1.944 0 42.073.176 42.073.176l32.173 1.414 24.042.53 44.37-7.6-3.712-18.209-9.192-21.213-12.728-7.248-18.738-5.657-11.49 21.567-10.254 15.203-11.314-11.844-2.837 2.089-3.794-1.055-8.925 10.103-12.551-16.97-5.48-12.199-1.268-2.548z" fill="#1a1a1a" fill-rule="evenodd"/><path d="M101.301 180.947l-.176 10.784 4.065 6.01 18.032 19.446 3.91 2.807 3.514-2.454 9.016-8.308 15.203-16.087 3.712-3.535s-.707-1.591-1.237-3.36c-.53-1.767-.53-9.899-.53-9.899l-10.43 5.834-2.299 4.066-7.424 4.596-17.148 1.945-11.137-2.829-4.419-5.126-.177-1.591-2.475-2.299z" fill="url(#j)" fill-rule="evenodd" transform="translate(16.976 -3.022)"/><path d="M116.087 47.196l-23.75 6.5-12 13.25c-3.776 8.988-3.536 19.983-4.75 30.25l-9.25-4.25-7.25 1 1.75 8.5 6 8.25 10.5 5.75 1.25 5.25-4.75 7.25-.25 15.75 4.75 14 9 10.5 14 12 2.371 2.515c5.49 7.718 8.065 5.964 11.879 8.235l19.75-.25 7.75-3.75 3.75-5.75 11.75-6.5 14.5-13.25 7-18.5-1.25-10.5-4-9.75 1-8.75 14.5-10 3.5-12.25-8-1c-3.842 1.474-7.814 2.56-10.75 6.75l-1.75-10.5-5.25-18-6-10-11-7.75-16.5-6-18.5 1z" fill="url(#k)" fill-rule="evenodd" transform="translate(16.976 -3.022)"/><path d="M73.901 148.95H62.234l-12.198-4.772-21.39-11.49 1.238 10.606 6.01 21.92L45.44 183.6l18.031 25.986 7.071-4.596-17.324-22.804-12.905-25.28-4.95-12.374 8.31 6.188 13.257 5.833 15.557 1.768 5.833-.353-4.419-9.016z" fill="url(#l)" fill-rule="evenodd" transform="translate(16.976 -3.022)"/><path d="M180.674 144.885l14.85-3.359 9.369-3.535 11.667-7.778-3.89 20.506-6.54 19.622-15.733 31.466-8.309-3.535 7.955-9.37 9.9-17.147 10.606-30.405-7.247 4.065-11.49 3.89-13.082 1.06 1.944-5.48z" fill="url(#m)" fill-rule="evenodd" transform="translate(16.976 -3.022)"/><path d="M178.376 150.188l10.96-.353 13.966-4.773 7.247-4.066-3.712 9.546-4.95 15.026-4.95 12.02-14.142 20.507-18.384-5.127.176-1.767-5.126-3.265-.707 1.32-1.414-3.005-.354-9.9 9.192-6.54 12.021-15.734.177-3.889z" fill="url(#n)" fill-rule="evenodd" transform="translate(16.976 -3.022)"/><path d="M123.625 68c21.38 46.496 66.214 61.207 23.625 114.25l14.25-8.75 15.25-17.25L180.5 138l-7.5-15.5 1.75-24.75-8.5-17c-5.949-23.11-22.294-24.709-33.5-25.5-6.779 3.43-7.493 8.033-9.125 12.75z" fill-opacity=".083" fill-rule="evenodd" filter="url(#o)" transform="translate(16.976 -3.022)"/><path d="M79.75 103.875c.258-.644-6.598-5.255-7.75-4.625-.736.403-7.5-.25-7.5-.25l2.625 7c4.5 3.906 9 6.065 13.5 8-3.315-4.239-2.12-7.189-.875-10.125z" fill-opacity=".223" fill-rule="evenodd" filter="url(#p)" transform="translate(16.976 -3.022)"/><path d="M172.125 102.625c.5-.875 6.75-4.25 6.75-4.25l9.375-.625-2.125 6.25-10.25 7.5-4.25 1.125c1.434-3.46 2.361-6.87.5-10z" fill-opacity=".186" fill-rule="evenodd" filter="url(#q)" transform="translate(16.976 -3.022)"/><path d="M156.875 176.625l-10.125 5-6.75 8.75-10.75 2.75c-.322 8.998 3.136 17.24-1.625 27.125l15.625-14.375 15.5-16.125c-3.144-4.095-1.392-8.734-1.875-13.125z" fill-opacity=".174" fill-rule="evenodd" filter="url(#r)" transform="translate(16.976 -3.022)"/><path d="M143.25 42.031c-12.133.045-24.34 4.108-35.875 9.469-9.973 5.825-13.794 17.93-14.687 30.812-.248 3.577-.345 7.252-.344 10.907-3.919-3.127-8.77-4.997-13.281-4.54-.756.076-3.315-3.595-4.046-3.383-.82.237.193 4.376-.58 4.798.078.868-3.065 1.648-2.93 2.466.11.658 3.487 1.362 3.632 1.987 2.407 10.377 9.66 16.27 18.455 18.703.266 1.975.531 3.874.875 5.563-7.05 7.408-5.221 16.915-4.938 26.406v.094c4.521 15.68 19.648 24.853 30.97 35.5 0 .01-.003.02 0 .03.055.301.133.588.218.876 3.115 8.424 13.632 9.423 21.375 9.531 7.822-.486 18.1-2.335 21.062-10.719 13.744-7.007 24.956-15.618 32.75-29.468 4.041-8.855 3.827-18.304-3.062-28.188.24-3.895.354-7.717.344-11.437 9.476-3.464 16.826-9.652 18.405-20.204.057-.38 3.554-.854 3.595-1.245.042-.395-3.37-.707-3.344-1.114-.418-.228.437-3.832.004-4.005-.444-.178-2.176 3.076-2.633 2.953-5.727-1.537-12.363 1.168-17.059 5.74-.996-9.027-2.636-16.754-4.625-22.313-3.946-11.03-10.569-17.912-19.718-22.781-7.993-4.625-16.261-6.468-24.563-6.438zm-.031 1.75c8.03-.099 16.05 1.56 24.094 5.594 8.983 4.78 14.69 11.585 18.562 22.406 2.263 6.324 3.874 14.058 4.563 23.656-.396.479-.775.965-1.125 1.47l.812.593c4.7-5.402 12.289-9.815 19.531-7.125-1.984 10.23-10.241 19.64-21.218 21.563l-.063 1c.79-.205 1.575-.421 2.344-.657-.07 2.091-.174 4.238-.313 6.469a38.031 38.031 0 00-2.25-2.75l-.187.656c9.3 11.797 9.086 24.43 4.719 34-6.51 14.961-14.827 20.086-28.532 27.219.07-1.809-1.096-3.074-2.156-5.187l-.156-.063c4.641 12.768-10.115 15.099-19.781 15.844-10.014.504-24.485-1.985-19.875-14.063l-.563-.75c-.978 2.19-1.357 4.19-1.25 6l-.031-.093c-10.737-10.717-24.082-19.32-28.563-34.625-.252-12.009-1.115-19.454 6.22-29.188l-.063-.594c-.501.665-1.242.694-1.688 1.344-.176-.886-.336-1.816-.5-2.75.71.148 1.432.3 2.156.406l-.062-1c-10.977-.76-19.234-11.333-21.219-21.562 7.242-2.69 14.832 1.723 19.531 7.125l.813-.594c-.838-1.206-1.834-2.336-2.906-3.375-.071-3.932.03-7.97.312-12.031.883-12.73 3.765-23.549 13.313-29.125 12.025-5.764 23.795-9.668 35.53-9.813zm57.219 49.5c-5.284.335-9.374 4.599-11.47 6.438l.532.469c3.807-3.736 9.502-6.274 14.813-4.563-1.78 7.008-8.912 11.555-16.063 13.813l-.031.687c9.854-1.3 16.514-6.642 17.875-15.625-1.996-.993-3.895-1.33-5.656-1.219zM84.5 94.5c-1.369.09-2.816.474-4.312 1.219 1.361 8.983 8.02 14.325 17.875 15.625l-.032-.688c-7.15-2.258-14.282-6.805-16.062-13.812 5.31-1.711 11.005.826 14.812 4.562l.532-.468c-2.27-1.993-6.88-6.83-12.813-6.438z" fill-rule="evenodd"/><path d="M88.75 83.544l6.01-.53 12.729 1.944 9.015 4.42.53 3.888-7.424-3.712-10.253-1.591-9.016 4.42-2.121-2.652.53-6.187z" fill="url(#s)" fill-rule="evenodd" transform="translate(16.976 -3.022)"/><path d="M132.06 91.322l2.475-3.005 9.193-4.597 16.263.177 1.06 4.243-2.12 4.773-8.662-4.596-7.072.707-9.192 3.535-2.121 1.06.177-2.297z" fill="url(#t)" fill-rule="evenodd" transform="translate(16.976 -3.022)"/><path d="M102.367 98.023l9.016-6.01 6.01-2.476 10.96 3.36 8.84 4.772-6.718 5.127-9.193 4.065-7.955-.53-7.601-4.242-3.359-4.066zM180.503 98.553l-9.016-6.01-6.01-2.475-10.96 3.358-7.779 4.243 5.657 5.657 9.192 4.066 7.425-.884 8.132-3.89 3.359-4.065z" fill="#fff" fill-rule="evenodd"/><path d="M99.534 92.913l-4.773 1.59-1.591 4.243v5.304l2.121 4.42 7.425 2.297 5.48-1.944 1.237-7.425-2.121-6.54-7.778-1.945z" fill="url(#u)" fill-rule="evenodd" transform="translate(16.976 -3.022)"/><path d="M85.391 101.044l9.016-6.01 6.01-2.475 10.96 3.359 8.84 4.773-6.718 5.126-9.192 4.066-7.955-.53-7.602-4.243-3.359-4.066z" fill="url(#v)" fill-rule="evenodd" transform="translate(16.976 -3.022)"/><path d="M149.385 92.736l4.773 1.59 1.59 4.244v5.303l-2.12 4.42-7.425 2.297-5.48-1.944-1.238-7.425 2.121-6.54 7.779-1.945z" fill="url(#w)" fill-rule="evenodd" transform="translate(16.976 -3.022)"/><path d="M163.527 101.575l-9.266-7.136-5.76-1.35-10.96 3.36-7.779 4.242 5.657 5.657 9.193 4.066 7.424-.884 8.132-3.89 3.359-4.065z" fill="url(#x)" fill-rule="evenodd" transform="translate(16.976 -3.022)"/><path d="M111.313 79.656a60.126 60.126 0 00-5.5.406c-2.835 3.76-2.378 7.386 1.375 10.282h.125l.093-.094c7.69-6.042 17.446-4.627 26.032.594l.03.031c.26.13.568.184.845.094 1.43-1.546.627-3.412-.657-4.907l.032-.03c-.021-.015-.042-.018-.063-.032-6.705-4.94-14.397-6.536-22.312-6.344zm57.406 0c-6.867.245-13.508 2.022-19.375 6.344-.02.014-.042.017-.063.031l.032.031c-1.284 1.495-2.087 3.361-.657 4.907.277.09.585.035.844-.094l.031-.031c8.586-5.221 18.341-6.636 26.032-.594l.093.094h.125c3.753-2.896 4.21-6.523 1.375-10.282a60.125 60.125 0 00-5.5-.406 48.828 48.828 0 00-2.937 0zm-55.063 1.219c6.636-.045 12.503 1.753 18.72 5.594.38 1.483.962 2.219 1.624 3.5-.009.016.004.024 0 .031-9.2-6.126-18.022-7.522-26.812-1.625-2.126-2.169-1.337-4.689-.47-6.844 2.423-.415 4.726-.64 6.938-.656zm55.657 0c2.212.015 4.515.24 6.937.656.868 2.155 1.657 4.675-.469 6.844-8.79-5.897-17.611-4.501-26.812 1.625-.004-.007.009-.015 0-.031.662-1.281 1.244-2.017 1.625-3.5 6.216-3.84 12.083-5.64 18.719-5.594zm-52.438 8.75c-1.594.083-3.169.46-4.687 1.25-.021.014-.042.017-.063.031-.03.02-.063.044-.094.063l-.093.031c-.016.018-.016.045-.032.062-3.238 2.02-7.103 4.503-9.937 6.97 2.89 5.364 11.31 9.129 17.906 9.874 5.652-.43 12.408-4.65 17.5-10.687-6.178-2.636-13.59-7.952-20.5-7.594zm47.906 0c-6.53.299-13.395 5.122-19.187 7.594 5.092 6.038 11.848 10.258 17.5 10.687 6.595-.745 15.017-4.51 17.906-9.875-2.834-2.466-6.699-4.949-9.937-6.969-.016-.017-.016-.044-.032-.062l-.093-.031-.094-.063c-.02-.014-.042-.017-.063-.031-1.518-.79-3.093-1.167-4.687-1.25a13.59 13.59 0 00-1.313 0zm-47.812 1.156c2.174-.006 4.334.62 6.5 1.469 2.408 4.265 2.073 9.131.031 13.344l.125.062a15.57 15.57 0 01-3.437.657c-2.188.166-4.461-.126-6.75-.907-3.553-4.171-3.408-9.093-.907-13.625l.094-.062h.031l.032-.032a10.626 10.626 0 014.28-.906zm49.031 0c1.428.004 2.862.284 4.281.906l.032.032h.03l.095.062c2.501 4.532 2.646 9.454-.907 13.625-2.289.781-4.562 1.073-6.75.907a15.57 15.57 0 01-3.437-.657l.125-.062c-2.042-4.213-2.377-9.079.031-13.344 2.166-.849 4.326-1.475 6.5-1.469zm-40.906 2.156c3.446 1.521 6.856 3.437 10.156 4.376-3.234 3.698-6.598 6.283-10 7.718 4.063-4.78 3.145-7.528-.156-12.094zm32.781 0c-3.3 4.566-4.219 7.315-.156 12.094-3.402-1.435-6.766-4.02-10-7.718 3.3-.939 6.71-2.855 10.156-4.376zm-47.937.875c-2.018 3.688-1.526 7.253 1.406 10.75-2.459-1.174-4.92-2.952-7.281-5.406 1.897-1.689 3.85-3.622 5.875-5.344zm63.093 0c2.026 1.722 3.978 3.655 5.875 5.344-2.362 2.454-4.822 4.232-7.28 5.407 2.93-3.498 3.423-7.063 1.405-10.75zm-54.843 1.032c-2.098 0-3.813 1.728-3.813 3.875 0 2.147 1.715 3.906 3.813 3.906s3.812-1.76 3.812-3.906c0-2.147-1.714-3.875-3.812-3.875zm46.593 0c-2.098 0-3.812 1.728-3.812 3.875 0 2.147 1.714 3.906 3.812 3.906s3.813-1.76 3.813-3.906c0-2.147-1.715-3.875-3.813-3.875zM146.531 107.563l-.25-.125c.16 5.745.235 11.502.407 17.25.035.955.083 1.786.125 2.375.249 1.964 3.269 1.814 4.843 2.468 1.813 1.105.007 3.327-1 4.563-1.845-.294-3.57-1.656-5.406-2.094-2.375-.398-5.12 2.006-7.187 2.781-.973-.753-.813-3.22-.813-4.406 1.238-.709 3.1-.735 4.188-1.937.242-.746.456-2.11.656-3.875.493-5.388 1.036-10.803.937-16.22h-.25c-.717 5.345-1.114 10.73-1.687 16.095-.197 1.743-.42 3.153-.594 3.687-.99 1.185-3.646.914-4.687 2.188-.236 1.94.15 3.927 1.78 4.906 2.227-.494 5.104-2.066 7.47-2.25 1.977.433 3.672 1.582 5.687 1.75 2.634-1.22 3.934-4.715 1.875-6.281-1.567-.385-4.102-.426-4.812-1.47-.04-.566-.09-1.362-.125-2.312-.208-5.8-.996-11.293-1.157-17.093z" fill-rule="evenodd"/><path d="M106.251 152.84l.707 5.303 3.359 11.314 2.652-2.298 1.767-13.082-8.485-1.237z" fill="url(#y)" fill-rule="evenodd" transform="translate(16.976 -3.022)"/><path d="M140.546 153.37l-.707 7.071 3.182 7.779 1.944-3.536 2.298-12.551-6.717 1.237z" fill="url(#z)" fill-rule="evenodd" transform="translate(16.976 -3.022)"/><path d="M171.484 142.554c-.095.922-.283 1.115-.02 1.85-18.153 7.482-37.908 7.708-55.57 2.11.463-.858.586-1.761.514-2.963l-.47-.005c-.483 1.74-1.843 3.46-2.902 5.469l-.076.181c.595-.712 1.797-.974 2.383-1.787l6.928 3.642c1.477 5.148 2.177 11.871 5.33 17.057 4.6-3.469 4.503-10.112 4.351-15.338 8.299 1.645 16.076 1.11 24.45-1.157-.268 4.552-.47 11.294 3.614 14.368 4.788-3.974 2.558-12.074 5.19-17.007a69.316 69.316 0 006.66-2.916c.685 1.1 1.806 1.854 2.746 2.728l.173-.444c-1.133-1.768-2.382-3.503-2.659-5.591l-.642-.197zm-8.376 6.848c-1.133 4.803-.363 10.268-2.93 14.656-3.152-3.131-2.392-8.788-2.118-12.836 1.897-.482 3.169-1.163 5.048-1.82zm-38.656 2.108c2.129.466 4.256.852 6.414 1.142-.024 4.295.331 10.009-3.049 13.258-2.934-4.175-1.61-9.85-3.365-14.4z" fill-rule="evenodd"/><path d="M121.808 179.003l-6.188 3.182-.353 7.071-.53 9.723 4.419-1.591 3.359-9.546 2.474 1.237.708 5.127-4.95 16.794 4.773-1.061 6.364-5.657 1.768-8.839 1.944-8.308 3.182 4.596-2.828 13.435 4.066-3.712 3.358-5.834-.53-9.723-3.712-6.54-6.188-3.006-4.065-4.066-2.652-.176" fill="url(#A)" fill-rule="evenodd" transform="translate(16.976 -3.022)"/><path d="M144.656 167.813c-4.294.865-2.899 4.837-5.75 7.218-1.477.854-3.837 1.457-5.812 2.094-3.883 3.225-1.484 8.14-1.063 12.594l-1.156 7.094c3.662.09 6.252-2.087 7.531-5.094.701-1.988.344-4.64 1.282-6.531 1.344.27 1.56 1.29 1.937 2.468.342 1.666.228 3.999-.156 6.532l-4.563 14.593c8.088-.997 12.32-5.274 14.5-12.875.598-3.82-.384-6.652.97-10.312 2.793 1.012 2.665 2.89 2.562 5.469l-2.75 11.875c4.533-2.288 7.917-6.798 8.78-11.657.395-3.892.285-7.721-.624-9.687-1.726-4.188-5.23-6.93-9.656-8.156-3.036-1.513-2.406-4.924-6.032-5.625zm.032 2.187c2.968.798 2.77 3.068 5.75 4.406 4.145 1.15 6.504 3.712 8.156 7.719.815 1.763.434 5.46.062 9.125-.34 3.358-.51 6.615-4 8.906.307-2.5 1.51-5.752 1.72-8.968.338-3.552-.917-6.604-4.282-8-2.427 3.665-2.317 7.78-2.438 11.968-.69 6.898-3.866 10.085-10.156 11.594 1.466-3.163 2.244-7.631 2.969-12.406.394-2.597.51-5.03.125-6.906-.349-1.986-1.362-2.846-3.156-3.407-1.69 1.73-1.929 4.501-2.657 6.782-.846 2.531-1.971 3.739-4.53 4.437.136-1.618 1.016-3.187 1.405-5.344 1.163-4.166-3.16-7.746.25-11.187 1.724-.433 3.916-1.944 5.5-2.844 3.482-1.741 1.46-4.99 5.282-5.875z" fill-rule="evenodd"/><path d="M75.087 93.696l3.884-26.755 11.616-22.495 16.25-6.25 13.5-2.5c8.417-.1 16.833.468 25.25 2.25l16.75 11.25 8.5 13.25 5.5 21-.5 10.5-4.5 4.75-3.75 10 1.5 10.5 1 4.25-7.75.75 3.5-13.5.75-24.5c-.373-6.095-2.045-11.82-4.75-17.25l-20.5-13.25c-3.306-.608-6.55-1.467-10.5.5-3.703 1.409-5.365 6.083-7.5 10l-6.75-8.5-8-2.25-9.5 3-15.5 13.75-2.25 14.75 1.25 14L88.22 124.8s-7.634-1.354-7.384-2.354l2-8c.498-5.933-.25-10.898-2.75-14.5l-5-6.25z" fill="url(#B)" fill-rule="evenodd" transform="translate(16.976 -3.022)"/><path d="M79.558 28.036L89.28 48.01l16.263 15.91.884 4.597-4.596 4.95-5.834 1.59-8.662-5.303-6.54-9.9-1.768-15.026.53-16.793z" fill="url(#C)" fill-rule="evenodd" transform="translate(16.976 -3.022)"/><path d="M162.113 27.329v10.783l-.354 12.198-4.066 14.142-6.187 8.308-4.243 1.768-5.48-.53-7.07-6.895.53-3.358 9.722-7.955 9.9-13.259 7.248-15.202z" fill="url(#D)" fill-rule="evenodd" transform="translate(16.976 -3.022)"/><path d="M96.531 22.5l-.968.156c.027 11.288-1.765 23.17 1.562 34.156-3.604 8.754-5.26 19.91-5.812 33.75l.03.22c4.825 3.506 6.783 8.49 7.907 14.124 1.389 5.428-1.594 10.87-2 15.875 2.72.376 5.874.298 8.594 1.75-2.45-11.341-5.15-23.115-6.656-34.406v-.063c-.386-7.185.807-14.413 4.956-20.552 6.223 7.224 13.934 8.95 20.637-3.698.005-.03.028-.062.032-.093h-.032c.56-4.559-4.002-5.783-6.97-8.178 3.75-1.648 7.206-2.813 11.095-2.354 6.28 3.385 8.81 7.298 11.875 12.094 1.298-5.417 3.583-11.366 9.625-12.437 2.495-.286 5.355.393 8.407 1.312-3.037 3.194-9.214 4.333-8.75 9.563h-.032c.004.03.027.062.032.093 7.907 14.92 18.937 9.334 24.937-1 5.86 6.27 8.578 15.167 8.188 24.063-.134 12.118-1.03 23.944-4.25 35.656 2.906-.48 5.812-2.858 8.718-1.375-1.58-9.563-5.437-18.753 5.375-30.344 1.604-17.813-3.425-33.682-13.718-44.5.767-8.78.095-17.635-.032-23.656l-.968-.156c-1.567 4.634-3.722 9.99-7.251 15.95-7.592-4.747-17.412-6.782-28.187-6.794-16.846.72-29.095 3.293-36.926 10.22-4.714-7.088-7.518-13.757-9.418-19.376zm.47 5.531c4.174 11.252 11.216 25.66 23.812 32.219 1.346 1.24 1.453 2.48 1.406 3.719-5.018 8.787-10.357 8.166-15.844 3.812-5.9-5.413-8.265-12.047-9.094-20.875-.74-7.89-.486-12.836-.28-18.875zm80.843 0c.741 14.187.733 28.77-9.375 39.75-5.487 4.354-10.826 4.975-15.844-3.812-.673-2.71.31-3.93 1.819-4.736 12.662-6.76 17.686-17.183 23.4-31.202zm-8.405 12.978c-2.922 4.794-4.455 7.853-8.368 11.596-3.513-1.008-7.18-.917-10.79-.761-5.197.765-8.564 5.316-10.25 9.968-3.836-6.24-6.855-8.612-10.875-9.593-4.45-.582-8.984.154-13.187 1.875-2.802-2.55-5.385-5.6-7.719-8.844 8.492-8.229 20.11-12.067 34.063-11.594 9.806-1.114 18.819 2.497 27.126 7.353zm9.842 7.241c8.253 9.67 13.155 23.92 12.75 42.344-6.897 7.141-10.104 17.075-5.937 29.062-2.096-.567-3.766.297-5.594 1.188 3.334-10.244 4.17-23.366 3.688-33.938.516-12.107-2.63-19.737-8.594-25.187 2.207-4.161 3.588-8.961 3.687-13.469zM98.375 59.937a31.317 31.317 0 003.656 6.094c-4.075 6.593-4.562 14.385-4.437 21.938 1.353 8.903 4.704 22.276 6.531 32.125-1.885-.786-3.267-.408-5.281-.656 1.323-4.319 2.173-9.954 1.469-15.094-.762-5.558-2.98-10.58-7.813-14.188.305-12.016 2.349-22.065 5.875-30.219z" fill-rule="evenodd"/><path d="M89.634 137.284l8.485 3.535 18.032.354 8.838-1.06 1.415 5.48-.707 3.358-10.253-1.238-11.314-2.298-7.955-3.358-6.54-4.773z" fill="url(#E)" fill-rule="evenodd" transform="translate(16.976 -3.022)"/><path d="M130.116 139.759l14.496-.354 13.435-2.121 8.131-3.89-5.303 5.127-7.601 3.89-11.844 3.888-10.253 2.475-1.591-4.773 1.59-4.242h-1.06z" fill="url(#F)" fill-rule="evenodd" transform="translate(16.976 -3.022)"/><path d="M185.344 127.813c-9.277 8.034-23.305 8.5-38 8.062l-.344.031-.156.313c-1.096 3.224-1.515 6.735.812 9.562l.188.219.25-.031c13.366-2.798 30.834-6.663 37.25-18.156zm-81.719 4.156c7.486 10.827 25.272 12.994 38.844 14.5h.25l.156-.219c2.047-3.037 1.274-6.49-.125-9.594l-.156-.312-.344.031c-14.586 1.842-28.623 2.704-38.625-4.406zm76.188.687c-7.3 6.569-15.472 7.501-30.563 12.063-1.453-2.605-2.063-4.648-.875-7.469 12.626.363 22.223.86 31.438-4.594zm-70.22 3.594c9.695 4.548 19.217 3.131 31.75 1.563 1.453 2.694 1.042 4.8-.155 7.53-15.458-3.096-23.7-3.253-31.594-9.093z" fill-rule="evenodd"/><path d="M99.587 190.821l5.375 6.625c6.06 8.299 13.089 14.656 20.125 21l-8.875 12.125-9.25-12.125-11-22.25 3.625-5.375z" fill="url(#G)" fill-rule="evenodd" transform="translate(16.976 -3.022)"/><path d="M159.212 188.321l-13.5 14.875-14.25 14 10.75 11.625 9.625-12.625 12.375-24.25-5-3.625z" fill="url(#H)" fill-rule="evenodd" transform="translate(16.976 -3.022)"/><path d="M234.469 126.094c-10.3 8.75-23.277 12.856-36.5 14.375l-.219 3.031c12.4-.405 24.705-7.98 34.531-15.406-1.176 7.809-4.595 21.858-9.187 35.781-4.736 14.36-12.034 27.889-17.375 33.719-1.743-1.023-2.319-1.543-4.563-2.469 9.364-11.18 14.088-20.178 17.25-28.969L228.5 136.97c-9.792 6.924-19.45 9.029-31.437 8.937l-.75 2.844c11.458 1.446 21.609-4.09 30.03-9.312-4.204 9.666-6.203 17.9-9.218 26.28-3.16 8.789-8.809 17.256-18.25 28.47-4.872-1.926-9.7-3.219-17.356-5.165-.192-.05.277-1.026.082-1.076l-5.567-3.587c-.176.23-.576.723-.753.953-1.783-3.728-.208-9.658.032-12.438l-2.375 1.031c-.251 2.91-.551 8.186 1.625 12.282-9.2 10.726-18.84 21.985-30.308 30.327-.803-.4-1.267-1.376-1.88-1.988-8.945-7.894-17.765-15.855-23.625-26.308 1.029-3.545.795-7.388.594-9.719l-2.75-1.656c.181 2.102 1.913 7.516 1.219 10.594l-1.032-.625-4.312 5.406c.275.223.316.562.469.844-12.23 3.049-19.476 4.773-25.313 7.843C71.806 184.2 60.4 160.35 53.281 143.25c11.98 9.665 26.011 14.14 41.938 12.813l-.875-1.844c-16.148.585-28.998-3.308-43.344-13.75 7.06 16.958 18.23 44.26 34.656 61.719-1.934 1.085-2.705 1.627-4.125 2.906-17.576-21.598-32.551-43.588-34.937-73.875 6.057 3.469 12.648 6.863 20.531 10.687 8.228 3.992 16.809 6.98 24.469 6.282l-.188-2.844A45.181 45.181 0 0167.563 141L44.53 128.063c1.83 30.494 17.39 54.865 35.375 78.375a21.527 21.527 0 00-1.75 1.937c-5.624 7.103-6.756 17.52-11.093 36.438 13.53 4.34 27.762 3.419 41.75 3.125 19.175-.377 37.324 2.27 56.5 2.25 7.707 1.293 16.628-.553 24.406-1.438 12.72-2.088 24.215-4.788 38.187-6.25-4.201-18.45-7.717-31.06-13.437-38.281-1.71-2.158-3.8-4.016-6.469-5.688 5.582-6.227 12.104-19.817 16.813-34.093 3.218-12.782 8.962-24.721 9.656-38.344zm-58.28 59.306l4.626 3.313c-5.449 12.908-13.19 24.81-21.331 35.986l-9.912-10.81c5.951-6.646 25.879-24.464 26.618-28.49zm-59.126 2.944c1.25 2.27 15.854 21.312 24.062 27.312l-7.687 11.125c-6.489-3.955-19.597-32.916-19.938-34.25l3.563-4.187zm64.53 1.75c18.158 4.658 25.626 9.32 30.72 15.75 5.47 6.906 8.294 16.258 12.5 34.719-12.47.985-24.411 4.37-36.344 6.187-7.632 1.136-15.56 2.072-22.063.938h-.093c-6.732.14-13.458-.016-20.188-.22 1.386-9.43 1.64-18.789 2.063-28.343-1.12-1.095-1.736-1.713-2.844-2.312.923-.618 1.669-1.443 2.43-2.242l11.57 12.398c8.823-11.453 16.17-23.787 22.25-36.875zm-68.343 3.937c4.146 13.296 11.346 24.141 19.844 33.907l.437.468 8.5-12.281c1.726 1.044 3.667 1.74 5.157 3.094.493 9.65-.622 18.937-2.094 28.219-12.067-.376-24.148-.92-36.313-.5-13.173 0-28.117.363-39.187-3.5 4.206-18.477 4.58-27.001 9.875-33.688 5.15-6.504 13.91-10.764 33.781-15.719z" fill-rule="evenodd"/><path d="M135.712 230.397l-7.5 5.875-7.375-5-1.563 1.187 3.313 8.938-7.25 5.687.437 2.313 9.938-.563 3.5 8.938 1.625-.313 2.5-9.562 9.5-.313.437-2.312-8.187-5.063 2.25-8.812-1.625-1zm-.563 2.75l-1.312 6.25-3.813-2.188 5.125-4.062zm-13.5 1.062l5.313 3.25-3.25 2.688-2.063-5.938zm7.313 4l4.5 3.438-1.688 5.125-5.312.125-1.813-5.375 4.313-3.313zm5.812 4l5.563 3.625-6.75.25 1.187-3.875zm-11.625.75l1.5 4.125-6.687.313 5.187-4.438zm8.188 5.375l-1.688 6.25-2.125-5.937 3.813-.313z" fill="url(#I)" fill-rule="evenodd" transform="translate(16.976 -3.022)"/><path d="M128.306 219.397c-2.164-.107-3.312 1.105-4.157 2.937-.622 1.71-.7 3.748-.75 5.188v.531c.727-.545 1.759-.708 2.813-.844l-.063-.218c-.202-2.005-.263-3.747 1.313-5.125 1.326-.103 1.912.298 2.625 1.28l.312 3.782 2.563.406-.063-.312c.161-1.59.275-3.443-.28-4.969-.818-1.93-2.316-2.464-4.282-2.656h-.031zm-.47 7.437c-4.68 1.255-8.78 2.568-13.124 8.844-2.293 5.859-1.742 9.577-.438 13.906 2.136 3.167 3.53 6.242 8.313 8.5 3.702 1.194 7.506 1.263 11.375.625 4.083-2.458 6.835-2.462 10.562-11.125.818-4.375.605-9.625-2.812-14.437-4.163-4.786-8.881-6.347-13.875-6.313zm1.782 2c.418-.01.844-.01 1.281 0 3.734.597 7.183 2.551 10.25 6.313 2.977 4.27 2.25 8.838 1.125 13.437-2.434 6.412-8.14 8.08-12.812 9.063-6.36.55-10.815-4.013-13.938-9.375-2.425-8.777 1.147-19.101 14.094-19.438z" fill="url(#J)" fill-rule="evenodd" transform="translate(16.976 -3.022)"/><path d="M146 223.75c-9.026 0-16.375 7.349-16.375 16.375S136.974 256.5 146 256.5c9.027 0 16.375-7.349 16.375-16.375S155.027 223.75 146 223.75zm.057.255c8.485 0 15.834 7.578 15.834 16.063 0 8.484-7.349 16.005-15.834 16.005-8.484 0-16.063-7.52-16.063-16.005s7.579-16.063 16.063-16.063zm-.114 1.449c-8.381 0-14.672 6.462-14.672 14.843s6.405 14.583 14.786 14.583c8.382 0 14.5-6.316 14.5-14.698 0-8.38-6.233-14.728-14.614-14.728zm.057.484c2.192 0 4.243.552 6.094 1.437l-6.875 5.719-7.063-4.781a14.108 14.108 0 017.844-2.375zm6.643 1.6c.263.144 1.062.72 1.224.967l-1.914 7.919-.864-.448 1.196-5.83-.25-.367-10.238 8.24-.358-1.279 11.204-9.202zm1.826 1.243c3.454 2.585 5.719 6.69 5.719 11.344 0 .625-.11 1.209-.188 1.813l-7.742-4.995 2.21-8.162zm-16.719-.093l7.095 4.6-.996.732-5.017-3.24-.498.284L143 243.499l-1.102.133-5.471-13.877a41.074 41.074 0 011.324-1.067zm-1.75 1.375l3.375 8.468-7 5.25c-.317-1.179-.562-2.376-.562-3.656 0-3.936 1.604-7.495 4.187-10.062zm15.813.406l-1.344 5.5-3-1.844h-.063l4.407-3.656zm-12.875.937l4.75 2.969-2.625 2.188-.032.125-2.093-5.282zm8.356 3.176l12.736 7.833c-.06.307-.36 1.403-.44 1.702l-8.89.518.415-1.267 6.55-.292.118-.54-11.087-7.268.598-.686zm-1.356.762l4.25 3.062-1.594 5.219h-5.219l-1.656-5.219 4.219-3.062zm4.453 3.33l1.04.58-3.658 14.912c-.257.025-1.051.153-1.312.164l-3.322-8.29.983.044 2.404 5.704.584-.283 3.281-12.832zm1.484.795l5.156 3.187-6 .407-.03.03.874-3.624zm-12.345-.64l.284 1.028-4.97 4.297.123.566 13.37-.761-.194 1.191-14.737.969c-.133-.312-.587-1.633-.697-1.954l6.821-5.335zm.501 1.296l1.407 3.563.093.062-6.187.438 4.687-4.063zm19.313 4.594c-1.676 4.851-5.848 8.495-11.031 9.344l2.218-9.094 8.813-.25zm-11.188.719l-1.375 5.687-2.156-5.375 3.469-.25.062-.062zm-5.53.437l3.251 8.375c-5.379-.131-10.181-3.24-12.47-7.75l9.218-.625z" fill-rule="evenodd"/><path d="M78.144 158.143l-10.43-.353-12.728-2.298-14.319-6.541-5.657-4.596 4.95 12.55 11.314 20.86 18.208 27.4 15.202-5.302 11.49-3.006.178-1.59 3.182-4.597 1.767 1.591.177-11.314-5.303-4.419-10.96-9.9-7.071-8.485z" fill="url(#K)" fill-rule="evenodd" stroke="#000" transform="translate(16.976 -3.022)"/><path d="M145.281 216.375c-2.163-.107-3.311 1.106-4.156 2.938-.622 1.71-.7 3.747-.75 5.187v.531c.727-.545 1.759-.708 2.813-.843l-.063-.22c-.202-2.004-.263-3.746 1.313-5.124 1.326-.103 1.912.298 2.625 1.281l.312 3.781 2.563.407-.063-.313c.161-1.59.275-3.443-.281-4.969-.817-1.93-2.315-2.464-4.281-2.656h-.032zm-.03.438c1.59.246 3.256 1.026 4 2.375.393 1.08.272 3.445.155 4.843l-1.75-.218c-.007-1.12.263-2.802-.156-3.875-.707-1.361-1.77-1.509-3.187-1.563-1.683 1.588-1.687 3.44-1.688 5.656l-1.719.469c.062-1.337.35-3.698.813-4.969.466-1.992 2.074-2.46 3.531-2.718z" fill-rule="evenodd"/><path d="M118.688 94.612a3.312 3.312 NaN 11-6.625 0 3.312 3.312 NaN 116.625 0zM165.063 95.112a3.312 3.312 NaN 11-6.625 0 3.312 3.312 NaN 116.625 0z" fill="#fff"/><path d="M131.5 111.875l2.125 15.625c3.553-6.145 7.97-11.73 17.125-14.25-6.555 1.482-13.026 1.783-19.25-1.375z" fill-opacity=".133" fill-rule="evenodd" filter="url(#L)" transform="translate(16.976 -3.022)"/><path d="M91.5 113.75c9.043.702 15.955 4.036 30.25-1.75l-1.625 17.5c-9.427-9.114-17.574-13.625-28.625-15.75z" fill="#fff" fill-opacity=".261" fill-rule="evenodd" filter="url(#M)" transform="translate(16.976 -3.022)"/><path d="M101.647 40.644c3.45-2.508 4.63-2.887 9.015-2.121 1.732 7.185 7.136 13.758 11.49 20.506-5.303-3.79-7.07-7.922-12.374-5.657-2.58-4.259-2.19-8.889-8.131-12.728z" fill="#fff" fill-rule="evenodd" filter="url(#N)" transform="translate(16.976 -3.022)"/></svg>