<svg xmlns="http://www.w3.org/2000/svg" xmlns:xlink="http://www.w3.org/1999/xlink" width="280" height="280" version="1.0"><defs><linearGradient xlink:href="#e" id="j" x1="125.5" y1="70.75" x2="158.25" y2="172.25" gradientUnits="userSpaceOnUse"/><linearGradient id="f"><stop offset="0" stop-color="#0000c3"/><stop offset="1" stop-color="#00008a"/></linearGradient><linearGradient id="d"><stop offset="0" stop-color="maroon"/><stop offset="1" stop-color="#270000"/></linearGradient><linearGradient id="c"><stop offset="0" stop-color="#fff"/><stop offset="1" stop-color="#c4c4c4"/></linearGradient><linearGradient id="b"><stop offset="0" stop-color="#0040ff"/><stop offset="1" stop-color="#00f"/></linearGradient><linearGradient id="a"><stop offset="0" stop-color="#ff0"/><stop offset="1" stop-color="#ffbc00"/></linearGradient><linearGradient xlink:href="#c" id="D" x1="184.5" y1="244.108" x2="170.875" y2="223.108" gradientUnits="userSpaceOnUse"/><linearGradient xlink:href="#f" id="u" x1="107.125" y1="202.831" x2="151.625" y2="254.581" gradientUnits="userSpaceOnUse"/><linearGradient xlink:href="#a" id="r" x1="103" y1="37.25" x2="112.75" y2="65" gradientUnits="userSpaceOnUse"/><linearGradient xlink:href="#a" id="p" x1="168.586" y1="52.012" x2="187.354" y2="83.762" gradientUnits="userSpaceOnUse"/><linearGradient xlink:href="#a" id="q" x1="86.994" y1="71.824" x2="90.494" y2="87.824" gradientUnits="userSpaceOnUse"/><linearGradient xlink:href="#a" id="A" x1="103.227" y1="81.093" x2="126.751" y2="89.224" gradientUnits="userSpaceOnUse"/><linearGradient xlink:href="#a" id="n" x1="148.278" y1="80.195" x2="171.427" y2="84.07" gradientUnits="userSpaceOnUse"/><linearGradient xlink:href="#b" id="t" x1="97.987" y1="91.308" x2="96.808" y2="99.79" gradientUnits="userSpaceOnUse"/><linearGradient xlink:href="#b" id="m" x1="98.822" y1="90.559" x2="101.982" y2="99.401" gradientUnits="userSpaceOnUse"/><linearGradient xlink:href="#f" id="E" x1="152.719" y1="197.202" x2="167.219" y2="207.452" gradientUnits="userSpaceOnUse"/><linearGradient xlink:href="#f" id="w" x1="106.25" y1="191" x2="118.5" y2="215.25" gradientUnits="userSpaceOnUse"/><linearGradient xlink:href="#c" id="x" x1="132.438" y1="151.125" x2="132.438" y2="152.721" gradientUnits="userSpaceOnUse"/><linearGradient xlink:href="#c" id="z" x1="132.129" y1="158.82" x2="132.47" y2="163.681" gradientUnits="userSpaceOnUse"/><linearGradient xlink:href="#d" id="o" x1="135.688" y1="152.063" x2="137.625" y2="162.188" gradientUnits="userSpaceOnUse"/><linearGradient id="e"><stop offset="0" stop-color="#ebae89"/><stop offset="1" stop-color="#f2cab2"/></linearGradient><linearGradient xlink:href="#e" id="h" x1="124.125" y1="184.003" x2="138.375" y2="211.253" gradientUnits="userSpaceOnUse"/><filter id="J" x="-.15" width="1.301" y="-.233" height="1.467"><feGaussianBlur stdDeviation=".852"/></filter><filter id="g"><feGaussianBlur stdDeviation="1.983"/></filter><filter id="H" x="-.29" width="1.58" y="-.298" height="1.596"><feGaussianBlur stdDeviation="1.693"/></filter><filter id="G" x="-.291" width="1.582" y="-.297" height="1.595"><feGaussianBlur stdDeviation="1.693"/></filter><filter id="C"><feGaussianBlur stdDeviation=".825"/></filter><filter id="B" x="-.083" width="1.166" y="-.111" height="1.222"><feGaussianBlur stdDeviation="1.477"/></filter><filter id="v" x="-.082" width="1.165" y="-.14" height="1.281"><feGaussianBlur stdDeviation="1.477"/></filter><filter id="I" x="-.324" width="1.649" y="-.085" height="1.17"><feGaussianBlur stdDeviation="1.149"/></filter><filter id="i" x="-.158" width="1.317" y="-.289" height="1.577"><feGaussianBlur stdDeviation="2.788"/></filter><filter id="F" x="-.211" width="1.422" y="-.189" height="1.377"><feGaussianBlur stdDeviation="1.383"/></filter><filter id="K" x="-.299" width="1.598" y="-.211" height="1.422"><feGaussianBlur stdDeviation="1.063"/></filter><filter id="L" x="-.371" width="1.741" y="-.225" height="1.449"><feGaussianBlur stdDeviation="1.465"/></filter><filter id="k" x="-.192" width="1.384" y="-.131" height="1.263"><feGaussianBlur stdDeviation="3.202"/></filter><filter id="y" x="-.107" width="1.214" y="-.442" height="1.884"><feGaussianBlur stdDeviation="1.737"/></filter><filter id="M" x="-.119" width="1.237" y="-.306" height="1.611"><feGaussianBlur stdDeviation="1.451"/></filter><filter id="N" x="-.119" width="1.237" y="-.298" height="1.597"><feGaussianBlur stdDeviation="1.451"/></filter><radialGradient xlink:href="#c" id="l" cx="102.75" cy="94.426" fx="102.75" fy="94.426" r="16" gradientTransform="matrix(.61249 .70719 -.45095 .39056 82.398 -12.918)" gradientUnits="userSpaceOnUse"/><radialGradient xlink:href="#c" id="s" cx="149.943" cy="95.003" fx="149.943" fy="95.003" r="16" gradientTransform="matrix(.74219 .41016 -.29867 .54045 65.339 -15.532)" gradientUnits="userSpaceOnUse"/></defs><metadata/><path d="M134.281 25.407c-3.35 9.604-5.534 7.548-8.281 11.125-8.67-1.96-19.28.606-26-5.907-4.16 3.664-5.2 8.788-7.406 13.344-2.905-1.636-5.715-2.093-8.594-3.344L80.344 38.5c-1.269-.979-2.555-2.251-3.875-4a23.863 23.863 0 012.937 5.875l1.219 5.125c.645 4.367.54 8.655 1.594 13.063-8.076 1.543-15.237 4.261-25.469 3.031 2.045.696 3.677 1.522 5.063 2.437l4.624 4.22c1.856 2.169 3.423 4.435 5.782 6.437 4.135 1.056 8.27-.75 12.406-1.5-1.154 5.82-6.207 10.116-9.906 14.562 7.21-.439 9.507.454 11.5 1.438.148.348.301.732.375 1.187-.004.384-.032.766-.031 1.156-5.087-4.976-10.047-.796-11.094 3.188-1.218 7.147.96 14.97 5.094 20.781 1.358 1.864 7.147 2.073 8.812 2.938-9.342 20.113-7.81 34.527-.313 44 5.885 8.146 16.609 11.412 23.25 18.75.207.813.491 1.592.876 2.344-.233 2.103-.65 3.367-1.563 4.906a36.898 36.898 0 01-2.563-4.406c-6.933 2.646-12.438 9.254-17.156 14.78-8.697.845-15.959 3.849-22.406 9.657-5.791 6.474-6.393 12.585-7.313 18.813-.223 5.067-.642 12.245-4.656 20.437 23.985 8.116 49.715 6.7 74.656 6.875 30.657-2.427 54.932 3.49 91.97-7.281-1.736-15.04-8.103-28.783-14.532-42.281-6.57-6.463-13.766-9.43-22.5-11.5-4.265-5.414-9.862-9.87-16.969-11.844-.638.95-1.28 1.828-1.906 2.656-.058-.148-.135-.288-.188-.438-.4-2.678-.598-5.396-.093-8.125l-.031-.062c14.52-9.412 21.661-16.584 24.343-25.75 3.068-10.485-.221-20.196-4.594-29.375.084-.865.126-1.695.188-2.531 6.877-1.94 9.489-9.946 10.75-16.219 1.483-9.496-4.715-12.254-12.656-7.281-.09-1.012-.203-2.987-.313-4.407 1.695-.137 4.857.239 11.031 1.688l-4.406-7.344c5.033-1.612 10.363-2.554 16.719-1.187-4.728-6.036-10.827-7.957-16.469-11.25 2.977-2.582 5.495-3.102 9.063-8.344-8.067-.391-14.73-7.104-22.094-10.656-1.199-1.6-2.605-1.777-3.75-3.719l-.344-.625c-.541-1.151-.996-2.802-1.312-5.375-5.248 1.62-9.025 2.147-10.844 4.906-.408-.214-.837-.393-1.25-.593 1.843-3.363 5.218-5.475 10.156-6.125-.703-.752-1.375-1.519-2.281-2.22.303-.117.62-.233.938-.343l-1.344.063a10.742 10.742 0 00-2.219-1.188c-4.99-.26-9.98.136-14.969.875-2.098-1.38-4.022-2.471-5.906-3.563l-6.219-4.093c-1.842-1.454-3.77-3.24-5.875-5.656zm27.344 13.75c.59.012 1.16.048 1.75.093l-6.281.219a24.533 24.533 0 014.531-.313zm3.344 10.312a7.675 7.675 0 00-.906 2.125l-.157-.094.594-1.437a3.95 3.95 0 01.469-.594zm55.781 196.344c.002.01-.002.02 0 .031-.549.176-1.105.333-1.656.5.554-.177 1.104-.346 1.656-.531z" fill-rule="evenodd" filter="url(#g)"/><path d="M113.625 169.358c-.423 8.694-.15 17.42-4.25 25.5 3.802 20.083-11.233 18.194 25 24.5 26.125-.236 33.1-4.747 35.75-31.75-6.514-6.107-2.788-15.263-3-22-16.75-5.598-36.75-2.643-53.5 3.75z" fill="url(#h)" fill-rule="evenodd"/><path d="M124.25 191.5c3.13 5.691 5.107 11.201 35-1.75 2.134-3.397 2.7-5.853 1.5-7.25l5.75-8-9.25 3.25-33 13.75z" fill-rule="evenodd" filter="url(#i)" fill-opacity=".525"/><path d="M131.844 43.656c-22.554.19-46.64 7.69-46.281 47.563-16.067-10.857-9.978 27.933 2.78 25.219.119.611.218 1.19.344 1.812-19.07 39.896 14.815 50.682 23.344 61.531 10.233 18.675 45.356 11.8 45.25.688 39.563-23.681 35.764-42.036 26.875-60.438.134-1.335.24-2.616.344-3.906 12.867 1.92 18.56-36.194.344-20.75-2.695-45.08-29.78-51.915-53-51.719z" fill="url(#j)" fill-rule="evenodd"/><path d="M184 95.5c-3.888-.413-6.089 4.234-8 9.75-1.109-16.614-8.054-41.9-20.957-46.047-5.53-1.777-6.942-7.902-11.043-9.453l10.75-3L176.5 58l7.5 37.5z" fill-rule="evenodd" fill-opacity=".333" filter="url(#k)"/><path d="M96.979 98.65c3.54-2.859 3.231-7.162 11.5-8.25 7.485-.797 13.674 3.02 20.5 7.5-12.311 16.81-23.85 15.347-32 .75z" fill="url(#l)" fill-rule="evenodd"/><path d="M106.5 95a6 6.25 0 11-12 0 6 6.25 0 1112 0z" transform="matrix(1.27257 0 0 1.56209 -16.113 -48.318)" fill="url(#m)"/><path d="M115.759 101.05a3.5 3.619 0 11-7 0 3.5 3.619 0 117 0z"/><path d="M112.327 97.52a2.793 2.991 0 11-5.586 0 2.793 2.991 0 115.586 0z" fill="#fff"/><path d="M141.466 86.59c9.33-4.93 17.398-8.558 28-6.5 2.355 4.423 2.688 2.81.457 5.922-6.546-7.274-18.72.225-27.749 2.543-.91.234-.565.089-.708-1.965z" fill="url(#n)" fill-rule="evenodd"/><path d="M107.875 147.858c18.713 3.714 40.37 3.943 58.56-3.975-11.37 24.806-51.159 24.814-58.56 3.975z" fill="url(#o)" fill-rule="evenodd"/><path d="M172.492 44.356c-4.06 2.144-10.126-.014-9.9 11.314l10.628 15.077 2.454 17.096.707 17.324 4.243-16.263 12.374.353-4.243-7.07 14.85-1.061-14.496-9.9 9.089-7.382-20.756-10.65-4.95-8.838z" fill="url(#p)" fill-rule="evenodd"/><path d="M85.164 62.034l-.046 11.642-8.793 12.046 13.082 2.475 4.596 12.374 2.828-10.253-6.364-7.778 7.195-16.051-4.563-10.412-7.935 5.957z" fill="url(#q)" fill-rule="evenodd"/><path d="M157.996 51.78l-14.142-1.767c-7.901.336-14.612 4.64-21.567 8.132l-20.506-1.415-10.97 11.962-6.478 1.86-12.022 2.992L59.355 61.68l23.688-2.828-5.304-22.274 14.496 8.485s4.514-11.181 6.196-13.31c3.182 2.121 27.245 5.403 27.245 5.403l7.968-10.71 18.478 12.175 17.677-.647c-7.809 2.713-11.172 7.61-11.803 13.807z" fill="url(#r)" fill-rule="evenodd"/><path d="M171.729 98.65c-3.542-2.859-3.232-7.162-11.5-8.25-7.486-.797-13.675 3.02-20.5 7.5 12.31 16.81 23.85 15.347 32 .75z" fill="url(#s)" fill-rule="evenodd"/><path transform="matrix(-1.27257 0 0 1.56209 284.82 -48.318)" d="M106.5 95a6 6.25 0 11-12 0 6 6.25 0 1112 0z" fill="url(#t)"/><path d="M153.448 101.05a3.5 3.619 0 107 0 3.5 3.619 0 10-7 0z"/><path d="M151.63 97.02a2.793 2.991 0 105.586 0 2.793 2.991 0 10-5.586 0z" fill="#fff"/><path d="M109.375 194.858c-6.798 7.4-28.506 2.315-39 14.25-10.855 12.136-7.17 24.001-10.75 36 21.19 7.131 47.526 5.543 71.75 6 28.333 2.171 60.667 3.164 89-6.5-2.438-15.892-6.276-28.552-12-40.5-12.5-10.833-26-5.884-38.25-16.5-9.091 7.462-18.388 12.8-27.06 15.588-3.193 1.028-1.052 11.709-3.534 15.773-3.941-5.36-7.189-14.033-10.413-14.808-5.638-1.355-16.193-4.051-19.743-9.303z" fill="url(#u)" fill-rule="evenodd"/><path d="M94 199l-6.5 3.25c12.167 19.23 24.333 14.667 36.5 22l6.5-17.5L94 199z" fill-rule="evenodd" filter="url(#v)" fill-opacity=".584"/><path d="M108.156 184.014c-3.563.334-13.973 11.238-16.875 14.875 6.624 10.235 18.625 18.098 32.656 20.813l6.75-19.25c-8.485-.917-16.514-5.744-22.53-16.438z" fill="url(#w)" fill-rule="evenodd"/><path d="M111.634 149.362l22.893.442 23.688-2.387-5.392 2.475-12.109 2.829-16.882-.265-12.198-3.094z" fill="url(#x)" fill-rule="evenodd"/><path d="M116.5 158.75l40.25-2c-3.326 6.573-30.03 19.595-40.25 2z" fill-rule="evenodd" filter="url(#y)" fill-opacity=".489"/><path d="M114.816 156.875c1.061.619 13.79 3.536 13.79 3.536l11.224-.442 15.203-4.862 3.624-1.149s-4.42 4.066-5.657 4.596c-1.237.53-12.02 5.127-13.17 5.127-1.149 0-13.7-.796-13.7-.796l-11.314-6.01z" fill="url(#z)" fill-rule="evenodd"/><path d="M165.875 139.094c-.36 1.461-.58 2.855-.563 4.187-9.536 6.547-19.633 3.856-28.228 5.951-7.24-2.313-17.884.976-28.772-2.326.403-1.88.157-3.9-.374-6.062l-.347.146c.026 3.871-1.692 9.332-4.895 11.727l.085.69c2.166-1.193 3.675-2.565 4.594-4.126 4.305 10.204 16.353 15.742 28.52 15.25 11.75-.477 23.81-6.586 30.167-17.719.854 1.853 2.484 3.476 4.97 4.844l-.124-.336c-3.462-4.302-5.097-8.882-4.421-11.991l-.612-.235zm-1.656 6.687a29.83 29.83 0 01-5.063 6.531c-14.429 8.454-28.396 8.704-44.25 3.532-2.244-1.85-4.074-4.085-5.312-6.719.98.068 1.624.654 2.531 1 .809.28 2.008.625 3.5 1a76.05 76.05 0 0012.156 2c9.92.816 22.779-.024 34.344-6.438.238-.384 1.494-.685 2.094-.906zm-7.875 2.531c-9.845 3.981-20.175 4.496-28.469 3.813-4.162-.297-8.257-1.084-12.313-2.031 13.3 1.842 27.525 1.734 40.782-1.781zm.156 6.282c-5.972 4.642-13.396 7.902-20.787 8.202-6.209.251-12.289-1.808-17.12-4.452 13.844 4.75 25.59 2.706 37.907-3.75z" fill-rule="evenodd"/><path d="M129 88.181c-9.33-4.93-17.398-8.558-28-6.5-2.355 4.423-2.688 2.81-.456 5.922 6.545-7.274 18.72.225 27.748 2.543.911.234.565.089.709-1.965z" fill="url(#A)" fill-rule="evenodd"/><path d="M144.5 210.5l6 15.25c12.25-9.16 23.153-6.885 36.75-27.5l-5.25-4.5-37.5 16.75z" fill-rule="evenodd" filter="url(#B)" fill-opacity=".584"/><path d="M180.188 221.764c-2.526 0-4.857.972-6.75 2.563 1.83 2.077 4.21 3.219 6.75 3.219s4.92-1.142 6.75-3.22c-1.894-1.59-4.225-2.562-6.75-2.562zm-8.813 4.782c-1.632 2.264-2.625 5.153-2.625 8.312 0 3.031.923 5.812 2.438 8.031 1.804-1.997 4.208-3.455 6.937-4v-8.75c-2.61-.464-4.946-1.779-6.75-3.593zm17.625 0c-1.832 1.84-4.216 3.148-6.875 3.593v8.625c2.841.41 5.37 1.83 7.281 3.813 1.387-2.165 2.219-4.831 2.219-7.719 0-3.159-.993-6.048-2.625-8.312zm-8.563 14.875c-2.554 0-4.947 1.15-6.78 3.25-.144.164-.272.356-.407.53 1.93 1.704 4.314 2.75 6.938 2.75 2.745 0 5.278-1.12 7.25-2.968-.08-.097-.138-.219-.22-.312-1.833-2.1-4.226-3.25-6.78-3.25z" filter="url(#C)"/><path d="M179.688 221.264c-2.526 0-4.857.972-6.75 2.563 1.83 2.077 4.21 3.219 6.75 3.219s4.92-1.142 6.75-3.22c-1.894-1.59-4.225-2.562-6.75-2.562zm-8.813 4.782c-1.632 2.264-2.625 5.153-2.625 8.312 0 3.031.923 5.812 2.438 8.031 1.804-1.997 4.208-3.455 6.937-4v-8.75c-2.61-.464-4.946-1.779-6.75-3.593zm17.625 0c-1.832 1.84-4.216 3.148-6.875 3.593v8.625c2.841.41 5.37 1.83 7.281 3.813 1.387-2.165 2.219-4.831 2.219-7.719 0-3.159-.993-6.048-2.625-8.312zm-8.563 14.875c-2.554 0-4.947 1.15-6.78 3.25-.144.164-.272.356-.407.53 1.93 1.704 4.314 2.75 6.938 2.75 2.745 0 5.278-1.12 7.25-2.968-.08-.097-.138-.219-.22-.312-1.833-2.1-4.226-3.25-6.78-3.25z" fill="url(#D)"/><path d="M169.125 181.702c-8.256 10.008-15.78 16.769-28.656 17.156l7.5 21.344c15.295-1.61 23.879-9.422 37.25-26.844-1.876-2.74-9.766-11.46-16.094-11.656z" fill="url(#E)" fill-rule="evenodd"/><path d="M95.75 73.25l.75-9.75 4.75-6.75 10.25.25s.25 22.5-15.75 16.25z" fill="#fff" fill-rule="evenodd" filter="url(#F)" fill-opacity=".256"/><path d="M133.281 24.406c-3.35 9.605-5.534 7.549-8.281 11.125-8.67-1.959-19.28.607-26-5.906-4.16 3.664-5.2 8.788-7.406 13.344-5.366-3.022-10.46-1.967-16.125-9.469 5.764 8.406 3.833 16.042 5.75 24.063-8.076 1.542-15.237 4.26-25.469 3.03 9.03 3.074 10.322 8.727 15.469 13.094 4.135 1.057 8.27-.749 12.406-1.5-1.154 5.82-6.207 10.117-9.906 14.563 7.21-.439 9.507.453 11.5 1.438.263.618.52 1.376.375 2.374-5.098-5.026-10.075-.836-11.125 3.157-1.218 7.147.96 14.97 5.094 20.781 1.358 1.864 7.147 2.073 8.812 2.938-9.342 20.112-7.81 34.526-.313 44 5.885 8.145 16.609 11.412 23.25 18.75.207.813.491 1.591.876 2.343-.233 2.104-.65 3.368-1.563 4.906a36.898 36.898 0 01-2.563-4.406c-6.933 2.647-12.438 9.255-17.156 14.781-8.697.844-15.959 3.848-22.406 9.657-5.791 6.474-6.393 12.585-7.313 18.812-.223 5.068-.642 12.246-4.656 20.438 23.985 8.116 49.715 6.7 74.656 6.875 30.657-2.427 54.932 3.49 91.97-7.281-1.736-15.04-8.103-28.783-14.532-42.282-6.57-6.463-13.766-9.429-22.5-11.5-4.265-5.413-9.862-9.87-16.969-11.844a59.496 59.496 0 01-2 2.782c-.455-2.86-.727-5.769-.187-8.688l-.031-.062c14.52-9.412 21.661-16.585 24.343-25.75 3.068-10.485-.221-20.196-4.594-29.375.084-.865.126-1.695.188-2.531 6.877-1.94 9.489-9.947 10.75-16.22 1.483-9.495-4.715-12.254-12.656-7.28-.09-1.012-.203-2.987-.313-4.407 1.695-.138 4.857.239 11.031 1.688l-4.406-7.344c5.033-1.612 10.363-2.554 16.719-1.188-4.728-6.035-10.827-7.956-16.469-11.25 2.977-2.581 5.495-3.1 9.063-8.343-8.067-.391-14.73-7.104-22.094-10.657-1.911-2.55-4.393-1.483-5.406-9.718-5.248 1.62-9.025 2.146-10.844 4.906-.408-.214-.837-.394-1.25-.594 1.843-3.362 5.218-5.474 10.156-6.125-1.243-1.327-2.374-2.682-4.906-3.687-4.99-.26-9.98.136-14.969.875-6.415-4.216-11.264-5.58-18-13.313zM134 28.47c5.76 3.802 9.651 14.615 17.281 11.406 4.98-2.174 9.959-1.956 14.938-1.156-4.058 1.96-8.62 7.312-9.375 11.406l-12.813-1.594c-7.847.337-14.72 5.062-21.969 8.094-6.652-2.694-13.936-.968-20.906-1.438L92.094 66.5l-8.469 2.625c-3.272 1.042-5.972 1.893-11.125 3.563l-9.563-9.938c7.188-1.417 17.931-.463 21.563-4.25-3.295-6.281-3-12.563-4.5-18.844 4.292 2.51 6.631 5.51 12.875 7.532 2.22-4.63 1.734-11.639 6.781-14.438 8.248 5.487 17.255 4.585 25.813 5.875 5.64-3.385 5.687-6.77 8.531-10.156zm37.781 17.687l4.344 7.782 21.063 9.937c-4.082 3.891-7.38 5.954-10.47 7.531 5.26 3.065 10.69 5.538 15.47 9.406-5.425-.216-11.44-1.81-15.97.063l5.97 7.938c-3.615-1.627-9.105-2.465-12.72-1.438l-2.75 11.813.47-11.407-.032-.094v-.093l-3.062-17.563c-3.157-4.987-4.809-10.477-11.219-14.281-.218-2.165-.3-3.88.031-5.25l.594-1.438c1.094-1.69 3.476-2.591 8.281-2.906zm-27.781 4c5.125 1.04 10.516.488 15.344 3.313a18.97 18.97 0 01.156-2c.518.26 1.025.558 1.531.843-.006 1.199.09 2.575.313 4.188 5.899 2.865 7.244 9.98 10.594 14.969.889 5.541 3.135 11.083 2.25 16.625.323 4.992.684 10.07 2.312 18 1.48-9.277 3.1-9.198 4.875-14.031 1.465-.428.955-1.55 1.563-2.282.092 2.007.09 4.402.187 6.125-.508.488-1.774 1.346-2.313 1.906l.313.626c6.203-6.498 15.245-7.434 14.125 2.874-.97 5.608-3.235 11.878-9 13.844-1.458.236-3.802.867-5.656-.469l-.406.626c.586.422 1.163.782 1.75 1.062l-.344 4.094c6.633 2.208 8.888 17.242 7.156 26.969-2.627 8.977-13.243 19.23-32.75 30.906 3.306 9.216-10.984 11.732-19.156 12.594-7.781-.23-24.321-1.26-22.719-12.563-6.932-7.24-17.082-10.506-23.656-18.156-6.706-8.474-8.374-34.807.5-40.906-1.027-.915-.56-1.817-.031-2.813.387-.212.77-.44 1.156-.719l-.063-.75c-3.29 2.437-7.499.465-10.062-2.312-3.838-5.255-5.86-12.103-4.781-18.594.75-3.234 2.57-4.44 5.718-3.281 1.85.815 4.287 2.632 7.25 5.719l.438-.157c-1.25-1.302-1.405-3.656-2.5-4.562-.014-.938-.689-1.9-1.219-2.844.419.182.884.347 1.406.5 2.27 4.147 4.332 9.132 5.938 15.938-.665-7.178 2.28-10.295 4.062-14.72l.188-.75-.469-.593-6.781-7.813c1.885-6.364 9.044-11.124 6.656-18.343l4.531-4.938c6.594.451 13.188-2.662 19.781 1.375 7.271-7.124 14.542-7.103 21.813-9.5zm-48.344 15.5c.093 4.265-.466 8.922-6.937 17.125l6.437 7.906-1.375 5.032-3.25-8.844-13.719-1.313c3.271-4.697 9.492-10.158 9.313-15.718 3.177-1.396 5.955.4 9.531-4.188zm68.188 12.875a39.602 39.602 0 00-1.938.031c-7.155 2.479-10.888.85-21.469 7.438-.12 1.523.103 2.498 1.125 3.625 5.32-1.095 10.418-3.442 15.657-4.969 3.962-.512 6.79-3.418 13.531 1.938-.158-2.464 4.109-4.147-1.094-7.5-1.913-.405-3.866-.557-5.812-.563zm-57.156 1.563c-1.888.006-3.83.196-5.876.594-4.788 4.91-.974 5.997-.343 8.5 1.54-2.004 3.563-3.129 6.031-3.594 7.517-.384 14.482 3.439 21.531 5.531 1.528-.432 1.548-2.07 1.438-3.813-7.065-3.924-14.615-7.034-22.781-7.218zm57.03.406c1.734.033 3.446.248 5.157.531 1.168 2.026 1.986 2.031.844 3.594-3.718-3.327-8.3-2.566-12.844-1.531-4.975 1.304-12.162 5.776-14.375 4.312-.001-.077-.622.002-.625-.094.139-2.878 13.321-6.422 20.094-6.78a22.739 22.739 0 011.75-.032zm-56.874.844c7.722-.115 14.857 3.83 21.625 7.187-.253 1.096-.499 1.516-.5 1.594-7.16-2.673-13.802-6.094-21.719-5.5-2.019.26-3.87.161-5.5 1.594-1.047-.556-1.676-1.416.844-3.594 1.81-.327 3.565-1.26 5.25-1.281zM83.219 95.78c-2.277.184-3.88 2.353-3.344 6.25.79 4.973 5.5 13.018 10.75 8.344l-.625-.656c-3.689 3.56-6.769-4.963-7.406-7.563-1.258-7.029 3.315-5.255 6.625-1.406l.687-.531c-1.916-2.93-4.262-4.37-6.219-4.438-.157-.005-.316-.012-.468 0zm106.937 2.281c-2.295-.04-5.594 2.406-7.656 4.813l.406.656c2.465-2.83 8.01-6.917 7.125-.281-.727 3.674-2.943 8.062-7.125 6.25l-.656.406c4.942 4.97 9.274-1.347 10.375-6.031.498-4.247-.684-5.78-2.469-5.813zm-46.281 26.282l-.438.375c1.731.626 2.45 3.157 3 4.344 1.159 2.61.172 4.765-1.468 6.5-2.058-1.372-4.506-1.805-7-1.907-3.615-.559-5.682 2.341-8.688 3.406-3.395-.58-1.782-5.536-.844-7.687.75-1.27 1.707-3.656 2.907-3.719l-.094-.375c-2.021.106-3.564 1.453-4.531 3.094-2.195 3.548-5.721 12.104 2.875 10.656 3.126-1.045 4.756-4.05 8.25-4.25 2.693-.43 4.73 2.06 7 2.781 7.4-.036 5.076-5.888 3.437-9.343-.758-1.633-2.22-3.084-4.406-3.875zm-8.25 47.312a22.08 22.08 0 00-2.531.188c-8.995.783-8.92 4.833-5.375 10.344l.75-.532c-2.99-4.372.301-5.85 4.75-6.687 4.092-.396 7.827-.323 5.625 3.906l.656.469c3.08-5.128 1.482-7.735-3.875-7.688zm30 3.906c-.44 2.625-.387 6.82.313 9.47-9.83 11.957-18.059 9.83-26.875 12.874l2.718 6.469c-2.13 2.959-2.758 6.936-3.062 10.406-2.077-3.583-4.376-9.834-7.625-12.5l.969-2.687c-8.187-.977-14.635-3.692-19.594-9.625.859-1.753.657-4.266.656-5.906 4.52 6.467 15.324 10.139 23.688 9.343 8.452-.969 23.557-5.799 22.625-14a289.797 289.797 0 006.187-3.844zm3.906 7.22c5.992 1.262 10.73 5.916 14.406 10.593-6.419 8.318-11.77 14.412-17.218 18.531-5.404 4.086-10.977 6.325-18.094 7.188l-6.813-19.375c12.205-.814 19.842-7.464 27.72-16.938zm-61.719 2.468c5.798 9.829 13.457 14.664 21.563 15.906l-6.063 17.313c-12.963-2.72-24.064-9.867-30.5-19.156 3.606-5.52 9.069-10.646 15-14.063zm80.126 11.531c9.406.294 14.944 5.36 20.78 9.813 5.212 11.002 8.652 23.83 11.032 38.25-25.192 8.079-52.414 6.2-78.344 4.469 2.953-7.21 1.646-13.709 2.469-20.563l-3.563-10.063c2.539-3.383 3.044-4.07 3.188-8.156l3.156 10.75c5.67 2.674 16.3-4.418 21.25-7.781 5.161-3.902 10.069-9.323 15.75-16.531a30.22 30.22 0 014.281-.188zm-98.313 4.5c.843-.025 1.614.037 2.25.219 9.813 7.905 17.348 18.848 32.719 19.344l4.75-13.531 12.469 21.28c-1.268 6.979-1.284 14.298-5.97 20.345-24.626.569-51.08-.558-75.374-4.594 1.27-5.531 2.169-12.32 2.906-17.313.847-5.738 2.186-12.213 7.25-17.875 2.96-2.938 13.098-7.701 19-7.875zm45.75 23.938c-2.415 0-4.75 1.503-4.75 4.125s2.335 5.375 4.75 5.375 4.625-1.503 4.625-4.125-2.21-5.375-4.625-5.375z" fill-rule="evenodd"/><path d="M111.781 89.188c-4.275.136-8.329.835-11.562 4l-4.531 5.218c3.54 6.666 8.16 11.43 15.718 12.656 6.933-1.87 13.44-2.482 19-13.406-5.682-4.083-11.733-7.203-18.625-8.469zm26.531 8.468c4.603 6.943 10.616 12.356 19 13.406 5.915-1.82 11.974-.37 15.688-12.656-1.88-1.38-3.048-3.439-4.5-5.219-2.655-2.918-6.549-3.8-10.344-3.874-6.952.001-14.16 4.718-19.844 8.343zm-26.53-6.219c3.705 0 6.718 3.843 6.718 8.657 0 4.813-3.015 8.491-6.719 8.625-5.48.197-6.773-3.799-6.719-8.625.056-4.838 2.228-9.049 6.72-8.656zm45.156 0c5.618-.166 6.652 3.794 6.718 8.657.067 4.909-2.222 8.268-6.719 8.625-4.396.349-6.4-3.804-6.718-8.625-.333-5.048 1.412-9.724 6.719-8.656zm-49.778-.004c-1.808 2.004-3.941 5.401-3.941 8.66 0 2.541.978 5.065 2.14 6.928-2.442-1.723-6.073-4.611-8.2-8.271 1.466-1.432 3.427-2.983 4.528-4.219.977-1.095 3.178-2.481 5.473-3.098zm55.371.442c2.286.617 3.492 1.56 4.469 2.656 1.102 1.236 2.002 2.787 3.469 4.219-2.114 3.634-4.398 6.338-6.813 8.063 1.149-1.857 1.813-4.195 1.813-6.72 0-3.257-1.132-6.215-2.938-8.218zM150.5 92.938c-1.319 1.92-2.125 4.43-2.125 7.156 0 2.567.722 4.941 1.906 6.812-2.892-1.763-6.9-4.906-10.035-9.015 3.2-2.083 7.183-3.698 10.254-4.954zm-34.226-.942c3.054 1.249 9.343 3.883 12.52 5.952-2.903 4.339-8.326 9.618-12.27 10.133 1.162-1.862 3.82-5.447 3.82-7.987 0-2.714-2.762-6.181-4.07-8.098z" fill-rule="evenodd"/><path transform="matrix(.94522 .32644 -.42262 1.22372 64.64 -69.821)" d="M104 143a6.688 7 0 11-13.375 0A6.688 7 0 11104 143z" fill="red" fill-opacity=".224" filter="url(#G)"/><path d="M104 143a6.688 7 0 11-13.375 0A6.688 7 0 11104 143z" transform="matrix(.94109 -.33816 .4378 1.21837 24.128 -5.132)" fill="red" fill-opacity=".224" filter="url(#H)"/><path d="M137.25 217l12 10.75-11.25 24 5.25-21.25-6-13.5z" fill-rule="evenodd" filter="url(#I)" fill-opacity=".516"/><path d="M127.986 181.535c2.78-2.95 5.433-6.216 10.96-2.298 9.16-6.179-19.308-10.721-10.96 2.298z" fill-rule="evenodd" filter="url(#J)" fill-opacity=".457"/><path d="M145.134 125.32c2.305 3.044 3.633 6.508 2.651 10.96 0 4.753 14.85-6.845-2.651-10.96z" fill-rule="evenodd" filter="url(#K)" fill-opacity=".498"/><path d="M89.095 100.218c-.761 2.365-3.7 2.889 1.238 10.076-5.763 10.891-16.517-26.064-1.238-10.076z" fill-rule="evenodd" filter="url(#L)" fill-opacity=".347"/><path transform="matrix(-1 0 0 1 272.171 2.121)" d="M89.095 100.218c-.761 2.365-4.584.59.354 7.778-7.353 10.36-15.633-23.766-.354-7.778z" fill-opacity=".347" fill-rule="evenodd" filter="url(#L)"/><path d="M100.586 111.885c1.566 4.384-.535 7.851-2.652 11.314 9.782-3.063 19.564-6.39 29.345-4.42-1.968-.28.568-7.848-.53-6.894-1.815 1.578-25.986 3.358-26.163 0z" fill="#fff" fill-rule="evenodd" filter="url(#M)" fill-opacity=".251"/><path d="M169.706 111.709c-1.566 4.383.535 7.85 2.651 11.313-9.781-3.063-19.563-6.39-29.345-4.42 1.968-.28-.054-6.503.53-6.893 2.528-1.69 25.987 3.357 26.164 0z" fill="#fff" fill-rule="evenodd" filter="url(#N)" fill-opacity=".251"/></svg>