<svg xmlns="http://www.w3.org/2000/svg" xmlns:xlink="http://www.w3.org/1999/xlink" width="280" height="280" version="1.0"><defs><linearGradient xlink:href="#a" id="j" gradientUnits="userSpaceOnUse" x1="114" y1="69.75" x2="140" y2="148.75"/><linearGradient id="c"><stop offset="0" stop-color="#650000"/><stop offset="1" stop-color="#400000"/></linearGradient><linearGradient id="f"><stop offset="0" stop-color="#ab9a0a"/><stop offset="1" stop-color="#6a5f06"/></linearGradient><linearGradient id="g"><stop offset="0" stop-color="#472008"/><stop offset="1" stop-color="#833c10"/></linearGradient><linearGradient id="a"><stop offset="0" stop-color="#cd7d48"/><stop offset="1" stop-color="#d89970"/></linearGradient><linearGradient id="b"><stop offset="0" stop-color="#eac9b3"/><stop offset="1" stop-color="#deaa87"/></linearGradient><linearGradient id="d"><stop offset="0" stop-color="red"/><stop offset="1" stop-color="#9d0000"/></linearGradient><linearGradient xlink:href="#a" id="i" gradientUnits="userSpaceOnUse" x1="123.75" y1="203.25" x2="156.25" y2="272.25"/><linearGradient id="e"><stop offset="0" stop-color="#fff"/><stop offset="1" stop-color="#c4c4c4"/></linearGradient><linearGradient xlink:href="#b" id="l" gradientUnits="userSpaceOnUse" x1="153.348" y1="190.925" x2="136.963" y2="144.425"/><linearGradient xlink:href="#c" id="o" gradientUnits="userSpaceOnUse" x1="123.25" y1="164.003" x2="123.25" y2="169.516"/><linearGradient xlink:href="#d" id="p" gradientUnits="userSpaceOnUse" x1="131.5" y1="166.5" x2="140" y2="184.553"/><linearGradient xlink:href="#g" id="w" gradientUnits="userSpaceOnUse" x1="133.75" y1="130.75" x2="137" y2="151"/><linearGradient xlink:href="#f" id="r" gradientUnits="userSpaceOnUse" x1="113.25" y1="105.5" x2="119.5" y2="122.75"/><linearGradient xlink:href="#b" id="v" gradientUnits="userSpaceOnUse" x1="129.5" y1="29" x2="140.25" y2="66.34"/><linearGradient xlink:href="#f" id="t" gradientUnits="userSpaceOnUse" x1="153.151" y1="103.881" x2="161.448" y2="121.881"/><linearGradient xlink:href="#b" id="u" gradientUnits="userSpaceOnUse" x1="129.751" y1="224.001" x2="153.441" y2="258.751"/><filter id="k" x="-.105" width="1.21" y="-.219" height="1.439"><feGaussianBlur stdDeviation=".915"/></filter><filter id="F" x="-.148" width="1.296" y="-.348" height="1.696"><feGaussianBlur stdDeviation=".939"/></filter><filter id="G" x="-.148" width="1.296" y="-.348" height="1.696"><feGaussianBlur stdDeviation=".939"/></filter><filter id="B" x="-.338" width="1.676" y="-.506" height="2.012"><feGaussianBlur stdDeviation="1.696"/></filter><filter id="C" x="-.13" width="1.259" y="-.319" height="1.638"><feGaussianBlur stdDeviation="2.795"/></filter><filter id="D"><feGaussianBlur stdDeviation=".602"/></filter><filter id="x" x="-.235" width="1.471" y="-.312" height="1.625"><feGaussianBlur stdDeviation="2.692"/></filter><filter id="n" x="-.197" width="1.394" y="-.214" height="1.429"><feGaussianBlur stdDeviation="1.594"/></filter><filter id="m" x="-.068" width="1.136" y="-.155" height="1.31"><feGaussianBlur stdDeviation=".502"/></filter><filter id="E"><feGaussianBlur stdDeviation="1.329"/></filter><filter id="y" x="-.331" width="1.662" y="-.322" height="1.644"><feGaussianBlur stdDeviation="3.151"/></filter><filter id="z" x="-.218" width="1.436" y="-.052" height="1.104"><feGaussianBlur stdDeviation=".913"/></filter><filter id="h"><feGaussianBlur stdDeviation="2.063"/></filter><filter id="A" x="-.15" width="1.301" y="-.126" height="1.251"><feGaussianBlur stdDeviation=".798"/></filter><radialGradient xlink:href="#e" id="s" gradientUnits="userSpaceOnUse" gradientTransform="matrix(.80282 1.39645 -1.20787 .6944 152.58 -179.893)" cx="150.75" cy="101.712" fx="150.75" fy="101.712" r="15.038"/><radialGradient xlink:href="#e" id="q" gradientUnits="userSpaceOnUse" gradientTransform="matrix(1.0704 1.36451 -1.5959 1.2519 160.132 -164.51)" cx="101" cy="104.795" fx="101" fy="104.795" r="15.038"/></defs><metadata/><path d="M123 16.53c.645 5.899 2.533 11.543 3.813 17.313.774 4.096.77 10.03-1 13.938-.176-.29-.393-.653-.594-1a9.008 9.008 0 00-.375-.656c-.078-.132-.17-.272-.25-.407-.065-.09-.12-.192-.188-.28-1-1.654-2.178-3.41-3.469-4.157-2.917-1.335-4.352-3.316-10-3.438 4.869 3.689 9.444 8.726 11.594 15.375.317 1.419.565 2.944.813 4.594-9.814 1.543-19.98 4.339-26.844 12.438-6.518 7.69-9.203 18.38-9.125 34.718-2.04-.507-6.248-1.422-8.313-1.53-10.927-.988-19.487 5.699-19.937 17.218 1.425 5.208 7.81 8.04 12.688 7.406 2.917-2.455 2.512-9.5 3.374-13.031 2.902 4.952 7.677 9.374 13.063 11.437 3.237 2.784 1.89 9.054 1.313 14.594-.941.559-3.222 2.123-4 3-1.082 1.218-1.913 2.935-2.563 4.656l-4.938-2.187-.312.625 4.625 3.312c-.711 2.741-1.024 6.063-.938 10.032l-17.062-1.782-.5.594 17.625 3.219c.128 3.196.573 6.99 1.188 10.125l-5.813 1.969.438.687 5.812-1.344c2.63 10.553 7.793 16.58 15.313 21 3.845 2.26 9.655 3.574 14.312 4.657 1.313 13.478-9.64 11.487-18.625 12.53-7.203 1.038-15.55 1.587-21.438 8.282-6.683 9.27-7.596 15.556-10.437 38.625 23.567 7.975 47.548 3.929 71.938 3.656 7.196-.46 14.379.441 21.562.813 18.009 1.895 34.548 5.063 67.125-5.75-4.375-14.698-5.883-35.095-15.5-43.969-6.724-5.828-12.525-5.336-18.375-6.281-6.55-1.009-14.807-4.12-18.688-10.063 1.38-.49 4.715-1.383 6-1.968 7.012-3.192 12.063-7.563 15-14.782l11.938 3.407.25-.688-11.063-5.219c1.05-3.19 1.628-5.91 1.688-9.937l15.125-.688-.313-1-14.812-1.187c.253-3.946-.184-7.874-.688-11.781l9.75-3.875-.375-.844-9.812 2.781c-.63-2.983-3.373-6.278-5.313-8.531-.256-6.073-.073-10.175.313-16.219.79-.312 3.064-1.688 3.875-2.125 2.225-1.197 4.61-3.75 6.594-6.375l.344-.219.28-.625c.699-.97 1.363-1.918 1.907-2.812 1.167 3.504-.11 10.949 3 13.406 3.871 1.185 8.21-1.868 11.125-4.312 5.07-5.736.056-13.598-4.188-17.813-6.749-4.215-16.856-2.773-24.156-.812a93.526 93.526 0 00-.937-7.22c-1.937-13.117-5.503-22.01-11.969-28.562-7.21-7.307-17.48-10.003-26.625-11.593 5.85-4.865 5.45-13.105 6.938-18.594-3.45 3.783-6.4 9.232-11.938 9.625-1.046-2.292-1.994-4.663-2.906-7.031a57.267 57.267 0 00-2.313-5.907c-3.01-7.43-6.64-14.51-14.031-19.437zm-44.25 87.907c.105.002.207-.003.313 0 .324.017.666.066 1 .094-.441-.038-.877-.073-1.313-.094zm1.625.094c.474.045.953.12 1.438.187.518.072 1.04.153 1.562.25 1.51.28 3.025.667 4.438 1.157v.093a26.409 26.409 0 00-6-1.5c-.484-.067-.955-.141-1.438-.187z" fill-rule="evenodd" filter="url(#h)"/><path d="M115.003 180.866c-.422 8.693-.15 17.42-4.25 25.5-6.798 7.4-27.39 1.285-37.883 13.22-10.855 12.135-6.286 24.531-9.867 36.53 21.19 7.131 46.026 3.043 70.25 3.5 28.334 2.171 57.667 4.164 86-5.5-2.437-15.892-6.275-28.552-12-40.5-12.5-10.833-23.5-3.884-35.75-14.5-6.513-6.107-2.788-15.263-3-22-16.75-5.598-36.75-2.643-53.5 3.75z" fill="url(#i)" fill-rule="evenodd" transform="translate(-.172 .966)"/><path d="M133.219 55.156c-22.835.193-47.234 7.903-46.25 49.094-7.492-2.862-17.691-2.097-20.781.594-4.065 3.539-7.387 8.87-6.876 13.75.372 3.542 8.256 7.2 11.094 5.844 2.346-1.121 2.314-9.35 3.844-12.47 2.753 6.594 9.896 11.017 14.75 11.876.327 1.918.652 3.882 1.063 5.906-3.413 37.932 20.407 51.525 28.937 62.375 11 10.17 22.787 7.47 32.906.094 30.063-23.431 34.503-36.41 33.625-60.688.272-2.716.477-5.313.625-7.844 4.812-1.157 11.387-5.459 14-11.718 1.53 3.12 1.467 11.348 3.813 12.469 2.838 1.355 10.753-2.302 11.125-5.844.512-4.88-2.81-10.211-6.875-13.75-3.279-2.855-14.567-3.546-22.125-.031-3.395-43.211-30.018-49.85-52.875-49.657z" fill="url(#j)" fill-rule="evenodd" transform="translate(-.172 .966)"/><path d="M124.5 65.75l19-7.75c1.11.043 18.839 2.392 24.336 6.637.827.638-20.165-1.783-20.112-.752.215 4.241-4.444 8.205-23.224 1.865z" fill-opacity=".402" fill-rule="evenodd" filter="url(#k)" transform="translate(-.172 .966)"/><path d="M190.787 163.024c1.248-38.854-26.65-14.344-53.576-14.117-26.926.227-58.462-26.643-53.883 13.85 2.569 30.19 23.175 35.702 50.017 35.994 31.952-2.759 58.591-5.309 57.442-35.727z" fill="url(#l)" fill-rule="evenodd" transform="translate(-.172 .966)"/><path d="M125.335 148.301l17.677-.53s-5.657 17.147-17.677.53z" fill-opacity=".339" fill-rule="evenodd" filter="url(#m)" transform="translate(-.172 .966)"/><path d="M127.986 178.53s4.244 11.736 9.9 6.718c7.494 4.08 10.262-8.56 9.369-15.557-.776-6.08-15.026 16.794-19.269 8.84z" fill-opacity=".741" fill-rule="evenodd" filter="url(#n)" transform="translate(-.172 .966)"/><path d="M108.503 158.491c7.501 7.686 55.356 5.342 56.5 3.625-1.055 6.648-57.722 14.144-56.5-3.625z" fill="url(#o)" fill-rule="evenodd" transform="translate(-.172 .966)"/><path d="M125.253 164.755c5.935-2.436 10.846-1.711 20.25.125 4.145 12.182-7.094 24.079-7.264 17.324-.332 5.31-11.046 2.48-12.986-17.449z" fill="url(#p)" fill-rule="evenodd" transform="translate(-.172 .966)"/><path d="M102.003 126.116c5.454-1.626 16.914-4.559 23.25-3.25 2.113-8.323 1.707-10.903 0-20.5-2.76-8.537-21.573-12.376-28-.25-2.573 12.43 3.368 15.753 4.75 24z" fill="url(#q)" fill-rule="evenodd" transform="translate(-.172 .966)"/><path d="M111.44 100.522a6.367 6.367 0 00-1.03.063c-5.505.847-8.862 8.716-7.5 17.562a24.44 24.44 0 002.218 7.094c5.14-1.376 12.426-2.951 17.75-2.656.37-2.31.376-4.854-.03-7.5-1.277-8.294-6.254-14.515-11.407-14.563z" fill="url(#r)" fill-rule="evenodd" transform="translate(-.172 .966)"/><path d="M117.026 118.227a6.354 4.514 78.757 11-9.14-.29 6.354 4.514 78.757 119.14.29z"/><path d="M103.9 112.762a4.03 4.494 0 108.061 0 4.03 4.494 0 10-8.06 0z" fill="#fff"/><path d="M167.301 126.116c-5.453-1.626-16.914-4.559-23.25-3.25-2.113-8.323-1.707-10.903 0-20.5 2.76-8.537 21.573-12.376 28-.25 2.573 12.43-3.368 15.753-4.75 24z" fill="url(#s)" fill-rule="evenodd" transform="translate(-.172 .966)"/><path d="M157.864 100.522c.343-.003.687.01 1.03.063 5.506.847 8.863 8.716 7.5 17.562a24.44 24.44 0 01-2.218 7.094c-5.14-1.376-12.426-2.951-17.75-2.656-.369-2.31-.376-4.854.031-7.5 1.277-8.294 6.253-14.515 11.407-14.563z" fill="url(#t)" fill-rule="evenodd" transform="translate(-.172 .966)"/><path d="M151.934 118.227a4.514 6.354 11.243 109.14-.29 4.514 6.354 11.243 10-9.14.29z"/><path d="M159.06 110.512a4.03 4.494 0 11-8.06 0 4.03 4.494 0 118.06 0z" fill="#fff"/><path d="M142.66 217.616a82.005 82.005 0 00-3.125.125c-28.949 1.638-29.705 19.567-28.438 42.25 7.365-.258 14.785-.514 22.156-.375 13.164 1.009 26.543 1.97 39.938 1.75-.012-.229-.017-.458-.031-.687-1.46-23.967.665-43.63-30.5-43.063z" fill="url(#u)" fill-rule="evenodd" transform="translate(-.172 .966)"/><path d="M111.208 36.574c10.174 7.865 10.277 12.557 11.68 21.7-9.081 12.8 27.912 8.413 21.087.303 3.542-4.761 6.94-9.727 7.974-18.09-3.524 4.13-7.02 8.46-11.292 7.458-2.381-10.77-6.258-21.32-17.13-30.852 1.433 9.717 7.33 19.525 1.462 29.094-1.75-5.429-7.934-7.39-13.78-9.613z" fill="url(#v)" fill-rule="evenodd" transform="translate(-.172 .966)"/><path d="M145.03 137.18c0 6.237-4.753 15.219-10.608 15.219s-10.607-8.982-10.607-15.22c0-6.237 4.752-11.298 10.607-11.298 5.855 0 10.607 5.061 10.607 11.299z" fill="url(#w)" transform="translate(-.172 .966)"/><path d="M94.045 211.234c-16.514-.014-23.86 8.484-27.223 20.683 0 0 30.405-12.905 27.223-20.683z" fill="#fff" fill-opacity=".442" fill-rule="evenodd" filter="url(#x)" transform="translate(-.172 .966)"/><path d="M104.121 141.584c-26.912-5.725-20.368 10.855-22.097 21.92 2.268 3.092 27.474-12.13 22.097-21.92z" fill="#fff" fill-opacity=".527" fill-rule="evenodd" filter="url(#y)" transform="translate(-.172 .966)"/><path d="M61.828 121.966l5.75-11.25 5.25-4.5 7 7.75 8.5 10.25-9.5-5-5-7.75-2.75 13.5h-5.5l-3.75-3z" fill="#fff" fill-opacity=".232" fill-rule="evenodd"/><path d="M184.578 124.716l7-6.25 5.5-7.25 4-4 6.25 5 4 5.5.5 5.25-8.25 2.75-3.75-12.75-2 4.25-6.25 4.25-7 3.25z" fill-opacity=".188" fill-rule="evenodd"/><path d="M123.25 15.75c5.946 13.182 12.365 26.229 9.25 42l-7.25-10c3.894-6.119-.757-25.632-2-32z" fill="#fff" fill-opacity=".455" fill-rule="evenodd" filter="url(#z)" transform="translate(-.172 .966)"/><path d="M151.75 41c-3.774 2.75-7.132 8.411-11.5 7L139 56.25c5.025-3.534 9.05-9.066 12.75-15.25z" fill="#fff" fill-opacity=".429" fill-rule="evenodd" filter="url(#A)" transform="translate(-.172 .966)"/><path d="M121.984 15.529c.645 5.898 2.565 11.542 3.844 17.312.775 4.096.772 10.03-1 13.938-1.156-1.914-2.913-5.363-4.875-6.5-2.917-1.335-4.383-3.316-10.031-3.438 5.927 4.49 11.464 10.97 12.656 19.938-9.881 1.536-20.148 4.31-27.062 12.469-6.518 7.69-9.203 18.38-9.125 34.718-2.04-.507-6.28-1.422-8.344-1.53-10.927-.988-19.456 5.699-19.906 17.218 1.425 5.208 7.779 8.04 12.656 7.406 2.917-2.455 2.544-9.5 3.406-13.031 2.902 4.953 7.645 9.374 13.031 11.437 3.238 2.784 1.89 9.054 1.313 14.594-.941.559-3.19 2.123-3.969 3-1.081 1.218-1.943 2.935-2.594 4.656l-4.937-2.187-.313.625 4.625 3.312c-.71 2.741-.993 6.063-.906 10.032l-17.062-1.782-.5.594 17.625 3.219c.127 3.196.573 6.99 1.187 10.125l-5.844 1.969.438.687 5.844-1.344c2.63 10.553 7.761 16.581 15.28 21 3.846 2.26 9.656 3.574 14.313 4.657 1.314 13.478-9.639 11.487-18.625 12.53-7.202 1.038-15.519 1.587-21.406 8.282-6.683 9.27-7.627 15.556-10.469 38.625 23.568 7.975 47.548 3.929 71.938 3.656 7.196-.46 14.38.441 21.562.813 18.01 1.895 34.548 5.063 67.125-5.75-4.375-14.698-5.883-35.095-15.5-43.969-6.724-5.827-12.494-5.336-18.343-6.281-6.55-1.009-14.808-4.12-18.688-10.063 1.38-.49 4.714-1.383 6-1.968 7.012-3.192 12.062-7.563 15-14.782l11.938 3.407.25-.688-11.094-5.219c1.049-3.19 1.627-5.91 1.687-9.937l15.157-.688-.344-1-14.813-1.187c.253-3.946-.152-7.874-.656-11.781l9.75-3.875-.375-.844-9.844 2.781c-.63-2.983-3.373-6.278-5.312-8.531-.257-6.073-.073-10.175.312-16.219.791-.312 3.095-1.688 3.907-2.125 3.284-1.767 6.92-6.453 9.093-10.031 1.167 3.504-.078 10.949 3.032 13.406 3.87 1.185 8.21-1.868 11.125-4.312 5.07-5.736.056-13.598-4.188-17.813-6.777-4.232-16.943-2.755-24.25-.781-1.65-17.226-5.248-28.115-12.844-35.813-7.21-7.307-17.448-10.003-26.593-11.593 5.85-4.865 5.419-13.104 6.906-18.594-3.45 3.783-6.4 9.232-11.938 9.625-5.232-11.469-7.57-24.59-19.25-32.375zm1.907 3.5c6.637 5.307 12.109 14.757 15.75 30.719 5.205.533 8.513-3.626 11.75-7.125-1.08 3.277 1.461 4.27-8.875 16.968 1.727 1.814 2.106 3.41.343 4.625-5.384 2.494-13.732 3.668-19.312 1.125-4.131-2.067-.935-4.086.219-5.843-.496-4.107-1.213-8.13-2.688-12-1.035-2.32-4.832-5.618-7.281-8.032 4.662-.67 7.867 6.503 10.75 9.688 3.714-5.133 4.136-10.593 3.25-16.688-.713-3.768-3.055-9.816-3.906-13.437zm-2.5 40.531c-1.707 2.83-1.252 5.074 1.218 7.125 6.205 2.846 13.983 1.815 20-1.094 2.538-1.45 3.475-3.255 2.344-5.937 9.406.267 18.639 3.618 25.844 9.812 6.873 6.966 11.262 19.225 12.625 36.5a14.573 14.573 0 00-2.125 1.625l.5.594c6.688-4.305 18.212-6.066 25.594-1.625 3.327 3.253 9.326 10.134 5.375 14.844-.404-8.957-7.213-10.524-11.5-15-5.73 4.604-6.12 9.347-16.438 16.812-1.134.354-3.083 2.116-4.125 1.813l-.094.094c.761.59 3.723.468 4.782.5-.566 4.75-.673 11.009-.72 15.78-2.712-.818-7.754-.237-10.843.157-9.034 1.152-20.076 5.388-30.75 6.906 1.407-2.853 2.75-7.658 2.75-10.375 0-6.762-5.152-12.25-11.5-12.25s-11.5 5.488-11.5 12.25c0 2.4.91 6.919 2.031 9.5-11.375-3.094-22.468-8.257-34.5-7.312.213-4.564 2.06-9.897 1.188-14.375.71-.12 2.237-.234 2.781-.656-.57-.072-2.971-1.264-5.125-1.375-1.72-1.55-4.777-4.092-7.406-8.938l-9-8.531c-5.994 3.47-9.998 8.604-11.781 15.219-.7-.704-.602-2.292-.657-2.813.22-10.957 8.254-15.647 17.72-15.375 5.026.264 11.22 1.87 14.312 4.75l.375-.594c-1.013-.943-2.192-1.744-3.47-2.406-.387-16.412 1.857-27.969 7.657-34.812 5.844-6.896 15.544-9.373 24.438-10.813zm-12.688 27.156c-4.03.1-8.224 1.617-12.531 5.094-.763 1.24-1.223.336.469 2.75 10.384-9.95 19.21-3.257 28.062-.656.381.057.035.64.531 0-5.094-4.412-10.641-7.332-16.53-7.188zm49.406 0c-5.545.165-10.798 3.008-15.625 7.188.497.64.15.057.532 0 8.851-2.6 17.678-9.295 28.062.656 1.692-2.414 1.232-1.51.469-2.75-4.638-3.744-9.124-5.222-13.438-5.094zm-46.718 7.72c-5.785.152-11.665 3.102-15.188 8.187-1.854 7.164-.756 14.837 4.719 25 .502-.132-2.09 3.45-1.625 3.218 6.28-3.136 17.573-6.627 25.094-5.53l4.187.562-2.531-1.782c2.132-8.4 1.739-11.337.031-20.937l-.031-.063v-.062c-3.18-6.103-8.871-8.747-14.656-8.594zm46.218 0c-5.833-.057-11.589 2.68-14.687 8.593v.062l-.031.063c-1.708 9.6-2.102 12.537.03 20.937l-2.28 2.407c8.991-3.588 18.834-1.855 29.156 2.875l-1.688-2.125c.657-3.915 2.433-6.693 3.813-10.22 1.38-3.525 2.259-7.774.937-14.155l-.03-.125-.063-.125c-3.412-5.28-9.323-8.131-15.157-8.188zm-46.843 1.905c5.34-.054 10.628 2.275 13.375 7.282.002.008-.003.023 0 .03 1.61 9.051 2.191 12.678.375 20.126-.14-.02-.545-1.014-.688-1.031.648-7.853-3.192-22.743-13.75-22.188-9.896 4.165-10.081 16.27-6.5 25.031-.355.102-.733.217-1.062.313-2.858-7.657-6.616-14.21-5.375-22.563 2.895-4.508 8.285-6.945 13.625-7zm46 .094c5.34-.124 10.896 2.468 14.156 7.031 1.192 5.925.403 9.545-.875 12.813-1.18 3.014-2.757 5.877-3.594 9.625-.338-.098-.728-.208-1.094-.313 3.937-9.19 2.9-20.025-6.468-25.03-10.76 1.198-14.582 12.637-13.75 22.187-.143.017-.298.011-.438.03-1.817-7.447-1.485-10.074.125-19.124.003-.008-.003-.023 0-.031 2.685-4.855 7.226-7.078 11.938-7.188zm1.187 4.969c9.504 3.673 8.672 16.046 5.438 23.656-2.199-.59-4.693-1.21-7.375-1.687-3.052-.544-6.105-.892-8.844-.813-1.034-8.865 1.978-20.097 10.781-21.156zm-47.687.125c9.592 2.554 10.677 11.712 10.656 20.656-5.513-.111-9.661 1.406-14.969 2.75-3.503-8.073-3.84-18.535 4.313-23.406zM72.64 107.06c3.447 2.058 5.56 6.282 7.53 9.031 1.61 2.246 3.274 4.653 5.845 6.844-5.83-2.59-10.303-6.118-11.844-12.437-2.519 4.356-2.131 9.536-4.344 14-2.672.594-5.26-.729-7.437-2.188 2.801-5.34 4.973-11.744 10.25-15.25zm128.625.469c4.37 3.625 8.943 6.957 10.406 14.781-2.18 1.562-4.755 2.646-7.438 2.188-1.448-4.667.094.674-4.093-13.125-2.098 5.465-5.872 8.964-11.094 11.312 4.494-4.792 6.825-11.145 12.219-15.156zM134.14 127.34c5.564 0 10.062 4.824 10.062 10.75 0 1.782-.032 4.172-.795 5.667-2.387 1.63-5.954 3.788-4.12 5.944-1.567 1.883-2.332 2.69-5.147 2.858-1.9.114-3.535-.526-4.902-1.637 1.675-3.826-1.899-4.345-3.219-4.298-1.312-2.725-1.973-5.922-1.973-8.534 0-5.926 4.53-10.75 10.094-10.75zm-40.125 14.844c10.248-.235 24.882 6.466 31.812 7.656 3.215 5.992 11.979 6.05 16.156-.062 13.315-.774 23.315-6.02 32.22-7.156 6.708-1.155 12.706 3.314 14.437 9.562l-14.813 3.594c-.667 1.637-1.404 3.281 1.5 4.594l13.813-6.063c.4 2.494.59 5.798.468 9.594l-6.687-.313c-3.827.674-2.854 2.802-1.281 4.375l7.875-.562c-.003 3.48-.763 5.746-1.5 8.375l-6.75-3.344c-3.334.017-3.124 1.967-2.875 3.938l8 2.687c-2.309 6.178-6.823 8.037-13.125 10.906-12.771 5.229-26.6 7.522-40.188 8.75-13.147-.16-26.643-2.923-34.75-7.687-6.435-3.782-9.933-9.297-12.219-18.688l12.188-2.406c2.79-3.282.368-3.585-1.313-4.312l-11.187 4.53c-.494-2.453-.942-4.814-1.094-7.312l8.188.97c1.526-.563 2.52-1.338.75-3.22l-9.407-.562c-.106-3.126-.59-6.648-.25-8.719l12.25 8.844c3.089.236 2.556-1.538 2.813-2.875l-14.844-7.844c.515-1.892 1.697-4.25 2.5-5.156 1.917-1.43 4.443-2.028 7.313-2.094zm14.218 16.25c-1.18 3.8.706 8.435 3.157 9.188 4.046 2.767 8.978 3.48 13.75 3.937.69 4.97 5.342 19.251 12.843 14.063 2.715 1.517 4.886-1.048 6.47-3.125 2.017-2.858 3.644-7.15 3.312-11.907 7.235-1.356 15.792-1.32 19.062-9.593-2.993 4.25-25.063 2.682-30.406 2.593-9.361-1.418-22.08.49-28.188-5.156zm.344 1.594c3.931 6.19 12.719 4.248 19.156 4.406l-3.156 1.375c.07.713.16 3.02.25 3.688-5.135-.327-15.27-1.213-16.25-9.47zm55.625 3.812c-4.75 4.04-12.271 4.291-17.437 5.157.043-1.55-.09-2.729-1-3.563 5.65-.187 12.812-.99 18.437-1.594zm-29.656.813c2.91-.129 6.525.53 10.844 1.344 1.627 5.511-.337 12.191-2.563 15.343-1.153 1.634-2.517 2.636-3.156 2.813-1.368-2.76-1.438-7.437-2.563-10.781l-.562-.22c.626 2.988 2.818 9.427.281 11.626-8.736.428-9.98-13.27-11-19.125 2.593-.995 5.927-.876 8.719-1zm31.969 32.937c4.004 8.193 14.164 9.669 22.312 11.375 5.7.921 10.484 1.774 16.094 6.47 5.46 9.25 11.776 25.082 14.156 39.5-14.444 4.627-30.016 6.284-45.594 6.5-.715-11.886-.554-22.758-4.156-30.72-4.918-10.776-16.156-12.473-26.844-12.625-11.996-.174-22.548 3.337-29.125 13.625-3.655 7.535-3.57 17.537-2.968 28.625-15.636-.181-31.217-1.544-46.813-3.656 1.657-11.77 1.51-24.994 9.125-34.687 4.607-5.24 12.526-7.527 19.5-8.532 6.974-1.004 15.793.38 20.219-4.437 1.613-2.699 2.262-5.9 3-8.938 5.502.863 11.532 1.058 17.719 1.125 11.251-.555 22.365-1.322 33.375-3.625zm-24.562 21.147c10.642-.342 21.293 2.457 26.468 12.385 3.448 7.622 2.11 18.408 2.825 30.312-13.322.132-25.395-.754-37.981-1.719-7.282.435-13.344.777-20.638.802-.602-11.081-1.868-21.137 1.638-28.364 5.616-10.578 16.636-13.102 27.688-13.416z" fill-rule="evenodd"/><path d="M140.184 131.33c-3.3-2.256-6.756-7.54-12.728 0-1.862 1.863 10.531 8.561 12.728 0z" fill="#fff" fill-opacity=".647" fill-rule="evenodd" filter="url(#B)" transform="translate(-.172 .966)"/><path d="M115.966 198.86c13.969 4.164 29.435 7.643 32.526 16.793l19.27-21.036c-19.176 5.552-35.354 4.61-51.796 4.243z" fill-opacity=".371" fill-rule="evenodd" filter="url(#C)" transform="translate(-.172 .966)"/><path d="M172.18 240.048c-1.06 1.768.354 22.628.354 22.628l-22.627-2.121c11.073-2.173 21.453-5.751 22.273-20.507z" fill-opacity=".17" fill-rule="evenodd" filter="url(#D)" transform="translate(-.172 .966)"/><path d="M181.726 141.584c26.769 23.679-22.465 58.487-29.344 54.094l27.4-5.48 11.137-17.325c1.742-15.296-.107-28.233-9.193-31.29z" fill-opacity=".263" fill-rule="evenodd" filter="url(#E)" transform="translate(-.172 .966)"/><path transform="rotate(-11.987 109.965 118.732)" d="M119.375 133.125a7.75 2.875 0 11-15.5 0 7.75 2.875 0 1115.5 0z" fill="#f9f9f9" fill-opacity=".228" filter="url(#F)"/><path d="M119.375 133.125a7.75 2.875 0 11-15.5 0 7.75 2.875 0 1115.5 0z" transform="scale(-1 1) rotate(-11.987 -25.428 1396.823)" fill="#f9f9f9" fill-opacity=".228" filter="url(#G)"/></svg>