<svg xmlns="http://www.w3.org/2000/svg" xmlns:xlink="http://www.w3.org/1999/xlink" width="280" height="280" version="1.0"><defs><linearGradient xlink:href="#c" id="B" gradientUnits="userSpaceOnUse" x1="170.059" y1="53.726" x2="184.555" y2="71.813"/><linearGradient id="b"><stop offset="0" stop-color="#fff"/><stop offset="1" stop-color="#b9b9b9"/></linearGradient><linearGradient id="a"><stop offset="0" stop-color="#00c700"/><stop offset="1" stop-color="#009000"/></linearGradient><linearGradient id="e"><stop offset="0" stop-color="#501616"/><stop offset="1" stop-color="#411212"/></linearGradient><linearGradient id="g"><stop offset="0" stop-color="#ebb28e"/><stop offset="1" stop-color="#f4d1bb"/></linearGradient><linearGradient id="c"><stop offset="0" stop-color="#483737"/><stop offset="1" stop-color="#211919"/></linearGradient><linearGradient id="d"><stop offset="0" stop-color="#ccc"/><stop offset="1" stop-color="#fff"/></linearGradient><linearGradient xlink:href="#a" id="E" gradientUnits="userSpaceOnUse" x1="150.362" y1="96.128" x2="159.612" y2="112.003"/><linearGradient xlink:href="#g" id="i" gradientUnits="userSpaceOnUse" x1="110.415" y1="175.883" x2="184.287" y2="225.027"/><linearGradient xlink:href="#c" id="C" gradientUnits="userSpaceOnUse" x1="126.219" y1="35.341" x2="138.593" y2="61.996"/><linearGradient id="f"><stop offset="0" stop-color="red"/><stop offset="1" stop-color="#900000"/></linearGradient><linearGradient xlink:href="#d" id="z" gradientUnits="userSpaceOnUse" gradientTransform="translate(-.5)" x1="152.5" y1="227.5" x2="166.25" y2="237.625"/><linearGradient xlink:href="#d" id="x" gradientUnits="userSpaceOnUse" gradientTransform="translate(-.5)" x1="103.139" y1="229.254" x2="111.445" y2="232.879"/><linearGradient xlink:href="#d" id="v" gradientUnits="userSpaceOnUse" gradientTransform="translate(-.5)" x1="127.125" y1="232.375" x2="140" y2="259.25"/><linearGradient xlink:href="#e" id="t" gradientUnits="userSpaceOnUse" x1="121.269" y1="195.854" x2="126.926" y2="216.714"/><linearGradient xlink:href="#e" id="r" gradientUnits="userSpaceOnUse" x1="107.001" y1="202.065" x2="159.21" y2="253.983"/><linearGradient xlink:href="#f" id="q" gradientUnits="userSpaceOnUse" x1="126.125" y1="145.875" x2="128.25" y2="152.75"/><linearGradient xlink:href="#c" id="p" gradientUnits="userSpaceOnUse" x1="148.591" y1="82.041" x2="168.444" y2="87.791"/><linearGradient xlink:href="#c" id="o" gradientUnits="userSpaceOnUse" x1="102.25" y1="82.416" x2="124.354" y2="90.901"/><linearGradient xlink:href="#a" id="n" gradientUnits="userSpaceOnUse" x1="111.719" y1="93.875" x2="118" y2="107.625"/><linearGradient xlink:href="#g" id="l" gradientUnits="userSpaceOnUse" x1="122.683" y1="67.868" x2="163.342" y2="167.57"/><filter id="N" x="-.174" width="1.348" y="-.184" height="1.369"><feGaussianBlur stdDeviation="1.612"/></filter><filter id="O" x="-.147" width="1.293" y="-.128" height="1.257"><feGaussianBlur stdDeviation=".748"/></filter><filter id="A" x="-.129" width="1.258" y="-.075" height="1.15"><feGaussianBlur stdDeviation="1.784"/></filter><filter id="k"><feGaussianBlur stdDeviation="1.035"/></filter><filter id="j"><feGaussianBlur stdDeviation=".695"/></filter><filter id="F" x="-.297" width="1.594" y="-.485" height="1.97"><feGaussianBlur stdDeviation="1.465"/></filter><filter id="s" x="-.084" width="1.168" y="-.305" height="1.609"><feGaussianBlur stdDeviation="3.282"/></filter><filter id="u"><feGaussianBlur stdDeviation=".918"/></filter><filter id="w" x="-.144" width="1.288" y="-.098" height="1.196"><feGaussianBlur stdDeviation=".918"/></filter><filter id="y" x="-.119" width="1.238" y="-.096" height="1.192"><feGaussianBlur stdDeviation=".918"/></filter><filter id="G" x="-.169" width="1.339" y="-.082" height="1.164"><feGaussianBlur stdDeviation="1.589"/></filter><filter id="H" x="-.318" width="1.636" y="-.176" height="1.351"><feGaussianBlur stdDeviation=".663"/></filter><filter id="I" x="-.107" width="1.215" y="-.241" height="1.483"><feGaussianBlur stdDeviation="1.332"/></filter><filter id="J" x="-.107" width="1.215" y="-.241" height="1.483"><feGaussianBlur stdDeviation="1.332"/></filter><filter id="K" x="-.094" width="1.188" y="-.192" height="1.385"><feGaussianBlur stdDeviation="1.063"/></filter><filter id="L" x="-.375" width="1.75" y="-.088" height="1.175"><feGaussianBlur stdDeviation=".744"/></filter><filter id="h"><feGaussianBlur stdDeviation="1.969"/></filter><filter id="M" x="-.1" width="1.199" y="-.154" height="1.308"><feGaussianBlur stdDeviation=".649"/></filter><radialGradient xlink:href="#b" id="m" gradientUnits="userSpaceOnUse" gradientTransform="matrix(.04504 1.29035 -1.61584 .0564 248.318 -38.924)" cx="101.733" cy="91.377" fx="101.733" fy="91.377" r="15.823"/><radialGradient xlink:href="#b" id="D" gradientUnits="userSpaceOnUse" gradientTransform="matrix(.26017 1.34216 -1.93597 .37528 291.831 -133.463)" cx="145.375" cy="95.187" fx="145.375" fy="95.187" r="15.823"/></defs><metadata/><path d="M147.875 26.312c-5.608-.056-11.643.598-17.75 2-14.022 2.954-26.642 9.625-37.125 19.97C85.647 60.866 79.264 66.327 78.437 91.5c2.854-1.696 5.193-1.248 7.188.187-.01.476-.033.947-.031 1.438-2.48-.844-4.343-.166-6.157 1.594-3.37 5.14-1.72 11.771 1.313 16.656 1.654 2.322 4.072 4.039 7.031 4.437.265 1.552.55 3.147.875 4.782-11.434 29.07 12.635 45.649 25.156 56.218-.29 5.703-1.377 11.89-3 16.938-.11-.06-.232-.096-.343-.156L106.187 190c-3.88 2.751-6.631.985-11.718 8.562.674.703 2.152 2.098 2.875 2.75-9.798.892-19.383 2.877-26.72 9.625-5.645 6.312-7.313 12.433-8.218 18.563-.967 6.367-1.461 12.334-3.625 19 23.789 7.754 49.324 5.838 73.969 5.906 3.755-.16 7.512-.173 11.25-.094 4.344.25 8.771.452 13.219.563 21.695 1.186 43.349 2.926 65.843-6.813-1.862-14.71-6.385-28.684-12.344-42.187-6.88-6.603-16.268-7.91-25.093-10.125l1.406-3.344c-2.558-4.517-5.967-7.328-11.219-7.875-1.738.63-3.398 1.877-5 2.875-1.958-3.909-3.484-8.119-3.156-13 .07-.612.153-1.213.219-1.812.11-.693.247-1.404.437-2.125 6.053-6.109 11.316-13.1 16.125-20.313 5.808-10.034 6.16-18.456 1.75-27.844.231-2.34.364-4.557.5-6.75 2.794-.765 5-2.7 6.469-5.156 1.605-2.683 3.185-6.029 3.25-9 .201-5.998-3.975-9.762-9.938-7.844a100.3 100.3 0 00-.343-2.968c.092-.026.184-.072.281-.094l5.906 3.062c-4.277-8.903-1.792-20.155-1.562-29.656-.069-12.188-7.742-20.36-19.313-22.531 1.405.14 3.054.426 5.063.937l.281-2.343c-2.431-9.953-12.64-12.64-22.469-13.25a62.448 62.448 0 00-6.437-.407zm22.031 14.97c.368.005.803.058 1.219.093-3.022.438-5.312 1.247-6.969 2.375.96-1.42 2.411-2.518 5.75-2.469zM61.156 247.718c.103.034.21.06.313.093l-.313-.062c.002-.01-.002-.022 0-.031z" fill-rule="evenodd" filter="url(#h)"/><path d="M113.625 170.787c-.423 8.694-.15 17.42-4.25 25.5-20.494 29.084-47.233 53.945 22.5 53.25 84.125 8.264 66.416-16.272 38.25-60.5-6.514-6.107-2.788-15.262-3-22-16.75-5.598-36.75-2.643-53.5 3.75z" fill="url(#i)" fill-rule="evenodd"/><path d="M114.728 179.414l19.092 11.314-1.591 6.894c-16.905-12.255-13.348-13.229-17.5-18.208z" fill="#fff" fill-opacity=".344" fill-rule="evenodd" filter="url(#j)"/><path d="M132.76 187.369c.941 3.755 3.016 6.862.883 12.374 14.045-2.598 16.941-17.701 31.643-21.92l.884-7.601-33.41 17.147z" fill-opacity=".254" fill-rule="evenodd" filter="url(#k)"/><path d="M131.719 40.969c-22.753.192-47.01 10.783-46.188 52.5-11.774-5.343-9.94 19.975 2.094 20.5.318 1.857.668 3.77 1.063 5.719-13.57 33.896 21.814 49.9 30.343 60.75 9.233 13.174 23.856 10.331 31.5 1.718 30.063-23.43 42.514-42.317 33.625-60.719.262-2.614.447-5.14.594-7.593 11.352-2.04 12.44-26.933-.094-19.781-3.56-43.745-30.154-53.286-52.937-53.094z" fill="url(#l)" fill-rule="evenodd"/><path d="M97.686 98.136c9.066-12.41 19.74-5.542 31.646-4.109-6.702 27.126-29.365 24.456-31.646 4.109z" fill="url(#m)" fill-rule="evenodd"/><path d="M110.469 90.85c-1.734.045-3.411.339-5.063.969-1.512 1.48-2.5 3.583-2.5 6.187 0 5.39 2.156 11.225 8.875 11.156 5.836-.059 8.75-5.767 8.75-11.156 0-2.694-1.211-4.858-2.969-6.344-.01-.009-.02-.022-.03-.03-2.42-.496-4.779-.842-7.063-.782z" fill="url(#n)" fill-rule="evenodd"/><path d="M127.979 88.02c-9.331-4.932-17.399-8.559-28-6.5-2.356 4.423-1.982 5.637.25 8.75 6.545-7.275 18.012-1.72 27.04.598.912.234.566-.795.71-2.848z" fill="url(#o)" fill-rule="evenodd"/><path d="M89.125 102.287c-10.513-11.963-9.375 6.82.25 5.75" fill="none"/><path d="M115.009 100.23a3.5 3.619 0 11-7 0 3.5 3.619 0 117 0z"/><path d="M111.452 97.325a2.793 2.991 0 11-5.586 0 2.793 2.991 0 115.586 0z" fill="#fff"/><path d="M141.466 88.02c9.33-4.932 17.398-8.559 28-6.5 2.355 4.423 1.981 5.637-.25 8.75-6.546-7.275-18.013-1.72-27.042.598-.91.234-.565-.795-.708-2.848z" fill="url(#p)" fill-rule="evenodd"/><path d="M182.127 102.287c10.514-11.963 9.375 6.82-.25 5.75" fill="none"/><path d="M107.433 155.556c18.215-5.705 37.789-6.016 57.942-.338-6.843-9.942-53.74-9.691-57.942.338z" fill="url(#q)" fill-rule="evenodd"/><path d="M109.375 196.287c-6.798 7.4-28.506 2.315-39 14.25-10.855 12.136-7.17 24.002-10.75 36 21.19 7.132 47.526 5.543 71.75 6 28.333 2.172 60.667 3.164 89-6.5-2.438-15.891-6.276-28.552-12-40.5-12.5-10.833-26-5.883-38.25-16.5-23.83 19.56-48.825 14.522-60.75 7.25z" fill="url(#r)" fill-rule="evenodd"/><path d="M104.121 199.567l-10.606 5.303c29.975 21.598 61.543 15.818 93.868-3.005l-7.424-9.016c-30.41 17.143-55.324 18.323-75.838 6.718z" fill-opacity=".536" fill-rule="evenodd" filter="url(#s)"/><path d="M104.963 190.035c37.153 22.13 49.16 5.575 69.814-5.493 6.328.196 8.567 4.692 10.443 7.432-35.41 30.11-68.56 26.442-90.406 5.51 2.902-3.637 6.586-7.115 10.15-7.449z" fill="url(#t)" fill-rule="evenodd"/><path d="M140.656 228.787c-11.444.062-24.766 2.394-26.719 4.625-7.424 8.486 1.407 19.125 1.407 19.125l7.406.407c-.909-1.055-2.176-4.227-2.094-4.844.408-3.043 2.295-7.246 5.125-7.246s4.396 3.747 5.832 6.185c.455.771-1.435 4.994-2.957 5.936l15.656.187c-1.883-.948-2.671-4.23-2.433-4.717 1.494-3.052 4.723-6.278 7.6-6.185 2.828.091 4.771 4.416 4.771 7.246 0 .6-1.092 3.434-1.281 3.969l7.875.344s-.183-18.728-4.469-22.157c-2.652-2.121-8.852-2.912-15.719-2.875z" fill-opacity=".705" fill-rule="evenodd" filter="url(#u)"/><path d="M139.656 228.537c-11.444.062-24.766 2.394-26.719 4.625-7.424 8.486 1.407 19.125 1.407 19.125l7.406.407c-.909-1.055-2.176-4.227-2.094-4.844.408-3.043 2.295-7.246 5.125-7.246s4.396 3.747 5.832 6.185c.455.771-1.435 4.994-2.957 5.936l15.656.187c-1.883-.948-2.671-4.23-2.433-4.717 1.494-3.052 4.723-6.278 7.6-6.185 2.828.091 4.771 4.416 4.771 7.246 0 .6-1.092 3.434-1.281 3.969l7.875.344s-.183-18.728-4.469-22.157c-2.652-2.121-8.852-2.912-15.719-2.875z" fill="url(#v)" fill-rule="evenodd"/><path d="M110.413 242.257c-10.717 2.899-13.533-11.867-3.182-12.02-5.04-15.088 8.884-11.463 8.839-1.061-8.693 2.413-9.559 10.223-5.657 13.081z" fill-opacity=".705" fill-rule="evenodd" filter="url(#w)"/><path d="M109.413 242.007c-10.717 2.899-13.533-11.867-3.182-12.02-5.04-15.088 8.884-11.463 8.839-1.061-8.693 2.413-9.559 10.223-5.657 13.081z" fill="url(#x)" fill-rule="evenodd"/><path d="M160.23 240.843c10.717 2.899 13.533-11.868 3.183-12.02 5.04-15.088-10.652-12.524-12.021-1.061 6.998-.782 12.74 6.687 8.839 13.081z" fill-opacity=".705" fill-rule="evenodd" filter="url(#y)"/><path d="M159.23 240.593c10.717 2.899 13.533-11.868 3.183-12.02 5.04-15.088-10.652-12.524-12.021-1.061 6.998-.782 12.74 6.687 8.839 13.081z" fill="url(#z)" fill-rule="evenodd"/><path d="M143.125 56.75l18.25-13c5.7 18.836 15.451 36.322 14.875 57.25-2.457-22.554-13.1-46.849-33.125-44.25z" fill-opacity=".321" fill-rule="evenodd" filter="url(#A)"/><path d="M170.409 41.34c-27.667 4.892 7.16 26.56 6.716 60.947 2.772-11.847 5.941-14.313 12.5-12.25-6.75-14.75 10.83-41.304-19.216-48.698z" fill="url(#B)" fill-rule="evenodd"/><path d="M159.14 47.437c-.681-5.057 8.062-11.007 15.646-8.342-3.191-24.806-97.016-20.512-96.377 49.775 7.673-3.903 9.074 5.864 13.734 9.798-7.387-15.405 2.816-21.998 5.732-30.13 18.175-20.892 57.855-1.384 61.265-21.101z" fill="url(#C)" fill-rule="evenodd"/><path d="M171.207 99.01c-9.066-12.41-19.741-5.541-31.646-4.108 6.702 27.126 29.364 24.456 31.646 4.109z" fill="url(#D)" fill-rule="evenodd"/><path d="M158.424 91.725c1.734.045 3.41.339 5.063.969 1.511 1.48 2.5 3.583 2.5 6.187 0 5.39-2.156 11.225-8.875 11.156-5.836-.059-8.75-5.767-8.75-11.156 0-2.694 1.211-4.858 2.968-6.344.011-.009.02-.022.032-.03 2.42-.496 4.777-.842 7.062-.782z" fill="url(#E)" fill-rule="evenodd"/><path d="M153.884 100.854a3.5 3.619 0 107 0 3.5 3.619 0 10-7 0z"/><path d="M151.566 97.45a2.793 2.991 0 105.586 0 2.793 2.991 0 10-5.586 0z" fill="#fff"/><path d="M170.25 40.344c-13.28 1.863-12.328 11.107-7.594 20.843 5.23 10.399 13.687 24.24 13.469 41.094 5.729-1.662 3.182-11.415 9.281-12.793l5.91 3.087c-4.278-8.904-1.795-20.168-1.566-29.669-.069-12.254-7.824-20.446-19.5-22.562zm.094 1.419c11.1 2.495 16.78 10.124 17.406 21.175.185 8.525-1.098 19.007 1.415 26.637-1.006-.2-3.064-1.26-3.977-1.169-5.954.967-6.495 7.61-7.956 12.411-.222-15.967-8.216-31.4-12.794-40.504-6.156-10.336-5.813-17.22 5.906-18.55z" fill-rule="evenodd"/><path d="M147.25 25.563a203.7 203.7 0 00-4.594.062c-19.48.807-36.895 8.077-50.656 21.656C84.647 59.867 78.264 65.328 77.437 90.5c2.854-1.696 5.194-1.248 7.188.188-.009.475-.033.946-.031 1.437-2.48-.844-4.343-.166-6.156 1.594-3.371 5.14-1.721 11.771 1.312 16.656 1.654 2.322 4.073 4.039 7.031 4.438.265 1.55.55 3.146.875 4.78-11.433 29.07 12.636 45.65 25.156 56.22-.291 5.737-1.392 11.966-3.03 17.03L105.187 189c-3.881 2.751-6.632.985-11.72 8.563.675.702 2.154 2.097 2.876 2.75-9.797.89-19.382 2.876-26.719 9.625-5.646 6.311-7.314 12.432-8.219 18.562-.966 6.367-1.46 12.334-3.625 19 23.789 7.754 49.324 5.838 73.969 5.906 30.043-1.275 59.383 7.047 90.313-6.344-1.863-14.71-6.385-28.684-12.344-42.187-6.88-6.603-16.269-7.91-25.094-10.125l1.406-3.344c-2.558-4.517-5.967-7.328-11.219-7.875-1.738.63-3.398 1.877-5 2.875-2.466-4.924-4.245-10.312-2.5-16.937 6.053-6.109 11.317-13.1 16.125-20.313 5.808-10.034 6.16-18.456 1.75-27.844.232-2.34.364-4.557.5-6.75 2.794-.765 5-2.7 6.47-5.156 1.605-2.683 3.184-6.029 3.25-9 .2-5.998-3.976-9.762-9.938-7.844a98.541 98.541 0 00-.406-3.5l-1.875.876c.43 2.416.634 4.833-.907 7.25 3.722-5.043 9.37-4.776 10.375 3.28-.057 2.619-.071 5.946-1.469 8.282-2.534 2.336-4.953 5.364-8.125 3.875 1.832 2.91 2.112 6.77-1.406 9.344 8.743 3.446 3.547 18.032-.562 27.437-5.646 9.755-15.081 22.042-30.938 30.844-1.483 7.09-9.447 8.013-15.062 8.969-5.45.133-16.296-5.113-14.625-10.344-4.634-.758-34.095-22.978-33.969-45.5.024-4.24.025-8.572 3.625-13.063-2.946-5.552-.683-6.523.375-8.687l-2.813 1.344c-2.668-.107-4.755-1.564-6.312-3.75-2.591-4.091-4.818-8.633-2.125-13.031 1.523-1.63 3.978-2.482 5.906-1.813l4.063 2.781c-1.13-1.865-2.266-2.623-2.656-4.687 1.894 2.105 3.463 4.878 4.937 6.969l1.531-1.188c-3.592-7.49-2.879-12.567-.969-16.969 6.989-18.57 21.32-22.966 40.72-23.625 10.034-.088 23.544 1.474 26.905-10 4.38-2.683 1-10.114 15.813-6.343l.281-2.344c-2.941-12.042-17.272-13.443-28.531-13.407zm-4.469.843c10.794-.217 26.47.59 31.656 12.094-6.432-.92-15.431.696-16.093 8.063-4.269 10.138-15.703 9.888-25.156 10.03-23.148-1.395-34.042 5.896-42.97 23.876-1.512 3.485-2.25 7.624-1.093 12.656-2.168-4.032-5.721-6.861-10.281-4.563.152-16.655 5.663-29.414 14.031-38.874 13.015-14.406 30.845-21.909 49.906-23.282zm21 53.532a30.436 30.436 0 00-1.875.03c-7.4.399-13.884 3.446-20.906 7.157l-.563.313.032.656c.067.96.001 1.66.062 2.312.03.326.059.725.469 1.125s1.053.411 1.438.313c4.601-1.182 9.683-3.13 14.343-3.875 4.66-.745 8.694-.359 11.688 2.969l.844.937.718-1.031c1.137-1.585 1.934-2.85 2.031-4.406.098-1.557-.512-3.111-1.718-5.376l-.219-.437-.469-.094a31.993 31.993 0 00-5.875-.594zm-62.219.562c-.736.018-1.48.068-2.25.125.271 3.75-6.198 4.13.813 11.25 3.156-4.112 7.731-5.305 12.531-4.781 4.66.744 9.773 3.568 14.375 4.75 1.287-.664 3-.854 1.406-4.719-8.279-3.003-15.823-6.899-26.875-6.625zm2.032 1.188c8.228.103 16.003 3.2 23.344 6.937-.011.44.347 1.712.343 1.969-4.29-1.154-9.565-3.835-14.312-4.594-4.553-.728-9.037.713-12.5 3.813-1.546-2.183-1.293-5.569-.313-7.97a33.154 33.154 0 013.438-.156zm60.031.25c1.67.024 3.395.21 5.188.53.924 1.82 1.303 2.993 1.25 3.844-.045.715-.463 1.5-1.094 2.47-3.46-3.073-7.962-3.507-12.5-2.782-4.757.76-9.641 2.565-13.938 3.719-.003-.257-.02-.653-.031-1.094 6.735-3.539 12.705-6.299 19.469-6.656.542-.029 1.1-.04 1.656-.031zm-53.188 7.937c-4.834 1.29-10.845 1.555-13.75 8.375 1.182 10.533 7.819 16.82 15.188 16.625 3.836-1.488 15.478-3.188 18.563-21.594-6.762-.97-13.162-2.98-20-3.406zm45.938.906l-18.063 3.25c2.243 10.633 7.721 19.51 18.688 21.719 5.339-1.755 12.095 1.198 15.25-17-3.941-5.636-9.266-7.601-15.875-7.969zm-45.844 1.063c2.229.031 4.58.209 6.969.469 1.508 1.388 2.781 3.288 2.781 5.687-.065 5.32-2.902 10.062-8.5 10.656-6.148-.07-8.493-5.237-8.719-10.562 0-2.054.975-3.848 2-5.156 1.828-.738 3.672-1.056 5.47-1.094zm8.531.656c3.475.427 6.96.997 10.126 1.563-3.395 12.516-11.34 18.652-17.375 18.812-6.118.162-12.593-4.774-13.813-14.313 1.686-2.235 3.532-3.79 5.438-4.843A9.268 9.268 0 00102.406 98c-.054 6.242 2.787 11.907 9.281 12.438 6.352-.35 9.04-6.783 9.344-12.438a8.55 8.55 0 00-1.969-5.5zm38.5.156c2.093-.09 4.067.193 5.907.813 1.214 1.354 2.469 3.34 2.469 5.594.03 5.636-2.885 10.006-8.813 10.468-5.775-.301-8.319-5.664-8.594-10.75 0-2.349 1.326-4.119 2.781-5.5 1.848-.226 3.63-.43 5.188-.531.362-.037.707-.078 1.063-.094zm-7.843.813c-1.14 1.443-1.844 3.273-1.844 5.406.047 5.917 2.72 11.763 8.875 12.438 6.766-.104 9.507-6.51 9.75-12.438 0-1.78-.463-3.345-1.219-4.656 2.106 1.014 3.998 2.483 5.625 4.344-1.22 9.538-7.726 15.35-13.844 15.187-6.034-.16-14.073-6.296-17.468-18.813 3.267-.484 6.788-1.029 10.125-1.468zm37.781 4.094c-1.172.048-2.457.408-3.531.874l.5.876c2.353-1.363 3.912-1.117 3.969 1.656-.257 2.341-2.138 5.603-4.813 6.812l.438.938c3.115-1.408 6.574-5.293 6.875-8.031.158-2.442-1.484-3.207-3.438-3.126zm-104.375.218c-1.437.066-2.4 1.136-2.469 3.531.3 2.739 2.26 6.249 5.375 7.657l.438-.938c-2.675-1.209-3.556-3.22-3.813-5.562-.201-2.977.813-4 2.969-2.906l.5-.876c-1.095-.631-2.138-.945-3-.906zm55.594 12.75l-.5.25c1.54 6.114 2.854 12.378 2.062 19.188.47 1.296 2.657 1.987 3.906 3.094 2.874.466-2.01 4.158-2.718 1.78-2.22-1.536-4.371-1.138-6.719-.187l-.031.031-.031.032c-1.275.966-2.286 1.354-2.97 1.312-1.243-.076-1.386-1.599.063-3.812 1.386-.83 3.696-1.104 4.031-2.563-2.446-6.972-1.93-12.029-.53-18.906l-.5-.125c-1.021 6.159-4.302 9.53-.063 18.75-1.455.306-3.058.902-3.906 1.875-3.622 2.641-2.36 5.567-.313 6.313 1.29.47 3.175.18 5.281-1.188 1.636-2.045 2.991-2.326 4.375 0 2.293 1.726 4.502 1.5 6.125-.813.457-1.057.358-2.379-.406-3.562-.677-1.049-1.938-1.96-3.656-2.688-.379-6.423-.89-12.837-3.5-18.78zm-3.281 33.156l-.938 3.875a40.94 40.94 0 00-6.094-.28c-3.974.11-7.738.75-10.969 1.562-3.91 2.113-8.673 2.188-10.218 6.312-.601-.468-1.424-.85-2.313-1.187l-.812.562c1.83 1.282 3.649 2.567 2.875 4.5l.812-.562c.557-1.084.548-1.91.156-2.563 18.768-7.055 37.222-5.144 57.157.281l.5.125c-.562.954-.898 2.164-1.125 3.5l.812.625c.641-2.795 1.973-4.07 4.25-5.5l-.812-.625c-.905.08-1.622.378-2.188.844l-.344-.5c-2.01-2.922-6.388-4.719-11.875-5.969-5.36-1.22-11.48-1.662-18.125-1l-.75-4zm2.562 5.094c5.482-.058 10.66.471 15.875 1.844 2.694.71 9.35 3.246 11.25 4.438-18.714-5.86-41.539-5.22-57.063-.375 1.618-1.058 6.957-3.18 9.844-3.907 4.937-1.24 11.286-1.912 17.719-1.937a82.708 82.708 0 012.375-.063zm27.469 22.5c-1.508 5.883-.902 10.791 2.344 16.688-6.934 4.295-14.728 8.852-22 10.812-8.475 2.284-19.914 1.794-34.063-5.219 2.087-5.887 2.22-10.923 2.406-16.593 1.695 1.478 3.11 2.843 4.094 4.094-.852 7.4 11.093 9.553 17.156 9.406 6.022-.147 16.258-2.477 16.375-8.781 5.014-2.912 9.532-6.447 13.688-10.407zM135 177.97l-1 .062c-1.415 2.596-1.182 5.12.25 7.25l1-.062c1.362-2.417.715-4.834-.25-7.25zm40 7.625c4.268.137 6.668 2.917 8.844 6.187-17.316 14.513-33.974 20.87-48.938 21.094-14.893.34-27.546-6.21-38.625-15.5 2.65-3.14 5.82-5.856 8.531-6.25 14.496 11.307 30.82 13.654 41.25 10.844 10.412-2.806 18.847-10.924 28.938-16.375zm7.938 10.656c8.94 1.913 17.064 3.848 24.593 9.344 5.425 11.392 9.967 25.1 12.375 40.125-27.684 9.102-60.787 8.323-88.656 6.187-23.573 1.318-47.982-.617-71.094-5.156 1.461-5.74 2.8-12.561 3.594-17.938.861-5.836 1.79-11.832 7-17.656 7.15-7.016 17.446-7.37 26.813-8.906 10.58 8.749 23.853 11.757 37.25 12.5 14.3-.213 31.98-6.073 48.125-18.5z" fill-rule="evenodd"/><path d="M140.891 182.684a5.922 3.624 0 11-11.844 0 5.922 3.624 0 1111.844 0z" fill="#fff" fill-opacity=".665" filter="url(#F)"/><path d="M208 205.5c2.941 16.815 6.697 35.593-10.25 46.5l23-5.75c-1.931-14.694-7.56-27.36-12.75-40.75z" fill-opacity=".348" fill-rule="evenodd" filter="url(#G)"/><path d="M85.5 99c-1.103 2.672-.939 5.661.625 9-2.907-.363-9.292-9.927-.625-9z" fill-opacity=".313" fill-rule="evenodd" filter="url(#H)"/><path transform="matrix(-1 0 0 1 270.623 -.875)" d="M85.5 99c-1.103 2.672-1.064 6.411.5 9.75-2.907-.363-9.167-10.677-.5-9.75z" fill-opacity=".313" fill-rule="evenodd" filter="url(#H)"/><path d="M97.625 109.625c3.61 5.29 20.395 12.62 29.75-4.25-3.663 17.275-27.54 16.509-29.75 4.25z" fill-opacity=".536" fill-rule="evenodd" filter="url(#I)"/><path d="M171 109.75c-3.61 5.29-20.395 12.62-29.75-4.25 3.663 17.275 27.54 16.509 29.75 4.25z" fill-opacity=".536" fill-rule="evenodd" filter="url(#J)"/><path d="M141.625 115.125c.861 4.417 2.028 8.833 1.625 13.25 7.292-5.103 16.983-4.208 25.5-6.25-10.808.397-23.277 3.36-27.125-7z" fill-opacity=".317" fill-rule="evenodd" filter="url(#K)"/><path d="M137.75 112.75c1.694 6.303 2.179 12.405 1.875 18.375.25 1.734-5.625 3.529-3-.25-2.036-6.99-2.322-13.113-.268-17.773.24-.542 1.12.175 1.393-.352z" fill="#fff" fill-opacity=".759" fill-rule="evenodd" filter="url(#L)"/><path d="M128.375 117.375c-1.67 3-.566 6.461 1.75 10.125-5.208-3.78-10.417-4.061-15.625-5.375 4.915-1.294 10.783-1.634 13.875-4.75z" fill="#fff" fill-opacity=".473" fill-rule="evenodd" filter="url(#M)"/><path d="M105.75 40.25c2.35-2.219 4.985-3.864 8-4.75 2.72 8.272 8.84 13.307 14 19.75-3.528-.204-5.15.061-6.75.5-5.158-5.646-8.909-12.811-15.25-15.5z" fill="#fff" fill-opacity=".763" fill-rule="evenodd" filter="url(#N)"/><path d="M175 82.75c3.958-1.591 7.917-4.641 11.875-7.875l.375 6.375c-5.754-3.236-9.52.86-10.75 7.625L175 82.75z" fill="#fff" fill-opacity=".714" fill-rule="evenodd" filter="url(#O)"/></svg>