<?xml version="1.0" encoding="UTF-8"?>
<svg width="280" height="280" version="1.0" xmlns="http://www.w3.org/2000/svg" xmlns:xlink="http://www.w3.org/1999/xlink">
 <defs>
  <linearGradient id="h">
   <stop stop-color="#ffffca" offset="0"/>
   <stop stop-color="#fff" offset="1"/>
  </linearGradient>
  <linearGradient id="d">
   <stop stop-color="#fff" offset="0"/>
   <stop stop-color="#b8b8b8" offset="1"/>
  </linearGradient>
  <linearGradient id="c">
   <stop stop-color="#a40" offset="0"/>
   <stop stop-color="#532100" offset="1"/>
  </linearGradient>
  <linearGradient id="g">
   <stop stop-color="#eebd9f" offset="0"/>
   <stop stop-color="#f3d1bc" offset="1"/>
  </linearGradient>
  <linearGradient id="b">
   <stop stop-color="#1a1a1a" offset="0"/>
   <stop offset="1"/>
  </linearGradient>
  <linearGradient id="A" x1="196.54" x2="203.22" y1="121.93" y2="121.93" gradientUnits="userSpaceOnUse" xlink:href="#a"/>
  <linearGradient id="z" x1="161.71" x2="178.28" y1="83.06" y2="89.56" gradientUnits="userSpaceOnUse" xlink:href="#b"/>
  <linearGradient id="y" x1="140.71" x2="143.48" y1="22.79" y2="45.948" gradientUnits="userSpaceOnUse" xlink:href="#a"/>
  <linearGradient id="x" x1="162.56" x2="171" y1="103.56" y2="117.69" gradientUnits="userSpaceOnUse" xlink:href="#c"/>
  <linearGradient id="v" x1="58.059" x2="99.169" y1="154.45" y2="157.64" gradientUnits="userSpaceOnUse" xlink:href="#b"/>
  <linearGradient id="u" x1="156.8" x2="194.98" y1="42.059" y2="88.197" gradientUnits="userSpaceOnUse" xlink:href="#b"/>
  <linearGradient id="t" x1="115.08" x2="125.86" y1="47.362" y2="68.486" gradientUnits="userSpaceOnUse" xlink:href="#b"/>
  <linearGradient id="s" x1="164.05" x2="151.14" y1="256.14" y2="203.81" gradientUnits="userSpaceOnUse">
   <stop stop-color="#afb9c7" offset="0"/>
   <stop stop-color="#dde1e7" offset="1"/>
  </linearGradient>
  <linearGradient id="q" x1="148.85" x2="148.85" y1="155.12" y2="160.42" gradientUnits="userSpaceOnUse">
   <stop stop-color="red" offset="0"/>
   <stop stop-color="#810000" offset="1"/>
  </linearGradient>
  <linearGradient id="p" x1="116.97" x2="133.98" y1="83.711" y2="88.899" gradientUnits="userSpaceOnUse" xlink:href="#b"/>
  <linearGradient id="o" x1="114.69" x2="128.75" y1="103.05" y2="113.99" gradientUnits="userSpaceOnUse" xlink:href="#c"/>
  <linearGradient id="m" x1="136.3" x2="162.99" y1="74.232" y2="177.82" gradientUnits="userSpaceOnUse" xlink:href="#g"/>
  <linearGradient id="l" x1="146.55" x2="156.98" y1="195.32" y2="234.92" gradientUnits="userSpaceOnUse" xlink:href="#g"/>
  <linearGradient id="j" x1="212.49" x2="222.04" y1="177.82" y2="199.74" gradientUnits="userSpaceOnUse" xlink:href="#h"/>
  <linearGradient id="k" x1="63.892" x2="95.734" y1="179.07" y2="199.93" gradientUnits="userSpaceOnUse" xlink:href="#h"/>
  <linearGradient id="a">
   <stop stop-color="#ffc200" offset="0"/>
   <stop stop-color="#ff0" offset=".5"/>
   <stop stop-color="#ffd300" offset="1"/>
  </linearGradient>
  <filter id="E">
   <feGaussianBlur stdDeviation=".787"/>
  </filter>
  <filter id="r" x="-.183" y="-.031" width="1.367" height="1.061">
   <feGaussianBlur stdDeviation=".656"/>
  </filter>
  <filter id="F" x="-.271" y="-.092" width="1.541" height="1.183">
   <feGaussianBlur stdDeviation="1.315"/>
  </filter>
  <filter id="M" x="-.203" y="-.158" width="1.406" height="1.316">
   <feGaussianBlur stdDeviation="1.209"/>
  </filter>
  <filter id="N" x="-.053" y="-.171" width="1.106" height="1.343">
   <feGaussianBlur stdDeviation=".336"/>
  </filter>
  <filter id="B" x="-.141" y="-.091" width="1.283" height="1.182">
   <feGaussianBlur stdDeviation="1.665"/>
  </filter>
  <filter id="P" y="-.094" height="1.188">
   <feGaussianBlur stdDeviation=".325"/>
  </filter>
  <filter id="Q" x="-.12" y="-.276" width="1.239" height="1.552">
   <feGaussianBlur stdDeviation="1.094"/>
  </filter>
  <filter id="R" x="-.226" y="-.205" width="1.453" height="1.41">
   <feGaussianBlur stdDeviation="1.306"/>
  </filter>
  <filter id="S" x="-.256" y="-.118" width="1.512" height="1.236">
   <feGaussianBlur stdDeviation=".774"/>
  </filter>
  <filter id="G" x="-.072" y="-.118" width="1.144" height="1.236">
   <feGaussianBlur stdDeviation="1.135"/>
  </filter>
  <filter id="C" x="-.138" y="-.116" width="1.276" height="1.233">
   <feGaussianBlur stdDeviation="1.454"/>
  </filter>
  <filter id="D">
   <feGaussianBlur stdDeviation=".856"/>
  </filter>
  <filter id="H" x="-.128" y="-.147" width="1.256" height="1.294">
   <feGaussianBlur stdDeviation=".774"/>
  </filter>
  <filter id="I" x="-.138" y="-.158" width="1.276" height="1.316">
   <feGaussianBlur stdDeviation="1.573"/>
  </filter>
  <filter id="J" x="-.372" y="-.137" width="1.744" height="1.274">
   <feGaussianBlur stdDeviation=".969"/>
  </filter>
  <filter id="K" x="-.165" y="-.222" width="1.331" height="1.443">
   <feGaussianBlur stdDeviation="2.01"/>
  </filter>
  <filter id="L" x="-.146" y="-.16" width="1.293" height="1.319">
   <feGaussianBlur stdDeviation="1.692"/>
  </filter>
  <filter id="i">
   <feGaussianBlur stdDeviation="2.222"/>
  </filter>
  <filter id="O" x="-.067" y="-.213" width="1.134" height="1.427">
   <feGaussianBlur stdDeviation=".344"/>
  </filter>
  <radialGradient id="n" cx="114.98" cy="94.327" r="15.558" gradientTransform="matrix(.01054 1.2668 -1.0752 .00895 215.96 -46.819)" gradientUnits="userSpaceOnUse" xlink:href="#d"/>
  <radialGradient id="w" cx="160.25" cy="97.215" r="15.558" gradientTransform="matrix(.29083 1.051 -.96936 .26824 207.88 -95.626)" gradientUnits="userSpaceOnUse" xlink:href="#d"/>
 </defs>
 <path d="M145.031 21.813c-17.48 1.48-50.74 3.315-57.687 24.156-.02.053-.044.103-.063.156-.115.354-.212.729-.312 1.094-.074.268-.158.536-.219.812-.106.448-.198.91-.281 1.375.009.045.022.081.031.125-.12 1.139.186 2.36.813 3.594 1.237 4.553 3.111 7.585 8.03 10.188-5.326 10.76-9.82 23.296-6.5 34.875 1.332-.41 2.69-.859 4.095-.938v.313c-5.998.715-7.984 7.48-8.313 12.625.086 7.536 3.667 11.473 10.969 12.312.144.765 2.748 1.522 2.906 2.313a67.178 67.178 0 00-1.25 9.656c-8.3.073-16.036 6.566-21.531 12.031-4.145 4.589-8.097 7.717-11.906 9.563-.293.135-.577.278-.875.406-.042.018-.084.044-.125.062-.295.125-.606.226-.907.344-3.135 1.183-6.16 1.498-9.125 1 2.29 3.685 5.21 6.926 8.907 8.031-5.434 5.178-8.622 12.076-12.938 17.094.732-.162 1.43-.367 2.125-.594-3.029 3.193-3.829 7.05.531 11.157 2.746 1.519 5.902 1.7 8.97 1.75-1.8.893-3.567 2.432-3.438 4.343 3.446 3.767 10.206 2.99 14.78 2.032-.625 1.627-1.402 3.35-1.03 4.812 4.037 2.349 8.967 1.748 13.25.469 2.429-1.084 4.595-2.702 7.093-4.094.38 1.439.964 2.75 1.875 4.125-10.376 3.804-22.113 8.883-25.437 46.25 23.81 7.916 49.175 5.847 73.906 5.844 30.556-2.084 49.284 7.134 90.594-6.969-4.032-14.462-5.261-27.663-12.813-42.125-2.25-1.362-4.37-2.533-6.437-3.656a26.882 26.882 0 00-3.5-1.969c1.376-2.099.36-5.218.875-7.156 6.342 4.282 12.267 6.965 19.906 4.375 1.6-1.093 1.731-1.99 1.344-2.813.05-.796-.987-1.346-1.594-2.125-.008-.012-.023-.019-.031-.031a2.54 2.54 0 01-.313-.594c.585.13 1.188.25 1.813.344.02.003.041-.003.062 0 .605.09 1.218.173 1.844.219.675.05 1.368.065 2.063.062 3.637-.016 7.402-.844 9.687-3.187.466-1.962-2.617-2.88-4.156-3.813 6.38.288 11.156-2.277 13.781-8.156-4.897-10.75-18.589-14.055-30.812-14.25-11.831 1.091-17.329 5.487-24.47 14.281-2.795 4.375-4.034 8.968-7.218 13.469a177.862 177.862 0 01-9.5-6.281c-.991 1.236-1.865 2.751-2.781 4.344-3.347-3.991-3.499-10.116-2.906-16.844 5.538-6.02 10.264-12.558 14-18.438 5.192-9.653 5.59-19.713 4.218-31.5.037-.717.247-1.352.469-1.968.182.385.362.764.563 1.125.115.207.252.395.375.593.084.137.162.275.25.407.197.296.41.574.625.843.064.081.12.172.187.25.118.14.251.275.375.407.101.107.207.21.313.312.095.092.182.194.28.281.023.02.041.044.063.063.108.092.232.163.344.25.126.097.244.192.375.281.055.037.1.09.156.125.092.059.187.101.282.156.134.079.266.15.406.219.295.148.617.268.937.375.213.071.432.136.657.188.022.005.04.026.062.03a7.414 7.414 0 00.75.125c.283.035.574.06.875.063a9.27 9.27 0 00.781-.031c1.509-.496 2.563-2.005 2.719-4.219a18.221 18.221 0 00-.125-1.312 20.567 20.567 0 00-.187-1.125l-.032-.156a22.987 22.987 0 00-.218-1.032c-.018-.073-.044-.145-.063-.218-.081-.324-.157-.649-.25-.97-.028-.094-.065-.186-.094-.28-.44-1.465-.987-2.897-1.562-4.313 1.522-2.344 2.355-5.266 2.562-7.937-.078-6.768-3.55-12.703-10.875-11.594a2.84 2.84 0 00-.187-.625c1.634-.349 3.572-.314 6 .375 1.182-9.999-1.56-19.274-5.875-28.125-.918-2.072-1.967-4.124-3.094-6.156 5.366-3.43 9.156-8.133 10.344-14.157 0-5.49-3.5-8.309-7.188-11.843-14.645-12.746-32.41-14.28-51-14.875zm-.343 11.125c14.448.847 33.366 2.139 45.062 12.125 2.982 2.594.174 6.178-2.219 8.593-7.57-9.4-18.059-16.824-30.625-16.75-4.343.875-8.687-.614-13.03 2.625 1.023 2.89 1.447 6.576 1.124 10.063l-.406-.094c.527-3.106-.257-5.903-1.188-8.781-8.435-4.45-18.007-4.523-26.687-.906-6.51 3.021-11.961 8.28-16.313 14.5-1.07-.995-4.156-3.767-4.156-4.75.492-1.825 1.49-3.458 2.875-4.907 2.027-1.942 5.395-4.033 9.781-5.812a60.604 60.604 0 014.375-1.563c10.841-3.18 24.074-4.097 31.407-4.343zM92.125 59.156c.93.936 1.755 1.716 2.594 2.5-.845-.576-1.73-1.455-2.594-2.5zM201 120.063c.223.488.436.97.625 1.468.008.022.023.041.031.063.18.477.32.983.469 1.469.132.441.267.863.375 1.312.018.074.045.145.063.219.119.514.222 1.039.312 1.562-.36.157-.7.218-1 .219a1.814 1.814 0 01-.812-.187c-.013-.007-.019-.025-.032-.032-.105-.057-.216-.111-.312-.187-.017-.014-.046-.018-.063-.031-.09-.077-.166-.19-.25-.282-.02-.022-.043-.04-.062-.062a3.422 3.422 0 01-.125-.156c-.04-.055-.087-.1-.125-.157-.085-.124-.143-.268-.219-.406-.017-.031-.046-.062-.062-.094a7.884 7.884 0 01-.375-.843c-.126-.33-.214-.66-.313-1-.205-.694-.363-1.35-.5-1.907a8.33 8.33 0 002.375-.968zm-100.812 35.156c5.013 13.607 15.108 22.226 22.28 28.094.792 5.008-.437 9.228-1.687 13.53-1.52-.708-3.116-1.3-4.875-1.655-1.904 2.263-4.305 3.957-6.906 5.343-3.167-4.473-5.355-9.26-8.125-13.593-5.485-8.893-12.044-11.836-21.375-13 .922-.421 1.804-.85 2.844-1.313 8.321-4.702 13.538-7.73 17.844-17.406zm2.53 4.219c1.838 3.395 3.983 6.444 6.282 9.187-2.675-2.985-4.74-5.957-6.281-9.187zm130.126 9.593c2.202.163 4.332.548 6.344 1.157-2.03-.536-4.146-.901-6.344-1.157zM69.875 170.25a34.376 34.376 0 00-1.812 3.969c-1.646.282-3.584.772-5.594 1.469 2.468-1.884 4.873-3.826 7.406-5.438zm8.563 5.594c1.17.078 2.31.184 3.406.344l-3.406-.344zM250.5 186c-.789.778-1.776 1.3-2.875 1.688a11.894 11.894 0 001.625-.938c.432-.221.852-.45 1.25-.75zm-67.969 6.719a33.576 33.576 0 01-1.625 2.187c-.011-.009-.02-.022-.031-.031a53.108 53.108 0 001.656-2.156zm-109.468 8.656a22.975 22.975 0 00-.657 1.906c.123-.592.238-1.186.344-1.781.106-.038.207-.085.313-.125zm10.218 4.781a9.63 9.63 0 01-2.812.782c.91-.212 1.837-.491 2.812-.782z" fill-rule="evenodd" filter="url(#i)"/>
 <path d="M198.969 181.531c-2.842 4.447-3.822 8.865-7.125 13.438l15.152 8.227c1.713-2.09 1.557-4.94 2.098-6.977 6.342 4.282 12.016 5.973 19.655 3.384 3.48-2.377.239-2.86-.343-4.572 4.681 1.032 10.873 1.111 14.456-2.562.466-1.962-2.854-3.38-4.393-4.313 6.38.288 12.393-2.275 13.768-8.154-4.896-10.75-17.326-12.307-29.55-12.502-11.83 1.091-16.578 5.237-23.718 14.031z" fill="url(#j)" fill-rule="evenodd"/>
 <path d="M69.219 174c-8.356.833-28.545 8.204-17.813 18.313 2.746 1.518 6.401 1.7 9.469 1.75-1.8.893-3.814 2.68-3.686 4.592 3.446 3.767 10.455 2.242 15.03 1.282-.626 1.627-1.412 3.59-1.04 5.052 4.037 2.35 7.476 1.259 11.758-.02 2.43-1.084 4.596-1.702 7.094-3.094.537 2.037 2.225 2.797 3.938 4.887l13.08-5.966C100.98 191.838 102.552 186.426 89 176l-19.781-2z" fill="url(#k)" fill-rule="evenodd"/>
 <path d="m122.5 174.9c-0.423 8.694-0.15 17.42-4.25 25.5-6.798 7.4-26.506 1.815-37 13.75-10.855 12.136-7.17 24.001-10.75 36 21.19 7.131 46.026 3.043 70.25 3.5 28.333 2.171 57.667 4.164 86-5.5-2.438-15.891-6.276-28.552-12-40.5-12.5-10.833-23.5-3.884-35.75-14.5-6.514-6.107-2.788-15.263-3-22-16.75-5.598-36.75-2.643-53.5 3.75z" fill="url(#l)" fill-rule="evenodd"/>
 <path d="M140.719 49.188c-22.771.192-47.122 7.859-46.281 48.75-12.738-4.308-12.757 28.767 2.374 21.75.245 1.35.466 2.69.75 4.093-7.912 37.432 20.409 51.526 28.938 62.375 11 10.17 22.787 7.5 32.906.125 30.063-23.43 36.503-37.19 33.625-60.719.222-2.218.423-4.374.563-6.468 14.704 5.38 13.81-28.913-.125-21.5-3.808-42.086-30.116-48.597-52.75-48.406z" fill="url(#m)" fill-rule="evenodd"/>
 <path d="m106.56 102.25c9.067-12.41 24.338-10.138 31.117 1.725-7.94 23.591-28.835 18.623-31.116-1.725z" fill="url(#n)" fill-rule="evenodd"/>
 <path d="M121.063 99.558c-5.836.06-9.813 7.705-9.813 13.094 0 .774.202 1.589.531 2.375 5.31 5.94 13.503 6.515 19.813-.219.173-.47.281-.94.281-1.437 0-5.39-4.093-13.88-10.813-13.813z" fill="url(#o)" fill-rule="evenodd"/>
 <path d="M137.56 86.861c-9.33-4.93-18.105-3.285-28.706-1.227-.763 1.24-1.973 2.093-.28 4.508 7.606-5.507 18.896-4.371 27.924-2.053-2.27-.297.566-.588 1.063-1.228z" fill="url(#p)" fill-rule="evenodd"/>
 <path d="M127.42 114.862a4.826 4.945 0 11-9.652 0 4.826 4.945 0 119.651 0z"/>
 <path d="M123.509 106.831a4.03 4.494 0 11-8.06 0 4.03 4.494 0 118.06 0z" fill="#fff"/>
 <path d="M123 157.458c15.814 4.26 22.294 3.52 40.625.375-11.605-2.182-13.47-4.204-20.14-1.2-5.332-1.809-11.045-1.104-20.485.825z" fill="url(#q)" fill-rule="evenodd"/>
 <path d="m141.42 200.63 3.36-1.768c-4.48 27.008 2.945 34.177 4.419 51.266-3.402-13.028-11.078-0.034-7.779-49.498z" fill-opacity=".527" fill-rule="evenodd" filter="url(#r)"/>
 <path d="M115 196.152c-6.798 7.4-25.256 6.565-35.75 18.5-10.855 12.136-7.17 24.001-10.75 36 21.19 7.131 47.526 5.543 71.75 6 28.333 2.171 60.667 3.164 89-6.5-2.438-15.891-6.276-28.552-12-40.5-12.5-10.833-22.75-8.384-35-19-6.416 10.294-20.495 18.66-28.992 16.296.486 5.271 1.045 30.29-4.582 39.883-8.166-8.718-7.59-42.062-7.19-45.672-9.67 2.77-21.98-2.259-26.486-5.007z" fill="url(#s)" fill-rule="evenodd"/>
 <path d="M141.932 39.867c1.194 3.598.272 13.39-.972 15.466-12.07 20.135-39.11 14.04-41.372 45.039-4.42-5.416-6.913-6.036-11.281-3.388-5.903-14.088 13.797-75.031 53.625-57.117z" fill="url(#t)" fill-rule="evenodd"/>
 <path d="m143.73 38.763c1.556 1.848 1.84 12.283-0.321 15.302 8.887 24.024 41.405 14.424 44.02 45.07 5.402-5.358 9.272-5.614 13.04-3.88 3.271-16.662-17.63-70.796-56.74-56.492z" fill="url(#u)" fill-rule="evenodd"/>
 <path d="M97.04 134c-15.424.82-23.446 21.19-43.85 23.872l8.31 7.03-11.75 16.369 19.957-12.972c-3.291 5.312-3.52 8.562-3.207 12.603 6.715-9.636 24.32-8.53 32.67-27.783-2.353-6.498-2.41-11.582-2.13-19.119z" fill="url(#v)" fill-rule="evenodd"/>
 <path d="m181.52 102.25c-9.066-12.41-24.337-10.138-31.116 1.725 7.94 23.591 28.835 18.623 31.116-1.725z" fill="url(#w)" fill-rule="evenodd"/>
 <path d="M167.016 99.558c5.835.06 9.812 7.705 9.812 13.094 0 .774-.202 1.589-.531 2.375-5.31 5.94-13.503 6.515-19.813-.219-.173-.47-.281-.94-.281-1.437 0-5.39 4.093-13.88 10.813-13.813z" fill="url(#x)" fill-rule="evenodd"/>
 <path d="M160.659 114.862a4.826 4.945 0 109.651 0 4.826 4.945 0 10-9.651 0z"/>
 <path d="M160.257 106.831a4.03 4.494 0 108.06 0 4.03 4.494 0 10-8.06 0z" fill="#fff"/>
 <path d="m143.5 21.902c-15.177 0-28.93 2.432-39.344 6.656-5.206 2.112-8.973 5.299-12.312 8.5-3.34 3.202-5.719 6.71-6.344 11.344-0.62 4.593 6.384 10.505 9.724 13.706l3.91-7.295c-2.027-1.943-4.634-5.236-4.634-6.536s1.598-2.682 3.625-4.625 5.395-4.033 9.781-5.812c8.773-3.56 21.515-5.938 35.594-5.938 14.08 0 26.821 2.379 35.594 5.938 4.386 1.779 7.754 3.87 9.781 5.812 2.027 1.943 2.625 3.45 2.625 4.75s-2.884 3.813-4.91 5.755l5.479 7.098c3.34-3.202 9.431-8.219 9.431-12.853s-2.38-8.767-5.719-11.969c-3.34-3.201-7.73-5.763-12.937-7.875-10.414-4.224-24.167-6.656-39.344-6.656z" fill="url(#y)"/>
 <path d="M150.143 87.715c9.284-4.99 17.67-5.562 29.061-2.08.763 1.239 1.973 2.092.28 4.507-7.606-5.507-19.53-4.225-28.559-1.907-.38.057-.285.12-.782-.52z" fill="url(#z)" fill-rule="evenodd"/>
 <path d="M202.781 114.469l-.5.625-2.406 2.937-.219.25c1.103 2.186 1.806 4.483 2.219 6.875-2.96 1.287-3.772-3.176-4.313-5.312-.075-.733.037-1.358.5-1.906l.032-.032.031-.031c.275-.453.754-.87 1.031-1.438.46-1.01-.489-1.317-.937-1.874-4.982-.012-4.884 3.998-4.125 7.843 1.755 4.193 4.395 7.297 9.062 6.969 1.509-.496 2.563-2.005 2.719-4.219-.203-3.484-1.436-6.774-2.75-9.969l-.344-.718z" fill="url(#A)" fill-rule="evenodd"/>
 <path d="m141.07 201.51c-8.485 1.7-16.552-1.189-24.572-4.596 19.184 16.173 20.058 29.53 28.284 44.017-3.731-13.417-4.193-26.471-3.712-39.42z" fill="#fff" fill-opacity=".679" fill-rule="evenodd" filter="url(#B)"/>
 <path d="m200.25 200.75 16.5 7.75 8.75 22.25c-6.322-11.197-14.271-21.464-25.25-30z" fill="#fff" fill-opacity=".674" fill-rule="evenodd" filter="url(#C)"/>
 <path d="m73.75 223-5.5 28.25 23 4.5s-17.5-11.25-17.5-32.75z" fill="#fff" fill-opacity=".625" fill-rule="evenodd" filter="url(#D)"/>
 <path d="M144.031 20.813c-18.397 1.558-54.275 3.51-58.562 27.593 1.344 6.758 2.72 10.65 8.875 13.907-5.327 10.76-9.821 23.296-6.5 34.874 1.331-.409 2.688-.858 4.094-.937v.313c-5.998.715-7.984 7.48-8.313 12.624.086 7.537 3.667 11.474 10.969 12.313.144.765 2.748 1.522 2.906 2.313a67.178 67.178 0 00-1.25 9.656c-8.3.073-16.036 6.566-21.531 12.031-8.291 9.177-15.826 12.569-22.938 11.375 2.29 3.685 5.21 6.926 8.907 8.031-5.434 5.178-8.622 12.076-12.938 17.094.732-.162 1.43-.367 2.125-.594-3.029 3.193-3.829 7.05.531 11.156 2.746 1.52 5.901 1.701 8.969 1.75-1.8.894-3.566 2.433-3.438 4.344 3.446 3.767 10.207 2.99 14.782 2.031-.626 1.627-1.403 3.351-1.031 4.813 4.037 2.349 8.967 1.748 13.25.469 2.429-1.084 4.595-2.702 7.093-4.094.38 1.438.964 2.75 1.875 4.125-10.376 3.804-22.114 8.883-25.437 46.25 23.81 7.916 49.175 5.847 73.906 5.844 30.556-2.084 49.284 7.134 90.594-6.969-4.032-14.462-5.261-27.663-12.813-42.125-3.546-2.146-6.771-3.891-9.969-5.563 1.435-2.098.387-5.262.907-7.218 6.342 4.282 12.267 6.965 19.906 4.375 3.48-2.377-.012-3.85-.594-5.563 4.681 1.032 11.887 1.111 15.469-2.562.466-1.962-2.617-2.88-4.156-3.813 6.38.288 11.156-2.277 13.781-8.156-4.897-10.75-18.589-14.055-30.813-14.25-11.83 1.091-17.328 5.487-24.468 14.281-2.796 4.375-4.035 8.968-7.219 13.469a177.866 177.866 0 01-9.5-6.281c-.991 1.236-1.865 2.751-2.781 4.344-3.347-3.991-3.5-10.116-2.906-16.844 5.538-6.02 10.264-12.558 14-18.438 5.192-9.653 5.59-19.713 4.218-31.5.037-.717.247-1.352.469-1.969 1.752 3.722 4.334 6.367 8.656 6.063 1.509-.496 2.563-2.005 2.719-4.219-.191-3.281-1.306-6.387-2.531-9.406 1.522-2.344 2.355-5.266 2.562-7.938-.078-6.767-3.55-12.702-10.875-11.593a2.84 2.84 0 00-.187-.625c1.634-.349 3.572-.314 6 .375 1.454-12.306-3.052-23.513-9.094-34.188 5.436-3.435 9.272-8.176 10.469-14.25 0-5.49-3.5-8.309-7.188-11.843-14.645-12.746-32.41-14.28-51-14.876zm-2.312 1.28c17.22.612 38.879 2.201 52.531 14.032 2.992 2.868 6.531 7.971 6.531 11.75-.763 3.763-6.448 9.595-9.281 12.25-1.239-2.117-2.482-4.235-3.969-6.188 4.168-3.548 5.862-6.718 2.188-11.03-12.856-10.666-30.242-12.972-46.219-13.5-10.42.425-46.637 6.759-50.5 19-.393 1.32 2.257 4.1 5.469 6.343-1.422 2.03-2.474 4.295-3.594 6.5-.002.004-.03-.004-.031 0-3.412-1.155-8.17-9.185-8.969-12.656 5.286-22.492 39.466-26.06 55.844-26.5zm1.969 9.845c14.448.847 33.366 2.139 45.062 12.125 2.982 2.594.174 6.178-2.219 8.593-7.571-9.4-18.059-16.824-30.625-16.75-4.344.875-8.687-.614-13.031 2.625 1.024 2.89 1.448 6.576 1.125 10.063l-.406-.094c.527-3.106-.257-5.903-1.188-8.781-8.435-4.45-18.007-4.523-26.687-.907-6.51 3.022-11.961 8.28-16.313 14.5-1.07-.994-4.156-3.766-4.156-4.75 3.68-13.638 35.402-16.186 48.438-16.624zm13.78 5.156c13.16.032 21.854 9.616 29.47 19.25 7.446 11.284 14.064 23.927 12.562 37.718-4.15-1.616-8.027.237-11.375 2.938-.786-7.228-3.586-11.111-7.063-14.813-3.629-3.863-8.294-6.307-13.093-8.53-9.561-4.431-19.324-7.931-23.719-19.626 2.852-4.887.407-10.352.5-15.312 1.56-1.213 8.527-1.478 11.438-1.594.433-.02.856-.032 1.28-.031zM129 37.78c4.182-.056 8.348.803 12.5 2.469.88 4.008.043 7.863-.625 11.875-6.03 11.394-15.77 15.639-24.781 20.625-8.41 4.905-15.297 10.902-16.719 25.719-2.168-4.865-5.885-5.515-10.5-3.125-3.153-13.244 3.415-26.818 9.844-38.125 4.547-7.322 10.484-13.048 17.719-16.407 4.171-1.992 8.38-2.975 12.562-3.03zm14.125 12.532l.625.093c-.202 1.142-.453 2.26-.844 3.282 4.321 11.372 14.297 16.101 24.656 20.874 4.769 2.21 9.3 4.607 12.782 8.313 2.368 5.56 6.622 7.977 6.687 17.375 1.715-1.192 3.237-2.62 5.094-3.625-.009.285-.02.584 0 .844-.639.476-1.92 2.623-2.594 3.25l.813.406c7.133-6.872 12.369-1.377 12.937 6.719-.048 4.473-1.364 9.209-5.469 10.469.07-.127.15-.257.25-.376l.032-.03.031-.032c.275-.453.754-.87 1.031-1.438.46-1.01-.489-1.317-.937-1.874-3.031-.007-4.172 1.472-4.438 3.5-1.252-.478-2.676-1.248-4.25-2.47l-1.219 1.594c.94.73 3.534 1.852 4.407 2.344-.132 2.045-.563 3.942-.781 6.125 1.902 10.317-.015 20.828-3.782 30.375-10.073 13.053-27.238 34.449-45 36.813-4.914.281-10.275-3.03-15.344-7.688-26.053-21.106-32.806-26.89-28.312-61.437-.273-1.448-2.052-1.832-2.313-3.281.595-.379 3.314-1.766 3.938-2.25l-.469-.782c-7.501 6.25-13.592-.064-14.5-8.562.138-4.727 1.646-10.414 7.125-10.188 1.554.31 3.492 1.336 5.781 3.469l.594-.063c-.982-.914-1.403-2.593-2.125-3.53.85.824 1.7 1.918 2.594 3.343.08-12.814 6.517-20.808 16.688-27.406 8.57-5.347 23.255-10.276 25.25-21.719.465-.846.8-1.642 1.062-2.438zM121.969 83.03c-4.481.037-8.916.812-13.313 1.625-3.326 4.834-.596 4.91-.312 6.906l.812-.624c7.105-5.144 18.9-4.485 27.75-2.25 1.146-.178 2.035-.526 1.469-1.844-4.804-2.54-9.573-3.613-14.469-3.781a38.993 38.993 0 00-1.937-.032zm44.031 0c-6.88-.003-11.78 2.634-17.375 4.344.535.971 1.076 1.292 2.063 1.625 10.287-4.335 19.665-.934 29.03 2.563 1.666-1.96.96-4.232.032-6.376-4.664-.905-9.435-2.115-13.75-2.156zm1.938.781c4.321.03 8.38.778 10.656 2.75.755.838.701 1.24.5 2.22-17.54-5.89-24.643-1.256-27.781-1.25 1.493-1.806 9.422-3.768 16.625-3.72zm-46.563.72c6.366-.106 13.04.751 14.875 2.562-3.812-.313-17.885-3.613-27.5 2.437-.43-.98.17-2.136.719-2.969 2.195-1.278 6.955-1.949 11.906-2.03zm49.813 6.5c-.413-.007-.823.008-1.25.03-6.032.318-13.477 3.605-20.625 12.813 4.115 12.785 16.434 24.23 28.437 9.875 2.255-3.29 3.87-7.374 4.75-11.375l.063-5.313c-.73-2.726-5.19-5.938-11.375-6.03zm-53.594.812c-4.184-.021-8.336 1.322-11.719 4.812l-.313 5.719c.934 8.304 5.822 16.559 14.313 18.219 7.721-.936 15.962-2.103 18.656-17.125-2.29-4.922-11.734-11.58-20.937-11.625zm48.781 3.094c5.815-.138 10.3 3.394 14.063 7.593-.434 3.401-1.399 6.307-2.72 8.688-.794-6.04-4.488-11.242-10.874-12.125-6.997.482-10.449 6.349-11.531 12.625-1.414-2.04-3.68-4.54-4.75-7.594 3.255-5.442 9.297-8.666 14.625-9.125.4-.043.8-.053 1.187-.063zm-44.625.03c.39-.001.767.008 1.156.032 5.315.458 11.43 3.487 14.688 8.906-1.077 3.078-3.425 5.794-4.844 7.844-.932-6.502-4.918-11.763-11.781-12.563-6.507.626-9.693 6.145-10.625 12-1.31-2.373-3.507-5.366-3.938-8.75 3.538-4.524 9.486-7.441 15.344-7.468zm-.781 4.72c6.371.531 9.485 7.987 9.906 13.687-.324 1.782-2.175 2.724-3.625 3.656-1.96 1.14-3.978 1.65-5.938 1.625-3.553-.037-6.136-1.977-8.656-4.219-.237-.619-.406-1.246-.406-1.78.3-5.287 2.984-12.165 8.719-12.97zm45.844.25c5.83.675 8.631 7.506 9 12.718-4.811 8.754-12.83 5.834-18.625.719.327-5.851 3.335-12.71 9.625-13.438zm29.718 1.78c-1.842-.074-3.968.994-5.844 3l.438.188c3.84-2.881 7.092-1.488 7.531 3.156.197 5-4.2 6.015-7.937 3.594l-.25.219c4.639 4.815 10.272 2.964 10.531-3.875-.22-4.208-2.1-6.185-4.469-6.281zm-103.125.782c-3.144-.047-4.911 3.379-5.156 6.438-.047 7.427 6.094 8.098 10.688 3.937l-.75-.656c-3.429 3.515-7.145 2.033-7.407-3.156.28-5.437 3.36-5.301 6.469-2l1.5-1.313c-1.383-1.574-2.665-2.542-3.906-3a5.046 5.046 0 00-1.438-.25zm103.75 12.969c.248.002.518.028.781.062.638.593-.164 1.173-.625 1.781-.636.767-.652 1.679-.718 2.626 1.103 1.913-.306 3.2 3.344 5.75 1.401.987 2.205 1.147 2.937-.47-.163-2.366-1.122-4.556-2.031-6.718.659-.504 1.222-1.092 1.75-1.75 1.335 3.226 2.493 6.671 2.531 8.281-.044 1.676-1.008 2.533-2.281 3.375-3.888.357-6.697-3.098-8.25-6.344-.803-2.334-.373-5.237 1.875-6.53.212-.044.44-.066.687-.063zm-55.875 1.844c-2.97 7.569-5.419 11.434-7.937 15.843 1.22 2.208 2.995 3.865 5.094 5.219 1.753 1.018 3.419 1.527 4.78 1.438L143 139.5c-.678.044-2.074-1.98-3.563-2.844-1.363-.792-2.739-2.051-3.78-3.656 2.885-5.037 5.785-9.788 6.437-15.656l-.813-.031zm58.719 1.75a24.715 24.715 0 011.875 6.093c-2.887 1.255-3.709-2.933-4.25-5.125a8.33 8.33 0 002.375-.969zM96.219 134.625c-.262 7.177.774 13.414 2.687 18.875-4.235 8.364-13.326 13.676-18.187 15.906-3.674 1.686-10.619 6.3-14.125 9.5 2.145-4.5 6.466-8.88 5-13.594-6.855 4.945-13.09 10.046-20.781 14.782l13.156-15.625c-3.3-1.865-5.357-.991-8.657-6.063 8.775-2.032 16.747-6.575 21.25-11.375 4.44-4.732 13.56-11.097 19.657-12.406zm2.969 19.594c5.013 13.607 15.108 22.226 22.28 28.094.792 5.008-.437 9.228-1.687 13.53-1.52-.708-3.116-1.3-4.875-1.655-1.904 2.262-4.305 3.957-6.906 5.343-3.167-4.473-5.355-9.26-8.125-13.594-5.486-8.892-12.044-11.835-21.375-13 .922-.42 1.804-.85 2.844-1.312 8.321-4.702 13.538-7.73 17.844-17.406zm49.437.312c-1.727.077-3.464.397-5.188 1.063-5.504-1.75-11.549-.58-20.812 1.312l-.313.75c14.557 4.848 23.938 4.374 41.782.625l.156-.812c-5.26-1.22-10.445-3.168-15.625-2.938zm1.531 1.156c4.215-.033 8.896 1.356 11.938 2.063-11.964 2.958-27.88 2.09-37.781-.406 4.802-.093 11.801-3.384 19.218.375 1.748-1.48 4.096-2.011 6.625-2.031zm78.813 12.25c9.952-.07 19.168 3.839 22.25 13.594-.772 4.721-5.24 5.707-9.344 6.063-4.884.295-10.537-.594-14.125-.594l.188.281c2.589 0 6.308 1.227 10.25 1.344 1.236 1.33 2.622 1.73 3.03 3.406-7.165 5.28-15.868 1.188-23.03-2l-.375.219c3.144 1.587 6.382 3.322 9.562 4.594.257 1.286.496 2.581.625 3.875-7.893 4.266-13.92-1.155-20.719-4.5.376.377.426 1.27.875 1.5-.48 1.91-1.326 4.263-2.844 6.219-3.647-1.891-7.378-3.854-11.562-6.313 2.945-4.603 3.668-10.675 6.313-14.813 5.396-7.603 17.626-12.795 28.906-12.875zM68.875 169.25a34.376 34.376 0 00-1.813 3.969c-1.645.282-3.583.772-5.593 1.469 2.468-1.884 4.873-3.826 7.406-5.438zm6.156 5.344l-.125.125c10.53.235 18.096 2.976 24.125 11.75 2.593 4.056 3.188 9.963 5.969 14.531-2.223.951-4.511 1.719-6.719 2.438-.931.465-1.916.86-2.906 1.25-1.702-1.238-4.016-1.627-4.438-3.282.526-.27 1.06-.544 1.626-.781l-.22-.219c-3.853 1.618-6.788 3.308-9.812 4.656-3.992 1.921-8.435.61-11.437-1.25.198-1.108.459-2.204.656-3.312 2.953-1.073 5.798-2.971 8.688-4.406l.468-.406c-7.726 4.06-14.798 5.516-23 2 .278-2.22 1.864-2.476 3-3.407 3.942-.117 7.848-1.344 10.438-1.344v-.28c-6.866.422-13.201 1.973-19.031-2-4.338-4.48-2.86-7.958.656-10.5a34.261 34.261 0 003.656-2.032c3.261-1.468 7.014-2.453 9.781-2.969-.753 2.725-.632 4.638-.594 6.625 3.322-3.561 6.07-5.52 9.22-7.187zm99.656 1.812c-.547 6.58-.542 13.343 2.97 17.5-3.633 5.98-9.185 12.395-26.688 11.25.664 12.006 3.298 29.906-1.875 41.781-10.129-18.369-5.062-31.939-7.188-47.78-9.373 4.552-14.48.625-20.406-2.47 1.038-4.102 1.678-8.681 1.094-13.5 1.534 1.254 2.967 2.427 4.062 3.438 5.23 5.302 9.605 8.06 16.781 8.656 12.001-2.02 22.578-9.745 31.25-18.875zm-34.187 3.688l-1 .062c-2.435 3.177-1.22 6.354.531 9.531l1-.062c-.497-1.638-2.173 2.376-.531-9.531zM182.063 191c10.183 8.107 24.444 12.231 34.937 19.688 5.217 11.008 9.306 24.32 11.688 38.75-27.259 8.742-60.878 8.424-88.438 6.312-23.725 1.378-47.1-.888-70.563-4.563 2.527-22.008 4.76-38.362 29.594-45.093 5.96-1.943 11.808-5.801 16-9.313 4.954 2.73 16.623 6.76 25.656 5.438-2.806 29.467 1.211 36.04 8.188 48.75 8.718-13.113 6.163-28.89 4.094-43.531 12.905.325 22.224-6.942 28.844-16.438z" fill-rule="evenodd"/>
 <path d="m143.54 194.79c-0.917 4.01-0.262 8.246 2.121 12.728 12.312-4.524 12.707-18.51 29.522-28.461l-1.061-4.773c-6.167 10.862-18.449 15.61-30.582 20.506z" fill-opacity=".214" fill-rule="evenodd" filter="url(#E)"/>
 <path d="m170.06 202.22-18.209 4.066c3.152 9.153 1.784 21.182-0.177 33.588 4.545-10.88 8.661-29.017 18.385-37.654z" fill-opacity=".29" fill-rule="evenodd" filter="url(#F)"/>
 <path d="m226.25 234.5 3.25 15.75c-12.583 3.875-25.167 9.21-37.75 6.75 9.25-3.302 15.818-1.594 34.5-22.5z" fill-opacity=".371" fill-rule="evenodd" filter="url(#G)"/>
 <path d="M124 187.25l-.75 8.75c4.999 2.826 9.91 5.031 14.25 3.25l.25-2.75s-13.5-7.25-13.75-9.25z" fill="#fff" fill-opacity=".455" fill-rule="evenodd" filter="url(#H)"/>
 <path d="M111 122.75c6.623 2.563 18.463.17 25.75-3.25-2.344 4.073-6.18 6.653-6.75 12.5l5.5 8.75s-33.75 12.75-24.5-18z" fill="#fff" fill-opacity=".259" fill-rule="evenodd" filter="url(#I)"/>
 <path d="M142.75 121.25c-1.26 4.324-2.676 8.49-5.25 11.5l6.25 5.5c-4.432-10.642-.516-12.504-1-17z" fill="#fff" fill-opacity=".692" fill-rule="evenodd" filter="url(#J)"/>
 <path d="M155 119.75c7.683 5.127 17.162 5.186 23.75-.75 14.986 19.435-43.092 44.53-23.75.75z" fill="#fff" fill-opacity=".259" fill-rule="evenodd" filter="url(#K)"/>
 <path d="m128.34 165.45c3.593 8.426-3.475 15.343 12.728 25.456 17.423-4.112 10.017-16.5 15.026-24.75-10.07 7.526-21.418 11.373-27.754-0.706z" fill="#fff" fill-opacity=".299" fill-rule="evenodd" filter="url(#L)"/>
 <path d="m252.25 181.12c-3.033 9.006-16.45 4.429-11.5 7-12.866-9.35 8.762-10.983 11.5-7z" fill-opacity=".16" fill-rule="evenodd" filter="url(#M)"/>
 <path d="m226.45 193.82c13.606 2.958 11.337-0.296 15.203-1.149 1.287-3.217-14.049-3.371-15.203 1.15z" fill-opacity=".146" fill-rule="evenodd" filter="url(#N)"/>
 <path d="m229.19 198.33c-2.796 4.644-8.009 1.691-12.286 1.679-0.363-2.723 8.773-4.115 12.286-1.68z" fill-opacity=".224" fill-rule="evenodd" filter="url(#O)"/>
 <path d="m208.6 195.41c-1.923 3.333-4.216 5.772-7.778 5.127l6.188 3.182 1.59-8.309z" fill-opacity=".292" fill-rule="evenodd" filter="url(#P)"/>
 <path d="m227.34 169.52c-7.248 4.763-14.496 8.385-21.744 8.927-2.68-1.693 19.723-12.07 21.744-8.927z" fill="#fff" fill-opacity=".968" fill-rule="evenodd" filter="url(#Q)"/>
 <path d="M65 176.125c-4.298 4.53-22.265 3.036-9.125 15.25 8.197.557 4.033-7.487 9-9.875l.125-5.375z" fill="#fff" fill-opacity=".776" fill-rule="evenodd" filter="url(#R)"/>
 <path d="m99.625 187.25 7.25 14.25-4.125 1.5c-3.405-5.248-1.175-8.696-3.125-15.75z" fill-opacity=".315" fill-rule="evenodd" filter="url(#S)"/>
</svg>
