<?xml version="1.0" encoding="UTF-8"?>
<svg width="280" height="280" version="1.0" xmlns="http://www.w3.org/2000/svg" xmlns:xlink="http://www.w3.org/1999/xlink">
 <defs>
  <linearGradient id="h">
   <stop stop-color="#f3c3a3" offset="0"/>
   <stop stop-color="#f6d0b7" offset="1"/>
  </linearGradient>
  <linearGradient id="e">
   <stop stop-color="#fff" stop-opacity="0" offset="0"/>
   <stop stop-color="#363636" stop-opacity=".518" offset="1"/>
  </linearGradient>
  <linearGradient id="g">
   <stop stop-color="navy" offset="0"/>
   <stop stop-color="#0000b9" offset="1"/>
  </linearGradient>
  <linearGradient id="f">
   <stop stop-color="#ffba00" offset="0"/>
   <stop stop-color="#7c3100" offset="1"/>
  </linearGradient>
  <linearGradient id="O" x1="111.46" x2="121.27" y1="217.33" y2="225.46" gradientTransform="translate(436.34 523.59)" gradientUnits="userSpaceOnUse">
   <stop stop-color="#fff" offset="0"/>
   <stop stop-color="#fff" stop-opacity="0" offset="1"/>
  </linearGradient>
  <linearGradient id="N" x1="544.2" x2="545.78" y1="749.31" y2="746.22" gradientTransform="translate(13.061 2.746)" gradientUnits="userSpaceOnUse" xlink:href="#b"/>
  <linearGradient id="M" x1="540.56" x2="544.37" y1="748.28" y2="745.89" gradientTransform="translate(13.061 2.746)" gradientUnits="userSpaceOnUse" xlink:href="#b"/>
  <linearGradient id="L" x1="545.6" x2="546.94" y1="746.11" y2="741.6" gradientTransform="translate(13.061 2.746)" gradientUnits="userSpaceOnUse" xlink:href="#b"/>
  <linearGradient id="K" x1="542.53" x2="546.33" y1="742.99" y2="739.9" gradientTransform="translate(13.061 2.746)" gradientUnits="userSpaceOnUse" xlink:href="#b"/>
  <linearGradient id="J" x1="540.04" x2="539.89" y1="746.99" y2="741.34" gradientTransform="translate(13.061 2.746)" gradientUnits="userSpaceOnUse" xlink:href="#b"/>
  <linearGradient id="I" x1="541.35" x2="542.17" y1="743.13" y2="740.39" gradientTransform="translate(13.061 2.746)" gradientUnits="userSpaceOnUse" xlink:href="#b"/>
  <linearGradient id="H" x1="539.51" x2="544.64" y1="737.65" y2="752.59" gradientTransform="translate(13.061 2.746)" gradientUnits="userSpaceOnUse">
   <stop stop-color="#ffdc00" offset="0"/>
   <stop stop-color="#ff0" offset=".5"/>
   <stop stop-color="#ffb100" offset="1"/>
  </linearGradient>
  <linearGradient id="B" x1="124.25" x2="122.77" y1="182.25" y2="173.4" gradientTransform="translate(434.34 522.59)" gradientUnits="userSpaceOnUse">
   <stop stop-color="#db0000" offset="0"/>
   <stop stop-color="red" offset="1"/>
  </linearGradient>
  <linearGradient id="y" x1="148.93" x2="155.44" y1="94.481" y2="101.48" gradientTransform="translate(434.6 526.84)" gradientUnits="userSpaceOnUse" xlink:href="#f"/>
  <linearGradient id="x" x1="145.48" x2="156.58" y1="121.74" y2="131.61" gradientTransform="translate(434.34 522.59)" gradientUnits="userSpaceOnUse" xlink:href="#g"/>
  <linearGradient id="w" x1="90.875" x2="94" y1="129.75" y2="139.99" gradientTransform="translate(434.34 522.59)" gradientUnits="userSpaceOnUse" xlink:href="#g"/>
  <linearGradient id="t" x1="69.65" x2="137.89" y1="51.958" y2="93.677" gradientTransform="translate(434.34 522.59)" gradientUnits="userSpaceOnUse" xlink:href="#f"/>
  <linearGradient id="r" x1="151.72" x2="222.02" y1="47.297" y2="144.3" gradientTransform="translate(434.34 522.59)" gradientUnits="userSpaceOnUse" xlink:href="#f"/>
  <linearGradient id="q" x1="-37.5" x2="78.875" y1="18" y2="181.75" gradientTransform="translate(434.34 522.59)" gradientUnits="userSpaceOnUse" xlink:href="#f"/>
  <linearGradient id="p" x1="48.5" x2="167.5" y1="2.75" y2="190.75" gradientTransform="translate(434.34 522.59)" gradientUnits="userSpaceOnUse" xlink:href="#f"/>
  <linearGradient id="o" x1="91.315" x2="96.227" y1="114.01" y2="116.48" gradientTransform="translate(434.34 522.59)" gradientUnits="userSpaceOnUse" xlink:href="#f"/>
  <linearGradient id="n" x1="112.43" x2="155.92" y1="115.95" y2="177.12" gradientTransform="translate(434.34 522.59)" gradientUnits="userSpaceOnUse" xlink:href="#h"/>
  <linearGradient id="l" x1="75.042" x2="80.049" y1="218.61" y2="248.86" gradientTransform="translate(434.34 522.59)" gradientUnits="userSpaceOnUse" xlink:href="#g"/>
  <linearGradient id="k" x1="171.3" x2="170.54" y1="221.42" y2="247.67" gradientTransform="translate(434.34 522.59)" gradientUnits="userSpaceOnUse" xlink:href="#g"/>
  <linearGradient id="j" x1="106.72" x2="143.41" y1="208.92" y2="246.04" gradientTransform="translate(434.34 522.59)" gradientUnits="userSpaceOnUse" xlink:href="#h"/>
  <linearGradient id="b">
   <stop stop-color="#0039cd" offset="0"/>
   <stop stop-color="#4b92ff" offset="1"/>
  </linearGradient>
  <filter id="m" x="-.059" y="-.126" width="1.117" height="1.252">
   <feGaussianBlur stdDeviation="1.621"/>
  </filter>
  <filter id="i">
   <feGaussianBlur stdDeviation="2.113"/>
  </filter>
  <filter id="s">
   <feGaussianBlur stdDeviation="1.867"/>
  </filter>
  <filter id="C" x="-.582" y="-.101" width="2.163" height="1.202">
   <feGaussianBlur stdDeviation="1.028"/>
  </filter>
  <filter id="D" x="-.352" y="-.114" width="1.703" height="1.228">
   <feGaussianBlur stdDeviation="1.104"/>
  </filter>
  <filter id="F" x="-.233" y="-.305" width="1.466" height="1.61">
   <feGaussianBlur stdDeviation="2.178"/>
  </filter>
  <filter id="v" x="-.08" y="-.153" width="1.159" height="1.305">
   <feGaussianBlur stdDeviation="2.99"/>
  </filter>
  <filter id="G" y="-.11" width="1.199" height="1.22">
   <feGaussianBlur stdDeviation="1.112"/>
  </filter>
  <filter id="E" x="-.299" y="-.311" width="1.597" height="1.623">
   <feGaussianBlur stdDeviation="2.178"/>
  </filter>
  <filter id="u">
   <feGaussianBlur stdDeviation=".842"/>
  </filter>
  <radialGradient id="A" cx="564.45" cy="643.59" r="16.352" gradientTransform="matrix(.39118 .76863 -1.1577 .58919 1103.5 -166.29)" gradientUnits="userSpaceOnUse" xlink:href="#e"/>
  <radialGradient id="z" cx="504.04" cy="653.39" r="14.761" gradientTransform="matrix(.10095 1.3404 -1.8672 .14062 1685.7 -114.63)" gradientUnits="userSpaceOnUse" xlink:href="#e"/>
 </defs>
 <path transform="translate(-423.28 -520.84)" d="M555.815 544.593a73.147 73.147 0 00-2.875.031c-1.915.069-3.827.22-5.72.438-1.89.217-3.773.51-5.624.875-1.85.365-3.677.802-5.469 1.312a62.616 62.616 0 00-7.781 2.781c-.835.363-1.69.76-2.5 1.157-4.042 1.984-7.771 4.407-11.031 7.25-1.013.345-2.02.741-3.032 1.187a41.732 41.732 0 00-3.03 1.469 46.242 46.242 0 00-3 1.781 48.672 48.672 0 00-4.345 3.156 52.737 52.737 0 00-2.78 2.407 55.458 55.458 0 00-12.47 17.187c-.28.607-.553 1.193-.812 1.813a51.646 51.646 0 00-1.406 3.812 50.7 50.7 0 00-1.125 3.938 50.393 50.393 0 00-.438 2.03c-.134.68-.268 1.343-.375 2.032a48.637 48.637 0 00-.562 6.344c-.05 2.184-.144 4.417-.282 6.687a215.415 215.415 0 01-.906 10.47 262.923 262.923 0 01-1.437 10.905 319.214 319.214 0 01-2.688 15.094 365.803 365.803 0 01-1.656 7.688 390.944 390.944 0 01-1.813 7.78 74.183 74.183 0 00-.875 4.063c-3.912 20.474.132 41.782 3.594 60.094.769 1.7 1.39 3.531 1.938 5.438.28 1.15.574 2.283.875 3.437.017.075.045.144.062.219.006.022.026.04.031.062 2.002 8.885 2.745 18.936 6 26.532.009.073.023.145.032.218.103.145.607 1.263.968 1.844-.118 2.587-.264 5.168-.5 7.75-.152.568-.236.937-.28 1.25-.063.39-.04.616.03.719.011.018.018.05.032.062.006.004.024-.002.03 0 .13.071.335-.038.626-.218l3.656.218.281.032c.623.063 1.248.131 1.875.187 1.63.55 2.717 1.717 4.875 2.531 7.017-1.059 13.79-.359 20.907-.125 1.803 1.695 4.79-.825 5.28-1.843 17.78-1.102 50.039-.725 64.532-.188.666.025 1.002 1.988 1.688 1.844 8.17-1.718 18.356-.426 26.468-.531 1.52-.42 1.59-1.658 1.5-2.563l1.188-.094c11.711.507 24.273.241 36.312.782l3.813.156.625.031c-2.9-2.958-6.15-7.289-9.656-11.406.157-1.286.34-2.61.5-3.906.366-2.977.731-5.95 1.125-8.97.224-1.72.448-3.459.687-5.187.04-.282.086-.561.125-.843a405.82 405.82 0 011.969-12.72c.205-1.19.437-2.375.656-3.562.526-2.845 1.069-5.67 1.688-8.468a183.121 183.121 0 011.906-7.906c.886-24.208-19.104-52.128-24.781-86.282-.053-.324-.106-.642-.157-.969-.172-1.293-.34-2.583-.53-3.875-.078-.624-.153-1.246-.22-1.875a18.252 18.252 0 00-.343-1.625c-.706-6.53-2.28-13.73-4.72-20.843a97.907 97.907 0 00-2.405-6.344 89.291 89.291 0 00-.907-2.063c-2.502-5.517-5.543-10.754-9.156-15.312-.45-.57-.907-1.11-1.375-1.656a53.536 53.536 0 00-1.437-1.625 48.772 48.772 0 00-3.032-2.97c-3.12-2.826-6.537-5.155-10.28-6.812.254-.42-.225-.964-.438-1.406-3.477-3.143-7.368-5.775-11.532-7.906-3.34-1.71-6.84-3.08-10.468-4.156a67.209 67.209 0 00-8.282-1.907 71.712 71.712 0 00-11.343-.937zm76.562 158.656c.208 1.675.458 3.353.719 5.063.912 5.991 2.041 12.156 2.625 18.28.166 1.748.284 3.486.344 5.22.15 4.335-.096 8.61-1 12.75a161.299 161.299 0 01-.844 3.843c-.028-.097-.067-.212-.094-.312.114-.07.088-.42-.25-1.063-2.473-10.381-2.513-30.46-1.5-43.78zm-7.844 19.844l5.157 17.375c-2.283-3.037-4.97-5.689-6.657-7.594l.282-3.219a190.97 190.97 0 001.218-6.562zm20 22.281a149.772 149.772 0 00-.218 7.969c.001.636.018 1.272.03 1.906.015.72.033 1.44.063 2.156.04.938.087 1.85.157 2.782.002.03-.003.062 0 .093-1.558-1.57-3.173-2.967-4.813-4.125a235.603 235.603 0 001.563-3.312c.086-.186.164-.376.25-.563 1.047-2.28 2.06-4.575 2.968-6.906zm-10.968 2.469c.292.272.527.492.656.594-.002.01.002.021 0 .03-.097.415-.215.808-.313 1.22a11.804 11.804 0 00-.343-1.844z" fill-rule="evenodd" filter="url(#i)"/>
 <path transform="translate(-423.28 -520.84)" d="M540.595 715.59l-1.5 7-13.75 3.75-25 7.75-9 13.5-6.5 27c10.745 1.325 22.165 1.6 34.588.103 21.23-2.56 43.194 1.154 65.165-.003 1.644-.086 3.29.537 4.938.456 21.908-1.07 44.217-2.243 67.059-.057l-17.75-18.5-6-7-11.5-16-8-4.5-14.75 1.25-15.5-2.5-6-4.5-1.25-6.5-6.25 2.75-13 3.25-16-7.25z" fill="url(#j)" fill-rule="evenodd"/>
 <path transform="translate(-423.28 -520.84)" d="m622.26 729.4-18.562-0.53-2.298 8.308-15.38 37.477c10.502 2.076 18.505 1.775 28.108 0.707l-0.354-13.082 3.536-18.561 4.95-14.32z" fill="url(#k)" fill-rule="evenodd"/>
 <path transform="translate(-423.28 -520.84)" d="M501.343 727.99l23.335-4.066 1.59 11.667-.176 8.308c-.674 10.49-3.511 22.478-7.955 32.967-8.544.04-17.088-.046-25.633-1.677l6.01-13.435 3.183-19.092-.354-14.672z" fill="url(#l)" fill-rule="evenodd"/>
 <path transform="translate(-423.28 -520.84)" d="M540.345 715.59l35.25 1c-2.1 2.556 27.826 8.471 27.548 12.37-.08 1.114 10.376-.318 18.616 4.995 5.005 3.227 9.638 13.85 9.313 14.911-.547 1.785-30.404-8.436-31.803-8.022-5.315 1.574-20.306-9.304-30.215-9.156-7.938.118-9.288 9.116-12.318 14.767-1.657-5.089-8.747-18.082-19.966-12.958 6.492-3.822 6.28-13.738 3.575-17.908z" fill-opacity=".175" fill-rule="evenodd" filter="url(#m)"/>
 <path transform="translate(-423.28 -520.84)" d="m507.1 618.09-0.5 30.25 1.25 18.25 6.25 17.25 5.5 9 7.25 6.5 15 18.25 11 6 11.75-1.75 12.316-6.006 15.684-18.495 13.25-26.25 0.75-37-11.75-31.75-29.5-29-58.25 44.75z" fill="url(#n)" fill-rule="evenodd"/>
 <path transform="translate(-423.28 -520.84)" d="m522.91 637.48 6.187-3.359 2.475 4.95-8.662-1.591z" fill="url(#o)" fill-rule="evenodd"/>
 <path d="m84.777 128.13 21.213 1.414 8.309 4.42-1.591 7.248-6.187 5.833-10.96 1.06-7.955-8.308-2.829-8.485v-3.182z" fill="#fff" fill-rule="evenodd"/>
 <path transform="translate(-423.28 -520.84)" d="M606.095 673.09l2 8.75 3.5 11.25.5 12.5 3.75 24h-11.25l-14.75-.5-11.5-3.5c-3.159-2.958-1.875-5.716-2.5-8.25l7.75-8.75 12.5-16 8-17.25 2-2.25z" fill="url(#p)" fill-rule="evenodd"/>
 <path transform="translate(-423.28 -520.84)" d="M509.095 645.84l-1.75 12.5 3.25 17.25 8.75 17.5 9.75 8.5 12.25 15.5-1.5 6.25-14.75 3-.75-1.75-23.75 4 .5 5.5-4.25 6-10.25 22.75-1.5-3.5.25-36 8-25.25 9.5-19.75 3.487-28.89 2.763-3.61z" fill="url(#q)" fill-rule="evenodd"/>
 <path transform="translate(-423.28 -520.84)" d="M586.064 596.214c3.404 4.744 13.855 15.876 16.031 27.125 7.463 19.512 4.83 25.327 2.156 51.657 2.734 7.718 6.076 15.998 7 23.937 1.98 13.828 2.165 29.766 5.313 43.625l.843-1.156 1.375 1.594c1.836-5.92 3.643-15.763 4.875-23.282l6.375 21.563c.056.425.972 3.74 1.032 4.156 1.13-.244.85-.565 1.312-.219-2.832-9.872-2.061-29.02-1-42.968 1.66 13.397 5.582 28.068 2.688 41.312-2.177 10.58-5.28 19.605-6.969 30.25l.281-.125c-.039.064-.086.124-.125.188l3.031-.72c3.647-9.08 9.314-18.685 13.25-28.78-.295 5.727-.348 11.382.22 16.906l.937.156 2.625 4.375c2.158-17.536 4.331-36.421 8.906-53.656-1.057-25.41-19.225-50.17-24.938-87.25a203.85 203.85 0 00-1.093-7.375c-2.253-20.858-13.347-48.79-33.313-57.625l-10.812 36.312zm46.312 149c.155 2.626 1.741 2.438 0 0z" fill="url(#r)"/>
 <path transform="translate(-423.28 -520.84)" d="m588.1 593.84c-5.339 12.735-12.033 20.826-19.517 26.728-16.894 13.324-39.81 14.495-58.233 33.771 1.44 16.453 8.335 31.541 17.75 46l-13.25-14.75-7-22.25 1.25-19.25 28.25-15.25 50.75-35z" fill-opacity=".455" fill-rule="evenodd" filter="url(#s)"/>
 <path transform="translate(-423.28 -520.84)" d="M554.814 543.59c-15.36-.054-30.546 4.728-41 13.843-16.194 5.519-32.839 24.244-33.375 47.156-.403 17.477-3.675 37.864-8.782 58.625-5.334 21.69-.253 44.633 3.438 64.157 2.348 11.778 6.877 23.897 8.219 35.906.103.144.607 1.262.968 1.844-.118 2.586-.263 5.167-.5 7.75-.946 3.529.326 1.58 1.907 1 .363-16.754 2.086-34.08.968-51 5.828-11.467 5.988-25.635 13.157-36.75 5.543-8.932 5.226-24.235 6.5-34.532.716-3.063 1.622-3.034 1.843-4.906 1.19-.11.957.48 1-1.094 5.44-3.828 11.983-6.041 17.907-9.718 7.596-4.703 26.013-12.092 39.812-17.282 8.787-5.995 14.825-13.724 19.188-22.375l10.812-36.312c.255-.42-.224-.964-.437-1.406-11.126-10.057-26.446-14.854-41.625-14.907z" fill="url(#t)"/>
 <path d="m178.65 118.94-15.557-1.415-11.667 5.48-5.48 7.425 2.828 4.773 7.071 4.066 7.955-0.53 5.48-4.066 5.834-8.662 3.536-7.071z" fill="#fff" fill-rule="evenodd"/>
 <path transform="translate(-423.28 -520.84)" d="m585.31 595.05c15.61 34.396 19.68 67.938 1.768 109.6 7.485-10.253 13.727-20.506 18.385-30.76 2.27-15.555 1.838-31.112 0.353-46.668-4.716-15.492-12.03-25.138-20.506-32.174z" fill-opacity=".115" fill-rule="evenodd" filter="url(#u)"/>
 <path transform="translate(-423.28 -520.84)" d="m513.07 562.47c-10.477 5.841-11.85 7.585-19.445 16.263 14.706 11.751 41.162 20.886 64.346 22.274 2.874 6.79 5.762 8.263 15.203 8.486 10.24-5.37 5.805-6.762 10.607-14.85-24.356-9.545-49.887-17.329-70.711-32.173z" fill="#fff" fill-opacity=".47" fill-rule="evenodd" filter="url(#v)"/>
 <path transform="translate(-423.28 -520.84)" d="M515.485 648.617l.177 6.01 2.298 6.541 3.89 1.414 6.187-1.59 4.773-8.84-16.44-3.712-.885.177z" fill="url(#w)" fill-rule="evenodd"/>
 <path transform="translate(-423.28 -520.84)" d="M590.792 638.01l-10.253 2.122-6.717 4.596 4.242 8.131 4.243 3.182 2.298.354 3.89-1.414 3.181-5.48-.884-11.49z" fill="url(#x)" fill-rule="evenodd"/>
 <path transform="translate(-423.28 -520.84)" d="m594.22 616.45-5.303 1.415-8.485 4.773-8.662 8.132-2.122 4.42 6.541-4.243 11.667-6.364 9.546-3.713-3.182-4.42z" fill="url(#y)" fill-rule="evenodd"/>
 <path transform="translate(-423.28 -520.84)" d="m508.06 648.97 21.214 1.415 8.309 4.419-1.591 7.248-6.188 5.833-10.96 1.061-7.955-8.308-2.828-8.486v-3.182z" fill="url(#z)" fill-rule="evenodd"/>
 <path transform="translate(-423.28 -520.84)" d="m601.93 639.78-15.557-1.414-11.667 5.48-5.48 7.424 2.828 4.773 7.071 4.066 7.955-0.53 5.48-4.066 5.834-8.662 3.535-7.071z" fill="url(#A)" fill-rule="evenodd"/>
 <path transform="translate(-423.28 -520.84)" d="M543.063 697.76l4.419-1.59 6.718 1.59s6.01-1.767 7.6-1.767c1.592 0 11.491 3.536 11.491 3.536s-3.358 5.833-4.95 6.187c-1.59.353-12.197 2.121-12.197 2.121l-9.723-2.121-5.48-5.304 2.122-2.651z" fill="url(#B)" fill-rule="evenodd"/>
 <path d="M102.98 134.754a3.374 3.39 0 11-6.748 0 3.374 3.39 0 116.748 0z"/>
 <path d="M105.23 132.379a2.624 2.764 0 11-5.248 0 2.624 2.764 0 115.248 0zM168.377 121.475a2.624 3.14 0 11-5.248 0 2.624 3.14 0 115.248 0z" fill="#fff"/>
 <path transform="translate(-423.28 -520.84)" d="m547.6 650.3c0.821 5.124 0.963 9.91 3.536 15.91-1.414 2.083-2.829 5.557-4.243 8.485l0.707-24.395z" fill="#fff" fill-opacity=".765" fill-rule="evenodd" filter="url(#C)"/>
 <path transform="scale(-1 1) rotate(16.322 2034.6 -1947.9)" d="M538.542 653.058c.82 5.124.963 9.91 3.536 15.91-1.415 2.083-2.829 5.557-4.243 8.485l.707-24.395z" fill-opacity=".275" fill-rule="evenodd" filter="url(#D)"/>
 <path transform="translate(-423.28 -520.84)" d="M523.44 674.25c6.394-.532 12.043-2.55 17.501-4.95-4.015 4.438-5.117 9.998-3.005 16.793-4.737-4.612-9.318-10.313-14.496-11.844z" fill="#fff" fill-opacity=".39" fill-rule="evenodd" filter="url(#E)"/>
 <path transform="translate(-423.28 -520.84)" d="m573.12 664c5.966 3.842 13.188 4.456 22.45-0.176-6.298 4.936-10.429 10.8-13.435 17.147-1.377-6.634-5.379-11.693-9.015-16.97z" fill="#fff" fill-opacity=".39" fill-rule="evenodd" filter="url(#F)"/>
 <path transform="translate(-423.28 -520.84)" d="m530.1 739.84c1.078 7.81 1.058 15.777-2.5 24.25 4.589-6.796 15.65-8.414 26.75-10-8.73-2.65-18.053-3.371-24.25-14.25z" fill="#fff" fill-opacity=".335" fill-rule="evenodd" filter="url(#G)"/>
 <path d="M164.23 126.754a3.374 3.39 0 11-6.748 0 3.374 3.39 0 116.748 0z"/>
 <path d="M131.531 22.75c-15.36-.053-30.545 4.729-41 13.844-16.194 5.519-32.838 24.243-33.375 47.156-.403 17.477-3.675 37.863-8.781 58.625-5.335 21.69-.973 44.632 2.719 64.156 5.002 11.055 4.412 27.36 9.906 37.75-.118 2.587-.264 5.168-.5 7.75-.61 2.275-.316 2.256.406 1.813l3.969.25c-.002-.042.002-.084 0-.125 2.882.032 3.873 1.757 6.75 2.844 7.016-1.06 13.789-.36 20.906-.125 1.803 1.694 4.79-.826 5.281-1.844 17.78-1.102 50.038-.725 64.532-.188.666.025 1.001 1.988 1.687 1.844 8.171-1.718 18.356-.426 26.469-.531 1.52-.42 1.59-1.657 1.5-2.563l1.188-.094c11.71.507 24.272.242 36.312.782l4.438.187c-2.9-2.958-6.15-7.289-9.657-11.406 2.079-16.945 4.261-35.003 8.656-51.563.944-25.774-21.77-55.766-25.687-93a18.252 18.252 0 00-.344-1.624c-2.252-20.858-13.346-48.79-33.312-57.626.255-.42-.225-.963-.438-1.406-11.125-10.057-26.445-14.853-41.625-14.906zm-3.937 1.844c15.174-.144 30.73 4.938 44.312 13.343.332.387.784.513.406 1.938-6.08 20.415-11.95 43.33-29.937 56.594-15.779 4.038-38.74 16.617-43 19.219-4.325 2.023-8.607 4.173-12.5 6.812 11.091-20.347 20.708-18.049 42.656-35.875 14.191-9.212 19.85-30.88 24-45.906-.453.162-.76.253-1.219.406-4.406 16.203-11.441 32.255-24.28 43.563-11.977 11.031-38.634 23.537-43.47 39.468-3.57 2.743-6.71 6.014-9.093 10.156-2.92 3.036-5.858 8.274-7.719 10.313-7.732 10.216-8.3 23.776-7.969 36.094-.342 19.131 1.74 38.442 1.407 57.687-.06-10.071-3.061-19.84-6.5-29.281-3.745-21.65-8.521-43.997-5.47-66.188 7.046-20.387 10.883-39.782 10.094-63.218 6.036-18.83 19.66-36.845 33.938-43.906 10.395-7.673 22.253-11.105 34.344-11.22zm45.781 15.718c.34.152.728.34 1.219.594 16.416 9.734 23.1 28.31 28.406 45.375 4.319 24.84 4.896 50.421 3.125 75.625-.677 15.076-1.567 35.617-.375 52.406-1.168-6.545-3.022-13.493-4.563-19.906.601-4.789 1.03-9.418 1.094-13.437l-3 4.125c-.062 9.554-.252 18.219-3.375 27.344-.323.979-.656 1.96-.969 2.937-1.74-13.014-5.188-25.832-5.406-39.188-.744-8.775-3.696-17.56-5.687-26.187.016-.163.015-.337.031-.5 1.47-6.7 1.8-15.97 1.094-25-.228-7.5-1.09-15.139-3.031-22.469-2.931-11.065-8.325-21.46-17.688-29.719 4.502-10 7.028-21.053 9.125-32zm-10.594 35.063c3.404 4.744 13.856 15.876 16.031 27.125.53 1.385 1.006 2.678 1.438 3.938.677 3.056 1.26 6.796 1.688 10.874-1.364-.202-2.74-.383-4.125-.53l1.468-3.626-.812-.562-2.781 4a66.237 66.237 0 00-3.75-.188l.718-2.375-.812-.562-2.063 2.906c-9.963.15-19.348 3.212-24.281 13.688 3.454 11.325 16.636 12.63 22.906 6.25 5.136-4.094 7.78-9.643 10.375-15.594.986.326 1.915.676 2.75 1.062l.688-1.437c1.05 12.837.484 28.112-3.625 36.531-5.346 10.932-8.972 18.85-17.625 29.375-1.94 2.3-3.982 4.655-6.344 6.813.013-.032.018-.062.031-.094l-.187.25c-4.813 4.35-10.967 7.812-20.281 8.062-5.283.006-11.502-.389-16.907-7.406-6.033-5.285-9.851-12.911-15.562-18.563-9.238-5.56-16.044-24.386-16.313-38.75 2.634 5.081 5.682 10.868 11.125 12.688 8.774 1.057 20.852-5.87 18.063-15.875-6.567-3.514-15.087-7.026-22.938-8.219l-1.969-2.75c3.159-1.764 6.508-3.3 9.813-5 4.35 1.103 8.144 2.161 10.719 2.219-2.09-2.65-.305-3.729-2.688-6.563-.054-.028-.101-.043-.156-.062 8.848-4.62 24.263-10.753 36.219-15.25 8.787-5.996 14.824-13.724 19.187-22.375zm9.781 19.281l-2.5.344c-11.906 2.618-19.365 10.51-25.375 20.625 9.748-5.694 19.471-12.462 30.438-15.625-1.047-1.624-2.114-3.097-2.563-5.344zm-1.78 1.125a10.313 10.313 0 002.25 4.094c-9.089 1.514-17.31 7.219-24.845 11.719 5.423-8.48 14.036-13.044 22.594-15.813zm38.155 16.469c3.925 35.29 24.278 55.88 20.563 80.719-2.283 10.552-3.989 22.666-5.656 32.531.248-4.875.22-9.852.125-14.781.68-3.908.905-7.895.469-11.938l-.844-1.469c-.066-2-.114-3.976-.156-5.906-2.18-17.23-7.362-40.841-13.344-57.594-.112-7.206-.471-14.388-1.156-21.562zm-104.25 2.25c.285.235.96.814 1.813 2.938-2.27-.682-3.49-.087-4.781-1.188a52.386 52.386 0 002.062-1.219c.276-.17.603-.353.906-.531zm60.72 4.469c.413-.023.836.008 1.25 0 1.638 4.22 2.776 14.552-4.688 16.031-4.065.225-9.027-6.897-10.5-11.094 3.802-3.201 8.852-4.653 13.937-4.937zm3.655.031c2.768.128 5.444.52 7.844 1.156-2.82 5.114-4.94 10.63-9.062 14.938-3.47 3.648-16.214 5.665-21.125-4.688a17.25 17.25 0 012.656-4.406c2.67 5.176 7.03 12.013 13 10.031 8.11-1.796 7.354-11.988 6.688-17.031zm-80.312 3.906l.625 1.969a33.706 33.706 0 00-2.094-.125c.221-.496.457-.966.719-1.406.246-.15.5-.292.75-.438zm-5.219 3.656c-7.071 10.544.317 29.807-9.594 39.657-5.253 9.99-8.623 20.607-10.937 31.562-.218-2.262-.47-4.508-.813-6.75-.414-14.604-2.06-29.078 5.313-43.031 3.826-6.187 9.66-11.435 12.75-18.031a24.735 24.735 0 013.281-3.406zm.344 1.782c-3.37 12.288 3.694 38.393 16.438 48.437 7.78 7.863 9.637 13.59 15.437 18.438 2.502 6.267-4.395 8.567-13.094 9.125-.09-.606-.172-1.217-.281-1.813l-26.281 4.688c.362 1.7.607 3.387.812 5.062-5.18 7.861-10.936 16.537-13.937 25.563.562-11.917 1.189-23.957.406-35.813 5.828-11.466 5.988-25.634 13.156-36.75 5.544-8.931 5.227-24.234 6.5-34.531.269-1.149.568-1.864.844-2.406zm2.219.125c1.757.016 3.56.09 5.375.219-.018 4.875.257 12.611 6.219 13.375 7.918 1.183 10.396-4.61 13.343-9.157.802.326 1.609.663 2.375 1.031-1.305 8.653-8.593 15.831-17.75 12.594-3.74-2.377-7.99-8.114-10.219-12.937.09-1.827.312-3.546.657-5.125zm8.187.469c5.166.545 10.357 1.592 15.094 3.312l-1.625-.406c-2.624 3.664-3.153 10.308-10.531 8.969-4.15-1.918-3.48-8-2.938-11.875zm115.781 16.906c6.54 15.598 9.479 30.743 12.063 47.375-.036 4.735-.355 9.484-.719 14.25-2.145 14.142-7.76 28.77-15.281 41.906 1.601-10.058 7.735-20.62 8.375-30.625 1.59-13.29-2.813-32.307-5.625-46.813.065-.669.16-1.475.219-2.062.482-7.993.827-16.024.969-24.031zm-28.53 9.875c2.614 7.271 5.574 14.963 6.437 22.375 1.322 9.237 1.86 19.409 3 29.281l-12.625-.719c.061.448.09.9.125 1.344-9.147-.442-28.146.415-24.531-12.906 3.042-2.16 5.791-4.58 8-7.094 7.98-9.642 13.985-21.179 19.593-32.281zm-46.095 2.562c-.5.036-.965.224-1.343.594.312.21-.187.166.125.375 3.5-1.115 3.367 1.205 2.562 2.938 1.056.944 2.659.835 3.969.625 1.202-.525 1.337-2.046 1.531-3.188.044-.096.065-.113.094-.156-.05.013-.128-.023-.219-.094-1.847 1.469-1.25 3.317-4.969 2.594 3.026-1.301.419-3.84-1.75-3.688zm-5.718.5c-2.062.158-4.18 2.468-1.344 3.688-3.72.723-3.153-1.125-5-2.594-.076.059-.14.097-.188.094.03.043.05.06.094.156.195 1.142.298 2.663 1.5 3.188 1.31.21 2.913.319 3.969-.625-.804-1.733-.907-4.053 2.594-2.938.312-.21-.187-.166.125-.375a2.089 2.089 0 00-1.344-.594 2.743 2.743 0 00-.406 0zm-17.281 11.969l-.97.531c.863 2.613.472 5.501-2.312 7.406 1.2-.694.491.644 1.406-.25 1.4-.376 2.394-1.506 2.75-2.28 1.351 1.066 2.747 2.165 3.438 2.718 3.476 7.2 8.173 9.63 18.375 9.031 11.808-.327 10.394-3.267 15.375-7.812.032.033.111.052.188.031 2.107.01 4.184-.751 5.28-2.313.333.462.818.85 1.47 1.188l.312-.625c-.756-1.067-1.034-1.984-1.156-3.313l-.875.063c-.317.773-.33 1.48-.063 2.125-1.471 1.56-3.585.821-4.875 1.188-3.365-2.285-4.765-4.438-10.719-4.563-2.791.083-6.401 1.72-8.25 2.313-1.314.16-4.218-1.336-5.562-1.47-3.863.02-4.511 1.225-8.156 2.5-1.26.065-3.207-1.01-4.594-1.53.368-1.482-.438-3.357-1.063-4.938zM140.25 176c3.568.373 4.994 2.02 8.438 3-6.01 3.103-6.77 6.46-13.844 6.75-6.374.222-13.622-1.035-16.469-6.906 4.004-.148 10.384 2.32 14.031 2.25 4.674.286 8.497-2.73 12.844-1.344.515-.214-.316-.349.094-.813-5.198-.65-7.967 1.622-13.094 1.063-7.318-1.077-10.65-1.426-13.75-1.469-.135.12-.16.188-.156.219-.027-.054-.069-.1-.094-.156.086-.019.165-.043.25-.063 2.594-.59 4.783-1.535 7.75-1.406 1.352.085 3.945.738 5.281.625 3.306-.495 5.328-1.541 8.719-1.75zm67.844 5.406c1.66 13.397 5.582 28.069 2.687 41.313a161.299 161.299 0 01-.844 3.844c-2.815-9.9-2.902-31.238-1.843-45.157zm-56.344 15.156l-.094.125c-.667 12.98 14.49 12.541 26.875 13.688-.294 14.97-14.083 28.285-16.281 41.719-11.88.94-21.372 1.04-30.031.969l-.906-5.25-1-1.625-1.125 6.875c-10.871-.137-20.62-.476-32.25.343 4.567-15.178 7.688-32.115 6.03-46.781 5.648.21 10.811.418 14.313-4.938.564-1.117.462-3.392.938-4.593.349.45.24 1.09.969 1.406 4.837 2.346 9.081 5.124 15.312 4.656 5.724-.623 11.847-3.154 17.25-6.594zm48.5 4.688l5.156 17.375c-2.283-3.037-4.969-5.689-6.656-7.594l.281-3.219a190.97 190.97 0 001.219-6.562zm-100.313 3.063c5.046 16.602.914 34.81-7.562 50.343-6.037-.506-14.429.016-20.313-.031-.033-.036-.061-.061-.093-.094 5.837-14.495 8.373-31.218 7.281-46.844 6.786-.937 14.028-3.014 20.688-3.375zm91.22 5.187h.062c.5 3.977 1.107 7.892 1.937 11.656-3.466 11.87-5.548 23.244-3.406 32.375-5.867.36-17.316.63-23.625-.344 4.61-14.736 11.513-26.82 15.344-43.406 3.02.083 6.44-.273 9.687-.281zm6.593 4.156c5.125 4.035 8.333 10.927 11.188 16.969-1.842 7.364-3.839 14.352-5.094 22.188-4.11-.207-7.95-.538-10.938-1.063-1.653-10.154-.502-20.143 2.25-30l.344.406c.797-2.57 1.535-5.468 2.25-8.5zm-120.563 1.25c1.009 13.236-2.647 25.797-8.5 38.406-1.086-.21-2.45-.29-3.843-.343-.477-13.767 3.774-26.377 12.344-38.063zm143.063 8.625c-.26 5.034-.34 10.025.031 14.906-1.557-1.57-3.173-2.967-4.812-4.125 1.701-3.525 3.355-7.125 4.781-10.78zM209.281 226c.293.272.528.493.656.594-.098.425-.212.828-.312 1.25a11.804 11.804 0 00-.344-1.844zm4.813 11.125c6.818 3.036 9.908 10.825 14.719 16.25-5.018-.206-15.025-.118-24.063-.531l2.25-.531c1.972-4.912 4.533-9.976 7.094-15.188z"/>
 <path transform="translate(-423.28 -520.84)" d="m555.47 739.21-4.875 4.125 1.25 8.5 5.125 3.5 5.125-3.75v-9.25l-6.625-3.125z" fill="url(#H)" fill-rule="evenodd"/>
 <path d="M112.811 203.152l-2.694 1.395c2.4 2.716 6.845 6.06 9.6 9.668 2.421 3.169 5.034 6.032 8.063 7.25l-.781.656 1.062 8.938 5.625 4.062 5.438-3.969.187-9.968-1.25-.594c8.589-2.316 13.343-9.349 17.313-16.594l-1.229-.854c-2.65 8.72-8.644 15.314-18.468 16.495l-3.272-1.703-3.157 2.13c-2.918-.95-6.18-3.12-8.718-6.443-2.712-3.55-5.22-7.642-7.719-10.469zm19.438 15.782l6.062 2.875.53 8.864-5.155 3.76-5.01-3.718-1.275-8.12 4.848-3.661z" fill-rule="evenodd"/>
 <path transform="translate(-423.28 -520.84)" d="m555.6 741.59-3.25 2.374 4.125 4.375-0.875-6.75z" fill="url(#I)" fill-rule="evenodd"/>
 <path transform="translate(-423.28 -520.84)" d="m552.4 743.91 0.558 7.847 3.265-3.92-3.823-3.927z" fill="url(#J)" fill-rule="evenodd"/>
 <path transform="translate(-423.28 -520.84)" d="m555.6 741.79 0.5 5.426 4.177-3.963-4.677-1.463z" fill="url(#K)" fill-rule="evenodd"/>
 <path transform="translate(-423.28 -520.84)" d="m555.99 747.21 4.11-4.051 1.046 8.295-5.156-4.244z" fill="url(#L)" fill-rule="evenodd"/>
 <path transform="translate(-423.28 -520.84)" d="m556.47 747.35-3.463 4.324 4.42 2.036-0.957-6.36z" fill="url(#M)" fill-rule="evenodd"/>
 <path transform="translate(-423.28 -520.84)" d="m556.47 747.46 4.75 4-4.125 2.375-0.625-6.375z" fill="url(#N)" fill-rule="evenodd"/>
 <path transform="translate(-423.28 -520.84)" d="M552.407 743.902v.031l-.062.031.625 7.782c3.466-1.948 2.307-6.457 7.156-8.344l-4.5-1.625-3.219 2.125z" fill="url(#O)" fill-rule="evenodd"/>
</svg>
