<?xml version="1.0" encoding="UTF-8"?>
<svg width="256" height="256" xmlns="http://www.w3.org/2000/svg" xmlns:xlink="http://www.w3.org/1999/xlink">
 <defs>
  <linearGradient id="u" x1="143.59" x2="168.71" y1="61.158" y2="61.158" gradientUnits="userSpaceOnUse" xlink:href="#b"/>
  <linearGradient id="h">
   <stop stop-color="#5a4545" offset="0"/>
   <stop stop-color="#846666" offset="1"/>
  </linearGradient>
  <linearGradient id="f">
   <stop stop-color="#737373" offset="0"/>
   <stop stop-color="#a2a2a2" offset="1"/>
  </linearGradient>
  <linearGradient id="e">
   <stop stop-color="#6c5353" offset="0"/>
   <stop stop-color="#987878" offset="1"/>
  </linearGradient>
  <linearGradient id="b">
   <stop stop-color="#c8c800" offset="0"/>
   <stop stop-color="#ffff37" offset="1"/>
  </linearGradient>
  <linearGradient id="a">
   <stop stop-color="#222" offset="0"/>
   <stop stop-color="#333" offset="1"/>
  </linearGradient>
  <linearGradient id="i" x1="87.473" x2="172.74" y1="147.26" y2="185.76" gradientUnits="userSpaceOnUse" xlink:href="#a"/>
  <linearGradient id="j" x1="91.324" x2="160.82" y1="73.628" y2="120.39" gradientUnits="userSpaceOnUse" xlink:href="#a"/>
  <linearGradient id="k" x1="73.694" x2="103.79" y1="229.5" y2="244.9" gradientUnits="userSpaceOnUse" xlink:href="#a"/>
  <linearGradient id="l" x1="155.69" x2="187.78" y1="222.9" y2="237.39" gradientUnits="userSpaceOnUse" xlink:href="#a"/>
  <linearGradient id="m" x1="80.321" x2="96.642" y1="219.14" y2="227.39" gradientUnits="userSpaceOnUse" xlink:href="#b"/>
  <linearGradient id="n" x1="159.54" x2="185.4" y1="207.86" y2="214.46" gradientUnits="userSpaceOnUse" xlink:href="#b"/>
  <linearGradient id="o" x1="94.258" x2="145.42" y1="137.63" y2="150.1" gradientUnits="userSpaceOnUse" xlink:href="#b"/>
  <linearGradient id="p" x1="147.8" x2="172.74" y1="140.56" y2="144.05" gradientUnits="userSpaceOnUse" xlink:href="#b"/>
  <linearGradient id="q" x1="82.287" x2="112.05" y1="106.45" y2="110.85" gradientUnits="userSpaceOnUse" xlink:href="#b"/>
  <linearGradient id="r" x1="113.33" x2="165.41" y1="104.53" y2="99.943" gradientUnits="userSpaceOnUse" xlink:href="#b"/>
  <linearGradient id="s" x1="88.023" x2="109.84" y1="74.178" y2="71.61" gradientUnits="userSpaceOnUse" xlink:href="#b"/>
  <linearGradient id="t" x1="109.66" x2="136.07" y1="64.183" y2="68.218" gradientUnits="userSpaceOnUse" xlink:href="#b"/>
  <linearGradient id="v" x1="121.4" x2="156.06" y1="22.006" y2="46.579" gradientUnits="userSpaceOnUse">
   <stop stop-color="#a00" offset="0"/>
   <stop stop-color="#ff1919" offset="1"/>
  </linearGradient>
  <linearGradient id="w" x1="137.72" x2="169.63" y1="44.195" y2="68.585" gradientUnits="userSpaceOnUse">
   <stop stop-color="#e9c6af" offset="0"/>
   <stop stop-color="#f1dbcd" offset="1"/>
  </linearGradient>
  <linearGradient id="x" x1="128.92" x2="158.08" y1="50.521" y2="50.521" gradientUnits="userSpaceOnUse" xlink:href="#a"/>
  <linearGradient id="y" x1="64.877" x2="71.241" y1="137.21" y2="148.87" gradientUnits="userSpaceOnUse" xlink:href="#e"/>
  <linearGradient id="z" x1="126.4" x2="131.17" y1="104.06" y2="117.32" gradientUnits="userSpaceOnUse" xlink:href="#e"/>
  <linearGradient id="A" x1="137.18" x2="142.66" y1="113.78" y2="126.33" gradientUnits="userSpaceOnUse" xlink:href="#b"/>
  <linearGradient id="B" x1="153.09" x2="157.51" y1="99.376" y2="109.98" gradientUnits="userSpaceOnUse" xlink:href="#f"/>
  <linearGradient id="C" x1="185.79" x2="187.74" y1="88.858" y2="95.222" gradientUnits="userSpaceOnUse" xlink:href="#f"/>
  <linearGradient id="D" x1="216.46" x2="222.74" y1="73.832" y2="102.2" gradientUnits="userSpaceOnUse">
   <stop stop-color="#b1e5ff" offset="0"/>
   <stop stop-color="#ceeeff" offset="1"/>
  </linearGradient>
  <linearGradient id="E" x1="155.25" x2="163.88" y1="111.12" y2="132.25" gradientUnits="userSpaceOnUse" xlink:href="#h"/>
  <linearGradient id="F" x1="160.91" x2="181.5" y1="98.619" y2="105.74" gradientUnits="userSpaceOnUse" xlink:href="#h"/>
  <linearGradient id="G" x1="186.75" x2="194.68" y1="97.938" y2="103.81" gradientUnits="userSpaceOnUse" xlink:href="#b"/>
  <filter id="H" x="-.12" y="-.14" width="1.24" height="1.279">
   <feGaussianBlur stdDeviation="1.966"/>
  </filter>
  <filter id="I" x="-.167" y="-.083" width="1.335" height="1.166">
   <feGaussianBlur stdDeviation="1.756"/>
  </filter>
  <filter id="J" x="-.042" y="-.192" width="1.084" height="1.383">
   <feGaussianBlur stdDeviation=".915"/>
  </filter>
  <filter id="K" x="-.09" y="-.38" width="1.18" height="1.76">
   <feGaussianBlur stdDeviation="1.464"/>
  </filter>
  <filter id="L" x="-.073" y="-.273" width="1.146" height="1.546">
   <feGaussianBlur stdDeviation="1.464"/>
  </filter>
  <filter id="M" x="-.072" y="-.37" width="1.143" height="1.739">
   <feGaussianBlur stdDeviation="1.008"/>
  </filter>
  <filter id="N" x="-.054" y="-.146" width="1.107" height="1.292">
   <feGaussianBlur stdDeviation="1.123"/>
  </filter>
  <filter id="O">
   <feGaussianBlur stdDeviation=".722"/>
  </filter>
 </defs>
 <g>
  <path d="m76.103 217.49 8.986-20.539s2.2-2.934 3.667-4.951 5.318-15.587 5.685-16.504 4.035-17.605 4.035-17.605l43.094 1.284 1.834-7.152 1.65-12.837 1.65-3.484 10.454 17.971 2.934-0.183 6.051-2.934 2.017-0.734 2.201-2.017 1.65 5.868 2.935 8.803 5.684 10.086 4.218 4.95 2.2 3.118-1.1 16.321-0.183 10.086-7.335 0.917-14.854 2.384s-6.785 2.567-6.052 1.834c0.734-0.734 5.318-19.989 5.318-19.989l-6.785-6.785-16.137-18.154-6.785-6.602-5.685 11.003-6.969 15.037-5.501 9.903-4.034 10.269-1.1 3.484-1.651 1.834-2.017 5.318h-21.823z" fill="url(#i)" overflow="visible"/>
  <path d="M144.688 144.138h-4.768l-26.04-1.65-19.072-1.101 1.284-6.785-7.336-2.017-3.117-15.221-1.467-11.37s-1.467 1.284-1.284 0c.184-1.283-.917-8.252-.917-8.252l2.751-12.653 3.851-8.986 1.834-2.75 13.02-7.886 6.418-5.868 5.318-4.768 15.221 8.619 12.653 1.65 1.1-.917 1.651-2.934 7.335-3.484 2.568-.183 7.151-3.485 3.668-.366 1.65 2.934 2.751 1.1 2.2 5.135-.733 3.3 8.252 9.72 8.62 11.003 8.618 11.736-.733 4.401-4.952 7.152-2.75 1.1 2.017 1.1-4.768.367-5.868-.183 3.484-1.284-7.519-.183-11.186-1.65-4.034-1.1.733 1.283 2.751 2.017-.367 3.484.55 2.934.917 3.485-1.283 3.484-.367 1.65 3.484 7.702-17.238 8.436-4.4-7.335v2.017z" fill="url(#j)" overflow="visible"/>
  <path d="M74.453 229.593l-2.751 2.017s-3.851.184-3.851 4.768c0 4.585-.734 5.685.55 7.702 1.284 2.017 3.118.917 3.118.917l2.2 2.017 4.951 1.467 6.602 1.284 13.204-1.1 6.418-2.017 3.484-4.035 1.1-5.685-4.767-11.553-1.65.917-5.319.55-9.72.917-8.435.734z" fill="url(#k)" overflow="visible"/>
  <path d="M157.158 220.79l-1.65 4.585-1.468 7.152.367 3.668 2.384 3.667 5.685 3.118 5.134.55 10.27-1.65 6.051-1.65s8.62-3.302 9.536-3.302c.917 0 9.536-2.934 9.536-2.934l.55-6.051s-1.65-2.2-2.567-2.751c-.917-.55-4.035-3.118-4.035-3.118l-11.553-1.65-3.117-.917-9.353 1.467-5.868 1.1-5.868.734z" fill="url(#l)" overflow="visible"/>
  <path d="M76.287 217.673l-.917 5.318-1.834 6.969 3.484-.734 4.768-1.283 9.169-.55 7.885-.55 4.402-.367 2.2-2.2.734-6.603-2.2-.55-11.004.184h-8.802z" fill="url(#m)" overflow="visible"/>
  <path d="m158.26 211.44-2.2 6.602 2.017 3.851 4.034 0.184s8.619-0.734 9.536-0.734 8.435-2.017 8.435-2.017l4.401 1.834 0.917-14.304s-8.619 1.467-10.086 1.467-17.054 3.117-17.054 3.117z" fill="url(#n)" overflow="visible"/>
  <path d="M94.625 140.653c0 .734-.55 7.336-.55 7.336l-.55 5.318-2.568 4.217 3.851.184h5.135c.733 0 15.587 1.1 15.587 1.1l13.387.55 12.653.184s2.017-6.235 2.384-6.969c.367-.733 1.467-8.435 1.467-8.435h-6.051l-14.487-.734-14.304-1.1-13.57-1.467z" fill="url(#o)" overflow="visible"/>
  <path d="M150.74 143.404l11.369-5.501 6.235-4.035 1.1 5.502 3.301 6.785-4.034 2.2.917 1.467-4.585.917-4.401 2.384-2.2 1.1-3.852-4.767z" fill="url(#p)" overflow="visible"/>
  <path d="M82.521 95.725l4.402 1.284 9.169 2.75 8.802 2.018 8.069.733 2.75 8.069-.366 6.602-15.771-.917-10.82-1.467-3.85-1.467-1.1-7.52s-1.285-4.217-1.468-4.95c-.183-.734.183-5.135.183-5.135z" fill="url(#q)" overflow="visible"/>
  <path d="M113.33 102.143l7.518-1.834 15.954-3.3.734-1.1 8.619-2.018 4.4-1.65 15.772-1.65-2.568 4.4-.183 7.519-2.384 2.75-3.3.184h-4.402l-4.951 5.318-6.602 2.568-2.75 1.1-5.319.917s-.55-.734-1.283-.734c-.734 0-7.52 1.65-7.52 1.65l-8.618 2.201-1.65-1.1.733-4.951s.367-5.502.183-6.235c-.183-.734-2.383-4.035-2.383-4.035z" fill="url(#r)" overflow="visible"/>
  <path d="m88.39 75.186-0.184-1.283 7.336-4.402 7.151-3.667 8.436 4.768-3.851 3.85-4.951 4.218-5.685 3.851-3.484-3.3z" fill="url(#s)" overflow="visible"/>
  <path d="m114.8 54.28-5.135 2.752 2.567 2.2 9.72 5.685 13.386 9.169 1.467-0.917 2.017-1.834 2.201-4.4 1.834-1.468-4.768-1.467-7.152-1.1-3.484-1.834z" fill="url(#t)" overflow="visible"/>
  <path d="M143.587 63.633l1.834-2.75 7.152-3.118 2.2.183 3.302-2.75 4.767-1.284 4.218.183 1.65 2.568-6.234.367-4.218.916-3.301 4.035-4.218 3.85-1.1 2.568z" fill="url(#u)" overflow="visible"/>
  <path d="M109.845 41.444l-4.584 3.668-5.135 5.318-.183 3.667 1.834 2.018 5.134 1.283 2.75-.366 5.319-1.834.55-1.65 5.685-2.935 4.401-2.567 2.934-1.834 4.218-.55 4.218-2.017 6.235-3.668 9.352-7.335 4.401-2.2 2.568-4.585-2.568-2.2s-6.418 0-6.785.916c-.367.917-1.65-3.484-1.65-3.484l-8.803-5.135-5.684-2.017-.184-1.65s1.65-1.468.734-3.118c-.917-1.65-2.2-2.2-2.2-2.2l-4.952.916-4.951 2.568s-5.869 2.75-6.052 3.85c-.183 1.101-1.284 3.852-1.284 3.852l-3.667 8.435s-.917 8.252-.917 8.986c0 .733.183 5.501.183 5.501z" fill="url(#v)" overflow="visible"/>
  <path d="M114.613 53.73l5.868-2.2s4.402-2.75 5.135-3.3c.734-.55 3.118-2.201 3.118-2.201h2.017l3.3-.917 4.218-2.384 5.135-3.668 6.235-4.584 3.117-1.65 1.284 3.667.55 1.834 3.851 4.217-1.283 2.935-.55 5.318-.917 4.034-3.485 3.117-7.518 4.585-.55 1.834-.734.917-5.501-1.65-5.135-.55h-2.75l-6.052-3.302-6.785-4.218z" fill="url(#w)" overflow="visible"/>
  <path d="M128.917 46.212l4.218-1.1 4.4-1.834 4.585 3.85 6.419 4.769 3.484 2.384 3.85.55 2.202 1.1-2.935 1.834h-2.384l-6.785-2.567-6.968-3.118-6.052-3.3z" fill="url(#x)" overflow="visible"/>
  <path d="M42.25 143.924l26.163-11.844 10.96-5.657 6.894-4.066.884 5.833.707 3.89 6.894 2.298s-18.208 10.076-19.268 10.606c-1.061.53-24.926 15.38-24.926 15.38s-12.197-3.005-8.308-16.44z" fill="url(#y)" overflow="visible"/>
  <path d="M115.082 112.28l9.192-4.596 5.48-1.59 4.596-2.652 5.304-1.768-.354 3.535 1.768 4.95 4.242 1.414-.176 1.061-3.36.177-1.944 1.414-5.126.177-4.596.707-14.142 3.005-1.238-2.121s.177-.53.354-3.712z" fill="url(#z)" overflow="visible"/>
  <path d="M133.643 114.932c.884 0 4.42-.353 4.42-.353l4.242-1.591 3.89 2.475 2.12 6.894.708 6.54-4.95 1.061-4.243 2.122-3.358.176s.883-3.005.883-3.889c0-.884-.883-4.95-1.06-5.833-.177-.884-2.652-7.602-2.652-7.602z" fill="url(#A)" overflow="visible"/>
  <path d="M138.416 101.674l5.303-1.591 7.072-2.475 6.363-2.828 3.713-.707 7.07-.708.531 3.36-4.42 4.772-1.06 1.238s-3.005 2.474-4.066 2.474c-1.06 0-3.359-.176-3.359-.176l-3.005 1.237-2.121 2.829-2.121 2.651h-3.182l-2.475-1.237-2.122-.884z" fill="url(#B)" overflow="visible"/>
  <path d="M184.025 88.062h4.242l1.945 4.066 1.59 4.42-3.358.176-3.712-.177 1.414-4.242z" fill="url(#C)" overflow="visible"/>
  <path d="m190.83 83.82 10.872-5.392 29.787-14.673c9.19-1.894 19.821 26.622 3.536 36.063-9.749-2.54-21.7-2.14-32.704-3.005-11.33-2.792-13.034-6.143-11.49-12.994z" fill="url(#D)" overflow="visible"/>
  <path d="M142.75 112.875l4-1 3.875-4.25 3.75-2.5 2.75.25 2.125 2.875.5.75 3.125 1 1.875 1.25.25 1.75-.5 2.375.5 2.75 1.25 2.25-.375 4.75L161 127.25l-4 2.25-7.625 1.125-1.125-1.875.375-2.625-.5-5.625-3.125-5.75z" fill="url(#E)" overflow="visible"/>
  <path d="M167.375 89.5l.375 4.5.125 3.5-2.375 2.25-3.125 4.5s-1.25 0-1.25 1.375-.875 1.625.875 2.625 11.625 3.125 12.125 2.5 2.625-1.75 2.625-1.75l4.75-2.5 3.125-2.5 3.125-.5s0-3.25-.125-3.875-3.125.125-2.75-2 1.5-4.625.75-6.625S182 86.375 182 86.375l-6.875 1z" fill="url(#F)" overflow="visible"/>
  <path d="M174 110.5l6.25.5h4l5 .375s3.5-1 3.75-1.625 2-3.625 1.625-4.75-.625-4.5-.625-4.5l-2.625-4.25-6 .125-1.125 2.125 3.25 1.125v4.5l-3.375.75-5 2.875-.875 1-3.75.5-.25 1.75z" fill="url(#G)" overflow="visible"/>
  <path d="m98.288 158.07-1.06 5.126-2.83 10.43-3.358 13.435s-2.652 3.005-0.884 4.066c1.768 1.06 12.198 2.298 13.612-7.425 1.414-9.722 4.42-14.319 10.607-16.97 6.187-2.652 16.793-6.01 13.965-7.071-2.829-1.061-28.284-1.415-30.052-1.591z" fill-opacity=".174" filter="url(#H)" overflow="visible"/>
  <path d="m133.64 161.6 1.238-2.121h6.717s1.945-2.121 1.945-3.536c0-1.414 2.298-17.147 2.298-17.147l1.06-2.652s3.006 5.48 3.536 6.541c0.53 1.06 3.89 5.834 3.89 5.834l2.827 5.126s-0.883-1.237 1.238 9.193-4.596 7.955-1.945 15.202c2.652 7.248 1.415 9.016 1.415 9.016l-7.602-7.601c-1.06-1.061-9.546-11.137-10.076-11.844s-6.54-6.01-6.54-6.01z" fill-opacity=".161" filter="url(#I)" overflow="visible"/>
  <path d="m96.167 135.08 5.303 1.06 7.424 0.53 11.137-0.353 11.314-2.121 4.243-1.414 5.303-0.884 3.712-2.829 3.536-0.353s-1.591 0.53-4.243 4.42c-2.651 3.888-6.717 7.07-12.374 6.54s-25.28 3.359-35.355-4.596z" fill-opacity=".293" filter="url(#J)" overflow="visible"/>
  <path d="m70.5 245.25 7 3.25 11 1.5 14-2.25 4-3 3-4s-3.75 5-39 4.5z" fill-opacity=".347" filter="url(#K)" overflow="visible"/>
  <path d="M155.25 237.75l5.25 4.75s6.75 1.25 8.5.75 13.25-2.5 13.25-2.5l20-6.75 1-3.5s-17.75 9.5-48 7.25z" fill-opacity=".347" filter="url(#L)" overflow="visible"/>
  <path d="M162.458 108.922l3.712.53 4.95 1.06 6.894.178 7.955.707 4.596-.354 2.829-1.414 2.828-4.773s-5.303 5.303-33.764 4.066z" fill-opacity=".298" filter="url(#M)" overflow="visible"/>
  <path d="m110.84 58.717s1.945 0.884 6.717 6.01c4.773 5.127 6.188 7.779 11.137 9.37 4.95 1.59 8.662 3.535 10.784-0.707 2.121-4.243 3.359-6.364 5.657-5.657s3.535 4.596 5.303 3.005 10.607-13.258 10.607-13.258l-7.425 5.657-5.127 4.242-3.182-2.475-2.828 0.53-4.42 5.48-2.12 1.769-1.415 0.53-9.016-5.834-7.424-4.773z" fill-opacity=".219" filter="url(#N)" overflow="visible"/>
  <path d="M114.198 55.005l7.07 4.066 8.486 4.242s2.829.884 4.066-.883c1.237-1.768-2.652-1.768-1.237-6.895 1.414-5.126 5.126-11.49 6.01-12.55.508-.61-7.5 3.422-10.288 2.746 0 0-6.917 5.212-7.743 5.738-1.945 1.238-1.591-1.06-6.364 3.536z" fill-opacity=".194" filter="url(#O)" overflow="visible"/>
 </g>
 <path d="M131.608 6.973c-2.751.077-5.634.572-7.86 2.248-2.508 1.603-4.874 3.456-7.495 4.887-.171.191-.678.712-.223.855 1.113-.2 2.082-.933 3.06-1.495 2.999-1.844 5.675-4.362 9.051-5.518.95-.343 1.98-.424 2.976-.524.883-.385 1.642.455 2.04 1.14.49.8 1.26 1.847 2.334 1.442-.57-1.533-1.794-3.31-3.66-3.046l-.223.01zm1.958 3.188c-.435-.042-.6.268-.536.676.042.878.125 1.976.842 2.55.543.206.742-.584.834-.96.013-.412-.26-.842-.222-1.297.004-.53-.314-1.082-.918-.969zm-6.288 2.36c-2.235.135-4.515.172-6.607 1.021-3.96 1.356-6.604 5-8.11 8.753-1.405 3.423-1.854 7.127-2.27 10.777-.598 2.696-.598 5.489-.401 8.232-3.256 1.727-5.897 4.403-8.334 7.12-1.23 1.632-2.441 3.693-1.952 5.805.49 1.766 2.484 2.42 4.105 2.737.784.17 1.603.287 2.367.483-.292-.025-.508.376-.127.39.988.035 2.072.034 2.965-.402.407-.266.972-.203 1.428-.453 1.692-.567 3.226-1.886 5.108-1.715.813.073 1.345.695 1.93 1.174 4.128 2.434 8.344 4.718 12.487 7.128-.133.628.524.97 1.071.829.634-.074 1.361-.099 1.9.217 1.506-.176 2.79.996 4.241 1.173.392-.008.34-.542-.04-.6-1.582-1.172-3.678-.93-5.45-1.567-.367-.195.304-.422.504-.357 1.66.104 3.235.761 4.89.891 1.702.348 3.465.49 5.14.9-2.053 1.145-2.92 3.493-4.26 5.317-.338.457-.247 1.197-.714 1.537-.383.07-.746-.083-1.103-.185-.1.73-.718 1.585-1.55 1.263-1.91-.65-3.145-2.409-4.942-3.298-6.033-4.219-12.115-8.403-18.561-11.955-.299-.041-1.046.092-.676.504 1.095.818 2.557 1.128 3.594 2.048 7.082 4.13 13.632 9.127 20.462 13.667.747.424 1.608-.028 2.14-.604.447-.448 1.087-.727 1.701-.802 1.07-1.518 2.083-3.138 2.595-4.916.783-1.328 2.162-2.3 3.66-2.647-1.108-.353-2.327-.383-3.473-.642-3.152-.543-6.295-1.27-9.477-1.551-2.012.268-3.533-1.343-5.184-2.192-2.24-1.166-4.458-2.444-6.67-3.689-1.532-.898-3.033-1.87-4.4-2.989 1.887-1.435 4.634-.863 6.428-2.474 1.434-1.691 3.874-2.035 5.522-3.418.268-.195.315-.8-.166-.663-.412.08-.61.159-.179-.234.668-.812 1.89-.795 2.736-.25 1.516.889 2.775 2.202 4.44 2.829 5.665 3.065 11.472 5.91 17.61 7.908-2.415.367-3.975 2.525-6.14 3.444-.692.478-1.656.836-1.971 1.658.104.558.928.322 1.331.315 2.696-.898 4.74-3.029 7.06-4.581.866-.967 2.34-.379 3.44-.789 1.287-.446 2.493-1.671 3.944-1.233.21-.003.886-.119.536-.376-.536-.152-1.296-.076-1.734-.09 2.499-.766 4.95-1.875 7.613-1.804 1.202-.133 2.297.62 3.469.689.372-.233-.238-.636-.427-.797-3.688-.713-7.464.083-10.974 1.186-.547-.022-.55-1.027-1.199-.72-.45.209.248-.828.274-1.147.728-1.965 1.204-4.11.74-6.2-.106-1.853 1.099-3.422 1.454-5.177-3.356-1.877-5.47-5.58-5.828-9.374.416-.853 1.432-1.296 2.295-1.543.095.11-.45.43-.612.565-.273.316-.865.61-.81 1.087.402.282.929-.23 1.326-.364.808-.484 1.59-1.101 2.047-1.9 1.5-1.125 2.63-3.137 2.226-5.063-.27-1.283-1.65-1.852-2.844-1.868-1.347-.137-2.76-.116-4.075.172-.445.235.244.55.49.369 1.468-.216 3.065-.429 4.388.396 1.208.541 1.25 2.145.74 3.182-.659 1.405-1.847 2.773-3.45 2.99-.71.104-1.351.803-2.066.607-.42-.267-.047-1.11-.676-1.033-.555-.121-.852.448-.701.924.12.652.401 1.748-.491 1.958-.743.149-1.228.88-1.865 1.26-3.806 2.935-7.594 6.026-11.838 8.266-.566-.882-1.44-1.634-2.442-1.976-.488-.046-.288.577-.09.784.28.65 1.35.832 1.237 1.664-.485.86-1.647 1.04-2.527 1.405-.978.258-1.873.722-2.79 1.063-.428.051-1.118.274-1.442-.083.18-.473 1.178-.485.95-1.097-.35-.296-.83.22-1.198.274-.5.256-1.414.487-1.633-.236-.268-.332-.951-.569-1.358-.3-.329.481.39.888.746 1.072.35.032.567.303.37.618-.975 1.437-2.862 1.955-3.935 3.323-2.232 1.554-4.801 2.453-7.32 3.45-4.048-.765-7.966.863-11.796 1.921-.141.111.596.262.829.234 2.174-.144 4.134-1.318 6.277-1.602 1.261-.441 2.624-.371 3.938-.203-.606.213-1.426-.162-1.9.338-.15.258.2.645-.287.631-2.007.722-3.925 1.679-5.95 2.353 2.415.6 4.384-1.48 6.696-1.626-.18.216-.796.472-1.156.684-2.088 1.047-4.473 2.064-6.836 1.545-1.164-.078-2.358-.276-3.32-.979-1.378-.867-2.265-2.711-1.576-4.323.481-1 1.189-1.88 1.818-2.793 1.988-2.664 4.584-4.757 7.295-6.67-.104 1.487-.634 3.234.312 4.54.603.704 1.709.912 2.564.657.144-.36-.561-.39-.775-.56-.676-.264-1.706-.89-1.291-1.761.051-.324-.032-.877.446-.95.32.012.682-.271.42-.6-.434-.687-.243-1.608-.426-2.39-.177-2.075-.397-4.299.459-6.244.051-5.712 1.056-11.662 4.408-16.419 1.23-1.824 2.908-3.324 4.956-4.155 2.473-1.084 5.29-1.54 7.954-1.048 2.89.609 5.776 1.267 8.53 2.375 3.544 1.38 6.91 3.363 9.618 5.997 1.248-.02 1.612 1.466 1.882 2.445.177.909.562 1.752.924 2.58.352 1.015.245 2.317 1.147 3.029.333.21.752.181 1.116.076-1.164-3.043-1.617-6.46-3.64-9.093-1.131-1.184-3.098-1.051-4.145-2.378-4.96-3.32-10.853-4.872-16.7-5.714l-.409.032zm12.48 15.533c-4 1.984-7.627 4.73-11.842 6.255 1.53.302 3.181-.16 4.432-1.033 1.806-1.412 4.01-2.33 5.962-3.565.71-.595 1.633-.821 2.423-1.281.263-.406-.48-.381-.72-.39-.082.016-.182-.024-.256.014zm5.362 0c-5.705 3.64-11.63 6.986-17.86 9.609-2.231.243-4.358 1.18-6.62 1.16.196.245 1.034.3.472.58-.455.323.664.144.931.205 2.344.017 4.552-.842 6.635-1.82 6.201-2.67 12.085-6.042 17.813-9.613-.455-.036-.92-.123-1.371-.121zm6.9 5.369c.58 3.49 2.526 6.85 5.598 8.697-.825 2.203-1.496 4.552-1.173 6.925-.072 1.672-.105 3.537-1.2 4.89-.751.892-2.061.434-2.98.054-2.251-1.021-3.784-3.156-5.896-4.448-2.825-2.122-5.838-4.024-8.48-6.356 5.104-2.696 9.51-6.471 14.105-9.928l.015.1.01.066zM123.4 38.69c-.004-.016-.078-.067 0 0zm0 0c-.02.007-.033-.017 0 0zm-.019.006v.006-.006zm13.385 5.28c.845-.072 1.47.55 1.944 1.13 4.018 2.904 8.06 5.81 11.848 8.97 1.263.816 2.948.5 4.19 1.269.265.16.145.658.548.49.444-.07.841-.396 1.275-.082-2.065.557-4.21-.572-6.255.025 1.281.253 2.597.44 3.894.65.582.091 1.278.075 1.794.052-.661.387-1.43.633-2.034 1.09-2.025-.421-3.947-1.256-5.885-1.97-5.148-2.053-10.114-4.552-14.89-7.359-.963-.784-2.284-1.125-3.137-2.04.053-.308.617-.211.873-.277 2.155.088 3.753-1.766 5.835-1.949zm-21.01.363c-1.415.48-2.998.182-4.416.59.299.23 1.042.047 1.514.098.21.014 1.36-.056.72.142-.257.106-1.515.374-.72.445.504.002 1.209.082 1.505.434-.533.013-.438.233-.083.382.354-.137.603.063.79.325.476.221 1.042.222 1.563.115-.301-.646-1.158-.998-1.263-1.721.323-.51 1.223-.07 1.537-.587-.27-.28-.796-.11-1.148-.223zm-.804 2.053c-.295-.015.108-.202 0 0zm4.827 5.388c-.107-.084.23-.134 0 0zm-.166.083c.007-.156.252-.14 0 0zm-.166.013c.178-.081.137-.063 0 0zm-.172.146l-.026-.063.026.063zm-1.097.39c.204-.09.47-.207 0 0zm-.038.019l.032-.02-.032.02zm-.14.063c.174-.083.129-.061 0 0zm-.25.045v-.02.02zm0 0c-.01 0-.04 0 0 0zm.052 0h-.051.05zm-.09.006c.037.107.496-.154 0 0zm.09.044l.019-.012-.02.012zm-.02.02l.007-.006-.006.006zm-3.436 1.677c-.212.1-.664.008-.051-.02l.05.02zm52.76.841c-.448-.042-.49.488-.186.714.279.433.932.83.804 1.397-.318.295.287.657.331 1.04.706 1.758.696 3.715 1.008 5.566-.293.744.147 1.936 1.033 1.938.654-.304.21-1.22.205-1.761-.32-2.278-.58-4.59-1.276-6.783 1.295-.127 1.972 1.266 2.378 2.288.47 1.387.961 2.785 1.084 4.248-.48-.204-1.195.012-1.116.631-.042.885.625 1.828.262 2.665-.218.278-.77.048-.568.542.509 1.552 2.226 2.588 2.2 4.33a78.316 78.316 0 002.794 7.36c.253.594.633 1.257.86 1.797-.372.1-.018.354.236.261.393.021 1.198-.183.911-.72-.636-.676-.826-1.693-1.275-2.513-1.345-3.106-2.673-6.39-3.348-9.635 1.849 1.88 3.14 4.243 4.962 6.16 3.383 4.14 7.144 7.97 10.285 12.294-.36-.121-.694-.288-1.02-.42-.205.05-.983-.301-.95.229.173.55.765.802 1.16 1.058-1.113.185-2.266.003-3.38-.127-.768-1.436-2.582-1.784-4.08-1.486-1.78.277-3.5.878-5.306.976-3.044.44-5.95 1.454-8.94 2.11.07-1.109.38-2.336-.057-3.386-.336-.523-1.17.109-1.09.593-.134 1.39.199 2.879-.281 4.202-.257.402-.9.102-1.295.204-3.046-.102-6.099-.027-9.12.403-2.437.308-4.851.768-7.248 1.3.472-2.732-.433-5.415-.823-8.092-.757-5.71-.334-11.503.498-17.178.098-.391-.282-.851-.65-.53-.725.581-1.08 1.647-.827 2.544-.692 6.666-.972 13.528.737 20.068.627 1.278-.26 2.615-.93 3.685-.22.257.026.472.267.402.454.207 1.147.89 1.6.37.02.313.104-.347.096-.51.106-.483 1.058-.331 1.504-.556 5.32-1.179 10.78-1.767 16.23-1.593-.183 1.06-.586 2.223-.243 3.271.388.427.89-.229 1.122-.53.733-1.066.517-2.536 1.071-3.647.145.01-.16.426-.135.583-.45 2.062.808 3.985 1.185 5.94.024.27-.503.01-.693.166-.566.187-1.292.635-1.256 1.295.405.413.943-.289 1.35-.397.3-.168.779-.244.901-.598 1.706 1.383 3.247 2.976 5.108 4.158-.654.123-1.467.115-1.952.599.044.432.734.295 1.046.37 3.547-.02 7.321-.223 10.388-2.187-.557-.263.151-.846.363-1.09.226-.14.431-.628.006-.632-.388.03-.886-.003-.918.293-.34.324-1.197.762-.83 1.333-2.325 1.393-5.26 1.795-7.81 1.843.391-.087 1.23-.34.93-.874-.305-.442-.937-.518-1.332-.765-.308-.475.029-1.42-.72-1.556-.376-.138-.772.334-1.02-.063-1.032-1.042-1.778-2.357-2.481-3.635-1.058-1.482-.289-3.402-.702-5.05-.032-.226-.452-.41-.05-.536 1.757-.802 3.693-1.08 5.573-1.502 2.76-.47 5.48-1.253 8.289-1.367 1.765 1.35 3.072 3.514 3.08 5.783-.074.897-.454 1.707-.625 2.583-.283 1.16-.887 2.403-.523 3.602.132.315.565.601.708.134 1.157-2.02.681-4.623 1.97-6.568-.4-.517-1.131-1.324-.631-1.995.616-.408 1.526-.308 2.149 0 1.315.959 1.627 2.706 2.222 4.152.098.608.665 1.114.564 1.74-.54.643-1.579.423-2.324.326-.103-.04-.607-.104-.488-.212.358-.114 1.133.014.97-.58-.458-.57-1.357-.366-2.01-.453-.392.062-1.114-.147-1.304.03.202.536 1.002.375 1.457.476.644-.009.765.097.092.234-.27.023-.953.34-.595.65 1.276.336 2.693.006 3.973.313.7.125 1.557-.33 1.422-1.135-.236-1.914-1.586-3.478-2.29-5.221-.247-.59-.601-1.235-.72-1.857 2.824 3.489 5.988 6.793 8.48 10.566.202.45-.169.867-.637.797-1.045.027-2.097-.502-3.124-.236-.624.33-.09 1.073.02 1.517-.21 2.001.613 4.132-.231 6.033-.4.753-1.28 1.046-1.67 1.824-.184.325-.664.882-.3 1.211.218.094-.526.364-.695.485-.568.268-1.196.039-1.799.23-.6.126-1.314.007-1.849.305.1.38.743.201 1.051.306.924.097 2.091.156 2.839.51-2.18.232-4.384.256-6.574.353-1.21.016-2.64.036-3.711-.078 1.254-.54 2.784-.327 3.966-1.04.192-.184.268-.561-.14-.435-3.612-.16-7.234-.134-10.834-.49.825-.07 1.757-.426 2.04-1.275 1.451.475 2.954-.27 3.987-1.278 1.04-.987 2.256-1.784 3.522-2.43 1.625-.753 3.382-1.015 5.104-1.29-.907-.948-.344-2.399-.274-3.559.116-.642-.01-1.642-.848-1.62-.503-.045-.49.683-.568 1.053-.165 1.26.468 2.546.134 3.774-.35.752-1.325.352-1.92.37-.303.017.397-.486.46-.67.29-.248.081-.648-.268-.58-.723-.1-.904.722-1.417 1.074-1.504 1.458-3.686 2.059-5.756 1.936-.354.22.178.428.408.325.758-.016 1.518-.144 2.276-.095-.41.218-.908.33-1.132.784-1.11 1.404-3.045 2.116-4.792 1.83-.32-.207-.8-.052-1.141.045.324.243 1.133-.003.606.504-.232.21-.019.794-.472.663-3.849.144-7.583-.958-11.357-1.524-1.071-.591-1.083-2.006-.625-3.01.472-1.169 1.277-2.182 2.098-3.112.203-1.17 1.422-1.807 2.292-2.483.284-.294.946-.469.91-.94-.806-.41-1.654.333-2.285.788-.26.161-.633.637-.86.601.027-.574.537-1.082.51-1.651-.132-.31-.917-.27-.592-.74.482-.58.893-1.3.74-2.11-.022-.39-.308-1.174-.804-.868-.594.634-.462 1.67-.843 2.443-.185.702-.69 1.69-.005 2.27-.378.887-.094 1.982-.536 2.812-.843.196-1.681.47-2.414.972-1.15.797-2.497 1.56-3.95 1.26-2.59-.217-4.977 1.392-6.344 3.485-1.364 1.207-2.926 2.186-4.304 3.395.639.277 1.343-.055 1.906-.313-.575.506-1.615.727-2.168.83.28-.21-.208-.575-.044-.932 0-.586.678-1.255.28-1.804-.455-.252-1.14-.094-1.275.465-.318.761-.303 1.94.465 2.391-.064.07-.965.115-.612.434 1.428.444 2.994.005 4.394-.376.54-.176 1.081-.364 1.517-.74-.116-.085-.904.193-.542-.064.202-.108.586-.562.153-.625-.319.007.324-.328.434-.49.246-.237.788-.793.344-1.06-.51-.013-.072-.164.163-.356 1.474-1.084 2.214-3.176 4.173-3.552.526-.166.927-.293.976-.086 1.406-.09 2.046 1.394 2.587 2.454.292.68.775 1.269 1.481 1.515 1.524.746 3.571.732 4.617 2.187.264.404.375.888.408 1.365-.499 1.695-1.087 1.864-.44 2.96.288 1.032.154 1.615-.02 2.702.583-.045 1.115.37 1.116.963-.178.304.163 2.38-.196 2.618.17 1.173-.203 2.321-1.485 2.802-.624 1.079-4.86 1.845-4.026 2.704-3.275 1.057-6.835 1.17-10.01 2.589.096-.294-.347-.707.152-.65.46-.243-.222-.709-.376-.919-.469-.385-.58-1.086-.127-1.517.67-1.644-.065-3.453-.489-5.07-.5-1.83-.998-3.678-1.9-5.366-.986-2.011-2.714-4.017-5.116-4.094-.607-.18-.82.508-1.308.705-2.017 1.057-4.43.507-6.623.823-1.166.184-2.29.543-3.47.695-4.706.866-9.317 2.178-13.978 3.23-.81.198-.96-.83-1.23-1.343-.088-.245-.255-.505-.37-.701.517-.346-.17-.118-.415-.172-5.952.502-11.99.344-17.912-.536-3.466-.484-6.915-1.083-10.362-1.69-1.088-1.392-.983-3.29-1.12-4.973-.113-1.39-.015-2.861-.493-4.183-.103-.309-.578-.84-.835-.402-.175.234-.183.82-.217.912-.181-1.871.175-3.736.204-5.605-1.028-.292-.888-1.578-.748-2.409.246-1.323.606-2.635.64-3.982 1.024-5.902 3.32-11.479 5.56-17.011 1.545 1.175 3.21 2.394 4.26 4.05.14.227.21.48.019.681.104.644.898.92 1.345 1.359.181.207.7.404.663.701-.763.118-.051.23.32.312 1.466.29 2.335-1.14 3.4-1.83.805-.444 1.608-.882 2.334-1.465a98.606 98.606 0 0010.085-8.386c.115-.585-.62-.925-.969-1.27-1.205-.844-2.416-1.69-3.577-2.55-1.101-.633-2.245-1.376-3.526-1.498-.242-.048-.842.163-.466.433 1.125.621 2.633.716 3.494 1.722 1.105.871 2.504 1.465 3.252 2.678.26.608-.642.641-.714 1.148-1.572 2.292-4.038 3.768-6.108 5.58-2.04.993-3.344 3.188-5.567 3.774-1.2.294-2.051-.733-2.774-1.511-1.449-1.53-2.636-3.643-4.795-4.209-.532.008-1.055-.496-1.55-.114-.994.959-1.13 2.489-1.613 3.743-.414 1.093-.969 2.125-1.316 3.252-2.31 6.245-3.777 12.858-3.734 19.544.842.233.696 1.354.746 2.04.068 1.166-.24 2.654.708 3.526.229.315.886.06.797.56.622 4.749 1.155 9.51 1.824 14.253-13.22 8.17-28.21 12.785-41.786 20.271-.585.188-1.433.42-1.581 1.097.21.458.851.076 1.173-.032 4.35-1.38 8.632-2.993 12.801-4.859 10.19-4.552 19.849-10.206 29.476-15.84.464 3.137.925 6.294 1.657 9.374.186.537.763.72 1.27.702 1.241.678 2.756.83 4.138 1.192-12.26 5.692-23.571 13.216-34.93 20.456a461.002 461.002 0 01-8.042 5.025c.756.894 2.112.505 2.73-.332 14.043-7.956 28.088-15.954 41.53-24.894.693-.028.756.372.614.968-.108 1.41-.141 2.907-.334 4.26-.36.033-.775.438-.408.734.507.201.327.7.29 1.164-.374 4.02-.76 8.046-1.272 12.048-.05.238-.355 1.344-.204.606.129-.476.032-1.456-.657-1.282-.821.295-1.276 1.294-1.09 2.137-.378.683-.439 1.53-.523 2.244-.393.1-.246.61.121.593.19.23.51.542.874.357.356-.166.66-.358 1.084-.245 10.01.254 19.998 1.01 29.979 1.782 1.649.085 3.296.365 4.944.35 4.98-.404 10.037-.907 14.992.013.827-.455 1.778-.74 2.538-1.288.016-.394-.656-.084-.899-.132-.603.061-1.498.074-1.875-.257 1.354-.626 1.757-2.275 2.168-3.596 1.172-4.747 1.274-9.692 1.628-14.555.091-1.293.173-2.588.343-3.873a88.742 88.742 0 003.38 6.313c-.229-.043-.729.187-.358.389.675.263 1.78.644 1.55 1.568 1.237 2.707 3.702 4.742 4.68 7.57.06.313.316.819-.166.897-.331.165-1.027.582-.606.99.878.455 1.965.361 2.934.35.477.006.581-.534 1.039-.535 2.32-.773 4.35-2.24 6.676-2.997.959-1.16 2.639-.286 3.845-.893.337-.184.56-.504.727-.842-.214-.03-.76-.366-.248-.312.554.08.549.714.572 1.134 2.799 7.465 4.855 15.334 9.126 22.134 1.027 1.564 2.249 3.08 3.73 4.176.307.94 1.291 1.466 1.901 2.191.562.606 1.406 1.363.982 2.273-.771 4.113-.561 8.323-.758 12.485-.108 4.447-.195 8.9-.575 13.334-4.305.142-8.66.434-12.841 1.489-4.097 1.213-8.474 1.23-12.601 2.317.278-.545.946-1.063.841-1.715-.264-.412.188-.94.174-1.394 1.122-5.2 1.525-10.561 2.887-15.695.162-1.676-1.338-2.843-2.592-3.651-1.227-.639-2.26-1.459-3.257-2.42-8.527-7.754-14.508-18.019-23.656-25.148-.31-.565-1.227.144-1.315.318.354.21-.436.225-.533.466-1.765 1.567-2.613 3.889-3.858 5.86-1.934 4.429-2.711 9.406-5.695 13.318-4.477 6.58-7.869 13.844-10.38 21.383-2.469 3.327-4.82 6.744-6.817 10.374.432.018.868-.03 1.263-.197-.208 1.432.11 3.042-.67 4.31-9.124-.245-18.24.432-27.361.504.317-.16.247-.659-.153-.504-.365.038-.8.353-1.104.376-.19-1.42.569-2.788 1.076-4.09 1.384-3.036 3.076-5.956 4.698-8.885 2.15-3.69 4.418-7.332 6.272-11.176 3.34-5.924 5.108-12.578 6.67-19.151.953-4.175 1.769-8.382 2.613-12.579.138-.848.253-1.7.3-2.56-.814-.187-1.466.515-1.485 1.289-.191 1.405.2 2.962-.585 4.21-3.041 8.502-5.09 17.31-7.424 26.02-2.155 1.221-3.451 3.415-4.712 5.484-3.683 6.482-5.969 13.623-8.564 20.584-.067.42-.365.574-.663.79-.193.23.309.578-.191.492-.37.018-.808-.083-1.123.166.393.316 1.033.047 1.486.248.373.02.686.413.376.727-.45.322-.116.885-.331 1.34-.166.93-.913 1.834-.734 2.811.072.265.473.293.25.626-.448 2.123-.74 4.447-2.086 6.184-.427.492-1.069.693-1.435 1.257-1.255 1.374-3.309 2.042-3.985 3.902-.708 1.64-.833 3.455-1.103 5.197-.875 2.08.205 5.1 2.589 5.522.493.144 1.048-.086 1.498.013 5.5 3.724 12.339 4.824 18.88 4.672 3.848-.099 7.723-.539 11.432-1.555.98-.29 1.947-.642 2.852-1.102.015.519.231 1.425.925 1.237 1.174-.584 1.79-1.885 2.493-2.927 1.177-2.1 2.337-4.267 2.902-6.613.026-3.182-1.23-6.197-2.545-9.041-.683-1.393-1.319-2.83-1.99-4.203-.083-.292-.816-.262-.51-.593.446-.527.925-1.079 1.187-1.721-.019-.387-.56-.29-.823-.306 1.08-3.39 1.404-7.024 3.014-10.234.973-1.618 2.41-3.06 2.967-4.91.105-.309-.09-.704-.452-.625 1.61-1.948 2.266-4.458 2.957-6.845 1.653-3.695 3.2-7.488 5.573-10.8.632-.93 1.6-1.614 2.629-2.059 1.329-.959 1.834-2.665 2.473-4.118 1.07-2.828 2.05-5.705 2.864-8.614.574-2.279 2.018-4.25 2.989-6.382.729-1.595 1.291-3.274 2.023-4.877.269-.739.519-1.495.554-2.287 4.917 4.105 9.397 8.696 13.294 13.771 3.068 3.996 6.254 7.962 10.234 11.094.908.836 2.077 1.415 2.822 2.397.962 1.022 2.626 1.576 2.708 3.167.033 1.306-.633 2.474-.82 3.756-1.804 7.51-4.032 14.94-5.39 22.56.054.838-.368 1.954.325 2.589.162.195.611-.01.612.198-1.237 1.256-1.558 3.115-2.06 4.763-.766 3.145-1.185 6.365-1.709 9.552-.21.086.026.418.166.268 1.833 2.839 3.77 5.898 6.976 7.307 3.562 1.522 7.57 1.216 11.328.764 4.074-.484 8.113-1.282 12.042-2.447.051-.804 1.098-.725 1.653-1.006l17.42-5.613c.048.44.216.84.254 1.275.365-.664.232-1.516.421-2.25.25-2.273.706-4.551.606-6.843-.435-.928-1.188-1.663-2.002-2.27.162.46.263.92.35 1.403a19.676 19.676 0 00-1.715-1.517c.078-.853-.818-1.272-1.518-1.416.51-.021 1.016.054 1.524.025-3.65-2.007-7.914-2.366-12.007-2.553-1.16.062-2.308-.217-3.462-.163.254-.426.142-1.255.246-1.831.448-5.94.916-11.89 1.017-17.846-.353-6.17 1.775-12.196 1.37-18.364-.163-2.35-1.18-4.81-3.36-5.938-.494-.079-.686-.537-1.003-.921-2.84-3.766-5.573-7.703-7.548-11.985-2.11-4.904-3.027-10.232-4.89-15.208.896-.966 2.344-1.312 3.2-2.283.081-.526-.71-.214-.905-.427-2.622-3.09-3.772-7.18-4.387-11.146-1.553-1.272-2.239-3.378-2.78-5.273-.257-1.008-.46-2.03-.549-3.068 1.903-2.438.791-2.857 1.237-5.717.02-1.166-1.185-2.107-1.506-3.157-.744-1.86.965-4.401-.011-6.174-1.574-1.521-4.3-1.118-5.707-2.882-.374-.395-.343-1.007-.593-1.41-.406-.204-.217-.65.153-.758.41-.333 1.325-.42 1.313-1.072-.121-.246.436-.114.555-.331.362-.204.028-.622-.3-.523.34-.17.784-.509 1.148-.344-.167.908-1.134 1.456-1.307 2.404-.467 1.45.674 2.91 2.072 3.232.895.315 1.857-.02 2.746.34 5.045 1.095 10.197 1.728 15.363 1.682.983.024 1.968.013 2.946.102-1.226.34-2.613.237-3.692.937-.323.314.096.813.504.62 3.907.132 7.82-.04 11.714-.34.312-.052.718-.476.312-.681-.731-.322-1.557-.341-2.346-.453 1.391.008 2.79-.46 3.73-1.505 1.175-1.275 1.91-2.908 2.576-4.49.379-1.513 1.707-2.746 1.83-4.354a.715.715 0 00-.433-.638c.623-.047 1.374-.547 1.084-1.256-.362-.806-1.076-1.383-1.54-2.145-1.833-2.361-3.831-4.623-5.716-6.925-.61-.744-1.577-1.438-1.493-2.504.277-.5-.377-.842-.58-1.281-4.103-5.419-9.027-10.18-13.015-15.656-1.022-1.366-2.017-2.748-3.035-4.118.807-2.618-.207-5.34-1.17-7.762-.304-1.277-1.442-2.007-2.658-2.295-.816-.218-1.531-.69-2.006-1.338-.164-.01-.328-.028-.491-.012zm-2.583 1.505c-2.108.15-4.184.65-6.248 1.05.296.083-.159.354-.448.503-.668.444-1.583.648-2.098 1.26-.112.44.829.114.574.554-.745 1.091-1.915 1.82-2.821 2.757-1.711 1.361-3.516 2.744-4.697 4.608-.187.513-.601-.498-.869-.652-1.133-1.348-2.367-3.07-4.302-3.091-.51.005.52.637.7.888 1.511 1.377 3.132 2.693 4.172 4.462.407.352 1.223.647 1.48-.02.426-1.073.059-2.606 1.153-3.315.903-.223 1.502-1.04 2.244-1.565 2.039-1.656 3.833-3.587 5.534-5.577.185-.114.665-.428.282-.619 1.987.032 3.875-.754 5.849-.854.686-.097-.163-.571-.505-.389zm-55.227 2.41c-.613.024-.761.8-1.182 1.146-3.612 4.35-8.722 7.036-13.382 10.109.484-.42 1.261-.727 1.434-1.371-.252-.39-.88-.024-1.224.038-2.518 1.803-4.876 3.832-7.492 5.497 2.083.398 3.675-1.31 5.357-2.23 2.203-1.123 4.302-2.543 6.433-3.834 3.091-2.01 6.175-4.107 8.812-6.696.569-.832 1.635-1.36 1.951-2.32.01-.361-.453-.36-.707-.339zm121.982 4.604c-9.106 4.873-18.612 8.907-27.852 13.5-2.598 1.297-5.198 2.633-7.83 3.825-.23-.002-1.127-.174-.6.166.188.038.535.2.172.3-.933.289-1.704.935-2.614 1.335-.587.4-1.486.643-1.766 1.317.076.489.752.342 1.026.087 1.772-1.02 3.43-2.193 5.293-3.067 10.614-5.59 21.666-10.313 32.373-15.703.81-.566 1.938-.748 2.602-1.473.065-.382-.583-.27-.804-.287zm-58.21 3.98c.68.163-.226.024 0 0zm58.408 9.054c-6.97 1.22-13.405 4.319-20.04 6.658-2.773 1.055-5.555 2.098-8.272 3.296 1.624.484 3.053-.61 4.47-1.2 7.657-2.731 15.102-6.146 23.02-8.104.733-.277 1.63-.151 2.34-.49-.081-.355-.689-.214-.981-.246l-.537.086zm-52.9 2.36c-.736.127-.453 1.178 0 1.491.461.462 1.127-.223.855-.74-.058-.388-.178-.82-.663-.758-.064.002-.128-.006-.191.006zm.409 4.954c-.404-.08-.876.338-.536.695.293.339.921.823 1.352.465.172-.395-.12-.9-.357-1.16-.153-.013-.306-.005-.46 0zm8.225 4.176c.242.014.654-.074.39.236-.131.373.344.653.37.912-.647.618-1.684.433-2.45.147-.45-.146-.827-.696-.465-1.103.725.047 1.432-.18 2.155-.192zm-77.41 1.575c-.405-.077-.693.392-.37.689.545.849 1.622 1.41 1.766 2.48.935 2.625 1.753 5.4 1.6 8.233.017.561-.126 1.042-.774.739-2.171-.291-4.414-1.006-6.597-.44.64.229 1.323.303 1.983.46-8.019-1.157-15.787-3.542-23.357-6.384-.238.02-.947 0-.74.39 1.121.632 2.526.692 3.674 1.296 7.34 2.588 14.91 4.672 22.68 5.405 1.125.059 2.525-.26 3.4.606.591.857-.038 1.925.19 2.876.05.87.43 1.97 1.403 2.098.3 1.2.443 2.664-.248 3.755-.184.217-.801.479-.16.402.831-.019.708 1.438 1.524 1.41.355-.116.599-.454.453-.836.033-1.274 1.52-1.632 2.48-2.028 1.183-.419 2.176-1.169 3.337-1.655.672-.495 1.558-.11 2.297-.438 1.959-.588 3.517-2.05 5.445-2.73 2.866-1.355 5.62-2.935 8.638-3.919-.39 2.443 1.36 4.557 1.473 6.931-.011.442-.342.848.088 1.201.417.732 1.347.723 2.092.649.475.006.887.156 1.257.446.572-.31.84-1.156.261-1.613-.533-.47-1.509-.885-2.117-.326-.538-2.17-1.996-4.158-1.843-6.459.066-.822.642-1.587 1.508-1.65 5.96-1.867 11.769-4.177 17.545-6.537.295-.013.749-.127.976-.013-1.299.889-2.854 1.356-4.336 1.874-.66.185-1.505.19-2.04.67.021.397.728.17 1.006.195 3.082-.076 5.377-2.808 8.462-2.771.461-.031 1.043.144 1.429-.14-.07-.243-.978-.17-.447-.25.287.038.377-.323.064-.324-1.049-.061-2.094-.22-3.124-.268-2.891.137-5.327 1.918-8.025 2.772-3.618 1.41-7.242 2.809-10.94 4 1.246-.541 2.646-.837 3.763-1.6.265-.27-.075-.372-.35-.26-2.444.365-4.53 1.796-6.816 2.626-1.842 1.085-4.04 1.117-5.963 2.001.122.426.751.287.963.306-1.244.533-2.453 1.163-3.673 1.76.233-.176.631-.776.14-.86-.952.14-1.744.8-2.602 1.204.137.223-.366.015-.89.497-2.22 1.239-4.484 2.448-6.8 3.45-1.196.033-2.123 1.074-3.296 1.104-.552-.276-.241-1.084-.21-1.575.284-1.825-.225-3.64-.594-5.414-.461.057.235-.394-.306-.242-.324.21-.643-.361-.784-.638-.054-.302-.476-1.141.107-.912 2.35.222 4.41-1.235 6.677-1.526 6.032-1.635 12.198-2.815 18.314-4.143a2.76 2.76 0 00-1.167-.363c2.44-.395 5-.44 7.193-1.658.015-.662-.791-.489-1.218-.574-.206-.026-.181.454-.434.549-1.454.92-3.365.73-4.985 1.16-1.42.303-2.934.206-4.312.644-.147.38.548.233.759.283.411.024 1.319-.024 1.41.01-7.583 1.57-15.172 3.173-22.561 5.49-.071-1.379-.058-2.777-.411-4.114-.443-2.888-1.276-5.92-3.44-8a3.805 3.805 0 00-.428 0zm76.722.032c.315.176-.383.121 0 0zm.605.128c-.464-.105.18-.226 0 0zm30.531.261c-.206-.013-.793.134-.446.35 1.565.192 3.154.203 4.71.484 5.682.706 11.356 1.527 17.053 2.068.352-.041.165-.418-.121-.383-3.88-.521-7.78-.923-11.658-1.47-3.137-.397-6.276-.85-9.429-1.062l-.1.012-.008.001zm-57.42 4.107c-.296.05.293-.063 0 0zm42.608 2.225c-.203-.036-.785.162-.421.35 1.698.186 3.417.177 5.117.373 9.096.691 18.242 1.007 27.263 2.453.28.06.67-.305.255-.421-2.122-.457-4.316-.57-6.472-.836-8.529-.83-17.092-1.3-25.633-1.932l-.102.012-.007.001zm-7.92 3.705c.788.243 1.638.33 2.468.261-1.207.976-1.425 2.676-2.003 4.05-.06.205-.474 1.116-.36.427.064-1.59.207-3.24-.233-4.783l.097.034.03.01zm-80.97 1.702c-.069.104-.073-.092 0 0zm73.605 2.449c-.534.354.165-.415 0 0zm-12.07 4.687c.015.143-.105-.051 0 0zm-25.845.478c.22-.125.273-.155 0 0zm-.261.083c.006 0 .028 0 0 0zm.006 0c-.008.012.021.006 0 0zm.006.006c.02.232.335-.137 0 0zm40.108 1.785c-.007.002.027.038 0 0zm.013.02c.2.116.839-.048.191-.003l-.102.001-.09.001zm-47.41 1.785c2.853 1.218 4.235 4.302 5.074 7.141.474 1.482.86 2.993.847 4.56.017 1.256.232 2.86-.909 3.704-1.517.852-3.334.93-4.973 1.467-.352.103-.827-.016-1.097.274.199.273.762.107.9.268-1.502.4-2.917 1.283-4.496 1.237-.69-.116-.411-1.015-.198-1.454.338-.751.033-1.636.086-2.442-.152-3.836-.596-7.719-2.126-11.272-.45-.583-.125-.914.478-1.098 1.111-.609 2.416-.576 3.658-.662 1.096-.174 1.93-.983 2.648-1.774l.093.043.016.007zm-56.043.867c7.107 1.974 14.499 2.763 21.859 3.042 2.041.106 4.129.14 6.14.312.487.706 1.442.816 2.232.905 1.547-.155 3.1-.417 4.619-.75 3.83-1.05 7.72-1.89 11.635-2.61 1.785 1.134 2.135 3.412 2.556 5.313.635 2.426 1.172 4.952 1.387 7.484.173 1.22-.235 2.419-.544 3.572a1.989 1.989 0 01-2.251 1.453c-.554-.227-.767.453-1.242.62-1.87.974-4.01 1.09-6.049 1.584-9.068 1.458-18.47 2.391-27.514.274-1.816-.432-3.657-.947-5.355-1.733a24.714 24.714 0 00-3.991-.961c-.571-3.394-2.081-6.653-2.55-10.005.364-.063.203-.465-.122-.408-.521-2.715-.872-5.459-1.218-8.2l.408.108zm29.479 3.979c-.05.033-.015-.048 0 0zm48.525 8.315c.743 2.517 2.43 4.757 2.647 7.41.134.432-.4.213-.55.543-2.219 1.912-4.938 3.199-7.533 4.581a191.848 191.848 0 01-7.878 3.752c-1.49-2.55-2.907-5.184-4.024-7.894a3.114 3.114 0 011.811-3.208c.826-.502 1.784-.703 2.753-.73 4.512-.513 9.065-1.815 12.742-4.556l.03.097.003.004zm-16.368 3.265c-.026.56.73.773 1.173.912.118.123-.694.427-.876.67-1.444 1.04-2.075 2.93-1.757 4.673-.154 1.747-1.631 3.075-1.97 4.757-.033.344.36.507.224.886.14 5.255-1.733 10.248-2.867 15.293a8.975 8.975 0 00-.195 1.573c-12.3.636-24.615-.074-36.888-.886-3.984-.132-7.973-.085-11.957.032 1.171-1.735 1.831-3.8 2.116-5.86-.002-1.368-.232-2.753.124-4.1.218-2.105.432-4.21.604-6.32 4 .865 8.11 1.046 12.178 1.389 11.578.794 23.167 1.425 34.74 2.272-.378 1.492-1.699 2.671-1.772 4.24.058.518.63.696 1.084.676.23-2.116 1.582-3.96 1.97-6.013a366.467 366.467 0 01-48.072-4.017c.139-1.587.26-3.176.383-4.764 8.753 2.485 18.029 2.08 26.971.943 3.583-.493 7.24-.914 10.615-2.261a11.47 11.47 0 013.866-1.298c1.653-.34 3.394-.487 4.908-1.261 1.53-1.21 3.523-1.375 5.41-1.562l-.012.026zm19.818 5.566c.926 3.273 1.9 6.622 3.673 9.552.29.422.593.84 1.007 1.148-1.824.79-3.317 2.151-5.114 2.997.449.19 1.169.1 1.48.14-.782.806-1.996.91-2.97 1.41a121.65 121.65 0 00-7.163 3.226c-.925-1.866-2.816-3.073-3.857-4.865-.879-1.852-2.564-3.311-3.131-5.299-.258-.576.624-.538.937-.797 5.137-2.323 10.109-5.01 15.112-7.614l.025.1.001.002zm-75.44 22.638c-.286.364-.835.126-1.244.127-.08-.243 1.3-.21 1.243-.127zm-3.03 32.992c.027.75-.533.85-1.152.89-.475.037.707-.72.895-1.001.367-.306.475-.55.258.11zm95.693 16.47c-1.468 3.507-.313 7.377-.97 11.019-.143.249-.033 1.093-.388.956-.467-.241-.672-1.009-1.237-.97-.295.107-.092.716-.51.511-4.29-.396-8.373 1.25-12.467 2.25-3.381.855-7.215 1.63-10.498.014-.378-.278-.025-.993-.138-1.441.002-.634-.067-1.714-.905-1.716-.453.147-.013-.308.031-.534.756-1.71.635-3.839 2.01-5.243.87-.784 2.111-.513 3.156-.873 7.28-1.436 14.602-2.806 21.916-3.973zm-74.752.708c-1.15 1.225-1.853 2.913-3.278 3.845.477-1.565 1.762-2.708 3.011-3.673a2.73 2.73 0 01.267-.172zm-30.403 9.698c6.877-.042 13.735.563 20.568 1.277 1.412.06 2.917.374 4.275-.129.522-.181.547-.774.867-1.148-.304 1.89-.056 3.832-.27 5.718-.846 1.938-2.909 3.388-5.08 3.012-7.29.677-14.636.952-21.868 2.125-1.03.207-2.06.796-3.122.547-.517-.35-.14-1.108.045-1.563.608-2.09 1.241-4.226 1.416-6.42.174-1.053-.029-2.353.765-3.176.681-.456 1.632-.151 2.404-.243zm100.736 2.806c1.176.018 2.44.25 3.31 1.103.11.169 1.147.028 1.6.083 3.65.095 7.338.193 10.923.925.477.14.989.194 1.486.274-.55.22-.142.864.21 1.065 1.38 1.093 2.99 1.873 4.45 2.863.188 2.208.075 4.427.18 6.638-6.89 2.194-13.757 4.467-20.662 6.61-5.279 1.428-10.673 2.924-16.201 2.757-3.21-.094-6.655-1.087-8.628-3.73-1.521-1.981-2.121-4.515-2.207-6.981.598-3.21 1.53-6.347 2.207-9.54 5.1 1.01 10.307-.03 15.332-.988 2.632-.545 5.305-1.05 8-1.079zm4.01.255c-.178.166-.587.99-.637.625.033-.369.422-.562.714-.72l-.063.08-.013.015zm-79.062 2.2c-.01.155-.076-.06 0 0zm-1.147 3.188c.728.088.88 1.057 1.163 1.6.388 1.033.736 2.123 1.398 2.998 1.627 3.336 2.013 7.27 1.398 10.904-1.317.795-1.096 2.78-2.333 3.602-.53.232-1.144.063-1.675.36-1.757.574-3.396 1.567-5.289 1.592-1.796.068-3.53.637-5.314.85-6.19.975-12.8 1.242-18.674-1.252-.87-.43-1.856-.775-2.582-1.422-.515-.63-1.43-1.009-2.226-.931-1.287-1.065-1.133-2.955-1.001-4.47.315-2.257.892-4.477 1.778-6.575.884-1.43 1.97-3.027 3.725-3.372.203.406.206-.284.873-.09.805-.072 1.544-.555 2.352-.7 4.751-1.303 9.757-1.18 14.628-1.78 3.749-.348 7.54-.477 11.262-.963.137-.156.3-.328.517-.35z"/>
</svg>
