<?xml version="1.0" encoding="UTF-8"?>
<svg width="170.67" height="170.67" xmlns="http://www.w3.org/2000/svg" xmlns:xlink="http://www.w3.org/1999/xlink">
 <defs>
  <linearGradient id="e">
   <stop stop-color="#050079" offset="0"/>
   <stop stop-color="#00f" offset="1"/>
  </linearGradient>
  <linearGradient id="c">
   <stop stop-color="#0078ff" offset="0"/>
   <stop stop-color="#00c5ff" offset="1"/>
  </linearGradient>
  <linearGradient id="b">
   <stop stop-color="#ffbf00" offset="0"/>
   <stop stop-color="#ffe000" offset="1"/>
  </linearGradient>
  <linearGradient id="h" x1="61.026" x2="85.385" y1="110.51" y2="90.513" gradientUnits="userSpaceOnUse">
   <stop stop-color="#f6dec3" offset="0"/>
   <stop stop-color="#ffe5d5" offset="1"/>
  </linearGradient>
  <linearGradient id="i" x1="14.103" x2="26.154" y1="67.692" y2="58.495" gradientUnits="userSpaceOnUse" xlink:href="#b"/>
  <linearGradient id="j" x1="30" x2="39.487" y1="75.128" y2="65.641" gradientUnits="userSpaceOnUse" xlink:href="#e"/>
  <linearGradient id="k" x1="44.615" x2="66.154" y1="75.385" y2="61.026" gradientUnits="userSpaceOnUse" xlink:href="#b"/>
  <linearGradient id="l" x1="128.2" x2="142.05" y1="68.205" y2="54.359" gradientUnits="userSpaceOnUse" xlink:href="#b"/>
  <linearGradient id="m" x1="118.46" x2="125.38" y1="74.872" y2="68.462" gradientUnits="userSpaceOnUse" xlink:href="#e"/>
  <linearGradient id="n" x1="91.282" x2="105.64" y1="79.231" y2="65.641" gradientUnits="userSpaceOnUse" xlink:href="#b"/>
  <linearGradient id="o" x1="59.487" x2="69.487" y1="100.26" y2="94.872" gradientUnits="userSpaceOnUse" xlink:href="#c"/>
  <linearGradient id="p" x1="83.451" x2="92.313" y1="99.617" y2="93.72" gradientUnits="userSpaceOnUse" xlink:href="#c"/>
  <linearGradient id="q" x1="73.077" x2="80.769" y1="118.82" y2="113.86" gradientUnits="userSpaceOnUse">
   <stop stop-color="#b00" offset="0"/>
   <stop stop-color="#ff3a32" offset="1"/>
  </linearGradient>
  <linearGradient id="r" x1="106.41" x2="71.645" y1="31.538" y2="89.933" gradientUnits="userSpaceOnUse">
   <stop stop-color="#fff" stop-opacity=".619" offset="0"/>
   <stop stop-color="#fff" stop-opacity="0" offset="1"/>
  </linearGradient>
 </defs>
 <path d="M20.022 46.574c6.897 10.91-1.643 6.888-5.22 7.568 7.422 7.259-7.707 2.898-11.08 4.638-5.532 1.135 14.716 3.85 3.649 7.513-8.06 5.369-.382 4.259 5.042 4.082 5.932-.249 12.866-.862 18.708.298-1.251 5.449 2.22 9.91 6.88 8.919.422 4.006-.088 11.85 3.7 12.66 3.918 9.236 12.684 17.455 21.989 22.348 8.313 5.252 17.784 6.474 26.538 1.351 10.83-4.621 21.5-14.007 24.46-24.898 5.847.87 2.672-9.145 4.082-11.967 4.314 3.958 8.644-2.168 8.531-6.368 9.486-2.374 19.307-1.16 28.964-1.263-3.6-3.552-12.41-7.523-4.137-9.587 8.012-3.275-7.495-2.278-10.29-3.423 4.46-3.6.262-3.11-5.244-3.132.755-2.76 5.933-17.55.65-10.84-5.047 5.777-8.909 13.044-14.702 18.21-2.309-4.889-8.132-2.584-9.106-.104-.58-10.253-27.56-21.863-34.49-15.62-5.804-6.81-32.722 3.863-35.417 15.132-1.843-7.786-7.753 2.172-9.796-3.304-5.35-4.996-8.839-13.151-14.445-17.912l.734 5.699z"/>
 <path transform="translate(5.805 3.392) scale(.94001)" d="M115.475 85.907c0 21.114-26.568 35.89-38.505 35.955-10.4.058-37.995-14.84-37.995-35.955 0-21.114 17.136-38.25 38.25-38.25s38.25 17.136 38.25 38.25z" fill="url(#h)"/>
 <path transform="translate(5.805 3.392) scale(.94001)" d="M33.875 65.507C27.5 59.557 22.4 53.862 17.045 45.362l3.06 10.455-7.65-.51 1.785 3.57L2 60.407l5.865 3.315L2 69.332c10.03-.51 20.06-.765 30.09 2.295l1.785-6.12z" fill="url(#i)" fill-rule="evenodd"/>
 <path transform="translate(5.805 3.392) scale(.94001)" d="M40.576 71.621c-1.366 5.046-5.234 8.395-8.632 7.475-3.399-.92-5.368-5.86-3.682-10.809 1.112-3.261 6.081-8.603 8.632-7.475 2.05.907 5.048 7.548 3.682 10.81z" fill="url(#j)"/>
 <path transform="translate(5.805 3.392) scale(.94001)" d="m76.46 45.872c2.125 36.72-14.62 45.135-38.505 46.665-7.735-24.735 9.01-46.92 38.505-46.665z" fill="url(#k)" fill-rule="evenodd"/>
 <path transform="translate(5.805 3.392) scale(.94001)" d="M123.125 66.527c6.375-5.95 11.475-11.645 16.83-20.145l-3.06 10.455 7.65-.51-1.785 3.57 12.24 1.53-5.865 3.315 5.865 5.61c-10.03-.51-20.06-.765-30.09 2.295l-1.785-6.12z" fill="url(#l)" fill-rule="evenodd"/>
 <path transform="translate(5.805 3.392) scale(.94001)" d="M114.532 72.645c1.367 5.046 5.234 8.395 8.632 7.475 3.399-.92 5.368-5.86 3.682-10.81-1.111-3.26-6.08-8.603-8.632-7.474-2.049.906-5.048 7.548-3.682 10.809z" fill="url(#m)"/>
 <path transform="translate(5.805 3.392) scale(.94001)" d="m78.044 45.617c-2.125 36.72 14.62 45.135 38.505 46.665 7.735-24.735-9.01-46.92-38.505-46.665z" fill="url(#n)" fill-rule="evenodd"/>
 <path d="M73.125 98.236c-2.887 3.901-9.495 3.817-12.303-.143-.54-3.784-.307-8.123 1.378-10.963 3.283-2.566 8.484-1.854 10.947 1.512.36 3.01.595 6.623-.022 9.594z" fill="#fff"/>
 <path transform="translate(5.805 3.392) scale(.94001)" d="M71.616 101.605c-3.071 3.19-10.1 3.12-13.088-.117-.575-3.093-.097-5.126 1.695-7.448 1.884-2.43 8.78-2.58 9.735.227.77 2.405 2.315 5.631 1.658 7.338z" fill="url(#o)"/>
 <path d="M71.136 100.07c-1.03 1.468-7.023 1.412-8.665-.11-.384-1.708-.416-3.238.904-5.42 1.196-1.711 6.465-1.852 7.363.421.933 2.21.807 3.921.398 5.108z"/>
 <path d="M82.47 97.277c2.888 3.901 9.495 3.818 12.304-.143.54-3.783.306-8.123-1.379-10.963-3.283-2.566-8.483-1.853-10.947 1.512-.359 3.01-.594 6.623.023 9.594z" fill="#fff"/>
 <path transform="translate(5.805 3.392) scale(.94001)" d="M81.559 100.585c3.071 3.19 10.1 3.121 13.088-.117.575-3.093.097-5.126-1.695-7.448-1.884-2.43-8.78-2.58-9.735.227-.77 2.405-2.315 5.631-1.658 7.338z" fill="url(#p)"/>
 <path d="M84.46 99.11c1.03 1.47 7.022 1.413 8.665-.11.384-1.707.416-3.237-.904-5.42-1.196-1.71-6.465-1.85-7.364.422-.933 2.21-.806 3.921-.398 5.108z"/>
 <path d="M76.36 98.65c-.566 3.612-3.718 6.409-3.3 7.184.2.968 4.1.913 6.004 2.173l.434-.289c-2.925-2.34-4.274-1.25-5.037-2.46-.183-.69 2.367-3.867 2.393-6.382l-.494-.225z" fill-rule="evenodd"/>
 <path transform="translate(5.805 3.392) scale(.94001)" d="M64.73 114.467c3.658.11 7.263.117 10.662-.602 4.204.786 8.615 1.573 12.922 1.116-8.845 5.11-17.224 5.302-23.584-.514z" fill="url(#q)" fill-rule="evenodd"/>
 <path d="m66.188 94.89c0 1.858-1.059 2.986-2.363 2.986-1.305 0-2.363-1.128-2.363-2.986 0-1.857 1.058-2.796 2.363-2.796 1.304 0 2.363 0.939 2.363 2.796zm3.195 5.27c-1.575 0-2.531-0.752-2.531-1.678s0.956-1.677 2.53-1.677c1.575 0 2.37 0.751 2.37 1.677s-0.795 1.677-2.37 1.677zm18.955-6.308c0 1.857-1.06 2.985-2.364 2.985s-2.363-1.128-2.363-2.985 1.059-2.796 2.363-2.796c1.305 0 2.364 0.939 2.364 2.796zm3.194 5.269c-1.574 0-2.53-0.751-2.53-1.677s0.956-1.677 2.53-1.677c1.575 0 2.37 0.75 2.37 1.677 0 0.926-0.795 1.677-2.37 1.677z" fill="#fff" fill-opacity=".625"/>
 <path d="M21.813 46.031l2.906 9.844-7.219-.5 1.688 3.375-11.5 1.438 5.5 3.093-5.5 5.282c8.104-.413 16.208-.52 24.312 1.25-.437 3.809 1.169 7.213 3.844 7.937 1.338.362 2.712-.1 4-.969-.315 4.34.159 8.905 1.625 13.594.639-.04 1.216-.136 1.843-.188 4.465 16.581 26.096 27.799 34.844 27.75 10.087-.055 31.226-11.311 35.406-28 .618.051 1.185.148 1.813.188 1.363-4.36 1.9-8.62 1.719-12.688 1.407 1.117 2.998 1.688 4.5 1.282 2.584-.7 4.188-3.914 3.906-7.563 8.667-2.198 17.333-2.065 26-1.625L146 64.25l5.5-3.125-11.5-1.438 1.688-3.343-7.188.468L137.375 47c-4.703 7.465-9.293 12.605-14.75 17.813-1.841-2.155-4.175-3.951-5.688-3.282-.919.407-2.03 2.069-2.812 4-5.398-11.507-17.874-19.398-34.969-19.25-.042.725.027 1.267 0 1.969-.256-.005-.492-.063-.75-.063-.245 0-.474.058-.719.063-.024-.624.038-1.107 0-1.75-16.542-.143-28.676 7.314-34.343 18.219-.785-2.003-1.899-3.738-2.844-4.156-1.28-.567-3.197.636-4.875 2.312-5.02-4.895-9.395-9.832-13.813-16.844z" fill="url(#r)"/>
</svg>
