<?xml version="1.0" encoding="UTF-8"?>
<svg width="400pt" height="400pt" xmlns="http://www.w3.org/2000/svg">
 <path transform="matrix(2.0508 0 0 2.1188 -644.54 -238.83)" d="m382.37 166.48c-12.62 7.571-11.358 32.81-16.405 42.906-5.048 10.095-23.977 36.596-23.977 42.905 0 6.31 3.786 7.572 11.357 7.572 7.572 0 8.834 1.262 7.572 7.572-1.262 6.309-10.096 11.357-2.524 13.881s8.834 5.048 6.31 7.571c-2.524 2.524-6.31 1.262-7.572 3.786s0 10.096 0 16.405c0 6.31-3.786 3.786-2.524 10.096s80.764-10.096 88.336-11.358c7.571-1.262 32.81-6.309 39.12-15.143 23.976-30.286 32.81-65.62 31.548-97.169-2.524-56.787-94.645-75.716-131.24-29.024z" fill="#ffd9d9" fill-rule="evenodd" stroke="#000" stroke-width="1.799"/>
 <path d="m126.19 170.64s12.036 4.855 17.083 9.418c5.049 6.893 3.495 10.872 3.204 15.919-0.292 6.602-18.54 16.599-27.858 12.521-5.435-35.926 12.619-36.596 7.571-37.858z" fill="#fff" fill-rule="evenodd" stroke="#000" stroke-linejoin="bevel" stroke-width="3.75"/>
 <path d="m126.19 170.64s-6.309 8.833-7.571 18.929c-1.262 10.095-2.524 20.19 2.524 18.929 5.047-1.262 8.833 0 11.357-10.096 2.524-10.095-1.262-27.762-6.31-27.762z" fill="#00f" fill-rule="evenodd" stroke="#000" stroke-width="3.75"/>
 <path d="m118.85 185.39h3.884c2.331 0 3.107 2.331 3.107 5.438s-2.33 8.545-6.214 8.545c-3.884 1.554-0.777-11.652-0.777-13.983z" fill-rule="evenodd" stroke="#000" stroke-width="3.75"/>
 <path d="m113.41 151.21s-10.875-1.554-6.991 2.33-2.33 4.661 6.991 4.661c9.322 0 13.206 2.33 20.974 3.107s17.09 3.884 20.974 8.545 10.099 11.652 10.876 19.42c0.776 7.769 0.776 10.099 0.776 9.322s4.661-10.875 2.331-17.867c-2.331-7.768-10.876-17.866-23.305-24.858-12.429-3.106-31.849-4.66-32.626-4.66z" fill="#5c242f" fill-rule="evenodd" stroke="#000" stroke-linejoin="bevel" stroke-width="3.75"/>
 <path d="m282.76 190.05c3.108-8.545 3.108-14.759 13.206-15.536 10.099-0.777 8.545 0.777 20.197 1.554 7.768 5.438 7.768 1.553 11.652 18.643-1.553 20.197-1.553 35.733-10.875 45.055s-28.742 19.42-31.072 13.206c-2.331-6.215-3.884-17.09-3.108-19.42l0.777-2.331" fill="none" stroke="#000" stroke-width="3.75"/>
</svg>
