<svg width="400pt" height="400pt" xmlns="http://www.w3.org/2000/svg"><path d="M82.5 161.25c164.167 26.25 273.333 105 290 221.25C450 225 241.25 92.5 82.5 161.25z" fill="#1a0b00" fill-rule="evenodd" stroke="#000" stroke-width="1pt"/><path d="M267.5 71.25c-156.25-7.5-222.5 276.25-83.75 350 213.75 35 290-341.25 83.75-350z" fill="#ffdddf" fill-rule="evenodd" stroke="#000" stroke-width="1pt"/><path d="M375.17 291.591c0-1.768 7.071-17.677 6.187-35.354 32.703-9.723 13.257 45.078-6.188 35.354z" fill="#ffdddf" fill-rule="evenodd" stroke="#000" stroke-width="1pt"/><path d="M385.776 288.94c-10.607-6.187-18.562 5.304-6.187 13.258 10.606 4.42 13.258-11.49 6.187-13.258z" fill="#0f0" fill-rule="evenodd" stroke="#000" stroke-width="1pt"/><path d="M83.384 159.848c152.5-30 267.5 47.5 292.5 100s-2.5 121.25-2.5 121.25c151.25-205-83.75-497.5-290-221.25z" fill="#2b1c00" fill-rule="evenodd" stroke="#000" stroke-width="1pt"/><path d="M126.393 198.065s51.451-15.75 64.636 10.552c13.184 26.302-59.085 6.092-64.636-10.552zM297.467 245.568s-81.633-13.272-55.291-30.358c27.747-10.503 52.64 13.015 55.291 30.358z" fill="#fff" fill-rule="evenodd" stroke="#000" stroke-width="1pt"/><path d="M205 241.25s-5 8.75-12.5 17.5c-4.848 8.75-4.268 4.911-7.5 13.75-5.884 3.536 13.75 2.5 12.5 7.5" fill="none" stroke="#000" stroke-width="1pt"/><path d="M153.964 337.589s41.842 17.563 85.152 23.75c-35.355 0-64.822 2.097-85.152-23.75z" fill="red" fill-rule="evenodd" stroke="#000" stroke-width="1pt"/><path d="M153.315 337.554c3.3 2.284 69.651 24.994 85.736 23.104.885 0-30.052-20.453-48.614-18.685-10.605-9.722-33.587-5.303-37.122-4.419z" fill="red" fill-rule="evenodd" stroke="#000" stroke-width="1pt"/><path d="M161.957 193.951c12.945 3.807 13.2 28.428-2.285 23.859-9.138-1.522-11.169-27.159 2.285-23.859zM269.118 214.78c8.592 3.264 11.023 27.92-2.285 23.352-14.579-2.066-12.8-29.916 2.285-23.351z" fill="#00bf00" fill-rule="evenodd" stroke="#000" stroke-width="1pt"/><path d="M161.703 202.074c-6.88-1.233-6.456 9.856-1.016 10.66 6.71 5.042 8.886-9.645 1.016-10.66zM265.89 222.106c-7-2.611-5.695 10.697-.255 11.168 7.797 2.32 7.036-10.697.255-11.168z" fill-rule="evenodd" stroke="#000" stroke-width="1pt"/><path d="M120.981 185.22s73.997-15.235 85.423 5.441c-26.117-7.073-86.511-4.353-85.423-5.441zM326.649 237.453s-59.851-63.114-84.335-44.071c35.911 7.073 85.967 44.615 84.335 44.071z" fill="#2b1c00" fill-rule="evenodd" stroke="#000" stroke-width="1pt"/><path d="M266.436 215.607c-6.632-.474-8.526 8.051 0 9.472 5.683 1.421 8.525-8.998 0-9.472zM161.283 195.713c-6.632-.474-8.526 8.051 0 9.472 5.683 1.421 8.525-8.998 0-9.472z" fill="#fff" fill-rule="evenodd" fill-opacity=".667"/></svg>