<?xml version="1.0" encoding="UTF-8"?>
<svg width="400pt" height="400pt" xmlns="http://www.w3.org/2000/svg">
 <path transform="matrix(2.0508 0 0 2.1188 -644.54 -238.83)" d="m382.37 166.48c-12.62 7.571-11.358 32.81-16.405 42.906-5.048 10.095-23.977 36.596-23.977 42.905 0 6.31 3.786 7.572 11.357 7.572 7.572 0 8.834 1.262 7.572 7.572-1.262 6.309-10.096 11.357-2.524 13.881s8.834 5.048 6.31 7.571c-2.524 2.524-6.31 1.262-7.572 3.786s0 10.096 0 16.405c0 6.31-3.786 3.786-2.524 10.096s80.764-10.096 88.336-11.358c7.571-1.262 32.81-6.309 39.12-15.143 23.976-30.286 32.81-65.62 31.548-97.169-2.524-56.787-94.645-75.716-131.24-29.024z" fill="#ffd9d9" fill-rule="evenodd" font-size="12" stroke="#000" stroke-width="1.799"/>
 <path d="m126.19 170.64s12.036 4.855 17.083 9.418c5.049 6.893 3.495 10.872 3.204 15.919-0.292 6.602-18.54 16.599-27.858 12.521-5.435-35.926 12.619-36.596 7.571-37.858z" fill="#fff" fill-rule="evenodd" font-size="12" stroke="#000" stroke-linejoin="bevel" stroke-width="3.75"/>
 <path d="m126.19 170.64s-6.309 8.833-7.571 18.929c-1.262 10.095-2.524 20.19 2.524 18.929 5.047-1.262 8.833 0 11.357-10.096 2.524-10.095-1.262-27.762-6.31-27.762z" fill="#00f" fill-rule="evenodd" font-size="12" stroke="#000" stroke-linejoin="bevel" stroke-width="3.75"/>
 <path d="m118.85 185.39h3.884c2.331 0 3.107 2.331 3.107 5.438s-2.33 8.545-6.214 8.545c-3.884 1.554-0.777-11.652-0.777-13.983z" fill-rule="evenodd" font-size="12" stroke="#000" stroke-linejoin="bevel" stroke-width="3.75"/>
 <path d="m113.41 151.21s-10.875-1.554-6.991 2.33-2.33 4.661 6.991 4.661c9.322 0 13.206 2.33 20.974 3.107s17.09 3.884 20.974 8.545 10.099 11.652 10.876 19.42c0.776 7.769 0.776 10.099 0.776 9.322s4.661-10.875 2.331-17.867c-2.331-7.768-10.876-17.866-23.305-24.858-12.429-3.106-31.849-4.66-32.626-4.66z" fill="#5c240c" fill-rule="evenodd" font-size="12" stroke="#000" stroke-linejoin="bevel" stroke-width="3.75"/>
 <path d="m383.74 75.084s22.527-10.875-54.377-27.188-116.52-12.43-155.36 1.553c-38.841 13.983-28.742 19.42-61.368 42.725-32.626 23.304-16.313 14.76-45.832 23.305 9.322 6.991 13.982 10.098 24.08 6.214 12.43-10.876 26.413-17.09 26.413-17.09s13.205-13.206 0 4.661c-13.206 17.867-22.528 25.635-22.528 25.635s10.875-0.777 25.635-12.429c14.759-11.653 15.536-24.858 14.759-11.653-0.777 13.206 4.661 15.537 4.661 15.537s-20.197 9.321 3.884-4.661c24.081-13.983 39.618-10.099 39.618-10.099s13.205-13.206 16.313 3.107c3.107 16.314 3.107 17.09 3.107 17.09s-6.215 3.884 5.437-6.214c11.653-10.099 20.198-12.429 27.966-10.876 7.768 1.554 34.179-19.42 17.09 11.653-17.09 31.072-30.296 41.171-24.082 39.617 6.215-1.554 13.206-1.554 20.974-5.438s15.537-12.429 8.545 6.215c-6.991 18.643-27.965 51.269-30.295 50.493-2.331-0.777 10.875 8.545 20.973 2.33 10.099-6.214 11.653-7.768 14.76-3.884s8.545 13.983 6.991-1.554c-1.553-15.536 3.107-26.411 5.438-31.072 6.991-3.884 8.544-4.661 30.296-4.66 13.206 7.768 16.313 0 17.089 18.642 0.777 18.644-7.767 17.091-5.437 24.858-10.099 10.099 6.214-5.437-6.992 18.644-13.205 24.081-13.205 25.635-23.304 36.51-10.098 10.875-26.412 12.429-10.875 13.206 15.536 0.777 21.75 3.107 30.295-0.777s15.537-17.867 12.429 0c-3.107 17.867-3.107 26.412-3.884 28.742-0.777 2.331 6.215 17.867 17.867-2.33s-3.107-48.939 16.313-22.528c19.42 26.412 34.956 34.957 33.403 38.841-1.554 3.884 10.098 12.429 8.545-6.215-1.554-18.643 5.437-24.858 5.437-24.858s-12.428-20.974 4.661 3.108c17.09 24.081 6.992 23.304 13.983 23.304s31.849 22.527 13.983-4.661c-17.867-27.188-17.09-58.261-17.09-58.261s14.759-198.09-29.519-189.54z" fill="#5c240c" fill-rule="evenodd" font-size="12" stroke="#000" stroke-width="3.75"/>
 <path d="m282.76 190.05c3.108-8.545 3.108-14.759 13.206-15.536 10.099-0.777 8.545 0.777 20.197 1.554 7.768 5.438 7.768 1.553 11.652 18.643-1.553 20.197-1.553 35.733-10.875 45.055s-28.742 19.42-31.072 13.206c-2.331-6.215-3.884-17.09-3.108-19.42l0.777-2.331" fill="#ffd9d9" fill-rule="evenodd" font-size="12" stroke="#000" stroke-width="3.75"/>
</svg>
