<?xml version="1.0" encoding="UTF-8"?>
<svg width="400pt" height="400pt" xmlns="http://www.w3.org/2000/svg">
 <path transform="matrix(1.6997 0 0 1.6255 -479.16 -395.05)" d="m472.39 260.29c-21.971-4.394-28.563-12.084-61.52-1.098-32.958 10.986-74.704 31.859-82.394 83.492s-17.577 116.45-12.084 136.22c5.493 19.775 13.183 41.746 29.662 49.436 16.478 7.69 51.633 18.676 88.984 8.789 37.352-9.887 99.971-52.732 103.27-77.999 9.887-26.366 17.577-50.535 14.281-83.492-7.69-98.872-46.141-106.56-80.196-115.35z" fill="#ffd6cc" fill-rule="evenodd" stroke="#000" stroke-width="2.256"/>
 <path transform="matrix(1.6997 0 0 1.6255 -479.16 -395.05)" d="m375.71 355.86s-23.07 32.957-24.169 46.14c-1.098 13.183-7.69 24.169-3.295 26.366 4.394 2.197 24.168 0 28.563-1.099 4.394-1.098 8.788-1.099 8.788-6.591 0-5.493-5.492-6.592-6.591-6.592h-1.099" fill="none" stroke="#000" stroke-width="2.256"/>
 <path transform="matrix(1.6997 0 0 1.6255 -481.03 -391.48)" d="m415.26 356.96s27.464-2.197 39.549 1.099c12.084 3.296 17.577 5.493 17.577 8.788 0 3.296-3.296 10.986-9.887 10.986-6.592 0-26.366 4.394-36.253 3.296-9.887-1.099-8.789 3.296-17.577-5.493-8.789-8.789 5.492-17.577 6.591-18.676z" fill="#fff" fill-rule="evenodd" stroke="#000" stroke-width="2.256"/>
 <path transform="matrix(1.6997 0 0 1.6255 -479.16 -395.05)" d="m535.01 359.16c2.197-3.295 0-7.69 6.591-9.887 5.493-5.493 8.789-7.69 15.38-3.296 6.592 4.395 10.986 15.38 9.888 27.465-1.099 12.084-1.099 12.084-7.691 18.676-6.591 6.591 1.099 13.183-9.887 15.38-10.985 2.197-16.478 5.493-17.577-3.296s3.296-12.084 3.296-12.084" fill="#ffd6cc" fill-rule="evenodd" stroke="#000" stroke-width="2.256"/>
 <path transform="matrix(1.6997 0 0 1.6255 -480.68 -393.6)" d="m422.95 358.06s-4.394 2.197-6.591 7.69c-2.198 5.493-2.198 7.69 0 10.986 2.197 3.295 4.394 4.394 9.887 4.394s14.281 0 17.577-3.296 2.197-4.394 3.296-10.986c1.098-6.591-16.479-9.887-24.169-8.788z" fill="#0000fe" fill-rule="evenodd" stroke="#000" stroke-width="1pt"/>
 <path transform="matrix(1.6997 0 0 1.6255 -475.37 -395.05)" d="m424.3 367.06s-2.677 0.446-2.676 3.569c1.338 3.124 1.784 3.124 4.461 3.124 1.339 0.445 4.016 0.892 4.462-1.785s-4.462-5.8-6.247-4.908z" fill-rule="evenodd" stroke="#000" stroke-width="1pt"/>
 <path transform="matrix(1.6997 0 0 1.6255 -479.16 -395.05)" d="M325.252 365.72c2.677-.893 3.569-3.123 10.261-4.016 6.693-.892 12.493-3.123 19.185-1.338 6.693 1.784 12.047 4.908 11.601 8.031-.447 3.123-2.37 6.386-5.744 11.154-3.012 3.318-1.399 2.845-10.318 2.98-6.246 0-15.616-.75-20.524-3.873-4.907-3.123-4.461-10.708-4.461-12.938z" fill="#fff" fill-rule="evenodd" stroke="#000" stroke-width="2.256"/>
 <path transform="matrix(1.6997 0 0 1.6255 -479.16 -395.05)" d="m339.53 361.7c-3.123 0.446-4.3-0.143-6.085 4.765s-2.517 4.016-1.339 7.282c0.588 2.088 0.731 4.907 2.516 6.246 1.784 1.338 6.693 2.677 9.816 2.677s6.674 1.357 9.796-6.674c1.947-7.442 0.304-7.852-0.427-9.673-2.677-5.354-6.692-6.407-14.277-4.623z" fill="#0000fe" fill-rule="evenodd" stroke="#000" stroke-width="2.256"/>
 <path transform="matrix(1.6997 0 0 1.6255 -475.47 -395.05)" d="M339.083 369.289c-.893.446-2.231 2.677-1.785 3.569.446.893 0 2.231 2.231 2.231s3.123 0 4.015-1.338c.893-1.339-2.677-4.462-4.461-4.462z" fill-rule="evenodd" stroke="#000" stroke-width="1pt"/>
 <path transform="matrix(1.6997 0 0 1.6255 -479.16 -395.05)" d="m414.46 335.9s17.072 1.178 32.379 2.355c15.306 1.178 20.605 3.532 29.435 5.887 7.654 5.887 11.775 10.008 11.775 10.597s0-1.177-14.129-5.298-21.783-6.476-32.38-6.476c-10.596 0-24.137 1.177-28.258 1.177s-10.008 1.178-9.419-2.943c0.588-4.121 8.831-6.476 10.597-5.299z" fill="#3f1900" fill-rule="evenodd" stroke="#000" stroke-width="1pt"/>
 <path transform="matrix(1.6997 0 0 1.6255 -479.16 -395.05)" d="m326.74 349.44c0.589 0 8.831-3.532 13.541-4.121 4.709-0.589 8.83-2.355 15.895-2.355s10.008 2.943 14.129 0.589c4.121-2.355 7.653-3.533 4.121-6.476-3.532-2.944-1.766-2.355-10.008-2.944s-11.774-1.177-18.25 0.589-8.831 4.71-14.718 7.653c-5.887 2.944-10.008 4.121-7.653 5.887s2.355 1.766 2.943 1.178z" fill="#3f1900" fill-rule="evenodd" stroke="#000" stroke-width="2.256"/>
 <g font-size="12" stroke="#000" stroke-width="2.256">
  <path transform="matrix(1.6997 0 0 1.6255 -479.16 -395.05)" d="m346.05 475.61s8.788 4.395 15.38 4.395c6.591 0 13.183 1.098 21.972 1.098 8.788 0 14.281 0 26.365-2.197 15.38-5.493 15.38-3.296 15.38-3.296s-8.789 6.592-27.464 16.479c-20.874 1.099-47.239 1.098-47.239-6.591-4.394-1.099-4.394-8.789-4.394-9.888z" fill="#ff4f18" fill-rule="evenodd"/>
  <path transform="matrix(1.6997 0 0 1.6255 -479.16 -395.05)" d="m345.58 477.19s8.831 7.653 12.363 8.242c3.532 0.588 22.371 1.177 26.492 1.177 7.065 1.766 37.678-8.242 39.444-10.597" fill="none"/>
 </g>
 <path d="M246.46 191.301s-3.756-1.437-7.51 0c-3.757 1.435-4.508 2.154-5.26 5.028-.75 2.874-1.502 2.874 3.757 7.184 10.516 3.591 9.013 6.465 18.027 3.591 9.015-2.872 12.018-1.437 12.77-7.183.75-5.748-8.263-10.057-21.784-8.62zM100.734 194.175s-3.756-1.437-7.51 0c-3.757 1.435-2.254 2.872-3.006 5.746.752 4.31 3.005 6.466 5.26 7.184 9.013 4.31 5.256 4.31 14.27 2.873 9.015-2.873 6.76-1.437 7.51-7.183-1.5-5.748-3.003-9.339-16.524-8.62z" fill="#fff" fill-opacity=".5" fill-rule="evenodd"/>
</svg>
