<?xml version="1.0" encoding="UTF-8"?>
<svg width="400pt" height="400pt" xmlns="http://www.w3.org/2000/svg">
 <path transform="matrix(4.4291 0 0 3.7411 -949.14 -252.96)" d="m232.5 172.36s23.75-11.25 32.5-11.25 47.5 7.5 48.75 10 8.75-22.5 2.5-41.25-27.5-47.5-42.5-45-46.25 20-47.5 30 2.5 60 6.25 57.5z" fill="#ccaa18" fill-rule="evenodd" stroke="#000" stroke-width=".921"/>
 <path transform="matrix(4.4291 0 0 3.7411 -1288 -313.79)" d="M355.768 95.996c-2.869-.956-16.258-.956-22.953 1.913-6.694 2.869-13.389 8.607-16.258 18.171-2.869 9.563-6.694 24.865-.956 43.992 5.738 19.128 17.214 36.342 25.822 39.211 8.607 2.87 16.258 0 21.04-2.869s14.345-20.083 17.214-27.734c2.87-7.651 9.564-31.56 6.695-40.168-6.694-27.734-26.778-33.472-30.604-32.516z" fill="#ffc2ad" fill-rule="evenodd" font-size="12" stroke="#000" stroke-width=".921"/>
 <path transform="matrix(4.3148 -.84432 .99958 3.6446 -1569.4 216.73)" d="m375.89 91.584c-3.239 11.48 2.944 16.189 5.593 16.189 3.532 0 4.415-0.883 5.592-3.532 1.178-2.649 2.944-7.065 1.767-11.186-1.178-4.12-10.008-4.71-12.952-1.471z" fill="#0059ff" fill-rule="evenodd" font-size="12" stroke="#000" stroke-width=".921"/>
 <path transform="matrix(4.3148 -.84432 .99958 3.6446 -1569.4 216.73)" d="M382.663 94.527s-3.237-1.177-4.121 1.177c-.883 2.355-.883 1.767.588 4.121.884 2.061 2.65 3.533 4.416 2.355 2.355-2.06 1.766-5.298.883-6.476-.588-.588-1.472-.883-1.766-1.177z" fill-rule="evenodd" font-size="12" stroke="#000" stroke-width=".921"/>
 <path d="m177.79 224.28s-2.156-2.97-12.997 1.413c-7.624 1.492-13.089 5.953-11.323 12.39 3.033 6.187 3.916 9.406 20.043 9.642 16.123 0.236 18.274 3.206 22.86-4.474s-10.375-18.317-18.583-18.971z" fill="#fff" fill-opacity=".733" fill-rule="evenodd" font-size="12"/>
 <path transform="matrix(4.3821 .54378 -.64377 3.7014 -1298.3 -327.32)" d="m375.89 91.584c-3.239 11.48 2.944 16.189 5.593 16.189 3.532 0 4.415-0.883 5.592-3.532 1.178-2.649 2.944-7.065 1.767-11.186-1.178-4.12-10.008-4.71-12.952-1.471z" fill="#0059ff" fill-rule="evenodd" font-size="12" stroke="#000" stroke-width=".921"/>
 <path transform="matrix(4.3821 .54378 -.64377 3.7014 -1298.3 -327.32)" d="M382.663 94.527s-3.237-1.177-4.121 1.177c-.883 2.355-.883 1.767.588 4.121.884 2.061 2.65 3.533 4.416 2.355 2.355-2.06 1.766-5.298.883-6.476-.588-.588-1.472-.883-1.766-1.177z" fill-rule="evenodd" font-size="12" stroke="#000" stroke-width=".921"/>
 <path d="m309.61 215.18s-2.587-2.713-12.677 2.803c-7.336 2.302-12.081 7.316-9.357 13.51 3.944 5.81 5.307 8.907 21.337 7.4 16.026-1.504 18.61 1.21 21.997-6.902 3.387-8.111-13.06-17.048-21.3-16.811z" fill="#fff" fill-opacity=".733" fill-rule="evenodd" font-size="12"/>
 <path transform="matrix(4.4291 0 0 3.7411 -949.14 -252.96)" d="M266.17 138.189s.618 3.712-.413 5.979c-1.03 2.268-1.443 2.475-1.237 3.918.207 1.443.619 2.268 1.031 2.886.413.619.413.413.413.413" fill="none" font-size="12" stroke="#000" stroke-width=".921"/>
 <path transform="matrix(4.4291 0 0 3.7411 -949.14 -252.96)" d="m275.15 117.51s8.63-1.27 12.691 0.507 4.823 2.031 8.884 4.823c4.062 2.792 4.062 5.584 4.062 5.584s-1.523-1.777-6.6-4.822c-5.077-3.047-9.645-4.569-12.438-3.808-2.792 0.762-4.569 1.523-5.584 0s-0.761-2.284-1.015-2.284zm-37.567 8.63s2.284 1.015 4.569-1.269c2.284-2.285 5.33-2.285 8.63-2.539s5.584-0.507 7.869-1.269c2.284-0.761 1.269-1.015 0.508-1.777-0.762-0.761 1.776-1.269-3.046-0.761-5.331 2.03-9.646 1.777-13.2 2.792-2.538 1.523-1.776 2.284-3.553 3.299-1.777 1.016-1.777 2.539-1.777 1.524z" fill="#ccaa18" fill-rule="evenodd" font-size="12" stroke="#000" stroke-width=".921"/>
 <g fill="red" fill-rule="evenodd" font-size="12" stroke="#000" stroke-width=".921">
  <path transform="matrix(4.4235 .18801 -.22259 3.7364 -912.13 -283.51)" d="m260.75 165.16c0.221-0.221 1.326 0.884 3.757-0.663 2.43-1.547 0.662-1.326 3.093-1.768 1.768 1.989 2.651-0.221 4.198-0.884 2.431 1.327 11.491-2.209 11.491-2.209s-6.188 6.629-10.828 7.955-4.197 1.546-7.733 0.663c-3.757-1.105-3.978-2.652-3.978-3.094z"/>
  <path transform="matrix(4.4235 .18801 -.22259 3.7364 -914.72 -289.42)" d="M262.514 167.594s2.651.663 6.187 0c3.535-.663 13.258-5.083 13.7-5.304"/>
 </g>
 <path transform="matrix(4.4291 0 0 3.7411 -949.14 -252.96)" d="M306.786 123.139c.206 3.093-1.65.825 1.237-.618 1.855-2.269 4.948-2.062 4.948.618 0 2.68.825 1.443-1.031 5.979-1.855 4.536-1.443 6.392-3.505 6.598-2.061.206-2.061-.412-2.267-.412-.206-.206-.62-2.681-.62-2.681" fill="#ffc2ad" fill-rule="evenodd" font-size="12" stroke="#000" stroke-width=".921"/>
 <path transform="matrix(4.4291 0 0 3.7411 -207.27 4.242)" d="M139.819 65.447c-1.078.898-1.796 1.975-1.257 3.77 1.436 1.256 1.975 2.333 3.41 1.615 1.436-.718 1.256-1.615 1.256-3.051-.359-2.334-1.256-2.693-3.409-2.334z" fill="#00f" fill-rule="evenodd" stroke="#000" stroke-width=".921"/>
 <path transform="matrix(4.4291 0 0 3.7411 -953.97 -244.75)" d="m237.53 117.36c4.307-3.949 14.974-6.25 22.474-7.5s7.5-18.75 7.5-18.75 0 15 3.75 17.5 28.75 0 33.75 6.25 8.75 5 5 25-1.25 27.5-1.25 27.5 0 55 13.75-3.75-19.996-83.161-40-91.984c-13.605-1.988-24.484-3.677-43.234 13.823-15.222 18.443-16.914 37.629-15.664 68.879 7.686 33.75 21.808 36.942 21.808 36.942s0.519-1.968 3.019-10.718c2.129-8.403-6.794-22.833-10.544-39.083s-2.872-21.064-0.359-24.109z" fill="#f8d038" fill-rule="evenodd" stroke="#000" stroke-width=".921"/>
</svg>
