<svg width="400pt" height="400pt" xmlns="http://www.w3.org/2000/svg"><path d="M382.366 166.485c-12.62 7.571-14.058 35.05-16.405 43.279-.804 16.07-21.277 37.717-19.733 42.905 7.33 8.551 15.561-1.247 14.299 14.398-1.262 6.309-8.938 7.623-1.366 10.147 7.572 2.524 9.605 3.554 8.238 6.824-1.366 3.644-9.01 3.502-10.272 6.026 7.225 6.632 0 12.71 0 19.019 0 6.31.458 3.039 1.72 9.349 1.262 6.31 68.804-9.349 76.376-10.611 7.571-1.262 27.024-11.163 33.334-19.997 23.976-30.286 29.338-64.873 28.076-96.422-11.011-47.826-76.514-63.021-114.267-24.917z" transform="matrix(2.05075 0 0 2.11881 -633.288 -267.577)" fill="#ffd9d9" fill-rule="evenodd" stroke="#000" stroke-width="1.799"/><path d="M134.278 156.126s12.036 4.855 17.083 9.418c5.05 6.893 3.495 10.872 3.204 15.919-1.874 20.05-20.122 35.586-29.44 31.508-5.435-35.926 14.201-55.583 9.153-56.845z" fill="#fff" fill-rule="evenodd" stroke="#000" stroke-width="3.75"/><path d="M134.278 156.126s-7.1 8.833-8.362 18.93c-1.262 10.094-3.315 36.013 1.733 34.751 8.211-1.262 10.415-15.823 12.94-25.919 2.523-10.095-1.263-27.762-6.31-27.762z" fill="#00f" fill-rule="evenodd" stroke="#000" stroke-width="3.75"/><path d="M126.937 170.882h3.884c2.331 0 3.107 6.287 3.107 9.394-.79 7.062-3.912 12.5-7.796 12.5-3.884 1.555.805-19.563.805-21.894z" fill-rule="evenodd" stroke="#000" stroke-width="3.75"/><path d="M121.5 136.703s-10.876-1.554-6.992 2.33c3.884 3.884-2.33 4.66 6.991 4.66 9.322 0 13.206 2.33 20.974 3.108 7.768.777 17.09 3.884 20.974 8.545 3.884 4.66 10.1 11.652 10.876 19.42.776 7.769.776 10.099.776 9.322 0-.777 4.661-10.875 2.331-17.867-2.33-7.768-10.876-17.866-23.305-24.858-12.429-3.106-31.849-4.66-32.626-4.66z" fill="#fc0" fill-rule="evenodd" stroke="#000" stroke-width="3.75"/><path d="M77.706 119.984s34.81-43.513 91.772-69.62c56.962-26.108 125.791-28.481 140.032-20.57 14.24 7.912 36.392 0 64.082 49.051 27.69 49.05 31.645 86.234 29.272 121.835-2.373 35.602-20.569 41.14-21.36 119.462 3.164 31.646 11.867 45.887 18.987 90.981.791 20.571-8.703 35.601-8.703 39.557-71.73-5.01-136.34-.527-212.816 8.703 28.481-41.139 17.183-26.187 81.265-92.548 22.832-26.36 39.779-56.977 37.405-87.04-8.702-26.109 15.032-56.963 27.69-68.83 10.286-16.614 9.494-45.095 6.329-53.797-3.164-7.121-12.658-9.494-30.854-10.285-13.449 15.031-1.582 56.961-38.766 75.158-56.962-15.823-64.082-108.386-184.335-102.057z" fill="#fc0" fill-rule="evenodd" stroke="#000" stroke-width="3.75"/><path d="M294.009 161.302c3.108-8.545 3.108-14.759 13.206-15.536 10.099-.777 8.545.777 20.197 1.554 7.768 5.438 7.768 1.553 11.652 18.643-1.553 20.197-1.553 35.733-10.875 45.055-9.322 9.322-28.742 19.42-31.072 13.206-2.331-6.215-3.884-17.09-3.108-19.42l.777-2.331" fill="#ffd9d9" fill-rule="evenodd" stroke="#000" stroke-width="3.75"/><path d="M111.264 314.13s-16.153-7.437-18.527-4.272c-2.373 3.164-3.23 6.296 2.374 7.12 11.867 3.956 21.662 8.417 26.344 12.136-2.626 5.285-4.862 9.29-21.597 13.988-9.428-1.566-7.912 5.252-5.538 6.835 7.593 2.626 21.36-2.105 26.107-6.06 6.835-9.066 8.434-13.972 8.434-17.928-7.514-1.262-13.641-11.819-17.597-11.819z" fill="red" fill-rule="evenodd" stroke="#000" stroke-width="3.75"/><path d="M303.546 216.535c-20.356.522-16.181 24.532.522 24.532 19.834-.522 17.225-24.01-.522-24.532z" fill="#00f" fill-rule="evenodd" stroke="#000" stroke-width="3.75"/><path d="M134.432 162.251c-3.306.348-3.48 4.872-5.22 7.308-2.088 5.742-3.653 10.439 1.566 13.048 5.22 2.61 7.83-18.268 3.654-20.356z" fill="#fff" fill-rule="evenodd" fill-opacity=".533"/><path d="M300.164 162.748c.544-7.073 9.794-10.881 17.411-9.249 10.337 0 15.779 9.794 13.058 19.587-3.809 16.324 0 29.381-10.337 29.925-11.426 6.529-17.411-4.352-17.956-4.896" fill="none" stroke="#000" stroke-width="3.75"/></svg>