<?xml version="1.0" encoding="UTF-8"?>
<svg width="400pt" height="400pt" xmlns="http://www.w3.org/2000/svg">
 <path transform="matrix(2.0508 0 0 2.1188 -642.98 -234.94)" d="m382.37 166.48c-12.62 7.571-11.358 32.81-16.405 42.906-5.048 10.095-23.977 36.596-23.977 42.905 0 6.31 3.786 7.572 11.357 7.572 7.572 0 8.834 1.262 7.572 7.572-1.262 6.309-10.096 11.357-2.524 13.881s8.834 5.048 6.31 7.571c-2.524 2.524-6.31 1.262-7.572 3.786s0 10.096 0 16.405c0 6.31-3.786 3.786-2.524 10.096s80.764-10.096 88.336-11.358c7.571-1.262 32.81-6.309 39.12-15.143 23.976-30.286 32.81-65.62 31.548-97.169-2.524-56.787-94.645-75.716-131.24-29.024z" fill="#ffd9d9" fill-rule="evenodd" stroke="#000" stroke-width="1.799"/>
 <path d="m127.75 174.52s12.036 4.855 17.083 9.418c5.049 6.893 3.495 10.872 3.204 15.919-0.292 6.602-18.54 16.599-27.858 12.521-5.435-35.926 12.619-36.596 7.57-37.858z" fill="#fff" fill-rule="evenodd" stroke="#000" stroke-linejoin="bevel" stroke-width="3.75"/>
 <path d="m127.75 174.52s-6.31 8.833-7.571 18.929c-1.262 10.095-2.524 20.19 2.524 18.929 5.047-1.262 8.833 0 11.357-10.096 2.524-10.095-1.262-27.762-6.31-27.762z" fill="#00f" fill-rule="evenodd" stroke="#000" stroke-width="3.75"/>
 <path d="m120.41 189.28h3.884c2.33 0 3.107 2.331 3.107 5.438s-2.33 8.545-6.214 8.545c-3.884 1.554-0.777-11.652-0.777-13.983z" fill-rule="evenodd" stroke="#000" stroke-width="3.75"/>
 <path d="m114.97 155.1s-10.875-1.554-6.991 2.33-2.33 4.661 6.99 4.661c9.323 0 13.207 2.33 20.975 3.107s17.09 3.884 20.974 8.545 10.099 11.652 10.876 19.42c0.776 7.769 0.776 10.099 0.776 9.322s4.66-10.875 2.33-17.867c-2.33-7.768-10.875-17.866-23.304-24.858-12.43-3.106-31.85-4.66-32.626-4.66zm153.03 86.226s-53.6 45.055-68.36 67.583c-6.215 10.098-3.107 18.643-20.974 37.286-31.072 36.51-42.724 37.287-60.59 33.403-17.867-3.884-20.198 24.08-29.52 10.099-20.197 26.41-15.536 25.635-15.536 25.635s0 2.33 5.438 0.777c5.438-1.554 15.536-10.876 3.884 4.66-11.652 15.537-22.528 16.314-15.536 24.858 6.991 8.545-0.777 10.099 6.991 7.769 7.768-2.331 7.768-8.545 12.43-0.777 4.66 7.768 12.428 10.875 11.651 10.098s-7.768 3.108 0.777-5.437 17.09-9.322 17.09-9.322-3.108-8.545 13.982 1.553c17.09 10.099 10.876 13.983 19.42 6.215 8.545-7.768 14.76-13.983 23.305-13.206s20.197-3.884 24.081 7.768 3.884-5.437 10.875-10.875c6.992-5.438 10.876-5.438 18.644-7.768 7.768-2.331 2.33-6.215 17.09-2.331s23.304 3.884 27.188-3.107 3.884-7.768 10.1-8.545c6.213-0.777 13.204 19.42 6.99-6.214-6.215-25.635-9.322-29.52 0-31.85s33.403 17.09 14.76-13.205c-18.644-30.296-14.76-43.502-9.322-47.386 5.437-3.884 15.536 0-0.777-9.322-7.768-6.991-24.082-24.857-18.644-32.626 5.437-7.768 3.884-25.634 6.992-24.858 3.107 0.777-6.215-13.205-7.769-17.866l-1.553-4.661s-1.554 13.982-3.107 11.652z" fill="#5c240c" fill-rule="evenodd" stroke="#000" stroke-width="3.75"/>
 <path d="m385.3 78.968s22.527-10.875-54.377-27.188-116.52-12.43-155.36 1.553c-38.841 13.983-28.742 19.42-61.368 42.725-32.627 23.304-16.314 14.76-45.833 23.305 9.322 6.991 13.983 10.098 24.082 6.214 12.429-10.876 26.412-17.09 26.412-17.09s13.205-13.206 0 4.661c-13.206 17.867-22.528 25.635-22.528 25.635s10.875-0.777 25.635-12.429c14.759-11.653 15.536-24.858 14.759-11.653-0.777 13.206 4.66 15.537 4.66 15.537s-20.196 9.321 3.885-4.661c24.08-13.983 39.618-10.099 39.618-10.099s13.205-13.206 16.313 3.107c3.107 16.314 3.107 17.09 3.107 17.09s-6.215 3.884 5.437-6.214c11.653-10.099 20.198-12.429 27.966-10.876 7.768 1.554 34.179-19.42 17.09 11.653-17.09 31.072-30.296 41.171-24.082 39.617 6.215-1.554 13.206-1.554 20.974-5.438s15.537-12.429 8.545 6.215c-6.991 18.643-27.965 51.269-30.295 50.493-2.331-0.777 10.875 8.545 20.973 2.33 10.099-6.214 11.653-7.768 14.76-3.884s8.545 13.983 6.99-1.554c-1.552-15.536 3.108-26.411 5.439-31.072 6.99-3.884 8.544-4.661 30.296-4.66 13.206 7.768 16.313 0 17.089 18.642 0.777 18.644-7.767 17.091-5.437 24.858-10.1 10.099 6.214-5.437-6.992 18.644-13.205 24.081-13.205 25.635-23.304 36.51-10.098 10.875-26.412 12.429-10.875 13.206 15.536 0.777 21.75 3.107 30.295-0.777s15.537-17.867 12.429 0c-3.107 17.867-3.107 26.412-3.884 28.742-0.777 2.331 6.215 17.867 17.867-2.33s-3.107-48.939 16.313-22.528c19.42 26.412 34.956 34.957 33.403 38.841-1.554 3.884 10.098 12.429 8.545-6.215-1.554-18.643 5.437-24.858 5.437-24.858s-12.428-20.974 4.66 3.108c17.09 24.081 6.993 23.304 13.984 23.304 6.99 0 31.849 22.527 13.983-4.661-17.867-27.188-17.09-58.261-17.09-58.261s14.759-198.09-29.52-189.54z" fill="#5c240c" fill-rule="evenodd" stroke="#000" stroke-width="3.75"/>
 <path d="m284.31 193.94c3.108-8.545 3.108-14.759 13.206-15.536 10.099-0.777 8.545 0.777 20.197 1.554 7.768 5.438 7.768 1.553 11.652 18.643-1.553 20.197-1.553 35.733-10.875 45.055s-28.742 19.42-31.072 13.206c-2.331-6.215-3.884-17.09-3.108-19.42l0.777-2.331" fill="#ffd9d9" fill-rule="evenodd" stroke="#000" stroke-width="3.75"/>
 <path d="m98.655 323.66s5.438-1.553 13.205 3.108c7.768 4.66 2.33-12.43 18.643 13.205s17.091 17.867 14.76 35.734c-2.33 17.866-6.214 19.42-6.214 18.643s-9.322 0.777-9.322 0.777-0.777 3.884 0-4.66c0.776-8.546 4.661-26.413-2.33-18.645-6.992 7.77-7.769 19.421-10.876 4.661-3.107-14.759-3.107-16.313-8.545-14.759-5.437 1.554-10.098 0-11.651-4.66-1.554-4.662-6.992-8.546-13.983-7.769s13.206-24.08 16.313-25.635z" fill="#5c240c" fill-rule="evenodd" stroke="#000" stroke-width="3.75"/>
</svg>
