<?xml version="1.0" encoding="UTF-8"?>
<svg width="128" height="128" xmlns="http://www.w3.org/2000/svg" xmlns:xlink="http://www.w3.org/1999/xlink">
 <g fill-rule="evenodd">
  <path d="M26.308 43.86C13.533 43.554 1.717 65.115 6.083 72.08c4.455 9.074 13.385 17.71 24.036 17.522 7.81-.023 16.695-4.246 23.616-7.406 6.077-3.222 10.957-8.078 16.101-9.471 5.746-.424 12.228.243-2.397-2.396-11.959-3.5-9.62-11.994-19.79-18.242-5.069-3.28-15.421-7.154-21.341-8.227z" fill="#fff"/>
  <path d="M24.928 41.374C12.153 41.07-.575 65.821 3.79 72.786c4.455 9.074 13.385 18.166 24.037 17.978 7.809-.023 17.606-2.423 24.527-5.583 6.077-3.222 10.957-10.357 18.38-10.382 5.746-.424 10.98.15 16.747 1.043 12.202 2.446 24.338 5.205 36.464 8 1.025-3.721-11.89-4.859-14.202-6.477-14.486-3.364-24.5-5.97-39.126-8.61-11.959-3.5-14.18-13.361-24.35-19.609-5.068-3.28-15.42-6.699-21.34-7.772zm-.266 3.928c1.802 2.862.96 18.033.22 20.614-2.198 4.508-7.59 1.709-9.395-1.45-1.167-3.772-.074-13.224.017-15.129 2.892-3.115 4.558-4.167 9.158-4.035zm4.429 1.147c6.71 1.57 10.875 2.284 16.064 6.866-1.12 2.482.716 8.381.696 11.582.71 4.171-.9 8.632-6.063 7.984-4.214.26-7.984-.917-11.07-4.297-1.87-5.05.002-19.01.373-22.135zm-16.962 8.788c-1.535 3.464 2.944 10.69-1.807 11.166-3.422-1.836-3.877-4.589-.97-7.23.899-1.33 1.824-2.643 2.777-3.936zm36.634.266c4.98 4.389 9.123 9.754 14.782 13.346-1.492 3.552-8.564 1.994-12.343 1.055-2.474-2.431-2.247-12.942-2.439-14.401zM6.097 65.671c2.885 2.737 4.978 3.14 3.836 7.606.12 2.175.21 4.623-1.292 1.481-1.79-2.97-3.181-5.495-2.544-9.087zm17.211 7.655c.107 4.498-.729 8.473-.61 12.97-4.782-1.608-8.92-4.563-11.26-8.621 2.223-1.357-.336-6.13.395-8.978.795-.36 12.41-.523 11.475 4.63zm3.23-4.637c.185 4.78 5.916 6.182 9.814 6.443 6.133-1.632 3.009 5.811 3.745 9.561-2.102 3.415-9.91 3.043-14.095 2.951-1.024-1.036-.28-11.243-.404-16.652-.116.198.965-1.566.94-2.303zm40.394 1.868c-1.842 3.127-8.614 5.964-12.48 8.766l-.318-6.54c3.386.491 9.961-.814 12.798-2.226zm-14.39 5.2c.382 1.25-1.513 4.535-.324 4.878-1.622 1.591-4.693 2.52-7.56 3.597-5.278 3.183-1.936-5.512-2.86-8.34-.453-2.334 7.213-.008 6.68-3.619 0 0 4.876-.02 4.065 3.485zm18.553 1.925c-4.115.267-8.836 6.806-9.343 10.15 3.404-1.958 6.236-6.946 10.549-6.527 7.212-.774 28.833 6.794 33.673 7.908 1.176-3.519-34.19-11.616-34.88-11.531z"/>
 </g>
</svg>
