<?xml version="1.0" encoding="UTF-8"?>
<svg width="128" height="128" xmlns="http://www.w3.org/2000/svg" xmlns:xlink="http://www.w3.org/1999/xlink">
 <g fill-rule="evenodd">
  <path d="M52.848 47.015c-13.232.45-9.644 3.4-6.877 3.692-1.236 1.47-1.959 5.834-2.047 12.357-.222 13.068-.48 27.176 7.478 38.133 5.55 6.66 15.832 5.272 20.07-2.526 6.81-9.179 9.36-20.194 10.38-31.24.118-4.593-.961-13.186-2.737-16.173-3.276-2.933-10.532-3.164-26.267-4.243z" fill="#ed6826"/>
  <path d="M44.878 50.935c4.485-4.12 12.968-3.514 18.907-1.454 1.454 2.181 14.18-4 16.725 1.818.727 10.18-8.362 13.453-16.361 8.362-6.909-.727-11.999 8.363-19.27-8.726z" fill="#fefefe" fill-opacity=".125"/>
  <path d="M45.949 49.826c4.484-4.12 11.877-2.788 17.816-.727 1.454 2.181 14.18-4 16.725 1.818-1.818 7.271-9.09 9.453-17.089 4.363-6.908-.728-10.18 9.453-17.452-5.454zM81.237 69.842c-.606 12.726-4.484 22.542-10.544 32.723-6.18 2.909-14.18 2.545-16.725.727-3.636-11.998 14.544-2.909 27.27-33.45z" fill="#fefefe" fill-opacity=".125"/>
  <path d="M80.2 75.317c-.605 12.726-3.393 15.998-9.453 26.179-6.18 2.908-11.635 5.453-14.18 3.635-3.636-11.998 10.908.728 23.634-29.814z" fill="#fefefe" fill-opacity=".125"/>
  <path d="M51.914 45.308c-13.232.45-25.37 3.796-37.181 10.135 5.048 2.106 10.379-1.343 15.292-1.14 4.011-.734 10.427-3.05 13.194-2.758-1.236 1.47-1.232 5.47-1.32 11.994-.221 13.068 1.339 27.903 9.296 38.86 5.55 6.66 17.65 5.999 21.889-1.799 6.809-9.178 8.996-20.557 10.015-31.604.118-4.593 1.584-14.64.9-17.99 7.995-1.115 22.148 4.19 29.564 7.556-1.586-4.71-5.757-5.793-9.775-6.837-15.734-5.247-35.412-6.428-51.874-6.417zm.36 3.598c4.036-.14 9.11 1.145 10.375 4.378 1.353 4.61-.605 9.353 0 14.033-.312 9.168-.648 18.358-.96 27.526 3.934-3.513 2.055-9.468 2.4-13.973 1.6-9.377-.528-18.684 1.678-28.006.975-2.137 3.248-3.716 5.638-3.598 6.936.931 10.418 8.916 9.235 15.233-.408 13.069-3.535 25.554-11.994 36.041-5.617 5.807-15.54 3.09-18.29-4.377-5.888-10.323-4.381-21.128-4.798-32.624-.072-4.921.064-14.787 3.178-14.033.925-.346 2.193-.553 3.538-.6zm-45.157 1.38c-1.122 2.606-.706 5.537-.48 8.276.687 4.022 3.015 7.995 6.837 9.715 2.423.967 10.38 1.416 10.674.06-.045-1.017-6.687-2.266-8.875-2.639-3.04-.76-4.124-2.781-5.098-5.637-.95-2.661-2.45-9.347-3.058-9.775zm115.682 1.32c-1.221-.04.255 9.186-.72 11.513-1.003 2.204-3.166 3.654-5.457 4.258-2.35.694-4.842.687-6.897 1.98 1.844 2.293 9.88.732 11.994-.78 2.867-2.424 3.894-6.473 3.239-10.075-.323-2.399-1.114-4.721-2.16-6.897z"/>
 </g>
</svg>
