<?xml version="1.0" encoding="UTF-8"?>
<svg width="128" height="128" xmlns="http://www.w3.org/2000/svg" xmlns:xlink="http://www.w3.org/1999/xlink">
 <g fill-rule="evenodd">
  <path d="M102.185 64.357c-5.18-2.98-9.757-4.942-15.825-5.536-9.897-.085-18.622 5.283-27.418 9.08-4.862 1.807-9.31-3.966-14.042-4.33-8.205-1.861-15.292-.874-23.083 2.469-3.659 3.147-1.831 6.155 1.737 8.5 14.781 8.06 30.68 10.556 47.426 7.055 13.98-3.567 20.655-7.256 32.49-13.459 4.61-.066 3.148-.69-1.285-3.779z" fill="#fe0202"/>
  <path d="m57.752 68.61s26.206-12.914 28.864-10.635c6.837 1.52 15.192 5.697 16.332 9.115-9.115-1.899-30.004-1.52-45.196 1.52z" fill="#fefefe" fill-opacity=".276"/>
  <path d="M64.019 65.706S84.528 55.45 87.186 57.73c6.836 1.52 11.774 3.418 12.913 6.836-9.115-1.899-20.889-1.899-36.08 1.14z" fill="#fefefe" fill-opacity=".276"/>
  <path d="M116.004 55.248c.783 5.602 8.033 7.493 1.292 8.192-4.49 1.06-9.095 3.382-13.528.293-5.18-2.98-10.897-6.84-16.965-7.435-9.896-.085-18.621 5.283-27.418 9.08-4.862 1.807-8.93-3.586-13.662-3.95-8.205-1.861-16.81.265-24.602 3.608-2.899 2.007-4.892 4.126-8.504 2.273-3.917.167-7.644-3.462-2.93-7.697-7.083.468-7.033 9.755-5.772 14.722-.013 3.487 1.695-8.852 5.74-5.977 4.252.673 7.736 3.974 11.304 6.318 14.781 8.06 32.58 12.075 49.325 8.575 13.22-2.428 25.593-9.156 37.427-15.358 4.61-.066 9.884-4.867 13.37-1.243.83 2.624-.382 4.25.182 8.319 2.141-3.868 3.988-8.955.72-12.792-1.396-2.1-4.002-5.38-5.98-6.928zm-29.343 4.3c5.918.603 11.044 4.036 16.057 6.948-.232 2.303-5.95.261-8.346 1.409-22.583 5.038-46.612 5.365-69.295.512-2.442-.714-6.305.268-1.216-2.15 5.559-3.171 9.578-2.217 15.777-2.335 6.269.425 11.967 3.305 17.684 5.65 9.603-3.745 18.723-9.789 29.339-10.034zm12.052 10.743C82.735 77.921 64.74 84.06 46.86 80.514c-8.586-1.602-16.74-4.968-24.44-9.023 25.43 3.398 47.063 5.277 76.292-1.2z"/>
 </g>
</svg>
