<?xml version="1.0" encoding="UTF-8"?>
<svg width="128" height="128" xmlns="http://www.w3.org/2000/svg" xmlns:xlink="http://www.w3.org/1999/xlink">
 <g fill-rule="evenodd">
  <path d="M85.41 44.776c-8.722-1.158-17.633 8.072-21.737 13.603-5.043 1.452-6.76-9.8-11.567-10.469-7.089-4.177-14.238-3.416-20.214 2.375-4.143 3.426-7.31 8.974-8.76 14.007-.712 4.868-1.796 4.506.359 6.709 2.211 5.859 5.448 9.785 9.13 12.293 15.262 12.087 36.622 14.103 56.297 5.346 5.707-3.169 9.303-6.598 13.305-11.71 1.32-4.379 6.349-5.034 1.431-15.479-4.01-7.663-9.197-15.564-18.244-16.675z" fill="#ed6826"/>
  <path d="M25.533 60.953s16.974-27.535 31.685-4.149c4.903 3.018 15.088-16.597 22.255-13.58 12.07-.376 24.14 19.615 24.518 21.501-6.413-3.395-9.43-10.561-21.5-10.561-12.071 0-15.843 3.017-22.633 3.772-12.447-1.132-24.518-5.658-34.325 3.017z" fill="#fefefe" fill-opacity=".125"/>
  <path d="m30.06 54.194s15.465-20.369 30.175 3.017c4.905 3.019 15.088-16.596 22.255-13.579 12.07-0.377 21.123 15.843 21.5 17.729-6.411-3.395-7.92-10.185-19.99-10.185s-14.334 6.413-21.123 7.167c-6.79 0.754-18.483-11.316-32.817-4.15zm-0.07 13.097c9.337-2.096 21.248-2.192 29.443 5.431 4.288 4.003 32.589-10.29 41.736-4.287-9.433 5.145-30.873 14.864-38.591 6.288-5.146 5.432-24.585 1.716-32.589-7.432z" fill="#fefefe" fill-opacity=".125"/>
  <path d="M33.562 66.197c9.339-2.096 16.39-1.048 24.585 6.575 4.288 4.002 28.3-11.435 37.448-5.432-8.29.858-20.296 13.436-34.304 7.433-5.431-.286-19.724.572-27.729-8.576z" fill="#fefefe" fill-opacity=".125"/>
  <path d="M84.82 42.04c-8.722-1.159-17.633 8.072-21.738 13.602-5.042 1.452-6.26-9.8-11.068-10.468-7.09-4.178-16.229-1.923-22.205 3.867-4.144 3.426-5.817 9.97-7.268 15.003-.711 4.868-9.45 6.626-12.67 9.002-2.637 4.563 9.382-3.003 11.536-.8 3.721 2.087 4.453 7.16 8.135 9.668 15.262 15.073 41.6 19.217 60.28 8.469 5.706-3.17 9.8-8.091 13.802-13.203 1.32-4.379 9.228-5.61 13.603-5.935-3.77-1.692-7.752-1.09-12.67-11.535-4.01-7.663-10.69-16.56-19.737-17.67zm-.133 3.6c9.705 1.532 16.083 10.249 19.804 18.67 2.374 2.044.65 6.658-2.334 3.535-6.58-2.383-13.843-3.895-20.804-2.534-6.249 1.626-11.596 5.037-18.27 5.134-4.142.41-7.975-.762-10.336-4.067-3.88-4.415-10.159-4.954-15.536-3.6-4.047.908-7.914 2.586-11.87 3.8-3.379-2.028 1.67-6.597 2.334-9.402 3.94-6.783 12.313-11.629 20.138-8.935 5.742 1.852 8.501 10.054 14.27 10.935 5.77.316 4.501-6.31 9.268-8.068 4.226-3.489 8.015-5.886 13.336-5.468zm33.873 15.07c-.893.402 3.157 8.188 3.401 11.602-1.484 6.08-4.105 7.286-7.402 10.736 4.687.682 8.847-3.217 10.47-8.602.491-6.77-4.595-11.445-6.469-13.736zM9.672 62.577s-1.99 1.319-3.668 3.534c-1.656 2.186-3.047 5.405-1.733 9.002.017.048-.019.085 0 .133h.066c1.238 5.102 7.002 7.602 7.002 7.602l-5.535-9.735 3.868-10.536zm36.074 3.667c2.933.647 5.043 3.326 7.401 5.535 5.02 4.852 13.313 3.565 19.137 1.067 5.418-2.548 11.233-6.9 17.404-5.668 5.287.486 10.404 2.02 15.336 3.934C94.277 90.171 68.457 97.491 48.08 89.716c-10.636-3.772-19.427-9.832-25.005-19.67 5.982-2.803 12.779-3.1 19.404-3.668 1.214-.343 2.29-.349 3.268-.134z"/>
 </g>
</svg>
