<?xml version="1.0" encoding="UTF-8"?>
<svg width="128" height="128" xmlns="http://www.w3.org/2000/svg" xmlns:xlink="http://www.w3.org/1999/xlink">
 <g fill-rule="evenodd">
  <path d="M4.336 60.215s28.619 6.65 33.822 7.516c5.204.868 81.811-7.227 83.835-8.672 2.023-1.446-3.47 19.369-5.493 23.127-4.914 8.961-23.126 17.345-38.737 19.368-13.298.29-48.566-2.89-57.239-8.094-6.938-7.516-17.056-30.065-16.188-33.245z" fill="#fff"/>
  <path d="M123.977 55.497C89.805 65.942 56.25 68.863 21.414 62.577c-5.675-1.372-12.815-3.316-18.342-5.192-.454 7.678 1.792 17.848 5.8 24.342 2.486 4.97 6.521 10.49 11.463 13.284 12.57 7.372 28.942 9.209 43.223 8.969 14.85-.6 30.875-2.048 44.235-8.901 4.304-2.146 7.566-6.641 9.306-11.126 4.11-7.531 7.943-16.544 7.754-25.354l-.876-3.102zm-2.563 5.192c-.137 2.672-1.622 8.873-2.495 8.968.534-3.477-2.561-8.978 2.495-8.968zm-5.752 2.282c-.33 3.659.761 6.905-.265 10.395-2.275 2.987-9.099 6.786-7.951.239.577-3.884-3.972-9.056 1.696-8.87 2.465-.748 4.083-.928 6.52-1.764zM6.78 62.644c3.185-1.247.806 7.582 1.011 6.204-1.18-1.361-.953-4.107-1.011-6.204zm3.371.944c2.266 1.375 8.517 1.162 8.092 3.372-1.081 3.18.629 7.965-1.146 10.047-5.474.939-8.18-4.821-6.946-9.44v-3.979zm93.03 3.294c.58 5.419 1.648 9.447 1.016 14.892-1.962 3.293-4.58 5.842-6.665 1.577-2.972-3.967-2.138-9.154-3.444-13.865 1.942-1.946 5.903-1.297 9.093-2.604zm-82.443-.327c2.823 1.663 9.56-.01 9.845 3.507-.787 4.578 1.51 10.773-4.046 12.812-4.741 3.644-5.816-3.943-6.203-7.215-.308-3.012-.1-6.132.404-9.104zm12.07 2.428c3.707 1.184 10.288.451 12.273 2.36.198 4.323 1.04 9.014-.27 13.15-4.083 2.004-13.493 3.186-12.272-3.98-.54-3.708 1.113-8.475.27-11.53zm57.395.332c1.148 5.437 2.399 10.41 1.654 15.991-1.914 2.692-9.096 3.302-9.554-.274.255-4.9-.665-9.749-.674-14.633 3.094-.37 5.506-.542 8.574-1.084zm-12.133 1.52c.992 5.396.303 10.513 1.146 15.888-.055 4.711-4.158 3.16-7.276 2.603-3.949-.177-7.922-1.903-6.427-6.182.605-3.62-1.808-9.475.067-11.599 4.495-.1 8.019-.246 12.49-.71zm-29.763.036c4.639 1.014 9.992-.497 13.175 1.484-.214 5.286.288 9.743 1.074 14.948-2.052 2.817-6.373 1.907-9.55 1.883-6.317.496-5.545-5.326-4.699-9.855.052-2.763-.385-5.699 0-8.46zM10.76 77.075c1.961 2.908 6.05 1.049 4.834 5.13-.012 2.682.605 5.505-1.125 2.017-1.389-2.3-2.596-4.696-3.709-7.147zm103.44.404c1.029 3.856-1.108 7.19-3.957 9.653-1.734-.149-.83-5.029-2.257-6.286.248-1.698 4.637-1.71 6.214-3.367zm-95.016 2.449c-.223 3.755 2.127 6.229 4.466 6.857-.462 2.426 1.242 7.793-2.464 4.284-5.992-1.8-1.714-6.71-2.002-11.141zm11.536 2.474c-1.175 4.217 2.969 5.525 5.239 5.731.149 3.135.156 5.575.306 8.71-3.856-.825-8.896-1.001-9.098-5.504-.427-4.437-.572-6.931 3.553-8.937zm63.894 3.221c3.281 1.901 3.78 5.369 2.334 8.076-2.915 1.164-6.57 4.015-5.493-1.483-2.265-5.336 4.479-.617 3.159-6.593zm11.562-.498c.834 3.332 1.049 6.048-3.17 6.515-3.7 3.233-3.897-4.322-.202-4.248 1.235-.768 2.607-.968 3.372-2.267zm-60.756 1.458c.035 4.268 5.23 3.717 3.584 8.19.14 2.896 1.406 6.254-2.64 4.42-2.297-1.05-6.606.381-5.95-3.305-.125-2.76.055-5.534-.072-8.294 2.214.148 3.082.109 5.078-1.011zm37.18 3.055c3.19.939 6.431-.932 5.504 3.688 2.168 4.992-4.882 3.705-7.89 4.922-2.058.917-1.392-5.934-.253-6.364 1.62-.484 2.41-.503 2.64-2.246zm-16.359.555c3.497 2.061 5.698 2.695 9.71 2.324-3.468.217 2.844 7.207-2.397 6.14-3.044.48-4.107.767-7.178.909 0-.201.027-6.405-.135-9.373zm-5.244 1.447c1.818-.143 2.334.483 1.628 3.47-.225 1.596-.356 3.488-.047 4.42 0 .088-5.348.24-9.59-.1.618-3.107-2.2-8.508 2.007-7.52 2.248.46 4.184-.127 6.002-.27z"/>
 </g>
</svg>
