<?xml version="1.0" encoding="UTF-8"?>
<svg width="128" height="128" xmlns="http://www.w3.org/2000/svg" xmlns:xlink="http://www.w3.org/1999/xlink">
 <path d="M68.372 5.905c.768 0 26.889 15.941 29.578 21.511 10.371 12.292 8.643 63.189-.576 72.408-5.762 5.761-28.234 21.319-35.532 20.166-23.624-12.1-26.889-17.093-33.61-35.34-5.57-22.663-.385-51.088 13.636-68.566 11.14-4.417 21.703-9.987 26.504-10.179z" fill="#2b0000" fill-rule="evenodd"/>
 <path d="M41.657 57.902c7.936 1.016 16.055 4.091 21.4 10.253 1.383 2.471 3.98-1.836 6.182-2.212 5.728-2.978 12.627-3.703 18.777-1.637 3.42.571 6.8 2.806 9.268 5.393 4.136 4.265 5.313 8.795 2.507 14.563-1.54 2.897-4.418 4.418-7.147 6-10.705 5.23-21.069 7.26-32.88 6.357-8.301-.745-14.619-2.55-21.215-7.725-5.25-5.938-9.626-12.033-8.891-20.222.386-5.17 2.19-9.744 7.267-10.444 1.557-.299 3.15-.377 4.732-.326z" fill="#ed6826" fill-rule="evenodd"/>
 <path d="M98.142 27.992C91.228 17.813 73.174 7.25 65.492 6.29c-7.107.576-23.432 9.22-32.46 23.048 0 5.57-1.536 20.55-1.152 22.855 21.511-9.027 43.022-9.795 66.07.576-1.345-3.84-1.153-22.279.192-24.776zM95.964 100.784c-6.914 10.18-19.206 18.822-31.69 18.63-7.107-.576-20.167-7.106-29.386-19.014 0-5.57.576-9.987.96-12.292 21.703 8.835 36.684 11.524 59.924-.192-1.345 3.841-1.153 10.371.192 12.868z" fill="#fff" fill-rule="evenodd"/>
 <path d="M65.708 4.602c7.796.142 17.264 3.82 22.982 9.1 10.616 8.987 14.79 19.636 17.345 35.172 2.223 16.632 1.924 34.728-6.158 48.976-4.72 8.886-11.597 16.78-21.26 20.97-5.643 2.765-12.06 2.318-18.137 1.994-10.975-1.599-22.23-9.683-27.185-19.396-4.349-9.872-9.907-27.827-9.82-40.83 2.405-22.156 10.596-37.54 15.416-42.938 6.822-6.979 16.905-12.684 26.817-13.048zm1.933 4.495c-.389 12.08-.969 20.897-1.357 32.978 5.737-.707 12.66 2.758 16.567 1.68.352-10.246.897-17.227 1.25-27.474-4.807-4.312-9.732-7.755-16.46-7.184zm-3.674-.12c-5.57.403-13.386.674-14.221 7.322-.133 9.967-.65 18.397-.783 28.364 4.553-2.952 14.088 1.1 13.59-6.503.343-10.624 1.07-18.559 1.414-29.183zM46.11 16.54c-6.542 4.94-10.321 8.831-12.643 16.828.288 5.165-1.89 14.563-.031 17.401 4.21-3.081 13.207-2.743 11.726-10.095.124-9.005.824-15.129.948-24.134zm41.015 1.057c-.364 10.238-.344 17.978-.708 28.216 3.783-.14 9.935 7.969 10.472 1.481.487-5.931-.059-10.326-.244-16.253-2.877-5.022-5.018-9.7-9.52-13.444zM99.55 31.75c.22 7.502 1.158 13.856.907 23.137-3.769 1.174-9.6-4.591-14.043-5.24-14.614-5.43-31.074-3.934-45.756.4-3.5-.028-8.428 4.31-10.932 5.274-.218-4.42.88-11.912.652-16.332-6.365 18.751-3.437 37.762 2.725 56.514.514-8.638 1.764-8.432 2.054-11.034 13.163 9.239 31.508 13.675 45.093 9.35 5.531-1.563 11.944-6.29 16.886-9.208.158 4.182-.35 12.89-.48 13.628 8.221-15.23 7.713-33.163 6.839-49.937-.508-5.664-1.597-11.342-3.945-16.552zM36.47 89.88c-2.18 6.03-.289 11.19 4.668 15.1.775-4.739.852-8.328 1.425-13.149-2.148-.994-3.994-.849-6.093-1.95zm57.361.382c-3.576 2.046-1.593 7.348-2.354 11.423 1.985 2.323 2.836-6.26 2.739-8.542-.017-.908-.136-2.007-.385-2.88zm-48.435 3.356c.387 5.942-3.168 11.354.225 16.34 2.33 2.486 9.379 7.841 8.036.542.206-5.412-.21-7.967.702-13.316-3.447-.958-5.684-2.133-8.963-3.566zm42.54-.45c-4.839.925-7.55 3.553-5.448 9.005.438 3.36-1.358 9.991.388 10.86 5.192-2.737 6.918-6.402 4.848-12.423-.148-2.415.29-5.024.212-7.443zm-30.32 3.804c.934 5.5-.505 9.925-.515 15.45-1.788 5.298 3.667 6.917 6.375 3.335.54-5.675 1.283-9.884 1.92-15.586-.26-4.446-4.98-1.42-7.78-3.2zm20.138-.332c-3.411 2.353-9.55-1.925-9.228 4.31-.069 5.81.012 10.853-.138 16.662 3.978-.102 9.403 1.288 9.44-4.151.11-5.607-.155-11.213-.074-16.82z"/>
 <path d="M41.4 56.42c7.937 1.017 16.056 4.092 21.4 10.254 1.384 2.471 3.98-1.836 6.183-2.212 5.728-2.978 12.626-3.703 18.777-1.637 3.42.571 6.8 2.806 9.268 5.393 4.135 4.264 7.184 10.979 4.379 16.747-1.54 2.897-4.73 4.418-7.46 6-10.704 5.23-22.94 6.947-34.752 6.045-8.3-.745-16.802-3.173-23.399-8.349-5.25-5.938-9.625-13.593-8.89-21.782.386-5.171 4.685-9.432 9.763-10.132 1.557-.299 3.149-.377 4.731-.327zm-.338 4.442c-4.354-.285-7.434.186-9.19 4.614-2.15 5.778-.615 9.93 2.343 14.958 1.906 3.009 3 7.108 6.334 8.681 10.935 6.208 24.373 6.02 36.537 4.01 7.772-1.49 14.519-3.042 20.583-8.321 2.894-4.36.53-9.432-2.511-13.088-2.572-3.27-5.692-4.643-9.738-5.489-9.171-2.625-20.392 2.289-26.799 8.84-.5 1.254 2.053-5.933-.278-7.425-5.066-4.862-10.391-5.928-17.28-6.78z" fill-rule="evenodd"/>
</svg>
