<?xml version="1.0" encoding="UTF-8"?>
<svg width="106.67" height="106.67" xmlns="http://www.w3.org/2000/svg" xmlns:xlink="http://www.w3.org/1999/xlink">
 <path d="M56.781 9.031c.53.457.944 1.06 1.438 1.563a20.311 20.311 0 00-2.032-.156c-.615-.352-1.345-.57-2.156-.657.194-.178.333-.422.532-.594-8.15.898-13.395 4.31-15.376 9.22-.108.224-.19.457-.28.687-.122.369-.292.709-.376 1.093-.224.889-.343 1.782-.25 2.72 0 2.772.768 5.814 2.532 9.093.298-.679.61-1.265.906-1.938 2.86 3.758 8.014 6.282 13.937 6.282 5.973 0 11.156-2.565 14-6.375.288.651.586 1.217.875 1.875 6.43-11.951.66-21.226-13.75-22.813zM28.594 28.594c.538.465.967 1.081 1.468 1.593A20.377 20.377 0 0028 30.032c-.616-.36-1.339-.565-2.156-.656.193-.178.332-.422.531-.594-8.138.896-13.388 4.289-15.375 9.188-.117.24-.216.473-.313.718-.125.385-.289.755-.374 1.157-.208.861-.31 1.75-.22 2.656.001 2.773.768 5.815 2.532 9.094.295-.67.613-1.242.906-1.907 2.866 3.738 8.003 6.25 13.906 6.25 3.433 0 6.621-.84 9.25-2.28l-.062 5c-2.658-.63-5.55-1.063-8.75-1.063-10.382 0-18.848 3.717-19.344 8.406l-.187 18.688c13.17.888 25.655.8 39 .062L47.219 66c-.02-.186-.144-.349-.188-.531 5.777.168 11.63.19 17.438.031-3.8 1.535-6.333 3.685-6.594 6.156l-.219 18.688c13.17.888 25.656.769 39 .031l-.125-18.719c-.495-4.689-8.962-8.406-19.344-8.406-.588 0-1.081.133-1.656.156L75.5 61.5c.42.026.821.094 1.25.094 5.991 0 11.162-2.608 14-6.438.293.664.611 1.237.906 1.907 6.43-11.951.66-21.226-13.75-22.813.538.465.967 1.082 1.469 1.594a20.377 20.377 0 00-2.063-.157c-.622-.363-1.33-.567-2.156-.656.194-.178.333-.422.531-.593-5.085.56-9.034 2.087-11.812 4.343A38.919 38.919 0 0056.094 38c-4.371 0-8.23.758-11.469 1.875-1.188-6.032-6.78-10.262-16.031-11.281z" fill-opacity=".5" fill-rule="evenodd"/>
 <path d="M68.18 20.446c0 7.164-7.312 12.978-16.32 12.978-9.009 0-16.32-5.814-16.32-12.978S42.85 7.467 51.86 7.467c9.008 0 16.32 5.815 16.32 12.979z" fill="#955900" fill-rule="evenodd" stroke="#000" stroke-linejoin="round" stroke-width="1.25"/>
 <path d="M52.303 35.069c-10.382 0-18.842 3.738-19.337 8.427l-.196 18.687c13.17.888 25.643.776 38.987.038l-.117-18.725c-.496-4.689-8.955-8.427-19.337-8.427z" fill="#0000d1" fill-rule="evenodd" stroke="#000" stroke-linejoin="round" stroke-width="1.25"/>
 <path d="M50.792 6.256c-6.151 5.314-9.8 13.838-13.754 22.817-6.43-11.951-.655-21.23 13.754-22.817zM53.007 6.09c6.152 5.315 9.8 13.839 13.754 22.817 6.43-11.95.655-21.23-13.754-22.816z" fill-rule="evenodd" stroke="#000" stroke-linejoin="round" stroke-width="1.25"/>
 <path d="m49.713 17.275c0 1.358-1.259 2.46-2.81 2.46s-2.81-1.102-2.81-2.46c0-1.357 1.259-2.459 2.81-2.459s2.81 1.102 2.81 2.46z" fill="#fff" fill-rule="evenodd" stroke="#000" stroke-width="1.25"/>
 <path d="M44.911 18.87c-.154-1.918 4.326-1.77 3.863.147-1.082 1.18-3.554.59-3.863-.147z" fill="none" stroke="#000" stroke-linejoin="round" stroke-width="1.25"/>
 <path d="m59.31 16.51c0 1.357-1.26 2.459-2.81 2.459-1.552 0-2.811-1.102-2.811-2.46 0-1.357 1.26-2.458 2.81-2.458 1.552 0 2.81 1.101 2.81 2.459z" fill="#fff" fill-rule="evenodd" stroke="#000" stroke-width="1.25"/>
 <path d="M54.553 17.964c-.154-1.917 4.326-1.77 3.863.147-1.082 1.18-3.554.59-3.863-.147z" fill="none" stroke="#000" stroke-linejoin="round" stroke-width="1.25"/>
 <path d="M43.984 25.654c2.318 3.982 13.597 2.95 15.142-.59" fill="none" stroke="#000" stroke-width="1.25"/>
 <path d="M50.937 36.104c-.773-.297-14.988.795-16.842 6.75-.309 2.185-.463 18.564-.463 18.564l19.468.695c9.116-5.261-25.803 0-2.163-26.009z" fill="#fff" fill-opacity=".5" fill-rule="evenodd"/>
 <path d="m53.41 8.25c-5.564-6.34-31.522 8.85-11.436 21.092 8.035 2.95-6.49-24.63 11.434-21.09z" fill="#fff" fill-opacity=".25" fill-rule="evenodd"/>
 <path d="m39.972 40.031c0 7.164-7.312 12.978-16.32 12.978-9.01 0-16.32-5.814-16.32-12.978s7.31-12.978 16.32-12.978c9.008 0 16.32 5.814 16.32 12.978z" fill="#ffd5b7" fill-rule="evenodd" stroke="#000" stroke-linejoin="round" stroke-width="1.25"/>
 <path d="M24.095 54.654c-10.382 0-18.842 3.739-19.337 8.428l-.196 18.687c13.17.888 25.643.775 38.987.037l-.117-18.724c-.496-4.69-8.955-8.428-19.337-8.428z" fill="#005900" fill-rule="evenodd" stroke="#000" stroke-linejoin="round" stroke-width="1.25"/>
 <path d="M22.584 25.841c-6.152 5.314-9.8 13.839-13.754 22.817-6.43-11.95-.655-21.23 13.754-22.817zM24.799 25.676c6.151 5.314 9.8 13.838 13.754 22.817 6.43-11.95.655-21.23-13.754-22.817z" fill="#ffbf00" fill-rule="evenodd" stroke="#000" stroke-linejoin="round" stroke-width="1.25"/>
 <path d="m21.505 36.861c0 1.357-1.259 2.459-2.81 2.459s-2.81-1.102-2.81-2.459 1.259-2.46 2.81-2.46 2.81 1.103 2.81 2.46z" fill="#fff" fill-rule="evenodd" stroke="#000" stroke-width="1.25"/>
 <path d="M16.703 38.455c-.155-1.917 4.326-1.77 3.863.148-1.082 1.18-3.554.59-3.863-.148z" fill="none" stroke="#000" stroke-linejoin="round" stroke-width="1.25"/>
 <path d="m31.102 36.095c0 1.358-1.26 2.46-2.81 2.46-1.552 0-2.811-1.102-2.811-2.46 0-1.357 1.259-2.459 2.81-2.459 1.552 0 2.81 1.102 2.81 2.46z" fill="#fff" fill-rule="evenodd" stroke="#000" stroke-width="1.25"/>
 <path d="M26.345 37.55c-.155-1.918 4.326-1.77 3.863.147-1.082 1.18-3.554.59-3.863-.148z" fill="none" stroke="#000" stroke-linejoin="round" stroke-width="1.25"/>
 <path d="M15.776 45.24c2.317 3.982 13.597 2.95 15.142-.59" fill="none" stroke="#000" stroke-width="1.25"/>
 <path d="M22.729 55.69c-.773-.298-14.988.794-16.842 6.75-.309 2.184-.463 18.564-.463 18.564l19.468.695c9.116-5.262-25.803 0-2.163-26.01z" fill="#fff" fill-opacity=".5" fill-rule="evenodd"/>
 <path d="m25.201 27.836c-5.562-6.342-31.52 8.85-11.434 21.09 8.035 2.95-6.49-24.63 11.434-21.09z" fill="#fff" fill-opacity=".25" fill-rule="evenodd"/>
 <path d="m89.295 45.685c0 7.164-7.311 12.978-16.32 12.978s-16.32-5.814-16.32-12.978 7.311-12.978 16.32-12.978 16.32 5.814 16.32 12.978z" fill="#ffeeb7" fill-rule="evenodd" stroke="#000" stroke-linejoin="round" stroke-width="1.25"/>
 <path d="M73.418 60.309c-10.382 0-18.842 3.738-19.337 8.427l-.195 18.687c13.17.888 25.642.776 38.986.038l-.117-18.725c-.496-4.69-8.955-8.427-19.337-8.427z" fill="#8200d1" fill-rule="evenodd" stroke="#000" stroke-linejoin="round" stroke-width="1.25"/>
 <path d="M71.907 31.495c-6.151 5.314-9.8 13.839-13.754 22.817-6.43-11.95-.655-21.23 13.754-22.817zM74.122 31.33c6.152 5.314 9.8 13.838 13.754 22.817 6.43-11.95.655-21.23-13.754-22.817z" fill-rule="evenodd" stroke="#000" stroke-linejoin="round" stroke-width="1.25"/>
 <path d="m70.828 42.515c0 1.357-1.259 2.46-2.81 2.46s-2.81-1.103-2.81-2.46 1.259-2.459 2.81-2.459 2.81 1.102 2.81 2.46z" fill="#fff" fill-rule="evenodd" stroke="#000" stroke-width="1.25"/>
 <path d="M66.026 44.11c-.154-1.918 4.326-1.77 3.863.147-1.082 1.18-3.554.59-3.863-.148z" fill="none" stroke="#000" stroke-linejoin="round" stroke-width="1.25"/>
 <path d="m80.425 41.75c0 1.357-1.26 2.459-2.81 2.459-1.552 0-2.81-1.102-2.81-2.46 0-1.357 1.258-2.459 2.81-2.459 1.55 0 2.81 1.102 2.81 2.46z" fill="#fff" fill-rule="evenodd" stroke="#000" stroke-width="1.25"/>
 <path d="M75.668 43.204c-.154-1.918 4.327-1.77 3.863.147-1.082 1.18-3.554.59-3.863-.147z" fill="none" stroke="#000" stroke-linejoin="round" stroke-width="1.25"/>
 <path d="M65.099 50.894c2.318 3.982 13.597 2.95 15.142-.59" fill="none" stroke="#000" stroke-width="1.25"/>
 <path d="M72.052 61.344c-.773-.298-14.988.794-16.842 6.75-.309 2.184-.463 18.564-.463 18.564l19.468.695c9.116-5.261-25.803 0-2.163-26.009z" fill="#fff" fill-opacity=".5" fill-rule="evenodd"/>
 <path d="m74.524 33.49c-5.562-6.342-31.52 8.85-11.434 21.091 8.035 2.95-6.49-24.63 11.434-21.09z" fill="#fff" fill-opacity=".25" fill-rule="evenodd"/>
</svg>
