<svg width="106.667" height="106.667" xmlns="http://www.w3.org/2000/svg"><g fill-rule="evenodd"><path d="M54.706 11.308c-10.238 0-18.563 6.648-18.563 14.844 0 5.601 3.931 10.44 9.656 12.969-7.576 1.455-14.435 3.961-18.5 7.812-8.63 11.455-5.405 20.464-5.562 22.094.773.866 5.674 4.16 9.344 3.906-.16-3.213.189-6.872.593-10.125.538-4.325 1.188-7.812 1.188-7.812-.235.188-.77 3.798-1.188 7.812-.418 4.014-.71 8.41-.437 10.157-.05.004-.106-.035-.156-.032.002.04-.002.086 0 .125.4 6.49 3.652 21.402 5.062 22.657 13.82 1.983 27.023 1.715 41.469.312 0 0 .4-3.826.5-4.75 1.198-4.046 2.424-10.056 1.5-14.375.095-.94.091-.884.187-1.844-.788-11.042-2.913-18.507-2.843-18.343 1.636 4.803 2.843 18.343 2.843 18.343 4.782-.814 8.125-1.617 12.907-4.312 1.566-1.63 2.341-10.961-4.75-23.625-2.984-5.329-11.963-8.254-22.25-9.094 4.54-2.707 7.53-6.998 7.53-11.875 0-.044-.03-.081-.03-.125.119-.577.345-1.364.406-1.75-.268-.176-.42-.136-.656-.25-1.309-7.173-8.93-12.719-18.25-12.719z" fill-opacity=".5"/><g><path d="M18.815 66.311c.157-1.63-3.046-10.64 5.584-22.094 13.016-12.332 53.567-12.473 60.659.19 7.091 12.665 6.32 21.994 4.753 23.624-4.782 2.696-8.154 3.51-12.936 4.325 0 0-1.177-13.555-2.814-18.36-.07-.163 2.026 7.322 2.814 18.364-1.09 10.917-2.182 20.957-2.182 20.957-14.445 1.402-27.638 1.676-41.457-.307-1.41-1.254-4.666-16.16-5.066-22.65-.4-7.493 1.793-18.092 1.793-18.092-.47.376-2.182 14.498-1.636 17.992-3.685.358-8.728-3.07-9.512-3.949z" fill="#008400" stroke="#000" stroke-width="1.25" stroke-linejoin="round"/><path d="M70.33 23.447c0 8.195-8.31 14.847-18.547 14.847-10.238 0-18.547-6.652-18.547-14.847 0-8.196 8.309-14.848 18.547-14.848 10.238 0 18.546 6.652 18.546 14.848z" fill="#008400" stroke="#000" stroke-width="1.25" stroke-linejoin="round"/><path d="M51.512 9.72C43.435 7.026 24.41 21.026 39.487 33.59c9.153-1.794-8.436-16.332 12.025-23.87zM42.179 37.18c-.898-.179-12.923 1.975-17.23 7.898-3.59 2.154-7 12.384-5.565 20.64 1.795 1.436 5.205 3.77 6.103 3.231 5.025-10.59-11.846-21.538 16.692-31.768z" fill="#fff" fill-opacity=".25"/><path d="M30.153 55.129c-3.59 10.949-.18 30.512 3.77 36.974 3.948 1.256 9.512 1.795 10.769 1.436 1.076-9.154-14.898-7.898-14.539-38.41z" fill="#fff" fill-opacity=".25"/><path d="M52.589 37.54c15.256-4.129 11.307-20.462 18.128-15.975-.539 3.41-2.693 15.436-18.128 15.975zM81.306 70.565s8.257-1.616 8.616-3.231c1.974-6.282-3.41-21.18-5.923-23.692-12.205-4.308 13.281 24.948-2.693 26.923z" fill-opacity=".25"/><path d="M64.973 93.539s7.898.538 8.795-.898c.897-1.436 5.026-14 2.513-20.102-8.257-6.82 3.051 20.82-11.308 21z" fill-opacity=".24"/></g></g></svg>