<svg width="106.667" height="106.667" xmlns="http://www.w3.org/2000/svg"><g fill-rule="evenodd"><path d="M53.854 11.735c-10.238 0-18.531 6.648-18.531 14.843 0 5.593 3.914 10.406 9.625 12.938-7.566 1.456-14.41 3.966-18.469 7.812-8.63 11.455-5.437 20.464-5.594 22.094.773.866 5.706 4.192 9.375 3.938-.37-7.486 1.782-17.969 1.782-17.969-.47.376-2.17 14.506-1.625 18-.05.005-.107-.035-.157-.031.002.039-.002.086 0 .125.4 6.49 3.653 21.402 5.063 22.656 13.82 1.983 27.023 1.715 41.469.312 0 0 .402-3.805.5-4.718 1.206-4.066 2.422-10.136 1.468-14.469.093-.91.095-.854.188-1.781-.789-11.043-2.882-18.539-2.813-18.375 1.637 4.803 2.813 18.375 2.813 18.375 4.782-.815 8.156-1.617 12.937-4.313 1.567-1.63 2.342-10.96-4.75-23.625-2.98-5.323-11.943-8.281-22.218-9.125 4.518-2.708 7.5-6.98 7.5-11.844 0-.053-.03-.102-.032-.156.118-.57.346-1.337.407-1.719-.257-.168-.397-.138-.625-.25-1.295-7.185-8.98-12.718-18.313-12.718z" fill-opacity=".5"/><g><path d="M18.815 66.311c.157-1.63-3.046-10.64 5.584-22.094 13.016-12.332 53.567-12.473 60.659.19 7.091 12.665 6.32 21.994 4.753 23.624-4.782 2.696-8.154 3.51-12.936 4.325 0 0-1.177-13.555-2.814-18.36-.07-.163 2.026 7.322 2.814 18.364-1.09 10.917-2.182 20.957-2.182 20.957-14.445 1.402-27.638 1.676-41.457-.307-1.41-1.254-4.666-16.16-5.066-22.65-.4-7.493 1.793-18.092 1.793-18.092-.47.376-2.182 14.498-1.636 17.992-3.685.358-8.728-3.07-9.512-3.949z" fill="#8400ff" stroke="#000" stroke-width="1.25" stroke-linejoin="round"/><path d="M70.33 23.447c0 8.195-8.31 14.847-18.547 14.847-10.238 0-18.547-6.652-18.547-14.847 0-8.196 8.309-14.848 18.547-14.848 10.238 0 18.546 6.652 18.546 14.848z" fill="#8400ff" stroke="#000" stroke-width="1.25" stroke-linejoin="round"/><path d="M51.512 9.72C43.435 7.026 24.41 21.026 39.487 33.59c9.153-1.794-8.436-16.332 12.025-23.87zM42.179 37.18c-.898-.179-12.923 1.975-17.23 7.898-3.59 2.154-7 12.384-5.565 20.64 1.795 1.436 5.205 3.77 6.103 3.231 5.025-10.59-11.846-21.538 16.692-31.768z" fill="#fff" fill-opacity=".25"/><path d="M30.153 55.129c-3.59 10.949-.18 30.512 3.77 36.974 3.948 1.256 9.512 1.795 10.769 1.436 1.076-9.154-14.898-7.898-14.539-38.41z" fill="#fff" fill-opacity=".25"/><path d="M52.589 37.54c15.256-4.129 11.307-20.462 18.128-15.975-.539 3.41-2.693 15.436-18.128 15.975zM81.306 70.565s8.257-1.616 8.616-3.231c1.974-6.282-3.41-21.18-5.923-23.692-12.205-4.308 13.281 24.948-2.693 26.923z" fill-opacity=".25"/><path d="M64.973 93.539s7.898.538 8.795-.898c.897-1.436 5.026-14 2.513-20.102-8.257-6.82 3.051 20.82-11.308 21z" fill-opacity=".24"/></g></g></svg>