<svg width="106.667" height="106.667" xmlns="http://www.w3.org/2000/svg"><path d="M39.375 18.125c-5.628 0-10.187 3.772-10.188 8.406 0 3.182 2.236 5.857 5.407 7.282a29.514 29.514 0 00-4.782 1.343c-1.716-1.08-3.768-1.843-6.093-1.843-5.628 0-10.188 3.771-10.188 8.406 0 3.188 2.224 5.89 5.406 7.312-4.207.818-8.028 2.242-10.28 4.438-4.745 6.477-2.977 11.578-3.063 12.5.426.491 3.136 2.379 5.156 2.219-.053-1.084.131-2.228.219-3.407.068-1.111.032-1.68.156-2.812.286-2.216.594-3.938.594-3.938-.116.095-.377 1.968-.594 3.938-.113.878-.084 1.84-.156 2.812-.08 1.282-.245 2.821-.156 3.406-.02.002-.043-.001-.063 0v.063c.22 3.67 2.006 12.103 2.781 12.813 6.568.97 12.936.87 19.657.343 1.053-.082 2.049-.049 3.124-.156 0 0 .238-2.47.313-3.188.644-2.21 1.17-4.85.75-7.312.068-.693.056-.66.125-1.375-.084-1.212-.22-1.894-.344-2.938.011 0 .02.031.032.032.14 1.335.312 2.906.312 2.906 2.629-.46 4.496-.913 7.125-2.438.073-.077.092-.361.156-.5 1.135-.05 2.284-.102 3.438-.187.34 1.24.739 2.915.968 3.125 5.724.845 11.32.831 17.094.5.605 2.93 1.268 5.522 1.688 5.906 6.492.959 12.803.883 19.437.375.286-.001.428-.016.719-.031.89-.073 1.718-.066 2.625-.156 0 0 .241-2.412.313-3.094.64-2.175 1.136-4.8.75-7.281.073-.74.081-.703.156-1.469-.174-2.503-.5-4.355-.781-6.063-.236-1.618-.468-3.395-.782-4.343-.023-.056.36 1.791.781 4.343.44 3.017.782 6.063.782 6.063 2.628-.46 4.465-.944 7.094-2.469.86-.922 1.304-6.182-2.594-13.343-1.662-3.054-6.718-4.71-12.469-5.157 2.572-1.524 4.375-3.88 4.375-6.687v-.063c.068-.335.185-.777.219-1-.209-.14-.357-.116-.531-.187-.76-4.019-4.815-7.157-9.907-7.157-4.22 0-7.826 2.112-9.375 5.125.48-.973.781-2.041.781-3.156v-.062c.067-.33.185-.78.22-1-.214-.145-.354-.116-.532-.188-.765-4.013-4.788-7.125-9.875-7.125-5.628 0-10.188 3.74-10.188 8.375 0 1.51.59 2.87 1.438 4.094-1.664-.443-3.475-.724-5.406-.875 2.213-1.31 3.7-3.269 4.093-5.594.147-.47.173-.746.25-1.125V26.5c.07-.344.184-.804.22-1.031-.214-.145-.354-.116-.532-.188-.76-4.017-4.784-7.156-9.875-7.156zM68.75 33.313c-.48.973-.781 2.041-.781 3.156 0 .212.137.385.156.593a33.708 33.708 0 00-2.906-.343c1.501-.895 2.8-1.984 3.531-3.407z" fill-rule="evenodd" fill-opacity=".5"/><g fill-rule="evenodd"><path d="M18.815 66.311c.157-1.63-3.046-10.64 5.584-22.094 13.016-12.332 53.567-12.473 60.659.19 7.091 12.665 6.32 21.994 4.753 23.624-4.782 2.696-8.154 3.51-12.936 4.325 0 0-1.177-13.555-2.814-18.36-.07-.163 2.026 7.322 2.814 18.364-1.09 10.917-2.182 20.957-2.182 20.957-14.445 1.402-27.638 1.676-41.457-.307-1.41-1.254-4.666-16.16-5.066-22.65-.4-7.493 1.793-18.092 1.793-18.092-.47.376-2.182 14.498-1.636 17.992-3.685.358-8.728-3.07-9.512-3.949z" transform="matrix(.54975 0 0 .5655 27.396 13.405)" fill="#ff8a00" stroke="#000" stroke-width="2.242" stroke-linejoin="round"/><path d="M70.33 23.447c0 8.195-8.31 14.847-18.547 14.847-10.238 0-18.547-6.652-18.547-14.847 0-8.196 8.309-14.848 18.547-14.848 10.238 0 18.546 6.652 18.546 14.848z" transform="matrix(.54975 0 0 .5655 27.396 13.405)" fill="#ff8a00" stroke="#000" stroke-width="2.242" stroke-linejoin="round"/><path d="M55.714 18.901c-4.44-1.522-14.899 6.395-6.61 13.5 5.032-1.015-4.638-9.237 6.61-13.5zM50.583 34.43c-.493-.101-7.104 1.117-9.472 4.466-1.973 1.218-3.848 7.004-3.059 11.673.987.812 2.862 2.131 3.355 1.827 2.763-5.989-6.512-12.18 9.176-17.965z" fill="#fff" fill-opacity=".25"/><path d="M43.972 44.58C42 50.772 43.874 61.835 46.045 65.49c2.17.71 5.23 1.015 5.92.812.592-5.177-8.19-4.466-7.993-21.72z" fill="#fff" fill-opacity=".25"/><path d="M56.306 34.634c8.387-2.335 6.217-11.571 9.966-9.034-.296 1.929-1.48 8.729-9.966 9.034zM72.094 53.31s4.539-.914 4.736-1.828c1.085-3.552-1.875-11.977-3.256-13.398-6.71-2.435 7.301 14.109-1.48 15.225z" fill-opacity=".25"/><path d="M63.115 66.3s4.341.305 4.835-.507c.493-.812 2.762-7.917 1.38-11.367-4.538-3.857 1.678 11.773-6.215 11.875z" fill-opacity=".24"/><path d="M18.815 66.311c.157-1.63-3.046-10.64 5.584-22.094 13.016-12.332 53.567-12.473 60.659.19 7.091 12.665 6.32 21.994 4.753 23.624-4.782 2.696-8.154 3.51-12.936 4.325 0 0-1.177-13.555-2.814-18.36-.07-.163 2.026 7.322 2.814 18.364-1.09 10.917-2.182 20.957-2.182 20.957-14.445 1.402-27.638 1.676-41.457-.307-1.41-1.254-4.666-16.16-5.066-22.65-.4-7.493 1.793-18.092 1.793-18.092-.47.376-2.182 14.498-1.636 17.992-3.685.358-8.728-3.07-9.512-3.949z" transform="matrix(.54975 0 0 .5655 46.197 19.825)" fill="#8400ff" stroke="#000" stroke-width="2.242" stroke-linejoin="round"/><path d="M70.33 23.447c0 8.195-8.31 14.847-18.547 14.847-10.238 0-18.547-6.652-18.547-14.847 0-8.196 8.309-14.848 18.547-14.848 10.238 0 18.546 6.652 18.546 14.848z" transform="matrix(.54975 0 0 .5655 46.197 19.825)" fill="#8400ff" stroke="#000" stroke-width="2.242" stroke-linejoin="round"/><path d="M74.515 25.322c-4.44-1.523-14.9 6.394-6.61 13.499 5.031-1.015-4.638-9.237 6.61-13.5zM69.384 40.85c-.493-.1-7.104 1.117-9.472 4.467-1.974 1.218-3.848 7.003-3.059 11.672.987.812 2.862 2.131 3.355 1.827 2.763-5.989-6.512-12.18 9.176-17.965z" fill="#fff" fill-opacity=".25"/><path d="M62.773 51c-1.973 6.192-.098 17.255 2.072 20.909 2.171.71 5.23 1.015 5.92.812.593-5.176-8.189-4.466-7.992-21.72z" fill="#fff" fill-opacity=".25"/><path d="M75.107 41.054c8.387-2.335 6.216-11.571 9.966-9.034-.296 1.929-1.48 8.73-9.966 9.034zM90.895 59.73s4.538-.914 4.736-1.828c1.085-3.552-1.875-11.976-3.256-13.397-6.71-2.436 7.301 14.108-1.48 15.224z" fill-opacity=".25"/><path d="M81.915 72.72s4.342.305 4.835-.507c.494-.812 2.763-7.916 1.382-11.367-4.54-3.857 1.677 11.773-6.217 11.875z" fill-opacity=".24"/><path d="M18.815 66.311c.157-1.63-3.046-10.64 5.584-22.094 13.016-12.332 53.567-12.473 60.659.19 7.091 12.665 6.32 21.994 4.753 23.624-4.782 2.696-8.154 3.51-12.936 4.325 0 0-1.177-13.555-2.814-18.36-.07-.163 2.026 7.322 2.814 18.364-1.09 10.917-2.182 20.957-2.182 20.957-14.445 1.402-27.638 1.676-41.457-.307-1.41-1.254-4.666-16.16-5.066-22.65-.4-7.493 1.793-18.092 1.793-18.092-.47.376-2.182 14.498-1.636 17.992-3.685.358-8.728-3.07-9.512-3.949z" transform="matrix(.54975 0 0 .5655 7.408 9.897)" fill="#008500" stroke="#000" stroke-width="2.242" stroke-linejoin="round"/><path d="M70.33 23.447c0 8.195-8.31 14.847-18.547 14.847-10.238 0-18.547-6.652-18.547-14.847 0-8.196 8.309-14.848 18.547-14.848 10.238 0 18.546 6.652 18.546 14.848z" transform="matrix(.54975 0 0 .5655 7.408 9.897)" fill="#008500" stroke="#000" stroke-width="2.242" stroke-linejoin="round"/><path d="M35.726 15.393c-4.44-1.522-14.9 6.395-6.61 13.5 5.031-1.016-4.638-9.237 6.61-13.5zM30.595 30.922c-.493-.101-7.104 1.117-9.472 4.466-1.974 1.218-3.848 7.004-3.059 11.673.987.811 2.861 2.131 3.355 1.826 2.763-5.988-6.512-12.18 9.176-17.965z" fill="#fff" fill-opacity=".25"/><path d="M23.984 41.072c-1.973 6.192-.098 17.255 2.072 20.909 2.171.71 5.23 1.015 5.92.812.593-5.177-8.19-4.466-7.992-21.72z" fill="#fff" fill-opacity=".25"/><path d="M36.318 31.125c8.387-2.334 6.216-11.57 9.966-9.033-.296 1.929-1.48 8.729-9.966 9.033zM52.105 49.801s4.54-.914 4.737-1.827c1.085-3.552-1.875-11.977-3.257-13.398-6.71-2.436 7.302 14.108-1.48 15.225z" fill-opacity=".25"/><path d="M43.126 62.793s4.342.304 4.835-.508c.494-.812 2.763-7.917 1.382-11.368-4.54-3.856 1.677 11.774-6.217 11.876z" fill-opacity=".24"/><path d="M18.815 66.311c.157-1.63-3.046-10.64 5.584-22.094 13.016-12.332 53.567-12.473 60.659.19 7.091 12.665 6.32 21.994 4.753 23.624-4.782 2.696-8.154 3.51-12.936 4.325 0 0-1.177-13.555-2.814-18.36-.07-.163 2.026 7.322 2.814 18.364-1.09 10.917-2.182 20.957-2.182 20.957-14.445 1.402-27.638 1.676-41.457-.307-1.41-1.254-4.666-16.16-5.066-22.65-.4-7.493 1.793-18.092 1.793-18.092-.47.376-2.182 14.498-1.636 17.992-3.685.358-8.728-3.07-9.512-3.949z" transform="matrix(.54975 0 0 .5655 -8.255 25.09)" fill="#00c" stroke="#000" stroke-width="2.242" stroke-linejoin="round"/><path d="M70.33 23.447c0 8.195-8.31 14.847-18.547 14.847-10.238 0-18.547-6.652-18.547-14.847 0-8.196 8.309-14.848 18.547-14.848 10.238 0 18.546 6.652 18.546 14.848z" transform="matrix(.54975 0 0 .5655 -8.255 25.09)" fill="#00c" stroke="#000" stroke-width="2.242" stroke-linejoin="round"/><path d="M20.063 30.587c-4.44-1.523-14.9 6.394-6.61 13.5 5.031-1.016-4.638-9.237 6.61-13.5zM14.932 46.116c-.493-.101-7.104 1.117-9.472 4.466C3.486 51.8 1.612 57.585 2.4 62.254c.987.812 2.862 2.132 3.355 1.827 2.763-5.988-6.512-12.18 9.176-17.965z" fill="#fff" fill-opacity=".25"/><path d="M8.321 56.266c-1.973 6.191-.098 17.254 2.072 20.908 2.171.71 5.23 1.015 5.92.812.593-5.176-8.189-4.466-7.992-21.72z" fill="#fff" fill-opacity=".25"/><path d="M20.655 46.32c8.387-2.335 6.216-11.572 9.966-9.034-.296 1.928-1.48 8.729-9.966 9.033zM36.443 64.995s4.538-.914 4.736-1.827c1.085-3.553-1.875-11.977-3.256-13.398-6.71-2.436 7.301 14.108-1.48 15.225z" fill-opacity=".25"/><path d="M27.464 77.986s4.341.305 4.834-.507c.494-.812 2.763-7.917 1.382-11.368-4.54-3.857 1.677 11.774-6.216 11.875z" fill-opacity=".24"/></g></svg>