<svg width="160" height="160" xmlns="http://www.w3.org/2000/svg"><path d="M89.8 8.73C63.88 7.753 38.429 28.72 29.823 60.199a81.184 81.184 0 00-2.856 22.435c-7.124 6.538-13.943 14.603-19.54 26.945 7.607-.55 14.602-8.126 21.903-8.981a65.456 65.456 0 007.76 18.081c9.193-1.988 15.942-6.115 23.913-11.463-.004 11.554-8.867 20.054-14.674 22.75 5.387 5 11.712 8.817 18.909 10.912 29.391 8.553 61.23-13.7 71.066-49.676 9.835-35.976-6.023-72.124-35.415-80.678a45.786 45.786 0 00-11.09-1.792z" fill="#e0c39e" fill-rule="evenodd"/><path d="M124.466 50.606c-1.46.127-3 1.042-4.53 2.896-1.53 1.853-3.072 4.65-4.61 8.646l1.646 1.193c1.517-3.946 3.042-6.982 4.49-8.736 1.449-1.754 1.885-3.128 3.063-3.23 1.178-.103 2.25.441 3.21 1.477.961 1.035 1.776 2.567 2.344 4.353 1.137 3.57.68 6.617-.65 10.211-1.33 3.595-3.437 6.525-8.252 6.451l-.02 2.01c5.113.079 8.2-2.844 9.612-6.657 1.412-3.814 2.47-9.128 1.28-12.863-.594-1.867-1.143-3.493-2.215-4.648-1.072-1.155-3.908-1.23-5.368-1.103z" fill-rule="evenodd"/><path d="M63.928 58.023a8.095 10.997 27.441 10-14.368-7.461 8.095 10.997 27.441 1014.368 7.461z" fill="#fff" fill-rule="evenodd"/><path d="M58.757 43.456c-1.175.053-2.374.379-3.525.946-2.304 1.133-4.455 3.224-5.89 5.987-1.435 2.764-1.895 5.698-1.497 8.234.398 2.536 1.69 4.675 3.802 5.77 2.111 1.097 4.61.918 6.913-.216 2.304-1.133 4.415-3.205 5.85-5.968 1.435-2.763 1.935-5.697 1.537-8.233-.398-2.536-1.69-4.714-3.802-5.81-1.055-.549-2.212-.762-3.388-.71zm.178 1.556c.976.027 1.909.307 2.836.788 1.854.963 2.724 2.872 3.092 5.22.28 1.78-.235 3.054-1.024 4.648-1.74-2.14-5.84-7.651-12.586-6.303 1.28-2.364 2.64-2.665 4.629-3.644 1.066-.524 2.076-.736 3.053-.709zm-5.712 6.54c2.749.916 1.842 9.148.925 10.675-.916 1.528-3.368-.609-3.674-4.58-.305-3.971 2.749-6.095 2.749-6.095z" fill-rule="evenodd"/><path d="M86.915 8.92C60.553 7.925 38.346 28.503 29.66 60.277c-2.054 7.514-2.585 14.844-2.525 22.122-7.091 6.548-14.251 13.958-19.831 26.263l1.294 1.98c4.046-.293 6.734-2.398 10.352-4.471 3.397-1.947 7.044-4.868 10.259-5.426 1.738 6.371 3.644 12.274 6.94 17.57l2.757 1.056c8.786-1.9 13.827-5.432 21.23-10.344-.358 4.917-2.782 10.826-5.372 14.264-2.861 3.799-5.936 4.961-8.691 6.24l.485 1.982c5.466 5.074 11.198 7.399 18.522 9.53 29.89 8.7 62.123-13.036 72.051-49.35 9.928-36.313-6.056-72.944-35.947-81.643-3.737-1.087-10.503-.987-14.269-1.13zm-.41 1.225c3.64.138 11.668.196 15.279 1.247 28.893 8.408 43.924 44.425 34.181 80.064-9.743 35.638-39.784 56.48-68.677 48.07-6.713-1.953-14.394-4.583-19.521-9.148 2.838-1.54 6.07-4.143 8.765-7.72 3.022-4.014 4.985-9.364 4.987-15.343l-1.768.403c-7.79 5.227-13.462 8.308-22.227 10.31-3.194-5.24-4.848-11.232-6.49-17.528l-1.723-.59c-3.889.455-7.542 2.816-11.149 4.882-3.1 1.776-6.156 3.415-9.218 4.018 5.415-11.405 11.853-18.737 18.633-24.96l.607-2.17c-.09-7.247.42-13.502 2.466-20.99 8.525-31.183 30.38-51.507 55.855-50.545z" fill-rule="evenodd"/><metadata/></svg>