<?xml version="1.0" encoding="UTF-8"?>
<svg width="128" height="128" version="1.0" xmlns="http://www.w3.org/2000/svg" xmlns:xlink="http://www.w3.org/1999/xlink">
 <defs>
  <linearGradient id="r" x1="33.625" x2="143.94" y1="101.05" y2="155.05" gradientTransform="translate(-34 -27)" gradientUnits="userSpaceOnUse">
   <stop stop-color="#fff" offset="0"/>
   <stop stop-color="#fff" stop-opacity="0" offset="1"/>
  </linearGradient>
 </defs>
 <g fill-rule="evenodd">
  <path d="M66.985 4.477c2.248 4.79 6.402 10.006 5.082 15.49-2.287 2.357 2.852 4.526 3.167 7.479 2.181 3.426 1.377 8.296 3.582 11.365 3.068 4.027 2.623 10.064.834 14.515-3.253 2.858.652 8.01 4.614 6.322 15.564 1.205 27.567 12.463 36.844 15.764.504 1.554-4.73 1.765-6.765 3.035 7.132 4.506 11.69 29.107 11.775 49.404-30.451.295-66.132-.143-96.583.149 2.327-9.22 1.77-19.322 4.681-28.407-2.197.131-11.046 4.888-7.001.67 5.906-6.284 7.234-15.284 12.408-22.035-2.757-4.753-7.937-8.232-9.49-13.553-.47-4.428.765-9.454-.999-13.484-5.033-.794-6.703-7.492-12.136-7.806-1.77-1.752-.284-4.784 1.687-6.464 3.626-1.736 4.57-5.074 5.543-8.608C29.153 17.196 41.163 7.474 53.853 9.72c3.828 1.507 6.66-3.54 10.054-4.888 1.24-.394 2.553-3.025 3.078-.356z"/>
  <path d="M61.883 17.304s11.7 2.886 13.945 16.202c.45 1.527.697 3.215.895 4.919-.618-.065-1.232-.195-1.85-.122-1.958.205-4.559 1.654-4.208 4.777.48-3.748 4.689-4.596 6.16-4.106 5.19 1.482 3.48 11.605 1.89 13.457-.619 1.332-4.067 2.024-5.408 1.69-.106.02-1.144-.144-.325.18 1.262.606 2.73.378 4.066.102.002.778-.009 1.648.081 2.053.321 1.444 4.677 8.621 5.224 15.815 2.026 9.501 1.44 14.74.875 17.645.215 5.545-16.843 7.467-18.215 4.98-1.401-2.264-6.04-4.427-9.88-10.53-.962.963-3.68 1.277-6.728.956-3.048-.32-11.226-13.164-16.039-18.458-2.425-2.667.317-9.14-1.768-16.039-1.633-5.4 7.862-33.2 31.285-33.521z" fill="#f8bb6e"/>
  <path d="M61.672 92.6c7.085 2.097 17.613.45 22.154-5.388 2.245 4.042.3 5.988.748 7.335.45 1.347-18.56 5.239-20.956 4.79-2.395-.45 1.347-1.946-1.946-6.736z" fill="#000027"/>
  <path d="M96.687 68.51c-3.475-.187-8.788.621-14.677 1.952.097.61.3 1.196.346 1.81 2.025 9.5 1.44 14.74.874 17.644.216 5.545-16.843 7.467-18.214 4.98-1.402-2.264-6.04-4.427-9.88-10.53-.962.963-3.68 1.277-6.728.956-.629-.066-1.511-.753-2.5-1.707-1.092.705-2.155 1.412-2.725 2.032-12.51 13.813-9.642 32.894-12.455 41.328l14.206-.238c.073-.518 2.794-11.868 4.836-16.757l.386.102c-2 4.791-3.348 16.317-3.415 16.797l47.893-.27c.077-2.485.359-5.417.529-8.518.506-9.239 2.404-19.408 6.342-27.057l.122.061c-3.846 7.47-5.086 18.498-5.59 27.708-.169 3.075-.229 5.408-.305 7.887l29.049.183c-2.328-31.932-2.767-46.851-25.919-58.057-.612-.159-1.344-.26-2.175-.305zm-23.154 33.034c.868-.166 1.694.286 2.521.63.804.274 1.46 1.007 1.525 1.87.048.924-.21 1.648-.935 2.155-1.324.88-3.44 1.724-4.92 1.078-1.03-.336-1.694-2.016-1.321-3.05.505-1.228 1.86-2.455 3.13-2.683zm1.281.956a7.82 7.82 0 00-1.179.142c-.776.207-2.16.502-2.561 1.24-.299.428.095 2.08.508 2.358 1.345.777 3.445.636 4.553-.427.488-.342.84-2.548.407-2.988-.361-.302-1.09-.352-1.728-.325zm-2.46 14.575c.998-.191 1.917.337 2.867.732.923.314 1.693 1.163 1.768 2.155.055 1.06-.263 1.876-1.098 2.46-1.52 1.01-3.95 1.982-5.65 1.24-1.184-.387-1.933-2.33-1.505-3.517.58-1.412 2.16-2.808 3.618-3.07zm1.464 1.118c-.733.03-1.362.142-1.362.142-.891.238-2.486.575-2.948 1.423-.343.492.115 2.385.59 2.704 1.545.893 3.972.733 5.245-.488.56-.393.945-2.91.447-3.415-.415-.346-1.24-.396-1.972-.366z" fill="#00006e"/>
  <path d="M81.014 60.725c-.647 0-1.312.057-1.972.102 1.399 3.085 2.974 6.982 3.314 11.444 2.025 9.501 1.44 14.74.874 17.645.022.564-.188 1.078-.488 1.566.134-.043.706-.269.793-.285.567-4.764 23.37-12.264 34.822-15.571-10.556-6.603-21.931-13.006-34.11-14.677a23.971 23.971 0 00-3.233-.224zM41.293 78.248c-.03.032-.198.154-.224.183-4.456 4.998-6.539 15.51-11.851 21.385 5.105-2.042 28.531-8.62 36.245-4.31.203.065.47.06.691.102-.566-.173-.972-.41-1.138-.711-1.402-2.265-6.04-4.428-9.88-10.53-.962.962-3.68 1.276-6.728.955-1.481-.156-4.187-3.308-7.115-7.074z" fill="#000027"/>
  <path d="M65.847 5.087s6.079 8.695 5.204 14.067c-.702 5.27-36.116 30.269-41.693 30.756-3.649.261-5.21-6.78-11.465-7.562-.827-.103.034-2.293 0-2.602-.057-.504 2.405-2.565 5.874-5.224 1.762-13.404 18.545-28.2 32.302-22.768 3.165-2.142 9.778-6.667 9.778-6.667zM114.955 73.603c-11.785 6.287-29.786 8.46-32.13 17.925-.303-.338-.05-2.654-.05-2.654 2.01-10.345 19.132-12.366 28.02-17.205.296 0 3.666 1.835 4.16 1.934zM33.303 93.343c10.402-5.563 18.982-3.076 31.063.643.76.515.963 1.298 1.26 1.397-8.493-3.061-22.25-2.929-33.706 1.318-.592.098 1.087-1.975 1.383-3.358z" fill="#fff"/>
  <path d="M65.274 6.023c-.493 5.422-30.99 34.374-46.65 35.593-.284-.895 6.17-1.948 5.942-3.073-1.577-.47-2.39-5.113-.887-4.072-1.351.964 1.221 3.532 2.28 3.813 10.755-4.044 31.614-22.656 32.84-24.88-.933-.528-3.56-2.524-1.933-2.158 1.545-.087 2.406 2.335 3.294.324 1.737-1.968 3.67-3.352 5.114-5.547z"/>
  <path transform="matrix(.6505 0 0 .6505 -12.516 -17.071)" d="M119.563 37.094c-6.277 4.362-12.93 10.558-21.188 7.991-19.867-1.133-35.779 16.017-40.975 33.92-1.517 4.588-7.76 5.898-8.775 10.589 7.542 1.897 10.78 10.975 18.656 12.187 4.853 10.256-1.847 23.806 7.967 31.975 3.522 4.001 6.647 8.29 9.752 12.619-6.668 9.035-10.114 19.811-15.719 29.438 3.456-2.38 9.112-.073 6.406 4.562-3.562 12.656-3.755 25.78-6.25 38.625l139.5-.219c-.955-22.175-2.838-45.226-12.875-65.312-2.819-2.273-9.44-7.509-3.414-9.963 7.538-1.927-5.857-5.331-8.335-7.975-12.49-7.198-26.093-14.03-40.907-13.562-7.578-1.866-9.556-12.008-4.715-17.511 3.97-9.808-4.265-18.235-5.129-27.645-1.157-6.077-5.131-11.155-8-16.188.707-6.2.954-12.418-2.816-17.8-.77-1.96-1.676-4.437-3.183-5.731z" fill="url(#r)"/>
 </g>
</svg>
