<?xml version="1.0" encoding="UTF-8"?>
<svg width="200" height="200" xmlns="http://www.w3.org/2000/svg" xmlns:xlink="http://www.w3.org/1999/xlink">
 <defs>
  <linearGradient id="h" x1="144.73" x2="100.29" y1="158.46" y2="110.73" gradientTransform="matrix(.97693 0 0 .97925 -6.758 9.3)" gradientUnits="userSpaceOnUse" xlink:href="#e"/>
  <linearGradient id="e">
   <stop stop-color="#f6f4f6" offset="0"/>
   <stop stop-color="#fff" offset="1"/>
  </linearGradient>
  <linearGradient id="k" x1="80.866" x2="62.102" y1="108.75" y2="95.583" gradientTransform="matrix(.97693 0 0 .97925 -6.758 9.3)" gradientUnits="userSpaceOnUse" xlink:href="#e"/>
  <linearGradient id="f">
   <stop stop-color="#eae5ea" offset="0"/>
   <stop stop-color="#fbfafb" offset="1"/>
  </linearGradient>
  <linearGradient id="l" x1="98.397" x2="106.41" y1="32.372" y2="40.814" gradientTransform="matrix(.80673 .03633 -.03633 .80673 -.832 -8.636)" gradientUnits="userSpaceOnUse" xlink:href="#f"/>
  <linearGradient id="m" x1="133.33" x2="130.13" y1="21.474" y2="35.897" gradientTransform="matrix(.80673 .03633 -.03633 .80673 -.832 -8.636)" gradientUnits="userSpaceOnUse" xlink:href="#f"/>
  <linearGradient id="n" x1="140.38" x2="127.24" y1="61.478" y2="46.474" gradientTransform="matrix(.80673 .03633 -.03633 .80673 -.832 -8.636)" gradientUnits="userSpaceOnUse" xlink:href="#f"/>
  <linearGradient id="i" x1="141.99" x2="103.2" y1="110.9" y2="76.282" gradientTransform="matrix(.95147 0 0 .95147 -235.36 -31.84)" gradientUnits="userSpaceOnUse">
   <stop stop-color="#c59e86" offset="0"/>
   <stop stop-color="#d5b8a6" offset="1"/>
  </linearGradient>
  <linearGradient id="j" x1="139.46" x2="121.68" y1="96.9" y2="84.39" gradientTransform="matrix(.97693 0 0 .97925 -6.758 9.3)" gradientUnits="userSpaceOnUse" xlink:href="#e"/>
 </defs>
 <path transform="matrix(1.0677 0 0 1.0677 -3.814 -13.27)" d="M142.144 100.163L92.15 86.006 56.424 106.51c-1.881 5.01-5.465 10.643-8.321 15.16-6.93 8.055-9.762 15.994-11.357 26.379a62.475 62.475 0 01-.336 2.295l-.519.275c1.557 4.317 1.54 9.078 1.527 13.618.122 2.13-.324 4.172-.855 6.212-.087.332-.157.647-.244.979l1.435.03-.275.184c13.124 3.01 26.802 3.047 40.207 2.938 15.112.335 30.224.397 45.335.857 8.166.798 16.145.201 23.904-2.448 2.894-.728 5.672-1.713 8.274-3.183l2.259-1.07c.672-1.5.094-.089.091-.032l.336-.459c-.004-.91-.01-.427 0-1.438.158-5.837 1.69-11.51 1.801-17.35.162-4.722-.143-9.418-.671-14.108-.131-1.164-.272-2.354-.397-3.52-.02-.186.124-.577-.061-.55-.123.018-.22.112-.336.153-.012-.103-.049-.203-.061-.306-.701-6.042-1.922-12.094-4.58-17.596-2.878-5.176-7.156-9.407-11.436-13.366z" fill="url(#h)"/>
 <g fill-rule="evenodd">
  <path transform="matrix(.99214 .04468 -.04468 .99214 210.65 19.72)" d="M-91 20.137c.844 4.957-.268 16.64-1.062 19.245-.919 3.015-7.12 10.333-6.852 17.722.062 1.702 3.222 9.71 4.022 11.596.73 1.718.115.982.69 3.326 1.956 7.976-20.434 18.283-32.366 13.562-4.993-1.975-6.001-4.346-5.63-7.11.005-.364 1.01-5.097.697-7.116-5.164.844-9.702-3.401-10.92-5.663-1.414-2.623-2.193-8.872-2.534-11.034-.397-2.517-.124-4.847.087-7.227.19-2.14 2.202-8.83 1.566-12.865-.336-2.13-1.098-4.871-1.471-7.238-.63-3.993.7-10.155 1.799-12.94C-132.599-7.566-93.73-.169-91 20.136z" fill="url(#i)"/>
  <path d="M113.916 45.186c1.77.356 2.975 2.136 3.014 3.885a12.576 12.576 0 01-1.013 6.248c-.615 1.035-1.29 1.224-2.146 2.065-.556.465-3.382 1.088-2.905.62.348-.214.798-.133 1.178-.28.636-.159 1.024-.722 1.472-1.152.63-.744 1.6-1.043 1.901-1.99.545-1.645 1.014-3.877.755-5.607-.138-.906-.882-2.336-1.712-2.819-.6-.41-1.477.15-2.051.571-.675.444-1.217 1.073-1.7 1.707-.31.707-.182.105-.073-.422.145-.65 2.158-3.028 3.28-2.826zM103.912 74.023l.133.357s-2.438 2.825-7.574 5.538c-5.136 2.713-9.102 3.98-20.75 4.908l-1.464-.405c11.665-.34 17.67-2.638 22.648-5.267 4.979-2.63 7.007-5.13 7.007-5.13z"/>
  <path d="M86.296 15.023c-8.258 1.163-14.027 4.025-17.84 11.593-2.167 4.032-3.067 8.767-2.84 13.201.56 3.93 1.884 8.498.767 12.461-1.16 5.561-2.85 12.573-1.758 18.32.62 4.541.626 8.241 4.353 11.419 1.657 2.088 5.927 2.497 7.652 3.232.124 3.261-.886 5.446-.782 8.684 1.28 2.956 4.32 5.769 6.962 7.05 7.541 2.196 21.702-2.894 26.448-6.189 3.621-1.643 1.456-.801 2.46-5.015-.082-2.776 2.397-4.456 1.266-7.051-1.041-3.36-2.176-7.57-2.51-11.091.268-6.125 4.189-10.968 7.075-16.067 1.33-3.75 1.648-7.905 2.28-11.809-.208-3.068.742-5.323-.397-8.539-.92-4.452-2.404-10.146-7.078-13.868-6.324-4.19-15.466-7.33-26.058-6.33zm4.66.555c16.466.87 22.181 7.52 24.368 11.363 2.526 1.451 2.933 7.254 3.599 10.308.842 4.905-.56 11.563-1.83 17.277-2.69 5.087-6.72 9.743-7.489 15.652-.508 3.61.337 7.073 1.265 10.471 1.162 2.671.028 6.823.292 9.7.083 3.651-.27 1.424-2.087 3.166-4.632 4.03-16.91 8.225-24.632 6.554-2.82-1.069-6.084-4.052-7.808-6.687-.05-3.615 1.462-5.274 1.066-8.922-5.195.95-10.807-3.772-11.648-8.593-.882-4.52-1.603-10.323-.48-14.906.369-5.18 2.932-10.353 1.45-16.037-.822-4.934-1.359-13.244 1.728-17.677 3.535-5.355 6.04-8.23 11.217-9.466 3.466-1.71 7.52-2.053 10.99-2.203z"/>
 </g>
 <path d="M123.26 106.245c-5.347.145-11.363 10.344-17.045 15.517.018 2.891-.23 6.155-1.595 8.765-1.669 2.157-3.628 4.138-5.052 6.485-.917 1.874-1.799 3.573-3.25 5.064-.019.02-.04.038-.059.059-1.14-.772-2.415-1.32-3.722-1.747l-1.655 1.155-1.27-.208c-1.488.508-3.87.991-5.554 2.014-.029-.068-.064-.137-.089-.207-.747-1.756-2.278-3.06-2.924-4.886-.727-1.71-1.02-3.526-1.418-5.33l-1.891 1.036c.412 1.802-7.324-18.996-7.504-21.38l-1.92 1.007c.4 2.329.355 4.689 0 7.018-.64 3.204-.954 6.445-.827 9.713.227 4.852.743 10.048 3.752 14.036 2.424 3.282 6.604 3.95 10.31 4.945 1.222.356.918.264 1.743.533.176.978.31 1.962.06 3.08-.413 2.085.92 3.495 2.628 4.501l-.915.474c.658 2.921-.337 5.18-2.275 7.314-2.873 3.602-5.642 7.874-5.082 12.645.563 2.347 1.7 4.598 2.837 6.722l.147-.09c.216.297.444.596.62.919.547 1.005.863 2.136 1.36 3.168.21.574.557 1.44.915 2.073-.038.14-.196.448-.088.385.12-.07.072-.085.177-.148.484.712 1.081.795 1.832-1.273.582-2.972 2.177-5.763 4.136-8.025 1.546-1.637 3.193-2.978 4.401-4.59 2.55 2.94 3.911 6.45 5.318 10.068 1.412 3.486 3.615 6.667 6.913 8.558.241.134.493.258.738.385l1.743-1.184c-.245-.124-.491-.234-.738-.356-.116-.062-.212-.142-.325-.207l.325-.178c.082-.983.051-.476.148-1.54.181-1.867.058-3.722.147-5.596.283-4.954.034-10.07-1.063-14.895-2.007-5.877-6.491-10.356-9.217-15.873l-.532.296c.5-.611.96-1.283 1.24-2.043.877-2.282.446-4.495.03-6.81-.023-.15-.067-.294-.088-.445.121-.053.229-.132.354-.178 3.747-1.512 8.269-2.767 11.049-5.744 2.976-4.534 3.268-10.02 3.988-15.25.833-5.914 3.567-10.27 7.474-14.688.696-1.076 3.28-5.364 1.714-5.064z" fill="#00002f"/>
 <path d="M124.088 105.682l-1.92.977c.642-.449.8-.358 1.093-.414.269-.195.484-.43.827-.563zm-.827.563c-1.813 1.31-2.21 3.786-3.516 5.833-3.938 4.409-6.466 8.867-7.356 14.747-.737 5.233-.983 10.768-4.136 15.221-.359 1.08-3.632 2.047-7.592 3.672-.446.17-.868.361-1.3.563l-.709.592c-.228-1.591-.476-3.184-1.713-4.323-.144-.122-.323-.188-.473-.297l1.447-.621c.01-.01.322-.388.325-.385 1.443-1.477 2.227-3.218 3.191-5.034 1.501-2.314 3.388-4.34 5.052-6.515 1.25-2.732 1.362-5.97 1.654-8.914l-1.92.978c.018 2.891-.23 6.155-1.595 8.765-1.669 2.157-3.628 4.138-5.052 6.485-.917 1.874-1.799 3.573-3.25 5.064-.019.02-.04.038-.059.059-1.14-.772-2.415-1.32-3.722-1.747l-1.655 1.155c1.534.478 3.076 1.057 4.343 2.073 1.37 1.305 1.403 3.21 1.743 4.975.463 2.278.78 4.454-.118 6.692-1.48 3.571-1.168 2.922-5.318 2.665-2.814-.645-7.063-2.34-6.322-5.922.518-2.611-.429-4.541-1.181-7.019.024-.145.073-.169.118-.296l.472-.266c-.061-.116-.114-.24-.177-.356.05-.078.085-.244.118-.296 1.283-.47 3.455-1.276 3.368-1.155l1.684-1.303c-1.488.508-3.87.991-5.554 2.014-.029-.068-.064-.137-.089-.207-.747-1.756-2.278-3.06-2.924-4.886-.727-1.71-1.02-3.526-1.418-5.33l-1.891 1.036c.412 1.802.85 3.556 1.566 5.271.645 1.822 2.105 3.177 2.836 4.945.12.3.287.575.443.859-.128.3-.4.525-.414.888.287.797.504 1.514.739 2.251-3.61-1.006-7.528-1.738-9.985-4.827-3.097-3.892-3.546-9.146-3.693-13.947-.082-3.269.246-6.513.916-9.713.327-2.372.268-4.723.088-7.107l-1.92 1.007c.4 2.329.355 4.689 0 7.018-.64 3.204-.954 6.445-.827 9.713.227 4.852.743 10.048 3.752 14.036 2.424 3.282 6.604 3.95 10.31 4.945 1.222.356.918.264 1.743.533.176.978.31 1.962.06 3.08-.413 2.085.92 3.495 2.628 4.501l-.915.474c.658 2.921-.337 5.18-2.275 7.314-2.873 3.602-5.642 7.874-5.082 12.645.563 2.347 1.7 4.598 2.837 6.722l.147-.09c.216.297.444.596.62.919.547 1.005.863 2.136 1.36 3.168.21.574.557 1.44.915 2.073-.038.14-.196.448-.088.385.12-.07.072-.085.177-.148.484.712 1.081.795 1.832-1.273.582-2.972 2.177-5.763 4.136-8.025 1.546-1.637 3.193-2.978 4.401-4.59 2.55 2.94 3.911 6.45 5.318 10.068 1.412 3.486 3.615 6.667 6.913 8.558.241.134.493.258.738.385l1.743-1.184c-.245-.124-.491-.234-.738-.356-.116-.062-.212-.142-.325-.207l.325-.178c.082-.983.051-.476.148-1.54.181-1.867.058-3.722.147-5.596.283-4.954.034-10.07-1.063-14.895-2.007-5.877-6.491-10.356-9.217-15.873l-.532.296c.5-.611.96-1.283 1.24-2.043.877-2.282.446-4.495.03-6.81-.023-.15-.067-.294-.088-.445.121-.053.229-.132.354-.178 3.747-1.512 8.269-2.767 11.049-5.744 2.976-4.534 3.268-10.02 3.988-15.25.833-5.914 3.567-10.27 7.474-14.688.696-1.076 3.28-5.364 1.714-5.064zm-26.913 51.259c3.145 5.129 7.365 9.619 9.306 15.398 1.283 4.87 1.044 9.97.827 14.955-.193 1.835.012 3.675-.089 5.507-2.48-1.792-4.323-4.238-5.436-7.195-1.476-3.96-2.963-7.743-5.672-11.046l-.266.148c.478-1.09.79-2.308.65-3.85-.211-4.284-2.005-8.244-3.486-12.23 1.54-.095 2.96-.718 4.166-1.687zm-9.424.414c1.045.486 2.112.899 3.043 1.126.156.043.314-.002.472.03l-.443.266c1.895 4.058 3.784 8.439 3.988 12.97.423 4.996-3.298 6.887-6.145 10.039-1.324 1.618-2.386 3.501-3.22 5.478-.051-.135-.032-.14-.088-.296-.47-1.05-.846-2.185-1.448-3.169a11.916 11.916 0 00-.768-1.184l-.207.118c-1.076-2.02-2.055-4.166-2.659-6.366-.665-4.703 2.295-9.012 5.14-12.497 1.773-1.985 2.42-4.017 2.335-6.515z"/>
 <path d="M147.953 93.674l-1.825 1.285c2.91 2.39 5.955 5.143 8.3 7.89.012.015.04.042.065.065.012.011.01.016.032.032 1.517 1.788 2.925 3.697 4.14 5.849 3.021 6.042 4.458 12.766 4.922 19.473l.098-.065c.03.561.47 2.298.489 2.418a85.1 85.1 0 01.945 16.467c-.247 6.258-1.774 12.34-2.086 18.591-.04.9-.046.862-.065 1.307-2.632 1.47-5.413 2.507-8.345 3.235-8.405 2.928-16.982 3.884-25.881 2.973-16.187-.39-32.383-.457-48.568-.85-13.996.123-28.7.543-42.212-3.528l-.163.098c-.302-.46-.724-.97-.684-1.111.611-2.168.955-4.337.717-6.6-.103-4.765-.144-9.585-1.402-14.213l.359-.163c.094-.941.141-1.901.228-2.843 1.212-10.8 5.003-19.76 12.093-28.034 3.11-4.94 5.768-10.132 8.28-15.389l-1.989.817c-2.009 5.349-4.806 10.435-7.856 15.259-7.399 8.6-10.422 17.076-12.125 28.164-.11.824-.22 1.632-.359 2.45l-.554.294c1.662 4.61 1.644 9.693 1.63 14.54.13 2.274-.346 4.455-.913 6.633-.093.354-.168.69-.26 1.045l1.531.033-.293.196c14.013 3.214 28.617 3.253 42.929 3.137 16.136.357 32.271.423 48.405.915 8.719.852 17.238.214 25.522-2.614 3.09-.777 6.057-1.83 8.834-3.398l2.412-1.144c.718-1.6.1-.094.098-.033l.358-.49c-.004-.972-.01-.456 0-1.535.17-6.233 1.804-12.289 1.924-18.526.172-5.04-.154-10.055-.718-15.062-.14-1.244-.29-2.514-.423-3.758-.022-.2.132-.617-.065-.588-.131.019-.236.12-.36.163-.011-.11-.051-.216-.064-.326-.749-6.451-2.052-12.913-4.89-18.788-3.073-5.525-7.641-10.043-12.211-14.27z"/>
 <path transform="matrix(1.0677 0 0 1.0677 -3.814 -13.27)" d="M113.65 87.557l-4.51.75c-.387.225-.496.483-.167.388l-.963.776c-.188 3.424-1.237 6.818-2.246 10.096-1.417 5.147-5.51 8.527-8.495 12.702-3.91 6.115-5.55 13.303-6.668 20.385-.502 3.872-1.15 7.73-1.881 11.565-.017.257.083.305.193.36-.105.089-.275.225-.193.195.085-.031.164-.077.249-.11.204.018.537-.139.94-.445.164-.079.337-.139.498-.222.005-.002.024-.145.028-.277 2.27-1.967 6.072-6.637 6.392-6.989 5.956-6.759 10.658-14.514 16.878-21.05 4.28-5.2 10.567-5.29 16.629-7.683 4.516-2.167 8.655-5.066 12.59-8.154 2.001-1.827 4.605-3.407 5.893-5.88.017-.045.224-.526.249-.582l-1.44.693.388-.305c-1.971.275-.938.132-3.071.36-8.597.63-16.85-.818-24.736-4.382-2.286-.894-4.433-1.85-6.558-2.19z" fill="url(#j)"/>
 <path d="M112.94 80.176l-.226.839c-.412.241-.528.517-.177.415l-1.327.53c-.2 3.656-1.022 7.578-2.1 11.078-1.512 5.495-5.883 9.105-9.07 13.562-4.175 6.529-5.926 14.203-7.12 21.765-.536 4.135-1.228 8.254-2.008 12.349-.018.273.089.324.207.385-.113.093-.294.239-.207.207.09-.033.176-.083.266-.119.218.021.574-.147 1.004-.473.175-.085.36-.149.532-.237.005-.003.025-.156.03-.296 2.424-2.1 6.483-7.087 6.824-7.463 6.36-7.216 11.38-15.496 18.02-22.476 4.57-5.552 11.284-5.647 17.756-8.202 4.822-2.314 9.24-5.409 13.441-8.706 2.138-1.95 4.918-3.637 6.293-6.278.018-.049.239-.562.266-.622l-1.536.74.413-.325c-2.105.293-1.002.141-3.28.385-9.178.672-17.99-.875-26.41-4.68-5.394-2.392-9.322-2.014-11.59-2.378zm2.285.957c2.74.322 5.353 1.414 7.918 2.37 8.433 3.867 17.228 5.384 26.44 4.767 2.232-.208 1.14-.117 3.19-.355l.62-.444c-.066.152-.159.295-.235.444-1.46 2.528-3.99 4.251-6.145 6.13-3.645 2.85-7.503 5.577-10.222 6.84-7.198 2.923-15.454 3.505-20.768 10.009-6.592 7.052-11.664 15.382-18.14 22.535-1.684 1.835-3.355 3.664-4.962 5.567.637-3.798 1.065-7.626 1.654-11.43 1.14-7.56 2.855-15.246 7.15-21.706 3.264-4.46 7.609-8.1 9.128-13.652 1.118-3.544 1.506-7.197 1.98-10.867.785-.195 1.568-.304 2.392-.208z"/>
 <path transform="matrix(1.0677 0 0 1.0677 -3.814 -13.27)" d="M75.494 92.439l-1.799.887c-.013.158-.04.314-.055.472l-.443.194c-4.055 4.957-5.487 4.371-11.87 5.159-4.01.27-7.354 1.388-10.182 4.27l.443.389-.747.471c3.037 2.118 6.5 3.575 9.85 5.131 5.876 2.494 8.626 8.332 9.546 14.34.806 5.656 2.803 11.102 6.723 15.336 3.03 3.121 6.82 5.117 10.68 6.99l1.467-.971c-.533-.238-1.026-.55-1.55-.804l.443-.306a8.323 8.323 0 01-1.826-1.858c-2.28-2.979-3.788-6.315-4.648-9.984-.848-3.633-1.476-7.334-2.242-10.983-.312-1.656-.703-3.29-1.41-4.826-1.702-3.19-3.9-5.979-3.819-9.874-.169-4.736.82-9.36 1.439-14.033z" fill="url(#k)"/>
 <path d="M76.79 85.427l-1.92.948c-.013.168-.043.335-.059.503l-.472.208c-4.33 5.292-5.86 4.667-12.674 5.507-4.282.288-7.852 1.483-10.872 4.56l.473.415-.798.504c3.243 2.26 6.942 3.817 10.518 5.478 6.274 2.662 9.21 8.895 10.192 15.31.86 6.04 2.993 11.854 7.178 16.375 3.235 3.332 7.282 5.463 11.404 7.463l1.565-1.037c-.568-.254-1.094-.587-1.654-.859l.473-.325a8.886 8.886 0 01-1.95-1.984c-2.435-3.181-4.044-6.743-4.963-10.66-.905-3.879-1.575-7.83-2.393-11.727-.334-1.768-.751-3.514-1.507-5.153-1.816-3.405-4.163-6.383-4.077-10.542-.18-5.057.876-9.994 1.537-14.984zm-2.097 2.428c-.464 4.459-1.244 8.879-1.063 13.385-.097 4.185 2.042 7.267 3.9 10.72.788 1.613 1.093 3.414 1.476 5.153.952 3.849 1.622 7.757 2.57 11.608.853 3.681 2.345 7.05 4.432 10.157-2.181-1.317-4.234-2.788-6.056-4.62-4.235-4.445-6.262-10.291-7.12-16.287-1.071-6.398-4.05-12.75-10.31-15.428-3.26-1.5-6.6-3.031-9.513-5.152 1.533-1.688 2.513-2.906 7.208-3.732 6.07-.826 10.403-1.775 14.476-5.804z"/>
 <path d="M156.407 127.033l-1.831 1.125c.14.12.325.184.472.296l-.856.444c-.298 3.171 2.408 3.292 4.933 4.028 1.551.152 2.225 1.655 3.516 2.22 2.249-.72 2.278-1.473 3.308-3.109 0 0-1.006-1.05-.502-1.954l-.975.444a7.343 7.343 0 01-2.924-1.036c-1.856-.426-3.82-1.015-5.14-2.458zm-1.181 9.653c-1.253.549-1.61.864-1.684 1.244-.015.012-.016.018-.03.03-.065.45.252 1.008.089 2.102-.254 1.537 1.206 1.414 2.245 1.895 1.058.73 1.98 1.62 2.866 2.547.786.959 1.322 1.925 2.54 2.28.813.232 1.448.129 2.009-.118.259.961 1.515-.228.945-.83.46-.534.9-1.111 1.153-1.895.193-.98.522-1.877 1.24-2.576 0 0-.46-1.767-.03-2.724l-1.92.977c-.288.435-.69.777-1.004 1.184-.532.008-1.213.03-1.566-.148-1.363-.684-2.503-1.929-3.692-2.872-.93-.704-2.044-.907-3.161-1.096z" fill="#00002f"/>
 <path d="M156.407 127.033l-1.831 1.125c.14.12.325.184.472.296l-.856.444c-.298 3.171 2.408 3.292 4.933 4.028 1.551.152 2.225 1.655 3.516 2.22 2.249-.72 2.278-1.473 3.308-3.109l-1.92.859c-.115.199-.192.33-.325.533-.906-.643-1.63-1.67-2.925-1.658-1.99-.518-4.096-.8-4.549-2.547 1.134.65 2.34 1.174 3.604 1.48 1.041.514 1.967.974 3.132 1.126 1.08-.027 1.977-.843 2.481-1.747l-.975.444a7.343 7.343 0 01-2.924-1.036c-1.856-.426-3.82-1.015-5.14-2.458zm-1.181 9.653c-1.253.549-1.61.864-1.684 1.244-.015.012-.016.018-.03.03-.065.45.252 1.008.089 2.102-.254 1.537 1.206 1.414 2.245 1.895 1.058.73 1.98 1.62 2.866 2.547.786.959 1.322 1.925 2.54 2.28.813.232 1.448.129 2.009-.118.259.961 1.515-.228.945-.83.46-.534.9-1.111 1.153-1.895.193-.98.522-1.877 1.24-2.576l-1.979.8c-.654.767-.974 1.673-1.152 2.665-.14.448-.037.464-.089.77-.145-.001-.228-.053-.413-.03-1.182-.282-1.705-1.239-2.482-2.132-.905-.944-1.805-1.93-2.895-2.665-.95-.457-2.359-.298-2.098-1.658.05-.289-.045-.353-.03-.593.395.143.824.131 1.183.356 2.793 1.996 4.489 4.62 8.006 2.28a7.128 7.128 0 001.92-2.517l-1.92.977c-.289.435-.69.777-1.005 1.184-.532.008-1.213.03-1.566-.148-1.363-.684-2.503-1.929-3.692-2.872-.93-.704-2.044-.907-3.161-1.096zM75.599 97.163c1.73 2.383 5.25 5.847 8.235 5.926 4.881.497 9.808-.398 14.407-2.026 2.836-1.088 6.654-1.303 8.4-3.935.268-.65-.097.153-.23.466-1.646 2.005-3.838 2.162-6.14 3.274-3.364 1.482-6.93 2.317-10.565 2.865-2.939.383-5.561.207-8.488-.268-2.32-.607-4.01-3.384-5.577-5.137.434-.26-.476-.905-.042-1.165z"/>
 <g fill-rule="evenodd">
  <path transform="matrix(1.0956 -.10873 .09197 1.0499 -19.134 -.744)" d="m125.78 28.1c-8.893-4.409-19.733-13.672-55.507-4.493 3.104 4.91 41.662 15.42 42.516 14.986 1.118-0.568 12.48-8.233 12.99-10.494z" fill="url(#l)"/>
  <path d="M115.745 19.084c1.254-.767-4.954-9.83-18.288-11.801-27.334-4.018-32.49 15.105-31.943 17.754.38 1.837 44.448-2.242 50.231-5.953z" fill="#060404"/>
  <path d="M97.486 6.76c-4.087-.061-7.799 1.223-11.56 2.68-8.435 1.163-16.966 3.34-25 6.11-2.031-.964-2.262 1.537-1.38 2.564 1.879 4.47 4.443 8.772 4.98 13.642 1.344 2.19 4.029 3.005 6.393 3.667 9.776 2.017 20.545 1.878 30.517.8 5.165-.76 14.408-3.279 16.683-4.943.099-1.536 2.118-5.329 2.702-8.402.423-2.69.915-5.733 1.93-8.3-1.338-.638-3.577-.664-5.001-1.433-3.11-1.241-6.27-2.417-9.554-3.18-3.121-2.06-6.873-3.246-10.71-3.206zm.046.528c3.765-.063 7.776 1.78 10.827 3.785 4.405 1.03 8.641 2.56 12.83 4.157-1.295 3.836-1.396 8.004-2.688 11.816-.107 4.155-5.575 5.638-9.29 6.682-9.382 2.362-19.282 2.885-28.829 2.14-4.425-.52-9.79-1.22-13.752-3.276-1.87-1.437-.82-4.447-1.977-6.408-1.164-3.287-2.708-6.426-4.055-9.641 2.231-.098 4.544-1.506 6.827-1.978 6.156-1.896 12.299-3.742 18.666-4.653 3.509-1.554 7.595-2.625 11.44-2.624z"/>
  <path transform="matrix(1.0956 -.10873 .09197 1.0499 -19.134 -.744)" d="M119.076 33.437c1.195-.607-1.985-12.657-14.206-14.932-27.253-5.05-28.383 12.764-28.097 15.317.197 1.77 36.776 2.576 42.303-.385z" fill="url(#m)"/>
  <path d="M92.152 20.92c-10.542.19-29.561-2.785-32.411-5.287 1.982 4.856 5.533 11.799 5.531 15.778 1.15 5.565 41.429 7.757 50.748-.467 4.35-3.623 2.982-10.158 5.458-16.46-2.144 2.91-20.708 6.282-29.326 6.437z" fill="#060404"/>
  <path transform="matrix(1.0956 -.10873 .09197 1.0499 -19.134 -.744)" d="M99.054 31.477c-9.555-.81-26.53-5.401-28.91-8.03 1.409 4.77 4.005 11.068 3.688 14.825.6 5.362 38.018 10.75 46.817 4.634 4.223-3.014 2.463-9.132 5.203-14.852-2.17 2.549-18.987 4.084-26.798 3.423z" fill="url(#n)"/>
 </g>
</svg>
