<?xml version="1.0" encoding="UTF-8"?>
<svg width="200" height="200" version="1.0" xmlns="http://www.w3.org/2000/svg" xmlns:xlink="http://www.w3.org/1999/xlink">
 <defs>
  <linearGradient id="l" x1="140.38" x2="127.24" y1="61.478" y2="46.474" gradientTransform="matrix(1.108 0 0 1.108 -33.074 -23.507)" gradientUnits="userSpaceOnUse" xlink:href="#e"/>
  <linearGradient id="h" x1="108.01" x2="92.949" y1="101.28" y2="116.03" gradientTransform="matrix(1.108 0 0 1.108 -33.074 -23.507)" gradientUnits="userSpaceOnUse" xlink:href="#e"/>
  <linearGradient id="m" x1="117.06" x2="156.92" y1="110.49" y2="118.82" gradientTransform="matrix(1.108 0 0 1.108 -33.074 -23.507)" gradientUnits="userSpaceOnUse" xlink:href="#e"/>
  <linearGradient id="e">
   <stop stop-color="#eae5ea" offset="0"/>
   <stop stop-color="#fbfafb" offset="1"/>
  </linearGradient>
  <linearGradient id="k" x1="133.33" x2="130.13" y1="21.474" y2="35.897" gradientTransform="matrix(1.108 0 0 1.108 -33.074 -23.507)" gradientUnits="userSpaceOnUse" xlink:href="#e"/>
  <linearGradient id="j" x1="98.397" x2="106.41" y1="32.372" y2="40.814" gradientTransform="matrix(1.108 0 0 1.108 -33.074 -23.507)" gradientUnits="userSpaceOnUse" xlink:href="#e"/>
  <linearGradient id="i" x1="141.99" x2="103.2" y1="110.9" y2="76.282" gradientTransform="matrix(1.108 0 0 1.108 -33.074 -23.507)" gradientUnits="userSpaceOnUse">
   <stop stop-color="#c59e86" offset="0"/>
   <stop stop-color="#d5b8a6" offset="1"/>
  </linearGradient>
  <linearGradient id="g" x1="210.26" x2="149.04" y1="229.17" y2="146.15" gradientTransform="matrix(1.108 0 0 1.108 -33.074 -23.507)" gradientUnits="userSpaceOnUse" xlink:href="#e"/>
 </defs>
 <path d="M113.071 5.807c5.433.303 10.125 2.673 13.458 5.211 6.54 2.054 17.446 7.337 17.36 7.542-1.458 3.464-2.591 16.118-6.96 20.368.021.082-1.37 17.727-2.294 20.76-1.008 3.307-6.865 9.826-7.35 17.908 6.093-1.445 14.73 10.798 16.447 13.203 3.425 4.798 15.692 10.622 21.064 13.245-1.177.087-3.263 1.365-4.736 1.56 4.12 3.247 6.886 5.716 9.708 9.742 7.076 10.099 11.08 54.434 12.5 72.96-61.913 4.728-98.937 15.008-155.847-.63 5.644-28.964.42-62.578 9.662-77.722C43.501 97.8 50.125 97.281 54.928 94.416c-2.184-1.039-13.025 3.017-14.675 2.471 10.352 1.169 23.989-11.64 31.87-13.844-1.13-4.323-.735-11.223-.489-13.995.222-2.492 2.664-10.432 1.923-15.131-.39-2.482-1.307-5.792-1.742-8.548-.582-3.698-.437-5.21.164-7.691-.103-.198-.599-4.161-.967-5.802-.003-.013-6.685-13.705-8.34-18.505 6.924-2.686 27.593-4.023 36.253-4.708 2.004-.781 11.387-3.01 14.146-2.856z" fill-rule="evenodd"/>
 <path d="M119.146 73.544c-3.691-.43-7.797 2.45-15.72 1.128-7.476-1.248-35.695 16.765-47.272 19.796-22.395 10.973-23.502 24.468-24.49 39.484-2.05 14.703-.923 26.861-4.04 52.839 7.663 2.16 14.848 3.694 21.798 4.912.188-5.263 1.536-10.646 1.82-15.83.848-15.667 1.604-15.484.618-31.768l.473-.219c.99 16.347-.363 15.823-.363 32.133 0 5.422-1.263 10.719-1.42 15.83 28.067 4.754 52.192 2.552 81.66-.328.007-5.508.096-11.023.437-16.52.169-7.11 5.584-25.38 6.914-29.113.938-.333.822.222.4 1.055-2.49 7.932-4.309 13.66-5.75 21.834-1.08 7.027-.707 12.52-.836 19.615-.244.735.038 2.033 0 3.02 14.227-1.392 29.38-2.85 47.49-3.893-1.42-18.526-4.497-61.19-11.573-71.29-10.807-15.423-34.932-23.496-43.195-36.717-2.66-4.257-4.736-5.71-6.95-5.968z" fill="url(#g)" fill-rule="evenodd"/>
 <path d="M87.604 112.55c3.804 7.52-1.118 30.548.172 34.1-1.853.346-4.39-2.69-5.003-3.731-1.005-1.002-3.95-14.884-6.724-22.397-2.249-6.088-9.86-16.906-10.26-17.466-2.837-3.974-18.87-3.245-26.398-5.735C57.45 94.655 62.42 81.76 80.83 82.5c1.206 9.576 1.901 20.417 6.773 30.049z" fill-rule="evenodd"/>
 <path d="M86.238 112.27c3.804 7.52-.556 30.958.508 33.464-.773-.168-2.204-2.378-2.818-2.99-1.005-1.002-4.264-15.667-7.039-23.18-2.248-6.089-9.173-15.693-9.573-16.253-2.836-3.974-17.94-3.827-25.47-6.318 16.222-1.057 18.665-13.394 42.59-15.181-3.46 11.068-3.07 20.826 1.802 30.458z" fill="url(#h)" fill-rule="evenodd"/>
 <path d="M136.125 38.713c-1.394 4.573-1.404 17.685-2.329 20.717-1.07 3.511-8.29 12.033-7.979 20.638.072 1.982 4.549 5.428 5.48 7.624.85 2.001-.321 8.827.348 11.555 2.278 9.289-24.137 19.487-38.031 13.99-5.814-2.3-9.65-9.387-9.217-12.605.006-.424-.419-.825-.783-3.176-6.014.983-7.042-4.746-8.462-7.38-1.645-3.055-2.842-10.46-3.24-12.977-.461-2.932.146-5.515.392-8.288.221-2.492 2.564-10.28 1.823-14.98-.39-2.482-1.279-5.673-1.713-8.43-.733-4.649.722-7.334 2.002-10.578 4.962-16.164 58.985-9.66 61.71 3.89z" fill="url(#i)" fill-rule="evenodd"/>
 <path d="M142.736 19.026C118.997 6.522 91.678 7.756 63.79 13.553c4.557 6.538 60.646 21.306 61.79 20.658 1.497-.848 16.597-12.055 17.157-15.185z" fill="url(#j)" fill-rule="evenodd"/>
 <path d="M135.035 25.747c1.601-.906-5.015-18.935-21.757-20.59-28.91-2.841-43.047 16.607-42.498 20.088.38 2.414 56.862 4.902 64.255.502z" fill="#060404" fill-rule="evenodd"/>
 <path d="M133.872 26.757c1.601-.907-4.418-19.776-21.197-20.998-30.52-2.236-41.217 17.71-40.668 21.19.38 2.415 54.472 4.208 61.865-.192z" fill="url(#k)" fill-rule="evenodd"/>
 <path d="m106.18 24.5c-13.147-0.52-39.287-7.442-42.713-10.898 2.226 6.451 8.892 17.405 8.69 22.574 1.152 7.313 51.232 13.085 63.26 3.078 5.601-4.392 4.226-12.98 7.629-20.989-2.818 3.627-26.12 6.659-36.866 6.234z" fill="#060404" fill-rule="evenodd"/>
 <path d="m106.31 25.306c-13.147-0.52-39.135-7.594-42.56-11.05 2.225 6.451 8.612 16.751 8.41 21.92 1.152 7.313 51.232 13.085 63.26 3.078 5.601-4.392 4.005-12.285 7.408-20.293-2.818 3.627-25.772 6.77-36.518 6.345z" fill="url(#l)" fill-rule="evenodd"/>
 <path d="M129.034 48.504c2.094.324 3.598 2.345 3.736 4.392a14.746 14.746 0 01-.857 7.372c-.666 1.245-1.445 1.501-2.405 2.531-.627.575-3.904 1.454-3.37.88.396-.27.928-.198 1.365-.39.736-.22 1.161-.9 1.663-1.427.698-.905 1.82-1.306 2.123-2.431.55-1.956.982-4.595.588-6.608-.21-1.054-1.156-2.69-2.154-3.212-.725-.448-1.722.255-2.373.778-.767.555-1.369 1.32-1.9 2.09-.327.843-.208.131-.109-.491.137-.77 2.369-3.662 3.693-3.484zM125.812 78.636c7.45-2.587 15.37 10.88 17.103 13.308 3.426 4.799 15.002 10.11 20.374 12.733-8.675.641-27.122 4.649-30.192 5.952-3.827 1.624-38.046 31.77-42.758 39.651 1.153-.89-3.397-4.181-2.562-4.05-.64-4.06 7.8-17.009 11.792-20.785 5.384-5.093 27.49-18.371 30.176-25.019.9-2.228 2.783-13.74-3.614-18.518-.503-.28-.328-2.896-.32-3.272z" fill-rule="evenodd"/>
 <path d="M125.812 78.636c7.45-2.587 15.37 10.88 17.103 13.308 3.426 4.799 13.456 9.41 18.828 12.033-8.675.642-25.83 4.529-28.9 5.832-3.827 1.624-38.67 29.009-42.524 38.82-.134-.891-1.7-1.584-1.83-2.524-.426-4.061 7.587-17.05 11.826-20.545 5.622-4.635 27.866-18.663 30.553-25.31.9-2.23 1.355-15.5-5.042-20.277.059-.37-.023-.961-.014-1.337z" fill="url(#m)" fill-rule="evenodd"/>
 <path d="M129.12 117.368c-20.136 16.567-24.171 34.658-37.806 35.333.117-1.666-.004-2.362-.72-3.547 1.092-.794 7.805-9.004 10.432-12.057 3.4-3.953 10.038-8.756 14.094-12.618 2.988-2.844 13.145-11.731 18.563-14.703-.318 3.045-2.525 5.687-4.563 7.592zM69.931 108.04c.633-.293-1.912 11.455 1.603 20.972 1.2 3.249 4.861 15.858 7.927 16.826.787-2.707 1.571-3.174 3.052-3.895-1.129-4.373-3.618-12.914-4.905-17.819-1.077-4.106-4.796-11.243-7.677-16.084z" fill="#00002f" fill-rule="evenodd"/>
 <path d="M82.443 142.84c1.762 3.98 5.487 3.271 7.868 6.606 1.26 1.766.302 8.101-.183 9.63-.928 2.925-1.05 4.215-4.657 3.07-2.96-.939-5.911-1.919-6.407-5.066-.383-2.425 1.107-4.835.674-7.584-.46-2.919.592-4.887 2.705-6.655z" fill="#00002f" fill-rule="evenodd"/>
 <path d="M90.934 158.163c-.503 10.637 6.945 16.204 4.59 23.68-.212.677-3.674 10.748-4.652 12.594-.561 1.059-6.704-13.867-6.918-15.225-.465-2.95.506-14.16 2.67-16.326 1.865.647 3.323-.683 4.31-4.723zM78.652 154.662c-3.268 1.503-10.069 8.66-11.305 14.08-.827 3.627.103 8.233.957 12.002 1.347 5.944.81 7.054 3.65 1.65 2.214-4.212 6.606-7.219 6.813-12.244.153-3.719-.306-5.99 1.357-10.258-1.232-.814-1.712-4.081-1.472-5.23z" fill="#00002f" fill-rule="evenodd"/>
 <path d="M118.837 82.81l.175.41s-2.707 3.438-8.58 6.887c-5.872 3.449-12.97 5.938-26.564 7.64l-.385-.63c13.646-1.013 21.726-4.585 27.418-7.928 5.693-3.342 7.936-6.38 7.936-6.38zM87.834 109.9l-.093.085c2.708 3.91 5.74 5.88 10.061 6.544 4.32.664 8.592-.072 13.87-1.208l.295-.4c-5.216 1.122-10.031 1.667-14.126 1.038-4.096-.63-7.468-2.392-10.007-6.06z" fill-rule="evenodd"/>
 <path d="M159.764 149.12c3.686 1.906 7.372 2.588 11.058 2.658l3.984-5.365 1.714 1.543-4.241 6.565c-3.882.334-7.152-.352-12.258-2.057l-.257-3.343z" fill="#00002f" fill-rule="evenodd"/>
 <path d="M159.31 156.392c4.144 2.143 8.289 2.91 12.434 2.989l4.48-6.033 1.928 1.735-4.77 7.382c-4.365.376-8.042-.395-13.784-2.313l-.289-3.76z" fill="#00002f" fill-rule="evenodd"/>
</svg>
