<svg width="186.667" height="480" xmlns="http://www.w3.org/2000/svg"><metadata/><g fill-rule="evenodd" stroke="#000" stroke-width="1pt"><path d="M80.464 46.313c2.879 5.758 1.24 10.696.521 16.454-7.475 6.998-31.078 3.504-34.891 9.753-7.947 12.037-32.768 47.871-33.012 58.775.292 9.586 20.01 44.252 31.403 56.013 2.711.599 7.019 1.031 8.74-.386.9-4.935 1.166-8.902 2.21-12.63-1.445-.847-3.172-.187-5.263-.063-5.79-7.035-11.969-33.653-13.056-40.274 5.266-9.522 8.786-21.777 17.7-35.799 2.479 18.588 7.907 47.883 5.563 58.894C40.805 199.72 63.416 287.73 64 303.906c-6.45 30.651 9.28 90.594 9.678 96.153-.428 5.145-3.49 8.94-1.545 12.125-2.603 11.04-4.497 15.027-2.337 21.505 2.16 6.478 17.766 8.094 20.767 4.097.934-6.065-.608-21.374-2.767-24.253 1.148-2.466 2.541-11.11.197-18.521-2.757-9.48 5.825-63.068-.775-78.043.841-3.4 2.173-14.492 2.187-19.438-.804-2.975.48-35.1 2-60.187 1.527 25.114 2.807 57.422 2 60.406-2.879 2.88.518 18.513 2.6 21.5-2.052 6.293 3.223 66.502 7.494 73.5-2.344 7.412.29 14.816 1.438 17.281-2.16 2.88-4.528 19.842-3.594 25.906 3 3.998 19.434.729 21.594-5.75 2.159-6.478-.98-8.397-3.583-19.437 1.945-3.186-.734-10.698-1.162-15.844.399-5.559 8.718-58.48 2.268-89.956-1.065-14.527 25.84-107.34 3.903-147.962.903-12.1-.437-42.534 2.15-60.034-.72 6.478 2.52 48.078 7.205 60.421-3.171 15.237 1.748 57.894-1.131 62.213-1.23 5.143-1.412 13.638-1.945 20.156 3.6-2.16 3.043-4.592 5.232-3.181 2.602 5.13-5.809 10.99-5.838 15.537 5.758 0 16.487-7.219 12.338-31.381-.015-9.693 15.98-62.048 8.296-75.019 2.65-8.423-3.766-60.692-8.82-71.075-3.812-6.25-28.001-3.814-35.476-10.813-.72-5.758-3.598-11.522-.719-17.28 6.478-9.358 6.71-40.117-11.312-40.282-23.263.013-20.359 30.705-13.88 40.063z" fill="#f0f0f0" stroke-linejoin="round"/><path d="M91.781 3.688c-7.44.33-14.886 5.316-18.031 16.937.478-.239.894.121 1.54-.06-.657 2.69-.276 5.571-.276 5.571s1.054-.404 1.861-.48c-.292-.73.079-3.822.603-5.591 9.247-2.977 24.176-3.359 29.96.591 1.332 2.405 1.076 6.595 1.076 7.044.507-.259 1.3.367 1.68-.044 0-.79.186-3.646-.464-6.321.442.085 1.386.51 1.687.585-.351-10.723-10.07-18.658-19.636-18.233z" fill="gray"/></g></svg>