<svg width="186.667" height="480" xmlns="http://www.w3.org/2000/svg"><metadata/><g stroke="#000" stroke-width="1pt"><path d="M80.464 50.063c2.879 5.758 1.24 10.696.521 16.454-7.475 6.998-25.394 2.083-29.207 8.332-7.947 12.037-38.452 49.292-38.696 60.196.292 9.586 20.01 44.252 31.403 56.013 2.711.599 6.194 1.031 7.916-.386 2.342-6.172 1.784-5.66 3.858-14.337-1.445-2.48-2.364 2.064-6.087 1.644-5.79-7.035-16.866-34.741-17.953-41.362 5.266-9.522 16.998-20.689 25.913-34.71 7.15 11.541-8.01 16.287 4.89 24.283 1.226 11.295 2.337 29.648 1.166 35.154-30.456 39.949.878 133.847 1.874 146.312-8.511 29.002 8.043 89.357 8.442 94.916-.428 5.145-3.491 9.764-1.546 12.95-2.602 11.04-5.32 15.44-3.161 21.917 2.16 6.478 17.766 8.094 20.767 4.097.934-6.065-.608-21.374-2.767-24.253 1.148-2.466 2.541-11.11.197-18.521-2.757-9.48 5.825-63.068-.775-78.043.841-3.4 2.173-14.492 2.187-19.438-.804-2.975.48-35.1 2-60.187 1.527 25.114 2.807 57.422 2 60.406-2.879 2.88.106 16.451 2.188 19.438-2.053 6.293 3.635 68.564 7.906 75.562-2.344 7.412.29 14.816 1.438 17.281-2.16 2.88-4.528 19.842-3.594 25.906 3 3.998 19.434.729 21.594-5.75 2.159-6.478-3.867-8.397-6.47-19.437 1.946-3.186-.321-10.698-.75-15.844.4-5.559 9.544-61.78 1.032-90.781.997-12.465 29.023-107.603 1.875-146.313-1.172-5.505.052-26.904 1.639-38.2 9.963-4.696-2.048-13.756 4.83-21.237 1.057 8.763 3.94 46.657 8.625 59-3.171 15.237 2.16 58.306-.719 62.625-2.88 4.319-3.885 15.288-3.594 20.156 3.6-2.16 4.28-5.004 6.469-3.594 2.602 5.131-8.283 10.578-8.313 15.125 5.759 0 18.962-6.806 14.813-30.968-.015-9.693 12.716-62.592 5.031-75.563 2.65-8.423-4.29-60.148-9.344-70.531-3.812-6.25-24.212-3.814-31.687-10.813-.72-5.758-3.598-11.522-.719-17.28 6.478-9.358 6.71-40.117-11.312-40.282-23.263.013-20.359 30.705-13.88 40.063z" fill="#f0f0f0" fill-rule="evenodd" stroke-linejoin="round"/><path d="M63.157 126.08c4.54 1.472 13.896.051 18.922-4.337M104.215 120.22c4.199 6.194 12.467 4.098 16.442 3.068" fill="none"/><path d="M92.565 3.716c-7.105-.355-14.096 2.356-16.938 8.75-7.105 16.105-6.154 37.905-3.312 44.063 1.701-.262 5.233-.782 9.375-1.313-.207-1.575-.6-3.17-1.438-4.844-3.239-4.678-5.586-14.69-4.215-23.535 1.37-8.844 31.549-8.714 32.934.166 1.385 8.88-.292 18.91-3.531 23.588-.6 1.2-.829 2.393-1 3.594 3.547.402 6.34 1.256 7.656 2.812 3.316-8.052 3.809-32.194-1.875-43.562-3.316-5.92-10.551-9.364-17.656-9.719z" fill="gray" fill-rule="evenodd"/></g></svg>