<svg width="186.667" height="480" xmlns="http://www.w3.org/2000/svg"><metadata/><g stroke="#000" stroke-width="1pt"><path d="M80.045 11.796c-8.61-.515-17.45 6.578-17.156 17.469 0 0-.58 30.583 8.25 29.406 2.518-.336 5.467-1.129 8.437-2.313-2.092 1.212-4.172 2.266-6.094 2.907 0 0 3.538 7.655.594 11.187-1.649 1.979 5.008 2.99 11.5 2.5-4.963 1.034-9.98.802-12.687-1.906-4.121-.589-25.294 4.708-15.875 25.312 1.177 18.839-15.333 25.316.562 32.97-3.532 4.12 3.553 24.726 2.375 32.968-3.532 1.766-1.766 28.857 0 37.687-3.532 1.472-3.538 73.707 5.219 96.813-1.251 8.978.356 18.268 3.594 18.562 2.354 3.533 8.245 72.994 7.656 79.47-.589 6.475-18.842 24.123-25.906 27.655-7.065 3.533 3.531 1.776 3.531 4.72 0 2.943 10.035 3.546 14.156 5.312 8.83-1.178 14.7-6.5 27.063-6.5 8.241 0 4.703-10.595 2.937-25.313-1.766-14.717 13.56-65.936 2.375-91.25 2.355-19.427 8.818-82.413 9.406-94.187 6.476-5.887-1.165-33.555-5.875-43.563-.118-.215 46.26-9.116 53.563-27.656 1.177-7.653-32.968-65.348-36.5-69.469-5.887-.589-23.563-7.062-23.563-7.062-.263.234-.757.425-1.062.656 1.407-5.94-2.48-15.526-3.625-21.25-.061.049-.277.197-.344.25 1.652-2.163 2.85-4.578 3.281-7.313 1.178-19.426-7.202-27.547-15.812-28.062zm35.969 96.094c3.532 4.71 15.321 25.326 20.031 30.625-7.715 5.044-21.694 13.064-33.906 21-4.998-9.895 15.75-43.654 13.875-51.625z" fill="#f0f0f0" fill-rule="evenodd"/><path d="M65.833 204.68s-.588 68.877 5.887 80.062c.59 9.42-2.354 25.314 6.476 33.556 2.355 5.298 4.71 73.587 2.944 84.183-7.654 8.242-18.839 19.427-27.08 22.96M73.486 125.206s12.363 9.42 20.016-1.177M104.247 171.574c-.456.234-1.177.445-1.5.687-2.943 4.71.011 8.244-2.343 11.188-2.355 2.943-5.307 6.469-8.25 6.469-2.944 0-12.938-5.88-12.938-10 .876-4.672 11.172-12.38 23.188-20.188" fill="none"/><path d="M59.536 24.38S63.09 5.594 80.9 5.594c24.366 1.424 26.352 48.731 20.653 55.855-4.63 4.63-14.242 5.075-14.242 5.075s4.275.356 4.631-4.631c.356-4.987 2.97-31.017-4.865-38.14-6.768-3.919-26.474-.443-27.542.625z" fill="gray" fill-rule="evenodd"/></g></svg>