<svg width="186.667" height="480" xmlns="http://www.w3.org/2000/svg"><metadata/><g stroke="#000" stroke-width="1pt"><path d="M94.313 16.553c-1.493-.067-12.218-.103-17.255 9.094-3.818 11.06-4.425 27.984 3.594 34.965.596 3.269.58 6.979-.72 9.424-8.721 8.217-25.119 5.202-31.794 11.228-11.418 13.302-9.23 80.746-7.397 85.267-6.826 18.129 3.233 50.706 3.509 61 2.338 6.995-.902 19.06 8.844 28.438-.563-7.53-1.215-17.227-1.933-27.996-.718-10.769.964-27.33 3.317-39.469-.946-5.423 2.207-16.559.053-21.584 4.444-7.912 5.219-36.675 1.938-48.42 5.35 12.23 8.314 34.954 8.955 44.714-23.836 33.294-13.463 104.546 1.201 153.692-10.992 39.692.58 69.467 1.375 91.719 5.743 2.872-6.527 18.298-4.281 20.438 4.307 5.025 16.606 3.661 19.187-.22 1.344-2.643-2.087-8.723-1.156-13.03-.306-4.308.063-12.88.063-16.47 0-3.589 9.02-60.349 3.718-75.593 1.679-4.904 3.89-13.958 1.75-21.656 1.397-6.874 4.374-77.414 3.656-83.875-.016-.147.13-2.09.126-2.375-.006.184.105 1.641.093 1.75-.718 6.461 3.577 69.938 1.438 76.812-2.14 7.699-1.679 23.815 0 28.719-5.744 8.615-.719 68.91-.719 72.5 0 3.59-1.85 14.349-2.156 18.656.931 4.308-2.063 11.732-.719 14.375 2.58 3.88 16.192 3.9 20.5-1.125 2.246-2.139-10.462-17.534-4.719-20.406.796-22.252 14.167-51.593 10.688-90.844 14.664-49.146 24.595-120.398 2.969-153.25.64-9.76 6.256-33.367 7.187-45.156-1.955 11.303.556 42.244 5 50.156-2.154 5.026-1.179 13.983-2.125 19.406 2.353 10.372 3.562 28.7 2.844 39.47-.718 10.768-1.78 20.877-2.344 28.405 9.746-9.377 6.475-21.41 8.813-28.406.276-10.294 12.575-42.902 5.75-61.031 1.833-4.521 3.105-64.863-5.22-77.281-6.674-9.12-24.84-11.408-33.562-19.625-1.3-2.445-1.315-7.512-.719-10.781 8.02-6.981 7.412-21.222 3.594-32.282-4.383-8.004-8.81-9.146-13.344-9.353z" fill="#f0f0f0" fill-rule="evenodd"/><path d="M70.85 216.451c14.141 5.303 21.213 1.326 21.213-6.63-.442 10.166 11.048 10.166 19.445 7.514" fill="none"/><path d="M72.944 65.387c-3.316-8.052-3.79-32.21 1.895-43.577 6.63-11.841 28.893-13.736 34.577-.947 7.105 16.104 6.157 37.893 3.315 44.05-6.157-.947-34.577-5.684-39.787.474z" fill="gray" fill-rule="evenodd"/></g></svg>