<svg width="186.667" height="480" xmlns="http://www.w3.org/2000/svg"><metadata/><g stroke="#000" stroke-width="1pt"><path d="M82.5 14.188c-8.61-.516-17.45 6.577-17.156 17.468 0 0-.58 30.584 8.25 29.407 2.518-.336 5.467-1.129 8.437-2.313-2.092 1.211-4.172 2.266-6.094 2.906 0 0 3.538 7.656.594 11.188-1.649 1.979 5.008 2.99 11.5 2.5-4.963 1.034-9.98.801-12.687-1.906-4.121-.59-26.857 7.801-17.438 28.406 0 5.298 1.74 20.606.563 32.969-.589 8.241.695 24.742 1.312 32.625-2.096 5.355-1.922 34.17-.156 43-3.532 1.471-.757 65.643 8 88.75-1.251 8.977.356 18.268 3.594 18.562 2.355 3.532 8.245 72.993 7.656 79.469-.589 6.475-19.667 19.176-25.906 27.656-7.477 3.945 3.531 1.775 3.531 4.719 0 2.943 10.035 3.546 14.156 5.312 8.83-1.177 14.7-6.5 27.063-6.5 8.241 0 8.828-11.001 7.062-25.719-1.766-14.717 12.748-65.123 1.563-90.437 2.355-19.427 5.505-72.914 6.094-84.688 8.537-7.123 3.8-43.363-.844-52.656-2.518.234 41.227-9.929 48.531-28.469 1.177-7.653-29.53-67.222-33.063-71.343-5.886-.589-27-5.188-27-5.188-.263.235-.757.426-1.062.656 1.407-5.94-2.48-15.525-3.625-21.25-.061.05-.277.197-.344.25 1.652-2.162 2.85-4.578 3.281-7.312C99.49 22.823 91.11 14.703 82.5 14.187zm38.375 88.406c3.532 4.71 9.978 33.295 14.688 38.594-7.715 5.044-23.235 17.808-26.844 18.75 1.24-18.534 14.032-49.372 12.156-57.344z" fill="#f0f0f0" fill-rule="evenodd"/><path d="M68.289 216.289s-.59 59.66 5.886 70.845c.59 9.42-2.354 25.314 6.476 33.556 2.355 5.298 4.71 73.586 2.944 84.183-7.653 8.242-19.663 16.54-27.08 22.959M112.278 174.741c-2.518.234-5.672 1.014-5.995 1.256-2.943 4.71-.814 6.182-3.168 9.126-2.355 2.943-5.307 6.468-8.25 6.468-2.944 0-12.938-5.879-12.938-10 .876-4.671 15.41-14.163 27.426-21.972" fill="none"/><path d="M61.027 26.933c.413-1.65 1.237-15.257 22.68-14.845 13.194 1.237 19.38 14.432 18.143 21.855-1.238 2.474-1.238 5.36-1.238 5.36l-5.36-.412s3.299-5.36 1.237-7.835c-2.062-2.474-4.536 1.237-4.536 1.237s.825-2.474-1.237-6.597c-2.062-4.124-26.802-.825-29.689 1.237z" fill="gray" fill-rule="evenodd"/></g></svg>