<svg width="186.667" height="480" xmlns="http://www.w3.org/2000/svg"><metadata/><g stroke="#000" stroke-width="1pt"><path d="M96.813 14.053c-1.493-.067-12.218-.103-17.255 9.094-3.818 11.06-4.425 27.984 3.594 34.965.596 3.269.58 6.979-.72 9.424-8.721 8.217-32.619 5.202-39.294 11.228-11.418 13.302-1.73 80.746.103 85.267-6.826 18.129 3.233 50.706 3.509 61 2.338 6.995-.902 19.06 8.844 28.438-.563-7.53-.2-16.72-.918-27.488.805-10.262-.051-27.33 2.302-39.469-.946-5.423 2.207-17.067.053-22.092 4.444-7.912.219-40.425-3.062-52.17 5.35 12.23 8.746 40.735 9.386 50.495-12.667 24.156-10.417 102.515-.322 152.169-7.438 46.292 5.149 68.959 5.944 91.211 5.744 2.872-5.004 18.298-2.758 20.438 4.307 5.025 16.606 3.661 19.187-.22 1.344-2.643-2.087-8.723-1.156-13.03-.306-4.308.063-12.88.063-16.47 0-3.589 6.482-57.81 4.734-75.593 1.678-4.904.843-12.942.734-21.656 1.397-6.874 4.293-80.38 4.29-80.666-.006.184 3.162 66.104 1.023 72.978-2.14 7.699-1.171 22.8-1.523 28.719-2.19 11.154.804 68.91.804 72.5 0 3.59-1.85 14.349-2.156 18.656.931 4.308-2.063 11.732-.719 14.375 2.58 3.88 16.192 3.9 20.5-1.125 2.246-2.139-7.416-17.027-1.673-19.898.796-22.252 13.151-48.04 12.21-90.844 11.619-47.116 11.904-118.876 3.477-154.265.64-9.76 4.93-36.61 5.861-48.399-1.955 11.303-3.194 45.994 1.25 53.906-2.154 5.026-1.687 14.999-2.633 20.422 1.845 13.925 1.024 28.7 1.829 38.96-.718 10.77-.258 20.37-.821 27.9 9.746-9.378 6.475-21.412 8.813-28.407.276-10.294 12.575-42.902 5.75-61.031 1.833-4.521 6.855-69.863-1.47-82.281-6.674-9.12-28.59-6.408-37.312-14.625-1.3-2.445-1.315-7.512-.719-10.781 8.02-6.981 7.412-21.222 3.594-32.282-4.383-8.004-8.81-9.146-13.344-9.353z" fill="#f0f0f0" fill-rule="evenodd"/><path d="M73.35 216.49c7.034 5.303 21.213 4.371 21.213-3.584-.442 10.165 19.678 10.165 22.999 2.437" fill="none"/><path d="M75.542 31.681c.764-28.03 38.066-25.5 38.266-2.274.403 1.84.499 3.78-.413 4.948-2.474 2.886-5.616 10.79-5.616 13.677 0 2.886-26.334 3.485-26.746 1.836-.413-1.65-2.262-9.558-4.636-11.49-.812-.993-1.05-4.366-.855-6.697z" fill="gray" fill-opacity=".941" fill-rule="evenodd"/></g></svg>