<?xml version="1.0" encoding="UTF-8"?>
<svg width="200" height="200" version="1.0" xmlns="http://www.w3.org/2000/svg" xmlns:xlink="http://www.w3.org/1999/xlink">
 <defs>
  <linearGradient id="u" x1="62.333" x2="75.154" y1="105.63" y2="89.782" gradientTransform="translate(50.55 -26.12)" gradientUnits="userSpaceOnUse" xlink:href="#h"/>
  <linearGradient id="k">
   <stop stop-color="#000072" offset="0"/>
   <stop stop-color="#0000cd" offset="1"/>
  </linearGradient>
  <linearGradient id="f">
   <stop stop-color="#dcdcdc" offset="0"/>
   <stop stop-color="#f0f0f0" offset="1"/>
  </linearGradient>
  <linearGradient id="h">
   <stop offset="0"/>
   <stop stop-color="#fff" offset="1"/>
  </linearGradient>
  <linearGradient id="D" x1="126.54" x2="135" y1="159.78" y2="147.92" gradientUnits="userSpaceOnUse" xlink:href="#k"/>
  <linearGradient id="m" x1="356.44" x2="477.98" y1="437.5" y2="268.87" gradientTransform="matrix(.4235 0 0 .32833 -34.117 -54.946)" gradientUnits="userSpaceOnUse">
   <stop stop-color="#ffd8c1" offset="0"/>
   <stop stop-color="#ffeded" offset="1"/>
  </linearGradient>
  <linearGradient id="n" x1="54.962" x2="137.01" y1="184.65" y2="123.4" gradientTransform="translate(50.55 -26.12)" gradientUnits="userSpaceOnUse" xlink:href="#f"/>
  <linearGradient id="q" x1="294.25" x2="312.09" y1="346.33" y2="322.14" gradientTransform="matrix(.32837 0 0 .32833 17.55 -24.725)" gradientUnits="userSpaceOnUse">
   <stop stop-color="#c10000" offset="0"/>
   <stop stop-color="#ff433e" offset="1"/>
  </linearGradient>
  <linearGradient id="t" x1="90.859" x2="139.26" y1="123.76" y2="15.423" gradientTransform="translate(50.55 -26.12)" gradientUnits="userSpaceOnUse" xlink:href="#h"/>
  <linearGradient id="i">
   <stop stop-color="#cdcdcd" offset="0"/>
   <stop stop-color="#fff" offset="1"/>
  </linearGradient>
  <linearGradient id="v" x1="67.195" x2="93.989" y1="104.28" y2="73.194" gradientTransform="translate(50.55 -26.12)" gradientUnits="userSpaceOnUse" xlink:href="#h"/>
  <linearGradient id="w" x1="95.346" x2="146.63" y1="67.346" y2="13.821" gradientTransform="translate(50.55 -26.12)" gradientUnits="userSpaceOnUse" xlink:href="#h"/>
  <linearGradient id="x" x1="76.614" x2="73.742" y1="57.833" y2="65.145" gradientUnits="userSpaceOnUse" xlink:href="#i"/>
  <linearGradient id="y" x1="76.614" x2="67.561" y1="57.601" y2="63.288" gradientUnits="userSpaceOnUse">
   <stop stop-color="#f0f0f0" offset="0"/>
   <stop stop-color="#fff" offset="1"/>
  </linearGradient>
  <linearGradient id="z" x1="59.322" x2="88.567" y1="67.118" y2="65.145" gradientUnits="userSpaceOnUse" xlink:href="#f"/>
  <linearGradient id="s" x1="143.56" x2="181.1" y1="58.068" y2="64.158" gradientTransform="translate(5.128 41.987)" gradientUnits="userSpaceOnUse" xlink:href="#i"/>
  <linearGradient id="r" x1="171.46" x2="137.89" y1="62.075" y2="71.154" gradientTransform="matrix(-1 0 0 1 261.84 44.872)" gradientUnits="userSpaceOnUse" xlink:href="#i"/>
  <linearGradient id="C" x1="119.55" x2="132.05" y1="136.54" y2="126.28" gradientUnits="userSpaceOnUse" xlink:href="#k"/>
  <linearGradient id="B" x1="175.64" x2="186.16" y1="143.08" y2="135.9" gradientUnits="userSpaceOnUse" xlink:href="#k"/>
  <linearGradient id="A" x1="173.72" x2="186.86" y1="134.58" y2="126.68" gradientUnits="userSpaceOnUse" xlink:href="#k"/>
  <linearGradient id="p" x1="130.08" x2="144.8" y1="126.23" y2="117.9" gradientUnits="userSpaceOnUse" xlink:href="#k"/>
  <linearGradient id="o" x1="103.76" x2="113.68" y1="121.69" y2="113.04" gradientUnits="userSpaceOnUse" xlink:href="#k"/>
  <linearGradient id="E" x1="98.845" x2="118.59" y1="154.17" y2="137.18" gradientUnits="userSpaceOnUse" xlink:href="#k"/>
  <linearGradient id="F" x1="32.029" x2="149.42" y1="-54.118" y2="91.882" gradientTransform="translate(-43 22)" gradientUnits="userSpaceOnUse">
   <stop stop-color="#fff" offset="0"/>
   <stop stop-color="#fff" stop-opacity="0" offset="1"/>
  </linearGradient>
 </defs>
 <path d="M87.031 7.969c-7.978 2.08-15.82 4.41-24.154 3.473-5.19-.246-10.206 1.089-15.283 1.933 2.821 8.726 4.457 18.302 10.75 25.375-7.09 6.365-12.871 14.257-21.344 19 3.847 3.795 10.527 1.757 14 5.281-3.062 13.947-.36 28.94 7.219 41-4.43 3.443-3.205 7.512 2.281 5.75 1.867 6.279-11.593 2.57-9.969 9.75.745 3.882 6.761 6.995 1.282 9.875-9.846 13.605-5.46 31.306-6.455 46.906-.961 5.908 2.099 9.258 7.954 9.882 26.715 8.576 56.28 7.436 82.89-.888 6.82-.944 5.34-7.174 5.212-12.337-.735-5.067.805-9.42 3.117-13.313-3.049-4.693.292-8.266-2.969-12.062-.403-10.702-6.252-21.24-15.875-26.281 3.653-1.467 7.465-7.619 1.907-9.313-7.72-.218-.772-7.136-2.106-11.422.002-5.175 1.097-10.76 5.846-13.492 4.43-9.211 1.388-20.194 1.031-30.056-.491-4.496 7.472-4.616 9.372-9.019 4.292-4.15 7.276-9.445 10.7-14.292-9.32-5.425-20.968-6.786-29.26-13.637-9.21-9.46-23.283-12.967-36.146-12.113z"/>
 <path transform="translate(-43 22)" d="m171.2 52.371c0 25.87-17.146 46.864-38.273 46.864-21.126 0-38.272-20.995-38.272-46.864s15.164-37.946 36.29-37.946c21.127 0 40.255 12.077 40.255 37.946z" fill="url(#m)"/>
 <path transform="translate(-43 22)" d="m119.26 97.282c-15.98 0-28.845 12.864-28.845 28.842v33.838c21.262 10.538 66.93 11.092 92.076 0v-33.838c0-15.978-12.866-28.842-28.845-28.842h-34.386z" fill="url(#n)"/>
 <path transform="translate(-43 22)" d="M111.097 126.923s-7.052-4.808-10.257-13.782 7.372-14.103 7.372-14.103.038 3.746-.64 11.218c-.642 7.052 5.768 12.82 6.089 14.744.32 1.923-3.205 2.244-2.564 1.923z" fill="url(#o)" fill-rule="evenodd"/>
 <path transform="translate(-43 22)" d="M123.397 129.167s16.347-2.885 19.552-11.86c3.205-8.974 1.282-10.256 1.282-10.256s-5.449-2.564-8.013 4.487c-2.564 7.052-12.82 11.86-13.141 13.783-.32 1.923.961 4.166.32 3.846z" fill="url(#p)" fill-rule="evenodd"/>
 <path transform="translate(-43 22)" d="M109.7 80.654c.928 6.69 11.772 5.314 20.893.227-10.094.205-12.719.373-20.893-.227z" fill="url(#q)" fill-rule="evenodd"/>
 <path d="M108.222 155.273l2.864.28 3.109 32.894-7.855.567 1.882-33.741z" fill="#747474"/>
 <path d="M67.506 77.98c-1.795 2.916-4.408 7.711-4.036 9.915.372 2.205 3.746 1.729 5.536 3l.75-1.084c-1.574-1.117-4.041-.018-4.347-1.83-.307-1.812 1.543-6.607 3.222-9.335l-1.125-.666z" fill-rule="evenodd"/>
 <path transform="translate(-43 22)" d="m105.43 92.628s-10.577 1.282-10.257 4.167c0.32 2.884 17.308 25.32 24.68 23.397s-11.539-26.923-14.423-27.564z" fill="url(#r)" fill-rule="evenodd"/>
 <path transform="translate(-43 22)" d="m161.54 89.744s10.577 1.282 10.257 4.166c-0.32 2.885-42.628 28.205-50 26.282s36.859-29.807 39.743-30.448z" fill="url(#s)" fill-rule="evenodd"/>
 <path transform="translate(-43 22)" d="M112.392 85.867c2.503 5.296.535 3.98-1.256 4.824-1.393-1.045-5.285-6.195-6.21-8.361-.29 12.028 4.365 17.683 7.41 21.005 3.046 3.322 23.546 5.813 33.237 0 9.69-5.814 24.823-13.06 20.568-30.906-1.514 1.054-2.179.562-4.128.186.277 3.599-4.362 14.847-20.59 12.073-7.379-.776-13.84 2.8-16.173 6.274-4.559.135-5.737-.33-3.67-5.054-3.617 2.642-7.962-.046-9.188-.04z" fill="url(#t)" fill-rule="evenodd"/>
 <path transform="translate(-43 22)" d="M116.525 72.344c-9.685-1.28-11.036 9.62-16.553 14.428 0 0 12.418-9.976 16.87-9.817-.317-1.113.16-2.544-.317-4.61z" fill="url(#u)" fill-rule="evenodd"/>
 <path transform="translate(-43 22)" d="M117.745 72.391c13.098-2.142 12.094 7.895 18.14 11.842 0 0-13.016-9.028-17.217-7.544-.03-1.157-.076-1.955-.923-4.298z" fill="url(#v)" fill-rule="evenodd"/>
 <path transform="translate(-43 22)" d="M84.03 35.383c17.711 8.643 43.424-5.495 51.997 1.215 6.76 5.139 10.94 16.63 11.836 21.064 1.417 2.325 3.407-15.751 13.108-5.793 3.29 3.9 2.933 9.542 2.4 14.319 3.851-.179 10.116.929 10.415-4.608 1.54-6.374.644-12.995.378-19.46-1.155-10.364-1.211-27.596-32.432-34.146-44.349-.687-41.5 18.695-57.703 27.41z" fill="url(#w)" fill-rule="evenodd"/>
 <g fill-rule="evenodd">
  <path transform="matrix(2.7618 0 0 2.7618 -103.89 -142.33)" d="m55.764 56.942s1.722 7.966 4.521 9.042c2.8 1.077 21.1 5.814 24.76 4.737 3.66-1.076 5.814-5.598 6.675-6.674-5.813-3.015-25.406-9.904-35.956-7.105z" fill="url(#x)"/>
  <path transform="matrix(2.7618 0 0 2.7618 -103.89 -142.33)" d="M59.209 60.817s7.474-10.287 20.177-3.397c6.29 3.412 3.722 8.349 3.506 9.426-.215 1.076-22.176-2.153-23.683-6.029z" fill="url(#y)"/>
  <path transform="matrix(2.7618 0 0 2.7618 -103.89 -142.33)" d="m55.764 56.942s1.722 7.966 4.521 9.042c2.8 1.077 21.1 5.814 24.76 4.737 3.66-1.076 5.814-5.598 6.675-6.674-6.46 1.937-30.573-4.522-35.956-7.105z" fill="url(#z)"/>
 </g>
 <path transform="translate(-43 22)" d="m172.8 127.29-2.43 2.733 9.717 4.555 4.859-4.859-2.733-3.036-2.43 3.34-6.983-2.733z" fill="url(#A)" fill-rule="evenodd"/>
 <path transform="translate(-43 22)" d="m171.74 134.43-2.885 3.245 11.539 5.41 5.77-5.77-3.246-3.606-2.885 3.966-8.293-3.245z" fill="url(#B)" fill-rule="evenodd"/>
 <path d="M114.082 87.69c1.795-2.917 4.966-5.899 4.036-9.917-.372-2.204-3.885-4.1-6.653-2.72l-.191 1.223c2.55-.417 4.6-.4 4.905 1.412 1.283 3.905-.985 6.746-2.664 9.474l.567.527z" fill-rule="evenodd"/>
 <g fill-rule="evenodd">
  <path d="M57.163 66.578c6.09-.282 6.458 6.673 4.607 10.81-2.789 6.323-9.324 2.664-9.081-2.243.203-3.08 1.817-8.262 4.474-8.567z" fill="#faffff"/>
  <path d="M56.24 66.963c1.6-1.321 4.626.59 5.358 1.339.513 1.023 1.7 2.957 1.127 4.898-.67-2.3-1.315-3.304-2.256-4.212-1.113-.969-3.053-1.639-4.438-1.057-1.038.56-1.693 1.902-2.938 4.293.417-.98 1.1-4.227 3.148-5.261z" fill-opacity=".192"/>
  <path d="M57.729 69.807c3 .95 2.851 6.186-.28 7.656-2.496.92-3.836-2.3-3.408-4.688.108-1.138.757-3.52 3.688-2.968z"/>
  <path d="M56.758 70.192c1.663.508 1.61 3.223-.113 3.968-1.375.464-2.132-1.213-1.908-2.449.053-.59.399-1.82 2.021-1.52z" fill="#cacece"/>
  <path d="M88.526 77.178c-2.275 4.35-8.053 7.148-11.003.49-1.928-4.057.237-9.315 5.582-11.19 5.991-.79 7.371 6.512 5.42 10.7z" fill="#fbffff"/>
  <path d="M83.775 66.37c2.076-.086 4.387 1.678 5.112 3.41.976 2.084.514 5.5-.394 7.075.135-2.211-.157-4.589-1.203-6.446-1.125-1.605-3.069-2.183-4.669-2.265-.857.004-2.253.282-4.099 1.4 1.268-1.436 3.608-3.06 5.253-3.174z" fill-opacity=".192"/>
  <path d="M82.851 69.763c2.909 1.433 2.632 5.125.71 6.958-1.543 1.967-5.146.788-5.412-2.281-.074-2.077 1.092-5.45 4.702-4.677z"/>
  <path d="M82.06 69.823c1.767.848 1.598 3.033.432 4.117-.937 1.164-3.124.466-3.286-1.35-.045-1.229.663-3.224 2.855-2.767z" fill="#cacece"/>
 </g>
 <path transform="translate(-47.808 24.564)" d="m128.2 130.93c0 3.626-3.44 8.814-6.89 8.814-5.374 0-5.753-5.19-5.61-8.815 0.32-8.114 2.8-6.57 6.25-6.57s6.25 2.944 6.25 6.57z" fill="url(#C)"/>
 <path transform="translate(-43 22)" d="m121.8 142.95s10.96 6.809 9.936 13.461c-1.282 8.334-0.32 11.218-0.32 11.218s-12.821-3.846-9.616-24.68z" fill="url(#D)" fill-rule="evenodd"/>
 <path transform="translate(-43 22)" d="m109.74 137.18s-10.897 7.05-10.897 13.782c0 6.73 1.282 8.653 1.282 8.653s12.82-1.602 9.615-22.436z" fill="url(#E)" fill-rule="evenodd"/>
 <path d="M91.844 9.688c-6.557-.012-12.13 1.642-16.781 3.843-9.179-.758-17.821-.482-24.938 1.406 0 0 4.182 18.989 11.031 23.938-8.034 6.082-11.393 13.804-20.125 18.5 3.914 1.91 8.232 2.594 12.657 2.75-1.234 4.208-2.032 8.86-2.032 14.25 0 11.378 3.455 21.66 8.969 29.781-1.082 1.736-2.235 3.386-3.656 4.625 0 0 2.521-1.837 4.531-3.312.206.282.382.599.594.875.1 3.632.611 6.603 1.437 9.094-.403-.328-.867-.763-1.093-.813 0 0-10.571 1.272-10.25 4.156.105.948 2.289 4.168 5.062 7.781-5.987 5.278-9.844 12.92-9.844 21.563v33.844c21.263 10.537 66.948 11.092 92.094 0V163l3.656-3.688-3.25-3.593-.406.562v-2.125l2.438-2.437L139.5 149v-.875a28.81 28.81 0 00-17.625-26.625c4.127-2.75 6.826-4.873 6.906-5.594.278-2.499-6.727-3.604-8.844-3.906 2.912-3.984 4.453-8.968 3.47-15.375a52.426 52.426 0 002.968-8.688c2.322-.363 4.245-1.353 4.406-4.343 1.54-6.374.641-13.004.375-19.469-.355-3.184-.698-7.028-1.781-11 .476-.067 1.254-.016 1.625-.125 10.109-2.973 16.059-15.464 18.438-18.438-5.055-2.62-14.119-6.3-24.75-9.874-1.72-2.927-4.522-5.84-9.313-8.438-8.77-4.757-16.663-6.55-23.531-6.563z" fill="url(#F)"/>
</svg>
