<svg width="400pt" height="400pt" xmlns="http://www.w3.org/2000/svg"><path d="M212.828 128.61l-85.64 89.032 17.806 17.806 67.834-72.073.849 121.252-71.438 92.636 43.88.212-26.709 86.912c2.543.848 34.765 1.696 35.613 0 .423-.848 24.756-87.88 24.483-87.548-.401-.755 19.608.212 20.456-.636l16.959.424 28.829 87.76h37.308l-28.405-88.608 46 1.06-77.797-98.147 1.696-115.317 69.529 70.378 20.351-16.959-88.184-88.184h-53.42zM239.114 12.445c-79.705 1.696-78.857 105.99-2.544 106.838 82.249 0 84.792-105.99 2.544-106.838z" fill="#7f0000" fill-rule="evenodd"/></svg>