<svg width="400pt" height="400pt" xmlns="http://www.w3.org/2000/svg"><path d="M307.681 76.52a66.012 62.096 0 10-132.023 0 66.012 62.096 0 10132.023 0h-66.012z" fill-rule="evenodd"/><path font-size="12" fill-rule="evenodd" d="M195.797 153.16h106.29v118.613h-106.29zM195.797 325.461h49.229v158.875h-49.229zM253.977 326.58h46.991v157.756h-46.991z"/><g fill-rule="evenodd"><path font-size="12" d="M137.617 181.131h39.159v133.142h-39.159z"/><path d="M175.658 181.131s10.069-11.189 20.139-8.951c10.07 2.238 0-19.021 0-19.021l-34.684 3.357c-14.557 7.808-14.949 8.155-19.389 13.426-3.357 5.594-4.107 13.426-4.107 13.426l38.041-2.237z"/></g><g fill-rule="evenodd"><path font-size="12" d="M359.023 181.131h-39.16v133.142h39.16z"/><path d="M320.982 181.131s-10.07-11.189-20.14-8.951c-10.07 2.238 0-19.021 0-19.021l34.685 3.357c14.557 7.808 14.949 8.155 19.389 13.426 3.357 5.594 4.107 13.426 4.107 13.426l-38.041-2.237z"/></g><path d="M195 326.25L140 395h216.25l-57.5-68.75H195z" transform="matrix(1 0 0 1.96364 0 -363.136)" fill-rule="evenodd" stroke="#000" stroke-width="1pt"/></svg>