<?xml version="1.0" encoding="UTF-8"?>
<svg width="106.67" height="106.67" xmlns="http://www.w3.org/2000/svg" xmlns:xlink="http://www.w3.org/1999/xlink">
 <defs>
  <linearGradient id="c" x1=".909" x2="-.476" y1=".633" y2="-.141">
   <stop stop-color="#f3f3f3" offset="0"/>
   <stop stop-color="#fff" offset=".377"/>
   <stop stop-color="#e6ffff" offset="1"/>
  </linearGradient>
 </defs>
 <g fill-rule="evenodd">
  <path transform="matrix(.55458 0 0 .55049 52.44 9.01)" d="m27.215 9.696c70.511-13.195 81.232 89.48 4.948 82.882 16.494-5.773 43.709-54.43-4.948-82.882z" fill="#ffff97" stroke="#000" stroke-linejoin="round" stroke-width="2.262"/>
  <path d="m67.775 14.246c28.127 3.178 31.557 38.134 2.744 45.625 9.147-3.178 24.24-29.963-2.744-45.625z" fill-opacity=".05"/>
  <path d="m68.03 14.007c26.069 5.221 28.813 37 2.744 45.625 9.147-3.178 24.24-29.962-2.744-45.625z" fill-opacity=".05"/>
  <path d="m67.562 14.461c23.783 7.264 27.67 33.822 2.745 45.625 9.147-3.178 24.24-29.962-2.745-45.625z" fill-opacity=".05"/>
  <path d="m67.546 14.7c38.418-6.81 43.906 48.122 2.744 45.171 29.042 2.043 42.763-44.036-2.744-45.171z" fill="#fff" fill-opacity=".5"/>
 </g>
 <path d="M43.38 44.42c-.912-4.683-8.63-11.547-13.251-10.264-5.789 1.666-8.455 7.055-4.318 11.117-3.66-2.583-12.792-4.805-17.742 4.193-3.073 6.702 5.628 10.895 8.29 10.4-5.093-.639-17.642 10.283-12.055 15.847 6.885 5.655 22.656-.46 23.348-5.184-1.536 6.908 15.986 8.234 16.42-1.366-1.251 4.5 11.251 9.291 17.195 7.458 7.45-1.895 6.554-8.292 5.672-10.242 5.73.683 14.702 2.376 18.676-3.764 2.77-5.802 1.123-12.282-2.443-14.32-3.885-1.928-8.13-1.827-13.082 1.438 3.929-2.667 1.506-11.264-2.432-13.153-4.488-2.145-9.88-2.564-14.722-1.521-3.99.666-10.305 4.174-9.556 9.362z" fill="url(#c)" fill-rule="evenodd" stroke="#000" stroke-linejoin="round" stroke-width="1.123"/>
</svg>
