<?xml version="1.0" encoding="UTF-8"?>
<svg width="106.67" height="106.67" xmlns="http://www.w3.org/2000/svg" xmlns:xlink="http://www.w3.org/1999/xlink">
 <defs>
  <linearGradient id="d" x1=".909" x2="-.476" y1=".633" y2="-.141">
   <stop stop-color="#f3f3f3" offset="0"/>
   <stop stop-color="#fff" offset=".377"/>
   <stop stop-color="#e6ffff" offset="1"/>
  </linearGradient>
  <radialGradient id="c" cx=".463" cy=".438" r=".53">
   <stop stop-color="#fff" stop-opacity=".498" offset="0"/>
   <stop stop-color="#fff" stop-opacity="0" offset="1"/>
  </radialGradient>
 </defs>
 <g fill-rule="evenodd">
  <path d="m98.724 41.102c0 13.281-10.92 24.06-24.373 24.06-13.454 0-24.373-10.779-24.373-24.06 0-13.28 10.92-24.06 24.373-24.06 13.454 0 24.373 10.78 24.373 24.06z" fill="#ffa400" fill-opacity=".981"/>
  <path transform="matrix(1.1727 0 0 1.181 15.828 -15.178)" d="m58.218 41.782c0 6.607-5.606 11.97-12.514 11.97s-12.514-5.363-12.514-11.97c0-6.608 5.606-11.97 12.514-11.97s12.514 5.362 12.514 11.97z" fill="url(#c)"/>
 </g>
 <path d="M43.38 44.42c-.912-4.683-8.63-11.547-13.251-10.264-5.789 1.666-8.455 7.055-4.318 11.117-3.66-2.583-12.792-4.805-17.742 4.193-3.073 6.702 5.628 10.895 8.29 10.4-5.093-.639-17.642 10.283-12.055 15.847 6.885 5.655 22.656-.46 23.348-5.184-1.536 6.908 15.986 8.234 16.42-1.366-1.251 4.5 11.251 9.291 17.195 7.458 7.45-1.895 6.554-8.292 5.672-10.242 5.73.683 14.702 2.376 18.676-3.764 2.77-5.802 1.123-12.282-2.443-14.32-3.885-1.928-8.13-1.827-13.082 1.438 3.929-2.667 1.506-11.264-2.432-13.153-4.488-2.145-9.88-2.564-14.722-1.521-3.99.666-10.305 4.174-9.556 9.362z" fill="url(#d)" fill-rule="evenodd" stroke="#000" stroke-linejoin="round" stroke-width="1.123"/>
</svg>
