<?xml version="1.0" encoding="UTF-8"?>
<svg width="106.67" height="106.67" xmlns="http://www.w3.org/2000/svg" xmlns:xlink="http://www.w3.org/1999/xlink">
 <defs>
  <linearGradient id="d" x1=".909" x2="-.476" y1=".633" y2="-.141">
   <stop stop-color="#f3f3f3" offset="0"/>
   <stop stop-color="#fff" offset=".377"/>
   <stop stop-color="#e6ffff" offset="1"/>
  </linearGradient>
  <radialGradient id="c" cx=".463" cy=".438" r=".53">
   <stop stop-color="#fff" stop-opacity=".498" offset="0"/>
   <stop stop-color="#fff" stop-opacity="0" offset="1"/>
  </radialGradient>
 </defs>
 <g fill-rule="evenodd">
  <path d="M84.557 35.716c0 7.205-6.002 13.053-13.398 13.053-7.395 0-13.398-5.848-13.398-13.053 0-7.206 6.003-13.054 13.398-13.054 7.396 0 13.398 5.848 13.398 13.054zM69.629 15.536c-1.051 2.212 1.499 5.557 3.493 3.046.77-2.185.223-4.58.483-6.853.51-1.985-.285-3.58-2.501-3.816-1.283.25-1.111 5.035-1.475 7.623zM55.332 11.35a1.944 1.944 0 00-1.727 1.152 1.857 1.857 0 00.346 2.01s1.58 1.74 6.493 7.18a1.972 1.972 0 001.87.677 1.928 1.928 0 001.498-1.284 1.86 1.86 0 00-.452-1.894c-4.912-5.438-6.473-7.178-6.473-7.178a1.968 1.968 0 00-1.555-.663zM45.826 21.104c-.201.7-.481 1.858.682 2.303 2.674 1.774 5.775 2.55 9.054 3.87 1.261.492 2.714-.644 2.574-1.94-.06-1.23-1.388-1.741-2.406-2.085-2.554-1.036-5.17-1.92-7.776-2.822-.771-.077-1.499.28-2.128.674zM43.163 35.21c.083.882-.388 1.9.458 2.417 1.77.575 5.975.554 9.155.586 1.542-.119 2.293-2.248 1.105-3.238-.914-.846-2.244-.466-3.37-.584-1.322-.03-7.633-.24-7.348.818zM55.176 41.597a1.984 1.984 0 00-.875.227c-3.677 1.846-5.561 2.77-6.512 3.22-.443.21-.653.296-.758.34-.008.004-.052.017-.058.02-.914.292-1.47 1.192-1.31 2.115.16.924.99 1.594 1.951 1.578 0 0 .255-.006.33-.019.076-.013.134-.027.176-.038.083-.022.131-.041.175-.057.086-.03.142-.056.233-.094.18-.077.45-.199.952-.436 1.003-.475 2.918-1.405 6.61-3.258a1.88 1.88 0 001.041-2.16c-.22-.87-1.036-1.47-1.955-1.438zM60.736 48.775c-.5.017-.973.22-1.322.568-3.342 3.256-5.028 4.838-5.832 5.569-.313.284-.388.35-.467.416l-.019.02c-.596.344-.96.971-.952 1.647l.077.568.447.72.759.492.66.114s.305-.016.409-.038c.104-.022.168-.053.233-.076.13-.045.21-.08.272-.113.25-.13.295-.174.389-.247.187-.145.42-.342.855-.738.871-.792 2.553-2.373 5.91-5.644a1.86 1.86 0 00.441-2.105 1.948 1.948 0 00-1.86-1.153zM71.875 51.161a1.966 1.966 0 00-1.353.608c-.35.37-.535.86-.514 1.362.08 3.215-.66 7.099.342 8.421 1.155.5 1.816.443 1.816.443l1.56-.538c.384-1.25.394-3.25.17-8.42a1.872 1.872 0 00-.603-1.355 1.974 1.974 0 00-1.418-.52zM81.789 49.855a1.953 1.953 0 00-1.734.983 1.853 1.853 0 00.081 1.952c2.033 3.082 3.167 4.606 3.888 5.436.36.415.605.656.933.89.164.117.343.241.68.341.17.05.386.101.642.095.128-.003.267-.024.408-.057.141-.033.409-.152.409-.152a1.892 1.892 0 001.096-1.662 1.886 1.886 0 00-1.019-1.709c-.014-.015 0-.007-.175-.208-.507-.584-1.61-2.009-3.596-5.02a1.955 1.955 0 00-1.613-.89zM87.776 42.695a1.924 1.924 0 00-1.694 1.556 1.882 1.882 0 001.052 2.024c2.25 1.131 5.037 3.341 6.901 2.985 1.544-.29 1.676-1.331 1.552-2.372-.257-1-1.153-1.503-6.664-3.984a1.988 1.988 0 00-1.147-.209zM98.273 33.093a1.99 1.99 0 00-.622.113 14.35 14.35 0 01-.68.038c-1.17.052-3.597.095-8.495.095a1.955 1.955 0 00-1.707.94 1.852 1.852 0 000 1.909c.354.59 1.006.949 1.707.939 4.927 0 7.383-.057 8.67-.114.643-.028.995-.04 1.263-.075.134-.018.224-.026.447-.095.112-.035.257-.068.525-.246.067-.045.15-.115.234-.19a5.94 5.94 0 00.272-.284l.233-.473.117-.625a1.869 1.869 0 00-.563-1.37 1.97 1.97 0 00-1.4-.562zM97.636 23.108c-2.052 0-2.053-.123-9.413 1.803-.7.139-1.264.64-1.471 1.305a1.86 1.86 0 00.478 1.883 1.98 1.98 0 001.926.486c3.365-.8 8.832-1.762 9.028-2.909.971-.98.147-1.712-.548-2.568zM87.978 11.994c-1.155.624-2.561 1.883-6.287 7.216a1.87 1.87 0 00.593 2.623c.908.565 2.113.306 2.693-.578 1.9-2.899 4.801-6.255 5.046-7.45-.169-.978-1.107-1.707-2.045-1.811z" fill="#fb0" fill-opacity=".981"/>
  <path transform="matrix(.64467 0 0 .64075 38.988 5.18)" d="m58.218 41.782c0 6.607-5.606 11.97-12.514 11.97s-12.514-5.363-12.514-11.97c0-6.608 5.606-11.97 12.514-11.97s12.514 5.362 12.514 11.97z" fill="url(#c)"/>
 </g>
 <path d="M43.38 44.42c-.912-4.683-8.63-11.547-13.251-10.264-5.789 1.666-8.455 7.055-4.318 11.117-3.66-2.583-12.792-4.805-17.742 4.193-3.073 6.702 5.628 10.895 8.29 10.4-5.093-.639-17.642 10.283-12.055 15.847 6.885 5.655 22.656-.46 23.348-5.184-1.536 6.908 15.986 8.234 16.42-1.366-1.251 4.5 11.251 9.291 17.195 7.458 7.45-1.895 6.554-8.292 5.672-10.242 5.73.683 14.702 2.376 18.676-3.764 2.77-5.802 1.123-12.282-2.443-14.32-3.885-1.928-8.13-1.827-13.082 1.438 3.929-2.667 1.506-11.264-2.432-13.153-4.488-2.145-9.88-2.564-14.722-1.521-3.99.666-10.305 4.174-9.556 9.362z" fill="url(#d)" fill-rule="evenodd" stroke="#000" stroke-linejoin="round" stroke-width="1.123"/>
</svg>
