<svg xmlns="http://www.w3.org/2000/svg" xmlns:xlink="http://www.w3.org/1999/xlink" width="106.667" height="106.667"><defs><radialGradient xlink:href="#a" cx=".541" cy=".492" r=".678" fx=".541" fy=".492"/><linearGradient id="a"><stop offset="0" stop-opacity=".25"/><stop offset="1" stop-color="#fff" stop-opacity="0"/></linearGradient></defs><g fill-rule="evenodd"><path d="M27.215 9.696c70.511-13.195 81.232 89.48 4.948 82.882 16.494-5.773 43.709-54.43-4.948-82.882z" fill="#f3f3f3" stroke="#000" stroke-width="1pt"/><path d="M27.652 9.511c50.719 5.773 56.904 69.274 4.948 82.882C49.094 86.62 76.31 37.963 27.652 9.51z" fill-opacity=".05"/><path d="M28.112 9.078c47.007 9.484 51.956 67.212 4.948 82.881 16.494-5.773 43.709-54.43-4.948-82.881z" fill-opacity=".05"/><path d="M27.27 9.902c42.883 13.195 49.893 61.44 4.947 82.882 16.494-5.773 43.709-54.43-4.948-82.882z" fill-opacity=".05"/><path d="M27.24 10.336c69.274-12.37 79.17 87.417 4.948 82.057 52.368 3.71 77.109-79.995-4.948-82.057z" fill="#fff" fill-opacity=".5"/></g></svg>