<?xml version="1.0" encoding="UTF-8"?>
<svg width="106.67" height="106.67" xmlns="http://www.w3.org/2000/svg" xmlns:xlink="http://www.w3.org/1999/xlink">
 <defs>
  <linearGradient id="b" x1=".909" x2="-.476" y1=".633" y2="-.141">
   <stop stop-color="#f3f3f3" offset="0"/>
   <stop stop-color="#fff" offset=".377"/>
   <stop stop-color="#e6ffff" offset="1"/>
  </linearGradient>
 </defs>
 <path d="M47.746 18.501c-1.037-5.107-9.81-12.593-15.065-11.193C26.1 9.125 23.069 15 27.772 19.43c-4.16-2.816-14.543-5.239-20.17 4.572-3.494 7.31 6.399 11.882 9.425 11.341-5.79-.696-20.058 11.214-13.705 17.28 7.827 6.167 25.756-.501 26.543-5.652-1.746 7.532 18.174 8.978 18.667-1.49-1.422 4.908 12.792 10.132 19.55 8.133 8.468-2.066 7.45-9.042 6.448-11.169 6.514.745 16.714 2.591 21.232-4.104 3.15-6.326 1.277-13.393-2.777-15.615-4.417-2.102-9.244-1.993-14.873 1.567 4.467-2.907 1.712-12.282-2.765-14.342-5.102-2.34-11.232-2.796-16.737-1.658-4.536.726-11.716 4.552-10.864 10.208z" fill="url(#b)" fill-rule="evenodd" stroke="#000" stroke-linejoin="round" stroke-width="1.25"/>
 <g fill-rule="evenodd">
  <path d="M20.416 56.457C15.825 61.865.257 69.533 9.347 74.977c11.392 6.44 10.132-10.968 11.069-18.52z" fill="#dff" stroke="#000" stroke-width="1pt"/>
  <path d="M19.519 58.158C18.622 59.86 2.918 69.848 8.103 72.8c4.066 3.013-.526-3.54 11.416-14.64z" fill="#48d3ff" fill-opacity=".5"/>
  <path d="m27.246 74.414c-4.59 5.408-20.158 13.076-11.068 18.52 11.392 6.44 10.131-10.968 11.068-18.52z" fill="#dff" stroke="#000" stroke-width="1pt"/>
  <path d="M26.349 76.115c-.897 1.702-16.6 11.69-11.415 14.641 4.065 3.013-.526-3.54 11.415-14.64z" fill="#48d3ff" fill-opacity=".5"/>
  <path d="M49.746 57.539c-4.59 5.408-20.158 13.076-11.068 18.52C50.07 82.5 48.809 65.091 49.746 57.54z" fill="#dff" stroke="#000" stroke-width="1pt"/>
  <path d="M48.849 59.24c-.897 1.702-16.6 11.69-11.415 14.641 4.065 3.013-.526-3.54 11.415-14.64z" fill="#48d3ff" fill-opacity=".5"/>
  <path d="m57.871 78.164c-4.59 5.408-20.159 13.076-11.068 18.52 11.392 6.44 10.131-10.968 11.068-18.52z" fill="#dff" stroke="#000" stroke-width="1pt"/>
  <path d="M56.974 79.865c-.897 1.702-16.6 11.69-11.415 14.641 4.065 3.013-.526-3.54 11.415-14.64z" fill="#48d3ff" fill-opacity=".5"/>
  <path d="m78.183 56.289c-4.59 5.408-20.158 13.076-11.068 18.52 11.392 6.44 10.132-10.968 11.068-18.52z" fill="#dff" stroke="#000" stroke-width="1pt"/>
  <path d="M77.286 57.99c-.897 1.702-16.6 11.69-11.415 14.641 4.066 3.013-.526-3.54 11.415-14.64z" fill="#48d3ff" fill-opacity=".5"/>
 </g>
</svg>
