<?xml version="1.0" encoding="UTF-8"?>
<svg width="106.67" height="106.67" xmlns="http://www.w3.org/2000/svg" xmlns:xlink="http://www.w3.org/1999/xlink">
 <defs>
  <linearGradient id="c" x1=".921" x2=".021" y1=".742" y2=".172">
   <stop stop-color="#b1f3f3" offset="0"/>
   <stop stop-color="#fff" offset=".283"/>
   <stop stop-color="#e2ffff" offset=".431"/>
   <stop stop-color="#fff" offset=".695"/>
   <stop stop-color="#bdffff" offset="1"/>
  </linearGradient>
  <linearGradient id="d" x1=".163" x2=".986" y1=".202" y2=".944">
   <stop stop-color="#ddf3f3" offset="0"/>
   <stop stop-color="#fff" offset=".185"/>
   <stop stop-color="#f3f3f3" offset="1"/>
  </linearGradient>
 </defs>
 <path d="M75.476 34.356l-1.882 3.138-.99-2.189-2.116.969 1.67 3.64-3.009 5.036-1.106-2.672 1.262-1.356-1.708-1.588-.544.58-.368-.89-2.155.871.291.717-.504-.078-.388 2.305 1.96.31 1.766 4.3-1.921 3.215-.272-.678-2.174.833.932 2.382-2.057 3.428-1.534-2.673 1.534-2.595-2-1.181-.873 1.472-1.805-3.138 3.028-4.978 2.445-.135-.136-2.324-.854.038.854-1.394-1.999-1.2-.931 1.53-.427-.737-2.019 1.162 1.048 1.86-2.348 3.873-3.455-6.004 1.63-3.738-2.115-.93-.95 2.19-1.65-2.848-2.019 1.162 1.825 3.157-2.407-.194-.175 2.305 3.998.33 2.93 5.074-2.871-.33-.583-1.781-2.212.716.252.775-.97-.116-.272 2.305.776.096-.33.407 1.805 1.453 1.242-1.55 4.62.543 1.863 3.234-.718-.097-.311 2.305 2.504.349 2.115 3.68-3.3-.04-1.474-2.633-2.038 1.123.815 1.472-3.61-.02-2.775-5.112 1.126-2.189-2.077-1.065-.388.755-.777-1.433-2.057 1.104.874 1.588h-.874l-.02 2.324 2.155.02 2.154 3.99-6.948-.059-2.406-3.292-1.883 1.355 1.398 1.918-3.28-.02-.02 2.325 3.668.019-1.397 1.976 1.902 1.336 2.31-3.273 5.88.038-1.747 2.305-1.824-.406-.505 2.266.777.174-.583.775 1.844 1.413.466-.62.194.485 2.193-.833-.718-1.84 2.814-3.7 3.746.04-.446.561 1.824 1.453 1.572-1.995 3.028.02-1.786 3.176h-3.028v2.324h1.708l-1.785 3.157-5.842-.058-1.359-2.034-1.94 1.278.465.717-1.63-.02-.02 2.325 1.806.019-.427.755 2.018 1.143 1.068-1.879 4.56.059-3.415 6.042-4.076.484.291 2.305 2.368-.29-1.611 2.866 2.018 1.143 1.805-3.176 1.029 2.15 2.096-1.008-1.747-3.602 2.873-5.094 1.184 2.634-1.243 1.395 1.747 1.53.524-.6.408.91 2.135-.95-.31-.716.504.077.33-2.304-1.96-.29-1.883-4.223 1.844-3.273.29.678 2.155-.891-.99-2.344 1.883-3.312 1.805 3.118-1.359 2.383 2.019 1.142.698-1.2 1.825 3.157-2.776 4.706-2.445.174.155 2.305.873-.058-.853 1.433 2.018 1.162.912-1.55.447.737 1.999-1.182-1.087-1.859 2.096-3.544 3.532 6.1-1.378 3.254 2.154.91.699-1.646 1.184 2.053 2.018-1.181-1.708-2.963 2.931.213.175-2.324-4.387-.29c-.038-.005-.077 0-.116 0l-2.95-5.075 3.319.348.582 1.782 2.213-.755-.253-.756.97.097.253-2.304-.796-.078.33-.426-1.844-1.433-1.222 1.569-4.988-.523L67.5 66.39l1.048.135.29-2.305-2.813-.368-1.747-3.021 3.455-.077 1.552 2.575 2-1.181-.874-1.472 3.63-.077 2.93 5.035-1.068 2.208L78 68.85l.37-.794.834 1.433 2.018-1.162-.912-1.568.854-.02-.039-2.324-2.154.039-2.271-3.913 6.929-.154 2.503 3.234 1.844-1.414-1.456-1.898 3.28-.077-.058-2.325-3.63.078 1.32-1.976-1.96-1.278-2.193 3.331-5.9.136 1.689-2.344 1.844.35.427-2.286-.796-.155.582-.794-1.902-1.356-.466.639-.194-.484-2.154.89.776 1.821-2.697 3.796-3.766.097.447-.6-1.863-1.395-1.534 2.053-4.036.097 2.426-4.048 3.008.058.058-2.324-1.689-.038 1.864-3.1 5.822.214 1.3 2.053 1.98-1.24-.446-.716 1.63.058.077-2.324-1.824-.059.447-.736-1.98-1.22-1.106 1.86-4.542-.175 3.552-5.946 4.076-.387-.214-2.324-2.387.232 1.688-2.808-1.999-1.2z" fill="url(#c)" fill-rule="evenodd" stroke="#000" stroke-linejoin="round" stroke-width="1.25"/>
 <path d="M41.08 31.228c-.823-3.55-7.785-8.754-11.954-7.782-5.222 1.264-7.628 5.349-3.896 8.428-3.302-1.958-11.54-3.642-16.006 3.179-2.772 5.08 5.078 8.26 7.48 7.884C12.107 42.453.786 50.733 5.827 54.95c6.211 4.288 20.439-.348 21.063-3.93-1.386 5.237 14.422 6.242 14.813-1.035-1.128 3.412 10.151 7.043 15.513 5.654 6.72-1.436 5.913-6.286 5.117-7.765 5.17.518 13.263 1.801 16.849-2.853 2.499-4.398 1.013-9.31-2.204-10.856-3.505-1.461-7.335-1.385-11.802 1.09 3.544-2.021 1.358-8.54-2.194-9.971-4.049-1.626-8.913-1.944-13.282-1.153-3.6.505-9.296 3.165-8.62 7.097z" fill="url(#d)" fill-rule="evenodd" stroke="#000" stroke-linejoin="round" stroke-width="1.25"/>
</svg>
