<?xml version="1.0" encoding="UTF-8"?>
<svg width="106.67" height="106.67" xmlns="http://www.w3.org/2000/svg" xmlns:xlink="http://www.w3.org/1999/xlink">
 <defs>
  <linearGradient id="b" x1=".921" x2=".021" y1=".742" y2=".172">
   <stop stop-color="#b1f3f3" offset="0"/>
   <stop stop-color="#fff" offset=".283"/>
   <stop stop-color="#e2ffff" offset=".431"/>
   <stop stop-color="#fff" offset=".695"/>
   <stop stop-color="#bdffff" offset="1"/>
  </linearGradient>
 </defs>
 <path d="M71.5 4.594l-3.031 5.062-1.594-3.531-3.406 1.563 2.687 5.875-4.844 8.124-1.78-4.312 2.03-2.188-2.75-2.562-.874.938-.594-1.438-3.469 1.406.469 1.156-.813-.124-.625 3.718 3.157.5 2.843 6.938-3.093 5.187-.438-1.093-3.5 1.343 1.5 3.844-3.313 5.531-2.468-4.312 2.468-4.188-3.218-1.906-1.407 2.375-2.906-5.063 4.875-8.03 3.938-.22-.219-3.75-1.375.063 1.375-2.25-3.219-1.938-1.5 2.47-.687-1.188-3.25 1.875 1.687 3-3.781 6.25-5.563-9.688L37.438 8 34.03 6.5 32.5 10.031l-2.656-4.594-3.25 1.875 2.937 5.094-3.875-.312-.281 3.719 6.438.53 4.718 8.188L31.906 24l-.937-2.875-3.563 1.156.407 1.25-1.563-.187-.438 3.718 1.25.157-.53.656 2.905 2.344 2-2.5 7.438.875 3 5.218-1.156-.156-.5 3.719 4.031.563 3.406 5.937-5.312-.063-2.375-4.25-3.282 1.813L38 43.75l-5.813-.031-4.468-8.25 1.812-3.532-3.343-1.718-.625 1.218-1.25-2.312L21 30.906l1.406 2.563H21l-.031 3.75 3.468.031 3.47 6.438-11.188-.094-3.875-5.313-3.031 2.188 2.25 3.093-5.282-.03-.031 3.75 5.906.03-2.25 3.188 3.063 2.156 3.719-5.281 9.468.063-2.812 3.718-2.938-.656-.812 3.656 1.25.282-.938 1.25 2.969 2.28.75-1 .313.782 3.53-1.344-1.155-2.968 4.53-5.97 6.032.063-.719.907 2.938 2.343 2.531-3.218 4.875.03-2.875 5.126H39.25v3.75H42l-2.875 5.093-9.406-.093-2.188-3.282-3.125 2.063.75 1.156-2.625-.031-.031 3.75 2.906.031-.687 1.219 3.25 1.844 1.718-3.031 7.344.093-5.5 9.75-6.562.781.468 3.72 3.813-.47-2.594 4.626 3.25 1.843 2.907-5.125 1.656 3.469 3.375-1.625-2.813-5.813 4.625-8.218 1.907 4.25-2 2.25 2.812 2.469.844-.97.656 1.47 3.438-1.532-.5-1.156.812.125.531-3.719L45 70.937l-3.031-6.812 2.968-5.281.47 1.093 3.468-1.437-1.594-3.781 3.032-5.344 2.906 5.031-2.188 3.844 3.25 1.844 1.125-1.938 2.938 5.094-4.469 7.594-3.938.281.25 3.719 1.407-.094-1.375 2.313 3.25 1.874 1.468-2.5.72 1.188 3.218-1.906-1.75-3L60.5 67l5.688 9.844-2.22 5.25 3.47 1.469 1.124-2.657 1.907 3.313 3.25-1.906-2.75-4.782 4.719.344.28-3.75-7.062-.469c-.062-.006-.125 0-.187 0l-4.75-8.187 5.343.562.938 2.875 3.563-1.219-.407-1.218 1.563.156.406-3.719-1.281-.125.531-.687-2.969-2.313-1.969 2.532-8.03-.844-3-5.188 1.687.219.468-3.719-4.53-.593-2.813-4.876 5.562-.124 2.5 4.156 3.219-1.907-1.406-2.374 5.843-.126 4.72 8.126-1.72 3.562 3.376 1.625.593-1.281L77.5 61.28l3.25-1.875-1.469-2.531 1.375-.031-.062-3.75-3.469.062-3.656-6.312 11.156-.25 4.031 5.218 2.969-2.28-2.344-3.063 5.281-.125-.093-3.75-5.844.125 2.125-3.188-3.156-2.062-3.531 5.375-9.5.218 2.718-3.78 2.969.562.688-3.688-1.282-.25.938-1.281-3.063-2.188-.75 1.032-.312-.782L73 34.126l1.25 2.938-4.344 6.124-6.062.157.718-.969-3-2.25-2.468 3.313-6.5.156 3.906-6.532 4.844.094.093-3.75-2.718-.062 3-5 9.375.343L73.188 32l3.187-2-.719-1.156 2.625.093.125-3.75-2.937-.093.719-1.188L73 21.938l-1.781 3-7.313-.282 5.719-9.593 6.563-.626-.344-3.75-3.844.376 2.719-4.532L71.5 4.594z" fill="url(#b)" fill-rule="evenodd" stroke="#000" stroke-linejoin="round" stroke-width="1.25"/>
</svg>
