<?xml version="1.0" encoding="UTF-8"?>
<svg width="106.67" height="106.67" xmlns="http://www.w3.org/2000/svg" xmlns:xlink="http://www.w3.org/1999/xlink">
 <defs>
  <linearGradient id="b" x1=".909" x2="-.476" y1=".633" y2="-.141">
   <stop stop-color="#f3f3f3" offset="0"/>
   <stop stop-color="#fff" offset=".377"/>
   <stop stop-color="#e6ffff" offset="1"/>
  </linearGradient>
 </defs>
 <path d="M47.746 18.501c-1.037-5.107-9.81-12.593-15.065-11.193C26.1 9.125 23.069 15 27.772 19.43c-4.16-2.816-14.543-5.239-20.17 4.572-3.494 7.31 6.399 11.882 9.425 11.341-5.79-.696-20.058 11.214-13.705 17.28 7.827 6.167 25.756-.501 26.543-5.652-1.746 7.532 18.174 8.978 18.667-1.49-1.422 4.908 12.792 10.132 19.55 8.133 8.468-2.066 7.45-9.042 6.448-11.169 6.514.745 16.714 2.591 21.232-4.104 3.15-6.326 1.277-13.393-2.777-15.615-4.417-2.102-9.244-1.993-14.873 1.567 4.467-2.907 1.712-12.282-2.765-14.342-5.102-2.34-11.232-2.796-16.737-1.658-4.536.726-11.716 4.552-10.864 10.208z" fill="url(#b)" fill-rule="evenodd" stroke="#000" stroke-linejoin="round" stroke-width="1.25"/>
 <g fill-rule="evenodd">
  <path d="M20.416 56.457C15.825 61.865.257 69.533 9.347 74.977c11.392 6.44 10.132-10.968 11.069-18.52z" fill="#dff" stroke="#000" stroke-width="1pt"/>
  <path d="M19.519 58.158C18.622 59.86 2.918 69.848 8.103 72.8c4.066 3.013-.526-3.54 11.416-14.64z" fill="#48d3ff" fill-opacity=".5"/>
  <path d="m27.246 74.414c-4.59 5.408-20.158 13.076-11.068 18.52 11.392 6.44 10.131-10.968 11.068-18.52z" fill="#dff" stroke="#000" stroke-width="1pt"/>
  <path d="M26.349 76.115c-.897 1.702-16.6 11.69-11.415 14.641 4.065 3.013-.526-3.54 11.415-14.64z" fill="#48d3ff" fill-opacity=".5"/>
  <path d="m57.871 78.164c-4.59 5.408-20.159 13.076-11.068 18.52 11.392 6.44 10.131-10.968 11.068-18.52z" fill="#dff" stroke="#000" stroke-width="1pt"/>
  <path d="M56.974 79.865c-.897 1.702-16.6 11.69-11.415 14.641 4.065 3.013-.526-3.54 11.415-14.64z" fill="#48d3ff" fill-opacity=".5"/>
  <path transform="matrix(.54202 0 0 .66804 -17.522 26.03)" d="M120.91 38.373S98.133 64.498 96.794 69.856c-1.34 5.36 7.043 6.462 9.165 9.828 2.121 2.893-14.917 18.986-21.558 27.35 10.885-7.268 30.936-22.986 32.096-26.957.923-3.735-8.316-8.88-10.995-10.89-2.917-1.773 11.387-26.125 15.406-30.814z" fill="#fff300" stroke="#000" stroke-linejoin="round" stroke-width="2.077"/>
  <path d="M44.094 58.343c-3.337 5.22-10.27 13.29-8.6 15.821 1.668 2.532 4.364 4.114 4.75 4.43 1.54 2.373-7.575 13.765-8.601 14.872-1.027 1.108 11.167-12.499 11.039-14.397-.128-2.373-6.162-2.057-5.391-5.854.77-3.797 2.439-7.594 6.803-14.872z" fill="#ffff7f"/>
  <path transform="matrix(.54202 0 0 .66804 16.118 21.117)" d="M120.91 38.373S98.133 64.498 96.794 69.856c-1.34 5.36 7.043 6.462 9.165 9.828 2.121 2.893-14.917 18.986-21.558 27.35 10.885-7.268 30.936-22.986 32.096-26.957.923-3.735-8.316-8.88-10.995-10.89-2.917-1.773 11.387-26.125 15.406-30.814z" fill="#fff300" stroke="#000" stroke-linejoin="round" stroke-width="2.077"/>
  <path d="m77.734 53.43c-3.337 5.222-10.269 13.29-8.6 15.822 1.669 2.531 4.364 4.113 4.75 4.43 1.54 2.373-7.574 13.764-8.601 14.872-1.027 1.107 11.168-12.499 11.04-14.397-0.13-2.374-6.162-2.057-5.392-5.854s2.439-7.595 6.803-14.872z" fill="#ffff7f"/>
 </g>
</svg>
