<svg xmlns="http://www.w3.org/2000/svg" xmlns:xlink="http://www.w3.org/1999/xlink" width="106.667" height="106.667"><defs><radialGradient xlink:href="#a" id="b"/><linearGradient id="a"><stop offset="0" stop-color="#fff"/><stop offset="1" stop-color="#fff" stop-opacity="0"/></linearGradient></defs><g fill-rule="evenodd"><path d="M70.686 47.655c0 11.245-9.31 20.372-20.783 20.372-11.472 0-20.783-9.127-20.783-20.372 0-11.246 9.311-20.373 20.783-20.373 11.472 0 20.783 9.127 20.783 20.373zM47.529 16.162c-1.63 3.452 2.325 8.671 5.42 4.753 1.192-3.41.345-7.15.748-10.695.79-3.099-.442-5.587-3.88-5.956-1.99.39-1.724 7.858-2.288 11.898zM25.351 9.628a3.015 3.015 0 00-2.678 1.798 2.911 2.911 0 00.537 3.138s2.45 2.713 10.072 11.203a3.048 3.048 0 002.9 1.058 2.997 2.997 0 002.324-2.004 2.914 2.914 0 00-.701-2.956 5771.227 5771.227 0 01-10.041-11.202 3.043 3.043 0 00-2.413-1.035zM10.606 24.85c-.312 1.095-.746 2.901 1.058 3.596 4.149 2.767 8.959 3.98 14.045 6.04 1.956.767 4.21-1.007 3.993-3.03-.092-1.919-2.154-2.716-3.732-3.254-3.962-1.616-8.02-2.995-12.063-4.403-1.196-.12-2.325.437-3.301 1.052zM6.475 46.865c.13 1.377-.602 2.966.711 3.773 2.744.897 9.268.865 14.202.914 2.39-.185 3.556-3.508 1.713-5.053-1.418-1.321-3.48-.727-5.228-.912-2.05-.045-11.84-.375-11.398 1.278zM25.11 56.834c-.474.011-.94.133-1.357.354-5.704 2.88-8.627 4.323-10.101 5.025-.688.327-1.014.462-1.176.532l-.09.03c-1.418.457-2.281 1.86-2.032 3.301.249 1.442 1.535 2.489 3.026 2.463 0 0 .396-.01.513-.03.116-.02.207-.042.271-.059.13-.034.204-.065.272-.089.134-.047.221-.087.361-.147.28-.12.7-.31 1.478-.68 1.556-.741 4.526-2.193 10.252-5.084 1.284-.608 1.958-2.015 1.616-3.372-.342-1.357-1.608-2.293-3.033-2.244zM33.734 68.036a3.044 3.044 0 00-2.05.887c-5.184 5.082-7.8 7.55-9.047 8.69-.485.445-.601.548-.723.65l-.03.03a2.945 2.945 0 00-1.478 2.572l.12.887.694 1.123 1.176.768 1.025.178c.001 0 .472-.026.634-.06.161-.033.26-.082.362-.118.202-.07.325-.126.422-.177.388-.203.458-.27.603-.384.29-.228.651-.535 1.327-1.153 1.35-1.236 3.959-3.704 9.166-8.809.901-.85 1.174-2.156.685-3.284a3.02 3.02 0 00-2.886-1.8zM51.013 71.76c-.8.032-1.555.373-2.098.95a2.922 2.922 0 00-.797 2.125c.125 5.017-1.024 11.079.53 13.142 1.79.78 2.817.691 2.817.691l2.418-.839c.597-1.95.612-5.071.266-13.142a2.93 2.93 0 00-.937-2.114 3.05 3.05 0 00-2.2-.812zM66.391 69.721a3.027 3.027 0 00-2.688 1.535 2.907 2.907 0 00.125 3.047c3.154 4.809 4.913 7.188 6.03 8.483.56.648.94 1.024 1.448 1.39.255.182.532.375 1.056.532.261.078.597.157.995.147.198-.005.414-.037.633-.088.219-.052.633-.237.633-.237a2.953 2.953 0 001.702-2.594 2.947 2.947 0 00-1.581-2.667c-.023-.024 0-.011-.272-.325-.786-.912-2.497-3.135-5.578-7.834a3.029 3.029 0 00-2.503-1.389zM75.679 58.548c-1.329.149-2.399 1.137-2.629 2.429a2.94 2.94 0 001.633 3.158c3.49 1.765 7.812 5.214 10.705 4.658 2.394-.453 2.6-2.077 2.407-3.701-.398-1.56-1.788-2.346-10.337-6.219a3.068 3.068 0 00-1.78-.325zM91.962 43.562a3.07 3.07 0 00-.965.177c-.19.018-.38.029-1.056.06-1.814.08-5.58.147-13.177.147a3.029 3.029 0 00-2.647 1.466 2.906 2.906 0 000 2.98c.548.92 1.56 1.48 2.647 1.466 7.643 0 11.453-.089 13.449-.178.998-.044 1.544-.062 1.96-.118.208-.028.347-.04.693-.148.173-.054.399-.106.815-.384.104-.07.232-.179.361-.296.13-.117.422-.443.423-.443l.361-.739.181-.975c.017-.8-.298-1.571-.872-2.14a3.047 3.047 0 00-2.173-.875zM90.973 27.978c-3.183 0-3.184-.191-14.6 2.814a2.994 2.994 0 00-2.283 2.038 2.915 2.915 0 00.741 2.937 3.058 3.058 0 002.989.76c5.22-1.248 13.699-2.75 14.003-4.54 1.507-1.532.229-2.673-.85-4.01zM75.992 10.633c-1.791.975-3.973 2.939-9.752 11.262a2.93 2.93 0 00.92 4.094c1.407.881 3.277.478 4.176-.902 2.95-4.524 7.449-9.762 7.828-11.627-.262-1.527-1.717-2.665-3.172-2.827z" fill="#fb0" fill-opacity=".981"/><path d="M58.218 41.782c0 6.607-5.606 11.97-12.514 11.97-6.908 0-12.514-5.363-12.514-11.97 0-6.608 5.606-11.97 12.514-11.97 6.908 0 12.514 5.362 12.514 11.97z" fill="url(#b)"/></g></svg>