<svg width="106.667" height="106.667" xmlns="http://www.w3.org/2000/svg" xmlns:xlink="http://www.w3.org/1999/xlink"><defs><linearGradient id="a"><stop offset="0" stop-color="#f3f3f3"/><stop offset=".377" stop-color="#fff"/><stop offset="1" stop-color="#e6ffff"/></linearGradient><linearGradient xlink:href="#a" id="b" x1=".909" y1=".633" x2="-.476" y2="-.141"/><radialGradient xlink:href="#a"/></defs><path d="M48.996 37.251c-1.037-5.107-9.81-12.593-15.065-11.193-6.58 1.817-9.612 7.693-4.909 12.122-4.16-2.816-14.543-5.239-20.17 4.572-3.494 7.31 6.399 11.882 9.425 11.341-5.79-.696-20.058 11.214-13.705 17.28 7.827 6.167 25.756-.501 26.543-5.652-1.746 7.532 18.174 8.978 18.667-1.49-1.422 4.908 12.792 10.132 19.55 8.133 8.468-2.066 7.45-9.042 6.448-11.169 6.514.745 16.714 2.591 21.232-4.104 3.15-6.326 1.277-13.393-2.777-15.615-4.417-2.102-9.244-1.993-14.873 1.567 4.467-2.907 1.712-12.282-2.765-14.342-5.102-2.34-11.232-2.796-16.737-1.658-4.536.726-11.716 4.552-10.864 10.208z" fill="url(#b)" fill-rule="evenodd" stroke="#000" stroke-width="1.25" stroke-linejoin="round"/></svg>