<?xml version="1.0" encoding="UTF-8"?>
<svg width="400pt" height="400pt" xmlns="http://www.w3.org/2000/svg" xmlns:xlink="http://www.w3.org/1999/xlink">
 <path d="m230.22 154.27s3.955-55.38 12.658-79.905c8.702-24.525 18.196-38.766 56.171-54.589 43.513-2.373 75.158-10.284 98.101 22.943 16.614 39.557 15.823 58.545 5.538 92.564-11.076 26.107-15.032 29.272-40.348 49.841-28.481 10.285-52.215 16.614-52.215 16.614l-79.905-47.468zm80.696 47.468s-19.779 91.773-19.779 92.564 13.449 15.822 43.513 38.765c32.437 22.153 36.393 32.438 87.025 28.482 30.855-18.197 34.019-18.988 53.007-45.887 3.955-31.645 11.076-53.797 1.582-81.487-21.361-19.779-17.405-26.107-71.994-35.601-54.588-9.494-93.354 4.747-93.354 3.164zm-21.361 93.355-89.398 10.284s-7.121 46.678-11.868 75.95c-0.791 28.481-2.374 59.335 7.12 75.949 11.076 13.45 39.557 25.317 59.336 27.69 17.405-1.581 40.348-3.956 65.665-18.987 14.24-18.196 21.361-24.525 25.316-60.918-4.747-36.392-56.962-109.18-56.171-109.97zm-60.126-141.61c-0.791 0-70.412 68.829-70.412 68.829s-37.183-11.867-60.918-30.064c-23.734-18.196-41.139-38.765-47.468-73.575-0.791-26.899 0.791-41.14 10.285-61.71 20.57-17.404 34.018-25.316 56.962-27.689 23.734-3.164 37.184 0 54.589 15.032 17.405 15.031 29.272 34.81 32.436 45.095 3.165 10.284 24.526 66.455 24.526 64.082zm-30.064 152.69-41.139-82.279s-69.62-13.449-91.772-3.164-35.602 33.228-47.469 55.38c-7.12 18.987-15.822 27.69-6.329 62.499 11.867 35.601 13.45 39.557 49.05 49.842 36.393 0.791 60.919-1.582 85.444-17.405 24.526-15.823 52.215-64.082 52.215-64.873z" fill="#000bff" fill-rule="evenodd" stroke="#000" stroke-width="3.75"/>
 <path transform="matrix(1 0 0 1.0402 -28.481 -13.545)" d="m349.68 238.53a82.674 78.718 0 1 0-165.35 0 82.674 78.718 0 1 0 165.35 0h-82.674z" fill="none" stroke="#000" stroke-width="3.677"/>
 <path d="m318.83 234.57a80.3 79.51 0 1 0-160.6 0 80.3 79.51 0 1 0 160.6 0h-80.301z" fill="#f8ff00" fill-rule="evenodd"/>
 <path d="m238.34 131.36c0-39.584 13.195-83.293 37.111-95.664 16.494-12.37 77.522-18.968 94.84-2.474 14.019 39.585-54.429 114.63-131.95 98.138zm89.067 72.574c20.617-9.897 111.33 1.648 130.3 16.493 24.739 20.617 18.143 45.359 14.019 74.223-12.371-54.43-172.36-0.825-144.32-90.716z" fill="#fff" fill-opacity=".5" fill-rule="evenodd"/>
 <path d="m202.05 318.57c-4.123 14.02-19.792 120.4-4.948 132.78 11.547 18.143 60.203 31.338 82.47 27.215 2.473-10.721 15.669-152.57-77.522-159.99zm-58.553-106.38c-20.617-9.072-76.696-42.06-86.592-84.944-7.423-23.091 2.474-66.8 14.02-70.099 18.967-8.247 103.09 21.442 72.572 155.04zm-125.35 127.83c-7.422-24.741-13.195-46.183 23.092-92.366 20.617-44.533 97.313-20.617 105.56-18.968 25.566 51.956-94.84 20.618-128.65 111.33z" fill="#fff" fill-opacity=".498" fill-rule="evenodd"/>
</svg>
