<svg xmlns="http://www.w3.org/2000/svg" xmlns:xlink="http://www.w3.org/1999/xlink" width="320" height="320" version="1.0"><defs><linearGradient xlink:href="#b" id="i" gradientUnits="userSpaceOnUse" gradientTransform="matrix(.85718 0 0 .85718 29.328 .038)" x1="183.732" y1="290.827" x2="235.216" y2="272.975"/><linearGradient id="c"><stop offset="0" stop-color="#fff" stop-opacity=".28"/><stop offset="1" stop-color="#fff" stop-opacity="0"/></linearGradient><linearGradient id="a"><stop offset="0" stop-color="#f51c4c"/><stop offset="1" stop-color="#fa3c66"/></linearGradient><linearGradient xlink:href="#a" id="d" gradientUnits="userSpaceOnUse" gradientTransform="matrix(.85718 0 0 .85718 29.328 .038)" x1="49.601" y1="69.71" x2="78.786" y2="124.496"/><linearGradient xlink:href="#a" id="e" gradientUnits="userSpaceOnUse" gradientTransform="matrix(.85718 0 0 .85718 29.328 .038)" x1="200.268" y1="38.821" x2="213.255" y2="54.826"/><linearGradient xlink:href="#a" id="f" gradientUnits="userSpaceOnUse" gradientTransform="matrix(.85718 0 0 .85718 29.328 .038)" x1="114.496" y1="46.517" x2="150.2" y2="41.593"/><linearGradient xlink:href="#a" id="g" gradientUnits="userSpaceOnUse" gradientTransform="matrix(.85718 0 0 .85718 29.328 .038)" x1="143.859" y1="28.319" x2="161.217" y2="23.236"/><linearGradient xlink:href="#b" id="h" gradientUnits="userSpaceOnUse" gradientTransform="matrix(.85718 0 0 .85718 29.328 .038)" x1="185.287" y1="320.965" x2="217.082" y2="313.676"/><linearGradient id="b"><stop offset="0" stop-color="#1d7c14"/><stop offset="1" stop-color="#61d556"/></linearGradient><linearGradient xlink:href="#b" id="j" gradientUnits="userSpaceOnUse" gradientTransform="matrix(.85718 0 0 .85718 29.328 .038)" x1="82.487" y1="335.221" x2="152.046" y2="273.048"/><linearGradient xlink:href="#b" id="k" gradientUnits="userSpaceOnUse" gradientTransform="matrix(.85718 0 0 .85718 29.328 .038)" x1="228.599" y1="285.876" x2="301.245" y2="269.255"/><linearGradient xlink:href="#a" id="l" gradientUnits="userSpaceOnUse" gradientTransform="matrix(.85718 0 0 .85718 29.328 .038)" x1="125.214" y1="159.439" x2="192.058" y2="125.554"/><linearGradient xlink:href="#a" id="m" gradientUnits="userSpaceOnUse" gradientTransform="matrix(.85718 0 0 .85718 29.328 .038)" x1="204.331" y1="145.163" x2="254.227" y2="95.643"/><linearGradient xlink:href="#a" id="n" gradientUnits="userSpaceOnUse" gradientTransform="matrix(.85718 0 0 .85718 29.328 .038)" x1="87.553" y1="155.616" x2="112.509" y2="153.312"/><linearGradient xlink:href="#a" id="o" gradientUnits="userSpaceOnUse" gradientTransform="matrix(.85718 0 0 .85718 29.328 .038)" x1="62.367" y1="224.16" x2="101.237" y2="175.503"/><radialGradient xlink:href="#c" id="p" cx="110.856" cy="138.448" fx="110.856" fy="138.448" r="95.954" gradientTransform="matrix(.35386 -.3708 .59486 .56769 -10.584 139.509)" gradientUnits="userSpaceOnUse"/></defs><metadata/><path d="M95.783 34.326c-.512 3.557-.864.027 2.12-2.375 2.927 1.473-.442 5.98 1.432 6.92 4.127 3.191 7.158 7.475 10.795 11.156 3.9 3.632 7.483 7.93 8.757 13.229 3.505 14.07 4.042 28.69 3.331 43.116.635 6.613 2.1 13.226 1.34 19.897-.537 9.44-1.671 19.105-5.695 27.767-1.684 3.345-5.063 5.91-8.905 5.9-4.27.014-8.125-2.257-11.671-4.4-6.204-4.025-11.857-8.917-16.796-14.415-3.234-3.708-5.404-8.23-6.518-13.004-2.752-8.52-5.839-16.944-8.009-25.637-1.37-3.495-7.903-8.676-8.36-12.618-1.114-5.102 2.263-7.271 3.2-12.337 1.257-4.964 1.452-10.274 4.051-14.817 2.715-4.784 5.296-9.85 9.562-13.472 3.945-3.969 7.27-4.697 11.443-8.389 2.561-.87 7.794-4.514 9.923-6.521z" fill="url(#d)" transform="translate(-.3 .644)"/><path d="M221.098 18.574c.09 3.259 1.624 4.772.683 1.117l2.046-.578c.969 3.843 1.755 7.638 1.406 11.64-.013 5.696.072 11.452-1.254 17.03-2.14 8.98-4.96 17.79-8.55 26.303-4.272 9.86-9.186 21.262-16.788 28.845-4.896-4.3 1.073-16.688-.295-22.6.215-8.117.48-16.194-.642-24.264-.875-4.274-2.136-8.406-4.323-12.215-2.935-5.741 2.497-6.483 7.144-8.623 5.497-2.527 11.737-4.606 15.936-9.141 1.491-2.263 4.04-3.7 3.883-6.479l.754-1.035z" fill="url(#e)" transform="translate(-.3 .644)"/><path d="M220.798 19.218c.09 3.26-.688 4.44-2.415 7.107-4.365 4.917-12.029 7.995-17.83 10.722-3.554 2.187-7.755 2.212-5.585 6.474 2.268 4.005 3.59 8.34 4.499 12.82 1.072 8.209.854 16.441.583 24.694-.352 5.701-.817 17.594-1.66 20.376 4.922-7.388 10.983-18.22 14.98-27.443 3.544-8.394 6.193-17.138 8.273-26 1.295-5.43 1.199-11.026 1.187-16.57.316-3.81-.408-7.408-1.35-11.062l2.047-.579c.969 3.844 1.755 7.638 1.406 11.64-.013 5.696.072 11.452-1.254 17.03-2.14 8.981-4.96 17.79-8.55 26.303-4.272 9.86-9.187 21.263-16.788 28.846-4.897-4.301 1.073-16.688-.295-22.6.215-8.118.48-16.195-.642-24.265-.876-4.274-2.136-8.405-4.323-12.215-2.936-5.741 2.497-6.482 7.144-8.623 5.497-2.527 11.737-4.606 15.936-9.141 1.49-2.262 4.17-4.606 4.012-7.384l.625-.13z"/><path d="M122.112 21.052c1.65-2.061 5.185-2.002 7.806-2.815 2.409-1.068 4.933-1.71 7.513-2.192 3.19-.346 6.136-1.66 9.055-2.9 2.395-1.085 4.553-2.337 7.068-2.22 1.86 2.681 1.428 6.292 1.43 9.482-.201 4.337-.896 8.64-1.325 12.962-.76 18.104-.102 36.442 3.316 54.273 2.559 14.189 8.657 27.336 11.957 41.345 3.005 12.198-5.283 2.542-9.239-1.809-3.329-3.513-6.289-7.335-9.42-11.02-1.826-2.718-4.627-3.158-7.426-4.253-6.156-1.953-7.062-3.638-7.531-10.437-1.234-17.344-1.448-34.797-5.192-51.847-1.34-6.659-4.187-12.89-5.77-19.47-.673-2.963-1.05-5.981-1.59-8.968l2.078-.496c.525 2.999-.4 1.955-.551.365h-2.179z" fill="url(#f)" transform="translate(-.3 .644)"/><path d="M122.2 21.696c1.65-2.06 4.797-2.001 7.418-2.815 2.409-1.068 4.933-1.71 7.513-2.191 3.19-.347 6.135-1.66 9.055-2.901 2.395-1.084 4.552-2.337 7.068-2.22 1.86 2.681 1.428 6.292 1.43 9.482-.201 4.337-.896 8.64-1.325 12.963-.76 18.104-.102 36.441 3.316 54.273 2.559 14.188 8.657 27.335 11.957 41.344 3.005 12.199-5.283 2.542-9.239-1.809-3.329-3.513-6.29-7.335-9.42-11.02-1.826-2.718-4.628-3.158-7.426-4.253-6.157-1.953-7.062-3.638-7.532-10.437-1.233-17.344-1.447-34.796-5.19-51.847-1.34-6.658-4.188-12.89-5.771-19.469-.673-2.964-1.05-5.982-1.59-8.968l2.078-.497c.525 3 .906 6.024 1.581 8.996 1.556 6.584 4.306 12.855 5.578 19.527 3.76 17.147 3.81 34.68 5.255 52.102.585 6.334.85 6.767 6.503 8.651 3.105 1.104 6.116 1.91 8.104 4.846 3.112 3.678 6.125 7.436 9.386 10.986 3.496 3.888 9.044 13.657 5.745 3.635-3.105-14.081-9.496-27.177-11.887-41.43-3.436-18.004-3.807-36.535-3.502-54.807.412-4.265 2.192-8.517 2.407-12.791.008-2.545-1.065-5.137-1.588-7.633-.206.1-3.492.25-4.905.76-3.119 1.302-6.392 3.208-9.783 3.597-2.432.444-6.995 1.471-9.266 2.468-1.9.582-5.064 3.178-5.215 1.587l-.755-.129z"/><path d="M149.405 18.725c2.555-.516 2.987-1.696 5.325-3.094 3.331-2.192 6.757-4.216 10.093-6.402 2.453-1.78 5.263-5.07 6.722-1.053-.376 3.287-.624 6.585-1.09 9.862-1.794 12.228-4.588 24.295-6.765 36.463-2.592 15.64-3.644 31.551-2.737 47.385.913 5.71-1.367 6.05-6.331 5.536-5.892.014-6.597-2.141-7.233-7.578-.772-7.94-.898-15.955-.708-23.927.634-7.511 1.918-14.942 2.771-22.435.603-5.94 1.133-11.95.576-17.91-.197-3.94-.568-7.86-.846-11.794-.152-1.797-.489-3.566-.817-5.334l2.07-.492c.354 1.855 2.219 2.115-.9 2.693l-.13-1.92z" fill="url(#g)" transform="translate(-.3 .644)"/><path d="M148.2 19.11c2.554-.515 3.891-1.437 6.23-2.834 3.331-2.192 6.757-4.216 10.093-6.403 2.453-1.78 5.263-5.07 6.722-1.053-.376 3.287-.624 6.585-1.09 9.862-1.794 12.229-4.588 24.295-6.765 36.463-2.592 15.641-3.644 31.552-2.737 47.386.913 5.708-1.368 6.05-6.331 5.536-5.892.013-6.597-2.142-7.234-7.579-.771-7.939-.897-15.954-.707-23.927.634-7.511 1.918-14.941 2.771-22.434.603-5.94 1.133-11.95.576-17.911-.197-3.939-.569-7.86-.847-11.793-.151-1.798-.488-3.567-.816-5.335l2.07-.492c.354 1.855-.096 3.844.077 5.728.297 3.94.249 8.131.45 12.078.588 6.107 1.113 11.867.479 17.949-.83 7.451-2.026 14.848-2.682 22.314-.205 7.853-.163 15.754.667 23.571.626 4.801.345 5.587 5.422 5.74 4.427.443 4.478 1.37 4.048-3.337-.663-15.985.375-32.033 2.98-47.817 2.16-12.145 5.644-23.563 7.256-35.794.38-3.206-.01-7.053.261-10.27-1.056 1.039-3.314 1.29-4.56 2.094-3.375 2.18-5.896 3.743-9.254 5.947-2.707 1.599-3.702 3.912-6.82 4.49l-.26-2.179z"/><path d="M170.67 237.865c.726 2.836 1.693 6.216 3.049 8.787 2.345 4.232 3.406 8.626 4.935 13.196 1.78 5.476 3.652 11.132 5.403 16.617 1.607 4.938 1.804 10.068 2.544 15.197.454 4.243 1.093 10.584 1.477 15.16h-.155c-.042 0 1.385.003 1.344 0-.274-.032 5.367 2.073 8.723 2.254 5.097.461 9.895.468 14.906 1.455 4.046-1.505-1.344-10.394-1.73-14.982-1.914-7.635-3.214-15.37-4.275-23.166-.961-5.46-1.875-13.382-2.449-18.89 0 0-32.633-12.69-33.31-14.77l-.463-.858z" fill="url(#h)" transform="translate(-.3 .644)"/><path d="M208.1 208.956c2.726 1.568 3.9 4.864 5.479 7.503 2.616 4.284 5.408 8.45 8.175 12.637 2.57 3.964 4.166 8.354 5.047 12.964.322 4.156 1.773 8.007 3.37 11.81 2.289 4.381-.813 5.753-4.836 5.407-10.193-1.924-20.167-4.837-30.35-6.815-3.576-.379-6.678-2.102-9.9-3.531-4.208-1.255-9.455-2.074-12.903-4.783-3.357-3.448-3.324-10.08-3.81-15.56-.217-5.068-2.167-9.373 3.767-10.377 6.339-1.095 12.34-3.421 18.644-4.78 5.764-1.872 12.562-1.453 17.817-4.707l1.29 1.708-1.79-1.476z" fill="url(#i)" transform="translate(-.3 .644)"/><path d="M207.8 209.6c2.726 1.568 3.9 4.864 5.479 7.503 2.615 4.284 5.407 8.45 8.175 12.637 2.57 3.964 4.166 8.354 5.047 12.964.322 4.156 1.773 8.007 3.37 11.81 2.288 4.381-.813 5.753-4.837 5.408-10.192-1.925-20.166-4.838-30.349-6.816-3.576-.378-6.678-2.102-9.9-3.53-4.208-1.256-9.884-1.218-13.332-3.927-4.429-3.662-3.752-10.723-4.239-16.203-.216-5.068-1.31-9.587 4.625-10.59 6.339-1.095 12.34-3.422 18.644-4.78 5.764-1.873 12.562-1.454 17.817-4.707l1.289 1.707c-5.638 3.28-12.514 3.122-18.687 4.921-6.335 1.4-12.334 3.91-18.734 4.944-4.522.79-2.816 4.329-2.854 8.357.419 4.91-1.131 11.436 2.823 14.742 3.294 2.605 9.508 3.439 13.518 4.664 3.088 1.361 6.476 3.025 9.885 3.45 10.065 2.114 20.394 4.582 30.542 6.3 2.727.19 3.353-.163 1.82-3.158-1.627-3.94-3.146-7.92-3.472-12.216-.84-4.334-1.463-8.892-3.878-12.624-2.76-4.21-5.795-8.378-8.426-12.672-.964-1.603-4.505-5.695-4.326-6.005V209.6zM97.812 32.511c-.512 3.557-10.127 7.806-12.54 9.94-3.998 2.957-7.651 5-11.063 8.717-3.535 3.356-5.446 7.017-7.887 11.164-2.586 4.55-2.49 11.841-3.85 16.774-.821 5.206-4.946 8.962-3.119 14.052 1.505 2.92 7.77 6.729 8.636 10.05 2.337 10.018 6.167 19.604 9.097 29.449 2.763 7.163 8.718 12.42 14.539 17.135 4.797 3.792 9.969 7.689 16.145 8.728 3.647.239 7.148-2.178 8.333-5.616 3.682-8.237 4.571-17.383 5.156-26.285.4-5.217-.13-10.43-1.03-15.565-.805-4.817.114-9.675.018-14.52.148-11.232-.9-22.548-3.896-33.397-1.747-5.247-6.007-8.985-9.799-12.757-3.871-4.798-4.038-14.218-9.467-17.267 1.115-3.834.075 5.463 1.95 6.402 4.127 3.192 7.158 7.476 10.794 11.156 3.9 3.632 7.484 7.93 8.757 13.23 3.505 14.069 4.043 28.688 3.332 43.115.635 6.613 2.1 13.226 1.34 19.897-.537 9.44-1.671 19.106-5.695 27.768-1.684 3.345-5.063 5.909-8.905 5.9-4.27.014-8.126-2.258-11.672-4.401-6.204-4.024-11.856-8.917-16.795-14.414-3.234-3.709-5.405-8.23-6.518-13.005-2.752-8.52-5.84-16.944-8.01-25.637-1.37-3.494-8.16-8.6-8.618-12.541-1.114-5.102 2.522-7.348 3.458-12.414 1.257-4.964 1.453-10.274 4.052-14.817 2.714-4.784 5.296-9.85 9.562-13.472 3.945-3.969 10.506-10.391 16.36-11.236 2.562-.87 4.43-6.973 7.335-6.133z"/><path d="M126.893 223.12l.355-.607c3.538.01 7.076.053 10.614-.001 4.13-.112 8.228-.659 12.352-.881 3.877-.33 7.712.244 11.583.347 4.617.531 2.475 3.837.899 6.738-1.837 3.365-3.527 6.833-5.69 10.003-2.428 3.806-5 7.532-7.681 11.164-3.435 4.558-7.253 8.75-11.05 13-5.378 6.727-11.226 13.096-18.912 17.222-9.872 5.623-20.411 10.037-30.212 15.804-8.625 4.918-16.625 10.698-24.946 16.048-8.054 3.315 8.157-15.117 11.87-15.46 9.219-7.99 18.095-16.612 24.65-26.976 6.59-10.572 12.47-21.542 17.945-32.73 2.264-4.373 4.987-8.856 6.044-13.672h2.179z" fill="url(#j)" transform="translate(-.3 .644)"/><path d="M207.193 208.004l3.749 1.59c-3.393.535-9.255.746-4.384-3.197 4.398-3.446 9.521-6.79 9.72-12.826 1.037-5.115 5.129-3.673 9.128-2.205 2.092 1.857 3.334 4.255 4.336 6.93 3.193 5.84 7.651 10.864 11.514 16.262 3.886 4.737 8.13 9.138 12.448 13.477 3.22 3.621 6.81 6.924 10.128 10.455 3.556 3.536 7.194 6.992 10.585 10.694 3.287 2.885 6.396 6.05 10.28 8.15 4.271 2.459 8.59 4.945 11.91 8.664 2.195 2.548 3.896 5.395 4.133 8.829-.136 5.475-3.164 5.315-6.567 1.446-5.93-4.872-11.729-9.883-17.174-15.297-6.208-5.675-14.091-9.181-20.184-15.032-4.968-4.492-9.887-9.046-14.483-13.923-4.878-5.06-10.099-9.781-15.605-14.15-3.343-2.573-6.576-5.664-10.757-6.741-1.578-.408-5.805-1.495-5.267-2.077 0 0-1.968-.813-3.51-1.05z" fill="url(#k)" transform="translate(-.3 .644)"/><path d="M97.65 33.023c1.023-3.868.16-7.93.818-11.808 2.346-3.405 7.23-.658 10.642-1.144 6.988.784 13.61 3.628 20.691 3.825 7.81 1.328 15.71 2.014 23.639 1.909 10.008.334 20.159-.9 30.045 1.07 5.842 1.78 11.664 4.292 16.372 8.25 3.684 3.503 6.612 7.823 8.841 12.356 1.828 5.55.087 11.45-.04 17.135-1.073 11.266-.787 22.642 1.015 33.821.653 6.92 2.293 13.672 4.678 20.194 2.861 8.785 5.392 17.681 8.96 26.219 2.202 5.088 3.416 10.492 5.028 15.768 2.62 6.242 3.168 13.337 2.185 19.996-1.166 7.524-6.624 13.295-11.833 18.417-5.274 4.185-9.822 9.13-14.406 14.032-4.266 4.796-10.448 7.213-16.719 7.944-9.301 1.313-18.545 3.474-28.003 3.116-7.909.592-16.627 1.764-23.688-2.752-5.957-3.141-8.587-9.526-12.034-14.898-4.955-6.371-11.058-12.136-13.665-20.002-3.162-8.857-4.938-18.161-6.44-27.426-.684-5.788-1.904-11.557-1.253-17.405.414-12.936 1.93-25.96.085-38.849.358-3.988 1.113-7.612 1.36-11.416.422-8.809-.45-17.439-.512-26.272 1.073-8.082.29-16.505-3.263-23.92-1.427-3.601-1.153-7.028-1.443-10.927 3.806-1.64.129 4.137 1.927 6.07 2.435 6.51.763-5.32-1.544-3.303H97.65z" fill="url(#l)" transform="translate(-.3 .644)"/><path d="M97.35 33.667c1.023-3.868.16-7.93.818-11.807 2.345-3.405 7.23-.658 10.642-1.145 6.988.785 13.61 3.628 20.69 3.825 7.811 1.328 15.711 2.015 23.64 1.909 10.008.334 20.159-.9 30.045 1.071 5.841 1.78 11.664 4.291 16.372 8.25 3.684 3.502 6.612 7.823 8.841 12.355 1.828 5.55.086 11.45-.04 17.136-1.074 11.265-.787 22.641 1.015 33.82.653 6.92 2.292 13.672 4.678 20.194 2.86 8.785 5.391 17.681 8.96 26.219 2.202 5.089 3.416 10.493 5.028 15.769 2.62 6.242 3.168 13.337 2.185 19.995-1.166 7.524-6.624 13.296-11.833 18.418-5.274 4.184-9.823 9.13-14.406 14.032-4.267 4.795-10.448 7.212-16.719 7.943-9.301 1.313-18.545 3.474-28.003 3.116-7.91.592-16.627 1.765-23.688-2.752-5.957-3.14-8.587-9.526-12.034-14.898-4.955-6.371-11.059-12.136-13.665-20.001-3.163-8.858-4.938-18.162-6.44-27.427-.685-5.788-1.904-11.556-1.253-17.405.414-12.936 4.13-25.96 2.285-38.848-1.583-3.6-.958-7.483-.712-11.287.423-8.809-.578-17.569-.64-26.402 1.073-8.082.29-16.505-3.263-23.92-1.427-3.601-1.542-6.251-1.831-10.15 2.123 1.078.517 3.36 2.314 5.293 2.436 6.51 4.157 13.191 3.964 20.313.153 5.448.753 10.728.695 16.177-.532 6.432-1.057 12.85-1.344 19.3-.612 3.976-.296 7.74.94 11.548.976 10.054.679 20.181.022 30.244-.11 6.283-1.114 12.603.104 18.832 1.222 11.123 3.23 22.25 6.967 32.82 2.683 8.078 9.185 13.796 14.135 20.426 3.072 5.182 5.744 11.147 11.464 13.937 6.468 3.766 14.106 3.456 21.212 3.059 7.695.102 16.236-.902 23.789-2.325 7.015-.973 15.336-2.382 20.499-7.837 4.947-4.804 9.15-9.592 13.487-14.722 4.124-3.897 8.245-8.163 10.595-13.398 2.62-6.943 2.04-14.8-.163-21.766-2.31-5.462-2.968-11.478-5.48-16.887-4.495-11.103-7.746-22.642-11.498-34.004-2.136-7.354-2.42-15.082-3.473-22.636-1.522-12.505.188-25.062.855-37.545-.222-5.014-2.847-9.178-5.65-13.045-4.281-5.203-11.35-8.636-17.505-10.864-9.12-2.092-18.568-1.07-27.841-1.372-8.636.06-17.297.294-25.807-1.282-6.432-.243-12.548-2.597-18.812-3.829-3.49.18-8.969-2.444-11.664-.472-.61 3.289-.669 9.102-1.034 12.025H97.35z"/><path d="M208.59 208.424c1.765 1.13 5.619.762 7.658 1.29 4.466 1.124 7.865 4.435 11.44 7.156 5.623 4.385 10.836 10.346 15.8 15.457 4.582 4.833 9.51 9.32 14.431 13.8 6.08 5.869 13.713 8.76 19.94 14.412 5.469 5.328 11.149 10.852 17.106 15.628 3.212 2.509 4.532 6.077 4.194 2.08-.241-2.92-1.776-8.635-3.565-10.844-3.161-3.566-8.179-5.259-12.263-7.598-3.986-2.175-7.195-5.422-10.599-8.366-3.406-3.768-7.085-7.264-10.699-10.825-3.318-3.592-6.321-7.542-9.581-11.187-4.353-4.34-9.183-8.18-13.032-12.98-3.956-5.493-8.553-11.85-11.852-17.783-.782-2.267-2.032-3.015-3.475-4.767-2.568-.686-5.535-2.774-6.013.627-.228 6.614-4.623 11.065-9.38 14.9-3.464 2.017-1.977-.616.985-1.064l.957 1.878c-3.393.535-7.444 1.653-2.572-2.29 4.398-3.447 7.71-7.697 7.908-13.732 1.037-5.116 5.128-3.673 9.127-2.206 2.093 1.857 3.335 4.256 4.336 6.93 3.194 5.841 7.652 10.864 11.515 16.262 3.885 4.737 8.13 9.138 12.447 13.477 3.221 3.622 6.811 6.924 10.129 10.455 3.556 3.536 7.194 6.992 10.585 10.694 3.286 2.886 6.396 6.05 10.28 8.151 4.27 2.458 8.59 4.944 11.91 8.663 2.195 2.548 3.896 5.395 4.133 8.83-.136 5.474-1.664 7.029-6.567 1.445-5.93-4.871-11.729-9.882-17.174-15.297-6.208-5.675-14.091-9.181-20.184-15.032-4.968-4.491-9.887-9.046-14.483-13.923-4.878-5.06-10.099-9.78-15.605-14.15-3.343-2.573-6.576-5.664-10.757-6.741-1.578-.408-5.805-1.495-5.267-2.077l-1.812-1.273z"/><path d="M224.26 15.92c3.255-1.078 4.843 2.106 5.81 4.693 2.215 6.032 2.324 12.562 3.391 18.85 1.215 8.257.677 16.777-1.976 24.716-1.83 6.39-4.847 12.385-6.296 18.897-1.92 8.046-4.247 16.784-.892 24.773 3.994 8.832 6.616 18.182 9.034 27.544 1.656 5.476 2.734 11.093 3.542 16.747 1.548 6.482 4.636 12.704 4.304 19.528.284 4.078-1.405 7.91-4.058 10.929-2.672 2.928-4.903 6.18-6.897 9.6-2.632 3.215-3.39 4.017-6.667 6.65-2.623 2.586-9.061 3.57-7.285-1.904.668-4.44-.356-6.185 2.799-9.701 2.493-2.96 5.344-5.646 7.84-8.575 1.712-2.214 2.096-5.552-.201-7.526-6.3-7.617-13.067-15.145-16.776-24.456-3.61-9.268-6.914-18.77-8.422-28.632-.961-6.932-2.164-13.883-2.31-20.887.185-5.335 1.62-10.515 2.624-15.734 3.948-15.272 6.047-30.95 9.966-46.224 1.704-5.809 5.126-10.891 7.923-16.206.917-1.943 1.418-2.839 4.547-3.083z" fill="url(#m)" transform="translate(-.3 .644)"/><path d="M216.599 27.438c-4.39 6.929-5.6 15.194-7.381 23.026-2.152 11.593-4.526 23.632-7.21 35.111-1.11 5.98-2.76 12.571-1.686 18.682 1.112 11.039 2.86 22.524 6.673 33.003 2.793 8.866 7.052 17.703 13.058 24.902 2.993 3.98 4.618 5.57 7.397 9.71 1.645 3.997.004 9.139-3.006 11.688-3.205 3.682-6.346 6.893-6.835 12.125-.052 2.145-2.421 4.193-1.39 5.498 3.922-1.925 5.912.907 8.663-4.69 2.433-3.57 5.364-5.94 7.769-9.526 2.995-3.642 7.352-7.988 7.128-13.111.46-6.415-2.265-13.032-4.013-19.054-1.12-5.128-1.533-10.273-3.072-15.319-2.698-10.045-5.168-20.311-9.495-29.806-2.205-5.014-2.468-10.327-1.659-15.663 1.402-8.928 3.96-16.75 7.433-25.09 2.297-7.014 4.273-15.36 3.696-22.804-.47-6.657-1.645-14.542-2.602-21.142-.946-2.942-4.57-12.77-10.35-5.413-.967 1.777.337-3.275 3.466-3.52 3.255-1.076 5.62 2.626 6.588 5.212 2.214 6.033 2.322 12.562 3.39 18.85 1.215 8.258.677 16.777-1.976 24.716-1.83 6.39-4.848 12.385-6.297 18.897-1.92 8.047-4.246 16.784-.892 24.774 3.995 8.831 6.617 18.181 9.035 27.544 1.656 5.475 2.734 11.092 3.541 16.746 1.548 6.483 4.637 12.705 4.304 19.528.285 4.078-1.404 7.91-4.058 10.93-2.67 2.928-4.902 6.18-6.896 9.6-2.633 3.215-2.226 4.146-5.502 6.779-2.624 2.586-1.684 3.31-11.557 3.66 2.998-4.052 2.751-11.878 5.906-15.395 2.493-2.96 5.344-5.645 7.84-8.574 1.712-2.214 2.095-5.553-.201-7.526-6.3-7.618-13.067-15.146-16.776-24.457-3.611-9.268-6.915-18.769-8.422-28.632-.962-6.932-2.165-13.883-2.311-20.887.186-5.335 1.62-10.514 2.625-15.734 3.948-15.272 6.047-30.95 9.965-46.224 1.704-5.809 5.126-10.89 7.924-16.205.917-1.944-1.132 4.148-2.814 7.79zM126.593 223.764c-1.012 5.19-4.018 9.927-6.437 14.597-5.568 11.198-11.433 22.237-18.068 32.843-6.62 10.569-15.656 19.301-25.044 27.404-3.711 1.893-15.557 16.529-14.029 12.072 8.306-5.26 16.321-10.898 24.859-15.83 9.775-5.817 20.333-10.187 30.189-15.85 7.384-4.083 13.16-10.163 18.313-16.738 3.735-4.281 7.527-8.471 10.992-12.982 2.654-3.59 5.154-7.3 7.544-11.07 2.139-3.114 3.823-6.518 5.611-9.84.7-1.022.967-2.374.882-3.61-3.773-.21-7.38.191-11.16.396-4.185.193-8.46.033-12.65.103-3.55.004-7.099.025-10.649.029l.002-2.13c3.538.008 7.076.053 10.614-.002 4.13-.112 8.357 1.153 12.482.93 3.876-.329 7.97-.79 11.842-.688 4.616.532 2.086 3.061.51 5.962-1.837 3.365-3.528 6.834-5.69 10.003-2.428 3.806-5 7.532-7.681 11.165-3.435 4.557-7.253 8.75-11.05 13-5.378 6.726-11.226 13.095-18.912 17.221-9.872 5.624-20.412 10.037-30.212 15.804-8.626 4.919-16.626 10.698-24.946 16.048-8.054 3.315 8.157-15.117 11.87-15.46 9.218-7.99 18.095-16.612 24.65-26.976 6.59-10.571 12.47-21.541 17.945-32.729 2.263-4.373 4.987-8.856 6.044-13.672h2.179z"/><path d="M101.91 32.106c-1.903 3.167 1.821 3.198 1.095 5.148.37 8.741 1.13 17.497 3.272 26.004 3.782 16.084 8.184 32.014 12.622 47.927 4.867 17.62 7.828 35.686 12.185 53.427 3.932 15.232 3.887 30.544 8.631 45.531.542 4.003.364 7.483-2.106 8.595-4.166.076-8.806-2.932-12.915-3.695-3.838-1.273-5.523-5.265-8.188-7.962-4.217-5.461-8.185-11.118-12.686-16.352-3.486-4.568-4.812-10.377-4.59-16.045.006-13.458.382-26.93-.245-40.381-.699-8.422.341-16.906 1.731-25.206 1.874-8.5 2.36-17.244 2.72-25.919.239-6.54-.324-13.111-2.217-19.398-1.41-4.283-2.024-9.347-5.853-12.274-2.74-2.207-5.4-4.519-7.77-7.1-3.196-3.453-4.513-6.82 1.598-8.626 3.04-1.742 7.418-1.892 10.384-3.736.772.145 1.555.021 2.332.062z" fill="url(#n)" transform="translate(-.3 .644)"/><path d="M101.61 33.268c-2.162.45-8.637.665-11.064 3.367-5.805 1.935-7.138 4.947-2.762 7.556 2.535 2.53 6.69 6.036 9.401 8.352 3.909 4.857 4.327 10.823 6.161 16.568 1.742 8.827.672 18.171.006 27.072-.424 6.743-2.144 13.595-3.23 20.242-.964 7.09.176 13.746.774 20.879.317 12.62-.078 25.249.16 37.872-.336 5.965 1.363 12.124 5.447 16.594 5.263 6.207 9.718 13.042 15.115 19.139 2.185 3.684 6.904 3.402 10.607 3.114 3.149-.354 4.848 7.444 6.298 3.608-.175-2.998.035-12.132-.668-15.044-6.121-19.78-9.311-39.33-13.002-59.726-3.261-16.184-7.556-32.136-12.185-47.975-3.352-12.973-6.644-25.915-9.334-39.043.524-9.28-.256-15.689-3.779-21.778 1.246-2.663 2.711-.446 1.985 1.503 4.382 7.836 2.294 19.827 4.437 28.334 3.782 16.084 8.183 32.014 12.622 47.927 4.867 17.621 7.828 35.686 12.185 53.427 3.931 15.232 6.734 30.026 9.667 45.92-.365 4.909-.154 9.812-3.53 9.371-4.167.076-8.418-4.097-12.528-4.86-3.838-1.272-5.523-5.265-8.187-7.961-4.217-5.462-8.185-11.119-12.686-16.353-3.486-4.568-4.812-10.377-4.59-16.045.006-13.458.381-26.93-.245-40.38-.699-8.422.341-16.906 1.73-25.207 1.875-8.499 2.362-17.244 2.72-25.918.24-6.54-.323-13.112-2.216-19.399-1.41-4.283-2.024-9.346-5.853-12.274-2.74-2.207-9.064-7.535-11.434-10.116-3.197-3.454 4.158-5.585 6.857-6.416 3.04-1.743 5.823-1.086 8.79-2.93.77.145 1.554.539 2.331.58z"/><path d="M58.767 90.601c5.229 4.72 12.359 7.104 16.659 12.877 3.02 3.968 6.034 7.944 9.493 11.55 9.402 9.927 18.38 20.253 26.746 31.07 6.334 7.503 11.051 16.189 15.36 24.96 2.15 5.867 3.524 11.987 5.447 17.932 2.803 8.385 3.119 17.293 4.627 25.935.306 3.625 3.719 5.622 2.36 9.174-2.564 2.273-6.5 1.819-9.15.586-4.926-2.809-9.397-5.396-14.953-6.926-6.568-2.18-12.917-6.129-19.486-8.306-6.579-2.818-12.49-7.21-17.281-12.498-4.918-7.414-5.72-16.57-9.507-24.506-1.856-4.62-3.946-9.145-5.74-13.787-3.117-10.543-8.437-20.317-11.157-30.995-1.874-6.384-2.295-13.062-2.885-19.655.063-3.94 1.808-7.582 4.018-10.747 1.969-2.523 3.382-19.92 3.916-22.786 2.815-1.822 3.917-3.007 5.29-5.057 1.368-1.46.517 7.41.231 8.709.297 4.728-1.737 11.137-6.488 12.885 2.04 3.71-.56-.975-2.934-5.453-1.135-3.848.003-8.315 3.551-10.618 1.357-1.219-.73 13.39 1.883 15.656z" fill="url(#o)" transform="translate(-.3 .644)"/><path d="M63.043 70.48c-2.48 1.526-8.979 8.506-9.153 11.763-.77 3.741 1.964 6.735 4.577 9.002 5.229 4.721 12.359 7.104 16.659 12.877 3.02 3.968 6.033 7.944 9.493 11.55 9.402 9.927 18.38 20.253 26.746 31.07 6.333 7.503 11.051 16.189 15.36 24.96 2.15 5.867 3.524 11.987 5.447 17.932 2.803 8.385 3.119 17.293 4.627 25.935.306 3.626 5.503 6.217 4.143 9.769-2.563 2.273-11.555 1.522-14.204.289-4.926-2.809-6.126-5.1-11.682-6.629-6.568-2.18-12.918-6.723-19.486-8.9-6.58-2.818-12.49-7.211-17.281-12.499-4.919-7.413-5.72-16.57-9.507-24.506-1.856-4.62-3.947-9.144-5.74-13.786-3.117-10.544-8.437-20.318-11.157-30.996-1.874-6.384-2.295-13.062-2.885-19.654.063-3.94 1.808-7.583 4.018-10.748 1.969-2.523 1.17-5.519 1.705-8.385 2.816-1.822 6.712-2.24 6.603-8.936.797-2.378 1.803-4.923 1.517-3.625.686 6.022-1.22 12.704-6.617 14.064-.548 1.251-.887 7.429-2.993 10.446-1.918 3.293-2.456 7.174-1.815 10.9.581 6.478.622 13.535 2.684 19.73 3.074 9.637 8.183 20.239 11.122 29.924 2.626 6.254 5.45 12.439 7.71 18.84 2.032 6.17 3.588 10.774 7.542 16.077 5.698 5.904 12.756 12.09 20.69 14.357 5.258 2.013 8.7 4.691 14.06 6.426 5.764 1.737 11.675 7.062 17.394 6.506 1.626.408 6.498 2.361 4.432-.99-1.922-4.732-2.134-9.722-2.524-14.81-.762-6.476-2.62-12.954-4.653-19.173-1.972-6.07-2.059-12.688-4.603-18.556-4.06-8.081-9.692-15.743-15.512-22.712-8.056-10.573-16.118-21.275-25.385-30.805-3.595-3.714-7.471-7.106-10.517-11.277-2.823-3.892-6.365-7.878-10.362-10.39-4.16-2.692-8.981-4.24-11.356-8.718-1.134-3.848 1.788-13.37 10.688-17.457 1.357-1.218.164.984 1.073-.06l-.858 1.195zM169.761 242.592c.678 2.081 3.343 1.536 4.477 3.753 2.392 4.325 3.276 9.456 4.788 14.14 1.786 5.487 3.682 10.724 5.447 16.217 1.657 5.044 2.274 10.519 3.013 15.762.5 4.622 1.83 10.984 2.232 15.616l-2.304 1.09c-.362-4.614-.612-12.242-1.104-16.845-.74-5.13-1.603-10.273-3.21-15.212-1.751-5.485-3.597-10.94-5.377-16.416-1.53-4.57-3.036-9.17-5.38-13.402-1.356-2.57-2.962-7.653-3.689-10.489l1.107 5.786z"/><path d="M204.572 254.41c.574 5.508 1.062 13.149 2.024 18.61 1.06 7.796 2.34 15.538 4.255 23.174.385 4.587 6.42 14.34 2.16 15.203-5.011-.987-10.222-1.232-15.319-1.694-3.356-.18-9.522-.77-10.09-.89l.565-1.789c.304.074 6.288 1.664 9.703 1.868 5.066.515 10.057.897 15.048 1.866-.213-1.126-2.891-10.629-4.012-14.07-1.971-7.678-3.321-15.456-4.3-23.32-.973-5.587-.872-13.978-1.57-19.6l1.536.642z"/><path d="M168.969 6.906c-1.361.25-2.964 1.9-4.438 2.969-3.255 2.134-6.589 4.118-9.844 6.25-.022-.356-.071-.71-.125-1.063v-.03c-.007-.032-.024-.096-.03-.126-.017-.1-.044-.213-.063-.312a1.163 1.163 0 010-.063c-.02-.098-.04-.183-.063-.281-.006-.022-.024-.072-.031-.094-.023-.097-.036-.185-.063-.281v-.031l-.03-.032v-.03c-.007-.023-.026-.072-.032-.095v-.03-.032l-.031-.031v-.032l-.031-.03a.723.723 0 010-.063v-.032-.03l-.032-.032v-.031l-.031-.032v-.03c-.015-.032-.05-.097-.063-.126v-.031-.031-.032l-.03-.03L154 13v-.031c-.018-.046-.043-.11-.063-.157v-.03l-.03-.032-.032-.031v-.032c-.02-.045-.041-.08-.063-.125v-.03c-.016-.038-.047-.096-.062-.126-.056-.111-.126-.203-.188-.312v-.032l-.03-.03c-.039-.066-.085-.155-.126-.22-.053-.085-.098-.166-.156-.25a7.162 7.162 0 00-.813 0h-.124c-.188.02-.38.066-.563.094h-.031l-.031.031h-.032c-1.865.32-3.597 1.247-5.469 2.094-2.509 1.067-5.032 2.205-7.718 2.719l-.156.031c-.392.072-.79.113-1.188.156-2.58.482-5.09 1.12-7.5 2.188-.205.064-.415.133-.625.187a18.96 18.96 0 01-.531.125l-.125.032c-.089.019-.192.044-.281.062-.073.015-.146.017-.22.031-.197.04-.393.087-.593.125h-.031l-.156.032c-.304.058-.605.125-.907.187-1.723.355-3.364.808-4.344 2.031h.376l.5.063-.22.062c.113.623.21 1.251.313 1.875-.043-.008-.081-.022-.125-.03A86.447 86.447 0 01119.75 23c-.213-.051-.412-.104-.625-.156l-1.281-.313-1.281-.312c-.64-.156-1.296-.322-1.938-.469-.107-.025-.205-.038-.313-.063-.107-.024-.205-.038-.312-.062-.214-.047-.442-.11-.656-.156-.644-.137-1.29-.26-1.938-.375-.108-.02-.204-.044-.312-.063-.108-.018-.205-.013-.313-.031-.216-.035-.439-.093-.656-.125-.054-.008-.102.008-.156 0-.109-.016-.235-.048-.344-.063-.109-.014-.204-.017-.313-.03-.054-.008-.132-.025-.187-.032-.109-.013-.203-.019-.313-.031-.026.004-.066-.004-.093 0-.046.005-.11.026-.156.031-.055.005-.102-.004-.157 0-.044.003-.08.029-.125.031-.03.002-.064 0-.094 0h-.03c-.029.001-.066 0-.094 0h-.313c-.028 0-.066.001-.094 0h-.124c-.02 0-.044-.03-.063-.031h-.157c-.028-.002-.065.002-.093 0h-.094c-.02-.002-.043.002-.063 0h-.03c-.021-.002-.042-.03-.063-.031h-.031c-.03-.003-.064.003-.094 0-.029-.003-.065.003-.094 0h-.031c-.016-.002-.016-.03-.031-.032-.024-.002-.04.003-.063 0-.01 0-.022.002-.031 0-.03-.003-.065.004-.094 0-.03-.003-.064-.027-.094-.03-.04-.006-.084.004-.125 0-.018-.003-.044.002-.062 0-.06-.009-.128-.023-.188-.032-.04-.006-.084-.025-.125-.031-.022-.003-.04.003-.062 0-.051-.008-.105-.024-.156-.032l-.188-.03c-.02-.004-.043.002-.063 0-.173-.028-.325-.066-.5-.095l-.187-.03c-.118-.02-.257-.014-.375-.032-.042-.006-.083-.025-.125-.031-.022-.004-.04.003-.063 0-.051-.008-.104-.024-.156-.032l-.219-.03c-.086-.013-.164-.021-.25-.032l-.25-.031c-.011-.002-.019.001-.03 0-.067-.008-.122-.025-.188-.032-.078-.008-.173-.024-.25-.03-.013-.002-.019 0-.031 0-.02-.002-.043 0-.063 0-.01-.002-.022 0-.031 0-.03-.003-.064.001-.094 0-.018-.002-.044 0-.063 0-.058-.005-.098-.029-.156-.032-.038-.002-.086.002-.125 0-.028-.001-.065 0-.094 0h-.593c-.029.001-.065-.002-.094 0h-.063c-.06.004-.126.026-.187.031-.019.002-.044-.002-.063 0-.02.002-.042-.002-.062 0-.05.006-.075.024-.125.031-.01.002-.021-.001-.031 0-.019.003-.044-.002-.063 0-.06.01-.129.02-.187.032-.04.007-.086.022-.125.031-.02.004-.043-.004-.063 0-.037.008-.088.022-.125.031-.011.003-.02.028-.031.031-.01.003-.02-.002-.031 0-.029.008-.066.023-.094.032-.078.023-.142.035-.219.062-.037.014-.088.017-.125.031-.06.024-.128.067-.187.094l-.063.031c-.049.024-.108.037-.156.063-.009.005.009.027 0 .031-.066.036-.123.054-.188.094-.01.006-.02.025-.03.031-.038.024-.089.037-.126.063-.01.007-.021.024-.031.031-.034.024-.06.037-.094.062-.016.013-.015.02-.031.032-.011.008-.02.022-.031.031-.008.006-.024.025-.031.031-.011.01-.02.022-.032.031-.016.014-.047.018-.062.032-.009.007-.023.024-.031.031-.012.01-.051.02-.063.031-.085.078-.17.161-.25.25-.007.008.007.023 0 .031l-.031.032-.031.031c-.094.11-.195.249-.282.375-.015.09-.017.159-.031.25-.01.062-.023.126-.031.187-.003.023.003.04 0 .063-.002.01.001.021 0 .031-.006.045-.026.08-.031.125-.003.02.002.043 0 .063-.005.037-.027.087-.032.125-.002.02.002.042 0 .062-.004.034.004.06 0 .094-.003.03.003.063 0 .094-.002.023-.029.039-.031.062-.003.035.003.059 0 .094-.003.028.003.066 0 .094-.003.03.003.063 0 .093-.006.069-.026.12-.031.188v.031c-.009.112-.025.232-.031.344-.004.056.003.1 0 .156v.031c-.006.103-.027.21-.032.313v.062c-.001.034.001.06 0 .094 0 .031.001.063 0 .094 0 .028.001.066 0 .094v.062c0 .034.001.06 0 .094 0 .03.001.063 0 .094-.007.309-.03.627-.031.937v.375c0 .925.017 1.857 0 2.781v.219.156c-.002.057.002.1 0 .157v.031c-.005.16-.023.34-.031.5v.062c-.002.034.002.06 0 .094-.002.031.002.063 0 .094-.015.239-.04.48-.063.719v.031c-.015.168-.042.333-.062.5v.031c-.02.157-.04.313-.063.469l-.031.187c-.003.02-.028.043-.031.063-.013-.05-.017-.095-.031-.125l-.032-.031-.031-.032h-.031l-.031.032a.863.863 0 00-.126.218c-1.025-.025-1.92.789-2.78 1.844-1.324.262-2.643.548-4.032 1.344-2.626.809-9.653 2.836-7.094 6.125l.031.031c-3.099 2.099-6.026 4.863-8.312 7.125-.015.015-.047.016-.063.031-.075.068-.143.15-.218.22l-.031.03c-.05.046-.076.11-.126.157-.028.028-.065.034-.093.062-.066.063-.121.123-.188.188l-.062.062-.125.125-.094.094c-4.266 3.622-6.848 8.684-9.563 13.469-.035.062-.059.125-.093.187-.012.02-.02.042-.031.063-.007.012-.025.019-.032.031-.005.01.006.021 0 .031-.013.024-.05.039-.062.063-.004.008.004.023 0 .031l-.031.062c-.008.014-.025.019-.032.032-.01.019-.02.043-.031.062l-.031.063c-.005.01.005.022 0 .031l-.031.062-.032.063c-.006.013-.024.018-.031.031-.068.136-.123.27-.188.406l-.03.063c-.006.012-.026.019-.032.031-.005.01.005.021 0 .031-.01.023-.021.04-.031.063-.01.022-.022.04-.032.062-.005.013-.025.02-.03.032-.008.016.007.046 0 .062-.01.023-.022.04-.032.063-.006.013-.025.017-.031.031-.004.01.004.022 0 .031-.011.025-.02.038-.032.063-.006.016-.024.046-.03.062-.008.018-.024.045-.032.063-.004.01.004.021 0 .031-.01.025-.02.038-.031.062-.058.14-.102.267-.157.407-.004.01-.027.02-.03.031-.008.02.007.043 0 .062-.01.023-.023.04-.032.063-.005.013-.026.019-.031.031-.007.017.006.046 0 .063-.007.017-.025.045-.032.062-.005.014-.026.018-.03.031-.008.02.007.043 0 .063-.006.014-.027.017-.032.031-.007.02.007.043 0 .063-.02.055-.043.101-.063.156-.003.01.004.021 0 .031-.01.029-.052.065-.062.094l-.031.094c-.013.036-.02.089-.032.125l-.03.093c-.013.037-.02.09-.032.125-.008.024-.024.04-.031.063-.017.05-.047.106-.063.156-.003.01.003.022 0 .031-.02.062-.043.126-.062.188-.065.208-.128.415-.188.625-.003.01.003.022 0 .031-.002.01.003.022 0 .031-.018.064-.045.124-.062.188-.015.054-.017.102-.032.156-.006.023-.025.04-.03.063l-.032.125c-.008.032-.023.061-.031.093l-.032.125c-.008.033-.023.062-.03.094-.028.105-.037.207-.063.313l-.032.125c-.005.022.006.04 0 .062-.013.057-.049.13-.062.188-.002.009.002.022 0 .031v.031c0 .003-.03-.003-.031 0-8.42 4.234-11.202 13.398-10.094 17.156.668 1.26 1.546 2.27 2.531 3.157-.17 1.195-.145 2.41-.218 3.593-.017.079-.016.174-.032.25-.362 1.728-.77 3.083-1.187 3.813-.01.014-.021.048-.032.062-.011.02-.05.044-.062.063-.007.01.007.022 0 .031-.007.011-.024.021-.031.031-.007.01-.024.022-.032.032-.005.008.006.023 0 .031-.008.011-.022.02-.03.031-2.21 3.165-3.97 6.81-4.032 10.75.59 6.593 1 13.273 2.875 19.656 2.72 10.678 8.04 20.457 11.156 31 1.795 4.643 3.894 9.16 5.75 13.782 3.787 7.935 4.582 17.086 9.5 24.5 4.791 5.287 10.702 9.682 17.281 12.5.206.068.42.146.626.219.102.036.21.056.312.093.154.056.284.13.438.188.153.058.315.096.468.156.255.1.496.206.75.313 5.655 2.362 11.211 6.047 16.906 7.937 5.557 1.53 6.762 3.817 11.688 6.625 2.65 1.233 11.624 1.992 14.188-.281.115-.302.19-.586.218-.875.059.015.13.016.188.031l.125.031c.009.003.022-.002.031 0 .04.01.084.022.125.031.02.005.043-.004.063 0 .03.008.062.024.093.032.03.007.064.024.094.031.172.04.327.089.5.125.01.002.02-.002.031 0 .041.008.084.023.125.031.02.004.043-.004.063 0 .03.006.062.025.094.031.03.006.063-.005.093 0 .123.024.252.041.375.063.051.01.106.023.156.031.01.002.022-.001.032 0 .04.007.084.025.125.031.02.004.042-.003.062 0 .13.022.246.044.375.063.051.008.105.024.156.031.01.002.022-.001.032 0 .041.006.083.026.125.031.02.003.042-.002.062 0 .186.026.376.041.563.063.051.006.104.026.156.031h.031c.042.005.084-.004.125 0 .021.002.042-.002.063 0 .032.004.062.028.094.031.03.004.063-.002.093 0 .02.003.042-.001.063 0 .103.01.209.023.312.032.104.009.209.023.313.031.02.002.042-.002.062 0 .126.01.25.023.375.031h.031c.105.007.209.026.313.031h.031c.042.003.083-.002.125 0 .021.002.042 0 .063 0 .031.002.062-.001.094 0 .031.002.062 0 .093 0 .127.006.248.027.375.032.064.002.156-.002.219 0 .031 0 .062-.001.094 0 .031 0 .062-.001.094 0h.062c.739.017 1.476.015 2.219 0 .064-.002.123.001.187 0 .095-.003.187.002.281 0 .032-.001.062 0 .094 0 .138-.004.27-.026.406-.031.064-.003.124.002.188 0 .063-.003.124.002.188 0h.062c.316-.014.622-.046.938-.063.208-.011.416-.019.625-.031.21-.013.446-.017.656-.031l.406-.032c.126-.009.249-.022.375-.031.38-.028.746-.064 1.125-.094.302-.023.605-.038.906-.062.081-.007.17-.025.25-.031.507-.041 1-.086 1.5-.125.031-.003.063.002.094 0 .205-.016.421-.016.625-.032.074.003.176-.002.25 0 .063.002.124-.002.188 0h.03c.212.006.415.028.626.031h.031c.065.002.154 0 .219 0 .59.009 1.161.01 1.75 0 .294-.004.58-.022.875-.03h.031c.063-.003.125.001.188 0h.03c.21-.008.447-.023.657-.032.073-.003.145.003.219 0 .147-.007.29-.023.437-.031.147-.008.291-.023.438-.031.073-.005.145.004.219 0l.437-.032.438-.031.437-.031c.073-.006.146-.025.219-.031.146-.013.29-.019.437-.032.147-.013.291-.017.438-.031.073-.007.145-.024.219-.031.146-.014.29-.017.437-.031.073-.008.146-.024.219-.032.22-.022.437-.038.656-.062.146-.016.291-.046.438-.063.292-.033.583-.058.875-.094.145-.017.291-.044.437-.062.438-.055.875-.097 1.313-.156.873-.119 1.752-.243 2.625-.375.436-.067.876-.15 1.312-.219.29-.046.585-.079.875-.125.436-.07.876-.148 1.313-.219l1.718-.281c1.161-.19 2.339-.378 3.5-.563.29-.046.585-.11.875-.156.871-.135 1.753-.252 2.625-.375.147-.017.29-.043.438-.062.098-.013.183-.018.281-.031.196-.027.398-.064.594-.094.088-.014.193-.017.281-.031.156-.026.313-.066.469-.094.136-.025.27-.037.406-.063a32.556 32.556 0 001.625-.344c.088-.02.162-.071.25-.093.152-.039.318-.053.469-.094.087-.023.163-.07.25-.094.047-.013.109-.017.156-.031.095-.027.187-.066.281-.094.056-.016.101-.014.156-.031.095-.028.188-.064.282-.094.385-.12.746-.239 1.125-.375.084-.03.165-.062.25-.094.046-.017.11-.045.156-.062.092-.035.19-.058.281-.094.046-.018.08-.044.125-.062.092-.036.19-.057.281-.094.192-.078.374-.168.563-.25.127-.055.248-.1.375-.156.186-.084.379-.162.563-.25.17-.082.331-.196.5-.281.13-.067.276-.119.406-.188s.246-.148.375-.219c.05-.027.107-.034.156-.062.079-.044.14-.111.219-.156.049-.029.107-.034.156-.063.078-.046.142-.11.219-.156.006-.004.024.004.031 0 .077-.047.142-.109.219-.156.006-.005.024.004.031 0 .077-.048.143-.108.219-.157.006-.004.024.004.031 0 .076-.048.143-.107.219-.156.123-.08.253-.167.375-.25.08-.055.17-.1.25-.156.086-.061.164-.125.25-.188.119-.086.226-.161.344-.25.47-.355.932-.73 1.375-1.125.078-.07.14-.147.218-.219.073-.066.147-.119.219-.187.036-.034.058-.06.094-.094.071-.068.148-.149.219-.219.106-.104.208-.205.312-.312.07-.071.15-.146.219-.219.029-.03.065-.063.094-.094.004-.004-.005-.026 0-.03.034-.037.06-.058.093-.095.072-.078.148-.139.219-.218.281-.301.563-.606.844-.906.005-.006-.005-.026 0-.032.286-.306.588-.6.875-.906.43-.46.85-.917 1.281-1.375.139-.147.298-.29.438-.438.005-.005-.006-.025 0-.03.144-.153.293-.286.437-.438.434-.456.875-.923 1.313-1.375.14-.146.265-.293.406-.438.151-.155.316-.314.469-.469.43-.437.876-.88 1.312-1.312.303-.3.6-.61.906-.906.07-.068.149-.12.219-.188.371-.358.748-.74 1.125-1.094.208-.194.416-.4.625-.593.006-.005.026.005.031 0 8.37-.372 7.634-1.138 10.125-3.594 3.124-2.51 2.905-3.476 5.156-6.344.077-.093.17-.183.25-.281l.125-.156c.063-.107.125-.206.188-.313.377-.639.761-1.28 1.156-1.906.066-.104.121-.209.188-.313a58.505 58.505 0 012.312-3.343c.037-.05.057-.107.094-.156.221-.297.46-.584.688-.875.037-.049.055-.108.093-.157.153-.193.313-.37.469-.562.039-.048.086-.109.125-.156a44.58 44.58 0 011.313-1.532c.04-.046.083-.11.125-.156.03-.034.062-.063.093-.094l.031-.031c.083-.094.17-.185.25-.281.041-.048.085-.108.125-.156.12-.146.229-.29.344-.438.039-.05.087-.106.125-.156.114-.15.235-.285.344-.438.036-.05.058-.105.094-.156.036-.051.058-.105.094-.156.035-.052.09-.105.125-.156.034-.052.06-.104.093-.157.034-.052.06-.103.094-.156l.156-.25a.477.477 0 01.031-.031.472.472 0 00.032-.031c.048-.08.078-.17.125-.25.031-.054.063-.103.094-.157.046-.08.11-.168.156-.25.011-.02.024-.043.031-.062.008-.026.017-.067.031-.094.041-.077.114-.172.156-.25.01-.023.023-.071.032-.094l.125-.25c.027-.056.036-.1.062-.156.04-.084.087-.165.125-.25.009-.023.023-.071.031-.094.038-.085.09-.164.125-.25.024-.057.04-.13.063-.187.035-.086.06-.164.094-.25.022-.058.072-.13.094-.188.032-.087.063-.162.093-.25v-.031c.005-.031.027-.093.031-.125v-.031c.03-.088.067-.162.094-.25.01-.03.023-.064.031-.094.037-.118.061-.225.094-.344.008-.03.023-.064.031-.094.033-.119.065-.254.094-.375.007-.023.025-.07.031-.093.022-.09.044-.16.063-.25a.88.88 0 000-.031v-.032a.88.88 0 010-.031c.022-.106.07-.235.094-.344.001-.007-.002-.023 0-.031l.031-.188c.015-.091.018-.188.031-.28.007-.047.024-.11.031-.157.002-.008 0-.024 0-.031.012-.093.022-.189.032-.281a1.713 1.713 0 000-.094c.009-.093.024-.157.031-.25a2.325 2.325 0 000-.094c.007-.094.027-.187.031-.281v-.031-.063c.007-.157 0-.342 0-.5v-.094c0-.22-.019-.433-.031-.656v-.031a.898.898 0 000-.063v-.031a.794.794 0 000-.063c.036-.746.039-1.485 0-2.218-.02-.367-.058-.73-.094-1.094-.272-2.753-.999-5.437-1.812-8.094-.03-.1-.063-.18-.094-.281l-.094-.313c-.156-.5-.31-1-.469-1.5-.474-1.5-.931-2.989-1.343-4.5-.028-.1-.067-.211-.094-.312a48.266 48.266 0 01-.313-1.219 144.892 144.892 0 00-1.125-6.875c-.016-.087-.045-.162-.062-.25-.17-.875-.34-1.753-.531-2.625-.02-.087-.043-.163-.063-.25-.174-.784-.37-1.564-.562-2.344-.022-.086-.041-.194-.063-.28a89.13 89.13 0 00-.687-2.563c-.024-.086-.038-.196-.063-.281a83.63 83.63 0 00-.375-1.282 371.197 371.197 0 00-2.125-7.875c-.04-.145-.083-.292-.125-.437-.495-1.746-.99-3.488-1.531-5.219-.045-.144-.11-.293-.156-.438a146.35 146.35 0 00-1.875-5.593c-.052-.142-.105-.265-.156-.406-.26-.71-.51-1.42-.782-2.126-.109-.281-.232-.562-.344-.843-.333-.844-.676-1.696-1.03-2.531-.03-.07-.065-.118-.095-.188-.148-.348-.284-.716-.437-1.063-.03-.069-.063-.118-.094-.187-.092-.208-.187-.418-.281-.625-.009-.023-.023-.07-.031-.094-.04-.093-.088-.187-.125-.281-.025-.063-.039-.125-.063-.188-.096-.25-.195-.497-.281-.75l-.063-.187c-.02-.063-.042-.124-.062-.188-.04-.126-.087-.28-.125-.406-.019-.063-.044-.124-.063-.187-.004-.016.003-.047 0-.063-.001-.015-.029-.047-.03-.062-.003-.016.004-.047 0-.063-.107-.38-.229-.741-.313-1.125-.014-.064-.018-.155-.031-.219-.054-.255-.112-.493-.157-.75l-.031-.187a25.033 25.033 0 01-.25-2.156c-.005-.065.005-.123 0-.188-.001-.016.003-.047 0-.062-.003-.016-.028-.047-.031-.063-.003-.015 0-.046 0-.062-.004-.065.003-.123 0-.188-.004-.065.003-.122 0-.187-.006-.13-.027-.276-.031-.406-.003-.066.001-.123 0-.188-.002-.065 0-.122 0-.188-.018-.846-.02-1.712.03-2.562.002-.016-.002-.047 0-.063.004-.015.029-.047.032-.062.003-.016-.001-.046 0-.063.034-.523.07-1.038.125-1.562.007-.065.024-.153.031-.219.03-.262.06-.52.094-.781.008-.065.023-.122.031-.188.061-.458.115-.917.188-1.375l.031-.187c.214-1.307.468-2.613.75-3.906.056-.259.13-.524.188-.782a370.06 370.06 0 011.062-4.593v-.032c.005-.013.025-.049.031-.062.003-.007.029-.025.031-.031.002-.003 0-.028 0-.032.012-.05.02-.105.032-.156a48.9 48.9 0 01.875-3.312c.03-.1.063-.182.094-.282a95.045 95.045 0 011.625-4.718c.036-.098.088-.184.125-.282.976-2.627 1.976-5.242 2.843-7.906.002-.006-.002-.025 0-.031.003-.006.029-.025.031-.031.022-.047.042-.11.063-.157.003-.005.029-.025.031-.03.002-.007-.002-.026 0-.032.19-.593.36-1.213.531-1.813.228-.682.429-1.372.625-2.062.018-.063.045-.125.063-.188.018-.062.045-.124.063-.187.004-.016-.003-.047 0-.063.001-.015.029-.046.03-.062.003-.016-.004-.047 0-.063.275-1.006.54-2.01.75-3.03.014-.065.02-.124.032-.188.013-.064.019-.124.031-.188.026-.128.038-.278.063-.406.17-.896.315-1.784.437-2.688.035-.258.094-.522.125-.78.101-.84.158-1.688.219-2.532.01-.13.023-.245.031-.375.046-.715.076-1.44.094-2.156.003-.13.029-.245.031-.375.01-.586.008-1.164 0-1.75V47.5a56.84 56.84 0 00-.344-5.25c-.007-.065-.023-.154-.03-.219-.03-.259-.062-.491-.095-.75l-.03-.219c-.043-.323-.078-.646-.126-.968a65.93 65.93 0 01-.187-1.157c-.015-.098-.017-.213-.031-.312-.22-1.481-.414-2.977-.594-4.469-.024-.199-.039-.395-.063-.594-.084-.696-.19-1.398-.281-2.093-.013-.1-.018-.182-.031-.282a89.835 89.835 0 00-.344-2.375c-.016-.098-.015-.213-.031-.312a49.107 49.107 0 00-.75-3.656c-.024-.097-.038-.185-.063-.282a36.11 36.11 0 00-.312-1.156c-.002-.006.001-.025 0-.031-.005-.026-.026-.067-.031-.094-.002-.006.001-.025 0-.031-.028-.096-.065-.186-.094-.281-.002-.006.002-.025 0-.032-.011-.026-.052-.067-.063-.093-.002-.007.002-.026 0-.032-.002-.005.002-.025 0-.03-.017-.072-.044-.149-.062-.22-.002-.005.002-.025 0-.03-.002-.007.002-.027 0-.032-.003-.005-.029-.026-.031-.031-.003-.005-.029-.026-.032-.032-.002-.005.002-.025 0-.03-.03-.096-.062-.218-.094-.313-.031-.095-.06-.187-.093-.282-.05-.142-.105-.264-.156-.406v-.031c-.005-.026-.027-.067-.032-.094v-.031c-.056-.15-.122-.313-.187-.469-.004-.002-.029-.028-.031-.031v-.031-.032l-.032-.062c-.004-.008-.025-.024-.031-.031-.009-.011-.024-.05-.031-.063V20.5c-.002-.004.001-.027 0-.031-.004-.012-.027-.051-.031-.063-.004-.002-.029-.028-.032-.031v-.031c-.003-.012-.027-.051-.031-.063l-.031-.031c-.002-.004.001-.027 0-.031-.003-.012-.027-.051-.031-.063-.564-1.288-1.302-2.554-2.344-3.25l-.031-.031c-.03-.021-.096-.073-.125-.094h-.032c-.022-.014-.07-.048-.094-.062-.726-.544-1.561-.906-2.468-.875-.334.01-.675.07-1.031.187-1.936.151-3.161 2.174-3.594 3.25l-.031.031v.032c-.004.002-.029.028-.032.031-.004.009-.027.024-.031.031v.063l-.031.062v.031c-.014.024-.049.07-.063.094-1.486 2.824-3.137 5.57-4.625 8.406l-.031.032c-.082.071-.167.148-.25.218-.03.024-.095.071-.125.094-.183.154-.343.321-.531.469-.038.03-.087.064-.125.094-1.06.82-2.198 1.522-3.375 2.187a.6.6 0 00-.031.031l-.032.032-.062.031c-1.434.802-2.928 1.511-4.438 2.187h-.031c-.069.026-.15.069-.219.094h-.031c-1.778.791-3.564 1.554-5.281 2.344-.128.059-.246.13-.375.187-.042-.04-.083-.084-.125-.125-.057-.055-.099-.101-.156-.156-.11-.093-.233-.19-.344-.281-.106-.086-.206-.196-.313-.281-.007-.006-.023.006-.031 0-.013-.01-.019-.022-.031-.032-.02-.014-.044-.016-.063-.03-.044-.035-.08-.091-.125-.126-.113-.088-.229-.163-.344-.25-.038-.029-.055-.033-.093-.062l-.25-.188c-.033-.024-.061-.07-.094-.094-.008-.005-.024.006-.031 0-.013-.009-.019-.021-.031-.03-.02-.015-.044-.018-.063-.032l-.125-.094a40.166 40.166 0 00-.219-.156c-.01-.008-.02-.024-.031-.031-.078-.056-.14-.102-.219-.157-.04-.027-.085-.066-.125-.093-.031-.022-.062-.041-.094-.063-.006-.004-.024.005-.03 0-.04-.027-.055-.067-.095-.094-.04-.026-.085-.035-.125-.062-.04-.027-.085-.067-.125-.094-.08-.053-.17-.104-.25-.156-.04-.026-.084-.068-.125-.094-.032-.02-.061-.041-.093-.062-.008-.005-.023.005-.031 0-.014-.009-.018-.023-.032-.032-.02-.012-.042-.018-.062-.03-.047-.03-.078-.065-.125-.095a39.168 39.168 0 00-.25-.156c-.041-.025-.084-.037-.125-.062-.082-.05-.168-.107-.25-.157-.082-.05-.168-.107-.25-.156-.042-.024-.084-.038-.125-.062-.083-.05-.167-.108-.25-.157-.042-.024-.084-.038-.125-.062-.125-.072-.25-.148-.375-.219-.042-.023-.083-.039-.125-.062-.126-.07-.248-.15-.375-.219-.085-.046-.165-.08-.25-.125-.17-.09-.33-.193-.5-.281-.086-.044-.196-.082-.281-.125a46.487 46.487 0 00-.75-.375c-.012-.006-.02-.026-.032-.032-.173-.084-.325-.136-.5-.218-.079-.037-.17-.088-.25-.125-.008-.004-.023.003-.031 0-.175-.081-.324-.171-.5-.25-.264-.119-.547-.23-.813-.344-.177-.076-.353-.145-.53-.219-.082-.033-.17-.092-.25-.125-.01-.003-.023.004-.032 0-.09-.036-.16-.057-.25-.094-.179-.072-.352-.148-.531-.218-.15-.059-.319-.13-.469-.188-.021-.008-.041-.023-.063-.031-.009-.003-.022.003-.03 0l-.25-.094c-.193-.072-.37-.148-.563-.219-.272-.098-.54-.186-.813-.28-.181-.064-.35-.127-.531-.188-.17-.058-.361-.1-.531-.157-.012-.004-.02-.027-.031-.03-.183-.06-.35-.098-.532-.157-.09-.03-.19-.065-.281-.094-.082-.026-.168-.068-.25-.094-.01-.003-.022.004-.031 0-.014-.004-.018-.026-.031-.03-.17-.053-.332-.074-.5-.126l-.47-.094c-.154-.029-.313-.066-.468-.093-.077-.014-.141-.018-.219-.032-.232-.04-.455-.087-.687-.125-.078-.012-.173-.019-.25-.03-.078-.013-.141-.02-.219-.032-.078-.012-.172-.02-.25-.031a54.961 54.961 0 00-1.156-.157c-.068-.008-.15-.022-.219-.03-.01-.002-.022 0-.031 0-.078-.01-.141-.023-.219-.032-.078-.01-.14-.022-.219-.031l-.25-.032c-.233-.025-.454-.04-.687-.062-.078-.008-.172-.024-.25-.031-.156-.015-.313-.018-.469-.032-.078-.006-.14-.024-.219-.03-.156-.014-.312-.02-.469-.032-.156-.012-.312-.02-.468-.031-.078-.006-.172-.026-.25-.032-.234-.015-.453-.017-.688-.03-.156-.01-.312-.024-.469-.032-.078-.004-.171.004-.25 0-.078-.004-.14-.028-.218-.031-.157-.007-.313.006-.469 0-.078-.004-.172-.028-.25-.032-.235-.008-.453.008-.688 0-.078-.002-.171-.028-.25-.03-.313-.01-.624.005-.937 0-.157-.004-.312-.03-.469-.032-.627-.01-1.247.001-1.875 0h-.25c.453-2.556.873-5.12 1.25-7.688.073-.512.124-1.018.188-1.53.038-.309.09-.63.125-.938.165-1.438.293-2.873.437-4.313l.125-1.25c.064-.617.148-1.227.219-1.844-.068-.188-.145-.342-.219-.5-.024-.052-.037-.107-.062-.156-.038-.073-.086-.152-.125-.219a2.376 2.376 0 00-.031-.062c-.012-.01-.052-.052-.063-.063a1.455 1.455 0 01-.031-.062v-.031l-.031-.032a2.565 2.565 0 00-.125-.156l-.032-.031h-.031a3.274 3.274 0 00-.281-.281l-.031-.032-.032-.03h-.031L170 7.061l-.063-.03a1.439 1.439 0 00-.062 0L169.844 7a2.161 2.161 0 00-.063-.031h-.031a.807.807 0 00-.063 0l-.062-.032a1.573 1.573 0 00-.5-.03 1.514 1.514 0 01-.094 0c-.021.002-.04-.005-.062 0z" fill="url(#p)"/></svg>