<?xml version="1.0" encoding="UTF-8"?>
<svg width="360" height="360" version="1.0" xmlns="http://www.w3.org/2000/svg" xmlns:xlink="http://www.w3.org/1999/xlink">
 <defs>
  <linearGradient id="p" x1="205.41" x2="232.55" y1="216.13" y2="196" gradientTransform="scale(.9888 1.0113)" gradientUnits="userSpaceOnUse" xlink:href="#c"/>
  <linearGradient id="c">
   <stop stop-color="#fff" stop-opacity=".502" offset="0"/>
   <stop stop-color="#fff" stop-opacity="0" offset="1"/>
  </linearGradient>
  <linearGradient id="A" x1=".157" x2=".329" y1="-.108" y2=".862">
   <stop stop-color="#fff" offset="0"/>
   <stop stop-color="#fff" stop-opacity=".498" offset=".01"/>
   <stop stop-color="#fff" stop-opacity="0" offset="1"/>
  </linearGradient>
  <linearGradient id="x" x1="115.15" x2="186.5" y1="25.188" y2="70.25" gradientTransform="scale(.8605 1.1621)" gradientUnits="userSpaceOnUse" xlink:href="#c"/>
  <linearGradient id="v" x1="53.37" x2="114.88" y1="135.99" y2="115.6" gradientTransform="scale(1.07 .93456)" gradientUnits="userSpaceOnUse" xlink:href="#c"/>
  <linearGradient id="w" x1="211.7" x2="276.23" y1="17.838" y2="50.602" gradientTransform="scale(.6992 1.4302)" gradientUnits="userSpaceOnUse" xlink:href="#c"/>
  <linearGradient id="u" x1="239.09" x2="277.28" y1="24.89" y2="72.38" gradientTransform="scale(.78392 1.2756)" gradientUnits="userSpaceOnUse" xlink:href="#c"/>
  <linearGradient id="t" x1="227.44" x2="247.31" y1="68.193" y2="106.73" gradientTransform="scale(1.0855 .92126)" gradientUnits="userSpaceOnUse" xlink:href="#c"/>
  <linearGradient id="s" x1="229.81" x2="231.63" y1="139.89" y2="172.89" gradientTransform="scale(1.1999 .8334)" gradientUnits="userSpaceOnUse" xlink:href="#c"/>
  <linearGradient id="r" x1="228.28" x2="215.24" y1="281.94" y2="249.08" gradientTransform="scale(1.3824 .72336)" gradientUnits="userSpaceOnUse" xlink:href="#c"/>
  <linearGradient id="q" x1="229.85" x2="267.46" y1="291.47" y2="241.04" gradientTransform="scale(1.1444 .87385)" gradientUnits="userSpaceOnUse" xlink:href="#c"/>
  <linearGradient id="o" x1="255.54" x2="259.37" y1="265.69" y2="221.85" gradientTransform="scale(.847 1.1806)" gradientUnits="userSpaceOnUse" xlink:href="#c"/>
  <linearGradient id="n" x1="236.17" x2="349.54" y1="182.56" y2="182.56" gradientTransform="scale(.71048 1.4075)" gradientUnits="userSpaceOnUse" xlink:href="#c"/>
  <linearGradient id="m" x1="155.72" x2="200.79" y1="238.46" y2="215.1" gradientTransform="scale(.76451 1.308)" gradientUnits="userSpaceOnUse" xlink:href="#c"/>
  <linearGradient id="l" x1="83.269" x2="106.96" y1="257.06" y2="268.29" gradientTransform="scale(1.0408 .96084)" gradientUnits="userSpaceOnUse" xlink:href="#c"/>
  <linearGradient id="k" x1="64.539" x2="44.598" y1="224.92" y2="240.25" gradientTransform="scale(1.2075 .82817)" gradientUnits="userSpaceOnUse" xlink:href="#c"/>
  <linearGradient id="j" x1="55.914" x2="75.859" y1="201.3" y2="215.51" gradientTransform="scale(1.3345 .74933)" gradientUnits="userSpaceOnUse" xlink:href="#c"/>
  <linearGradient id="i" x1="27.518" x2="48.464" y1="140.11" y2="148.06" gradientTransform="scale(1.3549 .73807)" gradientUnits="userSpaceOnUse" xlink:href="#c"/>
  <radialGradient id="z" cx="294.15" cy="564.01" r="26.496" fx="294.25" fy="564.1" gradientTransform="scale(1.1339 .88192)" gradientUnits="userSpaceOnUse">
   <stop stop-color="#4d5cf1" stop-opacity="0" offset="0"/>
   <stop stop-color="#3038c7" stop-opacity=".803" offset="1"/>
  </radialGradient>
  <radialGradient id="y" cx="294.15" cy="564.01" r="26.496" fx="294.25" fy="564.1" gradientTransform="scale(1.1339 .88192)" gradientUnits="userSpaceOnUse">
   <stop stop-color="#ebf1fe" offset="0"/>
   <stop stop-color="#d9e6fc" offset=".211"/>
   <stop stop-color="#b1ccf9" offset=".426"/>
   <stop stop-color="#b1ccf9" offset=".682"/>
   <stop stop-color="#d9e6fc" offset=".803"/>
   <stop stop-color="#fffffe" offset=".928"/>
   <stop stop-color="#ebf1fe" offset="1"/>
  </radialGradient>
 </defs>
 <path d="M178.327 32.733c-11.771.641-23.01 7.124-30.375 16.375-7.961-7.027-17.632-11.498-29.469-10.469-15.358-.367-24.423 9.114-28.687 21.47-.34-.031-.659-.134-1-.157-8.629.304-18.064.11-25.657 4.844-9.938 9.085-13.74 23.485-11.687 36.687-3.695.158-7.418.538-11.156 1.375-12.534 1.21-21.12 10.358-24.47 22.063-5.783 13.16-2.49 29.21 8.095 38.937 4.617 4.174 9.793 7.497 15.28 10.219-.698.412-1.434.761-2.124 1.187-10.106 6.729-20.563 17.344-18.844 30.532 1.951 11.496 10.873 19.108 20.531 24.875-.733 2.194-1.366 4.479-1.78 6.875-5.808 20.78 10.401 36.65 29.155 39.937 1.542 11.748 9.18 22.422 19.907 27.844 6.232 4.536 13.322 5.666 20.25 4.625.272 1.271.427 2.55.78 3.812 4.794 14.658 19.638 24.137 34.845 23.97 9.366 1.415 17.53-2.27 23.812-8.313.657 1.604 1.215 3.229 1.969 4.812 18.295 24.407 43.969 14.742 59-5 11.838 6.18 27.322 5.808 38.125-3.187 6.465-4.473 11.811-10.467 14.5-17.407 19.36 1.711 37.267-7.233 38.25-32.093-.074-.46-.232-.887-.313-1.344 1.532-.015 3.053.065 4.594-.063 15.3-1.926 27.437-14.724 30.156-29.687 5.23-14.742-3.756-28.86-15.656-37.063 12.188-8.809 16.936-25.262 12.656-39.53-.918-7.016-4.448-12.517-9.28-16.72 1.304-3.166 2.341-6.542 2.937-10.156 6.04-22.333-13.15-38.99-33.563-40.312 1.775-8.502 1.305-17.418-4.531-24.282-10.192-11.091-26.656-10.473-40.406-9-.906.094-1.766.332-2.625.532-.008-.308.043-.598.03-.907 1.07-12.546-6.371-22.658-17.28-28.062-11.902-8.061-28.275-7.72-39.75.937-1.507 1.157-2.837 2.477-4.22 3.75-4.621-4.92-9.534-9.696-16.03-11.718a34.444 34.444 0 00-5.97-.188z" fill-opacity=".251" fill-rule="evenodd"/>
 <path d="m159.73 144.19c-16.578 24.86-48.61 32.684-76.838 32.977-22.526-0.104-46.992-4.715-64.187-20.257-10.585-9.727-13.87-25.773-8.087-38.933 3.348-11.705 11.93-20.84 24.463-22.05 27.784-6.22 54.517 7.677 77.736 21.37 15.498 9.198 30.546 19.256 46.913 26.893z" fill="#bbd5fe" fill-rule="evenodd"/>
 <path transform="translate(-14.75 6)" d="m174.34 138.38c-16.578 24.86-48.61 32.685-76.838 32.977-22.526-0.103-46.992-4.714-64.188-20.256-10.585-9.727-13.87-25.774-8.087-38.934 3.349-11.705 11.93-20.84 24.464-22.05 27.783-6.22 54.517 7.677 77.735 21.37 15.498 9.198 30.546 19.256 46.914 26.893z" fill="url(#i)" fill-rule="evenodd"/>
 <path d="M155.335 199.946c-1.281-22.295-18.978-42.267-40.927-46.34-27.987-6.828-58.297-.272-82.552 14.714-10.105 6.728-20.552 17.359-18.833 30.546 2.52 14.851 16.684 23.29 29.025 29.531 9.577 4.89 20.5 1.364 30.527.198 28.823-5.679 54.733-20.417 82.76-28.65z" fill="#c3dafe" fill-rule="evenodd"/>
 <path transform="translate(-14.75 6)" d="M168.428 195.044c-1.282-22.295-18.978-42.267-40.928-46.34-27.986-6.827-58.296-.272-82.551 14.714-10.106 6.729-20.553 17.359-18.834 30.547 2.52 14.85 16.684 23.289 29.025 29.53 9.578 4.89 20.501 1.364 30.528.198 28.823-5.678 54.732-20.417 82.76-28.649z" fill="url(#j)" fill-rule="evenodd"/>
 <path d="m166.08 178.43c-9.05 44.557-45.36 86.34-91.734 92.407-23.359 3.986-49.763-14.562-42.583-40.252 5.417-31.261 39.29-45.032 67.163-49.706 22.238-4.283 44.83-0.673 67.154-2.45z" fill="#eaf4fe" fill-rule="evenodd"/>
 <path transform="translate(-14.75 6)" d="m181.03 172.33c-9.05 44.558-45.36 86.34-91.734 92.407-23.359 3.986-49.763-14.562-42.583-40.252 5.417-31.26 39.29-45.031 67.163-49.705 22.238-4.283 44.83-0.674 67.154-2.45z" fill="url(#k)" fill-rule="evenodd"/>
 <path d="m185.77 194.34c-26.074-13.556-57.42-4.075-80.698 10.905-20.294 12.784-39.067 31.658-44.11 55.801-2.502 15.217 6.299 30.48 19.871 37.341 12.932 9.413 29.523 4.44 40.793-5.046 28.385-21.017 40.07-55.67 56.352-85.557 2.46-4.56 5.033-9.059 7.792-13.444z" fill="#c3dafe" fill-rule="evenodd"/>
 <path transform="translate(-14.75 6)" d="m200.33 188.39c-26.073-13.556-57.419-4.075-80.697 10.905-20.294 12.783-39.067 31.658-44.11 55.801-2.502 15.217 6.299 30.48 19.871 37.341 12.932 9.413 29.523 4.44 40.793-5.046 28.385-21.017 40.07-55.67 56.352-85.557 2.46-4.56 5.033-9.06 7.791-13.444z" fill="url(#l)" fill-rule="evenodd"/>
 <path d="M181.877 190.094c-29.386-.01-52.833 22.854-66.584 46.879-12.116 20.699-20.074 46.102-13.419 69.851 4.794 14.658 19.64 24.145 34.847 23.977 15.815 2.391 28.245-9.67 33.874-23.283 15.5-31.736 9.895-67.874 10.566-101.902.08-5.18.29-10.359.716-15.522z" fill="#bbd5fe" fill-rule="evenodd"/>
 <path transform="translate(-14.75 6)" d="M196.813 184.065c-29.386-.01-52.833 22.854-66.584 46.879-12.116 20.699-20.074 46.102-13.42 69.851 4.794 14.658 19.641 24.145 34.848 23.977 15.814 2.391 28.245-9.67 33.873-23.283 15.5-31.736 9.896-67.874 10.567-101.902.08-5.18.29-10.359.716-15.522z" fill="url(#m)" fill-rule="evenodd"/>
 <path d="m210.43 182.22c-45.337 30.174-72.44 93.583-47.929 145.06 29.157 38.897 77.111-8.674 70.736-45.808 1.824-34.809-18.198-65.566-22.807-99.258z" fill="#aac9fe" fill-rule="evenodd"/>
 <path transform="translate(-14.75 6)" d="m224.96 177.17c-45.337 30.175-72.44 93.583-47.928 145.07 29.156 38.896 77.11-8.675 70.735-45.809 1.824-34.808-18.198-65.566-22.807-99.257z" fill="url(#n)" fill-rule="evenodd"/>
 <path d="m195.2 186.62c-19.987 16.098-22.147 44.018-17.492 66.651 5.264 25.742 17.768 51.732 40.224 66.973 12.122 8.292 29.776 8.785 41.689-1.135 10.271-7.106 17.73-18.061 16.17-30.526-0.394-27.132-20.356-47.987-39.355-65.22-13.685-12.311-28.365-23.594-41.236-36.743z" fill="#98bbfd" fill-rule="evenodd"/>
 <path transform="translate(-14.75 6)" d="m209.64 179.86c-19.987 16.098-22.147 44.018-17.492 66.65 5.264 25.743 17.768 51.733 40.225 66.974 12.121 8.292 29.775 8.785 41.688-1.135 10.271-7.106 17.73-18.061 16.17-30.526-0.394-27.133-20.356-47.987-39.355-65.22-13.685-12.311-28.365-23.594-41.236-36.743z" fill="url(#o)" fill-rule="evenodd"/>
 <path d="m190.54 177.4c54.454-0.899 112.76 35.912 121.81 92.21-1.92 48.573-68.403 36.637-84.237 2.448-21.264-27.619-22.243-64.306-37.577-94.658z" fill="#aac9fe" fill-rule="evenodd"/>
 <path transform="translate(-14.75 6)" d="m205.59 170.83c54.453-0.898 112.76 35.913 121.81 92.21-1.92 48.574-68.403 36.638-84.237 2.45-21.264-27.62-22.243-64.307-37.576-94.66z" fill="url(#p)" fill-rule="evenodd"/>
 <path d="m217.21 167.49c-5.584 28.851 12.418 56.209 33.398 74.268 18.025 15.821 41.458 28.453 66.039 26.424 15.3-1.927 27.432-14.704 30.15-29.667 5.348-15.074-4.137-29.567-16.435-37.675-28.22-21.239-64.765-22.59-98.048-29.702-5.07-1.062-10.116-2.25-15.104-3.648z" fill="#bbd5fe" fill-rule="evenodd"/>
 <path transform="translate(-14.75 6)" d="m232.45 161.19c-5.584 28.852 12.418 56.209 33.398 74.268 18.025 15.822 41.458 28.454 66.039 26.424 15.3-1.927 27.431-14.704 30.15-29.667 5.348-15.074-4.137-29.567-16.435-37.675-28.22-21.238-64.765-22.59-98.048-29.702-5.07-1.061-10.116-2.25-15.104-3.648z" fill="url(#q)" fill-rule="evenodd"/>
 <path d="m196.1 157.45c8.12 28.243 36.578 44.449 63.47 51.017 23.243 5.917 49.856 6.537 70.838-6.429 12.759-8.661 17.769-25.553 13.4-40.12-2.077-15.859-17.107-24.467-31.745-26.11-34.786-6.116-67.963 9.268-100.85 18.037-5 1.355-10.035 2.587-15.115 3.605z" fill="#c3dafe" fill-rule="evenodd"/>
 <path transform="translate(-14.75 6)" d="m211.54 150.92c8.12 28.243 36.578 44.449 63.47 51.017 23.242 5.917 49.856 6.537 70.837-6.429 12.76-8.661 17.77-25.553 13.4-40.12-2.077-15.859-17.107-24.467-31.745-26.11-34.786-6.116-67.962 9.268-100.85 18.037-5 1.355-10.034 2.587-15.114 3.605z" fill="url(#r)" fill-rule="evenodd"/>
 <path d="m203.58 188.33c8.677-44.632 44.636-86.717 90.957-93.173 23.324-4.181 49.883 14.145 42.92 39.894-5.156 31.305-38.912 45.36-66.745 50.266-22.202 4.47-44.823 1.05-67.131 3.013z" fill="#eaf4fe" fill-rule="evenodd"/>
 <path transform="translate(-14.75 6)" d="m218.07 182.22c8.675-44.632 44.635-86.717 90.955-93.173 23.325-4.181 49.884 14.145 42.92 39.894-5.155 31.305-38.912 45.36-66.744 50.266-22.202 4.47-44.823 1.05-67.131 3.013z" fill="url(#s)" fill-rule="evenodd"/>
 <path d="m179.37 146.95c13.201 18.012 38.914 25.146 59.548 16.625 27.198-9.492 49.068-31.478 61.27-57.246 4.821-11.142 7.806-25.745-0.81-35.877-10.191-11.091-26.667-10.468-40.417-8.994-10.697 1.106-17.946 10.006-25.725 16.438-21.099 20.442-34.824 46.902-53.866 69.054z" fill="#c3dafe" fill-rule="evenodd"/>
 <path transform="translate(-14.75 6)" d="m194.21 140.95c13.201 18.012 38.914 25.146 59.549 16.625 27.198-9.492 49.067-31.478 61.27-57.246 4.82-11.142 7.805-25.745-0.81-35.877-10.192-11.091-26.667-10.468-40.418-8.994-10.697 1.106-17.945 10.006-25.725 16.438-21.098 20.442-34.824 46.902-53.866 69.054z" fill="url(#t)" fill-rule="evenodd"/>
 <path d="m186.43 174.97c-21.464-20.788-23.386-53.706-18.585-81.524 4.163-22.138 13.109-45.372 31.496-59.484 11.476-8.658 27.852-8.997 39.754-0.936 10.909 5.404 18.347 15.491 17.278 28.038 1.11 28.45-17.379 52.24-35.033 72.61-11.841 13.585-24.448 26.574-34.91 41.296z" fill="#bbd5fe" fill-rule="evenodd"/>
 <path transform="translate(-14.75 6)" d="m201.31 168.67c-21.464-20.787-23.386-53.706-18.585-81.523 4.163-22.138 13.109-45.373 31.496-59.485 11.476-8.658 27.852-8.997 39.754-0.935 10.909 5.403 18.347 15.49 17.278 28.037 1.11 28.45-17.379 52.24-35.033 72.61-11.841 13.586-24.448 26.574-34.91 41.297z" fill="url(#u)" fill-rule="evenodd"/>
 <path d="m175.54 189.2c-22.523-15.576-34.555-41.913-41.163-67.694-5.926-24.265-7.19-51.382 4.76-74.084 7.9-13.701 23.966-23.347 39.957-21.441 8.543 2.659 14.571 9.946 20.436 16.282 12.52 16.676 12.007 39.214 7.302 58.588-6.948 30.607-22.218 58.43-31.292 88.35z" fill="#aac9fe" fill-rule="evenodd"/>
 <path d="m179.2 167.14c-26.504 6.885-54.307-1.201-78.148-13.033-22.246-11.358-43.607-28.11-52.997-51.984-5.217-14.93-2.031-33.397 9.855-44.262 7.593-4.734 17.048-4.54 25.677-4.845 20.805 1.409 37.539 16.515 49.139 32.73 18.642 25.25 29.74 54.984 46.474 81.394z" fill="#aac9fe" fill-rule="evenodd"/>
 <path transform="translate(-14.75 6)" d="m193.77 160.72c-26.504 6.885-54.307-1.201-78.148-13.033-22.246-11.358-43.607-28.11-52.997-51.984-5.217-14.93-2.031-33.397 9.855-44.262 7.593-4.734 17.048-4.54 25.677-4.845 20.805 1.409 37.539 16.515 49.139 32.73 18.642 25.25 29.741 54.984 46.474 81.394z" fill="url(#v)" fill-rule="evenodd"/>
 <path transform="translate(-14.75 6)" d="m189.22 181.89c-22.522-15.577-34.555-41.913-41.163-67.695-5.926-24.265-7.189-51.381 4.76-74.084 7.9-13.7 23.966-23.347 39.957-21.44 8.543 2.658 14.572 9.945 20.437 16.281 12.52 16.676 12.006 39.214 7.301 58.588-6.947 30.608-22.218 58.43-31.292 88.35z" fill="url(#w)" fill-rule="evenodd"/>
 <path d="m184.53 170.56c-43.689-7.273-84.88-37.745-99.989-79.984-7.619-22.605-1.368-59.614 28.727-58.894 26.832-2.334 43.162 22.778 51.455 44.75 11.864 29.991 15.073 62.478 19.807 94.128z" fill="#98bbfd" fill-rule="evenodd"/>
 <path transform="translate(-14.75 6)" d="m199.26 164.13c-43.689-7.274-84.88-37.746-99.988-79.984-7.62-22.605-1.369-59.614 28.727-58.895 26.831-2.334 43.162 22.779 51.455 44.75 11.863 29.992 15.072 62.478 19.806 94.128z" fill="url(#x)" fill-rule="evenodd"/>
 <path d="m148.81 172.85a55.439 56.578 90 1 0 113.16 0 55.439 56.578 90 1 0-113.16 0z" fill="none"/>
 <path d="m123.6 189.17a55.439 56.578 90 1 0 113.16 0 55.439 56.578 90 1 0-113.16 0z" fill-opacity=".251" fill-rule="evenodd"/>
 <path transform="matrix(-3.3788 0 0 4.2567 1289.6 -1943)" d="M346.08 499.75a16.746 13.025 0 11-33.492 0 16.746 13.025 0 1133.492 0z" fill="url(#y)" fill-rule="evenodd"/>
 <path transform="matrix(-3.3788 0 0 4.2567 1289.6 -1943)" d="M346.08 499.75a16.746 13.025 0 11-33.492 0 16.746 13.025 0 1133.492 0z" fill="url(#z)" fill-rule="evenodd"/>
 <path transform="translate(-610.69 .783)" d="m-57.851 423.55s123.97 272.73 438.02 276.86c404.96 0 657.02-86.778 714.88-165.29-6.198 103.31 16.53 262.4 16.53 262.4l-1289.3 10.33 119.84-384.3z" fill="url(#A)" fill-opacity=".75" fill-rule="evenodd"/>
</svg>
