<svg width="400pt" height="400pt" xmlns="http://www.w3.org/2000/svg" xmlns:xlink="http://www.w3.org/1999/xlink"><defs><linearGradient id="a"><stop offset="0" stop-color="#263d42"/><stop offset="1" stop-color="#9acde7"/></linearGradient><linearGradient xlink:href="#a" x1=".476" y1=".602" x2="-.131" y2="-.125" gradientUnits="objectBoundingBox" spreadMethod="reflect"/></defs><path d="M90 465l318.75 2.5L230 10 90 465z" fill="none" stroke="#000" stroke-width="3.75" stroke-linejoin="bevel"/><path d="M406.25 467.5l22.5-107.5L230.372 9.455 180 362.5l247.5-2.5M88.75 465L180 361.25" fill="none" stroke="#000" stroke-width="3.75" stroke-linejoin="bevel"/><path d="M103.75 410s285 2.5 283.75 2.5 20-91.25 20-91.25-222.5 1.25-223.75 1.25-80 91.25-80 87.5z" fill="none" stroke="#000" stroke-width="3.75" stroke-linejoin="bevel"/><path d="M127.5 340l231.25 1.25 22.5-61.25-190-2.5L127.5 340zM146.25 268.75l185 2.5 23.75-37.5H197.5l-51.25 35zM170 200h131.25l21.25-22.5L205 180l-35 20zM185 145l96.25 2.5 16.25-15-86.25 1.25L185 145zM205 91.25l57.5 2.5 10-6.25-55-1.25-12.5 5zM220.766 39.085l20.82.718 1.795-1.795-19.385-.36-3.23 1.437z" fill="none" stroke="#000" stroke-width="3.75" stroke-linejoin="bevel"/></svg>