<?xml version="1.0" encoding="UTF-8"?>
<svg width="400pt" height="400pt" xmlns="http://www.w3.org/2000/svg" xmlns:xlink="http://www.w3.org/1999/xlink">
 <g fill-rule="evenodd" stroke="#000" stroke-width="4.378">
  <path transform="matrix(.9387 0 0 .78163 .281 154.13)" d="m10.285 152.69s295.1-6.329 296.68-6.329 143.2 107.6 143.2 107.6l-359.18 15.031s-80.696-117.88-80.696-116.3z" fill="#ccc" stroke-linejoin="bevel"/>
  <path transform="matrix(.9387 0 0 .78163 .281 154.13)" d="m90.19 340.98-79.905-146.36-0.791-41.931 81.486 115.51c3.165 2.373 3.956 68.829-0.791 72.785z" fill="#b3b3b3" stroke-linejoin="bevel"/>
  <path transform="matrix(.94274 0 0 .78163 -.08 154.13)" d="m93.355 268.2 356.01-15.032s7.121 20.571 7.121 35.602c0 17.405-3.956 33.228-4.747 34.019l-362.34 17.405c4.747-11.868 4.746-24.526 3.956-71.994z" fill="#ccc" stroke-linejoin="bevel"/>
  <path transform="matrix(.9387 0 0 .78163 -24.226 154.75)" d="M449.367 298.26l14.241-.792v11.867l-14.241.792V298.26z" fill="#b3b3b3"/>
  <path transform="matrix(.9387 0 0 .78163 -24.226 154.75)" d="m134.49 281.65 130.54-5.538-0.791 34.019-130.54 7.119 0.792-35.6z" fill="#ccc"/>
  <path transform="matrix(.9387 0 0 .78163 -24.226 154.75)" d="M443.829 268.196c.791 0 22.152-.791 22.152-.791v15.823l-22.152.791v-15.823z" fill="#b3b3b3"/>
 </g>
 <g fill-rule="evenodd" stroke="#000" stroke-width="4.591">
  <path transform="matrix(.85664 0 0 .77897 107.29 237.35)" d="m35.601 306.96 418.51-64.874v24.526l-418.51 65.665v-25.317z" fill="#b2b3b3"/>
  <path transform="matrix(.85664 0 0 .77897 103.9 242.28)" d="m39.557 300.63c2.373-3.956 51.424-101.27 51.424-101.27l280.06-26.108 87.026 62.5-418.51 64.874z" fill="#ccc"/>
  <g fill="#e5e6e6">
   <path transform="matrix(.85664 0 0 .77897 103.9 242.28)" d="m331.49 184.34s0.792 8.703 0.792 9.494 34.019 40.348 34.019 40.348l57.753-9.494-0.791-6.329h-0.792l-90.981-34.019z"/>
   <path transform="matrix(.85664 0 0 .77897 103.9 242.28)" d="m332.28 184.34 37.183-3.956 54.589 37.974-53.798 7.121-37.974-41.139zm-34.811 11.075v8.703c0 0.791 20.57 37.183 21.361 37.183s34.81-4.746 34.81-4.746l-1.582-9.494"/>
   <path transform="matrix(.85664 0 0 .77897 103.9 242.28)" d="m298.26 195.41c0.791 0 24.525-2.373 24.525-2.373l30.063 34.019-30.854 4.747-23.734-36.393zm-208.07 13.45 7.911-13.45 174.84-17.405 9.494 11.076-192.25 19.779z"/>
   <path transform="matrix(.85664 0 0 .77897 103.9 242.28)" d="m90.19 209.65-0.791 5.538 193.04-20.57v-6.329l-192.25 21.361z"/>
   <path transform="matrix(.85664 0 0 .77897 103.9 242.28)" d="m90.981 215.98 196.2-21.361 22.152 34.81-237.34 32.437 18.987-45.886z"/>
   <path transform="matrix(.85664 0 0 .77897 103.9 242.28)" d="m71.994 261.08-0.791 7.911 238.13-32.436c0.791 0-0.792-6.33-0.792-7.121s-236.55 34.019-236.55 31.646z"/>
   <path transform="matrix(.85664 0 0 .77897 103.9 242.28)" d="m82.278 274.52 219.15-32.436 4.747 8.702-226.27 33.228 2.373-9.494z"/>
   <path transform="matrix(.85664 0 0 .77897 103.9 242.28)" d="m79.114 284.81v7.12l227.06-36.392-0.791-5.538-226.27 34.81z"/>
  </g>
 </g>
 <g fill-rule="evenodd" font-size="12" stroke="#000" stroke-width="3.75">
  <path transform="matrix(.7707 .16866 0 .67374 -3.776 12.242)" d="m119.56 425.38v12.719l316.28-93.272 0.848-15.262-317.12 95.815z" fill="#b3b3b3"/>
  <g fill="#ccc">
   <path transform="matrix(.7707 .16866 0 .67374 -3.776 12.242)" d="m166.19 347.37-46.636 78.857 317.12-96.663-91.576-31.374-178.91 49.18z"/>
   <path transform="matrix(.54575 .11943 0 .55605 51.834 51.161)" d="m139.06 335.5s-11.871 18.654-6.784 33.917c4.24 18.655 17.807 22.894 21.199 22.894s223.7-57.43 223.7-57.43 6.083-12.1 9.475-31.602c-6.783-23.742-19.502-26.286-33.917-26.286-23.742-13.566 0.849 0 0.849 0l-214.52 58.507z"/>
  </g>
  <path transform="matrix(.9154 .18092 0 .8245 -33.863 -51.005)" d="M420.57 16.684c0 .848-21.199-5.087-43.245-6.783-10.175.848-311.187 55.963-313.73 55.963 4.239-.848-9.328 0-12.72 7.631-3.391 7.631-3.391 269.639-3.391 269.639s0 7.632 5.087 13.567c7.632 3.392 27.982 4.24 20.35 4.24L420.57 16.684z" fill="#b3b3b3"/>
  <path transform="matrix(.91123 .1801 0 .75044 -31.283 -67.076)" d="m71.233 108.01 347.64-67.583c5.088 3.392 10.176 0.848 12.72 11.023s-0.848 253.53-0.848 253.53 1.695 7.631-4.24 11.871c-5.936 4.239-346.84 100.06-346.84 100.06s-10.175 4.239-16.11-4.24c-8.48-2.543-3.358-288.29-3.358-288.29s0.825-13.65 11.031-16.361z" fill="#ccc"/>
  <path transform="matrix(.9154 .18092 0 .8245 -33.863 -51.005)" d="m89.032 98.084 305.25-59.354s7.631-2.543 13.567 6.784c5.935 9.327 4.239 13.566 4.239 13.566v175.52c-0.848 9.327 0.848 5.935-4.239 16.111-10.176 3.391-302.71 83.096-302.71 83.096s0 1.696-10.175 0-13.567-17.806-13.567-18.654-3.391-199.26-3.391-199.26 1.696-14.415 11.023-17.807z" fill="url(#linearGradient614)"/>
  <path transform="matrix(.9154 .18092 0 .8245 -33.863 -51.005)" d="m368.85 266.82 29.677-8.479v13.567s-29.677 7.631-29.677 8.479v-13.567z" fill="#00feb3"/>
 </g>
 <path d="m44.304 216.77c0-1.582-9.494-158.23 1.582-161.39 11.076-3.165 205.7 3.164 205.7 3.164s-229.43 4.747-207.28 158.23z" fill="#fff" fill-opacity=".5" fill-rule="evenodd"/>
 <path d="m131.33 259.49c-6.329 4.747-7.911 7.912 1.582 22.153 15.823-7.912 6.33-20.57-1.582-22.153zm-61.709 64.874s7.912 26.899 15.823 26.899 224.68-1.582 221.52-3.165c-3.165-1.582-189.87 18.988-237.34-23.734zm23.734 85.443c0-1.582 3.165-39.557 3.165-39.557l137.66-3.164s-143.99 11.076-140.82 42.721z" fill="#fff" fill-opacity=".498" fill-rule="evenodd"/>
</svg>
