<?xml version="1.0" encoding="UTF-8"?>
<svg width="400pt" height="400pt" xmlns="http://www.w3.org/2000/svg" xmlns:xlink="http://www.w3.org/1999/xlink">
 <g font-size="12" stroke="#000" stroke-width="3.75">
  <path d="m406.93 181.77-122.62-106.01 73.576-2.373 134.49 90.19s-31.646 29.272-85.443 18.196zm-123.42-106.01 1.582 164.56 122.63 125.79 0.79-182.75-125-107.6z" fill="#b3b2b3" fill-rule="evenodd" stroke-linejoin="bevel"/>
  <path d="m409.3 182.56s26.107 3.164 45.886-0.79c26.898-10.286 37.974-16.615 37.974-16.615l0.79 178.8s-15.031 11.076-33.226 18.196c-30.064 6.33-53.007 3.956-53.007 3.956l1.583-183.54z" fill="#ccc" fill-rule="evenodd" stroke-linejoin="bevel"/>
  <path d="m421.17 207.09s63.291-13.449 63.291-12.658-0.79 25.316-0.79 25.316-61.71 13.45-62.5 13.45c-0.792 0-0.792-24.526 0-26.108z" fill="none"/>
  <path d="m430.66 248.23 46.677-9.493v3.956l-46.677 10.284v-4.747z" fill="#000100" fill-rule="evenodd"/>
  <path d="m467.85 270.38 11.867-1.583v11.867l-11.867 2.374v-12.658z" fill="#00b300" fill-rule="evenodd"/>
  <path d="m472.6 299.65 7.912-0.79v9.493l-7.912 1.582v-10.285z" fill="#b3b3b3" fill-rule="evenodd"/>
 </g>
 <g fill-rule="evenodd" font-size="12" stroke="#000" stroke-linejoin="bevel" stroke-width="3.75">
  <path transform="matrix(.86872 0 0 .8418 -28.649 31.94)" d="m119.56 425.38v12.719l316.28-93.272 0.848-15.262-317.12 95.815z" fill="#b3b3b3"/>
  <g fill="#ccc">
   <path transform="matrix(.86872 0 0 .8418 -28.649 31.94)" d="m166.19 347.37-46.636 78.857 317.12-96.663-91.576-31.374-178.91 49.18z"/>
   <path transform="matrix(.61516 0 0 .69475 34.034 65.362)" d="m139.06 335.5s-11.871 18.654-6.784 33.917c4.24 18.655 17.807 22.894 21.199 22.894s223.7-57.43 223.7-57.43 6.083-12.1 9.475-31.602c-6.783-23.742-19.502-26.286-33.917-26.286-23.742-13.566 0.849 0 0.849 0l-214.52 58.507z"/>
  </g>
  <path transform="matrix(.86872 0 0 .8418 -27.912 15.522)" d="M420.57 16.684c0 .848-21.199-5.087-43.245-6.783-10.175.848-311.187 55.963-313.73 55.963 4.239-.848-9.328 0-12.72 7.631-3.391 7.631-3.391 269.639-3.391 269.639s0 7.632 5.087 13.567c7.632 3.392 27.982 4.24 20.35 4.24L420.57 16.684z" fill="#b3b3b3"/>
  <path transform="matrix(.86477 0 0 .76618 -25.464 -1.407)" d="m71.233 108.01 347.64-67.583c5.088 3.392 10.176 0.848 12.72 11.023s-0.848 253.53-0.848 253.53 1.695 7.631-4.24 11.871c-5.936 4.239-346.84 100.06-346.84 100.06s-10.175 4.239-16.11-4.24c-8.48-2.543-3.358-288.29-3.358-288.29s0.825-13.65 11.031-16.361z" fill="#ccc"/>
  <path transform="matrix(.86872 0 0 .8418 -27.912 15.522)" d="m89.032 98.084 305.25-59.354s7.631-2.543 13.567 6.784c5.935 9.327 4.239 13.566 4.239 13.566v175.52c-0.848 9.327 0.848 5.935-4.239 16.111-10.176 3.391-302.71 83.096-302.71 83.096s0 1.696-10.175 0-13.567-17.806-13.567-18.654-3.391-199.26-3.391-199.26 1.696-14.415 11.023-17.807z" fill="url(#linearGradient614)"/>
  <path transform="matrix(.86872 0 0 .8418 -27.912 15.522)" d="m368.85 266.82 29.677-8.479v13.567s-29.677 7.631-29.677 8.479v-13.567z" fill="#00feb3"/>
 </g>
 <g fill-rule="evenodd" font-size="12" stroke="#000" stroke-width="3.75">
  <path transform="matrix(1.0608 0 0 .91368 -32.164 191.15)" d="m35.601 306.96 418.51-64.874v24.526l-418.51 65.665v-25.317z" fill="#b2b3b3"/>
  <path transform="matrix(1.0608 0 0 .91368 -36.36 196.93)" d="m39.557 300.63c2.373-3.956 51.424-101.27 51.424-101.27l280.06-26.108 87.026 62.5-418.51 64.874z" fill="#ccc"/>
  <g fill="#e5e6e6">
   <path transform="matrix(1.0608 0 0 .91368 -36.36 196.93)" d="m331.49 184.34s0.792 8.703 0.792 9.494 34.019 40.348 34.019 40.348l57.753-9.494-0.791-6.329h-0.792l-90.981-34.019z"/>
   <path transform="matrix(1.0608 0 0 .91368 -36.36 196.93)" d="m332.28 184.34 37.183-3.956 54.589 37.974-53.798 7.121-37.974-41.139zm-34.811 11.075v8.703c0 0.791 20.57 37.183 21.361 37.183s34.81-4.746 34.81-4.746l-1.582-9.494"/>
   <path transform="matrix(1.0608 0 0 .91368 -36.36 196.93)" d="m298.26 195.41c0.791 0 24.525-2.373 24.525-2.373l30.063 34.019-30.854 4.747-23.734-36.393zm-208.07 13.45 7.911-13.45 174.84-17.405 9.494 11.076-192.25 19.779z"/>
   <path transform="matrix(1.0608 0 0 .91368 -36.36 196.93)" d="m90.19 209.65-0.791 5.538 193.04-20.57v-6.329l-192.25 21.361z"/>
   <path transform="matrix(1.0608 0 0 .91368 -36.36 196.93)" d="m90.981 215.98 196.2-21.361 22.152 34.81-237.34 32.437 18.987-45.886z"/>
   <path transform="matrix(1.0608 0 0 .91368 -36.36 196.93)" d="m71.994 261.08-0.791 7.911 238.13-32.436c0.791 0-0.792-6.33-0.792-7.121s-236.55 34.019-236.55 31.646z"/>
   <path transform="matrix(1.0608 0 0 .91368 -36.36 196.93)" d="m82.278 274.52 219.15-32.436 4.747 8.702-226.27 33.228 2.373-9.494z"/>
   <path transform="matrix(1.0608 0 0 .91368 -36.36 196.93)" d="m79.114 284.81v7.12l227.06-36.392-0.791-5.538-226.27 34.81z"/>
  </g>
 </g>
 <path d="m52.215 275.32c6.33-44.303-9.494-158.23 1.582-164.56 11.076-6.33 139.24-30.064 145.57-30.064s-129.75 17.405-147.15 194.62z" fill="#fff" fill-opacity=".5" fill-rule="evenodd"/>
 <path d="m332.28 280.06s61.709 69.621 64.874 66.456c3.164-3.165 3.164-115.51 3.164-115.51s-17.405 82.278-68.038 49.05zm-208.86 23.734c-6.329 1.582-4.747 31.646 3.164 28.482 9.494-3.165 4.747-31.647-3.164-28.482z" fill="#fff" fill-opacity=".498" fill-rule="evenodd"/>
</svg>
