<?xml version="1.0" encoding="UTF-8"?>
<svg width="160" height="160" xmlns="http://www.w3.org/2000/svg" xmlns:xlink="http://www.w3.org/1999/xlink">
 <defs>
  <linearGradient id="b">
   <stop stop-color="#fffffd" stop-opacity="0" offset="0"/>
   <stop stop-color="#bddfdf" offset=".5"/>
   <stop stop-color="#fff" stop-opacity="0" offset="1"/>
  </linearGradient>
  <linearGradient id="f" x1=".906" x2=".102" y1=".961">
   <stop stop-color="#bfbfbf" offset="0"/>
   <stop stop-color="#ccc" offset="1"/>
  </linearGradient>
  <linearGradient id="i" x1=".78" x2=".517" y1=".398" y2=".766" xlink:href="#b"/>
  <linearGradient id="e" x1=".906" x2=".102" y1=".906" y2=".047">
   <stop stop-color="#e6e6e6" offset="0"/>
   <stop stop-color="#d9d9d9" offset="1"/>
  </linearGradient>
  <linearGradient id="g" x1=".669" x2=".449" y1=".367" y2=".898" xlink:href="#b"/>
  <linearGradient id="h" x1=".552" x2=".543" y1=".32" y2=".672">
   <stop stop-color="#fffffd" stop-opacity="0" offset="0"/>
   <stop stop-color="#ffc6ff" stop-opacity=".8" offset=".5"/>
   <stop stop-color="#fff" stop-opacity="0" offset="1"/>
  </linearGradient>
 </defs>
 <g fill-rule="evenodd">
  <path transform="translate(-208.75 -895)" d="m283.28 909.97c-34.22 0-61.968 27.81-61.969 62.062 0 34.253 27.75 62.032 61.97 62.032 34.219 0 62-27.779 62-62.032s-27.781-62.062-62-62.062zm0.406 42.406c10.625 0 19.25 8.619 19.25 19.25s-8.625 19.281-19.25 19.281c-10.624 0-18.86-9.009-18.86-19.64s8.236-18.891 18.86-18.891z" fill="url(#e)" stroke="#000" stroke-linejoin="round" stroke-width=".625"/>
  <path transform="translate(-208.75 -895)" d="m283.03 913.75c-32.051 0-58.062 26.01-58.062 58.063s26.01 58.062 58.062 58.062 58.063-26.01 58.063-58.063-26.011-58.062-58.063-58.062zm0.688 36.25c12.017 0 21.781 9.69 21.781 21.656 0 11.967-9.764 21.688-21.781 21.688-12.018 0-21.781-9.72-21.781-21.688 0-11.967 9.763-21.656 21.78-21.656z" fill="url(#f)" stroke="#000" stroke-opacity=".5" stroke-width="1pt"/>
  <path d="m75.063 57.375c-10.438 0-18.938 8.574-18.938 19.156 0 10.583 8.5 19.188 18.938 19.188 10.437 0 18.906-8.605 18.906-19.188 0-10.582-8.47-19.156-18.906-19.156zm-0.22 13.5c3.472 0 6.282 2.705 6.282 6.063 0 3.357-2.81 6.093-6.281 6.093s-6.281-2.736-6.281-6.094c0-3.357 2.81-6.062 6.28-6.062z" fill="#e6e6e6" fill-opacity=".2" stroke="#000" stroke-linejoin="round" stroke-width=".625"/>
  <path transform="translate(-208.75 -895)" d="m226.91 960.24c0.583-8.747 10.371-27.49 23.383-35.401 1.787 2.73 13.428 23.651 18.098 30.378-4.515 4.103-7.664 11.562-6.89 15.267-1.12-0.231-34.59-10.244-34.59-10.244z" fill="url(#g)"/>
  <path transform="translate(-208.75 -895)" d="M229.596 992.262c-3.838-7.881-6.507-29.01.857-42.34 2.907 1.483 24.02 13.653 31.414 17.173-1.881 5.803-.085 13.223 2.428 16.054-1.088.356-32.844 8.289-34.7 9.113z" fill="url(#h)"/>
  <path transform="translate(-208.75 -895)" d="m339 984.25c-0.583 8.747-9.897 26.068-22.91 33.98-1.786-2.73-12.717-22.23-17.387-28.957 4.516-4.103 7.664-11.562 6.89-15.267 1.12 0.231 33.407 10.244 33.407 10.244z" fill="url(#i)"/>
  <path transform="translate(-208.75 -895)" d="M336.551 952.46c3.838 7.882 6.033 28.063-1.33 41.393-2.908-1.482-22.6-12.942-29.994-16.462 1.882-5.803.085-13.223-2.427-16.054 1.087-.356 31.895-8.052 33.751-8.876z" fill="url(#h)"/>
 </g>
 <path d="M88.167 115.974c-.286.246-1.022.738-1.114 1.031.006.098.051.17.096.244l.924 1.482c.106.17.211.34.035.586-.202.294-.573.491-.89.688l-2.057 1.281c-.91.567-1.312 1.155-.949 1.738l.636 1.02.266.34.727 1.168.172.365 1.286 2.066c.318.51.937.799 1.887.208l5.855-3.646c.436-.27.865-.64.95-1.03.068-.245-.059-.537-.15-.683l-.817-1.312-4.101-6.587c-.03-.049-.076-.122-.145-.146-.155-.072-.557.077-.77.176-.575.223-1.341.667-1.84 1.011zm6.916-2.383l-.751.468c.045.073.075.121.026.219-.137.22-.73.59-.989.616-.298.05-.464-.217-.57-.387-.076-.122-.187-.39-.075-.56.089-.123.207-.197.326-.271.356-.222.658-.443.903-.225l.752-.468a.741.741 0 00-.206-.243c-.43-.339-1.098.178-1.651.522-.317.197-.728.42-.929.713-.186.319-.06.61.062.805.166.268.49.876.928.873.367-.027.867-.371 1.223-.593.197-.123.395-.246.578-.394.198-.123.34-.246.454-.417.122-.245.025-.488-.08-.658zm.336-1.93c-.143.123-.31.295-.384.442a.569.569 0 00.06.536c.111.268.193.487.423.68.146.146.212.34.501.364.438-.003 1.199-.544 1.594-.79.277-.173.618-.42.74-.664a.478.478 0 00-.029-.488c-.066-.194-.37-.68-.53-.85-.115-.097-.175-.194-.41-.217-.413-.047-.936.347-1.332.593l-.633.394zm2.611-1.626l1.166 1.872.712-.443-.787-1.264 1.184.578c.31.145.315.242.631.045l.198-.123c.317-.197.266-.368.239-.587l-.052-1.317.327.437.515.826.712-.443-1.165-1.872-.792.493c-.356.222-.24.319-.253.563l-.003 1.317-.76-.337-.803-.41-1.069.665zm4.51-2.808l1.166 1.872.712-.444-.348-.559c.356-.221.925-.542 1.126-.836.314-.465-.11-1.146-.626-1.094-.313.026-.432.1-.67.248l-1.36.813zm3.381.492c.159-.098.649-.37.682-.492.162-.27-.257-.413.257-.733l.792-.493c.045.073.36.315.51.29.109 0 .608-.345.727-.42l-1.55-.99-.55-.265-.292.148-.514.32-.262.197-.02.585.22 1.853zm5.7-4.425l-.712.443c.005.098.036.146-.053.269-.137.22-.73.59-.989.616-.288-.023-.415-.315-.521-.485-.076-.122-.182-.292-.07-.463.074-.147.193-.221.351-.32.356-.221.618-.418.903-.225l.712-.443c-.106-.17-.227-.365-.515-.387-.259.026-.55.174-.788.322l-.87.542c-.436.27-.746.565-.683.93.02.123.066.196.126.293.197.316.457.997 1.028.945.204-.026.536-.198.733-.321.317-.198.792-.493 1.053-.69.183-.147.326-.27.44-.442.106-.269-.04-.414-.145-.584zm-.416-1.462l.227.365.712-.443.938 1.507.712-.444-.938-1.507.752-.468-.227-.364-2.176 1.354zm-22.637 14.432a5.01 5.01 0 011.153-.616c.134-.05.362-.125.486-.1.07.023.13.12.161.169l.908 1.458 3.738 6.004c.106.17.218.438.041.683-.113.171-.35.32-.548.442l-5.143 3.203c-.119.074-.237.147-.371.197-.496.174-.93.006-1.097-.262l-2.92-4.69c-.258-.414.102-.807.695-1.176l2.572-1.601c.435-.271.794-.664.786-1.03-.006-.097-.051-.17-.096-.243l-.954-1.531c-.03-.049-.09-.146-.081-.22.058-.17.487-.54.67-.687zm17.918-10.988l.865.507-.791.493c-.051-.17-.132-.829-.074-1zm-10.508 6.577c.198-.123.776-.517.955-.494.11 0 .195.048.28.096.145.146.433.608.31.852-.112.172-.35.32-.548.443-.079.049-.197.123-.292.148-.134.05-.228.074-.352.05-.14-.047-.343-.46-.418-.582-.091-.146-.167-.268.065-.513zm7.86-4.219c-.046-.073-.268-.34-.18-.462.025-.05.104-.099.144-.123.119-.074.317-.197.465-.223.204-.025.325.17.252.316-.073.147-.524.394-.682.492zm-9.41 7.815c-.325.27-.642.467-.953.762-.143.123-.31.294-.329.44.006.098.051.171.097.244l3.723 5.98c.045.072.09.145.2.145.125.023.392-.076.51-.15.308-.124 1.05-.518 1.367-.715.356-.222 1.014-.665 1.3-.91.143-.124.365-.296.399-.418.034-.122-.012-.195-.057-.268l-3.678-5.906c-.06-.098-.127-.292-.251-.316-.14-.048-.447.076-.62.15-.442.173-1.287.666-1.708.962zm4.739-2.883c-.366.295-.761.541-.957.933-.19.489.108.877.304 1.193l1.317 2.115.112.268c.181.291.591.508 1.126.31.134-.05.253-.123.372-.197l3.52-2.193c.12-.074.278-.172.427-.197.297-.051.44.265.302.486-.088.122-.246.22-.365.295l-3.798 2.364c-.119.074-.277.173-.38.271-.409.49-.155 1.075.042 1.39.15.244.527.583.959.483.188-.05.386-.173.544-.272l5.935-3.695c.197-.123.395-.246.548-.442.463-.491.354-.93.182-1.295-.045-.072-.036-.146-.081-.219l-.388-.534-.157-.34-.969-1.556c-.075-.122-.12-.195-.276-.267-.51-.29-1.37.179-2.004.573l-.687.395-2.176 1.354c-.119.074-.238.148-.347.149-.258.026-.455-.29-.318-.51.089-.123.207-.197.326-.27l3.64-2.267c.079-.05.198-.123.262-.197.118-.074.192-.22.24-.318.205-.465.048-.806-.149-1.122a.952.952 0 00-1.157-.359c-.133.05-.252.124-.37.198l-3.64 2.266-1.94 1.207zm8.822-5.493c-.325.27-.597.54-.768.882-.18.416.011.635.177.902l.651 1.045.188.39 2.103 3.378c.348.56 1.04.701 1.99.11l5.183-3.227c.277-.172.545-.271.776-.517.415-.393.291-.855.11-1.147l-.373-.51-.726-1.167c-.197-.316-.425-.241-.945-.019a11.69 11.69 0 00-1.93 1.134c-.365.295-.676.59-.494.881l.514.827c.046.073.091.146.057.268-.048.098-.27.27-.39.344-.158.098-.395.246-.559.247-.125-.024-.155-.072-.2-.145l-.303-.486-1.483-2.382-.267-.34c-.06-.098-.175-.194-.102-.341.146-.294.685-.663.989-.616.124.024.17.096.215.17l.651 1.045c.03.048.06.097.13.12.234.024.922-.37 1.16-.518l.41-.223c.356-.221.895-.59 1.22-.86.144-.124.351-.32.385-.442.033-.122-.012-.195-.057-.268l-1.09-1.75c-.182-.292-.473-.583-1.053-.457-.62.15-1.46.74-2.054 1.11l-2.65 1.65-1.465.912zm-13.105 8.666c.316-.197 1.107-.69 1.387-.594.07.024.13.121.16.17l2.967 4.764.142.316.196.316c.03.049.076.122.052.17-.059.172-.573.492-.731.59-.317.197-.658.443-.99.616-.133.05-.306.124-.376.1-.11 0-.155-.072-.2-.145l-2.649-4.254-.575-.923c-.06-.098-.221-.267-.148-.414.043-.196.542-.54.765-.712zm18.07-11.185c.357-.221.901-.493 1.22-.422.25.048.361.315.467.485l.741 1.191c.046.073.091.146.042.244-.009.073-.192.22-.31.295-.262.197-.761.541-1.029.64-.079.05-.292.148-.347.149-.109 0-.17-.097-.2-.145l-.65-1.046c-.046-.073-.107-.17-.231-.193-.11 0-.283.074-.417.124-.386.173-.663.346-1.019.567-.317.197-.934.616-.972.909-.009.073.037.146.082.219l1.831 2.941.297.389.378.607c.046.073.067.195.191.219.219-.002.59-.2.843-.323.41-.222.86-.468 1.211-.788.158-.098.326-.27.36-.392.033-.122-.027-.22-.073-.292l-.544-.875c-.03-.049-.076-.122-.067-.195-.011-.195.409-.49.646-.638.277-.173.87-.542 1.135-.47.07.023.115.096.145.145l.832 1.337c.091.146.218.438.041.683a2.549 2.549 0 01-.38.27l-4.906 3.055c-.119.074-.237.148-.371.197-.615.248-.832-.19-.999-.457l-.257-.414-2.528-4.059c-.06-.097-.09-.146-.111-.267-.105-.61.613-.956 1.246-1.35l2.334-1.453 1.37-.887zM99.4 113.028l1.859-1.158 3.482-2.168c.118-.073.237-.147.331-.172.566-.15.81.507.56.899-.088.123-.207.196-.326.27l-3.758 2.34a2.068 2.068 0 00-.341.247c-.28.343-.148.732-.011.951.136.219.442.534.874.434.133-.05.252-.123.37-.197l3.364-2.094c.593-.37 1.019-.567 1.291-.13l1.468 2.358c.122.194.248.486.047.78-.152.196-.454.418-.691.565l-5.104 3.178c-.079.05-.197.123-.292.148-.267.1-.498-.094-.589-.24-.106-.17-.208-.511.039-.732.064-.074.182-.148.261-.197l3.68-2.29c.119-.075.198-.124.301-.222.7-.639.396-1.393-.321-1.487-.538-.07-.943.25-1.497.595l-.657.443-2.058 1.28c-.593.37-.812.372-1.039.007l-.282-.364-.635-1.021-.218-.438-.439-.705c-.181-.291-.099-.511.33-.88zm-11.254 7.85c-.167.172-.453.417-.512.589-.073.146-.012.244.048.34l.409.657 1.982 3.184c.03.049.091.146.161.17.194.048.779-.249 1.016-.396l.435-.271c.238-.148.697-.468.765-.712.024-.05-.037-.147-.067-.195l-2.406-3.865c-.06-.097-.106-.17-.23-.194-.35-.12-1.22.422-1.6.693zm.395.193c.198-.123.5-.345.693-.297.125.024.155.072.2.145l.349.56 1.725 2.77c.136.219.103.341-.293.587-.158.099-.396.247-.52.223-.125-.024-.155-.072-.2-.145l-.273-.438-.469-.753-.203-.414-.71-1.142-.334-.535c-.045-.073-.136-.219-.127-.292-.006-.097.058-.171.162-.27z" stroke="#000" stroke-width=".037"/>
</svg>
