<?xml version="1.0" encoding="UTF-8"?>
<svg width="160" height="160" xmlns="http://www.w3.org/2000/svg" xmlns:xlink="http://www.w3.org/1999/xlink">
 <defs>
  <linearGradient id="n" x1="91.207" x2="76.282" y1="122.64" y2="169.13" gradientTransform="scale(1.3834 .72287)" gradientUnits="userSpaceOnUse" xlink:href="#a"/>
  <linearGradient id="c">
   <stop stop-color="#606060" offset="0"/>
   <stop stop-color="#f0f0f0" offset="1"/>
  </linearGradient>
  <linearGradient id="a">
   <stop stop-color="#d7d4d5" offset="0"/>
   <stop stop-color="#f2f2f2" offset="1"/>
  </linearGradient>
  <linearGradient id="f" x1="52.039" x2="38.779" y1="93.433" y2="73.71" gradientTransform="scale(.83102 1.2033)" gradientUnits="userSpaceOnUse" xlink:href="#a"/>
  <linearGradient id="g" x1="101.59" x2="68.684" y1="123.74" y2="94.95" gradientTransform="scale(1.1418 .87578)" gradientUnits="userSpaceOnUse" xlink:href="#a"/>
  <linearGradient id="h" x1="61.319" x2="43.187" y1="69.988" y2="113.94" gradientTransform="scale(1.4442 .69242)" gradientUnits="userSpaceOnUse" xlink:href="#a"/>
  <linearGradient id="o" x1="107.47" x2="80.994" y1="172.94" y2="152.92" gradientTransform="scale(1.3062 .76557)" gradientUnits="userSpaceOnUse" xlink:href="#a"/>
  <linearGradient id="m" x1="56.598" x2="75.084" y1="146.75" y2="133.36" gradientTransform="scale(1.1064 .9038)" gradientUnits="userSpaceOnUse" xlink:href="#a"/>
  <linearGradient id="k" x1="106.07" x2="103.56" y1="68.347" y2="66.289" gradientTransform="scale(1.0339 .96723)" gradientUnits="userSpaceOnUse">
   <stop stop-color="#00c042" offset="0"/>
   <stop stop-color="#6cff49" offset="1"/>
  </linearGradient>
  <linearGradient id="i" x1="69.759" x2="49.088" y1="149.86" y2="125.84" gradientTransform="scale(1.3606 .735)" gradientUnits="userSpaceOnUse" xlink:href="#c"/>
  <linearGradient id="j" x1="38.475" x2="50.981" y1="76.878" y2="97.394" gradientTransform="scale(1.4916 .6704)" gradientUnits="userSpaceOnUse" xlink:href="#c"/>
  <linearGradient id="l" x1="68.967" x2="48.944" y1="61.385" y2="32.755" gradientTransform="scale(1.0223 .97818)" gradientUnits="userSpaceOnUse">
   <stop stop-color="#d0f0f0" offset="0"/>
   <stop stop-color="#faffff" offset="1"/>
  </linearGradient>
 </defs>
 <path d="m19.08 63.143s3.976 1.988 5.566 3.777 16.1 14.111 17.49 15.9c1.392 1.789 3.578 6.56 4.373 8.944 0.795 2.385 2.385 7.95 2.584 10.534s1.59 6.758 1.987 8.944c0.398 2.187 2.982 6.56 2.187 6.36-0.795-0.198-18.286-4.173-19.876-4.968s-16.298-7.553-16.894-8.944c-0.596-1.392-1.391-12.124-1.193-13.913 0.199-1.79 0.398-17.69 0.795-19.28 0.398-1.59 0.398-5.764 1.193-6.559s0.994-2.583 1.789-0.795z" fill="url(#f)" fill-rule="evenodd"/>
 <path d="m43.329 83.368s16.696-9.293 18.882-10.088 22.857-9.74 24.248-9.938c1.391-0.199 23.056-6.758 24.447-5.764 1.392 0.994 6.162 13.317 6.957 16.894 0.795 3.578 4.174 12.522 2.981 14.112-1.192 1.59-57.242 25.839-59.03 26.435-0.525 0.174-6.487 1.76-8.828 2.22-0.795-1.789-2.502-7.984-2.9-9.375-0.397-1.392-2.384-10.733-2.98-12.323-0.597-1.59-4.77-11.179-3.777-12.173z" fill="url(#g)" fill-rule="evenodd"/>
 <path d="M18.27 63.004c4.357-3.935 9.979-8.292 15.039-9.838 2.389-.702 51.86-13.351 53.265-13.351 6.746.422 23.19 14.757 24.033 17.146-4.638 1.827-17.85 3.654-20.66 4.778-1.265 1.125-17.849 6.325-19.816 7.59-1.968 1.265-17.006 8.292-17.709 8.994-1.827.984-6.746 3.514-9.276 5.763-2.67-2.952-22.908-20.66-24.876-21.082z" fill="url(#h)" fill-rule="evenodd"/>
 <path d="M59.028 112.194c-1.125-.28-3.654 2.108-3.935.843-.282-1.264-2.67-8.292-1.968-9.416.703-1.124 4.076-2.951 6.605-3.654 2.53-.703 25.298-9.276 25.72-9.979.421-.702 20.519-9.697 22.065-9.837 1.546-.141 8.432-2.39 8.854-1.125.422 1.265.562 7.449.984 8.433.421.984-57.06 24.595-58.325 24.735z" fill="url(#i)" fill-rule="evenodd"/>
 <path d="m92.196 45.296s3.794 3.654 2.81 4.357c0 1.124-10.54 3.373-11.805 3.794-1.265 0.422-18.13 6.606-19.816 7.309-1.687 0.702-12.509 6.605-13.914 7.027-1.406 0.421-11.806 5.903-12.508 5.903-0.703 0-5.341-4.217-5.06-5.341s1.827-2.53 3.092-2.951c1.265-0.422 52.703-19.676 53.406-19.536s2.81-0.843 3.795-0.562z" fill="url(#j)" fill-rule="evenodd"/>
 <path d="m105.27 64.129s0.984 2.81 2.108 2.389c1.125-0.422 3.233-1.546 2.53-3.092s-3.654-2.249-4.638 0.703z" fill="url(#k)" fill-rule="evenodd"/>
 <path d="m73.785 9.036s-21.082 4.357-22.909 4.357-17.708 3.232-19.535 4.216-10.4 3.654-10.26 4.357 6.746 16.303 7.168 17.849 6.043 14.054 6.043 16.162 2.249 16.444 2.249 17.006 8.151-2.67 9.276-3.373c1.124-0.703 15.881-8.292 17.427-8.854s12.649-4.92 13.914-5.2c1.265-0.281 9.275-3.654 10.821-3.654-0.14-0.984-0.843-2.39-0.843-5.622-0.843 0.843-9.978-28.109-10.54-29.233-0.563-1.124-2.811-8.01-2.811-8.01z" fill="url(#l)" fill-rule="evenodd"/>
 <path d="M58.325 106.854s12.79 7.308 13.633 8.573c.843 1.264 20.238 13.492 20.519 14.757.28 1.264 1.124 4.919.14 5.34-.983.422-13.632-5.2-14.757-6.886-1.124-1.687-10.962-10.682-12.227-11.525-1.265-.843-6.886-4.638-7.308-5.622-.422-.983-.562-4.356 0-4.637z" fill="url(#m)" fill-rule="evenodd"/>
 <path d="m58.184 106.43s28.25-11.665 29.374-11.806c1.124-0.14 23.61-10.26 24.595-10.26 0.983 0 7.73 4.639 8.573 5.2 0.843 0.563 24.876 12.369 25.016 13.352 0.14 0.984-1.686 1.687-3.373 2.67-1.872 1.355-8.713 5.622-15.038 8.995-2.53 0.422-27.124 11.806-28.67 12.65-1.546 0.842-4.779 3.372-5.903 2.81s-16.303-11.384-17.568-12.227-15.74-12.087-17.006-11.384z" fill="url(#n)" fill-rule="evenodd"/>
 <path d="M145.854 103.731s-3.71 2.133-5.007 2.967c-1.298.835-8.994 5.656-10.107 6.12-1.113.464-14.372 6.49-15.485 7.14-1.113.649-21.419 9.272-22.346 10.2-.928.926.278 5.006-.093 5.192-.37.185 4.914-2.318 5.656-2.875.742-.556 23.366-10.385 25.314-11.034 1.947-.649 10.848-3.894 11.126-3.987.279-.093 7.14-2.967 7.79-3.523.648-.557 5.563-3.895 3.152-10.2z" fill="url(#o)" fill-rule="evenodd"/>
 <path d="M74.15 8.337c-2.979 1.843 1.841 6.451 1.636 9.275 4.349 10.93 8.365 23.12 11.895 34.333 2.503-.653-3.47-5.942 3.82-6.259-.264-.627-4.786.826-4.398-2.41-3.335-6.306 5.575-.233 8.012 1.048 6.413 4.126 13.055 8.787 16.82 15.611 1.19 4.569 4.073 9.856 5.412 14.849.943 3.78 3.946 11.485 2.284 13.224-3.368-.908-.941-4.046-2.418-7.39.945-5.872-5.318.267-8.927-1.158-7.553 1.322-14.012 5.673-20.705 9.08-8.856 3.782-17.701 7.579-26.816 10.714-3.416 1.976-11.724 2.19-8.188 7.956.321 2.138 2.53 9.78 2.946 4.457-1.128-4.096-4.278-9.841 2.535-10.276 9.082-3.318 17.826-6.865 26.638-10.853 5.722-2.137 8.62-4.26 13.456-6.319 5.244-3.174 10.784-3.466 16.446-5.027 2.183-.254.807 5.089 2.068 7.039-.985-2.177-6.625-2.687-3.05-.313 10.483 6.223 21.253 11.963 31.97 17.774 3.435-1.742-4.534-2.837-5.563-4.38-6.11-3.212-12.061-6.708-18.126-10.001-.973-10.417-4.9-20.286-8.827-29.895-.984-3.417-4.801-6.604-7.618-9.203-4.499-4.226-11.096-7.641-15.629-10.554-1.246-.985-4.512.098-4.46-1.041a1389.348 1389.348 0 00-7.87-20.894c-.352-2.862-2.721-7.375-3.343-9.387zm-.06.247c-5.641 1.408-13.984 2.507-19.723 3.83-10.659 1.643-21.67 3.41-31.413 8.25-4.763.958-1.303 4.627-.12 7.694C27.509 40.294 33.718 52 34.587 65.024c-2.344 1.693-5.056 5.869-1.204 2.117 1.79-4.573 2.423 6.424.124 1.425-5.152-2.645 1.887 5.273 3.306 5.382 2.238-1.688 6.576-2.58 9.37-4.299 9.788-5.598 19.705-9.818 30.311-13.56 5.94-2.449 11.983-4.172 18.29-5.357 3.18-1.517-1.868-7.13-3.769-5.274 2.369 1.3 6.243 5.406.296 5.354-9.717 2.226-18.832 6.424-28.203 9.741-8.915 3.473-16.968 8.777-25.806 12.398-.74-1.804-1.012-7.368-1.376-8.728-1.075-13.647-8.217-25.555-12.977-38.142-4.706-5.957 6.517-6.231 10.141-8.557 9.82-2.91 20.042-4.203 30.134-5.793 2.84-.128 10.96-1.709 10.865-3.147zM32.782 52.966C26.99 54.41 21.56 58.698 17.457 62.86c-3.086 3.784-1.944 10.545-2.786 15.434-.312 8.36-.17 16.77.886 25.077 1.967 2.479 8.351 5.778 12.22 7.879 8.142 3.752 27.723 6.444 25.023 7.115 4.795-1.818 9.827-5.24 13.48.364 5.196 3.243 8.387 8.688 13.464 12.03 3.571 1.428 9.105 6.988 12.93 5.068-6.46-2.422-14.47-6.955-18.856-12.656-4.914-4.564-11.104-9.1-16.212-13.445 1.184 2.517-3.299 2.333-2.566 3.1-.426 1.74 4.203-.927 5.118 1.094 2.886 1.963-5.594 2.23-7.305 3.51-1.54-1.1-5.719-2.018-9.046-2.637-9.514-2.952-19.006-5.694-26.866-11.88-1.745-12.12-1.732-24.571.24-36.658.074-6.683 5.857 1.292 8.686 2.518 6.11 4.799 11.987 9.99 16.858 16.069 2.383-2.425 7.417-5.07 11.326-7.007 16.532-8.782 36.394-17.062 54.939-19.897 2.588.195 4.123-1.894 1.195-.886-4.564.522-8.838 1.806-13.45 2.768-18.536 4.493-37.02 13.631-53.269 23.536.595.129-4.925-5.016-6.713-6.921-5.394-5.154-11.285-9.757-17.28-14.184 3.323-3.743 9.119-6.32 13.41-8.502 1.02-.513-.368-.573-.1-.784zm75.368 7.872c-1.731.57-6.005 5.14-2.394 3.708.996-5.265 6.316.266 1.676 1.527-1.104-3.596-4.672-.797-1.328.887 3.67 1.037 6.662-5.034 2.046-6.122zM43.616 83.25c-2.837 2.435 3.233 8.312 2.856 11.986 1.509 5.857 3.721 11.877 3.75 17.943 1.255-.73 2.19 7.6 3.47 3.896-.945-3.574-3.611-8.162-3.963-12.732-1.102-6.897-2.94-14.836-6.113-21.093zm68.557.414C95.78 90.859 78.72 97.809 61.89 103.93c-1.797 1.107-5.466 1.642-5.052 4.187.03 5.484 2.131.567 1.995-.23 9.607 5.675 18.724 12.11 27.648 18.797 3.556.647 5.915 6.257 5.907 9.237 2.712-1.531-.757-6.748 3.704-6.7 10.298-4.644 20.556-9.811 30.863-14.42 6.374-3.309 12.782-6.719 18.465-11.069-4.965 2.423-9.074 6.413-14.286 8.54-9.484 4.899-19.55 8.575-29.192 13.158-3.432.602-7.465 5.1-10.047 3.025-3.206-3.01-6.465-3.678-9.79-6.585-7.426-5.645-15.328-10.595-23.164-15.633 12.227-4.07 24.024-9.372 35.97-14.2 5.292-2.48 12.824-4.375 17.967-7.076 1.522.17-.873-1.166-.706-1.297zm34.25 18.954c-3.39 1.209.323 7.392-2.006 9.4-6.91 5.54-16.045 7.088-24.143 10.276-9.597 3.588-19.27 7.678-27.82 13.34 4.181-2.098 8.54-4.072 12.844-6.007 9.555-4.948 19.826-8.204 29.813-12.063 4.234-2.687 11.58-3.436 11.507-9.11.214-1.787-.17-4.032-.194-5.836z"/>
</svg>
