<?xml version="1.0" encoding="UTF-8"?>
<svg width="106.67" height="106.67" xmlns="http://www.w3.org/2000/svg" xmlns:xlink="http://www.w3.org/1999/xlink">
 <defs>
  <linearGradient id="c">
   <stop offset="0"/>
   <stop stop-color="#404040" offset="1"/>
  </linearGradient>
  <linearGradient id="a">
   <stop stop-color="#858585" offset="0"/>
   <stop stop-color="#e8eded" offset="1"/>
  </linearGradient>
  <linearGradient id="b">
   <stop stop-color="#858585" offset="0"/>
   <stop stop-color="#e8e8e8" offset=".5"/>
   <stop stop-color="#858585" offset="1"/>
  </linearGradient>
  <linearGradient id="l" x1="68.399" x2="61.441" y1="34.281" y2="41.813" gradientTransform="scale(1.0177 .98257)" gradientUnits="userSpaceOnUse" xlink:href="#c"/>
  <linearGradient id="k" x1="62.742" x2="48.892" y1="76.062" y2="88.237" gradientTransform="scale(1.1737 .852)" gradientUnits="userSpaceOnUse" xlink:href="#c"/>
  <linearGradient id="j" x1="34.761" x2="30.641" y1="46.421" y2="53.586" gradientTransform="matrix(1.3683 0 0 .73084 -2.606 .489)" gradientUnits="userSpaceOnUse" xlink:href="#a"/>
  <linearGradient id="i" x1="57.665" x2="65.887" y1="59.88" y2="77.847" gradientTransform="scale(.97442 1.0262)" gradientUnits="userSpaceOnUse" xlink:href="#b"/>
  <linearGradient id="h" x1="64.37" x2="84.034" y1="54.032" y2="69.773" gradientTransform="scale(.98484 1.0154)" gradientUnits="userSpaceOnUse" xlink:href="#b"/>
  <linearGradient id="g" x1="41.567" x2="91.667" y1="77.066" y2="31.55" gradientTransform="scale(1.1087 .90192)" gradientUnits="userSpaceOnUse" xlink:href="#a"/>
  <linearGradient id="f" x1="11.688" x2="46.301" y1="99.943" y2="59.377" gradientTransform="scale(1.3533 .73892)" gradientUnits="userSpaceOnUse" xlink:href="#a"/>
  <linearGradient id="e" x1="65.452" x2="7.254" y1="41.102" y2="94.414" gradientTransform="scale(1.3395 .74657)" gradientUnits="userSpaceOnUse" xlink:href="#a"/>
  <linearGradient id="m" x1="-.454" x2="28.579" y1="37.466" y2="38.967" gradientTransform="scale(.62994 1.5874)" gradientUnits="userSpaceOnUse">
   <stop offset="0"/>
   <stop stop-opacity="0" offset="1"/>
  </linearGradient>
 </defs>
 <path d="M8.953 30.405s6.25-3.04 11.655-3.547c6.757.507 50.507 2.534 51.69 2.365 1.182-.169 18.58.507 19.256 1.52 4.899 2.534 3.885 7.602 4.73 14.527.844 6.926 1.182 18.75-2.365 23.987-3.547 5.236-3.04 5.574-4.392 6.588.845-4.561.676-19.088.676-22.973 0-3.886 3.378-16.892-3.717-18.581-7.094-1.69-30.236-1.69-35.81-2.027-5.575-.338-21.284-.507-26.69-1.014-5.405-.507-10.304-1.014-15.033-.845z" fill="url(#e)" fill-rule="evenodd"/>
 <path d="M8.277 31.081s35.642.676 37.5.845c1.858.169 33.446 1.013 36.824 1.351 3.379.338 7.264 2.365 7.602 4.899.338 2.533-1.014 35.642-1.352 36.993-.337 1.351-1.858 2.703-2.533 2.703-.676 0-32.94 0-35.642-.17-2.703-.168-31.926-2.702-35.98-4.56-4.73 1.351-9.797-12.838-10.135-20.777.844-7.601-1.52-18.92 3.716-21.284z" fill="url(#f)" fill-rule="evenodd"/>
 <path d="M54.56 61.824s-2.195-5.236-1.013-7.432c1.183-2.196 4.73-6.419 8.108-8.277 7.433-2.196 18.75 1.182 21.79 4.223 3.041 3.04 6.25 10.473 4.224 16.047-2.027 5.574-3.378 8.277-7.095 7.433-3.716-.845-23.986-5.575-26.013-11.994z" fill="url(#g)" fill-rule="evenodd"/>
 <path d="M57.264 57.601c1.689-1.013 3.209-9.121 11.148-7.77 7.94 1.351 14.358 4.899 15.034 9.46.676 4.56 1.013 9.797-.338 11.486-4.56 2.365-1.182 1.014-3.21 3.21-2.026 2.195-3.209 1.52-4.391 3.209-1.183 1.69-19.257-13.514-18.243-19.595z" fill="url(#h)" fill-rule="evenodd"/>
 <path d="M57.94 57.94s6.925-2.197 11.486.675c4.56 2.871 6.419 6.588 7.263 10.81.845 4.224.507 8.616-2.196 9.798-2.702 1.182-8.446 4.392-12.33 2.365-3.886-2.027-8.278-4.223-8.616-7.77-.338-3.548-1.351-13.176 4.392-15.879z" fill="url(#i)" fill-rule="evenodd"/>
 <path d="m26.448 33.597s15.71 0.338 17.568 2.365 0.507 6.756-0.17 8.108c-7.094-0.676-13.175-0.338-17.398-1.352-0.507-1.351-2.196-6.25 0-9.121z" fill="url(#j)" fill-rule="evenodd"/>
 <path d="M70.44 64.358s2.026 6.757 1.52 8.953c-.507 2.196-8.784 1.182-12.67 1.351-1.52-.844-3.378-10.473-1.35-10.642 2.026-.169 6.925-.338 12.5.338z" fill="url(#k)" fill-rule="evenodd"/>
 <path d="M66.554 36.824s.117 6.16-3.327 7.719c-1.689 1.013-4.612 1.234-6.301-.624-1.69-1.858-2.365-9.797 4.054-8.953 6.419.845 3.547-.507 5.574 1.858z" fill="url(#l)" fill-rule="evenodd"/>
 <path d="M21.661 31.433s-13.518-1.628-14.006-.488c-2.932 2.28-3.42 12.215-3.258 14.82.163 5.05 3.583 21.987 5.375 24.268 1.792 2.28 9.935 4.234 11.075 4.071-2.769-5.374-13.844-38.762.814-42.67z" fill="url(#m)" fill-rule="evenodd"/>
 <path d="M22.594 25.938c-4.75.396-9.92 2.62-13.969 3.78-.194.159-.19.227-.313.345-.017.016-.046.015-.062.03-.18.131-.351.245-.531.376-.306.13-.775.495-1.25.906-.053.038-.073.087-.125.125-1.13 1.02-2.325 2.563-2.063 4.031-.466 4.667-1.154 9.38-.781 14.063.18 4.857 1.047 8.629 2.125 12.843.852 3.896 1.42 9.144 5.781 10.688 5.346 1.59 11.02 1.782 16.5 2.719C36.042 77.24 46.638 77.925 55 78.156c1.431 1.83 3.432 3.198 5.75 3.688 4.49 1.038 9.445.382 13.406-2.031.872-.374 1.488-.945 1.969-1.626 3.64-.072 10.848 1.11 13.25-1.968-.026.41.51.186 1.938-1.031 5.916-8.126 7.3-18.733 6.062-28.532-1.37-5.326 1.048-12.757-4.406-16.156-7.393-2.773-15.743-1.899-23.563-2.063-13.737-.803-28.205-.667-42.25-2.156-1.435-.381-2.98-.476-4.562-.343zm-1.219 1.375c5.186-.177 10.392.672 15.625 1 13.641.673 26.88 1.18 40.313 1.593 5.47 1.112 13.278-.958 16.406 4.969 1.128 10.052 3.327 20.526.406 30.5.248 2.37-3.271 7.675-4.25 9.844 1.924-4.244 1.365-9.172 1.344-13.719-.167-4.776.213-9.557.031-14.344-.343-3.94.93-8.3-.938-11.937-2.654-2.506-6.584-3.295-10.156-3.188-8.133.66-16.114-.327-24.469-.25-6.737-.532-13.47-.873-20.218-1.25-8.388.192-16.773-.372-25.157-.437 2.317-.826 5.427-2.176 5.876-2.219 1.728-.336 3.458-.504 5.187-.563zM7.594 31.468c4.735-.194 9.491.069 14.218.343 7.895.187 15.82-.043 23.688.782 6.25-.058 12.343.767 18.594.656 5.935.5 11.83-.193 17.75.406 2.736.654 6.567 1.394 7.125 4.688.333 5.798.126 11.628.156 17.437-.065.624.027 1.25 0 1.875-.404-2.14-1.108-4.228-2.375-6.031-2.84-3.115-6.727-5.308-10.813-6.344-4.464-1.483-9.35-1.124-13.78.282-3.528 1.706-6.484 4.558-8.75 7.718-1.328 1.52-.117 7.222.124 8.313-.365.641-.613 1.298-.656 1.937-.48 2.596-.269 5.272-.25 7.907.008 1.872.633 3.686 1.563 5.312-14.793-.289-25.294-1.755-39.938-4.719-4.016-.802-5.426-5.183-6.031-8.719-1.102-3.812-2.206-7.27-2.652-11.299-.336-3.628.032-7.381.214-10.92.568-3.194.06-6.781 1.813-9.624zm18.629 2.087c-.584.513-1.225.047-1.735.645.324-.05.537.54.86.513-.873.884-1.17 2.834-.923 3.8-.037 1.671-.277 3.94 1.532 4.812 3.652.745 7.429.095 11.125.468 2.296.015 4.522 1.313 6.812.75.006.007-.006.025 0 .032 1.013.018 1.194-.362 1.063-.75.929-1.101.821-2.94.562-4.282-.667-1.184 1.777-2.94.469-3.406-2.157.944 1.787-.666-.219-1.25-6.572.307-12.957-2.137-19.546-1.332zm-8.004-.056c-1.612.487-3.121 1.324-3.969 2.844-1.935 3.73-1.505 8.17-1.188 12.218.85 4.098 1.17 8.3 2.282 12.344 1.085 2.24 1.024 5.81 3.125 6.907 3.049-1.569-1.071-5.423-1-8.032-.988-4.703-2.01-9.426-2.469-14.218-.01-4.137-.497-9.261 3.219-12.063zm10.128 1.12c3.72.233 7.261.848 10.953 1.33 2.102.023 4.794-.039 4.844 1.626.188 1.124-.656 3.684-.656 5.468-.197.008-.399-.027-.594.063-3.255-.724-6.58-.923-9.906-.875-1.985-.14-4.672.72-6.031-1.188-.811-1.861-1.195-3.491-.39-6.58.519-.007 1.154.123 1.78.156zm33.747-.526c-.87.024-1.75.22-2.563.468-1.634.631-3.298 1.307-4.562 2.563-1.916 2.265-1.078 6.11 1.5 7.5 2.016 1.186 4.59 1.198 6.687.219 1.279-.703 2.836-1.174 3.625-2.5.687-1.68.812-3.532.531-5.313-.17-.466.048-1.308-.593-1.437-.32.024-.572.25-.844.406-.227-.588-.742-1.004-1.25-1.344-.776-.437-1.662-.586-2.531-.562zM60.812 35.5c1.343.05 3.608 1.98 3.813 1.875.061-.037.146-.064.219-.094.409 1.607.494 3.293.125 4.907-.014.617-.421 1.113-.813 1.562-.077.074-.036.052-.062.094-1.351.251-2.745.411-4.094.093-1.62-.367-3.086-1.514-3.594-3.124-.563-1.57-.252-3.51.969-4.688.07-.01.12.023.188 0 1.06-.3 2.13-.696 3.25-.625zm5.907 10.219c5.383-.103 10.85 1.555 15.219 4.718 3.699 2.227 5.069 6.553 5.343 10.626.198 4.081-.523 8.307-3.656 11.28 1.542-.177-1.185.08-3.094.688.13-.18.274-.352.406-.531 2.281-.278 3.496-2.65 3.75-4.719A21.796 21.796 0 0083.594 57.5c-1.46-2.76-3.925-4.855-6.344-6.75-2.271-1.504-5.077-1.9-7.75-1.781-3.013-.08-6.487.22-8.594 2.656-1.37 1.896-2.416 4.04-4.218 5.594-.73.709-1.241 1.854-1.844 2.718l-.032.032c.582-3.493-.413-8.134 3.063-10.407.621-.795 4.706-3.824 3.406-3.093-.108.77 3.92-.764 5.438-.75zm2.031 4.687c2.632.033 5.308.707 7.375 2.407 1.984 1.528 3.776 3.368 5.094 5.5 1.356 2.765 1.473 5.946 1.469 8.968-.08 1.16-.401 2.296-.844 3.375l-1.625.75c-.828.988-1.907 2.519-2.906 3.25.16-.946.374-1.898.468-2.781.639-4.22-1.429-8.216-4-11.406-1.636-2.43-4.572-2.867-7.25-3.125-2.58-.905-5.295-.702-7.969-.469.417-.538.823-1.095 1.282-1.531.949-1.028 1.818-2.205 2.218-3.563-1.263.72.671-.843 1.157-.968 1.762-.482 3.695-.362 5.531-.407zm-8.344 7.657c3.341.603 7.077.514 10 2.374 2.731 2.558 4.924 6.053 5.281 9.844-.086 2.962.076 5.548-1.593 8.125.65.38-.946 1.208-2.031 1.688-4.748 1.252-10.677 1.372-14.313-2.469-2.876-2.698-3.1-6.848-2.969-10.531-.314-3.058.437-6.245 2.5-8.594-.545.325.18-.156.313-.25.763.073 2.15-.106 2.812-.188zM59.22 62.78l-.188.125a4.261 4.261 0 00-1.562.532c-.067.107-.126.22-.125.312l-.375.188c-.378.878-.655 1.87-.813 2.843-.365 1.188-.266 2.338-.031 3.531.332 1.29 1.426 3.799 2.188 4.876l.187-.094c2.909-.14 5.808-.052 8.719-.031.909 0 1.814-.03 2.719.062 0 0 1.099-.22.968.094l2.25-1c.366-1.16.417-2.373.531-3.594.044-1.42.036-2.868-.562-4.188-.656-1.334-1.542-2.5-2.469-3.656l-.969.532c-.12.006-.225.014-.343.03-1.431.116-2.873.222-4.313.157-2.114-.049-4.025-.823-5.844-.625l.032-.094zm-1.75.657c.024-.04.06-.084.093-.126l-.75.563a4.68 4.68 0 01.657-.438zm11.343 1.03c.855.97 1.605 2.016 2.157 3.188.572 1.283.545 2.686.5 4.063-.081.659-.105 1.297-.188 1.937a31.037 31.037 0 00-2.062-.062c-2.86.02-6.603.792-9.5.687-.103-.285-1.139-3.898-1.438-5.125-.212-1.17-.235-2.307.094-3.469.077-.391.176-.773.281-1.156 1.35.303 3.403.365 4.407.406 1.441.08 2.879-.023 4.312-.156.357-.033.706-.039 1.063-.062l.374-.25zm20.282 1.563c.052 2.428.043 4.853-.438 7.25.546 1.208-1.46 3.402-1.625 4.063-1.183-.493-8.237-.192-10.25-.344l1.406-.625c.477-.727.977-1.44 1.47-2.156 3.987-.245 8.553-3.504 9.312-7.188.066-.321.068-.673.125-1z"/>
</svg>
