<svg width="400pt" height="400pt" xmlns="http://www.w3.org/2000/svg"><path d="M52.571 53.993h354.432l36.46 35.613-1.695 357.823-388.349-1.696-.848-391.74z" fill="#00007b" fill-rule="evenodd" stroke="#000" stroke-width="3.75"/><path d="M371.39 53.993v91.576s-2.544 13.566-16.111 17.806c-13.566.847-198.413.848-198.413.848-.848.848-11.871-6.784-12.719-11.871-.848-5.088-1.696-6.783-1.696-6.783s1.696-92.424.848-92.424 228.939.848 228.091.848z" transform="matrix(1 0 0 1.15258 0 -6.413)" fill="#a3a6a6" fill-rule="evenodd" stroke="#000" stroke-width="2.329"/><path font-size="12" fill="#fff" fill-rule="evenodd" d="M89.88 249.863h321.363v185.695H89.88z"/><path d="M334.929 76.039h-52.571v89.032h52.571V76.039z" fill="#00007b" fill-rule="evenodd" stroke="#000" stroke-width="2.5"/><path font-size="12" fill="#dd8080" fill-rule="evenodd" d="M89.88 249.863h321.363v55.115H89.88zM105.142 335.503h287.446v6.783H105.142zM104.294 371.116H391.74v5.935H104.294z"/><path font-size="12" fill="#df8080" fill-rule="evenodd" d="M105.142 406.729H391.74v5.935H105.142z"/><path font-size="12" fill-rule="evenodd" d="M159.409 75.191h78.857v5.088h-78.857zM161.105 87.91h58.507v5.088h-58.507z"/><path font-size="12" fill="#180003" fill-rule="evenodd" d="M161.105 100.629h76.313v5.088h-76.313z"/><path font-size="12" fill="#fff" fill-rule="evenodd" d="M105.99 261.734h114.469v5.935H105.99zM106.838 277.844h44.092v5.088h-44.092zM178.064 277.844h33.917v5.088h-33.917z"/><path d="M150.317 158.228c1.582-4.747-1.583-94.937 4.746-94.937 6.329 0 137.659-1.582 137.659-1.582-60.127 6.329-128.165 4.747-142.405 96.519z" fill="#fff" fill-rule="evenodd" fill-opacity=".5"/></svg>