<svg xmlns="http://www.w3.org/2000/svg" width="106.667" height="106.667"><path fill="none" stroke="#000" stroke-width="1.25" stroke-linejoin="round" d="M3.196 3.615h92.682V96.26H3.196zM34.891 3.25l-.708 92.912M66.075 3.378l-.576 93M95.997 65.207l-92.92-.576M96.037 33.94l-93-.542"/><path d="M62.662 18.52a12.5 12.5 0 10-25 0 12.5 12.5 0 1025 0zM93.912 49.943a12.5 12.5 0 10-25 0 12.5 12.5 0 1025 0zM93.912 80.544a12.5 12.5 0 10-25 0 12.5 12.5 0 1025 0zM62.662 80.544a12.5 12.5 0 10-25 0 12.5 12.5 0 1025 0zM31.412 80.544a12.5 12.5 0 10-25 0 12.5 12.5 0 1025 0z" fill-rule="evenodd"/><path d="M5.27 4.739a.625.625 0 00-.563.625V98.02c0 .345.28.625.625.625h92.687c.346 0 .625-.28.625-.625V5.364a.625.625 0 00-.625-.625H5.332a.625.625 0 00-.063 0zm.687 1.25h30.437l-.218 28.75-30.22-.188V5.99zm31.687 0h29.938l-.188 28.906-29.968-.156.218-28.75zm31.188 0h28.562v29.093l-28.75-.156.188-28.937zM52.3 7.769c-6.9 0-12.5 5.6-12.5 12.5s5.6 12.5 12.5 12.5 12.5-5.6 12.5-12.5-5.6-12.5-12.5-12.5zM5.957 35.802l30.219.188-.22 29.968-30-.187V35.8zm31.469.188l29.968.156-.187 30-30-.188.219-29.968zm31.218.187l28.75.156v30l-28.937-.187.187-29.969zm14.907 3.031c-6.9 0-12.5 5.6-12.5 12.5s5.6 12.5 12.5 12.5 12.5-5.6 12.5-12.5-5.6-12.5-12.5-12.5zM5.957 67.02l29.969.187-.22 30.188H5.957V67.02zm31.219.187l30.03.188-.187 30H36.957l.219-30.188zm31.28.188l28.938.187v29.813H68.27l.188-30zM21.052 69.8c-6.9 0-12.5 5.6-12.5 12.5s5.6 12.5 12.5 12.5 12.5-5.6 12.5-12.5-5.6-12.5-12.5-12.5zm31.25 0c-6.9 0-12.5 5.6-12.5 12.5s5.6 12.5 12.5 12.5 12.5-5.6 12.5-12.5-5.6-12.5-12.5-12.5zm31.25 0c-6.9 0-12.5 5.6-12.5 12.5s5.6 12.5 12.5 12.5 12.5-5.6 12.5-12.5-5.6-12.5-12.5-12.5z" fill-opacity=".25" fill-rule="evenodd"/></svg>