<?xml version="1.0" encoding="UTF-8"?>
<svg width="400pt" height="400pt" xmlns="http://www.w3.org/2000/svg" xmlns:xlink="http://www.w3.org/1999/xlink">
 <path d="m183.54 186.71s229.43-6.329 234.18 1.582c4.746 7.912 33.227 58.544 33.227 58.544s-30.063-53.797-267.4-60.126z" fill-opacity=".252" fill-rule="evenodd"/>
 <g fill-rule="evenodd" font-size="12" stroke="#000" stroke-linejoin="bevel" stroke-width="3.75">
  <path d="M30 251.25l443.75 1.25 3.75 86.25L28.75 340 30 251.25z" fill="#4c4b4c"/>
  <path d="M28.75 250c1.25-1.25 75-68.75 75-68.75H422.5l51.25 72.5-445-3.75z" fill="#4c4b4c"/>
  <path d="M438.75 266.25v17.5h18.75v-17.5h-18.75zM405 266.25v17.5h18.75v-17.5H405zM373.75 266.25v17.5h18.75v-17.5h-18.75zM341.25 266.25v17.5H360v-17.5h-18.75zM310 266.25v17.5h18.75v-17.5H310zM280 266.25v17.5h18.75v-17.5H280zM250 266.25v17.5h18.75v-17.5H250zM220 266.25v17.5h18.75v-17.5H220zM190 266.25v17.5h18.75v-17.5H190zM158.75 266.25v17.5h18.75v-17.5h-18.75zM130 266.25v17.5h18.75v-17.5H130zM100 266.25v17.5h18.75v-17.5H100zM68.75 266.25v17.5H87.5v-17.5H68.75zM40 266.25v17.5h18.75v-17.5H40zM440 305v17.5h18.75V305H440zM406.25 305v17.5H425V305h-18.75zM375 305v17.5h18.75V305H375zM342.5 305v17.5h18.75V305H342.5zM311.25 305v17.5H330V305h-18.75zM281.25 305v17.5H300V305h-18.75zM251.25 305v17.5H270V305h-18.75zM221.25 305v17.5H240V305h-18.75zM191.25 305v17.5H210V305h-18.75zM160 305v17.5h18.75V305H160zM131.25 305v17.5H150V305h-18.75zM101.25 305v17.5H120V305h-18.75zM70 305v17.5h18.75V305H70zM41.25 305v17.5H60V305H41.25z"/>
 </g>
</svg>
