<?xml version="1.0" encoding="UTF-8"?>
<svg width="400pt" height="400pt" xmlns="http://www.w3.org/2000/svg" xmlns:xlink="http://www.w3.org/1999/xlink">
 <g fill-rule="evenodd" stroke="#000" stroke-linejoin="bevel" stroke-width="2.5">
  <path d="m39.557 300.63 418.51-64.874v24.526l-418.51 65.665v-25.317z" fill="#b2b3b3"/>
  <path d="m39.557 300.63c2.373-3.956 51.424-101.27 51.424-101.27l280.06-26.108 87.026 62.5-418.51 64.874z" fill="#ccc"/>
  <g fill="#e5e6e6">
   <path d="m331.49 184.34s0.792 8.703 0.792 9.494 34.019 40.348 34.019 40.348l57.753-9.494-0.791-6.329h-0.792l-90.981-34.019z"/>
   <path d="m332.28 184.34 37.183-3.956 54.589 37.974-53.798 7.121-37.974-41.139zm-34.811 11.075v8.703c0 0.791 20.57 37.183 21.361 37.183s34.81-4.746 34.81-4.746l-1.582-9.494"/>
   <path d="m298.26 195.41c0.791 0 24.525-2.373 24.525-2.373l30.063 34.019-30.854 4.747-23.734-36.393zm-208.07 13.45 7.911-13.45 174.84-17.405 9.494 11.076-192.25 19.779z"/>
   <path d="m90.19 209.65-0.791 5.538 193.04-20.57v-6.329l-192.25 21.361z"/>
   <path d="m90.981 215.98 196.2-21.361 22.152 34.81-237.34 32.437 18.987-45.886z"/>
   <path d="m71.994 261.08-0.791 7.911 238.13-32.436c0.791 0-0.792-6.33-0.792-7.121s-236.55 34.019-236.55 31.646z"/>
   <path d="m82.278 274.52 219.15-32.436 4.747 8.702-226.27 33.228 2.373-9.494z"/>
   <path d="m79.114 284.81v7.12l227.06-36.392-0.791-5.538-226.27 34.81z"/>
  </g>
 </g>
 <path d="m81.198 254.19c0-1.476 6.643-32.479 12.548-34.693 10.334-2.953 144.68-16.978 144.68-16.978-82.674 15.501-153.54 10.334-157.23 51.671z" fill="#fff" fill-opacity=".75" fill-rule="evenodd"/>
 <path d="m369.08 182.59c0-0.739-31.003 2.214-30.265 5.167 0.738 2.952 26.574 29.526 26.574 28.788s-39.861-34.694 3.691-33.955zm-48.719 14.025c-2.214 0-15.501-2.953-15.501 1.476s14.763 24.359 14.763 24.359-18.454-27.312 0.738-25.835z" fill="#fff" fill-opacity=".749" fill-rule="evenodd"/>
 <path d="m452.49 239.43c0-1.476 7.382 12.548-0.738 16.977-8.119 4.429-296 47.243-294.52 47.243 33.955-8.12 287.88-39.861 295.26-64.22z" fill-opacity=".25" fill-rule="evenodd"/>
</svg>
