<?xml version="1.0" encoding="UTF-8"?>
<svg width="400pt" height="400pt" xmlns="http://www.w3.org/2000/svg" xmlns:xlink="http://www.w3.org/1999/xlink">
 <defs>
  <linearGradient id="b" x1=".476" x2="-.131" y1=".602" y2="-.125" spreadMethod="reflect">
   <stop stop-color="#263d42" offset="0"/>
   <stop stop-color="#9acde7" offset="1"/>
  </linearGradient>
 </defs>
 <g fill-rule="evenodd" font-size="12" stroke="#000" stroke-linejoin="bevel" stroke-width="3.75">
  <g fill="#383838">
   <path d="m73.05 325.65h352.59l60.389 60.39-443.17 2.921 30.195-63.31z"/>
   <path d="M42.856 387.989v15.584l442.199-2.922v-14.61l-442.199 1.948zM73.05 325.653c-4.58-2.238-1.078-5.305-.974-5.844 1.949 0 353.565-.974 353.565-.974.395.27 3.606 2.363 0 5.844-6.818.974-352.59 2.922-352.59.974z"/>
  </g>
  <path d="m71.103 318.84-1.948-207.46s7.792-17.532 18.506-18.506 331.16 0.974 331.16 0.974 5.844 1.948 6.818 8.766-0.974 215.26-0.974 215.26l-353.56 0.974z" fill="#383838"/>
  <path d="m87.66 114.29s3.897-7.792 10.715-7.792h301.94s8.766 5.844 8.766 11.688v181.17s0.974 6.818-9.74 7.792-302.92-1.948-302.92-1.948-8.766-0.974-9.74-5.844c2.922-8.766 0-178.24 0.974-185.06z" fill="url(#b)"/>
  <path d="m75.972 330.52 346.75 0.974 42.856 42.856-408.11-1.948 18.506-41.882z" fill="#595959"/>
  <path d="m56.492 372.4v7.792h408.11v-5.844l-408.11-1.948z" fill="#4c4c4d"/>
 </g>
 <g fill="none" font-size="12" stroke="#000" stroke-width="1pt">
  <path d="M76.25 338.125c1.25 0 350 2.5 350 2.5M72.5 350h363.75M66.875 360l381.25 1.875-1.25.625"/>
  <path d="m111.25 333.75-13.125 36.875m71.875-36.25s-8.75 35-8.75 35.625m216.25-36.25 22.5 37.5m-83.75-38.75 5.625 36.875m-75-35 1.875 36.25"/>
 </g>
 <path d="m93.354 261.08c0-1.582-3.164-132.91 6.33-143.99 14.24-4.747 221.52-1.583 221.52-1.583s-226.27 3.165-227.85 145.57z" fill="#fff" fill-opacity=".5" fill-rule="evenodd"/>
 <path d="m170.89 367.09s264.24 11.076 264.24-1.583c0-12.658-15.823-31.645-15.823-31.645s18.987 31.645-248.42 33.228z" fill="#fff" fill-opacity=".311" fill-rule="evenodd"/>
</svg>
