<svg width="400pt" height="400pt" xmlns="http://www.w3.org/2000/svg"><path d="M62.5 187.5L271.25 240c55.833-55.833 107.917-81.667 167.5-111.25L222.5 76.25c-57.083 24.583-110.417 64.167-160 111.25z" fill="#e6e6e6" fill-rule="evenodd" stroke="#000" stroke-width="3.75" stroke-linejoin="bevel"/><path d="M60 187.5l-2.5 191.25L266.25 440s5-201.25 3.75-201.25-212.5-50-210-51.25z" fill="#e6e6e6" fill-rule="evenodd" stroke="#000" stroke-width="3.75"/><path d="M268.75 241.25C286.25 215 425 127.5 437.5 130l-6.25 192.5-165 120 2.5-201.25z" fill="#ccc" fill-rule="evenodd" stroke="#000" stroke-width="3.75" stroke-linejoin="bevel"/><path d="M110 175c39.167-13.333 97.083-37.917 113.75-55l123.75 35c-33.75 18.75-67.5 35-87.5 63.75-13.75-5-141.25-38.75-150-43.75z" fill="none" stroke="#000" stroke-width="3.75"/><path d="M222.5 120l60-77.5 100 25-35 87.5-125-35z" fill="#fff" fill-rule="evenodd" stroke="#000" stroke-width="3.75"/><path d="M65 337.5l196.25 61.25-1.25 35L65 375c-2.5-1.25 0-32.5 0-37.5zM65 330c3.75 1.25 195 62.5 195 60s1.25-36.25 1.25-37.5l-195-58.75L65 330z" fill="none" stroke="#000" stroke-width="3.75"/><path d="M66.944 371.499l5.386-10.003 1.539 11.542v.77M69.666 366.35c1.54.769 2.9.946 2.9.946M79.729 361.97l-3.67 6.451 3.67.475-.06 5.681M70.14 318.111l-.888 8.759 3.078 1.065M74.638 319.945s-.77 7.695-.77 8.464c0 .77 4.618 1.599 4.618 1.599M74.638 320.715l5.287 1.737M73.869 324.86l4.951 1.539M81.228 323.023l4.655 1.086M83.26 323.812l-.198 7.556" fill="none" stroke="#000" stroke-width="1pt"/><path d="M275.316 425.633c6.33-1.582 143.988-93.355 147.152-107.595 3.165-14.241 7.912-177.215 6.329-177.215-1.582 0 20.57 196.202-153.481 284.81z" fill-rule="evenodd" fill-opacity=".25"/><path d="M68.038 278.481c3.165-7.911-1.582-68.038 1.582-71.203 3.165-3.164 158.228 33.228 158.228 33.228s-147.152-41.139-159.81 37.975z" fill="#fff" fill-rule="evenodd" fill-opacity=".8"/><path d="M223.101 126.582c1.583 0 117.089 26.899 104.431 31.646-12.659 4.747-63.291 39.557-63.291 39.557s98.101-47.469-41.14-71.203z" fill-rule="evenodd" fill-opacity=".247"/></svg>