<svg width="400pt" height="400pt" xmlns="http://www.w3.org/2000/svg"><path d="M53.75 166.25C41.25 202.5 45 230 51.25 280c16.25 7.5 332.5 6.25 358.75-3.75 12.5-17.5 6.25-81.25 2.5-111.25-11.25-3.75-358.75 1.25-358.75 1.25z" transform="matrix(1.23188 0 0 1.2652 -38.041 28.246)" fill="#b3b3b3" fill-rule="evenodd" stroke="#000" stroke-width="3.004"/><path d="M62.5 260c1.25 0 81.25-112.5 81.25-112.5H372.5l50 111.25-360 1.25z" transform="matrix(1.23188 0 0 1.2652 -50.36 -90.366)" fill="#999" fill-rule="evenodd" stroke="#000" stroke-width="3.004" stroke-linejoin="bevel"/><path d="M95 303.75c1.25-23.75 35-23.75 36.25 0-1.25 22.5-35 25-36.25 0z" transform="matrix(1.23188 0 0 1.2652 -76.538 -88.785)" fill="#e63559" fill-rule="evenodd" stroke="#000" stroke-width="3.004"/><path d="M95 303.75c1.25-23.75 35-23.75 36.25 0-1.25 22.5-35 25-36.25 0z" transform="matrix(1.23188 0 0 1.2652 -8.784 -88.785)" fill="#9f5559" fill-rule="evenodd" stroke="#000" stroke-width="3.004"/><path d="M95 303.75c1.25-23.75 35-23.75 36.25 0-1.25 22.5-35 25-36.25 0z" transform="matrix(1.23188 0 0 1.2652 63.589 -88.785)" fill="#e63559" fill-rule="evenodd" stroke="#000" stroke-width="3.004"/><path d="M95 303.75c1.25-23.75 35-23.75 36.25 0-1.25 22.5-35 25-36.25 0z" transform="matrix(1.23188 0 0 1.2652 134.422 -90.366)" fill="#9f5559" fill-rule="evenodd" stroke="#000" stroke-width="3.004"/><path d="M453.75 370.625l-1.25-11.875-6.25 5.625-7.5-5.625v12.5M430 360h-13.75v11.25h12.5M416.25 365h7.5M397.5 360v12.5l10.625-3.125.625-7.5L397.5 360zM378.75 360H390l.625 11.875-11.875.625V360zM373.75 372.5l-1.25-11.875-6.25 5.625-7.5-5.625v12.5" fill="none" stroke="#000" stroke-width="1pt"/><path d="M196.203 101.266s189.873 0 199.367 1.582c9.493 1.582 52.215 121.836 52.215 121.836s-44.304-112.342-251.582-123.418z" fill-rule="evenodd" fill-opacity=".25"/><path d="M310.127 248.418s143.987-14.241 151.898 6.329c6.329 20.569 4.747 98.101 4.747 96.519-12.658-17.405 18.988-110.76-156.645-102.848z" fill="#fff" fill-rule="evenodd" fill-opacity=".496"/></svg>