<?xml version="1.0" encoding="UTF-8"?>
<svg width="400pt" height="400pt" xmlns="http://www.w3.org/2000/svg" xmlns:xlink="http://www.w3.org/1999/xlink">
 <defs>
  <linearGradient id="b" x1=".397" x2="-.452" y1=".531" y2="-.328" spreadMethod="reflect">
   <stop stop-color="#544742" offset="0"/>
   <stop stop-color="#f5ffff" offset="1"/>
  </linearGradient>
 </defs>
 <g fill-rule="evenodd" stroke="#000" stroke-width="1pt">
  <path d="m118.71 444.88v12.72l316.27-93.273 0.848-15.262-317.12 95.815z" fill="#b3b3b3" font-size="12"/>
  <g fill="#ccc">
   <path d="m165.34 366.88-46.636 78.857 317.12-96.663-91.576-31.374-178.91 49.18z" font-size="12"/>
   <path transform="matrix(.70812 0 0 .82531 71.307 59.206)" d="m139.06 335.5s-11.871 18.654-6.784 33.917c4.24 18.655 17.807 22.894 21.199 22.894s223.7-57.43 223.7-57.43 6.083-12.1 9.475-31.602c-6.783-23.742-19.502-26.286-33.917-26.286-23.742-13.566 0.849 0 0.849 0l-214.52 58.507z"/>
  </g>
  <path d="M420.57 16.684c0 .848-21.199-5.087-43.245-6.783-10.175.848-311.187 55.963-313.73 55.963 4.239-.848-9.328 0-12.72 7.631-3.391 7.631-3.391 269.639-3.391 269.639s0 7.632 5.087 13.567c7.632 3.392 27.982 4.24 20.35 4.24L420.57 16.684z" fill="#b3b3b3"/>
  <path transform="matrix(.99545 0 0 .91016 2.818 -20.11)" d="m71.233 108.01 347.64-67.583c5.088 3.392 10.176 0.848 12.72 11.023s-0.848 253.53-0.848 253.53 1.695 7.631-4.24 11.871c-5.936 4.239-346.84 100.06-346.84 100.06s-10.175 4.239-16.11-4.24c-8.48-2.543-3.358-288.29-3.358-288.29s0.825-13.65 11.031-16.361z" fill="#ccc"/>
  <path d="m89.032 98.084 305.25-59.354s7.631-2.543 13.567 6.784c5.935 9.327 4.239 13.566 4.239 13.566v175.52c-0.848 9.327 0.848 5.935-4.239 16.111-10.176 3.391-302.71 83.096-302.71 83.096s0 1.696-10.175 0-13.567-17.806-13.567-18.654-3.391-199.26-3.391-199.26 1.696-14.415 11.023-17.807z" fill="url(#b)"/>
  <path d="m368.85 266.82 29.677-8.479v13.567s-29.677 7.631-29.677 8.479v-13.567z" fill="#00feb3"/>
 </g>
 <path d="m88.608 300.63s-9.494-170.89-1.583-196.2c15.823-7.912 234.18-42.722 234.18-42.722s-235.76 17.405-232.6 238.92z" fill="#fff" fill-opacity=".5" fill-rule="evenodd"/>
 <path d="m348.1 327.53s66.456 12.658 60.127 20.569c-6.329 7.912-137.66 45.886-137.66 45.886s161.39-49.05 77.531-66.455zm-172.47 11.076c-4.747 7.911-15.823 14.24 0 39.557 14.241-1.583 15.822-34.81 0-39.557z" fill="#fff" fill-opacity=".498" fill-rule="evenodd"/>
</svg>
