<?xml version="1.0" encoding="UTF-8"?>
<svg width="400pt" height="400pt" xmlns="http://www.w3.org/2000/svg" xmlns:xlink="http://www.w3.org/1999/xlink">
 <path d="M60 357.5c8.75 28.75 63.75 72.5 123.75 71.25s233.75-160 258.75-196.25 19.378-69.308 22.25-87.526c0-17.5-127.25-59.974-161-56.224s-151.25 70-177.5 102.5S53.75 258.75 60 357.5z" fill="#f2f2f3" fill-rule="evenodd" stroke="#000" stroke-width="3.75"/>
 <path d="M230 118.75c2.5 3.75 77.5 36.25 77.5 36.25l81.649-48.737c-46.156-13.646-72.886-20.85-93.337-16.276C280.438 92.526 228.75 120 230 118.75zM313.75 161.25l87.5-50s55 15 60 25 13.75 15-16.25 36.25-46.25 30-46.25 30l-85-41.25z" fill="#ccc" fill-rule="evenodd" stroke="#000" stroke-width="3.75"/>
 <path d="m467.28 149.11s-3.526 10.891-8.526 14.641-43.75 31.25-50 37.5-41.25 27.5-57.5 60c-48.75 82.5-81.25 93.75-131.25 130-6.25 7.5-8.75 11.25-12.5 31.25 5 0 46.25-23.75 52.5-28.75 33.75-21.25 116.25-91.25 137.5-112.5 72.5-68.75 76.026-122.14 69.776-132.14z" fill="#ccc" fill-rule="evenodd" stroke="#000" stroke-width="3.75"/>
 <path d="m451.71 129.43c5.684 2.368 4.935 2.421 7.435 4.106 4.395 11.381 13.276 1.763-12.421 29.907-17.646 14.409-45.474 30.303-45.474 30.303m-178.12-61.25 53.125 28.75-9.375 4.375s-21.25-11.25-20-11.25 5-2.5 5-2.5l-16.25-9.375-5 3.125-13.125-8.75 5.625-4.375z" fill="none" stroke="#000" stroke-width="3.75"/>
 <path d="m63.774 352.31c0-2.238 1.119-67.13 12.307-61.536s102.93 62.655 101.82 62.655c-1.119 0-110.77-71.606-114.12-1.119z" fill="#fff" fill-opacity=".9" fill-rule="evenodd"/>
 <path d="m166.71 171.06c-30.208 1.118-89.507 88.388-88.388 98.458 2.237 16.783 90.626 69.368 90.626 69.368-33.565-30.209-74.962-98.458-2.238-167.83z" fill="#fff" fill-opacity=".902" fill-rule="evenodd"/>
 <path d="m462.08 169.94c0 7.832-8.951 72.725-137.62 165.59 85.032-83.913 98.459-101.81 137.62-165.59z" fill-opacity=".25" fill-rule="evenodd"/>
 <path d="m403.9 116.24s45.873 15.664 46.991 22.377c1.119 6.713-45.872 44.753-45.872 44.753s60.417-44.753-1.119-67.13z" fill-opacity=".247" fill-rule="evenodd"/>
</svg>
