<?xml version="1.0" encoding="UTF-8"?>
<svg width="400pt" height="400pt" xmlns="http://www.w3.org/2000/svg" xmlns:xlink="http://www.w3.org/1999/xlink">
 <path transform="matrix(.9617 0 0 1 12.638 0)" d="M127.5 106.25S126.25 18.75 231.25 45s86.25 70 87.5 70S300 61.25 380 51.25c72.5 6.25 106.25 20 102.5 66.25S443.75 175 443.75 175s63.75 6.25 46.25 100c-27.5 65-27.5 58.75-91.25 66.25-28.75-11.25-30-21.25-30-21.25s52.5 48.75-26.25 80c-88.75 23.75-100 2.5-137.5-8.75-36.25-22.5-28.75-50-28.75-50s22.5 46.25-53.75 55-105-8.75-118.75-80C0 262.5 67.5 257.5 67.5 257.5s-41.25 1.25-52.5-26.25-18.75-63.75 15-112.5c62.5-58.75 105-20 97.5-12.5z" fill="#fff" fill-rule="evenodd" stroke="#000" stroke-linejoin="bevel" stroke-width="3.75"/>
 <g stroke="#000" stroke-width="4.297">
  <path transform="matrix(.29867 0 0 .28327 108.41 82.493)" d="m299.84 180.38-122.63-106.01 73.576-2.373 134.49 90.189s-31.646 29.273-85.443 18.197zm-123.42-106.01 1.582 164.56 122.63 125.79 0.791-182.75-125-107.6z" fill="#b3b2b3" fill-rule="evenodd" stroke-linejoin="bevel"/>
  <path transform="matrix(.29867 0 0 .28327 108.41 82.493)" d="m302.22 181.17s26.107 3.164 45.886-0.791c26.898-10.285 37.974-16.614 37.974-16.614l0.791 178.8s-15.032 11.076-33.227 18.196c-30.064 6.329-53.007 3.956-53.007 3.956l1.583-183.54z" fill="#ccc" fill-rule="evenodd" stroke-linejoin="bevel"/>
  <path transform="matrix(.29867 0 0 .28327 107.94 82.493)" d="m315.66 205.7s63.291-13.449 63.291-12.658-0.791 25.316-0.791 25.316-61.709 13.45-62.5 13.45-0.791-24.526 0-26.108z" fill="none"/>
  <path transform="matrix(.29867 0 0 .28327 108.41 82.493)" d="m323.58 246.84 46.677-9.493v3.956l-46.677 10.284v-4.747z" fill="#000100" fill-rule="evenodd"/>
  <path transform="matrix(.29867 0 0 .28327 108.41 82.493)" d="m360.76 268.99 11.867-1.582v11.867l-11.867 2.374v-12.659z" fill="#00b300" fill-rule="evenodd"/>
  <path transform="matrix(.29867 0 0 .28327 108.41 82.493)" d="m365.51 298.26 7.912-0.791v9.494l-7.912 1.582v-10.285z" fill="#b3b3b3" fill-rule="evenodd"/>
  <g fill-rule="evenodd">
   <path transform="matrix(.25946 0 0 .23846 67.872 91.146)" d="m119.56 425.38v12.719l316.28-93.272 0.848-15.262-317.12 95.815z" fill="#b3b3b3" font-size="12"/>
   <g fill="#ccc">
    <path transform="matrix(.25946 0 0 .23846 67.872 91.146)" d="m166.19 347.37-46.636 78.857 317.12-96.663-91.576-31.374-178.91 49.18z" font-size="12"/>
    <path transform="matrix(.18373 0 0 .1968 86.593 100.61)" d="m139.06 335.5s-11.871 18.654-6.784 33.917c4.24 18.655 17.807 22.894 21.199 22.894s223.7-57.43 223.7-57.43 6.083-12.1 9.475-31.602c-6.783-23.742-19.502-26.286-33.917-26.286-23.742-13.566 0.849 0 0.849 0l-214.52 58.507z"/>
   </g>
   <path transform="matrix(.25946 0 0 .23846 68.092 86.496)" d="M420.57 16.684c0 .848-21.199-5.087-43.245-6.783-10.175.848-311.187 55.963-313.73 55.963 4.239-.848-9.328 0-12.72 7.631-3.391 7.631-3.391 269.639-3.391 269.639s0 7.632 5.087 13.567c7.632 3.392 27.982 4.24 20.35 4.24L420.57 16.684z" fill="#b3b3b3"/>
   <path transform="matrix(.25828 0 0 .21704 68.823 81.7)" d="m71.233 108.01 347.64-67.583c5.088 3.392 10.176 0.848 12.72 11.023s-0.848 253.53-0.848 253.53 1.695 7.631-4.24 11.871c-5.936 4.239-346.84 100.06-346.84 100.06s-10.175 4.239-16.11-4.24c-8.48-2.543-3.358-288.29-3.358-288.29s0.825-13.65 11.031-16.361z" fill="#ccc"/>
   <path transform="matrix(.25946 0 0 .23846 68.092 86.496)" d="m89.032 98.084 305.25-59.354s7.631-2.543 13.567 6.784c5.935 9.327 4.239 13.566 4.239 13.566v175.52c-0.848 9.327 0.848 5.935-4.239 16.111-10.176 3.391-302.71 83.096-302.71 83.096s0 1.696-10.175 0-13.567-17.806-13.567-18.654-3.391-199.26-3.391-199.26 1.696-14.415 11.023-17.807z" fill="url(#linearGradient614)"/>
   <path transform="matrix(.25946 0 0 .23846 68.092 86.496)" d="m368.85 266.82 29.677-8.479v13.567s-29.677 7.631-29.677 8.479v-13.567z" fill="#00feb3"/>
   <path transform="matrix(.31682 0 0 .25882 66.822 136.25)" d="m35.601 306.96 418.51-64.874v24.526l-418.51 65.665v-25.317z" fill="#b2b3b3"/>
   <path transform="matrix(.31682 0 0 .25882 65.569 137.88)" d="m39.557 300.63c2.373-3.956 51.424-101.27 51.424-101.27l280.06-26.108 87.026 62.5-418.51 64.874z" fill="#ccc"/>
   <g fill="#e5e6e6">
    <path transform="matrix(.31682 0 0 .25882 65.569 137.88)" d="m331.49 184.34s0.792 8.703 0.792 9.494 34.019 40.348 34.019 40.348l57.753-9.494-0.791-6.329h-0.792l-90.981-34.019z"/>
    <path transform="matrix(.31682 0 0 .25882 65.569 137.88)" d="m332.28 184.34 37.183-3.956 54.589 37.974-53.798 7.121-37.974-41.139zm-34.811 11.075v8.703c0 0.791 20.57 37.183 21.361 37.183s34.81-4.746 34.81-4.746l-1.582-9.494"/>
    <path transform="matrix(.31682 0 0 .25882 65.569 137.88)" d="m298.26 195.41c0.791 0 24.525-2.373 24.525-2.373l30.063 34.019-30.854 4.747-23.734-36.393zm-208.07 13.45 7.911-13.45 174.84-17.405 9.494 11.076-192.25 19.779z"/>
    <path transform="matrix(.31682 0 0 .25882 65.569 137.88)" d="m90.19 209.65-0.791 5.538 193.04-20.57v-6.329l-192.25 21.361z"/>
    <path transform="matrix(.31682 0 0 .25882 65.569 137.88)" d="m90.981 215.98 196.2-21.361 22.152 34.81-237.34 32.437 18.987-45.886z"/>
    <path transform="matrix(.31682 0 0 .25882 65.569 137.88)" d="m71.994 261.08-0.791 7.911 238.13-32.436c0.791 0-0.792-6.33-0.792-7.121s-236.55 34.019-236.55 31.646z"/>
    <path transform="matrix(.31682 0 0 .25882 65.569 137.88)" d="m82.278 274.52 219.15-32.436 4.747 8.702-226.27 33.228 2.373-9.494z"/>
    <path transform="matrix(.31682 0 0 .25882 65.569 137.88)" d="m79.114 284.81v7.12l227.06-36.392-0.791-5.538-226.27 34.81z"/>
   </g>
  </g>
  <path transform="matrix(.29867 0 0 .28327 322.16 87.493)" d="m299.84 180.38-122.63-106.01 73.576-2.373 134.49 90.189s-31.646 29.273-85.443 18.197zm-123.42-106.01 1.582 164.56 122.63 125.79 0.791-182.75-125-107.6z" fill="#b3b2b3" fill-rule="evenodd" stroke-linejoin="bevel"/>
  <path transform="matrix(.29867 0 0 .28327 322.16 87.493)" d="m302.22 181.17s26.107 3.164 45.886-0.791c26.898-10.285 37.974-16.614 37.974-16.614l0.791 178.8s-15.032 11.076-33.227 18.196c-30.064 6.329-53.007 3.956-53.007 3.956l1.583-183.54z" fill="#ccc" fill-rule="evenodd" stroke-linejoin="bevel"/>
  <path transform="matrix(.29867 0 0 .28327 321.69 87.493)" d="m315.66 205.7s63.291-13.449 63.291-12.658-0.791 25.316-0.791 25.316-61.709 13.45-62.5 13.45-0.791-24.526 0-26.108z" fill="none"/>
  <path transform="matrix(.29867 0 0 .28327 322.16 87.493)" d="m323.58 246.84 46.677-9.493v3.956l-46.677 10.284v-4.747z" fill="#000100" fill-rule="evenodd"/>
  <path transform="matrix(.29867 0 0 .28327 322.16 87.493)" d="m360.76 268.99 11.867-1.582v11.867l-11.867 2.374v-12.659z" fill="#00b300" fill-rule="evenodd"/>
  <path transform="matrix(.29867 0 0 .28327 322.16 87.493)" d="m365.51 298.26 7.912-0.791v9.494l-7.912 1.582v-10.285z" fill="#b3b3b3" fill-rule="evenodd"/>
  <g fill-rule="evenodd">
   <path transform="matrix(.25946 0 0 .23846 281.62 96.146)" d="m119.56 425.38v12.719l316.28-93.272 0.848-15.262-317.12 95.815z" fill="#b3b3b3" font-size="12"/>
   <g fill="#ccc">
    <path transform="matrix(.25946 0 0 .23846 281.62 96.146)" d="m166.19 347.37-46.636 78.857 317.12-96.663-91.576-31.374-178.91 49.18z" font-size="12"/>
    <path transform="matrix(.18373 0 0 .1968 300.34 105.61)" d="m139.06 335.5s-11.871 18.654-6.784 33.917c4.24 18.655 17.807 22.894 21.199 22.894s223.7-57.43 223.7-57.43 6.083-12.1 9.475-31.602c-6.783-23.742-19.502-26.286-33.917-26.286-23.742-13.566 0.849 0 0.849 0l-214.52 58.507z"/>
   </g>
   <path transform="matrix(.25946 0 0 .23846 281.84 91.496)" d="M420.57 16.684c0 .848-21.199-5.087-43.245-6.783-10.175.848-311.187 55.963-313.73 55.963 4.239-.848-9.328 0-12.72 7.631-3.391 7.631-3.391 269.639-3.391 269.639s0 7.632 5.087 13.567c7.632 3.392 27.982 4.24 20.35 4.24L420.57 16.684z" fill="#b3b3b3"/>
   <path transform="matrix(.25828 0 0 .21704 282.57 86.7)" d="m71.233 108.01 347.64-67.583c5.088 3.392 10.176 0.848 12.72 11.023s-0.848 253.53-0.848 253.53 1.695 7.631-4.24 11.871c-5.936 4.239-346.84 100.06-346.84 100.06s-10.175 4.239-16.11-4.24c-8.48-2.543-3.358-288.29-3.358-288.29s0.825-13.65 11.031-16.361z" fill="#ccc"/>
   <path transform="matrix(.25946 0 0 .23846 281.84 91.496)" d="m89.032 98.084 305.25-59.354s7.631-2.543 13.567 6.784c5.935 9.327 4.239 13.566 4.239 13.566v175.52c-0.848 9.327 0.848 5.935-4.239 16.111-10.176 3.391-302.71 83.096-302.71 83.096s0 1.696-10.175 0-13.567-17.806-13.567-18.654-3.391-199.26-3.391-199.26 1.696-14.415 11.023-17.807z" fill="url(#linearGradient614)"/>
   <path transform="matrix(.25946 0 0 .23846 281.84 91.496)" d="m368.85 266.82 29.677-8.479v13.567s-29.677 7.631-29.677 8.479v-13.567z" fill="#00feb3"/>
   <path transform="matrix(.31682 0 0 .25882 280.57 141.25)" d="m35.601 306.96 418.51-64.874v24.526l-418.51 65.665v-25.317z" fill="#b2b3b3"/>
   <path transform="matrix(.31682 0 0 .25882 279.32 142.88)" d="m39.557 300.63c2.373-3.956 51.424-101.27 51.424-101.27l280.06-26.108 87.026 62.5-418.51 64.874z" fill="#ccc"/>
   <g fill="#e5e6e6">
    <path transform="matrix(.31682 0 0 .25882 279.32 142.88)" d="m331.49 184.34s0.792 8.703 0.792 9.494 34.019 40.348 34.019 40.348l57.753-9.494-0.791-6.329h-0.792l-90.981-34.019z"/>
    <path transform="matrix(.31682 0 0 .25882 279.32 142.88)" d="m332.28 184.34 37.183-3.956 54.589 37.974-53.798 7.121-37.974-41.139zm-34.811 11.075v8.703c0 0.791 20.57 37.183 21.361 37.183s34.81-4.746 34.81-4.746l-1.582-9.494"/>
    <path transform="matrix(.31682 0 0 .25882 279.32 142.88)" d="m298.26 195.41c0.791 0 24.525-2.373 24.525-2.373l30.063 34.019-30.854 4.747-23.734-36.393zm-208.07 13.45 7.911-13.45 174.84-17.405 9.494 11.076-192.25 19.779z"/>
    <path transform="matrix(.31682 0 0 .25882 279.32 142.88)" d="m90.19 209.65-0.791 5.538 193.04-20.57v-6.329l-192.25 21.361z"/>
    <path transform="matrix(.31682 0 0 .25882 279.32 142.88)" d="m90.981 215.98 196.2-21.361 22.152 34.81-237.34 32.437 18.987-45.886z"/>
    <path transform="matrix(.31682 0 0 .25882 279.32 142.88)" d="m71.994 261.08-0.791 7.911 238.13-32.436c0.791 0-0.792-6.33-0.792-7.121s-236.55 34.019-236.55 31.646z"/>
    <path transform="matrix(.31682 0 0 .25882 279.32 142.88)" d="m82.278 274.52 219.15-32.436 4.747 8.702-226.27 33.228 2.373-9.494z"/>
    <path transform="matrix(.31682 0 0 .25882 279.32 142.88)" d="m79.114 284.81v7.12l227.06-36.392-0.791-5.538-226.27 34.81z"/>
   </g>
  </g>
  <path transform="matrix(.29867 0 0 .28327 209.66 218.74)" d="m299.84 180.38-122.63-106.01 73.576-2.373 134.49 90.189s-31.646 29.273-85.443 18.197zm-123.42-106.01 1.582 164.56 122.63 125.79 0.791-182.75-125-107.6z" fill="#b3b2b3" fill-rule="evenodd" stroke-linejoin="bevel"/>
  <path transform="matrix(.29867 0 0 .28327 209.66 218.74)" d="m302.22 181.17s26.107 3.164 45.886-0.791c26.898-10.285 37.974-16.614 37.974-16.614l0.791 178.8s-15.032 11.076-33.227 18.196c-30.064 6.329-53.007 3.956-53.007 3.956l1.583-183.54z" fill="#ccc" fill-rule="evenodd" stroke-linejoin="bevel"/>
  <path transform="matrix(.29867 0 0 .28327 209.19 218.74)" d="m315.66 205.7s63.291-13.449 63.291-12.658-0.791 25.316-0.791 25.316-61.709 13.45-62.5 13.45-0.791-24.526 0-26.108z" fill="none"/>
  <path transform="matrix(.29867 0 0 .28327 209.66 218.74)" d="m323.58 246.84 46.677-9.493v3.956l-46.677 10.284v-4.747z" fill="#000100" fill-rule="evenodd"/>
  <path transform="matrix(.29867 0 0 .28327 209.66 218.74)" d="m360.76 268.99 11.867-1.582v11.867l-11.867 2.374v-12.659z" fill="#00b300" fill-rule="evenodd"/>
  <path transform="matrix(.29867 0 0 .28327 209.66 218.74)" d="m365.51 298.26 7.912-0.791v9.494l-7.912 1.582v-10.285z" fill="#b3b3b3" fill-rule="evenodd"/>
  <g fill-rule="evenodd">
   <path transform="matrix(.25946 0 0 .23846 169.12 227.4)" d="m119.56 425.38v12.719l316.28-93.272 0.848-15.262-317.12 95.815z" fill="#b3b3b3" font-size="12"/>
   <g fill="#ccc">
    <path transform="matrix(.25946 0 0 .23846 169.12 227.4)" d="m166.19 347.37-46.636 78.857 317.12-96.663-91.576-31.374-178.91 49.18z" font-size="12"/>
    <path transform="matrix(.18373 0 0 .1968 187.84 236.86)" d="m139.06 335.5s-11.871 18.654-6.784 33.917c4.24 18.655 17.807 22.894 21.199 22.894s223.7-57.43 223.7-57.43 6.083-12.1 9.475-31.602c-6.783-23.742-19.502-26.286-33.917-26.286-23.742-13.566 0.849 0 0.849 0l-214.52 58.507z"/>
   </g>
   <path transform="matrix(.25946 0 0 .23846 169.34 222.75)" d="M420.57 16.684c0 .848-21.199-5.087-43.245-6.783-10.175.848-311.187 55.963-313.73 55.963 4.239-.848-9.328 0-12.72 7.631-3.391 7.631-3.391 269.639-3.391 269.639s0 7.632 5.087 13.567c7.632 3.392 27.982 4.24 20.35 4.24L420.57 16.684z" fill="#b3b3b3"/>
   <path transform="matrix(.25828 0 0 .21704 170.07 217.95)" d="m71.233 108.01 347.64-67.583c5.088 3.392 10.176 0.848 12.72 11.023s-0.848 253.53-0.848 253.53 1.695 7.631-4.24 11.871c-5.936 4.239-346.84 100.06-346.84 100.06s-10.175 4.239-16.11-4.24c-8.48-2.543-3.358-288.29-3.358-288.29s0.825-13.65 11.031-16.361z" fill="#ccc"/>
   <path transform="matrix(.25946 0 0 .23846 169.34 222.75)" d="m89.032 98.084 305.25-59.354s7.631-2.543 13.567 6.784c5.935 9.327 4.239 13.566 4.239 13.566v175.52c-0.848 9.327 0.848 5.935-4.239 16.111-10.176 3.391-302.71 83.096-302.71 83.096s0 1.696-10.175 0-13.567-17.806-13.567-18.654-3.391-199.26-3.391-199.26 1.696-14.415 11.023-17.807z" fill="url(#linearGradient614)"/>
   <path transform="matrix(.25946 0 0 .23846 169.34 222.75)" d="m368.85 266.82 29.677-8.479v13.567s-29.677 7.631-29.677 8.479v-13.567z" fill="#00feb3"/>
   <path transform="matrix(.31682 0 0 .25882 168.07 272.5)" d="m35.601 306.96 418.51-64.874v24.526l-418.51 65.665v-25.317z" fill="#b2b3b3"/>
   <path transform="matrix(.31682 0 0 .25882 166.82 274.14)" d="m39.557 300.63c2.373-3.956 51.424-101.27 51.424-101.27l280.06-26.108 87.026 62.5-418.51 64.874z" fill="#ccc"/>
   <g fill="#e5e6e6">
    <path transform="matrix(.31682 0 0 .25882 166.82 274.14)" d="m331.49 184.34s0.792 8.703 0.792 9.494 34.019 40.348 34.019 40.348l57.753-9.494-0.791-6.329h-0.792l-90.981-34.019z"/>
    <path transform="matrix(.31682 0 0 .25882 166.82 274.14)" d="m332.28 184.34 37.183-3.956 54.589 37.974-53.798 7.121-37.974-41.139zm-34.811 11.075v8.703c0 0.791 20.57 37.183 21.361 37.183s34.81-4.746 34.81-4.746l-1.582-9.494"/>
    <path transform="matrix(.31682 0 0 .25882 166.82 274.14)" d="m298.26 195.41c0.791 0 24.525-2.373 24.525-2.373l30.063 34.019-30.854 4.747-23.734-36.393zm-208.07 13.45 7.911-13.45 174.84-17.405 9.494 11.076-192.25 19.779z"/>
    <path transform="matrix(.31682 0 0 .25882 166.82 274.14)" d="m90.19 209.65-0.791 5.538 193.04-20.57v-6.329l-192.25 21.361z"/>
    <path transform="matrix(.31682 0 0 .25882 166.82 274.14)" d="m90.981 215.98 196.2-21.361 22.152 34.81-237.34 32.437 18.987-45.886z"/>
    <path transform="matrix(.31682 0 0 .25882 166.82 274.14)" d="m71.994 261.08-0.791 7.911 238.13-32.436c0.791 0-0.792-6.33-0.792-7.121s-236.55 34.019-236.55 31.646z"/>
    <path transform="matrix(.31682 0 0 .25882 166.82 274.14)" d="m82.278 274.52 219.15-32.436 4.747 8.702-226.27 33.228 2.373-9.494z"/>
    <path transform="matrix(.31682 0 0 .25882 166.82 274.14)" d="m79.114 284.81v7.12l227.06-36.392-0.791-5.538-226.27 34.81z"/>
   </g>
  </g>
 </g>
</svg>
