<svg width="400pt" height="400pt" xmlns="http://www.w3.org/2000/svg" xmlns:xlink="http://www.w3.org/1999/xlink"><defs><linearGradient id="a"><stop offset="0" stop-color="#263d42"/><stop offset="1" stop-color="#9acde7"/></linearGradient><linearGradient xlink:href="#a" x1=".476" y1=".602" x2="-.131" y2="-.125" gradientUnits="objectBoundingBox" spreadMethod="reflect"/></defs><path d="M127.5 106.25S126.25 18.75 231.25 45s86.25 70 87.5 70S300 61.25 380 51.25c72.5 6.25 106.25 20 102.5 66.25S443.75 175 443.75 175s63.75 6.25 46.25 100c-27.5 65-27.5 58.75-91.25 66.25-28.75-11.25-30-21.25-30-21.25s52.5 48.75-26.25 80c-88.75 23.75-100 2.5-137.5-8.75-36.25-22.5-28.75-50-28.75-50s22.5 46.25-53.75 55-105-8.75-118.75-80C0 262.5 67.5 257.5 67.5 257.5s-41.25 1.25-52.5-26.25-18.75-63.75 15-112.5c62.5-58.75 105-20 97.5-12.5z" fill="#fff" fill-rule="evenodd" stroke="#000" stroke-width="3.75" stroke-linejoin="bevel"/></svg>