<svg xmlns="http://www.w3.org/2000/svg" width="266.667" height="266.667"><path d="M117.962 17.47c-48.68 0-88.181 39.376-88.181 87.901 0 37.15 23.187 68.876 55.887 81.74l19.48-49.641c-13.102-5.547-22.296-18.493-22.296-33.57 0-20.123 16.382-36.45 36.57-36.45 20.187 0 36.57 16.327 36.57 36.45 0 13.518-7.402 25.304-18.374 31.6l24.464 45.905c26.315-15.216 44.061-43.545 44.061-76.034 0-48.525-39.502-87.9-88.181-87.9z" fill="#429b3f" fill-rule="evenodd" stroke="#040" stroke-width="4.462" stroke-linejoin="round"/><path d="M214.741 157.227h3.884l4.917 11.74 4.942-11.74h3.884l3.474 17.027-3.079.145-2.937-15.069-4.968 11.833h-2.62l-4.968-11.833-2.196 14.924-2.9.072 2.567-17.099zm-18.814 0h16.298v1.965h-6.84v15.287h-2.619v-15.287h-6.839v-1.965z" font-size="20" font-family="Bitstream Vera Sans" fill="#004500"/><path d="M98.141 207.566v14.926H92.37V208.49c0-1.67-.231-2.86-.694-3.572-.45-.726-1.19-1.088-2.222-1.088-1.044 0-1.87.486-2.479 1.457-.595.972-.892 2.32-.892 4.045v13.16H80.31v-22.994h5.772v3.449c.41-1.273 1.11-2.258 2.102-2.957.992-.698 2.188-1.047 3.59-1.047 2.103 0 3.69.726 4.76 2.177 1.072 1.437 1.607 3.586 1.607 6.446zM74.3 221.363a21.534 21.534 0 01-4.126 1.293 22.082 22.082 0 01-4.443.432c-3.716 0-6.559-1.027-8.529-3.08-1.957-2.067-2.936-5.037-2.936-8.91 0-3.75.946-6.714 2.837-8.89 1.89-2.176 4.47-3.265 7.735-3.265 3.293 0 5.845 1.013 7.657 3.039 1.824 2.012 2.737 4.852 2.737 8.52v2.443H60.177c.013 1.807.53 3.155 1.547 4.045 1.019.89 2.54 1.335 4.562 1.335 1.336 0 2.652-.199 3.947-.596 1.296-.397 2.652-1.026 4.067-1.889v5.523zm-4.92-12.934c-.026-1.588-.423-2.786-1.19-3.593-.753-.821-1.87-1.232-3.352-1.232-1.335 0-2.4.424-3.193 1.273-.793.835-1.263 2.026-1.408 3.572l9.144-.02zm-32.628 10.82v11.99H30.96v-31.741h5.792v3.449c.609-1.328 1.409-2.327 2.4-2.998.992-.67 2.156-1.006 3.491-1.006 2.54 0 4.51 1.054 5.911 3.162 1.402 2.108 2.102 5.078 2.102 8.91 0 3.888-.714 6.872-2.142 8.952-1.415 2.08-3.438 3.12-6.07 3.12-1.19 0-2.26-.314-3.212-.944-.94-.643-1.766-1.608-2.48-2.895zm8.093-8.275c0-2.217-.357-3.955-1.071-5.214-.714-1.26-1.7-1.89-2.956-1.89s-2.248.63-2.975 1.89c-.727 1.259-1.09 2.997-1.09 5.214 0 2.218.363 3.956 1.09 5.215.727 1.26 1.72 1.89 2.975 1.89 1.257 0 2.242-.63 2.956-1.89.714-1.259 1.07-2.997 1.07-5.215zm-29.098-7.144c-1.388 0-2.48.636-3.273 1.91-.793 1.258-1.19 3.017-1.19 5.276 0 2.258.397 4.024 1.19 5.296.794 1.26 1.885 1.89 3.273 1.89 1.402 0 2.5-.63 3.293-1.89.793-1.272 1.19-3.038 1.19-5.296 0-2.259-.397-4.018-1.19-5.277-.794-1.273-1.891-1.91-3.293-1.91zm-10.274 7.186c0-3.71.925-6.646 2.777-8.808 1.864-2.176 4.363-3.265 7.497-3.265 3.147 0 5.646 1.089 7.498 3.265 1.864 2.162 2.796 5.098 2.796 8.808 0 3.709-.932 6.652-2.796 8.828-1.852 2.162-4.35 3.244-7.498 3.244-3.134 0-5.633-1.082-7.497-3.244-1.852-2.176-2.777-5.12-2.777-8.828z" font-size="36" font-weight="700" font-family="Bitstream Vera Sans Mono"/><path d="M247.174 211.51v1.848h-16.78c.158 2.6.912 4.586 2.26 5.954 1.363 1.355 3.254 2.033 5.673 2.033 1.402 0 2.757-.178 4.067-.534a17.718 17.718 0 003.927-1.601v3.572a21.351 21.351 0 01-4.027 1.314 19.51 19.51 0 01-4.185.452c-3.544 0-6.354-1.068-8.43-3.203-2.062-2.135-3.094-5.023-3.094-8.664 0-3.764.979-6.748 2.936-8.952 1.97-2.217 4.621-3.326 7.953-3.326 2.989 0 5.35 1 7.082 2.998 1.745 1.985 2.618 4.688 2.618 8.11zm-3.65-1.108c-.026-2.067-.588-3.716-1.686-4.948-1.084-1.232-2.526-1.848-4.324-1.848-2.036 0-3.67.596-4.9 1.786-1.216 1.191-1.916 2.868-2.102 5.03l13.012-.02zm-21.7-8.561v3.53a13.522 13.522 0 00-3.113-1.313 11.128 11.128 0 00-3.134-.452c-2.367 0-4.205.78-5.514 2.34-1.31 1.547-1.964 3.724-1.964 6.53 0 2.805.655 4.988 1.964 6.549 1.309 1.546 3.147 2.32 5.514 2.32 1.058 0 2.102-.144 3.134-.431a14.247 14.247 0 003.114-1.335v3.49a14.607 14.607 0 01-3.174 1.11c-1.084.245-2.241.369-3.47.369-3.346 0-6.004-1.089-7.975-3.265-1.97-2.176-2.955-5.112-2.955-8.807 0-3.75.992-6.7 2.975-8.85 1.997-2.148 4.728-3.223 8.192-3.223 1.124 0 2.222.124 3.293.37 1.07.233 2.109.589 3.114 1.068zm-19.814 2.648a4.511 4.511 0 00-1.349-.534 6.334 6.334 0 00-1.587-.185c-2.063 0-3.65.698-4.76 2.095-1.098 1.382-1.647 3.373-1.647 5.974v12.113h-3.669v-22.994h3.67v3.572c.766-1.396 1.765-2.43 2.995-3.1 1.23-.684 2.724-1.027 4.482-1.027.251 0 .53.02.833.062.304.027.642.075 1.012.144l.02 3.88zm-38.996 10.389v-13.92h3.65v13.776c0 2.176.41 3.812 1.23 4.907.82 1.081 2.05 1.622 3.689 1.622 1.97 0 3.524-.65 4.661-1.95 1.15-1.301 1.726-3.074 1.726-5.318v-13.037h3.65v22.994h-3.65v-3.531c-.886 1.396-1.918 2.436-3.094 3.12-1.164.671-2.52 1.007-4.067 1.007-2.552 0-4.489-.822-5.811-2.464-1.322-1.643-1.984-4.045-1.984-7.206zm-15.868-11.272c-1.957 0-3.504.794-4.64 2.382-1.138 1.574-1.707 3.736-1.707 6.488 0 2.75.562 4.92 1.686 6.508 1.137 1.574 2.691 2.36 4.661 2.36 1.944 0 3.485-.793 4.622-2.38 1.137-1.588 1.706-3.751 1.706-6.488 0-2.724-.569-4.88-1.706-6.468-1.137-1.601-2.678-2.402-4.622-2.402zm0-3.203c3.174 0 5.667 1.068 7.478 3.203 1.812 2.135 2.718 5.092 2.718 8.87 0 3.763-.906 6.72-2.718 8.869-1.811 2.135-4.304 3.203-7.478 3.203-3.186 0-5.686-1.068-7.497-3.203-1.798-2.15-2.698-5.106-2.698-8.87 0-3.777.9-6.734 2.698-8.869 1.811-2.135 4.31-3.203 7.497-3.203zm-15.61 1.232v3.573a13.952 13.952 0 00-3.213-1.232 14.37 14.37 0 00-3.451-.41c-1.812 0-3.174.287-4.086.861-.9.575-1.349 1.438-1.349 2.587 0 .876.324 1.567.972 2.074.648.493 1.95.965 3.908 1.417l1.25.287c2.59.575 4.429 1.39 5.513 2.443 1.098 1.04 1.647 2.498 1.647 4.373 0 2.135-.82 3.826-2.46 5.071-1.626 1.246-3.868 1.869-6.724 1.869a19.97 19.97 0 01-3.729-.37 29.26 29.26 0 01-4.066-1.068v-3.9c1.349.725 2.678 1.273 3.987 1.642 1.309.356 2.605.534 3.887.534 1.72 0 3.042-.301 3.967-.903.926-.616 1.389-1.479 1.389-2.587 0-1.027-.337-1.814-1.012-2.361-.661-.548-2.122-1.075-4.383-1.581l-1.27-.308c-2.26-.493-3.894-1.246-4.899-2.259-1.005-1.026-1.507-2.43-1.507-4.208 0-2.163.74-3.833 2.221-5.01 1.481-1.177 3.584-1.766 6.308-1.766 1.348 0 2.618.103 3.808.308 1.19.206 2.287.514 3.292.924z" font-size="36" font-family="Bitstream Vera Sans"/></svg>