<svg xmlns="http://www.w3.org/2000/svg" width="400pt" height="400pt"><path d="M254.153 10.841c42.79 2.905 60.703 9.807 73.615 38.047 11.965 45.583 4.005 83.964 36.844 127.54 19.902 42.607 64.683 54.227 71.65 159.777-6.967 48.418 19.9 62.942 43.784 76.499 12.937 28.081-65.727 34.05-94.537 72.344-18.58 5.405-41.285 6.778-60.192-20.336-45.775-.968-70.168-.686-107.983 2.22-16.918 3.873-28.629 19.366-44.782 19.208-48.76-15.618-87.57-16.304-135.336-33.733 1.99-17.43 15.922-30.988 1.99-60.038 4.976-31.956 21.892 4.841 59.708-49.385-7.961-35.829 20.898-54.227 23.883-70.69 10.946-32.923 42.79-77.467 62.693-98.77 12.936-64.88-36.82-162.683 68.663-162.683z" fill-rule="evenodd"/><path d="M200.416 169.65c-5.97 9.682-13.932 24.209-19.902 35.828-5.97 11.62 1.99 24.208-3.981 30.987-21.893 30.02-32.838 58.1-24.878 110.392 15.922 16.46 43.786 34.861 57.718 52.29.996 8.715-10.947 16.463-10.947 16.463s9.95 1.936 13.932 1.936c3.98 0 9.951 16.462 19.902 19.366 10.947.969 80.931 7.412 98.843-29.384 7.656-47.135-12.266-59.703 22.562-64.544 4.976-33.893 0-65.848-5.97-79.405-13.932-30.987-19.903-40.67-26.869-64.879-10.946-17.43-14.927-28.082-23.882-37.766-40.801 11.62-46.771 34.862-63.688 34.86-23.884-2.904-22.889-24.208-32.84-26.145z" fill="#fff" fill-rule="evenodd"/><path d="M430.29 346.857s-50.751 67.784-77.62 1.937c-27.84 2.904-3.75 66.41-16.685 106.112.994 18.4 29.622 25.582 45.544 18.803 54.733-45.512 88.565-31.955 92.546-54.226-5.97-26.146-39.804 12.587-43.786-72.626zM46.172 386.558c4.976-6.778 45.776-5.81 56.722-43.574 24.879-18.4 70.654 55.195 93.542 98.77 2.985 7.747 0 40.671-40.8 34.861-80.605-28.082-94.537-13.558-110.46-30.988 18.908-29.049 6.967-40.67.996-59.069zM212.358 166.745c1.99 5.81 10.947 12.587 17.913 12.587 19.9-1.935 56.722-15.492 68.662-25.176 2.986-5.81 7.962-16.461.996-22.271-13.932 0-33.834-9.684-39.805-15.494-8.956-3.873-27.864-2.904-37.815-1.937-8.956 11.62-27.864 18.398-26.868 26.145 2.986 6.78 10.945 9.684 16.917 18.4 12.936 3.873 46.77 0 50.751-3.875 3.98-3.873 21.924-8.105 24.878-12.588 4.267-1.927 6.288 2.267 1.99 5.81-2.984 2.905-34.828 14.526-43.785 16.462-10.947 1.937-23.883 2.905-33.834 1.937z" fill="#ffa600" fill-rule="evenodd"/><path d="M263.328 114.283c.64-9.176-1.972-18.551 12.814-21.429 18.363 2.502 16.362 12.57 13.79 29.092 3.607 3.55 8.526 1.315 11.484.356 1.33.307 10.547-27.026-13.446-44.468-24.642-3.52-36.481 2.987-35.485 33.57 6.525 3.057 5.315 1.95 10.843 2.88zM223.24 111.425c-1.301-4.43.304-18.254-13.14-17.285-12.143-.613-9.492 22.675-2.958 23.979 3.933 3.837-2.968 10.869-4.939 7.99-5.222-.662-17.692-45.091 9.795-47 16.433-1.592 20.447 25.275 17.816 32.622-3.932.703-4.97.654-6.575-.306z" fill="#fff" fill-rule="evenodd"/><path d="M276.256 95.624c2.602-.633 15.282 3.797 12.356 12.34-.976 3.48-1.951 2.215-4.552.949.324-6.222-2.927-8.332-8.13-9.808-.216-1.477-.758-2.321.326-3.481zM219.027 111.761s-3.902 1.582-3.902.317c0-1.267-.325-7.911-3.902-11.075-.975-1.899-.65-2.531 1.951-3.164 3.577 1.582 6.83 4.43 5.853 13.922z" fill="#fff" fill-rule="evenodd" fill-opacity=".7"/><path d="M290.563 33.607c7.804 1.898 12.357 6.645 13.006 10.758-7.804.95-15.608 6.96-19.509 6.012-.976-1.899 3.901-7.91 6.503-16.77z" fill="#fff" fill-rule="evenodd" fill-opacity=".25"/><path d="M321.128 150.68c1.951.317 10.08 7.91 18.86 11.391 2.602-1.898.325 9.175-5.853 10.125-6.503-3.164-17.884-15.188-13.007-21.516zM365.351 329.77c8.455-1.265 23.087-4.43 31.866 3.48 5.528 3.48 3.251-.633 1.95-3.48-8.129-6.645-11.054-8.227-14.307-7.594-3.251.633 29.59-49.677-35.768-107.264 31.216 40.5 52.352 96.19 16.26 114.858zM140.986 250.034c.651-2.532 5.855-5.38 8.131-12.973-.976-1.265 5.202-5.696 5.528-1.265-2.277 9.492-8.455 21.832-13.659 14.238zM132.209 283.89c.65.317-7.804 35.438 7.803 54.74 2.601 9.175-9.43-6.012-13.983-16.454-1.3-12.972-5.853-31.008 6.18-38.286zM330.558 426.593c-.975 7.277-2.6 22.464-4.551 31.64-1.302 1.267-8.13-.315-7.48-7.276.65-6.962 6.503-23.732 12.031-24.364zM192.364 418.366c3.576 1.265 19.184 15.188 22.112 24.68 2.924 15.505-1.953 19.302-4.553 20.567-.976-3.165 1.95-9.492.325-17.087-3.578-11.707-21.136-25.313-17.884-28.16z" fill="#fff" fill-rule="evenodd" fill-opacity=".7"/><path d="M220.002 232.63c1.951-1.581 36.093-1.265 40.646 1.267 4.553 2.53-1.95 5.379-4.553 5.379-2.6 0-12.355-1.582-12.68.949-.326 2.531 1.625 12.34-.326 13.922-1.951 1.582-7.153 2.53-8.454.632-1.627-4.429.65-13.288-1.301-13.921-1.951-.633-15.932-.317-13.332-8.228zM232.034 272.5c-.651-2.848 6.827-3.798 7.804-1.583 2.601 7.277-4.552 83.85-9.754 83.217-5.53-.316.975-56.322 1.95-81.635z" fill-rule="evenodd" fill-opacity=".25"/><path d="M220.203 121.956c-.493.24.493-2.638 3.204-3.118.985-.479 1.231-2.638 3.943-1.918 2.464.24 3.45 1.199-.246 3.357-2.71 2.637-4.93 5.276-6.9 1.679z" fill-rule="evenodd" fill-opacity=".75"/><path d="M246.57 118.599c0-.24 2.465-1.919 7.64-.72 2.71 1.2 2.217 2.638 1.232 3.118-2.71 1.678-6.408.48-8.871-2.398z" fill-rule="evenodd" fill-opacity=".749"/></svg>