<svg width="213.333" height="213.333" xmlns="http://www.w3.org/2000/svg"><path d="M99.309 6.924c5.71.081 18.56 1.853 23.963 10.28 4.893 6.486 9.217 15.068 8.032 32.236 1.94 21.281 16.31 33.794 23.128 46.447 5.242 8.247 9.913 18.566 10.859 30.204 1.33 12.06-17.094 40.63-23 47.76-9.139 2.657-9.926 7.046-16.03 12.567-7.07-1.842-13.753-2.735-22.982-1.822-10.55-.23-16.77.536-22.288 3.887-1.493-10.064-11.14-14.646-18.728-12.94-1.952-7.355-18.009-36.396-17.034-46.43-.56-1.631 3.21-8.053 6.58-15.332 3.368-7.591 6.334-16.666 9.092-21.73 5.266-8.23 10.307-11.925 14.823-21.387 1.687-10.369-1.278-24.438-.825-36.278.586-9.924-.284-24.052 24.41-27.462z" fill-rule="evenodd"/><path d="M116.678 63.722c3.982 8.994 7.282 15.158 8.54 20.097.579 2.41 7.773 17.05 10.473 24.646 4.08 17.172 2.248 27.722.13 29.645-3.918 7.99-2.802 13.81-7.638 21.226-6.612 6.972-9.241 10.395-18.944 13.698-7.338 2.535-20.492 4.006-26.373.064-1.5-2.839-12.805-14.14-16.048-21.412-3.888-5.075-5.608-8.015-6.876-16.11-1.825-12.87 3.745-24.66 7.5-31.92 2.246-2.976 4.733-16.524 12.583-27.585.605-.583.645-5.852.002-13.026 3.991-6.889 32.643-8.684 36.651.677z" fill="#fff" fill-rule="evenodd"/><path d="M129.167 139.681c3.82-4.96 13.489.67 16.878 1.696 5.96.91 14.574-3.747 18.38-1.092 2.076 1.812.62 7.517 3.645 12.545 3.026 5.029 10.532 9.381 12.066 12.237 2.657 6.342-15.813 11.853-20.854 16.687-7.286 5.244-7.43 9.397-16.132 11.88-8.338 2.41-18.045-.61-17.937-10.258-.419-8.56 2.591-18.16 3.888-26.462.286-3.323-1.989-14.606.066-17.233z" fill="#fabc13" fill-rule="evenodd"/><path d="M59.602 133.824c.486 2.71 1.877 3.815 4.457 5.811 2.525 1.754 6.982 5.615 8.791 7.413 2.272 2.128 8.25 6.62 9.135 7.83 1.124 1.58 1.537 6.439.166 7.776-1.797 1.12-4.886 2.037-6.732 1.316-2.766-.465-9.677-7.867-11.543-9.72-1.961-2.385-3.224-4.813-4.47-7.49-1.132-2.582-2.078-4.431-1.956-7.762.021-1.656 1.642-3.68 2.152-5.174z" fill-rule="evenodd"/><path d="M38.454 147.03c3.76-2.587 6.399-11.51 13.255-13.059 4.658-.64 7.368 5.686 9.858 8.294 3.088 3.282 8.61 13.868 11.471 17.305 4.354 6.773 6.234 8.935 9.698 14.928 1.825 3.955 2.934 8.054.116 11.782-2.586 2.948-7.896 7.665-11.96 8.066-3.764.476-13.796-4.213-20.752-6.803-3.267-1.484-22.21-3.504-25.286-7.344-3.705-2.783 1.595-10.114.558-13.985.16-5.223-3.33-10.98.02-14.975 4.31-2.811 8.543-2.291 13.022-4.21z" fill="#fabc13" fill-rule="evenodd"/><path d="M118.355 45.17c-.22 7.354-6.18 14.907-14.514 7.862-5.254-4.209-5.776-12.714.203-18.74 7.56-4.987 14.2 3.956 14.311 10.878z" fill="#fbffff" fill-rule="evenodd"/><path d="M107.824 40.046c4.86.027 6.902 5.187 5.512 8.915-.795 3.662-6.423 4.43-8.79.466-.673-3.31-1.821-7.136 3.278-9.381z" fill-rule="evenodd"/><path d="M83.443 34.292c7.63-1.68 9.78 8.532 8.442 15.031-1.993 9.93-11.14 5.873-12.022-1.435-.49-4.598.296-12.596 3.58-13.596z" fill="#faffff" fill-rule="evenodd"/><path d="M84.955 40.43c4.048.07 5.571 6.75 2.964 11.07-2.63 2.388-5.644-1.644-6.155-5.243-.36-1.675-.6-5.359 3.191-5.828z" fill-rule="evenodd"/><path d="M79.96 62.906C80.946 67.45 83.598 73 85.694 76.57c2.11 2.73 5.507 5.719 9.177 5.81 4.627.158 8.707-4.114 12.177-7.66 2.03-2.08 4.759-6.444 6.355-6.776 1.958-.132 7.877 6.162 9.21 8.31-2.532-5.685-4.22-10.46-5.686-12.823-2.947-4.85-35.172-4.107-36.969-.525z" fill-opacity=".1" fill-rule="evenodd"/><path d="M100.54 73.147c3.646-1.753 8.212-4.872 9.578-5.402.859-.84 6.945-1.563 7.615-7.22 1.93-6.858-6.631-8.015-11.146-9.77-4.377-2.453-10.847-4.827-15.976-2.17-3.984 2.284-11.463 6.666-11.836 11.65 1.754 5.44 8.379 9.97 11.638 12.714 3.055 1.28 6.493 1.315 10.127.198z" fill="#faba13" fill-rule="evenodd"/><path d="M110.556 14.593c2.497-.917 8.358 3.38 8.032 5.185.296 1.804-6.425 4.959-8.678 3.869-2.066-1.324-1.223-8.056.646-9.054z" fill="#fff" fill-opacity=".1" fill-rule="evenodd"/><path d="M111.015 15.26c1.684-.799 6.38 2.79 6.753 4.477-.17 1.686-5.727 3.778-7.166 3.042-1.95-1.205-.758-6.402.413-7.519z" fill="#fff" fill-opacity=".1" fill-rule="evenodd"/><path d="M111.66 16.501c.869-.326 4.17 1.61 4.659 2.942-.635.978-3.4 2.48-5.072 2.216-1.252-1.205-.409-4.631.413-5.158z" fill="#fff" fill-opacity=".1" fill-rule="evenodd"/><path d="M109.898 30.574c.106-.339 3.21-.102 4.596.564.749.523 2 1.65 2.672 2.628.502.858 1.59 2.173 1.137 2.866-.398.124-1.948-1.684-2.46-2.337-.582-.783-2.399-2.065-3.018-2.324-.924-.394-2.992-.88-2.927-1.397zM85.367 31.154c.36-.36 2.9.087 3.587.436.607.354 1.92 1.454 2.5 2.234.557.523 1.491 2.435.971 2.867-.513.257-1.809-1.469-2.344-2.268-.563-.792-2.507-1.512-3.07-1.784-.409-.193-1.769-1.17-1.644-1.485z" fill="#fff" fill-opacity=".5" fill-rule="evenodd"/><path d="M82.37 35.051c1.701-2.284 5.99-.085 7.097.871.896 1.407 2.866 4.021 2.611 7.011-1.405-3.263-3.362-5.913-3.974-6.388-.923-.998-4.02-1.187-5.63-.04-1.176 1.042-1.813 3.185-2.808 6.979.29-1.535.367-6.48 2.705-8.433zM104.877 33.707c2.743-1.474 7.012-.608 9.125 1.254 2.678 2.17 4.29 7.079 4.098 9.796-1.265-3.07-3.215-6.084-5.84-7.905-1.157-.701-5.567-.934-7.778.003-1.153.566-2.853 1.855-4.61 4.569.77-2.765 2.862-6.485 5.005-7.717z" fill-opacity=".192" fill-rule="evenodd"/><path d="M109.676 41.268c-.556.183-.876.457-.819 1.107.721.527 1.746 1.693 2.273 2.378.763-.031.937-.572.864-1.179-.446-.59-1.567-2.115-2.318-2.306zM84.757 42.518c.37-.154 1.246-.196 1.764-.023 1.022.475 1.15 3.102 1.075 3.849-.033.46-.158.97-.733.77-.574-.239-.483-1.298-.85-1.8-.305-.481-.533-.874-.918-1.294-.293-.406-.66-1.242-.338-1.502z" fill="#fff" fill-opacity=".35" fill-rule="evenodd"/><path d="M97.34 49.982c.777.062 1.63.856 2.073 1.172.247.251 1.19.453 1.44.225.436-.411-.124-1.13-.437-1.29-.335-.157-2.086-.91-3.077-.107zM89.412 50.8c.178-.434.91-.595 1.495-.714.325 0 1.404-.248 1.622.02-.79.294-1.556 1.695-2.429 1.646-.763-.063-.702-.595-.688-.952zM111.027 59.128a89.026 89.026 0 01-5.65 3.147c-2.14 1.094-4.424 2.149-6.485 2.929-2.062.78-3.923 1.272-5.082 1.277-2.918-.095-5.062-.303-6.962-1.09-1.9-.788-2.727-1.45-3.601-2.334-.287-.214-1.476-1.04-2.097-1.39.014.77.729 1.741 1.077 2.103 1.61 1.697 2.382 2.29 4.038 3.062 2.19.908 4.56 1.11 7.522 1.207h.031c1.54-.007 3.472-.56 5.61-1.37 2.14-.81 4.464-1.895 6.64-3.007a90.673 90.673 0 005.75-3.194c.772-.47 3.135-2.698 2.718-3.023-.768-.17-2.756 1.224-3.51 1.683z" fill-opacity=".75" fill-rule="evenodd"/><path d="M95.262 51.675c2.063-.427 2.372.667 2.2 1.524-.566 2.151-3.777 7.486-4.902 7.176-.299-.652.912-2.814 1.868-5.665.263-1.192.399-2.688.834-3.035zM98.311 63.675c.595.204 8.212-4.34 9.613-5.528 1.3-1.04 2.442-3.352.591-4.476-1.606-1.227-2.762.78-3.511 1.968-.988 1.445-2.358 2.981-3.41 4.008-1.33 1.168-3.777 3.413-3.283 4.028z" fill="#fbffff" fill-opacity=".25" fill-rule="evenodd"/><path d="M123.41 62.29c.978-.453 5.361 2.053 6.454 3.078.847.935 1.64 3.693.485 4.7-1.86.992-3.995-.866-4.792-1.978-.945-1.51-3.124-5.011-2.147-5.8z" fill="#e8ffff" fill-opacity=".35" fill-rule="evenodd"/><path d="M70.96 99.09c.926-1.026 4.088-2.504 6.647-2.644 2.4.529 3.41-1.67.977-2.63-2.325-.8-3.365-3.444-3.547-5.674.322-1.11 1.424-4.39-.087-4.062-1.347 2.714-3.168 7.092-3.755 9.577-1.336 3.618-2.713 7.447-4.922 12.148 1.254-.013 2.58-4.412 4.687-6.715z" fill-opacity=".1" fill-rule="evenodd"/><path d="M88.048 91.706c.119-.31 3.092.785 4.007.812.94.034 4.197-.765 5.109-.484-.054.62-2.653 1.092-3.276 1.581-.7.448-1.343 1.772-2.118 1.699-.681 0-1.512-1.532-1.934-1.971-.547-.557-2.07-1.112-1.788-1.637zM107.664 93.01c.526-.865 12.69-3.167 14.358-2.783 2.023.575 4.99 6.378 6.45 7.842 1.336 1.45 5.51 6.726 4.551 7.8-.833.511-5.045-4.146-7.4-5.939-2.268-1.775-4.992-2.84-9.24-3.953-1.068-.348-9.49-1.775-8.719-2.966z" fill-opacity=".15" fill-rule="evenodd"/><path d="M88.45 121.38c0 .56-.419 5.099-.523 6.612 0 1.574.233 6.174.233 7.733 0 1.206 1.185 7.833 0 7.497-1.117-.248-2.41-7.158-2.501-7.97 0-1.002.698-10.504.698-12.514 0-1.183 1.324-6.598 1.977-6.67.99-.001.117 4.33.117 5.312z" fill-opacity=".17" fill-rule="evenodd"/><path d="M139.838 162.23c1.177-1.158 11.023-2.031 12.492-3.59 1.46-1.93 4.234-7.553 8.602-7.778 4.172-.298 6.08 4.044 9.153 6.143 2.526 3.714 9.762 5.523 7.89 11.074-2.604 3.071-6.832 5.813-10.501 7.401-8.87 3.55-21.109 7.079-24.707 7.09-3.499-.117-7.73-2.085-7.716-5.774.11-4.438 2.418-12.541 4.787-14.566z" fill="#fff" fill-opacity=".25" fill-rule="evenodd"/><path d="M130.39 139.492c1.264-.623 7.523-1.041 7.243.391-.432 1.811-4.494 6.445-5.813 5.859-1.339-1.298-2.37-5.645-1.43-6.25zM156.214 148.031c.828.408 3.082-1.918 4.107-2.473 1.29-.753 2.28.662 3.27 1.714 1.091 1.284 1.639-.483 1.363-1.47.117-1.732-.613-3.42-1.652-4.75-.954-1.241-2.522-.687-3.638.049-1.334.95-3.921 6.223-3.45 6.93z" fill="#fff" fill-opacity=".2" fill-rule="evenodd"/><path d="M44.992 151.927c1.52-1.362 2.987-14.399 6.777-13.924 3.592.48 6.4 3.69 7.35 7.362 1.253 3.642 9.801 19.182 10.896 21.36 8.483 16.918 1.65 17.631-2.6 18.52-5.308 1.033-18.614-5.518-23.445-6.688-3.01-.69-13.25-1.888-14.736-4.596-1.162-2.412 1.15-5.736 2.078-8.206.88-2.654-2.705-9.048-2.122-10.088 1.863-2.422 12.349-.76 15.802-3.74z" fill="#fff" fill-opacity=".25" fill-rule="evenodd"/><path d="M59.418 110.565c-1.27 2.836-3.035 11.272-3.097 13.3-.087 4.59 1.584 8.242 3.076 10.428.308.518.003 1.623-.738 1.02-.777-.947-3.63-5.814-3.949-8.659-.351-3.697 1.36-12.128 2.288-14.627.786-1.697 4.542-9.944 5.692-11.66.597-.75 2.374-1.052 1.773.156" fill="#fff" fill-opacity=".15" fill-rule="evenodd"/><path d="M149.203 134.204c.125.127 2.035.582 2.578.582.619.313 1.348.392 2.006.726.822 0 1.421 1.018 2.077 1.018 0 .833.86.69.86 1.453.285.58.214 1.382.214 2.035v1.381c.359.728 0 1.904 0 2.69-.217.66-.507 1.386-1.003 1.889-1.253.636-2.306 2.137-2.936 3.415-.821 1.25-3.772 1.236-5.228 1.236-1.255 0-2.852-.529-4.082-.945-1.675-.34-3.566-.494-4.799-1.744-1.032-.698-.92-2.29-1.289-3.416 0-.659-.071-1.29-.071-1.962.334-1.358.779-2.59 1.217-3.925.606-1.229 1.592-1.997 2.722-2.761 1.014-.686 1.632-1.236 2.864-1.236 1.452 0 2.865-.29 4.369-.29.272 0 .099.018.501-.146z" fill="none"/><path d="M143.116 134.495c-2.115 1.204-4.167 2.39-4.289 4.61-.367 2.624-.616 5.228-.192 6.317.94 2.223 4.794 4.36 7.606 4.678 4.953-.042 8.1-2.152 10.472-4.942 2.161-2.972 1.204-5.286.6-7.74-.757-2.159-4.431-2.954-6.804-3.31-.911-.165-6.568-.024-7.393.387z" fill-rule="evenodd"/><path d="M138.675 140.6c-.118 2.266.445 5.438 1.445 6.574 1.915 1.855 6.71 3.002 9.7 2.531 2.453-.674 4.442-2.043 6.36-3.946-.651 2.805-3.046 5.657-4.774 6.525-2.146 1.187-7.976 1.466-10.184.643-2.144-.992-3.61-3.066-4.027-5.58-.093-1.463.488-4.696 1.48-6.747z" fill-opacity=".1" fill-rule="evenodd"/><path d="M148.38 133.114c.287-.548 4.37.194 5.697.595 1.834.604 3.84 1.496 4.817 3.186.417.747-.048 2.129-1.118 2.146-.008-.356-.451-1.982-1.06-2.664-.833-.693-1.835-1.22-2.873-1.632-1.048-.243-2.312-.554-3.61-.745-.9-.122-2.208-.234-1.853-.886zM139.141 137.62c.506-.638 1.515-1.554 2.244-2.12.625-.388 1.524-.88 2.48-1.212.607-.17 2.557-.17 2.908-.444.164-.466-.058-1.055-.558-1.058-.873-.025-1.77.078-2.604.199-.705.137-1.975.542-2.518 1.082-.616.741-1.903 2.551-2.339 2.99-.267.31.166.808.387.563zM134.833 95.17c.534-.904 4.097 1.473 6.504 3.384 2.22 1.879 5.254 6.024 6.538 8.969 1.239 3.478 1.723 7.103 1.814 10.728-.215 2.945-.959 6.444-1.28 8.086-.232 1.312-2.216 6.113-2.847 5.958-.683-.126 2.052-5.318 2.225-11.193.012-7.276-.688-13.354-3.383-16.723-1.84-2.112-4.84-5.357-6.235-6.621-1.927-1.621-3.79-1.895-3.336-2.588z" fill="#fff" fill-opacity=".15" fill-rule="evenodd"/><path d="M139.218 103.753c1.55-.548 4.52 2.2 4.47 3.022-.112 1.72-2.815 2.899-4.422 2.483-.757-.212-1.148-5.027-.048-5.505z" fill="#fff" fill-opacity=".1" fill-rule="evenodd"/><path d="M159.372 181.724c-7.287 5.244-7.431 9.396-16.132 11.88-8.339 2.41-18.046-.61-17.937-10.258-.42-8.56 2.59-18.16 3.888-26.462-.165 2.899-1.303 23.953.098 27.451 2.112 5.155 6.644 6.016 11.188 5.711 3.758-.61 14.192-6.476 18.895-8.322zM82.69 174.583c1.826 3.955 2.935 8.055.117 11.783-2.586 2.947-7.896 7.664-11.96 8.066-3.764.476-13.796-4.214-20.752-6.804-3.267-1.483-22.21-3.503-25.286-7.343 3.003.266 10.45 1.013 13.464 1.673 1.286.343 11.283 2.24 14.478 2.868 3.337.9 15.316 5.812 16.116 5.624 10.008-2.508 14.26-11.326 13.824-15.867zM88.714 49.591c-2.13 1.534-5.3 3.637-7.076 5.38-1.68 1.943-2.876 4.098-2.857 5.284-.053 1.366.853 2.565 2.263 3.761.806.7.694-3.555.825-4.922.173-1.266 5.61-7.432 6.845-9.503zM81.66 65.247c2.506 2.91 7.523 6.98 8.87 7.763 1.39.975 7.404 1.127 9.666.157 1.619-.847 6.474-3.338 8.521-4.546 1.655-.896 3.938-1.763 5.548-3.024-4.665 1.59-13.502 6.54-21.984 5.867-7.224-1.539-10.01-7.655-10.622-6.217zM29.619 149.483c2.496-.507 6.458-1.532 8.831-2.406 2.201-1.581 5.348-6.526 6.385-7.66-.117 2.062-3.13 8.564-5.117 9.705-2.273 1.207-6.888.91-10.1.361z" fill-rule="evenodd" fill-opacity=".1"/></svg>