<svg width="400pt" height="400pt" xmlns="http://www.w3.org/2000/svg"><path d="M67.13 337.768h359.148c0-1.119-5.595-149.925-19.02-157.757-13.427-7.83-312.157-6.713-318.87-2.237C78.318 188.962 68.25 336.65 67.13 337.768z" fill="#ccc" fill-rule="evenodd" stroke="#000" stroke-width="3.75" stroke-linejoin="bevel"/><path d="M133.142 326.58v-92.863l183.49-1.119v92.863l-183.49 1.119z" fill="#666" fill-rule="evenodd" stroke="#000" stroke-width="3.75" stroke-linejoin="bevel"/><path d="M363.623 177.774l2.238 158.875" fill="#ccc" fill-rule="evenodd" stroke="#000" stroke-width="3.75" stroke-linejoin="bevel"/><path d="M380.405 199.032h19.021l1.119 8.951h-20.139l-.001-8.951z" fill="#b3b3b3" fill-rule="evenodd" stroke="#000" stroke-width="3.75" stroke-linejoin="bevel"/><path d="M386 218.052h12.307v6.714h-12.308l.001-6.714zM106.29 287.42l-1.119 59.299h238.313c-1.119 1.119 0-60.417 0-59.298l-21.258-.001v39.16l-194.678 1.119V287.42H106.29zM362.504 232.597l-283.066 1.119" fill="#ccc" fill-rule="evenodd" stroke="#000" stroke-width="3.75" stroke-linejoin="bevel"/><path d="M144.33 326.58l-15.663-1.119-2.238-92.864h17.901v93.983zM306.563 231.478l-1.12 92.864s15.664 0 16.783-1.119c1.119-1.119 0-91.745 1.119-91.745h-16.782zM146.568 326.58v-11.188l155.519-1.119-1.119 11.188-154.4 1.119zM170.064 275.113l-24.615 30.209v8.951l157.756-1.119-29.089-41.397-8.951 8.95 17.901 24.615-123.072 1.119 20.139-24.615-10.069-6.713z" fill="#ccc" fill-rule="evenodd" stroke="#000" stroke-width="3.75" stroke-linejoin="bevel"/><path d="M224.887 298.609h26.852l8.951 32.446h-42.516l6.713-32.446z" fill="#b3b3b3" fill-rule="evenodd" stroke="#000" stroke-width="3.75" stroke-linejoin="bevel"/><path d="M171.182 299.728c0 1.119 104.053 0 104.053 0h0M174.539 294.133h97.339M179.014 288.539c85.032-1.119 85.032-2.237 85.032-1.119" fill="none" stroke="#000" stroke-width="3.75" stroke-linejoin="bevel"/><path d="M82.278 227.848s4.747-37.975 8.703-46.678c7.912-3.955 120.253-3.164 140.823-3.164-91.772 4.747-136.867 5.538-149.526 49.842z" fill="#fff" fill-rule="evenodd" fill-opacity=".5"/></svg>