<?xml version="1.0" encoding="UTF-8"?>
<svg width="400pt" height="400pt" xmlns="http://www.w3.org/2000/svg" xmlns:xlink="http://www.w3.org/1999/xlink">
 <g fill-rule="evenodd" font-size="12" stroke="#000">
  <path transform="matrix(1.0043 0 0 1 16.13 127.52)" d="m93.355 268.2 356.01-15.032s7.121 20.571 7.121 35.602c0 17.405-3.956 33.228-4.747 34.019l-362.34 17.405c4.747-11.868 4.746-24.526 3.956-71.994z" fill="#ccc" stroke-linejoin="bevel" stroke-width="3.75"/>
  <path d="M439.774 426.568l14.24-.792v11.867l-14.24.792v-11.867z" fill="#b3b3b3" stroke-width="1pt"/>
  <path d="M124.9 409.954l130.539-5.538-.791 34.02-130.54 7.118.793-35.6z" fill="#ccc" stroke-width="2.5"/>
  <path d="M434.236 396.504c.79 0 22.152-.79 22.152-.79v15.822l-22.152.791v-15.823z" fill="#b3b3b3" stroke-width="1pt"/>
  <path d="m26.8 252.63s295.1-6.329 295.48-5.129c1.582 1.199 144.4 130.38 144.4 131.58l-356.78 15.031s-83.093-143.06-83.093-141.48z" fill="#ccc" stroke-linejoin="bevel" stroke-width="3.75"/>
  <path d="m105.5 467.3-79.905-146.36-0.791-69.512 81.487 143.09c3.165 2.373 3.956 68.83-0.79 72.785z" fill="#b3b3b3" stroke-linejoin="bevel" stroke-width="3.75"/>
  <path transform="matrix(1.0043 0 0 1 18.527 56.768)" d="m93.355 268.2 356.01-15.032s7.121 20.571 7.121 35.602c0 17.405-3.956 33.228-4.747 34.019l-362.34 17.405c4.747-11.868 4.746-24.526 3.956-71.994z" fill="#ccc" stroke-linejoin="bevel" stroke-width="3.75"/>
  <path d="M442.172 355.819l14.241-.792v11.867l-14.24.792v-11.867z" fill="#b3b3b3" stroke-width="1pt"/>
  <path d="m127.3 339.2 130.54-5.538-0.79 34.019-130.54 7.119 0.792-35.6z" fill="#ccc" stroke-width="2.5"/>
  <path d="M436.634 325.755c.791 0 22.152-.791 22.152-.791v15.823l-22.152.79v-15.822z" fill="#b3b3b3" stroke-width="1pt"/>
  <path d="m29.198 181.88s295.1-6.33 295.48-5.13c1.582 1.2 144.4 130.38 144.4 131.58l-356.78 15.03s-83.094-143.06-83.094-141.48z" fill="#ccc" stroke-linejoin="bevel" stroke-width="3.75"/>
  <path d="m107.9 396.55-79.905-146.36-0.79-69.512 81.487 143.09c3.164 2.373 3.955 68.829-0.792 72.785z" fill="#b3b3b3" stroke-linejoin="bevel" stroke-width="3.75"/>
  <path transform="matrix(1.0043 0 0 1 19.727 -13.982)" d="m93.355 268.2 356.01-15.032s7.121 20.571 7.121 35.602c0 17.405-3.956 33.228-4.747 34.019l-362.34 17.405c4.747-11.868 4.746-24.526 3.956-71.994z" fill="#ccc" stroke-linejoin="bevel" stroke-width="3.75"/>
  <path d="M443.371 285.07l14.241-.792v11.866l-14.24.793v-11.868z" fill="#b3b3b3" stroke-width="1pt"/>
  <path d="m128.5 268.46 130.54-5.538-0.79 34.019-130.54 7.118 0.792-35.6z" fill="#ccc" stroke-width="2.5"/>
  <path d="M437.833 255.006c.791 0 22.152-.792 22.152-.792v15.824l-22.152.79v-15.822z" fill="#b3b3b3" stroke-width="1pt"/>
  <path d="m30.397 111.13s295.1-6.328 295.48-5.128c1.582 1.2 144.4 130.38 144.4 131.58l-356.78 15.031s-83.094-143.06-83.094-141.48z" fill="#ccc" stroke-linejoin="bevel" stroke-width="3.75"/>
  <path d="m109.1 325.8-79.905-146.36-0.792-69.513 81.488 143.09c3.164 2.373 3.955 68.83-0.791 72.785z" fill="#b3b3b3" stroke-linejoin="bevel" stroke-width="3.75"/>
  <path transform="matrix(1.0043 0 0 1 20.926 -83.532)" d="m93.355 268.2 356.01-15.032s7.121 20.571 7.121 35.602c0 17.405-3.956 33.228-4.747 34.019l-362.34 17.405c4.747-11.868 4.746-24.526 3.956-71.994z" fill="#ccc" stroke-linejoin="bevel" stroke-width="3.75"/>
  <path d="M444.57 215.52l14.241-.793v11.867l-14.24.792V215.52z" fill="#b3b3b3" stroke-width="1pt"/>
  <path d="m129.7 198.9 130.54-5.538-0.79 34.02-130.54 7.118 0.792-35.6z" fill="#ccc" stroke-width="2.5"/>
  <path d="M439.032 185.455c.791 0 22.152-.79 22.152-.79v15.822l-22.152.791v-15.823z" fill="#b3b3b3" stroke-width="1pt"/>
  <path d="m31.596 41.578s295.1-6.33 295.48-5.13c1.582 1.2 144.4 130.38 144.4 131.58l-356.78 15.03s-83.094-143.06-83.094-141.48z" fill="#ccc" stroke-linejoin="bevel" stroke-width="3.75"/>
  <path d="m110.3 256.25-79.905-146.36-0.791-69.512 81.487 143.09c3.164 2.373 3.956 68.829-0.791 72.785z" fill="#b3b3b3" stroke-linejoin="bevel" stroke-width="3.75"/>
 </g>
</svg>
