<svg width="400pt" height="400pt" xmlns="http://www.w3.org/2000/svg"><path d="M426.278 378.046l-346.84 1.119s-84.07-22.226-80.713-124.04C-13.892 169.635 56.289 146.476 60.765 142c4.475-4.475 366.632-4.504 366.632-4.504h0l-1.119 240.55z" transform="matrix(0 -.60412 1.6083 0 -165.221 394.586)" font-size="12" fill="#ccc" fill-rule="evenodd" stroke="#000" stroke-width="3.75"/><path d="M495.646 253.855a234.956 236.075 0 10-469.913 0 234.956 236.075 0 10469.913 0H260.69z" transform="matrix(0 -.17405 .8232 0 39.477 182.772)" font-size="12" fill="none" stroke="#000" stroke-width="9.765"/><path d="M248.452 97.86a190.74 39.879 0 100 79.757 190.74 39.879 0 100-79.757v39.878z" font-size="12" fill="#ccc" fill-rule="evenodd"/></svg>