<?xml version="1.0" encoding="UTF-8"?>
<svg width="400pt" height="400pt" xmlns="http://www.w3.org/2000/svg" xmlns:xlink="http://www.w3.org/1999/xlink">
 <g stroke="#000">
  <path d="m255.54 189.87-122.63-106.01 73.576-2.374 134.49 90.19s-31.646 29.273-85.443 18.197zm-123.42-106.01 1.582 164.56 122.63 125.79 0.791-182.75-125-107.6z" fill="#b3b2b3" fill-rule="evenodd" stroke-linejoin="bevel" stroke-width="3.75"/>
  <path d="m257.91 190.66s26.107 3.164 45.886-0.791c26.898-10.285 37.974-16.614 37.974-16.614l0.791 178.8s-15.032 11.076-33.227 18.196c-30.064 6.329-53.007 3.956-53.007 3.956l1.583-183.54z" fill="#ccc" fill-rule="evenodd" stroke-linejoin="bevel" stroke-width="3.75"/>
  <g stroke-width="1pt">
   <path d="M269.779 215.19s63.29-13.45 63.29-12.658c0 .79-.79 25.316-.79 25.316s-61.71 13.45-62.5 13.45c-.791 0-.791-24.526 0-26.108z" fill="none"/>
   <path d="m279.27 256.33 46.677-9.493v3.956l-46.677 10.284v-4.747z" fill="#000100" fill-rule="evenodd"/>
   <path d="m316.46 278.48 11.867-1.581v11.867l-11.867 2.374v-12.66z" fill="#00b300" fill-rule="evenodd"/>
   <path d="m321.2 307.75 7.912-0.791v9.494l-7.912 1.582v-10.285z" fill="#b3b3b3" fill-rule="evenodd"/>
  </g>
 </g>
 <path d="m179.76 288.87c61.05 34.765 65.29-16.11 70.377-66.138 5.936 23.742 1.696 124.64-0.848 136.52-5.935-5.088-55.963-56.811-69.529-70.378z" fill="#fff" fill-opacity=".5" fill-rule="evenodd"/>
 <path d="M266.248 368.572c37.309.848 53.419-5.935 71.225-21.198 0-12.719 0-31.373-.848-31.373-4.24 19.502-16.958 39.004-70.377 52.571z" fill="#fff" fill-opacity=".498" fill-rule="evenodd"/>
 <path d="m148.39 88.758c2.544 0 44.941-6.784 61.051-2.544 14.415 11.87 52.571 37.308 61.051 46.635-42.396-26.285-78.858-50.875-122.1-44.091z" fill-opacity=".25" fill-rule="evenodd"/>
</svg>
