<svg width="400pt" height="400pt" xmlns="http://www.w3.org/2000/svg"><g font-size="12" fill="#b95300" stroke="#000" stroke-width="3.75" stroke-linejoin="bevel" fill-rule="evenodd"><path d="M314.605 302.277l74.024 8.766v41.882l-74.024-9.74v-40.908z"/><path d="M389.602 310.068c.974.974 66.233-39.934 66.233-39.934v42.856s-67.207 40.91-67.207 38.961c0-1.948 0-40.909.974-41.883z"/><path d="M314.604 303.25l73.05 7.792 69.155-40.908-68.18-6.818-74.025 39.934zM244.476 343.185l74.024 8.766v41.882l-74.024-9.74v-40.908zM319.474 350.976c.974.974 66.233-39.934 66.233-39.934v42.856S318.5 394.808 318.5 392.86c0-1.948 0-40.909.974-41.883z"/><path d="M244.476 344.158l73.05 7.792 69.155-40.908-68.181-6.818-74.024 39.934zM174.348 384.093l74.024 8.766v41.882l-74.024-9.74v-40.908z"/><path d="M249.345 391.885c.974.974 66.233-39.934 66.233-39.934v42.856s-67.207 40.909-67.207 38.96c0-1.947 0-40.908.974-41.882z"/><path d="M174.347 385.067l73.05 7.792 69.155-40.908-68.18-6.818-74.025 39.934zM106.167 424.027l74.024 8.766v41.882l-74.024-9.74v-40.908z"/><path d="M181.165 431.819c.974.974 66.233-39.934 66.233-39.934v42.856s-67.207 40.909-67.207 38.961c0-1.948 0-40.909.974-41.883z"/><path d="M106.167 425.001l73.05 7.792 69.155-40.908-68.181-6.818-74.024 39.934zM263.956 285.719l74.024 8.766v41.882l-74.024-9.74v-40.908zM338.954 293.51c.974.974 66.233-39.934 66.233-39.934v42.856s-67.207 40.91-67.207 38.961c0-1.948 0-40.909.974-41.883z"/><path d="M263.956 286.692l73.05 7.792 69.155-40.908-68.18-6.818-74.025 39.934zM193.828 326.627l74.024 8.766v41.882l-74.024-9.74v-40.908zM268.826 334.418c.974.974 66.233-39.934 66.233-39.934v42.856s-67.207 40.91-67.207 38.961c0-1.948 0-40.909.974-41.883z"/><path d="M193.828 327.6l73.05 7.792 69.155-40.908-68.181-6.818-74.024 39.934zM123.7 367.535l74.023 8.766v41.882l-74.024-9.74v-40.908zM198.697 375.327c.974.974 66.233-39.934 66.233-39.934v42.856s-67.207 40.909-67.207 38.96c0-1.947 0-40.908.974-41.882z"/><path d="M123.699 368.509l73.05 7.792 69.155-40.908-68.181-6.818-74.024 39.934zM55.519 407.47l74.024 8.765v41.882l-74.024-9.74V407.47z"/><path d="M130.516 415.26c.975.975 66.233-39.933 66.233-39.933v42.856s-67.207 40.909-67.207 38.96c0-1.947 0-40.908.974-41.882z"/><path d="M55.519 408.443l73.05 7.792 69.155-40.908-68.181-6.818-74.024 39.934zM298.047 219.486l74.024 8.766v41.882l-74.024-9.74v-40.908z"/><path d="M373.044 227.278c.974.974 66.233-39.934 66.233-39.934V230.2s-67.207 40.909-67.207 38.96c0-1.947 0-40.908.974-41.882z"/><path d="M298.046 220.46l73.05 7.792 69.155-40.908-68.18-6.818-74.025 39.934zM227.918 260.394l74.024 8.766v41.882l-74.024-9.74v-40.908z"/><path d="M302.916 268.186c.974.974 66.233-39.934 66.233-39.934v42.856s-67.207 40.909-67.207 38.96c0-1.947 0-40.908.974-41.882z"/><path d="M227.918 261.368l73.05 7.792 69.155-40.908-68.181-6.818-74.024 39.934z"/><g><path d="M157.79 301.303l74.024 8.766v41.882l-74.024-9.74v-40.908z"/><path d="M232.787 309.094c.974.974 66.233-39.934 66.233-39.934v42.856s-67.207 40.91-67.207 38.961c0-1.948 0-40.909.974-41.883z"/><path d="M157.79 302.276l73.05 7.792 69.154-40.908-68.18-6.818-74.025 39.934z"/></g><g><path d="M89.61 341.237l74.023 8.766v41.882l-74.024-9.74v-40.908zM164.607 349.028c.974.974 66.233-39.934 66.233-39.934v42.856s-67.207 40.91-67.207 38.961c0-1.948 0-40.909.974-41.883z"/><path d="M89.609 342.21l73.05 7.792 69.155-40.908-68.181-6.818-74.024 39.934z"/></g><g><path d="M257.138 198.058l74.024 8.766v41.882l-74.024-9.74v-40.908zM332.136 205.85c.974.973 66.233-39.934 66.233-39.934v42.856s-67.207 40.909-67.207 38.96c0-1.948 0-40.909.974-41.883z"/><path d="M257.138 199.031l73.05 7.792 69.155-40.907-68.181-6.819-74.024 39.934z"/></g><g><path d="M187.01 238.966l74.024 8.766v41.882l-74.024-9.74v-40.908zM262.008 246.758c.974.974 66.233-39.934 66.233-39.934v42.856s-67.207 40.909-67.207 38.96c0-1.947 0-40.908.974-41.882z"/><path d="M187.01 239.94l73.05 7.792 69.155-40.908-68.181-6.818-74.024 39.934z"/></g><g><path d="M116.881 279.875l74.024 8.766v41.881l-74.024-9.74v-40.907z"/><path d="M191.879 287.666c.974.974 66.233-39.934 66.233-39.934v42.856s-67.207 40.909-67.207 38.961c0-1.948 0-40.909.974-41.883z"/><path d="M116.881 280.848l73.05 7.792 69.155-40.908-68.181-6.818-74.024 39.934z"/></g><g><path d="M48.7 319.809l74.025 8.766v41.882l-74.024-9.74v-40.908z"/><path d="M123.698 327.6c.975.974 66.233-39.934 66.233-39.934v42.856s-67.207 40.91-67.207 38.961c0-1.948 0-40.909.974-41.883z"/><path d="M48.7 320.782l73.05 7.792 69.156-40.908-68.182-6.818-74.023 39.934z"/></g><g><path d="M280.514 138.644l74.024 8.766v41.882l-74.024-9.74v-40.908zM355.512 146.435c.974.974 66.233-39.934 66.233-39.934v42.856s-67.207 40.91-67.207 38.961c0-1.948 0-40.909.974-41.883z"/><path d="M280.514 139.617l73.05 7.792 69.155-40.908-68.18-6.818-74.025 39.934z"/></g><g><path d="M210.386 179.552l74.024 8.766V230.2l-74.024-9.74v-40.908zM285.384 187.343c.974.974 66.233-39.934 66.233-39.934v42.856s-67.207 40.91-67.207 38.961c0-1.948 0-40.909.974-41.883z"/><path d="M210.386 180.525l73.05 7.792 69.155-40.908-68.181-6.818-74.024 39.934z"/></g><g><path d="M140.257 220.46l74.024 8.766v41.882l-74.024-9.74V220.46zM215.255 228.252c.974.974 66.233-39.934 66.233-39.934v42.856s-67.207 40.909-67.207 38.96c0-1.947 0-40.908.974-41.882z"/><path d="M140.257 221.434l73.05 7.792 69.155-40.908-68.18-6.818-74.025 39.934z"/></g><g><path d="M72.077 260.394l74.024 8.766v41.882l-74.024-9.74v-40.908zM147.075 268.186c.974.974 66.233-39.934 66.233-39.934v42.856s-67.207 40.909-67.207 38.96c0-1.947 0-40.908.974-41.882z"/><path d="M72.077 261.368l73.05 7.792 69.155-40.908-68.181-6.818-74.024 39.934z"/></g><g><path d="M232.788 120.137l74.024 8.766v41.882l-74.024-9.74v-40.908zM307.786 127.929c.974.974 66.233-39.934 66.233-39.934v42.856s-67.207 40.909-67.207 38.96c0-1.947 0-40.908.974-41.882z"/><path d="M232.788 121.11l73.05 7.793 69.155-40.908-68.181-6.818-74.024 39.934z"/></g><g><path d="M162.66 161.046l74.024 8.766v41.882l-74.024-9.74v-40.908z"/><path d="M237.657 168.837c.974.974 66.233-39.934 66.233-39.934v42.856s-67.207 40.91-67.207 38.961c0-1.948 0-40.909.974-41.883z"/><path d="M162.66 162.02l73.05 7.791 69.154-40.908-68.18-6.818-74.025 39.934z"/></g><g><path d="M92.531 201.954l74.024 8.766v41.882l-74.024-9.74v-40.908zM167.529 209.745c.974.974 66.233-39.934 66.233-39.934v42.856s-67.207 40.91-67.207 38.961c0-1.948 0-40.909.974-41.883z"/><path d="M92.53 202.927l73.05 7.792 69.156-40.908-68.181-6.818-74.024 39.934z"/></g><g><path d="M24.35 241.888l74.025 8.766v41.882l-74.024-9.74v-40.908z"/><path d="M99.348 249.68c.974.974 66.233-39.934 66.233-39.934v42.856s-67.207 40.909-67.207 38.96c0-1.947 0-40.908.974-41.882z"/><path d="M24.35 242.862l73.05 7.792 69.155-40.908-68.18-6.818-74.025 39.934z"/></g><g><path d="M260.06 57.801l74.024 8.766v41.882l-74.024-9.74V57.801zM335.058 65.592c.974.974 66.233-39.933 66.233-39.933v42.855s-67.207 40.91-67.207 38.962c0-1.949 0-40.91.974-41.884z"/><path d="M260.06 58.774l73.05 7.792 69.155-40.907-68.181-6.819-74.024 39.934z"/></g><g><path d="M189.932 98.71l74.024 8.765v41.882l-74.024-9.74V98.71zM264.93 106.5c.974.975 66.233-39.933 66.233-39.933v42.856s-67.207 40.909-67.207 38.96c0-1.947 0-40.908.974-41.882z"/><path d="M189.932 99.683l73.05 7.792 69.155-40.908-68.181-6.818-74.024 39.934z"/></g><g><path d="M119.803 139.618l74.024 8.766v41.882l-74.024-9.74v-40.908zM194.801 147.41c.974.973 66.233-39.935 66.233-39.935v42.856s-67.207 40.91-67.207 38.961c0-1.948 0-40.909.974-41.883z"/><path d="M119.803 140.591l73.05 7.792 69.155-40.908-68.181-6.818-74.024 39.934z"/></g><g><path d="M51.623 179.552l74.024 8.766V230.2l-74.024-9.74v-40.908z"/><path d="M126.62 187.343c.975.974 66.233-39.934 66.233-39.934v42.856s-67.207 40.91-67.207 38.961c0-1.948 0-40.909.974-41.883z"/><path d="M51.623 180.525l73.05 7.792 69.155-40.908-68.182-6.818-74.023 39.934z"/></g></g></svg>