<svg width="400pt" height="400pt" xmlns="http://www.w3.org/2000/svg"><path d="M489.006 250.502a237.52 236.782 0 10-475.04 0 237.52 236.783 0 10475.04 0h-237.52z" fill-rule="evenodd"/><path d="M482.756 250.502a232.52 231.782 0 10-465.04 0 232.52 231.782 0 10465.04 0h-232.52z" fill-rule="evenodd" fill="#00f"/><path d="M451.754 250.133a200.041 201.886 0 10-400.083 0 200.041 201.886 0 10400.083 0H251.713z" fill-rule="evenodd" fill="#fff"/><path d="M266.475 243.859a16.609 16.24 0 10-33.217 0 16.609 16.24 0 1033.217 0h-16.608z" fill-rule="evenodd"/><path d="M263.523 243.965a14.025 13.919 0 10-28.05 0 14.025 13.92 0 1028.05 0h-14.025z" fill-rule="evenodd" fill="#00f"/><path d="M235.298 246.471c-2.756-9.539 8.48-19.502 17.383-16.535 4.24 5.512-12.295 19.079-17.383 16.535zM37.872 343.75C6.25 266.25 12.5 191.25 52.5 127.5c38.75-51.25 92.205-115.397 220-108.378C144.654 20.532 81.25 101.25 60 136.25 41.25 170 9.122 217.5 37.872 343.75z" fill="#fff" fill-rule="evenodd" fill-opacity=".5"/><path d="M253.75 453.75c77.5-16.25 172.5-82.5 181.25-126.25 16.25-53.75-120-115-21.25-198.75C477.5 212.5 458.377 304.741 450 325c-10.078 26.328-60 127.5-196.25 128.75z" fill="#fff" fill-rule="evenodd" fill-opacity=".496"/><path d="M122.055 405.16c-68.45-58.553-79.996-156.691-65.976-202.873 22.267-54.43 56.079-156.693 221.842-154.219C117.931 30.75 56.079 167.65 48.657 200.637c-8.247 16.494-23.091 121.229 73.398 204.523z" fill-rule="evenodd" fill-opacity=".25"/><path d="M216.25 483.75c67.5 8.75 203.75-21.25 245-128.75 62.5-143.75 2.5-202.5-38.75-266.25C495 195 487.5 285 452.5 352.5c-40 77.5-113.75 128.75-236.25 131.25z" fill-rule="evenodd" fill-opacity=".247"/><path d="M243.125 50H255v25l-11.875-.625V50zM245 425.625h11.875v25L245 450v-24.375zM449.688 239.062v11.875h-25l.625-11.875h24.375zM78.438 239.687v11.875h-25l.625-11.875h24.375zM349.57 75.648l9.992 6.416-13.506 21.037-9.656-6.941 13.17-20.512zM149.57 391.273l9.992 6.416-13.507 21.037-9.655-6.941 13.17-20.512zM109.833 149.088l-6.416 9.993-21.037-13.507 6.941-9.655 20.512 13.169zM424.208 349.713l-6.416 9.993-21.037-13.507 6.941-9.655 20.512 13.17zM422.033 149.22l5.852 10.334-21.755 12.318-5.307-10.641 21.21-12.01zM90.783 317.345l5.851 10.334-21.754 12.318-5.307-10.64 21.21-12.012zM178.18 90.726l-10.334 5.851-12.318-21.754 10.64-5.308 12.012 21.21zM350.055 423.851l-10.334 5.851-12.318-21.754 10.64-5.308 12.012 21.211z" fill="#00f" fill-rule="evenodd" stroke="#000" stroke-width="1pt"/><g fill-rule="evenodd"><path d="M235.801 227.638c8.26-6.252 21.209-4.466 26.119 0 11.292-27.548-8.529-136.113-12.859-148.218-5 10-26.423 121.208-13.26 148.218z" fill="#00f" stroke="#000" stroke-width="1pt"/><path d="M236.137 223.056c-7.617-20.675 9.25-134.391 12.514-133.847 0 17.955 7.618 147.994-12.514 133.847z" fill="#fff" fill-opacity=".498"/></g><g font-size="12" fill-rule="evenodd"><path d="M235.801 227.638c8.26-6.252 21.209-4.466 26.119 0 11.292-27.548-8.529-136.113-12.859-148.218-5 10-26.423 121.208-13.26 148.218z" transform="matrix(-1.07728 -.65185 .29066 -.48036 443.119 530.048)" fill="#00f" stroke="#000" stroke-width="1pt"/><path d="M226.115 254.869c-14.326 4.635-30.725 69.893-27.094 71.843 5.417-8.501 52.74-64.92 27.094-71.843z" fill="#fff" fill-opacity=".498"/></g></svg>