<?xml version="1.0" encoding="UTF-8"?>
<svg width="372.05" height="524.41" version="1.0" xmlns="http://www.w3.org/2000/svg">
 <path d="m111.83 73.562c0 1.842 0.04 85.916 0.126 87.731 2.283 48.407 34.594 86.832 74.07 86.832 39.329 0 71.536-38.143 74.036-86.293 0.103-1.994 0.161-86.244 0.161-88.27h-95.693l-7.262 29.046 17.255 18.98s-20.13 54.066-22.431 56.942 14.379-54.066 14.379-54.066l-15.53-21.856 5.464-29.046h-44.575zm64.994 177.04c6.862 40.283 5.37 77.432 0 113.13h18.405c-5.224-39.42-3.94-76.672 0-113.04-5.015 1.986-11.956 1.197-18.405-0.09zm-6.543 116-32.568 12.654 0.359 5.751h94.274l1.995-5.751-35.93-12.654h-28.13zm-87.514 30.281h206.52v6.662h-206.52z" fill="maroon"/>
 <path d="M122.302 413.536v5.512h-4.539c-1.702 0-2.888.48-3.558 1.44-.654.961-.98 2.69-.98 5.188v3.566h7.813v5.15h-7.813v35.194h-4.771v-35.193h-4.539v-5.151h4.539v-2.81c0-4.49.748-7.757 2.243-9.798 1.496-2.065 3.869-3.098 7.118-3.098h4.487m20.785 21.902a5.108 5.108 0 00-1.754-.937c-.619-.216-1.306-.324-2.063-.324-2.682 0-4.745 1.225-6.189 3.674-1.427 2.426-2.14 5.92-2.14 10.482v21.253h-4.77v-40.344h4.77v6.268c.997-2.45 2.295-4.263 3.894-5.44 1.599-1.2 3.541-1.8 5.828-1.8.326 0 .687.035 1.083.107.395.048.834.132 1.315.252l.026 6.809m18.155 13.868c-3.834 0-6.49.612-7.969 1.837-1.478 1.225-2.218 3.314-2.218 6.268 0 2.353.55 4.227 1.65 5.62 1.118 1.368 2.631 2.053 4.54 2.053 2.63 0 4.736-1.297 6.317-3.89 1.6-2.618 2.399-6.088 2.399-10.411v-1.477h-4.72m9.465-2.738v23.018h-4.745v-6.123c-1.083 2.45-2.433 4.262-4.049 5.439-1.616 1.153-3.593 1.729-5.931 1.729-2.957 0-5.312-1.153-7.066-3.458-1.736-2.33-2.605-5.44-2.605-9.33 0-4.539 1.083-7.96 3.25-10.266 2.183-2.305 5.432-3.458 9.747-3.458h6.654v-.649c0-3.05-.722-5.403-2.166-7.06-1.427-1.68-3.439-2.521-6.035-2.521-1.65 0-3.258.276-4.822.828-1.565.552-3.069 1.381-4.513 2.486v-6.124c1.736-.937 3.421-1.633 5.054-2.09 1.634-.48 3.224-.72 4.771-.72 4.178 0 7.298 1.513 9.361 4.539 2.063 3.026 3.095 7.613 3.095 13.76m28.908 2.378c0-4.803-.714-8.525-2.14-11.167-1.41-2.642-3.396-3.962-5.958-3.962-2.544 0-4.53 1.32-5.957 3.962-1.41 2.642-2.114 6.364-2.114 11.167 0 4.779.705 8.489 2.114 11.13 1.427 2.642 3.413 3.963 5.957 3.963 2.562 0 4.548-1.32 5.957-3.962 1.427-2.642 2.14-6.352 2.14-11.131m4.746 15.633c0 6.869-1.092 11.972-3.275 15.31-2.184 3.362-5.527 5.043-10.032 5.043-1.667 0-3.24-.18-4.719-.54a18.059 18.059 0 01-4.306-1.586v-6.447c1.392 1.056 2.767 1.837 4.126 2.341 1.358.504 2.742.756 4.151.756 3.112 0 5.442-1.14 6.989-3.422 1.547-2.257 2.32-5.68 2.32-10.266v-3.278c-.98 2.378-2.234 4.155-3.764 5.331-1.53 1.177-3.361 1.765-5.493 1.765-3.542 0-6.395-1.885-8.562-5.655-2.166-3.77-3.249-8.765-3.249-14.985 0-6.244 1.083-11.251 3.25-15.021 2.166-3.77 5.02-5.656 8.561-5.656 2.132 0 3.963.589 5.493 1.765 1.53 1.177 2.785 2.954 3.765 5.332v-6.124h4.745v35.337m9.773-35.337h4.745v40.344h-4.745v-40.344m0-15.706h4.745v8.393h-4.745v-8.393m14.648 0h4.745v56.05h-4.745v-56.05m39.352 34.221V451h-21.816c.206 4.563 1.186 8.045 2.94 10.446 1.77 2.378 4.229 3.567 7.375 3.567 1.822 0 3.584-.313 5.286-.937 1.72-.624 3.421-1.56 5.106-2.81v6.268a23.084 23.084 0 01-5.235 2.306 19.106 19.106 0 01-5.441.792c-4.607 0-8.26-1.873-10.96-5.62-2.682-3.746-4.023-8.813-4.023-15.2 0-6.605 1.272-11.84 3.817-15.706 2.561-3.89 6.008-5.836 10.34-5.836 3.886 0 6.955 1.753 9.207 5.26 2.27 3.482 3.404 8.224 3.404 14.228m-4.745-1.945c-.034-3.626-.765-6.52-2.192-8.681-1.41-2.162-3.284-3.242-5.622-3.242-2.647 0-4.77 1.044-6.37 3.134-1.58 2.089-2.492 5.03-2.733 8.825l16.917-.036" fill="maroon" font-family="DejaVu Sans" font-size="62.42" font-weight="400"/>
 <path d="m16.168 14.017h339.71v496.38h-339.71z" fill="none" stroke="maroon" stroke-width="2"/>
</svg>
