<?xml version="1.0" encoding="UTF-8"?>
<svg width="372.05" height="524.41" version="1.0" xmlns="http://www.w3.org/2000/svg">
 <path d="m49.764 396.89h273.52v6.662h-273.52z" fill="maroon"/>
 <path d="M57.39 417.787v11.455h9.773v5.15H57.39v21.902c0 3.29.318 5.404.954 6.34.653.937 1.968 1.405 3.945 1.405h4.874v5.547H62.29c-3.662 0-6.189-.948-7.581-2.845-1.393-1.922-2.09-5.404-2.09-10.447v-21.901h-3.48v-5.151h3.48v-11.455h4.772m37.58 27.449v24.35h-4.745v-24.134c0-3.819-.533-6.676-1.599-8.574-1.065-1.897-2.664-2.845-4.796-2.845-2.562 0-4.582 1.14-6.06 3.422-1.479 2.281-2.218 5.391-2.218 9.33v22.801h-4.77v-56.05h4.77v21.974c1.135-2.426 2.467-4.239 3.997-5.44 1.547-1.2 3.327-1.8 5.338-1.8 3.318 0 5.828 1.44 7.53 4.322 1.702 2.858 2.553 7.072 2.553 12.644m7.048-15.994h4.745v40.344h-4.745v-40.344m0-15.706h4.745v8.393h-4.745v-8.393m30.592 16.894v6.268c-1.34-.96-2.733-1.68-4.177-2.161-1.444-.48-2.94-.72-4.487-.72-2.356 0-4.126.504-5.313 1.512-1.169 1.01-1.753 2.522-1.753 4.54 0 1.536.421 2.749 1.263 3.637.843.865 2.536 1.694 5.08 2.486l1.625.504c3.37 1.009 5.76 2.438 7.17 4.287 1.426 1.825 2.14 4.383 2.14 7.673 0 3.746-1.066 6.712-3.198 8.897-2.115 2.185-5.029 3.278-8.742 3.278-1.547 0-3.163-.216-4.848-.648-1.668-.409-3.43-1.033-5.287-1.874v-6.844c1.754 1.273 3.482 2.234 5.184 2.882 1.702.624 3.386.937 5.054.937 2.235 0 3.954-.529 5.158-1.585 1.203-1.081 1.805-2.594 1.805-4.54 0-1.8-.439-3.181-1.315-4.142-.86-.96-2.76-1.885-5.7-2.773l-1.65-.54c-2.94-.865-5.063-2.186-6.37-3.963-1.306-1.801-1.96-4.263-1.96-7.385 0-3.794.963-6.724 2.889-8.789 1.925-2.065 4.659-3.098 8.2-3.098 1.754 0 3.404.18 4.952.54 1.547.36 2.974.901 4.28 1.621m39.42 0v6.268c-1.341-.96-2.734-1.68-4.178-2.161-1.444-.48-2.94-.72-4.487-.72-2.355 0-4.126.504-5.312 1.512-1.17 1.01-1.754 2.522-1.754 4.54 0 1.536.421 2.749 1.264 3.637.842.865 2.536 1.694 5.08 2.486l1.625.504c3.37 1.009 5.759 2.438 7.169 4.287 1.427 1.825 2.14 4.383 2.14 7.673 0 3.746-1.066 6.712-3.198 8.897-2.114 2.185-5.028 3.278-8.742 3.278-1.547 0-3.163-.216-4.848-.648-1.667-.409-3.43-1.033-5.286-1.874v-6.844c1.753 1.273 3.481 2.234 5.183 2.882 1.702.624 3.387.937 5.054.937 2.235 0 3.955-.529 5.158-1.585 1.203-1.081 1.805-2.594 1.805-4.54 0-1.8-.438-3.181-1.315-4.142-.86-.96-2.76-1.885-5.7-2.773l-1.65-.54c-2.94-.865-5.063-2.186-6.37-3.963-1.306-1.801-1.959-4.263-1.959-7.385 0-3.794.963-6.724 2.888-8.789 1.926-2.065 4.66-3.098 8.2-3.098 1.754 0 3.405.18 4.952.54 1.547.36 2.974.901 4.28 1.621m6.662-1.188h4.745v40.344h-4.745v-40.344m0-15.706h4.745v8.393h-4.745v-8.393m31.185 21.83v-21.83h4.745v56.05h-4.745v-6.051c-.997 2.401-2.26 4.19-3.79 5.367-1.514 1.153-3.336 1.729-5.468 1.729-3.49 0-6.335-1.945-8.535-5.836-2.184-3.89-3.275-9.005-3.275-15.345s1.091-11.455 3.275-15.345c2.2-3.89 5.045-5.836 8.535-5.836 2.132 0 3.954.589 5.467 1.765 1.53 1.153 2.794 2.93 3.791 5.332m-16.169 14.084c0 4.875.714 8.705 2.14 11.491 1.445 2.762 3.422 4.143 5.932 4.143 2.51 0 4.487-1.381 5.931-4.143 1.444-2.786 2.166-6.616 2.166-11.49 0-4.876-.722-8.694-2.166-11.456-1.444-2.786-3.421-4.178-5.931-4.178-2.51 0-4.487 1.392-5.931 4.178-1.427 2.762-2.14 6.58-2.14 11.455m52.924-1.693V451h-21.817c.206 4.563 1.186 8.045 2.94 10.446 1.77 2.378 4.23 3.567 7.375 3.567 1.823 0 3.585-.313 5.287-.937 1.719-.624 3.421-1.56 5.106-2.81v6.268a23.084 23.084 0 01-5.235 2.306 19.106 19.106 0 01-5.441.792c-4.608 0-8.261-1.873-10.96-5.62-2.682-3.746-4.023-8.813-4.023-15.2 0-6.605 1.272-11.84 3.817-15.706 2.561-3.89 6.008-5.836 10.34-5.836 3.886 0 6.955 1.753 9.207 5.26 2.269 3.482 3.404 8.224 3.404 14.228m-4.745-1.945c-.035-3.626-.765-6.52-2.192-8.681-1.41-2.162-3.284-3.242-5.622-3.242-2.648 0-4.77 1.044-6.37 3.134-1.581 2.089-2.492 5.03-2.733 8.825l16.917-.036m23.818 7.853v-24.423h4.744v24.17c0 3.819.533 6.689 1.6 8.61 1.065 1.897 2.664 2.846 4.796 2.846 2.561 0 4.581-1.141 6.06-3.423 1.496-2.28 2.244-5.39 2.244-9.33v-22.873h4.745v40.344h-4.745v-6.195c-1.152 2.45-2.493 4.274-4.023 5.475-1.513 1.177-3.275 1.765-5.287 1.765-3.318 0-5.837-1.44-7.556-4.323-1.719-2.881-2.578-7.096-2.578-12.643M301.84 463.535v21.397h-4.77v-55.69h4.77v6.124c.997-2.402 2.252-4.179 3.765-5.332 1.53-1.176 3.353-1.765 5.467-1.765 3.507 0 6.353 1.945 8.536 5.836 2.2 3.89 3.3 9.005 3.3 15.345s-1.1 11.455-3.3 15.345c-2.183 3.89-5.029 5.836-8.536 5.836-2.114 0-3.937-.576-5.467-1.729-1.513-1.177-2.768-2.966-3.765-5.367m16.143-14.085c0-4.875-.722-8.693-2.166-11.455-1.427-2.786-3.395-4.178-5.905-4.178-2.51 0-4.487 1.392-5.932 4.178-1.426 2.762-2.14 6.58-2.14 11.455s.714 8.705 2.14 11.491c1.445 2.762 3.422 4.143 5.932 4.143 2.51 0 4.478-1.381 5.905-4.143 1.444-2.786 2.166-6.616 2.166-11.49" fill="maroon" font-family="DejaVu Sans" font-size="62.42" font-weight="400"/>
 <path d="m16.168 14.017h339.71v496.38h-339.71z" fill="none" stroke="maroon" stroke-width="2"/>
 <path d="m110.52 65.406-50 42.813h30v271.19l20-14.281 20 14.281v-271.19h30l-50-42.813zm151 0-50 42.813h30v271.19l20-14.281 20 14.281v-271.19h30l-50-42.813z" fill="maroon" fill-rule="evenodd"/>
</svg>
