<svg width="400pt" height="400pt" xmlns="http://www.w3.org/2000/svg"><path d="M652.533 241.644a213.328 219.972 0 10-426.656 0 213.328 219.972 0 10426.656 0H439.205z" transform="matrix(1.0692 0 0 1.0302 -219.364 2.298)" font-size="12" fill="none" stroke="#bf0000" stroke-width="37.117"/><path d="M460.611 251.24a209.637 208.9 0 10-419.274 0 209.637 208.9 0 10419.274 0H250.974z" fill-rule="evenodd" fill="#fff"/><path d="M117.57 339.139c0-1.818-11.813-66.341 0-91.787 21.811-39.078 31.807-74.52 33.625-104.51.909.909 1.818 48.165-1.818 53.618-10.905 20.902-21.81 44.53-29.08 67.25 0 44.53-1.818 79.064-2.727 75.429z" fill="#fff" fill-rule="evenodd" fill-opacity=".578"/><path d="M112.2 91.06l292.312 307.074" font-size="12" fill="none" stroke="#bf0000" stroke-width="37.5"/></svg>