<?xml version="1.0" encoding="UTF-8"?>
<svg width="256" height="256" xmlns="http://www.w3.org/2000/svg">
 <path d="M234 129.5c0 60.475-49.025 109.5-109.5 109.5S15 189.975 15 129.5 64.025 20 124.5 20 234 69.025 234 129.5z" fill="#fff" fill-rule="evenodd"/>
 <path d="m57.995 160.7 8.687 21.798 2.945-1.174-8.686-21.798-2.946 1.174zm6.48-2.582 8.687 21.797 3.535-1.409-8.687-21.797-3.535 1.409zm7.07-2.818 8.686 21.798 129.61-51.65-8.687-21.797-29.456 11.738 6.809 17.085-3.535 1.408-6.808-17.084-96.615 38.502zm-1.866-104.28s9.31 24.609-3.103 46.552-10.28 45.508-10.28 45.508-8.676-28.979 3.102-46.552 10.281-45.508 10.281-45.508zm-7.657 7.806s3.427 9.057-1.141 17.133c-4.569 8.075-3.784 16.747-3.784 16.747s-3.193-10.664 1.142-17.132c4.334-6.467 3.783-16.747 3.783-16.747zm10.431 33.887s5.388 14.24-1.795 26.939c-7.183 12.698-5.95 26.334-5.95 26.334s-5.02-16.77 1.796-26.938c6.815-10.17 5.95-26.335 5.95-26.335z"/>
 <path d="M6 129.5C6 195.4 59.6 249 125.5 249S245 195.4 245 129.5 191.4 10 125.5 10 6 63.6 6 129.5zm16.655 0c0-23.665 7.96-45.436 21.34-62.795 9.734 9.771 37.794 37.95 70.887 70.94 19.696 19.635 39.385 39.184 54.181 53.713 7.399 7.265 13.56 13.275 17.93 17.436.699.664 1.269 1.2 1.874 1.77-17.45 13.644-39.443 21.78-63.367 21.78-56.898 0-102.845-45.946-102.845-102.844zm32.53-75.13C73.56 37.168 98.277 26.655 125.5 26.655c56.898 0 102.845 45.947 102.845 102.845 0 26.943-10.305 51.427-27.195 69.743-.776-.727-1.649-1.567-2.654-2.524-4.244-4.04-10.406-10.019-17.774-17.254-14.736-14.47-34.396-34.014-54.077-53.634a33756.555 33756.555 0 01-71.46-71.46z" fill="red" font-family="Bitstream Vera Sans" font-weight="400" overflow="visible" style="block-progression:tb;text-indent:0;text-transform:none"/>
</svg>
