<svg width="400pt" height="400pt" xmlns="http://www.w3.org/2000/svg"><path d="M652.533 241.644a213.328 219.972 0 10-426.656 0 213.328 219.972 0 10426.656 0H439.205z" transform="matrix(1.0692 0 0 1.0302 -219.364 2.298)" font-size="12" fill="none" stroke="#bf0000" stroke-width="37.117"/><path d="M460.611 251.24a209.637 208.9 0 10-419.274 0 209.637 208.9 0 10419.274 0H250.974z" fill-rule="evenodd" fill="#fff"/><path d="M114.844 378.217c.909-.91 249.914-253.55 262.637-264.456 20.902-8.179 48.166 13.632 46.348 37.26-7.27 6.362-269.908 273.544-269.908 272.635 0-29.081-22.719-42.713-39.077-45.44z" fill="#f3f3f3" fill-rule="evenodd" stroke="#000" stroke-width="10" stroke-linejoin="round"/><path d="M324.385 165.562l53.097-51.801c7.27-4.544 43.621-2.726 46.347 38.169-6.361 5.453-51.8 50.892-51.8 50.892 4.544-23.628-25.833-41.804-47.644-37.26z" fill="#ddb600" fill-rule="evenodd" stroke="#000" stroke-width="10" stroke-linejoin="round"/><path d="M325.97 165.408c11.544.019 43.333 10.365 46.096 36.72l6.324-5.668c-4.176-14.54-14.055-33.354-46.347-37.511-.061-.442-3.986 4.893-6.073 6.459z" fill="#fff" fill-rule="evenodd" stroke="#000" stroke-width="5" stroke-linejoin="round"/><path d="M113.719 378.965c16.703-2.088 43.322 21.4 39.669 44.888-3.654-4.698-6.264 1.044-9.917-3.132-3.654-4.176-5.742-9.917-9.918-4.175-4.175 5.742-7.307 1.043-5.741-5.22 1.566-6.263.522 0-6.264-4.697 2.61-7.83-3.654-1.566-6.785-10.44 1.044-5.741.522-4.697-5.22-8.351 5.742-2.61 1.044-7.307 4.176-8.873z" fill-rule="evenodd" stroke="#000" stroke-width="1pt"/><path d="M117.895 382.097s.522.522 3.131 2.088c2.61 1.565 4.176 3.13.522 3.13-3.653 0-8.351 5.22-3.653-5.218zM118.939 396.19c.522 0-.522-2.088 2.609-4.176 3.132-2.088 9.918-3.654 5.22-.522-4.698 3.132-2.61 7.307-7.829 4.698zM130.422 412.37s-1.566-1.566 3.131-6.263c4.698-4.698 3.132 4.697-3.131 6.263zM126.768 398.277c5.219 0 8.873.522 6.263 3.132-2.609 2.61-6.785.522-6.263-3.132zM144.514 418.112c-.521-1.044-9.395-3.132-4.175-6.786 5.219-3.653 5.741 0 4.175 6.786z" fill="red" fill-rule="evenodd" stroke="#000" stroke-width="1pt"/><path d="M148.168 417.59s-5.219-6.264-1.044-5.742c4.176.522.522 6.264 1.044 5.742zM142.949 398.799s-6.786-3.131-4.176 2.088c2.61 5.22 3.132 6.786 4.176-2.088zM133.553 388.36s-5.741.522-2.087 4.698c3.653 4.175 0-2.61 2.087-4.698z" fill="red" fill-rule="evenodd" stroke="#000" stroke-width="1pt"/><path d="M139.382 109.217s29.989 57.254 24.536 69.068c2.726 22.719-13.632 48.165-26.354 73.61-13.633 20.903.908 77.247-19.085 110.872-2.726-9.087-26.355-66.34-7.27-120.867 11.814-23.63 42.713-59.98 28.173-132.683z" fill="#7f7f7f" fill-rule="evenodd"/><path d="M117.57 339.139c0-1.818-11.813-66.341 0-91.787 21.811-39.078 31.807-74.52 33.625-104.51.909.909 1.818 48.165-1.818 53.618-10.905 20.902-21.81 44.53-29.08 67.25 0 44.53-1.818 79.064-2.727 75.429z" fill="#fff" fill-rule="evenodd" fill-opacity=".578"/><path d="M112.2 91.06l292.312 307.074" font-size="12" fill="none" stroke="#bf0000" stroke-width="37.5"/></svg>