<svg xmlns="http://www.w3.org/2000/svg" width="256" height="256"><metadata/><path d="M128 33L22 223h212L128 33z" style="marker:none" color="#000" fill="#fff" overflow="visible"/><path style="text-indent:0;text-align:start;line-height:normal;text-transform:none;block-progression:tb;marker:none;-inkscape-font-specification:Bitstream Vera Sans" d="M133.085 28.76a7.475 7.475 0 00-11.543 1.754l-54.128 93.749-54.128 93.749a7.475 7.475 0 006.454 11.211h216.512a7.475 7.475 0 006.473-11.192l-54.108-93.768-54.128-93.749a7.475 7.475 0 00-1.404-1.755zm-5.09 20.453l47.655 82.518 47.655 82.556H32.687l47.655-82.556 47.654-82.518z" font-weight="400" color="#000" fill="red" overflow="visible" font-family="Bitstream Vera Sans"/><path d="M140.61 93.173l-36.08 55.84 18.04 1.288-18.04 48.537 36.94-53.691-16.322-3.866s16.322-48.967 15.463-48.108z" stroke="#000" stroke-width=".526"/></svg>