<?xml version="1.0" encoding="UTF-8"?>
<svg width="106.67" height="106.67" xmlns="http://www.w3.org/2000/svg" xmlns:xlink="http://www.w3.org/1999/xlink">
 <defs>
  <radialGradient id="b" cx=".3" cy=".207" xlink:href="#a"/>
  <radialGradient id="d" cx=".206" cy=".195" r=".536" xlink:href="#a"/>
  <radialGradient id="e" cx=".21" cy=".114" r=".584" xlink:href="#a"/>
  <linearGradient id="a">
   <stop stop-color="#02e2ff" offset="0"/>
   <stop stop-color="#0079a8" offset="1"/>
  </linearGradient>
  <linearGradient id="c" x1="-.118" x2=".471" y1=".041" y2=".769" xlink:href="#a"/>
 </defs>
 <path d="m43.202 16.956c0 6.61 5.362 11.973 11.97 11.973 6.606 0 11.968-5.364 11.968-11.973 0-6.608-5.362-11.972-11.969-11.972s-11.969 5.364-11.969 11.972z" fill="url(#b)" fill-rule="evenodd"/>
 <path d="M67.1 58.01c-2.57-13.699-6.682-26.702-20.405-29.272-15.753-7.057-22.18 11.088-21.45 29.505M53.696 91.894c5.828-10.333-2.392-30.029-13.218-26.191 5.054 8.644.389 15.942-7.43 24.92" fill="none" stroke="#00007f" stroke-width="2.5"/>
 <path d="m31.43 45.528c-1.8 11.046-1.299 20.33 8.388 21.908 8.72 1.203 13.11-7.066 14.91-18.111 1.8-11.046 1.514-20.076-8.39-21.908-9.652-1.792-13.11 7.066-14.909 18.111z" fill="url(#c)" fill-rule="evenodd"/>
 <path d="m63.89 58.268c0 2.07 1.68 3.75 3.75 3.75s3.75-1.68 3.75-3.75-1.68-3.75-3.75-3.75-3.75 1.68-3.75 3.75z" fill="url(#d)" fill-rule="evenodd"/>
 <path d="M51.29 92.557c-.138 2.065 2.544 3.928 5.986 4.157 3.443.23 6.348-1.26 6.486-3.326.138-2.065-2.544-3.928-5.987-4.157-3.442-.23-6.348 1.26-6.485 3.326zM43.202 93.465c.225-2.057-2.375-4.033-5.804-4.409-3.43-.376-6.396.989-6.622 3.047-.225 2.057 2.375 4.032 5.804 4.409 3.43.376 6.396-.989 6.622-3.047z" fill="url(#e)" fill-rule="evenodd"/>
 <path d="m21.075 58.972c0 2.07 1.68 3.75 3.75 3.75s3.75-1.68 3.75-3.75-1.68-3.75-3.75-3.75-3.75 1.68-3.75 3.75z" fill="url(#d)" fill-rule="evenodd"/>
</svg>
