<?xml version="1.0" encoding="UTF-8"?>
<svg width="106.67" height="106.67" xmlns="http://www.w3.org/2000/svg" xmlns:xlink="http://www.w3.org/1999/xlink">
 <defs>
  <radialGradient id="b" cx=".3" cy=".207" xlink:href="#a"/>
  <radialGradient id="d" cx=".206" cy=".195" r=".536" xlink:href="#a"/>
  <radialGradient id="e" cx=".21" cy=".114" r=".584" xlink:href="#a"/>
  <linearGradient id="a">
   <stop stop-color="#02e2ff" offset="0"/>
   <stop stop-color="#0079a8" offset="1"/>
  </linearGradient>
  <linearGradient id="c" x1="-.118" x2=".471" y1=".041" y2=".769" xlink:href="#a"/>
 </defs>
 <path d="M49.793 11.786c1.812 6.356-1.874 12.984-8.227 14.796-6.354 1.812-12.981-1.875-14.794-8.23C24.96 11.995 28.646 5.366 35 3.554c6.354-1.811 12.981 1.876 14.794 8.231z" fill="url(#b)" fill-rule="evenodd"/>
 <path d="m7.925 25.04c19.687 6.35 27.401 7.7 34.805 7.362 5.223-4.281 13.112-8.706 20.516-23.069m-24.918 83.54c-1.391-6.73-1.034-21.308 14.902-25.588 8.317-1.844 14.633-2.212 19.315-3.499 4.887 5.517 9.377 9.702 11.153 14.079" fill="none" stroke="#00007f" stroke-width="2.5"/>
 <path d="m58.994 44.92c3.07 10.763 3.648 20.042-5.79 22.734-8.522 2.206-13.842-5.497-16.91-16.26-3.07-10.762-3.834-19.764 5.79-22.733 9.38-2.899 13.841 5.498 16.91 16.26z" fill="url(#c)" fill-rule="evenodd"/>
 <path d="M10.262 22.282a3.751 3.751 0 01-2.578 4.635 3.751 3.751 0 01-4.635-2.578 3.751 3.751 0 012.578-4.635 3.751 3.751 0 014.635 2.578z" fill="url(#d)" fill-rule="evenodd"/>
 <path d="M39.764 93.813c-.062 2.069-2.91 3.664-6.36 3.561-3.448-.103-6.196-1.866-6.134-3.935.061-2.069 2.91-3.664 6.359-3.561 3.448.103 6.197 1.865 6.135 3.935zM94.045 75.66c.568 1.99-1.664 4.373-4.982 5.32-3.318.946-6.471.098-7.039-1.893-.567-1.99 1.665-4.374 4.982-5.32 3.318-.946 6.471-.098 7.04 1.892z" fill="url(#e)" fill-rule="evenodd"/>
 <path d="M67.472 6.126a3.751 3.751 0 01-2.578 4.635 3.751 3.751 0 01-4.634-2.578 3.751 3.751 0 012.578-4.635 3.751 3.751 0 014.634 2.578z" fill="url(#d)" fill-rule="evenodd"/>
</svg>
