<?xml version="1.0" encoding="UTF-8"?>
<svg width="106.67" height="106.67" xmlns="http://www.w3.org/2000/svg" xmlns:xlink="http://www.w3.org/1999/xlink">
 <defs>
  <radialGradient id="b" cx=".3" cy=".207" xlink:href="#a"/>
  <radialGradient id="d" cx=".206" cy=".195" r=".536" xlink:href="#a"/>
  <radialGradient id="e" cx=".21" cy=".114" r=".584" xlink:href="#a"/>
  <linearGradient id="a">
   <stop stop-color="#02e2ff" offset="0"/>
   <stop stop-color="#0079a8" offset="1"/>
  </linearGradient>
  <linearGradient id="c" x1="-.118" x2=".471" y1=".041" y2=".769" xlink:href="#a"/>
 </defs>
 <path d="m64.71 16.75c0 6.609-5.362 11.973-11.969 11.973-6.606 0-11.969-5.364-11.969-11.973s5.363-11.972 11.97-11.972c6.606 0 11.968 5.363 11.968 11.972z" fill="url(#b)" fill-rule="evenodd"/>
 <path d="M21.226 9.766C22.56 25.55 41.927 32.957 51.94 34.923c13.897-6.232 23.417-8.292 22.688-26.368M30.713 94.162c.508-6.853 5.585-23.352 22.083-23.098C69.803 72.079 78.18 80.2 79.195 89.593" fill="none" stroke="#00007f" stroke-width="2.5"/>
 <path d="m64.473 51.138c0 11.19-1.988 20.273-11.804 20.273-8.8-0.215-11.803-9.082-11.803-20.273s1.735-20.058 11.803-20.274c9.816-0.216 11.804 9.083 11.804 20.274z" fill="url(#c)" fill-rule="evenodd"/>
 <path d="m24.023 8.374c0 2.07-1.68 3.75-3.75 3.75s-3.75-1.68-3.75-3.75 1.68-3.75 3.75-3.75 3.75 1.68 3.75 3.75z" fill="url(#d)" fill-rule="evenodd"/>
 <path d="m32.102 94.416c0 2.07-2.8 3.75-6.25 3.75s-6.25-1.68-6.25-3.75 2.8-3.75 6.25-3.75 6.25 1.68 6.25 3.75zm57.648-4.106c0 2.07-2.8 3.75-6.25 3.75s-6.25-1.68-6.25-3.75 2.8-3.75 6.25-3.75 6.25 1.68 6.25 3.75z" fill="url(#e)" fill-rule="evenodd"/>
 <path d="m78.385 6.81c0 2.07-1.68 3.75-3.75 3.75s-3.75-1.68-3.75-3.75 1.68-3.75 3.75-3.75 3.75 1.68 3.75 3.75z" fill="url(#d)" fill-rule="evenodd"/>
</svg>
