<?xml version="1.0" encoding="UTF-8"?>
<svg width="106.67" height="106.67" xmlns="http://www.w3.org/2000/svg" xmlns:xlink="http://www.w3.org/1999/xlink">
 <defs>
  <radialGradient id="g" cx=".188" cy=".275" r=".391" xlink:href="#a"/>
  <radialGradient id="b" cx=".3" cy=".207" xlink:href="#a"/>
  <radialGradient id="d" cx=".206" cy=".195" r=".536" xlink:href="#a"/>
  <radialGradient id="f" cx=".176" cy=".107" r=".626" xlink:href="#a"/>
  <radialGradient id="e" cx=".21" cy=".114" r=".584" xlink:href="#a"/>
  <linearGradient id="a">
   <stop stop-color="#02e2ff" offset="0"/>
   <stop stop-color="#0079a8" offset="1"/>
  </linearGradient>
  <linearGradient id="c" x1="-.118" x2=".471" y1=".041" y2=".769" xlink:href="#a"/>
 </defs>
 <path d="m53.783 17.987c0 6.609-5.362 11.973-11.969 11.973s-11.969-5.364-11.969-11.973 5.362-11.972 11.97-11.972c6.606 0 11.968 5.363 11.968 11.972z" fill="url(#b)" fill-rule="evenodd"/>
 <path d="M18.546 41.31c17.415-.916 18.846-6.291 29.682-10.922 7.362-.127 21.875 1.253 25.128 1.54-.411 2.625-1.869 6.9-6.15 12.501M17.106 92.306c.508-6.853 13.213-25.207 29.711-24.954 17.007 1.016 31.362 12.85 32.378 22.241" fill="none" stroke="#00007f" stroke-width="2.5"/>
 <path d="m59.508 51.974c-2.162 10.98-5.867 19.508-15.497 17.612-8.593-1.911-9.826-11.191-7.665-22.172 2.162-10.98 5.577-19.345 15.498-17.611 9.671 1.684 9.826 11.191 7.664 22.171z" fill="url(#c)" fill-rule="evenodd"/>
 <path d="m19.281 41.362c0 2.07-1.68 3.75-3.75 3.75s-3.75-1.68-3.75-3.75 1.68-3.75 3.75-3.75 3.75 1.68 3.75 3.75z" fill="url(#d)" fill-rule="evenodd"/>
 <path d="m19.732 92.354c0 2.07-2.8 3.75-6.25 3.75s-6.25-1.68-6.25-3.75 2.8-3.75 6.25-3.75 6.25 1.68 6.25 3.75z" fill="url(#e)" fill-rule="evenodd"/>
 <path d="m68.941 45.92c0 2.07-1.68 3.75-3.75 3.75s-3.75-1.68-3.75-3.75 1.68-3.75 3.75-3.75 3.75 1.68 3.75 3.75z" fill="url(#f)" fill-rule="evenodd"/>
 <path d="M80.425 87.565c1.024 1.799-.578 4.644-3.577 6.35-2.998 1.707-6.263 1.631-7.287-.168-1.023-1.799.58-4.644 3.578-6.35 2.998-1.707 6.262-1.631 7.286.168z" fill="url(#g)" fill-rule="evenodd"/>
</svg>
