<?xml version="1.0" encoding="UTF-8"?>
<svg width="106.67" height="106.67" xmlns="http://www.w3.org/2000/svg" xmlns:xlink="http://www.w3.org/1999/xlink">
 <defs>
  <radialGradient id="b" cx=".3" cy=".207" xlink:href="#a"/>
  <radialGradient id="d" cx=".206" cy=".195" r=".536" xlink:href="#a"/>
  <radialGradient id="e" cx=".21" cy=".114" r=".584" xlink:href="#a"/>
  <linearGradient id="a">
   <stop stop-color="#02e2ff" offset="0"/>
   <stop stop-color="#0079a8" offset="1"/>
  </linearGradient>
  <linearGradient id="c" x1="-.118" x2=".471" y1=".041" y2=".769" xlink:href="#a"/>
 </defs>
 <path d="m54.301 15.878c1.557 5.805-2.029 11.742-8.004 13.253-5.974 1.511-12.087-1.973-13.644-7.777-1.556-5.804 2.03-11.741 8.005-13.253 5.974-1.511 12.087 1.973 13.643 7.777z" fill="url(#b)" fill-rule="evenodd"/>
 <path d="M14.902 27.029c9.499 3.891 26.286 6.399 30.884 4.567 7.724-.452 16.751-12.208 23.57-22.764M41.79 91.643c1.974-6.347 8.92-23.964 14.53-25.338 5.908-2.089 20.76 6.8 28.536 12.093" fill="none" stroke="#00007f" stroke-width="2.302"/>
 <path d="m62.186 46.134c2.636 9.829 2.977 18.26-5.899 20.506-8.009 1.823-12.813-5.277-15.45-15.106-2.635-9.829-3.155-18.013 5.9-20.506 8.825-2.434 12.813 5.277 15.449 15.106z" fill="url(#c)" fill-rule="evenodd"/>
 <path d="M16.544 25.308c.487 1.818-.636 3.678-2.508 4.151-1.872.474-3.787-.617-4.275-2.435-.487-1.818.636-3.678 2.508-4.152 1.872-.473 3.787.618 4.275 2.436z" fill="url(#d)" fill-rule="evenodd"/>
 <path d="m43.106 91.548c0.487 1.818-1.65 3.934-4.77 4.723-3.12 0.79-6.047-0.045-6.535-1.863-0.487-1.818 1.65-3.934 4.77-4.724 3.12-0.789 6.047 0.046 6.535 1.864zm51.781-15.981c0.488 1.818-1.649 3.934-4.769 4.723s-6.047-0.046-6.535-1.864 1.649-3.934 4.769-4.723c3.12-0.79 6.048 0.046 6.535 1.864z" fill="url(#e)" fill-rule="evenodd"/>
 <path d="M72.965 8.022c.488 1.818-.636 3.678-2.508 4.152-1.872.473-3.787-.618-4.274-2.436-.488-1.818.636-3.678 2.508-4.151 1.872-.474 3.787.617 4.274 2.435z" fill="url(#d)" fill-rule="evenodd"/>
</svg>
