<?xml version="1.0" encoding="UTF-8"?>
<svg width="106.67" height="106.67" xmlns="http://www.w3.org/2000/svg" xmlns:xlink="http://www.w3.org/1999/xlink">
 <defs>
  <radialGradient id="b" cx=".3" cy=".207" xlink:href="#a"/>
  <radialGradient id="d" cx=".206" cy=".195" r=".536" xlink:href="#a"/>
  <radialGradient id="e" cx=".21" cy=".114" r=".584" xlink:href="#a"/>
  <linearGradient id="a">
   <stop stop-color="#02e2ff" offset="0"/>
   <stop stop-color="#0079a8" offset="1"/>
  </linearGradient>
  <linearGradient id="c" x1="-.118" x2=".471" y1=".041" y2=".769" xlink:href="#a"/>
 </defs>
 <path d="m42.79 18.193c0 6.61 5.362 11.973 11.969 11.973s11.969-5.364 11.969-11.973c0-6.608-5.362-11.972-11.97-11.972-6.606 0-11.968 5.364-11.968 11.972z" fill="url(#b)" fill-rule="evenodd"/>
 <path d="M82.563 38.837c-7.725 15.164-24.619 6.49-32.775-6.8-15.753-7.057-32.49-1.283-31.76 17.134M63.18 87.77c-1.388-6.622.154-17.202-.355-21.043-4.013.694-12.14.498-22.966 4.337-7.316 9.674-16.517 18.621-26.398 18.529" fill="none" stroke="#00007f" stroke-width="2.5"/>
 <path d="m33.078 48.827c-1.8 11.046-1.298 20.33 8.39 21.908 8.72 1.202 13.11-7.066 14.91-18.112 1.799-11.045 1.513-20.075-8.39-21.908-9.652-1.79-13.11 7.067-14.91 18.112z" fill="url(#c)" fill-rule="evenodd"/>
 <path d="m79.972 36.208c0 2.07 1.68 3.75 3.75 3.75s3.75-1.68 3.75-3.75-1.68-3.75-3.75-3.75-3.75 1.68-3.75 3.75z" fill="url(#d)" fill-rule="evenodd"/>
 <path d="m61.726 87.903c0.438 2.023 3.53 3.073 6.901 2.343 3.372-0.73 5.754-2.964 5.316-4.987s-3.53-3.073-6.902-2.343-5.753 2.964-5.315 4.987zm-48.434-0.213c-1.756-1.097-4.664 0.387-6.492 3.313s-1.887 6.191-0.131 7.288 4.664-0.388 6.492-3.314 1.886-6.19 0.13-7.288z" fill="url(#e)" fill-rule="evenodd"/>
 <path d="m14.89 51.755c0 2.07 1.68 3.75 3.75 3.75s3.75-1.68 3.75-3.75-1.68-3.75-3.75-3.75-3.75 1.68-3.75 3.75z" fill="url(#d)" fill-rule="evenodd"/>
</svg>
