<?xml version="1.0" encoding="UTF-8"?>
<svg width="106.67" height="106.67" xmlns="http://www.w3.org/2000/svg" xmlns:xlink="http://www.w3.org/1999/xlink">
 <defs>
  <radialGradient id="b" cx=".3" cy=".207" xlink:href="#a"/>
  <radialGradient id="d" cx=".206" cy=".195" r=".536" xlink:href="#a"/>
  <radialGradient id="e" cx=".21" cy=".114" r=".584" xlink:href="#a"/>
  <linearGradient id="a">
   <stop stop-color="#02e2ff" offset="0"/>
   <stop stop-color="#0079a8" offset="1"/>
  </linearGradient>
  <linearGradient id="c" x1="-.118" x2=".471" y1=".041" y2=".769" xlink:href="#a"/>
 </defs>
 <path d="m62.443 15.307c0 6.609-5.363 11.972-11.97 11.972-6.606 0-11.968-5.363-11.968-11.972s5.362-11.972 11.969-11.972c6.606 0 11.969 5.363 11.969 11.972z" fill="url(#b)" fill-rule="evenodd"/>
 <path d="M27 22.55c-1.808 4.901-3.432 16.03-1.79 18.145 3.967-.903 21.208-11.084 24.05-10.926 7.36-.127 24.142 1.254 28.013 2.57-.458 3.586-4.549 9.376-8.212 13.12M40.197 90.038c.92-6.234 4.76-20.053 10.538-22.686 9.172 5.345 14.25 17.179 20.419 25.746" fill="none" stroke="#00007f" stroke-width="2.5"/>
 <path d="M62.205 49.694c0 11.191-1.988 20.274-11.803 20.274-8.8-.216-11.803-9.083-11.803-20.274 0-11.19 1.734-20.058 11.803-20.273 9.815-.216 11.803 9.082 11.803 20.273z" fill="url(#c)" fill-rule="evenodd"/>
 <path d="m31.033 19.92c0 2.07-1.68 3.75-3.75 3.75s-3.75-1.68-3.75-3.75 1.68-3.75 3.75-3.75 3.75 1.68 3.75 3.75z" fill="url(#d)" fill-rule="evenodd"/>
 <path d="m41.586 90.498c0 2.07-2.8 3.75-6.25 3.75s-6.25-1.68-6.25-3.75 2.8-3.75 6.25-3.75 6.25 1.68 6.25 3.75zm38.474 0.43c0 2.07-2.8 3.75-6.25 3.75s-6.25-1.68-6.25-3.75 2.8-3.75 6.25-3.75 6.25 1.68 6.25 3.75z" fill="url(#e)" fill-rule="evenodd"/>
 <path d="m71.375 47.014c0 2.07-1.68 3.75-3.75 3.75s-3.75-1.68-3.75-3.75 1.68-3.75 3.75-3.75 3.75 1.68 3.75 3.75z" fill="url(#d)" fill-rule="evenodd"/>
</svg>
