<?xml version="1.0" encoding="UTF-8"?>
<svg width="106.67" height="106.67" xmlns="http://www.w3.org/2000/svg" xmlns:xlink="http://www.w3.org/1999/xlink">
 <defs>
  <radialGradient id="c" cx=".3" cy=".207" xlink:href="#a"/>
  <radialGradient id="e" cx=".206" cy=".195" r=".536" xlink:href="#a"/>
  <radialGradient id="b" cx=".21" cy=".114" r=".584" xlink:href="#a"/>
  <linearGradient id="a">
   <stop stop-color="#02e2ff" offset="0"/>
   <stop stop-color="#0079a8" offset="1"/>
  </linearGradient>
  <linearGradient id="d" x1="-.118" x2=".471" y1=".041" y2=".769" xlink:href="#a"/>
 </defs>
 <path d="m41.792 93.591c0 2.07-2.8 3.75-6.25 3.75s-6.25-1.68-6.25-3.75 2.8-3.75 6.25-3.75 6.25 1.68 6.25 3.75zm47.958-3.281c0 2.07-2.8 3.75-6.25 3.75s-6.25-1.68-6.25-3.75 2.8-3.75 6.25-3.75 6.25 1.68 6.25 3.75z" fill="url(#b)" fill-rule="evenodd"/>
 <path d="m58.113 16.956c0 6.61-5.362 11.973-11.97 11.973-6.606 0-11.968-5.364-11.968-11.973 0-6.608 5.362-11.972 11.969-11.972s11.969 5.364 11.969 11.972z" fill="url(#c)" fill-rule="evenodd"/>
 <path d="M28.855 45.228C28.078 44.77 18.1 33.3 16.55 28.841c2.781.282 21.002 4.068 28.997 3.815 25.443 2.426 34.139.366 37.739-15.03M30.713 94.162c.508-6.853 5.585-23.352 22.083-23.098C69.803 72.079 78.18 80.2 79.195 89.593" fill="none" stroke="#00007f" stroke-width="2.5"/>
 <path d="m59.99 48.04c2.742 10.85 3.04 20.142-6.476 22.547-8.584 1.947-13.668-5.914-16.41-16.763-2.743-10.85-3.234-19.872 6.475-22.548 9.463-2.614 13.668 5.913 16.41 16.763z" fill="url(#d)" fill-rule="evenodd"/>
 <path d="m33.713 46.516c0 2.07-1.68 3.75-3.75 3.75s-3.75-1.68-3.75-3.75 1.68-3.75 3.75-3.75 3.75 1.68 3.75 3.75zm54.362-30.635c0 2.07-1.68 3.75-3.75 3.75s-3.75-1.68-3.75-3.75 1.68-3.75 3.75-3.75 3.75 1.68 3.75 3.75z" fill="url(#e)" fill-rule="evenodd"/>
</svg>
