<?xml version="1.0" encoding="UTF-8"?>
<svg width="106.67" height="106.67" xmlns="http://www.w3.org/2000/svg" xmlns:xlink="http://www.w3.org/1999/xlink">
 <defs>
  <radialGradient id="g" cx=".188" cy=".275" r=".391" xlink:href="#a"/>
  <radialGradient id="b" cx=".3" cy=".207" xlink:href="#a"/>
  <radialGradient id="d" cx=".206" cy=".195" r=".536" xlink:href="#a"/>
  <radialGradient id="f" cx=".176" cy=".107" r=".626" xlink:href="#a"/>
  <radialGradient id="e" cx=".21" cy=".114" r=".584" xlink:href="#a"/>
  <linearGradient id="a">
   <stop stop-color="#02e2ff" offset="0"/>
   <stop stop-color="#0079a8" offset="1"/>
  </linearGradient>
  <linearGradient id="c" x1="-.118" x2=".471" y1=".041" y2=".769" xlink:href="#a"/>
 </defs>
 <path d="M60.38 15.925c0 6.61-5.361 11.973-11.968 11.973s-11.97-5.364-11.97-11.973c0-6.608 5.363-11.972 11.97-11.972S60.38 9.317 60.38 15.925z" fill="url(#b)" fill-rule="evenodd"/>
 <path d="M23.082 65.64c-.729-21.123 6.269-38.662 22.672-34.221 18.434-8.295 29.81 11.087 27.43 30.329M48.032 90.245c-2.633-3.22-11.335-6.966-17.944-11.844 4.375-3.352 13.222-7.67 19.822-10.018 8.503-.523 17.375-.455 23.01-2.226-1.993 6.682-2.48 18.534-4.859 23.642" fill="none" stroke="#00007f" stroke-width="2.5"/>
 <path d="M60.032 48.693c1.535 11.086.812 20.355-8.91 21.702-8.746.994-12.938-7.377-14.473-18.463-1.536-11.085-1.035-20.106 8.91-21.701 9.692-1.56 12.937 7.377 14.473 18.462z" fill="url(#c)" fill-rule="evenodd"/>
 <path d="m26.29 63.01c0 2.07-1.68 3.75-3.75 3.75s-3.75-1.68-3.75-3.75 1.68-3.75 3.75-3.75c2.071 0 3.75 1.68 3.75 3.75z" fill="url(#d)" fill-rule="evenodd"/>
 <path d="M49.488 90.05c1.104 1.751-.368 4.666-3.286 6.507-2.918 1.84-6.182 1.913-7.287.162-1.104-1.75.368-4.665 3.286-6.506 2.918-1.84 6.182-1.913 7.287-.163z" fill="url(#e)" fill-rule="evenodd"/>
 <path d="m76.364 62.62c0 2.07-1.68 3.75-3.75 3.75s-3.75-1.68-3.75-3.75 1.68-3.75 3.75-3.75 3.75 1.68 3.75 3.75z" fill="url(#f)" fill-rule="evenodd"/>
 <path d="M79.546 87.201c.256 2.054-2.314 4.068-5.737 4.496-3.424.427-6.41-.893-6.667-2.947-.256-2.054 2.314-4.068 5.737-4.495 3.424-.428 6.41.892 6.667 2.946z" fill="url(#g)" fill-rule="evenodd"/>
</svg>
