<?xml version="1.0" encoding="UTF-8"?>
<svg width="106.67" height="106.67" xmlns="http://www.w3.org/2000/svg" xmlns:xlink="http://www.w3.org/1999/xlink">
 <defs>
  <radialGradient id="b" cx=".3" cy=".207" xlink:href="#a"/>
  <radialGradient id="e" cx=".206" cy=".195" r=".536" xlink:href="#a"/>
  <radialGradient id="d" cx=".21" cy=".114" r=".584" xlink:href="#a"/>
  <linearGradient id="a">
   <stop stop-color="#02e2ff" offset="0"/>
   <stop stop-color="#0079a8" offset="1"/>
  </linearGradient>
  <linearGradient id="c" x1="-.118" x2=".471" y1=".041" y2=".769" xlink:href="#a"/>
 </defs>
 <path d="m64.71 16.75c0 6.609-5.362 11.973-11.969 11.973-6.606 0-11.969-5.364-11.969-11.973s5.363-11.972 11.97-11.972c6.606 0 11.968 5.363 11.968 11.972z" fill="url(#b)" fill-rule="evenodd"/>
 <path d="M20.608 23.992c2.728 7.583 7.44 15.133 11.51 19.384 5.512 1.364 11.414-11.91 19.41-12.164 14.721-.253 24.86 8.82 25.368 21.258M39.991 94.78c4.219-6.853 6.409-21.084 12.6-25.984 4.635 4.932 10.95 18.828 11.76 24.92" fill="none" stroke="#00007f" stroke-width="2.5"/>
 <path d="m64.473 51.138c0 11.19-1.988 20.273-11.804 20.273-8.8-0.215-11.803-9.082-11.803-20.273s1.735-20.058 11.803-20.274c9.816-0.216 11.804 9.083 11.804 20.274z" fill="url(#c)" fill-rule="evenodd"/>
 <path d="m41.999 95.034c0 2.07-2.8 3.75-6.25 3.75s-6.25-1.68-6.25-3.75 2.8-3.75 6.25-3.75 6.25 1.68 6.25 3.75zm32.082-1.013c0 2.07-2.8 3.75-6.25 3.75s-6.25-1.68-6.25-3.75 2.8-3.75 6.25-3.75 6.25 1.68 6.25 3.75z" fill="url(#d)" fill-rule="evenodd"/>
 <path d="m81.271 54.23c0 2.07-1.68 3.75-3.75 3.75s-3.75-1.68-3.75-3.75 1.68-3.75 3.75-3.75 3.75 1.68 3.75 3.75zm-57.935-31.957c0 2.07-1.68 3.75-3.75 3.75s-3.75-1.68-3.75-3.75 1.68-3.75 3.75-3.75 3.75 1.68 3.75 3.75z" fill="url(#e)" fill-rule="evenodd"/>
</svg>
