<?xml version="1.0" encoding="UTF-8"?>
<svg width="106.67" height="106.67" xmlns="http://www.w3.org/2000/svg" xmlns:xlink="http://www.w3.org/1999/xlink">
 <defs>
  <radialGradient id="b" cx=".3" cy=".207" xlink:href="#a"/>
  <radialGradient id="d" cx=".206" cy=".195" r=".536" xlink:href="#a"/>
  <radialGradient id="e" cx=".21" cy=".114" r=".584" xlink:href="#a"/>
  <linearGradient id="a">
   <stop stop-color="#02e2ff" offset="0"/>
   <stop stop-color="#0079a8" offset="1"/>
  </linearGradient>
  <linearGradient id="c" x1="-.118" x2=".471" y1=".041" y2=".769" xlink:href="#a"/>
 </defs>
 <path d="m71.308 19.843c0 6.609-5.362 11.972-11.969 11.972s-11.969-5.363-11.969-11.972 5.362-11.973 11.969-11.973 11.969 5.364 11.969 11.973z" fill="url(#b)" fill-rule="evenodd"/>
 <path d="M13.186 26.054c10.356-9.324 29.521-4.072 36.898 5.983M38.983 64.054c17.006 1.015 25.795 10.993 26.81 20.385" fill="none" stroke="#00007f" stroke-width="2.5"/>
 <path d="m53.505 50.237c-2.275 10.958-6.067 19.447-15.677 17.453-8.572-2-9.71-11.291-7.437-22.249 2.275-10.957 5.775-19.287 15.677-17.452 9.654 1.784 9.711 11.292 7.437 22.25z" fill="url(#c)" fill-rule="evenodd"/>
 <path d="m16.395 27.342c0 2.07-1.68 3.75-3.75 3.75s-3.75-1.68-3.75-3.75 1.68-3.75 3.75-3.75 3.75 1.68 3.75 3.75z" fill="url(#d)" fill-rule="evenodd"/>
 <path d="m76.349 85.156c0 2.07-2.8 3.75-6.25 3.75s-6.25-1.68-6.25-3.75 2.8-3.75 6.25-3.75 6.25 1.68 6.25 3.75z" fill="url(#e)" fill-rule="evenodd"/>
 <path d="m34.633 64.964c15.976 6.17 19.61 20.89 11.966 28.22" fill="none" stroke="#00007f" stroke-width="2.5"/>
 <path d="M57.238 97.163c-.91 1.86-4.164 2.138-7.263.621-3.098-1.517-4.875-4.257-3.965-6.116.91-1.86 4.164-2.137 7.262-.62 3.1 1.516 4.876 4.256 3.966 6.115z" fill="url(#e)" fill-rule="evenodd"/>
 <path d="m11.24 40.09c6.44-7.88 22.924-14.174 35.867-7.624" fill="none" stroke="#00007f" stroke-width="2.5"/>
 <path d="m12.615 41.24c0 2.07-1.68 3.75-3.75 3.75s-3.75-1.68-3.75-3.75 1.68-3.75 3.75-3.75 3.75 1.68 3.75 3.75z" fill="url(#d)" fill-rule="evenodd"/>
</svg>
