<?xml version="1.0" encoding="UTF-8"?>
<svg width="106.67" height="106.67" xmlns="http://www.w3.org/2000/svg" xmlns:xlink="http://www.w3.org/1999/xlink">
 <defs>
  <radialGradient id="b" cx=".3" cy=".207" xlink:href="#a"/>
  <radialGradient id="d" cx=".206" cy=".195" r=".536" xlink:href="#a"/>
  <radialGradient id="e" cx=".21" cy=".114" r=".584" xlink:href="#a"/>
  <linearGradient id="a">
   <stop stop-color="#02e2ff" offset="0"/>
   <stop stop-color="#0079a8" offset="1"/>
  </linearGradient>
  <linearGradient id="c" x1="-.118" x2=".471" y1=".041" y2=".769" xlink:href="#a"/>
 </defs>
 <path d="m70.522 17.95c-2.44 6.142-9.404 9.146-15.544 6.706s-9.142-9.404-6.702-15.546 9.405-9.146 15.545-6.706 9.142 9.404 6.701 15.546z" fill="url(#b)" fill-rule="evenodd"/>
 <path d="M28.437 31.159c8.324-6.503 18.31-7.39 33.359-1.957 9.239 12.623 16.536 16.47 30.146 12.753M15.907 78.366c1.502-3.09 2.481-16.248 4.784-21.037 4.364-.253 16.65 4.562 24.269 7.726.172 13.616 3.926 15.392 14.39 22.227" fill="none" stroke="#00007f" stroke-width="2.5"/>
 <path d="m63.169 50.85c-4.133 10.4-9.334 18.106-18.456 14.482-8.098-3.45-7.614-12.8-3.482-23.2 4.133-10.4 9.02-18 18.456-14.482 9.2 3.425 7.615 12.8 3.482 23.2z" fill="url(#c)" fill-rule="evenodd"/>
 <path d="M30.734 34.11a3.751 3.751 0 01-4.87 2.1 3.751 3.751 0 01-2.1-4.869 3.751 3.751 0 014.87-2.1 3.751 3.751 0 012.1 4.87z" fill="url(#d)" fill-rule="evenodd"/>
 <path d="M17.211 79.918c-1.099 1.755-4.363 1.692-7.287-.14C7 77.947 5.519 75.037 6.618 73.283c1.1-1.755 4.364-1.692 7.288.14 2.923 1.831 4.404 4.741 3.305 6.495zM53.363 96.063c-1.75-1.104-1.68-4.368.16-7.287 1.839-2.92 4.753-4.393 6.504-3.289 1.752 1.104 1.68 4.368-.159 7.287-1.84 2.919-4.753 4.392-6.505 3.289z" fill="url(#e)" fill-rule="evenodd"/>
 <path d="M97.048 42.065a3.751 3.751 0 01-4.87 2.1 3.751 3.751 0 01-2.1-4.87 3.751 3.751 0 014.87-2.1 3.751 3.751 0 012.1 4.87z" fill="url(#d)" fill-rule="evenodd"/>
</svg>
