<?xml version="1.0" encoding="UTF-8"?>
<svg width="106.67" height="106.67" xmlns="http://www.w3.org/2000/svg" xmlns:xlink="http://www.w3.org/1999/xlink">
 <defs>
  <radialGradient id="b" cx=".3" cy=".207" xlink:href="#a"/>
  <radialGradient id="d" cx=".206" cy=".195" r=".536" xlink:href="#a"/>
  <radialGradient id="e" cx=".21" cy=".114" r=".584" xlink:href="#a"/>
  <linearGradient id="a">
   <stop stop-color="#02e2ff" offset="0"/>
   <stop stop-color="#0079a8" offset="1"/>
  </linearGradient>
  <linearGradient id="c" x1="-.118" x2=".471" y1=".041" y2=".769" xlink:href="#a"/>
 </defs>
 <path d="m70.522 17.95c-2.44 6.142-9.404 9.146-15.544 6.706s-9.142-9.404-6.702-15.546 9.405-9.146 15.545-6.706 9.142 9.404 6.701 15.546z" fill="url(#b)" fill-rule="evenodd"/>
 <path d="M28.437 31.159c2.963-12.688 18.31-7.39 33.359-1.957 9.239 12.623 7.052 23.687 24.373 20.794M62.86 88.87c1.867-2.885 2.72-13.627 5.625-18.076-2.043-3.865-18.296-5.904-25.773-8.31-4.934 8.963-12.726 17.186-22.96 19.813" fill="none" stroke="#00007f" stroke-width="2.5"/>
 <path d="m63.169 50.85c-4.133 10.4-9.334 18.106-18.456 14.482-8.098-3.45-7.614-12.8-3.482-23.2 4.133-10.4 9.02-18 18.456-14.482 9.2 3.425 7.615 12.8 3.482 23.2z" fill="url(#c)" fill-rule="evenodd"/>
 <path d="M30.734 34.11a3.751 3.751 0 01-4.87 2.1 3.751 3.751 0 01-2.1-4.869 3.751 3.751 0 014.87-2.1 3.751 3.751 0 012.1 4.87z" fill="url(#d)" fill-rule="evenodd"/>
 <path d="M22.265 92.864c-1.972.629-4.423-1.53-5.47-4.816-1.048-3.287-.297-6.465 1.675-7.094 1.973-.628 4.423 1.53 5.47 4.817 1.048 3.287.298 6.465-1.675 7.093zM61.138 88.95c.878-1.876 4.126-2.21 7.25-.747 3.125 1.463 4.948 4.172 4.07 6.047-.878 1.875-4.126 2.209-7.25.746-3.125-1.463-4.948-4.172-4.07-6.047z" fill="url(#e)" fill-rule="evenodd"/>
 <path d="M91.48 50.93a3.751 3.751 0 01-4.869 2.1 3.751 3.751 0 01-2.1-4.87 3.751 3.751 0 014.87-2.1 3.751 3.751 0 012.1 4.87z" fill="url(#d)" fill-rule="evenodd"/>
</svg>
