<?xml version="1.0" encoding="UTF-8"?>
<svg width="106.67" height="106.67" xmlns="http://www.w3.org/2000/svg" xmlns:xlink="http://www.w3.org/1999/xlink">
 <defs>
  <radialGradient id="b" cx=".3" cy=".207" xlink:href="#a"/>
  <radialGradient id="d" cx=".206" cy=".195" r=".536" xlink:href="#a"/>
  <radialGradient id="e" cx=".21" cy=".114" r=".584" xlink:href="#a"/>
  <linearGradient id="a">
   <stop stop-color="#02e2ff" offset="0"/>
   <stop stop-color="#0079a8" offset="1"/>
  </linearGradient>
  <linearGradient id="c" x1="-.118" x2=".471" y1=".041" y2=".769" xlink:href="#a"/>
 </defs>
 <path d="m49.866 18.193c0 6.61-5.362 11.973-11.969 11.973s-11.969-5.364-11.969-11.973c0-6.608 5.362-11.972 11.969-11.972s11.969 5.364 11.969 11.972z" fill="url(#b)" fill-rule="evenodd"/>
 <path d="M9.68 25.023c1.334 15.99 19.052 13.913 33.188 7.014 15.753-7.057 32.49-1.283 31.76 17.134M30.713 94.162c-7.945-16.544.43-30.775 22.083-23.098 7.317 9.674 16.518 18.621 26.399 18.529" fill="none" stroke="#00007f" stroke-width="2.5"/>
 <path d="m61.845 49.24c1.8 11.045 1.298 20.329-8.389 21.907-8.72 1.203-13.11-7.066-14.91-18.111-1.8-11.046-1.514-20.076 8.39-21.908 9.652-1.791 13.11 7.066 14.91 18.112z" fill="url(#c)" fill-rule="evenodd"/>
 <path d="m12.89 23.425c0 2.07-1.68 3.75-3.75 3.75s-3.75-1.68-3.75-3.75 1.68-3.75 3.75-3.75 3.75 1.68 3.75 3.75z" fill="url(#d)" fill-rule="evenodd"/>
 <path d="m31.924 95.542c-0.714 1.943-3.922 2.553-7.16 1.363-3.238-1.191-5.286-3.734-4.572-5.677 0.715-1.943 3.922-2.553 7.16-1.363 3.239 1.19 5.287 3.734 4.572 5.677zm47.44-7.852c1.756-1.097 4.664 0.387 6.492 3.313s1.886 6.191 0.13 7.288c-1.755 1.097-4.663-0.388-6.491-3.314s-1.887-6.19-0.13-7.288z" fill="url(#e)" fill-rule="evenodd"/>
 <path d="m77.766 51.755c0 2.07-1.68 3.75-3.75 3.75s-3.75-1.68-3.75-3.75 1.68-3.75 3.75-3.75 3.75 1.68 3.75 3.75z" fill="url(#d)" fill-rule="evenodd"/>
</svg>
