<?xml version="1.0" encoding="UTF-8"?>
<svg width="106.67" height="106.67" xmlns="http://www.w3.org/2000/svg" xmlns:xlink="http://www.w3.org/1999/xlink">
 <defs>
  <radialGradient id="b" cx=".3" cy=".207" xlink:href="#a"/>
  <radialGradient id="d" cx=".206" cy=".195" r=".536" xlink:href="#a"/>
  <radialGradient id="e" cx=".21" cy=".114" r=".584" xlink:href="#a"/>
  <linearGradient id="a">
   <stop stop-color="#02e2ff" offset="0"/>
   <stop stop-color="#0079a8" offset="1"/>
  </linearGradient>
  <linearGradient id="c" x1="-.118" x2=".471" y1=".041" y2=".769" xlink:href="#a"/>
 </defs>
 <path d="M88.333 58.587c-6.438 1.495-12.875-2.516-14.369-8.952C72.47 43.2 76.483 36.764 82.92 35.27c6.438-1.494 12.875 2.517 14.369 8.953 1.494 6.435-2.519 12.871-8.956 14.365z" fill="url(#b)" fill-rule="evenodd"/>
 <path d="M45.886 47.127c1.75-1.693 12.493-10.948 14.696-12.772 3.025 5.619 13.922 21.212 13.981 21.258.033.035 5.774 15.061 7.814 21.284 1.628-1.951 11.432-16.001 11.28-15.6M9.135 61.2c2.036-3.12 7.623-11.414 11.37-15.045 4.163 3.366 16.38 17.81 19.93 19.529-7.463 5.455-27.037 12.972-33.28 17.58" fill="none" stroke="#00007f" stroke-width="2.5"/>
 <path d="m58.08 72.728c-10.9 2.53-20.197 2.647-22.417-6.913-1.78-8.621 6.18-13.551 17.08-16.082 10.902-2.53 19.931-2.845 22.418 6.914 2.429 9.512-6.179 13.55-17.08 16.081z" fill="url(#c)" fill-rule="evenodd"/>
 <path d="M40.038 43.566c2.824-.214 5.762 1.337 6.558 3.462.796 2.124-.85 4.022-3.673 4.235-2.824.214-5.762-1.337-6.558-3.461-.797-2.125.849-4.022 3.673-4.236z" fill="url(#d)" fill-rule="evenodd"/>
 <path d="m10.614 62.569c-1.526 1.398-4.656 0.469-6.987-2.075-2.33-2.544-2.983-5.743-1.457-7.141 1.526-1.399 4.656-0.47 6.987 2.074 2.33 2.544 2.983 5.744 1.457 7.142zm-0.941 31.186c-2.017 0.468-4.286-1.88-5.066-5.24s0.223-6.468 2.24-6.936c2.016-0.468 4.285 1.88 5.065 5.24s-0.223 6.468-2.24 6.936z" fill="url(#e)" fill-rule="evenodd"/>
 <path d="M100.556 60.73c-2 2.005-5.24 2.747-7.229 1.657-1.99-1.09-1.98-3.602.02-5.606 2-2.005 5.239-2.747 7.228-1.657 1.99 1.09 1.981 3.602-.02 5.607z" fill="url(#d)" fill-rule="evenodd"/>
</svg>
