<?xml version="1.0" encoding="UTF-8"?>
<svg width="106.67" height="106.67" xmlns="http://www.w3.org/2000/svg" xmlns:xlink="http://www.w3.org/1999/xlink">
 <defs>
  <radialGradient id="b" cx=".3" cy=".207" xlink:href="#a"/>
  <radialGradient id="d" cx=".206" cy=".195" r=".536" xlink:href="#a"/>
  <radialGradient id="e" cx=".21" cy=".114" r=".584" xlink:href="#a"/>
  <linearGradient id="a">
   <stop stop-color="#02e2ff" offset="0"/>
   <stop stop-color="#0079a8" offset="1"/>
  </linearGradient>
  <linearGradient id="c" x1="-.118" x2=".471" y1=".041" y2=".769" xlink:href="#a"/>
 </defs>
 <path d="m64.71 16.75c0 6.609-5.362 11.973-11.969 11.973-6.606 0-11.969-5.364-11.969-11.973s5.363-11.972 11.97-11.972c6.606 0 11.968 5.363 11.968 11.972z" fill="url(#b)" fill-rule="evenodd"/>
 <path d="M21.226 26.054c.873 2.428 3.162 8.226 6.433 13.971 6.157-1.676 23.81-8.765 23.868-8.813M39.785 93.75c1.95-4.998 8.883-20.879 13.836-27.016 8.141 6.376 13.631 17.797 16.708 24.92M50.492 31.339c3.14.366 20.893 8.02 20.246 11.497" fill="none" stroke="#00007f" stroke-width="2.5"/>
 <path d="m64.473 51.138c0 11.19-1.988 20.273-11.804 20.273-8.8-0.215-11.803-9.082-11.803-20.273s1.735-20.058 11.803-20.274c9.816-0.216 11.804 9.083 11.804 20.274z" fill="url(#c)" fill-rule="evenodd"/>
 <path d="M21.327 19.876c2.162 1.83 3.168 4.996 2.245 7.068-.923 2.073-3.427 2.27-5.59.442-2.162-1.83-3.167-4.995-2.245-7.068.923-2.073 3.427-2.27 5.59-.442z" fill="url(#d)" fill-rule="evenodd"/>
 <path d="m41.38 94.003c0 2.07-2.8 3.75-6.25 3.75s-6.25-1.68-6.25-3.75 2.8-3.75 6.25-3.75 6.25 1.68 6.25 3.75zm39.505-1.425c0 2.07-2.8 3.75-6.25 3.75s-6.25-1.68-6.25-3.75 2.8-3.75 6.25-3.75 6.25 1.68 6.25 3.75z" fill="url(#e)" fill-rule="evenodd"/>
 <path d="M34.95 49.1c3.14.366 31.407-5.589 36.946-6.234" fill="none" stroke="#00007f" stroke-width="2.5"/>
 <path d="M29.695 45.437c2.706-.836 5.915.024 7.164 1.918 1.248 1.895.065 4.11-2.64 4.946-2.707.836-5.916-.024-7.164-1.918-1.248-1.895-.065-4.11 2.64-4.946z" fill="url(#d)" fill-rule="evenodd"/>
</svg>
