<?xml version="1.0" encoding="UTF-8"?>
<svg width="48" height="48" xmlns="http://www.w3.org/2000/svg" xmlns:xlink="http://www.w3.org/1999/xlink">
 <defs>
  <linearGradient id="r" x1="51.969" x2="48.588" y1="26.757" y2="26.757" gradientTransform="translate(-18.846 8.656)" gradientUnits="userSpaceOnUse" xlink:href="#a"/>
  <linearGradient id="s" x1="58.619" x2="49" y1="22.43" y2="26" gradientTransform="translate(-23.72 -8.344)" gradientUnits="userSpaceOnUse" xlink:href="#a"/>
  <linearGradient id="g" x1="54.322" x2="54" y1="32.858" y2="29" gradientTransform="rotate(-2.074 359.04 460.77) scale(.92037)" gradientUnits="userSpaceOnUse" xlink:href="#a"/>
  <linearGradient id="k" x1="62" x2="49" y1="35" y2="26" gradientTransform="translate(-23.72 -8.344)" gradientUnits="userSpaceOnUse" xlink:href="#a"/>
  <linearGradient id="l" x1="50.344" x2="56.969" y1="25.453" y2="32.878" gradientTransform="translate(-23.72 -8.344)" gradientUnits="userSpaceOnUse" xlink:href="#b"/>
  <linearGradient id="m" x1="37.292" x2="63.594" y1="17.441" y2="41" gradientTransform="translate(-23.72 -8.344)" gradientUnits="userSpaceOnUse" xlink:href="#b"/>
  <linearGradient id="a">
   <stop stop-color="#f9f9f9" stop-opacity=".985" offset="0"/>
   <stop stop-color="#d5d5d5" offset="1"/>
  </linearGradient>
  <linearGradient id="b">
   <stop stop-color="#ffea00" offset="0"/>
   <stop stop-color="#ffffa4" offset="1"/>
  </linearGradient>
  <linearGradient id="c">
   <stop stop-color="#a20000" offset="0"/>
   <stop stop-color="#d40000" offset="1"/>
  </linearGradient>
  <linearGradient id="f" x1="3" x2="31.527" y1="30" y2="37.158" gradientUnits="userSpaceOnUse" xlink:href="#c"/>
  <linearGradient id="x" x1="27.032" x2="38.232" y1="32.084" y2="35.919" gradientUnits="userSpaceOnUse" xlink:href="#c"/>
  <linearGradient id="e" x1="24.167" x2="26.779" y1="29.642" y2="31.937" gradientUnits="userSpaceOnUse" xlink:href="#c"/>
  <filter id="n" x="-.131" y="-.039" width="1.263" height="1.077">
   <feGaussianBlur stdDeviation=".274"/>
  </filter>
  <filter id="z" x="-.166" y="-.176" width="1.332" height="1.352">
   <feGaussianBlur stdDeviation=".223"/>
  </filter>
  <filter id="y" x="-.142" y="-.163" width="1.283" height="1.326">
   <feGaussianBlur stdDeviation=".223"/>
  </filter>
  <filter id="w" x="-.109" y="-.144" width="1.217" height="1.288">
   <feGaussianBlur stdDeviation=".225"/>
  </filter>
  <filter id="o" x="-.087" y="-.146" width="1.174" height="1.292">
   <feGaussianBlur stdDeviation=".196"/>
  </filter>
  <filter id="d" x="-.059" y="-.373" width="1.118" height="1.746">
   <feGaussianBlur stdDeviation=".763"/>
  </filter>
  <radialGradient id="q" cx="49.838" cy="29.105" r="9" gradientTransform="matrix(1.6843 .05971 -.01804 .50876 -33.579 12.795)" gradientUnits="userSpaceOnUse" xlink:href="#a"/>
 </defs>
 <path d="M31.906 36.031c-4.279 0-7.75 1.026-7.75 2.282 0 1.255 3.471 2.28 7.75 2.28s7.75-1.025 7.75-2.28c0-1.256-3.471-2.282-7.75-2.282zm-15.812.344c-4.186 0-7.594 1.026-7.594 2.281 0 1.256 3.408 2.282 7.594 2.282 4.185 0 7.562-1.026 7.562-2.282 0-1.255-3.377-2.281-7.562-2.281z" fill-opacity=".769" fill-rule="evenodd" filter="url(#d)"/>
 <path d="M25.01 29.642c.223 1.53-.325 3.06-.505 4.59 0 0-1.39-.337-1.22-.632.168-.295.63-3.747.63-3.747l1.096-.21z" fill="url(#e)" overflow="visible"/>
 <path d="M4 26c3.363 2.172 5.314 3.201 9.762 3.762 2.575.324 15.296-2.559 9.86 1.406L23 34c4.027-1.399-6.863-.09-10.209-.5C9.428 33.088 6.144 32.343 3 31c0 0 2.583-.595 3.238-1.06-1-1-2.308-3.972-2.238-3.94z" fill="url(#f)" overflow="visible"/>
 <path transform="rotate(10.68 38.432 -59.53)" d="M42.55 39.702c.036 1.016-3.64 1.973-8.212 2.139-4.572.165-8.308-.524-8.344-1.54-.005-.114.153-.62.239-.732.675-.882 3.913-1.26 7.972-1.407 3.754-.136 6.67-.107 7.712.618.227.157.626.74.632.922z" fill="url(#g)" fill-rule="evenodd"/>
 <path transform="scale(.8808) rotate(6.544 -58.314 -277.46)" d="M63 31c0 1.105-4.03 2-9 2s-9-.895-9-2 4.03-2 9-2 9 .895 9 2z" fill="url(#q)" fill-rule="evenodd"/>
 <path transform="rotate(10.68 38.432 -59.53)" d="M31.8 31.223l.956 8.232c.206.544 1.37.595 1.654-.036l.037-8.123-2.647-.073z" fill="url(#r)" overflow="visible"/>
 <path transform="rotate(10.68 38.432 -59.53)" d="M26.404 13.656a36.092 36.092 0 00-.125 3c0 8.837 3.134 16 7 16s7-7.163 7-16a36.09 36.09 0 00-.125-3c-6.058-2.393-10.222-1.08-13.75 0z" fill="url(#s)" fill-rule="evenodd"/>
 <path transform="rotate(10.68 38.432 -59.53)" d="M26.404 13.656a36.092 36.092 0 00-.125 3c0 8.837 3.134 16 7 16s7-7.163 7-16a36.09 36.09 0 00-.125-3c-4.778 1.562-9.363 1.575-13.75 0z" fill="url(#k)" fill-rule="evenodd"/>
 <path transform="rotate(10.68 38.432 -59.53)" d="M26.825 21.555c.912 6.415 3.344 11.101 6.454 11.101 3.049 0 4.564-6.125 5.524-12.342-4.282-1.335-9.68.743-11.978 1.241z" fill="url(#l)" fill-rule="evenodd"/>
 <path transform="rotate(10.68 38.432 -59.53)" d="M26.825 21.555c.912 6.415 3.344 11.101 6.454 11.101 3.049 0 5.838-5.278 6.692-11.544-2.99 2.152-8.825 3.385-13.146.443z" fill="url(#m)" fill-rule="evenodd"/>
 <path transform="rotate(10.68 38.432 -59.53)" d="M26.623 14.594c.976 7.739 2.46 13.951 5 17 0 0-5-3-5-17z" fill="#fff" filter="url(#n)" overflow="visible"/>
 <path transform="scale(.8808) rotate(6.544 7.898 -99.653)" d="M30.804 37.788c-3.843.736-5.747 1.727-2.181 3.438-.94.024-7.62-2.87 2.18-3.438z" fill="#fff" filter="url(#o)" overflow="visible"/>
 <path transform="rotate(-4.991 -3.971 61.852)" d="M42.55 39.702c.036 1.016-3.64 1.973-8.212 2.139-4.572.165-8.308-.524-8.344-1.54-.005-.114.153-.62.239-.732.675-.882 3.913-1.26 7.972-1.407 3.754-.136 6.67-.107 7.712.618.227.157.626.74.632.922z" fill="url(#g)" fill-rule="evenodd"/>
 <path transform="scale(.8808) rotate(-9.126 107.57 146.04)" d="M63 31c0 1.105-4.03 2-9 2s-9-.895-9-2 4.03-2 9-2 9 .895 9 2z" fill="url(#q)" fill-rule="evenodd"/>
 <path transform="rotate(-4.991 -3.971 61.852)" d="M31.8 31.223l.956 8.232c.206.544 1.37.595 1.654-.036l.037-8.123-2.647-.073z" fill="url(#r)" overflow="visible"/>
 <path transform="rotate(-4.991 -3.971 61.852)" d="M26.404 13.656a36.092 36.092 0 00-.125 3c0 8.837 3.134 16 7 16s7-7.163 7-16a36.09 36.09 0 00-.125-3c-6.058-2.393-10.222-1.08-13.75 0z" fill="url(#s)" fill-rule="evenodd"/>
 <path transform="rotate(-4.991 -3.971 61.852)" d="M26.404 13.656a36.092 36.092 0 00-.125 3c0 8.837 3.134 16 7 16s7-7.163 7-16a36.09 36.09 0 00-.125-3c-4.778 1.562-9.363 1.575-13.75 0z" fill="url(#k)" fill-rule="evenodd"/>
 <path transform="rotate(-4.991 -3.971 61.852)" d="M26.623 21.594c.912 6.414 3.546 11.062 6.656 11.062 3.049 0 5.337-3.8 6.298-10.016-6.285-2.419-11.405-1.95-12.954-1.046z" fill="url(#l)" fill-rule="evenodd"/>
 <path transform="rotate(-4.991 -3.971 61.852)" d="M26.623 21.594c.912 6.414 3.546 11.062 6.656 11.062 3.049 0 5.337-3.8 6.298-10.016-2.99 2.152-8.634 1.895-12.954-1.046z" fill="url(#m)" fill-rule="evenodd"/>
 <path transform="rotate(-4.991 -3.971 61.852)" d="M26.623 14.594c.976 7.739 2.46 13.951 5 17 0 0-5-3-5-17z" fill="#fff" filter="url(#n)" overflow="visible"/>
 <path transform="matrix(.86965 -.1397 .1397 .86965 -3.076 6.67)" d="M30.804 37.788c-3.843.736-5.747 1.727-2.181 3.438-.94.024-7.62-2.87 2.18-3.438z" fill="#fff" filter="url(#w)" overflow="visible"/>
 <path d="M23.705 31.084c6.176.33 13.262.554 19.295-2.758l-2.916 3.337L43 33c-7.635 2.58-10.082 3.913-19.874 2.042-.428-.205-.263-3.506.58-3.958z" fill="url(#x)" overflow="visible"/>
 <path d="M23.104 34.78c-.19-1.165-.067-2.267.536-3.274l3.156.178c-3.927.39-2.731 2-3.692 3.097z" fill="#fff" fill-opacity=".411" filter="url(#y)" overflow="visible"/>
 <path d="M6.49 29.422c-.353.113-2.145-2.945-2.084-3.037l3.216 2.203c-1.751-.524-1.174.311-1.132.834z" fill="#fff" fill-opacity=".411" filter="url(#z)" overflow="visible"/>
</svg>
