<?xml version="1.0" encoding="UTF-8"?>
<svg width="48" height="48" xmlns="http://www.w3.org/2000/svg" xmlns:xlink="http://www.w3.org/1999/xlink">
 <defs>
  <linearGradient id="g" x1="17.062" x2="22.781" y1="28.485" y2="26.235" gradientUnits="userSpaceOnUse" xlink:href="#c"/>
  <linearGradient id="c">
   <stop stop-color="#ffbf00" offset="0"/>
   <stop stop-color="#ffde00" offset="1"/>
  </linearGradient>
  <linearGradient id="j" x1="25" x2="26.375" y1="1018.8" y2="1021.9" gradientTransform="translate(-.5 .125)" gradientUnits="userSpaceOnUse" xlink:href="#a"/>
  <linearGradient id="k" x1="24.13" x2="20.258" y1="24.246" y2="17.85" gradientUnits="userSpaceOnUse" xlink:href="#a"/>
  <linearGradient id="e" x1="25" x2="26.375" y1="1018.8" y2="1021.9" gradientTransform="translate(9.75 20.25)" gradientUnits="userSpaceOnUse" xlink:href="#a"/>
  <linearGradient id="l" x1="19.75" x2="37.063" y1="22.813" y2="10.813" gradientUnits="userSpaceOnUse" xlink:href="#c"/>
  <linearGradient id="m" x1="22" x2="35.313" y1="28.125" y2="19.375" gradientUnits="userSpaceOnUse" xlink:href="#c"/>
  <linearGradient id="n" x1="25.188" x2="38.375" y1="32.875" y2="22.813" gradientUnits="userSpaceOnUse" xlink:href="#c"/>
  <linearGradient id="o" x1="28.125" x2="39.5" y1="37" y2="29.438" gradientUnits="userSpaceOnUse" xlink:href="#c"/>
  <linearGradient id="a">
   <stop stop-color="#e6e6e6" offset="0"/>
   <stop stop-color="#d5d5d5" offset="1"/>
  </linearGradient>
  <linearGradient id="h" x1="25.406" x2="29.438" y1="24.578" y2="21.828" gradientUnits="userSpaceOnUse" xlink:href="#c"/>
  <linearGradient id="i" x1="34.438" x2="37.063" y1="23.078" y2="20.453" gradientUnits="userSpaceOnUse" xlink:href="#c"/>
  <linearGradient id="p" x1="18.633" x2="15.29" y1="1018.4" y2="1007.3" gradientUnits="userSpaceOnUse" xlink:href="#a"/>
  <filter id="r">
   <feGaussianBlur stdDeviation=".156"/>
  </filter>
  <filter id="q" x="-.15" y="-.081" width="1.301" height="1.163">
   <feGaussianBlur stdDeviation=".156"/>
  </filter>
  <filter id="s" x="-.115" y="-.095" width="1.231" height="1.19">
   <feGaussianBlur stdDeviation=".133"/>
  </filter>
  <filter id="t" x="-.164" width="1.329" height="1.199">
   <feGaussianBlur stdDeviation=".476"/>
  </filter>
  <filter id="d" x="-.122" y="-.525" width="1.243" height="2.049">
   <feGaussianBlur stdDeviation="1.558"/>
  </filter>
  <radialGradient id="f" cx="21.311" cy="25.888" r="12.63" gradientTransform="matrix(1.1338 .65511 -.54157 .93731 9.545 -13.768)" gradientUnits="userSpaceOnUse">
   <stop stop-color="#ff5959" offset="0"/>
   <stop stop-color="#d90000" offset="1"/>
  </radialGradient>
 </defs>
 <path transform="matrix(.4354 0 0 .5567 21.107 19.333)" d="M39.988 38.554a15.363 3.565 0 11-30.726 0 15.363 3.565 0 1130.726 0z" fill-opacity=".769" fill-rule="evenodd" filter="url(#d)"/>
 <path transform="translate(0 -1004.4)" d="M39.17 1038.622c.662 1.56-2.036 4.196-6.027 5.889-3.99 1.693-7.761 1.801-8.423.242-.092-.217-1.846-2.704-1.813-3.333.204-1.566 4.408-1.099 7.84-2.555 3.323-1.41 5.088-4.479 6.439-3.644.271.168 1.874 3.14 1.985 3.401z" fill="url(#e)" fill-rule="evenodd"/>
 <path transform="translate(.624 .104)" d="m38.151 25.494c0 6.975-5.655 12.63-12.63 12.63-6.976 0-12.63-5.655-12.63-12.63 0-6.976 5.654-12.63 12.63-12.63 6.975 0 12.63 5.654 12.63 12.63z" fill="url(#f)" fill-rule="evenodd"/>
 <path d="M17.063 18.75c-.066 8.533 3.215 14.587 7.937 19.406.375.034.772.063 1.156.063.106 0 .207.002.313 0v-.032c-5.014-4.819-8.473-10.706-8.407-19.437h-1z" fill="url(#g)" font-family="Bitstream Vera Sans" font-weight="400" overflow="visible" style="block-progression:tb;text-indent:0;text-transform:none"/>
 <path d="M23.031 17.375l-.687.75c5.288 5.003 8.84 11 11.093 17.781.282-.199.55-.404.813-.625-2.301-6.783-5.884-12.86-11.219-17.906z" fill="url(#h)" font-family="Bitstream Vera Sans" font-weight="400" overflow="visible" style="block-progression:tb;text-indent:0;text-transform:none"/>
 <path d="M27.375 14l-.5.875c6.472 3.995 10.29 9.21 10.531 16.406.332-.656.63-1.347.844-2.062C37.378 22.694 33.42 17.73 27.375 14z" fill="url(#i)" font-family="Bitstream Vera Sans" font-weight="400" overflow="visible" style="block-progression:tb;text-indent:0;text-transform:none"/>
 <path transform="translate(0 -1004.4)" d="M28.92 1018.497c.662 1.56-2.036 4.196-6.027 5.889-3.99 1.693-7.761 1.801-8.423.242-.092-.217-1.846-2.704-1.813-3.333.204-1.566 4.408-1.099 7.84-2.555 3.323-1.41 5.088-4.479 6.439-3.644.271.168 1.874 3.14 1.985 3.401z" fill="url(#j)" fill-rule="evenodd"/>
 <path transform="rotate(-22.992 14.674 22.017)" d="m30.459 16.762c0 1.693-3.514 3.066-7.849 3.066s-7.848-1.373-7.848-3.066c0-1.694 3.513-3.067 7.848-3.067s7.849 1.373 7.849 3.067z" fill="url(#k)" fill-rule="evenodd"/>
 <path d="M30.344 13.688c-1.831 3.777-4.296 5.916-7.188 7.28-2.858 1.35-6.123 1.968-9.437 2.563-.055.332-.128.66-.156 1 3.428-.612 6.904-1.18 10.03-2.656 3.07-1.449 5.787-3.785 7.72-7.781-.32-.144-.637-.29-.97-.406z" fill="url(#l)" font-family="Bitstream Vera Sans" font-weight="400" overflow="visible" style="block-progression:tb;text-indent:0;text-transform:none"/>
 <path d="M34.969 16.563c-3.996 7.923-12.073 11.175-20.594 13.593.12.308.264.61.406.907 8.422-2.402 16.72-5.714 20.938-13.72a13.148 13.148 0 00-.75-.78z" fill="url(#m)" font-family="Bitstream Vera Sans" font-weight="400" overflow="visible" style="block-progression:tb;text-indent:0;text-transform:none"/>
 <path d="M38.125 21.625c-4.928 7.727-13.865 11.44-20.594 13.188.297.278.615.532.938.78 6.556-1.791 14.99-5.388 20.031-12.687a12.616 12.616 0 00-.375-1.281z" fill="url(#n)" font-family="Bitstream Vera Sans" font-weight="400" overflow="visible" style="block-progression:tb;text-indent:0;text-transform:none"/>
 <path d="M38.656 27.375c-1.38 2.72-3.384 4.816-5.781 6.469-2.658 1.833-5.838 3.115-9.219 4.125.804.16 1.65.25 2.5.25 2.63-.915 5.097-2.057 7.282-3.563a19.256 19.256 0 004.25-3.968c.46-1.042.803-2.147.968-3.313z" fill="url(#o)" font-family="Bitstream Vera Sans" font-weight="400" overflow="visible" style="block-progression:tb;text-indent:0;text-transform:none"/>
 <path transform="translate(0 -1004.4)" d="M16.241 1018.262c.099-.261-2.311-4.008-2.336-6.167-.041-3.561 4.623-2.204 5.832-.638.462.598 4.003 6.049 4.003 6.049.089.551.113 1.107-1.267.864 0 0-2.282-3.756-3.021-4.95-1.755-2.839-4.148-2.423-3.957-1.122.22 1.504 2.447 5.16 2.299 5.717-.12.45-.707 1.076-1.553.247z" fill="url(#p)" overflow="visible"/>
 <path d="M15.556 13.396c-2.637 2.587-2.224 3.89-.397 4.596 0 0-4.95-.751.397-4.596z" fill="#fff" fill-opacity=".629" filter="url(#q)" overflow="visible"/>
 <path d="M25.456 10.302c2.62 1.13-2.214 5.652-2.475 5.48.39-.333 6.739-4.292 2.475-5.48z" fill="#fff" fill-opacity=".629" filter="url(#r)" overflow="visible"/>
 <path d="M14.319 9.02c0-2.56 1.082-3.29 2.607-3.27 0 0-3.535-.928-2.607 3.27z" fill="#fff" fill-opacity=".777" filter="url(#s)" overflow="visible"/>
 <path d="M14.584 21.13c1.466.9 3.893.289 6.143-.044-2.669 2.396-8.909-.027-4.817 11.49-1.367-2.954-3.239-5.438-1.326-11.446z" fill="#fff" fill-opacity=".804" filter="url(#t)" overflow="visible"/>
</svg>
