<?xml version="1.0" encoding="UTF-8"?>
<svg width="48" height="48" xmlns="http://www.w3.org/2000/svg" xmlns:xlink="http://www.w3.org/1999/xlink">
 <defs>
  <linearGradient id="K" x1="20.495" x2="18.985" y1="21.966" y2="20.468" gradientTransform="translate(.037 1004.5)" gradientUnits="userSpaceOnUse" xlink:href="#f"/>
  <linearGradient id="a">
   <stop stop-color="#a20000" offset="0"/>
   <stop stop-color="#d40000" offset="1"/>
  </linearGradient>
  <linearGradient id="d">
   <stop stop-color="#555" offset="0"/>
   <stop offset="1"/>
  </linearGradient>
  <linearGradient id="e">
   <stop stop-color="#e6e6e6" offset="0"/>
   <stop stop-color="#d5d5d5" offset="1"/>
  </linearGradient>
  <linearGradient id="f">
   <stop stop-color="#7ed249" offset="0"/>
   <stop stop-color="#286325" offset="1"/>
  </linearGradient>
  <linearGradient id="j" x1="9.262" x2="41.531" y1="21.317" y2="40.943" gradientUnits="userSpaceOnUse" xlink:href="#a"/>
  <linearGradient id="n" x1="20.361" x2="18.377" y1="34.622" y2="26.904" gradientUnits="userSpaceOnUse" xlink:href="#a"/>
  <linearGradient id="m" x1="16.172" x2="24.331" y1="9.482" y2="16.466" gradientUnits="userSpaceOnUse">
   <stop stop-color="#a20000" offset="0"/>
   <stop stop-color="#d40000" offset="1"/>
  </linearGradient>
  <linearGradient id="D" x1="23.036" x2="20.556" y1="1021.5" y2="1017.5" gradientUnits="userSpaceOnUse" xlink:href="#a"/>
  <linearGradient id="V" x1="8.306" x2="7.314" y1="25.636" y2="23.798" gradientUnits="userSpaceOnUse" xlink:href="#e"/>
  <linearGradient id="N" x1="20.582" x2="21.685" y1="3.822" y2="3.381" gradientUnits="userSpaceOnUse" xlink:href="#a"/>
  <linearGradient id="i" x1="22.762" x2="19.348" y1="3.556" y2="4.585" gradientUnits="userSpaceOnUse" xlink:href="#d"/>
  <linearGradient id="s" x1="30.186" x2="25.245" y1="24.215" y2="19.511" gradientUnits="userSpaceOnUse" xlink:href="#d"/>
  <linearGradient id="o" x1="31.552" x2="26.108" y1="1025.9" y2="1018.1" gradientUnits="userSpaceOnUse" xlink:href="#d"/>
  <linearGradient id="p" x1="18.768" x2="10.998" y1="25.733" y2="14.119" gradientUnits="userSpaceOnUse" xlink:href="#d"/>
  <linearGradient id="v" x1="30.904" x2="25.925" y1="24.665" y2="16.832" gradientUnits="userSpaceOnUse" xlink:href="#d"/>
  <linearGradient id="y" x1="18.145" x2="12.682" y1="28.5" y2="21.738" gradientUnits="userSpaceOnUse" xlink:href="#e"/>
  <linearGradient id="z" x1="28.447" x2="26.83" y1="1020" y2="1017.7" gradientUnits="userSpaceOnUse" xlink:href="#e"/>
  <linearGradient id="B" x1="15.168" x2="15.52" y1="1020.5" y2="1016.9" gradientUnits="userSpaceOnUse" xlink:href="#e"/>
  <linearGradient id="M" x1="22.677" x2="23.54" y1="1038.6" y2="1038.4" gradientUnits="userSpaceOnUse" xlink:href="#e"/>
  <linearGradient id="t" x1="26.391" x2="30.978" y1="18.169" y2="21.128" gradientUnits="userSpaceOnUse" xlink:href="#a"/>
  <linearGradient id="w" x1="25.566" x2="30.978" y1="19.261" y2="21.128" gradientUnits="userSpaceOnUse" xlink:href="#a"/>
  <linearGradient id="x" x1="29.472" x2="26.252" y1="23.795" y2="18.835" gradientUnits="userSpaceOnUse" xlink:href="#f"/>
  <linearGradient id="u" x1="30.044" x2="26.041" y1="23.46" y2="18.477" gradientUnits="userSpaceOnUse" xlink:href="#f"/>
  <linearGradient id="g">
   <stop stop-color="#ffea00" offset="0"/>
   <stop stop-color="#ffffa4" offset="1"/>
  </linearGradient>
  <linearGradient id="F" x1="25.287" x2="21.773" y1="24.954" y2="21.524" gradientUnits="userSpaceOnUse" xlink:href="#f"/>
  <linearGradient id="I" x1="25.332" x2="21.573" y1="25.97" y2="20.74" gradientUnits="userSpaceOnUse" xlink:href="#f"/>
  <linearGradient id="H" x1="21.243" x2="24.332" y1="23.265" y2="25.465" gradientUnits="userSpaceOnUse" xlink:href="#g"/>
  <linearGradient id="E" x1="22.046" x2="25.687" y1="20.856" y2="24.001" gradientUnits="userSpaceOnUse" xlink:href="#g"/>
  <linearGradient id="G" x1="21.243" x2="23.968" y1="23.265" y2="25.849" gradientUnits="userSpaceOnUse" xlink:href="#g"/>
  <linearGradient id="J" x1="21.243" x2="24.31" y1="22.254" y2="25.132" gradientUnits="userSpaceOnUse" xlink:href="#g"/>
  <linearGradient id="C" x1="22.545" x2="20.089" y1="1020" y2="1016.3" gradientUnits="userSpaceOnUse" xlink:href="#e"/>
  <linearGradient id="L" x1="13.194" x2="14.572" y1="1036.6" y2="1036.6" gradientUnits="userSpaceOnUse" xlink:href="#e"/>
  <filter id="Z">
   <feGaussianBlur stdDeviation=".09"/>
  </filter>
  <filter id="P">
   <feGaussianBlur stdDeviation=".07"/>
  </filter>
  <filter id="Q" x="-.325" y="-.074" width="1.651" height="1.148">
   <feGaussianBlur stdDeviation=".247"/>
  </filter>
  <filter id="k" x="-.184" y="-.074" width="1.369" height="1.147">
   <feGaussianBlur stdDeviation=".247"/>
  </filter>
  <filter id="X">
   <feGaussianBlur stdDeviation=".107"/>
  </filter>
  <filter id="Y">
   <feGaussianBlur stdDeviation=".107"/>
  </filter>
  <filter id="aa" x="-.113" y="-.099" width="1.227" height="1.198">
   <feGaussianBlur stdDeviation=".09"/>
  </filter>
  <filter id="ad" x="-.107" y="-.163" width="1.213" height="1.326">
   <feGaussianBlur stdDeviation=".12"/>
  </filter>
  <filter id="ab" x="-.139" y="-.097" width="1.278" height="1.193">
   <feGaussianBlur stdDeviation=".141"/>
  </filter>
  <filter id="ac" x="-.201" y="-.095" width="1.402" height="1.19">
   <feGaussianBlur stdDeviation=".126"/>
  </filter>
  <filter id="A" x="-.085" y="-.118" width="1.171" height="1.237">
   <feGaussianBlur stdDeviation=".297"/>
  </filter>
  <filter id="h">
   <feGaussianBlur stdDeviation=".437"/>
  </filter>
  <radialGradient id="r" cx="13.705" cy="16.184" r="2.744" gradientTransform="matrix(1 0 0 1.3492 0 -5.784)" gradientUnits="userSpaceOnUse" xlink:href="#e"/>
  <radialGradient id="l" cx="19.147" cy="1017.5" r="13.273" gradientTransform="matrix(1.6726 .06092 -.03056 .83918 17.887 162.86)" gradientUnits="userSpaceOnUse">
   <stop stop-color="#ffd73b" offset="0"/>
   <stop stop-color="#ee8400" offset="1"/>
  </radialGradient>
  <radialGradient id="q" cx="25.407" cy="1024" r="4.343" gradientTransform="matrix(1 0 0 1.0728 0 -74.455)" gradientUnits="userSpaceOnUse" xlink:href="#e"/>
 </defs>
 <path transform="translate(1.25 .882)" d="M40.429 38.554c-5.924 3.764-8.004-5.95-11.547-4.002-2.313 1.272.97 4.749.436 5.945-1.071 2.395-3.746 2.284-7.192 2.284-3.19 0-2.238-6.83-5.068-4.955-4.696 3.112-10.663 1.231-10.663-.742 0-2.862 1.49-9.96 17.936-5.55 8.51 2.283 10.343-1.425 12.687-3.423 1.069-.91 8.518 7.198 3.41 10.443z" fill-opacity=".769" fill-rule="evenodd" filter="url(#h)"/>
 <path d="M20.986 5.366c.39-.78-2.488-3.11-2.168-3.565.38-.542 3.749.808 4.52 2.683.772 1.874-.845 1.507-2.352.882z" fill="url(#i)" overflow="visible"/>
 <path d="M14.086 18.529c-4.483.66-8.03.208-8.576 7.329.856 3.846 3.118.935 4.158 4.366-.494 3.103-4.043 10.065 3.742 9.356 4.366-.416 2.495-4.366 6.133-3.119 3.328 1.14-.539 6.791 5.406 6.653 9.84-.229 1.61-5.968 4.782-8.42 2.942-2.26 8.75 9.548 12.786 3.015 3.131-5.068-4.678-7.277-2.39-9.252 2.286-1.976 8.108-2.08 5.717-7.173-1.937-4.126-8.732-.416-8.316-3.327.415-2.91 4.99-9.252-.416-8.212-4.885.94-23.026 8.784-23.026 8.784z" fill="url(#j)" overflow="visible"/>
 <path d="M9.115 19.92S5.226 22.81 7.02 27.97c-.697-.306-2.99-4.82 2.095-8.05z" fill="#fff" fill-opacity=".563" filter="url(#k)" overflow="visible"/>
 <path transform="translate(0 -1004.4)" d="M12.475 1026.893c-.993-4.55-2.164-11.82 1.504-15.379 4.182-4.057 13.635-3.114 19.182.514 3.634 3.553 7.702 14.77 1.768 17.568-8.485 2.039-16.085 3.136-22.454-2.703z" fill="url(#l)" overflow="visible"/>
 <path d="M13.084 10.99c1.024-1.54 1.489-3.185 6.469-3.97-1.117.773-3.55 1.264-2.169 2.573.663-.518 1.654-.743 3.198-.478 0 0-3.565.919-2.793 2.095.08.123 3.16.147 3.16.147s-3.565 1.433-2.94 2.499 5.968.946 6.726.294c1.323-1.14-.956-2.867-.956-2.867s2.813.813 2.978.809c2.884-.075-.905-2.995-1.691-3.014.285-.142 3.758 1.052 3.859 1.103 2.74 1.391.105-2.748-2.904-3.088 1.957-.81 7.166 2.622 5.807 4.889-1.046 1.745-8.026 3.595-7.865 5.513.467 5.539-4.77 6.852-6.285.698-.502-2.041-4.74-5.99-4.594-7.204z" fill="url(#m)" overflow="visible"/>
 <path d="M13.722 25.962s-.416.727-.728 3.846c-1.576 4.853.64 7.23 5.614 7.485 3.326.104 6.03 1.767 7.173-2.08 1.143-3.846.623-7.38.623-7.796 0-.416-12.474-1.56-12.682-1.455z" fill="#b3b3b3" overflow="visible"/>
 <path d="M14.762 27.313s-.52.104-.832 3.223c-1.576 4.853.224 5.358 5.198 5.613 3.326.104 4.47 1.975 5.613-1.871 1.144-3.846.728-5.925.728-6.341 0-.416-10.5-.728-10.707-.624z" fill="url(#n)" overflow="visible"/>
 <path transform="translate(0 -1004.4)" d="m32.665 1017.5s0.623 3.742-0.832 6.445-3.95 6.133-6.86 4.262c-2.912-1.871-2.808-3.95-1.56-6.237 1.247-2.287 8.42-2.599 9.252-4.47z" fill="url(#o)" overflow="visible"/>
 <path d="m11.955 11.408c1.735 1.392 5.821 1.455 6.445 4.158s0.123 5.788-2.391 5.822c-2.644 0.035-5.09-7.805-4.054-9.98z" fill="url(#p)" overflow="visible"/>
 <path transform="translate(0 -1004.4)" d="m32.249 1018.4s-0.104 2.6-1.56 5.302c-1.455 2.703-3.112 4.93-5.197 3.638-2.474-1.532-2.183-3.638-1.248-5.093 1.41-2.192 7.173-1.975 8.005-3.846z" fill="url(#q)" overflow="visible"/>
 <path d="M12.578 12.863c1.735 1.393 4.678.728 5.302 3.43.624 2.704-.396 3.71-1.975 3.951-2.614.4-3.22-4.582-3.327-7.38z" fill="url(#r)" overflow="visible"/>
 <path transform="translate(-1.328 -1.51)" d="M30.978 21.128a2.859 2.859 0 11-5.717 0 2.859 2.859 0 015.717 0z" fill="url(#s)" fill-rule="evenodd"/>
 <path transform="matrix(.78182 0 0 .78182 4.599 2.892)" d="M30.978 21.128a2.859 2.859 0 11-5.717 0 2.859 2.859 0 015.717 0z" fill="url(#t)" fill-rule="evenodd"/>
 <path transform="matrix(.63636 0 0 .63636 8.585 5.861)" d="M30.978 21.128a2.859 2.859 0 11-5.717 0 2.859 2.859 0 015.717 0z" fill="url(#u)" fill-rule="evenodd"/>
 <path transform="matrix(.87273 0 0 .87273 -8.948 -1.313)" d="M30.978 21.128a2.859 2.859 0 11-5.717 0 2.859 2.859 0 015.717 0z" fill="url(#v)" fill-rule="evenodd"/>
 <path transform="matrix(.68231 0 0 .68231 -3.775 2.528)" d="M30.978 21.128a2.859 2.859 0 11-5.717 0 2.859 2.859 0 015.717 0z" fill="url(#w)" fill-rule="evenodd"/>
 <path transform="translate(-.296 5.12) scale(.55537)" d="M30.978 21.128a2.859 2.859 0 11-5.717 0 2.859 2.859 0 015.717 0z" fill="url(#x)" fill-rule="evenodd"/>
 <path d="M19.024 28.04s3.014 1.872 6.237 1.872c1.605 0 5.7-1.655 7.974-1.944l-.821-.215c3.346.169 5.114-2.415 5.114-2.415-1.415.251-2.138.611-3.063.471 1.37-.412 1.627-1.658 2.23-2.55-1.399.89-2.484 1.605-4.273 1.425.946-.524.77-1.223 1.051-1.841-3.61 2.854-6.791.97-10.187 1.455.607-7.958-8.325-4.574-8.005-.831-1.443-.769-2.829-.802-4.36-2.714l.722 1.57c-.211.274-.613.31-1.216.094.336.715.672 1.027 1.008 1.362-.14-.028-.352-.032-.784.037 2.153 2.392 3.93 4.258 8.373 4.225z" fill="url(#y)" overflow="visible"/>
 <path transform="translate(0 -1004.4)" d="M22.493 1024.43c0-.184-.184-4.962 4.705-6.8 1.292-.486 4.85-1.826 5.807-3.344a8.616 8.616 0 00.882-1.912c.62.833.743 1.593.294 2.426.24.139.224-.536.661-.882.271.68.255 1.206-.257 1.69.687.276.88-.213 1.764-.918 0 0-1.84 2.14-3.234 3.05-1.801 1.177-9.078 3.014-10.622 6.69z" fill="url(#z)" overflow="visible"/>
 <path d="M12.276 10.842c1.66-3.429 4.951-4.773 8.343-5.99 0 0-6.322-.699-8.343 5.99z" fill="#fff" fill-opacity=".808" filter="url(#A)" overflow="visible"/>
 <path transform="translate(0 -1004.4)" d="M18.63 1022.068c.197-2.243-.094-4.358-2.282-5.337-2.355-1.052-4.04-2.886-5.065-5.1.085.793-.135 1.585.482 2.378-.474.078-.881-.18-1.257-.59.245.598.508 1.188 1.138 1.594-.277.121-.572.235-1.329.163 0 0 .508.429 2.57 1.595 2.06 1.168 5.003 1.244 5.743 5.297z" fill="url(#B)" overflow="visible"/>
 <path transform="translate(0 -1004.4)" d="M20.655 1016.013c1.51-.32 1.03 2.058 1.03 2.058s1.065-2.572 2.021-1.617c.956.956-1.764 2.352-1.764 2.352s1.948-.808 1.617.883c-.33 1.69-2.021-.221-2.021-.221s.661 1.58-.662 1.727c-1.323.147-.294-2.131-.294-2.131s-1.855.92-1.883-.174c-.037-1.48.995-1.042 1.92-.852.618 1.434-1.259-1.6.036-2.025z" fill="url(#C)" overflow="visible"/>
 <path transform="translate(0 -1004.4)" d="M20.766 1016.27c1.51-.32.698 2.647.698 2.647s.956-3.198 1.911-2.242c.956.955-1.911 2.315-1.911 2.315s2.205-1.066 1.874.625c-.33 1.69-1.874-.662-1.874-.662s.698 1.765-.625 1.912c-1.323.147.11-2.169.11-2.169s-2.075 1.14-2.103.047c-.037-1.479 1.399-.527 2.324-.337.618 1.434-1.7-1.711-.404-2.135z" fill="url(#D)" overflow="visible"/>
 <path transform="matrix(.77692 0 0 .77692 3.673 4.436)" d="M26.021 23.265a2.389 2.389 0 11-4.778 0 2.389 2.389 0 014.778 0z" fill="url(#E)" fill-rule="evenodd"/>
 <path transform="matrix(.5077 0 0 .5077 9.687 10.277)" d="M26.021 23.265a2.389 2.389 0 11-4.778 0 2.389 2.389 0 014.778 0z" fill="url(#F)" fill-rule="evenodd"/>
 <path transform="matrix(.3923 0 0 .3923 12.285 12.796)" d="M26.021 23.265a2.389 2.389 0 11-4.778 0 2.389 2.389 0 014.778 0z" fill="url(#G)" fill-rule="evenodd"/>
 <path transform="matrix(.66154 0 0 .66154 1.016 6.183)" d="M26.021 23.265a2.389 2.389 0 11-4.778 0 2.389 2.389 0 014.778 0z" fill="url(#H)" fill-rule="evenodd"/>
 <path transform="matrix(.4323 0 0 .4323 6.136 11.157)" d="M26.021 23.265a2.389 2.389 0 11-4.778 0 2.389 2.389 0 014.778 0z" fill="url(#I)" fill-rule="evenodd"/>
 <path transform="matrix(.33404 0 0 .33404 8.348 13.302)" d="M26.021 23.265a2.389 2.389 0 11-4.778 0 2.389 2.389 0 014.778 0z" fill="url(#J)" fill-rule="evenodd"/>
 <path transform="translate(0 -1004.4)" d="M19.59 1023.621c-1.068.611-1.955 2.042-1.544 4.337.337.5 1.01.561 1.25.184.175-1.264.231-3.182 1.653-4.19-.453-1.057-.906-.59-1.36-.331z" fill="url(#K)" overflow="visible"/>
 <path transform="translate(0 -1004.4)" d="M13.415 1038.837l-.22-4.631 1.36 3.749c.156 1.29-.752 1.107-1.14.882z" fill="url(#L)" overflow="visible"/>
 <path transform="translate(0 -1004.4)" d="M22.897 1040.822l-.22-4.631 1.36 3.748c.157 1.292-.752 1.107-1.14.883z" fill="url(#M)" overflow="visible"/>
 <path d="M21.406 2.5c-.49 1-.979.81-1.468 1 .299.35.606.679.812 1 .831-.045 1.436-.43 1.875-1.063a6.253 6.253 0 00-1.219-.937z" fill="url(#N)" overflow="visible"/>
 <path transform="translate(-.625 -.809)" d="M9.52 24.46a1.342 1.342 0 11-2.684 0 1.342 1.342 0 012.683 0z" fill="url(#V)" fill-rule="evenodd"/>
 <path d="M8.049 22.493c-.593.379-1.357.302-1.397 2.058 0 0-1.286-2.205 1.397-2.058z" fill="#fff" fill-opacity=".732" filter="url(#P)" overflow="visible"/>
 <path d="M9.74 31.167c-.657 3.918-.775 7.112.808 8.012 0 0-3.491-1.029-.808-8.012z" fill="#fff" fill-opacity=".563" filter="url(#Q)" overflow="visible"/>
 <path transform="translate(2.757 12.79)" d="M9.52 24.46a1.342 1.342 0 11-2.684 0 1.342 1.342 0 012.683 0z" fill="url(#V)" fill-rule="evenodd"/>
 <path transform="translate(3.381 13.599)" d="M8.049 22.493c-.593.379-1.357.302-1.397 2.058 0 0-1.286-2.205 1.397-2.058z" fill="#fff" fill-opacity=".732" filter="url(#P)" overflow="visible"/>
 <path transform="translate(17.825 16.833)" d="M9.52 24.46a1.342 1.342 0 11-2.684 0 1.342 1.342 0 012.683 0z" fill="url(#V)" fill-rule="evenodd"/>
 <path transform="translate(18.45 17.642)" d="M8.049 22.493c-.593.379-1.357.302-1.397 2.058 0 0-1.286-2.205 1.397-2.058z" fill="#fff" fill-opacity=".732" filter="url(#P)" overflow="visible"/>
 <path transform="translate(32.417 12.092)" d="M9.52 24.46a1.342 1.342 0 11-2.684 0 1.342 1.342 0 012.683 0z" fill="url(#V)" fill-rule="evenodd"/>
 <path transform="translate(33.041 12.9)" d="M8.049 22.493c-.593.379-1.357.302-1.397 2.058 0 0-1.286-2.205 1.397-2.058z" fill="#fff" fill-opacity=".732" filter="url(#P)" overflow="visible"/>
 <path transform="translate(13.194 -9.96)" d="M9.52 24.46a1.342 1.342 0 11-2.684 0 1.342 1.342 0 012.683 0z" fill="url(#V)" fill-rule="evenodd"/>
 <path transform="translate(13.82 -9.152)" d="M8.049 22.493c-.593.379-1.357.302-1.397 2.058 0 0-1.286-2.205 1.397-2.058z" fill="#fff" fill-opacity=".732" filter="url(#P)" overflow="visible"/>
 <path transform="translate(29.807 -13.378)" d="M9.52 24.46a1.342 1.342 0 11-2.684 0 1.342 1.342 0 012.683 0z" fill="url(#V)" fill-rule="evenodd"/>
 <path transform="translate(30.432 -12.57)" d="M8.049 22.493c-.593.379-1.357.302-1.397 2.058 0 0-1.286-2.205 1.397-2.058z" fill="#fff" fill-opacity=".732" filter="url(#P)" overflow="visible"/>
 <path transform="translate(36.018 -2.426)" d="M9.52 24.46a1.342 1.342 0 11-2.684 0 1.342 1.342 0 012.683 0z" fill="url(#V)" fill-rule="evenodd"/>
 <path transform="translate(36.643 -1.617)" d="M8.049 22.493c-.593.379-1.357.302-1.397 2.058 0 0-1.286-2.205 1.397-2.058z" fill="#fff" fill-opacity=".732" filter="url(#P)" overflow="visible"/>
 <path d="M16.282 14.812c-1.71.388-2.873 1.3-2.536 3.638 0 0-1.47-3.92 2.536-3.638z" fill="#fff" fill-opacity=".737" filter="url(#X)" overflow="visible"/>
 <path d="M27.639 17.127c-2.498.183-4.088 2.427-2.94 4.227-.521-.736-1.655-4.631 2.94-4.227z" fill="#fff" fill-opacity=".737" filter="url(#Y)" overflow="visible"/>
 <path d="M22.787 20.986c-2.923.283-1.96 1.603-2.168 2.61 0 0-1.397-3.161 2.168-2.61z" fill="#fff" fill-opacity=".772" filter="url(#Z)" overflow="visible"/>
 <path d="M17.2 20.251c-.671.084-2.018.273-1.764 2.095 0 0-.918-2.756 1.765-2.095z" fill="#fff" fill-opacity=".772" filter="url(#aa)" overflow="visible"/>
 <path d="M14.848 27.565c-.34.686-.49 2.327-.735 3.492.483-1.294.559-2.995 2.426-2.904l-1.69-.588z" fill="#fff" fill-opacity=".54" filter="url(#ab)" overflow="visible"/>
 <path d="M19.626 19.626c-1.04.865-1.22 2.05-1.507 3.198 0 0-.147-2.977 1.507-3.198z" fill="#fff" fill-opacity=".652" filter="url(#ac)" overflow="visible"/>
 <path d="M20.398 3.675s-1.764-1.69-1.396-1.764c.367-.073 2.646.919 2.646.919-2.525-.923-2.111-.167-1.25.845z" fill="#fff" fill-opacity=".411" filter="url(#ad)" overflow="visible"/>
</svg>
