<?xml version="1.0" encoding="UTF-8"?>
<svg width="48" height="48" xmlns="http://www.w3.org/2000/svg" xmlns:xlink="http://www.w3.org/1999/xlink">
 <defs>
  <linearGradient id="i" x1="31.534" x2="40.723" y1="1041.1" y2="1041.1" gradientUnits="userSpaceOnUse" xlink:href="#b"/>
  <linearGradient id="d">
   <stop stop-color="#ffd73b" offset="0"/>
   <stop stop-color="#ee8400" offset="1"/>
  </linearGradient>
  <linearGradient id="b">
   <stop stop-color="#ffea00" offset="0"/>
   <stop stop-color="#ffffa4" offset="1"/>
  </linearGradient>
  <linearGradient id="c">
   <stop stop-color="#555" offset="0"/>
   <stop offset="1"/>
  </linearGradient>
  <linearGradient id="m" x1="40.686" x2="31.314" y1="1026.3" y2="1023.8" gradientTransform="translate(-25.066 -4.63)" gradientUnits="userSpaceOnUse" xlink:href="#a"/>
  <linearGradient id="n" x1="29.917" x2="41.164" y1="1035.8" y2="1035.7" gradientTransform="translate(-25.066 -4.63)" gradientUnits="userSpaceOnUse" xlink:href="#a"/>
  <linearGradient id="o" x1="32.931" x2="42.708" y1="1030.1" y2="1030" gradientTransform="translate(-25.066 -4.63)" gradientUnits="userSpaceOnUse" xlink:href="#b"/>
  <linearGradient id="p" x1="31.534" x2="40.723" y1="1041.1" y2="1041.1" gradientTransform="translate(-25.066 1.397)" gradientUnits="userSpaceOnUse" xlink:href="#b"/>
  <linearGradient id="q" x1="761.69" x2="755.89" y1="706.03" y2="707.28" gradientTransform="translate(-19.388 16.061)" gradientUnits="userSpaceOnUse" xlink:href="#a"/>
  <linearGradient id="r" x1="9.091" x2="13.46" y1="1031.9" y2="1035.5" gradientUnits="userSpaceOnUse" xlink:href="#b"/>
  <linearGradient id="s" x1="10.38" x2="11.806" y1="1017.3" y2="1017.3" gradientUnits="userSpaceOnUse" xlink:href="#c"/>
  <linearGradient id="f" x1="40.686" x2="31.314" y1="1026.3" y2="1023.8" gradientUnits="userSpaceOnUse" xlink:href="#a"/>
  <linearGradient id="g" x1="29.917" x2="41.164" y1="1035.8" y2="1035.7" gradientUnits="userSpaceOnUse" xlink:href="#a"/>
  <linearGradient id="h" x1="32.931" x2="42.708" y1="1030.1" y2="1030" gradientUnits="userSpaceOnUse" xlink:href="#b"/>
  <linearGradient id="a">
   <stop stop-color="#a20000" offset="0"/>
   <stop stop-color="#d40000" offset="1"/>
  </linearGradient>
  <linearGradient id="j" x1="761.69" x2="755.89" y1="706.03" y2="707.28" gradientUnits="userSpaceOnUse" xlink:href="#a"/>
  <linearGradient id="k" x1="34.377" x2="38.305" y1="1034.4" y2="1037.5" gradientUnits="userSpaceOnUse" xlink:href="#b"/>
  <linearGradient id="l" x1="35.445" x2="36.871" y1="1021.9" y2="1021.9" gradientUnits="userSpaceOnUse" xlink:href="#c"/>
  <filter id="y" x="-.123" y="-.194" width="1.246" height="1.388">
   <feGaussianBlur stdDeviation=".184"/>
  </filter>
  <filter id="e" x="-.045" y="-.31" width="1.09" height="1.621">
   <feGaussianBlur stdDeviation=".639"/>
  </filter>
  <filter id="v">
   <feGaussianBlur stdDeviation=".187"/>
  </filter>
  <filter id="w" x="-.157" y="-.03" width="1.314" height="1.06">
   <feGaussianBlur stdDeviation=".187"/>
  </filter>
  <filter id="x" x="-.105" y="-.23" width="1.209" height="1.46">
   <feGaussianBlur stdDeviation=".184"/>
  </filter>
  <filter id="B" x="-.294" y="-.188" width="1.589" height="1.377">
   <feGaussianBlur stdDeviation=".289"/>
  </filter>
  <filter id="A" x="-.248" y="-.118" width="1.495" height="1.237">
   <feGaussianBlur stdDeviation=".252"/>
  </filter>
  <filter id="z" x="-.154" y="-.092" width="1.308" height="1.185">
   <feGaussianBlur stdDeviation=".252"/>
  </filter>
  <filter id="C" x="-.362" y="-.181" width="1.725" height="1.362">
   <feGaussianBlur stdDeviation=".289"/>
  </filter>
  <radialGradient id="t" cx="7.575" cy="6.622" r="7.494" gradientTransform="matrix(2.1871 .21447 -.17613 1.7962 -7.826 -6.897)" gradientUnits="userSpaceOnUse" xlink:href="#d"/>
  <radialGradient id="u" cx="6.863" cy="5.41" r="7.494" gradientTransform="matrix(2.9713 .76566 -.43392 1.6839 -11.182 -8.949)" gradientUnits="userSpaceOnUse" xlink:href="#d"/>
 </defs>
 <path d="M11.906 38c-3.45 0-6.25.915-6.25 2.031 0 1.117 2.8 2 6.25 2 3.451 0 6.25-.883 6.25-2 0-1.116-2.799-2.031-6.25-2.031zm21.625.875c-3.45 0-6.25.915-6.25 2.031 0 1.117 2.8 2.032 6.25 2.032 3.451 0 6.25-.915 6.25-2.032 0-1.116-2.799-2.031-6.25-2.031z" fill-opacity=".769" fill-rule="evenodd" filter="url(#e)"/>
 <path transform="rotate(-10.182 -5599.8 556.13)" d="M29.917 1025.753c2.22-2.373 8.949-2.589 12.79 0v18.23c-4.635-.054-8.732.073-12.79 0v-18.23z" fill="url(#f)"/>
 <path transform="rotate(-10.182 -5599.8 556.13)" d="m29.917 1025.8c3.682 1.745 7.743 2.352 12.79 0v18.23c-4.623 2.746-10.844 2.108-12.79 0v-18.23z" fill="url(#g)"/>
 <path transform="rotate(-10.182 -5599.8 556.13)" d="m29.917 1028.4c3.682 1.745 7.743 2.352 12.79 0v1.397c-4.302 2.915-11.359 1.85-12.79 0v-1.397z" fill="url(#h)"/>
 <path transform="rotate(-10.182 -5599.8 556.13)" d="m29.917 1039.5c3.682 1.745 7.743 2.353 12.79 0v1.397c-4.302 2.915-10.55 1.666-12.79 0v-1.397z" fill="url(#i)"/>
 <path transform="rotate(34.818 1471.4 -788)" d="m755.63 704.12h5.852v5.852h-5.852z" fill="url(#j)"/>
 <path transform="rotate(-10.182 -5599.8 556.13)" d="M37.437 1034.194c-.111 0-.258.026-.437.094a1.918 1.918 0 01-1 .063c-.261-.068-.655-.054-.875.03-.377.147-.374.171.031.47.37.272.39.367.125.687-.17.205-.513.475-.75.562-.403.15-.388.175-.031.532.21.21.297.467.218.593-.078.127.087.33.375.438.438.164.56.12.625-.281.044-.266.186-.627.313-.782.127-.154.302-.22.406-.156.261.162.72-.757.531-1.062-.094-.153-.358 0-.687.406l-.531.656.281-.75c.23-.633.455-.844.687-.687.032.02.279-.098.563-.25.501-.269.49-.548.156-.563zm.094 1c-.165 0-.325.275-.344.593-.04.703.458.62.563-.094.043-.293-.04-.5-.219-.5zm.062 1.343c-.594.06-1.468.407-1.562.688-.184.553.143.88.875.844.557-.028.833-.185 1.094-.657.286-.516.309-.689.062-.843-.09-.056-.27-.051-.469-.031zm-.03.25a.21.21 0 01.218.22c0 .124-.039.218-.094.218s-.173-.094-.25-.219c-.077-.125-.007-.219.125-.219zm-.907.22c.125 0 .219.156.219.343 0 .187-.094.344-.219.344s-.219-.157-.219-.344c0-.187.094-.344.219-.344z" fill="url(#k)"/>
 <path transform="rotate(-10.182 -5599.8 556.13)" d="M36.597 1018.344c.234.951-.184 2.25-.599 2.95-.706 1.468-.646 2.454-.316 3.975.605.397 1.172.4 1.19-.182-.46-1.267-.492-2.356-.355-3.493.516-1.985.317-2.213.314-3.27l-.234.02z" fill="url(#l)" font-family="Bitstream Vera Sans" font-weight="400" overflow="visible" style="block-progression:tb;text-indent:0;text-transform:none"/>
 <path transform="rotate(14.479 3970.3 543.44)" d="M4.851 1021.122c2.22-2.373 8.949-2.588 12.79 0v18.23c-4.635-.054-8.732.073-12.79 0v-18.23z" fill="url(#m)"/>
 <path transform="rotate(14.479 3970.3 543.44)" d="m4.851 1021.1c3.682 1.745 7.743 2.352 12.79 0v23.155c-4.623 2.746-10.844 2.108-12.79 0v-23.155z" fill="url(#n)"/>
 <path transform="rotate(14.479 3970.3 543.44)" d="m4.851 1023.8c3.682 1.745 7.743 2.352 12.79 0v1.397c-4.302 2.915-11.359 1.85-12.79 0v-1.397z" fill="url(#o)"/>
 <path transform="rotate(14.479 3970.3 543.44)" d="m4.851 1040.9c3.682 1.745 7.743 2.353 12.79 0v1.397c-4.302 2.915-10.55 1.666-12.79 0v-1.397z" fill="url(#p)"/>
 <path transform="rotate(59.479 984.66 -258.43)" d="m736.24 720.18h5.852v5.852h-5.852z" fill="url(#q)"/>
 <path transform="rotate(14.479 3970.3 543.44)" d="M12.371 1031.841c-.111 0-.258.027-.437.095a1.918 1.918 0 01-1 .063c-.261-.068-.655-.054-.875.03-.377.147-.374.17.031.47.37.272.39.366.125.687-.17.205-.513.475-.75.562-.403.15-.388.175-.031.531.21.21.297.467.219.594-.079.127.086.33.375.438.437.164.56.12.625-.281.043-.266.185-.627.312-.782.127-.154.302-.22.406-.156.262.161.72-.757.532-1.063-.095-.152-.36 0-.688.407l-.531.656.281-.75c.23-.633.456-.844.688-.688.03.022.278-.097.562-.25.501-.268.49-.547.156-.562zm.094 1c-.165 0-.325.276-.344.594-.04.703.458.62.563-.094.043-.293-.04-.5-.219-.5zm.063 1.344c-.595.06-1.47.407-1.563.688-.184.553.144.88.875.843.557-.027.833-.184 1.094-.656.286-.516.31-.689.062-.844-.089-.055-.27-.05-.468-.03zm-.032.25a.21.21 0 01.22.219c0 .125-.04.219-.095.219s-.173-.094-.25-.219c-.077-.125-.007-.219.125-.219zm-.906.219c.125 0 .219.157.219.344 0 .187-.094.343-.219.343s-.219-.156-.219-.343c0-.188.094-.344.22-.344z" fill="url(#r)"/>
 <path transform="rotate(14.479 3970.3 543.44)" d="M11.532 1013.713c.233.952-.185 2.25-.6 2.95-.706 1.468-.646 2.454-.316 3.975.605.397 1.172.4 1.19-.182-.46-1.267-.492-2.356-.355-3.493.517-1.985.317-2.213.314-3.27l-.233.02z" fill="url(#s)" font-family="Bitstream Vera Sans" font-weight="400" overflow="visible" style="block-progression:tb;text-indent:0;text-transform:none"/>
 <path transform="matrix(.88072 .19205 -.19205 .88072 23.856 5.657)" d="M15.069 7.35l-5.244.51 2.906 4.151-4.345-2.98-.442 5.047-1.412-5.076-3.584 3.582L5.13 7.79l-5.048.44 4.754-2.272L.685 3.05l5.101 1.315-1.31-4.894 3.063 4.286L9.68-.834l-.41 5.252 4.594-2.14-3.69 3.76 4.894 1.313z" fill="url(#t)" fill-rule="evenodd"/>
 <path transform="rotate(4.221 -32.365 217.7) scale(.67126)" d="M15.069 7.35l-5.244.51 2.906 4.151-4.345-2.98-.442 5.047-1.412-5.076-3.584 3.582L5.13 7.79l-5.048.44 4.754-2.272L.685 3.05l5.101 1.315-1.31-4.894 3.063 4.286L9.68-.834l-.41 5.252 4.594-2.14-3.69 3.76 4.894 1.313z" fill="url(#u)" fill-rule="evenodd"/>
 <path d="M6.248 34.842c.368-.882 5.22-19.48 5.22-19.48S8.6 34.917 6.247 34.843z" fill="#fff" fill-opacity=".496" filter="url(#v)" overflow="visible"/>
 <path d="m24.698 24.33 2.867 15.07s-1.176-12.864-2.867-15.07z" fill="#fff" fill-opacity=".496" filter="url(#w)" overflow="visible"/>
 <path d="M16.319 14.334c-2.93-.1-4.521.23-2.573 1.69 0 0-5.072-2.72 2.573-1.69z" fill="#fff" fill-opacity=".714" filter="url(#x)" overflow="visible"/>
 <path d="M28.3 21.096c-3.581 1.435-3.03 2.015-.955 2.28 0 0-6.543.146.955-2.28z" fill="#fff" fill-opacity=".714" filter="url(#y)" overflow="visible"/>
 <path d="M28.469 9.063c-.058.121-.038.76.125 2.312-5.216-2.897.958.739-2.375 1.094-2.267.342 1.656.417 1.156 1.781.374-.072.597.231.75.625.404-1.357.762-2.53 1.313-4.438-.535-.503-.877-1.57-.97-1.374zm-1.094 5.187c-.349.067-.818.449-1.469 1.344.918-.56 1.339-.99 1.469-1.344z" fill="#fff" fill-opacity=".455" fill-rule="evenodd" filter="url(#z)"/>
 <path d="M19.688 5c-.028.09.07.588.312 1.563l.313-.844c-.341-.352-.586-.846-.625-.719zM18.28 6.094c-.06.128 1.758 1.236.094 1.656-1.389.416.474.205.938.781l.656-1.875c-1.204-.46-1.662-.619-1.688-.562zm.813 3.062c-.186.182-.384.483-.625.938.174-.144.315-.284.437-.406l.188-.532z" fill="#fff" fill-opacity=".679" fill-rule="evenodd" filter="url(#A)"/>
 <path d="M13.01 26.389l-2.352 1.03 1.985 2.645c-.725-1.225-1.4-2.45.368-3.675z" fill="#fff" fill-opacity=".375" filter="url(#B)" overflow="visible"/>
 <path d="M30.726 34.254c-.368-.294-1.911-1.25-1.911-1.25l1.91-2.572c-.837 2.351-.517 3.214 0 3.822z" fill="#fff" fill-opacity=".375" filter="url(#C)" overflow="visible"/>
</svg>
