<?xml version="1.0" encoding="UTF-8"?>
<svg width="48" height="48" xmlns="http://www.w3.org/2000/svg" xmlns:xlink="http://www.w3.org/1999/xlink">
 <defs>
  <linearGradient id="r" x1="20.844" x2="20.844" y1="21.432" y2="23.789" gradientTransform="translate(-3.79 11.284)" gradientUnits="userSpaceOnUse" xlink:href="#a"/>
  <linearGradient id="a">
   <stop stop-color="#7ed249" offset="0"/>
   <stop stop-color="#286325" offset="1"/>
  </linearGradient>
  <linearGradient id="f" x1="8.284" x2="22.379" y1="22.608" y2="36" gradientUnits="userSpaceOnUse" xlink:href="#a"/>
  <linearGradient id="e" x1="20.211" x2="37" y1="19.608" y2="29.667" gradientUnits="userSpaceOnUse" xlink:href="#a"/>
  <linearGradient id="b">
   <stop stop-color="#9a5723" offset="0"/>
   <stop stop-color="#db9762" offset="1"/>
  </linearGradient>
  <linearGradient id="j" x1="20" x2="28" y1="4.783" y2="12.408" gradientUnits="userSpaceOnUse" xlink:href="#b"/>
  <linearGradient id="B" x1="20.844" x2="20.844" y1="21.432" y2="23.789" gradientTransform="rotate(29.303 7.05 23.154)" gradientUnits="userSpaceOnUse" xlink:href="#a"/>
  <linearGradient id="k" x1="10.611" x2="41.444" y1="16.084" y2="19.097" gradientUnits="userSpaceOnUse" xlink:href="#b"/>
  <linearGradient id="g" x1="34.008" x2="28.644" y1="13.107" y2=".476" gradientUnits="userSpaceOnUse" xlink:href="#b"/>
  <linearGradient id="l" x1="39.967" x2="13.732" y1="13.133" y2="22.72" gradientUnits="userSpaceOnUse" xlink:href="#a"/>
  <linearGradient id="m" x1="20.063" x2="28" y1="12.842" y2="15.487" gradientUnits="userSpaceOnUse">
   <stop stop-color="#a20000" offset="0"/>
   <stop stop-color="#d40000" offset="1"/>
  </linearGradient>
  <linearGradient id="n" x1="20.844" x2="20.844" y1="21.432" y2="23.789" gradientTransform="translate(.59)" gradientUnits="userSpaceOnUse" xlink:href="#a"/>
  <linearGradient id="p" x1="20.844" x2="20.844" y1="21.432" y2="23.789" gradientTransform="translate(-6.063 2.442)" gradientUnits="userSpaceOnUse" xlink:href="#a"/>
  <linearGradient id="q" x1="20.844" x2="20.844" y1="21.432" y2="23.789" gradientTransform="translate(-7.495 7.916)" gradientUnits="userSpaceOnUse" xlink:href="#a"/>
  <linearGradient id="h" x1="9.743" x2="28" y1="21.116" y2="27.769" gradientUnits="userSpaceOnUse" xlink:href="#a"/>
  <linearGradient id="s" x1="20.844" x2="20.844" y1="21.432" y2="23.789" gradientTransform="translate(1.263 6.316)" gradientUnits="userSpaceOnUse" xlink:href="#a"/>
  <linearGradient id="t" x1="20.844" x2="20.844" y1="21.432" y2="23.789" gradientTransform="translate(1.347 15.326)" gradientUnits="userSpaceOnUse" xlink:href="#a"/>
  <linearGradient id="A" x1="20.844" x2="20.844" y1="21.432" y2="23.789" gradientTransform="scale(-1 1) rotate(29.303 -14.533 -71.9)" gradientUnits="userSpaceOnUse" xlink:href="#a"/>
  <linearGradient id="u" x1="20.844" x2="20.844" y1="21.432" y2="23.789" gradientTransform="matrix(-1 0 0 1 56.34 -1.516)" gradientUnits="userSpaceOnUse" xlink:href="#a"/>
  <linearGradient id="v" x1="20.844" x2="20.844" y1="21.432" y2="23.789" gradientTransform="matrix(-1 0 0 1 56.088 3.705)" gradientUnits="userSpaceOnUse" xlink:href="#a"/>
  <linearGradient id="w" x1="20.844" x2="20.844" y1="21.432" y2="23.789" gradientTransform="matrix(-1 0 0 1 58.193 6.737)" gradientUnits="userSpaceOnUse" xlink:href="#a"/>
  <linearGradient id="x" x1="20.844" x2="20.844" y1="21.432" y2="23.789" gradientTransform="matrix(-1 0 0 1 48.256 12.126)" gradientUnits="userSpaceOnUse" xlink:href="#a"/>
  <linearGradient id="y" x1="20.844" x2="20.844" y1="21.432" y2="23.789" gradientTransform="matrix(-1 0 0 1 47.835 2.695)" gradientUnits="userSpaceOnUse" xlink:href="#a"/>
  <linearGradient id="z" x1="20.844" x2="20.844" y1="21.432" y2="23.789" gradientTransform="matrix(-1 0 0 1 48.004 -1.768)" gradientUnits="userSpaceOnUse" xlink:href="#a"/>
  <filter id="o" x="-.157" y="-.135" width="1.313" height="1.27">
   <feGaussianBlur stdDeviation=".185"/>
  </filter>
  <filter id="E" x="-.193" y="-.149" width="1.387" height="1.298">
   <feGaussianBlur stdDeviation=".185"/>
  </filter>
  <filter id="C" x="-.239" y="-.161" width="1.479" height="1.322">
   <feGaussianBlur stdDeviation=".267"/>
  </filter>
  <filter id="D" x="-.093" y="-.171" width="1.186" height="1.342">
   <feGaussianBlur stdDeviation=".267"/>
  </filter>
  <filter id="d" x="-.115" y="-.379" width="1.23" height="1.758">
   <feGaussianBlur stdDeviation=".864"/>
  </filter>
  <radialGradient id="i" cx="16.589" cy="8.88" r="16" gradientTransform="matrix(1.8855 .41055 -.13845 .6358 -13.46 .596)" gradientUnits="userSpaceOnUse" xlink:href="#b"/>
 </defs>
 <path transform="matrix(.52804 0 0 .63077 11.05 15.593)" d="M35.368 42.232a9.01 2.737 0 11-18.02 0 9.01 2.737 0 1118.02 0z" fill-opacity=".769" fill-rule="evenodd" filter="url(#d)"/>
 <path d="m25 28h5s2 0 2-1-2-6 0-7 4 0 4 2 1 6 1 8-2.764 3-5 3c-3 0-8 1-8 1l1-6z" fill="url(#e)" overflow="visible"/>
 <path d="m25 30h-5s-2 0-2-1 2-5 0-6-4 0-4 2-1 5-1 7 2.764 3 5 3c3 0 8 1 8 1l-1-6z" fill="url(#f)" overflow="visible"/>
 <path d="M41 16.442c0 2.21-11 1-17 1s-15 1.21-15-1c0-.688-.763-2.167 0-3 1-2 6.738-5 15-5 7.102 0 17 3 17 6-.372.149-.131 1.453 0 2z" fill="url(#g)" fill-rule="evenodd"/>
 <path d="M21.074 42.168c1.1.642.503-28.248.926-29.168.836-1.817 4.498.032 5 4 .482 3.807 2.479 24.914 1.842 25.168-.972 1.253-5.83 2.27-7.768 0z" fill="url(#h)" overflow="visible"/>
 <path d="M41 16.442c0 2.21-11 2-17 2s-15 .21-15-2c0-2.209 3-6 15-6 10 0 17 3.791 17 6z" fill="url(#i)" fill-rule="evenodd"/>
 <path d="m20 13.442s0-6 2-8 5 1 5 3 1 6 1 6-1.747 2.916-8-1z" fill="url(#j)" overflow="visible"/>
 <path d="M40.94 16.8c0 2.209-10.94 2.297-16.94 2.297-6 0-15-.446-15-2.655 0-.688-.823-1.81-.06-2.643.286 2.072 6.798 2.643 15.06 2.643 7.102 0 15.536.68 17-2 0 0 .464.345-.06 2.357z" fill="url(#k)" fill-rule="evenodd"/>
 <path d="M41 14.438c-.134.245-.18.337-.425.53l-.7 2.157-1-1.313c-.324.1-.654.208-1.031.282l-1.032 2.187-1.406-1.906c-.392.03-.771.076-1.187.094l-1.594 2.125c-.382-.567-.87-1.544-1.313-2.063-.502 0-1.016-.026-1.53-.031-.04.044-.085.073-.126.125-.437.554-.68 1.533-1.062 2.125l-1.625-2.281c-.547-.008-1.085-.026-1.625-.032l-2.157 2.375-1.5-2.406c-.346-.005-.693.008-1.03 0-.744.673-1.492 1.641-2.25 2.219-.263-.272-.513-1.083-.75-1.375-.389-.506-.62-.846-.75-1.031-.41-.028-.835-.029-1.22-.063h-.03c-.707.617-1.412 1.418-2.095 1.969-.661-.691-1.215-1.724-1.78-2.563-.419-.1-.793-.19-1.126-.312l-1.594 1.469c.08.222.27.41.532.593l1.437-1.468c.433.952 1.094 1.73 1.781 2.5.445.08.883.185 1.376.25.012-.018-.004.003.03-.032.07-.069.16-.145.282-.25.543-.485 1.228-1.379 1.813-1.812.41.63.805 1.67 1.28 2.25.06.065.127.103.188.156.377.024.745.076 1.125.094.767-.654 1.508-1.656 2.25-2.25l1.5 2.313c.419.004.854.03 1.25.03l2.375-2.312 1.532 2.282c.482-.007.879.01 1.375 0 .445-.778.947-1.797 1.375-2.438.38.805.865 1.571 1.406 2.313.003.004.027-.005.031 0 .419-.02.81-.038 1.219-.063l1.656-2.188 1.406 1.907c.368-.046.757-.071 1.094-.125l1.094-2.094 1.281 1.5c.406-.157.704-.331.906-.531l.469-1.438C41.306 14.7 41 14.437 41 14.437z" fill="url(#l)" font-family="Bitstream Vera Sans" font-weight="400" overflow="visible" style="block-progression:tb;text-indent:0;text-transform:none"/>
 <path d="M20.543 10.198l-.23.152c-.14.88-.21 1.193-.25 1.838l.156 1.374c.381.234.746.442 1.093.626l.594-1.47.313 1.907c.4.18.774.353 1.125.469l.812-2.25.657 2.594c.423.055.797.06 1.125.03l.468-2.937 1.469 2 .031.031c.06-.072.094-.124.094-.124s-.214-.956-.438-2.032L26.5 11l-.875.219-.344 2.062-.562-2.25-.938-.062L23 13.094l-.375-2.281-.969-.094-.593 1.437-.22-1.875-.3-.083z" fill="url(#m)" font-family="Bitstream Vera Sans" font-weight="400" overflow="visible" style="block-progression:tb;text-indent:0;text-transform:none"/>
 <path d="M20.21 21.432l1.769 2.357c.89-.157.721-.75.505-1.305l-2.273-1.052z" fill="url(#n)" overflow="visible"/>
 <path d="M16.97 22.872c-1.976.835-2.085 2.086-2.739 3.215-.418-.299.571-3.82 2.74-3.215z" fill="#fff" fill-opacity=".696" filter="url(#o)" overflow="visible"/>
 <path d="M13.558 23.874l1.768 2.358c.89-.158.721-.752.506-1.306l-2.274-1.052z" fill="url(#p)" overflow="visible"/>
 <path d="M12.126 29.347l1.769 2.358c.89-.157.72-.751.505-1.305l-2.274-1.053z" fill="url(#q)" overflow="visible"/>
 <path d="M15.832 32.716l1.768 2.358c.89-.157.721-.752.505-1.306l-2.273-1.052z" fill="url(#r)" overflow="visible"/>
 <path d="M20.884 27.747l1.769 2.358c.89-.157.72-.751.505-1.305l-2.274-1.053z" fill="url(#s)" overflow="visible"/>
 <path d="M20.968 36.758l1.769 2.358c.89-.157.721-.752.505-1.305l-2.274-1.053z" fill="url(#t)" overflow="visible"/>
 <path d="M36.72 19.916l-1.769 2.358c-.89-.157-.721-.752-.505-1.306l2.274-1.052z" fill="url(#u)" overflow="visible"/>
 <path d="M36.467 25.137l-1.768 2.358c-.89-.157-.722-.752-.506-1.306l2.274-1.052z" fill="url(#v)" overflow="visible"/>
 <path d="M38.572 28.168l-1.768 2.358c-.89-.157-.721-.751-.505-1.305l2.273-1.053z" fill="url(#w)" overflow="visible"/>
 <path d="M28.635 33.558l-1.768 2.358c-.89-.157-.721-.752-.505-1.305l2.273-1.053z" fill="url(#x)" overflow="visible"/>
 <path d="M28.214 24.126l-1.768 2.358c-.89-.157-.721-.751-.505-1.305l2.273-1.053z" fill="url(#y)" overflow="visible"/>
 <path d="M28.383 19.663l-1.769 2.358c-.89-.157-.72-.751-.505-1.305l2.274-1.053z" fill="url(#z)" overflow="visible"/>
 <path d="M30.428 26.205l-.388 2.922c-.853.298-.997-.303-1.08-.891l1.468-2.031z" fill="url(#A)" overflow="visible"/>
 <path d="M18.855 27.805l.388 2.922c.854.298.997-.303 1.08-.891l-1.468-2.031z" fill="url(#B)" overflow="visible"/>
 <path d="M20.9 9.057c.742-1.286.93-2.415 2.68-3.99-.904 0-2.525.834-2.68 3.99z" fill="#fff" fill-opacity=".781" filter="url(#C)" overflow="visible"/>
 <path d="M10.242 15.25c1.372-1.367 3.03-2.698 6.907-3.752 0 0-6.55.774-6.907 3.752z" fill="#fff" fill-opacity=".781" filter="url(#D)" overflow="visible"/>
 <path d="M33.584 19.954c-1.954.573-1.983 1.787-2.084 2.977 0 0-1.191-2.977 2.084-2.977z" fill="#fff" fill-opacity=".696" filter="url(#E)" overflow="visible"/>
</svg>
