<?xml version="1.0" encoding="UTF-8"?>
<svg width="48" height="48" xmlns="http://www.w3.org/2000/svg" xmlns:xlink="http://www.w3.org/1999/xlink">
 <defs>
  <linearGradient id="q" x1="27.483" x2="28.933" y1="9.268" y2="11.952" gradientTransform="translate(-4.048)" gradientUnits="userSpaceOnUse" xlink:href="#d"/>
  <linearGradient id="a">
   <stop stop-color="#642e00" offset="0"/>
   <stop stop-color="#664532" offset="1"/>
  </linearGradient>
  <linearGradient id="n" x1="30" x2="23" y1="9" y2="7" gradientTransform="matrix(.93246 -.09253 .11913 1.2005 -8.03 3.005)" gradientUnits="userSpaceOnUse" xlink:href="#a"/>
  <linearGradient id="o" x1="32.721" x2="29" y1="10.217" y2="8" gradientTransform="matrix(.91885 .18376 -.2366 1.183 -4.045 -5.246)" gradientUnits="userSpaceOnUse" xlink:href="#a"/>
  <linearGradient id="i" x1="32" x2="23" y1="42" y2="24" gradientTransform="matrix(.84988 0 0 .84988 -4.447 4.111)" gradientUnits="userSpaceOnUse" xlink:href="#a"/>
  <linearGradient id="s" x1="39" x2="28" y1="45" y2="35" gradientTransform="matrix(.84988 0 0 .84988 -4.447 4.111)" gradientUnits="userSpaceOnUse" xlink:href="#a"/>
  <linearGradient id="p" x1="21.3" x2="16" y1="42.077" y2="35" gradientTransform="matrix(.84988 0 0 .84988 -4.447 4.111)" gradientUnits="userSpaceOnUse" xlink:href="#a"/>
  <linearGradient id="j" x1="27.897" x2="38.923" y1="35.077" y2="49.41" gradientTransform="matrix(.84988 0 0 .84988 -4.626 4.111)" gradientUnits="userSpaceOnUse" xlink:href="#a"/>
  <linearGradient id="t" x1="24.224" x2="17" y1="32.815" y2="22" gradientTransform="matrix(.84988 0 0 .84988 -4.447 4.111)" gradientUnits="userSpaceOnUse" xlink:href="#a"/>
  <linearGradient id="B" x1="34.529" x2="30" y1="32.634" y2="27" gradientTransform="matrix(.84988 0 0 .84988 -4.447 4.111)" gradientUnits="userSpaceOnUse" xlink:href="#a"/>
  <linearGradient id="w" x1="23" x2="28" y1="16" y2="18.528" gradientTransform="translate(-4.048)" gradientUnits="userSpaceOnUse" xlink:href="#a"/>
  <linearGradient id="v" x1="16" x2="22" y1="14" y2="19" gradientTransform="translate(-4.048)" gradientUnits="userSpaceOnUse" xlink:href="#a"/>
  <linearGradient id="b">
   <stop stop-color="#7ed249" offset="0"/>
   <stop stop-color="#286325" offset="1"/>
  </linearGradient>
  <linearGradient id="x" x1="21.976" x2="25.986" y1="30.792" y2="35.585" gradientTransform="translate(-4.048)" gradientUnits="userSpaceOnUse" xlink:href="#b"/>
  <linearGradient id="l" x1="26.141" x2="26.935" y1="26.525" y2="28.697" gradientTransform="translate(-4.048)" gradientUnits="userSpaceOnUse" xlink:href="#d"/>
  <linearGradient id="d">
   <stop stop-color="#f9f9f9" stop-opacity=".985" offset="0"/>
   <stop stop-color="#d5d5d5" offset="1"/>
  </linearGradient>
  <linearGradient id="r" x1="19.963" x2="21.071" y1="9.293" y2="13.712" gradientTransform="translate(-4.048)" gradientUnits="userSpaceOnUse" xlink:href="#d"/>
  <linearGradient id="m" x1="30.913" x2="20" y1="24.137" y2="8" gradientTransform="matrix(.84988 0 0 .84988 -4.447 4.111)" gradientUnits="userSpaceOnUse" xlink:href="#a"/>
  <linearGradient id="k" x1="19.941" x2="21.246" y1="26.013" y2="28.517" gradientTransform="translate(-4.048)" gradientUnits="userSpaceOnUse" xlink:href="#d"/>
  <filter id="G" x="-.295" y="-.048" width="1.59" height="1.097">
   <feGaussianBlur stdDeviation=".119"/>
  </filter>
  <filter id="f" x="-.053" y="-.153" width="1.105" height="1.307">
   <feGaussianBlur stdDeviation=".594"/>
  </filter>
  <filter id="A" x="-.311" y="-.12" width="1.623" height="1.241">
   <feGaussianBlur stdDeviation=".224"/>
  </filter>
  <filter id="C" x="-.184" y="-.088" width="1.368" height="1.176">
   <feGaussianBlur stdDeviation=".189"/>
  </filter>
  <filter id="D" x="-.184" y="-.118" width="1.367" height="1.236">
   <feGaussianBlur stdDeviation=".169"/>
  </filter>
  <filter id="E" x="-.117" y="-.094" width="1.234" height="1.187">
   <feGaussianBlur stdDeviation=".115"/>
  </filter>
  <filter id="F" x="-.182" y="-.141" width="1.363" height="1.282">
   <feGaussianBlur stdDeviation=".13"/>
  </filter>
  <filter id="H" x="-.296" y="-.115" width="1.592" height="1.23">
   <feGaussianBlur stdDeviation=".119"/>
  </filter>
  <filter id="z" x="-.196" y="-.2" width="1.393" height="1.401">
   <feGaussianBlur stdDeviation=".37"/>
  </filter>
  <filter id="I" x="-.25" y="-.201" width="1.5" height="1.403">
   <feGaussianBlur stdDeviation=".137"/>
  </filter>
  <filter id="J" x="-.18" y="-.08" width="1.36" height="1.159">
   <feGaussianBlur stdDeviation=".183"/>
  </filter>
  <filter id="K" x="-.128" y="-.131" width="1.256" height="1.262">
   <feGaussianBlur stdDeviation=".183"/>
  </filter>
  <filter id="L" x="-.634" y="-.606" width="2.268" height="2.213">
   <feGaussianBlur stdDeviation="1.298"/>
  </filter>
  <filter id="h">
   <feGaussianBlur stdDeviation=".279"/>
  </filter>
  <radialGradient id="g" cx="22.573" cy="26.688" r="5.679" gradientTransform="matrix(1.6442 1.8829 -1.704 1.488 34.099 -60.56)" gradientUnits="userSpaceOnUse">
   <stop stop-color="#ff5959" offset="0"/>
   <stop stop-color="#d90000" offset="1"/>
  </radialGradient>
  <radialGradient id="y" cx="24.617" cy="27.906" r="1.048" gradientTransform="matrix(.3202 2.2427 -1.551 .22144 60.016 -33.737)" gradientUnits="userSpaceOnUse" xlink:href="#b"/>
  <radialGradient id="u" cx="22.951" cy="21.83" r="1.406" gradientTransform="matrix(2 0 0 2.5893 -27 -34.694)" gradientUnits="userSpaceOnUse">
   <stop stop-color="#d700d7" offset="0"/>
   <stop stop-color="#6e006e" offset="1"/>
  </radialGradient>
 </defs>
 <path d="M31.153 34.94c-2.95 0-5.343 1.654-5.343 3.688 0 .323.074.639.187.937-.77.003-1.48.079-2.125.22-.863-.569-2.34-.938-4.031-.938-2.001 0-3.704.533-4.438 1.28a10.756 10.756 0 00-1.125-.062c-2.668 0-4.812.943-4.812 2.094 0 1.151 2.144 2.063 4.812 2.063 2.002 0 3.736-.502 4.47-1.25.353.035.714.03 1.093.03.782 0 1.503-.076 2.156-.218.863.569 2.274 1.161 3.968 1.161 2.143 0 4.025-.827 4.657-1.66.18.012.347.03.531.03 2.95 0 5.344-1.654 5.344-3.687 0-2.034-2.393-3.688-5.344-3.688z" fill-opacity=".769" fill-rule="evenodd" filter="url(#f)"/>
 <path d="m29 15.023c5.128-0.198 9.612 6.632 9.878 13.543 0.267 6.91-1.075 12.572-8.803 12.87-9.4 0.362-9.502-5.245-9.768-12.155s3.565-14.06 8.693-14.258z" fill="url(#g)" fill-rule="evenodd"/>
 <path d="m29 14c-5 2-7 5-7 11 1-4 2-8 7-11z" fill="#fff" filter="url(#h)" overflow="visible"/>
 <path d="M14.577 23.615c-.963 4.363-4.06 6.75-3.726 11.092.85 3.4 5.847 7.779 9.349 7.649 4.097-.153 8.498-3.862 8.498-6.8 0-4.249-3.813-10.241-3.813-11.941 0-.85-10.154.154-10.308 0z" fill="url(#i)" overflow="visible"/>
 <path d="m20.02 25.358s-4.25 7.65-4.25 10.199c0 3.168-6.058 6.799 4.25 6.799 7.496 0 4.25-2.55 4.25-5.95 0-3.399-4.25-11.048-4.25-11.048z" fill="url(#j)" overflow="visible"/>
 <path d="M14.96 24.145s-.412 2.42 3.173 4.372c.598-.835 1.318-2.755 1.318-2.755l-4.492-1.617z" fill="url(#k)" overflow="visible"/>
 <path d="M25.126 24.325s.412 2.42-3.174 4.372c-.597-.835-1.318-2.755-1.318-2.755l4.492-1.617z" fill="url(#l)" overflow="visible"/>
 <path d="M16.371 14.792s-.857 1.327-2.12 4.617c-1.254 5.246 1.115 6.693 5.949 6.8 4.074.49 7.235-2.696 5.949-6.8-.85-1.7-2.55-4.25-2.55-4.25s-2.793-3.284-7.228-.367z" fill="url(#m)" overflow="visible"/>
 <path d="M16.451 3s3.569 3.452 3.835 6.136c.238 2.401 1.528 5.91-1.27 6.188-2.797.278-2.797.278-4.086-3.231-1.29-3.51-.253-7.386 1.521-9.093z" fill="url(#n)" overflow="visible"/>
 <path d="M24.885 3s-3.89 3.084-4.42 5.73c-.473 2.366-2.101 5.73.655 6.282 2.757.551 2.757.551 4.385-2.814 1.629-3.365.978-7.324-.62-9.198z" fill="url(#o)" overflow="visible"/>
 <path d="M12.55 36.407c-2.341.586-3.563 4.56-2.549 5.949 1.7.85 6.8 1.7 7.649 0 .38-.76-4.823-2.299-5.1-5.95z" fill="url(#p)" overflow="visible"/>
 <path d="M24.885 4.874c-.937 3.748-4.685 7.496-2.811 8.433 1.874 0 2.81-4.685 2.81-8.433z" fill="url(#q)" overflow="visible"/>
 <path d="M16.451 4.874c.12 3.862 2.986 8.32.955 8.838-1.831-.398-1.751-5.175-.955-8.838z" fill="url(#r)" overflow="visible"/>
 <path d="M27.848 36.407c2.342.586 3.564 4.56 2.55 5.949-1.7.85-6.799 1.7-7.649 0-.38-.76 4.823-2.299 5.1-5.95z" fill="url(#s)" overflow="visible"/>
 <path d="m14.25 24.508c-2.71-0.077-2.33 3.157-1.7 5.1 0.85 2.55 2.55 5.099 4.25 4.249s2.55-1.7 1.7-3.4c-1.37-2.74-4.156-2.47-4.25-5.949z" fill="url(#t)" overflow="visible"/>
 <path d="M18.903 21.103c1.039-.811 1.93-.442 2.811 0-.345.685-.626 1.402-1.275 1.934-1.132-.556-1.518-1.218-1.536-1.934z" fill="url(#u)" overflow="visible"/>
 <path d="m16.952 17s-1 1-1 2c0 1.414 3 1 3 1s0-2-2-3z" fill="url(#v)" overflow="visible"/>
 <path d="m22.952 17s1 1 1 2c0 1.414-3 1-3 1s0-2 2-3z" fill="url(#w)" overflow="visible"/>
 <path d="M18.208 18.85a.872.872 0 11-1.745 0 .872.872 0 111.745 0zM23.385 18.85a.872.872 0 11-1.745 0 .872.872 0 111.745 0z" fill-rule="evenodd"/>
 <path d="M19.208 28c.282 5.437-1.507 6.89-1.256 10 .942 1.372 2.08 2.174 3.959-.064.248-3.749-1.262-5.69-.959-9.936h-1.744z" fill="url(#x)" overflow="visible"/>
 <path transform="translate(-4.952 -.358)" d="M26 28.358a1.048 1.642 0 11-2.096 0 1.048 1.642 0 112.096 0z" fill="url(#y)" fill-rule="evenodd"/>
 <path d="M14.391 19.799c-.014-.364 1.253-3.995 2.034-4.43.471.701 1.567.309 2.486.226-2.982.62-3.468 2.562-4.52 4.204z" fill="#fff" fill-opacity=".612" filter="url(#z)" overflow="visible"/>
 <path d="M14.03 24.68c-2.531-.09-1.085 5.513-1.085 5.513s-.407-4.474 1.085-5.513z" fill="#fff" fill-opacity=".397" filter="url(#A)" overflow="visible"/>
 <path d="m25.299 25.358c2.71-0.078 2.33 3.157 1.7 5.1-0.85 2.55-2.55 5.099-4.25 4.249s-2.55-1.7-1.7-3.4c1.37-2.74 4.156-2.47 4.25-5.949z" fill="url(#B)" overflow="visible"/>
 <path d="M21.894 33.944c-1.755-1.49.107-3.388 1.536-5.152 0 0-4.293 3.345-1.536 5.152z" fill="#fff" fill-opacity=".464" filter="url(#C)" overflow="visible"/>
 <path d="M11.047 32.95c.13-1.5 1.08-3.552 1.356-3.435.04.856.675 1.354.859 2.08-1.113-1.343-1.797.264-2.215 1.355z" fill="#fff" fill-opacity=".241" filter="url(#D)" overflow="visible"/>
 <path d="M10.053 39.684c.035-.518.634-2.353 2.17-2.937l.18 1.175c-1.865-.122-1.612 1.136-2.35 1.762z" fill="#fff" fill-opacity=".246" filter="url(#E)" overflow="visible"/>
 <path d="M27.046 38.826c.355-.716 1.128-1.18.949-2.215l.768.497-1.717 1.718z" fill="#fff" fill-opacity=".219" filter="url(#F)" overflow="visible"/>
 <path d="M19.001 33.086c-.336 1.578-1.163 2.83-.858 4.836l.903 1.084c-1.235-.927-.395-3.633-.045-5.92z" fill="#fff" fill-opacity=".375" filter="url(#G)" overflow="visible"/>
 <path d="M19.996 26.487c-.79.684-.799 1.563-.633 2.486.002.01-1.079-1.637.633-2.486z" fill="#fff" fill-opacity=".545" filter="url(#H)" overflow="visible"/>
 <path d="M20.357 20.838c-.413.025-.785-.113-1.31.362.175 1.088.529.933.813 1.265-.444-.725-.264-1.263.497-1.627z" fill="#fff" fill-opacity=".509" filter="url(#I)" overflow="visible"/>
 <path d="M14.572 8.771c.14-1.362.176-3.379 1.898-5.514l.543.769c-1.988.642-1.991 3.297-2.44 4.745z" fill="#fff" fill-opacity=".406" filter="url(#J)" overflow="visible"/>
 <path d="M21.713 6.647c1-1.218 1.976-2.475 3.209-3.344l.226.587c-1.055.197-2.27 1.67-3.435 2.757z" fill="#fff" fill-opacity=".406" filter="url(#K)" overflow="visible"/>
 <path transform="rotate(43.125 22.995 29.564)" d="M37 25.749a1.435 3.251 0 11-2.87 0 1.435 3.251 0 112.87 0z" fill="#fff" fill-opacity=".594" fill-rule="evenodd" filter="url(#L)"/>
</svg>
