<?xml version="1.0" encoding="UTF-8"?>
<svg width="48" height="48" xmlns="http://www.w3.org/2000/svg" xmlns:xlink="http://www.w3.org/1999/xlink">
 <defs>
  <filter id="g" x="-.07" y="-.292" width="1.141" height="1.584">
   <feGaussianBlur stdDeviation=".851"/>
  </filter>
  <filter id="A" x="-.199" y="-.461" width="1.397" height="1.921">
   <feGaussianBlur stdDeviation=".564"/>
  </filter>
  <filter id="z" x="-.173" y="-.286" width="1.346" height="1.572">
   <feGaussianBlur stdDeviation=".564"/>
  </filter>
  <filter id="y" x="-.553" y="-.097" width="2.106" height="1.194">
   <feGaussianBlur stdDeviation=".346"/>
  </filter>
  <filter id="x" x="-.11" y="-.126" width="1.219" height="1.253">
   <feGaussianBlur stdDeviation=".346"/>
  </filter>
  <filter id="n" x="-.175" y="-.158" width="1.35" height="1.316">
   <feGaussianBlur stdDeviation=".382"/>
  </filter>
  <filter id="t" x="-.18" y="-.115" width="1.36" height="1.229">
   <feGaussianBlur stdDeviation=".382"/>
  </filter>
  <filter id="u" x="-.13" y="-.229" width="1.26" height="1.459">
   <feGaussianBlur stdDeviation=".382"/>
  </filter>
  <filter id="w" x="-.14" y="-.27" width="1.28" height="1.541">
   <feGaussianBlur stdDeviation=".382"/>
  </filter>
  <filter id="v" x="-.193" y="-.137" width="1.386" height="1.274">
   <feGaussianBlur stdDeviation=".382"/>
  </filter>
  <linearGradient id="h" x1="25" x2="37" y1="16" y2="19.469" gradientTransform="translate(0 -2)" gradientUnits="userSpaceOnUse" xlink:href="#d"/>
  <linearGradient id="f">
   <stop stop-color="#ffd73b" offset="0"/>
   <stop stop-color="#ee8400" offset="1"/>
  </linearGradient>
  <linearGradient id="a">
   <stop stop-color="#ff5959" offset="0"/>
   <stop stop-color="#d90000" offset="1"/>
  </linearGradient>
  <linearGradient id="d">
   <stop stop-color="#520" offset="0"/>
   <stop stop-color="#b6632c" offset="1"/>
  </linearGradient>
  <linearGradient id="o" x1="27.666" x2="18" y1="40.841" y2="16" gradientTransform="translate(0 -2)" gradientUnits="userSpaceOnUse" xlink:href="#d"/>
  <linearGradient id="i" x1="9" x2="45" y1="30" y2="35" gradientTransform="translate(0 -2)" gradientUnits="userSpaceOnUse" xlink:href="#d"/>
  <radialGradient id="s" cx="25.177" cy="29.411" r="6.185" gradientTransform="matrix(.57762 1.1572 -1.4465 .72203 61.46 -22.048)" gradientUnits="userSpaceOnUse" xlink:href="#a"/>
  <radialGradient id="q" cx="13.489" cy="8.568" r="7.5" gradientTransform="matrix(3.7 .61045 .10237 -.62048 -19.785 4.082)" gradientUnits="userSpaceOnUse" xlink:href="#f"/>
  <radialGradient id="p" cx="14.319" cy="10.317" r="7.5" gradientTransform="matrix(1.8241 1.0595 -.4018 .69178 -7.655 -13.254)" gradientUnits="userSpaceOnUse" xlink:href="#f"/>
  <radialGradient id="k" cx="23" cy="25.621" r="5.679" gradientTransform="matrix(.99373 -.90053 .81498 .89932 -21.592 23.012)" gradientUnits="userSpaceOnUse">
   <stop stop-color="#d700d7" offset="0"/>
   <stop stop-color="#6e006e" offset="1"/>
  </radialGradient>
  <radialGradient id="j" cx="12" cy="28.308" r="5.386" gradientTransform="matrix(1 0 0 1.2506 0 -9.401)" gradientUnits="userSpaceOnUse">
   <stop stop-color="#d1f6f6" offset="0"/>
   <stop stop-color="#2adbdb" offset="1"/>
  </radialGradient>
  <radialGradient id="l" cx="25" cy="27.326" r="6.185" gradientTransform="matrix(-.79157 -1.0228 1.2785 -.98947 14.407 84.862)" gradientUnits="userSpaceOnUse">
   <stop stop-color="#7ed249" offset="0"/>
   <stop stop-color="#286325" offset="1"/>
  </radialGradient>
  <radialGradient id="m" cx="17" cy="32.427" r="6.178" gradientTransform="matrix(1 0 0 1.2949 2.406 -10.895)" gradientUnits="userSpaceOnUse" xlink:href="#a"/>
  <radialGradient id="r" cx="26" cy="11.667" r="4" gradientTransform="matrix(1 0 0 .75 0 3.25)" gradientUnits="userSpaceOnUse" xlink:href="#f"/>
 </defs>
 <path transform="matrix(.85142 0 0 .89956 5.236 3.136)" d="M38 41.5a14.5 3.5 0 11-29 0 14.5 3.5 0 1129 0z" fill-opacity=".769" fill-rule="evenodd" filter="url(#g)"/>
 <path d="M29.625 9.938C35.471 14.456 35.295 19.867 37 25h-4c-.295-5.437-2.053-10.56-7-15l3.625-.063z" fill="url(#h)" overflow="visible"/>
 <path d="M43 29c0 3.268-4.941 7.124-17.542 7.261-11.685.127-17.91-4.173-17.91-7.44 0-3.268 10.188-4.372 17.91-4.393C32.168 24.41 43 25.732 43 29z" fill="url(#i)" fill-rule="evenodd"/>
 <path d="M17 21c2.493.955 3.239 5.139 1.951 8.498-1.287 3.358-3.087 5.791-6.844 4.352-4.569-1.752-3.47-4.453-2.182-7.812C11.212 22.68 14.507 20.045 17 21z" fill="url(#j)" fill-rule="evenodd"/>
 <path d="M19 25c-.157-2.749 3.463-5.221 7.167-5.433 3.704-.21 6.754.453 6.99 4.596.287 5.038-2.719 5.148-6.423 5.359-3.704.21-7.577-1.773-7.734-4.522z" fill="url(#k)" fill-rule="evenodd"/>
 <path d="M33 22c2.723 1.343 3.13 6.158 1.32 9.827-1.808 3.67-4.102 6.236-8.205 4.213-4.99-2.461-3.463-5.405-1.654-9.074C26.27 23.296 30.277 20.657 33 22z" fill="url(#l)" fill-rule="evenodd"/>
 <path d="M20 24a3.544 3.544 0 00-.594.094c-3.174.787-4.623 5.754-3.562 10.031.124.502.218.995.344 1.469 2.833 1.057 6.604 1.759 11.28 1.75.643-1.665.413-3.801-.155-6.094-.995-4.01-4.29-7.479-7.313-7.25z" fill="url(#m)" fill-rule="evenodd"/>
 <path d="M10 27c1.397-2.503 3.774-4.697 5.25-5.813C11.5 22.375 10.562 25.375 10 27z" fill="#fff" filter="url(#n)" overflow="visible"/>
 <path d="M29.063 9.781C27.066 9.444 26 10 24 10c-11.906 3.969-11.247 14.54-12.156 23.656-2.82-1.444-4.281-3.264-4.281-4.843 0 5.508 6.22 14.314 17.906 14.187 12.6-.137 17.715-8.94 17.531-14 0 3.268-4.93 7.113-17.531 7.25-4.212.046-7.712-.495-10.469-1.344C15.581 24.35 16.165 13.28 30 10c-.259-.135-.576-.193-.938-.219z" fill="url(#o)" fill-rule="evenodd"/>
 <path d="M23.688 7.905C19 10 14.121 4.206 10 6c-1.772 3.743-.698 7.786 2 12 5.872 2.837 6-5 13-6l-1.312-4.095z" fill="url(#p)" overflow="visible"/>
 <path d="M27 8c6-2 6.03-4.646 9.663-4.965 4.082 2.955 1.563 6.664 1.63 9.423C35 14 33 10 27.088 11.38L27 8z" fill="url(#q)" overflow="visible"/>
 <path transform="translate(-1 -3)" d="M31 13a4 3 0 11-8 0 4 3 0 118 0z" fill="url(#r)" fill-rule="evenodd"/>
 <path d="M36.75 22.281c-1.91.213-3.57 1.783-5.125 3.813-2.45 3.198-3.006 7.907-.719 9.812 4.124-.487 7.08-1.465 9.032-2.656.012-.008.018-.023.03-.031.124-.144.26-.287.376-.438 2.488-3.247 4.542-5.834.125-9.218-1.362-1.044-2.573-1.41-3.719-1.282z" fill="url(#s)" fill-rule="evenodd"/>
 <path d="M21 24c-3.48.48-5.583 4.083-5 8 .669-3.38 2.008-6.28 5-8z" fill="#fff" filter="url(#t)" overflow="visible"/>
 <path d="M19.938 23.875C21.96 22.087 24.31 20.788 27 20c-.752-.563-6.19.75-7.063 3.875z" fill="#fff" filter="url(#u)" overflow="visible"/>
 <path d="M25.25 26.5l1.375 2.188c-.8-3.192 2.106-4.53 3.375-6.688-1.851 1-3.444 2.028-4.75 4.5z" fill="#fff" filter="url(#v)" overflow="visible"/>
 <path d="M32.438 26.063C34.422 24.718 36.222 23.078 39 23c-2.313-.896-5 0-6.563 3.063z" fill="#fff" filter="url(#w)" overflow="visible"/>
 <path d="M8.188 31.25c3.43 3.496 5.184 3.16 7.562 4.25-2.709-.07-2.48 2.26-1.75 3.5-2.129-1.54-4.153-3.392-5.813-7.75z" fill="#fff" fill-opacity=".326" filter="url(#x)" overflow="visible"/>
 <path d="M12.125 33.75l.813-8.063c.229 2.855-.763 6.058.687 8.563l-1.5-.5z" fill="#fff" fill-opacity=".326" filter="url(#y)" overflow="visible"/>
 <path d="M9.563 10.75c.085-1.603.21-3.186.624-4.625 2.847-.451 4.985.69 7.188 1.687-4.104-.646-6.528.288-7.813 2.938z" fill="#fff" fill-opacity=".786" filter="url(#z)" overflow="visible"/>
 <path d="M31.688 6.25c1.496-1.05 2.418-2.485 4.812-2.938 1.083.917 1.75 1.834 2 2.75-2.392-1.876-4.577-.436-6.813.188z" fill="#fff" fill-opacity=".786" filter="url(#A)" overflow="visible"/>
</svg>
