<?xml version="1.0" encoding="UTF-8"?>
<svg width="48" height="48" xmlns="http://www.w3.org/2000/svg" xmlns:xlink="http://www.w3.org/1999/xlink">
 <defs>
  <linearGradient id="f" x1="29" x2="-5" y1="35" y2="63" gradientUnits="userSpaceOnUse">
   <stop stop-color="#ffd73b" offset="0"/>
   <stop stop-color="#ee8400" offset="1"/>
  </linearGradient>
  <linearGradient id="a">
   <stop stop-color="#ffd73b" offset="0"/>
   <stop stop-color="#ee8400" offset="1"/>
  </linearGradient>
  <linearGradient id="j" x1="20" x2="25.337" y1="25" y2="25.13" gradientTransform="matrix(.96429 0 0 .96429 .893 .536)" gradientUnits="userSpaceOnUse" xlink:href="#a"/>
  <linearGradient id="h" x1="12" x2="17.337" y1="25.126" y2="25.126" gradientTransform="matrix(.96429 0 0 .96429 .893 .536)" gradientUnits="userSpaceOnUse" xlink:href="#a"/>
  <linearGradient id="i" x1="8.25" x2="15" y1="24.047" y2="25" gradientTransform="matrix(.96429 0 0 .96429 .893 .536)" gradientUnits="userSpaceOnUse" xlink:href="#a"/>
  <linearGradient id="e" x1="43" x2="32" y1="28" y2="19" gradientTransform="matrix(.96429 0 0 .96429 .893 .536)" gradientUnits="userSpaceOnUse" xlink:href="#a"/>
  <linearGradient id="g" x1="31.832" x2="2" y1="33.347" y2="17" gradientTransform="matrix(.96429 0 0 .96429 .893 .536)" gradientUnits="userSpaceOnUse" xlink:href="#a"/>
  <linearGradient id="b">
   <stop stop-color="#f9f9f9" stop-opacity=".985" offset="0"/>
   <stop stop-color="#d5d5d5" offset="1"/>
  </linearGradient>
  <linearGradient id="n" x1="28" x2="28" y1="5" y2="9" gradientUnits="userSpaceOnUse" xlink:href="#b"/>
  <linearGradient id="k" x1="25" x2="33" y1="25" y2="25.084" gradientTransform="matrix(.96429 0 0 .96429 .893 .536)" gradientUnits="userSpaceOnUse" xlink:href="#a"/>
  <linearGradient id="m" x1="14" x2="12" y1="9" y2="5" gradientTransform="rotate(-8.239 18.885 5.433)" gradientUnits="userSpaceOnUse" xlink:href="#b"/>
  <filter id="o" x="-.355" y="-.295" width="1.711" height="1.59">
   <feGaussianBlur stdDeviation=".492"/>
  </filter>
  <filter id="q" x="-.584" y="-.13" width="2.167" height="1.259">
   <feGaussianBlur stdDeviation=".492"/>
  </filter>
  <filter id="r" x="-.438" y="-.162" width="1.876" height="1.324">
   <feGaussianBlur stdDeviation=".492"/>
  </filter>
  <filter id="s" x="-.519" y="-.195" width="2.038" height="1.389">
   <feGaussianBlur stdDeviation=".492"/>
  </filter>
  <filter id="p" x="-.222" y="-.464" width="1.445" height="1.927">
   <feGaussianBlur stdDeviation=".492"/>
  </filter>
  <filter id="t">
   <feGaussianBlur stdDeviation=".3"/>
  </filter>
  <filter id="u" x="-.046" y="-.11" width="1.091" height="1.22">
   <feGaussianBlur stdDeviation=".179"/>
  </filter>
  <filter id="d" x="-.067" y="-.388" width="1.133" height="1.776">
   <feGaussianBlur stdDeviation=".97"/>
  </filter>
  <radialGradient id="l" cx="14.737" cy="4.205" r="15.925" gradientTransform="matrix(2.652 .56778 -.2049 .95711 -23.484 -5.15)" gradientUnits="userSpaceOnUse" xlink:href="#b"/>
 </defs>
 <path transform="matrix(.85113 0 0 1 2.597 .253)" d="M40 40a17.5 3 0 11-35 0 17.5 3 0 1135 0z" fill-opacity=".769" fill-rule="evenodd" filter="url(#d)"/>
 <path d="M32.714 17.893c4.743-4.293 9.797-2.853 8.679 3.857-.964 5.786-9.643 9.643-9.643 9.643v-3.857s5.319-1.99 5.786-3.857c.964-3.858-2.893-3.858-4.822-1.929v-3.857z" fill="url(#e)" overflow="visible"/>
 <path d="M9.582 35.697c-2.903-.447-2.903 3.41-.975 5.339 3.857 1.928 24.612 2.628 26.036 0 1.3-2.398 1.928-3.857 0-5.786-2.156-2.156-23.123.893-25.061.447z" fill="url(#f)" overflow="visible"/>
 <path d="M8.607 10.179c8.794 2.545 17.458 2.214 26.036 0-2.126 9.74-1.987 16.826 0 27-9.204 3.543-17.69 2.24-26.036 0 .604-8.878 1.48-14.372 0-27z" fill="url(#g)" overflow="visible"/>
 <path d="M12.464 15c1.973-1.22 3.496-.938 4.822 0 .558 6.568.288 12.93 0 19.286-1.607 1.22-3.215 1.585-4.822 0 .458-4.95 1.536-10.98 0-19.286z" fill="url(#h)" fill-opacity=".893"/>
 <path d="M8.969 13.644c.8 8.677.36 13.92-.12 20.16.24-.141.481-.3.722-.483.538-6.198.953-12.448 0-19.285-.197-.14-.396-.284-.602-.392z" fill="url(#i)" fill-opacity=".893"/>
 <path d="M20.179 15c.964-.964 2.892-.964 4.821 0 .5 6.678.362 14.003 0 20.25-1.607 1.27-3.214 1.327-4.821 0-.272-6.157-.375-13.447 0-20.25z" fill="url(#j)" fill-opacity=".893"/>
 <path d="M27.893 15c1.434-.575 2.764-1.499 4.821 0-1.38 6.889-.468 13.013 0 19.286-1.524.992-3.083 1.577-4.821 0-.638-6.429-1.07-12.857 0-19.286z" fill="url(#k)" fill-opacity=".893"/>
 <path d="M9.744 19.618c-.173.203-3.065.203-3.065-1.725 0-1.929-.965-.964-.965-4.822C3.78 8.671 8.738 2.085 13.43 2.464 18.736 3.781 22 0 28.857 4.393c3.857.964 5.786 0 6.75 2.893.964 2.893 2.893 8.678 0 5.785C32.714 10.18 32 11 32 12c0 3.857-2.27 3.771-4.635 2.421-2.365-1.35-6.222-4.242-7.186-.385-.965 3.857-3.858 4.821-3.858 1.928S11.5 9.214 11.5 13.071c0 3.858-2.71 4.091-1.756 6.547z" fill="url(#l)" overflow="visible"/>
 <path d="m8.635 9.426s-0.298-0.882 1.538-2.158c1.836-1.277 3.256 1.549 4.102 0.416s1.406-4.245 3.672-2.553l2.266 1.693s-6.416 5.64-11.578 2.602z" fill="url(#m)" overflow="visible"/>
 <path d="M23.242 5.979C25.117 3.93 25.667 5.363 26 6c0 0 2-2 3-1s1 2 1 2-3.853 2.295-6.758-1.021z" fill="url(#n)" overflow="visible"/>
 <path d="M9 41c-1.563-2.016-1.435-3.093-1-4 .569.474 1.807.724 3.032.979-1.28.404-3.099.27-2.032 3.021z" fill="#fff" fill-opacity=".705" filter="url(#o)" overflow="visible"/>
 <path d="M35.368 16.421c2.443-.098 4.096.956 5.306 1.937 0 0-.927-4.042-5.306-1.937z" fill="#fff" fill-opacity=".705" filter="url(#p)" overflow="visible"/>
 <path d="M12.8 15.41c.603 3.207.663 5.598.842 8.169.34-3.093-.561-7.603 1.18-9.095-.675.097-1.348.174-2.022.927z" fill="#fff" fill-opacity=".705" filter="url(#q)" overflow="visible"/>
 <path d="M20.21 21.895l.169-6.569c.842-1.1 1.684-.586 2.526-.673-2.614 2.07-2.13 4.76-2.694 7.242z" fill="#fff" fill-opacity=".705" filter="url(#r)" overflow="visible"/>
 <path d="M27.537 21.221l-.084-5.305c.948-1.204 1.525-.552 2.273-.758-1.672 1.078-1.802 3.7-2.19 6.063z" fill="#fff" fill-opacity=".705" filter="url(#s)" overflow="visible"/>
 <path d="M6.063 11.453c-.004-.324 2.477-7.646 8.421-7.832 4.21.038 8.841-.415 11.79 1.095-1.136-2.763-7.726-2.136-11.621-1.432-2.412-1.673-8.929 1.786-8.59 8.169z" fill="#fff" filter="url(#t)" overflow="visible"/>
 <path d="M9.095 9.01c1.208-2.059 3.122-1.648 5.22-.589 1.677-4.197 2.979-3.71 4.211-2.358-2.024-1.146-3.047.959-4.21 2.61-1.863-.437-3.79-1.165-5.221.338z" fill="#fff" filter="url(#u)" overflow="visible"/>
</svg>
