<?xml version="1.0" encoding="UTF-8"?>
<svg width="48" height="48" xmlns="http://www.w3.org/2000/svg" xmlns:xlink="http://www.w3.org/1999/xlink">
 <defs>
  <linearGradient id="k" x1="12.008" x2="15.505" y1="21.551" y2="23.067" gradientUnits="userSpaceOnUse">
   <stop stop-color="#ffea00" offset="0"/>
   <stop stop-color="#ffffa4" offset="1"/>
  </linearGradient>
  <linearGradient id="a">
   <stop stop-color="#003e8c" offset="0"/>
   <stop stop-color="#0062db" offset="1"/>
  </linearGradient>
  <linearGradient id="f" x1="18" x2="30.358" y1="31.463" y2="31.211" gradientTransform="matrix(1.1882 0 0 1.1882 -2.024 -6.447)" gradientUnits="userSpaceOnUse" xlink:href="#a"/>
  <linearGradient id="j" x1="17.223" x2="21.101" y1="13.011" y2="17.654" gradientTransform="matrix(1.1882 0 0 1.1882 -2.024 -6.447)" gradientUnits="userSpaceOnUse" xlink:href="#a"/>
  <linearGradient id="h" x1="26.695" x2="28.884" y1="12.463" y2="15.392" gradientTransform="matrix(1.1882 0 0 1.1882 -2.024 -6.447)" gradientUnits="userSpaceOnUse" xlink:href="#a"/>
  <linearGradient id="i" x1="12.463" x2="15.442" y1="11.032" y2="15" gradientTransform="matrix(1.1882 0 0 1.1882 -2.024 -6.447)" gradientUnits="userSpaceOnUse" xlink:href="#a"/>
  <linearGradient id="e" x1="26.526" x2="22.353" y1="16.168" y2="4.042" gradientTransform="matrix(1.1882 0 0 1.1882 -2.024 -6.447)" gradientUnits="userSpaceOnUse" xlink:href="#a"/>
  <linearGradient id="c">
   <stop stop-color="#555" offset="0"/>
   <stop offset="1"/>
  </linearGradient>
  <linearGradient id="g" x1="13.877" x2="21" y1="23.165" y2="27.5" gradientTransform="matrix(1.1882 0 0 1.1882 -2.024 -6.447)" gradientUnits="userSpaceOnUse" xlink:href="#a"/>
  <linearGradient id="l" x1="12.386" x2="15.68" y1="22.604" y2="23.656" gradientUnits="userSpaceOnUse" xlink:href="#c"/>
  <linearGradient id="m" x1="12.386" x2="15.303" y1="22.604" y2="22.604" gradientUnits="userSpaceOnUse" xlink:href="#c"/>
  <linearGradient id="n" x1="17.997" x2="20.267" y1="32.875" y2="34.322" gradientTransform="matrix(1.1882 0 0 1.1882 -5.589 -6.447)" gradientUnits="userSpaceOnUse" xlink:href="#c"/>
  <filter id="o" x="-.23" y="-.123" width="1.46" height="1.247">
   <feGaussianBlur stdDeviation=".234"/>
  </filter>
  <filter id="p" x="-.273" y="-.23" width="1.547" height="1.46">
   <feGaussianBlur stdDeviation=".234"/>
  </filter>
  <filter id="q" x="-.159" y="-.041" width="1.318" height="1.082">
   <feGaussianBlur stdDeviation=".234"/>
  </filter>
  <filter id="r" x="-.154" y="-.135" width="1.308" height="1.269">
   <feGaussianBlur stdDeviation=".257"/>
  </filter>
  <filter id="d" x="-.184" y="-.998" width="1.367" height="2.996">
   <feGaussianBlur stdDeviation="1.996"/>
  </filter>
 </defs>
 <path transform="matrix(.43107 0 0 .50877 6.836 21.264)" d="M40.758 40.716a13.053 2.4 0 11-26.105 0 13.053 2.4 0 1126.105 0z" fill-opacity=".768" fill-rule="evenodd" filter="url(#d)"/>
 <path d="M11.129 5.383C22.857 1.937 28.642 4.05 36 4.247l.95 3.267c-9.506-1.188-19.962-.831-25.072 1.781l-.75-3.912z" fill="url(#e)" overflow="visible"/>
 <path d="M20.553 16.13c1.23 5.93 3.687 11.554 3.564 17.823.244 1.28-1.26 1.686-2.022 2.462l-2.73-19.097 1.188-1.188z" fill="url(#f)" overflow="visible"/>
 <path d="M16.988 10.188c-1.3 8.976-3.115 17.334-3.565 27.33 1.328 2.098 2.86 3.786 4.753 4.753 2.377-1.32 3.457-2.424 4.753-3.565-.368-9.25-1.485-18.253-2.376-27.33l-3.565-1.188z" fill="url(#g)" overflow="visible"/>
 <path d="m21.74 11.377c7.13 1.188 10.695 0 14.26-2.377 2.377-1.188 2.647-1.952 0-4.753-5.545 4.357-7.13 3.565-13.07 3.565l-1.19 3.565z" fill="url(#h)" overflow="visible"/>
 <path d="M16.012 5.93c-1.274.41-4.965-.495-4.965-.495-.492.834-.645 2.46.06 3.86 0 0 2.112 1.628 4.834 1.445 1.186-.08.058-4.584.07-4.81z" fill="url(#i)" overflow="visible"/>
 <path d="M14.611 5.435c.107 1.98.166 3.961 1.189 5.942 3.433 2.575 4.947 1.305 5.94 1.188 1.39-1.782 2.12-3.783 2.377-5.942-3.12-.924-6.205-2.243-9.506-1.188z" fill="url(#j)" overflow="visible"/>
 <path transform="matrix(2.188 .57489 -.6513 2.3475 2.527 -29.048)" d="M15.303 22.604a1.459 1.459 0 11-2.917 0 1.459 1.459 0 112.917 0z" fill="url(#k)" fill-rule="evenodd"/>
 <path transform="matrix(.47598 .12506 -.14169 .51068 13.164 17.707)" d="M15.303 22.604a1.459 1.459 0 11-2.917 0 1.459 1.459 0 112.917 0z" fill="url(#l)" fill-rule="evenodd"/>
 <path transform="matrix(.47598 .12506 -.14169 .51068 15.711 17.848)" d="M15.303 22.604a1.459 1.459 0 11-2.917 0 1.459 1.459 0 112.917 0z" fill="url(#m)" fill-rule="evenodd"/>
 <path d="M16.096 32.684l-.3.127c.415 1.01 1.115 1.59 1.942 1.519.826-.071 1.543-.658 1.782-1.523l-.194-.19c-.105.38-1.034.998-1.7.985-.66-.014-1.27-.284-1.53-.918z" fill="url(#n)" font-family="Bitstream Vera Sans" font-weight="400" overflow="visible" style="block-progression:tb;text-indent:0;text-transform:none"/>
 <path d="M17.305 5.39c-.781-.013-1.552-.06-2.442.252.05 1.593.246 3.039.632 4.295-.161-2.099-.33-4.202 1.81-4.548z" fill="#fff" fill-opacity=".402" filter="url(#o)" overflow="visible"/>
 <path d="M12.8 5.979l-1.768-.295c-.434 1.116-.279 1.761-.169 2.442.331-.904.043-2.18 1.937-2.147z" fill="#fff" fill-opacity=".402" filter="url(#p)" overflow="visible"/>
 <path d="M14.905 26.021c-.073-1.179 1.986-13.927 2.021-13.642l1.516.758c-2.094 1.731-2.44 8.362-3.537 12.884z" fill="#fff" fill-opacity=".402" filter="url(#q)" overflow="visible"/>
 <path d="M15.158 33.305c.186-2.054.802-3.893 3.874-4.505-.926-.252-4.733-.098-3.874 4.505z" fill="#fff" fill-opacity=".893" filter="url(#r)" overflow="visible"/>
</svg>
