<?xml version="1.0" encoding="UTF-8"?>
<svg width="48" height="48" xmlns="http://www.w3.org/2000/svg" xmlns:xlink="http://www.w3.org/1999/xlink">
 <defs>
  <linearGradient id="l" x1="35.164" x2="29.892" y1="21.398" y2="18.823" gradientTransform="rotate(13.042 34.51 30.072)" gradientUnits="userSpaceOnUse" xlink:href="#b"/>
  <linearGradient id="b">
   <stop stop-color="#ffd73b" offset="0"/>
   <stop stop-color="#ee8400" offset="1"/>
  </linearGradient>
  <linearGradient id="n" x1="15.312" x2="11.312" y1="13.171" y2="9.308" gradientTransform="translate(1.012 -1.495)" gradientUnits="userSpaceOnUse" xlink:href="#b"/>
  <linearGradient id="d" x1="18.862" x2="17.823" y1="38.995" y2="45.839" gradientTransform="matrix(1.0938 0 0 1 -5.094 -2.055)" gradientUnits="userSpaceOnUse" xlink:href="#b"/>
  <linearGradient id="f" x1="25" x2="20" y1="37" y2="37" gradientTransform="translate(0 -.721)" gradientUnits="userSpaceOnUse" xlink:href="#b"/>
  <linearGradient id="j" x1="23.228" x2="18.232" y1="34.263" y2="22.566" gradientTransform="translate(0 -.721)" gradientUnits="userSpaceOnUse" xlink:href="#b"/>
  <linearGradient id="i" x1="13.219" x2="26.514" y1="18.491" y2="36.431" gradientTransform="translate(0 -.721)" gradientUnits="userSpaceOnUse" xlink:href="#b"/>
  <filter id="r" x="-.401" y="-.132" width="1.802" height="1.264">
   <feGaussianBlur stdDeviation=".458"/>
  </filter>
  <filter id="c" x="-.048" y="-.213" width="1.096" height="1.426">
   <feGaussianBlur stdDeviation=".591"/>
  </filter>
  <filter id="s" x="-.083" y="-.108" width="1.167" height="1.217">
   <feGaussianBlur stdDeviation=".17"/>
  </filter>
  <filter id="m" x="-.097" y="-.139" width="1.194" height="1.278">
   <feGaussianBlur stdDeviation=".238"/>
  </filter>
  <filter id="k" x="-.086" y="-.133" width="1.173" height="1.267">
   <feGaussianBlur stdDeviation=".238"/>
  </filter>
  <filter id="q" x="-.284" y="-.416" width="1.569" height="1.832">
   <feGaussianBlur stdDeviation=".247"/>
  </filter>
  <filter id="o" x="-.148" y="-.196" width="1.296" height="1.393">
   <feGaussianBlur stdDeviation=".326"/>
  </filter>
  <filter id="p" x="-.338" y="-.525" width="1.676" height="2.049">
   <feGaussianBlur stdDeviation=".247"/>
  </filter>
  <radialGradient id="g" cx="18.989" cy="12.996" r="12.5" gradientTransform="matrix(1.5876 -.19846 .08 .64 -12.188 7.73)" gradientUnits="userSpaceOnUse" xlink:href="#b"/>
  <radialGradient id="e" cx="21.574" cy="38.74" r="8" gradientTransform="matrix(1.4315 .07552 -.02835 .53739 -8.21 18.243)" gradientUnits="userSpaceOnUse">
   <stop stop-color="#ffd73b" offset="0"/>
   <stop stop-color="#ee8400" offset="1"/>
  </radialGradient>
  <radialGradient id="h" cx="24.974" cy="8.356" r="6.5" gradientTransform="matrix(1.194 -.07841 .07287 .77058 -5.453 5.195)" gradientUnits="userSpaceOnUse" xlink:href="#b"/>
 </defs>
 <path transform="matrix(.62108 0 0 .9243 7.959 2.18)" d="M37.895 40.463a14.779 3.326 0 11-29.558 0 14.779 3.326 0 1129.558 0z" fill-opacity=".769" fill-rule="evenodd" filter="url(#c)"/>
 <path d="M31 39.612c0 1.473-3.918 2.667-8.75 2.667s-8.75-1.194-8.75-2.667c0-.4.855-1.53 1.374-1.87 1.389-.913 3.857-.797 7.376-.797 4.059 0 7.304.169 8.293 1.311.188.218.457 1.12.457 1.356z" fill="url(#d)" fill-rule="evenodd"/>
 <path transform="translate(-2.5 -3.055)" d="M33 41.667a8 2.667 0 11-16 0 8 2.667 0 1116 0z" fill="url(#e)" fill-rule="evenodd"/>
 <path d="M20 32.279c.494 2 .834 4 0 6 1.73 1.264 3.382.973 5 0-.985-2-.687-4 0-6h-5z" fill="url(#f)" overflow="visible"/>
 <path d="m10 13.279c0 27 24 29 25 0-2-5-23-5-25 0z" fill="url(#g)" overflow="visible"/>
 <path d="m10 13.279c0 27 24 29 25 0-4 5-21 3-25 0z" fill="none" overflow="visible"/>
 <path transform="matrix(.88462 0 0 1.2 -.942 -3.321)" d="M33 10.5a6.5 2.5 0 11-13 0 6.5 2.5 0 1113 0z" fill="url(#h)" fill-rule="evenodd"/>
 <path d="M15.06 27.445l.2-2.254 1.432.322v-4.867l-1.909.437.358-2.524 2.276-.79 2.706.928-.063 7.939 1.464.702.071 2.298" fill="url(#i)" font-family="DejaVu Serif" font-size="11.784" font-weight="700"/>
 <path d="M15.617 26.84v-.696l1.61.56v-6.95l-1.789.436v-.857l2.158-.55 1.812.629v8.049l1.617.562v.696l-5.408-1.879" fill="url(#j)" fill-opacity=".705" font-family="DejaVu Serif" font-size="11.784" font-weight="700"/>
 <path d="M32.87 11.313c.876 3.473-3.326 3.077-5.42 4.287.163.048 9.953-.38 5.42-4.287z" fill="#fff" fill-opacity=".607" filter="url(#k)" overflow="visible"/>
 <path d="M32.356 14.42c7.6 5.232 2.255 9.77-1.63 12.58.107.615.129 1.303 1.164.514 4.964-1.723 12.19-8.289 2.765-13.692-.07-1.163-3.089-.598-2.299.598z" fill="url(#l)" overflow="visible"/>
 <path d="M16.613 10.122c-2.982 1.104-5.846 2.228-4.168 4.109-.102.102-5.83-1.614 4.168-4.109z" fill="#fff" fill-opacity=".607" filter="url(#m)" overflow="visible"/>
 <path d="M13.636 11.492l-1.25-.358c-.055-1.611.74-1.891 2.381-1.667l1.25.536c.534.576.465 2.318-2.381 1.489z" fill="url(#n)" overflow="visible"/>
 <path d="M22.39 6.49c-3.106.415-4.793 1.596-5.062 3.99 0 0-1.906-3.573 5.061-3.99z" fill="#fff" filter="url(#o)" overflow="visible"/>
 <path d="M34.298 13.457c-1.34.16-1.58.597-1.667 1.071 0 0-.655-1.429 1.667-1.071z" fill="#fff" fill-opacity=".853" filter="url(#p)" overflow="visible"/>
 <path d="M12.921 11.015c.227-.656.248-1.449 1.846-1.19-.07-.304-2.906-.62-1.846 1.19z" fill="#fff" fill-opacity=".853" filter="url(#q)" overflow="visible"/>
 <path d="M11.373 22.27a49.945 49.945 0 01-1.072-8.337c.738.867 1.685 1.314 2.74 1.548-1.347 1.824-1.747 4.173-1.668 6.788z" fill="#fff" fill-opacity=".679" filter="url(#r)" overflow="visible"/>
 <path d="m15.899 39.954c-2.045-1.679 1.815-2.92 3.692-3.75 0 0-7.8 1.607-3.692 3.75z" fill="#fff" fill-opacity=".705" filter="url(#s)" overflow="visible"/>
</svg>
