<?xml version="1.0" encoding="UTF-8"?>
<svg width="48" height="48" xmlns="http://www.w3.org/2000/svg" xmlns:xlink="http://www.w3.org/1999/xlink">
 <defs>
  <linearGradient id="j" x1="10" x2="10" y1="18" y2="23" gradientUnits="userSpaceOnUse" xlink:href="#b"/>
  <linearGradient id="a">
   <stop stop-color="#d700d7" offset="0"/>
   <stop stop-color="#6e006e" offset="1"/>
  </linearGradient>
  <linearGradient id="l" x1="8.266" x2="8.086" y1="18.487" y2="16.5" gradientUnits="userSpaceOnUse">
   <stop stop-color="#a20000" offset="0"/>
   <stop stop-color="#d40000" offset="1"/>
  </linearGradient>
  <linearGradient id="g" x1="25" x2="24" y1="1020.4" y2="1039.4" gradientUnits="userSpaceOnUse" xlink:href="#a"/>
  <linearGradient id="f" x1="17" x2="36" y1="25" y2="36" gradientUnits="userSpaceOnUse" xlink:href="#a"/>
  <linearGradient id="i" x1="19" x2="19" y1="19" y2="22" gradientUnits="userSpaceOnUse" xlink:href="#b"/>
  <linearGradient id="m" x1="16.282" x2="16.282" y1="19.222" y2="17.274" gradientUnits="userSpaceOnUse">
   <stop stop-color="#ffea00" offset="0"/>
   <stop stop-color="#ffffa4" offset="1"/>
  </linearGradient>
  <linearGradient id="b">
   <stop stop-color="#ffd73b" offset="0"/>
   <stop stop-color="#ee8400" offset="1"/>
  </linearGradient>
  <filter id="n">
   <feGaussianBlur stdDeviation=".268"/>
  </filter>
  <filter id="o" x="-.113" y="-.137" width="1.227" height="1.274">
   <feGaussianBlur stdDeviation=".328"/>
  </filter>
  <filter id="p" x="-.226" y="-.193" width="1.452" height="1.386">
   <feGaussianBlur stdDeviation=".277"/>
  </filter>
  <filter id="q" x="-.123" y="-.237" width="1.245" height="1.474">
   <feGaussianBlur stdDeviation=".179"/>
  </filter>
  <filter id="r" x="-.137" y="-.168" width="1.275" height="1.335">
   <feGaussianBlur stdDeviation=".179"/>
  </filter>
  <filter id="s" x="-.109" y="-.289" width="1.219" height="1.577">
   <feGaussianBlur stdDeviation=".083"/>
  </filter>
  <filter id="e" x="-.08" y="-.392" width="1.159" height="1.785">
   <feGaussianBlur stdDeviation=".921"/>
  </filter>
  <radialGradient id="k" cx="24.596" cy="23.457" r="3.099" gradientTransform="matrix(1.0206 .9772 -.9682 .92705 21.76 -22.696)" gradientUnits="userSpaceOnUse" xlink:href="#b"/>
  <radialGradient id="h" cx="18" cy="1023" r="19.5" gradientTransform="matrix(1 0 0 .46158 0 553.15)" gradientUnits="userSpaceOnUse" xlink:href="#a"/>
 </defs>
 <path transform="matrix(1.0349 0 0 1.1902 .66 -7.205)" d="M38.856 35.874c0 .8-3.629.287-4.46.664-2.533 1.149-3.456 2.178-7.046 2.57-2.826.309-3.474-1.578-8.97-2.255-3.25-.4-7.295-.291-7.295-1.164 0-1.514 6.02-2.185 13.708-2.185 7.688 0 14.063.857 14.063 2.37z" fill-opacity=".769" fill-rule="evenodd" filter="url(#e)"/>
 <path d="M15 23c-1.39 3.73-2.581 5.938-3 12 5-1 10.73-.239 17 4 2.705-.945 3.362-3.974 12-4 0-4-.489-4.764-3-12H15" fill="url(#f)" overflow="visible"/>
 <path transform="translate(0 -1004.4)" d="M5 1029.362c.205-.102-.208-.898 0-1 6.296-3.074 14.547-5.037 18-9 7.862 2.738 14.293 1.802 21 3 .22.04-.223.958 0 1 0 0-10 11-16 14-.344.131-23-8-23-8z" fill="url(#g)" overflow="visible"/>
 <path transform="translate(0 -1004.4)" d="M5 1028.362c6.407-3.206 14.432-5.906 18-10 8.121 2.828 14.005 2.673 21 4 0 0-10 11-16 14-.344.131-23-8-23-8z" fill="url(#h)" overflow="visible"/>
 <path d="M14 19c5.936-.53 7.07 1.763 10 3v-1c-2.665-1.335-3.184-4.816-9-3l-1 1z" fill="url(#i)" overflow="visible"/>
 <path d="M15.142 17.936C11.762 17.29 10.484 15.744 5 16c-.766 1.51-.956 3.101 1 5 3.16-.827 6.013-1.347 9-2l.142-1.064z" fill="url(#j)" overflow="visible"/>
 <path transform="matrix(1 0 0 1.0444 -.15 -2.11)" d="M28.25 23.085c0 1.058-1.388 1.915-3.1 1.915-1.71 0-3.098-.857-3.098-1.915s1.387-1.915 3.099-1.915c1.71 0 3.098.857 3.098 1.915z" fill="url(#k)" fill-rule="evenodd"/>
 <path d="M15.326 18.23c-3.626-.576-5.556-1.788-10.879-1.728-.948.21-.54.63-.257 1.03 4.848-.748 7.326.636 10.99.955l.146-.257z" fill="url(#l)" overflow="visible"/>
 <path d="M15 18l2.642-.726c-.473.65-.605 1.299-.294 1.948l-2.426-.147c-.121-.652.018-.784.078-1.075z" fill="url(#m)" overflow="visible"/>
 <path d="M14 20.438c-.5.062-8.125 3.437-8.125 3.437l8.75 3.063c-6.918-2.675-4.577-4.649-.625-6.5z" fill="#fff" fill-opacity=".636" filter="url(#n)" overflow="visible"/>
 <path d="M36.188 17.375l6.937.75c-1.708 2.475-3.417 3.414-5.125 5 2.025-2.337 4.273-4.71-1.813-5.75z" fill="#fff" fill-opacity=".756" filter="url(#o)" overflow="visible"/>
 <path d="M12.875 31.125l-.5 3.438 2.938-.376c-1.73-.171-2.54-1.225-2.438-3.062z" fill="#fff" fill-opacity=".804" filter="url(#p)" overflow="visible"/>
 <path d="M4.75 18.813l1.188 1.812 2.312-.5c-1.093-.236-1.933.132-3.5-1.313z" fill="#fff" fill-opacity=".778" filter="url(#q)" overflow="visible"/>
 <path d="M22.5 22.813c.316-1.424 1.721-1.94 3-2.563 0 0-3.875-.125-3 2.563z" fill="#fff" fill-opacity=".778" filter="url(#r)" overflow="visible"/>
 <path d="M15.313 18.188l1.812-.438-.125.688-1.688-.25z" fill="#fff" fill-opacity=".867" filter="url(#s)" overflow="visible"/>
</svg>
