<?xml version="1.0" encoding="UTF-8"?>
<svg width="48" height="48" xmlns="http://www.w3.org/2000/svg" xmlns:xlink="http://www.w3.org/1999/xlink">
 <defs>
  <linearGradient id="b">
   <stop stop-color="#bd0000" offset="0"/>
   <stop stop-color="#ff0909" offset="1"/>
  </linearGradient>
  <linearGradient id="n" x1="23" x2="27" y1="20" y2="15" gradientTransform="translate(0 1006.9)" gradientUnits="userSpaceOnUse" xlink:href="#a"/>
  <linearGradient id="l" x1="19" x2="25" y1="27" y2="18" gradientTransform="translate(0 1006.9)" gradientUnits="userSpaceOnUse" xlink:href="#a"/>
  <linearGradient id="f" x1="40" x2="29" y1="29" y2="48" gradientTransform="translate(0 1006.9)" gradientUnits="userSpaceOnUse" xlink:href="#a"/>
  <linearGradient id="h" x1="40" x2="35" y1="29" y2="37" gradientTransform="translate(0 1006.9)" gradientUnits="userSpaceOnUse" xlink:href="#a"/>
  <linearGradient id="j" x1="31" x2="36" y1="37" y2="35" gradientTransform="translate(0 1006.9)" gradientUnits="userSpaceOnUse" xlink:href="#a"/>
  <linearGradient id="a">
   <stop stop-color="#f4e9b0" offset="0"/>
   <stop stop-color="#fffbe5" offset="1"/>
  </linearGradient>
  <linearGradient id="o" x1="19.401" x2="22.76" y1="21.483" y2="18.655" gradientTransform="translate(0 1006.9)" gradientUnits="userSpaceOnUse" xlink:href="#b"/>
  <linearGradient id="e" x1="15.998" x2="18.385" y1="31.869" y2="26.831" gradientTransform="translate(0 1006.9)" gradientUnits="userSpaceOnUse" xlink:href="#b"/>
  <linearGradient id="d" x1="31.816" x2="34.24" y1="1026.9" y2="1021.6" gradientTransform="translate(0 2.49)" gradientUnits="userSpaceOnUse" xlink:href="#b"/>
  <filter id="m">
   <feGaussianBlur stdDeviation=".078"/>
  </filter>
  <filter id="g">
   <feGaussianBlur stdDeviation=".181"/>
  </filter>
  <filter id="i">
   <feGaussianBlur stdDeviation=".181"/>
  </filter>
  <filter id="c">
   <feGaussianBlur stdDeviation=".557"/>
  </filter>
  <filter id="q" x="-.231" y="-.112" width="1.463" height="1.223">
   <feGaussianBlur stdDeviation=".23"/>
  </filter>
  <filter id="r" x="-.133" y="-.195" width="1.266" height="1.39">
   <feGaussianBlur stdDeviation=".23"/>
  </filter>
  <filter id="p" x="-.244" y="-.123" width="1.488" height="1.246">
   <feGaussianBlur stdDeviation=".44"/>
  </filter>
  <filter id="k">
   <feGaussianBlur stdDeviation=".181"/>
  </filter>
 </defs>
 <g>
  <path d="M11.875 9.438L5.906 16.75c5.058 3.506 9.056 7.16 12.438 10.875-2.089 2.908-4.505 4.249-6.782 6.219l3.157-.469-.781 4c4.39-2.413 6.16-3.964 7-6.063 3.047 1.538 5.475 8.23 9.593 11.875 5.876 1.47 11.588-3.968 13.844-6.906L30.594 24.906l.718-.812c2.889-1.137 4.046-2.288 6.069-4.827l-3.631.89 1.188-3.876-3.626 4.563-1 3.812L11.875 9.438z" fill-opacity=".769" filter="url(#c)" overflow="visible"/>
  <path transform="translate(0 -1004.4)" d="m29.615 1029.4c4.238-1.745 6.839-4.146 7.542-7.306l-3.106 1.62 0.327-4.758c-1.998 4.996-4.994 6.251-7.904 7.83l3.141 2.614z" fill="url(#d)" overflow="visible"/>
  <path transform="translate(0 -1004.4)" d="m18.12 1030.8c-1.039 4.271-4.663 5.31-7.425 7.426l4.154-0.796-1.326 3.89c3.644-1.925 7.14-3.952 7.779-7.956l-3.182-2.563z" fill="url(#e)" overflow="visible"/>
  <path transform="translate(0 -1004.4)" d="m30 1046.9c4.906 1.998 16.197-3.974 14-11l-12-6-9 7 7 10z" fill="url(#f)" overflow="visible"/>
  <path transform="translate(0 -1004.4)" d="m44 1037.9c-2 4-4 7-12 8l-7-8 7-5 12 5z" fill-opacity=".513" filter="url(#g)" overflow="visible"/>
  <path transform="translate(0 -1004.4)" d="m44 1037.9c-2 4-4 7-12 8l-7-8 7-5 12 5z" fill="url(#h)" overflow="visible"/>
  <path transform="translate(0 -1004.4)" d="m32 1045.9c0-2 2-4 5-5 0.949-0.316-8-5-8-5l-3 3 6 7z" fill-opacity=".513" filter="url(#i)" overflow="visible"/>
  <path transform="translate(0 -1004.4)" d="m32 1045.9c0-2 2-4 5-5 0.949-0.316-8-5-8-5l-3 3 6 7z" fill="url(#j)" overflow="visible"/>
  <path transform="translate(0 -1004.4)" d="m14.22 1012.6c-3.22-0.745-9.22 2.255-8.22 8.255 12.039 8.05 17.412 16.836 24 26 0-4 7-10 14-9-11-7-25.313-16.297-29.78-25.255z" fill-opacity=".513" filter="url(#k)" overflow="visible"/>
  <path transform="translate(0 -1004.4)" d="m14.22 1012.6c-3.22-0.745-9.22 2.255-8.22 8.255 12.039 8.05 17.412 16.836 24 26 0-4 7-10 14-9-11-7-25.313-16.297-29.78-25.255z" fill="url(#l)" overflow="visible"/>
  <path transform="translate(0 -1004.4)" d="m14 1011.9c-2-1-5 0-6 2l26 24c4-3 7-3 10-2-10.501-5.499-22.223-12.897-30-24z" fill-opacity=".388" filter="url(#m)" overflow="visible"/>
  <path transform="translate(0 -1004.4)" d="m14 1011.9c-2-1-5 0-6 2l26 24c4-3 7-3 10-2-10.501-5.499-22.223-12.897-30-24z" fill="url(#n)" overflow="visible"/>
  <path transform="translate(0 -1004.4)" d="M16.794 1030.28c1.468 1.474 1.758 1.975 3.005 3.448 1.937-2.85 2.881-6.52 8.927-7.955-1.715-1.267-2.496-1.562-3.977-2.829-3.85.949-5.956 4.075-7.955 7.337z" fill="url(#o)" overflow="visible"/>
  <path transform="translate(0 -1004.4)" d="m8.309 1015.2c-1.952 1.93-1.801 3.599-1.945 5.303l4.331 3.27c-1.512-2.2-3.572-3.9-2.386-8.573z" fill="#fff" filter="url(#p)" overflow="visible"/>
  <path transform="translate(0 -1004.4)" d="M19.534 1026.833l-2.387 3.27 1.768 1.68c-1.036-1.827.137-3.34.619-4.95z" fill="#fff" fill-opacity=".777" filter="url(#q)" overflow="visible"/>
  <path transform="translate(0 -1004.4)" d="M11.932 1037.793l4.155-2.828c-.505.588-1.622 1.055-1.061 1.856l-3.094.972z" fill="#fff" fill-opacity=".777" filter="url(#r)" overflow="visible"/>
 </g>
</svg>
