<?xml version="1.0" encoding="UTF-8"?>
<svg width="48" height="48" xmlns="http://www.w3.org/2000/svg" xmlns:xlink="http://www.w3.org/1999/xlink">
 <defs>
  <linearGradient id="a">
   <stop stop-color="#555" offset="0"/>
   <stop offset="1"/>
  </linearGradient>
  <linearGradient id="k" x1="13" x2="33.04" y1="21.984" y2="21.984" gradientUnits="userSpaceOnUse" xlink:href="#a"/>
  <linearGradient id="l" x1="14" x2="34" y1="33" y2="37" gradientUnits="userSpaceOnUse">
   <stop stop-color="#d700d7" offset="0"/>
   <stop stop-color="#6e006e" offset="1"/>
  </linearGradient>
  <linearGradient id="m" x1="30.344" x2="27.078" y1="35.5" y2="33.391" gradientUnits="userSpaceOnUse" xlink:href="#c"/>
  <linearGradient id="c">
   <stop stop-color="#ffea00" offset="0"/>
   <stop stop-color="#ffffa4" offset="1"/>
  </linearGradient>
  <linearGradient id="i" x1="20.619" x2="24.772" y1="16.649" y2="10.328" gradientTransform="translate(-2.793 1006)" gradientUnits="userSpaceOnUse">
   <stop stop-color="#520" offset="0"/>
   <stop stop-color="#b6632c" offset="1"/>
  </linearGradient>
  <linearGradient id="h" x1="34" x2="30" y1="27" y2="16" gradientUnits="userSpaceOnUse" xlink:href="#c"/>
  <linearGradient id="g" x1="44" x2="33" y1="33" y2="14" gradientUnits="userSpaceOnUse" xlink:href="#c"/>
  <linearGradient id="r" x1="34" x2="32" y1="24" y2="22" gradientUnits="userSpaceOnUse">
   <stop stop-color="#a20000" offset="0"/>
   <stop stop-color="#d40000" offset="1"/>
  </linearGradient>
  <linearGradient id="u" x1="26.639" x2="39.084" y1="1004.7" y2="1021.9" gradientTransform="translate(-.294 1.103)" gradientUnits="userSpaceOnUse" xlink:href="#a"/>
  <filter id="n" y="-.073" width="1.201" height="1.145">
   <feGaussianBlur stdDeviation=".291"/>
  </filter>
  <filter id="o" x="-.133" y="-.183" width="1.265" height="1.366">
   <feGaussianBlur stdDeviation=".238"/>
  </filter>
  <filter id="p" x="-.172" y="-.091" width="1.344" height="1.182">
   <feGaussianBlur stdDeviation=".124"/>
  </filter>
  <filter id="v" x="-.095" y="-.341" width="1.19" height="1.682">
   <feGaussianBlur stdDeviation=".226"/>
  </filter>
  <filter id="s" x="-.537" y="-.273" width="2.075" height="1.546">
   <feGaussianBlur stdDeviation=".239"/>
  </filter>
  <filter id="t" x="-.282" y="-.198" width="1.565" height="1.397">
   <feGaussianBlur stdDeviation=".185"/>
  </filter>
  <filter id="f" x="-.057" y="-.245" width="1.114" height="1.49">
   <feGaussianBlur stdDeviation=".944"/>
  </filter>
  <filter id="q" x="-.195" y="-.096" width="1.391" height="1.192">
   <feGaussianBlur stdDeviation=".084"/>
  </filter>
  <radialGradient id="j" cx="16.668" cy="23.686" r="15.514" gradientTransform="matrix(.10727 .86857 -1.4345 .21942 48.858 7.805)" gradientUnits="userSpaceOnUse" xlink:href="#a"/>
 </defs>
 <path d="M40.156 33.313c-2.632 0-4.825.637-5.437 1.53-3.03-.912-7.36-1.468-12.188-1.468-9.154 0-16.562 2.056-16.562 4.594 0 2.537 7.408 4.593 16.562 4.593 9.155 0 16.563-2.056 16.563-4.593 0-.2-.036-.4-.125-.594.385.03.777.031 1.187.031 3.106 0 5.625-.926 5.625-2.062 0-1.137-2.52-2.032-5.625-2.032z" fill-opacity=".769" fill-rule="evenodd" filter="url(#f)"/>
 <path d="M32.858 19.332C37.634 21.446 46 22 47 26c-2 8-5.63 7.803-9 10l-8-12 2.858-4.668z" fill="url(#g)" overflow="visible"/>
 <path d="M30 18c-2.765.57-1.338 2.665-2 4-.076 2.495 1.892 1.96 4 3 2.132-1.892 2.403-3.498 2-5-1.413-2.1-2.001-2.44-4-2z" fill="url(#h)" overflow="visible"/>
 <path transform="translate(0 -1004.4)" d="M6.542 1013.256c8.784 3.236 15.961 6.721 23.67 10.953.958 1.288.09 1.663-.442 2.205-7.978-3.857-15.968-7.687-24.33-10.585.09-1.016-.27-2.289 1.102-2.572z" fill="url(#i)" overflow="visible"/>
 <path transform="matrix(1.1009 -.16324 .14668 .98918 -6.38 6.538)" d="M37.868 31.99c0 4.417-6.808 7.01-15.368 7.01S6.462 35.905 7 31c.481-4.386 7.529-7.917 16.549-7.44 12.992.688 14.32 4.01 14.32 8.43z" fill="url(#j)" fill-rule="evenodd"/>
 <path d="M13 35c.387-.034 1-8 2-12s2-6 2-10c-1-2-3-4-3-4s7 0 8 4 5 11 6 13 5 5 5 5c1 6-17 10-20 4z" fill="url(#k)" overflow="visible"/>
 <path d="M31.906 30.094C31.257 31.259 30.578 32.422 30 33c-1.875 1.875-8 4-11 3-1.075-.358-4.707-.954-5.563-2.938-.487.784-.369 1.88-.437 1.938 3 6 21 2 20-4 0 0-.413-.742-1.094-.906z" fill="url(#l)" overflow="visible"/>
 <path d="M29.938 32.281c-1.441.484-2.703 1.324-3.938 2.219l1.563 2.531c1.472-.52 2.915-1.073 3.937-2.125l-1.563-2.625zm-.438.813l1.25 1.718c-.593.553-1.496 1.105-2.797 1.657l-.969-1.922c.33-.251.664-.52.953-.61l.204.376.53-.329-.14-.359c.232-.195.53-.377.969-.531z" fill="url(#m)" overflow="visible"/>
 <path d="M13.438 28.625S6.372 33.442 7 38.25c-2.087-3.43 2.562-8.196 6.438-9.625z" fill="#fff" fill-opacity=".446" filter="url(#n)" overflow="visible"/>
 <path d="M14.813 9.375c1.952-.053 2.964.6 4.312 1 0 0-2.632.065-1.813 2.125-1.13-1.572-2.5-3.125-2.5-3.125z" fill="#fff" fill-opacity=".299" filter="url(#o)" overflow="visible"/>
 <path d="M13.406 33.438c-.178.334-.348.688-.281 1.593.43.515 1.04 1.09 1.719 1.688-.567-.755-1.544-1.945-1.438-3.282z" fill="#fff" fill-opacity=".621" filter="url(#p)" overflow="visible"/>
 <path d="M27.219 33.813l-1.032.687.813 1.406c-.23-.748-.52-1.507.219-2.093z" fill="#fff" filter="url(#q)" overflow="visible"/>
 <path d="M33.313 19.063c.695 3.227-2.196 4.441-3.376 5.218.619.174.331.358 1.063.719 2.96-1.396 3.95-3.17 3-5-.25-.372-.476-.67-.688-.938z" fill="url(#r)" overflow="visible"/>
 <path d="M6.572 9.156c-.953.604-.622 1.368-.52 2.104 0 0 1.682-.278.52-2.104z" fill="#fff" fill-opacity=".473" filter="url(#s)" overflow="visible"/>
 <path d="M28.432 21.648c.314 1.086.867 1.695 1.455 2.235-.004-.001-2.077.078-1.455-2.235z" fill="#fff" filter="url(#t)" overflow="visible"/>
 <path transform="translate(0 -1004.4)" d="M22.456 1009.215c4.689.253 12.61-.783 13.611 2.07l.78-1.901.124 2.335 2.075-.942-.976 1.607c5.275.918 4.815 7.063 7.261 10.643-1.333-1.332-2.766-3.84-4.188-2.875.144-2.9-.922-2.26-1.562-2.625-.65-3.167-2.619-2.209-3.438-1.687 0 0-2.65 1.497-2.65 1.247s.525-2.31.525-2.31c-.03-1.82-1.244-2.167-3.125-1.687-.573-1.444-1.809-1.37-3.25-.563.656-2.233-2.928-2.459-5.187-3.312z" fill="url(#u)" overflow="visible"/>
 <path transform="translate(0 -1004.4)" d="M29.228 1009.536l-5.701-.177c1.713.452 3.406.909 4.198 1.591-1.152-.697-2.397-1.406 1.503-1.414z" fill="#fff" fill-opacity=".379" filter="url(#v)" overflow="visible"/>
</svg>
