<?xml version="1.0" encoding="UTF-8"?>
<svg width="48" height="48" xmlns="http://www.w3.org/2000/svg" xmlns:xlink="http://www.w3.org/1999/xlink">
 <defs>
  <linearGradient id="o" x1="26" x2="31.188" y1="26" y2="26" gradientUnits="userSpaceOnUse" xlink:href="#d"/>
  <linearGradient id="d">
   <stop stop-color="#704608" offset="0"/>
   <stop stop-color="#ab8855" offset="1"/>
  </linearGradient>
  <linearGradient id="a">
   <stop stop-color="#ffd73b" offset="0"/>
   <stop stop-color="#ee8400" offset="1"/>
  </linearGradient>
  <linearGradient id="q" x1="18.296" x2="18.296" y1="1022.4" y2="1020.9" gradientUnits="userSpaceOnUse" xlink:href="#a"/>
  <linearGradient id="m" x1="28.548" x2="26.145" y1="1017.8" y2="1015.9" gradientUnits="userSpaceOnUse">
   <stop stop-color="#520" offset="0"/>
   <stop stop-color="#b6632c" offset="1"/>
  </linearGradient>
  <linearGradient id="i" x1="14.554" x2="12.5" y1="23" y2="30.589" gradientUnits="userSpaceOnUse" xlink:href="#c"/>
  <linearGradient id="k" x1="30.609" x2="29.5" y1="23" y2="31.628" gradientUnits="userSpaceOnUse" xlink:href="#c"/>
  <linearGradient id="l" x1="16.756" x2="16.758" y1="32.344" y2="40.318" gradientUnits="userSpaceOnUse" xlink:href="#c"/>
  <linearGradient id="n" x1="12.5" x2="16" y1="24.454" y2="26" gradientUnits="userSpaceOnUse" xlink:href="#d"/>
  <linearGradient id="c">
   <stop stop-color="#ffea00" offset="0"/>
   <stop stop-color="#ffffa4" offset="1"/>
  </linearGradient>
  <linearGradient id="p" x1="17.432" x2="18.656" y1="38" y2="32.344" gradientUnits="userSpaceOnUse" xlink:href="#d"/>
  <linearGradient id="r" x1="28.691" x2="40.335" y1="23.841" y2="20.151" gradientUnits="userSpaceOnUse" xlink:href="#a"/>
  <linearGradient id="j" x1="25.417" x2="31.867" y1="29.106" y2="29.106" gradientUnits="userSpaceOnUse" xlink:href="#a"/>
  <linearGradient id="g" x1="18.192" x2="23.01" y1="29.262" y2="29.262" gradientUnits="userSpaceOnUse" xlink:href="#a"/>
  <linearGradient id="h" x1="11.123" x2="16.945" y1="26.014" y2="29.08" gradientUnits="userSpaceOnUse" xlink:href="#a"/>
  <filter id="s" x="-.155" y="-.241" width="1.309" height="1.482">
   <feGaussianBlur stdDeviation=".204"/>
  </filter>
  <filter id="t">
   <feGaussianBlur stdDeviation=".24"/>
  </filter>
  <filter id="e" x="-.047" y="-.299" width="1.094" height="1.598">
   <feGaussianBlur stdDeviation=".677"/>
  </filter>
  <radialGradient id="f" cx="17.36" cy="1023.9" r="17.592" gradientTransform="matrix(.4006 .905 -.76871 .34028 797.5 661.73)" gradientUnits="userSpaceOnUse" xlink:href="#a"/>
 </defs>
 <path transform="matrix(.89765 0 0 1.1081 2.573 -3.214)" d="M40.943 39.253a17.237 2.72 0 11-34.474 0 17.237 2.72 0 1134.474 0z" fill-opacity=".769" fill-rule="evenodd" filter="url(#e)"/>
 <path transform="translate(0 -1004.4)" d="m9 1027.4c-2 3-2.51 8.43-2 12 1 7 8 6 11 7s17 0 20-3 4-5 4-9c-1-11-4-14-16-15-8-1-12 1-17 8z" fill="url(#f)" overflow="visible"/>
 <path d="m22.974 18.685-4.782 21.155s5.302-20.116 4.782-21.155z" fill="url(#g)" overflow="visible"/>
 <path d="M21.05 17.541c-4.898 1.574-11.13 12.17-11.174 20.48.515-5.79 6.392-18.202 11.175-20.48z" fill="url(#h)" overflow="visible"/>
 <path d="m13 23-4 5 7 1-3-6z" fill="url(#i)" overflow="visible"/>
 <path d="M25.417 19.153c.364.29 3.934 14.454 3.69 19.907 1.132-2.747-.923-15.28-3.69-19.907z" fill="url(#j)" overflow="visible"/>
 <path d="m26 29 7-1-5-5-2 6z" fill="url(#k)" overflow="visible"/>
 <path d="M9.688 32.344a11.194 11.194 0 002.156 2L11 36l2 1 .781-1.594c.727.315 1.458.558 2.219.719V38h2v-1.625c.73.046 1.465.017 2.188-.031L21 38h2v-2a26.393 26.393 0 002.219-.563L26 37l2-1-.625-1.281c2.137-.815 3.561-1.63 3.625-1.719-7.23.758-14.467 1.46-21.313-.656z" fill="url(#l)" overflow="visible"/>
 <path transform="translate(0 -1004.4)" d="M23 1021.362c1.948-3.688 2.908-4.752 5.129-6.077 2.103-.12 3.944.592 3.324 2.416-4 2-2.973 1.817-6.453 4.661-1 0-2 0-2-1z" fill="url(#m)" overflow="visible"/>
 <path d="M13 23l-4 5 7 1-.063-.156L10 28l3.375-4.219L13 23z" fill="url(#n)" overflow="visible"/>
 <path d="M28 23l-2 6 5.188-.75L27 28l1.781-4.219L28 23z" fill="url(#o)" overflow="visible"/>
 <path d="M9.688 32.344a11.194 11.194 0 002.156 2L11 36l2 1 .188-.406-1.22-.907.626-1.624-2.906-1.72zm5.124 2.968l-.906.157c.685.287 1.378.505 2.094.656V38h2v-.313l-1.375-.093.063-1.594-1.875-.688zm10.813 0l-.406.126L26 37l1.625-.813-1.375.157-.625-1.032zm-6.917.833l-.552.23c.678.033 1.36.013 2.032-.031L21 38h2v-.625l-1.469-.031-.687-1.25-2.136.051z" fill="url(#p)" overflow="visible"/>
 <path transform="translate(0 -1004.4)" d="M21.623 1020.812c-1.647-.554-3.775-.234-5.666-.104l-.988.572c1.855-.2 5.076-.958 6.654-.468z" fill="url(#q)" overflow="visible"/>
 <path d="M28.691 17.75c3.822.391 11.037 8.374 11.643 12.214.085-4.368-7.818-12.82-11.643-12.215z" fill="url(#r)" overflow="visible"/>
 <path d="M28.172 11.148c.897.766 1.556 1.77 2.962 2.027 0 0 1.352-1.611-2.962-2.027z" fill="#fff" fill-opacity=".48" filter="url(#s)" overflow="visible"/>
 <path d="M10.967 21.128c3.477-1.153 7.59-5.646 11.903-6.134-.401-.702-9.32.83-11.903 6.134z" fill="#fff" fill-opacity=".671" filter="url(#t)" overflow="visible"/>
</svg>
