<?xml version="1.0" encoding="UTF-8"?>
<svg width="48" height="48" xmlns="http://www.w3.org/2000/svg" xmlns:xlink="http://www.w3.org/1999/xlink">
 <defs>
  <radialGradient id="e" cx="19.253" cy="1019.9" r="18.408" gradientTransform="matrix(.6005 .96932 -1.1474 .71086 1176.9 277.46)" gradientUnits="userSpaceOnUse" xlink:href="#a"/>
  <radialGradient id="f" cx="24.035" cy="17.538" r="1.533" gradientTransform="matrix(0 2.873 -1.3421 0 48.005 -53.315)" gradientUnits="userSpaceOnUse" xlink:href="#b"/>
  <radialGradient id="g" cx="24.035" cy="17.538" r="1.533" gradientTransform="matrix(0 2.873 -1.6061 0 52.635 -53.315)" gradientUnits="userSpaceOnUse" xlink:href="#b"/>
  <radialGradient id="c" cx="9.304" cy="1025.5" r="3.674" gradientTransform="matrix(1.2156 1.1204 -.86111 .93425 881.15 59.348)" gradientUnits="userSpaceOnUse" xlink:href="#a"/>
  <radialGradient id="k" cx="9.304" cy="1025.5" r="3.674" gradientTransform="matrix(1.4356 1.9782 -1.5516 1.126 1610.3 -147.04)" gradientUnits="userSpaceOnUse" xlink:href="#a"/>
  <filter id="i" x="-.212" y="-.16" width="1.424" height="1.32">
   <feGaussianBlur stdDeviation=".162"/>
  </filter>
  <filter id="l" x="-.107" y="-.046" width="1.215" height="1.092">
   <feGaussianBlur stdDeviation=".163"/>
  </filter>
  <filter id="j" x="-.124" y="-.171" width="1.248" height="1.341">
   <feGaussianBlur stdDeviation=".755"/>
  </filter>
  <filter id="d" x="-.06" y="-.338" width="1.121" height="1.677">
   <feGaussianBlur stdDeviation=".84"/>
  </filter>
  <filter id="h" x="-.212" y="-.16" width="1.424" height="1.32">
   <feGaussianBlur stdDeviation=".162"/>
  </filter>
  <linearGradient id="a">
   <stop stop-color="#f9f9f9" stop-opacity=".985" offset="0"/>
   <stop stop-color="#d5d5d5" offset="1"/>
  </linearGradient>
  <linearGradient id="b">
   <stop stop-color="#555" offset="0"/>
   <stop offset="1"/>
  </linearGradient>
 </defs>
 <path transform="translate(0 -1004.4)" d="M12.643 1023.768c-1.985-1.47-6.174 0-3.381 1.397-2.76-.4-2.589 5.755.735 4.778-2.967 1.218 1.641 4.392 3.749 1.102 1.41-2.194 1.372-6.075-1.103-7.277z" fill="url(#c)" overflow="visible"/>
 <path transform="matrix(1 0 0 1.1034 -.294 -5.478)" d="M40.87 43.934c-5.293 1.032-5.515-1.596-10.88-1.624-3.262-.017-4.404 2.956-9.665 2.29-2.575-.326-3.365-1.855-5.116-2.074-4.089-.513-5.947 1.179-7.344-1.057-.96-1.536 7.394-2.73 16.061-2.73 8.668 0 18.93 5.23 16.944 5.195z" fill-opacity=".769" fill-rule="evenodd" filter="url(#d)"/>
 <path transform="translate(0 -1004.4)" d="M7.41 1044.774c-1.867-1.36 6.514-5.84 4.359-21.798-.872-4.36 4.36-11.335 7.847-12.206 1.692-.423 8.719-1.744 12.207 2.615 3.175 3.97 4.792 16.986 4.468 19.582-.908 7.266 4.541 9.99 4.25 13.55-.141 1.738-2.615 1.744-5.23 0-2.617-1.743-6.395-2.579-9.01-.835-2.616 1.744-6.123 3.986-8.175.908-3.633-5.45-6.658 1.14-10.717-1.816z" fill="url(#e)" overflow="visible"/>
 <path d="M15.733 27.14l.354 4.552s1.812-4.375 1.635-4.42c-.177-.043-1.812-.132-1.989-.132z" fill="#fff" overflow="visible"/>
 <path d="m18.59 19.289c0 2.205-0.755 3.992-1.687 3.992s-1.688-1.787-1.688-3.992 0.756-3.993 1.688-3.993 1.687 1.788 1.687 3.993z" fill-rule="evenodd"/>
 <path transform="matrix(.90823 0 0 .90823 -5.428 3.253)" d="m26 17.373c0 2.003-0.686 3.627-1.533 3.627s-1.533-1.624-1.533-3.627 0.686-3.627 1.533-3.627 1.533 1.624 1.533 3.627z" fill="url(#f)" fill-rule="evenodd"/>
 <path d="M26.404 19.289c0 2.205-.756 3.992-1.688 3.992-.931 0-1.687-1.787-1.687-3.992s.756-3.993 1.687-3.993c.932 0 1.688 1.788 1.688 3.993z" fill-rule="evenodd"/>
 <path transform="matrix(.90823 0 0 .90823 2.386 3.253)" d="m26 17.373c0 2.003-0.686 3.627-1.533 3.627s-1.533-1.624-1.533-3.627 0.686-3.627 1.533-3.627 1.533 1.624 1.533 3.627z" fill="url(#g)" fill-rule="evenodd"/>
 <path transform="translate(0 -1004.4)" d="M17.421 1020.683c-1.3.271-1.33 1.388-1.833 2.189 0 0 .034-3.34 1.833-2.189z" fill="#fff" fill-opacity=".862" filter="url(#h)" overflow="visible"/>
 <path transform="translate(0 -1004.4)" d="M25.213 1020.683c-1.3.271-1.33 1.388-1.833 2.189 0 0 .033-3.34 1.833-2.189z" fill="#fff" fill-opacity=".862" filter="url(#i)" overflow="visible"/>
 <path d="M12.64 17.24c-.068-1.197 1.199-6.105 5.833-9.28 2.384-1.633 6.36-1.605 8.75-.795-5.664.14-13.388 4.041-14.583 10.076z" fill="#fff" filter="url(#j)" overflow="visible"/>
 <path d="M22.716 14.412c1.161-1.116 2.54-2.094 4.905-1.104l-.265 1.414c-2.33-1.087-2.948-.599-4.64-.31zM19.064 15.442c-.823-1.386-1.89-2.696-4.434-2.372l-.121 1.434c2.536-.427 3 .208 4.555.938z" overflow="visible"/>
 <path d="M23.948 28.576l.456 4.391s1.716-4.35 1.537-4.384c-.18-.033-1.817-.018-1.993-.01z" fill="#fff" overflow="visible"/>
 <path d="M28.444 27.468c-.73.981-2.235.815-3.256.907-1.022.091-2.214-.156-3.47-.469-2.51-.626-5.278-1.624-7.593-.375l.16.08c1.8-.971 4.692.314 7.26.955 1.283.32 2.548.434 3.78.323 1.233-.11 2.38-.162 3.269-1.357l-.15-.063z" font-family="Bitstream Vera Sans" font-weight="400" overflow="visible" style="block-progression:tb;text-indent:0;text-transform:none"/>
 <path transform="translate(0 -1004.4)" d="m35.798 1022c-1.985-1.47-6.175 0-3.381 1.397-2.76-0.4-2.59 5.755 0.735 4.778-2.967 1.218 1.64 4.392 3.748 1.102 1.412-2.194 1.373-6.075-1.102-7.277z" fill="url(#k)" overflow="visible"/>
 <path transform="translate(0 -1004.4)" d="M34.375 1021.81c-1.84-.258-2.585.401-2.531 1.157.605-.528 1.51-.877 2.531-1.156zm-2.156 1.876c-2.438.218-1.157 3.593-1.157 3.593-.275-2.188.459-3.02 1.157-3.593zm1 4.75c-1.688.687-.219 1.812-.219 1.812-.505-1.015-.061-1.341.219-1.812zM11.22 1023.501c-1.84-.259-2.585.4-2.53 1.157.604-.529 1.51-.877 2.53-1.157zm-2.156 1.875c-2.437.22-1.156 3.594-1.156 3.594-.275-2.189.458-3.02 1.156-3.594zm1 4.75c-1.687.688-.219 1.813-.219 1.813-.505-1.015-.061-1.341.22-1.813z" fill="#fff" fill-opacity=".991" filter="url(#l)" overflow="visible"/>
</svg>
