<?xml version="1.0" encoding="UTF-8"?>
<svg width="48" height="48" xmlns="http://www.w3.org/2000/svg" xmlns:xlink="http://www.w3.org/1999/xlink">
 <defs>
  <linearGradient id="s" x1="1.579" x2="6.879" y1="12.515" y2="13.525" gradientTransform="translate(-.084 1.432)" gradientUnits="userSpaceOnUse" xlink:href="#b"/>
  <linearGradient id="m" x1="27" x2="36" y1="13" y2="23" gradientTransform="translate(-5.495 -43.663)" gradientUnits="userSpaceOnUse" xlink:href="#a"/>
  <linearGradient id="Q" x1="23" x2="28" y1="10" y2="15" gradientTransform="translate(-4.495 -43.663)" gradientUnits="userSpaceOnUse" xlink:href="#a"/>
  <linearGradient id="g" x1="24" x2="21.511" y1="38.815" y2="45" gradientUnits="userSpaceOnUse" xlink:href="#a"/>
  <linearGradient id="i" x1="24.339" x2="21.707" y1="31.493" y2="31.493" gradientTransform="translate(0 -1.095)" gradientUnits="userSpaceOnUse" xlink:href="#a"/>
  <linearGradient id="d" x1="10.298" x2="6.979" y1="27.025" y2="29.467" gradientTransform="translate(0 -1.095)" gradientUnits="userSpaceOnUse" xlink:href="#a"/>
  <linearGradient id="e" x1="15.498" x2="13.053" y1="25.766" y2="29.05" gradientTransform="translate(0 -1.095)" gradientUnits="userSpaceOnUse" xlink:href="#a"/>
  <linearGradient id="f" x1="19.211" x2="16.663" y1="23.382" y2="25.488" gradientTransform="translate(0 -1.095)" gradientUnits="userSpaceOnUse" xlink:href="#a"/>
  <linearGradient id="j" x1="31.821" x2="35.11" y1="36.791" y2="41.844" gradientTransform="translate(0 -1.095)" gradientUnits="userSpaceOnUse" xlink:href="#a"/>
  <linearGradient id="E" x1="31.747" x2="34.401" y1="30.775" y2="36.501" gradientTransform="translate(0 -1.095)" gradientUnits="userSpaceOnUse" xlink:href="#a"/>
  <linearGradient id="D" x1="27.526" x2="29.931" y1="25.545" y2="30.261" gradientTransform="translate(0 -1.095)" gradientUnits="userSpaceOnUse" xlink:href="#a"/>
  <linearGradient id="b">
   <stop stop-color="#003e8c" offset="0"/>
   <stop stop-color="#0062db" offset="1"/>
  </linearGradient>
  <linearGradient id="a">
   <stop stop-color="#ffd73b" offset="0"/>
   <stop stop-color="#ee8400" offset="1"/>
  </linearGradient>
  <filter id="o" x="-.199" y="-.058" width="1.398" height="1.115">
   <feGaussianBlur stdDeviation=".181"/>
  </filter>
  <filter id="c" x="-.051" y="-.159" width="1.102" height="1.319">
   <feGaussianBlur stdDeviation=".582"/>
  </filter>
  <filter id="p" x="-.387" y="-.035" width="1.774" height="1.07">
   <feGaussianBlur stdDeviation=".121"/>
  </filter>
  <filter id="q" x="-.23" y="-.146" width="1.459" height="1.292">
   <feGaussianBlur stdDeviation=".167"/>
  </filter>
  <filter id="R" x="-.285" y="-.074" width="1.57" height="1.148">
   <feGaussianBlur stdDeviation=".185"/>
  </filter>
  <filter id="S" x="-.174" y="-.078" width="1.348" height="1.157">
   <feGaussianBlur stdDeviation=".185"/>
  </filter>
  <filter id="T" x="-.116" y="-.091" width="1.231" height="1.182">
   <feGaussianBlur stdDeviation=".185"/>
  </filter>
  <filter id="U" x="-1.168" y="-.031" width="3.336" height="1.061">
   <feGaussianBlur stdDeviation=".232"/>
  </filter>
  <filter id="V" x="-.105" y="-.113" width="1.211" height="1.226">
   <feGaussianBlur stdDeviation=".193"/>
  </filter>
  <filter id="W" x="-.417" y="-.13" width="1.835" height="1.26">
   <feGaussianBlur stdDeviation=".126"/>
  </filter>
  <radialGradient id="J" cx="4.28" cy="13.9" r="3.119" gradientTransform="matrix(.68954 1 -1 .68954 16.266 2.764)" gradientUnits="userSpaceOnUse" xlink:href="#a"/>
  <radialGradient id="h" cx="22.206" cy="43" r="5" gradientTransform="matrix(1 0 0 .4 0 25.8)" gradientUnits="userSpaceOnUse" xlink:href="#a"/>
 </defs>
 <path transform="matrix(.56 0 0 .76923 9.917 9.6)" d="M38.232 42.695a13.684 4.379 0 11-27.369 0 13.684 4.379 0 1127.369 0z" fill-opacity=".769" fill-rule="evenodd" filter="url(#c)"/>
 <path d="M3.997 14.623C3.574 26.361 12.286 36.8 23.652 38.922v-2.116C13.262 33.875 7.158 25.415 7.158 15.025l-3.161-.402z" fill="url(#d)" font-family="Bitstream Vera Sans" font-weight="400" overflow="visible" style="block-progression:tb;text-indent:0;text-transform:none"/>
 <path d="M9.098 15.473c0 7.357 5.481 15.99 14.902 18.648v-2.434c-6.855-1.934-11.34-8.555-11.34-15.41l-3.562-.804z" fill="url(#e)" font-family="Bitstream Vera Sans" font-weight="400" overflow="visible" style="block-progression:tb;text-indent:0;text-transform:none"/>
 <path d="M14.243 17.717c0 4.094 4.047 9.228 9.41 10.74v-2.782c-3.593-1.013-6.607-4.151-6.607-7.743l-2.803-.215z" fill="url(#f)" font-family="Bitstream Vera Sans" font-weight="400" overflow="visible" style="block-progression:tb;text-indent:0;text-transform:none"/>
 <path transform="matrix(1.4547 0 0 1.4547 -11.324 -20.086)" d="M29 43c0 1.105-2.239 2-5 2s-5.03-.896-5-2l.016-.564C19.045 41.386 21.372 41 24 41c2.625 0 4.95.442 4.984 1.49L29 43z" fill="url(#g)" fill-rule="evenodd"/>
 <path transform="matrix(1.4547 0 0 1.4547 -11.324 -20.844)" d="M29 43a5 2 0 11-10 0 5 2 0 1110 0z" fill="url(#h)" fill-rule="evenodd"/>
 <path d="M21.916 19.221l-.337 22.404c.875 1.297 2.694.755 3.204-.008v-22.15l-2.867-.246z" fill="url(#i)" font-family="Bitstream Vera Sans" font-weight="400" overflow="visible" style="block-progression:tb;text-indent:0;text-transform:none"/>
 <path d="M23.652 38.922c10.892 3.073 20.3-3.035 20.3-13.926l-3.4-1.046c0 10.39-6.51 15.787-16.9 12.856-.523.63-1.014 1.266 0 2.116z" fill="url(#j)" font-family="Bitstream Vera Sans" font-weight="400" overflow="visible" style="block-progression:tb;text-indent:0;text-transform:none"/>
 <g>
  <path transform="translate(0 -.168)" d="M3.353 14.807c-.836.306-1.396 1.27-1.062 2 1.27 1.19 2.586 2.317 5 1.875 1-.271 1.437-1.355.937-2.688-.937-1.083-2.31-2.13-4.875-1.187z" fill="url(#J)" overflow="visible"/>
  <path transform="translate(0 -.168)" d="M4.666 6.726l-.688 9.768c.75.938 2.625.813 3 0l-1-9.768s-.563-.627-1.312 0z" fill="url(#s)" overflow="visible"/>
  <path transform="matrix(.55974 0 0 .55974 -7.31 21.672)" d="m22.505-37.663s-3 5-3 7 3.971 4.715 5 3c3-5-2.265-7.268-2-10z" fill="url(#m)" overflow="visible"/>
  <path transform="matrix(.55974 0 0 .55974 -7.31 21.672)" d="m22.505-34.663s-1.854 3.091-1.854 4.327c0 1.237 2.455 2.915 3.09 1.855 1.855-3.091-1.4-4.493-1.236-6.182z" fill="url(#Q)" overflow="visible"/>
  <path transform="matrix(.55974 0 0 .55974 -7.31 21.672)" d="M22.122-36.154c-.831 3.141-2.587 6.017-.536 7.562-1.584-.924-2.962-.716.536-7.562z" fill="#fff" filter="url(#o)" overflow="visible"/>
  <path transform="translate(0 -.168)" d="M4.689 7.129l-.486 9.422.75.442-.264-.663.265-9.113-.265-.088z" fill="#fff" fill-opacity=".667" filter="url(#p)" overflow="visible"/>
  <path transform="translate(0 -.168)" d="M4.114 14.783c-.854.632-1.276 1.698-.751 2.74-.975-.442-1.913-1.988.751-2.74z" fill="#fff" fill-opacity=".858" filter="url(#q)" overflow="visible"/>
  <path transform="translate(5.305 .926)" d="M3.353 14.807c-.836.306-1.396 1.27-1.062 2 1.27 1.19 2.586 2.317 5 1.875 1-.271 1.437-1.355.937-2.688-.937-1.083-2.31-2.13-4.875-1.187z" fill="url(#J)" overflow="visible"/>
  <path transform="translate(5.305 .926)" d="M4.666 6.726l-.688 9.768c.75.938 2.625.813 3 0l-1-9.768s-.563-.627-1.312 0z" fill="url(#s)" overflow="visible"/>
  <path transform="matrix(.55974 0 0 .55974 -2.005 22.767)" d="m22.505-37.663s-3 5-3 7 3.971 4.715 5 3c3-5-2.265-7.268-2-10z" fill="url(#m)" overflow="visible"/>
  <path transform="matrix(.55974 0 0 .55974 -2.005 22.767)" d="m22.505-34.663s-1.854 3.091-1.854 4.327c0 1.237 2.455 2.915 3.09 1.855 1.855-3.091-1.4-4.493-1.236-6.182z" fill="url(#Q)" overflow="visible"/>
  <path transform="matrix(.55974 0 0 .55974 -2.005 22.767)" d="M22.122-36.154c-.831 3.141-2.587 6.017-.536 7.562-1.584-.924-2.962-.716.536-7.562z" fill="#fff" filter="url(#o)" overflow="visible"/>
  <path transform="translate(5.305 .926)" d="M4.689 7.129l-.486 9.422.75.442-.264-.663.265-9.113-.265-.088z" fill="#fff" fill-opacity=".667" filter="url(#p)" overflow="visible"/>
  <path transform="translate(5.305 .926)" d="M4.114 14.783c-.854.632-1.276 1.698-.751 2.74-.975-.442-1.913-1.988.751-2.74z" fill="#fff" fill-opacity=".858" filter="url(#q)" overflow="visible"/>
  <path transform="translate(10.526 2.863)" d="M3.353 14.807c-.836.306-1.396 1.27-1.062 2 1.27 1.19 2.586 2.317 5 1.875 1-.271 1.437-1.355.937-2.688-.937-1.083-2.31-2.13-4.875-1.187z" fill="url(#J)" overflow="visible"/>
  <path transform="translate(10.526 2.863)" d="M4.666 6.726l-.688 9.768c.75.938 2.625.813 3 0l-1-9.768s-.563-.627-1.312 0z" fill="url(#s)" overflow="visible"/>
  <path transform="matrix(.55974 0 0 .55974 3.216 24.704)" d="m22.505-37.663s-3 5-3 7 3.971 4.715 5 3c3-5-2.265-7.268-2-10z" fill="url(#m)" overflow="visible"/>
  <path transform="matrix(.55974 0 0 .55974 3.216 24.704)" d="m22.505-34.663s-1.854 3.091-1.854 4.327c0 1.237 2.455 2.915 3.09 1.855 1.855-3.091-1.4-4.493-1.236-6.182z" fill="url(#Q)" overflow="visible"/>
  <path transform="matrix(.55974 0 0 .55974 3.216 24.704)" d="M22.122-36.154c-.831 3.141-2.587 6.017-.536 7.562-1.584-.924-2.962-.716.536-7.562z" fill="#fff" filter="url(#o)" overflow="visible"/>
  <path transform="translate(10.526 2.863)" d="M4.689 7.129l-.486 9.422.75.442-.264-.663.265-9.113-.265-.088z" fill="#fff" fill-opacity=".667" filter="url(#p)" overflow="visible"/>
  <path transform="translate(10.526 2.863)" d="M4.114 14.783c-.854.632-1.276 1.698-.751 2.74-.975-.442-1.913-1.988.751-2.74z" fill="#fff" fill-opacity=".858" filter="url(#q)" overflow="visible"/>
  <path transform="translate(17.768 4.547)" d="M3.353 14.807c-.836.306-1.396 1.27-1.062 2 1.27 1.19 2.586 2.317 5 1.875 1-.271 1.437-1.355.937-2.688-.937-1.083-2.31-2.13-4.875-1.187z" fill="url(#J)" overflow="visible"/>
  <path transform="translate(17.768 4.547)" d="M4.666 6.726l-.688 9.768c.75.938 2.625.813 3 0l-1-9.768s-.563-.627-1.312 0z" fill="url(#s)" overflow="visible"/>
  <path transform="matrix(.55974 0 0 .55974 10.458 26.388)" d="m22.505-37.663s-3 5-3 7 3.971 4.715 5 3c3-5-2.265-7.268-2-10z" fill="url(#m)" overflow="visible"/>
  <path transform="matrix(.55974 0 0 .55974 10.458 26.388)" d="m22.505-34.663s-1.854 3.091-1.854 4.327c0 1.237 2.455 2.915 3.09 1.855 1.855-3.091-1.4-4.493-1.236-6.182z" fill="url(#Q)" overflow="visible"/>
  <path transform="matrix(.55974 0 0 .55974 10.458 26.388)" d="M22.122-36.154c-.831 3.141-2.587 6.017-.536 7.562-1.584-.924-2.962-.716.536-7.562z" fill="#fff" filter="url(#o)" overflow="visible"/>
  <path transform="translate(17.768 4.547)" d="M4.689 7.129l-.486 9.422.75.442-.264-.663.265-9.113-.265-.088z" fill="#fff" fill-opacity=".667" filter="url(#p)" overflow="visible"/>
  <path transform="translate(17.768 4.547)" d="M4.114 14.783c-.854.632-1.276 1.698-.751 2.74-.975-.442-1.913-1.988.751-2.74z" fill="#fff" fill-opacity=".858" filter="url(#q)" overflow="visible"/>
 </g>
 <path d="M23.652 28.458c4.841 1.366 9.479-2.508 9.479-6.601l-3.941-.683c0 3.594-1.946 5.515-5.538 4.501-.68.832-1.098 1.726 0 2.783z" fill="url(#D)" font-family="Bitstream Vera Sans" font-weight="400" overflow="visible" style="block-progression:tb;text-indent:0;text-transform:none"/>
 <path d="M24 34.121c9.13 2.577 14.696-3.338 14.696-10.694l-2.908-.823c0 6.856-4.933 11.017-11.788 9.083-1.237 1.107-.656 1.695 0 2.434z" fill="url(#E)" font-family="Bitstream Vera Sans" font-weight="400" overflow="visible" style="block-progression:tb;text-indent:0;text-transform:none"/>
 <g>
  <path transform="translate(25.937 5.895)" d="M3.353 14.807c-.836.306-1.396 1.27-1.062 2 1.27 1.19 2.586 2.317 5 1.875 1-.271 1.437-1.355.937-2.688-.937-1.083-2.31-2.13-4.875-1.187z" fill="url(#J)" overflow="visible"/>
  <path transform="translate(25.937 5.895)" d="M4.666 6.726l-.688 9.768c.75.938 2.625.813 3 0l-1-9.768s-.563-.627-1.312 0z" fill="url(#s)" overflow="visible"/>
  <path transform="matrix(.55974 0 0 .55974 18.627 27.735)" d="m22.505-37.663s-3 5-3 7 3.971 4.715 5 3c3-5-2.265-7.268-2-10z" fill="url(#m)" overflow="visible"/>
  <path transform="matrix(.55974 0 0 .55974 18.627 27.735)" d="m22.505-34.663s-1.854 3.091-1.854 4.327c0 1.237 2.455 2.915 3.09 1.855 1.855-3.091-1.4-4.493-1.236-6.182z" fill="url(#Q)" overflow="visible"/>
  <path transform="matrix(.55974 0 0 .55974 18.627 27.735)" d="M22.122-36.154c-.831 3.141-2.587 6.017-.536 7.562-1.584-.924-2.962-.716.536-7.562z" fill="#fff" filter="url(#o)" overflow="visible"/>
  <path transform="translate(25.937 5.895)" d="M4.689 7.129l-.486 9.422.75.442-.264-.663.265-9.113-.265-.088z" fill="#fff" fill-opacity=".667" filter="url(#p)" overflow="visible"/>
  <path transform="translate(25.937 5.895)" d="M4.114 14.783c-.854.632-1.276 1.698-.751 2.74-.975-.442-1.913-1.988.751-2.74z" fill="#fff" fill-opacity=".858" filter="url(#q)" overflow="visible"/>
  <path transform="translate(31.663 7.579)" d="M3.353 14.807c-.836.306-1.396 1.27-1.062 2 1.27 1.19 2.586 2.317 5 1.875 1-.271 1.437-1.355.937-2.688-.937-1.083-2.31-2.13-4.875-1.187z" fill="url(#J)" overflow="visible"/>
  <path transform="translate(31.663 7.579)" d="M4.666 6.726l-.688 9.768c.75.938 2.625.813 3 0l-1-9.768s-.563-.627-1.312 0z" fill="url(#s)" overflow="visible"/>
  <path transform="matrix(.55974 0 0 .55974 24.353 29.42)" d="m22.505-37.663s-3 5-3 7 3.971 4.715 5 3c3-5-2.265-7.268-2-10z" fill="url(#m)" overflow="visible"/>
  <path transform="matrix(.55974 0 0 .55974 24.353 29.42)" d="m22.505-34.663s-1.854 3.091-1.854 4.327c0 1.237 2.455 2.915 3.09 1.855 1.855-3.091-1.4-4.493-1.236-6.182z" fill="url(#Q)" overflow="visible"/>
  <path transform="matrix(.55974 0 0 .55974 24.353 29.42)" d="M22.122-36.154c-.831 3.141-2.587 6.017-.536 7.562-1.584-.924-2.962-.716.536-7.562z" fill="#fff" filter="url(#o)" overflow="visible"/>
  <path transform="translate(31.663 7.579)" d="M4.689 7.129l-.486 9.422.75.442-.264-.663.265-9.113-.265-.088z" fill="#fff" fill-opacity=".667" filter="url(#p)" overflow="visible"/>
  <path transform="translate(31.663 7.579)" d="M4.114 14.783c-.854.632-1.276 1.698-.751 2.74-.975-.442-1.913-1.988.751-2.74z" fill="#fff" fill-opacity=".858" filter="url(#q)" overflow="visible"/>
  <path transform="translate(37.305 9.095)" d="M3.353 14.807c-.836.306-1.396 1.27-1.062 2 1.27 1.19 2.586 2.317 5 1.875 1-.271 1.437-1.355.937-2.688-.937-1.083-2.31-2.13-4.875-1.187z" fill="url(#J)" overflow="visible"/>
  <path transform="translate(37.305 9.095)" d="M4.666 6.726l-.688 9.768c.75.938 2.625.813 3 0l-1-9.768s-.563-.627-1.312 0z" fill="url(#s)" overflow="visible"/>
  <path transform="matrix(.55974 0 0 .55974 29.995 30.935)" d="m22.505-37.663s-3 5-3 7 3.971 4.715 5 3c3-5-2.265-7.268-2-10z" fill="url(#m)" overflow="visible"/>
  <path transform="matrix(.55974 0 0 .55974 29.995 30.935)" d="m22.505-34.663s-1.854 3.091-1.854 4.327c0 1.237 2.455 2.915 3.09 1.855 1.855-3.091-1.4-4.493-1.236-6.182z" fill="url(#Q)" overflow="visible"/>
  <path transform="matrix(.55974 0 0 .55974 29.995 30.935)" d="M22.122-36.154c-.831 3.141-2.587 6.017-.536 7.562-1.584-.924-2.962-.716.536-7.562z" fill="#fff" filter="url(#o)" overflow="visible"/>
  <path transform="translate(37.305 9.095)" d="M4.689 7.129l-.486 9.422.75.442-.264-.663.265-9.113-.265-.088z" fill="#fff" fill-opacity=".667" filter="url(#p)" overflow="visible"/>
  <path transform="translate(37.305 9.095)" d="M4.114 14.783c-.854.632-1.276 1.698-.751 2.74-.975-.442-1.913-1.988.751-2.74z" fill="#fff" fill-opacity=".858" filter="url(#q)" overflow="visible"/>
 </g>
 <path d="M4.585 18.525c-.12 2.132 1.02 4.857 1.548 6.014-.463-1.783-1.516-3.671-.595-5.716l-.953-.298z" fill="#fff" fill-opacity=".84" filter="url(#R)" overflow="visible"/>
 <path d="M10.039 19.83c.245 2.122 1.83 4.614 2.55 5.664-.761-1.679-2.12-3.24-1.56-5.413l-.99-.25z" fill="#fff" fill-opacity=".84" filter="url(#S)" overflow="visible"/>
 <path d="M15.466 21.295c.75 1.999 2.892 4.033 3.842 4.878-1.143-1.444-2.808-2.569-2.79-4.812l-1.052-.066z" fill="#fff" fill-opacity=".84" filter="url(#T)" overflow="visible"/>
 <path d="M22.151 23.229l-.298 18.221.477-.12V23.706l-.179-.476z" fill="#fff" fill-opacity=".933" filter="url(#U)" overflow="visible"/>
 <path d="M21.02 39.306c-2.982.366-5.053 2.83-2.442 4.109-2.534-.38-3.436-3.58 2.442-4.109z" fill="#fff" fill-opacity=".764" filter="url(#V)" overflow="visible"/>
 <path d="M23.848 25.879c-.278.65-.578 1.286-.238 2.322-.484-.388-.887-1.5.238-2.322zM24.295 31.655c-.278.65-.578 1.286-.238 2.322-.485-.388-.887-1.5.238-2.322zM24.027 36.835c-.278.65-.578 1.286-.238 2.322-.485-.388-.887-1.5.238-2.322z" fill="#fff" fill-opacity=".831" filter="url(#W)" overflow="visible"/>
</svg>
