<?xml version="1.0" encoding="UTF-8"?>
<svg width="48" height="48" xmlns="http://www.w3.org/2000/svg" xmlns:xlink="http://www.w3.org/1999/xlink">
 <defs>
  <linearGradient id="a">
   <stop stop-color="#a20000" offset="0"/>
   <stop stop-color="#d40000" offset="1"/>
  </linearGradient>
  <linearGradient id="j" x1="19" x2="13.164" y1="1030.4" y2="1020" gradientTransform="translate(2 -6.26)" gradientUnits="userSpaceOnUse" xlink:href="#a"/>
  <linearGradient id="k" x1="15.203" x2="15.203" y1="1039.4" y2="1033.9" gradientTransform="translate(2 -5.26)" gradientUnits="userSpaceOnUse" xlink:href="#a"/>
  <linearGradient id="l" x1="16" x2="16" y1="1048.4" y2="1041" gradientTransform="translate(1 -3.26)" gradientUnits="userSpaceOnUse" xlink:href="#a"/>
  <linearGradient id="g" x1="7.866" x2="2" y1="1046.9" y2="1050.4" gradientTransform="translate(1 -3.26)" gradientUnits="userSpaceOnUse" xlink:href="#a"/>
  <linearGradient id="f" x1="4" x2="-.883" y1="1035.9" y2="1041.4" gradientTransform="translate(2 -5.26)" gradientUnits="userSpaceOnUse" xlink:href="#a"/>
  <linearGradient id="e" x1="8.027" x2="6" y1="1029.1" y2="1032.4" gradientTransform="translate(2 -6.26)" gradientUnits="userSpaceOnUse" xlink:href="#a"/>
  <linearGradient id="h" x1="25.969" x2="43.385" y1="1030.4" y2="1030.4" gradientTransform="translate(0 -2.046)" gradientUnits="userSpaceOnUse">
   <stop stop-color="#003e8c" offset="0"/>
   <stop stop-color="#0062db" offset="1"/>
  </linearGradient>
  <filter id="m" x="-.207" y="-.16" width="1.414" height="1.321">
   <feGaussianBlur stdDeviation=".333"/>
  </filter>
  <filter id="n" x="-.207" y="-.16" width="1.414" height="1.321">
   <feGaussianBlur stdDeviation=".333"/>
  </filter>
  <filter id="o" x="-.207" y="-.16" width="1.414" height="1.321">
   <feGaussianBlur stdDeviation=".333"/>
  </filter>
  <filter id="p" x="-.168" y="-.257" width="1.336" height="1.514">
   <feGaussianBlur stdDeviation=".309"/>
  </filter>
  <filter id="q" x="-.578" y="-.154" width="2.156" height="1.308">
   <feGaussianBlur stdDeviation=".309"/>
  </filter>
  <filter id="d" x="-.08" y="-.207" width="1.16" height="1.415">
   <feGaussianBlur stdDeviation="1.342"/>
  </filter>
  <radialGradient id="i" cx="36.136" cy="1029.5" r="8.728" gradientTransform="matrix(1 0 0 1.156 -.009 -162.63)" gradientUnits="userSpaceOnUse">
   <stop stop-color="#e6e6e6" offset="0"/>
   <stop stop-color="#d5d5d5" offset="1"/>
  </radialGradient>
 </defs>
 <path transform="translate(0 -1004.4)" d="M40.055 1033.498c-1.247-.03-2.694.152-4.188.563-3.3.908-5.795 2.662-6.28 4.25-2.151.275-7.132 1.818-12.845 4.031-7.445 2.885-13.245 5.81-12.968 6.531.277.722 6.523-1.052 13.968-3.937 5.41-2.096 9.93-4.191 11.907-5.469.7 1.619 4.171 2.116 8 1.063 3.983-1.097 6.833-3.44 6.343-5.219-.306-1.112-1.86-1.762-3.937-1.813z" fill-opacity=".769" filter="url(#d)"/>
 <path transform="translate(0 -1004.4)" d="m30 1016.1c-6.631-5.443-11 4-19 1l-2 2-1 7c12 0 11.571-10.179 23-7l1-1-2-2z" fill="url(#e)" font-family="Bitstream Vera Sans" font-weight="400" overflow="visible" style="block-progression:tb;text-indent:0;text-transform:none"/>
 <path transform="translate(0 -1004.4)" d="M24.406 1025.833C20.282 1023.276 16 1030.1 9 1028.1l-2 2-1 6c7.177-.546 14-9 19-8l1-1-1.594-1.268z" fill="url(#f)" font-family="Bitstream Vera Sans" font-weight="400" overflow="visible" style="block-progression:tb;text-indent:0;text-transform:none"/>
 <path transform="translate(0 -1004.4)" d="M26.625 1032.333c-7.277-.221-10.984 5.455-20.625 5.768l-2 2-1 7c10.83.117 17-10 25-12l1-2-2.375-.768z" fill="url(#g)" font-family="Bitstream Vera Sans" font-weight="400" overflow="visible" style="block-progression:tb;text-indent:0;text-transform:none"/>
 <path transform="translate(0 -1004.4)" d="m41.716 1037.1-6.018-3.564-3.346 4.057-1.424 1.482 1.072-7.717-6.031-3.533 1.432-1.467 5.248 0.26 1.043-7.722 1.408-1.28 1.649 8.252 6.636-1.4-4.752 5.675 4.438 5.447-1.355 1.51z" fill="url(#h)"/>
 <path transform="translate(0 -1004.4)" d="m43.156 1035.6-6.018-3.564-4.771 5.54 1.072-7.718-6.031-3.533 6.68-1.206 1.044-7.723 3.056 6.972 6.677-1.24-4.792 5.515 3.083 6.957z" fill="url(#i)"/>
 <path transform="translate(0 -1004.4)" d="M31.906 1015.77C25 1010.101 21 1018.101 11 1017.101l-1 7c12 0 10.571-9.179 22-6l-.094-2.33z" fill="url(#j)" font-family="Bitstream Vera Sans" font-weight="400" overflow="visible" style="block-progression:tb;text-indent:0;text-transform:none"/>
 <path transform="translate(0 -1004.4)" d="M26.406 1023.833C22 1021.1 16.826 1028.984 9 1028.1l-1 6c7.177-.546 13-8 18-7l.406-3.268z" fill="url(#k)" font-family="Bitstream Vera Sans" font-weight="400" overflow="visible" style="block-progression:tb;text-indent:0;text-transform:none"/>
 <path transform="translate(0 -1004.4)" d="M28.625 1030.333C21 1030.1 16.658 1038.547 6 1038.1l-1 7c10.83.117 16-10 24-12l-.375-2.768z" fill="url(#l)" font-family="Bitstream Vera Sans" font-weight="400" overflow="visible" style="block-progression:tb;text-indent:0;text-transform:none"/>
 <path transform="translate(0 -1004.4)" d="m11.398 1017.8-0.803 4.976c1.168-1.736 0.978-4.758 3.853-4.976h-3.05z" fill="#fff" fill-opacity=".775" filter="url(#m)"/>
 <path transform="translate(0 -1004.4)" d="M9.23 1028.409l-.802 4.977c1.167-1.736.978-4.759 3.853-4.977H9.23z" fill="#fff" fill-opacity=".775" filter="url(#n)"/>
 <path transform="translate(0 -1004.4)" d="m6.582 1038.4-0.803 4.977c1.168-1.736 0.978-4.759 3.853-4.977h-3.05z" fill="#fff" fill-opacity=".775" filter="url(#o)"/>
 <path transform="translate(0 -1004.4)" d="M32.107 1026.081l-3.612.402 4.415 2.488c-.865-.83-1.81-1.643-.803-2.89z" fill="#fff" fill-opacity=".791" filter="url(#p)"/>
 <path transform="translate(0 -1004.4)" d="M34.916 1023.834l.482-4.816.803 2.167c-1.177-.24-.878 1.734-1.285 2.649z" fill="#fff" fill-opacity=".791" filter="url(#q)"/>
</svg>
