<?xml version="1.0" encoding="UTF-8"?>
<svg width="48" height="48" xmlns="http://www.w3.org/2000/svg" xmlns:xlink="http://www.w3.org/1999/xlink">
 <defs>
  <radialGradient id="e" cx="12.522" cy="1023.8" r="13.281" gradientTransform="matrix(1.6881 2.0101 -1.1969 1.0052 1216.8 -32.602)" gradientUnits="userSpaceOnUse" xlink:href="#a"/>
  <radialGradient id="f" cx="22.936" cy="1026.3" r="8.525" gradientTransform="matrix(2.6536 2.3219 -2.3321 2.6653 2349.1 -1764.8)" gradientUnits="userSpaceOnUse" xlink:href="#b"/>
  <radialGradient id="h" cx="11.658" cy="1027.6" r="13.241" gradientTransform="matrix(1.7516 .01359 -.01212 1.5625 3.692 -578.2)" gradientUnits="userSpaceOnUse" xlink:href="#c"/>
  <radialGradient id="i" cx="29.691" cy="36.449" r="4.141" gradientTransform="matrix(1.6294 1.9232 -.93861 .79522 15.523 -50.175)" gradientUnits="userSpaceOnUse" xlink:href="#b"/>
  <radialGradient id="r" cx="15.739" cy=".856" r="13.032" gradientTransform="matrix(.74994 .74994 -.68145 .68145 4.52 -11.475)" gradientUnits="userSpaceOnUse" xlink:href="#a"/>
  <linearGradient id="q" x1="12.116" x2="8.451" y1="2.388" y2="5.063" gradientUnits="userSpaceOnUse" xlink:href="#b"/>
  <linearGradient id="g" x1="26.97" x2="31.438" y1="39.973" y2="40.844" gradientUnits="userSpaceOnUse" xlink:href="#c"/>
  <linearGradient id="a">
   <stop stop-color="#e6e6e6" offset="0"/>
   <stop stop-color="#d5d5d5" offset="1"/>
  </linearGradient>
  <linearGradient id="c">
   <stop stop-color="#a20000" offset="0"/>
   <stop stop-color="#d40000" offset="1"/>
  </linearGradient>
  <linearGradient id="b">
   <stop stop-color="#003e8c" offset="0"/>
   <stop stop-color="#0062db" offset="1"/>
  </linearGradient>
  <filter id="n">
   <feGaussianBlur stdDeviation=".144"/>
  </filter>
  <filter id="k" x="-.284" y="-.212" width="1.568" height="1.424">
   <feGaussianBlur stdDeviation=".651"/>
  </filter>
  <filter id="j" x="-.16" y="-.057" width="1.32" height="1.114">
   <feGaussianBlur stdDeviation=".442"/>
  </filter>
  <filter id="d" x="-.067" y="-.589" width="1.134" height="2.179">
   <feGaussianBlur stdDeviation=".745"/>
  </filter>
 </defs>
 <path d="M31.688 42.219c-3.283 0-5.97.654-5.97 1.468 0 .815 2.687 1.5 5.97 1.5 3.282 0 5.937-.685 5.937-1.5 0-.814-2.655-1.468-5.938-1.468zm-13.813.062c-3.868 0-7 .686-7 1.5s3.132 1.469 7 1.469 7.031-.655 7.031-1.469c0-.814-3.163-1.5-7.031-1.5z" fill-opacity=".769" filter="url(#d)"/>
 <path d="M24.362 41.042l2.82 2.819h9.395L30 33.525l-5.638 7.517z" fill="#ccc"/>
 <path transform="translate(0 -1004.4)" d="m11.625 1048.4 11.798-0.173c3.91-7.084 10.528-14.022 11.275-21.61 1.099-11.162-1.237-19.085-13.154-19.733-13.997 2.39-13.155 9.397-13.155 15.034 0 7.343 5.155 12.08 8.457 16.913 1.892-4.076 4.698-7.517 6.577-11.275-2.205-2.287-4.27-3.927-5.638-9.396-0.94-3.759 2.819-7.517 4.698-4.698 7.763 11.644-7.239 23.292-10.858 34.938z" fill="url(#e)"/>
 <path transform="translate(0 -1004.4)" d="M15.406 1013.481c-4.907 5.991.988 12.596 5.938 17.844-3.132 5.637-7.327 10.928-9.219 17.062l4.13-.063c1.782-8.437 14.412-19.309 12.807-28.28-1.047-5.86-4.932-9.697-8.687-9.5-2.14.11-3.676 1.359-4.969 2.937zm5.281-.968c.623-.171 1.198.244 1.782.937 1.72 2.042 2.636 4.29 2.625 6.906-.011 2.71-.988 5.234-2.063 7.657-3.051-3.55-6.462-7.852-5.218-12.47.457-1.696 1.525-2.66 2.875-3.03z" fill="url(#f)"/>
 <path d="M26.781 37.813l-2.156 2.874 2.125 2.75.438.438h4.25c-1.855-1.973-3.59-4.265-4.657-6.063z" fill="url(#g)"/>
 <path transform="translate(0 -1004.4)" d="M10.781 1011.793c-2.563 2.702-2.413 6.547-2.406 10.126.004 2.284.526 4.295 1.313 6.156.004.01-.005.022 0 .031.02.041.04.084.062.125 1.937 3.516 5.288 7.081 7.219 10.313.8-1.296 1.638-2.583 2.437-3.875-2.471-3.558-5.354-6.093-7.603-10.699-1.503-3.077-1.394-7.55.353-10.52 1.636-2.78 5.22-4.884 8.438-4.688 4.252.26 8.547 3.638 10.343 7.5 1.854 3.986.342 9.42-.937 13.625-1.969 6.474-8.866 16.206-10.594 18.407l3.594-.063c1.602-1.874 2.402-3.61 3.719-5.312.013-.02.018-.043.031-.063 1.687-2.518 3.471-5.026 4.906-7.594.739-1.479 1.275-3.166 2-4.781.123-.274 2.499-11.171.094-15.157-1.445-2.394-2.53-5.162-4.969-6.656-2.234-1.368-4.902-1.836-7.468-1.75-4.089.137-7.775 1.97-10.532 4.875z" fill="url(#h)"/>
 <path d="M29.875 33.688L28.156 36c2.061 2.632 3.614 5.243 5.157 7.875h3.124l-6.562-10.188z" fill="url(#i)"/>
 <path d="m19.375 3.375c-5.301 4.384-9.092 13.625-9 20.375-2.042-4.167-5.125-18 9-20.375z" fill="#fff" fill-opacity=".664" filter="url(#j)"/>
 <path d="M17.25 34.125l-5.375 9.75 6.25-.375c-3.37-.43-1.367-6.047-.875-9.375z" fill="#fff" fill-opacity=".57" filter="url(#k)"/>
 <path transform="matrix(.51105 0 0 .51105 4.628 11.284)" d="M26.167 14.288l-8.295-5.55-7.813 6.21 2.714-9.604L4.453-.17l1.33-1.573 8.643 1.187 2.672-9.616 1.471-1.44L20.547-.807l11.245-2.017-1.274 1.587-7.841 6.174 4.87 7.683-1.38 1.667z" fill="url(#q)"/>
 <path transform="matrix(.51105 0 0 .51105 5.33 10.454)" d="M26.167 14.288l-8.295-5.55-7.813 6.21 2.714-9.604L4.453-.17l9.973-.386 2.672-9.616 3.449 9.365 9.97-.43-7.84 6.174 3.49 9.35z" fill="url(#r)"/>
 <path transform="translate(-8.08 4.977)" d="M20.067 7.465l-3.612-1.846 4.736-.16 1.043-4.014.562 2.167c-.708-.534-1.184.816-1.686 1.926-3.045.152-2.684.923-1.043 1.927z" fill="#fff" fill-opacity=".766" filter="url(#n)"/>
 <path transform="matrix(.51105 0 0 .51105 19.518 12.848)" d="M26.167 14.288l-8.295-5.55-7.813 6.21 2.714-9.604L4.453-.17l1.33-1.573 8.643 1.187 2.672-9.616 1.471-1.44L20.547-.807l11.245-2.017-1.274 1.587-7.841 6.174 4.87 7.683-1.38 1.667z" fill="url(#q)"/>
 <path transform="matrix(.51105 0 0 .51105 20.22 12.018)" d="M26.167 14.288l-8.295-5.55-7.813 6.21 2.714-9.604L4.453-.17l9.973-.386 2.672-9.616 3.449 9.365 9.97-.43-7.84 6.174 3.49 9.35z" fill="url(#r)"/>
 <path transform="translate(6.81 6.542)" d="M20.067 7.465l-3.612-1.846 4.736-.16 1.043-4.014.562 2.167c-.708-.534-1.184.816-1.686 1.926-3.045.152-2.684.923-1.043 1.927z" fill="#fff" fill-opacity=".766" filter="url(#n)"/>
 <path transform="matrix(.51105 0 0 .51105 12.709 6.306)" d="M26.167 14.288l-8.295-5.55-7.813 6.21 2.714-9.604L4.453-.17l1.33-1.573 8.643 1.187 2.672-9.616 1.471-1.44L20.547-.807l11.245-2.017-1.274 1.587-7.841 6.174 4.87 7.683-1.38 1.667z" fill="url(#q)"/>
 <path transform="matrix(.51105 0 0 .51105 13.41 5.476)" d="M26.167 14.288l-8.295-5.55-7.813 6.21 2.714-9.604L4.453-.17l9.973-.386 2.672-9.616 3.449 9.365 9.97-.43-7.84 6.174 3.49 9.35z" fill="url(#r)"/>
 <path d="M20.067 7.465l-3.612-1.846 4.736-.16 1.043-4.014.562 2.167c-.708-.534-1.184.816-1.686 1.926-3.045.152-2.684.923-1.043 1.927z" fill="#fff" fill-opacity=".766" filter="url(#n)"/>
</svg>
