<?xml version="1.0" encoding="UTF-8"?>
<svg width="48" height="48" xmlns="http://www.w3.org/2000/svg" xmlns:xlink="http://www.w3.org/1999/xlink">
 <defs>
  <linearGradient id="j" x1="26.958" x2="30.101" y1="1023.1" y2="1023.1" gradientTransform="translate(0 1.97)" gradientUnits="userSpaceOnUse" xlink:href="#b"/>
  <linearGradient id="a">
   <stop stop-color="#a20000" offset="0"/>
   <stop stop-color="#d40000" offset="1"/>
  </linearGradient>
  <linearGradient id="e" x1="33.414" x2="14.842" y1="1035.4" y2="1043.5" gradientTransform="translate(0 1.97)" gradientUnits="userSpaceOnUse" xlink:href="#a"/>
  <linearGradient id="g" x1="33.36" x2="15.411" y1="1028.9" y2="1028.3" gradientTransform="translate(0 1.97)" gradientUnits="userSpaceOnUse" xlink:href="#a"/>
  <linearGradient id="l" x1="15.313" x2="33.363" y1="1033.3" y2="1038.8" gradientTransform="translate(0 1.97)" gradientUnits="userSpaceOnUse">
   <stop stop-color="#003e8c" offset="0"/>
   <stop stop-color="#0062db" offset="1"/>
  </linearGradient>
  <linearGradient id="k" x1="30.089" x2="32.906" y1="16.297" y2="16.297" gradientTransform="translate(0 1006.3)" gradientUnits="userSpaceOnUse" xlink:href="#b"/>
  <linearGradient id="b">
   <stop stop-color="#e6e6e6" offset="0"/>
   <stop stop-color="#d5d5d5" offset="1"/>
  </linearGradient>
  <linearGradient id="h" x1="15.411" x2="17.589" y1="19.224" y2="19.224" gradientTransform="translate(0 1006.3)" gradientUnits="userSpaceOnUse" xlink:href="#b"/>
  <linearGradient id="i" x1="21.304" x2="25.117" y1="1023.9" y2="1023.9" gradientTransform="translate(0 1.97)" gradientUnits="userSpaceOnUse" xlink:href="#b"/>
  <filter id="s" x="-.151" y="-.148" width="1.302" height="1.296">
   <feGaussianBlur stdDeviation=".469"/>
  </filter>
  <filter id="d" x="-.095" y="-.359" width="1.189" height="1.717">
   <feGaussianBlur stdDeviation="1.39"/>
  </filter>
  <filter id="t" x="-.123" y="-.088" width="1.246" height="1.176">
   <feGaussianBlur stdDeviation=".263"/>
  </filter>
  <filter id="q" x="-.092" y="-.126" width="1.185" height="1.252">
   <feGaussianBlur stdDeviation=".411"/>
  </filter>
  <filter id="r" x="-.092" y="-.126" width="1.185" height="1.252">
   <feGaussianBlur stdDeviation=".411"/>
  </filter>
  <filter id="u" x="-.302" y="-.23" width="1.605" height="1.461">
   <feGaussianBlur stdDeviation=".356"/>
  </filter>
  <radialGradient id="f" cx="13.568" cy="15.359" r="7.492" gradientTransform="matrix(4.5094 .05219 -.0236 2.0386 -45.612 1004.7)" gradientUnits="userSpaceOnUse" xlink:href="#a"/>
  <radialGradient id="n" cx="16.556" cy="19.074" r="3.536" gradientTransform="matrix(1 0 0 .99045 0 .182)" gradientUnits="userSpaceOnUse" xlink:href="#b"/>
  <radialGradient id="m" cx="17.354" cy="30.081" r="2.563" gradientTransform="matrix(1.3876 1.0313 -.6329 .85153 12.156 992.7)" gradientUnits="userSpaceOnUse" xlink:href="#b"/>
  <radialGradient id="p" cx="14.614" cy="17.009" r="7.5" gradientTransform="matrix(1 0 0 .66667 0 6)" gradientUnits="userSpaceOnUse" xlink:href="#a"/>
  <radialGradient id="o" cx="30.953" cy="27.938" r="2.391" gradientTransform="matrix(1 0 0 1.2157 0 1000.3)" gradientUnits="userSpaceOnUse" xlink:href="#b"/>
 </defs>
 <path transform="matrix(.99507 0 0 .85397 1.753 5.387)" d="M41 38.349a17.605 4.651 0 11-35.21 0 17.605 4.651 0 1135.21 0z" fill-opacity=".769" filter="url(#d)"/>
 <path transform="translate(0 -1004.4)" d="m43.538 1032.8c0.428 3.32-3.69 9.29-17.193 11.92-13.226 2.576-18.796-1.784-19.385-5.08-0.91-5.085 8.288-4.186 18.478-5.498 10.19-1.313 17.351-9.639 18.1-1.342z" fill="url(#e)"/>
 <path transform="translate(0 -1004.4)" d="m43.057 1032.1c0.427 3.32-3.69 9.29-17.194 11.92-13.226 2.576-18.795-1.784-19.385-5.08-0.909-5.086 8.289-4.186 18.478-5.498 10.19-1.313 17.352-9.639 18.1-1.342z" fill="url(#f)"/>
 <path transform="translate(0 -1004.4)" d="M33.341 1035.874c.273 2.12-2.356 3.95-8.01 4.679-5.655.728-8.687-.563-8.99-2.679-1.108-7.742-3.363-14.72-7.19-21.556l23.664-3.237c-1.006 8.56-.16 15.36.526 22.793z" fill="url(#g)"/>
 <path transform="translate(0 -1004.4)" d="m11.455 1016.7c2.843 5.86 5.072 11.807 6.502 17.667l2.03-0.08c-1.6-6.063-3.333-11.993-5.634-17.354l-2.898-0.233z" fill="url(#h)"/>
 <path transform="translate(0 -1004.4)" d="M17.491 1017.642c2.64 6.29 3.594 11.457 4.896 16.856l2.376-.321c-1.401-5.565-2.537-11.307-3.258-16.872l-4.014.337z" fill="url(#i)"/>
 <path transform="translate(0 -1004.4)" d="m23.815 1017.5c1.781 5.455 2.366 10.91 3.268 16.366l2.665-0.907c-1.002-5.51-2.481-10.766-2.601-16.495l-3.332 1.035z" fill="url(#j)"/>
 <path transform="translate(0 -1004.4)" d="M32.813 1013.239l-2.72 2c-.075 5.912.854 11.323 1.688 16.78l1.125-.968c-.51-5.626-.854-11.206-.093-17.812z" fill="url(#k)"/>
 <path transform="translate(0 -1004.4)" d="M32.781 1029.832c-5.548 2.688-12.455 3.824-17.468 2.5.414 1.81.76 3.64 1.03 5.531.304 2.117 3.346 3.416 9 2.688 5.655-.728 8.274-2.567 8-4.687-.188-2.049-.39-4.03-.562-6.032z" fill="url(#l)"/>
 <path transform="translate(0 -1004.4)" d="M18.094 1033.488l-.594 2.125-1.531.094.094.532 1.093.719-.5 1.75c.038.063.081.125.125.187l1.532-1.188 1.843 1.22-.781-2.094 1.719-1.376-2.219.094-.781-2.062z" fill="url(#m)"/>
 <path transform="rotate(2.383 -379.39 281.89) scale(.81663)" d="M20.87 21.993l-2.389-1.316L16.5 22.55l.514-2.678-2.394-1.306 2.706-.339.502-2.68 1.159 2.468 2.704-.35-1.99 1.865 1.17 2.463z" fill="url(#n)"/>
 <path transform="translate(0 -1004.4)" d="M30.656 1031.363l.032 2.22-2.125.687 2.125.687v2.219l1.312-1.813 1.344.438c-.029-.308-.065-.601-.094-.906l-.469-.625.375-.5c-.03-.324-.063-.647-.093-.969l-1.063.344-1.344-1.782z" fill="url(#o)"/>
 <path transform="matrix(1.5869 -.20443 .115 .89262 -8.924 -2.515)" d="m25 18c0 2.761-3.358 5-7.5 5s-7.5-2.239-7.5-5 3.358-5 7.5-5 7.5 2.239 7.5 5z" fill="url(#p)"/>
 <path transform="translate(0 -1004.4)" d="m20.594 1010.5c-10.572 2.424-10.384 5.484-7.513 7.778-9.418-3.734 4.762-8.457 7.513-7.778z" fill="#fff" fill-opacity=".631" filter="url(#q)"/>
 <path transform="translate(0 -1004.4)" d="m21.384 1018c10.572-2.424 10.384-5.484 7.513-7.778 9.418 3.734-4.762 8.457-7.513 7.778z" fill="#fff" fill-opacity=".631" filter="url(#r)"/>
 <path transform="translate(0 -1004.4)" d="M14.584 1035.24c-3.506.881-9.642 1.317-3.977 7.602-.467.212-9.711-7.168 3.977-7.602z" fill="#fff" fill-opacity=".66" filter="url(#s)"/>
 <path transform="translate(0 -1004.4)" d="M15.733 1019.419c-1.7-.497-3.216-.255-5.126-1.591l3.093 7.16c-.67-2.6-3.67-6.485 2.033-5.57z" fill="#fff" fill-opacity=".811" filter="url(#t)"/>
 <path transform="translate(0 -1004.4)" d="M15.733 1032.942l.796 3.713c-.494-2.233.17-3.307 2.033-3.182l-2.829-.53z" fill="#fff" fill-opacity=".828" filter="url(#u)"/>
</svg>
