<?xml version="1.0" encoding="UTF-8"?>
<svg width="48" height="48" xmlns="http://www.w3.org/2000/svg" xmlns:xlink="http://www.w3.org/1999/xlink">
 <defs>
  <linearGradient id="h" x1="40.189" x2="3.894" y1="29.148" y2="15.843" gradientTransform="translate(0 1.18)" gradientUnits="userSpaceOnUse" xlink:href="#c"/>
  <linearGradient id="a">
   <stop stop-color="#7ed249" offset="0"/>
   <stop stop-color="#286325" offset="1"/>
  </linearGradient>
  <linearGradient id="b">
   <stop stop-color="#a20000" offset="0"/>
   <stop stop-color="#d40000" offset="1"/>
  </linearGradient>
  <linearGradient id="i" x1="8.188" x2="36.219" y1="-.295" y2="10.905" gradientTransform="translate(0 1.18)" gradientUnits="userSpaceOnUse" xlink:href="#b"/>
  <linearGradient id="c">
   <stop stop-color="#555" offset="0"/>
   <stop offset="1"/>
  </linearGradient>
  <linearGradient id="j" x1="43.334" x2="10.458" y1="45.918" y2="26.938" gradientTransform="translate(0 1.18)" gradientUnits="userSpaceOnUse" xlink:href="#a"/>
  <linearGradient id="e" x1="39.747" x2="28.547" y1="29.221" y2="22.327" gradientTransform="translate(2.274 1.18)" gradientUnits="userSpaceOnUse" xlink:href="#c"/>
  <linearGradient id="f" x1="36.219" x2="16.898" y1="6.863" y2="5.095" gradientTransform="translate(2.274 1.18)" gradientUnits="userSpaceOnUse" xlink:href="#b"/>
  <linearGradient id="g" x1="18.492" x2="31.932" y1="34.365" y2="41.792" gradientTransform="translate(2.274 1.18)" gradientUnits="userSpaceOnUse" xlink:href="#a"/>
  <filter id="k" x="-.14" y="-.119" width="1.281" height="1.238">
   <feGaussianBlur stdDeviation=".687"/>
  </filter>
  <filter id="d" x="-.089" y="-.52" width="1.178" height="2.039">
   <feGaussianBlur stdDeviation=".656"/>
  </filter>
 </defs>
 <path d="M24.969 40.774c-3.465 0-6.282.663-6.282 1.5s2.817 1.531 6.282 1.531c2.824 0 5.182-.474 5.968-1.094.326.372 1.392.657 2.657.657 1.523 0 2.75-.387 2.75-.875 0-.489-1.227-.907-2.75-.907-1.025 0-1.93.203-2.407.47-.428-.737-3.053-1.282-6.218-1.282z" fill-opacity=".769" fill-rule="evenodd" filter="url(#d)"/>
 <path d="M10.355 14.5c.307.702.55 1.43.748 2.164.327.713.868 1.286 1.337 1.898.452.481 1.099.361 1.648.341.625-.074 1.12.452 1.718.506.948.058 1.843-.503 2.803-.177.521.095.693.63.898 1.061.222.396.659.619 1.073.568.542.025 1.018.565.915 1.139-.05.886-.853 1.515-.71 2.447.03.41.285.742.521 1.055.428.638.761 1.379.767 2.152.101.825.093 1.652.175 2.478-.212 1-1.381 1.388-1.443 2.463-.194 1.136.375 2.236.759 3.294.306 1.053-.145 2.171.358 3.192.334.783.797 1.616.61 2.478-.049.585.426 1.178.998 1.128.604.05 1.228-.036 1.81.23 1.16.213 2.221-.39 3.113-1.035.595-.405 1.16-.898 1.473-1.587.398-.58 1.274-.457 1.637-1.07.28-.57-.121-1.363.352-1.846.678-.677 1.657-.825 2.514-1.156.433-.114.735-.481.853-.928.14-.513.202-1.055.253-1.59 0-.94-.176-1.901.011-2.822.076-.75.435-1.463 1.056-1.829.675-.497 1.352-.992 2.016-1.503.935-.597 1.983-1.13 2.57-2.149.466-.719.922-1.46 1.269-2.254.075-.569-.588-1.087-1.072-.867-.68.123-1.488.233-2.09-.292-.537-.584-.33-1.583-1.01-2.064-.653-.525-.977-1.36-1.18-2.156-.254-.498-.624-1.006-.573-1.588-.045-1.09-.902-1.943-1.057-3.01C28.53 22.594 5.5.967 10.355 14.501z" fill="url(#e)"/>
 <path d="M18.774 4.055c-.612.05-1.058.656-1.688.688-.526.146-.915.614-1.125 1.125-.632.796-1.807.572-2.5 1.28-.653.504-1.232 1.102-1.844 1.657-.57.882-.31 2.197-1.062 2.969-.038.04-.06.081-.094.125 7.82 2.274 18.759 6.2 25.75 8.256.752.22 1.635-.228 2.281-.037a1.035 1.035 0 00-.218-.188c-.654-.525-.954-1.36-1.157-2.156-.254-.499-.644-1.012-.593-1.594-.046-1.09-.908-1.934-1.063-3-.344-.967-.749-1.91-1-2.906-.345-.522-.987-.49-1.5-.531-1.032-.191-2.046-.935-2.96-1.44l-2.418-.275c-.522.222.184.54-.153.12-.392-.453-.83-.962-1.438-1-.506-.12-.966-.775-.687-1.28.13-.32.287-.848-.125-1.063-1.396.125-2.773-.788-4.156-.437l-2.25-.313zm-6.47 3.969c-.035.017-.08.057 0 .062.065-.073.037-.08 0-.062z" fill="url(#f)" overflow="visible"/>
 <path d="M22.117 28.118c.055.67.059 1.329.125 2-.211 1-1.375 1.393-1.437 2.468-.194 1.136.366 2.255.75 3.313.306 1.053-.128 2.166.375 3.187.334.784.782 1.607.594 2.47-.048.584.01 1.532.583 1.481l2.23-.107c1.159.213 2.232-.417 3.124-1.062.595-.406 1.157-.874 1.469-1.563.397-.58 1.262-.48 1.625-1.094.28-.57-.098-1.36.375-1.843.678-.677 1.643-.825 2.5-1.157.433-.114.726-.46.844-.906.14-.513.199-1.059.25-1.594 0-.566-.053-1.15-.063-1.718l-2.288-.042-11.056-3.833zm17.407 6.906l-2.264.074-1.018 2.77c-.109.982-2.896 2.24-2.886 3.27l2.793.105c.574-.213.758-.89 1.156-1.313.773-1.068 1.537-2.15 2.187-3.312.198-.498.053-1.066.032-1.594z" fill="url(#g)" overflow="visible"/>
 <path d="M22.916 4.81c-1.396.125-2.784-.784-4.167-.433-.639.204-1.391.12-1.975-.303-.761-.152-1.242.639-1.961.675-.526.147-.907.608-1.117 1.118-.632.797-1.821.58-2.515 1.29-.653.502-1.236 1.094-1.849 1.65-.57.88-.305 2.18-1.057 2.952-.653.69-.694 1.874-.194 2.742.307.7.55 1.429.749 2.163.326.713.867 1.286 1.336 1.898.452.481 1.1.361 1.649.341.624-.074 1.12.452 1.717.506.948.058 1.843-.503 2.803-.177.522.095.693.63.898 1.061.223.396.659.619 1.073.568.542.025 1.018.565.916 1.139-.05.886-.854 1.515-.71 2.447.03.41.284.742.52 1.055.428.638.762 1.379.767 2.152.102.825.093 1.652.175 2.478-.212 1-1.381 1.388-1.443 2.463-.193 1.136.376 2.236.76 3.294.305 1.053-.146 2.171.357 3.192.334.783.797 1.616.61 2.478-.048.585.426 1.178.999 1.128.603.05 1.228-.036 1.81.23 1.159.213 2.22-.39 3.112-1.035.595-.405 1.161-.898 1.473-1.587.398-.58 1.274-.457 1.637-1.07.28-.57-.12-1.363.352-1.846.678-.677 1.658-.825 2.514-1.156.433-.114.735-.481.853-.928.141-.513.202-1.055.253-1.59 0-.94-.176-1.901.011-2.822.076-.75.435-1.463 1.057-1.829.674-.497 1.351-.992 2.015-1.503.936-.597 1.983-1.13 2.57-2.149.467-.719.922-1.46 1.27-2.254.075-.569-.589-1.087-1.072-.867-.68.123-1.488.233-2.09-.292-.538-.584-.332-1.583-1.01-2.064-.654-.525-.978-1.36-1.18-2.156-.254-.498-.624-1.006-.574-1.588-.045-1.09-.902-1.943-1.057-3.01-.344-.967-.766-1.911-1.017-2.907-.345-.522-.99-.478-1.504-.52-1.032-.191-1.85-.98-2.764-1.486-.578-.277-.96.29-1.404.5-.521.222-1.02-.183-1.356-.602-.392-.454-.836-.972-1.444-1.01-.506-.12-.96-.767-.68-1.272.129-.319.296-.848-.116-1.063zM10.03 8.096c.128-.146-.163-.01 0 0zM37.24 35.037c-.544.612-1.057 1.361-1.887 1.557-.724-.187-1.48.491-1.372 1.278-.109.982-1.226 1.408-1.216 2.44-.069.586.582 1.19 1.106.93.574-.212.748-.898 1.147-1.32.773-1.068 1.553-2.136 2.204-3.298.197-.497.04-1.059.018-1.587z" fill="url(#h)"/>
 <path d="M16.5 4.055c-.612.05-1.058.656-1.688.688-.526.146-.914.614-1.124 1.125-.633.796-1.807.572-2.5 1.28-.654.504-1.232 1.102-1.844 1.657-.57.882-.31 2.197-1.063 2.969-.038.04-.06.081-.094.125 8.661 2.518 21.365 6.258 28.032 8.219A1.035 1.035 0 0036 19.93c-.654-.525-.954-1.36-1.156-2.156-.255-.499-.645-1.012-.594-1.594-.046-1.09-.907-1.934-1.063-3-.343-.967-.748-1.91-1-2.906-.344-.522-.986-.49-1.5-.531-1.031-.191-1.867-.994-2.78-1.5-.578-.278-.963.29-1.407.5-.521.222-1.007-.175-1.344-.594-.391-.454-.829-.963-1.437-1-.506-.12-.967-.776-.688-1.281.13-.32.287-.848-.125-1.063-1.396.125-2.772-.788-4.156-.437-.638.204-1.384.142-1.969-.282a1.066 1.066 0 00-.281-.03zm-6.469 3.969c-.036.017-.081.057 0 .062.064-.073.037-.08 0-.062z" fill="url(#i)" overflow="visible"/>
 <path d="M19.844 28.118c.055.67.058 1.329.125 2-.212 1-1.376 1.393-1.438 2.468-.193 1.136.367 2.255.75 3.313.307 1.053-.128 2.166.375 3.187.334.784.782 1.607.594 2.47-.048.584.427 1.175 1 1.124.603.05 1.23-.016 1.813.25 1.16.213 2.232-.417 3.125-1.062.594-.406 1.156-.874 1.468-1.563.398-.58 1.262-.48 1.625-1.094.28-.57-.097-1.36.375-1.843.678-.677 1.644-.825 2.5-1.157.433-.114.726-.46.844-.906.141-.513.2-1.059.25-1.594 0-.566-.053-1.15-.063-1.718l-13.343-3.875zm17.406 6.906c-.544.611-1.077 1.367-1.906 1.562-.724-.187-1.484.495-1.375 1.282-.11.982-1.23 1.406-1.219 2.437-.069.587.601 1.197 1.125.938.574-.213.758-.89 1.156-1.313.773-1.068 1.537-2.15 2.188-3.312.197-.498.052-1.066.031-1.594z" fill="url(#j)" overflow="visible"/>
 <path d="M16.438 4.586c-1.21.404-2.194 1-2.907 2.063-2.282.586-4.34 2.355-4.437 4.844-1.76 1.597-.06 4.157.781 5.906.384.912.99 1.139 1.58.968-4.728-9.4 4.72-11.603 8.607-13.5-1.272-.124-2.468.403-3.625-.28z" fill="#fff" fill-opacity=".662" filter="url(#k)"/>
</svg>
