<?xml version="1.0" encoding="UTF-8"?>
<svg width="48" height="48" xmlns="http://www.w3.org/2000/svg" xmlns:xlink="http://www.w3.org/1999/xlink">
 <defs>
  <linearGradient id="H" x1="24.52" x2="29.229" y1="10.977" y2="12.902" gradientTransform="matrix(-1.0865 -.30306 -.30306 1.0865 54.122 6.402)" gradientUnits="userSpaceOnUse" xlink:href="#g"/>
  <linearGradient id="d">
   <stop stop-color="#555" offset="0"/>
   <stop offset="1"/>
  </linearGradient>
  <linearGradient id="K" x1="6.229" x2="13.175" y1="9.159" y2="14.623" gradientTransform="translate(-6.535 -7.901) scale(1.6192)" gradientUnits="userSpaceOnUse" xlink:href="#a"/>
  <linearGradient id="r" x1=".284" x2="7.393" y1="15.366" y2="19.626" gradientTransform="matrix(1.128 0 0 1.128 -1.418 -1.561)" gradientUnits="userSpaceOnUse" xlink:href="#a"/>
  <linearGradient id="o" x1="12.655" x2="17.603" y1="18.931" y2="20.555" gradientTransform="matrix(1.128 0 0 1.128 -1.418 -1.561)" gradientUnits="userSpaceOnUse" xlink:href="#a"/>
  <linearGradient id="E" x1="1.858" x2="15.47" y1="19.404" y2="28.237" gradientTransform="matrix(1.128 0 0 1.128 -1.418 -1.561)" gradientUnits="userSpaceOnUse">
   <stop stop-color="#003e8c" offset="0"/>
   <stop stop-color="#0062db" offset="1"/>
  </linearGradient>
  <linearGradient id="A" x1="4.279" x2="9.283" y1="32.867" y2="39.297" gradientTransform="matrix(1.128 0 0 1.128 -1.418 -1.561)" gradientUnits="userSpaceOnUse" xlink:href="#a"/>
  <linearGradient id="y" x1="11.758" x2="15.987" y1="34.251" y2="41.72" gradientTransform="matrix(1.128 0 0 1.128 -1.418 -1.561)" gradientUnits="userSpaceOnUse" xlink:href="#a"/>
  <linearGradient id="v" x1="7.794" x2="10.852" y1="15.848" y2="18.804" gradientTransform="matrix(1.128 0 0 1.128 -1.418 -1.561)" gradientUnits="userSpaceOnUse">
   <stop stop-color="#e6e6e6" offset="0"/>
   <stop stop-color="#d5d5d5" offset="1"/>
  </linearGradient>
  <linearGradient id="B" x1="35.488" x2="29.164" y1="32.022" y2="24.721" gradientTransform="matrix(1.128 0 0 1.128 -1.418 -1.561)" gradientUnits="userSpaceOnUse" xlink:href="#d"/>
  <linearGradient id="g">
   <stop stop-color="#ff9b24" offset="0"/>
   <stop stop-color="#ffbf00" offset="1"/>
  </linearGradient>
  <linearGradient id="h">
   <stop stop-color="#7ed249" offset="0"/>
   <stop stop-color="#286325" offset="1"/>
  </linearGradient>
  <linearGradient id="s" x1="39.037" x2="28.384" y1="28.254" y2="11.107" gradientTransform="matrix(1.128 0 0 1.128 -1.418 -1.561)" gradientUnits="userSpaceOnUse">
   <stop stop-color="#d1f6f6" offset="0"/>
   <stop stop-color="#2adbdb" offset="1"/>
  </linearGradient>
  <linearGradient id="t" x1="38.582" x2="28.774" y1="27.345" y2="12.179" gradientTransform="matrix(1.128 0 0 1.128 -1.418 -1.561)" gradientUnits="userSpaceOnUse" xlink:href="#d"/>
  <linearGradient id="M" x1="32.56" x2="38.032" y1="8.368" y2="14.181" gradientTransform="matrix(1.4933 0 0 1.4933 -14.794 -7.208)" gradientUnits="userSpaceOnUse" xlink:href="#a"/>
  <linearGradient id="f">
   <stop stop-color="#9a5723" offset="0"/>
   <stop stop-color="#db9762" offset="1"/>
  </linearGradient>
  <linearGradient id="p" x1="25.074" x2="30.369" y1="19.444" y2="22.222" gradientTransform="matrix(1.128 0 0 1.128 -1.418 -1.561)" gradientUnits="userSpaceOnUse" xlink:href="#f"/>
  <linearGradient id="m" x1="24.019" x2="40.783" y1="18.536" y2="22.892" gradientTransform="matrix(1.128 0 0 1.128 -1.418 -1.561)" gradientUnits="userSpaceOnUse" xlink:href="#f"/>
  <linearGradient id="F" x1="26.24" x2="35.821" y1="9.474" y2="15.366" gradientTransform="matrix(1.4933 0 0 1.4933 -14.794 -7.208)" gradientUnits="userSpaceOnUse" xlink:href="#f"/>
  <linearGradient id="N" x1="22.209" x2="25.85" y1="9.75" y2="12.112" gradientTransform="matrix(1.4597 0 0 1.4597 -9.246 -6.297)" gradientUnits="userSpaceOnUse" xlink:href="#g"/>
  <linearGradient id="G" x1="24.52" x2="29.229" y1="10.977" y2="12.902" gradientTransform="matrix(1.128 0 0 1.128 -1.418 -1.561)" gradientUnits="userSpaceOnUse" xlink:href="#g"/>
  <linearGradient id="a">
   <stop stop-color="#520" offset="0"/>
   <stop stop-color="#b6632c" offset="1"/>
  </linearGradient>
  <linearGradient id="u" x1="26.186" x2="16.406" y1="22.071" y2="14.244" gradientTransform="matrix(1.128 0 0 1.128 -1.418 -1.561)" gradientUnits="userSpaceOnUse" xlink:href="#h"/>
  <linearGradient id="D" x1="25.169" x2="17.785" y1="29.326" y2="22.566" gradientTransform="matrix(1.128 0 0 1.128 -1.418 -1.561)" gradientUnits="userSpaceOnUse" xlink:href="#h"/>
  <linearGradient id="J" x1="8.729" x2="23.807" y1="-.989" y2="12.928" gradientUnits="userSpaceOnUse" xlink:href="#f"/>
  <linearGradient id="q" x1="11.543" x2="21.281" y1="15.064" y2="21.953" gradientUnits="userSpaceOnUse" xlink:href="#f"/>
  <linearGradient id="n" x1="19.111" x2="30.98" y1="15.415" y2="23.314" gradientUnits="userSpaceOnUse" xlink:href="#f"/>
  <linearGradient id="l" x1="13.498" x2="23.932" y1="25.795" y2="32.317" gradientUnits="userSpaceOnUse" xlink:href="#f"/>
  <linearGradient id="C" x1="18.638" x2="28.398" y1="27.194" y2="32.981" gradientUnits="userSpaceOnUse" xlink:href="#f"/>
  <linearGradient id="I" x1="20.98" x2="25.202" y1="15.73" y2="17.516" gradientUnits="userSpaceOnUse" xlink:href="#f"/>
  <linearGradient id="i">
   <stop stop-color="#d700d7" offset="0"/>
   <stop stop-color="#6e006e" offset="1"/>
  </linearGradient>
  <linearGradient id="O" x1="26.273" x2="22.149" y1="24.895" y2="24.927" gradientUnits="userSpaceOnUse" xlink:href="#i"/>
  <linearGradient id="w" x1="41.473" x2="40.279" y1="43.178" y2="38.768" gradientUnits="userSpaceOnUse" xlink:href="#d"/>
  <linearGradient id="z" x1="36.271" x2="35.211" y1="40.629" y2="36.679" gradientUnits="userSpaceOnUse" xlink:href="#d"/>
  <linearGradient id="x" x1="27.649" x2="25.215" y1="41.111" y2="37.528" gradientUnits="userSpaceOnUse" xlink:href="#i"/>
  <linearGradient id="k" x1="21.241" x2="17.477" y1="38.12" y2="35.319" gradientUnits="userSpaceOnUse" xlink:href="#i"/>
  <filter id="S" x="-.094" y="-.163" width="1.187" height="1.327">
   <feGaussianBlur stdDeviation=".164"/>
  </filter>
  <filter id="T" x="-.26" y="-.069" width="1.521" height="1.138">
   <feGaussianBlur stdDeviation=".187"/>
  </filter>
  <filter id="U" x="-.213" y="-.204" width="1.426" height="1.408">
   <feGaussianBlur stdDeviation=".219"/>
  </filter>
  <filter id="V" x="-.254" y="-.262" width="1.508" height="1.524">
   <feGaussianBlur stdDeviation=".127"/>
  </filter>
  <filter id="R" x="-.074" y="-.113" width="1.148" height="1.226">
   <feGaussianBlur stdDeviation=".133"/>
  </filter>
  <filter id="Q" x="-.111" y="-.168" width="1.222" height="1.335">
   <feGaussianBlur stdDeviation=".147"/>
  </filter>
  <filter id="P" x="-.138" y="-.141" width="1.275" height="1.283">
   <feGaussianBlur stdDeviation=".147"/>
  </filter>
  <filter id="L" x="-.33" y="-.058" width="1.66" height="1.117">
   <feGaussianBlur stdDeviation=".149"/>
  </filter>
  <filter id="j" x="-.035" y="-.217" width="1.07" height="1.435">
   <feGaussianBlur stdDeviation=".612"/>
  </filter>
 </defs>
 <path d="M5.313 35.063c-1.392.085-2.378.44-2.407.906-.038.621 1.657 1.212 3.781 1.343 1.295.08 2.442-.037 3.157-.28.536.52 1.648 1.1 3 1.53 2.028.647 3.81.687 4 .094.189-.593-1.285-1.572-3.313-2.218-1.305-.416-2.503-.593-3.25-.5-.577-.43-1.904-.779-3.469-.876a12.233 12.233 0 00-1.5 0zm14.093.906c-1.391.085-1.471.44-1.5.906-.038.621 1.157.681 3.282.813a7.954 7.954 0 003.062-.407c.536.522 1.585 1.1 2.938 1.532 2.028.646 2.467 1.28 2.656.687.189-.593-.19-1.51-2.219-2.156-1.306-.416-2.503-.593-3.25-.5-.577-.43-1.904-.779-3.469-.875a12.233 12.233 0 00-1.5 0zm14.157 1.812c-1.392.086-2.378.44-2.407.907-.038.62 1.657 1.212 3.782 1.343 1.294.08 2.44-.037 3.156-.281.536.521 1.648 1.1 3 1.531 2.028.646 3.81.687 4 .094.189-.593-1.285-1.573-3.313-2.219-1.305-.416-2.503-.593-3.25-.5-.577-.429-1.904-.778-3.468-.875a12.233 12.233 0 00-1.5 0z" fill-opacity=".769" fill-rule="evenodd" filter="url(#j)"/>
 <path d="M22.291 36.028s.354.235.271.832c-.2 1.444-1.493-.157-2.149.857-1.205-.232-1.36-.042-2.102-.83-.45-.477.212-1.073.907-1.166.696-.093 2.517-.064 3.073.307z" fill="url(#k)" overflow="visible"/>
 <path d="M21.368 28.148c-1.02 2.708-.603 5.256-.843 7.876.434.54.947.644 1.575.11.138-1.706.276-2.46.415-5.12l1.417-2.206-2.564-.66z" fill="url(#l)" overflow="visible"/>
 <path d="M42.6 21.41l1.606 1.945 1.07 3.479c-.343-.098-.405.934-.289.967.066-.089.222-.488.418-.475.256-.064-.992 2.41.261 1.731 1.256-.68.836-1.987.836-1.987s.03-4.624-1.616-6.168c-.736-.69-1.372-1.555-1.372-1.555L42.6 21.41z" fill="url(#m)" overflow="visible"/>
 <path d="M28.664 20.004l1.935 1.725c.713 1.166.685 2.439.74 3.699-.343-.098-.404.934-.288.967.065-.089.222-.488.418-.475.255-.064-.993 2.41.26 1.731 1.256-.68.837-1.986.837-1.986s.03-4.625-1.616-6.17c-.737-.69-1.373-1.554-1.373-1.554l-.913 2.063z" fill="url(#n)" overflow="visible"/>
 <path d="M14.468 18.773l1.606 1.946 1.07 3.479c-.343-.098-.405.934-.289.967.066-.089.223-.489.418-.475.256-.064-.992 2.41.262 1.731 1.255-.68.835-1.987.835-1.987s.031-4.624-1.615-6.168c-.737-.691-1.373-1.555-1.373-1.555l-.914 2.062z" fill="url(#o)" overflow="visible"/>
 <path d="M35.053 20.548l-1.783 1.784-1.395 3.362c.196-.02.673.944.608.95-.458.075-.547-.417-.79-.672 0 0 .768 2.693-.418 1.898-1.186-.795-.39-1.98-.39-1.98s-.033-4.499 1.753-5.88c.798-.618 2.067-1.016 2.067-1.016l.348 1.554z" fill="url(#p)" overflow="visible"/>
 <path d="M21.116 19.142l-1.93 1.271c-.567 1.14-.857 2.558-1.247 3.875.195-.019.672.944.607.95-.457.075-.546-.416-.789-.672 0 0 .768 2.693-.418 1.898-1.186-.795-.39-1.98-.39-1.98s-.033-4.499 1.752-5.88c.799-.617 2.58-1.309 2.58-1.309l-.165 1.847z" fill="url(#q)" overflow="visible"/>
 <path d="M6.921 17.912l-1.783 1.784-1.395 3.362c.196-.02.673.944.608.95-.458.074-.546-.417-.789-.672 0 0 .767 2.693-.419 1.898-1.185-.795-.39-1.98-.39-1.98s-.032-4.499 1.753-5.88c.799-.618 2.14-1.31 2.14-1.31l.275 1.848z" fill="url(#r)" overflow="visible"/>
 <path d="M35.078 26.324c-.253-2.19-.069-3.503 0-5.047-.531.618-.807.57-1.494.878-.122-.926-.86-1.063-.59-2.537 1.706-1.51 2.757-1.951 4.103-2.38h4.038c2.37.242 2.746 2.201 3.809 3.422.185 1.4-.48 1.661-1.462 2.242-.448-.52-.967-.48-1.337-1.625-.254 1.696-.072 3.348-.942 5.106l-.068.95h-6.057v-1.009z" fill="url(#s)" overflow="visible"/>
 <path d="M35.142 26.427c-.323-.175-.31-3.732-.293-3.737 0 0 .879-.147.806-.513-.074-.366-.293-4.304-.293-4.304.306-.395.652-.468 1.007-.476-.319 1.091-.237 2.211.128 3.351-.051.49 3.087.474 3.517-.183.38-.581 1.062-3.378.75-3.425.346-.112.651-.107.898.073.006 2.073-.477 3.496-.732 5.22.317.33.764.141 1.172.11-.453 1.256.18 2.45-.99 3.884-.224 1.576-5.389 1.829-5.97 0z" fill="url(#t)" overflow="visible"/>
 <path d="M21.292 24.15c.48-1.714-.22-2.735-.15-4.28-.349-.37-.807.205-1.495.513-.121-.927-.86-.697-.59-2.17 1.707-1.51 2.758-1.952 4.104-2.38h4.038c2.37.241 2.745 2.2 3.809 3.422.184 1.398-.334 1.55-1.316 2.131-.448-.52-.893-1.213-1.484-1.515.076 1.953-1.097 2.176-.941 4.41l-.068 1.647h-6.057l.15-1.779z" fill="url(#u)" overflow="visible"/>
 <path d="M6.947 23.688c-.254-2.19-.07-3.503 0-5.047-.532.618-.807.57-1.495.878-.122-.927-.86-1.063-.59-2.537 1.707-1.51 2.758-1.951 4.104-2.38h4.038c2.37.242 2.745 2.201 3.808 3.422.185 1.4-.48 1.661-1.461 2.242-.449-.52-.967-.48-1.338-1.625-.254 1.696-.072 3.348-.942 5.106l-.067.95H6.947v-1.009z" fill="url(#v)" overflow="visible"/>
 <path d="M40.368 38.137s-.695 1.577-.232 2.087c.464.51 3.617 1.715 4.405.88.788-.834-.696-3.662-4.173-2.967z" fill="url(#w)" overflow="visible"/>
 <path d="M26.457 36.99c-.223-.055-.744 1.312-.257 1.828.115.122.914-.42 1.183-.13.822.886 2.625 1.425 2.782.571.152-.827-.968-1.495-2.07-2.51-.386-.355-.855.308-1.638.241z" fill="url(#x)" overflow="visible"/>
 <path d="M12.236 35.501s-.695 1.576-.232 2.087c.464.51 3.617 1.715 4.405.88.788-.834-.695-3.662-4.173-2.967z" fill="url(#y)" overflow="visible"/>
 <path d="M36.937 37.07s.325.418.232 1.113c-.093.696-.881 1.391-2.087 1.16-1.205-.232-2.642.324-3.384-.464-.45-.478.139-1.623.834-1.716.696-.092 3.849-.463 4.405-.092z" fill="url(#z)" overflow="visible"/>
 <path d="M8.805 34.435s.325.417.232 1.112c-.093.696-.88 1.391-2.086 1.16-1.206-.232-2.643.324-3.385-.464-.45-.478.139-1.623.834-1.716.696-.092 3.849-.463 4.405-.092z" fill="url(#A)" overflow="visible"/>
 <path d="M33.06 37.429c.92-4.434.614-6.993 2.018-11.105 2.02 1.04 4.038.913 6.057 0 1.23 5.14 2.847 8.158 3.029 13.124-1.408.156-2.802.209-4.038-1.01l-2.02-9.085-1.009 8.076c-1.71.728-2.83.276-4.038 0z" fill="url(#B)" overflow="visible"/>
 <path d="M25.068 28.881l1.656 3.335c-.433 1.648-.03 3.296-.044 4.944.752.431 1.168.336 1.628-.01.118-3.388.273-5.766-.64-8.635l-2.6.366z" fill="url(#C)" overflow="visible"/>
 <path d="M18.644 28.716c.205-1.49 2.026-2.507 2.64-4.304 2.018 1.04 4.006.674 6.025-.239.48 2.006 2.118 3.798 2.607 5.399-1.727.687-7.234 1.367-11.272-.856z" fill="url(#D)" overflow="visible"/>
 <path d="M4.928 34.793c.92-4.434.614-6.993 2.019-11.105 2.019 1.04 4.038.913 6.057 0 1.23 5.14 2.846 8.158 3.028 13.124-1.407.156-2.802.209-4.038-1.01l-2.019-9.085-1.01 8.076c-1.71.728-2.83.276-4.037 0z" fill="url(#E)" overflow="visible"/>
 <path d="M42.124 13.969c0 2.214-1.122 4.056-4.181 4.149-1.845.056-2.433-1.936-2.501-4.15-.094-3.007 1.496-4.009 3.34-4.009 1.846 0 3.342 1.795 3.342 4.01z" fill="url(#F)" fill-rule="evenodd"/>
 <path d="M28.218 10.82c.714.904 2.274.038 2.03 2.943 0 0 .928.451 1.304.794.665.608-.586 1.649-1.32 1.1-.056-.043.183-1.45-.395-1.492-2.349-.17-2.388-2.685-2.388-2.685l.77-.66z" fill="url(#G)" overflow="visible"/>
 <path d="M22.25 10.367c-.93.678-2.2-.575-2.746 2.288 0 0-1.015.186-1.47.415-.803.406.122 1.746.975 1.413.067-.026.215-1.446.782-1.33 2.308.468 3.022-1.945 3.022-1.945l-.564-.841z" fill="url(#H)" overflow="visible"/>
 <path d="M23.383 16.01s-.422 2.397.812 3.995c1.139-.908 1.754-4.092 1.754-4.092l-2.566.098z" fill="url(#I)" overflow="visible"/>
 <path d="M28.354 12.583c0 2.165-1.097 3.965-4.087 4.056-1.803.055-2.378-1.893-2.445-4.056-.091-2.94 1.462-3.919 3.266-3.919s3.266 1.755 3.266 3.92z" fill="url(#J)" fill-rule="evenodd"/>
 <path d="m14.797 11.276c0 2.4-1.217 4.398-4.534 4.499-2 0.061-2.637-2.1-2.712-4.5-0.1-3.26 1.622-4.347 3.623-4.347s3.623 1.947 3.623 4.348z" fill="url(#K)" fill-rule="evenodd"/>
 <path d="M36.666 10.327c-1.168 1.752-.737 5.201-.39 6.138-.407.018-1.526-4.319.39-6.138z" fill="#fff" fill-opacity=".607" filter="url(#L)" overflow="visible"/>
 <path d="M39.807 9.839c-1.402-1.62-3.715-.195-4.232 1.76 2.378.596 2.903-.613 4.376-.922.89.502 1.151 1.636 2.042 1.918.092-1.63-.57-3.924-2.186-2.756z" fill="url(#M)" overflow="visible"/>
 <path d="M23.058 9.386c-1.167 1.75-.737 5.2-.39 6.138-.407.017-1.526-4.32.39-6.138z" fill="#fff" fill-opacity=".513" filter="url(#L)" overflow="visible"/>
 <path d="M24.916 7.997c-1.076-.63-3.432.775-2.895 2.685 2.325.583 2.026-.518 2.88-.93.32.856 2.407 1.355 3.278 1.63.968-1.888-.896-4.501-3.263-3.385z" fill="url(#N)" overflow="visible"/>
 <path d="M8.769 8.12c-1.168 1.75-.737 5.2-.39 6.137-.407.017-1.526-4.32.39-6.138z" fill="#fff" fill-opacity=".643" filter="url(#L)" overflow="visible"/>
 <path d="M12.337 6.562c.114-.526-1.485-1.055-1.894-.343-.285-.408-1.515-.248-1.544.7-.715-.669-1.274.407-.888.604-.407.103-.776 1.322-.22 1.378.393.038 1.517-.072 1.506-.706.217.378 1.269.456 1.477-.041.169.401 1.388.596 1.614.184-.007.586 1.07 1.108 1.645.916.503.34 1.204-.717.41-1.089.209-.87-.401-1.59-.921-1.213.213-.56-.861-.92-1.185-.39z" overflow="visible"/>
 <path d="M37.195 13.181a.583.651 0 11-1.165 0 .583.651 0 111.165 0zM23.536 11.813a.57.636 0 11-1.138 0 .57.636 0 111.138 0zM9.453 10.422a.632.706 0 11-1.263 0 .632.706 0 111.263 0zM39.756 13.442a.583.651 0 11-1.165 0 .583.651 0 111.165 0zM26.04 12.068a.57.636 0 11-1.14 0 .57.636 0 111.14 0zM12.23 10.704a.632.706 0 11-1.264 0 .632.706 0 111.264 0z" fill-rule="evenodd"/>
 <path d="M36.017 15.473c.423.456.965.894 1.383 1.05.968.304 1.432-.348 2.25-.8-1.117.573-2.286.786-3.633-.25zM22.384 14.053c.414.446.944.874 1.352 1.027.947.297 1.4-.34 2.2-.782-1.093.56-2.235.768-3.552-.245zM8.175 12.907c.459.495 1.047.969 1.5 1.14 1.05.328 1.552-.379 2.44-.868-1.212.62-2.48.851-3.94-.272z" font-family="Bitstream Vera Sans" font-weight="400" overflow="visible" style="block-progression:tb;text-indent:0;text-transform:none"/>
 <path d="M21.24 23.87l-.13.78c1.807.67 3.886.499 6.3-.13l-.097-.78c-2.316.722-4.276.617-6.073.13z" fill="url(#O)" overflow="visible"/>
 <path d="M22.311 10.49c.136-1.435 1.589-2.1 2.468-2.468.14-.139-3.166.146-2.468 2.468z" fill="#fff" fill-opacity=".665" filter="url(#P)" overflow="visible"/>
 <path d="M39.037 9.678c-1.1.158-2.17.656-3.183 1.851 0 0 1.137-2.988 3.183-1.851z" fill="#fff" fill-opacity=".388" filter="url(#Q)" overflow="visible"/>
 <path d="M7.827 8.769c-.066-.358-.223-.715.292-1.072-.31-.862.343-.91.844-.65.267-1.075 1.274-.954 1.462-.584.615-.947 1.512-.399 1.656 0-1.303.155-2.462-.46-4.254 2.306z" fill="#fff" fill-opacity=".313" filter="url(#R)" overflow="visible"/>
 <path d="M4.904 17.375c-.553.016 2.062-2.179 3.41-2.403l.714.617c-1.989-.088-2.834 1.096-4.124 1.786z" fill="#fff" fill-opacity=".719" filter="url(#S)" overflow="visible"/>
 <path d="M19.29 18.706c-.552.017 2.063-2.178 3.41-2.403l.715.617c-1.989-.087-2.834 1.096-4.124 1.786z" fill="#fff" fill-opacity=".576" filter="url(#S)" overflow="visible"/>
 <path d="M33.126 20.135c-.553.017 2.062-2.178 3.41-2.403l.714.617c-1.99-.087-2.834 1.096-4.124 1.786z" fill="#fff" fill-opacity=".719" filter="url(#S)" overflow="visible"/>
 <path d="M7.08 23.935c-.413 1.435-.945 3.019-1.202 6.495.414-2.107.579-4.242 1.721-6.268l-.52-.227zM35.334 26.663c-.412 1.435-.945 3.019-1.201 6.495.413-2.107.578-4.242 1.72-6.268l-.519-.227z" fill="#fff" fill-opacity=".719" filter="url(#T)" overflow="visible"/>
 <path d="M19.518 27.378c.528-.588 2.416-3.126 1.786-2.469l.682.195c-.417.555-1.362 1.374-2.468 2.274z" fill="#fff" fill-opacity=".665" filter="url(#U)" overflow="visible"/>
 <path d="M3.637 35.951c.342-.514.69-1.014 1.202-1.104 0 0-1.104-.455-1.202 1.104zM18.382 37.055c.342-.514.69-1.013 1.201-1.104 0 0-1.104-.454-1.201 1.104zM31.86 38.614c.341-.514.69-1.014 1.2-1.104 0 0-1.103-.455-1.2 1.104z" fill="#fff" fill-opacity=".728" filter="url(#V)" overflow="visible"/>
</svg>
