<?xml version="1.0" encoding="UTF-8"?>
<svg width="48" height="48" xmlns="http://www.w3.org/2000/svg" xmlns:xlink="http://www.w3.org/1999/xlink">
 <defs>
  <linearGradient id="n" x1="12.655" x2="17.603" y1="18.931" y2="20.555" gradientTransform="matrix(-.42546 -.91438 .91438 -.42546 1.152 50.245)" gradientUnits="userSpaceOnUse" xlink:href="#d"/>
  <linearGradient id="a">
   <stop stop-color="#e6e6e6" offset="0"/>
   <stop stop-color="#d5d5d5" offset="1"/>
  </linearGradient>
  <linearGradient id="i">
   <stop stop-color="#ff9b24" offset="0"/>
   <stop stop-color="#ffbf00" offset="1"/>
  </linearGradient>
  <linearGradient id="e">
   <stop stop-color="#9a5723" offset="0"/>
   <stop stop-color="#db9762" offset="1"/>
  </linearGradient>
  <linearGradient id="I" x1="22.209" x2="25.85" y1="9.75" y2="12.112" gradientTransform="matrix(1.4597 0 0 1.4597 -9.246 -6.297)" gradientUnits="userSpaceOnUse" xlink:href="#i"/>
  <linearGradient id="H" x1="8.729" x2="23.807" y1="-.989" y2="12.928" gradientUnits="userSpaceOnUse" xlink:href="#e"/>
  <linearGradient id="G" x1="24.52" x2="29.229" y1="10.977" y2="12.902" gradientTransform="matrix(-1.0865 -.30306 -.30306 1.0865 54.122 6.402)" gradientUnits="userSpaceOnUse" xlink:href="#i"/>
  <linearGradient id="F" x1="24.52" x2="29.229" y1="10.977" y2="12.902" gradientTransform="matrix(1.128 0 0 1.128 -1.418 -1.561)" gradientUnits="userSpaceOnUse" xlink:href="#i"/>
  <linearGradient id="z" x1="32.56" x2="38.032" y1="8.368" y2="14.181" gradientTransform="matrix(1.4933 0 0 1.4933 -14.794 -7.208)" gradientUnits="userSpaceOnUse" xlink:href="#d"/>
  <linearGradient id="y" x1="26.24" x2="35.821" y1="9.474" y2="15.366" gradientTransform="matrix(1.4933 0 0 1.4933 -14.794 -7.208)" gradientUnits="userSpaceOnUse" xlink:href="#e"/>
  <linearGradient id="l" x1="-26.696" x2="-12.211" y1="21.499" y2="34.88" gradientUnits="userSpaceOnUse">
   <stop stop-color="#003e8c" offset="0"/>
   <stop stop-color="#0062db" offset="1"/>
  </linearGradient>
  <linearGradient id="x" x1="38.582" x2="28.774" y1="27.345" y2="12.179" gradientTransform="matrix(-.48084 .8865 -.8865 -.48084 69.84 12.827)" gradientUnits="userSpaceOnUse">
   <stop stop-color="#555" offset="0"/>
   <stop offset="1"/>
  </linearGradient>
  <linearGradient id="o" x1=".284" x2="7.393" y1="15.366" y2="19.626" gradientTransform="matrix(-.42546 -.91438 .91438 -.42546 1.152 50.245)" gradientUnits="userSpaceOnUse" xlink:href="#d"/>
  <linearGradient id="d">
   <stop stop-color="#520" offset="0"/>
   <stop stop-color="#b6632c" offset="1"/>
  </linearGradient>
  <linearGradient id="v" x1="25.074" x2="30.369" y1="19.444" y2="22.222" gradientTransform="matrix(-.48084 .8865 -.8865 -.48084 69.84 12.827)" gradientUnits="userSpaceOnUse" xlink:href="#e"/>
  <linearGradient id="u" x1="24.019" x2="40.783" y1="18.536" y2="22.892" gradientTransform="matrix(-.48084 .8865 -.8865 -.48084 69.84 12.827)" gradientUnits="userSpaceOnUse" xlink:href="#e"/>
  <linearGradient id="E" x1="20.98" x2="25.202" y1="15.73" y2="17.516" gradientTransform="matrix(.89408 0 0 .89408 1.73 -.685)" gradientUnits="userSpaceOnUse" xlink:href="#e"/>
  <linearGradient id="C" x1="11.543" x2="21.281" y1="15.064" y2="21.953" gradientTransform="matrix(.89408 0 0 .89408 1.73 -.685)" gradientUnits="userSpaceOnUse" xlink:href="#e"/>
  <linearGradient id="B" x1="19.111" x2="30.98" y1="15.415" y2="23.314" gradientTransform="matrix(.89408 0 0 .89408 1.73 -.685)" gradientUnits="userSpaceOnUse" xlink:href="#e"/>
  <linearGradient id="D" x1="26.186" x2="16.406" y1="22.071" y2="14.244" gradientTransform="matrix(1.0085 0 0 1.0085 .462 -2.08)" gradientUnits="userSpaceOnUse">
   <stop stop-color="#d700d7" offset="0"/>
   <stop stop-color="#6e006e" offset="1"/>
  </linearGradient>
  <linearGradient id="p" x1="7.794" x2="10.852" y1="15.848" y2="18.804" gradientTransform="matrix(-.42546 -.91438 .91438 -.42546 1.152 50.245)" gradientUnits="userSpaceOnUse" xlink:href="#a"/>
  <linearGradient id="q" x1="6.229" x2="13.175" y1="9.159" y2="14.623" gradientTransform="translate(-6.535 -7.901) scale(1.6192)" gradientUnits="userSpaceOnUse" xlink:href="#d"/>
  <linearGradient id="w" x1="39.037" x2="28.384" y1="28.254" y2="11.107" gradientTransform="matrix(-.48084 .8865 -.8865 -.48084 69.84 12.827)" gradientUnits="userSpaceOnUse">
   <stop stop-color="#d1f6f6" offset="0"/>
   <stop stop-color="#2adbdb" offset="1"/>
  </linearGradient>
  <filter id="t" x="-.094" y="-.163" width="1.187" height="1.327">
   <feGaussianBlur stdDeviation=".164"/>
  </filter>
  <filter id="s" x="-.074" y="-.113" width="1.148" height="1.226">
   <feGaussianBlur stdDeviation=".133"/>
  </filter>
  <filter id="A" x="-.111" y="-.168" width="1.222" height="1.335">
   <feGaussianBlur stdDeviation=".147"/>
  </filter>
  <filter id="J" x="-.138" y="-.141" width="1.275" height="1.283">
   <feGaussianBlur stdDeviation=".147"/>
  </filter>
  <filter id="r" x="-.33" y="-.058" width="1.66" height="1.117">
   <feGaussianBlur stdDeviation=".149"/>
  </filter>
  <filter id="j" x="-.049" y="-.284" width="1.097" height="1.568">
   <feGaussianBlur stdDeviation=".707"/>
  </filter>
  <radialGradient id="m" cx="-24.032" cy="23.244" r="11.691" gradientTransform="matrix(1.5674 .61774 -.51967 1.3186 25.715 7.32)" gradientUnits="userSpaceOnUse">
   <stop stop-color="#7ed249" offset="0"/>
   <stop stop-color="#286325" offset="1"/>
  </radialGradient>
  <radialGradient id="k" cx="-18.187" cy="16.628" r="12.5" gradientTransform="matrix(.32217 .06755 -.20521 .97872 -8.915 1.582)" gradientUnits="userSpaceOnUse" xlink:href="#a"/>
 </defs>
 <path d="M24.031 35.584c-5.09 0-9.297.662-10.062 1.5-.913-.132-2.084-.164-3.375-.062-2.808.22-5.056.972-5 1.687.056.715 2.38 1.127 5.187.906 2.262-.178 4.131-.709 4.75-1.281 1.828.471 4.96.781 8.5.781 2.515 0 4.785-.178 6.563-.437-.018.03-.055.06-.063.094-.157.7 1.94 1.757 4.688 2.375 2.747.617 5.092.543 5.25-.157.157-.7-1.94-1.757-4.688-2.375a17.29 17.29 0 00-2.843-.406c.808-.251 1.28-.567 1.28-.875 0-.969-4.555-1.75-10.187-1.75z" fill-opacity=".769" fill-rule="evenodd" filter="url(#j)"/>
 <path transform="matrix(.89408 0 0 .89408 39.651 4.716)" d="M-29.583 25.5l6.292-9.252L-17.083 13l8.406 4.127 4.094 8.373-3.992 6.783L-17.083 38l-6.986-6.394-5.514-6.106z" fill="url(#k)"/>
 <path transform="matrix(.89408 0 0 .89408 39.651 4.716)" d="M-18.875 37.874c-1.938-.25-3.816-.999-5.488-2.186-.868-.615-2.293-2.04-2.909-2.908-.852-1.2-1.586-2.762-1.939-4.124-.185-.714-.372-2.302-.372-3.156 0-.854.187-2.442.372-3.156.353-1.362 1.087-2.924 1.94-4.124.617-.87 2.04-2.293 2.914-2.913 1.42-1.008 3.325-1.824 4.899-2.098 2.253-.392 4.721-.193 6.708.54 3.782 1.397 6.788 4.712 7.794 8.595.185.714.373 2.302.373 3.156 0 .854-.188 2.442-.373 3.156-.353 1.362-1.087 2.924-1.939 4.124-.616.868-2.04 2.293-2.908 2.908-1.2.853-2.762 1.587-4.124 1.94-1.348.35-3.37.45-4.948.246zm.697-19.675c.144-.102.293-.122.594-.082.234.031.562.01.788-.05.305-.082.42-.082.55 0 .319.199 1.163-.061 1.163-.36 0-.054.094-.275.208-.49.254-.479.258-.564.03-.767-.099-.087-.266-.353-.372-.591-.254-.568-.428-.66-.928-.49-.515.175-.738.165-1.086-.05-.287-.177-.303-.178-.815-.042-.288.077-.704.14-.926.14-.632.003-.81.134-.872.642-.05.409-.246.788-.527 1.021-.175.145-.163.447.024.616.179.162 1.457.617 1.766.629a.776.776 0 00.403-.126z" fill="url(#l)"/>
 <path transform="matrix(.89408 0 0 .89408 39.651 4.716)" d="M-16.864 13c-.848-.016-1.706.08-2.532.219.038.048.042.116.032.187-.015.1-.026.181-.063.25.018.033 0 .064 0 .125 0 .24-.191.375-.562.375-.39 0-.594.133-.594.406 0 .13-.056.287-.125.344-.089.074-.092.146-.031.219.092.112.7.035 1-.125a.893.893 0 01.375-.094c.131 0 .492-.059.78-.156.517-.174.513-.179 1-.031.188.057.292.085.407.094l.125-.032h.063c.09-.009.186.001.312-.031.45-.116.56-.095.625.156.003.013-.002.02 0 .031l.25.032.969.937.25.344c.08-.074.303-.043.687.125.608.266.869.493 1.032.844.063.137.143.306.187.375.225.354.561 1.15.5 1.187-.039.024-.249-.039-.469-.156-.497-.265-.664-.235-.906.125-.233.346-.242.616-.031 1.094.089.2.203.613.25.906.055.341.135.596.25.719.174.185.257.2.937.312l.313.063-.188.25a1.407 1.407 0 00-.281.625c-.033.22-.13.545-.219.718-.177.349-.115.557.188.72.31.166.207.463-.344.874-.352.263-.396.501-.187 1 .148.355.403.563.718.563.128 0 .219.012.219.031 0 .02-.073.21-.187.438-.118.233-.22.564-.22.75 0 .25-.08.415-.312.718-.325.427-.593 1.084-.593 1.407 0 .108.03.348.093.5.1.235.102.313 0 .656-.138.464-.105.566.375 1.031.356.344.78.492 1.438.5.465.005 1.448-.375 1.844-.719.319-.277.951-.6 1.062-.531.04.024.055.127.031.25-.034.18.022.283.25.469l.282.218-.25.657c-.117.33-.175.646-.188.781.034.26.03.329.063.594a13.177 13.177 0 001.343-1.563c.852-1.2 1.585-2.762 1.938-4.125.185-.714.375-2.302.375-3.156 0-.854-.19-2.442-.375-3.156-1.006-3.883-4-7.197-7.781-8.594-1.242-.459-2.678-.723-4.125-.75zm-.688.344c.065-.015.181 0 .313 0 .263 0 .406.01.375.062-.029.046-.198.094-.375.094-.178 0-.347-.048-.375-.094-.016-.025-.003-.048.062-.062zm-.687.031c.045-.028.062-.017.062.031 0 .049-.017.094-.062.094-.046 0-.094-.011-.094-.031s.048-.066.094-.094zm-4.032 1.813c-.123.016-.179.045-.25.124-.101.114-.16.307-.156.532.007.526-.107.748-.656 1.25-.41.375-.556.539-.688.937-.252.765-.527 1.183-.968 1.438-.776.448-1.83 1.19-2 1.406a1.295 1.295 0 00-.22.438c-.024.118-.132.514-.25.875-.147.455-.218.766-.187 1 .025.184.015.442-.031.562-.074.194-.133.585-.281 1.719-.067.51.323 1.855.719 2.437.172.255.352.643.406.875.054.233.209.708.344 1.063l.25.656.53.25c.489.233.72.437.72.656 0 .045-.15.191-.313.344-.482.45-.485.543-.156.906.158.176.374.529.469.782.045.122.066.21.125.312.058.101.145.198.218.281.148.168.308.294.532.407.363.183.622.597.593.968-.014.183-.048.29-.156.282l.094.5a12.33 12.33 0 003.875 1.53l.375-.28c-.042-.017-.094-.013-.094-.032 0-.153.667-.444 1.063-.468.664-.042.733-.09.906-.47.124-.272.223-.345.437-.406a.847.847 0 00.407-.28c.108-.167.112-.22 0-.438-.161-.312-.608-.688-.813-.688-.086 0-.259.041-.375.094-.293.133-.763-.083-1.406-.656a7.743 7.743 0 00-1.031-.75 5.53 5.53 0 01-.97-.75c-.3-.31-.638-.555-1.187-.813-.419-.197-.92-.5-1.125-.687-.436-.402-.844-.594-1.281-.594-.173 0-.445-.065-.594-.156-.268-.164-.281-.177-.281-.813 0-.56-.025-.69-.219-.968l-.218-.313.156-.313c.091-.17.175-.388.156-.468-.038-.162-.39-.266-.594-.188a.38.38 0 01-.281-.031c-.131-.07-.156-.184-.156-.594 0-1.276.858-1.448 1.531-.312.285.48.298.58.25.937-.045.335-.023.375.094.375.292 0 .442-.146.531-.562.05-.231.142-.539.219-.657.122-.186.197-.2.469-.156.34.055.562-.078.562-.343 0-.222.189-.344.5-.344a.993.993 0 00.5-.157 1.35 1.35 0 01.563-.187c.292-.024.309-.054.312-.25.007-.39.185-.5.813-.5h.562l.25-.344c.38-.555.39-.662.094-1.25-.146-.29-.366-.659-.5-.812a3.406 3.406 0 01-.469-.719c-.314-.71-.646-.699-.75.031-.04.278-.116.48-.312.688-.151.16-.297.346-.313.437-.045.25-.338.211-.469-.062-.093-.196-.11-.277 0-.657.072-.246.157-.655.157-.906 0-.427 0-.5.312-.781.325-.293.354-.281 1-.281.616 0 .686-.026.813-.219.085-.13.126-.275.093-.406-.048-.191-.119-.219-.531-.219-.407 0-.462-.021-.625-.25-.153-.215-.176-.386-.187-1.094v-.843l.53-.47c.461-.413.515-.505.47-.687-.075-.296-.382-.417-1.25-.469-.343-.02-.534-.016-.657 0zm4.969 3.218c.019.046-.045.093-.219.094a2.24 2.24 0 00-.468.063c-.054.014-.095.005-.125 0-.013-.003-.023.005-.032 0l-.375.187-.031.125c-.03.16-.022.31.031.344.05.03.094.152.094.281 0 .129.06.379.125.563.108.306.122.341-.031.593-.264.434-.295 1.05-.063 1.5.174.336.208.375.469.375.244 0 .328-.03.438-.25.072-.144.26-.386.406-.531.145-.145.25-.277.25-.313 0-.035.228-.246.5-.437s.505-.417.531-.5c.026-.083.007-.271-.062-.438-.07-.166-.125-.373-.125-.468 0-.096-.072-.34-.157-.532s-.19-.418-.218-.5c-.02-.056-.086-.108-.157-.156h-.781zm5.625 2.344c.096 0 .438.313.438.406 0 .037-.06.13-.125.219-.099.133-.124.134-.157.031-.19-.593-.228-.656-.156-.656zm3 .25c.246 0 .688.278.688.438 0 .05-.141.297-.313.562-.172.265-.345.498-.375.5-.03.002-.123-.177-.219-.375-.3-.621-.21-1.125.219-1.125zm1.156 1.844c.06-.017.122.05.157.187.096.386-.118.871-.594 1.344-.25.248-.469.519-.469.594 0 .075-.075.2-.187.312a.774.774 0 01-1 .063c-.35-.275-.557-.225-1 .281-.521.594-.625.59-.625 0 0-.25.016-.472.062-.5.046-.028.101-.205.094-.406-.024-.638.193-.776.906-.469.464.2.844.183.844-.063 0-.207-.239-.435-.563-.5-.147-.03-.268-.073-.25-.125.058-.162.554-.092.813.125.16.135.297.185.406.157.243-.064.304-.156.188-.438-.125-.3-.082-.405.125-.218.083.075.293.158.437.187.236.047.277.021.438-.25.103-.176.16-.265.218-.281zm2.313.156c.09.083.281 1.31.281 1.75 0 .225-.017.406-.062.406-.046 0-.093.012-.094 0-.002-.011-.015-.368-.031-.781-.017-.412-.06-.91-.094-1.094-.034-.183-.03-.309 0-.281zm-1.344 1.094c.073-.025.26.045.469.218.306.255.322.5.031.344-.223-.12-.531-.414-.531-.5 0-.033.007-.054.031-.062z" fill="url(#m)"/>
 <path d="M11.644 29.697l.97-2.035 2.418-2.18c.05.315.91-.024.893-.131-.097-.02-.48.004-.543-.16-.149-.183 2.327-.104 1.304-.864-1.024-.762-1.925.072-1.925.072s-3.76 1.72-4.391 3.636a11.723 11.723 0 01-.743 1.7l2.017-.038z" fill="url(#n)" overflow="visible"/>
 <path d="M13.792 36.14l2.119.772 3.251-.137c-.09-.151.512-.901.541-.851.233.343-.132.6-.247.893 0 0 1.894-1.638 1.696-.377-.197 1.261-1.458 1.064-1.458 1.064s-3.634 1.723-5.427.796c-.802-.414-1.869-1.24-1.869-1.24l1.394-.92z" fill="url(#o)" overflow="visible"/>
 <path d="M11.162 27.73c-.282-.008-.607.082-1.006.336-.59 1.323-2.04 2.374-1.341 4.387l1.536 3.269c.855.93 1.597 1.617 3.465 2.43 1.296-.337 1.139-.976 1.844-1.424-.509-.442-.583-.697-1.285-.894.611-.252 1.195-.463 1.816-.727a10.714 10.714 0 01-.922-1.09c-.762-1.073-1.417-2.47-1.733-3.688-.049-.189-.094-.52-.14-.81-.56.206-1.095.416-1.676.587.789-.732.558-1.117.81-1.677-.525-.36-.9-.684-1.368-.698z" fill="url(#p)" overflow="visible"/>
 <path transform="matrix(-.37719 -.81063 .81063 -.37719 1.883 48.506)" d="m14.797 11.276c0 2.4-1.217 4.398-4.534 4.499-2 0.061-2.637-2.1-2.712-4.5-0.1-3.26 1.622-4.347 3.623-4.347s3.623 1.947 3.623 4.348z" fill="url(#q)" fill-rule="evenodd"/>
 <path transform="matrix(-.37719 -.81063 .81063 -.37719 1.883 48.506)" d="M8.769 8.12c-1.168 1.75-.737 5.2-.39 6.137-.407.017-1.526-4.32.39-6.138z" fill="#fff" fill-opacity=".643" filter="url(#r)" overflow="visible"/>
 <path d="M2.548 36.031c-.469.106-.295 1.601.437 1.665-.223.385.37 1.32 1.15.987-.273.831.81.88.824.492.237.291 1.365.13 1.2-.342-.117-.333-.63-1.202-1.14-.954.225-.318-.109-1.2-.59-1.182.262-.288-.04-1.35-.46-1.377.478-.216.495-1.286.122-1.68.086-.535-1.035-.705-1.037.08-.784.157-1.139.924-.636 1.203-.534.038-.42 1.045.13 1.108z" overflow="visible"/>
 <path d="M6.766 36.913c.316-.147.678-.037.81.245.132.283-.018.632-.334.779-.316.147-.679.037-.81-.246-.132-.283.017-.631.334-.778zM5.947 34.555c.316-.147.679-.037.81.246.132.283-.017.631-.333.778-.316.147-.68.037-.81-.245-.132-.283.017-.632.333-.779z" fill-rule="evenodd"/>
 <path d="M9.262 37.011c.228-.558.39-1.214.358-1.645-.13-.975-.892-1.116-1.624-1.65.96.747 1.626 1.688 1.266 3.295z" font-family="Bitstream Vera Sans" font-weight="400" overflow="visible" style="block-progression:tb;text-indent:0;text-transform:none"/>
 <path transform="matrix(-.37719 -.81063 .81063 -.37719 1.883 48.506)" d="M7.827 8.769c-.066-.358-.223-.715.292-1.072-.31-.862.343-.91.844-.65.267-1.075 1.274-.954 1.462-.584.615-.947 1.512-.399 1.656 0-1.303.155-2.462-.46-4.254 2.306z" fill="#fff" fill-opacity=".313" filter="url(#s)" overflow="visible"/>
 <path transform="matrix(-.37719 -.81063 .81063 -.37719 1.883 48.506)" d="M4.904 17.375c-.553.016 2.062-2.179 3.41-2.403l.714.617c-1.989-.088-2.834 1.096-4.124 1.786z" fill="#fff" fill-opacity=".719" filter="url(#t)" overflow="visible"/>
 <path d="M33.023 37.63l-2.213.432-3.19-.642c.222-.228-.563-.716-.638-.639.042.09.29.383.195.531-.058.228-1.47-1.807-1.472-.533 0 1.277 1.206 1.504 1.206 1.504s3.62 1.996 5.536 1.36c.857-.285 1.807-.416 1.807-.416l-1.231-1.597z" fill="url(#u)" overflow="visible"/>
 <path d="M36.917 32.065l-.642-2.161-2.047-2.53c-.069.162-1.03.126-1.006.073.136-.392.56-.252.864-.334 0 0-2.443-.545-1.313-1.138 1.13-.593 1.723.537 1.723.537s3.55 1.893 3.873 3.885c.145.89-.082 2.057-.082 2.057l-1.37-.389z" fill="url(#v)" overflow="visible"/>
 <path d="M36.28 30.218c-.052.671-.204.882.056 1.564-.45-.27-.87-.54-1.314-.81a12.085 12.085 0 01-1.536 3.045c-.42.591-1.265 1.467-1.984 2.096.604.416 1.225.784 1.816 1.23-1.058-.198-1.244.204-1.844.335.038 1.019-.032 1.672 1.146 2.123 1.413-.315 3.102.223 4.302-1.537l1.733-3.185c.237-1.24.319-2.262-.14-4.247-1.044-.84-1.455-.315-2.235-.614z" fill="url(#w)" overflow="visible"/>
 <path d="M35.05 30.86a12.064 12.064 0 01-1.564 3.157c-.42.591-1.265 1.467-1.984 2.096.302.182.588.36.838.643.15-.334.193-.757.587-.867 1.247.937 2.169 1.915 3.8 2.794.247-.117.388-.352.447-.67-.17.225-2.08-1.521-2.375-2.068-.333-.617.979-3.07 1.341-2.822 1.052.2 1.96.598 2.682 1.314.145-.283.236-.57.056-.978 0 0-3.173-1.522-3.492-1.62-.32-.1-.056-.84-.056-.84s-.232-.112-.28-.139z" fill="url(#x)" overflow="visible"/>
 <path transform="matrix(-.42628 .78592 -.78592 -.42628 68.009 13.276)" d="M42.124 13.969c0 2.214-1.122 4.056-4.181 4.149-1.845.056-2.433-1.936-2.501-4.15-.094-3.007 1.496-4.009 3.34-4.009 1.846 0 3.342 1.795 3.342 4.01z" fill="url(#y)" fill-rule="evenodd"/>
 <path transform="matrix(-.42628 .78592 -.78592 -.42628 68.009 13.276)" d="M36.666 10.327c-1.168 1.752-.737 5.201-.39 6.138-.407.018-1.526-4.319.39-6.138z" fill="#fff" fill-opacity=".607" filter="url(#r)" overflow="visible"/>
 <path transform="matrix(-.42628 .78592 -.78592 -.42628 68.009 13.276)" d="M39.807 9.839c-1.402-1.62-3.715-.195-4.232 1.76 2.378.596 2.903-.613 4.376-.922.89.502 1.151 1.636 2.042 1.918.092-1.63-.57-3.924-2.186-2.756z" fill="url(#z)" overflow="visible"/>
 <path d="M41.794 36.89c-.283-.154-.4-.483-.264-.736.137-.253.478-.333.76-.18.283.153.4.482.264.735-.138.253-.478.334-.76.18zM40.497 38.791c-.282-.153-.4-.482-.263-.735s.477-.334.76-.18c.283.153.4.482.263.735s-.477.333-.76.18z" fill-rule="evenodd"/>
 <path d="M40.495 34.986c-.54.138-1.114.378-1.415.64-.651.631-.337 1.273-.33 2.109.025-1.122.357-2.132 1.745-2.749z" font-family="Bitstream Vera Sans" font-weight="400" overflow="visible" style="block-progression:tb;text-indent:0;text-transform:none"/>
 <path transform="matrix(-.42628 .78592 -.78592 -.42628 68.009 13.276)" d="M39.037 9.678c-1.1.158-2.17.656-3.183 1.851 0 0 1.137-2.988 3.183-1.851z" fill="#fff" fill-opacity=".388" filter="url(#A)" overflow="visible"/>
 <path transform="matrix(-.42628 .78592 -.78592 -.42628 68.009 13.276)" d="M33.126 20.135c-.553.017 2.062-2.178 3.41-2.403l.714.617c-1.99-.087-2.834 1.096-4.124 1.786z" fill="#fff" fill-opacity=".719" filter="url(#t)" overflow="visible"/>
 <path d="M27.357 17.2l1.73 1.543c.638 1.043.613 2.18.662 3.307-.306-.088-.361.835-.258.865.059-.08.199-.437.374-.425.229-.057-.887 2.154.233 1.548 1.123-.608.748-1.777.748-1.777s.027-4.134-1.445-5.515c-.658-.617-1.227-1.39-1.227-1.39l-.817 1.844z" fill="url(#B)" overflow="visible"/>
 <path d="M20.609 16.43l-1.725 1.136c-.508 1.02-.767 2.287-1.116 3.465.175-.017.601.844.543.85-.409.066-.488-.373-.705-.602 0 0 .686 2.408-.374 1.698-1.06-.711-.35-1.772-.35-1.772s-.029-4.021 1.568-5.256c.714-.552 2.307-1.17 2.307-1.17l-.148 1.65z" fill="url(#C)" overflow="visible"/>
 <path d="M22.45 13.481c-1.204.384-2.163.774-3.689 2.124-.24 1.318.422 1.1.531 1.928.56-.25.957-.674 1.257-.503.587-.22 1.164-.409 1.705-.503 2.014-.35 4.23-.181 6.007.475.383.142.753.319 1.117.503.096-.232.144-.525.084-.978-.95-1.092-1.29-2.83-3.408-3.046h-3.605z" fill="url(#D)" overflow="visible"/>
 <path d="M22.636 13.63s-.378 2.142.726 3.572c1.018-.812 1.567-3.659 1.567-3.659l-2.293.087z" fill="url(#E)" overflow="visible"/>
 <path transform="matrix(.89408 0 0 .89408 1.73 -.685)" d="M28.218 10.82c.714.904 2.274.038 2.03 2.943 0 0 .928.451 1.304.794.665.608-.586 1.649-1.32 1.1-.056-.043.183-1.45-.395-1.492-2.349-.17-2.388-2.685-2.388-2.685l.77-.66z" fill="url(#F)" overflow="visible"/>
 <path transform="matrix(.89408 0 0 .89408 1.73 -.685)" d="M22.25 10.367c-.93.678-2.2-.575-2.746 2.288 0 0-1.015.186-1.47.415-.803.406.122 1.746.975 1.413.067-.026.215-1.446.782-1.33 2.308.468 3.022-1.945 3.022-1.945l-.564-.841z" fill="url(#G)" overflow="visible"/>
 <path transform="matrix(.89408 0 0 .89408 1.73 -.685)" d="M28.354 12.583c0 2.165-1.097 3.965-4.087 4.056-1.803.055-2.378-1.893-2.445-4.056-.091-2.94 1.462-3.919 3.266-3.919s3.266 1.755 3.266 3.92z" fill="url(#H)" fill-rule="evenodd"/>
 <path transform="matrix(.89408 0 0 .89408 1.73 -.685)" d="M23.058 9.386c-1.167 1.75-.737 5.2-.39 6.138-.407.017-1.526-4.32.39-6.138z" fill="#fff" fill-opacity=".513" filter="url(#r)" overflow="visible"/>
 <path transform="matrix(.89408 0 0 .89408 1.73 -.685)" d="M24.916 7.997c-1.076-.63-3.432.775-2.895 2.685 2.325.583 2.026-.518 2.88-.93.32.856 2.407 1.355 3.278 1.63.968-1.888-.896-4.501-3.263-3.385z" fill="url(#I)" overflow="visible"/>
 <path d="M22.773 9.877c0 .315-.228.57-.51.57-.28 0-.508-.255-.508-.57 0-.314.227-.569.509-.569.28 0 .509.255.509.57zM25.01 10.105c0 .314-.227.569-.508.569s-.51-.255-.51-.569c0-.314.229-.569.51-.569.28 0 .509.255.509.569z" fill-rule="evenodd"/>
 <path d="M21.743 11.88c.37.399.843.781 1.208.918.847.265 1.252-.304 1.967-.699-.977.5-1.998.687-3.175-.219z" font-family="Bitstream Vera Sans" font-weight="400" overflow="visible" style="block-progression:tb;text-indent:0;text-transform:none"/>
 <path transform="matrix(.89408 0 0 .89408 1.73 -.685)" d="M22.311 10.49c.136-1.435 1.589-2.1 2.468-2.468.14-.139-3.166.146-2.468 2.468z" fill="#fff" fill-opacity=".665" filter="url(#J)" overflow="visible"/>
 <path transform="matrix(.89408 0 0 .89408 .684 3.032)" d="M20.46 14.55c-.553.016 2.063-2.18 3.41-2.404l.715.617c-1.99-.087-2.835 1.096-4.125 1.786z" fill="#fff" fill-opacity=".576" filter="url(#t)" overflow="visible"/>
</svg>
