<?xml version="1.0" encoding="UTF-8"?>
<svg width="48" height="48" xmlns="http://www.w3.org/2000/svg" xmlns:xlink="http://www.w3.org/1999/xlink">
 <defs>
  <linearGradient id="r" x1="-66.026" x2="-78.886" y1="-79.003" y2="-96.15" gradientUnits="userSpaceOnUse" xlink:href="#b"/>
  <linearGradient id="i" x1="-2" x2="37" y1="-1" y2="40" gradientTransform="translate(1 -1.4)" gradientUnits="userSpaceOnUse" xlink:href="#a"/>
  <linearGradient id="a">
   <stop stop-color="#520" offset="0"/>
   <stop stop-color="#b6632c" offset="1"/>
  </linearGradient>
  <linearGradient id="b">
   <stop stop-color="#555" offset="0"/>
   <stop offset="1"/>
  </linearGradient>
  <linearGradient id="u" x1="10.255" x2="21.804" y1="20.173" y2="22.159" gradientTransform="translate(1 -1.4)" gradientUnits="userSpaceOnUse" xlink:href="#a"/>
  <linearGradient id="l" x1="35.486" x2="26.211" y1="20.063" y2="22.061" gradientTransform="translate(1 -1.4)" gradientUnits="userSpaceOnUse" xlink:href="#a"/>
  <linearGradient id="t" x1="9.307" x2="14.735" y1="23.679" y2="26.459" gradientTransform="translate(1 -1.4)" gradientUnits="userSpaceOnUse" xlink:href="#a"/>
  <linearGradient id="j" x1="28" x2="13" y1="22" y2="3" gradientTransform="translate(1 -1.4)" gradientUnits="userSpaceOnUse" xlink:href="#b"/>
  <linearGradient id="m" x1="9" x2="8" y1="20" y2="15" gradientTransform="translate(1 -1.4)" gradientUnits="userSpaceOnUse" xlink:href="#b"/>
  <linearGradient id="k" x1="21" x2="17" y1="19" y2="15" gradientTransform="translate(1 -1.4)" gradientUnits="userSpaceOnUse" xlink:href="#b"/>
  <linearGradient id="n" x1="19" x2="14" y1="32" y2="25" gradientTransform="translate(1 -1.4)" gradientUnits="userSpaceOnUse" xlink:href="#b"/>
  <linearGradient id="v" x1="15.662" x2="15.898" y1="28.664" y2="31.443" gradientTransform="translate(1 -1.4)" gradientUnits="userSpaceOnUse" xlink:href="#a"/>
  <linearGradient id="w" x1="14.536" x2="15.398" y1="28.785" y2="35.301" gradientTransform="translate(1 -1.4)" gradientUnits="userSpaceOnUse" xlink:href="#a"/>
  <linearGradient id="p" x1="-66.425" x2="-70.712" y1="-83.065" y2="-95.925" gradientUnits="userSpaceOnUse" xlink:href="#b"/>
  <linearGradient id="c">
   <stop stop-color="#e6e6e6" offset="0"/>
   <stop stop-color="#d5d5d5" offset="1"/>
  </linearGradient>
  <linearGradient id="s" x1="32" x2="22" y1="44" y2="29" gradientTransform="translate(1 -1.4)" gradientUnits="userSpaceOnUse" xlink:href="#b"/>
  <linearGradient id="h" x1="17" x2="8" y1="47" y2="31" gradientTransform="translate(1 -1.4)" gradientUnits="userSpaceOnUse" xlink:href="#b"/>
  <linearGradient id="e" x1="39" x2="11" y1="48" y2="31" gradientTransform="translate(1 -1.4)" gradientUnits="userSpaceOnUse" xlink:href="#b"/>
  <linearGradient id="f" x1="11.956" x2="26" y1="33.202" y2="39" gradientTransform="translate(1 -1.4)" gradientUnits="userSpaceOnUse" xlink:href="#c"/>
  <linearGradient id="g" x1="26" x2="16" y1="65" y2="36" gradientTransform="translate(1 -1.4)" gradientUnits="userSpaceOnUse" xlink:href="#b"/>
  <filter id="x" x="-.204" y="-.137" width="1.408" height="1.273">
   <feGaussianBlur stdDeviation=".07"/>
  </filter>
  <filter id="y">
   <feGaussianBlur stdDeviation=".178"/>
  </filter>
  <filter id="A" x="-.282" y="-.053" width="1.563" height="1.106">
   <feGaussianBlur stdDeviation=".124"/>
  </filter>
  <filter id="z" x="-.392" y="-.328" width="1.784" height="1.656">
   <feGaussianBlur stdDeviation=".838"/>
  </filter>
  <filter id="B" x="-.256" y="-.418" width="1.512" height="1.835">
   <feGaussianBlur stdDeviation=".327"/>
  </filter>
  <filter id="C" x="-.123" y="-.204" width="1.247" height="1.407">
   <feGaussianBlur stdDeviation=".131"/>
  </filter>
  <filter id="d" x="-.034" y="-.234" width="1.068" height="1.469">
   <feGaussianBlur stdDeviation=".531"/>
  </filter>
  <radialGradient id="o" cx="9.567" cy="19.42" r="1.832" gradientTransform="matrix(1 0 0 .41253 1 10.008)" gradientUnits="userSpaceOnUse" xlink:href="#c"/>
  <radialGradient id="q" cx="18.28" cy="18.464" r="2.653" gradientTransform="matrix(1.275 .12471 -.02772 .2834 -3.514 9.601)" gradientUnits="userSpaceOnUse" xlink:href="#c"/>
 </defs>
 <path transform="matrix(.93986 0 0 1.4713 2.255 -20.971)" d="M43.973 41.537c0 1.56-8.394 2.67-18.832 2.605-7.053-.044-18.694-.25-18.694-1.81s8.186-3.62 18.625-3.62 18.9 1.265 18.9 2.825z" fill-opacity=".769" fill-rule="evenodd" filter="url(#d)"/>
 <path d="m8.536 41.6c0.36 0.78 29.635 3.242 34.77-1.378 0 0-0.281-1.618-1.608-3.83-0.868-1.446-3.648-4.921-6.838-8.769-1.457-1.757-2.402-4.87-2.86-5.023-1.327-0.443-12.095 0.022-14.306 3.18-2.211 3.159-4.106 3.033-4.422 4.233s-3.587 7.883-4.736 11.587z" fill="url(#e)" overflow="visible"/>
 <path d="M19 22.6l-6.369 18.08 2.789.324L32 23.6c-1.569-.546-8.667-.667-13-1z" fill="url(#f)" overflow="visible"/>
 <path d="M16.304 33.866c-.177.78-.28 1.554.207 2.274-2.336 1.547-2.84 3.762-4.13 5.384l2.468-.126c.695-1.517 1.774-2.834 2.15-5.068 1.003-1.187 1.485-2.076 2.085-3.032l-2.78.568z" fill="url(#g)" overflow="visible"/>
 <path d="M13.525 31.213c-1.83 4.814-2.874 7.625-4.08 10.57 1.707.497 2.84.558 4.091.597.462-2.506.838-6.232 2.263-8.577l-2.274-2.59z" fill="url(#h)" overflow="visible"/>
 <path d="M12.577 4.493s-2.148 1.895-2.59 3.284c-.442 1.39-.947 3.285-.821 4.233.126.947-.253 4.737-.063 5.938.19 1.2-.38 2.4.19 4.106.568 1.705 1.01 3.726 1.705 5.18.695 1.452 2.834 4.693 3.853 5.874C16.243 34.72 17 33.6 17 33.6s-.76.392.441.456c1.2.063 3.159-.253 4.675-.822 1.516-.568 7.2-7.454 7.454-8.59.252-1.138.315-4.233.442-5.18.126-.948-.127-5.054-.316-6.507-.19-1.453-2.021-7.012-3.348-8.212-1.327-1.2-10.17-2.653-13.77-.252z" fill="url(#i)" overflow="visible"/>
 <path d="M10.001 7.82c-.024-.047.72-2.59 2.323-4.085 1.079-1.007 3.854-2.717 7.454-2.78 4.644.249 9.071 2.516 9.918 7.328.222 2.33.229 4.273.292 6.105-.911-.382-2.377 1.98-2.377 1.033 0-.948 0-3.032-.631-4.043-.632-1.01-2.653-.505-2.527-1.706.172-1.638.632-4.106-1.39-4.61-2.021-.506-6.903-.117-7.705.67-.686.675-2.287-2.63-5.357 2.089z" fill="url(#j)" overflow="visible"/>
 <path d="M16.557 15.042c2.4-2.55 4.353-.842 6.443-.442-1.794.214-4.111-.356-5.306.758-.186.143-.685.42-1.137-.316z" fill="url(#k)" overflow="visible"/>
 <path d="M29.443 19.906c.053-.112 1.11-3.677-.19-4.548 3.088-6.428 3.747 8.775.19 4.548z" fill="url(#l)" overflow="visible"/>
 <path d="M12.072 15.231c-.825-1.271-1.9-.433-3.025-.503-.088.122-.313.205 0 .442 1.424-.056 2.08.332 2.835.946.315-.138.54-.397.19-.885z" fill="url(#m)" overflow="visible"/>
 <path d="M15.799 25.717c-.548-1.158-2.745.471-2.97 1.011-.39.943-.126 1.516-.126 1.516.107-1.587 2.261-.942 3.348-1.832.735.704 2.503.324 4.738 1.137 0 0-.316-1.137-1.958-1.642-1.166-.359-1.769-.885-3.032-.19z" fill="url(#n)" overflow="visible"/>
 <path d="M9.608 18.01c1.364-1.53 2.765-.305 3.664.127 0 0-1.895 1.516-3.664-.126z" fill="url(#o)" overflow="visible"/>
 <path transform="matrix(.23328 0 0 .23328 28.496 39.977)" d="M-69.05-93.892a3.25 3.52 0 11-6.5 0 3.25 3.52 0 116.5 0z" fill="url(#p)" fill-rule="evenodd"/>
 <path d="M18.262 17.505c.29-.782 2.754-1.843 5.307-.505 0 0-2.97 1.642-5.307.505z" fill="url(#q)" overflow="visible"/>
 <path transform="matrix(.23328 0 0 .23328 37.403 39.03)" d="M-69.05-93.892a3.25 3.52 0 11-6.5 0 3.25 3.52 0 116.5 0z" fill="url(#r)" fill-rule="evenodd"/>
 <path d="M31.591 22.559c-1.132 5.466-14.417 12.988-18.146 19.73 2.888.45 5.27.58 7.678.55l1.498-4.425 2.59-.505c3.62-3.621 6.655-7.075 9.096-10.36.229-1.782-.375-4.226-2.716-4.99z" fill="url(#s)" overflow="visible"/>
 <path d="M13 22.6s-1-1-.928.527c.049 1.041.758 1.516 1.326 1.074.569-.442 2.508-1.854-.398-1.601z" fill="url(#t)" overflow="visible"/>
 <path d="M16.936 21.611c-1.306-.458-1.79-4.175-2.78-4.485 0 0 0 3.98-.505 5.117s-.569 2.148.126 2.148 1.011-.821 2.022-.38c1.01.443 3.158.506 3.032-.441-.126-.948-1.895-1.959-1.895-1.959z" fill="url(#u)" overflow="visible"/>
 <path d="M13.472 27.479s.752-.245 1.392-.095c.64.151.658-.001 1.393-.169 1.06-.242 2.496.303 3.01.132 0 .3-4.365 1.276-5.795.132z" fill="url(#v)" overflow="visible"/>
 <path d="M13.528 27.497c1.8.459 3.689.53 5.74-.112 0 0-.674 1.723-3.05 1.768-1.99.038-2.257-1.355-2.69-1.656z" fill="url(#w)" overflow="visible"/>
 <path d="M11.127 18.63c-.012-.493-.125-1.02.69-1.218 0 0-1.218-.184-.69 1.217zM20.014 17.757c-.012-.492-.124-1.02.69-1.218 0 0-1.218-.183-.69 1.218z" fill="#fff" fill-opacity=".464" filter="url(#x)" overflow="visible"/>
 <path d="M10.76 6.596s-.222-.779 1.607-2.641c1.14-1.16 3.961-2.321 4.685-2.457.74-.14-4.659 1.583-6.292 5.098z" fill="#fff" fill-opacity=".563" filter="url(#y)" overflow="visible"/>
 <path d="M13.194 6.068s-1.465.694-2.25 2.044c-.836 1.433-.825 2.648-.988 4.087 6.47 0 5.922-3.143 3.238-6.131z" fill="#fff" fill-opacity=".179" filter="url(#z)" overflow="visible"/>
 <path d="M14.32 18.239s-.184 1.998-.162 2.457c.023.46-.344 1.424-.505 2.02-.16.598-.482 1.149 0 1.149.483 0 1.08-3.536.666-5.626z" fill="#fff" fill-opacity=".219" filter="url(#A)" overflow="visible"/>
 <path d="M10.76 19.617c-.421.191-.908 1.235-.276 1.561.52.269 2.71.207 2.756-.23.046-.436-.253-1.974-2.48-1.331z" fill="#fff" fill-opacity=".098" filter="url(#B)" overflow="visible"/>
 <path d="M12.827 27.08c.815-.605 1.563-1.478 2.549-1.4-.41-.257-1.38-.36-2.55 1.4z" fill="#fff" fill-opacity=".353" filter="url(#C)" overflow="visible"/>
</svg>
