<?xml version="1.0" encoding="UTF-8"?>
<svg width="48" height="48" xmlns="http://www.w3.org/2000/svg" xmlns:xlink="http://www.w3.org/1999/xlink">
 <defs>
  <linearGradient id="u" x1="17.956" x2="10.695" y1="30.922" y2="30.922" gradientTransform="matrix(1.1863 .02445 -.02445 1.1863 15.9 -6.656)" gradientUnits="userSpaceOnUse" xlink:href="#b"/>
  <linearGradient id="a">
   <stop stop-color="#a20000" offset="0"/>
   <stop stop-color="#d40000" offset="1"/>
  </linearGradient>
  <linearGradient id="b">
   <stop stop-color="#7ed249" offset="0"/>
   <stop stop-color="#286325" offset="1"/>
  </linearGradient>
  <linearGradient id="j" x1="2.349" x2="12.643" y1="1.126" y2="13" gradientTransform="matrix(1.1866 0 0 1.1866 7.587 -5.745)" gradientUnits="userSpaceOnUse" xlink:href="#a"/>
  <linearGradient id="i" x1="17.956" x2="10.695" y1="30.922" y2="30.922" gradientTransform="matrix(1.1866 0 0 1.1866 7.587 -9.305)" gradientUnits="userSpaceOnUse" xlink:href="#b"/>
  <linearGradient id="g" x1="14.888" x2="16.134" y1="39" y2="30.5" gradientTransform="matrix(1.1866 0 0 1.1866 7.587 -9.305)" gradientUnits="userSpaceOnUse" xlink:href="#b"/>
  <linearGradient id="f" x1="15.767" x2="25.779" y1="12.5" y2="10.137" gradientTransform="matrix(1.1866 0 0 1.1866 7.587 -5.745)" gradientUnits="userSpaceOnUse" xlink:href="#c"/>
  <linearGradient id="e" x1="16" x2="15" y1="4" y2="10" gradientTransform="matrix(1.1866 0 0 1.1866 7.587 -5.745)" gradientUnits="userSpaceOnUse" xlink:href="#c"/>
  <linearGradient id="p" x1="2.349" x2="12.643" y1="1.126" y2="13" gradientTransform="matrix(1.1842 -.07434 .07434 1.1842 -1.13 -.399)" gradientUnits="userSpaceOnUse" xlink:href="#a"/>
  <linearGradient id="o" x1="17.956" x2="10.695" y1="30.922" y2="30.922" gradientTransform="scale(1.1866) rotate(-3.592 -53.674 16.514)" gradientUnits="userSpaceOnUse" xlink:href="#b"/>
  <linearGradient id="n" x1="14.888" x2="16.134" y1="39" y2="30.5" gradientTransform="scale(1.1866) rotate(-3.592 -53.674 16.514)" gradientUnits="userSpaceOnUse" xlink:href="#b"/>
  <linearGradient id="m" x1="14" x2="9.959" y1="39" y2="27.463" gradientTransform="scale(1.1866) rotate(-3.592 -53.674 16.514)" gradientUnits="userSpaceOnUse" xlink:href="#b"/>
  <linearGradient id="l" x1="15.767" x2="25.779" y1="12.5" y2="10.137" gradientTransform="matrix(1.1842 -.07434 .07434 1.1842 -1.13 -.399)" gradientUnits="userSpaceOnUse" xlink:href="#c"/>
  <linearGradient id="k" x1="16" x2="15" y1="4" y2="10" gradientTransform="matrix(1.1842 -.07434 .07434 1.1842 -1.13 -.399)" gradientUnits="userSpaceOnUse" xlink:href="#c"/>
  <linearGradient id="v" x1="2.349" x2="12.643" y1="1.126" y2="13" gradientTransform="scale(1.1866) rotate(-8.389 .124 -75.445)" gradientUnits="userSpaceOnUse" xlink:href="#a"/>
  <linearGradient id="c">
   <stop stop-color="#fd0000" offset="0"/>
   <stop stop-color="#ff3e3e" offset="1"/>
  </linearGradient>
  <linearGradient id="t" x1="14.888" x2="16.134" y1="39" y2="30.5" gradientTransform="scale(1.1866) rotate(1.181 278.38 699.84)" gradientUnits="userSpaceOnUse" xlink:href="#b"/>
  <linearGradient id="s" x1="14" x2="9.959" y1="39" y2="27.463" gradientTransform="matrix(1.1863 .02445 -.02445 1.1863 15.9 -6.656)" gradientUnits="userSpaceOnUse" xlink:href="#b"/>
  <linearGradient id="r" x1="15.767" x2="25.779" y1="12.5" y2="10.137" gradientTransform="scale(1.1866) rotate(-8.389 .124 -75.445)" gradientUnits="userSpaceOnUse" xlink:href="#c"/>
  <linearGradient id="q" x1="16" x2="15" y1="4" y2="10" gradientTransform="scale(1.1866) rotate(-8.389 .124 -75.445)" gradientUnits="userSpaceOnUse" xlink:href="#c"/>
  <linearGradient id="h" x1="25.7" x2="21.37" y1="35.941" y2="22.253" gradientUnits="userSpaceOnUse" xlink:href="#b"/>
  <filter id="x" x="-.489" y="-.074" width="1.978" height="1.149">
   <feGaussianBlur stdDeviation=".152"/>
  </filter>
  <filter id="A" x="-.347" y="-.031" width="1.694" height="1.061">
   <feGaussianBlur stdDeviation=".166"/>
  </filter>
  <filter id="z" x="-.489" y="-.027" width="1.978" height="1.054">
   <feGaussianBlur stdDeviation=".166"/>
  </filter>
  <filter id="y" x="-.615" y="-.028" width="2.231" height="1.056">
   <feGaussianBlur stdDeviation=".166"/>
  </filter>
  <filter id="D" x="-.252" y="-.144" width="1.504" height="1.289">
   <feGaussianBlur stdDeviation=".182"/>
  </filter>
  <filter id="B" x="-.37" y="-.184" width="1.739" height="1.369">
   <feGaussianBlur stdDeviation=".343"/>
  </filter>
  <filter id="C" x="-.355" y="-.156" width="1.71" height="1.313">
   <feGaussianBlur stdDeviation=".343"/>
  </filter>
  <filter id="w" x="-.279" y="-.06" width="1.558" height="1.119">
   <feGaussianBlur stdDeviation=".152"/>
  </filter>
  <filter id="E" x="-.409" y="-.061" width="1.818" height="1.122">
   <feGaussianBlur stdDeviation=".218"/>
  </filter>
  <filter id="d" x="-.092" y="-.442" width="1.184" height="1.883">
   <feGaussianBlur stdDeviation=".719"/>
  </filter>
 </defs>
 <path d="M24.438 41.031c-2.067 0-3.72.461-3.72 1.032 0 .182.17.351.47.5a11.39 11.39 0 00-1.875-.157c-2.213 0-4 .553-4 1.25 0 .698 1.787 1.282 4 1.282 2.212 0 4-.584 4-1.282 0-.295-.336-.535-.875-.75.59.108 1.239.188 2 .188.815 0 1.54-.097 2.156-.219.168.527 1.764.938 3.718.938 2.067 0 3.75-.462 3.75-1.032 0-.57-1.683-1.031-3.75-1.031-.815 0-1.54.065-2.156.188-.214-.514-1.798-.907-3.718-.907z" fill-opacity=".769" fill-rule="evenodd" filter="url(#d)"/>
 <path d="m22.575 10.342 1.624-6.595 2.373 8.307s-1.861 4.683-3.997-1.712z" fill="url(#e)" overflow="visible"/>
 <path d="M24.199 15.613c6.296-.632 3.56-7.12 4.746-13.052-5.933 2.373-5.783 6.97-4.746 13.052z" fill="url(#f)" overflow="visible"/>
 <path d="M23.774 28.266c.807.368-.012-7.244 2.36-10.804 0 7.12-.027 12.786-1.935 19.51l-.425-8.706z" fill="url(#g)" overflow="visible"/>
 <path d="M22.674 35.941c-.282.088-2.724-14.213-1.304-16.295.075 5.633 1.206 8.681 2.375 11.64l-1.071 4.655z" fill="url(#h)" overflow="visible"/>
 <path d="M23.274 14.677c.585 8.941-.918 19.746-.699 26.517 1.187 1.877 2.373.656 3.56 0-2.853-5.632-.73-17.168-1.936-26.767l-.925.25z" fill="url(#i)" overflow="visible"/>
 <path d="M20.639 3.747c1.13 3.878-4.746 11.866 3.56 11.866 3.56 0-.978-9.721-3.56-11.866z" fill="url(#j)" overflow="visible"/>
 <path d="m14.837 14.718 1.208-6.683 2.888 8.14s-1.564 4.792-4.096-1.457z" fill="url(#k)" overflow="visible"/>
 <path d="m16.788 19.877c6.244-1.026 3.107-7.329 3.92-13.324-5.773 2.74-5.336 7.318-3.92 13.324z" fill="url(#l)" overflow="visible"/>
 <path d="M16.942 41.268c-3.999-6.883-5.406-10.361-3.558-18.8 3.112 11.694 1.82 9.015 4.445 13.989l-.887 4.81z" fill="url(#m)" overflow="visible"/>
 <path d="M17.157 32.532c.829.316 1.11-3.651.89-11.545 3.176 6.538 1.562 13.376.079 20.207l-.97-8.662z" fill="url(#n)" overflow="visible"/>
 <path d="M15.807 19c.339 8.421.313 17.703 1.283 24.636 1.302 1.8 2.41.507 3.553-.223-3.524-5.592-2.932-15.707-3.93-24.72l-.906.307z" fill="url(#o)" overflow="visible"/>
 <path d="M12.492 8.258c1.371 3.798-3.994 12.14 4.296 11.619 3.553-.223-1.585-9.641-4.296-11.62z" fill="url(#p)" overflow="visible"/>
 <path d="M30.237 12.792l.644-6.76 3.56 7.87s-1.158 4.905-4.204-1.11z" fill="url(#q)" overflow="visible"/>
 <path d="m32.612 17.77c6.137-1.544 2.483-7.563 2.792-13.605-5.523 3.213-4.705 7.739-2.792 13.605z" fill="url(#r)" overflow="visible"/>
 <path d="M30.568 40.978c-1.307-3.733-1.638-8.728-.873-12.837.45 3.003.622 6.895 1.957 7.066l-1.084 5.77z" fill="url(#s)" overflow="visible"/>
 <path d="M32.594 31.266c.8.384 1.41-3.546 1.847-11.43 2.621 6.779.444 13.459-1.602 20.142l-.245-8.712z" fill="url(#t)" overflow="visible"/>
 <path d="M31.09 17.643c2.315 9.548-.53 17.933-.77 24.658 1.147 1.902 2.359.705 3.558.073-2.357-5.898 1.348-16.037-1.859-24.962l-.929.231z" fill="url(#u)" overflow="visible"/>
 <path d="M27.36 6.55c1.684 3.671-2.965 12.432 5.252 11.22 3.522-.52-2.385-9.475-5.252-11.22z" fill="url(#v)" overflow="visible"/>
 <path transform="matrix(1.1866 0 0 1.1866 -2.33 -8.518)" d="M12.832 33.274c.089-1.97-.036-3.726.463-6.106l.842 3.958c-.91.242-1.037 1.266-1.305 2.148z" fill="#fff" fill-opacity=".473" filter="url(#w)" overflow="visible"/>
 <path transform="matrix(1.1866 0 0 1.1866 -2.33 -8.518)" d="M26.895 36.937c-.17.182-.153-4.352.084-4.884l.547 3.452c-.51-.046-.557.716-.631 1.432z" fill="#fff" fill-opacity=".589" filter="url(#x)" overflow="visible"/>
 <path transform="matrix(1.1866 0 0 1.1866 -2.33 -8.518)" d="M15.484 25.147l.548 14.064c.207 2.347.125-11.675-.548-14.064z" fill="#fff" fill-opacity=".67" filter="url(#y)" overflow="visible"/>
 <path transform="matrix(1.1866 0 0 1.1866 -2.33 -8.518)" d="M21.884 21.274c.137 5.206-.169 10.06-.59 14.82.326.57 1.234-13.515.59-14.82z" fill="#fff" fill-opacity=".67" filter="url(#z)" overflow="visible"/>
 <path transform="matrix(1.1866 0 0 1.1866 -2.33 -8.518)" d="M28.832 24.937c.73 2.487-.245 12.839-.548 13.01.463.124 1.98-11.425.548-13.01z" fill="#fff" fill-opacity=".67" filter="url(#A)" overflow="visible"/>
 <path transform="matrix(1.1866 0 0 1.1866 -2.33 -8.518)" d="M12.495 19.126c.18 2.759.989 3.942 2.063 4.463 0 0-2.947.211-2.063-4.463z" fill="#fff" fill-opacity=".652" filter="url(#B)" overflow="visible"/>
 <path transform="matrix(1.1866 0 0 1.1866 -2.33 -8.518)" d="M25.59 16.81c.18 2.08.189 4.268 2.105 5.264 0 0-3.158-.127-2.106-5.263z" fill="#fff" fill-opacity=".652" filter="url(#C)" overflow="visible"/>
 <path transform="matrix(1.1866 0 0 1.1866 -2.33 -8.518)" d="M19.274 13.863c.126-.252.226-3.141.379-3.031.583.417 1.474 2.253 1.347 2.19-.485-.667-1.018-1.319-1.726.841z" fill="#fff" fill-opacity=".629" filter="url(#D)" overflow="visible"/>
 <path d="M21.603 28.864c-.41-2.855-.88-5.71-.326-8.566-.032 2.899.573 5.332 1.025 7.868-.428-.692-.763-.946-.699.698z" fill="#fff" fill-opacity=".517" filter="url(#E)" overflow="visible"/>
</svg>
