<?xml version="1.0" encoding="UTF-8"?>
<svg width="48" height="48" xmlns="http://www.w3.org/2000/svg" xmlns:xlink="http://www.w3.org/1999/xlink">
 <defs>
  <linearGradient id="b">
   <stop stop-color="#faa" offset="0"/>
   <stop stop-color="#ff6060" offset="1"/>
  </linearGradient>
  <linearGradient id="n" x1="-25.397" x2="-26.973" y1="1006.3" y2="1003.9" gradientUnits="userSpaceOnUse" xlink:href="#b"/>
  <linearGradient id="o" x1="-29.038" x2="-30.109" y1="1014.9" y2="1014" gradientUnits="userSpaceOnUse" xlink:href="#b"/>
  <linearGradient id="p" x1="-20.082" x2="-21.282" y1="1015.2" y2="1016.7" gradientTransform="translate(-.097 .193)" gradientUnits="userSpaceOnUse" xlink:href="#b"/>
  <linearGradient id="q" x1="-23.496" x2="-24.817" y1="1006.8" y2="1004.1" gradientUnits="userSpaceOnUse" xlink:href="#b"/>
  <linearGradient id="r" x1="-29.199" x2="-31.916" y1="1013" y2="1011.3" gradientUnits="userSpaceOnUse" xlink:href="#b"/>
  <linearGradient id="s" x1="-21.66" x2="-22.876" y1="1017.3" y2="1018.5" gradientUnits="userSpaceOnUse" xlink:href="#b"/>
  <linearGradient id="t" x1="-21.725" x2="-22.723" y1="1008.2" y2="1007.3" gradientUnits="userSpaceOnUse" xlink:href="#b"/>
  <linearGradient id="u" x1="-29.07" x2="-35.61" y1="1011" y2="1010.6" gradientUnits="userSpaceOnUse" xlink:href="#b"/>
  <linearGradient id="v" x1="-24.688" x2="-27.266" y1="1018.2" y2="1018.5" gradientUnits="userSpaceOnUse" xlink:href="#b"/>
  <linearGradient id="w" x1="-17.665" x2="-20.951" y1="1009.4" y2="1011.7" gradientUnits="userSpaceOnUse" xlink:href="#b"/>
  <linearGradient id="x" x1="-27.974" x2="-33.806" y1="1010.1" y2="1006.5" gradientUnits="userSpaceOnUse" xlink:href="#b"/>
  <linearGradient id="y" x1="-27.04" x2="-28.651" y1="1016.8" y2="1015.9" gradientUnits="userSpaceOnUse" xlink:href="#b"/>
  <linearGradient id="z" x1="-18.825" x2="-19.147" y1="1012.7" y2="1014.5" gradientTransform="translate(0 -.29)" gradientUnits="userSpaceOnUse" xlink:href="#b"/>
  <linearGradient id="A" x1="-26.815" x2="-31.116" y1="1008.7" y2="1002.6" gradientUnits="userSpaceOnUse" xlink:href="#b"/>
  <linearGradient id="d">
   <stop stop-color="#003e8c" offset="0"/>
   <stop stop-color="#0062db" offset="1"/>
  </linearGradient>
  <linearGradient id="ax" x1="-32.615" x2="-27.364" y1="1006.5" y2="1010.9" gradientUnits="userSpaceOnUse" xlink:href="#d"/>
  <linearGradient id="aA" x1="-29.748" x2="-26.001" y1="1004.6" y2="1007.9" gradientUnits="userSpaceOnUse" xlink:href="#d"/>
  <linearGradient id="an" x1="-26.301" x2="-25.03" y1="1003.8" y2="1008.9" gradientUnits="userSpaceOnUse" xlink:href="#d"/>
  <linearGradient id="aq" x1="-23.24" x2="-21.501" y1="1004.4" y2="1005.7" gradientUnits="userSpaceOnUse" xlink:href="#d"/>
  <linearGradient id="au" x1="-33.066" x2="-27.584" y1="1010.4" y2="1011.7" gradientUnits="userSpaceOnUse" xlink:href="#d"/>
  <linearGradient id="ar" x1="-31.197" x2="-29.619" y1="1012.6" y2="1014" gradientTransform="translate(.258 .032)" gradientUnits="userSpaceOnUse" xlink:href="#d"/>
  <linearGradient id="ao" x1="-30.102" x2="-29.168" y1="1014.5" y2="1015.1" gradientUnits="userSpaceOnUse" xlink:href="#d"/>
  <linearGradient id="ay" x1="-27.944" x2="-26.494" y1="1015.5" y2="1016.8" gradientUnits="userSpaceOnUse" xlink:href="#d"/>
  <linearGradient id="av" x1="-25.914" x2="-24.252" y1="1015.8" y2="1015.6" gradientUnits="userSpaceOnUse" xlink:href="#d"/>
  <linearGradient id="as" x1="-22.918" x2="-21.79" y1="1017.6" y2="1016.7" gradientUnits="userSpaceOnUse" xlink:href="#d"/>
  <linearGradient id="ap" x1="-20.824" x2="-20.212" y1="1015.9" y2="1014.8" gradientUnits="userSpaceOnUse" xlink:href="#d"/>
  <linearGradient id="az" x1="-19.117" x2="-19.181" y1="1013.8" y2="1011.7" gradientTransform="translate(.064 -.419)" gradientUnits="userSpaceOnUse" xlink:href="#d"/>
  <linearGradient id="aw" x1="-18.827" x2="-18.859" y1="1010.5" y2="1009.1" gradientUnits="userSpaceOnUse" xlink:href="#d"/>
  <linearGradient id="at" x1="-21.414" x2="-19.052" y1="1004.5" y2="1009.5" gradientUnits="userSpaceOnUse" xlink:href="#d"/>
  <linearGradient id="k" x1="30.142" x2="19.255" y1="1023.9" y2="1030.4" gradientTransform="scale(-2.7 2.7) rotate(-7.116 -5193.6 858.36)" gradientUnits="userSpaceOnUse">
   <stop stop-color="#bd0000" offset="0"/>
   <stop stop-color="#ff0909" offset="1"/>
  </linearGradient>
  <linearGradient id="f">
   <stop stop-color="#d700d7" offset="0"/>
   <stop stop-color="#6e006e" offset="1"/>
  </linearGradient>
  <linearGradient id="i">
   <stop stop-color="#ff5959" offset="0"/>
   <stop stop-color="#d90000" offset="1"/>
  </linearGradient>
  <linearGradient id="U" x1="-28.308" x2="-34.59" y1="1011.7" y2="1010.6" gradientUnits="userSpaceOnUse" xlink:href="#f"/>
  <linearGradient id="X" x1="-28.566" x2="-33.591" y1="1009.2" y2="1006.1" gradientUnits="userSpaceOnUse" xlink:href="#f"/>
  <linearGradient id="aa" x1="-27.277" x2="-31.116" y1="1007.9" y2="1004.9" gradientUnits="userSpaceOnUse" xlink:href="#f"/>
  <linearGradient id="N" x1="-25.602" x2="-26.973" y1="1006.8" y2="1004.6" gradientUnits="userSpaceOnUse" xlink:href="#f"/>
  <linearGradient id="Q" x1="-23.186" x2="-24.635" y1="1006.1" y2="1004" gradientUnits="userSpaceOnUse" xlink:href="#f"/>
  <linearGradient id="T" x1="-20.415" x2="-21.414" y1="1007.4" y2="1005.7" gradientUnits="userSpaceOnUse" xlink:href="#f"/>
  <linearGradient id="W" x1="-18.096" x2="-21.672" y1="1010" y2="1008.3" gradientTransform="translate(0 -.258)" gradientUnits="userSpaceOnUse" xlink:href="#f"/>
  <linearGradient id="R" x1="-29.951" x2="-34.59" y1="1012.9" y2="1013.2" gradientUnits="userSpaceOnUse" xlink:href="#f"/>
  <linearGradient id="O" x1="-28.469" x2="-30.109" y1="1014.6" y2="1013.2" gradientUnits="userSpaceOnUse" xlink:href="#f"/>
  <linearGradient id="Y" x1="-26.987" x2="-29.21" y1="1016.3" y2="1016.1" gradientUnits="userSpaceOnUse" xlink:href="#f"/>
  <linearGradient id="V" x1="-24.635" x2="-26.436" y1="1017.7" y2="1018.5" gradientUnits="userSpaceOnUse" xlink:href="#f"/>
  <linearGradient id="S" x1="-21.253" x2="-27.503" y1="1018.3" y2="1016.7" gradientUnits="userSpaceOnUse" xlink:href="#f"/>
  <linearGradient id="P" x1="-18.611" x2="-25.095" y1="1016.6" y2="1017.2" gradientUnits="userSpaceOnUse" xlink:href="#f"/>
  <linearGradient id="Z" x1="-16.195" x2="-25.892" y1="1013.8" y2="1015.7" gradientTransform="translate(-.032 -.419)" gradientUnits="userSpaceOnUse" xlink:href="#f"/>
  <linearGradient id="aU" x1="-29.386" x2="-36.945" y1="1011.1" y2="1005.1" gradientUnits="userSpaceOnUse" xlink:href="#i"/>
  <linearGradient id="aR" x1="-29.386" x2="-37.569" y1="1013" y2="1008.2" gradientTransform="translate(.097 -.032)" gradientUnits="userSpaceOnUse" xlink:href="#i"/>
  <linearGradient id="aO" x1="-28.838" x2="-35.442" y1="1015" y2="1011.9" gradientUnits="userSpaceOnUse" xlink:href="#i"/>
  <linearGradient id="aY" x1="-27.421" x2="-35.7" y1="1017.3" y2="1013.3" gradientUnits="userSpaceOnUse" xlink:href="#i"/>
  <linearGradient id="aV" x1="-24.521" x2="-30.256" y1="1018.9" y2="1018.7" gradientUnits="userSpaceOnUse" xlink:href="#i"/>
  <linearGradient id="aS" x1="-21.01" x2="-28.677" y1="1018.6" y2="1017.7" gradientUnits="userSpaceOnUse" xlink:href="#i"/>
  <linearGradient id="aP" x1="-18.819" x2="-27.904" y1="1016.5" y2="1016.3" gradientTransform="translate(-.258 .354)" gradientUnits="userSpaceOnUse" xlink:href="#i"/>
  <linearGradient id="aZ" x1="-17.659" x2="-26.841" y1="1013.2" y2="1017.8" gradientTransform="translate(.064 -.419)" gradientUnits="userSpaceOnUse" xlink:href="#i"/>
  <linearGradient id="aW" x1="-17.53" x2="-19.84" y1="1010.1" y2="1005.3" gradientUnits="userSpaceOnUse" xlink:href="#i"/>
  <linearGradient id="aT" x1="-20.043" x2="-23.168" y1="1006.9" y2="1002.4" gradientUnits="userSpaceOnUse" xlink:href="#i"/>
  <linearGradient id="aQ" x1="-23.007" x2="-27.066" y1="1006.1" y2="1002.1" gradientUnits="userSpaceOnUse" xlink:href="#i"/>
  <linearGradient id="aN" x1="-25.906" x2="-33.542" y1="1007.1" y2="1000.9" gradientUnits="userSpaceOnUse" xlink:href="#i"/>
  <linearGradient id="ba" x1="-27.292" x2="-34.959" y1="1008.1" y2="1001.7" gradientUnits="userSpaceOnUse" xlink:href="#i"/>
  <linearGradient id="aX" x1="-28.838" x2="-37.665" y1="1009.2" y2="1006.5" gradientUnits="userSpaceOnUse" xlink:href="#i"/>
  <filter id="F">
   <feGaussianBlur stdDeviation=".081"/>
  </filter>
  <filter id="D" x="-.059" y="-.115" width="1.118" height="1.229">
   <feGaussianBlur stdDeviation=".081"/>
  </filter>
  <filter id="E">
   <feGaussianBlur stdDeviation=".081"/>
  </filter>
  <filter id="H" x="-.201" y="-.067" width="1.402" height="1.133">
   <feGaussianBlur stdDeviation=".081"/>
  </filter>
  <filter id="I" x="-.155" y="-.043" width="1.31" height="1.087">
   <feGaussianBlur stdDeviation=".081"/>
  </filter>
  <filter id="L">
   <feGaussianBlur stdDeviation=".081"/>
  </filter>
  <filter id="M">
   <feGaussianBlur stdDeviation=".081"/>
  </filter>
  <filter id="j" x="-.072" y="-.461" width="1.144" height="1.922">
   <feGaussianBlur stdDeviation=".913"/>
  </filter>
  <filter id="bm" x="-.127" y="-.088" width="1.253" height="1.177">
   <feGaussianBlur stdDeviation=".079"/>
  </filter>
  <filter id="aM" x="-.156" y="-.125" width="1.312" height="1.25">
   <feGaussianBlur stdDeviation=".059"/>
  </filter>
  <filter id="aJ" x="-.388" y="-.071" width="1.777" height="1.141">
   <feGaussianBlur stdDeviation=".16"/>
  </filter>
  <filter id="aI" x="-.229" y="-.083" width="1.458" height="1.167">
   <feGaussianBlur stdDeviation=".16"/>
  </filter>
  <filter id="aj" x="-.386" y="-.07" width="1.772" height="1.14">
   <feGaussianBlur stdDeviation=".164"/>
  </filter>
  <filter id="ai" x="-.228" y="-.083" width="1.456" height="1.166">
   <feGaussianBlur stdDeviation=".164"/>
  </filter>
  <filter id="af" x="-.146" y="-.122" width="1.293" height="1.244">
   <feGaussianBlur stdDeviation=".164"/>
  </filter>
  <filter id="ae" x="-.133" y="-.189" width="1.266" height="1.377">
   <feGaussianBlur stdDeviation=".164"/>
  </filter>
  <filter id="ac" x="-.118" y="-.228" width="1.235" height="1.456">
   <feGaussianBlur stdDeviation=".164"/>
  </filter>
  <filter id="ad" x="-.17" y="-.156" width="1.34" height="1.313">
   <feGaussianBlur stdDeviation=".164"/>
  </filter>
  <filter id="ag" x="-.4" y="-.133" width="1.799" height="1.265">
   <feGaussianBlur stdDeviation=".164"/>
  </filter>
  <filter id="ah" x="-.308" y="-.086" width="1.617" height="1.172">
   <feGaussianBlur stdDeviation=".164"/>
  </filter>
  <filter id="ak" x="-.163" y="-.087" width="1.327" height="1.174">
   <feGaussianBlur stdDeviation=".164"/>
  </filter>
  <filter id="al">
   <feGaussianBlur stdDeviation=".164"/>
  </filter>
  <filter id="bf">
   <feGaussianBlur stdDeviation=".073"/>
  </filter>
  <filter id="am" x="-.108" y="-.083" width="1.216" height="1.167">
   <feGaussianBlur stdDeviation=".059"/>
  </filter>
  <filter id="be">
   <feGaussianBlur stdDeviation=".073"/>
  </filter>
  <filter id="aF" x="-.147" y="-.122" width="1.295" height="1.245">
   <feGaussianBlur stdDeviation=".16"/>
  </filter>
  <filter id="aE" x="-.134" y="-.19" width="1.268" height="1.379">
   <feGaussianBlur stdDeviation=".16"/>
  </filter>
  <filter id="aC" x="-.118" y="-.229" width="1.237" height="1.459">
   <feGaussianBlur stdDeviation=".16"/>
  </filter>
  <filter id="aD" x="-.171" y="-.157" width="1.342" height="1.315">
   <feGaussianBlur stdDeviation=".16"/>
  </filter>
  <filter id="aL">
   <feGaussianBlur stdDeviation=".16"/>
  </filter>
  <filter id="aK" x="-.164" y="-.087" width="1.329" height="1.175">
   <feGaussianBlur stdDeviation=".16"/>
  </filter>
  <filter id="l" x="-.171" y="-.065" width="1.341" height="1.13">
   <feGaussianBlur stdDeviation=".51"/>
  </filter>
  <filter id="aG" x="-.402" y="-.133" width="1.804" height="1.267">
   <feGaussianBlur stdDeviation=".16"/>
  </filter>
  <filter id="m" x="-.081" y="-.194" width="1.162" height="1.388">
   <feGaussianBlur stdDeviation=".423"/>
  </filter>
  <filter id="bl">
   <feGaussianBlur stdDeviation=".072"/>
  </filter>
  <filter id="C" x="-.145" y="-.087" width="1.29" height="1.175">
   <feGaussianBlur stdDeviation=".13"/>
  </filter>
  <filter id="K" x="-.194" y="-.035" width="1.388" height="1.071">
   <feGaussianBlur stdDeviation=".081"/>
  </filter>
  <filter id="J" x="-.115" y="-.042" width="1.229" height="1.083">
   <feGaussianBlur stdDeviation=".081"/>
  </filter>
  <filter id="G">
   <feGaussianBlur stdDeviation=".081"/>
  </filter>
  <filter id="bk">
   <feGaussianBlur stdDeviation=".073"/>
  </filter>
  <filter id="bh" x="-.14" y="-.039" width="1.28" height="1.078">
   <feGaussianBlur stdDeviation=".073"/>
  </filter>
  <filter id="bg" x="-.182" y="-.06" width="1.363" height="1.121">
   <feGaussianBlur stdDeviation=".073"/>
  </filter>
  <filter id="bd">
   <feGaussianBlur stdDeviation=".073"/>
  </filter>
  <filter id="bc" x="-.053" y="-.104" width="1.107" height="1.207">
   <feGaussianBlur stdDeviation=".073"/>
  </filter>
  <filter id="bj" x="-.176" y="-.032" width="1.351" height="1.064">
   <feGaussianBlur stdDeviation=".073"/>
  </filter>
  <filter id="bi" x="-.104" y="-.038" width="1.207" height="1.075">
   <feGaussianBlur stdDeviation=".073"/>
  </filter>
  <filter id="aH" x="-.31" y="-.087" width="1.62" height="1.173">
   <feGaussianBlur stdDeviation=".16"/>
  </filter>
  <radialGradient id="bb" cx="11.233" cy="6" r="3" gradientTransform="matrix(1.3866 0 0 2.2886 -4.64 -7.732)" gradientUnits="userSpaceOnUse">
   <stop stop-color="#ffea00" offset="0"/>
   <stop stop-color="#ffffa4" offset="1"/>
  </radialGradient>
  <radialGradient id="ab" cx="11.06" cy="5.291" r="3" gradientTransform="matrix(2.0935 .60104 -.36488 1.2709 -10.164 -8.081)" gradientUnits="userSpaceOnUse">
   <stop stop-color="#ffd73b" offset="0"/>
   <stop stop-color="#ee8400" offset="1"/>
  </radialGradient>
  <radialGradient id="aB" cx="10.979" cy="5.114" r="3" gradientTransform="matrix(1.3404 1.2953 -.6949 .7191 -.184 -12.785)" gradientUnits="userSpaceOnUse">
   <stop stop-color="#d1f6f6" offset="0"/>
   <stop stop-color="#2adbdb" offset="1"/>
  </radialGradient>
  <radialGradient id="B" cx="10.981" cy="5.057" r="3" gradientTransform="matrix(1.1591 1.476 -1.3397 1.0521 5.028 -16.471)" gradientUnits="userSpaceOnUse">
   <stop stop-color="#ffd73b" offset="0"/>
   <stop stop-color="#ee8400" offset="1"/>
  </radialGradient>
 </defs>
 <path transform="matrix(.81213 0 0 1 6.59 0)" d="M40.511 39.69c-.182.268-7.223-2.676-15.243 2.434-1.068.68-15.243-1.062-15.243-2.696 0-1.635 5.35-1.907 14.351-1.907 9 0 16.135.535 16.135 2.17z" fill-opacity=".769" fill-rule="evenodd" filter="url(#j)"/>
 <g>
  <path transform="translate(31.1 -999.77)" d="M-9.689 1017.773s10-11 17-3c7.508 8.58-12.45 16.116-13 26-3.36-.884-17.329-8.674-16.011-21.33.803-7.712 12.011-13.67 12.011-1.67z" fill="url(#k)" overflow="visible"/>
  <path d="M10.895 16.62c-.67 4.96 1.856 12.196 6.052 18.81-1.714-1.356-10.182-10.965-6.052-18.81z" fill="#fff" fill-opacity=".763" filter="url(#l)" overflow="visible"/>
  <path d="M22.255 17.83c3.418-2.124 6.739-4.297 12.57-5.214-1.42-.106-8.148.07-12.57 5.214z" fill="#fff" fill-opacity=".754" filter="url(#m)" overflow="visible"/>
 </g>
 <path transform="translate(62.574 -990)" d="M-26.502 1001.291c.236-.471.765-.471 1 0 1.061 2.121 0 9 0 9h-1s-1.06-6.879 0-9z" fill="url(#n)"/>
 <path transform="translate(62.574 -990)" d="M-33.255 1018.359c-.515.113-.848-.297-.63-.777.98-2.16 6.99-5.67 6.99-5.67l.63.778s-4.675 5.156-6.99 5.669z" fill="url(#o)"/>
 <path transform="translate(62.574 -990)" d="M-17.629 1017.456c.212.482-.126.889-.639.769-2.31-.54-6.924-5.75-6.924-5.75l.64-.77s5.969 3.58 6.923 5.75z" fill="url(#p)"/>
 <path transform="translate(62.574 -990)" d="M-22.453 1001.388c.385-.36.88-.177.938.347.26 2.357-3.12 8.442-3.12 8.442l-.938-.347s1.39-6.82 3.12-8.442z" fill="url(#q)"/>
 <path transform="translate(62.574 -990)" d="M-35.917 1015.153c-.522-.07-.692-.572-.321-.947 1.667-1.686 8.522-2.894 8.522-2.894l.321.947s-6.172 3.216-8.522 2.894z" fill="url(#r)"/>
 <path transform="translate(62.574 -990)" d="M-20.193 1020.315c.032.526-.426.79-.866.5-1.98-1.306-4.501-7.793-4.501-7.793l.866-.5s4.358 5.425 4.5 7.793z" fill="url(#s)"/>
 <path transform="translate(62.574 -990)" d="M-18.64 1003.792c.499-.171.876.198.714.7-.728 2.258-6.301 6.426-6.301 6.426l-.714-.7s4.059-5.654 6.301-6.426z" fill="url(#t)"/>
 <path transform="translate(62.574 -990)" d="M-36.638 1010.77c-.447-.279-.397-.805.094-.996 2.212-.856 8.96.848 8.96.848l-.094.995s-6.948.409-8.96-.847z" fill="url(#u)"/>
 <path transform="translate(62.574 -990)" d="M-24.479 1021.713c-.186.493-.712.547-.995.102-1.271-2.002-.917-8.953-.917-8.953l.995-.102s1.756 6.734.917 8.953z" fill="url(#v)"/>
 <path transform="translate(62.574 -990)" d="M-15.758 1008.33c.518.098.662.606.273.962-1.753 1.598-8.66 2.45-8.66 2.45l-.272-.962s6.33-2.893 8.66-2.45z" fill="url(#w)"/>
 <path transform="translate(62.574 -990)" d="M-34.756 1006.064c-.274-.45.008-.898.533-.846 2.36.234 7.614 4.798 7.614 4.798l-.533.846s-6.385-2.77-7.614-4.798z" fill="url(#x)"/>
 <path transform="translate(62.574 -990)" d="M-29.252 1021.031c-.406.336-.89.122-.914-.405-.11-2.37 3.647-8.228 3.647-8.228l.914.405s-1.818 6.719-3.647 8.228z" fill="url(#y)"/>
 <path transform="translate(62.574 -990)" d="M-15.53 1013.134c.418.321.317.84-.191.982-2.285.636-8.835-1.717-8.835-1.717l.191-.982s6.955.271 8.835 1.717z" fill="url(#z)"/>
 <path transform="translate(62.574 -990)" d="M-31.115 1002.288c-.014-.527.452-.775.882-.47 1.934 1.373 4.232 7.943 4.232 7.943l-.883.47s-4.17-5.572-4.231-7.943z" fill="url(#A)"/>
 <path transform="matrix(.66667 0 0 .66667 28.793 16.923)" d="M15 6a3 3 0 11-6 0 3 3 0 016 0z" fill="url(#B)" fill-rule="evenodd"/>
 <path transform="translate(62.574 -990)" d="m-25.397 1009c-1.53 0.387-2.495 1.732-1.289 3.576-1.118-0.966-1.592-3.479 1.289-3.576z" fill="#fff" fill-opacity=".853" filter="url(#C)" overflow="visible"/>
 <path d="M29.123 19.747c-1.753.33-5.025.465-.419 1.61.06.481-6.71-1.5.42-1.61z" fill="#fff" fill-opacity=".5" filter="url(#D)" overflow="visible"/>
 <path d="M30.186 16.01c-1.266-.27-3.108-.969-.16 1.9 0 0-4.833-3.866.16-1.9z" fill="#fff" fill-opacity=".5" filter="url(#E)" overflow="visible"/>
 <path d="M27.222 25.062c-.958-.4 1.534-1.522 2.03-2.03-.078-.155-4.769 1.706-2.03 2.03z" fill="#fff" fill-opacity=".5" filter="url(#F)" overflow="visible"/>
 <path d="M29.155 28.38c-.418-.934 2.255-3.157 2.255-3.157s-3.801 2.256-2.255 3.158z" fill="#fff" fill-opacity=".5" filter="url(#G)" overflow="visible"/>
 <path d="M32.602 12.337c-.825-.535-.784.375-.064 2.416 0 0-2.062-4.317.064-2.416z" fill="#fff" fill-opacity=".5" filter="url(#H)" overflow="visible"/>
 <path d="M36.92 11.467c-1.278-.103-.863 2.755-1.225 4.253 0 0-.29-5.606 1.224-4.253z" fill="#fff" fill-opacity=".5" filter="url(#I)" overflow="visible"/>
 <path d="M32.796 30.926c.064-1.593.656-3.133 1.578-4.64 0 0-2.19 2.352-1.578 4.64z" fill="#fff" fill-opacity=".5" filter="url(#J)" overflow="visible"/>
 <path d="M36.372 26.319c.064 1.779.516 4.17.87 5.476 0 0-1.418-3.447-.87-5.476z" fill="#fff" fill-opacity=".5" filter="url(#K)" overflow="visible"/>
 <path d="M38.208 15.784c.706-1.458 1.008-2.919 2.352-4.381-.288-.432-2.272 2.713-2.352 4.381z" fill="#fff" fill-opacity=".5" filter="url(#L)" overflow="visible"/>
 <path d="M39.658 17.943c1.527-1.328 2.015-3.027 4.639-3.963-.535-.401-3.534 2.062-4.64 3.963z" fill="#fff" fill-opacity=".5" filter="url(#M)" overflow="visible"/>
 <path transform="translate(40.238 -485.92) scale(.5164)" d="M-26.502 1001.291c.236-.471.765-.471 1 0 1.061 2.121 0 9 0 9h-1s-1.06-6.879 0-9z" fill="url(#N)"/>
 <path transform="translate(40.238 -485.92) scale(.5164)" d="M-33.255 1018.359c-.515.113-.848-.297-.63-.777.98-2.16 6.99-5.67 6.99-5.67l.63.778s-4.675 5.156-6.99 5.669z" fill="url(#O)"/>
 <path transform="translate(40.238 -485.92) scale(.5164)" d="M-17.532 1017.262c.212.483-.126.89-.64.77-2.309-.54-6.923-5.75-6.923-5.75l.639-.77s5.97 3.579 6.924 5.75z" fill="url(#P)"/>
 <path transform="translate(40.238 -485.92) scale(.5164)" d="M-22.453 1001.388c.385-.36.88-.177.938.347.26 2.357-3.12 8.442-3.12 8.442l-.938-.347s1.39-6.82 3.12-8.442z" fill="url(#Q)"/>
 <path transform="translate(40.238 -485.92) scale(.5164)" d="M-35.917 1015.153c-.522-.07-.692-.572-.321-.947 1.667-1.686 8.522-2.894 8.522-2.894l.321.947s-6.172 3.216-8.522 2.894z" fill="url(#R)"/>
 <path transform="translate(40.238 -485.92) scale(.5164)" d="M-20.193 1020.315c.032.526-.426.79-.866.5-1.98-1.306-4.501-7.793-4.501-7.793l.866-.5s4.358 5.425 4.5 7.793z" fill="url(#S)"/>
 <path transform="translate(40.238 -485.92) scale(.5164)" d="M-18.64 1003.792c.499-.171.876.198.714.7-.728 2.258-6.301 6.426-6.301 6.426l-.714-.7s4.059-5.654 6.301-6.426z" fill="url(#T)"/>
 <path transform="translate(40.238 -485.92) scale(.5164)" d="M-36.638 1010.77c-.447-.279-.397-.805.094-.996 2.212-.856 8.96.848 8.96.848l-.094.995s-6.948.409-8.96-.847z" fill="url(#U)"/>
 <path transform="translate(40.238 -485.92) scale(.5164)" d="M-24.479 1021.713c-.186.493-.712.547-.995.102-1.271-2.002-.917-8.953-.917-8.953l.995-.102s1.756 6.734.917 8.953z" fill="url(#V)"/>
 <path transform="translate(40.238 -485.92) scale(.5164)" d="M-15.758 1008.072c.518.098.662.607.273.962-1.753 1.598-8.66 2.45-8.66 2.45l-.272-.961s6.33-2.894 8.66-2.451z" fill="url(#W)"/>
 <path transform="translate(40.238 -485.92) scale(.5164)" d="M-34.756 1006.064c-.274-.45.008-.898.533-.846 2.36.234 7.614 4.798 7.614 4.798l-.533.846s-6.385-2.77-7.614-4.798z" fill="url(#X)"/>
 <path transform="translate(40.238 -485.92) scale(.5164)" d="M-29.252 1021.031c-.406.336-.89.122-.914-.405-.11-2.37 3.647-8.228 3.647-8.228l.914.405s-1.818 6.719-3.647 8.228z" fill="url(#Y)"/>
 <path transform="translate(40.238 -485.92) scale(.5164)" d="M-15.563 1013.005c.418.321.318.84-.19.982-2.285.636-8.835-1.717-8.835-1.717l.19-.982s6.955.271 8.835 1.717z" fill="url(#Z)"/>
 <path transform="translate(40.238 -485.92) scale(.5164)" d="M-31.115 1002.288c-.014-.527.452-.775.882-.47 1.934 1.373 4.232 7.943 4.232 7.943l-.883.47s-4.17-5.572-4.231-7.943z" fill="url(#aa)"/>
 <path transform="matrix(.34427 0 0 .34427 22.794 34.05)" d="M15 6a3 3 0 11-6 0 3 3 0 016 0z" fill="url(#ab)" fill-rule="evenodd"/>
 <path transform="translate(40.238 -485.92) scale(.5164)" d="M-33.447 1009.581c-1.792.338-5.138.476-.428 1.647.062.491-6.862-1.534.428-1.647z" fill="#fff" fill-opacity=".835" filter="url(#ac)" overflow="visible"/>
 <path transform="translate(40.238 -485.92) scale(.5164)" d="M-32.456 1005.985c-1.294-.275-3.178-.99-.165 1.944 0 0-4.94-3.953.165-1.944z" fill="#fff" fill-opacity=".835" filter="url(#ad)" overflow="visible"/>
 <path transform="translate(40.238 -485.92) scale(.5164)" d="m-35.422 1015c-0.98-0.408 1.568-1.557 2.075-2.075-0.08-0.16-4.876 1.744-2.075 2.075z" fill="#fff" fill-opacity=".835" filter="url(#ae)" overflow="visible"/>
 <path transform="translate(40.238 -485.92) scale(.5164)" d="m-33.446 1018.4c-0.428-0.955 2.306-3.228 2.306-3.228s-3.887 2.306-2.306 3.228z" fill="#fff" fill-opacity=".835" filter="url(#af)" overflow="visible"/>
 <path transform="translate(40.238 -485.92) scale(.5164)" d="M-29.953 1002.36c-.845-.548-.802.383-.066 2.47 0 0-2.108-4.414.066-2.47z" fill="#fff" fill-opacity=".835" filter="url(#ag)" overflow="visible"/>
 <path transform="translate(40.238 -485.92) scale(.5164)" d="M-25.572 1001.34c-1.306-.105-.88 2.818-1.251 4.349 0 0-.297-5.732 1.251-4.348z" fill="#fff" fill-opacity=".835" filter="url(#ah)" overflow="visible"/>
 <path transform="translate(40.238 -485.92) scale(.5164)" d="M-29.82 1021.108c.066-1.628.67-3.203 1.614-4.743 0 0-2.24 2.404-1.614 4.743z" fill="#fff" fill-opacity=".835" filter="url(#ai)" overflow="visible"/>
 <path transform="translate(40.238 -485.92) scale(.5164)" d="M-26.132 1016.526c.066 1.82.529 4.264.89 5.6 0 0-1.45-3.524-.89-5.6z" fill="#fff" fill-opacity=".835" filter="url(#aj)" overflow="visible"/>
 <path transform="translate(40.238 -485.92) scale(.5164)" d="M-24.254 1005.755c.722-1.49 1.03-2.985 2.405-4.48-.295-.442-2.323 2.774-2.405 4.48z" fill="#fff" fill-opacity=".835" filter="url(#ak)" overflow="visible"/>
 <path transform="translate(40.238 -485.92) scale(.5164)" d="M-22.9 1007.93c1.562-1.358 2.06-3.095 4.743-4.052-.547-.41-3.613 2.108-4.744 4.052z" fill="#fff" fill-opacity=".835" filter="url(#al)" overflow="visible"/>
 <path d="M27.3 35.19c-1.411.16-1.151 1.13-.948 1.664-.143.286-1.13-1.768.948-1.664z" fill="#fff" filter="url(#am)" overflow="visible"/>
 <path transform="matrix(.36179 0 0 .36179 24.749 -331.06)" d="M-26.502 1001.291c.236-.471.765-.471 1 0 1.061 2.121 0 9 0 9h-1s-1.06-6.879 0-9z" fill="url(#an)"/>
 <path transform="matrix(.36179 0 0 .36179 24.749 -331.06)" d="M-33.255 1018.359c-.515.113-.848-.297-.63-.777.98-2.16 6.99-5.67 6.99-5.67l.63.778s-4.675 5.156-6.99 5.669z" fill="url(#ao)"/>
 <path transform="matrix(.36179 0 0 .36179 24.749 -331.06)" d="M-17.532 1017.262c.212.483-.126.89-.64.77-2.309-.54-6.923-5.75-6.923-5.75l.639-.77s5.97 3.579 6.924 5.75z" fill="url(#ap)"/>
 <path transform="matrix(.36179 0 0 .36179 24.749 -331.06)" d="M-22.453 1001.388c.385-.36.88-.177.938.347.26 2.357-3.12 8.442-3.12 8.442l-.938-.347s1.39-6.82 3.12-8.442z" fill="url(#aq)"/>
 <path transform="matrix(.36179 0 0 .36179 24.749 -331.06)" d="M-35.659 1015.185c-.522-.07-.692-.572-.321-.947 1.667-1.686 8.521-2.894 8.521-2.894l.322.947s-6.172 3.216-8.522 2.894z" fill="url(#ar)"/>
 <path transform="matrix(.36179 0 0 .36179 24.749 -331.06)" d="M-20.193 1020.315c.032.526-.426.79-.866.5-1.98-1.306-4.501-7.793-4.501-7.793l.866-.5s4.358 5.425 4.5 7.793z" fill="url(#as)"/>
 <path transform="matrix(.36179 0 0 .36179 24.749 -331.06)" d="M-18.64 1003.792c.499-.171.876.198.714.7-.728 2.258-6.301 6.426-6.301 6.426l-.714-.7s4.059-5.654 6.301-6.426z" fill="url(#at)"/>
 <path transform="matrix(.36179 0 0 .36179 24.749 -331.06)" d="M-36.638 1010.77c-.447-.279-.397-.805.094-.996 2.212-.856 8.96.848 8.96.848l-.094.995s-6.948.409-8.96-.847z" fill="url(#au)"/>
 <path transform="matrix(.36179 0 0 .36179 24.749 -331.06)" d="M-24.479 1021.713c-.186.493-.712.547-.995.102-1.271-2.002-.917-8.953-.917-8.953l.995-.102s1.756 6.734.917 8.953z" fill="url(#av)"/>
 <path transform="matrix(.36179 0 0 .36179 24.749 -331.06)" d="M-15.758 1008.33c.518.098.662.606.273.962-1.753 1.598-8.66 2.45-8.66 2.45l-.272-.962s6.33-2.893 8.66-2.45z" fill="url(#aw)"/>
 <path transform="matrix(.36179 0 0 .36179 24.749 -331.06)" d="M-34.756 1006.064c-.274-.45.008-.898.533-.846 2.36.234 7.614 4.798 7.614 4.798l-.533.846s-6.385-2.77-7.614-4.798z" fill="url(#ax)"/>
 <path transform="matrix(.36179 0 0 .36179 24.749 -331.06)" d="M-29.252 1021.031c-.406.336-.89.122-.914-.405-.11-2.37 3.647-8.228 3.647-8.228l.914.405s-1.818 6.719-3.647 8.228z" fill="url(#ay)"/>
 <path transform="matrix(.36179 0 0 .36179 24.749 -331.06)" d="M-15.466 1013.005c.418.321.317.84-.19.982-2.285.636-8.835-1.717-8.835-1.717l.19-.982s6.955.271 8.835 1.717z" fill="url(#az)"/>
 <path transform="matrix(.36179 0 0 .36179 24.749 -331.06)" d="M-31.115 1002.288c-.014-.527.452-.775.882-.47 1.934 1.373 4.232 7.943 4.232 7.943l-.883.47s-4.17-5.572-4.231-7.943z" fill="url(#aA)"/>
 <path transform="matrix(.2412 0 0 .2412 12.527 33.235)" d="M15 6a3 3 0 11-6 0 3 3 0 016 0z" fill="url(#aB)" fill-rule="evenodd"/>
 <path transform="matrix(.36179 0 0 .36179 24.749 -331.06)" d="M-33.399 1009.77c-1.736.328-4.979.461-.414 1.596.059.476-6.65-1.486.414-1.596z" fill="#fff" fill-opacity=".683" filter="url(#aC)" overflow="visible"/>
 <path transform="matrix(.36179 0 0 .36179 24.749 -331.06)" d="M-32.345 1006.068c-1.254-.267-3.08-.96-.16 1.883 0 0-4.788-3.83.16-1.883z" fill="#fff" fill-opacity=".683" filter="url(#aD)" overflow="visible"/>
 <path transform="matrix(.36179 0 0 .36179 24.749 -331.06)" d="m-35.282 1015c-0.95-0.396 1.52-1.508 2.011-2.01-0.077-0.155-4.725 1.69-2.01 2.01z" fill="#fff" fill-opacity=".683" filter="url(#aE)" overflow="visible"/>
 <path transform="matrix(.36179 0 0 .36179 24.749 -331.06)" d="m-33.367 1018.3c-0.415-0.926 2.235-3.128 2.235-3.128s-3.767 2.235-2.235 3.128z" fill="#fff" fill-opacity=".683" filter="url(#aF)" overflow="visible"/>
 <path transform="matrix(.36179 0 0 .36179 24.749 -331.06)" d="M-29.951 1002.429c-.818-.53-.777.371-.064 2.394 0 0-2.043-4.278.064-2.394z" fill="#fff" fill-opacity=".683" filter="url(#aG)" overflow="visible"/>
 <path transform="matrix(.36179 0 0 .36179 24.749 -331.06)" d="M-25.674 1001.567c-1.265-.103-.854 2.73-1.213 4.213 0 0-.287-5.554 1.213-4.213z" fill="#fff" fill-opacity=".683" filter="url(#aH)" overflow="visible"/>
 <path transform="matrix(.36179 0 0 .36179 24.749 -331.06)" d="M-29.76 1020.847c.064-1.578.65-3.104 1.565-4.597 0 0-2.171 2.33-1.565 4.597z" fill="#fff" fill-opacity=".683" filter="url(#aI)" overflow="visible"/>
 <path transform="matrix(.36179 0 0 .36179 24.749 -331.06)" d="M-26.216 1016.282c.063 1.763.512 4.132.861 5.427 0 0-1.404-3.416-.861-5.427z" fill="#fff" fill-opacity=".683" filter="url(#aJ)" overflow="visible"/>
 <path transform="matrix(.36179 0 0 .36179 24.749 -331.06)" d="M-24.397 1005.844c.7-1.444.998-2.892 2.33-4.341-.285-.428-2.25 2.688-2.33 4.341z" fill="#fff" fill-opacity=".683" filter="url(#aK)" overflow="visible"/>
 <path transform="matrix(.36179 0 0 .36179 24.749 -331.06)" d="m-22.96 1008c1.513-1.315 1.996-2.999 4.596-3.926-0.53-0.398-3.5 2.042-4.596 3.926z" fill="#fff" fill-opacity=".683" filter="url(#aL)" overflow="visible"/>
 <path d="M15.688 34.037c-.536.148-.892.57-.78 1.107-.206-.169-.288-1.312.78-1.107z" fill="#fff" fill-opacity=".754" filter="url(#aM)" overflow="visible"/>
 <path transform="matrix(.62557 0 0 .62557 30.676 -619.39)" d="M-26.502 1001.291c.236-.471.765-.471 1 0 1.061 2.121 0 9 0 9h-1s-1.06-6.879 0-9z" fill="url(#aN)"/>
 <path transform="matrix(.62557 0 0 .62557 30.676 -619.39)" d="M-33.255 1018.359c-.515.113-.848-.297-.63-.777.98-2.16 6.99-5.67 6.99-5.67l.63.778s-4.675 5.156-6.99 5.669z" fill="url(#aO)"/>
 <path transform="matrix(.62557 0 0 .62557 30.676 -619.39)" d="M-17.79 1017.617c.212.482-.126.889-.639.769-2.31-.54-6.924-5.75-6.924-5.75l.639-.77s5.97 3.58 6.924 5.75z" fill="url(#aP)"/>
 <path transform="matrix(.62557 0 0 .62557 30.676 -619.39)" d="M-22.453 1001.388c.385-.36.88-.177.938.347.26 2.357-3.12 8.442-3.12 8.442l-.938-.347s1.39-6.82 3.12-8.442z" fill="url(#aQ)"/>
 <path transform="matrix(.62557 0 0 .62557 30.676 -619.39)" d="M-35.82 1015.12c-.522-.07-.692-.571-.321-.946 1.667-1.687 8.521-2.894 8.521-2.894l.322.947s-6.172 3.216-8.522 2.894z" fill="url(#aR)"/>
 <path transform="matrix(.62557 0 0 .62557 30.676 -619.39)" d="M-20.193 1020.315c.032.526-.426.79-.866.5-1.98-1.306-4.501-7.793-4.501-7.793l.866-.5s4.358 5.425 4.5 7.793z" fill="url(#aS)"/>
 <path transform="matrix(.62557 0 0 .62557 30.676 -619.39)" d="M-18.64 1003.792c.499-.171.876.198.714.7-.728 2.258-6.301 6.426-6.301 6.426l-.714-.7s4.059-5.654 6.301-6.426z" fill="url(#aT)"/>
 <path transform="matrix(.62557 0 0 .62557 30.676 -619.39)" d="M-36.638 1010.77c-.447-.279-.397-.805.094-.996 2.212-.856 8.96.848 8.96.848l-.094.995s-6.948.409-8.96-.847z" fill="url(#aU)"/>
 <path transform="matrix(.62557 0 0 .62557 30.676 -619.39)" d="M-24.479 1021.713c-.186.493-.712.547-.995.102-1.271-2.002-.917-8.953-.917-8.953l.995-.102s1.756 6.734.917 8.953z" fill="url(#aV)"/>
 <path transform="matrix(.62557 0 0 .62557 30.676 -619.39)" d="M-15.758 1008.33c.518.098.662.606.273.962-1.753 1.598-8.66 2.45-8.66 2.45l-.272-.962s6.33-2.893 8.66-2.45z" fill="url(#aW)"/>
 <path transform="matrix(.62557 0 0 .62557 30.676 -619.39)" d="M-34.756 1006.064c-.274-.45.008-.898.533-.846 2.36.234 7.614 4.798 7.614 4.798l-.533.846s-6.385-2.77-7.614-4.798z" fill="url(#aX)"/>
 <path transform="matrix(.62557 0 0 .62557 30.676 -619.39)" d="M-29.252 1021.031c-.406.336-.89.122-.914-.405-.11-2.37 3.647-8.228 3.647-8.228l.914.405s-1.818 6.719-3.647 8.228z" fill="url(#aY)"/>
 <path transform="matrix(.62557 0 0 .62557 30.676 -619.39)" d="M-15.466 1013.005c.418.321.317.84-.19.982-2.285.636-8.835-1.717-8.835-1.717l.19-.982s6.955.271 8.835 1.717z" fill="url(#aZ)"/>
 <path transform="matrix(.62557 0 0 .62557 30.676 -619.39)" d="M-31.115 1002.288c-.014-.527.452-.775.882-.47 1.934 1.373 4.232 7.943 4.232 7.943l-.883.47s-4.17-5.572-4.231-7.943z" fill="url(#ba)"/>
 <path transform="matrix(.41705 0 0 .41705 9.544 10.509)" d="M15 6a3 3 0 11-6 0 3 3 0 016 0z" fill="url(#bb)" fill-rule="evenodd"/>
 <path transform="matrix(.62557 0 0 .62557 30.676 -619.39)" d="M-33.494 1009.667c-1.769.334-5.072.47-.423 1.626.061.485-6.773-1.514.423-1.626z" fill="#fff" fill-opacity=".656" filter="url(#bc)" overflow="visible"/>
 <path transform="matrix(.62557 0 0 .62557 30.676 -619.39)" d="M-32.42 1005.896c-1.278-.272-3.138-.978-.163 1.918 0 0-4.878-3.902.162-1.918z" fill="#fff" fill-opacity=".656" filter="url(#bd)" overflow="visible"/>
 <path transform="matrix(.62557 0 0 .62557 30.676 -619.39)" d="m-35.283 1015c-0.968-0.403 1.547-1.537 2.048-2.048-0.079-0.157-4.813 1.72-2.048 2.048z" fill="#fff" fill-opacity=".656" filter="url(#be)" overflow="visible"/>
 <path transform="matrix(.62557 0 0 .62557 30.676 -619.39)" d="m-33.461 1018.4c-0.423-0.943 2.276-3.187 2.276-3.187s-3.837 2.276-2.276 3.187z" fill="#fff" fill-opacity=".656" filter="url(#bf)" overflow="visible"/>
 <path transform="matrix(.62557 0 0 .62557 30.676 -619.39)" d="M-29.982 1002.35c-.834-.54-.792.378-.065 2.439 0 0-2.081-4.358.065-2.44z" fill="#fff" fill-opacity=".656" filter="url(#bg)" overflow="visible"/>
 <path transform="matrix(.62557 0 0 .62557 30.676 -619.39)" d="M-25.625 1001.31c-1.29-.104-.87 2.781-1.236 4.293 0 0-.292-5.658 1.236-4.292z" fill="#fff" fill-opacity=".656" filter="url(#bh)" overflow="visible"/>
 <path transform="matrix(.62557 0 0 .62557 30.676 -619.39)" d="m-29.787 1021c0.065-1.607 0.662-3.161 1.593-4.682 0 0-2.21 2.374-1.593 4.682z" fill="#fff" fill-opacity=".656" filter="url(#bi)" overflow="visible"/>
 <path transform="matrix(.62557 0 0 .62557 30.676 -619.39)" d="M-26.178 1016.3c.065 1.796.522 4.21.878 5.528 0 0-1.43-3.479-.878-5.527z" fill="#fff" fill-opacity=".656" filter="url(#bj)" overflow="visible"/>
 <path transform="matrix(.62557 0 0 .62557 30.676 -619.39)" d="M-24.324 1005.668c.713-1.472 1.017-2.946 2.373-4.422-.29-.436-2.293 2.738-2.373 4.422z" fill="#fff" fill-opacity=".656" filter="url(#bk)" overflow="visible"/>
 <path transform="matrix(.62557 0 0 .62557 30.676 -619.39)" d="m-22.861 1007.8c1.542-1.34 2.034-3.055 4.682-4-0.54-0.405-3.566 2.08-4.682 4z" fill="#fff" fill-opacity=".835" filter="url(#bl)" overflow="visible"/>
 <path d="M14.934 11.865c-.997.254-1.721.921-1.17 2.136 0 0-1.249-2.216 1.17-2.136z" fill="#fff" filter="url(#bm)" overflow="visible"/>
</svg>
