<?xml version="1.0" encoding="UTF-8"?>
<svg width="48" height="48" xmlns="http://www.w3.org/2000/svg" xmlns:xlink="http://www.w3.org/1999/xlink">
 <defs>
  <linearGradient id="h" x1="36.766" x2="26.75" y1="1009.7" y2="1019.1" gradientUnits="userSpaceOnUse" xlink:href="#b"/>
  <linearGradient id="g" x1="12.891" x2="24.841" y1="1020.2" y2="1046.1" gradientUnits="userSpaceOnUse" xlink:href="#a"/>
  <linearGradient id="e" x1="33.641" x2="53.459" y1="1034.7" y2="1025.5" gradientUnits="userSpaceOnUse" xlink:href="#a"/>
  <linearGradient id="b">
   <stop stop-color="#a20000" offset="0"/>
   <stop stop-color="#d40000" offset="1"/>
  </linearGradient>
  <linearGradient id="i" x1="13.266" x2="29.391" y1="1012.8" y2="1024.8" gradientUnits="userSpaceOnUse" xlink:href="#b"/>
  <linearGradient id="f" x1="36.164" x2="45.126" y1="1017.7" y2="1014.9" gradientUnits="userSpaceOnUse" xlink:href="#b"/>
  <linearGradient id="a">
   <stop stop-color="#f4e9b0" offset="0"/>
   <stop stop-color="#fffbe5" offset="1"/>
  </linearGradient>
  <linearGradient id="j" x1="16.982" x2="30.642" y1="1039.2" y2="1048.4" gradientUnits="userSpaceOnUse">
   <stop stop-color="#003e8c" offset="0"/>
   <stop stop-color="#0062db" offset="1"/>
  </linearGradient>
  <filter id="k" x="-.08" y="-.141" width="1.16" height="1.282">
   <feGaussianBlur stdDeviation=".173"/>
  </filter>
  <filter id="l" x="-.102" y="-.09" width="1.204" height="1.179">
   <feGaussianBlur stdDeviation=".173"/>
  </filter>
  <filter id="m" x="-.15" y="-.041" width="1.299" height="1.082">
   <feGaussianBlur stdDeviation=".195"/>
  </filter>
  <filter id="d" x="-.058" y="-.149" width="1.115" height="1.298">
   <feGaussianBlur stdDeviation=".885"/>
  </filter>
 </defs>
 <path d="m4.116 36.68 29.624 8.894 7.277-4.41-31.02-9.85-5.88 5.366z" filter="url(#d)" overflow="visible"/>
 <path transform="matrix(.99998 .3125 0 1 0 -1012)" d="M41.141 1014.542l-5.25 1.89c-.462 9.848-.304 16.102-2.25 30.079l7.25-6.516c5.01-15.023.351-15.634.25-25.453z" fill="url(#e)"/>
 <path transform="matrix(.99998 .3125 0 1 0 -1012)" d="m36.92 1022.5-0.756-7.12 5.837-4.522-0.052 6.677-5.029 4.965z" fill="url(#f)"/>
 <path transform="matrix(.99998 .3125 0 1 0 -1012)" d="M5.89 1016.433h30.001c.5 9.76 2.783 16.572-2.25 30.078l-29.5.344c5.01-15.024 1.85-20.603 1.75-30.422z" fill="url(#g)"/>
 <path transform="matrix(.99998 .3125 0 1 0 -1012)" d="M4.89 1015.433l31.153.721 5.958-5.328-31 .688-6.11 3.919z" fill="url(#h)"/>
 <path transform="matrix(.99998 .3125 0 1 0 -1012)" d="m4.89 1015.4h32.001v7.039l-32-0.04v-7z" fill="url(#i)"/>
 <g transform="matrix(.91694 .50682 -.20068 .97966 208.45 -1004.5)" fill="url(#j)" font-family="Rufscript" font-size="18" font-weight="400">
  <path d="M16.626 1048.161a.759.759 0 01-.062-.264c0-.1.041-.167.123-.202a.66.66 0 01.176-.018c.194 0 .51.056.95.167.386.094.826.14 1.318.14.281 0 .58-.014.896-.043.867-.088 1.436-.276 1.705-.563a.279.279 0 00.088-.202.465.465 0 00-.114-.272c-.14-.188-.36-.37-.66-.545a5.146 5.146 0 00-2.267-.694c-.744-.035-1.116-.214-1.116-.537 0-.076.02-.16.062-.255.205-.48.887-.843 2.047-1.09.592-.14 1.345-.57 2.26-1.291.17-.135.254-.328.254-.58a1.6 1.6 0 00-.044-.352c-.129-.586-.63-.987-1.503-1.204a4.854 4.854 0 00-1.204-.176c-.574 0-1.008.155-1.3.466-.37.387-.56.844-.572 1.371-.012.111-.264.176-.756.193h-.009c-.1 0-.21-.12-.334-.36a2.33 2.33 0 01-.228-.826v-.176c0-1.09.691-1.857 2.074-2.303a5.029 5.029 0 011.547-.254c.885 0 1.728.257 2.531.773.88.563 1.465 1.225 1.758 1.986.094.24.14.47.14.686 0 .469-.22.89-.659 1.266-1.283 1.09-1.936 1.678-1.96 1.766v.01c0 .129.46.384 1.38.765.545.228.865.761.958 1.6.018.152.027.295.027.43 0 .398-.085.7-.255.905-.223.27-.77.54-1.644.809-.802.252-1.567.378-2.294.378h-.175c-.774-.024-1.316-.114-1.626-.273-.838-.422-1.342-.832-1.512-1.23M27.11 1045.657c-.434-2.718-.663-4.634-.686-5.748a2.211 2.211 0 01-.009-.202c0-.996.179-1.7.536-2.11.37-.444.665-.667.888-.667.094 0 .173.04.237.123.17.223.255.691.255 1.406 0 .2-.006.413-.018.642-.011.222-.017.457-.017.703 0 1.008.094 2.29.281 3.85.182 1.535.273 2.566.273 3.093 0 .14-.006.246-.018.317-.064.328-.24.51-.527.544-.035.01-.07.01-.106.01-.246 0-.451-.117-.615-.351-.188-.264-.346-.8-.475-1.608"/>
 </g>
 <path d="M10.875 3.5L5.687 5l4.75 1.437c-2.672-.979-2.885-1.958.438-2.937z" fill="#fff" fill-opacity=".603" filter="url(#k)" overflow="visible"/>
 <path d="M5.25 8.437l.063 3.5 4 1.126c-1.398-1.324-3.256-.346-4.063-4.626z" fill="#fff" fill-opacity=".603" filter="url(#l)" overflow="visible"/>
 <path d="M7.5 25.5c-.88 3.62-1.307 7.693-2.938 10.563l3.125.812C4.41 34.597 7.563 29.292 7.5 25.5z" fill="#fff" fill-opacity=".728" filter="url(#m)" overflow="visible"/>
</svg>
