<?xml version="1.0" encoding="UTF-8"?>
<svg width="48" height="48" xmlns="http://www.w3.org/2000/svg" xmlns:xlink="http://www.w3.org/1999/xlink">
 <defs>
  <linearGradient id="r" x1="25.159" x2="25.159" y1="1020.6" y2="1019.3" gradientTransform="matrix(1.41 0 0 1.41 -9.408 -423.89)" gradientUnits="userSpaceOnUse" xlink:href="#d"/>
  <linearGradient id="b">
   <stop stop-color="#ffd73b" offset="0"/>
   <stop stop-color="#ee8400" offset="1"/>
  </linearGradient>
  <linearGradient id="a">
   <stop stop-color="#d700d7" offset="0"/>
   <stop stop-color="#6e006e" offset="1"/>
  </linearGradient>
  <linearGradient id="i" x1="31.031" x2="29.745" y1="1021.5" y2="1017.5" gradientTransform="matrix(1.41 0 0 1.41 -9.408 -423.89)" gradientUnits="userSpaceOnUse" xlink:href="#a"/>
  <linearGradient id="h" x1="34.043" x2="31.85" y1="1028.3" y2="1022.7" gradientTransform="matrix(1.41 0 0 1.41 -9.408 -423.89)" gradientUnits="userSpaceOnUse" xlink:href="#a"/>
  <linearGradient id="x" x1="24.717" x2="28.896" y1="1031.5" y2="1032.7" gradientTransform="matrix(1.41 0 0 1.41 -9.408 -423.89)" gradientUnits="userSpaceOnUse" xlink:href="#a"/>
  <linearGradient id="g" x1="30.259" x2="27.853" y1="1038.8" y2="1038.9" gradientTransform="matrix(1.41 0 0 1.41 -9.408 -423.89)" gradientUnits="userSpaceOnUse" xlink:href="#a"/>
  <linearGradient id="m" x1="21.495" x2="19.42" y1="1035.3" y2="1031.3" gradientTransform="matrix(1.41 0 0 1.41 -9.408 -423.89)" gradientUnits="userSpaceOnUse" xlink:href="#a"/>
  <linearGradient id="n" x1="14.662" x2="13.7" y1="1034.4" y2="1027.9" gradientTransform="matrix(1.41 0 0 1.41 -9.408 -423.89)" gradientUnits="userSpaceOnUse" xlink:href="#a"/>
  <linearGradient id="l" x1="14.359" x2="14.359" y1="1025.9" y2="1023.2" gradientTransform="matrix(1.41 0 0 1.41 -9.408 -423.89)" gradientUnits="userSpaceOnUse" xlink:href="#a"/>
  <linearGradient id="k" x1="14.845" x2="14.845" y1="1021.2" y2="1017.6" gradientTransform="matrix(1.41 0 0 1.41 -9.408 -423.89)" gradientUnits="userSpaceOnUse" xlink:href="#a"/>
  <linearGradient id="j" x1="23.763" x2="22.115" y1="1018.5" y2="1016.1" gradientTransform="matrix(1.41 0 0 1.41 -9.408 -423.89)" gradientUnits="userSpaceOnUse" xlink:href="#a"/>
  <linearGradient id="y" x1="11.904" x2="9.401" y1="1020.1" y2="1016" gradientTransform="matrix(.9478 .40163 -.40163 .9478 405.36 41.42)" gradientUnits="userSpaceOnUse" xlink:href="#b"/>
  <linearGradient id="G" x1="11.281" x2="8.778" y1="1029.7" y2="1024.9" gradientTransform="rotate(-5.437 -3621.4 1292.1) scale(1.3331)" gradientUnits="userSpaceOnUse" xlink:href="#b"/>
  <linearGradient id="H" x1="12.944" x2="9.106" y1="1039" y2="1035.5" gradientTransform="scale(1.64) rotate(17.214 1345.2 811.72)" gradientUnits="userSpaceOnUse" xlink:href="#b"/>
  <linearGradient id="F" x1="21.416" x2="18.913" y1="1039.6" y2="1035.9" gradientTransform="scale(1.1177) rotate(-22.418 -256.84 991.74)" gradientUnits="userSpaceOnUse" xlink:href="#b"/>
  <linearGradient id="E" x1="27.437" x2="26.086" y1="1035.3" y2="1031.3" gradientTransform="scale(1.1177) rotate(12.409 523.87 974.02)" gradientUnits="userSpaceOnUse">
   <stop stop-color="#ffd73b" offset="0"/>
   <stop stop-color="#ee8400" offset="1"/>
  </linearGradient>
  <linearGradient id="C" x1="30.564" x2="28.061" y1="1031.1" y2="1023.7" gradientTransform="rotate(-12.27 -759.34 1122.6) scale(1.1638)" gradientUnits="userSpaceOnUse" xlink:href="#b"/>
  <linearGradient id="B" x1="33.371" x2="30.868" y1="1023.6" y2="1020.1" gradientTransform="scale(1.41) rotate(7.249 2402.9 820.61)" gradientUnits="userSpaceOnUse" xlink:href="#b"/>
  <linearGradient id="I" x1="27.394" x2="23.296" y1="1016.6" y2="1011.8" gradientTransform="rotate(11.005 -1515.5 910.03) scale(.7023)" gradientUnits="userSpaceOnUse" xlink:href="#b"/>
  <linearGradient id="A" x1="20.161" x2="16.331" y1="1020.9" y2="1013.5" gradientTransform="scale(1.2408) rotate(-7.247 -1584.2 956.48)" gradientUnits="userSpaceOnUse" xlink:href="#b"/>
  <linearGradient id="o" x1="14.046" x2="14.046" y1="1024.6" y2="1020.8" gradientTransform="matrix(1.41 0 0 1.41 -9.408 -423.89)" gradientUnits="userSpaceOnUse" xlink:href="#d"/>
  <linearGradient id="w" x1="17.257" x2="17.257" y1="1027.2" y2="1025.1" gradientTransform="matrix(1.41 0 0 1.41 -9.408 -423.89)" gradientUnits="userSpaceOnUse" xlink:href="#d"/>
  <linearGradient id="v" x1="19.526" x2="18.051" y1="1030.7" y2="1029.1" gradientTransform="matrix(1.41 0 0 1.41 -9.408 -423.89)" gradientUnits="userSpaceOnUse" xlink:href="#d"/>
  <linearGradient id="u" x1="24.023" x2="24.023" y1="1033.1" y2="1029.6" gradientTransform="matrix(1.41 0 0 1.41 -9.408 -423.89)" gradientUnits="userSpaceOnUse" xlink:href="#d"/>
  <linearGradient id="t" x1="27.736" x2="25.768" y1="1027.8" y2="1025.5" gradientTransform="matrix(1.41 0 0 1.41 -9.408 -423.89)" gradientUnits="userSpaceOnUse" xlink:href="#d"/>
  <linearGradient id="s" x1="28.287" x2="27.1" y1="1025.4" y2="1021.1" gradientTransform="matrix(1.41 0 0 1.41 -9.408 -423.89)" gradientUnits="userSpaceOnUse" xlink:href="#d"/>
  <linearGradient id="d">
   <stop stop-color="#ff5959" offset="0"/>
   <stop stop-color="#d90000" offset="1"/>
  </linearGradient>
  <linearGradient id="p" x1="20.046" x2="20.839" y1="1021.3" y2="1019.3" gradientTransform="matrix(1.41 0 0 1.41 -9.408 -423.89)" gradientUnits="userSpaceOnUse" xlink:href="#d"/>
  <filter id="U" x="-.084" y="-.306" width="1.168" height="1.613">
   <feGaussianBlur stdDeviation=".183"/>
  </filter>
  <filter id="K" x="-.197" y="-.171" width="1.394" height="1.341">
   <feGaussianBlur stdDeviation=".096"/>
  </filter>
  <filter id="Q" x="-.188" y="-.131" width="1.376" height="1.261">
   <feGaussianBlur stdDeviation=".096"/>
  </filter>
  <filter id="R" x="-.202" y="-.137" width="1.403" height="1.274">
   <feGaussianBlur stdDeviation=".096"/>
  </filter>
  <filter id="O" x="-.211" y="-.181" width="1.423" height="1.362">
   <feGaussianBlur stdDeviation=".096"/>
  </filter>
  <filter id="N" x="-.153" y="-.161" width="1.306" height="1.323">
   <feGaussianBlur stdDeviation=".096"/>
  </filter>
  <filter id="M" x="-.317" y="-.193" width="1.634" height="1.386">
   <feGaussianBlur stdDeviation=".096"/>
  </filter>
  <filter id="L" x="-.148" y="-.081" width="1.296" height="1.163">
   <feGaussianBlur stdDeviation=".096"/>
  </filter>
  <filter id="J" x="-.206" y="-.123" width="1.413" height="1.247">
   <feGaussianBlur stdDeviation=".096"/>
  </filter>
  <filter id="D" x="-.225" y="-.047" width="1.45" height="1.094">
   <feGaussianBlur stdDeviation=".183"/>
  </filter>
  <filter id="X" x="-.332" y="-.187" width="1.663" height="1.373">
   <feGaussianBlur stdDeviation=".183"/>
  </filter>
  <filter id="W" x="-.437" y="-.113" width="1.875" height="1.225">
   <feGaussianBlur stdDeviation=".183"/>
  </filter>
  <filter id="V" x="-.102" y="-.096" width="1.204" height="1.193">
   <feGaussianBlur stdDeviation=".183"/>
  </filter>
  <filter id="P" x="-.146" y="-.092" width="1.291" height="1.183">
   <feGaussianBlur stdDeviation=".096"/>
  </filter>
  <filter id="e" x="-.107" y="-.306" width="1.213" height="1.612">
   <feGaussianBlur stdDeviation=".183"/>
  </filter>
  <filter id="z" x="-.396" y="-.076" width="1.791" height="1.151">
   <feGaussianBlur stdDeviation=".183"/>
  </filter>
  <filter id="S" x="-.088" y="-.127" width="1.177" height="1.254">
   <feGaussianBlur stdDeviation=".183"/>
  </filter>
  <filter id="T" x="-.085" y="-.249" width="1.169" height="1.499">
   <feGaussianBlur stdDeviation=".183"/>
  </filter>
  <filter id="ad" x="-.144" y="-.154" width="1.288" height="1.308">
   <feGaussianBlur stdDeviation=".133"/>
  </filter>
  <filter id="ac" x="-.153" y="-.459" width="1.305" height="1.919">
   <feGaussianBlur stdDeviation=".133"/>
  </filter>
  <filter id="ab" x="-.692" y="-.164" width="2.384" height="1.327">
   <feGaussianBlur stdDeviation=".133"/>
  </filter>
  <filter id="aa" x="-.229" y="-.161" width="1.458" height="1.321">
   <feGaussianBlur stdDeviation=".133"/>
  </filter>
  <filter id="Z" x="-.207" y="-.334" width="1.414" height="1.668">
   <feGaussianBlur stdDeviation=".133"/>
  </filter>
  <filter id="Y" x="-.155" y="-.392" width="1.31" height="1.784">
   <feGaussianBlur stdDeviation=".133"/>
  </filter>
  <filter id="q" x="-.378" y="-.193" width="1.756" height="1.386">
   <feGaussianBlur stdDeviation=".133"/>
  </filter>
  <filter id="ae" x="-.409" y="-.201" width="1.817" height="1.401">
   <feGaussianBlur stdDeviation=".133"/>
  </filter>
  <filter id="f" x="-.228" y="-1.097" width="1.456" height="3.194">
   <feGaussianBlur stdDeviation="1.613"/>
  </filter>
 </defs>
 <path transform="matrix(1.41 0 0 1.41 -9.408 -12.087)" d="M14.738 14.187c-1.107-.75-2.533-.687-4.116-.772 1.472.298 2.537.718 3.822 1.433-1.738-1.007-.627-.94.294-.661z" fill="#fff" filter="url(#e)" overflow="visible"/>
 <path transform="matrix(.37662 0 0 .58333 21.21 20.135)" d="M34.99 39.4a8.49 1.764 0 11-16.98 0 8.49 1.764 0 1116.98 0z" fill-opacity=".769" fill-rule="evenodd" filter="url(#f)"/>
 <path transform="translate(0 -1004.4)" d="M26.475 1025.696c3.08 2.45 4.234 6.276 4.658 8.623.582 3.228 1.093 7.414 1.303 13.007l.063.036c1.291-5.107.676-9.784.044-13.307-.632-3.524-1.964-6.776-6.037-8.349l-.031-.014z" fill="url(#g)" font-family="Bitstream Vera Sans" font-weight="400" overflow="visible" style="block-progression:tb;text-indent:0;text-transform:none"/>
 <path transform="translate(0 -1004.4)" d="M25.988 1023.497c4.493-2.487 8.126-1.924 11.176-1.076 3.051.849 5.85 2.388 7.758 6.779l.078-.115c.268-4.628-3.582-7.932-7.128-8.918-4.527-.999-9.407-.103-11.864 3.34l-.02-.013z" fill="url(#h)" font-family="Bitstream Vera Sans" font-weight="400" overflow="visible" style="block-progression:tb;text-indent:0;text-transform:none"/>
 <path transform="translate(0 -1004.4)" d="M25.314 1018.581l.228.14c2.948-1.644 5.15-3.636 8.276-3.91 3.5-.024 7.46 2.27 9.364 5.395l.198-.083c-2.223-3.982-5.02-7.402-9.782-7.447-4.646.662-5.898 3.424-8.284 5.905z" fill="url(#i)" font-family="Bitstream Vera Sans" font-weight="400" overflow="visible" style="block-progression:tb;text-indent:0;text-transform:none"/>
 <path transform="translate(0 -1004.4)" d="M23.769 1018.947l-.041.03c-.707-5.686.215-10.188 2.687-13.615l-.095.02c-5.108 3.624-5.253 8.396-2.551 13.565z" fill="url(#j)" font-family="Bitstream Vera Sans" font-weight="400" overflow="visible" style="block-progression:tb;text-indent:0;text-transform:none"/>
 <path transform="translate(0 -1004.4)" d="M4.763 1011.191l.062-.189c7.831-.172 13.097 3.462 13.439 9.914l.02-.052c-3.145-3.845-5.105-7.575-13.521-9.673z" fill="url(#k)" font-family="Bitstream Vera Sans" font-weight="400" overflow="visible" style="block-progression:tb;text-indent:0;text-transform:none"/>
 <path transform="translate(0 -1004.4)" d="M11.478 1021.269c-2.276.14-4.768.985-7.49 2.864h.067c5.337-1.674 9.122-2.102 13.434-1.366l.202-.093c-1.897-.965-3.936-1.549-6.213-1.41z" fill="url(#l)" font-family="Bitstream Vera Sans" font-weight="400" overflow="visible" style="block-progression:tb;text-indent:0;text-transform:none"/>
 <path transform="translate(0 -1004.4)" d="M22.299 1027.764c-2.616 1.56-3.668 5.523-1.972 11.353l.062-.311c.56-6.185 1.261-8.719 1.885-11.104l.025.062z" fill="url(#m)" font-family="Bitstream Vera Sans" font-weight="400" overflow="visible" style="block-progression:tb;text-indent:0;text-transform:none"/>
 <path transform="translate(0 -1004.4)" d="M18.704 1025.41c-8.368.546-12.159 6.71-11.897 11.986l.063-.103c3.317-6.016 4.755-8.675 11.7-11.715l.134-.166z" fill="url(#n)" font-family="Bitstream Vera Sans" font-weight="400" overflow="visible" style="block-progression:tb;text-indent:0;text-transform:none"/>
 <path transform="translate(0 -1004.4)" d="M10.397 1017.513l.026.13c1.65.822 3.574 1.407 5.487 3.162l.021-.09c-1.158-3.265-2.47-3.531-5.534-3.203z" fill="url(#o)" font-family="Bitstream Vera Sans" font-weight="400" overflow="visible" style="block-progression:tb;text-indent:0;text-transform:none"/>
 <path transform="translate(0 -1004.4)" d="M18.935 1013.317l-.078.114c.14 1.603 1.399 3.537 1.884 5.687l.167-.052c.42-1.86.272-4.04-1.973-5.75z" fill="url(#p)" font-family="Bitstream Vera Sans" font-weight="400" overflow="visible" style="block-progression:tb;text-indent:0;text-transform:none"/>
 <path transform="matrix(1.41 0 0 1.41 -9.408 -12.087)" d="M20.214 15.51l.662 1.654c-.16-.508-.146-.876.184-.992l-.846-.662z" fill="#fff" fill-opacity=".786" filter="url(#q)" overflow="visible"/>
 <path transform="translate(0 -1004.4)" d="M27.05 1013.28c-1.33.377-2.2.916-1.972 3.626l.13.027c.667-1.116 1.46-2.052 1.884-3.568l-.042-.083z" fill="url(#r)" font-family="Bitstream Vera Sans" font-weight="400" overflow="visible" style="block-progression:tb;text-indent:0;text-transform:none"/>
 <path transform="translate(0 -1004.4)" d="M25.64 1021.94l.094-.056c1.212-1.388 2.348-1.932 3.237-2.377.89-.445 2.452-1.24 2.908-.785l.088-.14c-1.397-.995-1.952-1.121-3.613-.308-1.648 1.098-2.247 1.82-2.714 3.666z" fill="url(#s)" font-family="Bitstream Vera Sans" font-weight="400" overflow="visible" style="block-progression:tb;text-indent:0;text-transform:none"/>
 <path transform="translate(0 -1004.4)" d="M26.925 1024.723l.028.117c1.815.065 3.867.43 5.499 1.745l.024-.107c-.818-2.455-3.386-3.228-5.551-1.754z" fill="url(#t)" font-family="Bitstream Vera Sans" font-weight="400" overflow="visible" style="block-progression:tb;text-indent:0;text-transform:none"/>
 <path transform="translate(0 -1004.4)" d="M24.14 1027.796l-.145.152c-.036 1.827-.184 3.306.15 4.842l.02-.016c1.118-1.596 1.112-3.045-.024-4.978z" fill="url(#u)" font-family="Bitstream Vera Sans" font-weight="400" overflow="visible" style="block-progression:tb;text-indent:0;text-transform:none"/>
 <path transform="translate(0 -1004.4)" d="M17.206 1027.922c-.994.778-1.06 2-1.161 3.738l.062.089c.65-1.141 1.161-2.521 1.885-3.087.723-.566 1.696-1.311 2.21-1.311v-.167c-1.165-.02-2.037.173-2.996.739z" fill="url(#v)" font-family="Bitstream Vera Sans" font-weight="400" overflow="visible" style="block-progression:tb;text-indent:0;text-transform:none"/>
 <path transform="translate(0 -1004.4)" d="M11.8 1025.564c.593-.421 2.161-.93 3.075-1.097.913-.168 1.912-.416 3.074-.192l.153.102c-.998-.797-2.524-1.126-3.68-.914-1.112.31-1.832 1.33-2.675 2.069l.053.03z" fill="url(#w)" font-family="Bitstream Vera Sans" font-weight="400" overflow="visible" style="block-progression:tb;text-indent:0;text-transform:none"/>
 <path transform="translate(0 -1004.4)" d="M25.444 1026.585l.038.044c2.737 3.191 2.726 7.61 1.46 11.272l.026-.137c3.113-3.711 3.105-7.81-1.524-11.18z" fill="url(#x)" font-family="Bitstream Vera Sans" font-weight="400" overflow="visible" style="block-progression:tb;text-indent:0;text-transform:none"/>
 <path transform="translate(0 -1004.4)" d="M7.443 1015.935l-1.22-1.197-1.71-.05.76-1.532-.48-1.642 1.692.251 1.412-.964.284 1.686 1.354 1.046-1.516.791-.576 1.61z" fill="url(#y)" fill-rule="evenodd"/>
 <path transform="matrix(1.41 0 0 1.41 -9.408 -12.087)" d="M23.449 11.798c-1.066 1.744-.788 3.776-.515 5.807-.281-.043-1.433-4.625.515-5.807z" fill="#fff" filter="url(#z)" overflow="visible"/>
 <path transform="translate(0 -1004.4)" d="M22.637 1014.493l-1.998-.506-1.81.984-.137-2.056-1.496-1.419 1.914-.764.887-1.862 1.318 1.584 2.044.269-1.098 1.743.376 2.027z" fill="url(#A)" fill-rule="evenodd"/>
 <path transform="translate(0 -1004.4)" d="M39.38 1022.994l-2.054-1.125-2.273.568.435-2.301-1.242-1.986 2.323-.297 1.505-1.796 1 2.118 2.173.876-1.705 1.606-.163 2.337z" fill="url(#B)" fill-rule="evenodd"/>
 <path transform="translate(0 -1004.4)" d="M35.635 1028.97l-1.908-.308-1.612 1.069-.296-1.91-1.514-1.203 1.725-.872.676-1.812 1.362 1.372 1.932.083-.883 1.72.518 1.862z" fill="url(#C)" fill-rule="evenodd"/>
 <path transform="matrix(1.41 0 0 1.41 -9.408 -12.087)" d="M27.712 26.205c1.28 1.554 1.921 8.173 1.875 9.299.245-1.115-.037-7.939-1.875-9.299z" fill="#fff" filter="url(#D)" overflow="visible"/>
 <path transform="translate(0 -1004.4)" d="M31.283 1039.544l-1.541-1.034-1.835.286.508-1.786-.84-1.656 1.856-.07 1.316-1.31.639 1.743 1.652.847-1.46 1.146-.295 1.833z" fill="url(#E)" fill-rule="evenodd"/>
 <path transform="translate(0 -1004.4)" d="M22.887 1039.77l-1.857.031-1.342 1.283-.603-1.756-1.635-.88 1.483-1.116.332-1.827 1.52 1.066 1.84-.249-.544 1.775.806 1.673z" fill="url(#F)" fill-rule="evenodd"/>
 <path transform="translate(0 -1004.4)" d="M8.653 1030.745l-2.128-.61-1.978.995-.076-2.213-1.559-1.574 2.081-.756 1.016-1.969 1.362 1.746 2.186.357-1.24 1.835.336 2.19z" fill="url(#G)" fill-rule="evenodd"/>
 <path transform="translate(0 -1004.4)" d="M10.615 1043.32l-2.126-1.702-2.719.193.962-2.548-1.023-2.526 2.72.129 2.086-1.754.72 2.627 2.312 1.441-2.276 1.497-.656 2.644z" fill="url(#H)" fill-rule="evenodd"/>
 <path transform="translate(0 -1004.4)" d="M29.51 1010.683l-.985-.626-1.148.208.292-1.13-.553-1.027 1.164-.072.807-.843.428 1.085 1.051.506-.9.743-.157 1.156z" fill="url(#I)" fill-rule="evenodd"/>
 <path transform="matrix(1.41 0 0 1.41 -9.408 -12.087)" d="M11.305 13.929c-.104 0-1.091-.208-1.091-.208l.285.988-.311.883.522-.778c-.231-.607.067-.83.595-.885z" fill="#fff" fill-opacity=".866" filter="url(#J)" overflow="visible"/>
 <path transform="matrix(1.41 0 0 1.41 -9.408 -12.087)" d="M10.136 24.506l-1.17.39 1.014.962c-.624-.766-.235-1.06.156-1.352z" fill="#fff" fill-opacity=".866" filter="url(#K)" overflow="visible"/>
 <path transform="matrix(1.41 0 0 1.41 -9.408 -12.087)" d="M20.739 12.5l-.338.623-1.221.52.883.858.026.831s.286-.91.182-.935c-.767-.19-.737-1.16.312-1.04l.156-.857z" fill="#fff" fill-opacity=".866" filter="url(#L)" overflow="visible"/>
 <path transform="matrix(1.41 0 0 1.41 -9.408 -12.087)" d="M26.794 11.33l-.727.052.363.494-.233.65c.112-.247.225-.497.337-.676-.325-.483.072-.423.26-.52z" fill="#fff" fill-opacity=".866" filter="url(#M)" overflow="visible"/>
 <path transform="matrix(1.41 0 0 1.41 -9.408 -12.087)" d="M32.642 18.269l-1.508.208.91 1.221c-.804-1.05.006-1.177.598-1.429z" fill="#fff" fill-opacity=".866" filter="url(#N)" overflow="visible"/>
 <path transform="matrix(1.41 0 0 1.41 -9.408 -12.087)" d="M29.523 23.857l-1.091.493.961.78c-.715-.514-.308-.895.13-1.273z" fill="#fff" fill-opacity=".866" filter="url(#O)" overflow="visible"/>
 <path transform="matrix(1.41 0 0 1.41 -9.408 -12.087)" d="M12.552 31.783l-1.585-.13.598 1.69-.104.831.39-.858c-1.149-1.586.11-1.3.701-1.533z" fill="#fff" fill-opacity=".866" filter="url(#P)" overflow="visible"/>
 <path transform="matrix(1.41 0 0 1.41 -9.408 -12.087)" d="M20.35 31.653l-.053.286-1.013.78 1.117.701s-1.117-.935.078-1.403c.108-.042-.104-.312-.13-.364z" fill="#fff" fill-opacity=".866" filter="url(#Q)" overflow="visible"/>
 <path transform="matrix(1.41 0 0 1.41 -9.408 -12.087)" d="M27.574 30.64c-.104-.052-1.144.026-1.144.026l.572 1.065-.208.572.364-.624c-.528-.632.012-.807.416-1.04z" fill="#fff" fill-opacity=".866" filter="url(#R)" overflow="visible"/>
 <path transform="matrix(1.41 0 0 1.41 -9.408 -12.087)" d="M25.25 18.12c2.095-2.549 3.565-3.296 4.961-3.455-1.783.57-3.369 2.026-4.961 3.454z" fill="#fff" filter="url(#S)" overflow="visible"/>
 <path transform="matrix(1.41 0 0 1.41 -9.408 -12.087)" d="M25.911 21.427c-.032-.34 5.082-2.036 5.146-1.654.442-.294-3.618-.038-5.146 1.654z" fill="#fff" filter="url(#T)" overflow="visible"/>
 <path transform="matrix(1.41 0 0 1.41 -9.408 -12.087)" d="M10.548 22.126c1.979-.86 3.628-1.142 5.22-1.324.043-.036-2.389-.62-5.22 1.324z" fill="#fff" filter="url(#U)" overflow="visible"/>
 <path transform="matrix(1.41 0 0 1.41 -9.408 -12.087)" d="M12.055 29.109c.128-.777 4.258-4.904 4.3-4.484 0-.493-3.455 1.606-4.3 4.484z" fill="#fff" filter="url(#V)" overflow="visible"/>
 <path transform="matrix(1.41 0 0 1.41 -9.408 -12.087)" d="M21.685 26.389c-.513 1.244-.761 2.554-.883 3.896-.15-.022-.384-2.754.883-3.896z" fill="#fff" filter="url(#W)" overflow="visible"/>
 <path transform="matrix(1.41 0 0 1.41 -9.408 -12.087)" d="M26.793 27.014c-.073-.147-1.323-1.948-1.323-1.948.361.806.799 1.638.882 2.352-.047-.847.203-.606.441-.404z" fill="#fff" filter="url(#X)" overflow="visible"/>
 <path transform="matrix(1.41 0 0 1.41 -9.408 -12.087)" d="M16.355 18.23c-.735-.331-2.058-.258-2.058-.258.697.495 1.497.392 1.58.809-.031-.238-.333-.559.478-.551z" fill="#fff" fill-opacity=".786" filter="url(#Y)" overflow="visible"/>
 <path transform="matrix(1.41 0 0 1.41 -9.408 -12.087)" d="M16.907 22.273c-.35-.03-.853.4-1.397.955.515-.16.992-.465 1.544-.478-.814.032-.482-.222-.147-.477z" fill="#fff" fill-opacity=".786" filter="url(#Z)" overflow="visible"/>
 <path transform="matrix(1.41 0 0 1.41 -9.408 -12.087)" d="M18.12 27.16c.158-.469 1.328-2.22 1.396-1.947-.111-.2-1.233.286-1.397 1.948z" fill="#fff" fill-opacity=".786" filter="url(#aa)" overflow="visible"/>
 <path transform="matrix(1.41 0 0 1.41 -9.408 -12.087)" d="M23.853 27.381c-.266-.934-.053-2.04 0-1.948l.33.882c-.326-.078-.276.598-.33 1.066z" fill="#fff" fill-opacity=".786" filter="url(#ab)" overflow="visible"/>
 <path transform="matrix(1.41 0 0 1.41 -9.408 -12.087)" d="M28.08 22.677c-.53-.176-1.53-.004-2.095.294.802-.055 1.498-.004 1.91.33-.462-.404-.112-.504.185-.624z" fill="#fff" fill-opacity=".786" filter="url(#ac)" overflow="visible"/>
 <path transform="matrix(1.41 0 0 1.41 -9.408 -12.087)" d="M25.03 20.619c.64-.814 1.191-1.805 2.204-1.875.216-.647-1.816.34-2.205 1.875z" fill="#fff" fill-opacity=".786" filter="url(#ad)" overflow="visible"/>
 <path transform="matrix(1.41 0 0 1.41 -9.408 -12.087)" d="M24.625 16.98c.02-1.162.4-1.25.698-1.58-.025-.051-1.082.004-.698 1.58z" fill="#fff" fill-opacity=".786" filter="url(#ae)" overflow="visible"/>
</svg>
