<?xml version="1.0" encoding="UTF-8"?>
<svg width="48" height="48" xmlns="http://www.w3.org/2000/svg" xmlns:xlink="http://www.w3.org/1999/xlink">
 <defs>
  <linearGradient id="x" x1="32.674" x2="22.772" y1="29.947" y2="30.316" gradientUnits="userSpaceOnUse" xlink:href="#h"/>
  <linearGradient id="a">
   <stop stop-color="#ff7215" offset="0"/>
   <stop stop-color="#a40" offset="1"/>
  </linearGradient>
  <linearGradient id="l" x1="26.845" x2="32.099" y1="29.315" y2="29.315" gradientUnits="userSpaceOnUse" xlink:href="#a"/>
  <linearGradient id="b">
   <stop stop-color="#ffd73b" offset="0"/>
   <stop stop-color="#ee8400" offset="1"/>
  </linearGradient>
  <linearGradient id="m" x1="17.103" x2="13.833" y1="30.19" y2="14.81" gradientTransform="translate(0 -2)" gradientUnits="userSpaceOnUse" xlink:href="#b"/>
  <linearGradient id="n" x1="13.359" x2="12.322" y1="29.034" y2="27.789" gradientTransform="translate(0 -2)" gradientUnits="userSpaceOnUse" xlink:href="#b"/>
  <linearGradient id="o" x1="20.972" x2="21.866" y1="28.623" y2="24.221" gradientTransform="translate(0 -2)" gradientUnits="userSpaceOnUse" xlink:href="#b"/>
  <linearGradient id="L" x1="31.621" x2="27.447" y1="19.317" y2="3.496" gradientTransform="translate(0 .929)" gradientUnits="userSpaceOnUse">
   <stop stop-color="#ff5959" offset="0"/>
   <stop stop-color="#d90000" offset="1"/>
  </linearGradient>
  <linearGradient id="K" x1="34.631" x2="31.411" y1="15.302" y2="9.004" gradientTransform="translate(0 .929)" gradientUnits="userSpaceOnUse" xlink:href="#b"/>
  <linearGradient id="I" x1="31.201" x2="23.865" y1="17.241" y2="5.82" gradientTransform="translate(0 .929)" gradientUnits="userSpaceOnUse">
   <stop stop-color="#7ed249" offset="0"/>
   <stop stop-color="#286325" offset="1"/>
  </linearGradient>
  <linearGradient id="H" x1="32.269" x2="23.246" y1="20.694" y2="1.822" gradientTransform="translate(0 .929)" gradientUnits="userSpaceOnUse">
   <stop stop-color="#d1f6f6" offset="0"/>
   <stop stop-color="#2adbdb" offset="1"/>
  </linearGradient>
  <linearGradient id="G" x1="24.822" x2="16.514" y1="10.831" y2="1.517" gradientTransform="translate(0 .929)" gradientUnits="userSpaceOnUse">
   <stop stop-color="#d700d7" offset="0"/>
   <stop stop-color="#6e006e" offset="1"/>
  </linearGradient>
  <linearGradient id="J" x1="23.462" x2="40.401" y1="7.415" y2="19.479" gradientTransform="translate(0 .929)" gradientUnits="userSpaceOnUse">
   <stop stop-color="#ffea00" offset="0"/>
   <stop stop-color="#ffffa4" offset="1"/>
  </linearGradient>
  <linearGradient id="p" x1="46.663" x2="37.325" y1="33.831" y2="41.263" gradientTransform="rotate(-6.477 30.75 46.738)" gradientUnits="userSpaceOnUse" xlink:href="#h"/>
  <linearGradient id="h">
   <stop stop-color="#7ed249" offset="0"/>
   <stop stop-color="#286325" offset="1"/>
  </linearGradient>
  <linearGradient id="s" x1="10.656" x2="33.095" y1="28.932" y2="46.232" gradientUnits="userSpaceOnUse" xlink:href="#h"/>
  <linearGradient id="t" x1="31.534" x2="24.197" y1="32.481" y2="30.773" gradientUnits="userSpaceOnUse" xlink:href="#h"/>
  <linearGradient id="r" x1="18.986" x2="31.46" y1="30.509" y2="32.337" gradientUnits="userSpaceOnUse" xlink:href="#h"/>
  <linearGradient id="q" x1="32.351" x2="21.157" y1="42.327" y2="27.794" gradientUnits="userSpaceOnUse" xlink:href="#h"/>
  <linearGradient id="u" x1="14.622" x2="33.095" y1="22.236" y2="46.232" gradientUnits="userSpaceOnUse" xlink:href="#h"/>
  <linearGradient id="w" x1="13.163" x2="31.722" y1="33.927" y2="23.669" gradientUnits="userSpaceOnUse" xlink:href="#h"/>
  <linearGradient id="v" x1="19.206" x2="33.202" y1="39.085" y2="25.56" gradientTransform="scale(-1 1) rotate(-6.889 1.402 472.62)" gradientUnits="userSpaceOnUse" xlink:href="#h"/>
  <filter id="N">
   <feGaussianBlur stdDeviation=".253"/>
  </filter>
  <filter id="i" x="-.062" y="-.285" width="1.124" height="1.57">
   <feGaussianBlur stdDeviation=".691"/>
  </filter>
  <filter id="y" x="-.163" y="-.093" width="1.325" height="1.187">
   <feGaussianBlur stdDeviation=".362"/>
  </filter>
  <filter id="z" x="-.133" y="-.099" width="1.266" height="1.199">
   <feGaussianBlur stdDeviation=".362"/>
  </filter>
  <filter id="A" x="-.186" y="-.079" width="1.372" height="1.158">
   <feGaussianBlur stdDeviation=".362"/>
  </filter>
  <filter id="U" x="-.034" y="-.17" width="1.067" height="1.34">
   <feGaussianBlur stdDeviation=".091"/>
  </filter>
  <filter id="C" x="-.145" y="-.055" width="1.29" height="1.109">
   <feGaussianBlur stdDeviation=".191"/>
  </filter>
  <filter id="D" x="-.143" y="-.12" width="1.286" height="1.241">
   <feGaussianBlur stdDeviation=".242"/>
  </filter>
  <filter id="E" x="-.161" y="-.123" width="1.322" height="1.247">
   <feGaussianBlur stdDeviation=".242"/>
  </filter>
  <filter id="M">
   <feGaussianBlur stdDeviation=".253"/>
  </filter>
  <filter id="B" x="-.079" y="-.182" width="1.157" height="1.363">
   <feGaussianBlur stdDeviation=".362"/>
  </filter>
  <filter id="O">
   <feGaussianBlur stdDeviation=".253"/>
  </filter>
  <filter id="P">
   <feGaussianBlur stdDeviation=".253"/>
  </filter>
  <filter id="Q">
   <feGaussianBlur stdDeviation=".253"/>
  </filter>
  <filter id="R" x="-.067" y="-.123" width="1.134" height="1.246">
   <feGaussianBlur stdDeviation=".253"/>
  </filter>
  <filter id="S">
   <feGaussianBlur stdDeviation=".079"/>
  </filter>
  <filter id="F" x="-.033" y="-.205" width="1.067" height="1.41">
   <feGaussianBlur stdDeviation=".091"/>
  </filter>
  <filter id="V" x="-.041" y="-.111" width="1.083" height="1.221">
   <feGaussianBlur stdDeviation=".091"/>
  </filter>
  <filter id="T" x="-.05" y="-.108" width="1.099" height="1.216">
   <feGaussianBlur stdDeviation=".091"/>
  </filter>
  <radialGradient id="k" cx="18.185" cy="23.725" r="11.5" gradientTransform="matrix(1.4813 .00968 -.00225 .34494 -8.7 16.6)" gradientUnits="userSpaceOnUse" xlink:href="#a"/>
  <radialGradient id="j" cx="13.855" cy="34.654" r="12.153" gradientTransform="matrix(1.4074 .20114 -.17448 1.2208 .403 -12.118)" gradientUnits="userSpaceOnUse" xlink:href="#a"/>
 </defs>
 <path d="M21 38.156c-5.93 0-10.719 1.302-10.719 2.907 0 1.604 4.79 2.906 10.719 2.906 3.776 0 7.086-.546 9-1.344.703.11 1.503.188 2.375.188 1.098 0 3.536-.538 4.594.093-.605-.656.156-.96.156-1.375 0-.71-2.122-1.281-4.75-1.281-.352 0-.701.012-1.031.031-1.25-1.23-5.403-2.125-10.344-2.125z" fill-opacity=".769" fill-rule="evenodd" filter="url(#i)"/>
 <path d="M7.579 28.97C11.505 32.947 7 36.695 11 40.695c4 4 14.444 2.515 18-1 7.432-7.348-2.213-10.907.938-14.844-1.946-.691-20.78 6.296-22.36 4.117z" fill="url(#j)" overflow="visible"/>
 <path transform="rotate(-9.257 26.532 43.626)" d="M33 25.5a11.5 3.5 0 11-23 0 11.5 3.5 0 1123 0z" fill="url(#k)" fill-rule="evenodd"/>
 <path d="M27 30c1.445-.075 2.823-.53 3.391-.969.428-.33.376-1.02-.763-.867a2.833 2.833 0 01-.301-.991c1.863-.946 5.684 2.338-1.077 4.452-1.57-.223-1.54-1.577-1.25-1.625z" fill="url(#l)" overflow="visible"/>
 <path d="M9.988 27.085c-.913-.192-1.963.644-1.15 1.06 6.913 3.07 18.836-1.103 20.11-3.358.323-1.473-2.27-2.372-3.802-1.503-.874-1.103-3.066-1.538-4.065.442-.398-.722-1.945-.869-2.652-.044-.497-.858-3.499.528-2.917 1.635-.913-1.119-4.165-.286-3.712.619-.87-.368-1.915.28-1.812 1.149z" fill="url(#m)" overflow="visible"/>
 <path d="M11.093 28.146c-.264-.829-.053-1.318 1.326-.973.147-1.424.973-1.038 1.812-.618.3-.304-.124-1.332 1.458-.354.439.79-3.296 2.579-4.596 1.945z" fill="url(#n)" overflow="visible"/>
 <path d="M18.517 25.803c-.378-.293.978-2.127 2.033-.574.337-.846 1.138-.802 1.812.486.896-1.918 2.586-1.366 2.917-.265 0 0-4.817 2.386-6.762.353z" fill="url(#o)" overflow="visible"/>
 <g>
  <path transform="translate(25.182 31.575) scale(.27083)" d="M23.633 23.73c4.717 6.663 13.365 14.698 20.54 18.178.76-1.563 1.13-2.917.827-3.908-7.47-.953-13.979-9.146-19.409-15.115-.885-1.044-2.313-.536-1.958.845z" fill="url(#p)" overflow="visible"/>
  <path transform="translate(24.598 31.74) scale(.27083)" d="M27.116 22.99c-2.741 4.906-8.13 6.55-9.574 11.15-1.57 4.995.482 9.946 8.226 6.786 6.271 4.072 10.702-1.403 9.335-7.877-.742-3.515-7.32-6.735-7.987-10.06z" fill="url(#q)" overflow="visible"/>
  <path transform="translate(24.598 31.74) scale(.27083)" d="M26.863 25.179c.922 5.027.235 9.735-.842 14.316.156 0 6.053-5.81.842-14.316z" fill="url(#r)" overflow="visible"/>
  <path transform="scale(.27083 -.27083) rotate(88.383 155.79 -12.691)" d="M27.255 21.83c-3.499 1.117-8.268 7.71-9.713 12.31-1.57 4.995.482 9.946 8.226 6.786 5.704 3.704 9.934-.872 9.654-6.846-.195-4.16-3.868-8-8.167-12.25z" fill="url(#s)" overflow="visible"/>
  <path transform="scale(.27083 -.27083) rotate(88.383 155.79 -12.691)" d="M26.863 25.179c.922 5.027.235 9.735-.842 14.316.156 0 6.053-5.81.842-14.316z" fill="url(#t)" overflow="visible"/>
  <path transform="rotate(176.56 19.17 22.481) scale(.27083)" d="M27.256 22.996c-3.994 5.137-8.27 6.545-9.714 11.144-1.57 4.995.482 9.946 8.226 6.786 5.999 3.878 11.08-.71 9.792-6.797-.774-3.661-4.864-5.442-8.304-11.133z" fill="url(#u)" overflow="visible"/>
  <path transform="rotate(176.56 19.17 22.481) scale(.27083)" d="M26.99 25.355c-1.519 4.88-1.402 9.637-.881 14.314-.155-.019-5.313-6.495.88-14.314z" fill="url(#v)" overflow="visible"/>
  <path transform="rotate(269.99 35.549 9.72) scale(.27083)" d="M26.948 22.316c-2.573 3.39-7.961 7.225-9.406 11.824-1.57 4.995.482 9.946 8.226 6.786 6.198 4.025 10.024-1.806 8.757-8.378-.711-3.689-4.449-7.523-7.577-10.232z" fill="url(#w)" overflow="visible"/>
  <path transform="rotate(269.99 35.549 9.72) scale(.27083)" d="M26.863 25.179c.922 5.027.235 9.735-.842 14.316.156 0 6.053-5.81.842-14.316z" fill="url(#x)" overflow="visible"/>
  <path transform="translate(25.182 31.575) scale(.27083)" d="m21.5 5c-5.786 2.42-4.832 5.932-4.688 9.313 0 0-3.25-8.25 4.688-9.313z" fill="#fff" fill-opacity=".665" filter="url(#y)" overflow="visible"/>
  <path transform="translate(25.182 31.575) scale(.27083)" d="M11.375 15.5c-4.13 1.177-6.84 3.43-5.5 8.75-.135 0-4.443-7.813 5.5-8.75z" fill="#fff" fill-opacity=".665" filter="url(#z)" overflow="visible"/>
  <path transform="translate(25.182 31.575) scale(.27083)" d="m16.063 41.188c-1.186-4.722 1.588-9.612 4-11 0 0-6.813 2.562-4 11z" fill="#fff" fill-opacity=".665" filter="url(#A)" overflow="visible"/>
  <path transform="translate(25.182 31.575) scale(.27083)" d="M27.75 20.938c1.72-1.29 5.395-3.85 11.063-4.5-.553-.829-7.29-.059-11.063 4.5z" fill="#fff" fill-opacity=".665" filter="url(#B)" overflow="visible"/>
 </g>
 <path d="M9.587 33.114c.293 3.098.103 6.363 2.977 8.396 0 0-4.049-.775-2.977-8.396z" fill="#fff" fill-opacity=".531" filter="url(#C)" overflow="visible"/>
 <path d="M11.611 25.134c-3.57 1.813-4.913 3.486-.893 4.824-.74.126-7.258-1.39.893-4.824z" fill="#fff" fill-opacity=".665" filter="url(#D)" overflow="visible"/>
 <path d="M26.915 22.99c3.56.813 2.677 2.395-.655 4.705 1.316-.542 7.012-2.993.655-4.704z" fill="#fff" fill-opacity=".665" filter="url(#E)" overflow="visible"/>
 <path d="M21.288 23.646c1.182-1.278 2.4-1.45 3.662-.268 1.054-.356 2.07-.546 2.888.119-.755-.272-1.486-.577-2.859 0-1.042-.967-2.252-1.027-3.691.149z" fill="#fff" filter="url(#F)" overflow="visible"/>
 <g>
  <path d="M18.535 20.62c-1.161.947-1.757.341-2.021-1.178C16.576 1.768 37.586-.138 44.8 4.802c.967 1.368.202 1.87-.084 2.611L18.535 20.621z" fill="url(#G)" overflow="visible"/>
  <path d="M20.512 21.442c-.78.214-1.591.566-1.936-1.179C20.442.06 40.433 5.07 45.22 6.571c.519 1.01 1.41 2.526-.084 3.032-9.638.1-19.462-.3-24.625 11.84z" fill="url(#H)" overflow="visible"/>
  <path d="M21.765 22.164c-.561-.06-1.122.492-1.684-1.685C21.17 4.484 36.811 5.136 45.221 9.181c.584.786 1.367 1.572 0 2.358-9.44-2.355-19.465-3.37-23.456 10.625z" fill="url(#I)" overflow="visible"/>
  <path d="M23.029 22.573c-.67-.026-1.367.02-1.6-1.095.976-16.522 18.388-14.292 24.297-10.191.388.84.605 1.624-.337 2.02-8.807-2.114-18.527-5.272-22.36 9.266z" fill="url(#J)" overflow="visible"/>
  <path d="M24.042 22.508c-1.07.178-1.276-.75-1.042-1.58.788-14.502 17.358-11.757 23-8 .938 1.303-.233 1.551-1 2-17.243-6.685-18.777.513-20.958 7.58z" fill="url(#K)" overflow="visible"/>
  <path d="M25 22.929c3.036-12.89 17-8 20-6 .917-.859 1.923-1.704 0-3-5-3-19.055-4.796-21 7-.197 2.435 0 2 1 2z" fill="url(#L)" overflow="visible"/>
  <path d="M17.983 13.44c2.854-6.002 7.67-8.303 12.564-10.064-.209-.114-9.762 1.22-12.564 10.064z" fill="#fff" fill-opacity=".813" filter="url(#M)" overflow="visible"/>
  <path d="M20.424 14.333C22.55 10.83 24.7 7.339 31.321 5.699c0-.98-9.527 1.61-10.897 8.634z" fill="#fff" fill-opacity=".813" filter="url(#N)" overflow="visible"/>
  <path d="M21.972 14.928c1.962-4.054 5.423-6.525 10.242-7.562-.073-.074-8.222.412-10.242 7.562z" fill="#fff" fill-opacity=".813" filter="url(#O)" overflow="visible"/>
  <path d="M23.044 16c2.476-3.4 5.705-6.809 10.838-7.086-2.467-.528-9.299 1.266-10.838 7.086z" fill="#fff" fill-opacity=".813" filter="url(#P)" overflow="visible"/>
  <path d="M24.592 16.595c1.553-2.572 2.625-5.318 9.706-5.895-1.665-.962-9.627 1.4-9.706 5.895z" fill="#fff" fill-opacity=".813" filter="url(#Q)" overflow="visible"/>
  <path d="M25.605 17.31c1.475-1.512 2.102-3.03 9.11-4.942 0 0-6.967.119-9.11 4.942z" fill="#fff" fill-opacity=".813" filter="url(#R)" overflow="visible"/>
 </g>
 <path d="M8.753 27.754c-.322-.306.328-.474 1.102-.625.683-1.2 1.3-1.296 1.905-1.161 1.052-1.29 2.462-1.376 3.603-.685-1.78-.588-2.726-.023-3.484.804-.971-.207-1.45.36-1.875 1.012-.495.115-.989.23-1.25.655z" fill="#fff" fill-opacity=".96" filter="url(#S)" overflow="visible"/>
 <path d="M11.165 27.903c.054-.59.165-1.124 1.31-.625.257-1.241.877-1.149 1.608-.655.353-.614.744-1.102 1.488-.387-1.246-.641-1.064.147-1.37.447-.933-.644-1.447-.308-1.667.714-.947-.42-1.205-.013-1.37.506z" fill="#fff" filter="url(#T)" overflow="visible"/>
 <path d="M18.549 25.551c.931-1.276 1.442-.798 1.905-.119.688-1.157 1.295-.364 1.905.328 1.145-1.685 1.926-1.262 2.68-.685-1.398-.853-2.06-.086-2.68.774-.656-.744-1.314-1.508-1.816-.238-.431-.72-1.01-.998-1.994-.06z" fill="#fff" filter="url(#U)" overflow="visible"/>
 <path d="M15.63 25.164c-.17-.787 1.018-1.89 2.62-1.4 1.734-1.112 2.044-.329 2.65.06-.772-.553-1.61-.73-2.62.06-2.617-.29-2.15.694-2.65 1.28z" fill="#fff" filter="url(#V)" overflow="visible"/>
</svg>
