<?xml version="1.0" encoding="UTF-8"?>
<svg width="48" height="48" xmlns="http://www.w3.org/2000/svg" xmlns:xlink="http://www.w3.org/1999/xlink">
 <defs>
  <linearGradient id="g" x1="10.656" x2="33.095" y1="28.932" y2="46.232" gradientUnits="userSpaceOnUse" xlink:href="#a"/>
  <linearGradient id="a">
   <stop stop-color="#7ed249" offset="0"/>
   <stop stop-color="#286325" offset="1"/>
  </linearGradient>
  <linearGradient id="t" x1="24.389" x2="18" y1="39.121" y2="29.705" gradientTransform="translate(0 -1.833)" gradientUnits="userSpaceOnUse">
   <stop stop-color="#f9f9f9" stop-opacity=".985" offset="0"/>
   <stop stop-color="#d5d5d5" offset="1"/>
  </linearGradient>
  <linearGradient id="n" x1="32.674" x2="22.772" y1="29.947" y2="30.316" gradientUnits="userSpaceOnUse" xlink:href="#a"/>
  <linearGradient id="e" x1="34.358" x2="10.442" y1="34.274" y2="17.095" gradientTransform="translate(7.015 -.446) scale(.91983)" gradientUnits="userSpaceOnUse" xlink:href="#a"/>
  <linearGradient id="d" x1="2.357" x2="35.747" y1="49.629" y2="26.723" gradientTransform="translate(7.015 -.446) scale(.91983)" gradientUnits="userSpaceOnUse" xlink:href="#a"/>
  <linearGradient id="s" x1="16.174" x2="41.737" y1="40.758" y2="30.737" gradientTransform="translate(7.015 -.446) scale(.91983)" gradientUnits="userSpaceOnUse" xlink:href="#a"/>
  <linearGradient id="f" x1="46.663" x2="37.325" y1="33.831" y2="41.263" gradientTransform="matrix(.2082 .07435 -.07435 .2082 25.606 20.07)" gradientUnits="userSpaceOnUse" xlink:href="#a"/>
  <linearGradient id="i" x1="14.622" x2="33.095" y1="22.236" y2="46.232" gradientUnits="userSpaceOnUse" xlink:href="#a"/>
  <linearGradient id="j" x1="19.206" x2="33.202" y1="39.085" y2="25.56" gradientTransform="scale(-1 1) rotate(-6.889 1.402 472.62)" gradientUnits="userSpaceOnUse" xlink:href="#a"/>
  <linearGradient id="m" x1="13.163" x2="31.722" y1="33.927" y2="23.669" gradientUnits="userSpaceOnUse" xlink:href="#a"/>
  <linearGradient id="h" x1="31.534" x2="24.197" y1="32.481" y2="30.773" gradientUnits="userSpaceOnUse" xlink:href="#a"/>
  <linearGradient id="p" x1="32.351" x2="21.157" y1="42.327" y2="27.794" gradientUnits="userSpaceOnUse" xlink:href="#a"/>
  <linearGradient id="q" x1="18.986" x2="31.46" y1="30.509" y2="32.337" gradientUnits="userSpaceOnUse" xlink:href="#a"/>
  <filter id="o" x="-.079" y="-.182" width="1.157" height="1.363">
   <feGaussianBlur stdDeviation=".362"/>
  </filter>
  <filter id="r" x="-.186" y="-.079" width="1.372" height="1.158">
   <feGaussianBlur stdDeviation=".362"/>
  </filter>
  <filter id="l" x="-.133" y="-.099" width="1.266" height="1.199">
   <feGaussianBlur stdDeviation=".362"/>
  </filter>
  <filter id="k" x="-.163" y="-.093" width="1.325" height="1.187">
   <feGaussianBlur stdDeviation=".362"/>
  </filter>
  <filter id="u" x="-.158" y="-.062" width="1.316" height="1.124">
   <feGaussianBlur stdDeviation=".265"/>
  </filter>
  <filter id="v" x="-.269" y="-.157" width="1.538" height="1.314">
   <feGaussianBlur stdDeviation=".284"/>
  </filter>
  <filter id="w" x="-.109" y="-.062" width="1.219" height="1.124">
   <feGaussianBlur stdDeviation=".337"/>
  </filter>
  <filter id="c" x="-.082" y="-.247" width="1.165" height="1.495">
   <feGaussianBlur stdDeviation="1.313"/>
  </filter>
 </defs>
 <path transform="matrix(1.0215 0 0 1.0531 .085 -2.46)" d="M42.835 34.853c-.082 1.33-5.982 2.11-11.5 4.487-3.254 1.402-6.458 2.58-7.898 2.66-10.787.599-18.821-4.041-18.821-7.547 0-3.505 8.016-5.148 18.82-5.148 10.805 0 19.4 2.042 19.4 5.548z" fill-opacity=".769" fill-rule="evenodd" filter="url(#c)"/>
 <path d="m16 22.559s-9.295 0.775-11.154 2.866c-1.568 1.764-1.86 7.126 1.084 9.76s10.51 6.649 15.105 6.042c8.21-1.085 16.089-7.008 22.386-7.436 1.26-0.086 0.62-6.507-1.162-7.359s-23.16-4.57-26.259-3.873z" fill="url(#d)" overflow="visible"/>
 <path d="M13.831 33.48c1.169-6.143.892-9.477 5.5-22.308 4.11-1.812 9.062-.776 12.858.31 5.467 7.74 3.512 14.072 6.43 21.224 0 0-15.57 7.824-24.788.775z" fill="url(#e)" overflow="visible"/>
 <path d="M29.36 26.827c.288 1.782 1.222 4.219 2.308 5.608.303-.236.508-.469.544-.695-1.39-.917-1.884-3.177-2.38-4.89-.075-.294-.407-.332-.471-.023z" fill="url(#f)" overflow="visible"/>
 <g>
  <path transform="scale(.22109 -.22109) rotate(62.255 199.36 38.268)" d="M27.255 21.83c-3.499 1.117-8.268 7.71-9.713 12.31-1.57 4.995.482 9.946 8.226 6.786 5.704 3.704 9.934-.872 9.654-6.846-.195-4.16-3.868-8-8.167-12.25z" fill="url(#g)" overflow="visible"/>
  <path transform="scale(.22109 -.22109) rotate(62.255 199.36 38.268)" d="M26.863 25.179c.922 5.027.235 9.735-.842 14.316.156 0 6.053-5.81.842-14.316z" fill="url(#h)" overflow="visible"/>
  <path transform="matrix(-.20398 -.08526 .08526 -.20398 33.204 33.957)" d="M27.256 22.996c-3.994 5.137-8.27 6.545-9.714 11.144-1.57 4.995.482 9.946 8.226 6.786 5.999 3.878 11.08-.71 9.792-6.797-.774-3.661-4.864-5.442-8.304-11.133z" fill="url(#i)" overflow="visible"/>
  <path transform="matrix(-.20398 -.08526 .08526 -.20398 33.204 33.957)" d="M26.99 25.355c-1.519 4.88-1.402 9.637-.881 14.314-.155-.019-5.313-6.495.88-14.314z" fill="url(#j)" overflow="visible"/>
 </g>
 <path transform="matrix(.1985 .09736 -.09736 .1985 26.98 19.816)" d="m21.5 5c-5.786 2.42-4.832 5.932-4.688 9.313 0 0-3.25-8.25 4.688-9.313z" fill="#fff" fill-opacity=".665" filter="url(#k)" overflow="visible"/>
 <path transform="matrix(.1985 .09736 -.09736 .1985 26.98 19.816)" d="M11.375 15.5c-4.13 1.177-6.84 3.43-5.5 8.75-.135 0-4.443-7.813 5.5-8.75z" fill="#fff" fill-opacity=".665" filter="url(#l)" overflow="visible"/>
 <path d="M14.813 27.573c-1.155 1.832-.587 3.77-.97 5.906 9.218 7.049 24.782-.781 24.782-.781a24.49 24.49 0 01-1.313-4.344c-7.312 1.813-17.752 1.291-22.5-.781z" fill="#1a1a1a" overflow="visible"/>
 <g>
  <path transform="matrix(.09734 -.1985 .1985 .09734 22.534 30.087)" d="M26.948 22.316c-2.573 3.39-7.961 7.225-9.406 11.824-1.57 4.995.482 9.946 8.226 6.786 6.198 4.025 10.024-1.806 8.757-8.378-.711-3.689-4.449-7.523-7.577-10.232z" fill="url(#m)" overflow="visible"/>
  <path transform="matrix(.09734 -.1985 .1985 .09734 22.534 30.087)" d="M26.863 25.179c.922 5.027.235 9.735-.842 14.316.156 0 6.053-5.81.842-14.316z" fill="url(#n)" overflow="visible"/>
  <path transform="matrix(.1985 .09736 -.09736 .1985 26.98 19.816)" d="M27.75 20.938c1.72-1.29 5.395-3.85 11.063-4.5-.553-.829-7.29-.059-11.063 4.5z" fill="#fff" fill-opacity=".665" filter="url(#o)" overflow="visible"/>
  <path transform="matrix(.1985 .09736 -.09736 .1985 26.493 19.727)" d="M27.116 22.99c-2.741 4.906-8.13 6.55-9.574 11.15-1.57 4.995.482 9.946 8.226 6.786 6.271 4.072 10.702-1.403 9.335-7.877-.742-3.515-7.32-6.735-7.987-10.06z" fill="url(#p)" overflow="visible"/>
  <path transform="matrix(.1985 .09736 -.09736 .1985 26.493 19.727)" d="M26.863 25.179c.922 5.027.235 9.735-.842 14.316.156 0 6.053-5.81.842-14.316z" fill="url(#q)" overflow="visible"/>
  <path transform="matrix(.1985 .09736 -.09736 .1985 26.98 19.816)" d="m16.063 41.188c-1.186-4.722 1.588-9.612 4-11 0 0-6.813 2.562-4 11z" fill="#fff" fill-opacity=".665" filter="url(#r)" overflow="visible"/>
 </g>
 <path d="M26.844 39.678s11.464-12.316 13.323-13.014c1.86-.697 4.106-2.4 5.035 0 .93 2.402-1.626 7.204-1.626 7.204.375-.268-9.11 3.231-16.732 5.81z" fill="url(#s)" overflow="visible"/>
 <path d="M19.084 27.872c-.975 2.765-.974 5.53-1.084 8.295 1.168.46 4.057 1.468 6 1 .26-2.603.683-5.022.084-8.59-1.748-.804-3.568-.303-5-.705zm.666 1.17c1.06.018 2.229.145 3.625.5l.04 6.907c-1.734.058-3.197-.292-4.72-.552l1.055-6.855z" fill="url(#t)" overflow="visible"/>
 <path d="M7.98 24.182c-2.886 1.217-3.78 3.972-2.502 10.242-.92-.28-3.978-9.227 2.501-10.242z" fill="#fff" fill-opacity=".58" filter="url(#u)" overflow="visible"/>
 <path d="M14.53 32.34c-.06-1.543-.509-2.954.476-4.347l1.905.714c-1.703-.74-2.505 1.366-2.382 3.632z" fill="#fff" fill-opacity=".679" filter="url(#v)" overflow="visible"/>
 <path d="M15.84 23.467c.501-2.1 2.227-8.657 3.631-11.969 1.622-.955 2.561-.774 3.752-1.012-4.967 1.177-6.015 10.014-7.384 12.981z" fill="#fff" fill-opacity=".616" filter="url(#w)" overflow="visible"/>
</svg>
