<?xml version="1.0" encoding="UTF-8"?>
<svg width="48" height="48" xmlns="http://www.w3.org/2000/svg" xmlns:xlink="http://www.w3.org/1999/xlink">
 <defs>
  <linearGradient id="f" x1="11.8" x2="9.938" y1="34.742" y2="39.338" gradientUnits="userSpaceOnUse" xlink:href="#b"/>
  <linearGradient id="C" x1="15.625" x2="19" y1="37.938" y2="37.5" gradientUnits="userSpaceOnUse" xlink:href="#b"/>
  <linearGradient id="x" x1="15.247" x2="21.036" y1="31.25" y2="35.758" gradientUnits="userSpaceOnUse" xlink:href="#b"/>
  <linearGradient id="z" x1="13.188" x2="18.728" y1="22.082" y2="26.944" gradientUnits="userSpaceOnUse" xlink:href="#b"/>
  <linearGradient id="B" x1="12.688" x2="19.91" y1="15.657" y2="20.43" gradientUnits="userSpaceOnUse" xlink:href="#b"/>
  <linearGradient id="A" x1="11.031" x2="7.104" y1="17.563" y2="22.041" gradientUnits="userSpaceOnUse" xlink:href="#b"/>
  <linearGradient id="y" x1="11.284" x2="10.344" y1="25.563" y2="29.275" gradientUnits="userSpaceOnUse" xlink:href="#b"/>
  <linearGradient id="b">
   <stop stop-color="#520" offset="0"/>
   <stop stop-color="#b6632c" offset="1"/>
  </linearGradient>
  <filter id="M" x="-.123" y="-.185" width="1.246" height="1.369">
   <feGaussianBlur stdDeviation=".146"/>
  </filter>
  <filter id="d" x="-.046" y="-.182" width="1.093" height="1.363">
   <feGaussianBlur stdDeviation=".66"/>
  </filter>
  <filter id="D" x="-.107" y="-.029" width="1.215" height="1.057">
   <feGaussianBlur stdDeviation=".109"/>
  </filter>
  <filter id="J" x="-.121" y="-.539" width="1.243" height="2.078">
   <feGaussianBlur stdDeviation=".158"/>
  </filter>
  <filter id="I" x="-.098" y="-.302" width="1.197" height="1.604">
   <feGaussianBlur stdDeviation=".158"/>
  </filter>
  <filter id="H" x="-.065" y="-.22" width="1.131" height="1.441">
   <feGaussianBlur stdDeviation=".158"/>
  </filter>
  <filter id="u" x="-.064" y="-.322" width="1.129" height="1.644">
   <feGaussianBlur stdDeviation=".158"/>
  </filter>
  <filter id="E" x="-.136" y="-.052" width="1.271" height="1.105">
   <feGaussianBlur stdDeviation=".109"/>
  </filter>
  <filter id="L" x="-.148" y="-.214" width="1.295" height="1.429">
   <feGaussianBlur stdDeviation=".146"/>
  </filter>
  <filter id="K" x="-.315" y="-.094" width="1.63" height="1.188">
   <feGaussianBlur stdDeviation=".146"/>
  </filter>
  <filter id="G" x="-.116" y="-.104" width="1.233" height="1.208">
   <feGaussianBlur stdDeviation=".109"/>
  </filter>
  <filter id="F" x="-.222" y="-.088" width="1.444" height="1.176">
   <feGaussianBlur stdDeviation=".109"/>
  </filter>
  <radialGradient id="m" cx="5.201" cy="21.576" r="12.012" gradientTransform="matrix(1.2196 .90024 -.91444 1.2389 17 -17.255)" gradientUnits="userSpaceOnUse" xlink:href="#b"/>
  <radialGradient id="v" cx="11.434" cy="20.855" r="12.012" gradientTransform="matrix(1.2196 .90024 -.91444 1.2389 17 -17.255)" gradientUnits="userSpaceOnUse">
   <stop stop-color="#ff7215" offset="0"/>
   <stop stop-color="#a40" offset="1"/>
  </radialGradient>
  <radialGradient id="e" cx="15.216" cy="20.019" r="12.012" gradientTransform="matrix(1.2196 .90024 -.91444 1.2389 17 -17.255)" gradientUnits="userSpaceOnUse">
   <stop stop-color="#ff5959" offset="0"/>
   <stop stop-color="#d90000" offset="1"/>
  </radialGradient>
 </defs>
 <path d="M29.75 33c-3.79 0-6.844.777-6.844 1.719 0 .942 3.055 1.718 6.844 1.718 3.79 0 6.875-.776 6.875-1.718S33.539 33 29.75 33zM12.5 35.563c-3.79 0-6.875.776-6.875 1.718S8.711 38.97 12.5 38.97c.441 0 .863-.012 1.281-.032 1.803.037 2.457 1.058 3.094 2.094.252.673 2.046-.402 1.531-1.093-.098-.133-1.316-.653-2.281-1.22 1.565-.243 2.711-.628 3.094-1.093 1.87.72 5.303 1.665 9.312 2.531 6.102 1.318 11.157 1.92 11.282 1.344.124-.576-4.711-2.089-10.813-3.406-4.645-1.003-8.659-1.593-10.375-1.563-1.12-.563-3.425-.968-6.125-.968z" fill-opacity=".769" fill-rule="evenodd" filter="url(#d)"/>
 <g>
  <path transform="matrix(-.86079 -.29705 -.29705 .86079 51.043 4.1)" d="M15 37c-1.201.202-1.827 2.448-6 1-1.89-.656-2.375-.358-3-1-1.4-1.438-3.304-6.54-2.857-9.714C3.503 24.72 9.204 33.588 11 30c.844-1.687-8.655-5.083-6.438-9.25C5.58 18.837 10.54 24.38 11 23c1-3-4.76-3.698-4.714-6.714.047-3.142 3.993.638 4.714-1.286.85-2.267-4.838-5.525-1.438-6.375 4-1 3.157 2.433 4.438 4.375 1.33 2.017 5.441-2.959 8.143-.286C23.984 14.536 17 16 18 18c1 2 5.392-.517 5.571 1.429C24.012 24.197 17 23.857 17 27s9.513-1.921 10 1c.305 1.828.09 4.645-3.25 5.388C21 34 21.59 35.695 20 36c-1.27.244-2.722-.111-4 0-1.438.133.443.99-1 1z" fill="url(#e)" overflow="visible"/>
  <path transform="matrix(-.86079 -.29705 -.29705 .86079 51.043 4.1)" d="M15.063 35.25c-4.149-.502-6.313 1.639-10.25-4.375C7.415 34.117 10.896 34.921 15 34l.063 1.25z" fill="url(#f)" overflow="visible"/>
  <path transform="matrix(-.86079 -.29705 -.29705 .86079 51.043 4.1)" d="M15 32c2.603-.586 5.38-3.822 9.938-2-4.688-1.024-7.75 2.544-9.938 3l.063-1.313" fill="url(#x)" overflow="visible"/>
  <path transform="matrix(-.86079 -.29705 -.29705 .86079 51.043 4.1)" d="M6.688 23.125C8.963 25.449 11.37 27.205 14 28v-1a54.879 54.879 0 01-7.313-3.875z" fill="url(#y)" overflow="visible"/>
  <path transform="matrix(-.86079 -.29705 -.29705 .86079 51.043 4.1)" d="M13.313 23.5c2.541.586 5.083-1.486 7.624-2.938-2.657 1.2-5.406 2.903-7.75 2.375l.126.563z" fill="url(#z)" overflow="visible"/>
  <path transform="matrix(-.86079 -.29705 -.29705 .86079 51.043 4.1)" d="M9.125 17.563c1.07 1.391 2.334 1.621 3.563 2.062l.25-.813c-1.752.064-2.69-.685-3.813-1.25z" fill="url(#A)" overflow="visible"/>
  <path transform="matrix(-.86079 -.29705 -.29705 .86079 51.043 4.1)" d="M12.688 16.5c1.958-.125 4.137-1.356 6.25-2.25-2.063.993-4.125 2.854-6.188 2.813l-.063-.563z" fill="url(#B)" overflow="visible"/>
  <path transform="matrix(-.86079 -.29705 -.29705 .86079 51.043 4.1)" d="M17 41c-.927-1.597-2.118-4.114-2.405-6.51-.976-5.775-2.233-11.479-1.941-17.57-.277-1.768.28-2.483-1.279-4.983 2.009 1.794 1.436 3.021 1.644 4.599.306 6.038 1.65 11.945 3.28 17.818.4 1.948 1.523 3.008 2.701 4.646-.388.681-.949 2.147-2 2z" fill="url(#C)" overflow="visible"/>
  <path transform="matrix(-.41851 .85957 -.85957 -.41851 57.676 30.93)" d="M15 37c-1.201.202-1.827 2.448-6 1-1.89-.656-2.375-.358-3-1-1.4-1.438-3.304-6.54-2.857-9.714C3.503 24.72 9.204 33.588 11 30c.844-1.687-8.655-5.083-6.438-9.25C5.58 18.837 10.54 24.38 11 23c1-3-4.76-3.698-4.714-6.714.047-3.142 3.993.638 4.714-1.286.85-2.267-4.838-5.525-1.438-6.375 4-1 3.157 2.433 4.438 4.375 1.33 2.017 5.441-2.959 8.143-.286C23.984 14.536 17 16 18 18c1 2 5.392-.517 5.571 1.429C24.012 24.197 17 23.857 17 27s9.513-1.921 10 1c.305 1.828.09 4.645-3.25 5.388C21 34 21.59 35.695 20 36c-1.27.244-2.722-.111-4 0-1.438.133.443.99-1 1z" fill="url(#m)" overflow="visible"/>
  <path transform="matrix(-.41851 .85957 -.85957 -.41851 57.676 30.93)" d="M15.063 35.25c-4.149-.502-6.313 1.639-10.25-4.375C7.415 34.117 10.896 34.921 15 34l.063 1.25z" fill="url(#f)" overflow="visible"/>
  <path transform="matrix(-.41851 .85957 -.85957 -.41851 57.676 30.93)" d="M15 32c2.603-.586 5.38-3.822 9.938-2-4.688-1.024-7.75 2.544-9.938 3l.063-1.313" fill="url(#x)" overflow="visible"/>
  <path transform="matrix(-.41851 .85957 -.85957 -.41851 57.676 30.93)" d="M6.688 23.125C8.963 25.449 11.37 27.205 14 28v-1a54.879 54.879 0 01-7.313-3.875z" fill="url(#y)" overflow="visible"/>
  <path transform="matrix(-.41851 .85957 -.85957 -.41851 57.676 30.93)" d="M13.313 23.5c2.541.586 5.083-1.486 7.624-2.938-2.657 1.2-5.406 2.903-7.75 2.375l.126.563z" fill="url(#z)" overflow="visible"/>
  <path transform="matrix(-.41851 .85957 -.85957 -.41851 57.676 30.93)" d="M9.125 17.563c1.07 1.391 2.334 1.621 3.563 2.062l.25-.813c-1.752.064-2.69-.685-3.813-1.25z" fill="url(#A)" overflow="visible"/>
  <path transform="matrix(-.41851 .85957 -.85957 -.41851 57.676 30.93)" d="M12.688 16.5c1.958-.125 4.137-1.356 6.25-2.25-2.063.993-4.125 2.854-6.188 2.813l-.063-.563z" fill="url(#B)" overflow="visible"/>
  <path transform="matrix(-.41851 .85957 -.85957 -.41851 57.676 30.93)" d="M17 41c-.927-1.597-2.118-4.114-2.405-6.51-.976-5.775-2.233-11.479-1.941-17.57-.277-1.768.28-2.483-1.279-4.983 2.009 1.794 1.436 3.021 1.644 4.599.306 6.038 1.65 11.945 3.28 17.818.4 1.948 1.523 3.008 2.701 4.646-.388.681-.949 2.147-2 2z" fill="url(#C)" overflow="visible"/>
 </g>
 <path d="M22.19 21.787c1.88-.833 3.88-.69 5.876-.587-.01-.01-4.086-1.646-5.875.587z" fill="#fff" fill-opacity=".531" filter="url(#u)" overflow="visible"/>
 <g>
  <path d="M15 37c-1.201.202-1.827 2.448-6 1-1.89-.656-2.375-.358-3-1-1.4-1.438-3.304-6.54-2.857-9.714C3.503 24.72 9.204 33.588 11 30c.844-1.687-8.655-5.083-6.438-9.25C5.58 18.837 10.54 24.38 11 23c1-3-4.76-3.698-4.714-6.714.047-3.142 3.993.638 4.714-1.286.85-2.267-4.838-5.525-1.438-6.375 4-1 3.157 2.433 4.438 4.375 1.33 2.017 5.441-2.959 8.143-.286C23.984 14.536 17 16 18 18c1 2 5.392-.517 5.571 1.429C24.012 24.197 17 23.857 17 27s9.513-1.921 10 1c.305 1.828.09 4.645-3.25 5.388C21 34 21.59 35.695 20 36c-1.27.244-2.722-.111-4 0-1.438.133.443.99-1 1z" fill="url(#v)" overflow="visible"/>
  <path d="M15.063 35.25c-4.149-.502-6.313 1.639-10.25-4.375C7.415 34.117 10.896 34.921 15 34l.063 1.25z" fill="url(#f)" overflow="visible"/>
  <path d="M15 32c2.603-.586 5.38-3.822 9.938-2-4.688-1.024-7.75 2.544-9.938 3l.063-1.313" fill="url(#x)" overflow="visible"/>
  <path d="M6.688 23.125C8.963 25.449 11.37 27.205 14 28v-1a54.879 54.879 0 01-7.313-3.875z" fill="url(#y)" overflow="visible"/>
  <path d="M13.313 23.5c2.541.586 5.083-1.486 7.624-2.938-2.657 1.2-5.406 2.903-7.75 2.375l.126.563z" fill="url(#z)" overflow="visible"/>
  <path d="M9.125 17.563c1.07 1.391 2.334 1.621 3.563 2.062l.25-.813c-1.752.064-2.69-.685-3.813-1.25z" fill="url(#A)" overflow="visible"/>
  <path d="M12.688 16.5c1.958-.125 4.137-1.356 6.25-2.25-2.063.993-4.125 2.854-6.188 2.813l-.063-.563z" fill="url(#B)" overflow="visible"/>
  <path d="M17 41c-.927-1.597-2.118-4.114-2.405-6.51-.976-5.775-2.233-11.479-1.941-17.57-.277-1.768.28-2.483-1.279-4.983 2.009 1.794 1.436 3.021 1.644 4.599.306 6.038 1.65 11.945 3.28 17.818.4 1.948 1.523 3.008 2.701 4.646-.388.681-.949 2.147-2 2z" fill="url(#C)" overflow="visible"/>
 </g>
 <path d="M3.57 27.165c-.058 3.656 1.418 6.16 2.215 9.175 0 0-3.344-5.92-2.215-9.175z" fill="#fff" fill-opacity=".46" filter="url(#D)" overflow="visible"/>
 <path d="M5.288 20.477c-1.013 1.525-.122 3.252 1.13 5.016-.175-.152-3.399-3.476-1.13-5.016z" fill="#fff" fill-opacity=".554" filter="url(#E)" overflow="visible"/>
 <path d="M7.276 15.37c-.644.113-.676 2.105.407 2.982-1.688-1.117-1.333-3.144-.407-2.982z" fill="#fff" fill-opacity=".554" filter="url(#F)" overflow="visible"/>
 <path d="M10.982 8.68c-1.33.21-2.838.681-1.491 2.532 0-.181-2.486-2.531 1.491-2.531z" fill="#fff" fill-opacity=".554" filter="url(#G)" overflow="visible"/>
 <path d="M30.868 27.12c1.802-.673 3.418-1.496 5.785-1.717-1.374 0-3.76.045-5.785 1.717z" fill="#fff" fill-opacity=".531" filter="url(#H)" overflow="visible"/>
 <path d="M37.15 30.78s2.502-1.994 3.841-.948c-.69-.234-3.89.91-3.841.949z" fill="#fff" fill-opacity=".531" filter="url(#I)" overflow="visible"/>
 <path d="M42.8 35.03c1.067-.259 2.164-.698 3.118-.272 0 0-.814-1.13-3.119.271z" fill="#fff" fill-opacity=".531" filter="url(#J)" overflow="visible"/>
 <path d="M25.987 13.743c-.91.685-1.105 1.817-.09 3.705-1.371-.738-1.386-4.007.09-3.705z" fill="#fff" fill-opacity=".683" filter="url(#K)" overflow="visible"/>
 <path d="M30.37 8.636c-1.593-.236-2.247.28-2.033 1.49-.324-.47-1.153-2.128 2.034-1.49z" fill="#fff" fill-opacity=".683" filter="url(#L)" overflow="visible"/>
 <path d="M36.336 10.082c.82-.673 1.257-1.727 2.848-1.627-.034-.437-1.845-.619-2.848 1.627z" fill="#fff" fill-opacity=".683" filter="url(#M)" overflow="visible"/>
</svg>
