<?xml version="1.0" encoding="UTF-8"?>
<svg width="48" height="48" xmlns="http://www.w3.org/2000/svg" xmlns:xlink="http://www.w3.org/1999/xlink">
 <defs>
  <linearGradient id="A" x1="34.763" x2="37.056" y1="1029.1" y2="1033.4" gradientUnits="userSpaceOnUse" xlink:href="#b"/>
  <linearGradient id="v" x1="62.367" x2="101.24" y1="224.16" y2="175.5" gradientTransform="matrix(.06776 -.01491 .01491 .06776 4.388 1010.4)" gradientUnits="userSpaceOnUse" xlink:href="#a"/>
  <linearGradient id="u" x1="87.553" x2="112.51" y1="155.62" y2="153.31" gradientTransform="matrix(.06776 -.01491 .01491 .06776 4.388 1010.4)" gradientUnits="userSpaceOnUse" xlink:href="#a"/>
  <linearGradient id="t" x1="204.33" x2="254.23" y1="145.16" y2="95.643" gradientTransform="matrix(.06776 -.01491 .01491 .06776 4.388 1010.4)" gradientUnits="userSpaceOnUse" xlink:href="#a"/>
  <linearGradient id="s" x1="125.21" x2="192.06" y1="159.44" y2="125.55" gradientTransform="matrix(.06776 -.01491 .01491 .06776 4.388 1010.4)" gradientUnits="userSpaceOnUse" xlink:href="#a"/>
  <linearGradient id="r" x1="228.6" x2="301.24" y1="285.88" y2="269.26" gradientTransform="matrix(.04146 -.05564 .05564 .04146 -1.556 1026.4)" gradientUnits="userSpaceOnUse" xlink:href="#b"/>
  <linearGradient id="q" x1="82.487" x2="152.05" y1="335.22" y2="273.05" gradientTransform="matrix(.06929 .00368 -.00368 .06929 8.978 1007.3)" gradientUnits="userSpaceOnUse" xlink:href="#b"/>
  <linearGradient id="p" x1="183.73" x2="235.22" y1="290.83" y2="272.98" gradientTransform="matrix(.06776 -.01491 .01491 .06776 4.388 1010.4)" gradientUnits="userSpaceOnUse" xlink:href="#b"/>
  <linearGradient id="o" x1="185.29" x2="217.08" y1="320.96" y2="313.68" gradientTransform="matrix(.06776 -.01491 .01491 .06776 4.388 1010.4)" gradientUnits="userSpaceOnUse" xlink:href="#b"/>
  <linearGradient id="j" x1="143.86" x2="161.22" y1="28.319" y2="23.236" gradientTransform="matrix(.06776 -.01491 .01491 .06776 4.388 1010.4)" gradientUnits="userSpaceOnUse" xlink:href="#a"/>
  <linearGradient id="i" x1="114.5" x2="150.2" y1="46.517" y2="41.593" gradientTransform="matrix(.06776 -.01491 .01491 .06776 4.388 1010.4)" gradientUnits="userSpaceOnUse" xlink:href="#a"/>
  <linearGradient id="h" x1="200.27" x2="213.26" y1="38.821" y2="54.826" gradientTransform="matrix(.06776 -.01491 .01491 .06776 4.388 1010.4)" gradientUnits="userSpaceOnUse" xlink:href="#a"/>
  <linearGradient id="g" x1="49.601" x2="78.786" y1="69.71" y2="124.5" gradientTransform="matrix(.06776 -.01491 .01491 .06776 4.388 1010.4)" gradientUnits="userSpaceOnUse" xlink:href="#a"/>
  <linearGradient id="k" x1="19" x2="19" y1="31.93" y2="31.93" gradientTransform="translate(0 1003.7)" gradientUnits="userSpaceOnUse" xlink:href="#b"/>
  <linearGradient id="l" x1="22.906" x2="24.625" y1="30.688" y2="32.5" gradientTransform="translate(0 1003.7)" gradientUnits="userSpaceOnUse" xlink:href="#b"/>
  <linearGradient id="n" x1="28.903" x2="34.596" y1="28.918" y2="30.543" gradientUnits="userSpaceOnUse" xlink:href="#b"/>
  <linearGradient id="w" x1="33.281" x2="34.75" y1="28" y2="29.938" gradientUnits="userSpaceOnUse" xlink:href="#b"/>
  <linearGradient id="x" x1="30" x2="31.875" y1="26.281" y2="26.281" gradientUnits="userSpaceOnUse" xlink:href="#b"/>
  <linearGradient id="m" x1="14.814" x2="19.928" y1="1031.7" y2="1035.3" gradientUnits="userSpaceOnUse" xlink:href="#b"/>
  <linearGradient id="z" x1="13.655" x2="19.375" y1="1036.9" y2="1038.4" gradientTransform="translate(.472 -.315)" gradientUnits="userSpaceOnUse" xlink:href="#b"/>
  <linearGradient id="B" x1="33.175" x2="35.041" y1="1026.4" y2="1028.9" gradientUnits="userSpaceOnUse" xlink:href="#b"/>
  <linearGradient id="b">
   <stop stop-color="#1d7c14" offset="0"/>
   <stop stop-color="#39b62d" offset="1"/>
  </linearGradient>
  <linearGradient id="O" x1="9.677" x2="18.82" y1="1038.7" y2="1041.6" gradientUnits="userSpaceOnUse" xlink:href="#d"/>
  <linearGradient id="y" x1="7" x2="11.955" y1="1035.2" y2="1038.1" gradientUnits="userSpaceOnUse" xlink:href="#d"/>
  <linearGradient id="d">
   <stop stop-color="#003e8c" offset="0"/>
   <stop stop-color="#0062db" offset="1"/>
  </linearGradient>
  <linearGradient id="I" x1="21.25" x2="17.5" y1="1042.5" y2="1034.4" gradientTransform="matrix(.55186 -.31773 .28446 .6712 -269.62 351.38)" gradientUnits="userSpaceOnUse" xlink:href="#a"/>
  <linearGradient id="H" x1="9.663" x2="11.144" y1="36.938" y2="26.5" gradientTransform="matrix(.55186 -.31773 .28446 .6712 16.082 1025.5)" gradientUnits="userSpaceOnUse" xlink:href="#a"/>
  <linearGradient id="a">
   <stop stop-color="#bd0000" offset="0"/>
   <stop stop-color="#ff0909" offset="1"/>
  </linearGradient>
  <linearGradient id="f" x1="13.91" x2="2.337" y1="1052" y2="1035.4" gradientTransform="matrix(1.4629 0 -.16338 .8639 172.63 137.15)" gradientUnits="userSpaceOnUse">
   <stop stop-color="#fff6c7" offset="0"/>
   <stop stop-color="#fffbe5" offset="1"/>
  </linearGradient>
  <linearGradient id="G" x1="14.094" x2="14.094" y1="42.5" y2="33.625" gradientTransform="matrix(.55186 -.31773 .28446 .6712 16.082 1025.5)" gradientUnits="userSpaceOnUse" xlink:href="#a"/>
  <linearGradient id="F" x1="32.732" x2="29.509" y1="38.813" y2="28.938" gradientTransform="matrix(.55186 -.31773 .28446 .6712 16.082 1025.5)" gradientUnits="userSpaceOnUse" xlink:href="#a"/>
  <linearGradient id="E" x1="23.75" x2="23.75" y1="44.387" y2="36.912" gradientTransform="matrix(.55186 -.31773 .28446 .6712 16.082 1025.5)" gradientUnits="userSpaceOnUse" xlink:href="#a"/>
  <linearGradient id="C" x1="12.188" x2="9.938" y1="24.875" y2="29.438" gradientTransform="matrix(.55186 -.31773 .28446 .6712 16.082 1025.5)" gradientUnits="userSpaceOnUse" xlink:href="#a"/>
  <linearGradient id="D" x1="28.875" x2="33.688" y1="29.063" y2="33.813" gradientTransform="matrix(.55186 -.31773 .28446 .6712 16.082 1025.5)" gradientUnits="userSpaceOnUse" xlink:href="#a"/>
  <linearGradient id="P" x1="15.531" x2="21.969" y1="1040.5" y2="1044.5" gradientUnits="userSpaceOnUse" xlink:href="#d"/>
  <filter id="R" x="-.192" y="-.084" width="1.383" height="1.168">
   <feGaussianBlur stdDeviation=".18"/>
  </filter>
  <filter id="S" x="-.4" y="-.111" width="1.801" height="1.222">
   <feGaussianBlur stdDeviation=".18"/>
  </filter>
  <filter id="Q">
   <feGaussianBlur stdDeviation=".18"/>
  </filter>
  <filter id="J" x="-.177" y="-.095" width="1.354" height="1.191" color-interpolation-filters="sRGB">
   <feGaussianBlur stdDeviation=".144"/>
  </filter>
  <filter id="K" x="-.13" y="-.117" width="1.261" height="1.233" color-interpolation-filters="sRGB">
   <feGaussianBlur stdDeviation=".144"/>
  </filter>
  <filter id="e" x="-.042" y="-.192" width="1.084" height="1.384">
   <feGaussianBlur stdDeviation=".534"/>
  </filter>
  <filter id="L" x="-.139" y="-.128" width="1.277" height="1.256" color-interpolation-filters="sRGB">
   <feGaussianBlur stdDeviation=".144"/>
  </filter>
  <filter id="M" x="-.14" y="-.244" width="1.279" height="1.488" color-interpolation-filters="sRGB">
   <feGaussianBlur stdDeviation=".144"/>
  </filter>
  <filter id="N" x="-.252" y="-.142" width="1.504" height="1.284" color-interpolation-filters="sRGB">
   <feGaussianBlur stdDeviation=".144"/>
  </filter>
 </defs>
 <path d="M6.688 38.781l-2.532 3.094 20.955.219-.517-1c1.017.131 2.242.218 3.562.218h.282c1.852.824 1.522 2.27 2.247 3.47 1.45 1.345 2.302.27 3.006.312l-3.097-3.875c2.319-.183 3.937-.616 3.937-1.125 0-.674-2.855-1.219-6.375-1.219-2.567 0-4.74.3-5.75.719L6.688 38.78z" fill-opacity=".769" fill-rule="evenodd" filter="url(#e)"/>
 <path transform="translate(0 -1004.4)" d="M6.165 1035.42h21c-.201 4.455-1.333 7.05-2 10.574h-21c.936-3.39 1.928-6.753 2-10.575z" fill="url(#f)"/>
 <path transform="translate(0 -1004.4)" d="M10.238 1011.98c.021.29-.069.015.126-.224.257.066.069.48.234.522.381.18.695.466 1.047.694.372.22.73.497.922.893.522 1.052.82 2.198 1.014 3.351.165.512.396 1.009.452 1.55.122.755.2 1.54.033 2.294-.075.294-.298.555-.602.621-.337.074-.681-.037-.999-.145a6.84 6.84 0 01-1.578-.847 2.441 2.441 0 01-.742-.915c-.366-.625-.756-1.238-1.079-1.887-.17-.252-.776-.548-.88-.852-.177-.384.052-.614.038-1.031.013-.414-.064-.837.063-1.242.13-.425.247-.87.521-1.231.243-.383.493-.498.759-.862.187-.113.537-.493.67-.689z" fill="url(#g)"/>
 <path transform="translate(0 -1004.4)" d="M19.87 1008.555c.064.256.212.349.074.076l.151-.082c.144.287.272.573.314.896.098.45.205.904.197 1.368a13.558 13.558 0 01-.218 2.228c-.166.854-.357 1.84-.826 2.572-.461-.255-.205-1.338-.416-1.781-.124-.646-.244-1.289-.473-1.907a3.278 3.278 0 00-.554-.89c-.332-.403.084-.557.415-.807.39-.295.847-.568 1.1-1 .079-.204.255-.362.195-.58l.041-.094z" fill="url(#h)"/>
 <path transform="translate(0 -1004.4)" d="M12.088 1010.473c.095-.192.375-.249.568-.358.172-.127.36-.221.556-.304.246-.083.456-.238.666-.387.17-.128.319-.264.52-.299.193.18.222.473.278.725.06.346.08.699.12 1.048.255 1.444.626 2.882 1.207 4.233.449 1.077 1.16 2.01 1.664 3.06.45.912-.373.293-.762.018-.324-.22-.624-.47-.936-.707-.192-.183-.42-.17-.661-.207-.52-.047-.622-.165-.777-.694-.4-1.35-.72-2.726-1.312-4.009-.222-.503-.556-.946-.795-1.438-.105-.223-.187-.455-.282-.682l.156-.075c.093.228.002.162-.037.04l-.173.037z" fill="url(#i)"/>
 <path transform="translate(0 -1004.4)" d="M14.205 1009.814c.193-.085.207-.186.368-.337.225-.231.46-.45.686-.682.163-.183.328-.492.513-.2.028.267.065.532.086.799.07.998.06 2 .1 3 .066 1.282.26 2.558.607 3.794.172.435-.003.502-.404.548-.466.102-.559-.055-.704-.474a16.1 16.1 0 01-.472-1.879c-.08-.605-.108-1.215-.171-1.822-.056-.48-.119-.964-.266-1.426-.084-.308-.182-.611-.272-.917-.044-.14-.101-.274-.158-.408l.155-.075c.06.14.213.129-.024.229l-.044-.15z" fill="url(#j)"/>
 <path transform="translate(0 -1004.4)" d="M22.5 1035.181c-1.29-.288-2.363.296-3.5.625l.188.438c1.281-.466 2.556-.97 4-.625l-.688-.438z" fill="url(#k)" overflow="visible"/>
 <path transform="translate(0 -1004.4)" d="m27.25 1038c-3.717-3.422-5.925-3.575-8.75-5.063l-0.313 0.563c3.309 1.695 6.763 3.1 9.438 6.062l-0.375-1.563z" fill="url(#l)" overflow="visible"/>
 <path transform="translate(0 -1004.4)" d="m14.814 1031.8c2.007 2.51 3.28 4.785 5.107 2.826 0.154-3.219-2.351-2.883-5.107-2.826z" fill="url(#m)" overflow="visible"/>
 <path d="M28.903 36.863c.744-5.132 3.15-9.424 5.48-13.877l.213.425c-2.064 4-4.385 8.598-5.163 14.69l-.53-1.238z" fill="url(#n)" overflow="visible"/>
 <path transform="translate(0 -1004.4)" d="M19.699 1026.768c.106.212.242.462.394.642.767 1.016 1.313 2.162 1.801 3.334.574.328 10.042 17.821 8.823 18.176.631.032 1.449.634 2.557.3.293-.36-9.26-18.294-9.37-18.6-.51-1.032-.882-2.123-1.264-3.207 0 0-2.8-.436-2.89-.588l-.051-.06z" fill="url(#o)"/>
 <path transform="translate(0 -1004.4)" d="M22.155 1023.832c.243.077.393.316.564.497.28.294.574.574.866.857.272.269.474.588.624.937.098.323.28.602.472.875.257.307.036.47-.288.512-.84.025-1.679-.032-2.518-.011-.29.032-.565-.05-.844-.107-.355-.026-.784 0-1.103-.154-.326-.214-.439-.739-.572-1.164-.106-.396-.335-.703.117-.885.482-.198.916-.486 1.39-.703.424-.248.969-.333 1.327-.682l.132.113-.167-.086z" fill="url(#p)"/>
 <path transform="translate(0 -1004.4)" d="M15.906 1025.782l.031-.047.858.045c.335.01.668-.017 1.002-.018.315-.01.623.053.935.078.371.063.184.32.044.549-.163.264-.315.537-.503.784-.213.297-.437.587-.669.87-.297.353-.624.675-.949 1.003-.464.52-.964 1.01-1.603 1.31-.822.412-1.693.724-2.51 1.148-.718.36-1.39.793-2.085 1.19-.665.233.724-1.187 1.026-1.199.78-.606 1.534-1.265 2.108-2.074a29.52 29.52 0 001.591-2.569c.202-.344.442-.694.548-1.079l.176.01z" fill="url(#q)"/>
 <path transform="translate(0 -1004.4)" d="M20.546 1024.952l.284-.167c-.13.246-.4.637-.42.13-.01-.452.02-.946-.362-1.251-.282-.315.01-.51.298-.7.222-.045.438-.01.66.055.533.075 1.075.029 1.612.039a15.53 15.53 0 001.477-.156c.39-.034.779-.108 1.169-.152.401-.06.801-.129 1.206-.17.346-.074.702-.123 1.026-.273.366-.158.736-.318 1.138-.354.272-.019.539.01.773.159.349.273.192.462-.223.496-.604.15-1.21.283-1.824.375-.669.128-1.278.47-1.952.583-.532.105-1.065.204-1.604.266-.565.072-1.124.183-1.673.329-.329.093-.686.153-.958.372-.1.086-.378.305-.39.241 0 0-.148.09-.238.177z" fill="url(#r)"/>
 <path transform="translate(0 -1004.4)" d="M10.363 1011.845c.013-.324-.126-.63-.141-.948.126-.31.56-.177.821-.276.566-.06 1.14.05 1.702-.058.641-.03 1.277-.114 1.902-.26.797-.148 1.578-.422 2.394-.438.493.04.997.136 1.438.367.352.213.659.504.914.823.241.407.206.904.295 1.356.111.909.332 1.803.669 2.656.172.535.419 1.04.72 1.515.38.645.734 1.304 1.165 1.917.263.364.453.77.672 1.159.316.448.482.999.52 1.542.04.616-.292 1.167-.614 1.662-.345.423-.618.893-.895 1.36-.254.454-.7.752-1.184.919-.712.266-1.405.597-2.16.733-.614.185-1.283.43-1.92.195-.525-.145-.844-.604-1.21-.968-.503-.418-1.086-.767-1.429-1.344-.404-.645-.706-1.35-.986-2.056-.155-.446-.351-.88-.402-1.354-.192-1.03-.299-2.086-.669-3.073-.04-.321-.044-.62-.091-.926-.12-.704-.339-1.37-.497-2.068-.056-.657-.265-1.31-.674-1.834-.176-.26-.214-.536-.305-.839.273-.196.083.325.258.447.306.472-.032-.434-.18-.235-.037.01-.075.017-.113.025z" fill="url(#s)"/>
 <path transform="translate(0 -1004.4)" d="M20.074 1008.29c.239-.141.42.082.541.27.28.438.402.953.596 1.431.24.632.346 1.315.274 1.989-.034.537-.168 1.063-.17 1.603-.01.67-.043 1.4.361 1.974.47.629.84 1.322 1.194 2.02.226.404.409.83.571 1.263.235.485.588.923.68 1.468.093.318.027.65-.13.935-.16.278-.28.574-.379.879-.152.3-.198.376-.411.642-.163.25-.654.44-.61-.024-.024-.363-.135-.483.053-.816.146-.277.325-.54.47-.814.098-.205.07-.476-.146-.592-.63-.492-1.296-.97-1.752-1.641-.446-.67-.873-1.364-1.164-2.117-.196-.531-.412-1.06-.546-1.611-.078-.425-.054-.86-.066-1.29.047-1.276-.06-2.552-.016-3.827.034-.49.216-.95.344-1.42.04-.169.063-.248.306-.322z" fill="url(#t)"/>
 <path transform="translate(0 -1004.4)" d="M10.683 1011.698c-.095.284.2.221.177.388.18.685.393 1.364.71 1.999a97.812 97.812 0 001.832 3.57c.692 1.308 1.24 2.684 1.893 4.01.576 1.137.839 2.348 1.474 3.45.113.307.16.585-.017.716-.327.082-.747-.078-1.085-.067-.325-.034-.528-.32-.786-.487-.428-.358-.84-.736-1.287-1.072-.355-.3-.561-.736-.642-1.189-.234-1.063-.438-2.135-.722-3.187-.202-.654-.267-1.343-.302-2.023 0-.705-.113-1.405-.235-2.097a4.826 4.826 0 00-.513-1.495c-.186-.314-.323-.703-.676-.868a5.692 5.692 0 01-.738-.426c-.313-.217-.476-.46-.024-.71.21-.19.554-.278.756-.476.064 0 .123-.027.184-.04z" fill="url(#u)"/>
 <path transform="translate(0 -1004.4)" d="M8.29 1017.073c.496.282 1.101.347 1.541.728.308.261.616.523.952.748a33.224 33.224 0 012.655 1.991c.63.483 1.155 1.088 1.648 1.706.272.426.487.886.743 1.323.367.614.547 1.313.817 1.97.087.281.511.192.466.496-.163.225-.602.445-.833.393-.439-.136-.837-.263-1.303-.287-.557-.058-1.128-.26-1.685-.318a4.07 4.07 0 01-1.583-.687c-.518-.5-.74-1.21-1.178-1.772-.227-.333-.471-.655-.694-.99-.43-.78-1.02-1.46-1.421-2.257-.26-.472-.409-.992-.57-1.503-.064-.313.01-.631.13-.92.112-.234-.079-1.633-.086-1.87.19-.192.257-.305.33-.491.083-.14.17.577.17.684.105.37.056.911-.29 1.132.227.258-.06-.067-.326-.38-.157-.285-.144-.658.096-.901.086-.12.175 1.071.421 1.205z" fill="url(#v)"/>
 <path d="M30.5 31.875l.563-1.188c1.688-1.403 3.29-2.284 4.812-2.687l.188.438c-1.96.308-3.768 1.817-5.563 3.437z" fill="url(#w)" overflow="visible"/>
 <path d="M30 24.125l.375-.063c.605 1.215 1.364 2.224 1.5 4.063l-.188.375c-.07-1.376-.616-2.832-1.687-4.375z" fill="url(#x)" overflow="visible"/>
 <path d="M28.28 20.71c.464 3.18.414 5.785 2.98 5.018 1.76-2.701-.573-3.676-2.98-5.019z" fill="green" overflow="visible"/>
 <path transform="translate(0 -1004.4)" d="M7.688 1036.987l-.688.719c.453.483 1.113 1.38 1.818.737.771-.502 1.547.138 2.214.482.8.231 1.37-.86 2.154-.473.66.383 1.387.785 2.181.65.548-.074 1.818-.01 1.49-.906-.528-.652-1.379.123-2.048-.119-.757-.141-1.364-.694-2.086-.899-.627.05-1.033.935-1.72.634-.66-.412-1.43-1.005-2.177-.389a.89.89 0 01-1.139-.436z" fill="url(#y)" font-family="Bitstream Vera Sans" font-weight="400" overflow="visible" style="block-progression:tb;text-indent:0;text-transform:none"/>
 <path transform="translate(0 -1004.4)" d="M14.128 1037.416c3.155.608 5.6 1.513 5.72-1.163-1.972-2.55-3.66-.668-5.72 1.163z" fill="url(#z)" overflow="visible"/>
 <path transform="translate(0 -1004.4)" d="m39.349 1029.1c-2.997 1.16-5.549 1.691-4.23 4.023 3.025 1.114 3.457-1.377 4.23-4.023z" fill="url(#A)" overflow="visible"/>
 <path transform="translate(0 -1004.4)" d="M36.907 1023.89c-2.598 1.891-4.927 3.06-3.053 4.974 3.209.299 2.986-2.22 3.053-4.975z" fill="url(#B)" overflow="visible"/>
 <g>
  <path transform="scale(.92193) rotate(-9.173 -6223 580.46)" d="M26.635 1038.976c2.708-1.077 4.897.148 7.2.574l.717 2.3s-5.45 1.416-5.734.848c-.283-.567-2.133-3.907-2.183-3.722z" fill="url(#C)" overflow="visible"/>
  <path transform="scale(.92193) rotate(-9.173 -6223 580.46)" d="m37.294 1038.6c2.087-1.89 4.257-4.202 6.62-4.928l0.747 2.67-6.51 4.687-0.857-2.429z" fill="url(#D)" overflow="visible"/>
  <path transform="scale(.92193) rotate(-9.173 -6223 580.46)" d="M36.89 1043.113c.102-.163 1.747-2.154 1.747-2.154 1.339 1.607 2.9 3.12 5.11 4.364l-3.037-.078s.696 2.898.55 2.815c-2.18-1.233-3.375-3.032-4.37-4.946z" fill="url(#E)" overflow="visible"/>
  <path transform="scale(.92193) rotate(-9.173 -6223 580.46)" d="m37.38 1038.6c2.562-1.208 5.363-2.154 6.49-4.936 1.431 2.054 2.939 4.081 2.533 6.787-2.521 1.242-5.046 2.726-7.543 1.943-0.23-0.072-1.428-3.875-1.48-3.793z" fill="url(#F)" overflow="visible"/>
  <path transform="scale(.92193) rotate(-9.173 -6223 580.46)" d="M34.442 1043.009c-.24 1.72-1.184 3.358-1.995 5.01l2.38-1.266.864 2.948c.409-1.988 1.263-3.684.96-6.137l-2.209-.555z" fill="url(#G)" overflow="visible"/>
  <path transform="scale(.92193) rotate(-9.173 -6223 580.46)" d="M32.814 1039.876c-2.178-.04-4.4.013-6.185-.927.06 2.21 1.272 3.756 2.086 5.53 1.83.631 3.903-.277 5.94-.967l-1.841-3.636z" fill="url(#H)" overflow="visible"/>
  <path transform="scale(.92193) rotate(-9.173 -6223 580.46)" d="m32.552 1039.7c1.423-1.014 2.801-2.1 5.276-1.42l1.485 4.415c-1.435 1-3.167 1.806-4.846 1.12-0.152-0.062-1.828-4.01-1.915-4.115z" fill="url(#I)" overflow="visible"/>
  <path transform="matrix(.45558 -.37028 .35754 .56907 -353.51 -558.4)" d="M-.542 1041.13c-.662 1.207-.392 2.415-.265 3.623-.228-.227 1.516-2.454 1.768-2.254.206.165-1.232-1.281-1.503-1.37z" fill="#fff" fill-opacity=".817" filter="url(#J)" overflow="visible"/>
  <path transform="matrix(.45558 -.37028 .35754 .56907 -353.51 -558.4)" d="M7.81 1045.726l.09 2.96c.3-1.403.648-2.764 2.563-2.784l-2.652-.176z" fill="#fff" fill-opacity=".817" filter="url(#K)" overflow="visible"/>
  <path transform="matrix(.45558 -.37028 .35754 .56907 -353.51 -558.4)" d="M16.296 1047.935l-.132 2.696c-.057-.34 1.176-2.135 2.475-2.298.236-.03-2.299-.442-2.343-.398z" fill="#fff" fill-opacity=".817" filter="url(#L)" overflow="visible"/>
  <path transform="matrix(.45558 -.37028 .35754 .56907 -353.51 -558.4)" d="M6.22 1053.283l1.503-1.414.972.84c-.57-.49-1.573.176-2.475.574z" fill="#fff" fill-opacity=".817" filter="url(#M)" overflow="visible"/>
  <path transform="matrix(.45558 -.37028 .35754 .56907 -353.51 -558.4)" d="M13.512 1054.034l-1.37-.133.53 2.431c.1-1.26.048-2.423.84-2.298z" fill="#fff" fill-opacity=".817" filter="url(#N)" overflow="visible"/>
 </g>
 <path transform="translate(0 -1004.4)" d="M9.094 1040.456c-.733.399-1.501.728-2.25 1.094l.437.906c.494-.096 1.126-.87 1.548-.467.175.38.442 1.13.972.746.652-.288 1.31-.565 1.968-.84.507.035.943.362 1.457.372 1.13.16 2.257-.122 3.352-.373.493.064.899.392 1.344.586.334.303.754.167.841-.265.278-.566-.533-.663-.861-.87-.543-.256-1.081-.649-1.698-.392-1.208.23-2.518.605-3.703.078-.479-.323-1.078-.144-1.544.108-.383.14-.735.475-1.162.41-.35-.225-.394-.789-.701-1.093z" fill="url(#O)" font-family="Bitstream Vera Sans" font-weight="400" overflow="visible" style="block-progression:tb;text-indent:0;text-transform:none"/>
 <path transform="translate(0 -1004.4)" d="M15.875 1043.643l-.344.97c.842.27 1.676.622 2.564.703.44-.061.785-.37 1.195-.515.318-.244.691-.153 1.012.022.44.171.882.339 1.323.51l.344-.938c-.71-.253-1.404-.551-2.123-.779-.42 0-.795.22-1.179.36-.292.082-.555.404-.87.274a19.45 19.45 0 01-1.922-.606z" fill="url(#P)" font-family="Bitstream Vera Sans" font-weight="400" overflow="visible" style="block-progression:tb;text-indent:0;text-transform:none"/>
 <path d="M15.5 6.312l-4.563.375c.513 2.088 1.512 3.932 2.688 5.688-.688-2.813-2.188-5.875 1.875-6.063z" fill="#fff" filter="url(#Q)" opacity=".702" overflow="visible"/>
 <path d="M8.438 13.313l-.126 1.374c.882 1.908 1.519 2.591 2.25 3.75-.937-1.593-1.84-3.204-2.124-5.125z" fill="#fff" filter="url(#R)" opacity=".958" overflow="visible"/>
 <path d="M9.75 8.875c-.354.185-.708.515-1.063 1.688-.062.978.096 1.516.188 2.187.21-1.698.498-3.01.875-3.875z" fill="#fff" filter="url(#S)" opacity=".958" overflow="visible"/>
</svg>
