<?xml version="1.0" encoding="UTF-8"?>
<svg width="48" height="48" xmlns="http://www.w3.org/2000/svg" xmlns:xlink="http://www.w3.org/1999/xlink">
 <defs>
  <linearGradient id="f" x1="12.188" x2="9.938" y1="24.875" y2="29.438" gradientUnits="userSpaceOnUse" xlink:href="#b"/>
  <linearGradient id="b">
   <stop stop-color="#bd0000" offset="0"/>
   <stop stop-color="#ff0909" offset="1"/>
  </linearGradient>
  <linearGradient id="e" x1="32.439" x2="18.505" y1="1039.2" y2="1010.1" gradientTransform="matrix(.87419 0 0 1 1.523 -.404)" gradientUnits="userSpaceOnUse" xlink:href="#a"/>
  <linearGradient id="d" x1="38.099" x2="13.034" y1="1041.6" y2="1007.4" gradientUnits="userSpaceOnUse" xlink:href="#a"/>
  <linearGradient id="m" x1="14.094" x2="14.094" y1="42.5" y2="33.625" gradientUnits="userSpaceOnUse" xlink:href="#b"/>
  <linearGradient id="h" x1="23.75" x2="23.75" y1="44.387" y2="36.912" gradientUnits="userSpaceOnUse" xlink:href="#b"/>
  <linearGradient id="j" x1="22.702" x2="18.138" y1="1030.8" y2="1020.9" gradientTransform="matrix(.84689 .6146 -.6146 .84689 638.03 142.3)" gradientUnits="userSpaceOnUse" xlink:href="#b"/>
  <linearGradient id="l" x1="22.702" x2="18.138" y1="1030.8" y2="1020.9" gradientTransform="matrix(-.87493 .32494 .32494 .87493 -296.95 117.01)" gradientUnits="userSpaceOnUse" xlink:href="#b"/>
  <linearGradient id="o" x1="21.25" x2="17.5" y1="1042.5" y2="1034.4" gradientUnits="userSpaceOnUse" xlink:href="#b"/>
  <linearGradient id="n" x1="9.663" x2="11.144" y1="36.938" y2="26.5" gradientUnits="userSpaceOnUse" xlink:href="#b"/>
  <linearGradient id="i" x1="32.732" x2="29.509" y1="38.813" y2="28.938" gradientUnits="userSpaceOnUse" xlink:href="#b"/>
  <linearGradient id="g" x1="28.875" x2="33.688" y1="29.063" y2="33.813" gradientUnits="userSpaceOnUse" xlink:href="#b"/>
  <linearGradient id="a">
   <stop stop-color="#fff6c7" offset="0"/>
   <stop stop-color="#fffbe5" offset="1"/>
  </linearGradient>
  <filter id="s" x="-.177" y="-.095" width="1.354" height="1.191">
   <feGaussianBlur stdDeviation=".144"/>
  </filter>
  <filter id="p" x="-.138" y="-.09" width="1.276" height="1.18">
   <feGaussianBlur stdDeviation=".157"/>
  </filter>
  <filter id="q" x="-.135" y="-.171" width="1.27" height="1.343">
   <feGaussianBlur stdDeviation=".157"/>
  </filter>
  <filter id="r">
   <feGaussianBlur stdDeviation=".157"/>
  </filter>
  <filter id="k">
   <feGaussianBlur stdDeviation=".173"/>
  </filter>
  <filter id="u" x="-.139" y="-.128" width="1.277" height="1.256">
   <feGaussianBlur stdDeviation=".144"/>
  </filter>
  <filter id="t" x="-.13" y="-.117" width="1.261" height="1.233">
   <feGaussianBlur stdDeviation=".144"/>
  </filter>
  <filter id="v" x="-.14" y="-.244" width="1.279" height="1.488">
   <feGaussianBlur stdDeviation=".144"/>
  </filter>
  <filter id="w" x="-.252" y="-.142" width="1.504" height="1.284">
   <feGaussianBlur stdDeviation=".144"/>
  </filter>
  <filter id="c" x="-.045" y="-.153" width="1.089" height="1.306">
   <feGaussianBlur stdDeviation=".506"/>
  </filter>
 </defs>
 <path d="M12.813 38.094l-1.563 2.031 3.375.906-.938 1.532 2.333-1.597c1.538.183 3.023.287 4.965 1.076l1.359 2.114-.048-1.63c3.745.721 6.7 2.23 10.048 3.349l-4.434-5.974-15.098-1.807zm16.75 2.2l8.843 1.737-8.985-4.096.141 2.36z" fill-opacity=".769" filter="url(#c)" overflow="visible"/>
 <path transform="matrix(.99741 .07187 0 1 0 -1004.4)" d="m11.029 1006.6c8.786-0.733 17.441-1.662 27.829 0v37c-22.984-4.484-18.553 0-27.83 0v-37z" fill="url(#d)"/>
 <path d="M11 3c8.764-.1 17.397-.408 27.757 2v37C15.833 35.865 20.252 40.667 11 40V3z" fill-opacity=".103"/>
 <path d="M31.063 10.688c.25.124 2.687 1.562 2.687 1.562s.688-1.25.938-1.25 1.75 1.438 1.75 1.438M30.375 16.875c.25.125 2.688 1.563 2.688 1.563s.687-1.25.937-1.25 1.75 1.437 1.75 1.437M30.375 23.75c.25.125 2.688 1.563 2.688 1.563s.687-1.25.937-1.25 1.75 1.437 1.75 1.437" fill="none" overflow="visible" stroke="navy"/>
 <path transform="matrix(.96414 .2654 0 1 0 -1004.4)" d="m11.41 1004.3c8.688-1.294 16.117-1.174 22.606 0v37c-7.206-1.462-14.668-1.79-22.607 0v-37z" fill="url(#e)"/>
 <path d="M7.055 23.412c4.61.577 7.042 3.554 10.133 5.65l-.375 3.25S8 30.25 7.938 29.375c-.063-.875-.696-6.15-.883-5.963z" fill="url(#f)" overflow="visible"/>
 <path d="M22.813 30.313c4.206-.826 8.794-2.098 12.684-1.339l-.56 3.713-12.374 1.126.25-3.5z" fill="url(#g)" overflow="visible"/>
 <path d="M19.438 35.438c.25-.126 3.875-1.376 3.875-1.376.959 2.848 2.299 5.737 4.75 8.75l-4.375-2.187s-.776 3.95-.938 3.75c-2.413-2.98-3.043-5.958-3.313-8.938z" fill="url(#h)" overflow="visible"/>
 <path d="M22.938 30.375c4.476.319 9.14 1.118 12.5-1.438.816 3.447 1.76 6.915-.5 9.875-4.44-.25-9.033-.214-12.188-2.874-.29-.246.313-5.626.188-5.563z" fill="url(#i)" overflow="visible"/>
 <path transform="translate(0 -1004.4)" d="M27.135 1022.845s.597-4.382-3.571-3.791c-4.275.606-2.357 10.235-2.357 10.235s6.386 2.271 9.753-1.45c2.017-2.228-.241-6.367-3.825-4.994z" fill="url(#j)" overflow="visible"/>
 <path d="M11.49 16.813c0-.306-.111-13.27-.111-13.27 5.26.494 9.857 2.028 14.633 3.283-10.766-1.844-13.678 3.32-14.522 9.987z" fill="#fff" fill-opacity=".728" filter="url(#k)" overflow="visible"/>
 <path transform="translate(0 -1004.4)" d="M19.064 1017.238c-1.978.158-2.322 2.714-2.322 2.714-2.75-2.04-5.678 1.003-4.48 3.4 1.932 3.866 7.49 3.587 7.881 3.565-.27-2.648-.326-6.767 1.7-8.175-.228-.507-.583-.931-1.144-1.177-.645-.283-1.179-.364-1.635-.327z" fill="url(#l)" overflow="visible"/>
 <path d="M15.938 33.625c-1.411 1.895-3.798 3.205-6 4.625l4.25.125-.563 4.125c1.823-2.098 4.114-3.54 5.188-6.688l-2.875-2.187z" fill="url(#m)" overflow="visible"/>
 <path d="M15.5 28.75c-3.147-1.55-6.417-3.02-8.438-5.375-1.275 2.688-.465 5.375-.375 8.063 2.277 2.016 5.856 2.357 9.25 2.937L15.5 28.75z" fill="url(#n)" overflow="visible"/>
 <path transform="translate(0 -1004.4)" d="M15.25 1032.675c2.7-.233 5.378-.583 8.563 1.937l-.563 6.313c-2.708.208-5.73-.021-7.75-2-.184-.18-.188-6.063-.25-6.25z" fill="url(#o)" overflow="visible"/>
 <path d="M12.772 19.45c.175-1.51.241-3.055 2.475-4.11-.084-.149-3.687-.422-2.475 4.11z" fill="#fff" filter="url(#p)" overflow="visible"/>
 <path d="M17.015 15.385c.655-1.965 1.984-2.45 2.784-2.077-1.07.91-1.56.626-2.784 2.077z" fill="#fff" filter="url(#q)" overflow="visible"/>
 <path d="M25.456 15.296s-1.873-.844-2.961.31c-1.475 1.563-1.282 6.32-1.282 6.32s.442-6.718 4.243-6.63z" fill="#fff" filter="url(#r)" overflow="visible"/>
 <path d="M7.115 23.958c-.662 1.208-.392 2.416-.265 3.624-.227-.227 1.516-2.454 1.768-2.254.206.165-1.232-1.281-1.503-1.37z" fill="#fff" fill-opacity=".817" filter="url(#s)" overflow="visible"/>
 <path d="M15.468 28.555l.088 2.96c.3-1.403.649-2.765 2.564-2.784l-2.652-.176z" fill="#fff" fill-opacity=".817" filter="url(#t)" overflow="visible"/>
 <path d="M23.953 30.764l-.132 2.696c-.057-.34 1.176-2.135 2.475-2.298.236-.03-2.299-.442-2.343-.398z" fill="#fff" fill-opacity=".817" filter="url(#u)" overflow="visible"/>
 <path d="M13.877 36.112l1.503-1.414.972.84c-.57-.49-1.573.177-2.475.574z" fill="#fff" fill-opacity=".817" filter="url(#v)" overflow="visible"/>
 <path d="M21.169 36.863l-1.37-.133.53 2.431c.1-1.26.048-2.423.84-2.298z" fill="#fff" fill-opacity=".817" filter="url(#w)" overflow="visible"/>
</svg>
