<?xml version="1.0" encoding="UTF-8"?>
<svg width="48" height="48" xmlns="http://www.w3.org/2000/svg" xmlns:xlink="http://www.w3.org/1999/xlink">
 <defs>
  <linearGradient id="m" x1="519.05" x2="523.68" y1="876.24" y2="877.87" gradientTransform="matrix(1.1543 0 0 1.1543 -68.782 -145.54)" gradientUnits="userSpaceOnUse" xlink:href="#c"/>
  <linearGradient id="d">
   <stop stop-color="#fd0000" offset="0"/>
   <stop stop-color="#ff3e3e" offset="1"/>
  </linearGradient>
  <linearGradient id="p" x1="24.768" x2="19.146" y1="1031" y2="1023.4" gradientTransform="scale(2.4976) rotate(13.958 2532.2 675.37)" gradientUnits="userSpaceOnUse" xlink:href="#a"/>
  <linearGradient id="i" x1="30" x2="32" y1="39" y2="31" gradientTransform="translate(-2.5 1004.4)" gradientUnits="userSpaceOnUse" xlink:href="#a"/>
  <linearGradient id="j" x1="20" x2="19" y1="38" y2="30" gradientTransform="translate(-2.5 1004.4)" gradientUnits="userSpaceOnUse" xlink:href="#a"/>
  <linearGradient id="f" x1="13" x2="18" y1="32" y2="21" gradientTransform="translate(-2.5 1004.4)" gradientUnits="userSpaceOnUse" xlink:href="#a"/>
  <linearGradient id="c">
   <stop stop-color="#642e00" offset="0"/>
   <stop stop-color="#664532" offset="1"/>
  </linearGradient>
  <linearGradient id="g" x1="11" x2="24" y1="1018.4" y2="1027.4" gradientTransform="translate(-2.5)" gradientUnits="userSpaceOnUse">
   <stop stop-color="#e6e6e6" offset="0"/>
   <stop stop-color="#d5d5d5" offset="1"/>
  </linearGradient>
  <linearGradient id="n" x1="519.05" x2="523.68" y1="876.24" y2="877.87" gradientTransform="matrix(1.1543 0 0 1.1543 -81.043 -136.17)" gradientUnits="userSpaceOnUse" xlink:href="#c"/>
  <linearGradient id="q" x1="519.05" x2="523.68" y1="876.24" y2="877.87" gradientTransform="matrix(1.1543 0 0 1.1543 -79.55 -129.57)" gradientUnits="userSpaceOnUse" xlink:href="#c"/>
  <linearGradient id="k" x1="519.05" x2="523.68" y1="876.24" y2="877.87" gradientTransform="matrix(1.1543 0 0 1.1543 -72.322 -125.66)" gradientUnits="userSpaceOnUse" xlink:href="#c"/>
  <linearGradient id="l" x1="519.05" x2="523.68" y1="876.24" y2="877.87" gradientTransform="matrix(1.1543 0 0 1.1543 -72.216 -130.87)" gradientUnits="userSpaceOnUse" xlink:href="#c"/>
  <linearGradient id="h" x1="519.05" x2="523.68" y1="876.24" y2="877.87" gradientTransform="matrix(1.1543 0 0 1.1543 -64.622 -123.7)" gradientUnits="userSpaceOnUse" xlink:href="#c"/>
  <linearGradient id="a">
   <stop stop-color="#a20000" offset="0"/>
   <stop stop-color="#d40000" offset="1"/>
  </linearGradient>
  <linearGradient id="v" x1="38.939" x2="32.781" y1="25.857" y2="19.49" gradientUnits="userSpaceOnUse" xlink:href="#d"/>
  <linearGradient id="t" x1="32" x2="33" y1="1024.4" y2="1018.4" gradientTransform="translate(-2.5)" gradientUnits="userSpaceOnUse" xlink:href="#d"/>
  <linearGradient id="u" x1="42" x2="42" y1="1030.4" y2="1025.4" gradientTransform="translate(-2.5)" gradientUnits="userSpaceOnUse" xlink:href="#d"/>
  <linearGradient id="r" x1="833.89" x2="829.51" y1="607.69" y2="606.82" gradientTransform="rotate(52.196 -1.25 -2.552)" gradientUnits="userSpaceOnUse" xlink:href="#d"/>
  <linearGradient id="s" x1="417.7" x2="413.43" y1="944.73" y2="942.14" gradientTransform="rotate(21.91 -1.25 -6.458)" gradientUnits="userSpaceOnUse" xlink:href="#d"/>
  <filter id="w" x="-.146" y="-.115" width="1.292" height="1.231">
   <feGaussianBlur stdDeviation=".58"/>
  </filter>
  <filter id="o" x="-.498" y="-.192" width="1.997" height="1.385">
   <feGaussianBlur stdDeviation=".256"/>
  </filter>
  <filter id="z" x="-.258" y="-.308" width="1.516" height="1.616">
   <feGaussianBlur stdDeviation=".208"/>
  </filter>
  <filter id="x" x="-.113" y="-.174" width="1.225" height="1.348">
   <feGaussianBlur stdDeviation=".208"/>
  </filter>
  <filter id="y" x="-.173" y="-.156" width="1.345" height="1.311">
   <feGaussianBlur stdDeviation=".208"/>
  </filter>
  <filter id="A" x="-.286" y="-.286" width="1.572" height="1.572">
   <feGaussianBlur stdDeviation=".208"/>
  </filter>
  <filter id="e">
   <feGaussianBlur stdDeviation=".992"/>
  </filter>
 </defs>
 <g transform="translate(0 -1004.4)">
  <path transform="translate(0 1004.4)" d="M4.643 21.246c-.42 3.121 3.362 10.143 15.58 19.279 14.395-4.485 18.859-9.076 22.898-14.558-.55-14.95-28.013-13.77-38.478-4.721z" fill-opacity=".769" filter="url(#e)" overflow="visible"/>
  <path d="M6.5 1019.362c-.833.687-2.212 4.269-2 6 1 6 10 15 16 19l-1-3-13-22z" fill="url(#f)" overflow="visible"/>
  <path d="M18.5 1018.362s-6.29-7.528-11.991.25c-5.847 7.976 12.638 23.585 12.638 23.585s14.373-10.64 13.661-22.113c-.426-6.87-10.825-9.793-14.308-1.722z" fill="url(#g)" overflow="visible"/>
  <rect transform="rotate(29.966)" x="532.94" y="887.32" width="6.926" height="4.617" ry="1.154" fill="url(#h)"/>
  <path d="m20.185 1042 0.315 2.393c10.56-2.877 19-9 22-14 0.754-2.98 0.714-5.279 0-7l-22.315 18.607z" fill="url(#i)" overflow="visible"/>
  <path d="m14.5 1021.4v4c1 5 1 11 6 19v-3l-6-20z" fill="url(#j)" overflow="visible"/>
  <rect transform="rotate(29.966)" x="525.24" y="885.37" width="6.926" height="4.617" ry="1.154" fill="url(#k)"/>
  <rect transform="rotate(29.966)" x="525.35" y="880.16" width="6.926" height="4.617" ry="1.154" fill="url(#l)"/>
  <rect transform="rotate(29.966)" x="528.78" y="865.48" width="6.926" height="4.617" ry="1.154" fill="url(#m)"/>
  <rect transform="rotate(29.966)" x="516.52" y="874.86" width="6.926" height="4.617" ry="1.154" fill="url(#n)"/>
  <path d="M15.313 1026.425c.018 1.04-.398 1.995.374 3.187 0 0-2.5-.625-.374-3.187z" fill="#fff" fill-opacity=".763" filter="url(#o)" overflow="visible"/>
  <path d="m29.5 1019.4s-2.852-9.816-11.546-4.78c-8.917 5.164 2.19 27.794 2.19 27.794s18.166-4.137 22.288-15.383c2.469-6.735-6.23-13.875-12.932-7.63z" fill="url(#p)" overflow="visible"/>
  <rect transform="rotate(29.966)" x="518.01" y="881.45" width="6.926" height="4.617" ry="1.154" fill="url(#q)"/>
  <path d="m29.5 1026.4 1.019 1.314-4.019 4.686v-2l-2-1 5-3z" fill="url(#r)"/>
  <path d="m31.273 1027 1.542 0.62-1.315 6.755-1-2-1.542 0.38 2.315-5.755z" fill="url(#s)"/>
  <path d="m32.831 1025.4-5.688-3.557c-1.801-2.18 3.556-5.688 5.357-3.507l1.421 6.163-1.09 0.9z" fill="url(#t)" overflow="visible"/>
  <path d="M33.72 1027.104l.471-2.186c2.045-.079 4.018-.435 6.309.444 1.217.72-.444 6.31-2.879 4.87l-3.9-3.128z" fill="url(#u)" overflow="visible"/>
  <path transform="matrix(.875 .125 -.375 .82143 10.125 1002.3)" d="M40 23a4 4 0 11-8 0 4 4 0 018 0z" fill="url(#v)" fill-rule="evenodd"/>
  <path d="m24.5 1014.1c-3.513 1.736-7.929 3.466-9.313 11.813-0.156-1.53-2.04-14.042 9.313-11.813z" fill="#fff" fill-opacity=".71" filter="url(#w)" overflow="visible"/>
  <path d="M10.25 1017.3c.019 1.04-.397 1.995.375 3.187 0 0-2.5-.625-.375-3.187zM8.313 1023.925c.018 1.04-.398 1.995.374 3.187 0 0-2.5-.625-.374-3.187zM12.5 1031.05c.019 1.04-.397 1.995.375 3.187 0 0-2.5-.625-.375-3.187z" fill="#fff" fill-opacity=".763" filter="url(#o)" overflow="visible"/>
  <path d="M29.75 1025.425c1.445-.486 2.836-.21 4.438-2.875-1.843.114-3.688.5-4.438 2.875z" fill="#fff" fill-opacity=".714" filter="url(#x)" overflow="visible"/>
  <path d="M27.125 1021.362c-.2-.88.938-3.5 2.875-3.187-2.188 1.375-1.813 2.375-2.875 3.187z" fill="#fff" fill-opacity=".714" filter="url(#y)" overflow="visible"/>
  <path d="M36.813 1026.675l.312-1.625 1.625.437c-.768-.03-1.498.07-1.938 1.188z" fill="#fff" fill-opacity=".714" filter="url(#z)" overflow="visible"/>
  <path d="M27 1028.112l-1.75 1.125 1 .625c.006-.38-.206-.578.75-1.75z" fill="#fff" fill-opacity=".714" filter="url(#A)" overflow="visible"/>
 </g>
</svg>
