<?xml version="1.0" encoding="UTF-8"?>
<svg width="48" height="48" xmlns="http://www.w3.org/2000/svg" xmlns:xlink="http://www.w3.org/1999/xlink">
 <defs>
  <linearGradient id="h" x1="10" x2="10" y1="40" y2="31" gradientUnits="userSpaceOnUse" xlink:href="#b"/>
  <linearGradient id="g" x1="-1.836" x2="29.64" y1="1118.9" y2="1024.5" gradientTransform="matrix(.93566 0 0 .93566 3.679 70.03)" gradientUnits="userSpaceOnUse" xlink:href="#a"/>
  <linearGradient id="a">
   <stop stop-color="#ffea00" offset="0"/>
   <stop stop-color="#ffffa4" offset="1"/>
  </linearGradient>
  <linearGradient id="e" x1="63.083" x2="-25.443" y1="1067.8" y2="1032.3" gradientTransform="matrix(.93566 0 0 .93566 3.679 70.03)" gradientUnits="userSpaceOnUse" xlink:href="#a"/>
  <linearGradient id="d" x1="6.033" x2="76.854" y1="1061.9" y2="1093.3" gradientTransform="matrix(.93566 0 0 .93566 3.679 70.03)" gradientUnits="userSpaceOnUse" xlink:href="#a"/>
  <linearGradient id="b">
   <stop stop-color="#a20000" offset="0"/>
   <stop stop-color="#d40000" offset="1"/>
  </linearGradient>
  <linearGradient id="f" x1="-17.574" x2="-3.803" y1="1054" y2="1087.4" gradientTransform="matrix(.93566 0 0 .93566 3.679 70.03)" gradientUnits="userSpaceOnUse" xlink:href="#a"/>
  <linearGradient id="i" x1="38" x2="35" y1="37" y2="23" gradientUnits="userSpaceOnUse" xlink:href="#b"/>
  <filter id="j" x="-.103" y="-.19" width="1.206" height="1.381">
   <feGaussianBlur stdDeviation=".262"/>
  </filter>
  <filter id="k" x="-.093" y="-.119" width="1.185" height="1.238">
   <feGaussianBlur stdDeviation=".17"/>
  </filter>
  <filter id="l" x="-.104" y="-.379" width="1.209" height="1.758">
   <feGaussianBlur stdDeviation=".305"/>
  </filter>
  <filter id="m">
   <feGaussianBlur stdDeviation=".187"/>
  </filter>
  <filter id="c" x="-.069" y="-.277" width="1.139" height="1.553">
   <feGaussianBlur stdDeviation=".928"/>
  </filter>
 </defs>
 <path d="M35.531 37.531c-1.6.006-3.534.092-5.593.282-5.493.505-9.88 1.499-9.813 2.218.066.72 4.57.912 10.063.407 5.492-.506 9.878-1.5 9.812-2.22-.041-.449-1.802-.696-4.469-.687zm-25.25 2.594c-1.367-.052-2.292.164-2.437.656-.29.985 2.649 2.702 6.531 3.844 3.882 1.142 7.241 1.298 7.531.313.29-.986-2.618-2.733-6.5-3.876-1.94-.57-3.758-.885-5.125-.937z" fill-opacity=".769" fill-rule="evenodd" filter="url(#c)"/>
 <path transform="matrix(.50833 0 0 .50833 12.933 -510.77)" d="m8.798 1066.5c-0.05 0.151 5.867 11.815 22.323 12.222 16.557 0.409 26.06-13.333 26.06-13.333s-1.414 7.575-1.818 7.878-5.252 8.932-22.222 10.202c-16.969 1.27-23.03-7.07-23.13-7.576-0.101-0.505-1.162-9.545-1.213-9.393z" fill="url(#d)" overflow="visible"/>
 <path transform="matrix(.50833 0 0 .50833 12.933 -510.77)" d="m12.435 1078.2c-2.966-4.234-5.867-14.252 5.96-22.626 11.825-8.375 29.167-5.336 34.544-0.606 5.376 4.73 5.847 18.333-5.252 24.848 0 0 9.595-3.333 13.13-12.323 3.536-8.99-1.212-25.353-20.908-25.252-19.697 0.1-30.893 8.671-34.545 16.565s-1.497 16.244 7.07 19.394z" fill="url(#e)" overflow="visible"/>
 <path transform="matrix(.50833 0 0 .50833 12.933 -510.77)" d="m21.392 1038.7c-3.666-6.61-15.267-11.177-21.19 11.59-5.923 22.768 7.406 38.183 8.826 38.183 0.141 1.749-17.137-3.35-17.864-11.391-0.054-0.597-6.11-9.916-0.87-29.266s15.08-21.956 15.57-22.096c11.995-3.417 19.195 19.59 15.528 12.98z" fill="url(#f)" overflow="visible"/>
 <path transform="matrix(.50833 0 0 .50833 12.933 -510.77)" d="m2.848 1027.3c4.95-1.333 15.013 0.066 18.143 16.995 3.13 16.93-10.681 38.23-15.086 39.996-4.354 1.745-16.939-5.114-17.577-18.638 0 0-1.342 10.95 5.996 20.075s23.616 10.016 30.942-11.812c7.325-21.828 6.104-37.444 0.33-45.112-5.772-7.67-13.034-8.319-22.748-1.504z" fill="url(#g)" overflow="visible"/>
 <path d="M21 22c-11 0-8 13-20 12l3 2-2 4c6.875.687 9.957-5.713 12.844-9.781.005-.007-.005-.024 0-.032.114-.9.391-1.808.812-2.718.887-1.916 2.656-3.902 5.344-5.469z" fill="url(#h)" overflow="visible"/>
 <path d="M28.281 23.656c-.083 1.104-.26 2.249-.468 3.469C31.848 28.312 33.758 29.961 35 33c1.988 3.564.865 6.207 7 11l-1-5 5.469.906C44.656 39.312 40 35 39 32c-2.457-5.733-4.963-7.12-10.719-8.344zm-4.593 1.282c-.488.255-.962.56-1.407.875-.146.103-.268.207-.406.312.616.078 1.049.171 1.594.25.092-.478.16-.958.218-1.438z" fill="url(#i)" overflow="visible"/>
 <path d="M4 36c-.381-.746-2.157-1.683-2.054-1.751 2.569.231 4.381-.596 6.097-1.557C6.69 33.792 4.202 34.406 4 36z" fill="#fff" fill-opacity=".531" filter="url(#j)" overflow="visible"/>
 <path d="M40.995 38.854l4.41.714-4.28-3.438c.11.826 1.753 2.512-.13 2.724z" fill="#fff" fill-opacity=".313" filter="url(#k)" overflow="visible"/>
 <path d="M15.243 11.027c2.181-1.17 4.48-1.81 7.006-1.427-1.575.35-3.666.183-3.957 1.816l-3.049-.389z" fill="#fff" filter="url(#l)" overflow="visible"/>
 <path d="M21.47 22.443c-.948-.948-7.117 3.977-6.292 9.99.02-2.396 3.045-8.946 6.292-9.99z" fill="#fff" filter="url(#m)" overflow="visible"/>
</svg>
