<?xml version="1.0" encoding="UTF-8"?>
<svg width="48" height="48" xmlns="http://www.w3.org/2000/svg" xmlns:xlink="http://www.w3.org/1999/xlink">
 <defs>
  <radialGradient id="q" cx="-20.5" cy="5.25" r="5.5" gradientTransform="matrix(1.1818 1.2727 -.7328 .68045 7.574 27.769)" gradientUnits="userSpaceOnUse" xlink:href="#b"/>
  <radialGradient id="g" cx="20.165" cy="33.851" r="10.786" gradientTransform="matrix(1.5661 .07183 -.0241 .52541 -10.6 17.804)" gradientUnits="userSpaceOnUse" xlink:href="#d"/>
  <radialGradient id="x" cx="31.33" cy="2.342" r="4.152" gradientTransform="matrix(-1.5812 .97043 -.50762 -.82708 76.578 -25.823)" gradientUnits="userSpaceOnUse">
   <stop stop-color="#ffd73b" offset="0"/>
   <stop stop-color="#ee8400" offset="1"/>
  </radialGradient>
  <linearGradient id="i" x1="24" x2="22" y1="31" y2="21" gradientTransform="translate(0 -.092)" gradientUnits="userSpaceOnUse" xlink:href="#a"/>
  <linearGradient id="b">
   <stop stop-color="#ff5959" offset="0"/>
   <stop stop-color="#d90000" offset="1"/>
  </linearGradient>
  <linearGradient id="h" x1="35" x2="29" y1="39" y2="23" gradientTransform="translate(0 -.092)" gradientUnits="userSpaceOnUse" xlink:href="#a"/>
  <linearGradient id="a">
   <stop stop-color="#286325" offset="0"/>
   <stop stop-color="#7ed249" offset="1"/>
  </linearGradient>
  <linearGradient id="d">
   <stop stop-color="#520" offset="0"/>
   <stop stop-color="#b6632c" offset="1"/>
  </linearGradient>
  <linearGradient id="j" x1="31" x2="25" y1="23" y2="9" gradientTransform="translate(0 -.092)" gradientUnits="userSpaceOnUse" xlink:href="#a"/>
  <linearGradient id="f" x1="22.862" x2="23.096" y1="42.255" y2="34.986" gradientUnits="userSpaceOnUse" xlink:href="#d"/>
  <filter id="m" x="-.177" y="-.121" width="1.355" height="1.242">
   <feGaussianBlur stdDeviation=".213"/>
  </filter>
  <filter id="y">
   <feGaussianBlur stdDeviation=".131"/>
  </filter>
  <filter id="k" x="-.276" y="-.146" width="1.552" height="1.291">
   <feGaussianBlur stdDeviation=".382"/>
  </filter>
  <filter id="o" x="-.276" y="-.15" width="1.552" height="1.299">
   <feGaussianBlur stdDeviation=".382"/>
  </filter>
  <filter id="t" x="-.276" y="-.15" width="1.552" height="1.299">
   <feGaussianBlur stdDeviation=".382"/>
  </filter>
  <filter id="e" x="-.055" y="-.242" width="1.11" height="1.483">
   <feGaussianBlur stdDeviation=".805"/>
  </filter>
 </defs>
 <path transform="matrix(.6817 0 0 1.0581 7.813 -3.483)" d="M42 41a17.5 4 0 11-35 0 17.5 4 0 1135 0z" fill-opacity=".769" fill-rule="evenodd" filter="url(#e)"/>
 <g fill-rule="evenodd">
  <path transform="translate(-.41 .791)" d="M35.524 38.738c0 2.072-4.83 3.752-10.786 3.752-5.957 0-10.786-1.68-10.786-3.752 0-.132-.064-1.09-.026-1.219.561-1.889 5.233-2.533 10.812-2.533 5.596 0 10.321.612 10.858 2.51.035.122-.072 1.117-.072 1.242z" fill="url(#f)"/>
  <path transform="translate(-.469 -.147)" d="m35.524 38.738c0 2.072-4.83 3.752-10.786 3.752-5.957 0-10.786-1.68-10.786-3.752s4.829-3.752 10.786-3.752 10.786 1.68 10.786 3.752z" fill="url(#g)"/>
 </g>
 <path d="M12 23.908c-.806 4.032-4.79 5.574-7 8-1.132 10.924 42.913 9.61 39 1-2.535-2.52-7-5-8-9H12z" fill="url(#h)" overflow="visible"/>
 <path d="M17 15.908c-.906 3.427-4.918 4.749-7 7-3 9 33 8 28 0-2.163-2.17-6-3-7-7H17z" fill="url(#i)" overflow="visible"/>
 <path d="m24 3.908c-2.259 4.285-5.087 7.243-8 10-6 8 23 8 16 0-4.885-3.333-5.724-6.666-8-10z" fill="url(#j)" overflow="visible"/>
 <path d="M17.78 12.513a17.283 17.283 0 00-1.839 1.873c-.549.964-.779 1.946.354 3.004.908.689 1.686.983 2.51 1.414-1.925-2.099-2.212-4.192-1.026-6.291z" fill="#fff" fill-opacity=".607" filter="url(#k)" overflow="visible"/>
 <path transform="rotate(-12.337 44.591 -127.5) scale(.48839)" d="M-14 6.75a5.5 5.5 0 11-11 0 5.5 5.5 0 0111 0z" fill="url(#q)" fill-rule="evenodd"/>
 <path transform="translate(.293 .263)" d="M17.472 13.234c-.136-1.612.367-3.088 2.41-4.234 0 0-4.296.421-2.41 4.234z" fill="#fff" fill-opacity=".719" filter="url(#m)" overflow="visible"/>
 <path transform="rotate(-12.337 64.602 -175.55) scale(.48839)" d="M-14 6.75a5.5 5.5 0 11-11 0 5.5 5.5 0 0111 0z" fill="url(#q)" fill-rule="evenodd"/>
 <path transform="translate(11.02 3.429)" d="M17.472 13.234c-.136-1.612.367-3.088 2.41-4.234 0 0-4.296.421-2.41 4.234z" fill="#fff" fill-opacity=".719" filter="url(#m)" overflow="visible"/>
 <path d="M12.619 21.208c-.665.573-1.445 1.03-2.015 1.696-.549.965-.779 1.947.353 3.005.91.688 1.687.983 2.51 1.414-1.924-2.1-2.035-4.016-.848-6.115z" fill="#fff" fill-opacity=".607" filter="url(#o)" overflow="visible"/>
 <path transform="rotate(-12.337 84.409 -99.87) scale(.48839)" d="M-14 6.75a5.5 5.5 0 11-11 0 5.5 5.5 0 0111 0z" fill="url(#q)" fill-rule="evenodd"/>
 <path transform="translate(-4.69 9.408)" d="M17.472 13.234c-.136-1.612.367-3.088 2.41-4.234 0 0-4.296.421-2.41 4.234z" fill="#fff" fill-opacity=".719" filter="url(#m)" overflow="visible"/>
 <path transform="rotate(-12.337 114.16 -154.28) scale(.48839)" d="M-14 6.75a5.5 5.5 0 11-11 0 5.5 5.5 0 0111 0z" fill="url(#q)" fill-rule="evenodd"/>
 <path transform="translate(7.62 14.508)" d="M17.472 13.234c-.136-1.612.367-3.088 2.41-4.234 0 0-4.296.421-2.41 4.234z" fill="#fff" fill-opacity=".719" filter="url(#m)" overflow="visible"/>
 <path transform="rotate(-12.337 99.317 -192.1) scale(.48839)" d="M-14 6.75a5.5 5.5 0 11-11 0 5.5 5.5 0 0111 0z" fill="url(#q)" fill-rule="evenodd"/>
 <path transform="translate(15.359 10.463)" d="M17.472 13.234c-.136-1.612.367-3.088 2.41-4.234 0 0-4.296.421-2.41 4.234z" fill="#fff" fill-opacity=".719" filter="url(#m)" overflow="visible"/>
 <path transform="rotate(-12.337 136.23 -208.69) scale(.48839)" d="M-14 6.75a5.5 5.5 0 11-11 0 5.5 5.5 0 0111 0z" fill="url(#q)" fill-rule="evenodd"/>
 <path transform="translate(19.755 17.967)" d="M17.472 13.234c-.136-1.612.367-3.088 2.41-4.234 0 0-4.296.421-2.41 4.234z" fill="#fff" fill-opacity=".719" filter="url(#m)" overflow="visible"/>
 <path d="M7.847 29.903c-.664.573-1.445 1.03-2.015 1.696-.549.965-.779 1.947.354 3.005.908.688 1.686.983 2.51 1.414-1.925-2.1-2.035-4.016-.85-6.115z" fill="#fff" fill-opacity=".607" filter="url(#t)" overflow="visible"/>
 <path transform="rotate(-12.337 132.2 -64.796) scale(.48839)" d="M-14 6.75a5.5 5.5 0 11-11 0 5.5 5.5 0 0111 0z" fill="url(#q)" fill-rule="evenodd"/>
 <path transform="translate(-11.08 20.429)" d="M17.472 13.234c-.136-1.612.367-3.088 2.41-4.234 0 0-4.296.421-2.41 4.234z" fill="#fff" fill-opacity=".719" filter="url(#m)" overflow="visible"/>
 <path transform="rotate(-12.337 137.83 -116.87) scale(.48839)" d="M-14 6.75a5.5 5.5 0 11-11 0 5.5 5.5 0 0111 0z" fill="url(#q)" fill-rule="evenodd"/>
 <path transform="translate(.176 20.429)" d="M17.472 13.234c-.136-1.612.367-3.088 2.41-4.234 0 0-4.296.421-2.41 4.234z" fill="#fff" fill-opacity=".719" filter="url(#m)" overflow="visible"/>
 <path transform="rotate(-12.337 160.5 -171.77) scale(.48839)" d="M-14 6.75a5.5 5.5 0 11-11 0 5.5 5.5 0 0111 0z" fill="url(#q)" fill-rule="evenodd"/>
 <path transform="translate(12.427 24.005)" d="M17.472 13.234c-.136-1.612.367-3.088 2.41-4.234 0 0-4.296.421-2.41 4.234z" fill="#fff" fill-opacity=".719" filter="url(#m)" overflow="visible"/>
 <path transform="matrix(1 0 0 .91999 -2.872 3.084)" d="M29.369 6.673l-2.482-1.51-2.65 1.188.668-2.827-1.949-2.154 2.896-.237 1.446-2.52 1.12 2.681 2.843.597-2.203 1.893.31 2.889z" fill="url(#x)" fill-rule="evenodd"/>
 <path d="M24.469 2.344L23.5 3.813c.371-.274.701-.618 1.25-.626l-.281-.843zm-1.344 1.969l-2.688.156 1.625 1.562c-.376-.838.123-1.35 1.063-1.718z" fill="#fff" fill-opacity=".822" filter="url(#y)" overflow="visible"/>
</svg>
