<?xml version="1.0" encoding="UTF-8"?>
<svg width="48" height="48" xmlns="http://www.w3.org/2000/svg" xmlns:xlink="http://www.w3.org/1999/xlink">
 <defs>
  <filter id="c" x="-.079" y="-.214" width="1.158" height="1.428">
   <feGaussianBlur stdDeviation="1.303"/>
  </filter>
  <filter id="p" x="-.306" y="-.183" width="1.612" height="1.365">
   <feGaussianBlur stdDeviation=".333"/>
  </filter>
  <filter id="o" x="-.186" y="-.108" width="1.372" height="1.216">
   <feGaussianBlur stdDeviation=".333"/>
  </filter>
  <filter id="i" x="-.168" y="-.134" width="1.336" height="1.269">
   <feGaussianBlur stdDeviation=".385"/>
  </filter>
  <filter id="l" x="-.168" y="-.134" width="1.336" height="1.269">
   <feGaussianBlur stdDeviation=".385"/>
  </filter>
  <filter id="m" x="-.168" y="-.134" width="1.336" height="1.269">
   <feGaussianBlur stdDeviation=".385"/>
  </filter>
  <filter id="n">
   <feGaussianBlur stdDeviation=".333"/>
  </filter>
  <linearGradient id="g" x1="-83.482" x2="-124.59" y1="60.034" y2="111.27" gradientTransform="matrix(-.08157 .2288 .35076 .1447 -6.553 33.315)" gradientUnits="userSpaceOnUse" xlink:href="#a"/>
  <linearGradient id="f" x1="-129.18" x2="-76.631" y1="139.51" y2="42.507" gradientTransform="matrix(-.089 .24964 .32148 .13263 -6.553 33.315)" gradientUnits="userSpaceOnUse" xlink:href="#a"/>
  <linearGradient id="d" x1="-129.18" x2="-76.631" y1="139.51" y2="42.507" gradientTransform="matrix(.0969 .19286 -.24656 .13935 44.976 26.647)" gradientUnits="userSpaceOnUse" xlink:href="#a"/>
  <linearGradient id="e" x1="-83.482" x2="-124.59" y1="60.034" y2="111.27" gradientTransform="matrix(.08882 .17675 -.26902 .15204 44.976 26.647)" gradientUnits="userSpaceOnUse" xlink:href="#a"/>
  <linearGradient id="b">
   <stop stop-color="#ff5959" offset="0"/>
   <stop stop-color="#d90000" offset="1"/>
  </linearGradient>
  <linearGradient id="a">
   <stop stop-color="#286325" offset="0"/>
   <stop stop-color="#7ed249" offset="1"/>
  </linearGradient>
  <radialGradient id="k" cx="-20.5" cy="5.25" r="5.5" gradientTransform="matrix(1.1818 1.2727 -.7328 .68045 7.574 27.769)" gradientUnits="userSpaceOnUse" xlink:href="#b"/>
 </defs>
 <path d="M13.906 31.656l.719.657c-.391-.03-.777-.063-1.188-.063-3.969 0-7.187 1.467-7.187 3.25s2.644 2.298 3.75 7.688c3.21-5.356 10.625-5.905 10.625-7.688 0-.944-.906-1.78-2.344-2.375 2.084-6.192 7.179-2.097 11.844.531-.584.493-.906 1.059-.906 1.657 0 1.952 7.311 2.05 16.625 4.156-.708-2.106-.907-2.204-.907-4.157 0-1.952-3.498-3.53-7.843-3.53-2.778 0-5.223.649-6.625 1.624-9.417-8.883-11.894-2.98-16.563-1.75z" fill-opacity=".769" fill-rule="evenodd" filter="url(#c)"/>
 <g fill-rule="evenodd">
  <path transform="rotate(-12.336 20.602 15.514)" d="m22.79 7.112c-2.98 3.674-3.671 10.701 1.184 16.363-4.793-1.936-10.298 4.714-7.318 9.445-5.263-1.67-12.128 7.076-12.128 7.076s1.4-13.621-3.633-17.634c3.635-1.17 10.022-5.665 6.922-11.434 4.184 2.724 9.331 1.363 14.972-3.816z" fill="url(#d)"/>
  <path transform="rotate(-12.336 20.602 15.514)" d="M19.306 11.42a118.081 118.081 0 00-4.235 5.516c-1.87 2.604-3.881 5.682-5.464 8.828-1.453 2.889-2.545 5.836-2.834 8.526a117.54 117.54 0 004.762-7.282 119.322 119.322 0 004.963-9.057c1.212-2.476 2.176-4.717 2.808-6.53z" fill="url(#e)"/>
  <path transform="rotate(-12.336 26.197 34.802)" d="M17.537 6.161c4.184 4.029 6.087 12.488 1.024 20.12 5.549-3.083 13.26 4.191 10.342 10.406 6.162-2.83 15.847 6.793 15.847 6.793s-3.76-16.388 1.768-22.037c-4.606-.877-13.068-5.391-10.16-12.89-4.688 3.95-11.165 3.069-18.821-2.392z" fill="url(#f)"/>
  <path transform="rotate(-12.336 26.197 34.802)" d="m22.432 10.887a144.99 144.99 0 0 1 5.992 6.082c2.672 2.891 5.587 6.339 7.99 9.934 2.207 3.301 3.982 6.727 4.74 9.962a144.33 144.33 0 0 1-6.901-8.156c-2.779-3.533-5.314-7.07-7.414-10.288-1.85-2.834-3.363-5.42-4.407-7.534z" fill="url(#g)"/>
 </g>
 <path transform="rotate(-12.335 36.411 -148.47) scale(.91161)" d="M-14 6.75a5.5 5.5 0 11-11 0 5.5 5.5 0 1111 0z" fill="url(#k)" fill-rule="evenodd"/>
 <path d="m17.625 9.625c-3.548 1.168-5.055 3.541-4.938 6.875 0 0-3-6.5 4.938-6.875z" fill="#fff" fill-opacity=".811" filter="url(#i)" overflow="visible"/>
 <path transform="rotate(-12.336 61.377 -146.2)" d="M-14 6.75a5.5 5.5 0 11-11 0 5.5 5.5 0 1111 0z" fill="url(#k)" fill-rule="evenodd"/>
 <path transform="rotate(-12.336 54.228 -185.56)" d="M-14 6.75a5.5 5.5 0 11-11 0 5.5 5.5 0 1111 0z" fill="url(#k)" fill-rule="evenodd"/>
 <path d="m15.813 15.75c-3.549 1.168-5.055 3.541-4.938 6.875 0 0-3-6.5 4.938-6.875z" fill="#fff" fill-opacity=".811" filter="url(#l)" overflow="visible"/>
 <path d="m24 13.188c-3.548 1.167-5.055 3.54-4.938 6.874 0 0-3-6.5 4.938-6.875z" fill="#fff" fill-opacity=".811" filter="url(#m)" overflow="visible"/>
 <path d="M25.01 11.79l4.211-2.274c-.499 3.06 5.182 7.412 12.295 8.926.934.199-15.324-3.019-16.505-6.653z" fill="#fff" fill-opacity=".679" filter="url(#n)" overflow="visible"/>
 <path d="M4.21 26.358c1.604-.433 2.897-2.417 4.295-3.874-1.112 2.384-1.928 4.805-1.263 7.41-.758-1.305-1.409-2.663-3.031-3.536z" fill="#fff" fill-opacity=".679" filter="url(#o)" overflow="visible"/>
 <path d="M8.337 14.568c.878 1.232 1.171 2.698.926 4.38.525-1.41.953-3.206 1.684-3.79a3.51 3.51 0 01-2.61-.59z" fill="#fff" fill-opacity=".679" filter="url(#p)" overflow="visible"/>
</svg>
