<?xml version="1.0" encoding="UTF-8"?>
<svg width="256" height="256" xmlns="http://www.w3.org/2000/svg" xmlns:xlink="http://www.w3.org/1999/xlink">
 <defs>
  <linearGradient id="j" x1="571.75" x2="587.25" y1="259.36" y2="303.61" gradientUnits="userSpaceOnUse" xlink:href="#e"/>
  <linearGradient id="e">
   <stop stop-color="#404040" offset="0"/>
   <stop stop-color="#636363" offset="1"/>
  </linearGradient>
  <linearGradient id="i" x1="635.54" x2="655.92" y1="388.4" y2="388.4" gradientUnits="userSpaceOnUse">
   <stop stop-color="#ffdb00" offset="0"/>
   <stop stop-color="#f60" offset="1"/>
  </linearGradient>
  <linearGradient id="h" x1="569.93" x2="577.35" y1="328.64" y2="385.56" gradientUnits="userSpaceOnUse" xlink:href="#e"/>
  <radialGradient id="g" cx="168.57" cy="276.25" r="108.01" gradientTransform="matrix(.6353 .45673 -.48853 .67954 615.24 99.715)" gradientUnits="userSpaceOnUse">
   <stop stop-color="#fff000" offset="0"/>
   <stop stop-color="#fc0" offset="1"/>
  </radialGradient>
 </defs>
 <path d="m136.82 228.94c-8.68 1.056-23.621-45.707-30.964-50.456-8.115-5.249-57.052-2.427-61.126-11.191-3.686-7.93 33.769-37.655 36.016-46.105 2.485-9.341-15.285-55.62-8.208-62.203 6.402-5.957 45.492 20.525 54.223 20.051 9.651-0.523 51.487-31.403 59.936-26.707 7.643 4.248-7.126 50.267-3.977 58.425 3.48 9.017 42.897 37.903 41.042 47.388-1.679 8.582-47.514 5.07-54.3 10.585-7.5 6.096-23.047 59.047-32.642 60.213z"/>
 <path transform="translate(-453.1 -221.52)" d="m590.42 442.96c-8.68 1.056-20.621-42.207-27.964-46.956-8.115-5.249-55.552-0.927-59.626-9.691-3.686-7.93 33.769-32.655 36.016-41.105 2.485-9.341-16.285-53.12-9.208-59.703 6.402-5.957 41.492 22.025 50.223 21.551 9.651-0.523 45.487-31.903 53.936-27.207 7.643 4.248-8.126 46.267-4.977 54.425 3.48 9.017 44.397 33.403 42.542 42.888-1.679 8.582-46.514 6.57-53.3 12.085-7.5 6.097-18.047 52.547-27.642 53.713z" fill="url(#g)"/>
 <path d="m173.9 112.34c0 9.941-8.059 18-18 18s-18-8.059-18-18 8.059-18 18-18 18 8.059 18 18z"/>
 <path d="m171.4 112.09c0 8.422-6.94 15.25-15.5 15.25s-15.5-6.828-15.5-15.25 6.94-15.25 15.5-15.25 15.5 6.828 15.5 15.25z" fill="#fff"/>
 <path d="m164.9 113.04c0 4.86-4.03 8.8-9 8.8s-9-3.94-9-8.8 4.03-8.8 9-8.8 9 3.94 9 8.8z"/>
 <path d="m155.4 108.04c0 3.203-2.686 5.8-6 5.8s-6-2.597-6-5.8 2.686-5.8 6-5.8 6 2.597 6 5.8z" fill="#fff"/>
 <path d="M177.866 58.886c-14.544 3.89-26.191 15.076-39.326 22.39-5.244 3.343-11.994 7.55-17.987 3.548-14.035-6.022-26.054-17.2-41.093-20.657-5.098-.151-3.353 7.348-3.125 10.47 2.104 16.3 9.895 31.793 10.562 48.28-2.521 8.214-11.137 12.79-16.844 18.802-6.724 6.939-16.302 12.428-19.562 21.917.56 2.685 4.683 3.887 6.656 3.781 9.086-14.359 25.544-22.412 35.188-36.312 1.239-10.124-3.834-20.105-5.857-29.978-1.89-9.551-6.576-19.623-3.893-29.397 3.269-5.35 10.739-.76 14.875.875 12.522 5.622 23.553 15.356 36.687 19 11.234-2.908 20.062-11.546 30.026-17.2 5.458-3.894 12.432-6.992 17.63-10.113.036-2.434-.563-6.254-3.937-5.406z" fill="#fee800"/>
 <path d="M190.54 72.639c-19.639 5.052-39.269 11.79-59.77 21.156-.01-.333-2.156-1.544-2.153-1.884l-42.426 8.353c.47 1.418.648 3.534.98 4.926-3.639.954-7.137 2.379-11.366 5.104l1.77 5.663c4.275-2.918 7.517-3.02 11.293-2.439 2.092 7.755 7.83 14.687 27.142 18.74 18.138-10.71 18.723-19.547 17.08-28.665 17.61-10.615 32.807-21.532 57.44-25.125z"/>
 <path transform="translate(-453.1 -221.52)" d="M642.406 295.75c-19.639 5.052-39.623 11.79-60.125 21.156-.009-.333-.034-.66-.03-1l-41.72 7.469c.47 1.418.825 2.827 1.157 4.219-3.639.954-7.49 2.555-11.72 5.281l1.063 3.188c4.276-2.919 8.225-3.551 12-2.97 2.092 7.756 6.064 14.511 25.375 18.563 18.138-10.71 16.425-18.132 14.782-27.25 17.61-10.615 34.928-21.533 59.562-25.125l-.344-3.531z" fill="url(#h)"/>
 <path d="M155.685 161.136c-5.786 8.16-17.772 5.717-24.473 2.293-9.822-5.179-19.659 3.983-19.659 3.983l.63.66s8.007-5.592 17.252-.717c7.64 3.561 22.788 3.078 27.11-5.846z" font-family="Sans" font-weight="400" overflow="visible" style="block-progression:tb;text-indent:0;text-transform:none"/>
 <path d="M142.897 197.342s-12.75-2-15.25 3.25 10.75 14.25 11.5 21.25-2.25 14.75-2.25 14.75 5.956-1.09 11-8.75c6.75-10.25 9.75-23-5-30.5zM131.267 148.25s-.694-7.078 12.88-1.619c7.992 3.214 17.354-1.82 17.354-1.82-10.293 9.59-23.586 7.758-30.234 3.439zM130.17 148.49s-.259-7.107-12.981.12c-7.49 4.254-17.441.517-17.441.517 11.484 8.127 24.412 4.533 30.422-.637z"/>
 <path d="m137.9 199.84s-5.25-2.5-7.25 1.5 8.125 11.5 9.625 15.5c1.125-4-12.625-16.75-2.375-17zm-20.5-101.25-28.25 4.125c1.217 8.813 4.08 15.471 9.625 18.625-11.558-20.192 11.745-15.643 18.625-22.75z" fill="#fff"/>
 <path d="m187.9 158.84s2-3.5 7-0.5 10.602 8.947 6.5 14.75c-6.588 9.32-20.118-2.12-18.875-7.625l5.625-0.375s2 5 5 2.75-3.25-5.25-3.25-5.25-3.25-0.75-2-3.75z"/>
 <path transform="translate(-453.1 -221.52)" d="M642.75 380.737s.438-2.968 5.125.5c4.503 3.332 7.716 7.33 5.875 11.625-4.496 10.49-17.618-.246-16.375-5.75l2.5.125s4.291 8.217 7.75 3.875c4.04-5.07-3.5-8.25-3.5-8.25s-2.625.875-1.375-2.125z" fill="url(#i)"/>
 <path d="M88.54 64.338c16.487 16.422 69.658 14.059 75.661-1.414 3.198-8.24-1.06-12.374-8.839-11.314-7.778 1.061-9.663-24.88-34.648-20.506-14.78 2.588-11.04 19.354-25.456 19.8-10.642.328-12.374 11.313-6.717 13.434z"/>
 <path transform="translate(-453.1 -221.52)" d="m545.39 285.11c17.518 11.605 54.6 7.447 65.16 2.086 8.621-4.376 2.94-11.124-4.839-10.063-7.778 1.06-6.663-25.381-31.648-21.007-14.78 2.588-8.04 18.355-22.456 18.8-10.642 0.328-11.874 8.063-6.217 10.184z" fill="url(#j)"/>
 <path d="M116.384 47.593c-1.753.21-2.08 2.55-.877 3.67-4.156-.375-2.31 5.985.67 3.393.583-2.805 2.635-1.32 4.962-.342 1.802 1.647 10.96 1.447 9.358 4.465-.709 3.101 4.678 2.773 3.577-.185-.624-1.068 2.763-1.97 1.362-3.808-1.245-2.077-4.256-.216-3.577 1.939-4.171-1.6-10.808-3.371-14.967-5 2.255-.953 2.124-4.327-.508-4.132z" fill="#fff"/>
 <path d="M131.443 46.685c-2.274.088-2.242 3.408-.184 3.97-3.806 2.432-10.127 4.679-13.929 7.117 1.095-2.803-3.332-4.334-3.785-1.431-.702 2.564 3.917 1.59 2.1 3.692-.636 2.917 4.49 2.746 3.624-.138-2.041-2.01.793-2.746 2.706-4.027 2.428-.483 8.626-5.994 10.091-2.79 2.24 2.363 4.93-2.41 1.778-3.07-.983-.321.146-3.251-2.032-3.323a.687.687 0 00-.369 0z" fill="#fff"/>
</svg>
