<?xml version="1.0" encoding="UTF-8"?>
<svg width="256" height="256" xmlns="http://www.w3.org/2000/svg" xmlns:xlink="http://www.w3.org/1999/xlink">
 <defs>
  <radialGradient id="m" cx="476.56" cy="492.86" r="10.086" gradientTransform="matrix(1.3745 -.09683 .08729 1.239 -223.04 -69.689)" gradientUnits="userSpaceOnUse" xlink:href="#g"/>
  <radialGradient id="l" cx="168.57" cy="276.25" r="108.01" gradientTransform="matrix(.99972 .02347 -.0251 1.0693 6.538 -21.654)" gradientUnits="userSpaceOnUse" xlink:href="#a"/>
  <radialGradient id="n" cx="476.56" cy="492.86" r="10.086" gradientTransform="matrix(2.0793 .46304 -.4174 1.8743 -322.86 -638.88)" gradientUnits="userSpaceOnUse" xlink:href="#g"/>
  <radialGradient id="o" cx="476.56" cy="492.86" r="10.086" gradientTransform="matrix(2.2696 -.1445 .13026 2.0459 -698.69 -425.14)" gradientUnits="userSpaceOnUse" xlink:href="#g"/>
  <radialGradient id="p" cx="476.56" cy="492.86" r="10.086" gradientTransform="matrix(-1.3745 -.09683 -.08729 1.239 1016.1 -69.439)" gradientUnits="userSpaceOnUse" xlink:href="#g"/>
  <radialGradient id="q" cx="476.56" cy="492.86" r="10.086" gradientTransform="matrix(-2.0793 .46304 .4174 1.8743 1115.9 -638.62)" gradientUnits="userSpaceOnUse" xlink:href="#g"/>
  <radialGradient id="r" cx="476.56" cy="492.86" r="10.086" gradientTransform="matrix(-2.2696 -.1445 -.13026 2.0459 1491.7 -424.89)" gradientUnits="userSpaceOnUse" xlink:href="#g"/>
  <radialGradient id="s" cx="419.75" cy="476.8" r="21" gradientTransform="matrix(1 0 0 .42 11.5 273.21)" gradientUnits="userSpaceOnUse" xlink:href="#a"/>
  <radialGradient id="t" cx="419.75" cy="476.8" r="21" gradientTransform="matrix(-1 0 0 .42 788.94 275.21)" gradientUnits="userSpaceOnUse" xlink:href="#a"/>
  <radialGradient id="u" cx="449.42" cy="440.3" r="20.453" gradientTransform="matrix(.78687 -.23962 .11539 .3789 33.883 378.95)" gradientUnits="userSpaceOnUse" xlink:href="#h"/>
  <radialGradient id="v" cx="421.71" cy="438.45" r="7.684" gradientTransform="matrix(1 0 0 1.1461 -3.89 -59.992)" gradientUnits="userSpaceOnUse" xlink:href="#h"/>
  <radialGradient id="w" cx="404" cy="442.17" r="20.539" gradientTransform="matrix(-1.2294 -1.5337 1.0511 -.84252 435.92 1438.5)" gradientUnits="userSpaceOnUse" xlink:href="#h"/>
  <radialGradient id="x" cx="453.6" cy="455.36" r="22.636" gradientTransform="matrix(1 0 0 .41583 -3.89 262.7)" gradientUnits="userSpaceOnUse" xlink:href="#h"/>
  <radialGradient id="y" cx="406.88" cy="528.66" r="32.439" gradientTransform="matrix(.6812 .00545 -.0045 .56298 129.68 227.14)" gradientUnits="userSpaceOnUse">
   <stop stop-color="#d40000" offset="0"/>
   <stop stop-color="#ff0d00" offset="1"/>
  </radialGradient>
  <linearGradient id="a">
   <stop stop-color="#fff000" offset="0"/>
   <stop stop-color="#fc0" offset="1"/>
  </linearGradient>
  <linearGradient id="g">
   <stop stop-color="#ffdb00" offset="0"/>
   <stop stop-color="#f60" offset="1"/>
  </linearGradient>
  <linearGradient id="h">
   <stop stop-color="#e82ae8" offset="0"/>
   <stop stop-color="#ab378e" offset="1"/>
  </linearGradient>
 </defs>
 <path d="m198.33 203.71c-7.514 6.764-50.84-28.094-60.876-26.887-9.892 1.189-45.777 47.929-54.404 42.947-8.754-5.056 13.196-58.774 8.947-67.948-4.187-9.04-56.389-27.864-54.317-37.609 2.103-9.888 59.267-5.344 66.678-12.22 7.303-6.776 5.748-64.764 15.656-65.805 10.054-1.055 26.273 56.637 35.103 61.561 8.7 4.852 60.213-12.097 64.264-2.995 4.11 9.236-43.586 38.685-45.54 48.603-1.927 9.775 31.893 53.687 24.489 60.353z"/>
 <path d="M144.233 63.622s-.094-1.376 6.252-10.424c6.346-9.05 24.6-2.867 24.6-2.867s.126 7.965-6.98 10.567c-7.105 2.601-20.753 13.39-23.872 2.724z"/>
 <path transform="matrix(.779 -.07332 .07332 .779 -11.003 -63.241)" d="M228 358.362c-10.37 7.707-55.574-43.113-68.49-42.78-12.728.328-54.402 53.587-64.783 46.215-10.534-7.482 23.83-66.177 19.522-78.358-4.245-12.004-67.776-35.18-63.972-47.331 3.86-12.33 70.302 2.214 80.556-5.647 10.104-7.747 12.514-75.33 25.246-75.468 12.92-.139 19.618 67.546 30.263 74.868 10.49 7.216 75.51-11.376 79.575.69 4.125 12.244-58.176 39.53-61.851 51.918-3.621 12.207 34.153 68.299 23.934 75.893z" fill="url(#l)"/>
 <path d="M121.786 47.093c-5.007 3.714-4.42 11.326-5.752 16.926-2.422 13.876-1.073 28.767-6.411 41.941-4.552 5.824-13.553 4.194-20.097 5.232-13.65 1.228-28.242-.779-41.215 3.991-4.364 1.994.28 6.55 2.868 7.797 1.882.98 4.024-2.307 6.428-2.08 17.934-4.044 36.93-.198 54.624-5.235 5.351-4.525 4.115-13.134 5.577-19.452 2.038-13.155.892-27.523 6.69-39.645.551-2.647 5.755-1.771 3.039-4.398-1.345-1.841-2.987-5.433-5.751-5.077z" fill="#fee800"/>
 <path d="m203.18 106.08s-2.171-2.083 1.153-4.725c5.118-4.068 15.94-1.215 16.387 4.317 0.316 3.912 1.102 5.604-2.148 9.258-5.24 5.891-17.344 2.445-17.138 0.902l3.91-3.741c-0.078 0.135 5.685 2.336 9.564-2.143 0.925-1.07-1.78-5.692-4.848-4.338s-2.298 1.992-6.88 0.47z"/>
 <path transform="rotate(-5.377 -3745.8 3152.8)" d="M473.762 488.445s-2.156-.352 1.414-2.652c3.583-2.308 11.248.141 12.02 5.126.601 3.88.75 4.092-2.828 7.425-5.768 5.375-14.138 1.163-13.788-.354l1.767-1.06c-.368.462 6.248 4.542 12.375-1.768.985-1.015-2.298-8.662-5.48-7.601-3.182 1.06-1.061 2.828-5.48.884z" fill="url(#m)"/>
 <path d="M193.742 114.45s-3.93-4.424 2.16-6.872c9.38-3.77 23.048 4.806 21.27 13.2-1.258 5.936.535 8.304-5.892 12.284-10.363 6.418-27.433-3.436-26.446-5.63l7.443-3.82c-.188.205 6.358 8.64 15.117 1.046 1.652-1.433-.124-9.219-5.268-8.567-5.144.653-2.266 2.635-8.384-1.642z"/>
 <path transform="rotate(-5.377 -3745.8 3152.8)" d="M463.3 495.595s-3.038-1.472 3.266-3.304c6.327-1.84 16.605 5.172 15.55 12.9-.822 6.013-.697 6.393-7.468 9.753-10.92 5.419-21.109-3.632-19.921-5.724l2.734-1.676c-.75.522 7.253 9.487 19.115 2.841 1.907-1.068.417-13.848-4.766-13.68-5.182.167-2.82 3.722-8.51-1.11z" fill="url(#n)"/>
 <path d="m176.84 124.98s-4.292-3.464 1.224-7.788c8.493-6.657 24.004-1.837 24.68 7.298 0.478 6.46 2.235 7.541-3.168 13.535-8.714 9.666-26.376 5.807-26.018 3.263l4.508-6.478c-0.132 0.266 9.092 6.965 15.81-3.43 1.266-1.96-2.873-9.415-7.953-7.214s-1.538 3.376-9.083 0.813z"/>
 <path transform="rotate(-5.377 -3745.8 3152.8)" d="M445.138 503.809s-3.554-.605 2.363-4.36c5.94-3.77 18.564.358 19.783 8.594.949 6.41 1.19 6.762-4.75 12.223-9.581 8.807-22.723 2.563-22.129.064l2.304-2.532c-.613.759 10.262 7.566 20.443-2.78 1.638-1.663-3.696-14.322-8.96-12.607-5.263 1.715-1.782 4.657-9.054 1.398z" fill="url(#o)"/>
 <path d="M54.321 120.336s1.744-2.452-2.014-4.427c-5.788-3.042-15.887 1.78-15.294 7.298.42 3.903-.037 5.712 3.837 8.695 6.247 4.81 17.496-.834 17.006-2.31l-4.539-2.947c.101.119-5.15 3.355-9.796-.321-1.109-.878.686-5.924 3.953-5.166 3.267.757 2.63 1.528 6.847-.822z"/>
 <path transform="rotate(-5.377 -3745.8 3152.8)" d="M319.276 488.695s2.155-.352-1.414-2.652c-3.583-2.308-11.249.141-12.021 5.126-.6 3.88-.749 4.092 2.828 7.425 5.769 5.375 14.139 1.163 13.789-.354l-1.768-1.06c.368.462-6.248 4.542-12.374-1.768-.985-1.015 2.298-8.662 5.48-7.601 3.182 1.06 1.06 2.828 5.48.884z" fill="url(#p)"/>
 <path d="M65.152 126.803s3.036-5.079-3.405-6.348c-9.917-1.953-21.746 9.022-18.433 16.936 2.344 5.598 1.024 8.26 8.08 10.97 11.38 4.372 26.31-8.494 24.932-10.466l-8.025-2.363c.223.165-4.635 9.675-14.656 3.847-1.89-1.099-1.599-9.08 3.577-9.399 5.175-.319 2.717 2.166 7.93-3.177z"/>
 <path transform="rotate(-5.377 -3745.8 3152.8)" d="M329.737 495.845s3.038-1.472-3.266-3.304c-6.327-1.84-16.605 5.172-15.549 12.9.822 6.013.696 6.393 7.468 9.753 10.919 5.419 21.108-3.632 19.92-5.724l-2.733-1.676c.75.522-7.254 9.487-19.115 2.841-1.908-1.068-.418-13.848 4.765-13.68 5.183.167 2.82 3.722 8.51-1.11z" fill="url(#q)"/>
 <path d="m83.72 134s3.57-4.203-2.657-7.422c-9.585-4.956-23.925 2.674-22.885 11.774 0.736 6.437-0.788 7.826 5.638 12.707 10.364 7.87 26.996 0.783 26.17-1.65l-5.638-5.522c0.18 0.236-7.632 8.538-16.171-0.42-1.61-1.69 1.065-9.785 6.466-8.571s2.141 3.03 9.076-0.896z"/>
 <path transform="rotate(-5.377 -3745.8 3152.8)" d="M347.9 504.059s3.553-.605-2.364-4.36c-5.939-3.77-18.564.358-19.783 8.594-.948 6.41-1.19 6.762 4.751 12.223 9.581 8.807 22.723 2.563 22.128.064l-2.304-2.532c.613.759-10.261 7.566-20.443-2.78-1.637-1.663 3.697-14.322 8.96-12.607 5.264 1.715 1.782 4.657 9.055 1.398z" fill="url(#r)"/>
 <path d="M155.176 81.71c-5.764.834-11.286 5.454-15.229 17.284.29.056-.156.345.132.396 21.51 21.4 42.093-4.652 42.093-4.652l-.071-.088c-.573-.124-1.804-1.08-3.494-2.433.447-1.833 2.465-2.52 3.794-3.715-1.849.639-3.909.833-5.254 2.534-.342-.271-.65-.528-1.019-.814 1.15-2.433 4.37-3.73 6.6-5.58-2.763 1.412-6.46 1.334-8.185 4.41-5.286-3.935-12.488-8.337-19.367-7.342z"/>
 <path d="M142.385 98.218c9.37 4.392 22.147 1.646 36.34-3.42.037-.513-14.575 24.072-36.34 3.42z" fill="#fff"/>
 <path d="m166.73 98.124c0.372 3.952-2.42 7.447-6.234 7.806s-7.208-2.554-7.58-6.506 2.419-7.447 6.233-7.806c3.815-0.359 7.209 2.554 7.58 6.506z"/>
 <path transform="rotate(-5.377 -3745.8 3152.8)" d="M410.875 475.404c15.996 4.658 25.06 1.58 37.875-.125-3.42-.609-23.03-29.426-37.875.125z" fill="url(#s)"/>
 <path d="M104.463 88.492c5.819-.256 12.106 3.253 18.187 14.14-.275.108.218.309-.056.412-17.14 25.039-42.222 3.284-42.222 3.284l.054-.1c.54-.229 1.57-1.398 2.978-3.042-.78-1.717-2.892-2.015-4.42-2.942 1.935.283 3.995.089 5.635 1.51.285-.33.54-.64.848-.99-1.584-2.176-4.988-2.85-7.525-4.252 2.978.873 6.595.106 8.864 2.807 4.46-4.853 10.713-10.522 17.657-10.827z"/>
 <path d="M120.11 102.324c-8.386 6.062-21.451 5.748-36.34 3.42-.132-.498 18.81 20.93 36.34-3.42z" fill="#fff"/>
 <path d="m96.171 106.77c0.372 3.952 3.766 6.865 7.58 6.506 3.815-0.36 6.606-3.854 6.234-7.806s-3.766-6.865-7.58-6.506c-3.815 0.36-6.606 3.854-6.234 7.806z"/>
 <path transform="rotate(-5.377 -3745.8 3152.8)" d="M389.562 477.404c-15.995 4.658-25.06 1.58-37.875-.125 3.42-.609 23.031-29.426 37.875.125z" fill="url(#t)"/>
 <path transform="rotate(-5.377 -3745.8 3152.8)" d="M418.25 441.208s-.363-.193 6.803-8.608c7.165-8.414 21.265-.547 21.265-.547s-.713 6.145-8.03 8.07c-7.319 1.924-17.932 11.996-20.038 1.085z" fill="url(#u)"/>
 <path d="M135.267 62.713s-1.31-5.903 1.833-7.203c3.142-1.3 12.28-2.914 13.115 3.285.835 6.2.791 13.736-3.83 12.665-4.62-1.072-6.152 1.332-11.118-8.747z"/>
 <path transform="rotate(-5.377 -3745.8 3152.8)" d="M407.74 439.97s-.397-5.115 2.853-6.115 10.556-2.28 10.806 3.97.383 10.921-4.117 9.421-5.542 3.225-9.542-7.275z" fill="url(#v)"/>
 <path d="m106.37 78.381c11.374 3.276 22.892 6.2 39.599-3.476 2.336-0.735-14.172-53.084-24.644-48.403-15.375 6.871-19.295 47.63-14.955 51.88z"/>
 <path transform="rotate(-5.377 -3745.8 3152.8)" d="M379.25 450.612c11.016 4.328 18.71 8.318 36.25.25 2.395-.513-7.91-50.207-18-44.75-14.49 7.838-21.765 40.542-18.25 44.5z" fill="url(#w)"/>
 <path d="m147.1 63.057s6.114-4.837 18.115-5.612c12.001-0.774 27.021 11.662 27.021 11.662s-10.9 4.932-22.097 6.696c-11.198 1.764-26.798-1.74-23.04-12.746z"/>
 <path transform="rotate(-5.377 -3745.8 3152.8)" d="M421.259 442.66s6.01-3.89 18.031-3.536c12.02.353 21.037 11.314 21.037 11.314s-6.896 3.52-18.208 4.242c-9.468.605-20.7-.858-21.448-7.919.543-4.539 23.302-1.181 23.187-.61.52-1.7-21.867-4.6-23.114-1.504.1-.627.27-1.289.515-1.988z" fill="url(#x)"/>
 <path d="m102.92 152.09c12.782-11.443 9.755-23.37 27.383-20.333 25.319-9.999 24.644 9.044 37.043 12.494-15.649 21.904-39.68 32.636-64.426 7.839z"/>
 <path transform="rotate(-5.377 -3745.8 3152.8)" d="M408.344 508.594c-2.973-.05-6.754.516-11.656 1.937-17.267-4.675-12.89 5.555-26.688 15.75 22.022 22.611 41.071 15.833 58.875-1.937-9.767-3.735-7.648-15.533-20.531-15.75zm-2.813 4.187c6.34-.1 8.188 8.819 21.031 11.719-19.861 8.856-27.625 17.22-53.03 1.25 13.975-2.063 10.313-16.173 25.28-10.438 2.82-1.774 4.944-2.503 6.72-2.53z" fill="url(#y)"/>
 <path d="M140.268 136.755c-.39.043-.848.127-1.326.25l.468 6.642c1.964-.035 3.896.048 5.792.177l-.372-5.96c-1.396-.833-2.779-1.305-4.562-1.109zm-2.756.73a17.594 17.594 0 00-4.442 2.49c-.606-.168-1.161-.288-1.702-.404l.324 4.772c2.134-.351 4.19-.559 6.216-.648l-.396-6.21zm-10.451 1.675a7.115 7.115 0 00-2.423.605l.421 6.143c1.76-.53 3.476-.975 5.15-1.3l-.344-5.335a13.13 13.13 0 00-2.804-.113zm-3.85 1.46c-1.771 1.411-2.855 3.626-4.564 5.86l.19 1.678a59.178 59.178 0 014.758-1.798l-.383-5.74zm23.158-1.74l.32 5.056c1.45.124 2.88.265 4.31.441l-.654-2.606c-1.57-1.037-2.824-2.052-3.976-2.89zm4.751 8.122c-1.384.384-2.757.76-4.133 1.111l.285 4.023c1.526-.838 3.07-1.771 4.73-2.768l-.882-2.366zm-31.8 3.621l-1.06 3.741a57.44 57.44 0 005.957 1.605l-.298-4.837a40.367 40.367 0 01-4.6-.509zm26.194-2.151c-1.912.47-3.832.889-5.72 1.26l.403 5.612c1.877-.637 3.722-1.464 5.609-2.443l-.292-4.43zm-20.116 2.709l.353 5.083c1.874.325 3.613.483 5.259.51l-.384-5.74a53.284 53.284 0 01-5.228.147zm12.95-1.156c-2.1.38-4.174.664-6.228.869l.395 5.863c2.191-.08 4.225-.376 6.19-.927l-.358-5.805z" fill="#fff"/>
</svg>
