<?xml version="1.0" encoding="UTF-8"?>
<svg width="256" height="256" xmlns="http://www.w3.org/2000/svg" xmlns:xlink="http://www.w3.org/1999/xlink">
 <defs>
  <radialGradient id="o" cx="534.16" cy="703.67" r="30.919" gradientTransform="matrix(.99535 -.09627 .0931 .96249 -58.678 375.79)" gradientUnits="userSpaceOnUse" xlink:href="#d"/>
  <radialGradient id="l" cx="458.19" cy="695.88" r="29.144" gradientTransform="matrix(.99535 -.09627 .10362 1.0713 -65.969 300.41)" gradientUnits="userSpaceOnUse" xlink:href="#d"/>
  <radialGradient id="n" cx="485.97" cy="1008.6" r="17.128" gradientTransform="matrix(.99535 -.09627 .07734 .79956 -71.596 -66.04)" gradientUnits="userSpaceOnUse" xlink:href="#d"/>
  <radialGradient id="m" cx="168.57" cy="276.25" r="108.01" gradientTransform="matrix(.99972 .02347 -.0251 1.0693 6.538 -21.654)" gradientUnits="userSpaceOnUse">
   <stop stop-color="#fff000" offset="0"/>
   <stop stop-color="#fc0" offset="1"/>
  </radialGradient>
  <linearGradient id="d">
   <stop stop-color="#d40000" offset="0"/>
   <stop stop-color="#ff0d00" offset="1"/>
  </linearGradient>
 </defs>
 <path d="m116.28 164.84s-13.705-11.86-28.262-14.345-25.405-9.474-23.319 3.009c2.087 12.482 14.356 10.793 5.498 26.97-8.86 16.179-11.61 35.785 6.059 26.29 17.668-9.496 31.166-21.852 36.789-22.145 5.622-0.293 7.706-17.7 3.235-19.779z"/>
 <path transform="translate(-356 -822.36)" d="m469.55 987.59s-11.297-10.336-25.854-12.82c-14.557-2.486-22.058-9.923-19.971 2.559 2.086 12.482 13.175 10.28 4.317 26.457-8.859 16.178-10.786 31.309 6.882 21.814s25.912-20.34 31.535-20.632c2.071-0.108 3.642-2.212 4.578-4.93 0.585-2.746-24.241-4.169-24.198-4.065 0.131-0.725 24.876-0.465 24.93 1.822 1.107-4.462 0.326-9.022-2.219-10.205z" fill="url(#l)"/>
 <path d="m174 202.09c-7.109 5.092-40.427-27.835-49.148-28.478-9.64-0.71-52.867 26.206-60.648 20.473-7.04-5.188 13.968-48.327 11.884-56.819-2.303-9.387-39.45-41.082-36.401-50.254 2.758-8.298 48.908-3.946 56.34-8.552 8.217-5.091 26.045-51.469 35.71-51.404 8.744 0.06 17.787 47.546 24.465 53.192 7.38 6.24 54.866 9.919 57.79 19.131 2.647 8.334-36.061 30.496-39.367 38.592-3.654 8.948 7.233 58.49-0.625 64.119z"/>
 <path transform="scale(.78243) rotate(5.688 1289.9 225.14)" d="M228 358.362c-8.396 7.376-52.206-29.648-63.378-29.36-12.349.317-59.273 39.101-69.895 32.795-9.61-5.706 12.065-58.813 8.34-69.35-4.12-11.646-55.505-44.288-52.79-56.34 2.457-10.902 59.662-6.699 68.532-13.498 9.804-7.516 24.97-66.474 37.27-67.616 11.127-1.032 24.808 54.672 34.015 61.006 10.178 7.002 70.937 3.206 75.823 14.552 4.421 10.264-44.33 40.489-47.508 51.203-3.514 11.842 18.871 68.455 9.591 76.608z" fill="url(#m)"/>
 <path d="M132.535 34.75c-5.77.258-8.301 7.714-11.484 11.774-7.91 12.138-12.505 26.769-22.41 37.4-9.26 4.035-20.123 1.132-29.96 1.654-7.973.366-16.945-1.534-24.07 2.636-1.794 2.886 1.73 7.302 3.126 8.587 5.519-5.273 14.427-3.342 21.46-3.926 10.922-.413 22.4 2.159 33-.982 9.092-9.472 13.335-22.742 20.306-33.816 4.007-5.69 7.03-14.551 14.54-16.071.931-.873-1.915-4.624-2.994-6.13-.428-.455-.917-.917-1.514-1.126zm74.501 63.407c-16.205-6.717-34.543-6.284-51.056-11.997 1.034 5.544 5.813 8.499 11.05 9.158 14.046 3.442 28.874 4.534 42.663 8.99 2.416-2.694.045-5.034-2.657-6.151zm-126.23 42.691c-2.995 15.694-12.473 30.147-13.027 46.277.368 3.581 5.293 3.097 4.434-.869 3.178-13.464 10.761-26.053 11.915-39.847-.508-2.088-2.096-4.137-3.322-5.56z" fill="#fee800"/>
 <path d="m117.13 162.04s6.962 1.605 16.471-0.674c13.07-3.133 12.873-0.743 11.51 7.203-1.362 7.946-0.25 12.101-1.635 16.142-1.385 4.042-2.109 2.379-14.88 2.548-12.77 0.17-17.915-0.086-13.885-6.159s-4.189-10.251 2.419-19.06z"/>
 <path transform="translate(-356 -514.09)" d="M497.969 675.406c-1.559.085-4.135.646-8.219 1.625-9.51 2.28-15.594.594-15.594.594-6.607 8.809 2.874 11.27-1.156 17.344-4.03 6.073-.833 4.576 11.938 4.406 12.77-.17 11.52 3.104 12.906-.938 1.385-4.04-.207-7.616 1.156-15.562.937-5.463 2.397-7.655-1.031-7.469zm-6.469 4.625c1.31-.025 2.072.364 1.719 1.469-1.414 4.42-11.794 17.52-10.438 15.031 2.463-4.519 15.982-18.434-4.25-12.531 0 0 9.041-3.894 12.969-3.969z" fill="url(#n)"/>
 <path d="M145.057 165.07s14.554-11.83 22.091-15.7c7.538-3.868 36.841-15.116 33.497 3.542-3.344 18.66-10.753 21.26-1.09 28.99 9.665 7.73.437 26.582-11.19 18.036-11.626-8.545-46.102-17.015-46.102-17.015s-3.54-17.114 2.794-17.852z"/>
 <path transform="translate(-356 -822.36)" d="M502.51 988.171s13.992-11.148 21.53-15.017c7.537-3.869 34.019-15.723 30.674 2.935-3.344 18.659-10.612 20.115-.948 27.846 9.664 7.73 1.921 25.056-9.706 16.511-11.626-8.545-44.637-16.153-44.637-16.153s-.558-2.645-.76-5.795c-2.054-.674 13.98-10.22 38.294-8.82-7.995-5.669-37.925 2.426-38.346 5.65.14-3.527 1.05-6.825 3.9-7.157z" fill="url(#o)"/>
 <path d="M112.5 91.5a15 15 0 11-30 0 15 15 0 1130 0z"/>
 <path d="M111.616 91.677a14.116 14.116 0 11-28.232 0 14.116 14.116 0 1128.232 0z" fill="#fff"/>
 <path d="M104.015 90.616a7.752 7.752 0 11-15.505 0 7.752 7.752 0 1115.505 0z"/>
 <path d="M94.115 86.02a3.863 3.863 0 11-7.726 0 3.863 3.863 0 117.726 0z" fill="#fff"/>
 <path d="M167 92.5a15 15 0 11-30 0 15 15 0 1130 0z"/>
 <path d="M166.116 92.677a14.116 14.116 0 11-28.232 0 14.116 14.116 0 1128.232 0z" fill="#fff"/>
 <path d="M158.515 91.616a7.752 7.752 0 11-15.505 0 7.752 7.752 0 1115.505 0z"/>
 <path d="M148.615 87.02a3.863 3.863 0 11-7.726 0 3.863 3.863 0 117.726 0z" fill="#fff"/>
 <path d="M121.31 100.646c-15.02 8.109-35.274 36.451-13.5 40.639 1.719-.214 2.342-.107.624-1.293-18.997-4.97 5.917-35.061 13.192-38.393.92-.616.641-.927-.316-.953z" font-family="Sans" font-weight="400" overflow="visible" style="block-progression:tb;text-indent:0;text-transform:none"/>
 <path d="M89.125 147.875c22.206-4.021 45.167-.772 66.5-8.75 0 0-1.134 11.667-18.5 18.125-11.806 4.39-14.062-4.426-20.625-5.625-7.24-1.323-20.656-2.371-26.63-2.626-2.007-.086-.745-1.124-.745-1.124z"/>
 <path d="M152.25 140.75c-1.128.516-2.445.969-3.906 1.406l.562 3.28a49.139 49.139 0 003.281-1.624l.063-3.063zm-4.531 1.593c-1.25.354-2.57.7-4 1l.656 3.844c1.251-.408 2.55-.863 3.875-1.438l-.531-3.406zm-4.625 1.125c-1.448.292-2.979.54-4.563.781l.719 4.282a44.153 44.153 0 004.469-1.125l-.625-3.938zm-5.219.875c-1.507.22-3.036.449-4.625.625l.719 4.344a62.493 62.493 0 004.562-.656l-.656-4.313zm14.281.656c-.946.78-1.973 1.433-3 2.032l.313 1.78c.919-.958 1.817-1.977 2.656-3.124l.031-.688zm-19.562.031c-1.43.153-2.907.257-4.375.375l.719 4.375c1.429-.12 2.872-.262 4.312-.406l-.656-4.344zm-5.031.438c-1.465.112-2.93.202-4.407.281l.75 4.531c1.453-.185 2.887-.314 4.313-.437l-.656-4.375zm-5.063.313c-1.406.07-2.794.114-4.188.156l.876 5.156c1.371-.3 2.71-.536 4.03-.719l-.718-4.593zm-4.844.187c-1.313.036-2.624.083-3.906.094l.75 4.406c1.643.256 2.94.625 4 1.031l-.844-5.531zm-8.844.063l.907 4c1.52.07 2.846.193 4 .343l-.656-4.312a190.01 190.01 0 01-4.25-.031zm39.688 1.375a27.344 27.344 0 01-3.781 1.687l.562 3.344c1.22-.854 2.393-1.854 3.531-2.969l-.312-2.062zm-4.5 1.937a41.977 41.977 0 01-4.406 1.188l.781 4.625a26.45 26.45 0 004.188-2.22l-.563-3.593zm-5.156 1.344a87.7 87.7 0 01-4.5.781l.875 5.25c1.451-.278 2.914-.656 4.375-1.219l-.75-4.812zm-19.594.812l.063.344c.094.044.158.111.25.156l-.313-.5zm14.344.063c-1.412.204-2.837.425-4.25.625l.844 5a24.336 24.336 0 004.218-.313l-.812-5.312zm-5 .719c-1.424.206-2.82.425-4.219.687l.469 2.844c.412.308.846.623 1.344.937a21.54 21.54 0 003.156.407l-.75-4.875zm-4.969.812c-.565.112-1.13.246-1.688.375.668.52 1.294 1.08 2 1.656l-.312-2.031z" fill="#fff"/>
</svg>
