<?xml version="1.0" encoding="UTF-8"?>
<svg width="256" height="256" xmlns="http://www.w3.org/2000/svg" xmlns:xlink="http://www.w3.org/1999/xlink">
 <defs>
  <radialGradient id="p" cx="532.2" cy="177.71" r="69.004" gradientTransform="matrix(.99903 .04402 -.04928 1.1186 75.184 -55.361)" gradientUnits="userSpaceOnUse">
   <stop stop-color="#fff000" offset="0"/>
   <stop stop-color="#fc0" offset="1"/>
  </radialGradient>
  <radialGradient id="q" cx="456.21" cy="216.91" r="42" gradientTransform="matrix(-1.4511 -1.4898 3.2585 -3.1739 448.18 1515.5)" gradientUnits="userSpaceOnUse" xlink:href="#d"/>
  <radialGradient id="o" cx="607.24" cy="228.17" r="23.701" gradientTransform="matrix(1.3027 0 0 .52251 -179.28 116.52)" gradientUnits="userSpaceOnUse" xlink:href="#d"/>
  <radialGradient id="n" cx="616.2" cy="232.34" r="23.115" gradientTransform="matrix(1.2963 -.12925 .09863 .98914 -198.23 85.164)" gradientUnits="userSpaceOnUse" xlink:href="#c"/>
  <linearGradient id="r" x1="581.16" x2="587.12" y1="157.25" y2="172.25" gradientUnits="userSpaceOnUse">
   <stop stop-color="#d40000" offset="0"/>
   <stop stop-color="#ff0d00" offset="1"/>
  </linearGradient>
  <linearGradient id="c">
   <stop stop-color="#161688" offset="0"/>
   <stop stop-color="#1717ac" offset="1"/>
  </linearGradient>
  <linearGradient id="d">
   <stop stop-color="#fff" offset="0"/>
   <stop stop-color="#d5d5d5" offset="1"/>
  </linearGradient>
 </defs>
 <path d="m126.15 190.11c9.949-6.467-18.397-25.356-21.634-17.453-24.95 2.963-30.152-22.106-46.478-6.082 18.08 16.255 42.015 21.95 57.362 37.3 4.217-5.257 7.293-4.822 10.75-13.765z"/>
 <path transform="matrix(-.99116 -.5761 -.5761 .99116 846.5 302.92)" d="m593.85 230.92c-4.553-8.202 23.491-8.18 21.317-3.794 17.517 13.171 33.81-0.576 38.408 16.131-20.761 4.334-39.58-1.633-57.882 3.217-0.876-5.813-3.156-7.294-1.843-15.554z" fill="url(#n)"/>
 <path d="m119.13 180.28c2.68 1.763 5.119 6.988 3.516 9.425-1.603 2.436-7.56 3.26-10.24 1.497s-4.227-6.062-2.623-8.499c1.603-2.436 6.667-4.187 9.347-2.423zm-44.354-19.176c-1.922 3.476-1.603 8.765-5.752 10.776 16.44 10.397 32.858 11.76 48.297 30.576l-6.633 9.717c-16.646-20.062-40.56-29.989-59.56-43.86 1.624-5.798 8.567-12.062 23.648-7.209z"/>
 <path transform="matrix(-.99116 -.5761 -.5761 .99116 846.5 302.92)" d="m601.84 227.27c-2.794 0.156-4.967 2.336-4.825 4.876 0.14 2.54 2.544 4.507 5.338 4.351 2.794-0.155 4.924-2.374 4.783-4.914s-2.502-4.468-5.296-4.313zm43.466 5.902c-0.074 3.464-0.79 6.737 1.457 10.072-16.956 0.635-30.97-5.533-50.861 1.889l0.627 6.896c21.348-7.833 40.394-3.57 60.803-5.703 1.317-5.084-1.174-9.973-12.026-13.154z" fill="url(#o)"/>
 <path d="m151.28 199.04c-7.442-9.242 25.375-18.372 25.992-9.854 22.79 10.58 35.534-11.626 46.063 8.683-22.242 9.822-46.76 7.785-66.122 17.599-2.371-6.31-5.43-6.853-5.933-16.428z"/>
 <path transform="rotate(-12.036 105.1 2736.9) scale(1.1464)" d="m593.85 230.92c-4.553-8.202 23.491-8.18 21.317-3.794 17.517 13.171 33.81-0.576 38.408 16.131-20.761 4.334-39.58-1.633-57.882 3.217-0.876-5.813-3.156-7.294-1.843-15.554z" fill="url(#n)"/>
 <path d="M161.013 191.883c-3.095.842-7.04 5.05-6.275 7.863.766 2.814 6.17 5.452 9.265 4.61 3.096-.842 5.904-4.446 5.139-7.26-.766-2.814-5.034-6.055-8.13-5.213zm48.118-4.42c.745 3.901-1.203 8.828 2.113 12.03-18.86 4.765-34.886.952-55.413 14.029l3.28 11.299c22.062-13.886 47.877-15.88 70.25-23.149.262-6.015-4.388-14.129-20.23-14.21z"/>
 <path transform="rotate(-12.036 105.1 2736.9) scale(1.1464)" d="m601.84 227.27c-2.794 0.156-4.967 2.336-4.825 4.876 0.14 2.54 2.544 4.507 5.338 4.351 2.794-0.155 4.924-2.374 4.783-4.914s-2.502-4.468-5.296-4.313zm43.466 5.902c-0.074 3.464-0.79 6.737 1.457 10.072-16.956 0.635-30.97-5.533-50.861 1.889l0.627 6.896c21.348-7.833 40.394-3.57 60.803-5.703 1.317-5.084-1.174-9.973-12.026-13.154z" fill="url(#o)"/>
 <path d="M188.078 211.852c-8.313 3.5-32.333-42.225-40.992-44.753-9.212-2.69-56.995 22.632-63.27 15.37-5.896-6.826 28.25-44.985 27.979-54-.289-9.594-34.948-46.035-29.98-54.246 4.669-7.718 50 12.826 58.49 9.783 9.035-3.239 31.422-45.696 40.766-43.508 8.783 2.055 2.45 50.34 7.968 57.475 5.872 7.592 56.007 17.059 56.815 26.622.759 8.988-48.607 15.899-53.687 23.352-5.405 7.93 4.757 60.182-4.089 63.905z"/>
 <path transform="matrix(1.1464 0 0 1.1464 -519.78 -44.525)" d="M614.65 218.12c-7.251 3.052-25.177-34.494-32.73-36.7-8.036-2.346-45.384 18.628-50.857 12.293-5.144-5.953 25.025-34.604 24.788-42.469-.251-8.368-31.74-37.407-27.406-44.57 4.072-6.731 40.644 13.107 48.05 10.452 7.88-2.825 25.768-41.746 33.92-39.838 7.66 1.793.094 42.705 4.908 48.929 5.122 6.622 47.665 11.606 48.37 19.948.662 7.84-40.586 13.287-45.017 19.788-4.715 6.917 3.69 48.92-4.025 52.167z" fill="url(#p)"/>
 <path d="M179.117 43.998c-9.707.632-29.252 42.612-38.004 45.75-8.491 3.043-50.41-19.692-55.079-11.974-1.535 2.538.84 7.487 4.881 13.378-1.322-2.824-1.798-5.12-.902-6.6 4.669-7.717 46.623 15.02 55.114 11.977 8.893-3.188 28.896-46.454 38.433-45.72-.588-3.754-1.662-6.27-3.552-6.713-.292-.068-.578-.119-.891-.098z" fill="#fee800"/>
 <path d="m90.685 124.7c0 22.636-18.35 40.985-40.985 40.985s-40.984-18.349-40.984-40.984 18.35-40.985 40.984-40.985c22.636 0 40.985 18.35 40.985 40.985z"/>
 <path transform="matrix(1.1464 0 0 1.1464 -505.45 -39.939)" d="M485.219 108.938c-2.008 1.628-3.912 2.89-4.75 2.718-.73-.149-1.81-.869-2.938-1.781-7.436 1.84-14.226 6.283-19.219 12.188.027 2.38-.162 4.552-.593 5.312-.859 1.513-4.687 8.102-7.063 9.813a30.302 30.302 0 00-.719 6.53c0 13.267 7.836 25.055 19.125 30.5-.593-1.41-.664-3.656.844-3.905 2.128-1.059.638 2.671 1.344 3.406-.16.588-.341.987-.531 1.25 3.782 1.57 7.898 2.469 12.219 2.469 3.167 0 6.276-.494 9.28-1.344-.487-.122-.45-1.306.876-4.5 4.544-1.689 1.16 3.638-.438 4.406 14.09-4.179 25.406-17.03 25.406-31.938 0-4.929-1.093-9.76-3.03-14.187.866 2.565 1.23 5.19 1.312 7.969h-4.594c-2.033-.416-8.018-9.813-8.25-11.875-.226-2.005-.325-8.27 1.406-9.406 1.568 1.301 2.944 2.535 4.125 3.78-5.98-6.854-14.444-11.355-23.812-11.406zm-5.625 2.968c1.626-.347.902 4.447.062 5.875h.031c2.075-.014 9.877 5.594 10.532 7.563.654 1.969-2.267 11.113-3.938 12.344-1.67 1.23-11.25 1.302-12.937.093-1.687-1.208-4.722-10.335-4.094-12.312.568-1.79 6.938-6.614 9.687-7.532-.295-.55-.495-2.095-.437-5.312.448-.433.806-.657 1.094-.719zm17.125 9.938c.25-.014.497-.005.75 0 .933.018 1.865.182 2.687.531 4.208 2.633-1.55 2.136-4.562 1.75-5.725.082-2.617-2.077 1.125-2.281zm-33.906 2.187c1.017.007 2.164.18 3.375.594 2.665 1.243.901 2.514-2.375 1.344-7.253 1.035-5.409-1.968-1-1.938zm-9.22 13.5c.02-.019.036-.01.063 0 2.528-.394 2.273 6.408 3.75 8.375-1.463 5.898-4.417-7.793-3.812-8.375zm36.063 1.781c1.624.282 2.547 5.008 3.906 6.032.04 6.232-5.67-4.954-4.656-5.844.264-.164.518-.228.75-.188zm20.594.22c.854-.002 1.13.848-.5 2.28-2.448 8.237-6.381 3.556-1.375-1.312.64-.656 1.363-.968 1.875-.969zm-37.781 1.155c2.603-.022.165 4.13-1.813 5.938-4.788 5.83-1.249-4.374.375-5.656.595-.193 1.066-.278 1.438-.281zm-14.531 8.75c2.795-.033 6.918.758 7.968 1.907 1.4 1.531 6.806 10.351 5.781 12.156-1.024 1.805-3.141 5.746-5.187 6.094l-10.5-7.531c-.002-.004-.03.004-.031 0-.239-2.088-2.104-11.457-.219-12.313.472-.215 1.256-.301 2.188-.313zm42.75 0c2.51-.069 4.956.14 5.656.907 1.4 1.531.961 9.289-.063 11.094-1.024 1.804-9.28 9.603-11.312 9.187-2.033-.416-7.018-4.97-7.25-7.031-.233-2.062 5.048-12.455 6.937-13.313.945-.429 3.52-.774 6.031-.844zm7.53 11.094s2.856-1.009 3.563 1.063c.366 1.071-1.971-.179-3.562-1.063zm-23.968 1.625c1.744 5.448-11.926 3.422-11.75.719 1.657-1.465 9.141 2.145 11.75-.719z" fill="url(#q)"/>
 <path d="M44.398 97.473s-8.318 2.986-9.314 6.306c-1.72 5.732 2.99 15.053 2.579 12.18-.86-6.018 4.013-16.623 6.735-18.486zM18.46 142.47c.43-.573-1.72-8.454-.286-9.028 1.433-.573 6.735 0 8.741.86 2.007.86-6.018-1.003-6.878 1.003-.86 2.007-1.576 7.165-1.576 7.165z" fill="#fff"/>
 <path d="m157.34 71.233c1.89 8.981-3.326 17.682-11.65 19.433-8.324 1.752-16.604-4.11-18.494-13.09-1.89-8.982 3.326-17.682 11.65-19.434 8.325-1.751 16.605 4.11 18.494 13.09z"/>
 <path d="m154.75 70.742c1.59 7.557-2.626 14.842-9.417 16.271-6.79 1.429-13.584-3.54-15.175-11.097-1.59-7.557 2.626-14.842 9.417-16.27 6.79-1.43 13.585 3.539 15.175 11.096z" fill="#fff"/>
 <path d="m145.11 73.348c-1.524 5.767-5.61 9.58-9.13 8.514-3.517-1.065-5.134-6.604-3.61-12.372 1.523-5.768 5.61-9.58 9.128-8.515 3.519 1.066 5.136 6.605 3.612 12.373z"/>
 <path d="M138.223 73.367c-1.2 2.688-3.041 4.04-4.115 3.022-1.073-1.018-.971-4.023.228-6.71 1.199-2.688 3.041-4.041 4.114-3.023 1.074 1.02.972 4.024-.227 6.711z" fill="#fff"/>
 <path d="m181.33 78.942c1.89 8.982-3.326 17.682-11.65 19.434-8.325 1.751-16.605-4.11-18.494-13.091-1.89-8.981 3.326-17.682 11.65-19.433 8.324-1.752 16.604 4.109 18.494 13.09z"/>
 <path d="m178.74 78.451c1.59 7.558-2.626 14.843-9.417 16.271-6.79 1.43-13.585-3.539-15.175-11.096-1.59-7.558 2.626-14.843 9.417-16.271 6.79-1.43 13.584 3.539 15.175 11.096z" fill="#fff"/>
 <path d="m169.1 81.057c-1.524 5.768-5.611 9.58-9.13 8.514-3.518-1.065-5.135-6.604-3.611-12.372s5.61-9.58 9.13-8.514c3.517 1.065 5.134 6.604 3.61 12.372z"/>
 <path d="m162.21 81.077c-1.2 2.687-3.042 4.04-4.115 3.022-1.073-1.02-0.972-4.024 0.227-6.711 1.2-2.688 3.042-4.04 4.115-3.022s0.972 4.023-0.227 6.71z" fill="#fff"/>
 <path d="M113.732 108.496c16.96-7.468 32.895 28.18 55.327 24.32l-1.419 4.255c-9.333 9.751-48.759-32.821-54.313-25.13-.53.735.405-3.445.405-3.445z"/>
 <path d="m144.33 127.75s-6.171 15.372-5.066 21.684c1.418 8.107 9.12 17.834 15.402 11.552s3.242-26.346 3.242-26.346z"/>
 <path transform="matrix(1.1464 0 0 1.1464 -519.78 -44.525)" d="M581.781 154.156s-5.213 8.65-4.25 14.156c.723 4.13 1.567 7.574 3.532 9.094-.258-6.612-.167-12.604 3.093-22.094zm4.782 1.719c-1.517 4.431-3.285 7.424-3.916 10.843-.729 3.954 1.686 7.85 1.822 11.5 1.187.318.675.12 2.25-1.78 5.126-6.188 1.25-19.282 1.25-19.282z" fill="url(#r)"/>
</svg>
