<?xml version="1.0" encoding="UTF-8"?>
<svg width="256" height="256" xmlns="http://www.w3.org/2000/svg" xmlns:xlink="http://www.w3.org/1999/xlink">
 <defs>
  <radialGradient id="l" cx="173.5" cy="294.24" r="108.02" gradientTransform="matrix(1 0 0 .96114 0 10.058)" gradientUnits="userSpaceOnUse">
   <stop stop-color="#fff000" offset="0"/>
   <stop stop-color="#fc0" offset="1"/>
  </radialGradient>
  <radialGradient id="n" cx="594.74" cy="271.74" r="101.47" gradientTransform="matrix(.0123 -.48118 .85498 .02184 379.85 513.6)" gradientUnits="userSpaceOnUse">
   <stop stop-color="#fff" offset="0"/>
   <stop stop-color="#d5d5d5" offset="1"/>
  </radialGradient>
  <linearGradient id="m" x1="373.5" x2="370.75" y1="424.11" y2="435.11" gradientUnits="userSpaceOnUse">
   <stop stop-color="#d40000" offset="0"/>
   <stop stop-color="#ff0d00" offset="1"/>
  </linearGradient>
 </defs>
 <path d="m147.38 220.47c-7.156 3.484-38.567-21.673-46.406-23.05-7.82-1.374-45.036 12.227-50.547 6.511-5.525-5.729 9.687-42.011 8.575-49.892-1.11-7.861-25.31-40.99-21.577-47.996 3.742-7.025 45.04-1.682 52.192-5.175 7.134-3.485 28.016-40.155 35.834-38.77 7.837 1.388 16.05 42.585 21.583 48.307 5.519 5.708 45.089 15.15 46.188 23.014 1.101 7.882-35.778 26.348-39.51 33.377-3.723 7.013 0.807 50.2-6.332 53.674z"/>
 <path transform="scale(.69763) rotate(11.44 454.87 235.09)" d="M228 358.362c-9.063 6.929-55.97-23.63-67.375-23.336-11.376.293-56.53 33.234-65.898 26.77-9.39-6.478 5.178-60.532 1.374-71.288-3.794-10.729-49.076-43.494-45.824-54.4 3.26-10.933 59.17-13.781 68.224-20.723 9.032-6.924 26.2-60.114 37.577-60.392 11.405-.278 31.392 52.016 40.791 58.482 9.376 6.45 65.269 6.341 69.048 17.076 3.789 10.76-39.769 45.928-43.014 56.866-3.236 10.91 14.138 64.033 5.097 70.945z" fill="url(#l)"/>
 <path d="M123.859 135.858c-1.967 4.359-1.881 8.712-.586 12.4-1.178 1.044-4.987 3.064-4.987 3.064s.669 1.337 1.226 1.115c.487-.195 3.41-2.349 4.235-2.954.906 2.05 2.2 3.822 3.706 5.238-.59 1.17-4.18 4.486-4.18 4.486s.998 1.114 1.477.753c.469-.354 3.515-4.26 3.65-4.43.518.409 1.037.796 1.588 1.114 1.179.68 2.578 1.207 4.096 1.588.121 1.23-1.337 6.019-1.337 6.019s1.412.47 1.644-.084c.227-.542.917-5.445.947-5.656 5.795 1.09 12.898.075 16.607-3.483l-.446-.752c-6.406 3.96-13.994 4.096-19.504.92-5.51-3.178-9.008-9.648-7.245-19.199l-.891-.139z" font-family="Sans" font-weight="400" overflow="visible" style="block-progression:tb;text-indent:0;text-transform:none"/>
 <path d="M122.828 69.962c-9.68 5.8-14.84 16.897-22.306 25.357-3.85 6.149-9.551 12.425-17.539 11.561-13.398 1.07-27.557-2.315-40.401 2.202-1.653 1.912.46 6.543 1.867 6.687 5.74-4.822 14.11-2.926 21.12-3.734 9.563-.288 20.072 2.043 29.043-1.501 11.858-10.537 17.928-26.96 31.615-35.362 3.179.503-.521-5.273-2.814-5.517h-.028l-.557.307z" fill="#fee800"/>
 <path d="M80.17 115.35c-1.967 4.36-1.882 8.713-.586 12.4-1.178 1.045-4.987 3.065-4.987 3.065s.668 1.337 1.226 1.114c.486-.194 3.41-2.348 4.235-2.953.905 2.049 2.2 3.822 3.706 5.238-.59 1.169-4.18 4.486-4.18 4.486s.998 1.114 1.477.752c.468-.354 3.514-4.259 3.65-4.43.517.41 1.036.797 1.588 1.115 1.178.68 2.578 1.207 4.096 1.588.12 1.23-1.337 6.018-1.337 6.018s1.411.47 1.643-.083c.228-.542.917-5.445.948-5.656 5.794 1.09 12.897.075 16.606-3.483l-.446-.753c-6.405 3.96-13.994 4.097-19.504.92-5.51-3.177-9.008-9.647-7.244-19.198l-.892-.14z" font-family="Sans" font-weight="400" overflow="visible" style="block-progression:tb;text-indent:0;text-transform:none"/>
 <g font-family="Rufscript" font-size="40" font-weight="400" letter-spacing="0" word-spacing="0">
  <path d="M5.454 80.876c.504-.93.832-1.996 1.444-2.843 3.388-2.901 6.8-5.785 9.888-9.009 1.824-1.9 3.767-3.674 5.769-5.384 1.066-.964 2.368-1.65 3.586-2.39.574-.077 1.197-.39 1.743-.33.51.404 1.198.686 1.22 1.429.248 1.128.876 2.218.61 3.396-.645 7.244-1.068 14.504-1.554 21.76l1.3 11.068 16.36-13.561c.588-.344 1.144-.341 1.657.13.785.184.715.828.622 1.486-.101.983-.023 2.048-.234 2.982-2.142 2.16-4.346 4.253-6.653 6.235l-12.564 11.162-2.678.83c-.536-.6-1.23-1.125-1.67-1.772-.62-5.319-1.309-10.634-1.885-15.956l.236-18.552L7.68 83.568c-.536-.236-1.263-.292-1.684-.637l-.543-2.055zM54.215 64.087c-3.29 3.196-11.302 3.022-11.011 8.734 2.865 3.877 12.248-6.727 10.29-.291-1.554 5.568-3.761 11.877-2.876 17.483 3.696 2.844 8.688-2.94 12.743-3.896 2.89-.916 7.94-4.091 4.475-7.048-3.566-.48-11 6.768-11.242 2.908.295-6.563 5.514-12.384 4.994-18.835-1.524-2.608-5.495.222-7.373.945z"/>
  <path d="M81.076 56.663c-4.132 1.971-11.757-.816-13.241 4.733 1.49 4.534 13.735-2.422 9.808 3.029-3.233 4.78-7.423 10.028-8.363 15.607 2.598 3.889 9.177.027 13.33.433 3.02.069 8.79-1.308 6.513-5.221-3.22-1.61-12.605 2.852-11.579-.883 2.402-6.13 9.212-9.928 10.815-16.21-.7-2.965-5.226-1.565-7.283-1.488z"/>
 </g>
 <path d="m77.074 160.92c7.389 7.305 16.863 16.285 27.6 18.567l9.614 2.005 1.105-1.581c-4.177-13.993-22.665-20.705-38.004-22.143z"/>
 <path transform="translate(-240.14 -214.35) scale(.89162)" d="M359.778 419.89c8.288 8.194 24.163 21.265 36.206 23.825l1.532.248-1.261-.273c-4.685-15.694-20.17-17.971-36.873-24.085z" fill="url(#m)"/>
 <path d="m74.597 214.39c-24.015 0-10.277-51.543 38.34-33.882 11.75-33.214 60.48-31.358 76.233-4.012 56.463-16.006 77.28 34.284 47.701 37.894z"/>
 <path transform="translate(-376.56 -3.04) scale(.89162)" d="m511.5 241.36c-26.934-0.155-15.275-53.058 39.25-33.25 13.178-37.251 65.083-34.67 82.75-4 63.327-17.951 84.673 34.202 51.5 38.25z" fill="url(#n)"/>
 <path d="M148.545 158.957c-14.987.187-29.263 10.255-33.52 24.714-13.384-5.19-31.166-7.326-41.96 4.04-4.948 5.176-7.462 14.603-2.007 20.313-3.359-12.865 8.576-24.426 20.674-25.997 8.93-1.502 18.072.18 26.47 3.177 5.84-17.288 25.14-26.774 42.659-23.851 3.414.471 6.795 1.303 10.003 2.507a45.353 45.353 0 00-22.319-4.903zm60.185 17.581c-5.94.18-11.766 1.1-17.498 2.564 1.62 4.94 6.756.376 10.406.65 10.287-1.99 22.12-1.668 31.472 1.746-7.493-3.882-15.992-5.2-24.38-4.96z" fill="#9b9bea"/>
</svg>
