<?xml version="1.0" encoding="UTF-8"?>
<svg width="256" height="256" xmlns="http://www.w3.org/2000/svg" xmlns:xlink="http://www.w3.org/1999/xlink">
 <defs>
  <radialGradient id="q" cx="547.25" cy="968.11" r="12" gradientTransform="matrix(.83555 -.13435 .1319 .82032 -37.7 247.48)" gradientUnits="userSpaceOnUse" xlink:href="#i"/>
  <radialGradient id="p" cx="526.5" cy="892.03" r="10.553" gradientTransform="matrix(-.97131 -1.3741 .9763 -.69014 167.01 2231.2)" gradientUnits="userSpaceOnUse">
   <stop stop-color="#9c4a13" offset="0"/>
   <stop stop-color="#520" offset="1"/>
  </radialGradient>
  <radialGradient id="n" cx="531.03" cy="998.9" r="16.329" gradientTransform="matrix(-.0842 -1.0028 .92766 -.0779 -352.67 1607.6)" gradientUnits="userSpaceOnUse" xlink:href="#h"/>
  <radialGradient id="m" cx="527" cy="984.36" r="16.25" gradientTransform="matrix(.99987 -.01712 .01893 1.2406 -18.563 -227.85)" gradientUnits="userSpaceOnUse">
   <stop stop-color="#fff" offset="0"/>
   <stop stop-color="#d5d5d5" offset="1"/>
  </radialGradient>
  <radialGradient id="l" cx="525.02" cy="992.58" r="24.064" gradientTransform="matrix(.99361 -.11285 .10284 .90549 -98.727 145.98)" gradientUnits="userSpaceOnUse" xlink:href="#h"/>
  <radialGradient id="k" cx="168.57" cy="276.25" r="108.01" gradientTransform="matrix(.99972 .02347 -.0251 1.0693 6.538 -21.654)" gradientUnits="userSpaceOnUse">
   <stop stop-color="#fff000" offset="0"/>
   <stop stop-color="#fc0" offset="1"/>
  </radialGradient>
  <linearGradient id="i">
   <stop stop-color="red" offset="0"/>
   <stop stop-color="red" stop-opacity="0" offset="1"/>
  </linearGradient>
  <linearGradient id="h">
   <stop stop-color="#e82ae8" offset="0"/>
   <stop stop-color="#ab378e" offset="1"/>
  </linearGradient>
 </defs>
 <path d="m177.46 193.11c-18.475 9.1-31.296-29.45-48.648-30.747-19.412-1.452-45.557 35.291-61.453 24.055-14.209-10.044 21.161-38.915 17.033-55.819-4.617-18.91-47.209-33.279-41.435-51.869 5.162-16.617 42.319 9.078 57.12-0.071 16.558-10.235 15.377-55.413 34.841-55.666 17.4-0.226 8.926 44.792 22.201 56.042 14.851 12.584 56.347-5.34 62.602 13.093 5.592 16.478-40.828 22.3-47.424 38.402-7.38 18.013 22.625 53.98 5.163 62.58z"/>
 <path transform="matrix(.7785 .0784 -.0784 .7785 25.709 -106.01)" d="M228 358.362c-16.398 15.023-40.491-35.39-62.723-34.819-24.87.64-48.898 50.506-70.55 38.254-19.355-10.953 21.146-49.446 13.732-70.413-8.293-23.455-63.144-30.897-58.182-55.276 4.436-21.793 53.56 4.831 71.21-8.699 19.745-15.136 9.873-69.601 34.591-72.416 22.097-2.515 11.956 52.432 30.278 65.037 20.497 14.101 69.246-12.119 79.561 10.52 9.221 20.238-46.17 27.574-52.497 48.894-7.077 23.851 32.924 62.112 14.58 78.918z" fill="url(#k)"/>
 <path d="M140.561 120.095c-6.128.165-7.12 4.913-10.441 5.194-3.89.329-5.649-3.59-11.26-3.712-11.72 1.02-13.884 6.842-13.462 14.286.423 7.444 7.135 13.117 14.992 12.67 9.274.108 13.346-1.142 21.701-1.481 7.858-.446 13.885-6.842 13.462-14.286-.422-7.444-2.909-13.534-14.992-12.67zm-28.283 5.737c2.096-.119 3.9 1.418 4.012 3.403.113 1.985-1.507 3.685-3.603 3.804-2.095.12-3.897-1.387-4.01-3.372-.112-1.985 1.506-3.716 3.601-3.835zm33.696-1.912c2.096-.12 3.9 1.417 4.012 3.403.113 1.985-1.507 3.685-3.603 3.804-2.095.119-3.866-1.389-3.979-3.374-.112-1.985 1.475-3.714 3.57-3.833z"/>
 <path transform="rotate(-3.248 -14550 7332.6)" d="m525.64 965.13c-6.127-0.183-7.387 4.855-10.718 4.947-3.902 0.108-5.613-4.258-11.208-4.697-11.76 0.354-13.19 4.63-13.19 12.086s5.496 12.616 13.366 12.616c9.253 0.632 13.39-0.208 21.75-0.073 7.87 0 13.013-4.807 13.013-12.263s-0.9-12.793-13.013-12.616zm-28.385 1.65c2.099 0 4.52 3.05 4.52 5.04 0 1.988-2.598 4.477-4.697 4.477s-5.05-2.136-5.05-4.124c0-1.989 3.128-5.393 5.227-5.393zm33.573 0.354c2.099 0 4.873 2.697 4.873 4.685 0 1.989-2.774 4.478-4.873 4.478s-5.019-2.49-5.019-4.478 2.92-4.685 5.019-4.685z" fill="url(#l)"/>
 <path d="M140.327 136.71c.295 5.202-3.917 9.672-9.407 9.984-5.491.311-10.182-3.653-10.477-8.855-.296-5.202 3.916-9.672 9.407-9.983 5.491-.312 10.182 3.653 10.477 8.855z"/>
 <path transform="rotate(-3.243 -6029.7 3198.9) scale(.55842 .49898)" d="m543.25 984.36c0 8.975-7.275 16.25-16.25 16.25s-16.25-7.275-16.25-16.25c0-8.974 7.275-16.25 16.25-16.25s16.25 7.276 16.25 16.25z" fill="url(#m)"/>
 <path d="M120.754 141.742s12.079 15.062 20.925 8.746c9.586-6.844-3.162-19.095-3.162-19.095-1.72-2.877 2.176-4.304 3.237-2.395 0 0 17.9 19.08 3.981 27.322-15.682 9.287-27.363-11.644-27.363-11.644-.85-1.338.83-2.855 2.382-2.934z"/>
 <path transform="rotate(-3.248 -14550 7332.6)" d="M504.262 985.437s12.205 15.972 21.396 10.167c9.958-6.29-1.826-19.868-1.826-19.868-1.554-2.97 1.166-3.923 2.118-1.957 0 0 15.665 18.562 2.302 25.754-16.05 8.636-24.91-11.927-24.91-11.927-.772-1.383-.634-2.178.92-2.169z" fill="url(#n)"/>
 <path transform="rotate(3.133 23875 -10631) scale(1.4375)" d="m558.5 967.36c0 6.628-5.373 12-12 12s-12-5.372-12-12c0-6.627 5.373-12 12-12s12 5.373 12 12z" fill="url(#q)"/>
 <path d="M134.322 27.933c-14.656 3.759-14.312 23.338-19.524 34.754-2.934 9.623-8.94 21.513-20.664 20.964-14.453.408-27.958-8.52-42.375-6.25-7.233 2.527-5.653 12.973-.625 17.157-1.868-6.44 3.1-13.644 10.063-13 15.36-.251 30.099 10.039 45.406 5.562 11.395-6.693 12.646-21.629 16.812-32.937 2.764-8.728 6.704-21.266 17.657-21.563 1.938-.27-1.586-3.745-3.032-4.187-1.155-.516-2.466-.588-3.718-.5z" fill="#fee800"/>
 <path d="m166.81 83.16c-0.502 9.164-8.337 16.186-17.5 15.684-9.164-0.501-16.186-8.336-15.685-17.5 0.501-9.163 8.336-16.185 17.5-15.684s16.186 8.336 15.684 17.5z"/>
 <path d="m165.57 83.092c-0.464 8.482-7.716 14.98-16.197 14.517-8.481-0.464-14.98-7.716-14.516-16.197s7.715-14.98 16.196-14.516c8.482 0.464 14.98 7.715 14.517 16.196z" fill="#fff"/>
 <path d="M160.426 83.342c-.304 5.557-5.055 9.815-10.612 9.51-5.556-.303-9.815-5.054-9.51-10.611.303-5.557 5.054-9.815 10.611-9.51 5.557.303 9.815 5.054 9.51 10.61z"/>
 <path d="M150.773 78.565a6.54 6.54 0 11-13.062-.715 6.54 6.54 0 0113.062.715zM161.47 77.203a3.89 3.89 0 11-7.767-.425 3.89 3.89 0 017.767.425z" fill="#fff"/>
 <path d="M124.763 82.862c-.502 9.164-8.337 16.186-17.5 15.685-9.164-.502-16.186-8.337-15.685-17.5.502-9.164 8.337-16.186 17.5-15.685 9.164.502 16.186 8.337 15.685 17.5z"/>
 <path d="m123.53 82.795c-0.464 8.481-7.715 14.98-16.197 14.516-8.48-0.464-14.98-7.715-14.516-16.197 0.464-8.48 7.716-14.98 16.197-14.516s14.98 7.716 14.516 16.197z" fill="#fff"/>
 <path d="M118.38 83.044c-.305 5.557-5.056 9.815-10.612 9.511-5.557-.304-9.815-5.055-9.511-10.612.304-5.556 5.055-9.814 10.612-9.51 5.556.304 9.814 5.055 9.51 10.611z"/>
 <path d="M108.726 78.267a6.54 6.54 0 11-13.062-.715 6.54 6.54 0 0113.062.715zM119.423 76.905a3.89 3.89 0 11-7.766-.425 3.89 3.89 0 017.766.425z" fill="#fff"/>
 <path d="m138.15 57.863s21.117-17.08 7.058-25.461c-16.31-9.725-23.558 4.939-16.574 8.476 15.676 7.94 9.516 16.985 9.516 16.985z"/>
 <path transform="translate(-385.71 -848.97)" d="M525.066 904.247c-.06-.026 16.717-14.514 5.953-21.45-4.697-3.027-8.494-3.989-11.335-3.748.655-.093 8.264 6.213 8.263 9.56-1.051-3.813-11.505-8.657-12.198-8.121-3.15 2.437-3.015 7.227.734 9.126 15.676 7.94 8.583 14.633 8.583 14.633z" fill="url(#p)"/>
 <path transform="rotate(3.133 23840 -11921) scale(1.4375)" d="m558.5 967.36c0 6.628-5.373 12-12 12s-12-5.372-12-12c0-6.627 5.373-12 12-12s12 5.373 12 12z" fill="url(#q)"/>
</svg>
