<?xml version="1.0" encoding="UTF-8"?>
<svg width="360" height="360" xmlns="http://www.w3.org/2000/svg" xmlns:xlink="http://www.w3.org/1999/xlink">
 <defs>
  <radialGradient id="m" cx="87.858" cy="656.56" r="12.507" gradientTransform="matrix(-.40282 -.86925 .50295 -.23307 -206.96 883.42)" gradientUnits="userSpaceOnUse">
   <stop stop-color="#d40000" offset="0"/>
   <stop stop-color="#ff0d00" offset="1"/>
  </radialGradient>
  <radialGradient id="l" cx="96.124" cy="728.13" r="30.936" gradientTransform="matrix(1 0 0 .5151 0 353.44)" gradientUnits="userSpaceOnUse" xlink:href="#a"/>
  <radialGradient id="j" cx="363.22" cy="898.36" r="118.5" gradientTransform="matrix(.99997 -.00755 .00298 .39503 -53.67 510.55)" gradientUnits="userSpaceOnUse" xlink:href="#b"/>
  <radialGradient id="i" cx="156.58" cy="759.38" r="89.577" gradientTransform="matrix(1 0 0 1.429 0 -325.73)" gradientUnits="userSpaceOnUse" xlink:href="#a"/>
  <radialGradient id="h" cx="100.46" cy="921.65" r="58.505" gradientTransform="matrix(1 0 0 .38425 0 554.47)" gradientUnits="userSpaceOnUse" xlink:href="#b"/>
  <linearGradient id="a">
   <stop stop-color="#fff000" offset="0"/>
   <stop stop-color="#fc0" offset="1"/>
  </linearGradient>
  <linearGradient id="b">
   <stop stop-color="#fff" offset="0"/>
   <stop stop-color="#d5d5d5" offset="1"/>
  </linearGradient>
 </defs>
 <path d="m40.666 315.9h88.5c13.051 1.126 23.614-30.357-28-20.5 16.036-18.32-50.435-44.161-51.5 0-45.581-4.75-22.026 22.462-9 20.5z"/>
 <path transform="translate(-8.834 -606.96)" d="M50.207 921.094l85.672.708c13.051 1.126 23.437-27.705-28.177-17.849 16.036-18.319-46.546-44.514-47.611-.353-45.58-4.75-22.91 19.457-9.884 17.494z" fill="url(#h)"/>
 <path d="M71.572 273.475c-11.032-.027-19.184 10.227-19.187 20.812 1.429 5.76-5.017 2.256-8.282 2.813-6.219.18-14.66-1.147-18.78 4.469-1.033 2.346 1.57 5.763 2.718 6.156.801-7.245 10.433-7.46 16.062-7.719 3.633-.319 8.11.608 11.157.156-.189-11.46 8.026-23.112 20.093-23.625 5.972-.62 12.006.579 17.438 2.875-6.204-4.16-13.733-6.364-21.219-5.937zm21.25 5.969c.243.162-.036-.13 0 0zm21.813 16.562c-3.305.467-7.903-.744-8.094 3.625.05 1.85 6.19-.778 8.62-.374 6.002-.87 14.498-.18 19.036.874-5.378-4.38-12.97-4.22-19.562-4.125z" fill="#9b9bea"/>
 <path d="m173.17 55.412c-70.693 0-128 57.308-128 128 0 70.693 57.308 127.66 128 128 24.287 0.118 19.178-11.889 2.3-18.667-34.247-13.753-54.644-55.946-54.644-100.1 0-61.219 43.022-92.12 95.89-110.85 19.066-6.753 1.47-25.615-43.546-26.392z"/>
 <path transform="translate(-21.834 -575.96)" d="m192.17 637.03c-67.06 0-118.46 51.626-118.81 122.34-0.324 65.134 47.458 115.11 115.98 123.05 24.125 2.796 17.056-6.232 0.178-13.01-34.248-13.753-53.23-59.482-53.23-103.63 0-61.218 39.487-92.12 92.355-110.85 19.065-6.753 8.54-17.13-36.475-17.906z" fill="url(#i)"/>
 <path d="m137.49 296.46h177.48c28.002 4.176 86.884-35.664-69.296-44.548 23.478-59.755-108.72-34.929-85.56 0.707-73.47-14.568-46.033 47.44-22.628 43.841z"/>
 <path transform="translate(-32.834 -575.96)" d="m172.09 869.59 174.3 1.414c28.002 4.176 86.53-34.073-69.65-40.305 23.478-59.755-103.41-35.99-80.257-0.353-73.469-14.568-47.8 42.843-24.395 39.244z" fill="url(#j)"/>
 <path d="M210.885 219.287c-16.411.963-34.459 4.866-45.813 17.657-4.811 5.398-3.702 13.573.594 18.843-14.38-2.425-31.568-6.144-44.375 2.813-8.702 6.774-4.996 20.6 1.781 27.031-5.458-8.67-3.28-21.92 6.844-26.094 11.76-5.418 25.53-3.57 37.781-1.562-5.314-9.093 1.477-19.788 9.729-24.382 17.344-10.534 39.521-14.288 59.177-8.868-7.608-4.582-16.911-5.627-25.718-5.438zm41.218 37.22c-2.152 4.714 7.09 1.542 10.029 2.821 26.1 1.799 52.75 3.21 77.628 11.834-20.77-10.224-44.604-11.32-67.341-13.734-6.66-.303-14.102-1.445-20.316-.922z" fill="#9b9bea"/>
 <path d="M167.243 62.106c-40.517.37-79.833 23.303-99.045 59.126-23.171 42.013-21.194 98.345 9.201 136.311-31.256-52.53-17.305-128.146 33.027-163.777 26.204-19.33 60.23-25.242 92.154-20.765 3.716-.585 8.575 3.194 11.507.667 2.64-3.704-3.635-6.013-6.313-6.969-12.965-3.995-26.995-4.468-40.531-4.593z" fill="#fee800"/>
 <path d="m85.064 149.48c0 10.968-11.276 19.86-25.185 19.86s-25.184-8.892-25.184-19.86c0-10.969 11.275-19.86 25.184-19.86 13.91 0 25.185 8.891 25.185 19.86z"/>
 <path d="m82.867 149.48c-8.381 3.54-38.456 9.465-43.827 7.357 2.89 7.409 10.486 10.782 20.829 10.782 12.7 0 22.998-8.125 22.998-18.14z" fill="#fff"/>
 <path d="m73.695 156.37c0 6.011-5.525 10.884-12.34 10.884-6.816 0-12.341-4.873-12.341-10.884s5.525-10.884 12.34-10.884c6.816 0 12.34 4.873 12.34 10.884z"/>
 <path transform="translate(-10.419 -398.59) scale(.7433)" d="m124.64 734.73c-11.275 4.764-52.41 12.636-59.636 9.8a19.684 19.684 0 0 1-1.364-7.186c0-13.473 13.85-24.395 30.936-24.395 17.085 0 30.064 8.308 30.064 21.781z" fill="url(#l)"/>
 <path d="m92.495 145.41c0 10.969 11.276 19.86 25.185 19.86 13.91 0 25.185-8.891 25.185-19.86 0-10.968-11.276-19.86-25.185-19.86-13.91 0-25.185 8.892-25.185 19.86z"/>
 <path d="m94.692 145.41c8.381 3.54 38.456 9.465 43.828 7.358-2.89 7.408-10.487 10.781-20.83 10.781-12.7 0-22.998-8.124-22.998-18.139z" fill="#fff"/>
 <path d="m103.86 152.3c0 6.012 5.525 10.885 12.34 10.885 6.816 0 12.341-4.873 12.341-10.885 0-6.01-5.525-10.884-12.34-10.884-6.816 0-12.34 4.873-12.34 10.884z"/>
 <path transform="matrix(-.7433 0 0 .7433 187.98 -402.66)" d="m124.64 734.73c-11.275 4.764-52.41 12.636-59.636 9.8a19.684 19.684 0 0 1-1.364-7.186c0-13.473 13.85-24.395 30.936-24.395 17.085 0 30.064 8.308 30.064 21.781z" fill="url(#l)"/>
 <path d="M103.525 123.702c4.185-6.55 65.374-3.613 61.872.883-.177-.707.177-8.662.177-8.662-24.13-8.716-43.168-1.649-62.756 3.713zM78.844 129.88c-3.443-6.968-64.585-10.748-61.597-5.895.253-.684.773-8.63.773-8.63 24.938-6.022 43.088 3.087 61.972 10.56zM107.5 222c0 18.363-9.304 32.686-20.75 33.25C71.54 256 66 240.363 66 222s-.46-34.5 18.25-34.25c11.459.153 23.25 15.887 23.25 34.25z"/>
 <path d="M82.5 188.656c-.52-.001-1.032.04-1.531.093.017.703.11 5.291.156 7.156 1.546-.147 3.133-.06 4.75.188l-.094-7.062a15.077 15.077 0 00-3.281-.375zm-2.469.218c-1.613.288-3.07.88-4.375 1.625.027 1.093.106 4.777.156 6.844a16.314 16.314 0 014.313-1.281l-.094-7.188zm6.688.407c.018.737.11 5.158.156 7 1.594.316 3.222.792 4.875 1.437l-.063-6.156c-1.699-1.072-3.367-1.818-4.968-2.281zm-12.032 1.78c-1.734 1.187-3.094 2.696-3.968 4.282l.156 5.344a19.505 19.505 0 013.906-2.813l-.094-6.812zm17.97 1.126c.023.957.082 4.236.124 5.937a45.56 45.56 0 014.094 2l-.031-4.343c-1.412-1.44-2.806-2.628-4.188-3.594zM72 242.874l.094 3.375c1.106 1.412 2.22 2.612 3.343 3.625l-.062-5.375A36.064 36.064 0 0172 242.874zm25.312 1a32.22 32.22 0 01-3.5 1.438c.04 2.38.077 4.18.094 5.875a21.677 21.677 0 003.438-3.219l-.032-4.094zm-20.468 1.219c.035 2.282.083 4.488.093 6a16.597 16.597 0 003.938 2.219l-.094-7.094a27.92 27.92 0 01-3.937-1.125zm15.531.656a25.142 25.142 0 01-4.406.844c.048 3.173.069 5.9.062 7.375 1.54-.326 3.024-.957 4.438-1.812l-.094-6.407zm-10.156.719c.047 3.168.07 5.901.062 7.344 1.469.394 2.93.507 4.344.375l-.094-7.5c-1.4.051-2.84-.005-4.312-.219z" fill="#fff"/>
 <path transform="translate(4 -414.09)" d="M68.413 652.878c7.498 9.503 25.078 2.947 25.013-.354-.159-14.164-11.485-7.132-12.55-4.42-2.5-2.07-9.982-8.824-12.463 4.774z" fill="url(#m)"/>
</svg>
