<?xml version="1.0" encoding="UTF-8"?>
<svg width="256" height="256" xmlns="http://www.w3.org/2000/svg" xmlns:xlink="http://www.w3.org/1999/xlink">
 <defs>
  <radialGradient id="l" cx="125.39" cy="260.36" r="108.01" gradientTransform="matrix(-.6024 -.59404 .67446 -.68397 78.553 550.2)" gradientUnits="userSpaceOnUse">
   <stop stop-color="#fff000" offset="0"/>
   <stop stop-color="#fc0" offset="1"/>
  </radialGradient>
  <linearGradient id="n" x1="258.88" x2="275.75" y1="106.36" y2="139.49" gradientTransform="rotate(-11.56 262.77 119.8)" gradientUnits="userSpaceOnUse">
   <stop stop-color="#161688" offset="0"/>
   <stop stop-color="#1717ac" offset="1"/>
  </linearGradient>
  <linearGradient id="m" x1="272.77" x2="273.12" y1="221.86" y2="227.7" gradientUnits="userSpaceOnUse">
   <stop stop-color="#d40000" offset="0"/>
   <stop stop-color="#ff0d00" offset="1"/>
  </linearGradient>
 </defs>
 <path d="m191.63 220.72c-8.454 7.285-50.166-26.878-61.416-26.594-12.435 0.314-57.683 35.012-68.379 28.784-9.676-5.635 9.745-56.882 5.994-67.288-4.147-11.502-46.277-40.135-43.543-52.037 2.474-10.767 53.268-6.216 62.2-12.93 9.871-7.423 22.338-60.043 34.724-61.17 11.206-1.02 25.382 46.784 34.654 53.04 10.248 6.914 67.424 4.768 72.345 15.973 4.451 10.137-43.437 35.58-46.638 46.162-3.538 11.696 19.404 68.007 10.059 76.06z"/>
 <path transform="translate(-16.698 -104.73) scale(.88656)" d="M228 358.362c-8.396 7.376-52.206-29.648-63.378-29.36-12.349.317-59.273 39.101-69.895 32.795-9.61-5.706 12.065-58.813 8.34-69.35-4.12-11.646-55.505-44.288-52.79-56.34 2.457-10.902 59.662-6.699 68.532-13.498 9.804-7.516 24.97-66.474 37.27-67.616 11.127-1.032 24.808 54.672 34.015 61.006 10.178 7.002 70.937 3.206 75.823 14.552 4.421 10.264-44.33 40.489-47.508 51.203-3.514 11.842 18.871 68.455 9.591 76.608z" fill="url(#l)"/>
 <path d="M121.998 34.64c-8.076 4.444-10.385 15.225-14.493 23-5.963 12.133-8.797 26.3-17.765 36.664-11.66 5.364-25.464 3.387-37.985 5.251-7.31 1.405-16.938.09-22.28 5.867.15 3.587 5.714 8.126 7.79 3.47 9.527-6.348 22.257-4.838 33.248-6.338 9.001-1.36 19.455.255 27.3-4.639 12.106-17.379 15.005-39.995 28.15-56.724 3.907-1.62-1.493-6.492-3.965-6.551z" fill="#fee800"/>
 <path d="m169.05 116.87c-3.803 12.603-13.41 20.852-21.46 18.423-8.048-2.429-11.49-14.614-7.688-27.217s13.41-20.851 21.459-18.423c8.049 2.429 11.491 14.614 7.689 27.217z"/>
 <path d="m166.86 116.56c-3.283 10.88-11.578 18.002-18.527 15.905s-9.92-12.617-6.638-23.497c3.283-10.881 11.578-18.002 18.527-15.905 6.949 2.096 9.92 12.617 6.638 23.497z" fill="#fff"/>
 <path d="m164.09 119.28c0 6.085-4.933 11.017-11.017 11.017-6.085 0-11.017-4.932-11.017-11.017 0-6.084 4.932-11.016 11.017-11.016 6.084 0 11.016 4.932 11.016 11.016zm-85.081 0.392c3.802 12.603 13.41 20.85 21.46 18.422 8.048-2.428 11.49-14.614 7.688-27.217-3.803-12.603-13.41-20.851-21.46-18.423-8.048 2.429-11.49 14.615-7.688 27.218z"/>
 <path d="m81.2 119.36c3.284 10.881 11.578 18.002 18.527 15.905 6.95-2.096 9.921-12.617 6.638-23.497-3.282-10.881-11.577-18.002-18.526-15.905-6.95 2.096-9.921 12.617-6.638 23.497z" fill="#fff"/>
 <path d="m84.77 120.89c0 6.084 4.932 11.016 11.016 11.016 6.085 0 11.017-4.932 11.017-11.016 0-6.085-4.932-11.017-11.017-11.017-6.084 0-11.016 4.932-11.016 11.017z"/>
 <path d="M81.164 114.676a6.01 6.01 0 1012.018 0 6.01 6.01 0 00-12.018 0zM142.056 113.074a6.01 6.01 0 1012.018 0 6.01 6.01 0 00-12.018 0z" fill="#fff"/>
 <path d="M63.938 86.634c17.824-6.461 31.52 7.718 47.271 11.618l.565-1.846C103.208 87.81 84.87 74.234 65.682 74.24c-4.119 4.72-1.714 8.355-1.744 12.394zM180.08 83.801c-17.824-6.461-31.52 7.718-47.272 11.618l-.564-1.845c8.566-8.597 26.905-22.173 46.092-22.167 4.119 4.721 1.714 8.355 1.744 12.394zM82.541 145.397c.482 42.49 74.503 51.878 83.282.283 1.848-8.693-19.444 2.138-41.973 3.356-20.347 1.1-41.36-8.119-41.309-3.639z"/>
 <path transform="translate(-182.03 -89.844) scale(1.1331)" d="M280.688 219.563c-4.247 0-9.375 1.359-14.813 5.062 0 0-5.875-5.375-12.625-3.75-3.888.936-5.074 1.444-5.844 2.938 18.683 5.23 29.942 3.976 41.781-.907-1.431-2.189-3.294-3.344-8.5-3.344z" fill="url(#m)"/>
 <path d="M151.128 146.368c-2.117.399-4.341.955-6.798 1.558.17 1.418.464 3.72.779 6.373 2.307-.568 4.695-1.14 7.258-1.664l-1.239-6.267zm-56.583.991l.46 6.268c1.926.678 3.724 1.25 5.489 1.77l-.213-6.657c-2.119-.558-4.023-1.08-5.736-1.38zm48.368.92a148.77 148.77 0 01-6.586 1.453c.118 1.613.258 3.76.46 6.621 2.232-.527 4.512-1.11 6.87-1.7l-.744-6.373zm-41.145.815c.075 2.084.107 3.593.213 6.728a86.008 86.008 0 006.869 1.629l-.212-6.834c-2.572-.436-4.805-.993-6.87-1.523zm33.001.956a95.71 95.71 0 01-7.33 1.027c.05 1.725.131 3.921.213 7.011 2.593-.337 5.108-.843 7.648-1.416l-.46-6.622c-.024.005-.047-.004-.07 0zm-24.644.78c.076 2.114.103 3.68.212 6.904 2.383.402 4.626.658 6.763.779l-.177-7.046a61.71 61.71 0 01-6.798-.638zm15.863.389a99.845 99.845 0 01-3.116.212 66.616 66.616 0 01-4.462.071c.053 1.879.094 3.867.177 7.046 2.646.08 5.13-.03 7.542-.283l-.141-7.046zM154.067 160c-2.455 1.725-5.02 3.259-7.755 4.532.315 2.759.555 5.308.815 7.72 3.165-2.202 5.997-4.931 8.286-8.25L154.067 160zm-58.779 3.966l-.743 3.718a33.944 33.944 0 006.444 5.205l-.212-7.188a120.462 120.462 0 01-5.489-1.735zm49.537 1.168a49.694 49.694 0 01-7.258 2.479c.213 3.266.424 6.65.566 9.206a37.428 37.428 0 007.613-3.647l-.92-8.038zm-42.526.992c.076 2.664.204 5.48.248 7.648a40.738 40.738 0 006.87 3.08l-.284-9.1a97.636 97.636 0 01-6.834-1.628zm33.745 1.841c-2.6.577-5.305.976-8.144 1.169.076 3.615.152 7.174.177 9.843a42.96 42.96 0 008.569-1.664l-.602-9.348zm-25.388.07c.097 3.448.208 6.813.248 9.313 2.154.644 4.372 1.101 6.621 1.417l-.212-9.808a80.318 80.318 0 01-6.657-.921zm8.18 1.063c.075 3.628.153 7.184.176 9.844 2.513.269 5.052.326 7.578.177l-.213-9.915c-2.42.102-4.94.086-7.542-.106z" fill="#fff"/>
 <path d="M79.88 67.182c30.536-1.975 57.231-9.906 81.378-21.79-5.249-5.353-13.139-9.44-22.928-12.618 0 0-14.613-19.124-26.403-15.883C98.64 20.544 99.34 46.83 99.34 46.83c-7.404 6.178-14.209 12.752-19.46 20.352z"/>
 <path transform="translate(-182.03 -89.844) scale(1.1331)" d="M261.634 97.654a9.743 9.743 0 00-.974.23c-9.115 2.507-10.066 15.096-10.04 20.619 10.501-1.428 20.841-3.235 28.842-11.035-3.662-4.208-10.78-10.99-17.828-9.814zm21.625 13.407l.037.024c-10.397 6.308-21.858 9.549-33.892 11.143-5.831 4.8-10.238 8.132-14.542 14.362 26.949-1.743 42.938-7.406 64.249-17.894-4.373-4.46-8.186-5.21-15.852-7.635z" fill="url(#n)"/>
 <path d="M136.08 25.022s-.467 2.868-.921 5.453c-2.83-.217-5.686 2.076-4.993 5.842l-8.958-1.522 9.206 11.755 2.16-8.356c5.105 1.964 5.21-.673 4.249-4.214l8.038-1.31z"/>
</svg>
