<?xml version="1.0" encoding="UTF-8"?>
<svg width="256" height="256" xmlns="http://www.w3.org/2000/svg" xmlns:xlink="http://www.w3.org/1999/xlink">
 <defs>
  <radialGradient id="l" cx="168.57" cy="276.25" r="108.01" gradientTransform="matrix(.99972 .02347 -.0251 1.0693 6.538 -21.654)" gradientUnits="userSpaceOnUse">
   <stop stop-color="#fff000" offset="0"/>
   <stop stop-color="#fc0" offset="1"/>
  </radialGradient>
  <linearGradient id="m" x1="161.68" x2="197.76" y1="626.86" y2="679.54" gradientTransform="translate(-16.328 -67.157) scale(1.1008)" gradientUnits="userSpaceOnUse">
   <stop stop-color="#404040" offset="0"/>
   <stop stop-color="#636363" offset="1"/>
  </linearGradient>
  <linearGradient id="n" x1="144.3" x2="175.5" y1="528.78" y2="548.53" gradientTransform="matrix(1.1271 .10242 -.10242 1.1271 38.06 -80.489)" gradientUnits="userSpaceOnUse">
   <stop stop-color="#b9a165" offset="0"/>
   <stop stop-color="#978045" offset="1"/>
  </linearGradient>
  <linearGradient id="o" x1="93.75" x2="108.25" y1="539.86" y2="551.36" gradientUnits="userSpaceOnUse" xlink:href="#g"/>
  <linearGradient id="r" x1="181.45" x2="213.01" y1="510.44" y2="528.69" gradientTransform="matrix(1.1317 0 0 1.1317 -21.149 -64.55)" gradientUnits="userSpaceOnUse" xlink:href="#g"/>
  <linearGradient id="s" x1="181.45" x2="213.01" y1="510.44" y2="528.69" gradientTransform="matrix(-1.1305 .05325 .05325 1.1305 310.15 -70.032)" gradientUnits="userSpaceOnUse" xlink:href="#g"/>
  <linearGradient id="g">
   <stop stop-color="#ffdb00" offset="0"/>
   <stop stop-color="#f60" offset="1"/>
  </linearGradient>
 </defs>
 <path d="m191.62 212.62c-5.694 6.396-44.28-14.842-52.744-13.533-9.37 1.45-45.191 33.246-53.875 29.439-7.844-3.439 1.355-45.86-2.506-53.504-4.274-8.464-47.955-33.881-47.018-43.317 0.846-8.522 44.366-16.933 50.443-22.967 6.729-6.68 18.138-54.042 27.401-56.066 8.367-1.828 29.212 41.204 36.829 45.119 8.433 4.335 56.069-2.723 60.856 5.462 4.325 7.392-26.112 40.384-27.481 48.838-1.517 9.36 14.4 53.446 8.095 60.529z"/>
 <path transform="scale(.78243) rotate(-7.323 -474.71 195.18)" d="M228 358.362c-8.26 7.182-52.436-26.027-63.378-25.746-12.115.312-59.507 35.421-69.895 29.18-9.382-5.636 8.55-57.912 4.901-68.231-4.04-11.426-52.076-45.649-49.35-57.457 2.46-10.665 57.72-9.765 66.406-16.424 9.618-7.373 27.322-63.633 39.394-64.69 10.904-.955 27.124 51.877 36.141 58.081 9.984 6.869 68.962 6.32 73.698 17.476 4.278 10.075-40.957 41.827-44.07 52.32-3.448 11.618 15.298 67.54 6.153 75.491z" fill="url(#l)"/>
 <path d="m95.374 180.21c0.779-1.168 10.703-20.237 12.065-20.432s25.296-6.032 26.464-5.448c1.167 0.583 16.929 2.918 16.929 2.918l15.567 8.562 11.286 14.4 1.167 11.87-33.274 4.864h-37.361c-2.335 0-12.843-16.734-12.843-16.734z"/>
 <path d="M136.824 153.349l-24.32 8.186-1.444 1.239c.099 1.26.662 8.686 1.273 16.614a157.366 157.366 0 019.631-2.89l-1.307-15.169 1.582-2.133s.683 8.456 1.342 16.89c3.485-.878 6.821-1.57 10.01-2.098l-1.238-14.62 1.547-2.132s.635 8.304 1.273 16.476c3.2-.483 6.249-.79 9.185-.963l-1.308-15.307 1.308-1.789-7.534-2.304zm7.809 2.407c.03.392.699 8.7 1.341 16.925a88.48 88.48 0 019.907.137l-1.17-13.45.345-.447-10.423-3.165zm11.833 3.612c.115 1.47.593 7.485 1.066 13.588 4.065.365 7.914.967 11.592 1.788l3.096 2.546c-4.483-1.417-9.33-2.343-14.585-2.752.008.111.026.13.035.24.507 6.513.904 11.894 1.204 16.03l.137 1.996c3.953-1.377 21.19-9.082 21.19-9.082l-12.83-21.017-10.905-3.337zm-47.023 4.816l-12.52 10.767 4.884 20.226 10.422 1.273-1.272-14.723a226.463 226.463 0 00-10.905 3.922l-.79-1.342c4.006-1.66 7.85-3.136 11.523-4.403l-1.342-15.72zm40.418 10.113a93.445 93.445 0 00-3.75.138c.715 9.168 1.411 18.425 1.411 19.194 0 1.557-1.376 0-1.376 0l-1.616-19.057c-2.955.221-6.011.56-9.185 1.067.74 9.492 1.48 19.164 1.48 19.95 0 1.558-1.377 0-1.377 0l-1.685-19.675c-3.218.556-6.563 1.277-10.01 2.133.723 9.29 1.41 18.7 1.41 19.47 0 .254-.042.407-.103.515l2.236.275s26.903-4.733 30.34-5.16l-1.617-18.712a81.787 81.787 0 00-6.158-.138zm-27.725 4.162a178.775 178.775 0 00-9.666 2.787c.46 5.995.967 12.377 1.17 15.376l10.629 1.307a6.716 6.716 0 01-.482-.413l-1.65-19.057z" fill="#fff"/>
 <path d="M140.47 140.38l-.137.138c-3.726 9.064-13.464 10.721-21.809 14.378-4.232-.262-8.146.907-13.209-3.095-.774 4.802-4.239 7.25-8.565 8.943 4.644 3.757 1.326 4.86 1.17 7.018-2.757 4.333-7.14 3.8-11.317 3.887-1.74 6.37-6.215 3.624-9.322 5.435 2.272 5.585 2.018 10.268-1.961 13.621.205 6.887-4.586 9.331-8.153 12.865 4.139 4.416 9.386 8.058 7.39 16.597 5.035 4.728 1.897 9.211-.785 13.743 4.99-.399 9.772-2.888 15.17.79 8.829-3.972 17.658-6.24 26.486-6.638 1.067-6.723 5.045-12.152 10.114-17.096 4.468-1.48 8.408 3.378 12.452 6.983.178-6.165 1.627-11.644 7.396-14.791 16.82 6.617 21.658 3.434 29.582 18.678 5.382-1.772 11.115-5.126 17.096-1.253 4.816-.451 9.821-2.43 15.961-.673-1.057-7.396-1.732-14.792 1.17-22.187-4.958-7.965-14.883-17.277-9.815-24.483-4.655-1.726-4.155-8.855-1.846-12.874-5.71-1.374-11.42-1.392-17.13-7.396-9.208 1.538-18.415 3.636-27.623 0-3.042-4.409-5.036-9.028-12.314-12.59zm-1.391 18.78c5.36 5.084 10.721 5.102 16.082 6.427-.064 7.165 8.738 11.798 14.342 17.344-4.81.899-8.683 4.423-15.548-.433-5.345 5.009-11.273 5.932-17.509 4.699-3.832 4.503-8.198 4.723-12.452 5.847-6.259-.972-7.788-5.254-9.728-9.249-4.153 3.126-8.306 1.27-12.46-.864 8.388-6.205 8.118-8.947 7.775-11.66 5.296-2.214 7.73-4.427 8.565-6.64 14.363 2.485 16.861-1.952 20.933-5.471z"/>
 <path transform="translate(-40.27 -464.64)" d="M181.243 607.034l-.137.138c-3.726 9.063-12.626 10.218-20.971 13.875-4.232-.262-7.978 1.41-13.041-2.593-.774 4.803-3.066 5.574-7.393 7.268 4.645 3.757.489 5.698.332 7.855-2.757 4.334-7.978 4.806-12.155 4.893-1.74 6.371-4.874 3.457-7.981 5.267 2.272 5.586 1.515 8.76-2.464 12.114.206 6.886-3.245 8.828-6.812 12.362 4.139 4.416 8.883 6.717 6.886 15.256 5.037 4.729 2.568 7.704-.114 12.235 4.99-.399 6.923-2.386 12.321 1.294 8.83-3.974 15.647-5.403 24.476-5.801 1.067-6.723 5.213-13.325 10.281-18.27 4.468-1.479 8.743 3.211 12.787 6.816.178-6.165 2.298-11.979 8.066-15.127 17.938 7.105 22.931 2.2 31.259 18.344 5.381-1.772 9.941-3.953 15.923-.08 4.815-.451 7.475-2.597 13.615-.841-1.058-7.396-2.57-12.445.331-19.841-4.957-7.964-13.542-15.768-10.149-23.645-4.823-3.401-3.988-8.687-1.68-12.706-5.71-1.374-8.906-.051-14.616-6.056-9.207 1.538-19.085 3.804-28.292.168-3.043-4.409-3.193-9.363-10.472-12.925zm-1.391 14.088c5.36 5.083 12.229 6.275 17.59 7.6-.064 7.165 8.905 14.646 14.51 20.193-4.81.898-10.191 5.596-17.057.74-5.344 5.008-10.937 4.926-17.174 3.693-3.831 4.503-8.868 4.89-13.122 6.015-6.258-.972-9.128-4.585-11.069-8.58-4.153 3.127-9.144-.74-13.297-2.874 8.388-6.205 6.944-11.461 6.601-14.174 5.297-2.213 8.735-4.426 9.571-6.64 14.364 2.485 19.375-2.454 23.447-5.973z" fill="url(#m)"/>
 <path d="M187.292 116.826c-4.273.92-6.89 3.333-9.093 6.5-.445-1.412-.85-2.854-1.5-4.031l-1.407.875c-.05.772.687 2.775 1.782 4.843-1.03 1.683-2.043 3.536-3.094 5.438-1.236-1.635-2.319-3.697-3.125-6.406l-1.219.718c.708 3.853 1.945 5.97 3.406 7.375-.839 1.46-1.74 2.941-2.78 4.407-1.171-2.02-2.275-4.257-3.626-5.782l-.719 1.438c1.34 1.477 2.418 3.532 3.563 5.437a34.566 34.566 0 01-3.125 3.563 30.366 30.366 0 01-2.563-3l-.53 1.406c.85.794 1.657 1.474 2.468 2.188a31.924 31.924 0 01-3.875 3.125l1.937.718a34.144 34.144 0 003.25-2.625 40.632 40.632 0 012.594 2.625l1.406-.718a20.216 20.216 0 01-3.406-2.47 30.098 30.098 0 002.875-3.187c1.475 2.096 3.22 3.622 5.844 3.188l.156-1.25c-2.27.447-3.842-.962-5.219-2.969 1.21-1.678 2.156-3.356 3.063-5.031 1.847 1.29 3.876 2.022 5.531 3.937l.719-1.25c-1.931-1.123-3.83-2.317-5.5-4.093.921-1.747 1.859-3.476 2.906-5.157 1.782 2.9 4.028 5.347 5.406 3.97l-.187-1.938c-2.392-.043-3.552-1.505-4.344-3.375 2.07-2.99 4.816-5.813 9.313-8.313l-.907-.156z"/>
 <path d="M114.261 59.607c-6.562 4.212-7.725 13.309-10.719 20.031-4.431 11.17-5.973 23.927-12.906 33.875-10.268 6.424-23.258 7.014-34.647 10.968-4.946 2.018-12.39 2.62-14.947 7.907.956 4.75 5.773 7.941 9.094 10.907 11.271-7.9 26.073-8.661 38.96-13.03 5.33-1.308 11.412-3.354 12.759-9.44 6.638-15.258 8.662-32.706 18.062-46.624 1.547-2.292 4.788-3.334 7.125-1.625-3.513-4.35-6.765-11.827-12.78-12.969z" fill="#fee800"/>
 <path d="M82.42 108c25.787 9.01 49.877 8.712 72.09-1.886-1.08-25.008-4.854-44.966-36.048-67.56C86.216 60.786 82.509 88.621 82.42 108z"/>
 <path transform="translate(-40.27 -458.64)" d="m126.86 564.46c25.787 9.01 42.218 8.585 64.43-2.014-1.478-24.852-2.596-37.696-32.691-60.72-32.246 22.233-31.65 43.357-31.74 62.734z" fill="url(#n)"/>
 <path d="M102.7 100.946c-.34 3.735-3.832 6.47-7.8 6.11-3.969-.36-6.91-3.68-6.571-7.415.34-3.735 3.831-6.47 7.8-6.11 3.968.36 6.91 3.68 6.57 7.415zM148.782 97.18c-.34 3.734-3.832 6.47-7.8 6.109-3.968-.36-6.91-3.68-6.57-7.416.339-3.735 3.83-6.47 7.799-6.11 3.968.361 6.91 3.681 6.57 7.416zM126.215 104.788c-.34 3.735-3.832 6.47-7.8 6.11-3.969-.361-6.91-3.681-6.57-7.416.338-3.735 3.83-6.47 7.799-6.11 3.968.361 6.91 3.681 6.57 7.416z"/>
 <path transform="matrix(.9061 .08234 -.08108 .89228 46.071 -397.42)" d="m110 548.86c0 3.314-2.854 6-6.375 6-3.52 0-6.375-2.686-6.375-6s2.854-6 6.375-6c3.52 0 6.375 2.686 6.375 6z" fill="url(#o)"/>
 <path transform="matrix(.9061 .08234 -.08108 .89228 91.36 -401.82)" d="m110 548.86c0 3.314-2.854 6-6.375 6-3.52 0-6.375-2.686-6.375-6s2.854-6 6.375-6c3.52 0 6.375 2.686 6.375 6z" fill="url(#o)"/>
 <path transform="matrix(.9061 .08234 -.08108 .89228 69.356 -394.16)" d="m110 548.86c0 3.314-2.854 6-6.375 6-3.52 0-6.375-2.686-6.375-6s2.854-6 6.375-6c3.52 0 6.375 2.686 6.375 6z" fill="url(#o)"/>
 <path d="M145.69 67.7s17.258 4.244 26.03-6.508c7.198-8.824-2.83-42.723-2.83-42.723S188.2 44.4 188.978 60.91c.905 19.23-37.684 31.218-38.196 29.426 0 0-11.034-10.469-5.093-22.635z"/>
 <path transform="translate(-40.27 -458.64)" d="m186.76 528.14s18.859 3.844 27.63-6.907c7.199-8.824-2.03-36.921-2.03-36.921s14.925 20.79 15.688 34.637c1.037 18.832-35.174 29.802-35.595 28.025 0 0-11.635-6.668-5.693-18.834z" fill="url(#r)"/>
 <path d="M90.804 71.31s-17.04 5.05-26.307-5.276c-7.606-8.476.816-42.81.816-42.81s-18.07 26.81-18.07 43.34c.001 19.25 39.112 29.41 39.54 27.595 0 0 10.529-10.977 4.021-22.85z"/>
 <path transform="translate(-40.27 -458.64)" d="M130.36 531.788s-18.658 4.727-27.925-5.6c-7.606-8.475.29-36.975.29-36.975s-13.93 21.47-14.04 35.337c-.15 18.86 36.537 28.114 36.874 26.319 0 0 11.308-7.208 4.8-19.08z" fill="url(#s)"/>
 <path d="m111.2 134.46c-2.37 4.448-9.427 5.317-15.764 1.942s-9.553-9.717-7.184-14.165c2.37-4.448 9.427-5.318 15.764-1.942 6.337 3.375 9.553 9.717 7.184 14.165z"/>
 <path d="m109.76 133.97c-2.11 3.96-8.265 4.803-13.749 1.882s-8.219-8.5-6.11-12.46c2.11-3.961 8.266-4.804 13.75-1.883 5.484 2.922 8.219 8.5 6.11 12.46z" fill="#fff"/>
 <path d="m106.22 131.65c-1.85 3.472-6.215 4.762-9.749 2.88-3.534-1.883-4.899-6.225-3.049-9.698s6.215-4.762 9.748-2.88c3.534 1.883 4.9 6.224 3.05 9.697z"/>
 <path d="M97.946 124.485c-.714 1.34-2.399 1.838-3.763 1.112-1.364-.727-1.89-2.402-1.176-3.743.714-1.34 2.398-1.838 3.762-1.111 1.364.726 1.891 2.402 1.177 3.742z" fill="#fff"/>
 <path d="m134.01 130.21c2.37 4.448 9.427 5.317 15.764 1.942s9.553-9.717 7.184-14.165c-2.37-4.448-9.427-5.318-15.764-1.942-6.337 3.375-9.553 9.717-7.184 14.165z"/>
 <path d="m135.45 129.72c2.11 3.96 8.265 4.803 13.749 1.882 5.483-2.921 8.219-8.5 6.109-12.46-2.11-3.961-8.265-4.804-13.749-1.883-5.484 2.922-8.219 8.5-6.11 12.46z" fill="#fff"/>
 <path d="m139.74 128.4c1.85 3.472 6.215 4.762 9.749 2.88 3.534-1.883 4.899-6.225 3.049-9.698s-6.215-4.762-9.749-2.88c-3.534 1.883-4.899 6.224-3.049 9.697z"/>
 <path d="M137.264 123.735c.714 1.34 2.399 1.838 3.763 1.112 1.364-.727 1.89-2.402 1.176-3.743-.714-1.34-2.398-1.838-3.762-1.111-1.364.726-1.891 2.402-1.177 3.742z" fill="#fff"/>
 <path d="M59.329 134.7l-1.029.552c-.007.935.053 1.795.147 2.608-1.175.436-2.429.838-3.967 1.139l.367 1.102c1.73.645 2.948.422 4.004-.11a15.462 15.462 0 002.498 5.4c-.43.084-.855.174-1.286.256l.404 1.102c.705.058 1.362.062 1.984.037 1.344 1.603 2.818 3.047 4.15 4.665l1.03-.514c-.991-1.567-2.049-2.96-3.086-4.408 2.104-.478 3.615-1.553 4.665-3.086l-.441-1.102c-1.53 1.364-3.366 2.104-5.326 2.608-1.118-1.693-2.142-3.583-2.976-5.987.782-.593 1.532-1.21 2.461-1.543l-.367-1.139c-.921.32-1.757.689-2.608 1.029a31.406 31.406 0 01-.624-2.608z" font-family="Sans" font-weight="400" overflow="visible" style="block-progression:tb;text-indent:0;text-transform:none"/>
</svg>
