<?xml version="1.0" encoding="UTF-8"?>
<svg width="256" height="256" xmlns="http://www.w3.org/2000/svg" xmlns:xlink="http://www.w3.org/1999/xlink">
 <defs>
  <radialGradient id="l" cx="168.57" cy="276.25" r="108.01" gradientTransform="matrix(.99972 .02347 -.0251 1.0693 6.538 -21.654)" gradientUnits="userSpaceOnUse">
   <stop stop-color="#fff000" offset="0"/>
   <stop stop-color="#fc0" offset="1"/>
  </radialGradient>
  <radialGradient id="r" cx="512" cy="258.43" r="17.454" gradientTransform="matrix(-.52996 -1.1745 .85049 -.38376 570.05 961.12)" gradientUnits="userSpaceOnUse">
   <stop stop-color="#ffdb00" offset="0"/>
   <stop stop-color="#f60" offset="1"/>
  </radialGradient>
  <linearGradient id="m" x1="479.75" x2="500.75" y1="220.61" y2="252.11" gradientUnits="userSpaceOnUse" xlink:href="#f"/>
  <linearGradient id="t" x1="420" x2="422" y1="325.61" y2="332.74" gradientUnits="userSpaceOnUse" xlink:href="#f"/>
  <linearGradient id="s" x1="419.84" x2="421.26" y1="333.41" y2="341.9" gradientUnits="userSpaceOnUse" xlink:href="#f"/>
  <linearGradient id="q" x1="474.1" x2="498.21" y1="260.07" y2="287.57" gradientUnits="userSpaceOnUse" xlink:href="#f"/>
  <linearGradient id="p" x1="515.15" x2="538.39" y1="267.22" y2="293.47" gradientUnits="userSpaceOnUse" xlink:href="#f"/>
  <linearGradient id="o" x1="542.13" x2="552.99" y1="236.51" y2="260.26" gradientUnits="userSpaceOnUse" xlink:href="#f"/>
  <linearGradient id="n" x1="520.12" x2="535.06" y1="205.58" y2="233.08" gradientUnits="userSpaceOnUse" xlink:href="#f"/>
  <linearGradient id="f">
   <stop stop-color="#d40000" offset="0"/>
   <stop stop-color="#ff0d00" offset="1"/>
  </linearGradient>
 </defs>
 <path d="m207.88 207.82c-7.883 6.94-49.422-25.82-59.867-24.719-10.309 1.088-48.15 44.35-57.07 39.067-9.036-5.353 11.144-58.581 6.869-68.173-4.22-9.47-54.91-28.471-52.642-38.586 2.298-10.248 56.632-6.626 64.434-13.656 7.7-6.94 10.723-64.18 21.045-65.148 10.456-0.98 25.368 54.431 34.466 59.679 8.98 5.18 62.926-10.838 67.036-1.32 4.165 9.64-42.588 39.997-44.767 50.27-2.152 10.142 28.277 55.736 20.496 62.586z"/>
 <path transform="rotate(-4.549 -978.35 69.921) scale(.83639)" d="M228 358.362c-10.053 7.524-55.719-39.028-68.271-38.704-12.39.319-54.872 49.28-65.002 42.139-10.262-7.236 19.9-65.052 15.713-76.89-4.132-11.686-63.825-36.958-60.163-48.8 3.71-11.995 68.018-1.175 77.983-8.815 9.836-7.542 15.425-72.123 27.819-72.299 12.555-.178 22.137 64.326 32.482 71.442 10.212 7.025 73.36-7.617 77.356 4.116 4.05 11.886-54.336 40.931-57.907 52.97-3.525 11.882 29.913 67.414 19.99 74.841z" fill="url(#l)"/>
 <path d="m159.98 76.697s-5.65 6.973 4.506 12.104 16.762 2.144 16.646-3.165c-0.115-5.309-4.427-12.116-7.955-13.347-22.387-7.813-12.062 4.743-13.197 4.408z"/>
 <path transform="matrix(-.41291 -.12192 .12192 -.41291 342.71 237.77)" d="M482.313 215.094c-16.315.078-22.36 7.984-19.313 17.531 3.75 11.75 16.082 22.078 24.75 22.5 1.588.077 3.09.146 4.531.188-.507-1.426-.643-2.762-.281-3.938 0 0 9.66-11.867 18.688-13.781.002-.003.029.003.03 0 1.768-3.42 7.212-17.076-15.468-21.219-4.875-.89-9.173-1.3-12.938-1.281z" fill="url(#m)"/>
 <path d="M159.715 76.842s4.278 4.518-.076 8.62c-4.353 4.1-5.222 10.466-11.656 5.648-6.433-4.818-9.632-12.608-4.704-14.856 4.929-2.248 9.51-3.701 10.998-3.038 1.487.664 4.875 2.113 4.983 3.267.108 1.155.455.36.455.36z"/>
 <path d="M154.21 72.299s5.006 1.615-3.67 2.17c-8.122.52-8.054.8-11.35-2.228-4.679-4.3-3.943-10.592-.31-11.876 3.634-1.284 17.868 2.583 17.16 5.74-.708 3.158-.469 6.147-1.83 6.194z"/>
 <path d="m157.85 67.2c-4.632-2.938-11.272-7.817-8.084-12.15 3.187-4.334 6.574-7.823 11-4.945 4.424 2.878 9.07 9.188 6.028 13.789-3.042 4.6-7.997 3.138-8.944 3.307z"/>
 <path d="m168.5 71.804c2.21 0.877 6.872 3.713 11.179 3.189s6.465-2.132 5.826-6.81c-0.639-4.677-11.458-15.166-14.078-13.134s-6.473 9.76-6.116 11.212c0.356 1.452 0.566 4.544 3.189 5.543z"/>
 <path transform="matrix(-.41291 -.12192 .12192 -.41291 342.71 237.77)" d="m515.25 235.61c2.394 3.592-9.682-2.647-4.25-17 4.917-12.993 1.25-24.75 18.75-18.25s27.25 19.25 17.75 27.5-15.75 15.25-19.5 14.75-10.25-3-11.25-5.5-1.5-1.5-1.5-1.5z" fill="url(#n)"/>
 <path transform="matrix(-.41291 -.12192 .12192 -.41291 342.71 237.77)" d="M534.5 245.612s-16.713-.306 2.25-7.25c17.75-6.5 15.665-5.58 25-1 13.25 6.5 13.75 16.25 6.5 21.5s-37.25 7-37.75-.5 1-11.75 4-12.75z" fill="url(#o)"/>
 <path transform="matrix(-.41291 -.12192 .12192 -.41291 342.71 237.77)" d="m524.5 260.61c12.25 3.5 27 8.25 22.75 20s-6 18.25-17.75 14.75-23.75-11.5-20-23.75 13-10 15-11z" fill="url(#p)"/>
 <path transform="matrix(-.41291 -.12192 .12192 -.41291 342.71 237.77)" d="m494 256.61c-5.5-0.5-14-3-23.25 1s-11 6.75-6.5 16.75 31.75 22.25 36.25 16 6.75-22.25 5-25.25-5-8-11.5-8.5z" fill="url(#q)"/>
 <path d="M170.208 73.993s-6.188 4.233-10.171 3.28c-3.984-.95-7.724-2.729-6.94-7.66.782-4.931 8.185-9.479 11.474-6.936 3.29 2.542 7.256 8.875 5.637 11.316z"/>
 <path transform="matrix(-.41291 -.12192 .12192 -.41291 342.71 237.77)" d="m495.5 251.86s8.5-12.25 18-12.75 15-1.5 16.5 10-8.5 25.25-17.5 21.75-19-12.5-17-19z" fill="url(#r)"/>
 <path d="M109.516 158.757c7.304-2.96 12.02-4.006 19.619-11.915 6.2 3.632 12.656-.693 16.06-2.581 7.875 5.112 15.623 6.277 24.665 7.297-24.14 6.69-38.102 11.245-59.613 8.193-.26-.037-.47-.956-.731-.994z"/>
 <path d="m110.27 159.74c-1.2-1.816 13.738 0.238 28.413-1.725 15.784-2.111 31.454-8.114 32.046-6.183 3.6 11.729-48.762 27.384-60.459 7.908z"/>
 <path transform="matrix(1.409 .08366 -.08366 1.409 -426.14 -345.3)" d="m402.2 334.9c-0.926-1.234 8.35 0.216 18.647-1.788 11.074-2.156 19.854-6.915 20.404-5.594 2.712 6.512-30.3 18.964-39.051 7.382z" fill="url(#s)"/>
 <path transform="matrix(1.409 .08366 -.08366 1.409 -426.14 -345.3)" d="m402.75 333.61c5.042-2.4 5.958-1.588 11-7.5 4.537 2.308 8.797-1.021 11.125-2.5 5.784 3.285 8.937 2.908 15.375 3.25-7.646 2.616-15.105 4.957-18.493 4.283-4.55 2.493-8.586 2.324-19.007 2.467z" fill="url(#t)"/>
 <path d="M131.739 42.614c-5.562 3.406-5.447 11.614-7.249 17.337-3.232 14.311-3.125 29.57-9.186 43.06-5.388 6.105-15.041 4.546-22.381 5.879-13.77 1.605-28.696.015-41.456 5.678-3.91 2.36 1.222 7.356 3.474 7.884 13.573-6.378 29.472-4.322 44.054-6.222 6.346-1.208 14.592.177 19.382-4.869 7.638-18.239 5.32-39.357 13.496-57.523 1.207-2.815 4.764-5.066 7.65-2.973-1.958-2.865-3.793-7.936-7.784-8.25z" fill="#fee300"/>
 <path d="M83.872 100.049c7.442-.435 9.815 4.472 12.794 8.732 1.692-1.21 3.471-2.504 5.497-3.862-.934-2.806-3.157-5.252-6.633-7.353 5.18.868 6.993 3.425 8.346 6.226a52.306 52.306 0 014.86-2.754c-1.05-2.096-2.592-4.01-5.372-5.52 1.43-.723 4.959 2.123 7.25 4.646 7.756-3.283 16.125-3.287 22.516 7.9-17.964 33.536-41.798 4.085-41.798 4.085 1.033-.456 2.35-1.284 3.815-2.301-2.29-4.344-4.935-8.427-11.275-9.8z"/>
 <path d="m130.92 108.33c-12.625-18.63-29.613 1.021-37.386 3.563-0.411-1.39 18.307 26.204 37.386-3.563z" fill="#fff"/>
 <path d="m125.08 111.56c0 5.978-5.145 10.823-11.491 10.823-6.347 0-11.491-4.845-11.491-10.823 0-5.977 5.144-10.823 11.49-10.823 6.347 0 11.492 4.846 11.492 10.823z"/>
 <path d="m113.85 111.1c0 3.284-2.842 5.946-6.347 5.946s-6.347-2.662-6.347-5.946 2.842-5.946 6.347-5.946 6.347 2.662 6.347 5.946z" fill="#fff"/>
 <path d="M191.03 89.4c-7.348 1.26-8.549 6.577-10.487 11.4-1.921-.795-3.947-1.653-6.228-2.517.275-2.945 1.887-5.83 4.797-8.664-4.849 2.018-6.037 4.919-6.72 7.953a52.309 52.309 0 00-5.357-1.582c.548-2.28 1.617-4.492 3.982-6.593-1.557-.38-4.349 3.19-6.01 6.166-8.297-1.442-16.45.448-20.143 12.791 25.087 28.6 41.638-5.48 41.638-5.48-1.11-.21-2.58-.719-4.237-1.378 1.247-4.75 2.9-9.325 8.764-12.097z"/>
 <path d="m147.07 108.12c8.082-21.005 29.076-5.707 37.222-4.99 0.086-1.448-11.901 29.667-37.222 4.99z" fill="#fff"/>
 <path d="m175.35 107.47c0 5.977-5.145 10.823-11.491 10.823-6.347 0-11.492-4.846-11.492-10.823 0-5.978 5.145-10.823 11.492-10.823 6.346 0 11.49 4.845 11.49 10.823z"/>
 <path d="m164.39 105.53c0 3.283-2.842 5.945-6.347 5.945s-6.347-2.662-6.347-5.946 2.842-5.946 6.347-5.946 6.347 2.662 6.347 5.946z" fill="#fff"/>
</svg>
