<?xml version="1.0" encoding="UTF-8"?>
<svg width="256" height="256" xmlns="http://www.w3.org/2000/svg" xmlns:xlink="http://www.w3.org/1999/xlink">
 <defs>
  <radialGradient id="w" cx="706.22" cy="807.7" r="18.885" gradientTransform="matrix(-1.4603 -.74887 .38408 -.74897 1427.3 1940.8)" gradientUnits="userSpaceOnUse" xlink:href="#a"/>
  <radialGradient id="m" cx="168.57" cy="276.25" r="108.01" gradientTransform="matrix(.99972 .02347 -.0251 1.0693 6.538 -21.654)" gradientUnits="userSpaceOnUse" xlink:href="#a"/>
  <radialGradient id="n" cx="704.86" cy="715.06" r="14.641" gradientTransform="matrix(-1.0814 -.9358 .52925 -.61158 1082.8 1814.1)" gradientUnits="userSpaceOnUse" xlink:href="#a"/>
  <radialGradient id="k" cx="674" cy="696.39" r="27.994" gradientTransform="matrix(-.2322 -1.4735 .83426 -.13146 249.52 1781.1)" gradientUnits="userSpaceOnUse" xlink:href="#b"/>
  <radialGradient id="p" cx="687.05" cy="708.42" r="9.683" gradientTransform="matrix(.77988 .28301 -.20762 .57212 297.81 107.45)" gradientUnits="userSpaceOnUse" xlink:href="#a"/>
  <radialGradient id="q" cx="687.37" cy="715.9" r="10.189" gradientTransform="matrix(1 0 0 .60143 0 285.13)" gradientUnits="userSpaceOnUse" xlink:href="#a"/>
  <radialGradient id="r" cx="695.66" cy="722.55" r="9.684" gradientTransform="matrix(1 0 0 .74705 1.25 183.46)" gradientUnits="userSpaceOnUse" xlink:href="#a"/>
  <linearGradient id="a">
   <stop stop-color="#fff000" offset="0"/>
   <stop stop-color="#fc0" offset="1"/>
  </linearGradient>
  <linearGradient id="o" x1="695.5" x2="689.5" y1="720.36" y2="722.36" gradientUnits="userSpaceOnUse">
   <stop stop-color="#b9a165" offset="0"/>
   <stop stop-color="#978045" offset="1"/>
  </linearGradient>
  <linearGradient id="v" x1="694.02" x2="695.79" y1="802.22" y2="800.81" gradientUnits="userSpaceOnUse" xlink:href="#f"/>
  <linearGradient id="x" x1="660.79" x2="664.15" y1="759.97" y2="757.32" gradientUnits="userSpaceOnUse" xlink:href="#f"/>
  <linearGradient id="y" x1="721.07" x2="727.79" y1="830.51" y2="830.15" gradientTransform="translate(-1.503 -.884)" gradientUnits="userSpaceOnUse" xlink:href="#d"/>
  <linearGradient id="s" x1="608.11" x2="628.44" y1="810.18" y2="815.3" gradientUnits="userSpaceOnUse" xlink:href="#g"/>
  <linearGradient id="t" x1="607.85" x2="616.07" y1="801.11" y2="800.58" gradientUnits="userSpaceOnUse" xlink:href="#g"/>
  <linearGradient id="u" x1="721.07" x2="727.79" y1="830.51" y2="830.15" gradientTransform="scale(-1 1) rotate(73.01 2.073 -138.22)" gradientUnits="userSpaceOnUse" xlink:href="#d"/>
  <linearGradient id="d">
   <stop stop-color="#d40000" offset="0"/>
   <stop stop-color="#ff0d00" offset="1"/>
  </linearGradient>
  <linearGradient id="b">
   <stop stop-color="#fff" offset="0"/>
   <stop stop-color="#d5d5d5" offset="1"/>
  </linearGradient>
  <linearGradient id="f">
   <stop stop-color="#404040" offset="0"/>
   <stop stop-color="#636363" offset="1"/>
  </linearGradient>
  <linearGradient id="g">
   <stop stop-color="#27a027" offset="0"/>
   <stop stop-color="#2beb2b" offset="1"/>
  </linearGradient>
 </defs>
 <path d="m85.212 72.418s4.816 28.375 14.096 31.022c9.28 2.648 8.95-20.204 8.95-20.204l12.656-8.243c17.517-9.75 15.678-15.382-8.463-4.024 47.868-22.781 12.665-17.197-1.624-9.273 45.5-20.856 5.453-12.41-3.85-9.503-4.66 1.456-22.146 2.201-21.765 20.225z"/>
 <path transform="rotate(-20.65 -1313.1 1929.4)" d="M651.487 685.57s-6.207 26.482 1.543 32.232 14.44-16.811 14.44-16.811l14.75-1.66c19.83-2.946 17.62-7.273-9.682-5.865 53.534-5.85 20.39-10.565.866-9.427 50.108-5.061 14.075-8.628 4.346-9.19-4.875-.28-20.263-6.28-26.263 10.72z" fill="url(#k)"/>
 <path d="m164.86 67.15s-7.036 27.907 0.388 34.072 16.338-14.88 16.338-14.88l14.906-2.438c19.961-1.858 20.55-7.753-6.121-7.095 52.99-1.542 18.524-10.629 2.253-9.14 50.046-0.736 9.994-9.157 0.31-10.25-4.852-0.546-21.153-6.916-28.074 9.73z"/>
 <path transform="rotate(3.134 11699 -8496.3)" d="M651.487 685.57s-6.207 26.482 1.543 32.232 14.44-16.811 14.44-16.811l14.75-1.66c19.83-2.946 17.62-7.273-9.682-5.865 53.534-5.85 20.39-10.565.866-9.427 50.108-5.061 14.075-8.628 4.346-9.19-4.875-.28-20.263-6.28-26.263 10.72z" fill="url(#k)"/>
 <path d="M188.61 206.124c-10.005 7.609-39.59-26.714-52.148-27.279-13.88-.625-46.24 28.792-57.656 20.872-10.328-7.164 12.393-41.978 9.05-54.095-3.696-13.394-40.8-35.738-36.796-49.042 3.623-12.037 44.173-1.548 54.664-8.471 11.597-7.654 21.949-51.27 35.84-51.574 12.566-.275 14.211 43.808 24.038 51.647 10.862 8.663 55.946 3.721 60.527 16.839 4.145 11.867-36.783 26.43-41.2 38.198-4.884 13.008 14.741 54.495 3.682 62.905z"/>
 <path transform="scale(.78243) rotate(4.05 1637.1 438.85)" d="M228 358.362c-12.069 10.604-47.318-29.774-63.378-29.36-17.752.456-54.626 41.86-69.895 32.795-13.814-8.202 13.695-54.203 8.34-69.35-5.92-16.741-56.693-39.016-52.79-56.34 3.532-15.671 55.782-3.724 68.532-13.498 14.093-10.804 19.588-65.975 37.27-67.616 15.996-1.484 20.78 51.901 34.015 61.006 14.63 10.065 68.799-1.757 75.823 14.552 6.355 14.755-42.939 35.801-47.508 51.203-5.052 17.024 22.931 64.888 9.591 76.608z" fill="url(#m)"/>
 <path d="M140.135 41.01c-8.763 2.83-11.368 13.316-15.247 20.727-5.135 10.17-7.655 22.999-17.065 30.18-12.78 4.672-26.886.204-40.188.937-4.853.003-14.3.685-13.187 7.718.419 2.88 2.943 6.985 4.437 7.657 1.412-7.452 11.237-7.426 17.188-7.47 12.344-.477 25.451 3.452 37.312-.75 9.461-8.01 11.772-21.322 17.351-31.917 3.813-7.238 7.173-17.934 16.43-19.207 2.397-.014-1.472-4.57-2.468-5.938-1.131-1.33-2.77-2.184-4.563-1.937z" fill="#fee800"/>
 <path d="m48.249 137.77c15-3.077 13.123-5.715 21.783-0.557s5.26 22.1-3.073 22.79c-8.332 0.69-27.929-12.759-18.71-22.233z"/>
 <path d="M60.628 75.958c-13.742 23.754-16.17 52.206-8.525 76.406 7.644 24.199 25.378 44.181 51.837 50.929 3.917-1.133 2.189-2.333.854-3.995-26.104-6.657-37.053-23.311-44.611-47.238-7.559-23.927-9.656-49.238 3.938-72.736 1.228-4.118-.51-5.194-3.493-3.366z" font-family="Sans" font-weight="400" overflow="visible" style="block-progression:tb;text-indent:0;text-transform:none"/>
 <path transform="rotate(5.761 6013 -5866.7)" d="m681.72 707.39c14.615-4.567 10.888-6.334 20.022-2.071 9.135 4.262 6.422 17.977-1.799 19.5-8.22 1.522-26.443-7.077-18.223-17.429z" fill="url(#n)"/>
 <path transform="rotate(5.761 6013 -5866.7)" d="M687.75 644.498c-11.29 25.013-9.61 52.859.424 76.168 10.035 23.31 27.21 39.997 54.213 44.055 3.783-1.52 1.237-.95-.258-2.47-26.641-4.003-38.853-19.474-48.775-42.522-9.922-23.047-14.903-48.373-3.736-73.117.809-4.22.916-4.232-1.869-2.114z" fill="url(#o)" font-family="Sans" font-weight="400" overflow="visible" style="block-progression:tb;text-indent:0;text-transform:none"/>
 <path d="M50.417 131.628s-6.474-.038-8.205 4.715c-3.615 9.933 17.504 7.408 18.9 3.352-.2-4.991-7.599-8.34-10.695-8.067z"/>
 <path d="M45.37 142.258s-6.163-.033-5.801 3.593c1.35 13.53 20.704 4.783 20.474-.775-.177-4.286-8.86-4.209-14.673-2.818z"/>
 <path d="M53.225 151.02s-5.722 1.41-4.731 4.918c3.428 12.135 24.773 4.258 18.15-5.681-2.378-3.57-8.13-2.023-13.419.764z"/>
 <path transform="rotate(5.761 6013 -5866.7)" d="m682.65 702.9s-2.63-1.257-4.645 3.383c-3.456 7.963 11.902 1.057 14.42 0.981-0.699-4.946-6.721-4.946-9.775-4.364z" fill="url(#p)"/>
 <path transform="rotate(5.761 6013 -5866.7)" d="M680.215 712.609s-6.266-.452-5.411 3.091c2.46 10.197 17.264.727 16.64-2.674-.775-4.219-5.584-2.385-11.229-.417z" fill="url(#q)"/>
 <path transform="rotate(5.761 6013 -5866.7)" d="M688.91 720.386s-3.736.81-2.69 4.302c2.659 8.885 18.676.39 12.769-6.409-2.814-3.238-5.096-1.196-10.078 2.107z" fill="url(#r)"/>
 <path d="M59.076 79.508l-.162.989c.83.93 1.625 2.032 2.935.484 10.756 40.46 25.77 78.916 39.843 117.814-3.01.617-3.007 1.539-2.794 2.482l.68.728c1.836-.902 3.527-1.805 3.038-2.709l.24-.196-.094-.323L62.695 80.376l-.096-.293-.311-.031c-1.27.26-2.241-.14-3.212-.544z" font-family="Sans" font-weight="400" overflow="visible" style="block-progression:tb;text-indent:0;text-transform:none"/>
 <path d="m168.2 99.56c0 8.146-6.94 14.75-15.5 14.75s-15.5-6.604-15.5-14.75c0-8.147 6.94-14.75 15.5-14.75s15.5 6.603 15.5 14.75z"/>
 <path d="m166.95 99.685c0 7.524-6.38 13.625-14.25 13.625s-14.25-6.1-14.25-13.625 6.38-13.625 14.25-13.625 14.25 6.1 14.25 13.625z" fill="#fff"/>
 <path d="m157.45 101.94c0 4.21-3.75 7.625-8.375 7.625-4.626 0-8.375-3.414-8.375-7.625 0-4.212 3.75-7.625 8.375-7.625s8.375 3.413 8.375 7.625z"/>
 <path d="m149.45 95.407c0 2.262-2.015 4.097-4.5 4.097-2.486 0-4.5-1.835-4.5-4.097 0-2.263 2.014-4.097 4.5-4.097 2.485 0 4.5 1.834 4.5 4.097z" fill="#fff"/>
 <path d="m140.44 195.62s-26.694-9.37-18.74-25.102c4.062-8.032 13.714-9.668 22.098-4.773 7.451 4.35-8.997 21.982-3.359 29.875z"/>
 <path transform="translate(-483.05 -636.3)" d="m622.25 830.51c0.404-1.48-22.905-10.767-15.91-22.98 4.473-7.81 10.708-9.492 19.092-4.597 7.451 4.351-8.82 19.684-3.182 27.577z" fill="url(#s)"/>
 <path d="M131.6 177.234c-2.004-2.585-9.17-21.053-6.01-23.511 1.04-1.703 3.214-1.517 5.657-.884-4.41 9.8.125 16.404 1.767 24.042z"/>
 <path transform="translate(-483.05 -636.3)" d="M615.006 812.741c-2.004-2.585-8.994-19.904-5.834-22.362 1.041-1.702 1.89-1.517 4.332-.884-4.41 9.8.301 15.52 1.944 23.158z" fill="url(#t)"/>
 <path d="M177.586 173.95c.553.87.616 10.24.616 10.24l12.07 8.71-1.698-11.097z"/>
 <path transform="rotate(-18.456 -1554 2139)" d="m711.01 825c0.25 1-2.258 7.997-2.258 7.997l7.565 10.63 1.536-8.958z" fill="url(#u)"/>
 <path d="m112.02 131.58 78.283 53.077c0.898-1.13 2.409-1.446 2.514-3.634l-78.953-52.295z"/>
 <path transform="rotate(-18.456 -1554 2139)" d="m663.8 763.33 55.508 72.479c1.21-0.788 1.33 0.628 2.122-1.414l-57.276-73.01z" fill="url(#v)"/>
 <path d="m155.66 144.81c-12.532-1.794-24.636 17.954-15.18 17.07-6.434 7.874 3.81 15.157 14.593 8.465 0 0-3.344 8.992 6.876 4.415 9.94-4.452 24.21-28.447-6.29-29.95z"/>
 <path transform="rotate(-18.456 -1554 2139)" d="m699.94 790.94c-11.32-5.67-27.108 6.403-17.858 8.557-8.597 5.433-2.07 14.347 10.278 11.413 0 0-6.513 6.903 4.594 5.48 9.782-1.251 27.248-15.067 2.986-25.45z" fill="url(#w)"/>
 <path d="m112.86 135.77c2.994 3.366 7.984-5.396 6.929-8.835-0.36-1.17-16.932-7.014-19.344-4.912 1.456 5.478 6.53 9.748 12.415 13.747z"/>
 <path transform="rotate(-18.456 -1554 2139)" d="M661.322 764.04c1.774 4.14 7.514.06 7.601-3.536.03-1.223-11.012-11.13-13.965-9.9-.353 5.657 2.047 7.779 6.364 13.435z" fill="url(#x)"/>
 <path d="m178.76 173.78c1.006 0.223 9.837-2.91 9.837-2.91l12.302 8.38-11.012 2.184z"/>
 <path transform="rotate(-18.456 -1554 2139)" d="M713.382 824.32c.884.53 8.309.177 8.309.177l7.955 10.341-9.016-1.149z" fill="url(#y)"/>
 <path d="M109.321 124.93c-.587-.517-4.987-2.069-6.187-1.769-.17 2.869 1.514 4.345 3.182 5.834 0 0-2.121-5.127 3.005-4.066z" fill="#fff"/>
 <path d="m127.45 97.56c0 8.146-6.94 14.75-15.5 14.75s-15.5-6.604-15.5-14.75c0-8.147 6.94-14.75 15.5-14.75s15.5 6.603 15.5 14.75z"/>
 <path d="m126.2 97.685c0 7.524-6.38 13.625-14.25 13.625s-14.25-6.1-14.25-13.625 6.38-13.625 14.25-13.625 14.25 6.1 14.25 13.625z" fill="#fff"/>
 <path d="m116.7 99.935c0 4.21-3.75 7.625-8.375 7.625-4.626 0-8.375-3.414-8.375-7.625 0-4.212 3.75-7.625 8.375-7.625s8.375 3.413 8.375 7.625z"/>
 <path d="m108.7 93.407c0 2.262-2.015 4.097-4.5 4.097-2.486 0-4.5-1.835-4.5-4.097 0-2.263 2.014-4.097 4.5-4.097 2.485 0 4.5 1.834 4.5 4.097z" fill="#fff"/>
</svg>
