<?xml version="1.0" encoding="UTF-8"?>
<svg width="256" height="256" xmlns="http://www.w3.org/2000/svg" xmlns:xlink="http://www.w3.org/1999/xlink">
 <defs>
  <radialGradient id="l" cx="163.94" cy="284.48" r="108.01" gradientTransform="matrix(1.0021 -.00822 .0228 1.1172 -6.839 -33.021)" gradientUnits="userSpaceOnUse">
   <stop stop-color="#fff000" offset="0"/>
   <stop stop-color="#fc0" offset="1"/>
  </radialGradient>
  <radialGradient id="n" cx="455.34" cy="326.36" r="33.596" gradientTransform="matrix(1 0 0 .54758 0 150.9)" gradientUnits="userSpaceOnUse" xlink:href="#b"/>
  <radialGradient id="m" cx="506.75" cy="320.34" r="32.75" gradientTransform="matrix(1 0 0 .59607 0 137.4)" gradientUnits="userSpaceOnUse" xlink:href="#b"/>
  <radialGradient id="q" cx="502.11" cy="260.34" r="26.274" gradientTransform="matrix(.79551 .4412 -.42087 .75885 209.13 -150.23)" gradientUnits="userSpaceOnUse" xlink:href="#b"/>
  <radialGradient id="r" cx="502.11" cy="260.34" r="26.274" gradientTransform="matrix(-.73157 .19305 .18415 .69785 770.56 -16.417)" gradientUnits="userSpaceOnUse" xlink:href="#b"/>
  <linearGradient id="s" x1="367.67" x2="378.27" y1="330.75" y2="342.06" gradientUnits="userSpaceOnUse" xlink:href="#b"/>
  <linearGradient id="o" x1="238.47" x2="225.73" y1="552.31" y2="569.94" gradientUnits="userSpaceOnUse">
   <stop stop-color="#404040" offset="0"/>
   <stop stop-color="#636363" offset="1"/>
  </linearGradient>
  <linearGradient id="p" x1="271.82" x2="274.26" y1="524.11" y2="532.18" gradientUnits="userSpaceOnUse">
   <stop stop-color="#b9a165" offset="0"/>
   <stop stop-color="#978045" offset="1"/>
  </linearGradient>
  <linearGradient id="b">
   <stop stop-color="#fff" offset="0"/>
   <stop stop-color="#d5d5d5" offset="1"/>
  </linearGradient>
 </defs>
 <path d="M191.147 206.267c-7.759 4.952-51.675-30.668-61.26-31.498-10.595-.917-55.723 24.322-64.327 18.41-7.784-5.348 15.427-50.126 13.053-58.681-2.623-9.456-44.936-41.227-41.678-50.354 2.947-8.257 55.7-.513 63.82-4.97 8.974-4.928 27.42-53.374 38.037-53.103 9.605.246 23.175 48.51 30.566 54.309 8.17 6.41 64.337 10.75 67.642 20.044 2.989 8.409-45.54 31.75-49.091 39.792-3.925 8.89 11.813 60.578 3.238 66.051z"/>
 <path transform="matrix(.856 .09428 -.07745 .7786 17 -102.34)" d="M228 358.362c-8.396 7.376-52.206-29.648-63.378-29.36-12.349.317-59.273 39.101-69.895 32.795-9.61-5.706 12.065-58.813 8.34-69.35-4.12-11.646-55.505-44.288-52.79-56.34 2.457-10.902 59.662-6.699 68.532-13.498 9.804-7.516 24.97-66.474 37.27-67.616 11.127-1.032 24.808 54.672 34.015 61.006 10.178 7.002 70.937 3.206 75.823 14.552 4.421 10.264-44.33 40.489-47.508 51.203-3.514 11.842 18.871 68.455 9.591 76.608z" fill="url(#l)"/>
 <path d="M137.804 34.114c-8.406 4.163-12.06 13.93-17.122 21.336-6.148 9.21-10.073 20.623-18.815 27.633-11.521 3.256-23.94.383-35.781.555-7.611.402-16.667-1.767-23.282 2.663-1.007 4.728 5.258 10.197 6.625 11.907-2.716-3.33-1.26-8.56 3.281-9 18.09-3.668 37.051 1.963 55.094-1.125 8.018-5.488 11.252-15.838 16.632-23.657 5.749-8.788 10.018-19.636 19.18-25.343-1.24-1.988-2.942-5.475-5.812-4.97zm31.969 53.844c4.998 5.443 13.796 4.843 20.444 6.918 11.608 2.038 24.767 4.415 35.306 7.113-7.89-6.511-19.166-6.619-28.813-9.063-9.083-1.74-18.265-3.065-27.218-5.406l.28.438zm-86.406 46.28c1.343 8.858-4.39 17.273-6.83 25.62-2.711 8.606-8.202 17.576-6.67 26.725 1.454 2.23 6.59 2.546 5.727-1.294 2.996-14.621 11.78-27.794 13.648-42.519-.334-3.359-4.676-7.42-5.875-8.531z" fill="#fee800"/>
 <path d="m105.62 139.16c16.853-2.92 33.705-0.618 50.558 3.005 0 0-32.703 37.3-50.558-3.005z"/>
 <path d="m130.05 135.85s1.25-13 16.75-15.25c25.803-1.435 32.312 36.542 55.75 30.75 0 0-15 13.5-27.75 12.75-18.305-1.076-43.75-1.25-44.75-28.25z"/>
 <path transform="translate(-342.45 -185.51)" d="M474 321.362s0-10.25 15.5-12.5c25.803-1.436 26.562 34.79 50 29 0 0-10.25 10-19.75 10-18.337 0-44.75.5-45.75-26.5z" fill="url(#m)"/>
 <path d="m130.7 135.96s0.922-12.401-14.117-16.779c-25.354-5-36.379 30.271-58.788 21.287 0 0 11.765 14.824 21.173 16.142 18.16 2.542 46.998 5.95 51.732-20.65z"/>
 <path transform="translate(-342.45 -185.51)" d="m471.4 320.47s1.422-10.15-13.617-14.528c-25.354-5-31.13 30.772-53.538 21.787 0 0 8.765 11.325 18.173 12.642 18.16 2.543 44.248 6.7 48.982-19.9z" fill="url(#n)"/>
 <g fill-rule="evenodd">
  <path transform="rotate(4.311 6330.8 -2366.4) scale(1.1593)" d="m260.78 525.73c-6.228 5.562-9.981 17.506-13.071 23.504-4.396 3.232-5.5-3.098-7.842-5.424-4.681-5.307-10.283-9.956-17.212-11.57-8.486 2.3-16.692 7.675-18.775 16.635-1.272 3.709 2.204 7.7 4.397 10.306 5.5 5.798 11.883 10.691 19.853 12.525 8.517 1.297 16.367-1.06 23.397-6.015 5.855-4.058 7.622-10.951 9.78-17.283 1.492-4.244 4.106-12.21 5.73-13.278 2.545 0.748-4.846-5.718-6.257-9.4z" fill="url(#o)"/>
  <path transform="rotate(4.311 6330.8 -2366.4) scale(1.1593)" d="M259.968 524.29s16.526-4.483 25.246-2.612c2.72.87 5.223.544 4.897 2.611-.326 2.068-1.294 4.962-3.47 4.962-7.427-2.5-17.787 5.675-18.875 6.219-1.838-1.456-5.777-7.944-7.798-11.18z" fill="url(#p)"/>
  <path d="M115.517 143.462c-7.36-.393-14.936.08-21.863 2.784 3.568 2.912-2.726 4.69-4.153 6.88-6.011 5.507-5.524 15.002-11.672 20.374-5.364 3.353-5.538-4.653-8.042-7.546-4.166-6.863-11.07-13.421-19.14-14.895-10.012 1.92-20.392 8.019-23.58 18.196-1.794 4.176 1.48 9.317 3.788 12.52 5.851 7.183 13.144 13.927 22.198 16.742 9.733 2.241 20.387.43 28.946-4.684 7.123-4.181 9.553-12.518 12.6-19.65 2.095-4.775 3.387-10.144 6.844-14.161 2.876 1.087 5.718-2.074 8.748-3.265 4.653-2.364 10.655-5.03 15.486-1.557 2.808-1.16 7.09-4.93 4.542-8.195-3.44-2.834-8.529-2.787-12.86-3.404a70.115 70.115 0 00-1.842-.139zm-.087 1.156c4.544.467 8.847.265 12.869 2.551 2.634 3.473-2.378 7.217-5.877 5.424-6.223-1.068-11.476 2.087-16.759 4.822-.776.46-2.087 1.218-2.996 1.318-1.444-1.287-3.227-4.28-4.593-7.031-1.191-2.4-1.76-3.877-2.021-4.512.007-.19.079-.399.043-.578 6.213-1.986 12.859-2.338 19.334-1.994zm-19.852 3.571c.438 1.02-.03 2.701.852 4.479 1.25 2.518 3.399 4.667 4.981 6.334-1.082.254-2.056.742-2.541 2.388-4.774 8.82-7.644 18.488-13.488 26.74-6.495 7.28-16.338 9.28-25.761 9.175-7.614.177-14.14-2.965-19.455-8.08-4.635-4.537-9.476-9.328-11.952-15.434-.171-5.736 3.82-10.802 8.09-14.285 4.278-3.397 9.425-5.634 14.78-6.66 10.55 2.354 18.16 11.816 21.397 21.704 3.79 2.713 7.95-.893 9.486-4.371 3.382-5.78 4.03-13.265 9.748-17.503 1.562-.871 3.077-3.047 3.863-4.487zm-44.19 5.442c-6.777 1.58-13.33 5.128-17.459 10.855-1.938 2.692-3.46 5.74-4.201 8.984-.137 1.503 1.655 2.191 2.884 1.743 2.704-.545 5.082-2.05 7.352-3.55 2.779-1.968 5.38-4.17 7.865-6.493 2.07-2.015 4.17-4.314 4.76-7.234a5.49 5.49 0 00-1.201-4.305z"/>
 </g>
 <path d="m162.3 100.73c0 6.558-5.317 11.875-11.875 11.875s-11.875-5.317-11.875-11.875 5.317-11.875 11.875-11.875 11.875 5.317 11.875 11.875z"/>
 <path d="m160.3 100.6c0 5.524-4.59 10-10.25 10s-10.25-4.476-10.25-10c0-5.522 4.59-10 10.25-10s10.25 4.478 10.25 10z" fill="#fff"/>
 <path d="M154.554 101.476a5.125 5.125 0 11-10.25 0 5.125 5.125 0 0110.25 0z"/>
 <path d="M149.804 99.976a2.625 2.625 0 11-5.25 0 2.625 2.625 0 015.25 0z" fill="#fff"/>
 <path d="m125.05 96.476c0 6.558-5.317 11.875-11.875 11.875s-11.875-5.317-11.875-11.875 5.317-11.876 11.875-11.876 11.875 5.317 11.875 11.875z"/>
 <path d="m123.05 96.35c0 5.524-4.59 10-10.25 10s-10.25-4.476-10.25-10c0-5.522 4.59-10 10.25-10s10.25 4.478 10.25 10z" fill="#fff"/>
 <path d="M117.304 97.226a5.125 5.125 0 11-10.25 0 5.125 5.125 0 0110.25 0z"/>
 <path d="M112.554 95.726a2.625 2.625 0 11-5.25 0 2.625 2.625 0 015.25 0z" fill="#fff"/>
 <path d="M87.398 89.239c-.83.05-1.685.222-2.563.5-3.838 1.39-2.895 4.244.438 6-1.351 1.521-2.402 3.59-3.094 6.344-1.24 10.4 9.003 16.797 16.969 18.843 8.665 1.89 21.39.154 23.812-8.812.844-2.617 1.055-4.863.782-6.781 5.063-1.426 9.18-.934 12.187 1.75-.912 1.688-1.478 3.805-1.625 6.437.752 10.446 12.041 14.78 20.25 15.281 8.866.214 21.038-3.893 21.719-13.156.38-3.113.038-5.568-.813-7.531 3.892-.559 5.851-3.049 2.563-5.625-2.958-2.13-6.2-2.585-9.094-.188-3.957-1.542-8.816-1.834-12.906-1.968-7.73.012-14.671.469-18.531 4.593-3.689-3.473-8.535-3.846-14.313-1.75-2.396-6.286-10.776-8.473-17.219-9.937-4.585-.877-8.905-1.5-12.625-1.156-1.488-2.152-3.588-2.988-5.937-2.844zm.531 1.812c.676.05 1.157.538 1.969 1.719-1.047.347-2.02.806-2.906 1.438-2.2-.992-4.122-1.587-.97-2.72.865-.291 1.432-.472 1.907-.437zm7 3c3.387-.05 7.145 1.006 10.75 1.782 12.937 3.366 18.11 3.5 15.094 15.718-3.561 9.152-13.427 8.257-20.906 6.5-7.919-2.205-16.775-6.527-14.875-15.093 1.87-6.901 5.583-8.842 9.937-8.907zm79.281 8.657c.621-.058 1.183.333 2.157 1.062 2.739 2.134.449 2.02-2.063 2.313-.63-.83-1.412-1.523-2.25-2.125.993-.771 1.61-1.2 2.156-1.25zm-24.375.062c2.102-.022 4.3.111 6.407.156 13.34.856 18.43.027 17.78 12.594-1.763 9.66-11.635 10.652-19.312 10.344-8.192-.667-17.712-3.26-17.468-12.031.705-9.507 6.29-10.996 12.593-11.063z" font-family="Sans" font-weight="400" overflow="visible" style="block-progression:tb;text-indent:0;text-transform:none"/>
 <path d="m134.3 79.85s-6.506-14.396 13.25-10.5c13.531 2.67 14.696 10.714 45.25 12.75-3.34 3.774-36.246 20.77-58.5-2.25z"/>
 <path transform="translate(-342.45 -185.51)" d="m480.25 266.36s-9.006-13.647 10.75-9.75c13.531 2.67 9.196 9.463 39.75 11.5-3.952 1.02-28.966 18.03-50.5-1.75z" fill="url(#q)"/>
 <path d="m127.38 78.406s8.19-10.277-8.535-11.174c-11.455-0.615-14.039 5.632-39.088 1.027 1.92 3.724 24.975 24.155 47.623 10.147z"/>
 <path transform="translate(-342.45 -185.51)" d="m466.8 264.01s10.051-9.161-6.673-10.058c-11.455-0.615-9.349 5.748-34.399 1.143 2.978 1.63 19.667 20.458 41.072 8.915z" fill="url(#r)"/>
 <path d="m30.56 128.4s-13.319 28.727 2.121 32.88c12.24 3.292 5.304-2.828-2.121-32.88z"/>
 <path transform="translate(-342.45 -185.51)" d="M372.652 319.39c.28.14-11.005 22.914 3.182 25.456 8.95 1.604 2.652-1.59-3.182-25.456z" fill="url(#s)"/>
</svg>
