<?xml version="1.0" encoding="UTF-8"?>
<svg width="256" height="256" xmlns="http://www.w3.org/2000/svg" xmlns:xlink="http://www.w3.org/1999/xlink">
 <defs>
  <radialGradient id="q" cx="464.8" cy="527.28" r="15.311" gradientTransform="matrix(1 0 0 .98056 0 10.144)" gradientUnits="userSpaceOnUse" xlink:href="#f"/>
  <radialGradient id="l" cx="171.29" cy="285.97" r="108.01" gradientTransform="matrix(.99972 .02347 -.0251 1.0693 6.538 -21.654)" gradientUnits="userSpaceOnUse" xlink:href="#a"/>
  <radialGradient id="m" cx="177.94" cy="289.22" r="108.01" gradientTransform="matrix(.99972 .02347 -.0251 1.0693 6.538 -21.654)" gradientUnits="userSpaceOnUse" xlink:href="#a"/>
  <radialGradient id="n" cx="424.62" cy="527" r="12.246" gradientTransform="matrix(-.62071 -.90942 .8099 -.55278 261.37 1204.5)" gradientUnits="userSpaceOnUse" xlink:href="#f"/>
  <linearGradient id="a">
   <stop stop-color="#fff000" offset="0"/>
   <stop stop-color="#fc0" offset="1"/>
  </linearGradient>
  <linearGradient id="f">
   <stop stop-color="#d40000" offset="0"/>
   <stop stop-color="#ff0d00" offset="1"/>
  </linearGradient>
 </defs>
 <path d="M127.372 165.72c-2.699 3.789-25.037-6.327-29.536-5.146-4.972 1.306-24.174 22.906-29.079 21.363-4.437-1.395-2.84-27.804-5.354-31.718-2.778-4.325-26.354-15.833-26.403-20.974-.044-4.651 22.825-9.463 25.77-13.063 3.255-3.979 6.254-33.2 11.128-34.834 4.41-1.48 19.858 24.38 24.192 26.068 4.79 1.867 32.58-7.585 35.64-3.454 2.77 3.737-15.513 24.518-15.78 29.162-.294 5.132 12.404 28.408 9.422 32.596z"/>
 <path transform="rotate(-13.242 168.75 29.81) scale(.41619)" d="M228 358.362c-8.396 7.376-52.206-29.648-63.378-29.36-12.349.317-59.273 39.101-69.895 32.795-9.61-5.706 12.065-58.813 8.34-69.35-4.12-11.646-55.505-44.288-52.79-56.34 2.457-10.902 59.662-6.699 68.532-13.498 9.804-7.516 24.97-66.474 37.27-67.616 11.127-1.032 24.808 54.672 34.015 61.006 10.178 7.002 70.937 3.206 75.823 14.552 4.421 10.264-44.33 40.489-47.508 51.203-3.514 11.842 18.871 68.455 9.591 76.608z" fill="url(#l)"/>
 <path d="M75.943 88.319c-4.61 6.339-3.648 15.176-5.683 22.545-.473 4.643-1.956 10.006-7.348 10.798-6.931 3.054-15.626 3.381-21.344 8.5.398 1.568 3.086 4.977 4.469 2.625 7.636-5.06 17.878-4.904 25.187-10.187 3.892-9.689 2.035-21.23 7.657-30.188 3.046-.81-1.499-3.883-2.938-4.093z" fill="#fee800"/>
 <path d="M206.085 182.746c-4.042 2.3-20.553-16.829-25.131-17.651-5.06-.909-30.63 9.893-34.43 6.429-3.437-3.134 10.57-26.14 9.938-30.748-.699-5.093-20.667-23.073-18.546-27.757 1.918-4.237 28.064.872 32.25-1.153 4.629-2.24 17.89-26.056 23-25.487 4.622.515 7.989 26.139 11.209 29.495 3.56 3.71 28.644 7.626 29.682 12.661.939 4.555-21.12 15.604-23.317 19.704-2.429 4.531-.186 31.964-4.655 34.507z"/>
 <path transform="rotate(11.659 2.542 701.87) scale(.41619)" d="M228 358.362c-8.396 7.376-52.206-29.648-63.378-29.36-12.349.317-59.273 39.101-69.895 32.795-9.61-5.706 12.065-58.813 8.34-69.35-4.12-11.646-55.505-44.288-52.79-56.34 2.457-10.902 59.662-6.699 68.532-13.498 9.804-7.516 24.97-66.474 37.27-67.616 11.127-1.032 24.808 54.672 34.015 61.006 10.178 7.002 70.937 3.206 75.823 14.552 4.421 10.264-44.33 40.489-47.508 51.203-3.514 11.842 18.871 68.455 9.591 76.608z" fill="url(#m)"/>
 <path d="m114.23 112.21c0 6.249-5.303 11.314-11.844 11.314s-11.844-5.065-11.844-11.314c0-6.248 5.303-11.314 11.844-11.314s11.844 5.066 11.844 11.314z"/>
 <path d="m112.46 112.21c0 5.468-4.432 9.9-9.9 9.9-5.467 0-9.899-4.432-9.899-9.9 0-5.467 4.432-9.9 9.9-9.9 5.467 0 9.9 4.433 9.9 9.9z" fill="#fff"/>
 <path d="M112.463 112.03a6.894 6.894 0 11-13.788 0 6.894 6.894 0 0113.788 0z"/>
 <path d="M105.392 108.14a4.42 4.42 0 11-8.839 0 4.42 4.42 0 018.84 0z" fill="#fff"/>
 <path d="m95.493 119.28c0 6.249-5.303 11.314-11.844 11.314-6.542 0-11.844-5.065-11.844-11.314 0-6.248 5.302-11.313 11.844-11.313 6.541 0 11.844 5.065 11.844 11.313z"/>
 <path d="m93.725 119.28c0 5.468-4.432 9.9-9.9 9.9-5.467 0-9.899-4.432-9.899-9.9 0-5.467 4.432-9.9 9.9-9.9 5.467 0 9.899 4.433 9.899 9.9z" fill="#fff"/>
 <path d="M93.725 119.1a6.894 6.894 0 11-13.789 0 6.894 6.894 0 0113.789 0z"/>
 <path d="M86.654 115.211a4.42 4.42 0 11-8.839 0 4.42 4.42 0 018.839 0z" fill="#fff"/>
 <path d="M191.943 91.287c-8.894 5.999-11.574 18.03-20.187 24.407-9.27 1.774-19.206-3.526-28.22-1-.717 2.329 2.372 6.832 3.313 6.843 3.404-4.086 10.154-1.184 14.72-1.312 5.713-.172 14.302 4.57 17.937-2.125 5.294-6.619 9.024-14.914 15.687-20.5-.753-1.792-.9-5.995-3.25-6.313z" fill="#fee800"/>
 <path d="M146.037 100.069l6.25 5.562-1.531.906-4.407-1.812 3.657 3.656-2.094 1-3.719-.281 4.969 2.156a6.846 6.846 0 00-.125 2.438c.757 5.808 8.893 9.523 18.187 8.312 9.294-1.21 16.226-6.879 15.47-12.687-.758-5.81-8.926-9.555-18.22-8.344-4.038.526-7.605 1.921-10.312 3.781l-8.125-4.687z"/>
 <path d="m179.86 109.81c0.638 4.949-5.196 9.797-13.03 10.828-7.835 1.032-14.704-2.144-15.341-7.092-0.638-4.95 5.196-9.797 13.03-10.829 7.835-1.031 14.703 2.144 15.34 7.093z" fill="#fff"/>
 <path d="M168.98 117.624c-2.756 3.455-7.342 3.908-10.243 1.013-2.9-2.895-3.017-8.041-.26-11.496 2.756-3.454 7.343-3.907 10.243-1.012 2.9 2.894 3.017 8.041.26 11.495z"/>
 <path d="M162.48 111.412c-1.479 1.853-3.939 2.096-5.495.543s-1.618-4.314-.14-6.167c1.48-1.853 3.94-2.096 5.495-.543 1.556 1.553 1.619 4.314.14 6.167z" fill="#fff"/>
 <path d="M186.287 103.756c-5.584.179-10.047 2.49-11.219 6.344-1.705 5.604 4.19 12.366 13.156 15.094 8.967 2.727 17.608.385 19.313-5.22.469-1.54.366-3.174-.219-4.78l2.906-.875-3.343-.125c-.344-.701-.799-1.388-1.313-2.063l3.063-2.406-4.125 1.125c-.42-.444-.886-.862-1.375-1.281l6.375-4.438-7.782 3.313c-2.056-1.47-4.557-2.715-7.343-3.563-2.803-.852-5.556-1.206-8.094-1.125z"/>
 <path d="m204.77 119.27c-1.459 4.772-8.772 6.784-16.335 4.495-7.564-2.29-12.512-8.014-11.053-12.786 1.458-4.772 8.772-6.784 16.335-4.494s12.512 8.014 11.053 12.785z" fill="#fff"/>
 <path d="m195.81 117.94c-1.311 4.22-5.418 6.311-9.173 4.67-3.755-1.64-5.736-6.392-4.425-10.613 1.31-4.22 5.417-6.311 9.172-4.67 3.755 1.64 5.737 6.392 4.426 10.613z"/>
 <path d="M186.857 113.566c-2.11 1.079-4.453.286-5.23-1.77-.778-2.056.304-4.598 2.415-5.676 2.11-1.079 4.452-.286 5.23 1.77.777 2.056-.304 4.597-2.415 5.676z" fill="#fff"/>
 <path d="M116.992 145.707s8.827-6.08 12.75-.589c8.81 12.335-12.553 31.188-12.553 31.188s-22.754-20.4-13.535-29.618c5.329-5.329 13.338-.981 13.338-.981z"/>
 <path transform="matrix(1.1096 0 0 1.1096 -353.17 -424.9)" d="M423.734 517.082s6.364-6.187 9.9-1.237c7.94 11.116-10.43 22.097-10.43 22.097s-18.209-12.905-9.9-21.213c4.802-4.803 10.43.353 10.43.353z" fill="url(#n)"/>
 <path d="m156.67 141.8s13.118-8.118 18.494-0.591c12.075 16.904-19.73 38.978-19.73 38.978s-30.484-24.57-17.85-37.204c7.303-7.303 19.086-1.183 19.086-1.183z"/>
 <path transform="matrix(1.2163 0 0 1.2163 -404.04 -476.26)" d="m461 510.8s7.957-7.735 12.377-1.547c9.928 13.899-13.04 27.627-13.04 27.627s-22.764-16.134-12.377-26.522c6.005-6.004 13.04 0.442 13.04 0.442z" fill="url(#q)"/>
 <path d="M110.294 73.756s3.128-4.32 5.495-2.97c5.315 3.035-.385 14.63-.385 14.63s-12.07-3.698-10.248-8.637c1.054-2.855 5.138-3.023 5.138-3.023z"/>
 <path transform="rotate(-24.741 -107.84 252.56) scale(.35835)" d="m461 510.8s7.957-7.735 12.377-1.547c9.928 13.899-13.04 27.627-13.04 27.627s-22.764-16.134-12.377-26.522c6.005-6.004 13.04 0.442 13.04 0.442z" fill="url(#q)"/>
 <path d="M131.038 62.552s6.05-3.925 8.239-.86c4.917 6.885-8.83 17.73-8.83 17.73s-13.122-11.862-7.977-17.007c2.974-2.974 8.568.137 8.568.137z"/>
 <path transform="matrix(.49533 0 0 .49533 -97.313 -189.15)" d="m461 510.8s7.957-7.735 12.377-1.547c9.928 13.899-13.04 27.627-13.04 27.627s-22.764-16.134-12.377-26.522c6.005-6.004 13.04 0.442 13.04 0.442z" fill="url(#q)"/>
 <path d="m148.94 71.694s5.316-1.275 6.096 1.336c1.751 5.865-10.105 10.306-10.105 10.306s-7.035-11.615-2.307-13.93c2.733-1.338 6.316 2.288 6.316 2.288z"/>
 <path transform="rotate(18.909 488.54 78.07) scale(.35835)" d="m461 510.8s7.957-7.735 12.377-1.547c9.928 13.899-13.04 27.627-13.04 27.627s-22.764-16.134-12.377-26.522c6.005-6.004 13.04 0.442 13.04 0.442z" fill="url(#q)"/>
</svg>
