<svg width="400pt" height="400pt" xmlns="http://www.w3.org/2000/svg"><path d="M430.574 149.313c-3.228 0-6.362.563-9.469 1.344-20.916.324-354.848 5.505-359.188 9.844-4.475 4.476-30.2 43.645-26.843 109.656-3.357 101.814 49.218 121.969 49.218 121.969L430.574 391h.562v-.063c37.102-.548 67.125-54.42 67.125-120.781 0-66.701-30.323-120.844-67.687-120.844z" fill-rule="evenodd" fill-opacity=".25"/><path d="M418.187 376.428l-346.84 1.119s-52.586-20.14-49.229-121.953c-3.356-66.011 22.377-105.171 26.852-109.647 4.476-4.475 370.336-10.07 370.336-10.07h0l-1.119 240.55z" fill="#fff" fill-rule="evenodd" stroke="#000" stroke-width="10" stroke-linejoin="round"/><path d="M495.646 253.855a234.956 236.075 0 10-469.913 0 234.956 236.075 0 10469.913 0H260.69z" transform="matrix(.2881 0 0 .51185 342.524 125.658)" stroke="#000" fill="none" stroke-width="26.041" stroke-linejoin="round"/><path d="M483.08 255.594a66.011 118.597 0 10-132.023 0 66.011 118.597 0 10132.023 0h-66.012z" fill-rule="evenodd" fill="#fff"/></svg>