<svg width="400pt" height="400pt" xmlns="http://www.w3.org/2000/svg"><g font-size="12"><path d="M264.619 111.063c-107.275 0-194.313 18.333-194.313 40.906 0 1.797.744 3.546 1.813 5.282.018 18.352.353 212.608 7.218 215.187 7.2 2.704 44.445 45.09 181.938 37.469 163.747 2.028 199.5-48.75 199.5-48.75l-1.813-209.188v-.343h-.093c-.894-22.413-87.53-40.563-194.25-40.563z" fill-rule="evenodd" fill-opacity=".25"/><path d="M426.278 378.046l-346.84 1.119s-84.07-22.226-80.713-124.04C-13.892 169.635 56.289 146.476 60.765 142c4.475-4.475 366.632-4.504 366.632-4.504h0l-1.119 240.55z" transform="matrix(0 -.60412 1.6083 0 -165.221 394.586)" fill="#fff" fill-rule="evenodd" stroke="#000" stroke-width="10.145" stroke-linejoin="round"/><path d="M495.646 253.855a234.956 236.075 0 10-469.913 0 234.956 236.075 0 10469.913 0H260.69z" transform="matrix(0 -.17405 .8232 0 39.477 182.772)" fill="none" stroke="#000" stroke-width="26.419" stroke-linejoin="round"/><path d="M248.452 97.86a190.74 39.879 0 100 79.757 190.74 39.879 0 100-79.757v39.878z" fill="#fff" fill-rule="evenodd"/></g></svg>