<svg width="400pt" height="400pt" xmlns="http://www.w3.org/2000/svg"><path d="M493.667 263.703a232.719 233.838 0 10-465.437 0 232.719 233.838 0 10465.437 0H260.948z" fill-opacity=".25" fill-rule="evenodd"/><path d="M481.342 245.903a234.956 236.075 0 10-469.913 0 234.956 236.075 0 10469.913 0H246.385z" fill="#fff" fill-rule="evenodd" stroke="#000" stroke-width="10" stroke-linejoin="round"/><path d="M475.868 245.903a228.673 228.984 0 10-457.347 0 228.673 228.984 0 10457.347 0H247.194z" fill="#fff" fill-rule="evenodd"/><path d="M74.347 87.495l335.76 328.565" transform="matrix(.975 0 0 1.0292 4.98 -10.11)" fill="none" stroke="#000" stroke-width="9.983" stroke-linejoin="round"/><path d="M69.55 390.878c1.2-1.199 344.154-320.171 344.154-320.171" transform="matrix(1.05923 0 0 .9176 -10.592 35.443)" fill="none" stroke="#000" stroke-width="10.143" stroke-linejoin="round"/></svg>