<svg width="400pt" height="400pt" xmlns="http://www.w3.org/2000/svg"><g fill-rule="evenodd"><path d="M67.37 93.462l381.645 1.948s37.591 57.466 35.688 159.737c.067 112.985-33.785 176.295-33.785 176.295L68.322 433.39S31.204 370.08 35.01 255.147C34.059 146.06 66.418 94.437 67.37 93.462z" fill-opacity=".25"/><path d="M51.622 56.827L442.2 58.775s38.471 57.466 36.523 159.737c.069 112.985-34.575 176.295-34.575 176.295l-391.55 1.948s-37.987-63.31-34.09-178.243C17.531 109.424 50.647 57.801 51.621 56.827z" transform="matrix(.97713 0 0 1 2.365 20.454)" fill="#fff" stroke="#000" stroke-width="10.116" stroke-linejoin="round"/></g></svg>