<svg width="400pt" height="400pt" xmlns="http://www.w3.org/2000/svg"><path d="M83.928 92.488L438.3 95.41s46.359 159.737 46.402 159.737c1.042.974-45.472 176.295-45.472 176.295l-353.376-1.948c1.948-.974-49.78-171.425-50.843-173.373.996.001 47.965-162.659 48.917-163.633z" fill-rule="evenodd" fill-opacity=".25"/><path d="M68.568 55.853l362.666 2.922s47.443 159.737 47.488 159.737c1.066.974-46.537 176.295-46.537 176.295l-361.646-1.948c1.993-.974-50.945-171.425-52.033-173.373 1.02.001 49.088-162.66 50.062-163.633z" transform="matrix(.97713 0 0 1 2.365 20.454)" fill="#fff" fill-rule="evenodd" stroke="#000" stroke-width="10.116" stroke-linejoin="round"/></svg>