<svg width="400pt" height="400pt" xmlns="http://www.w3.org/2000/svg"><g fill-rule="evenodd"><path d="M55.39 96.699l394.078 1.948s38.816 57.466 36.85 159.737c.07 112.985-34.885 176.295-34.885 176.295l-395.06 1.948s-2.12-180.191-2.212-178.243c.023-.973.247-160.711 1.23-161.685z" fill-opacity=".25"/><path d="M51.622 56.827L442.2 58.775s38.471 57.466 36.523 159.737c.069 112.985-34.575 176.295-34.575 176.295l-391.55 1.948s-2.102-180.191-2.193-178.243c.023-.973.244-160.711 1.218-161.685z" transform="matrix(1.00896 0 0 1 -12.876 20.454)" fill="#fff" stroke="#000" stroke-width="9.955" stroke-linejoin="round"/></g></svg>