<svg width="400pt" height="400pt" xmlns="http://www.w3.org/2000/svg"><g fill-rule="evenodd"><path d="M59.367 90.525l1.948 266.878s78.895 53.57 220.126 39.934c128.57 10.714 150.971 13.636 187.983 46.753.974.974.974-249.346.974-249.346s-71.102-37.987-183.113-37.013c-112.01.975-112.01 10.715-227.918-67.206z" fill-opacity=".25"/><path d="M44.804 69.49l1.948 266.877s78.895 53.57 220.126 39.934c128.57 10.714 150.971 13.636 187.983 46.753.974.974.974-249.346.974-249.346s-71.102-37.987-183.113-37.013c-112.01.975-112.01 10.715-227.918-67.206z" fill="#fff" stroke="#000" stroke-width="10" stroke-linejoin="round"/></g></svg>