<?xml version="1.0" encoding="UTF-8"?>
<svg width="290" height="290" xmlns="http://www.w3.org/2000/svg" xmlns:xlink="http://www.w3.org/1999/xlink">
 <defs>
  <linearGradient id="z" x1="773.62" x2="795.75" y1="550.84" y2="532.09" gradientTransform="translate(-1899.6 -138) scale(2.1326)" gradientUnits="userSpaceOnUse" xlink:href="#c"/>
  <linearGradient id="y" x1="773.62" x2="795.75" y1="550.84" y2="532.09" gradientUnits="userSpaceOnUse" xlink:href="#c"/>
  <linearGradient id="x" x1="771.12" x2="785.88" y1="599.53" y2="590.16" gradientTransform="translate(-1082.9 471.91)" gradientUnits="userSpaceOnUse" xlink:href="#c"/>
  <linearGradient id="w" x1="771.12" x2="785.88" y1="599.53" y2="590.16" gradientTransform="translate(-1064.5 474.41)" gradientUnits="userSpaceOnUse" xlink:href="#c"/>
  <linearGradient id="v" x1="771.12" x2="785.88" y1="599.53" y2="590.16" gradientTransform="translate(-1047.5 477.16)" gradientUnits="userSpaceOnUse" xlink:href="#c"/>
  <linearGradient id="u" x1="771.12" x2="785.88" y1="599.53" y2="590.16" gradientTransform="translate(-1032.3 478.03)" gradientUnits="userSpaceOnUse" xlink:href="#c"/>
  <linearGradient id="c">
   <stop stop-color="#704608" offset="0"/>
   <stop stop-color="#ab8855" offset="1"/>
  </linearGradient>
  <linearGradient id="t" x1="771.12" x2="785.88" y1="599.53" y2="590.16" gradientTransform="translate(-1032.3 462.78)" gradientUnits="userSpaceOnUse" xlink:href="#c"/>
  <linearGradient id="s" x1="771.12" x2="785.88" y1="599.53" y2="590.16" gradientTransform="translate(-1048.1 460.66)" gradientUnits="userSpaceOnUse" xlink:href="#c"/>
  <linearGradient id="q" x1="771.12" x2="785.88" y1="599.53" y2="590.16" gradientTransform="translate(-1065.1 458.66)" gradientUnits="userSpaceOnUse" xlink:href="#c"/>
  <linearGradient id="r" x1="771.12" x2="785.88" y1="599.53" y2="590.16" gradientUnits="userSpaceOnUse" xlink:href="#c"/>
  <linearGradient id="ag" x1="837.3" x2="839.12" y1="519.19" y2="519.17" gradientTransform="rotate(35.053 -426.5 -969.04)" gradientUnits="userSpaceOnUse" xlink:href="#d"/>
  <linearGradient id="af" x1="839.92" x2="834.55" y1="520.94" y2="516.76" gradientUnits="userSpaceOnUse" xlink:href="#d"/>
  <linearGradient id="h">
   <stop stop-color="#ffd73b" offset="0"/>
   <stop stop-color="#ee8400" offset="1"/>
  </linearGradient>
  <linearGradient id="B" x1="14.27" x2="25.219" y1="26.721" y2="26.058" gradientTransform="matrix(6.4001 0 0 6.4001 678.08 380.18)" gradientUnits="userSpaceOnUse" xlink:href="#h"/>
  <linearGradient id="C" x1="8.969" x2="17.828" y1="25.848" y2="29.798" gradientTransform="matrix(6.4001 0 0 6.4001 -405.8 836.83)" gradientUnits="userSpaceOnUse" xlink:href="#h"/>
  <linearGradient id="D" x1="24.367" x2="31.867" y1="29.051" y2="29.106" gradientTransform="matrix(6.4001 0 0 6.4001 678.08 380.18)" gradientUnits="userSpaceOnUse" xlink:href="#h"/>
  <linearGradient id="E" x1="147.5" x2="119" y1="843.86" y2="814.86" gradientTransform="translate(-369 76)" gradientUnits="userSpaceOnUse">
   <stop stop-color="#5f6b21" offset="0"/>
   <stop stop-color="#39a905" offset="1"/>
  </linearGradient>
  <linearGradient id="F" x1="22.384" x2="15.644" y1="1023.9" y2="1017.5" gradientTransform="matrix(6.4001 0 0 6.4001 -412.56 -5597)" gradientUnits="userSpaceOnUse" xlink:href="#h"/>
  <linearGradient id="G" x1="29.023" x2="37.241" y1="24.615" y2="21.311" gradientTransform="matrix(6.4001 0 0 6.4001 -405.8 836.83)" gradientUnits="userSpaceOnUse" xlink:href="#h"/>
  <linearGradient id="d">
   <stop stop-color="#999" offset="0"/>
   <stop stop-color="#dbdbdb" offset="1"/>
  </linearGradient>
  <linearGradient id="K" x1="183.12" x2="192.25" y1="72.875" y2="55.5" gradientTransform="translate(-369 872.36)" gradientUnits="userSpaceOnUse" xlink:href="#h"/>
  <linearGradient id="O" x1="937.64" x2="914.71" y1="555.33" y2="535" gradientUnits="userSpaceOnUse" xlink:href="#d"/>
  <linearGradient id="N" x1="926.94" x2="913.96" y1="542.35" y2="541.49" gradientTransform="translate(-1059 459.42)" gradientUnits="userSpaceOnUse" xlink:href="#d"/>
  <linearGradient id="M" x1="882.81" x2="882.37" y1="563.93" y2="551.82" gradientTransform="translate(-1033.9 446.66)" gradientUnits="userSpaceOnUse" xlink:href="#d"/>
  <linearGradient id="l" x1="926.94" x2="913.96" y1="542.35" y2="541.49" gradientTransform="scale(.91156) rotate(7.427 -3666.9 -9418.8)" gradientUnits="userSpaceOnUse" xlink:href="#d"/>
  <linearGradient id="n" x1="882.81" x2="882.37" y1="563.93" y2="551.82" gradientTransform="rotate(7.34 -2925.1 -8837.8)" gradientUnits="userSpaceOnUse" xlink:href="#d"/>
  <linearGradient id="P" x1="874.55" x2="841.68" y1="568.21" y2="530.78" gradientTransform="matrix(1.2626 0 0 1.3275 -1308.9 282.32)" gradientUnits="userSpaceOnUse" xlink:href="#d"/>
  <linearGradient id="Q" x1="874.55" x2="841.68" y1="568.21" y2="530.78" gradientTransform="matrix(.78643 0 0 .82689 -974.09 542.02)" gradientUnits="userSpaceOnUse" xlink:href="#d"/>
  <filter id="I" x="-.292" y="-.294" width="1.583" height="1.589" color-interpolation-filters="sRGB">
   <feGaussianBlur stdDeviation="3.755"/>
  </filter>
  <filter id="L" x="-.126" y="-.288" width="1.253" height="1.575" color-interpolation-filters="sRGB">
   <feGaussianBlur stdDeviation="1.154"/>
  </filter>
  <filter id="J" x="-.13" y="-.168" width="1.26" height="1.335" color-interpolation-filters="sRGB">
   <feGaussianBlur stdDeviation="3.999"/>
  </filter>
  <filter id="H" x="-.079" y="-.145" width="1.158" height="1.291" color-interpolation-filters="sRGB">
   <feGaussianBlur stdDeviation=".392"/>
  </filter>
  <filter id="o" x="-.047" y="-.299" width="1.094" height="1.598" color-interpolation-filters="sRGB">
   <feGaussianBlur stdDeviation=".677"/>
  </filter>
  <radialGradient id="p" cx="27.844" cy="1021.1" r="17.592" gradientTransform="matrix(2.745 4.3867 -6.8695 4.2987 6680.7 -3485.1)" gradientUnits="userSpaceOnUse">
   <stop stop-color="#fff690" offset="0"/>
   <stop stop-color="#f2ff00" offset="1"/>
  </radialGradient>
  <radialGradient id="A" cx="17.36" cy="1023.9" r="17.592" gradientTransform="matrix(2.5639 5.7921 -4.9198 2.1778 5782.2 -1812.7)" gradientUnits="userSpaceOnUse" xlink:href="#h"/>
 </defs>
 <path transform="translate(388.64 -861.16)" d="M-352.14 964.058c-1.302 9.99-3.756 18.403-9.635 18.234-1.955-.056-4.944-1.914-5.697-2.346-4.386-2.515-6.9-10.114-5.787-18.641 1.302-9.99 7.039-16.551 12.918-16.713 2.52-.069 5.457 1.656 6.449 2.427 3.833 2.978 2.788 9.103 1.753 17.04z" fill="url(#l)"/>
 <path transform="scale(.91156) rotate(7.427 3809.5 -6571)" d="m940.46 545.6c0 11.052-5.23 20.012-11.682 20.012s-11.683-8.96-11.683-20.012c0-11.053 5.23-20.012 11.683-20.012 6.452 0 11.682 8.96 11.682 20.012z" fill="url(#O)"/>
 <path transform="translate(388.64 -861.16)" d="M-324.63 968.024c-.616-.298-32.375-11.15-32.375-11.15-5.158 2.05-7.453 13.384-2.204 15.421l32.868 4.78z" fill="url(#n)"/>
 <path transform="matrix(5.7451 0 0 7.092 -.694 -44.901)" d="m40.943 39.253c0 1.502-7.717 2.72-17.237 2.72s-17.237-1.218-17.237-2.72 7.717-2.72 17.237-2.72 17.237 1.218 17.237 2.72z" fill-opacity=".769" fill-rule="evenodd" filter="url(#o)"/>
 <path transform="translate(388.64 -861.16)" d="m-276.66 927.59c-28.223 0.188-53.832 18.078-66.916 42.494-13.95 24.364-17.43 53.988-13.022 81.412 3.527 22.388 21.984 39.528 42.781 46.594 14.32 5.277 30.232 7.544 45.336 5.156 30.866 3.439 64.183 6.84 93.102-6.656 23.121-11.725 37.469-36.55 38.5-62.188 2.01-30.484-3.745-64.624-27.156-86.125-20.07-18.573-49.816-21.267-75.406-14.406-11.888-4.205-24.508-6.639-37.22-6.281z" fill="url(#p)" overflow="visible"/>
 <path transform="translate(388.64 -861.16)" d="m-288.26 1043.4v11l9.75 1.875-1.125 5.375-14.5-3.625 0.5-15.75z" fill="url(#q)"/>
 <path transform="translate(-695.24 -404.5)" d="M776.875 584.72v11l9.75 1.874-1.125 5.375-14.5-3.625.5-15.75z" fill="url(#r)"/>
 <path transform="translate(388.64 -861.16)" d="m-271.26 1045.4v11l9.75 1.875-1.125 5.375-14.5-3.625 0.5-15.75z" fill="url(#s)"/>
 <path transform="translate(388.64 -861.16)" d="m-255.38 1047.5v11l9.75 1.875-1.125 5.375-14.5-3.625 0.5-15.75z" fill="url(#t)"/>
 <path transform="translate(388.64 -861.16)" d="m-255.38 1062.8v11l9.75 1.875-1.125 5.375-14.5-3.625 0.5-15.75z" fill="url(#u)"/>
 <path transform="translate(388.64 -861.16)" d="m-270.63 1061.9v11l9.75 1.875-1.125 5.375-14.5-3.625 0.5-15.75z" fill="url(#v)"/>
 <path transform="translate(388.64 -861.16)" d="m-287.63 1059.1v11l9.75 1.875-1.125 5.375-14.5-3.625 0.5-15.75z" fill="url(#w)"/>
 <path transform="translate(388.64 -861.16)" d="m-306.01 1056.6v11l9.75 1.875-1.125 5.375-14.5-3.625 0.5-15.75z" fill="url(#x)"/>
 <path transform="translate(-695.24 -404.5)" d="M785.75 529.094c-12.958 10-5.917 23.375 8.75 17.25l-7.625 7.25L774 545.47l1.75-11.625z" fill="url(#y)"/>
 <path transform="translate(388.64 -861.16)" d="m-223.82 990.38c-27.635 21.326-12.618 49.85 18.661 36.788l-16.261 15.462-27.458-17.328 3.732-24.792z" fill="url(#z)"/>
 <path transform="translate(-695.24 -404.5)" d="M808.188 469.906c-31.082.596-58.427 17.853-74.532 54.469-7.99 18.169-12.544 50.937-6.281 75.281 11.277 43.828 68.206 52.413 86.906 47.813 39.717 5.045 82.8 6.481 107.5-15.219 20.4-17.922 26.935-38.978 26.594-67.094-.856-70.686-45.605-103.6-103.906-89-11.3-3.975-22.475-6.086-33.25-6.25a88.527 88.527 0 00-3.032 0zM785.938 531c5.027 0 9.093 4.254 9.093 9.5s-4.066 9.5-9.093 9.5c-5.028 0-9.094-4.254-9.094-9.5s4.066-9.5 9.093-9.5zm75.343 5.938c.33-.018.665 0 1 0 10.714 0 19.407 9.04 19.407 20.218 0 11.18-8.693 20.25-19.407 20.25-10.713 0-19.406-9.07-19.406-20.25 0-10.83 8.157-19.676 18.406-20.218zm-88.156 49.593l11.375 2.157v11.406l-11.375-2.157v-11.406zm18.5 2.844L803 591.531v11.407l-11.375-2.157v-11.406zm17 2.188L820 593.718v11.406l-11.375-2.156v-11.407zm16.25 2l11.375 2.156v11.375l-11.375-2.125v-11.407zm-51.75 8.718l11.375 2.157v11.406l-11.375-2.157v-11.406zm18.5 2.844L803 607.281v11.407l-11.375-2.157v-11.406zm17 2.188L820 609.468v11.406l-11.375-2.156v-11.407zm16.25 2l11.375 2.156v11.375l-11.375-2.125v-11.407z" fill="url(#A)" overflow="visible"/>
 <path transform="translate(-695.24 -404.5)" d="M825.125 499.75c-12.376 39.357-18.36 66.81-22.906 91.625l.781.156v10.625c9.812-38.61 24.365-97.925 22.125-102.406zM800.25 602.406c-.244 1.396-.478 2.83-.719 4.219l2.219.406c.343-1.344.705-2.718 1.063-4.125l-2.563-.5zm-2.625 15.25c-.994 5.75-2.02 11.544-3.125 17.5 0 0 2.08-7.968 4.469-17.218l-1.344-.282z" fill="url(#B)" overflow="visible"/>
 <path transform="translate(388.64 -861.16)" d="m-271.08 949.1c-70.246 28.46-77.248 111.48-71.522 131.07 0.373-34.774 16.1-106.43 71.522-131.07z" fill="url(#C)" overflow="visible"/>
 <path transform="translate(-695.24 -404.5)" d="M851.344 500.625c.691 4.366 3.386 18.948 6.25 36.906a18.622 18.622 0 014.687-.593c.272 0 .543-.012.813 0-3.134-15.386-7.276-28.585-11.75-36.313zm17.031 75.75a18.654 18.654 0 01-5.188 1c2.62 22.382 3.917 43.31 1.188 52.781 4.412-13.368 5.354-33.26 4-53.781z" fill="url(#D)" overflow="visible"/>
 <path transform="translate(388.64 -861.16)" d="m-245.16 934.39c7.545-25.605 12.22-33.5 24.47-44.623 13.04-3.427 25.494-1.287 23.917 10.94-22.557 17.618-16.346 15.168-34.573 37.422-6.273 1.267-12.546 2.535-13.814-3.738z" fill="url(#E)" overflow="visible"/>
 <path transform="translate(388.64 -861.16)" d="m-274.17 936.36c-10.54-3.544-24.16-1.497-36.26-0.666l-6.32 3.66c11.867-1.283 32.48-6.133 42.58-2.994z" fill="url(#F)" overflow="visible"/>
 <path transform="translate(388.64 -861.16)" d="m-199.55 953.26c21.98 17.712 39.521 90.72 37.746 118.13 11.109-41.271-13.073-104.92-37.746-118.13z" fill="url(#G)" overflow="visible"/>
 <path transform="matrix(6.4001 0 0 6.4001 -21.163 -25.829)" d="M10.967 21.128c2.55-1.947 7.086-6.078 11.903-6.134-.46-.856-9.82-.503-11.903 6.134z" fill="#fff" fill-opacity=".348" filter="url(#H)" overflow="visible"/>
 <path transform="matrix(.80272 -.59635 .65913 .88722 -91.853 64.977)" d="m47.73 182.64c0 9.275-6.015 16.793-13.435 16.793s-13.435-7.518-13.435-16.793 6.015-16.794 13.435-16.794 13.435 7.519 13.435 16.794z" fill="#fff" fill-opacity=".317" filter="url(#I)"/>
 <path transform="translate(388.64 -861.16)" d="m-213.08 1105.4c28.242-13.948 54.147-28.048 73.893-57.275 0 0-6.187 58.69-73.893 57.275z" fill-opacity=".196" filter="url(#J)"/>
 <path transform="translate(388.64 -861.16)" d="M-180.313 936.33l-7.812.157 10.656 1.25c-.937-.489-1.881-.96-2.844-1.406z" fill="url(#K)"/>
 <path transform="translate(388.64 -861.16)" d="m-219.62 890.07c8.784 1.187 17.139 2.899 21.744 9.193 0 0 3.535-12.021-21.744-9.193z" fill="#fff" fill-opacity=".357" filter="url(#L)"/>
 <path transform="translate(388.64 -861.16)" d="M-127.067 1002.1c-.649-.217-33.533-6.923-33.533-6.923-4.855 2.693-5.682 14.227-.217 15.576l33.21.541z" fill="url(#M)"/>
 <path transform="translate(388.64 -861.16)" d="m-118.52 1005c0 11.053-1.477 20.552-7.897 21.202-2.134 0.217-5.65-1.382-6.529-1.744-5.129-2.114-8.94-10.024-8.94-19.458 0-11.052 5.31-19.003 11.683-20.012 2.733-0.432 6.171 1.028 7.36 1.726 4.592 2.695 4.323 9.506 4.323 18.286z" fill="url(#N)"/>
 <path transform="translate(-665.58 -400.22)" d="m940.46 545.6c0 11.052-5.23 20.012-11.682 20.012s-11.683-8.96-11.683-20.012c0-11.053 5.23-20.012 11.683-20.012 6.452 0 11.682 8.96 11.682 20.012z" fill="url(#O)"/>
 <path transform="translate(388.64 -861.16)" d="M-222.414 983.347c-16.27 0-29.458 13.74-29.458 30.717 0 16.979 13.188 30.751 29.458 30.751 16.271 0 29.46-13.772 29.46-30.75 0-16.979-13.189-30.718-29.46-30.718zm-.198 9.013c.35-.019.705 0 1.06 0 11.36 0 20.578 9.585 20.578 21.44 0 11.854-9.218 21.472-20.578 21.472s-20.578-9.618-20.578-21.473c0-11.483 8.65-20.864 19.518-21.44z" fill="url(#P)"/>
 <path transform="translate(388.64 -861.16)" d="M-297.32 978.69c-10.135 0-18.344 8.565-18.344 19.14 0 10.576 8.21 19.142 18.344 19.142 10.135 0 18.344-8.566 18.344-19.142 0-10.575-8.209-19.14-18.344-19.14zm-.76 6.607c6.11 0 11.052 5.17 11.052 11.546 0 6.375-4.942 11.545-11.051 11.545-6.11 0-11.052-5.17-11.052-11.545s4.942-11.546 11.052-11.546z" fill="url(#Q)"/>
 <path transform="rotate(-29.666 -218.6 1563.5)" d="M842.34 518.704a3.89 3.89 0 11-7.777 0 3.89 3.89 0 017.778 0z" fill="url(#af)"/>
 <path transform="rotate(-29.666 -1622.7 -254.59)" d="M-243.207 972.168a3.83 3.83 0 00-.934-.464l-4.29 6.114c.219.265.46.513.755.72.295.207.635.367.96.483l4.289-6.115a4.062 4.062 0 00-.78-.738z" fill="url(#ag)"/>
 <path transform="rotate(30.659 1175.6 -935.99)" d="M842.34 518.704a3.89 3.89 0 11-7.777 0 3.89 3.89 0 017.778 0z" fill="url(#af)"/>
 <path transform="rotate(30.659 1466.6 1269.3)" d="M-243.207 972.168a3.83 3.83 0 00-.934-.464l-4.29 6.114c.219.265.46.513.755.72.295.207.635.367.96.483l4.289-6.115a4.062 4.062 0 00-.78-.738z" fill="url(#ag)"/>
 <path transform="rotate(-21.738 -409.45 2031.3)" d="M842.34 518.704a3.89 3.89 0 11-7.777 0 3.89 3.89 0 017.778 0z" fill="url(#af)"/>
 <path transform="rotate(-21.738 -2140.6 -562.85)" d="M-243.207 972.168a3.83 3.83 0 00-.934-.464l-4.29 6.114c.219.265.46.513.755.72.295.207.635.367.96.483l4.289-6.115a4.062 4.062 0 00-.78-.738z" fill="url(#ag)"/>
 <path transform="translate(-685 -343.17)" d="M842.34 518.704a3.89 3.89 0 11-7.777 0 3.89 3.89 0 017.778 0z" fill="url(#af)"/>
 <path transform="translate(398.88 -799.83)" d="M-243.207 972.168a3.83 3.83 0 00-.934-.464l-4.29 6.114c.219.265.46.513.755.72.295.207.635.367.96.483l4.289-6.115a4.062 4.062 0 00-.78-.738z" fill="url(#ag)"/>
 <path transform="scale(.95389) rotate(76.651 702.64 -126.25)" d="M842.34 518.704a3.89 3.89 0 11-7.777 0 3.89 3.89 0 017.778 0z" fill="url(#af)"/>
 <path transform="scale(.95389) rotate(76.651 449.55 787.66)" d="M-243.207 972.168a3.83 3.83 0 00-.934-.464l-4.29 6.114c.219.265.46.513.755.72.295.207.635.367.96.483l4.289-6.115a4.062 4.062 0 00-.78-.738z" fill="url(#ag)"/>
 <path transform="scale(.95389) rotate(22.573 1429.2 -1565.1)" d="M842.34 518.704a3.89 3.89 0 11-7.777 0 3.89 3.89 0 017.778 0z" fill="url(#af)"/>
 <path transform="matrix(.88081 .36616 -.36616 .88081 653.28 -643.05)" d="M-243.207 972.168a3.83 3.83 0 00-.934-.464l-4.29 6.114c.219.265.46.513.755.72.295.207.635.367.96.483l4.289-6.115a4.062 4.062 0 00-.78-.738z" fill="url(#ag)"/>
 <path transform="scale(.95389) rotate(20.747 1459 -1724.6)" d="M842.34 518.704a3.89 3.89 0 11-7.777 0 3.89 3.89 0 017.778 0z" fill="url(#af)"/>
 <path transform="scale(.95389) rotate(20.747 2164.4 1464.2)" d="M-243.207 972.168a3.83 3.83 0 00-.934-.464l-4.29 6.114c.219.265.46.513.755.72.295.207.635.367.96.483l4.289-6.115a4.062 4.062 0 00-.78-.738z" fill="url(#ag)"/>
 <path transform="matrix(.95389 0 0 .95389 -697.17 -368.46)" d="M842.34 518.704a3.89 3.89 0 11-7.777 0 3.89 3.89 0 017.778 0z" fill="url(#af)"/>
 <path transform="matrix(.95389 0 0 .95389 336.73 -804.06)" d="M-243.207 972.168a3.83 3.83 0 00-.934-.464l-4.29 6.114c.219.265.46.513.755.72.295.207.635.367.96.483l4.289-6.115a4.062 4.062 0 00-.78-.738z" fill="url(#ag)"/>
</svg>
