<?xml version="1.0" encoding="UTF-8"?>
<svg width="256" height="256" xmlns="http://www.w3.org/2000/svg" xmlns:xlink="http://www.w3.org/1999/xlink">
 <defs>
  <linearGradient id="a">
   <stop stop-color="#ffd73b" offset="0"/>
   <stop stop-color="#ee8400" offset="1"/>
  </linearGradient>
  <linearGradient id="i" x1="808.5" x2="815.75" y1="604.53" y2="552.53" gradientUnits="userSpaceOnUse" xlink:href="#c"/>
  <linearGradient id="h" x1="870.37" x2="901.5" y1="529.09" y2="502.22" gradientUnits="userSpaceOnUse" xlink:href="#c"/>
  <linearGradient id="g" x1="779.75" x2="796.62" y1="526.34" y2="501.09" gradientUnits="userSpaceOnUse" xlink:href="#c"/>
  <linearGradient id="q" x1="29.023" x2="37.241" y1="24.615" y2="21.311" gradientTransform="matrix(6.4001 0 0 6.4001 674.79 367.47)" gradientUnits="userSpaceOnUse" xlink:href="#a"/>
  <linearGradient id="l" x1="14.27" x2="25.219" y1="26.721" y2="26.058" gradientTransform="matrix(6.4001 0 0 6.4001 674.79 367.47)" gradientUnits="userSpaceOnUse" xlink:href="#a"/>
  <linearGradient id="m" x1="8.969" x2="17.828" y1="25.848" y2="29.798" gradientTransform="matrix(6.4001 0 0 6.4001 674.79 367.47)" gradientUnits="userSpaceOnUse" xlink:href="#a"/>
  <linearGradient id="n" x1="24.367" x2="31.867" y1="29.051" y2="29.106" gradientTransform="matrix(6.4001 0 0 6.4001 674.79 367.47)" gradientUnits="userSpaceOnUse" xlink:href="#a"/>
  <linearGradient id="c">
   <stop stop-color="#704608" offset="0"/>
   <stop stop-color="#ab8855" offset="1"/>
  </linearGradient>
  <linearGradient id="o" x1="147.5" x2="119" y1="843.86" y2="814.86" gradientTransform="translate(711.6 -85.092)" gradientUnits="userSpaceOnUse">
   <stop stop-color="#5f6b21" offset="0"/>
   <stop stop-color="#39a905" offset="1"/>
  </linearGradient>
  <linearGradient id="p" x1="22.384" x2="15.644" y1="1023.9" y2="1017.5" gradientTransform="matrix(6.4001 0 0 6.4001 668.04 -5758)" gradientUnits="userSpaceOnUse" xlink:href="#a"/>
  <linearGradient id="u" x1="183.12" x2="192.25" y1="72.875" y2="55.5" gradientTransform="translate(711.6 711.27)" gradientUnits="userSpaceOnUse" xlink:href="#a"/>
  <linearGradient id="j" x1="826.5" x2="830.5" y1="594.09" y2="539.59" gradientUnits="userSpaceOnUse" xlink:href="#c"/>
  <radialGradient id="k" cx="17.36" cy="1023.9" r="17.592" gradientTransform="matrix(2.5639 5.7921 -4.9198 2.1778 5778.9 -1825.4)" gradientUnits="userSpaceOnUse" xlink:href="#a"/>
  <radialGradient id="f" cx="27.844" cy="1021.1" r="17.592" gradientTransform="matrix(2.745 4.3867 -6.8695 4.2987 7761.3 -3646.2)" gradientUnits="userSpaceOnUse">
   <stop stop-color="#fff690" offset="0"/>
   <stop stop-color="#f2ff00" offset="1"/>
  </radialGradient>
  <filter id="v" x="-.126" y="-.288" width="1.253" height="1.575" color-interpolation-filters="sRGB">
   <feGaussianBlur stdDeviation="1.154"/>
  </filter>
  <filter id="t" x="-.13" y="-.168" width="1.26" height="1.335" color-interpolation-filters="sRGB">
   <feGaussianBlur stdDeviation="3.999"/>
  </filter>
  <filter id="s" x="-.292" y="-.294" width="1.583" height="1.589" color-interpolation-filters="sRGB">
   <feGaussianBlur stdDeviation="3.755"/>
  </filter>
  <filter id="e" x="-.047" y="-.299" width="1.094" height="1.598" color-interpolation-filters="sRGB">
   <feGaussianBlur stdDeviation=".677"/>
  </filter>
  <filter id="r" x="-.079" y="-.145" width="1.158" height="1.291" color-interpolation-filters="sRGB">
   <feGaussianBlur stdDeviation=".392"/>
  </filter>
 </defs>
 <path transform="matrix(5.7451 0 0 7.092 -15.784 -61.901)" d="m40.943 39.253c0 1.502-7.717 2.72-17.237 2.72s-17.237-1.218-17.237-2.72 7.717-2.72 17.237-2.72 17.237 1.218 17.237 2.72z" fill-opacity=".769" fill-rule="evenodd" filter="url(#e)"/>
 <path transform="translate(-707.05 -717.07)" d="m803.94 766.5c-28.223 0.189-53.832 18.079-66.916 42.495-13.95 24.364-17.43 53.988-13.022 81.412 3.527 22.387 21.984 39.528 42.781 46.594 14.32 5.277 30.231 7.544 45.336 5.156 30.866 3.439 64.183 6.84 93.102-6.656 23.121-11.725 37.469-36.55 38.5-62.188 2.009-30.484-3.745-64.624-27.156-86.125-20.07-18.573-49.816-21.268-75.407-14.406-11.887-4.205-24.507-6.639-37.218-6.282z" fill="url(#f)" overflow="visible"/>
 <path transform="translate(-707.05 -408.8)" d="m774.88 497.22 20.5 29.5 19.625-12.377-16.75 21.375s-23.75-22.125-24.625-23.75-6.875-15-6.875-15z" fill="url(#g)"/>
 <path transform="translate(-707.05 -408.8)" d="M905.125 492.22c-.625-.126-32.25 24.124-32.25 24.124s14.625 14.625 15.25 13.625 15.25-30.125 15.25-30.125l-15.75 45s-25-27.75-24.5-29 42-23.625 42-23.625z" fill="url(#h)"/>
 <path transform="translate(-707.05 -408.8)" d="M759 551.594c1 1.125 26.75 36.75 26.75 36.75l20.875-12.25 23.75 17.5L857 578.47l21.625 17.375 34.625-33L884 606.47l-63.625-2.75-43.625-7.875-24.75-44.25z" fill="url(#i)"/>
 <path transform="translate(-707.05 -408.8)" d="M787.982 573.947l1.326 3.977 9.192-1.856 11.756-11.49 25.898 15.556.618 2.563 5.127-.53 19.18-16.882 12.551 8.22 3.624 4.846 6.403-.22 25.24-18.061-119.412.884z" fill="url(#j)"/>
 <path transform="translate(-707.05 -408.8)" d="m804.94 457.22c-31.082 0.596-58.458 17.852-74.563 54.469-7.991 18.168-12.545 50.937-6.281 75.28 11.276 43.83 68.206 52.414 86.906 47.814 39.716 5.045 82.8 6.482 107.5-15.218 20.4-17.922 26.934-38.978 26.594-67.094-0.857-70.687-45.605-103.6-103.91-89-11.3-3.975-22.475-6.087-33.25-6.25a86.711 86.711 0 0 0-3 0zm97.468 37.969-13.843 41.125-20.782-19.907 34.625-21.218zm-133.09 3.562 43.28 16.875-17.75 16.031-25.53-32.906zm-13.688 54 33.625 24.938 16.094-12.907 31.437 17.938 18.813-16 21.593 11.625 37-20.313-34 46.219-26-22.031-22.937 17.906-27.625-20.594-20.656 15.907-27.344-42.688z" fill="url(#k)" overflow="visible"/>
 <path transform="translate(-707.05 -408.8)" d="M821.844 487.063c-10.69 33.993-16.597 59.079-20.938 81.28l4.438-3.562.5.282c8.73-35.322 17.798-74.405 16-78zm-19.938 93.78l-3.875 3c-2.311 12.952-4.36 25.381-6.812 38.595 0 0 4.841-18.374 10.687-41.594z" fill="url(#l)" overflow="visible"/>
 <path transform="translate(-707.05 -408.8)" d="M809.531 479.75c-13.455 5.451-24.58 12.906-33.75 21.531l2.407.938c8.663-9.2 19.025-16.993 31.343-22.469zm-36.312 24c-36.31 36.474-39.744 91.577-35.219 107.063.28-26.03 9.178-72.735 36.875-104.907l-1.656-2.156z" fill="url(#m)" overflow="visible"/>
 <path transform="translate(-707.05 -408.8)" d="M848.063 487.938c1.224 7.725 8.662 47.162 12.406 81.406l5.031 2.718c-1.136-32.616-8.639-68.927-17.438-84.125zM862.188 589c.753 12.304.6 22.591-1.094 28.469 2.33-7.062 3.655-15.975 4.218-25.813L862.188 589z" fill="url(#n)" overflow="visible"/>
 <path transform="translate(-707.05 -717.07)" d="m835.44 773.3c7.546-25.607 12.221-33.501 24.471-44.624 13.04-3.427 25.494-1.287 23.917 10.94-22.557 17.618-16.346 15.167-34.573 37.421-6.273 1.268-12.546 2.536-13.814-3.737z" fill="url(#o)" overflow="visible"/>
 <path transform="translate(-707.05 -717.07)" d="m806.43 775.27c-10.54-3.544-24.16-1.497-36.26-0.666l-6.32 3.66c11.867-1.284 32.48-6.134 42.58-2.994z" fill="url(#p)" overflow="visible"/>
 <path transform="translate(-707.05 -408.8)" d="M881.063 483.906c4.43 3.57 8.679 9.39 12.625 16.625l2.906-1.781c-4.92-6.8-10.216-11.998-15.532-14.844zm18.593 19.406l-1.843 5.532c6.6 14.488 12.11 32.518 15.843 49.469l.532-.282-.47.625c3.782 17.262 5.711 33.365 5.063 43.375 8.207-30.49-2.85-73.163-19.125-98.718z" fill="url(#q)" overflow="visible"/>
 <path transform="matrix(6.4001 0 0 6.4001 -36.253 -42.829)" d="M10.967 21.128c2.55-1.947 7.086-6.078 11.903-6.134-.46-.856-9.82-.503-11.903 6.134z" fill="#fff" fill-opacity=".348" filter="url(#r)" overflow="visible"/>
 <path transform="matrix(.80272 -.59635 .65913 .88722 -106.94 47.977)" d="m47.73 182.64c0 9.275-6.015 16.793-13.435 16.793s-13.435-7.518-13.435-16.793 6.015-16.794 13.435-16.794 13.435 7.519 13.435 16.794z" fill="#fff" fill-opacity=".317" filter="url(#s)"/>
 <path transform="translate(-707.05 -717.07)" d="m867.52 944.29c28.242-13.948 54.147-28.049 73.893-57.276 0 0-6.188 58.69-73.893 57.276z" fill-opacity=".196" filter="url(#t)"/>
 <path transform="translate(-707.05 -717.07)" d="M900.285 775.239l-7.812.156 10.656 1.25c-.937-.49-1.882-.96-2.844-1.406z" fill="url(#u)"/>
 <path transform="translate(-707.05 -717.07)" d="m860.97 728.98c8.784 1.187 17.139 2.898 21.744 9.192 0 0 3.535-12.02-21.744-9.192z" fill="#fff" fill-opacity=".357" filter="url(#v)"/>
</svg>
