<?xml version="1.0" encoding="UTF-8"?>
<svg width="256" height="256" xmlns="http://www.w3.org/2000/svg" xmlns:xlink="http://www.w3.org/1999/xlink">
 <defs>
  <linearGradient id="a">
   <stop stop-color="#ffd73b" offset="0"/>
   <stop stop-color="#ee8400" offset="1"/>
  </linearGradient>
  <linearGradient id="r" x1="183.12" x2="192.25" y1="72.875" y2="55.5" gradientTransform="translate(736.13 381.6)" gradientUnits="userSpaceOnUse" xlink:href="#a"/>
  <linearGradient id="n" x1="29.023" x2="37.241" y1="24.615" y2="21.311" gradientTransform="matrix(6.4001 0 0 6.4001 699.32 346.08)" gradientUnits="userSpaceOnUse" xlink:href="#a"/>
  <linearGradient id="m" x1="22.384" x2="15.644" y1="1023.9" y2="1017.5" gradientTransform="matrix(6.4001 0 0 6.4001 692.57 -6087.7)" gradientUnits="userSpaceOnUse" xlink:href="#a"/>
  <linearGradient id="l" x1="147.5" x2="119" y1="843.86" y2="814.86" gradientTransform="translate(736.13 -414.76)" gradientUnits="userSpaceOnUse">
   <stop stop-color="#5f6b21" offset="0"/>
   <stop stop-color="#39a905" offset="1"/>
  </linearGradient>
  <linearGradient id="k" x1="24.367" x2="31.867" y1="29.051" y2="29.106" gradientTransform="matrix(6.4001 0 0 6.4001 699.32 346.08)" gradientUnits="userSpaceOnUse" xlink:href="#a"/>
  <linearGradient id="j" x1="8.969" x2="17.828" y1="25.848" y2="29.798" gradientTransform="matrix(6.4001 0 0 6.4001 699.32 346.08)" gradientUnits="userSpaceOnUse" xlink:href="#a"/>
  <linearGradient id="i" x1="14.27" x2="25.219" y1="26.721" y2="26.058" gradientTransform="matrix(6.4001 0 0 6.4001 699.32 37.807)" gradientUnits="userSpaceOnUse" xlink:href="#a"/>
  <linearGradient id="g" x1="788.23" x2="869.25" y1="271.69" y2="216.62" gradientTransform="translate(-3 308.27)" gradientUnits="userSpaceOnUse">
   <stop stop-color="#704608" offset="0"/>
   <stop stop-color="#ab8855" offset="1"/>
  </linearGradient>
  <radialGradient id="h" cx="17.36" cy="1023.9" r="17.592" gradientTransform="matrix(2.5639 5.7921 -4.9198 2.1778 5803.4 -2155.1)" gradientUnits="userSpaceOnUse" xlink:href="#a"/>
  <radialGradient id="f" cx="27.844" cy="1021.1" r="17.592" gradientTransform="matrix(2.745 4.3867 -6.8695 4.2987 7785.8 -3975.9)" gradientUnits="userSpaceOnUse">
   <stop stop-color="#fff690" offset="0"/>
   <stop stop-color="#f2ff00" offset="1"/>
  </radialGradient>
  <filter id="p" x="-.292" y="-.294" width="1.583" height="1.589" color-interpolation-filters="sRGB">
   <feGaussianBlur stdDeviation="3.755"/>
  </filter>
  <filter id="q" x="-.13" y="-.168" width="1.26" height="1.335" color-interpolation-filters="sRGB">
   <feGaussianBlur stdDeviation="3.999"/>
  </filter>
  <filter id="e" x="-.047" y="-.299" width="1.094" height="1.598" color-interpolation-filters="sRGB">
   <feGaussianBlur stdDeviation=".677"/>
  </filter>
  <filter id="o" x="-.079" y="-.145" width="1.158" height="1.291" color-interpolation-filters="sRGB">
   <feGaussianBlur stdDeviation=".392"/>
  </filter>
  <filter id="s" x="-.126" y="-.288" width="1.253" height="1.575" color-interpolation-filters="sRGB">
   <feGaussianBlur stdDeviation="1.154"/>
  </filter>
 </defs>
 <path transform="matrix(5.7451 0 0 7.092 -15.784 -61.901)" d="m40.943 39.253c0 1.502-7.717 2.72-17.237 2.72s-17.237-1.218-17.237-2.72 7.717-2.72 17.237-2.72 17.237 1.218 17.237 2.72z" fill-opacity=".769" fill-rule="evenodd" filter="url(#e)"/>
 <path transform="translate(-731.58 -387.4)" d="m754.92 490.28c-7.99 18.169-12.563 50.958-6.3 75.302 11.277 43.828 68.201 52.4 86.901 47.8 39.717 5.046 82.802 6.5 107.5-15.2 20.399-17.921 26.94-38.985 26.6-67.101-0.856-70.686-45.6-103.6-103.9-89.002-45.2-15.9-88.636-2.195-110.8 48.201z" fill="url(#f)" overflow="visible"/>
 <path transform="translate(-731.58 -387.4)" d="M838.469 491.08c-3.48 2.4 3.311 4.715 3.062 7.688 2.776 6.415-1.417 15.539 1.25 22.093 4.687 12.437 17.702 20.236 17.835 34.249.849 2.772-3.07 8.474 1.384 6.158 1.633-1.425-.13-1.77.031 1.593.478 3.256 6.34 11.964 9.813 12.938 2.195 1.04 8-1.672-.625-7.563-2.094-2.544-1.774-9.373-4.625-11.125 3.577-8.568-1.701-17.44-5.924-25.012-5.832-8.882-12.429-19.299-11.733-30.456.25-3.997-1.021-8.773-5.218-9.844-2.435-1.186-2.496-.794-5.25-.719zm-4.563 2.781c-2.43 1.652-.97 5.683 2.063 4.25 5.551 2.086 2.55-6.357-2.063-4.25zm-37.968.75c-20.602 13.21-26.052 42.174-15.97 63.75 2.486 4.291 4.076 10.433 8.688 12.75 8.192-9.118-3.624-.365 2.25 4.22 5.74 3.655 12.885 4.902 19.157 7.593 4.41 1.759 11.43.114 10.468-4.656-11.182-1.273-18.265-5.277-21.406-9.75-2.404-2.07 1.363-4.948-.438-7.657.008-4.039-1.884 1.27-4.156.188.604 4.023-3.112-3.584-4.031-4.969-10.34-18.832-9.15-44.523 6.719-59.969 1.265-2.602 2.22-2.768-1.282-1.5zm24.75 7.875c-1.578 2-1.254 6.885.187 7.75-2.466-.054.954 4.188-1.125 6-3.163 2.426 3.15 2.04.094 3.594.72 3.202-.327-3.003-1.282 1.563-1.66 3.885-7.96 9.047-8.062 13.25-3.1 4.713-5.156 9.73-5.219 15.437 3.668 4.324 5.436 6.81 7.906 9.688 2.28 5.474 7.24 16.024 8.563 15.625-3.75-.459-3.178 1.865-2.531 4.625 2.16 2.652 4.58 3.422 3.187 1.656 9.432-3.396 14.513-.567 19.063-5.625.244 2.397-4.039 2.954.375 2.094.899 4.06 3.758 4.182 5.125 7 2.954 2.539 9.975 2.594 12.75-.282 3.448-1.341 11.397-2.186 10.468-7.28-1.693-2.066-7.938-.508-10.156.468-3.38 3.414-10.771 2.209-10.25-2.344-.468-3.678.43-11.586-4.125-13.187 1.136-1.247.621 1.76.688 2.718-3.618 3.33-8.294 9.11-13.563 7.907-2.84.016-7.151-4.52-9-2.282-1.404-2.145 2.223-6.41.094-9.156-3.378-4.775-9.017-7.393-11.563-11.75 3.039-2.476 3.025-9.794 5-13.031 1.234-5.3 7.929-12.447 3-17.25 2.554 3.611 6.325 5.807 7.188 3.469 1.633 1.513 10.358-2.685 14.344-4.532 3.13-.626-1.7-2.454-4.407-4.156-4.7-.502 6.322-1.082.52-.024-9.516 4.348-13.59 1.84-11.27-3.82-1.327-1.628-1.713-1.806-.937-4.093-.262-2.65-4.3-.455-5.188-6.625l.125 2.593zm9.968-1.062c-3.191.413-5.024 6.023-.718 4.875 1.043-1.015.024 1.97.812 4.187 3.849-.064 7.96 2.367 10.106 3.504-.091-1.363-3.086-9.697-7.254-8.678 1.11-3.423-1.511-4.248-2.946-3.888zm5.844 13.719c-1.139 2.32-.614 1.435.969 1.875 1.172.905 1.344-3.584-.969-1.875zm.75 2.062c-2.965.102.874-1.225 0 0zM852 544.986c-.625 2.847 2.384 6.961 2.125 1.625.039-2.286-1.5-6.08-2.125-1.625zm-47.938 3.125c-1.029 2.517.447 3.225 2.032 5.125 2.224-3.61-.22-5.128-1.313-8.625l-.718 3.5zm56.125-1.593c-1.706 1.294-.451-2.871 0 0zm-10.25-14.844c-2.006.145 3.262 23.224 1.72 23.875-.898 3.03.49.866 1 1.281 1.026 3.137 10.368-1.05 7.155-2.625-1.666-.56-7.276-24.2-9.875-22.531zM802.5 552.58c-1.322-.249-3.955 2.605-3.031.719-2.968-.232-6.513 1.178-5.282 4.812-.939 4.31 5.337 3.936 5.094 1.438 2.538.08 3.098-5.5 5.75-6.844-1.05-.853-.927-.544-2.531-.125zm40.969 18.688c.042 4.636-.742 5.687-.219.218.06-1.956-.06-2.284.219-.218zm-25.782 11.75c-1.98 2.62-7.862 2.053-7.906 5.656 4.232 3.321 10.48 3.899 15.719 5.062 8.085.927 19.162.311 26.406-3.406.434-3.001-3.256-2.382-5.093-3.812-3.86 4.082-28.303.778-29.125-3.5z" fill="url(#g)"/>
 <path transform="translate(-731.58 -79.136)" d="M829.438 127.563c-31.082.595-58.427 17.852-74.532 54.468-7.99 18.169-12.544 50.937-6.281 75.281 11.277 43.829 68.206 52.413 86.906 47.813 39.717 5.045 82.8 6.482 107.5-15.219 20.4-17.921 26.935-38.978 26.594-67.094-.856-70.686-45.605-103.6-103.906-89-11.3-3.975-22.475-6.086-33.25-6.25a88.784 88.784 0 00-3.032 0zm-14.5 53.687c2.53-.027 5.128.236 7.625.094-1.377 1.196-2.714 2.442-3.375 4.25-2.445 6.162-.967 13.391-1 20.093 1.544 5.727-2.089 9.554-5.032 13.438-3.72 3.77-5.597 8.878-7.531 13.844-2.88 4.089-3.454 9.05-4.563 13.781.28 6.142-6.119 3.972-9.312 5.625-1.48 1.69 2.408 12.912-1.5 8.406-9.06-12.3-12.815-28.02-10.563-42.187 2.54-16.276 13.301-30.003 28.063-35.688 2.208-1.289 4.657-1.629 7.188-1.656zm26.875 2.531c.311-.024.8.013 1.5.156 4.532.309 8.497 3.26 12.406 5.657 6.967 4.79 13.027 11.188 17.312 18.594 9.44 15.341 11.076 34.74 4.219 49.812-1.948 2.492-3.384 11.134-7.344 6.594-5.173-1.72-2.474-9.08-7.281-9.938 3.072-3.69 2.15-10.492.563-15.812-1.958-9.137-9.167-15.97-12.875-24.406-4.647-7.557-2.391-16.236-4.813-24.22.374-2.366-5.87-6.264-3.688-6.437zm-4.125 2.406c.967.239 2.1 1.127 2.375 2.157-2.762 1.34-4.765.815-2.375-2.156zm-15.094 7.407c.247-.017.52-.014.812.062 2.357-.313 4.755 6.71 1.969 6.344.08-5.446-7.003-3.317-3.5 1.125-1.679 2.672-2.984-7.28.719-7.531zm11.437.531a2.1 2.1 0 01.657.094c4.526-1.368 8.24 11.206 3.187 9.781 2.527-4.033-4.488-9.483-5.25-3.406-2.973 1.385-1.861-6.408 1.406-6.469zm-10.75 3.406l.5.375c1.966 3.765-1.238 1.616-.5-.375zm12.094 1.063l.594.156.562.313c2.334 4.051-1.413.653-1.156-.47zm-8.625 2.437c2.939.083 2.148.26 3.563 2 1.351-1.64 3.847.874 6.093 1.906 6.293 2.51-3.683 4.002-5.937 4.625-3.376 2.735-13.232-1.768-8.625-5.843 1.763-3.336 4.25 1.01 4.906-2.688zm13.344 6.656c-.004.35.044.701-.063 1.032-2.852 3.553-9.335 6.097-14.406 5.031-4.322-2.475-.315-2.31 2.25-1.844 4.147-.84 8.908-1.535 12.219-4.219zm3.375 3c.788.53 1.37 1.31 2.218 1.75 3.58 4.104-3.742 1.515-2.218-1.75zm-22.688 1.657c1.35-.133 3.349 5.906 6.313 5.5 4.358-.6 7.203-5.658 12.156-4.75 2.533 4.11 4.654 8.238 5.594 12.937 2.48 4.913 5.139 10.05 4.656 15.5-1.422 3.6 2.424 8.03 4.813 4 2.596-6.767-1.44-14.448-5.282-20.531.99-.94 4.924 5.795 5.782 8.469 2.801 4.437.041 9.875 1.218 13.719 5.673 4.489-3.643-1.466-5.531 1.093-.434 3.217-4.006 1.248-4.906 4.031-.603 6.742.169 13.78-1.25 20.375-2.197 2.37-.945-5.45-.188-6.718.767-5.83-3.53-.505-5.281.719-4.211 1.667-9.77 2.154-14.063-.657-4.302-3.473-.435 1.404-.53 3.531-1.833 5.54-.565-1.725-2.813-3.593-4.461-3.779 3.55-4.348.437-8.281-3.888-4.382-8.649-7.922-12.343-12.532-3.224-2.297-2.894-10.168-1.25-10.437-2.687 2.409 2.528 13.87 3.28 7.312-.317-6.483 2.193-12.386 5.532-17.312-.43-3.632.862-6.8 2.5-9.719.316-1.883.706-2.612 1.156-2.656zM812 224.53c.552.01.33 1.19.25 1.375-2.612 3.292-2.023.414-.25-1.375zm-6.719 20.688c.155-.007.329.017.5.031l.625.125c4.59 4.11 7.325 9.882 10.625 15 2.618 3.806 5.095 9.681 1.469 13.031-4.928 2.132-10.343-2.28-15.438-3.406-3.23-1.4-9.936-2.33-9.718-6.563 3.353-3.194-3.828-11.58 3.75-9.968 6.626 1.804 3.4-8.032 8.187-8.25zm43.875 7.062c2.018 4.662 6.263 7.82 10.594 4.094 6.174-2.46 3.4 6.408 7.344 8.875 5.832 1.742 1.228 5.865-1.938 6.781-4.889.424-7.705 4.877-12.25 5.813-6.74.225-6.542-7.812-5.437-12.25.575-4.081-2.68-11.8 1.687-13.313zm-22.187 21c2.75.018 5.643.556 8.312.719 3.188.947 8.475-.509 9.938 3.656.51 2.75 8.102 3.483 6.5 4.438-10.928 4.126-23.76 3.718-35.375-.844-6.85-1.617 1.48-3.272 3.187-5.594 2.103-1.895 4.688-2.393 7.438-2.375z" fill="url(#h)" overflow="visible"/>
 <path transform="translate(-731.58 -79.136)" d="M846.344 157.406a864.96 864.96 0 00-8.532 28.844c.937.283 1.988 1.11 2.25 2.094-1.279.62-2.405.831-3 .594-.486 1.781-.916 3.488-1.375 5.218 1.496.19 2.814 1.773 3.657 3.625a1009.35 1009.35 0 002.781-12.531c-.866-.969-1.207-1.608.313-1.438 3.022-14.227 4.787-24.644 3.906-26.406zm-11.657 40.469c-.468 1.804-.904 3.561-1.343 5.313.987.549 2.048 1.283 3.062 1.75.484.193.854.38 1.157.562.115-.496.26-1.007.375-1.5-.022-.006-.041.006-.063 0 .031-.05.066-.106.094-.156.152-.657.287-1.287.437-1.938-.12-2.155-2.089-4.102-3.719-4.031zm.688.719l.594.156.562.313c2.334 4.051-1.413.653-1.156-.47zm1.656 9.219c-1.508.659-3.664 1.091-5.218 1.437-.162.668-.28 1.308-.438 1.969 1.786-.379 3.56-.824 5.219-1.5.15-.637.289-1.274.437-1.906zm-.968 4.062c-1.61.874-3.424 1.543-5.282 1.875-.233.997-.494 2.018-.718 3 1.889-1.066 3.638-2.597 5.656-3.344.123-.516.222-1.017.343-1.531zm-14.157 45.844c-.242 1.377-.48 2.786-.718 4.156 1.046-1.102 2.246-2.204.718-4.156zm1 7.094c-.164 0-.133.204-.062.468.039-.152.086-.316.125-.469-.017-.002-.048 0-.063 0zm-2.281.28c-.144.835-.294 1.667-.438 2.5.277 1.74.1 3.416-.843 4.813-.233 1.354-.452 2.705-.688 4.063.36-.262.669-.532.875-.813.263-.237.535-.43.813-.625 0-.004.03.004.03 0 .711-2.751 1.136-4.461 1.97-7.719-.212-.543-.49-1.023-.875-1.343a5.524 5.524 0 01-.844-.875zm-2.906 16.657c-.641 3.644-1.274 7.288-1.969 11.031 0 0 1.755-6.78 2.781-10.719-.274-.094-.54-.213-.812-.312z" fill="url(#i)" overflow="visible"/>
 <path transform="translate(-731.58 -387.4)" d="m834.05 458.34c-70.246 28.458-77.248 111.47-71.522 131.07 0.373-34.773 16.1-106.43 71.522-131.07z" fill="url(#j)" overflow="visible"/>
 <path transform="translate(-731.58 -387.4)" d="m872.6 466.53c1.96 12.372 19.775 106.06 13.012 129.53 10.916-33.076 0.498-106.19-13.012-129.53z" fill="url(#k)" overflow="visible"/>
 <path transform="translate(-731.58 -387.4)" d="m859.97 443.63c7.545-25.606 12.22-33.5 24.47-44.624 13.04-3.427 25.495-1.286 23.917 10.941-22.557 17.618-16.346 15.167-34.573 37.421-6.273 1.268-12.546 2.536-13.814-3.738z" fill="url(#l)" overflow="visible"/>
 <path transform="translate(-731.58 -387.4)" d="m830.96 445.6c-10.54-3.544-24.16-1.497-36.26-0.665l-6.32 3.66c11.867-1.284 32.48-6.134 42.58-2.995z" fill="url(#m)" overflow="visible"/>
 <path transform="translate(-731.58 -387.4)" d="m905.58 462.5c21.98 17.712 39.521 90.721 37.746 118.13 11.109-41.271-13.073-104.92-37.746-118.13z" fill="url(#n)" overflow="visible"/>
 <path transform="matrix(6.4001 0 0 6.4001 -36.253 -42.829)" d="M10.967 21.128c2.55-1.947 7.086-6.078 11.903-6.134-.46-.856-9.82-.503-11.903 6.134z" fill="#fff" fill-opacity=".348" filter="url(#o)" overflow="visible"/>
 <path transform="matrix(.80272 -.59635 .65913 .88722 -106.94 47.977)" d="m47.73 182.64c0 9.275-6.015 16.793-13.435 16.793s-13.435-7.518-13.435-16.793 6.015-16.794 13.435-16.794 13.435 7.519 13.435 16.794z" fill="#fff" fill-opacity=".317" filter="url(#p)"/>
 <path transform="translate(-731.58 -387.4)" d="m892.04 614.62c28.242-13.949 54.147-28.05 73.893-57.276 0 0-6.187 58.69-73.893 57.276z" fill-opacity=".196" filter="url(#q)"/>
 <path transform="translate(-731.58 -387.4)" d="M924.815 445.571l-7.813.157 10.656 1.25c-.937-.49-1.881-.96-2.843-1.407z" fill="url(#r)"/>
 <path transform="translate(-731.58 -387.4)" d="m885.5 399.31c8.784 1.187 17.139 2.898 21.744 9.192 0 0 3.535-12.02-21.744-9.192z" fill="#fff" fill-opacity=".357" filter="url(#s)"/>
</svg>
