<?xml version="1.0" encoding="UTF-8"?>
<svg width="256" height="256" xmlns="http://www.w3.org/2000/svg" xmlns:xlink="http://www.w3.org/1999/xlink">
 <defs>
  <linearGradient id="a">
   <stop stop-color="#ffd73b" offset="0"/>
   <stop stop-color="#ee8400" offset="1"/>
  </linearGradient>
  <linearGradient id="c">
   <stop stop-color="#704608" offset="0"/>
   <stop stop-color="#ab8855" offset="1"/>
  </linearGradient>
  <linearGradient id="u" x1="183.12" x2="192.25" y1="72.875" y2="55.5" gradientTransform="translate(405.4 711.27)" gradientUnits="userSpaceOnUse" xlink:href="#a"/>
  <linearGradient id="q" x1="29.023" x2="37.241" y1="24.615" y2="21.311" gradientTransform="matrix(6.4001 0 0 6.4001 368.6 675.74)" gradientUnits="userSpaceOnUse" xlink:href="#a"/>
  <linearGradient id="p" x1="22.384" x2="15.644" y1="1023.9" y2="1017.5" gradientTransform="matrix(6.4001 0 0 6.4001 361.84 -5758)" gradientUnits="userSpaceOnUse" xlink:href="#a"/>
  <linearGradient id="o" x1="147.5" x2="119" y1="843.86" y2="814.86" gradientTransform="translate(405.4 -85.092)" gradientUnits="userSpaceOnUse">
   <stop stop-color="#5f6b21" offset="0"/>
   <stop stop-color="#39a905" offset="1"/>
  </linearGradient>
  <linearGradient id="m" x1="8.969" x2="17.828" y1="25.848" y2="29.798" gradientTransform="matrix(6.4001 0 0 6.4001 368.6 675.74)" gradientUnits="userSpaceOnUse" xlink:href="#a"/>
  <linearGradient id="l" x1="14.27" x2="25.219" y1="26.721" y2="26.058" gradientTransform="matrix(6.4001 0 0 6.4001 368.6 367.47)" gradientUnits="userSpaceOnUse" xlink:href="#a"/>
  <linearGradient id="n" x1="24.367" x2="31.867" y1="29.051" y2="29.106" gradientTransform="matrix(6.4001 0 0 6.4001 368.6 367.47)" gradientUnits="userSpaceOnUse" xlink:href="#a"/>
  <linearGradient id="j" x1="525.56" x2="537.31" y1="616.28" y2="559.72" gradientUnits="userSpaceOnUse" xlink:href="#c"/>
  <linearGradient id="g" x1="461.56" x2="493.91" y1="536.12" y2="514.2" gradientUnits="userSpaceOnUse" xlink:href="#c"/>
  <linearGradient id="h" x1="552.07" x2="582.48" y1="544.87" y2="518.53" gradientUnits="userSpaceOnUse" xlink:href="#c"/>
  <linearGradient id="i" x1="490.62" x2="495" y1="599.34" y2="566.72" gradientUnits="userSpaceOnUse" xlink:href="#c"/>
  <radialGradient id="k" cx="17.36" cy="1023.9" r="17.592" gradientTransform="matrix(2.5639 5.7921 -4.9198 2.1778 5472.7 -1825.4)" gradientUnits="userSpaceOnUse" xlink:href="#a"/>
  <radialGradient id="f" cx="27.844" cy="1021.1" r="17.592" gradientTransform="matrix(2.745 4.3867 -6.8695 4.2987 7455.1 -3646.2)" gradientUnits="userSpaceOnUse">
   <stop stop-color="#fff690" offset="0"/>
   <stop stop-color="#f2ff00" offset="1"/>
  </radialGradient>
  <filter id="r" x="-.079" y="-.145" width="1.158" height="1.291" color-interpolation-filters="sRGB">
   <feGaussianBlur stdDeviation=".392"/>
  </filter>
  <filter id="v" x="-.126" y="-.288" width="1.253" height="1.575" color-interpolation-filters="sRGB">
   <feGaussianBlur stdDeviation="1.154"/>
  </filter>
  <filter id="t" x="-.13" y="-.168" width="1.26" height="1.335" color-interpolation-filters="sRGB">
   <feGaussianBlur stdDeviation="3.999"/>
  </filter>
  <filter id="s" x="-.292" y="-.294" width="1.583" height="1.589" color-interpolation-filters="sRGB">
   <feGaussianBlur stdDeviation="3.755"/>
  </filter>
  <filter id="e" x="-.047" y="-.299" width="1.094" height="1.598" color-interpolation-filters="sRGB">
   <feGaussianBlur stdDeviation=".677"/>
  </filter>
 </defs>
 <path transform="matrix(5.7451 0 0 7.092 -15.784 -61.901)" d="m40.943 39.253c0 1.502-7.717 2.72-17.237 2.72s-17.237-1.218-17.237-2.72 7.717-2.72 17.237-2.72 17.237 1.218 17.237 2.72z" fill-opacity=".769" fill-rule="evenodd" filter="url(#e)"/>
 <path transform="translate(-400.85 -717.07)" d="m497.74 766.5c-28.223 0.189-53.831 18.079-66.915 42.495-13.951 24.364-17.43 53.988-13.022 81.412 3.526 22.387 21.983 39.528 42.78 46.594 14.32 5.277 30.232 7.544 45.337 5.156 30.866 3.439 64.182 6.84 93.101-6.656 23.122-11.725 37.47-36.55 38.5-62.188 2.01-30.484-3.745-64.624-27.156-86.125-20.07-18.573-49.816-21.268-75.406-14.406-11.888-4.205-24.508-6.639-37.219-6.282z" fill="url(#f)" overflow="visible"/>
 <path transform="translate(-400.85 -408.8)" d="m487.2 502.26-14.85 25.81 31.82 8.308s-4.596 7.07-5.48 6.717-39.068-9.9-39.068-9.9l14.32-20.682z" fill="url(#g)"/>
 <path transform="translate(-400.85 -408.8)" d="m557.38 506.86-2.475 30.406 31.466-5.657 4.42 6.717-23.865 12.728-22.45-3.535 4.419-28.992z" fill="url(#h)"/>
 <path transform="translate(-400.85 -408.8)" d="M464.875 574.22l2.625 17.5 9.375.5-2-5 1.125-2.126 12.625.5.125 7.625 10 1.25-1.5-5.75 1.125-2.125 11.625.75-.375 8.125 9.375.875-.625-6.125 1.625-1.875 11.625.375-1.125 7.75 9.375 1.375-1.5-6.25 1.125-1.875 11.75.75-.625 6.875 8.25.875-.875-4.25 1.625-2.375 10.875 1.625-1.5 5.375 9.75 1.875-.375 6.125-114.25-8-4.125-25.5z" fill="url(#i)"/>
 <path transform="translate(-400.85 -408.8)" d="M477.12 581.018l1.503 1.591 2.563-2.563 1.414-4.773 10.784 1.06 7.07 8.132s2.21-1.502 2.299-1.856c.088-.354.619-6.894.619-6.894l10.164 1.06 6.879 9.01s2.667-1.269 2.667-1.408c0-.796.796-8.397.796-8.397l14.053 4.684 3.448 6.718 3.005-1.68.619-7.336 10.695 1.856 5.126 9.687 2.21-1.997.088-7.513 7.16.707 6.551 9.645 2.553-2.22 1.414-8.22-58.867-8.309-45.697 1.15z" fill="url(#j)"/>
 <path transform="translate(-400.85 -408.8)" d="M498.719 457.219c-31.082.596-58.427 17.852-74.531 54.469-7.992 18.168-12.545 50.937-6.282 75.28 11.277 43.829 68.206 52.413 86.906 47.813 39.717 5.045 82.8 6.482 107.5-15.218 20.4-17.922 26.935-38.978 26.594-67.094-.856-70.687-45.605-103.6-103.906-89-11.3-3.975-22.475-6.087-33.25-6.25a88.527 88.527 0 00-3.031 0zm-12.86 47.722l12.016 32.372-33.69-6.845zm70.047 4.59l28.375 23.282-35.968 11.437zM462.25 575.47l6.094.437.844 6.782h9.406l.906-6.032 9.969.719-.906 6.531 11.875.532.218-6.313 9.75.688-.281 7.218 10.406-.187.282-7.344 9.468 1.688.063 6.875 11.125.343-.063-6.437 9.313.187-.938 7.157 10.969 1.593-.125-7.593 6.969.468-.594 7.469 9.875.531 1.844-7.218 4.906.312-7.594 18.406-10.437-1.468 2.593-5.813-10.312-.875.188 6.438-10.032-.22 1.438-7.843-11.219-.844.344 7.719-10.407-.469.72-8.343-10.688-.313.906 7.875-11.875-.719 1.156-8.062-11.187-.5.5 7.937-11.563-.906.563-8.281-11.75-.344.219 7.844-9.563-.5z" fill="url(#k)" overflow="visible"/>
 <path transform="translate(-400.85 -408.8)" d="m515.62 487.06c-13.286 42.25-19.16 70.724-23.844 97l3.094 0.125c9.74-38.539 22.885-92.855 20.75-97.125zm-25.969 109.09c-1.495 8.673-2.955 17.285-4.625 26.282 0 0 2.877-10.983 6.75-26.125l-2.125-0.157z" fill="url(#l)" overflow="visible"/>
 <path transform="translate(-400.85 -717.07)" d="m503.32 788.01c-70.245 28.458-77.248 111.47-71.522 131.07 0.373-34.774 16.1-106.43 71.522-131.07z" fill="url(#m)" overflow="visible"/>
 <path transform="translate(-400.85 -408.8)" d="M541.875 487.938c.841 5.309 4.584 25.593 8.063 48.875l3.218-14.688c-3.07-14.46-7.016-26.82-11.281-34.188zm14.688 53.687l-5.657 1.813c2.231 15.58 4.227 31.969 5.063 45.78l3.25.47c.69-14.997-.406-32.005-2.657-48.063zm1.312 52.5l.188 6.438-1.657-.032c.052 7.12-.403 13.022-1.531 16.938 2.127-6.443 3.452-14.432 4.094-23.25l-1.094-.094z" fill="url(#n)" overflow="visible"/>
 <path transform="translate(-400.85 -717.07)" d="m529.24 773.3c7.545-25.607 12.22-33.501 24.47-44.624 13.04-3.427 25.495-1.287 23.918 10.94-22.558 17.618-16.347 15.167-34.573 37.421-6.274 1.268-12.547 2.536-13.815-3.737z" fill="url(#o)" overflow="visible"/>
 <path transform="translate(-400.85 -717.07)" d="m500.23 775.27c-10.54-3.544-24.159-1.497-36.26-0.666l-6.32 3.66c11.868-1.284 32.481-6.134 42.58-2.994z" fill="url(#p)" overflow="visible"/>
 <path transform="translate(-400.85 -717.07)" d="m574.85 792.17c21.981 17.711 39.521 90.72 37.747 118.13 11.108-41.27-13.074-104.92-37.747-118.13z" fill="url(#q)" overflow="visible"/>
 <path transform="matrix(6.4001 0 0 6.4001 -36.253 -42.829)" d="M10.967 21.128c2.55-1.947 7.086-6.078 11.903-6.134-.46-.856-9.82-.503-11.903 6.134z" fill="#fff" fill-opacity=".348" filter="url(#r)" overflow="visible"/>
 <path transform="matrix(.80272 -.59635 .65913 .88722 -106.94 47.977)" d="m47.73 182.64c0 9.275-6.015 16.793-13.435 16.793s-13.435-7.518-13.435-16.793 6.015-16.794 13.435-16.794 13.435 7.519 13.435 16.794z" fill="#fff" fill-opacity=".317" filter="url(#s)"/>
 <path transform="translate(-400.85 -717.07)" d="m561.32 944.29c28.242-13.948 54.147-28.049 73.893-57.276 0 0-6.187 58.69-73.893 57.276z" fill-opacity=".196" filter="url(#t)"/>
 <path transform="translate(-400.85 -717.07)" d="M594.087 775.239l-7.813.156 10.657 1.25c-.938-.49-1.882-.96-2.844-1.406z" fill="url(#u)"/>
 <path transform="translate(-400.85 -717.07)" d="m554.78 728.98c8.783 1.187 17.138 2.898 21.743 9.192 0 0 3.536-12.02-21.743-9.192z" fill="#fff" fill-opacity=".357" filter="url(#v)"/>
</svg>
