<?xml version="1.0" encoding="UTF-8"?>
<svg width="256" height="256" xmlns="http://www.w3.org/2000/svg" xmlns:xlink="http://www.w3.org/1999/xlink">
 <defs>
  <linearGradient id="a">
   <stop stop-color="#ffd73b" offset="0"/>
   <stop stop-color="#ee8400" offset="1"/>
  </linearGradient>
  <linearGradient id="q" x1="29.023" x2="37.241" y1="24.615" y2="21.311" gradientTransform="matrix(6.4001 0 0 6.4001 -36.805 -35.528)" gradientUnits="userSpaceOnUse" xlink:href="#a"/>
  <linearGradient id="m" x1="8.969" x2="17.828" y1="25.848" y2="29.798" gradientTransform="matrix(6.4001 0 0 6.4001 -36.805 -35.528)" gradientUnits="userSpaceOnUse" xlink:href="#a"/>
  <linearGradient id="p" x1="22.384" x2="15.644" y1="1023.9" y2="1017.5" gradientTransform="matrix(6.4001 0 0 6.4001 -43.555 -5673)" gradientUnits="userSpaceOnUse" xlink:href="#a"/>
  <linearGradient id="u" x1="183.12" x2="192.25" y1="72.875" y2="55.5" gradientUnits="userSpaceOnUse" xlink:href="#a"/>
  <linearGradient id="o" x1="147.5" x2="119" y1="843.86" y2="814.86" gradientUnits="userSpaceOnUse">
   <stop stop-color="#5f6b21" offset="0"/>
   <stop stop-color="#39a905" offset="1"/>
  </linearGradient>
  <linearGradient id="l" x1="14.27" x2="25.219" y1="26.721" y2="26.058" gradientTransform="matrix(6.4001 0 0 6.4001 -36.805 -35.528)" gradientUnits="userSpaceOnUse" xlink:href="#a"/>
  <linearGradient id="n" x1="24.367" x2="31.867" y1="29.051" y2="29.106" gradientTransform="matrix(6.4001 0 0 6.4001 -36.805 -35.528)" gradientUnits="userSpaceOnUse" xlink:href="#a"/>
  <linearGradient id="g" x1="61.875" x2="68.625" y1="115.5" y2="89.125" gradientUnits="userSpaceOnUse" xlink:href="#d"/>
  <linearGradient id="h" x1="137" x2="204.75" y1="134.77" y2="96.772" gradientUnits="userSpaceOnUse" xlink:href="#d"/>
  <linearGradient id="i" x1="38.361" x2="178.37" y1="183.61" y2="183.61" gradientUnits="userSpaceOnUse" xlink:href="#d"/>
  <linearGradient id="j" x1="60.469" x2="150.51" y1="175.56" y2="175.56" gradientUnits="userSpaceOnUse" xlink:href="#d"/>
  <linearGradient id="d">
   <stop stop-color="#704608" offset="0"/>
   <stop stop-color="#ab8855" offset="1"/>
  </linearGradient>
  <radialGradient id="f" cx="27.844" cy="1021.1" r="17.592" gradientTransform="matrix(2.745 4.3867 -6.8695 4.2987 7049.7 -3561.1)" gradientUnits="userSpaceOnUse">
   <stop stop-color="#fff690" offset="0"/>
   <stop stop-color="#f2ff00" offset="1"/>
  </radialGradient>
  <radialGradient id="k" cx="17.36" cy="1023.9" r="17.592" gradientTransform="matrix(2.5639 5.7921 -4.9198 2.1778 5067.3 -2228.4)" gradientUnits="userSpaceOnUse" xlink:href="#a"/>
  <filter id="r" x="-.079" y="-.145" width="1.158" height="1.291" color-interpolation-filters="sRGB">
   <feGaussianBlur stdDeviation=".392"/>
  </filter>
  <filter id="v" x="-.126" y="-.288" width="1.253" height="1.575" color-interpolation-filters="sRGB">
   <feGaussianBlur stdDeviation="1.154"/>
  </filter>
  <filter id="t" x="-.13" y="-.168" width="1.26" height="1.335" color-interpolation-filters="sRGB">
   <feGaussianBlur stdDeviation="3.999"/>
  </filter>
  <filter id="s" x="-.292" y="-.294" width="1.583" height="1.589" color-interpolation-filters="sRGB">
   <feGaussianBlur stdDeviation="3.755"/>
  </filter>
  <filter id="e" x="-.047" y="-.299" width="1.094" height="1.598" color-interpolation-filters="sRGB">
   <feGaussianBlur stdDeviation=".677"/>
  </filter>
 </defs>
 <path transform="matrix(5.7451 0 0 7.092 -15.784 -61.901)" d="m40.943 39.253c0 1.502-7.717 2.72-17.237 2.72s-17.237-1.218-17.237-2.72 7.717-2.72 17.237-2.72 17.237 1.218 17.237 2.72z" fill-opacity=".769" fill-rule="evenodd" filter="url(#e)"/>
 <path transform="translate(4.552 -802.16)" d="M92.344 851.594c-28.223.188-53.832 18.078-66.916 42.494-13.95 24.364-17.43 53.988-13.022 81.412 3.527 22.388 21.984 39.528 42.782 46.594 14.318 5.277 30.23 7.544 45.335 5.156 30.866 3.439 64.183 6.84 93.102-6.656 23.121-11.725 37.469-36.55 38.5-62.188 2.01-30.484-3.745-64.624-27.156-86.125-20.07-18.573-49.816-21.267-75.406-14.406-11.888-4.205-24.508-6.639-37.22-6.281z" fill="url(#f)" overflow="visible"/>
 <path transform="translate(4.552 -5.8)" d="M61.438 94.813c-5.177.156-10.184 1.99-12.563 6.937 10.952 36.928 47.819 25.698 60.5 24.25-6.457-1.38-42.423 5.434-53.629-23.19 7.157-1.14 8.41-6.404 21.879-2.435-.686-2.438-8.622-5.791-16.188-5.563zm23.757 6.144l-2.445-.207L73.5 117c5.84 1.824 15.98.42 11.695-16.043z" fill="url(#g)"/>
 <path transform="translate(4.552 -5.8)" d="M166.5 99.5l-3.75 2-.25 17.75 1 2.75c6.124.04 11.002-15.165 3-22.5zm30 .5c-14.905 17.6-20.754 39.098-54 20.75 2.363-3.548 4.685-7.401 9-12.25l-24 15.75c23.685 6.356 51.266 20.675 69-24.25z" fill="url(#h)"/>
 <path transform="translate(4.552 -5.8)" d="m42.603 157.36c4.225 10.804 13.09 19.869 20.86 29.345 4.735-4.416 5.9-4.371 8.839-6.541l1.237-0.707c2.612 3.512 2.662 8.561 3.005 13.435 13.342 7.45 28.06 6.044 42.25 7.424l9.9-7.601 1.59-4.596 1.945-0.707c1.981 2.804 1.961 6.109 2.121 9.369 13.517-0.951 29.246-8.543 44.018-13.258l-58.16 26.34s-49.674-9.723-50.558-10.607-29.875-25.986-30.052-27.224c-0.177-1.237-1.237-14.496-1.237-14.496z" fill="url(#i)"/>
 <path transform="translate(4.552 -5.8)" d="M62.938 163.906l-2.47 10.781v1.75c6.29-2.74 6.679-7.108 8.827-10.77zm81.5 9.906l-3.032 13.407 1.598-.335c2.449.89 10.178-10.328 6.561-11.852-.95-.4-5.128-1.22-5.128-1.22z" fill="url(#j)"/>
 <path transform="translate(4.552 -5.8)" d="M93.313 54.219c-31.082.596-58.427 17.852-74.532 54.468-7.99 18.17-12.544 50.938-6.281 75.282 11.277 43.828 68.206 52.412 86.906 47.812 39.717 5.045 82.8 6.482 107.5-15.219 20.4-17.921 26.935-38.977 26.594-67.093-.856-70.687-45.605-103.6-103.906-89-11.3-3.975-22.475-6.087-33.25-6.25a88.604 88.604 0 00-3.031 0zm-27.876 43.75c3.275.022 6.37.61 9.313 1.562-3.52 2.489-6.178 5.94-1.406 17.563 0 0 13.08 2.344 9.344-13.906 13.445 8.099 21.593 22.78 21.593 22.78-17.396 2.01-43.962 1.793-52.656-24.906 4.842-2.222 9.472-3.123 13.813-3.093zm105.97 4.25c5.707-.13 11.771 1.33 18.124 5.187-11.703 38.907-52.64 16.188-52.906 14.719 4.627-5.025 10.611-10.693 17.625-14.719-3.502 17.33 10.875 14.781 10.875 14.781 4.928-11.912 2.927-16.28-.469-19.093a31.386 31.386 0 016.75-.875zM40 159c6.18 2.23 12.174 4.214 18.094 5.969-.387 4.792 1.293 8.035 2.718 11.469 1.794-3.136 4.194-6.271 4.688-9.407 23.82 6.386 46.764 9.264 74.469 10.375-.955 3.602.297 6.773 1.094 10.344 3.612-3.335 6.375-6.309 6.25-10.094 10.448.302 21.557.378 33.687.344-15.338 10.923-32.153 18.374-48.781 22.063.091-4.113.509-8.28-2.125-11.938-6.13 2.858-8.007 8.267-9.5 13.906-17.313 2.006-33.974-.265-48-7.156 1.374-6.092 1.446-11.5-.469-15.25-4.649 2.208-6.883 5.901-8 10.281C53.746 182.744 45.353 172.52 40 159z" fill="url(#k)" overflow="visible"/>
 <path transform="translate(4.552 -5.8)" d="M62.625 60.969zm-14.719 8.843zm-4.812 4zm67.125 10.25a838.824 838.824 0 00-10.281 35.344c.382.512.737 1.008 1.062 1.469.005.006-.005.025 0 .031.645.917 1.146 1.613 1.594 2.313.276.42.447.728.656 1.062 4.792-21.032 8.115-37.925 6.969-40.219zm-7.375 42.063c-.64.067-1.277.129-1.938.188l-.406.03-.375.032c-.678.05-1.367.081-2.063.125-4.402 17.168-7.451 31.818-10.03 45.594 1.197.218 2.39.421 3.593.625 3.784-15.123 7.827-31.803 11.219-46.594zM83.25 199.094a1614.302 1614.302 0 01-3.625 20.344s2.26-8.652 5.156-19.907c-.508-.144-1.028-.283-1.531-.437zm127.313 14.062c-.59.578-1.166 1.148-1.782 1.719.61-.566 1.197-1.146 1.781-1.719z" fill="url(#l)" overflow="visible"/>
 <path transform="translate(4.552 -5.8)" d="M97.938 76.75C84.624 82.143 73.582 89.49 64.468 98c.321-.008.652-.033.97-.031.765.005 1.504.06 2.25.125 8.438-8.705 18.443-16.095 30.25-21.344zM54.75 108.313c-29.873 36.114-32.566 85.051-28.344 99.5.256-23.838 7.724-64.995 30.25-96.47a35.037 35.037 0 01-1.906-3.03z" fill="url(#m)" overflow="visible"/>
 <path transform="translate(4.552 -5.8)" d="M62.625 60.969zm-14.719 8.843zm-4.812 4zm93.375 11.126c.626 3.953 2.892 16.229 5.437 31.843a85.025 85.025 0 011.969-1.781c.143-.129.293-.247.438-.375.27-.235.537-.486.812-.719.404-.347.803-.693 1.219-1.031-2.833-11.746-6.238-21.655-9.875-27.938zm6.906 41c2.577 16.487 5.188 35.322 6.594 51.78 1.346.034 2.693.068 4.062.094.027-16.12-1.678-33.75-4.5-49.687-.116-.034-.228-.06-.344-.094a56.04 56.04 0 01-.906-.281c-.555-.176-1.096-.377-1.625-.563-.127-.044-.25-.08-.375-.124-.167-.06-.305-.128-.469-.188a56.436 56.436 0 01-1.687-.656c-.24-.098-.52-.184-.75-.281zm10 67.406c-.801.332-1.603.654-2.406.969.224 8.587-.173 15.658-1.469 20.156 1.954-5.922 3.185-13.15 3.875-21.125zm57.188 19.812c-.59.578-1.166 1.148-1.782 1.719.61-.566 1.197-1.146 1.781-1.719z" fill="url(#n)" overflow="visible"/>
 <path transform="translate(4.552 -802.16)" d="m123.84 858.39c7.545-25.605 12.22-33.5 24.47-44.623 13.04-3.427 25.494-1.287 23.917 10.94-22.557 17.618-16.346 15.168-34.573 37.422-6.273 1.267-12.546 2.535-13.814-3.738z" fill="url(#o)" overflow="visible"/>
 <path transform="translate(4.552 -802.16)" d="m94.832 860.36c-10.54-3.544-24.16-1.497-36.26-0.666l-6.32 3.66c11.867-1.283 32.48-6.133 42.58-2.994z" fill="url(#p)" overflow="visible"/>
 <path transform="translate(4.552 -5.8)" d="m169.44 80.906c5.963 4.806 11.611 13.693 16.625 24.625a40.4 40.4 0 0 1 3.468 1.875 49.688 49.688 0 0 1-1.156 3.375c12.168 29.151 20.03 69.442 18.813 88.25 11.108-41.27-13.078-104.92-37.75-118.12z" fill="url(#q)" overflow="visible"/>
 <path transform="matrix(6.4001 0 0 6.4001 -36.253 -42.829)" d="M10.967 21.128c2.55-1.947 7.086-6.078 11.903-6.134-.46-.856-9.82-.503-11.903 6.134z" fill="#fff" fill-opacity=".348" filter="url(#r)" overflow="visible"/>
 <path transform="matrix(.80272 -.59635 .65913 .88722 -106.94 47.977)" d="m47.73 182.64c0 9.275-6.015 16.793-13.435 16.793s-13.435-7.518-13.435-16.793 6.015-16.794 13.435-16.794 13.435 7.519 13.435 16.794z" fill="#fff" fill-opacity=".317" filter="url(#s)"/>
 <path transform="translate(4.552 -5.8)" d="m155.92 233.02c28.242-13.948 54.147-28.049 73.893-57.276 0 0-6.187 58.69-73.893 57.276z" fill-opacity=".196" filter="url(#t)"/>
 <path transform="translate(4.552 -5.8)" d="M188.688 63.969l-7.813.156 10.656 1.25c-.937-.49-1.881-.96-2.844-1.406z" fill="url(#u)"/>
 <path transform="translate(4.552 -5.8)" d="m149.38 17.705c8.784 1.187 17.139 2.898 21.744 9.192 0 0 3.535-12.02-21.744-9.192z" fill="#fff" fill-opacity=".357" filter="url(#v)"/>
</svg>
