<?xml version="1.0" encoding="UTF-8"?>
<svg width="256" height="256" xmlns="http://www.w3.org/2000/svg" xmlns:xlink="http://www.w3.org/1999/xlink">
 <defs>
  <linearGradient id="a">
   <stop stop-color="#ffd73b" offset="0"/>
   <stop stop-color="#ee8400" offset="1"/>
  </linearGradient>
  <linearGradient id="r" x1="183.12" x2="192.25" y1="72.875" y2="55.5" gradientTransform="translate(99.73 381.6)" gradientUnits="userSpaceOnUse" xlink:href="#a"/>
  <linearGradient id="n" x1="29.023" x2="37.241" y1="24.615" y2="21.311" gradientTransform="matrix(6.4001 0 0 6.4001 62.926 346.08)" gradientUnits="userSpaceOnUse" xlink:href="#a"/>
  <linearGradient id="m" x1="22.384" x2="15.644" y1="1023.9" y2="1017.5" gradientTransform="matrix(6.4001 0 0 6.4001 56.176 -6087.7)" gradientUnits="userSpaceOnUse" xlink:href="#a"/>
  <linearGradient id="l" x1="147.5" x2="119" y1="843.86" y2="814.86" gradientTransform="translate(99.73 -414.76)" gradientUnits="userSpaceOnUse">
   <stop stop-color="#5f6b21" offset="0"/>
   <stop stop-color="#39a905" offset="1"/>
  </linearGradient>
  <linearGradient id="k" x1="24.367" x2="31.867" y1="29.051" y2="29.106" gradientTransform="matrix(6.4001 0 0 6.4001 62.926 346.08)" gradientUnits="userSpaceOnUse" xlink:href="#a"/>
  <linearGradient id="j" x1="8.969" x2="17.828" y1="25.848" y2="29.798" gradientTransform="matrix(6.4001 0 0 6.4001 62.926 346.08)" gradientUnits="userSpaceOnUse" xlink:href="#a"/>
  <linearGradient id="i" x1="14.27" x2="25.219" y1="26.721" y2="26.058" gradientTransform="matrix(6.4001 0 0 6.4001 62.926 37.807)" gradientUnits="userSpaceOnUse" xlink:href="#a"/>
  <linearGradient id="g" x1="168" x2="243.5" y1="254.09" y2="184.59" gradientTransform="translate(0 308.27)" gradientUnits="userSpaceOnUse">
   <stop stop-color="#704608" offset="0"/>
   <stop stop-color="#ab8855" offset="1"/>
  </linearGradient>
  <radialGradient id="h" cx="17.36" cy="1023.9" r="17.592" gradientTransform="matrix(2.5639 5.7921 -4.9198 2.1778 5167 -2155.1)" gradientUnits="userSpaceOnUse" xlink:href="#a"/>
  <radialGradient id="f" cx="27.844" cy="1021.1" r="17.592" gradientTransform="matrix(2.745 4.3867 -6.8695 4.2987 7149.4 -3975.9)" gradientUnits="userSpaceOnUse">
   <stop stop-color="#fff690" offset="0"/>
   <stop stop-color="#f2ff00" offset="1"/>
  </radialGradient>
  <filter id="q" x="-.13" y="-.168" width="1.26" height="1.335" color-interpolation-filters="sRGB">
   <feGaussianBlur stdDeviation="3.999"/>
  </filter>
  <filter id="p" x="-.292" y="-.294" width="1.583" height="1.589" color-interpolation-filters="sRGB">
   <feGaussianBlur stdDeviation="3.755"/>
  </filter>
  <filter id="o" x="-.079" y="-.145" width="1.158" height="1.291" color-interpolation-filters="sRGB">
   <feGaussianBlur stdDeviation=".392"/>
  </filter>
  <filter id="e" x="-.047" y="-.299" width="1.094" height="1.598" color-interpolation-filters="sRGB">
   <feGaussianBlur stdDeviation=".677"/>
  </filter>
  <filter id="s" x="-.126" y="-.288" width="1.253" height="1.575" color-interpolation-filters="sRGB">
   <feGaussianBlur stdDeviation="1.154"/>
  </filter>
 </defs>
 <path transform="matrix(5.7451 0 0 7.092 -15.784 -61.901)" d="m40.943 39.253c0 1.502-7.717 2.72-17.237 2.72s-17.237-1.218-17.237-2.72 7.717-2.72 17.237-2.72 17.237 1.218 17.237 2.72z" fill-opacity=".769" fill-rule="evenodd" filter="url(#e)"/>
 <path transform="translate(-95.178 -387.4)" d="m118.53 490.28c-7.991 18.169-12.564 50.958-6.3 75.302 11.276 43.828 68.2 52.4 86.9 47.8 39.717 5.046 82.803 6.5 107.5-15.2 20.4-17.921 26.941-38.985 26.6-67.101-0.856-70.686-45.6-103.6-103.9-89.002-45.201-15.9-88.636-2.195-110.8 48.201z" fill="url(#f)" overflow="visible"/>
 <path transform="translate(-95.178 -387.4)" d="M176.688 480.75c-16.676 5.94-27.85 23.312-29.782 40.656-.218 9.385-.24 19.333 2.531 28.282 6.525 17.653 22.1 33.598 41.47 35.75 3.804-2.3-.022-6.657-3.345-6.594-20.18-6.148-34.754-27.077-34.156-48.219-1.663-17.08 5.796-34.643 20.344-44.114 1.085-.68 9.484-5.8 2.937-5.761zm-.157 14.031c-3.188-.03-5.275 5.304-1.281 5.719 8.744 7.49 17.476 16.582 28.875 19.563 6.948 2.323 9.059 10.766 16.25 12.843 6.458 2.615 9.493 9.237 15.719 12.344 2.538 1.423 3.12 4.24.406 5.813-2.862 2.272-9.567 3.608-7.125 8.53 1.304 3.196 5.466 7.046 8.438 3.47 2.479-2.15.45-4.574-1.813-5.625-1.814-2.23 2.842-.915 3.406-2.813 4.186-2.616 8.268-10.214 2.048-13.144-6.175-4.453-10.712-11.009-17.923-13.825-6.94-3.351-9.402-12.716-17.806-13.552-11.672-2.474-18.191-14.457-28.444-19.323a2.03 2.03 0 00-.75 0zm-7.906 24c-4.161.04-4.333 6.973.313 5.969 2.752.73 7.43-4.106 3.468-5.438-1.455.41-2.393-.592-3.781-.53zm25.938 3.375c2.114 7.485 9.406 12.26 14.25 17.219 4.777-1.057 2.57-8.363-.844-9.969-3.776-3.838-7.74-9.245-13.938-8.687l.347.938.185.5z" fill="url(#g)"/>
 <path transform="translate(-95.178 -79.136)" d="M193.063 127.563c-31.082.595-58.458 17.852-74.563 54.468-7.991 18.169-12.545 50.937-6.281 75.281 11.276 43.829 68.206 52.413 86.906 47.813 39.716 5.045 82.8 6.482 107.5-15.219 20.4-17.921 26.934-38.978 26.594-67.094-.857-70.686-45.605-103.6-103.906-89-11.3-3.975-22.476-6.086-33.25-6.25a86.963 86.963 0 00-3 0zM194 170.53c.59.006 1.189.03 1.781.063.612.034 1.231.062 1.844.125 20.13.805 39.039 17.423 45.031 38.531 4.384 15.344.956 32.12-6.969 44.719-1.566 1.368-3.452-1.63-1.906-.938-2.903-1.263-4.694-5.708-.312-5.687 2.68-2.01 8.122-4.78 7.062-8.906-4.228-4.431-9.823-7.057-13.562-12.125-3.561-3.626-9.195-3.573-12.219-8.22-2.736-2.285-4.624-5.84-7.219-6.937 2.762-.295-5.145-1.812-6.969-2.781-7.342-1.981-12.506-8.657-18.75-12.969-3.357-2.298-7.564-9.7-10.062-2.75-3.313 4.228.936 9.499.406 14.344 1.116 4.742-.592 9.368-5.719 6.719-3.324.511-2.669 7.946.282 7.719 3.668 3.257 10.85 5.643 9.219 12.093-.598 2.187 2.211-3.695 1.78.656.509 1.58.625 4.89 1.126 4.47 1.168 1.007.588 5.616 1.781 3.874 1.349 2.212 1.475 6.369 2.188 5.75.654 3.219-.045 9.91 2.406 9.125 2.719 3.626 5.026 8.656 3.125 13.375.926 2.113 4.85 5.494-.406 4.094-14.556-3.292-27.535-14.481-34.438-28.938.927.38-2.942-6.115-3.281-8.562-1.235-10.982-2.987-26.394 1.625-36.188 6.677-18.253 23.853-30.843 42.156-30.656zm3.188 44.625c3.947 1.42 9.837 1.842 11.25 7.094.35 1.43 2.166 9.948-.313 5.813l-.406-.625-.406-.563c-3.502-4.083-8.27-6.383-10.125-11.719z" fill="url(#h)" overflow="visible"/>
 <path transform="translate(-95.178 -79.136)" d="M209.969 157.406a919.382 919.382 0 00-4.406 14.469c.928.228 1.834.49 2.75.781 1.564-8.334 2.287-13.988 1.656-15.25zM196.125 206.5c-4.762 19.383-7.873 35.663-10.625 51.313a22.33 22.33 0 012 3.343c3.341-13.13 7.178-28.299 10.844-43.562a12.66 12.66 0 01-1.156-2.438c.51.184 1.063.337 1.625.5.59-2.468 1.149-4.86 1.718-7.281-1.568-.426-3.005-1.09-4.406-1.875zm-13.313 66.875c-1.1 6.38-2.24 12.79-3.468 19.406 0 0 2.1-8.043 4.906-18.937-.482-.156-.96-.296-1.438-.469z" fill="url(#i)" overflow="visible"/>
 <path transform="translate(-95.178 -387.4)" d="m197.65 458.34c-70.245 28.458-77.248 111.47-71.522 131.07 0.374-34.773 16.1-106.43 71.522-131.07z" fill="url(#j)" overflow="visible"/>
 <path transform="translate(-95.178 -387.4)" d="m236.2 466.53c1.96 12.372 19.776 106.06 13.012 129.53 10.917-33.076 0.498-106.19-13.012-129.53z" fill="url(#k)" overflow="visible"/>
 <path transform="translate(-95.178 -387.4)" d="m223.57 443.63c7.545-25.606 12.221-33.5 24.471-44.624 13.04-3.427 25.494-1.286 23.917 10.941-22.558 17.618-16.346 15.167-34.573 37.421-6.273 1.268-12.547 2.536-13.815-3.738z" fill="url(#l)" overflow="visible"/>
 <path transform="translate(-95.178 -387.4)" d="m194.56 445.6c-10.54-3.544-24.159-1.497-36.26-0.665l-6.32 3.66c11.868-1.284 32.481-6.134 42.58-2.995z" fill="url(#m)" overflow="visible"/>
 <path transform="translate(-95.178 -387.4)" d="m269.18 462.5c21.98 17.712 39.52 90.721 37.746 118.13 11.108-41.271-13.074-104.92-37.746-118.13z" fill="url(#n)" overflow="visible"/>
 <path transform="matrix(6.4001 0 0 6.4001 -36.253 -42.829)" d="M10.967 21.128c2.55-1.947 7.086-6.078 11.903-6.134-.46-.856-9.82-.503-11.903 6.134z" fill="#fff" fill-opacity=".348" filter="url(#o)" overflow="visible"/>
 <path transform="matrix(.80272 -.59635 .65913 .88722 -106.94 47.977)" d="m47.73 182.64c0 9.275-6.015 16.793-13.435 16.793s-13.435-7.518-13.435-16.793 6.015-16.794 13.435-16.794 13.435 7.519 13.435 16.794z" fill="#fff" fill-opacity=".317" filter="url(#p)"/>
 <path transform="translate(-95.178 -387.4)" d="m255.65 614.62c28.242-13.949 54.147-28.05 73.892-57.276 0 0-6.187 58.69-73.892 57.276z" fill-opacity=".196" filter="url(#q)"/>
 <path transform="translate(-95.178 -387.4)" d="M288.418 445.571l-7.812.157 10.656 1.25c-.937-.49-1.882-.96-2.844-1.407z" fill="url(#r)"/>
 <path transform="translate(-95.178 -387.4)" d="m249.11 399.31c8.784 1.187 17.138 2.898 21.743 9.192 0 0 3.536-12.02-21.743-9.192z" fill="#fff" fill-opacity=".357" filter="url(#s)"/>
</svg>
