<?xml version="1.0" encoding="UTF-8"?>
<svg width="256" height="256" xmlns="http://www.w3.org/2000/svg" xmlns:xlink="http://www.w3.org/1999/xlink">
 <defs>
  <linearGradient id="j" x1="8.969" x2="17.828" y1="25.848" y2="29.798" gradientTransform="matrix(6.4001 0 0 6.4001 62.926 686.3)" gradientUnits="userSpaceOnUse" xlink:href="#a"/>
  <linearGradient id="a">
   <stop stop-color="#ffd73b" offset="0"/>
   <stop stop-color="#ee8400" offset="1"/>
  </linearGradient>
  <linearGradient id="r" x1="183.12" x2="192.25" y1="72.875" y2="55.5" gradientTransform="translate(99.73 721.83)" gradientUnits="userSpaceOnUse" xlink:href="#a"/>
  <linearGradient id="n" x1="29.023" x2="37.241" y1="24.615" y2="21.311" gradientTransform="matrix(6.4001 0 0 6.4001 62.926 686.3)" gradientUnits="userSpaceOnUse" xlink:href="#a"/>
  <linearGradient id="m" x1="22.384" x2="15.644" y1="1023.9" y2="1017.5" gradientTransform="matrix(6.4001 0 0 6.4001 56.176 -5747.5)" gradientUnits="userSpaceOnUse" xlink:href="#a"/>
  <linearGradient id="l" x1="147.5" x2="119" y1="843.86" y2="814.86" gradientTransform="translate(99.73 -74.532)" gradientUnits="userSpaceOnUse">
   <stop stop-color="#5f6b21" offset="0"/>
   <stop stop-color="#39a905" offset="1"/>
  </linearGradient>
  <linearGradient id="k" x1="24.367" x2="31.867" y1="29.051" y2="29.106" gradientTransform="matrix(6.4001 0 0 6.4001 62.926 686.3)" gradientUnits="userSpaceOnUse" xlink:href="#a"/>
  <linearGradient id="i" x1="14.27" x2="25.219" y1="26.721" y2="26.058" gradientTransform="matrix(6.4001 0 0 6.4001 62.926 378.03)" gradientUnits="userSpaceOnUse" xlink:href="#a"/>
  <linearGradient id="g" x1="161.89" x2="225.04" y1="913.06" y2="839.87" gradientUnits="userSpaceOnUse">
   <stop stop-color="#704608" offset="0"/>
   <stop stop-color="#ab8855" offset="1"/>
  </linearGradient>
  <radialGradient id="h" cx="17.36" cy="1023.9" r="17.592" gradientTransform="matrix(2.5639 5.7921 -4.9198 2.1778 5167 -1814.9)" gradientUnits="userSpaceOnUse" xlink:href="#a"/>
  <radialGradient id="f" cx="27.844" cy="1021.1" r="17.592" gradientTransform="matrix(2.745 4.3867 -6.8695 4.2987 7149.4 -3635.7)" gradientUnits="userSpaceOnUse">
   <stop stop-color="#fff690" offset="0"/>
   <stop stop-color="#f2ff00" offset="1"/>
  </radialGradient>
  <filter id="p" x="-.292" y="-.294" width="1.583" height="1.589" color-interpolation-filters="sRGB">
   <feGaussianBlur stdDeviation="3.755"/>
  </filter>
  <filter id="q" x="-.13" y="-.168" width="1.26" height="1.335" color-interpolation-filters="sRGB">
   <feGaussianBlur stdDeviation="3.999"/>
  </filter>
  <filter id="e" x="-.047" y="-.299" width="1.094" height="1.598" color-interpolation-filters="sRGB">
   <feGaussianBlur stdDeviation=".677"/>
  </filter>
  <filter id="s" x="-.126" y="-.288" width="1.253" height="1.575" color-interpolation-filters="sRGB">
   <feGaussianBlur stdDeviation="1.154"/>
  </filter>
  <filter id="o" x="-.079" y="-.145" width="1.158" height="1.291" color-interpolation-filters="sRGB">
   <feGaussianBlur stdDeviation=".392"/>
  </filter>
 </defs>
 <path transform="matrix(5.7451 0 0 7.092 -15.784 -61.901)" d="m40.943 39.253c0 1.502-7.717 2.72-17.237 2.72s-17.237-1.218-17.237-2.72 7.717-2.72 17.237-2.72 17.237 1.218 17.237 2.72z" fill-opacity=".769" fill-rule="evenodd" filter="url(#e)"/>
 <path transform="translate(-95.178 -727.63)" d="m118.53 830.5c-7.991 18.168-12.564 50.957-6.3 75.301 11.276 43.828 68.2 52.4 86.9 47.8 39.717 5.046 82.803 6.5 107.5-15.2 20.4-17.921 26.941-38.985 26.6-67.1-0.856-70.687-45.6-103.6-103.9-89.002-45.201-15.9-88.636-2.196-110.8 48.2z" fill="url(#f)" overflow="visible"/>
 <path transform="translate(-95.178 -727.63)" d="M176.75 821.455c-6.361 1.45-1.791 7.239-.969 11.531 2.434 3.417.907 12.848 6.563 11.094 11.402-1.108 22.714 3.803 31.281 10.781 6.715-6.43 13.414-12.877 20.125-19.312-4.046-2.593-8.2 6.724-12.292 8.909-2.954 3.816-5.77 6.213-9.333 1.997-8.393-5.315-18.542-8.46-28.531-7.031-1.81-6.268-3.834-12.357-5.781-18.531l-.884.468-.179.094zm-10.469 7.438c-12.59 11.641-18.602 29.557-16.812 46.593 1.606-1.077-.299 4.626 1 6.188 4.202 22.32 24.16 41.711 47.687 40.781 12.454-.347 25.05-6.236 32.59-16.085-.09-2.99-5.04 2.82-7.277 3.866-17.203 12.527-42.964 8.453-56.281-7.843-5.17-5.41-7.367-12.578-12.625-17.844-3.898-4.504-2.52-9.9-.47-14.906-1.026-14.699 4.67-29.189 13.95-40.321 1.351-2.198-.72-.769-1.762-.43zM173 842.955c-3.764 2.382-8.003 4.903-9.625 9.25 4.267-1.573 7.337-5.301 11.875-6.531-.855-.643-.46-4.745-2.25-2.719zm46.625 10.375c-5.726 2.483-2.419 5.056.65 7.978 10.544 11.54 14.868 27.7 12.756 43.053 3.904-4.556 6.409-10 5.094-16.093-1.05-13.587-7.89-26.378-17.813-35.532l-.687.594zm-52.156 10.656c-8.465 4.177-3.38 20.423 6.125 17.688 2.54-.966 3.728-3.544 4.875-5.813-5.831 4.503-11.95-3.128-10.219-8.875.679-2.58 3.682-6.22-.781-3zm37 11c-8.465 4.177-3.38 20.423 6.125 17.688 2.54-.966 3.728-3.544 4.875-5.813-5.831 4.503-11.95-3.128-10.219-8.875.679-2.58 3.682-6.22-.781-3zm28.344 29.657c.23-.112-.086-.142 0 0z" fill="url(#g)"/>
 <path transform="translate(-95.178 -419.36)" d="M193.063 467.781c-31.082.596-58.458 17.853-74.563 54.469-7.991 18.169-12.545 50.937-6.281 75.281 11.276 43.828 68.206 52.413 86.906 47.813 39.716 5.045 82.8 6.481 107.5-15.219 20.4-17.922 26.934-38.978 26.594-67.094-.857-70.686-45.605-103.6-103.906-89-11.3-3.975-22.476-6.086-33.25-6.25a86.711 86.711 0 00-3 0zm3.875 41.438c14.15 0 26.802 7.014 35.375 18.062l-18.75 18c-8.308-6.58-18.133-10.533-27.594-10.625-2-.02-3.987.132-5.938.469-1.841-6.387-4.887-15.808-6-19.25 6.769-4.238 14.586-6.656 22.906-6.656zM168 520.375l5.969 16.469c-10.36 4.118-19.122 14.306-23.219 32.562a57.978 57.978 0 01-.563-8.187c0-16.569 6.96-31.322 17.813-40.844zm67.938 12.188c4.894 8.22 7.75 18.058 7.75 28.656 0 11.842-3.57 22.758-9.563 31.5 2.108-17.47-5.469-33.51-16.906-44.282l18.719-15.875zm-65.907 23.593c.219.005.432.028.656.063 3.59.552 6.5 4.693 6.5 9.25 0 4.556-2.91 7.802-6.5 7.25-3.59-.553-6.5-4.694-6.5-9.25 0-4.272 2.567-7.395 5.844-7.313zm37 11c.219.005.432.028.656.063 3.59.552 6.5 4.693 6.5 9.25 0 4.556-2.91 7.802-6.5 7.25-3.59-.553-6.5-4.694-6.5-9.25 0-4.272 2.567-7.395 5.844-7.313zM151 570.97c7.052 24.238 57.17 31.448 80.344 25.437-8.545 10.336-20.788 16.813-34.406 16.813-22.82 0-41.83-18.199-45.938-42.25z" fill="url(#h)" overflow="visible"/>
 <path transform="translate(-95.178 -419.36)" d="M209.969 497.625a939.906 939.906 0 00-3.875 12.594c.872.193 1.74.41 2.594.656 1.296-7.203 1.858-12.095 1.28-13.25zm-11.344 39.313c-5.906 22.61-9.535 40.931-12.625 58.312.957.23 1.938.42 2.906.625 4.509-17.819 9.71-38.854 13.906-57.219-1.377-.633-2.782-1.23-4.187-1.718zm-15.375 74C182 618.2 180.743 625.46 179.344 633c0 0 2.301-8.71 5.594-21.531a43.36 43.36 0 01-1.688-.532z" fill="url(#i)" overflow="visible"/>
 <path transform="translate(-95.178 -727.63)" d="m197.65 798.57c-70.245 28.458-77.248 111.47-71.522 131.07 0.374-34.774 16.1-106.43 71.522-131.07z" fill="url(#j)" overflow="visible"/>
 <path transform="translate(-95.178 -727.63)" d="m236.2 806.76c1.96 12.372 19.776 106.06 13.012 129.53 10.917-33.077 0.498-106.2-13.012-129.53z" fill="url(#k)" overflow="visible"/>
 <path transform="translate(-95.178 -727.63)" d="m223.57 783.86c7.545-25.607 12.221-33.501 24.471-44.624 13.04-3.427 25.494-1.287 23.917 10.94-22.558 17.618-16.346 15.167-34.573 37.421-6.273 1.268-12.547 2.536-13.815-3.737z" fill="url(#l)" overflow="visible"/>
 <path transform="translate(-95.178 -727.63)" d="m194.56 785.83c-10.54-3.544-24.159-1.497-36.26-0.666l-6.32 3.66c11.868-1.284 32.481-6.134 42.58-2.994z" fill="url(#m)" overflow="visible"/>
 <path transform="translate(-95.178 -727.63)" d="m269.18 802.73c21.98 17.711 39.52 90.72 37.746 118.13 11.108-41.27-13.074-104.92-37.746-118.13z" fill="url(#n)" overflow="visible"/>
 <path transform="matrix(6.4001 0 0 6.4001 -36.253 -42.829)" d="M10.967 21.128c2.55-1.947 7.086-6.078 11.903-6.134-.46-.856-9.82-.503-11.903 6.134z" fill="#fff" fill-opacity=".348" filter="url(#o)" overflow="visible"/>
 <path transform="matrix(.80272 -.59635 .65913 .88722 -106.94 47.977)" d="m47.73 182.64c0 9.275-6.015 16.793-13.435 16.793s-13.435-7.518-13.435-16.793 6.015-16.794 13.435-16.794 13.435 7.519 13.435 16.794z" fill="#fff" fill-opacity=".317" filter="url(#p)"/>
 <path transform="translate(-95.178 -727.63)" d="m255.65 954.85c28.242-13.948 54.147-28.049 73.892-57.276 0 0-6.187 58.69-73.892 57.276z" fill-opacity=".196" filter="url(#q)"/>
 <path transform="translate(-95.178 -727.63)" d="M288.418 785.799l-7.812.156 10.656 1.25c-.937-.49-1.882-.96-2.844-1.406z" fill="url(#r)"/>
 <path transform="translate(-95.178 -727.63)" d="m249.11 739.54c8.784 1.187 17.138 2.898 21.743 9.192 0 0 3.536-12.02-21.743-9.192z" fill="#fff" fill-opacity=".357" filter="url(#s)"/>
</svg>
