<?xml version="1.0" encoding="UTF-8"?>
<svg width="256" height="256" xmlns="http://www.w3.org/2000/svg" xmlns:xlink="http://www.w3.org/1999/xlink">
 <defs>
  <linearGradient id="a">
   <stop stop-color="#ffd73b" offset="0"/>
   <stop stop-color="#ee8400" offset="1"/>
  </linearGradient>
  <linearGradient id="g" x1="404.8" x2="448.31" y1="124.66" y2="109.63" gradientUnits="userSpaceOnUse" xlink:href="#c"/>
  <linearGradient id="h" x1="381.55" x2="388.56" y1="186.79" y2="147.9" gradientUnits="userSpaceOnUse" xlink:href="#c"/>
  <linearGradient id="i" x1="414.19" x2="411.01" y1="184.33" y2="139.43" gradientUnits="userSpaceOnUse" xlink:href="#c"/>
  <linearGradient id="j" x1="338.86" x2="371.75" y1="116.39" y2="104.72" gradientUnits="userSpaceOnUse" xlink:href="#c"/>
  <linearGradient id="l" x1="14.27" x2="25.219" y1="26.721" y2="26.058" gradientTransform="matrix(6.4001 0 0 6.4001 245.2 -44.528)" gradientUnits="userSpaceOnUse" xlink:href="#a"/>
  <linearGradient id="m" x1="8.969" x2="17.828" y1="25.848" y2="29.798" gradientTransform="matrix(6.4001 0 0 6.4001 245.2 751.83)" gradientUnits="userSpaceOnUse" xlink:href="#a"/>
  <linearGradient id="n" x1="24.367" x2="31.867" y1="29.051" y2="29.106" gradientTransform="matrix(6.4001 0 0 6.4001 245.2 -44.528)" gradientUnits="userSpaceOnUse" xlink:href="#a"/>
  <linearGradient id="o" x1="147.5" x2="119" y1="843.86" y2="814.86" gradientTransform="translate(282 -9)" gradientUnits="userSpaceOnUse">
   <stop stop-color="#5f6b21" offset="0"/>
   <stop stop-color="#39a905" offset="1"/>
  </linearGradient>
  <linearGradient id="p" x1="22.384" x2="15.644" y1="1023.9" y2="1017.5" gradientTransform="matrix(6.4001 0 0 6.4001 238.44 -5682)" gradientUnits="userSpaceOnUse" xlink:href="#a"/>
  <linearGradient id="q" x1="29.023" x2="37.241" y1="24.615" y2="21.311" gradientTransform="matrix(6.4001 0 0 6.4001 245.2 751.83)" gradientUnits="userSpaceOnUse" xlink:href="#a"/>
  <linearGradient id="u" x1="183.12" x2="192.25" y1="72.875" y2="55.5" gradientTransform="translate(282 787.36)" gradientUnits="userSpaceOnUse" xlink:href="#a"/>
  <linearGradient id="c">
   <stop stop-color="#704608" offset="0"/>
   <stop stop-color="#ab8855" offset="1"/>
  </linearGradient>
  <radialGradient id="f" cx="27.844" cy="1021.1" r="17.592" gradientTransform="matrix(2.745 4.3867 -6.8695 4.2987 7331.7 -3570.1)" gradientUnits="userSpaceOnUse">
   <stop stop-color="#fff690" offset="0"/>
   <stop stop-color="#f2ff00" offset="1"/>
  </radialGradient>
  <radialGradient id="k" cx="17.36" cy="1023.9" r="17.592" gradientTransform="matrix(2.5639 5.7921 -4.9198 2.1778 5349.3 -2237.4)" gradientUnits="userSpaceOnUse" xlink:href="#a"/>
  <filter id="r" x="-.079" y="-.145" width="1.158" height="1.291" color-interpolation-filters="sRGB">
   <feGaussianBlur stdDeviation=".392"/>
  </filter>
  <filter id="v" x="-.126" y="-.288" width="1.253" height="1.575" color-interpolation-filters="sRGB">
   <feGaussianBlur stdDeviation="1.154"/>
  </filter>
  <filter id="t" x="-.13" y="-.168" width="1.26" height="1.335" color-interpolation-filters="sRGB">
   <feGaussianBlur stdDeviation="3.999"/>
  </filter>
  <filter id="s" x="-.292" y="-.294" width="1.583" height="1.589" color-interpolation-filters="sRGB">
   <feGaussianBlur stdDeviation="3.755"/>
  </filter>
  <filter id="e" x="-.047" y="-.299" width="1.094" height="1.598" color-interpolation-filters="sRGB">
   <feGaussianBlur stdDeviation=".677"/>
  </filter>
 </defs>
 <path transform="matrix(5.7451 0 0 7.092 -15.784 -61.901)" d="m40.943 39.253c0 1.502-7.717 2.72-17.237 2.72s-17.237-1.218-17.237-2.72 7.717-2.72 17.237-2.72 17.237 1.218 17.237 2.72z" fill-opacity=".769" fill-rule="evenodd" filter="url(#e)"/>
 <path transform="translate(-277.45 -793.16)" d="m374.34 842.59c-28.223 0.188-53.832 18.078-66.916 42.494-13.95 24.364-17.43 53.988-13.022 81.412 3.527 22.388 21.984 39.528 42.781 46.594 14.32 5.277 30.232 7.544 45.336 5.156 30.866 3.439 64.183 6.84 93.102-6.656 23.121-11.725 37.469-36.55 38.5-62.188 2.01-30.484-3.745-64.624-27.156-86.125-20.07-18.573-49.816-21.267-75.406-14.406-11.888-4.205-24.508-6.639-37.22-6.281z" fill="url(#f)" overflow="visible"/>
 <path transform="translate(-277.45 3.2)" d="M418.25 96.906l-7.063 3.188s-1.782 18.378-2.312 20.5c-.53 2.121 33.23 1.573 33.938 1.75.707.177 5.5-2.281 5.5-2.281-10.672-8.953-25.08-7.926-33.152-6.217l.983-11.884zm19.438 1.406c-.614.003-1.33.233-2.125.72-3.182 1.944-6.875 7.406-6.875 7.406s.524 1.604 5.12 1.074c2.99-.345 6.723-3.006 6.723-5.48 0-1.857-1.004-3.728-2.844-3.72z" fill="url(#g)"/>
 <path transform="translate(-277.45 3.2)" d="M349.664 159.126c-8.708 5.688-10.52 8.125-14.179 11.058l3.309 10.477 8.926-2.796-.707-6.187 2.69-3.056 7.26-1.443 2.406 6.746c36.298-7.896 65.054 4.431 71.436 7.829l1.237-4.773 2.298-.354 7.779 3.359-1.591 7.955 6.54 7.248-5.48 5.126s-44.194-12.728-45.078-13.081c-.884-.354-48.26-1.768-48.26-1.768s-21.213 1.414-20.152.177c1.06-1.238-1.768-15.203-1.061-16.264.707-1.06 22.627-10.253 22.627-10.253z" fill="url(#h)"/>
 <path transform="translate(-277.45 3.2)" d="M369.11 162.839l1.67-3.29-2.377-8.2 35.532-3.183 26.516 7.602-.442 11.048 2.033-1.59 1.414-7.69s-11.136-11.845-12.197-12.198c-1.06-.354-57.099 0-57.099 0l-1.945 6.364z" fill="url(#i)"/>
 <path transform="translate(-277.45 3.2)" d="M363.969 95.563c-.774-.006-1.63.337-2.625 1-2.652 1.767-6.563 9.343-6.563 9.343s1.424 2.124 6.727.533c3.869-1.16 7.062-5.662 5.648-8.314-.884-1.657-1.898-2.554-3.187-2.563zm-21.031 6.812l-6.875 2.313s-.376 12.003-.907 14.124c-.53 2.122 33.262 1.605 33.969 1.782.707.177 1.031-2.125 1.031-2.125-10.671-8.952-20.533-8.654-28.605-6.945l-.344-4.505z" fill="url(#j)"/>
 <path transform="translate(-277.45 3.2)" d="M375.313 45.219c-31.082.596-58.427 17.852-74.532 54.468-7.99 18.17-12.544 50.938-6.281 75.282 11.277 43.828 68.206 52.412 86.906 47.812 39.717 5.045 82.8 6.482 107.5-15.219 20.4-17.921 26.935-38.977 26.594-67.093-.856-70.687-45.605-103.6-103.906-89-11.3-3.975-22.475-6.087-33.25-6.25a88.604 88.604 0 00-3.031 0zm46.5 52.656c-.002.086-.032.164-.032.25 0 4.98 3.885 9.031 8.657 9.031 3.495 0 6.483-2.165 7.843-5.281 3.814 2.25 7.124 5.457 9.188 9.625l-1.531 8.313c-7.423-6.168-24.043-6.899-33.438-2.5l1.188-16.72c1.978-1.575 4.852-2.484 8.125-2.718zm-57.375 1.906c3.205.98 5.88 2.604 7.562 4.719l-3.344 13.5c-12.679-7.422-21.881-6.655-30.5-2.313l.344-8.437c2.75-3.358 6.227-5.627 9.906-6.969.725 3.912 4.009 6.875 7.969 6.875 4.127 0 7.538-3.217 8.063-7.375zm24.062 51.656c11.15-.012 22.139 1.692 32.313 4.563l-2.907 7 12 3.906 1.031-7.594C442.66 163.744 452.777 169.657 460 176l-14.5 19.5c-1.719-2.319-3.971-4.472-6.625-6.469l1.313-8-8.5-3.531-2.063 6c-19.261-9.248-48.926-12.572-72.25-7l-2.063-7.125-8.468 2.125 1 7.938c-3.95 1.524-7.612 3.369-10.844 5.562l-5-14.5c7.78-6.35 16.275-10.877 25.094-13.938l1.75 9.657 10.25-3.531-2.406-8.875c7.209-1.624 14.537-2.367 21.812-2.375z" fill="url(#k)" overflow="visible"/>
 <path transform="translate(-277.45 3.2)" d="M392.219 75.063C382.097 107.249 376.276 131.45 372 152.78a96.74 96.74 0 014.469-.625c8.66-35.08 17.532-73.529 15.75-77.094zm-21.281 99.218c-1.005.095-2.007.222-3 .344-2.11 11.953-4.037 23.55-6.313 35.813 0 0 4.146-15.76 9.313-36.157z" fill="url(#l)" overflow="visible"/>
 <path transform="translate(-277.45 -793.16)" d="m379.92 864.1c-70.246 28.46-77.248 111.48-71.522 131.07 0.373-34.774 16.1-106.43 71.522-131.07z" fill="url(#m)" overflow="visible"/>
 <path transform="translate(-277.45 3.2)" d="M418.469 75.938c.556 3.51 2.414 13.761 4.594 26.906 1.296 2.19 3.47 3.763 6 4.187-2.963-13.126-6.636-24.256-10.594-31.094zm9.125 38.562c-.893-.01-1.77.02-2.656.063 2.216 14.046 4.522 29.913 6.093 44.78a117.66 117.66 0 014.875 2c-.463-15.556-2.406-32.006-5.25-46.687a44.997 44.997 0 00-3.062-.156zm5.031 63.406c.69 11.896.526 21.833-1.125 27.563 2.368-7.175 3.704-16.255 4.25-26.281l-3.125-1.282z" fill="url(#n)" overflow="visible"/>
 <path transform="translate(-277.45 -793.16)" d="m405.84 849.39c7.545-25.605 12.22-33.5 24.47-44.623 13.04-3.427 25.494-1.287 23.917 10.94-22.557 17.618-16.346 15.168-34.573 37.422-6.273 1.267-12.546 2.535-13.814-3.738z" fill="url(#o)" overflow="visible"/>
 <path transform="translate(-277.45 -793.16)" d="m376.83 851.36c-10.54-3.544-24.16-1.497-36.26-0.666l-6.32 3.66c11.867-1.283 32.48-6.133 42.58-2.994z" fill="url(#p)" overflow="visible"/>
 <path transform="translate(-277.45 -793.16)" d="m451.45 868.26c21.98 17.712 39.521 90.72 37.746 118.13 11.109-41.271-13.073-104.92-37.746-118.13z" fill="url(#q)" overflow="visible"/>
 <path transform="matrix(6.4001 0 0 6.4001 -36.253 -42.829)" d="M10.967 21.128c2.55-1.947 7.086-6.078 11.903-6.134-.46-.856-9.82-.503-11.903 6.134z" fill="#fff" fill-opacity=".348" filter="url(#r)" overflow="visible"/>
 <path transform="matrix(.80272 -.59635 .65913 .88722 -106.94 47.977)" d="m47.73 182.64c0 9.275-6.015 16.793-13.435 16.793s-13.435-7.518-13.435-16.793 6.015-16.794 13.435-16.794 13.435 7.519 13.435 16.794z" fill="#fff" fill-opacity=".317" filter="url(#s)"/>
 <path transform="translate(-277.45 -793.16)" d="m437.92 1020.4c28.242-13.948 54.147-28.048 73.893-57.275 0 0-6.187 58.69-73.893 57.275z" fill-opacity=".196" filter="url(#t)"/>
 <path transform="translate(-277.45 -793.16)" d="M470.688 851.33l-7.813.157 10.656 1.25c-.937-.489-1.881-.96-2.844-1.406z" fill="url(#u)"/>
 <path transform="translate(-277.45 -793.16)" d="m431.38 805.07c8.784 1.187 17.139 2.899 21.744 9.193 0 0 3.535-12.021-21.744-9.193z" fill="#fff" fill-opacity=".357" filter="url(#v)"/>
</svg>
