<?xml version="1.0" encoding="UTF-8"?>
<svg width="256" height="256" xmlns="http://www.w3.org/2000/svg" xmlns:xlink="http://www.w3.org/1999/xlink">
 <defs>
  <linearGradient id="a">
   <stop stop-color="#ffd73b" offset="0"/>
   <stop stop-color="#ee8400" offset="1"/>
  </linearGradient>
  <linearGradient id="r" x1="183.12" x2="192.25" y1="72.875" y2="55.5" gradientTransform="translate(417.93 381.6)" gradientUnits="userSpaceOnUse" xlink:href="#a"/>
  <linearGradient id="n" x1="29.023" x2="37.241" y1="24.615" y2="21.311" gradientTransform="matrix(6.4001 0 0 6.4001 381.12 346.08)" gradientUnits="userSpaceOnUse" xlink:href="#a"/>
  <linearGradient id="m" x1="22.384" x2="15.644" y1="1023.9" y2="1017.5" gradientTransform="matrix(6.4001 0 0 6.4001 374.37 -6087.7)" gradientUnits="userSpaceOnUse" xlink:href="#a"/>
  <linearGradient id="l" x1="147.5" x2="119" y1="843.86" y2="814.86" gradientTransform="translate(417.93 -414.76)" gradientUnits="userSpaceOnUse">
   <stop stop-color="#5f6b21" offset="0"/>
   <stop stop-color="#39a905" offset="1"/>
  </linearGradient>
  <linearGradient id="k" x1="24.367" x2="31.867" y1="29.051" y2="29.106" gradientTransform="matrix(6.4001 0 0 6.4001 381.12 37.807)" gradientUnits="userSpaceOnUse" xlink:href="#a"/>
  <linearGradient id="j" x1="8.969" x2="17.828" y1="25.848" y2="29.798" gradientTransform="matrix(6.4001 0 0 6.4001 381.12 346.08)" gradientUnits="userSpaceOnUse" xlink:href="#a"/>
  <linearGradient id="i" x1="14.27" x2="25.219" y1="26.721" y2="26.058" gradientTransform="matrix(6.4001 0 0 6.4001 381.12 37.807)" gradientUnits="userSpaceOnUse" xlink:href="#a"/>
  <linearGradient id="g" x1="467.29" x2="554.62" y1="262.8" y2="215.07" gradientTransform="translate(0 308.27)" gradientUnits="userSpaceOnUse">
   <stop stop-color="#704608" offset="0"/>
   <stop stop-color="#ab8855" offset="1"/>
  </linearGradient>
  <radialGradient id="h" cx="17.36" cy="1023.9" r="17.592" gradientTransform="matrix(2.5639 5.7921 -4.9198 2.1778 5485.2 -2155.1)" gradientUnits="userSpaceOnUse" xlink:href="#a"/>
  <radialGradient id="f" cx="27.844" cy="1021.1" r="17.592" gradientTransform="matrix(2.745 4.3867 -6.8695 4.2987 7467.6 -3975.9)" gradientUnits="userSpaceOnUse">
   <stop stop-color="#fff690" offset="0"/>
   <stop stop-color="#f2ff00" offset="1"/>
  </radialGradient>
  <filter id="q" x="-.13" y="-.168" width="1.26" height="1.335" color-interpolation-filters="sRGB">
   <feGaussianBlur stdDeviation="3.999"/>
  </filter>
  <filter id="p" x="-.292" y="-.294" width="1.583" height="1.589" color-interpolation-filters="sRGB">
   <feGaussianBlur stdDeviation="3.755"/>
  </filter>
  <filter id="o" x="-.079" y="-.145" width="1.158" height="1.291" color-interpolation-filters="sRGB">
   <feGaussianBlur stdDeviation=".392"/>
  </filter>
  <filter id="e" x="-.047" y="-.299" width="1.094" height="1.598" color-interpolation-filters="sRGB">
   <feGaussianBlur stdDeviation=".677"/>
  </filter>
  <filter id="s" x="-.126" y="-.288" width="1.253" height="1.575" color-interpolation-filters="sRGB">
   <feGaussianBlur stdDeviation="1.154"/>
  </filter>
 </defs>
 <path transform="matrix(5.7451 0 0 7.092 -15.784 -61.901)" d="m40.943 39.253c0 1.502-7.717 2.72-17.237 2.72s-17.237-1.218-17.237-2.72 7.717-2.72 17.237-2.72 17.237 1.218 17.237 2.72z" fill-opacity=".769" fill-rule="evenodd" filter="url(#e)"/>
 <path transform="translate(-413.38 -387.4)" d="m436.72 490.28c-7.991 18.169-12.564 50.958-6.3 75.302 11.276 43.828 68.2 52.4 86.901 47.8 39.717 5.046 82.802 6.5 107.5-15.2 20.4-17.921 26.942-38.985 26.6-67.101-0.855-70.686-45.6-103.6-103.9-89.002-45.202-15.9-88.637-2.195-110.8 48.201z" fill="url(#f)" overflow="visible"/>
 <path transform="translate(-413.38 -387.4)" d="M479.5 492.455c-16.427 19.717-17.255 52.147 1.594 70.563 16.24 16.881 44.801 17.53 63.219 3.718 7.008-4.94 13.731-11.945 17.156-19.312-.952.496-3.018-2.247-4.657-3.406-2.294-2.495-9.207-1.387-7.75-6.25.121-3.298-1.567-2.267-2.875-.72-3.855 1.1-3.066 7.05-2.03 9.72 3.741 1.747 8.314.917 11.655 3.28 3.047-.023-.404 2.659-1.125 3.313-15.672 17.034-44.38 22.233-63.468 7.688-7.906-5.362-13.058-14.304-16.688-22.656-1.416-1.713-5.033-.16-4.875-3.188-.916-4.295 2.798-6.581 5.844-8.344 2.05-3.557 7.512-10.39.406-5.25-1.446-.262-3.974 4.636-3.375 1.313-.236-10.782 3.718-21.055 8.785-30.294 1.039-2.398-.798-.704-1.816-.175zm67.219 2.25c-5.447.427-8.096 5.855-9.844 10.344 2.538-2.522 8.736-5.723 10.375-.563 2.489 5.067 1.093 11.225 1.344 16.75-1.319 3.8-.803 8.17-1.188 11.563.603 3.617 4.095.49 6.188-.813.496-4.377-1.46-10.063.437-14.812.082-5.785.957-12.06-.968-17.594-1.192-2.608-3.035-5.378-6.344-4.875zM491.03 496.8c-3.502 1.29-4.752 3.806-3.844 7.406.74 2.561 2.57-1.27 4.72 1.625 2.685-.023 4.418 2.288 5.624 4.188 8.99.452 17.996 5.321 27.281 2.75 2.877-.817 6.76-1.259 8.625 1.5 2.784-.54 1.518-5.716 3.72-7.688-5.633-3.603-12.47 1.45-18.657-.219-5.426-1.435-11.232-2.371-16.563-3.312-1.37-4.071-6.013-3.128-8.468-5.938a3.868 3.868 0 00-2.438-.312zm9.438 12.5c1.179.282-1.978 1.75 0 0zm-3.875 2.969c-2.97.558-3.642 6.526 0 4.625-1.137 2.655-2.476 2.425-3.5 4.28-3.172-.344-6.706 1.802-6.594 5.313 5.47-.77 10.16-5.348 16.063-4.843 6.246-.774 11.29 3.13 16.625 5.093 3.808-1.251 6.294-5.62 6.656-9.5-1.655 2.178-3.856 3.538-6.032 1.22-6.475-.297-12.92-4.401-19.343-2.938.04-1.748.164-1.321-1.625-2.657-.746-.2-1.406-.815-2.25-.593z" fill="url(#g)"/>
 <path transform="translate(-413.38 -79.136)" d="M511.25 127.563c-31.082.595-58.426 17.852-74.531 54.468-7.991 18.169-12.545 50.937-6.281 75.281 11.276 43.829 68.205 52.413 86.906 47.813 39.716 5.045 82.8 6.482 107.5-15.219 20.399-17.921 26.934-38.978 26.593-67.094-.856-70.686-45.604-103.6-103.906-89-11.3-3.975-22.475-6.086-33.25-6.25a88.784 88.784 0 00-3.031 0zm9.344 36.374c.855-.027 1.69-.02 2.531 0 25.213.62 44.875 20.992 44.875 47.657 0 12.217-4.13 23.774-11.031 33.156-1.27-.447-2.332-1.34-3.25-2.344-1.304-1.305-2.922-2.258-4.75-2.594-1.567-.593-3.454-1.158-4.5-2.468-.132-2.19.204-4.38.375-6.563.774-1.093 2.797-.955 3.093-2.437.522.362.64.305 1.063-.125 1.103-.664-1.206-.252-.188-1.281 1.012-1.72-.17-3.528-.25-5.25.573-1.95-.211-3.954.282-5.907 1.22-2.74.96-5.807.843-8.719-.346-3.448.604-7.163-1.062-10.375-.451-1.041-1.89-3.312-2.25-3.437-1.554-1.371-3.85-.942-5.594-.156-1.675.617-2.751 2.01-3.781 3.375-1.437 2.642-2.829 5.461-3.125 8.5-.304.565-1.194-1.707-2.125-1.688-2.17-.53-4.477-.374-6.656.063-3.085.999-6.368.978-9.563.719-3.434-.108-6.538-1.8-9.937-2.125-2.627-.364-5.25-.578-7.844-1.157-.546-1.752-2.005-3.137-3.656-3.875-1.727.314-3.02-1.013-4.375-2.094-1.333-.855-3.333-.237-4.031 1.094-2.151.733-.827 3.6-1.063 5.313-1.13 2.112-2.216 4.279-3.344 6.406-.664 1.498-1.896 3.007-2.656 4.219-1.421 2.004-2.692 4.122-3.969 6.219-1.42 1.16-3.388 1.652-4.562 3.156-1.394 1.644-2.26 6.516-.469 8.219 1.175 1.118 2.637-.153 3.5 1.187.697.415 1.52.53 2.313.625 5.252.12 10.404 1.375 15.562 2.25 6.038.993 12.034 2.076 18.063 3.125 1.607.337 3.348.12 4.75-.656 4.142-.922 8.475-.579 12.562-1.844 2.263-.58 4.205-1.929 6.313-2.844 1.349-.093 2.048 2.019 3.937 1.656 2.083-.9 1.793 1.12 1.75 2.563.108 2.348-.361 5.267 1.688 6.938 2.284.46 4.545 1.196 6.875 1.53 1.685.31 3.34-.022 4.53 1.438 1.329.62 2.857.531 4.282.906-9.167 11.607-22.67 19.575-37.75 20.782-27.614 2.209-50-19.058-50-47.5 0-28.443 22.386-53.291 50-55.5.863-.07 1.738-.13 2.594-.156zm-33.344 30.875c.49-.045 1.143.295 1.063 1.094l-1.125.156c-.73-.762-.428-1.204.062-1.25zm9.719 10.157c.284.01.602.125.937.406 2.54.44-.834 1.798-1.781 2.375-.374.152-.784.284-1.188.156.063-.873.8-2.981 2.032-2.937zm3.375 1.281c4.102 1.892 8.54 2.784 12.937 3.688 3.572.603 7.187 1.938 10.844 1.28.745.333-.893 2.44-1.375 3.126-1.203 1.16-2.176 3.271-4.094 3.156-2.403-1.124-4.57-2.739-7.062-3.688-5.17-1.736-10.98-2.047-16.125-.062-2.289.587-4.327 1.769-6.406 2.844-.225.027-1.637.824-1.563.594.883-1.068 1.348-2.757 2.875-3 1.18-.035 3.415.25 3.719-1.063.69 1.061 1.399-1.14 2.125-2.156 1.212-1.648 2.376-3.792 4.125-4.719zm47.937 17.094c.043.035.106.235.219.687l.063.375c-.26.14-.409-1.167-.282-1.062z" fill="url(#h)" overflow="visible"/>
 <path transform="translate(-413.38 -79.136)" d="M528.156 157.406c-.726 2.31-1.379 4.49-2.062 6.719.607.053 1.213.111 1.812.188.507-3.67.636-6.134.25-6.907zm-13.218 46.625c-.5 2.002-1.004 4-1.47 5.938 1.538.27 3.073.662 4.626.969.534-2.257 1.08-4.517 1.593-6.72-1.386.04-2.78-.044-4.156-.155a11.447 11.447 0 01-.593-.032zm-2.47 10.156a684.039 684.039 0 00-4.78 22.188c.459.08.915.17 1.375.25a7.253 7.253 0 002.78.031c1.66-6.705 3.32-13.372 4.938-20.125-1.424-.8-2.824-1.672-4.312-2.344zm-10.155 51.563c-1.54 8.924-3.033 17.777-4.75 27.031 0 0 2.92-11.185 6.843-26.531-.706-.148-1.4-.32-2.094-.5z" fill="url(#i)" overflow="visible"/>
 <path transform="translate(-413.38 -387.4)" d="m515.85 458.34c-70.245 28.459-77.247 111.47-71.521 131.07 0.373-34.773 16.1-106.43 71.521-131.07z" fill="url(#j)" overflow="visible"/>
 <path transform="translate(-413.38 -79.136)" d="m554.41 158.25c0.515 3.247 2.126 12.197 4.094 23.906 5.976 8.011 9.5 18.15 9.5 29.438 0 5.727-0.919 11.313-2.594 16.594 3.154 24.865 5.006 49.163 2 59.593 10.917-33.076 0.51-106.2-13-129.53z" fill="url(#k)" overflow="visible"/>
 <path transform="translate(-413.38 -387.4)" d="m541.77 443.63c7.545-25.606 12.22-33.5 24.47-44.624 13.04-3.427 25.494-1.286 23.917 10.941-22.557 17.618-16.346 15.167-34.573 37.421-6.273 1.268-12.546 2.536-13.814-3.738z" fill="url(#l)" overflow="visible"/>
 <path transform="translate(-413.38 -387.4)" d="m512.76 445.6c-10.54-3.544-24.158-1.497-36.26-0.665l-6.32 3.66c11.868-1.284 32.482-6.134 42.58-2.995z" fill="url(#m)" overflow="visible"/>
 <path transform="translate(-413.38 -387.4)" d="m587.38 462.5c21.98 17.712 39.52 90.721 37.746 118.13 11.109-41.271-13.073-104.92-37.746-118.13z" fill="url(#n)" overflow="visible"/>
 <path transform="matrix(6.4001 0 0 6.4001 -36.253 -42.829)" d="M10.967 21.128c2.55-1.947 7.086-6.078 11.903-6.134-.46-.856-9.82-.503-11.903 6.134z" fill="#fff" fill-opacity=".348" filter="url(#o)" overflow="visible"/>
 <path transform="matrix(.80272 -.59635 .65913 .88722 -106.94 47.977)" d="m47.73 182.64c0 9.275-6.015 16.793-13.435 16.793s-13.435-7.518-13.435-16.793 6.015-16.794 13.435-16.794 13.435 7.519 13.435 16.794z" fill="#fff" fill-opacity=".317" filter="url(#p)"/>
 <path transform="translate(-413.38 -387.4)" d="m573.85 614.62c28.242-13.949 54.147-28.05 73.893-57.276 0 0-6.188 58.69-73.893 57.276z" fill-opacity=".196" filter="url(#q)"/>
 <path transform="translate(-413.38 -387.4)" d="M606.616 445.571l-7.812.157 10.656 1.25c-.937-.49-1.881-.96-2.844-1.407z" fill="url(#r)"/>
 <path transform="translate(-413.38 -387.4)" d="m567.3 399.31c8.784 1.187 17.139 2.898 21.744 9.192 0 0 3.535-12.02-21.744-9.192z" fill="#fff" fill-opacity=".357" filter="url(#s)"/>
</svg>
