<?xml version="1.0" encoding="UTF-8"?>
<svg width="290" height="290" xmlns="http://www.w3.org/2000/svg" xmlns:xlink="http://www.w3.org/1999/xlink">
 <defs>
  <linearGradient id="d">
   <stop stop-color="#ffd73b" offset="0"/>
   <stop stop-color="#ee8400" offset="1"/>
  </linearGradient>
  <linearGradient id="f">
   <stop stop-color="#704608" offset="0"/>
   <stop stop-color="#ab8855" offset="1"/>
  </linearGradient>
  <linearGradient id="y" x1="183.12" x2="192.25" y1="72.875" y2="55.5" gradientTransform="translate(395.9 729.17)" gradientUnits="userSpaceOnUse" xlink:href="#d"/>
  <linearGradient id="w" x1="29.023" x2="37.241" y1="24.615" y2="21.311" gradientTransform="matrix(6.4001 0 0 6.4001 359.1 693.64)" gradientUnits="userSpaceOnUse" xlink:href="#d"/>
  <linearGradient id="A" x1="22.384" x2="15.644" y1="1023.9" y2="1017.5" gradientTransform="matrix(6.4001 0 0 6.4001 352.34 -5740.1)" gradientUnits="userSpaceOnUse" xlink:href="#d"/>
  <linearGradient id="v" x1="147.5" x2="119" y1="843.86" y2="814.86" gradientTransform="translate(395.9 -67.19)" gradientUnits="userSpaceOnUse">
   <stop stop-color="#5f6b21" offset="0"/>
   <stop stop-color="#39a905" offset="1"/>
  </linearGradient>
  <linearGradient id="u" x1="24.367" x2="31.867" y1="29.051" y2="29.106" gradientTransform="matrix(6.4001 0 0 6.4001 359.1 385.38)" gradientUnits="userSpaceOnUse" xlink:href="#d"/>
  <linearGradient id="t" x1="8.969" x2="17.828" y1="25.848" y2="29.798" gradientTransform="matrix(6.4001 0 0 6.4001 359.1 693.64)" gradientUnits="userSpaceOnUse" xlink:href="#d"/>
  <linearGradient id="s" x1="14.27" x2="25.219" y1="26.721" y2="26.058" gradientTransform="matrix(6.4001 0 0 6.4001 359.1 385.38)" gradientUnits="userSpaceOnUse" xlink:href="#d"/>
  <linearGradient id="o" x1="452.5" x2="481.5" y1="567.73" y2="533.36" gradientUnits="userSpaceOnUse" xlink:href="#f"/>
  <linearGradient id="p" x1="525.75" x2="559.75" y1="564.97" y2="542.09" gradientUnits="userSpaceOnUse" xlink:href="#f"/>
  <linearGradient id="F" x1="646.49" x2="588.06" y1="519.21" y2="471.79" gradientUnits="userSpaceOnUse" xlink:href="#g"/>
  <linearGradient id="C" x1="618.08" x2="663.62" y1="806.53" y2="805.45" gradientUnits="userSpaceOnUse" xlink:href="#g"/>
  <linearGradient id="q" x1="457.5" x2="465.12" y1="592.97" y2="588.34" gradientUnits="userSpaceOnUse" xlink:href="#f"/>
  <linearGradient id="B" x1="574.5" x2="439.5" y1="633.09" y2="472.09" gradientUnits="userSpaceOnUse">
   <stop stop-color="#2a1704" offset="0"/>
   <stop stop-color="#3d332a" offset="1"/>
  </linearGradient>
  <linearGradient id="g">
   <stop stop-color="#999" offset="0"/>
   <stop stop-color="#dbdbdb" offset="1"/>
  </linearGradient>
  <filter id="m" x="-.047" y="-.299" width="1.094" height="1.598" color-interpolation-filters="sRGB">
   <feGaussianBlur stdDeviation=".677"/>
  </filter>
  <filter id="I" x="-.138" y="-.224" width="1.276" height="1.448" color-interpolation-filters="sRGB">
   <feGaussianBlur stdDeviation="2.077"/>
  </filter>
  <filter id="H" color-interpolation-filters="sRGB">
   <feGaussianBlur stdDeviation=".735"/>
  </filter>
  <filter id="z" x="-.126" y="-.288" width="1.253" height="1.575" color-interpolation-filters="sRGB">
   <feGaussianBlur stdDeviation="1.154"/>
  </filter>
  <filter id="E" x="-.079" y="-.145" width="1.158" height="1.291" color-interpolation-filters="sRGB">
   <feGaussianBlur stdDeviation=".392"/>
  </filter>
  <filter id="x" x="-.13" y="-.168" width="1.26" height="1.335" color-interpolation-filters="sRGB">
   <feGaussianBlur stdDeviation="3.999"/>
  </filter>
  <filter id="D" x="-.292" y="-.294" width="1.583" height="1.589" color-interpolation-filters="sRGB">
   <feGaussianBlur stdDeviation="3.755"/>
  </filter>
  <radialGradient id="G" cx="612.94" cy="538.02" r="3.446" gradientTransform="matrix(2.1416 1.0145 -1.7384 3.6698 238.83 -1739.4)" gradientUnits="userSpaceOnUse">
   <stop stop-color="red" offset="0"/>
   <stop stop-color="#b00000" offset="1"/>
  </radialGradient>
  <radialGradient id="n" cx="27.844" cy="1021.1" r="17.592" gradientTransform="matrix(2.745 4.3867 -6.8695 4.2987 7447.6 -3628.3)" gradientUnits="userSpaceOnUse">
   <stop stop-color="#fff690" offset="0"/>
   <stop stop-color="#f2ff00" offset="1"/>
  </radialGradient>
  <radialGradient id="r" cx="17.36" cy="1023.9" r="17.592" gradientTransform="matrix(2.5639 5.7921 -4.9198 2.1778 5466.2 -1499.2)" gradientUnits="userSpaceOnUse" xlink:href="#d"/>
 </defs>
 <path transform="matrix(5.7451 0 0 7.092 -11.964 -44.901)" d="m40.943 39.253c0 1.502-7.717 2.72-17.237 2.72s-17.237-1.218-17.237-2.72 7.717-2.72 17.237-2.72 17.237 1.218 17.237 2.72z" fill-opacity=".769" fill-rule="evenodd" filter="url(#m)"/>
 <path transform="translate(-387.53 -717.97)" d="M490.25 784.406c-27.426.155-52.72 17.264-65.938 40.75-14.75 24.696-18.517 55.043-14 83.157 3.685 23.737 24.034 41.134 46.125 47.75 13.43 4.47 28.06 6.183 41.993 4 30.865 3.44 64.18 6.836 93.101-6.657 23.124-11.73 37.46-36.573 38.5-62.187 2.033-30.523-3.823-64.7-27.156-86.125-19.979-18.533-49.856-21.285-75.406-14.407-11.888-4.21-24.505-6.65-37.219-6.28z" fill="url(#n)" overflow="visible"/>
 <path transform="translate(-387.53 -409.71)" d="m455.62 536.09-2.75 10.625 13.375 3.125-8.875 6.625 4.25 1.125 9.25-5.25 4.375-1.875 15.25 3.5-2.25 5.5-31.375 5.375-12.5-12.125s2.375-11.25 3.875-10.25-2-9.125 7.375-6.375z" fill="url(#o)"/>
 <path transform="translate(-387.53 -409.71)" d="m525.62 542.09-2.375 6.75 7.375 3.125-9.625 4.125 0.125 4.375 19.125-5.25h3.5l9.875 5.625 7-2.5-10.875-3.75 4.5-4 13.75-1.874-2.75 16.25-24.75 2.625-25.5-1.375-1.25-17.625z" fill="url(#p)"/>
 <path transform="translate(-387.53 -409.71)" d="m459.75 583.59-2.625 5.125 8.625 15.125-12-11.5-1-6.125z" fill="url(#q)"/>
 <path transform="translate(-387.53 -717.97)" d="M492.219 783.393c-31.082.596-58.427 17.852-74.531 54.468-7.992 18.17-12.545 50.938-6.282 75.282 11.277 43.828 68.206 52.412 86.906 47.812 39.717 5.045 82.8 6.482 107.5-15.219 20.4-17.921 26.935-38.978 26.594-67.093-.856-70.687-45.605-103.6-103.906-89-11.3-3.975-22.475-6.087-33.25-6.25a88.527 88.527 0 00-3.031 0zm-36.969 63.062l19.563 6.781 8.187-5.03 7.781 3.53-7.562 4.407 7.719 2.687v6.719l-17.282-3.813-11.687 6.813-8.125-2.469 10.469-6.437L451 856.705l4.25-10.25zm106.375.281l6.313 11.125-15.438 5.094 13.25 5.969-9.344 3.875-14.718-6.25-20.032 6.594-.843-7.657 8.812-4.062-9.531-4.063 8.812-5.03 10.344 4.687 22.375-10.282zm-97.406 45.657c28.718 33.943 89.048 15.918 98.281 4.75l13.25 1.437c-28.955 41.351-108.896 31.098-121.094-2.844l9.563-3.343z" fill="url(#r)" overflow="visible"/>
 <path transform="translate(-387.53 -409.71)" d="M506.125 504.969c-12.81 40.737-18.736 68.683-23.344 94.187 1.01.387 2.035.793 3.063 1.125 9.684-38.4 22.38-91.114 20.281-95.312zm-25.594 106.969c-1.624 9.392-3.194 18.675-5 28.406 0 0 3.087-11.722 7.156-27.657a80.785 80.785 0 01-2.156-.75z" fill="url(#s)" overflow="visible"/>
 <path transform="translate(-387.53 -717.97)" d="m493.82 805.91c-70.245 28.458-77.247 111.47-71.522 131.07 0.374-34.774 16.1-106.43 71.522-131.07z" fill="url(#t)" overflow="visible"/>
 <path transform="translate(-387.53 -409.71)" d="M532.375 505.844c.75 4.738 3.807 21.418 6.938 41.5l5.343-2.469c-3.19-16.548-7.545-30.85-12.281-39.031zm8.75 53.469c1.828 12.565 3.52 25.732 4.594 37.75a70.63 70.63 0 004.187-1.782c-.14-10.836-1.011-22.248-2.468-33.281l-6.313-2.688zm8.5 50.093c-.985.471-1.96.917-2.969 1.344.496 10.585.232 19.373-1.281 24.625 2.343-7.099 3.688-16.069 4.25-25.969z" fill="url(#u)" overflow="visible"/>
 <path transform="translate(-387.53 -717.97)" d="m519.74 791.2c7.544-25.606 12.22-33.501 24.47-44.624 13.04-3.427 25.494-1.287 23.917 10.94-22.557 17.618-16.346 15.167-34.573 37.421-6.273 1.268-12.547 2.536-13.814-3.737z" fill="url(#v)" overflow="visible"/>
 <path transform="translate(-387.53 -717.97)" d="m565.35 810.07c21.981 17.712 39.522 90.722 37.747 118.13 11.108-41.27-13.074-104.92-37.746-118.13z" fill="url(#w)" overflow="visible"/>
 <path transform="translate(-387.53 -717.97)" d="m551.82 962.19c28.242-13.948 54.147-28.049 73.892-57.276 0 0-6.187 58.69-73.892 57.276z" fill-opacity=".196" filter="url(#x)"/>
 <path transform="translate(-387.53 -717.97)" d="M584.587 793.142l-7.812.156 10.656 1.25c-.937-.49-1.882-.96-2.844-1.406z" fill="url(#y)"/>
 <path transform="translate(-387.53 -717.97)" d="m545.28 746.88c8.784 1.187 17.138 2.898 21.744 9.192 0 0 3.535-12.02-21.744-9.192z" fill="#fff" fill-opacity=".357" filter="url(#z)"/>
 <path transform="translate(-387.53 -717.97)" d="m490.73 793.18c-10.54-3.544-24.16-1.497-36.26-0.666l-6.321 3.66c11.868-1.284 32.481-6.134 42.58-2.994z" fill="url(#A)" overflow="visible"/>
 <path transform="translate(-387.53 -409.71)" d="m495.88 472.22c-14.299-0.063-31.774 1.492-44.563 8.031-27.941 14.286-46.723 46.772-49.78 84.719-1.252 15.533 10.81 63.684 4.066 79.418l18.87-7.606c6.067 2.87 11.323 7.566 16.16 13.203-1.012-2.701 21.53-1.734 24.935-4.984 0.838 0.294 22.57 6.403 24.933 9.749 9.966-7.692 18.173-8.347 26.567-9.749 5.809 3.466 8.594 9.073 17.575 10.214 7.288-4.427 14.837-10.69 21.362-9.777 7.22 7.45 12.392 8.758 18.085 11.627 8.476-5.881 16.101-11.848 16.54-18.533 0 0 33.262 10.164 39.752 4.106-15.678-20.314 32.51-109.26-36.72-162.48-10.767-8.277-51.5-4.344-51.5-4.344 13.815 15.39-44.972 18.131-20.876-1.844 0 0-11.107-1.688-25.406-1.75zm-32.594 52.406c13.846-0.335 19.375 11.842 41.844 11.125 28.76-0.918 45.895-13.483 59.969-8.281 9.983 3.69 24.5 15.316 24.5 25.718 0 10.403 1.513 43.732-24.188 44.344-17.437 0.415-25.701-15.907-46.812-17.437s-41.381 3.291-51.094 10.718c-20.805 15.91-65.106-41.09-18.344-62.406 5.734-2.614 10.248-3.687 14.125-3.781z" fill="url(#B)"/>
 <path transform="translate(-387.53 -717.97)" d="M658.928 770.299l-3.56-.102-26.877 18.508-30.344-16.062-3.005-.004 20.286 36.003-7.562 20.688c3.068 1.124 3.655 2.395 6.725 4.59.315.225 3.117-.29 3.43-.028l15.282-9.25 26.817 16.031 3.496.032-17.282-36zm-29.031 27c3.823 0 6.937 3.91 6.937 8.75s-3.114 8.75-6.937 8.75c-3.824 0-6.906-3.91-6.906-8.75s3.082-8.75 6.906-8.75z" fill="url(#C)"/>
 <path transform="matrix(.80272 -.59635 .65913 .88722 -103.12 64.977)" d="m47.73 182.64c0 9.275-6.015 16.793-13.435 16.793s-13.435-7.518-13.435-16.793 6.015-16.794 13.435-16.794 13.435 7.519 13.435 16.794z" fill="#fff" fill-opacity=".317" filter="url(#D)"/>
 <path transform="matrix(6.4001 0 0 6.4001 -32.433 -25.829)" d="M10.967 21.128c2.55-1.947 7.086-6.078 11.903-6.134-.46-.856-9.82-.503-11.903 6.134z" fill="#fff" fill-opacity=".348" filter="url(#E)" overflow="visible"/>
 <path transform="translate(-387.53 -409.71)" d="m655.56 462.03-30.438 18.406-30.344-16.062 17.282 36-7.563 20.688c3.383 1.24 6.774 1.736 10.156 4.562l15.282-9.25 30.312 16.063-17.281-36 12.593-34.407zm-29.032 27c3.824 0 6.938 3.911 6.938 8.75 0 4.84-3.114 8.75-6.938 8.75-3.823 0-6.906-3.91-6.906-8.75 0-4.839 3.083-8.75 6.906-8.75z" fill="url(#F)"/>
 <path transform="translate(-387.53 -717.97)" d="m620.15 842.52s-7.769 11.265-6.215 21.752c1.554 10.488 28.356 10.488 6.215-21.752z" fill="url(#G)"/>
 <path transform="translate(-387.53 -409.71)" d="M613.5 475.72s-18.25-10.75-17.625-10.126c.625.625 13 24.875 13 24.875s-13.25-24 4.625-14.75z" fill="#fff" fill-opacity=".852" filter="url(#H)"/>
 <path transform="translate(-387.53 -409.71)" d="M625.625 620.47c-.498 8.326-1.97 17.505 2.625 21.374-12.819 3.04-24.21-2.488-36.125-4.875 0 0 33.625-.375 33.5-16.5z" fill-opacity=".404" filter="url(#I)"/>
</svg>
