<?xml version="1.0" encoding="UTF-8"?>
<svg width="256" height="256" xmlns="http://www.w3.org/2000/svg" xmlns:xlink="http://www.w3.org/1999/xlink">
 <defs>
  <linearGradient id="a">
   <stop stop-color="#ffd73b" offset="0"/>
   <stop stop-color="#ee8400" offset="1"/>
  </linearGradient>
  <linearGradient id="i" x1="14.27" x2="25.219" y1="26.721" y2="26.058" gradientTransform="matrix(6.4001 0 0 6.4001 699.32 378.03)" gradientUnits="userSpaceOnUse" xlink:href="#a"/>
  <linearGradient id="j" x1="8.969" x2="17.828" y1="25.848" y2="29.798" gradientTransform="matrix(6.4001 0 0 6.4001 699.32 686.3)" gradientUnits="userSpaceOnUse" xlink:href="#a"/>
  <linearGradient id="k" x1="24.367" x2="31.867" y1="29.051" y2="29.106" gradientTransform="matrix(6.4001 0 0 6.4001 699.32 686.3)" gradientUnits="userSpaceOnUse" xlink:href="#a"/>
  <linearGradient id="l" x1="147.5" x2="119" y1="843.86" y2="814.86" gradientTransform="translate(736.13 -74.532)" gradientUnits="userSpaceOnUse">
   <stop stop-color="#5f6b21" offset="0"/>
   <stop stop-color="#39a905" offset="1"/>
  </linearGradient>
  <linearGradient id="m" x1="22.384" x2="15.644" y1="1023.9" y2="1017.5" gradientTransform="matrix(6.4001 0 0 6.4001 692.57 -5747.5)" gradientUnits="userSpaceOnUse" xlink:href="#a"/>
  <linearGradient id="n" x1="29.023" x2="37.241" y1="24.615" y2="21.311" gradientTransform="matrix(6.4001 0 0 6.4001 699.32 686.3)" gradientUnits="userSpaceOnUse" xlink:href="#a"/>
  <linearGradient id="r" x1="183.12" x2="192.25" y1="72.875" y2="55.5" gradientTransform="translate(736.13 721.83)" gradientUnits="userSpaceOnUse" xlink:href="#a"/>
  <linearGradient id="g" x1="777.33" x2="860.79" y1="633.5" y2="559.96" gradientTransform="translate(-1 308.27)" gradientUnits="userSpaceOnUse">
   <stop stop-color="#704608" offset="0"/>
   <stop stop-color="#ab8855" offset="1"/>
  </linearGradient>
  <filter id="s" x="-.126" y="-.288" width="1.253" height="1.575" color-interpolation-filters="sRGB">
   <feGaussianBlur stdDeviation="1.154"/>
  </filter>
  <filter id="o" x="-.079" y="-.145" width="1.158" height="1.291" color-interpolation-filters="sRGB">
   <feGaussianBlur stdDeviation=".392"/>
  </filter>
  <filter id="q" x="-.13" y="-.168" width="1.26" height="1.335" color-interpolation-filters="sRGB">
   <feGaussianBlur stdDeviation="3.999"/>
  </filter>
  <filter id="p" x="-.292" y="-.294" width="1.583" height="1.589" color-interpolation-filters="sRGB">
   <feGaussianBlur stdDeviation="3.755"/>
  </filter>
  <filter id="e" x="-.047" y="-.299" width="1.094" height="1.598" color-interpolation-filters="sRGB">
   <feGaussianBlur stdDeviation=".677"/>
  </filter>
  <radialGradient id="f" cx="27.844" cy="1021.1" r="17.592" gradientTransform="matrix(2.745 4.3867 -6.8695 4.2987 7785.8 -3635.7)" gradientUnits="userSpaceOnUse">
   <stop stop-color="#fff690" offset="0"/>
   <stop stop-color="#f2ff00" offset="1"/>
  </radialGradient>
  <radialGradient id="h" cx="17.36" cy="1023.9" r="17.592" gradientTransform="matrix(2.5639 5.7921 -4.9198 2.1778 5803.4 -1814.9)" gradientUnits="userSpaceOnUse" xlink:href="#a"/>
 </defs>
 <path transform="matrix(5.7451 0 0 7.092 -15.784 -61.901)" d="m40.943 39.253c0 1.502-7.717 2.72-17.237 2.72s-17.237-1.218-17.237-2.72 7.717-2.72 17.237-2.72 17.237 1.218 17.237 2.72z" fill-opacity=".769" fill-rule="evenodd" filter="url(#e)"/>
 <path transform="translate(-731.58 -727.63)" d="m754.92 830.5c-7.99 18.168-12.563 50.957-6.3 75.301 11.277 43.828 68.201 52.4 86.901 47.8 39.717 5.046 82.802 6.5 107.5-15.2 20.399-17.921 26.94-38.985 26.6-67.1-0.856-70.687-45.6-103.6-103.9-89.002-45.2-15.9-88.636-2.196-110.8 48.2z" fill="url(#f)" overflow="visible"/>
 <path transform="translate(-731.58 -727.63)" d="M804.656 817.393c-21.21 16.196-26.797 46.068-22.093 71.218 1.184 4.025 1.52 9.938 4.28 12.438 9.79-.962 19.695-3.139 29.032-5.719 2.657-2.415-1.118-6.005-3.906-3.312-6.762 1.33-14.39 3.893-20.813 3.343-8.197-25.034-5.156-55.876 13.75-75.468 1.706-1.233 3.09-4.498-.25-2.5zm39.782 3.656c7.19 8.67 10.833 22.15 3.593 31.875-2.476 3.458-1.307 7.71-2.187 11.562 4.476.11 7.537-4.162 6.218-8.375.72-6.74 7.109-12.021 5.75-19.28-1.388-6.835-7.017-12.332-11.875-17.126-2.631-1.134-2.81-2.054-1.5 1.344zm-32.75 17.219c-6.733 2.995-2.24 13.265 4.156 13.25 3.874 1.54 7.833-1.59 9-5.25-5.012 1.88-12.232-2.115-10.344-8.032-.898.082-1.961-.318-2.813.032zm22.843 5.28c-3.258.322-5.977 3.945-2.406 6.126 2.19 2.366.889 6.913 4.906 6.719 3.955.817 8.261-1.693 9-5.782-4.572 2.673-13.01-1.72-9.812-7.406l-.98.2-.708.144zm-8.781 4.845c-2.76 2.246-6.522 7.938-2.75 10.812 1.848.95 3.985-.396 3.938-.781.92 3.455 5.656 2.289 5.03-1.219-.075-1.997-2.182-8.42-3.155-3.625-1.19 2.293-2.284-1.592-.97-2.687 1.355-.812-1.382-3.714-2.093-2.5zm-12.781 14.843c-1.039 4.157 1.63 7.502 1.156 11.532 1.251-3.106 3.862-3.608 5.656-.75 1.141 1.464 2.822 1.484 4 .78 1.14 2.929 3.883.949 5.563.657 1.69.27 4.646 3.141 5.125-.406 2.71-1.426 2.714-4.638-.625-4.719-2.12-1.162-4.117 2.91-5.153-.744-.762 1.614-2.145.256-4.347.182-2.79-.742-4.537-2.502-5.688-4.688-2.928 3.187-4.092-4.375-5.437-5.562l-.25 3.718zm23.812 2.157c-2.928 1.033-5.957 4.557-.812 3.062 2.201-1.204 6.386-5.707 1.37-3.224l-.558.162zm5.782.093c-5.101.57-4.96 7.415-5.72 11.407-1.16 3.146-3.171 6.036 1.345 3.625 5.395-2.774 5.03-9.912 5.562-15.157l-.995.105-.192.02zm-43.438.032c-2.004 1.314-4.917 5.423-1.063 5.625 4.18 3.809 6.287 9.745 11.97 12.093 4.444 3.146 8.455 7.109 12.75 9.813 6.94-2.092 15.051-2.643 21.187-6.094.259-3.932 5.944-4.904 6.406-.656 3.312 1.302 3.569 7.385 7.969 5.125 4.133-2.84-.106-7.996-2.657-10.281-1.856-4.95-8.736-2.743-9.78 1.687-6.515 1.685-13.724 4.661-20.071 4.355-7.421-6.096-16.332-10.99-21.086-19.542-1.445-1.53-3.475-2.494-5.625-2.125zm35.688 28.375c-3.98-.581-6.585 4.851-2.493 6.759 5.964 4.195 11.634 9.241 18.68 10.99 2.325 3.17 6.355.652 6.875-2.5-.85-3.77-7.118-3.226-10.219-5.718-3.863-2.841-8.182-5.535-11.5-8.813-.087-1.277-.292-1.365-1.343-.718zm-36.875 9c-4.403 1.802-9.84 8.866-4.47 12.75 8.676 12.797 25.547 21.975 40.876 15.812 5.129-2.207 10.859-4.85 13.625-9.937-7.316 3.364-15.098 8.018-23.688 6.468-11.598-1.416-21.1-10.036-27.187-19.312-.28-2.812 2.67-4.664 4.093-6.688l-3.25.907z" fill="url(#g)"/>
 <path transform="translate(-731.58 -419.36)" d="M829.438 467.781c-31.082.596-58.427 17.853-74.532 54.469-7.99 18.169-12.544 50.937-6.281 75.281 11.277 43.828 68.206 52.413 86.906 47.813 39.717 5.045 82.8 6.481 107.5-15.219 20.4-17.922 26.935-38.978 26.594-67.094-.856-70.686-45.605-103.6-103.906-89-11.3-3.975-22.475-6.086-33.25-6.25a88.527 88.527 0 00-3.032 0zm-20 40.031l.062.657-.281.656c-5.722 4.964-7.347 13.266-5.907 20.5.725 5.447 4.299 10.298 3 15.969-1.173 5.717 5.355 3.605 7.47 6.312.899 2.875 3.852 10.49 6.593 4.938-1.191 3.956 4.169 6.133 6.719 5.718 2.519 2.902 1.64-.431 3.75-1.28 2.127 4.285 4.571-3.794 8.468-3.345 4.273.948 9.873.254 8.907-5.625-.767-6.985 6.62-11.973 5.656-19.062.611-7.757-3.094-15.016-7.625-21.063 4.115 3.597 7.542 7.925 10.313 12.625 12.665 22.606 13.365 51.575 1.75 74.75-1.24 3.319-2.963 6.473-6.125 2.47-6.576-.785-11.735-5.296-16.594-9.407-4.213-1.555-4.989-5.634.437-6 5.407-1.907 11.252-3.385 16.813-.938 6.094.496 2.59-6.744-.657-8.375-1.548-5.2-6.992-3.38-8.187 1.094-6.632 2.469-13.64 3.635-20.469 5.407-5.693-4.431-11.489-8.715-17-13.375-3.253-2.76-4.876-9.86-10.156-9-3.306 3.15-5.594 12.159 1.063 12.718 6.699-.807 11.815 4.279 16.5 8.25 3.868 1.542 3.942 4.785-.688 4.532-8.39 2.055-16.844 4.162-25.5 4.843-4.383-12.162-5.667-25.372-4.156-38.187 2.118-17.73 9.981-36.25 25.843-45.782zm3.718 23.063c2.619-.025 5.245.517 7.594 1.688 7.444 1.993 2.587 12.366-3.906 9.593-5.35-.058-9.632-8.627-3.688-11.281zm22.75 5.344c.63-.06 1.31-.006 2.032.187 2.893.588 7.159 1.26 7.75 4.782.823 6.105-7.846 7.957-11.407 4.03-4.665-2.603-2.784-8.584 1.625-9zm-8.562 4.718c2.198 2.028 5.287 5.914 4.5 9.25-2.345 4.774-4.14-6.313-5.344-.03-6.075 1.044-1.867-7.517.844-9.22zm-15.969 12.938L811.25 555c-.279 5.697-1.24 12.837 4.563 16.344 3.873 4.71 10.992 6.779 16.53 3.843 7.028-.502 6.973-8.764 7.438-14-1.875-1.02-3.06 4.34-5.156 4.844-.795 3.74-1.323-.054-3.531.469-2.494-1.78-2.934 2.437-5.25-.094-1.22-2.789-2.773.797-3.125-.593-2.5-1.19-4.364-5.006-6.594-1.97.196-1.271-1.801-5.083-1.875-1.25-1.952.195.018-7.077-2.875-8.718zm12.094 36.219c4.982 3.76 10.333 7.008 15.093 11.062 6.338 1.383 4.806 9.933 10.344 11.813-5.372 5.623-12.48 9.799-20.25 10.875-13.246 1.953-25.822-6.33-33.093-16.875-5.405-3.889-.519-8.294 3-11.188 8.15-2.495 16.547-4.08 24.906-5.687z" fill="url(#h)" overflow="visible"/>
 <path transform="translate(-731.58 -419.36)" d="M846.344 497.625c-4.517 14.362-8.136 27.077-11.188 38.719.172-.044.35-.069.532-.094h.03a5.614 5.614 0 012.22.156c.521.106 1.105.248 1.687.375 4.664-20.544 7.846-36.9 6.719-39.156zm-13.25 46.719c-.384 1.516-.769 3.06-1.125 4.531.016.44-.024.885-.125 1.313-.095.193-.188.325-.282.468a662.106 662.106 0 00-2.968 13.032c.198.007.334-.105.468-.282a3.55 3.55 0 00.282-.468c.037-.074.084-.142.125-.22.28-.538.63-1.137 1.375-1.437.898 1.81 1.873 1.367 2.968.344 1.194-4.946 2.346-9.862 3.47-14.656a7.251 7.251 0 01-.75-.25 5.98 5.98 0 01-.688-.313c-.587-.315-1.111-.69-1.563-1.187a6.122 6.122 0 01-1.187-.875zm-3.219 21.718c-.211.002-.38.049-.563.125a2.887 2.887 0 00-.468.25c-.02.013-.044.02-.063.032-.123.084-.255.194-.375.28-.03.023-.063.042-.093.063-.013.01-.02.023-.032.032-.144.1-.287.177-.437.25a696.635 696.635 0 00-1.938 9.406c1.48.099 2.944-.035 4.375-.469.757-3.048 1.514-6.07 2.282-9.219-.033-.021-.06-.042-.094-.062-.093-.056-.178-.114-.281-.156a1.987 1.987 0 00-.282-.094c-.02-.005-.042.004-.062 0a1.691 1.691 0 00-.75 0 2.721 2.721 0 00-.438-.25 2.065 2.065 0 00-.218-.094c-.022-.007-.042.006-.063 0-.078-.023-.144-.05-.219-.062-.094-.015-.194-.032-.28-.031zm-1.219 16.5c-1.376.318-2.756.657-4.125 1-.42 2.215-.822 4.392-1.218 6.563l.156-.031c.917.692 1.844 1.364 2.781 2.031.812-3.218 1.481-5.853 2.406-9.562zM817.5 623.157c-.577 3.265-1.129 6.497-1.75 9.844 0 0 1.654-6.414 2.5-9.656-.25-.06-.5-.122-.75-.188z" fill="url(#i)" overflow="visible"/>
 <path transform="translate(-731.58 -727.63)" d="m834.05 798.57c-70.246 28.458-77.248 111.47-71.522 131.07 0.373-34.774 16.1-106.43 71.522-131.07z" fill="url(#j)" overflow="visible"/>
 <path transform="translate(-731.58 -727.63)" d="m872.6 806.76c1.96 12.372 19.775 106.06 13.012 129.53 10.916-33.077 0.498-106.2-13.012-129.53z" fill="url(#k)" overflow="visible"/>
 <path transform="translate(-731.58 -727.63)" d="m859.97 783.86c7.545-25.607 12.22-33.501 24.47-44.624 13.04-3.427 25.495-1.287 23.917 10.94-22.557 17.618-16.346 15.167-34.573 37.421-6.273 1.268-12.546 2.536-13.814-3.737z" fill="url(#l)" overflow="visible"/>
 <path transform="translate(-731.58 -727.63)" d="m830.96 785.83c-10.54-3.544-24.16-1.497-36.26-0.666l-6.32 3.66c11.867-1.284 32.48-6.134 42.58-2.994z" fill="url(#m)" overflow="visible"/>
 <path transform="translate(-731.58 -727.63)" d="m905.58 802.73c21.98 17.711 39.521 90.72 37.746 118.13 11.109-41.27-13.073-104.92-37.746-118.13z" fill="url(#n)" overflow="visible"/>
 <path transform="matrix(6.4001 0 0 6.4001 -36.253 -42.829)" d="M10.967 21.128c2.55-1.947 7.086-6.078 11.903-6.134-.46-.856-9.82-.503-11.903 6.134z" fill="#fff" fill-opacity=".348" filter="url(#o)" overflow="visible"/>
 <path transform="matrix(.80272 -.59635 .65913 .88722 -106.94 47.977)" d="m47.73 182.64c0 9.275-6.015 16.793-13.435 16.793s-13.435-7.518-13.435-16.793 6.015-16.794 13.435-16.794 13.435 7.519 13.435 16.794z" fill="#fff" fill-opacity=".317" filter="url(#p)"/>
 <path transform="translate(-731.58 -727.63)" d="m892.04 954.85c28.242-13.948 54.147-28.049 73.893-57.276 0 0-6.187 58.69-73.893 57.276z" fill-opacity=".196" filter="url(#q)"/>
 <path transform="translate(-731.58 -727.63)" d="M924.815 785.799l-7.813.156 10.656 1.25c-.937-.49-1.881-.96-2.843-1.406z" fill="url(#r)"/>
 <path transform="translate(-731.58 -727.63)" d="m885.5 739.54c8.784 1.187 17.139 2.898 21.744 9.192 0 0 3.535-12.02-21.744-9.192z" fill="#fff" fill-opacity=".357" filter="url(#s)"/>
</svg>
