<?xml version="1.0" encoding="UTF-8"?>
<svg width="256" height="256" xmlns="http://www.w3.org/2000/svg" xmlns:xlink="http://www.w3.org/1999/xlink">
 <defs>
  <linearGradient id="r" x1="183.12" x2="192.25" y1="72.875" y2="55.5" gradientTransform="translate(647.93 749.83)" gradientUnits="userSpaceOnUse" xlink:href="#a"/>
  <linearGradient id="a">
   <stop stop-color="#ffd73b" offset="0"/>
   <stop stop-color="#ee8400" offset="1"/>
  </linearGradient>
  <linearGradient id="n" x1="29.023" x2="37.241" y1="24.615" y2="21.311" gradientTransform="matrix(6.4001 0 0 6.4001 611.12 714.3)" gradientUnits="userSpaceOnUse" xlink:href="#a"/>
  <linearGradient id="m" x1="22.384" x2="15.644" y1="1023.9" y2="1017.5" gradientTransform="matrix(6.4001 0 0 6.4001 604.37 -5719.5)" gradientUnits="userSpaceOnUse" xlink:href="#a"/>
  <linearGradient id="l" x1="147.5" x2="119" y1="843.86" y2="814.86" gradientTransform="translate(647.93 -46.532)" gradientUnits="userSpaceOnUse">
   <stop stop-color="#5f6b21" offset="0"/>
   <stop stop-color="#39a905" offset="1"/>
  </linearGradient>
  <linearGradient id="k" x1="24.367" x2="31.867" y1="29.051" y2="29.106" gradientTransform="matrix(6.4001 0 0 6.4001 611.12 714.3)" gradientUnits="userSpaceOnUse" xlink:href="#a"/>
  <linearGradient id="j" x1="8.969" x2="17.828" y1="25.848" y2="29.798" gradientTransform="matrix(6.4001 0 0 6.4001 611.12 714.3)" gradientUnits="userSpaceOnUse" xlink:href="#a"/>
  <linearGradient id="i" x1="14.27" x2="25.219" y1="26.721" y2="26.058" gradientTransform="matrix(6.4001 0 0 6.4001 611.12 714.3)" gradientUnits="userSpaceOnUse" xlink:href="#a"/>
  <linearGradient id="g" x1="453.89" x2="546.18" y1="614.11" y2="564.36" gradientTransform="translate(228.75 337.02)" gradientUnits="userSpaceOnUse">
   <stop stop-color="#704608" offset="0"/>
   <stop stop-color="#ab8855" offset="1"/>
  </linearGradient>
  <radialGradient id="h" cx="17.36" cy="1023.9" r="17.592" gradientTransform="matrix(2.5639 5.7921 -4.9198 2.1778 5715.2 -1478.6)" gradientUnits="userSpaceOnUse" xlink:href="#a"/>
  <radialGradient id="f" cx="27.844" cy="1021.1" r="17.592" gradientTransform="matrix(2.745 4.3867 -6.8695 4.2987 7697.6 -3607.7)" gradientUnits="userSpaceOnUse">
   <stop stop-color="#fff690" offset="0"/>
   <stop stop-color="#f2ff00" offset="1"/>
  </radialGradient>
  <filter id="p" x="-.292" y="-.294" width="1.583" height="1.589" color-interpolation-filters="sRGB">
   <feGaussianBlur stdDeviation="3.755"/>
  </filter>
  <filter id="o" x="-.079" y="-.145" width="1.158" height="1.291" color-interpolation-filters="sRGB">
   <feGaussianBlur stdDeviation=".392"/>
  </filter>
  <filter id="e" x="-.047" y="-.299" width="1.094" height="1.598" color-interpolation-filters="sRGB">
   <feGaussianBlur stdDeviation=".677"/>
  </filter>
  <filter id="s" x="-.126" y="-.288" width="1.253" height="1.575" color-interpolation-filters="sRGB">
   <feGaussianBlur stdDeviation="1.154"/>
  </filter>
  <filter id="q" x="-.13" y="-.168" width="1.26" height="1.335" color-interpolation-filters="sRGB">
   <feGaussianBlur stdDeviation="3.999"/>
  </filter>
 </defs>
 <path transform="matrix(5.7451 0 0 7.092 -15.784 -61.901)" d="m40.943 39.253c0 1.502-7.717 2.72-17.237 2.72s-17.237-1.218-17.237-2.72 7.717-2.72 17.237-2.72 17.237 1.218 17.237 2.72z" fill-opacity=".769" fill-rule="evenodd" filter="url(#e)"/>
 <path transform="translate(-643.38 -755.63)" d="m666.72 858.5c-7.991 18.168-12.564 50.957-6.3 75.301 11.276 43.828 68.2 52.4 86.901 47.8 39.717 5.046 82.802 6.5 107.5-15.2 20.4-17.921 26.942-38.985 26.6-67.1-0.855-70.687-45.6-103.6-103.9-89.002-45.202-15.9-88.637-2.196-110.8 48.2z" fill="url(#f)" overflow="visible"/>
 <path transform="translate(-643.38 -755.63)" d="M709.094 880.018c-2.65.108-5.506 1.707-1.969 3.843 3.187 1.825 8.358-1.258 12.5-.656-6.557 7.04-5.475 21.668 4.75 24.406 2.997.558 5.605-1.567 7.188-3.906-8.835 2.134-13.18-9.837-9.75-16.406.097-2.721 8.256-7.539 2.03-7-3.829.13-8.157-.293-11.874.594-.5-.657-1.67-.925-2.875-.875zm26.718 2.156a1.363 1.363 0 00-.75.187c-1.494 3.314-1.242 9.375 4.125 8.72 3.41 3.765 8.56-3.336 8.25.78 1.045 7.428-.021 19.179 8.844 22 3.64 1.123 6.836-1.814 9.188-4.187-6.312 3.104-11.842-3.336-11.657-9.25-.78-5.621-1.854-11.19-2.843-16.781-2.528 4.948-7.321 6.24-11.438 3.125-1.087-.891-2.089-4.478-3.718-4.594zm-34.78 1.094l-2.47.218c-10.356 4.077-17.709 15.963-13.562 26.938 1.07 3.01 4.03 7.376 7.875 6.406-4.13 1.502-.252 6.164 1.438 8.469 19.462 19.04 48.655 28.133 75.593 24 5.82-1.389 12.607-2.475 16.563-7.313-8.161 2.039-15.322 3.266-24 2.875-16.931.835-34.433-2.902-49.188-11.5l-1.437-1.468c1.319 1.02 1.418-.343-.063-2.438-2.295-2.897-5.141-6.04-.093-10.219-5.189-1.39-8.403 4.922-5.75 8.907 1.032.846 3.717 2.809 5.843 4.343a75.612 75.612 0 01-6.25-4.28c2.577 4.565-3.071-4.01-4.593-5.345-2.689-1.733-4.25-5.801-6.813-6.343a7.82 7.82 0 00-.781.156c.414-.15.85-.342 1.281-.625-3.051-5.261-7.521-12.14-4.656-18.531 1.356-6.267 6.993-10.045 11.062-14.25zm3.53 2.625c-5.498 3.194-4.735 2.951.875.937.65-1.33 1.663-.359-.875-.937zm55.657 1.812c.562.969 1 1.688 1.562 2.656 2.53 6.022 10.95 6.232 15.313 10.844 3.362 1.938 6.022 6.79 9 7.594 5.446-1.577-.916-4.727-2.813-7-6.645-6.306-14.834-10.188-23.062-14.094zm28.343 20.656c-5.334 1.428 1.176 5.237 1.563 8.532 2.568 5.703 2.2 12.469-1.625 17.937 1.739 2.279 1.655 2.252 1.906.688L793 937.61l4.625-4.25-6.594-.53c.008-.025.023-.04.031-.063.083-2.283 2.394-1.185 4.094-8.438-.297-6.18-2.939-11.14-6.594-15.969zm-57.687 17.25l-2.188.157c-3.586-.09-7.186-.387-3.906 1.687 1.845-1.579 4.262-.193 6.094-1.844zm20.219 3.594c-1.5.001-3.903.417-4.313 1.563.926-.127 1.875-.278 2.813-.563 3.645-.559 3.055-1 1.5-1zm-4.313 1.563c-4.235.581-7.693.151-4.343 4.28 3.157-.89 1.919-1.867 4.312-4.155.01-.044.016-.083.031-.125zm21.063-1.063c-.766.149-1.547.852-2.313 1.281.782-.14 1.561-.45 2.313-1.28zm-2.438 1.313c-1.152.18-2.309.011-3.281.468.825.089 1.759.094 2.656-.187.217-.042.408-.168.625-.281zm-3.281.468c-2.388-.255-3.922-1.253-1.469 1.594.425-.873.913-1.332 1.469-1.594zm25.656 2.938c.05.146.1.563-.281 1.5-1.267 2.094-12.105 5.695-6.563 5.187 2.066-1.371 7.795-4.219 7.094-6.53-.129-.068-.212-.115-.25-.157z" fill="url(#g)"/>
 <path transform="translate(-643.38 -755.63)" d="M741.25 804.049c-31.082.596-58.426 17.852-74.531 54.469-7.991 18.168-12.545 50.937-6.282 75.28 11.277 43.83 68.206 52.413 86.907 47.813 39.716 5.046 82.8 6.482 107.5-15.218 20.399-17.922 26.934-38.978 26.593-67.094-.856-70.686-45.604-103.6-103.906-89-11.3-3.975-22.475-6.086-33.25-6.25a88.527 88.527 0 00-3.031 0zm-17.063 74.937c15.93-.025 33.646 4.924 47.688 13.282 7.01 4.172 12.657 8.867 16.781 13.75l-1.843 1.187c-4.405-5.197-10.567-10.143-17.782-14.125-2.076-1.146-7.604-3.89-8-3.969-.108-.021.21.649.719 1.5 2.213 3.7 3.833 8.241 4.156 11.594.195 2.022-.296 4.85-1.125 6.438-2.248 4.308-7.17 4.964-10.5 1.375-2.613-2.817-3.193-4.812-4.125-14.282-.4-4.06-.774-7.742-.843-8.187l-.125-.813-1.657 1.813-1.656 1.844-4.094-.813-4.062-.844-1.563-2.312c-.845-1.273-1.617-2.324-1.718-2.344-.102-.02-.185.207-.188.5-.003.293-.368 3.88-.813 7.969-.571 5.258-.933 7.825-1.28 8.75-2.06 5.47-7.012 6.226-11.095 1.687-4.745-5.276-4.409-13.72.782-20.156.572-.709 1.031-1.329 1.031-1.375 0-.038-.193-.06-.531-.062-1.014-.01-3.313.134-5.344.343-2.621.271-5.101.706-7.438 1.282L708 880.924c4.823-1.24 10.27-1.928 16.188-1.938zm-20.03 3.063l1.312 2.156c-7.934 2.775-13.575 7.468-15.813 13.406-.822 2.18-.838 2.357-.843 5.688-.004 2.953.085 3.721.562 5.344.606 2.06 1.543 4.12 2.781 6.187l-2.312.594a32.304 32.304 0 01-1.094-2.094c-3.383-7.174-3.483-13.626-.281-19.437 2.887-5.24 8.372-9.296 15.687-11.844zm86.374 26.375c7.06 9.605 8.256 19.675 2.407 27.562l-1.907-2c.512-.706.997-1.423 1.375-2.156 2.346-4.548 2.32-10.489-.093-16.062-.906-2.09-2.155-4.2-3.688-6.282l1.906-1.062zm-96.468 9.25c2.4 3.253 5.588 6.576 9.656 10.031 1.691 1.437 6.217 4.694 6.656 4.781.06.012-.317-.778-.844-1.75-2.723-5.02-2.964-8.862-.687-10.468 1.247-.88 2.308-.996 4.437-.438 2.667.699 5.308 2.587 7.813 5.625 1.044 1.267 2.262 3.04 2.718 3.938.457.897.904 1.639.97 1.656.065.017.482-.703.937-1.625 2.254-4.574 5.988-4.544 9.875.094 2.34 2.792 4.332 7.123 5.562 12.03.539 2.15.558 2.186.75 1.438.558-2.17 1.798-5.216 2.875-7.125.973-1.724 1.58-2.442 3.125-3.687 1.985-1.598 3.305-2.06 4.969-1.719 1.985.407 4.168 2.842 5.25 5.813l.656 1.75.844-1.282c1.137-1.708 3.851-4.06 5.594-4.843 4.24-1.909 9.139-.522 10.593 2.968.96 2.304.363 5.602-1.53 8.407-.46.681-.782 1.238-.72 1.25.295.058 4.677-1.377 6.375-2.094 3.8-1.605 7.094-3.909 9.532-6.531l1.843 2.03c-2.083 2.118-5.707 4.658-8.656 6.032-9.346 4.357-21.61 5.692-35.562 3.875-22.807-2.97-45.074-14.99-55.157-29.156l2.125-1z" fill="url(#h)" overflow="visible"/>
 <path transform="translate(-643.38 -755.63)" d="M758.156 833.893c-5.688 18.087-10.004 33.605-13.468 47.562 1.512.355 3.03.762 4.53 1.188 5.827-24.901 10.237-46.152 8.938-48.75zm-10.218 54.218l-.407.438-1.656 1.844-3.188-.625c-3.331 14.194-5.768 26.778-7.937 38.812.283.29.559.597.844.938a19.67 19.67 0 011.625 2.28 3095.219 3095.219 0 0010.718-43.687zm-16 56.407c-1.405 8.159-2.804 16.28-4.375 24.75 0 0 2.624-10.035 6.25-24.188-.63-.178-1.25-.372-1.875-.562z" fill="url(#i)" overflow="visible"/>
 <path transform="translate(-643.38 -755.63)" d="m745.85 826.57c-70.245 28.458-77.247 111.47-71.521 131.07 0.373-34.774 16.1-106.43 71.521-131.07z" fill="url(#j)" overflow="visible"/>
 <path transform="translate(-643.38 -755.63)" d="m784.4 834.76c1.96 12.372 19.775 106.06 13.012 129.53 10.916-33.077 0.498-106.2-13.012-129.53z" fill="url(#k)" overflow="visible"/>
 <path transform="translate(-643.38 -755.63)" d="m771.77 811.86c7.545-25.607 12.22-33.501 24.47-44.624 13.04-3.427 25.494-1.287 23.917 10.94-22.557 17.618-16.346 15.167-34.573 37.421-6.273 1.268-12.546 2.536-13.814-3.737z" fill="url(#l)" overflow="visible"/>
 <path transform="translate(-643.38 -755.63)" d="m742.76 813.83c-10.54-3.544-24.158-1.497-36.26-0.666l-6.32 3.66c11.868-1.284 32.482-6.134 42.58-2.994z" fill="url(#m)" overflow="visible"/>
 <path transform="translate(-643.38 -755.63)" d="m817.38 830.73c21.98 17.711 39.52 90.72 37.746 118.13 11.109-41.27-13.073-104.92-37.746-118.13z" fill="url(#n)" overflow="visible"/>
 <path transform="matrix(6.4001 0 0 6.4001 -36.253 -42.829)" d="M10.967 21.128c2.55-1.947 7.086-6.078 11.903-6.134-.46-.856-9.82-.503-11.903 6.134z" fill="#fff" fill-opacity=".348" filter="url(#o)" overflow="visible"/>
 <path transform="matrix(.80272 -.59635 .65913 .88722 -106.94 47.977)" d="m47.73 182.64c0 9.275-6.015 16.793-13.435 16.793s-13.435-7.518-13.435-16.793 6.015-16.794 13.435-16.794 13.435 7.519 13.435 16.794z" fill="#fff" fill-opacity=".317" filter="url(#p)"/>
 <path transform="translate(-643.38 -755.63)" d="m803.85 982.85c28.242-13.948 54.147-28.049 73.893-57.276 0 0-6.188 58.69-73.893 57.276z" fill-opacity=".196" filter="url(#q)"/>
 <path transform="translate(-643.38 -755.63)" d="M836.616 813.799l-7.812.156 10.656 1.25c-.937-.49-1.881-.96-2.844-1.406z" fill="url(#r)"/>
 <path transform="translate(-643.38 -755.63)" d="m797.3 767.54c8.784 1.187 17.139 2.898 21.744 9.192 0 0 3.535-12.02-21.744-9.192z" fill="#fff" fill-opacity=".357" filter="url(#s)"/>
</svg>
