<?xml version="1.0" encoding="UTF-8"?>
<svg width="290" height="290" xmlns="http://www.w3.org/2000/svg" xmlns:xlink="http://www.w3.org/1999/xlink">
 <defs>
  <linearGradient id="f">
   <stop stop-color="#1a1a1a" offset="0"/>
   <stop stop-color="#494949" offset="1"/>
  </linearGradient>
  <linearGradient id="b">
   <stop stop-color="#ffd73b" offset="0"/>
   <stop stop-color="#ee8400" offset="1"/>
  </linearGradient>
  <linearGradient id="C" x1="793.05" x2="783.87" y1="174.4" y2="152.37" gradientUnits="userSpaceOnUse" xlink:href="#f"/>
  <linearGradient id="D" x1="797.88" x2="765.43" y1="183.76" y2="137.03" gradientTransform="translate(-9.75 310.52)" gradientUnits="userSpaceOnUse" xlink:href="#f"/>
  <linearGradient id="A" x1="183.12" x2="192.25" y1="72.875" y2="55.5" gradientTransform="translate(710.43 367.81)" gradientUnits="userSpaceOnUse" xlink:href="#b"/>
  <linearGradient id="w" x1="29.023" x2="37.241" y1="24.615" y2="21.311" gradientTransform="matrix(6.4001 0 0 6.4001 673.62 332.28)" gradientUnits="userSpaceOnUse" xlink:href="#b"/>
  <linearGradient id="v" x1="22.384" x2="15.644" y1="1023.9" y2="1017.5" gradientTransform="matrix(6.4001 0 0 6.4001 666.87 -6101.5)" gradientUnits="userSpaceOnUse" xlink:href="#b"/>
  <linearGradient id="u" x1="147.5" x2="119" y1="843.86" y2="814.86" gradientTransform="translate(710.43 -428.56)" gradientUnits="userSpaceOnUse">
   <stop stop-color="#5f6b21" offset="0"/>
   <stop stop-color="#39a905" offset="1"/>
  </linearGradient>
  <linearGradient id="s" x1="8.969" x2="17.828" y1="25.848" y2="29.798" gradientTransform="matrix(6.4001 0 0 6.4001 673.62 332.28)" gradientUnits="userSpaceOnUse" xlink:href="#b"/>
  <linearGradient id="r" x1="14.27" x2="25.219" y1="26.721" y2="26.058" gradientTransform="matrix(6.4001 0 0 6.4001 673.62 24.012)" gradientUnits="userSpaceOnUse" xlink:href="#b"/>
  <linearGradient id="t" x1="24.367" x2="31.867" y1="29.051" y2="29.106" gradientTransform="matrix(6.4001 0 0 6.4001 673.62 24.012)" gradientUnits="userSpaceOnUse" xlink:href="#b"/>
  <linearGradient id="F" x1="905.49" x2="895.75" y1="229.45" y2="197.63" gradientUnits="userSpaceOnUse" xlink:href="#f"/>
  <filter id="o" x="-.047" y="-.299" width="1.094" height="1.598" color-interpolation-filters="sRGB">
   <feGaussianBlur stdDeviation=".677"/>
  </filter>
  <filter id="y" x="-.292" y="-.294" width="1.583" height="1.589" color-interpolation-filters="sRGB">
   <feGaussianBlur stdDeviation="3.755"/>
  </filter>
  <filter id="z" x="-.13" y="-.168" width="1.26" height="1.335" color-interpolation-filters="sRGB">
   <feGaussianBlur stdDeviation="3.999"/>
  </filter>
  <filter id="x" x="-.079" y="-.145" width="1.158" height="1.291" color-interpolation-filters="sRGB">
   <feGaussianBlur stdDeviation=".392"/>
  </filter>
  <filter id="B" x="-.126" y="-.288" width="1.253" height="1.575" color-interpolation-filters="sRGB">
   <feGaussianBlur stdDeviation="1.154"/>
  </filter>
  <filter id="E" x="-.076" y="-.103" width="1.153" height="1.207" color-interpolation-filters="sRGB">
   <feGaussianBlur stdDeviation=".86"/>
  </filter>
  <radialGradient id="q" cx="17.36" cy="1023.9" r="17.592" gradientTransform="matrix(2.5639 5.7921 -4.9198 2.1778 5777.7 -2168.9)" gradientUnits="userSpaceOnUse" xlink:href="#b"/>
  <radialGradient id="p" cx="27.844" cy="1021.1" r="17.592" gradientTransform="matrix(2.745 4.3867 -6.8695 4.2987 7760.1 -3989.7)" gradientUnits="userSpaceOnUse">
   <stop stop-color="#fff690" offset="0"/>
   <stop stop-color="#f2ff00" offset="1"/>
  </radialGradient>
 </defs>
 <path transform="matrix(5.7451 0 0 7.092 1.216 -44.901)" d="m40.943 39.253c0 1.502-7.717 2.72-17.237 2.72s-17.237-1.218-17.237-2.72 7.717-2.72 17.237-2.72 17.237 1.218 17.237 2.72z" fill-opacity=".769" fill-rule="evenodd" filter="url(#o)"/>
 <path transform="translate(-688.87 -356.61)" d="m802.78 423.06c-28.241 0.054-54.106 18.281-67.093 42.78-13.834 24.28-17.224 53.767-12.844 81.094 3.744 24.076 24.497 41.497 47.077 48.087 13.17 4.192 27.392 5.826 41.01 3.686 30.868 3.409 64.125 6.856 93.1-6.679 22.89-11.508 37.42-36.393 38.496-61.741 2.034-29.937-3.335-63.262-25.496-85.009-19.705-19.715-50.702-23.091-76.75-16.031-12.023-3.868-24.666-6.72-37.5-6.188z" fill="url(#p)" overflow="visible"/>
 <path transform="translate(-688.87 -48.34)" d="M803.75 113.75c-31.082.596-58.426 17.852-74.531 54.469-7.991 18.168-12.545 50.937-6.282 75.281 11.277 43.828 68.206 52.412 86.907 47.813 39.716 5.045 82.8 6.481 107.5-15.22 20.399-17.92 26.934-38.977 26.593-67.093-.856-70.686-45.604-103.6-103.906-89-11.3-3.975-22.475-6.086-33.25-6.25a88.784 88.784 0 00-3.031 0zm58.594 55.875c8.457-.254 15.673 3.719 17.375 10.219 2.094 8-4.99 16.791-15.813 19.625-10.823 2.833-21.28-1.344-23.375-9.344-1.64-6.268 2.366-13.01 9.375-17-1.762 1.725-2.843 4.078-2.843 6.688 0 5.28 4.445 9.562 9.937 9.562 5.492 0 9.938-4.282 9.938-9.563 0-5.177-4.282-9.368-9.625-9.53a26.792 26.792 0 015.03-.657zm4.906 46.719c-2.543 13.19-4.05 26.132 0 38-2.818.206-5.643.445-8.469.687v-7.844l-9.187 1.063 1.187 7.469c-2.81.25-5.63.483-8.437.719v-7.5l-8.125.343.312 7.781a366.91 366.91 0 01-7.593.47l-.344-7.876-7.594.156.156 8a197.94 197.94 0 01-8.437 0l.156-6.937-7.063-1.063-.75 7.625c-2.892-.206-5.742-.51-8.593-.906l.156-6.875-7.25-.531-.594 6.094a97.006 97.006 0 01-8.312-2.156l.406-5.875-7.594-1.438-.468 4.563a83.5 83.5 0 01-8.813-4.22c-1.487-5.627-.317-10.193 1.5-14.5 2.78.307 5.54.563 8.281.75l-.5 5.282 7.782.531.125-5.469c3.413.106 6.798.132 10.156.063l-.563 5.594 7.938.344v-6.22a199.78 199.78 0 008.093-.655l-.656 7.593 7.782-.531-.438-7.813a209.97 209.97 0 007.813-1.187l-.657 7.938 8.469-1.063-.938-8.188c2.502-.51 4.994-1.063 7.47-1.656l-.688 9.5 8.843-1.594-1.968-9.468a247.284 247.284 0 007.812-2.219l.157 9.563 9.906-1.782-1.5-10.562a288.142 288.142 0 0011.031-4z" fill="url(#q)" overflow="visible"/>
 <path transform="translate(-688.87 -48.34)" d="M820.656 143.594c-11.904 37.855-17.86 64.676-22.343 88.75 1.253-.086 2.505-.171 3.75-.281 9.402-37.559 20.572-84.512 18.593-88.47zm-26.125 110.031c-1.44 8.365-2.857 16.694-4.468 25.375 0 0 2.392-9.105 5.78-22.313-.457-.058-.917-.092-1.374-.156l.062-2.906z" fill="url(#r)" overflow="visible"/>
 <path transform="translate(-688.87 -356.61)" d="m808.35 444.55c-70.246 28.458-77.249 111.47-71.523 131.07 0.373-34.773 16.1-106.43 71.522-131.07z" fill="url(#s)" overflow="visible"/>
 <path transform="translate(-688.87 -48.34)" d="M846.906 144.469c.788 4.972 4.122 23.13 7.407 44.531.854.23 1.756.375 2.687.375 1.1 0 2.167-.183 3.156-.5-3.245-18.792-8.009-35.354-13.25-44.406zm14.938 55.437c-1.994.363-3.962.523-5.844.438a844.216 844.216 0 012.531 19.187c1.723-.602 3.444-1.21 5.157-1.844a304.32 304.32 0 00-1.844-17.78zm1.812 54.719c-.76.062-1.52.123-2.281.188.17 8.135-.223 14.864-1.469 19.187 1.813-5.492 3.031-12.086 3.75-19.375z" fill="url(#t)" overflow="visible"/>
 <path transform="translate(-688.87 -356.61)" d="m834.27 429.84c7.544-25.606 12.22-33.501 24.47-44.624 13.04-3.427 25.494-1.286 23.917 10.94-22.558 17.619-16.346 15.168-34.573 37.422-6.274 1.268-12.547 2.535-13.815-3.738z" fill="url(#u)" overflow="visible"/>
 <path transform="translate(-688.87 -356.61)" d="m805.26 431.81c-10.54-3.544-24.159-1.497-36.26-0.666l-6.32 3.66c11.868-1.283 32.481-6.133 42.58-2.994z" fill="url(#v)" overflow="visible"/>
 <path transform="translate(-688.87 -356.61)" d="m879.88 448.7c21.98 17.712 39.52 90.72 37.746 118.13 11.108-41.271-13.074-104.92-37.746-118.13z" fill="url(#w)" overflow="visible"/>
 <path transform="matrix(6.4001 0 0 6.4001 -19.253 -25.829)" d="M10.967 21.128c2.55-1.947 7.086-6.078 11.903-6.134-.46-.856-9.82-.503-11.903 6.134z" fill="#fff" fill-opacity=".348" filter="url(#x)" overflow="visible"/>
 <path transform="matrix(.80272 -.59635 .65913 .88722 -89.942 64.977)" d="m47.73 182.64c0 9.275-6.015 16.793-13.435 16.793s-13.435-7.518-13.435-16.793 6.015-16.794 13.435-16.794 13.435 7.519 13.435 16.794z" fill="#fff" fill-opacity=".317" filter="url(#y)"/>
 <path transform="translate(-688.87 -356.61)" d="m866.34 600.83c28.242-13.948 54.146-28.048 73.892-57.275 0 0-6.187 58.69-73.892 57.275z" fill-opacity=".196" filter="url(#z)"/>
 <path transform="translate(-688.87 -356.61)" d="M899.114 431.776l-7.813.156 10.657 1.25c-.937-.489-1.882-.96-2.844-1.406z" fill="url(#A)"/>
 <path transform="translate(-688.87 -356.61)" d="m859.8 385.51c8.783 1.187 17.138 2.899 21.743 9.193 0 0 3.536-12.021-21.743-9.193z" fill="#fff" fill-opacity=".357" filter="url(#B)"/>
 <path transform="translate(-688.87 -48.34)" d="m723.9 179.86c59.892 4.845 118.08-21.09 175.67-57.548 2-1.243 4.129 0.162 3.678 2.164-56.235 36.663-114.11 63.569-180.65 60.144-1.74-1.587-0.995-3.765 1.299-4.76z" fill="url(#C)"/>
 <path transform="translate(-688.87 -356.61)" d="m758.28 486.05c3.323-3.966 21.717-7.933 43.918-11.899 3.61 10.161 5.327 20.538-16.01 33.534-36.045-1.582-26.048-14.12-27.909-21.635z" fill="url(#D)"/>
 <path transform="translate(-688.87 -48.34)" d="m760.14 190.25c-0.852-4.976-1.03-9.28 0-12.374 9.445-4.529 17.791-5.762 26.34-7.602-11.01 4.526-25.475 5.747-26.34 19.976z" fill="#fff" fill-opacity=".345" filter="url(#E)"/>
 <path transform="translate(-688.87 -48.34)" d="M889.531 213.688c-.357.942-.57 1.87-.687 2.812a39.22 39.22 0 00-3.157 0l.063 1.125c.99.034 1.977.099 2.969.219-.005 1.408.275 2.81.812 4.219h1.125c.61-1.174.811-2.448.782-3.782 1.442.28 2.898.665 4.343 1.094a10.03 10.03 0 00-.03 2.625l1.062.344c.256-.809.472-1.63.687-2.438.01.003.022-.003.031 0 1.691.566 3.4 1.243 5.094 1.969a7.52 7.52 0 00.094 2.281l1.125.219a3.3 3.3 0 001.062-1.5c1.573.73 3.143 1.52 4.719 2.344-.156.887-.252 1.77-.25 2.625l1.094.219a8.42 8.42 0 001.187-1.75c1.135.617 2.27 1.227 3.406 1.875a12.842 12.842 0 00-.156 1.625l1.063.437c.222-.404.42-.792.625-1.188 1.032.599 2.06 1.233 3.093 1.844-.194.51-.373 1.047-.53 1.594l.937.688c.362-.49.682-.963 1.03-1.438 1.231.732 2.457 1.453 3.688 2.188a9.199 9.199 0 00-.562 1.593l.906.75a14.56 14.56 0 001.469-1.25c.894.53 1.793 1.041 2.687 1.563a4.913 4.913 0 01-.562 1.062l.844.75c.404-.321.838-.633 1.25-.937.798.459 1.607.928 2.406 1.375l.687-.875c-.647-.512-1.31-1.022-1.968-1.531a5.316 5.316 0 001.03-1.813l-.843-.781c-1.108.079-1.697.537-2.094 1.125-.689-.521-1.393-1.017-2.093-1.531.485-.687.872-1.363 1.25-2.032l-.844-.75c-.93.498-1.633.983-2.188 1.469-1.167-.833-2.368-1.636-3.562-2.438.42-.584.838-1.173 1.219-1.718l-.907-.656c-.81.267-1.432.74-1.937 1.312-1.081-.702-2.15-1.398-3.25-2.063.39-.966.676-1.862.781-2.687l-1.031-.438c-.659.563-1.159 1.256-1.563 2.032a95.449 95.449 0 00-3.437-1.875c.19-1.16.197-2.42.063-3.781l-1.063-.282a28.22 28.22 0 00-1.156 2.969 72.768 72.768 0 00-5.125-2.25c-.03-.875-.148-1.776-.188-2.656l-1.125-.219c-.27.7-.533 1.393-.75 2.094-1.707-.61-3.428-1.158-5.156-1.594.138-.613.29-1.23.406-1.844l-1.062-.312a7.347 7.347 0 00-1.063 1.781c-1.644-.353-3.312-.643-4.968-.813-.143-.985-.38-1.98-.657-3h-1.125z" fill="url(#F)" font-family="Sans" font-weight="400" overflow="visible" style="block-progression:tb;text-indent:0;text-transform:none"/>
</svg>
