<?xml version="1.0" encoding="UTF-8"?>
<svg width="400pt" height="400pt" xmlns="http://www.w3.org/2000/svg" xmlns:xlink="http://www.w3.org/1999/xlink">
 <path d="m359.1 185.08a114.44 176.33 0 1 0-228.88 0 114.44 176.33 0 1 0 228.88 0h-114.44z" fill="red" fill-rule="evenodd" font-size="12"/>
 <path d="m227.5 360.75v8.459c0 1.301 3.125-3.253-3.125 5.205s-11.875 7.157-6.875 10.41c5 3.254 6.25 0.651 10 0 3.75-0.65 1.875 2.603 6.25 3.254 4.375 0.65 5.625 0.65 8.75-1.302s-1.25-3.904 5.625-1.952 8.125 5.856 10.625 3.904-1.875 0-1.875-4.554c0-4.555-2.5-9.11-3.75-9.76s-6.25-1.301-6.25-7.157-1.25-7.157-1.25-7.157-15 1.952-18.125 0.65z" fill="red" fill-rule="evenodd" font-size="12"/>
 <path d="M246.25 365H227.5l20 6.25-21.25-2.5s-11.25 22.5 1.25 45 16.25 16.25 12.5 37.5-13.75 32.5-11.25 37.5" fill="none" stroke="#000" stroke-width="3.125"/>
 <g fill="#fff" fill-rule="evenodd">
  <path d="M159.652 87.689s-13.75 42.765-13.75 65.003-1.25 25.66 0 25.66h26.25s0-47.898 5-63.293c5-15.396 10-27.37 10-27.37s-27.5-1.71-27.5 0zM197.152 87.689s-13.75 42.765-13.75 65.003-1.25 25.66 0 25.66h26.25s0-47.898 5-63.293c5-15.396 10-27.37 10-27.37s-27.5-1.71-27.5 0zM148.178 188.188c-2.85 0-1.689 12.773-1.689 22.528.713 9.755.884 17.243 2.139 17.243s25.64-3.421 22.79-.856c-2.138-12.83-2.851-11.602-2.107-20.066.743-9.32 1.487-18.85 1.487-18.85s-23.332-.75-22.62 0zM185.053 184.767c-2.85 0-1.689 12.773-1.689 22.528.713 9.755.884 17.242 2.139 17.242s25.64-3.42 22.79-.855c-2.138-12.83-2.851-11.602-2.107-20.066.743-9.32 1.487-18.85 1.487-18.85s-23.332-.75-22.62 0z"/>
 </g>
</svg>
