<?xml version="1.0" encoding="UTF-8"?>
<svg width="400pt" height="400pt" xmlns="http://www.w3.org/2000/svg" xmlns:xlink="http://www.w3.org/1999/xlink">
 <path d="m330.62 186.66a95.451 176.33 0 1 0-190.9 0 95.451 176.33 0 1 0 190.9 0h-95.45z" fill="#0cf" fill-rule="evenodd" font-size="12"/>
 <path d="m227.5 360.75v8.459c0 1.301 3.125-3.253-3.125 5.205s-11.875 7.157-6.875 10.41c5 3.254 6.25 0.651 10 0 3.75-0.65 1.875 2.603 6.25 3.254 4.375 0.65 5.625 0.65 8.75-1.302s-1.25-3.904 5.625-1.952 8.125 5.856 10.625 3.904-1.875 0-1.875-4.554c0-4.555-2.5-9.11-3.75-9.76s-6.25-1.301-6.25-7.157-1.25-7.157-1.25-7.157-15 1.952-18.125 0.65z" fill="#0cf" fill-rule="evenodd" font-size="12"/>
 <path d="M246.25 365H227.5l20 6.25-21.25-2.5s-11.25 22.5 1.25 45 16.25 16.25 12.5 37.5-13.75 32.5-11.25 37.5" fill="none" stroke="#000" stroke-width="3.125"/>
 <g fill="#fff" fill-rule="evenodd">
  <path d="M169.146 100.44s-13.75 48.044-13.75 73.026c0 24.983-1.25 28.826 0 28.826h26.25s0-53.808 5-71.104c5-17.295 10-30.747 10-30.747s-27.5-1.922-27.5 0zM206.646 100.44s-13.75 48.044-13.75 73.026c0 24.983-1.25 28.826 0 28.826h26.25s0-53.808 5-71.104c5-17.295 10-30.747 10-30.747s-27.5-1.922-27.5 0zM157.671 213.343c-2.85 0-1.688 14.35-1.688 25.308.713 10.96.883 19.371 2.138 19.371s25.641-3.843 22.79-.961c-2.138-14.413-2.85-13.034-2.106-22.543.742-10.47 1.486-21.175 1.486-21.175s-23.331-.843-22.62 0zM194.546 209.5c-2.85 0-1.688 14.349-1.688 25.308.713 10.959.883 19.37 2.138 19.37s25.641-3.843 22.79-.96c-2.138-14.413-2.85-13.035-2.106-22.543.742-10.47 1.486-21.176 1.486-21.176s-23.331-.843-22.62 0z"/>
 </g>
</svg>
