<svg width="400pt" height="400pt" xmlns="http://www.w3.org/2000/svg" xmlns:xlink="http://www.w3.org/1999/xlink"><defs><radialGradient xlink:href="#a" cx=".305" cy=".328" fx=".305" fy=".328" r=".33" spreadMethod="pad"/><radialGradient xlink:href="#b" cx=".448" cy=".977" fx=".448" fy=".977" r=".771" spreadMethod="pad"/><radialGradient xlink:href="#b"/><linearGradient id="b"><stop offset="0" stop-color="#fff"/><stop offset="1"/></linearGradient><linearGradient id="a"><stop offset="0" stop-color="#e6cd00"/><stop offset="1" stop-color="#ff9f2d"/></linearGradient></defs><path d="M381.25 185.076a146.875 176.326 0 10-293.75 0 146.875 176.326 0 10293.75 0H234.375z" font-size="12" fill="#ff0" fill-rule="evenodd"/><path d="M227.5 360.751v8.459c0 1.301 3.125-3.253-3.125 5.205s-11.875 7.157-6.875 10.41c5 3.254 6.25.651 10 0 3.75-.65 1.875 2.603 6.25 3.254 4.375.65 5.625.65 8.75-1.302s-1.25-3.904 5.625-1.952 8.125 5.856 10.625 3.904-1.875 0-1.875-4.554c0-4.555-2.5-9.11-3.75-9.76-1.25-.65-6.25-1.301-6.25-7.157s-1.25-7.157-1.25-7.157-15 1.952-18.125.65z" font-size="12" fill="#ff0" fill-rule="evenodd"/><path d="M246.25 365H227.5l20 6.25-21.25-2.5s-11.25 22.5 1.25 45 16.25 16.25 12.5 37.5-13.75 32.5-11.25 37.5" fill="none" stroke="#000" stroke-width="3.125"/><path d="M137.5 63.75s-13.75 31.25-13.75 47.5-1.25 18.75 0 18.75H150s0-35 5-46.25 10-20 10-20-27.5-1.25-27.5 0zM175 63.75s-13.75 31.25-13.75 47.5-1.25 18.75 0 18.75h26.25s0-35 5-46.25 10-20 10-20-27.5-1.25-27.5 0zM126.026 137.188c-2.85 0-1.689 9.334-1.689 16.462.713 7.128.884 12.6 2.139 12.6s25.64-2.5 22.79-.625c-2.138-9.375-2.85-8.478-2.107-14.663.743-6.81 1.487-13.774 1.487-13.774s-23.332-.548-22.62 0zM162.9 134.688c-2.85 0-1.688 9.334-1.688 16.462.713 7.128.884 12.6 2.139 12.6s25.64-2.5 22.79-.625c-2.138-9.375-2.85-8.478-2.107-14.663.743-6.81 1.487-13.774 1.487-13.774s-23.332-.548-22.62 0z" fill="#fff" fill-rule="evenodd"/></svg>