<?xml version="1.0" encoding="UTF-8"?>
<svg width="400pt" height="400pt" xmlns="http://www.w3.org/2000/svg" xmlns:xlink="http://www.w3.org/1999/xlink">
 <path d="m348.02 190.61a110.48 170.79 0 1 0-220.96 0 110.48 170.79 0 1 0 220.96 0h-110.48z" fill="#f0f" fill-rule="evenodd" font-size="12"/>
 <path d="m227.5 360.75v8.459c0 1.301 3.125-3.253-3.125 5.205s-11.875 7.157-6.875 10.41c5 3.254 6.25 0.651 10 0 3.75-0.65 1.875 2.603 6.25 3.254 4.375 0.65 5.625 0.65 8.75-1.302s-1.25-3.904 5.625-1.952 8.125 5.856 10.625 3.904-1.875 0-1.875-4.554c0-4.555-2.5-9.11-3.75-9.76s-6.25-1.301-6.25-7.157-1.25-7.157-1.25-7.157-15 1.952-18.125 0.65z" fill="#f0f" fill-rule="evenodd" font-size="12"/>
 <path d="M246.25 365H227.5l20 6.25-21.25-2.5s-11.25 22.5 1.25 45 16.25 16.25 12.5 37.5-13.75 32.5-11.25 37.5" fill="none" stroke="#000" stroke-width="3.125"/>
 <g fill="#fff" fill-rule="evenodd">
  <path d="m156.49 101.96s-13.75 44.205-13.75 67.191-1.25 26.523 0 26.523h26.25s0-49.51 5-65.423c5-15.914 10-28.291 10-28.291s-27.5-1.768-27.5 0zm37.5 0s-13.75 44.205-13.75 67.191-1.25 26.523 0 26.523h26.25s0-49.51 5-65.423c5-15.914 10-28.291 10-28.291s-27.5-1.768-27.5 0zm-48.974 103.88c-2.85 0-1.688 13.202-1.688 23.286 0.712 10.083 0.883 17.823 2.138 17.823s25.64-3.536 22.79-0.884c-2.138-13.261-2.85-11.993-2.107-20.742 0.743-9.633 1.487-19.483 1.487-19.483s-23.332-0.776-22.62 0zm36.875-3.537c-2.85 0-1.688 13.203-1.688 23.286 0.712 10.084 0.883 17.824 2.138 17.824s25.64-3.537 22.79-0.885c-2.138-13.26-2.85-11.992-2.107-20.741 0.743-9.634 1.487-19.484 1.487-19.484s-23.332-0.775-22.62 0z"/>
 </g>
</svg>
