<?xml version="1.0" encoding="UTF-8"?>
<svg width="400pt" height="400pt" xmlns="http://www.w3.org/2000/svg" xmlns:xlink="http://www.w3.org/1999/xlink">
 <path d="m335.36 185.08a100.2 176.33 0 1 0-200.4 0 100.2 176.33 0 1 0 200.4 0h-100.2z" fill="#0f0" fill-rule="evenodd" font-size="12"/>
 <path d="m227.5 360.75v8.459c0 1.301 3.125-3.253-3.125 5.205s-11.875 7.157-6.875 10.41c5 3.254 6.25 0.651 10 0 3.75-0.65 1.875 2.603 6.25 3.254 4.375 0.65 5.625 0.65 8.75-1.302s-1.25-3.904 5.625-1.952 8.125 5.856 10.625 3.904-1.875 0-1.875-4.554c0-4.555-2.5-9.11-3.75-9.76s-6.25-1.301-6.25-7.157-1.25-7.157-1.25-7.157-15 1.952-18.125 0.65z" fill="#0f0" fill-rule="evenodd" font-size="12"/>
 <path d="M246.25 365H227.5l20 6.25-21.25-2.5s-11.25 22.5 1.25 45 16.25 16.25 12.5 37.5-13.75 32.5-11.25 37.5" fill="none" stroke="#000" stroke-width="3.125"/>
 <g fill="#fff" fill-rule="evenodd">
  <path d="M151.342 204.58c-2.85 0-1.688 15.64-1.688 27.583.713 11.944.883 21.112 2.138 21.112s25.64-4.189 22.79-1.047c-2.138-15.708-2.85-14.206-2.107-24.569.743-11.411 1.487-23.079 1.487-23.079s-23.331-.919-22.62 0zM162.816 81.53s-13.75 52.362-13.75 79.59c0 27.227-1.25 31.416 0 31.416h26.25s0-58.644 5-77.494 10-33.512 10-33.512-27.5-2.094-27.5 0zM200.316 81.53s-13.75 52.362-13.75 79.59c0 27.227-1.25 31.416 0 31.416h26.25s0-58.644 5-77.494 10-33.512 10-33.512-27.5-2.094-27.5 0zM188.217 200.391c-2.85 0-1.688 15.64-1.688 27.583.713 11.944.883 21.112 2.138 21.112s25.64-4.189 22.79-1.047c-2.138-15.708-2.85-14.206-2.107-24.569.743-11.411 1.487-23.079 1.487-23.079s-23.331-.918-22.62 0z"/>
 </g>
</svg>
