<?xml version="1.0" encoding="UTF-8"?>
<svg width="400pt" height="400pt" xmlns="http://www.w3.org/2000/svg" xmlns:xlink="http://www.w3.org/1999/xlink">
 <path d="m341.69 185.08a108.9 176.33 0 1 0-217.8 0 108.9 176.33 0 1 0 217.8 0h-108.9z" fill="#ff0" fill-rule="evenodd" font-size="12"/>
 <path d="m227.5 360.75v8.459c0 1.301 3.125-3.253-3.125 5.205s-11.875 7.157-6.875 10.41c5 3.254 6.25 0.651 10 0 3.75-0.65 1.875 2.603 6.25 3.254 4.375 0.65 5.625 0.65 8.75-1.302s-1.25-3.904 5.625-1.952 8.125 5.856 10.625 3.904-1.875 0-1.875-4.554c0-4.555-2.5-9.11-3.75-9.76s-6.25-1.301-6.25-7.157-1.25-7.157-1.25-7.157-15 1.952-18.125 0.65z" fill="#ff0" fill-rule="evenodd" font-size="12"/>
 <path d="M246.25 365H227.5l20 6.25-21.25-2.5s-11.25 22.5 1.25 45 16.25 16.25 12.5 37.5-13.75 32.5-11.25 37.5" fill="none" stroke="#000" stroke-width="3.125"/>
 <g fill="#fff" fill-rule="evenodd">
  <path d="m153.32 92.512s-13.75 47.084-13.75 71.567c0 24.484-1.25 28.25 0 28.25h26.25s0-52.733 5-69.683 10-30.134 10-30.134-27.5-1.883-27.5 0zm37.5 0s-13.75 47.084-13.75 71.567c0 24.484-1.25 28.25 0 28.25h26.25s0-52.733 5-69.683 10-30.134 10-30.134-27.5-1.883-27.5 0zm-48.974 110.65c-2.85 0-1.689 14.062-1.689 24.802 0.713 10.74 0.884 18.984 2.138 18.984 1.255 0 25.641-3.767 22.79-0.942-2.137-14.125-2.85-12.774-2.106-22.092 0.743-10.261 1.487-20.753 1.487-20.753s-23.332-0.826-22.62 0zm36.875-3.767c-2.85 0-1.689 14.062-1.689 24.802 0.713 10.74 0.884 18.984 2.138 18.984 1.255 0 25.641-3.766 22.79-0.941-2.137-14.125-2.85-12.774-2.106-22.093 0.743-10.26 1.487-20.752 1.487-20.752s-23.332-0.826-22.62 0z"/>
 </g>
</svg>
