<svg width="400pt" height="400pt" xmlns="http://www.w3.org/2000/svg"><g fill="#fff" fill-rule="evenodd" stroke="#000" stroke-width="3.75"><path d="M383.759 211.694l-3.896 58.44s18.506 8.767 55.518 14.611c24.35-.001 54.544-4.871 54.544-4.871s-30.194-30.194-30.194-28.246c0 1.948 32.143-15.584 34.091-17.532-43.83.974-110.063-15.584-110.063-22.402zM3.896 287.666s54.544 8.767 65.258 6.819c10.715-1.948 21.429 0 24.35-4.87 2.923-4.871 16.559-72.077 16.559-72.077s-44.805 8.766-55.519 8.766c-10.714 0-50.648-4.87-50.648-4.87s21.428 28.246 24.35 28.246c2.922 0-27.272 39.935-24.35 37.986z" transform="matrix(1 0 0 1.48868 4.87 -78.788)"/><path d="M11.688 196.11l12.662 74.024s33.116-6.818 50.649-1.948c13.636 6.818 20.454 8.766 20.454 16.558 0 7.793 14.61-67.206 14.61-67.206s-24.35-24.35-41.883-24.35c-17.532 0-52.596 0-56.492 2.922zM379.863 269.16s2.922-4.87 20.454-11.688c17.532-6.818 48.7-7.792 49.674-5.844.974 1.948 17.532-55.518 17.532-55.518s-40.908-4.87-48.7-1.948c-7.792 2.922-35.064 9.74-36.038 13.636-.974 3.896-1.948 63.31-2.922 61.362z" transform="matrix(1 0 0 1.48868 4.87 -78.788)"/><path d="M10.714 198.058l14.61 71.102s51.623-37.012 216.23-31.168c169.477-4.87 204.541 11.688 208.437 13.636 3.896 1.948 17.532-55.518 17.532-55.518s-13.636-28.246-221.099-42.856c-171.425 9.74-236.684 29.22-235.71 44.804z" transform="matrix(1 0 0 1.48868 4.87 -78.788)"/></g></svg>