<svg width="400pt" height="400pt" xmlns="http://www.w3.org/2000/svg"><path d="M3.896 162.02s107.141-10.714 157.789 0c50.649 10.714 132.465 30.194 163.633 30.194 31.169 0 81.817 4.87 119.803-6.818l37.986-11.688s-34.09 63.31-57.466 80.842c-5.844 1.948.974.974-1.948.974 11.688 21.428 36.038 37.013 47.726 52.597 7.792 7.792 6.818 10.714 6.818 9.74 0-.974-129.542 7.792-178.242-1.948-77.922-20.454-84.74-30.194-180.192-31.168-69.155-2.922-102.27 15.584-102.27 15.584s43.83-65.259 50.647-71.103C75 223.382 7.792 160.072 3.896 162.02z" fill="#fff" fill-rule="evenodd" stroke="#000" stroke-width="3.75"/></svg>