<svg width="160" height="160" xmlns="http://www.w3.org/2000/svg" xmlns:xlink="http://www.w3.org/1999/xlink"><defs><linearGradient id="a"><stop offset="0" stop-color="#fff" stop-opacity=".5"/><stop offset="1" stop-color="#fff" stop-opacity=".1"/></linearGradient><linearGradient xlink:href="#a" id="b" x1=".213" y1=".117" x2=".9" y2=".656"/><linearGradient xlink:href="#a" id="c" x1=".065" y1=".139" x2=".609" y2="1.806"/><linearGradient xlink:href="#a" id="d" x1=".156" y1=".078" x2=".986" y2="1.293"/></defs><path d="M38.153 33.45c2.352 1.226 22.369 5.487 33.972 5.226 16.528.261 30.314-6.05 32.927-7.056 0 1.434-2.307 10.273-2.613 15.68 0 5.447 1.83 28.414 2.09 33.71.868 6.179 2.705 13.862 4.443 19.077 1.83 3.554-23.563 9.854-34.756 10.453-12.602.784-38.937-4.371-37.37-8.362 0-3.969 3.66-13.383 3.66-19.6.522-6.025-.262-23.272-.262-30.836-.261-6.78-1.054-12.56-2.09-18.293z" fill="#fbd900" fill-rule="evenodd" stroke="#000" stroke-width="1pt" stroke-linejoin="round"/><path d="M36.324 103.223c-5.586-1.331-7.879 10.113-1.83 12.02 6.368 3.755 29.704 7.057 39.2 6.273 11.1-.262 31.192-4.443 35.8-8.363 6.135-3.92 5.466-13.066 0-12.02-3.278 3.658-26.698 8.884-36.585 9.407-9.222.784-30.749-2.526-36.585-7.317z" fill="#fbf3bf" fill-rule="evenodd" stroke="#000" stroke-width="1pt"/><path d="M103.073 42.61c1.245-3.212 9.639-6.972 12.363-7.516 4.687-1.05 12.385-1.388 16.764 4.28 7.94 10.323 6.762 28.625 2.861 34.638-2.776 5.103-9.371 10.281-14.636 11.877-5.15 1.534-12.706 2.661-14.332 3.712-.35-1.297-1.327-7.388-1.38-9.071 1.95.128 7.488-.893 11.695-1.868 3.901-.9 6.45-3.275 9.335-6.223 4.995-4.7 4.344-21.159.537-25.056-2.232-2.263-6.848-3.905-9.915-3.323-4.992 1.031-13.676 7.365-13.676 6.98-.509-2.08-.25-6.16.384-8.43z" fill="#fbf3bf" fill-rule="evenodd" stroke="#000" stroke-width="1.25" stroke-linejoin="bevel"/><path d="M57.712 46.931c1.656 1.207-1.355 16.955-.941 28.131.414 14.296 1.443 23.528-.522 24.636-3.107 1.674-9.9-.136-12.045-2.42-1.274-1.508 1.806-10.24 2.012-16.43-.413-8.71-1.702-33.303-.46-34.777 2.252-2.054 9.68-1.153 11.956.86z" fill="#fbe600" fill-rule="evenodd" stroke="#000" stroke-width="1.25" stroke-linejoin="round"/><path d="M66.303 47.6c-1.479 1.425-.064 19.625-.064 22.56.306 3.808-1.1 27.452-.177 28.954 1.848 2.122 10.216 2.442 13-.357 1.506-1.874-.477-22.544-.477-27.68 0-5.51 1.407-22.051-.44-23.58-2.033-2.149-8.44-3.179-11.842.103z" fill="#fbe600" fill-rule="evenodd" stroke="#000" stroke-width="1pt"/><path d="M85.991 46.156c-1.658 1.256 1.18 15.8 1.194 26.982.138 14.3-1.244 24.662.824 25.71 3.268 1.578 10.881-1.542 13-3.892 1.253-1.544-1.41-10.178-2.081-16.357-.984-8.164.147-33.129-1.19-34.564-2.401-1.984-9.481.04-11.747 2.121z" fill="#fbe600" fill-rule="evenodd" stroke="#000" stroke-width="1.25" stroke-linejoin="round"/><path d="M79.272 39.684c-4.989 1.109-36.587-3.141-39.728-4.804.924 4.62 3.141 45.272 1.663 49.891.185 2.033-3.88 15.153-3.696 17.924 17.185-68.37 39.729-48.967 41.761-63.011z" fill="url(#b)" fill-rule="evenodd"/><path d="M35.717 103.873c-3.05-.898-5.205 6.82-2.871 9.153 5.743 2.693 13.281-2.333 38.23-1.615-12.744-.359-31.59-2.872-35.359-7.538z" fill="url(#c)" fill-rule="evenodd"/><path d="M104.28 42.13c4.487-4.487 8.795-5.564 14-6.461 8.795-2.334 14.897 3.769 16.872 11.846-4.488-7.18-10.231-8.257-14.18-8.436-4.128.718-15.794 7.897-16.871 9.154-1.077 1.256-.718-4.129.18-6.103z" fill="url(#d)" fill-rule="evenodd"/><path d="M37.098 85.903c2.384 1.16 4.282-1.569 3.465-3.03.915.087 1.795-.325 1.795-1.795.72-.72-.364-1.854-.364-2.736-.994-.993.005-2.165.005-3.725 0-1.554.898-2.503.898-4.128 0-2.362 2.06-1.181.897-4.667 1.088-.425 2.274-1.485.898-2.692 2.16-.24 3.218-2.355.538-4.667 4.073 0-4.23-8.73 2.692-7 2.222-.555 1.795-2.215 1.795-4.307 2.872 3.948 6.896 2.62 7.538 0 1.349 4.4 10.59 2.587 10.59-2.872.18 6.75 7.118 3.404 8.436 3.949-1.616 1.866 1.584 9.08 4.307 9.153-6.31 4.732-5.173 13.001 2.513 14.538 3.894 0 5.385-3.278 5.385-7.897 1.256 2.645 6.972 4.28 7-.18 2.871 5.545 6.495-1.47 4.307-2.153 5.026 1.905 3.09-7.079 1.257-9.154 2.871-.914 1.956-7.52.179-9.692 2.621 2.665 6.739-.831 6.282-5.923 1.228 3.467 9.147-.368 3.77-8.436 0-1.545-4.488-1.749-5.565-.538-.015-5.446-4.1-9.692-7-8.615 1.8-2.693-9.048-4.9-11.307-.539 1.35-5.7-13.81-9.333-14.18-6.102-1.748-2.513-11.77-2.559-14.717 6.282 0-4.861-16.309-7-15.974.359-3.49-2.434-9.228.359-8.795 3.23-5.385-2.703-7.842 9.561-3.41 10.23-2.513 2.263-2.692 11.312.538 11.129-1.974 2.13-.897 8.436 1.257 8.615-1.68 2.32.245 13.674 7.179 11.846 0 2.524.709 4.694-.18 7.359 0 1.545-.897 2.853-.897 4.487.372.744-1.26 2.724.539 3.949-4.217 1.759-3.303 4.464-1.67 5.722z" fill="#fff" fill-rule="evenodd" stroke="#000" stroke-width="1pt" stroke-linejoin="round"/><path d="M37.007 41.137c-1.51-1.65 1.222-7.04 4.243-6.762.689-2.474 2.586-2.893 4.688-2.188-1.048-2.044 1.503-3.991 3.75-1.681 1.517-2.622 4.677-4.645 6.356-3.232-.132-3.373 6.063-6.793 8.331-3.837 0 .607-.363 1.875 0 1.875M74.063 30.938c-.104-4.721 14.009-8.591 11.25-.313 1.269-.635 6.874-1.299 5.844 2.313 4.123-.465 10.39 1.105 6.662 6.689 2.396 1.805 1.33 6.695-.319 5.06" fill="none" stroke="#000" stroke-width="1pt" stroke-linejoin="round"/></svg>