<svg width="160" height="160" xmlns="http://www.w3.org/2000/svg" xmlns:xlink="http://www.w3.org/1999/xlink"><defs><linearGradient id="a"><stop offset="0" stop-color="#fffb00"/><stop offset="1" stop-color="#ffac00"/></linearGradient><linearGradient id="b"><stop offset="0" stop-color="#fff" stop-opacity=".5"/><stop offset="1" stop-color="#fff" stop-opacity=".1"/></linearGradient><linearGradient xlink:href="#a" id="c" x1=".125" y1=".095" x2=".881" y2=".923"/><linearGradient xlink:href="#a" id="d" x1=".935" y1=".896" x2="-.243" y2="-.727"/><linearGradient xlink:href="#b" id="g" x1=".072" y1=".109" x2="1.058" y2=".014"/><linearGradient xlink:href="#b" id="f"/><linearGradient xlink:href="#b" id="e"/></defs><path d="M49.344 130.825c-1.606 2.07-2.524 5.059-1.835 6.898 1.147 3.45 14.228 7.128 25.244 7.128 12.852 0 24.556-4.598 25.474-7.128.46-1.84-.688-4.139-2.295-6.898-1.836-4.599-14.917-6.668-22.49-6.208-7.115.23-19.967.23-24.098 6.208z" fill="#7f7f7f" fill-opacity=".25" fill-rule="evenodd"/><path d="M106.261 53.68c-1.377 5.094-16.179 10.508-32.705 9.589C55.883 63.269 42 58.084 42 53.68c.918-3.484 14.573-7.978 32.246-7.978 17.673 0 31.098 4.264 32.016 7.978z" fill="#fbd900" fill-opacity=".75" fill-rule="evenodd"/><path d="M49.895 129.549c0-14.946-6.723-80.605-13.315-95.344 4.195 7.335 26.06 9.48 36.266 9.176 11.583.386 34.86-1.322 40.642-10.013-8.447 14.075-18.122 77.07-18.023 95.344 1.476 5.167-16.114 7.256-24.07 7.282-7.038.025-19.865-1.6-21.5-6.445z" fill="#e6ffff" fill-opacity=".1" fill-rule="evenodd"/><path d="M50.523 130.373c2.268 8.247 44.38 8.453 44.999 0 .206-5.773-39.226-9.071-45 0z" fill="none" stroke="#000" stroke-width="1pt"/><path d="M49.963 129.506c0-14.946-5.805-60.6-8.725-76.718 4.195 7.335 23.764 9.938 32.134 9.635 9.518.386 27.516-1.322 33.299-10.012-3.398 13.844-11.237 57.984-11.138 76.258 1.117 6.962-16.114 7.256-24.07 7.282-7.038.026-19.865-1.6-21.5-6.445z" fill="#fc0" fill-opacity=".775" fill-rule="evenodd"/><path d="M41.743 54.01c.385-3.079 19.237-8.465 31.164-8.08 11.734.385 32.702 3.462 33.664 7.887.962 4.424-22.122 9.233-32.895 9.426-11.35-.193-30.201-4.04-31.933-9.234z" fill="none" stroke="#000" stroke-width="1pt"/><path d="M42.188 54.063l-5.626-20.626c15-16.874 71.563-9.687 75.313-.624-1.25 7.187-5.313 18.75-6.563 22.812-12.5 6.875-47.5 11.875-63.124-1.563z" fill="#fff" fill-rule="evenodd"/><g stroke="#000"><path d="M8.344 62.313c-10.216 0-18.62 7.216-20.344 16.53-.092.47-.111.946-.156 1.438-.075.689-.219 1.357-.219 2.063 0 1.86.376 3.624.875 5.344.097.375.13 1.16.219 1.406h.219c2.876 7.689 10.422 13.344 19.406 13.344 11.47 0 20.687-9.14 20.687-20.094 0-1.017-.159-1.99-.312-2.969-.03-.23-.026-.465-.063-.688-.118-.611-.325-1.189-.5-1.78-.108-.318-.147-.733-.281-1h-.031c-2.785-7.841-10.395-13.594-19.5-13.594zm0 6.78c5.004 0 9.347 2.726 11.656 6.782l-23.313-.031a13.406 13.406 0 0111.657-6.75zm11.812 19.438c-2.26 4.23-6.688 7.094-11.812 7.094-4.956 0-9.267-2.687-11.594-6.688l23.406-.406z" fill="url(#c)" fill-rule="evenodd" stroke-width="1.25" stroke-linejoin="round" transform="translate(63.75 12.5)"/><path d="M21.062 81.936c.473 0 .811-.088 1.014-.263.207-.176.31-.465.31-.868 0-.398-.103-.683-.31-.855-.203-.172-.54-.258-1.014-.258h-.949v2.244h.95zm-.949 1.559v3.31h-2.256v-8.748h3.446c1.152 0 1.996.194 2.531.58.539.387.809.998.809 1.834 0 .579-.141 1.053-.422 1.424-.278.371-.698.645-1.26.82.309.07.584.231.826.481.246.246.494.621.744 1.125l1.225 2.484h-2.403l-1.066-2.173c-.215-.438-.434-.737-.656-.897-.219-.16-.512-.24-.88-.24h-.638zM9.66 78.057h6.088v1.705h-3.832v1.63h3.604v1.704h-3.604V85.1h3.96v1.705H9.66v-8.748zm-8.197 0H7.55v1.705H3.719v1.63h3.603v1.704H3.72V85.1h3.96v1.705H1.464v-8.748zm-5.643 3.387c.356 0 .625-.078.809-.234.183-.157.275-.387.275-.692 0-.3-.092-.529-.275-.685-.184-.16-.453-.24-.809-.24h-1.248v1.851h1.248zm.076 3.826c.454 0 .793-.095 1.02-.287.23-.191.346-.48.346-.867 0-.379-.114-.662-.34-.85-.227-.191-.569-.287-1.026-.287h-1.324v2.291h1.324zm2.098-3.146c.484.14.86.4 1.125.78.266.378.399.843.399 1.394 0 .843-.286 1.472-.856 1.886-.57.414-1.437.621-2.601.621h-3.745v-8.748h3.387c1.215 0 2.094.184 2.637.551.547.367.82.955.82 1.764 0 .426-.1.789-.299 1.09-.199.297-.488.517-.867.662z" font-size="12" font-weight="700" stroke-width=".625" font-family="Bitstream Vera Sans" fill="url(#d)" transform="translate(63.75 12.5)"/></g><path d="M39.935 39.999c2.525.92 8.721 3.909 12.622 3.909.23 4.599 6.885 82.778 7.574 89.446-1.607-.23-6.197-.92-8.033-3.219.918-4.139-8.72-82.548-12.163-90.136z" fill="url(#e)" fill-rule="evenodd"/><path d="M54.623 44.828c1.147.46 1.147.46 3.213.23.23 4.598 5.967 82.318 6.655 88.986-1.606-.23-2.524-.23-2.754-.46-.918-7.818-6.426-79.789-7.114-88.756z" fill="url(#f)" fill-rule="evenodd"/><path d="M75.155 23.658c-21.397 0-38.782 4.732-38.782 10.594 0 .572.307 1.14.625 1.688 6.557 14.66 13.21 79.537 13.282 94.937-.157.186-.363.333-.5.531-1.607 2.07-2.533 5.067-1.844 6.907 1.147 3.449 14.234 7.125 25.25 7.125 12.852 0 24.55-4.596 25.469-7.125.459-1.84-.706-4.147-2.313-6.907-.044-.11-.161-.204-.219-.312-.012-.214-.15-.417-.25-.625-.004-.009.005-.022 0-.031-.099-18.274 9.585-81.27 18.032-95.344-.116.173 0-.399 0-.844 0-5.862-17.354-10.594-38.75-10.594z" fill="#bfbfbf" fill-opacity=".1" fill-rule="evenodd" stroke="#000" stroke-width="1.238" stroke-linejoin="round"/><path d="M39.001 43.589c9.208 9.654 47.059 14.589 70.827-.858-.432 1.683-.988 2.805-1.07 3.432-12.634 11.8-56.563 15.233-68.983.215.184.015-.392-2.097-.774-2.79z" fill="#003f00" fill-rule="evenodd" stroke="#000" stroke-width="1.126" stroke-linejoin="round"/><path d="M36.542 35.363c1.875 9.063 61.119 16.727 76.892-1.31" fill="none" stroke="#000" stroke-width="1pt"/><g stroke="#000" stroke-width="1pt" stroke-linejoin="round"><path d="M-219.455-9.826c4.032 1.33 2.631-4.48.99-5.77.915.087.146-1.01.146-2.479.72-.72.13-1.34.13-2.222-.994-.993.995-1.994.995-3.554 0-1.554-.422-2.674-.422-4.3 0-2.36-.25-1.523-1.412-5.009 1.089-.424 2.274-1.484.898-2.692 2.16-.24 3.218-2.354.538-4.666 4.074 0-4.23-8.73 2.692-7 2.223-.556 1.795-2.215 1.795-4.308 2.872 3.949 6.896 2.621 7.539 0 1.348 4.4 10.59 2.587 10.59-2.872.179 6.75 7.117 3.405 8.435 3.949-1.615 1.866 1.584 9.08 4.308 9.154-6.31 4.732-5.173 13 2.512 14.538 3.894 0 5.385-3.279 5.385-7.897 1.256 2.644 6.972 4.28 7-.18 2.872 5.545 6.496-1.47 4.307-2.154 5.026 1.906 3.091-7.078 1.257-9.153 2.872-.915 1.957-7.521.18-9.693 2.62 2.666 6.738-.83 6.281-5.923 1.228 3.468 9.148-.368 3.77-8.435 0-1.545-4.488-1.75-5.565-.539-.015-5.446-4.1-9.692-7-8.615 1.8-2.692-9.048-4.899-11.307-.538 1.35-5.701-13.81-9.334-14.18-6.103-1.747-2.513-11.77-2.558-14.717 6.282 0-4.86-16.309-7-15.974.359-3.49-2.433-9.227.359-8.795 3.23-5.384-2.703-7.842 9.562-3.41 10.231-2.513 2.263-2.692 11.311.538 11.128-1.974 2.13-.897 8.437 1.257 8.616-1.68 2.32.246 13.674 7.18 11.846 0 2.523 2.852 4.865 1.964 7.53 0 1.545-.073 3.537-.073 5.171.372.744-.27 3.238 1.528 4.462-4.216 1.76-3.962 7.203.64 7.606z" fill="#fff" fill-rule="evenodd" transform="matrix(1.16625 0 0 1.12396 302.444 110.263)"/><path d="M-225.815-57.844c-1.509-1.65 1.222-7.04 4.243-6.763.689-2.474 2.586-2.892 4.688-2.187-1.048-2.045 1.503-3.992 3.75-1.682 1.517-2.622 4.677-4.645 6.356-3.231-.132-3.373 6.063-6.794 8.331-3.837 0 .606-.362 1.875 0 1.875M-188.76-68.044c-.103-4.72 14.01-8.59 11.25-.313 1.27-.634 6.876-1.299 5.845 2.314 4.123-.466 10.39 1.104 6.662 6.688 2.396 1.806 1.33 6.696-.319 5.061" fill="none" transform="matrix(1.16625 0 0 1.12396 302.444 110.263)"/></g><path d="M50.004 132.232s-2.284 4.823-.761 6.092c1.269 2.03 12.691 6.6 23.352 6.6-3.3-2.539-14.722-4.316-22.59-12.692z" fill="url(#g)" fill-rule="evenodd"/></svg>