<?xml version="1.0" encoding="UTF-8"?>
<svg width="160" height="160" xmlns="http://www.w3.org/2000/svg" xmlns:xlink="http://www.w3.org/1999/xlink">
 <path d="m142.59 108.36c0 12.47-29.23 22.592-65.244 22.592-36.015 0-65.245-10.121-65.245-22.592 0-12.47 29.23-22.592 65.245-22.592s65.244 10.121 65.244 22.592z" fill="#e6b100" fill-rule="evenodd" stroke="#000" stroke-width="1.888"/>
 <path d="M77.344 42.674c-31.241 0-56.596 9.066-56.596 20.235 0 .519.215 39.444.215 39.698 0 11.17 25.355 20.235 56.596 20.235 31.24 0 56.596-9.065 56.596-20.235l-.215-38.925v-.773c0-11.17-25.355-20.235-56.596-20.235z" fill="#441b13" fill-rule="evenodd" stroke="#000" stroke-width="1.55"/>
 <path d="M19.026 58.533c-.462 4.154-4.42 15.395 3.565 13.638 7.97.627-.124 13.693 8.246 14.206 6.8.516 1.07-10.292 7.242-7.015 6.294 1.263 5.484 7.472 6.339 11.671 4.158 3.327 5.508-2.502 4.234-5.193 3.122-4.528 11.814-2.601 16.33-.912 2.515 4.586 4.296 14.048 12.238 11.482 5.294-1.607 7.611-11.265 13-12.126 4.85.048 5.205 11.75 10.577 6.45 1.465-4.32 9.301-12.106 14.1-6.909 4.834 4.445 12.224 1.106 10.427-6.527 2.591-4.517 10.15 1.838 10.166-10.59 1.163-5.864.211-11.3-7.86-16.026-4.883-2.337-12.125-3.453-19.225-6.361-7.7-2.705-14.925-4.16-23.043-5.298-14.164-.242-25.948 1.43-39.862 4.077-6.57.784-11.245 4.882-17.236 6.899-3.774 1.735-7.654 5.226-9.238 8.534z" fill="#954a3d" fill-rule="evenodd" stroke="#000" stroke-width="1.753"/>
 <path d="M22.47 64.418c0 5.148 5.117 4.273 8.177 7.061 2.99 1.363 5.006 2.354 8.607 2.354 5.107 0-.65-1.67-2.151-2.354-3.544 0-9.039-1.87-9.039-5.1-2.123-1.935-2.475-1.961-5.595-1.961zM52.166 75.403c1.345 2.45 7.798 3.53 13.342 3.53 2.937 1.339 15.494 2.446 15.494-1.569 0-3.018-7.943-.785-9.468-.785-2.708 0-13.79-3.515-15.494-1.961-1.658 0-2.048.119-3.874.785zM90.04 76.58c3.13 2.852 13.67 1.027 18.507-1.177 1.91-1.161 9.038-1.899 9.038-4.316 1.68-1.531-6.2-.625-7.317.392-5.415 0-13.112 1.177-19.367 1.177-2.614 0-1.311 2.898-.86 3.923zM126.023 71.265c1.434-1.566 4.779-5.211 6.26-8.445 0-1.358 2.082-6.032-.369-6.032-2.077 0-4.418 3.022-4.418 5.228-.969 1.058-.024 6.032-2.21 6.032 0 3.175-2.44 3.217.737 3.217zM117.155 49.51c-3.474 0-6.813-1.732-10.76-3.531-4.743-1.08-9.46-3.138-14.203-3.138 0 5.638 8.885 9.092 14.203 6.669 3.978 0 6.4 1.987 10.76 0zM80.384 42.791c-1.264-.373-8.1-.864-12.237-.293-2.653.367-5.26 1.124-8.02 1.506-4.19.579-4.513 3.004-.039 2.386 4.429-.612 8.774-.022 13.385-.66 2.283 1.533 5.99-1.487 6.911-2.939zM44.85 48.333c-1.912 0-6.762 2.354-9.9 2.354-2.157 0-9.468 1.641-9.468 3.53-2.769 2.525 7.705-1.569 11.62-1.569 2.269 0 6.456.106 6.456-1.961 1.599 0 1.291-1.081 1.291-2.354zM31.077 61.672c2.589 0 8.043.784 12.05.784 2.04-1.858 7.318.727 7.318-3.138 0-.814-9.12-1.57-10.33-1.57-1.663 0-6.094.847-9.038 3.924zM47.432 70.302l9.038-8.238c1.677-1.528 6.254.288 1.722 2.354 0 2.404-2.212 4.315-4.735 4.315-2.112 1.926-2.818 1.57-6.025 1.57zM52.166 49.902c0 2.256 10.33 2.925 10.33 5.1 3.184 0 1.668-4.315-1.292-4.315-3.764 0-5.354-1.456-9.038-.785zM85.306 45.979c-2.252 2.053-2.41 7.062-5.595 7.062 0 4.579 5.595 2.23 5.595-.785 1.164-1.06 2.152-5.058 0-6.277zM78.85 64.418c0 .864 1.722 5.997 1.722 6.67 3.483 1.587 4.734-1.32 4.734-3.924-3.243-2.956.18-7.93-6.456-2.746zM119.737 52.648c-1.84 0-14.329 1.8-15.494 3.923 0 6.228 8.742.785 12.912.785 2.432 0 2.975-2.557 2.582-4.708zM119.737 65.595c-2.786-2.54-7.681-1.962-11.62-1.962-2.937 0-5.284 2.746-1.292 2.746 3.413 0 6.102.785 9.9.785 1.779 0 .636.163 3.012-1.57z" fill="#fff" fill-opacity=".8" fill-rule="evenodd"/>
 <path transform="matrix(1.3772 0 0 1.2554 -92.376 -13.951)" d="M116.374 29.657c1.051 1.838 2.829.863 4.758 1.007 1.957.165 2.814-1.11 4.007-1.503 3.476 2.1.397 4.957 1.08 8.575.047 2.639.475 6.873.879 9.674.164 2.295-5.928 2.471-7.087 1.45-.957-.584-1.701-2.451-1.102-4.614.162-2.665-.679-4.053-1.17-6.678.136-3.224-3.386-4.168-1.365-7.911z" fill="#0075ff" fill-rule="evenodd" stroke="#000" stroke-linejoin="round" stroke-width=".947"/>
 <path transform="matrix(1.3772 0 0 1.2554 -92.376 -13.951)" d="M116.37 29.314c.776.214 2.405.411 3.188.088.876 0 2.123.265 2.764-.264.5 0 1.913-.176 2.55-.176.804 0-.425-.274-.425.44-.59 0-1.07.446-1.488.79-.363.6-1.412.616-2.125.616-.832 0-1.81-.088-2.657-.088-.785 0-1.488-.136-1.807-1.406z" fill="#0ff" fill-rule="evenodd" stroke="#000" stroke-linejoin="round" stroke-width=".947"/>
 <path transform="matrix(1.3772 0 0 1.2554 -92.376 -13.951)" d="m118.28 13.76c1.488 1.67 9.672 12.83 1.488 13.445-11.054 1.318-0.532-9.579-1.488-13.445z" fill="#ffa800" fill-rule="evenodd" stroke="#000" stroke-width=".947"/>
 <path d="M71.976 9.046c1.07 1.308 6.227 10.27.339 10.753-7.953 1.032.35-7.724-.339-10.753z" fill="#ff0" fill-rule="evenodd"/>
 <path transform="matrix(1.3772 0 0 1.2554 -92.376 -13.951)" d="M120.94 30.28c-1.615-.972-2.272-2.666-1.734-3.582.417-.998.595-3.252.595-4.657" fill="none" stroke="#000" stroke-width=".947"/>
 <path transform="matrix(1.3772 0 0 1.2554 -50.281 -.06)" d="M116.374 29.657c1.051 1.838 2.829.863 4.758 1.007 1.957.165 2.814-1.11 4.007-1.503 3.476 2.1.397 4.957 1.08 8.575.047 2.639.475 6.873.879 9.674.164 2.295-5.928 2.471-7.087 1.45-.957-.584-1.701-2.451-1.102-4.614.162-2.665-.679-4.053-1.17-6.678.136-3.224-3.386-4.168-1.365-7.911z" fill="#0075ff" fill-rule="evenodd" stroke="#000" stroke-linejoin="round" stroke-width=".947"/>
 <path transform="matrix(1.3772 0 0 1.2554 -50.281 -.06)" d="M116.37 29.314c.776.214 2.405.411 3.188.088.876 0 2.123.265 2.764-.264.5 0 1.913-.176 2.55-.176.804 0-.425-.274-.425.44-.59 0-1.07.446-1.488.79-.363.6-1.412.616-2.125.616-.832 0-1.81-.088-2.657-.088-.785 0-1.488-.136-1.807-1.406z" fill="#0ff" fill-rule="evenodd" stroke="#000" stroke-linejoin="round" stroke-width=".947"/>
 <path transform="matrix(1.3772 0 0 1.2554 -50.281 -.06)" d="m118.28 13.76c1.488 1.67 9.672 12.83 1.488 13.445-11.054 1.318-0.532-9.579-1.488-13.445z" fill="#ffa800" fill-rule="evenodd" stroke="#000" stroke-width=".947"/>
 <path d="M114.072 22.938c1.07 1.308 6.226 10.27.338 10.753-7.952 1.032.35-7.724-.338-10.753z" fill="#ff0" fill-rule="evenodd"/>
 <path transform="matrix(1.3772 0 0 1.2554 -50.281 -.06)" d="M120.94 30.28c-1.615-.972-2.272-2.666-1.734-3.582.417-.998.595-3.252.595-4.657" fill="none" stroke="#000" stroke-width=".947"/>
 <path transform="matrix(-1.3429 .27842 .30544 1.2241 182.88 -32.728)" d="M116.374 29.657c1.051 1.838 2.829.863 4.758 1.007 1.957.165 2.814-1.11 4.007-1.503 3.476 2.1.397 4.957 1.08 8.575.047 2.639.475 6.873.879 9.674.164 2.295-5.928 2.471-7.087 1.45-.957-.584-1.701-2.451-1.102-4.614.162-2.665-.679-4.053-1.17-6.678.136-3.224-3.386-4.168-1.365-7.911z" fill="#0075ff" fill-rule="evenodd" stroke="#000" stroke-linejoin="round" stroke-width=".947"/>
 <path transform="matrix(-1.3429 .27842 .30544 1.2241 182.88 -32.728)" d="M116.37 29.314c.776.214 2.405.411 3.188.088.876 0 2.123.265 2.764-.264.5 0 1.913-.176 2.55-.176.804 0-.425-.274-.425.44-.59 0-1.07.446-1.488.79-.363.6-1.412.616-2.125.616-.832 0-1.81-.088-2.657-.088-.785 0-1.488-.136-1.807-1.406z" fill="#0ff" fill-rule="evenodd" stroke="#000" stroke-linejoin="round" stroke-width=".947"/>
 <path transform="matrix(-1.3429 .27842 .30544 1.2241 182.88 -32.728)" d="m118.28 13.76c1.488 1.67 9.672 12.83 1.488 13.445-11.054 1.318-0.532-9.579-1.488-13.445z" fill="#ffa800" fill-rule="evenodd" stroke="#000" stroke-width=".947"/>
 <path d="M28.211 22.92c-.725 1.492-3.572 11.275 2.286 10.554 8.006-.6-2.22-7.46-2.286-10.554z" fill="#ff0" fill-rule="evenodd"/>
 <path transform="matrix(-1.3429 .27842 .30544 1.2241 182.88 -32.728)" d="M120.94 30.28c-1.615-.972-2.272-2.666-1.734-3.582.417-.998.595-3.252.595-4.657" fill="none" stroke="#000" stroke-width=".947"/>
 <path transform="matrix(-1.3444 .27245 .29889 1.2255 210.71 -20.697)" d="M116.374 29.657c1.051 1.838 2.829.863 4.758 1.007 1.957.165 2.814-1.11 4.007-1.503 3.476 2.1.397 4.957 1.08 8.575.047 2.639.475 6.873.879 9.674.164 2.295-5.928 2.471-7.087 1.45-.957-.584-1.701-2.451-1.102-4.614.162-2.665-.679-4.053-1.17-6.678.136-3.224-3.386-4.168-1.365-7.911z" fill="#0075ff" fill-rule="evenodd" stroke="#000" stroke-linejoin="round" stroke-width=".947"/>
 <path transform="matrix(-1.3444 .27245 .29889 1.2255 210.71 -20.697)" d="M116.37 29.314c.776.214 2.405.411 3.188.088.876 0 2.123.265 2.764-.264.5 0 1.913-.176 2.55-.176.804 0-.425-.274-.425.44-.59 0-1.07.446-1.488.79-.363.6-1.412.616-2.125.616-.832 0-1.81-.088-2.657-.088-.785 0-1.488-.136-1.807-1.406z" fill="#0ff" fill-rule="evenodd" stroke="#000" stroke-linejoin="round" stroke-width=".947"/>
 <path transform="matrix(-1.3444 .27245 .29889 1.2255 210.71 -20.697)" d="m118.28 13.76c1.488 1.67 9.672 12.83 1.488 13.445-11.054 1.318-0.532-9.579-1.488-13.445z" fill="#ffa800" fill-rule="evenodd" stroke="#000" stroke-width=".947"/>
 <path d="M55.747 34.265c-.734 1.488-3.633 11.258 2.23 10.563 8.008-.565-2.181-7.47-2.23-10.563z" fill="#ff0" fill-rule="evenodd"/>
 <path transform="matrix(-1.3444 .27245 .29889 1.2255 210.71 -20.697)" d="M120.94 30.28c-1.615-.972-2.272-2.666-1.734-3.582.417-.998.595-3.252.595-4.657" fill="none" stroke="#000" stroke-width=".947"/>
 <path transform="matrix(-1.3357 .30594 .33563 1.2176 245.4 -25.756)" d="M116.374 29.657c1.051 1.838 2.829.863 4.758 1.007 1.957.165 2.814-1.11 4.007-1.503 3.476 2.1.397 4.957 1.08 8.575.047 2.639.475 6.873.879 9.674.164 2.295-5.928 2.471-7.087 1.45-.957-.584-1.701-2.451-1.102-4.614.162-2.665-.679-4.053-1.17-6.678.136-3.224-3.386-4.168-1.365-7.911z" fill="#0075ff" fill-rule="evenodd" stroke="#000" stroke-linejoin="round" stroke-width=".947"/>
 <path transform="matrix(-1.3357 .30594 .33563 1.2176 245.4 -25.756)" d="M116.37 29.314c.776.214 2.405.411 3.188.088.876 0 2.123.265 2.764-.264.5 0 1.913-.176 2.55-.176.804 0-.425-.274-.425.44-.59 0-1.07.446-1.488.79-.363.6-1.412.616-2.125.616-.832 0-1.81-.088-2.657-.088-.785 0-1.488-.136-1.807-1.406z" fill="#0ff" fill-rule="evenodd" stroke="#000" stroke-linejoin="round" stroke-width=".947"/>
 <path transform="matrix(-1.3357 .30594 .33563 1.2176 245.4 -25.756)" d="m118.28 13.76c1.488 1.67 9.672 12.83 1.488 13.445-11.054 1.318-0.532-9.579-1.488-13.445z" fill="#ffa800" fill-rule="evenodd" stroke="#000" stroke-width=".947"/>
 <path d="M92.147 33.056c-.688 1.507-3.293 11.345 2.547 10.504 7.988-.765-2.404-7.413-2.547-10.504z" fill="#ff0" fill-rule="evenodd"/>
 <path transform="matrix(-1.3357 .30594 .33563 1.2176 245.4 -25.756)" d="M120.94 30.28c-1.615-.972-2.272-2.666-1.734-3.582.417-.998.595-3.252.595-4.657" fill="none" stroke="#000" stroke-width=".947"/>
 <path d="M68.47 25.325c-1.795 2.58 1.96 4.208 2.413 6.553 1.002 2.946 1.4 7.127 1.588 10.195-.937 2.098 1.56 7.113 2.533 3.47.235-4.463-.964-10.88-1.748-15.245-.686-2.335-2.112-4.58-4.786-4.973zM110.173 38.748c-1.795 2.58 1.96 4.208 2.413 6.553 1.002 2.946 1.4 7.127 1.588 10.195-.937 2.098 1.559 7.113 2.533 3.47.235-4.463-.964-10.88-1.748-15.245-.686-2.335-2.112-4.58-4.786-4.973zM88.031 49.89c-1.794 2.58 1.96 4.208 2.413 6.553 1.003 2.947 1.401 7.128 1.588 10.195-.936 2.098 1.56 7.114 2.534 3.47.234-4.463-.964-10.879-1.749-15.245-.685-2.335-2.112-4.58-4.786-4.972zM22.991 39.169c-1.795 2.579 1.96 4.207 2.413 6.552 1.003 2.947 1.401 7.128 1.588 10.195-.937 2.098 1.56 7.114 2.534 3.47.234-4.463-.964-10.879-1.749-15.245-.685-2.335-2.112-4.58-4.786-4.972zM50.898 50.942c-1.794 2.58 1.96 4.207 2.414 6.553 1.002 2.946 1.4 7.127 1.587 10.195-.936 2.097 1.56 7.113 2.534 3.47.234-4.463-.964-10.88-1.749-15.245-.685-2.335-2.112-4.58-4.786-4.973z" fill="#fff" fill-opacity=".3" fill-rule="evenodd"/>
 <path d="M73.774 95.544c2.05 1.67 7.611-2.607 7.611-3.574 0-1.384.923-1.977.923-3.364-1.524-1.389-3.326 2.733-5.074 2.733-1.07.976-4.018 1.66-3.46 4.205zM98.453 91.55c2.253-1.165 3.493-4.056 4.612-6.098 1.417-1.29-.21-1.05-1.614-1.05-1.5 1.367-2.987 1.25-4.382 2.522 0 1.735-.48 3.945 1.384 4.625zM119.21 85.032c1.321-.402 4.152-.643 4.152-2.313 1.07-.975 1.153-2.44 1.153-3.784-1.179-2.15-3.44-.439-4.844.84-.855 1.56-1.37 4.842-.46 5.257zM130.742 74.31c1.86-.76 2.45-1.961 2.876-3.976.524-1.66.79-2.245-.856-1.138-1.647.94-3.572 2.033-3.453 3.948.046.838.367 1.527 1.433 1.166zM45.175 91.339c1.483.398 3.882-.876 3.229-3.784-2.523 0-3.229 1.673-3.229 3.784zM29.03 84.611c1.616 1.578 3.083 2.026 4.613-.84 0-1.57.283-2.523-1.614-2.523-1.545 0-2.883.84-3.46 1.892 0 .654.074.589.461 1.471zM18.42 69.474c1.68 1.893 2.769 3.757 2.769-.21-.16-2.037-2.768-1.96-2.768.21z" fill="#fff" fill-opacity=".8" fill-rule="evenodd"/>
 <path d="M20.497 87.344c7.17-.318 8.955 4.834 15.558 6.786 6.994.845 14.444 3.724 20.757 5.002 6.853 1.303 15.421 2.137 22.986 1.765 9.01-1.056 24.543-3.39 30.64-5.698 7.018-2.321 18.017-7.788 22.933-11.553 3.995-.087 1.657 5.904.236 8.757.163 3.75-1.446 6.903-6.348 5.641-5.64-1.38-4.145 8.519-10.224 5.052-5.337-3.16-7.692 2.29-7.77 6.198-5.263 2.141-12.3 6.457-17.734 2.408-2.82-4.748-12.893-7.357-14.12-.275-3.622 5.094-11.443 3.638-13.565-1.54-4.553-2.355-10.087-1.278-14.876-2.948-2.654 2.756-9.789 5.19-9.908-.491-1.778-5.672-13.431-11.22-15.82-4.467-6.933.74-5.577-5.261-4.936-10.985-.282-1.752.078-3.212 2.19-3.652z" fill="#954a3d" fill-rule="evenodd" stroke="#000" stroke-width="1.753"/>
 <path d="M19.037 98.98c1.27 2.911 2.747 2.942 6.346 0 0-2.42-4.48 1.974-6.346 0zM39.851 106.341c1.992 5.8 6.613 1.27 7.869.254.507-4.116-5.363 2.037-7.869-.254zM66.757 111.418c3.554 4.438 9.392.971 9.392-.761 0-1.9.342-2.285-2.031-2.285-.504 4.823-6.75 2.74-7.361 3.046zM94.17 111.672c3.051 1.777 12.401-.508 9.392-1.523-1-.508-9.466.275-9.391 1.523zM107.37 107.864c1.765 1.535 3.921-5.584 2.538-5.584-2.949.41-4.897 5.113-2.538 5.584zM119.807 102.534c1.946-.338 3.863-4.823 2.539-4.823-1.531 0-2.84 4.07-2.539 4.823zM130.976 96.442c2.516.022 1.184-3.3 2.284-3.3 0-1.2.508-3.174.508-5.076-1.128-1.128-3.3 1.154-3.3 2.284 0 1.73-1.882 6.084.508 6.092z" fill="#fff" fill-opacity=".8" fill-rule="evenodd"/>
</svg>
