<svg width="106.667" height="106.667" xmlns="http://www.w3.org/2000/svg"><path d="M37.469 63.311L13.053 94.048c-2.077 3.272 1.163 6.417 4.417 3.785 1.865-2.168 26.823-26.179 27.027-28.511.204-2.333-5.19-6.859-7.028-6.01z" fill="#ffdfea" fill-rule="evenodd" stroke="#000" stroke-width="1.25" stroke-linejoin="round"/><path d="M34.708 57.647c-8.371-8.949-8.31-31.131 9.381-42.536 16.887-8.94 35.65-.782 41.833 13.397 9.026 16.073-4.575 40.852-21.73 43.318-10.453.925-15.871-2.78-18.015-.006-2.145 2.774-3.16-.302-3.16 3.089 0 3.39-1.072 4.315-1.072 4.315s-2.413-.308-1.608-2.774c.804-2.466-.268-3.39-3.753-3.7-3.485-.307-12.33-4.006-7.505-4.623 4.825-.616 8.577-2.466 5.629-10.48z" fill="#ff6800" fill-rule="evenodd" stroke="#000" stroke-width="1.25" stroke-linejoin="round"/><path d="M83.46 21.924c.36 2.154.36 4.129-1.974 3.59l-2.334-.538" fill="#ff6800" fill-rule="evenodd" stroke="#000" stroke-width="1pt"/><path d="M32.738 71.87c3.801.768 7.813-3.324 10.347-5.626 4.012 1.278 22.595 6.394 27.03-10.487M40.762 74.94c-.844-5.883 2.957-6.139 2.957-6.139M32.738 67.267c4.012-3.07 7.18-2.814 7.18-2.814" fill="none" stroke="#000" stroke-width="1.25"/><path d="M33.75 51.66c-.085-38.363 47.535-21.76 36.554-34.548-14.591-9.343-45.677 4.846-36.555 34.547z" fill="#fff" fill-rule="evenodd" fill-opacity=".75"/><path d="M16.286 98.324l24.057-24.235-3.812-1.585-20.245 25.82z" fill-rule="evenodd" fill-opacity=".15"/><path d="M78.076 16.72s-.898-1.795-2.513-1.257c-1.616.538-2.513 1.077-1.616 3.23.898 2.155.898 2.513.898 2.513" fill="#ff6800" fill-rule="evenodd" stroke="#000" stroke-width="1pt"/><path d="M76.776 17.895l3.395-12.538s3.82 2.09 4.881 4.411c1.061 2.322.424 7.43 3.395 6.733 2.971-.696 6.79 3.947 7.852 6.037-2.334 2.554-7.003-1.16-14.642.464-2.547-.232-5.305-3.018-4.881-5.107z" fill="#ff6800" fill-rule="evenodd" stroke="#000" stroke-width="1.25" stroke-linejoin="round"/><path d="M85.793 12.95c-.18 5.923-4.487 8.436-7.358 8.436M82.024 6.668s1.616 5.385-.538 7.718" fill="none" stroke="#000" stroke-width="1pt" stroke-linejoin="round"/><path d="M93.69 19.412s-6.46 0-8.256 1.436" fill="none" stroke="#000" stroke-width="1pt"/><path d="M80.588 6.489c.718 2.154-.18 13.102-2.871 13.102-.718-1.256 2.333-10.948 2.871-13.102z" fill="#fff" fill-rule="evenodd" fill-opacity=".75"/></svg>