<svg xmlns="http://www.w3.org/2000/svg" width="106.667" height="106.667"><path d="M6.952 67.212s4.373 2.083 6.745 2.273l3.953.317c1.95-.967-3.745-6.319-2.638-10.209 1.108-3.89 49.078-33.597 50.415-33.35 3.069-.329 3.89 1.102 5.466 3.054 1.575 1.952 2.303 2.806 3.46 2.384 1.157-.423 4.741.988 3.606-5.281-1.136-6.27-.829-7.181-.829-7.181s7.655 3.188 7.346 4.708c-.31 1.52-1.65 2.488.656 4.078 2.306 1.589-1.034.057 1.512 2.742 2.546 2.685 7.35 3.491 6.13 4.095-1.218.605-8.76.094-11.555-.645-2.796-.74-3.095-2.261-4.017.473-.921 2.735 2.29 7.54 1.004 10.152-1.286 2.612-47.251 33.462-49.199 33.82-1.948.36-5.413-3.59-6.87-4.08-1.46-.492-2.494-.435-4.328 2.6-2.08 3.766-4.462 6.617-4.462 6.617s-.54-2.617-.11-3.893c.43-1.276.498-3.284-1.508-3.96-2.005-.675-5.332-6.465-4.777-8.714z" fill="#0086ff" fill-rule="evenodd" stroke="#000" stroke-width="1pt" stroke-linejoin="round"/><path d="M75.023 31.518l2.308 2.693M77.331 30.171s2.501 2.116 2.116 2.886M15.774 69.221s1.539 5.771 2.116 6.926c.577 1.154.577.961.577.961M17.698 69.606s.577 4.617 1.539 5.002M19.237 64.412s-2.886-2.5-.193-5.194c2.693-2.693 22.892-16.543 22.892-16.543M52.516 37.289s11.542-10.196 13.273-9.426c1.732.77 3.655 2.308 3.655 2.308M36.742 68.26S61.75 50.754 65.02 49.6c3.27-1.154 3.078-1.154 3.078-1.154M84.064 23.438s-.962 4.232-4.232 5.386M85.795 29.017s-4.04 3.27-5.386 2.116M10.195 74.608c1.924 1.73 5.387-1.347 5.387-1.347M13.658 78.647c2.693-.192 1.924-1.346 2.693-3.462" fill="none" stroke="#000" stroke-width="1pt"/></svg>