<svg xmlns="http://www.w3.org/2000/svg" width="106.667" height="106.667"><g stroke="#000" stroke-width="1pt"><path d="M75.977 34.783c1.157-.422 4.742.989 3.606-5.28-1.135-6.27-.828-7.182-.828-7.182s7.654 3.188 7.345 4.708c-.309 1.52-1.65 2.489.656 4.078 2.307 1.59-1.034.058 1.512 2.742 2.547 2.685 7.35 3.491 6.131 4.096-1.219.604-8.76.093-11.556-.646-2.796-.739-3.095-2.26-4.016.474-.922 2.734-4.007-2.568-2.85-2.99zM8.191 70.315s4.374 2.082 6.746 2.272l3.953.317c1.95-.967 5.944 5.251 4.486 4.76-1.459-.492-2.493-.434-4.328 2.601-2.08 3.765-4.462 6.617-4.462 6.617s-.539-2.618-.109-3.894c.43-1.276.497-3.283-1.508-3.959-2.005-.675-5.332-6.465-4.778-8.714z" fill="#bdff0c" fill-rule="evenodd" stroke-linejoin="round"/><path d="M18.996 72.88c1.95-.967-3.744-6.32-2.637-10.209 1.108-3.89 49.077-33.597 50.415-33.35 3.068-.329 3.89 1.102 5.466 3.054 1.575 1.951 2.302 2.805 3.46 2.383 1.157-.422 3.77.256 2.849 2.99-.921 2.735 2.29 7.54 1.003 10.152-1.285 2.612-47.25 33.462-49.198 33.82-1.948.359-5.413-3.59-6.871-4.081-1.459-.491-4.487-4.76-4.487-4.76z" fill="#ec00bb" fill-rule="evenodd" stroke-linejoin="round"/><path d="M76.37 34.595l2.308 2.694M78.678 33.249s2.5 2.116 2.116 2.885M17.12 72.3s1.54 5.77 2.117 6.924c.577 1.155.577.962.577.962M19.044 72.684s.577 4.617 1.54 5.002" fill="none"/><path d="M42.705 43.637l9.426-5.771 5.387 26.161-9.042 5.964s-4.232-25.008-5.77-26.354zM31.356 81.148l-5.002-26.354 8.657-6.156s5.194 25.393 5.194 26.547c-1.54 1.731-8.85 5.963-8.85 5.963z" fill="#44e800" fill-rule="evenodd"/><path d="M20.583 67.49s-2.885-2.5-.192-5.194c2.693-2.693 22.891-16.543 22.891-16.543" fill="none"/><path d="M64.635 59.218l-4.617-26.161s6.733-4.617 8.464-3.848c1.732.77 4.81 22.892 4.232 24.046-.577 1.154-8.079 5.963-8.079 5.963z" fill="#44e800" fill-rule="evenodd"/><path d="M53.863 40.366s11.542-10.195 13.273-9.426c1.731.77 3.655 2.309 3.655 2.309M38.089 71.337s25.007-17.505 28.277-18.66c3.27-1.153 3.078-1.153 3.078-1.153M85.41 26.516s-.961 4.232-4.231 5.386M87.142 32.095s-4.04 3.27-5.386 2.116M11.542 77.686c1.924 1.73 5.386-1.347 5.386-1.347M15.005 81.725c2.693-.192 1.923-1.346 2.693-3.462" fill="none"/></g></svg>