<svg width="106.667" height="106.667" xmlns="http://www.w3.org/2000/svg"><g fill-rule="evenodd"><path d="M47.436 60.687L16.852 93.781c-3.285 3.673-1.084 7.16 2.53 3.453 1.293-1.467 31.512-33.037 32.752-34.133 2.237-2.198-2.656-5.699-4.698-2.414z" fill="#fff" stroke="#000" stroke-width="1pt"/><path d="M16.278 98.355l1.662.02 33.09-34.03-2.234-1.407-32.518 35.417z" fill-opacity=".1"/></g><path d="M46.343 66.211c-11.36-7.53-20.496-17.643-18.123-34.2C30.916 13.198 49.02.615 67.092 3.404 87.367 6.532 100.845 26.969 97.655 47.4c-3.542 22.682-34.276 38.157-51.312 18.811z" fill="#f89935" fill-rule="evenodd"/><path d="M63.028 38.736c.433 11.457-12.09 14.477-16.066 13.162-1.93 3.6-9.708 3.033-13.02 2.804-3.27-4.663-4.942-10.208-5.461-14.859 2.762 2.43 10.727 3.817 14.116 4.89 4.898-1.493 10.646-4.222 16.639-5.214-1.959-4.572 3.823-4.381 3.792-.783z" fill="#fff" fill-rule="evenodd"/><path d="M62.226 39.19c-.518 11.594-11.818 13.118-15.793 11.802-1.93 3.6-10.525 2.08-13.836 1.852-2.183-3.71-2.766-6.399-3.966-10.914 2.763 2.43 10.728 2.865 14.116 3.938 4.898-1.493 11.326-4.63 17.32-5.622-1.959-4.572 2.19-4.654 2.16-1.056z" fill="#ff480c" fill-rule="evenodd"/><path d="M57.77 33.384c-7.889 1.224-13.602.272-17.274-1.496-5.305-1.225-8.842-4.353-10.202-7.074 1.496-3.4 4.353-7.345 7.617-11.29 3.809 2.313 3.401 5.033 7.618 8.978 4.216 3.945 12.106 6.801 15.914 8.705 1.225 1.225-1.768 4.217-3.672 2.177z" fill="#fff" fill-rule="evenodd"/><path d="M58.152 32.593c-7.889 1.224-13.874.272-17.547-1.496-5.304-1.224-8.569-4.353-9.93-7.073 1.497-3.401 2.857-5.441 6.122-9.386 3.808 2.312 4.08 4.76 8.297 8.705 4.217 3.945 11.154 6.122 14.963 8.026 1.224 1.224 0 3.264-1.905 1.224z" fill="#ff480c" fill-rule="evenodd"/><path d="M64.44 31.553c-.816-4.08-.544-10.882 1.905-16.731 1.088-2.993-.136-6.393 3.264-10.202 2.993.272 15.915 7.753 16.323 9.386.408 1.632-6.393 7.345-7.753 8.025-1.36.68-8.026 3.809-8.298 15.37 0 .545-4.488-6.256-5.44-5.848z" fill="#fff" fill-rule="evenodd"/><path d="M65.634 32.865c-.816-4.08-.816-12.242 1.632-18.091 1.088-2.993.544-6.121 3.945-9.93 2.992.272 13.466 6.665 13.874 8.298.408 1.632-6.12 7.209-7.481 7.89-1.36.68-8.162 3.944-8.434 15.506 0 .544-2.584-4.08-3.536-3.673z" fill="#ff480c" fill-rule="evenodd"/><path d="M69.576 42.72c4.897-2.448 15.643-3.672 17.547-1.904 3.4-.408 9.93-3.672 10.066-.68.408 4.761-2.993 17.003-4.489 18.363-2.04.136-5.849-5.577-8.57-3.808 0-2.313-9.657-5.985-17.274-4.761-1.633-1.088-1.497-6.393 2.72-7.21z" fill="#fff" fill-rule="evenodd"/><path d="M69.714 43.611c4.897-2.448 15.371-3.4 17.275-1.632 3.401-.408 10.202-3.265 10.338-.272.408 4.76-2.584 14.282-4.08 15.642-2.04.136-5.85-5.44-8.57-3.672 0-2.313-9.522-5.713-17.139-4.489-1.224-.952-2.04-4.76 2.176-5.577z" fill="#ff480c" fill-rule="evenodd"/><path d="M62.083 54.438c2.04.272 6.529 6.257 5.44 11.018 2.177 2.585 3.265 7.21.545 8.842-2.993.952-14.69-1.36-15.099-3.537-.408-2.176.816-2.72 1.904-3.808 2.04-2.72 1.36-7.482.68-10.474.817-2.449 3.945-3.673 6.53-2.04z" fill="#fff" fill-rule="evenodd"/><path d="M61.553 54.9c2.04.273 6.393 5.578 5.305 10.339 2.176 2.584 2.856 7.481.136 9.113-2.993.952-12.65-1.088-13.058-3.264-.408-2.177.272-2.585 1.36-3.673 2.04-2.72 2.04-7.753 1.36-10.746.816-2.448 2.313-3.4 4.897-1.768z" fill="#ff480c" fill-rule="evenodd"/><path d="M62.908 35.953c1.809 5.848-6.753 3.317-7.183 2.116-1.164-3.252 2.12-6.056 4.997-6.337 5.148-.5 8.924 4.504 8.89 9.415-.05 7.208-6.554 15.79-13.26 15.41C47.415 56.05 38.797 44 39.57 35.197c.973-11.076 12.879-22.548 23.378-21.389 12.716 1.405 26.032 18.767 24.468 31.448-1.843 14.944-20.033 23.977-34.32 22.009C36.6 64.992 25.577 48.47 27.95 31.914 30.648 13.1 48.751.517 66.823 3.306c20.276 3.13 33.753 23.566 30.563 43.997-3.542 22.682-34.276 39.504-51.12 18.041" fill="none" stroke="#000" stroke-width="1.25"/><path d="M81.767 11.566c4.061 26.905-40.359-6.346-46.958 39.85-18.022-10.66 6.345-67.01 46.958-39.85z" fill="#fff" fill-rule="evenodd" fill-opacity=".5"/></svg>