<?xml version="1.0" encoding="UTF-8"?>
<svg width="400pt" height="400pt" xmlns="http://www.w3.org/2000/svg" xmlns:xlink="http://www.w3.org/1999/xlink">
 <g fill="#ff4664" fill-rule="evenodd" stroke="#000" stroke-width="1pt">
  <path d="M31.25 190L270 206.25 273.75 395l-240-22.5-2.5-182.5zM270 205l182.5-78.75 1.25 190L275 393.75 270 205z"/>
  <path d="M32.5 190l160-75L450 126.25l-180 80L32.5 190z"/>
 </g>
 <g fill="#00f" fill-rule="evenodd" stroke="#000" stroke-width="1pt">
  <path d="M106.25 378.75L107.5 195l161.25-77.5 53.75 2.5-150 80-2.5 185-63.75-6.25z"/>
  <path d="M355 358.75L343.75 175 92.5 160l45-18.75 246.25 15L395 342.5l-40 16.25z"/>
 </g>
 <path d="M185 128.75s-1.25-7.5 7.5-11.25 23.75-1.25 28.75 5S230 135 237.5 130s17.5-17.5 23.75-16.25 17.5 5 16.25 13.75-5 32.5-12.5 31.25-22.5-5-23.75-1.25-8.75 12.5-13.75 13.75-17.5 7.5-22.5 6.25-13.75-7.5-15-21.25-5-26.25-5-27.5z" fill-rule="evenodd" font-size="12" stroke="#000" stroke-width="1pt"/>
 <g fill="#00f" fill-rule="evenodd" font-size="12" stroke="#000" stroke-width="1pt">
  <path d="m239.38 158.12s13.75 5 28.75-15c7.5-18.75 2.5-13.75 5-23.75-16.25-2.5-18.75-3.75-32.5 10-3.75 22.5-12.5 21.25-12.5 21.25s-3.75-7.5-3.75-6.25 6.25 8.75 3.75-17.5c8.75-16.25 8.75-23.75 23.75-25 21.25-1.25 15 15 26.25 15-2.5 10 6.25-8.75-6.25 23.75-13.75 7.5 11.25 7.5-32.5 17.5z"/>
  <path d="m219.38 144.38c0-5-5-17.5-17.5-21.25s-20-1.25-17.5 7.5 31.25 21.25 31.25 21.25l-8.75 3.75s-3.75 6.25-7.5-3.75c-6.25-3.75-17.5-13.75-17.5-33.75 11.25-23.75 20-12.5 28.75-12.5 23.75 3.75 20 25 18.75 32.5s-11.25 8.75-10 6.25z"/>
  <path d="m219.38 145.62s-11.25-28.75-23.75-32.5-25-5-23.75-5 17.5-7.5 17.5-7.5l5-13.75s20 7.5 26.25 18.75 13.75 23.75 13.75 30-15 12.5-15 10z"/>
  <path d="m233.12 145.62s-18.75 17.5 0-22.5 41.25-38.75 41.25-38.75-7.5 12.5-6.25 12.5 20-2.5 20-2.5-8.75 5-17.5 12.5-17.5 28.75-17.5 30-18.75 10-20 8.75z"/>
  <path d="m225.62 149.38c8.75-12.5 23.75-13.75 31.25-8.75 7.5 8.75 13.75 5 5 16.25-23.75 1.25-21.25 0-23.75 2.5s10 2.5 23.75 6.25c12.5 3.75 16.25-6.25 30-23.75-6.25-12.5-18.75-18.75-36.25-13.75s-28.75 12.5-30 21.25z"/>
  <path d="m239.38 159.38s-21.25 23.75-40 12.5 32.5-22.5 32.5-21.25-28.75-11.25-28.75-11.25-48.75-17.5-48.75 12.5 40 30 53.75 27.5 32.5-18.75 31.25-20z"/>
 </g>
</svg>
