<svg width="400pt" height="400pt" xmlns="http://www.w3.org/2000/svg"><path d="M152.5 324.375c0 1.25 93.75-300 93.75-300l96.25 296.25s-23.75 52.5-91.25 56.25c-70 0-102.5-51.25-98.75-52.5z" font-size="12" fill="#d600ff" fill-rule="evenodd" stroke="#000" stroke-width="3.75" stroke-linejoin="bevel"/><g fill="#00b2e9" stroke="#000" stroke-width="3.75" stroke-linejoin="bevel" fill-rule="evenodd"><path d="M152.5 322.5s55 5 98.75-7.5c46.25-20 68.75-63.75 67.5-63.75s-10-36.25-10-36.25-27.5 51.25-68.75 65c-31.25 6.25-76.25 8.75-75 7.5l-12.5 35zM190 362.5c8.75-6.25 88.75 10 111.25-18.75 22.5-18.75 31.25-47.5 30-52.5s1.25 0 1.25 0l11.25 30S291.25 412.5 190 362.5z"/><g><path d="M178.75 246.25s36.25-5 66.25-17.5 50-57.5 47.5-58.75l-8.75-31.25c0-1.25-13.75 42.5-43.75 55s-51.25 17.5-51.25 17.5c-1.25 0-12.5 36.25-10 35z"/><path d="M207.5 147.5c-1.25 0 16.25-1.25 41.25-13.75 13.75-7.5 22.5-31.25 22.5-31.25l-8.125-25.625c0-1.25-1.875 16.875-20.625 33.125-18.75 6.25-25 6.25-25 6.25l-10 31.25zM238.125 51.875s4.375 1.25 7.5-1.25 6.25-8.125 6.25-8.125l-6.25-18.75-7.5 28.125z" font-size="12"/></g></g><path d="M244.331 46.032s-87.841 267.214-87.103 279.762c7.381 14.763 26.574 29.526 53.886 41.337-17.717-64.22-7.382-121.795 33.217-321.099z" fill="#fff" fill-rule="evenodd" fill-opacity=".5"/></svg>