<?xml version="1.0" encoding="UTF-8"?>
<svg width="160" height="160" xmlns="http://www.w3.org/2000/svg">
 <g fill-rule="evenodd">
  <path d="m91.866 78.106c0 2.94-9.858 5.708-25.595 5.708s-24.566-2.577-24.566-5.517 8.829-5.135 24.566-5.135 25.595 2.004 25.595 4.944z" fill="#ff0" fill-opacity=".5"/>
  <path d="m88.285 137.41c0 3.88-9.02 7.03-20.135 7.03-11.114 0-20.134-3.15-20.134-7.03s9.02-7.03 20.134-7.03c11.115 0 20.135 3.15 20.135 7.03z" fill="#7573ae" fill-opacity=".149" stroke="#000" stroke-linejoin="round" stroke-width="2.5"/>
  <g fill="#7573ae" fill-opacity=".15" stroke="#000" stroke-width="1pt">
   <path d="m65.245 94.188 9.153 20.905s-12.875 12.372-17.196 13.535c-3.122-2.279-11.497-20.118-9.097-22.12s10.018-12.075 17.14-12.32z"/>
   <path d="m74.398 115.09s-15.275 14.374-16.996 13.775c-1.72-0.6 12.65 9.794 15.29 7.592s12.796-11.492 13.635-13.413-10.73-8.955-11.929-7.954z"/>
   <path d="M65.382 94.533c.521 1.6 7.653 16 8.816 20.32 1.32.119 9.253 2.937 12.216 6.977.202 2.68-3.938-12.664-4.86-17.185-3.962-.358-9.81-9.316-16.172-10.112z"/>
  </g>
  <path d="m94.57 48.242c0 4.315-12.772 7.818-28.51 7.818-15.736 0-28.509-3.503-28.509-7.818 0-4.316 12.773-7.82 28.51-7.82s28.51 3.504 28.51 7.82z" fill="#7573ae" fill-opacity=".15" stroke="#000" stroke-linejoin="round" stroke-width="2.5"/>
  <path d="M81.875 134.063L92.188 33.438c-.313-1.876.937-4.063 3.124-4.063 2.188 0 47.185-9.727 48.843-9.727 1.895-.947.586-4.148-1.572-4.29-3.58-.614-48.52 8.392-51.02 9.017s-4.688 2.188-5.626 7.188c1.25 5.312-9.062 101.562-9.062 101.562s.625 4.688 5 .938z" fill="#fff" stroke="#000" stroke-linejoin="round" stroke-width="2.5"/>
  <path d="M41.705 78.602l6.677 60.046c3.213 3.15 8.098 4.95 20.636 5.452 8.36-.68 12.964-.8 18.808-5.452.597-.907 4.167-59.88 4.167-59.88-2.09 2.719-10.602 4.855-24.633 5.082-13.605.191-25.655-2.529-25.655-5.248z" fill="#ff0" fill-opacity=".5"/>
  <path transform="matrix(.7713 0 0 .77087 -44.605 -23.821)" d="m153.47 91.761c0 22.747-19.84 41.209-44.287 41.209s-44.287-18.462-44.287-41.21c0-22.747 19.84-41.208 44.287-41.208s44.287 18.461 44.287 41.208z" fill="#ffea00" stroke="#000" stroke-linejoin="round" stroke-width="2.353"/>
  <path d="M71.245 46.914c2.406 13.995-21.95 31.815-31.81 29.358C25.003 74.307 6.42 62.382 8.827 47.16 7.384 34.394 21.875 17.557 39.435 17.557c18.04.982 29.164 9.712 31.81 29.357z" fill="#fff"/>
  <path transform="matrix(.71828 0 0 .7335 -38.646 -20.566)" d="m111.87 87.893s3.35-30.143 5.024-29.474c3.685-2.344 13.397 2.345 12.393 6.364 0.335 3.014-17.082 21.436-17.417 23.11zm-30.478-12.393 24.45 14.068-15.072-25.12c-6.699-1.34-11.053 3.015-9.378 11.053zm27.464 13.063-14.402-25.12c0-5.693 13.397-9.043 15.742-4.354 2.344 3.015-1.34 29.474-1.34 29.474zm6.028 0.335s16.747-22.44 18.757-20.766c5.024-2.01 13.397 4.69 8.708 13.063 0.335 2.01-27.464 5.359-27.464 7.703zm-1.339 3.349s24.785-7.368 29.809-6.363c3.684 1.34 3.684 18.086-3.35 17.081-3.014 0.67-25.12-10.048-26.459-10.718zm-0.67 2.68s23.445 10.717 25.12 14.067c5.359 5.359-6.029 11.387-10.383 10.718-0.67 1.674-16.746-25.79-14.737-24.785zm-2.344 1.005s13.397 25.79 12.727 27.464-9.043 7.368-15.407 2.68c-0.67-2.68 0.67-29.81 2.68-30.144zm-3.35 0s-4.019 28.803-6.363 29.473c-3.015 2.01-11.723-0.335-13.397-6.698 1.004-2.68 16.746-23.445 19.76-22.775zm-22.775 19.425c3.684-2.344 17.416-19.425 18.421-21.1s-27.464 3.35-27.129 5.024c-2.01 3.014 3.014 16.746 8.708 16.076zm-10.048-21.1c5.36-0.335 22.775-3.684 26.46-3.014 3.684 0.67-21.1-13.733-21.1-11.388-4.69 1.34-12.058 8.708-5.36 14.402z" fill="#ffdb00" stroke="#000" stroke-linejoin="round" stroke-width="2.5"/>
  <path d="M37.551 48.408L48 138.24c.298 2.662 8.956 6.987 21.494 6.322 8.359-.999 13.135-.333 18.807-6.322.597-1.33 6.053-89.308 6.053-89.308-2.09 3.992-13.516 7.128-27.547 7.46-13.434 0-29.256-3.992-29.256-7.984z" fill="#7573ae" fill-opacity=".15" stroke="#000" stroke-linejoin="round" stroke-width="2.5"/>
  <path d="M39.688 52.713c.824.206 14.188 5.418 18.018 4.075 1.563-.312 4.362 83.199 3.963 85.792a17.903 17.903 0 01-12.294-4.455l-9.688-85.412z" fill="#fff" fill-opacity=".5"/>
 </g>
</svg>
