<?xml version="1.0" encoding="UTF-8"?>
<svg width="80" height="120" version="1.0" xmlns="http://www.w3.org/2000/svg" xmlns:xlink="http://www.w3.org/1999/xlink">
 <defs>
  <radialGradient id="j" cx="196.72" cy="409" r="229.34" gradientTransform="scale(.94597 1.0571)" gradientUnits="userSpaceOnUse">
   <stop stop-color="#d9b72e" offset="0"/>
   <stop stop-color="#e4e417" offset="1"/>
  </radialGradient>
  <radialGradient id="k" cx="552.89" cy="220.7" r="95.504" gradientTransform="scale(.71981 1.3893)" gradientUnits="userSpaceOnUse" xlink:href="#c"/>
  <radialGradient id="l" cx="192.35" cy="294.8" r="28.648" gradientTransform="scale(1.063 .94074)" gradientUnits="userSpaceOnUse" xlink:href="#d"/>
  <radialGradient id="m" cx="191.82" cy="293.91" r="23.601" gradientTransform="scale(1.063 .94074)" gradientUnits="userSpaceOnUse" xlink:href="#d"/>
  <radialGradient id="n" cx="200.21" cy="191.15" r="9.218" gradientTransform="scale(1.0998 .90926)" gradientUnits="userSpaceOnUse" xlink:href="#d"/>
  <radialGradient id="o" cx="475.06" cy="172.5" r="44.299" gradientTransform="scale(.77675 1.2874)" gradientUnits="userSpaceOnUse" xlink:href="#c"/>
  <radialGradient id="p" cx="485.47" cy="289.81" r="53.756" gradientTransform="scale(.74015 1.3511)" gradientUnits="userSpaceOnUse" xlink:href="#c"/>
  <radialGradient id="q" cx="463.52" cy="231.98" r="53.756" gradientTransform="scale(.74015 1.3511)" gradientUnits="userSpaceOnUse" xlink:href="#c"/>
  <radialGradient id="r" cx="451.7" cy="171.85" r="53.756" gradientTransform="scale(.74015 1.3511)" gradientUnits="userSpaceOnUse" xlink:href="#c"/>
  <radialGradient id="s" cx="424.67" cy="299.52" r="53.756" gradientTransform="scale(.74015 1.3511)" gradientUnits="userSpaceOnUse" xlink:href="#c"/>
  <radialGradient id="t" cx="428.05" cy="145.02" r="53.756" gradientTransform="scale(.74015 1.3511)" gradientUnits="userSpaceOnUse" xlink:href="#c"/>
  <linearGradient id="g" x1="65.455" x2="23.159" y1="109.79" y2="122.83" gradientTransform="translate(4.573 1.233)" gradientUnits="userSpaceOnUse">
   <stop stop-color="#b5c5cd" stop-opacity=".579" offset="0"/>
   <stop stop-color="#b5c5cd" stop-opacity=".09" offset="1"/>
  </linearGradient>
  <linearGradient id="d">
   <stop stop-color="#fff" stop-opacity=".542" offset="0"/>
   <stop stop-color="#fff" stop-opacity="0" offset="1"/>
  </linearGradient>
  <linearGradient id="c">
   <stop stop-color="#dd6204" offset="0"/>
   <stop stop-color="#e48e17" stop-opacity="0" offset="1"/>
  </linearGradient>
  <linearGradient id="f">
   <stop stop-color="#fff" offset="0"/>
   <stop stop-color="#fff" stop-opacity="0" offset="1"/>
  </linearGradient>
  <linearGradient id="w" x1="15.026" x2="24.762" y1="81.481" y2="85.714" gradientUnits="userSpaceOnUse" xlink:href="#f"/>
  <linearGradient id="u" x1="59.683" x2="66.243" y1="77.252" y2="80.003" gradientUnits="userSpaceOnUse">
   <stop stop-color="#fff" offset="0"/>
   <stop stop-color="#fff" stop-opacity="0" offset="1"/>
  </linearGradient>
  <linearGradient id="h" x1="55.873" x2="64.974" y1="15.979" y2="19.788" gradientUnits="userSpaceOnUse" xlink:href="#f"/>
  <filter id="i" x="-.216" y="-.116" width="1.432" height="1.232">
   <feGaussianBlur stdDeviation=".991"/>
  </filter>
  <filter id="x" x="-.104" y="-.041" width="1.208" height="1.082">
   <feGaussianBlur stdDeviation="1.116"/>
  </filter>
  <filter id="v" x="-.233" y="-.202" width="1.465" height="1.404">
   <feGaussianBlur stdDeviation="1.355"/>
  </filter>
 </defs>
 <path d="M68.25 73.781l-.875.5c2.08 3.65 6.055 6.554 8.067 10.416 2.012 3.863 2.386 8.82.664 12.926l.582.19c1.865-4.449 2.355-10.462.278-14.45-2.077-3.987-6.697-6.036-8.716-9.582zM43.313 34.656l.199.553c2.27.723 3.847 1.938 5.707 2.822 15.231 7.24 17.375 26.356 18.097 34.281l.252-.23c-.732-8.028-2.355-27.548-17.943-34.957a49.977 49.977 0 00-6.313-2.469z" fill-rule="evenodd"/>
 <path d="M18.623 64.333C23.59 61.839 26.96 59.855 36 58.35c7.52-.506 14.237-.82 20.68-.584 3.815-1.399 8.981 2.573 12.059 4.061L48.971 114.45c-3.529 2.547-7.479 2.649-11.694 3.48l-5.29.14c-5.902.761-11.034-.02-15.452-2.228l-9.049-7.517c-1.54-2.506-1.903-5.012-2.366-7.518l13.503-36.473z" fill="#fff0af" fill-opacity=".37" fill-rule="evenodd"/>
 <path transform="translate(-21.031 -5.736)" d="M26.237 107.11c5.234-2.214 10.25-2.838 15.645-2.231 5.463.377 10.696 1.91 15.722 4.084 4.738 2.715 8.95 7.132 12.424 11.347l-.359-.057c-3.89 1.85-6.144 3.195-12.989 3.39-6.645 1.187-17.449-.101-22.834-4.567-4.55-2.298-6.473-8.185-7.598-11.932l-.011-.034z" fill="url(#g)"/>
 <path d="M5.206 101.374c5.234-2.214 10.25-2.838 15.645-2.23 5.463.376 10.696 1.91 15.722 4.083 4.738 2.715 8.95 7.132 12.424 11.347l-.359-.057c-3.266-4.227-7.768-7.628-12.406-10.263-4.897-2.518-10.29-3.016-15.633-3.735-5.423-1.215-10.095-.567-15.382.89l-.011-.035z"/>
 <path d="M58.403 10.864c-2.162 3.26-3.943 7.418-5.067 9.661-1.124 2.244-1.156 2.649-1.706 3.755 1.33 1.523 3.394 3.414 5.31 4.111 1.611.269 4.75.19 6.246.74.004-.003-.005-.03 0-.032.966-1.02 1.229-1.768 2.065-4.036.844-2.288 3.572-4.818 5.5-8.213 1.941-3.416 2.502-5.063 4.666-7.285.204-2.617-2.741-4.67-4.807-6.01-1.937-1.051-5.64-2.207-7.468-2.322-1.89 3.013-2.548 6.328-4.74 9.631z" fill="#a05a2c"/>
 <path d="m63.492 5.714-9.524 18.201 2.54 2.328 8.466-17.566-1.482-2.963z" fill="url(#h)" fill-rule="evenodd" filter="url(#i)"/>
 <path d="M18.623 64.333c2.47 4.397 9.236 6.408 18.376 7.1 7.52-.507 15.135-.82 21.578-3.48 3.816-1.4 7.084-3.62 10.162-6.126L48.971 114.45c-3.529 2.547-7.479 2.649-11.694 3.48l-5.29.14c-5.902.761-11.034-.02-15.452-2.228l-9.049-7.517c-1.54-2.506-1.903-5.012-2.366-7.518l13.503-36.473z" fill="#dfd6a7" fill-opacity=".37" fill-rule="evenodd"/>
 <path d="M57.414 8.87c-2.64 2.83-4.802 6.473-6.653 9.94.649.096.852.705 1.187 1.188-.99 2.54-1.506 2.11-3.968 7.125-2.496 5.081-2.735 5.806-5.723 7.857-3.294 2.26-7.825 3.107-11.34 4.799-6.703 3.225-8.254 8.943-10.844 17.187-2.59 8.245-6.833 21.332-9.625 28.625-2.791 7.294-3.832 10.391-5.875 15.532.091 4.571 3.038 9.04 6.75 11.968 3.712 2.929 7.979 5.48 14.21 5.64 6.23.163 17.66-.102 24.314-3.84 1.58-7.258 5.297-13.73 7.638-20.688 2.064-6.138 4.518-11.973 6.829-18.587 2.57-7.357 6.597-15.526 6.353-21.993-.243-6.468-4.755-11.404-6.812-14.438-2.057-3.034-.502-3.487.367-6.156.856-2.632 1.692-4.876 2.475-7.444 1.3.018 2.06.085 3.345.413 1.178-3.282 2.735-6.104 3.25-9.532.004-.012.027-.019.031-.031-.874-.835-1.462-1.564-2.399-2.403L69.871 16.9c-2.686-.511-4.443-1.61-6.878-2.8-2.207-.108-6.338-6.115-3.923-2.305l.753-2.297c-.665-.477-1.65-.57-2.409-.627z" fill="#b3b3b3" fill-opacity=".188"/>
 <path d="M57.414 8.87c-2.64 2.83-4.802 6.473-6.653 9.94.649.096.852.705 1.187 1.188-.99 2.54-1.506 2.11-3.968 7.125-2.496 5.081-2.735 5.806-5.723 7.857-3.294 2.26-7.825 3.107-11.34 4.799-6.703 3.225-8.254 8.943-10.844 17.187-2.59 8.245-6.833 21.332-9.625 28.625-2.791 7.294-3.832 10.391-5.875 15.532.091 4.571 3.038 9.04 6.75 11.968 3.712 2.929 7.979 5.48 14.21 5.64 6.23.163 17.66-.102 24.314-3.84 1.58-7.258 5.297-13.73 7.638-20.688 2.064-6.138 4.518-11.973 6.829-18.587 2.57-7.357 6.597-15.526 6.353-21.993-.243-6.468-4.755-11.404-6.812-14.438-2.057-3.034-.502-3.487.367-6.156.856-2.632 1.692-4.876 2.475-7.444 1.3.018 2.06.085 3.345.413 1.178-3.282 2.735-6.104 3.25-9.532.004-.012.027-.019.031-.031-.874-.835-1.462-1.564-2.399-2.403l-.502.505c.963.723.924 1.092 1.817 1.898.201.15.49.426.46.625-3.324-.11-6.599-1.336-9.706-2.96-3.206-1.676-3.194-2.429-5.01-4.41.732-.07 1.233-.06 1.875.215l-.035-.407c-.665-.477-1.65-.57-2.409-.627zm-.313 1.734c1.825 1.83 2.112 2.965 5.388 4.571 3.327 1.632 6.358 1.905 9.545 2.42-.886 2.782-.776 4.65-2.81 7.331-3.852-.216-7.245-.769-10.836-2.183-2.358-1.456-4.713-2.268-6.303-4.562 1.613-3.145 2.83-4.822 5.016-7.577zm-4.536 9.726c2.105.495 3.596 2.04 5.54 3.043 2.429.993 4.956 1.832 7.593 1.937-.766 2.616-1.727 5.3-2.53 7.656-.791 2.318-1.79 4.206-.363 7.297 1.45 3.137 7.06 7.248 6.69 13.54-.372 6.293-3.472 13.523-6.086 20.74-2.21 6.102-4.903 13.381-7.185 19.448-2.628 6.99-5.593 13.521-7.838 20.663-7.117 2.145-16.487 3.92-22.688 3.219-6.2-.702-9.93-2.804-13.847-5.682-3.915-2.877-5.03-6.264-5.929-10.807 1.973-5.152 2.973-8.21 5.927-15.44 2.954-7.23 6.482-20.203 9.23-28.495 2.747-8.293 3.715-13.357 10.36-16.352 6.83-3.079 7.12-3.004 10.903-5.047 3.782-2.043 5.329-5.115 6.62-8.101a115.23 115.23 0 013.603-7.619z"/>
 <path d="m77.9 81.898c0 6.426-4.981 11.454-11.12 11.224-6.137-0.23-11.119-5.632-11.119-12.057 0-6.426 4.982-11.454 11.12-11.224s11.12 5.632 11.12 12.057z" fill="#a05a2c"/>
 <path d="M66.813 69.327c-6.421-.24-11.657 5.322-11.657 12.005 0 6.684 5.173 12.035 11.594 12.276 6.42.24 11.656-5.035 11.656-11.719 0-6.684-5.173-12.322-11.594-12.562zm.065.744c5.855.22 10.784 6.035 10.784 12.202s-5.634 10.299-11.489 10.08c-5.855-.22-10.017-5.11-10.017-11.276 0-6.167 4.867-11.225 10.722-11.006zM58.403 10.864c-2.162 3.26-3.943 7.418-5.067 9.661-1.124 2.244-1.156 2.649-1.706 3.755 1.33 1.523 3.394 3.414 5.31 4.111 1.611.269 4.75.19 6.246.74.004-.003-.005-.03 0-.032.966-1.02 1.229-1.768 2.065-4.036.844-2.288 3.572-4.818 5.5-8.213 1.941-3.416 2.502-5.063 4.666-7.285.204-2.617-2.741-4.67-4.807-6.01-1.937-1.051-5.64-2.207-7.468-2.322-1.89 3.013-2.548 6.328-4.74 9.631zm11.702-6.616c1.989.665 4.283 2.559 4.449 4.627-1.032.146-5.245-.573-6.95-1.659-1.675-1.067-2.628-2.955-3.083-4.644 1.805-.197 3.595 1.01 5.584 1.676zm-2.88 3.883c1.847.719 3.873 1.579 5.828 1.864-1.184 2.802-2.515 3.628-3.832 6.51-1.306 2.857-4.136 6.117-5.089 8.117-.953 2-.935 2.592-1.487 3.66-1.5-.434-3.772-.41-5.293-.775-1.863-.6-3.06-2.082-4.555-3.337.268-1.317.572-1.01 1.518-3.045.957-2.058 3.73-7.056 5.288-9.9 1.533-2.797 2.3-5.228 3.752-8.168.886 1.542 2.303 4.152 3.87 5.074z"/>
 <path d="M48.323 56.86c-10.327-.117-22.73 2.374-30.043 7.423 4.182 7.957 16.69 7.728 24.48 7.308 9.003-1.02 19.203-2.73 25.626-9.718-5.073-5.07-13-4.928-20.063-5.013zm-.03 1.138c5.87.73 14.667-.156 19.516 3.973-6.331 6.424-16.493 7.705-25.11 8.62-7.81.23-18.828.574-24.308-6.163 7.016-4.615 19.873-6.545 29.901-6.43z" fill-rule="evenodd"/>
 <path d="m19.254 62.055-9.43 28.443c5.64 8.09 19.018 6.51 28.564 9.718l10.31-27.406c-9.849-3.5-20.518-4.946-29.444-10.755z" fill="#fffbca" fill-rule="evenodd"/>
 <path d="M19.187 61.988l-.53.719c6.844 6.477 19.052 7.211 28.722 10.39l-9.473 26.026c-9.125-3.24-19.306-1.917-27.957-9.884l-.463 1.124c5.64 8.091 19.356 6.645 28.902 9.853l10.31-27.406c-9.849-3.5-20.586-5.014-29.511-10.822z" fill-rule="evenodd"/>
 <g fill-rule="evenodd">
  <path transform="rotate(28.864 -113.44 67.764) scale(.05304)" d="m226.25 85s32.5-21.25 73.75 0c35 40 126.25 173.75 133.75 228.75-8.75 73.75-60 165-127.5 165-32.5-8.75-62.5-8.75-112.5 0-52.5-1.25-141.25-108.75-115-175 26.25-65 52.5-91.25 88.75-183.75 0-7.5 35-31.25 58.75-35z" fill="url(#j)" stroke="#000" stroke-linejoin="round" stroke-width="10"/>
  <path d="M26.097 72.672l-.053-2.376s-.18-2.144 1.36-1.37c1.104.608.43 1.145.264 1.583-.166.439-.308 2.48-.308 2.48s-.998-.247-1.263-.317z" fill="#643300" stroke="#000" stroke-linejoin="round" stroke-width=".5304"/>
  <path transform="rotate(28.864 -113.44 67.764) scale(.05304)" d="m301.25 96.25s58.75 117.5 26.25 126.25-85 42.5-57.5 71.25 61.25 17.5 66.25 55 38.75 73.75 56.25 70c20-33.125 33.263-54.483 37.031-112.34-13.594-43.594-105.16-193.91-128.28-210.16z" fill="url(#k)"/>
  <path transform="rotate(28.864 -113.44 67.764) scale(.05304)" d="m210 247.5c-43.75-13.75-48.75 38.75-7.5 53.75 38.75 5 52.5-35 7.5-53.75z" fill="url(#l)" stroke="url(#m)" stroke-width="1pt"/>
  <path transform="rotate(28.864 -113.44 67.764) scale(.05304)" d="m228.75 148.75c-17.5-6.25-58.75 20-15 45 30 12.5 62.5-26.25 15-45z" fill="url(#n)"/>
  <path d="M26.693 69.116c-.412-.076-.505 3.71.015 3.316.222-1.09.174-2.834-.015-3.316z" fill="#fff" fill-opacity=".15"/>
  <path transform="rotate(28.864 -113.44 67.764) scale(.05304)" d="m401.12 231.1s-18.91-47.637-56.73-84.854c-40.73 2.977-21.82 135.47 24.728 132.49 46.549-2.977 29.093-35.728 32.002-47.638z" fill="url(#o)"/>
  <path transform="rotate(28.864 -113.44 67.764) scale(.05304)" d="m396.46 403.04s4.384-84.416-65.598-108.06c-47.097 3.792-25.23 172.52 28.594 168.73 53.825-3.792 33.64-45.5 37.005-60.667z" fill="url(#p)"/>
  <path transform="rotate(28.864 -113.44 67.764) scale(.05304)" d="m380.21 324.92s4.384-84.416-65.598-108.06c-47.097 3.792-25.23 172.52 28.594 168.73 53.825-3.792 33.64-45.5 37.005-60.667z" fill="url(#q)"/>
  <path transform="rotate(28.864 -113.44 67.764) scale(.05304)" d="m371.46 243.67s4.384-84.416-65.598-108.06c-47.097 3.792-25.23 172.52 28.594 168.73 53.825-3.792 33.64-45.5 37.005-60.667z" fill="url(#r)"/>
  <path transform="rotate(28.864 -113.44 67.764) scale(.05304)" d="m351.46 416.17s4.384-84.416-65.598-108.06c-47.097 3.792-25.23 172.52 28.594 168.73 53.825-3.792 33.64-45.5 37.005-60.667z" fill="url(#s)"/>
  <path transform="rotate(28.864 -113.44 67.764) scale(.05304)" d="m353.96 207.42s4.385-84.416-65.597-108.06c-47.097 3.792-25.23 172.52 28.594 168.73 53.825-3.792 33.64-45.5 37.005-60.667z" fill="url(#t)"/>
  <path d="M30.64 79.264c-.04 15.042-9.318 13.335-7.832 14.76 4.793-1.144 9.62-3.858 7.832-14.76z" fill="#ac4200" fill-opacity=".175"/>
  <path d="M23.273 73.538c-7.266 5.08-9.163 5.775-9.353 6.806-1.676 3.315-.371 6.305.284 7.726 2.867.293-3.413-5.893 9.07-14.532z" fill="#fff" fill-opacity=".225"/>
 </g>
 <path d="M41.94 34.887c-4.613-.683-1.374 13.137 2.96 19.637s14.117 16.053 20.857 19.115l-.353-.958c-6.509-2.957-15.16-12.163-19.403-18.527-4.244-6.365-7.775-19.222-3.285-18.983l-.776-.284z" fill-rule="evenodd"/>
 <path d="m56.085 86.984c2.046-4.374 1.554-8.748 6.137-13.122 2.61-3.087 5.22-1.48 7.83-1.481-5.462 4.143-8.31 9.857-11.004 15.661l-2.963-1.058z" fill="url(#u)" fill-rule="evenodd" filter="url(#v)"/>
 <path d="M69.917 73.958a2.702 2.558 0 11-5.405 0 2.702 2.558 0 115.405 0z"/>
 <path d="M65.688 73.406c-5.15 3.527-8.28 8.219-9.007 12.878-.729 4.659 3.267 9.407 4.604 12.105l.798-.144c-1.219-2.46-4.34-7.148-3.645-11.589.694-4.44 2.792-9.69 7.704-13.055l-.454-.195z" fill-rule="evenodd"/>
 <path d="M27.09 44.868l-19.894 56.93 1.905 5.715L33.016 42.54c-2.794.296-3.696.342-5.926 2.328z" fill="url(#w)" fill-rule="evenodd" filter="url(#x)"/>
</svg>
