<svg width="400pt" height="400pt" xmlns="http://www.w3.org/2000/svg"><path d="M19.723 420.497s65.258-34.09 117.855-85.712c17.532-23.376 57.466-81.817 57.466-81.817l65.259 33.116S213.55 363.03 159.006 411.73C131.734 437.055 51.865 472.12 51.865 472.12s24.35-45.78 24.35-49.675c0-3.896-48.7-2.922-56.492-1.948zM267.12 288.032c0 .974 67.207-30.194 66.233-30.194-.974 0 37.987 80.843 62.337 110.063 28.246 33.116 41.882 42.856 58.44 53.57 12.662 5.845 24.35 11.689 24.35 11.689s-48.7 5.844-50.648 2.922c-1.948-2.922-5.844 11.688-.974 27.272 4.87 9.74 1.948 15.584 10.714 28.246-.974.974-77.921-52.596-110.062-102.27-37.013-56.493-59.415-101.298-60.39-101.298z" font-size="12" fill="#7d0000" fill-rule="evenodd" stroke="#000" stroke-width="3.75"/><path d="M434.65 166.281a167.042 159.737 0 10-334.085 0 167.042 159.737 0 10334.084 0H267.607z" font-size="12" fill="none" stroke="#000" stroke-width="6.25"/><path d="M432.7 167.256a164.607 157.79 0 10-329.213 0 164.607 157.79 0 10329.213 0H268.094z" font-size="12" fill="#7d0000" fill-rule="evenodd"/><path transform="matrix(.95046 0 0 .92423 37.144 51.646)" font-size="12" fill="none" stroke="#000" stroke-width="3.94" d="M399.343 188.318l-42.032 22.78-10.989 46.528-47.791-1.288-32.781 34.8-40.744-25.011-45.789 13.747-22.78-42.032-46.528-10.989 1.288-47.79-34.8-32.781 25.011-40.744-13.747-45.79 42.032-22.779 10.989-46.528 47.79 1.288 32.781-34.8 40.744 25.01 45.789-13.747 22.78 42.032 46.528 10.99-1.288 47.79 34.8 32.781-25.011 40.744 13.748 45.789z"/><path d="M152.616 528.128a107.628 106.167 0 1117.618 1.07" transform="matrix(1.181 0 0 1.18349 72.103 -335.37)" font-size="12" fill="#7d0000" fill-rule="evenodd" stroke="#000" stroke-width="3.75"/></svg>