<svg width="213.333" height="213.333" xmlns="http://www.w3.org/2000/svg" xmlns:xlink="http://www.w3.org/1999/xlink"><defs><linearGradient id="b"><stop offset="0" stop-color="#686868"/><stop offset="1" stop-color="#969696"/></linearGradient><linearGradient id="a"><stop offset="0" stop-color="#613402"/><stop offset="1" stop-color="#836459"/></linearGradient><linearGradient xlink:href="#a" id="g" x1=".914" y1="1" x2=".071" y2=".059"/><linearGradient xlink:href="#a" x1=".625" y1=".5" x2=".518" y2=".367"/><linearGradient xlink:href="#b" id="e" gradientTransform="scale(1.70196 .58756)" x1="79.637" y1="214.701" x2="36.795" y2="137.547" gradientUnits="userSpaceOnUse"/><linearGradient xlink:href="#b" id="d" gradientTransform="scale(.98134 1.01902)" x1="61.627" y1="113.855" x2="53.88" y2="106" gradientUnits="userSpaceOnUse"/><linearGradient xlink:href="#b" id="c" gradientTransform="scale(.86841 1.15153)" x1="153.266" y1="104.037" x2="142.762" y2="93.793" gradientUnits="userSpaceOnUse"/><linearGradient xlink:href="#b" id="f" gradientTransform="scale(1.86132 .53725)" x1="93.122" y1="168" x2="44.997" y2="101.823" gradientUnits="userSpaceOnUse"/><linearGradient xlink:href="#a" id="h" gradientTransform="scale(3.51467 .28452)" x1="27.52" y1="361.886" x2="28.999" y2="345.189" gradientUnits="userSpaceOnUse"/><linearGradient xlink:href="#a" id="i" gradientTransform="scale(.65582 1.5248)" x1="248.816" y1="66.743" x2="230.883" y2="53.47" gradientUnits="userSpaceOnUse"/></defs><metadata/><g fill-rule="evenodd"><path d="M128.362 104.506l-6.698.638c4.146 2.87 6.502 14.82 5.226 16.415 0 .319 6.306-.123 7.263.834 2.233-1.914.908-16.611-5.79-17.887z" fill="url(#c)"/><path d="M55.183 103.668h6.38c-4.147 2.871-7.018 11.802-5.742 13.397 0 .32-5.741.32-6.38 0-2.232-1.913-.956-12.12 5.742-13.397z" fill="url(#d)"/><path d="M31.579 73.365C14.673 75.28 7.337 82.935 7.337 96.332c-.32 9.57 1.913 23.923 18.82 25.2 17.543 1.275 150.558 9.25 150.239 10.206l-4.466-8.612-138.437-7.018c-14.992-1.275-17.225-8.931-17.544-16.905.319-7.975.319-16.268 14.673-18.501.319-.957.957-7.337.957-7.337z" fill="url(#e)"/><path d="M55.197 47.368c-14.354 1.914-20.734 6.38-20.734 17.863-.319 7.018 1.595 15.63 14.354 16.587 17.544 1.276 138.437 8.613 138.118 9.57l-3.508-6.699L57.11 76.396C46.903 75.758 41.16 74.8 40.843 65.23c0-7.017.957-10.845 14.035-13.078.319-.957.319-4.785.319-4.785z" fill="url(#f)"/><path d="M55.344 46.719c-7.748 1.013-18.07 2.84-21.353 10.98-2 6.544-2.969 14.853 1.881 20.292 6.082 6.032 16.617 4.338 24.38 5.341 41.365 2.776 83.091 5.643 124.409 9.068 2.31 1.313 3.056.23 1.712-2.412-1.007-1.935-1.393-3.86-2.391-5.8a62275.012 62275.012 0 01-132.04-9.02c-5.424-.005-10.633-2.858-10.292-9.04-1.562-6.722 3.181-12.027 9.552-12.621 5.25.77 3.951-3.373 4.142-6.788zm-1.25 1.5c2.805 6.815-10.357 3.187-12.748 9.233-2.396 4.818-2.48 11.613 1.19 15.864 5.437 4.46 12.918 3.39 19.501 4.136l120.526 7.923c.833 1.708 1.416 3.65 2.018 5.219-38.36-3.26-76.173-5.315-114.582-7.889-8.58-.766-17.275-.668-25.771-2.1-6.419-1.21-10.079-7.79-9.664-13.958-.419-5.893 1.698-12.546 7.484-15.104 3.744-1.898 7.93-2.705 12.046-3.324zm-22.282 24.5c-9.579.822-20.72 4.51-24.125 14.493-2.454 8.475-2.226 18.283 2.1 26.137 4.046 7.227 12.77 9.22 20.427 9.184 47.798 3.169 95.642 5.732 143.393 9.567 2.131.793 2.898-.113 2.504-1.264-1.421-2.748-1.578-5.49-2.991-8.242-12.186-.65-25.333-1.246-37.52-1.875 1.265-5.441.498-11.981-3.828-15.662-2.857-2.105-7.72-.351-10.935-.434-3.209.094 4.545 3.901 3.648 6.617.754 2.68 4.332 9.6-.893 8.273-22.583-1.144-44.527-1.969-67.11-3.113-.243-5.27 2.71-9.51 7.218-12.318-3.235.203-7.23-1.394-10.381-.597-6.006 1.402-5.357 10.215-6.468 12.779-7.839-.727-16.4-.382-23.75-3.727-7.147-3.304-6.692-11.539-5.727-18.42.152-5.822 5.158-10.223 10.875-11.31 6.393.7 2.437-6.083 3.564-10.088zm-1.406 1.469c1.538 6.894-1.526 7.308-6.445 7.593-6.11 1.965-9.076 8.423-8.984 14.466-.807 7.1 1.368 15.711 8.757 18.457 7.732 3.024 16.178 2.144 24.297 2.88 4.71-.69.148.821.855-6.334.551-4.516 4.726-7.68 9.136-6.875 3.995-.366-3.61 4.812-2.808 7.409-.848 2.564-.264 5.983-3.254 5.46 1.225.236 5.83.208 7.236.78 38.033 1.93 73.833 3.858 111.867 5.757l3.718 7.188c-38.15-3.21-76.391-5.911-114.594-8.42-12.688-.956-25.452-1.562-38.083-3.05-8.351-1.317-12.796-8.364-13.397-16.39-1.011-8.473-1.22-18.798 6.645-23.921 4.433-3.035 9.798-4.311 15.054-5zm97.375 31.03c5.414 1.868 6.158 8.65 6.022 13.749.725 3.819-4.738 1.084-6.272 1.332 1.1-4.876-4.137-12.254-3.948-14.673l4.198-.407z"/><g><path d="M68.58 66.029l-26.197 30.58 107.856 1.235 15.95-31.496-97.608-.32z" fill="url(#g)"/><path d="M42.327 96.234v7.434l107.593 1.276V97.29L42.327 96.234z" fill="url(#h)"/><path d="M149.504 97.566L166.09 66.07l.097 7.933-16.324 30.859-.36-7.296z" fill="url(#i)"/><path d="M68.362 64.941c-1.079 1.26-3.717 3.316-4.812 4.594-1.095 1.278.918.49-.188 1.781-1.105 1.292-3.655 3.491-5.156 4.532.183.263-.283 1.305-.75 2.218-1.114 1.302-4.303 4.153-5.156 4.157.053-.126-.024 1.691-.094 1.687-1.106 1.291-5.441 5.558-5.5 5.281.23-.138.338 1.208.313 1-.933 1.347-4.586 5.027-5.125 5.657.091-.142-.125 2.593-.157 2.468v5.47c36.28.482 71.97 1.037 108.25 1.468.035-.021 3.303-4.81 3.664-5.458.18-.324.687-2.032.725-2.105-.068.032 2.87-4.613 2.86-4.706-.122.128.915-2.372.762-2.486-.05-.008 2.394-2.89 3.293-4.58-.048.206.149-1.867.239-1.94-.121.032 2.176-3.197 3.066-4.882.049-.106.48-2.035.519-1.93-.066-1.158 1.16-2.385 1.747-3.507.061-2.553-.364-6.026-.093-8.531-1.427.086-66.484-.087-98.407-.188zm.563 1.25l96.375.313c-.769 1.533-.984 3.264-1.826 4.875l-98.393-1.125c1.198-1.396 2.647-2.666 3.844-4.063zm96.594 1.313c.023 2.016.179 4.064 0 6.031-.451.853-.893 1.71-1.344 2.563l-.263-3.989c.785-1.51.902-3.2 1.607-4.605zm-100 3.875l96.562 1.25c-.873 1.66-1.303 3.596-2.204 5.284l-99.796-1.44 5.438-5.094zm97.03 1.875l1.086 4.986c-.864 1.636-1.939 2.535-2.804 4.17-.06-.545-.475-3.537-.57-3.755-.006-.012 1.458-3.796 2.289-5.401zM59.676 77.723l99.094 1.187c-1.138 2.128-1.617 4.015-2.755 6.145L54.33 83.19c1.563-1.823 3.78-3.646 5.344-5.468zm99.469 2.062c.081.407 1.435 4.862 1.435 4.862s-2.532 3.001-3.53 4.888l-.394-3.81s1.413-3.881 2.489-5.94zm-104.97 4.25l100.782 2.125c-1.11 2.081-1.607 4.28-2.692 6.336L48.424 89.91c1.532-1.791 4.217-4.085 5.75-5.875zm101.282 2.813l.952 5.017s-2.148 2.984-3.14 4.858l-.578-3.224c1.168-2.26 1.378-3.949 2.766-6.651zM48.27 91.16l102.906 2.188c-.662 1.264-1.413 2.629-2 3.812L43.456 95.88c1.385-1.615 3.43-3.102 4.813-4.719zm103.343 3.094l1.078 4.546s-1.92 2.632-2.734 4.173l-.312-4.938c.017.032 1.375-2.644 1.968-3.781zM42.894 96.973l106.312 1.406.156 5.469-106.375-1.282c.022-2.041-.167-3.604-.093-5.593z"/></g></g></svg>