<svg xmlns="http://www.w3.org/2000/svg" width="128" height="128"><metadata/><path d="M102.096 6.503c-1.376-.331-2.267.571-3.39 1.12-1.206.72-2.084-.689-3.178-.74-1.525-.3-2.473.933-3.45 1.874-.581.617-2.078 1.76-1.824 2.294l1.355.07c.912-1.431 2.302-2.459 3.483-3.652 1.225.875 2.917.726 4.345.574.696-.157 1.44-.702.985.392.158.863-1.383.342-1.817 1.175-2.181 1.92-2.732 4.917-3.843 7.475-.44 1.085-1.025 2.104-1.477 3.184l1.558.062c.869-1.87 1.714-3.75 2.352-5.715.716-1.88 1.466-3.992 3.269-5.096-1.314 2.108-2.29 4.4-2.987 6.782-.381 1.538-1.631 2.638-2.142 4.11.036.504.919.135 1.338.244.49-.382.725-1.638 1.347-2.236 1.263-1.944 1.47-4.347 2.594-6.366.649-1.16 1.1-2.794 2.762-2.233 1.357-.204 2.636-.872 4.055-.815 1.28-.003 2.577.107 3.77-.469.823-.344-.365 1.624-.397 2.207-1.278 4.04-2.274 8.168-3.735 12.148-.561 1.72-1.096 3.504-2.119 5.014-1.111 1.432-2.042 3.108-3.705 3.98-2.133 1.351-4.417 2.693-6.994 2.884.642-.946-.39-.683-.978-.733-.768-.194-.343 1.229-1.34.726-1.31-.366-2.942 1.277-3.554-.47-.83-1.467-1.75-2.89-2.526-4.382-.383-1.96.179-3.923.567-5.835.374-1.452.58-2.943.964-4.39.788-2.682 1.81-5.509 4.117-7.266.662-.537 1.882-1.241.426-1.133-1.007-.318-1.548.858-2.328 1.289-2.288 1.977-3.155 4.985-3.967 7.782-.316 1.902-.815 3.764-1.184 5.656-.293 1.281-.38 2.64-.156 3.936a199.564 199.564 0 002.74 4.761c.613.594 1.144 1.34.878 1.484-.67.819-1.547 2.076-2.1 3.197-1.08 1.83-2.29 3.589-3.1 5.564-1.02 2.351-2.813 4.245-4.016 6.496-.725 1.354-1.394 2.741-2.253 4.019-.535-2.41-.965-5.065-2.888-6.815-1.693-1.542-3.753-2.633-5.811-3.61.431-1.013 1.09-2.34 1.549-3.498.608-1.362.586-2.902.693-4.365.154-1.294-.588-3.088 1.19-3.359 1.166-.663 3.158-1.876 2.39-3.462-1.411-.542-1.087-1.92-1.15-3.186-.208-1.614-.526-3.22-.425-4.858-.211-1.195 1.646-.377 2.427-.628.938.154 2.636-.681 2.901-.58-.49.984-1.052 2.084-2.297 2.2-.62-.035-1.23.148-1.844.212 1.589.09 3.464.465 4.755-.72.578-1.04 1.269-2.01 1.935-2.991.41-1.47-.775-2.904-1.983-3.583-1.293-.438-2.683-.071-4.017-.14-1.327-.19-3.366 1.575-3.603-.502-.761-1.436-2.175-2.369-3.7-2.827-1.431-.552-2.875-1.106-4.41-1.27-1.278-.265-2.57-.194-3.863-.177-1.726-.174-3.412.382-5.129.466-.524.15-2.989.291-1.354.288 1.507.01-.878.027-1.321.007-1.748-.038-3.475.304-5.224.201-2.018.055-4.124-.218-6.054.499-1.37.819-2.656 2.118-2.96 3.739-.226 1.706-.349 3.418-.528 5.128.032 1.588-.107 3.203-.594 4.718-.676.973-1.033 2.348-2.056 2.972-1.895.453-1.417 2.823.051 3.477.738.9 3.05.88 1.935 2.307-.614 1.507-.814 3.127-.729 4.745-.044 1.218.474 2.34.836 3.473-1.778 1.037-3.434 2.295-5.375 3.026-.531.405-2.078.71-1.884 1.417 1.52.1 3.038-.133 4.548-.28 1.548-.33 3.13-.497 4.668-.891 1.606 2.02 4.178 2.816 6.53 3.603 2.865.71 5.724 1.753 8.719 1.603 1.921-.046 3.853.078 5.767-.088 3.168-.646 5.82-2.694 8.176-4.805.61-.819 1.102-1.534 2.029-.636 2.292 1.267 4.734 2.82 5.588 5.45.656 1.883.953 3.864 1.453 5.79-.973 2.194-2.209 4.249-3.464 6.287-1.038 1.96-1.858 4.027-2.593 6.114-.257.068.756.053 1.016.083a5.651 5.651 0 002.389-.467c1.357-.799 2.413-2.005 3.493-3.13-.044 2.702-.645 5.452-1.958 7.829-1.415 2.151-3.646 3.513-5.52 5.215-1.154.817-2.352 1.824-3.573 2.38-4.63 1.274-9.39 2.21-14.198 2.366-3.085-.089-6.442-.011-9.142-1.732-2.306-1.519-3.755-3.916-5.464-6.014-1.908-2.327-4.23-4.385-5.53-7.15-.699-1.276-1.274-2.669-1.145-4.153.058-2.665-.184-5.414.605-7.995 1.354-3.188 3.859-5.788 6.826-7.532.59-.483 2.017-.985 2.268-1.035-.812-.105-1.664-.419-2.418.1-3.242 1.669-6.152 4.173-7.794 7.48-1.167 2.137-.947 4.67-1.013 7.025.05 1.738-.271 3.597.644 5.18.872 1.973 2.057 3.795 3.56 5.345.616.822 1.94 2.012 2.14 2.62-.646-.023-1.352-.339-1.9.157-2.006 1.082-3.644 2.716-4.95 4.567-2.083 2.71-3.474 5.882-4.369 9.166-.69 2.342-.954 4.791-1.093 7.221-.078 2.333.089 4.767 1.18 6.876 1 2.283 1.5 4.79 2.855 6.913l1.551-.087c-1.592-2.437-2.05-5.378-3.341-7.96-.802-2.203-.783-4.612-.647-6.925.223-2.635.68-5.258 1.584-7.75 1.103-3.588 3.138-6.844 5.678-9.587a13.09 13.09 0 013.637-2.532c1.815 2.123 3.27 4.618 5.63 6.21 2.72 1.797 6.147 1.716 9.281 1.803 5.721.184 11.403-.897 16.908-2.363.57-.202 2.19-.652 2.01-.851-.939-.056 1.057-.854 1.271-1.22 1.364-1.092 2.688-2.238 4.033-3.35 1.31-1.182 2.366-2.64 2.876-4.343.846-2.364 1.17-4.888 1.056-7.39-.182-1.245.979-2.092 1.458-3.147.987-1.93 2.085-3.804 3.377-5.55 1.193-1.935 2.401-3.864 3.532-5.836 1.714-3.263 3.876-6.264 5.564-9.543 1.187-1.618 1.922-3.505 2.384-5.447.556-.704 2.094-.123 3.025-.58 2.411-.626 4.548-1.97 6.58-3.364 1.247-.99 1.998-2.444 2.984-3.671 1.345-2.233 1.833-4.841 2.777-7.248 1.264-3.903 2.231-7.9 3.59-11.772.338-.89.584-1.706-.593-1.453-.977-.433-.436 1.18-1.282.875-.536-.042-1.068-.183-1.515.196-1.198.552-2.514.244-3.78.424-1.258-.204-2.505.894-3.635.494.403-.408-.769-.266-.196-1.071.062-.556.355-1.157.065-1.695zm-6.2.642c.291.035-.696.02 0 0zm.13 1.552c-1.578 2.304-2.251 5.122-4.01 7.32-.76 1.214-1.012 2.668-1.093 4.077l1.546.007c-.01-1.755.567-3.496 1.691-4.852 1.316-2.059 1.947-4.496 3.437-6.445l-1.57-.106zm9.772.66c-.702.36-1.018 1.285-1.915.941-.973-.17-1.382 1.16-2.013 1.707-1.74 2.123-1.701 5.001-2.597 7.485.45.348-.86 1.716-.98 2.473-.646.888.045 1.11.813.956.932.197.512-1.288 1.106-1.816 1.842-3.643 3.587-7.38 6.04-10.663.374-.603 1.676-1.001.382-.983l-.836-.1zm-2.83.194c.605-.023.887.13 0 0zm5.023.542c-1.754 2.774-1.96 6.186-3.346 9.126-.384.945-1.283 2.311-1.373 3.015l1.41.079c1.183-2.134 2.18-4.382 2.75-6.762.583-1.823.956-3.792 2.13-5.352l-1.57-.106zm-3.982 1.259c-.619.861-1.74 3.075-1.907 3.143.367-1.193 1.09-2.218 1.907-3.143zm-45.234.174c1.813.125 3.65.378 5.338 1.093 1.619.56 3.399 1.14 4.36 2.678.596.822 1.092 1.965-.392 1.755-1.497.147-2.812.957-4.29 1.192.792.074 1.596.38 2.361.005 1.211-.358 2.373-.907 3.652-1.009 1.485-.137 2.962-.354 4.398-.777 1.444-.5 2.997.046 3.747 1.388.56.566.629 2.882-.108 1.323-1.558-1.03-3.53-.746-5.289-.627-1.566.397-3.042 1.224-4.7 1.23-1.312.103 1.516.065-.087.075-.87-.072-1.722.112-2.578.242 1.634.004 3.268.085 4.892-.156.613 1.926.117 3.976.603 5.924.09.937.403 2.417.083 3.035-2.627-.85-5.186-1.927-7.903-2.477-2.67-.589-5.383-1.116-8.131-.985-3.723.059-7.457-.142-11.172.156-2.838.317-5.296 1.9-7.966 2.785.668-1.142 1.452-2.292 1.481-3.667.335-1.547.107-3.14.386-4.694.098-1.284.201-2.576.429-3.845.478-1.385 1.595-2.54 2.87-3.23 2.349-.702 4.835-.332 7.248-.424 1.514-.03 3.02-.297 4.542-.244 1.9-.198 3.794-.456 5.685-.723.18-.015.36-.019.54-.023zm-7.01.791c-.621 0-1.265.022-.292.008.355-.005 1.107-.01.291-.008zm22.688 6.413c.79.093 2.768.522 1.987 1.634-.97.83-2.336 1.024-3.572 1.106-.938.4-1.058-.2-1.107-1.073-.717-1.32 1.42-1.187 2.217-1.615.158-.024.316-.04.475-.052zm-2.193 2.717c.26.009 1.57-.004.27 0h-.27zm-23.263 4.225c2.488.056 4.986-.104 7.466.105a46.84 46.84 0 0111.43 2.867c1.436.528 3.08.815 4.19 1.94.455 1.279-1.003 2.21-1.945 2.79-.287-.592-.165-2.341-1.035-3.1-.75-.876-1.79-1.563-2.862-1.94l-1.478.173c1.692.685 3.495 1.948 3.637 3.934-.1.857.43 2.018-.373 2.615.775-.26.275 1.761.385 2.568-.123 1.515-.183 3.087-.931 4.452-.851 2.028-1.754 4.174-3.609 5.495-2.18 1.806-4.64 3.54-7.508 3.954-2.174.003-4.401.233-6.528-.345-2.031-.47-4.062-.973-6.046-1.615-1.971-.76-4.094-1.562-5.361-3.36 2.1-.626 4.187-1.361 6.383-1.55a65.224 65.224 0 003.41-.794c1.107-.576 2.335-1.517 2.234-2.91 0-1.241-.193-2.61-1.041-3.577-.43-.356-1.261-.308-.603-.508-.724-.04-1.482-.386-2.154.048-1.609.617-3.321 1.156-4.582 2.392-1.477 1.062-3.074 1.953-4.668 2.82-1.379 1.198-1.419-1.298-1.517-2.275-.07-1.536.073-3.081.665-4.516.751-2.024 1.982-3.949 3.704-5.276.718-.471 2.086-.847.595-.852-.948-.274-1.769.47-2.5.971-1.017.929-1.853 2.04-2.525 3.24-1.109-.648-3.063-1.724-2.279-3.262 1.099-.894 2.562-1.147 3.843-1.706 2.796-.996 5.444-2.648 8.495-2.704 1.035-.06 2.072-.07 3.108-.074zm4.487 6.406c-.46.191-.796.518-1.365.41-.183.959 2.14 1.017.68 1.135-.399.067-2.076-.053-1.945.318.856.999 1.781 2.183 3.151 2.091.872.749.915-1.069 1.895-.577 1.757.3.535-1.623.643-2.56-.607-1.278-2.199.027-3.059-.817zm2.337.517c.576.017-.366.05 0 0zm-15.81.174c-.898.988-.618 2.357.054 3.377.462.714 2.322.91 2.121-.443-.185-1.19 2.328-.036 1.59-1.226-.793.1-.912-.024-.878-.28-.634-.415-.696-1.46-1.659-.81.76-.695-.248-.49-.757-.58l-.47-.038zm12.975 1.022c.416-.008-.202.026 0 0zm-11.99.306c.849.773-.233 1.04 0 0zm11.734.043c.486.282.413.679 0 0zm41.508.655c.82-.073-.034.198 0 0zm-50.656.118h.237-.237zm49.011.13c-.483 1.941-1.13 3.87-2.34 5.489-1.81 3.484-4.108 6.687-5.904 10.179a264.254 264.254 0 01-3.379 5.521c-1.314 1.76-2.347 3.699-3.398 5.62-1.28 1.89-2.255 4.036-3.987 5.577-.667.633-1.909 1.951-2.409 1.774.716-2.113 1.603-4.187 2.735-6.111 1.558-2.28 2.64-4.829 3.905-7.268 1.393-2.082 2.311-4.436 3.766-6.48 1.07-1.544 2.207-3.06 2.896-4.823.981-2.277 2.505-4.252 3.65-6.442.606-.774 1.123-2.06 2.253-2.05-.77-.412 1.221-.97 1.939-.97l.073-.01.2-.006zm-37.433.163c.378-.097-.094.132 0 0zm-7.64 2.143c1.01.448 1.168 1.74 1.326 2.712.232 1.155-.12 2.437-1.208 3.038-1.036.85-2.438.801-3.66 1.207-1.662.253-3.332.483-4.924 1.056-2.05.585-4.07 1.309-6.202 1.552-1.042.148-2.064.455-3.122.474 1.662-1.008 3.553-1.583 5.122-2.758 1.614-1.055 3.312-1.962 5.028-2.832 1.592-.95 3.23-1.846 4.643-3.057.915-.622 1.985-.966 2.998-1.392zm-1.258 19.038c-1.617-.25-3.008 1.128-3.267 2.65-.28 1.17-.014 2.35.633 3.348.167 1.195 1.223 2.004 2.423 1.828a5.96 5.96 0 003.57-1.092c1.068-.716 1.67-2.028 1.982-3.244.363-1.581-1.032-3.072-2.574-3.172-.66-.217-1.342.07-2.013.112 1.104.154 2.357.488 2.866 1.6.624 1.452-.368 2.918-1.159 4.077-.838.465-1.963 1.662-2.92 1.066-.556-.966-1.122-2.036-1.34-3.139-.127-1.527.577-3.31 2.179-3.735.682.148 1.362-.097 2.044-.156-.8-.133-1.615-.148-2.424-.143zm-.71 14.52c-.674-.016-2.67.107-2.61.236.452.06.904.134 1.357.187-1.212.301-3.082 1.049-2.523 2.642.323 1.614 1.381 3.365 3.188 3.491 1.285 0 2.695.365 3.893-.24 1.367-.81.958-2.596.827-3.901.25-1.27-.85-2.252-2.06-2.28-.684-.12-1.38-.145-2.073-.136zm.068.298c1.232-.011 2.834.627 2.502 2.134.11 1.23.549 2.928-.75 3.693-1.408.645-3.108-.427-3.594-1.803-.778-1.2-.72-3.006.95-3.33.737-.365 1.878-.34.562-.484-.447-.069-1.175-.151-.156-.16.162-.018.324-.03.486-.05zm30.92 5.048l-1.563.15c3.525 2.359 7.71 3.978 10.326 7.478 1.508 1.862 2.806 3.942 3.36 6.3 1.353 4.41 2.339 8.937 2.836 13.524.165 3.028.203 6.126-.61 9.07-.286 1.71-2.095 2.08-3.407 2.735-1.253.728-2.364 1.76-3.824 2.076-1.995.536-3.433 2.277-5.515 2.603-2.03.32-4.07.589-6.063 1.105-2.176.405-4.357.776-6.52 1.246-1.208.17-2.166.196-3.175.197-3.105-.015-6.14-.831-9.028-1.913-4.26-1.071-8.65-1.507-12.98-2.2-3.779-.617-7.711-1.029-11.101-2.96-1.596-.826-2.464-2.551-3.047-4.17-.086-.545-.94-.13-1.382-.229-.528.606.759 2.118 1.179 2.964 1.188 1.786 3.413 2.4 5.315 3.117 3.096.934 6.336 1.234 9.515 1.767 3.748.587 7.546.986 11.215 1.977 3.139 1.2 6.472 1.976 9.849 1.894 2.526.064 5.072-.047 7.519-.734 2.296-.361 4.571-.839 6.842-1.324 2.086-.335 4.338-.414 6.097-1.739 1.115-.852 2.436-1.31 3.76-1.725 1.373-.65 2.466-1.791 3.943-2.25.81-.393 1.54-.178 1.922-1.16.259-.644.778-2.16.85-3.318.375-2.661.347-5.379.063-8.047-.743-4.845-1.8-9.651-3.306-14.318-1.02-2.498-2.732-4.683-4.644-6.566-2.539-2.229-5.68-3.614-8.425-5.55zm-31.96 12.27c-.486.374-1.833.312-.979.438-1.258.64-3.037 1.148-3.215 2.79.188 1.415 1.288 2.56 1.574 3.976.403 1.418 1.555 2.799 3.14 2.783 1.388.214 2.54-.696 3.451-1.624.995-1.003 1.222-2.515 1.284-3.87-.05-1.412-.608-3.017-2.064-3.524-.845-.408-1.443-.787-2.136-.844l-1.056-.125zm.566.617c1.058.53 2.429.938 2.792 2.212.603 1.584.318 3.412-.475 4.868-.715.653-1.889 2.516-2.85 1.285-1.216-1.15-1.264-2.97-2.15-4.336-.874-1.005-.482-2.559.735-3.082.627-.36 1.295-.642 1.948-.947zm-.716 16.438c-1.001-.096-1.972.249-2.835.51-1.297.669-1.86 2.108-1.68 3.508.09 1.737 1.887 2.67 3.439 2.776 1.16.226 2.31-.23 3.14-1.037 1.011-.862 1.926-1.84 2.797-2.837.791-1.113-.334-2.391-1.443-2.652-1.1-.37-2.28-.22-3.418-.268zm.592.268c1.14.04 2.744.434 2.965 1.748-.205 1.36-1.637 2.114-2.464 3.118-.737.574-1.594 1.663-2.565.915-1.343-.51-1.718-2.123-1.406-3.401.092-.757.652-1.636 1.5-1.351a2.176 2.176 0 011.97-1.029zm19.006 16.9c.408.01-.527.024 0 0z" fill="#280b0b"/></svg>