<svg width="213.333" height="213.333" xmlns="http://www.w3.org/2000/svg" xmlns:xlink="http://www.w3.org/1999/xlink"><defs><linearGradient xlink:href="#d" id="n" x1=".116" y1=".114" x2="1.041" y2=".578"/><linearGradient id="d"><stop offset="0" stop-color="#fff"/><stop offset="1" stop-color="#fff" stop-opacity="0"/></linearGradient><linearGradient id="c"><stop offset="0" stop-color="#d5894f"/><stop offset="1" stop-color="#ea1f00"/></linearGradient><linearGradient id="b"><stop offset="0" stop-color="#d5cb4f"/><stop offset="1" stop-color="#cda81f"/></linearGradient><linearGradient id="a"><stop offset="0" stop-color="#c57e4f"/><stop offset="1" stop-color="#91371a"/></linearGradient><linearGradient xlink:href="#a" id="k" x1=".395" y1=".406" x2=".742" y2=".719"/><linearGradient xlink:href="#b" id="l" x1=".395" y1=".172" x2=".919" y2=".898"/><linearGradient xlink:href="#c" id="s" x1=".451" y1=".469" x2=".853" y2=".93"/><linearGradient xlink:href="#d" id="r" x1=".047" y1=".508" x2="1.105" y2=".422"/><linearGradient id="e"><stop offset="0"/><stop offset="1" stop-color="#66696c"/></linearGradient><linearGradient xlink:href="#d" id="p" x1=".116" y1=".191" x2="1.022" y2=".555"/><linearGradient xlink:href="#d" id="f" x1=".305" y1="-.063" x2=".811" y2=".469"/><linearGradient xlink:href="#d" id="g" x1=".093" y1="-.078" x2=".543" y2=".492"/><linearGradient xlink:href="#d" id="h" x1=".092" y1="-.656" x2=".507" y2=".727"/><linearGradient xlink:href="#d" id="i" x1=".306" y1="-.375" x2=".417" y2=".508"/><linearGradient xlink:href="#d" id="j" x1=".226" y1="-.273" x2=".518" y2=".633"/><linearGradient xlink:href="#e" id="m" gradientTransform="scale(1.75168 .57088)" x1="57.866" y1="10.388" x2="22.62" y2="-27.608" gradientUnits="userSpaceOnUse"/><linearGradient xlink:href="#e" id="q" gradientTransform="scale(1.1738 .85193)" x1="75.056" y1="-6.435" x2="38.302" y2="-33.208" gradientUnits="userSpaceOnUse"/><linearGradient xlink:href="#e" id="o" gradientTransform="scale(1.92477 .51954)" x1="39.644" y1="-53.602" x2="27.02" y2="-63.293" gradientUnits="userSpaceOnUse"/></defs><metadata/><g fill-rule="evenodd"><path d="M79.156 39.5c-11.75.987-25.137 4.29-30.618 15.977-4.338 9.068-.646 21.686 7.959 26.775 3.338 3.21 17.077.632 15.452 3.033-16.86 4.345-34.66 15.853-37.352 34.405-2.966 14.462-.406 29.876-5.317 43.88-4.575 8.129-12.33 22.527 1.17 22.123 9.988 1.507 20.049 2.444 30.081 3.588 28.725.232 56.794-1.966 65.78-7.943 1.594-9.552-7.81-16.292-7.56-26.536-3.019-15.46 3.283-31.914-3.66-46.77-1.889-11.924-12.026-23.314-19.762-28.412 11.213-6.723 12.738-25.35 3.756-34.631-5.328-4.587-13.179-5.253-19.929-5.489z" fill="#fff"/><path d="M49.125 55.594c-4.339 9.068-.636 21.692 7.969 26.781 3.338 3.21 16.458.873 14.833 3.273-16.86 4.345-34.048 15.612-36.74 34.165-2.965 14.46-.401 29.87-5.312 43.874-4.575 8.129-12.344 22.53 1.156 22.125 9.988 1.507 10.804-24.993 13.5-34.375 8.948-27.518 1.616-47.293 32.188-65.187C77.883 78.534 64.856 81.179 57 73.344c-6.58-4.645-2.264-18.171-7.875-17.75zm69.594 99c6.232 40.36-21.701 19.303-12.625 32.25 16.603-2.639 11.202.257 20.187-5.719 1.595-9.553-7.812-16.287-7.562-26.531z" fill="#d2f3ff"/><path d="M87.563 70.406c-1.139.491-.754 2.022-1.53 2.656-2.099 1.892-4.238 3.898-6.94 4.885-2.55.289-5.16.252-7.689-.208-.576-.204-2.862-.786-2.272.387 1.071 1.061 2.713.998 4.108 1.2 2.094.14 4.236.253 6.307-.122 3.236-1.136 5.643-3.705 8.222-5.844.44-.496.266-1.585.538-2.214-.202-.291-.54-.45-.745-.74zM58.248 61.677c-2.472 0 8.249-7.279 8.249-1.331.18 0-1.057 3.992-3.3 3.992 0 1.6-3.547-1.53-4.95-2.661z"/><path d="M58.295 61.643c-2.472 0 8.25-7.279 8.25-1.331.18 0-1.057 3.992-3.3 3.992 0 1.6-3.548-1.53-4.95-2.661z" fill="url(#f)"/><path d="M82.17 56.354c4.887-3.941 2.994.665 7.425.665 0 4.314-6.6 5.44-6.6 2.662-1.663 0-1.943 1.186-.824-3.327z"/><path d="M82.08 56.352c4.886-3.941 2.993.666 7.424.666 0 4.314-6.6 5.44-6.6 2.661-1.663 0-1.944 1.186-.825-3.327z" fill="url(#g)"/><path d="M71.141 107.977c0-2.618-2.11 7.804 1.046 7.804 5.291 0 9.332-6.07 6.274-6.07-2.458-2.039-2.87-1.734-7.32-1.734z"/><path d="M71.097 107.953c0-2.618-2.11 7.804 1.046 7.804 5.292 0 9.332-6.07 6.274-6.07-2.458-2.039-2.87-1.734-7.32-1.734z" fill="url(#h)"/><path d="M73.47 133.08c-2.166 0-10.686 1.36-5.774 5.323 0 3.703 9.026-.666 9.899-.666 0-3.168.49-2.424-4.125-4.657z"/><path d="M73.607 132.895c-2.166 0-10.686 1.361-5.774 5.323 0 3.703 9.026-.665 9.9-.665 0-3.169.49-2.425-4.126-4.658z" fill="url(#i)"/><path d="M71.82 159.03c-2.217 1.787-5.61 7.318-2.474 7.318 2.43 0 8.249-.095 8.249-2.661 0-1.171-4.19-3.38-5.775-4.658z"/><path d="M71.748 158.75c-2.217 1.788-5.61 7.319-2.474 7.319 2.43 0 8.249-.095 8.249-2.662 0-1.17-4.19-3.379-5.775-4.657z" fill="url(#j)"/><path d="M84.66 80.436c.046-2.304 7.038-1.888 10.623-3.408 4.627-2.2 5.317-9.562 8.249-9.587 2.03 3.314-4.319 9.228-6.296 11.615-.862.625-11.982 6.208-12.576 1.38z" fill="#dadada"/><path d="M79.281 39.25c-11.479.88-24.74 4.305-30.594 15.25-5.838 10.474-.8 26.012 10.72 30.031 3.07.981 10.429.076 10.874 1.031-14.682 4.202-29.517 13.502-34.75 28.563-5.037 16.126-1.203 33.591-6.656 49.625-2.953 5.718-7.156 11.766-6.25 18.5 1.714 5.884 9.086 3.912 13.625 5.25 8.81.984 17.62 2.335 26.469 2.813 18.541-.113 37.329-.306 55.468-4.563 3.65-1.398 10.713-1.93 9.063-7.531-.906-8.243-8.028-14.63-7.719-23.156-2.952-15.446 3.24-31.941-3.625-46.75C113.785 96.695 105.88 86.81 96.5 80c11.101-7.63 12.28-25.47 3.188-35.094-5.614-4.774-13.353-5.405-20.407-5.656zm.031 1.25c7.342.35 16.081.843 21 7.094 6.922 9.6 5.012 27.623-5.066 31.454-.363.717-.121 1.192-.121 1.546 9.49 6.691 17.364 16.547 19.594 28.094 6.81 14.766.576 31.226 3.594 46.624-.489 9.487 8.716 16.5 7.562 26.032-9 4.765-19.502 5.354-29.438 6.5-12.489.96-25.167 1.509-37.624 1A1100.036 1100.036 0 0126.718 185c-5.64-2.484-2.105-9.781-.344-13.813 2.097-4.247 4.761-8.28 5.375-13.093 3.34-15.398.12-31.895 6.25-46.719 6.412-13.52 20.532-21.529 34.531-25.156.314-4.27-7.503-1.488-10.437-2.563-7.888-.587-13.074-8.62-14.282-15.844-2.071-10.016 4.94-19.853 14.126-23.374 5.483-2.382 11.45-3.422 17.374-3.938z"/><g><path d="M105.216 117.734c0 .34 7.725-10.223 9.9-11.976 2.87-3.486 10.212-9.568 13.198-11.977 4.283-3.454 8.679-9.816 11.55-11.311 2.914-.638 5.452 1.915 4.814 4.867-1.83 1.276-5.856 4.338-10.48 8.622-5.627 5.104-16.252 19.492-17.433 20.444-1.714 1.383-5.195 7.32-6.6 7.32-3.484 0-4.949-3.295-4.949-5.989z" fill="url(#k)"/><path d="M168.813 29.219c-4.882 7.34-13.468 17.426-15.75 18.562-12.344 10.088-12.134 18.168-8.157 23.094-5.723 4.314-7.375 7.931-7.375 11.813 1.575 1.913 3.017 6.593 8.813 6.593 3.098 0 9.8-5.021 10.781-9.062 1.645.497 3.415.925 5.344 1.281 7.014-.264 11.706-6.377 15.804-10.695 8.013-6.809 13.487-18.01 16.602-28.368-.776-.546-2.895-2.077-1.75-3.406-1.802-1.118-7.487-1.839-6.688-3.718-2.19-1.235-7.32-.184-5.968-2.657-2.436-1.21-8.713-.465-4.688-2.75-2.288-1.022-5.22-.018-6.969-.687z" fill="url(#l)"/><path d="M168.688 27.906c-4.21 6.146-8.815 12.048-14.063 17.344-2.34 1.895-4.737 3.763-6.75 6.031-3.573 3.868-6.767 9.05-5.688 14.532.312 1.79 1.26 3.33 2.344 4.75-6.131 4.516-7.969 8.46-7.969 12.593v.25l.157.156c.084.103.255.374.344.5-1.637 1.517-3.147 3.213-4.688 4.813-2.133 2.49-4.586 4.664-7.156 6.688-3.862 3.22-7.693 6.512-11.063 10.25-3.286 3.378-5.995 7.265-8.937 10.937-1.024.969-.753 1.258-.781 2.156.175 2.752 2.22 5.57 5.156 5.656 1.86.023 2.777-2 3.875-3.218 1.326-1.765 2.645-3.541 4.25-5.063 5.172-6.373 10.075-13.015 15.844-18.875 2.87-2.759 5.962-5.31 9.156-7.719.95.387 1.972.72 3.281.72 2.023 0 4.737-1.542 7.125-3.563 2.217-1.876 4.065-4.19 4.375-6.469.533.153 4.902 1.944 6.849 1.411 4.97-.771 9.241-4.9 12.464-8.474 1.12-1.097 1.42-1.807 1.82-2.882 1.094-.489 3.68-2.723 4.617-3.993 5.658-7.392 9.76-15.925 12.469-24.812-.871-.718-3.052-1.91-1.719-3.125-.008-.877-2.216-1.23-3.094-1.625-1.059-.565-4.122-.662-3.594-2.313-.98-.926-2.804-1.036-4.187-1.187-1.666.19-2.153-.692-1.906-1.656-1.764-.981-3.844-.872-5.75-1.344.223-.526 2.606-.982 1.25-1.344-2.329-1.357-5.083-.4-7.563-.968l-.469-.157zm.5 1.438c1.39.572 4.73-.445 4.937.781-1.272 1.587-3.08 3.218-4.25 5.094-3.239 5.176-5.175 9.548-10.656 14.343-.806 1.157-3.593 3.166-5.25 5.47 4.475-2.134 7.457-6.293 10.437-10.094 3.246-4.181 5.966-8.794 9.531-12.72 1.422-1.31 3.647.143 5.438.22 1.536 1.29-2.176 2.525-2.688 4.156-4.497 5.846-4.816 10.455-10.53 15.281-.69 1.063-3.107 2.54-4.438 4.719 4.725-2.479 8.257-7.595 11.219-11.844 2.482-3.53 3.909-7.06 7.125-10 .79-.83.27-.847 1.625-.344 1.55.413 5.726.01 3.53 2.469-4.204 7.252-4.943 11.386-10.593 17.625-.749 1.01-3.267 4.314-4.844 6.063 4.922-4.312 8.442-9.93 11.969-15.376 1.77-2.823 3.47-5.697 5.063-8.624 1.677 1.057 3.685 1.386 5.468 2.218-5.11 7.971-6.31 9.805-10.844 18.125-1.135.832-4.531 8.554-3.5 7.938 3.688-7.205 8.156-13.973 12.47-20.813 1.118-.992 1.87-4.907 3.187-2.5 1.381 1.054-.56 3.19-.75 4.688-3.302 8.547-7.71 16.838-14.125 23.468-.274.24-.305.478-.571.73-.942-1.868-4.853-4.443-5.93-5.26-5.982-3.587-8.188-3.703-14.687-6.063-.426-.202-3.753-1.553-4.125-1.844 2.399 2.175 3.758 2.52 5.375 3.5 6.344 2.082 13.706 5.624 19.063 9.813-3.317 3.164-6.165 7.046-10.563 8.78-2.224.879-4.69 1.854-7 1.08-.91-.186-4.752-1.434-5.656-1.704-.036-.71-5.892-3.146-9.094-8.75-.003-.004-.027.004-.031 0-.64-.75-1.2-1.536-1.531-2.5-1.923-4.425.071-9.36 2.844-12.938 2.381-3.178 5.404-5.817 8.53-8.218 5.18-5.15 9.696-10.97 13.845-16.97zm-23.875 42.218c.226.265 6.81 7.028 10.968 8.438-.147 1.691-1.792 4.033-3.969 5.875-2.25 1.905-5.014 3.281-6.312 3.281-.834 0-1.416-.233-2.063-.406.36-.262-2.031-1.037-3.25-2.5-.344-.015-2.788-3.178-2.843-3.25.04-3.741 1.58-7.123 7.469-11.438zm-7 12.626c.812 1.308 1.969 2.944 3.78 4.124-.507.365-1.649 1.438-2.093 1.844-4.302 3.457-8.457 7.133-11.969 11.406-4.019 4.659-7.706 9.6-11.656 14.313-2.391 2.144-3.775 5.184-6.188 7.313-1.396.417-2.944-.58-3.656-1.782-.586-1.194-1.532-3.017-.219-4.031 3.028-3.837 5.882-7.85 9.344-11.313 4.306-4.745 9.412-8.644 14.25-12.812 2.792-2.546 5.662-6.476 8.406-9.063z"/></g><g><path d="M85.332.823c12.526-2.76 35.073-12.503 20.583-18.61-8.099-3.505-30.04 1.077-45.267 5.46C51.915-9.811 23.91-5.868 31.743 3.626c5.631 7.106 36.743 1.93 53.589-2.802z" transform="translate(4.466 50.08)" fill="url(#m)"/><path d="M58.68 5.623c-15.543-3.875 17.498-21.84 2.27-17.455-8.732 2.514-35.141 5.5-29.064 14.994 6.27 5.033 16.647 2.888 26.794 2.461z" transform="translate(4.466 50.08)" fill="url(#n)"/><path d="M43.555-29.102c1.03-4.147 38.365-11.459 40.598-6.956-5.767 9.842-34.405 11.904-40.598 6.956z" transform="translate(4.466 50.08)" fill="url(#o)"/><path d="M44.983-29.817c1.965-2.436 14.098-5.038 15.456-5.627-5.905 2.746-3.325 4.996-2.129 6.244-2.671.644-10.23 1.857-13.327-.617z" transform="translate(4.466 50.08)" fill="url(#p)"/><path d="M43.73-29.35c7.213 3.828 33.313-3.693 39.692-6.544-1.243 4.052 3.142 18.767 8.21 21.957C87.804-9.631 55.401 2.368 47.251-1.779c3.275-9.137-5.464-27.571-3.52-27.571z" transform="translate(4.466 50.08)" fill="url(#q)"/><path d="M44.133-28.544c5.036.806 7.687-.067 14.067-.742-1.243 4.052 1.207 22.151 4.462 26.429-5.399 1.163-8.672 2.042-14.405 1.038 2.066-9.5-3.512-23.414-4.124-26.725z" transform="translate(4.466 50.08)" fill="url(#r)"/><path d="M81.028 11.736c-3.881.119-8.825.76-13.719 1.656-4.893.896-9.748 2.039-13.468 3.25-1.86.606-3.418 1.229-4.594 1.844-.588.308-1.084.611-1.469.937-.384.327-.697.694-.812 1.157l-.094.375s.656 1.833.906 2.781c.501 1.896 1.3 4.453 2.063 7.312.776 2.913 1.468 6.117 1.781 9.125-2.642.67-5.334 1.301-7.781 2.157-3.596 1.257-6.697 2.7-8.5 4.593-.902.947-1.492 2.044-1.532 3.25-.039 1.207.457 2.485 1.5 3.75 1.605 2.026 4.771 2.99 8.813 3.438 4.041.448 8.993.314 14.312-.188 10.63-1 22.633-3.499 31.094-5.875v.032c6.338-1.396 15.115-4.534 20.625-8.157 2.755-1.81 4.77-3.71 5.094-5.875.162-1.082-.191-2.191-1.031-3.156-.84-.964-2.135-1.838-4-2.625-2.165-.936-5.117-1.321-8.594-1.312-2.596.007-5.691.399-8.75.781a35.528 35.528 0 01-2.656-5.875c-.777-2.26-1.348-4.577-1.657-6.531-.295-1.871-.28-3.374-.062-4.219.063-.099.16-.18.219-.281l.156-.282-.125-.312c-.007-.014-.024-.018-.031-.031l-.375-.344c-.54-.578-1.345-.934-2.407-1.125-1.31-.236-2.965-.31-4.906-.25zm.031 1.25c1.89-.058 3.494.01 4.657.219.687.124.88.322 1.125.5-3.403 1.423-7.712 3.445-15.483 5.106-4.091.875-11.35 1.904-14.861 2.112-3.229.192-5.817-.116-7.469-.812.237-.163.438-.32.781-.5 1.072-.56 2.618-1.189 4.438-1.781 3.64-1.185 8.433-2.331 13.281-3.219 4.848-.888 9.752-1.51 13.531-1.625zm20.563 18.531c3.389-.002 6.21.341 8.094 1.156 1.757.741 2.91 1.534 3.562 2.282.652.748.829 1.423.719 2.156-.22 1.467-1.895 3.298-4.531 5.031-5.273 3.466-14.03 6.606-20.219 7.969h-.031c-8.384 2.356-20.34 4.82-30.875 5.813-5.268.496-10.192.62-14.094.187-3.902-.432-6.758-1.472-7.969-3-.914-1.108-1.246-2.039-1.219-2.875.028-.836.429-1.64 1.188-2.438 1.518-1.594 4.482-3.051 8-4.28 2.32-.811 4.905-1.42 7.437-2.063.152 2.398.075 4.66-.562 6.437l-.188.531.5.25c2.296 1.168 5.893 1.117 10.188.5 4.295-.616 9.272-1.857 14.094-3.375 4.822-1.517 9.487-3.29 13.218-4.968 1.866-.84 3.518-1.66 4.813-2.407 1.295-.747 2.236-1.414 2.812-2.062l.5-.531-.625-.407c-.94-.591-1.914-1.786-2.843-3.218 2.797-.312 5.67-.686 8.031-.688zm-48.719 9.594c.149 2.327.1 4.588-.469 6.531 1.86.766 5.08.88 9.032.313 4.192-.602 9.099-1.841 13.875-3.344s9.418-3.284 13.093-4.938c1.838-.826 3.446-1.627 4.688-2.343.989-.571 1.536-.997 2-1.407-1.076-.86-2.036-2.163-3.281-4.218-1.275-2.312-2.13-4.2-2.813-6.188-.798-2.324-1.396-4.674-1.719-6.719-.17-1.083-.022-3.23-.004-4.08-2.752 2.188-27.321 8.323-38.652 7.174.083.428.169.838.344 1.5.488 1.846 1.292 4.453 2.062 7.344.77 2.888 1.496 6.041 1.813 9.094"/></g><g><path d="M70.809 67.291c-3.918 1.495-7.074 3.03-10.41 4.37-7.166 2.365-13.392 6.758-19.682 10.805-1.476 4.6 5.684.997 7.806.42 4.487-.548 8.085-3.677 12.534-4.217 4.925-1.476 10.005-2.614 14.738-4.625 3.962-2.649-.014-6.052-4.986-6.753z" fill="url(#s)"/><path d="M71.044 66.44c-4.396 1.656-8.607 3.769-13.035 5.345-6.27 2.527-11.844 6.417-17.496 10.06-.653 1.155-.34 3.137 1.22 3.283 1.723.235 3.367-.545 4.975-1.047a15.85 15.85 0 013.917-1.106c3.774-.924 7.01-3.446 10.92-3.91 5.025-1.531 10.222-2.614 15.024-4.793 1.28-.784 2.304-2.506 1.502-3.966-1.328-2.523-4.407-3.444-7.027-3.866zm.125 1.28c2.147.385 4.5 1.122 5.77 3.025.622 1.6-1.133 2.745-2.472 3.073-4.46 1.693-9.111 2.808-13.687 4.118-4.273.647-7.803 3.612-12.11 4.129-2.194.619-4.262 1.836-6.595 1.846-1.578-.605.366-2.062 1.217-2.365 5.64-3.677 11.333-7.477 17.789-9.577 3.391-1.347 6.673-2.957 10.088-4.248z"/></g></g></svg>