<?xml version="1.0" encoding="UTF-8"?>
<svg width="128" height="128" version="1.0" xmlns="http://www.w3.org/2000/svg" xmlns:xlink="http://www.w3.org/1999/xlink">
 <defs>
  <linearGradient id="p" x1="86.35" x2="131.7" y1="69.852" y2="39.905" gradientTransform="translate(.554 -1.47) scale(.81587)" gradientUnits="userSpaceOnUse" xlink:href="#b"/>
  <linearGradient id="b">
   <stop stop-color="#fff" offset="0"/>
   <stop stop-color="#f5ffff" offset="1"/>
  </linearGradient>
  <linearGradient id="l" x1="57.031" x2="57.813" y1="30.208" y2="53.527" gradientTransform="translate(.554 -1.47) scale(.81587)" gradientUnits="userSpaceOnUse" xlink:href="#b"/>
  <linearGradient id="m" x1="57.458" x2="83.554" y1="35.799" y2="49.08" gradientTransform="translate(.554 -1.47) scale(.81587)" gradientUnits="userSpaceOnUse" xlink:href="#b"/>
  <linearGradient id="i" x1="26.042" x2="124.22" y1="92.188" y2="83.854" gradientTransform="translate(.554 -1.47) scale(.81587)" gradientUnits="userSpaceOnUse">
   <stop stop-color="#ffffd7" offset="0"/>
   <stop stop-color="#fffff4" offset="1"/>
  </linearGradient>
  <linearGradient id="k" x1="43.229" x2="120.05" y1="116.41" y2="109.9" gradientTransform="translate(.554 -1.47) scale(.81587)" gradientUnits="userSpaceOnUse">
   <stop stop-color="#ecddae" offset="0"/>
   <stop stop-color="#f8f1de" offset="1"/>
  </linearGradient>
  <linearGradient id="h" x1="119.85" x2="35.014" y1="111.28" y2="138.83" gradientTransform="translate(.554 -1.47) scale(.81587)" gradientUnits="userSpaceOnUse">
   <stop stop-color="#f4f447" offset="0"/>
   <stop stop-color="#fbfbb5" offset=".5"/>
   <stop stop-color="#f4f447" offset="1"/>
  </linearGradient>
  <linearGradient id="n" x1="67.448" x2="77.773" y1="27.083" y2="34.635" gradientTransform="translate(.554 -1.47) scale(.81587)" gradientUnits="userSpaceOnUse">
   <stop stop-color="red" offset="0"/>
   <stop stop-color="#de0000" offset="1"/>
  </linearGradient>
  <filter id="q" x="-.258" y="-.288" width="1.516" height="1.576">
   <feGaussianBlur stdDeviation=".532"/>
  </filter>
  <filter id="g">
   <feGaussianBlur stdDeviation="1.567"/>
  </filter>
  <filter id="o">
   <feGaussianBlur stdDeviation="1.615"/>
  </filter>
  <filter id="j" x="-.08" y="-.222" width="1.16" height="1.443">
   <feGaussianBlur stdDeviation="1.037"/>
  </filter>
 </defs>
 <path transform="matrix(.8653 0 0 .8653 .137 -2.685)" d="M68.281 26.938c-.207-.006-.427.015-.625.03-3.478.276-5.875 3.408-6.125 6.563h-.156c-3.789.127-7.37.8-8.813 3.282.125.469.334.85.594 1.218-1.194.218-2.398.407-3.5.407-2.256 0-5.102-.48-7.5 0-4.486-.22-8.44.88-12.687 2.25-5.55 1.466-6.35 2.913-6.094 9 .093 1.52-.016 2.662-.938 3.562-3.35 1.092-5.701 3.245-7.375 6.625l-.218.25-.031.25c-.257.56-.495 1.156-.72 1.781.67 5.298-.773 10.092-2.812 14.688v.187c.02 5.646 4.823 9.586 4.719 15.25 1.56 8.06.904 14.88.656 22.281-2.39 1.769-4.591 4.672-6.562 9.282l-.094.219.125.187c4.277 8.435 12.512 12.345 22.75 13.75 28.438-.23 60.82.632 87.625-9.5 8.06-6.297 19.171-9.895 21.563-20.281-2.386-4.143-3.966-9.161-9.094-9.594l-.031.688c-.3-2.428-1.1-4.627-1.844-6.782a16.118 16.118 0 01-.75-2.031l-.438-1.75c-.919-5.032.678-9.923 2.031-15.031 2.93-10.695-3.847-19.364-9.53-28.188l-.032-.031-.031-.031c-2.633-2.62-4.263-3.04-6.188-2.438-.554-2.337-6.808-5.375-8.531-6.156-1.93-.849-4.744 1.166-6.719.625-4.329-2.568-9.305-2.16-13.969-2.844-2.24.47-4.242 1.592-6.53 2.125-.234.052-.43.094-.594.125-1.183-1-2.472-1.844-3.844-2.437-.233-1.176-.863-2.418-2.031-3.688-1.535-1.417-2.838-3.373-5.032-3.781-.21-.024-.418-.057-.625-.063zm40.063 11.093c.927.51 1.693 1.111 2.406 1.75l-2.406-1.75zm-.406 7.532c.692.103 1.405.233 2.093.374l.188.126c-.03.022-.064.04-.094.062l-2.188-.563zM17.75 56.968l-1.156 1.25a5.518 5.518 0 011.156-1.25zM16.906 94l.438 4.688c-.234-1.56-.417-3.125-.438-4.688zm117.031 5.656c.401.082.771.234 1.094.406l-1.094-.406z" fill-opacity=".55" fill-rule="evenodd" filter="url(#g)"/>
 <path d="M9.244 100.025l-.98 2.944 3.644 4.766 11.634 6.028h25.933c16.85.4 30.292-3.095 44.716-5.467 10.392-2.89 17.77-7.537 23.69-13.037l2.663-6.307-3.224-6.449-3.785-1.401c-33.175 4.392-97.955.59-99.525 13.176" fill="url(#h)" fill-rule="evenodd"/>
 <path d="m25.084 90.914-8.13-27.895 7.009-20.466 24.53-6.448 24.531-3.504 16.962 1.542 8.13 2.102 6.868 21.868-2.383 25.232-13.877 4.765-42.894 4.486-20.746-1.682z" fill="url(#i)" fill-rule="evenodd"/>
 <path d="M18.222 44c9.341-2.526 18.349-4.719 28.222-7.778-6.072 5.889-14.09 5.84 2.89 10-10.371 2.936-20.741-.04-31.112-2.222z" fill-opacity=".219" fill-rule="evenodd" filter="url(#j)"/>
 <path d="M24.944 91.615l3.084 4.065c4.013 2.87 8.416 4.372 13.177 4.626l26.493-.981 26.493-6.449 9.672-6.588-1.542-3.785-13.176 4.486-21.307 4.065-25.792-.28-17.943-1.682.841 2.523z" fill="url(#k)" fill-rule="evenodd"/>
 <path d="M18.98 42.08l.854-8.42 5.126-3.295 14.155-1.708h8.054l20.257-.61 6.101-2.319 4.882.122 7.932 2.197 5.491-.366 8.054 5.857-4.027 2.563-3.905-2.197H72.917l-24.406 2.319L34.6 40.128l-9.274 2.074-6.346-.122z" fill="url(#l)" fill-rule="evenodd"/>
 <path d="M50.83 32.44c-1.464 2.568-4.197 5.056-.732 7.932l11.227 1.708 10.494-4.393c1.967-4.805-2.17-7.43-4.393-10.738l-6.101-2.93-13.912 1.1-2.318 1.83" fill="url(#m)" fill-rule="evenodd"/>
 <path d="M61.11 20.406c1.785 2.643 4.155 4.878 2.102 8.41-2.651 1.31-5.713.98-9.111-.7-1.607-2.045-2.385-4.173-.28-6.589 1.711-2.527 4.082-3.078 7.288-1.121z" fill="url(#n)" fill-rule="evenodd"/>
 <path d="m16.889 55.333 2.667 33.778c18.074 10.54 36.148 3.22 54.222 3.778-21.51-8.214-51.06-2.845-56.89-37.556z" fill-opacity=".094" fill-rule="evenodd" filter="url(#o)"/>
 <path d="M22.842 41.432l-7.99 2.383-3.225 3.504-.7 9.672-1.963 4.766 4.205 12.336 1.122 11.494-.56 12.476 3.784 2.243c3.32.215 6.346-1.422 8.55-8.27v-7.57L21.86 72.27c-1.578-3.553-.86-7.434.14-11.355l6.028-6.448c6.339 2.064 10.137 5.398 15.139 8.13v14.579l-.841 7.149 2.523 7.99.841 10.233 4.205 4.906 7.01-4.906c1.492-5.258 1.566-11.226 1.821-17.102L55.643 71.57l3.364-10.654 4.626-3.083c6.343 2.973 6.956 8.15 8.69 12.896l-1.682 6.868 3.365 13.317-.982 6.728c2.598 3.581 5.958 5.002 10.794 2.243 2.456-4.304 2.388-9.33 3.504-14.017l-6.027-14.719c-.332-8.456 3.167-11.442 5.186-16.54 4.112-1.906 8.224-1.847 12.336-1.542 3.768 2.077 4.82 5.637 4.485 9.952l-3.784 11.354.98 17.102c4.99.643 9.588-1.314 13.458-8.13l-2.944-12.056c-.893-4.963.885-9.392 1.682-14.017 1.696-5.467-1.437-10.934-4.065-16.4-2.888-2.683-3.572-8.394-9.111-7.43-4.916-.215-7.983 5.114-11.495 9.111-3.683 1.082-11.174.26-20.606 1.122-4.018 1.408-8.036 1.61-12.055 1.402l-13.457.84-13.737-2.663" fill="url(#p)" fill-rule="evenodd"/>
 <path d="M57.333 18.622c-3.01.238-5.087 2.955-5.303 5.685h-.128c-3.278.11-6.375.682-7.623 2.83.108.406.285.753.51 1.071-1.033.189-2.08.332-3.034.332-1.952 0-4.426-.415-6.501 0-3.882-.19-7.288.778-10.964 1.963-4.801 1.269-5.498 2.51-5.277 7.776.08 1.316-.019 2.306-.816 3.085-3.507 1.143-5.745 3.608-7.216 7.7.58 4.584-.658 8.746-2.422 12.722l-.025.077v.076c.017 4.885 4.194 8.306 4.105 13.207 1.349 6.974.775 12.87.56 19.275-2.068 1.53-3.98 4.042-5.685 8.031l-.077.179.102.178c3.701 7.3 10.824 10.666 19.683 11.882 24.608-.2 52.63.557 75.825-8.21 6.974-5.45 16.594-8.554 18.663-17.541-2.063-3.585-3.44-7.938-7.878-8.312l-.025.612c-.257-2.112-.934-4.017-1.581-5.89-2.517-5.547-.749-10.748.714-16.266 2.535-9.254-3.317-16.765-8.235-24.4l-.026-.025-.025-.026c-2.278-2.267-3.69-2.637-5.354-2.116-.48-2.022-5.903-4.653-7.394-5.329-1.67-.734-4.104 1.004-5.813.536-3.746-2.222-8.05-1.856-12.085-2.448-1.939.407-3.68 1.375-5.66 1.836-.202.044-.368.075-.51.102-1.024-.866-2.127-1.578-3.315-2.09-.202-1.018-.748-2.115-1.76-3.213-1.327-1.226-2.46-2.911-4.359-3.264a5.687 5.687 0 00-1.07-.025zm.306.79c.194 0 .405.005.612.026 5.93 1.001 8.243 12.215.102 9.637-6.416.275-6.726-9.632-.714-9.663zm-5.609 5.61c.075 1.687.88 3.29 2.728 4.232 4.244 3.349 10 .727 9.841-3.417 2.836 1.322 4.89 4.166 6.323 7.062 1.294 6.857-9.534 8.168-13.997 8.338-3.491.198-5.684-.82-7.42-3.646-1.366-2.554 2.11-2.606 1.735-5.201-1.333-2.358-3.793-3.59-5.176-5.941 1.782-.906 3.839-1.272 5.966-1.428zm22.462 1.045c4.093.438 7.36.551 11.218 2.37 1.69.685 4.83-.89 6.553-.407 2.494 1.248 3.59 3.337 6.068 4.614.017.054.073.115.153.179-.88.388-1.885.961-3.11 1.606-4.744-1.31-9.994-1.417-15.247-1.453-2.718-.019-5.42-.792-8.057-.841h-.128c-.942-1.58-2.112-3.09-3.467-4.36 1.701.387 4.352-1.287 6.017-1.708zm-29.065 2.855c1.498 1.356 3.927 2.037 5.048 3.773-.156 1.02-1.009 1.675-1.81 2.346-3.665.892-6.791 2.557-10.275 3.493-4.607 1.237-9.47 1.734-13.207 3.162-1.027-.26-2.051-.573-3.034-1.046-.67.045-1.307.127-1.913.23.286-.494.43-1.075.434-1.785-.546-5.207-.412-6.364 3.875-7.802 3.505-1.86 7.266-.948 10.99-1.402 1.843-.369 4.162-.535 6.22-.535 1.19 0 2.465-.193 3.672-.434zm54.714 4.59c1.199-.01 2.413.478 3.9 1.657l.052.05c4.777 7.786 10.15 14.488 8.056 23.66-2.022 5.731-2.644 10.931-.713 16.726.883 2.557 1.81 5.04 1.657 7.955v.025c-1.197 4.87-7.02 7.964-11.78 7.65-.24-1.574-.256-3.133-.254-4.692.092-.6.16-1.055.382-2.473l-.408-.994c-.047-1.621-.205-3.227-.663-4.845-1.395-4.235 1.712-7.964 2.728-11.932V66.248c.791-5.289 1.204-11.165-4.563-13.462-4.943-1.385-10.778-1.198-13.717 3.468-6.655 12.874-3.194 16.213-1.632 20.855 1.347 2.634 2.79 5.184 3.136 8.032v.025c.037.947-.007 1.888-.076 2.83l-.077.204c.026-.007.051-.018.077-.025-.407 5.57-.52 11.48-7.088 12.646-5.465-1.24-5.682-4.12-5.023-9.867-.351-6.902-3.742-12.592-1.836-19.862l.026-.076v-.102c-1.622-8.182-6.033-17.974-13.921-9.74-5.098 7.007-2.53 16.15-.586 23.865.638 8.116.85 17.348-7.853 20.779-2.192-.612-3.27-2.094-3.825-3.977-.553-4.282-.682-8.606-1.759-12.8-2.617-4.176-.723-8.876-.076-13.334v-.025c.467-4.257-1.969-8.11-1.097-12.366l.077-.178-.128-.179c-2.655-3.609-7.655-4.932-11.065-7.496-2.29-1.737-4.734-1.578-6.68-.408-6.074 4.408-6.16 12.55-3.748 19.02v.026l.026.025c3.815 6.585 7.161 19.815-.587 25.216-2.654.549-6.605.633-7.164-2.6 3.114-7.056-.894-14.25-.484-21.468 1.548-3.287-3.13-9.087-4.105-13.258 1.77-4.015 3.582-8.305 2.983-13.054-.154-5.595 5.186-5.963 9.56-6.859 4.003 2.047 8.625.94 12.825 2.346.017.01.035.015.051.026 4.041 2.61 8.945 2.77 13.462 1.937l.026-.025h.025c4.638-1.12 9.391-.044 14.023-1.275 7.552-1.934 14.827-1.802 22.436-1.76 6.557.126 5.885-5.152 10.224-7.801 2.112-1.194 3.634-2.027 5.176-2.04zm-27.306.305c3.004.378 6.492-.153 8.464 1.326 1.655-.935 7.527-1.206 12.927-.05-3.776 2.75-4.453 7.39-9.79 7.852-7.62-1.38-14.56.913-22.131 1.351h-.077l-.05.026c-4.627 1.307-9.433-.51-14.1.612-2.813.26-7.607 1.067-12.926-1.173l-.026-.026-.05-.025c-2.692-.928-5.514-1.118-8.262-1.632 3.433-.952 7.581-1.282 11.55-2.27 3.04-.755 5.755-2.29 8.898-3.135-.192.483-.2 1.049.077 1.76 1.585 3.405 6.053 3.514 9.586 3.62 4.829.772 17.947-1.207 16.037-8.006-.036-.078-.09-.152-.127-.23zm22.41 10.99c-3.526.732-6.622 3.214-10.63 3.493-3.836.266-8.578-1.67-12.196-1.033-4.288.755-7.304 3.419-11.72 3.674-2.698.156-5.417-1.782-8.155-1.658-3.886.176-7.468 2.263-11.482 2.063-2.617-.13-5.023-2.986-7.707-3.2-3.795-.302-6.829 1.566-10.824.943l-.127.179c3.729.81 7.23-.528 10.76-.082 3.014.38 5.107 2.499 7.998 2.704 3.567.252 7.807-1.392 11.258-1.479 2.74-.07 5.91 1.893 8.543 1.738 4.697-.277 8.317-2.823 12.68-3.75 3.541-.752 7.586 1.25 11.253.795 3.696-.459 7.013-3.376 10.528-4.21l-.178-.178zm-2.09 8.107c1.731-.037 3.527.258 5.176.663 5.514 1.822 4.507 7.987 3.952 12.595-1.214 4.222-3.978 7.803-2.678 12.34.5 1.583.574 3.232.51 4.895l-.204-.714a120.52 120.52 0 01-12.748 4.181 41.117 41.117 0 00-.025-1.759V85.064c-.367-3.068-1.9-5.693-3.238-8.311-4.549-7.635-.832-12.486 2.065-20.015 1.593-2.798 4.305-3.764 7.19-3.824zm-63.638 2.294c.643.053 1.32.333 2.09.918 3.568 2.682 8.375 4.021 10.811 7.241-.964 4.156.725 8.157.382 12.315-2.098 2.639-.789 10.718.893 13.793.223.359.388.748.535 1.173-5.986-.354-11.896-.945-17.77-1.632-.048-5.305-2.122-11.028-4.054-15.272-.004-.007.003-.018 0-.025-2.434-5.91-1.583-13.331 4.003-17.414.863-.52 1.645-.961 2.473-1.071.206-.028.423-.043.637-.026zm34.063 3.366c.171-.016.343-.01.51 0 3.994.248 6.512 7.806 7.419 12.39-3.096 6.642 1.586 12.465 1.81 18.74-4.923.702-9.753 1.04-14.507 1.173.014-2.233-.093-4.293-.179-5.89V84.913c-1.9-7.446-3.957-16.961.97-23.763 1.445-1.68 2.774-2.463 3.977-2.575zm50.252 22.87c4.081.018 3.98 4.85 5.94 7.776-2.908 6.39-8.224 10.977-17.566 15.374-22.84 7.13-49.708 10.296-74.066 8.133-8.626-1.183-15.689-3.08-19.275-9.943 1.472-3.384 2.742-5.71 4.284-7.19-.01.408-.02.811-.026 1.224.375 4.17 5.126 3.975 8.337 3.263 2.452-1.806 3.851-4.147 4.513-6.756l.153.79a20.846 20.846 0 002.524 2.83c5.073 2.46 10.652 3.575 16.369 3.927.273 3.409 1.243 6.306 5.022 7.011 4.148-.403 6.401-3.41 7.573-7.266 3.323-.278 6.593-.66 9.739-1.071 1.55-.543 3.361-.967 5.329-1.351.48 1.641 1.999 2.71 5.685 3.442 2.781.337 5.571-.443 7.037-2.805v-.025c.302-1.013.565-2.047.79-3.085 5.382-1.24 10.413-3.09 13.59-6.604-.012.96.017 1.92.178 2.856 6.554 2.729 11.043-2.783 13.947-8.363.04-.75-.002-1.47-.077-2.167zm-13.717 2.065c-.058 1.398-.196 2.804-.28 4.207-3.7 3.23-8.398 5.23-13.385 6.629.39-2.126.625-4.273.688-6.425 4.203-1.163 8.522-2.581 12.977-4.411zm-73.657 5.864c6.08.753 12.044 1.443 17.974 1.912.618 2.408.39 5.586.51 8.516-5.573-.043-10.987-.905-15.807-3.519-1.103-1.198-2.074-2.503-2.958-3.875.184-.988.272-1.997.28-3.034zm46.861 1.428c-.001.026.002.05 0 .076-.416 2.617-.894 4.637-.816 6.221-1.731.262-3.499.523-5.124.79-2.981.224-6.129.602-9.332.97.489-2.265.687-4.702.74-7.012 4.772-.049 9.594-.364 14.532-1.045z" fill-rule="evenodd"/>
 <path transform="matrix(.8653 0 0 .8653 -1.44 -2.91)" d="M69.531 29.818a2.474 2.214 0 11-4.948 0 2.474 2.214 0 114.948 0z" fill="#fff" filter="url(#q)"/>
</svg>
