<?xml version="1.0" encoding="UTF-8"?>
<svg width="128" height="128" version="1.0" xmlns="http://www.w3.org/2000/svg" xmlns:xlink="http://www.w3.org/1999/xlink">
 <defs>
  <linearGradient id="f">
   <stop stop-color="#fff" offset="0"/>
   <stop stop-color="#dfdfdf" offset="1"/>
  </linearGradient>
  <linearGradient id="h" x1="70.628" x2="72.845" y1="3.378" y2="53.63" gradientUnits="userSpaceOnUse">
   <stop stop-color="#ffeed6" offset="0"/>
   <stop stop-color="#e49c2f" offset=".5"/>
   <stop stop-color="#ffc66c" offset="1"/>
  </linearGradient>
  <linearGradient id="j" x1="76.618" x2="76.789" y1="34.859" y2="24.136" gradientTransform="scale(2.5413) rotate(4.532 58.07 -723.51)" gradientUnits="userSpaceOnUse">
   <stop stop-color="#f72525" offset="0"/>
   <stop stop-color="#fff" offset="1"/>
  </linearGradient>
  <linearGradient id="k" x1="76.212" x2="76.212" y1="32.18" y2="26.596" gradientTransform="scale(2.5413) rotate(4.532 58.07 -723.51)" gradientUnits="userSpaceOnUse">
   <stop stop-color="#fff" offset="0"/>
   <stop stop-color="#9cabe0" offset="1"/>
  </linearGradient>
  <radialGradient id="g" cx="55.868" cy="47.767" r="16.262" gradientTransform="matrix(-.76138 .00164 .00016 -.2181 107.46 60.955)" gradientUnits="userSpaceOnUse">
   <stop offset="0"/>
   <stop stop-opacity="0" offset="1"/>
  </radialGradient>
  <radialGradient id="i" cx="74.726" cy="18.678" r="16.5" gradientTransform="matrix(1.4286 -.03112 .02398 1.101 -28.78 -1.173)" gradientUnits="userSpaceOnUse">
   <stop stop-color="#fffcde" offset="0"/>
   <stop stop-color="#f6e76a" offset=".645"/>
   <stop stop-color="#ffb738" offset="1"/>
  </radialGradient>
  <radialGradient id="l" cx="85.921" cy="18.402" r="4.345" gradientTransform="matrix(1.344 -.12181 .13849 1.528 -32.219 .617)" gradientUnits="userSpaceOnUse" xlink:href="#f"/>
 </defs>
 <path transform="matrix(3.4178 .20434 -.04984 4.522 -155.39 -148.09)" d="M81.193 50.629a16.262 4.867 0 11-32.525 0 16.262 4.867 0 1132.525 0z" fill="url(#g)" opacity=".638"/>
 <path transform="rotate(4.532 231.47 -1520.6) scale(2.7064)" d="M87.128 23.802a16.5 16.5 0 11-33 0 16.5 16.5 0 1133 0z" fill="url(#h)"/>
 <path transform="scale(2.5413) rotate(4.532 70.756 -542.52)" d="M87.128 23.802a16.5 16.5 0 11-33 0 16.5 16.5 0 1133 0z" fill="url(#i)"/>
 <path transform="translate(7.624 -3.999)" d="m17.553 65.296c19.555 6.021 40.304 8.62 58.71 5.864 0 0-42.442 49.727-58.71-5.864z" fill="url(#j)" fill-rule="evenodd"/>
 <path transform="translate(7.624 -3.999)" d="m21.472 68.25a114.5 114.5 0 0 0 49.962 5.602s-37.567 36.534-49.962-5.602z" fill="url(#k)" fill-rule="evenodd"/>
 <path transform="scale(2.5413) rotate(4.532 82.827 -713.75)" d="M91.6 17.364a4.345 4.164 0 11-8.69 0 4.345 4.164 0 118.69 0z" fill="url(#l)"/>
 <path d="M77.515 41.26a5.76 5.52 4.532 11-11.485-.911 5.76 5.52 4.532 1111.485.91z"/>
 <path d="M76.724 39.35a3.45 3.22 4.532 11-6.88-.545 3.45 3.22 4.532 116.88.546z" fill="#fff"/>
 <path transform="scale(2.5413) rotate(4.532 93.919 -878.26)" d="M91.6 17.364a4.345 4.164 0 11-8.69 0 4.345 4.164 0 118.69 0z" fill="url(#l)"/>
 <path d="M44.569 37.725a5.76 5.52 4.532 11-11.485-.91 5.76 5.52 4.532 1111.485.91z"/>
 <path d="M43.777 35.816a3.45 3.22 4.532 11-6.879-.545 3.45 3.22 4.532 116.88.545z" fill="#fff"/>
</svg>
