<?xml version="1.0" encoding="UTF-8"?>
<svg width="128" height="128" version="1.0" xmlns="http://www.w3.org/2000/svg" xmlns:xlink="http://www.w3.org/1999/xlink">
 <defs>
  <linearGradient id="f">
   <stop stop-color="#fff" offset="0"/>
   <stop stop-color="#dfdfdf" offset="1"/>
  </linearGradient>
  <linearGradient id="h" x1="65.615" x2="66.644" y1="-6.964" y2="42.938" gradientUnits="userSpaceOnUse">
   <stop stop-color="#ffeed6" offset="0"/>
   <stop stop-color="#e49c2f" offset=".5"/>
   <stop stop-color="#ffc66c" offset="1"/>
  </linearGradient>
  <linearGradient id="j" x1="76.618" x2="76.789" y1="34.859" y2="24.136" gradientTransform="matrix(2.5413 0 0 2.5413 -5.877 3.492)" gradientUnits="userSpaceOnUse">
   <stop stop-color="#f72525" offset="0"/>
   <stop stop-color="#fff" offset="1"/>
  </linearGradient>
  <linearGradient id="k" x1="76.212" x2="76.212" y1="32.18" y2="26.596" gradientTransform="matrix(2.5413 0 0 2.5413 -5.877 3.492)" gradientUnits="userSpaceOnUse">
   <stop stop-color="#fff" offset="0"/>
   <stop stop-color="#9cabe0" offset="1"/>
  </linearGradient>
  <radialGradient id="g" cx="55.877" cy="47.207" r="16.262" gradientTransform="matrix(-.75889 .02896 -.00863 -.22615 107.74 59.687)" gradientUnits="userSpaceOnUse">
   <stop offset="0"/>
   <stop stop-opacity="0" offset="1"/>
  </radialGradient>
  <radialGradient id="i" cx="74.505" cy="17.402" r="16.5" gradientTransform="matrix(1.1669 -.07117 .06412 1.0513 -11.922 2.372)" gradientUnits="userSpaceOnUse">
   <stop stop-color="#fffcde" offset="0"/>
   <stop stop-color="#f6e76a" offset=".645"/>
   <stop stop-color="#ffb738" offset="1"/>
  </radialGradient>
  <radialGradient id="l" cx="85.921" cy="18.402" r="4.345" gradientTransform="matrix(1.344 -.12181 .13849 1.528 -32.219 .617)" gradientUnits="userSpaceOnUse" xlink:href="#f"/>
 </defs>
 <path transform="matrix(3.0345 .01057 -.30734 2.8016 -117.47 -41.174)" d="M81.193 50.629a16.262 4.867 0 11-32.525 0 16.262 4.867 0 1132.525 0z" fill="url(#g)" opacity=".638"/>
 <path transform="translate(-128.05 -6.752) scale(2.7064)" d="M87.128 23.802a16.5 16.5 0 11-33 0 16.5 16.5 0 1133 0z" fill="url(#h)"/>
 <path transform="matrix(2.5413 0 0 2.5413 -116.68 -3.113)" d="M87.128 23.802a16.5 16.5 0 11-33 0 16.5 16.5 0 1133 0z" fill="url(#i)"/>
 <path transform="translate(-126.88 -2.608)" d="M162.53 73.109c20.138 2.262 41.197 1.861 58.82-.651 0 0-27.74 47.015-58.82.65z" fill="url(#j)" fill-rule="evenodd"/>
 <path transform="translate(-126.88 -2.608)" d="m166.67 75.744c20.68 1.36 34.512 1.805 51.261-1.403 0 0-26.625 37.362-51.261 1.403z" fill="url(#k)" fill-rule="evenodd"/>
 <path transform="matrix(2.5413 0 0 2.5413 -139.19 -1.416)" d="M91.6 17.364a4.345 4.164 0 11-8.69 0 4.345 4.164 0 118.69 0z" fill="url(#l)"/>
 <path d="M88.084 44.55a5.76 5.52 0 11-11.52 0 5.76 5.52 0 1111.52 0z"/>
 <path d="M87.144 42.71a3.45 3.22 0 11-6.9 0 3.45 3.22 0 116.9 0z" fill="#fff"/>
 <path transform="matrix(2.5413 0 0 2.5413 -180.14 -.496)" d="M91.6 17.364a4.345 4.164 0 11-8.69 0 4.345 4.164 0 118.69 0z" fill="url(#l)"/>
 <path d="M47.14 45.47a5.76 5.52 0 11-11.52 0 5.76 5.52 0 1111.52 0z"/>
 <path d="M46.2 43.63a3.45 3.22 0 11-6.9 0 3.45 3.22 0 116.9 0z" fill="#fff"/>
</svg>
