<?xml version="1.0" encoding="UTF-8"?>
<svg width="128" height="128" version="1.0" xmlns="http://www.w3.org/2000/svg" xmlns:xlink="http://www.w3.org/1999/xlink">
 <defs>
  <linearGradient id="d">
   <stop stop-color="#fff" offset="0"/>
   <stop stop-color="#fff" stop-opacity="0" offset="1"/>
  </linearGradient>
  <linearGradient id="h" x1="176" x2="334" y1="389.36" y2="450.36" gradientUnits="userSpaceOnUse" xlink:href="#d"/>
  <linearGradient id="i" x1="176" x2="334" y1="389.36" y2="450.36" gradientTransform="matrix(.15134 0 0 .1461 280.5 305.23)" gradientUnits="userSpaceOnUse" xlink:href="#d"/>
  <radialGradient id="e" cx="234.54" cy="602" r="69.5" gradientTransform="matrix(.93991 0 .01283 .86838 6.327 78.099)" gradientUnits="userSpaceOnUse">
   <stop offset="0"/>
   <stop stop-opacity="0" offset="1"/>
  </radialGradient>
  <radialGradient id="f" cx="277.43" cy="460.66" r="92.5" gradientTransform="matrix(1.0791 -.51766 .53539 .63916 -263.29 306.98)" gradientUnits="userSpaceOnUse">
   <stop stop-color="#ffea00" offset="0"/>
   <stop stop-color="#ffc900" offset="1"/>
  </radialGradient>
  <radialGradient id="g" cx="462.96" cy="437.18" r="23.658" gradientTransform="matrix(1.1011 .56232 -.62879 .82424 225.12 -187.31)" gradientUnits="userSpaceOnUse">
   <stop stop-color="#fff" offset="0"/>
   <stop stop-color="#d4d4d4" offset="1"/>
  </radialGradient>
 </defs>
 <path transform="matrix(.82971 0 0 .31337 -130.42 -82.787)" d="M304 600.862a69.5 69.5 0 11-139 0 69.5 69.5 0 11139 0z" fill="url(#e)" opacity=".506"/>
 <path d="M109.436 51.056c2.465-3.56-5.444-13.859-5.444-13.859L56.474 54.521l-.495 11.385 44.053 16.829s10.843-9.888 8.91-12.374c-1.733-2.228-34.773-9.529-34.65-11.88.15-2.845 32.917-4.207 35.144-7.425z" fill="#dae5ed" fill-rule="evenodd" stroke="#72708a" stroke-width="1.4849"/>
 <path d="M100.62 35.58c-.74 7.069 1.096 14.733-16.103 18.004 9.328-1.228 20.204-2.447 21.454-4.254 2.31-3.337-4.492-12.606-5.352-13.75zM89.621 64.906c6.213 3.462 13.402 4.403 8.956 16.643 3.064-3.059 8.009-8.448 6.65-10.193-.814-1.048-7.355-3.446-15.606-6.45z" fill="#fff" fill-rule="evenodd"/>
 <path transform="matrix(.37513 .3816 -.50426 .49571 183.25 -274.36)" d="M374.429 422.45c18.901 35.894-4.255 76.636-51.687 90.94-47.433 14.303-101.27-3.22-120.17-39.115-18.902-35.895 4.254-76.636 51.686-90.94 23.904-7.208 47.743-6.909 71.318.896 0 0-40.654 60.047-37.076 64.131 3.65 4.165 85.929-25.913 85.929-25.913z" fill="url(#f)" stroke="#9b8e19" stroke-linecap="square" stroke-linejoin="round" stroke-width="2.414"/>
 <path transform="matrix(.50882 0 0 .6219 -162.39 -237.75)" d="M493 433.362a22 18 0 11-44 0 22 18 0 1144 0z" fill="url(#g)" stroke="#484848" stroke-linecap="square" stroke-linejoin="round" stroke-width="3.317"/>
 <path d="M87.213 32.685a7.774 7.774 0 11-15.547 0 7.774 7.774 0 1115.547 0z"/>
 <path transform="matrix(.49498 0 0 .49498 -81.13 -149.09)" d="M298.344 328.344c-35.118.539-68.397 20.087-83.469 52.562-17.948 38.674-4.204 83.04 30.531 106.813C261.412 480.68 273 475.375 273 475.375c-29.452-57.713-4.43-98.918 54-130L314.719 329.5a96.94 96.94 0 00-16.375-1.156z" fill="url(#h)"/>
 <path transform="matrix(.49498 0 0 .49498 -81.13 -149.09)" d="M325.645 353.205c-5.314.078-10.35 2.934-12.632 7.679-2.716 5.65-.636 12.132 4.62 15.606 2.423-1.029 4.177-1.804 4.177-1.804-4.457-8.432-.67-14.452 8.172-18.993l-1.859-2.32a15.184 15.184 0 00-2.478-.168z" fill="url(#i)"/>
</svg>
