<?xml version="1.0" encoding="UTF-8"?>
<svg width="160" height="160" xmlns="http://www.w3.org/2000/svg" xmlns:xlink="http://www.w3.org/1999/xlink">
 <defs>
  <linearGradient id="b">
   <stop stop-color="#fff" stop-opacity=".5" offset="0"/>
   <stop stop-color="#fff" stop-opacity="0" offset="1"/>
  </linearGradient>
  <linearGradient id="d" x1=".133" x2=".938" y1=".117" y2=".945" xlink:href="#b"/>
  <linearGradient id="e" x1=".29" x2=".623" y1="-.05" y2=".68" xlink:href="#b"/>
  <linearGradient id="f" x1=".192" x2=".549" y1=".156" y2=".563" xlink:href="#b"/>
  <radialGradient id="c" cx=".438" cy=".242" r=".399" fx=".446" fy=".25">
   <stop stop-color="#fff" offset="0"/>
   <stop stop-color="#ffc613" offset="1"/>
  </radialGradient>
 </defs>
 <path transform="matrix(1.02 0 0 1.0522 -6.698 -9.934)" d="m130.96 72.296c0 25.884-21.682 46.89-48.397 46.89s-48.397-21.006-48.397-46.889 21.682-46.89 48.397-46.89 48.397 21.007 48.397 46.89z" fill="url(#c)" fill-rule="evenodd" stroke="#000" stroke-linejoin="round" stroke-width="2.413"/>
 <g fill-rule="evenodd">
  <path transform="matrix(.9988 0 0 1.0704 -74.347 33.773)" d="m143.02 21.387c0 6.101-5.327 11.053-11.89 11.053s-11.89-4.952-11.89-11.053c0-6.1 5.327-11.052 11.89-11.052s11.89 4.951 11.89 11.052z" fill="#fff" stroke="#000" stroke-linejoin="round" stroke-width="2.418"/>
  <path d="m62.9 56.584c0 3.45-2.8 6.25-6.25 6.25s-6.25-2.8-6.25-6.25 2.8-6.25 6.25-6.25 6.25 2.8 6.25 6.25z" fill="#00f"/>
  <path d="m60.398 56.64c0 2.07-1.68 3.75-3.75 3.75s-3.75-1.68-3.75-3.75 1.68-3.75 3.75-3.75 3.75 1.68 3.75 3.75z"/>
  <path transform="translate(-74.49 36.103)" d="m135.38 19.288c0 2.76-2.24 5-5 5s-5-2.24-5-5 2.24-5 5-5 5 2.24 5 5z" fill="url(#d)"/>
  <path transform="matrix(.9988 0 0 1.0704 -34.308 32.587)" d="m143.02 21.387c0 6.101-5.327 11.053-11.89 11.053s-11.89-4.952-11.89-11.053c0-6.1 5.327-11.052 11.89-11.052s11.89 4.951 11.89 11.052z" fill="#fff" stroke="#000" stroke-linejoin="round" stroke-width="2.418"/>
  <path d="m102.94 55.397c0 3.45-2.8 6.25-6.25 6.25s-6.25-2.8-6.25-6.25 2.8-6.25 6.25-6.25 6.25 2.8 6.25 6.25z" fill="#00f"/>
  <path d="m100.44 55.454c0 2.07-1.68 3.75-3.75 3.75s-3.75-1.68-3.75-3.75 1.68-3.75 3.75-3.75 3.75 1.68 3.75 3.75z"/>
  <path transform="translate(-34.45 34.916)" d="m135.38 19.288c0 2.76-2.24 5-5 5s-5-2.24-5-5 2.24-5 5-5 5 2.24 5 5z" fill="url(#d)"/>
 </g>
 <path d="m49.94 87.244c8.396 12.375 49.497 11.933 57.452-3.535" fill="none" stroke="#000" stroke-linejoin="round" stroke-width="2.5"/>
 <path d="M31.457 39.19c8.205 6.855 29.968 10.872 46.508 10.97 12.438-.702 34.472-8.05 43.934-13.063 3.496 5.307 5.676 10.648 6.237 15.077-1.723 5.812-9.057 11.087-13.97 14.216-6.218 3.383-16.723 4.19-23.5 1.963-4.496-2.377-9.128-8.29-12.25-7.598-3.519-.26-6.803 8.275-12.225 10.264-5.945 3.175-17.963 3.354-21.885.897-3.713-2.137-18.655-14.4-17.723-21.396.238-1.77 3.345-10.351 4.874-11.33z" fill-opacity=".95" fill-rule="evenodd"/>
 <path d="M65.357 50.418c-7.292-.056-30.29-6.721-34.063-9.805-1.418 2.586-4.044 6.907-3.273 9.918 3.06 9.964 7.776-2.802 37.336-.113z" fill="url(#e)" fill-rule="evenodd"/>
 <path d="M83.5 51.037s25.86-7.054 37.819-12.415C96.372 49.137 91.129 65.675 83.5 51.037z" fill="url(#f)" fill-rule="evenodd"/>
</svg>
