<svg width="400pt" height="400pt" xmlns="http://www.w3.org/2000/svg" xmlns:xlink="http://www.w3.org/1999/xlink"><defs><radialGradient xlink:href="#a" id="c" cx=".305" cy=".328" fx=".305" fy=".328" r=".33" gradientUnits="objectBoundingBox" spreadMethod="pad"/><radialGradient xlink:href="#b" id="d" cx=".448" cy=".977" fx=".448" fy=".977" r=".771" gradientUnits="objectBoundingBox" spreadMethod="pad"/><linearGradient id="b"><stop offset="0" stop-color="#fff"/><stop offset="1"/></linearGradient><linearGradient id="a"><stop offset="0" stop-color="#e6cd00"/><stop offset="1" stop-color="#ff9f2d"/></linearGradient></defs><path d="M491.649 259.572a229.036 224.84 0 10-458.073 0 229.036 224.839 0 10458.073 0H262.612z" transform="matrix(1.0602 0 0 1.08533 -27.204 -30.544)" fill-rule="evenodd" fill="url(#c)"/><g fill-rule="evenodd"><path d="M159.036 169.47a17.987 17.388 0 10-35.975 0 17.987 17.388 0 1035.974 0H141.05z" stroke="#000" fill="#fff" stroke-width="2.5"/><path d="M166.68 161.242a12.591 12.591 0 10-25.181 0 12.591 12.591 0 1025.182 0H154.09z" transform="matrix(1.2381 0 0 1 -49.73 11.825)" fill="url(#d)"/></g><g fill-rule="evenodd"><path d="M374.882 167.072a17.987 17.388 0 10-35.975 0 17.987 17.388 0 1035.974 0h-17.987z" stroke="#000" fill="#fff" stroke-width="2.5"/><path d="M166.68 161.242a12.591 12.591 0 10-25.181 0 12.591 12.591 0 1025.182 0H154.09z" transform="matrix(1.2381 0 0 1 166.116 9.427)" fill="url(#d)"/></g><path d="M150.593 350.119c2.398 2.398 11.033-.189 100.969-1.389 83.939-1.199 88.123-.58 107.401-1.865" fill="none" stroke="#000" stroke-width="6.25"/></svg>