<?xml version="1.0" encoding="UTF-8"?>
<svg width="400pt" height="400pt" xmlns="http://www.w3.org/2000/svg" xmlns:xlink="http://www.w3.org/1999/xlink">
 <defs>
  <radialGradient id="c" cx=".305" cy=".328" r=".33">
   <stop stop-color="#e6cd00" offset="0"/>
   <stop stop-color="#ff9f2d" offset="1"/>
  </radialGradient>
  <radialGradient id="d" cx=".448" cy=".977" r=".771">
   <stop stop-color="#fff" offset="0"/>
   <stop offset="1"/>
  </radialGradient>
 </defs>
 <g fill="red" fill-rule="evenodd" stroke="#000">
  <path d="m147.5 344.11s69.55 49.165 105.52 50.364c34.775-2.398 91.135-51.563 91.135-51.563" font-size="12" stroke-width="3.75"/>
  <path d="m146.3 344.11s52.762 17.987 53.961 17.987 38.373 7.195 38.373 7.195l52.762-2.398s27.58-11.991 28.779-11.991c1.2 0 23.983-10.793 23.983-10.793" stroke-width="1pt"/>
 </g>
 <path transform="matrix(1.0602 0 0 1.0853 -27.204 -30.544)" d="m491.65 259.57a229.04 224.84 0 1 0-458.07 0 229.04 224.84 0 1 0 458.07 0h-229.04z" fill="url(#c)" fill-rule="evenodd"/>
 <g fill-rule="evenodd">
  <path d="M159.036 169.47a17.987 17.388 0 10-35.975 0 17.987 17.388 0 1035.974 0H141.05z" fill="#fff" stroke="#000" stroke-width="2.5"/>
  <path transform="matrix(1.2381 0 0 1 -49.73 11.825)" d="M166.68 161.242a12.591 12.591 0 10-25.181 0 12.591 12.591 0 1025.182 0H154.09z" fill="url(#d)"/>
  <path d="M374.882 167.072a17.987 17.388 0 10-35.975 0 17.987 17.388 0 1035.974 0h-17.987z" fill="#fff" stroke="#000" stroke-width="2.5"/>
  <path transform="matrix(1.2381 0 0 1 166.12 9.427)" d="M166.68 161.242a12.591 12.591 0 10-25.181 0 12.591 12.591 0 1025.182 0H154.09z" fill="url(#d)"/>
 </g>
 <path d="m153.49 346.51s55.162 41.97 99.529 40.771c40.771-1e-3 103.13-51.563 103.13-51.563l-35.975 19.186-39.572 13.19-45.567 1.199-38.372-5.995-43.17-16.788z" fill="red" fill-rule="evenodd" stroke="#000" stroke-width="3.75"/>
 <path d="m104.32 314.13c2.398 2.398 61.157 56.36 151.09 55.16 83.939-1.199 133.1-63.555 133.1-63.555" fill="none" font-size="12" stroke="#000" stroke-width="3.75"/>
</svg>
