<?xml version="1.0" encoding="UTF-8"?>
<svg width="160" height="160" xmlns="http://www.w3.org/2000/svg" xmlns:xlink="http://www.w3.org/1999/xlink">
 <defs>
  <linearGradient id="d" x1=".133" x2=".938" y1=".117" y2=".945">
   <stop stop-color="#fff" stop-opacity=".5" offset="0"/>
   <stop stop-color="#fff" stop-opacity="0" offset="1"/>
  </linearGradient>
  <radialGradient id="c" cx=".438" cy=".242" r=".399" fx=".446" fy=".25">
   <stop stop-color="#fff" offset="0"/>
   <stop stop-color="#ffc613" offset="1"/>
  </radialGradient>
 </defs>
 <path transform="matrix(1.02 0 0 1.0522 -6.698 -9.934)" d="m130.96 72.296c0 25.884-21.682 46.89-48.397 46.89s-48.397-21.006-48.397-46.889 21.682-46.89 48.397-46.89 48.397 21.007 48.397 46.89z" fill="url(#c)" fill-rule="evenodd" stroke="#000" stroke-linejoin="round" stroke-width="2.413"/>
 <g fill-rule="evenodd">
  <path transform="matrix(.9988 0 0 1.0704 -74.347 33.773)" d="m143.02 21.387c0 6.101-5.327 11.053-11.89 11.053s-11.89-4.952-11.89-11.053c0-6.1 5.327-11.052 11.89-11.052s11.89 4.951 11.89 11.052z" fill="#fff" stroke="#000" stroke-linejoin="round" stroke-width="2.418"/>
  <path d="m62.9 56.584c0 3.45-2.8 6.25-6.25 6.25s-6.25-2.8-6.25-6.25 2.8-6.25 6.25-6.25 6.25 2.8 6.25 6.25z" fill="#00f"/>
  <path d="m60.398 56.64c0 2.07-1.68 3.75-3.75 3.75s-3.75-1.68-3.75-3.75 1.68-3.75 3.75-3.75 3.75 1.68 3.75 3.75z"/>
  <path transform="translate(-74.49 36.103)" d="m135.38 19.288c0 2.76-2.24 5-5 5s-5-2.24-5-5 2.24-5 5-5 5 2.24 5 5z" fill="url(#d)"/>
  <path transform="matrix(.9988 0 0 1.0704 -34.308 32.587)" d="m143.02 21.387c0 6.101-5.327 11.053-11.89 11.053s-11.89-4.952-11.89-11.053c0-6.1 5.327-11.052 11.89-11.052s11.89 4.951 11.89 11.052z" fill="#fff" stroke="#000" stroke-linejoin="round" stroke-width="2.418"/>
  <path d="m102.94 55.397c0 3.45-2.8 6.25-6.25 6.25s-6.25-2.8-6.25-6.25 2.8-6.25 6.25-6.25 6.25 2.8 6.25 6.25z" fill="#00f"/>
  <path d="m100.44 55.454c0 2.07-1.68 3.75-3.75 3.75s-3.75-1.68-3.75-3.75 1.68-3.75 3.75-3.75 3.75 1.68 3.75 3.75z"/>
  <path transform="translate(-34.45 34.916)" d="m135.38 19.288c0 2.76-2.24 5-5 5s-5-2.24-5-5 2.24-5 5-5 5 2.24 5 5z" fill="url(#d)"/>
 </g>
 <path d="m49.94 87.244c8.396 12.375 49.497 11.933 57.452-3.535" fill="none" stroke="#000" stroke-linejoin="round" stroke-width="2.5"/>
 <path d="M59.12 94.602c.194-4.844-.851-9.089-.531-15.589.777-3.482-1.313-11.712-7.971-7.411-1.994 4.07.221 10.045-.404 14.468.003 2.32.32 5.348.462 6.124.488-5.454-1.193-8.942-1.149-13.802-1.345-3.107-1.172-11.118-6.316-8.615-4.605 2.216-3.114 8.179-2.269 13.003.447 2.57.958 7.952.01 8.787-1.06-5.285-.537-10.814-1.866-16.048-3.182-4.132-7.861 1.657-7.181 5.7-.28 4.464 1.037 10.583.618 14.896.04-3.688.997-9.513-1.368-12.892-3.265-3.599-6.476-.548-6.978 2.99-.345 4.463.282 12.379 1.347 14.941.262 4.184 5.887 16.676 9.25 18.513 3.139 2.284 20.51 2.48 24.553-1.049 3.173-2.994 1.629-11.324 3.778-14.539 1.764-3.343 4.814-4.418 10.823-7.042 1.384-4.347.642-6.196-3.498-6.977-5.26-.37-8.531.751-11.31 4.542z" fill="#fff" fill-rule="evenodd" stroke="#000" stroke-linejoin="round" stroke-width="2.5"/>
</svg>
