<?xml version="1.0" encoding="UTF-8"?>
<svg width="160" height="160" xmlns="http://www.w3.org/2000/svg" xmlns:xlink="http://www.w3.org/1999/xlink">
 <defs>
  <linearGradient id="e" x1=".133" x2=".938" y1=".117" y2=".945">
   <stop stop-color="#fff" stop-opacity=".5" offset="0"/>
   <stop stop-color="#fff" stop-opacity="0" offset="1"/>
  </linearGradient>
  <linearGradient id="f" x1="-.207" x2="1.554" y1=".758" y2=".367">
   <stop stop-color="#fff" offset="0"/>
   <stop stop-color="#9d7fea" offset="1"/>
  </linearGradient>
  <radialGradient id="d" cx=".438" cy=".242" r=".399" fx=".446" fy=".25">
   <stop stop-color="#fff" offset="0"/>
   <stop stop-color="#ffc613" offset="1"/>
  </radialGradient>
 </defs>
 <path transform="matrix(1.02 0 0 1.0522 -6.698 -9.934)" d="m130.96 72.296c0 25.884-21.682 46.89-48.397 46.89s-48.397-21.006-48.397-46.889 21.682-46.89 48.397-46.89 48.397 21.007 48.397 46.89z" fill="url(#d)" fill-rule="evenodd" stroke="#000" stroke-linejoin="round" stroke-width="2.413"/>
 <g fill-rule="evenodd">
  <path transform="matrix(.9988 0 0 1.0704 -74.347 33.773)" d="m143.02 21.387c0 6.101-5.327 11.053-11.89 11.053s-11.89-4.952-11.89-11.053c0-6.1 5.327-11.052 11.89-11.052s11.89 4.951 11.89 11.052z" fill="#fff" stroke="#000" stroke-linejoin="round" stroke-width="2.418"/>
  <path d="m62.9 56.584c0 3.45-2.8 6.25-6.25 6.25s-6.25-2.8-6.25-6.25 2.8-6.25 6.25-6.25 6.25 2.8 6.25 6.25z" fill="#00f"/>
  <path d="m60.398 56.64c0 2.07-1.68 3.75-3.75 3.75s-3.75-1.68-3.75-3.75 1.68-3.75 3.75-3.75 3.75 1.68 3.75 3.75z"/>
  <path transform="translate(-74.49 36.103)" d="m135.38 19.288c0 2.76-2.24 5-5 5s-5-2.24-5-5 2.24-5 5-5 5 2.24 5 5z" fill="url(#e)"/>
  <path transform="matrix(.9988 0 0 1.0704 -34.308 32.587)" d="m143.02 21.387c0 6.101-5.327 11.053-11.89 11.053s-11.89-4.952-11.89-11.053c0-6.1 5.327-11.052 11.89-11.052s11.89 4.951 11.89 11.052z" fill="#fff" stroke="#000" stroke-linejoin="round" stroke-width="2.418"/>
  <path d="m102.94 55.397c0 3.45-2.8 6.25-6.25 6.25s-6.25-2.8-6.25-6.25 2.8-6.25 6.25-6.25 6.25 2.8 6.25 6.25z" fill="#00f"/>
  <path d="m100.44 55.454c0 2.07-1.68 3.75-3.75 3.75s-3.75-1.68-3.75-3.75 1.68-3.75 3.75-3.75 3.75 1.68 3.75 3.75z"/>
  <path transform="translate(-34.45 34.916)" d="m135.38 19.288c0 2.76-2.24 5-5 5s-5-2.24-5-5 2.24-5 5-5 5 2.24 5 5z" fill="url(#e)"/>
 </g>
 <path d="M63.542 87.788c7.308-4.492 22.293-4.39 32.424-.27" fill="none" stroke="#000" stroke-linejoin="round" stroke-width="2.5"/>
 <path d="M121.951 102.162c-5.01-.417-10.607 1.772-15.142-1.222-3.148-1.972-1.223-6.311.727-8.477 3.928-4.75 10.788-6.872 12.933-13.06 1.443-3.454-1.355-7.081-4.756-7.794-5.286-1.384-10.687.852-15.488 2.856-3.004 2.128-6.325-1.456-6.087-4.534.195-3.575 2.607-7.062 6.194-7.962 3.617-1.074 7.442-.723 11.15-1.243 8.172-.622 17.406.216 23.482 6.357 5.216 5.188 4.165 14.109-.473 19.313-3.131 4.44-8.202 6.947-11.694 11.007-.85 1.415-1.103 3.142-.846 4.759zm-17.158 6.059c5.036.984 10.643-1.951 15.28 1.042 2.576 1.796 2.502 5.403 2.281 8.216-.26 3.006-2.781 5.395-5.773 5.606-3.94.818-9.048.694-11.547-2.965-1.865-3.812.75-7.962-.24-11.899z" fill="url(#f)" font-family="Bitstream Vera Sans" font-size="12" font-weight="700" stroke="#000" stroke-linejoin="round" stroke-width="2.5"/>
</svg>
