<?xml version="1.0" encoding="UTF-8"?>
<svg width="400pt" height="400pt" xmlns="http://www.w3.org/2000/svg" xmlns:xlink="http://www.w3.org/1999/xlink">
 <defs>
  <radialGradient id="c" cx=".305" cy=".328" r=".33">
   <stop stop-color="#e6cd00" offset="0"/>
   <stop stop-color="#ff9f2d" offset="1"/>
  </radialGradient>
  <radialGradient id="d" cx=".91" cy=".898" r=".451" xlink:href="#b"/>
  <radialGradient id="e" cx=".197" cy=".883" r=".557" xlink:href="#b"/>
  <linearGradient id="b">
   <stop stop-color="#fff" offset="0"/>
   <stop offset="1"/>
  </linearGradient>
 </defs>
 <path transform="matrix(1.0602 0 0 1.0853 -27.204 -30.544)" d="m491.65 259.57a229.04 224.84 0 1 0-458.07 0 229.04 224.84 0 1 0 458.07 0h-229.04z" fill="url(#c)" fill-rule="evenodd"/>
 <path d="m104.32 314.13c2.398 2.398 61.157 56.36 151.09 55.16 83.939-1.199 133.1-63.555 133.1-63.555" fill="none" stroke="#000" stroke-width="3.75"/>
 <g fill-rule="evenodd">
  <path transform="matrix(1.1644 0 0 1 -2.873 -4.797)" d="m49.165 104.28c2.398 0-9.594-1.199 67.152 29.978 35.974 7.196 64.754 8.394 91.135 1.2l-1.2 58.758c-15.589 10.792-34.774 32.376-62.355 29.978-34.775 2.398-68.351-19.186-76.745-47.966-17.987-44.368-21.585-33.576-34.775-47.965l16.788-23.983z" fill="url(#d)"/>
  <path transform="matrix(-1.1644 0 0 1 507.81 -5.563)" d="m49.165 104.28c2.398 0-9.594-1.199 67.152 29.978 35.974 7.196 64.754 8.394 91.135 1.2l-1.2 58.758c-15.589 10.792-34.774 32.376-62.355 29.978-34.775 2.398-68.351-19.186-76.745-47.966-17.987-44.368-21.585-33.576-34.775-47.965l16.788-23.983z" fill="url(#e)"/>
  <path d="M236.282 131.319l16.788-2.398c8.394-1.2 15.767 2.373 14.567 1.072-1.199 1.199-.177 14.517-.177 14.517.191.586-5.923-4.318-15.452-3.903-6.406-.041-15.548 5.98-15.726 6.098v-15.386z"/>
 </g>
</svg>
