<?xml version="1.0" encoding="UTF-8"?>
<svg width="160" height="160" xmlns="http://www.w3.org/2000/svg" xmlns:xlink="http://www.w3.org/1999/xlink">
 <defs>
  <linearGradient id="d" x1=".133" x2=".938" y1=".117" y2=".945">
   <stop stop-color="#fff" stop-opacity=".5" offset="0"/>
   <stop stop-color="#fff" stop-opacity="0" offset="1"/>
  </linearGradient>
  <radialGradient id="c" cx=".438" cy=".242" r=".399" fx=".446" fy=".25">
   <stop stop-color="#fff" offset="0"/>
   <stop stop-color="#ffc613" offset="1"/>
  </radialGradient>
 </defs>
 <path transform="matrix(1.02 0 0 1.0522 -6.698 -9.934)" d="m130.96 72.296c0 25.884-21.682 46.89-48.397 46.89s-48.397-21.006-48.397-46.889 21.682-46.89 48.397-46.89 48.397 21.007 48.397 46.89z" fill="url(#c)" fill-rule="evenodd" stroke="#000" stroke-linejoin="round" stroke-width="2.413"/>
 <g fill-rule="evenodd">
  <path transform="matrix(.9988 0 0 1.0704 -74.347 33.773)" d="m143.02 21.387c0 6.101-5.327 11.053-11.89 11.053s-11.89-4.952-11.89-11.053c0-6.1 5.327-11.052 11.89-11.052s11.89 4.951 11.89 11.052z" fill="#fff" stroke="#000" stroke-linejoin="round" stroke-width="2.418"/>
  <path d="m62.9 56.584c0 3.45-2.8 6.25-6.25 6.25s-6.25-2.8-6.25-6.25 2.8-6.25 6.25-6.25 6.25 2.8 6.25 6.25z" fill="#00f"/>
  <path d="m60.398 56.64c0 2.07-1.68 3.75-3.75 3.75s-3.75-1.68-3.75-3.75 1.68-3.75 3.75-3.75 3.75 1.68 3.75 3.75z"/>
  <path transform="translate(-74.49 36.103)" d="m135.38 19.288c0 2.76-2.24 5-5 5s-5-2.24-5-5 2.24-5 5-5 5 2.24 5 5z" fill="url(#d)"/>
  <path transform="matrix(.9988 0 0 1.0704 -34.308 32.587)" d="m143.02 21.387c0 6.101-5.327 11.053-11.89 11.053s-11.89-4.952-11.89-11.053c0-6.1 5.327-11.052 11.89-11.052s11.89 4.951 11.89 11.052z" fill="#fff" stroke="#000" stroke-linejoin="round" stroke-width="2.418"/>
  <path d="m102.94 55.397c0 3.45-2.8 6.25-6.25 6.25s-6.25-2.8-6.25-6.25 2.8-6.25 6.25-6.25 6.25 2.8 6.25 6.25z" fill="#00f"/>
  <path d="m100.44 55.454c0 2.07-1.68 3.75-3.75 3.75s-3.75-1.68-3.75-3.75 1.68-3.75 3.75-3.75 3.75 1.68 3.75 3.75z"/>
  <path transform="translate(-34.45 34.916)" d="m135.38 19.288c0 2.76-2.24 5-5 5s-5-2.24-5-5 2.24-5 5-5 5 2.24 5 5z" fill="url(#d)"/>
 </g>
 <path d="M35.897 52.36c0-6.385 35.538-6.277 35.538-2.512 2.153 3.836 3.23 12.334 0 15.794-10.41 5.3-28.768 2.872-30.872 2.872-4.05-2.154-5.481-8.382-4.666-16.153zM117.321 48.76c-.735-6.344-36.024-2.143-35.59 1.597-1.698 4.058-1.79 12.624 1.818 15.69 10.952 4.065 28.907-.462 30.997-.704 3.776-2.606 4.48-8.958 2.775-16.583zM72.763 55.236c1.915-1.914 5.731-2.038 8.005-.004M35.28 52.906c-1.8 0-2.04 1.112-2.04 4.374 0 1.472 1.611 2.47 2.04 2.04" fill="none" stroke="#000" stroke-linejoin="round" stroke-width="2.5"/>
 <path d="m117.94 49.357c1.801 0 2.041 1.112 2.041 4.374 0 1.472-1.612 2.47-2.04 2.04" fill="none" stroke="#000" stroke-linejoin="round" stroke-width="2.5"/>
 <path d="M69.494 86.231l.377 8.435 6.244-.327-.498-8.606s-4.665.206-6.123.498zM85.252 85.788l.285 8.438-6.25.164-.178-8.619s4.667-.16 6.143.017z" fill="#ffeaff" fill-rule="evenodd" stroke="#000" stroke-width="2.5"/>
 <path d="m60.015 89.174c7.657-4.54 27.394-4.668 34.564-1.74" fill="none" stroke="#000" stroke-linejoin="round" stroke-width="2.5"/>
</svg>
