<?xml version="1.0" encoding="UTF-8"?>
<svg width="160" height="160" xmlns="http://www.w3.org/2000/svg" xmlns:xlink="http://www.w3.org/1999/xlink">
 <defs>
  <linearGradient id="d" x1=".133" x2=".938" y1=".117" y2=".945">
   <stop stop-color="#fff" stop-opacity=".5" offset="0"/>
   <stop stop-color="#fff" stop-opacity="0" offset="1"/>
  </linearGradient>
  <radialGradient id="c" cx=".438" cy=".242" r=".399" fx=".446" fy=".25">
   <stop stop-color="#fff" offset="0"/>
   <stop stop-color="#ffc613" offset="1"/>
  </radialGradient>
 </defs>
 <path transform="matrix(1.02 0 0 1.0522 -6.698 -9.934)" d="m130.96 72.296c0 25.884-21.682 46.89-48.397 46.89s-48.397-21.006-48.397-46.889 21.682-46.89 48.397-46.89 48.397 21.007 48.397 46.89z" fill="url(#c)" fill-rule="evenodd" stroke="#000" stroke-linejoin="round" stroke-width="2.413"/>
 <g fill-rule="evenodd">
  <path transform="matrix(.9988 0 0 1.0704 -74.347 33.773)" d="m143.02 21.387c0 6.101-5.327 11.053-11.89 11.053s-11.89-4.952-11.89-11.053c0-6.1 5.327-11.052 11.89-11.052s11.89 4.951 11.89 11.052z" fill="#fff" stroke="#000" stroke-linejoin="round" stroke-width="2.418"/>
  <path d="m62.9 56.584c0 3.45-2.8 6.25-6.25 6.25s-6.25-2.8-6.25-6.25 2.8-6.25 6.25-6.25 6.25 2.8 6.25 6.25z" fill="#00f"/>
  <path d="m60.398 56.64c0 2.07-1.68 3.75-3.75 3.75s-3.75-1.68-3.75-3.75 1.68-3.75 3.75-3.75 3.75 1.68 3.75 3.75z"/>
  <path transform="translate(-74.49 36.103)" d="m135.38 19.288c0 2.76-2.24 5-5 5s-5-2.24-5-5 2.24-5 5-5 5 2.24 5 5z" fill="url(#d)"/>
  <path transform="matrix(.9988 0 0 1.0704 -34.308 32.587)" d="m143.02 21.387c0 6.101-5.327 11.053-11.89 11.053s-11.89-4.952-11.89-11.053c0-6.1 5.327-11.052 11.89-11.052s11.89 4.951 11.89 11.052z" fill="#fff" stroke="#000" stroke-linejoin="round" stroke-width="2.418"/>
  <path d="m102.94 55.397c0 3.45-2.8 6.25-6.25 6.25s-6.25-2.8-6.25-6.25 2.8-6.25 6.25-6.25 6.25 2.8 6.25 6.25z" fill="#00f"/>
  <path d="m100.44 55.454c0 2.07-1.68 3.75-3.75 3.75s-3.75-1.68-3.75-3.75 1.68-3.75 3.75-3.75 3.75 1.68 3.75 3.75z"/>
  <path transform="translate(-34.45 34.916)" d="m135.38 19.288c0 2.76-2.24 5-5 5s-5-2.24-5-5 2.24-5 5-5 5 2.24 5 5z" fill="url(#d)"/>
 </g>
 <path d="m67.888 89.757c9.115 3.041 12.524 1.163 19.402-1.74" fill="none" stroke="#000" stroke-linejoin="round" stroke-width="2.5"/>
 <g fill="#fff" fill-rule="evenodd" stroke="#000" stroke-linejoin="round" stroke-width="2.5">
  <path d="M82.453 109.678c.194-4.844-.851-9.088-.531-15.588.777-3.483-1.313-11.712-7.971-7.412-1.994 4.072.221 10.045-.404 14.468.003 2.321.32 5.349.462 6.125.488-5.454-26.217 6.397-25.152 8.96.262 4.183 5.887 16.676 9.25 18.513 3.139 2.283 20.51 2.48 24.553-1.05 3.173-2.993 1.628-11.324 3.778-14.538 1.764-3.343-1.206-13.268-3.985-9.478z"/>
  <path d="m82.922 106.21c-0.405 0.202-3.59 5.697-3.59 8.974 0 3.584 2.806 3.59 4.667 3.59 1.504-1.505 6.461-4.459 6.461-7.18 0-2.828-2.82-5.384-7.538-5.384zm-12.564-6.821c-1.884 0-6.588 1.31-6.82 3.95 1.435 3.433 2.585 7.324 3.948 10.05 2.276 1.138 6.82 1.465 6.82-2.872 0-2.335-0.955-11.128-3.948-11.128zm-3.231 14c0-0.743-3.498-5.92-4.667-8.256-3.23-1.279-6.654 1.243-7.179 4.667 0 4.331 2.998 7.974 7.538 7.897 1.898-0.949 3.891-1.429 4.308-4.308z"/>
  <path d="m57.794 117.33c0-0.734-2.32-5.192-3.59-6.462-3.895-1.382-7.538 1.794-6.82 5.385 2.298 2.298 3.223 5.743 7.18 5.743 2.84 0 2.74-2.214 3.23-4.666z"/>
 </g>
</svg>
