<?xml version="1.0" encoding="UTF-8"?>
<svg width="160" height="160" xmlns="http://www.w3.org/2000/svg" xmlns:xlink="http://www.w3.org/1999/xlink">
 <defs>
  <linearGradient id="d" x1=".133" x2=".938" y1=".117" y2=".945">
   <stop stop-color="#fff" stop-opacity=".5" offset="0"/>
   <stop stop-color="#fff" stop-opacity="0" offset="1"/>
  </linearGradient>
  <radialGradient id="c" cx=".444" cy=".313" r=".28">
   <stop stop-color="#fff" offset="0"/>
   <stop stop-color="#ffc613" offset="1"/>
  </radialGradient>
 </defs>
 <path d="m119.88 14.75-14.094 11.063c-8.022-5.626-17.743-9-28.281-9-10.978 0-21.018 3.684-29.219 9.75l-14.062-11 2.062 23.562c-5.106 7.768-8.125 17.017-8.125 27 0 27.233 22.096 49.344 49.344 49.344s49.375-22.11 49.375-49.344c0-10.532-3.365-20.239-9-28.25l2-23.125z" fill="url(#c)" fill-rule="evenodd" stroke="#000" stroke-width="2.5"/>
 <g fill-rule="evenodd">
  <path transform="matrix(.9988 0 0 1.0704 -74.347 33.773)" d="m143.02 21.387c0 6.101-5.327 11.053-11.89 11.053s-11.89-4.952-11.89-11.053c0-6.1 5.327-11.052 11.89-11.052s11.89 4.951 11.89 11.052z" fill="#fff" stroke="#000" stroke-linejoin="round" stroke-width="2.418"/>
  <path d="m62.9 56.584c0 3.45-2.8 6.25-6.25 6.25s-6.25-2.8-6.25-6.25 2.8-6.25 6.25-6.25 6.25 2.8 6.25 6.25z" fill="#00f"/>
  <path d="m60.398 56.64c0 2.07-1.68 3.75-3.75 3.75s-3.75-1.68-3.75-3.75 1.68-3.75 3.75-3.75 3.75 1.68 3.75 3.75z"/>
  <path transform="translate(-74.49 36.103)" d="m135.38 19.288c0 2.76-2.24 5-5 5s-5-2.24-5-5 2.24-5 5-5 5 2.24 5 5z" fill="url(#d)"/>
  <path transform="matrix(.9988 0 0 1.0704 -34.308 32.587)" d="m143.02 21.387c0 6.101-5.327 11.053-11.89 11.053s-11.89-4.952-11.89-11.053c0-6.1 5.327-11.052 11.89-11.052s11.89 4.951 11.89 11.052z" fill="#fff" stroke="#000" stroke-linejoin="round" stroke-width="2.418"/>
  <path d="m102.94 55.397c0 3.45-2.8 6.25-6.25 6.25s-6.25-2.8-6.25-6.25 2.8-6.25 6.25-6.25 6.25 2.8 6.25 6.25z" fill="#00f"/>
  <path d="m100.44 55.454c0 2.07-1.68 3.75-3.75 3.75s-3.75-1.68-3.75-3.75 1.68-3.75 3.75-3.75 3.75 1.68 3.75 3.75z"/>
  <path transform="translate(-34.45 34.916)" d="m135.38 19.288c0 2.76-2.24 5-5 5s-5-2.24-5-5 2.24-5 5-5 5 2.24 5 5z" fill="url(#d)"/>
 </g>
 <path d="M49.94 87.244c1.049 1.547 2.61 2.894 4.553 4.036.971.57 2.082 9.016 3.045 10.252 1.168-1.857 2.6-8.038 3.802-7.445 7.734 3.615 25.75 2.544 34.9-1.56 1.241-.585 2.864 6.481 3.796 7.53.932-2.66 1.997-10.514 2.948-11.248 1.901-1.468 3.413-3.167 4.408-5.1" fill="none" stroke="#000" stroke-width="2.5"/>
</svg>
