<?xml version="1.0" encoding="UTF-8"?>
<svg width="160" height="160" xmlns="http://www.w3.org/2000/svg" xmlns:xlink="http://www.w3.org/1999/xlink">
 <defs>
  <linearGradient id="d" x1=".133" x2=".938" y1=".117" y2=".945">
   <stop stop-color="#fff" stop-opacity=".5" offset="0"/>
   <stop stop-color="#fff" stop-opacity="0" offset="1"/>
  </linearGradient>
  <radialGradient id="c" cx=".438" cy=".242" r=".399" fx=".446" fy=".25">
   <stop stop-color="#fff" offset="0"/>
   <stop stop-color="#cc8ed3" offset="1"/>
  </radialGradient>
 </defs>
 <path transform="matrix(1.02 0 0 1.0522 -6.698 -9.934)" d="m130.96 72.296c0 25.884-21.682 46.89-48.397 46.89s-48.397-21.006-48.397-46.889 21.682-46.89 48.397-46.89 48.397 21.007 48.397 46.89z" fill="url(#c)" fill-rule="evenodd" stroke="#000" stroke-linejoin="round" stroke-width="2.413"/>
 <g fill-rule="evenodd">
  <path transform="matrix(.9988 0 0 1.0704 -74.347 33.773)" d="m143.02 21.387c0 6.101-5.327 11.053-11.89 11.053s-12.609-6.293-12.609-12.394 2.092-8.035 8.655-8.035c6.564 0 15.844 3.275 15.844 9.376z" fill="#fff" stroke="#000" stroke-linejoin="round" stroke-width="2.418"/>
  <path d="m62.9 56.584c0 3.45-2.8 6.25-6.25 6.25s-6.25-2.8-6.25-6.25 2.8-6.25 6.25-6.25 6.25 2.8 6.25 6.25z" fill="#00f"/>
  <path d="m60.398 56.64c0 2.07-1.68 3.75-3.75 3.75s-3.75-1.68-3.75-3.75 1.68-3.75 3.75-3.75 3.75 1.68 3.75 3.75z"/>
  <path transform="translate(-74.49 36.103)" d="m135.38 19.288c0 2.76-2.24 5-5 5s-5-2.24-5-5 2.24-5 5-5 5 2.24 5 5z" fill="url(#d)"/>
  <path transform="matrix(.9988 0 0 1.0704 -34.308 32.587)" d="m143.73 21.052c0 6.1-6.046 11.388-12.61 11.388-6.562 0-11.89-4.952-11.89-11.053 0-6.1 10.718-9.711 17.282-9.711 6.563 0 7.218 3.275 7.218 9.376z" fill="#fff" stroke="#000" stroke-linejoin="round" stroke-width="2.418"/>
  <path d="m102.94 55.397c0 3.45-2.8 6.25-6.25 6.25s-6.25-2.8-6.25-6.25 2.8-6.25 6.25-6.25 6.25 2.8 6.25 6.25z" fill="#00f"/>
  <path d="m100.44 55.454c0 2.07-1.68 3.75-3.75 3.75s-3.75-1.68-3.75-3.75 1.68-3.75 3.75-3.75 3.75 1.68 3.75 3.75z"/>
  <path transform="translate(-34.45 34.916)" d="m135.38 19.288c0 2.76-2.24 5-5 5s-5-2.24-5-5 2.24-5 5-5 5 2.24 5 5z" fill="url(#d)"/>
 </g>
 <path d="M63.11 87.544c4.114-3.45 22.65-3.773 30.876-.892" fill="none" stroke="#000" stroke-linejoin="round" stroke-width="2.5"/>
</svg>
