<svg xmlns="http://www.w3.org/2000/svg" xmlns:xlink="http://www.w3.org/1999/xlink" width="128" height="128"><defs><linearGradient xlink:href="#a" id="h" x1="87.114" y1="961.118" x2="78.415" y2="947.152" gradientUnits="userSpaceOnUse" gradientTransform="translate(3.957 54.212) scale(.94412)"/><linearGradient id="b"><stop offset="0" stop-color="#fff"/><stop offset="1" stop-color="#fff" stop-opacity="0"/></linearGradient><linearGradient xlink:href="#b" id="l" x1="80.375" y1="1.41" x2="92.125" y2="22.41" gradientUnits="userSpaceOnUse" gradientTransform="translate(3 924.362)"/><linearGradient xlink:href="#b" id="e" x1="76.014" y1="35.369" x2="91.924" y2="94.412" gradientUnits="userSpaceOnUse" gradientTransform="translate(2 933.362)"/><linearGradient xlink:href="#b" id="j" x1="48.125" y1="32.125" x2="57.75" y2="29.625" gradientUnits="userSpaceOnUse" gradientTransform="translate(3 924.362)"/><linearGradient xlink:href="#a" id="g" x1="57.616" y1="954.583" x2="49.199" y2="957.058" gradientUnits="userSpaceOnUse" gradientTransform="translate(3.957 54.212) scale(.94412)"/><linearGradient id="a"><stop offset="0" stop-opacity="0"/><stop offset="1" stop-opacity=".336"/></linearGradient><linearGradient xlink:href="#a" id="i" x1="92.454" y1="956.903" x2="74.246" y2="930.209" gradientUnits="userSpaceOnUse" gradientTransform="translate(3.957 54.212) scale(.94412)"/><filter id="f" x="-.129" width="1.257" y="-.234" height="1.467"><feGaussianBlur stdDeviation="2.418"/></filter><filter id="k" x="-.119" width="1.239" y="-.058" height="1.116"><feGaussianBlur stdDeviation=".513"/></filter><filter id="m" x="-.035" width="1.071" y="-.168" height="1.337"><feGaussianBlur stdDeviation=".764"/></filter><filter id="c" x="-.139" width="1.278" y="-.667" height="2.333"><feGaussianBlur stdDeviation="4.713"/></filter><radialGradient xlink:href="#a" id="d" cx="64.384" cy="993.082" fx="64.384" fy="993.082" r="52.158" gradientTransform="matrix(.75022 -.58252 .47416 .61067 -469.671 425.723)" gradientUnits="userSpaceOnUse"/></defs><metadata/><path d="M102.53 114.919a40.659 8.485 0 11-81.317 0 40.659 8.485 0 1181.317 0z" transform="matrix(.76087 0 0 .47917 16.033 64.273)" opacity=".698" fill-opacity=".448" filter="url(#c)"/><path d="M110.32 77.06c-3.86 17.497-11.49 37.795-31.748 43.906-4.967 1.499-10.9-2.486-17.483-2.588-6.94-.107-12.753 3.537-17.908 1.609-18.198-6.81-23.36-25.069-27.608-42.455-3.283-13.433-.996-27.12 8.4-33.949 15.942-11.587 25.869.437 37.712.357 17.343-.117 23.443-13.93 42.87 3.272 10.816 9.578 8.597 17.008 5.765 29.848z" fill="red"/><path d="M110.32 1001.422c-3.86 17.497-11.49 37.795-31.748 43.906-4.967 1.499-10.9-2.486-17.483-2.588-6.94-.107-12.753 3.537-17.908 1.609-18.198-6.809-23.36-25.069-27.608-42.455-3.283-13.433-.996-27.12 8.4-33.949 15.942-11.587 25.869.437 37.712.357 17.343-.116 23.443-13.93 42.87 3.272 10.816 9.578 8.597 17.008 5.765 29.848z" fill="url(#d)" transform="translate(0 -924.362)"/><path d="M64.225 975.449c12.475.799 22.398-2.23 31.113-7.071 0 0 15.934 8.85 12.728 15.91-3.211 7.07-28.395 10.606-35.355 8.131-9.292-3.304-10.607-12.374-8.486-16.97z" transform="translate(1.125 -870.15) scale(.94412)" opacity=".723" fill="url(#e)" filter="url(#f)"/><path d="M48.331 22.15c-1.272 10.397 5.445 14.603 9.677 20.653 1.554.418 3.01 1.101 4.249 0-4.095-7.194-5.733-14.875-3.54-23.013-4.024-.56-7.91-.794-10.386 2.36z" fill="#0f0"/><path d="M59.5 31.49c30.28-8.132 39.251-15.686 56.21-23.457-.114.015-24.375 45.315-56.21 23.457z" fill="#0f0"/><path d="M59.5 31.49c30.28-8.132 39.251-15.686 56.21-23.457-1.73-2.34-64.178-12.702-56.21 23.457z" fill="#0f0"/><path d="M48.331 946.513c-1.272 10.396 5.445 14.603 9.677 20.652 1.554.419 3.01 1.102 4.249 0-4.095-7.194-5.733-14.875-3.54-23.012-4.024-.56-7.91-.795-10.386 2.36z" fill="url(#g)" transform="translate(0 -924.362)"/><path d="M59.5 955.852c30.28-8.132 39.251-15.686 56.21-23.456-.114.015-24.375 45.315-56.21 23.456z" fill="url(#h)" transform="translate(0 -924.362)"/><path d="M59.5 955.852c30.28-8.132 39.251-15.686 56.21-23.456-1.73-2.34-64.178-12.703-56.21 23.456z" fill="url(#i)" transform="translate(0 -924.362)"/><path d="M50.875 945.737c-.685 8.649 4.436 14.565 9.25 20.625l1-.375c-4.058-6.132-10.12-10.999-8.25-20.875z" transform="translate(1.125 -870.15) scale(.94412)" fill="url(#j)" filter="url(#k)"/><path d="M65.75 938.612c16.2-5.017 33.551-7.73 51.75-8.75 0 0-37.5-8.625-51.75 8.75z" transform="translate(1.125 -870.15) scale(.94412)" opacity=".698" fill="url(#l)" filter="url(#m)"/></svg>