<?xml version="1.0" encoding="UTF-8"?>
<svg width="533.33" height="533.33" xmlns="http://www.w3.org/2000/svg" xmlns:xlink="http://www.w3.org/1999/xlink">
 <defs>
  <linearGradient id="b">
   <stop stop-color="#fff" stop-opacity="0" offset="0"/>
   <stop stop-color="#ffa617" stop-opacity=".733" offset="1"/>
  </linearGradient>
  <linearGradient id="a">
   <stop stop-color="#fff" stop-opacity=".342" offset="0"/>
   <stop stop-color="#fff" stop-opacity="0" offset="1"/>
  </linearGradient>
  <linearGradient id="e" x1=".848" x2=".83" y1=".095" y2="1.485" xlink:href="#b"/>
  <linearGradient id="f" x1=".551" x2=".515" y1="-.148" y2="1.547" xlink:href="#b"/>
  <radialGradient id="d" xlink:href="#a"/>
 </defs>
 <path d="m198.45 81.882s93.522-19.12 110.9-16.626c69.521 6.65 120.01 63.181 139.87 133.84 16.553 117.22-73.693 223.66-81.108 240.26-9.475 14.97-76.142 26.602-94.35 39.072-11.587 9.145-89.436-1.22-107.59-13.301-198.63-177.9-118.35-344.17-48.004-365.79 43.865-14.964 80.28-17.458 80.28-17.458z" fill="#df3511" fill-rule="evenodd" stroke="#000" stroke-linejoin="round" stroke-width="10"/>
 <path d="m168.72 143.36c-86.838-91.208-132.68 134.86-90.314 211.8 57.106 75.65 233.88-46.878 90.314-211.8z" fill="url(#d)" fill-rule="evenodd"/>
 <path d="m394.91 132.14c-22.026-28.714-102.04-4.163-71.313 59.515 19.07 31.214 125.42 38.326 71.313-59.515z" fill="url(#d)" fill-rule="evenodd"/>
 <path d="m275 470.93c35.588-69 47.175-142.16 63.728-152.13 10.759 6.65 5.793 84.796 20.69 118.88-12.414 9.146-63.727 24.11-84.418 33.254z" fill="url(#e)" fill-rule="evenodd"/>
 <path d="m196.8 128.44s-20.69-11.639-19.035-18.29c14.07 4.989 22.346 12.47 27.312 9.145 4.965-3.325 4.965 9.145 9.104-6.65 4.138-15.796 15.725-33.254 14.07-15.796-1.656 20.784 6.62 24.94 24 9.145s24.002-11.639 19.036 9.145c-24.829 27.434-80.28 19.12-74.487 13.301z" fill="url(#f)" fill-rule="evenodd"/>
 <path d="m163.69 120.12c75.316 26.602 62.901 13.301 144.01-8.314" fill="none" stroke="#000" stroke-linejoin="round" stroke-width="10"/>
 <path d="m225.44 132.32c-3.31-19.952 35.071-111.24 46.658-112.9 7.449-0.832 40.55 16.107 21.105 26.714 0 8.839-7.449-1.663-12.415 1.663-11.586 12.47-30.943 51.437-37.564 82.197l-17.784 2.326z" fill="#4a2a00" fill-rule="evenodd" stroke="#000" stroke-linejoin="round" stroke-width="10"/>
</svg>
