<svg xmlns="http://www.w3.org/2000/svg" xmlns:xlink="http://www.w3.org/1999/xlink" width="400" height="400" version="1.0"><defs><linearGradient xlink:href="#e" id="p" x1="203" y1="222" x2="174" y2="121" gradientUnits="userSpaceOnUse" gradientTransform="translate(-7 54)"/><linearGradient id="h"><stop offset="0" stop-color="#fff" stop-opacity="0"/><stop offset=".438" stop-color="#fff" stop-opacity=".265"/><stop offset="1" stop-color="#fff" stop-opacity="0"/></linearGradient><linearGradient id="f"><stop offset="0" stop-color="#a05a2c" stop-opacity="0"/><stop offset=".287" stop-color="#a05a2c" stop-opacity=".559"/><stop offset=".569" stop-color="#a05a2c" stop-opacity=".658"/><stop offset="1" stop-color="#a05a2c" stop-opacity="0"/></linearGradient><linearGradient id="e"><stop offset="0" stop-opacity=".121"/><stop offset="1" stop-opacity="0"/></linearGradient><linearGradient id="d"><stop offset="0" stop-color="#fff" stop-opacity="0"/><stop offset=".662" stop-color="#fff" stop-opacity=".265"/><stop offset="1" stop-color="#fff" stop-opacity="0"/></linearGradient><linearGradient id="c"><stop offset="0" stop-color="#af9e79"/><stop offset="1" stop-color="#d9be84"/></linearGradient><linearGradient id="b"><stop offset="0" stop-color="#d0c149"/><stop offset="1" stop-color="#d0c149" stop-opacity="0"/></linearGradient><linearGradient id="a"><stop offset="0" stop-color="#c3e449"/><stop offset="1" stop-color="#c3e449" stop-opacity="0"/></linearGradient><linearGradient xlink:href="#a" id="j" x1="93.75" y1="168.5" x2="119" y2="173.5" gradientUnits="userSpaceOnUse" gradientTransform="translate(-7 54)"/><linearGradient xlink:href="#b" id="l" x1="90.863" y1="164.589" x2="105.359" y2="172.721" gradientUnits="userSpaceOnUse" gradientTransform="translate(-7 54)"/><linearGradient xlink:href="#a" id="m" x1="342.997" y1="55.061" x2="333.451" y2="77.335" gradientUnits="userSpaceOnUse" gradientTransform="translate(-7 54)"/><linearGradient xlink:href="#c" id="k" x1="58" y1="160" x2="57.837" y2="140" gradientUnits="userSpaceOnUse" gradientTransform="translate(-7 54)"/><linearGradient xlink:href="#c" id="n" x1="344.361" y1="57.462" x2="350.195" y2="50.568" gradientUnits="userSpaceOnUse" gradientTransform="translate(-7 54)"/><linearGradient xlink:href="#d" id="o" x1="174" y1="169" x2="304" y2="97" gradientUnits="userSpaceOnUse" gradientTransform="translate(-7 54)"/><linearGradient id="g"><stop offset="0" stop-color="#a05a2c" stop-opacity="0"/><stop offset=".394" stop-color="#a05a2c" stop-opacity=".559"/><stop offset=".569" stop-color="#a05a2c" stop-opacity=".658"/><stop offset="1" stop-color="#a05a2c" stop-opacity="0"/></linearGradient><linearGradient xlink:href="#e" id="r" x1="65.531" y1="185.281" x2="81.906" y2="165.359" gradientUnits="userSpaceOnUse" gradientTransform="translate(-7 54)"/><linearGradient xlink:href="#d" id="q" x1="68.406" y1="175.844" x2="82.87" y2="140.281" gradientUnits="userSpaceOnUse" gradientTransform="translate(-7 54)"/><linearGradient xlink:href="#d" id="t" x1="330.625" y1="53.786" x2="345.169" y2="51.803" gradientUnits="userSpaceOnUse" gradientTransform="translate(-7 54)"/><linearGradient xlink:href="#e" id="s" x1="348.781" y1="58.203" x2="352.238" y2="58.203" gradientUnits="userSpaceOnUse" gradientTransform="translate(-7 54)"/><linearGradient xlink:href="#e" id="B" gradientUnits="userSpaceOnUse" x1="262.69" y1="158.225" x2="260.569" y2="152.922" gradientTransform="translate(-7 54)"/><linearGradient xlink:href="#f" id="u" x1="316.58" y1="104.65" x2="322.637" y2="111.69" gradientUnits="userSpaceOnUse" gradientTransform="translate(-7 54)"/><linearGradient xlink:href="#f" id="v" x1="303.456" y1="68.953" x2="307.945" y2="75.603" gradientUnits="userSpaceOnUse" gradientTransform="translate(-7 54)"/><linearGradient xlink:href="#f" id="w" x1="277.999" y1="172.333" x2="284.298" y2="182.409" gradientUnits="userSpaceOnUse" gradientTransform="translate(-7 54)"/><linearGradient xlink:href="#f" id="x" x1="210.325" y1="191.884" x2="212.274" y2="197.92" gradientUnits="userSpaceOnUse" gradientTransform="translate(-7 54)"/><linearGradient xlink:href="#g" id="y" x1="241.118" y1="170.75" x2="244.279" y2="175.418" gradientUnits="userSpaceOnUse" gradientTransform="translate(-7 54)"/><linearGradient xlink:href="#h" id="A" x1="231.224" y1="116.152" x2="258.094" y2="148.326" gradientUnits="userSpaceOnUse" gradientTransform="translate(-7 54)"/><filter id="i" x="-.112" width="1.224" y="-.202" height="1.404"><feGaussianBlur stdDeviation="12.976"/></filter><filter id="z"><feGaussianBlur stdDeviation="1.078"/></filter></defs><metadata/><path d="M84 274c-3.322 6.643 38.888 17.64 62 11 12.015-3.452 79.14-1.647 144-56 21.706-18.19 51-48 53-60 4.86-22.379 12.399-40.249-16-22-29 19-81 54-102 66s-70 49-93 49-56 0-63-4-19 3 15 16z" fill-opacity=".582" fill-rule="evenodd" filter="url(#i)"/><g fill-rule="evenodd"><path d="M334 104.25c-5.91.763-7.344-.98-17.469 4.906C255.875 165.82 171.583 206.323 90 212.875c-17.972-5.478-22.214-19.727-29.313-28.094-7.773-4.349-14.935.33-21.812 4.594.785 17.305.209 37.442 7.75 40.688 20.035.587 24.88 6.569 37.094 9.937 23.847 25.163 45.308 39.534 68.5 43.219 23.272 3.697 48.416-1.327 70.031-12.188 43.23-21.72 80.876-67.105 112.438-104.281 5.965-8.082 9.223-19.864 11.718-30.25 1.841-11.047 2.243-25.363-4.312-30.656-.09-.24-.894-.667-1-.906-2.355-.341-4.716-.59-7.094-.688z" fill="#ffe349"/><path d="M58.875 183.938c.241.093.476.201.719.312-.241-.11-.48-.22-.719-.313zm1.813.843c.624.736.252.808.843 1.625 2.564 11.128.423 17.139.594 25.656l-3.188 7.75-8.124 7.97-3.626 2.312c19.548.685 24.438 6.57 36.532 9.906 4.36 4.602 8.648 8.838 12.875 12.719 6.651-2.575 13.123-9.823 10.906-18.969 2.908-7.917 3.965-17.84-6.25-22.031-3.755.442-7.503.855-11.25 1.156-17.972-5.478-22.214-19.727-29.313-28.094z" fill="url(#j)"/><path d="M53.563 183.063c-5.104.255-9.96 3.38-14.688 6.312.785 17.305.209 37.442 7.75 40.688.196.005.37.024.563.03l3.624-2.312 8.126-7.969 3.187-7.75c-.171-8.517 1.967-14.516-.597-25.644-.592-.817-.216-.9-.84-1.637-2.43-1.359-4.806-1.834-7.126-1.719z" fill="url(#k)"/><path d="M58.875 183.938c.241.093.476.201.719.312-.241-.11-.48-.22-.719-.313zm1.813.843c.624.736.252.808.843 1.625 2.564 11.128.423 17.139.594 25.656l-3.188 7.75-8.124 7.97-3.626 2.312c19.389.68 24.37 6.464 36.25 9.812l4.126-4.687 2.656-4.969.187-13.25-1.125-4.344c-17.367-5.635-21.591-19.62-28.594-27.875z" fill="url(#l)"/><path d="M334 104.25c-5.91.763-7.344-.98-17.469 4.906a379.551 379.551 0 01-6.344 5.781c5.624-2.819 1.696 30.48 29.657 7.126-.746 10.68 3.9 10.574 6.562 14.437 1.841-11.047 2.243-25.363-4.312-30.656-.09-.24-.894-.667-1-.906-2.355-.341-4.716-.59-7.094-.688z" fill="url(#m)"/><path d="M322.469 106.803l5.7-2.058 7.247-.177 5.834.707 2.121 2.475c1.934 3.838 2.67 7.676 3.593 11.514l-5.007-8.155-6.717-2.298-12.771-2.008z" fill="url(#n)"/><path d="M322.531 107.469c5.686-.218 12.88 2.027 18.875 3.937-2.161 12.604-5.96 24.793-13.187 35.375-.01.011-.022.02-.031.031-36.17 33.42-73.17 59.297-105.212 75.2-36.372 18.051-79.875 20.192-132.382 8.082.603-5.388.452-11.06-.781-16.375 81.624-6.703 165.227-45.326 225.906-101.969 2.986-1.721 4.844-3.187 6.812-4.281z" fill="url(#o)"/><path d="M342.188 112.094c1.515 2.178 2.566 3.387 3.937 6.469.455 5.528-.466 11.607-1.438 17.437-1.864 11.187-6.044 22.388-10.78 30.094-.012.018-.02.044-.032.062-31.54 37.15-69.847 82.762-112.793 104.34-21.482 10.794-44.267 15.389-67.29 11.73-22.926-3.641-45.944-17.61-69.667-42.601 2.623-2.177 4.077-5.695 6.313-9.063 52.593 12.11 92.822 8.493 130.479-7.112 37.718-15.63 72.497-42.834 108.708-76.294 6.128-10.756 11.463-22.559 12.563-35.062z" fill="url(#p)"/><path d="M61.406 186.719c8.34 9.251 10.331 21.501 27.188 26.719 2.19 5.217 1.828 10.882 1.469 16.406-9.26-6.07-17.536-9.25-27.532-18.531-.356-8.193 1.854-15.806-1.125-24.594z" fill="url(#q)"/><path d="M61.813 213.438c4.169 1.383 18.63 11.806 28.093 16.875-1.61 3.35-3.185 6.726-6.125 8.968-11.753-3.336-21.923-10.755-35.25-10 14.373-8.626 10.318-10.871 13.282-15.844z" fill="url(#r)"/><path d="M341.781 106.875c2.556 3.02 3.787 6.685 4.25 10.656l-3.781-6.406c.04-1.422-.084-2.828-.469-4.25z" fill="url(#s)"/><path d="M340 105.813c1.393-.38 1.8 1.763 1.563 4.437-6.173-3.047-12.047-2.633-17.938-3.344 5.15-2.235 10.933-1.602 16.375-1.094z" fill="url(#t)"/><path d="M327.406 145.063c-7.901 1.565-11.009 10.34-17.562 14.25-2.868 3.94-9.723 6.198-9.406 11.843 6.674 4.297 12.203-3.956 15.687-8.531 4.132-3.037 7.955-6.164 11.469-9.719 3.24-1.584 5.39-9-.188-7.844z" fill="url(#u)"/><path d="M302.006 122.953l-10.607 8.308s-1.944 1.591-.884 3.006c1.06 1.414 7.778-4.243 12.198-10.607v-.354" fill="url(#v)"/><path d="M267.534 238.742l17.148-16.264s1.237-3.359.53-4.95c-.707-1.59-28.638 21.744-17.678 21.214z" fill="url(#w)"/><path d="M207.25 248c-2.132-1.421-8.864-.493-7.75 2.5.664 1.784 8.25 2.75 7.75-2.5z" fill="url(#x)"/><path d="M239 224.75s-7.454 1.342-6.25 3.75c1 2 6.735.724 6.25-3.75z" fill="url(#y)"/></g><path d="M253.95 161.686a44.648 44.648 0 00-5.188.343h-.032l-10.187 5.532-12.75 6.75-10.781 4.906c-9.393 9.819-13.345 21.755-9.032 30.937 3.187 6.784 10.267 10.754 19.063 11.652 8.364.854 11.78 2.93 21.375-1.995 11.68-5.996 26.782-19.103 30.546-28.284 2.58-6.29 2.888-12.616.36-17.998-3.691-7.858-12.624-11.933-23.375-11.843z" fill-opacity=".746" filter="url(#z)"/><path d="M254.656 160.625a44.648 44.648 0 00-5.187.344h-.031L239.25 166.5l-12.75 6.75-10.781 4.906c-9.393 9.82-13.345 21.755-9.031 30.938 3.186 6.783 10.266 10.753 19.062 11.651 8.364.854 11.78 2.93 21.375-1.995 11.68-5.995 26.782-19.103 30.546-28.283 2.58-6.291 2.888-12.617.36-17.998-3.691-7.858-12.623-11.934-23.375-11.844z" fill="#072b61"/><path d="M211.026 206.85c2.637 5.615 8.62 8.8 15.981 9.472 3.376.308 7.058.097 10.882-.647 4.515-.878 6.23.252 10.875-2.133 7.51-3.853 16.616-11.826 20.7-17.425.583-.8 1.125-1.608 1.624-2.42 3.992-6.499 5.209-13.38 2.572-18.993-2.638-5.614-8.575-8.784-15.936-9.456-7.36-.672-16.176 1.125-24.757 5.53-8.582 4.404-15.332 10.596-19.324 17.095-3.992 6.499-5.254 13.364-2.617 18.978zm1.204-.617c-2.396-5.1-1.333-11.445 2.497-17.682 3.831-6.236 10.414-12.29 18.795-16.592 8.38-4.301 16.958-6.028 24.021-5.383 7.064.645 12.548 3.63 14.944 8.73 2.395 5.1 1.302 11.461-2.529 17.698a36.923 36.923 0 01-3.017 4.196c-3.88 4.69-11.267 11.554-17.746 14.88-3.553 1.823-5.147.687-8.647 1.604-4.756 1.246-9.337 1.666-13.405 1.295-7.064-.645-12.517-3.646-14.913-8.746z" fill="#fff"/><path d="M255.22 205.602c-1.305-1.311-4.155-6.793-.856-2.97.523.781 1.62 1.914.856 2.97zm-.068-3.42c-3.998-4.19 6.58-8.104 5.44-1.771-.352 2.601-3.956 4.117-5.44 1.771zm.696-.558c4.635 4.024 4.953-7.563-.244-2.961-.66.918-.706 2.338.244 2.96zm6.32-1.44c-1.226-1.69-4.291-7.577.54-5.62 2.226.249 4.432 1.708.793 1.684-2.342.499-.464 3.091-1.333 3.937zm-.612-3.01c3.182-1.482-3.382-3.844-.235-.626l.235.627zm5.144-2.068c-1.732-.614-7.17-3.656-2.228-3.907 2.652.367 3.358-1.381.571-1.727-2.332-3.198 7.421 2.357 1.695 2.341-2.328-.77-4.116 1.394-1.002 1.686.618.223 1.313.863.964 1.607zm3.09-4.984c-1.89-.95-7.34-4.773-1.953-5.113 2.197-.724 4.905-.387 1.481 1.129-1.979 1.422.918 2.882.473 3.984zm-1.89-2.357c2.335-2.633-4.855-1.914-.495-.446l.494.446zm3.129-10.676c-2.098 2.825-9.247 3.912-6.083-1.105 2.073-2.562 5.784-2.333 6.083 1.105zm-3.638 1.259c-1.171-4.16-3.969 2.64-.029.021l.029-.021zm2.582-1.555c-1.354-5.57-5.826 3.248 0 0zm-1.487-4.063c-1.722 1.473-7.722 5.417-5.72.36.257-2.227 1.747-4.626 1.715-1.046.503 2.222 3.146-.034 4.005.686zm-3.065 1.078c-1.503-2.892-3.92 3.932-.638.33l.638-.33zm-2.218-4.572c-.385 1.846-2.707 7.966-3.607 3.275.018-2.662-1.82-2.837-1.799-.053-2.886 3.171 1.378-7.831 2.114-2.309-.462 2.466 1.933 3.565 1.815.48.142-.66.689-1.515 1.477-1.393zm-5.4-1.461c-.712 2.092-3.845 8.435-4.864 3.334-1-1.915-1.005-4.623.942-1.75 1.67 1.507 2.765-1.702 3.922-1.584zm-2.117 2.493c-2.926-1.508-1.301 5.225-.383.603l.383-.603zm-4.463-2.587c.405 1.78.757 8.1-2.048 4.334-1.092-2.35-2.904-1.766-1.723.676-1.41 3.952-1.959-7.447 1.038-2.882.59 2.356 3.312 2.361 1.916-.308-.141-.638.02-1.61.817-1.82zm-5.705.838c-.036 2.155-1.098 8.984-3.698 4.567-1.58-1.47-2.436-3.977.368-1.906 2.105.887 2.163-2.418 3.33-2.66zm-1.282 2.953c-3.33-.507.375 5.237-.184.676l.184-.676z" font-size="7.062" font-weight="400" fill="#fff" font-family="Arial"/><path d="M261.456 189.3c-13.357 6.854-26.713 13.71-40.069 20.565-2.79-3.474 2.61-5.287 4.28-7.713l21.477-20.572-31.459 16.147c-2.843-3.772 3.901-4.042 5.885-5.913l33.089-16.982c2.79 3.476-2.615 5.288-4.285 7.715l-21.499 20.583 31.486-16.16 1.095 2.33z" font-size="42.216" font-weight="400" fill="#fff" font-family="Arial"/><path d="M254.656 160.625a44.648 44.648 0 00-5.187.344h-.031L239.25 166.5l-12.75 6.75-10.781 4.906c-9.393 9.82-13.345 21.755-9.031 30.938 3.186 6.783 10.266 10.753 19.062 11.651 8.364.854 11.78 2.93 21.375-1.995 11.68-5.995 26.782-19.103 30.546-28.283 2.58-6.291 2.888-12.617.36-17.998-3.691-7.858-12.623-11.934-23.375-11.844z" fill="url(#A)"/><path d="M254.656 160.625a44.648 44.648 0 00-5.187.344h-.031L239.25 166.5l-12.75 6.75-10.781 4.906c-9.393 9.82-13.345 21.755-9.031 30.938 3.186 6.783 10.266 10.753 19.062 11.651 8.364.854 11.78 2.93 21.375-1.995 11.68-5.995 26.782-19.103 30.546-28.283 2.58-6.291 2.888-12.617.36-17.998-3.691-7.858-12.623-11.934-23.375-11.844z" fill="url(#B)"/><g><path d="M334 104.25c-5.91.763-7.344-.98-17.469 4.906C255.875 165.82 171.583 206.323 90 212.875c-17.972-5.478-22.214-19.727-29.313-28.094-7.773-4.349-14.935.33-21.812 4.594.785 17.305.209 37.442 7.75 40.688 20.035.587 24.88 6.569 37.094 9.937 23.847 25.163 45.308 39.534 68.5 43.219 23.272 3.697 48.416-1.327 70.031-12.188 43.23-21.72 80.876-67.105 112.438-104.281 5.965-8.082 9.223-19.864 11.718-30.25 1.841-11.047 2.236-25.352-4.319-30.646-.09-.24-.887-.677-.993-.916-2.355-.341-4.716-.59-7.094-.688zm6 1.563c1.393-.38 1.8 1.763 1.563 4.437-6.173-3.047-12.047-2.633-17.938-3.344 5.15-2.235 10.933-1.602 16.375-1.094zm1.781 1.062c2.556 3.02 3.787 6.685 4.25 10.656l-3.781-6.406c.04-1.422-.084-2.828-.469-4.25zm-19.25.594c5.686-.218 12.88 2.027 18.875 3.937-2.161 12.604-5.96 24.793-13.187 35.375-.01.011-.022.02-.031.031-36.17 33.42-69.634 60.357-107.157 75.907-37.511 15.545-77.93 19.485-130.437 7.375.603-5.388.452-11.06-.781-16.375 81.624-6.703 165.227-45.326 225.906-101.969 2.986-1.721 4.844-3.187 6.812-4.281zm19.656 4.625c1.516 2.178 2.567 3.387 3.938 6.469.455 5.528-.466 11.607-1.438 17.437-1.864 11.187-6.044 22.388-10.78 30.094-.012.018-.02.044-.032.062-31.54 37.15-70.554 81.348-113.5 102.926-21.482 10.794-43.206 16.449-66.23 12.791-22.926-3.642-46.297-17.257-70.02-42.248 2.623-2.177 4.077-5.695 6.313-9.063 52.593 12.11 93.352 8.316 131.01-7.289 37.717-15.63 71.966-42.657 108.177-76.117 6.128-10.756 11.463-22.559 12.563-35.062zm-288.78 71.64c1.81-.003 3.826.427 6.124 1.266 4.802 5.424 1.45 17.697 1.969 26.719-2.212 8.342-7.43 13.55-14.031 17.312-10.331-8.109-4.872-25.987-7.282-39 4.145-2.984 7.786-6.291 13.22-6.298zm8 2.985c8.339 9.251 10.33 21.501 27.187 26.719 2.19 5.217 1.828 10.882 1.469 16.406-9.26-6.07-17.536-9.25-27.532-18.531-.356-8.193 1.854-15.806-1.125-24.594zm.406 26.719c4.169 1.383 18.63 11.806 28.093 16.875-1.61 3.35-3.185 6.726-6.125 8.968-11.753-3.336-21.923-10.755-35.25-10 14.373-8.626 10.318-10.871 13.282-15.844z" fill="#605107" fill-rule="evenodd"/></g></svg>