<?xml version="1.0" encoding="UTF-8"?>
<svg width="150" height="150" version="1.0" xmlns="http://www.w3.org/2000/svg" xmlns:xlink="http://www.w3.org/1999/xlink">
 <defs>
  <linearGradient id="d" x1="109.53" x2="370.9" y1="332.17" y2="332.17" gradientTransform="matrix(.356 -.04395 .02947 .23875 -12.355 9.06)" gradientUnits="userSpaceOnUse" xlink:href="#b"/>
  <linearGradient id="b">
   <stop stop-color="#fff" stop-opacity="0" offset="0"/>
   <stop stop-color="#5f0e00" stop-opacity=".417" offset="1"/>
  </linearGradient>
  <linearGradient id="g" x1="62.831" x2="312.91" y1="339.77" y2="191.32" gradientTransform="matrix(.44692 -.05517 .02348 .19018 -12.355 9.06)" gradientUnits="userSpaceOnUse" xlink:href="#a"/>
  <linearGradient id="a">
   <stop stop-color="#fff" stop-opacity=".525" offset="0"/>
   <stop stop-color="#fff" stop-opacity="0" offset="1"/>
  </linearGradient>
 </defs>
 <g fill-rule="evenodd">
  <path d="m104.35 22.402c-6.096-4.427 8.031-9.87 10.078-8.274 3.095 1.098-2.236 2.866-1.557 5.372 0.68 2.506 1.98 16.035 4.985 16.404s6.965 2.47 7.414 6.114c11.9 21.47-16.166 87.83-104.54 67.29-1.592-0.913-10.734-9.034-12.462-11.04-1.044-2.462-2.902-8.522 1.201-11.248 36.321-14.473 82.071-0.512 96.307-47.036 2.335-8.058-1.43-17.582-1.43-17.582z" fill="#ffe200"/>
  <path d="M10.836 92.032l.28-3.734c25.707-13.533 78.286 1.805 96.625-47.446-7.977 34.283-26.64 56.935-96.905 51.18z" fill="url(#g)"/>
  <path d="M8.106 96.85c-.933-5.322-1.423-7.054 1.452-9.202 1.596 1.852 2.115 8.136-1.452 9.202z" fill="#442400"/>
  <path d="M39.818 111.023c65.753 8.162 82.426-34.778 85.1-44.913 5.12-12.471-.508-25.095-.508-25.095 4.494 39.402-32.772 76.19-84.592 70.008z" fill="url(#d)"/>
  <path d="M107.73 24.391c-6.737-3.37 6.31-11.05 8.59-9.81 3.233.578-1.737 3.194-.657 5.555 1.08 2.36 4.574 15.495 7.599 15.368 3.025-.128 7.274 1.298 8.314 4.82 15.25 19.235-1.59 89.29-92.128 83.474-1.72-.64-12.067-7.158-14.1-8.855-1.432-2.257-4.255-7.932-.653-11.292 33.466-20.216 80.883-13.922 87.321-62.148.986-8.33-4.285-17.112-4.285-17.112z" fill="#ffe200"/>
  <path transform="rotate(-9.409 118.13 2.878)" d="M10.836 92.032l.28-3.734c25.707-13.533 78.286 1.805 96.625-47.446-7.977 34.283-26.64 56.935-96.905 51.18z" fill="url(#g)"/>
  <path d="M24.95 113.573c-1.791-5.098-2.558-6.727-.073-9.316 1.877 1.567 3.416 7.68.072 9.316z" fill="#442400"/>
  <path transform="rotate(-9.409 118.13 2.878)" d="M39.818 111.023c65.753 8.162 82.426-34.778 85.1-44.913 5.12-12.471-.508-25.095-.508-25.095 4.494 39.402-32.772 76.19-84.592 70.008z" fill="url(#d)"/>
  <path d="M112.507 26.506C105.345 24.169 115 15.17 117.44 16.06c3.282.092-.982 3.943.435 6.119 1.417 2.175 8.665 13.591 11.638 13.018 2.973-.574 7.387.207 8.936 3.536 17.927 16.768 11.638 88.543-78.764 96.187-1.797-.38-12.993-5.294-15.254-6.672-1.75-2.02-5.383-7.215-2.318-11.071 30.107-24.945 77.933-25.736 77.166-74.383-.257-8.385-6.77-16.29-6.77-16.29z" fill="#ffe200"/>
  <path transform="rotate(-17.917 121.45 -1.408)" d="M10.836 92.032l.28-3.734c25.707-13.533 78.286 1.805 96.625-47.446-7.977 34.283-26.64 56.935-96.905 51.18z" fill="url(#g)"/>
  <path d="m43.832 126.95c-2.525-4.776-3.524-6.274-1.45-9.203 2.088 1.272 4.515 7.091 1.45 9.203z" fill="#442400"/>
  <path transform="rotate(-17.917 121.45 -1.408)" d="M39.818 111.023c65.753 8.162 82.426-34.778 85.1-44.913 5.12-12.471-.508-25.095-.508-25.095 4.494 39.402-32.772 76.19-84.592 70.008z" fill="url(#d)"/>
 </g>
 <path d="m103.6 18.559c-1.405-5.049 13.7-7.101 13.96-1.376-2.16 1.837-6.484 6.046-13.96 1.376z" fill="#442400" fill-rule="evenodd"/>
 <path d="M112.438 11c-4.201.314-8.706 2.088-11.213 5.6-1.793 3.424 2.492 5.922 2.317 9.445 1.27 5.216 1.079 10.797-1.096 15.75C98.88 52 92.178 61.528 82.525 66.658c-12.823 6.923-27.848 7.925-42.011 10.043-11.042 1.604-22.211 3.422-32.577 7.704-4.105 2.741-3.642 8.473-1.94 12.489 1.873 3.219 5.285 5.288 7.894 7.912 2.128 2.369 5.392 4.14 7.617 5.569.744 3.886 4.123 5.92 7.228 7.81 3.251 1.952 6.365 4.275 9.889 5.689 2.99.288 3.405 5.312 7.087 5.683 4.39 1.945 8.735 4.229 13.382 5.442 21.763-1.83 43.902-7.867 61.269-21.603 15.031-11.743 25.586-29.645 26.718-48.864.501-9.5-.96-19.95-7.516-27.297-2.032-3.321-5.72-5.536-9.706-5.037-3.51.486-4.721-5.144-6.628-7.57-1.085-2.87-6.648-3.131-3.947-6.113.84-3.968-1.615-5.223-3.44-6.766-1.232.113-2.107-.845-3.406-.75zm.374 2.906c1.76.795 5.347 2.076 3.498 4.927-1.323 3.34 5.196 7.632 6.176 10.593 2.122 3.314 1.747 4.72 5.923 5.867 3.367-.763 7.105.363 8.747 3.54 5.82 6.44 7.234 15.59 7.063 23.98-.632 19.466-11.467 37.69-26.887 49.23-16.691 12.668-37.632 18.216-58.238 19.988-4.915-1.758-9.693-3.916-14.344-6.281-1.83-2.12-2.452-5.72-5.974-4.952-4.504-2.47-8.851-5.244-13.026-8.236-1.62-2.51-1.55-6.425-5.416-6.217-4.05-3.19-7.91-6.635-11.521-10.314-1.339-3.045-2.283-8.452 1.94-9.576 20.007-7.514 42.1-6.264 62.384-12.671 10.945-3.411 20.885-10.525 26.918-20.424 3.272-5.439 6.047-11.37 7.08-17.67.557-5.261-.32-10.683-2.338-15.554-3.284-2.143 1.904-4.626 3.85-5.275 1.277-.488 3.064-.972 4.165-.955z" fill-rule="evenodd"/>
 <path d="m113.06 46.184c-0.849 10.763-6.28 18.346-13.466 24.785-7.187 6.438-16.669 11.178-26.594 15.061-9.925 3.885-20.292 6.925-29.25 10-8.958 3.076-17.817 4.321-22.164 10.313l3.856-0.074c3.312-4.968 9.99-5.709 18.916-8.773 8.925-3.064 19.565-6.358 29.545-10.264s19.017-8.947 26.347-15.514c7.33-6.568 12.413-14.975 13.281-26l-0.472 0.465z" fill-rule="evenodd"/>
 <path d="M121.145 49.464c-1.58-.371.015-1.564-.11-.6.219 8.259-3.49 15.112-8.497 21.638-6.837 9.007-15.626 16.196-25.313 21.777-11.384 6.558-23.514 11.711-34.848 18.355-4.012 2.454-9.366 6.17-12.322 9.891.986 1.41 3.423-.968 4.293-1.513 5.383-5.157 11.613-9.319 18.144-12.77C76.539 99.023 90.9 93.57 103.044 82.31c7.636-6.138 13.329-12.954 16.027-22.548 1.2-4.19 2.39-5.953 2.074-10.297zM113.19 26.167l-.346-.323s1.725 3.095 3.5 6.875c1.774 3.78 3.595 8.302 3.844 10.906l.471-.094c-.28-2.941-1.618-7.405-3.409-11.218-1.79-3.814-4.06-6.146-4.06-6.146zM111.656 27.844c-.323.093.147-.34-.176-.247.795 2.724.724 6 1.263 8.787.24 1.311.486 2.639.416 3.977.039.145-.168.133.038.163.278.102.996-.981.915-1.75-.378-3.08-1.137-6.098-1.94-9.091-.167-.614-.338-1.228-.516-1.84z" fill-rule="evenodd"/>
</svg>
