<svg width="533.333" height="533.333" xmlns="http://www.w3.org/2000/svg" xmlns:xlink="http://www.w3.org/1999/xlink"><defs><linearGradient id="b"><stop offset="0" stop-color="#fff" stop-opacity="0"/><stop offset="1" stop-color="#5f0e00" stop-opacity=".417"/></linearGradient><linearGradient id="a"><stop offset="0" stop-color="#fff" stop-opacity=".525"/><stop offset="1" stop-color="#fff" stop-opacity="0"/></linearGradient><linearGradient xlink:href="#a" id="c" x1=".151" y1=".432" x2="1.25" y2="-.22"/><linearGradient xlink:href="#b" id="d" x1="0" y1=".5" x2="1" y2=".5"/><radialGradient xlink:href="#a"/></defs><g fill-rule="evenodd"><path d="M388.75 93.75C370 76.25 420 63.75 426.25 70c10 5-8.75 8.75-7.5 17.5s0 55 10 57.5 22.5 11.25 22.5 23.75C482.5 246.25 360 458.75 70 352.5c-5-3.75-32.5-35-37.5-42.5-2.5-8.75-6.25-30 8.75-37.5 128.75-33.75 277.5 32.5 345-118.75 11.25-26.25 2.5-60 2.5-60z" fill="#ffe200" stroke="#000" stroke-width="10" stroke-linejoin="round"/><path d="M43.75 290l2.5-12.5c92.5-35 263.75 38.75 346.25-120C351.25 270 278.75 338.75 43.75 290z" fill="url(#c)"/><path d="M386.153 89.136c2.914-17.6 29.112-18.073 36.444-18.944 11.986 1.566-15.486 21.444-36.444 18.944zM32.518 305.141c-.933-18.37-1.866-24.428 8.743-30.486 4.617 6.925 3.75 28.37-8.743 30.486z" fill="#442400"/><path d="M133.75 366.25C352.5 421.25 426.74 283.128 440 250c22.5-40 8.75-85 8.75-85-1.25 135-142.5 243.75-315 201.25z" fill="url(#d)"/></g></svg>