<?xml version="1.0" encoding="UTF-8"?>
<svg width="533.33" height="533.33" xmlns="http://www.w3.org/2000/svg" xmlns:xlink="http://www.w3.org/1999/xlink">
 <defs>
  <radialGradient id="b">
   <stop stop-color="#fff" stop-opacity=".525" offset="0"/>
   <stop stop-color="#fff" stop-opacity="0" offset="1"/>
  </radialGradient>
 </defs>
 <path d="m321.78 240.56c-16.035-13.689-112.54-11.987-91.398 104.94 23.752 102.08 152.34 79.858 179.21 37.42 49.954-80.415-22.07-166.7-87.811-142.36z" fill="#ca0000" fill-rule="evenodd" stroke="#000" stroke-linejoin="round" stroke-width="10"/>
 <path d="m171.7 265.18c-16.035-13.688-139.8-11.986-118.66 104.94 23.751 102.08 141.74 91.777 176.38 54.753 70.8-77.372-1.603-171.86-57.724-159.7z" fill="#ca0000" fill-rule="evenodd" stroke="#000" stroke-linejoin="round" stroke-width="10"/>
 <path d="m294.52 252.73c-3.206 18.251 38.484 28.898 70.553 7.605m-220.63 21.579c-3.208 18.252 19.24 50.191 51.31 28.898" fill="none" stroke="#000" stroke-linejoin="round" stroke-width="10"/>
 <path d="m130.69 293.81c-59.33-41.065-101.02 60.837-54.519 73.005 60.931 21.293 107.43-33.46 54.517-73.005zm194.3-47.165c-83.38-54.753-102.62 132.32-56.122 144.49 86.587 44.106 109.04-104.94 56.122-144.49z" fill="url(#b)" fill-rule="evenodd"/>
 <path d="m375 25c-5.359 1.34-21.334 21.969-29.034 35.27-98.361 50.28-133.53 108.47-158.31 159.07-13.052 26.654-19.3 53.46-22.375 69.125a212.79 212.79 0 0 0-2.687 17.437c1.033 10.871 15.565 8.65 14.937 2.375 4.144-8.477 1.093-10.386 2.563-17.875 2.939-14.978 8.928-37.2 21.531-62.937 22.024-44.977 59.451-100.72 141.31-147.78l2.875 3.343c-30.18 42.359-47.171 104.71-27.032 182.31 4.054 2.465 18.52 1.632 19.688-2.5-20.444-87.35 3.04-154.52 36.781-189.66 7.454-4.647 22.41-17.675 26-18.188 4.061-7.279-12.183-26.65-26.25-30z" fill="#552400" fill-rule="evenodd" stroke="#000" stroke-linejoin="round" stroke-width="10"/>
</svg>
