<?xml version="1.0" encoding="UTF-8"?>
<svg width="128" height="128" version="1.0" xmlns="http://www.w3.org/2000/svg" xmlns:xlink="http://www.w3.org/1999/xlink">
 <defs>
  <radialGradient id="v" cx="58.822" cy="66.35" r="8.828" gradientTransform="matrix(.31645 1.4381 -1.25 .27505 121.07 -36.952)" gradientUnits="userSpaceOnUse" xlink:href="#a"/>
  <linearGradient id="h" x1="32.173" x2="61.165" y1="30.773" y2="66.128" gradientTransform="matrix(.95809 0 0 .95809 .28 .088)" gradientUnits="userSpaceOnUse" xlink:href="#b"/>
  <linearGradient id="b">
   <stop stop-color="#22d422" offset="0"/>
   <stop stop-color="#51a751" offset="1"/>
  </linearGradient>
  <linearGradient id="a">
   <stop stop-color="#fff" stop-opacity="0" offset="0"/>
   <stop stop-opacity=".456" offset="1"/>
  </linearGradient>
  <linearGradient id="i" x1="117.61" x2="107.48" y1="20.057" y2="15.924" gradientTransform="matrix(.95809 0 0 .95809 .28 .088)" gradientUnits="userSpaceOnUse" xlink:href="#b"/>
  <filter id="g" x="-.215" y="-.182" width="1.43" height="1.364">
   <feGaussianBlur stdDeviation=".386"/>
  </filter>
  <filter id="f" x="-.132" y="-.097" width="1.265" height="1.194">
   <feGaussianBlur stdDeviation=".271"/>
  </filter>
  <filter id="d">
   <feGaussianBlur stdDeviation="1.204"/>
  </filter>
  <filter id="c" x="-.08" y="-.119" width="1.161" height="1.238">
   <feGaussianBlur stdDeviation="3.519"/>
  </filter>
 </defs>
 <path transform="matrix(.95809 0 0 .95809 .28 .088)" d="M21.162 116.178c-16.947 11.697 13.615 11.494 18.061 11.394 12.058-.35 34.61-15.057 38.877-20.022 4.276.991 12.634 3.581 19.954 7.2 5.415 2.329 12.037 3.8 17.583.484 3.91-2.362 5.767-6.978 2.903-10.844 7.43-17.638 1.006-29.778-11.682-36.501-8.132-6.214-24.22-16.39-34.477-12.038-29.178 5.726-26.065 36.892-51.22 60.327z" fill-opacity=".886" fill-rule="evenodd" filter="url(#c)"/>
 <path transform="matrix(.95809 0 0 .95809 .28 .088)" d="M59.857 2.924l.5 16.47-4.938-9.188.719 9.343c-1.344 2.553-5.626 1.485-7.125 2.938-1.645 1.596-.53 5.62-2.313 6.187-1.08.344-3.947-3.15-5.062-3.093-1.362.07-.98 3.648-2.375 3.406-2.213-.384-5.146-5.114-7.375-5.875-1.101-.376-2.723 10.033-3.813 9.656-3.924-1.356-4.275-5.102-7.75-4.656l.782 5.562s-9.654-1.094-13.219-1.406c1.722 2.425 14.688 10.969 14.688 10.969l.093 6.187c1.938 1.018 4.633-.61 6.938.25 1.447.541.472 5.119.312 7.188 3.381.23 5.464-.296 6.469.187 3.42 1.644 3.624 4.77 3.344 6.875-2.876.697-5.872 2.667-8.188 5.657-4.243 5.478-4.608 12.337-.812 15.343-.496.238-.982.49-1.469.782-5.686 3.403-8.525 9.274-6.625 13.437-3.014 3.225-4.201 7.199-2.875 10.282-4.618 3.66-6.59 9.018-4.375 12.718 2.503 4.181 9.402 4.67 15.375 1.094.087-.052.164-.103.25-.156 3.203 2.33 8.695 2.151 13.594-.781 1.895-1.135 3.497-2.535 4.687-4.063 1.409.997 3.15 1.358 5 1.156.974-.106 1.97-.373 2.969-.781 2.33-.952 4.635-2.686 6.5-5.094.494-.637.956-1.302 1.344-1.968 3.533.088 7.663-2.074 10.656-5.938a17.06 17.06 0 002.5-4.469c1.072 1.464 2.474 2.475 4.094 2.875.367 1.02.918 1.93 1.719 2.657 3.61 3.273 10.323 1.75 15-3.407a17.617 17.617 0 002.03-2.719c.092 5.547 2.867 10.097 6.938 10.75 4.812.773 9.616-4.189 10.719-11.062.575-3.584.021-6.986-1.313-9.531 3.917-.864 7.395-5.246 8.313-10.969 1.103-6.873-1.907-13.072-6.719-13.844a6.413 6.413 0 00-1.75-.031c.043-.303.099-.606.125-.906.547-6.197-2.233-11.575-6.562-12.5-.552-8.042-2.931-14.629 1.187-26.407l9.782-16.468c-3.346.115-6.686-.735-10.032-6.219-3.283 17.23-11.02 27.045-16.812 40.094-.73.04-1.479.064-2.219.093.015-3.642-1.4-6.736-4.094-8.062-2.732-1.345-6.125-.559-9.031 1.75-.097.077-.186.17-.281.25 2.188-2.997 2.83-6.418 1.375-9.094a6.324 6.324 0 00-1.469-1.781c-.005-.004.005-.027 0-.031.096-.687.108-1.31-.031-1.813-.444-1.599-3.336-1.24-3.875-2.781-1.64-4.682-3.692-9.062-6.094-13l.938 10.562L59.857 2.924zm44.937 27.438c-.516 10.997 1.434 15.833 2.75 22.25-1.06.333-2.066.919-3 1.719-.109.093-.206.213-.312.312-.669-4.519-3.214-8.027-6.719-8.625 2.432-4.41 4.85-8.67 7.281-15.656zM92.326 46.987h.53c-.204.12-.425.236-.624.375.033-.126.064-.25.094-.375zm-43.532 43.25c-.012.071-.02.147-.031.219-.165.019-.334.036-.5.062.181-.076.35-.195.531-.281z" filter="url(#d)"/>
 <path d="M94.06 98.26a8.458 12.082 42.202 11-12.53-11.363A8.458 12.082 42.202 1194.06 98.26z" fill="#b03fdb"/>
 <path transform="rotate(42.202 37.506 119.78) scale(.95809)" d="M67.783 68.73a8.828 12.61 0 11-17.655 0 8.828 12.61 0 1117.655 0z" fill="url(#v)"/>
 <path transform="matrix(.43866 1.0081 -1.1205 .57516 167.8 -24.1)" d="M58.956 93.95a2.207 3.468 0 11-4.414 0 2.207 3.468 0 114.414 0z" fill="#fff" fill-opacity=".801" filter="url(#f)"/>
 <path transform="rotate(81.085 72.493 114.07) scale(.95809)" d="M64.946 102.778a1.103 3.153 0 11-2.207 0 1.103 3.153 0 112.207 0z" fill="#fff" fill-opacity=".801" filter="url(#g)"/>
 <path d="M65.479 7.921c2.3 3.773 4.282 7.979 5.852 12.465.517 1.477 3.295 1.148 3.72 2.68.534 1.925-1.313 5.724-.936 7.717 2.47 13.055 1.435 27.332-4.895 39.775-.551 1.083.273 6.249-.36 7.302-.732 1.22-2.936-1.677-3.78-.503a52.233 52.233 0 01-5.888 6.838l-.897-8.127-7.298 9.73-1.152-9.272-6.174.526c1.224-4.698 1.516-8.513 1.114-11.648-.278-2.17-5.813-4.009-7.683-4.204.38-1.962.507-5.49-3.122-7.234-.963-.463-2.953.048-6.193-.172.154-1.983 1.11-6.351-.277-6.87-2.209-.824-4.815.718-6.672-.257l-.072-5.922S8.339 32.575 6.689 30.252c3.416.298 12.66 1.32 12.66 1.32l-.746-5.303c3.329-.428 3.663 3.154 7.423 4.453 1.044.361 2.604-9.62 3.66-9.26 2.135.729 4.935 5.251 7.056 5.62 1.337.231.978-3.181 2.283-3.249 1.068-.055 3.808 3.294 4.842 2.965 1.708-.544.66-4.398 2.235-5.927 1.436-1.393 5.51-.363 6.799-2.808l-.662-8.974 4.725 8.81-.488-15.79 9.92 15.93-.917-10.118z" fill="url(#h)" fill-rule="evenodd"/>
 <path d="M106.24 2.541c-3.145 16.507-10.558 25.901-16.107 38.403-17.16.939-37.516-1.319-56.32-2.023v.958c19.15 1.866 37.455 5 58.253 4.394 2.489-4.548 4.978-8.71 7.466-15.861-.586 12.498 2.162 16.662 3.264 24.94l2.622.22c.326-9.744-3.554-16.122 1.05-29.287L115.856 8.5c-3.205.11-6.41-.705-9.616-5.959z" fill="url(#i)" fill-rule="evenodd"/>
 <path d="M41.881 116.492a8.458 12.082 59.094 11-8.688-14.514 8.458 12.082 59.094 118.688 14.514z" fill="#b03fdb"/>
 <path transform="rotate(59.094 8.741 70.829) scale(.95809)" d="M67.783 68.73a8.828 12.61 0 11-17.655 0 8.828 12.61 0 1117.655 0z" fill="url(#v)"/>
 <path transform="matrix(.12683 1.092 -1.2393 .22478 147.99 20.836)" d="M58.956 93.95a2.207 3.468 0 11-4.414 0 2.207 3.468 0 114.414 0z" fill="#fff" fill-opacity=".801" filter="url(#f)"/>
 <path transform="rotate(97.976 39.665 95.43) scale(.95809)" d="M64.946 102.778a1.103 3.153 0 11-2.207 0 1.103 3.153 0 112.207 0z" fill="#fff" fill-opacity=".801" filter="url(#g)"/>
 <path d="M28.59 117.398a8.458 12.082 59.094 11-8.687-14.513 8.458 12.082 59.094 118.688 14.513z" fill="#b03fdb"/>
 <path transform="rotate(59.094 1.297 59.559) scale(.95809)" d="M67.783 68.73a8.828 12.61 0 11-17.655 0 8.828 12.61 0 1117.655 0z" fill="url(#v)"/>
 <path transform="matrix(.12683 1.092 -1.2393 .22478 134.7 21.742)" d="M58.956 93.95a2.207 3.468 0 11-4.414 0 2.207 3.468 0 114.414 0z" fill="#fff" fill-opacity=".801" filter="url(#f)"/>
 <path transform="rotate(97.976 32.626 90.105) scale(.95809)" d="M64.946 102.778a1.103 3.153 0 11-2.207 0 1.103 3.153 0 112.207 0z" fill="#fff" fill-opacity=".801" filter="url(#g)"/>
 <path d="M33.122 105.92a8.458 12.082 59.094 11-8.689-14.514 8.458 12.082 59.094 118.689 14.514z" fill="#b03fdb"/>
 <path transform="rotate(59.094 13.687 57.816) scale(.95809)" d="M67.783 68.73a8.828 12.61 0 11-17.655 0 8.828 12.61 0 1117.655 0z" fill="url(#v)"/>
 <path transform="matrix(.12683 1.092 -1.2393 .22478 139.23 10.264)" d="M58.956 93.95a2.207 3.468 0 11-4.414 0 2.207 3.468 0 114.414 0z" fill="#fff" fill-opacity=".801" filter="url(#f)"/>
 <path transform="rotate(97.976 39.882 86.336) scale(.95809)" d="M64.946 102.778a1.103 3.153 0 11-2.207 0 1.103 3.153 0 112.207 0z" fill="#fff" fill-opacity=".801" filter="url(#g)"/>
 <path d="M35.84 95.952a8.458 12.082 59.094 11-8.688-14.514 8.458 12.082 59.094 118.688 14.514z" fill="#b03fdb"/>
 <path transform="rotate(59.094 23.838 55.23) scale(.95809)" d="M67.783 68.73a8.828 12.61 0 11-17.655 0 8.828 12.61 0 1117.655 0z" fill="url(#v)"/>
 <path transform="matrix(.12683 1.092 -1.2393 .22478 141.95 .296)" d="M58.956 93.95a2.207 3.468 0 11-4.414 0 2.207 3.468 0 114.414 0z" fill="#fff" fill-opacity=".801" filter="url(#f)"/>
 <path transform="rotate(97.976 45.576 82.534) scale(.95809)" d="M64.946 102.778a1.103 3.153 0 11-2.207 0 1.103 3.153 0 112.207 0z" fill="#fff" fill-opacity=".801" filter="url(#g)"/>
 <path d="M49.336 102.31a8.458 12.082 45.3 11-11.898-12.023 8.458 12.082 45.3 1111.898 12.024z" fill="#b03fdb"/>
 <path transform="rotate(45.299 13.449 65.38) scale(.95809)" d="M67.783 68.73a8.828 12.61 0 11-17.655 0 8.828 12.61 0 1117.655 0z" fill="url(#v)"/>
 <path transform="matrix(.38356 1.0303 -1.1499 .51378 129.58 -15.887)" d="M58.956 93.95a2.207 3.468 0 11-4.414 0 2.207 3.468 0 114.414 0z" fill="#fff" fill-opacity=".801" filter="url(#f)"/>
 <path transform="rotate(84.182 48.135 90.29) scale(.95809)" d="M64.946 102.778a1.103 3.153 0 11-2.207 0 1.103 3.153 0 112.207 0z" fill="#fff" fill-opacity=".801" filter="url(#g)"/>
 <path d="M60.233 108.07A8.458 12.082 37.76 1146.86 97.714a8.458 12.082 37.76 1113.373 10.358z" fill="#b03fdb"/>
 <path transform="rotate(37.759 .855 80.074) scale(.95809)" d="M67.783 68.73a8.828 12.61 0 11-17.655 0 8.828 12.61 0 1117.655 0z" fill="url(#v)"/>
 <path transform="matrix(.51544 .97107 -1.0726 .66024 124.27 -19.635)" d="M58.956 93.95a2.207 3.468 0 11-4.414 0 2.207 3.468 0 114.414 0z" fill="#fff" fill-opacity=".801" filter="url(#f)"/>
 <path transform="rotate(76.642 48.99 99.203) scale(.95809)" d="M64.946 102.778a1.103 3.153 0 11-2.207 0 1.103 3.153 0 112.207 0z" fill="#fff" fill-opacity=".801" filter="url(#g)"/>
 <path d="M71.711 100.52A8.458 12.082 37.76 1158.338 90.16a8.458 12.082 37.76 1113.373 10.358z" fill="#b03fdb"/>
 <path transform="rotate(37.759 17.635 93.08) scale(.95809)" d="M67.783 68.73a8.828 12.61 0 11-17.655 0 8.828 12.61 0 1117.655 0z" fill="url(#v)"/>
 <path transform="matrix(.51544 .97107 -1.0726 .66024 135.75 -27.186)" d="M58.956 93.95a2.207 3.468 0 11-4.414 0 2.207 3.468 0 114.414 0z" fill="#fff" fill-opacity=".801" filter="url(#f)"/>
 <path transform="rotate(76.642 59.506 102.69) scale(.95809)" d="M64.946 102.778a1.103 3.153 0 11-2.207 0 1.103 3.153 0 112.207 0z" fill="#fff" fill-opacity=".801" filter="url(#g)"/>
 <path d="M62.347 89.343a8.458 12.082 37.76 11-13.373-10.358 8.458 12.082 37.76 1113.373 10.358z" fill="#b03fdb"/>
 <path transform="rotate(37.759 29.294 73.802) scale(.95809)" d="M67.783 68.73a8.828 12.61 0 11-17.655 0 8.828 12.61 0 1117.655 0z" fill="url(#v)"/>
 <path transform="matrix(.51544 .97107 -1.0726 .66024 126.39 -38.362)" d="M58.956 93.95a2.207 3.468 0 11-4.414 0 2.207 3.468 0 114.414 0z" fill="#fff" fill-opacity=".801" filter="url(#f)"/>
 <path transform="rotate(76.642 61.895 91.177) scale(.95809)" d="M64.946 102.778a1.103 3.153 0 11-2.207 0 1.103 3.153 0 112.207 0z" fill="#fff" fill-opacity=".801" filter="url(#g)"/>
 <path d="M51.473 81.188A8.458 12.082 37.76 1138.1 70.83a8.458 12.082 37.76 1113.373 10.358z" fill="#b03fdb"/>
 <path transform="rotate(37.759 35.78 53.825) scale(.95809)" d="M67.783 68.73a8.828 12.61 0 11-17.655 0 8.828 12.61 0 1117.655 0z" fill="url(#v)"/>
 <path transform="matrix(.51544 .97107 -1.0726 .66024 115.51 -46.518)" d="M58.956 93.95a2.207 3.468 0 11-4.414 0 2.207 3.468 0 114.414 0z" fill="#fff" fill-opacity=".801" filter="url(#f)"/>
 <path transform="rotate(76.642 61.617 80.22) scale(.95809)" d="M64.946 102.778a1.103 3.153 0 11-2.207 0 1.103 3.153 0 112.207 0z" fill="#fff" fill-opacity=".801" filter="url(#g)"/>
 <path d="M42.714 76.355A8.458 12.082 37.76 1129.34 65.997a8.458 12.082 37.76 1113.374 10.358z" fill="#b03fdb"/>
 <path transform="rotate(37.759 38.467 38.601) scale(.95809)" d="M67.783 68.73a8.828 12.61 0 11-17.655 0 8.828 12.61 0 1117.655 0z" fill="url(#v)"/>
 <path transform="matrix(.51544 .97107 -1.0726 .66024 106.75 -51.35)" d="M58.956 93.95a2.207 3.468 0 11-4.414 0 2.207 3.468 0 114.414 0z" fill="#fff" fill-opacity=".801" filter="url(#f)"/>
 <path transform="rotate(76.642 60.295 72.262) scale(.95809)" d="M64.946 102.778a1.103 3.153 0 11-2.207 0 1.103 3.153 0 112.207 0z" fill="#fff" fill-opacity=".801" filter="url(#g)"/>
 <path d="M88.78 88.525a8.458 12.082 9.116 11-16.701-2.68 8.458 12.082 9.116 1116.701 2.68z" fill="#b03fdb"/>
 <path transform="rotate(9.116 -65.364 226.7) scale(.95809)" d="M67.783 68.73a8.828 12.61 0 11-17.655 0 8.828 12.61 0 1117.655 0z" fill="url(#v)"/>
 <path transform="matrix(.91785 .60515 -.62483 1.0936 83.767 -54.25)" d="M58.956 93.95a2.207 3.468 0 11-4.414 0 2.207 3.468 0 114.414 0z" fill="#fff" fill-opacity=".801" filter="url(#f)"/>
 <path transform="rotate(47.998 76.507 121.5) scale(.95809)" d="M64.946 102.778a1.103 3.153 0 11-2.207 0 1.103 3.153 0 112.207 0z" fill="#fff" fill-opacity=".801" filter="url(#g)"/>
 <path d="M76.405 82.783a8.458 12.082 35.922 11-13.699-9.924 8.458 12.082 35.922 1113.699 9.924z" fill="#b03fdb"/>
 <path transform="rotate(35.922 44.554 91.995) scale(.95809)" d="M67.783 68.73a8.828 12.61 0 11-17.655 0 8.828 12.61 0 1117.655 0z" fill="url(#v)"/>
 <path transform="matrix(.5463 .95405 -1.0509 .69428 136.32 -46.91)" d="M58.956 93.95a2.207 3.468 0 11-4.414 0 2.207 3.468 0 114.414 0z" fill="#fff" fill-opacity=".801" filter="url(#f)"/>
 <path transform="rotate(74.805 73.234 97.135) scale(.95809)" d="M64.946 102.778a1.103 3.153 0 11-2.207 0 1.103 3.153 0 112.207 0z" fill="#fff" fill-opacity=".801" filter="url(#g)"/>
 <path d="M66.135 71.003a8.458 12.082 35.922 11-13.699-9.924 8.458 12.082 35.922 1113.699 9.924z" fill="#b03fdb"/>
 <path transform="rotate(35.922 57.589 70.264) scale(.95809)" d="M67.783 68.73a8.828 12.61 0 11-17.655 0 8.828 12.61 0 1117.655 0z" fill="url(#v)"/>
 <path transform="matrix(.5463 .95405 -1.0509 .69428 126.05 -58.69)" d="M58.956 93.95a2.207 3.468 0 11-4.414 0 2.207 3.468 0 114.414 0z" fill="#fff" fill-opacity=".801" filter="url(#f)"/>
 <path transform="rotate(74.805 75.802 84.529) scale(.95809)" d="M64.946 102.778a1.103 3.153 0 11-2.207 0 1.103 3.153 0 112.207 0z" fill="#fff" fill-opacity=".801" filter="url(#g)"/>
 <path d="M54.354 62.243a8.458 12.082 35.922 11-13.698-9.924 8.458 12.082 35.922 1113.698 9.924z" fill="#b03fdb"/>
 <path transform="rotate(35.922 65.21 47.715) scale(.95809)" d="M67.783 68.73a8.828 12.61 0 11-17.655 0 8.828 12.61 0 1117.655 0z" fill="url(#v)"/>
 <path transform="matrix(.5463 .95405 -1.0509 .69428 114.27 -67.45)" d="M58.956 93.95a2.207 3.468 0 11-4.414 0 2.207 3.468 0 114.414 0z" fill="#fff" fill-opacity=".801" filter="url(#f)"/>
 <path transform="rotate(74.805 75.64 72.446) scale(.95809)" d="M64.946 102.778a1.103 3.153 0 11-2.207 0 1.103 3.153 0 112.207 0z" fill="#fff" fill-opacity=".801" filter="url(#g)"/>
 <path d="M100.975 75.653a8.458 12.082 9.116 11-16.702-2.68 8.458 12.082 9.116 1116.702 2.68z" fill="#b03fdb"/>
 <path transform="rotate(9.116 21.467 296.75) scale(.95809)" d="M67.783 68.73a8.828 12.61 0 11-17.655 0 8.828 12.61 0 1117.655 0z" fill="url(#v)"/>
 <path transform="matrix(.91785 .60515 -.62483 1.0936 95.961 -67.122)" d="M58.956 93.95a2.207 3.468 0 11-4.414 0 2.207 3.468 0 114.414 0z" fill="#fff" fill-opacity=".801" filter="url(#f)"/>
 <path transform="rotate(47.998 97.06 128.76) scale(.95809)" d="M64.946 102.778a1.103 3.153 0 11-2.207 0 1.103 3.153 0 112.207 0z" fill="#fff" fill-opacity=".801" filter="url(#g)"/>
 <path d="M90.485 70.215a8.458 12.082 18.452 11-16.046-5.354 8.458 12.082 18.452 1116.046 5.354z" fill="#b03fdb"/>
 <path transform="rotate(18.452 64.272 146.66) scale(.95809)" d="M67.783 68.73a8.828 12.61 0 11-17.655 0 8.828 12.61 0 1117.655 0z" fill="url(#v)"/>
 <path transform="matrix(.80752 .74603 -.79395 .97774 108.7 -71.482)" d="M58.956 93.95a2.207 3.468 0 11-4.414 0 2.207 3.468 0 114.414 0z" fill="#fff" fill-opacity=".801" filter="url(#f)"/>
 <path transform="rotate(57.334 93.73 107.95) scale(.95809)" d="M64.946 102.778a1.103 3.153 0 11-2.207 0 1.103 3.153 0 112.207 0z" fill="#fff" fill-opacity=".801" filter="url(#g)"/>
 <path d="M82.016 60.053a8.458 12.082 18.452 11-16.045-5.354 8.458 12.082 18.452 1116.045 5.354z" fill="#b03fdb"/>
 <path transform="rotate(18.452 91.32 115.51) scale(.95809)" d="M67.783 68.73a8.828 12.61 0 11-17.655 0 8.828 12.61 0 1117.655 0z" fill="url(#v)"/>
 <path transform="matrix(.80752 .74603 -.79395 .97774 100.23 -81.644)" d="M58.956 93.95a2.207 3.468 0 11-4.414 0 2.207 3.468 0 114.414 0z" fill="#fff" fill-opacity=".801" filter="url(#f)"/>
 <path transform="rotate(57.334 98.79 95.12) scale(.95809)" d="M64.946 102.778a1.103 3.153 0 11-2.207 0 1.103 3.153 0 112.207 0z" fill="#fff" fill-opacity=".801" filter="url(#g)"/>
 <path d="M71.417 52.433a8.458 12.082 35.238 11-13.816-9.76 8.458 12.082 35.238 1113.816 9.76z" fill="#b03fdb"/>
 <path transform="rotate(35.238 89.301 69.334) scale(.95809)" d="M67.783 68.73a8.828 12.61 0 11-17.655 0 8.828 12.61 0 1117.655 0z" fill="url(#v)"/>
 <path transform="matrix(.55765 .94746 -1.0425 .70677 129.78 -77.966)" d="M58.956 93.95a2.207 3.468 0 11-4.414 0 2.207 3.468 0 114.414 0z" fill="#fff" fill-opacity=".801" filter="url(#f)"/>
 <path transform="rotate(74.121 90.896 78.79) scale(.95809)" d="M64.946 102.778a1.103 3.153 0 11-2.207 0 1.103 3.153 0 112.207 0z" fill="#fff" fill-opacity=".801" filter="url(#g)"/>
 <path d="M57.177 47.19a8.458 12.082 42.684 11-12.435-11.468 8.458 12.082 42.684 1112.435 11.467z" fill="#b03fdb"/>
 <path transform="rotate(42.684 84.937 46.581) scale(.95809)" d="M67.783 68.73a8.828 12.61 0 11-17.655 0 8.828 12.61 0 1117.655 0z" fill="url(#v)"/>
 <path transform="matrix(.43018 1.0117 -1.1253 .56572 131.94 -74.547)" d="M58.956 93.95a2.207 3.468 0 11-4.414 0 2.207 3.468 0 114.414 0z" fill="#fff" fill-opacity=".801" filter="url(#f)"/>
 <path transform="rotate(81.566 83.69 66.99) scale(.95809)" d="M64.946 102.778a1.103 3.153 0 11-2.207 0 1.103 3.153 0 112.207 0z" fill="#fff" fill-opacity=".801" filter="url(#g)"/>
 <path d="M111.476 62.78a8.458 12.082 9.116 11-16.702-2.679 8.458 12.082 9.116 1116.702 2.68z" fill="#b03fdb"/>
 <path transform="rotate(9.116 107.45 356.17) scale(.95809)" d="M67.783 68.73a8.828 12.61 0 11-17.655 0 8.828 12.61 0 1117.655 0z" fill="url(#v)"/>
 <path transform="matrix(.91785 .60515 -.62483 1.0936 106.46 -79.994)" d="M58.956 93.95a2.207 3.468 0 11-4.414 0 2.207 3.468 0 114.414 0z" fill="#fff" fill-opacity=".801" filter="url(#f)"/>
 <path transform="rotate(47.998 116.77 134.12) scale(.95809)" d="M64.946 102.778a1.103 3.153 0 11-2.207 0 1.103 3.153 0 112.207 0z" fill="#fff" fill-opacity=".801" filter="url(#g)"/>
 <path d="M98.942 56.684a8.458 12.082 9.116 11-16.701-2.68 8.458 12.082 9.116 1116.701 2.68z" fill="#b03fdb"/>
 <path transform="rotate(9.116 139.43 274.52) scale(.95809)" d="M67.783 68.73a8.828 12.61 0 11-17.655 0 8.828 12.61 0 1117.655 0z" fill="url(#v)"/>
 <path transform="matrix(.91785 .60515 -.62483 1.0936 93.929 -86.091)" d="M58.956 93.95a2.207 3.468 0 11-4.414 0 2.207 3.468 0 114.414 0z" fill="#fff" fill-opacity=".801" filter="url(#f)"/>
 <path transform="rotate(47.998 117.35 116.99) scale(.95809)" d="M64.946 102.778a1.103 3.153 0 11-2.207 0 1.103 3.153 0 112.207 0z" fill="#fff" fill-opacity=".801" filter="url(#g)"/>
 <path d="M86.324 47.901a8.458 12.082 26.215 11-15.176-7.472 8.458 12.082 26.215 1115.176 7.472z" fill="#b03fdb"/>
 <path transform="rotate(26.215 114.17 102.79) scale(.95809)" d="M67.783 68.73a8.828 12.61 0 11-17.655 0 8.828 12.61 0 1117.655 0z" fill="url(#v)"/>
 <path transform="matrix(.69935 .84827 -.91875 .86153 123.51 -90.036)" d="M58.956 93.95a2.207 3.468 0 11-4.414 0 2.207 3.468 0 114.414 0z" fill="#fff" fill-opacity=".801" filter="url(#f)"/>
 <path transform="rotate(65.097 106.49 89.56) scale(.95809)" d="M64.946 102.778a1.103 3.153 0 11-2.207 0 1.103 3.153 0 112.207 0z" fill="#fff" fill-opacity=".801" filter="url(#g)"/>
 <path d="M69.905 39.74a8.458 12.082 61.455 11-8.083-14.86 8.458 12.082 61.455 118.083 14.86z" fill="#b03fdb"/>
 <path transform="rotate(61.455 89.386 56.968) scale(.95809)" d="M67.783 68.73a8.828 12.61 0 11-17.655 0 8.828 12.61 0 1117.655 0z" fill="url(#v)"/>
 <path transform="matrix(.08172 1.0964 -1.2475 .17352 179.87 -51.462)" d="M58.956 93.95a2.207 3.468 0 11-4.414 0 2.207 3.468 0 114.414 0z" fill="#fff" fill-opacity=".801" filter="url(#f)"/>
 <path transform="rotate(100.34 86.152 69.068) scale(.95809)" d="M64.946 102.778a1.103 3.153 0 11-2.207 0 1.103 3.153 0 112.207 0z" fill="#fff" fill-opacity=".801" filter="url(#g)"/>
 <path d="M108.601 82.422a8.458 12.082 9.116 11-16.701-2.68 8.458 12.082 9.116 1116.701 2.68z" fill="#b03fdb"/>
 <path transform="rotate(9.116 -17.175 347.97) scale(.95809)" d="M67.783 68.73a8.828 12.61 0 11-17.655 0 8.828 12.61 0 1117.655 0z" fill="url(#v)"/>
 <path transform="matrix(.91785 .60515 -.62483 1.0936 103.59 -60.353)" d="M58.956 93.95a2.207 3.468 0 11-4.414 0 2.207 3.468 0 114.414 0z" fill="#fff" fill-opacity=".801" filter="url(#f)"/>
 <path transform="rotate(47.998 93.271 140.71) scale(.95809)" d="M64.946 102.778a1.103 3.153 0 11-2.207 0 1.103 3.153 0 112.207 0z" fill="#fff" fill-opacity=".801" filter="url(#g)"/>
 <path d="M112.913 95.356a8.458 12.082 9.116 11-16.702-2.68 8.458 12.082 9.116 1116.702 2.68z" fill="#b03fdb"/>
 <path transform="rotate(9.116 -96.143 381.47) scale(.95809)" d="M67.783 68.73a8.828 12.61 0 11-17.655 0 8.828 12.61 0 1117.655 0z" fill="url(#v)"/>
 <path transform="matrix(.91785 .60515 -.62483 1.0936 107.9 -47.419)" d="M58.956 93.95a2.207 3.468 0 11-4.414 0 2.207 3.468 0 114.414 0z" fill="#fff" fill-opacity=".801" filter="url(#f)"/>
 <path transform="rotate(47.998 80.901 152.02) scale(.95809)" d="M64.946 102.778a1.103 3.153 0 11-2.207 0 1.103 3.153 0 112.207 0z" fill="#fff" fill-opacity=".801" filter="url(#g)"/>
 <path d="M119.62 75.715a8.458 12.082 9.116 11-16.702-2.68 8.458 12.082 9.116 1116.701 2.68z" fill="#b03fdb"/>
 <path transform="rotate(9.116 30.399 413.72) scale(.95809)" d="M67.783 68.73a8.828 12.61 0 11-17.655 0 8.828 12.61 0 1117.655 0z" fill="url(#v)"/>
 <path transform="matrix(.91785 .60515 -.62483 1.0936 114.61 -67.06)" d="M58.956 93.95a2.207 3.468 0 11-4.414 0 2.207 3.468 0 114.414 0z" fill="#fff" fill-opacity=".801" filter="url(#f)"/>
 <path transform="rotate(47.998 106.31 149.73) scale(.95809)" d="M64.946 102.778a1.103 3.153 0 11-2.207 0 1.103 3.153 0 112.207 0z" fill="#fff" fill-opacity=".801" filter="url(#g)"/>
</svg>
