<svg width="106.667" height="106.667" xmlns="http://www.w3.org/2000/svg"><g fill-rule="evenodd"><path transform="matrix(1.07382 0 0 1.05095 -67.239 -44.863)" d="M153.466 91.761c0 22.747-19.84 41.209-44.287 41.209S64.892 114.508 64.892 91.76c0-22.747 19.84-41.208 44.287-41.208s44.287 18.461 44.287 41.208z" fill="#ffea00" stroke="#000" stroke-width="2.353" stroke-linejoin="round"/><path d="M94.05 51.574c3.35 19.079-30.558 43.373-44.287 40.024-20.092-2.68-45.962-18.936-42.613-39.69C5.14 34.505 25.316 11.55 49.763 11.55 74.88 12.89 90.366 24.791 94.05 51.574z" fill="#fff"/><path d="M52.924 47.469s3.35-30.144 5.024-29.474c3.684-2.345 13.397 2.344 12.392 6.364.335 3.014-17.08 21.435-17.416 23.11zM22.446 35.076l24.45 14.067-15.072-25.12c-6.699-1.339-11.053 3.015-9.378 11.053zM49.91 48.139l-14.402-25.12c0-5.694 13.397-9.043 15.742-4.354 2.344 3.014-1.34 29.474-1.34 29.474zM55.939 48.474s16.746-22.44 18.756-20.766c5.023-2.01 13.397 4.689 8.708 13.062.335 2.01-27.464 5.359-27.464 7.704zM54.599 51.823s24.785-7.369 29.809-6.364c3.684 1.34 3.684 18.086-3.35 17.082-3.014.67-25.12-10.048-26.46-10.718zM53.929 54.502S77.374 65.22 79.049 68.57c5.359 5.36-6.03 11.388-10.383 10.718-.67 1.675-16.747-25.79-14.737-24.785zM51.584 55.507s13.398 25.79 12.728 27.464c-.67 1.675-9.043 7.369-15.407 2.68-.67-2.68.67-29.809 2.68-30.144zM48.235 55.507s-4.019 28.804-6.364 29.474c-3.014 2.01-11.722-.335-13.397-6.699 1.005-2.68 16.747-23.445 19.761-22.775zM25.46 74.933c3.684-2.345 17.416-19.426 18.421-21.1 1.005-1.675-27.464 3.349-27.13 5.023-2.009 3.015 3.015 16.747 8.709 16.077zM15.412 53.832c5.359-.335 22.775-3.684 26.46-3.014 3.684.67-21.101-13.732-21.101-11.388-4.69 1.34-12.058 8.709-5.359 14.402z" fill="#ffdb00" stroke="#000" stroke-width="2.5" stroke-linejoin="round"/></g></svg>