<svg width="533.333" height="533.333" xmlns="http://www.w3.org/2000/svg" xmlns:xlink="http://www.w3.org/1999/xlink"><defs><radialGradient xlink:href="#a" id="b" cx=".337" cy=".284" r=".382" fx=".337" fy=".284"/><linearGradient id="a"><stop offset="0" stop-color="#ff0"/><stop offset="1" stop-color="#ffe300"/></linearGradient></defs><g fill-rule="evenodd"><path d="M68.708 148.13c159.99-138.549 405.749-1.972 402.45 141.525 26.39 25.565-3.299 53.605-19.793 61.027C309.518 525.517 17.577 382.02 34.895 237.7c-22.048-63.371-2.473-82.147 33.813-89.57z" fill="url(#b)" stroke="#000" stroke-width="10" stroke-linejoin="round"/><path d="M44.33 267.991c21.25-21.25 23.75 143.75 333.75 82.5-6.25-6.25-40-148.75 80-101.25 46.875 14.375-99.375-9.688-47.5 90 8.044 13.096 5.625 13.125 27.5 18.75-132.5 142.5-391.25 32.5-393.75-90z" fill-opacity=".133"/><path d="M68.08 155.833c56.29-65.342 245.606-111.855 370 47.5-42.5 46.25-162.5-153.75-370-47.5zM469.33 295.491c14.316 17.5 1.25 37.5-8.75 35-78.75-21.25-36.25-42.5 8.75-35z" fill="#fff" fill-opacity=".7"/></g></svg>