<?xml version="1.0" encoding="UTF-8"?>
<svg width="533.33" height="533.33" xmlns="http://www.w3.org/2000/svg" xmlns:xlink="http://www.w3.org/1999/xlink">
 <defs>
  <radialGradient id="d" cx=".645" cy=".761" r=".634">
   <stop stop-color="#dd6204" offset="0"/>
   <stop stop-color="#e48e17" offset="1"/>
  </radialGradient>
  <radialGradient id="e" cx=".439" cy=".498" fx=".433" fy=".515">
   <stop stop-color="#fff" stop-opacity=".5" offset="0"/>
   <stop stop-color="#fff" stop-opacity="0" offset="1"/>
  </radialGradient>
 </defs>
 <g fill-rule="evenodd">
  <path d="m222.68 36.451c-273.04 66.58-212.86 365.29-111.04 410.89 289.42 123.65 365.88-83.7 374.98-142.67 22.062-181.42-134.7-302.46-263.94-268.22z" fill="url(#d)" stroke="#000" stroke-linejoin="round" stroke-width="10"/>
  <path d="m67.957 137.27c109.22-43.753 136.52-55.166 185.67-49.46 25.484 17.121 118.32 13.317 189.31 131.26-60.07-112.24-81.913-123.65-127.42-129.36-45.506 0 43.687-15.218 105.58 11.413-58.248-38.045-141.98-19.022-101.94-57.068-29.124 3.805-30.945 13.316-50.968 28.534-43.686-13.316-27.304-32.338-103.76-15.218 56.428-3.804 45.507 1.902 72.81 11.414-109.22 15.218-143.8 51.361-169.28 68.482z" fill="#fff" fill-opacity=".1"/>
  <path d="m263.68 83.612c2.03 11.169 3.559 48.714 7.162 48.714 7.806-3.137 17.73-40.26 21.933-44.025s42.054 28.52 45.056 27.266c3.003-1.255-26.354-53.643-25.153-57.408-8.407-0.627-19.717 8.066-23.32 1.791s-10.71-2.898-20.318-11.056c-15.743 17.24-42.338 24.974-49.543 35.642 7.205 5.02 36.06 1.107 44.183-0.924z" fill="#090" stroke="#000" stroke-linejoin="round" stroke-width="10"/>
  <path d="m273.15 68.108c3.003 8.158 10.208 6.275 13.811 2.51 7.206-1.883 2.358-11.183 4.389-25.876-6.605-3.766-6.976-2.898-14.182-1.016-1.201 3.765-6.42 20.617-4.018 24.382z" fill="#090" stroke="#000" stroke-linejoin="round" stroke-width="10"/>
  <path d="M280.583 53.583s-9.236 14.525-.83 16.407c6.606-2.51 8.636-16.407.83-16.407z" fill="#00eb00"/>
  <path d="M269.176 70.269c-1.015 0-34.859 8.01-31.857 11.147 9.608 0 25.252-2.362 31.857-11.147zM269.71 74.07c3.002 9.412-2.905 36.825.098 39.963 9.607 0 10.11-34.944-.099-39.964z" fill="#00ea00"/>
  <path d="m177.17 162c-96.475-22.827-160.18 121.75-65.53 209.25 131.06 70.385 180.21-112.23 65.53-209.25z" fill="url(#e)"/>
  <path d="M417.166 406.591a4.948 5.36 0 10-9.896 0 4.948 5.36 0 109.896 0zM350.155 458.372a4.948 5.36 0 10-9.896 0 4.948 5.36 0 109.896 0zM265.884 472.587a4.948 5.36 0 10-9.896 0 4.948 5.36 0 109.896 0zM454.578 334.155a4.948 5.36 0 10-9.897 0 4.948 5.36 0 109.897 0zM480.116 249.217a4.948 5.36 0 10-9.896 0 4.948 5.36 0 109.896 0zM453.718 282.722a4.948 5.36 0 10-9.897 0 4.948 5.36 0 109.897 0zM419.197 356.84a4.948 5.36 0 10-9.896 0 4.948 5.36 0 109.896 0zM372.337 405.227a4.948 5.36 0 10-9.896 0 4.948 5.36 0 109.896 0zM306.497 445.173a4.948 5.36 0 10-9.896 0 4.948 5.36 0 109.896 0zM449.656 207.59a4.948 5.36 0 10-9.896 0 4.948 5.36 0 109.896 0zM415.136 299.983a4.948 5.36 0 10-9.897 0 4.948 5.36 0 109.897 0zM359.138 360.553a4.948 5.36 0 10-9.896 0 4.948 5.36 0 109.896 0zM351.17 387.3a4.948 5.36 0 10-9.896 0 4.948 5.36 0 109.897 0zM327.818 410.652a4.948 5.36 0 10-9.896 0 4.948 5.36 0 109.896 0zM248.624 445.173a4.948 5.36 0 10-9.896 0 4.948 5.36 0 109.896 0zM441.534 149.716a4.948 5.36 0 10-9.896 0 4.948 5.36 0 109.896 0zM417.166 232.972a4.948 5.36 0 10-9.896 0 4.948 5.36 0 109.896 0zM390.768 267.493a4.948 5.36 0 10-9.896 0 4.948 5.36 0 109.896 0zM372.492 312.167a4.948 5.36 0 10-9.896 0 4.948 5.36 0 109.896 0zM323.757 359.886a4.948 5.36 0 10-9.896 0 4.948 5.36 0 109.896 0zM282.13 384.254a4.948 5.36 0 10-9.897 0 4.948 5.36 0 109.896 0zM233.394 406.59a4.948 5.36 0 10-9.896 0 4.948 5.36 0 109.896 0zM184.659 448.219a4.948 5.36 0 10-9.896 0 4.948 5.36 0 109.896 0z" fill="#db6422" fill-opacity=".833" stroke="#d55f00" stroke-opacity=".742" stroke-width="1.25"/>
 </g>
</svg>
