<?xml version="1.0" encoding="UTF-8"?>
<svg width="533.33" height="533.33" xmlns="http://www.w3.org/2000/svg" xmlns:xlink="http://www.w3.org/1999/xlink">
 <defs>
  <radialGradient id="h" cx=".443" cy=".537" r=".173" xlink:href="#b"/>
  <radialGradient id="e" cx=".811" cy=".652" r=".411" xlink:href="#a"/>
  <radialGradient id="g" cx=".465" cy=".553" r=".385" xlink:href="#b"/>
  <radialGradient id="i" cx=".587" cy=".572" r=".43" xlink:href="#a"/>
  <radialGradient id="f" cx=".474" cy=".567" r=".467" xlink:href="#b"/>
  <radialGradient id="d" cx=".317" cy=".876" r=".587">
   <stop stop-color="#d9b72e" offset="0"/>
   <stop stop-color="#e4e417" offset="1"/>
  </radialGradient>
  <linearGradient id="a">
   <stop stop-color="#dd6204" offset="0"/>
   <stop stop-color="#e48e17" stop-opacity="0" offset="1"/>
  </linearGradient>
  <linearGradient id="b">
   <stop stop-color="#fff" stop-opacity=".542" offset="0"/>
   <stop stop-color="#fff" stop-opacity="0" offset="1"/>
  </linearGradient>
 </defs>
 <g fill-rule="evenodd">
  <path d="m226.25 85s32.5-21.25 73.75 0c35 40 126.25 173.75 133.75 228.75-8.75 73.75-60 165-127.5 165-32.5-8.75-62.5-8.75-112.5 0-52.5-1.25-141.25-108.75-115-175 26.25-65 52.5-91.25 88.75-183.75 0-7.5 35-31.25 58.75-35z" fill="url(#d)" stroke="#000" stroke-linejoin="round" stroke-width="10"/>
  <path d="M210 88.75L187.5 50s-22.5-33.75 10-35c23.75 0 17.5 15 18.75 23.75s17.5 43.75 17.5 43.75-18.75 5-23.75 6.25z" fill="#643300" stroke="#000" stroke-linejoin="round" stroke-width="10"/>
  <path d="m301.25 96.25s58.75 117.5 26.25 126.25-85 42.5-57.5 71.25 61.25 17.5 66.25 55 38.75 73.75 56.25 70c20-33.125 33.263-54.483 37.031-112.34-13.594-43.594-105.16-193.91-128.28-210.16z" fill="url(#e)"/>
  <path d="m210 247.5c-43.75-13.75-48.75 38.75-7.5 53.75 38.75 5 52.5-35 7.5-53.75z" fill="url(#f)" stroke="url(#g)" stroke-width="1pt"/>
  <path d="m228.75 148.75c-17.5-6.25-58.75 20-15 45 30 12.5 62.5-26.25 15-45z" fill="url(#h)"/>
  <path d="m187.47 24.6c-7.5 2.5 25.425 65.877 30.425 54.627-6.25-20-22.925-48.376-30.425-54.626z" fill="#fff" fill-opacity=".15"/>
  <path d="m401.12 231.1s-18.91-47.637-56.73-84.854c-40.73 2.977-21.82 135.47 24.728 132.49 46.549-2.977 29.093-35.728 32.002-47.638zm-4.665 171.94s4.384-84.416-65.598-108.06c-47.097 3.792-25.23 172.52 28.594 168.73 53.825-3.792 33.64-45.5 37.005-60.667z" fill="url(#i)"/>
  <path d="m380.21 324.92s4.384-84.416-65.598-108.06c-47.097 3.792-25.23 172.52 28.594 168.73 53.825-3.792 33.64-45.5 37.005-60.667z" fill="url(#i)"/>
  <path d="m371.46 243.67s4.384-84.416-65.598-108.06c-47.097 3.792-25.23 172.52 28.594 168.73 53.825-3.792 33.64-45.5 37.005-60.667zm-20 172.5s4.384-84.416-65.598-108.06c-47.097 3.792-25.23 172.52 28.594 168.73 53.825-3.792 33.64-45.5 37.005-60.667z" fill="url(#i)"/>
  <path d="m353.96 207.42s4.385-84.416-65.597-108.06c-47.097 3.792-25.23 172.52 28.594 168.73 53.825-3.792 33.64-45.5 37.005-60.667z" fill="url(#i)"/>
  <path d="m345 156.25c136.25 248.75-32.5 305 5 315 68.75-62.5 123.75-151.25-5-315z" fill="#ac4200" fill-opacity=".175"/>
  <path d="m171.25 128.75c-73.75 150-98.75 178.75-92.5 197.5 2.5 70 51.25 107.5 75 125 50-21.25-110-66.25 17.5-322.5z" fill="#fff" fill-opacity=".225"/>
 </g>
</svg>
