<?xml version="1.0" encoding="UTF-8"?>
<svg width="533.33" height="533.33" xmlns="http://www.w3.org/2000/svg" xmlns:xlink="http://www.w3.org/1999/xlink">
 <defs>
  <linearGradient id="a">
   <stop stop-color="#dd7d0c" offset="0"/>
   <stop stop-color="#d5a224" offset="1"/>
  </linearGradient>
  <linearGradient id="e" x1="-.696" x2="1.147" y1=".254" y2=".284">
   <stop stop-color="#fff" stop-opacity=".342" offset="0"/>
   <stop stop-color="#fff" stop-opacity="0" offset="1"/>
  </linearGradient>
  <radialGradient id="d" cx=".477" cy=".532" r=".42" xlink:href="#a"/>
  <radialGradient id="c" xlink:href="#a"/>
 </defs>
 <g fill-rule="evenodd">
  <path d="m225.35 162.88s-66.944 34.626-69.252 39.243c-2.308 4.616-27.7 22.314-34.626 37.703-6.156 13.85-18.467 52.324-23.084 80.025 0.77 5.386 0 70.79 9.234 80.024 9.233 9.234 86.18 66.174 111.57 68.483 25.393 7.694 60.788 6.925 77.716 1.539 27.701-11.542 46.938-27.701 56.94-38.474 10.004-30.009 38.474-109.26 38.474-134.66-5.386-18.467-13.85-48.476-29.24-78.486-19.236-43.09-137.73-63.865-137.73-55.401z" fill="url(#c)" stroke="#000" stroke-linejoin="round" stroke-width="10"/>
  <path d="m212.22 142.34c-5.737-34.599-48.235-23.473-86.82-31.919 62.787-8.343 120.06 3.04 120.06 3.04-26.574-25.9-0.536-64.468-19.369-91.593 54.57 37.001 22.136 76.187 48.35 84.658-5.36-28.985 55.726-24.314 112.96-65.852-15.343 46.457-65.676 61.079-73.117 81.81 1.443 10.463 15.528 5.333 10.114 16.514 11.165 13.967 59.891-25.321 90.208-27.748-4.484 26.444-77.82 37.07-68.6 63.13-32.763-21.184-69.84-30.661-133.78-32.04z" fill="#007300" stroke="#000" stroke-linejoin="round" stroke-width="10"/>
  <path d="m370.06 58.553c-21.138 25.213-52.066 28.866-81.128 66.393 6.848-29.941 31.686-39.803 81.128-66.393zm-134-20.125c16.323 22.852-15.264 40.163 20.638 72.864-8.2-42.133-8.26-26.04-20.638-72.864z" fill="#0c0" fill-opacity=".5"/>
  <path d="m211.94 141.93c-5.738-34.599-48.235-23.473-86.821-31.918 62.788-8.344 103.74 5.215 103.74 5.215-26.575-25.9-75.463-70.394-94.296-97.519 54.569 37.002 105.77 82.113 131.98 90.585-5.36-28.985 58.534-20.932 84.206-88.587 18.39 21.429-45.558 79.137-53 99.868 1.443 10.463 30.735-34.034 129.14-52.006-45.602 27.628-97.356 59.84-102.77 71.02 11.164 13.967 109.89-4.071 140.21-6.498-4.483 26.444-127.82 15.82-118.6 41.88-32.762-21.183-69.84-30.661-133.78-32.04z" fill="#007300" stroke="#000" stroke-linejoin="round" stroke-width="10"/>
  <path d="m387.21 84.354c-28.593 11.853-52.785 28.748-94.906 55.393 18.818-22.324 38.31-37.766 94.907-55.393zm73.474 52.336c-31.557 4.352-42.195 14.601-51.67 5.336 18.818-1.649-1.036 0.578 51.67-5.337zm-123.03-89.033c-32.087 62.35-26.736 32.69-55.798 54.98 3.583-27.764 34.465-11 55.798-54.98zm-200.32 61.545c70.732-3.264 50.489-0.63 68.688 9.381-14.696-6.318 4.835-8.907-68.688-9.38zm3.705-84.987c47.88 45.704 76.417 44.052 116.33 88.79 9.233 0.77-76.678-46.965-116.33-88.79z" fill="#0c0" fill-opacity=".5"/>
  <path d="m213.53 164.09c-5.739-34.6-51.27-16.638-87.932 0.505 47.89-50.43 104.85-27.208 104.85-27.208-26.575-25.9-39.157-67.387-107.41-75.886 84.092-14.12 118.88 60.48 145.09 68.951-5.36-28.985-13.09-35.41 12.581-103.06 18.391 21.429 26.066 93.616 18.625 114.35 1.442 10.462 68.872-70.894 180.37-35.256-50.895-8.66-148.6 43.089-154.01 54.27 11.164 13.967 86.897-48.288 110.72 16.28-30.058-17.361-98.333-6.959-89.113 19.102-32.762-21.184-69.84-30.661-133.78-32.04z" fill="#007300" stroke="#000" stroke-linejoin="round" stroke-width="10"/>
  <path d="m147.09 153.79c67.52-30.469 56.564-22.751 96.563 4.838-28.557-3.968 1.454 7.016-24.073-4.129-16.664-26.245-36.596-14.434-72.49-0.709z" fill="#0c0" fill-opacity=".5"/>
  <path d="m231.92 162.16c13.157 11.094-8.03 19.504-18.81 27.574-4.191 6.53-24.306 7.783-31.68-1.79-8.531-9.879 28.872-27.592 50.49-25.784z" fill="url(#d)" stroke="#000" stroke-linejoin="round" stroke-width="10"/>
  <path d="m234.63 172.24c12.185-20.453 56.333-4.006 59.081 4.35-4.19 6.532-14.535 22.35-26.637 21.347-7.828-3.15-25.07-16.123-32.444-25.697zm90.658 32.286c-4.525-11.005-17.682-22.1-7.708-27.11 21.894 4.528 50.092 32.498 53.054 58.605-7.827-3.15-37.972-21.921-45.346-31.495z" fill="url(#d)" stroke="#000" stroke-linejoin="round" stroke-width="10"/>
  <path d="m274.28 198.74c2.951-11.22 12.925-23.924 25.212-28.326 17.349 4.564 24.186 23.872 26.935 32.228-4.192 6.532-10.363 29.99-22.465 28.988-7.827-3.15-22.308-23.317-29.682-32.89zm-96.059-16c11.297 4.063 12.084 15.175-1.193 28.04-4.191 6.531-8.013 2.254-24.306 7.783-8.53-9.878 13.212-31.421 25.5-35.823zm32.967 11.399c2.95-11.22 12.925-16.23 25.212-20.631 17.348 4.563 24.186 16.177 26.934 24.533-4.191 6.531-15.608 26.43-27.71 25.427-7.828-3.15-17.062-19.756-24.437-29.33z" fill="url(#d)" stroke="#000" stroke-linejoin="round" stroke-width="10"/>
  <path d="m174.41 211.73c2.952-11.22 12.926-16.23 25.213-20.63 17.348 4.563 24.186 16.176 26.934 24.533-4.191 6.53-14.35 16.945-30.644 22.473-7.827-3.15-14.128-16.802-21.503-26.376zm71.54 10.095c2.952-11.22 9.104-20.506 21.391-24.908 17.349 4.564 32.634 21.67 35.382 30.027-4.191 6.532-20.586 21.848-32.688 20.846-7.828-3.15-16.71-16.392-24.085-25.965zm60.243 6.032c2.951-11.22 13.73-19.289 26.017-23.69 17.349 4.563 24.186 16.177 26.935 24.533-4.192 6.531-11.066 23.262-23.168 22.26-7.828-3.15-22.41-13.53-29.784-23.103z" fill="url(#d)" stroke="#000" stroke-linejoin="round" stroke-width="10"/>
  <path d="m348.9 251.09c4.191-6.53-3.266-20.488 6.708-25.498 20.901 9.86 34.123 39.51 17.83 45.04-7.828-3.15-17.164-9.968-24.538-19.542zm-69.811-0.559c2.951-11.22 12.925-16.23 25.212-20.631 17.349 4.563 24.187 16.177 26.935 24.533-4.191 6.532-6.523 20.095-22.816 25.624-7.828-3.15-21.957-19.953-29.331-29.526zm-81.977-9.925c2.95-11.22 17.301-28.165 36.074-24.317 12.186 5.387 26.5 16.786 26.935 24.534-4.192 6.53-9.373 21.526-25.666 27.054-16.729-2.219-29.969-17.698-37.343-27.271zm-46.063-34.473c12.453 4.366-0.02 14.172-2.702 24.371-4.191 6.531-10.888 12.58-27.182 18.108-8.53-9.878 17.596-38.078 29.883-42.48z" fill="url(#d)" stroke="#000" stroke-linejoin="round" stroke-width="10"/>
  <path d="m142.34 234.92c2.951-11.22 13.462-18.27 25.749-22.671 9.52 1.414 23.65 18.217 26.397 26.573-4.19 6.531-12.037 17.554-28.33 23.082-7.828-3.15-16.442-17.411-23.816-26.985z" fill="url(#d)" stroke="#000" stroke-linejoin="round" stroke-width="10"/>
  <path d="m111.78 261.78c2.952-11.22 16.58-20.72 28.868-25.122 17.348 4.564 20.531 20.668 23.28 29.025-4.192 6.531-17.552 15.012-33.846 20.54-7.827-3.149-10.927-14.87-18.302-24.443z" fill="url(#d)" stroke="#000" stroke-linejoin="round" stroke-width="10"/>
  <path d="m162.39 271.08c2.95-11.22 17.218-32.549 35.99-28.701 13.426 10.075 25.075 17.501 31.293 26.77-4.191 6.532-11.232 14.494-30.024 24.818-16.728-2.22-29.885-13.314-37.26-22.887zm76.184-2.861c2.951-11.22 17.385-23.78 31.717-26.553 13.425 10.075 21.688 20.972 28.174 29.222-4.191 6.53-6.254 19.074-22.548 24.603-15.923-5.28-29.969-17.698-37.343-27.272zm82.6 6.105c2.952-11.22 11.787-30.705 27.98-26.446 20.55 6.496 21.42 21.993 24.167 30.35-1.795 11.523-11.685 20.917-28.414 18.697-7.827-3.15-16.358-13.027-23.733-22.6z" fill="url(#d)" stroke="#000" stroke-linejoin="round" stroke-width="10"/>
  <path d="m355.94 302.01c2.952-11.22 12.139-27.342 24.426-31.743 14.046 12.418 17.127 38.311 6.247 56.169-19.763 4.616-23.298-14.853-30.673-24.426zm-78.779-1.829c2.951-11.22 17.302-28.164 36.075-24.316 17.348 4.563 31.125 18.002 26.934 24.533s-9.455 17.142-25.749 22.671c-16.728-2.22-29.885-13.314-37.26-22.888zm-73.418-2.955c2.951-11.22 17.117-22.76 31.097-28.897 15.119 8.339 39.841 22.476 35.65 29.007s-11.149 18.878-27.442 24.406c-16.729-2.22-31.93-14.942-39.305-24.516zm-70.92-7.751c7.578-10.002 12.842-20.613 28.682-19.718 17.349 4.564 26.231 17.806 33.606 27.38-4.192 6.53-16.044 18.68-32.337 24.209-16.729-2.22-22.577-22.297-29.951-31.87zm-18.723-27.091c17.348 4.563 10.742 20.274 13.49 28.63-4.191 6.531-10.876 20.775-27.17 26.304-8.53-9.878 1.392-50.533 13.68-54.934z" fill="url(#d)" stroke="#000" stroke-linejoin="round" stroke-width="10"/>
  <path d="m105.39 318.98c2.951-11.22 10.982-27.646 23.27-32.047 17.348 4.563 26.129 27.593 28.877 35.95-4.191 6.53-12.12 13.17-28.414 18.698-7.828-3.15-16.359-13.028-23.733-22.601zm62.81 0.521c2.952-11.22 14.99-28.773 33.763-24.925 11.648 7.426 25.962 18.825 26.397 26.573-4.191 6.531-6.522 20.095-22.816 25.624-16.728-2.22-29.969-17.699-37.343-27.272zm79.202 4.476c2.951-11.22 12.758-24.997 26.202-29.094 17.349 4.563 37.528 21.867 36.807 29.311-4.191 6.531-18.893 20.112-35.187 25.64-16.728-2.219-20.448-16.283-27.822-25.857zm64.702-1.518c2.951-11.22 17.302-28.165 36.075-24.317 17.348 4.564 24.704 28.31 20.513 34.84-4.191 6.531-2.063 12.544-18.356 18.072-16.729-2.219-30.858-19.022-38.232-28.595z" fill="url(#d)" stroke="#000" stroke-linejoin="round" stroke-width="10"/>
  <path d="m361.75 350.43c4.024-15.3 5.55-25.803 22.196-27.968 10.927 14.87 7.338 37.918-8.956 43.446-7.827-3.15-5.866-5.905-13.24-15.478zm-79.853 2.251c2.952-11.22 17.302-28.164 36.075-24.316 17.349 4.563 31.126 18.002 26.934 24.533-4.19 6.531-4.21 20.703-20.502 26.232-16.729-2.22-35.132-16.875-42.507-26.449zm-75.195-5.604c7.578-10.002 12.14-27.34 35.992-28.7 12.186 5.387 30.672 24.427 26.481 30.958-4.191 6.53-9.64 22.546-25.934 28.074-16.728-2.22-29.164-20.758-36.538-30.331zm-73.602 2.45c2.951-11.22 13.212-31.422 31.901-31.958 16.007 9.663 33.522 22.995 35.114 31.047-4.191 6.532-13.462 18.27-29.755 23.798-16.729-2.22-29.886-13.314-37.26-22.887z" fill="url(#d)" stroke="#000" stroke-linejoin="round" stroke-width="10"/>
  <path d="m106.73 313.88c17.348 4.564 26.129 27.593 28.877 35.95-4.191 6.531-12.824 6.441-29.117 11.97-20.365-11.9-12.048-43.518 0.24-47.92z" fill="url(#d)" stroke="#000" stroke-linejoin="round" stroke-width="10"/>
  <path d="m97.462 353.43c17.348 4.564 14.665 14.764 17.413 23.12-4.191 6.531 9.771 17.644-6.522 23.173-8.531-9.878-17.023-38.043-10.891-46.292z" fill="url(#d)" stroke="#000" stroke-linejoin="round" stroke-width="10"/>
  <path d="m106.81 374.24c2.951-11.22 17.301-28.164 36.075-24.316 17.348 4.563 31.125 18.002 26.934 24.533 3.988 13.045-10.714 26.626-27.007 32.155-16.729-2.22-28.628-22.798-36.002-32.372z" fill="url(#d)" stroke="#000" stroke-linejoin="round" stroke-width="10"/>
  <path d="m170.44 376.8c2.951-11.22 18.643-33.264 37.416-29.416 17.349 4.564 29.784 23.102 25.593 29.633s-9.456 17.142-25.749 22.671c-16.728-2.22-29.886-13.314-37.26-22.888zm75.463 4.584c2.951-11.22 17.486-33.569 31.902-31.958 11.297 4.063 39.305 24.517 35.113 31.048-4.191 6.53-13.11 21.633-29.403 27.162-16.729-2.22-30.238-16.679-37.612-26.252zm82.166-1.643c2.95-11.22 18.19-26.84 30.476-31.242 28.646 8.626 20.209 64.204-7.817 57.923-7.827-3.15-15.285-17.108-22.66-26.681z" fill="url(#d)" stroke="#000" stroke-linejoin="round" stroke-width="10"/>
  <path d="m287.45 407.22c2.951-11.219 21.66-25.927 33.946-30.329 17.349 4.564 24.085 25.965 26.833 34.322-4.191 6.531-12.12 13.17-28.414 18.698-7.827-3.15-24.99-13.117-32.365-22.69zm-76.652 4.185c-3.1-11.721 13.666-37.846 32.44-33.998 17.348 4.564 38.85 30.94 34.66 37.472-4.192 6.53-9.456 17.142-25.75 22.67-16.728-2.22-33.975-16.57-41.35-26.144zm-102.94-7.806c2.951-11.219 0.102-9.788 12.389-14.19 17.348 4.564 38.398 37.365 41.146 45.721-22.076 4.008-46.16-21.957-53.535-31.53z" fill="url(#d)" stroke="#000" stroke-linejoin="round" stroke-width="10"/>
  <path d="m199.92 448.54c1.545-24.676 15.525-30.813 27.71-25.427 17.35 4.564 39.676 13.708 35.3 25.643-4.192 6.532-18.625 19.093-39.277 22.384-7.827-3.15-16.358-13.027-23.733-22.6z" fill="url(#d)" stroke="#000" stroke-linejoin="round" stroke-width="10"/>
  <path d="m260.98 437.34c2.951-11.22 13.295-27.037 25.583-31.439 17.348 4.564 31.56 25.75 34.308 34.107-4.191 6.531-20.753 13.08-37.046 18.609-16.729-2.22-22.327-9.145-22.845-21.277zm57.143-5.688c2.951-11.22 28.058-21.901 40.345-26.303 8.262 10.898-6.721 39.51-24.976 47.794-7.828-3.15-7.995-11.918-15.369-21.491z" fill="url(#d)" stroke="#000" stroke-linejoin="round" stroke-width="10"/>
  <path d="m286.95 465.53c-6.033-14.674 9.275-13.438 21.21-21.204 9.1 0.322 17.631-8.928 24.82 6.05-9.002 10.717-40.349 26.463-46.03 15.154zm-142.43-55.553c2.952-11.22 25.934-28.075 33.762-24.925 17.348 4.563 34.595 18.915 34.04 35.127-4.913 13.975-16.311 19.7-36.695 21.972-7.827-3.15-23.732-22.6-31.107-32.174z" fill="url(#d)" stroke="#000" stroke-linejoin="round" stroke-width="10"/>
  <path d="m154.92 436.25c15.054-10.217 29.1 2.201 38.268 0.251 7.56 4.17 13.24 15.48 20.43 30.457-16.025 4.508-53.017-19.4-58.698-30.709zm76.583 33.231c15.054-10.217 24.14-16.55 33.309-18.5 7.559 4.169 14.767 4.974 28.275 19.433-10.51 7.05-55.903 10.376-61.584-0.933z" fill="url(#d)" stroke="#000" stroke-linejoin="round" stroke-width="10"/>
  <path d="m282 42.982s-21.866 39.493-6.589 92.194c9.234 0.77-1.32-41.502 6.59-92.194zm147.87 61.696c-38.433 10.948-74.969 22.007-114.91 53.004 18.818-22.324 18.596-39.663 114.91-53.004zm-8.158 60.098c-41.697-8.896-30.258 1.655-78.907 9.8 42.758-14.706 52.92-24.126 78.907-9.8zm-247.29-93.563c50.174 22.897 35.975 4.488 62.651 61.843-14.674-5.76-18.921-37.641-62.65-61.843z" fill="#0c0" fill-opacity=".5"/>
  <path d="M228.75 167.5C198.75 145 15 321.25 141.25 425c63.75-17.5-7.5-210 87.5-257.5z" fill="url(#e)"/>
 </g>
</svg>
