<svg width="533.333" height="533.333" xmlns="http://www.w3.org/2000/svg" xmlns:xlink="http://www.w3.org/1999/xlink"><defs><radialGradient xlink:href="#c" cx=".006" cy="-3.52" r="8.063" fx=".006" fy="-3.52"/><radialGradient xlink:href="#c" cx="9.423" cy="5.25" r="8.063" fx="9.423" fy="5.25"/><radialGradient xlink:href="#c" cx="-1.827" cy="4.48" r="8.063" fx="-1.827" fy="4.48"/><radialGradient xlink:href="#a" id="d" cx=".441" cy=".542" r=".453" fx=".441" fy=".542"/><radialGradient xlink:href="#c" cx="2.589" cy="8.019" r="8.063" fx="2.589" fy="8.019"/><radialGradient xlink:href="#c" cx="3.923" cy="-8.135" r="8.063" fx="3.923" fy="-8.135"/><radialGradient xlink:href="#c"/><radialGradient xlink:href="#c" cx="14.589" cy="-10.289" r="8.063" fx="14.589" fy="-10.289"/><radialGradient xlink:href="#c" cx=".661" cy=".572" r=".081" fx=".661" fy=".572"/><radialGradient xlink:href="#c" cx="9.339" cy="-9.443" r="8.063" fx="9.339" fy="-9.443"/><radialGradient xlink:href="#c" cx="12.339" cy="5.942" r="8.063" fx="12.339" fy="5.942"/><radialGradient xlink:href="#c" cx="13.506" cy="-2.75" r="8.063" fx="13.506" fy="-2.75"/><linearGradient id="b"><stop offset="0" stop-color="#dd6204"/><stop offset="1" stop-color="#e48e17"/></linearGradient><linearGradient xlink:href="#a" y1=".5" x2="1" y2=".5"/><linearGradient xlink:href="#b" x1=".551" y1="-.148" x2=".515" y2="1.547"/><linearGradient xlink:href="#a" x1=".909" y1=".537" x2="-.136" y2=".264"/><linearGradient id="a"><stop offset="0" stop-color="#fff" stop-opacity=".283"/><stop offset="1" stop-color="#fff" stop-opacity="0"/></linearGradient><linearGradient id="c"><stop offset="0" stop-color="#dd7304"/><stop offset="1" stop-color="#e46417"/></linearGradient></defs><g fill-rule="evenodd"><path d="M243.364 128.476C132.695 65.526-52.092 382.305 213.92 456.423c205.094 10.153 299.518-342.161 76.149-322.87-7.107 2.03-32.49 0-46.705-5.077z" fill="#54007f" stroke="#000" stroke-width="10" stroke-linejoin="round"/><path d="M256.564 125.43c-39.598-3.046 31.599 29.444 22.46 9.138 7.108-56.858 53.622-81.513 72.913-83.544 52.796-10.153 8.189-41.34-17.194-15.957-11.169 4.061-50.766 20.306-78.18 90.363z" fill="#004e00" stroke="#000" stroke-width="10" stroke-linejoin="round"/><path d="M138.787 369.106c2.03-9.138 27.413-196.971 100.516-219.308-7.107-12.184-11.168-16.245-26.398-12.184-92.394 49.75-93.409 227.43-74.118 231.492z" fill-opacity=".1"/><path d="M306.314 140.66c138.083 83.256-59.904 260.936-16.245 289.365 222.354-209.155 70.057-266.013 16.245-289.365z" fill="#ffffe8" fill-opacity=".1"/><path d="M289.054 212.747c-71.072-30.46-138.083 61.934-61.935 124.884 60.92 40.613 113.716-93.409 61.935-124.884z" fill="url(#d)"/><path d="M265.036 133.33c-.51-3.329 23.313-88.044 96.455-100.231 9.644 9.488-72.597 9.643-96.455 100.232z" fill="#090" fill-opacity=".5"/></g></svg>