<?xml version="1.0" encoding="UTF-8"?>
<svg width="533.33" height="533.33" xmlns="http://www.w3.org/2000/svg" xmlns:xlink="http://www.w3.org/1999/xlink">
 <defs>
  <radialGradient id="c" cx=".426" cy=".41" r=".49">
   <stop stop-color="#ff0" stop-opacity=".558" offset="0"/>
   <stop stop-color="#ffa617" stop-opacity=".733" offset="1"/>
  </radialGradient>
  <radialGradient id="d" cx=".534" cy=".295" r=".395">
   <stop stop-color="#fff" stop-opacity=".342" offset="0"/>
   <stop stop-color="#fff" stop-opacity="0" offset="1"/>
  </radialGradient>
 </defs>
 <g fill-rule="evenodd">
  <path d="m267.5 88.75c20 3.75 67.5 0 123.75 2.5 30 20 76.25 45 82.5 148.75-5 42.5-56.25 185-75 191.25s-57.5 26.25-85 27.5c-50-5-63.75 8.75-83.75 11.25-47.5 1.25-110-46.25-166.25-170-27.5-86.25-13.75-151.25 60-207.5 52.5-6.25 118.75-6.25 143.75-3.75z" fill="#d70000" stroke="#000" stroke-linejoin="round" stroke-width="10"/>
  <path d="M130 205c21.25-25 65-46.25 102.5-102.5 0-1.25-10 67.5 12.5 101.25 16.25-32.5 22.5-76.25 31.25-88.75 7.5 3.75 45 50 85 60C350 156.25 327.5 132.5 330 122.5c-5-26.25 61.25 52.5 95 22.5-41.25-7.5-61.25-23.75-68.75-41.25 8.75-10 62.5-17.5 81.25-46.25-51.598 18.428-82.5 27.5-100 21.25-21.25-3.75-88.75-3.75-105-10C231.25 75 165 20.877 112.5 45c58.75 12.435 77.5 16.25 81.25 28.75-53.75 0-82.5 13.75-110 11.25C90 100 191.25 112.5 205 97.5c-80 48.75-82.5 85-75 107.5z" fill="#007900" stroke="#000" stroke-linejoin="round" stroke-width="10"/>
  <path d="M253.75 87.5c16.25-23.75 23.75-33.75 25-71.25 7.5-15 15 3.75 15 3.75S290 58.75 287.5 90c-6.25 12.5-32.5 7.5-33.75-2.5z" fill="#007900" stroke="#000" stroke-linejoin="round" stroke-width="10"/>
  <path transform="translate(0 7.5)" d="m296.25 235c-3.75 1.25-7.5 22.5 2.5 23.75 6.25-3.75 5-25-2.5-23.75zm38.707 63.151c-3.75 1.25-7.5 22.5 2.5 23.75 6.25-3.75 5-25-2.5-23.75zm22.363-34.403c-3.372 2.063-2.235 23.611 7.79 22.575 5.243-5.062-0.765-25.484-7.79-22.575zm-81.113 146.9c-3.75 1.25-7.5 22.5 2.5 23.75 6.25-3.75 5-25-2.5-23.75zm-1.25-68.75c-3.75 1.25-7.5 22.5 2.5 23.75 6.25-3.75 5-25-2.5-23.75zm-39.999 20c-3.75 1.25-7.5 22.5 2.5 23.75 6.25-3.75 5-25-2.5-23.75zm-31.047 18.764c-3.935 0.373-12.378 20.23-2.917 23.702 6.934-2.244 10.506-23.23 2.917-23.702zm-40.744-18.815c-3.904 0.618-11.086 20.966-1.427 23.838 6.78-2.674 9.03-23.842 1.427-23.838zm-68.334-144.79c-3.952 0.063-13.923 19.2-4.763 23.401 7.089-1.695 12.292-22.336 4.763-23.401zm305.05 147.35c-3.743 1.272-7.366 22.544 2.642 23.734 6.227-3.787 4.85-25.03-2.642-23.735zm-291.71-239.23c-3.898-0.659-17.195 16.336-8.956 22.139 7.28-0.373 16.163-19.717 8.956-22.139zm262.25 206.53c-3.35 2.098-1.987 23.633 8.026 22.492 5.19-5.118-1.032-25.475-8.026-22.492zm-221.38-118.3c-3.951-0.097-14.69 18.62-5.708 23.189 7.151-1.406 13.187-21.82 5.708-23.189zm265.65 45.374c-3.35 2.098-1.987 23.634 8.026 22.492 5.19-5.118-1.032-25.474-8.026-22.492zm-1.189 51.753c-3.103 2.449 0.581 23.71 10.412 21.492 4.606-5.648-3.781-25.213-10.412-21.492zm-219.48 6.387c-3.939 0.332-12.591 20.1-3.167 23.67 6.957-2.17 10.75-23.117 3.167-23.67zm236.83-166.83c-2.744 2.845 3.776 23.415 13.217 19.89 3.802-6.218-7.149-24.472-13.217-19.89zm-37.968-44.851c-2.17 3.304 8.044 22.311 16.67 17.1 2.585-6.815-11.555-22.726-16.67-17.1zm52.73 120.49c-3.012 2.56 1.44 23.674 11.185 21.1 4.398-5.811-4.693-25.059-11.185-21.1zm-71.921-21.339c-3.75 1.25-7.5 22.5 2.5 23.75 6.25-3.75 5-25-2.5-23.75zm-35.045 205.43c-3.713 1.355-6.86 22.702 3.17 23.669 6.142-3.925 4.291-25.132-3.17-23.67zm-48.705-264.18c-3.75 1.25-7.5 22.5 2.5 23.75 6.25-3.75 5-25-2.5-23.75zm-152.52 178.74c-3.927 0.449-11.984 20.466-2.458 23.754 6.89-2.378 10.054-23.428 2.458-23.754zm65.026-169.99c-3.75 1.25-7.5 22.5 2.5 23.75 6.25-3.75 5-25-2.5-23.75zm-7.5 71.25c-3.75 1.25-7.5 22.5 2.5 23.75 6.25-3.75 5-25-2.5-23.75zm53.75-20c-3.75 1.25-7.5 22.5 2.5 23.75 6.25-3.75 5-25-2.5-23.75zm-155.83 88.151c-3.946 0.236-13.072 19.79-3.737 23.587 7.008-2.003 11.305-22.852 3.737-23.587zm135.83-24.401c-3.75 1.25-7.5 22.5 2.5 23.75 6.25-3.75 5-25-2.5-23.75zm111.49 98.439c-3.2 2.32-0.382 23.714 9.531 21.896 4.832-5.457-2.755-25.345-9.531-21.896zm-33.995-0.939c-3.75 1.25-7.5 22.5 2.5 23.75 6.25-3.75 5-25-2.5-23.75zm-73.749 60c-3.75 1.25-7.5 22.5 2.5 23.75 6.25-3.75 5-25-2.5-23.75zm58.749-126.25c-3.75 1.25-7.5 22.5 2.5 23.75 6.25-3.75 5-25-2.5-23.75zm41.25-102.5c-3.75 1.25-7.5 22.5 2.5 23.75 6.25-3.75 5-25-2.5-23.75zm-160.17 68.725c-3.922 0.497-11.732 20.613-2.165 23.783 6.86-2.463 9.765-23.55 2.165-23.783zm226.17-95.586c-3.35 2.098-1.987 23.634 8.026 22.492 5.19-5.118-1.032-25.474-8.026-22.492zm-230.09 235.57c-3.914 0.553-11.436 20.778-1.825 23.811 6.824-2.56 9.428-23.688 1.825-23.811zm-90.52-243.44c-3.951-0.11-14.756 18.568-5.79 23.169 7.157-1.382 13.264-21.773 5.79-23.169zm-8.791 71.24c-3.951-0.097-14.69 18.62-5.708 23.189 7.151-1.406 13.187-21.82 5.708-23.189zm265.3-73.913c-3.006 2.566 1.495 23.67 11.233 21.075 4.385-5.822-4.75-25.049-11.233-21.075zm-226.13 172.71c-3.927 0.449-11.984 20.467-2.458 23.755 6.89-2.379 10.055-23.43 2.458-23.755zm27.412 35.301c-3.927 0.45-11.984 20.467-2.458 23.755 6.89-2.379 10.054-23.429 2.458-23.755zm6.445-106.09c-3.928 0.448-11.985 20.466-2.458 23.754 6.89-2.379 10.054-23.429 2.458-23.755zm-22.315-86.95c-3.927 0.449-11.984 20.466-2.458 23.754 6.89-2.378 10.055-23.429 2.458-23.754zm31.736-68.966c-3.354-2.092-22.114 8.571-16.7 17.071 6.875 2.423 22.446-12.092 16.7-17.071zm-51.742 142.84c-3.927 0.448-11.984 20.466-2.458 23.754 6.89-2.379 10.054-23.429 2.458-23.754zm161.34 4.645c-3.75 1.25-7.5 22.5 2.5 23.75 6.25-3.75 5-25-2.5-23.75zm-20.005 62.326c-3.75 1.25-7.5 22.5 2.5 23.75 6.25-3.75 5-25-2.5-23.75zm49.46-127.72c-3.75 1.25-7.5 22.5 2.5 23.75 6.25-3.75 5-25-2.5-23.75zm-112.63-13.156c-3.875 0.78-10.201 21.41-0.43 23.877 6.662-2.956 8.027-24.199 0.43-23.877zm238.81 40.767c-3.012 2.56 1.44 23.673 11.185 21.1 4.398-5.811-4.693-25.059-11.184-21.1zm-30.778 61.557c-3.013 2.56 1.44 23.674 11.184 21.1 4.399-5.811-4.693-25.059-11.184-21.1zm66.174-93.104c-3.012 2.558 1.44 23.672 11.184 21.1 4.399-5.812-4.693-25.06-11.184-21.1zm-11.264 94.446c-3.432 1.962-2.938 23.535 7.113 22.798 5.392-4.904-4e-3 -25.495-7.113-22.798zm-64.992 121.15c-3.626 1.574-5.498 23.071 4.573 23.44 5.897-4.284 2.789-25.343-4.573-23.44z" fill="url(#c)"/>
  <path transform="translate(0 7.5)" d="M240 192.5C75 141.25 73.75 396.25 183.75 388.75 345 393.75 277.5 235 240 192.5z" fill="url(#d)"/>
  <path d="m133.34 190.51c27.429-51.635 89.505-87.277 75.655-88.047-25.282 18.11-64.22 35.558-75.655 88.047zm-23.88-100.99c42.32 16.158 49.242-9.702 90.793-8.163-12.311-3.847-43.252 0.715-90.793 8.163zm135.2 99.257c-3.078-58.48 8.765-85.628-5.085-86.397-11.542 25.392 1.237 72.546 5.084 86.397zm16.681-103.02c11.542 21.545 29.899-54.245 23.743-66.557 2.419 12.835-11.432 61.17-23.743 66.557zm77.849 1.458c21.983 9.867 33.55 1.87 64.384-12.035-34.99 13.357-43.609 11.21-64.385 12.035zm4.837 73.342c-30.009-26.162-51.414-50.7-62.187-50.7 14.429 17.643 27.918 29.457 62.187 50.7zm52.567-16.954c-35.12-14.568-47.508-31.96-62.128-36.577 23.853 17.698 19.781 18.379 62.128 36.577zm-251.93-98.16c24.954 2.997 45.833 11.542 51.989 20.776 1.207-12.201-32.009-19.454-51.989-20.776z" fill="#0c0" fill-opacity=".5"/>
 </g>
</svg>
