<svg xmlns="http://www.w3.org/2000/svg" width="240" height="155" version="1.0"><metadata/><path fill="#fff" d="M0 0h240v155H0z"/><path d="M97.44 0v10.046h142.08V0H97.44zm0 24.398v10.046h142.08V24.398H97.44zm0 23.92v10.046h142.08V48.318H97.44zm0 23.92v10.046h142.08V72.238H97.44zm0 24.398v10.046h142.08V96.636H97.44zm0 24.398v10.046h142.08v-10.046H97.44zm0 23.92V155h142.08v-10.046H97.44z" fill="#ff0103"/><path fill="#012466" d="M0 0h120v155H0z"/><path fill="#ff0103" d="M49.44 27.268H204V128.21H49.44z"/><path d="M163.53 31.416l-3.9 4.006-5.205-2.347 2.61 4.934-3.84 4.2 5.52-.941 2.82 4.933.795-5.516 5.595-1.151-5.025-2.467.63-5.651zm-79.395 2.452L74.7 47.666 58.185 43.42 68.43 56.636l-9.15 14.352 15.765-5.636 10.875 13.11-.51-16.698 15.87-6.25-16.08-4.678-1.065-16.968zm90.12 20.615l.6 5.547-5.13 2.496 5.49 1.152.795 5.62 2.775-4.843 5.625.987-3.765-4.142 2.67-5.008-5.1 2.288-3.96-4.097zm-70.8 20.093L102.3 91.23l-16.425 4.65 15.54 6.249-.63 16.998 10.755-12.798 16.02 5.846-8.88-14.158 10.53-13.365-16.245 4.037-9.51-14.113zm75.27 10.345L176.91 90.2l-5.7.09 4.47 3.348-1.695 5.427 4.59-3.2 4.665 3.275-1.635-5.338 4.56-3.393-5.595-.105-1.845-5.382zm-12.75 25.505l-3.405 4.425-5.43-1.72 3.165 4.605-3.315 4.62 5.37-1.6 3.375 4.575.15-5.577 5.4-1.794-5.28-1.853-.03-5.681z" fill="#f5ea04"/></svg>