<svg xmlns="http://www.w3.org/2000/svg" width="240" height="155" version="1.0"><metadata/><path fill="#fff" d="M0 0h240v155H0z"/><path d="M97.438 0v31H239.53V0H97.437zm0 62v31H239.53V62H97.437zm0 62v31H239.53v-31H97.437z" fill="#ff0103"/><path fill="#012466" d="M0 0h120v155H0z"/><path fill="#ff0103" d="M49.44 30h146.994v96H49.44z"/><path d="M157.945 33.944l-3.71 3.81-4.95-2.232 2.483 4.692-3.652 3.996 5.25-.896 2.682 4.692.756-5.247 5.32-1.094-4.778-2.346.599-5.375zm-75.508 2.332l-8.974 13.123-15.706-4.038L67.5 57.93l-8.702 13.65 14.994-5.36 10.342 12.468-.485-15.881 15.093-5.943-15.293-4.45-1.012-16.138zm85.708 19.607l.57 5.274-4.878 2.375 5.22 1.095.757 5.346 2.64-4.607 5.349.938-3.58-3.938 2.538-4.763-4.85 2.175-3.766-3.895zM100.81 74.992L99.712 90.83l-15.62 4.422 14.779 5.943-.6 16.166 10.229-12.17 15.236 5.559-8.446-13.465 10.015-12.71-15.45 3.838-9.044-13.421zm71.585 9.838l-1.726 5.02-5.421.085 4.251 3.185-1.612 5.16 4.365-3.042 4.437 3.114-1.555-5.076 4.337-3.228-5.321-.099-1.755-5.119zm-12.126 24.256l-3.238 4.209-5.164-1.635 3.01 4.379-3.153 4.393 5.107-1.521 3.21 4.35.143-5.303 5.135-1.706-5.021-1.763-.029-5.403z" fill="#f5ea04"/></svg>