<svg xmlns="http://www.w3.org/2000/svg" width="213.333" height="213.333"><metadata/><path d="M172.781 7.188c-1.89 1.134-37.427 12.484-50.281 14.375l.031.093C104.57 24.034 86.997.95 71.062 9.844l.063.125C50.968 13.367 31.52 18.21 11.719 24.563c0 0 24.953 68.825 26.843 74.874C49.67 92.034 90.438 82.913 97.47 81.47l.062.187c20.034 3.34 24.557 16.045 49.719 10.094.027.034.166.482.188.5 6.049-1.134 49.906-14.75 49.906-14.75S174.672 6.053 172.78 7.187z" fill="#fff" fill-rule="evenodd"/><path d="M7.94 18.904l4.158 4.915L70.7 184.877l-1.89 4.915-3.78-2.268L6.048 24.197l-.756-3.025 2.647-2.268z" fill="#404040" fill-rule="evenodd"/><path d="M143.667 17.013s27.6-10.964 29.49-9.83c1.89 1.135 20.794 56.333 21.928 62.004 1.134 5.671-31.758-47.637-51.418-52.174zM27.6 20.038S69.564 6.428 72.211 9.83c2.646 3.403 24.952 64.272 21.928 60.491-3.025-3.78-56.333-48.015-66.54-50.283z" fill="#fff" fill-opacity=".125" fill-rule="evenodd"/><path d="M174.281 5.188c-19.45 6.697-38.9 14.782-59.687 15.933-13.44-1.974-22.815-17.915-37.442-13.962-21.968 3.778-43.411 9.968-64.902 15.779-4.696-11.99-11.252-3.71-5.46 7.878 19.314 53.08 39.166 106.192 58.552 159.246 13.891 9.049 2.287-16.768.075-23.172-8.185-22.482-16.444-44.937-24.448-67.484 20.053-7.467 40.692-15.372 62.24-16.292 12.175 3.179 21.894 16.917 36.13 11.494 20.091-2.75 38.997-10.449 58.396-15.905.712-10.736-7.34-22.89-9.905-34.182-4.507-13.114-9.014-26.229-13.549-39.334zm-1.531 3.218l23.375 67.938c-22.043 6.74-43.984 15.698-67.275 16.57-12.848-2.91-21.773-15.862-37.274-11.278-17.649 3.203-34.754 8.847-51.42 15.395A23064.711 23064.711 0 0013.344 25.22C36.35 19.183 59.188 12 82.872 9.073c13.995 1.83 23.655 18.238 38.875 14.138 17.544-2.797 34.348-8.817 51.003-14.805zM20.836 52.626c14.863 39.286 29.12 78.839 43.362 118.323 3.288 3.835 8.543 23.998 1.122 13.967C45.945 130.45 25.966 75.404 6.312 21.002c3.991-4.365 9.488 21.137 14.524 31.624z" fill-rule="evenodd"/><path d="M97.164 15.123s19.66 72.212 23.44 75.236c5.672 6.05 32.137 0 37.052-.756-26.465-15.879-49.906-54.064-55.577-72.212-2.646-2.268-1.512.378-4.915-2.268z" fill-opacity=".094" fill-rule="evenodd"/></svg>