<svg width="213.333" height="213.333" xmlns="http://www.w3.org/2000/svg"><metadata/><path d="M71.078 9.83c16.257-9.074 34.21 15.226 52.551 11.72 7.562 20.416 24.953 69.943 24.953 69.943-26.465 6.806-30.624-6.427-51.04-9.83C94.14 71.834 71.079 9.83 71.079 9.83z" fill="#f7f409" fill-rule="evenodd"/><path d="M7.94 18.904l4.158 4.915L70.7 184.877l-1.89 4.915-3.78-2.268L6.048 24.197l-.756-3.025 2.647-2.268z" fill="#404040" fill-rule="evenodd"/><path d="M11.72 24.575C31.758 18.147 51.418 13.233 71.834 9.83l26.465 71.455c-5.671 1.135-48.394 10.586-59.736 18.148-1.89-6.05-26.843-74.858-26.843-74.858z" fill="#1b18d1" fill-rule="evenodd"/><path d="M122.495 21.55c12.855-1.89 48.393-13.232 50.284-14.367 1.89-1.134 24.575 70.322 24.575 70.322s-43.857 13.61-49.906 14.745c-1.89-1.513-22.306-63.138-24.953-70.7z" fill="#be0027" fill-rule="evenodd"/><path d="M143.667 17.013s27.6-10.964 29.49-9.83c1.89 1.135 20.794 56.333 21.928 62.004 1.134 5.671-31.758-47.637-51.418-52.174zM27.6 20.038S69.564 6.428 72.211 9.83c2.646 3.403 24.952 64.272 21.928 60.491-3.025-3.78-56.333-48.015-66.54-50.283z" fill="#fff" fill-opacity=".125" fill-rule="evenodd"/><path d="M174.281 5.188c-19.45 6.697-38.9 14.782-59.687 15.933-13.44-1.974-22.815-17.915-37.442-13.962-21.968 3.778-43.411 9.968-64.902 15.779-4.696-11.99-11.252-3.71-5.46 7.878 19.314 53.08 39.166 106.192 58.552 159.246 13.891 9.049 2.287-16.768.075-23.172-8.185-22.482-16.444-44.937-24.448-67.484 20.053-7.467 40.692-15.372 62.24-16.292 12.175 3.179 21.894 16.917 36.13 11.494 20.091-2.75 38.997-10.449 58.396-15.905.712-10.736-7.34-22.89-9.905-34.182-4.507-13.114-9.014-26.229-13.549-39.334zm-1.531 3.218l23.375 67.938c-22.043 6.74-43.984 15.698-67.275 16.57-12.848-2.91-21.773-15.862-37.274-11.278-17.649 3.203-34.754 8.847-51.42 15.395A23064.711 23064.711 0 0013.344 25.22C36.35 19.183 59.188 12 82.872 9.073c13.995 1.83 23.655 18.238 38.875 14.138 17.544-2.797 34.348-8.817 51.003-14.805zM20.836 52.626c14.863 39.286 29.12 78.839 43.362 118.323 3.288 3.835 8.543 23.998 1.122 13.967C45.945 130.45 25.966 75.404 6.312 21.002c3.991-4.365 9.488 21.137 14.524 31.624z" fill-rule="evenodd"/><path d="M73.375 9.406l-2.344.844 26.094 71.844 2.344-.844L73.375 9.406zM123.688 22.656l-2.519.096 24.737 69.904 2.344-.812-24.563-69.188z" fill-rule="evenodd"/><path d="M97.164 15.123s19.66 72.212 23.44 75.236c5.672 6.05 32.137 0 37.052-.756-26.465-15.879-49.906-54.064-55.577-72.212-2.646-2.268-1.512.378-4.915-2.268z" fill-opacity=".094" fill-rule="evenodd"/></svg>