<svg xmlns="http://www.w3.org/2000/svg" width="106.667" height="106.667"><path d="M55.406 1.406c-4.153.264-7.983 1.626-11.187 3.813-6.41 4.373-10.488 11.426-12.657 18.906 1.275 4.197 5.627 5.894 9.594 2.781 1.68-5.793 4.905-10.856 8.688-13.437 3.743-2.555 7.895-3.347 14.218-.406 1.114.631 1.716 1.425 2.188 3.406.484 2.03.5 5.14-.094 8.875-1.188 7.468-4.682 17.25-8.906 26.781-8.447 19.062-20.04 37.92-20.25 38.25-.265 4.677 4.47 7.238 8.438 5.375 1.136-1.786 12.154-19.673 20.968-39.563 4.407-9.944 8.183-20.186 9.625-29.25.721-4.531.886-8.8-.062-12.78-.949-3.981-3.344-7.835-7.188-9.938l-.125-.063-.125-.062c-4.495-2.132-8.971-2.952-13.125-2.688z" fill="#fff" fill-rule="evenodd" stroke="#f06" stroke-width="1.25" stroke-linejoin="round"/><path d="M31.933 24.18c2.5-3.656 8.849-1.54 9.426 2.308" fill="none" stroke="#f06" stroke-width="1pt"/><path d="M36.742 90.19c6.156-2.501 9.426 2.115 8.849 4.808.385 2.501 8.849-15.004 8.849-15.004-3.078-.385-9.234-.577-12.889 2.5-2.308 2.501-4.809 7.695-4.809 7.695zM47.707 70.568c4.617-2.5 10.965-2.886 13.273-2.5.192.576 5.771-12.312 5.771-12.312-3.911-.193-7.823-.77-11.734 1.731l-7.31 13.081zM60.018 45.56c3.783-2.116 7.951-1.731 11.927-2.308l3.27-11.734c-3.526-.385-7.438 0-11.157 2.308l-4.04 11.734zM66.559 22.476c3.013-4.552 6.027-7.95 9.041-8.464-1.218-4.232-3.976-8.656-9.426-10.965-2.95 2.437-4.553 5.835-4.232 9.042 4.232 2.308 5.194 6.348 4.617 10.387zM54.632 11.127c-3.59-1.732-7.759-4.04-9.234-6.925-4.745 3.206-6.796 6.22-10.195 10.195 2.886 2.565 7.118 2.629 10.003 3.655 2.95-4.04 3.976-5.002 9.426-6.925z" fill="#f06" fill-rule="evenodd"/><path d="M38.28 87.496C48.67 74.992 69.83 25.94 66.56 18.436c0-2.115.384-2.115 2.116-1.923 3.847 12.504-25.2 70.406-26.74 71.176-1.538.769-3.654-.193-3.654-.193zM33.664 20.745C33.856 12.858 46.36 2.47 53.863 2.47c2.5 0 .577.577.577.577C42.898 5.933 36.357 15.936 35.78 20.36c.193.77-2.116.385-2.116.385z" fill="#fff" fill-rule="evenodd" fill-opacity=".5"/></svg>