<?xml version="1.0" encoding="UTF-8"?>
<svg width="256" height="256" version="1.0" xmlns="http://www.w3.org/2000/svg" xmlns:xlink="http://www.w3.org/1999/xlink">
 <defs>
  <radialGradient id="h" cx="222.64" cy="524.92" r="233.57" gradientTransform="matrix(.5923 -.00013 .00017 .76402 -69.031 -267.18)" gradientUnits="userSpaceOnUse" xlink:href="#a"/>
  <radialGradient id="l" cx="299.66" cy="585.32" r="233.57" gradientTransform="matrix(-.09583 .33415 -.43103 -.12362 407.21 131.97)" gradientUnits="userSpaceOnUse" xlink:href="#a"/>
  <radialGradient id="m" cx="-30.78" cy="425.88" r="67.143" gradientTransform="matrix(.2828 -.13464 .1026 .21553 87.546 33.428)" gradientUnits="userSpaceOnUse" xlink:href="#b"/>
  <radialGradient id="d" cx="205.47" cy="510.09" r="233.57" gradientTransform="matrix(.50837 -.0663 .08552 .65576 209.52 -240.96)" gradientUnits="userSpaceOnUse" xlink:href="#a"/>
  <radialGradient id="e" cx="-30.78" cy="425.88" r="67.143" gradientTransform="matrix(.3571 -.29303 .22331 .27215 295.8 -117.2)" gradientUnits="userSpaceOnUse" xlink:href="#b"/>
  <radialGradient id="f" cx="-5.775" cy="131.25" r="85.609" gradientTransform="matrix(-.90288 .91649 -1.6415 -1.617 606.74 313.76)" gradientUnits="userSpaceOnUse" xlink:href="#c"/>
  <radialGradient id="g" cx="69.682" cy="213.35" r="25.94" gradientTransform="matrix(.66845 .29549 -.19316 .43696 378.91 46.174)" gradientUnits="userSpaceOnUse" xlink:href="#b"/>
  <radialGradient id="n" cx="69.682" cy="213.35" r="25.94" gradientTransform="matrix(-.62845 -.25356 .16575 -.41081 141.38 298.7)" gradientUnits="userSpaceOnUse" xlink:href="#b"/>
  <radialGradient id="i" cx="-30.78" cy="425.88" r="67.143" gradientTransform="matrix(.32898 -.42023 .32025 .25072 -46.885 -69.974)" gradientUnits="userSpaceOnUse" xlink:href="#b"/>
  <radialGradient id="j" cx="-5.775" cy="131.25" r="85.609" gradientTransform="matrix(-1.1711 .9153 -1.6394 -2.0974 303.3 427.58)" gradientUnits="userSpaceOnUse" xlink:href="#c"/>
  <radialGradient id="k" cx="69.682" cy="213.35" r="25.94" gradientTransform="matrix(.72173 .43822 -.28647 .4718 80.507 82.154)" gradientUnits="userSpaceOnUse" xlink:href="#b"/>
  <radialGradient id="o" cx="255.7" cy="190.83" r="69.39" gradientTransform="matrix(.77228 -.38186 .64263 1.2997 -185.94 28.455)" gradientUnits="userSpaceOnUse" xlink:href="#c"/>
  <linearGradient id="b">
   <stop stop-color="#fff" offset="0"/>
   <stop stop-color="#fff" stop-opacity="0" offset="1"/>
  </linearGradient>
  <linearGradient id="a">
   <stop stop-opacity="0" offset="0"/>
   <stop offset="1"/>
  </linearGradient>
  <linearGradient id="c">
   <stop stop-color="#fff" stop-opacity="0" offset="0"/>
   <stop stop-color="#fff" stop-opacity="0" offset=".432"/>
   <stop stop-color="#fff" offset="1"/>
  </linearGradient>
 </defs>
 <path d="M196.572 84.045c-14.589.382-33.793 8.572-48.022 17.367-22.541 13.862-39.005 29.858-48.815 44.75-6.066 9.378-6.702 18.385 1.988 22.323 10.525 4.786 29.607 3.663 49.194-2.052 15.359-4.41 30.827-12.875 40.965-21.986 13.687-12.42 21.49-24.974 24.893-36.23 2.994-10.858.978-21.582-14.086-23.912a35.741 35.741 0 00-6.117-.26z" opacity=".1"/>
 <path d="M197.008 83.524c-15.368.466-35.084 9.026-49.88 18.264-22.391 13.98-38.9 30.071-48.49 44.967-6.297 9.817-6.195 19.15 3.638 22.77 11.83 4.438 32.35 2.774 52.986-4.045 15.528-5.108 30.463-14.168 39.875-23.348 14.359-14.11 22.395-28.317 23.643-40.3.698-9.65-4.41-18.813-21.772-18.308zm-39.812 81.277c-.053.026.052.015 0 0z" opacity=".1"/>
 <path d="M197.451 83.019c-15.461.415-35.763 9.158-50.725 18.538-21.97 13.664-38.152 29.35-48.065 43.983-6.974 10.26-7.628 20.314 2.408 24.26 11.927 4.774 33.137 3.1 54.424-3.974 15.66-5.193 30.833-14.382 40.304-23.651 14.477-14.197 22.608-28.546 23.834-40.604.756-9.827-4.558-19.104-22.18-18.552z" opacity=".1"/>
 <path d="M197.908 82.498c-15.68.45-36.126 9.167-51.285 18.634-22.162 13.71-38.691 29.634-48.761 44.509-7.032 10.396-7.774 20.544 2.444 24.621 10.335 4.294 28.339 3.392 46.612-1.43 15.673-4.01 32.214-12.105 43.484-21.342 15.275-12.505 23.574-25.507 28.072-37.12 4.138-12.03 3.102-23.966-12.242-27.294-2.435-.47-5.212-.705-8.324-.578z" opacity=".1"/>
 <path d="M198.331 81.993c-12.841.35-29.36 6.32-42.877 13.62-13.375 7.123-25.196 15.658-34.561 23.86-10.818 9.497-19.753 19.41-25.306 28.697-5.105 8.678-5.675 16.793 1.304 21.118 7.456 4.897 22.38 5.235 37.91 2.621 12.665-2.127 26.9-6.588 39.416-13.322 15.233-8.06 26.498-18.668 33.635-28.283 11.077-14.707 16.936-29.396 11.512-39.7-2.86-5.204-9.63-9.05-21.033-8.611z" opacity=".1"/>
 <path d="M198.788 81.473c-12.914.362-29.541 6.283-43.255 13.64-13.747 7.273-25.78 15.99-35.322 24.317-11.007 9.678-20.054 19.72-25.578 29.13-5.25 8.97-5.477 17.314 2.09 21.597 8.018 4.635 23.094 4.848 38.764 2.085 12.818-2.275 26.823-6.753 39.417-13.553 15.654-8.392 27.012-19.243 34.213-29.08 10.849-14.665 16.58-29.321 10.992-39.556-2.982-5.23-9.879-9.007-21.321-8.58z" opacity=".1"/>
 <path d="M199.251 80.967c-16.912.466-39.034 10-55.235 20.315-22.326 14.044-38.994 30.27-48.953 45.313-7.31 11.053-7.31 21.524 4.02 25.473 11.447 4.161 30.533 2.976 50.2-2.6 16.347-4.578 33.182-13.29 44.433-22.91 15.29-13.044 23.77-26.497 27.824-38.398 3.75-12.04 1.777-23.856-14.343-26.745-2.354-.407-5.037-.558-7.946-.448z" opacity=".1"/>
 <path d="M199.708 80.447c-17.115.487-39.394 10.017-55.824 20.416-22.64 14.223-39.368 30.45-49.526 45.676-7.373 11.134-7.595 21.747 3.624 25.862 12.539 4.744 34.348 3.035 56.226-4.032 17.196-5.519 33.862-15.355 44.474-25.531 15.393-14.882 23.953-29.964 25.299-42.625.808-10.605-5.189-20.377-24.273-19.766z" opacity=".1"/>
 <path d="M200.15 79.941c-17.147.475-39.431 9.892-56.03 20.287-21.549 13.383-37.531 28.478-48.217 42.986-9.103 12.12-11.287 24.298.253 29.143 11.354 5.147 32.293 3.941 53.4-2.124 17.211-4.875 34.665-14.094 46.397-24.326 15.691-13.793 24.395-27.938 27.913-40.319 3.41-13.125-1.052-26.288-23.715-25.647z" opacity=".1"/>
 <path d="M200.628 79.42c-17.201.47-39.729 9.86-56.516 20.325-22.624 13.985-39.267 29.876-49.984 44.928-8.5 11.855-9.837 23.43 1.257 28.176 12.703 5.59 36.376 3.816 59.988-4.017 17.646-5.866 34.458-15.983 45.126-26.368 15.009-14.65 23.532-29.47 25.122-42.034 1.234-11.264-4.93-21.64-24.993-21.01z" opacity=".1"/>
 <path d="m96.418 126.54c-5.394-41.426 12.232-77.911 39.344-81.441 27.111-3.53 53.492 27.227 58.885 68.653s-21.599 55.84-42.326 58.539c-20.727 2.698-50.51-4.325-55.903-45.75z" fill="#15ff00"/>
 <path transform="matrix(.64263 0 0 .64263 -111.31 57.459)" d="m323.25 107.5c-8.393-64.463 19.035-121.24 61.223-126.73 42.188-5.493 83.238 42.367 91.63 106.83 8.393 64.463-33.61 86.893-65.863 91.092s-78.598-6.73-86.99-71.192z" fill="url(#d)" opacity=".549"/>
 <path transform="matrix(.64263 0 0 .64263 -111.31 57.459)" d="m397.23 21.542c-12.495 15.662-30.394 22.184-39.955 14.558-9.56-7.627-7.178-26.528 5.316-42.19 12.495-15.664 30.395-22.186 39.955-14.559s7.179 26.528-5.316 42.19z" fill="url(#e)" opacity=".632"/>
 <path transform="matrix(.64263 0 0 .64263 -111.31 57.459)" d="M328.245 39.046c-6.163 20.032-8.224 43.682-4.998 68.462 8.392 64.463 54.727 75.389 86.98 71.19 25.11-3.27 56.136-17.594 64.685-54.193a102.43 102.43 0 01-31.098 9.204c-56.145 7.31-107.644-32.325-114.953-88.47-.27-2.074-.472-4.133-.616-6.193z" fill="url(#f)"/>
 <path transform="matrix(.64263 0 0 .64263 -111.31 57.459)" d="m388.28 146.11c12.549 3.612 20.944 12.76 18.74 20.42-2.205 7.66-14.179 10.945-26.728 7.333s-20.944-12.76-18.74-20.42c2.205-7.66 14.179-10.944 26.728-7.333z" fill="url(#g)" opacity=".711"/>
 <path d="M107.182 83.071c-10.75 19.171-12.443 41.942-8.535 63.3 2.485 12.953 9.255 25.657 21.167 32.131 12.13-16.073 18.498-36.132 18.977-56.21.207-14.116-4.77-30.434-18.516-36.75-3.992-1.687-8.922-3.174-13.093-2.47z" opacity=".1"/>
 <path d="M106.54 82.73c-10.972 19.64-12.668 43.22-8.335 65.046 2.667 12.783 9.972 25.771 21.91 31.53 12.335-16.173 18.936-36.679 19.4-57.014.123-13.686-4.253-29.109-16.89-36.35-4.815-2.707-10.163-3.86-15.684-3.895l-.326.554-.076.129z" opacity=".1"/>
 <path d="M106.479 81.424c-11.282 19.358-13.179 42.683-9.419 64.364 2.436 13.944 10.127 28.149 23.155 34.502 12.81-16.399 19.533-37.297 20.002-57.978.203-14.269-4.716-30.585-18.214-37.494-4.724-2.446-10.248-3.652-15.524-3.394z" opacity=".1"/>
 <path d="M105.876 81.063c-11.07 19-13.2 41.579-9.82 63.038 2.21 14.977 10.104 30.257 24.32 37.133 12.997-16.338 19.79-37.15 20.552-57.918.365-14.672-4.322-31.376-18.062-38.86-5.095-2.782-10.935-3.93-16.728-3.835l-.262.442z" opacity=".1"/>
 <path d="M105.254 80.701c-5.688 9.457-9 20.47-10.403 31.048-1.744 13.138-1.207 26.898 2.077 39.768 3.176 12.106 10.364 23.437 21.512 29.467.997.377 2.295 1.95 2.88.21 11.184-14.052 17.418-31.622 19.741-49.31 1.507-13.047.402-27.089-7.07-38.21-5.778-8.847-16.311-13.93-26.865-13.756-.822.012-1.603-.246-1.872.783z" opacity=".1"/>
 <path d="M105.254 79.376c-6.18 9.75-9.583 21.24-11.116 32.184-1.769 13.505-1.238 27.537 2.26 40.675 3.34 12.52 11.168 24.158 22.914 30.063.877.617 1.917.828 2.373-.418 11.553-14.38 17.89-32.47 20.18-50.624 1.43-13.17.085-27.458-7.652-38.505-6.28-9.275-17.625-14.076-28.658-13.556l-.301.18z" opacity=".1"/>
 <path d="M104.651 78.994c-12.133 19.865-14.29 44.154-10.483 66.854 2.605 15.511 11.254 30.907 25.987 37.655 2.665-.16 3.588-3.882 5.402-5.548 11.686-17.38 18.112-38.593 17.411-59.598-.513-14.69-7.11-30.805-21.427-36.933-5.2-2.079-11.426-3.75-16.89-2.43z" opacity=".1"/>
 <path d="M104.27 78.312c-11.56 18.622-14.182 40.796-11.608 62.395 1.79 16.666 9.566 34.148 24.984 42.302 1.836 1.567 4.525 1.645 5.582-.771 12.962-16.682 19.821-37.86 20.552-58.882.39-15.237-4.516-32.502-18.404-40.727-5.982-3.564-13.455-5.415-20.413-4.61l-.592.25-.101.043z" opacity=".1"/>
 <path d="M103.868 77.71c-4.08 6.11-7.328 13.446-8.957 20.363-3.78 12.051-4.513 25.737-3.393 38.779 1.26 16.915 7.778 35.273 22.572 44.843 2.585 1.448 6.608 5.14 9.037 1.808 13.367-16.723 20.457-38.182 21.348-59.484.54-15.732-4.42-33.51-18.757-42.032-6.34-3.625-14.13-5.786-21.364-4.463l-.486.185z" opacity=".1"/>
 <path d="M103.527 77.066c-5.436 7.642-8.58 16.8-10.644 25.505-3.672 16.515-3.514 34.342.884 50.869 3.779 13.681 12.76 26.577 26.02 32.056 3.994.78 5.411-4.29 7.738-6.632 11.738-17.55 18.14-38.863 17.633-60.006-.466-15.484-7.246-32.37-22.131-39.12-5.962-2.489-13.159-4.473-19.5-2.672z" opacity=".1"/>
 <path d="m4.544 136.5c0-48.264 25.635-87.435 57.221-87.435 31.587 0 57.222 39.17 57.222 87.435 0 48.263-33.073 60.751-57.222 60.751-24.148 0-57.221-12.488-57.221-60.751z" fill="#ff2900"/>
 <path transform="matrix(.64263 0 0 .64263 -1.424 40.75)" d="m9.286 148.99c0-75.103 39.89-136.06 89.042-136.06 49.151 0 89.042 60.953 89.042 136.06s-51.465 94.535-89.042 94.535c-37.578 0-89.042-19.432-89.042-94.535z" fill="url(#h)" opacity=".549"/>
 <path transform="matrix(.64263 0 0 .64263 -1.424 40.75)" d="m102.38 60.96c-10.15 20.803-28.694 32.659-41.393 26.463-12.698-6.195-14.766-28.108-4.616-48.911 10.15-20.804 28.694-32.66 41.392-26.464 12.699 6.196 14.767 28.108 4.617 48.911z" fill="url(#i)" opacity=".632"/>
 <path transform="matrix(.64263 0 0 .64263 -1.424 40.75)" d="M25.219 71.313C15.169 93.343 9.28 120.13 9.28 149c0 75.103 51.454 94.531 89.031 94.531 29.255 0 66.936-11.784 82.188-52.437a118.338 118.338 0 01-37 5.906C78.088 197 25 143.912 25 78.5c0-2.417.076-4.806.219-7.188z" fill="url(#j)"/>
 <path transform="matrix(.64263 0 0 .64263 -1.424 40.75)" d="m76.327 198.04c13.839 6.01 22.092 17.742 18.424 26.188-3.668 8.447-17.876 10.425-31.714 4.415s-22.092-17.742-18.424-26.188c3.669-8.447 17.876-10.425 31.714-4.415z" fill="url(#k)" opacity=".711"/>
 <path d="M197.502 135.429c-14.544.046-33.87 6.855-48.686 16.736-18.088 11.708-32.88 27.358-32.032 38.674.933 10.85 15.217 15.054 29.815 16.996 16.882 1.99 38.188.705 60.978-7.833 14.461-5.329 28.447-15.29 33.344-24.497 7.492-13.695 1.368-23.839-8.229-30.509-8.664-5.528-19.83-9.778-35.19-9.567z" opacity=".1"/>
 <path d="M197.896 134.909c-14.517.074-33.711 6.699-48.65 16.49-19.047 12.13-34.858 28.815-33.162 40.51 1.534 10.346 15.372 14.44 29.48 16.36 17.327 2.16 39.383.816 62.867-8.166 15.206-5.766 29.384-16.316 33.892-25.902 6.762-13.878.03-24.02-10.4-30.607-8.583-5.04-19.377-8.91-34.027-8.685z" opacity=".1"/>
 <path d="M198.297 134.403c-14.747.074-34.023 6.733-49.185 16.591-19.546 12.405-35.493 29.313-33.836 41.232 1.644 10.515 15.596 14.688 30.233 16.606 17.327 2.088 39.467.688 62.968-8.31 15.276-5.803 29.561-16.323 34.354-25.985 7.043-13.754.81-23.943-9.057-30.662-8.744-5.47-20.074-9.713-35.477-9.472z" opacity=".1"/>
 <path d="M198.691 133.883c-14.894.078-34.52 6.828-49.914 16.836-19.264 12.219-35.295 28.923-34.357 41.001.945 11.342 15.801 15.731 30.915 17.661 17.409 2.064 39.613.557 63.072-8.402 15.836-5.987 30.612-16.929 35.4-26.994 6.68-13.561.664-23.611-9.005-30.333-8.85-5.648-20.35-9.99-36.11-9.77z" opacity=".1"/>
 <path d="M199.092 133.377c-12.679.16-28.687 4.737-42.695 12.422-13.556 7.362-25.062 16.389-33.302 25.79-8.253 9.306-11.669 18.827-8.13 25.219 4.283 7.971 16.664 11.339 29.46 13.035 16.234 1.975 36.629.855 58.546-6.44 13.433-4.445 27.76-12.384 35.739-21.362 9.416-10.332 10.211-19.951 7.074-27.116-4.774-10.658-17.264-17.483-33.57-20.631-3.967-.678-8.384-1.023-13.122-.917z" opacity=".1"/>
 <path d="m199.5 132.86c-12.734 0.172-28.874 4.73-42.994 12.426-12.576 6.764-23.159 14.826-31.48 23.43-9.77 10.077-14.69 20.773-11.074 27.908 3.464 7.538 14.089 11.107 25.542 13.079 15.054 2.56 34.41 2.238 55.522-3.448 13.93-3.682 29.438-10.628 39.84-19.813 11.002-9.5 14.418-19.487 13.129-27.004-2.289-12.806-15.025-20.901-31.8-24.959-4.952-1.13-10.467-1.768-16.685-1.619z" opacity=".1"/>
 <path d="M199.906 132.35c-15.25.078-35.258 6.832-51.164 16.93-19.593 12.195-36.196 28.954-36.725 41.674-.472 12.11 13.636 17.25 28.862 19.569 18.121 2.638 41.851 1.414 66.968-8.021 16.24-6.034 31.837-17.108 37.481-27.56 7.87-14.18 2.12-25.02-7.685-32.113-9.055-6.078-21.165-10.722-37.737-10.478z" opacity=".1"/>
 <path d="M200.319 131.83c-15.498.095-35.832 6.952-51.924 17.19-19.928 12.39-36.66 29.367-37.169 42.209-.361 13.543 16.637 18.537 34.453 20.45 18.2 1.757 41.658-.26 65.758-10.203 16.691-6.78 31.556-18.725 35.942-29.165 6.527-14.786-1.06-25.525-12.753-32.305-8.807-4.765-19.758-8.464-34.307-8.176z" opacity=".1"/>
 <path d="M200.72 131.325c-15.701.078-36.33 7.045-52.69 17.435-20.634 12.809-37.989 30.704-37.602 43.694.18 9.46 9.645 14.82 21.111 17.433 16.952 4.125 39.446 4.342 64.813-2.688 17.109-4.653 36.205-14.544 45.911-26.144 11.939-14.088 9.55-26.134 2.31-34.225-7.888-8.34-20.74-14.144-38.033-15.42a82.728 82.728 0 00-5.82-.085z" opacity=".1"/>
 <path d="M201.151 130.804c-15.931.1-36.842 7.122-53.456 17.681-20.57 12.75-38.155 30.749-38.08 43.871 0 6.863 4.794 11.796 11.648 14.857 13.047 5.43 30.69 7.392 51.423 5.13 18.312-2.047 41.237-8.502 58.715-20.955 15.685-11.057 21.525-24.098 19.752-33.211-2.755-14.551-18.141-23.482-38.719-26.795-3.509-.457-7.277-.66-11.283-.578z" opacity=".1"/>
 <g fill-rule="evenodd">
  <path d="M158.476 115.353c-5.707.326-14.938.762-16.687 7.563 1.112 6.466 8.958 8.835 14.217 11.228 9.327 4.09 19.43 3.893 29.314 3.866 3.577 1.004 1.858-5.062 2.625-7.157 1.313-7.962-8.255-11.532-14.312-13.468a51.597 51.597 0 00-15.157-2.032z" opacity=".1"/>
  <path d="m158.44 114.23c-6.39 0.269-17.01 1.262-17.781 9.313 2.441 7.958 12.373 10.505 19.344 13.125 8.972 3.283 18.708 2.149 27.875 2.469 1.445-5.975 3.164-14.125-3.375-17.875-7.468-5.201-17.058-7.062-26.063-7.032z" opacity=".1"/>
  <path d="m158.41 113.14c-6.97 0.14-18.148 1.673-18.875 10.312 2.02 8.451 12.113 11.291 19.268 14.014 9.593 3.602 19.878 2.498 29.794 2.767 1.744-6.095 3.806-14.805-2.625-19.218-7.804-5.983-17.992-7.879-27.562-7.875z" opacity=".1"/>
  <path d="M158.383 112.01c-7.633.124-19.24 2.067-19.97 11.406 1.997 9.421 13.073 12.468 20.907 15.406 9.53 3.307 19.822 2.345 29.688 2.469 2.637-4.123 2.491-10.037 2.125-14.844-4.472-10.576-17.649-13.146-27.935-14.3-1.603-.076-3.209-.233-4.815-.137z" opacity=".1"/>
  <path d="M158.351 110.916c-7.25.216-16.484 1.554-20.125 8.562-3.158 6.078 2.567 12.01 7.625 14.782 10.71 6.083 23.31 9.095 35.688 8 3.137-.31 8.56 2.097 9.625-2.313.87-4.88 2.28-10.411.531-15.187-4.567-8.771-15.251-11.732-24.33-13.243a52.255 52.255 0 00-9.014-.601z" opacity=".1"/>
  <path d="M158.351 109.79c-7.688.218-17.297 1.738-21.125 9.22-3.144 5.896 1.48 12.177 6.5 15.187 9.735 6.132 21.795 9.624 33.5 9.344 4.42-1.01 9.354 1.424 13.438-.656 3.209-4 2.46-9.808 2.969-14.688-.675-8.388-9.376-13.156-16.621-15.582-6.027-1.944-12.313-2.944-18.66-2.824z" opacity=".1"/>
  <path d="M158.32 108.697c-9.169-.055-22.01 3.084-23.187 13.875.1 10.173 11.282 15.027 19.375 18.125 9.602 3.935 20.05 4.2 30.28 3.969 4.131 1.202 8.757-1.108 8.907-5.719 1.504-7.057 2.329-15.786-4.125-20.719-8.497-7.163-20.338-9.557-31.25-9.53z" opacity=".1"/>
  <path d="m158.29 107.57c-9.511-0.021-22.43 3.247-24.188 14.188-0.836 10.661 10.621 16.409 19.094 19.63 9.958 4.19 20.847 4.712 31.5 4.4 4.698 1.305 9.82-1.501 10.094-6.624 1.629-7.464 2.29-16.576-4.5-21.781-8.742-7.366-20.829-9.822-32-9.813z" opacity=".1"/>
  <path d="m158.26 106.48c-10.295-0.17-24.274 3.971-25.344 16-0.1 11.2 11.794 17.007 20.875 20.313 9.815 3.997 20.375 4.356 30.812 4.094 5.246 1.41 10.906-1.863 11.282-7.5 1.713-7.867 2.221-17.377-4.875-22.875-8.972-7.496-21.298-10.09-32.75-10.032z" opacity=".1"/>
  <path d="m158.23 105.35c-10.588-0.105-24.603 4.076-26.343 16.188-1.062 11.7 11.098 18.465 20.53 21.943 10.169 4.217 21.333 4.9 32.095 4.494 6.33 1.79 12.555-3.008 12.687-9.53 1.68-7.933 1.588-17.344-5.5-22.782-9.136-7.719-21.784-10.343-33.469-10.313z" opacity=".1"/>
 </g>
 <path d="m159.76 108.77c42.367 12.16 70.293 44.534 62.334 72.26-7.958 27.728-48.802 40.362-91.17 28.201-42.367-12.16-44.996-44.339-38.911-65.537 6.084-21.198 25.38-47.084 67.746-34.924z" fill="#00dcff"/>
 <path d="m159.76 108.77c42.367 12.16 70.293 44.534 62.334 72.26-7.958 27.728-48.802 40.362-91.17 28.201-42.367-12.16-44.996-44.339-38.911-65.537 6.084-21.198 25.38-47.084 67.746-34.924z" fill="url(#l)" opacity=".549"/>
 <path d="M131.684 141.277c-10.777 8.271-23.62 9.645-28.67 3.067-5.048-6.578-.4-18.63 10.378-26.901 10.777-8.272 23.621-9.646 28.67-3.067 5.049 6.578.4 18.63-10.378 26.901z" fill="url(#m)" opacity=".632"/>
 <path d="m129.67 206.37c-11.74-2.966-19.797-11.19-17.987-18.355 1.811-7.166 12.808-10.574 24.547-7.607 11.74 2.966 19.798 11.19 17.987 18.355-1.81 7.165-12.808 10.573-24.547 7.607z" fill="url(#n)" opacity=".711"/>
 <path d="m98.245 129.15c-2.82 4.759-4.856 9.768-6.225 14.54-6.085 21.198-3.468 53.368 38.9 65.528 16.84 4.834 33.445 5.766 47.835 3.374-36.903 1.056-91.662-16.84-80.51-83.442z" fill="url(#o)"/>
</svg>
