<svg width="213.333" height="213.333" xmlns="http://www.w3.org/2000/svg" xmlns:xlink="http://www.w3.org/1999/xlink"><defs><linearGradient xlink:href="#b" id="s" x1="1.036" y1=".335" x2=".018" y2=".342"/><linearGradient id="e"><stop offset="0" stop-color="#f60"/><stop offset="1" stop-color="#960000"/></linearGradient><linearGradient id="c"><stop offset="0" stop-color="#006100"/><stop offset="1" stop-color="#00ab00"/></linearGradient><linearGradient id="b"><stop offset="0" stop-color="#f90"/><stop offset="1" stop-color="#ffcb00"/></linearGradient><linearGradient id="a"><stop offset="0" stop-color="#ffcb00"/><stop offset=".5" stop-color="#ffae00"/><stop offset="1" stop-color="#ffcb00"/></linearGradient><linearGradient xlink:href="#a" id="p" x1=".031" y1=".047" x2=".906" y2=".906"/><linearGradient xlink:href="#b" id="o" x1="-.011" y1=".102" x2=".67" y2=".938"/><linearGradient xlink:href="#b" id="m" x1=".706" y1=".656" x2="0" y2=".117"/><linearGradient xlink:href="#b" id="n" x1=".25" y1=".156" x2=".692" y2=".469"/><linearGradient xlink:href="#a" id="q" x1=".354" y1=".148" x2=".75" y2=".633"/><linearGradient xlink:href="#b" id="r" x1=".196" y1=".492" x2="1.022" y2=".516"/><linearGradient id="d"><stop offset="0" stop-color="#009300"/><stop offset="1" stop-color="#00bb4c"/></linearGradient><linearGradient xlink:href="#b" id="u" x1="1" y1=".133" x2=".226" y2=".641"/><linearGradient xlink:href="#b" id="t" x1=".408" y1=".139" x2=".141" y2=".774"/><linearGradient xlink:href="#a" id="w" x1="1.07" y1=".027" x2=".221" y2="1.095"/><linearGradient xlink:href="#b" id="v" x1=".962" y1=".738" x2=".06" y2=".088"/><linearGradient xlink:href="#c" id="f" x1=".826" y1="1.023" x2=".076" y2="0"/><linearGradient xlink:href="#d" id="k" x1=".975" y1=".93" x2=".038" y2=".109"/><linearGradient xlink:href="#d" id="h" x1=".205" y1=".883" x2=".705" y2=".063"/><linearGradient xlink:href="#c" id="g" x1=".174" y1=".914" x2=".652" y2=".031"/><radialGradient xlink:href="#e" id="l" cx=".239" cy=".43" r=".964" fx=".239" fy=".43"/><radialGradient xlink:href="#e" id="i" cx=".619" cy=".234" r=".737" fx=".619" fy=".234"/><radialGradient xlink:href="#e" id="j" cx=".922" cy=".18" r=".86" fx=".922" fy=".18"/></defs><metadata/><g fill-rule="evenodd"><path d="M-109.22 46.339c6.78 18.078 29.377 33.896 58 26.363-15.818 14.312-3.767 47.454 18.077 45.195-15.818 16.571.754 58.753.754 58.753s-43.688-30.883-67.039-19.585c3.013-15.818 0-48.207-25.61-47.454 17.325-10.545 22.597-32.39 15.818-63.272z" transform="matrix(-.89784 -.26058 -.28366 .82477 108.048 -29.12)" fill="url(#f)"/><path d="M-109.22 46.339c6.78 18.078 29.377 33.896 58 26.363-15.818 14.312-3.767 47.454 18.077 45.195-15.818 16.571.754 58.753.754 58.753s-43.688-30.883-67.039-19.585c3.013-15.818 0-48.207-25.61-47.454 17.325-10.545 22.597-32.39 15.818-63.272z" transform="matrix(-.89784 -.26058 -.28366 .82477 108.048 -29.12)" fill="url(#g)"/><path d="M-101.25 67.5c7.5 20 27.5 71.25 53.75 90-16.25-36.25-38.75-72.5-53.75-90z" transform="matrix(-.89784 -.26058 -.28366 .82477 108.048 -29.12)" fill="url(#h)"/><path d="M-55.183 82.935c0 7.747-6.502 14.035-14.514 14.035-8.011 0-14.514-6.288-14.514-14.035 0-7.748 6.503-14.035 14.514-14.035 8.012 0 14.514 6.287 14.514 14.035z" transform="matrix(-.89784 -.26058 -.28366 .82477 108.048 -29.12)" fill="url(#i)"/><path d="M-58.852 146.571c0 6.427-5.216 11.643-11.642 11.643-6.427 0-11.643-5.216-11.643-11.643 0-6.427 5.216-11.643 11.643-11.643 6.426 0 11.642 5.216 11.642 11.643z" transform="matrix(-.89784 -.26058 -.28366 .82477 108.048 -29.12)" fill="url(#j)"/></g><g fill-rule="evenodd"><path d="M-109.22 46.339c6.78 18.078 29.377 33.896 58 26.363-15.818 14.312-3.767 47.454 18.077 45.195-15.818 16.571.754 58.753.754 58.753s-43.688-30.883-67.039-19.585c3.013-15.818 0-48.207-25.61-47.454 17.325-10.545 22.597-32.39 15.818-63.272z" fill="url(#f)" transform="matrix(.94159 0 0 .86495 131.998 -20.233)"/><path d="M-109.22 46.339c6.78 18.078 29.377 33.896 58 26.363-15.818 14.312-3.767 47.454 18.077 45.195-15.818 16.571.754 58.753.754 58.753s-43.688-30.883-67.039-19.585c3.013-15.818 0-48.207-25.61-47.454 17.325-10.545 22.597-32.39 15.818-63.272z" fill="url(#f)" transform="matrix(.94159 0 0 .86495 131.998 -20.233)"/><path d="M-101.25 67.5c7.5 20 27.5 71.25 53.75 90-16.25-36.25-38.75-72.5-53.75-90z" fill="url(#k)" transform="matrix(.94159 0 0 .86495 131.998 -20.233)"/><path d="M-55.183 82.935c0 7.747-6.502 14.035-14.514 14.035-8.011 0-14.514-6.288-14.514-14.035 0-7.748 6.503-14.035 14.514-14.035 8.012 0 14.514 6.287 14.514 14.035zM-58.852 146.571c0 6.427-5.216 11.643-11.642 11.643-6.427 0-11.643-5.216-11.643-11.643 0-6.427 5.216-11.643 11.643-11.643 6.426 0 11.642 5.216 11.642 11.643z" fill="url(#l)" transform="matrix(.94159 0 0 .86495 131.998 -20.233)"/></g><g fill-rule="evenodd"><path d="M29.138 44.9c-20.87 11.74-21.904 84.435 6.819 104.775 16.341-15.016 20.428-76.993-6.694-104.681-.035-.039-.09-.056-.125-.094z" fill="url(#m)" transform="matrix(.94159 0 0 .86495 -3.948 49.414)"/><path d="M48.354 114c-12.126-12.168-28.184 2.58-21.63 19.172 9.504 20.279 36.378-.369 21.63-19.173z" fill="url(#n)" transform="matrix(.94159 0 0 .86495 -3.948 49.414)"/><path d="M118.612 83.862c-6.88-8.18-15.99 1.735-12.27 12.888 5.39 13.63 20.636-.248 12.27-12.888z" fill="url(#o)" transform="matrix(.94159 0 0 .86495 -3.948 49.414)"/><path d="M28.99 45.11c28.779 44.48 18.31 89.026 6.844 104.968 19.39-20.708 47.837-22.082 55.375-26.875 7.537-4.793 18.03-10.315 16.718-32.437-1.638-29.128-30.805-24.707-37.687-25.813-6.872-1.104-28.461-5.883-41.25-19.844z" fill="url(#p)" transform="matrix(.94159 0 0 .86495 -3.948 49.414)"/><path d="M65.797 64.008c7.193 16.865 11.044 45.231 6.156 65.532 7.36-2.235 13.74-3.83 17.438-5.469 4.85-20.605-.582-44.395-6.22-58.281-5.54-.636-10.532-.436-12.874-.813-1.027-.165-2.896-.621-4.5-.969z" fill="url(#q)" transform="matrix(.94159 0 0 .86495 -3.948 49.414)"/><path d="M82.79 66.957l-11.494 16.3c.187.908.392 1.792.562 2.718l13 8.75-10.843 17.156c-.019.869-.024 1.734-.063 2.594l15.75 7.906c.247-1.24.478-2.494.656-3.75l-12.218-6.656 11.187-18.5-14.062-9.594 9.375-13c-.521-1.48-1.317-2.61-1.85-3.924z" fill="url(#r)" stroke="url(#s)" stroke-width="1.477" transform="matrix(.94159 0 0 .86495 -3.948 49.414)"/></g><g fill-rule="evenodd"><path d="M29.138 44.9c-20.87 11.74-21.904 84.435 6.819 104.775 16.341-15.016 20.428-76.993-6.694-104.681-.035-.039-.09-.056-.125-.094z" transform="matrix(-.89615 -.26545 .28896 -.82321 171.658 222.26)" fill="url(#t)"/><path d="M188.779 58.069c7.806 15.301 27.616 6.193 26.47-11.61-2.822-22.217-34.736-10.813-26.47 11.61z" fill="url(#u)" transform="matrix(.94159 0 0 .86495 -26.596 112.201)"/><path d="M118.612 83.862c-6.88-8.18-15.99 1.735-12.27 12.888 5.39 13.63 20.636-.248 12.27-12.888z" transform="matrix(-.89615 -.26545 .28896 -.82321 171.658 222.26)" fill="url(#v)"/><path d="M28.99 45.11c28.779 44.48 18.31 89.026 6.844 104.968 19.39-20.708 47.837-22.082 55.375-26.875 7.537-4.793 18.03-10.315 16.718-32.437-1.638-29.128-30.805-24.707-37.687-25.813-6.872-1.104-28.461-5.883-41.25-19.844z" transform="matrix(-.89615 -.26545 .28896 -.82321 171.658 222.26)" fill="url(#w)"/><path d="M65.797 64.008c7.193 16.865 11.044 45.231 6.156 65.532 7.36-2.235 13.74-3.83 17.438-5.469 4.85-20.605-.582-44.395-6.22-58.281-5.54-.636-10.532-.436-12.874-.813-1.027-.165-2.896-.621-4.5-.969z" transform="matrix(-.89615 -.26545 .28896 -.82321 171.658 222.26)" fill="url(#q)"/><path d="M83.402 67.23L71.296 83.255c.187.91.392 1.793.562 2.719l13 8.75-10.843 17.156c-.019.869-.024 1.734-.063 2.594l15.75 7.906c.247-1.24.478-2.494.656-3.75l-12.218-6.656 11.187-18.5-14.062-9.594 9.375-13c-.521-1.48-.705-2.338-1.238-3.652z" transform="matrix(-.89615 -.26545 .28896 -.82321 171.658 222.26)" fill="url(#r)" stroke="url(#s)" stroke-width="1.477"/></g></svg>