<?xml version="1.0" encoding="UTF-8"?>
<svg width="160" height="106.67" xmlns="http://www.w3.org/2000/svg" xmlns:xlink="http://www.w3.org/1999/xlink">
 <defs>
  <linearGradient id="c">
   <stop stop-color="#f60" offset="0"/>
   <stop stop-color="#960000" offset="1"/>
  </linearGradient>
  <linearGradient id="a">
   <stop stop-color="#006100" offset="0"/>
   <stop stop-color="#00ab00" offset="1"/>
  </linearGradient>
  <linearGradient id="d" x1=".826" x2=".076" y1="1.023" xlink:href="#a"/>
  <linearGradient id="e" x1=".174" x2=".652" y1=".914" y2=".031" xlink:href="#a"/>
  <linearGradient id="f" x1=".205" x2=".705" y1=".883" y2=".063">
   <stop stop-color="#009300" offset="0"/>
   <stop stop-color="#00bb4c" offset="1"/>
  </linearGradient>
  <radialGradient id="g" cx=".619" cy=".234" r=".737" xlink:href="#c"/>
  <radialGradient id="h" cx=".922" cy=".18" r=".86" xlink:href="#c"/>
 </defs>
 <g fill-rule="evenodd">
  <path transform="matrix(-.55211 -.75445 -.72813 .48014 118.74 -65.528)" d="M-109.22 46.339c6.78 18.078 29.377 33.896 58 26.363-15.818 14.312-3.767 47.454 18.077 45.195-15.818 16.571.754 58.753.754 58.753s-43.688-30.883-67.039-19.585c3.013-15.818 0-48.207-25.61-47.454 17.325-10.545 22.597-32.39 15.818-63.272z" fill="url(#d)"/>
  <path transform="matrix(-.55211 -.75445 -.72813 .48014 118.74 -65.528)" d="M-109.22 46.339c6.78 18.078 29.377 33.896 58 26.363-15.818 14.312-3.767 47.454 18.077 45.195-15.818 16.571.754 58.753.754 58.753s-43.688-30.883-67.039-19.585c3.013-15.818 0-48.207-25.61-47.454 17.325-10.545 22.597-32.39 15.818-63.272z" fill="url(#e)"/>
  <path transform="matrix(-.55211 -.75445 -.72813 .48014 118.74 -65.528)" d="m-101.25 67.5c7.5 20 27.5 71.25 53.75 90-16.25-36.25-38.75-72.5-53.75-90z" fill="url(#f)"/>
  <path transform="matrix(-.55211 -.75445 -.72813 .48014 118.74 -65.528)" d="m-55.183 82.935c0 7.747-6.502 14.035-14.514 14.035-8.011 0-14.514-6.288-14.514-14.035 0-7.748 6.503-14.035 14.514-14.035 8.012 0 14.514 6.287 14.514 14.035z" fill="url(#g)"/>
  <path transform="matrix(-.55211 -.75445 -.72813 .48014 118.74 -65.528)" d="m-58.852 146.57c0 6.427-5.216 11.643-11.642 11.643-6.427 0-11.643-5.216-11.643-11.643s5.216-11.643 11.643-11.643c6.426 0 11.642 5.216 11.642 11.643z" fill="url(#h)"/>
 </g>
</svg>
