<?xml version="1.0" encoding="UTF-8"?>
<svg width="640" height="512pt" version="1.0" xmlns="http://www.w3.org/2000/svg" xmlns:xlink="http://www.w3.org/1999/xlink">
 <defs>
  <linearGradient id="e" x1="202" x2="274" y1="488" y2="430" gradientUnits="userSpaceOnUse" xlink:href="#b"/>
  <linearGradient id="c">
   <stop stop-color="#828282" offset="0"/>
   <stop stop-color="#d2d2d2" offset="1"/>
  </linearGradient>
  <linearGradient id="a">
   <stop stop-color="#e6e6e6" offset="0"/>
   <stop stop-color="#fff" offset="1"/>
  </linearGradient>
  <linearGradient id="C" x1="44" x2="57.641" y1="242" y2="207" gradientUnits="userSpaceOnUse" xlink:href="#a"/>
  <linearGradient id="j" x1="55" x2="139" y1="145.65" y2="117" gradientUnits="userSpaceOnUse" xlink:href="#a"/>
  <linearGradient id="i" x1="240.11" x2="303.52" y1="120.71" y2="111.71" gradientUnits="userSpaceOnUse" xlink:href="#a"/>
  <linearGradient id="J" x1="143.88" x2="252.38" y1="266.91" y2="218.17" gradientUnits="userSpaceOnUse" xlink:href="#a"/>
  <linearGradient id="v" x1="172.95" x2="254" y1="210" y2="187" gradientUnits="userSpaceOnUse" xlink:href="#a"/>
  <linearGradient id="B" x1="269.17" x2="323.95" y1="202.91" y2="188.91" gradientUnits="userSpaceOnUse" xlink:href="#a"/>
  <linearGradient id="n" x1="332.67" x2="373" y1="140" y2="108.28" gradientUnits="userSpaceOnUse" xlink:href="#a"/>
  <linearGradient id="z" x1="347.8" x2="380.58" y1="159.3" y2="147.3" gradientUnits="userSpaceOnUse" xlink:href="#a"/>
  <linearGradient id="k" x1="388.45" x2="438.62" y1="129.84" y2="112.96" gradientUnits="userSpaceOnUse" xlink:href="#a"/>
  <linearGradient id="o" x1="375.14" x2="396.73" y1="142.93" y2="142.93" gradientUnits="userSpaceOnUse" xlink:href="#a"/>
  <linearGradient id="p" x1="387.17" x2="426.84" y1="177.6" y2="135.8" gradientUnits="userSpaceOnUse" xlink:href="#a"/>
  <linearGradient id="x" x1="375.02" x2="415.67" y1="188.15" y2="178.27" gradientUnits="userSpaceOnUse" xlink:href="#a"/>
  <linearGradient id="t" x1="414.27" x2="458.17" y1="178.38" y2="154.38" gradientUnits="userSpaceOnUse" xlink:href="#a"/>
  <linearGradient id="g" x1="494.12" x2="558.92" y1="114.65" y2="97.649" gradientUnits="userSpaceOnUse" xlink:href="#a"/>
  <linearGradient id="I" x1="420.11" x2="468.07" y1="258.58" y2="228.58" gradientUnits="userSpaceOnUse" xlink:href="#a"/>
  <linearGradient id="E" x1="553.39" x2="628.67" y1="259.1" y2="228.1" gradientUnits="userSpaceOnUse" xlink:href="#a"/>
  <linearGradient id="H" x1="512.58" x2="550.97" y1="300.99" y2="255.99" gradientUnits="userSpaceOnUse" xlink:href="#a"/>
  <linearGradient id="Q" x1="490.54" x2="569.44" y1="405.14" y2="405.14" gradientUnits="userSpaceOnUse" xlink:href="#a"/>
  <linearGradient id="O" x1="483.42" x2="622.04" y1="453.25" y2="432.34" gradientUnits="userSpaceOnUse" xlink:href="#a"/>
  <linearGradient id="M" x1="180.72" x2="213.08" y1="357.74" y2="332.74" gradientUnits="userSpaceOnUse" xlink:href="#a"/>
  <linearGradient id="b">
   <stop stop-color="#7d1304" offset="0"/>
   <stop stop-color="#cc0606" offset="1"/>
  </linearGradient>
  <linearGradient id="P" x1="200.17" x2="237.19" y1="419.74" y2="409.74" gradientUnits="userSpaceOnUse" xlink:href="#b"/>
  <linearGradient id="G" x1="166.59" x2="207.48" y1="283.49" y2="266.49" gradientUnits="userSpaceOnUse" xlink:href="#b"/>
  <linearGradient id="K" x1="90.578" x2="135.95" y1="270.87" y2="241.01" gradientUnits="userSpaceOnUse" xlink:href="#b"/>
  <linearGradient id="q" x1="20.256" x2="70.547" y1="174.54" y2="160.54" gradientUnits="userSpaceOnUse" xlink:href="#b"/>
  <linearGradient id="h" x1="136.64" x2="232.3" y1="124.18" y2="111.74" gradientUnits="userSpaceOnUse" xlink:href="#b"/>
  <linearGradient id="F" x1="218.64" x2="286.52" y1="218.87" y2="213.87" gradientUnits="userSpaceOnUse" xlink:href="#b"/>
  <linearGradient id="r" x1="247.11" x2="338.36" y1="159.88" y2="159.88" gradientUnits="userSpaceOnUse" xlink:href="#b"/>
  <linearGradient id="l" x1="303.89" x2="343.27" y1="136.98" y2="136.98" gradientUnits="userSpaceOnUse" xlink:href="#b"/>
  <linearGradient id="A" x1="341.93" x2="373.3" y1="186.51" y2="186.51" gradientUnits="userSpaceOnUse" xlink:href="#b"/>
  <linearGradient id="s" x1="315.25" x2="385.62" y1="187.97" y2="159.97" gradientUnits="userSpaceOnUse" xlink:href="#b"/>
  <linearGradient id="D" x1="376.64" x2="410.34" y1="218.78" y2="209.78" gradientUnits="userSpaceOnUse" xlink:href="#b"/>
  <linearGradient id="w" x1="402.77" x2="424.33" y1="178.24" y2="178.24" gradientUnits="userSpaceOnUse" xlink:href="#b"/>
  <linearGradient id="L" x1="472.33" x2="580.69" y1="266.74" y2="272.74" gradientUnits="userSpaceOnUse" xlink:href="#b"/>
  <linearGradient id="m" x1="558.68" x2="598.63" y1="166.97" y2="144.97" gradientUnits="userSpaceOnUse" xlink:href="#b"/>
  <linearGradient id="f" x1="413.66" x2="481.79" y1="113.58" y2="80.35" gradientUnits="userSpaceOnUse" xlink:href="#b"/>
  <linearGradient id="u" x1="458.3" x2="527.42" y1="211.31" y2="211.31" gradientUnits="userSpaceOnUse" xlink:href="#b"/>
  <linearGradient id="N" x1="518.73" x2="544.2" y1="335.84" y2="335.84" gradientUnits="userSpaceOnUse" xlink:href="#b"/>
  <linearGradient id="d" x1="209.47" x2="485.96" y1="425.9" y2="408.9" gradientUnits="userSpaceOnUse" xlink:href="#c"/>
  <linearGradient id="y" x1="337.23" x2="427.81" y1="254.42" y2="194.44" gradientUnits="userSpaceOnUse" xlink:href="#c"/>
 </defs>
 <path d="M364.5 265.344c-.001.011.028.051.031.125-.008-.08-.03-.14-.031-.125z" fill="url(#d)"/>
 <path d="M213.344 362.813c-3.46.507-30.525 5.145-33.813 20.906 1.05 8.987 17.594 26.06 17.594 26.062l.031.031c.51.506.991.993 1.469 1.47 3.039 1.581 9.498.754 13.25.406 5.847.297 15.772-1.804 20.375-5.47-.411-4.545-2.867-15.86-3.031-18.062-.163-7.334-1.45-17.893-6.813-23.562-2.944-1.294-5.87-1.825-8.719-1.781a.772.772 0 01-.062 0h-.156c-.043.006-.07-.009-.125 0zm40.531 43.718c-.249 2.927-1.255 5.492-1.281 7.031-1.256 5.94-26.656 19.804-34.625 19.844-9.669-.008-15.87-.634-22.219-8.937-.063-.112-.126-.232-.188-.344-2.01 10.108-4.866 20.793-5.187 31.125 1.445 39.544 19.159 72.504 41.344 110.625 2.123-.466 7.184-.28 9.75-1.063-4.178-7.578-13.326-22.846-13.875-30.312v-.219c.906 2.65 11.286 18.584 16.406 26.844 4.871-1.65 12.947-.213 18.563-2.5-6.898-10.004-20.25-29.644-22.782-34.438-4.608-7.85-15.045-34.106-16.25-38.968l.156-.375c.574 1.443 13.793 29.982 18.22 37.469 2.615 4.928 15.222 23.017 22.03 32.656 6.064-2.526 12.103-5.002 18.25-7.844-5.33-8.706-14.53-23.727-17.28-28.094-4.317-6.678-7.462-14.08-9.376-21.812l1.375-.406c1.38 5.138 7.162 15.367 10.719 20.875 2.977 4.629 13.953 21.181 18.75 29.406 7.741-3.618 12.54-9.727 19.063-13.125-5.88-11.885-16.8-32.506-19.188-38.438-4.087-9.96-20.752-48.217-27.156-55.031l.219-.188c6.47 7.452 26.033 43.875 30.218 53.97 2.472 6.146 14.942 29.603 20.375 40.75 7.678-4.083 12.382-10.323 15.5-12.626-4.455-28.103-27.542-58.997-42.406-81.906-9.602-11.578-19.992-22.34-29.125-33.969z" fill="url(#e)"/>
 <path d="M462.516 75.399c3.265.192 6.305-.582 9.563-.151 8.085 7.288 21.571 24.29 27.711 33.39-12.046-3.556-28.307-6.809-48.743-3.146-4.368.789-8.744 2.74-12.969 5.469-8.266-.027-24.959.837-34.423 2.623 10.548-14.139 33.313-35.91 58.86-38.185z" fill="url(#f)"/>
 <path d="m476.12 75.252c27.722 4.838 56.677 19.927 79.583 38.365 2.14 11.278 3.21 29.818 3.22 40.428-10.754-10.685-21.9-22.711-32.407-33.115-6.862-4.808-13.162-7.868-21.849-11.164-5.348-9.134-19.75-25.741-28.548-34.514z" fill="url(#g)"/>
 <path d="M209.36 99.305c.024-.003.037.002.062 0h.156c.108-.008.23.002.344 0 .18-.003.365.019.562.031 6.313 3.223 17.28 11.38 22.282 13.219 4.924 2.001 9.955 7.717 13.53 11.625-16.538-2.53-34.089-4-50.874-3.781-10.019.13-17.265 2.672-27.094 3.625-9.242-6.345-28.577-12.824-39.687-15.063 24.57-5.188 72.96-6.746 73.25-6.75 3.767.216 4.314-2.556 7.468-2.906z" fill="url(#h)"/>
 <path d="M220.11 100.211c24.76 1.71 51.871 8.401 77.156 11.5 4.792 6.775 12.875 21.367 19.25 29.5-19.292-8.236-46.265-13.939-63.125-17.437-1.294-.283-1.93.772-3.22.53-4.369-5.223-9.508-12.267-15.624-14.562-3.555-1.276-10.622-7.043-14.438-9.531z" fill="url(#i)"/>
 <path d="m120.8 110.71c13.084 4.321 32.49 7.989 43.375 13.688-11.041 1.185-24.361 0.898-35.5 3.03-12.31 2.175-24.864 5.35-36.25 10.345-12.65-0.888-32.632 3.604-45.094 7.875 18.452-15.594 47.066-26.983 73.469-34.938z" fill="url(#j)"/>
 <path d="M438.617 112.965c-5.926 4.604-16.01 11.44-20.633 17.652h-.03l-.032.032c-.534.483-3.794 5.25-4.156 6.03l-.032.032v.063a93.095 93.095 0 00-4.593 8.03c-.538.266-1.03.49-1.438.688-2.631.738-12.718 1.613-13.844 1.032-.004-.003-.027.002-.03 0-.008-.006-.026-.026-.032-.032-.005-.005-.028-.025-.031-.031-.002-.003 0-.028 0-.031l-5.313.219c.003-.005.028-.026.031-.032.478-.881 3.923-10.862 7.625-17.531.003-.003.028-.029.032-.031.84-.712 1.663-2.865 2.03-3.375 0 0-1.209-3.158 1.828-7.624 8.096-2.565 38.565-5.088 38.618-5.09z" fill="url(#k)"/>
 <path d="M303.89 114.93c9.926 3.211 19.963 9.415 28.75 15.125 3.992 2.812 8.03 12.347 10.626 16a84.976 84.976 0 00-3.5 12.969c-3.644-6.621-10.235-11.916-18.407-16.22-9.096-7.81-13.168-19.885-17.468-27.874z" fill="url(#l)"/>
 <path d="M558.675 112.078c24.584 20.795 42.087 50.992 55.959 76.285-4.525 8.882-14.984 27.523-22.052 33.498 1.532-8.906 2.293-19.304-.004-27.431-8.036-14.861-19.187-25.91-30.999-37.884.057-9.387-1.316-32.144-2.904-44.468z" fill="url(#m)"/>
 <path d="M349.469 123.656c-.135.002-.271.028-.406.031-.139.004-.269-.005-.407 0-.09.004-.191-.004-.281 0a1.505 1.505 0 01-.125 0h-.219a1.404 1.404 0 00-.094 0h-.062c-5.47.373-10.705 2.238-13.625 4.75 4.232 3.246 7.51 6.833 9.531 10.844-.105-1.41-.103-2.537 0-3.344l13.719-11.156c-2.527-.795-5.283-1.164-8.031-1.125zM313.28 141.5c-3.065 2.593-4.715 7.07-5.437 9.563 7.042-1.574 13.342-2.855 16.969-3.407a67.55 67.55 0 00-2.157-1.344l-2 .063c-.891-.84-5.764-4.172-7.375-4.875zm15.125 23.719c-5.068 1.371-11.303 2.795-17.812 4.25.256 3.442 3.42 7.256 7.125 9.437 2.6-4.343 6.045-9.672 10.687-13.687z" fill="url(#n)"/>
 <path d="M390.734 133.336a137.2 137.2 0 00-7.406 18.094c-3.115.579-5.968.989-8.187 1.094 2.128-7.971 9.672-14.517 15.593-19.188z" fill="url(#o)"/>
 <path d="M418.297 135.805c12.245.074 8.148 13.815 6.75 18-3.73 6.124-16.022 15.503-22 19.281-3.97 3.014-18.532 7.66-26.875 10.313 4.009-6.299 15.108-23.864 18.094-33.625 7.341-1.297 13.14.108 16.218-.75 4.819-2.143 8.423-7.646 7.813-13.22z" fill="url(#p)"/>
 <path d="m414.2 139.59c-0.215 1.649-1.329 2.9-2.656 3.844 0.818-1.21 1.702-2.498 2.656-3.844z"/>
 <path d="M83.234 140.555c.097-.005.185.004.282 0 .096-.005.185.004.28 0 .098-.004.186.003.282 0 .848-.028 4.661.315 5.469.344-15.593 8.068-35.092 27.607-36.75 41.03-7.869 4.629-21.223 17.05-29.219 26.595-9.907-16.588 4.1-43.142 18.969-57.938 11.04-3.113 28.396-9.362 40.687-10.031z" fill="url(#q)"/>
 <path d="m326.42 148.74c4.448 3.107 8.493 6.753 11.937 11.094-2.344 0.58-4.5 1.578-6.468 2.813-8.709 1.822-25.521 5.196-39.407 8.375-8.054-2.405-32.03-2.471-45.375-1.032 7.24-3.363 22.083-7.037 26.032-8.125 6.876-1.897 43.138-10.176 53.28-13.125z" fill="url(#r)"/>
 <path d="M390.5 150.688c-5.267.99-12.738 4.527-15.844 5.375-.603 7.87-1.273 15.906-.812 23.812 3.27-5.718 13.596-21.203 16.781-29.188h-.125zm-51.375 11.28c-8.879 1.746-17.024 17.7-20.625 22.75-1.538 3.642-3.252 16.091-3.25 16.095l.063.03c4.169 1.7 12.173 2.632 16.343 2.376 4-.732 7.828-2.71 11.781-3.625-4.11-11.807-5.297-26.245-4.75-32.469a61.46 61.46 0 01.563-5.156h-.031c-.035.006-.06-.007-.094 0z" fill="url(#s)"/>
 <path d="M444.984 162.305a62.754 62.754 0 015.688.187c10.36 6.302 26.833 23.463 33.5 31.969-5.386-2.86-13.459-7.49-20.375-8.469-12.772-1.397-24.119-.848-36.063-2.468-.002 0-9.163-11.033-13.468-13.313 2.502-1.921 4.854-4.026 6.937-6.375 10.866.478 15.53-1.395 23.781-1.531z" fill="url(#t)"/>
 <path d="M460.11 164.617c1.637-.045 3.848-.055 5.78.719 25.603 4.753 42.285 27 59.376 45 .873 1.036 1.363 3.403 2.156 4.469-.17 10.694-2.6 29.886-8.156 43.219-4.127-24.667-12.53-48.496-30.22-61.813-5.586-8.354-19.313-22.946-30.75-31.562.427.036 1.069-.011 1.813-.032z" fill="url(#u)"/>
 <path d="M266.672 171.399c.034-.004.06.002.094 0h.312c.24-.007.474.001.719 0 7.356-.049 17.324.529 21.937 1.28-4.48 1.093-12.587 2.122-15.312 3-23.798 6.947-41.22 20.028-53.625 37.25-15.394 3.405-38.263 17.47-47.844 23.313 6.683-11.584 24.378-28.512 34.344-38.781 3.876-4.886 18.484-15.477 35-23.812.02-.01 17.28-2.09 24.062-2.22.098-.001.21-.021.313-.03z" fill="url(#v)"/>
 <path d="m411.73 172.02c2.411 1.856 10.308 6.178 12.594 12.437-5.435-2.948-15.36-5.43-21.562-6.906 2.28-1.133 4.094-2.167 5.156-2.969a96.377 96.377 0 0 0 3.812-2.562z" fill="url(#w)"/>
 <path d="M401.203 178.274a188.537 188.537 0 0014.469 3.625l-.281.03c-.259 13.108-19.718 15.526-25.094 16.095-6.539-3.362-11.827-5.918-14.906-7.157-.124-.53-.268-1.06-.375-1.593 5.482-2.132 17.984-7.08 26.187-11z" fill="url(#x)"/>
 <path d="M373.313 183c-7.385-.061-15.215.994-18.032 1.25-5.008.455-26.42 22.175-31.125 27.031-4.704 4.857-6.682 26.408-2.281 39.156 4.401 12.749 24.31 13.813 35.844 15.938 11.534 2.125 28.205-7.01 28.812-10.5.114-.654-.027-1.264-.344-1.875l6.907-7.313c.187.29.428.653.562.844.332-.759.662-1.586.969-2.469l.125-.125-.063-.062c4.561-13.297 6.35-39.135 5.5-44.375-.91-5.615-6.809-8.943-13.03-14.406-2.62-2.3-8.101-3.046-13.844-3.094zm-23.125 19.25c9.855-.36 40.118 11.793 39.843 16.469-.225 3.827-2.59 11.696-3.812 15.531l-.031-.031-9.094 14.469c-3.664 1.401-22.997 7.397-30.313 4.937-17.604-5.919-15.803-17.63-15.5-24.156.304-6.526 10.948-23.197 16.563-26.688.526-.327 1.324-.494 2.344-.531z" fill="url(#y)" fill-rule="evenodd"/>
 <path d="M377.547 120.93h.187a.95.95 0 00.063 0c.126-.007.252 0 .375 0 7.02-.062 15.222 4.18 16.312 5.062l.032.032a1.704 1.704 0 01.062.062v.031a.89.89 0 00-.031 0c-6.142 3.164-21.099 15.49-23.469 26.875-.945 13.833-3.953 28.108-.125 41.594.286.98.626 2.021 1.031 3.094-14.437-9.232-22.846-42.62-24.187-58.625-.001-.01 9.274-8.312 16.062-13.656 4.415-3.088 9.13-4.285 13.563-4.438h.094l.03-.031z" fill="url(#z)"/>
 <path d="M345.734 151.024c4.16 18.429 15.42 46.176 32.438 52.437 3.621 6.867 5.734 14.938 11.125 18.531-7.59-.633-18.215-1.4-30.625-8.562-12.095-7.333-17.499-36.392-16.656-46.063.23-3.892 1.297-9.823 3.718-16.343z" fill="url(#A)"/>
 <path d="M315.953 181.93a53.841 53.841 0 01-1.719 2.75c-2.164 5.392-2.382 10.952-.156 16.031-3.454.11-6.515 4.995-14.406 9.188-5.137-1.4-14.283-6.9-21.5-8.157a1393.16 1393.16 0 015.531-2.625c11.768-5.403 21.008-11.449 32.25-17.187z" fill="url(#B)"/>
 <path d="m50.516 186.9c-3.587 17.388 2.357 30.515 15.906 41.187 2.138 5.758 5.047 12.476 7.625 15.75 3.28 4.305 14.067 14.437 18.437 23.656-30.114-5.688-58.066-18.117-65.093-33.875-2.27-7.052-3.783-13.741-4.594-20.093 6.581-9.413 18.538-20.176 27.719-26.625z" fill="url(#C)"/>
 <path d="M376.118 193.443c5.891 2.427 19.84 8.236 34.899 16.315 1.715 6.936 5.928 25.054 7.328 32.519-6.033-4.16-14.94-13.94-20.454-18.066 0 0-2.59-2.356-4.063-3.094h-.031l-.031-.031c-2.443-1.887-4.735-3.69-6.782-5.406-.024-.026-.07-.069-.093-.094-2.418-2.775-4.422-6.082-6.063-9.5.305.023-4.232-11.162-4.71-12.643z" fill="url(#D)"/>
 <path d="m615.76 192.52c4.37 14.206 5.389 34.12 4.724 48.848-1.271 21.003-10.126 34.446-20.288 42.308-16.427-2.448-39.61-10.824-46.805-21.401 12.214 1.066 21.168-6.587 29.843-14.657 4.076-6.46 5.33-13.306 7.26-21.38 7.474-5.667 19.851-25.039 25.266-33.718z" fill="url(#E)"/>
 <path d="m271.3 203.43c6.115 0.365 18.13 5.377 24.219 7.781-13.878 7.62-30.474 17.188-44.813 23.094-8.286-1.74-25.815-4.706-32.062-7.969 21.557-6.201 33.087-13.514 52.656-22.906z" fill="url(#F)"/>
 <path d="M220.484 214.711c-7.26 11.286-15.415 26.985-19.125 40.906h-.031v.125c-1.628 6.13-2.933 12.47-3.969 18.969-1.192 10.285-.223 17.689-.031 25.844-7.434 10.56-16.661 39.572-20.281 51.719-.72-3.326-3.33-13.886-4.375-17.75-6.67-37.045-8.894-81.612-1.313-94.063 9.18-5.634 35.994-22.079 49.125-25.75z" fill="url(#G)"/>
 <path d="M530.672 214.742c6.342 19.128 13.647 57.964 13.281 87.688-5.013 3.686-16.215 13.823-21.719 22.812.11-4.162 1.136-10.503 1.157-16.156-.355-13.197-1.649-27.222-3.813-42.906 5.672-10.03 10.259-37.778 11.094-51.438z" fill="url(#H)"/>
 <path d="m415.11 212.07c19.338 10.433 51.74 29.555 53.79 30.595 1.955 6.889 9.374 24.413 13.166 32.433-14.425-5.664-31.566-15.787-40.52-21.074-5.606-3.532-13.115-8.414-21.03-13.782-1.171-6.684-2.941-19.974-5.407-28.173z" fill="url(#I)"/>
 <path d="M214.719 227.438c-4.298 8.313-7.71 17.317-10.281 26.875 15.433-6.487 27.538-10.077 39.937-17.407-8.393-1.697-28.43-9.193-29.625-9.469h-.031zm-45.375 10.468c-9.935 1.952-23.853.29-34.469 1.219 8.72 6.701 19.47 21.768 23.094 27.781a54.046 54.046 0 006.219-2.344c.935-5.42 4.469-21.154 4.312-22.593v-.031-.032l-.031-.031-.063-.031c-.047-.03-.115-.09-.156-.125l-.031-.031a3.836 3.836 0 01-.031-.032l-.032-.031-.031-.031c-.019-.025-.046-.068-.063-.094l-.03-.063c-.363-.695-.067-1.973 1.312-3.53z" fill="url(#J)"/>
 <path d="M70.578 231.149c13.218 2.58 34.775 10.212 58.438 8.687 7.812 5.93 21.842 23.785 24.937 28.188-15.917 3.92-37.047 3.615-57.562.156-5.178-12.025-16.637-22.318-20.282-27.219-1.646-2.128-3.743-6.118-5.531-9.812z" fill="url(#K)"/>
 <path d="M472.563 242.313c-.009.004-.024.025-.032.03-1.925 1.585 10.395 27.289 13.625 34.22 15.338 5.857 28.314 7.491 33.438 8.593-.338-5.395-1.925-15.74-2.344-16.625-.006-.011-.025-.024-.031-.031h-.032l-1.906-4.719c1.154-1.359 1.766-2.208 1.875-2.656 0-.003.031-.028.032-.031 0-.017-.031-.047-.032-.063a1.017 1.017 0 000-.062c-16.917-3.363-30.844-12.14-44.562-18.656-.01.003-.023-.005-.031 0zm72.03 18.875c.963 9.557 1.195 19.285 1.188 28.812 17.518 2.229 34.532 1.585 47.907-4.469-15.189-3.77-36.467-13.534-43.22-23.562-1.88-.22-3.831-.486-5.874-.781z" fill="url(#L)"/>
 <path d="m197.98 304.27c2.181 15.427 3.345 36.11 9.094 57.468-8.384 2.653-16.64 7.79-21.156 9.469-2.484-6.255-3.96-11.653-5.188-17.031-0.33-10.165 8.04-37.85 17.25-49.906z" fill="url(#M)"/>
 <path d="M544.203 306.055c-.039 2.238-1.038 6.113-1.031 8.312.286 21.133 1.36 30.695.437 51.25-2.99-.414-14.573-4.355-24.875-4.562 2.59-13.709 1.771-20.209 2.282-29.75 4.462-9.642 17.66-20.683 23.187-25.25z" fill="url(#N)"/>
 <path d="M519.313 362.625c-.203 0-.425.026-.625.031-.133.003-.275-.005-.407 0-.085.004-.165-.004-.25 0-.084.004-.166-.005-.25 0h-.5c-5.055.406-9.41 2.485-11.5 7.625-1.98 6.263-1.328 25.824-1.031 28.531 1.529 1.075 3.851 1.403 5.875 1.563 6.487.576 15.622 2.424 21.875 4.219 4.44-.037 12.226 1.58 16.406 1.437 1.352-3.762 6.106-19.63 4.938-26-1.257-4.54-10.138-8.915-12.094-13.156-4.302-.624-14-4.272-22.438-4.25zm-29.375 48.406c-9.03 16.825-17.414 56.636-18.75 77.5-.635 15.86 2.466 30.643 1.78 50.063 3.115 1.133 7.066 3.526 11.532 4.062-.203-9.178-.126-30.009.125-36.625.176-10.107-.333-38.43 1.906-49.812l1.781.406c-2.395 9.785-.221 40.206-.406 50.313-.317 6.205.076 24.783.5 34.53 5.111.426 10.739 2.44 16.5 2.407.69-9.608 2.146-30.12 2.063-36.688-.207-6.87.169-14.228-1.188-20.968h2.188c1.083 5.098 1.683 13.995 1.875 20.437.089 6.677-.406 25.754-.625 35.281 7.222-.145 14.797.291 21.437-.156.367-11.525.85-34.264.469-41.468-1.087-11.512-1.565-22.36-3.719-33.688l.563-.406c1.948 11.197 4.442 22.312 5.562 33.656.456 7.422.697 31.967.782 43.219 3.6-.263 6.918-2.945 9.875-3.188 2.763-13.28 8.376-36.068 9.656-44.062 1.24-9.458 3.967-26.688 3.75-36.219l1.375-.406c-.17 9.792.32 19.57-1.157 29.281-1.339 8.75-7.688 40.325-10 54 2.291-.187 5.019-3.29 6.438-3.375 3.584-7.768 11.093-26.01 12.719-37.375 3.117-18.002 6.62-36.679 1.906-54.594-2.77-10.737-7.053-21.238-10.719-31.687-4.61 3.477-10.99 5.24-13.937 5.469-7.93.766-42.65 1.282-48.438-4.22-1.738-1.031-4.02-3.085-5.844-5.687z" fill="url(#O)"/>
 <path d="M232.422 390.93c22.423 5.226 14.366 19 14.344 22.469-1.395 4.11-19.566 15.032-26.188 15.093-7.83-.007-17.734 1.016-23-5.687-1.882-3.704-4.478-8.701-4.406-12.969 3.695 7.393 9.042 5.656 16.812 4.875 7.429-1.294 45.68-1.658 23.75-18.156-.472-2.006-.953-3.99-1.312-5.625z" fill="url(#P)"/>
 <path d="M502.61 391.524c.015.105.015.21.03.312-10.81 7.964 1.216 10.236 7.688 10.813 6.36.561 12.33 2.378 18.469 4.125 6.262 1.32 34.99 4.293 24.969-6.813a94.19 94.19 0 001.687-5.375c14.441 17.955-6.593 23.45-11.562 23.625-7.93.633-37.43 1.474-42.282-2.406-8.012-4.226-20.757-19.239 1-24.281z" fill="url(#Q)"/>
 <path d="M472.281 71.156c-.73.156-1.34.839-1.875 1.125-.037.02-.088.048-.125.063-.03.011-.084.046-.125.062-.006.003-.025-.002-.031 0h-.062c-.04.002-.092.002-.125 0h-.032c-.038-.007-.089-.023-.125-.031h-.031a1.015 1.015 0 01-.125-.063s-3.518-1.033-4.063-1.124h-.03v.03c-27.374 2.633-49.685 21.341-64.72 42.72-2.446.723-2.987 1.843-3.875 2.906l-.093 4.594.031-.032h.031v.063c-.07.338-.63 1.677-1.187 2.625-5.132-3.41-18.962-10.48-34.406-1.656-.603.296-1.178.627-1.75.968-3.88-4.286-21.46-3.043-27.22 3.625-7.666-5.344-31.151-16.025-33.312-17.719l-5.062.438v.031h-.031c-2.288.044-55.839-10.265-75.47-11.687-3.033-1.814-6.042-1.005-8.968-1.625l-3.625 1.219c-.603.06-6.562 1.763-9.656 1.78-21.698.128-47.286 1.954-72.188 8.126l-10.594 1.562v.031a2.61 2.61 0 01-.062.063c-2.642 1.805-52.706 21.206-70.406 37.25-2.224.56-2.31.893-4.157.844 0 0-29.69 41.854-20.312 65.812-1.506 2.3-1.49 2.42-1.781 4.156 0 0 4.865 12.028 6.625 17.313 5.784 15.603 54.077 37.372 69.344 37.438l5.593.25c20.659-.565 41.64 1.186 61.969-1.688v-.031l.031-.063.063-.062c.447-.484 2.12-1.756 3.25-2.063-3.05 22.73 11.975 83.47 11.937 85.563V354l4.031 3.969c1.135 4.152 2.51 8.439 4.532 13.75l.5 1.219c-1.516.76-6.901 7.263-6.906 10.75 1.067 11.317 7.025 16.3 14.468 23.78 0 0 .525 9.32 1.719 12.813-2.186 10.801-6.978 25.773-7.125 36.625 2.006 41.161 19.855 70.61 42.5 111.938 0 0 12.149-1.102 13-.75l.031.031 4.438-2.313a15.25 15.25 0 00-.688-1.312c5.068-1.374 17.96-2.127 19.344-1.594l.063.032h.03l2.063-2.625c-.387-.465-1.024-1.335-1.875-2.5 6.065-2.41 10.889-4.83 16.844-7.688 1.02 1.667 2.865 2.627 3.344 3.031l.062.063.031.031s14.924-12.102 21.188-15.844c.954 2.002 1.643 3.544 1.938 4.407l2.312-3.188v-.031-.032l.031-.03.031-.063c1.188-1.76 17.125-15.206 17.688-15.657h.031c.063-.01.177-.007.25 0h.063l.062.032.063.031c-13.919-52.778-66.189-109.778-75.688-118.688-.48-5.305-4.68-11.225-21.781-14.5-.175-.88-.262-1.6-.281-2.062-.188-8.833.091-17.88-6.469-24.625-5.594-2.803-10.998-2.953-16.781-2.156-6.462-21.694-7.121-36.832-7.438-54.813l.031-.031v-.031-.031-.032-.031l-.03-.031-.032-.031c-.251-.302-1.048-.78-1.375-1.094l-.031-.031c-.02-.026-.05-.076-.063-.094l-.031-.031v-.032a.94.94 0 010-.062l.031-.031V297.5h-.031v-.031c-.263-.881-.062-15.78 1-25.063a181.418 181.418 0 013-14.875c17.7-7.197 27.707-9.654 41.906-18 .125.024.264.034.375.031h.063c.067-.009.158-.042.219-.062.074-.027.182-.083.25-.125.042-.031.114-.085.156-.125l.062-.063c.042-.047.095-.115.125-.156l.031-.062c.418-.684.507-1.775.657-2.188v-.031l.031-.031.031-.063h.031l.032-.031h.031l5.906-.781v-.031h.031c1.125-.874 29.331-15.115 43-22.25 1.7.359 2.797-1.153 4.657-1.282 0 0 12.022-8.724 15.156-9.281 3.878 2.068 6.734 2.815 10.5 2.781-2.197 2.566-3.938 4.893-4.531 6.469-1.753 6.57-9.875 22.448-1.781 40.281 3.823 7.891 27.691 16.729 40.718 14.844 16.55-2.057 22.543-7.698 32.594-18.781 4.309-4.612 6.202-15.574 6.531-20.063 7.291 7.049 17.733 18.232 18.625 19.125l2.844-.812a1.282 1.282 0 000-.063h.031c.935.297 10.984 5.514 16.188 8.844 9.926 5.956 27.353 16.32 43.719 22.688 1.65 2.817 3.417 2.21 5.25 3.375l1.906-1.594v-.031h.062c1.446.12 26.312 7.501 30.75 8.312.405 7.409.608 14.44.75 20.813-.071 7.975-.32 11.488-.343 17.03-1.368 3.257-1.948 9.395-2.157 13.157 0 0 1.068 12.805-.625 21.688-6.772.08-12.791 1.945-15.156 7.718-1.604 4.594-.921 13.243-.094 19.625l-.156-.219c-16.699 5.416-16.86 14.36-13.25 20.938-8.725 9.909-19.735 59.276-21.094 81.281-.652 16.964 3.619 28.798 1.25 50.938l3.938.312c0-.005 11.098 3.68 11.844 4.188l.03.031 4.094 1.563c-.074-.397-.16-1.513-.25-3.125 4.828.426 14.997 2.755 15.938 3.312l.031.031h.031v.032l4.563-.407c-.001-.352.008-1.137.031-2.25 7.226-.035 14.479-.318 21.094-.656-.042 1.472-.06 2.58-.063 3.219l4.157-.813v-.031l.031-.031.031-.032.063-.062.031-.031c1.038-.8 6.458-2.834 8.969-3-.387 2.026-.644 3.663-.75 4.75l4.968-2.5v-.032l.032-.062.031-.031c.014-.02.041-.066.063-.094l.03-.031c.84-.822 4.542-2.582 5.907-2.657l3.469 1.344c1.51-2.64 10.925-27.69 13.062-42.562 3.086-18.733 5.687-38.136.469-56.719-2.66-9.947-7.4-22.398-10.906-30.938 4.778-4.593 6.212-11.565-3.969-21.156 1.246-4.848 2.13-10.167 1.469-13.969-.887-3.131-9.635-10.019-12.719-12.03.644-20.91 1.102-26.65.875-48.032-.003-4.503 1.741-8.516 1.813-13.313l-.5-4.812c-.067-.3-1.046-5.277-1.032-8.344 19.898 2.23 38.804 1.616 52.969-5.781l8.031-3v-.031h-.031v-.031-.032c.001-.006-.002-.024 0-.031.591-1.862 15.457-22.038 16.5-41.938.59-15.886-4.208-50.678-4.156-51.75l-2.407-5.343c-1.224-.997-31.764-54.933-57.156-75.563-.937-1.425-1.707-1.91-2.343-2-.663-.082-1.212.252-1.688.313h-.031c-.028.006-.092.024-.125.031h-.062c-.038-.008-.098-.024-.126-.031a1.136 1.136 0 01-.25-.125l-4.187-4.625h-.032c-1.431-.65-48.344-27.496-76.718-30.656-.568-.517-1.06-.69-1.5-.657h-.125c-.026.004-.037-.005-.063 0zm-3.062 3.938c.1-.007.215.001.312 0 .847-.012 1.694.041 2.563.156 8.085 7.289 21.547 24.275 27.687 33.375-12.046-3.556-28.313-6.788-48.75-3.125-4.368.789-8.744 2.74-12.969 5.469-8.265-.028-24.942.839-34.406 2.625 10.549-14.139 33.297-35.913 58.844-38.188 2.194.13 4.313-.196 6.438-.281.097-.004.181-.025.28-.031zm6.906.156c27.722 4.838 56.657 19.936 79.563 38.375 2.14 11.278 3.24 29.796 3.25 40.406-10.754-10.684-21.93-22.69-32.438-33.094-6.862-4.808-13.157-7.86-21.844-11.156-5.348-9.134-19.734-25.758-28.531-34.531zM209.094 99.313c.023-.004.04.003.062 0a1.596 1.596 0 01.094 0h.062a.714.714 0 00.063 0h.187c.109-.008.23.001.344 0 .18-.004.366.019.563.03 6.312 3.223 17.279 11.38 22.281 13.22 4.924 2 9.955 7.717 13.531 11.624-16.538-2.53-34.09-4-50.875-3.78-10.018.13-17.265 2.672-27.094 3.624-9.242-6.345-28.576-12.824-39.687-15.062 24.57-5.188 72.96-6.746 73.25-6.75 3.65.21 4.312-2.426 7.219-2.906zm11 .906c24.76 1.71 51.872 8.4 77.156 11.5 4.793 6.775 12.876 21.367 19.25 29.5-19.291-8.236-46.265-13.94-63.125-17.438-1.294-.283-1.93.773-3.219.531-4.37-5.223-9.509-12.267-15.625-14.562-3.555-1.276-10.622-7.043-14.437-9.531zm249.25 5.219h.5c.193-.007.37.001.562 0 10.115-.08 27.178 4.99 28.469 6.093l.031.031.031.032v.031l7.47 2.406a.767.767 0 01.03-.031h.032c.932.01 12.235 4.671 17.687 8.469 11.274 10.316 31.31 32.147 32.25 34.375l.032.062a1.302 1.302 0 010 .063V157l5.25 3.75h.062l.031.031c1.488 1.08 20.54 22.767 28.157 35.594 1.489 7.949.613 22.737-.375 24.781a1.822 1.822 0 01-.094.156 1.959 1.959 0 01-.032.032l-.03.031h-.063l-2.657 6.688h.063v.03l.031.032c.316 1.036-2.24 11.778-5.406 16.719-7.185 10.834-25.235 15.057-27.625 14.5h-.031l-.063-.031a1.856 1.856 0 01-.062-.032l-.032-.031-.03-.031-.032-.031v-.032l-5.375.031v.188l-.031.031v.063l-.032.031-.03.063a3.466 3.466 0 01-.063.062l-.063.031-.031.031-.031.032c-.616.349-2.116.311-3.375.125-1.748-16.18-14.06-50.737-14.469-51.938 0 0-4.281.35-5.375-.656a6.808 6.808 0 01-.063-.063c-18.014-18.87-33.735-40.459-60.75-45.062a369.34 369.34 0 00-8.156-.594c-3.981-2.595-5.97-2.39-6.562-2.219l-.063.032-.031.031a1.743 1.743 0 01-.063.031 1.069 1.069 0 01-.156.094c-1.16.477-6.746.804-7.594 1.219h-.03l-.032.031-.031.031v.125h.031c.103 0 .22-.002.281 0h.031l.032.031v.032h-.031c-1.04.286-10.086 1.224-18.25.406a33.884 33.884 0 002.28-3.469c8.502-9.065 8.501-19.247-5.343-26.25 5.068-6.371 20.555-17.334 22.219-17.937h.093l2-2.594a1.166 1.166 0 01-.03-.031v-.031l.03-.032.032-.031c.448-.534 3.598-2.597 5.969-3.031a85.693 85.693 0 0118.843-2.5h.031l.032-.031zm-348.563 5.28c13.085 4.322 32.49 7.99 43.375 13.688-11.041 1.186-24.36.899-35.5 3.031-12.309 2.175-24.864 5.349-36.25 10.344-12.649-.888-32.632 3.605-45.094 7.875 18.453-15.593 47.066-26.982 73.47-34.937zm437.906 1.376c24.584 20.794 42.066 50.988 55.938 76.281-4.525 8.882-14.964 27.525-22.031 33.5 1.531-8.906 2.265-19.31-.032-27.438-8.036-14.86-19.157-25.931-30.968-37.906.056-9.386-1.32-32.114-2.907-44.437zm-120.062.875c-5.927 4.603-16.033 11.444-20.656 17.656h-.031l-.032.031c-.533.484-3.793 5.251-4.156 6.031l-.031.032v.062a93.093 93.093 0 00-4.594 8.031c-.538.266-1.03.49-1.438.688-2.63.738-12.718 1.613-13.843 1.031h-.031v-.031h-.032v-.031h-.031v-.031l-5.281.218v-.031c.477-.882 3.922-10.863 7.625-17.531a4.75 4.75 0 00.031-.031c.84-.712 1.663-2.865 2.031-3.375v-.032c-.122-.363-1.003-3.406 1.844-7.594 8.097-2.565 38.572-5.09 38.625-5.093zm-134.75 1.969c9.925 3.21 19.962 9.415 28.75 15.124 3.991 2.813 8.03 12.348 10.625 16a84.975 84.975 0 00-3.5 12.97c-3.643-6.622-10.235-11.916-18.406-16.22-9.096-7.81-13.168-19.886-17.469-27.875zm73.656 6h.188a.95.95 0 00.062 0c.126-.007.253 0 .375 0 7.021-.063 15.223 4.18 16.313 5.062l.031.031a1.737 1.737 0 01.063.063v.031a.89.89 0 00-.032 0c-6.142 3.163-21.098 15.49-23.469 26.875-.944 13.832-3.953 28.107-.125 41.594.287.98.626 2.02 1.032 3.094-14.438-9.232-22.847-42.62-24.188-58.625 0-.01 9.274-8.312 16.063-13.657 4.415-3.087 9.13-4.284 13.562-4.437h.094l.031-.031zm-177.875.937h.031a1.415 1.415 0 01.063 0c1.008.073 47.566 5.043 50.094 5.625l.031.031h.031l3.781.188c-.117-.12-.226-.254-.343-.375 16.401 3.254 37.81 5.442 56.375 12.687-3.67 2.284-6.43 8.008-5.625 11.906-13.469 3.068-28.404 6.73-32.5 7.844-5.309 1.519-16.561 3.832-26.75 8.844-.009.004-3.378 3.19-5.5 4.125l-1.469 2.094c-14.623 7.656-28.712 16.221-32.375 20.969-11.991 12.232-26.445 25.03-34.313 39.687h-.03c-1.33.132-17.183.273-37.5.906-1.524-.632-4.733 1.261-6.282 1.094 0 0-43.766-1.688-55-9.625-1.016-.703-4.618-2.092-5.563-2.844a5.672 5.672 0 00.532.031h.031c.008-.004.05-.025.063-.03h.03V225h.032v-.031a1.922 1.922 0 01-.031-.031v-.032l-.031-.031a3.252 3.252 0 01-.032-.031c-1.35-1.353-16.635-9.297-14.312-39.688l3.156-3.125V182v-.063l.031-.062v-.031-.031a5.497 5.497 0 01-.031-.063 1.543 1.543 0 010-.094v-.031l-.031-.063c-.23-.69-1.154-1.515-1.407-2.218l-.03-.063v-.031c-.008-.028-.025-.092-.032-.125a1.604 1.604 0 010-.094v-.062-.031c.006-.022.024-.073.031-.094v-.031c5.365-18.087 36.148-36.328 38.563-37.032h.093l2.97-2.094c-.324-.19-.643-.39-.97-.562 10.517-4.214 21.836-6.978 32.594-8.969 11.886-2.28 37.66-3.72 40.188-2.687.033.015.095.045.125.062l.031.031 2.313-1.25v-.03-.032l.03-.031.032-.031.063-.032c2.18-1.03 27.137-4.08 28.843-4.281zm149.531 1.781c.016-.003.046.002.063 0 .068-.007.151.001.219 0 2.748-.04 5.504.33 8.031 1.125l-13.719 11.156c-.103.806-.105 1.934 0 3.344-2.021-4.01-5.299-7.598-9.531-10.844 2.92-2.512 8.155-4.377 13.625-4.75h.063a1.497 1.497 0 00.093 0h.219c.04.002.08.003.125 0 .09-.004.191.004.281 0 .138-.005.268.004.406 0 .017 0 .048.003.063 0 .023-.004.04-.026.063-.03zm41.532 9.688a137.198 137.198 0 00-7.406 18.094c-3.115.578-5.969.988-8.188 1.093 2.128-7.97 9.672-14.516 15.594-19.187zm27.562 2.469c12.245.074 8.148 13.815 6.75 18-3.73 6.124-16.022 15.502-22 19.28-3.854 2.928-17.687 7.378-26.125 10.063-.01.003-.022-.003-.031 0-.1.001-.184-.003-.281 0-.092.003-.192-.004-.281 0 4.13-6.492 14.989-23.734 17.937-33.375 7.341-1.297 13.14.108 16.219-.75 4.818-2.142 8.422-7.646 7.812-13.219zm-4.094 3.78c-.211 1.624-1.293 2.843-2.593 3.782.804-1.189 1.658-2.461 2.594-3.781zm-331.25.97c.097-.006.186.005.282 0 .097-.006.185.004.281 0 .097-.005.185.003.281 0 .097-.004.185.003.281 0 .848-.029 4.662.315 5.47.343-15.593 8.069-35.092 27.608-36.75 41.031-7.87 4.629-21.224 17.05-29.22 26.594-9.907-16.588 4.1-43.14 18.97-57.937 10.953-3.089 28.132-9.282 40.406-10.031zm230.344.937c1.611.703 6.484 4.035 7.375 4.875l2-.063a67.55 67.55 0 012.156 1.344c-3.626.552-9.926 1.833-16.968 3.406.722-2.491 2.372-6.969 5.437-9.562zm13.125 7.25c4.448 3.107 8.493 6.752 11.938 11.094-2.345.58-4.5 1.578-6.469 2.812-8.708 1.823-25.52 5.197-39.406 8.375-8.055-2.405-32.03-2.47-45.375-1.031 7.239-3.364 22.082-7.037 26.031-8.125 6.876-1.898 43.138-10.176 53.281-13.125zm64.094 1.938h.125c-3.185 7.984-13.512 23.469-16.781 29.187-.46-7.906.21-15.942.812-23.813 3.106-.847 10.577-4.385 15.844-5.375zm-44.781.343c4.159 18.43 15.42 46.177 32.437 52.438 3.622 6.866 5.734 14.938 11.125 18.531-7.59-.633-18.215-1.4-30.625-8.563-12.094-7.332-17.498-36.392-16.656-46.062.23-3.892 1.297-9.823 3.719-16.344zm-6.5 10.938h.031a61.46 61.46 0 00-.563 5.156c-1.234 4.545.388 15.37 2.157 23.531.002.01-.002.021 0 .031-1.765 2.228-7.192 7.542-11.75 12.563-4.348-.129-10.361-1.012-13.781-2.406l-.063-.031c-.002-.004 1.712-12.453 3.25-16.094 3.615-5.071 11.8-21.11 20.719-22.75zm104.281.344c.117-.005.225.004.344 0 .12-.005.253.003.375 0 .25-.008.492.004.75 0a62.754 62.754 0 015.687.187c10.36 6.301 26.833 23.462 33.5 31.969-5.385-2.861-13.458-7.491-20.375-8.469-12.772-1.397-24.118-.849-36.062-2.469-.003 0-9.164-11.032-13.469-13.312 2.503-1.922 4.854-4.027 6.938-6.375 10.2.448 14.945-1.217 22.312-1.531zm16.781 2.28c.022-.002.041.002.063 0 .085-.006.168.002.25 0 1.575-.028 3.53.05 5.281.75 25.603 4.753 42.284 27 59.375 45 .873 1.037 1.363 3.404 2.156 4.47-.169 10.693-2.6 29.886-8.156 43.218-4.126-24.666-12.53-48.495-30.219-61.812-5.583-8.35-19.286-22.945-30.719-31.563.427.03 1.06-.011 1.782-.031.057-.002.123-.022.187-.031zm-131.875.626c-4.642 4.015-8.086 9.344-10.687 13.687-3.705-2.181-6.869-5.995-7.125-9.437 6.509-1.455 12.744-2.879 17.812-4.25zm-20.594 4.875c.47 4.313 3.972 7.15 6.657 10.625-10.817 5.606-21.792 11.345-32.844 16.312-3.129 1.473-6.102 2.9-8.969 4.281-1.39.017-2.823.13-4.312.375 0 0-31.699 17.08-52.188 23 1.45-2.626 6.614-7.923 7.906-8.437l.063-.031h.031l.313-4.031c-.084.014-.167.047-.25.062 12.056-15.968 28.792-28.023 51.344-34.375 3.954-1.232 16.321-3.168 17.625-3.031.005.005.026.025.03.031h.032l3.188-2.156a1.737 1.737 0 01-.032-.031l-.031-.032a1.674 1.674 0 00-.031-.031c3.767-.848 7.643-1.682 11.469-2.531zm-41.406 1.312c.006-.003.026.003.031 0h.157a2.65 2.65 0 00.094 0h.374c.24-.006.474.002.72 0 7.355-.048 17.323.53 21.937 1.281-4.48 1.093-12.588 2.121-15.313 3-23.798 6.947-41.22 20.027-53.625 37.25-15.393 3.405-38.263 17.47-47.844 23.313 6.684-11.584 24.378-28.513 34.344-38.781 3.876-4.886 18.485-15.477 35-23.813.02-.01 17.281-2.09 24.063-2.219h.031c.005-.002.025-.027.031-.03zm145.313.625c2.41 1.857 10.307 6.179 12.594 12.438-5.436-2.948-15.36-5.43-21.563-6.906 2.28-1.133 4.094-2.167 5.156-2.97a96.384 96.384 0 003.813-2.562zm-10.531 6.25a188.536 188.536 0 0014.468 3.625l-.281.031c-.164 8.305-8.042 12.315-15.156 14.282-2.568-5.835-8.367-9.522-14.031-11.438 5.077-2.082 10.653-4.422 15-6.5zm-85.25 3.656a53.848 53.848 0 01-1.72 2.75c-2.163 5.393-2.382 10.953-.156 16.032-3.453.109-6.514 4.994-14.406 9.187-5.137-1.399-14.283-6.9-21.5-8.156 1.793-.857 3.632-1.728 5.531-2.625 11.769-5.404 21.009-11.449 32.25-17.188zm101.593 1.22c1.561.307 3.7.916 4.375 2 .122.203.18.448.188.687l5.875.562v-.031l.031-.031c.02-.009.07-.025.094-.031 1.94-.628 23.814.44 37.156 2 7.5 1.171 19.148 9.817 19.969 11.187h.031v.094l7.25 3.125c6.827 4.855 20.422 32.432 24.031 54.094-16.25-3.354-43.788-16.718-45.312-17.938a1.72 1.72 0 01-.031-.031h-.032s-3.614.282-4.687-.313c-9.743-5.745-31.026-17.815-51.625-29l-7.563-5.344v.032h-.031l-.031.031h-.031c-.528.013-2.872-.52-5.594-1.344a16.8 16.8 0 00-.469-4.125c6.571-1.78 14.074-5.743 16.406-15.625zm-35.906 3.5c.011.002.02-.004.031 0 6.037 1.614 12.112 5.972 15.375 10.312-.292.06 1.136 2.487 1.531 2.406.488.982.781 1.95.875 2.844-1.86-.632-3.728-1.364-5.187-2.125.712-.095-15.796-7.98-18.875-9.219-.124-.53-.267-1.06-.375-1.594a735.437 735.437 0 006.625-2.625zm-331.125.25c-3.586 17.388 2.357 30.515 15.906 41.187 2.138 5.758 5.048 12.475 7.625 15.75 3.28 4.305 14.067 14.436 18.438 23.656-30.114-5.689-58.067-18.118-65.094-33.875-2.269-7.052-3.783-13.741-4.594-20.094 6.582-9.412 18.539-20.175 27.719-26.625zm565.25 5.624c4.37 14.207 5.383 34.116 4.719 48.844-1.272 21.003-10.12 34.45-20.282 42.313-16.427-2.449-39.617-10.83-46.812-21.407 12.214 1.066 21.169-6.586 29.844-14.656 4.076-6.46 5.351-13.302 7.281-21.375 7.474-5.667 19.835-25.04 25.25-33.719zm-239.125 2.094c5.892 2.427 19.347 7.047 34.406 15.125 1.715 6.936 5.913 25.066 7.313 32.531-6.033-4.159-14.955-13.936-20.469-18.062 0 0-2.59-2.356-4.063-3.094h-.03l-.032-.031c-2.442-1.887-4.734-3.69-6.781-5.406-.024-.026-.07-.069-.094-.094-2.418-2.775-2.984-5.676-4.625-9.094-.349-1.546-5.147-10.394-5.625-11.875zm-34.781.313c.759 2.997 1.447 5.176 1.844 5.75.005.007.025.024.03.03.013.016.047.048.063.063l.031.031h.063c.303.816.636 1.625.969 2.407-7.812 6.25-17.329 20.967-15.188 36.687 1.073 5.51 11.822 15.06 20.594 16.438 8.54 1.21 25.58-3.759 29.875-6.781 4.87-8.142 8.25-16.8 10.156-26.063.715.05 1.405.102 2.063.156 1.23.497 2.443.775 3.656.813.702.593 1.51 1.321 2.406 2.156-.766 10.542-6.192 19.713-13.031 26.531-4.276 2.69-6.926 9.408-24.125 11.813-8.963.628-32.626-4.397-38.125-13.594-4.884-11.033-4.707-25.982 2.906-38.125 1.632-4.38 9.576-13.343 15.813-18.313zm-70.563 8.5c6.115.365 18.13 5.377 24.219 7.78-13.878 7.62-30.474 17.189-44.813 23.095-8.285-1.74-25.815-4.706-32.062-7.97 21.557-6.2 33.088-13.513 52.656-22.905zm74.688 2.25c2.483 5.014 5.668 8.973 9.719 10.718 9.726 5.353 22.748 6.29 32.25 6.938-.422 4.058-3.512 11.065-4.97 13.125-.216 2.264-5.01 8.15-7.187 11.219v.03c-3.015 1.845-18.94 6.634-25.094 6.126-7.992-1.668-17.675-10.49-18.437-14.5-1.508-16.123 7.382-28.716 13.719-33.656zm69.125 6.375c19.338 10.433 51.762 29.553 53.812 30.593 1.955 6.889 9.365 24.417 13.156 32.438-14.424-5.665-31.578-15.775-40.53-21.063-5.608-3.531-13.117-8.413-21.032-13.781-1.17-6.685-2.94-19.99-5.406-28.188zm-194.625 2.656c-7.26 11.285-15.416 26.985-19.125 40.906h-.031v.125c-1.629 6.13-2.934 12.469-3.97 18.969-1.191 10.285-.223 17.689-.03 25.844-7.434 10.56-16.662 39.571-20.282 51.718-.72-3.326-3.33-13.886-4.375-17.75-6.67-37.044-8.893-81.612-1.312-94.062 9.18-5.635 35.993-22.079 49.125-25.75zm310.187.031c6.342 19.128 13.648 57.964 13.282 87.688-5.014 3.686-16.216 13.823-21.72 22.812.11-4.162 1.137-10.504 1.157-16.156-.355-13.198-1.648-27.222-3.813-42.906 5.673-10.031 10.26-37.778 11.094-51.438zM214.72 227.438h.031c1.195.275 21.232 7.77 29.625 9.468-12.4 7.33-24.504 10.92-39.938 17.406 2.572-9.557 5.984-18.56 10.282-26.875zm-144.156 3.718c13.217 2.581 34.774 10.213 58.437 8.688 7.813 5.93 21.843 23.785 24.938 28.187-15.918 3.92-37.047 3.616-57.563.156-5.178-12.024-16.637-22.317-20.281-27.218-1.647-2.128-3.743-6.119-5.531-9.813zm98.78 6.75c-1.378 1.558-1.674 2.836-1.312 3.531l.031.063c.017.026.044.07.063.094l.031.031.031.031.032.031.031.032c.041.035.11.096.156.125l.063.031.031.031v.063c.157 1.439-3.377 17.173-4.313 22.594a54.046 54.046 0 01-6.218 2.343c-3.625-6.013-14.374-21.08-23.094-27.781 10.616-.93 24.534.733 34.469-1.219zm303.188 4.406h.063c13.718 6.517 27.645 15.294 44.562 18.657a1.807 1.807 0 000 .062l.032.031v.032l-.032.031v.031c-.136.458-.757 1.309-1.875 2.625l1.907 4.719h.03l.032.031.031.063c.462 1.288 1.983 11.293 2.313 16.562-5.124-1.102-18.1-2.736-33.438-8.594-3.205-6.876-15.347-32.244-13.656-34.187l.031-.031v-.031zm72.063 18.875c2.043.296 3.994.562 5.875.782 6.752 10.028 28.03 19.792 43.218 23.562-13.374 6.054-30.388 6.698-47.906 4.469.007-9.527-.225-19.255-1.187-28.813zm-346.625 43.094c2.18 15.427 3.345 36.11 9.094 57.469-8.385 2.652-16.64 7.79-21.157 9.469-2.484-6.255-3.959-11.653-5.187-17.031-.33-10.165 8.04-37.85 17.25-49.907zm346.219 1.781c-.04 2.238-1.039 6.114-1.032 8.313.287 21.133 1.36 30.695.438 51.25-2.99-.414-14.573-4.356-24.875-4.563 2.589-13.708 1.77-20.208 2.281-29.75 4.463-9.641 17.66-20.682 23.188-25.25zm-25.282 56.563c.027-.003.068.002.094 0 .106-.007.211 0 .313 0 8.437-.022 18.135 3.626 22.437 4.25 1.956 4.241 10.837 8.616 12.094 13.156 1.168 6.37-3.586 22.238-4.938 26-4.18.142-11.965-1.474-16.406-1.437-6.253-1.795-15.388-3.643-21.875-4.219-2.024-.16-4.346-.488-5.875-1.563-.297-2.707-.948-22.268 1.031-28.53 2.09-5.141 6.445-7.22 11.5-7.626h.5c.084-.005.166.004.25 0 .085-.004.165.004.25 0 .132-.005.274.003.407 0 .075-.002.139-.022.218-.031zm-305.562.188h.062a1.007 1.007 0 00.063 0h.156a1.162 1.162 0 01.063 0c2.848-.044 5.774.487 8.718 1.78 5.363 5.67 6.65 16.23 6.813 23.563.164 2.202 2.62 13.517 3.031 18.063-4.603 3.665-14.528 5.766-20.375 5.469-3.752.348-10.211 1.175-13.25-.407-.478-.476-.96-.963-1.469-1.469l-.031-.03c0-.004-16.544-17.076-17.594-26.063 3.288-15.761 30.353-20.4 33.813-20.906zm19.062 28.125c22.423 5.225 14.366 19 14.344 22.468-1.395 4.111-19.566 15.033-26.188 15.094-7.83-.007-17.733 1.016-23-5.688-1.881-3.704-4.477-8.7-4.406-12.968 3.696 7.393 9.043 5.656 16.813 4.875 7.428-1.294 45.68-1.658 23.75-18.156-.473-2.006-.953-3.99-1.313-5.625zm270.188.593c.016.106.015.21.031.313-10.811 7.964 1.216 10.235 7.688 10.812 6.359.562 12.33 2.38 18.468 4.125 6.263 1.32 34.991 4.294 24.969-6.812a94.199 94.199 0 001.688-5.375c14.44 17.955-6.593 23.45-11.563 23.625-7.93.632-37.429 1.474-42.281-2.406-8.013-4.226-20.758-19.24 1-24.282zm-248.719 15c9.133 11.629 19.523 22.391 29.125 33.969 14.864 22.91 37.951 53.803 42.406 81.906-3.118 2.303-7.822 8.543-15.5 12.625-5.433-11.146-17.903-34.603-20.375-40.75-4.185-10.094-23.748-46.517-30.219-53.969l-.218.188c6.404 6.814 23.07 45.07 27.156 55.031 2.388 5.932 13.309 26.553 19.188 38.438-6.523 3.398-11.322 9.507-19.063 13.125-4.797-8.225-15.773-24.777-18.75-29.407-3.557-5.507-9.34-15.736-10.719-20.875l-1.375.407c1.914 7.733 5.059 15.134 9.375 21.812 2.75 4.367 11.952 19.388 17.281 28.094-6.147 2.842-12.186 5.318-18.25 7.844-6.808-9.64-19.415-27.728-22.03-32.657-4.427-7.486-17.646-36.025-18.22-37.468l-.156.375c1.205 4.862 11.642 31.118 16.25 38.969 2.531 4.793 15.884 24.433 22.781 34.437-5.615 2.287-13.69.85-18.562 2.5-5.12-8.26-15.5-24.195-16.406-26.844v.219c.549 7.466 9.697 22.734 13.875 30.313-2.566.781-7.627.596-9.75 1.062-22.185-38.12-39.899-71.08-41.344-110.625.32-10.332 3.177-21.017 5.188-31.125.06.112.124.232.187.344 6.35 8.303 12.55 8.93 22.219 8.937 7.969-.04 33.369-13.904 34.625-19.844.026-1.539 1.032-4.104 1.281-7.03zm236.063 4.5c1.824 2.602 4.105 4.656 5.843 5.688 5.789 5.501 40.508 4.985 48.438 4.219 2.946-.229 9.327-1.992 13.937-5.47 3.666 10.45 7.948 20.951 10.719 31.688 4.715 17.915 1.211 36.592-1.906 54.594-1.626 11.365-9.135 29.607-12.719 37.375-1.42.085-4.147 3.188-6.438 3.375 2.312-13.675 8.661-45.25 10-54 1.478-9.71.987-19.49 1.157-29.281l-1.375.406c.217 9.531-2.51 26.76-3.75 36.219-1.28 7.994-6.893 30.781-9.657 44.062-2.956.243-6.273 2.925-9.875 3.188-.084-11.252-.325-35.797-.78-43.219-1.12-11.344-3.615-22.46-5.563-33.656l-.563.406c2.154 11.327 2.632 22.176 3.719 33.688.381 7.204-.102 29.943-.469 41.468-6.64.447-14.215.011-21.437.157.219-9.528.714-28.605.625-35.282-.192-6.442-.792-15.34-1.875-20.437h-2.188c1.357 6.74.98 14.098 1.188 20.969.083 6.566-1.374 27.079-2.063 36.687-5.761.033-11.389-1.981-16.5-2.406-.424-9.748-.817-28.326-.5-34.532.185-10.106-1.99-40.527.406-50.312l-1.78-.406c-2.24 11.382-1.731 39.705-1.907 49.812-.25 6.616-.328 27.447-.125 36.625-4.466-.536-8.417-2.93-11.531-4.062.685-19.42-2.416-34.203-1.781-50.063 1.336-20.864 9.72-60.675 18.75-77.5z"/>
</svg>
