<svg xmlns="http://www.w3.org/2000/svg" xmlns:xlink="http://www.w3.org/1999/xlink" width="640" height="640" version="1.0"><defs><linearGradient xlink:href="#b" id="j" x1="202" y1="488" x2="274" y2="430" gradientUnits="userSpaceOnUse"/><linearGradient id="e"><stop offset="0" stop-color="#fff"/><stop offset="1" stop-color="#fff" stop-opacity="0"/></linearGradient><linearGradient id="b"><stop offset="0" stop-color="#7d1304"/><stop offset="1" stop-color="#cc0606"/></linearGradient><linearGradient id="a"><stop offset="0" stop-color="#e6e6e6"/><stop offset="1" stop-color="#fff"/></linearGradient><linearGradient xlink:href="#a" id="I" x1="44" y1="242" x2="57.641" y2="207" gradientUnits="userSpaceOnUse"/><linearGradient xlink:href="#a" id="o" x1="55" y1="145.649" x2="139" y2="117" gradientUnits="userSpaceOnUse"/><linearGradient xlink:href="#a" id="n" x1="240.109" y1="120.711" x2="303.516" y2="111.711" gradientUnits="userSpaceOnUse"/><linearGradient xlink:href="#a" id="P" x1="143.875" y1="266.906" x2="252.375" y2="218.172" gradientUnits="userSpaceOnUse"/><linearGradient xlink:href="#a" id="A" x1="172.953" y1="210" x2="254" y2="187" gradientUnits="userSpaceOnUse"/><linearGradient xlink:href="#a" id="H" x1="269.172" y1="202.914" x2="323.953" y2="188.914" gradientUnits="userSpaceOnUse"/><linearGradient xlink:href="#a" id="s" x1="332.672" y1="140" x2="373" y2="108.28" gradientUnits="userSpaceOnUse"/><linearGradient xlink:href="#a" id="F" x1="347.797" y1="159.303" x2="380.578" y2="147.303" gradientUnits="userSpaceOnUse"/><linearGradient xlink:href="#a" id="p" x1="388.453" y1="129.839" x2="438.617" y2="112.965" gradientUnits="userSpaceOnUse"/><linearGradient xlink:href="#a" id="t" x1="375.141" y1="142.93" x2="396.734" y2="142.93" gradientUnits="userSpaceOnUse"/><linearGradient xlink:href="#a" id="u" x1="387.172" y1="177.602" x2="426.839" y2="135.805" gradientUnits="userSpaceOnUse"/><linearGradient xlink:href="#a" id="C" x1="375.016" y1="188.149" x2="415.672" y2="178.274" gradientUnits="userSpaceOnUse"/><linearGradient xlink:href="#a" id="y" x1="414.266" y1="178.38" x2="458.172" y2="154.38" gradientUnits="userSpaceOnUse"/><linearGradient xlink:href="#a" id="l" x1="494.119" y1="114.649" x2="558.923" y2="97.649" gradientUnits="userSpaceOnUse"/><linearGradient xlink:href="#a" id="O" x1="420.109" y1="258.584" x2="468.066" y2="228.584" gradientUnits="userSpaceOnUse"/><linearGradient xlink:href="#a" id="K" x1="553.391" y1="259.097" x2="628.67" y2="228.097" gradientUnits="userSpaceOnUse"/><linearGradient xlink:href="#a" id="N" x1="512.578" y1="300.992" x2="550.966" y2="255.992" gradientUnits="userSpaceOnUse"/><linearGradient xlink:href="#a" id="W" x1="490.543" y1="405.139" x2="569.438" y2="405.139" gradientUnits="userSpaceOnUse"/><linearGradient xlink:href="#a" id="U" gradientUnits="userSpaceOnUse" x1="483.421" y1="453.25" x2="622.042" y2="432.336"/><linearGradient xlink:href="#a" id="S" x1="180.725" y1="357.742" x2="213.078" y2="332.742" gradientUnits="userSpaceOnUse"/><linearGradient id="c"><stop offset="0" stop-color="#828282"/><stop offset="1" stop-color="#d2d2d2"/></linearGradient><linearGradient xlink:href="#b" id="V" x1="200.17" y1="419.737" x2="237.192" y2="409.737" gradientUnits="userSpaceOnUse"/><linearGradient xlink:href="#b" id="M" x1="166.59" y1="283.492" x2="207.484" y2="266.492" gradientUnits="userSpaceOnUse"/><linearGradient xlink:href="#b" id="Q" x1="90.578" y1="270.869" x2="135.953" y2="241.009" gradientUnits="userSpaceOnUse"/><linearGradient xlink:href="#b" id="v" x1="20.256" y1="174.538" x2="70.547" y2="160.538" gradientUnits="userSpaceOnUse"/><linearGradient xlink:href="#b" id="m" x1="136.641" y1="124.18" x2="232.297" y2="111.741" gradientUnits="userSpaceOnUse"/><linearGradient xlink:href="#b" id="L" x1="218.641" y1="218.867" x2="286.516" y2="213.867" gradientUnits="userSpaceOnUse"/><linearGradient xlink:href="#b" id="w" x1="247.109" y1="159.883" x2="338.359" y2="159.883" gradientUnits="userSpaceOnUse"/><linearGradient xlink:href="#b" id="q" x1="303.891" y1="136.977" x2="343.266" y2="136.977" gradientUnits="userSpaceOnUse"/><linearGradient xlink:href="#b" id="G" x1="341.93" y1="186.508" x2="373.297" y2="186.508" gradientUnits="userSpaceOnUse"/><linearGradient xlink:href="#b" id="x" x1="315.25" y1="187.974" x2="385.625" y2="159.974" gradientUnits="userSpaceOnUse"/><linearGradient xlink:href="#b" id="J" x1="376.641" y1="218.775" x2="410.345" y2="209.775" gradientUnits="userSpaceOnUse"/><linearGradient xlink:href="#b" id="B" x1="402.766" y1="178.242" x2="424.328" y2="178.242" gradientUnits="userSpaceOnUse"/><linearGradient xlink:href="#b" id="R" x1="472.328" y1="266.744" x2="580.688" y2="272.744" gradientUnits="userSpaceOnUse"/><linearGradient xlink:href="#b" id="r" x1="558.675" y1="166.969" x2="598.634" y2="144.969" gradientUnits="userSpaceOnUse"/><linearGradient xlink:href="#b" id="k" x1="413.655" y1="113.584" x2="481.79" y2="80.35" gradientUnits="userSpaceOnUse"/><linearGradient xlink:href="#b" id="z" x1="458.297" y1="211.312" x2="527.422" y2="211.312" gradientUnits="userSpaceOnUse"/><linearGradient xlink:href="#b" id="T" x1="518.734" y1="335.836" x2="544.203" y2="335.836" gradientUnits="userSpaceOnUse"/><linearGradient xlink:href="#c" id="E" x1="319.431" y1="248" x2="385" y2="214.006" gradientUnits="userSpaceOnUse"/><linearGradient xlink:href="#c" id="i" x1="209.472" y1="425.9" x2="485.962" y2="408.9" gradientUnits="userSpaceOnUse"/><linearGradient xlink:href="#c" id="D" gradientUnits="userSpaceOnUse" x1="410.767" y1="242.168" x2="365.097" y2="265.681"/><linearGradient id="d"><stop offset="0" stop-color="#8f8f8f"/><stop offset="1" stop-color="#d3d3d3"/></linearGradient><linearGradient xlink:href="#d" id="f" gradientUnits="userSpaceOnUse" x1="390.469" y1="277.997" x2="258.335" y2="410"/><linearGradient xlink:href="#d" id="g" gradientUnits="userSpaceOnUse" x1="281" y1="385.772" x2="392" y2="284.982"/><linearGradient xlink:href="#e" id="h" gradientUnits="userSpaceOnUse" x1="357.773" y1="168.96" x2="626.821" y2="296.582" gradientTransform="rotate(35.482 494.473 -204.53) scale(1.30339)"/></defs><metadata/><g opacity=".58"><path d="M383.511 274.808c-46.514.567-90.296 32.25-105.728 75.947-16.271 43.09-3.587 95.013 30.962 125.435 34.196 32.087 88.831 39.313 130.453 17.381 38.85-19.468 64.676-62.315 62.994-106.06-.566-46.514-32.25-90.296-75.947-105.728-13.658-4.996-28.153-7.347-42.734-6.975z" opacity=".2"/><path d="M383.511 273.923c-44.35.636-86.208 28.975-103.688 69.413-18.28 40.218-10.787 90.544 18.515 123.443 26.91 31.848 72.068 47.055 113.072 37.642 45.658-9.401 83.005-48.609 90.118-94.731 7.45-41.965-10.548-86.762-44.463-112.02-20.774-15.95-47.22-24.502-73.554-23.747z" opacity=".2"/><path d="M504 390.5c0 64.86-52.64 117.5-117.5 117.5S269 455.36 269 390.5 321.64 273 386.5 273 504 325.64 504 390.5z" opacity=".2"/><path d="M383.437 272.151c-44.876.593-87.465 29.394-105.233 70.449-18.552 40.813-11 91.87 18.806 125.36 27.77 32.828 74.402 48.061 116.245 37.863 46.216-10.101 83.634-50.473 90.265-97.277 7.037-42.748-11.838-88.18-46.92-113.407-20.882-15.566-47.094-23.728-73.163-22.988z" opacity=".2"/><path d="M383.437 271.266c-48.908.555-94.816 34.627-109.972 81.002-15.29 43.864-1.926 95.771 32.881 126.542 34.929 32.663 90.28 40.399 132.915 18.667 42.445-20.37 69.89-67.587 66.29-114.653-2.527-49.225-38.884-94.213-86.428-107.056-11.565-3.29-23.648-4.835-35.686-4.502z" opacity=".2"/></g><path d="M468.5 77.844c-26.088 3.035-47.663 21.295-62.156 42.25-5.022.37-1.53 6.536-4.469 9.25-1.488 4.612-5.457-1.481-8.531-1.875-9.744-4.807-21.507-3.028-30.188 3.062-4.915-5.357-13.727-2.966-19.781-1.125-2.708.907-4.925 2.702-6.656 4.938-10.72-7.455-22.95-12.125-34.281-18.469-9.938 1.23-20.568-3.003-30.758-3.984-16.888-3.18-34.2-5.36-50.993-7.922-8.226-2.755-16.085 3.334-24.562 2.031-24.264.17-48.085 3.398-71.676 8.644-10.53 1.139-19.57 7.64-29.406 11.302-16.544 7.626-33.348 15.661-47.48 26.992-5.985.576-7.007 8.029-10.313 12.062-7.916 14.99-16.75 31.835-13.094 49.313 2.967 3.32-2.7 5.654.026 8.96 3.694 8.63 5.393 18.812 13.88 24.32 16.416 12.154 35.539 21.529 55.688 25.72 19.861.647 39.954.882 59.871-.085 4.795-.161 9.349-.548 13.285-3.228 5.817-3.34 2.383 3.9 2.813 7.219.213 26.988 6.88 53.308 12.187 79.625 6.543 5.054 5.851 14.277 9.813 21.125-5.333 2.919-9.56 9.717-6.281 15.531 2.095 7.417 9.415 11.853 13.218 17.813.143 7.184 2.984 13.989-.04 20.973-3.654 13.855-7.252 28.093-4.04 42.392 4.953 34.657 23.504 65.67 40.361 95.51 4.055-.841 8.615.255 12.375-1.438-2.903-3.283 3.827-2.587 5.938-3.438 4.991-.7 10.037-1.146 15.094-1.062-5.818-4.48 2.254-4.95 5.598-6.975 4.554-2.029 9.033-4.228 13.527-6.4 1.052 3.94 3.827 3.112 6 .375 6.08-4.739 12.07-9.548 18.75-13.438.747 5.702 3.274.383 5.498-1.007 3.973-4.063 9.688-7.52 12.783-11.742-12.07-39.216-37.06-73.035-63.61-103.772-4.043-5.553-10.936-9.235-12.421-16.01-4.424-6.626-13.255-7.819-20.469-9.469-1.853-8.937 1.073-20.364-6.75-27.062-5.155-2.376-11.01-1.987-16.469-1.188-5.972-18.274-7.88-37.596-8.281-56.656-2.982-3.372-.7-9.01-1.469-13.406-.045-12.74 1.058-25.504 4.469-37.813 14.455-6.25 30.533-10.225 43.437-19.062.828-4.657 7.131-1.648 9.978-4.406 13.938-7.03 27.82-14.816 41.897-21.156 7.25-2.026 12.345-9.108 19.938-10.688 4.642 3.032 10.203 3.223 15.594 2.906-5.808 5.21-9.138 12.097-10.781 19.469-2.794 10.038-3.47 22.243 3.03 30.969 8.204 6.737 18.825 9.777 29.22 11.312-.98 4.545-.007 7.286 5.093 6.188 7.258 2.747-.094-7.194 5.219-6.969 7.69-1.51 15.674-4.678 22.031-8.781 4.243.446 2.477 7.26 3.5 10.75-.829 6.126 4.653 4.83 9.03 5.016 1.052-7.655-3.29-16.522-6.248-23.985 3.859-7.268 5.71-15.862 5.875-24.25 7.224 6.83 14.288 14.358 21.062 21.281 7.116-.021 12.799 5.715 19.031 8.594 14.496 8.765 29.273 17.267 45.094 23.406.285 1.315 3.163 3.51 2.969 1.281 10.435.626 20.327 5.6 30.531 7.56 6.593-.375 5.416 5.722 5.633 10.627.308 12.987 1.285 26.293-1.695 38.907-.834 9.581.921 19.375-1.438 28.844-6.38-.561-15.74 1.667-15.563 9.656-.617 8.211 1.006 16.27 1.782 24.406-2.349-3.789-4.792-8.242-9.156-4.406-5.84 2.221-9.461 9.351-5.563 14.844.93 3.14-3.587 5.911-4.219 9.469-9.178 23.877-14.474 49.179-16.687 74.594-.096 15.677 3.394 31.278 1.531 46.968 4.978.723 9.657 2.947 14.375 4.657-1.093-4.19 4.934-1.043 7.406-1.22 4.483.406 8.803 2.563 13.25 2.5.045-5.01 8.645-1.355 12.53-2.632 4.056 1.04 12.782-2.915 13.572 1.414.703 1.601 4.283-1.816 6.304-1.719 2.952-.725 9.324-2.988 7 1.781 2.793-1.872 6.452-4.423 9.844-2.718 10.486-25.834 16.576-53.783 14.907-81.813-1.61-15.942-8.097-30.989-13.907-45.812 5.215-3.381 5.081-10.626.907-14.782-2.901-2.984-6.044-5.58-3.532-9.968.769-4.375 2.19-9.864-2.312-12.657-2.77-3.552-8.392-5.402-9.844-9.218.853-17.203.725-34.48 1.188-51.657 3.047-8.397-.252-16.947-.032-25.53 19.268 2.302 39.775 2.708 57.405-6.425 6.716-1.088 7.865-9.071 11.283-13.888 7.247-12.78 10.36-27.545 8.375-42.25-1.11-12.569-1.93-25.259-4.131-37.599-10.728-19.6-23.512-38.256-37.025-55.995-6.76-8.547-14.527-17.41-22.72-23.938-4.99.982-6.416-6.583-11.285-7.241-23.048-11.843-47.298-24.713-72.933-28.227-2.414 2.208-5.079-.753-7.75-.25zm4.844 29.094c16.309.207 31.804 6.23 46.687 12.218 13.442 5.502 21.87 18.188 31.995 28.057 5.567 5.317 9.397 12.453 16.036 16.256 10.259 11.483 20.659 23.23 28.344 36.5.947 8.822 1.842 18.4-.937 26.906-3.904 9.378-3.787 21.236-12.263 28.244-7.311 6.08-16.608 10.407-26.081 10.725-3.464-1.023-8.745 2.563-11.02-.775-2.423-17.395-8.33-33.999-13.886-50.6-7.473.463-10.349-8.51-15.469-12.375-14.685-16.405-32.766-33.959-56.369-34.006-3.271-.835-6.247-3.536-9.85-1.65-6.151 1.705-14.137 2.027-21.404 1.596-6.264.596-7.219-1.34-2.815-5.753 4.215-4.863 9.41-12.555 4.344-18.531-2.622-3.412-6.623-5.367-10.375-7.281 6.742-9.303 17.093-15.06 25.625-22.156 5.354-6.246 14.877-5.953 22.5-7.126 1.651-.071 3.322-.2 4.938-.25zm-269.688 16.437a2149.074 2149.074 0 0147.813 5.281c-.743-2.34 8.987 1.276 12.656 1.406 18.685 3.137 37.562 6.009 55.156 13.375-5.49 2.269-10.469 8.186-8.344 14.407-20.393 5.245-41.378 8.476-60.687 16.875-5.102 4.326-9.9 8.388-16.125 11.172-11.068 5.829-21.47 12.899-29.59 22.45-10.31 10.29-21.067 20.611-27.879 33.659-13.777.475-27.805.158-41.437 1.188-8.035 2.127-16.664-.587-24.863-.753-15.086-1.573-30.947-3.809-43.424-13.114-6.363-3.556-1.039-2.286-5.266-6.696-6.844-10.015-8.007-22.743-7.01-34.594 3.75-1.582 1.43-3.45 1.594-6.125 6.962-17.082 23.177-28.414 38.469-37.625-1.635-2.007 3.047-3.225 6.785-4.62 22.515-8.103 46.706-11.516 70.59-10.786 7.872-3.845 17.406-2.974 25.905-4.819 1.885-.226 3.773-.473 5.657-.681zm110.625 50.344c.77 4.881 5.577 7.758 7.969 11.844-14.99 7.846-30.061 15.58-45.531 22.25-7.92.671-14.28 6.842-21.719 9.406-12.969 6.29-26.262 11.841-40.25 15.75 2.552-4.938 5.69-9.614 9.906-13.25-5.817 1.747 3.575-6.539 5.125-9.438 16.477-19.581 41.238-31.692 66.75-33.937-.514-3.144 10.636-2.862 14.75-4.688 2.708-.903 2.788-.827 3 2.063zm107.75 11c4.147.722 7.081 4.293 11.594 2.937 13.127.356 26.656.378 39.438 3.063 6.287 2.323 12.167 5.927 17.218 10.281 2.927 1.697 8.506 3.08 11.031 7.031 11.796 16.492 18.975 36.13 22.344 56.031-17.469-3.378-33.73-11.331-49.687-18.656-7.646.213-13.137-6.874-19.938-9.469-14.816-8.588-30.34-16.419-44.687-25.468-3.42-.701-7.315-1.133-6.344-5.406-1.427-3.532.046-4.953 3.813-5.438 6.88-2.08 12.055-8.223 12.843-15.406l2.375.5zm-69.812 23.844c5.022 12.222 19.839 14.135 31.275 15.58 3.52 1.364 12.119-1.592 10.912 3.513-.794 5.434-3.104 10.566-5.937 15.25-6.878-3.857-16.62-7.706-23.063-.969-5.936 4.389-9.99 11.415-9.562 18.938-9.005-2.396-18.337-8.061-22.031-16.938-1.61-14.588 5.198-29.562 16.968-38.218l1.438 2.844zm22.812 41.25c4.048.296 8.194.95 12.281 1.437-8.11 4.02-16.7 6.643-25.437 8.906 4.051-3.703 7.13-9.755 13.156-10.344z" opacity=".2"/><path d="M476.344 76.469c-2.986 3.091-6.898-1.536-10.438.437-25.562 3.848-46.046 22.133-60.75 42.219-4.984 1.077-1.477 7.51-4.865 10.447-8.228-5.07-19.77-8.434-29.572-4.29-3.644.917-6.567 4.919-9.719 1.906-8.182-2.18-18.463-1.014-24.469 5.5-10.577-7.11-22.68-11.878-33.844-18.094-10.483 1.272-21.17-3.15-31.774-4.119-16.56-3.13-33.476-5.12-50.007-7.756-8.33-2.838-16.26 3.272-24.812 2.031-24.233.19-48.263 3.366-71.833 8.675-10.357.965-19.213 7.482-28.808 10.95-17.042 7.706-34.103 16.203-48.828 27.5-5.668.497-6.65 7.543-9.809 11.4-8.42 15.592-17.69 33.118-13.879 51.319 2.373 3.222-2.898 5.758.089 9.148 3.654 8.8 5.609 19.232 14.193 24.727 16.336 12.331 35.538 21.455 55.531 25.969 18.653 1.039 37.432.637 56.125.343 6.245-.716 13.145.264 18.375-3.562 3.447-1.06.39 5.508 1.187 8.187.724 26.44 7.046 52.219 12.313 78.031 6.428 4.642 5.752 13.514 9.406 20.032-5.342 3.373-9.236 10.316-5.906 16.469 2.218 7.2 8.748 11.957 13.156 17.468.094 7.053 3.014 13.775-.008 20.6-3.67 13.981-7.352 28.379-4.04 42.86 4.848 35.075 23.936 65.928 40.58 96.665 4.859-1.22 11.15.761 15-2.406-1.536-2.93 5.17-2.18 7.406-2.969 4.26-1.013 9.602.248 13.24-1.382-3.616-4.22 1.942-4.941 5.978-6.837 3.877-.902 8.926-5.953 12-4.468 2.74 4.979 6.76-2.407 9.875-3.75 4.668-3.511 9.207-7.155 14.22-10.094 1.119 4.023 2.028 3.385 3.968.781 5.326-4.91 10.893-9.653 16.438-14.343-11.808-39.963-37.353-74.437-64.24-105.61-3.33-4.79-9.385-8.081-11.385-13.453-2.612-8.622-13.622-10.515-21.375-12.25-1.402-9.098.885-20.678-7.25-27.125-5.025-2.295-10.706-2.25-16.125-1.406-5.86-18.027-7.513-37.168-7.97-55.938-3.196-2.63-.558-7.974-1.437-11.781.194-12.727.404-26.475 4.875-38.125 14.312-5.742 29.785-10.659 42.75-18.375.323-5.21 7.671-1.604 10.455-5.124 13.509-6.825 26.983-14.382 40.639-20.532 7.127-1.831 12.308-8.798 19.563-10.656 3.922 2.403 8.463 3.176 13.062 2.843-7.663 7.129-9.639 18.05-11.156 27.875-.697 9.853.905 22.14 11.312 26.406 7.092 3.8 14.84 6.167 22.75 7.282-.907 4.598.156 7.503 5.467 6.337 20.553-.221 41.107-.222 61.627 1.007-6.325-.974-12.87-1.46-19.313-1.907.152-8.739-3.486-16.87-6.625-24.625 4.012-6.294 5.165-13.81 5.657-21.156 6.874 6.65 13.513 13.536 20.094 20.5 4.49-2.212 9.376 3.622 13.869 5.072 15.87 9.686 32.531 19.122 49.568 26.334 1.427 2.78 4.838 2.443 6.375 1.188 10.656 2.586 20.982 6.097 31.719 8.5.554 13.48 1.558 27.26-.063 40.594-3.277 11.154.27 23.075-2.468 34.343-6.8-.55-15.856 2.575-15.75 10.719-.56 6.68.535 13.345 1.25 19.969-1.708-5.801-6.72-1.362-10 .281-5.936 3.031-7.49 10.766-3.72 16.031-8.878 12.732-11.302 28.648-15.247 43.383-4.465 20.034-8.131 40.632-4.784 61.18.788 8.757.995 17.587.094 26.343 5.982.503 11.535 3.354 17.094 5.375-1.29-4.929 5.591-1.21 8.313-1.375 4.151.305 8.012 2.846 12.187 1.938-.14-5.04 8.489-1.115 12.031-2.563 3.584 1.193 12.76-3.517 11.563 2.5 4.522-1.026 8.664-3.908 13.531-3.906-1.621 3.866.178 4.314 2.625 2.032 2.685-1.51 5.962-3.713 8.969-1.47 10.847-26.322 17.162-54.926 15.468-83.562-1.587-15.81-7.926-30.665-13.687-45.406 6.45-4.715 3.666-13.766-1.625-18.219-4.524-3.145.551-8.896-.438-13.5.185-6.393-7.036-9.294-11.03-13.156-4.227-3.147-.543-10.36-1.474-15.184 1.036-13.301-.36-26.787 1.036-40.003 2.714-7.458-.414-15.052-.313-22.657 19.036 2.29 39.239 2.275 56.593-6.61 7.065-.87 8.106-9.103 11.714-13.995 7.464-13.178 10.79-28.287 8.756-43.426-1.07-12.625-2.01-25.421-4.16-37.85-8.892-16.824-19.896-32.479-30.902-48.017-8.806-11.832-18.324-23.858-29.782-32.946-4.492 1.558-5.687-6.062-10.067-6.475-23.328-12.354-47.827-24.52-73.808-29.18-.148-.078-.378-.232-.531-.063zm-3 31.719c15.688.156 30.467 5.94 44.812 11.5 14.173 5.319 22.826 18.538 33.313 28.75 5.505 5.226 9.05 12.195 15.687 15.906 10.123 11.2 20.187 22.878 28 35.812 1.192 10.648 2.082 22.348-3.093 32.094-1.198 10.762-6.125 21.832-16.282 26.594-7.043 4.027-15.237 6.38-23.156 5.844-2.738 1.351-6.557.526-5.743-3.24-2.892-16.46-8.383-32.328-13.757-48.26-6.927 1.2-9.64-7.007-14.2-10.537-14.786-16.536-32.7-34.792-56.454-35.684-3.978.626-7.103-4.021-11.034-1.905-5.472.9-10.534 2.186-16.593 1.875-2.598-.608-11.535 1.278-8.688-2.28 4.135-5.69 10.834-12.871 6.469-20.22-2.313-3.957-6.43-6.398-10.438-8.375 6.507-8.273 15.931-13.988 24.117-20.224 4.923-6.706 14.673-6.163 22.165-7.4 1.628-.076 3.263-.19 4.875-.25zm-269.75 16.437c17.042 1.747 34.18 3.543 51.125 5.688.386-1.642 9.67 1.633 13.516 1.732 16.346 2.756 32.869 5.397 48.265 11.705-4.802 2.338-8.278 7.69-6.969 13.125-20.055 5.207-40.911 8.372-59.937 16.781-4.548 3.366-8.014 7.495-13.435 9.676-12.01 6.402-23.678 13.595-32.506 24.095-10.262 10.282-20.811 20.388-27.715 33.323-13.654.53-27.538.126-41.063 1.219-7.864 2.106-16.336-.672-24.363-.784-15.42-1.547-31.484-3.938-44.012-13.685 2.415.013-3.33-3.737-3.969-5.844-6.346-9.626-7.972-22.247-6.312-33.375 3.461-1.71 2.141-2.959 1.281-5.344 5.218-15.58 19.785-25.665 32.813-34.625 2.484-1.702 5.188-2.885 7.75-4.5-2.581-2.076 6.383-3.3 8.863-4.734 20.999-6.68 43.317-9.766 65.355-8.89 7.184-3.825 16.041-2.869 23.89-4.66a450.69 450.69 0 017.423-.903zm109.469 49.281c.544 4.585 4.867 7.585 7.312 11.25-14.73 7.43-29.442 15.655-44.75 21.438-8.474 1.74-15.705 7.72-23.868 10.782-11.135 5.226-22.452 10.101-34.32 13.436 2.024-4.99 7.023-8.261 9.608-12.34-4.26.173 3.243-6.07 4.986-8.847 16.287-18.59 40.287-29.97 64.906-32.031 2.378-3.524 10.394-3.132 15.572-4.929.754-.423.373.822.553 1.241zm108.718 12.031c3.987.298 6.053 4.613 10.438 3.063 13.47.019 27.227.35 40.437 2.875 9.416 2.89 15.79 10.853 24.625 13.875 10.269 10.097 15.113 24.518 20.125 37.75 2.06 6.183 3.651 12.482 4.688 18.938-16.881-3.402-32.601-11.541-48.125-18.282-7.133.218-12.243-6.503-18.616-8.883-14.93-8.83-30.782-16.479-45.197-25.898-3.23-.624-6.7-.971-6-4.969-1.852-4.244 4.997-3.044 7.219-5.469 4.874-2.66 8.269-7.631 9.219-13.25l.978.207.21.043zm-70.687 23.188c5.467 12.929 21.05 14.943 33.281 16.375 3.106 1.02 10.527-1.432 8.563 3.594-1.049 4.27-2.678 8.371-4.938 12.156-7.077-3.968-16.932-6.969-23.438-.25-5.64 4.321-10.003 10.966-9.875 18.219-8.075-2.459-16.53-7.762-19.687-15.781-1.28-13.551 4.682-27.486 15.375-35.72l.455.891.264.516zm23.844 41.938c2.006.307 8.13.316 6.8 1.272-5.068 2.424-10.49 3.888-15.894 5.384 2.593-2.758 5.066-6.157 9.094-6.656zm15.187 9.656c3.095 2.358 1.358 8.873 2.813 12.875-1.067 3.415-9.74.334-13.844 1.364-3.462-.785-9.852 1.942-11.406-.833-2.561-5.663 3.524-5 7.11-6.297 5.444-1.528 10.814-3.87 15.327-7.11z" opacity=".2"/><path d="M476.188 75.156c-.687.194-1.272.852-1.782 1.125l-.094.063h-.03c-.027.013-.092.047-.126.062h-.062a1.838 1.838 0 01-.156 0h-.032l-.125-.031h-.031a1.68 1.68 0 01-.125-.063s-3.518-1.033-4.063-1.124h-.03v.03c-27.373 2.633-49.685 21.341-64.72 42.72-2.446.723-2.987 1.843-3.875 2.906l-.093 4.594.031-.032h.031v.063c-.07.338-.63 1.677-1.187 2.625-5.132-3.41-18.962-10.48-34.406-1.656-.603.296-1.178.627-1.75.968-3.88-4.286-21.46-3.043-27.22 3.625-7.666-5.344-31.151-16.025-33.312-17.719l-5.062.438v.031h-.031c-2.677-.036-55.915-10.271-75.47-11.687-3.033-1.814-6.042-1.005-8.968-1.625l-3.625 1.219c-.603.06-6.562 1.763-9.656 1.78-21.698.128-47.286 1.954-72.188 8.126l-10.594 1.562v.031a2.61 2.61 0 01-.062.063c-2.642 1.805-52.706 21.206-70.406 37.25-2.224.56-2.31.893-4.157.844 0 0-29.69 41.854-20.312 65.812-1.506 2.3-1.49 2.42-1.781 4.156 0 0 4.865 12.028 6.625 17.313 5.784 15.603 54.077 37.372 69.344 37.438l5.593.25c20.659-.565 41.64 1.186 61.969-1.688v-.031l.031-.063.063-.062c.447-.484 2.12-1.756 3.25-2.063-3.05 22.73 11.975 83.47 11.937 85.563V358l4.031 3.969c1.135 4.152 2.51 8.439 4.532 13.75l.5 1.219c-1.516.76-6.901 7.263-6.906 10.75 1.067 11.317 7.025 16.3 14.468 23.78 0 0 .525 9.32 1.719 12.813-2.186 10.801-6.978 25.773-7.125 36.625 2.006 41.161 19.855 70.61 42.5 111.938 0 0 11.982-1.077 13-.75l.031.031 4.438-2.313a15.247 15.247 0 00-.688-1.312c5.068-1.374 17.96-2.127 19.344-1.594l.063.032h.03l2.063-2.625c-.387-.465-1.024-1.335-1.875-2.5 6.065-2.41 10.889-4.83 16.844-7.688 1.02 1.667 2.865 2.627 3.344 3.031l.062.063.031.031s14.924-12.102 21.188-15.844c.954 2.002 1.643 3.544 1.938 4.407l2.312-3.188v-.031-.032l.031-.03.031-.063c1.188-1.76 17.125-15.206 17.688-15.657h.031a1.38 1.38 0 01.25 0h.063l.062.032.063.031c-13.919-52.778-66.189-109.778-75.688-118.688-.48-5.305-4.68-11.225-21.781-14.5-.175-.88-.262-1.6-.281-2.062-.188-8.833.091-17.88-6.469-24.625-5.594-2.803-10.998-2.953-16.781-2.156-6.462-21.694-7.121-36.832-7.438-54.813l.031-.031v-.031-.031-.032-.031l-.03-.031-.032-.031c-.251-.302-1.048-.78-1.375-1.094l-.031-.031c-.02-.026-.05-.076-.063-.094l-.031-.031v-.032a.97.97 0 010-.062l.031-.031V301.5h-.031v-.031c-.263-.881-.062-15.78 1-25.063a181.422 181.422 0 013-14.875c17.7-7.197 27.707-9.654 41.906-18 .125.024.264.034.375.031h.063c.067-.009.158-.042.219-.062.074-.027.182-.083.25-.125a1.87 1.87 0 00.156-.125l.062-.063c.042-.047.095-.115.125-.156l.031-.062c.418-.684.507-1.775.657-2.188v-.031l.031-.031a3.64 3.64 0 01.031-.063h.031l.032-.031h.031l5.906-.781v-.031h.031c1.125-.874 29.331-15.115 43-22.25 1.7.359 2.797-1.153 4.657-1.282 0 0 12.022-8.724 15.156-9.281 3.878 2.068 6.734 2.815 10.5 2.781-2.197 2.566-3.938 4.893-4.531 6.469-1.753 6.57-9.875 22.448-1.781 40.281 2.967 6.124 18.011 12.815 30.687 14.625-.002 1.318-.109 2.802-.125 4-2.334.261-3.714.547-4.281.813-.018.008-.047.022-.063.031a1.57 1.57 0 00-.094.063l-.03.03a1.705 1.705 0 00-.063.063l-.031.031v.032a.826.826 0 000 .062c.004.011.025.052.03.063l.032.031.031.031c.026.02.082.066.125.094l.063.031c1.59.753 9.418 1.323 18.562 1.219 13.491-.154 28.113-.547 41.313.375 11.75.932 18.13.623 18.656-.156l.031-.031v-.032-.062c-.007-.017-.026-.052-.031-.063-.514-.852-6.823-2.132-19.313-3.094-1.498-.104-3.01-.22-4.53-.312-.171-8.409-3.696-17.415-6.594-23.094v-.031c3.554-5.132 5.168-14.622 5.468-18.719 7.291 7.049 17.733 18.232 18.625 19.125l2.844-.812a1.232 1.232 0 000-.063.93.93 0 00.031 0c.935.297 10.984 5.514 16.188 8.844 9.926 5.956 27.353 16.32 43.719 22.688 1.65 2.817 3.417 2.21 5.25 3.375l1.906-1.594v-.031h.062c1.446.12 26.312 7.501 30.75 8.312.405 7.409.608 14.44.75 20.813-.071 7.975-.32 11.488-.343 17.03-1.368 3.257-1.948 9.395-2.157 13.157 0 0 1.068 12.805-.625 21.688-6.772.08-12.791 1.945-15.156 7.718-1.604 4.594-.921 13.243-.094 19.625l-.156-.219c-16.699 5.416-16.86 14.36-13.25 20.938-8.725 9.909-19.735 59.276-21.094 81.281-.652 16.964 3.619 28.798 1.25 50.938l3.938.312c0-.005 10.945 3.636 11.844 4.188l.03.031 4.094 1.563c-.074-.397-.16-1.513-.25-3.125 4.79.422 14.862 2.733 15.938 3.312l.031.031h.031v.032l4.563-.407c-.001-.352.008-1.137.031-2.25 7.226-.035 14.479-.318 21.094-.656-.042 1.472-.06 2.58-.063 3.219l4.157-.813v-.031l.031-.031.031-.032.063-.062.031-.031c1.038-.8 6.458-2.834 8.969-3-.387 2.026-.644 3.663-.75 4.75l4.968-2.5v-.032l.032-.062.031-.031.031-.032.032-.062.03-.031c.84-.822 4.542-2.582 5.907-2.657l3.469 1.344c1.51-2.64 10.925-27.69 13.062-42.562 3.086-18.733 5.687-38.136.469-56.719-2.66-9.947-7.4-22.398-10.906-30.938 4.777-4.593 6.212-11.565-3.969-21.156 1.246-4.848 2.13-10.167 1.469-13.969-.887-3.131-9.635-10.019-12.719-12.03.644-20.91 1.102-26.65.875-48.032-.003-4.503 1.741-8.516 1.813-13.313l-.5-4.812c-.067-.3-1.046-5.277-1.032-8.344 19.898 2.23 38.804 1.616 52.969-5.781l8.031-3v-.031h-.031v-.031-.032-.031l.031-.031c.807-2.13 15.434-22.163 16.469-41.906.59-15.887-4.208-50.68-4.156-51.75l-2.407-5.344-.03-.031c-1.884-2.198-32.03-55.143-57.126-75.532-.937-1.425-1.707-1.909-2.343-2-.65-.068-1.22.253-1.688.313h-.031c-.032.008-.1.026-.125.031h-.062c-.038-.008-.098-.024-.126-.031a1.507 1.507 0 01-.25-.125l-4.187-4.625h-.032c-1.431-.65-48.344-27.496-76.718-30.656-.568-.517-1.06-.69-1.5-.657h-.094a1.403 1.403 0 00-.063 0h-.093c-.011.003-.02-.003-.031 0zm-2.844 34.281h.5c.193-.006.37.002.562 0 9.996-.079 26.8 4.882 28.438 6.063l.031.031.031.031.031.032v.031l7.47 2.406a.774.774 0 01.03-.031h.032c.932.01 12.235 4.671 17.687 8.469 11.274 10.316 31.31 32.147 32.25 34.375l.032.062v.031a.85.85 0 010 .032V161l5.25 3.75h.062l.031.031c1.488 1.08 20.54 22.767 28.157 35.594 1.489 7.949.613 22.737-.375 24.781a1.83 1.83 0 01-.094.156 2.046 2.046 0 01-.032.032l-.03.031h-.032a.73.73 0 00-.031 0l-2.657 6.688a.93.93 0 01.032 0h.031v.03l.031.032c.316 1.036-2.24 11.778-5.406 16.719-7.185 10.834-25.235 15.057-27.625 14.5h-.031l-.063-.031a1.856 1.856 0 01-.062-.032l-.032-.031-.03-.031-.032-.031v-.032l-5.375.031v.188l-.031.031v.063l-.032.031-.03.063a3.5 3.5 0 01-.063.062l-.063.031-.031.031-.031.032c-.616.349-2.116.311-3.375.125-1.748-16.18-14.06-50.737-14.469-51.938 0 0-4.281.35-5.375-.656a7.07 7.07 0 01-.063-.063c-18.014-18.87-33.735-40.459-60.75-45.062a369.336 369.336 0 00-8.156-.594c-3.981-2.595-5.97-2.39-6.562-2.219l-.063.032-.031.031a1.735 1.735 0 01-.063.031 1.146 1.146 0 01-.093.063c-.014.008-.05.026-.063.031-1.18.456-6.41.794-7.5 1.188h-.031a1.25 1.25 0 00-.063.03h-.03l-.032.032-.031.031v.125h.031c.103 0 .22-.002.281 0h.031l.032.031v.032h-.031c-1.04.286-10.086 1.224-18.25.406a33.883 33.883 0 002.28-3.469c8.502-9.065 8.501-19.247-5.343-26.25 5.068-6.371 20.555-17.334 22.219-17.937h.093l2-2.594a1.18 1.18 0 01-.03-.031v-.031l.03-.032.032-.031c.448-.534 3.598-2.597 5.969-3.031a85.694 85.694 0 0118.843-2.5h.031l.032-.031zm-269.688 16.438h.031a1.415 1.415 0 01.063 0c1.008.073 47.566 5.043 50.094 5.625l.031.031h.031l3.781.188c-.117-.12-.226-.254-.343-.375 16.401 3.254 37.81 5.442 56.375 12.687-3.67 2.284-6.43 8.008-5.625 11.906-13.469 3.068-28.404 6.73-32.5 7.844-5.309 1.519-16.561 3.832-26.75 8.844-.009.004-3.378 3.19-5.5 4.125l-1.469 2.094c-14.623 7.656-28.712 16.221-32.375 20.969-11.991 12.232-26.445 25.03-34.313 39.687h-.03c-1.33.132-17.183.273-37.5.906-1.524-.632-4.733 1.261-6.282 1.094 0 0-43.766-1.688-55-9.625-1.016-.703-4.618-2.092-5.563-2.844a5.672 5.672 0 00.5.031h.063c.008-.004.05-.025.063-.03h.03V229h.032v-.031a1.926 1.926 0 01-.031-.031v-.032l-.031-.031a3.152 3.152 0 01-.032-.031c-1.35-1.353-16.635-9.297-14.312-39.688l3.156-3.125V186v-.063l.031-.062v-.031-.031l-.031-.063a1.55 1.55 0 010-.094v-.031l-.031-.063c-.23-.69-1.154-1.515-1.407-2.218l-.03-.063v-.031c-.008-.028-.025-.092-.032-.125a1.606 1.606 0 010-.094v-.062-.031l.031-.032a6.522 6.522 0 010-.062v-.031c5.344-18.016 35.938-36.194 38.563-37.032h.093l2.97-2.094c-.324-.19-.643-.39-.97-.562 10.517-4.214 21.836-6.978 32.594-8.969 11.84-2.272 37.49-3.697 40.188-2.687.025.01.093.046.125.062l.031.031 2.313-1.25v-.03-.032l.03-.031.032-.031.063-.032c2.18-1.03 27.137-4.08 28.843-4.281zm108.156 48.219c.47 4.313 3.972 7.15 6.657 10.625-10.817 5.606-21.792 11.345-32.844 16.312-3.129 1.473-6.102 2.9-8.969 4.281-1.39.017-2.823.13-4.312.375 0 0-31.699 17.08-52.188 23 1.439-2.605 6.564-7.853 7.906-8.437l.063-.031h.031l.313-4.031c-.084.014-.167.047-.25.062 12.056-15.968 28.792-28.023 51.344-34.375 3.954-1.233 16.321-3.168 17.625-3.031l.03.031h.032l3.188-2.156a1.77 1.77 0 01-.032-.031l-.031-.032a1.644 1.644 0 00-.031-.031c3.767-.848 7.643-1.682 11.469-2.531zm109.72 13.062c1.523.3 3.617.902 4.343 1.938l.031.062c.122.204.18.449.188.688l5.875.562a.89.89 0 000-.031l.031-.031c.02-.009.07-.025.094-.031 1.94-.628 23.814.44 37.156 2 7.5 1.171 19.148 9.817 19.969 11.187h.031v.094l7.25 3.125c6.827 4.855 20.422 32.432 24.031 54.094-16.25-3.354-43.788-16.718-45.312-17.938a1.752 1.752 0 01-.031-.031h-.032s-3.614.282-4.687-.313c-9.743-5.745-31.026-17.815-51.625-29l-7.563-5.344v.032h-.031l-.031.031h-.031c-.576-.004-2.914-.534-5.594-1.344a16.799 16.799 0 00-.469-4.125c6.571-1.78 14.074-5.743 16.406-15.625zm-71.563 22.531c2.483 5.015 5.668 8.974 9.719 10.72 9.726 5.352 22.748 6.288 32.25 6.937-.376 3.614-2.868 9.567-4.438 12.281-4.901-2.607-10.447-4.137-14.531-3.969-.927.038-1.779.188-2.531.406-4.883 1.84-16.215 9.65-16.907 21.5-7.74-2.215-16.555-10.4-17.281-14.218-1.508-16.123 7.382-28.716 13.719-33.656zm25.062 42.625h.031a.835.835 0 00.094 0h.031c1.004.145 1.94.214 2.813.282-1.955.801-4.926 1.809-8.188 2.719 1.075-1.266 3.013-2.657 5.22-3zm15.094 9.657h.031c.283 1.098.452 2.236.594 3.406-.08 2.388.502 5.695.969 8.438a327.793 327.793 0 00-9.656-.125c-.317 0-.652-.003-.97 0-4.045.029-8.101.137-12.156.343-.096-1.038-.19-2.358-.28-3.344 6.623-1.489 16.758-4.403 21.468-8.718z" opacity=".2"/><path d="M478.125 455.957A119.002 119.002-5.764 11284.32 317.808a119.002 119.002-5.764 11193.805 138.15z"/><path transform="matrix(1.16617 .83127 -.85775 1.2033 277.232 -288.828)" d="M414 331.5a81 78.5 0 11-162 0 81 78.5 0 11162 0z" fill="url(#f)"/><path d="M414 331.5a81 78.5 0 11-162 0 81 78.5 0 11162 0z" transform="matrix(1.06134 .75655 -.78065 1.09515 286.58 -228.09)" fill="url(#g)"/><path d="M438.13 302.348c-38.162-25.79-93.08-21.456-126.496 10.384-34.772 30.888-41.572 86.892-17.48 126.22 90.991 16.936 80.169-82.51 175.955-100.657-7.565-14.304-18.308-27.136-31.98-35.947z" fill="url(#h)"/><g><path d="M364.5 265.344c-.001.011.028.051.031.125-.008-.08-.03-.14-.031-.125z" fill="url(#i)"/><path d="M213.344 362.813c-3.46.507-30.525 5.145-33.813 20.906 1.05 8.987 17.594 26.06 17.594 26.062l.031.031c.51.506.991.993 1.469 1.47 3.039 1.581 9.498.754 13.25.406 5.847.297 15.772-1.804 20.375-5.47-.411-4.545-2.867-15.86-3.031-18.062-.163-7.334-1.45-17.893-6.813-23.562-2.944-1.294-5.87-1.825-8.719-1.781a.772.772 0 01-.062 0h-.156c-.043.006-.07-.009-.125 0zm40.531 43.718c-.249 2.927-1.255 5.492-1.281 7.031-1.256 5.94-26.656 19.804-34.625 19.844-9.669-.008-15.87-.634-22.219-8.937-.063-.112-.126-.232-.188-.344-2.01 10.108-4.866 20.793-5.187 31.125 1.445 39.544 19.159 72.504 41.344 110.625 2.123-.466 7.184-.28 9.75-1.063-4.178-7.578-13.326-22.846-13.875-30.312v-.219c.906 2.65 11.286 18.584 16.406 26.844 4.871-1.65 12.947-.213 18.563-2.5-6.898-10.004-20.25-29.644-22.782-34.438-4.608-7.85-15.045-34.106-16.25-38.968l.156-.375c.574 1.443 13.793 29.982 18.22 37.469 2.615 4.928 15.222 23.017 22.03 32.656 6.064-2.526 12.103-5.002 18.25-7.844-5.33-8.706-14.53-23.727-17.28-28.094-4.317-6.678-7.462-14.08-9.376-21.812l1.375-.406c1.38 5.138 7.162 15.367 10.719 20.875 2.977 4.629 13.953 21.181 18.75 29.406 7.741-3.618 12.54-9.727 19.063-13.125-5.88-11.885-16.8-32.506-19.188-38.438-4.087-9.96-20.752-48.217-27.156-55.031l.219-.188c6.47 7.452 26.033 43.875 30.218 53.97 2.472 6.146 14.942 29.603 20.375 40.75 7.678-4.083 12.382-10.323 15.5-12.626-4.455-28.103-27.542-58.997-42.406-81.906-9.602-11.578-19.992-22.34-29.125-33.969z" fill="url(#j)"/><path d="M462.516 75.399c3.265.192 6.305-.582 9.563-.151 8.085 7.288 21.571 24.29 27.711 33.39-12.046-3.556-28.307-6.809-48.743-3.146-4.368.789-8.744 2.74-12.969 5.469-8.266-.027-24.959.837-34.423 2.623 10.548-14.139 33.313-35.91 58.86-38.185z" fill="url(#k)"/><path d="M476.12 75.252c27.722 4.838 56.677 19.927 79.583 38.365 2.14 11.278 3.21 29.818 3.22 40.428-10.754-10.685-21.9-22.711-32.407-33.115-6.862-4.808-13.162-7.868-21.849-11.164-5.348-9.134-19.75-25.741-28.548-34.514z" fill="url(#l)"/><path d="M209.36 99.305c.024-.003.037.002.062 0h.156c.108-.008.23.002.344 0 .18-.003.365.019.562.031 6.313 3.223 17.28 11.38 22.282 13.219 4.924 2.001 9.955 7.717 13.53 11.625-16.538-2.53-34.089-4-50.874-3.781-10.019.13-17.265 2.672-27.094 3.625-9.242-6.345-28.577-12.824-39.687-15.063 24.57-5.188 72.96-6.746 73.25-6.75 3.767.216 4.314-2.556 7.468-2.906z" fill="url(#m)"/><path d="M220.11 100.211c24.76 1.71 51.871 8.401 77.156 11.5 4.792 6.775 12.875 21.367 19.25 29.5-19.292-8.236-46.265-13.939-63.125-17.437-1.294-.283-1.93.772-3.22.53-4.369-5.223-9.508-12.267-15.624-14.562-3.555-1.276-10.622-7.043-14.438-9.531z" fill="url(#n)"/><path d="M120.797 110.711c13.084 4.321 32.49 7.989 43.375 13.688-11.041 1.185-24.361.898-35.5 3.03-12.31 2.175-24.864 5.35-36.25 10.345-12.65-.888-32.632 3.604-45.094 7.875 18.452-15.594 47.066-26.983 73.469-34.938z" fill="url(#o)"/><path d="M438.617 112.965c-5.926 4.604-16.01 11.44-20.633 17.652h-.03l-.032.032c-.534.483-3.794 5.25-4.156 6.03l-.032.032v.063a93.095 93.095 0 00-4.593 8.03c-.538.266-1.03.49-1.438.688-2.631.738-12.718 1.613-13.844 1.032-.004-.003-.027.002-.03 0-.008-.006-.026-.026-.032-.032-.005-.005-.028-.025-.031-.031-.002-.003 0-.028 0-.031l-5.313.219c.003-.005.028-.026.031-.032.478-.881 3.923-10.862 7.625-17.531.003-.003.028-.029.032-.031.84-.712 1.663-2.865 2.03-3.375 0 0-1.209-3.158 1.828-7.624 8.096-2.565 38.565-5.088 38.618-5.09z" fill="url(#p)"/><path d="M303.89 114.93c9.926 3.211 19.963 9.415 28.75 15.125 3.992 2.812 8.03 12.347 10.626 16a84.976 84.976 0 00-3.5 12.969c-3.644-6.621-10.235-11.916-18.407-16.22-9.096-7.81-13.168-19.885-17.468-27.874z" fill="url(#q)"/><path d="M558.675 112.078c24.584 20.795 42.087 50.992 55.959 76.285-4.525 8.882-14.984 27.523-22.052 33.498 1.532-8.906 2.293-19.304-.004-27.431-8.036-14.861-19.187-25.91-30.999-37.884.057-9.387-1.316-32.144-2.904-44.468z" fill="url(#r)"/><path d="M349.469 123.656c-.135.002-.271.028-.406.031-.139.004-.269-.005-.407 0-.09.004-.191-.004-.281 0a1.505 1.505 0 01-.125 0h-.219a1.404 1.404 0 00-.094 0h-.062c-5.47.373-10.705 2.238-13.625 4.75 4.232 3.246 7.51 6.833 9.531 10.844-.105-1.41-.103-2.537 0-3.344l13.719-11.156c-2.527-.795-5.283-1.164-8.031-1.125zM313.28 141.5c-3.065 2.593-4.715 7.07-5.437 9.563 7.042-1.574 13.342-2.855 16.969-3.407a67.55 67.55 0 00-2.157-1.344l-2 .063c-.891-.84-5.764-4.172-7.375-4.875zm15.125 23.719c-5.068 1.371-11.303 2.795-17.812 4.25.256 3.442 3.42 7.256 7.125 9.437 2.6-4.343 6.045-9.672 10.687-13.687z" fill="url(#s)"/><path d="M390.734 133.336a137.2 137.2 0 00-7.406 18.094c-3.115.579-5.968.989-8.187 1.094 2.128-7.971 9.672-14.517 15.593-19.188z" fill="url(#t)"/><path d="M418.297 135.805c12.245.074 8.148 13.815 6.75 18-3.73 6.124-16.022 15.503-22 19.281-3.97 3.014-18.532 7.66-26.875 10.313 4.009-6.299 15.108-23.864 18.094-33.625 7.341-1.297 13.14.108 16.218-.75 4.819-2.143 8.423-7.646 7.813-13.22z" fill="url(#u)"/><path d="M414.203 139.586c-.215 1.649-1.329 2.9-2.656 3.844.818-1.21 1.702-2.498 2.656-3.844z"/><path d="M83.234 140.555c.097-.005.185.004.282 0 .096-.005.185.004.28 0 .098-.004.186.003.282 0 .848-.028 4.661.315 5.469.344-15.593 8.068-35.092 27.607-36.75 41.03-7.869 4.629-21.223 17.05-29.219 26.595-9.907-16.588 4.1-43.142 18.969-57.938 11.04-3.113 28.396-9.362 40.687-10.031z" fill="url(#v)"/><path d="M326.422 148.742c4.448 3.107 8.493 6.753 11.937 11.094-2.344.58-4.5 1.578-6.468 2.813-8.709 1.822-25.521 5.196-39.407 8.375-8.054-2.405-32.03-2.471-45.375-1.032 7.24-3.363 22.083-7.037 26.032-8.125 6.876-1.897 43.138-10.176 53.28-13.125z" fill="url(#w)"/><path d="M390.5 150.688c-5.267.99-12.738 4.527-15.844 5.375-.603 7.87-1.273 15.906-.812 23.812 3.27-5.718 13.596-21.203 16.781-29.188h-.125zm-51.375 11.28c-8.879 1.746-17.024 17.7-20.625 22.75-1.538 3.642-3.252 16.091-3.25 16.095l.063.03c4.169 1.7 12.173 2.632 16.343 2.376 4-.732 7.828-2.71 11.781-3.625-4.11-11.807-5.297-26.245-4.75-32.469a61.46 61.46 0 01.563-5.156h-.031c-.035.006-.06-.007-.094 0z" fill="url(#x)"/><path d="M444.984 162.305a62.754 62.754 0 015.688.187c10.36 6.302 26.833 23.463 33.5 31.969-5.386-2.86-13.459-7.49-20.375-8.469-12.772-1.397-24.119-.848-36.063-2.468-.002 0-9.163-11.033-13.468-13.313 2.502-1.921 4.854-4.026 6.937-6.375 10.866.478 15.53-1.395 23.781-1.531z" fill="url(#y)"/><path d="M460.11 164.617c1.637-.045 3.848-.055 5.78.719 25.603 4.753 42.285 27 59.376 45 .873 1.036 1.363 3.403 2.156 4.469-.17 10.694-2.6 29.886-8.156 43.219-4.127-24.667-12.53-48.496-30.22-61.813-5.586-8.354-19.313-22.946-30.75-31.562.427.036 1.069-.011 1.813-.032z" fill="url(#z)"/><path d="M266.672 171.399c.034-.004.06.002.094 0h.312c.24-.007.474.001.719 0 7.356-.049 17.324.529 21.937 1.28-4.48 1.093-12.587 2.122-15.312 3-23.798 6.947-41.22 20.028-53.625 37.25-15.394 3.405-38.263 17.47-47.844 23.313 6.683-11.584 24.378-28.512 34.344-38.781 3.876-4.886 18.484-15.477 35-23.812.02-.01 17.28-2.09 24.062-2.22.098-.001.21-.021.313-.03z" fill="url(#A)"/><path d="M411.734 172.024c2.411 1.856 10.308 6.178 12.594 12.437-5.435-2.948-15.36-5.43-21.562-6.906 2.28-1.133 4.094-2.167 5.156-2.969a96.377 96.377 0 003.812-2.562z" fill="url(#B)"/><path d="M401.203 178.274a188.537 188.537 0 0014.469 3.625l-.281.03c-.259 13.108-19.718 15.526-25.094 16.095-6.539-3.362-11.827-5.918-14.906-7.157-.124-.53-.268-1.06-.375-1.593 5.482-2.132 17.984-7.08 26.187-11z" fill="url(#C)"/><path d="M368.719 231.656c-.827.053-1.6.208-2.281.406-5.11 1.926-17.291 10.396-16.938 23.188l3.031-.219c2.746 7.346 5.962 1.084 9.125-2.125h3.25c.216-1.393 2.962-4.166 6.281-4.594 4.588.66 7.568.002 11.22 2.782 2.805 2.879 3.874 6.406 4.343 10.281-.08 2.388.938 8.203 1.404 10.945-3.196-.08-6.857-2.646-10.091-2.632-.317 0-.652-.003-.97 0-4.045.029-8.101.137-12.156.343-.139-1.495-.332-3.646-.406-4.406l-2.5.375c.234.615-8.204.247-8.187-.406-.002.002-.03-.003-.031 0-.002.003 0 .028 0 .031l-2.844-1.156c.449 1.32 1.431 7.498 1.402 9.698 20.778-5.911 73.877 1.237 53.692-3.48-1.499-.104-3.945 2.247-5.466 2.156-.233-11.466-5.758-26.517-8.378-30.25-5.034-6.578-16.267-11.224-23.25-10.937-.087.004-.165-.005-.25 0z" fill="url(#D)"/><path d="M385.476 236.464s4.25-12.596 4.553-17.756c.303-5.16-36.575-19.425-42.19-15.935-5.615 3.49-16.239 20.185-16.542 26.71-.304 6.526-2.125 18.212 15.48 24.13 7.71 2.593 28.986-4.249 30.959-5.16 2.883.911 9.41 3.947 8.802 7.437-.607 3.49-17.3 12.596-28.835 10.472-11.534-2.125-31.414-3.187-35.816-15.935-4.4-12.748-2.428-34.299 2.277-39.155 4.705-4.856 26.103-26.558 31.111-27.014 5.008-.455 25.883-3.435 31.87 1.821 6.222 5.464 12.141 8.803 13.052 14.418.91 5.615-1.214 34.905-6.526 47.046-1.062-1.517-3.794-6.374-8.195-11.079z" fill="url(#E)" fill-rule="evenodd"/><path d="M377.547 120.93h.187a.95.95 0 00.063 0c.126-.007.252 0 .375 0 7.02-.062 15.222 4.18 16.312 5.062l.032.032a1.704 1.704 0 01.062.062v.031a.89.89 0 00-.031 0c-6.142 3.164-21.099 15.49-23.469 26.875-.945 13.833-3.953 28.108-.125 41.594.286.98.626 2.021 1.031 3.094-14.437-9.232-22.846-42.62-24.187-58.625-.001-.01 9.274-8.312 16.062-13.656 4.415-3.088 9.13-4.285 13.563-4.438h.094l.03-.031z" fill="url(#F)"/><path d="M345.734 151.024c4.16 18.429 15.42 46.176 32.438 52.437 3.621 6.867 5.734 14.938 11.125 18.531-7.59-.633-18.215-1.4-30.625-8.562-12.095-7.333-17.499-36.392-16.656-46.063.23-3.892 1.297-9.823 3.718-16.343z" fill="url(#G)"/><path d="M315.953 181.93a53.841 53.841 0 01-1.719 2.75c-2.164 5.392-2.382 10.952-.156 16.031-3.454.11-6.515 4.995-14.406 9.188-5.137-1.4-14.283-6.9-21.5-8.157a1393.16 1393.16 0 015.531-2.625c11.768-5.403 21.008-11.449 32.25-17.187z" fill="url(#H)"/><path d="M50.516 186.899c-3.587 17.388 2.357 30.515 15.906 41.187 2.138 5.758 5.047 12.476 7.625 15.75 3.28 4.305 14.067 14.437 18.437 23.656-30.114-5.688-58.066-18.117-65.093-33.875-2.27-7.052-3.783-13.741-4.594-20.093 6.581-9.413 18.538-20.176 27.719-26.625z" fill="url(#I)"/><path d="M376.118 193.443c5.891 2.427 19.84 8.236 34.899 16.315 1.715 6.936 5.928 25.054 7.328 32.519-6.033-4.16-14.94-13.94-20.454-18.066 0 0-2.59-2.356-4.063-3.094h-.031l-.031-.031c-2.443-1.887-4.735-3.69-6.782-5.406-.024-.026-.07-.069-.093-.094-2.418-2.775-4.422-6.082-6.063-9.5.305.023-4.232-11.162-4.71-12.643z" fill="url(#J)"/><path d="M615.76 192.519c4.37 14.206 5.389 34.12 4.724 48.848-1.271 21.003-10.126 34.446-20.288 42.308-16.427-2.448-39.61-10.824-46.805-21.401 12.214 1.066 21.168-6.587 29.843-14.657 4.076-6.46 5.33-13.306 7.26-21.38 7.474-5.667 19.851-25.039 25.266-33.718z" fill="url(#K)"/><path d="M271.297 203.43c6.115.365 18.13 5.377 24.219 7.781-13.878 7.62-30.474 17.188-44.813 23.094-8.286-1.74-25.815-4.706-32.062-7.969 21.557-6.201 33.087-13.514 52.656-22.906z" fill="url(#L)"/><path d="M220.484 214.711c-7.26 11.286-15.415 26.985-19.125 40.906h-.031v.125c-1.628 6.13-2.933 12.47-3.969 18.969-1.192 10.285-.223 17.689-.031 25.844-7.434 10.56-16.661 39.572-20.281 51.719-.72-3.326-3.33-13.886-4.375-17.75-6.67-37.045-8.894-81.612-1.313-94.063 9.18-5.634 35.994-22.079 49.125-25.75z" fill="url(#M)"/><path d="M530.672 214.742c6.342 19.128 13.647 57.964 13.281 87.688-5.013 3.686-16.215 13.823-21.719 22.812.11-4.162 1.136-10.503 1.157-16.156-.355-13.197-1.649-27.222-3.813-42.906 5.672-10.03 10.259-37.778 11.094-51.438z" fill="url(#N)"/><path d="M415.11 212.07c19.338 10.433 51.74 29.555 53.79 30.595 1.955 6.889 9.374 24.413 13.166 32.433-14.425-5.664-31.566-15.787-40.52-21.074-5.606-3.532-13.115-8.414-21.03-13.782-1.171-6.684-2.941-19.974-5.407-28.173z" fill="url(#O)"/><path d="M214.719 227.438c-4.298 8.313-7.71 17.317-10.281 26.875 15.433-6.487 27.538-10.077 39.937-17.407-8.393-1.697-28.43-9.193-29.625-9.469h-.031zm-45.375 10.468c-9.935 1.952-23.853.29-34.469 1.219 8.72 6.701 19.47 21.768 23.094 27.781a54.046 54.046 0 006.219-2.344c.935-5.42 4.469-21.154 4.312-22.593v-.031-.032l-.031-.031-.063-.031c-.047-.03-.115-.09-.156-.125l-.031-.031a3.836 3.836 0 01-.031-.032l-.032-.031-.031-.031c-.019-.025-.046-.068-.063-.094l-.03-.063c-.363-.695-.067-1.973 1.312-3.53z" fill="url(#P)"/><path d="M70.578 231.149c13.218 2.58 34.775 10.212 58.438 8.687 7.812 5.93 21.842 23.785 24.937 28.188-15.917 3.92-37.047 3.615-57.562.156-5.178-12.025-16.637-22.318-20.282-27.219-1.646-2.128-3.743-6.118-5.531-9.812z" fill="url(#Q)"/><path d="M472.563 242.313c-.009.004-.024.025-.032.03-1.925 1.585 10.395 27.289 13.625 34.22 15.338 5.857 28.314 7.491 33.438 8.593-.338-5.395-1.925-15.74-2.344-16.625-.006-.011-.025-.024-.031-.031h-.032l-1.906-4.719c1.154-1.359 1.766-2.208 1.875-2.656 0-.003.031-.028.032-.031 0-.017-.031-.047-.032-.063a1.017 1.017 0 000-.062c-16.917-3.363-30.844-12.14-44.562-18.656-.01.003-.023-.005-.031 0zm72.03 18.875c.963 9.557 1.195 19.285 1.188 28.812 17.518 2.229 34.532 1.585 47.907-4.469-15.189-3.77-36.467-13.534-43.22-23.562-1.88-.22-3.831-.486-5.874-.781z" fill="url(#R)"/><path d="M197.984 304.274c2.181 15.427 3.345 36.11 9.094 57.468-8.384 2.653-16.64 7.79-21.156 9.469-2.484-6.255-3.96-11.653-5.188-17.031-.33-10.165 8.04-37.85 17.25-49.906z" fill="url(#S)"/><path d="M544.203 306.055c-.039 2.238-1.038 6.113-1.031 8.312.286 21.133 1.36 30.695.437 51.25-2.99-.414-14.573-4.355-24.875-4.562 2.59-13.709 1.771-20.209 2.282-29.75 4.462-9.642 17.66-20.683 23.187-25.25z" fill="url(#T)"/><path d="M519.313 362.625c-.203 0-.425.026-.625.031-.133.003-.275-.005-.407 0-.085.004-.165-.004-.25 0-.084.004-.166-.005-.25 0h-.5c-5.055.406-9.41 2.485-11.5 7.625-1.98 6.263-1.328 25.824-1.031 28.531 1.529 1.075 3.851 1.403 5.875 1.563 6.487.576 15.622 2.424 21.875 4.219 4.44-.037 12.226 1.58 16.406 1.437 1.352-3.762 6.106-19.63 4.938-26-1.257-4.54-10.138-8.915-12.094-13.156-4.302-.624-14-4.272-22.438-4.25zm-29.375 48.406c-9.03 16.825-17.414 56.636-18.75 77.5-.635 15.86 2.466 30.643 1.78 50.063 3.115 1.133 7.066 3.526 11.532 4.062-.203-9.178-.126-30.009.125-36.625.176-10.107-.333-38.43 1.906-49.812l1.781.406c-2.395 9.785-.221 40.206-.406 50.313-.317 6.205.076 24.783.5 34.53 5.111.426 10.739 2.44 16.5 2.407.69-9.608 2.146-30.12 2.063-36.688-.207-6.87.169-14.228-1.188-20.968h2.188c1.083 5.098 1.683 13.995 1.875 20.437.089 6.677-.406 25.754-.625 35.281 7.222-.145 14.797.291 21.437-.156.367-11.525.85-34.264.469-41.468-1.087-11.512-1.565-22.36-3.719-33.688l.563-.406c1.948 11.197 4.442 22.312 5.562 33.656.456 7.422.697 31.967.782 43.219 3.6-.263 6.918-2.945 9.875-3.188 2.763-13.28 8.376-36.068 9.656-44.062 1.24-9.458 3.967-26.688 3.75-36.219l1.375-.406c-.17 9.792.32 19.57-1.157 29.281-1.339 8.75-7.688 40.325-10 54 2.291-.187 5.019-3.29 6.438-3.375 3.584-7.768 11.093-26.01 12.719-37.375 3.117-18.002 6.62-36.679 1.906-54.594-2.77-10.737-7.053-21.238-10.719-31.687-4.61 3.477-10.99 5.24-13.937 5.469-7.93.766-42.65 1.282-48.438-4.22-1.738-1.031-4.02-3.085-5.844-5.687z" fill="url(#U)"/><path d="M232.422 390.93c22.423 5.226 14.366 19 14.344 22.469-1.395 4.11-19.566 15.032-26.188 15.093-7.83-.007-17.734 1.016-23-5.687-1.882-3.704-4.478-8.701-4.406-12.969 3.695 7.393 9.042 5.656 16.812 4.875 7.429-1.294 45.68-1.658 23.75-18.156-.472-2.006-.953-3.99-1.312-5.625z" fill="url(#V)"/><path d="M502.61 391.524c.015.105.015.21.03.312-10.81 7.964 1.216 10.236 7.688 10.813 6.36.561 12.33 2.378 18.469 4.125 6.262 1.32 34.99 4.293 24.969-6.813a94.19 94.19 0 001.687-5.375c14.441 17.955-6.593 23.45-11.562 23.625-7.93.633-37.43 1.474-42.282-2.406-8.012-4.226-20.757-19.239 1-24.281z" fill="url(#W)"/></g><g><path d="M472.281 71.156c-.73.156-1.34.839-1.875 1.125-.037.02-.088.048-.125.063-.03.011-.084.046-.125.062-.006.003-.025-.002-.031 0h-.062c-.04.002-.092.002-.125 0h-.032c-.038-.007-.089-.023-.125-.031h-.031a1.015 1.015 0 01-.125-.063s-3.518-1.033-4.063-1.124h-.03v.03c-27.374 2.633-49.685 21.341-64.72 42.72-2.446.723-2.987 1.843-3.875 2.906l-.093 4.594.031-.032h.031v.063c-.07.338-.63 1.677-1.187 2.625-5.132-3.41-18.962-10.48-34.406-1.656-.603.296-1.178.627-1.75.968-3.88-4.286-21.46-3.043-27.22 3.625-7.666-5.344-31.151-16.025-33.312-17.719l-5.062.438v.031h-.031c-2.288.044-55.839-10.265-75.47-11.687-3.033-1.814-6.042-1.005-8.968-1.625l-3.625 1.219c-.603.06-6.562 1.763-9.656 1.78-21.698.128-47.286 1.954-72.188 8.126l-10.594 1.562v.031a2.61 2.61 0 01-.062.063c-2.642 1.805-52.706 21.206-70.406 37.25-2.224.56-2.31.893-4.157.844 0 0-29.69 41.854-20.312 65.812-1.506 2.3-1.49 2.42-1.781 4.156 0 0 4.865 12.028 6.625 17.313 5.784 15.603 54.077 37.372 69.344 37.438l5.593.25c20.659-.565 41.64 1.186 61.969-1.688v-.031l.031-.063.063-.062c.447-.484 2.12-1.756 3.25-2.063-3.05 22.73 11.975 83.47 11.937 85.563V354l4.031 3.969c1.135 4.152 2.51 8.439 4.532 13.75l.5 1.219c-1.516.76-6.901 7.263-6.906 10.75 1.067 11.317 7.025 16.3 14.468 23.78 0 0 .525 9.32 1.719 12.813-2.186 10.801-6.978 25.773-7.125 36.625 2.006 41.161 19.855 70.61 42.5 111.938 0 0 12.149-1.102 13-.75l.031.031 4.438-2.313a15.25 15.25 0 00-.688-1.312c5.068-1.374 17.96-2.127 19.344-1.594l.063.032h.03l2.063-2.625c-.387-.465-1.024-1.335-1.875-2.5 6.065-2.41 10.889-4.83 16.844-7.688 1.02 1.667 2.865 2.627 3.344 3.031l.062.063.031.031s14.924-12.102 21.188-15.844c.954 2.002 1.643 3.544 1.938 4.407l2.312-3.188v-.031-.032l.031-.03.031-.063c1.188-1.76 17.125-15.206 17.688-15.657h.031c.063-.01.177-.007.25 0h.063l.062.032.063.031c-13.919-52.778-66.189-109.778-75.688-118.688-.48-5.305-4.68-11.225-21.781-14.5-.175-.88-.262-1.6-.281-2.062-.188-8.833.091-17.88-6.469-24.625-5.594-2.803-10.998-2.953-16.781-2.156-6.462-21.694-7.121-36.832-7.438-54.813l.031-.031v-.031-.031-.032-.031l-.03-.031-.032-.031c-.251-.302-1.048-.78-1.375-1.094l-.031-.031c-.02-.026-.05-.076-.063-.094l-.031-.031v-.032a.94.94 0 010-.062l.031-.031V297.5h-.031v-.031c-.263-.881-.062-15.78 1-25.063a181.418 181.418 0 013-14.875c17.7-7.197 27.707-9.654 41.906-18 .125.024.264.034.375.031h.063c.067-.009.158-.042.219-.062.074-.027.182-.083.25-.125.042-.031.114-.085.156-.125l.062-.063c.042-.047.095-.115.125-.156l.031-.062c.418-.684.507-1.775.657-2.188v-.031l.031-.031.031-.063h.031l.032-.031h.031l5.906-.781v-.031h.031c1.125-.874 29.331-15.115 43-22.25 1.7.359 2.797-1.153 4.657-1.282 0 0 12.022-8.724 15.156-9.281 3.878 2.068 6.734 2.815 10.5 2.781-2.197 2.566-3.938 4.893-4.531 6.469-1.753 6.57-9.875 22.448-1.781 40.281 3.823 7.891 27.691 16.729 40.718 14.844 6.387-1.23 21.546-4.8 26.094-10.75.196-.993.169-1.69-.094-2.188a1.886 1.886 0 00-.219-.312c-.013-.015-.048-.047-.062-.063-.353-.357-.897-.64-1.625-.906-4.276 2.69-6.926 9.408-24.125 11.813-8.963.628-32.626-4.397-38.125-13.594-4.884-11.033-4.707-25.982 2.906-38.125 1.632-4.38 9.576-13.343 15.813-18.313.759 2.998 1.447 5.177 1.844 5.75.005.008.025.025.03.032.013.015.047.047.063.062l.031.031h.063c.303.816.636 1.625.969 2.407-7.812 6.25-17.329 20.967-15.188 36.687 1.073 5.51 11.822 15.06 20.594 16.438 8.895 1.26 27.045-4.192 30.375-7.156-1.612-.616-2.08-2.564-4.563-1.625-2.279 1.709-19.035 6.804-25.375 6.28-7.992-1.667-17.675-10.489-18.437-14.5-1.508-16.122 7.382-28.715 13.719-33.655 2.483 5.014 5.668 8.973 9.719 10.718 9.726 5.353 22.748 6.29 32.25 6.938-.422 4.058-3.512 11.065-4.97 13.125 1.452-.16 2.75.724 3.344 1.25 1.691-3.02 3.593-9.548 3.97-14.219.714.05 1.404.102 2.062.156 1.23.497 2.443.775 3.656.813.702.593 1.51 1.321 2.406 2.156-.577 5.5-2.285 14.436-7.094 19.188 1.257.582 1.822 1.512 2.563 2.78 4.309-4.611 6.202-15.573 6.531-20.062 7.291 7.049 17.733 18.232 18.625 19.125l2.844-.812a1.282 1.282 0 000-.063h.031c.935.297 10.984 5.514 16.188 8.844 9.926 5.956 27.353 16.32 43.719 22.688 1.65 2.817 3.417 2.21 5.25 3.375l1.906-1.594v-.031h.062c1.446.12 26.312 7.501 30.75 8.312.405 7.409.608 14.44.75 20.813-.071 7.975-.32 11.488-.343 17.03-1.368 3.257-1.948 9.395-2.157 13.157 0 0 1.068 12.805-.625 21.688-6.772.08-12.791 1.945-15.156 7.718-1.604 4.594-.921 13.243-.094 19.625l-.156-.219c-16.699 5.416-16.86 14.36-13.25 20.938-8.725 9.909-19.735 59.276-21.094 81.281-.652 16.964 3.619 28.798 1.25 50.938l3.938.312c0-.005 11.098 3.68 11.844 4.188l.03.031 4.094 1.563c-.074-.397-.16-1.513-.25-3.125 4.828.426 14.997 2.755 15.938 3.312l.031.031h.031v.032l4.563-.407c-.001-.352.008-1.137.031-2.25 7.226-.035 14.479-.318 21.094-.656-.042 1.472-.06 2.58-.063 3.219l4.157-.813v-.031l.031-.031.031-.032.063-.062.031-.031c1.038-.8 6.458-2.834 8.969-3-.387 2.026-.644 3.663-.75 4.75l4.968-2.5v-.032l.032-.062.031-.031c.014-.02.041-.066.063-.094l.03-.031c.84-.822 4.542-2.582 5.907-2.657l3.469 1.344c1.51-2.64 10.925-27.69 13.062-42.562 3.086-18.733 5.687-38.136.469-56.719-2.66-9.947-7.4-22.398-10.906-30.938 4.778-4.593 6.212-11.565-3.969-21.156 1.246-4.848 2.13-10.167 1.469-13.969-.887-3.131-9.635-10.019-12.719-12.03.644-20.91 1.102-26.65.875-48.032-.003-4.503 1.741-8.516 1.813-13.313l-.5-4.812c-.067-.3-1.046-5.277-1.032-8.344 19.898 2.23 38.804 1.616 52.969-5.781l8.031-3v-.031h-.031v-.031-.032c.001-.006-.002-.024 0-.031.591-1.862 15.457-22.038 16.5-41.938.59-15.886-4.208-50.678-4.156-51.75l-2.407-5.343c-1.224-.997-31.764-54.933-57.156-75.563-.937-1.425-1.707-1.91-2.343-2-.663-.082-1.212.252-1.688.313h-.031c-.028.006-.092.024-.125.031h-.062c-.038-.008-.098-.024-.126-.031a1.136 1.136 0 01-.25-.125l-4.187-4.625h-.032c-1.431-.65-48.344-27.496-76.718-30.656-.568-.517-1.06-.69-1.5-.657h-.125c-.026.004-.037-.005-.063 0zm-3.062 3.938c.1-.007.215.001.312 0 .847-.012 1.694.041 2.563.156 8.085 7.289 21.547 24.275 27.687 33.375-12.046-3.556-28.313-6.788-48.75-3.125-4.368.789-8.744 2.74-12.969 5.469-8.265-.028-24.942.839-34.406 2.625 10.549-14.139 33.297-35.913 58.844-38.188 2.194.13 4.313-.196 6.438-.281.097-.004.181-.025.28-.031zm6.906.156c27.722 4.838 56.657 19.936 79.563 38.375 2.14 11.278 3.24 29.796 3.25 40.406-10.754-10.684-21.93-22.69-32.438-33.094-6.862-4.808-13.157-7.86-21.844-11.156-5.348-9.134-19.734-25.758-28.531-34.531zM209.094 99.313c.023-.004.04.003.062 0a1.596 1.596 0 01.094 0h.062a.714.714 0 00.063 0h.187c.109-.008.23.001.344 0 .18-.004.366.019.563.03 6.312 3.223 17.279 11.38 22.281 13.22 4.924 2 9.955 7.717 13.531 11.624-16.538-2.53-34.09-4-50.875-3.78-10.018.13-17.265 2.672-27.094 3.624-9.242-6.345-28.576-12.824-39.687-15.062 24.57-5.188 72.96-6.746 73.25-6.75 3.65.21 4.312-2.426 7.219-2.906zm11 .906c24.76 1.71 51.872 8.4 77.156 11.5 4.793 6.775 12.876 21.367 19.25 29.5-19.291-8.236-46.265-13.94-63.125-17.438-1.294-.283-1.93.773-3.219.531-4.37-5.223-9.509-12.267-15.625-14.562-3.555-1.276-10.622-7.043-14.437-9.531zm249.25 5.219h.5c.193-.007.37.001.562 0 10.115-.08 27.178 4.99 28.469 6.093l.031.031.031.032v.031l7.47 2.406a.767.767 0 01.03-.031h.032c.932.01 12.235 4.671 17.687 8.469 11.274 10.316 31.31 32.147 32.25 34.375l.032.062a1.302 1.302 0 010 .063V157l5.25 3.75h.062l.031.031c1.488 1.08 20.54 22.767 28.157 35.594 1.489 7.949.613 22.737-.375 24.781a1.822 1.822 0 01-.094.156 1.959 1.959 0 01-.032.032l-.03.031h-.063l-2.657 6.688h.063v.03l.031.032c.316 1.036-2.24 11.778-5.406 16.719-7.185 10.834-25.235 15.057-27.625 14.5h-.031l-.063-.031a1.856 1.856 0 01-.062-.032l-.032-.031-.03-.031-.032-.031v-.032l-5.375.031v.188l-.031.031v.063l-.032.031-.03.063a3.466 3.466 0 01-.063.062l-.063.031-.031.031-.031.032c-.616.349-2.116.311-3.375.125-1.748-16.18-14.06-50.737-14.469-51.938 0 0-4.281.35-5.375-.656a6.808 6.808 0 01-.063-.063c-18.014-18.87-33.735-40.459-60.75-45.062a369.34 369.34 0 00-8.156-.594c-3.981-2.595-5.97-2.39-6.562-2.219l-.063.032-.031.031a1.743 1.743 0 01-.063.031 1.069 1.069 0 01-.156.094c-1.16.477-6.746.804-7.594 1.219h-.03l-.032.031-.031.031v.125h.031c.103 0 .22-.002.281 0h.031l.032.031v.032h-.031c-1.04.286-10.086 1.224-18.25.406a33.884 33.884 0 002.28-3.469c8.502-9.065 8.501-19.247-5.343-26.25 5.068-6.371 20.555-17.334 22.219-17.937h.093l2-2.594a1.166 1.166 0 01-.03-.031v-.031l.03-.032.032-.031c.448-.534 3.598-2.597 5.969-3.031a85.693 85.693 0 0118.843-2.5h.031l.032-.031zm-348.563 5.28c13.085 4.322 32.49 7.99 43.375 13.688-11.041 1.186-24.36.899-35.5 3.031-12.309 2.175-24.864 5.349-36.25 10.344-12.649-.888-32.632 3.605-45.094 7.875 18.453-15.593 47.066-26.982 73.47-34.937zm437.906 1.376c24.584 20.794 42.066 50.988 55.938 76.281-4.525 8.882-14.964 27.525-22.031 33.5 1.531-8.906 2.265-19.31-.032-27.438-8.036-14.86-19.157-25.931-30.968-37.906.056-9.386-1.32-32.114-2.907-44.437zm-120.062.875c-5.927 4.603-16.033 11.444-20.656 17.656h-.031l-.032.031c-.533.484-3.793 5.251-4.156 6.031l-.031.032v.062a93.093 93.093 0 00-4.594 8.031c-.538.266-1.03.49-1.438.688-2.63.738-12.718 1.613-13.843 1.031h-.031v-.031h-.032v-.031h-.031v-.031l-5.281.218v-.031c.477-.882 3.922-10.863 7.625-17.531a4.75 4.75 0 00.031-.031c.84-.712 1.663-2.865 2.031-3.375v-.032c-.122-.363-1.003-3.406 1.844-7.594 8.097-2.565 38.572-5.09 38.625-5.093zm-134.75 1.969c9.925 3.21 19.962 9.415 28.75 15.124 3.991 2.813 8.03 12.348 10.625 16a84.975 84.975 0 00-3.5 12.97c-3.643-6.622-10.235-11.916-18.406-16.22-9.096-7.81-13.168-19.886-17.469-27.875zm73.656 6h.188a.95.95 0 00.062 0c.126-.007.253 0 .375 0 7.021-.063 15.223 4.18 16.313 5.062l.031.031a1.737 1.737 0 01.063.063v.031a.89.89 0 00-.032 0c-6.142 3.163-21.098 15.49-23.469 26.875-.944 13.832-3.953 28.107-.125 41.594.287.98.626 2.02 1.032 3.094-14.438-9.232-22.847-42.62-24.188-58.625 0-.01 9.274-8.312 16.063-13.657 4.415-3.087 9.13-4.284 13.562-4.437h.094l.031-.031zm-177.875.937h.031a1.415 1.415 0 01.063 0c1.008.073 47.566 5.043 50.094 5.625l.031.031h.031l3.781.188c-.117-.12-.226-.254-.343-.375 16.401 3.254 37.81 5.442 56.375 12.687-3.67 2.284-6.43 8.008-5.625 11.906-13.469 3.068-28.404 6.73-32.5 7.844-5.309 1.519-16.561 3.832-26.75 8.844-.009.004-3.378 3.19-5.5 4.125l-1.469 2.094c-14.623 7.656-28.712 16.221-32.375 20.969-11.991 12.232-26.445 25.03-34.313 39.687h-.03c-1.33.132-17.183.273-37.5.906-1.524-.632-4.733 1.261-6.282 1.094 0 0-43.766-1.688-55-9.625-1.016-.703-4.618-2.092-5.563-2.844a5.672 5.672 0 00.532.031h.031c.008-.004.05-.025.063-.03h.03V225h.032v-.031a1.922 1.922 0 01-.031-.031v-.032l-.031-.031a3.252 3.252 0 01-.032-.031c-1.35-1.353-16.635-9.297-14.312-39.688l3.156-3.125V182v-.063l.031-.062v-.031-.031a5.497 5.497 0 01-.031-.063 1.543 1.543 0 010-.094v-.031l-.031-.063c-.23-.69-1.154-1.515-1.407-2.218l-.03-.063v-.031c-.008-.028-.025-.092-.032-.125a1.604 1.604 0 010-.094v-.062-.031c.006-.022.024-.073.031-.094v-.031c5.365-18.087 36.148-36.328 38.563-37.032h.093l2.97-2.094c-.324-.19-.643-.39-.97-.562 10.517-4.214 21.836-6.978 32.594-8.969 11.886-2.28 37.66-3.72 40.188-2.687.033.015.095.045.125.062l.031.031 2.313-1.25v-.03-.032l.03-.031.032-.031.063-.032c2.18-1.03 27.137-4.08 28.843-4.281zm149.531 1.781c.016-.003.046.002.063 0 .068-.007.151.001.219 0 2.748-.04 5.504.33 8.031 1.125l-13.719 11.156c-.103.806-.105 1.934 0 3.344-2.021-4.01-5.299-7.598-9.531-10.844 2.92-2.512 8.155-4.377 13.625-4.75h.063a1.497 1.497 0 00.093 0h.219c.04.002.08.003.125 0 .09-.004.191.004.281 0 .138-.005.268.004.406 0 .017 0 .048.003.063 0 .023-.004.04-.026.063-.03zm41.532 9.688a137.198 137.198 0 00-7.406 18.094c-3.115.578-5.969.988-8.188 1.093 2.128-7.97 9.672-14.516 15.594-19.187zm27.562 2.469c12.245.074 8.148 13.815 6.75 18-3.73 6.124-16.022 15.502-22 19.28-3.854 2.928-17.687 7.378-26.125 10.063-.01.003-.022-.003-.031 0-.1.001-.184-.003-.281 0-.092.003-.192-.004-.281 0 4.13-6.492 14.989-23.734 17.937-33.375 7.341-1.297 13.14.108 16.219-.75 4.818-2.142 8.422-7.646 7.812-13.219zm-4.094 3.78c-.211 1.624-1.293 2.843-2.593 3.782.804-1.189 1.658-2.461 2.594-3.781zm-331.25.97c.097-.006.186.005.282 0 .097-.006.185.004.281 0 .097-.005.185.003.281 0 .097-.004.185.003.281 0 .848-.029 4.662.315 5.47.343-15.593 8.069-35.092 27.608-36.75 41.031-7.87 4.629-21.224 17.05-29.22 26.594-9.907-16.588 4.1-43.14 18.97-57.937 10.953-3.089 28.132-9.282 40.406-10.031zm230.344.937c1.611.703 6.484 4.035 7.375 4.875l2-.063a67.55 67.55 0 012.156 1.344c-3.626.552-9.926 1.833-16.968 3.406.722-2.491 2.372-6.969 5.437-9.562zm13.125 7.25c4.448 3.107 8.493 6.752 11.938 11.094-2.345.58-4.5 1.578-6.469 2.812-8.708 1.823-25.52 5.197-39.406 8.375-8.055-2.405-32.03-2.47-45.375-1.031 7.239-3.364 22.082-7.037 26.031-8.125 6.876-1.898 43.138-10.176 53.281-13.125zm64.094 1.938h.125c-3.185 7.984-13.512 23.469-16.781 29.187-.46-7.906.21-15.942.812-23.813 3.106-.847 10.577-4.385 15.844-5.375zm-44.781.343c4.159 18.43 15.42 46.177 32.437 52.438 3.622 6.866 5.734 14.938 11.125 18.531-7.59-.633-18.215-1.4-30.625-8.563-12.094-7.332-17.498-36.392-16.656-46.062.23-3.892 1.297-9.823 3.719-16.344zm-6.5 10.938h.031a61.46 61.46 0 00-.563 5.156c-1.234 4.545.388 15.37 2.157 23.531.002.01-.002.021 0 .031-1.765 2.228-7.192 7.542-11.75 12.563-4.348-.129-10.361-1.012-13.781-2.406l-.063-.031c-.002-.004 1.712-12.453 3.25-16.094 3.615-5.071 11.8-21.11 20.719-22.75zm104.281.344c.117-.005.225.004.344 0 .12-.005.253.003.375 0 .25-.008.492.004.75 0a62.754 62.754 0 015.687.187c10.36 6.301 26.833 23.462 33.5 31.969-5.385-2.861-13.458-7.491-20.375-8.469-12.772-1.397-24.118-.849-36.062-2.469-.003 0-9.164-11.032-13.469-13.312 2.503-1.922 4.854-4.027 6.938-6.375 10.2.448 14.945-1.217 22.312-1.531zm16.781 2.28c.022-.002.041.002.063 0 .085-.006.168.002.25 0 1.575-.028 3.53.05 5.281.75 25.603 4.753 42.284 27 59.375 45 .873 1.037 1.363 3.404 2.156 4.47-.169 10.693-2.6 29.886-8.156 43.218-4.126-24.666-12.53-48.495-30.219-61.812-5.583-8.35-19.286-22.945-30.719-31.563.427.03 1.06-.011 1.782-.031.057-.002.123-.022.187-.031zm-131.875.626c-4.642 4.015-8.086 9.344-10.687 13.687-3.705-2.181-6.869-5.995-7.125-9.437 6.509-1.455 12.744-2.879 17.812-4.25zm-20.594 4.875c.47 4.313 3.972 7.15 6.657 10.625-10.817 5.606-21.792 11.345-32.844 16.312-3.129 1.473-6.102 2.9-8.969 4.281-1.39.017-2.823.13-4.312.375 0 0-31.699 17.08-52.188 23 1.45-2.626 6.614-7.923 7.906-8.437l.063-.031h.031l.313-4.031c-.084.014-.167.047-.25.062 12.056-15.968 28.792-28.023 51.344-34.375 3.954-1.232 16.321-3.168 17.625-3.031.005.005.026.025.03.031h.032l3.188-2.156a1.737 1.737 0 01-.032-.031l-.031-.032a1.674 1.674 0 00-.031-.031c3.767-.848 7.643-1.682 11.469-2.531zm-41.406 1.312c.006-.003.026.003.031 0h.157a2.65 2.65 0 00.094 0h.374c.24-.006.474.002.72 0 7.355-.048 17.323.53 21.937 1.281-4.48 1.093-12.588 2.121-15.313 3-23.798 6.947-41.22 20.027-53.625 37.25-15.393 3.405-38.263 17.47-47.844 23.313 6.684-11.584 24.378-28.513 34.344-38.781 3.876-4.886 18.485-15.477 35-23.813.02-.01 17.281-2.09 24.063-2.219h.031c.005-.002.025-.027.031-.03zm145.313.625c2.41 1.857 10.307 6.179 12.594 12.438-5.436-2.948-15.36-5.43-21.563-6.906 2.28-1.133 4.094-2.167 5.156-2.97a96.384 96.384 0 003.813-2.562zm-10.531 6.25a188.536 188.536 0 0014.468 3.625l-.281.031c-.164 8.305-8.042 12.315-15.156 14.282-2.568-5.835-8.367-9.522-14.031-11.438 5.077-2.082 10.653-4.422 15-6.5zm-85.25 3.656a53.848 53.848 0 01-1.72 2.75c-2.163 5.393-2.382 10.953-.156 16.032-3.453.109-6.514 4.994-14.406 9.187-5.137-1.399-14.283-6.9-21.5-8.156 1.793-.857 3.632-1.728 5.531-2.625 11.769-5.404 21.009-11.449 32.25-17.188zm101.593 1.22c1.561.307 3.7.916 4.375 2 .122.203.18.448.188.687l5.875.562v-.031l.031-.031c.02-.009.07-.025.094-.031 1.94-.628 23.814.44 37.156 2 7.5 1.171 19.148 9.817 19.969 11.187h.031v.094l7.25 3.125c6.827 4.855 20.422 32.432 24.031 54.094-16.25-3.354-43.788-16.718-45.312-17.938a1.72 1.72 0 01-.031-.031h-.032s-3.614.282-4.687-.313c-9.743-5.745-31.026-17.815-51.625-29l-7.563-5.344v.032h-.031l-.031.031h-.031c-.528.013-2.872-.52-5.594-1.344a16.8 16.8 0 00-.469-4.125c6.571-1.78 14.074-5.743 16.406-15.625zm-35.906 3.5c.011.002.02-.004.031 0 6.037 1.614 12.112 5.972 15.375 10.312-.292.06 1.136 2.487 1.531 2.406.488.982.781 1.95.875 2.844-1.86-.632-3.728-1.364-5.187-2.125.712-.095-15.796-7.98-18.875-9.219-.124-.53-.267-1.06-.375-1.594a735.437 735.437 0 006.625-2.625zm-331.125.25c-3.586 17.388 2.357 30.515 15.906 41.187 2.138 5.758 5.048 12.475 7.625 15.75 3.28 4.305 14.067 14.436 18.438 23.656-30.114-5.689-58.067-18.118-65.094-33.875-2.269-7.052-3.783-13.741-4.594-20.094 6.582-9.412 18.539-20.175 27.719-26.625zm565.25 5.624c4.37 14.207 5.383 34.116 4.719 48.844-1.272 21.003-10.12 34.45-20.282 42.313-16.427-2.449-39.617-10.83-46.812-21.407 12.214 1.066 21.169-6.586 29.844-14.656 4.076-6.46 5.351-13.302 7.281-21.375 7.474-5.667 19.835-25.04 25.25-33.719zm-239.125 2.097c5.892 2.426 19.347 7.044 34.406 15.122 1.715 6.936 5.913 25.066 7.313 32.531-6.033-4.159-14.955-13.936-20.469-18.062 0 0-2.59-2.356-4.063-3.094h-.03l-.032-.031c-2.442-1.887-4.734-3.69-6.781-5.406-.024-.026-.07-.069-.094-.094-2.418-2.775-2.983-5.69-4.624-9.108-.349-1.546-5.148-10.377-5.626-11.858zm-105.344 8.81c6.115.365 18.13 5.377 24.219 7.78-13.878 7.62-30.474 17.189-44.813 23.095-8.285-1.74-25.815-4.706-32.062-7.97 21.557-6.2 33.088-13.513 52.656-22.905zm143.813 8.625c19.338 10.433 51.762 29.553 53.812 30.593 1.955 6.889 9.365 24.417 13.156 32.438-14.424-5.665-31.578-15.775-40.53-21.063-5.608-3.531-13.117-8.413-21.032-13.781-1.17-6.685-2.94-19.99-5.406-28.188zm-194.625 2.656c-7.26 11.285-15.416 26.985-19.125 40.906h-.031v.125c-1.629 6.13-2.934 12.469-3.97 18.969-1.191 10.285-.223 17.689-.03 25.844-7.434 10.56-16.662 39.571-20.282 51.718-.72-3.326-3.33-13.886-4.375-17.75-6.67-37.044-8.893-81.612-1.312-94.062 9.18-5.635 35.993-22.079 49.125-25.75zm310.187.031c6.342 19.128 13.648 57.964 13.282 87.688-5.014 3.686-16.216 13.823-21.72 22.812.11-4.162 1.137-10.504 1.157-16.156-.355-13.198-1.648-27.222-3.813-42.906 5.673-10.031 10.26-37.778 11.094-51.438zM214.72 227.438h.031c1.195.275 21.232 7.77 29.625 9.468-12.4 7.33-24.504 10.92-39.938 17.406 2.572-9.557 5.984-18.56 10.282-26.875zm-144.156 3.718c13.217 2.581 34.774 10.213 58.437 8.688 7.813 5.93 21.843 23.785 24.938 28.187-15.918 3.92-37.047 3.616-57.563.156-5.178-12.024-16.637-22.317-20.281-27.218-1.647-2.128-3.743-6.119-5.531-9.813zm98.78 6.75c-1.378 1.558-1.674 2.836-1.312 3.531l.031.063c.017.026.044.07.063.094l.031.031.031.031.032.031.031.032c.041.035.11.096.156.125l.063.031.031.031v.063c.157 1.439-3.377 17.173-4.313 22.594a54.046 54.046 0 01-6.218 2.343c-3.625-6.013-14.374-21.08-23.094-27.781 10.616-.93 24.534.733 34.469-1.219zm303.188 4.406h.063c13.718 6.517 27.645 15.294 44.562 18.657a1.807 1.807 0 000 .062l.032.031v.032l-.032.031v.031c-.136.458-.757 1.309-1.875 2.625l1.907 4.719h.03l.032.031.031.063c.462 1.288 1.983 11.293 2.313 16.562-5.124-1.102-18.1-2.736-33.438-8.594-3.205-6.876-15.347-32.244-13.656-34.187l.031-.031v-.031zm72.063 18.875c2.043.296 3.994.562 5.875.782 6.752 10.028 28.03 19.792 43.218 23.562-13.374 6.054-30.388 6.698-47.906 4.469.007-9.527-.225-19.255-1.187-28.813zm-346.625 43.094c2.18 15.427 3.345 36.11 9.094 57.469-8.385 2.652-16.64 7.79-21.157 9.469-2.484-6.255-3.959-11.653-5.187-17.031-.33-10.165 8.04-37.85 17.25-49.907zm346.219 1.781c-.04 2.238-1.039 6.114-1.032 8.313.287 21.133 1.36 30.695.438 51.25-2.99-.414-14.573-4.356-24.875-4.563 2.589-13.708 1.77-20.208 2.281-29.75 4.463-9.641 17.66-20.682 23.188-25.25zm-25.282 56.563c.027-.003.068.002.094 0 .106-.007.211 0 .313 0 8.437-.022 18.135 3.626 22.437 4.25 1.956 4.241 10.837 8.616 12.094 13.156 1.168 6.37-3.586 22.238-4.938 26-4.18.142-11.965-1.474-16.406-1.437-6.253-1.795-15.388-3.643-21.875-4.219-2.024-.16-4.346-.488-5.875-1.563-.297-2.707-.948-22.268 1.031-28.53 2.09-5.141 6.445-7.22 11.5-7.626h.5c.084-.005.166.004.25 0 .085-.004.165.004.25 0 .132-.005.274.003.407 0 .075-.002.139-.022.218-.031zm-305.562.188h.062a1.007 1.007 0 00.063 0h.156a1.162 1.162 0 01.063 0c2.848-.044 5.774.487 8.718 1.78 5.363 5.67 6.65 16.23 6.813 23.563.164 2.202 2.62 13.517 3.031 18.063-4.603 3.665-14.528 5.766-20.375 5.469-3.752.348-10.211 1.175-13.25-.407-.478-.476-.96-.963-1.469-1.469l-.031-.03c0-.004-16.544-17.076-17.594-26.063 3.288-15.761 30.353-20.4 33.813-20.906zm19.062 28.125c22.423 5.225 14.366 19 14.344 22.468-1.395 4.111-19.566 15.033-26.188 15.094-7.83-.007-17.733 1.016-23-5.688-1.881-3.704-4.477-8.7-4.406-12.968 3.696 7.393 9.043 5.656 16.813 4.875 7.428-1.294 45.68-1.658 23.75-18.156-.473-2.006-.953-3.99-1.313-5.625zm270.188.593c.016.106.015.21.031.313-10.811 7.964 1.216 10.235 7.688 10.812 6.359.562 12.33 2.38 18.468 4.125 6.263 1.32 34.991 4.294 24.969-6.812a94.199 94.199 0 001.688-5.375c14.44 17.955-6.593 23.45-11.563 23.625-7.93.632-37.429 1.474-42.281-2.406-8.013-4.226-20.758-19.24 1-24.282zm-248.719 15c9.133 11.629 19.523 22.391 29.125 33.969 14.864 22.91 37.951 53.803 42.406 81.906-3.118 2.303-7.822 8.543-15.5 12.625-5.433-11.146-17.903-34.603-20.375-40.75-4.185-10.094-23.748-46.517-30.219-53.969l-.218.188c6.404 6.814 23.07 45.07 27.156 55.031 2.388 5.932 13.309 26.553 19.188 38.438-6.523 3.398-11.322 9.507-19.063 13.125-4.797-8.225-15.773-24.777-18.75-29.407-3.557-5.507-9.34-15.736-10.719-20.875l-1.375.407c1.914 7.733 5.059 15.134 9.375 21.812 2.75 4.367 11.952 19.388 17.281 28.094-6.147 2.842-12.186 5.318-18.25 7.844-6.808-9.64-19.415-27.728-22.03-32.657-4.427-7.486-17.646-36.025-18.22-37.468l-.156.375c1.205 4.862 11.642 31.118 16.25 38.969 2.531 4.793 15.884 24.433 22.781 34.437-5.615 2.287-13.69.85-18.562 2.5-5.12-8.26-15.5-24.195-16.406-26.844v.219c.549 7.466 9.697 22.734 13.875 30.313-2.566.781-7.627.596-9.75 1.062-22.185-38.12-39.899-71.08-41.344-110.625.32-10.332 3.177-21.017 5.188-31.125.06.112.124.232.187.344 6.35 8.303 12.55 8.93 22.219 8.937 7.969-.04 33.369-13.904 34.625-19.844.026-1.539 1.032-4.104 1.281-7.03zm236.063 4.5c1.824 2.602 4.105 4.656 5.843 5.688 5.789 5.501 40.508 4.985 48.438 4.219 2.946-.229 9.327-1.992 13.937-5.47 3.666 10.45 7.948 20.951 10.719 31.688 4.715 17.915 1.211 36.592-1.906 54.594-1.626 11.365-9.135 29.607-12.719 37.375-1.42.085-4.147 3.188-6.438 3.375 2.312-13.675 8.661-45.25 10-54 1.478-9.71.987-19.49 1.157-29.281l-1.375.406c.217 9.531-2.51 26.76-3.75 36.219-1.28 7.994-6.893 30.781-9.657 44.062-2.956.243-6.273 2.925-9.875 3.188-.084-11.252-.325-35.797-.78-43.219-1.12-11.344-3.615-22.46-5.563-33.656l-.563.406c2.154 11.327 2.632 22.176 3.719 33.688.381 7.204-.102 29.943-.469 41.468-6.64.447-14.215.011-21.437.157.219-9.528.714-28.605.625-35.282-.192-6.442-.792-15.34-1.875-20.437h-2.188c1.357 6.74.98 14.098 1.188 20.969.083 6.566-1.374 27.079-2.063 36.687-5.761.033-11.389-1.981-16.5-2.406-.424-9.748-.817-28.326-.5-34.532.185-10.106-1.99-40.527.406-50.312l-1.78-.406c-2.24 11.382-1.731 39.705-1.907 49.812-.25 6.616-.328 27.447-.125 36.625-4.466-.536-8.417-2.93-11.531-4.062.685-19.42-2.416-34.203-1.781-50.063 1.336-20.864 9.72-60.675 18.75-77.5z"/><path d="M368.719 231.656c-.827.053-1.6.208-2.281.406-5.11 1.926-17.291 10.396-16.938 23.188l3.031-.219c1.487-15.743 10.388-17.795 14.313-19.312 9.692-4.095 20.423 4.14 25.062 11.594 1.684 2.9 5.249 19.412 6.406 25.062-.438-.023.766.315.743.5 3.273.323 4.375.718 7.664 1.25 2.743.343 4.852.186 5.562-.281.056-.039.12-.082.156-.125.012-.015.022-.048.032-.063.003-.005.028-.026.031-.031.002-.005-.002-.026 0-.031.006-.016.028-.047.031-.063v-.031-.031c0-.011.002-.051 0-.063v-.031c-.001-.006-.03-.025-.031-.031-.002-.006.002-.026 0-.031l-.031-.063c-.013-.025-.045-.069-.063-.094-.032-.044-.078-.11-.125-.156-.651-.627-2.58-1.437-6.219-2.313-1.498-.104-3.01-.22-4.53-.312-.233-11.466-6.693-24.049-9.313-27.781-5.034-6.579-16.267-11.225-23.25-10.938-.087.004-.165-.005-.25 0zm1.594 13.5c-5.331.196-7.27 2.406-8.657 7.75h3.25c.216-1.393 2.962-4.166 6.281-4.594 4.588.66 7.568.002 11.22 2.782 2.805 2.879 3.874 6.406 4.343 10.281-.08 2.388.502 5.695.969 8.438a327.793 327.793 0 00-9.656-.125h-.032a.444.444 0 01-.062-.032c-.019-.012-.044-.044-.063-.062l-.031-.031c-.004-.006-.027-.026-.031-.032-.147-.2-.29-.558-.438-.75l-.031-.031-.031-.031c-.01-.009-.022-.024-.031-.031a.46.46 0 00-.063-.032h-.062c-4.046.03-8.196 1.169-12.25 1.375-.14-1.495-.333-3.646-.407-4.406l-2.5.375c.234.615.546 4.337.781 5.875-1.347.08.352.53 3 .406 10.358-.483 26.419-.17 24.97-.219-.633-2.782-1.718-8.68-1.626-10.937-.533-5.187-2.992-9.53-6.812-13.25-4.45-3.346-5.62-2.031-11.219-2.719-.279 0-.55-.01-.813 0zm-19.344 19.313c.449 1.32.186 4.488.156 6.687-.5.45-.819.801-.906 1.063-.002.005.001.025 0 .031-.002.005 0 .026 0 .031-.003.016-.03.048-.031.063v.031c0 .005.03.026.03.031.002.005 0 .027 0 .031.002.005 0 .027 0 .032.007.013.024.05.032.062.006.008.025.024.031.031a.774.774 0 00.031.032c.005.003.027.027.032.031.014.01.046.021.062.031.437.25 1.673 1.426 3.667 1.36.068-1.84-.233-7.715-.23-8.422 0 .002-.029-.003-.03 0-.002.003 0 .028 0 .031l-2.844-1.156z"/></g></svg>