<svg width="400pt" height="400pt" xmlns="http://www.w3.org/2000/svg"><path d="M157.219 412.757c.909 52.71 198.115 52.71 197.206.909-.909-55.436-195.389-56.344-197.206-.909z" fill="#623e35" fill-rule="evenodd" stroke="#000" stroke-width="3.75" stroke-linejoin="bevel"/><path d="M212.655 306.43l-.909 107.235c7.948 11.814 76.771 13.633 88.152-.908V305.521c-9.997 15.449-67.251 20.902-87.243.909z" transform="matrix(.61856 0 0 1 98.944 -.909)" fill="#623e35" fill-rule="evenodd" stroke="#000" stroke-width="4.768" stroke-linejoin="bevel"/><path d="M249.006 163.751c-3.635 10.906-113.597 87.243-176.303 125.411 37.259 100.875 322.618 97.24 353.516.002-53.618-15.45-174.487-115.416-177.213-125.413z" fill="#009500" fill-rule="evenodd" stroke="#000" stroke-width="3.75" stroke-linejoin="bevel"/><path d="M248.097 96.501c-3.635 10.906-79.972 87.244-142.678 125.412 39.077 56.345 250.824 62.707 285.357-1.816-53.618-15.45-139.953-113.599-142.679-123.596z" fill="#009500" fill-rule="evenodd" stroke="#000" stroke-width="3.75" stroke-linejoin="bevel"/><path d="M157.343 412.757l1.253 19.084c42.712 49.983 181.728 37.385 194.451.125l1.158-19.209c1.818 53.618-194.135 50.892-196.862 0z" fill="#623e35" fill-rule="evenodd" stroke="#000" stroke-width="3.75" stroke-linejoin="bevel"/><path d="M248.097 24.708c-3.635 10.905-40.895 82.699-103.6 120.867 37.259 44.531 178.121 48.167 212.654.91-53.618-15.45-106.328-111.78-109.054-121.777z" fill="#009500" fill-rule="evenodd" stroke="#000" stroke-width="3.75" stroke-linejoin="bevel"/><path d="M247.188 38.34c-28.172 52.709-76.338 98.148-95.422 107.235 8.18 14.541 54.527 29.082 73.612 26.356-11.814-30.899-9.089-59.98 21.81-133.591z" fill="#fff" fill-rule="evenodd" fill-opacity=".5"/><path d="M179.938 171.93c-11.814 9.997-54.526 43.622-65.432 50.892-8.179.909 42.713 29.081 60.889 29.081-39.987-23.628 41.804-74.52 4.543-79.973zM140.861 250.994c-14.54 9.088-38.169 26.355-62.706 39.077 5.453 19.994 45.439 45.44 54.527 48.166-36.351-45.439 42.713-78.155 8.179-87.243z" fill="#fff" fill-rule="evenodd" fill-opacity=".498"/><path d="M233.308 366.285c.813 12.723-1.665 37.202.315 47.008 13.632 6.763 22.653 5.261 33.339 4.821-13.632-5.453-24.633-15.726-33.654-51.829zM222.459 376.374c-20.662 2.755-67.151 14.807-60.953 39.601 6.199 22.728 51.999 27.205 64.741 30.649-6.199-7.232-54.41-40.636-3.788-70.25zM161.162 428.028c2.411 1.033 11.709 13.775 47.523 28.927-15.153-4.133-45.457-16.53-47.523-28.927z" fill="#fff" fill-rule="evenodd" fill-opacity=".3"/><path d="M315.437 454.544c14.119-6.199 31.337-11.02 34.436-22.039 5.166-10.331-1.377 3.787-34.436 22.039z" fill="#001" fill-rule="evenodd" fill-opacity=".25"/><path d="M287.888 377.407c38.569 0 96.077 33.747 39.946 60.952 34.781-39.946-39.946-59.919-39.946-60.952zM259.65 366.043s20.317-2.755 21.695-.345c1.377 2.411.344 21.351-.344 26.172-1.033-9.298 1.377-23.072-21.351-25.827zM387.929 328.061c13.262-5.21 30.787-26.525 33.63-35.525-3.316-3.789-35.999-17.052-43.577-23.683 5.684 9.473 31.735 28.894 9.947 59.208zM352.404 245.644c18.472-7.105 29.84-16.579 32.209-22.736-9-3.789-29.367-17.052-39.314-22.736 7.579 8.052 23.21 21.315 7.105 45.472zM305.038 115.861c7.579 10.894 41.682 31.734 45.472 32.682-4.737 7.579-28.42 19.894-37.42 20.841-4.736-.473 23.683-16.578-8.052-53.523z" fill="#001" fill-rule="evenodd" fill-opacity=".247"/></svg>