<?xml version="1.0" encoding="UTF-8"?>
<svg width="240" height="240" version="1.0" xmlns="http://www.w3.org/2000/svg" xmlns:xlink="http://www.w3.org/1999/xlink">
 <defs>
  <filter id="e" x="-.665" y="-.47" width="2.329" height="1.941">
   <feGaussianBlur stdDeviation="7.034"/>
  </filter>
  <filter id="o" x="-.314" y="-.343" width="1.628" height="1.686">
   <feGaussianBlur stdDeviation="4.11"/>
  </filter>
  <filter id="n" x="-.475" y="-.163" width="1.95" height="1.326">
   <feGaussianBlur stdDeviation="4.464"/>
  </filter>
  <filter id="p" x="-.128" y="-.121" width="1.257" height="1.242">
   <feGaussianBlur stdDeviation="1.68"/>
  </filter>
  <filter id="g" x="-.441" y="-.278" width="1.882" height="1.556">
   <feGaussianBlur stdDeviation="7.894"/>
  </filter>
  <filter id="c" x="-.085" y="-.137" width="1.17" height="1.275">
   <feGaussianBlur stdDeviation="7.884"/>
  </filter>
  <filter id="j" x="-.394" y="-.204" width="1.787" height="1.408">
   <feGaussianBlur stdDeviation="3.046"/>
  </filter>
  <filter id="k" x="-.557" y="-.328" width="2.114" height="1.656">
   <feGaussianBlur stdDeviation="3.356"/>
  </filter>
  <radialGradient id="d" cx="83" cy="73.416" r="67.813" gradientTransform="matrix(1.3687 .01193 -.01688 1.9372 -29.362 -73.58)" gradientUnits="userSpaceOnUse" xlink:href="#a"/>
  <radialGradient id="i" cx="67.449" cy="116.69" r="61.021" gradientTransform="matrix(1.5501 1.0622 -1.3763 2.0086 113.66 -191.95)" gradientUnits="userSpaceOnUse" xlink:href="#a"/>
  <radialGradient id="f" cx="72" cy="127.51" r="67.813" gradientTransform="matrix(2.652 -.07288 .07657 2.7863 -128.71 -219.06)" gradientUnits="userSpaceOnUse" xlink:href="#a"/>
  <radialGradient id="h" cx="99.515" cy="100.17" r="57.437" gradientTransform="matrix(1.3002 .01692 -.0161 1.2368 -18.69 -26.924)" gradientUnits="userSpaceOnUse" xlink:href="#a"/>
  <radialGradient id="l" cx="93.631" cy="94.004" r="50.588" gradientTransform="matrix(2.2726 .75254 -.9386 2.8345 -40.622 -268.34)" gradientUnits="userSpaceOnUse" xlink:href="#b"/>
  <radialGradient id="m" cx="91.523" cy="135.73" r="57.234" gradientTransform="matrix(3.9738 2.8624 -4.1098 5.7058 208.04 -941.88)" gradientUnits="userSpaceOnUse" xlink:href="#b"/>
  <linearGradient id="a">
   <stop stop-opacity="0" offset="0"/>
   <stop stop-opacity=".536" offset="1"/>
  </linearGradient>
  <linearGradient id="b">
   <stop stop-opacity="0" offset="0"/>
   <stop offset="1"/>
  </linearGradient>
 </defs>
 <path d="M171.094 91.313c-31.087 0-56.313 13.53-58.875 30.874C101.28 117.67 87.904 115 73.5 115 37.344 115 8.448 131.8 9 152.5c.503 18.858 25.29 34.463 57.031 37.094-.038.628-.048 1.27-.031 1.906.552 20.7 30.344 37.5 66.5 37.5s65.052-16.8 64.5-37.5c-.357-13.403-12.991-25.15-31.656-31.781 2.486.179 4.997.281 7.562.281 33.12 0 59.6-15.382 59.094-34.344-.506-18.962-27.786-34.343-60.906-34.344z" fill-opacity=".779" filter="url(#c)"/>
 <path d="M200.322 25.66l-4.843-2.585-5.716-3.695-5.51 5.826-6.971-4.38-8.95 15.551-8.483.263-8.458-9.362-8.285 12.816 2.694 6.434-7.811-.03-3.053 10.555-6.027-3.191-6.696 9.371c-3.223 9.85-5.026 20.242-5.026 30.229 0 36.86 19.956 57.596 55.922 57.596 29.227 0 48.53-14.362 54.195-40.407l-5.953-5.472-8.755 8.753-3.763-7.496-10.492.579 11.79-5.646 6.583 4.083 4.084-4.1 4.657 1.646 3.06.18c.343-3.1.515-6.343.515-9.716 0-10.148-1.91-20.707-5.308-30.692l-4.826-4.066.909-5.779c-4.942-10.746-11.628-20.324-19.483-27.265z" fill="#4d4d4d"/>
 <path d="M200.322 25.66l-4.843-2.585-4.75-2.921-6.283 6.019-6.584-4.38-9.144 15.744-9.45.65-8.457-9.555-7.705 11.462 2.5 7.4-8.198.55-2.472 9.009-7.38-1.644-5.343 7.824c-3.223 9.85-5.026 20.242-5.026 30.229 0 36.86 19.956 57.596 55.922 57.596 29.227 0 48.53-14.362 54.195-40.407l-5.953-5.472-8.755 8.753-3.763-7.496-10.492.579 11.79-5.646 6.583 4.083 4.084-4.1 4.657 1.646 3.06.18c.343-3.1.515-6.343.515-9.716 0-10.148-1.91-20.707-5.308-30.692l-4.826-4.066.909-5.779c-4.942-10.746-11.628-20.324-19.483-27.265z" fill="#b3b3b3"/>
 <path transform="matrix(.82465 0 0 .82465 89.82 6.745)" d="M134 22.938l-5.873-3.136-5.76-3.542-7.619 7.299-7.984-5.31L95.675 37.34l-11.458.788-10.256-11.587-9.344 13.9 3.032 8.974-9.94.666-2.999 10.924-8.95-1.993-6.479 9.488c-3.907 11.945-6.093 24.546-6.093 36.656C33.188 149.855 57.386 175 101 175c35.442 0 58.85-17.417 65.719-49l-7.219-6.636-10.616 10.615-4.564-9.09-12.722.702 14.297-6.846 7.982 4.951 4.953-4.972 5.647 1.997 3.71.216c.417-3.758.625-7.691.625-11.78 0-12.306-2.317-25.11-6.437-37.22l-5.852-4.93L157.625 56c-5.992-13.032-14.1-24.646-23.625-33.063z" fill="url(#d)"/>
 <path transform="matrix(.82465 0 0 .82465 89.82 6.745)" d="M75.275 30.84l-6.633 10.28 2.653 12.269-10.611-.664 1.326 12.601c7.784-.875 17.016 5.491 23.213-3.316 3.08-13.055-2.526-22.491-9.948-31.17z" fill="#fff" fill-rule="evenodd" filter="url(#e)"/>
 <path d="M200.322 25.66l-7.851-.398 3.455 11.026-10.386-3.552-10.412-6.567L172.82 44.1l-13.278 5.573 15.334 9.04-11.26 1.89-3.236 9.593-12.586-21.88-7.104 9.3-8.762-4.665-7.654 17.498-2.061-7.216c-3.223 9.85-5.026 20.242-5.026 30.229 0 36.86 19.956 57.596 55.922 57.596 29.227 0 48.53-14.362 54.195-40.407l-10.602-3.832-10.122 2.464-5.2 17.513-5.736-16.967-11.747 3.835-13.958 15.31 11.751-17.756 13.4-10.67 20.256 2.99 6.546-6.288 6.571 4.381.052 1.546c.343-3.099.515-6.342.515-9.715 0-10.148-2.252-21.185-5.65-31.171l-3.132 1.665-.257-4.103-4.104-1.696 3.918-5.232c-4.942-10.746-11.628-20.324-19.483-27.265zm1.881 36.878l.005 10.647-5.74 6.577-1.907-7.392-6.024-3.267 2.998-6.308 3.84 2.474 6.828-2.731z" fill="#4d4d4d"/>
 <path d="M200.322 25.66l-6.21.696 2.087 10.205-10.385-2.731-9.046-5.747-3.401 17.111-12.73 5.025 15.332 9.587-12.627 2.165-4.33 9.045-12.859-20.513-5.463 7.113-8.762-4.665-7.654 17.498-2.061-7.216c-3.223 9.85-5.026 20.242-5.026 30.229 0 36.86 19.956 57.596 55.922 57.596 29.227 0 48.53-14.362 54.195-40.407l-10.875-2.19-10.67 2.19-5.746 18.606-5.463-17.24-10.927 3.015-13.684 13.941 11.751-17.755 13.4-10.67 20.256 2.99 6.546-6.288 6.571 4.381.052 1.546c.343-3.099.515-6.342.515-9.715 0-10.148-1.91-20.707-5.308-30.692l-4.02 1.391-.258-3.556-3.557-2.448 3.918-5.232c-4.942-10.746-11.628-20.324-19.483-27.265zm1.881 36.878l.825 11.467-7.654 6.03-1.907-6.57-6.571-3.815 4.639-6.855 3.84 2.474 6.828-2.731z" fill="#0f0"/>
 <path transform="matrix(.82465 0 0 .82465 89.82 6.745)" d="M134 22.938l-7.531.843L129 36.156l-12.594-3.312-10.969-6.969-4.124 20.75-15.438 6.094 18.594 11.625-15.313 2.625-5.25 10.969-15.594-24.876-6.624 8.626-10.626-5.657-9.28 21.219-2.5-8.75c-3.908 11.945-6.094 24.546-6.094 36.656C33.188 149.855 57.386 175 101 175c35.442 0 58.85-17.417 65.719-49l-13.188-2.656L140.594 126l-6.969 22.563L127 127.656l-13.25 3.656-16.594 16.907 14.25-21.531 16.25-12.938 24.563 3.625 7.937-7.625 7.969 5.313.063 1.874c.416-3.758.625-7.691.625-11.78 0-12.306-2.318-25.11-6.438-37.22l-4.875 1.688-.313-4.313-4.312-2.968 4.75-6.344c-5.992-13.032-14.1-24.646-23.625-33.063zm2.281 44.718l1 13.906L128 88.876l-2.313-7.969-7.968-4.625 5.625-8.312 4.656 3 8.281-3.313z" fill="url(#f)"/>
 <path transform="matrix(.82465 0 0 .82465 89.82 6.745)" d="M38.798 77.264c-3.035 12.578-4.764 25.343-1.658 38.798 11.091 12.72 19.086 11.042 35.482-.995 10.838-20.604 4.437-39.484-1.99-58.362-1.747 4.394 1.54 11.026-7.295 12.27-6.5 1.654-6.803-4.13-9.285-7.296-1.056 7.306-.632 14.941-9.285 20.56l-5.97-4.975z" fill="#fff" fill-opacity=".961" fill-rule="evenodd" filter="url(#g)"/>
 <path d="M49.786 31.75L36.49 52.6 19.756 84.9l3.246 9.036 6.105 3.445-8.993 2.35-2.325 35.05 11.318-2.46 8.52 7.524-.154 6.404-13.116-6.247-.17 10.526 22.144 11.81 17.224 9.843 47.734-9.35 5.413-50.195 11.318-12.794-14.27-53.148-5.895-5.434-5.264 3.124-6.065 1.818-8.366 6.868-4.74-8.365-16.41 7.873-3.274-15.094-9.531 6.258-5.392-3.135.973-8.858z" fill="#333" fill-rule="evenodd"/>
 <path d="M48.791 33.407L36.49 52.6 19.756 84.9l3.246 9.036 6.105 3.445-9.656 6.66-1.662 30.74 11.318-2.46 8.52 7.524-.154 7.73-13.779-4.92.492 7.873 22.145 11.81 17.224 9.843 47.734-9.35 5.413-50.195 15.96-14.12-7.555-28.14-11.358-23.682-6.89-3.444-3.936 2.46-6.397.492-8.366 8.858-6.398-8.366-15.747 7.874-3.937-14.763-7.873 3.937-7.382-1.477 1.968-8.858z" fill="#989898" fill-rule="evenodd"/>
 <path transform="translate(-21.715 -4.257)" d="M70.506 37.665L58.203 56.857l-16.732 32.3 3.246 9.036 6.105 3.445-9.656 6.66-1.663 30.74 11.319-2.46 8.52 7.524-.154 7.73-13.78-4.92.493 7.874 22.145 11.81 17.223 9.842 47.734-9.35 5.414-50.195 15.96-14.12-7.555-28.14-11.358-23.682-6.89-3.444-3.936 2.46-6.398.492-8.366 8.858-6.397-8.366-15.747 7.874-3.937-14.763-7.874 3.937-7.381-1.477 1.968-8.857z" fill="url(#h)" fill-rule="evenodd"/>
 <path d="M50.153 32.577C36.4 44.523 24.34 64.381 18.603 85.294l6.91 4.716 6.729-8.045 5.723 12.956-13.105 8.013-1.487-7.543-7.66 3.99c-.561 4.127-.877 8.232-.877 12.271 0 8.626.954 16.44 2.799 23.421l3.106-3.737 8.366-4.429 9.35 8.366 11.319-.492 8.857-10.334 13.78 13.287 23.128 4.429 3.584 11.297-10.965-8.526-20.177-6.259-1.315 27.056-8.184-22.937-11.33 4.59-11.147-5.564-7.392 5.756-4.66 2.937c9.878 16.726 27.548 25.605 51.902 25.605 39.617 0 61.021-22.905 61.021-64.466 0-22.774-9.539-47.79-22.975-65.742l-6.08-.588 1.326 9.63 3.766.61-.642 7.864 12.795 10.826-10.506.492 3.927 10.153-7.521-8.377-4.91 10.666-3.114-8.355-10.152-.021 2.257-7.018.984-10.335 1.83-.615 1.54-10.786-2.706-1.094-8.698 22.156L77.676 60.13l-11.65 20.005-7.05-17.384-8.858-.653 2.963-14.763-7.863-3.444 4.935-11.315zm33.578 52.501l-.492 9.843 12.302.492-6.729 16.197-8.173-14.421-11.992 8.526-4.6-13.255 12.794-1.476 6.89-5.906z" fill="#333"/>
 <path d="M49.822 32.577C36.068 44.523 24.34 64.381 18.604 85.294l5.582 3.721 6.397-7.381 7.382 13.287-14.763 10.334-.492-7.874-6.997 2c-.561 4.127-.877 8.232-.877 12.271 0 8.626.954 16.44 2.799 23.421l3.106-3.737 8.366-4.429 9.35 8.366 11.319-.492 8.857-10.334 13.78 13.287 23.128 4.429 5.906 13.286-13.287-8.857-20.177-3.937-.984 28.05-9.842-25.59-10.334 4.921-11.81-6.89-6.398 4.43-4.66 2.937c9.878 16.726 27.548 25.605 51.902 25.605 39.617 0 61.021-22.905 61.021-64.466 0-22.774-9.539-47.79-22.975-65.742l-4.09.738v8.304l4.428-.384-1.968 8.858 12.795 10.826-9.842.492 4.92 11.81-9.842-7.38-5.905 10.333-3.445-9.35-11.81 1.969 5.905-10.334.984-10.335 1.83-.615.877-8.796-2.707-.43-8.365 21.16-11.319-11.319-11.318 20.669-7.382-17.716-8.858-.984 1.969-14.763-8.858-3.445 7.92-12.641zM83.73 85.078l-.492 9.843 12.302.492-6.397 20.176-10.826-15.747-10.335 8.857-3.936-16.239 12.794-1.476 6.89-5.906z" fill="#0000e5"/>
 <path transform="translate(-21.715 -4.257)" d="M71.536 36.834C57.782 48.78 46.055 68.638 40.32 89.551l5.582 3.721 6.397-7.381 7.382 13.287-14.763 10.334-.492-7.874-6.998 2c-.56 4.127-.876 8.232-.876 12.271 0 8.626.954 16.44 2.799 23.421l3.106-3.737 8.366-4.428 9.35 8.365 11.318-.492 8.858-10.334 13.78 13.287 23.128 4.429 5.905 13.287-13.287-8.858-20.176-3.937-.984 28.05-9.842-25.59-10.334 4.921-11.81-6.889-6.398 4.429-4.66 2.937c9.877 16.726 27.548 25.605 51.902 25.605 39.616 0 61.02-22.905 61.02-64.466 0-22.774-9.538-47.79-22.974-65.742l-4.09.738v8.305l4.428-.385-1.968 8.858 12.794 10.826-9.842.492 4.921 11.81-9.842-7.38-5.905 10.334-3.445-9.35-11.81 1.968 5.905-10.334.984-10.334 1.83-.616.877-8.796-2.707-.43-8.366 21.16-11.318-11.318-11.318 20.668-7.382-17.716-8.858-.984 1.969-14.763-8.858-3.445 7.92-12.64zm33.91 52.502l-.493 9.842 12.303.492-6.397 20.176-10.827-15.747-10.334 8.858-3.937-16.24 12.795-1.476 6.89-5.905z" fill="url(#i)"/>
 <path transform="translate(-21.715 -4.257)" d="M63.005 52.062c-8.838 9.731-15.038 21.66-18.57 35.814L51.4 82.57l6.632 4.642c-2.938-12.586-.376-23.769 4.974-35.15z" fill="#fff" fill-rule="evenodd" filter="url(#j)"/>
 <path transform="translate(-21.715 -4.257)" d="M42.446 105.12l-3.316.662c-.984 8.506-.429 16.242.331 23.876 2.985-.623 5.97-.345 8.954-4.31 5.374-7.05 4.26-13.017 4.642-19.234l-8.953 6.964-1.658-7.959z" fill="#fff" fill-rule="evenodd" filter="url(#k)"/>
 <path d="m109.4 106.77 18.699-11.687-1.336 13.69 19.033-7.68 7.933 11.94 0.586-9.35 11.85 8.764 5.342-4.007 8.348 9.35 3.005 44.076-17.363 45.412-57.433 4.34-26.38-34.726 6.011-43.743 21.705-26.379z" fill="#333" fill-rule="evenodd"/>
 <path d="m107.65 107.76 18.699-11.687-1.336 13.69 19.033-7.68 8.682 12.689 1.336-9.35 10.351 8.014 5.343-4.007 8.348 9.35 3.005 44.076-17.364 45.413-57.433 4.34-26.379-34.726 6.01-43.743 21.705-26.38z" fill="#e6e6e6" fill-rule="evenodd"/>
 <path transform="matrix(.64263 0 0 .64263 93.11 100.09)" d="M22.623 11.941L51.72-6.245 49.642 15.06 79.26 3.11l13.51 19.744 2.078-14.549 16.108 12.47 8.314-6.235 12.99 14.55 4.676 68.586-27.02 70.666-89.37 6.755-41.049-54.039 9.353-68.067L22.623 11.94z" fill="url(#l)" fill-rule="evenodd"/>
 <path d="M116.519 79.4c-23.642 10.745-40.572 44.214-40.572 83.813 0 48.264 33.07 60.75 57.218 60.75 24.149 0 53.505-12.236 53.505-60.5 0-17.48-4.278-39.937-9.407-50.857-.583-1.242-.661-.658-1.228-1.563l-3.868 10.046-12.035-3.044-6.489 12.344 3.71 5.262h6.281l-8.156 10.656-10.656-6.875-4.407-8.156 10.407-5.532-2.25-13.937-12.563 5.031-1.75-22.47-15.812 13.064 8.905-23.844-12.03 6.25 1.197-10.437zm-10.604 44.97l11.282 1.25-2.5 6.28 2.5 10.657-10.657 1.25-7.53-8.156 6.905-11.282zm65.25 39.53l-9.406 18.188-5.031 18.813-7.407-14.605-10.156 5.198-6.448-4.084-7.364 3.46-14.981-5.7-5.916 12.978-3.572-14.81-12.562-9.406 15.687 3.125 12.563-3.125 11.937 4.375 10.656-4.375h13.813l18.187-10.031z" fill="#333"/>
 <path d="m114.97 80.028c-23.64 10.745-40.905 44.214-40.905 83.812 0 48.264 33.07 60.75 57.22 60.75 24.148 0 57.25-12.486 57.25-60.75 0-19.468-4.17-37.464-11.22-52l-5.53 10.625-12.532-3.125-6.656 12.344 2.875 4.594h6.28l-8.155 10.656-10.657-6.875-4.406-8.156 10.406-5.531-2.25-13.938-12.562 5.031-1.25-21.968-16.313 12.562 9.407-23.844-12.532 6.25 1.532-10.437zm-10.937 44.969 11.281 1.25-2.5 6.281 2.5 10.656-10.656 1.25-7.531-8.156 6.906-11.281zm65.25 39.531-9.406 18.187-5.031 18.813-6.907-14.438-10.656 5.032-6.281-3.75-7.531 3.125-13.813-5.032-6.25 13.813-4.406-16.313-12.563-9.406 15.688 3.125 12.562-3.125 11.938 4.375 10.656-4.375h13.813l18.187-10.031z" fill="#ff2900"/>
 <path transform="matrix(.64263 0 0 .64263 93.11 100.09)" d="M34.018-31.22C-2.771-14.5-29.636 37.581-29.636 99.2c0 75.104 51.46 94.533 89.038 94.533 37.577 0 89.086-19.43 89.086-94.533 0-30.294-6.487-58.298-17.458-80.916l-8.607 16.533-19.5-4.863-10.357 19.208 4.474 7.149h9.774L94.122 72.893 77.54 62.195l-6.857-12.692 16.193-8.607-3.5-21.689-19.55 7.83L61.883-7.15 36.498 12.4l14.637-37.104-19.5 9.726 2.383-16.242zm-17.02 69.976L34.553 40.7l-3.89 9.774 3.89 16.582-16.582 1.945L6.25 56.311l10.747-17.555zm101.535 61.514l-14.637 28.302-7.829 29.274L85.32 135.38l-16.582 7.829-9.774-5.836-11.72 4.863-21.493-7.829-9.726 21.494-6.856-25.384-19.549-14.637 24.412 4.863 19.548-4.863 18.576 6.808 16.582-6.808h21.494l28.301-15.61z" fill="url(#m)" opacity=".7"/>
 <path transform="translate(10.533 23.34)" d="m91.965 69.416c-13.13 14.818-22.017 35.366-22.549 55.71 1.03 10.251 8.558 11.515 15.475 8.843 2.79-6.206-5.178-21.49 7.074-64.553z" fill="#fff" fill-rule="evenodd" filter="url(#n)"/>
 <path transform="translate(10.533 23.34)" d="m77.375 175.53c-2.446-6.703 4.185-13.778 7.958-8.843 2.295 3.001 5.306 15.475 15.475 18.128 5.134 1.34 12.38 10.17 2.653 8.843-9.727-1.326-22.55-8.843-26.086-18.128z" fill="#fff" fill-rule="evenodd" filter="url(#o)"/>
 <path transform="translate(10.533 23.34)" d="m171.55 155.19c-6.956 15.406-25.023 32.984-42.002 41.119 20.338 2.653 41.56-19.454 42.003-41.12z" fill-opacity=".287" fill-rule="evenodd" filter="url(#p)"/>
</svg>
