<svg xmlns="http://www.w3.org/2000/svg" xmlns:xlink="http://www.w3.org/1999/xlink" width="192" height="192" version="1.0"><defs><linearGradient id="b"><stop offset="0" stop-color="#c15e1d"/><stop offset="1" stop-color="#803300"/></linearGradient><linearGradient xlink:href="#a" id="c" gradientUnits="userSpaceOnUse" gradientTransform="matrix(1.15315 0 0 1.24528 -21.351 -45.434)" x1="168.539" y1="86.273" x2="75.75" y2="189.061"/><linearGradient xlink:href="#b" id="i" gradientUnits="userSpaceOnUse" gradientTransform="matrix(1.5561 0 0 1.5561 -128.949 -119.43)" x1="178.625" y1="92.408" x2="194.1" y2="107.883"/><linearGradient xlink:href="#b" id="g" x1="105.517" y1="67.45" x2="106.184" y2="81.809" gradientUnits="userSpaceOnUse"/><linearGradient id="a"><stop offset="0" stop-opacity="0"/><stop offset="1"/></linearGradient><linearGradient xlink:href="#b" id="e" gradientUnits="userSpaceOnUse" gradientTransform="matrix(-1.5561 0 0 1.5561 245.155 -119.43)" x1="178.625" y1="92.408" x2="194.1" y2="107.883"/><filter x="-.128" width="1.257" y="-.121" height="1.242" id="n"><feGaussianBlur stdDeviation="1.68"/></filter><filter x="-.283" width="1.565" y="-.309" height="1.617" id="m"><feGaussianBlur stdDeviation="3.699"/></filter><filter x="-.017" width="1.034" y="-.482" height="1.964" id="h"><feGaussianBlur stdDeviation=".671"/></filter><filter x="-.411" width="1.822" y="-.141" height="1.282" id="l"><feGaussianBlur stdDeviation="3.861"/></filter><filter x="-.096" width="1.191" y="-.2" height="1.401" id="d"><feGaussianBlur stdDeviation="4.423"/></filter><filter x="-.107" width="1.214" y="-.071" height="1.142" id="j"><feGaussianBlur stdDeviation=".93"/></filter><radialGradient xlink:href="#a" id="k" gradientUnits="userSpaceOnUse" gradientTransform="matrix(3.97383 2.8624 -4.10979 5.7058 208.041 -941.875)" cx="91.523" cy="135.729" fx="91.523" fy="135.729" r="57.234"/><radialGradient xlink:href="#a" id="f" cx="93.631" cy="94.004" fx="93.631" fy="94.004" r="50.588" gradientTransform="matrix(2.27264 .75254 -.9386 2.83451 -40.622 -268.34)" gradientUnits="userSpaceOnUse"/></defs><metadata/><path d="M69.863 54.426l18.699-11.687-1.336 13.69 19.033-7.68 7.933 11.94.586-9.35 11.85 8.763 5.342-4.007 8.348 9.35 3.005 44.076-17.363 45.412-57.433 4.341-26.38-34.727 6.011-43.742 21.705-26.38z" fill="#333" fill-rule="evenodd"/><path d="M161 93c-35.328 0-110 21.784-119 42-8.842 19.862 20.672 35 56 35s56.168-15.146 64-32c2.202-4.74 5.782-10.272 9.094-15.813 5.43.367 11.372.016 11.906-3.187 1-6 10-24 10-24-8.86 8.298-23.334 14.022-27.844 14.594C169.106 99.749 179.651 93 161 93z" transform="translate(-4 3)" fill="url(#c)" filter="url(#d)"/><path d="M-18.354 33.996c-40.229.526-40.836-45.733-42.657-71.553-12.105 26.872-15.063 85.619 37.84 97.01 12.674-6.154 8.974-21.68 4.817-25.457z" fill="url(#e)" fill-rule="evenodd" transform="matrix(.64263 0 0 .64263 53.576 47.75)"/><path d="M68.115 55.424l18.699-11.687-1.336 13.69 19.033-7.68 8.682 12.69 1.336-9.35 10.351 8.014 5.343-4.007 8.347 9.35 3.006 44.076-17.364 45.412-57.433 4.341L40.4 125.546l6.01-43.743 21.705-26.379z" fill="#e6e6e6" fill-rule="evenodd"/><path d="M22.623 11.941L51.72-6.245 49.642 15.06 79.26 3.11l13.51 19.744 2.078-14.549 16.108 12.47 8.314-6.235 12.99 14.55 4.676 68.586-27.02 70.666-89.37 6.755-41.049-54.039 9.353-68.067L22.623 11.94z" fill="url(#f)" fill-rule="evenodd" transform="matrix(.64263 0 0 .64263 53.576 47.75)"/><path d="M47.082 67.45h98.504l5.343 14.025-108.522.334 4.675-14.359z" transform="translate(-4 3)" fill="url(#g)" fill-rule="evenodd"/><path d="M50.087 81.475l94.831-1.002-.334-2.671H48.417l1.67 3.673z" transform="translate(-4 3)" fill-opacity=".471" fill-rule="evenodd" filter="url(#h)"/><path d="M134.56 33.996c40.229.526 40.836-45.733 42.657-71.553 12.105 26.872 15.063 85.619-37.84 97.01-12.674-6.154-8.973-21.68-4.817-25.457z" fill="url(#i)" fill-rule="evenodd" transform="matrix(.64263 0 0 .64263 53.576 47.75)"/><path d="M76.986 27.06c-23.642 10.745-40.572 44.214-40.572 83.813 0 48.263 33.07 60.75 57.218 60.75 24.149 0 53.505-12.237 53.505-60.5 0-17.48-4.279-39.938-9.407-50.857-.583-1.242-.661-.659-1.228-1.563l-3.868 10.046-12.035-3.044-6.489 12.343 3.71 5.262h6.281l-8.156 10.656-10.656-6.875-4.407-8.156 10.407-5.531-2.25-13.938-12.563 5.032-1.75-22.47L78.913 55.09l8.905-23.843-12.03 6.25 1.197-10.438zM66.382 72.03l11.282 1.25-2.5 6.281 2.5 10.656-10.657 1.25-7.53-8.156 6.905-11.281zm65.25 39.531l-9.406 18.188-5.031 18.812-7.407-14.604-10.156 5.198-6.448-4.084-7.364 3.459-14.981-5.7-5.916 12.978-3.572-14.81-12.562-9.406 15.687 3.125 12.563-3.125 11.937 4.375 10.656-4.375h13.813l18.187-10.03z" fill="#333"/><path d="M168.456 47.42c-.332 8.621-5.969 28.186-20.891 31.502 6.55-7.852 16.98-17.089 20.891-31.502z" transform="translate(2.422 3)" fill-opacity=".47" fill-rule="evenodd" filter="url(#j)"/><path d="M75.437 27.687C51.796 38.432 34.531 71.901 34.531 111.5c0 48.264 33.07 60.75 57.219 60.75S149 159.764 149 111.5c0-19.468-4.169-37.465-11.219-52l-5.531 10.625L119.719 67l-6.657 12.344 2.876 4.594h6.28l-8.155 10.656-10.657-6.875L99 79.563l10.406-5.532-2.25-13.937-12.562 5.031-1.25-21.969L77.03 55.72l9.406-23.844-12.53 6.25 1.53-10.438zM64.5 72.657l11.281 1.25-2.5 6.28 2.5 10.657-10.656 1.25-7.531-8.156L64.5 72.656zm65.25 39.53l-9.406 18.188-5.032 18.812-6.906-14.437-10.656 5.031-6.281-3.75-7.532 3.125-13.812-5.031-6.25 13.813-4.406-16.313-12.563-9.406 15.688 3.125 12.562-3.125 11.938 4.375 10.656-4.375h13.812l18.188-10.032z" fill="#ff2900"/><path d="M34.018-31.22C-2.771-14.5-29.636 37.581-29.636 99.2c0 75.104 51.46 94.533 89.038 94.533 37.577 0 89.086-19.43 89.086-94.533 0-30.294-6.487-58.298-17.458-80.916l-8.607 16.533-19.5-4.863-10.357 19.208 4.474 7.149h9.774L94.122 72.893 77.54 62.195l-6.857-12.692 16.193-8.607-3.5-21.689-19.55 7.83L61.883-7.15 36.498 12.4l14.637-37.104-19.5 9.726 2.383-16.242zm-17.02 69.976L34.553 40.7l-3.89 9.774 3.89 16.582-16.582 1.945L6.25 56.311l10.747-17.555zm101.535 61.514l-14.637 28.302-7.829 29.274L85.32 135.38l-16.582 7.829-9.774-5.836-11.72 4.863-21.493-7.829-9.726 21.494-6.856-25.384-19.549-14.637 24.412 4.863 19.548-4.863 18.576 6.808 16.582-6.808h21.494l28.301-15.61z" opacity=".7" fill="url(#k)" transform="matrix(.64263 0 0 .64263 53.576 47.75)"/><path d="M91.965 69.416c-13.13 14.818-22.017 35.366-22.549 55.71 1.03 10.251 8.558 11.515 15.475 8.843 2.79-6.206-5.178-21.49 7.074-64.553z" transform="translate(-29 -29)" fill="#fff" fill-rule="evenodd" filter="url(#l)"/><path d="M77.375 175.53c-2.446-6.703 4.185-13.778 7.958-8.843 2.295 3.001 5.306 15.475 15.475 18.128 5.134 1.34 12.38 10.17 2.653 8.843-9.727-1.326-22.55-8.843-26.086-18.128z" transform="translate(-29 -29)" fill="#fff" fill-rule="evenodd" filter="url(#m)"/><path d="M171.55 155.192c-6.956 15.406-25.023 32.984-42.002 41.119 20.338 2.653 41.56-19.454 42.003-41.12z" transform="translate(-29 -29)" fill-opacity=".287" fill-rule="evenodd" filter="url(#n)"/><path transform="matrix(-1 0 0 1 179.41 3)" d="M168.456 47.42c-.332 8.621-5.969 28.186-20.891 31.502 6.55-7.852 16.98-17.089 20.891-31.502z" fill-opacity=".47" fill-rule="evenodd" filter="url(#j)"/></svg>