<svg xmlns="http://www.w3.org/2000/svg" xmlns:xlink="http://www.w3.org/1999/xlink" width="192" height="192" version="1.0"><defs><linearGradient id="c"><stop offset="0" stop-color="#c15e1d"/><stop offset="1" stop-color="#803300"/></linearGradient><linearGradient id="a"><stop offset="0" stop-opacity="0"/><stop offset="1"/></linearGradient><linearGradient id="b"><stop offset="0" stop-color="#fffedc"/><stop offset="1" stop-color="#fafafa"/></linearGradient><linearGradient xlink:href="#c" id="e" gradientUnits="userSpaceOnUse" gradientTransform="matrix(-1.5561 0 0 1.5561 235.818 -119.43)" x1="178.625" y1="92.408" x2="194.1" y2="107.883"/><linearGradient xlink:href="#b" id="g" gradientUnits="userSpaceOnUse" x1="181.483" y1="145.025" x2="-2.217" y2="50.079" gradientTransform="translate(-48.239 -49.795)"/><linearGradient xlink:href="#c" id="f" gradientUnits="userSpaceOnUse" x1="178.625" y1="92.408" x2="194.1" y2="107.883" gradientTransform="matrix(1.5561 0 0 1.5561 -137.833 -119.43)"/><filter x="-.107" width="1.214" y="-.071" height="1.142" id="m"><feGaussianBlur stdDeviation=".93"/></filter><filter x="-.086" width="1.172" y="-.134" height="1.269" id="d"><feGaussianBlur stdDeviation="9.099"/></filter><filter id="h"><feGaussianBlur stdDeviation="1.628"/></filter><filter x="-.411" width="1.822" y="-.141" height="1.282" id="j"><feGaussianBlur stdDeviation="3.861"/></filter><filter x="-.283" width="1.565" y="-.309" height="1.617" id="k"><feGaussianBlur stdDeviation="3.699"/></filter><filter x="-.128" width="1.257" y="-.121" height="1.242" id="l"><feGaussianBlur stdDeviation="1.68"/></filter><radialGradient xlink:href="#a" id="i" gradientUnits="userSpaceOnUse" gradientTransform="matrix(3.97383 2.8624 -4.10979 5.7058 198.704 -941.875)" cx="91.523" cy="135.729" fx="91.523" fy="135.729" r="57.234"/></defs><metadata/><path d="M-54.005 25.216c-11.641 17.22-14.443 38.635.338 54.276 5.945 7.77 19.116 9.932 28.854 14.633-7.37 21.751-10.615 45.682 3.607 65.549 13.25 18.934 44.322 28.393 74.171 28.053 26.402.156 54.424-7.065 72.162-22.047 18.58-15.64 23.152-36.556 22.543-55.655-.214-5.863-.95-11.69-2.021-17.47 23.989-3.842 41.751-20.475 43.538-37.146 1.938-10.266.473-20.729-4.527-30.193-2.794 14.123-4.083 29.6-17.799 41.44-6.389 4.685-17.025 10.567-26.033 7.561-4.568-4.765-6.079-10.842-11.196-15.516-10.165-13.283-26.208-24.869-47.383-29.239-10.191-2.15-21.471-2.49-32.052-.19-13.033-.63-23.944 5.853-33.347 11.702-14.623 9.558-25.16 21.78-32.804 34.498-17.854 1.016-32.58-9.357-34.978-21.169-3.21-9.43-2.935-19.336-3.073-29.087z" fill-rule="evenodd" filter="url(#d)" transform="matrix(.64263 0 0 .64263 57.576 44.75)"/><path d="M-27.69 33.996c-40.23.526-40.836-45.733-42.658-71.553-12.104 26.872-15.062 85.619 37.841 97.01 36.575 7.875 4.816-20.64 4.816-25.457z" fill="url(#e)" fill-rule="evenodd" transform="matrix(.64263 0 0 .64263 57.576 44.75)"/><path d="M125.676 33.996c40.228.526 40.835-45.733 42.657-71.553 12.104 26.872 15.063 85.619-37.841 97.01-36.575 7.875-4.816-20.64-4.816-25.457z" fill="url(#f)" fill-rule="evenodd" transform="matrix(.64263 0 0 .64263 57.576 44.75)"/><path d="M-38.953 99.195c0-75.103 38.914-133.127 88.066-133.127 49.15 0 90.018 58.024 90.018 133.127 0 75.103-51.465 94.535-89.042 94.535s-89.042-19.432-89.042-94.535z" fill="url(#g)" transform="matrix(.64263 0 0 .64263 57.576 44.75)"/><path d="M27.61-32.196c-36.788 16.72-63.654 68.8-63.654 130.42 0 75.103 51.46 94.533 89.038 94.533 37.578 0 83.259-19.041 83.259-94.144 0-30.295-6.098-57.134-17.07-79.752l-5.498 13.814-17.169-3.697-10.358 19.208 4.474 7.148h9.774L87.714 71.916 71.132 61.218l-6.856-12.692 16.193-8.607-3.501-21.688-19.549 7.83-1.945-34.186L30.09 11.423 44.727-25.68l-19.5 9.726 2.383-16.242zM10.59 37.78l17.555 1.945-3.89 9.774 3.89 16.582-16.582 1.945-11.72-12.692L10.592 37.78zm101.536 61.514l-14.637 28.301-7.83 29.274-10.746-22.466-16.582 7.83-9.775-5.836-11.719 4.863-21.493-7.83-9.726 21.494-6.857-25.384-19.548-14.637 24.411 4.863 19.549-4.863 18.576 6.808 16.582-6.808h21.493l28.302-15.61z" fill-opacity=".762" filter="url(#h)" transform="matrix(.64263 0 0 .64263 57.576 44.75)"/><path d="M73.437 24.687C49.796 35.432 32.531 68.901 32.531 108.5c0 48.264 33.07 60.75 57.219 60.75S147 156.764 147 108.5c0-19.468-4.169-37.465-11.219-52l-5.531 10.625L117.719 64l-6.657 12.344 2.875 4.594h6.282l-8.157 10.656-10.656-6.875L97 76.563l10.406-5.532-2.25-13.937-12.562 5.031-1.25-21.969L75.03 52.72l9.406-23.844-12.53 6.25 1.53-10.438zM62.5 69.657l11.281 1.25-2.5 6.28 2.5 10.657-10.656 1.25-7.531-8.156L62.5 69.656zm65.25 39.53l-9.406 18.188-5.032 18.812-6.906-14.437-10.656 5.031-6.281-3.75-7.532 3.125-13.812-5.031-6.25 13.813-4.406-16.313-12.563-9.406 15.688 3.125 12.562-3.125 11.938 4.375 10.656-4.375h13.812l18.188-10.032z" fill="#ff2900"/><path d="M24.681-31.22C-12.107-14.5-38.973 37.581-38.973 99.2c0 75.104 51.46 94.533 89.038 94.533 37.577 0 89.086-19.43 89.086-94.533 0-30.294-6.486-58.298-17.457-80.916l-8.607 16.533-19.5-4.863-10.358 19.208 4.474 7.149h9.774L84.785 72.893 68.203 62.195l-6.856-12.692 16.193-8.607-3.501-21.689-19.549 7.83L52.545-7.15 27.161 12.4l14.637-37.104-19.5 9.726 2.383-16.242zM7.661 38.756L25.216 40.7l-3.89 9.774 3.89 16.582-16.582 1.945-11.72-12.691L7.662 38.756zm101.536 61.514L94.56 128.572l-7.83 29.274-10.746-22.466-16.582 7.829-9.775-5.836-11.719 4.863-21.494-7.829-9.725 21.494-6.857-25.384-19.548-14.637 24.411 4.863 19.549-4.863 18.575 6.808 16.583-6.808h21.493l28.302-15.61z" opacity=".7" fill="url(#i)" transform="matrix(.64263 0 0 .64263 57.576 44.75)"/><path d="M91.965 69.416c-13.13 14.818-22.017 35.366-22.549 55.71 1.03 10.251 8.558 11.515 15.475 8.843 2.79-6.206-5.178-21.49 7.074-64.553z" transform="translate(-31 -32)" fill="#fff" fill-rule="evenodd" filter="url(#j)"/><path d="M77.375 175.53c-2.446-6.703 4.185-13.778 7.958-8.843 2.295 3.001 5.306 15.475 15.475 18.128 5.134 1.34 12.38 10.17 2.653 8.843-9.727-1.326-22.55-8.843-26.086-18.128z" transform="translate(-31 -32)" fill="#fff" fill-rule="evenodd" filter="url(#k)"/><path d="M171.55 155.192c-6.956 15.406-25.023 32.984-42.002 41.119 20.338 2.653 41.56-19.454 42.003-41.12z" transform="translate(-31 -32)" fill-opacity=".287" fill-rule="evenodd" filter="url(#l)"/><path d="M168.456 47.42c-.332 8.621-5.969 28.186-20.891 31.502 6.55-7.852 16.98-17.089 20.891-31.502z" fill-rule="evenodd" filter="url(#m)" fill-opacity=".47"/><path transform="matrix(-1 0 0 1 177.41 0)" d="M168.456 47.42c-.332 8.621-5.969 28.186-20.891 31.502 6.55-7.852 16.98-17.089 20.891-31.502z" fill-opacity=".47" fill-rule="evenodd" filter="url(#m)"/></svg>