<?xml version="1.0" encoding="UTF-8"?>
<svg width="400pt" height="400pt" xmlns="http://www.w3.org/2000/svg">
 <path d="m157.22 412.76c0.909 52.71 198.12 52.71 197.21 0.909-0.909-55.436-195.39-56.344-197.21-0.909z" fill="#623e35" fill-rule="evenodd" stroke="#000" stroke-linejoin="bevel" stroke-width="3.75"/>
 <path transform="matrix(.61856 0 0 1 98.944 -.909)" d="M212.655 306.43l-.909 107.235c7.948 11.814 76.771 13.633 88.152-.908V305.521c-9.997 15.449-67.251 20.902-87.243.909z" fill="#623e35" fill-rule="evenodd" stroke="#000" stroke-linejoin="bevel" stroke-width="4.768"/>
 <path d="m249.01 163.75c-3.635 10.906-113.6 87.243-176.3 125.41 37.259 100.88 322.62 97.24 353.52 2e-3 -53.618-15.45-174.49-115.42-177.21-125.41z" fill="#009500" fill-rule="evenodd" stroke="#000" stroke-linejoin="bevel" stroke-width="3.75"/>
 <path d="m248.1 96.501c-3.635 10.906-79.972 87.244-142.68 125.41 39.077 56.345 250.82 62.707 285.36-1.816-53.618-15.45-139.95-113.6-142.68-123.6z" fill="#009500" fill-rule="evenodd" stroke="#000" stroke-linejoin="bevel" stroke-width="3.75"/>
 <path d="m157.34 412.76 1.253 19.084c42.712 49.983 181.73 37.385 194.45 0.125l1.158-19.209c1.818 53.618-194.14 50.892-196.86 0z" fill="#623e35" fill-rule="evenodd" stroke="#000" stroke-linejoin="bevel" stroke-width="3.75"/>
 <path d="m248.1 24.708c-3.635 10.905-40.895 82.699-103.6 120.87 37.259 44.531 178.12 48.167 212.65 0.91-53.618-15.45-106.33-111.78-109.05-121.78z" fill="#009500" fill-rule="evenodd" stroke="#000" stroke-linejoin="bevel" stroke-width="3.75"/>
 <path d="m247.19 38.34c-28.172 52.709-76.338 98.148-95.422 107.24 8.18 14.541 54.527 29.082 73.612 26.356-11.814-30.899-9.089-59.98 21.81-133.59z" fill="#fff" fill-opacity=".5" fill-rule="evenodd"/>
 <path d="m179.94 171.93c-11.814 9.997-54.526 43.622-65.432 50.892-8.179 0.909 42.713 29.081 60.889 29.081-39.987-23.628 41.804-74.52 4.543-79.973zm-39.077 79.064c-14.54 9.088-38.169 26.355-62.706 39.077 5.453 19.994 45.439 45.44 54.527 48.166-36.351-45.439 42.713-78.155 8.179-87.243z" fill="#fff" fill-opacity=".498" fill-rule="evenodd"/>
 <path d="m233.31 366.28c0.813 12.723-1.665 37.202 0.315 47.008 13.632 6.763 22.653 5.261 33.339 4.821-13.632-5.453-24.633-15.726-33.654-51.829zm-10.849 10.089c-20.662 2.755-67.151 14.807-60.953 39.601 6.199 22.728 51.999 27.205 64.741 30.649-6.199-7.232-54.41-40.636-3.788-70.25zm-61.297 51.654c2.411 1.033 11.709 13.775 47.523 28.927-15.153-4.133-45.457-16.53-47.523-28.927z" fill="#fff" fill-opacity=".3" fill-rule="evenodd"/>
 <path d="m315.44 454.54c14.119-6.199 31.337-11.02 34.436-22.039 5.166-10.331-1.377 3.787-34.436 22.039z" fill="#001" fill-opacity=".25" fill-rule="evenodd"/>
 <path d="m287.89 377.41c38.569 0 96.077 33.747 39.946 60.952 34.781-39.946-39.946-59.919-39.946-60.952zm-28.238-11.364s20.317-2.755 21.695-0.345c1.377 2.411 0.344 21.351-0.344 26.172-1.033-9.298 1.377-23.072-21.351-25.827zm128.28-37.982c13.262-5.21 30.787-26.525 33.63-35.525-3.316-3.789-35.999-17.052-43.577-23.683 5.684 9.473 31.735 28.894 9.947 59.208zm-35.525-82.417c18.472-7.105 29.84-16.579 32.209-22.736-9-3.789-29.367-17.052-39.314-22.736 7.579 8.052 23.21 21.315 7.105 45.472zm-47.366-129.78c7.579 10.894 41.682 31.734 45.472 32.682-4.737 7.579-28.42 19.894-37.42 20.841-4.736-0.473 23.683-16.578-8.052-53.523z" fill="#001" fill-opacity=".247" fill-rule="evenodd"/>
 <g fill-rule="evenodd">
  <path d="m175.5 222.01c20.766-0.67 20.766 29.474 1.34 29.474-24.785 0.67-21.436-28.804-1.34-29.474z" fill="red" stroke="#000" stroke-width="3.75"/>
  <path d="m176.17 224.69c-2.01-2.01-23.445 8.708-9.378 20.096 8.709-0.67 11.388-18.086 9.378-20.096z" fill="#fff" fill-opacity=".7"/>
  <path d="M377.8 296.363c20.766-.67 20.766 29.474 1.34 29.474-24.785.67-21.436-28.804-1.34-29.474z" fill="red" stroke="#000" stroke-width="3.75"/>
  <path d="m378.47 299.04c-2.01-2.01-23.445 8.708-9.378 20.095 8.709-0.67 11.388-18.086 9.378-20.095z" fill="#fff" fill-opacity=".7"/>
  <path d="M198.278 323.827c20.766-.67 20.766 29.474 1.34 29.474-24.785.67-21.436-28.804-1.34-29.474z" fill="red" stroke="#000" stroke-width="3.75"/>
  <path d="m198.95 326.51c-2.01-2.01-23.445 8.708-9.378 20.095 8.709-0.67 11.388-18.086 9.378-20.095z" fill="#fff" fill-opacity=".7"/>
  <path d="m306.8 136.27c20.766-0.67 20.766 29.474 1.34 29.474-24.785 0.67-21.436-28.804-1.34-29.474z" fill="red" stroke="#000" stroke-width="3.75"/>
  <path d="m307.46 138.95c-2.01-2.01-23.445 8.708-9.378 20.096 8.709-0.67 11.388-18.086 9.378-20.096z" fill="#fff" fill-opacity=".7"/>
 </g>
 <g fill-rule="evenodd" font-size="12">
  <path d="M188.23 155.693c20.766-.67 20.766 29.473 1.34 29.473-24.785.67-21.436-28.803-1.34-29.473z" fill="#f0f" stroke="#000" stroke-width="3.75"/>
  <path d="m188.9 158.37c-2.01-2.01-23.445 8.708-9.378 20.096 8.709-0.67 11.388-18.086 9.378-20.096z" fill="#fff" fill-opacity=".7"/>
  <path d="M338.948 177.128c20.766-.67 20.766 29.474 1.34 29.474-24.785.67-21.436-28.804-1.34-29.474z" fill="#f0f" stroke="#000" stroke-width="3.75"/>
  <path d="m339.62 179.81c-2.01-2.01-23.445 8.708-9.378 20.095 8.71-0.67 11.388-18.086 9.378-20.095z" fill="#fff" fill-opacity=".7"/>
  <path d="m280.67 289c20.766-0.67 20.766 29.473 1.34 29.473-24.785 0.67-21.436-28.804-1.34-29.474z" fill="#f0f" stroke="#000" stroke-width="3.75"/>
  <path d="m281.34 291.67c-2.01-2.01-23.445 8.708-9.378 20.096 8.71-0.67 11.388-18.086 9.378-20.096z" fill="#fff" fill-opacity=".7"/>
  <path d="M265.933 112.822c20.767-.67 20.767 29.473 1.34 29.473-24.785.67-21.436-28.803-1.34-29.473z" fill="#00f" stroke="#000" stroke-width="3.75"/>
  <path d="m266.6 115.5c-2.01-2.01-23.445 8.708-9.378 20.096 8.709-0.67 11.388-18.086 9.378-20.096z" fill="#fff" fill-opacity=".7"/>
  <path d="M123.923 264.88c20.767-.67 20.767 29.473 1.34 29.473-24.785.67-21.436-28.804-1.34-29.473z" fill="#00f" stroke="#000" stroke-width="3.75"/>
  <path d="m124.59 267.56c-2.01-2.01-23.445 8.707-9.378 20.095 8.708-0.67 11.388-18.086 9.378-20.096z" fill="#fff" fill-opacity=".7"/>
  <path d="m315.5 238.08c20.766-0.67 20.766 29.474 1.34 29.474-24.785 0.67-21.436-28.804-1.34-29.474z" fill="#00f" stroke="#000" stroke-width="3.75"/>
  <path d="m316.17 240.76c-2.01-2.01-23.445 8.708-9.378 20.095 8.71-0.67 11.388-18.086 9.378-20.095z" fill="#fff" fill-opacity=".7"/>
  <path d="M231.77 164.4c20.767-.67 20.767 29.474 1.34 29.474-24.784.67-21.435-28.803-1.34-29.473z" fill="#0ff" stroke="#000" stroke-width="3.75"/>
  <path d="M232.44 167.08c-2.01-2.01-23.444 8.708-9.377 20.096 8.709-.67 11.388-18.086 9.378-20.096z" fill="#fff" fill-opacity=".7"/>
  <path d="M323.541 331.865c20.766-.67 20.766 29.474 1.34 29.474-24.785.67-21.436-28.804-1.34-29.474z" fill="#0ff" stroke="#000" stroke-width="3.75"/>
  <path d="m324.21 334.54c-2.01-2.01-23.445 8.708-9.378 20.096 8.71-0.67 11.388-18.086 9.378-20.096z" fill="#fff" fill-opacity=".7"/>
  <path d="M131.292 320.478c20.766-.67 20.766 29.474 1.34 29.474-24.785.67-21.436-28.804-1.34-29.474z" fill="#0f0" stroke="#000" stroke-width="3.75"/>
  <path d="m131.96 323.16c-2.01-2.01-23.445 8.709-9.378 20.096 8.709-0.67 11.388-18.086 9.378-20.096z" fill="#fff" fill-opacity=".7"/>
  <path d="M221.053 247.463c20.766-.67 20.766 29.474 1.34 29.474-24.785.67-21.436-28.804-1.34-29.474z" fill="#0f0" stroke="#000" stroke-width="3.75"/>
  <path d="m221.72 250.14c-2.01-2.01-23.445 8.708-9.378 20.095 8.709-0.67 11.388-18.086 9.378-20.095z" fill="#fff" fill-opacity=".7"/>
  <path d="M343.637 266.89c20.766-.67 20.766 29.473 1.34 29.473-24.785.67-21.436-28.804-1.34-29.474z" fill="#ff0" stroke="#000" stroke-width="3.75"/>
  <path d="m344.31 269.57c-2.01-2.01-23.445 8.708-9.378 20.095 8.71-0.67 11.388-18.086 9.378-20.095z" fill="#fff" fill-opacity=".7"/>
  <path d="M278.66 198.564c20.767-.67 20.767 29.473 1.34 29.473-24.784.67-21.435-28.803-1.34-29.473z" fill="#ff0" stroke="#000" stroke-width="3.75"/>
  <path d="m279.33 201.24c-2.01-2.01-23.444 8.708-9.377 20.096 8.709-0.67 11.388-18.086 9.378-20.096z" fill="#fff" fill-opacity=".7"/>
  <path d="M192.919 280.286c20.766-.67 20.766 29.474 1.34 29.474-24.785.67-21.436-28.804-1.34-29.474z" fill="#ff0" stroke="#000" stroke-width="3.75"/>
  <path d="m193.59 282.97c-2.01-2.01-23.445 8.708-9.378 20.095 8.709-0.67 11.388-18.086 9.378-20.095z" fill="#fff" fill-opacity=".7"/>
  <path d="M221.723 117.51c20.766-.67 20.766 29.474 1.34 29.474-24.785.67-21.436-28.803-1.34-29.473z" fill="#ff9300" stroke="#000" stroke-width="3.75"/>
  <path d="m222.39 120.19c-2.01-2.01-23.445 8.708-9.378 20.096 8.709-0.67 11.388-18.086 9.378-20.096z" fill="#fff" fill-opacity=".7"/>
  <path d="m266.6 339.9c20.766-0.67 20.766 29.474 1.34 29.474-24.785 0.67-21.436-28.804-1.34-29.474z" fill="#ff9300" stroke="#000" stroke-width="3.75"/>
  <path d="m267.27 342.58c-2.01-2.01-23.445 8.708-9.378 20.096 8.71-0.67 11.388-18.086 9.378-20.096z" fill="#fff" fill-opacity=".7"/>
  <path d="M271.962 240.765c20.766-.67 20.766 29.474 1.34 29.474-24.785.67-21.436-28.804-1.34-29.474z" fill="#ff9300" stroke="#000" stroke-width="3.75"/>
  <path d="m272.63 243.44c-2.01-2.01-23.445 8.708-9.378 20.096 8.71-0.67 11.388-18.086 9.378-20.096z" fill="#fff" fill-opacity=".7"/>
 </g>
 <g fill-rule="evenodd">
  <path d="m282.09 99.654-21.161-17.999-20.839 18.373 10.58-25.689-23.913-14.141 27.7 2.123 6.06-27.112 6.54 27 27.658-2.615-23.658 14.564 11.034 25.496z" fill="red" font-size="12" stroke="#000" stroke-width="3.75"/>
  <path d="m248.53 87.81c13.258-22.097-7.736-21.035-6.74-23.459 17.347 5.09 17.23-3.805 18.998-15.337 2.651 16.31 5.918 19.751-12.258 38.796z" fill="#fff" fill-opacity=".5"/>
 </g>
 <g fill-rule="evenodd" font-size="12">
  <path d="M208.553 77.463c20.766-.67 20.766 29.474 1.34 29.474-24.785.67-21.436-28.804-1.34-29.474z" fill="#0f0" stroke="#000" stroke-width="3.75"/>
  <path d="m209.22 80.143c-2.01-2.01-23.445 8.708-9.378 20.095 8.709-0.67 11.388-18.086 9.378-20.095z" fill="#fff" fill-opacity=".7"/>
 </g>
</svg>
