<?xml version="1.0" encoding="UTF-8"?>
<svg width="256" height="256" version="1.0" xmlns="http://www.w3.org/2000/svg" xmlns:xlink="http://www.w3.org/1999/xlink">
 <defs>
  <filter id="f" x="-.212" y="-.16" width="1.425" height="1.32">
   <feGaussianBlur stdDeviation="13.086"/>
  </filter>
  <filter id="k" x="-.031" y="-.121" width="1.062" height="1.243">
   <feGaussianBlur stdDeviation="1.515"/>
  </filter>
  <filter id="d" x="-.2" y="-.522" width="1.401" height="2.044">
   <feGaussianBlur stdDeviation="22.144"/>
  </filter>
  <filter id="l">
   <feGaussianBlur stdDeviation="1.515"/>
  </filter>
  <filter id="o" x="-.324" y="-.309" width="1.648" height="1.619">
   <feGaussianBlur stdDeviation="1.515"/>
  </filter>
  <filter id="n" x="-.4" y="-.425" width="1.801" height="1.851">
   <feGaussianBlur stdDeviation="1.515"/>
  </filter>
  <filter id="m" x="-.296" y="-.296" width="1.592" height="1.592">
   <feGaussianBlur stdDeviation="1.515"/>
  </filter>
  <radialGradient id="h" cx="330.68" cy="494.04" r="128.5" gradientTransform="matrix(.78315 .58984 -.5308 .70477 102.97 -430.97)" gradientUnits="userSpaceOnUse" xlink:href="#a"/>
  <radialGradient id="i" cx="83" cy="107.55" r="87.483" gradientTransform="matrix(1.8383 1.3637 -1.0832 1.4602 46.916 -165.23)" gradientUnits="userSpaceOnUse">
   <stop stop-color="#fff" stop-opacity="0" offset="0"/>
   <stop stop-color="#fff" stop-opacity="0" offset=".643"/>
   <stop stop-color="#fff" offset="1"/>
  </radialGradient>
  <radialGradient id="g" cx="421.35" cy="355.85" r="17.806" gradientTransform="matrix(2.2345 .9883 -1.2478 2.8213 -332.46 -1395.2)" gradientUnits="userSpaceOnUse" xlink:href="#a"/>
  <radialGradient id="e" cx="70.181" cy="148.16" r="61.644" gradientTransform="matrix(1.3583 -.43942 .79272 2.4504 -146.01 -171.71)" gradientUnits="userSpaceOnUse">
   <stop stop-color="#fff" stop-opacity=".792" offset="0"/>
   <stop stop-color="#fff" stop-opacity="0" offset="1"/>
  </radialGradient>
  <linearGradient id="j" x1="423.91" x2="404.82" y1="374.34" y2="411.34" gradientTransform="matrix(.6808 0 0 .6808 -121.81 -217.09)" gradientUnits="userSpaceOnUse" xlink:href="#a"/>
  <linearGradient id="a">
   <stop stop-opacity="0" offset="0"/>
   <stop stop-opacity=".505" offset="1"/>
  </linearGradient>
 </defs>
 <path d="M166.06 9.254a13.848 13.848 0 00-3.298.34c-4.5 1.023-7.621 3.83-8.914 7.148-1.292 3.318-1.047 6.82-.383 10 1.33 6.36 4.596 11.892 4.596 11.892l.212.34.277.277c.861.862 2.9 1.968 4.702 1.83 1.8-.139 3.52-.734 6.616-1.766 3.244-1.081 4.644-3.896 5.745-6.914 1.1-3.018 1.677-6.556 1.531-10.063-.146-3.507-.99-7.078-3.382-9.787-1.795-2.032-4.532-3.244-7.702-3.297zm-.042 6.042c1.608-.065 2.427.478 3.17 1.319.99 1.12 1.72 3.358 1.83 5.978.108 2.62-.378 5.529-1.171 7.702s-2.116 3.272-1.936 3.212c-2.867.956-4.33 1.312-4.85 1.383-.49-.892-2.653-4.888-3.596-9.404-.527-2.521-.537-4.934.085-6.531.622-1.597 1.585-2.703 4.574-3.383.743-.169 1.357-.255 1.894-.276z" fill="#ff0" fill-rule="evenodd"/>
 <path transform="matrix(.85511 0 0 .83196 -153.05 -339.12)" d="M452 636.362a109 43 0 11-218 0 109 43 0 11218 0z" filter="url(#d)"/>
 <path d="m145.06 29.614a182.2 182.2 0 0 1-12.362 21.934c-45.862 2.705-82.27 40.797-82.27 87.334 0 48.29 39.192 87.483 87.482 87.483s87.483-39.193 87.483-87.483c0-33.115-18.416-61.97-45.571-76.824-0.854-8.262-0.653-16.512 1.319-24.275l-36.082-8.17z" fill="red"/>
 <path d="M114.938 58.531c-33.825 9.512-59.895 42.002-60.532 77.344-1.479 35.01 21.132 69.308 54.127 81.25 22.222 8.33 48.226 6.47 69.092-4.719-14.798-24.566-49.72-26.145-63.875-51.312-7.214-15.186-.084-32.45 7.813-45.844 6.46-12.431 17.851-24.29 16.687-39.25-1.04-8.025-7.746-13.529-15.25-15.5-2.65-.692-5.35-2.357-8.063-1.969z" fill="url(#e)" filter="url(#f)"/>
 <path d="M166.06 9.254a13.848 13.848 0 00-3.298.34c-4.5 1.023-7.621 3.83-8.914 7.148-1.292 3.318-1.047 6.82-.383 10 1.33 6.36 4.596 11.892 4.596 11.892l.212.34.277.277c.861.862 2.9 1.968 4.702 1.83 1.8-.139 3.52-.734 6.616-1.766 3.244-1.081 4.644-3.896 5.745-6.914 1.1-3.018 1.677-6.556 1.531-10.063-.146-3.507-.99-7.078-3.382-9.787-1.795-2.032-4.532-3.244-7.702-3.297zm-.042 6.042c1.608-.065 2.427.478 3.17 1.319.99 1.12 1.72 3.358 1.83 5.978.108 2.62-.378 5.529-1.171 7.702s-2.116 3.272-1.936 3.212c-2.867.956-4.33 1.312-4.85 1.383-.49-.892-2.653-4.888-3.596-9.404-.527-2.521-.537-4.934.085-6.531.622-1.597 1.585-2.703 4.574-3.383.743-.169 1.357-.255 1.894-.276z" fill="url(#g)" fill-rule="evenodd"/>
 <path d="m145.06 29.614a182.2 182.2 0 0 1-12.362 21.934c-45.862 2.705-82.27 40.797-82.27 87.334 0 48.29 39.192 87.483 87.482 87.483s87.483-39.193 87.483-87.483c0-33.115-18.416-61.97-45.571-76.824-0.854-8.262-0.653-16.512 1.319-24.275l-36.082-8.17z" fill="url(#h)"/>
 <path d="M137.573 39.817c.871 1.446 42.342 11.473 43.294 10.071 1.07-1.575 2.128-14.389 1.086-15.383-1.455-1.388-34.63-9.48-36.891-8.985-1.676.367-8.238 13.055-7.49 14.297z" fill="#ff0" fill-rule="evenodd"/>
 <path d="m145.06 29.614a182.2 182.2 0 0 1-12.362 21.934c-45.862 2.705-82.27 40.797-82.27 87.334 0 48.29 39.192 87.483 87.482 87.483s87.483-39.193 87.483-87.483c0-33.115-18.416-61.97-45.571-76.824-0.854-8.262-0.653-16.512 1.319-24.275l-36.082-8.17z" fill="url(#i)"/>
 <path d="M137.573 39.817c.871 1.446 42.342 11.473 43.294 10.071 1.07-1.575 2.128-14.389 1.086-15.383-1.455-1.388-34.63-9.48-36.891-8.985-1.676.367-8.238 13.055-7.49 14.297z" fill="url(#j)" fill-rule="evenodd"/>
 <path d="m180.76 70.79c-30.404-0.32-63.025-3.688-94.605 6.575l9.569 18.357c29.205-10.157 59.096-15.513 89.488-17.364l-4.452-7.568z" fill="#fff" fill-rule="evenodd" filter="url(#k)"/>
 <path d="m187.44 84.146c-29.894 3.072-58.85 8.956-86.373 19.144l13.35 20.247c27.242-14.378 51.274-27.656 79.7-31.377l-6.677-8.014z" fill="#fff" fill-rule="evenodd" filter="url(#l)"/>
 <path d="M81.475 100.397a5.12 5.12 0 11-10.24 0 5.12 5.12 0 1110.24 0z" fill="#fff" filter="url(#m)"/>
 <path d="M88.598 114.866a3.784 3.562 0 11-7.568 0 3.784 3.562 0 117.568 0z" fill="#fff" filter="url(#n)"/>
 <path transform="matrix(1.5348 0 0 1.3063 -53.214 -44.686)" d="M102.4 136.237a4.675 4.897 0 11-9.35 0 4.675 4.897 0 119.35 0z" fill="#fff" filter="url(#o)"/>
</svg>
