<?xml version="1.0" encoding="UTF-8"?>
<!DOCTYPE svg PUBLIC "-//W3C//DTD SVG 1.1//EN" "http://www.w3.org/Graphics/SVG/1.1/DTD/svg11.dtd">
<svg version="1.1" xmlns="http://www.w3.org/2000/svg" xmlns:xlink="http://www.w3.org/1999/xlink" x="0" y="0" width="795" height="825" viewBox="0, 0, 795, 825">
  <defs>
    <clipPath id="Clip_1">
      <path d="M0.3,2.5 L795,2.5 L795,825 L0.3,825 z"/>
    </clipPath>
    <clipPath id="Clip_2">
      <path d="M0.3,2.5 L795,2.5 L795,825 L0.3,825 z"/>
    </clipPath>
    <clipPath id="Clip_3">
      <path d="M0.3,2.5 L795,2.5 L795,825 L0.3,825 z"/>
    </clipPath>
    <clipPath id="Clip_4">
      <path d="M0.3,2.5 L795,2.5 L795,825 L0.3,825 z"/>
    </clipPath>
    <clipPath id="Clip_5">
      <path d="M0.3,2.5 L795,2.5 L795,825 L0.3,825 z"/>
    </clipPath>
  </defs>
  <g id="Layer_1">
    <g clip-path="url(#Clip_1)">
      <path d="M283.68,216.45 C246.19,223.8 219.61,260.13 223.205,301.155 C226.795,342.19 259.285,373.335 297.485,374.05 M626.66,138.105 C649.665,202.925 652.08,350.605 609.58,413.105 C571.21,469.53 530.83,488.105 463.33,488.105 C395.83,488.105 355.45,469.53 317.08,413.105 C274.58,350.605 276.995,202.925 300,138.105 C327.5,60.605 392.91,37.475 462.08,37.475 C531.25,37.475 599.16,60.605 626.66,138.105 z M641.6,216.34 C679.155,223.36 706.055,259.455 702.815,300.51 C699.58,341.575 667.365,373 629.175,374.05 M438.79,513.48 L310.835,556.665 C310.835,556.665 299.165,684.79 340.835,826.46 M255.7,663.12 C247.91,652.11 243.335,638.675 243.335,624.165 C243.335,586.885 273.555,556.665 310.835,556.665 M310.835,691.665 C303.43,691.665 296.305,690.475 289.635,688.275 M487.71,487.705 L488.815,512.5 C488.815,512.5 481.95,519.165 465.295,519.165 L461.375,519.165 C444.715,519.165 437.855,512.5 437.855,512.5 L438.75,487.92 M487.435,513.33 L615.835,556.665 C615.835,556.665 627.5,684.79 585.835,826.46 M615.835,691.665 C653.115,691.665 683.335,661.45 683.335,624.165 C683.335,586.885 653.115,556.665 615.835,556.665 M547.5,535.835 C547.5,535.835 517.505,562.5 464.17,562.5 L462.5,562.5 C409.165,562.5 379.17,535.835 379.17,535.835 M163.05,742.94 C163.53,742.47 164.02,742.005 164.52,741.555 M196.22,730.995 C217.605,732.88 234.375,750.835 234.375,772.71 C234.375,795.835 215.625,814.585 192.5,814.585 C169.375,814.585 150.625,795.835 150.625,772.71 C150.625,761.065 155.375,750.535 163.05,742.94 M135.81,593.465 C180.86,584.25 190.635,562.365 194.83,536.29 C198.81,511.52 196.33,496.2 189.34,488.42 C179.765,477.765 127.53,467.175 111.275,464.18 C95.02,461.19 84.035,469.435 93.255,488.76 C102.705,508.555 131.37,506.81 148.42,507.15 C148.42,507.15 130.48,521.85 126.44,544.965 C119.38,585.365 135.81,593.465 135.81,593.465 z M55.735,546.705 C55.735,546.705 54.68,572.145 79.79,589.95 C97.815,602.73 117.205,599.28 135.81,593.465 M95.015,466.44 C94.6,457.825 95.67,450.13 98.785,445.135 C106.9,432.105 127.36,432.515 132.6,440.375 C140.155,451.715 142.495,469.555 142.495,469.555 M133.675,524.645 C133.675,524.645 125.57,531.01 112.475,517.005 C108.63,512.895 105.025,506.36 102.09,498.78 M95.995,450.07 C86.92,445.76 64.46,449.59 62.49,468.315 C60.545,486.675 70.755,523.965 86.365,534.405 C101.975,544.85 113.345,531.39 116.545,521.68 M83.235,532.315 C83.51,541.04 79.57,554.71 62.375,549.56 C45.18,544.415 31.925,518.4 28.34,494.26 C25.295,473.77 48.38,466.37 61.28,473.84 M134.36,443.64 C134.36,443.64 122.515,338.03 127.705,318.81 C133.195,298.5 163.695,297.07 167.695,320.535 C171.695,344 178.11,480.515 178.11,480.515 M156.565,590.805 L198.335,742.5 C198.335,742.5 190.1,758.23 166.56,751.77 L126.565,598.305 M235,764.165 L295,680.835 C295,680.835 295,649.585 259.165,657.5 L211.665,733.335 M635,689.585 L658.75,828.335 M671.875,663.96 L697.5,828.335" fill-opacity="0" stroke="#1A1919" stroke-width="13" stroke-linecap="round" stroke-linejoin="round"/>
    </g>
    <path d="M641.6,216.34 C679.155,223.36 706.055,259.455 702.815,300.51 C699.58,341.575 667.365,373 629.175,374.05" fill="#DF516C"/>
    <path d="M615.835,556.665 C653.115,556.665 683.335,586.885 683.335,624.165 C683.335,661.45 653.115,691.665 615.835,691.665 L588.335,690.835 L595.835,576.665 L615.835,556.665" fill="#9E9F9E"/>
    <g clip-path="url(#Clip_2)">
      <path d="M310.835,691.665 C303.43,691.665 296.305,690.475 289.635,688.275 L255.7,663.12 C247.91,652.11 243.335,638.675 243.335,624.165 C243.335,586.885 273.555,556.665 310.835,556.665 L342.5,637.5 L310.835,691.665" fill="#9E9F9E"/>
      <path d="M585.835,826.46 C627.5,684.79 615.835,556.665 615.835,556.665 L487.435,513.33 L438.79,513.48 L310.835,556.665 C310.835,556.665 299.165,684.79 340.835,826.46 L585.835,826.46" fill="#D7D8D6"/>
    </g>
    <path d="M163.05,742.94 C163.53,742.47 164.02,742.005 164.52,741.555" fill="#D7D8D6"/>
    <path d="M196.22,730.995 C217.605,732.88 234.375,750.835 234.375,772.71 C234.375,795.835 215.625,814.585 192.5,814.585 C169.375,814.585 150.625,795.835 150.625,772.71 C150.625,761.065 155.375,750.535 163.05,742.94" fill="#9E9F9E"/>
    <path d="M135.81,593.465 C178.725,583.63 190.015,563.86 194.42,539.8 C198.935,515.125 196.33,496.2 189.34,488.42 C179.765,477.765 127.53,467.175 111.275,464.18 C95.02,461.19 84.035,469.435 93.255,488.76 C102.705,508.555 131.37,506.81 148.42,507.15 C148.42,507.15 130.48,521.85 126.44,544.965 C119.38,585.365 135.81,593.465 135.81,593.465" fill="#9E9F9E"/>
    <path d="M95.015,466.44 C94.6,457.825 95.67,450.13 98.785,445.135 C106.9,432.105 127.36,432.515 132.6,440.375 C140.155,451.715 142.495,469.555 142.495,469.555" fill="#9E9F9E"/>
    <path d="M95.995,450.07 C86.92,445.76 64.46,449.59 62.49,468.315 C60.545,486.675 70.755,523.965 86.365,534.405 C101.975,544.85 113.345,531.39 116.545,521.68" fill="#9E9F9E"/>
    <path d="M61.28,473.84 C48.38,466.37 25.295,473.77 28.34,494.26 C31.925,518.4 45.18,544.415 62.375,549.56 C79.57,554.71 83.51,541.04 83.235,532.315" fill="#9E9F9E"/>
    <path d="M55.735,546.705 C55.735,546.705 56.925,571 79.79,589.95 C98.545,605.5 117.205,599.28 135.81,593.465 L174.105,518.45 L157.175,495.825 L82.8,496.765 C82.8,496.765 54.295,535.4 55.735,546.705" fill="#9E9F9E"/>
    <path d="M178.11,480.515 C178.11,480.515 172.11,342.73 168.11,319.265 C164.11,295.8 136.745,299.58 128.12,317.535 C119.505,335.49 133.32,432.695 133.32,432.695 L138.735,471.14 L178.11,480.515" fill="#9E9F9E"/>
    <path d="M156.565,590.805 L198.335,742.5 C198.335,742.5 190.1,758.23 166.56,751.77 L126.565,598.305" fill="#FFFFFE"/>
    <g clip-path="url(#Clip_3)">
      <path d="M235,764.165 L295,680.835 C295,680.835 295,649.585 259.165,657.5 L211.665,733.335 L235,764.165" fill="#FFFFFE"/>
      <path d="M671.875,663.96 L697.5,828.335 L658.75,828.335 L635,689.585 L671.875,663.96" fill="#FFFFFE"/>
    </g>
    <path d="M439.05,486.845 L437.855,512.5 L379.17,535.835 C379.17,535.835 409.165,562.5 462.5,562.5 L464.17,562.5 C517.505,562.5 547.5,535.835 547.5,535.835 L488.815,512.5 L487.555,486.845" fill="#9E9F9E"/>
    <path d="M297.485,374.05 C259.285,373.335 226.795,342.19 223.205,301.155 C219.61,260.13 246.19,223.8 283.68,216.45 L296.665,227.5 L307.5,361.665 L297.485,374.05" fill="#DF516C"/>
    <path d="M230.705,320.32 C227.11,279.295 253.69,242.97 291.18,235.62 L297.775,241.23 L296.665,227.5 L283.68,216.45 C246.19,223.8 219.61,260.13 223.205,301.155 C224.24,312.965 227.725,323.91 232.995,333.59 C231.915,329.3 231.105,324.885 230.705,320.32" fill="#EA8C9B"/>
    <path d="M699.295,320.32 C702.89,279.295 676.31,242.97 638.82,235.62 L632.225,241.23 L633.33,227.5 L646.32,216.45 C683.81,223.8 710.39,260.13 706.795,301.155 C705.76,312.965 702.275,323.91 697,333.59 C698.085,329.3 698.895,324.885 699.295,320.32" fill="#EA8C9B"/>
    <path d="M626.66,138.105 C649.665,202.925 652.08,350.605 609.58,413.105 C571.21,469.53 530.83,488.105 463.33,488.105 C395.83,488.105 355.45,469.53 317.08,413.105 C274.58,350.605 276.995,202.925 300,138.105 C327.5,60.605 392.91,37.475 462.08,37.475 C531.25,37.475 599.16,60.605 626.66,138.105" fill="#D7D8D6"/>
    <path d="M308.49,162.45 C337.33,84.95 405.93,61.82 478.475,61.82 C525.615,61.82 572.185,71.605 606.945,99.71 C573.38,52.68 518.145,37.475 462.08,37.475 C392.91,37.475 327.5,60.605 300,138.105 C279.515,195.835 275.385,319.235 304.745,389.705 C283.805,317.865 289.31,213.99 308.49,162.45" fill="#FFFFFE"/>
    <path d="M435.365,285.655 C435.365,315.305 411.395,339.34 381.825,339.34 C352.255,339.34 328.29,315.305 328.29,285.655 C328.29,256.005 352.255,231.975 381.825,231.975 C411.395,231.975 435.365,256.005 435.365,285.655" fill="#FFFFFE"/>
    <path d="M491.295,285.655 C491.295,315.305 515.275,339.34 544.84,339.34 C574.41,339.34 598.38,315.305 598.38,285.655 C598.38,256.005 574.41,231.975 544.84,231.975 C515.275,231.975 491.295,256.005 491.295,285.655" fill="#FFFFFE"/>
    <path d="M561.46,732.325 C561.46,737.005 557.63,740.835 552.955,740.835 L373.715,740.835 C369.035,740.835 365.21,737.005 365.21,732.325 L365.21,644.34 C365.21,639.66 369.035,635.835 373.715,635.835 L552.955,635.835 C557.63,635.835 561.46,639.66 561.46,644.34 L561.46,732.325" fill="#FFFFFE"/>
    <path d="M561.46,732.325 C561.46,737.005 557.63,740.835 552.955,740.835 L373.715,740.835 C369.035,740.835 365.21,737.005 365.21,732.325 L365.21,644.34 C365.21,639.66 369.035,635.835 373.715,635.835 L552.955,635.835 C557.63,635.835 561.46,639.66 561.46,644.34 L561.46,732.325 z" fill-opacity="0" stroke="#1A1919" stroke-width="6"/>
    <path d="M406.01,685.32 L416.465,685.32 C419.8,685.32 422.5,682.615 422.5,679.28 L422.5,667.84 C422.5,666.485 421.42,665.405 420.07,665.405 L406.01,665.405 L406.01,685.32 z M422.5,730.73 L422.5,704.06 C422.5,700.725 419.8,698.115 416.465,698.115 L406.01,698.115 L406.01,730.73 L393.22,730.73 L393.22,652.61 L423.22,652.61 C429.885,652.61 435.3,658.015 435.3,664.685 L435.3,679.64 C435.3,686.31 429.885,691.715 423.22,691.715 C429.885,691.715 435.3,697.035 435.3,703.7 L435.3,730.73 L422.5,730.73" fill="#1A1919"/>
    <path d="M477.185,711.99 L477.185,671.445 C477.185,668.11 474.485,665.405 471.15,665.405 L466.645,665.405 C463.31,665.405 460.7,668.11 460.7,671.445 L460.7,711.99 C460.7,715.325 463.31,717.935 466.645,717.935 L471.15,717.935 C474.485,717.935 477.185,715.325 477.185,711.99 z M465.93,652.61 L471.965,652.61 C481.875,652.61 489.985,660.72 489.985,670.63 L489.985,712.71 C489.985,722.71 481.875,730.73 471.965,730.73 L465.93,730.73 C455.925,730.73 447.905,722.71 447.905,712.71 L447.905,670.63 C447.905,660.72 455.925,652.61 465.93,652.61" fill="#1A1919"/>
    <path d="M502.595,665.405 L502.595,652.61 L514.935,652.61 C521.605,652.61 527.01,658.015 527.01,664.685 L527.01,730.73 L514.215,730.73 L514.215,667.84 C514.215,666.485 513.135,665.405 511.78,665.405 L502.595,665.405" fill="#1A1919"/>
    <path d="M385.91,651.435 C385.91,654.735 383.23,657.405 379.93,657.405 C376.63,657.405 373.95,654.735 373.95,651.435 C373.95,648.13 376.63,645.455 379.93,645.455 C383.23,645.455 385.91,648.13 385.91,651.435" fill="#1A1919"/>
    <path d="M385.91,726.46 C385.91,729.76 383.23,732.43 379.93,732.43 C376.63,732.43 373.95,729.76 373.95,726.46 C373.95,723.155 376.63,720.48 379.93,720.48 C383.23,720.48 385.91,723.155 385.91,726.46" fill="#1A1919"/>
    <path d="M553.35,651.435 C553.35,654.735 550.675,657.405 547.375,657.405 C544.07,657.405 541.395,654.735 541.395,651.435 C541.395,648.13 544.07,645.455 547.375,645.455 C550.675,645.455 553.35,648.13 553.35,651.435" fill="#1A1919"/>
    <path d="M553.35,726.46 C553.35,729.76 550.675,732.43 547.375,732.43 C544.07,732.43 541.395,729.76 541.395,726.46 C541.395,723.155 544.07,720.48 547.375,720.48 C550.675,720.48 553.35,723.155 553.35,726.46" fill="#1A1919"/>
    <path d="M126.25,598.96 L156.25,588.335 L159.685,601.77 C159.685,601.77 151.25,618.96 130.625,622.085 L126.25,598.96" fill="#CBCCCB"/>
    <path d="M635,689.585 L671.875,663.96 L674.25,689.91 C674.25,689.91 659.875,706.785 639.875,710.535 L635,689.585" fill="#CBCCCB"/>
    <path d="M437.5,488.755 L489.17,489.17 L489.165,502.085 C489.165,502.085 467.915,516.25 437.5,510.21 L437.5,488.755" fill="#777776"/>
    <path d="M400.635,89.415 C405.86,99.46 397.09,114.39 381.035,122.755 C364.975,131.115 347.72,129.755 342.485,119.7 C337.25,109.65 346.025,94.73 362.08,86.365 C378.14,78 395.395,79.365 400.635,89.415" fill="#FFFFFE"/>
    <path d="M291.55,578.57 C295.2,584.62 290.335,594.25 280.67,600.09 C271.005,605.93 260.215,605.76 256.56,599.71 C252.91,593.665 257.78,584.035 267.445,578.195 C277.105,572.355 287.9,572.52 291.55,578.57" fill="#D7D8D6"/>
    <path d="M310.835,556.665 L379.17,535.835 L391.67,547.5 L309.165,581.665 C309.165,581.665 305,567.5 310.835,556.665" fill="#F2F1F0"/>
    <path d="M547.5,535.835 L615.835,556.665 L616.67,582.5 C616.67,582.5 547.5,551.665 530,549.165 L547.5,535.835" fill="#F2F1F0"/>
    <path d="M131.25,392.085 C131.25,392.085 132.78,334.845 143.335,323.33 C157.085,308.335 168.75,325.83 168.75,325.83 C168.75,325.83 165.835,302.915 145.415,302.915 C125,302.915 126.25,338.75 125.835,347.085 C125.415,355.42 131.25,392.085 131.25,392.085" fill="#D7D8D6"/>
    <path d="M31.85,503.52 C31.85,503.52 44.165,477.705 62.29,486.255 C63.51,473.705 79.375,459.17 91.875,468.33 L96.615,465.065 L104.375,463.955 C104.375,463.955 105,441.67 132.085,446.045 L121.71,433.495 C121.71,433.495 104.835,436.565 104.71,437.135 C104.585,437.705 98.23,447.66 98.23,447.66 L76.25,448.755 C76.25,448.755 62.61,457.9 62.61,462.635 C62.61,465.875 62.49,468.315 62.49,468.315 C62.49,468.315 38.435,471.38 38.335,471.455 C31.28,476.85 28.215,478.12 28.615,485.305 C29.02,492.59 31.85,503.52 31.85,503.52" fill="#D7D8D6"/>
    <path d="M93.255,488.76 C91.145,481.7 86.72,468.99 96.615,465.065 C106.51,461.14 137.705,471.3 137.705,471.3 C137.705,471.3 96.345,468.705 93.255,488.76" fill="#D7D8D6"/>
    <path d="M283.68,216.45 C246.19,223.8 219.61,260.13 223.205,301.155 C226.795,342.19 259.285,373.335 297.485,374.05 M626.66,138.105 C649.665,202.925 652.08,350.605 609.58,413.105 C571.21,469.53 530.83,488.105 463.33,488.105 C395.83,488.105 355.45,469.53 317.08,413.105 C274.58,350.605 276.995,202.925 300,138.105 C327.5,60.605 392.91,37.475 462.08,37.475 C531.25,37.475 599.16,60.605 626.66,138.105 z M527.08,476.855 L528.33,394.6 L396.25,394.6 L397.5,475.605 M528.33,397.75 L396.25,397.75" fill-opacity="0" stroke="#1A1919" stroke-width="8" stroke-linecap="round" stroke-linejoin="round"/>
    <path d="M257.37,227.395 C257.37,227.395 245.115,289.16 268.77,367.76" fill-opacity="0" stroke="#1A1919" stroke-width="5" stroke-linecap="round" stroke-linejoin="round"/>
    <path d="M641.6,216.34 C679.155,223.36 706.055,259.455 702.815,300.51 C699.58,341.575 667.365,373 629.175,374.05" fill-opacity="0" stroke="#1A1919" stroke-width="8" stroke-linecap="round" stroke-linejoin="round"/>
    <path d="M668.01,227.055 C668.01,227.055 680.795,288.71 657.83,367.51" fill-opacity="0" stroke="#1A1919" stroke-width="5" stroke-linecap="round" stroke-linejoin="round"/>
    <path d="M435.595,285.655 C435.595,314.98 411.825,338.755 382.5,338.755 C353.175,338.755 329.41,314.98 329.41,285.655 C329.41,256.335 353.175,232.565 382.5,232.565 C411.825,232.565 435.595,256.335 435.595,285.655 z" fill-opacity="0" stroke="#1A1919" stroke-width="8" stroke-linecap="round" stroke-linejoin="round"/>
    <path d="M415.575,285.655 C415.575,303.925 400.77,318.735 382.5,318.735 C364.235,318.735 349.42,303.925 349.42,285.655 C349.42,267.39 364.235,252.58 382.5,252.58 C400.77,252.58 415.575,267.39 415.575,285.655" fill="#1A1919"/>
    <path d="M491.06,285.655 C491.06,314.98 514.84,338.755 544.16,338.755 C573.48,338.755 597.255,314.98 597.255,285.655 C597.255,256.335 573.48,232.565 544.16,232.565 C514.84,232.565 491.06,256.335 491.06,285.655 z" fill-opacity="0" stroke="#1A1919" stroke-width="8" stroke-linecap="round" stroke-linejoin="round"/>
    <path d="M511.085,285.655 C511.085,303.925 525.895,318.735 544.16,318.735 C562.425,318.735 577.235,303.925 577.235,285.655 C577.235,267.39 562.425,252.58 544.16,252.58 C525.895,252.58 511.085,267.39 511.085,285.655" fill="#1A1919"/>
    <g clip-path="url(#Clip_4)">
      <path d="M438.79,513.48 L310.835,556.665 C310.835,556.665 299.165,684.79 340.835,826.46 M255.7,663.12 C247.91,652.11 243.335,638.675 243.335,624.165 C243.335,586.885 273.555,556.665 310.835,556.665 M310.835,691.665 C303.43,691.665 296.305,690.475 289.635,688.275 M487.71,487.705 L488.815,512.5 C488.815,512.5 481.95,519.165 465.295,519.165 L461.375,519.165 C444.715,519.165 437.855,512.5 437.855,512.5 L438.75,487.92 M487.435,513.33 L615.835,556.665 C615.835,556.665 627.5,684.79 585.835,826.46 M615.835,691.665 C653.115,691.665 683.335,661.45 683.335,624.165 C683.335,586.885 653.115,556.665 615.835,556.665 M547.5,535.835 C547.5,535.835 517.505,562.5 464.17,562.5 L462.5,562.5 C409.165,562.5 379.17,535.835 379.17,535.835" fill-opacity="0" stroke="#1A1919" stroke-width="8" stroke-linecap="round" stroke-linejoin="round"/>
    </g>
    <path d="M413.515,265.73 C413.515,270.885 409.345,275.07 404.18,275.07 C399.025,275.07 394.835,270.885 394.835,265.73 C394.835,260.57 399.025,256.39 404.18,256.39 C409.345,256.39 413.515,260.57 413.515,265.73" fill="#FFFFFE"/>
    <path d="M575.69,265.73 C575.69,270.885 571.51,275.07 566.355,275.07 C561.185,275.07 557,270.885 557,265.73 C557,260.57 561.185,256.39 566.355,256.39 C571.51,256.39 575.69,260.57 575.69,265.73" fill="#FFFFFE"/>
    <path d="M163.05,742.94 C163.53,742.47 164.02,742.005 164.52,741.555 M196.22,730.995 C217.605,732.88 234.375,750.835 234.375,772.71 C234.375,795.835 215.625,814.585 192.5,814.585 C169.375,814.585 150.625,795.835 150.625,772.71 C150.625,761.065 155.375,750.535 163.05,742.94 M135.81,593.465 C180.86,584.25 190.635,562.365 194.83,536.29 C198.81,511.52 196.33,496.2 189.34,488.42 C179.765,477.765 127.53,467.175 111.275,464.18 C95.02,461.19 84.035,469.435 93.255,488.76 C102.705,508.555 131.37,506.81 148.42,507.15 C148.42,507.15 130.48,521.85 126.44,544.965 C119.38,585.365 135.81,593.465 135.81,593.465 z M55.735,546.705 C55.735,546.705 54.68,572.145 79.79,589.95 C97.815,602.73 117.205,599.28 135.81,593.465 M94.93,464.685 C94.51,456.07 95.67,450.13 98.785,445.135 C106.9,432.105 127.36,432.515 132.6,440.375 C140.155,451.715 142.495,469.555 142.495,469.555 M133.675,524.645 C133.675,524.645 125.57,531.01 112.475,517.005 C108.63,512.895 105.42,507.71 102.49,500.135 M95.995,450.07 C86.92,445.76 64.46,449.59 62.49,468.315 C60.545,486.675 70.755,523.965 86.365,534.405 C101.975,544.85 113.345,531.39 116.545,521.68 M83.235,532.315 C83.51,541.04 79.57,554.71 62.375,549.56 C45.18,544.415 31.925,518.4 28.34,494.26 C25.295,473.77 48.38,466.37 61.28,473.84 M134.36,443.64 C134.36,443.64 122.515,338.03 127.705,318.81 C133.195,298.5 163.695,297.07 167.695,320.535 C171.695,344 178.11,480.515 178.11,480.515" fill-opacity="0" stroke="#1A1919" stroke-width="8" stroke-linecap="round" stroke-linejoin="round"/>
    <path d="M147.29,507.71 C147.29,507.71 177.535,493.88 190.625,487.715" fill-opacity="0" stroke="#1A1919" stroke-width="6" stroke-linecap="round" stroke-linejoin="round"/>
    <g clip-path="url(#Clip_5)">
      <path d="M156.565,590.805 L198.335,742.5 C198.335,742.5 190.1,758.23 166.56,751.77 L126.565,598.305 M235,764.165 L295,680.835 C295,680.835 295,649.585 259.165,657.5 L211.665,733.335 M635,689.585 L658.75,828.335 M671.875,663.96 L697.5,828.335" fill-opacity="0" stroke="#1A1919" stroke-width="8" stroke-linecap="round" stroke-linejoin="round"/>
    </g>
    <path d="M341.67,204.395 L416.67,204.395 M506.665,204.395 L581.665,204.395" fill-opacity="0" stroke="#1A1919" stroke-width="15" stroke-linecap="round"/>
    <path d="M128.71,383.02 C128.71,383.02 142.475,370.465 171.86,379.265" fill-opacity="0" stroke="#1A1919" stroke-width="6" stroke-linecap="round" stroke-linejoin="round"/>
    <path d="M294.19,161.015 L631.67,161.015" fill-opacity="0" stroke="#1A1919" stroke-width="6"/>
  </g>
</svg>
