<?xml version="1.0"?><svg width="426.72858" height="746.25781" xmlns="http://www.w3.org/2000/svg">
 <title>Cohete</title>

 <metadata id="metadata1906">image/svg+xml</metadata>
 <g>
  <title>Layer 1</title>
  <g transform="rotate(-0.234424, 210.347, 382.558)" id="svg_1">
   <path fill="#ececec" fill-rule="evenodd" stroke="#000000" stroke-width="4" id="path3217" d="m209.705505,111.961578c-12.614563,18.016541 -109.5746,169.019226 -36.129547,458.18985l73.168121,0l0.26886,0c73.444702,-289.169281 -23.514679,-440.149536 -36.129547,-458.166885l-1.177887,-0.022964z"/>
   <path fill="#ff0000" fill-rule="evenodd" stroke="#000000" stroke-width="1px" d="m160.807617,230.682281l17.795532,-58.67041l24.830994,-50.501083l7.035431,-9.654617l26.486389,49.758438l20.692505,60.155716l1.655365,12.625275l-98.910095,-0.742676" id="path2419"/>
   <path fill="#ff0000" fill-rule="evenodd" stroke="#000000" stroke-width="10" d="m150.875214,454.223877c0,0 -43.868088,-0.980469 -17.381683,199.033813c0,0 2.483093,-167.007813 25.658661,-146.418091" id="path2408"/>
   <path fill="#ff0000" fill-rule="evenodd" stroke="#000000" stroke-width="10" id="path2410" d="m269.840363,454.223877c0,0 43.868103,-0.980469 17.381714,199.033813c0,0 -2.483093,-167.007813 -25.658691,-146.418091"/>
   <path fill="#b3b3b3" fill-rule="evenodd" stroke="#000000" stroke-width="1px" d="m162.876862,529.23291l10.760101,40.846497l73.665253,-0.742737l8.690826,-40.10376l-93.11618,0z" id="path2423"/>
   <path fill="#d20000" fill-rule="evenodd" stroke-width="1px" d="m279.996338,474.275818l-8.276978,37.133179l-4.966217,-7.426697l-5.793884,4.455994l7.863129,-55.699707l14.070892,12.625305c0,0 24.417145,30.449158 5.380066,181.952454c11.17392,-156.701965 -8.690857,-173.040527 -8.277008,-173.040527z" id="path3209"/>
   <path fill="#d20000" fill-rule="evenodd" stroke-width="1px" d="m132.251984,651.029663c0,0 -4.121872,-162.014893 24.003296,-162.643188c3.103607,-0.069397 2.896912,17.823914 2.896912,17.823914l-11.17392,4.455933l-8.690857,49.015747l-7.035431,91.347595z" id="path3213"/>
   <path fill="#999999" fill-rule="evenodd" stroke-width="1px" d="m229.003052,529.236328c1.660431,8.976929 2.641693,21.502869 2.163666,39.356079c0.353241,0.223389 0.727386,0.536682 1.113831,0.896057l15.017731,-0.160828l7.003143,-32.302795c-0.282501,-2.760132 -0.608917,-5.223389 -0.921814,-7.788513l-24.376556,0z" id="path3232"/>
   <path fill="#cccccc" fill-rule="evenodd" stroke-width="1px" d="m218.338928,450.8302c-2.793488,-0.371338 -4.5578,0.413513 -4.5578,0.413513l-2.074066,57.184692c0,0 9.969971,-3.532898 14.672058,20.815369l24.427765,0c-7.93396,-66.394897 -24.444916,-77.347107 -32.467957,-78.413574z" id="path3227"/>
   <path fill="#cccccc" fill-rule="evenodd" stroke-width="1px" d="m164.041504,532.558228l8.193817,36.76001l11.471313,1.470398l-3.277527,-41.906372l-16.387604,3.675964z" id="path3241"/>
   <path fill="none" fill-rule="evenodd" stroke="#000000" stroke-width="10" d="m160.807617,232.167603l97.254669,0" id="path2394"/>
   <path fill="none" fill-rule="evenodd" stroke="#000000" stroke-width="10" d="m164.118408,529.975525l91.874634,0" id="path2417"/>
   <path fill="#ff0000" fill-rule="nonzero" stroke="#000000" stroke-width="4" stroke-linecap="round" stroke-miterlimit="4" d="m200.569244,452.738586l14.449341,0l0,200.519043l-14.449341,0l0,-200.519043z" id="rect2414"/>
   <path fill="#cccccc" fill-rule="evenodd" stroke-width="1px" d="m251.854553,520.320923c0,0 33.107971,-136.650024 6.621613,-268.10141c1.241547,233.196259 -34.349548,268.10141 -34.349548,268.10141l27.727936,0z" id="path2425"/>
   <path fill="#d20000" fill-rule="evenodd" stroke-width="1px" d="m248.129913,221.027649c0,0 -12.829346,-60.155731 -37.24649,-92.09024c22.3479,77.237 10.760101,92.090271 10.760101,92.090271l26.486389,-0.000031z" id="path2437"/>
   <path fill="none" fill-rule="evenodd" stroke="#000000" stroke-width="10" d="m269.840363,454.223877c0,0 43.868103,-0.980469 17.381714,199.033813c0,0 -2.483093,-167.007813 -25.658691,-146.418091" id="path3211"/>
   <path fill="none" fill-rule="evenodd" stroke="#000000" stroke-width="10" id="path3215" d="m150.875214,454.223877c0,0 -43.868088,-0.980469 -17.381683,199.033813c0,0 2.483093,-167.007813 25.658661,-146.418091"/>
   <path fill="#ffffff" fill-rule="evenodd" stroke-width="1px" d="m166.601501,218.799683c0,0 21.934021,-76.494324 40.143433,-96.546234c18.209381,-20.05191 -39.729584,98.031555 -40.143433,96.546234z" id="path3237"/>
   <path fill="#ffffff" fill-rule="evenodd" stroke-width="1px" d="m153.68219,422.068329c-1.296204,-1.291534 -9.309845,-107.310272 10.534882,-173.296936c12.236237,-17.673584 28.884155,-8.378906 28.093079,-1.050293c-6.852783,63.484985 -30.919128,182.028229 -38.62796,174.347229z" id="path3239"/>
  </g>
 </g>
</svg>