<svg width="400pt" height="400pt" xmlns="http://www.w3.org/2000/svg" xmlns:xlink="http://www.w3.org/1999/xlink"><defs><linearGradient id="a"><stop offset="0" stop-color="#fff" stop-opacity=".4"/><stop offset="1" stop-color="#fff" stop-opacity=".1"/></linearGradient><linearGradient xlink:href="#a" id="b"/></defs><g fill-rule="evenodd"><path d="M471.084 195.825c-.031.785-.18 1.44-.438 2-8.264 17.906-99.156-9.625-99.156-9.625s5.512 279.603-1.375 292c-6.887 12.396-166.457 12.459-173.344.062-6.887-12.397-1.375-292.031-1.375-292.031s-90.923 27.562-99.187 9.656c-8.087-17.521 97.252-149.693 184.375-151.5v-.062c1.895-.09 3.804-.009 5.719.03 84.34 1.75 185.726 125.655 184.78 149.47z" fill-opacity=".25"/><path d="M456.44 182.639c-.032.785-.18 1.44-.438 2-8.264 17.906-99.156-9.625-99.156-9.625s5.512 279.603-1.375 292c-6.887 12.397-166.457 12.459-173.344.062-6.887-12.396-1.375-292.03-1.375-292.03S89.83 202.607 81.565 184.7C73.478 167.18 178.817 35.01 265.94 33.201v-.062c1.895-.089 3.804-.009 5.718.031 84.34 1.75 185.727 125.655 184.782 149.469z" fill="#00f" stroke="#000" stroke-width="10" stroke-linejoin="round"/><path d="M184.274 455.667c-8.953 4.133 4.274-272.895-2.41-284.263-8.062-11.367-72.659 27.376-98.14 11.536-1.378-6.887 99.173-152.892 206.61-143.25-64.737 79.89-90.908 348.484-106.06 415.977z" fill="url(#b)"/></g></svg>