<svg width="400pt" height="400pt" xmlns="http://www.w3.org/2000/svg" xmlns:xlink="http://www.w3.org/1999/xlink"><defs><linearGradient id="a"><stop offset="0" stop-color="#fff" stop-opacity=".4"/><stop offset="1" stop-color="#fff" stop-opacity=".1"/></linearGradient><linearGradient xlink:href="#a" id="b"/></defs><g fill-rule="evenodd"><path d="M191.692 441.786c.786-.031 1.44-.18 2-.438 17.907-8.264-9.625-99.156-9.625-99.156s279.604 5.512 292-1.375c12.397-6.887 12.46-166.457.063-173.344-12.397-6.887-292.031-1.375-292.031-1.375s27.562-90.923 9.656-99.187c-17.522-8.087-149.693 97.252-151.5 184.375h-.063c-.089 1.895-.008 3.804.032 5.719 1.75 84.34 125.654 185.726 149.468 184.78z" fill-opacity=".25"/><path d="M176.033 431.355c.786-.031 1.44-.18 2-.438 17.907-8.264-9.625-99.156-9.625-99.156s279.604 5.512 292-1.375c12.397-6.887 12.46-166.457.063-173.344-12.397-6.887-292.031-1.375-292.031-1.375s27.562-90.923 9.656-99.187c-17.521-8.087-149.693 97.252-151.5 184.375h-.063c-.088 1.895-.008 3.804.032 5.719 1.75 84.34 125.654 185.726 149.468 184.78z" fill="#00f" stroke="#000" stroke-width="10" stroke-linejoin="round"/><path d="M176.309 61.983C159.779 56.473 24.793 163.912 31.68 250.69c6.887 86.777 129.477 177.686 139.119 173.553 17.906-6.887-2.755-77.135-9.642-95.04 2.755-8.265-5.51-70.249 85.4-73.004-101.929-33.057-77.136-92.286-86.777-99.173 12.396-39.945 20.66-86.777 16.529-95.042z" fill="url(#b)"/></g></svg>