<svg width="400pt" height="400pt" xmlns="http://www.w3.org/2000/svg"><path d="M276.618 68.515l-15.584-17.532s-14.611 0-27.273-4.87c-12.662-4.87-39.934-3.896-39.934-3.896l2.922 367.2 6.818 22.403s51.622-39.935 51.622-41.883c0-1.948 21.429-321.422 21.429-321.422z" fill="#8c6500" fill-rule="evenodd"/><path d="M275.644 68.515l-13.636 364.279-58.441-1.948 4.87-370.123s29.22-3.896 35.064.974c5.844 4.87 34.091 7.792 32.143 6.818z" fill="#865500" fill-rule="evenodd"/><path d="M476.289 119.163L455.835 106.5s-172.4-8.766-181.166-7.792c-8.766.974-8.766 4.87-14.61 4.87-5.844 0-112.01 2.922-120.777.974-8.766-1.948-70.128 4.87-76.946 7.792-6.818 2.922-55.518 52.597-55.518 53.57 0 .975 2.922 16.559 2.922 16.559s403.238 28.246 404.212 28.246c.974 0 62.337-90.583 62.337-91.557z" fill="#8c7300" fill-rule="evenodd"/><path d="M459.73 119.163s-185.061-11.688-187.983-4.87c-2.922 6.818-18.506 1.948-21.428 1.948-2.922 0-107.141-2.922-118.829-.974-11.688 1.948-57.466 8.766-60.388 8.766-2.922 0-61.362 56.493-61.362 57.467 0 .974 54.544 74.024 54.544 74.024s216.229 11.688 224.022 6.818c7.792-4.87 28.246-2.922 50.648.974 22.402 3.896 130.517 4.87 134.413 7.792 3.896 2.923 9.74 2.923 9.74 2.923s-12.662-32.143-15.584-38.961c-2.922-6.818-12.662-16.558-14.61-21.428-1.948-4.87.974-24.35 6.818-37.986 5.844-13.636 13.636-23.376 13.636-39.934 0-16.56 2.922-16.56 2.922-16.56H459.73z" fill="#8c5700" fill-rule="evenodd"/></svg>