<svg width="400pt" height="400pt" xmlns="http://www.w3.org/2000/svg"><path d="M482.864 188.317l-20.454-12.662s-172.4-8.766-181.166-7.792c-8.766.974-8.766 4.87-14.61 4.87-5.844 0-112.01 2.922-120.777.974-8.765-1.948-70.127 4.87-76.945 7.792-6.818 2.922-55.519 52.597-55.519 53.571 0 .974 2.923 16.558 2.923 16.558s403.238 28.246 404.212 28.246c.974 0 62.336-90.583 62.336-91.557z" fill="#8c7300" fill-rule="evenodd"/><path d="M466.306 188.317s-185.061-11.688-187.983-4.87c-2.922 6.818-18.506 1.948-21.428 1.948-2.923 0-107.142-2.922-118.83-.974-11.688 1.948-57.466 8.766-60.387 8.766-2.923 0-61.363 56.493-61.363 57.467 0 .974 54.544 74.024 54.544 74.024s216.23 11.688 224.022 6.818c7.792-4.87 28.246-2.922 50.648.974 22.402 3.896 130.517 4.87 134.413 7.792 3.896 2.923 9.74 2.923 9.74 2.923s-12.662-32.143-15.584-38.96c-2.922-6.819-12.662-16.559-14.61-21.429-1.948-4.87.974-24.35 6.818-37.986 5.844-13.636 13.636-23.376 13.636-39.934 0-16.559 2.922-16.559 2.922-16.559h-16.558z" fill="#8c5700" fill-rule="evenodd"/></svg>