<svg width="400pt" height="400pt" xmlns="http://www.w3.org/2000/svg" xmlns:xlink="http://www.w3.org/1999/xlink"><defs><linearGradient id="a"><stop offset="0" stop-color="#fff" stop-opacity=".4"/><stop offset="1" stop-color="#fff" stop-opacity=".1"/></linearGradient><linearGradient xlink:href="#a" id="b"/></defs><g fill-rule="evenodd"><path d="M461.07 333.101c-.032-.786-.18-1.44-.438-2-8.264-17.906-99.156 9.625-99.156 9.625s5.512-279.603-1.375-292c-6.887-12.397-166.457-12.46-173.344-.062-6.887 12.396-1.375 292.03-1.375 292.03s-90.923-27.562-99.188-9.655c-8.086 17.521 97.253 149.692 184.375 151.5v.062c1.896.089 3.805.009 5.72-.031 84.34-1.75 185.726-125.655 184.78-149.469z" fill-opacity=".25"/><path d="M448.165 326.802c-.03-.785-.179-1.44-.437-2-8.265-17.906-99.156 9.625-99.156 9.625s5.512-279.603-1.375-292c-6.887-12.396-166.457-12.459-173.344-.062-6.887 12.397-1.375 292.031-1.375 292.031s-90.923-27.562-99.188-9.656c-8.086 17.521 97.253 149.693 184.375 151.5v.062c1.896.09 3.805.009 5.72-.03 84.34-1.75 185.726-125.655 184.78-149.47z" fill="#00f" stroke="#000" stroke-width="10" stroke-linejoin="round"/><path d="M179.748 55.807c-8.953-4.132 4.274 272.895-2.41 284.263-8.062 11.368-72.658-27.376-98.14-11.536-1.378 6.887 99.173 152.893 206.611 143.25C221.071 391.896 194.9 123.3 179.75 55.808z" fill="url(#b)"/></g></svg>