<svg width="400pt" height="400pt" xmlns="http://www.w3.org/2000/svg" xmlns:xlink="http://www.w3.org/1999/xlink"><defs><linearGradient id="a"><stop offset="0" stop-color="#fff" stop-opacity=".4"/><stop offset="1" stop-color="#fff" stop-opacity=".1"/></linearGradient><linearGradient xlink:href="#a" id="b"/></defs><g fill-rule="evenodd"><path d="M344.12 71.988c-.785.032-1.44.18-2 .438-17.906 8.264 9.625 99.156 9.625 99.156s-279.603-5.512-292 1.375c-12.396 6.887-12.459 166.457-.062 173.344 12.397 6.887 292.031 1.375 292.031 1.375s-27.562 90.923-9.656 99.187c17.521 8.087 149.692-97.252 151.5-184.375h.062c.09-1.895.009-3.804-.03-5.718-1.75-84.34-125.655-185.727-149.47-184.782z" fill-opacity=".25"/><path d="M332.594 67.067c-.786.031-1.44.18-2 .438-17.907 8.264 9.625 99.156 9.625 99.156s-279.604-5.512-292 1.375c-12.397 6.887-12.46 166.457-.063 173.344 12.397 6.887 292.031 1.375 292.031 1.375s-27.562 90.923-9.656 99.187c17.522 8.087 149.693-97.252 151.5-184.375h.063c.089-1.895.008-3.804-.031-5.719-1.75-84.34-125.655-185.726-149.47-184.78z" fill="#00f" stroke="#000" stroke-width="10" stroke-linejoin="round"/><path d="M53.719 176.309c-8.264 17.906-15.152 118.457 4.132 157.024 6.887 1.378 61.984-75.757 231.405-67.493C129.476 245.18 53.72 176.31 53.72 176.31z" fill="url(#b)"/></g></svg>