<?xml version="1.0" encoding="UTF-8"?>
<svg width="128" height="128" xmlns="http://www.w3.org/2000/svg" xmlns:xlink="http://www.w3.org/1999/xlink">
 <g fill-rule="evenodd">
  <path d="M79.987 40.965c-5.064.294-6.353 6.128-8.89 9.54-2.42 4.04-8.587 3.189-10.42-.908-1.938-3.209-4.142-8.15-8.762-7.154-4.432 1.474-5.004 7.63-6.088 11.594-1.4 3.403.077 8.831-2.226 10.39-6.648-2.077-13.493-5.134-20.354-6.61-6.23-1.756-13.24-3.886-18.213 1.392-4.256 4.523-2.041 11.905 3.19 14.72 10.934 6.824 22.874 9.587 35.348 12.307 17.198 3.229 33.788 4.774 50.683-.831 5.396-1.633 10.161-4.435 15.298-6.6 6.975-3.838 14.502-9.346 15.63-17.78.769-5.49-3.346-9.668-8.57-9.847-4.566-.28-9.577.235-13.271 3.162-5.143 3.135-10.54 5.844-16.097 8.165-.352-6.76-.84-14.01-4.588-19.855-.658-.837-1.567-1.587-2.67-1.685z" fill="#b9a165"/>
  <path d="M48.24 45.53c-2.004 6.152-2.971 11.578-4.147 18.456.104.726-24.987-7.362-28.512-7.88 16.07 6.843 10.886 13.479 17.833 17.937 3.214 3.007 15.553 1.66 16.9.622-1.97-2.28 2.593-27.787-2.073-29.135z" fill-opacity=".082"/>
  <path d="M47.717 47.358c-2.004 6.152-2.557 9.712-3.732 16.59.103.725-22.914-6.947-26.44-7.466C33.617 63.326 26.67 67.68 33.617 72.14c3.215 3.006 14.205 2.592 15.553 1.555-1.97-2.281 3.214-24.988-1.452-26.336zM102.734 54.939c14.201-8.876 22.535-.963 22.746 7.401-1.986 4.784-2.257 5.055-3.972 6.5 1.535-10.38-12.817-12.908-18.774-13.901z" fill-opacity=".082"/>
  <path d="M104.449 53.64c14.201-8.876 20.73.21 20.94 8.575-1.985 4.784-1.173 3.79-2.888 5.235 1.083-11.553-10.921-14.08-18.052-13.81z" fill-opacity=".082"/>
  <path d="M80.097 40.424c-5.064.294-6.353 6.128-8.89 9.539-2.42 4.04-8.587 3.19-10.42-.907-1.938-3.209-4.142-8.15-8.762-7.155-4.432 1.475-5.319 6.845-6.402 10.81-1.4 3.402-.237 9.612-2.54 11.171-6.648-2.077-12.865-5.445-19.726-6.92-6.23-1.756-14.182-3.101-19.156 2.177-4.256 4.523-2.198 12.22 3.033 15.034 10.934 6.825 23.66 10.06 36.134 12.779 17.198 3.229 35.516 4.931 52.411-.674 5.397-1.633 9.69-5.377 14.827-7.543 6.975-3.837 14.502-9.503 15.63-17.937.769-5.49-4.29-9.982-9.513-10.161-4.566-.28-9.577.234-13.271 3.162-5.143 3.135-10.54 5.844-16.097 8.165-.352-6.76-.84-14.01-4.588-19.855-.658-.837-1.567-1.588-2.67-1.685zm-1.01 1.659c5.66.774 5.049 7.757 6.143 12.338-.008 3.32 2.962 14.49-.933 15.553-12.888 8.036-28.084 9.175-37.741 1.684-3.97-1.018-.684-14.577-.13-18.766 1.098-3.75 1.278-8.798 5.807-9.695 5.01-.016 6.376 5.424 9.383 8.27 3.082 3.49 9.046 2.945 10.938-1.09 1.88-2.893 2.964-7.011 6.533-8.294zm1.555 6.299c-2.287-.262-3.965 2.254-5.495 3.706-1.979 2.228-3.156 4.529-2.722 8.191.764-3.278 1.406-4.586 3.033-6.765 1.026-1.261 2.403-2.745 3.888-3.396 1.714-.774 2.8 1.83 3.266 3.24 1.4.71.347-2.876-.26-3.343-.404-.44-1.113-1.553-1.71-1.633zm33.593 2.98c5.012-.5 9.92 2.514 9.928 8.166-.203 8.018-5.926 13.706-12.287 17.522-3.732 1.97-8.27 3.01-11.794 5.34-14.373 7.037-29.482 7.046-44.998 5.236-15.288-2.201-31.008-5.936-44.713-13.272-4.482-2.049-8.38-6.38-6.688-11.56 1.977-6.287 9.573-6.795 15.19-5.496 7.787 1.444 14.672 3.78 21.954 6.792 6.152-.455-.036 7.117 5.522 8.553 9.432 7.196 22.82 6.152 33.152 1.53 3.979-1.857 8.947-4.27 7.906-9.41.332-3.803 6.793-3.625 9.617-6.013 3.664-1.516 7.039-4.787 10.653-6.299 2.132-.613 4.337-1.03 6.558-1.088z"/>
  <path d="M82.94 52.482c0-.207-2.177-4.354-3.421-3.94-1.244.415-7.673 8.813-7.05 10.783.622 1.97 10.782.83 10.471-6.843z" fill-opacity=".082"/>
  <path d="m82.041 51.855c-0.207-0.83-1.451-3.836-2.695-3.422-1.244 0.415-7.154 7.57-6.532 9.54s9.539 1.555 9.227-6.118z" fill-opacity=".082"/>
 </g>
</svg>
