<?xml version="1.0" encoding="UTF-8"?>
<svg width="128" height="128" xmlns="http://www.w3.org/2000/svg" xmlns:xlink="http://www.w3.org/1999/xlink">
 <path d="M92.94 21.476c-4.248-.87-4.195 4.228.508 3.927-15.219 2.006-30.926 10.712-38.45 24.369-3.452 6.102-8.163 18.01-6.512 19.896 5.495 18.499 70.315 4.784 70.655.651 1.001-13.077-1.44-31.29-12.534-38.913-3.18-2.748-11.576-5.7-13.557-6.962 3.534-1.042 1.75-2.81-.11-2.968z" fill="#0000fe" fill-rule="evenodd"/>
 <path d="M55.794 53.789c-1.933.307-1.189 2.627-1.221 4.162.062 3.026.158 4.927.415 7.909.374 1.88 1.673 3.56 2.869 1.755.61-1.05.404-3.477.67-4.37 1.189.403 3.046.576 4.09-.327.374 5.497 4.953 10.048 9.75 9.143.952-.29 2.386.625 1.949-.973-.022-2.122.598-3.592.258-5.69-1.637-1.039-2.36-1.665-4.242-1.537-2.023 1.017 1.261 5.825 1.4 5.898.252-3.12-2.618-.063-3.462-1.292-1.276-1.36-1.94-6.645-.715-8.11 2.024-.716 3.673 2.174 5.438 2.587 2.185.117 2.102-1.967.48-3.03-2.509-2.099-5.786-4.025-8.616-1.697-.821 1.651-1.052-.695-1.732-1.337-1.81-2.279-4.843-2.485-7.331-3.091zm1.456 3.668c.192 1.337 1.953-.64-.067-.547l.067.547zm1.409.083c1.833.58 2.38 3.609-.01 2.615-.912.46-.158-2.747.01-2.615z" fill="#fff000" font-family="Bitstream Vera Sans" font-size="12" font-weight="400"/>
 <path d="M47.704 69.938C15.12 73.285 6.07 85.649 8.26 90.845c3.676 6.285 11.816 7.281 18.401 7.866 18.878.837 37.561-3.175 55.666-8.15 12.204-3.72 36.779-15.535 37.068-18.525-8.395 1.08-66.03 10.17-71.691-2.098z" fill="#fff000" fill-rule="evenodd"/>
 <path d="M92.943 26.271c-29.906 4.68-43.792 25.685-44.402 42.419-.305 2.289-33.111 3.967-40.435 17.242-3.968 6.866 10.375 14.19 14.038 12.665C14.362 81.202 48.236 77.235 49.15 72.81c.458-2.213 2.098.915 6.37 2.098C51.86 52.592 80.127 31.383 92.944 26.27z" fill-opacity=".082" fill-rule="evenodd"/>
 <path d="M90.693 26.627c-29.907 4.68-41.808 25.685-42.419 42.419-.305 2.289-33.11 3.967-40.435 17.242-3.967 6.866 8.392 12.97 12.054 11.444-7.782-17.395 27.466-21.515 28.381-25.94.458-2.212.878 1.526 5.15 2.709-3.662-22.316 24.452-42.762 37.269-47.874z" fill-opacity=".082" fill-rule="evenodd"/>
 <path d="M92.208 20.895c-4.247-.869-5.202 4.43-.498 4.13-15.22 2.005-29.92 10.51-37.443 24.166-3.453 6.102-5.886 12.886-6.513 19.896-11.873 1.557-24.043 3.749-34.56 9.752-4.368 2.422-8.56 7.617-6.37 12.813 3.675 6.285 11.815 7.281 18.4 7.866 18.878.837 37.561-3.175 55.666-8.15 12.204-3.72 24.752-7.44 35.45-14.593 4.324-2.158 4.18-7.008 4.52-11.14 1.001-13.078-3.891-27.187-14.985-34.81-3.18-2.748-9.763-4.895-11.745-6.157 3.534-1.041-.062-3.615-1.922-3.773zm-.107.605c1.942.864.835 2.38-.676 2.812-1.51.432-2.776-1.733.676-2.812zm.783 5.695c11.514 3.424 21.01 9.487 24.132 21.347 1.95 6.811 2.318 16.27.925 23.222-4.512-1.169-8.922.685-13.458 1.206-10.302 1.975-19.923 3.128-30.462 2.844-6.698-.034-13.559-.305-19.932-2.563-5.493-1.53-3.467-5.084-5.054-5.339 2.153-16.975 13.873-31.877 30.127-37.731 4.565-1.76 8.876-2.352 13.722-2.986zM55.495 53.702c-1.933.307-.858 2.069-.89 3.604.062 3.025-.453 6.13-.195 9.111.373 1.882 3.004 3.408 4.2 1.602.61-1.05.125-2.666.39-3.56 1.19.404 2.658.584 3.702-.32.374 5.497 5.347 9.768 10.144 8.863.952-.291 2.786-.182 2.35-1.78-.023-2.122.055-4.237-.286-6.335-1.636-1.038-3.564-1.943-5.445-1.815-2.023 1.016-1.109 4.502.89 4.84.915.733-1.716-.05-2.029-.747-1.276-1.36-1.626-4.816-.4-6.282 2.023-.715 3.369 2.452 5.134 2.865 2.184.117 2.37-3.565.747-4.627-2.508-2.1-6.317-3.895-9.147-1.566-.821 1.65-1.064-.674-1.744-1.317-1.811-2.278-4.932-1.93-7.42-2.536zm.09 1.255c.716.195 3.188.259 3.905.454 1.901.538 2.691 1.786 3.07 4.208.48 1.577-.425 3.688-2.1 3.204-1.131-.036-2.309.209-3.39-.116-.01 1.647.392 3.027.276 4.636-3.034-.138-1.692-3.658-1.877-5.17-.031-2.445.293-4.783.115-7.216zm1.387 1.281l.071.57c.192 1.337.079 2.71.107 4.057 1.259 1.064 3.881 1.55 4.342-.676.38-2.784-2.5-4.043-4.52-3.95zm10.26 1.397c1.84.317 5.572 1.009 5.863 3.55.015 1.16-1.164-.755-1.744-.854-1.68-1.233-4.541-1.339-5.41 1.104-1.225 3.205.102 6.703 3.24 7.661 1.06.389 2.793 1.685 3.131-.01.347-1.163-.507-3.028-1.833-3.22-1.072.01-.926-2.415.365-1.62.95.4 2.827 1.4 2.572 2.99-.208 1.136 1.21 3.847.266 4.36-6.095 1.161-9.828-3.733-9.77-8.604-.171-2.35.968-5.819 3.32-5.357zm-8.382-.133c1.833.58 1.793 3.84-.072 2.366.014-.11-.096-2.498.072-2.366zM46.722 71.507c2.4 3.487 7.555 2.696 11.527 4.318 11.55 2.777 24.065.65 35.668.167a327.702 327.702 0 0024.914-3.31c-4.582 5.525-12.874 7.764-19.236 10.63-20.133 7.756-40.583 12.436-62.111 14.217-8.993.361-17.433 1.125-25.464-3.67-5.1-2.637-4.108-9.144.087-12.105 8.351-6.531 17.367-7.58 27.532-9.606 2.422-.417 4.64-.365 7.083-.64z" fill-rule="evenodd"/>
</svg>
