<?xml version="1.0" encoding="UTF-8"?>
<svg width="128" height="128" xmlns="http://www.w3.org/2000/svg" xmlns:xlink="http://www.w3.org/1999/xlink">
 <g fill-rule="evenodd">
  <path d="M69.914 14.152c-8.388.208-18.3 1.326-25.077 6.72-3.605 2.034-2.173 4.729-1.328 8.111 1.435 15.79-.669 32.12-3.526 47.665-10.204-.033-21.073.722-30.014 5.933-4.757 2.755-8.218 8.254-4.895 13.545 4.779 7.233 12.546 9.853 20.473 11.47 21.078 3.668 41.894 4.414 63.201 2.572 9.8-1.202 19.667-4.047 28.21-9.437 3.618-2.606 7.685-5.686 4.853-10.227-4.34-5.71-10.541-6.76-17.112-8.504-6.269-1.36-13.963-2.213-20.348-2.821.739-7.759 3.183-16.303 4.335-23.999 1.86-11.148 3.072-22.002 5.497-33.042-3.013-4.907-8.372-5.968-13.628-7.073-3.774-.67-6.81-.936-10.641-.913z" fill="#400081"/>
  <path d="M94.105 22.269s-9.974 5.93-16.174 5.93c1.079 10.513-7.563 56.579-9.559 67.833.54 2.427 16.605-.464 18.492-1.003-2.026-9.787 3.823-54.37 7.241-72.76z" fill="#fff" fill-opacity=".141"/>
  <path d="M74.468 29.227s19.049-6.35 18.83-8.32c-.22-1.97-10.51-7.664-22.553-8.102-3.722.657 14.67 10.291 3.723 16.422z" fill="#fff" fill-opacity=".125"/>
  <path d="M69.275 13.077c-8.388.208-17.492 1.326-24.269 6.72-3.604 2.034-3.25 5.537-2.406 8.92 1.435 15.79-.668 31.58-3.526 47.126-10.203-.034-20.803.721-29.744 5.932C4.573 84.53.573 90.838 3.895 96.13c4.78 7.233 13.625 10.662 21.552 12.279 21.078 3.668 42.972 4.414 64.28 2.572 9.799-1.203 20.206-3.778 28.748-9.168 3.618-2.606 7.686-7.572 4.854-12.113-4.34-5.71-11.89-7.3-18.46-9.044-6.27-1.36-12.616-2.213-19-2.82.738-7.76 1.835-15.495 2.986-23.19 1.86-11.149 3.88-22.272 6.306-33.312-3.012-4.907-9.18-6.238-14.437-7.343-3.773-.67-7.62-.936-11.45-.913zm-.332 2.157c7.6.118 15.723-.234 22.277 3.983 3.852 1.915 1.158 6.22.995 9.375-3.116 16.292-6.692 32.643-8.338 49.16-.089-.33.123 13.651-2.282 16.012-5.61 3.705-10.993 2.938-17.506 3.277-8.532.048-16.601.265-24.351-3.609-3.101-2.023.187-7.154.124-10.454.414-2.087 6.444-39.11 4.895-55.05-1.857-4.42.618-6.973 4.522-8.753 6.141-3.145 12.85-3.826 19.664-3.94zm22.775 7.51c-7.039 4.021-16.131 6.01-24.6 6.263-8.47.252-16.976-.763-22.195-4.853l-.331.248c5.582 4.376 14.05 7.187 22.733 6.928 8.682-.258 17.624-3.605 24.89-7.757l-.497-.83zM38.493 78.165c-.433 2.322-.498 3.665-.954 5.974-.473 3.05-1.626 6.29-1.742 9.21 6.19 4.548 14.176 5.342 21.613 5.89 8.249.268 16.884.143 24.559-3.236 3.27-1.214 4.514-3.93 3.111-7.01-.017-3.34.252-5.807.54-9.127 6.682.842 14.469 1.942 20.16 3.236 5.764 1.651 11.723 2.966 15.599 7.923 2.437 4.149-1.842 6.924-5.103 9.127-9.246 5.355-19.867 7.797-30.283 8.856-20.494 1.407-40.09.285-60.318-3.422-7.371-1.624-15.809-3.722-20.037-10.703-2.821-5.267 2.538-10.313 7.01-12.611 7.164-3.587 20.753-4.61 25.845-4.107z"/>
  <path d="M42.129 72.695c-2.908-.87-4.833.758-4.486 3.26-.258 3.94-1.424 7.476-2.542 11.145-.35 4.188 2.483 5.985 6.198 7.195 4.868 1.668 9.481 2.564 14.562 3.225 7.508.75 14.117.504 21.51-1.098 2.335-1.05 3.663-3.055 6.358-2.404 2.107-.034 3.81-.522 3.391-2.314-.383-2.059-2.106-4.154-2.006-6.324-.232-3.268-.007-5.447.376-8.684-1.697-2.213-3.26-.41-5.402.111-6.44 1.651-12.843 2.526-19.203.346-6.306-1.62-12.222-3.922-18.756-4.458z" fill="#006dae"/>
  <path d="m80.499 76.126s4.582-0.54 4.043 1.348c-0.54 1.887-1.142 5.122-0.064 8.895 1.079 3.774 1.801 7.915 0.723 8.185s-17.024 4.788-20.529 4.249c0.27-5.391 6.93-13.512 2.079-18.094 1.348-2.966 10.782-4.313 13.748-4.583z" fill="#fff" fill-opacity=".125"/>
  <path d="M41.646 70.948c-2.907-.87-4.832 2.644-4.485 5.146-.259 3.94-2.773 7.207-3.89 10.876-.35 4.188 3.291 7.603 7.006 8.812 4.868 1.669 10.02 2.295 15.101 2.956 7.508.75 15.196.773 22.59-.828 2.333-1.05 4.74-2.786 7.435-2.135 2.107-.035 3-2.409 2.583-4.2-.383-2.06-1.568-3.885-1.468-6.055-.232-3.269.263-6.525.646-9.763-1.697-2.213-4.607-.68-6.75-.158-6.44 1.65-13.382 1.986-19.742-.194-6.306-1.62-12.491-3.922-19.026-4.457zm29.664 8.067c4.333-.346 8.743-1.276 13.045-1.824-.516 5.357-.976 9.152 1.219 14.253.145 3.19-3.66.924-5.513 1.992-2.532 1.35-5.277 2.535-8.153 2.729-10.396.87-18.83.36-28.907-2.395-3.253-.971-6.899-2.226-7.023-5.98.107-2.842 1.478-4.459 2.224-7.119 1.247-2.438.491-5.362 2.816-7.167.421-.235 19.448 6.268 30.292 5.511z"/>
  <path d="M45.421 79.826c-2.37.242-4.27 1.816-6.264 3.194 1.264 1.462 3.017.908 4.447.664 2.624-.67 6.076.274 7.862 1.244 4.516 3.262 11.994 9.431 17.578 9.246 1.777-.266 5.17-2.407 6.855-2.952 1.7-.943-4.898.831-6.895.56-4.135-.15-7.257-1.764-10.833-3.74-1.956-1.234-4.205-3.102-5.378-5.057-1.66-1.927-4.966-3.453-7.372-3.16z"/>
  <path d="M38.24 76.841s-23.475 2.134-32.012 9.604c.356 5.69 18.496 19.207 42.328 11.382-7.47-2.846-10.316-2.49-11.738-6.047-1.423-3.557-2.135-6.402 1.422-14.939z" fill-opacity=".082"/>
  <path d="M39.485 75.83s-20.63.356-29.167 7.825c.356 5.691 12.094 14.228 36.993 12.45-7.47-2.846-7.826-1.779-9.248-5.336-1.423-3.557-2.135-6.402 1.422-14.939z" fill-opacity=".082"/>
 </g>
</svg>
