<?xml version="1.0" encoding="UTF-8"?>
<svg width="128" height="128" xmlns="http://www.w3.org/2000/svg" xmlns:xlink="http://www.w3.org/1999/xlink">
 <g fill-rule="evenodd">
  <path d="M64.195 44.403c-4.805-1.974-8.233-3.652-13.409-4.208-6.673-.714-12.862.044-18.863 3.031-7.47 5.275-13.024 10.802-17.656 18.54-4.19 7.521-6.59 14.437-7.295 23.136 12.875 8.597 25.892 13.89 41.378 15.123 7.603.693 10.319.164 17.92-.468 2.806-16.233 6.504-24.843 2.335-41.079-.674-2.597-4.325-13.324-4.41-14.075z" fill="#fb110a"/>
  <path d="M46.816 39.404c-1.52 0-22.029 4.178-25.067 10.635C18.71 56.495 4.278 82.322 6.177 84.6c1.899 2.279 17.47 12.533 20.889 12.154 3.418-.38-4.558-43.678 19.75-57.35z" fill-opacity=".082"/>
  <path d="M41.774 41.488c-1.519 0-16.711 0-19.75 6.457C18.986 54.4 4.554 80.228 6.452 82.507c1.9 2.279 11.774 11.014 15.193 10.634 3.418-.38-4.178-37.98 20.13-51.653z" fill-opacity=".082"/>
  <path d="M90.908 32.66c-8.579.35-19.074 5.249-26.755 9.435-4.805-1.974-9.752-3.652-14.928-4.208-6.673-.714-13.154 2.294-19.155 5.281C22.6 48.443 17.893 53.91 13.262 61.65c-4.191 7.52-7.175 15.107-7.88 23.806 12.875 8.598 25.454 14.27 40.94 15.504 7.602.693 15.723 1.479 23.324.847 2.806-16.234 3.962-33.666-.207-49.903-.674-2.597-2.568-4.627-3.593-7.107 6.134-2.222 14.687-2.86 20.632-.753 6.273 2.509 12.529 6.476 15.593 12.713 2.927 6.955-5.419 27.547-1.86 26.002 1.37-.417 1.595-1.225 2.967-1.639 2.094-16.519 5.13-25.885-6.689-34.95 13.248 4.99 9.927 30.591 9.48 34.817 1.558-.465.515-1.915 4.252-2.569 1-7.954-1.118-26.86-7.575-32.557-3.038-4.938-12.135-7.587-17.452-8.727 6.836 0 17.837 4.541 22.015 12.137 4.178 7.596 4.886 27.838 5.094 29.059 1.399-.413 2.982-.715 4.828-1.108-.281-1.347-4.18-15.164-4.606-17.718 3.787 9.81 4.53 10.281 6.821 17.187 1.78-.373 3.915-.82 4.873-1.108-1.422-3.35-4.933-5.305-6.113-8.815-4.516-7.811-6.527-16.719-10.1-24.938-3.265-6.138-10.218-9.696-17.098-9.17zm-42.859 7.255c6.101.655 10.378 3.575 15.952 6.054 6.24 14.196 6.789 26.328 4.695 41.353-.492 3.554-1.669 8.653-2.294 12.186-16.7 1.416-32.002-1.637-47.387-8.687-4.86-2.165-5.808-3.538-10.276-6.423 1.345-10.128 4.351-16.923 9.789-25.426 3.958-5.78 6.532-10.416 12.467-14.307 5.721-2.52 10.83-5.463 17.054-4.75zm2.284 21.626c2.646 4.66 5.158 2.771 5.935 5.537.475 2.102-.428 4.164-1.107 6.113-.563 1.653-1.11 3.313-1.683 4.961-.003 1.147 6.08-7.183 6.245-10.542.043-2.653-5.009-6.37-9.39-6.069z"/>
 </g>
</svg>
