<svg xmlns="http://www.w3.org/2000/svg" xmlns:xlink="http://www.w3.org/1999/xlink" width="128" height="128"><defs><linearGradient id="b"><stop offset="0" stop-color="#fff"/><stop offset="1" stop-color="#fff" stop-opacity="0"/></linearGradient><linearGradient id="a"><stop offset="0"/><stop offset="1" stop-color="#66696c"/></linearGradient><linearGradient xlink:href="#a" id="c" gradientUnits="userSpaceOnUse" gradientTransform="scale(1.75168 .57088)" x1="57.866" y1="10.388" x2="22.62" y2="-27.608"/><linearGradient xlink:href="#b" id="d" gradientUnits="userSpaceOnUse" gradientTransform="scale(1.34083 .7458)" x1="26.051" y1="-13.894" x2="49.579" y2="-2.087"/><linearGradient xlink:href="#a" id="e" gradientUnits="userSpaceOnUse" gradientTransform="scale(1.92477 .51954)" x1="39.644" y1="-53.602" x2="27.02" y2="-63.293"/><linearGradient xlink:href="#b" id="f" gradientUnits="userSpaceOnUse" gradientTransform="scale(1.47392 .67846)" x1="31.732" y1="-50.239" x2="41.241" y2="-46.426"/><linearGradient xlink:href="#a" id="g" gradientUnits="userSpaceOnUse" gradientTransform="scale(1.1738 .85193)" x1="75.056" y1="-6.435" x2="38.302" y2="-33.208"/><linearGradient xlink:href="#b" id="h" gradientUnits="userSpaceOnUse" gradientTransform="scale(.81486 1.2272)" x1="55.217" y1="-12.317" x2="79.279" y2="-14.271"/></defs><g fill-rule="evenodd"><path transform="matrix(1.52951 0 0 1.52951 -43.285 84.492)" d="M85.332.823c12.526-2.76 35.073-12.503 20.583-18.61-8.099-3.505-30.04 1.077-45.267 5.46C51.915-9.811 23.91-5.868 31.743 3.626c5.631 7.106 36.743 1.93 53.589-2.802z" fill="url(#c)"/><path transform="matrix(1.52951 0 0 1.52951 -43.285 84.492)" d="M58.68 5.623c-15.543-3.875 17.498-21.84 2.27-17.455-8.732 2.514-35.141 5.5-29.064 14.994 6.27 5.033 16.647 2.888 26.794 2.461z" fill="url(#d)"/><path transform="matrix(1.52951 0 0 1.52951 -43.285 84.492)" d="M43.555-29.102c1.03-4.147 38.365-11.459 40.598-6.956-5.767 9.842-34.405 11.904-40.598 6.956z" fill="url(#e)"/><path transform="matrix(1.52951 0 0 1.52951 -43.285 84.492)" d="M44.983-29.817c1.965-2.436 14.098-5.038 15.456-5.627-5.905 2.746-3.325 4.996-2.129 6.244-2.671.644-10.23 1.857-13.327-.617z" fill="url(#f)"/><path transform="matrix(1.52951 0 0 1.52951 -43.285 84.492)" d="M43.73-29.35c7.213 3.828 33.313-3.693 39.692-6.544-1.243 4.052 3.142 18.767 8.21 21.957C87.804-9.631 55.401 2.368 47.251-1.779c3.275-9.137-5.464-27.571-3.52-27.571z" fill="url(#g)"/><path transform="matrix(1.52951 0 0 1.52951 -43.285 84.492)" d="M44.133-28.544c5.036.806 7.687-.067 14.067-.742-1.243 4.052 1.207 22.151 4.462 26.429-5.399 1.163-8.672 2.042-14.405 1.038 2.066-9.5-3.512-23.414-4.124-26.725z" fill="url(#h)"/><path d="M73.818 25.845c-5.936.181-13.498 1.163-20.983 2.533-7.484 1.37-14.91 3.118-20.6 4.971-2.845.926-5.227 1.879-7.027 2.82-.9.47-1.658.935-2.246 1.434-.588.499-1.067 1.06-1.243 1.769l-.143.573s1.003 2.804 1.386 4.254c.767 2.9 1.989 6.81 3.155 11.185 1.187 4.454 2.245 9.354 2.724 13.956-4.04 1.025-8.158 1.99-11.901 3.298-5.5 1.923-10.244 4.13-13.001 7.027-1.38 1.448-2.282 3.125-2.342 4.97-.06 1.846.697 3.8 2.294 5.736 2.454 3.098 7.297 4.573 13.479 5.258 6.181.685 13.754.48 21.89-.287 16.258-1.53 34.618-5.352 47.56-8.986v.048c9.692-2.135 23.117-6.934 31.545-12.475 4.214-2.77 7.296-5.676 7.791-8.986.248-1.655-.292-3.352-1.577-4.827-1.285-1.476-3.265-2.813-6.118-4.015-3.31-1.433-7.825-2.022-13.144-2.008-3.971.01-8.705.61-13.383 1.195a54.34 54.34 0 01-4.063-8.986c-1.188-3.457-2.062-7-2.533-9.99-.452-2.861-.43-5.16-.096-6.452.096-.151.244-.276.334-.43l.24-.43-.192-.478c-.01-.021-.037-.028-.048-.048l-.573-.526c-.825-.884-2.056-1.428-3.68-1.72-2.004-.362-4.536-.474-7.505-.383zm.048 1.912c2.89-.089 5.343.014 7.122.334 1.05.19 1.347.494 1.72.765-5.203 2.178-11.794 5.269-23.68 7.81-6.258 1.338-17.36 2.913-22.73 3.231-4.939.293-8.898-.178-11.424-1.242.362-.25.67-.49 1.195-.765 1.638-.857 4.003-1.818 6.787-2.725 5.567-1.812 12.898-3.565 20.314-4.923 7.415-1.357 14.916-2.308 20.696-2.485zm31.45 28.344c5.184-.003 9.498.52 12.38 1.768 2.688 1.133 4.453 2.345 5.45 3.49.996 1.144 1.266 2.176 1.099 3.297-.336 2.244-2.9 5.045-6.931 7.696-8.064 5.301-21.458 10.103-30.925 12.188h-.048c-12.823 3.603-31.11 7.373-47.224 8.89-8.056.76-15.588.949-21.556.287-5.969-.661-10.336-2.251-12.188-4.588-1.398-1.695-1.906-3.12-1.865-4.398.042-1.278.656-2.509 1.817-3.728 2.322-2.439 6.856-4.667 12.236-6.548 3.547-1.24 7.501-2.17 11.376-3.155.232 3.669.113 7.129-.86 9.846l-.287.813.764.382c3.511 1.787 9.013 1.708 15.582.765 6.57-.943 14.181-2.842 21.557-5.162 7.375-2.32 14.511-5.033 20.218-7.6 2.853-1.283 5.38-2.537 7.36-3.68 1.981-1.143 3.422-2.164 4.303-3.155l.764-.812-.956-.622c-1.437-.905-2.928-2.732-4.35-4.923 4.279-.477 8.674-1.05 12.285-1.051zM30.802 70.774c.227 3.56.153 7.018-.717 9.99 2.844 1.17 7.77 1.345 13.813.478 6.413-.92 13.917-2.816 21.222-5.114 7.305-2.299 14.405-5.024 20.027-7.552 2.811-1.265 5.27-2.489 7.17-3.585 1.513-.873 2.349-1.524 3.059-2.151-1.645-1.315-3.114-3.309-5.019-6.453-1.95-3.536-3.257-6.423-4.302-9.463-1.22-3.555-2.135-7.15-2.628-10.277-.262-1.656-.034-4.941-.007-6.24C79.21 33.753 41.631 43.136 24.3 41.38c.126.655.258 1.282.526 2.294.747 2.824 1.977 6.811 3.155 11.233 1.177 4.417 2.287 9.24 2.772 13.909"/></g><metadata/></svg>