<?xml version="1.0" encoding="UTF-8"?>
<svg width="360" height="200" version="1.0" xmlns="http://www.w3.org/2000/svg">
 <g stroke="#000">
  <path d="M82.375 23.393c11.262 1.512 20.644 1.144 29.25 0l5.25 7.25c22.644 8.582 35.766 7.646 60 21-3.119 10.486-3.706 21.984-13 30-7.75-6.088-15.5-4.8-23.25-6.75v88.25c-29.128 5.302-58.037 6.666-86.5 0v-88.25c-6.74.752-12.342.2-23.5 6-8.376-6.985-10.99-18.452-13.5-30 25.954-11.67 39.005-13.261 60.25-19.75l5-7.75z" fill="#fff" fill-rule="evenodd" stroke-width="2"/>
  <path d="m81.875 24.393c2.74 8.063 6.683 14.68 12.75 18.75l-7 7.75c-7.733-5.937-8.171-12.684-10.25-19.25m-22.5 6.5c2.061 11.043 6.243 24.827-0.25 36.5m1.75-30 22-7.5m-57.25 12.642c1.429 11.491 6.974 20.65 13 28.858m20 81c28.75 4.098 57.5 5.837 86.25 0m-28.5-135.75c-2.74 8.063-6.683 14.68-12.75 18.75l7 7.75c7.733-5.937 8.172-12.684 10.25-19.25m23.5 6.75c-2.061 11.043-6.243 24.827 0.25 36.5m-1.75-29.75-23.5-8m58 13.5c-1.429 11.491-6.974 20.042-13 28.25m-74.75-46.25c7.404-2.315 14.936-1.989 23 0" fill="none"/>
  <path d="m94.875 42.893h3.75v23.25h-3.75v-23.25z" fill="none" stroke-linecap="round"/>
  <path d="M248.375 23.393c11.262 1.512 20.644 1.144 29.25 0l5.25 7.25c22.644 8.582 35.766 7.646 60 21-3.119 10.486-3.706 21.984-13 30-7.75-6.088-15.5-4.8-23.25-6.75v88.25c-29.128 5.302-58.037 6.666-86.5 0v-88.25c-6.74.752-12.342.2-23.5 6-8.376-6.985-10.99-18.452-13.5-30 25.954-11.67 39.005-13.261 60.25-19.75l5-7.75z" fill="#fff" fill-rule="evenodd" stroke-width="2"/>
  <path d="m220.88 38.143c2.061 11.043 6.243 24.827-0.25 36.5m-33.703-25.061c1.43 11.492 7.177 20.853 13.203 29.061m20 81c28.75 4.098 57.5 5.837 86.25 0m-0.5-121.75c-2.061 11.043-6.243 24.827 0.25 36.5m32.75-24.25c-1.429 11.491-6.974 20.042-13 28.25m-81.845-46.65c4.276 5.617 31.667 6.77 38.608-0.81" fill="none"/>
 </g>
 <path d="M149.134 18.688v3.835h1.736c.642 0 1.14-.166 1.49-.499.351-.332.526-.806.526-1.421 0-.611-.175-1.083-.526-1.415-.35-.333-.848-.5-1.49-.5h-1.736m-1.381-1.134h3.117c1.144 0 2.007.26 2.59.779.589.515.883 1.272.883 2.27 0 1.007-.294 1.768-.882 2.283-.584.515-1.447.772-2.591.772h-1.736v4.102h-1.381V17.554m10.869 3.431c-.675 0-1.208.265-1.6.793-.392.524-.588 1.244-.588 2.16 0 .917.194 1.639.581 2.167.392.525.928.787 1.607.787.67 0 1.2-.265 1.593-.793.392-.529.588-1.25.588-2.16 0-.907-.196-1.625-.588-2.154-.392-.533-.923-.8-1.593-.8m0-1.066c1.094 0 1.953.355 2.577 1.066.624.711.937 1.696.937 2.953 0 1.254-.313 2.238-.937 2.954-.624.71-1.483 1.066-2.577 1.066-1.098 0-1.96-.355-2.584-1.066-.62-.716-.93-1.7-.93-2.954 0-1.257.31-2.242.93-2.953.624-.71 1.486-1.066 2.584-1.066m5.592-2.796h1.257V27.76h-1.257V17.123m6.85 3.862c-.675 0-1.208.265-1.6.793-.392.524-.588 1.244-.588 2.16 0 .917.193 1.639.58 2.167.393.525.928.787 1.607.787.67 0 1.201-.265 1.593-.793.392-.529.588-1.25.588-2.16 0-.907-.196-1.625-.588-2.154-.392-.533-.923-.8-1.593-.8m0-1.066c1.094 0 1.953.355 2.577 1.066.625.711.937 1.696.937 2.953 0 1.254-.312 2.238-.937 2.954-.624.71-1.483 1.066-2.577 1.066-1.098 0-1.96-.355-2.584-1.066-.62-.716-.93-1.7-.93-2.954 0-1.257.31-2.242.93-2.953.625-.71 1.486-1.066 2.584-1.066m16.222-2.03v1.346a8.518 8.518 0 00-1.483-.56 5.257 5.257 0 00-1.347-.185c-.752 0-1.333.146-1.743.438-.406.291-.609.706-.609 1.244 0 .451.135.793.404 1.025.273.228.788.413 1.545.554l.834.17c1.03.197 1.788.543 2.276 1.04.492.492.738 1.153.738 1.982 0 .99-.333 1.739-.998 2.25-.66.51-1.631.765-2.912.765-.483 0-.998-.055-1.545-.164a11.514 11.514 0 01-1.688-.485v-1.422a8.07 8.07 0 001.647.71c.538.16 1.066.24 1.586.24.788 0 1.397-.155 1.825-.465.429-.31.643-.752.643-1.326 0-.501-.155-.893-.465-1.176-.305-.282-.809-.494-1.51-.636l-.842-.164c-1.03-.205-1.775-.526-2.235-.964-.46-.437-.69-1.045-.69-1.825 0-.902.316-1.613.95-2.133.638-.52 1.515-.779 2.632-.779.478 0 .966.043 1.463.13a10.56 10.56 0 011.524.39m9.105 5.25v4.62h-1.257v-4.58c0-.724-.142-1.266-.424-1.626-.283-.36-.707-.54-1.272-.54-.679 0-1.214.216-1.606.65-.392.432-.588 1.022-.588 1.77v4.327h-1.265V17.123h1.265v4.17c.3-.46.654-.804 1.06-1.032.41-.228.881-.342 1.415-.342.88 0 1.544.273 1.996.82.45.543.676 1.342.676 2.4m2.523-3.035h1.258v7.656h-1.258v-7.656m0-2.98h1.258v1.592h-1.258v-1.593m8.32 4.156a1.588 1.588 0 00-.466-.177 2.257 2.257 0 00-.547-.062c-.71 0-1.257.232-1.64.697-.378.46-.568 1.124-.568 1.99v4.033h-1.264v-7.656h1.264v1.189c.265-.465.609-.809 1.033-1.032.424-.228.938-.342 1.545-.342.086 0 .182.007.287.02.105.01.22.026.348.048l.007 1.292m2.577-3.35v2.175h2.591v.977h-2.59v4.156c0 .625.084 1.026.252 1.203.173.178.522.267 1.046.267h1.292v1.053h-1.292c-.97 0-1.64-.18-2.01-.54-.369-.365-.553-1.026-.553-1.983v-4.156h-.923v-.977h.923V17.93h1.264" font-family="Bitstream Vera Sans" font-size="14" font-weight="400"/>
 <path d="M84.792 175.418v3.07h4.606v.926h-4.606v3.346h-1.12v-8.256h5.866v.914h-4.746m6.064 7.342v-4.864c0-.132-.001-.267-.005-.404 0-.14-.002-.275-.006-.404a85.642 85.642 0 00-.024-.668h.996l.012.31c.008.114.014.23.018.352.008.121.011.238.011.352.004.109.006.203.006.28h.024c.074-.241.152-.45.234-.626.086-.18.186-.326.299-.44.113-.117.248-.203.404-.257a1.624 1.624 0 01.815-.065c.078.012.138.024.181.035v.967a1.344 1.344 0 00-.246-.04 2.57 2.57 0 00-.316-.018c-.242 0-.45.054-.621.164-.168.109-.307.261-.416.457a2.317 2.317 0 00-.235.691c-.05.266-.076.557-.076.873v3.305h-1.055m9.346-3.176c0 1.11-.244 1.936-.732 2.478-.489.543-1.198.815-2.127.815-.442 0-.836-.066-1.184-.2a2.223 2.223 0 01-.885-.609 2.829 2.829 0 01-.55-1.025c-.125-.414-.188-.9-.188-1.459 0-2.188.947-3.281 2.842-3.281.492 0 .916.068 1.271.205.36.137.653.342.88.615.23.273.4.615.51 1.025.108.41.163.89.163 1.436m-1.107 0c0-.492-.04-.898-.117-1.219-.075-.32-.186-.576-.334-.767a1.13 1.13 0 00-.534-.399 2.048 2.048 0 00-.714-.117c-.27 0-.514.041-.733.123a1.221 1.221 0 00-.55.41c-.153.192-.27.447-.352.768-.078.32-.117.72-.117 1.201 0 .492.043.9.129 1.225.085.32.203.576.351.767.152.192.33.326.533.404.207.079.432.118.674.118.27 0 .514-.037.733-.112.218-.078.404-.213.556-.404.152-.191.27-.45.352-.773.082-.325.123-.733.123-1.225m6.45 3.176v-4.02c0-.308-.023-.566-.07-.773a1.148 1.148 0 00-.216-.498.792.792 0 00-.404-.27 1.971 1.971 0 00-.616-.082c-.25 0-.476.045-.68.135a1.41 1.41 0 00-.515.38c-.14.165-.25.37-.328.616a2.73 2.73 0 00-.117.838v3.674h-1.055v-4.987c0-.132-.002-.271-.006-.416a13.773 13.773 0 00-.017-.755 2.386 2.386 0 00-.012-.182h.996c.004.02.008.072.012.158l.011.299a8.96 8.96 0 01.024.627h.017c.102-.184.213-.35.334-.498a1.854 1.854 0 01.973-.615c.207-.059.447-.088.72-.088.352 0 .655.043.909.129.254.086.463.218.627.398.164.18.283.412.357.697a3.8 3.8 0 01.117 1.008v4.225h-1.06m5.092-.047c-.16.043-.324.076-.492.1a3.534 3.534 0 01-.575.04c-.843 0-1.265-.478-1.265-1.435v-4.23h-.733v-.768h.774l.31-1.418h.703v1.418h1.172v.768h-1.172v4.001c0 .305.05.52.147.645.101.121.275.182.521.182.102 0 .2-.008.293-.024.098-.015.203-.035.317-.058v.779M257.012 180.434c0 .418-.082.775-.246 1.072a2.092 2.092 0 01-.662.72c-.277.184-.6.319-.967.405a5.078 5.078 0 01-1.16.129h-3.351v-8.256h3c.457 0 .865.039 1.224.117.36.074.664.193.914.358.25.164.44.373.569.626.132.25.199.551.199.903 0 .23-.033.447-.1.65-.062.203-.16.389-.293.557a1.817 1.817 0 01-.492.428 2.3 2.3 0 01-.685.263c.332.04.625.115.878.229.258.113.473.258.645.433.172.176.303.381.393.616.09.23.134.48.134.75m-1.605-3.791c0-.446-.152-.764-.457-.956-.305-.19-.746-.287-1.324-.287h-1.881v2.614h1.88c.329 0 .606-.032.833-.094.226-.066.41-.158.55-.275.141-.122.243-.266.305-.434a1.62 1.62 0 00.094-.568m.475 3.703c0-.262-.05-.485-.147-.668a1.165 1.165 0 00-.41-.451 1.92 1.92 0 00-.65-.258 3.963 3.963 0 00-.844-.082h-2.086v2.976h2.174c.285 0 .546-.023.785-.07.242-.047.449-.129.62-.246.177-.117.313-.274.411-.469.098-.195.146-.44.147-.732m4.177 2.53c-.636 0-1.115-.167-1.435-.503-.32-.336-.48-.797-.48-1.383 0-.418.077-.76.234-1.025.16-.27.367-.48.62-.633.259-.152.551-.258.88-.316a6.549 6.549 0 011.002-.1l1.423-.023v-.346c0-.262-.027-.484-.082-.668a1.033 1.033 0 00-.252-.445.988.988 0 00-.427-.246 1.939 1.939 0 00-.598-.083c-.203 0-.387.016-.55.047a1.12 1.12 0 00-.429.159.831.831 0 00-.292.31 1.284 1.284 0 00-.147.492l-1.102-.1c.04-.25.114-.478.223-.685.11-.21.264-.392.463-.545a2.22 2.22 0 01.756-.351 4.1 4.1 0 011.101-.13c.797 0 1.397.184 1.8.552.402.363.603.89.603 1.582v2.73c0 .313.04.549.123.709.082.156.238.234.469.234.058 0 .117-.004.175-.011a2.2 2.2 0 00.17-.03v.657a3.55 3.55 0 01-.814.093c-.2 0-.371-.025-.516-.076a.848.848 0 01-.345-.24 1.132 1.132 0 01-.206-.398 2.481 2.481 0 01-.087-.557h-.036a3.585 3.585 0 01-.375.55c-.132.165-.289.305-.468.423a2.25 2.25 0 01-.616.263 2.964 2.964 0 01-.785.094m.24-.791c.336 0 .63-.06.88-.182.253-.125.462-.283.626-.474.168-.192.293-.4.375-.627a1.91 1.91 0 00.123-.65v-.522l-1.154.023a5.543 5.543 0 00-.738.059 1.72 1.72 0 00-.61.193 1.118 1.118 0 00-.421.41c-.102.176-.153.407-.153.692 0 .344.092.61.276.797.187.187.453.28.796.28m5.625-2.524c0 .363.026.697.077 1.001.054.305.144.569.27.792.124.218.288.388.491.51.207.12.461.18.762.18.375 0 .688-.1.938-.304.253-.203.41-.515.468-.937l1.067.07a2.485 2.485 0 01-.229.756 2.069 2.069 0 01-.48.639c-.2.183-.444.332-.733.445-.289.11-.623.164-1.002.164-.496 0-.918-.084-1.265-.252a2.276 2.276 0 01-.85-.691 2.96 2.96 0 01-.469-1.043 5.531 5.531 0 01-.146-1.307c0-.426.035-.8.105-1.125a3.43 3.43 0 01.293-.855c.13-.247.28-.452.452-.616.171-.168.357-.3.556-.398.203-.102.416-.174.639-.217.222-.047.447-.07.674-.07.355 0 .672.049.949.146a2.2 2.2 0 011.207 1.002c.125.23.213.479.264.744l-1.084.082c-.055-.351-.194-.63-.416-.838-.223-.207-.54-.31-.95-.31-.3 0-.552.05-.755.152-.2.098-.362.248-.487.451a2.12 2.12 0 00-.27.756c-.05.305-.076.662-.076 1.073m9.194 3.199l-2.145-2.895-.773.639v2.256h-1.055v-8.696h1.055v5.432l2.783-3.076h1.236l-2.572 2.725 2.707 3.615h-1.236" font-family="Liberation Sans" font-size="12" font-weight="400"/>
</svg>
