<?xml version="1.0" encoding="UTF-8"?>
<svg width="128" height="128" xmlns="http://www.w3.org/2000/svg" xmlns:xlink="http://www.w3.org/1999/xlink">
 <defs>
  <linearGradient id="a">
   <stop stop-color="#fff" offset="0"/>
   <stop stop-color="#fff" stop-opacity="0" offset="1"/>
  </linearGradient>
  <linearGradient id="c" x1="367.35" x2="416.92" y1="360.53" y2="260.59" gradientTransform="matrix(.17082 0 0 .17082 1.255 -21.958)" gradientUnits="userSpaceOnUse" xlink:href="#a"/>
  <linearGradient id="d" x1="407.5" x2="400.9" y1="245.98" y2="164.13" gradientTransform="matrix(.17082 0 0 .17082 1.255 -21.958)" gradientUnits="userSpaceOnUse" xlink:href="#a"/>
  <linearGradient id="e" x1="45.536" x2="32.411" y1="48.356" y2="27.909" gradientTransform="translate(-7.667 3.487)" gradientUnits="userSpaceOnUse" xlink:href="#a"/>
 </defs>
 <g fill-rule="evenodd">
  <path d="M68.565 39.124c-4.707 2.15-5.494 5.162-10.822.668-10.487.872-15.25 12.535-18.474 20.63 1.115 7.876-10.148 7.2-15.075 10.38-7.41 3.401-15.245 3.423-20.088 10.638 9.974 8.025 22.776 5.599 34.776 6.392 27.126-.43 54.206-1.53 80.33-9.266 6.45-1.25 7.51-7.413 1.053-9.366-10.152-3.86-21.083-4.51-31.932-4.328-1.398-6.193-5.035-13.438-6.906-19.694-2.222-5.521-6.672-7.57-12.862-6.054z"/>
  <path d="M40.764 66.311S6.297 77.354 6.297 81.202c7.195 10.374 114.778 2.342 116.786-7.362-.67-6.023-28.778-8.867-37.646-7.864-1.171-7.361-3.848-25.097-11.21-26.1-7.362-1.004-9.233 3.62-11.043 4.015-1.61.352-4.424-3.832-9.202-2.008-7.195 2.677-13.553 18.07-13.218 24.428z" fill="#9300bb"/>
  <path d="M43.084 55.688s38.676 3.434 40.462 2.84c1.785-.596 3.932 5.373 1.948 7.357s-40.995 2.202-44.467.697c-.68-2.36-.272-6.285 2.057-10.894z"/>
  <path transform="matrix(1.1615 0 0 1.1615 -10.888 27.233)" d="M75.176 27.271s-10.573-1.922-11.031-.458c-.458 1.465-2.243 6.683-.595 7.278 1.648.595 10.115.274 11.489-.137 1.373-.412.457-6.134.137-6.683z" fill="url(#c)"/>
  <path transform="matrix(1.1615 0 0 1.1615 -10.888 27.233)" d="M64.98 17.411c-.54-6.819 10.498-9.517 12.705-1.03-2.894-3.532-10.498-1.57-12.705 1.03z" fill="url(#d)"/>
  <path transform="matrix(1.1615 0 0 1.1615 -10.888 27.233)" d="M15.816 46.307c4.792-4.583 18.512-7.738 27.947-11.696 1.806.85 1.857.152 3.732.062 1.875-.089-24.644 11.234-22.5 13.644 0 .715-5.072 1.026-9.18-2.01z" fill="url(#e)"/>
 </g>
</svg>
