<svg xmlns="http://www.w3.org/2000/svg" width="128" height="128" version="1.0"><metadata/><path d="M5.647 91.608s14.118 1.882 32.628-2.824c11.067-2.814 30.117-1.882 37.02-1.882 6.901 0 45.176-11.608 47.058-16.314 1.882-4.706 4.078-10.353-4.706-14.431-8.784-4.079-25.725.314-30.745-1.882-5.02-2.197-5.02-4.079-7.53-10.04-2.51-5.96-7.843-15.686-10.039-16.627-2.196-.941-6.588-.628-7.843 1.255-1.255 1.882-3.765 7.215-6.274 8.47-2.51 1.255-5.647 2.824-8.785 0-3.137-2.823-5.333-4.078-6.902-3.137-1.568.941-5.333 6.588-5.333 8.784 0 2.196 2.024 23.113 0 26.04-3.98 2.338-17.882 7.529-19.765 9.725-1.882 2.196-14.745 8.47-8.784 12.863z" fill="#784421" fill-rule="evenodd"/><path d="M66.204 26.18c-.18.014-.354.051-.53.085-2.125.402-4.002 2.151-6.164 4.384-1.93 3.165-3.926 6.508-4.258 6.906l-.021.043h-.021v-.022c.002-.008-.004-.032 0-.042.023-.059.064-.169.127-.297-3.056.877-6.16.99-8.94-.762-2.832-4.35-4.449-5.405-9.257-1.123-2.948 3.823-3.197 8.466-3.474 13.176-.395 6.373-.168 12.772-.91 19.107h-.022c-.001.002.003.02 0 .021-.32.266-4.306 2.378-8.77 4.957-5.362 2.836-22.48 11.768-20.907 18.81 3.037 2.898 7.24 2.292 11.142 2.416 4.7-.064 23.954-5.052 29.254-5.211 11.295.21 22.607.12 33.872-.848 8.006-.949 17.218-4.516 25.06-6.44 6.345-2.05 11.337-4.278 17.01-7.816 4.642-3.553 7.988-5.983 4.3-12.117-3.032-3.76-4.587-6.044-9.067-7.456-4.028-1.024-8.2-.363-12.328-.148-2.978.616-9.082.169-11.8-.36-2.755-2.152-5.95-6.072-8.367-8.58a45.841 45.841 0 01-6.566-9.469c-1.384-2.833-2.903-5.663-5.17-7.9-1.568-1.023-2.933-1.412-4.193-1.314zm-2.881 1.97c.85-.08 2.284.218 4.385 1.525 2.237 2.203 4.766 4.194 6.122 6.99 1.828 3.462 3.012 7.45 5.613 10.359.44.459 1.082 1.014 1.864 1.652-6.648 3.476-35.393 12.173-45.522 10.147-.146-3.94-.54-7.85-.276-11.884.286-4.355 1.393-8.89 4.025-12.477.291.69 2.43 1.528 4.152 4.174 2.818 1.933 6.013 1.841 9.215 1.059 5.063-2.346 6.854-6.515 9.596-10.804-.007-.003-.015-.017-.022-.02-.01-.008-.034-.015-.042-.022-.002-.003.002-.019 0-.021h-.021a.525.525 0 01-.021-.021v-.022c-.003-.001-.02.002-.021 0v-.02c-.002-.01 0-.018 0-.022v-.021-.021c.001-.005-.002-.018 0-.022.001-.007.017-.032.02-.042.006-.015.015-.049.022-.063.002-.005.019-.018.021-.022l.021-.02a.77.77 0 01.127-.128c.095-.066.222-.125.382-.17.108-.03.22-.071.36-.084zm2.563 5.147c-2.911.471-.184 9.581-.297 10.444l.848-.403c.118-.728.04-6.671.572-7.541.007-.01.014-.033.02-.042l.022-.022c.005-.004.016-.017.021-.02.003-.002.019 0 .021 0 .003-.002.019-.021.022-.022H67.157c.006.001.015.02.021.021.003.002.018-.001.021 0 1.188.07 2.366.332 3.432.869l.805-.509c-1.077-.555-4.323-2.695-5.529-2.775-.012.002-.01-.001-.021 0zM92.3 54.841c2.466.635 4.933 1.112 7.5.593 4.096-.252 8.258-.177 12.264.805 4.411 1.368 7.2 3.018 10.19 6.715 2.283 4.534-1.977 6.742-4.343 9.13-5.614 3.634-9.201 5.288-15.528 7.392-7.833 1.992-14.614 5.005-22.623 5.995-11.245 1.04-22.55 1.108-33.83.826-5.31.086-24.519 5.044-29.19 5.17-3.772-.11-12.218.64-10.846-3.899.942-3.115 4.34-4.962 6.144-6.143.108-.111 4.26-3.951 9.532-6.333 2.677-1.518 8.518-1.958 10.91-3.983-.011 1.924.191 3.647.486 4.046l1.102-3.813c8.403-.21 49.123-7.815 54.885-16.374 1.932 1.479 3.11 4.445 3.453 5.105l.487-.572c-.279-.565-.416-4.086-.593-4.64-.001-.003.002-.017 0-.02z"/></svg>