<?xml version="1.0" encoding="UTF-8"?>
<svg width="128" height="128" xmlns="http://www.w3.org/2000/svg" xmlns:xlink="http://www.w3.org/1999/xlink">
 <g fill-rule="evenodd">
  <path d="M13.57 39.352c-5.303.248-5.937 6.296-5.373 10.894-.186 4.967 2.466 9.345 2.03 14.243-.728 5.236-4.18 9.295-2.962 14.752 1.797 4.458 6.59 1.602 10.335 1.702 9.992-.496 18.719-2.303 28.582-3.827 4.332 2.226 5.723 9.24 11.715 8.566 6.605 2.026 11.252-2.603 15.926-6.658 11.743 6.446 25.489 10.468 38.787 13.15 4.704-.033 4.244-3.682 4.376-7.494-.035-4.927.076-9.893 1.23-14.77 1.005-6.467 3.97-11.422 2.879-17.991-1.643-6.028-9.198-8.108-14.538-5.916-10.41 1.805-20.46 5.208-30.283 9.03.205-7.07-7.368-11.268-13.683-11.087-3.832.1-8.352.947-10.254 4.721-1.285 4.117-5.372 4.72-8.063 1.662-9.738-4.4-19.843-10.276-30.704-10.977z" fill="#54cb64"/>
  <path d="M45.93 68.474s2.71 8.675-.272 8.675-16.807 3.252-18.975 3.524c-2.169.27-17.35 2.44-18.976-.543-1.626-2.981 4.88-17.078 13.012-16.535 8.132.542 23.584 3.795 25.21 4.879z" fill-opacity=".082"/>
  <path d="m43.458 71.905s4.337 5.421 1.355 5.421-16.807 3.253-18.976 3.524c-2.168 0.271-14.638 1.898-16.264-1.084-1.627-2.982 7.59-13.825 15.722-13.283 8.133 0.542 16.536 4.337 18.163 5.422zm12.772-27.286s-1.626 2.71-3.524 5.15c-1.897 2.44-3.795 2.44-3.795 5.422s-2.168 5.15-1.084 7.048c10.03-0.542 18.162-10.3 20.33-16.807-1.083-2.982-9.758-2.168-11.927-0.813z" fill-opacity=".082"/>
  <path d="M56.247 44.01s-1.627 2.71-3.524 5.15c-1.898 2.44-3.795 2.44-3.795 5.421 0 2.982-1.898 2.982-.814 4.88 10.03-.543 14.096-8.675 16.265-15.18-1.084-2.983-5.964-1.627-8.132-.272zM74.393 70.372s-2.169 6.777-1.085 7.86c1.085 1.085 22.771 13.013 28.193 12.2 5.421-.814-15.452-23.042-18.705-24.398-3.253-1.355-8.403 1.898-8.403 4.338z" fill-opacity=".082"/>
  <path d="M74.369 70.24s-2.17 6.777-1.085 7.861c1.085 1.085 18.162 9.76 24.668 11.115 5.422-.814-13.825-19.518-17.078-20.873-3.253-1.356-6.505-.543-6.505 1.897z" fill-opacity=".082"/>
  <path d="M14.443 38.425c-5.303.248-7.564 6.025-7 10.622-.186 4.968 2.467 9.617 2.03 14.515-.727 5.236-5.263 9.837-4.046 15.294 1.797 4.458 7.132 2.958 10.877 3.057 9.992-.496 19.803-2.573 29.667-4.098 4.332 2.226 5.451 9.782 11.443 9.108 6.605 2.027 12.608-2.873 17.282-6.928 11.472 7.53 24.947 11.281 38.245 13.963 4.704-.033 4.515-7.206 4.647-11.018-.035-4.927.89-8.266 2.044-13.144 1.004-6.466 3.156-13.049 2.064-19.617-1.642-6.029-9.197-8.109-14.537-5.916-10.41 1.805-20.46 5.208-30.283 9.03.205-7.07-7.368-11.268-13.683-11.087-3.833.1-8.352.947-10.254 4.72-1.285 4.118-5.372 4.72-8.063 1.663-9.738-4.4-19.572-9.463-30.433-10.164zm-.193 1.406c11.392.947 21.88 7.595 32.11 12.217 4.317 1.614-2.213 7.28 2.49 11.834-.96-2.687-.57-9.727 1.908-11.238 3.038-2.294 3.233-6.74 8.41-7.34 5.61-1.865 13.09.325 15.295 6.199 1.118 3.984 4.04 6.667 1.793 13.259 4.122-3.14-1.457-10.206 4.608-10.24 10.388-3.823 20.489-7.592 31.671-8.1 5.24-.103 8.975 5.284 8.265 9.58-.698 7.219-4.83 14.716-4.233 22.065-.551 4.048 1.457 9.758-2.139 12.55-5.331 2.014-9.834-1.54-15.057-2.14-8.109-2.687-18.13-4.743-24.98-10.045-.12-3.294 4.256-5.434-.18-9.212.954 3.935-1.02 6.78-3.563 10.853-4.922 6.48-18.879 6.585-21.827-1.706-1.073-1.698-2.58-6.502.098-9.605-1.864-1.582-4.884-2.039-8.85-3.426-7.693-3.117-16.31-3.878-24.459-2.39 6.675.927 22.822 3.179 29.188 7.085 1.216 2.269 2.61 6.512-1.807 5.859-7.118 1.39-11.1 3.205-18.28 4.245-4.27-.028-13.737.724-16.786-1.91-.673-5.973 4.069-9.701 3.008-15.765.143-6.168-3.339-13.796.239-19.64.642-1.31 1.65-3.027 3.078-2.989zM86.56 65.52c-2.352.016-4.31-.268-6.645.25 7.432 3.353 16.541.767 23.572-2.155 3.98-1.938 6.31-6.371 9.59-9.34-7.592 5.612-16.982 11.005-26.517 11.245z"/>
 </g>
</svg>
