<?xml version="1.0" encoding="UTF-8"?>
<svg width="360" height="200" version="1.0" xmlns="http://www.w3.org/2000/svg">
 <g stroke="#000">
  <path d="M17.295 58.698c24.468-13.1 45.356-11.774 66.041-23.062 11.097 2.431 19.357 1.46 26.993-.262 23.429 10.787 44.029 12.516 66.042 23.586-1.83 11.56-5.86 21.548-12.58 29.614-8.153-4.37-15.868-6.106-23.324-6.29l-.524 78.621c-32.121 5.983-59.347 3.398-85.959-.262l-.262-78.096c-9.37-.273-16.5 3.19-23.848 6.29-7.067-9.636-10.369-19.81-12.58-30.139z" fill="#fff" fill-rule="evenodd" stroke-width="2"/>
  <path d="M20.964 57.388c2.214 10.749 6.083 20.787 13.627 29.352M55.033 156.45c28.128 4.605 56.257 5.593 84.386-.262M83.074 35.898c-.228 2.325 1.692 12.733 13.89 13.366 11.936.619 14.275-11.536 13.89-13.104" fill="none"/>
  <path d="M77.893 38.7c-.228 2.324 4.574 15.111 18.345 15.462 14.032.357 19.778-14.681 19.393-16.249M84.204 40.616c8.538 2.233 16.082 1.754 25.318-.202M53.843 46.562c2.576 9.885 6.838 21.489-.262 35.38M140.056 46.764c-2.576 9.885-6.838 21.489.262 35.379M172.964 57.126c-2.215 10.748-6.084 20.787-13.628 29.352" fill="none"/>
  <path d="M183.63 58.698c24.467-13.1 45.355-11.774 66.04-23.062 11.097 2.431 19.358 1.46 26.994-.262 23.428 10.787 44.028 12.516 66.041 23.586-1.83 11.56-5.859 21.548-12.58 29.614-8.153-4.37-15.867-6.106-23.323-6.29l-.524 78.621c-32.122 5.983-59.348 3.398-85.959-.262l-.262-78.096c-9.37-.273-16.5 3.19-23.848 6.29-7.068-9.636-10.37-19.81-12.58-30.139z" fill="#fff" fill-rule="evenodd" stroke-width="2"/>
  <path d="m187.3 57.388c2.215 10.749 6.084 20.787 13.628 29.352m20.441 69.71c28.129 4.605 56.258 5.593 84.387-0.262m-61.069-118c8.007 6.192 27.908 6.576 36.621-0.201m-61.129 8.57c2.576 9.885 6.838 21.489-0.262 35.38m86.475-35.178c-2.575 9.885-6.837 21.489 0.263 35.379m32.645-25.017c-2.214 10.748-6.083 20.787-13.627 29.352" fill="none"/>
 </g>
 <path d="M139.965 21.054h2.058l2.604 6.945 2.619-6.945h2.057V31.26h-1.347v-8.962l-2.631 7h-1.388l-2.632-7v8.962h-1.34V21.054m15.484 6.357c-1.017 0-1.72.116-2.113.349-.392.232-.588.629-.588 1.19 0 .446.146.801.438 1.066.296.26.697.39 1.203.39.697 0 1.256-.247 1.675-.739.424-.497.636-1.155.636-1.976v-.28h-1.251m2.508-.52v4.369H156.7v-1.162c-.287.465-.645.809-1.074 1.032-.428.219-.952.328-1.572.328-.784 0-1.408-.219-1.873-.656-.46-.442-.69-1.032-.69-1.77 0-.862.287-1.511.861-1.949.579-.437 1.44-.656 2.584-.656h1.764v-.123c0-.58-.192-1.026-.575-1.34-.378-.32-.911-.479-1.6-.479-.437 0-.863.053-1.278.158a5.068 5.068 0 00-1.196.471v-1.162c.46-.178.907-.31 1.34-.396a6.133 6.133 0 011.265-.137c1.107 0 1.934.287 2.481.861.547.575.82 1.445.82 2.612m2.625-6.269h1.258V31.26h-1.258V20.623m10.432 6.494v.615h-5.783c.055.866.314 1.527.78 1.983.469.451 1.12.677 1.954.677.483 0 .95-.06 1.402-.178a6.23 6.23 0 001.353-.533v1.19a7.543 7.543 0 01-1.388.437c-.474.1-.954.15-1.442.15-1.221 0-2.19-.355-2.905-1.066-.711-.711-1.067-1.673-1.067-2.885 0-1.253.338-2.247 1.012-2.98.68-.739 1.593-1.108 2.741-1.108 1.03 0 1.844.333 2.44.998.602.66.903 1.56.903 2.7m-1.258-.369c-.009-.688-.203-1.237-.58-1.647-.374-.41-.871-.616-1.491-.616-.702 0-1.265.199-1.689.595-.419.397-.66.955-.724 1.675l4.484-.007m6.392-5.694h8.634v1.162h-3.623v9.044h-1.388v-9.044h-3.623v-1.162m8.025 5.81h3.685v1.121h-3.685v-1.12m11.867-5.476v1.346a8.518 8.518 0 00-1.483-.56 5.257 5.257 0 00-1.347-.185c-.752 0-1.333.146-1.743.438-.405.291-.608.706-.608 1.244 0 .451.134.793.403 1.025.274.228.789.413 1.545.554l.834.17c1.03.197 1.789.543 2.276 1.04.493.492.739 1.153.739 1.982 0 .99-.333 1.739-.998 2.25-.661.51-1.632.765-2.912.765-.484 0-.999-.055-1.545-.164a11.514 11.514 0 01-1.689-.485v-1.422a8.07 8.07 0 001.648.71c.537.16 1.066.24 1.586.24.788 0 1.396-.155 1.825-.465.428-.31.642-.752.642-1.326 0-.501-.155-.893-.465-1.176-.305-.282-.808-.494-1.51-.636l-.841-.164c-1.03-.205-1.775-.526-2.235-.964-.46-.437-.69-1.045-.69-1.825 0-.902.316-1.613.95-2.133.637-.52 1.515-.779 2.631-.779.479 0 .966.043 1.463.13a10.56 10.56 0 011.524.39m9.106 5.25v4.62h-1.258v-4.58c0-.724-.141-1.266-.424-1.626-.282-.36-.706-.54-1.271-.54-.68 0-1.215.216-1.607.65-.392.432-.588 1.022-.588 1.77v4.327h-1.264V20.623h1.264v4.17c.301-.46.654-.804 1.06-1.032.41-.228.882-.342 1.415-.342.88 0 1.545.273 1.996.82.451.543.677 1.342.677 2.4m2.522-3.035h1.258v7.656h-1.258v-7.656m0-2.981h1.258v1.593h-1.258v-1.593m8.32 4.156a1.588 1.588 0 00-.465-.177 2.257 2.257 0 00-.547-.062c-.711 0-1.258.232-1.64.697-.379.46-.568 1.124-.568 1.99v4.033h-1.265v-7.656h1.265v1.189c.264-.465.608-.809 1.032-1.032.424-.228.939-.342 1.545-.342.087 0 .182.007.287.02.105.01.221.026.349.048l.007 1.292m2.577-3.35v2.175h2.59v.977h-2.59v4.156c0 .625.084 1.026.253 1.203.173.178.522.267 1.046.267h1.292v1.053h-1.292c-.971 0-1.641-.18-2.01-.54-.37-.365-.554-1.026-.554-1.983v-4.156h-.923v-.977h.923V21.43h1.265" font-family="Bitstream Vera Sans" font-size="14" font-weight="400"/>
 <path d="M84.47 171.918v3.07h4.605v.926h-4.606v3.346H83.35v-8.256h5.866v.914h-4.747m6.065 7.342v-4.864c0-.132-.002-.267-.006-.404 0-.14-.002-.275-.006-.404a85.642 85.642 0 00-.023-.668h.996l.012.31c.007.114.013.23.017.352.008.121.012.238.012.352.004.109.006.203.006.28h.023c.074-.241.152-.45.235-.626.085-.18.185-.326.298-.44.114-.117.248-.203.405-.257a1.624 1.624 0 01.814-.065c.078.012.139.024.182.035v.967a1.345 1.345 0 00-.246-.04 2.57 2.57 0 00-.317-.018c-.242 0-.449.054-.62.164-.169.109-.308.261-.417.457a2.318 2.318 0 00-.234.691c-.051.266-.076.557-.076.873v3.305h-1.055m9.346-3.176c0 1.11-.245 1.936-.733 2.478-.488.543-1.197.815-2.127.815-.441 0-.836-.066-1.183-.2a2.223 2.223 0 01-.885-.609 2.829 2.829 0 01-.55-1.025c-.126-.414-.188-.9-.188-1.459 0-2.188.947-3.281 2.841-3.281.493 0 .916.068 1.272.205.36.137.652.342.879.615.23.273.4.615.51 1.025.109.41.164.89.164 1.436m-1.108 0c0-.492-.039-.898-.117-1.219-.074-.32-.186-.576-.334-.767a1.13 1.13 0 00-.533-.399 2.048 2.048 0 00-.715-.117c-.27 0-.514.041-.732.123a1.221 1.221 0 00-.551.41c-.153.192-.27.447-.352.768-.078.32-.117.72-.117 1.201 0 .492.043.9.129 1.225.086.32.203.576.351.767.153.192.33.326.534.404.207.079.431.118.673.118.27 0 .514-.037.733-.112.219-.078.404-.213.557-.404.152-.191.27-.45.351-.773.082-.325.123-.733.123-1.225m6.451 3.176v-4.02c0-.308-.023-.566-.07-.773a1.148 1.148 0 00-.217-.498.792.792 0 00-.404-.27 1.971 1.971 0 00-.615-.082c-.25 0-.477.045-.68.135a1.41 1.41 0 00-.516.38c-.14.165-.25.37-.328.616a2.73 2.73 0 00-.117.838v3.674h-1.055v-4.987c0-.132-.002-.271-.005-.416a13.773 13.773 0 00-.018-.755 2.393 2.393 0 00-.012-.182h.996c.004.02.008.072.012.158l.012.299a8.98 8.98 0 01.023.627h.018c.101-.184.213-.35.334-.498a1.854 1.854 0 01.973-.615c.206-.059.447-.088.72-.088.352 0 .654.043.908.129.254.086.463.218.627.398.164.18.283.412.358.697a3.8 3.8 0 01.117 1.008v4.225h-1.06m5.091-.047c-.16.043-.324.076-.492.1a3.534 3.534 0 01-.574.04c-.844 0-1.266-.478-1.266-1.435v-4.23h-.732v-.768h.773l.31-1.418h.704v1.418h1.172v.768h-1.172v4.001c0 .305.049.52.146.645.102.121.276.182.522.182.101 0 .199-.008.293-.024.097-.015.203-.035.316-.058v.779M256.69 176.934c0 .418-.082.775-.246 1.072a2.092 2.092 0 01-.662.72c-.278.184-.6.319-.967.405a5.078 5.078 0 01-1.16.129h-3.352v-8.256h3c.457 0 .865.039 1.225.117.359.074.664.193.914.358.25.164.44.373.568.626.133.25.2.551.2.903 0 .23-.034.447-.1.65-.063.203-.16.389-.293.557a1.817 1.817 0 01-.492.428 2.3 2.3 0 01-.686.263c.332.04.625.115.879.229.258.113.473.258.644.433.172.176.303.381.393.616.09.23.135.48.135.75m-1.606-3.791c0-.446-.152-.764-.457-.956-.304-.19-.746-.287-1.324-.287h-1.88v2.614h1.88c.328 0 .606-.032.832-.094.227-.066.41-.158.55-.275.141-.122.243-.266.306-.434.062-.168.093-.357.093-.568m.475 3.703c0-.262-.049-.485-.147-.668a1.165 1.165 0 00-.41-.451 1.92 1.92 0 00-.65-.258 3.963 3.963 0 00-.844-.082h-2.086v2.976h2.174c.285 0 .547-.023.785-.07.242-.047.45-.129.621-.246.176-.117.313-.274.41-.469.098-.195.147-.44.147-.732m4.178 2.53c-.637 0-1.116-.167-1.436-.503-.32-.336-.48-.797-.48-1.383 0-.418.078-.76.234-1.025.16-.27.367-.48.621-.633.258-.152.55-.258.879-.316a6.549 6.549 0 011.002-.1l1.424-.023v-.346c0-.262-.028-.484-.082-.668a1.033 1.033 0 00-.252-.445.988.988 0 00-.428-.246 1.939 1.939 0 00-.598-.083c-.203 0-.386.016-.55.047-.164.028-.307.08-.428.159a.831.831 0 00-.293.31 1.284 1.284 0 00-.147.492l-1.101-.1c.039-.25.113-.478.223-.685.109-.21.263-.392.462-.545.204-.152.455-.27.756-.351a4.1 4.1 0 011.102-.13c.797 0 1.396.184 1.799.552.402.363.603.89.603 1.582v2.73c0 .313.041.549.123.709.082.156.238.234.469.234.059 0 .117-.004.176-.011a2.2 2.2 0 00.17-.03v.657a3.55 3.55 0 01-.815.093c-.199 0-.37-.025-.515-.076a.848.848 0 01-.346-.24 1.132 1.132 0 01-.205-.398 2.48 2.48 0 01-.088-.557h-.035a3.584 3.584 0 01-.375.55c-.133.165-.29.305-.469.423a2.25 2.25 0 01-.615.263 2.964 2.964 0 01-.785.094m.24-.791c.336 0 .629-.06.879-.182.254-.125.463-.283.627-.474.168-.192.293-.4.375-.627a1.91 1.91 0 00.123-.65v-.522l-1.155.023a5.543 5.543 0 00-.738.059c-.23.031-.433.096-.61.193a1.118 1.118 0 00-.421.41c-.102.176-.152.407-.152.692 0 .344.091.61.275.797.187.187.453.28.797.28m5.625-2.524c0 .363.025.697.076 1.001.055.305.145.569.27.792.125.218.289.388.492.51.207.12.46.18.761.18.375 0 .688-.1.938-.304.254-.203.41-.515.469-.937l1.066.07a2.485 2.485 0 01-.228.756 2.069 2.069 0 01-.48.639c-.2.183-.444.332-.733.445-.29.11-.623.164-1.002.164-.496 0-.918-.084-1.266-.252a2.276 2.276 0 01-.85-.691 2.96 2.96 0 01-.468-1.043 5.53 5.53 0 01-.147-1.307c0-.426.035-.8.106-1.125a3.43 3.43 0 01.293-.855c.129-.247.279-.452.45-.616.173-.168.358-.3.558-.398.203-.102.416-.174.638-.217.223-.047.447-.07.674-.07.356 0 .672.049.95.146a2.2 2.2 0 011.206 1.002c.125.23.213.479.264.744l-1.084.082c-.055-.351-.193-.63-.416-.838-.223-.207-.54-.31-.95-.31-.3 0-.552.05-.755.152-.2.098-.361.248-.486.451a2.12 2.12 0 00-.27.756c-.05.305-.076.662-.076 1.073m9.193 3.199l-2.144-2.895-.774.639v2.256h-1.054v-8.696h1.054v5.432l2.783-3.076h1.237l-2.572 2.725 2.707 3.615h-1.237" font-family="Liberation Sans" font-size="12" font-weight="400"/>
</svg>
