<?xml version="1.0" encoding="UTF-8"?>
<svg width="400pt" height="400pt" xmlns="http://www.w3.org/2000/svg" xmlns:xlink="http://www.w3.org/1999/xlink">
 <path transform="matrix(1.1742 0 0 1.1471 -8.973 -14.553)" d="m119.32 69.549c0-0.884 141.39 225.24 157.3 227.01 17.677-0.884 106.69-56.436 107.58-72.346 0.884-4.42-22.696-1.75-21.812-3.518-0.883 1e-3 36.343-17.525 46.95-27.248-7.955 11.491-0.57 74.566-2.338 74.567l-12.089-34.962c0 1.768-56.388 88.407-82.02 111.39-5.303 17.678-6.188 33.588-1.768 48.614-5.304-7.071-34.472-5.303-43.311-5.303-8.838 8.839-151.14 27.4-172.36 28.284 1e-3 0.884 6.187 11.491 12.374 13.259-0.883 0-41.542-9.724-51.264-7.955 14.142-13.258 35.355-33.588 36.239-34.472-0.884 0.884-5.304 17.678-0.884 17.678 4.419 0 106.95-42.427 121.09-60.105 3.535-21.213-116.67-257.21-121.98-257.21-30.052 12.375-43.31-40.658-18.562-53.033 19.446-17.677 67.176-2.651 46.846 35.356z" fill="#bfbfbf" fill-rule="evenodd" stroke="#000" stroke-linejoin="round" stroke-width="8.616"/>
 <path transform="matrix(1.1742 0 0 1.1471 -8.973 -14.553)" d="m110.49 86.343s99.67 157.69 146.52 248.73m-99.67 57.98c114.02-31.82 154.89-64.167 207.92-133.11" fill="none" stroke="#000" stroke-linejoin="round" stroke-width="8.616"/>
 <path transform="matrix(1.1742 0 0 1.1471 -8.973 -14.553)" d="m83.085 43.916c15.026-10.607 37.124 13.258 19.445 27.4-18.561 15.026-38.89-12.374-19.445-27.4z" fill="#fff" fill-rule="evenodd" stroke="#000" stroke-linejoin="round" stroke-width="8.616"/>
 <path d="M85.737 66.897s6.187 45.962-13.258 51.265c-7.956-5.303-3.536-26.516-3.536-31.82 0-5.303.884-9.722.884-8.838-6.187-11.49-7.071-13.259-7.071-12.375-14.142 24.75-11.49 67.175 8.838 66.291 26.517 0 32.704-68.059 23.865-73.362-4.419-4.42-14.142-8.839-14.142-3.535 0 5.303 4.42 15.026 4.42 12.374z" fill="#bfbfbf" fill-rule="evenodd" stroke="#000" stroke-linejoin="round" stroke-width="10"/>
 <path d="M79.55 120.814c4.682 6.826 4.927 49.968-6.564 43.781-9.723 3.536-7.579-32.29-6.695-33.174-11.49-9.723-8.839-15.026-8.838-14.143-14.143 24.75-3.387 64.732 16.943 63.848 26.516 0 23.058-57.905 19.295-65.747-5.625-18.036-28.302-21.53-25.763-8.104.262.358 5.53 8.576 11.622 13.539z" fill="#bfbfbf" fill-rule="evenodd" stroke="#000" stroke-linejoin="round" stroke-width="10"/>
 <path d="m111.25 90c12.5 8.75 152.5 225 135 280-58.75-135-90-185-135-280z" fill="#fff" fill-opacity=".504" fill-rule="evenodd"/>
 <path d="M135 438.75c26.25-10 122.5-65 157.5-56.25-23.75 33.75-138.75 53.75-157.5 56.25zM65 60c0-1.25 0-25 13.75-31.25S66.25 62.5 65 60z" fill="#fff" fill-opacity=".502" fill-rule="evenodd"/>
</svg>
