<?xml version="1.0" encoding="UTF-8"?>
<svg width="128" height="128" version="1.0" xmlns="http://www.w3.org/2000/svg" xmlns:xlink="http://www.w3.org/1999/xlink">
 <defs>
  <linearGradient id="a">
   <stop stop-color="#404040" offset="0"/>
   <stop stop-color="#767974" offset="1"/>
  </linearGradient>
  <linearGradient id="c">
   <stop stop-color="#989b9d" offset="0"/>
   <stop stop-color="#d5d3d0" offset="1"/>
  </linearGradient>
  <linearGradient id="e">
   <stop stop-color="#c29400" offset="0"/>
   <stop stop-color="#c2b01f" offset="1"/>
  </linearGradient>
  <linearGradient id="f">
   <stop stop-color="#c29b00" offset="0"/>
   <stop stop-color="#c2b600" offset="1"/>
  </linearGradient>
  <linearGradient id="m" x1="-48.544" x2="-358.47" y1="377.76" y2="305.26" gradientTransform="scale(.97631 1.0243)" gradientUnits="userSpaceOnUse" xlink:href="#a"/>
  <linearGradient id="v" x1="188.37" x2="276.6" y1="563.35" y2="393.83" gradientTransform="scale(2.1373 .46787)" gradientUnits="userSpaceOnUse" xlink:href="#c"/>
  <linearGradient id="t" x1="782.53" x2="700.45" y1="490.18" y2="644.74" gradientTransform="matrix(.50185 0 0 .64765 58.63 -33.537)" gradientUnits="userSpaceOnUse" xlink:href="#e"/>
  <linearGradient id="i" x1="161.98" x2="158.2" y1="1921.3" y2="1946.8" gradientTransform="matrix(2.1584 0 0 .15059 58.63 -33.537)" gradientUnits="userSpaceOnUse" xlink:href="#e"/>
  <linearGradient id="j" x1="429.18" x2="303.49" y1="586.4" y2="364.97" gradientTransform="matrix(.35325 0 0 .9201 58.63 -33.537)" gradientUnits="userSpaceOnUse">
   <stop stop-color="#c29400" offset="0"/>
   <stop stop-color="#be7600" offset="1"/>
  </linearGradient>
  <linearGradient id="k" x1="592.96" x2="382.9" y1="704.62" y2="476.02" gradientTransform="matrix(.53528 0 0 .6072 58.63 -33.537)" gradientUnits="userSpaceOnUse">
   <stop stop-color="#c27c00" offset="0"/>
   <stop stop-color="#a66600" offset="1"/>
  </linearGradient>
  <linearGradient id="l" x1="177.96" x2="430.69" y1="963.04" y2="698.15" gradientTransform="matrix(.56216 0 0 .57817 58.63 -33.537)" gradientUnits="userSpaceOnUse" xlink:href="#f"/>
  <linearGradient id="n" x1="-193.16" x2="-140.78" y1="398.25" y2="520.97" gradientTransform="scale(.97631 1.0243)" gradientUnits="userSpaceOnUse" xlink:href="#a"/>
  <linearGradient id="o" x1="-186.59" x2="-116.75" y1="326.44" y2="420.06" gradientTransform="scale(.97631 1.0243)" gradientUnits="userSpaceOnUse" xlink:href="#a"/>
  <linearGradient id="p" x1="-131.44" x2="-89.799" y1="255.33" y2="360.33" gradientTransform="scale(.97631 1.0243)" gradientUnits="userSpaceOnUse" xlink:href="#a"/>
  <linearGradient id="q" x1="-212.17" x2="-114.92" y1="154.26" y2="301.01" gradientTransform="scale(.97631 1.0243)" gradientUnits="userSpaceOnUse" xlink:href="#a"/>
  <linearGradient id="r" x1="1021.6" x2="1364.4" y1="458.66" y2="353.86" gradientTransform="matrix(.28843 0 0 1.1269 58.63 -33.537)" gradientUnits="userSpaceOnUse" xlink:href="#e"/>
  <linearGradient id="s" x1="152.45" x2="249.4" y1="1371.8" y2="1249.3" gradientTransform="matrix(.98745 0 0 .32915 58.63 -33.537)" gradientUnits="userSpaceOnUse" xlink:href="#f"/>
  <radialGradient id="u" cx="190.62" cy="736.57" r="103.86" gradientTransform="scale(1.9828 .50434)" gradientUnits="userSpaceOnUse" xlink:href="#c"/>
 </defs>
 <g display="block">
  <path d="M58.79 39.705c.16.403-14.91 4.174-21.576 5.943C26.564 54.61 2.923 74.08 3.474 73.94c7.358-2.32 17.915-5.858 25.273-8.177-4.187 8.058-8.84 16.362-13.021 24.423 4.491.01 9.6-.385 14.092-.371.112 10.876-.187 22.004-.127 32.88 18.861 0 37.883.162 56.744.162-.14-1.28 14.41-20.54 20.761-29.393 0-6.325.484-13.296.484-19.622 5.172-8.156 10.181-16.313 15.353-24.469-2.794-1.689-6.477-3.464-9.272-5.151 2.988-.015 7.535.45 10.506.291 1.227-.28-16.954-4.25-17.934-4.81-14.603-.155-48.852-.602-47.544.002z" fill-rule="evenodd"/>
  <path transform="matrix(.28703 0 0 .28703 -12.66 -32.077)" d="m253.19 250.43 37.44 12.763 182.1 2.553-56.16-13.615-163.38-1.701z" fill="url(#i)" fill-rule="evenodd"/>
  <path transform="matrix(.28703 0 0 .28703 -12.66 -32.077)" d="m147.67 337.22 2.553 199.97 107.22-96.154 1.234-190.73-111 86.921z" fill="url(#j)" fill-rule="evenodd"/>
  <path transform="matrix(.28703 0 0 .28703 -12.66 -32.077)" d="m256.59 251.54 159.97 1.56-1.702 180.02-159.12 0.851 0.85-182.43z" fill="url(#k)" fill-rule="evenodd"/>
  <path transform="matrix(.28703 0 0 .28703 -12.66 -32.077)" d="m148.52 339.32 195.71-2.757v201.28h-194.86l-0.852-198.53z" fill="url(#l)" fill-rule="evenodd"/>
  <path d="m29.56 65.198 31.832-25.152-24.095 6.106-31.75 26.622 24.013-7.576z" fill="#c29b00" fill-rule="evenodd"/>
  <g transform="matrix(.13004 0 0 .14227 92.954 3.92)" fill-rule="evenodd" stroke="#000" stroke-width="5.275">
   <path d="m-344.3 384.53c-22.694 19.063-31.42 39.17-28.764 59.641 2.657 20.472 16.947 38.546 37.844 53.344 41.795 29.595 111.63 47.6 186.09 43.219h0.187l0.157-0.032c58.618-6.124 92.59-22.786 110.84-41.75 18.253-18.963 20.646-40.133 13.407-53.406l-0.219-0.406-0.25-0.406c-18.08-25.111-55.42-32.653-92.219-35.5-36.798-2.848-74.235-0.219-92.437-0.219-19.112 0-44.427 1.473-70.742 7.494-26.314 6.021-51.83 21.803-72.207 40.745l7.427 10.84c12.585-12.737 41.192-32.043 65.522-37.61s51.343-6.469 70-6.469c19.566 0 55.976-2.544 91.281 0.187 35.04 2.712 67.818 11.398 80.844 28.938 2.9 5.861 3.277 20.346-11.219 35.406-14.763 15.338-45.078 31.296-101.25 37.219-0.052 3e-3 -0.104-3e-3 -0.156 0-71.4 4.168-138.83-13.86-176.41-40.469-18.802-13.314-29.721-28.394-31.625-43.062-1.903-14.668 2.51-28.721 22.735-45.71l-8.846-11.994z" fill="url(#n)"/>
   <path d="M-325.273 296.1c-22.694 19.062-32.23 42.377-29.574 62.849 2.657 20.471 16.947 38.546 37.844 53.343 41.794 29.595 111.628 47.6 186.094 43.22h.187l.156-.032c58.619-6.124 92.591-22.786 110.844-41.75S.924 373.596-6.316 360.324l-.218-.407-.25-.406c-18.08-25.11-55.421-32.652-92.22-35.5-36.797-2.847-74.234-.219-92.437-.219-19.111 0-44.427 1.474-70.741 7.495-26.315 6.02-52.371 21.802-72.747 40.744 2.475 4.848 4.68 7.72 7.696 10.84 12.585-12.736 41.463-32.043 65.792-37.61 24.33-5.567 51.343-6.469 70-6.469 19.566 0 55.977-2.544 91.282.188 35.04 2.711 67.818 11.397 80.843 28.937 2.9 5.862 3.277 20.346-11.218 35.407-14.763 15.338-45.079 31.295-101.25 37.218-.053.004-.104-.003-.157 0-71.399 4.168-138.829-13.86-176.406-40.468-18.802-13.314-29.721-28.395-31.625-43.063-1.903-14.668 2.51-32.423 22.735-49.412l-8.036-11.5z" fill="url(#o)"/>
   <path d="M-305.25 212.281c-22.694 19.063-32.5 40.404-29.844 60.875 2.657 20.472 16.947 38.546 37.844 53.344 41.794 29.595 111.628 47.6 186.094 43.219h.187l.156-.031C-52.194 363.563-18.22 346.9.031 327.938c18.253-18.964 20.646-40.134 13.406-53.407l-.218-.406-.25-.406c-18.08-25.111-55.42-32.653-92.219-35.5-36.798-2.848-74.235-.219-92.438-.219-19.11 0-44.427 1.473-70.741 7.494-26.315 6.021-52.262 22.123-72.638 41.065 2.26 3.753 5.059 8.248 7.588 10.52 12.585-12.737 41.462-32.043 65.791-37.61 24.33-5.567 51.344-6.469 70-6.469 19.566 0 55.977-2.544 91.282.188 35.04 2.711 67.818 11.397 80.844 28.937 2.9 5.861 3.276 20.346-11.22 35.406-14.762 15.338-45.077 31.296-101.25 37.219-.051.003-.103-.003-.156 0-71.399 4.168-138.828-13.86-176.406-40.469-18.802-13.314-29.721-28.394-31.625-43.062-1.903-14.668 4.4-30.449 24.625-47.438l-9.656-11.5z" fill="url(#p)"/>
   <path d="m-300.28 137.72c-6.144 2.521-27.3-12.59-20.434-3.05-37.647 44.33 30.794 108.85 77.681 138.36 37.745 21.494 83.093 22.34 125.22 18.108 35.292-3.922 70.937-11.358 102.64-27.866 15.04-9.197 29.563-24.788 28.672-43.536-2.69-19.717-21.948-30.775-38.334-38.366-50.679-23.435-108.82-21.396-163-12.327-34.608 6.134-74.149 17.53-104.84 34.754 0.61 0.7 8.624 11.694 8.867 11.696 58.359-29.214 139.41-44.769 203.81-35.426 26.593 4.475 53.503 13.578 74.044 31.563 9.628 10.433 1.548 24.32-7.585 31.749-16.805 14.23-39.06 19.3-59.82 24.911-45.855 10.89-94.898 14.544-140.66 1.331-34.946-11.5-60.854-40.054-81.11-69.568-13.964-21.011-30.333-31.739-5.142-62.328z" fill="url(#q)"/>
  </g>
  <path transform="matrix(.28703 0 0 .28703 -12.66 -32.077)" d="m344.24 336.37 72.328-85.093v183.8l-73.18 102.11 0.852-200.82z" fill="url(#r)" fill-rule="evenodd"/>
  <path d="m29.47 65.142-12.7 24.424 77.138 1.052-7.083-25.454-57.355-0.022z" fill="#7c4900" fill-rule="evenodd"/>
  <path transform="matrix(.28703 0 0 .28703 -12.66 -32.077)" d="m146.82 338.92-44.247 85.092 265.49 0.85-24.676-88.495-196.56 2.553z" fill="url(#s)" fill-rule="evenodd"/>
  <path d="M86.847 66.82l20.06-26.777 15.386 9.28-23.69 38.93L86.846 66.82z" fill="#7c4900" fill-rule="evenodd"/>
  <path transform="matrix(.28703 0 0 .28703 -12.66 -32.077)" d="m344.24 337.22 72.328-85.092 53.608 32.335-82.54 130.19-43.396-77.433z" fill="url(#t)" fill-rule="evenodd"/>
  <path d="M64.146 11.233c-7.096.508-14.36.956-21.053 3.556-1.713.672-3.605 1.865-3.286 4.01.223 1.405-.05 2.713 1.243 3.57 2.114 1.722 5.002 2.716 7.592 3.359 9.571 2.126 19.465 1.996 29.227 1.593 6.362-.398 12.6-.905 18.666-2.954 1.767-.608 3.69-1.096 4.473-2.884.243-1.32.354-2.979-.091-4.203-1.636-2.403-4.71-2.985-7.315-3.772-9.612-2.36-19.612-2.519-29.456-2.275z"/>
  <path transform="matrix(.16364 0 0 .16364 4.813 -41.703)" d="m401.72 327.03c-101.76 0-184.34 18.069-184.34 40.344-1.992 4.648 1.344 11.58 1.344 13.563 0 22.275 82.585 40.375 184.34 40.375 101.76 0 184.34-18.1 184.34-40.375 0-2.652-1.343-11.583-1.343-13.563 0-22.275-82.586-40.344-184.34-40.344z" fill="url(#u)"/>
  <path transform="matrix(.17484 0 0 .17484 -12.042 -21.513)" d="m643.78 228.33a172.53 37.768 0 1 1-345.06 0 172.53 37.768 0 1 1 345.06 0z" fill="url(#v)"/>
 </g>
</svg>
