<svg xmlns="http://www.w3.org/2000/svg" xmlns:xlink="http://www.w3.org/1999/xlink" width="96" height="96" version="1.0"><defs><linearGradient id="a"><stop offset="0" stop-color="#2f7fed"/><stop offset="1" stop-color="#1160ca"/></linearGradient><linearGradient xlink:href="#a" id="c" gradientUnits="userSpaceOnUse" gradientTransform="translate(8.448 1.428) scale(.82869)" x1="15.837" y1="35.976" x2="57.092" y2="81.336"/><filter id="b"><feGaussianBlur stdDeviation="1.305"/></filter></defs><metadata/><path d="M77.998 38.842c-2.797-.042-5.674.244-8.573.594-2.124.37-4.282.795-6.318 1.549-1.498.55-3.056 1.035-4.431 1.761-.46.271-.942.538-1.406.806-.292.169-.59.344-.884.51l.123.085c-.11-.003-.22.012-.32.02-.1.01-.188.01-.267.043-.158.065-.273.196-.29.425-1.381 3.192-5.708 7.967-6.955 10.63 4.762 1.205 15.306 1.468 18.538 1.761-3.702 2.386-9.5 6.066-13.396 9.507 1.67.412 6.557.157 8.258.87.154.064.28.151.378.233.388.328.27.805-.645 1.506-4.357 3.228-9.166 6.047-13.034 9.38-.553.475-1.087.964-1.598 1.463 1.093-1.442 3.641-3.835 1.536-4.456-3.592-.444-7.074-1.01-10.332-1.888 2.34-3.58 10.152-8.526 12.345-11.798-4.514-1.078-10.356-2.412-14.602-3.777 2.809-3.668 6.725-7.051 10.173-10.546 1.421-.206.117-.885-.5-1.294-1.556-.934-3.52-1.527-5.564-2.016-2.676-.644-5.642-.759-8.771-.509-3.352.398-6.486 1.49-9.468 2.907-2.33 1.182-4.269 2.61-5.984 4.159-1.673 1.685-2.827 3.477-3.731 5.283-1.24 2.49-1.667 4.948-1.754 7.363a17.763 17.763 0 001.205 6.578c.86 1.804 2.164 3.458 3.666 4.987a20.728 20.728 0 005.93 4.137c3.44 1.348 7.222 2.357 11.136 3.204 2.866.61 5.825 1.113 8.727 1.677 1.668.356 3.33.713 4.987 1.082.836.197.404.116 1.198.297l.176-.212.131.063c.206-.125.363-.241.577-.36.547-.333 1.07-.68 1.636-.998.876-.486 1.795-.955 2.767-1.336a236.958 236.958 0 017.447-3.013c3.17-1.263 6.317-2.583 9.234-4.16 2.806-1.627 5.49-3.358 7.98-5.198 2.418-1.824 4.744-3.688 6.87-5.644 2.18-1.992 4.21-4.023 5.825-6.175 1.335-1.875 2.4-3.786 3.146-5.708.634-1.694 1.162-3.402 1.336-5.071.06-1.301-.137-2.545-1.058-3.565-1.412-1.43-3.653-2.324-5.855-3.204-2.914-.996-6.002-1.813-9.589-1.952z" fill-opacity=".687" filter="url(#b)"/><path d="M65.24 11.662c-2.56-.056-5.073.334-7.588.803-1.802.496-3.617 1.061-5.205 2.072-1.17.737-2.422 1.384-3.418 2.356-.323.364-.656.729-.984 1.088-.207.226-.412.452-.622.673l.13.13c-.403-.011-.754.033-.622.647-.134 4.278-2.393 10.695-2.59 14.263 4.757 1.615 14.437 1.944 17.48 2.337-2.528 3.197-6.503 8.15-8.838 12.761 2.42.804 10.537-.282 8.191 3.476-3.233 4.943-7.182 9.191-9.492 14.543.487-1.933 1.967-5.14-.167-5.971-3.425-.596-6.8-1.361-10.074-2.538.87-4.798 6.234-11.412 7.078-15.797-4.487-1.444-10.27-3.246-14.614-5.076 1.265-4.916 3.635-9.456 5.542-14.14 1.22-.276-.201-1.16-.906-1.708-1.745-1.252-3.745-2.065-5.775-2.72-2.663-.863-5.398-1.007-8.158-.673-2.91.533-5.372 1.986-7.587 3.885-1.705 1.584-2.973 3.492-3.988 5.567-.93 2.259-1.342 4.675-1.528 7.096-.252 3.337.213 6.63.984 9.867a40.84 40.84 0 003.418 8.805c1.418 2.417 3.172 4.632 5.076 6.68 2.046 2.158 4.292 4.076 6.862 5.569 3.605 1.806 7.405 3.137 11.265 4.273 2.823.817 5.682 1.497 8.52 2.253 1.644.477 3.282.955 4.92 1.45.83.264.432.146 1.218.388l.078-.285.13.104c.142-.169.26-.332.413-.492.38-.446.736-.921 1.14-1.347.625-.652 1.295-1.276 2.046-1.787 1.869-1.388 3.754-2.755 5.697-4.04 2.44-1.691 4.841-3.454 6.94-5.567 1.981-2.182 3.82-4.5 5.439-6.966 1.559-2.445 3.027-4.94 4.272-7.562 1.284-2.67 2.421-5.403 3.134-8.287a35.47 35.47 0 00.829-7.64c-.02-2.27-.115-4.548-.544-6.784-.403-1.744-1.03-3.424-2.227-4.791-1.788-1.917-4.135-3.12-6.449-4.3-3.002-1.334-6.113-2.428-9.426-2.615zM50.375 69.607c.432-.154-12.213-6.676 0 0z" fill="url(#c)" transform="matrix(1.0989 0 0 1.0989 -10.696 4.019)"/><path d="M60.997 16.835c-2.814-.062-5.575.367-8.338.882-1.981.545-3.976 1.166-5.72 2.277-1.286.81-2.662 1.52-3.757 2.59-.354.399-.721.8-1.081 1.195-.227.247-.453.496-.683.74l.142.142c-.443-.012-.828.037-.683.711-.147 4.701-2.63 11.752-2.846 15.674 5.227 1.774 15.864 2.136 19.21 2.568-2.78 3.513-7.148 8.956-9.714 14.023 2.66.883 11.579-.31 9.002 3.82-3.553 5.432-7.893 10.1-10.431 15.98.535-2.124 2.16-5.647-.184-6.56-3.764-.656-7.472-1.496-11.07-2.79.955-5.272 6.85-12.54 7.778-17.359-4.93-1.587-11.285-3.567-16.06-5.578 1.39-5.402 3.995-10.39 6.09-15.538 1.342-.304-.22-1.276-.995-1.878-1.918-1.376-4.115-2.269-6.346-2.988-2.926-.949-5.932-1.107-8.965-.74-3.197.586-5.904 2.183-8.338 4.269-1.873 1.741-3.266 3.838-4.382 6.118-1.022 2.482-1.474 5.138-1.68 7.798-.275 3.667.235 7.285 1.082 10.842a44.88 44.88 0 003.757 9.676c1.557 2.656 3.485 5.09 5.577 7.342 2.248 2.37 4.717 4.478 7.542 6.118 3.961 1.985 8.136 3.448 12.379 4.696 3.101.898 6.243 1.646 9.362 2.476 1.807.525 3.606 1.05 5.407 1.594.912.29.474.16 1.338.426l.085-.313.143.114c.157-.185.287-.365.455-.54.418-.49.808-1.013 1.252-1.48.688-.717 1.423-1.403 2.248-1.964 2.054-1.525 4.126-3.028 6.261-4.44 2.682-1.858 5.32-3.796 7.627-6.118 2.176-2.397 4.198-4.945 5.976-7.655 1.713-2.686 3.327-5.428 4.695-8.31 1.41-2.934 2.66-5.937 3.444-9.106.61-2.762.908-5.564.91-8.395-.02-2.495-.126-4.999-.597-7.456-.443-1.917-1.131-3.763-2.448-5.265-1.964-2.106-4.543-3.428-7.086-4.724-3.299-1.467-6.718-2.669-10.358-2.874zm0 1.537c3.437.151 6.671 1.275 9.79 2.646 2.345 1.202 4.719 2.508 6.488 4.496 1.094 1.32 1.671 2.913 2.077 4.554.46 2.338.56 4.71.598 7.086.02 2.716-.287 5.403-.854 8.053-.706 3.072-1.955 5.986-3.301 8.822-1.335 2.832-2.95 5.49-4.61 8.14-1.727 2.637-3.7 5.108-5.834 7.427-2.225 2.243-4.773 4.136-7.37 5.919-2.14 1.416-4.223 2.916-6.347 4.354-.95.568-1.755 1.328-2.533 2.106-.47.46-.87.968-1.28 1.48-.101-.03-.1-.024-.313-.086-1.83-.514-3.618-1.083-5.464-1.536-3.123-.75-6.267-1.448-9.363-2.305-4.137-1.195-8.216-2.6-12.037-4.61-2.675-1.602-5.04-3.645-7.2-5.891-2.009-2.154-3.808-4.5-5.322-7.03-1.593-2.947-2.871-6.052-3.7-9.305-.807-3.407-1.288-6.85-.967-10.359.221-2.465.66-4.95 1.594-7.257 1.012-2.092 2.243-4.038 3.927-5.663 2.193-1.907 4.67-3.364 7.57-3.899 2.813-.343 5.601-.204 8.31.712 2.062.673 4.077 1.504 5.805 2.846-1.006 5.542-4.25 11.58-5.749 16.983 4.225 2.686 10.429 3.622 15.339 6.096-5.805 15.525-13.671 16.283 5.293 20.347.573 2.337-.725 5.737-.882 8.012 5.548-5.033 8.58-12.208 13.318-18.171 2.826-5.604-4.05-4.927-7.99-5.733 2.26-3.945 6.517-8.624 8.986-12.964-1.656-1.872-14.831-2.827-19.018-3.35.321-1.348.985-8.706 1.659-11.363.238-1.117.672-2.165.94-3.272l.113.114c.23-.296.49-.575.74-.854.347-.384.687-.775 1.024-1.167.953-1.002 2.196-1.662 3.358-2.39 1.63-1.003 3.462-1.618 5.294-2.135 2.6-.58 5.249-.872 7.91-.853z"/></svg>