<svg xmlns="http://www.w3.org/2000/svg" xmlns:xlink="http://www.w3.org/1999/xlink" width="106.667" height="106.667"><defs><linearGradient id="a"><stop offset="0" stop-color="#e1deb7"/><stop offset="1" stop-color="#a8b076"/></linearGradient><linearGradient xlink:href="#a" id="b" gradientTransform="scale(1.1209 .89214)" x1="12.655" y1="72.177" x2="45.75" y2="104.876" gradientUnits="userSpaceOnUse"/><linearGradient xlink:href="#a" id="c" gradientTransform="scale(1.01533 .9849)" x1="49.531" y1="52.569" x2="67.759" y2="75.147" gradientUnits="userSpaceOnUse"/><linearGradient xlink:href="#a" id="d" gradientTransform="scale(.8802 1.1361)" x1="84.089" y1="20.531" x2="109.378" y2="46.206" gradientUnits="userSpaceOnUse"/></defs><g font-size="12" font-weight="700" font-family="Bitstream Vera Sans" writing-mode="lr"><path d="M80.219 13.781C66.285 14.436 59.317 29.091 56 40.813c-3.548 2.297-8.98 4.843-10.281 8.624.508 2.224-4.15 3.47-8.532 5.594-13.806.823-29.709 7.572-34.656 21.469-3.117 12.113 8.34 24.267 20.62 22.15 11.442-1.303 23.609-6.565 30.162-16.338 7.932-2.494 13.94-9.037 19.53-14.374 15.06.004 22.848-16.358 25.127-29.168 2.98-10.913-3.837-24.232-15.934-24.794-.594.146-1.229-.405-1.817-.195zm1.656 13.563c6.675 4.511 1.917 14.216-.73 20.083-2.553 6.482-1.415-5.737-5.876-6.72-5.87-1.232-3.05-5.42-.82-9.02 1.625-2.422 4.138-5.356 7.426-4.343zM51.187 47.25c-1.895 3.13-1.191-2 0 0zm5.938 9.094c3.174 4.545 2.751 7.74-2.313 10.75-3.308-4.136-3.674-8.255 1.813-10.875.213-.108.655-.823.5.125zM34 73.469c1.053 5.023 4.448 8.413-2.883 9.586-4.704 2.432-14.928 5.078-15.68-2.618 2.704-7.345 11.7-10.316 18.782-11.78L34 73.468z"/><path d="M36.83 56.96c-7.086.028-13.895 2.685-20.047 6.012-5.482 3.081-10.713 7.67-12.402 13.953-1.443 5.547.707 11.664 4.748 15.59 4.241 3.964 10.492 4.744 16.033 3.906 6.448-1.021 12.604-3.608 18.113-7.069 4.95-3.2 9.421-7.923 10.435-13.93.78-5.109-.336-9.295-4.005-12.887-2.436 2.696-4.334 4.79-4.65 7.432-.166 1.438.31 2.59-.204 4.184-.731 3.744-4.357 6.072-7.411 7.987-4.576 2.622-9.58 4.805-14.88 5.311-3.025.277-6.642-.406-8.285-3.252-1.533-2.35-1.216-5.526.475-7.706 3.105-4.173 8.007-6.45 12.718-8.326 2.868-1.073 5.075-1.912 8.158-1.94a26.485 26.485 0 013.827-8.933c-1.189-.204-1.416-.325-2.622-.333z" fill="url(#b)"/><path d="M66.887 39.968c-4.89.17-9.662 1.84-13.672 4.63a49.96 49.96 0 00-5.64 4.554l.324 2.69 3.571-3.408-1.136 5.032 3.734-2.273-1.137 4.383 2.48-1.136a68.761 68.761 0 012.33-2.033c1.829-1.455 3.883-2.859 6.115-3.738 1.469-.549 3.352-.472 4.395.844 1.637 1.279.48 2.44.86 3.804 1.576 2.346 4.747 2.898 7.452 1.799 1.028-3.192 1.354-4.931.547-8.24-1.17-3.86-4.937-6.894-9.025-6.908a15.507 15.507 0 00-1.198 0zm-23.05 13.1a47.982 47.982 0 00-3.681 4.858c-.7 1.354-1.83 3.03-2.463 4.63a24.313 24.313 0 00-1.814 10.925c.238 2.886.874 5.043 3.489 6.415 2.205-1.798 4.863-3.68 4.656-6.687-1.165-1.461-.37-3.391.482-4.886 1.598-3.184 3.627-6.11 5.938-8.802l-1.57.6.324-3.733-3.896 2.11 1.46-4.545-3.733 4.545 1.299-4.707s-.352-.511-.491-.723zm18.073 9.433c-2.859 3.222-3.74 4.985-7.23 7.513.873 3.45.189 7.057-1.466 10.187 7.218-2.37 11.537-6.33 16.456-11.956.964-.893 1.376-1.596-.186-1.672-2.616-.775-5.695-2.07-7.574-4.072z" fill="url(#c)"/><path d="M80.322 15.685c-5.888-.125-11.078 3.667-14.468 8.21-3.792 5.123-6.792 11.16-8.245 17.338 2.355-1.579 8.37-2.565 10.871-2.247 1.685-4.59 3.677-9.366 7.645-12.438 2.344-1.937 5.927-2.023 8.314-.127 2.888 2.249 3.047 6.35 2.592 9.682-.792 4.952-2.611 9.737-5.133 14.063-1.835 2.953-4.473 6.12-8.188 6.426-3.093.216-5.988-1.642-6.664-4.668-.652-.882-.026-2.799-.907-2.839-1.288-.379-4.53 1.277-7.53 3.682.45 5.042 2.1 8.388 6.601 10.851 4.484 2.585 10.272 3.192 14.954.737 5.521-2.737 9.22-8.066 11.786-13.5 3.003-6.652 5.33-14.055 4.183-21.423-.678-4.679-3.366-9.146-7.595-11.415-2.505-1.394-5.337-2.285-8.216-2.332z" fill="url(#d)"/></g><metadata/></svg>