<?xml version="1.0" encoding="UTF-8"?>
<svg width="128" height="128" version="1.0" xmlns="http://www.w3.org/2000/svg" xmlns:xlink="http://www.w3.org/1999/xlink">
 <defs>
  <radialGradient id="b" cx="85.404" cy="76.405" r="41.042" gradientTransform="matrix(-1.3602 .34954 -.20375 -.79287 209.99 108.26)" gradientUnits="userSpaceOnUse" xlink:href="#a"/>
  <radialGradient id="c" cx="114.13" cy="55.536" r="7.424" gradientTransform="matrix(1.2694 0 0 .82877 -36.54 .16)" gradientUnits="userSpaceOnUse" xlink:href="#a"/>
  <radialGradient id="d" cx="123.64" cy="70.862" r="6.173" gradientTransform="matrix(1.2694 0 0 .70654 -36.54 16.464)" gradientUnits="userSpaceOnUse" xlink:href="#a"/>
  <radialGradient id="e" cx="120.69" cy="86.041" r="6.292" gradientTransform="matrix(1.2694 0 0 .78324 -36.54 17.785)" gradientUnits="userSpaceOnUse" xlink:href="#a"/>
  <radialGradient id="f" cx="45.475" cy="102.62" r="5.619" gradientTransform="matrix(1.2694 0 0 1.4645 -30.403 -49.114)" gradientUnits="userSpaceOnUse" xlink:href="#a"/>
  <radialGradient id="g" cx="58.165" cy="112.21" r="4.393" gradientTransform="matrix(1.2694 0 0 2.0713 -30.403 -117.92)" gradientUnits="userSpaceOnUse" xlink:href="#a"/>
  <linearGradient id="a">
   <stop stop-color="#1700f2" offset="0"/>
   <stop stop-color="#1200c1" offset="1"/>
  </linearGradient>
 </defs>
 <path d="M64.118 29.48c-8.532-.002-16.439 4.499-22.767 10.192-6.884 6.001-14.732 11.865-19.167 19.989C17.595 68.986 9.452 82.767 2.65 90.73c9.99 3.235 21.4 1.762 32.168 3.218 10.902 1.726 21.996 2.988 33.04 2.68 9.272-.777 23.498-.578 31.563-5.04 2.4-2.116 4.204-4.882 5.526-7.78 1.342-3.637 2.27-7.586 1.755-11.477-.864-4.268-1.622-8.755-4.675-11.858-4.262-3.867-9.556-8.346-14.747-10.842-.76-.333-1.578-.6-2.427-.806.79-1.993.852-4.215.702-6.332-1.409-7.88-9.682-10.927-16.636-12.53a23.97 23.97 0 00-4.801-.485z" fill="url(#b)"/>
 <path d="M64.118 29.48c-8.532-.002-16.439 4.499-22.767 10.192-6.884 6.001-14.732 11.865-19.167 19.989C17.595 68.986 9.452 82.767 2.65 90.73c9.99 3.235 21.4 1.762 32.168 3.218 10.902 1.726 21.996 2.988 33.04 2.68 9.272-.777 23.498-.578 31.563-5.04 2.4-2.116 4.204-4.882 5.526-7.78 1.342-3.637 2.27-7.586 1.755-11.477-.864-4.268-1.622-8.755-4.675-11.858-4.262-3.867-9.556-8.346-14.747-10.842-.76-.333-1.578-.6-2.427-.806.79-1.993.852-4.215.702-6.332-1.409-7.88-9.682-10.927-16.636-12.53a23.97 23.97 0 00-4.801-.485zm.403 2.232c1.02.01 2.04.089 3.069.246 6.117 1.449 15.264 3.983 15.71 11.567a11.605 11.605 0 01-.769 4.89c-2.585-.316-5.325-.221-7.773.082-4.214 1.044-8.593 2.312-12.23 4.75v.686c-.002.08-.011.15-.023.217.116-.126.265-.272.47-.448 2.624-1.64 6.168-1.523 9.147-2.375 15.004-3.554 19.704 4.717 26.919 10.693 3.132 3.215 5.372 7.492 5.742 12 .056 3.43-.689 6.917-2.188 10.005-4.947 8.268-8.758 7.846-17.771 9.102-25.667 1.876-52.392-.226-77.783-2.994 3.566-5.072 11.561-18.579 16.927-28.807 4.354-9.302 13.816-15.084 21.139-21.826 5.451-4.509 12.274-7.863 19.414-7.788zM62.505 54.15c-.618.67-.115.638 0 0z"/>
 <path d="M102.127 39.146l-6.28 3.353-.112.306c-.114 1.624 1.077 2.706 2.427 3.397 1.39.747 2.713 1.607 4.07 2.412 3.136 1.897 7.479 3.033 10.804.896 2.521-2.437 1.583-6.647-.224-9.214-3.104-2.564-7.071-2.173-10.685-1.15z" fill="url(#c)"/>
 <path d="M102.127 39.146l-6.28 3.353-.112.306c-.114 1.624 1.077 2.706 2.427 3.397 1.39.747 2.713 1.607 4.07 2.412 3.136 1.897 7.479 3.033 10.804.896 2.521-2.437 1.583-6.647-.224-9.214-3.104-2.564-7.071-2.173-10.685-1.15zm10.51 3.965c.232 1.498.202 4.307-.944 5.522-2.628 1.34-6.032.45-8.387-.925-1.479-.984-4.65-3.332-6.13-4.308.85-1.537 4.039-2.156 5.63-2.659 2.735-.797 8.448-1.007 9.83 2.37z"/>
 <path d="M109.22 65.235l.423.765c3.953 2.527 8.324 6.083 13.145 4.5.439-.29.905-.556 1.269-.941.423-.635.76-1.261.821-2.046.131-1.766-.774-2.998-2.06-4.077-2.789-2.174-12.579-1.532-13.598 1.8z" fill="url(#d)"/>
 <path d="M109.22 65.235l.423.765c3.953 2.527 8.324 6.083 13.145 4.5.439-.29.905-.556 1.269-.941.423-.635.76-1.261.821-2.046.131-1.766-.774-2.998-2.06-4.077-2.789-2.174-12.579-1.532-13.598 1.8zm12.434-1.058c1.026.74 1.676 3.421 1.061 4.594-2.7 1.696-6.074.479-8.552-.984-.564-.413-2.818-1.943-3.413-2.306 3.032-1.22 7.878-2.816 10.904-1.304z"/>
 <path d="M109.1 79.845c-1.275.307-2.56.91-3.748 1.48l-.022 1.048c.815.29 1.738 1.808 2.554 2.097 3.506 1.94 6.257 4.616 10.26 4.63 1.78-.03 2.95-1.064 3.158-2.823.04-1.853-.774-3.566-1.994-4.928-2.623-2.88-6.537-2.185-10.207-1.504z" fill="url(#e)"/>
 <path d="M109.1 79.845c-1.275.307-2.56.91-3.748 1.48l-.022 1.048c.815.29 1.738 1.808 2.554 2.097 3.506 1.94 6.257 4.616 10.26 4.63 1.78-.03 2.95-1.064 3.158-2.823.04-1.853-.774-3.566-1.994-4.928-2.623-2.88-6.537-2.185-10.207-1.504zm10.136 3.61c.284.673-.046 3.74-.428 4.358-3.673-.05-6.626-2.976-10.028-4.323-.492-.166-1.079-1.505-1.568-1.678 5.014-1.79 8.824-2.689 12.024 1.644z"/>
 <path d="M35.498 89.673c-7.54 1.258-13.395 6.115-12.942 13.162.17.895.72 1.734 1.501 2.21 1.581.887 3.56 1.125 5.265.456 1.645-.615 2.853-2.024 3.658-3.54.884-1.744 1.474-3.615 2.046-5.48.136-1.922 2.677-4.851 1.426-6.623-.658-.565-.08-.518-.954-.185z" fill="url(#f)"/>
 <path d="M35.498 89.673c-7.54 1.258-13.395 6.115-12.942 13.162.17.895.72 1.734 1.501 2.21 1.581.887 3.56 1.125 5.265.456 1.645-.615 2.853-2.024 3.658-3.54.884-1.744 1.474-3.615 2.046-5.48.136-1.922 2.677-4.851 1.426-6.623-.658-.565-.08-.518-.954-.185zm-1.136 1.551c-.836 4.73-.19 7.662-3.232 11.418-2.902 3.03-5.133 2.594-7.112-.764.586-6.847 4.58-9.54 10.344-10.654z"/>
 <path d="M45.04 101.221c-.679.079-1.785 1.92-2.711 2.488-3.403 2.837-5.073 7.404-4.279 11.813.778 1.872 2.698 3.08 4.54 3.748 4.081.857 6.11-2.143 6.31-5.936.21-4.738.55-9.399-3.86-12.113z" fill="url(#g)"/>
 <path d="M45.04 101.221c-.679.079-1.785 1.92-2.711 2.488-3.403 2.837-5.073 7.404-4.279 11.813.778 1.872 2.698 3.08 4.54 3.748 4.081.857 6.11-2.143 6.31-5.936.21-4.738.55-9.399-3.86-12.113zm.724 2.548c.277 2.88 2.25 6.199 2.083 9.117-1.233 8.02-9.268 3.878-8.385-1.187.296-1.328 5.095-10.377 6.302-7.93zM62.65 37.526c-.934 1.28-2.927 1.526-4.094 2.585-.255-.411-1.903-1.43-2.026-1.862l-1.074.584c.18 1.026.694 1.903 1.278 2.749-1.155.889-2.353 1.724-3.548 2.556-.188-.452-2.119-1.486-2.264-1.958l-.612 1.191c.285.726.614 1.418.959 2.11a98.671 98.671 0 00-5.785 4.474c-.347-.546-2.26-2.031-2.417-2.406l-.94.585c.239 1.28.926 2.402 1.567 3.515-1.38 1.412-2.658 2.93-3.931 4.443-.276-.419-2.131-1.495-2.225-1.595l-.94.668c.226 1.087.927 1.96 1.567 2.844-1.728 2.077-3.366 4.232-4.986 6.393-.846-1.033-1.578-2.16-2.365-3.228l-1.408 1.084c.726 1.944 1.046 2.437 2.303 4.061-1.015 1.332-1.91 2.748-2.813 4.155-.237-.363-1.802-1.904-2.006-2.287l-1.675.757c.029.423 1.931 3.278 2.307 3.767-.671 1.134-.63 3.727-1.918 3.452l-2.432-.52c-1.645 1.23.155.66-.801.822.256.307 1.768 1.78 2.05 2.063-.326.69-.895 2.55-1.209 3.246l-2.178-.72c.086.691-.773.917-.363 1.44.882-.1 1.376.9 1.481.988-.417.905-.83 1.83-1.214 2.749l.652.676c.274-.737 2.125-1.224 2.416-1.955.16.162 1.312.982 1.47 1.14l.703-2.386c-.354-.361-.853-.124-1.19-.503-.084-.706.76-2.363 1.095-3.109.588.483 2.76.943 3.222 1.527l.261-1.207c-.61-1.034-1.538-1.829-2.397-2.653.565-1.1 1.197-2.162 1.822-3.228.588.727 2.87 1.359 3.535 2.014l.109-1.726a33.616 33.616 0 01-2.334-2.493 73.297 73.297 0 012.877-4.315c.697.793 1.459 1.524 2.205 2.27l1.424-.192c-.87-.815-1.378-3.156-2.19-4.027 1.585-2.146 3.187-4.274 4.89-6.329.591.798 1.995 2.127 2.668 2.854l1.308-.828c-.768-.76-1.769-3.036-2.443-3.88 1.27-1.49 2.554-2.955 3.931-4.346.747.985 1.487 1.97 2.206 2.972l1.21-.706c-.775-1.138-.813-2.873-1.658-3.96 1.822-1.538 3.667-3.037 5.593-4.443.72 1.38 1.631 2.027 2.48 3.328l1.25-.83c-.94-1.273-1.136-2.397-1.908-3.776 1.302-.9 2.596-1.804 3.867-2.749.62.861 1.237 1.728 1.854 2.59l1.154-.509c-.65-.866-.613-2.584-1.218-3.487 1.377-1.052 2.618-2.256 3.803-3.516l-.955-.923zM90.076 65.003c-.136-.129-1.915-1.127-2.086-1.049l-1.117.512c.227.98 1.337 1.875 2.06 2.51-.888 1.178-2.051 2.1-3.083 3.147-.503-.461-2.082-1.287-2.424-1.873l-.744 1.25c-.086.047.779 1.637 1.474 2.253-1.711 1.505-3.6 2.798-5.56 3.963-.234-.62-2.056-3.052-1.85-2.153l-1.443.203c.245 1.088.787 2.09 1.247 3.1-2.283 1.315-4.707 2.344-7.16 3.292-.412-.856-1.575-1.807-1.93-2.688l-1.713.067c.268 1.224.87 2.332 1.406 3.452-2.18.752-4.389 1.414-6.616 2.014-.479-1.012-1.967-1.994-2.512-2.973h-1.579c.448 1.24 1.096 2.405 1.694 3.58-1.516.364-3.043 1.49-4.57 1.802l-.03.917c1.725-.399 3.975-.322 5.687-.77.739 1.15 1.416 2.338 2.11 3.516l1.504-.837c-.574-.966-.619-2.398-1.217-3.35 2.216-.554 4.368-1.317 6.52-2.077.535.942 1.13 1.845 1.726 2.749l1.476-.901c-.513-.695-.48-1.913-.933-2.647 2.49-.894 4.842-2.095 7.16-3.356.953 1.497 2.077 2.903 3.227 4.25l1.253-.79c-1.083-1.197-1.647-3.208-2.5-4.579 2.185-1.285 4.29-2.715 6.201-4.378.778.67 2.305 1.952 3.109 2.59l1.065-.907c-.72-.566-1.78-2.69-2.48-3.281 1.077-1.088 2.007-2.307 2.94-3.516.801.511 1.413 1.212 2.014 1.918l1.438-.67c-.655-1.043-1.081-2.49-2.045-3.23.653-.89.915-2.172 1.086-3.355l-.574-.192c-.06-.264-1.956 1.906-2.23 2.487z"/>
</svg>
