<?xml version="1.0" encoding="UTF-8"?>
<svg width="128" height="128" xmlns="http://www.w3.org/2000/svg" xmlns:xlink="http://www.w3.org/1999/xlink">
 <defs>
  <linearGradient id="c" x1="123.55" x2="137.58" y1="97" y2="109.64" gradientTransform="scale(.97811 1.0224)" gradientUnits="userSpaceOnUse">
   <stop stop-color="#c57e4f" offset="0"/>
   <stop stop-color="#91371a" offset="1"/>
  </linearGradient>
  <linearGradient id="d" x1="163.94" x2="194.71" y1="38.637" y2="81.277" gradientTransform="scale(.9771 1.0234)" gradientUnits="userSpaceOnUse">
   <stop stop-color="#d5cb4f" offset="0"/>
   <stop stop-color="#cda81f" offset="1"/>
  </linearGradient>
 </defs>
 <g fill-rule="evenodd">
  <path transform="scale(1.2259 -1.2259) rotate(-85.22 31.06 66.11)" d="m105.22 117.73c0 0.34 7.725-10.223 9.9-11.976 2.87-3.486 10.212-9.568 13.198-11.977 4.283-3.454 8.679-9.816 11.55-11.311 2.914-0.638 5.452 1.915 4.814 4.867-1.83 1.276-5.856 4.338-10.48 8.622-5.627 5.104-16.252 19.492-17.433 20.444-1.714 1.383-5.195 7.32-6.6 7.32-3.484 0-4.949-3.295-4.949-5.989z" fill="url(#c)"/>
  <path transform="scale(1.2259 -1.2259) rotate(-85.22 31.06 66.11)" d="M168.813 29.219c-4.882 7.34-13.468 17.426-15.75 18.562-12.344 10.088-12.134 18.168-8.157 23.094-5.723 4.314-7.375 7.931-7.375 11.813 1.575 1.913 3.017 6.593 8.813 6.593 3.098 0 9.8-5.021 10.781-9.062 1.645.497 3.415.925 5.344 1.281 7.014-.264 11.706-6.377 15.804-10.695 8.013-6.809 13.487-18.01 16.602-28.368-.776-.546-2.895-2.077-1.75-3.406-1.802-1.118-7.487-1.839-6.688-3.718-2.19-1.235-7.32-.184-5.968-2.657-2.436-1.21-8.713-.465-4.688-2.75-2.288-1.022-5.22-.018-6.969-.687z" fill="url(#d)"/>
  <path d="M5.463 90.987c7.078-5.77 13.817-11.999 19.75-18.95 2.076-3.052 4.114-6.172 6.679-8.863 4.36-4.76 10.365-9.19 17.17-8.432 2.218.198 4.198 1.198 6.042 2.378 4.89-7.952 9.521-10.599 14.57-11.021l.306-.026.207.175c.134.093.482.274.646.37 1.685-2.155 3.603-4.173 5.4-6.219 2.825-2.86 5.229-6.078 7.438-9.425 3.54-5.046 7.17-10.062 11.392-14.56 3.791-4.36 8.263-8.067 12.448-12.036 1.08-1.35 1.46-1.048 2.554-1.175 3.38-.067 7.032 2.145 7.437 5.721.217 2.271-2.162 3.597-3.537 5.063-2.02 1.8-4.055 3.593-5.75 5.709-7.257 6.969-14.87 13.638-21.439 21.282-3.077 3.789-5.877 7.827-8.494 11.974.57 1.121 1.08 2.336 1.213 3.935.207 2.472-1.399 5.944-3.624 9.068-2.065 2.9-4.703 5.394-7.455 6.005.241.635 2.876 5.79 2.423 8.223-.434 6.149-5.04 11.79-9.078 16.09-1.226 1.482-2.063 1.92-3.335 2.518-.485 1.388-2.95 4.775-4.406 6.05-8.452 7.666-18.458 13.55-29.037 17.765-.966-.99-2.644-3.532-3.993-1.78-1.073.08-1.73-2.581-2.301-3.613-.798-1.236-1.23-4.969-3.192-4.154-1.231-1.103-1.553-3.32-1.878-4.994.062-2.054-1.066-2.56-2.218-2.16-1.379-2.055-1.458-4.606-2.23-6.887-.619.327-.932 3.284-1.513 1.665-1.897-2.706-1.009-6.168-1.956-9.14l-.239-.556zm1.807.464c.84 1.64-.06 5.824 1.459 5.951 1.808-1.715 3.617-4.09 5.788-5.712 5.992-4.485 11.135-7.297 16.434-14.483 1.33-1.103 3.5-4.712 6.144-6.972-2.149 5.685-6.925 9.753-11.264 13.782-4.776 4.391-10.133 8.186-14.563 12.942-1.456 1.87.546 4.44.822 6.62 1.733 1.746 2.864-2.916 4.803-3.707 6.682-6.091 12.28-6.952 17.592-14.426 1.228-.95 2.785-4.054 5.31-5.903-2.544 6.025-8.434 10.864-13.321 14.915-4.06 3.394-8.227 5.496-11.489 9.725-.933 1.05-1.007.418-.254 2.02.663 1.852.597 6.995 3.377 4.062 8.43-5.878 13.404-7.203 20.448-14.742 1.159-1.018 4.937-4.431 6.912-6.536-4.765 6.453-11.269 11.326-17.56 16.191a198.425 198.425 0 01-10.019 7.066c1.463 1.94 2.07 4.36 3.27 6.454 9.214-7.058 11.333-8.71 21.033-15.098.9-1.472 9.986-6.41 9.339-5.087-8.425 5.24-16.236 11.39-24.151 17.358-1.097 1.468-5.804 2.787-2.728 4.15 1.428 1.58 3.839-1.012 5.65-1.396 10.103-4.907 19.781-11.139 27.226-19.652.265-.359.551-.422.831-.772-2.377-.96-5.922-5.474-7.03-6.706-4.993-6.942-5.36-9.625-8.907-17.323-.29-.5-2.28-4.425-2.674-4.85 2.902 2.707 3.463 4.333 4.825 6.208 3.191 7.536 8.27 16.169 13.934 22.284 3.527-4.375 7.979-8.25 9.648-13.8.845-2.807 1.785-5.918.603-8.661-.32-1.093-2.236-5.66-2.659-6.736-.87.029-4.445-6.877-11.618-10.215-.005-.004.002-.034-.003-.038-.982-.706-1.999-1.31-3.21-1.615-5.602-1.897-11.426 1.043-15.514 4.795-3.64 3.235-6.555 7.196-9.169 11.262-5.76 6.853-12.41 12.964-19.315 18.645zm49.136-33.479c.346.25 9.28 7.603 11.427 12.538 2.051-.353 4.744-2.601 6.772-5.449 2.097-2.944 3.496-6.46 3.363-8.046-.085-1.019-.43-1.706-.707-2.478-.283.466-1.474-2.376-3.386-3.715-.053-.419-4.166-3.082-4.26-3.142-4.566.432-8.54 2.659-13.21 10.292zm14.707-9.84c1.682.859 3.798 2.104 5.426 4.197.393-.658 1.587-2.161 2.038-2.746 3.784-5.609 7.85-11.059 12.711-15.786 5.28-5.386 10.94-10.395 16.294-15.701 2.375-3.14 5.947-5.141 8.3-8.306.368-1.749-1.008-3.538-2.549-4.285-1.52-.594-3.842-1.563-4.947.145-4.378 4.09-8.988 7.986-12.865 12.57-5.356 5.744-9.598 12.38-14.196 18.717-2.825 3.67-7.333 7.578-10.212 11.194z"/>
 </g>
</svg>
