<svg width="400pt" height="400pt" xmlns="http://www.w3.org/2000/svg"><path d="M131.11 14.053C191.007 77.336 256 158.175 347.698 46.198c-18.61 95.566-.273 141.141 75.869 127.43-69.673 64.02 16.49 82.55 23.623 105.17-76.992 9.153-149.423-21.71-83.548 132.232-50.439-147.364-93.296-41.151-114.314-15.142-9.333-10.969-63.126-78.644-151.133-50.409 72.03-102.175 3.512-106.195-42.63-132.848 61.555-15.73 100.393-14.566 75.545-198.578z" fill="#ffffc5" fill-rule="evenodd" stroke="#ffff97" stroke-width="10.309" stroke-linejoin="round"/><path d="M140.373 329.228c21.132-47.217-30.775-96.182-8.98-151.415 28.368-53.345 68.541-93.333 153.173-62.644 77.956 39.823 86.773 86.023 61.864 152.838-33.926 68.489-105.193 45.363-118.417 97.81-9.234 17.262-92.421-21.11-87.64-36.59z" fill="#c1ffff" fill-opacity=".8" fill-rule="evenodd" stroke="#007dff" stroke-width="10" stroke-linejoin="round"/><path d="M134.358 323.886c10.91-1.786 98.105 33.69 102.45 42.928-8.569 9.246-97.097-23.112-102.45-42.928z" fill="#4c4c4c" fill-rule="evenodd" stroke="#000" stroke-width="5" stroke-linejoin="round"/><path d="M161.658 346.264c49.199-86.357 14.536-151.501 6.318-176.774M205.326 364.955c14.43-30.536 61.813-138.065 124.512-138.423M184.314 360.04c5.57-24.13 22.351-114.164 65.836-136.343" fill="none" stroke="#000" stroke-width="5" stroke-linejoin="round"/><path d="M134.804 325c14.483 20.033 79.746 46.413 102.005 41.814-12.791 27.73-37.712 68.714-48.394 80.742-7.123 8.02-76.946-22.787-78.844-35.59.44-11.802 16.67-64.806 25.233-86.967z" fill="#949999" fill-rule="evenodd" stroke="#000" stroke-width="5" stroke-linejoin="round"/><path d="M113.692 417.42c-.372 11.645.487 16.103 2.375 22.467 7.621 10.206 30.69 20.957 47.736 19.92 5.655-2.44 13.334-11.76 13.585-12.347-12.656-.6-53.22-17.992-63.696-30.04z" fill="#4c4c4c" fill-rule="evenodd" stroke="#000" stroke-width="5" stroke-linejoin="round"/><path d="M124.069 447.049c-7.565 13.364 21.39 27.602 26.17 12.124-11.58-3.112-19.821-7.562-26.17-12.124zM112.461 403.058c25.39 11.789 84.04 24.202 91.308 21.556 6.224.023 6.945-4.182 3.088-4.085-12.138 1.163-77.137-14.696-94.398-23.928-3.98-1.705-6.518 4.811.002 6.457zM114.184 388.417c25.39 11.789 92.183 28.038 97.637 23.916 6.898-.737 8.168-5.407 2.455-5.055-12.138 1.163-80.64-15.496-97.9-24.728-4.57-1.957-6.77 5.403-2.192 5.867zM118.734 375.336c25.39 11.789 95.263 26.56 101.477 23.113 6.771-.44 6.48-4.73 2.032-4.886-12.138 1.164-84.647-15.115-101.908-24.347-4.106-1.41-7.615 3.294-1.6 6.12zM121.682 361.92c25.39 11.788 99.187 29.636 104.641 25.515 7.11.402 7.198-4.773 2.75-4.93-12.139 1.164-88.445-16.04-105.706-25.272-3.98-1.704-6.94 2.535-1.685 4.686zM126.148 349.85c25.39 11.79 102.266 28.16 107.72 24.038 4.916-.186 6.355-4.435 1.907-4.59-12.139 1.163-90.976-15.028-108.236-24.26-3.263-1.746-6.9 3.251-1.391 4.813zM130.276 336.939c25.39 11.789 36.868 15.196 41.479 13.858-2.517-1.601-11.872-5.945-16.195-8.843.012-.276-16.719-5.61-23.388-11.008-4.106-1.41-6.096 4.643-1.896 5.993zM111.075 416.095c25.39 11.789 82.69 25.721 88.144 21.6 3.143-.945 3.359-3.97.302-4.929-12.138 1.164-72.453-13.39-89.714-22.62-4.147.32-4.282 3.67 1.268 5.95zM156.609 441.176c12.73 4.622 22.815 8.832 30 7.199 7.236.106 8.97-4.015 4.522-4.17-12.138 1.163-45.407-8.805-51.148-10.66.916.74 16.266 7.924 16.626 7.631z" fill="#b3b3b3" fill-rule="evenodd" stroke="#000" stroke-width="5" stroke-linejoin="round"/><path d="M168.139 167.52l82.01 56.177s80.017 3.656 79.197 3.984c-.82.33-162.848-59.503-161.207-60.16z" fill="none" stroke="#000" stroke-width="1.25" stroke-dasharray="1.2500003 2.5000006"/><path d="M195.808 369.72c-26.252 20.036-41.832 45.32-62.493 88.825 34.784-27.263 54.874-61.494 62.493-88.826z" fill="#fff" fill-rule="evenodd" fill-opacity=".43"/><path d="M168.385 166.946s18.116-1.88 22.523-6.594c6.965 5.035 8.058 11.34 34.405 10.88 9.696 9.24 22.71 16.265 39.48 15.271 11.264 12.993 29.082 18.051 42.916 17.077 9.545 10.17 20.405 22.215 20.405 22.215s-20.643-1.474-29.555-1.608c-6.593-4.43-20.585-6.854-33.58-6.977-6.517-6.354-21.392-15.755-31.745-14.35-12.602-8.676-17.242-16.897-25.2-14.185-5.995-6.645-39.075-21.483-39.65-21.73z" fill="#ff0" fill-rule="evenodd" fill-opacity=".422"/><path d="M168.816 167.836s7.752 15.967 7.986 19.914c7.836 1.911 13.234 6.145 19.968 12.874 9.693 3.187 16.926 6.117 23.547 17.604 11.083-.064 28.2 4.874 28.2 4.874s-10.932-13.964-13.606-25.685c-11.84-2.664-20.064-2.735-31.91-18.863-9.574-1.213-25.767-2.307-34.185-10.718zM249.504 223.042c5.57.462 9.769-8.384 13.481-12.565 13.582 5.333 15.282 9.576 26.307 8.527 4.354 3.306 9.305 7.265 16.442 4.07 4.992 4.06 23.562 3.355 23.562 3.355s-9.94 5.992-14.522 12.203c-7.836-5.277-13.063-3.75-20.372 3.216-10.043-9.106-16.634-5.678-25.628-3.758-3.31-5.743-8.824-12.499-19.27-15.048z" fill="#ff0" fill-rule="evenodd" fill-opacity=".427"/><path d="M171.304 167.882c.87.373 18.662 6.957 19.967 3.909 4.603 2.486 18.725 11.622 27.494 9.192 6.843 4.475 31.29 15.97 39.5 14.847 5.787 4.537 31.913 15.72 42.735 15.714 4.979 5.222 23.392 15.165 23.392 15.165s-15.923-3.724-21.024-3.846c-5.1-.123-19.906-10.067-33.092-10.558-5.227-5.843-18.602-13.114-33.965-14.538-6.348-6.838-20.094-13.238-34.338-13.667-3.548-6.155-31.601-14.04-30.669-16.218z" fill="#fff" fill-rule="evenodd" fill-opacity=".83"/><path d="M327.627 227.578s-7.587.874-10.82 3.613c-10.512-1.924-13.996-3.415-19.902.755-7.529-5.283-17.915-5.092-23.572-.3-7.778-5.905-22.954-7.763-22.954-7.763s9.453-1.622 13.06-5.23c5.037 2.671 19.344 4.156 23.012 1.605 3.795 3.171 18.287 4.221 20.96 2.79 2.241 1.988 17.666 4.47 20.216 4.53z" fill="#fff" fill-rule="evenodd" fill-opacity=".8"/><path d="M168.691 166.764s12.445 13.055 12.696 17.283c4.727.995 14.432 7.209 18.166 12.93 11.818 2.481 20.714 5.774 23.33 14.106 7.962 1.863 10.885 1.052 23.764 10.687-9.085-10.072-12.941-10.691-16.615-18.962-5.35-.744-18.164-5.713-18.414-9.943-4.479-.37-18.974-8.635-19.225-12.865-3.67-1.055-23.016-8.82-23.702-13.236z" fill="#fff" fill-rule="evenodd" fill-opacity=".874"/><path d="M202.377 119.355c17.783-11.451 37.81-10.092 47.89-4.748.811 6.53 4.61 16.914 5.046 20.707-20.96-2.788-28.173.823-42.227 7.173-4.918-11.38-10.957-23.754-10.709-23.132z" fill="#fff" fill-rule="evenodd" fill-opacity=".585"/><path d="M216.385 148.02c13.864-13.128 36.627-12.144 46.706-6.8.812 6.53 1.31 7.774 1.746 11.566-20.96-2.788-29.168 1.943-43.221 8.293-4.919-11.379-5.48-13.68-5.231-13.058zM173.275 129.569c9.7-4.607 17.038-9.71 27.052-9.03.812 6.53 8.53 18.592 8.966 22.384-6.654-1.302-20.212 2.685-26.618 5.61-4.918-11.379-9.648-19.586-9.4-18.964zM184.606 152.45c9.7-4.606 17.163-7.594 27.176-6.915.812 6.53 4.67 10.758 5.107 14.55-6.654-1.302-17.662 2.746-24.068 5.672-3.921-8.893-8.962-15.172-8.215-13.306z" fill="#fff" fill-rule="evenodd" fill-opacity=".585"/></svg>