<svg xmlns="http://www.w3.org/2000/svg" xmlns:xlink="http://www.w3.org/1999/xlink" height="120" width="120"><defs><linearGradient id="a"><stop offset="0" stop-color="#d3b900"/><stop offset="1" stop-color="#fdffb8"/></linearGradient><linearGradient gradientUnits="userSpaceOnUse" y2="80.057" x2="6.146" y1="115.997" x1="43.924" gradientTransform="scale(1.11793 .8945)" id="b" xlink:href="#a"/><linearGradient gradientUnits="userSpaceOnUse" y2="46.701" x2="64.276" y1="81.669" x1="73.541" gradientTransform="scale(1.01493 .9853)" id="c" xlink:href="#a"/><linearGradient gradientUnits="userSpaceOnUse" y2="14.364" x2="98.988" y1="58.78" x1="112.68" gradientTransform="scale(.88284 1.1327)" id="d" xlink:href="#a"/></defs><metadata/><g font-family="Bitstream Vera Sans" stroke-width="1pt" stroke="#000" font-weight="700" font-size="12"><path d="M41.8 62.186c-8.373.034-16.416 3.172-23.685 7.103-6.477 3.64-12.657 9.063-14.652 16.484-1.705 6.554.835 13.781 5.609 18.419 5.011 4.684 12.396 5.605 18.942 4.615 7.618-1.206 14.89-4.262 21.4-8.351 5.847-3.782 11.13-9.36 12.328-16.457.922-6.036-1.172-11.646-5.507-15.89-2.214 2.964-4.124 5.547-5.494 9.001-.195 1.7.699 3.28.091 5.165-.863 4.423-4.703 7.396-8.312 9.658-5.406 3.097-11.319 5.677-17.58 6.274-3.574.328-7.847-.48-9.788-3.842-1.811-2.777-1.436-6.529.561-9.104 3.669-4.93 9.46-7.62 15.025-9.837 3.388-1.268 6.439-2.148 10.081-2.18.853-3.785 2.705-7.453 4.854-10.665-1.404-.241-2.448-.384-3.873-.393z" fill="url(#b)"/><path d="M77.31 42.112c-5.778.2-11.416 2.173-16.153 5.47-6.067 4.208-11.366 9.576-15.428 15.746-.828 1.599-2.162 3.577-2.91 5.468a28.723 28.723 0 00-2.143 12.907c.282 3.409 1.363 6.402 4.452 8.023 2.605-2.124 5.414-4.79 5.17-8.342-1.376-1.727-.438-4.007.57-5.773 3.696-7.366 9.334-13.57 15.637-18.802 2.161-1.719 4.59-3.381 7.226-4.42 1.735-.649 3.957-.554 5.189 1.001 1.934 1.51.57 3.765 1.02 5.377 1.86 2.771 5.387 3.094 8.582 1.796 1.215-3.772 1.817-6.38.864-10.29-1.383-4.56-5.831-8.145-10.661-8.161-.471-.02-.943-.017-1.415 0zm-5.324 26.176c-3.378 3.806-5.859 6.665-9.983 9.652 1.032 4.074.11 8.227-1.845 11.925 8.528-2.8 14.959-8.586 20.77-15.233 1.138-1.054 1.63-1.882-.216-1.972-3.09-.916-6.506-2.008-8.726-4.372z" fill="url(#c)"/><path d="M93.183 13.422c-6.957-.147-13.088 4.332-17.093 9.7-4.48 6.053-8.136 14.07-9.852 21.37 2.782-1.866 9.888-3.142 12.844-2.766 1.99-5.423 4.454-11.84 9.143-15.47 2.768-2.288 7.002-2.39 9.821-.15 3.412 2.657 3.601 7.501 3.063 11.44-.936 5.85-3.085 11.502-6.065 16.613-2.167 3.49-5.284 7.231-9.673 7.592-3.654.256-7.186-2.382-7.984-5.958-.77-1.042-.03-3.306-1.072-3.353-1.52-.448-5.573 1.508-9.118 4.35.531 5.957 2.814 10.352 8.132 13.262 5.298 3.055 12.135 3.772 17.667.87 6.523-3.233 10.894-9.529 13.924-15.948 3.549-7.86 6.297-16.605 4.942-25.31-.8-5.528-3.977-10.806-8.972-13.487-2.96-1.646-6.306-2.699-9.707-2.755z" fill="url(#d)"/></g></svg>