<svg width="333.333" height="200" xmlns="http://www.w3.org/2000/svg"><metadata/><path d="M12 0h288.5c6.648 0 12 5.352 12 12v163.5c0 6.648-5.352 12-12 12H12c-6.648 0-12-5.352-12-12V12C0 5.352 5.352 0 12 0z" fill="#fff" fill-opacity=".298"/><path d="M0 0h312.5v187.5H0V0z" fill="red"/><path d="M71.061 9.944c-1.447-.004-2.9.064-4.355.215-27.782 1.063-50.124 30.3-43.913 57.41 4.62 25.59 32.514 44.174 57.912 37.787 24.73-5.341 42.693-32.167 36.662-57.051-4.307-21.257-24.602-38.3-46.306-38.361zm-.885 8.16c24.06-.709 44.875 24.104 39.485 47.694-4.027 21.608-27.79 37.444-49.249 31.325-19.987-4.997-34.638-26.812-29.626-47.215 3.786-17.696 20.995-32.245 39.39-31.804zm-1.771 7.06a32.183 32.183 0 00-3.9.335C53.595 27.346 44.711 35.708 40.55 45.816h10.385c1.907-3.315 4.578-6.172 8.137-7.97 3.38-2.039 7.252-2.905 11.152-3.158 16.023-.264 28.782 20.57 18.737 34.006-6.926 12.34-26.42 14.57-35.417 3.302-.71-.714-1.22-1.547-1.795-2.345H40.478c.424.923.87 1.838 1.412 2.728 8.946 16.965 34.974 22.927 48.986 8.735 13.494-11.032 14.788-33.631 2.25-45.923-6.313-6.693-15.57-10.272-24.721-10.027z" fill="#ff0"/></svg>