<svg xmlns="http://www.w3.org/2000/svg" xmlns:xlink="http://www.w3.org/1999/xlink" width="128" height="128" version="1.0"><defs><linearGradient xlink:href="#b" id="p" gradientTransform="matrix(.43078 0 0 .61301 104.014 -41.587)" x1="-6.786" y1="601.74" x2="-304.274" y2="763.885" gradientUnits="userSpaceOnUse"/><linearGradient id="e"><stop offset="0" stop-color="#fff"/><stop offset="1" stop-color="#fff" stop-opacity="0"/></linearGradient><linearGradient id="d"><stop offset="0" stop-color="#c5ad48"/><stop offset="1"/></linearGradient><linearGradient id="c"><stop offset="0" stop-color="#ffe348"/><stop offset="1" stop-color="#fff"/></linearGradient><linearGradient id="b"><stop offset="0" stop-color="#ffc348"/><stop offset="1" stop-color="#fff"/></linearGradient><linearGradient xlink:href="#a" id="g" gradientTransform="matrix(.52763 0 0 .72139 97.483 -91.884)" x1="624.474" y1="377.985" x2="226.333" y2="565.073" gradientUnits="userSpaceOnUse"/><linearGradient xlink:href="#b" id="m" gradientTransform="matrix(.64338 0 0 .5916 97.483 -91.884)" x1="109.67" y1="291.048" x2="6.342" y2="342.665" gradientUnits="userSpaceOnUse"/><linearGradient xlink:href="#b" id="l" gradientTransform="matrix(.5658 0 0 .67272 97.483 -91.884)" x1="35.75" y1="282.37" x2="-45.702" y2="346.079" gradientUnits="userSpaceOnUse"/><linearGradient xlink:href="#b" id="o" gradientTransform="matrix(.46933 0 0 .70246 113.584 -80.682)" x1="-121.144" y1="371.365" x2="-288.692" y2="411.258" gradientUnits="userSpaceOnUse"/><linearGradient id="a"><stop offset="0" stop-color="#c59e48"/><stop offset="1"/></linearGradient><linearGradient xlink:href="#c" id="n" gradientTransform="matrix(.6372 0 0 .41443 104.014 -41.587)" x1="-37.404" y1="818.897" x2="-109.484" y2="881.575" gradientUnits="userSpaceOnUse"/><linearGradient xlink:href="#c" id="k" gradientTransform="matrix(.36184 0 0 .91113 113.584 -80.682)" x1="-106.961" y1="272.07" x2="-271.813" y2="314.96" gradientUnits="userSpaceOnUse"/><linearGradient xlink:href="#b" id="j" gradientUnits="userSpaceOnUse" gradientTransform="matrix(.45904 0 0 .82917 97.483 -91.884)" x1="404.47" y1="446.088" x2="-423.537" y2="442.879"/><linearGradient xlink:href="#c" id="i" gradientUnits="userSpaceOnUse" gradientTransform="matrix(.4736 0 0 .80367 97.483 -91.884)" x1="533.638" y1="371" x2="243.17" y2="525.706"/><linearGradient xlink:href="#d" id="h" gradientUnits="userSpaceOnUse" gradientTransform="matrix(.41314 0 0 .9213 97.483 -91.884)" x1="202.3" y1="534.521" x2="992.479" y2="138.237"/><linearGradient xlink:href="#e" id="q" gradientTransform="matrix(.31183 0 0 1.75029 -3.907 -15.388)" x1="141.621" y1="164.663" x2="181.701" y2="147.613" gradientUnits="userSpaceOnUse"/><linearGradient xlink:href="#e" id="r" gradientTransform="matrix(.75622 0 0 .72172 -3.907 -15.388)" x1="84.156" y1="203.345" x2="121.999" y2="225.513" gradientUnits="userSpaceOnUse"/><filter id="f"><feGaussianBlur stdDeviation=".942"/></filter></defs><metadata/><g fill-rule="evenodd"><path d="M65.219 1.313l-.563.187h-.031l-.063.063-5.656 2.062.063.031-21.625 20.625.312.875-9.406 8.907.031.968-11.187 9.313-.157-.782-3.125-.874-2.28 1.343-.126-.031-7.375 5.969L2.5 53.875l6.625 13.438 3.594-1.094 1.562 17.687-2.969.531-2.156 2.532-1.687 2.719 4.812 23.75 1.5 1.562 11.281-.781.125-.156 3.844-2.282 1.688-3.344.031-6.874-1.656-1.438-2.063.063L25 102.344h-.094l-1.156 1.562-.25 1.281-4.313.313-2.312-2-1.063-6.688 8.282-1.687.968-1.375v-.063l2.282-3.25L25.937 83l-2.062-.844-4.125.75-3.25-17.812 1.375-.406v-.032l.156-.031-.031-.156 2.094-3.281-2.375-13.313 10.75-8.281v.375l-.032.093h.032l.031.782 12.5-5.75.219.625-.188.312.25-.093.094.28 11.813-4.874 6.437 24.406 18.813 71.656.156-.031.031.125 4.5-.656.031-.188-8.125-23.406-.562-1.906 11.312 6.75-2.625 18.562.031.156 1.25-.593.063-.25-.563-.188.688-.344 1.25-5.5-.813 5.282-.437.219-.125.53.406.126-.156 1.062 2.25-.469.125-.53 14.688-6.594 1.718 1.593-2.062 5.25h3.5l.937-3.062 4.219 3.937 1.344-.344.031.063 1.188-.125.156.313 3.531.187-.094-.219 1.156.063-.562-1.25-1.156-1.438-.156-1.437-.876-1.906.72.437.156 1.469 1.312 2.875.688.875-.407-4.156 6.375 3.843 3.969.188-.313-6.563-1.5 5.031-8.874-6.28-.626-6.47 11-6.437-.156-2.281-11.125 5.469-1.344-14.094 12.407 5.875.406-1.125-.219-.125-12.812-7.125-.125-1.219 12.5 7.656.437.688.219-2.281.031.03v-.374l.094-1-.094-.156v-.344L76.97 16.063l.187-.188.938-10.688-12.875-3.875zm-2.25 1.562l-.563.438-.5-.032 1.063-.406zm1.937.344l.188.312-.313-.031.125-.281zm-.406 1l1.156.125.781 1.187-2.093-.875.156-.437zm2.563.312l1.406.157 3.75 3.25-3.688-1.532-1.469-1.875zm3.374.563l4.844 1.062-1.875 1.375-2.969-2.437zM61.5 6.812l.313.125-.094.282-.219-.407zm1.719.657l6.062 2.343.531.782-1.156 4.5-3.25-.406L62.594 9l.625-1.531zm-3.594.156l1.063 2.094-1.22 3.031-2.25.594 2.407-5.719zm15.563.875l-.563 1.781-.156-1.031.719-.75zm-18.157.813l-1.875 4.562-5.031 1.313 6.906-5.876zm15.719.062l.063.031-.532 1.813.469-1.844zm.844.813l.469 1.874-.344 1.032-.688-.906.563-2zm-12 1.312l1.468 2.875-2.5-.313 1.032-2.562zm10.812 3l.438.688-.25.437-.5-.063.312-1.062zm-13.187.375L55.5 17.469l.844-2.032 2.875-.562zm-4.844.938l-1.406 3.406-2.844 1.968-2.469-4.062 6.719-1.313zm5.656.187h3.844l.688 1.344-10.126 2.593.25-.53L60.032 16zm6.032 0h2.374l-.124.375-1.813.469-.438-.844zm6.812 2.781l-2.5 2.782 1.313-2.407 1.187-.375zm2.656.875l.188 7.657-4.531-2.47 4.343-5.187zm2.406 1.032l8.407 13.156L79 27.25l-1.063-6.563zm-11.593.187l.75 1.469-.5-.032-1.406-1.062 1.156-.375zm-8.625.563l-.532.312-.656-.063 1.188-.25zm1.75 0l-.313.406h-.375l.688-.407zm-17.5.156l-1.25 1.218-.125.032 1.375-1.25zm10.656.968l-1 .938-.594-.594 1.594-.343zm1.281.75h.469l-1.031.563.562-.563zm2.282 0H58l-4.563 5.875-.343.188-.219-4.156 3.313-1.907zm6.218 0h.657l.093 1.438-2.875 1.313 2.125-2.75zm-12.5.063l.782 1.031L47 27.938l2.906-4.563zm1.719 2.281l.031.063-1 .937.969-1zm25.969.125l.469 2.782-.376-.22-.093-2.562zM51.53 27.063v3l-6.187 2.843 6.187-5.843zm20 .937l3.969 2.938-.344 4.718L71.531 28zm-5.594.469l.25.593-.874 4.313-.344-4.438.969-.468zm2.75 0L70 31.5l-1.344-2.906.031-.125zm10.938 1l7.875 6.437L79.656 30l-.031-.531zm-16.094.156l.657 9.219-.032.218-7.937-5.937 7.312-3.5zM77.5 31.469l.563.343 1 11.438-.282.125-1.75-3.75.469-8.156zM67.906 33l4.719 10.781-3.469-2.718-2.281-2.126L67.906 33zm12.031 0l8.563 5.469-.781.812-7 3.219-.781-9.5zm-23.562 3.656c.624.744 6.688 4.657 6.688 4.657l-1.25 13.374-5.438-18.03zm33.531 4.532l.438 2.03-.5 9.97L82.563 49l7.343-7.813zm-24.719.53l6.188 4.25 2.844 2.22-9.844 9-.719.406 1.532-15.875zM92.031 43l10.688 18.156-8.281-6.406L92 44.219 92.031 43zm-10.094 2.281l-.906.938L81 45.78l.938-.5zm9.907 4.844l1.031 4.813-1.156-.657.125-4.156zm-4.844 4l2.719 1.5-.031.594L87 54.125zm-11.063.063l-.718 14.187L65 60.656l2.031-1.75 8.906-4.718zm1.876.53l.093.25-.375 2.844.281-3.093zm6.5.407L88.906 59l.719 7.344-5.313-11.219zm9.968 1.688l2.625 2.03-2.594-1.593-.03-.438zm-3.531 1.062l2.219 1.281.844 16.032-1.782-3.75-1.281-13.563zm-11.406.406l7.531 17.438-.313-.219-8.374-7.063 1.156-10.156zm15.187 1.782l11.281 6.593-1.874 2.188-8.313 6.437-1.094-15.219zm-30.281 3.53l9.25 7.844-2.469 17.25-6.781-25.093zm42.563 6.75l.374 1.188-1.03 14.719-8.75-4.344L105 71.781l1.813-1.437zm2.78 1.938l15.157 23.656-10.531-7.906-4.625-15.75zm-32.75.156l7.376 4.438 4.25 3-14.313 12.531-1.219.688 1.626-9.938 2.28-10.719zm31.97 4.47l3.874 12.593-4.5-2.25.626-10.344zm-17.72 6.062l-.03.25-.688.375.719-.625zm8.844 2.312L106 88.47l-.125 1.75-5.938-4.938zm-7.062 1.594l.719 1.563-2.406 14.906L90 102.5l1.938-15.094.937-.531zm-2.469 1.375l-1.969 15-14.656-5.594.281-.25 16.344-9.156zm9.406.469l4.22 3.75 1.593 8.937-5.813-12.687zm6.876 2.625l5.5 2.594 1.874 16.156-3.624 1.781-2.282-4.938-1.469-15.593zM95 91.5l10 21.656-11.875-8.437L95 91.5zm-9.063 13.281l.313.125v.063l-.313-.188zm3.282.5l1.5 1-.188 1.188-1.594-.938.282-1.25zm1.625 4.063l8.969 8.344-12.188 6.218 3.219-14.562zm7.531 1.969l6.063 4-1.563.78-4.5-4.78zm16.063 2.124l.468 4.126-2.781-2-.281-.594 2.594-1.531zm-7.032 4.97l2.375 5.03-2.937-3.156.562-1.875z" fill-opacity=".785" filter="url(#f)"/><path d="M268.92 54.144l-48.233 12.387 137.75 304.125 3.844-1.187-31.906-73.969 37.344 33.219 13.781 76.594 8.625 7.125.406-.25 2.844 11.687 44.063 26.656 14.156.563-1.094-23.406-5.438 17.968-50.5-35.812 55.938-32.75-.531-8.156-65.469 32.187-7.313-76.375 72.47 34.438 1.437-4.094-68.906-38.344 3.906-62.406 64.25 100.281 1.219-12.875L268.918 54.144zm-3.17 8.262l1.094 40.5-37.875-28.562 36.781-11.938zm6.688 6.625L309.75 127.5l-36.188-27.25-1.125-31.219zm-37.875 16.625l31.187 23.219-2.781 38.531-28.406-61.75zM273 110.875l40.656 25.906-43.437 19.938L273 110.875zm46.25 33.219l-2.813 55.125-41.218-31.875 44.031-23.25zm5.563 7.969l42.343 71.718-43.469-26.562 1.125-45.156zm-47.375 26.562l36.218 30.531 6.125 62.438-42.344-92.969zm42.906 26.563l55.719 32.53-49.032 37.876-6.687-70.406zm59.062 43.156l-5.031 72.406-42.313-35.188 47.344-37.218z" fill="url(#g)" transform="translate(1.607 .951) scale(.27988)"/><path d="M63.936 19.374L49.673 23.03l-8.13 13.485 11.936-4.66 10.457-12.482zm-5.722 2.55l-5.25 2.945-1.437-1.473 6.687-1.473zm1.75 0l-6.381 8.218-.208-4.413 6.588-3.806zm-9.57 1.96l1.75 2.334-8.13 7.728 6.38-10.061zm1.647 3.683v3.435l-6.484 2.696 6.484-6.131z" fill="#857530"/><path d="M221.125 65.963l-35.375 43.35 91.188 344.625 16.093-2.375.094-.594-32.938-95 44 17.25-11.062 77.75.188.531 4.468-2.125.219-.906-2-.656 2.406-1.25 16.375-72 54.438 35.843-70.813 36.156-.406 1.907 6.156 2.062 65.781-29.5L358.548 450l12.54.013 8.757-28.607 14.625 30.781 8.719-1.093-18.532-39.031.469-.47-164-345.63zM293.313 451.5l-.125.063.125-.032v-.031zM221.188 79l4.437 60.438-32.313-24.563L221.188 79zm6.125 11.281l29.53 67.75-26.187-24.562-3.344-43.188zM193.875 123.5l27.844 22.594-3.313 55.125-24.531-77.719zm35.094 23.906L261.844 170l-38.438 35.188 5.563-57.782zm39 33.219l-3.344 67.094-40.094-29.25 43.438-37.844zm6.125 13.281l32.312 75.031-36.75-25.875 4.438-49.156zm-49.031 31.219L260.188 255l-10.032 65.75-25.094-95.625zm44.03 31.219l44.032 26.562-56.844 49.781 12.813-76.343zm52.376 38.5L312 367.25l-52.375-19.938 61.844-52.468zm3.906 8.656l45.813 99.188-53.625-38.094 7.812-61.094z" fill="url(#h)" transform="translate(1.607 .951) scale(.27988)"/><path d="M270.66 55.187l-29.582 30.565 162.866 366.415 11.665.739-70.476-153.934 50.698 26.564 13.668 117.75 6.551 8.273-11.867-126.696 44.98 27.549 1.821-4.2-46.8-35.305-17.27-58.433 64.33 92.174v-6.756L270.66 55.187zm-1.87 10.004l6.13 35.194-24.507-13.284 18.377-21.91zm5.02 3.312l35.652 55.128-31.195-27.9-4.458-27.228zM250.41 95.74l23.963 10.63 4.45 49.802-28.413-60.432zm30.09 7.956l35.089 28.564-30.073 31.217-5.015-59.78zm36.763 41.849l10.595 49.138-36.774-21.233 26.179-27.905zm5.583 2.65l46.79 73.733-36.214-27.89-10.576-45.843zm-31.203 35.215l36.22 19.922 3.338 63.75-39.558-83.672zm41.233 17.934l42.893 33.195-37.328 43.83-5.565-77.025zm44.008 45.818l21.732 71.058-54.597-27.227 32.865-43.831z" fill="url(#i)" transform="translate(1.607 .951) scale(.27988)"/><path d="M241.66 86.401l-55.74 22.965 90.422 344.263 12.814-1.845-27.089-91.304 46.81 27.895-9.995 64.369 8.035-1.747 13.668-61.948 68.957 64.095 9.341-2.526-70.51-74.873 8.352-59.107 62.494 136.148 12.608.652L241.66 86.401zm-.198 13.729l28.972 66.406-35.657-27.9 6.685-38.506zm-8.356-.667l-7.796 38.534-28.425-21.264 36.22-17.27zm-35.668 29.885c2.229 2.657 23.958 16.602 23.958 16.602l-4.456 47.827-19.502-64.429zm31.763 15.942l41.233 32.55-48.473 27.237 7.24-59.787zm46.248 42.506l-7.805 57.128-41.216-31.216 49.021-25.912zm5.574 6.635l38.431 85.687-44.005-37.194 5.574-48.493zm-56.29 27.907l33.993 30.542-8.906 62.436-25.087-92.978zM271 254.88l54.6 38.52-70.758 38.52L271 254.88zm60.728 51.803l-12.255 75.714-60.18-35.195 72.435-40.52z" fill="url(#j)" transform="translate(1.607 .951) scale(.27988)"/><path d="M65.138 2.014l-19.009 15.7 3.398 5.34 27.828-6.795 1.087-10.522-13.304-3.723zm.271 1.702l8.279 12.46-12.623-1.62 4.344-10.84zm-2.036 1.131l-3.395 8.413-9.366 2.427 12.761-10.84zm4.073 0l8.96 1.944-2.175 6.793-6.785-8.737zm-7.74 10.516l-9.094 6.312-2.446-4.044 11.54-2.268zm.815 1.137l9.777.001-16.427 4.206 6.65-4.207z" fill="#483a1a"/><path d="M37.037 155.777l8.306-4.845 11.263 3.11 11.263 62.98-7.95 12.44-11.772-70.096-11.11-3.59z" fill="url(#k)" transform="translate(1.607 .951) scale(.27988)"/><path d="M28.947 40.555l2.444-7.12 19.115-11.257L43.1 34.406l-14.153 6.15z" fill="#857530"/><path d="M29.219 35.053l18.191-17.8 2.715 4.855-20.091 17.8-.815-4.855z" fill="#6b5627"/><path d="M29.768 34.687l-13.27 11.058-.066 1.545 1.043 1.643 12.78-9.803-.487-4.443z"/><path d="M132.321 86.611l-35.366 33.433.97 24.284 47.575-21.971-13.179-35.746z" fill="url(#l)" transform="translate(1.607 .951) scale(.27988)"/><path d="M207.108 11.166l-77.61 74.01 14.34 42.616L241.46 87.57l14.633-56.154-48.985-20.25zm-4.374 13.303l-19.881 48.57-41.722 6.93 61.603-55.5zm6.316 1.158l26.665 52.623-47.531-2.892 20.866-49.731zm6.783-2.888l30.071 11.56-8.247 32.374-21.824-43.934zm-31.523 56.08l-38.813 37.004-8.724-29.481 47.537-7.523zm4.362 2.883h44.147l-79.553 36.437 35.406-36.437z" fill="url(#m)" transform="translate(1.607 .951) scale(.27988)"/><path d="M65.704 1.798l-6.283 2.343L73.298 9.9l-4.357 15.452 8.709-8.986.954-10.68-12.9-3.889zm.222.614l2.806 1.838-6.339-.468 3.533-1.37zm2.086.523l5.022 1.614-3.579-.423-1.443-1.191zM63.24 4.49l5.722.707 3.763 3.24-9.485-3.947zm6.851.423l6.623 1.032-2.797 2.093-3.826-3.125zm7.372 2.288l-1.982 5.767-.51-3.225L77.462 7.2zm.188 1.56l-.677 5.497-.677-1.938 1.354-3.558zM74.1 10.7l.661 2.666-2.592 4.332L74.1 10.7zm1.242 3.25l1.226 1.77-5.682 6.357 4.456-8.128z" fill="#ffe452"/><path d="M28.774 309.085l7.714-8.996 44.896-8.138 7.3 2.998 5.11 26.558-8.76 12.422-4.38-26.558-4.745-2.57-47.135 4.284z" fill="url(#n)" transform="translate(1.607 .951) scale(.27988)"/><path d="M13.048 65.094l1.8 20.193 3.12.7 2.529-1.273-3.883-21.115-3.566 1.495z"/><path d="M60.482 229.28l-11.829-70.477-11.829-3.203-26.388 21.357-5.46 13.882 23.659 48.052 31.847-9.61z" fill="url(#o)" transform="translate(1.607 .951) scale(.27988)"/><path d="M25.282 103.048l2.253-2.357 2.063-.071 1.648 1.445-.014 6.86-1.709 3.351-4.044 2.445-.197-11.673zM16.137 96.1l1.232 7.895 2.31 2.02 4.93-.367.308 7.528-9.704.367-3.235-18.36 4.16.918z" fill="#ffe868"/><path d="M76.738 302.787l-48.029 6.262-5.93 9.742 17.196 84.895 5.337 5.567 40.32-2.783 8.302-8.35 3.558-27.835-5.93-6.263H85.04l-4.151 5.567-2.372 12.526-2.372 3.479-19.567 2.088-8.895-5.567-5.929-29.922 2.372-6.263 37.949-7.655 3.557-4.87-4.15-27.352-4.744-3.266z" fill="url(#p)" transform="translate(1.607 .951) scale(.27988)"/><path d="M42.176 235.3l5.43 66.623 11.395.74-12.005-68.64-4.82 1.276z" fill="url(#q)" transform="translate(1.607 .951) scale(.27988)"/><path d="M54.156 159.612l42-34.882-42.825 41.245.825-6.363z" fill="url(#r)" transform="translate(1.607 .951) scale(.27988)"/></g></svg>