<?xml version="1.0" encoding="UTF-8"?>
<svg width="380" height="380" xmlns="http://www.w3.org/2000/svg">
 <path d="M199.059 15.016c-37.13-.457-71.807 23.353-111.384 45.28l9.989 11.41A150.511 150.511 0 0083.8 85.419L71.725 74.4c-18.431 42.079-45.761 72.227-46.219 109.356-.457 37.13 23.354 71.776 45.28 111.353L83.65 283.88a150.43 150.43 0 0012.742 12.773L85.83 308.275c42.078 18.431 72.226 45.761 109.356 46.219 37.129.457 71.776-23.354 111.353-45.28l-11.199-12.803a150.34 150.34 0 0011.35-11.29l13.015 11.865c18.431-42.078 45.761-72.227 46.218-109.356.457-37.13-23.353-71.776-45.28-111.353l-11.895 10.412a150.407 150.407 0 00-12.167-12.47l11.835-12.985c-42.079-18.431-72.227-45.76-109.356-46.218z" overflow="visible" stroke="#000" stroke-width="15"/>
 <path d="M199.059 15.016c-37.13-.457-71.807 23.353-111.384 45.28l9.989 11.41A150.511 150.511 0 0083.8 85.419L71.725 74.4c-18.431 42.079-45.761 72.227-46.219 109.356-.457 37.13 23.354 71.776 45.28 111.353L83.65 283.88a150.43 150.43 0 0012.742 12.773L85.83 308.275c42.078 18.431 72.226 45.761 109.356 46.219 37.129.457 71.776-23.354 111.353-45.28l-11.199-12.803a150.34 150.34 0 0011.35-11.29l13.015 11.865c18.431-42.078 45.761-72.227 46.218-109.356.457-37.13-23.353-71.776-45.28-111.353l-11.895 10.412a150.407 150.407 0 00-12.167-12.47l11.835-12.985c-42.079-18.431-72.227-45.76-109.356-46.218z" fill="red" overflow="visible" stroke="#fff" stroke-width="4.9997"/>
 <path d="m297.9 184.74c0 24.535-8.648 47.05-23.061 64.665-20.989 16.15-45.973 26.767-77.872 26.767-28.507 0-45.289-11.424-74.073-19.753-18.156-18.444-29.359-43.754-29.359-71.68 0-56.433 45.749-102.18 102.18-102.18 56.434 0 102.18 45.749 102.18 102.18z" fill="#fff" fill-rule="evenodd" stroke="#000" stroke-width="1.9997"/>
 <path d="m289.18 184.74c0 51.619-41.846 93.465-93.466 93.465-51.619 0-93.465-41.846-93.465-93.465 0-51.62 41.846-93.466 93.465-93.466 51.62 0 93.466 41.846 93.466 93.466z" fill-rule="evenodd"/>
 <path d="M134.843 268.093c-5.96.083-6.362-5.314-10.816-8.122-4.17-2.629-6.624 3.64-15.977-7.727l6.017 16.76-12.859-3.389c9.263 17.168 10.825 7.638 20.212 13.065 6.759 3.908.347 12.065 17.192 12.073 5.071-7.488 1.599-15.064-3.77-22.66zM264.929 264.224c5.888-.924 5.374-6.312 9.29-9.831 3.666-3.294 7.144 2.47 14.445-10.312l-3.104 17.534 12.104-5.508c-6.234 18.484-9.382 9.354-17.719 16.287-6.002 4.992 1.694 11.95-14.908 14.8-6.262-6.524-4.117-14.578-.108-22.97z" fill="#fff" overflow="visible" stroke="#000" stroke-linejoin="bevel" stroke-width="2.0001"/>
 <path d="m265.26 287.45c-5.501-10.136 10.602-11.786 6.363-19.446l-16.263-16.263 4.596 22.627c-0.809 3.839-2.118 8.329 5.303 13.082z" fill="#fff" overflow="visible" stroke="#000" stroke-linejoin="bevel" stroke-width="2"/>
 <path d="m138.32 290.35c3.712-10.918-11.259-11.605-8.374-19.871l10.105-13.824 1.408 20.603c1.445 3.647 3.374 7.155-3.14 13.092z" fill="#fff" overflow="visible" stroke="#000" stroke-linejoin="bevel" stroke-width="2.0001"/>
 <path d="m138.44 251.91c39.618 20.36 82.199 32.765 115.74-2.74 6.17 1.806 14.507 2.471 17.122 18.491-36.244 35.919-109.19 31.368-141.08 2.74-1.042-8.685-1.49-16.973 8.218-18.492z" fill="#fff" overflow="visible" stroke="#000" stroke-linejoin="bevel" stroke-width="2.0001"/>
 <g fill="#fff" stroke="#000" stroke-width="2.0001">
  <path d="m106.76 238.43c5.044-1.787 8.155-4.571 10.563-7.718l7.98 10.924-10.562 7.717-7.98-10.923z"/>
  <path d="m113.25 245.98 9.29-6.787 14.295 22.108-6.666 4.87-16.92-20.19z"/>
  <path d="m109.82 244.95c6.797-2.088 10.214-5.417 12.526-9.152l5.214 7.137c-2.465 4.804-6.77 7.722-12.526 9.152l-5.214-7.137z"/>
  <path d="m289.61 232.71c-5.07-1.713-8.22-4.452-10.674-7.563l-7.821 11.038 10.673 7.563 7.822-11.038z"/>
  <path d="m283.23 240.35-9.387-6.652-13.972 22.314 6.735 4.772 16.624-20.434z"/>
  <path d="m286.64 239.27c-6.826-1.989-10.292-5.268-12.657-8.969l-5.11 7.212c2.534 4.767 6.881 7.623 12.657 8.97l5.11-7.213z"/>
 </g>
</svg>
