<svg width="106.667" height="106.667" xmlns="http://www.w3.org/2000/svg"><path d="M7.937 92.135c1.647-2.516 6.96-5.358 9.31-6.37 6.045-1.97 9.62 1 12.545 4.034 3 3.464 2.227 4.14 3.463 3.387 4.484-3.061 7.924-7.327 11.598-11.307 6.02-6.35 9.366-2.046 9.552 2.515.12 2.31.02 5.967 1.912 7.048.75-1.64-3.92 1.155.591-1.88 1.686-1.134 3.404-2.145 5.122-3.155 7.18-4.11 14.697-7.916 19.761-4.643.874.89.498.419 1.146 1.399.151 4.088-3.615 5.29-6.35 2.37-.18-.334-.503-1.01-.675-1.275-.845-1.962-8.342 3.893-10.123 4.925-5.694 3.452-10.799 8.377-15.322 5.369-2.186-2.15-2.501-5.6-2.747-9.061-.374-5.644 4.113-3.477 2.577-1.988-4.283 4.347-8.055 8.951-13.038 12.493-7.915 4.909-10.132.178-13.259-3.381-.86-.866-3.467-3.224-4.153-3.226-1.734.537-5.026 3.885-5.193 3.268-2.652 2.919-5.715 2.745-6.717-.522z"/><path d="M34.741 141.947c3.86-12.451 9.57-18.92 16.323-29.925 8.49-12.315 13.4-23.681 24.857-35.03 12.192-14.201 30.776-34.522 50.197-37.527 19.692-1.293 42.572-16.933 46.094-15.939-6.253 12.04 1.175 25.532-2.845 38.497-2.929 8.255-41.374 29.833-46.697 32.28-6.417 3.879-29.26 27.624-35.531 31.949-6.99 6.059-5.588 13.733-16.461 13.405-.419-.101-22.764 2.709-31.48 3.896-3.335 8.842 24.787-.594 10.195 5.884-6.83 3.036-18.676 3.082-14.652-7.49z" transform="matrix(.562 0 0 .57014 -4.298 -6.423)" fill="#f3f3f3" fill-rule="evenodd" stroke="#000" stroke-width="2.208" stroke-linejoin="round"/><path d="M23.72 67.31c1.413.096 13.594.852 20.188-2.575-10.92 1.399-17.479.506-18.708.684-.289.369-.921 1.383-1.48 1.892zM20.137 73.285c1.412.095 14.696-1.295 21.29-4.722-10.92 1.399-18.384 2.262-19.99 2.536-.082.575-.742 1.677-1.3 2.186zM27.223 62.68c1.412.095 15.892 1.099 22.486-2.328-10.92 1.399-19.504.154-20.734.332-.288.37-1.194 1.486-1.752 1.995zM31.669 57.364c1.411.096 16.116 1.57 22.71-1.857-10.92 1.399-19.523-.419-20.752-.24-.288.368-1.4 1.588-1.958 2.097zM36.787 51.922c1.411.095 15.977 2.15 22.571-1.277-10.92 1.399-19.383-.896-20.613-.718-.288.37-1.4 1.486-1.958 1.995zM42.783 45.62c1.412.096 17.56.703 23.777-.337-8.473-.797-20.486-1.836-21.715-1.657-.289.369-1.504 1.486-2.062 1.994zM49.08 39.407c1.412.095 19.258 2.818 25.475 1.396-8.755-.988-22.081-3.466-23.31-3.288-.289.37-1.607 1.383-2.165 1.892zM55.31 33.98c1.411.095 20.145 3.463 25.986 2.233-6.214-.607-22.283-4.51-23.513-4.331-.288.369-1.916 1.589-2.474 2.098zM62.471 28.434c1.412.096 19.836 3.67 24.924 3.012-6.967-.51-21.068-4.597-22.298-4.418-.476.56-2.068.897-2.626 1.406zM70.941 23.955c1.412.095 14.432 2.802 19.614 2.908-7.061-1.083-15.458-4.501-16.687-4.323-.288.37-2.369.906-2.927 1.415zM78.291 20.414c1.412.096 7.458 1.665 12.734.72-5.743-.128-9.264-2.129-10.493-1.95-.288.368-1.683.721-2.24 1.23zM84.117 16.412c1.412.095 3.855-.34 5.837-1.667-2.732.54-2.931-.124-4.16.054-.289.369-1.119 1.104-1.677 1.613zM88.043 12.417c1.412.095 3.165-2.464 3.547-4.65-.944 1.304-1.112 1.97-1.588 2.243-.288.369-1.4 1.898-1.959 2.407zM62.78 24.438l-2.474 1.237c-.31-.619.927-6.495 3.401-8.041-1.237 2.165-2.267 6.804-.927 6.804zM70.886 20.056l-1.752 1.031c-.31-.618-.207-3.505 2.37-4.948-1.34 1.34-1.958 3.917-.618 3.917zM78.308 16.758l-1.752 1.03c-.31-.618 1.958-3.298 3.71-4.742-1.855 2.371-2.37 3.402-1.958 3.712zM84.081 13.046l-1.752 1.031c-.31-.618 2.061-2.577 3.814-4.02-1.547 1.856-3.402 2.99-2.062 2.99zM54.804 29.747l-2.061 1.443c-.31-.619.103-7.32 1.855-8.763-1.134 2.371-1.134 7.32.206 7.32zM47.692 35.932l-1.547 1.34c-.309-.619-.103-6.7 1.959-9.175-.928 1.856-1.753 7.835-.412 7.835zM40.99 42.014l-1.545 1.34c-.31-.619.515-6.907 2.267-8.35-1.237 2.062-2.061 7.01-.721 7.01zM35.527 47.89l-1.752 1.34c-.206-.825.103-5.773 1.855-7.216-1.03 2.37-1.443 5.876-.103 5.876zM30.167 53.56L28.62 54.9c-.309-.619 1.134-5.258 2.68-7.216-1.236 2.164-2.473 5.876-1.133 5.876zM25.012 59.126l-1.03 1.237c-.31-.618 1.134-2.886 2.99-5.051-.31 2.268-3.3 3.814-1.96 3.814z" fill="#fff" fill-rule="evenodd"/><path d="M141.656 45.031c-10.857 4.9-24.785 11.005-36.437 20.375-26.615 21.844-35.652 33.435-48.344 46.281 0 0-26.464 29.537-31.688 57.782-1.072 9.75 4.73 8.25 6.157 1.125 4.99-26.98 19.568-46.473 29.125-56.469 11.5-12.342 22.863-27.877 50.312-48.67 10.223-8.415 21.145-13.16 32.188-18.142 12.433-4.71 14.619-9.563 25.312-20.188-4.402 3.616-15.767 13.007-26.625 17.906z" transform="matrix(.562 0 0 .57014 -4.298 -6.423)" fill="#fff" fill-rule="evenodd" stroke="#000" stroke-width="2.208" stroke-linejoin="round"/></svg>