<?xml version="1.0" encoding="UTF-8"?>
<svg width="128" height="128" version="1.0" xmlns="http://www.w3.org/2000/svg" xmlns:xlink="http://www.w3.org/1999/xlink">
 <defs>
  <linearGradient id="c" x1="12.791" x2="63.986" y1="14.028" y2="82.588" gradientUnits="userSpaceOnUse">
   <stop stop-color="#fff" offset="0"/>
   <stop stop-color="#fff" stop-opacity="0" offset="1"/>
  </linearGradient>
  <filter id="b">
   <feGaussianBlur stdDeviation="1.34"/>
  </filter>
 </defs>
 <path d="M17.541 22.287c-.379-.005-.755.014-1.125.031-5.183.242-9.219 2.352-13.625 2.375-.241.408.287 1.322.875 2.25.538.145 1.096.298 1.531.407.24.06.491.139.72.25a20.026 20.026 0 012.718-.344c1.44-.07 2.864.072 4.031.625 1.024 1.262 1.052 3.242.594 4.594-1.83.594-3.79.94-5.75 1.031-.227-.88-.007-.7-.656.156A6.171 6.171 0 015.822 35.1c-.02.135-.039.27-.062.406-.378 2.964-.306 4.932.562 7.906.613 1.808-.524 4.757-.718 6.625-.31 2.17.282 4.298.937 6.344.703 1.794 1.587 5.931 2.406 8.687-.115 6.993-.017 14.012.438 21 .368.453.73.882 1.156 1.282 3.078.292 6.217 1.27 8.844 2.812-.063 2.079-1.041 3.772-2.969 4.625-1.675-.267-3.74-.684-5.437-1.5a8.858 8.858 0 01-1.282.344c.111.068.23.124.344.187.022.198.04.397.063.594 2.095 2.632 6.263 5.138 10 6.625 27.706 1.326 53.918-9.981 81.406-11.906 2.254-.164 5.185-1.032 8.312-1.281-.471 1.234-.938 2.482-1.5 3.656.318.412.62.797.844 1.125 2.001-.805 4.134-1.33 6.219-1.5 1.142 1.737 1.306 3.694.219 5.5-2.276 1.11-5.411 2.445-7.938 1.906-.88-.68-1.4-1.788-1.594-2.875-.45-.006-.821-.141-1.093-.375-1.573 2.027-1.141 4.758-1.782 7.219l-2.968 3.344c2.362-.19 4.69-.407 7-.938 11.86-2.346 13.988-10.416 15.718-20.312.997-8.502 2.124-16.865 2.063-25.438-.201-8.063-.554-16.998-4.594-24.156-.883-2.046-2.635-3.724-4.969-4.156-6.904.175-13.703 1.892-20.593 2.406-22.374 1.68-43.485 10.7-66 11.625a23.6 23.6 0 01-1.75.062c-.255-5.643.118-11.323-.594-16.937-.076-1.499-.574-2.934-.813-4.406-1.904-.986-4.468-1.308-7-1.25-.395-.026-.777-.057-1.156-.063zm4.531 10.125c1.623.007 2.446 1.972 2.97 3.438-2.095 2.42-5.102 3.942-8.22 4.531-1.473-.558-1.536-1.881-1.5-3.344 1.196-.64 2.273-2.481 5.5-4.281.467-.236.876-.345 1.25-.344zM86.01 36.1zm23.156.687c1.063-.029 2.07.077 2.969.438 1.098 1.198 1.282 3.185.906 4.562-3.047 1.2-6.519 1.699-9.75 1.406-.83-1.906-.66-3.874.719-5.468 1.52-.442 3.384-.89 5.156-.938zM91.23 38.975c1.063-.03 2.1.108 3 .468 1.098 1.198 1.25 3.155.875 4.532-3.048 1.199-6.52 1.73-9.75 1.437-.83-1.906-.66-3.875.718-5.469 1.52-.441 3.385-.92 5.157-.968zm-21.969.5c-3.443.755-6.87 1.519-10.313 2.25a408.707 408.707 0 000 0c3.444-.73 6.87-1.496 10.313-2.25zm2.781 3.281c1.063-.03 2.101.077 3 .437 1.099 1.198 1.25 3.186.875 4.563-3.047 1.2-6.519 1.73-9.75 1.437-.83-1.906-.66-3.874.719-5.468 1.52-.442 3.384-.92 5.156-.969zm-29.156 1.937c-.938.139-1.872.254-2.813.375.942-.121 1.873-.236 2.813-.375zm-8.313 1c-2.952.263-5.926.44-8.906.47.022-.008.041-.025.063-.032 2.953-.032 5.916-.177 8.843-.438zm19.22.22c1.062-.03 2.1.076 3 .437 1.098 1.198 1.281 3.154.905 4.531-3.047 1.2-6.55 1.73-9.78 1.437-.83-1.906-.661-3.874.718-5.468 1.52-.442 3.384-.89 5.156-.938zM10.446 47.85c-.003.916.014 1.831.032 2.75-.04.218-.074.41-.125.656a30.477 30.477 0 01.093-3.406zm24.813 1.187c1.063-.029 2.07.108 2.969.469 1.098 1.198 1.282 3.154.906 4.531-3.047 1.2-6.519 1.73-9.75 1.438-.83-1.907-.66-3.875.719-5.469 1.52-.442 3.384-.92 5.156-.969zm74.5 29.281c.828-.026 1.63-.01 2.437.063.83 1.907.66 3.875-.718 5.469-2.431.706-5.727 1.461-8.125.5-1.099-1.198-1.282-3.155-.907-4.532 2.286-.899 4.828-1.419 7.313-1.5zm-17.938 1.875c.829-.026 1.661-.01 2.47.063.829 1.907.66 3.875-.72 5.469-2.43.706-5.758 1.461-8.156.5-1.098-1.198-1.282-3.155-.906-4.532 2.285-.899 4.828-1.419 7.312-1.5zm-20.125 3.47c.829-.028 1.661-.011 2.47.062.83 1.906.66 3.875-.72 5.468-2.43.707-5.758 1.462-8.156.5-1.098-1.197-1.282-3.154-.906-4.53 2.285-.9 4.828-1.42 7.312-1.5zM53.76 87.1a20.25 20.25 0 012.469.093c.83 1.907.66 3.875-.719 5.47-2.431.706-5.758 1.46-8.156.5-1.099-1.199-1.25-3.186-.875-4.563 2.285-.9 4.796-1.42 7.281-1.5zm-19.5 3.156c.828-.027 1.661-.01 2.469.062.83 1.907.66 3.875-.719 5.47-2.431.706-5.758 1.46-8.156.5-1.099-1.199-1.25-3.155-.875-4.532 2.285-.9 4.796-1.42 7.281-1.5z" fill-opacity=".571" filter="url(#b)"/>
 <path d="M23.422 24.443c.666 2.93.952 6.166 1.062 9.47-.35-1.343-1.426-2.551-2.531-3.25-3.347-.657-7.15 2.245-9.219 4.374-.689 2.332.115 4.458 2.031 5.688 3.768.034 7.86-2.904 9.75-5.375.06 2.988-1.431 18.735-1.437 21.667-2.576-.173-10.229-.048-12.876-2.107-1.677-1.303.593-11.729-.378-12.954C6.926 34.6 19.462 28.63 23.422 24.443z" fill="#333"/>
 <path d="M110.734 32.068c-3.598.088-7.2.854-10.781 1.125-27.489 1.925-53.7 13.232-81.406 11.907-2.696-.978-7.48-3.07-9.188-5.844-.564 3.921-.539 7.872-.437 11.844-.033-1.825.908-3.434 2.718-4.407 2.969-.028 7.706.598 9.594 3.438.377 1.715.09 4.024-1.469 5.125-3.083.409-8.08-.411-10.718-3.125a5.698 5.698 0 01-.125-.813c.044 1.69.09 3.372.125 5.063a7.422 7.422 0 014.562 6.906l-.031 12.906a7.388 7.388 0 01-4.875 6.938c.02.85.052 1.685.094 2.531 3.084-.07 7.336.943 9.656 3.438.425 2.236-.583 4.271-2.75 5.375-1.468-.02-3.366-.212-5.125-.75 4.615 3.778 9.88 6.163 16.719 5.218 22.514-.925 43.626-9.944 66-11.625 5.814-.433 9.496-.96 15.156-1.406.014-.017.016-.045.031-.062-.46-.025-.254-.118.031-.032a47.767 47.767 0 002.094-2.562c-2.732 1.182-7.025 2.343-9.781.594-1.042-1.414-1.727-3.643-.75-5.282 2.65-1.626 7.58-2.907 11.094-1.5.99 1.362 1.23 2.983.687 4.5a61.375 61.375 0 003.5-5.656c.972-1.284 2.287-2.963 2.406-4.625a7.224 7.224 0 01-2.468.813l-18.375 2.468c-4.065.548-7.796-2.279-8.344-6.343l-1.719-12.782c-.548-4.064 2.28-7.795 6.344-8.343l18.406-2.47c.159-.02.311-.02.469-.03.002.075.039.159.062.25 3.704-3.599 6.843-10.693 2.188-12.594a22.603 22.603 0 00-3.594-.188zm-2.937 2.875c1.368-.031 2.67.221 3.75.907 1.041 1.414 1.726 3.642.75 5.28-2.651 1.627-7.58 2.908-11.094 1.5-1.339-1.84-1.302-4.108.187-6.03 1.688-.77 4.126-1.604 6.407-1.657zm-17.938 2.22c1.368-.032 2.67.22 3.75.905 1.041 1.414 1.726 3.643.75 5.282-2.65 1.626-7.549 2.876-11.062 1.468-1.34-1.841-1.333-4.108.156-6.03 1.688-.77 4.126-1.573 6.406-1.626zm-19.187 3.78c1.368-.031 2.701.19 3.78.875 1.042 1.414 1.696 3.643.72 5.282-2.651 1.626-7.55 2.907-11.063 1.5-1.339-1.842-1.302-4.109.188-6.032 1.688-.77 4.094-1.572 6.375-1.625zm-18.25 3.125c1.368-.031 2.701.221 3.78.907 1.042 1.414 1.727 3.642.75 5.28-2.65 1.627-7.58 2.908-11.093 1.5-1.339-1.84-1.302-4.108.188-6.03 1.688-.77 4.094-1.604 6.375-1.657zM33.89 47.225c1.368-.032 2.67.22 3.75.906 1.042 1.414 1.727 3.642.75 5.281-2.65 1.627-7.58 2.876-11.093 1.469-1.34-1.842-1.302-4.109.187-6.031 1.688-.77 4.126-1.573 6.406-1.625zM90.015 78.35c1.127.028 2.23.229 3.219.625 1.339 1.841 1.302 4.108-.187 6.03-2.701 1.233-7.277 2.547-10.157.72-1.041-1.414-1.695-3.643-.718-5.282 1.656-1.016 4.189-1.89 6.718-2.062.38-.026.75-.04 1.125-.031zM69.14 81.818c.379-.015.752-.02 1.125 0 .996.054 1.966.242 2.844.594 1.339 1.842 1.302 4.14-.187 6.063-2.701 1.231-7.277 2.546-10.157.718-1.041-1.414-1.695-3.642-.718-5.28 1.739-1.068 4.444-1.987 7.093-2.095zm-17.937 3.47c.378-.016.751-.02 1.125 0 .996.052 1.965.241 2.844.593 1.338 1.842 1.333 4.109-.157 6.031-2.7 1.232-7.277 2.578-10.156.75-1.041-1.414-1.726-3.642-.75-5.281 1.74-1.067 4.444-1.986 7.094-2.094zm-18.75 3.124c1.126.029 2.23.23 3.219.625 1.338 1.842 1.333 4.109-.157 6.031-2.7 1.232-7.277 2.547-10.156.72-1.041-1.415-1.726-3.643-.75-5.282 1.657-1.017 4.189-1.89 6.719-2.063.38-.025.75-.04 1.125-.03z" fill="#666"/>
 <path d="M17.14 22.256c1.575-.012 4.417.388 5.5 1.219-4.807 4.428-11.74 9.281-14.406 13.28-1.468 8.554-.79 17.31-.625 25.938-.263-1.699-1.896-7.943-2.375-9.593-.596-1.83-.476-3.743-.281-5.625.295-1.847 1.224-4.19.781-5.97-.486-2.762-.044-5.302.156-7.968 2.464-.057 4.929-.768 6.594-1.656 1.074-1.577.548-3.838-.406-5.313-2.297-1.66-5.885-1.216-8.625-.406-.406-.56-.783-1.096-1.031-1.625 4.434-.95 10.181-1.945 14.718-2.281zM118.078 34.818c5.216 15.275 4.464 31.43 2.625 47.125-.606 12.414-6.885 19.857-19.563 21.75.872-1.086 1.382-2.812 1.844-3.875.13-1.402.321-2.671.781-3.78.343.82.881 1.591 1.469 2.155 3.149 1.31 7.423-.794 9.875-2.468 1.14-2.149.79-4.382-.844-5.97-2.055-.437-4.395.007-6.468.845.398-1.303.584-2.725 1.218-3.844 1.67-2.637 3.53-4.31 4.875-7.188 1.09-2.86 4.563-5.324 4.907-8.468-.192-2.086-1.159-4.113-.72-6.25.363-2.22-.952-4.338-.468-6.532.58-1.493.468-3.034 0-4.5.112-.073.238-.146.344-.218 1.14-2.149.758-4.414-.875-6-1.138-.243-2.345-.186-3.563.03a26.263 26.263 0 01-1.031-1.655c4.329-3.357 5.153-6.18 5.594-11.157z" fill="#666"/>
 <path d="M111.109 45.725a9.305 9.305 0 01-.469.343c1.156 1.01 1.055.95 1.5 1.875-.022.007-.04.025-.062.032.457.051.908.11 1.344.218.29.073.576.145.843.22.792-.165 1.587-.312 2.375-.376.986 1.5 1.27 3.19.625 4.781-.062-.14-.15-.269-.218-.406-.13.327-.267.66-.344.969a8.833 8.833 0 01-.594 1.625c.283.996.382 2.02.125 3.094-.844 1.977 1.203 3.973 1.406 5.968-.029 2.021-.697 3.947-.031 5.907.03.074.04.144.063.218a6.452 6.452 0 01-2.5.907l-18.407 2.5c-3.532.476-6.71-1.968-7.187-5.5l-1.719-12.813c-.476-3.533 1.936-6.711 5.469-7.187l17.781-2.375z" fill="#b3b3b3"/>
 <path transform="translate(-2.516 -13.838)" d="M113.25 45.906c-3.598.088-7.2.853-10.781 1.125-27.489 1.925-53.7 13.232-81.406 11.907-2.696-.978-7.48-3.07-9.188-5.844-.564 3.92-.539 7.872-.438 11.843-.032-1.824.91-3.433 2.72-4.406 2.968-.028 7.705.598 9.593 3.438.377 1.715.09 4.024-1.469 5.125-3.083.409-8.08-.411-10.718-3.125a5.698 5.698 0 01-.126-.813c.045 1.69.092 3.372.126 5.063a7.422 7.422 0 014.562 6.906l-.031 12.906a7.388 7.388 0 01-4.875 6.938c.02.85.052 1.684.094 2.531 3.084-.07 7.336.943 9.656 3.438.425 2.236-.583 4.271-2.75 5.374-1.468-.019-3.366-.211-5.125-.75 4.615 3.779 9.88 6.164 16.718 5.22 22.515-.926 43.627-9.945 66-11.626 5.815-.433 9.497-.96 15.157-1.406.014-.018.016-.045.031-.063-.46-.024-.254-.117.031-.03a47.767 47.767 0 002.094-2.563c-2.732 1.182-7.025 2.343-9.781.594-1.042-1.415-1.727-3.643-.75-5.282 2.65-1.626 7.58-2.907 11.094-1.5.99 1.362 1.23 2.983.687 4.5a61.375 61.375 0 003.5-5.656c.972-1.284 2.287-2.963 2.406-4.625a7.224 7.224 0 01-2.469.813l-18.374 2.468c-4.065.548-7.796-2.279-8.344-6.344l-1.719-12.78c-.548-4.065 2.28-7.796 6.344-8.344l18.406-2.47c.159-.02.311-.02.469-.03.002.074.039.158.062.25 3.704-3.599 6.843-10.693 2.188-12.594a22.603 22.603 0 00-3.594-.188zm-2.938 2.875c1.369-.031 2.67.221 3.75.907 1.042 1.414 1.727 3.642.75 5.28-2.65 1.627-7.58 2.908-11.093 1.5-1.339-1.84-1.302-4.108.187-6.03 1.688-.77 4.126-1.604 6.406-1.657zM92.376 51c1.368-.032 2.67.22 3.75.906 1.041 1.414 1.726 3.643.75 5.282-2.65 1.626-7.549 2.876-11.063 1.468-1.338-1.841-1.332-4.108.157-6.031 1.688-.77 4.126-1.572 6.406-1.625zm-19.188 3.781c1.369-.031 2.702.19 3.782.875 1.041 1.414 1.695 3.643.719 5.282-2.651 1.626-7.55 2.907-11.063 1.5-1.339-1.842-1.302-4.11.188-6.032 1.688-.77 4.094-1.572 6.374-1.625zm-18.25 3.125c1.369-.031 2.702.221 3.782.907 1.041 1.414 1.726 3.642.75 5.28-2.65 1.627-7.58 2.908-11.094 1.5-1.339-1.84-1.302-4.108.188-6.03 1.688-.77 4.094-1.604 6.374-1.657zm-18.53 3.157c1.367-.032 2.67.22 3.75.906 1.04 1.414 1.726 3.642.75 5.281-2.651 1.626-7.58 2.876-11.094 1.469-1.34-1.842-1.302-4.109.187-6.031 1.688-.77 4.126-1.573 6.406-1.626zM92.53 92.186c1.127.03 2.23.23 3.219.626 1.339 1.841 1.302 4.108-.188 6.03-2.7 1.233-7.276 2.547-10.156.72-1.041-1.415-1.695-3.643-.719-5.282 1.657-1.016 4.19-1.89 6.72-2.062.379-.026.749-.041 1.124-.031zm-20.875 3.47c.379-.016.752-.02 1.125 0 .996.053 1.966.241 2.844.593 1.339 1.842 1.302 4.14-.188 6.063-2.7 1.231-7.276 2.546-10.156.718-1.041-1.414-1.695-3.642-.719-5.281 1.74-1.067 4.445-1.986 7.094-2.094zM53.72 99.124c.378-.015.751-.02 1.125 0 .996.053 1.965.242 2.843.594 1.34 1.841 1.333 4.108-.156 6.031-2.7 1.232-7.277 2.578-10.156.75-1.041-1.414-1.726-3.642-.75-5.281 1.74-1.068 4.444-1.987 7.094-2.094zm-18.75 3.125c1.126.029 2.23.23 3.218.625 1.34 1.842 1.333 4.109-.156 6.031-2.7 1.232-7.277 2.547-10.156.719-1.041-1.414-1.726-3.642-.75-5.281 1.657-1.017 4.189-1.89 6.719-2.063.38-.026.75-.04 1.125-.031z" fill="url(#c)"/>
 <path d="M76.172 50.818c-.251.009-.496.029-.75.063l-18.407 2.5c-4.064.548-6.891 4.279-6.343 8.344l1.75 12.812a7.371 7.371 0 008.312 6.344l18.406-2.5a7.371 7.371 0 006.344-8.313l-1.719-12.78c-.513-3.811-3.833-6.592-7.593-6.47z"/>
 <path d="M76.203 51.818c3.264-.108 6.116 2.282 6.562 5.594l1.719 12.781c.476 3.533-1.936 6.743-5.469 7.22L60.61 79.88a6.391 6.391 0 01-7.219-5.5L51.672 61.6c-.477-3.533 1.967-6.774 5.5-7.25l18.375-2.47c.22-.029.438-.054.656-.062z" fill="#b3b3b3"/>
 <path d="M40.672 55.88a7.95 7.95 0 00-.782.063c-6.666 1.132-11.646 4.313-18.75 1.938-4.064.548-5.641 4.654-5.093 8.719l.812 12.937c.548 4.065 1.217 7.454 5.281 6.906 6.91.298 15.007-1.507 21.469-3 4.065-.548 6.892-4.31 6.344-8.375l-1.719-12.75c-.514-3.81-3.802-6.559-7.562-6.437z"/>
 <path d="M40.703 56.88c3.264-.108 6.084 2.251 6.531 5.563l1.75 12.75c.476 3.533-1.967 6.774-5.5 7.25-5.99 1.834-13.751 3.965-21.125 3.032-3.533.476-4.024-2.53-4.5-6.063L17.203 66.1c-.477-3.533 1.092-6.212 4.625-6.688 6.987 1.356 11.667-1.24 18.219-2.5.22-.03.438-.024.656-.031zM9.078 57.506a6.408 6.408 0 013.531 5.781l-.031 12.906a6.362 6.362 0 01-3.875 5.875c-.093-6.353.282-12.775.281-19.062.1-1.822.117-3.664.094-5.5z" fill="#b3b3b3"/>
 <path d="M15.984 21.35c-.379-.006-.755.014-1.125.03-5.183.243-9.219 2.353-13.625 2.376-.242.407.287 1.322.875 2.25.538.144 1.096.297 1.531.406.24.06.491.14.719.25a20.026 20.026 0 012.719-.344c1.44-.07 2.863.073 4.031.625 1.024 1.263 1.052 3.243.594 4.594-1.83.595-3.79.94-5.75 1.031-.227-.88-.007-.7-.656.157a6.171 6.171 0 01-1.032 1.437c-.021.135-.039.271-.062.406-.378 2.964-.306 4.933.562 7.907.613 1.808-.525 4.756-.718 6.625-.31 2.17.282 4.298.937 6.343.703 1.794 1.587 5.932 2.406 8.688-.115 6.993-.017 14.012.438 21 .368.453.73.882 1.156 1.281 3.078.293 6.217 1.27 8.844 2.813-.063 2.078-1.042 3.772-2.969 4.625-1.675-.267-3.74-.685-5.437-1.5a8.858 8.858 0 01-1.282.343c.11.069.23.124.344.188.021.198.04.396.063.594 2.095 2.631 6.263 5.137 10 6.625 27.706 1.325 53.917-9.982 81.406-11.907 2.254-.164 5.185-1.031 8.312-1.28-.471 1.233-.938 2.481-1.5 3.655.318.412.62.798.844 1.125 2-.805 4.133-1.33 6.219-1.5 1.142 1.738 1.306 3.695.219 5.5-2.276 1.11-5.411 2.446-7.938 1.907-.88-.68-1.4-1.788-1.594-2.875-.45-.006-.822-.142-1.093-.375-1.573 2.026-1.142 4.757-1.782 7.218l-2.968 3.344c2.362-.189 4.689-.406 7-.937 11.86-2.347 13.987-10.417 15.718-20.313.997-8.502 2.124-16.864 2.063-25.437-.201-8.063-.554-16.998-4.594-24.157-.884-2.046-2.635-3.724-4.969-4.156-6.904.175-13.703 1.893-20.593 2.406-22.374 1.681-43.486 10.7-66 11.625a23.6 23.6 0 01-1.75.063c-.255-5.643.117-11.323-.594-16.938-.076-1.498-.574-2.934-.813-4.406-1.904-.986-4.468-1.308-7-1.25-.396-.026-.777-.057-1.156-.062zm1.156.906c1.575-.012 4.417.388 5.5 1.219-4.807 4.428-11.74 9.281-14.406 13.28-1.468 8.554-.79 17.31-.625 25.938-.263-1.699-1.896-7.943-2.375-9.593-.596-1.83-.476-3.743-.281-5.625.295-1.847 1.224-4.19.781-5.97-.486-2.762-.044-5.302.156-7.968 2.464-.057 4.929-.768 6.594-1.656 1.074-1.577.548-3.838-.406-5.313-2.297-1.66-5.885-1.216-8.625-.406-.406-.56-.783-1.096-1.031-1.625 4.434-.95 10.181-1.945 14.718-2.281zm6.282 2.187c.666 2.93.952 6.166 1.062 9.47-.35-1.343-1.426-2.551-2.531-3.25-3.347-.657-7.15 2.245-9.219 4.374-.689 2.332.115 4.458 2.031 5.688 3.768.034 7.86-2.904 9.75-5.375.026 1.284-.254 5.025-.562 9-5.583.477-10.758-2.166-14.125-6.75 1.927-5.38 10.447-9.83 13.594-13.157zm-2.907 7.032c1.623.007 2.446 1.971 2.969 3.437-2.094 2.42-5.101 3.943-8.219 4.531-1.474-.558-1.536-1.88-1.5-3.343 1.196-.641 2.272-2.482 5.5-4.282.467-.236.876-.345 1.25-.343zm90.219.593c1.2-.029 2.395.025 3.594.188 4.655 1.901 1.516 8.995-2.188 12.594-.023-.091-.06-.175-.062-.25-.158.01-.31.01-.469.03L93.203 47.1c-4.065.548-6.892 4.279-6.344 8.343l1.719 12.782c.548 4.064 4.279 6.891 8.344 6.343l18.375-2.468a7.224 7.224 0 002.468-.813c-.12 1.662-1.434 3.341-2.406 4.625a61.376 61.376 0 01-3.5 5.656c.543-1.517.302-3.138-.687-4.5-3.514-1.407-8.444-.126-11.094 1.5-.977 1.64-.292 3.868.75 5.282 2.756 1.75 7.049.588 9.781-.594a47.766 47.766 0 01-2.094 2.562c-.285-.086-.491.007-.031.032-.015.017-.017.045-.031.062-5.66.447-9.342.973-15.156 1.406-22.374 1.681-43.486 10.7-66 11.625-6.838.945-12.104-1.44-16.72-5.218 1.76.538 3.658.73 5.126.75 2.167-1.104 3.175-3.139 2.75-5.375-2.32-2.495-6.572-3.507-9.656-3.438-.042-.846-.074-1.682-.094-2.531a7.388 7.388 0 004.875-6.938l.031-12.906a7.422 7.422 0 00-4.562-6.906c-.034-1.69-.081-3.374-.125-5.063.016.263.067.545.125.813.283.587.53 1.173.906 1.75 2.332 1.224 4.887 1.748 7.437 2.281 1.128.257 2.215-.194 3.219-.656 1.517-.332 1.665-1.937 1.5-3.219-.208-1.215.078-2.669-.875-3.625-2.862-1.801-7.093-2.36-10.434-2.312-1.704.98-1.629 2.008-2.034 3.972-.099-3.877.505-6.334 1.029-10.162 3.58 3.9 8.321 5.956 13.658 5.19.25-.009.49-.08.719-.157 25.64-.274 50.166-10.206 75.78-12 3.583-.271 7.184-1.037 10.782-1.125zm7.344 2.75c5.216 15.275 4.464 31.43 2.625 47.125-.606 12.414-6.885 19.857-19.563 21.75.872-1.086 1.382-2.812 1.844-3.875.13-1.402.321-2.671.781-3.78.343.82.881 1.591 1.469 2.155 3.149 1.31 7.423-.794 9.875-2.468 1.14-2.149.79-4.382-.844-5.97-2.055-.437-4.395.007-6.468.845.398-1.303.584-2.725 1.218-3.844 1.67-2.637 3.53-4.31 4.875-7.188 1.09-2.86 4.563-5.324 4.907-8.468-.192-2.086-1.159-4.113-.72-6.25.363-2.22-.952-4.338-.468-6.532.58-1.493.468-3.034 0-4.5.112-.073.238-.146.344-.218 1.14-2.149.758-4.414-.875-6-1.138-.243-2.345-.186-3.563.03a26.264 26.264 0 01-1.031-1.655c4.329-3.357 5.153-6.18 5.594-11.157zm-10.281.125c-2.28.053-4.719.887-6.407 1.657-1.489 1.922-1.526 4.19-.187 6.03 3.514 1.408 8.443.127 11.094-1.5.976-1.638.291-3.866-.75-5.28-1.08-.686-2.382-.938-3.75-.907zm-.188.907c1.063-.03 2.07.077 2.969.437 1.098 1.198 1.282 3.186.906 4.563-3.047 1.199-6.519 1.698-9.75 1.406-.83-1.907-.66-3.875.719-5.469 1.52-.441 3.384-.889 5.156-.937zm-17.75 1.312c-2.28.053-4.718.855-6.406 1.625-1.49 1.923-1.495 4.19-.156 6.031 3.513 1.408 8.411.158 11.062-1.468.976-1.64.291-3.868-.75-5.282-1.08-.685-2.382-.937-3.75-.906zm-.187.875c1.063-.029 2.1.108 3 .469 1.098 1.198 1.25 3.154.875 4.531-3.048 1.2-6.52 1.73-9.75 1.438-.83-1.907-.66-3.875.718-5.47 1.52-.44 3.384-.92 5.157-.968zm-19 2.906c-2.28.053-4.687.856-6.375 1.625-1.49 1.923-1.527 4.19-.188 6.032 3.514 1.407 8.412.126 11.063-1.5.976-1.64.322-3.868-.72-5.282-1.079-.685-2.412-.906-3.78-.875zm-.188.875c1.063-.029 2.1.077 3 .438 1.098 1.198 1.25 3.185.875 4.562-3.047 1.2-6.519 1.73-9.75 1.438-.83-1.907-.66-3.875.719-5.469 1.52-.441 3.384-.92 5.156-.969zm-18.062 2.25c-2.28.053-4.687.887-6.375 1.657-1.49 1.922-1.527 4.19-.188 6.03 3.514 1.408 8.443.127 11.094-1.5.976-1.638.291-3.866-.75-5.28-1.08-.686-2.413-.938-3.781-.907zm-.188.907c1.063-.03 2.1.077 3 .437 1.098 1.198 1.282 3.154.906 4.531-3.047 1.2-6.55 1.73-9.781 1.438-.83-1.907-.66-3.875.719-5.469 1.52-.441 3.384-.889 5.156-.937zm58.875.75a9.305 9.305 0 01-.469.343c1.156 1.01 1.055.95 1.5 1.875-.022.007-.04.025-.062.032.457.051.908.11 1.344.218.29.073.576.145.843.22.792-.165 1.587-.312 2.375-.376.986 1.5 1.27 3.19.625 4.781-.062-.14-.15-.269-.218-.406-.13.327-.267.66-.344.969a8.833 8.833 0 01-.594 1.625c.283.996.382 2.02.125 3.094-.844 1.977 1.203 3.973 1.406 5.968-.029 2.021-.697 3.947-.031 5.907.03.074.04.144.063.218a6.452 6.452 0 01-2.5.907l-18.407 2.5c-3.532.476-6.71-1.968-7.187-5.5l-1.719-12.813c-.476-3.533 1.936-6.711 5.469-7.187l17.781-2.375zM20.297 49.85c.524 2.309 1.526 5.128-1.563 5.437-2.733-.574-6.041-.839-8-2.937-1.885-7.268 5.596-5 9.563-2.5zm13.593-2.625c-2.28.052-4.718.855-6.406 1.625-1.49 1.922-1.526 4.19-.187 6.03 3.513 1.408 8.443.159 11.093-1.468.977-1.639.292-3.867-.75-5.281-1.08-.685-2.382-.938-3.75-.906zm-.187.875c1.063-.03 2.07.108 2.969.468 1.098 1.198 1.281 3.155.906 4.532-3.047 1.199-6.52 1.73-9.75 1.437-.83-1.907-.66-3.875.719-5.469 1.519-.441 3.384-.92 5.156-.968zM9.078 57.506a6.408 6.408 0 013.531 5.781l-.031 12.906a6.362 6.362 0 01-3.875 5.875c-.093-6.353.282-12.775.281-19.062.1-1.822.117-3.664.094-5.5zm99.125 19.875c.828-.027 1.63-.01 2.437.062.83 1.907.66 3.875-.718 5.47-2.432.706-5.728 1.46-8.125.5-1.099-1.199-1.282-3.155-.907-4.532 2.286-.9 4.828-1.42 7.313-1.5zm-18.188.969c-.375-.01-.745.005-1.125.03-2.53.173-5.062 1.047-6.718 2.063-.977 1.64-.323 3.868.718 5.282 2.88 1.827 7.456.513 10.157-.72 1.489-1.922 1.526-4.189.187-6.03-.988-.396-2.092-.597-3.219-.625zm.25.906c.829-.027 1.661-.01 2.469.062.83 1.907.66 3.875-.719 5.47-2.43.706-5.758 1.46-8.156.5-1.098-1.199-1.282-3.155-.906-4.532 2.285-.9 4.827-1.42 7.312-1.5zM69.14 81.818c-2.65.108-5.354 1.027-7.093 2.094-.977 1.639-.323 3.867.718 5.281 2.88 1.828 7.456.513 10.157-.718 1.489-1.923 1.526-4.221.187-6.063-.878-.352-1.848-.54-2.844-.594-.373-.02-.746-.015-1.125 0zm1 .907c.829-.027 1.661-.01 2.469.062.83 1.907.66 3.875-.719 5.469-2.43.707-5.758 1.461-8.156.5-1.098-1.198-1.282-3.154-.906-4.531 2.285-.9 4.827-1.42 7.312-1.5zm-18.937 2.562c-2.65.108-5.354 1.027-7.094 2.094-.976 1.639-.291 3.867.75 5.281 2.88 1.828 7.455.482 10.156-.75 1.49-1.922 1.495-4.19.157-6.031-.879-.352-1.848-.54-2.844-.594-.374-.02-.747-.015-1.125 0zm1 .875a20.25 20.25 0 012.469.094c.83 1.907.66 3.875-.72 5.469-2.43.706-5.758 1.461-8.155.5-1.099-1.198-1.251-3.186-.875-4.563 2.285-.9 4.796-1.42 7.28-1.5zm-19.75 2.25c-.376-.01-.746.006-1.125.031-2.53.172-5.062 1.046-6.719 2.063-.976 1.639-.291 3.867.75 5.281 2.88 1.828 7.455.513 10.156-.719 1.49-1.922 1.495-4.19.157-6.03-.989-.397-2.093-.597-3.22-.626zm.25.906c.828-.026 1.66-.01 2.469.063.83 1.907.66 3.875-.72 5.469-2.43.706-5.758 1.461-8.155.5-1.099-1.198-1.251-3.155-.875-4.532 2.285-.899 4.796-1.42 7.28-1.5z"/>
</svg>
