<?xml version="1.0" encoding="UTF-8"?>
<svg width="128" height="128" xmlns="http://www.w3.org/2000/svg">
 <g>
  <path d="M30.465 30.686C32.06 35.132 41.072 45.944 47.04 52.05c12.623 12.915 29.913 27.945 42.523 37.8 6.436 5.03 14.854 17.089 21.397 22.91 0 0-9.467 1.875-10.134 1.243-.707-.67-.796-5.003-2.245-6.965C85.71 89.623 72.455 82.584 59.39 70.437c-12.196-11.51-21.7-21.362-36.587-34.527l7.662-5.224z" fill="#e6e6e6" overflow="visible"/>
  <path d="M37.304 14.877c-9.262 2.232-13.801 6.026-19.382 9.891-5.556 3.847-10.007 6.533-14.6 10.042-2.147 1.64-1.493 2.595-.977 3.28 2.952 3.92 8.662 10.266 9.983 9.926 1.134-.292 5.93-6.23 9.287-9.713.777-.806 1.56-1.655 2.482-1.88l8.184-7.459-3.053-3.96c-1.966-3.96 5.176-6.682 8.076-10.127z" fill="red" overflow="visible"/>
  <path d="M96.952 29.18c-1.49 4.482-10.247 15.502-16.07 21.746C68.565 64.133 51.63 79.563 39.254 89.71c-6.316 5.179-14.45 17.432-20.854 23.405 0 0 9.508 1.653 10.16 1.006.691-.687.678-5.021 2.082-7.016 12.46-17.712 25.546-25.059 38.323-37.509 11.923-11.79 21.195-21.863 35.77-35.372l-7.783-5.044z" fill="#e6e6e6" overflow="visible"/>
  <path d="M89.745 13.535c9.312 2.015 13.939 5.702 19.609 9.435 5.643 3.716 10.156 6.297 14.83 9.698 2.185 1.589 1.553 2.559 1.054 3.255-2.86 3.99-8.42 10.467-9.748 10.158-1.14-.266-6.074-6.09-9.512-9.493-.796-.788-1.598-1.618-2.525-1.822L95.096 27.5l2.96-4.03c1.873-4.005-5.33-6.56-8.31-9.936z" fill="red" overflow="visible"/>
 </g>
 <path d="M88.717 12.96l.728.835c1.556 1.763 4.15 3.24 6.056 4.773 1.502 1.2 3.283 3.066 2.541 4.822-1.055 1.44-2.408 2.73-3.435 4.19.672.505 1.553.903 2.188 1.453-4.378 8.094-9.97 14.968-16.169 21.65-5.051 5.415-10.89 11.207-16.866 16.854-5.83-5.28-11.513-10.678-16.467-15.746-2.973-3.042-6.693-7.25-9.882-11.26-3.107-3.907-5.722-7.66-6.553-9.8a56.315 56.315 0 011.918-1.71c-1.044-1.429-2.506-2.764-3.59-4.163-.267-2.066 1.175-3.696 2.484-4.824 1.87-1.578 4.398-3.114 5.912-4.913l.709-.852-1.09.263c-9.328 2.248-13.915 6.062-19.48 9.916-5.545 3.84-9.941 6.831-14.554 10.355-1.499 1.218-1.912 1.583-1 3.206 1.928 2.794 8.632 10.486 10.24 10.346.256-.066.483-.205.745-.415 3.122-2.857 5.826-6.38 8.734-9.415.564-.585 1.166-1.251 1.713-1.59 14.83 12.582 24.176 22.407 35.573 33.78.207.194.392.366.6.556-7.291 6.745-14.566 13.099-20.727 18.15-3.207 2.63-6.835 7.008-10.46 11.467-3.759 4.266-7.037 8.885-10.98 12.473 3.89.426 7.87 1.19 11.232 1.025 1.227-2.152.898-5.212 2.074-7.056 10.677-15.178 21.843-22.726 32.903-32.48 11.568 9.852 23.168 17.11 34.475 32.41 1.334 2.24 1.24 4.85 2.301 7.005 3.666.45 7.97-.708 11.173-1.287-4.297-3.905-8.064-8.453-11.268-12.212-3.729-4.373-7.457-8.665-10.726-11.22-6.504-5.082-14.252-11.532-21.966-18.369.463-.438.928-.878 1.39-1.329 11.656-11.526 20.822-21.402 34.819-34.44.554.326 1.127.847 1.704 1.417 1.707 1.69 3.823 4.016 5.632 5.935 1.377 1.372 2.682 2.304 4.438 3.713 3.553-3.303 8.24-7.326 10.311-11.887-.067-.675-.664-1.094-1.798-1.92-4.694-3.414-9.115-6.271-14.748-9.98-5.654-3.723-10.361-7.49-19.738-9.52zm1.124.629c8.101 2.064 14.079 5.972 19.396 9.473 5.653 3.722 10.224 6.536 14.88 9.923 1.05.764 1.193 1.291 1.231 1.673-.09 1.784-6.428 9.334-9.746 11.052-1.49-.86-2.705-2.371-3.729-3.457-2.254-3.343-6.852-6.61-8.216-7.748C91.93 46.145 80.454 57.991 68.72 69.354c-.478.465-.943.908-1.422 1.36-.993-.882-1.98-1.791-2.969-2.684 5.97-5.64 11.784-11.438 16.835-16.854 6.938-6.694 11.47-14.65 16.337-22.068l-1.895-1.665 2.738-3.751c.51-2.426-.939-4.51-2.411-5.722-1.526-1.23-4.667-3.168-6.09-4.381zm-52.628 1.334c-1.396 1.247-4.49 3.258-5.987 4.523-1.786 1.484-3.317 3.657-2.34 5.715 1.48 2.216 2.853 2.919 3.028 3.526.162.556-.753 1.06-2.026 1.962 2.284 3.834 4.671 7.467 6.934 10.326 3.207 4.033 7.57 8.294 10.565 11.36 4.95 5.064 9.996 10.438 15.816 15.708-.969.914-1.932 1.85-2.905 2.753-.224-.204-.44-.41-.664-.617C46.07 58.18 34.974 45.443 23.85 36.296c-.931.392-1.479 1.253-2.1 1.863-3.098 3.231-5.913 6.268-9.072 9.224-.23.184-.407.28-.434.287-3.58-1.616-8.117-7.497-9.585-9.795-.926-1.19-.2-2.207.565-2.801 4.575-3.495 9.347-6.152 14.912-10.006 5.234-3.625 11.027-7.892 19.078-10.145zM63.74 68.537c.995.898 2.001 1.796 3 2.684-.975.911-1.958 1.791-2.937 2.66a143.92 143.92 0 01-2.969-2.622c.973-.902 1.937-1.809 2.906-2.722zm-3.431 3.228c.983.892 1.953 1.745 2.937 2.59-11.007 9.684-21.871 17.388-32.593 32.63-1.35 2.35-1.537 4.594-2.323 6.845-3.329.084-6.758-.51-9.803-.803 3.12-3.011 7.173-7.43 10.626-11.677 3.622-4.455 7.228-8.791 10.337-11.34 6.188-5.074 13.498-11.474 20.819-18.245zm6.968-.081c7.745 6.862 15.747 13.133 22.28 18.238 3.167 2.475 6.656 6.98 10.381 11.35 3.551 4.165 7.764 8.53 10.954 11.469-3.135.372-6.679 1.449-9.95 1.298-1.259-2.3-1.222-5.394-2.449-7.218-11.36-15.37-22.647-22.696-34.154-32.478.976-.868 1.964-1.748 2.938-2.66z" font-family="Sans" font-weight="400" overflow="visible" style="block-progression:tb;text-indent:0;text-transform:none"/>
 <path d="M77.625 40.276c-9.443-.024-18.825 2.859-25.57 9.896-3.53 2.58-8.34 3.845-11.875 6.506-5.232 4.199-10.143 11.973-13.081 26.003-.314.098-4.972 1.558-9.669 3.708-9.88 3.415-13.31 11.79 0 12.717 4.618.2 10.547-.674 16.767-2.048 12.44-2.748 26.052-7.527 32.485-9.941 2.843-.762 5.834-.81 8.759-.978 11.317-1.826 28.367 2.41 36.24-7.166-1.462-3.818-10.398-4.164-13.764-4.505.878-4.23 2.162-7.881-1.479-12.375.106-3.97.291-8.558-1.137-13.15-4.595-3.035-10.814-5.866-13.627-8.485a47.554 47.554 0 00-4.05-.182z" fill="red" font-family="Bitstream Vera Sans" font-weight="400" overflow="visible" style="block-progression:tb;text-indent:0;text-transform:none"/>
 <path d="M70.14 43.984c-5.622 4.436-8.953 9.39-9.645 14.924-.693 5.534 1.04 11.199 1.865 16.993h.273c-.826-5.801-1.266-11.692-.591-17.084.674-5.392 2.525-10.189 8.007-14.514l.091-.319zm-14.013 3.708c-.686.458-.806-.592-2.139 1.593-2.272 8.7-2.325 18.141-2.73 27.117h.728c-.108-9.259.797-19.9 4.14-28.71zm10.76 30.644c-7.018 2.186-13.463 1.91-19.473 2.183-6.01.274-12.14-.74-17.7 1.82-.98 1.303-.552 2.685.774 2.048 5.37-2.58 10.947-2.866 16.949-3.14 6.002-.273 12.46-.464 19.587-2.684l-.137-.227z" font-family="Bitstream Vera Sans" font-weight="400" overflow="visible" style="block-progression:tb;text-indent:0;text-transform:none"/>
 <path d="M82.186 44.475c-3.383 2.496-6.755 2.342-8.037 6.296 5.098 11.613 3.328 12.43 5.362 18.696 1.339 2.905 3.748 6.628 7.262 6.375 3.982-.48 5.629-1.428 9.39-2.696.603-4.04.818-7.33-1.395-10.981-.476-3.883-.597-8.06-1.137-12.714-4.13-2.32-4.108.247-11.445-4.976zm3.105 7.198c2.015.108 4.628 2.607 5.551 5.278 1.055 3.053-.131 6.958-2.184 7.667-2.052.709-5.133-1.656-6.188-4.71-1.055-3.052-.05-7.412 2.002-8.12.257-.09.532-.13.82-.115zm.5 1.843a2.266 2.266 0 00-.659.137c-1.747.604-2.445 3.178-1.547 5.778.898 2.6 3.03 4.198 4.777 3.594 1.748-.604 2.446-3.178 1.547-5.778-.786-2.275-2.527-3.793-4.117-3.73z" fill="#fff" font-family="Bitstream Vera Sans" font-weight="400" overflow="visible" style="block-progression:tb;text-indent:0;text-transform:none"/>
 <path d="M77.625 39.906c-9.492-.024-18.958 2.889-25.781 9.969-.02.02-.044.011-.063.031-3.444 2.489-8.248 3.763-11.844 6.469v.031c-5.287 4.243-10.2 12.059-13.156 26a88.55 88.55 0 00-9.5 3.656c-4.987 1.736-8.5 5.122-8.969 8 .16 10.012 19.737 4.478 25.938 3.125 12.472-2.755 26.181-7.425 32.625-9.843 9.078-1.688 19.454-1.105 28-1.532 7.322-1.398 12.314-.732 17.219-6.78-3.285-4.276-9.265-4.485-13.719-4.876 1.229-4.435.925-8.898-1.563-12.125.106-3.95.288-8.547-1.156-13.187-5.05-2.797-10.105-5.402-13.719-8.657l-.093-.062-.157-.031a47.502 47.502 0 00-4.062-.188zm0 .719c1.301.004 2.61.076 3.906.187 2.928 2.665 9.316 5.455 13.813 8.407 1.367 4.48 1.01 8.936.906 12.875 2.715 4.304 2.462 8.006 1.562 12.437 4.527.958 10.774.554 13.625 4.531-3.847 4.494-10.103 5.673-16.625 6.032-9.736 1.173-18.923-.51-27.906 1.812C55.74 90.26 44.11 94.49 34.062 96.812c-3.458.955-26.19 5.461-24.968-3.062.387-2.384 3.572-5.35 8.437-7.031h.063c4.67-2.138 9.315-3.591 9.625-3.688 2.317-12.043 6.144-19.884 13.187-26.062 3.454-2.6 8.232-3.862 11.844-6.5 7.605-6.755 16.898-9.84 25.375-9.844zm4.562 3.25c-3.153 2.048-7.39 3.5-8.5 6.75 1.216 3.954 3.29 8.104 4 11.719.588 5.144 2.728 13.802 9 13.718 3.836-.502 7.13-1.619 9.907-2.562.382-4.315.283-8.478-1.344-11.375-.001-.009-.436.103-.438.094-.545-4.646-.28-9.215-.718-13.094-4.138-1.572-8.38-1.305-11.907-5.25zm.032.719c3 3.13 8.129 3.7 10.968 5.187.509 4.511.625 8.608 1.094 12.438v.125l.063.093c2.086 3.442 2.189 6.75 1.625 10.625-3.527 1.212-5.27 2.2-9.063 2.657-6.975-1.557-7.936-8.35-8.875-13.563-.447-2.43-1.386-5.673-3.844-11.312 1.755-3.119 5.437-4.457 8.032-6.25zm2.906 6.843c-1.985-.001-2.515 2.165-2.875 3.594-.789 3.611.17 6.557 3.054 8.81 2.955 2.064 4.977.482 5.894-2.546.449-1.54.372-2.918-.195-4.558-1.158-2.715-2.905-5.103-5.878-5.3zm.156.344c.82.044 3.146 1.768 4.113 2.69.09.085 1.434 2.595 1.715 3.544.119.4-.715-.277-.679-.238-1.084-3.055-3.583-4.797-5.284-4.457-1.056.365-1.563 1.168-1.873 2.323-.419 2.684.314 5.415 2.411 7.037 2.132 1.362 3.755.554 4.52-1.651-.011.043.105-2.914.692-2.835.65.087-.181 3.308-.193 3.35-.85 2.726-3.195 3.538-5.159 2.078-2.382-2.117-3.648-5.594-2.982-8.56.502-1.613 1.326-2.92 2.72-3.28zm4.466 5.493c.42 1.216.425 2.764.174 3.697-.65 1.887-2.746 2.58-4.16 1.546-1.667-1.624-2.877-4.605-2.302-6.876.25-.933 1.03-1.706 1.72-1.945 2.04-.125 4.084 2.257 4.568 3.578z" font-family="Bitstream Vera Sans" font-weight="400" overflow="visible" style="block-progression:tb;text-indent:0;text-transform:none"/>
</svg>
