<?xml version="1.0" encoding="UTF-8"?>
<svg width="128" height="128" xmlns="http://www.w3.org/2000/svg" xmlns:xlink="http://www.w3.org/1999/xlink">
 <defs>
  <linearGradient id="c">
   <stop stop-color="#803300" offset="0"/>
   <stop stop-color="#c44e00" offset="1"/>
  </linearGradient>
  <linearGradient id="b">
   <stop stop-color="maroon" offset="0"/>
   <stop stop-color="#df0000" offset="1"/>
  </linearGradient>
  <linearGradient id="a">
   <stop stop-color="#ff4000" offset="0"/>
   <stop stop-color="#ff0" offset="1"/>
  </linearGradient>
  <linearGradient id="j" x1="485.04" x2="501.42" y1="175.66" y2="110.15" gradientUnits="userSpaceOnUse" xlink:href="#b"/>
  <linearGradient id="k" x1="592.73" x2="592.73" y1="174.62" y2="126.96" gradientUnits="userSpaceOnUse" xlink:href="#b"/>
  <linearGradient id="n" x1="232.82" x2="243.24" y1="259.08" y2="249.01" gradientUnits="userSpaceOnUse" xlink:href="#c"/>
  <linearGradient id="o" x1="179.96" x2="170.77" y1="255.2" y2="245.47" gradientUnits="userSpaceOnUse" xlink:href="#c"/>
  <radialGradient id="f" cx="496.71" cy="199.02" r="85.769" gradientTransform="matrix(1.4298 -1.9338 1 .73941 -378.72 1022.8)" gradientUnits="userSpaceOnUse" xlink:href="#a"/>
  <radialGradient id="g" cx="352.96" cy="130.95" r="85.344" gradientTransform="matrix(1.4445 -.48956 .35246 1.0399 -74.036 193)" gradientUnits="userSpaceOnUse" xlink:href="#a"/>
  <radialGradient id="i" cx="514.69" cy="191.85" r="9.626" gradientTransform="matrix(1.1018 .85497 -.96042 1.2378 131.19 -487.04)" gradientUnits="userSpaceOnUse">
   <stop stop-color="#ffff82" offset="0"/>
   <stop stop-color="#ff0" offset="1"/>
  </radialGradient>
  <radialGradient id="m" cx="593.18" cy="129.46" r="40.256" gradientTransform="matrix(1 0 0 .4704 0 47.242)" gradientUnits="userSpaceOnUse" xlink:href="#a"/>
  <radialGradient id="h" cx="522.85" cy="175.27" r="49.329" gradientTransform="matrix(.50506 .60748 -.5219 .43391 349.35 -213.49)" gradientUnits="userSpaceOnUse">
   <stop stop-color="#ff1919" offset="0"/>
   <stop stop-color="#a00" offset="1"/>
  </radialGradient>
  <radialGradient id="l" cx="523.44" cy="98.47" r="40.256" gradientTransform="matrix(1 0 0 .41147 0 53.046)" gradientUnits="userSpaceOnUse" xlink:href="#a"/>
 </defs>
 <g>
  <path transform="translate(-283.36 -39.457) scale(.65776)" d="M491.75 203.625c-1-.5-14-1.625-14-1.625l-14.625-2.5-8.75-3-4.5-5-2.25-9 5.5.875 12.25-2.5 2.375-.875s-18.75-21.125-19-21.75-3.75-12.125-3.75-12.125l-.25-5.25s.75-6.25 1.125-7.25 4.5-7.375 4.5-7.375l1.75 4.25 4.125 4.625 5.5 3.375 12 4.5-3.5-8.625-1.75-9.875-.625-9.5 2.125-9.875 2.25-4.625 1.625-3.25L476 104l3.5 6.25 5.5 6.125s6.125 4.125 6.375 4.625 4.75 4 4.75 4l3-13.5 3.25-8.875s4.75-5.875 4.875-6.5 7.375-4.625 7.375-4.625h1.5L515 97.875l.375 7.25 1.5 8 4.625 8.5 4.125 3.5 5.625-4.875 6.125-4.25 4.092-2.005 3.359-2.386 3.093-2.829 2.077-3.049 1.591-3.757 1.061-5.568.31-7.38.486-6.409 4.728 9.193 1.857 7.16.486 7.866-1.812 8.75-2.343 5.215-3.889 13.037.575.442 5.524-2.872 10.784-5.26 5.745-3.623 5.7-7.027 2.387-7.69s3.403 7.425 3.403 7.601c0 .177 1.547 8.795 1.547 8.795l-.884 8.397h-.044l6.63.265.618-.044 1.281-.442 8.84-2.475 11.71-.663-2.872 1.812-6.938 6.541-4.818 6.276-11.225 34.25-1.281 4.596 2.474 3.094s4.685 1.68 5.039 1.68c.353 0 5.612-1.017 5.612-1.017l1.591-.663-2.917 7.822-7.778 9.414-7.203 3.844-8.044 2.564-86.177-5.83z" fill="url(#f)" overflow="visible"/>
  <path transform="translate(-283.36 -39.457) scale(.65776)" d="M492.313 72.813c-.11 0-.097.249-.094.906-1.151 12.808-3.057 27.312-12.813 36.594 4.219 6.266 10.57 10.131 16.469 14.75 2.575-8.317 3.185-17.446 7.625-25.032-1.291-9.45-2.287-20.393-10.406-26.625-.428-.358-.672-.594-.781-.594zm50.406 13.03l.062.5.032.22c.808 7.76-1.015 15.867-4.844 22.5-1.68-5.297-4.906-10.846-10.469-12.626 2.041 7.877-1.545 16.635-7.687 21.72-.552 1.327 1.766 3.12 2.843 4.28 1.571 1.14 4.008 2.998 5.313.594 7.189-6.845 18.868-9.198 22.969-19.125 1.17-3.757 2.235-7.854 1.625-11.75-1.748-3.728-5.993-5.495-9.844-6.312zM457.25 96.376s1.75 9.25 2.375 11.125.5 9 .5 9l-.375 10.5-2.625 9 8.375 3.5 6.75 3 .625-1-4.75-16.375L468 117.5l.25-6-1.375-3.375-1.875-4.75-3.25-3.75-4.5-3.25zM559.875 98l.5 5.375-.5 7.5L557 119.25l-3.5 10.125-1.125 5.25 4.75-2.5 12.25-5.875 5.5-3.5 2-2.75 3.125-3.125-4.125-6.375-1.875-4.75-1-4.125 1-2.75-3.5 1.875-3.375 2.25-1.375 2-3.125-4.625-2.75-2.375zm39.5 8.75l-.75 5.125-2.875 3.625-4.25 4.625-3.75 3.375c-.375.375.25 3.875.375 4.375s-.625 4.75-.625 4.75l6.375.5 7-2.625 4-.625.375-7.75-.25-4.875-2-5.25-3.625-5.25zm-164.813 27.844v1.594c.082 8.529 4.794 18.344 13.75 20.187-1.593-4.627-3.254-8.442-3.343-13.375-1.03.743-3.235-.935-4.531-1.438-2.409-1.662-4.258-4.471-5.875-6.968z" fill="url(#g)" font-family="Bitstream Vera Sans" font-weight="400" overflow="visible" style="block-progression:tb;text-indent:0;text-transform:none"/>
  <path transform="matrix(.63708 0 0 .63708 -274.35 -40.03)" d="M529.587 163.836c-4.42.319-9.4 1.558-12.003 5.42 3.755-1.308 7.369-3.047 11.422-3.452-12.555 3.751-22.777 13.099-30.458 23.424-2.682 1.824-6.491 2.657-8.292 5.743-3.815 5.765.31 13.012 4.485 17.358 9.2 8.835 22.013 12.744 34.168 15.745 10.025 2.386 20.345 3.246 30.617 2.322 9.04-.87 19.292-1.528 26.298-7.774 3.408-3.1.648-8.454-2.149-10.939-4.495-4.292-10.586-6.457-16.016-9.194-.18 2.748-.532 5.48-1.162 8.163 2.204-11.794 1.29-25.958-8.195-34.298-1.296-1.364-5.763-4.091-1.62-1.739 2.186.9-1.423-3.013-2.413-3.681-3.296-3.072-7.414-4.903-11.991-4.615-2.644-1.111-4.635-.386-6.206-1.806-2.11-.568-4.301-.814-6.485-.677zm15.067 8.485c5.342 14.57 2.947 31.409-4.485 44.751 6.258-14.158 8.532-30.644 4.13-45.654l.19.48.165.423z" fill="url(#h)" font-family="Bitstream Vera Sans" font-weight="400" overflow="visible" style="block-progression:tb;text-indent:0;text-transform:none"/>
  <path transform="matrix(.63708 0 0 .63708 -274.35 -40.03)" d="M519.643 181.179c.138.413 1.698 6.109 3.546 9.195 1.558 2.875-1.112 5.038-1.865 7.594.462 2.4 1.327 2.711 1.323 2.87-1.58.68-2.774.234-3.625 2.514-1.063 2.214.927 9.16-3.255 7.82-3.196-1.856-10.902-3.53-11.351-8.31.71-2.814 1.063-5.486 2.289-8.11l.026-.039v-.04c-.12-1.316-.18-2.366-1.177-3.175 2.547-.94 3.85-2.866 5.014-5.212 2.223-2.894 5.99-3.327 9.075-5.107z" fill="url(#i)" font-family="Bitstream Vera Sans" font-weight="400" overflow="visible" style="block-progression:tb;text-indent:0;text-transform:none"/>
  <path transform="matrix(.63708 0 0 .63708 -274.35 -40.03)" d="M517.907 126.99c-10.25 2.99-21.01 7.419-30.655 12.762-13.495 7.304-25.501 16.764-38.398 24.88 5.35 9.093 10.88 18.45 20.897 22.906 1.902.652 4.51 3.062 5.663 1.012 1.695.126 4.62-2.67 6.824-3.658 7.588-4.497 15.306-8.847 21.956-14.668-1.187-1.994-4.473-3.762-2.387-6.26 1.391-2.588 4.817-3.389 7.453-3.097 1.453 1.315 3.184 4.036 4.452 1.162 2.59-2.832 5.635-5.796 7.263-8.492-1.557-1.471-2.443-4.74-5.541-6.867-1.98-1.975-3.745-3.856-1.647-6.346 1.802-4.31 3.088-8.685 4.12-13.335z" fill="url(#j)" font-family="Bitstream Vera Sans" font-weight="400" overflow="visible" style="block-progression:tb;text-indent:0;text-transform:none"/>
  <path transform="matrix(.63708 0 0 .63708 -274.35 -40.03)" d="M560.56 127.506c.995 5.379 2.784 10.746 5.228 15.616-2.853 3.385-5.684 6.79-8.55 10.163 1.91 2.316 1.81 1.51 2.43 2.85 2.179 2.362 3.675 5.497 6.345 7.475 1.765-1.706 3.649-3.85 6.26-2.678 2.315.668 5.344 2.508 5.065 5.259-1.49 2.058-4.809 4.245-1.193 5.808 8.846 5.915 17.641 11.348 26.466 16.724.695.432 2.397 1.09 4.314-.399 9.118-3.823 15.712-11.47 20.424-19.94 2.626-2.683 2.393-4.828-1.09-6.05-20.729-13.833-41.948-28.963-66.085-35.377l.297.422.09.127z" fill="url(#k)" font-family="Bitstream Vera Sans" font-weight="400" overflow="visible" style="block-progression:tb;text-indent:0;text-transform:none"/>
  <path d="M50.354 47.963c-.353.492-2.577 2.469-1.04 1.031.213-.182 1.787-1.875 1.04-1.031zM50.62 56.226c-1.486-1.12-2.886-2.525-3.822-4.173l3.823 4.173zM91.34 52.218c-.943 1.54-2.265 2.893-3.68 3.967 1.167-1.248 2.775-3.095 3.68-3.967zM47.558 59.741c-5.813 3.935-9.975 9.709-14.47 15.026 4.29-5.58 8.17-11.606 14.47-15.026zM98.062 66.34c2.553 2.732 4.89 5.674 7.215 8.612-2.555-3.058-5.02-6.191-7.709-9.127l.494.514z" fill="maroon" font-family="Bitstream Vera Sans" font-weight="400" overflow="visible" style="block-progression:tb;text-indent:0;text-transform:none"/>
  <path transform="matrix(.63708 0 0 .63708 -274.35 -40.03)" d="M522.069 71.752c-2.224 5.076-2.067 10.767.48 15.656.812 2.16.884 3.865.714 6.155 3.981-4.742 3.996-11.29.83-16.648-1.08-2.082-1.137-4.355-1.476-6.647-.247.452-.3 1.033-.548 1.484z" fill="url(#l)" font-family="Bitstream Vera Sans" font-weight="400" overflow="visible" style="block-progression:tb;text-indent:0;text-transform:none"/>
  <path transform="matrix(.63708 0 0 .63708 -274.35 -40.03)" d="M593.6 84.142c2.278 4.229 2.331 9.193.451 13.551-1.198 3.835-.178 6.789 1.153 10.448.227-5.038 3.707-7.98 5.655-12.352 1.146-5.64-3.958-9.84-7.679-13.196l.42 1.549z" fill="url(#m)" font-family="Bitstream Vera Sans" font-weight="400" overflow="visible" style="block-progression:tb;text-indent:0;text-transform:none"/>
  <path d="M58.716 4.216c-1.857 2.551-1.609 8.366-1.113 9.887.742 2.165 1.618 4.347 1.155 6.355 1.391-2.288 2.327-4.595 2.529-5.917.155-3.66-2.419-6.499-2.571-10.325zm-.287 1.483c-.001 3.303 2.444 5.299 2.141 8.606-.174 1.141-.332 2.841-1.441 4.77.348-1.87-.15-3.44-.86-5.09-.688-1.704-1.43-3.954.16-8.286zM40.317 7.63c-.764 10.062-1.507 17.153-8.024 25.1-1.446-2.161-2.62-4.821-3.76-8.622-2.126 2.612-3.358 5.658-3.944 8.917-1.158-3.147-1.531-6.163-7.695-9.482 2.22 8.761 3.327 17.37.362 25.674-1.475-1.44-2.976-3.64-4.585-6.533-2.591 2.464-3.425 7.976-3.658 11.952-2.7-.102-3.778-2.453-6.608-5.52-.663 5.863 2.78 12.69 8.951 14.69.116.29.231.579.354.868.078-.092.185-.203.32-.337-1.097-3.046-1.68-5.899-2.317-8.715-.59-4.14.208-7.926 2.764-11.277 2.327 4.13 4.289 5.976 6.457 7.038 2.02.989 4.483 1.724 7.35 2.747.228-.139.457-.281.69-.421-3.058-1.09-5.58-1.96-7.653-2.975a7.106 7.106 0 01-1.323-.86c1.454-6.656 3.477-14.125-.101-24.999 3.317 2.554 5.762 4.695 6.498 9.398-.812 6.31.62 13.292 2.596 19.427.383-.23.77-.46 1.163-.69-2.907-7.022-6.082-15.103.076-27.798 2.366 10.558 7.926 11.62 14.775 17.902 2.835-9.489 3.036-18.88 12.828-22.25-2.132 11.144.228 16.85 6.861 22.925 4.518-7.434 12.893-7 16.604-15.155 1.101-2.876 1.575-6.899 1.298-12.65 3.861 5.317 4.937 10.955 4.172 17.328-2.135 6.165-4.276 12.342-5.183 16.402 1.368-.844 2.915-1.693 4.517-2.529-.059-.171-.114-.34-.168-.514-1.157.54-2.265 1.107-3.27 1.745.196-2.45 1.043-4.858 1.989-7.29l-.177-.254c.082.024.162.052.244.076.957-2.454 2.003-4.936 2.58-7.526.498-2.242.514-4.946-.01-7.847 1.042 1.1 2.12 2.426 3.313 4.273 1.238-1.927 3.21-3.075 5.234-3.995-1.326 4.506 1.828 7.66 3.835 11.336l.118-.018c-1.43 2.319-3.417 4.244-5.647 5.674-.482.272-.969.534-1.466.783.097.038.197.072.295.11.54-.27 1.069-.54 1.576-.8 3.82-2.163 6.772-5.072 7.644-10.528 3.34 7.02 3.392 11.452 2.512 15.18l.405-.388c.407-1.62.68-3.404.59-5.462 2.823-2.6 7.674-6.078 7.155-10.282 4.002 4.013 3.774 9.088 3.448 14.286-2.155.481-4.285 1.19-6.322 2.04.023.024.046.05.068.076 4.847-1.78 9.94-2.12 12.92-1.779-3.32 1.666-6.092 4.952-8.335 8.47l.775.481c2.62-4.36 5.446-8.354 9.794-9.718a19.97 19.97 0 00-3.397-.244c-1.73.017-3.485.243-5.225.615.196-4.09 2.24-10.013-4.03-15.272 1.017 4.195-4.012 8.213-6.885 10.72-.23-2.954-1.221-6.468-3.6-10.847-.179 2.424-.975 4.697-2.19 6.71-1.66-3.708-4.77-6.902-3.65-11.59-2.183.745-3.997 2.025-5.487 3.76-.622-1.273-1.566-2.388-3.532-4.055-.748-3.762-2.403-7.825-5.116-11.631-.047 2.037.004 4.717-.092 7.417-1.43-2.349-4.233-3.46-6.718-4.4.827 4.83.012 11.298-2.89 15.348-1.03-3.651-3.594-6.306-6.963-8.293.608 6.36-1.085 11.359-4.897 14.767-2.702-4.373-3.831-11.756-1.955-18.18-4.292 1.28-6.923 3.218-8.673 5.646-1.354-8.45-.815-13.5-7.585-18.155zm.42 1.416c5.94 4.838 5.78 11.922 6.76 17.346-2.698 4.2-3.108 9.738-4.871 15.854-4.765-3.683-7.844-5.886-10.207-9.339 5.853-5.402 7.688-15.263 8.319-23.86zm62.481 3.127c1.839 3.672 1.688 6.076 1.087 8.024-.6 1.949-1.249 4.64.455 9.196.551-2.422 2.345-5.553 3.583-7.965.732-4.209-.74-6.125-5.125-9.255zm.91 1.273c1.992 2.065 4.906 4.57 3.894 7.746-.695 1.78-2.56 3.55-3.16 7.105-1.418-4.106-.464-5.962.11-7.822.56-1.817.604-3.784-.844-7.029zM74.022 17.44c2.358.533 5.097 1.8 5.942 4.307-.119 2.459-.382 4.882-.986 6.794-3.074 7.446-10.534 7.643-16.065 13.468-1.61-.394-3.047-1.644-4.214-3.439 3.68-2.553 6.646-9.599 5.369-14.084 3.095 1.069 5.588 5.445 6.313 8.538 2.112-2.595 4.439-10.3 3.64-15.584zM2.818 50.117c1.704 2.602 4.205 4.323 6.162 4.956l.008-.033-.008.177c.29 2.196.994 4.904 2.04 7.695-5.61-1.24-8.364-8.7-8.202-12.795zM104.836 77.4c-.281 1.111-.618 2.162-1.045 3.119 2.283 4.149 6.556 4.803 9.853 2.436-2.098 6.243-6.385 11.018-13.275 14.075.075.12.152.24.22.363 6.577-2.316 11.767-5.171 13.544-15.028-2.891 1.771-8.469 1.16-9.794-1.602.412-.938.733-1.966.995-3.05l-.498-.313zm-81.553 1.602c-3.511 1.081-9.092 2.402-12.61.725-.05 6.995 4.451 11.201 10.696 12.558l18.56 2.68a24.07 24.07 0 01-.826-.784c-5.34-.523-12.148-1.594-17.413-2.57-6.17-.918-9.504-4.507-10.123-10.62 3.839 1.114 8.478-.292 12.078-1.812-.12-.061-.245-.115-.362-.177z" font-family="Bitstream Vera Sans" font-weight="400" overflow="visible" style="block-progression:tb;text-indent:0;text-transform:none"/>
  <path transform="translate(-60.039 -53.056) scale(.62787)" d="M148.375 159.156a4.47 4.47 0 00-.594.063c-2.621.08-5.855 2.879-3.25 5.469.7 3.787 3.611.058 5.688-.563 2.079-.63 3.62-1.94 1.625-3.5-.773-.975-2.137-1.536-3.469-1.469zm26.063 24.344a6.476 6.476 0 00-1.063.094c-3.295.276-6.81 2.995-6.844 6.281 2.851 3.288 5.758 6.504 8.656 9.75 2.895-2.782 5.944-5.236 9.344-7.25-3.018-2.896-5.913-6.158-9-8.844a27.1 27.1 0 00-1.094-.031zm69.468 68.25l-.281.094c-5.874 1.512-12.083 2.359-18.188 2.875 4.674 4.893 9.484 10.675 14.094 15.093 4.422 2.776 10.677-.27 11.344-5.375.766-1.176-.032-4.094 1.125-4.187-2.253-3.2-5.486-5.587-8.094-8.5z" fill="url(#n)" font-family="Bitstream Vera Sans" font-weight="400" overflow="visible" style="block-progression:tb;text-indent:0;text-transform:none"/>
  <path transform="translate(-60.039 -53.056) scale(.62787)" d="M262.188 159.188c-1.813.179-4.098 2.235-3.47 3.656 2.402 1.232 4.757 2.519 7.126 3.812 1.037-1.977 3.246-4.663.719-6.25-1.18-.964-2.819-1.342-4.375-1.219zM236.563 183.5c-4.823 2.608-8.357 9.062-13.438 12.5 1.629 2.38 3.235 4.517 5.406 6.469 1.453 2.282 2.688 4.31 4.469.75 3.919-4.64 8.401-9.09 12-13.813-.682-3.86-4.765-6.112-8.438-5.906zm-62.313 61.469l-.25.25c-4.79 5.071-10.226 9.641-14.625 15.031 1.204.028.327 3.057 1.125 4.188.645 5.42 7.794 8.228 11.844 5 5.793-6.18 11.485-12.452 17.219-18.688-5.246-1.543-10.388-3.413-15.313-5.781z" fill="url(#o)" font-family="Bitstream Vera Sans" font-weight="400" overflow="visible" style="block-progression:tb;text-indent:0;text-transform:none"/>
  <path d="m122.82 62.277 3.884 2.664-4.106 7.048-5.273 4.995-6.881 3.663-2.276-2.386c5.633-4.35 10.924-9.143 14.652-15.984zm-107.39 0.111-3.885 2.664 4.107 7.048 5.272 4.995 6.881 3.663 2.276-2.387c-5.632-4.348-10.924-9.142-14.651-15.983z" fill="#b46868" overflow="visible"/>
  <path d="M36.456 48.508l-1.593-1.56c-2.41-.883-2.91.15-4.197.388-.477.35-1.014 1.164-1.096 1.736.097.89.633 1.714 1.189 2.444-11.63 6.499-19.287 12.946-19.217 13.427 2.997 6.27 5.792 12.426 16.241 15.964 6.58-3.5 12.902-7.713 19.04-12.02.91 1.11 1.83 2.218 2.756 3.321-2.502 2.528-4.732 5.542-6.658 8.673-3.913 1.36-8.279 4.28-6.895 8.926 1.166 3.012 4.94 6.843 11.219 10.224.529.285 1.078.573 1.643.85a1155.816 1155.816 0 01-8.723 8.927c-.16 2.498.245 4.522 1.862 6.338 1.562 1.225 4.322 1.454 6.38.624l.026-.009.025-.017c3.591-3.99 7.239-7.96 10.898-11.926 4.184 1.178 8.902 2.101 14.16 2.621 1.667.072 4.426.028 7.569-.21a1138.07 1138.07 0 018.681 9.515l.026.017.025.009c2.06.83 4.818.601 6.38-.624 1.618-1.816 2.023-3.84 1.863-6.338a938.304 938.304 0 01-4.51-4.594c3.724-1.055 6.74-2.555 7.789-4.644.35-6.141-9.221-9.611-13.747-11.378l-.009.016c.09-1.58.069-3.296-.126-5.208-.275-2.692-.863-5.398-2.183-7.83a401.708 401.708 0 006.127-7.283c6.165 4.007 12.636 8.013 19.04 12.02 10.45-3.538 13.244-9.694 16.242-15.964.07-.481-7.588-6.928-19.217-13.427.556-.73 1.091-1.554 1.188-2.444-.583-2.378-3.296-2.642-5.293-2.124l-1.593 1.56c-5.842-2.915-12.391-5.65-19.292-7.637.077.109.151.22.227.329.686 3.33 1.14 7.074 3.532 9.887-3.122 2.825-4.856 4.956-5.563 6.574 1.033 2.386 3.194 4.573 4.998 6.616a364.011 364.011 0 00-5.63 5.2c-2.141-2.231-5.686-3.958-8.783-3.565a17.474 17.474 0 00-2.309-.581c-1.916-.828-3.907-1.318-5.993-1.315-2.676.06-5.613 1.425-7.231 3.16a348.83 348.83 0 00-3.17-2.899c1.808-1.98 3.538-4.165 4.931-6.33l.127-.016c-.688-2.657-3.69-5.006-5.622-6.844 1.88-2.228 2.985-9.468 3.76-10.216-6.691 1.858-13.051 4.639-19.294 7.637zm9.617 2.899c1.332 2.74 3.581 4.64 5.807 6.127-10.44 3.326-14.733 11.852-20.633 19.04-5.649-4.247-10.27-9.22-13.696-15.415 10.867-7.305 21.194-14.835 37.38-19.757-2.344 3.893-5.35 7.156-8.858 10.005zm74.6 9.752c-4.107 5.91-8.917 10.597-13.687 15.348-7.246-8.81-10.51-14.122-20.642-18.973 2.227-1.487 4.476-3.387 5.808-6.127-3.982-2.886-6.468-6.408-8.859-10.005 13.791 3.919 25.641 11.84 37.38 19.757zm-65.59-19.31c-.883 3.194-1.8 6.488-3.346 9.347l5.42 6.448c-1.708-.053-3.417-.149-5.125-.346l-5.2-5.697c1.461.11 2.481.647 4.964-.085l-.05-.27c-1.824.304-3.344.097-5.032.077 4.184-2.345 6.067-6.031 8.37-9.474zm28.058 0c2.302 3.443 4.186 7.129 8.37 9.474-1.689.02-3.208.227-5.032-.076l-.05.27c2.482.73 3.502.195 4.964.084l-5.2 5.697c-1.708.197-3.417.293-5.125.346l5.42-6.448c-1.546-2.859-2.463-6.153-3.347-9.347zm-49.913 5.344c1.022-.003 1.89.544 2.444 1.71a138.015 138.015 0 00-4.189 2.217L30.38 49.04c.259-1.31 1.665-1.766 2.85-1.846zm71.768 0c1.222.063 2.545.554 2.85 1.846l-1.105 2.081a138.037 138.037 0 00-4.189-2.216c.554-1.167 1.422-1.714 2.444-1.711zm-52.88 10.535c1.87.4 3.555.428 5.133.245-1.387 1.976-3.464 3.642-5.26 5.79-.729-.524-1.247-1.294-1.98-1.77-2.881.204-5.037.844-5.537 4.063.663.704 1.307 1.546 1.938 2.317-5.72 4.912-12.074 7.872-17.312 11.354 7.517-7.68 13.297-18.17 23.018-21.999zm33.992 0c9.722 3.829 15.501 14.318 23.018 21.999-5.237-3.482-11.59-6.442-17.312-11.354.632-.773 1.266-1.54 1.888-2.317h.05c.587-1.254-1.468-4.28-5.537-4.063-.681.566-1.319 1.18-1.98 1.77-1.962-1.526-2.855-4.192-5.26-5.79 1.579.183 3.263.156 5.133-.245zM17.332 61.31c2.512 5.967 8.183 10.87 13.797 15.455A41.968 41.968 0 0127.8 80.35c-9.764-3.75-12.224-9.638-15.963-15.44a258.568 258.568 0 005.495-3.6zm103.56 0a258.536 258.536 0 005.496 3.6c-3.74 5.802-6.199 11.69-15.964 15.44-1.19-1.143-2.284-2.367-3.329-3.632 4.936-4.894 10.025-10.013 13.798-15.408zm-70.74 1.206l5.15 5.15c-1.935 1.144-3.671 2.607-5.326 4.138-1.743-1.98-3.5-3.88-5.21-5.883.655-2.453 2.968-3.62 5.387-3.405zm38.586-.042c2.136.03 4.325 1.25 4.72 3.447-2.865 3.165-5.68 6.42-8.547 9.617a13.962 13.962 0 00-3.253-3.684c-.25-.609-.638-1.216-1.12-1.803 2.173-1.427 5.946-7.484 8.2-7.577zm-21.644 2.63c-.152-.011-.304-.02-.455-.026-3.572-.153-7.156.54-10.443 2.174 1.733-1.683 4.588-2.568 7.366-2.604 1.2-.039 2.376.156 3.532.455zm4.045 1.053l-.134.092c5.021 11.828 1.871 26.684-3.49 35.636l.21.16c6.621-8.829 10.108-23.753 3.65-35.871 3.287-.429 7.132 2.467 8.774 4.627-1.355-.843-2.953-1.57-4.846-2.15l-.101.253c7.715 3.186 10.701 8.913 11.446 15.062.744 6.149-.778 12.71-2.15 17.498l.262.075c1.029-3.593 2.49-7.136 2.815-12.06 3.791 1.897 12.8 5.07 11.884 11.015-3.816 6.1-19.817 6.19-26.111 6.136-11.174-1.105-20.003-3.879-26.247-7.24-6.243-3.361-8.216-6.717-9.338-9.617-1.49-4.537 1.191-7.097 4.83-8.36a69.969 69.969 0 00-1.981 3.514l.236.126c3.169-6.027 8.072-11.181 13.333-14.893 3.782-2.667 7.747-4.593 11.96-4.72 1.702-.098 3.368.272 4.998.717zm-13.83 8.116c-1.908 1.456-5.495 1.78-6.836 3.928-.754 1.395-1.877 3.275-3.59 3.565.32.687.527 1.415.792 2.335-.028.057-1.055 3.153-1.459 5.04.468 3.019 5.639 5.07 8.016 6.144 2.888.916 2.096-3.997 2.604-5.663.895-.638 1.786-1.153 2.68-1.08-.443-.959-.943-.822-1.137-2.46.585-1.764 2.269-2.966 1.239-4.965-.782-2.27-1.848-4.253-2.31-6.844zm-.608 1.121c.088.264 1.082 3.892 2.26 5.858.991 1.832-.71 3.21-1.19 4.838.295 1.53.846 1.728.844 1.829-1.007.433-1.767.149-2.31 1.601-.677 1.411.591 5.836-2.073 4.982-2.036-1.182-6.946-2.25-7.232-5.293.453-1.794.678-3.496 1.458-5.167l.017-.025v-.026c-.077-.838-.114-1.507-.75-2.022 1.623-.6 2.453-1.826 3.194-3.321 1.417-1.844 3.816-2.12 5.782-3.254zm-3.034 5.63c-1.687 0-3.407 1.632-3.826 3.633-.42 2.002.614 3.633 2.3 3.633 1.688 0 3.4-1.631 3.819-3.633.42-2.001-.606-3.632-2.293-3.632zm-.337.843c1.553 0 2.097 1.082 1.711 2.925-.386 1.843-1.211 2.722-2.765 2.722-1.553 0-2.173-.947-1.786-2.79.386-1.842 1.287-2.857 2.84-2.857zm-3.894 19.276c2.62 1.25 5.603 2.411 8.951 3.405-3.278 3.56-6.555 7.122-9.819 10.696.3-2.088-.113-3.564-2.276-4.838-1.547-1.004-3.573-1.845-5.512-.615l8.656-8.648zm43.575 4.223l4.434 4.425c-1.94-1.23-3.965-.39-5.513.615-2.163 1.274-2.576 2.75-2.275 4.838-2.474-2.708-4.952-5.41-7.434-8.108 3.52-.313 7.412-.867 10.788-1.77zM46.006 110.7c1.324.886 2.584 2.49 2.25 4.88-1.397 1.489-3.8 1.233-5.394.287-1.395-1.094-2.11-3.034-2.175-5.53 1.71-.983 3.69-.587 5.319.363zm49.323-.944c.772-.001 1.542.172 2.208.582-.065 2.495-.78 4.435-2.174 5.529-1.512 1.037-4.07 1.154-5.394-.287-.334-2.39.926-3.994 2.25-4.88a5.798 5.798 0 013.11-.944z" font-family="Bitstream Vera Sans" font-weight="400" overflow="visible" style="block-progression:tb;text-indent:0;text-transform:none"/>
  <path d="M104.836 77.4c-.281 1.111-.618 2.162-1.045 3.119 2.283 4.149 6.556 4.803 9.853 2.436-2.098 6.243-6.385 11.018-13.275 14.075.075.12.152.24.22.363 6.577-2.316 11.767-5.171 13.544-15.028-2.891 1.771-8.469 1.16-9.794-1.602.412-.938.733-1.966.995-3.05l-.498-.313zM23.283 79.002c-3.511 1.081-9.092 2.402-12.61.725-.05 6.995 4.451 11.201 10.696 12.558l18.56 2.68a24.07 24.07 0 01-.826-.784c-5.34-.523-12.148-1.594-17.413-2.57-6.17-.918-9.504-4.507-10.123-10.62 3.839 1.114 8.478-.292 12.078-1.812-.12-.061-.245-.115-.362-.177z" font-family="Bitstream Vera Sans" font-weight="400" overflow="visible" style="block-progression:tb;text-indent:0;text-transform:none"/>
 </g>
</svg>
