<?xml version="1.0" encoding="UTF-8"?>
<svg width="128" height="128" xmlns="http://www.w3.org/2000/svg" xmlns:xlink="http://www.w3.org/1999/xlink">
 <defs>
  <linearGradient id="b">
   <stop stop-opacity="0" offset="0"/>
   <stop stop-opacity=".239" offset="1"/>
  </linearGradient>
  <linearGradient id="d" x1="-141.79" x2="-172.58" y1="-.127" y2="-103.86" gradientUnits="userSpaceOnUse">
   <stop stop-color="#ffbd00" offset="0"/>
   <stop stop-color="#ffeb00" offset="1"/>
  </linearGradient>
  <linearGradient id="j" x1="61.469" x2="66.326" y1="81.765" y2="91.576" gradientUnits="userSpaceOnUse" xlink:href="#b"/>
  <linearGradient id="i" x1="61.43" x2="63.021" y1="71.962" y2="80.182" gradientUnits="userSpaceOnUse" xlink:href="#b"/>
  <radialGradient id="h" cx="52.576" cy="1005.1" r="20.738" gradientTransform="matrix(1.3229 -.00404 .0014 .45791 -16.778 545.68)" gradientUnits="userSpaceOnUse" xlink:href="#b"/>
  <radialGradient id="g" cx="59.06" cy="63.487" r="9.791" gradientTransform="matrix(-.58677 -.84793 1.1282 -.78072 12.38 160.21)" gradientUnits="userSpaceOnUse" xlink:href="#b"/>
  <filter id="f">
   <feGaussianBlur stdDeviation="2.683"/>
  </filter>
  <filter id="e">
   <feGaussianBlur stdDeviation="1.482"/>
  </filter>
  <filter id="c">
   <feGaussianBlur stdDeviation="2.846"/>
  </filter>
 </defs>
 <path transform="translate(0 -924.36)" d="M103.4 1046.057c-10.436 8.017-23.275-16.254-36.434-16.21-13.65.048-26.692 24.19-37.946 16.466-10.849-7.447 8.267-27.158 4.158-39.659-4.263-12.967-31.254-17.91-27.385-31 3.73-12.62 28.383-.53 39.002-8.302 11.016-8.061 7.376-35.259 21.021-35.624 13.154-.353 9.275 26.83 19.947 34.528 11.071 7.985 35.813-3.881 40.377 8.983 4.4 12.402-22.65 17.112-26.674 29.641-4.174 12.997 14.758 32.86 3.933 41.177z" fill-opacity=".569" filter="url(#c)"/>
 <path transform="rotate(5.911 -1090.8 2059.3) scale(.90267)" d="M-116 8c-10.584 10.025-27.5-15.256-41.996-13.704-15.036 1.609-26.653 29.7-39.935 22.473-12.805-6.969 6.01-30.87.056-44.176-6.177-13.803-36.484-16.17-33.714-31.036 2.67-14.331 31.216-3.823 42.031-13.597 11.219-10.14 4.105-39.695 19.099-41.655 14.455-1.889 13.282 28.507 25.92 35.772 13.11 7.536 39.02-8.363 45.518 5.292 6.263 13.164-23.007 21.44-26.011 35.706C-128.15-22.128-105.021-2.4-116 8z" fill="url(#d)"/>
 <path transform="translate(0 -924.36)" d="M63.344 930.768c-8.214 1.377-8.967 11.724-11.137 18.09-1.888 8.645-6.148 19.599-16.52 20.067-9.494 1.743-20.245-3.24-28.968 1.843-3.011 2.396-2.89 7.781-.532 10.125.215-8.122 9.86-9.866 16.343-8.957 8.979.167 21.65 3.383 27.032-6.199 5.876-9.322 4.174-22.916 13.126-30.187 2.048-1.54 5.246-1.658 7.343-1.282-1.437-2.33-3.947-3.867-6.687-3.5zm22.593 35.938c7.365 8.088 19.756 3.771 29.313 4.469 2.367-.065 5.435.523 7.25.968-5.581-7.082-16.053-3.383-23.844-3.875-4.186.231-9.27-.272-12.719-1.562zm-53.156 41.562c.252 11.212-9.363 20.76-7.75 31.907.365 1.333 1.916 3.536 1.532.53 1.403-10.645 10.667-20.639 6.937-31.562-.184-.315-.978-2.163-.719-.875z" fill="#fff" fill-opacity=".798" filter="url(#e)"/>
 <path transform="translate(0 -924.36)" d="M64.313 931.018c6.897 9.529 4.119 24.526 14.28 31.844 1.463.828 4.865 2.199 2.126-.094-7.285-8.844-4.803-22.715-12.938-30.937-.8-.549-3.496-1.632-3.469-.813zm17.75 33.188c.117.108.046-.03 0 0zm34.374 4.219c4.87 4.997 1.537 12.8-3.906 15.906-7.404 6.165-20.152 9.721-21.437 20.562-.596 11.987 10.282 22.566 7.219 34.688-.474 2-2.945 3.754-3.782 4.719 6.478 2.299 11.208-5.72 8.813-11.313-2.128-10.716-11.162-21.94-5.719-32.875 5.97-10.146 20.307-12.024 25.719-22.406 1.502-4.58-2.997-9.24-6.906-9.281zm-59.156 59.25c-10.807 1.686-18.176 12.698-27.375 16.906 9.173 1.04 15.266-8.161 22.344-12.469 1.693-1.756 6.832-3.67 7.219-4.406-.723-.068-1.467-.168-2.188-.031z" fill-opacity=".237" filter="url(#f)"/>
 <path d="m90.448 57.947c0 6.538-4.384 11.839-9.791 11.839-5.408 0-9.792-5.3-9.792-11.839 0-6.538 4.384-11.839 9.792-11.839 5.407 0 9.791 5.3 9.791 11.84z" fill="#fff"/>
 <path d="m85.644 59.905c0 3.49-2.272 6.32-5.075 6.32s-5.075-2.83-5.075-6.32 2.272-6.32 5.075-6.32 5.075 2.83 5.075 6.32z"/>
 <path d="m82.21 55.606c1.004 1.08 0.648 3.044-0.795 4.386-1.444 1.342-3.428 1.554-4.432 0.474s-0.648-3.044 0.795-4.386c1.444-1.342 3.428-1.554 4.432-0.474z" fill="#fff"/>
 <path transform="translate(27.605 -4.985)" d="m62.843 62.932c0 6.538-4.384 11.839-9.792 11.839-5.407 0-9.79-5.3-9.79-11.84 0-6.537 4.383-11.838 9.79-11.838 5.408 0 9.792 5.3 9.792 11.839z" fill="url(#g)"/>
 <path d="M40.844 74.579c.885 8.065 10.969 14.437 23.312 14.437 12.344 0 22.459-6.372 23.344-14.437H40.844z"/>
 <path d="m43.72 75.825c0.786 6.375 9.75 11.411 20.723 11.411s19.965-5.036 20.752-11.411h-41.476z" fill="red"/>
 <path transform="translate(0 -924.36)" d="m43.72 1000.2c0.786 6.375 9.75 11.411 20.723 11.411s19.965-5.036 20.752-11.41h-41.476z" fill="url(#h)"/>
 <path d="M48.75 75.813l.619 2.943h28.549l.707-2.944zM78.938 81.406c-11.228 4.342-19.891 3.004-27.844.094l-1.469 2.031c3.768 2.278 8.999 3.719 14.813 3.719 6.153 0 11.69-1.578 15.5-4.094-.5-.84-1-1.75-1-1.75z" fill="#fff"/>
 <path d="M48.75 75.813l.619 2.943h28.549l.707-2.944z" fill="url(#i)"/>
 <path d="M78.938 81.406c-11.228 4.342-19.891 3.004-27.844.094l-1.469 2.031c3.768 2.278 8.999 3.719 14.813 3.719 6.153 0 11.69-1.578 15.5-4.094-.5-.84-1-1.75-1-1.75z" fill="url(#j)"/>
 <path d="m59.335 57.947c0 6.538-4.383 11.839-9.791 11.839s-9.791-5.3-9.791-11.839c0-6.538 4.383-11.839 9.79-11.839 5.409 0 9.792 5.3 9.792 11.84z" fill="#fff"/>
 <path d="m54.531 59.905c0 3.49-2.272 6.32-5.075 6.32s-5.075-2.83-5.075-6.32 2.272-6.32 5.075-6.32 5.075 2.83 5.075 6.32z"/>
 <path d="m51.097 55.606c1.005 1.08 0.648 3.044-0.795 4.386s-3.428 1.554-4.432 0.474-0.648-3.044 0.796-4.386c1.443-1.342 3.427-1.554 4.431-0.474z" fill="#fff"/>
 <path transform="translate(-3.508 -4.985)" d="m62.843 62.932c0 6.538-4.384 11.839-9.792 11.839-5.407 0-9.79-5.3-9.79-11.84 0-6.537 4.383-11.838 9.79-11.838 5.408 0 9.792 5.3 9.792 11.839z" fill="url(#g)"/>
</svg>
