<?xml version="1.0" encoding="UTF-8"?>
<svg width="256" height="256" xmlns="http://www.w3.org/2000/svg" xmlns:xlink="http://www.w3.org/1999/xlink">
 <defs>
  <linearGradient id="G" x1="61.43" x2="63.021" y1="71.962" y2="80.182" gradientUnits="userSpaceOnUse" xlink:href="#b"/>
  <linearGradient id="b">
   <stop stop-opacity="0" offset="0"/>
   <stop stop-opacity=".239" offset="1"/>
  </linearGradient>
  <linearGradient id="al" x1="61.469" x2="66.326" y1="81.765" y2="91.576" gradientUnits="userSpaceOnUse" xlink:href="#b"/>
  <linearGradient id="ah" x1="-141.79" x2="-172.58" y1="-.127" y2="-103.86" gradientUnits="userSpaceOnUse" xlink:href="#a"/>
  <linearGradient id="a">
   <stop stop-color="#ffbd00" offset="0"/>
   <stop stop-color="#ffeb00" offset="1"/>
  </linearGradient>
  <radialGradient id="W" cx="59.06" cy="63.487" r="9.791" gradientTransform="matrix(-.58677 -.84793 1.1282 -.78072 12.38 160.21)" gradientUnits="userSpaceOnUse" xlink:href="#b"/>
  <radialGradient id="F" cx="52.576" cy="1005.1" r="20.738" gradientTransform="matrix(1.3229 -.00404 .0014 .45791 -16.778 545.68)" gradientUnits="userSpaceOnUse" xlink:href="#b"/>
  <filter id="c" color-interpolation-filters="sRGB">
   <feGaussianBlur stdDeviation="2.846"/>
  </filter>
  <filter id="f" color-interpolation-filters="sRGB">
   <feGaussianBlur stdDeviation="2.683"/>
  </filter>
  <filter id="e" color-interpolation-filters="sRGB">
   <feGaussianBlur stdDeviation="1.482"/>
  </filter>
 </defs>
 <path transform="translate(29 -835.36)" d="M103.4 1046.057c-10.436 8.017-23.275-16.254-36.434-16.21-13.65.048-26.692 24.19-37.946 16.466-10.849-7.447 8.267-27.158 4.158-39.659-4.263-12.967-31.254-17.91-27.385-31 3.73-12.62 28.383-.53 39.002-8.302 11.016-8.061 7.376-35.259 21.021-35.624 13.154-.353 9.275 26.83 19.947 34.528 11.071 7.985 35.813-3.881 40.377 8.983 4.4 12.402-22.65 17.112-26.674 29.641-4.174 12.997 14.758 32.86 3.933 41.177z" fill-opacity=".569" filter="url(#c)"/>
 <path transform="rotate(5.911 -1938.1 2384.6) scale(.90267)" d="M-116 8c-10.584 10.025-27.5-15.256-41.996-13.704-15.036 1.609-26.653 29.7-39.935 22.473-12.805-6.969 6.01-30.87.056-44.176-6.177-13.803-36.484-16.17-33.714-31.036 2.67-14.331 31.216-3.823 42.031-13.597 11.219-10.14 4.105-39.695 19.099-41.655 14.455-1.889 13.282 28.507 25.92 35.772 13.11 7.536 39.02-8.363 45.518 5.292 6.263 13.164-23.007 21.44-26.011 35.706C-128.15-22.128-105.021-2.4-116 8z" fill="url(#ah)"/>
 <path transform="translate(29 -835.36)" d="M63.344 930.768c-8.214 1.377-8.967 11.724-11.137 18.09-1.888 8.645-6.148 19.599-16.52 20.067-9.494 1.743-20.245-3.24-28.968 1.843-3.011 2.396-2.89 7.781-.532 10.125.215-8.122 9.86-9.866 16.343-8.957 8.979.167 21.65 3.383 27.032-6.199 5.876-9.322 4.174-22.916 13.126-30.187 2.048-1.54 5.246-1.658 7.343-1.282-1.437-2.33-3.947-3.867-6.687-3.5zm22.593 35.938c7.365 8.088 19.756 3.771 29.313 4.469 2.367-.065 5.435.523 7.25.968-5.581-7.082-16.053-3.383-23.844-3.875-4.186.231-9.27-.272-12.719-1.562zm-53.156 41.562c.252 11.212-9.363 20.76-7.75 31.907.365 1.333 1.916 3.536 1.532.53 1.403-10.645 10.667-20.639 6.937-31.562-.184-.315-.978-2.163-.719-.875z" fill="#fff" fill-opacity=".798" filter="url(#e)"/>
 <path transform="translate(29 -835.36)" d="M64.313 931.018c6.897 9.529 4.119 24.526 14.28 31.844 1.463.828 4.865 2.199 2.126-.094-7.285-8.844-4.803-22.715-12.938-30.937-.8-.549-3.496-1.632-3.469-.813zm17.75 33.188c.117.108.046-.03 0 0zm34.374 4.219c4.87 4.997 1.537 12.8-3.906 15.906-7.404 6.165-20.152 9.721-21.437 20.562-.596 11.987 10.282 22.566 7.219 34.688-.474 2-2.945 3.754-3.782 4.719 6.478 2.299 11.208-5.72 8.813-11.313-2.128-10.716-11.162-21.94-5.719-32.875 5.97-10.146 20.307-12.024 25.719-22.406 1.502-4.58-2.997-9.24-6.906-9.281zm-59.156 59.25c-10.807 1.686-18.176 12.698-27.375 16.906 9.173 1.04 15.266-8.161 22.344-12.469 1.693-1.756 6.832-3.67 7.219-4.406-.723-.068-1.467-.168-2.188-.031z" fill-opacity=".237" filter="url(#f)"/>
 <path d="M119.448 146.947a9.791 11.839 0 11-19.583 0 9.791 11.839 0 1119.583 0z" fill="#fff"/>
 <path d="m114.64 148.9a5.075 6.32 0 1 1-10.15 0 5.075 6.32 0 1 1 10.15 0z"/>
 <path d="M111.21 144.606a3.569 2.67-42.913 11-5.227 4.86 3.569 2.67-42.913 115.227-4.86z" fill="#fff"/>
 <path transform="translate(56.605 84.015)" d="M62.843 62.932a9.791 11.839 0 11-19.583 0 9.791 11.839 0 1119.583 0z" fill="url(#W)"/>
 <path d="M69.844 163.579c.885 8.065 10.969 14.437 23.312 14.437 12.344 0 22.459-6.372 23.344-14.437H69.844z"/>
 <path d="m72.72 164.82c0.786 6.375 9.75 11.411 20.723 11.411s19.965-5.036 20.752-11.411h-41.476z" fill="red"/>
 <path transform="translate(29 -835.36)" d="m43.72 1000.2c0.786 6.375 9.75 11.411 20.723 11.411s19.965-5.036 20.752-11.41h-41.476z" fill="url(#F)"/>
 <path d="M77.75 164.813l.619 2.943h28.549l.707-2.944zM107.938 170.406c-11.228 4.342-19.891 3.004-27.844.094l-1.469 2.031c3.768 2.278 8.999 3.719 14.813 3.719 6.153 0 11.69-1.578 15.5-4.094-.5-.84-1-1.75-1-1.75z" fill="#fff"/>
 <path transform="translate(29 89)" d="M48.75 75.813l.619 2.943h28.549l.707-2.944z" fill="url(#G)"/>
 <path transform="translate(29 89)" d="M78.938 81.406c-11.228 4.342-19.891 3.004-27.844.094l-1.469 2.031c3.768 2.278 8.999 3.719 14.813 3.719 6.153 0 11.69-1.578 15.5-4.094-.5-.84-1-1.75-1-1.75z" fill="url(#al)"/>
 <path d="M88.335 146.947a9.791 11.839 0 11-19.582 0 9.791 11.839 0 1119.582 0z" fill="#fff"/>
 <path d="M83.531 148.905a5.075 6.32 0 11-10.15 0 5.075 6.32 0 1110.15 0z"/>
 <path d="M80.097 144.606a3.569 2.67-42.913 11-5.227 4.86 3.569 2.67-42.913 115.227-4.86z" fill="#fff"/>
 <path transform="translate(25.492 84.015)" d="M62.843 62.932a9.791 11.839 0 11-19.583 0 9.791 11.839 0 1119.583 0z" fill="url(#W)"/>
 <path transform="translate(29 -835.36)" d="M103.4 1046.057c-10.436 8.017-23.275-16.254-36.434-16.21-13.65.048-26.692 24.19-37.946 16.466-10.849-7.447 8.267-27.158 4.158-39.659-4.263-12.967-31.254-17.91-27.385-31 3.73-12.62 28.383-.53 39.002-8.302 11.016-8.061 7.376-35.259 21.021-35.624 13.154-.353 9.275 26.83 19.947 34.528 11.071 7.985 35.813-3.881 40.377 8.983 4.4 12.402-22.65 17.112-26.674 29.641-4.174 12.997 14.758 32.86 3.933 41.177z" fill-opacity=".569" filter="url(#c)"/>
 <path transform="rotate(5.911 -1938.1 2384.6) scale(.90267)" d="M-116 8c-10.584 10.025-27.5-15.256-41.996-13.704-15.036 1.609-26.653 29.7-39.935 22.473-12.805-6.969 6.01-30.87.056-44.176-6.177-13.803-36.484-16.17-33.714-31.036 2.67-14.331 31.216-3.823 42.031-13.597 11.219-10.14 4.105-39.695 19.099-41.655 14.455-1.889 13.282 28.507 25.92 35.772 13.11 7.536 39.02-8.363 45.518 5.292 6.263 13.164-23.007 21.44-26.011 35.706C-128.15-22.128-105.021-2.4-116 8z" fill="url(#ah)"/>
 <path transform="translate(29 -835.36)" d="M63.344 930.768c-8.214 1.377-8.967 11.724-11.137 18.09-1.888 8.645-6.148 19.599-16.52 20.067-9.494 1.743-20.245-3.24-28.968 1.843-3.011 2.396-2.89 7.781-.532 10.125.215-8.122 9.86-9.866 16.343-8.957 8.979.167 21.65 3.383 27.032-6.199 5.876-9.322 4.174-22.916 13.126-30.187 2.048-1.54 5.246-1.658 7.343-1.282-1.437-2.33-3.947-3.867-6.687-3.5zm22.593 35.938c7.365 8.088 19.756 3.771 29.313 4.469 2.367-.065 5.435.523 7.25.968-5.581-7.082-16.053-3.383-23.844-3.875-4.186.231-9.27-.272-12.719-1.562zm-53.156 41.562c.252 11.212-9.363 20.76-7.75 31.907.365 1.333 1.916 3.536 1.532.53 1.403-10.645 10.667-20.639 6.937-31.562-.184-.315-.978-2.163-.719-.875z" fill="#fff" fill-opacity=".798" filter="url(#e)"/>
 <path transform="translate(29 -835.36)" d="M64.313 931.018c6.897 9.529 4.119 24.526 14.28 31.844 1.463.828 4.865 2.199 2.126-.094-7.285-8.844-4.803-22.715-12.938-30.937-.8-.549-3.496-1.632-3.469-.813zm17.75 33.188c.117.108.046-.03 0 0zm34.374 4.219c4.87 4.997 1.537 12.8-3.906 15.906-7.404 6.165-20.152 9.721-21.437 20.562-.596 11.987 10.282 22.566 7.219 34.688-.474 2-2.945 3.754-3.782 4.719 6.478 2.299 11.208-5.72 8.813-11.313-2.128-10.716-11.162-21.94-5.719-32.875 5.97-10.146 20.307-12.024 25.719-22.406 1.502-4.58-2.997-9.24-6.906-9.281zm-59.156 59.25c-10.807 1.686-18.176 12.698-27.375 16.906 9.173 1.04 15.266-8.161 22.344-12.469 1.693-1.756 6.832-3.67 7.219-4.406-.723-.068-1.467-.168-2.188-.031z" fill-opacity=".237" filter="url(#f)"/>
 <path d="M119.448 146.947a9.791 11.839 0 11-19.583 0 9.791 11.839 0 1119.583 0z" fill="#fff"/>
 <path d="m114.64 148.9a5.075 6.32 0 1 1-10.15 0 5.075 6.32 0 1 1 10.15 0z"/>
 <path d="M111.21 144.606a3.569 2.67-42.913 11-5.227 4.86 3.569 2.67-42.913 115.227-4.86z" fill="#fff"/>
 <path transform="translate(56.605 84.015)" d="M62.843 62.932a9.791 11.839 0 11-19.583 0 9.791 11.839 0 1119.583 0z" fill="url(#W)"/>
 <path d="M69.844 163.579c.885 8.065 10.969 14.437 23.312 14.437 12.344 0 22.459-6.372 23.344-14.437H69.844z"/>
 <path d="m72.72 164.82c0.786 6.375 9.75 11.411 20.723 11.411s19.965-5.036 20.752-11.411h-41.476z" fill="red"/>
 <path transform="translate(29 -835.36)" d="m43.72 1000.2c0.786 6.375 9.75 11.411 20.723 11.411s19.965-5.036 20.752-11.41h-41.476z" fill="url(#F)"/>
 <path d="M77.75 164.813l.619 2.943h28.549l.707-2.944zM107.938 170.406c-11.228 4.342-19.891 3.004-27.844.094l-1.469 2.031c3.768 2.278 8.999 3.719 14.813 3.719 6.153 0 11.69-1.578 15.5-4.094-.5-.84-1-1.75-1-1.75z" fill="#fff"/>
 <path transform="translate(29 89)" d="M48.75 75.813l.619 2.943h28.549l.707-2.944z" fill="url(#G)"/>
 <path transform="translate(29 89)" d="M78.938 81.406c-11.228 4.342-19.891 3.004-27.844.094l-1.469 2.031c3.768 2.278 8.999 3.719 14.813 3.719 6.153 0 11.69-1.578 15.5-4.094-.5-.84-1-1.75-1-1.75z" fill="url(#al)"/>
 <path d="M88.335 146.947a9.791 11.839 0 11-19.582 0 9.791 11.839 0 1119.582 0z" fill="#fff"/>
 <path d="M83.531 148.905a5.075 6.32 0 11-10.15 0 5.075 6.32 0 1110.15 0z"/>
 <path d="M80.097 144.606a3.569 2.67-42.913 11-5.227 4.86 3.569 2.67-42.913 115.227-4.86z" fill="#fff"/>
 <path transform="translate(25.492 84.015)" d="M62.843 62.932a9.791 11.839 0 11-19.583 0 9.791 11.839 0 1119.583 0z" fill="url(#W)"/>
 <path transform="matrix(.3941 0 0 .3941 109.14 -327.34)" d="M103.4 1046.057c-10.436 8.017-23.275-16.254-36.434-16.21-13.65.048-26.692 24.19-37.946 16.466-10.849-7.447 8.267-27.158 4.158-39.659-4.263-12.967-31.254-17.91-27.385-31 3.73-12.62 28.383-.53 39.002-8.302 11.016-8.061 7.376-35.259 21.021-35.624 13.154-.353 9.275 26.83 19.947 34.528 11.071 7.985 35.813-3.881 40.377 8.983 4.4 12.402-22.65 17.112-26.674 29.641-4.174 12.997 14.758 32.86 3.933 41.177z" fill-opacity=".569" filter="url(#c)"/>
 <path transform="rotate(5.912 -733.1 1886.9) scale(.35574)" d="M-116 8c-10.584 10.025-27.5-15.256-41.996-13.704-15.036 1.609-26.653 29.7-39.935 22.473-12.805-6.969 6.01-30.87.056-44.176-6.177-13.803-36.484-16.17-33.714-31.036 2.67-14.331 31.216-3.823 42.031-13.597 11.219-10.14 4.105-39.695 19.099-41.655 14.455-1.889 13.282 28.507 25.92 35.772 13.11 7.536 39.02-8.363 45.518 5.292 6.263 13.164-23.007 21.44-26.011 35.706C-128.15-22.128-105.021-2.4-116 8z" fill="url(#ah)"/>
 <path transform="matrix(.3941 0 0 .3941 109.14 -327.34)" d="M63.344 930.768c-8.214 1.377-8.967 11.724-11.137 18.09-1.888 8.645-6.148 19.599-16.52 20.067-9.494 1.743-20.245-3.24-28.968 1.843-3.011 2.396-2.89 7.781-.532 10.125.215-8.122 9.86-9.866 16.343-8.957 8.979.167 21.65 3.383 27.032-6.199 5.876-9.322 4.174-22.916 13.126-30.187 2.048-1.54 5.246-1.658 7.343-1.282-1.437-2.33-3.947-3.867-6.687-3.5zm22.593 35.938c7.365 8.088 19.756 3.771 29.313 4.469 2.367-.065 5.435.523 7.25.968-5.581-7.082-16.053-3.383-23.844-3.875-4.186.231-9.27-.272-12.719-1.562zm-53.156 41.562c.252 11.212-9.363 20.76-7.75 31.907.365 1.333 1.916 3.536 1.532.53 1.403-10.645 10.667-20.639 6.937-31.562-.184-.315-.978-2.163-.719-.875z" fill="#fff" fill-opacity=".798" filter="url(#e)"/>
 <path transform="matrix(.3941 0 0 .3941 109.14 -327.34)" d="M64.313 931.018c6.897 9.529 4.119 24.526 14.28 31.844 1.463.828 4.865 2.199 2.126-.094-7.285-8.844-4.803-22.715-12.938-30.937-.8-.549-3.496-1.632-3.469-.813zm17.75 33.188c.117.108.046-.03 0 0zm34.374 4.219c4.87 4.997 1.537 12.8-3.906 15.906-7.404 6.165-20.152 9.721-21.437 20.562-.596 11.987 10.282 22.566 7.219 34.688-.474 2-2.945 3.754-3.782 4.719 6.478 2.299 11.208-5.72 8.813-11.313-2.128-10.716-11.162-21.94-5.719-32.875 5.97-10.146 20.307-12.024 25.719-22.406 1.502-4.58-2.997-9.24-6.906-9.281zm-59.156 59.25c-10.807 1.686-18.176 12.698-27.375 16.906 9.173 1.04 15.266-8.161 22.344-12.469 1.693-1.756 6.832-3.67 7.219-4.406-.723-.068-1.467-.168-2.188-.031z" fill-opacity=".237" filter="url(#f)"/>
 <path d="m144.79 59.79c0 2.576-1.727 4.665-3.859 4.665-2.13 0-3.858-2.089-3.858-4.666 0-2.576 1.727-4.665 3.858-4.665 2.132 0 3.86 2.089 3.86 4.665z" fill="#fff"/>
 <path d="M142.894 60.561c0 1.376-.896 2.49-2 2.49-1.105 0-2-1.114-2-2.49 0-1.375.895-2.49 2-2.49 1.104 0 2 1.115 2 2.49z"/>
 <path d="M141.54 58.867c.396.426.256 1.2-.313 1.728-.569.53-1.35.613-1.746.187-.396-.426-.256-1.2.313-1.728.569-.53 1.35-.613 1.747-.187z" fill="#fff"/>
 <path transform="matrix(.3941 0 0 .3941 120.02 34.988)" d="m62.843 62.932c0 6.538-4.384 11.839-9.792 11.839-5.407 0-9.79-5.3-9.79-11.84 0-6.537 4.383-11.838 9.79-11.838 5.408 0 9.792 5.3 9.792 11.839z" fill="url(#W)"/>
 <path d="m125.24 66.344c0.35 3.178 4.323 5.69 9.188 5.69 4.864 0 8.85-2.512 9.2-5.69h-18.388z"/>
 <path d="m126.37 66.835c0.31 2.512 3.842 4.497 8.167 4.497 4.324 0 7.868-1.985 8.178-4.497h-16.345z" fill="red"/>
 <path transform="matrix(.3941 0 0 .3941 109.14 -327.34)" d="m43.72 1000.2c0.786 6.375 9.75 11.411 20.723 11.411s19.965-5.036 20.752-11.41h-41.476z" fill="url(#F)"/>
 <path d="M128.354 66.83l.244 1.16h11.251l.279-1.16zM140.25 69.035c-4.424 1.71-7.838 1.183-10.972.037l-.579.8c1.485.898 3.546 1.466 5.838 1.466 2.425 0 4.607-.622 6.108-1.614-.197-.33-.394-.69-.394-.69z" fill="#fff"/>
 <path transform="matrix(.3941 0 0 .3941 109.14 36.953)" d="M48.75 75.813l.619 2.943h28.549l.707-2.944z" fill="url(#G)"/>
 <path transform="matrix(.3941 0 0 .3941 109.14 36.953)" d="M78.938 81.406c-11.228 4.342-19.891 3.004-27.844.094l-1.469 2.031c3.768 2.278 8.999 3.719 14.813 3.719 6.153 0 11.69-1.578 15.5-4.094-.5-.84-1-1.75-1-1.75z" fill="url(#al)"/>
 <path d="m132.53 59.79c0 2.576-1.728 4.665-3.859 4.665s-3.859-2.089-3.859-4.666c0-2.576 1.728-4.665 3.859-4.665s3.859 2.089 3.859 4.665z" fill="#fff"/>
 <path d="M130.633 60.561c0 1.376-.896 2.49-2 2.49-1.105 0-2-1.114-2-2.49 0-1.375.895-2.49 2-2.49 1.104 0 2 1.115 2 2.49z"/>
 <path d="M129.28 58.867c.395.426.255 1.2-.314 1.728-.57.53-1.351.613-1.747.187-.396-.426-.255-1.2.314-1.728.569-.53 1.35-.613 1.746-.187z" fill="#fff"/>
 <path transform="matrix(.3941 0 0 .3941 107.76 34.988)" d="m62.843 62.932c0 6.538-4.384 11.839-9.792 11.839-5.407 0-9.79-5.3-9.79-11.84 0-6.537 4.383-11.838 9.79-11.838 5.408 0 9.792 5.3 9.792 11.839z" fill="url(#W)"/>
 <path transform="matrix(.3941 0 0 .3941 109.14 -327.34)" d="M103.4 1046.057c-10.436 8.017-23.275-16.254-36.434-16.21-13.65.048-26.692 24.19-37.946 16.466-10.849-7.447 8.267-27.158 4.158-39.659-4.263-12.967-31.254-17.91-27.385-31 3.73-12.62 28.383-.53 39.002-8.302 11.016-8.061 7.376-35.259 21.021-35.624 13.154-.353 9.275 26.83 19.947 34.528 11.071 7.985 35.813-3.881 40.377 8.983 4.4 12.402-22.65 17.112-26.674 29.641-4.174 12.997 14.758 32.86 3.933 41.177z" fill-opacity=".569" filter="url(#c)"/>
 <path transform="rotate(5.912 -733.1 1886.9) scale(.35574)" d="M-116 8c-10.584 10.025-27.5-15.256-41.996-13.704-15.036 1.609-26.653 29.7-39.935 22.473-12.805-6.969 6.01-30.87.056-44.176-6.177-13.803-36.484-16.17-33.714-31.036 2.67-14.331 31.216-3.823 42.031-13.597 11.219-10.14 4.105-39.695 19.099-41.655 14.455-1.889 13.282 28.507 25.92 35.772 13.11 7.536 39.02-8.363 45.518 5.292 6.263 13.164-23.007 21.44-26.011 35.706C-128.15-22.128-105.021-2.4-116 8z" fill="url(#ah)"/>
 <path transform="matrix(.3941 0 0 .3941 109.14 -327.34)" d="M63.344 930.768c-8.214 1.377-8.967 11.724-11.137 18.09-1.888 8.645-6.148 19.599-16.52 20.067-9.494 1.743-20.245-3.24-28.968 1.843-3.011 2.396-2.89 7.781-.532 10.125.215-8.122 9.86-9.866 16.343-8.957 8.979.167 21.65 3.383 27.032-6.199 5.876-9.322 4.174-22.916 13.126-30.187 2.048-1.54 5.246-1.658 7.343-1.282-1.437-2.33-3.947-3.867-6.687-3.5zm22.593 35.938c7.365 8.088 19.756 3.771 29.313 4.469 2.367-.065 5.435.523 7.25.968-5.581-7.082-16.053-3.383-23.844-3.875-4.186.231-9.27-.272-12.719-1.562zm-53.156 41.562c.252 11.212-9.363 20.76-7.75 31.907.365 1.333 1.916 3.536 1.532.53 1.403-10.645 10.667-20.639 6.937-31.562-.184-.315-.978-2.163-.719-.875z" fill="#fff" fill-opacity=".798" filter="url(#e)"/>
 <path transform="matrix(.3941 0 0 .3941 109.14 -327.34)" d="M64.313 931.018c6.897 9.529 4.119 24.526 14.28 31.844 1.463.828 4.865 2.199 2.126-.094-7.285-8.844-4.803-22.715-12.938-30.937-.8-.549-3.496-1.632-3.469-.813zm17.75 33.188c.117.108.046-.03 0 0zm34.374 4.219c4.87 4.997 1.537 12.8-3.906 15.906-7.404 6.165-20.152 9.721-21.437 20.562-.596 11.987 10.282 22.566 7.219 34.688-.474 2-2.945 3.754-3.782 4.719 6.478 2.299 11.208-5.72 8.813-11.313-2.128-10.716-11.162-21.94-5.719-32.875 5.97-10.146 20.307-12.024 25.719-22.406 1.502-4.58-2.997-9.24-6.906-9.281zm-59.156 59.25c-10.807 1.686-18.176 12.698-27.375 16.906 9.173 1.04 15.266-8.161 22.344-12.469 1.693-1.756 6.832-3.67 7.219-4.406-.723-.068-1.467-.168-2.188-.031z" fill-opacity=".237" filter="url(#f)"/>
 <path d="m144.79 59.79c0 2.576-1.727 4.665-3.859 4.665-2.13 0-3.858-2.089-3.858-4.666 0-2.576 1.727-4.665 3.858-4.665 2.132 0 3.86 2.089 3.86 4.665z" fill="#fff"/>
 <path d="M142.894 60.561c0 1.376-.896 2.49-2 2.49-1.105 0-2-1.114-2-2.49 0-1.375.895-2.49 2-2.49 1.104 0 2 1.115 2 2.49z"/>
 <path d="M141.54 58.867c.396.426.256 1.2-.313 1.728-.569.53-1.35.613-1.746.187-.396-.426-.256-1.2.313-1.728.569-.53 1.35-.613 1.747-.187z" fill="#fff"/>
 <path transform="matrix(.3941 0 0 .3941 120.02 34.988)" d="m62.843 62.932c0 6.538-4.384 11.839-9.792 11.839-5.407 0-9.79-5.3-9.79-11.84 0-6.537 4.383-11.838 9.79-11.838 5.408 0 9.792 5.3 9.792 11.839z" fill="url(#W)"/>
 <path d="m125.24 66.344c0.35 3.178 4.323 5.69 9.188 5.69 4.864 0 8.85-2.512 9.2-5.69h-18.388z"/>
 <path d="m126.37 66.835c0.31 2.512 3.842 4.497 8.167 4.497 4.324 0 7.868-1.985 8.178-4.497h-16.345z" fill="red"/>
 <path transform="matrix(.3941 0 0 .3941 109.14 -327.34)" d="m43.72 1000.2c0.786 6.375 9.75 11.411 20.723 11.411s19.965-5.036 20.752-11.41h-41.476z" fill="url(#F)"/>
 <path d="M128.354 66.83l.244 1.16h11.251l.279-1.16zM140.25 69.035c-4.424 1.71-7.838 1.183-10.972.037l-.579.8c1.485.898 3.546 1.466 5.838 1.466 2.425 0 4.607-.622 6.108-1.614-.197-.33-.394-.69-.394-.69z" fill="#fff"/>
 <path transform="matrix(.3941 0 0 .3941 109.14 36.953)" d="M48.75 75.813l.619 2.943h28.549l.707-2.944z" fill="url(#G)"/>
 <path transform="matrix(.3941 0 0 .3941 109.14 36.953)" d="M78.938 81.406c-11.228 4.342-19.891 3.004-27.844.094l-1.469 2.031c3.768 2.278 8.999 3.719 14.813 3.719 6.153 0 11.69-1.578 15.5-4.094-.5-.84-1-1.75-1-1.75z" fill="url(#al)"/>
 <path d="m132.53 59.79c0 2.576-1.728 4.665-3.859 4.665s-3.859-2.089-3.859-4.666c0-2.576 1.728-4.665 3.859-4.665s3.859 2.089 3.859 4.665z" fill="#fff"/>
 <path d="M130.633 60.561c0 1.376-.896 2.49-2 2.49-1.105 0-2-1.114-2-2.49 0-1.375.895-2.49 2-2.49 1.104 0 2 1.115 2 2.49z"/>
 <path d="M129.28 58.867c.395.426.255 1.2-.314 1.728-.57.53-1.351.613-1.747.187-.396-.426-.255-1.2.314-1.728.569-.53 1.35-.613 1.746-.187z" fill="#fff"/>
 <path transform="matrix(.3941 0 0 .3941 107.76 34.988)" d="m62.843 62.932c0 6.538-4.384 11.839-9.792 11.839-5.407 0-9.79-5.3-9.79-11.84 0-6.537 4.383-11.838 9.79-11.838 5.408 0 9.792 5.3 9.792 11.839z" fill="url(#W)"/>
 <path transform="translate(154.33 -385.85) scale(.52448)" d="M103.4 1046.057c-10.436 8.017-23.275-16.254-36.434-16.21-13.65.048-26.692 24.19-37.946 16.466-10.849-7.447 8.267-27.158 4.158-39.659-4.263-12.967-31.254-17.91-27.385-31 3.73-12.62 28.383-.53 39.002-8.302 11.016-8.061 7.376-35.259 21.021-35.624 13.154-.353 9.275 26.83 19.947 34.528 11.071 7.985 35.813-3.881 40.377 8.983 4.4 12.402-22.65 17.112-26.674 29.641-4.174 12.997 14.758 32.86 3.933 41.177z" fill-opacity=".569" filter="url(#c)"/>
 <path transform="matrix(.47092 .04876 -.04876 .47092 262.52 163.63)" d="M-116 8c-10.584 10.025-27.5-15.256-41.996-13.704-15.036 1.609-26.653 29.7-39.935 22.473-12.805-6.969 6.01-30.87.056-44.176-6.177-13.803-36.484-16.17-33.714-31.036 2.67-14.331 31.216-3.823 42.031-13.597 11.219-10.14 4.105-39.695 19.099-41.655 14.455-1.889 13.282 28.507 25.92 35.772 13.11 7.536 39.02-8.363 45.518 5.292 6.263 13.164-23.007 21.44-26.011 35.706C-128.15-22.128-105.021-2.4-116 8z" fill="url(#ah)"/>
 <path transform="translate(154.33 -385.85) scale(.52448)" d="M63.344 930.768c-8.214 1.377-8.967 11.724-11.137 18.09-1.888 8.645-6.148 19.599-16.52 20.067-9.494 1.743-20.245-3.24-28.968 1.843-3.011 2.396-2.89 7.781-.532 10.125.215-8.122 9.86-9.866 16.343-8.957 8.979.167 21.65 3.383 27.032-6.199 5.876-9.322 4.174-22.916 13.126-30.187 2.048-1.54 5.246-1.658 7.343-1.282-1.437-2.33-3.947-3.867-6.687-3.5zm22.593 35.938c7.365 8.088 19.756 3.771 29.313 4.469 2.367-.065 5.435.523 7.25.968-5.581-7.082-16.053-3.383-23.844-3.875-4.186.231-9.27-.272-12.719-1.562zm-53.156 41.562c.252 11.212-9.363 20.76-7.75 31.907.365 1.333 1.916 3.536 1.532.53 1.403-10.645 10.667-20.639 6.937-31.562-.184-.315-.978-2.163-.719-.875z" fill="#fff" fill-opacity=".798" filter="url(#e)"/>
 <path transform="translate(154.33 -385.85) scale(.52448)" d="M64.313 931.018c6.897 9.529 4.119 24.526 14.28 31.844 1.463.828 4.865 2.199 2.126-.094-7.285-8.844-4.803-22.715-12.938-30.937-.8-.549-3.496-1.632-3.469-.813zm17.75 33.188c.117.108.046-.03 0 0zm34.374 4.219c4.87 4.997 1.537 12.8-3.906 15.906-7.404 6.165-20.152 9.721-21.437 20.562-.596 11.987 10.282 22.566 7.219 34.688-.474 2-2.945 3.754-3.782 4.719 6.478 2.299 11.208-5.72 8.813-11.313-2.128-10.716-11.162-21.94-5.719-32.875 5.97-10.146 20.307-12.024 25.719-22.406 1.502-4.58-2.997-9.24-6.906-9.281zm-59.156 59.25c-10.807 1.686-18.176 12.698-27.375 16.906 9.173 1.04 15.266-8.161 22.344-12.469 1.693-1.756 6.832-3.67 7.219-4.406-.723-.068-1.467-.168-2.188-.031z" fill-opacity=".237" filter="url(#f)"/>
 <path d="m201.76 129.36c0 3.43-2.3 6.21-5.136 6.21s-5.135-2.78-5.135-6.21 2.3-6.21 5.135-6.21c2.837 0 5.136 2.78 5.136 6.21z" fill="#fff"/>
 <path d="m199.24 130.38c0 1.83-1.192 3.315-2.662 3.315s-2.661-1.484-2.661-3.315c0-1.83 1.191-3.315 2.661-3.315s2.662 1.484 2.662 3.315z"/>
 <path d="M197.444 128.127c.527.567.34 1.597-.417 2.3-.757.704-1.798.816-2.324.25-.527-.567-.34-1.597.417-2.301.757-.704 1.798-.815 2.324-.249z" fill="#fff"/>
 <path transform="translate(168.8 96.348) scale(.52448)" d="m62.843 62.932c0 6.538-4.384 11.839-9.792 11.839-5.407 0-9.79-5.3-9.79-11.84 0-6.537 4.383-11.838 9.79-11.838 5.408 0 9.792 5.3 9.792 11.839z" fill="url(#W)"/>
 <path d="m175.75 138.08c0.465 4.23 5.753 7.572 12.227 7.572s11.78-3.342 12.244-7.572h-24.47z"/>
 <path d="m177.26 138.73c0.412 3.343 5.114 5.984 10.869 5.984s10.47-2.641 10.884-5.984h-21.753z" fill="red"/>
 <path transform="translate(154.33 -385.85) scale(.52448)" d="m43.72 1000.2c0.786 6.375 9.75 11.411 20.723 11.411s19.965-5.036 20.752-11.41h-41.476z" fill="url(#F)"/>
 <path d="M179.895 138.725l.325 1.544h14.973l.37-1.544zM195.728 141.659c-5.889 2.277-10.432 1.575-14.604.049l-.77 1.065c1.976 1.195 4.72 1.95 7.769 1.95 3.227 0 6.131-.827 8.13-2.146-.263-.44-.525-.918-.525-.918z" fill="#fff"/>
 <path transform="translate(154.33 98.963) scale(.52448)" d="M48.75 75.813l.619 2.943h28.549l.707-2.944z" fill="url(#G)"/>
 <path transform="translate(154.33 98.963) scale(.52448)" d="M78.938 81.406c-11.228 4.342-19.891 3.004-27.844.094l-1.469 2.031c3.768 2.278 8.999 3.719 14.813 3.719 6.153 0 11.69-1.578 15.5-4.094-.5-.84-1-1.75-1-1.75z" fill="url(#al)"/>
 <path d="m185.45 129.36c0 3.43-2.3 6.21-5.136 6.21s-5.135-2.78-5.135-6.21 2.3-6.21 5.135-6.21c2.837 0 5.136 2.78 5.136 6.21z" fill="#fff"/>
 <path d="m182.93 130.38c0 1.83-1.192 3.315-2.662 3.315s-2.661-1.484-2.661-3.315c0-1.83 1.191-3.315 2.661-3.315s2.662 1.484 2.662 3.315z"/>
 <path d="M181.126 128.127c.527.567.34 1.597-.417 2.3-.757.704-1.798.816-2.324.25-.527-.567-.34-1.597.417-2.301.757-.704 1.798-.815 2.324-.249z" fill="#fff"/>
 <path transform="translate(152.49 96.348) scale(.52448)" d="m62.843 62.932c0 6.538-4.384 11.839-9.792 11.839-5.407 0-9.79-5.3-9.79-11.84 0-6.537 4.383-11.838 9.79-11.838 5.408 0 9.792 5.3 9.792 11.839z" fill="url(#W)"/>
 <path transform="translate(154.33 -385.85) scale(.52448)" d="M103.4 1046.057c-10.436 8.017-23.275-16.254-36.434-16.21-13.65.048-26.692 24.19-37.946 16.466-10.849-7.447 8.267-27.158 4.158-39.659-4.263-12.967-31.254-17.91-27.385-31 3.73-12.62 28.383-.53 39.002-8.302 11.016-8.061 7.376-35.259 21.021-35.624 13.154-.353 9.275 26.83 19.947 34.528 11.071 7.985 35.813-3.881 40.377 8.983 4.4 12.402-22.65 17.112-26.674 29.641-4.174 12.997 14.758 32.86 3.933 41.177z" fill-opacity=".569" filter="url(#c)"/>
 <path transform="matrix(.47092 .04876 -.04876 .47092 262.52 163.63)" d="M-116 8c-10.584 10.025-27.5-15.256-41.996-13.704-15.036 1.609-26.653 29.7-39.935 22.473-12.805-6.969 6.01-30.87.056-44.176-6.177-13.803-36.484-16.17-33.714-31.036 2.67-14.331 31.216-3.823 42.031-13.597 11.219-10.14 4.105-39.695 19.099-41.655 14.455-1.889 13.282 28.507 25.92 35.772 13.11 7.536 39.02-8.363 45.518 5.292 6.263 13.164-23.007 21.44-26.011 35.706C-128.15-22.128-105.021-2.4-116 8z" fill="url(#ah)"/>
 <path transform="translate(154.33 -385.85) scale(.52448)" d="M63.344 930.768c-8.214 1.377-8.967 11.724-11.137 18.09-1.888 8.645-6.148 19.599-16.52 20.067-9.494 1.743-20.245-3.24-28.968 1.843-3.011 2.396-2.89 7.781-.532 10.125.215-8.122 9.86-9.866 16.343-8.957 8.979.167 21.65 3.383 27.032-6.199 5.876-9.322 4.174-22.916 13.126-30.187 2.048-1.54 5.246-1.658 7.343-1.282-1.437-2.33-3.947-3.867-6.687-3.5zm22.593 35.938c7.365 8.088 19.756 3.771 29.313 4.469 2.367-.065 5.435.523 7.25.968-5.581-7.082-16.053-3.383-23.844-3.875-4.186.231-9.27-.272-12.719-1.562zm-53.156 41.562c.252 11.212-9.363 20.76-7.75 31.907.365 1.333 1.916 3.536 1.532.53 1.403-10.645 10.667-20.639 6.937-31.562-.184-.315-.978-2.163-.719-.875z" fill="#fff" fill-opacity=".798" filter="url(#e)"/>
 <path transform="translate(154.33 -385.85) scale(.52448)" d="M64.313 931.018c6.897 9.529 4.119 24.526 14.28 31.844 1.463.828 4.865 2.199 2.126-.094-7.285-8.844-4.803-22.715-12.938-30.937-.8-.549-3.496-1.632-3.469-.813zm17.75 33.188c.117.108.046-.03 0 0zm34.374 4.219c4.87 4.997 1.537 12.8-3.906 15.906-7.404 6.165-20.152 9.721-21.437 20.562-.596 11.987 10.282 22.566 7.219 34.688-.474 2-2.945 3.754-3.782 4.719 6.478 2.299 11.208-5.72 8.813-11.313-2.128-10.716-11.162-21.94-5.719-32.875 5.97-10.146 20.307-12.024 25.719-22.406 1.502-4.58-2.997-9.24-6.906-9.281zm-59.156 59.25c-10.807 1.686-18.176 12.698-27.375 16.906 9.173 1.04 15.266-8.161 22.344-12.469 1.693-1.756 6.832-3.67 7.219-4.406-.723-.068-1.467-.168-2.188-.031z" fill-opacity=".237" filter="url(#f)"/>
 <path d="m201.76 129.36c0 3.43-2.3 6.21-5.136 6.21s-5.135-2.78-5.135-6.21 2.3-6.21 5.135-6.21c2.837 0 5.136 2.78 5.136 6.21z" fill="#fff"/>
 <path d="m199.24 130.38c0 1.83-1.192 3.315-2.662 3.315s-2.661-1.484-2.661-3.315c0-1.83 1.191-3.315 2.661-3.315s2.662 1.484 2.662 3.315z"/>
 <path d="M197.444 128.127c.527.567.34 1.597-.417 2.3-.757.704-1.798.816-2.324.25-.527-.567-.34-1.597.417-2.301.757-.704 1.798-.815 2.324-.249z" fill="#fff"/>
 <path transform="translate(168.8 96.348) scale(.52448)" d="m62.843 62.932c0 6.538-4.384 11.839-9.792 11.839-5.407 0-9.79-5.3-9.79-11.84 0-6.537 4.383-11.838 9.79-11.838 5.408 0 9.792 5.3 9.792 11.839z" fill="url(#W)"/>
 <path d="m175.75 138.08c0.465 4.23 5.753 7.572 12.227 7.572s11.78-3.342 12.244-7.572h-24.47z"/>
 <path d="m177.26 138.73c0.412 3.343 5.114 5.984 10.869 5.984s10.47-2.641 10.884-5.984h-21.753z" fill="red"/>
 <path transform="translate(154.33 -385.85) scale(.52448)" d="m43.72 1000.2c0.786 6.375 9.75 11.411 20.723 11.411s19.965-5.036 20.752-11.41h-41.476z" fill="url(#F)"/>
 <path d="M179.895 138.725l.325 1.544h14.973l.37-1.544zM195.728 141.659c-5.889 2.277-10.432 1.575-14.604.049l-.77 1.065c1.976 1.195 4.72 1.95 7.769 1.95 3.227 0 6.131-.827 8.13-2.146-.263-.44-.525-.918-.525-.918z" fill="#fff"/>
 <path transform="translate(154.33 98.963) scale(.52448)" d="M48.75 75.813l.619 2.943h28.549l.707-2.944z" fill="url(#G)"/>
 <path transform="translate(154.33 98.963) scale(.52448)" d="M78.938 81.406c-11.228 4.342-19.891 3.004-27.844.094l-1.469 2.031c3.768 2.278 8.999 3.719 14.813 3.719 6.153 0 11.69-1.578 15.5-4.094-.5-.84-1-1.75-1-1.75z" fill="url(#al)"/>
 <path d="m185.45 129.36c0 3.43-2.3 6.21-5.136 6.21s-5.135-2.78-5.135-6.21 2.3-6.21 5.135-6.21c2.837 0 5.136 2.78 5.136 6.21z" fill="#fff"/>
 <path d="m182.93 130.38c0 1.83-1.192 3.315-2.662 3.315s-2.661-1.484-2.661-3.315c0-1.83 1.191-3.315 2.661-3.315s2.662 1.484 2.662 3.315z"/>
 <path d="M181.126 128.127c.527.567.34 1.597-.417 2.3-.757.704-1.798.816-2.324.25-.527-.567-.34-1.597.417-2.301.757-.704 1.798-.815 2.324-.249z" fill="#fff"/>
 <path transform="translate(152.49 96.348) scale(.52448)" d="m62.843 62.932c0 6.538-4.384 11.839-9.792 11.839-5.407 0-9.79-5.3-9.79-11.84 0-6.537 4.383-11.838 9.79-11.838 5.408 0 9.792 5.3 9.792 11.839z" fill="url(#W)"/>
 <path transform="translate(170.97 -215.91) scale(.27138)" d="M103.4 1046.057c-10.436 8.017-23.275-16.254-36.434-16.21-13.65.048-26.692 24.19-37.946 16.466-10.849-7.447 8.267-27.158 4.158-39.659-4.263-12.967-31.254-17.91-27.385-31 3.73-12.62 28.383-.53 39.002-8.302 11.016-8.061 7.376-35.259 21.021-35.624 13.154-.353 9.275 26.83 19.947 34.528 11.071 7.985 35.813-3.881 40.377 8.983 4.4 12.402-22.65 17.112-26.674 29.641-4.174 12.997 14.758 32.86 3.933 41.177z" fill-opacity=".569" filter="url(#c)"/>
 <path transform="rotate(5.915 -548.77 2231.9) scale(.24497)" d="M-116 8c-10.584 10.025-27.5-15.256-41.996-13.704-15.036 1.609-26.653 29.7-39.935 22.473-12.805-6.969 6.01-30.87.056-44.176-6.177-13.803-36.484-16.17-33.714-31.036 2.67-14.331 31.216-3.823 42.031-13.597 11.219-10.14 4.105-39.695 19.099-41.655 14.455-1.889 13.282 28.507 25.92 35.772 13.11 7.536 39.02-8.363 45.518 5.292 6.263 13.164-23.007 21.44-26.011 35.706C-128.15-22.128-105.021-2.4-116 8z" fill="url(#ah)"/>
 <path transform="translate(170.97 -215.91) scale(.27138)" d="M63.344 930.768c-8.214 1.377-8.967 11.724-11.137 18.09-1.888 8.645-6.148 19.599-16.52 20.067-9.494 1.743-20.245-3.24-28.968 1.843-3.011 2.396-2.89 7.781-.532 10.125.215-8.122 9.86-9.866 16.343-8.957 8.979.167 21.65 3.383 27.032-6.199 5.876-9.322 4.174-22.916 13.126-30.187 2.048-1.54 5.246-1.658 7.343-1.282-1.437-2.33-3.947-3.867-6.687-3.5zm22.593 35.938c7.365 8.088 19.756 3.771 29.313 4.469 2.367-.065 5.435.523 7.25.968-5.581-7.082-16.053-3.383-23.844-3.875-4.186.231-9.27-.272-12.719-1.562zm-53.156 41.562c.252 11.212-9.363 20.76-7.75 31.907.365 1.333 1.916 3.536 1.532.53 1.403-10.645 10.667-20.639 6.937-31.562-.184-.315-.978-2.163-.719-.875z" fill="#fff" fill-opacity=".798" filter="url(#e)"/>
 <path transform="translate(170.97 -215.91) scale(.27138)" d="M64.313 931.018c6.897 9.529 4.119 24.526 14.28 31.844 1.463.828 4.865 2.199 2.126-.094-7.285-8.844-4.803-22.715-12.938-30.937-.8-.549-3.496-1.632-3.469-.813zm17.75 33.188c.117.108.046-.03 0 0zm34.374 4.219c4.87 4.997 1.537 12.8-3.906 15.906-7.404 6.165-20.152 9.721-21.437 20.562-.596 11.987 10.282 22.566 7.219 34.688-.474 2-2.945 3.754-3.782 4.719 6.478 2.299 11.208-5.72 8.813-11.313-2.128-10.716-11.162-21.94-5.719-32.875 5.97-10.146 20.307-12.024 25.719-22.406 1.502-4.58-2.997-9.24-6.906-9.281zm-59.156 59.25c-10.807 1.686-18.176 12.698-27.375 16.906 9.173 1.04 15.266-8.161 22.344-12.469 1.693-1.756 6.832-3.67 7.219-4.406-.723-.068-1.467-.168-2.188-.031z" fill-opacity=".237" filter="url(#f)"/>
 <path d="m195.51 50.669c0 1.774-1.19 3.213-2.657 3.213-1.468 0-2.657-1.439-2.657-3.213s1.19-3.213 2.657-3.213 2.657 1.439 2.657 3.213z" fill="#fff"/>
 <path d="M194.21 51.2c0 .948-.616 1.715-1.377 1.715-.76 0-1.377-.767-1.377-1.715 0-.947.616-1.715 1.377-1.715.76 0 1.377.768 1.377 1.715z"/>
 <path d="M193.278 50.034c.273.293.176.826-.215 1.19-.392.364-.93.422-1.203.128-.273-.293-.176-.826.216-1.19.391-.364.93-.421 1.202-.128z" fill="#fff"/>
 <path transform="translate(178.46 33.59) scale(.27138)" d="m62.843 62.932c0 6.538-4.384 11.839-9.792 11.839-5.407 0-9.79-5.3-9.79-11.84 0-6.537 4.383-11.838 9.79-11.838 5.408 0 9.792 5.3 9.792 11.839z" fill="url(#W)"/>
 <path d="m182.05 55.182c0.24 2.19 2.977 3.919 6.327 3.919s6.095-1.73 6.335-3.919h-12.662z"/>
 <path d="m182.83 55.52c0.213 1.73 2.646 3.097 5.624 3.097s5.418-1.366 5.631-3.096h-11.255z" fill="red"/>
 <path transform="translate(170.97 -215.91) scale(.27138)" d="m43.72 1000.2c0.786 6.375 9.75 11.411 20.723 11.411s19.965-5.036 20.752-11.41h-41.476z" fill="url(#F)"/>
 <path d="M184.198 55.517l.168.8h7.748l.192-.8zM192.39 57.035c-3.047 1.178-5.398.815-7.556.026l-.399.551c1.023.618 2.443 1.01 4.02 1.01 1.67 0 3.173-.43 4.207-1.112-.136-.228-.272-.475-.272-.475z" fill="#fff"/>
 <path transform="translate(170.97 34.943) scale(.27138)" d="M48.75 75.813l.619 2.943h28.549l.707-2.944z" fill="url(#G)"/>
 <path transform="translate(170.97 34.943) scale(.27138)" d="M78.938 81.406c-11.228 4.342-19.891 3.004-27.844.094l-1.469 2.031c3.768 2.278 8.999 3.719 14.813 3.719 6.153 0 11.69-1.578 15.5-4.094-.5-.84-1-1.75-1-1.75z" fill="url(#al)"/>
 <path d="m187.07 50.669c0 1.774-1.189 3.213-2.657 3.213-1.467 0-2.657-1.439-2.657-3.213s1.19-3.213 2.657-3.213c1.468 0 2.658 1.439 2.658 3.213z" fill="#fff"/>
 <path d="M185.767 51.2c0 .948-.617 1.715-1.377 1.715-.761 0-1.378-.767-1.378-1.715 0-.947.617-1.715 1.378-1.715.76 0 1.377.768 1.377 1.715z"/>
 <path d="M184.835 50.034c.273.293.176.826-.216 1.19s-.93.422-1.203.128c-.272-.293-.175-.826.216-1.19.392-.364.93-.421 1.203-.128z" fill="#fff"/>
 <path transform="translate(170.02 33.59) scale(.27138)" d="m62.843 62.932c0 6.538-4.384 11.839-9.792 11.839-5.407 0-9.79-5.3-9.79-11.84 0-6.537 4.383-11.838 9.79-11.838 5.408 0 9.792 5.3 9.792 11.839z" fill="url(#W)"/>
 <path transform="translate(170.97 -215.91) scale(.27138)" d="M103.4 1046.057c-10.436 8.017-23.275-16.254-36.434-16.21-13.65.048-26.692 24.19-37.946 16.466-10.849-7.447 8.267-27.158 4.158-39.659-4.263-12.967-31.254-17.91-27.385-31 3.73-12.62 28.383-.53 39.002-8.302 11.016-8.061 7.376-35.259 21.021-35.624 13.154-.353 9.275 26.83 19.947 34.528 11.071 7.985 35.813-3.881 40.377 8.983 4.4 12.402-22.65 17.112-26.674 29.641-4.174 12.997 14.758 32.86 3.933 41.177z" fill-opacity=".569" filter="url(#c)"/>
 <path transform="rotate(5.915 -548.77 2231.9) scale(.24497)" d="M-116 8c-10.584 10.025-27.5-15.256-41.996-13.704-15.036 1.609-26.653 29.7-39.935 22.473-12.805-6.969 6.01-30.87.056-44.176-6.177-13.803-36.484-16.17-33.714-31.036 2.67-14.331 31.216-3.823 42.031-13.597 11.219-10.14 4.105-39.695 19.099-41.655 14.455-1.889 13.282 28.507 25.92 35.772 13.11 7.536 39.02-8.363 45.518 5.292 6.263 13.164-23.007 21.44-26.011 35.706C-128.15-22.128-105.021-2.4-116 8z" fill="url(#ah)"/>
 <path transform="translate(170.97 -215.91) scale(.27138)" d="M63.344 930.768c-8.214 1.377-8.967 11.724-11.137 18.09-1.888 8.645-6.148 19.599-16.52 20.067-9.494 1.743-20.245-3.24-28.968 1.843-3.011 2.396-2.89 7.781-.532 10.125.215-8.122 9.86-9.866 16.343-8.957 8.979.167 21.65 3.383 27.032-6.199 5.876-9.322 4.174-22.916 13.126-30.187 2.048-1.54 5.246-1.658 7.343-1.282-1.437-2.33-3.947-3.867-6.687-3.5zm22.593 35.938c7.365 8.088 19.756 3.771 29.313 4.469 2.367-.065 5.435.523 7.25.968-5.581-7.082-16.053-3.383-23.844-3.875-4.186.231-9.27-.272-12.719-1.562zm-53.156 41.562c.252 11.212-9.363 20.76-7.75 31.907.365 1.333 1.916 3.536 1.532.53 1.403-10.645 10.667-20.639 6.937-31.562-.184-.315-.978-2.163-.719-.875z" fill="#fff" fill-opacity=".798" filter="url(#e)"/>
 <path transform="translate(170.97 -215.91) scale(.27138)" d="M64.313 931.018c6.897 9.529 4.119 24.526 14.28 31.844 1.463.828 4.865 2.199 2.126-.094-7.285-8.844-4.803-22.715-12.938-30.937-.8-.549-3.496-1.632-3.469-.813zm17.75 33.188c.117.108.046-.03 0 0zm34.374 4.219c4.87 4.997 1.537 12.8-3.906 15.906-7.404 6.165-20.152 9.721-21.437 20.562-.596 11.987 10.282 22.566 7.219 34.688-.474 2-2.945 3.754-3.782 4.719 6.478 2.299 11.208-5.72 8.813-11.313-2.128-10.716-11.162-21.94-5.719-32.875 5.97-10.146 20.307-12.024 25.719-22.406 1.502-4.58-2.997-9.24-6.906-9.281zm-59.156 59.25c-10.807 1.686-18.176 12.698-27.375 16.906 9.173 1.04 15.266-8.161 22.344-12.469 1.693-1.756 6.832-3.67 7.219-4.406-.723-.068-1.467-.168-2.188-.031z" fill-opacity=".237" filter="url(#f)"/>
 <path d="m195.51 50.669c0 1.774-1.19 3.213-2.657 3.213-1.468 0-2.657-1.439-2.657-3.213s1.19-3.213 2.657-3.213 2.657 1.439 2.657 3.213z" fill="#fff"/>
 <path d="M194.21 51.2c0 .948-.616 1.715-1.377 1.715-.76 0-1.377-.767-1.377-1.715 0-.947.616-1.715 1.377-1.715.76 0 1.377.768 1.377 1.715z"/>
 <path d="M193.278 50.034c.273.293.176.826-.215 1.19-.392.364-.93.422-1.203.128-.273-.293-.176-.826.216-1.19.391-.364.93-.421 1.202-.128z" fill="#fff"/>
 <path transform="translate(178.46 33.59) scale(.27138)" d="m62.843 62.932c0 6.538-4.384 11.839-9.792 11.839-5.407 0-9.79-5.3-9.79-11.84 0-6.537 4.383-11.838 9.79-11.838 5.408 0 9.792 5.3 9.792 11.839z" fill="url(#W)"/>
 <path d="m182.05 55.182c0.24 2.19 2.977 3.919 6.327 3.919s6.095-1.73 6.335-3.919h-12.662z"/>
 <path d="m182.83 55.52c0.213 1.73 2.646 3.097 5.624 3.097s5.418-1.366 5.631-3.096h-11.255z" fill="red"/>
 <path transform="translate(170.97 -215.91) scale(.27138)" d="m43.72 1000.2c0.786 6.375 9.75 11.411 20.723 11.411s19.965-5.036 20.752-11.41h-41.476z" fill="url(#F)"/>
 <path d="M184.198 55.517l.168.8h7.748l.192-.8zM192.39 57.035c-3.047 1.178-5.398.815-7.556.026l-.399.551c1.023.618 2.443 1.01 4.02 1.01 1.67 0 3.173-.43 4.207-1.112-.136-.228-.272-.475-.272-.475z" fill="#fff"/>
 <path transform="translate(170.97 34.943) scale(.27138)" d="M48.75 75.813l.619 2.943h28.549l.707-2.944z" fill="url(#G)"/>
 <path transform="translate(170.97 34.943) scale(.27138)" d="M78.938 81.406c-11.228 4.342-19.891 3.004-27.844.094l-1.469 2.031c3.768 2.278 8.999 3.719 14.813 3.719 6.153 0 11.69-1.578 15.5-4.094-.5-.84-1-1.75-1-1.75z" fill="url(#al)"/>
 <path d="m187.07 50.669c0 1.774-1.189 3.213-2.657 3.213-1.467 0-2.657-1.439-2.657-3.213s1.19-3.213 2.657-3.213c1.468 0 2.658 1.439 2.658 3.213z" fill="#fff"/>
 <path d="M185.767 51.2c0 .948-.617 1.715-1.377 1.715-.761 0-1.378-.767-1.378-1.715 0-.947.617-1.715 1.378-1.715.76 0 1.377.768 1.377 1.715z"/>
 <path d="M184.835 50.034c.273.293.176.826-.216 1.19s-.93.422-1.203.128c-.272-.293-.175-.826.216-1.19.392-.364.93-.421 1.203-.128z" fill="#fff"/>
 <path transform="translate(170.02 33.59) scale(.27138)" d="m62.843 62.932c0 6.538-4.384 11.839-9.792 11.839-5.407 0-9.79-5.3-9.79-11.84 0-6.537 4.383-11.838 9.79-11.838 5.408 0 9.792 5.3 9.792 11.839z" fill="url(#W)"/>
 <path transform="translate(206.97 -180.91) scale(.27138)" d="M103.4 1046.057c-10.436 8.017-23.275-16.254-36.434-16.21-13.65.048-26.692 24.19-37.946 16.466-10.849-7.447 8.267-27.158 4.158-39.659-4.263-12.967-31.254-17.91-27.385-31 3.73-12.62 28.383-.53 39.002-8.302 11.016-8.061 7.376-35.259 21.021-35.624 13.154-.353 9.275 26.83 19.947 34.528 11.071 7.985 35.813-3.881 40.377 8.983 4.4 12.402-22.65 17.112-26.674 29.641-4.174 12.997 14.758 32.86 3.933 41.177z" fill-opacity=".569" filter="url(#c)"/>
 <path transform="rotate(5.915 -869.66 2598) scale(.24497)" d="M-116 8c-10.584 10.025-27.5-15.256-41.996-13.704-15.036 1.609-26.653 29.7-39.935 22.473-12.805-6.969 6.01-30.87.056-44.176-6.177-13.803-36.484-16.17-33.714-31.036 2.67-14.331 31.216-3.823 42.031-13.597 11.219-10.14 4.105-39.695 19.099-41.655 14.455-1.889 13.282 28.507 25.92 35.772 13.11 7.536 39.02-8.363 45.518 5.292 6.263 13.164-23.007 21.44-26.011 35.706C-128.15-22.128-105.021-2.4-116 8z" fill="url(#ah)"/>
 <path transform="translate(206.97 -180.91) scale(.27138)" d="M63.344 930.768c-8.214 1.377-8.967 11.724-11.137 18.09-1.888 8.645-6.148 19.599-16.52 20.067-9.494 1.743-20.245-3.24-28.968 1.843-3.011 2.396-2.89 7.781-.532 10.125.215-8.122 9.86-9.866 16.343-8.957 8.979.167 21.65 3.383 27.032-6.199 5.876-9.322 4.174-22.916 13.126-30.187 2.048-1.54 5.246-1.658 7.343-1.282-1.437-2.33-3.947-3.867-6.687-3.5zm22.593 35.938c7.365 8.088 19.756 3.771 29.313 4.469 2.367-.065 5.435.523 7.25.968-5.581-7.082-16.053-3.383-23.844-3.875-4.186.231-9.27-.272-12.719-1.562zm-53.156 41.562c.252 11.212-9.363 20.76-7.75 31.907.365 1.333 1.916 3.536 1.532.53 1.403-10.645 10.667-20.639 6.937-31.562-.184-.315-.978-2.163-.719-.875z" fill="#fff" fill-opacity=".798" filter="url(#e)"/>
 <path transform="translate(206.97 -180.91) scale(.27138)" d="M64.313 931.018c6.897 9.529 4.119 24.526 14.28 31.844 1.463.828 4.865 2.199 2.126-.094-7.285-8.844-4.803-22.715-12.938-30.937-.8-.549-3.496-1.632-3.469-.813zm17.75 33.188c.117.108.046-.03 0 0zm34.374 4.219c4.87 4.997 1.537 12.8-3.906 15.906-7.404 6.165-20.152 9.721-21.437 20.562-.596 11.987 10.282 22.566 7.219 34.688-.474 2-2.945 3.754-3.782 4.719 6.478 2.299 11.208-5.72 8.813-11.313-2.128-10.716-11.162-21.94-5.719-32.875 5.97-10.146 20.307-12.024 25.719-22.406 1.502-4.58-2.997-9.24-6.906-9.281zm-59.156 59.25c-10.807 1.686-18.176 12.698-27.375 16.906 9.173 1.04 15.266-8.161 22.344-12.469 1.693-1.756 6.832-3.67 7.219-4.406-.723-.068-1.467-.168-2.188-.031z" fill-opacity=".237" filter="url(#f)"/>
 <path d="m231.51 85.669c0 1.774-1.19 3.213-2.657 3.213-1.468 0-2.657-1.439-2.657-3.213s1.19-3.213 2.657-3.213 2.657 1.439 2.657 3.213z" fill="#fff"/>
 <path d="M230.21 86.2c0 .948-.616 1.715-1.377 1.715-.76 0-1.377-.767-1.377-1.715 0-.947.616-1.715 1.377-1.715.76 0 1.377.768 1.377 1.715z"/>
 <path d="M229.278 85.034c.273.293.176.826-.215 1.19-.392.364-.93.422-1.203.128-.273-.293-.176-.826.216-1.19.391-.364.93-.421 1.202-.128z" fill="#fff"/>
 <path transform="translate(214.46 68.59) scale(.27138)" d="m62.843 62.932c0 6.538-4.384 11.839-9.792 11.839-5.407 0-9.79-5.3-9.79-11.84 0-6.537 4.383-11.838 9.79-11.838 5.408 0 9.792 5.3 9.792 11.839z" fill="url(#W)"/>
 <path d="m218.05 90.182c0.24 2.19 2.977 3.919 6.327 3.919s6.095-1.73 6.335-3.919h-12.662z"/>
 <path d="m218.83 90.52c0.213 1.73 2.646 3.097 5.624 3.097s5.418-1.366 5.631-3.096h-11.255z" fill="red"/>
 <path transform="translate(206.97 -180.91) scale(.27138)" d="m43.72 1000.2c0.786 6.375 9.75 11.411 20.723 11.411s19.965-5.036 20.752-11.41h-41.476z" fill="url(#F)"/>
 <path d="M220.198 90.517l.168.8h7.748l.192-.8zM228.39 92.035c-3.047 1.178-5.398.815-7.556.026l-.399.551c1.023.618 2.443 1.01 4.02 1.01 1.67 0 3.173-.43 4.207-1.112-.136-.228-.272-.475-.272-.475z" fill="#fff"/>
 <path transform="translate(206.97 69.943) scale(.27138)" d="M48.75 75.813l.619 2.943h28.549l.707-2.944z" fill="url(#G)"/>
 <path transform="translate(206.97 69.943) scale(.27138)" d="M78.938 81.406c-11.228 4.342-19.891 3.004-27.844.094l-1.469 2.031c3.768 2.278 8.999 3.719 14.813 3.719 6.153 0 11.69-1.578 15.5-4.094-.5-.84-1-1.75-1-1.75z" fill="url(#al)"/>
 <path d="m223.07 85.669c0 1.774-1.189 3.213-2.657 3.213-1.467 0-2.657-1.439-2.657-3.213s1.19-3.213 2.657-3.213c1.468 0 2.658 1.439 2.658 3.213z" fill="#fff"/>
 <path d="M221.767 86.2c0 .948-.617 1.715-1.377 1.715-.761 0-1.378-.767-1.378-1.715 0-.947.617-1.715 1.378-1.715.76 0 1.377.768 1.377 1.715z"/>
 <path d="M220.835 85.034c.273.293.176.826-.216 1.19s-.93.422-1.203.128c-.272-.293-.175-.826.216-1.19.392-.364.93-.421 1.203-.128z" fill="#fff"/>
 <path transform="translate(206.02 68.59) scale(.27138)" d="m62.843 62.932c0 6.538-4.384 11.839-9.792 11.839-5.407 0-9.79-5.3-9.79-11.84 0-6.537 4.383-11.838 9.79-11.838 5.408 0 9.792 5.3 9.792 11.839z" fill="url(#W)"/>
 <path transform="translate(206.97 -180.91) scale(.27138)" d="M103.4 1046.057c-10.436 8.017-23.275-16.254-36.434-16.21-13.65.048-26.692 24.19-37.946 16.466-10.849-7.447 8.267-27.158 4.158-39.659-4.263-12.967-31.254-17.91-27.385-31 3.73-12.62 28.383-.53 39.002-8.302 11.016-8.061 7.376-35.259 21.021-35.624 13.154-.353 9.275 26.83 19.947 34.528 11.071 7.985 35.813-3.881 40.377 8.983 4.4 12.402-22.65 17.112-26.674 29.641-4.174 12.997 14.758 32.86 3.933 41.177z" fill-opacity=".569" filter="url(#c)"/>
 <path transform="rotate(5.915 -869.66 2598) scale(.24497)" d="M-116 8c-10.584 10.025-27.5-15.256-41.996-13.704-15.036 1.609-26.653 29.7-39.935 22.473-12.805-6.969 6.01-30.87.056-44.176-6.177-13.803-36.484-16.17-33.714-31.036 2.67-14.331 31.216-3.823 42.031-13.597 11.219-10.14 4.105-39.695 19.099-41.655 14.455-1.889 13.282 28.507 25.92 35.772 13.11 7.536 39.02-8.363 45.518 5.292 6.263 13.164-23.007 21.44-26.011 35.706C-128.15-22.128-105.021-2.4-116 8z" fill="url(#ah)"/>
 <path transform="translate(206.97 -180.91) scale(.27138)" d="M63.344 930.768c-8.214 1.377-8.967 11.724-11.137 18.09-1.888 8.645-6.148 19.599-16.52 20.067-9.494 1.743-20.245-3.24-28.968 1.843-3.011 2.396-2.89 7.781-.532 10.125.215-8.122 9.86-9.866 16.343-8.957 8.979.167 21.65 3.383 27.032-6.199 5.876-9.322 4.174-22.916 13.126-30.187 2.048-1.54 5.246-1.658 7.343-1.282-1.437-2.33-3.947-3.867-6.687-3.5zm22.593 35.938c7.365 8.088 19.756 3.771 29.313 4.469 2.367-.065 5.435.523 7.25.968-5.581-7.082-16.053-3.383-23.844-3.875-4.186.231-9.27-.272-12.719-1.562zm-53.156 41.562c.252 11.212-9.363 20.76-7.75 31.907.365 1.333 1.916 3.536 1.532.53 1.403-10.645 10.667-20.639 6.937-31.562-.184-.315-.978-2.163-.719-.875z" fill="#fff" fill-opacity=".798" filter="url(#e)"/>
 <path transform="translate(206.97 -180.91) scale(.27138)" d="M64.313 931.018c6.897 9.529 4.119 24.526 14.28 31.844 1.463.828 4.865 2.199 2.126-.094-7.285-8.844-4.803-22.715-12.938-30.937-.8-.549-3.496-1.632-3.469-.813zm17.75 33.188c.117.108.046-.03 0 0zm34.374 4.219c4.87 4.997 1.537 12.8-3.906 15.906-7.404 6.165-20.152 9.721-21.437 20.562-.596 11.987 10.282 22.566 7.219 34.688-.474 2-2.945 3.754-3.782 4.719 6.478 2.299 11.208-5.72 8.813-11.313-2.128-10.716-11.162-21.94-5.719-32.875 5.97-10.146 20.307-12.024 25.719-22.406 1.502-4.58-2.997-9.24-6.906-9.281zm-59.156 59.25c-10.807 1.686-18.176 12.698-27.375 16.906 9.173 1.04 15.266-8.161 22.344-12.469 1.693-1.756 6.832-3.67 7.219-4.406-.723-.068-1.467-.168-2.188-.031z" fill-opacity=".237" filter="url(#f)"/>
 <path d="m231.51 85.669c0 1.774-1.19 3.213-2.657 3.213-1.468 0-2.657-1.439-2.657-3.213s1.19-3.213 2.657-3.213 2.657 1.439 2.657 3.213z" fill="#fff"/>
 <path d="M230.21 86.2c0 .948-.616 1.715-1.377 1.715-.76 0-1.377-.767-1.377-1.715 0-.947.616-1.715 1.377-1.715.76 0 1.377.768 1.377 1.715z"/>
 <path d="M229.278 85.034c.273.293.176.826-.215 1.19-.392.364-.93.422-1.203.128-.273-.293-.176-.826.216-1.19.391-.364.93-.421 1.202-.128z" fill="#fff"/>
 <path transform="translate(214.46 68.59) scale(.27138)" d="m62.843 62.932c0 6.538-4.384 11.839-9.792 11.839-5.407 0-9.79-5.3-9.79-11.84 0-6.537 4.383-11.838 9.79-11.838 5.408 0 9.792 5.3 9.792 11.839z" fill="url(#W)"/>
 <path d="m218.05 90.182c0.24 2.19 2.977 3.919 6.327 3.919s6.095-1.73 6.335-3.919h-12.662z"/>
 <path d="m218.83 90.52c0.213 1.73 2.646 3.097 5.624 3.097s5.418-1.366 5.631-3.096h-11.255z" fill="red"/>
 <path transform="translate(206.97 -180.91) scale(.27138)" d="m43.72 1000.2c0.786 6.375 9.75 11.411 20.723 11.411s19.965-5.036 20.752-11.41h-41.476z" fill="url(#F)"/>
 <path d="M220.198 90.517l.168.8h7.748l.192-.8zM228.39 92.035c-3.047 1.178-5.398.815-7.556.026l-.399.551c1.023.618 2.443 1.01 4.02 1.01 1.67 0 3.173-.43 4.207-1.112-.136-.228-.272-.475-.272-.475z" fill="#fff"/>
 <path transform="translate(206.97 69.943) scale(.27138)" d="M48.75 75.813l.619 2.943h28.549l.707-2.944z" fill="url(#G)"/>
 <path transform="translate(206.97 69.943) scale(.27138)" d="M78.938 81.406c-11.228 4.342-19.891 3.004-27.844.094l-1.469 2.031c3.768 2.278 8.999 3.719 14.813 3.719 6.153 0 11.69-1.578 15.5-4.094-.5-.84-1-1.75-1-1.75z" fill="url(#al)"/>
 <path d="m223.07 85.669c0 1.774-1.189 3.213-2.657 3.213-1.467 0-2.657-1.439-2.657-3.213s1.19-3.213 2.657-3.213c1.468 0 2.658 1.439 2.658 3.213z" fill="#fff"/>
 <path d="M221.767 86.2c0 .948-.617 1.715-1.377 1.715-.761 0-1.378-.767-1.378-1.715 0-.947.617-1.715 1.378-1.715.76 0 1.377.768 1.377 1.715z"/>
 <path d="M220.835 85.034c.273.293.176.826-.216 1.19s-.93.422-1.203.128c-.272-.293-.175-.826.216-1.19.392-.364.93-.421 1.203-.128z" fill="#fff"/>
 <path transform="translate(206.02 68.59) scale(.27138)" d="m62.843 62.932c0 6.538-4.384 11.839-9.792 11.839-5.407 0-9.79-5.3-9.79-11.84 0-6.537 4.383-11.838 9.79-11.838 5.408 0 9.792 5.3 9.792 11.839z" fill="url(#W)"/>
</svg>
