<svg width="400pt" height="400pt" xmlns="http://www.w3.org/2000/svg" xmlns:xlink="http://www.w3.org/1999/xlink"><defs><linearGradient id="a"><stop offset="0" stop-color="#ffffe8" stop-opacity=".65"/><stop offset="1" stop-color="#fff" stop-opacity="0"/></linearGradient><linearGradient xlink:href="#a" id="b"/><linearGradient xlink:href="#a" id="c"/></defs><g fill-rule="evenodd"><path d="M248.75 477.5C20 276.25-36.25 110 88.75 37.5c102.5-30 143.75 70 158.75 125C260 110 321.25 5 407.5 37.5c123.333 46.25 76.667 226.25-158.75 440z" fill="red" stroke="#000" stroke-width="10" stroke-linejoin="round"/><path d="M100 45s-70 35-67.5 78.75C10 231.25 186.25 415 201.25 422.5 151.25 310 63.75 85 100 45z" fill="url(#b)"/><path d="M261.25 148.75c16.25-47.5 58.75-107.5 98.75-110 78.75 6.25-50 42.5-98.75 110z" fill="url(#c)"/></g></svg>