<?xml version="1.0" encoding="UTF-8"?>
<svg width="400pt" height="400pt" xmlns="http://www.w3.org/2000/svg">
 <path transform="matrix(1.0717 0 0 1.1799 -15.66 -40.026)" d="m35.613 215.95c-2.258 178.91 425.66 176.37 426.5-0.848-1.695-123.8-426.5-122.95-426.5 0.848z" fill="#f3f3f3" fill-rule="evenodd" stroke="#000" stroke-linejoin="round" stroke-width="8.893"/>
 <path transform="matrix(1.0717 0 0 1.1799 -15.66 -40.026)" d="m267.4 249.41c-4.336 39.635 16.133 77.964 24.559 97.293 31.373 0.521 103.1-28.176 114.24-38.659 3.75-23.48-32.195-73.147-44.643-74.458-24.85 12.425-71.834 15.489-94.154 15.824z" fill="red" fill-rule="evenodd" stroke="#000" stroke-linejoin="bevel" stroke-width="3.335"/>
 <path transform="matrix(1.0717 0 0 1.1799 -15.66 -40.026)" d="m170.27 128.09c-9.172 32.757 9.105 99.808 27.449 121.43 43.781 4.031 69.084 1.473 86.044 1.308 11.138-40.619-12.901-113.68-28.625-128.75-34.179-1.521-49.266 0.448-84.868 6.011z" fill="red" fill-rule="evenodd" stroke="#000" stroke-linejoin="round" stroke-width="8.893"/>
 <path transform="matrix(.98029 0 0 1.0443 6.239 -2.63)" d="m23.34 180.14c18.155-6.051 76.075 12.103 81.262 15.561 12.103 4.322 23.341 10.374 30.257 37.173-17.29 6.051-55.327 23.341-50.14 84.719-19.883-1.729-90.77-69.158-61.378-137.45zm459 32.851c-9.509-13.832-25.03-32.851-85.544-6.916 0.128-3.089-2.961 9.656-9.509 12.103-21.613-8.645-27.664-90.789-5.187-98.569 44.953 15.56 101.1 34.597 100.24 93.382z" fill="red" fill-rule="evenodd" stroke="#000" stroke-linejoin="round" stroke-width="9.883"/>
 <path transform="matrix(1.0717 0 0 1.1799 -15.66 -40.026)" d="m128.84 199.68c-32.95 7.014-22.01 52.155 121.98 52.653 138.1-2.121 141.8-45.754 125.42-50.34" fill="none" stroke="#000" stroke-linejoin="round" stroke-width="8.893"/>
 <path transform="matrix(.98029 0 0 1.0443 6.239 -2.63)" d="m14.142 222.46s-26.516 10.606 0.884 36.238c30.936 30.053 88.388 52.15 121.09 51.266 127.28 25.633 274-2.652 315.55-40.659 5.303-10.606 1.767 8.839 21.213-19.446 19.445-28.284 24.714-52.148 21.213-66.29-2.724-14.104-25.633-22.982-25.633-18.562 0 0 6.188 13.258 8.822 17.678 0.901 10.607 14.16 34.471-29.151 70.71-69.827 63.64-235.11 53.033-275.77 48.614-103.42-7.071-149.38-49.498-155.56-61.872-1.768-7.071-2.652-14.142-2.652-17.677z" fill="#bfbfbf" fill-rule="evenodd" stroke="#000" stroke-linejoin="round" stroke-width="9.883"/>
 <path d="m77.782 320.57c38.891 29.168 134.35 50.38 187.38 47.73 95.46-5.304 171.47-53.918 185.62-78.667-50.381 29.169-91.039 47.731-159.98 55.686s-177.66-10.608-213.02-24.749z" fill-opacity=".25" fill-rule="evenodd"/>
 <path d="m105.18 237.49s110.49 22.98 147.61 23.865c53.916 5.302 161.75-31.82 159.98-44.195 12.374-4.419-98.995 125.51-307.59 20.33z" fill="#fff" fill-opacity=".496" fill-rule="evenodd"/>
 <path transform="matrix(.98029 0 0 1.0443 6.239 -2.63)" d="m182.5 352.5c-13.258-5.303-17.223-96.982 6.036-107.29 10-5-25.455-7.714-25.455-7.714-15.026 11.49-37.526 98.447-9.331 112.5 10.518 6.098 24.331 7.5 28.75 2.5z" fill="#735931" fill-rule="evenodd" stroke="#000" stroke-width="3.706"/>
 <path transform="matrix(.98029 0 0 1.0443 6.239 -2.63)" d="m382.72 218.04c11.491 2.652 79.549 13.259 72.478 67.176 9.723-3.536 14.143-10.607 16.794-18.562 0.883-37.123-49.498-62.756-80.433-58.337-5.304 0-8.839 11.491-8.839 9.723z" fill="#735931" fill-rule="evenodd" stroke="#000" stroke-linejoin="round" stroke-width="9.883"/>
 <path d="m144.07 238.37s28.285-33.587 118.44-32.703c76.014-0.884 110.49 24.748 110.49 24.748-15.91 16.794-184.73 42.427-228.93 7.955z" fill-opacity=".247" fill-rule="evenodd"/>
 <path d="m63.64 157.94c104.3-45.079 258.98-30.936 347.37-18.562-56.569-34.471-274-49.497-347.37 18.562z" fill="#fff" fill-opacity=".498" fill-rule="evenodd"/>
 <path transform="matrix(.98029 0 0 1.0443 6.239 -2.63)" d="m295.22 101.37c30.052 14.142 44.194 100.76 21.213 140.54-1.768 3.535 22.097-2.652 23.865-3.535 22.097-49.498 1.768-121.98-17.677-134.35-10.607-8.839-27.401-2.652-27.401-2.652zm-233.34 38.007c56.569 9.723 93.692 78.666 93.692 96.344 0 2.651 19.445 1.768 26.517 3.536-14.143-59.221-66.292-105.18-98.112-110.49-9.723 0-19.445 4.419-22.097 10.606z" fill="#735931" fill-rule="evenodd" stroke="#000" stroke-linejoin="round" stroke-width="9.883"/>
 <path d="m165.29 251.63c-2.651 7.071-16.794 38.89-16.794 68.943 13.258-44.195 23.865-66.292 30.936-66.292 3.536-0.884-8.839-8.839-14.142-2.651zm221.99-28.898c2.176-2.787 2.245-3.466 4.487-5.234 13.259-1.768 45.759 4.963 59.901 25.292-28.284-18.56-49.362-20.058-64.388-20.058zm-83.128-118.29s11.97-2.176 17.955 5.441c15.779 9.794 25.572 56.586 22.852 70.733-1.088-15.779-12.515-69.644-40.807-76.174zm-231.24 35.367s8.705-5.441 17.955-4.353c15.234-0.544 46.792 31.013 57.13 43.528 10.337 12.514-35.366-39.719-75.085-39.175z" fill="#fff" fill-opacity=".498" fill-rule="evenodd"/>
</svg>
