<?xml version="1.0" encoding="UTF-8"?>
<svg width="400pt" height="400pt" xmlns="http://www.w3.org/2000/svg" xmlns:xlink="http://www.w3.org/1999/xlink">
 <defs>
  <linearGradient id="a">
   <stop stop-color="#333" offset="0"/>
   <stop stop-color="#fff" offset="1"/>
  </linearGradient>
  <linearGradient id="e" x1=".537" x2=".338" y1=".641" y2="-.234" xlink:href="#a"/>
  <linearGradient id="f" x1=".406" x2="1.25" y1=".516" y2="-.617" xlink:href="#a"/>
  <linearGradient id="g" x1=".075" x2=".925" y1=".289" y2="1.07">
   <stop stop-color="#fff" offset="0"/>
   <stop stop-color="#0ff" offset="1"/>
  </linearGradient>
  <linearGradient id="d" x1="-1.172" x2=".552" y1=".039" y2="1.047">
   <stop stop-color="#fff" offset="0"/>
   <stop stop-color="#975e52" offset="1"/>
  </linearGradient>
 </defs>
 <g fill-rule="evenodd" stroke="#000" stroke-linejoin="round" stroke-width="10">
  <path transform="translate(38.75 3.75)" d="M241.25 455l1.25-197.5L385 135l1.25 198.75-145 121.25z" fill="url(#d)"/>
  <path transform="translate(-35 -22.5)" d="M220 147.5S347.5 295 350 295s138.75-120 138.75-120L352.5 38.75l-135 110" fill="url(#e)"/>
  <path transform="translate(-35 -22.5)" d="m218.75 148.75c0 1.25-136.25 82.5-136.25 82.5l131.25-105 137.5-87.5-132.5 110z" fill="url(#f)"/>
  <path d="M47.5 208.75l136.25-82.5L315 273.75l-12.5 10-125-140-123.75 77.5-6.25-12.5z"/>
  <path d="M70 211.25c1.25 0 1.25 183.75 0 183.75l211.25 63.75V260L177.5 145 70 211.25z" fill="#824a3d"/>
  <path d="M107.5 406.25l1.25-132.5 108.75 27.5v137.5l-110-32.5zM322.5 292.5c1.25-1.25 76.25-63.75 76.25-63.75L400 310l-75 65-2.5-82.5z" fill="#ee5e46"/>
  <path d="m176.25 192.5c40 12.5 26.25 67.5-6.25 58.75-32.5-10-23.75-67.5 6.25-58.75z"/>
  <path transform="translate(73.75 -27.5)" d="m291.25 291.25c1.25 0 28.75-25 28.75-25v67.5l-27.5 25-1.25-67.5z" fill="url(#g)"/>
  <path d="M315.645 382.803l97.62-82.702.369 16.488-97.616 85.75s.877-19.536-.373-19.536z" fill="#ee5e46"/>
  <path d="m201.22 363.55c9 2.842 8.999 17.999-2.368 17.052-9.947-1.421-9-16.578 2.368-17.052z"/>
  <path transform="translate(37.5 5)" d="m291.25 291.25c1.25 0 28.75-25 28.75-25v67.5l-27.5 25-1.25-67.5z" fill="url(#g)"/>
 </g>
</svg>
