<svg xmlns="http://www.w3.org/2000/svg" width="128" height="128"><metadata/><path d="M106.88 5.254L73.61 28.136l47.356 4.493c-.579-2.41-1.32-4.796-2.168-7.138l-15.105 2.358-.191-1.115 14.34-3.888c-.642-1.565-1.4-3.078-2.167-4.59l-29.223 7.075-.478-.605 28.427-8.987c-.676-1.194-1.443-2.326-2.2-3.474l-14.5 4.717-.764-.988 13.767-5.991a57.4 57.4 0 00-3.824-4.749zM40.944 22.272c-4.131-.014-8.39.75-12.652 2.295L10 42.955c20.396 5.889 41.126 4.85 60.136 0L52.799 24.63c-3.741-1.573-7.724-2.343-11.855-2.358zm29.35 5.673l-11.312 1.083 9.082 9.975 5.067-7.425-2.836-3.633zM10 45.982v69.282c14.787 7.88 51.622 7.391 60.136 0v-7.617c-7.873 2.194-26.078 4.775-40.537.733l-.542-49.013V57.9c16.468 2.279 27.731 2.676 41.079-.096V46.683c-19.01 4.157-39.74 4.495-60.136-.7zm20.714 14.213v46.56c16.265 4.157 26.623 1.66 39.422-.765v-5.609a1154.26 1154.26 0 00-6.693-2.485c-3.172 1.228-8.56 3.314-9.082 3.505.052.229.216.42.19.67-.111 1.105-1.055 1.947-2.039 1.848-.983-.1-1.673-1.094-1.561-2.2.022-.217.177-.318.255-.51-.841-.232-1.44-1.036-1.339-2.039.112-1.105.96-1.916 1.944-1.816.675.068 1.163.558 1.402 1.21.161-.051 4.393-1.66 5.96-2.23-1.567-.57-5.799-2.147-5.96-2.199-.239.653-.727 1.143-1.402 1.211-.983.1-1.832-.71-1.944-1.816-.101-1.003.498-1.807 1.339-2.04-.078-.19-.233-.292-.255-.51-.112-1.105.578-2.067 1.561-2.167.984-.1 1.928.711 2.04 1.817.025.25-.139.408-.191.637.522.191 5.91 2.309 9.082 3.537 2.567-.946 4.305-1.59 6.693-2.485v-8.86c-.272.283-1.02.9-1.02 1.02 0 4.94-2.587 8.923-5.8 8.923-3.213 0-5.832-3.984-5.832-8.923 0-.666-7.617-5.221-7.617-7.935 0-3.643 5.835-6.597 13.003-6.597 2.763 0 5.162.526 7.266 1.275V60.195c-12.799 2.079-25.93 3.118-39.422 0zm27.79 15.966c-1.205 0-2.231.825-2.231 1.817 0 .991 1.026 1.785 2.23 1.785 1.205 0 2.168-.794 2.168-1.785 0-.992-.963-1.817-2.167-1.817zm8.923 0c-1.205 0-2.167.825-2.167 1.817 0 .991.962 1.785 2.167 1.785 1.205 0 2.199-.794 2.199-1.785 0-.992-.994-1.817-2.2-1.817zm2.709 19.153c-.707.273-1.495.575-2.646 1.02 1.15.445 1.94.779 2.646 1.052v-2.072z"/></svg>