<?xml version="1.0" encoding="UTF-8"?>
<svg width="128" height="128" xmlns="http://www.w3.org/2000/svg" xmlns:xlink="http://www.w3.org/1999/xlink">
 <defs>
  <linearGradient id="d" x1="110" x2="122.96" y1="248" y2="214" gradientUnits="userSpaceOnUse" xlink:href="#a"/>
  <linearGradient id="a">
   <stop stop-color="#86d7d1" offset="0"/>
   <stop stop-color="#d8f2f0" offset=".5"/>
   <stop stop-color="#86d7d1" offset="1"/>
  </linearGradient>
  <linearGradient id="c" x1="72.632" x2="148.68" y1="346" y2="345" gradientTransform="translate(-36 -18)" gradientUnits="userSpaceOnUse" xlink:href="#b"/>
  <linearGradient id="b">
   <stop stop-color="#d3f1ef" offset="0"/>
   <stop stop-color="#fff" offset=".5"/>
   <stop stop-color="#d3f1ef" offset="1"/>
  </linearGradient>
  <linearGradient id="e" x1="79.17" x2="141.19" y1="230.16" y2="230.16" gradientTransform="translate(-36 -18)" gradientUnits="userSpaceOnUse" xlink:href="#a"/>
  <linearGradient id="f" x1="120" x2="127.25" y1="204.75" y2="193" gradientTransform="translate(-36 -18)" gradientUnits="userSpaceOnUse" xlink:href="#a"/>
  <linearGradient id="g" x1="146.47" x2="126.69" y1="227.41" y2="228.16" gradientTransform="translate(-36 -18)" gradientUnits="userSpaceOnUse" xlink:href="#a"/>
  <linearGradient id="l" x1="146.47" x2="126.69" y1="227.41" y2="228.16" gradientTransform="matrix(.55823 0 0 .55823 -26.236 -92.064)" gradientUnits="userSpaceOnUse" xlink:href="#a"/>
  <linearGradient id="k" x1="120" x2="127.25" y1="204.75" y2="193" gradientTransform="matrix(.55823 0 0 .55823 -26.236 -92.064)" gradientUnits="userSpaceOnUse" xlink:href="#a"/>
  <linearGradient id="j" x1="79.17" x2="141.19" y1="230.16" y2="230.16" gradientTransform="matrix(.55823 0 0 .55823 -26.236 -92.064)" gradientUnits="userSpaceOnUse" xlink:href="#a"/>
  <linearGradient id="h" x1="72.632" x2="148.68" y1="346" y2="345" gradientTransform="matrix(.55823 0 0 .55823 -26.236 -92.064)" gradientUnits="userSpaceOnUse" xlink:href="#b"/>
  <radialGradient id="m" cx="137.78" cy="222.35" r="3.446" gradientTransform="matrix(2e-5 -1.8333 .99999 1e-5 -83.929 476.92)" gradientUnits="userSpaceOnUse" xlink:href="#a"/>
 </defs>
 <g opacity=".797">
  <path d="M103.467 70.75c-5.975.349-14.08.705-20.04 3.042-5.994 3.509-12.28 7.056-17.747 10.558-.527 1.496-5.179 3.36-7.407 5.006-11.677 7.14-24.016 14.304-35.28 21.427-.611 2.395 6.971 2.68 12.984 2.823 6.667-.071 15.176-.33 23.09-2.667 8.943-4.96 16.643-9.975 25.102-14.956 8.085-4.844 15.822-9.697 24.518-14.518 4.347-2.698 9.659-5.434 13.382-8.108-.497-2.408-8.679-2.64-15.613-2.662l-2.989.055z" opacity=".2"/>
  <path d="M103.963 70.472c-6.141.333-14.095.733-20.505 2.984-6.506 3.546-12.347 7.152-18.273 10.71-.806 1.717-5.71 3.767-8.347 5.635-11.446 6.998-23.542 14.021-34.582 21.003-1.218 2.42 6.012 2.83 11.643 3.046 6.99.07 16.03-.18 24.722-2.526 4.892-1.867 7.036-4.027 10.781-6.01 11.671-6.987 23-13.99 34.884-20.966 6.381-3.524 12.283-7.105 18.106-10.638 1.984-2.278-4.28-2.796-8.908-3.149-2.873-.195-6.146-.182-9.52-.09z" opacity=".2"/>
  <path d="M108.598 70.117c-11.354 0-23.376 1.695-26.836 3.783L64.709 83.968c-.678.409-.868.792-.825 1.16L22.018 110.39c-3.46 2.088 2.619 3.783 13.566 3.783 10.947 0 22.643-1.695 26.104-3.783l7.306-4.408 1.302-.786 2.685-1.62 5.209-3.142 26.193-15.805c.568-.216 1.084-.433 1.461-.66L122.897 73.9c3.46-2.088-2.945-3.783-14.299-3.783z" opacity=".2"/>
  <path d="M104.746 69.916c-6.664.341-15.479.864-22.354 3.374-6.707 3.549-12.242 7.162-18.455 10.733-1.283 1.91-5.879 4.035-8.99 6.077-11.267 6.853-22.917 13.72-33.948 20.563-2.646 2.455 3.479 3.207 8.296 3.587 7.782.438 18.095.221 28.737-2.234 6.035-1.731 7.746-4.048 11.66-6.035C81.669 98.802 93.35 91.61 105.516 84.44c6.48-3.512 12.073-7.073 18.165-10.602 3.14-2.568-3.182-3.347-8.005-3.763-3.258-.262-7.024-.263-10.93-.158z" opacity=".2"/>
  <path d="M105.172 69.637c-6.962.349-16.275.933-23.368 3.597-6.785 3.585-12.405 7.238-18.64 10.845-1.385 1.989-6.206 4.201-9.41 6.32-11.121 6.771-22.674 13.56-33.527 20.32-2.867 2.654 3.716 3.463 9.011 3.835 7.917.402 18.443.134 29.127-2.392 6.398-1.84 8.259-4.291 12.393-6.403 11.839-7.096 23.383-14.206 35.409-21.292 6.51-3.54 12.198-7.13 18.286-10.686 3.362-2.764-3.389-3.623-8.74-4.01-3.138-.247-6.799-.23-10.541-.134z" opacity=".2"/>
 </g>
 <path transform="matrix(.55823 0 0 .55823 -6.14 -82.016)" d="M41.632 204v136c0 9.384 15.915 17 35.526 17 19.61 0 35.526-7.616 35.526-17V204h-.205c-.004.032-.037.061-.041.094a9.165 9.165 0 01-1.028 3.156c-.567 1.047-1.31 2.041-2.262 3a20.562 20.562 0 01-3.29 2.688c-.1.066-.226.121-.328.187a31.31 31.31 0 01-3.989 2.188c-.143.065-.306.123-.452.187a43.738 43.738 0 01-4.564 1.719c-.69.215-1.459.37-2.18.562-1.201.321-2.377.653-3.66.906-1.66.332-3.4.574-5.18.782-.41.047-.778.146-1.192.187-.014.002-.028-.001-.042 0a73.147 73.147 0 01-7.113.344c-2.438 0-4.817-.12-7.114-.344-.013-.001-.027.002-.04 0-.415-.04-.784-.14-1.193-.187-1.78-.208-3.52-.45-5.181-.781-1.282-.254-2.458-.586-3.66-.907-.718-.193-1.493-.346-2.179-.562a43.738 43.738 0 01-4.564-1.719c-.146-.065-.309-.122-.452-.188a31.31 31.31 0 01-3.989-2.187c-.102-.066-.229-.12-.329-.188a20.562 20.562 0 01-3.29-2.687c-.951-.959-1.694-1.953-2.26-3a9.165 9.165 0 01-1.029-3.156c-.004-.033-.037-.061-.04-.094h-.206z" fill="url(#c)"/>
 <path transform="matrix(.7346 0 0 .55823 -43.875 -112.72)" d="M138 231a28 17 0 11-56 0 28 17 0 1156 0z" fill="url(#d)"/>
 <path transform="matrix(.55823 0 0 .55823 -6.14 -82.016)" d="M40.308 176l-.648 45.237c0 9.384 16.507 17 36.846 17 20.339 0 36.846-7.616 36.846-17L114 176h-.213c-.004.032-.038.061-.043.094a8.937 8.937 0 01-1.066 3.156c-.587 1.047-1.358 2.041-2.346 3a21.187 21.187 0 01-3.411 2.688c-.105.066-.235.121-.341.187-1.262.78-2.61 1.52-4.137 2.188-.149.065-.318.123-.47.187a46.43 46.43 0 01-4.733 1.719c-.714.215-1.512.37-2.26.562-1.246.321-2.466.653-3.796.906-1.723.332-3.527.574-5.373.782-.424.047-.807.146-1.237.187-.013.002-.029-.001-.042 0a78.66 78.66 0 01-7.378.344 78.66 78.66 0 01-7.378-.344c-.014-.001-.028.002-.042 0-.43-.04-.813-.14-1.237-.187-1.846-.208-3.65-.45-5.373-.781-1.33-.254-2.55-.586-3.796-.907-.745-.193-1.548-.346-2.26-.562a46.43 46.43 0 01-4.734-1.719c-.151-.065-.32-.122-.469-.188a32.857 32.857 0 01-4.137-2.187c-.106-.066-.237-.12-.34-.188a21.187 21.187 0 01-3.412-2.687c-.988-.959-1.759-1.953-2.346-3a8.937 8.937 0 01-1.066-3.156c-.005-.033-.039-.061-.043-.094h-.213z" fill="url(#e)"/>
 <path d="M43.753 71.289c-.93 0-1.853.352-2.565 1.064L28.523 85.001a3.613 3.613 0 00-1.064 2.512v.069h.018c.243.922 6.506 2.093 7.204 2.792 1.055 1.054-4.037 1.824-2.983 2.878 1.055 1.054 6.36 2.033 7.414 3.088 1.055 1.054-2.153 2.19-1.099 3.244 1.055 1.055 4.602-.272 3.96 2.478 1.424 1.423 4.396.743 6.385-.68 1.054-1.055-2.031-.953-.977-2.007 1.054-1.054 3.724-1.072 5.966-3.594-.902-1.403-3.863-1.998-2.808-3.052.937-.937 2.754-.714 6.227-2.041v-7.886L46.317 72.353a3.607 3.607 0 00-2.564-1.064zm-.367 1.675c.554-.143.873.206 1.658.715l5.966 4.43a2.588 2.588 0 01.349.28c.049.048.098.09.14.14.04.05.071.104.104.157a1.377 1.377 0 01.157.331c.016.054.027.102.035.157.008.055 0 .102 0 .157l-3.542-1.71-.348 2.687-1.937-.925-3.018 2.006-1.151-3.96-1.483 3.472-4.134.419.052-1.85c0-.442 2.385-3.536 3.838-4.273l2.651-1.92c.262-.169.479-.266.663-.313zm-5.25 18.055c1.884.489 3.987 1.122 5.669 1.134l.07.767c-1.44-.148-4.498-.854-5.216-1.22l-.524-.681zm18.02 3.716c-.396.099-2.318.159-2.163 1.395.829.302 1.879.545 2.773.593v-1.97c-.206.006-.457-.057-.61-.018zm-20.01 2.093a1.379 1.379 0 00-.784.122c-.996.503-1.664 1.614-.733 2.076.93.462 1.591-.055 2.407-.628.816-.573.792-.686.733-.907-.113.03-.84-.572-1.622-.663zm17.271.558c-.773.31-.775 1.386-.157 1.85.618.463 1.383.152 1.692-.158.31-.309.01-1.383-1.535-1.692z"/>
 <path transform="matrix(.55823 0 0 .55823 -6.14 -82.016)" d="m80.219 168.38-17.906 10.813 26.374 11.937v0.938c9.235-1.415 16.784-4.43 21.157-8.375l-0.031-1.22-29.594-14.093z" fill="url(#f)"/>
 <path transform="matrix(.55823 0 0 .55823 -6.14 -82.016)" d="M109.813 182.656c-.864.79-1.79 1.57-2.907 2.281-.104.067-.206.122-.312.188-1.262.78-2.63 1.52-4.156 2.188-.15.065-.318.123-.47.187a46.132 46.132 0 01-4.718 1.719c-.715.215-1.534.37-2.281.562-1.246.321-2.452.653-3.781.906-.842.162-1.75.25-2.626.375l.126.063.5 34.125c9.84-.709 16.94-2.916 21.28-11.125l-.656-31.469z" fill="url(#g)"/>
 <path d="M52.958 32.113a2.004 3.126 0 11-4.008 0 2.004 3.126 0 114.008 0z"/>
 <path d="M17.1 31.864v75.92c0 5.238 8.885 9.49 19.833 9.49 10.947 0 19.832-4.252 19.832-9.49v-75.92h-.115c-.002.018-.02.034-.023.052a5.116 5.116 0 01-.574 1.762 7.302 7.302 0 01-1.262 1.675 11.479 11.479 0 01-1.837 1.5c-.056.037-.126.068-.183.105-.68.435-1.405.848-2.227 1.22-.08.037-.17.07-.252.106-.8.35-1.636.674-2.548.959-.385.12-.814.206-1.217.314-.67.18-1.327.364-2.043.506a36.53 36.53 0 01-2.892.436c-.228.027-.434.082-.665.105h-.023c-1.282.125-2.61.192-3.971.192-1.361 0-2.69-.067-3.971-.192h-.023c-.232-.023-.437-.078-.666-.105a36.53 36.53 0 01-2.892-.436c-.716-.142-1.372-.327-2.043-.506-.401-.108-.833-.193-1.216-.314a24.416 24.416 0 01-2.548-.96c-.082-.036-.173-.067-.253-.104a17.478 17.478 0 01-2.226-1.221c-.057-.037-.128-.068-.184-.105a11.479 11.479 0 01-1.836-1.5 7.302 7.302 0 01-1.263-1.675 5.116 5.116 0 01-.574-1.762c-.002-.018-.02-.034-.022-.052H17.1z" fill="url(#h)"/>
 <path transform="matrix(.7346 0 0 .55823 -43.875 -112.72)" d="M138 231a28 17 0 11-56 0 28 17 0 1156 0z" fill="url(#d)"/>
 <path d="M16.362 16.233L16 41.486c0 5.238 9.215 9.49 20.569 9.49s20.568-4.252 20.568-9.49l.362-25.253h-.119c-.002.018-.021.035-.024.053a4.989 4.989 0 01-.595 1.762 7.33 7.33 0 01-1.31 1.674 11.827 11.827 0 01-1.904 1.5c-.058.038-.13.068-.19.105-.705.435-1.457.848-2.31 1.221-.082.037-.177.07-.261.105-.83.35-1.697.674-2.643.96-.399.12-.844.206-1.261.313-.696.18-1.377.365-2.12.506-.961.185-1.968.32-2.999.436-.237.027-.45.082-.69.105h-.024a43.91 43.91 0 01-4.118.192 43.91 43.91 0 01-4.119-.192h-.024c-.24-.023-.453-.078-.69-.105a39.201 39.201 0 01-3-.436c-.742-.141-1.423-.326-2.118-.506-.416-.107-.865-.193-1.262-.314a25.918 25.918 0 01-2.643-.959c-.084-.036-.178-.068-.262-.105a18.342 18.342 0 01-2.309-1.22c-.059-.038-.132-.068-.19-.106a11.827 11.827 0 01-1.905-1.5 7.331 7.331 0 01-1.31-1.674 4.989 4.989 0 01-.594-1.762c-.003-.019-.022-.034-.024-.053h-.12z" fill="url(#j)"/>
 <path d="M38.641 11.977l-9.995 6.036 14.723 6.664v.523c5.155-.79 9.37-2.472 11.81-4.675l-.017-.68-16.52-7.868z" fill="url(#k)"/>
 <path d="M55.162 19.949c-.482.44-.999.877-1.623 1.273-.058.038-.115.068-.174.105-.705.435-1.468.848-2.32 1.221-.083.037-.178.07-.262.105-.83.35-1.688.674-2.634.96-.4.12-.856.206-1.274.313-.695.18-1.368.365-2.11.506-.47.09-.977.14-1.466.21l.07.035.279 19.05c5.493-.396 9.457-1.629 11.88-6.211l-.366-17.567z" fill="url(#l)"/>
 <path transform="matrix(.91646 0 0 .77982 -76.285 -142.8)" d="M141.864 224.312a3.446 6.318 0 11-6.892 0 3.446 6.318 0 116.892 0z" fill="url(#m)"/>
 <path d="M51.978 32.118a1.514 2.362 0 11-3.028 0 1.514 2.362 0 113.028 0zM56.581 67.287c-2.062-.733-4.415-1.25-7.125-1.25-7.028 0-12.75 2.897-12.75 6.47 0 2.66 7.469 7.127 7.469 7.78 0 4.844 2.537 8.75 5.688 8.75 3.15 0 5.687-3.906 5.687-8.75 0-.117.765-.722 1.031-1v8.688c-2.34.878-4.076 1.51-6.594 2.438-3.11-1.205-8.362-3.282-8.875-3.47.052-.223.182-.379.157-.624-.11-1.084-1.005-1.88-1.969-1.782-.964.098-1.641 1.041-1.531 2.125.021.214.174.313.25.5-.825.229-1.412 1.017-1.313 2 .11 1.085.942 1.88 1.906 1.782.662-.067 1.11-.548 1.344-1.188.158.051 4.339 1.597 5.875 2.156-1.536.56-5.717 2.137-5.875 2.188-.235-.64-.682-1.12-1.344-1.188-.964-.097-1.796.698-1.906 1.782-.1.983.488 1.771 1.313 2-.076.187-.229.286-.25.5-.11 1.084.567 2.058 1.531 2.156.964.098 1.859-.728 1.969-1.813.025-.245-.105-.432-.157-.656.513-.187 5.764-2.232 8.875-3.437 2.518.928 4.254 1.56 6.594 2.437V67.287zm-11.437 4.844c1.181 0 2.125.81 2.125 1.781 0 .973-.944 1.75-2.125 1.75-1.182 0-2.157-.777-2.157-1.75 0-.972.975-1.78 2.157-1.78zm8.75 0c1.181 0 2.187.81 2.187 1.781 0 .973-1.006 1.75-2.187 1.75-1.182 0-2.125-.777-2.125-1.75 0-.972.943-1.78 2.125-1.78zm2.687 18.781v2.032c-.692-.268-1.465-.595-2.594-1.032 1.129-.436 1.902-.732 2.594-1z"/>
</svg>
