<svg xmlns="http://www.w3.org/2000/svg" xmlns:xlink="http://www.w3.org/1999/xlink" width="128" height="128" version="1.0"><defs><linearGradient xlink:href="#a" id="f" gradientUnits="userSpaceOnUse" x1="48.352" y1="41.503" x2="32.973" y2="27.403"/><linearGradient id="b"><stop offset="0" stop-color="#a2a2a2"/><stop offset="1" stop-color="#fff"/></linearGradient><linearGradient id="c"><stop offset="0" stop-color="#fff"/><stop offset="1" stop-color="#fff" stop-opacity="0"/></linearGradient><linearGradient xlink:href="#a" id="d" gradientUnits="userSpaceOnUse" x1="17.523" y1="39.45" x2="4.275" y2="26.18"/><linearGradient xlink:href="#a" id="e" gradientUnits="userSpaceOnUse" x1="33.525" y1="37.95" x2="17.175" y2="24.6"/><linearGradient id="a"><stop offset="0" stop-color="#cfcfcf"/><stop offset="1" stop-color="#fff"/></linearGradient><linearGradient xlink:href="#b" id="g" gradientUnits="userSpaceOnUse" x1="9.6" y1="49.725" x2="9.75" y2="40.65"/><linearGradient xlink:href="#b" id="h" gradientUnits="userSpaceOnUse" x1="27.3" y1="51.853" x2="27.333" y2="41.278"/><linearGradient xlink:href="#b" id="i" gradientUnits="userSpaceOnUse" x1="40.475" y1="52.667" x2="40.245" y2="41.342"/><linearGradient xlink:href="#c" id="j" gradientUnits="userSpaceOnUse" x1="8.7" y1="-21.6" x2="16.725" y2="15.675"/><linearGradient xlink:href="#c" id="k" gradientUnits="userSpaceOnUse" x1="20.6" y1="-10.075" x2="32" y2="10.325"/></defs><metadata/><g fill-rule="evenodd"><path d="M36.3 16.577c.34 2.109-2.38.831-3.644 1.168l-12.746-.062-9.403 88.418h34.668c1.3-.908.974 1.925.976 3.124.001 2.072.283 4.206-.996 5.992-.51 1.044-1.78-2.15-1.638-3.12-.349-1.249.808-4.055-1.4-3.379l-31.537.14.87 8.63h32.26c.657-.994 1.594 1.655 2.323.566-1.058-1.635 2.474-.44 3.493-.794l37.133.14V106.1h36.156l-13.039-88.263H95.94c-.43-3.121-.868-6.242-1.302-9.362H73.677c.08 3.066.168 6.132.244 9.2H58.214c-.058-3.067-.108-6.134-.163-9.2h-20.97l-.78 8.101zM90.604 117.49h30.893l1.31-8.63-31.95-.147-.253 8.777zm-46.91.83c.042.022.008-.094 0 0z" opacity=".125"/><path d="M35.934 16.545c.038 1.716-2.628.44-3.798.824l-12.56-.06-9.484 89.166h35.083c1.046-.656.444 2.486.602 3.53.052 1.75.157 3.51-.903 5.011-1.469-1.947-.883-4.413-1.09-6.678l-33.61.146.951 9.38h32.96c1.023-.574 3.128-.072 4.571-.23l38.377.148v-11.307h36.213l-13.153-89.011H96.265c-.44-3.12-.866-6.242-1.301-9.363h-21.67c.082 3.067.165 6.133.244 9.2H58.58l-.163-9.2h-21.67c-.27 2.815-.542 5.63-.813 8.444zm54.28 101.318h31.6l1.424-9.379-32.748-.146-.277 9.525z" opacity=".125"/><path d="M35.56 16.512c-.616 1.128-3.09.192-4.457.484l-11.868-.061-9.558 89.906h35.498c.886-.366-.083 2.347.236 3.482.071.949.116 4.74-.899 3.232-.528-1.76-.188-3.742-.37-5.591l-34.383.163 1.024 10.102h33.668c.99-.58 3.064-.065 4.465-.229l38.483.148V106.84h36.27l-13.25-89.743H96.583c-.429-3.122-.869-6.242-1.302-9.363h-22.36c.075 3.067.17 6.133.235 9.2h-14.21c-.07-3.066-.112-6.133-.171-9.2H36.406l-.846 8.777zm54.28 101.717h32.292l1.537-10.102-33.537-.163-.293 10.265z" opacity=".125"/><path d="M35.194 16.471c-.805.397-2.284.046-3.348.155l-12.937-.065-9.639 90.655h35.766c-.101 2.062.205 4.213-.155 6.219-.483-.787-.154-2.255-.302-3.304-.253-.929.58-2.98-1.001-2.537l-34.226.158 1.098 10.851h34.375c.398-.613 1.97-.044 2.79-.234l40.158.153v-11.306H124.1l-13.364-90.492H96.908c-.438-3.12-.867-6.242-1.302-9.363H72.538c.077 3.067.167 6.133.236 9.2H59.312c-.067-3.066-.112-6.133-.171-9.2H36.073l-.879 9.11zm10.387 90.5c.201 1.097-1.159-.208 0 0zm43.876 11.632h32.992l1.651-10.85c-11.444-.055-22.89-.11-34.334-.163l-.309 11.013z" opacity=".125"/><path d="M35.715 7.158l-.879 9.11c-5.423-.027-10.845-.056-16.268-.081-3.232 30.468-6.486 60.934-9.712 91.403.396 1.655.41 3.732.66 5.549.197 1.946.397 3.892.592 5.838H45.2c.476-.595 2.084-.053 2.975-.232 13.324.05 26.649.102 39.973.151V107.59c1.514-.466 1.296.752 1.192 1.858-.092 3.177-.176 6.353-.272 9.53h33.708c.56-3.847 1.239-7.846 1.732-11.6L111.061 16.35H97.233c-.434-3.12-.864-6.242-1.301-9.362H72.156c.068 3.067.159 6.133.236 9.2H59.678c-.059-3.067-.104-6.134-.171-9.2H35.731l-.016.17z" opacity=".125"/><path d="M35.349 7.117l-.846 8.777c-5.423-.026-10.846-.06-16.269-.082-3.253 30.713-6.541 61.466-9.793 92.152.548 1.283.398 3.34.679 4.92.217 2.156.441 4.311.655 6.468h35.798c1.077-.563 3.203-.072 4.685-.226 12.755.047 25.51.1 38.264.144v-11.306c1.079.543.106 3.08.361 4.423l-.199 6.965h34.408c.61-4.087 1.305-8.472 1.879-12.34-.654-2.113-.766-4.855-1.211-7.21-4.128-27.942-8.25-55.885-12.381-83.827h-13.82c-.433-3.12-.874-6.24-1.302-9.362H71.773c.065 3.067.16 6.133.236 9.2H60.044c-.06-3.067-.101-6.134-.17-9.2H35.396l-.025.259-.023.245z" opacity=".125"/><path d="M34.974 7.085l-.813 8.435c-5.42-.029-10.84-.046-16.26-.082l-9.696 91.2c-.38 1.414.354 2.61.336 4.281.302 2.933.59 5.867.9 8.799H45.94c1.077-.562 3.203-.072 4.685-.226 14.533.066 29.173.077 43.583.226h29.202c.582-3.796 1.154-7.592 1.733-11.388.61-1.088-.297-2.478-.335-4.01-4.367-29.57-8.74-59.14-13.103-88.71H97.876c-.435-3.121-.861-6.243-1.302-9.363H71.391c.08 3.066.163 6.133.244 9.2H60.402l-.163-9.2H35.056l-.082.838z" opacity=".125"/><path d="M34.608 7.052l-.78 8.094c-5.42-.028-10.84-.05-16.26-.082-3.228 30.403-6.465 60.805-9.697 91.208-.388 1.228-.051 2.459.213 3.727.337 3.364.685 6.728 1.016 10.093h37.213c1.093-.544 3.2-.069 4.686-.219 14.235.063 28.574.07 42.688.219h30.04c.582-3.795 1.153-7.592 1.732-11.388.733-.87.052-2.534-.182-3.72-4.418-29.916-8.841-59.832-13.256-89.749h-13.82c-.433-3.12-.87-6.241-1.301-9.362H71.009c.075 3.066.163 6.133.244 9.2H60.768c-.055-3.067-.105-6.134-.163-9.2H34.722l-.114 1.18z" opacity=".125"/><path d="M5.4 5.53L1.677 40.5H15.55l1.473-34.895L5.4 5.53z" fill="url(#d)" stroke="#000" transform="translate(.936 -2.18) scale(2.60293)"/><path d="M29.756 5.53l2.39 34.97H15.721L17.08 5.53h12.676z" fill="url(#e)" stroke="#000" transform="translate(.936 -2.18) scale(2.60293)"/><path d="M40.825 5.605L45.973 40.5H32.175L30.027 5.605h10.798z" fill="url(#f)" stroke="#000" transform="translate(.936 -2.18) scale(2.60293)"/><path d="M32.17 3.025h23.427l.976 54.857-29.608-.216L32.17 3.025zM68.612 3.025h23.426l7.809 54.662H69.848L68.612 3.025z"/><path d="M28.462 68.033l26.94.048 1.171-10.646-29.608.04 1.497 10.558zM70.564 68.122l27.123-.089 2.147-10.607H69.848l.716 10.696z" fill="#3a3a3a"/><path d="M1.778 44.884l-.048-4.309 13.647-.075.123 4.376-13.722.008z" fill="url(#g)" stroke="#000" transform="translate(.936 -2.18) scale(2.60293)"/><path d="M32.008 44.856l-.01-4.456H15.425l.008 4.38 16.575.076z" fill="url(#h)" stroke="#000" transform="translate(.936 -2.18) scale(2.60293)"/><path d="M45.322 44.884l.648-4.309-13.347-.075-.123 4.376 12.822.008z" fill="url(#i)" stroke="#000" transform="translate(.936 -2.18) scale(2.60293)"/><path d="M12 2h9l.375 21.075L10 22.992 12 2z" fill="url(#j)" transform="translate(.936 -2.18) scale(2.60293)"/><path d="M26 2h9l3 21H26.475L26 2z" fill="url(#k)" transform="translate(.936 -2.18) scale(2.60293)"/></g></svg>