<svg xmlns="http://www.w3.org/2000/svg" xmlns:xlink="http://www.w3.org/1999/xlink" width="128" height="128" version="1.0"><defs><linearGradient xlink:href="#b" id="i" gradientUnits="userSpaceOnUse" gradientTransform="matrix(2.7256 0 0 2.7256 -1.542 -4.766)" x1="31.948" y1="55.892" x2="42.12" y2="39.317"/><linearGradient id="b"><stop offset="0" stop-color="#a2a2a2"/><stop offset="1" stop-color="#fff"/></linearGradient><linearGradient id="a"><stop offset="0" stop-color="#fff"/><stop offset="1" stop-color="#fff" stop-opacity="0"/></linearGradient><linearGradient xlink:href="#a" id="j" gradientUnits="userSpaceOnUse" gradientTransform="translate(-.177 .025)" x1="8.7" y1="-21.6" x2="16.725" y2="15.675"/><linearGradient xlink:href="#a" id="k" gradientUnits="userSpaceOnUse" gradientTransform="translate(-.177 .025)" x1="20.6" y1="-10.075" x2="32" y2="10.325"/><linearGradient id="c"><stop offset="0" stop-color="#cfcfcf"/><stop offset="1" stop-color="#fff"/></linearGradient><linearGradient xlink:href="#b" id="h" gradientUnits="userSpaceOnUse" gradientTransform="matrix(2.7256 0 0 2.7256 -1.542 -4.766)" x1="17.3" y1="56.503" x2="27.408" y2="39.853"/><linearGradient xlink:href="#b" id="g" gradientUnits="userSpaceOnUse" gradientTransform="matrix(2.7256 0 0 2.7256 -1.542 -4.766)" x1="4.875" y1="53.7" x2="9.65" y2="39.825"/><linearGradient xlink:href="#c" id="f" gradientUnits="userSpaceOnUse" gradientTransform="matrix(2.7256 0 0 2.7256 -1.542 -4.766)" x1="44.302" y1="37.678" x2="33.273" y2="27.928"/><linearGradient xlink:href="#c" id="e" gradientUnits="userSpaceOnUse" gradientTransform="matrix(2.7256 0 0 2.7256 -1.542 -4.766)" x1="30.525" y1="35.7" x2="18.3" y2="26.325"/><linearGradient xlink:href="#c" id="d" gradientUnits="userSpaceOnUse" gradientTransform="matrix(2.7256 0 0 2.7256 -1.542 -4.766)" x1="15.273" y1="38.1" x2="5.175" y2="28.355"/></defs><metadata/><path d="M13.176 10.308L3.234 106.03H40.84l4.83-95.313-32.495-.409z" fill="url(#d)" fill-rule="evenodd"/><path d="M79.559 10.308l7.126 95.517H40.083l4.927-95.517H79.56z" fill="url(#e)" fill-rule="evenodd"/><path d="M109.729 10.512l14.031 95.109-37.607.204-6.875-95.108 30.45-.205z" fill="url(#f)" fill-rule="evenodd"/><path d="M30.756 4.57h24.53l1.022 57.441-31.003-.226 5.45-57.216zM68.914 4.57h24.53l8.177 57.237H70.21L68.914 4.569z" fill-rule="evenodd"/><path d="M3.303 117.57l-.131-11.745H40.37l.13 11.518-37.197.227z" fill="url(#g)" fill-rule="evenodd"/><path d="M86.108 117.493l.176-11.942-46.193.205.021 11.533 45.996.204z" fill="url(#h)" fill-rule="evenodd"/><path d="M121.988 117.57l1.97-12.154H85.534l.279 12.132 36.175.022z" fill="url(#i)" fill-rule="evenodd"/><g fill-rule="evenodd"><path d="M26.872 69.878l28.21.038 1.226-8.372-31.003.03 1.567 8.304zM70.958 71.303l28.402-.08 2.248-9.689h-31.4l.75 9.77z" fill="#3a3a3a"/><path d="M11.823 2.025h9l.375 21.075-11.375-.083 2-20.992z" fill="url(#j)" transform="matrix(2.7256 0 0 2.7256 -1.468 -.95)"/><path d="M25.823 2.025h9l3 21H26.298l-.475-21z" fill="url(#k)" transform="matrix(2.7256 0 0 2.7256 -1.468 -.95)"/></g><path d="M30.896 4.128l-.602 6.181-17.13.037-9.965 95.48.086 11.755h118.733l1.96-12.18-14.225-94.885-15.72-.12-.631-5.842-24.38.238-.035 5.775-13.438-.442-.306-5.776-24.347-.22z" fill="none" stroke="#000"/></svg>