<svg width="400pt" height="400pt" xmlns="http://www.w3.org/2000/svg"><g fill-rule="evenodd"><path d="M141.535 236.756l261.867.791v194.62l-260.285 1.582-1.582-196.993z" fill="#fff600" stroke="#000" stroke-width="10" stroke-linejoin="round"/><path d="M141.535 235.965c-10.285-3.165-30.064-3.165-37.184-27.69v201.74s11.076 25.317 38.766 23.735c.79-9.494-1.582-200.159-1.582-197.785z" fill="#fd0" stroke="#000" stroke-width="10" stroke-linejoin="round"/><path d="M105.142 209.066c5.802-11.867 177.744-5.538 266.615-4.747 7.91 0 28.48 11.076 31.645 32.437 0 2.373-262.658 0-262.658 0-2.373-3.956-26.9 0-35.602-27.69z" fill="#fff600" stroke="#000" stroke-width="10" stroke-linejoin="round"/><path d="M152.61 219.352c0-.791-2.372-77.532-.79-104.431 30.854-112.342 212.026-77.532 214.399-1.582 2.373 43.513.79 107.595.79 106.804-6.33 12.658-31.644 8.702-37.182.79 0-9.493-.792-50.632-.001-103.639-18.987-62.5-128.956-56.17-142.405-4.747 0 53.798.79 109.178.79 109.178-4.745 7.91-29.27 14.24-35.6-2.373z" fill="#4c4c4c" stroke="#000" stroke-width="10" stroke-linejoin="round"/><path d="M220.648 407.643l103.64.791-35.601-90.982c15.032 2.373 40.348-59.335-15.823-65.664-57.753 7.12-37.974 63.291-18.196 67.247l-34.02 88.608z" stroke="#000" stroke-width="3.75"/><path d="M147.864 425.839s19.779-139.241 90.19-178.797c-20.569-6.33-97.31-6.33-90.19.79-.791 14.241-.791 179.589 0 178.007zM147.864 207.484c-11.867-.791-31.596.878-36.392 2.374-2.598 9.31 15.823 18.196 27.69 21.36 29.008 4.747 56.434 3.165 84.651 2.374-22.943-1.846-63.291 1.846-68.829-5.538-6.329-4.483-11.867-13.713-7.12-20.57z" fill="#fd0"/><path d="M395.49 241.503s7.121 171.678-2.373 185.918c-14.241.791-79.905-.791-79.905-.791 27.69-20.57 68.038-53.007 82.278-185.127zM372.548 207.484s7.911 8.703 2.373 15.032c-2.373 9.494-53.798 11.076-68.829 11.866 22.152.792 83.069 0 90.981-1.582 5.538-1.582-16.614-27.689-24.525-25.316z" fill="#fff" fill-opacity=".75"/><path d="M244.383 48.465c4.747-3.956 77.932-2.912 110.221 40.364 10.049 9.967 9.241 62.485 8.45 93.339-10.285-30.063-3.955-106.013-118.671-133.703z" fill="#fff" fill-opacity=".5"/></g></svg>