<svg width="106.667" height="106.667" xmlns="http://www.w3.org/2000/svg" xmlns:xlink="http://www.w3.org/1999/xlink"><defs><linearGradient id="c"><stop offset="0" stop-color="#646464"/><stop offset="1" stop-color="#969696"/></linearGradient><linearGradient id="a"><stop offset="0" stop-color="#ececec"/><stop offset=".5" stop-color="#d0d0d0"/><stop offset="1" stop-color="#ececec"/></linearGradient><linearGradient id="b"><stop offset="0" stop-color="#fff"/><stop offset=".767" stop-color="#d6d6d6"/><stop offset="1" stop-color="#c4c4c4"/></linearGradient><linearGradient xlink:href="#a" id="h" gradientTransform="scale(.9198 1.08719)" x1="39.466" y1="71.726" x2="40.07" y2="28.467" gradientUnits="userSpaceOnUse"/><linearGradient xlink:href="#a" id="g" gradientTransform="scale(1.0535 .94922)" x1="10.95" y1="59.637" x2="12.082" y2="45.666" gradientUnits="userSpaceOnUse"/><linearGradient xlink:href="#b" id="f" gradientTransform="scale(1.1999 .8334)" x1="29.855" y1="79.477" x2="19.3" y2="100.775" gradientUnits="userSpaceOnUse"/><linearGradient xlink:href="#c" id="e" gradientTransform="scale(.85952 1.16344)" x1="130.82" y1="48.732" x2="106.395" y2="47.297" gradientUnits="userSpaceOnUse"/><radialGradient xlink:href="#b" id="d" gradientTransform="scale(.682 1.46628)" cx="126.605" cy="45.212" fx="126.605" fy="45.212" r="18.038" gradientUnits="userSpaceOnUse"/></defs><metadata/><path d="M102.194 65.448a8.775 19.196 0 11-17.55 0 8.775 19.196 0 1117.55 0z" transform="matrix(2.07292 0 0 2.3 -113.942 -101.17)" fill="url(#d)" stroke="gray" stroke-width=".572"/><path d="M118.282 51.828a16.545 22.395 0 11-33.09 0 16.545 22.395 0 1133.09 0z" transform="matrix(1.17036 0 0 1 -48.776 -2.377)" fill="url(#e)" stroke="#505050" stroke-width="1.155"/><path d="M6.4 57.155c1.764 2.548 2.547 19.594 4.115 21.358 1.567 1.763 28.999 13.911 33.505 14.695 4.507.784 12.344-10.385 14.304-11.952 1.959-1.568-6.27-6.466-9.405-8.817.391 5.486-1.372 11.756-6.074 13.52-4.115.783-25.276-8.034-27.04-10.385-1.567-3.331-3.723-15.48-3.135-17.243.588-1.763-3.33-1.371-6.27-1.176z" fill="url(#f)" fill-rule="evenodd" stroke="gray" stroke-width="1pt"/><path d="M4.637 39.521H24.23v20.574H4.637c-4.703-4.899-3.919-14.108 0-20.574z" fill="url(#g)" stroke="gray" stroke-width="1.25"/><path d="M77.344 5.25c-7.163.498-16.33 7.045-23.531 12.531-8.23 6.27-12.728 12.92-32.126 16.25-12.931 2.743-13.713 25.664-.78 30.563 11.56 4.898 19.006 5.701 29 11.187C57.8 80.99 70.283 92.581 79 93.094c-9.674-1.008-17.406-20.243-17.406-43.969 0-23.21 7.404-42.05 16.781-43.813-.349-.006-.672-.087-1.031-.062z" fill="url(#h)" fill-rule="evenodd" stroke="gray" stroke-width="1pt"/><path d="M69.653 8.044c-15.905 19.561-12.98 65.813-2.56 79.159 2.011 1.097-3.839-1.463-4.205-2.742-7.86-4.57-13.893-57.222 2.377-73.858 1.28-1.28 2.194-1.462 4.388-2.56z" fill="#de6784" fill-rule="evenodd"/></svg>