<svg xmlns="http://www.w3.org/2000/svg" xmlns:xlink="http://www.w3.org/1999/xlink" width="128" height="128" version="1.0"><defs><linearGradient id="a"><stop offset="0" stop-color="#b5c5cd" stop-opacity=".579"/><stop offset="1" stop-color="#b5c5cd" stop-opacity=".09"/></linearGradient><linearGradient xlink:href="#a" id="c" x1="31.833" y1="69.899" x2="83.033" y2="107.743" gradientUnits="userSpaceOnUse"/><linearGradient xlink:href="#a" id="b" x1="65.455" y1="109.788" x2="23.159" y2="122.827" gradientUnits="userSpaceOnUse"/></defs><metadata/><path d="M21.664 105.877c5.234-2.215 10.25-2.838 15.645-2.231 5.463.377 10.696 1.91 15.722 4.084 4.738 2.715 8.95 7.131 12.424 11.347l-.359-.058c-3.89 1.85-6.144 3.196-12.99 3.39-6.644 1.188-17.448-.1-22.833-4.566-4.55-2.298-6.474-8.185-7.598-11.932l-.011-.034z" fill="url(#b)"/><path d="M21.664 105.877c5.234-2.215 10.25-2.838 15.645-2.231 5.463.377 10.696 1.91 15.722 4.084 4.738 2.715 8.95 7.131 12.424 11.347l-.359-.058c-3.266-4.227-7.768-7.627-12.406-10.263-4.897-2.518-10.29-3.015-15.633-3.734-5.424-1.216-10.095-.567-15.382.889l-.011-.034z"/><path d="M74.86 15.367c-2.161 3.26-3.942 7.418-5.066 9.66-1.124 2.244-1.156 2.65-1.706 3.755 1.33 1.524 3.394 3.414 5.31 4.112 1.611.268 4.75.19 6.246.739.004-.003-.005-.029 0-.031.966-1.021 1.229-1.768 2.065-4.037.844-2.288 3.572-4.817 5.5-8.213 1.94-3.415 2.502-5.062 4.665-7.285.205-2.617-2.74-4.67-4.807-6.01-1.936-1.05-5.64-2.207-7.467-2.321-1.89 3.013-2.548 6.328-4.74 9.63z" fill="#a05a2c"/><path d="M54.041 44.858c-1.607 6.51-5.103 11.678-7.998 19.567-2.859 7.792-4.23 11.967-8.132 20.873-3.843 8.772-8.81 18.435-8.81 18.435 3.317 1.237 7.122 3.465 10.43 4.58-.184.778-.476 1.518-.718 2.28 2.764 2.827 7.315 2.706 11 3.157 2.782.178 5.972.582 8.593-.438 2.723-4.12 2.412-9.708 4.484-15.143 2.059-5.4 3.903-9.755 7.038-16.873 3.176-7.21 7.347-14.51 9.18-20.483-.566-4.818-5.12-7.177-9.678-9.175l-15.389-6.78z" fill="#ffffb8"/><path d="M54.041 44.858c-1.607 6.51-5.103 11.678-7.998 19.567-2.859 7.792-4.23 11.967-8.132 20.873-3.843 8.772-8.81 18.435-8.81 18.435 3.317 1.237 7.122 3.465 10.43 4.58-.184.778-.476 1.518-.718 2.28 2.764 2.827 7.315 2.706 11 3.157 2.782.178 5.972.582 8.593-.438 2.723-4.12 2.412-9.708 4.484-15.143 2.059-5.4 3.903-9.755 7.038-16.873 3.176-7.21 7.347-14.51 9.18-20.483-.566-4.818-5.12-7.177-9.678-9.175l-15.389-6.78zm.865 1.755c4.675 2.422 10.407 3.831 14.575 5.649 4.168 1.817 7.72 3.757 8.394 7.832-.417 2.475-2.585 4.171-4.219 5.968-1.403 1.808-2.88 1.865-5.04 1.798.768-2.325.855-4.428 2.083-6.797-.31-3.773-3.04-5.22-6.73-5.594-2.775.416-5.587 1.77-7.164 4.058-1.645 4.045-2.55 7.618-4.142 13.232-1.586 5.597-4.265 13.11-6.375 19.087-2.11 5.977-4.45 10.76-6.663 16.123-3.09-1.241-6.192-2.875-9.156-4.531 3.203-5.721 5.466-11.214 8.56-17.825 3.135-6.702 5.441-14.761 7.922-21.425 2.482-6.665 5.387-11.464 7.955-17.575zM65.5 62.843c.28-1.326.608-3.047.975-4.317-1.615.242-3-.08-4.467 1.466.063 1.644-.894 3.446-1.29 5.102-1.96-1.104-3.048-3.071-3.03-5.25 1.343-2.206 3.912-2.86 6.43-3.38 6.09-.592 7.294 6.616 1.382 6.38zm-.344-3.468c.143 1.141.092 2.262-.031 3.406-.627-.117-1.195-.699-1.719-1.125-.807-1.518.285-2.026 1.75-2.281zm-8.052 1.605c.251 2.17 1.42 3.68 3.169 4.875 4.27 2.563 9.372 4.619 13.692.872a33.797 33.797 0 003.972-5.196c-1.904 7.238-5.048 12.004-8.242 18.456-3.215 6.495-5.313 10.478-7.701 17.615-2.355 7.037-1.894 10.854-4.377 15.08-25.277 2.109-15.967-5.31-10.699-20.679 2.024-6.476 4.785-13.555 6.66-18.928 1.882-5.392 1.4-8.475 3.526-12.095zm5.41.713c1.738 2.336 4.55 2.33 6.696.815-.6 1.96-1.054 3.504-1.528 5.495-2.406.086-4.083-1.245-6.118-2.426.32-1.465.628-2.638.95-3.884z"/><path d="M65.051 71.136c-.534 1.73-2.996.607-3.381-.662.751-1.173 2.312.806 3.381.662zm-1.443 3.998c-.402 1.11-3.395 1.688-1.787 3.027-1.299 1.034-3.368-.724-2.63-2.16.473-.787 2.56-.066 1.03-1.16-.852-.429-.971-1.372.225-.806 1.07.32 2.103.748 3.162 1.099zm-1.679 4.649c.647 1.642-1.606 1.971-2.255 1.471-.821-.031-1.676-1.66-2.37-.53-.861-1.995 1.57-2.555 2.92-1.69.584.214 1.149.474 1.705.749zm-1.372 3.802c.647 1.641-1.606 1.97-2.256 1.471-.821-.031-1.676-1.66-2.37-.531-.86-1.994 1.57-2.554 2.921-1.69.583.215 1.148.475 1.705.75zm-2.541 4.562c-1.194-2.15-3.9 1.078-1.29 1.407.683-.118 1.086-.804 1.29-1.407zm1.168-.76c.53 1.816-1.625 3.285-3.244 2.652-1.274-.339-2.32-2.169-1.035-3.127 1.042-.89 2.694-.771 3.628.202.208.112.43.189.65.273zm-2.161 5.985c-1.36.474-1.082 3.658-2.793 2.878-.968-.595-2.24-2.494-.235-2.58 1.016.016 2.15.508 3.028-.298zm-2.938 5.993c.65-2.547-3.92-.3-1.657.606.57.14 1.44.046 1.657-.606zm.758.274c-.33 1.435-2.204 1.755-3.227.856-1.358-.824-1.438-3.373.307-3.763 1.501-.44 3.55.81 3.091 2.519l-.171.388zm-1.111 2.847c-.438 1.286-3.194.093-3.079 1.248 1.47.578 1.133 2.476-.44 1.314-1.458-.5-2.11-2.61-.462-3.346 1.36-.6 2.768.245 3.98.784zm-4.656 3.49c.099 2.078-2.19-1.083-.098-.06l.076.047.022.014zm-.76 2.108c.098 2.077-2.191-1.084-.1-.061l.077.047.022.014zm-.762 2.107c.1 2.077-2.19-1.083-.098-.061l.076.048.022.013z" font-size="12" font-weight="700" font-family="Bitstream Vera Sans"/><path d="M73.872 13.373c-2.641 2.83-4.802 6.473-6.653 9.94.649.095.852.704 1.187 1.187-.99 2.54-1.506 2.111-3.969 7.125-2.495 5.082-2.734 5.807-5.722 7.857-3.294 2.261-7.825 3.108-11.34 4.8-6.703 3.225-8.254 8.942-10.844 17.187-2.59 8.244-6.833 21.331-9.625 28.625-2.792 7.293-3.833 10.39-5.875 15.531.091 4.571 3.038 9.04 6.75 11.969 3.712 2.928 7.979 5.479 14.21 5.64 6.23.162 17.66-.102 24.314-3.84 1.58-7.259 5.297-13.73 7.638-20.688 2.064-6.138 4.518-11.974 6.829-18.588 2.57-7.357 6.597-15.525 6.353-21.993-.244-6.468-4.755-11.403-6.813-14.438-2.057-3.034-.501-3.487.368-6.156.856-2.632 1.692-4.876 2.475-7.444 1.3.019 2.06.085 3.345.413 1.178-3.281 2.735-6.104 3.25-9.531.004-.013.027-.019.031-.032-.874-.835-1.462-1.563-2.4-2.403l-1.052 2.868c-2.687-.51-4.443-1.609-6.878-2.8-2.207-.107-6.338-6.114-3.923-2.304L76.28 14c-.665-.477-1.65-.57-2.409-.627z" fill="url(#c)"/><path d="M73.872 13.373c-2.641 2.83-4.802 6.473-6.653 9.94.649.095.852.704 1.187 1.187-.99 2.54-1.506 2.111-3.969 7.125-2.495 5.082-2.734 5.807-5.722 7.857-3.294 2.261-7.825 3.108-11.34 4.8-6.703 3.225-8.254 8.942-10.844 17.187-2.59 8.244-6.833 21.331-9.625 28.625-2.792 7.293-3.833 10.39-5.875 15.531.091 4.571 3.038 9.04 6.75 11.969 3.712 2.928 7.979 5.479 14.21 5.64 6.23.162 17.66-.102 24.314-3.84 1.58-7.259 5.297-13.73 7.638-20.688 2.064-6.138 4.518-11.974 6.829-18.588 2.57-7.357 6.597-15.525 6.353-21.993-.244-6.468-4.755-11.403-6.813-14.438-2.057-3.034-.501-3.487.368-6.156.856-2.632 1.692-4.876 2.475-7.444 1.3.019 2.06.085 3.345.413 1.178-3.281 2.735-6.104 3.25-9.531.004-.013.027-.019.031-.032-.874-.835-1.462-1.563-2.4-2.403l-.501.505c.962.724.924 1.092 1.817 1.898.201.15.49.427.46.625-3.324-.11-6.6-1.335-9.706-2.96-3.206-1.675-3.195-2.429-5.01-4.409.732-.07 1.233-.06 1.874.214L76.281 14c-.665-.477-1.65-.57-2.409-.627zm-.313 1.734c1.825 1.83 2.112 2.964 5.388 4.57 3.327 1.633 6.358 1.905 9.545 2.42-.886 2.783-.776 4.65-2.81 7.332-3.852-.216-7.245-.77-10.836-2.184-2.358-1.456-4.713-2.267-6.303-4.561 1.613-3.146 2.83-4.822 5.016-7.577zm-4.536 9.725c2.105.496 3.596 2.04 5.54 3.043 2.429.994 4.956 1.833 7.593 1.938-.766 2.616-1.727 5.3-2.531 7.656-.79 2.317-1.79 4.206-.362 7.296 1.45 3.137 7.06 7.249 6.689 13.541-.371 6.292-3.47 13.523-6.085 20.74-2.21 6.101-4.903 13.38-7.185 19.447-2.628 6.99-5.593 13.522-7.838 20.663-7.117 2.145-16.487 3.92-22.688 3.219-6.2-.701-9.93-2.804-13.847-5.681-3.915-2.878-5.03-6.265-5.929-10.808 1.973-5.151 2.973-8.209 5.927-15.44 2.954-7.23 6.482-20.202 9.23-28.495 2.747-8.292 3.715-13.357 10.36-16.352 6.83-3.078 7.12-3.003 10.903-5.046 3.782-2.044 5.328-5.115 6.62-8.102a115.229 115.229 0 013.603-7.619z"/><path d="M74.86 15.367c-2.161 3.26-3.942 7.418-5.066 9.66-1.124 2.244-1.156 2.65-1.706 3.755 1.33 1.524 3.394 3.414 5.31 4.112 1.611.268 4.75.19 6.246.739.004-.003-.005-.029 0-.031.966-1.021 1.229-1.768 2.065-4.037.844-2.288 3.572-4.817 5.5-8.213 1.94-3.415 2.502-5.062 4.665-7.285.205-2.617-2.74-4.67-4.807-6.01-1.936-1.05-5.64-2.207-7.467-2.321-1.89 3.013-2.548 6.328-4.74 9.63zM86.564 8.75c1.989.665 4.283 2.56 4.449 4.627-1.032.147-5.245-.573-6.95-1.658-1.675-1.068-2.628-2.956-3.083-4.644 1.805-.198 3.594 1.01 5.584 1.675zm-2.88 3.884c1.847.718 3.873 1.578 5.828 1.864-1.184 2.802-2.515 3.628-3.832 6.509-1.306 2.857-4.136 6.117-5.089 8.118-.953 2-.935 2.592-1.487 3.66-1.5-.434-3.773-.41-5.293-.775-1.863-.6-3.06-2.083-4.555-3.338.268-1.317.572-1.01 1.518-3.044.957-2.059 3.73-7.057 5.288-9.9 1.533-2.798 2.3-5.229 3.752-8.168.885 1.541 2.303 4.151 3.87 5.074z"/></svg>