<?xml version="1.0" encoding="UTF-8"?>
<svg width="533.33" height="533.33" xmlns="http://www.w3.org/2000/svg" xmlns:xlink="http://www.w3.org/1999/xlink">
 <defs>
  <linearGradient id="e" y1=".5" y2=".5" xlink:href="#b"/>
  <linearGradient id="d" x1=".106" x2="1.167" y1=".522" y2=".537" xlink:href="#b"/>
  <linearGradient id="b">
   <stop stop-color="#fff" stop-opacity=".542" offset="0"/>
   <stop stop-color="#fff" stop-opacity="0" offset="1"/>
  </linearGradient>
 </defs>
 <path d="m385.02 453h-12.76l-0.127-62.344c-8.932-0.276-17.864-1.933-26.795-4.971-8.932-3.176-17.906-7.87-26.923-14.084v-37.283c8.677 8.838 17.438 15.535 26.285 20.091 8.931 4.419 18.118 6.697 27.56 6.835v-94.448c-18.799-4.971-32.494-13.394-41.085-25.27-8.507-11.875-12.76-28.168-12.76-48.88 0-22.508 4.636-40.252 13.908-53.232s22.584-20.436 39.937-22.37v-48.672h12.76v48.053c7.91 0.552 15.567 1.933 22.967 4.142 7.4 2.071 14.631 4.971 21.691 8.7v36.246c-7.06-5.8-14.333-10.287-21.818-13.463-7.401-3.176-15.014-5.04-22.84-5.592v88.44c19.31 4.832 33.515 13.463 42.617 25.89 9.102 12.428 13.653 29.412 13.653 50.953 0 23.336-4.849 41.77-14.546 55.302-9.612 13.394-23.52 21.126-41.724 23.198v62.758zm-12.76-221.83v-84.92c-9.867 1.795-17.395 6.351-22.584 13.67-5.189 7.318-7.783 17.053-7.783 29.204 0 11.875 2.381 21.127 7.145 27.755 4.849 6.628 12.59 11.392 23.222 14.291zm12.76 39.768v89.685c10.803-2.347 18.927-7.318 24.37-14.913 5.53-7.595 8.294-17.606 8.294-30.033 0-12.151-2.637-21.817-7.91-28.997-5.19-7.18-13.44-12.428-24.754-15.742zm-127.69 182.06h-12.76l-0.127-62.344c-8.932-0.276-17.863-1.933-26.795-4.971-8.932-3.176-17.906-7.87-26.923-14.084v-37.283c8.677 8.838 17.438 15.535 26.285 20.091 8.932 4.419 18.119 6.697 27.56 6.835v-94.448c-18.798-4.971-32.494-13.394-41.085-25.27-8.507-11.875-12.76-28.168-12.76-48.88 0-22.508 4.636-40.252 13.908-53.232s22.585-20.436 39.938-22.37v-48.672h12.76v48.053c7.91 0.552 15.566 1.933 22.966 4.142 7.401 2.071 14.631 4.971 21.692 8.7v36.246c-7.06-5.8-14.334-10.287-21.82-13.463-7.4-3.176-15.013-5.04-22.839-5.592v88.44c19.31 4.832 33.515 13.463 42.617 25.89 9.102 12.428 13.653 29.412 13.653 50.953 0 23.336-4.849 41.77-14.546 55.302-9.612 13.394-23.52 21.126-41.724 23.198v62.758zm-12.76-221.83v-84.92c-9.867 1.795-17.395 6.351-22.584 13.67-5.189 7.318-7.783 17.053-7.783 29.204 0 11.875 2.382 21.127 7.145 27.755 4.849 6.628 12.59 11.392 23.223 14.291zm12.76 39.768v89.685c10.803-2.347 18.927-7.318 24.371-14.913 5.53-7.595 8.294-17.606 8.294-30.033 0-12.151-2.637-21.817-7.911-28.997-5.19-7.18-13.44-12.428-24.754-15.742zm-126.87 182.06h-12.76l-0.127-62.344c-8.932-0.276-17.864-1.933-26.795-4.971-8.932-3.176-17.906-7.87-26.923-14.084v-37.283c8.676 8.838 17.438 15.535 26.285 20.091 8.931 4.419 18.118 6.697 27.56 6.835v-94.448c-18.799-4.971-32.494-13.394-41.085-25.27-8.507-11.875-12.76-28.168-12.76-48.88 0-22.508 4.636-40.252 13.908-53.232s22.584-20.436 39.937-22.37v-48.672h12.76v48.053c7.91 0.552 15.567 1.933 22.967 4.142 7.4 2.071 14.631 4.971 21.691 8.7v36.246c-7.06-5.8-14.333-10.287-21.818-13.463-7.401-3.176-15.014-5.04-22.84-5.592v88.44c19.31 4.832 33.515 13.463 42.617 25.89 9.102 12.428 13.653 29.412 13.653 50.953 0 23.336-4.849 41.77-14.546 55.302-9.612 13.394-23.52 21.126-41.724 23.198v62.758zm-12.76-221.83v-84.92c-9.867 1.795-17.395 6.351-22.584 13.67-5.189 7.318-7.783 17.053-7.783 29.204 0 11.875 2.381 21.127 7.145 27.755 4.849 6.628 12.59 11.392 23.222 14.291zm12.76 39.768v89.685c10.803-2.347 18.927-7.318 24.37-14.913 5.53-7.595 8.294-17.606 8.294-30.033 0-12.151-2.637-21.817-7.91-28.997-5.19-7.18-13.44-12.428-24.754-15.742z" fill-opacity=".5" font-family="helvetica" font-size="12"/>
 <path transform="matrix(1.4353 0 0 1.2806 -120.42 -56.855)" d="m344.34 389.01h-8.89l-0.089-48.683c-6.223-0.216-12.445-1.51-18.668-3.882-6.223-2.48-12.475-6.146-18.757-10.998v-29.113c6.045 6.9 12.149 12.13 18.312 15.688 6.223 3.45 12.624 5.23 19.202 5.338v-73.754c-13.097-3.882-22.639-10.459-28.625-19.732-5.926-9.273-8.89-21.996-8.89-38.17 0-17.576 3.23-31.431 9.69-41.567 6.46-10.135 15.735-15.958 27.825-17.468v-38.007h8.89v37.523a66.61 66.61 0 0 1 16.001 3.235c5.156 1.617 10.194 3.882 15.113 6.793v28.304c-4.92-4.529-9.987-8.033-15.202-10.513-5.156-2.48-10.46-3.935-15.912-4.367v69.062c13.453 3.774 23.35 10.513 29.691 20.218 6.341 9.704 9.512 22.967 9.512 39.787 0 18.223-3.378 32.618-10.134 43.185-6.697 10.459-16.387 16.497-29.07 18.114v49.007zm-8.89-173.22v-66.312c-6.875 1.402-12.12 4.96-15.735 10.675s-5.422 13.317-5.422 22.805c0 9.273 1.659 16.498 4.978 21.673 3.378 5.176 8.77 8.896 16.179 11.16zm8.89 31.054v70.033c7.526-1.833 13.186-5.715 16.979-11.646 3.852-5.93 5.778-13.747 5.778-23.452 0-9.488-1.837-17.036-5.511-22.643-3.615-5.607-9.364-9.704-17.246-12.292zm-88.965 142.17h-8.89l-0.088-48.683c-6.223-0.216-12.446-1.51-18.669-3.882-6.222-2.48-12.475-6.146-18.757-10.998v-29.113c6.045 6.9 12.15 12.13 18.313 15.688 6.223 3.45 12.623 5.23 19.202 5.338v-73.754c-13.098-3.882-22.64-10.459-28.625-19.732-5.927-9.273-8.89-21.996-8.89-38.17 0-17.576 3.23-31.431 9.69-41.567 6.46-10.135 15.735-15.958 27.825-17.468v-38.007h8.89v37.523a66.61 66.61 0 0 1 16 3.235c5.157 1.617 10.194 3.882 15.113 6.793v28.304c-4.919-4.529-9.986-8.033-15.201-10.513-5.156-2.48-10.46-3.935-15.913-4.367v69.062c13.453 3.774 23.35 10.513 29.692 20.218 6.341 9.704 9.512 22.967 9.512 39.787 0 18.223-3.378 32.618-10.134 43.185-6.697 10.459-16.387 16.497-29.07 18.114v49.007zm-8.89-173.22v-66.312c-6.874 1.402-12.119 4.96-15.734 10.675s-5.423 13.317-5.423 22.805c0 9.273 1.66 16.498 4.978 21.673 3.379 5.176 8.772 8.896 16.18 11.16zm8.89 31.054v70.033c7.527-1.833 13.187-5.715 16.98-11.646 3.852-5.93 5.778-13.747 5.778-23.452 0-9.488-1.837-17.036-5.512-22.643-3.615-5.607-9.364-9.704-17.246-12.292zm-88.392 142.17h-8.89l-0.089-48.683c-6.223-0.216-12.446-1.51-18.668-3.882-6.223-2.48-12.475-6.146-18.757-10.998v-29.113c6.044 6.9 12.149 12.13 18.312 15.688 6.223 3.45 12.624 5.23 19.202 5.338v-73.754c-13.098-3.882-22.64-10.459-28.625-19.732-5.926-9.273-8.89-21.996-8.89-38.17 0-17.576 3.23-31.431 9.69-41.567 6.46-10.135 15.735-15.958 27.825-17.468v-38.007h8.89v37.523a66.61 66.61 0 0 1 16.001 3.235c5.156 1.617 10.194 3.882 15.112 6.793v28.304c-4.918-4.529-9.986-8.033-15.2-10.513-5.157-2.48-10.461-3.935-15.913-4.367v69.062c13.453 3.774 23.35 10.513 29.691 20.218 6.341 9.704 9.512 22.967 9.512 39.787 0 18.223-3.378 32.618-10.134 43.185-6.697 10.459-16.387 16.497-29.07 18.114v49.007zm-8.89-173.22v-66.312c-6.875 1.402-12.12 4.96-15.735 10.675s-5.422 13.317-5.422 22.805c0 9.273 1.659 16.498 4.978 21.673 3.378 5.176 8.77 8.896 16.179 11.16zm8.89 31.054v70.033c7.526-1.833 13.186-5.715 16.979-11.646 3.852-5.93 5.778-13.747 5.778-23.452 0-9.488-1.837-17.036-5.511-22.643-3.616-5.607-9.364-9.704-17.246-12.292z" fill="#007f00" font-family="helvetica" font-size="12" stroke="#000" stroke-linejoin="round" stroke-width="7.376"/>
 <path d="m108.07 110.18c-58.59 0.747-68.221 112.5-16.327 132.67-26.784-52.275-28.871-105.78 16.327-132.67z" fill="url(#d)" fill-rule="evenodd"/>
 <path d="m57.847 335.22v23.134s43.524 26.884 48.546 9.708c-14.229-11.948-41.85-34.336-48.546-32.842z" fill="url(#e)" fill-rule="evenodd"/>
 <path d="m235.11 110.69c-58.59 0.748-68.221 112.51-16.327 132.67-26.784-52.275-28.871-105.78 16.327-132.67z" fill="url(#d)" fill-rule="evenodd"/>
 <path d="m184.89 335.73v23.135s43.524 26.884 48.546 9.708c-14.229-11.949-41.85-34.336-48.546-32.843z" fill="url(#e)" fill-rule="evenodd"/>
 <path d="m363.86 111.94c-58.59 0.748-68.221 112.51-16.327 132.67-26.784-52.275-28.871-105.78 16.327-132.67z" fill="url(#d)" fill-rule="evenodd"/>
 <path d="m313.64 336.98v23.135s43.524 26.884 48.546 9.708c-14.229-11.949-41.85-34.336-48.546-32.843z" fill="url(#e)" fill-rule="evenodd"/>
</svg>
