<svg xmlns="http://www.w3.org/2000/svg" xmlns:xlink="http://www.w3.org/1999/xlink" height="106.667" width="106.667"><defs><linearGradient id="a"><stop offset="0"/><stop offset="1" stop-color="#606060"/></linearGradient><linearGradient id="b"><stop offset="0" stop-color="#fff"/><stop offset="1" stop-color="#fff" stop-opacity="0"/></linearGradient><linearGradient y2="13.945" x2="18.904" y1="81.056" x1="80.239" gradientTransform="scale(.88267 1.13293)" gradientUnits="userSpaceOnUse" id="c" xlink:href="#a"/><linearGradient y2="111.339" x2="15.224" y1="52.714" x1="-19.04" gradientTransform="matrix(1.2691 -.13167 .08088 .77957 0 0)" gradientUnits="userSpaceOnUse" id="d" xlink:href="#b"/><linearGradient y2="37.164" x2="97.343" y1="-6.621" x1="71.088" gradientTransform="matrix(.60451 -.06272 .1698 1.63661 0 0)" gradientUnits="userSpaceOnUse" id="e" xlink:href="#b"/><linearGradient y2="20.793" x2="156.68" y1="4.425" x1="95.225" gradientTransform="scale(.5831 1.71498)" gradientUnits="userSpaceOnUse" id="f" xlink:href="#b"/></defs><metadata/><path d="M67.267 4.306c-4.054 6.516-5.004 15.097-7.903 22.377L47.79 63.28C37.13 51.167 14.225 58.678 12.897 74.871c-2.847 15.208 14.937 28.97 28.987 22C55.138 89.905 55.5 73.003 60.283 60.528l10.376-34.382c3.547 9.273 8.59 22.321-.791 29.85-5.853 2.762-4.154 13.603 3.123 11.374 12.737-5.29 17.46-22.686 11.685-34.758-4.283-9.007-9.704-17.609-14.753-26.25-.739-.662-1.226-2.937-2.656-2.055z"/><path d="M69.658 4.101l-2.317 7.34-17.546 55.577c-3.934-5.545-10.574-8.925-17.814-8.174-10.69 1.11-18.465 10.683-17.355 21.374C15.735 90.908 25.309 98.683 36 97.574c8.428-.875 14.96-7.05 16.838-14.849L72.21 18.671c1.691 2.961 3.68 9.844 5.045 13.829 1.63 4.754 2.53 9.796 1.854 14.228-.676 4.433-2.667 8.334-7.547 11.748a3.995 3.995 0 00-1.973 3.692 4.003 4.003 0 006.547 2.84c6.52-4.562 9.904-10.785 10.86-17.056.956-6.27.374-12.566-2.213-17.065-5.06-7.89-8.2-14.225-10.907-18.74-1.247-2.698-2.811-5.364-4.217-8.046z" fill="url(#c)" transform="translate(.387 2.065) scale(.96927)"/><path d="M28.343 60.415c-7.297 2.356-11.243 7.731-12.469 14.228 6.647 28.461 14.41-11.38 33.392-6.187.368-1.99-8.963-11.57-20.923-8.04z" fill="url(#d)" transform="translate(.387 2.065) scale(.96927)"/><path d="M50.706 66.934c4.801-2.272 14.704-50.34 20.975-50.353-1.84-.43-2.171-3.24-2.286-9.791-.328 1.052-18.474 60.366-18.69 60.144z" fill="url(#e)" transform="translate(.387 2.065) scale(.96927)"/><path d="M71.542 16.852s22.417 33.863 6.518 35.93c3.657-4.292 3.816-16.534-6.518-35.93z" fill="url(#f)" fill-rule="evenodd" transform="translate(.387 2.065) scale(.96927)"/></svg>