<?xml version="1.0" encoding="UTF-8"?>
<svg width="160" height="160" version="1.0" xmlns="http://www.w3.org/2000/svg" xmlns:xlink="http://www.w3.org/1999/xlink">
 <defs>
  <linearGradient id="o" x1="564.68" x2="31.549" y1="572.24" y2="67.89" gradientTransform="matrix(.24543 0 0 .16375 .751 20.642)" gradientUnits="userSpaceOnUse" xlink:href="#h"/>
  <linearGradient id="h">
   <stop stop-color="#edeae5" offset="0"/>
   <stop stop-color="#fff" offset="1"/>
  </linearGradient>
  <linearGradient id="p" x1="50.854" x2="817.58" y1="71.057" y2="706.64" gradientTransform="matrix(.0892 -.021 .0157 .06668 10.988 76.346)" gradientUnits="userSpaceOnUse">
   <stop stop-color="#e8e8e8" offset="0"/>
   <stop stop-color="#fff" offset=".065"/>
   <stop stop-color="#d8d8d8" offset=".211"/>
   <stop stop-color="#e2e2e2" offset=".426"/>
   <stop stop-color="#ccc" offset=".682"/>
   <stop stop-color="#f4f5f4" offset=".803"/>
   <stop stop-color="#fffffe" offset=".928"/>
   <stop stop-color="#e8e8e8" offset="1"/>
  </linearGradient>
  <linearGradient id="n" x1="805.64" x2="545.8" y1="348.95" y2="51.549" gradientTransform="matrix(.18345 0 0 .21908 .751 20.642)" gradientUnits="userSpaceOnUse" xlink:href="#h"/>
  <linearGradient id="m" x1="805.64" x2="545.8" y1="348.95" y2="51.549" gradientTransform="matrix(.18345 0 0 .21908 .751 20.74)" gradientUnits="userSpaceOnUse" xlink:href="#h"/>
  <linearGradient id="q" x1="344.05" x2="274.42" y1="729.1" y2="532.69" gradientTransform="matrix(1.4713 0 0 .68967 -77.788 100.95)" gradientUnits="userSpaceOnUse">
   <stop stop-color="#fff" offset="0"/>
   <stop stop-color="#fff8ff" stop-opacity="0" offset="1"/>
  </linearGradient>
 </defs>
 <path d="M141.134 22.908L3.98 54.694c4.578 26.687 10.331 50.238 17.265 70.646l136.377-31.986-.069-.25.268-.061c-3.86-23.678-7.328-45.964-14.13-69.445l-1.381.292c-.066-.262-.127-.521-.193-.783l-.908.205c-.024-.135-.052-.27-.075-.404z" fill-opacity=".094" fill-rule="evenodd"/>
 <path d="M140.127 22.674L2.973 54.46c4.578 26.686 10.331 50.238 17.265 70.645L156.615 93.12l-.069-.249.268-.062c-3.86-23.678-7.328-45.963-14.13-69.445l-1.381.293c-.066-.263-.127-.522-.193-.784l-.908.205c-.023-.134-.052-.27-.075-.404z" fill-opacity=".094" fill-rule="evenodd"/>
 <path d="M86.108 34.672L141.64 22.9c6.802 23.481 10.276 45.77 14.135 69.448l-59.07 13.162-10.597-70.837z" fill="url(#m)" fill-rule="evenodd" stroke="#000" stroke-width=".265"/>
 <path d="M86.108 34.574l53.962-12.166c5.964 23.576 10.334 46.222 15.501 69.638L96.704 105.41 86.108 34.574z" fill="url(#n)" fill-rule="evenodd" stroke="#000" stroke-width=".265"/>
 <path d="M1.929 54l137.16-31.788c4.12 23.874 10.203 48.14 16.482 70.444L19.196 124.641C12.263 104.233 6.507 80.687 1.93 54z" fill="url(#o)" fill-rule="evenodd" stroke="#000" stroke-width=".265"/>
 <path d="M8.952 69.426l130.14-30.632.272 1.157L9.224 70.582z"/>
 <path d="M76.117 63.824c.338-.137.206-.564.063-.998.184-.598-.838-.463-.189-.636.569-.127.755-.189.41.174.145.362.144.958.375 1.18.296-.173 1.164.007.945-.484.606.046.067.595-.395.5l-1.21.264zm2.934-.716c1.211-.453-.758-1.692-.598-.384.039.279.326.476.598.384zm.027.104c-1.368.375-1.032-1.631.193-1.193.807.163.486 1.169-.193 1.193zm2.235-1.702c.308.635-1.168-.079-.685.891.079.476.792.225-.038.45-.795.18.045-.072-.297-.558.12-.556-.822-.34-.07-.544.563.105.035-.064 1.09-.24zm1.904.201c-.415.097-.859.175-1.256.282.218 1.102 1.923-.789.891.375-1.09.705-1.78-1.144-.408-1.124.325-.051.703.113.773.467zm-.373-.037c-.672-.881-1.322.624-.154.034l.154-.034zm2.118-.725c.63-1.034 1.14.227 1.384.534.52.037-.876.4-.614.134.512-.176-.381-1.504-.69-.566-.234.602.768.708.153.8-.778.161-.27.092-.385-.395-.125-.986-1.153-.193-.65.466.667.001-.214.232-.517.266.322-.155.123-.632.008-1.058-.735.193.23-.42.296-.046.09-.142.732-.519 1.015-.135zm2.598-1.162c.315-.574.582.366 0 0zm.719 1.276c.721-.072-.268.22-.543.236.333-.134.168-.576.042-.993-.596.015-.043-.325.261-.183l.24.94zm.89-.725c.344 1.282 1.67-.57.349-.513-.246.023-.444.268-.35.513zm-.393-.329c-.765.217.306-.46.308 0 .772-1.167 2.16.799.612.883-.848-.314-.068.538-.05.466-.253.109-1.21.214-.527-.005l-.343-1.344zm2.13.536c-.344-.641 1.26.271.861-.528-.752.2-1.616-.545-.358-.725.807-.06.48.437-.103.126-1.174.575 1.853.16.534.998-.295.116-.619.152-.934.129zm2.365-1.631c.572-.317.659.152.737.634.258.388.512.26-.198.431-.121-.075-1.342.455-1.261-.59-.444-.216-.227-.367.234-.297-.127.766 1.032 1.299.865.252-.012-.543-.204-.194-.377-.43zm2.681-.352c.63-1.035 1.141.226 1.385.533.519.037-.877.401-.615.134.513-.176-.38-1.504-.69-.565-.234.601.769.707.153.8-.778.16-.269.092-.385-.396-.125-.985-1.153-.193-.649.467.667 0-.215.232-.518.265.322-.155.123-.632.008-1.058-.735.193.23-.42.296-.046.09-.141.733-.519 1.015-.134zm4.334-.107c.763-.216-.308.459-.308 0-.773 1.166-2.164-.8-.612-.884.85.344.063-.636.031-.537.567-.33.597.209.69.644l.199.777zm-.392-.33c-.349-1.281-1.675.572-.35.513.246-.023.443-.269.35-.513zm1.747.075c1.21-.453-.759-1.692-.598-.384.039.279.325.476.598.384zm.027.104c-1.368.375-1.032-1.631.193-1.193.807.163.486 1.169-.193 1.193zm1.606-.499c.722-.072-.27.22-.544.236.333-.134.17-.575.043-.993.18-.574-.733-.556-.254-.692.556-.311.43.482.592.81l.163.64zm1.36-.255c1.211-.454-.758-1.692-.598-.384.04.279.326.475.599.384zm.027.104c-1.368.374-1.031-1.632.193-1.193.807.163.486 1.169-.193 1.193zm2.235-1.703c.308.636-1.167-.078-.685.892.079.476.792.225-.038.45-.794.18.045-.072-.297-.558.12-.556-.822-.34-.07-.545.564.106.035-.063 1.09-.239zm1.482.798c-.344-.641 1.26.27.86-.528-.75.2-1.615-.545-.358-.725.808-.06.482.437-.102.126-1.174.575 1.853.16.534.998-.295.116-.619.152-.934.129zm1.442-1.798c.316-.574.583.365 0 0zm.719 1.276c.721-.072-.268.22-.542.236.332-.134.167-.576.04-.994-.595.015-.041-.325.262-.183l.24.94zm.474-1.049c-.482.183 0-.329.02-.49.21.184.43.354.81.263-.487.056-.616.334-.362.847.104.581 1.001-.55.454.257-.812.393-.758-.371-.922-.877zm3.449-.057c-.233-.771-1.445.72-.177.303.108-.051.217-.172.177-.303zm.203-.411c-.168.572.777.587.163.703-.361-.02-1.718.636-1.373-.342.436-.136 1.466-.484.386-.548-.527.582-.803.022-.008-.109.293-.07.745-.078.832.296zm1.98-.645c.63-1.034 1.142.227 1.385.534.52.037-.876.401-.614.134.513-.176-.38-1.504-.69-.565-.234.601.768.707.153.8-.778.16-.269.092-.385-.396-.125-.986-1.153-.193-.65.467.668 0-.214.232-.517.265.322-.155.123-.632.008-1.058-.735.193.23-.42.296-.046.09-.141.733-.519 1.015-.135zm3.247-.322c-.415.096-.859.174-1.255.282.217 1.102 1.923-.789.89.375-1.09.704-1.78-1.145-.408-1.124.325-.052.703.113.773.467zm-.373-.037c-.672-.881-1.322.624-.154.034l.154-.034zm.76-.541c-.482.183 0-.329.02-.49.21.184.43.354.81.263-.488.056-.616.334-.363.847.105.581 1.002-.55.455.257-.813.393-.758-.371-.923-.877zm1.383.984c.052-.515.752-.855.324-.09-.07.253-.205.124-.324.09zm3.48-1.332c-.324 1.314-2.531 0-1.072-.616.676-.493 1.317.562.39.032-1.16.146-.386 1.73.683.584zm1.188.019c1.21-.454-.758-1.692-.598-.384.039.279.326.476.598.384zm.027.104c-1.368.375-1.032-1.631.193-1.193.807.163.486 1.169-.193 1.193zm1.102-.271c.322-.156.123-.633.008-1.059-.736.197.231-.422.296-.046.481-.687 1.257.016 1.344.629.623-.062-.578.403-.614.133.67-.09-.337-1.566-.654-.574-.236.602.768.708.153.8l-.533.117zm2.12-.527c-.344-.64 1.26.272.861-.527-.752.2-1.616-.545-.358-.725.807-.06.48.437-.103.126-1.174.575 1.853.16.534.997-.295.116-.619.153-.934.13zm3.124-1.182c-.415.096-.859.174-1.256.281.218 1.103 1.923-.788.891.375-1.09.705-1.78-1.144-.408-1.123.325-.052.703.113.773.467zm-.373-.037c-.672-.882-1.322.623-.154.033l.154-.033zm2.25-.156c-.326 1.313-2.533 0-1.074-.617.676-.492 1.318.563.39.033-1.16.145-.385 1.73.683.584zm.323-.78c-.482.183 0-.328.02-.49.21.184.43.354.81.263-.487.056-.616.334-.363.848.105.58 1.002-.55.455.257-.812.393-.758-.372-.922-.877zm2.835-.121c-.414.096-.858.174-1.255.281.217 1.103 1.923-.788.89.375-1.09.705-1.779-1.144-.407-1.123.324-.052.702.113.772.467zm-.372-.037c-.673-.882-1.323.623-.155.033l.155-.033zm.758-.541c-.48.182.001-.33.021-.491.21.184.43.354.81.263-.488.056-.616.334-.363.848.105.58 1.002-.55.455.257-.813.393-.758-.372-.923-.877zm2.077-.57c.572-.317.659.152.737.633.258.388.512.26-.197.432-.122-.075-1.342.455-1.262-.59-.444-.216-.227-.367.234-.297-.126.766 1.032 1.299.866.251-.013-.542-.205-.193-.378-.43zm2.495-.545c.308.636-1.167-.078-.684.892.078.476.791.225-.039.45-.794.18.045-.072-.297-.559.12-.556-.822-.34-.07-.544.564.106.035-.063 1.09-.239zM77.69 65.39c-.233-.772-1.444.72-.177.303.109-.051.218-.172.177-.303zm.203-.412c-.167.573.777.587.163.704-.36-.02-1.717.636-1.372-.342.435-.136 1.466-.484.385-.549-.527.583-.802.023-.007-.108.293-.07.744-.078.831.295zm2.205.142c.763-.216-.308.46-.308 0-.772 1.167-2.163-.8-.612-.884.85.345.064-.636.032-.536.566-.33.597.208.69.644l.198.776zm-.392-.33c-.349-1.28-1.674.573-.35.514.246-.023.444-.27.35-.514zm.731-1.175c.315-.575.582.365 0 0zm.719 1.275c.72-.071-.269.22-.543.236.333-.134.168-.575.042-.993-.596.015-.043-.325.26-.183l.24.94zm.889-.725c.345 1.282 1.672-.57.35-.513-.246.023-.444.269-.35.513zm-.392-.328c-.766.216.306-.461.308-.002.772-1.166 2.16.8.611.885-.847-.315-.067.537-.049.465-.253.11-1.21.214-.527-.004l-.343-1.344zm1.904-.9c.315-.574.582.365 0 0zm.719 1.276c.721-.072-.268.22-.542.235.332-.134.167-.575.04-.993-.595.015-.042-.325.262-.183l.24.94zm.547-.067c-.344-.641 1.26.271.86-.528-.75.2-1.615-.545-.358-.724.807-.06.481.436-.102.126-1.174.574 1.853.16.534.997-.295.116-.62.152-.934.129zm1.442-1.798c.315-.574.582.366 0 0zm.719 1.276c.721-.072-.268.22-.542.236.332-.134.167-.576.04-.993-.595.015-.042-.325.262-.183l.24.94zm1.964-.664c-.325 1.314-2.532 0-1.073-.616.676-.492 1.318.563.39.033-1.16.145-.385 1.73.683.583zm.171-1.232c.315-.574.582.366 0 0zm.719 1.276c.721-.072-.268.22-.543.236.333-.134.168-.576.042-.993-.596.015-.043-.325.26-.183l.24.94zm.513.006c.322-.155.123-.632.008-1.058-.736.197.231-.422.296-.046.482-.687 1.257.016 1.344.628.623-.061-.578.404-.614.134.67-.09-.337-1.567-.654-.574-.236.602.769.708.153.8-.178.04-.355.078-.533.116zm3.401-1.802c.087.548.603 1.379-.218 1.608-.576.43-1.265-.388-.396-.028.772.02.732-1.107.042-.36-1.72.019-.258-1.552.252-1.27.197-.102 1.067-.158.32.05zm-.192.455c-.706-1.21-1.44 1.1-.132.556.218-.108.196-.363.132-.556zm3.474-.674c-.414.096-.858.174-1.255.281.218 1.103 1.923-.788.891.375-1.09.705-1.78-1.144-.408-1.123.325-.052.703.113.772.467zm-.372-.037c-.672-.881-1.322.623-.155.033.052-.01.103-.022.155-.033zm1.303.286c.722-.071-.27.22-.544.236.333-.134.17-.574.043-.993.18-.574-.733-.556-.254-.692.556-.31.43.482.592.81l.163.64zm.344-1.506c.315-.574.582.365 0 0zm.718 1.276c.721-.072-.268.22-.542.235.332-.134.167-.575.041-.993-.596.015-.042-.325.261-.183l.24.94zm.474-1.05c-.481.183 0-.328.02-.49.21.185.43.354.81.264-.487.055-.616.333-.362.847.104.581 1.001-.55.454.257-.812.393-.758-.371-.922-.877zm1.384.985c.051-.515.752-.855.324-.09-.07.253-.205.124-.324.09zm2.063-.735c-.344-.641 1.26.271.861-.528-.752.2-1.616-.545-.358-.724.807-.06.48.436-.102.126-1.175.574 1.852.16.533.997-.295.116-.619.152-.934.129zm3.124-1.183c-.415.097-.859.175-1.255.282.217 1.102 1.923-.789.89.375-1.09.705-1.78-1.144-.408-1.124.325-.051.703.113.773.467zm-.373-.037c-.672-.881-1.322.624-.154.034l.154-.034zm2.342.061c.763-.216-.308.46-.308 0-.773 1.167-2.164-.8-.612-.884.85.345.063-.635.031-.536.567-.33.597.208.69.644l.199.776zm-.392-.33c-.349-1.28-1.675.573-.35.514.246-.023.443-.27.35-.514zm3.5-.345c.762-.216-.309.46-.309 0-.772 1.167-2.163-.8-.612-.884.85.344.064-.636.032-.536.566-.33.597.208.69.644l.198.776zm-.393-.33c-.349-1.28-1.674.572-.35.513.246-.022.444-.268.35-.513zm1.748.076c1.21-.454-.76-1.692-.598-.384.038.279.325.475.598.384zm.026.104c-1.368.374-1.031-1.632.193-1.193.808.163.486 1.169-.193 1.193zm3.625-1.39c-.414.097-.858.175-1.255.282.218 1.102 1.923-.789.891.375-1.09.705-1.78-1.144-.408-1.124.325-.051.702.114.772.467zm-.372-.037c-.672-.88-1.322.624-.155.034l.155-.034zm.606-.994c.316-.574.583.366 0 0zm.719 1.276c.721-.072-.268.22-.542.236.332-.134.167-.576.04-.993-.595.015-.041-.325.262-.183l.24.94zm1.244-1.335c.572-.316.659.152.737.634.258.388.512.26-.197.432-.122-.076-1.343.455-1.262-.59-.444-.217-.227-.367.234-.298-.127.767 1.032 1.3.865.252-.012-.543-.204-.193-.377-.43zm1.396.814c-.344-.641 1.26.271.86-.528-.75.2-1.615-.545-.358-.724.807-.06.481.436-.102.126-1.174.574 1.852.16.534.997-.295.116-.62.152-.934.129zm2.953-1.528c.63-1.035 1.141.226 1.385.533.519.037-.877.401-.615.134.513-.176-.38-1.504-.69-.565-.234.601.769.707.153.8-.778.16-.269.092-.385-.396-.125-.985-1.153-.193-.649.467.667 0-.215.232-.518.265.322-.155.123-.632.008-1.058-.735.193.23-.42.296-.046.09-.141.733-.519 1.015-.134zm2.582.313c1.21-.453-.76-1.691-.598-.384.038.28.325.476.598.384zm.026.105c-1.368.374-1.031-1.632.193-1.194.807.164.486 1.17-.193 1.194zm2.645-.725c.764-.216-.308.46-.308 0-.772 1.166-2.163-.8-.612-.884.85.344.064-.636.032-.537.566-.329.597.209.69.644l.198.777zm-.392-.33c-.348-1.281-1.674.572-.35.513.246-.023.444-.269.35-.513zm1.917-.947c-.481.182 0-.33.02-.491.211.184.43.354.81.263-.487.056-.615.334-.362.848.104.58 1.002-.55.454.257-.812.393-.757-.372-.922-.877zm2.835-.122c-.414.096-.858.174-1.255.281.218 1.103 1.923-.788.891.375-1.09.705-1.78-1.144-.408-1.123.325-.052.703.113.773.467zm-.372-.037c-.672-.882-1.322.623-.155.033l.155-.033zm2.118-.725c.63-1.035 1.14.226 1.384.533.52.037-.876.401-.614.134.512-.176-.381-1.504-.69-.565-.235.602.768.707.153.8-.778.16-.27.092-.385-.396-.125-.985-1.153-.193-.65.467.667 0-.214.232-.517.266.322-.156.123-.633.008-1.058-.735.192.23-.42.296-.047.09-.141.732-.519 1.015-.134zm2.132-.161c.345 1.281 1.672-.57.35-.513-.246.023-.444.268-.35.513zm-.391-.329c-.766.217.305-.46.307 0 .772-1.167 2.16.799.612.883-.848-.315-.067.538-.05.466-.253.109-1.209.214-.527-.005l-.342-1.344zm2.92.351c1.21-.453-.759-1.691-.598-.384.039.28.325.476.598.384zm.027.105c-1.368.374-1.032-1.632.193-1.194.807.164.486 1.17-.193 1.194zm2.235-1.703c.308.636-1.168-.078-.685.892.078.476.792.225-.038.45-.795.18.045-.072-.297-.559.12-.556-.823-.34-.07-.544.563.106.035-.064 1.09-.239zm-64.004 15.82c.316-.575.583.365 0 0zm.719 1.275c.721-.072-.268.22-.542.236.332-.134.167-.576.041-.993-.596.015-.042-.325.261-.183l.24.94zm.514.007c.322-.156.123-.633.008-1.058-.737.196.23-.423.296-.047.481-.687 1.257.016 1.344.629.623-.062-.578.403-.615.133.67-.09-.337-1.566-.653-.574-.237.603.768.709.152.8-.177.04-.355.078-.532.117zm3.537-1.124c-.325 1.314-2.532 0-1.073-.616.676-.492 1.318.563.39.033-1.16.145-.386 1.73.683.583zm.17-1.232c.316-.574.583.366 0 0zm.72 1.276c.72-.072-.269.22-.543.236.333-.134.168-.576.041-.993-.596.015-.042-.326.262-.184l.24.94zm2.056-.447c.763-.216-.308.46-.308 0-.773 1.167-2.163-.8-.612-.884.85.345.063-.636.031-.536.567-.33.597.208.69.644l.199.776zm-.392-.33c-.349-1.28-1.675.573-.35.513.246-.022.443-.268.35-.513zm.73-1.175c.316-.575.583.365 0 0zm.72 1.275c.72-.072-.269.22-.543.236.333-.134.167-.575.041-.993-.596.015-.042-.325.261-.183l.24.94zm2.056-.446c.763-.216-.308.46-.308 0-.773 1.166-2.164-.8-.612-.884.85.344.063-.636.031-.537.567-.329.597.209.69.644l.199.777zm-.392-.33c-.349-1.281-1.675.572-.35.513.246-.023.443-.269.35-.513zm1.653-1.01c.572-.316.659.153.738.635.257.388.51.26-.198.431-.122-.075-1.342.455-1.262-.59-.444-.216-.226-.367.234-.297-.126.766 1.032 1.299.866.252-.013-.543-.205-.194-.378-.43zm1.363.887c.322-.155.122-.632.008-1.058-.737.197.23-.422.296-.046.48-.687 1.257.016 1.344.628.623-.061-.578.404-.615.134.67-.09-.337-1.567-.653-.574-.237.602.768.708.152.8-.177.04-.355.078-.532.116zm2.046-1.508c-.481.183 0-.329.02-.49.211.184.43.354.81.263-.487.056-.615.334-.362.847.104.581 1.002-.55.454.257-.812.393-.757-.371-.922-.877zm3.11-.795c.573-.316.66.153.738.634.257.388.511.26-.198.432-.121-.076-1.342.455-1.261-.59-.445-.216-.227-.367.233-.297-.126.766 1.033 1.299.866.251-.012-.542-.205-.193-.377-.43zm1.323-.168c-.481.183 0-.329.02-.49.211.184.43.353.81.263-.487.056-.615.333-.362.847.104.581 1.002-.55.454.257-.812.393-.757-.371-.922-.877zm2.884.32c.722-.073-.27.22-.543.235.333-.134.17-.575.042-.993.181-.574-.733-.556-.254-.692.557-.311.43.482.592.81.055.213.11.426.163.64zm1.605-.603c-.233-.772-1.444.72-.177.303.109-.051.218-.172.177-.303zm.204-.412c-.168.573.777.587.162.704-.36-.02-1.717.636-1.372-.342.435-.136 1.466-.484.385-.549-.527.583-.802.023-.007-.108.293-.07.745-.078.832.295zm.874.431l-.361-1.417c-.781.218.353-.485.315.03-.064 1.088 1.18-.637 1.473.603-.022 1.051-1.041.562-1.452.908-.37.143-.303-.134.025-.124zm.192-.456c.702 1.21 1.438-1.1.132-.555-.219.107-.196.363-.132.555zm2.5-.089c1.21-.453-.759-1.691-.598-.384.039.28.325.476.598.384zm.027.105c-1.368.374-1.032-1.632.193-1.194.807.164.486 1.17-.193 1.194zm2.235-1.703c.308.636-1.168-.078-.685.892.078.476.792.225-.038.45-.795.18.045-.072-.297-.559.12-.556-.823-.34-.07-.544.563.106.035-.064 1.09-.239zm1.904.202c-.415.096-.859.174-1.256.281.218 1.103 1.923-.788.891.375-1.09.705-1.78-1.144-.408-1.123.325-.052.703.113.773.467zm-.373-.037c-.672-.882-1.322.623-.155.033l.155-.033zm3.322-.604c-.415.096-.859.174-1.256.282.218 1.102 1.923-.79.891.375-1.09.704-1.78-1.145-.408-1.124.325-.052.703.113.773.467zm-.373-.037c-.672-.881-1.322.624-.155.033.052-.01.103-.022.155-.033zm.759-.541c-.481.183 0-.329.02-.49.21.184.43.353.81.263-.487.056-.616.333-.362.847.104.581 1.001-.55.454.257-.812.393-.758-.371-.922-.877zm3.923.093c.763-.215-.308.46-.308 0-.773 1.167-2.164-.8-.612-.883.85.344.063-.636.031-.537.567-.33.597.208.69.644l.199.776zm-.392-.33c-.349-1.28-1.675.573-.35.514.246-.023.443-.269.35-.513zm1.747.076c1.21-.454-.759-1.692-.598-.384.039.279.325.476.598.384zm.027.104c-1.368.375-1.032-1.631.193-1.193.807.163.486 1.169-.193 1.193zm1.606-.499c.722-.072-.27.22-.544.236.333-.134.17-.575.043-.993.18-.574-.733-.556-.254-.692.556-.311.43.482.592.81l.163.64zm1.36-.255c1.211-.454-.758-1.692-.598-.384.04.278.326.475.599.384zm.027.104c-1.368.374-1.031-1.632.193-1.194.807.164.486 1.17-.193 1.194zm2.235-1.703c.308.636-1.167-.078-.685.892.079.476.792.225-.038.45-.794.18.045-.072-.297-.559.12-.555-.822-.34-.07-.544.564.106.035-.063 1.09-.239zm1.904.202c-.415.096-.859.174-1.255.281.217 1.103 1.923-.788.89.375-1.09.705-1.78-1.144-.408-1.123.325-.052.703.113.773.467zm-.373-.037c-.672-.881-1.322.624-.154.033l.154-.033zm3.152-.95c.63-1.034 1.14.227 1.384.534.52.037-.876.4-.614.134.512-.176-.381-1.504-.69-.566-.234.602.768.708.153.8-.778.161-.27.092-.385-.395-.125-.986-1.153-.193-.65.466.667.001-.214.232-.517.266.322-.155.123-.632.008-1.058-.735.193.23-.42.296-.046.09-.142.732-.519 1.015-.135zm2.826-.033c-.233-.771-1.445.721-.178.304.11-.052.218-.173.178-.304zm.203-.411c-.168.572.777.587.162.703-.36-.02-1.717.636-1.372-.341.436-.137 1.466-.484.386-.55-.527.583-.803.023-.008-.108.293-.07.745-.078.832.296zm1.976-.754c.087.548.603 1.379-.218 1.608-.576.43-1.265-.388-.396-.029.772.02.732-1.106.042-.36-1.72.02-.258-1.551.252-1.269.198-.102 1.067-.158.32.05zm-.192.455c-.706-1.21-1.44 1.1-.132.555.218-.108.196-.363.132-.555zm.952.443c.322-.155.123-.632.008-1.058-.737.197.23-.422.296-.046.481-.687 1.257.016 1.344.628.623-.061-.578.403-.615.134.67-.09-.337-1.567-.653-.574-.237.602.768.708.152.8-.177.04-.355.078-.532.116zm3.155-1.057c-.233-.771-1.444.72-.177.304.109-.052.218-.173.177-.304zm.203-.411c-.167.572.778.587.163.703-.36-.02-1.717.636-1.372-.341.435-.137 1.466-.484.385-.55-.527.583-.802.023-.007-.108.293-.07.745-.078.831.296zm-58.22 15.295c-.233-.771-1.444.72-.177.303.109-.051.218-.172.177-.303zm.203-.412c-.167.573.778.587.163.704-.36-.02-1.717.636-1.372-.342.435-.136 1.466-.484.385-.549-.527.583-.802.023-.007-.108.293-.07.744-.078.831.295zm1.167.368c.721-.072-.27.22-.544.236.333-.134.17-.575.043-.993.18-.574-.733-.556-.255-.692.557-.311.43.482.593.81l.163.639zm.343-1.507c.316-.574.583.366 0 0zm.719 1.276c.721-.072-.268.22-.542.236.332-.134.167-.576.04-.993-.595.015-.041-.325.262-.183l.24.94zm1.828-1.343l.343 1.344c.727-.099-.246.232-.52.232.212-.033.303-1.024-.22-.407-1.763.347-.62-1.557.076-1.218.198-.102 1.068-.159.32.05zm-.192.456c-.706-1.21-1.44 1.1-.132.555.217-.108.196-.363.132-.555zm1.682-.899c.572-.316.658.153.737.634.258.388.511.26-.198.432-.121-.075-1.342.455-1.261-.59-.445-.216-.227-.367.234-.297-.127.766 1.032 1.299.865.252-.012-.543-.205-.194-.377-.43zm2.431.283c-.233-.77-1.444.721-.177.304.109-.052.218-.172.177-.304zm.203-.411c-.167.572.778.587.163.703-.36-.02-1.717.636-1.372-.341.435-.136 1.466-.484.385-.549-.527.582-.802.022-.007-.108.293-.07.745-.078.831.295zm.807.448c.372-.68.68.433 0 0z" font-family="Bitstream Vera Serif" font-size="13.668" font-weight="400"/>
 <path d="M81.973 74.063c-.192-.57 1.84-.096.677-.643-1.309.245-.557-1.745.245-.851-.622-.03-1.34.386-.29.525 1.436.182.133 1.228-.632.969zm2.861-1.143c-1.06-.154-.853.836-.194.462-1.247.994-1.566-1.154-.222-.903.213.04.396.22.416.441zm-.302-.041c-.342-.906-1.458.647 0 0zm1.895.1c-.681.814-2.121-.353-.815-.833.684.032-.122-1.08.561-.364.137.387.073.824.254 1.196zm-.323-.322c-.522-1.3-.966 1.309.007.232l-.007-.232zm2.15-1.129c1.193-.058.654 1.775-.316 1.029-.53-.512-.222-1.379.086-.276.41.891.948-.652.23-.753zm1.067-.137c-.592-.568 1.106-.34.219.15.426.352.855 1.136-.014.587-.127-.227-.147-.49-.205-.737zm2.226-.127c.52 1.3.965-1.309-.008-.232l.008.232zm-.323-.32c.67-.827 2.146.377.789.825-.427.022-.197 1.032-.608.383-.07-.394.09-.87-.181-1.209zm2.895-.209c-1.06-.155-.853.836-.194.461-1.247.995-1.566-1.154-.222-.903.213.04.396.221.416.442zm-.302-.042c-.342-.905-1.458.647 0 0zm1.545-.84c-.74.171-.274 2.089-.868.907-.321-.887.277-.61.868-.907zm.382.982c.054-.36 1.376-.194.278-.47-1.094-.248.943-1.151.219-.495-1 .067 1.41.51.105.93a.967.967 0 01-.602.035zm1.607-.937c.52 1.3.965-1.309-.008-.233l.008.233zm-.323-.32c.67-.827 2.146.377.788.825-.426.022-.196 1.032-.607.383-.07-.394.09-.87-.181-1.209zm1.523-.825c.183-.533.409.378 0 0zm.606 1.229c.591.082-1.027.35-.233-.127-.678-1.039.215-1.015.233.127zm1.576-.598c-.734 1.67-1.98-1.435-.287-.512-1.542-.059-.409 1.557.287.512zm.115-1.172c.183-.532.409.378 0 0zm.606 1.23c.591.081-1.027.349-.232-.128-.68-1.038.214-1.015.232.127zm1.269-.542c-.828-.758-.43 1.102 0 0zm.156-.389c1.16.99-1.93.995-.657.225.862-.563-1.18-.126-.03-.511.24-.074.712-.078.687.286zm.495-.427c-.593-.569 1.106-.34.219.149.426.353.855 1.136-.015.587-.126-.227-.146-.489-.204-.736zm.92-.683c.183-.532.409.378 0 0zm.605 1.23c.592.081-1.027.349-.232-.128-.679-1.038.215-1.015.232.127zm.442-.055c.053-.36 1.375-.193.278-.47-1.095-.247.943-1.151.219-.495-1 .067 1.41.51.104.93a.967.967 0 01-.601.035zm2.714-1.708c1.193-.059.653 1.774-.317 1.028-.53-.512-.221-1.378.087-.275.41.89.948-.653.23-.753zm1.12.87c.007-.792-.148-1.483.919-1.223.786.294.052 1.627.067.559-.607-1.108-.66.525-.519.56l-.287.054-.18.05zm2.918-.8c-.682.814-2.122-.353-.816-.833.684.032-.121-1.08.562-.364.137.387.072.824.254 1.196zm-.324-.322c-.522-1.3-.966 1.309.008.232l-.008-.232zm1.941-.492c-1.06-.155-.853.836-.194.46-1.247.996-1.566-1.153-.222-.902.213.04.397.221.416.442zm-.302-.042c-.342-.906-1.458.647 0 0zm2.15.078c1.081-1.091-1.597-.639-.045.006l.045-.006zm.024.1c-1.902.093.688-2.213.461-.436.017.258-.257.376-.461.436zm1.93-1.398c.664-1.337 1.49 1.639.717.345.056-.98-1.205.134-.342.426-.791.82-.283-1.367-1.086-.47.102.407.35 1.037-.358.75.41-.5-.561-1.261.563-1.158a.794.794 0 01.506.107zm1.432.575c.009-.79-.147-1.481.92-1.222.786.294.052 1.627.067.559-.607-1.108-.66.526-.519.56l-.287.055-.18.048zm1.495-1.836c.184-.532.41.378 0 0zm.606 1.229c.591.082-1.027.35-.232-.127-.679-1.039.214-1.015.232.127zm.441-.054c.054-.36 1.376-.194.278-.47-1.094-.247.943-1.151.22-.495-1 .067 1.41.51.104.93a.967.967 0 01-.602.035zm1.965-1.884c.183-.532.409.378 0 0zm.606 1.23c.591.081-1.027.349-.233-.128-.678-1.039.215-1.015.233.127zm.44-.055c.054-.36 1.376-.193.279-.47-1.095-.247.943-1.151.219-.495-1 .067 1.41.51.105.93a.967.967 0 01-.602.035zm1.265-1.253c-.592-.569 1.106-.34.22.15.426.352.854 1.135-.015.586-.126-.227-.147-.488-.205-.736zm2.292-.066c-1.06-.155-.853.835-.194.46-1.247.995-1.566-1.153-.222-.902.213.04.396.221.416.442zm-.302-.042c-.342-.906-1.458.647 0 0zm1.488.308c.008-.79-.147-1.482.92-1.222.786.294.052 1.627.067.559-.608-1.108-.66.525-.519.56l-.287.054-.181.05zm2.533-.952c-.828-.757-.43 1.103 0 0zm.156-.388c1.16.99-1.93.995-.658.225.863-.563-1.178-.127-.03-.512.24-.074.713-.078.688.287zm.495-.428c-.593-.569 1.106-.34.218.15.427.352.855 1.135-.014.587-.126-.228-.146-.49-.204-.737zm1.67-.507c1.192-.058.652 1.774-.318 1.028-.53-.511-.221-1.378.087-.275.41.89.948-.652.23-.753zm1.144.8c.053-.36 1.375-.193.278-.47-1.095-.247.943-1.151.219-.495-1 .067 1.41.511.105.93a.967.967 0 01-.602.036zm3.336-1.268c-1.06-.154-.853.836-.193.462-1.248.994-1.567-1.154-.223-.903.213.04.397.22.416.441zm-.302-.041c-.342-.906-1.458.647 0 0zm1.545-.84c-.74.17-.274 2.088-.868.907-.321-.888.277-.611.868-.907zm1.246-.294c-.741.172-.274 2.09-.868.908-.322-.888.276-.611.868-.908zm1.019.821c1.08-1.091-1.597-.639-.046.006l.046-.006zm.023.1c-1.902.093.688-2.213.462-.436.016.258-.258.376-.462.436zm1.776-1.584c-.741.171-.275 2.09-.869.907-.321-.887.277-.61.869-.907zM82.367 76.166c.053-.36 1.376-.194.278-.47-1.095-.248.943-1.151.219-.495-1 .067 1.41.51.105.93a.967.967 0 01-.602.035zm1.133-1.688c.183-.533.408.378 0 0zm.605 1.229c.592.082-1.027.35-.232-.127-.679-1.039.215-1.015.232.127zm.364-.991c-.593-.569 1.105-.34.218.15.427.352.855 1.135-.014.586-.126-.227-.146-.489-.204-.736zm2.474.436c-.573-.265-.959-1.596-.274-.607.52.754.73-1.546.714-.174-.114.271-.218.577-.44.781zm1.604-.452c1.08-1.091-1.597-.639-.046.006l.046-.006zm.024.1c-1.902.093.688-2.213.461-.436.017.258-.258.376-.461.436zm1.29-.448c.328.176-.896.304-.329-.343-.475-.632-.062-1.557.14-.467.026.28.156.533.189.81zm.999-1.255c1.192-.058.653 1.775-.317 1.029-.53-.512-.222-1.379.086-.276.41.891.948-.652.23-.753zm1.409.18c.519 1.3.965-1.309-.008-.233l.008.232zm-.324-.321c.67-.826 2.147.378.789.825-.427.022-.197 1.032-.607.384-.07-.395.09-.87-.182-1.21zm1.656-.39c-.593-.568 1.105-.34.218.15.427.353.855 1.136-.014.587-.126-.227-.146-.489-.204-.737zm1.957.202c-.828-.757-.43 1.103 0 0zm.156-.388c1.16.99-1.93.995-.657.225.862-.563-1.18-.126-.03-.511.24-.074.712-.079.687.286zm.495-.428c-.593-.568 1.106-.34.219.15.426.353.855 1.136-.015.587-.126-.227-.146-.489-.204-.737zm2.292-.066c-1.061-.155-.854.836-.194.461-1.248.995-1.567-1.154-.222-.903.212.04.396.222.416.442zm-.303-.042c-.342-.905-1.457.647 0 0zm1.7-.653c.664-1.338 1.49 1.638.717.344.056-.98-1.205.134-.342.426-.791.82-.283-1.366-1.085-.47.102.407.35 1.037-.359.75.41-.5-.56-1.261.563-1.158a.794.794 0 01.506.108zm3.118-.178c-.828-.757-.43 1.103 0 0zm.156-.388c1.16.99-1.93.995-.658.225.863-.563-1.178-.127-.03-.512.24-.074.713-.078.688.287zm1.708-.035c-.734 1.67-1.98-1.435-.287-.512-1.542-.058-.41 1.557.287.512zm1.46-.343c-.734 1.67-1.98-1.435-.287-.512-1.542-.059-.41 1.556.287.512zm.864-.997c1.193-.058.653 1.775-.316 1.029-.531-.512-.222-1.379.086-.276.41.891.948-.652.23-.753zm1.145.8c.053-.36 1.376-.193.278-.47-1.095-.247.943-1.15.219-.495-1 .068 1.41.511.105.93a.967.967 0 01-.602.036zm2.17-.803c-.828-.757-.43 1.103 0 0zm.157-.389c1.16.991-1.931.995-.658.226.862-.563-1.179-.127-.03-.512.24-.074.712-.078.688.286zm.547.58c.008-.792-.147-1.483.92-1.223.785.294.052 1.627.067.559-.608-1.108-.66.525-.52.56l-.286.054-.181.05zm1.627-1.402c-.593-.569 1.106-.34.218.149.427.353.855 1.136-.014.587-.126-.227-.146-.489-.204-.736zm.92-.683c.183-.532.408.378 0 0zm.605 1.23c.592.081-1.027.349-.232-.128-.679-1.039.215-1.014.232.127zm.981-1.251c1.193-.059.653 1.774-.317 1.028-.53-.512-.221-1.379.087-.276.41.891.948-.652.23-.752zm2.163-.289c.663-1.337 1.489 1.638.717.345.056-.98-1.206.133-.342.426-.791.82-.283-1.367-1.086-.471.102.408.35 1.038-.358.75.41-.499-.561-1.26.562-1.157a.794.794 0 01.507.107zm3.503-.025c-.681.814-2.121-.352-.815-.833.684.033-.122-1.078.561-.363.137.386.073.824.254 1.196zm-.323-.322c-.522-1.3-.966 1.31.008.233l-.008-.233zm1.415.103c1.081-1.091-1.597-.639-.045.006l.045-.006zm.024.1c-1.902.093.688-2.213.461-.436.017.258-.257.376-.461.436zm1.29-.448c.328.176-.895.304-.329-.343-.475-.632-.062-1.557.141-.467.025.28.155.533.188.81zm1.096-.22c1.08-1.09-1.597-.638-.046.007l.046-.006zm.023.1c-1.902.094.688-2.212.462-.435.016.258-.258.376-.462.436zm1.776-1.583c-.741.171-.274 2.089-.868.907-.322-.887.276-.61.868-.907zm1.544.226c-1.061-.155-.854.836-.194.461-1.248.995-1.566-1.154-.222-.903.213.04.396.222.416.442zm-.302-.042c-.342-.905-1.458.647 0 0zm1.7-.653c.663-1.338 1.488 1.638.716.344.056-.98-1.205.134-.342.426-.791.82-.283-1.366-1.085-.47.102.407.35 1.037-.358.75.409-.5-.562-1.261.562-1.158a.794.794 0 01.506.108zm2.469-.688c.277.439.426 2.07-.025 1.105-.644.117-1.686-.242-.862-.969.036-.118 1.548-.329.887-.136zm-.146.43c-1.181-1.268-.256 1.912 0 0zm1.343-.826c1.193-.059.653 1.774-.317 1.028-.53-.512-.221-1.378.087-.275.41.89.948-.653.23-.753zm2.307.044c-1.061-.155-.854.836-.194.461-1.248.995-1.566-1.154-.222-.903.213.04.396.222.416.442zm-.302-.042c-.342-.905-1.458.648 0 0zM83.232 78.095c.328.175-.896.304-.329-.343-.475-.633-.062-1.558.14-.467.026.279.156.532.189.81zm1.287-.546c-.828-.757-.43 1.103 0 0zm.156-.388c1.16.99-1.93.995-.658.225.863-.563-1.178-.127-.03-.512.24-.074.713-.078.688.287zm1.112-.687c1.193-.059.654 1.774-.316 1.028-.53-.512-.222-1.379.086-.276.41.891.948-.652.23-.752zm2.359.464c-.682.815-2.122-.352-.816-.832.684.032-.12-1.079.562-.364.137.387.073.824.254 1.196zm-.323-.321c-.523-1.3-.966 1.309.007.232l-.007-.232zm1.606-.224c-.828-.757-.43 1.103 0 0zm.157-.388c1.159.99-1.931.995-.658.225.862-.563-1.179-.126-.03-.511.24-.075.712-.079.688.286zm.547.579c.008-.791-.147-1.482.92-1.222.785.293.052 1.626.067.558-.608-1.107-.66.526-.52.56l-.286.055-.181.049zm1.627-1.402c-.593-.569 1.105-.34.218.15.427.352.855 1.135-.014.586-.126-.227-.146-.488-.204-.736zm.92-.682c.183-.533.408.377 0 0zm.605 1.229c.591.082-1.027.35-.232-.128-.679-1.038.215-1.014.232.128zm.981-1.251c1.193-.059.653 1.774-.317 1.028-.53-.512-.221-1.378.087-.275.41.89.948-.653.23-.753zm2.163-.288c.663-1.338 1.489 1.638.717.344.055-.98-1.206.134-.342.426-.792.82-.284-1.367-1.086-.47.102.407.35 1.037-.358.75.41-.5-.561-1.261.562-1.158a.794.794 0 01.507.108zm1.466.778c-.027-1.043.95-.251 0 0zm1.578-1.602c-.593-.568 1.105-.34.218.15.427.353.855 1.136-.014.587-.126-.227-.146-.489-.204-.737zm1.766.529c1.08-1.091-1.597-.639-.046.006l.046-.006zm.023.1c-1.902.093.688-2.213.462-.436.016.258-.258.376-.462.436zm.834-1.246c-.592-.569 1.106-.34.219.15.426.352.855 1.135-.014.586-.127-.227-.147-.488-.205-.736zm1.958.202c-.828-.757-.43 1.103 0 0zm.156-.388c1.16.99-1.93.995-.658.225.863-.563-1.179-.127-.03-.512.24-.074.713-.078.688.287zm1.59-.58c.664-1.337 1.49 1.639.718.345.055-.98-1.206.134-.342.426-.792.82-.284-1.366-1.086-.47.102.407.35 1.037-.358.75.41-.5-.561-1.261.562-1.158a.794.794 0 01.506.108zm3.154-.964c-.741.17-.274 2.089-.868.907-.322-.888.276-.611.868-.907zm1.544.226c-1.061-.155-.853.835-.194.46-1.247.995-1.566-1.153-.222-.902.213.04.396.221.416.442zm-.302-.042c-.342-.906-1.458.647 0 0zm1.7-.654c.663-1.337 1.489 1.638.716.345.056-.98-1.205.133-.342.426-.79.82-.283-1.367-1.085-.471.102.408.35 1.037-.358.75.409-.499-.562-1.26.562-1.157a.794.794 0 01.506.107zm3.117-.178c-.828-.757-.43 1.103 0 0zm.156-.388c1.16.99-1.93.995-.657.225.862-.563-1.18-.126-.03-.511.24-.074.712-.078.687.286zm.837-.112c.52 1.301.966-1.308-.007-.232l.007.232zm-.323-.32c.67-.826 2.147.378.789.826-.427.021-.197 1.032-.608.383-.069-.395.091-.87-.18-1.21zm2.895-.208c-1.06-.155-.853.835-.193.46-1.248.995-1.567-1.153-.223-.902.213.04.397.221.416.442zm-.302-.042c-.342-.906-1.458.647 0 0zm1.545-.84c-.74.171-.274 2.089-.868.907-.321-.888.277-.611.868-.907zm.173-.39c.183-.533.408.377 0 0zm.605 1.229c.592.082-1.027.35-.232-.128-.679-1.038.215-1.014.232.128zm1.27-.542c-.828-.757-.43 1.103 0 0zm.156-.389c1.16.991-1.931.995-.658.226.863-.563-1.179-.127-.03-.512.24-.074.713-.078.688.286zm1.59-.578c.664-1.338 1.49 1.638.717.344.056-.98-1.205.134-.342.426-.79.82-.283-1.367-1.085-.47.102.407.35 1.037-.358.75.409-.5-.562-1.261.562-1.158a.794.794 0 01.506.108zm1.467.778c-.027-1.043.95-.251 0 0zm2.817-1.42c-1.06-.155-.853.835-.194.46-1.247.996-1.566-1.153-.222-.902.213.04.397.221.416.442zm-.302-.042c-.342-.906-1.458.647 0 0zm1.51-.053c-.828-.757-.43 1.103 0 0zm.156-.388c1.16.99-1.93.995-.658.225.863-.563-1.179-.126-.03-.511.24-.075.713-.079.688.286zm1.584-.684c.277.439.427 2.07-.024 1.105-.645.117-1.687-.242-.862-.969.036-.118 1.547-.329.886-.136zm-.146.43c-1.18-1.269-.255 1.912 0 0zm1.344-.826c1.192-.059.653 1.774-.317 1.028-.53-.512-.222-1.378.086-.275.41.89.948-.653.23-.753zm2.306.044c-1.06-.155-.853.836-.193.461-1.248.995-1.567-1.154-.223-.903.213.04.397.222.416.442zm-.302-.042c-.342-.905-1.458.648 0 0zm1.304-1.132c.183-.533.409.377 0 0zm.606 1.228c.591.083-1.027.35-.233-.127-.678-1.038.215-1.014.233.127zm.705-.675c.52 1.3.966-1.308-.007-.232l.007.232zm-.323-.32c.67-.827 2.147.378.789.825-.427.022-.197 1.032-.608.384-.069-.395.091-.87-.18-1.21zm1.733.548c.054-.361 1.376-.194.278-.471-1.094-.247.943-1.151.22-.495-1 .067 1.41.511.104.93a.967.967 0 01-.602.036zm2.17-.804c-.827-.757-.43 1.103 0 0zm.157-.389c1.16.99-1.93.995-.658.226.863-.563-1.178-.127-.03-.512.24-.074.713-.078.688.286zM84.352 79.108c.277.439.426 2.07-.024 1.105-.645.117-1.687-.242-.863-.969.036-.118 1.548-.329.887-.136zm-.146.43c-1.18-1.268-.255 1.912 0 0zm1.343-.826c1.193-.059.653 1.774-.316 1.028-.531-.512-.222-1.378.086-.275.41.89.948-.653.23-.753zm1.973.312c-.828-.757-.43 1.103 0 0zm.156-.388c1.16.99-1.93.995-.658.225.863-.563-1.178-.126-.029-.511.24-.074.712-.078.687.286zm1.735-.246c-1.06-.155-.853.835-.194.46-1.247.995-1.566-1.153-.222-.902.213.04.396.221.416.442zm-.302-.042c-.342-.906-1.458.647 0 0zm2.341-.249c-.827-.757-.43 1.103 0 0zm.157-.388c1.16.99-1.931.995-.658.225.863-.563-1.179-.126-.03-.511.24-.074.712-.079.688.286zm.716.426c-.088-.572-.754-1.912.238-1.132 1.462-.068.811 1.568-.367 1.217l-.026-.023.155-.062zm.146-.432c1.176 1.27.255-1.912 0 0zm2.007-1.446c.183-.533.409.377 0 0zm.606 1.229c.591.082-1.027.35-.233-.127-.678-1.04.215-1.015.233.127zm.819-.193c.328.175-.896.304-.329-.344-.475-.632-.062-1.557.141-.466.025.279.155.532.188.81zm.837-.197c.328.175-.895.303-.329-.344-.475-.632-.062-1.557.141-.466.025.279.155.532.188.81zm1.096-.22c1.08-1.091-1.597-.639-.046.006l.046-.006zm.023.1c-1.902.093.688-2.213.462-.435.017.257-.258.375-.462.435zm1.534-1.876c.184-.533.41.377 0 0zM100 76.33c.592.082-1.027.35-.232-.128-.679-1.038.215-1.014.232.128zm.416.015c.008-.791-.147-1.482.92-1.222.786.294.052 1.626.067.558-.608-1.107-.66.526-.519.56l-.287.055-.181.049zm2.218-.522c-.574-.266-.959-1.597-.274-.607.519.754.73-1.546.714-.174-.114.27-.218.576-.44.78zm2.13-1.047c-1.062-.155-.854.836-.195.46-1.247.996-1.566-1.153-.222-.902.213.04.397.221.416.442zm-.303-.042c-.342-.905-1.458.647 0 0zm.656.504c.009-.79-.147-1.482.92-1.222.786.294.052 1.627.067.559-.607-1.108-.66.525-.519.56l-.287.054-.18.05zm1.627-1.401c-.592-.569 1.106-.34.219.149.426.353.855 1.136-.014.587-.127-.227-.147-.489-.205-.736zm1.766.528c1.081-1.091-1.597-.639-.045.006l.045-.006zm.024.1c-1.902.093.688-2.213.461-.436.017.258-.258.376-.461.436zm1.775-1.584c-.74.171-.274 2.09-.868.907-.321-.887.277-.61.868-.907zm1.544.226c-1.06-.155-.853.836-.193.461-1.248.995-1.567-1.154-.223-.903.213.04.397.222.416.442zm-.302-.042c-.342-.905-1.458.647 0 0zm2.027.182c-.574-.266-.959-1.596-.274-.607.519.754.73-1.546.714-.174-.114.27-.218.576-.44.78zm2.13-1.047c-1.062-.155-.854.836-.195.461-1.247.995-1.566-1.154-.222-.903.213.04.397.221.416.442zm-.303-.042c-.342-.905-1.458.647 0 0zm1.545-.84c-.74.171-.274 2.089-.868.907-.321-.887.277-.61.868-.907zm.172-.39c.184-.533.41.378 0 0zm.606 1.229c.592.082-1.027.35-.232-.127-.679-1.039.215-1.015.232.127zm.364-.991c-.593-.569 1.105-.34.218.15.427.352.855 1.135-.014.586-.126-.227-.146-.489-.204-.736zm1.957.202c-.828-.757-.43 1.103 0 0zm.156-.389c1.16.99-1.93.995-.658.226.863-.563-1.178-.127-.029-.512.24-.074.712-.078.687.286zm.495-.427c-.593-.569 1.106-.34.219.15.426.352.854 1.135-.015.586-.126-.227-.146-.489-.204-.736zm.92-.682c.183-.533.408.377 0 0zm.605 1.228c.592.083-1.027.35-.232-.127-.679-1.038.215-1.014.232.127zm.442-.053c.053-.361 1.375-.194.278-.471-1.095-.247.943-1.15.218-.495-1 .067 1.41.511.105.93a.967.967 0 01-.601.036zm3.336-1.268c-1.06-.155-.853.835-.194.46-1.247.995-1.566-1.153-.222-.902.213.04.396.221.416.442zm-.302-.042c-.342-.906-1.458.647 0 0zm.604-.502c-.593-.569 1.105-.34.218.149.427.353.855 1.136-.014.587-.126-.227-.146-.489-.204-.736zm2.973-.7c.277.439.426 2.07-.024 1.105-.645.117-1.687-.242-.863-.969.036-.118 1.548-.329.887-.136zm-.146.43c-1.18-1.269-.256 1.912 0 0zm1.343-.826c1.193-.059.653 1.774-.317 1.028-.53-.512-.221-1.378.087-.275.41.89.948-.653.23-.753zm1.973.312c-.828-.757-.43 1.103 0 0zm.156-.388c1.16.99-1.93.995-.658.225.863-.563-1.178-.126-.03-.511.24-.074.713-.079.688.286zm.573.51c.053-.361 1.375-.194.278-.47-1.095-.248.943-1.152.219-.495-1 .067 1.41.51.105.93a.967.967 0 01-.602.035zm1.132-1.688c.184-.533.41.377 0 0zm.606 1.229c.592.082-1.027.35-.232-.128-.679-1.038.215-1.014.232.128zM84.655 81.882c-.828-.758-.43 1.102 0 0zm.156-.389c1.16.99-1.93.995-.657.226.862-.563-1.18-.127-.03-.512.24-.074.712-.078.687.286zm1.436-.765c-.74.171-.274 2.089-.868.907-.321-.888.277-.611.868-.907zm1.518.438c-.734 1.67-1.98-1.435-.287-.512-1.542-.059-.41 1.556.287.512zm.299.27c.49-.443-.753-2.284.314-1.153.896-.579 1.416 1.322.573.74.398-1.058-1.192-.528-.384.298l-.25.061-.253.053zm1.495-1.837c.183-.533.409.377 0 0zm.606 1.229c.591.082-1.027.35-.233-.127-.678-1.039.215-1.015.233.127zm.363-.992c-.593-.568 1.106-.34.219.15.426.353.854 1.136-.015.587-.126-.227-.146-.489-.204-.737zm2.291-.066c-1.06-.155-.853.836-.193.461-1.248.995-1.567-1.153-.223-.903.213.04.397.222.416.442zm-.302-.042c-.342-.905-1.458.648 0 0zm1.817-.109c-.734 1.67-1.98-1.434-.287-.512-1.542-.058-.409 1.557.287.512zm.247-.736c-.593-.569 1.106-.34.219.149.426.353.854 1.136-.015.587-.126-.227-.146-.489-.204-.736zm1.766.528c1.08-1.091-1.597-.639-.046.006l.046-.006zm.024.1c-1.902.093.688-2.213.461-.436.017.258-.258.376-.461.436zm1.887-.588c-.088-.572-.754-1.912.238-1.132 1.462-.068.811 1.568-.367 1.217l-.026-.023.155-.062zm.146-.432c1.176 1.27.256-1.912 0 0zm2.547-.635c-1.061-.154-.853.836-.194.461-1.247.995-1.566-1.153-.222-.903.213.04.396.222.416.442zm-.302-.042c-.342-.905-1.458.648 0 0zm1.51-.052c-.829-.757-.43 1.103 0 0zm.156-.389c1.16.99-1.931.995-.658.226.863-.563-1.179-.127-.03-.512.24-.074.712-.078.688.286zm.494-.427c-.592-.569 1.106-.34.219.15.427.352.855 1.135-.014.586-.126-.227-.147-.489-.205-.736zm1.958.202c-.828-.757-.43 1.103 0 0zm.156-.389c1.16.991-1.93.995-.658.226.863-.563-1.178-.127-.03-.512.24-.074.713-.078.688.286zm1.735-.246c-1.061-.155-.854.836-.194.461-1.248.995-1.566-1.154-.222-.903.213.04.396.222.416.442zm-.302-.042c-.342-.905-1.458.647 0 0zm2.026.182c-.573-.266-.959-1.596-.274-.607.52.754.73-1.546.714-.174-.114.27-.218.576-.44.78zm.758-1.663c.183-.533.409.378 0 0zm.606 1.229c.591.082-1.027.35-.233-.127-.678-1.039.215-1.015.233.127zm.363-.991c-.593-.569 1.106-.34.218.15.427.352.855 1.135-.014.586-.126-.227-.146-.489-.204-.736zm1.957.202c-.828-.757-.43 1.103 0 0zm.157-.389c1.159.99-1.931.995-.658.226.862-.563-1.179-.127-.03-.512.24-.074.712-.078.688.286zm1.734-.246c-1.06-.155-.853.836-.194.461-1.247.995-1.566-1.154-.222-.903.213.04.397.221.416.442zm-.302-.042c-.342-.905-1.458.647 0 0zm2.728-.096c-.682.814-2.122-.352-.816-.833.684.033-.121-1.078.562-.363.137.386.072.824.254 1.196zm-.324-.322c-.522-1.3-.966 1.31.008.233l-.008-.233zm.57-1.107c.182-.533.408.377 0 0zm.605 1.228c.591.083-1.027.35-.232-.127-.68-1.038.214-1.014.232.127zm1.576-.598c-.734 1.67-1.98-1.434-.287-.512-1.541-.058-.409 1.557.287.512zm.247-.736c-.593-.569 1.106-.34.219.149.426.353.855 1.136-.014.587-.127-.227-.147-.489-.205-.736zm1.957.202c-.827-.758-.43 1.102 0 0zm.157-.389c1.16.99-1.931.995-.658.226.863-.564-1.179-.127-.03-.512.24-.074.713-.078.688.286zm1.404.314c.054-.36 1.376-.194.278-.47-1.094-.248.944-1.151.22-.495-1 .067 1.41.51.104.93a.967.967 0 01-.602.035zm1.883-1.513c1.192-.058.653 1.775-.317 1.029-.53-.512-.222-1.379.086-.276.41.891.948-.652.23-.753zm1.119.87c.008-.791-.147-1.482.92-1.222.785.294.052 1.626.067.558-.608-1.107-.66.526-.519.56l-.287.055-.181.049zm1.627-1.402c-.593-.569 1.106-.34.219.15.426.352.854 1.135-.015.586-.126-.227-.146-.488-.204-.736zm3.123-.262c-1.06-.155-.853.836-.193.46-1.248.996-1.567-1.153-.223-.902.213.04.397.221.416.442zm-.302-.042c-.342-.905-1.458.647 0 0zm1.155-.305c.359-.925.32-.172.312.209.885.343-.071.488-.274.154-.45 1.09-.447-.895-.574-.693.585-.327-.015.38.536.33zm1.261-.227c.52 1.3.966-1.309-.007-.233l.007.233zm-.323-.32c.67-.827 2.147.377.789.825-.427.022-.197 1.032-.608.383-.069-.394.091-.87-.18-1.209zm2.111.408c.329.176-.895.304-.328-.343-.475-.633-.063-1.557.14-.467.026.279.155.533.188.81zm.25-1.43c.183-.533.408.378 0 0zm.605 1.229c.592.082-1.027.35-.232-.127-.679-1.039.215-1.015.232.127zm1.577-.598c-.734 1.67-1.98-1.435-.287-.512-1.542-.059-.41 1.557.287.512zm1.152-.287c-.827-.758-.43 1.102 0 0zm.157-.389c1.16.99-1.931.995-.658.225.863-.563-1.179-.126-.03-.511.24-.074.713-.078.688.286zm.716.426c-.088-.572-.754-1.912.238-1.132 1.462-.067.811 1.568-.367 1.218l-.026-.024.155-.062zm.146-.432c1.176 1.27.255-1.911 0 0zm2.021-.04c1.08-1.09-1.597-.638-.045.006l.045-.006zm.024.1c-1.902.094.688-2.212.461-.435.017.258-.258.375-.461.435zm.955-.366c.214-.631.48.445 0 0zm-57.037 17.9c.528-.434-.73-2.155.539-1.36.566.693 1.42.573.696-.295-.04-.594.665-.062.362.439.736 2.029-1.91-1.088-1.329.601.356.644.613.375-.268.615zm3.46-1.36c-1.061-.154-.854.836-.194.461-1.248.995-1.567-1.153-.223-.902.213.04.397.22.416.441zm-.303-.041c-.342-.906-1.458.647 0 0zm1.7-.654c.664-1.338 1.489 1.638.717.345.056-.981-1.205.133-.342.425-.791.82-.283-1.366-1.086-.47.102.407.35 1.037-.358.75.41-.5-.561-1.26.563-1.157a.794.794 0 01.506.107zm2.094.345c1.08-1.092-1.597-.64-.045.005l.045-.005zm.024.1c-1.902.093.688-2.213.461-.436.017.258-.258.375-.461.435zm2.906-1.261c-1.061-.155-.853.836-.194.461-1.247.995-1.566-1.154-.222-.903.213.04.396.221.416.442zm-.302-.042c-.342-.905-1.458.647 0 0zm.656.504c.008-.79-.147-1.482.92-1.222.785.294.052 1.627.067.559-.608-1.108-.66.525-.519.56l-.287.054-.181.05zm1.495-1.836c.183-.533.409.377 0 0zm.606 1.229c.591.082-1.027.35-.233-.127-.678-1.039.215-1.015.233.127zm1.459-1.143c.664-1.337 1.489 1.638.717.345.056-.98-1.205.133-.342.426-.791.82-.283-1.367-1.086-.471.102.408.35 1.038-.358.75.41-.499-.561-1.26.563-1.157a.794.794 0 01.506.107zm2.08-1.062c.183-.532.409.378 0 0zm.606 1.23c.591.081-1.027.349-.233-.128-.678-1.039.215-1.015.233.127zm.705-.676c.52 1.3.965-1.308-.007-.232l.007.232zm-.323-.32c.67-.827 2.147.378.789.825-.427.022-.197 1.032-.608.383-.07-.394.09-.87-.181-1.209zm1.733.547c.054-.36 1.376-.194.278-.47-1.094-.247.943-1.151.219-.495-1 .067 1.41.51.105.93a.967.967 0 01-.602.035zm2.17-.804c-.827-.757-.43 1.103 0 0zm.157-.388c1.16.99-1.931.995-.658.225.863-.563-1.179-.126-.03-.511.24-.074.713-.078.688.286zm1.59-.579c.664-1.337 1.49 1.638.717.345.056-.98-1.205.133-.342.426-.79.82-.283-1.367-1.085-.471.102.408.35 1.037-.358.75.409-.499-.562-1.26.562-1.157a.794.794 0 01.506.107zm2.803.253c-.573-.266-.959-1.597-.274-.607.52.754.73-1.546.714-.174-.114.27-.218.576-.44.78zm1.604-.453c1.08-1.09-1.597-.638-.046.006l.046-.006zm.024.1c-1.902.094.688-2.213.461-.435.017.258-.258.375-.461.435zm1.29-.447c.328.175-.896.304-.329-.344-.475-.632-.062-1.557.14-.466.026.279.156.532.189.81zm.999-1.255c1.192-.059.653 1.774-.317 1.028-.53-.512-.222-1.378.086-.275.41.89.948-.653.23-.753zm1.409.179c.52 1.3.965-1.308-.008-.232l.008.232zm-.323-.32c.67-.827 2.146.378.788.825-.427.022-.197 1.032-.607.383-.07-.394.09-.87-.181-1.209zm1.655-.39c-.593-.569 1.105-.34.218.15.427.352.855 1.135-.014.586-.126-.227-.146-.488-.204-.736zm1.957.202c-.828-.757-.43 1.103 0 0zm.156-.389c1.16.991-1.93.995-.657.226.862-.563-1.18-.127-.03-.512.24-.074.712-.078.687.286zm.495-.427c-.593-.569 1.106-.34.219.15.426.352.855 1.135-.014.586-.127-.227-.147-.488-.205-.736zm2.292-.066c-1.061-.155-.854.835-.194.46-1.248.995-1.567-1.153-.222-.902.212.04.396.221.416.442zm-.302-.042c-.343-.906-1.458.647 0 0zm1.699-.654c.664-1.337 1.49 1.638.717.345.056-.98-1.205.133-.342.426-.791.82-.283-1.367-1.085-.471.102.408.35 1.038-.359.75.41-.499-.56-1.26.563-1.157a.794.794 0 01.506.107zm3.302-.884c.277.44.426 2.07-.025 1.105-.644.117-1.686-.241-.862-.968.036-.118 1.548-.33.887-.137zm-.147.431c-1.18-1.269-.255 1.912 0 0zm1.344-.826c1.192-.059.653 1.774-.317 1.028-.53-.512-.221-1.378.087-.275.41.89.948-.653.23-.753zm.935-.572c.183-.533.409.377 0 0zm.605 1.229c.592.082-1.027.35-.232-.127-.679-1.039.215-1.015.232.127zm1.27-.542c-.828-.757-.43 1.103 0 0zm.156-.388c1.16.99-1.93.995-.658.225.863-.563-1.179-.127-.03-.512.24-.074.713-.078.688.287zm1.918.256c-.574-.265-.96-1.596-.274-.607.519.754.729-1.546.713-.174-.114.27-.217.577-.44.78zm1.604-.452c1.08-1.091-1.597-.639-.046.006l.046-.006zm.023.1c-1.902.093.688-2.213.462-.436.016.258-.258.376-.462.436zm1.29-.448c.328.176-.895.304-.328-.343-.476-.632-.063-1.557.14-.467.026.28.155.533.188.81zm.999-1.255c1.193-.058.653 1.775-.317 1.029-.53-.512-.221-1.379.087-.276.41.891.948-.652.23-.753zm1.41.18c.518 1.3.964-1.309-.009-.233l.008.232zm-.324-.321c.67-.826 2.146.378.788.825-.426.022-.196 1.032-.607.384-.07-.395.09-.87-.181-1.21zm1.655-.39c-.593-.568 1.106-.34.219.15.426.353.855 1.136-.015.587-.126-.227-.146-.49-.204-.737zm1.957.202c-.827-.757-.43 1.103 0 0zm.157-.388c1.16.99-1.931.995-.658.225.863-.563-1.179-.126-.03-.511.24-.074.713-.079.688.286zm.572.51c.054-.361 1.376-.194.278-.47-1.094-.248.943-1.152.22-.496-1 .068 1.41.511.104.93a.967.967 0 01-.602.036zM85.287 88.573c.054-.361 1.376-.194.278-.47-1.094-.248.943-1.152.219-.495-1 .067 1.41.51.105.93a.967.967 0 01-.602.035zm1.133-1.688c.183-.533.409.377 0 0zm.606 1.229c.591.082-1.027.35-.233-.128-.678-1.038.215-1.014.233.128zm.363-.992c-.593-.568 1.106-.34.218.15.427.353.855 1.136-.014.587-.126-.227-.146-.489-.204-.737zm2.79.007c-.829-.758-.431 1.102 0 0zm.156-.389c1.159.99-1.931.995-.658.225.862-.563-1.179-.126-.03-.511.24-.074.712-.078.688.286zm.572.51c.054-.36 1.376-.194.278-.47-1.094-.248.943-1.151.22-.495-1 .067 1.41.51.104.93a.967.967 0 01-.602.035zm1.607-.938c.52 1.301.965-1.308-.008-.232l.008.232zm-.323-.32c.67-.826 2.146.378.788.826-.426.021-.196 1.032-.607.383-.07-.394.09-.87-.181-1.209zm2.895-.208c-1.06-.155-.853.835-.194.46-1.247.996-1.566-1.153-.222-.902.213.04.396.221.416.442zm-.302-.042c-.342-.906-1.458.647 0 0zm1.545-.84c-.741.171-.274 2.089-.868.907-.321-.888.276-.61.868-.907zm.356 1.05c.009-.79-.147-1.48.92-1.221.786.294.053 1.626.068.558-.608-1.107-.66.526-.52.56l-.287.055-.18.049zm2.533-.951c-.828-.757-.43 1.103 0 0zm.157-.389c1.16.99-1.931.995-.658.226.863-.563-1.179-.127-.03-.512.24-.074.712-.078.688.286zm.494-.427c-.592-.569 1.106-.34.219.15.427.352.855 1.135-.014.586-.126-.227-.147-.489-.205-.736zm1.67-.507c1.192-.059.653 1.774-.317 1.028-.53-.512-.222-1.378.086-.275.41.89.948-.653.23-.753zm2.008-.475c-.741.171-.274 2.089-.868.907-.322-.888.276-.61.868-.907zm2.042.298c-.828-.757-.43 1.103 0 0zm.156-.388c1.16.99-1.93.995-.658.225.863-.563-1.178-.126-.03-.511.24-.074.713-.079.688.286zm1.113-.687c1.192-.059.653 1.774-.317 1.028-.53-.512-.222-1.378.086-.275.41.89.948-.653.23-.753zm1.066-.137c-.592-.569 1.106-.34.219.15.426.352.855 1.135-.014.586-.127-.227-.147-.488-.205-.736zm2.599.332c1.08-1.09-1.598-.638-.046.006l.046-.006zm.023.1c-1.902.094.688-2.212.461-.435.017.258-.257.375-.461.435zm2.126-.644c-.682.815-2.122-.352-.816-.832.684.032-.121-1.079.562-.364.137.387.072.824.254 1.196zm-.324-.321c-.522-1.3-.966 1.309.008.232l-.008-.232zm.57-1.108c.183-.533.408.377 0 0zm.605 1.229c.592.082-1.027.35-.232-.127-.679-1.039.215-1.015.232.127zm.363-.991c-.592-.569 1.106-.34.219.149.427.353.855 1.136-.014.587-.126-.227-.147-.489-.205-.736zm2.79.006c-.828-.757-.43 1.103 0 0zm.156-.389c1.16.99-1.93.995-.658.226.863-.563-1.178-.127-.03-.512.24-.074.713-.078.688.286zm1.113-.687c1.192-.058.653 1.775-.317 1.029-.53-.512-.222-1.379.086-.276.41.891.948-.652.23-.753zm1.066-.137c-.592-.568 1.106-.34.219.15.426.353.855 1.136-.014.587-.127-.227-.147-.489-.205-.737zm2.643-.994c-.815-.119-.208 1.117-.191 1.464-.75.653-.857-2.533.191-1.464zm.823.064c1.193-.058.653 1.775-.316 1.029-.53-.512-.222-1.379.086-.276.41.891.948-.652.23-.753zm2.157-.393c.704.41-.175 2.15-.709 1.41.8.247.897-.877.032-.319-1.39-.542 1.168-1.864.677-1.091zm-.146.43c-1.181-1.268-.256 1.912 0 0zm.593-1.001c.184-.533.41.377 0 0zm.606 1.229c.592.082-1.027.35-.232-.127-.679-1.039.215-1.015.232.127zm.363-.992c-.592-.568 1.106-.34.22.15.426.353.854 1.136-.015.587-.126-.227-.147-.489-.205-.737zm1.139.963c-.027-1.043.95-.251 0 0zm1.655-.664c.054-.361 1.376-.194.278-.47-1.095-.248.943-1.152.219-.496-1 .068 1.41.511.105.93a.967.967 0 01-.602.036zm2.505-1.072c-1.061-.155-.854.835-.194.46-1.248.995-1.567-1.153-.222-.902.212.04.396.221.416.442zm-.303-.042c-.342-.906-1.457.647 0 0zm1.896.1c-.682.814-2.122-.353-.816-.833.684.032-.121-1.079.562-.364.137.387.073.824.254 1.196zm-.324-.322c-.522-1.3-.966 1.309.008.232l-.008-.232zm2.623-1.126c.277.44.426 2.07-.024 1.105-.645.117-1.687-.242-.863-.968.036-.119 1.548-.33.887-.137zm-.146.431c-1.18-1.269-.256 1.912 0 0zm1.343-.827c1.193-.058.653 1.775-.317 1.029-.53-.512-.221-1.379.087-.276.41.891.948-.652.23-.753zm.935-.571c.183-.533.409.377 0 0zm.606 1.229c.591.082-1.027.35-.233-.128-.678-1.038.215-1.014.233.128zm1.269-.542c-.828-.757-.43 1.103 0 0zm.156-.389c1.16.991-1.93.995-.657.226.862-.563-1.18-.127-.03-.512.24-.074.712-.078.687.286zM86.91 90.096c-.734 1.67-1.98-1.434-.287-.512-1.542-.058-.409 1.557.287.512zm.961.04c1.081-1.092-1.597-.64-.045.005l.045-.006zm.024.1c-1.902.093.688-2.213.461-.436.017.258-.257.375-.461.435zm.886-.24c.009-.791-.147-1.482.92-1.222.786.294.053 1.626.067.558-.607-1.107-.66.526-.518.56l-.288.055-.18.049zm1.705-.464c.054-.361 1.376-.194.278-.471-1.094-.247.943-1.15.22-.495-1 .067 1.41.511.104.93a.967.967 0 01-.602.036zm2.505-1.073c-1.061-.154-.854.836-.194.462-1.248.994-1.566-1.154-.222-.903.213.04.396.221.416.441zm-.302-.041c-.342-.906-1.458.647 0 0zm1.693-.76c.277.44.426 2.071-.024 1.106-.645.117-1.687-.242-.863-.969.036-.118 1.548-.329.887-.136zm-.146.432c-1.18-1.27-.255 1.911 0 0zm1.343-.827c1.193-.058.653 1.774-.316 1.028-.531-.511-.222-1.378.086-.275.41.89.948-.652.23-.753zm1.685-.396c1.192-.059.653 1.774-.317 1.028-.53-.512-.221-1.379.087-.276.41.891.948-.652.23-.752zm1.119.869c.008-.79-.147-1.482.92-1.222.786.294.052 1.626.067.558-.608-1.107-.66.526-.519.56l-.287.055-.181.049zm1.627-1.402c-.593-.568 1.106-.34.219.15.426.353.855 1.136-.015.587-.126-.227-.146-.489-.204-.737zm1.67-.507c1.192-.058.652 1.775-.318 1.029-.53-.512-.221-1.379.087-.276.41.891.948-.652.23-.753zm2.007-.474c-.74.17-.274 2.088-.868.907-.321-.888.277-.611.868-.907zm2.232-.303c.664-1.338 1.49 1.638.717.345.056-.981-1.205.133-.342.425-.79.82-.283-1.366-1.085-.47.102.407.35 1.037-.358.75.409-.5-.562-1.26.562-1.157a.794.794 0 01.506.107zm2.286.018c-.828-.757-.43 1.103 0 0zm.156-.388c1.16.99-1.93.995-.657.225.862-.563-1.18-.127-.03-.512.24-.074.712-.078.687.287zm1.585-.684c.704.41-.175 2.15-.709 1.41.8.247.897-.877.032-.319-1.39-.543 1.168-1.864.677-1.091zm-.146.43c-1.181-1.269-.256 1.912 0 0zm.778.44c.008-.791-.147-1.482.92-1.222.785.294.052 1.626.067.558-.608-1.107-.66.526-.52.56l-.286.055-.181.049zm1.495-1.837c.183-.532.409.378 0 0zm.605 1.23c.592.081-1.027.349-.232-.128-.678-1.039.215-1.015.232.127zm2.488-.586c-.682.814-2.122-.352-.816-.833.684.033-.121-1.078.561-.363.138.387.073.824.255 1.196zm-.324-.322c-.522-1.3-.966 1.31.008.233l-.008-.233zm1.416.103c1.08-1.091-1.597-.639-.046.006l.046-.006zm.023.1c-1.902.093.688-2.213.462-.436.016.258-.258.376-.462.436zm1.29-.447c.328.175-.895.303-.328-.344-.475-.632-.063-1.557.14-.467.026.28.155.533.188.81zm1.096-.22c1.08-1.091-1.597-.639-.046.006l.046-.006zm.024.1c-1.902.093.688-2.213.461-.436.017.258-.258.376-.461.436zm1.775-1.584c-.741.172-.274 2.09-.868.907-.322-.887.276-.61.868-.907zm1.544.226c-1.06-.155-.853.836-.194.461-1.247.995-1.566-1.154-.222-.903.213.04.396.222.416.442zm-.302-.042c-.342-.905-1.458.648 0 0zm.682.436c.053-.361 1.375-.194.278-.471-1.095-.247.943-1.151.218-.495-1 .067 1.41.511.105.93a.967.967 0 01-.601.036zm3.336-1.268c-1.06-.155-.853.835-.194.46-1.247.995-1.566-1.153-.222-.902.213.04.396.221.416.442zm-.302-.042c-.342-.906-1.458.647 0 0zm1.318.273c1.08-1.09-1.597-.638-.045.006l.045-.006zm.024.1c-1.902.094.688-2.213.461-.435.017.257-.258.375-.461.435zm.912-.308c.053-.361 1.375-.194.278-.47-1.095-.248.943-1.152.219-.495-1 .067 1.41.51.105.93a.967.967 0 01-.602.035zm3.186-1.706c.277.44.426 2.07-.024 1.105-.645.117-1.687-.242-.863-.969.036-.118 1.548-.329.887-.136zm-.146.43c-1.18-1.268-.255 1.913 0 0zm1.343-.826c1.193-.058.653 1.775-.316 1.029-.531-.512-.222-1.379.086-.276.41.891.948-.652.23-.753zm.935-.571c.183-.533.41.377 0 0zm.606 1.228c.591.083-1.027.35-.232-.127-.679-1.038.214-1.014.232.127zm2.137-1.524c-.741.17-.274 2.088-.869.907-.32-.888.277-.611.869-.907zm1.21.494c-.828-.757-.43 1.103 0 0zm.156-.389c1.16.99-1.93.995-.658.226.863-.563-1.179-.127-.03-.512.24-.074.713-.078.688.286zm.495-.427c-.593-.569 1.105-.34.218.15.427.352.855 1.135-.014.586-.126-.227-.146-.489-.204-.736zm.92-.682c.183-.533.408.377 0 0zm.605 1.228c.591.083-1.027.35-.232-.127-.679-1.038.215-1.014.232.127zm1.078-.215c1.08-1.091-1.597-.639-.046.006l.046-.006zm.023.1c-1.901.093.689-2.213.462-.436.017.258-.258.376-.462.436zm.887-.24c.008-.79-.147-1.481.92-1.222.786.294.052 1.627.067.559-.608-1.108-.66.526-.519.56l-.287.055-.181.048zm2.867-1.22c-1.061-.155-.853.836-.194.461-1.248.995-1.566-1.154-.222-.903.213.04.396.222.416.442zm-.302-.042c-.342-.905-1.458.647 0 0zM86.773 92.651c-.573-.266-.958-1.597-.273-.607.519.754.729-1.546.713-.174-.114.27-.217.576-.44.78zm1.605-.453c1.08-1.09-1.597-.638-.046.006l.046-.006zm.023.1c-1.902.094.688-2.212.462-.435.016.258-.258.375-.462.435zm1.29-.447c.328.175-.895.304-.328-.343-.476-.633-.063-1.558.14-.467.026.279.155.532.188.81zm.999-1.255c1.193-.059.653 1.774-.317 1.028-.53-.512-.221-1.378.087-.275.41.89.948-.652.23-.753zm1.41.179c.518 1.3.964-1.308-.009-.232l.008.232zm-.324-.32c.67-.827 2.146.378.788.825-.426.022-.196 1.032-.607.383-.07-.394.09-.87-.181-1.209zm1.655-.39c-.593-.569 1.106-.34.219.15.426.352.855 1.135-.015.586-.126-.227-.146-.488-.204-.736zm1.957.202c-.828-.757-.43 1.103 0 0zm.157-.389c1.16.991-1.931.995-.658.226.863-.563-1.179-.127-.03-.512.24-.074.712-.078.688.286zm.494-.427c-.592-.569 1.106-.34.22.15.426.352.854 1.135-.015.586-.126-.227-.147-.488-.205-.736zm2.292-.066c-1.06-.155-.853.835-.194.46-1.247.995-1.566-1.153-.222-.902.213.04.396.221.416.442zm-.302-.042c-.342-.906-1.458.647 0 0zm1.7-.654c.663-1.337 1.489 1.638.716.345.056-.98-1.205.134-.342.426-.79.82-.283-1.367-1.085-.471.102.408.35 1.038-.358.75.409-.499-.562-1.26.562-1.157a.794.794 0 01.506.107zm2.29.31c.053-.36 1.375-.193.277-.47-1.094-.247.943-1.151.22-.495-1 .067 1.41.511.104.93a.967.967 0 01-.602.036zm2.504-1.072c-1.061-.154-.854.836-.194.461-1.248.995-1.566-1.153-.222-.903.213.04.396.222.416.442zm-.302-.042c-.342-.905-1.458.648 0 0zm1.693-.758c.277.439.426 2.07-.024 1.105-.645.117-1.687-.242-.863-.969.036-.118 1.548-.329.887-.136zm-.146.43c-1.18-1.269-.256 1.912 0 0zm1.343-.826c1.193-.059.653 1.774-.317 1.028-.53-.512-.221-1.378.087-.275.41.89.948-.653.23-.753zm.935-.572c.183-.532.409.378 0 0zm.606 1.23c.591.081-1.027.349-.233-.128-.678-1.039.215-1.015.233.127zm1.248-.182c.008-.79-.148-1.481.92-1.222.785.294.052 1.627.067.559-.608-1.108-.66.525-.52.56l-.287.054-.18.05zm2.867-1.22c-1.061-.155-.854.836-.194.461-1.248.995-1.567-1.154-.222-.903.212.04.396.221.416.442zm-.303-.042c-.342-.905-1.457.647 0 0zm.682.435c.054-.36 1.376-.194.278-.47-1.094-.247.943-1.151.219-.495-1 .067 1.41.51.105.93a.967.967 0 01-.602.035zm2.478-.86c-.734 1.67-1.98-1.435-.287-.512-1.542-.058-.41 1.557.287.512zm.115-1.171c.183-.533.408.377 0 0zm.605 1.228c.592.083-1.027.35-.232-.127-.679-1.038.215-1.014.232.127zm.981-1.25c1.193-.059.653 1.774-.316 1.028-.53-.512-.222-1.378.086-.275.41.89.948-.653.23-.753zm1.12.87c.008-.792-.148-1.483.92-1.223.785.294.052 1.627.067.559-.608-1.108-.66.525-.52.56l-.287.054-.18.05zm1.627-1.403c-.593-.568 1.105-.34.218.15.427.353.855 1.136-.014.587-.126-.227-.147-.489-.204-.737zm1.218.622c.214-.631.48.444 0 0zM87.229 96.908c.527-.435-.73-2.155.538-1.36.566.693 1.42.573.697-.295-.04-.594.664-.062.361.439.737 2.028-1.91-1.088-1.329.601.356.644.613.375-.267.615zm3.459-1.36c-1.061-.154-.853.836-.194.461-1.247.995-1.566-1.153-.222-.903.213.04.396.222.416.442zm-.302-.042c-.342-.905-1.458.648 0 0zm1.693-.758c.277.439.426 2.07-.024 1.105-.645.117-1.687-.242-.863-.969.036-.118 1.548-.329.887-.136zm-.146.43c-1.18-1.269-.255 1.912 0 0zm1.343-.826c1.193-.059.654 1.774-.316 1.028-.53-.512-.222-1.378.086-.275.41.89.948-.653.23-.753zm2.307.044c-1.06-.155-.853.836-.194.461-1.247.995-1.566-1.154-.222-.903.213.04.396.222.416.442zm-.302-.042c-.342-.905-1.458.648 0 0zm1.778-.382c.52 1.3.965-1.308-.008-.232l.008.232zm-.323-.32c.67-.827 2.146.378.788.825-.426.022-.196 1.032-.607.384-.07-.395.09-.87-.181-1.21zm2.37.386c1.08-1.091-1.597-.639-.046.006l.046-.006zm.023.1c-1.902.093.688-2.213.462-.436.016.258-.258.376-.462.436zm1.776-1.584c-.741.171-.274 2.09-.869.907-.32-.887.277-.61.869-.907zm1.245-.293c-.74.171-.274 2.089-.868.907-.321-.887.277-.61.868-.907zm1.019.82c1.08-1.09-1.597-.638-.046.006l.046-.005zm.023.1c-1.901.094.688-2.212.462-.435.017.258-.258.376-.462.436zm2.756-1.698c.277.44.426 2.07-.024 1.105-.645.117-1.687-.242-.863-.968.036-.119 1.548-.33.887-.137zm-.146.431c-1.18-1.269-.255 1.912 0 0zm1.343-.826c1.193-.059.653 1.774-.316 1.028-.53-.512-.222-1.379.086-.276.41.891.948-.652.23-.752zm.935-.572c.184-.533.41.377 0 0zm.606 1.229c.591.082-1.027.35-.232-.127-.679-1.04.214-1.015.232.127zm.441-.054c.054-.361 1.376-.194.278-.47-1.094-.248.943-1.152.22-.495-1 .067 1.41.51.104.93a.967.967 0 01-.602.035zm2.355-1.51c.277.44.426 2.07-.025 1.105-.645.117-1.687-.242-.862-.969.036-.118 1.547-.329.887-.136zm-.147.43c-1.18-1.268-.255 1.912 0 0zm1.344-.826c1.192-.058.653 1.775-.317 1.029-.53-.512-.222-1.379.086-.276.41.89.948-.652.23-.753zm1.972.313c-.828-.757-.43 1.103 0 0zm.157-.389c1.16.99-1.931.995-.658.226.862-.563-1.179-.127-.03-.512.24-.074.712-.078.688.286zm1.59-.579c.664-1.337 1.49 1.639.717.345.056-.98-1.205.134-.342.426-.791.82-.283-1.367-1.085-.471.102.408.35 1.038-.359.751.41-.5-.56-1.262.563-1.158a.794.794 0 01.506.107zm3.452-.446c-1.06-.154-.853.836-.194.461-1.247.995-1.566-1.153-.222-.903.213.04.396.222.416.442zm-.302-.041c-.342-.906-1.458.647 0 0zm.682.435c.053-.361 1.375-.194.278-.47-1.095-.248.943-1.152.218-.496-1 .068 1.41.511.105.93a.967.967 0 01-.601.036zm1.264-1.254c-.593-.568 1.106-.34.219.15.426.353.855 1.136-.014.587-.127-.227-.147-.489-.205-.737zm1.139.963c-.027-1.044.95-.251 0 0zm2.667-1.858c.276.439.426 2.07-.025 1.104-.645.117-1.687-.241-.862-.968.036-.118 1.547-.33.887-.136zm-.147.43c-1.18-1.269-.255 1.912 0 0zm1.344-.826c1.192-.059.653 1.774-.317 1.028-.53-.512-.222-1.378.086-.275.41.89.948-.653.23-.753zm.934-.572c.184-.533.41.378 0 0zm.606 1.229c.592.082-1.027.35-.232-.127-.679-1.039.215-1.015.232.127zm2.487-.585c-.681.814-2.121-.352-.815-.833.684.033-.122-1.079.561-.363.137.386.073.824.254 1.196zm-.323-.322c-.522-1.3-.966 1.31.007.232l-.007-.232zm1.415.103c1.08-1.091-1.597-.639-.045.006l.045-.006zm.024.1c-1.902.093.688-2.213.461-.436.017.258-.258.376-.461.436zm1.29-.448c.328.176-.896.304-.329-.343-.475-.632-.062-1.557.141-.467.025.28.155.533.188.81zm1.096-.22c1.08-1.09-1.597-.638-.046.007l.046-.006zm.023.1c-1.902.094.688-2.212.462-.435.016.258-.258.376-.462.436zm1.776-1.583c-.741.171-.274 2.089-.869.907-.32-.887.277-.61.869-.907zm1.544.226c-1.061-.155-.854.836-.194.461-1.248.995-1.566-1.154-.222-.903.213.04.396.221.416.442zm-.302-.042c-.343-.905-1.458.647 0 0zm1.699-.654c.664-1.337 1.49 1.639.717.345.056-.98-1.205.134-.342.426-.791.82-.283-1.367-1.085-.47.102.407.35 1.037-.359.75.41-.5-.56-1.261.563-1.158a.794.794 0 01.506.107zM87.511 97.54c.183-.533.409.377 0 0zm.606 1.229c.591.082-1.027.35-.233-.128-.678-1.038.215-1.014.233.128zm.705-.676c.52 1.3.965-1.308-.008-.232l.008.232zm-.323-.32c.67-.827 2.147.378.789.825-.427.022-.197 1.032-.608.384-.07-.395.09-.87-.181-1.21zm1.733.548c.054-.361 1.376-.194.278-.471-1.094-.247.943-1.15.219-.495-1 .067 1.41.511.105.93a.967.967 0 01-.602.036zm1.882-1.513c1.193-.059.653 1.774-.316 1.028-.531-.512-.222-1.378.086-.275.41.89.948-.653.23-.753zm2.163-.289c.664-1.337 1.49 1.639.717.345.056-.98-1.205.134-.342.426-.791.82-.283-1.367-1.085-.47.102.407.35 1.037-.359.75.41-.5-.561-1.261.563-1.158a.794.794 0 01.506.107zm3.302-.883c.277.439.426 2.07-.025 1.105-.644.116-1.687-.242-.862-.97.036-.117 1.548-.328.887-.135zm-.147.43c-1.18-1.269-.255 1.912 0 0zm1.344-.826c1.192-.059.653 1.774-.317 1.028-.53-.512-.221-1.378.086-.275.41.89.949-.653.23-.753zm.935-.572c.183-.533.408.378 0 0zm.605 1.229c.592.082-1.027.35-.232-.127-.679-1.039.215-1.015.232.127zm1.27-.542c-.828-.757-.43 1.103 0 0zm.156-.388c1.16.99-1.931.995-.658.225.863-.563-1.179-.126-.03-.511.24-.074.713-.079.688.286zm2.618-.022c-.681.815-2.121-.352-.815-.832.684.032-.122-1.079.561-.364.137.387.073.824.254 1.196zm-.323-.321c-.522-1.3-.966 1.309.007.232l-.007-.232zm1.415.102c1.081-1.09-1.597-.638-.045.006l.045-.006zm.024.1c-1.902.094.688-2.212.461-.435.017.258-.258.375-.461.435zm1.29-.447c.328.176-.896.304-.329-.343-.475-.633-.062-1.558.141-.467.025.279.155.532.188.81zm1.096-.22c1.08-1.09-1.597-.638-.046.006l.046-.006zm.023.1c-1.902.094.688-2.212.462-.435.016.258-.258.375-.462.435zm1.776-1.583c-.741.17-.274 2.089-.869.907-.32-.888.277-.611.869-.907zm1.214.786c.053-.361 1.375-.194.278-.47-1.095-.248.943-1.152.219-.495-1 .067 1.41.51.105.93a.967.967 0 01-.602.035zm1.132-1.688c.184-.533.41.377 0 0zm.606 1.229c.592.082-1.027.35-.232-.127-.679-1.04.215-1.015.232.127zm.363-.992c-.592-.568 1.106-.34.22.15.426.353.854 1.136-.015.587-.126-.227-.147-.489-.205-.737zm2.79.007c-.828-.758-.43 1.103 0 0zm.156-.389c1.16.99-1.93.995-.658.226.863-.563-1.178-.127-.029-.512.24-.074.712-.078.687.286zm1.59-.579c.664-1.337 1.49 1.639.718.345.055-.98-1.206.134-.342.426-.791.82-.284-1.367-1.086-.471.102.408.35 1.038-.358.751.41-.5-.561-1.262.562-1.158a.794.794 0 01.507.107zm2.62-.25c-1.06-.155-.853.836-.193.461-1.248.995-1.567-1.153-.222-.903.212.04.396.222.416.442zm-.302-.042c-.342-.905-1.457.648 0 0zm.604-.502c-.593-.568 1.106-.34.219.15.426.352.855 1.135-.014.587-.127-.228-.147-.49-.205-.737zm1.139.963c-.027-1.044.95-.252 0 0zm2.79-1.209c-.734 1.67-1.98-1.435-.287-.512-1.542-.058-.41 1.557.287.512zm.961.04c1.08-1.092-1.597-.64-.046.005l.046-.006zm.024.1c-1.902.092.688-2.214.461-.436.017.257-.258.375-.461.435zm.886-.24c.009-.791-.147-1.482.92-1.222.786.294.052 1.626.067.558-.607-1.107-.66.526-.519.56l-.287.055-.18.049zm1.705-.465c.054-.36 1.376-.193.278-.47-1.094-.247.943-1.151.219-.495-1 .067 1.41.51.105.93a.967.967 0 01-.602.035zm2.505-1.072c-1.061-.155-.854.836-.194.461-1.248.995-1.566-1.153-.222-.903.212.04.396.222.416.442zm-.302-.042c-.343-.905-1.458.648 0 0zm1.816-.109c-.734 1.67-1.98-1.434-.286-.512-1.542-.058-.41 1.557.286.512zm.247-.736c-.592-.569 1.106-.34.219.149.426.353.855 1.136-.014.587-.127-.227-.147-.489-.205-.736zm2.292-.067c-1.061-.154-.854.836-.194.461-1.248.995-1.566-1.153-.222-.903.212.04.396.222.416.442zm-.302-.042c-.343-.905-1.458.648 0 0zm.603-.502c-.592-.568 1.106-.34.219.15.426.352.855 1.136-.014.587-.127-.227-.147-.49-.205-.737zm1.67-.507c1.192-.058.653 1.775-.317 1.029-.53-.512-.222-1.379.086-.276.41.891.948-.652.23-.753zm2.008-.475c-.741.172-.274 2.09-.869.908-.32-.888.277-.611.869-.908zm.105 1.323c-.027-1.044.95-.252 0 0zm-49.546 13.276c-.828-.758-.43 1.102 0 0zm.157-.389c1.159.99-1.931.995-.658.226.862-.563-1.179-.127-.03-.512.24-.074.712-.078.688.286zm1.786.174c-.682.815-2.122-.351-.816-.832.684.032-.12-1.079.562-.363.137.386.073.824.254 1.195zm-.323-.321c-.523-1.3-.966 1.309.007.232l-.007-.232zm.569-1.108c.183-.533.408.378 0 0zm.605 1.229c.592.082-1.027.35-.232-.127-.679-1.039.215-1.015.232.127zm.706-.675c.52 1.3.965-1.309-.008-.233l.008.233zm-.323-.32c.67-.827 2.146.377.788.825-.426.021-.197 1.032-.607.383-.07-.394.09-.87-.181-1.209zm1.523-.825c.183-.533.409.377 0 0zm.606 1.229c.591.082-1.027.35-.233-.127-.678-1.039.215-1.015.233.127zm.44-.054c.054-.36 1.377-.194.279-.47-1.095-.248.943-1.151.219-.495-1 .067 1.41.51.105.93a.967.967 0 01-.602.035zm2.479-.86c-.734 1.67-1.98-1.435-.287-.512-1.542-.059-.41 1.557.287.512zm.114-1.172c.184-.532.41.378 0 0zm.606 1.23c.592.081-1.027.349-.232-.128-.679-1.039.215-1.015.232.127zm1.786-.308c-.573-.266-.958-1.597-.273-.607.519.754.729-1.546.713-.174-.114.27-.217.576-.44.78zm2.13-1.047c-1.061-.155-.853.836-.194.461-1.248.995-1.566-1.154-.222-.903.213.04.396.221.416.442zm-.302-.042c-.342-.905-1.458.647 0 0zm1.06.296c.328.176-.896.304-.33-.343-.474-.632-.062-1.557.142-.467.025.28.154.533.187.81zm.249-1.43c.183-.533.409.378 0 0zm.605 1.229c.592.082-1.027.35-.232-.127-.678-1.039.215-1.015.232.127zm.364-.991c-.593-.569 1.105-.34.218.15.427.352.855 1.135-.014.586-.126-.227-.146-.489-.204-.736zm1.138.963c-.027-1.044.95-.252 0 0zm1.655-.665c.054-.36 1.376-.194.278-.47-1.094-.248.943-1.151.22-.495-1 .067 1.41.51.104.93a.967.967 0 01-.602.035zm2.505-1.072c-1.061-.155-.854.836-.194.46-1.248.996-1.566-1.153-.222-.902.213.04.396.221.416.442zm-.302-.042c-.342-.905-1.458.647 0 0zm1.895.1c-.681.814-2.122-.352-.816-.833.684.032-.12-1.079.562-.363.137.386.073.824.254 1.195zm-.323-.322c-.522-1.3-.966 1.31.007.232l-.007-.232zm2.622-1.125c.277.439.427 2.07-.024 1.104-.645.117-1.687-.241-.863-.968.036-.118 1.548-.33.887-.136zm-.146.43c-1.18-1.269-.255 1.912 0 0zm1.344-.826c1.192-.059.653 1.774-.317 1.028-.53-.512-.222-1.378.086-.275.41.89.948-.653.23-.753zm.934-.572c.184-.533.41.378 0 0zm.606 1.229c.592.082-1.027.35-.232-.127-.679-1.039.215-1.015.232.127zm1.27-.542c-.829-.757-.431 1.103 0 0zm.156-.388c1.16.99-1.931.995-.658.225.862-.563-1.179-.126-.03-.512.24-.074.712-.078.688.287zm1.379.383c.008-.791-.147-1.482.92-1.222.785.294.052 1.626.067.558-.608-1.107-.66.526-.52.56l-.286.055-.181.049zm2.341-.626c1.08-1.091-1.597-.639-.045.006l.045-.006zm.024.1c-1.902.093.688-2.213.461-.436.017.258-.258.376-.461.436zm.886-.24c.009-.79-.147-1.481.92-1.222.786.294.053 1.627.067.559-.607-1.108-.66.526-.519.56l-.287.055-.18.048zm2.512-.59c.008-.792-.147-1.483.92-1.223.785.294.052 1.627.067.559-.608-1.108-.66.525-.52.56l-.286.054-.181.05zm2.244-1.662c1.193-.058.654 1.775-.316 1.029-.53-.512-.222-1.379.086-.276.41.89.948-.652.23-.753zm2.163-.288c.664-1.338 1.49 1.638.717.345.056-.981-1.205.133-.342.425-.791.82-.283-1.366-1.085-.47.102.407.35 1.037-.359.75.41-.5-.56-1.261.563-1.158a.794.794 0 01.506.108zm2.47-.688c.277.439.426 2.07-.025 1.105-.644.117-1.686-.242-.862-.969.036-.118 1.548-.329.887-.136zm-.147.43c-1.18-1.268-.255 1.912 0 0zm1.344-.826c1.192-.058.653 1.775-.317 1.028-.53-.511-.221-1.378.087-.275.41.89.948-.652.23-.753zm1.972.313c-.827-.758-.43 1.102 0 0zm.157-.389c1.16.99-1.931.995-.658.226.863-.563-1.179-.127-.03-.512.24-.074.713-.078.688.286zm1.59-.579c.664-1.337 1.49 1.638.717.345.056-.98-1.205.134-.342.426-.79.82-.283-1.367-1.085-.471.102.408.35 1.038-.358.751.409-.5-.562-1.262.562-1.158a.794.794 0 01.506.107zm3.452-.446c-1.06-.154-.853.836-.194.461-1.247.995-1.566-1.153-.222-.903.213.04.396.222.416.442zm-.302-.042c-.342-.905-1.458.648 0 0zm.472-.936c.183-.533.409.377 0 0zm.606 1.228c.591.083-1.027.35-.233-.127-.678-1.038.215-1.014.233.127zm.98-1.25c1.193-.059.654 1.774-.316 1.028-.53-.512-.222-1.378.086-.275.41.89.948-.653.23-.753zm1.145.8c.054-.36 1.376-.194.278-.47-1.094-.248.943-1.151.22-.495-1 .067 1.41.51.104.93a.967.967 0 01-.602.035zm-52.802 13.761c.664-1.337 1.49 1.639.717.345.056-.98-1.205.134-.342.426-.791.82-.283-1.367-1.085-.47.102.407.35 1.037-.359.75.41-.5-.561-1.261.563-1.158a.794.794 0 01.506.107zm2.094.345c1.081-1.091-1.597-.639-.045.006l.045-.006zm.024.1c-1.902.093.688-2.213.461-.436.017.258-.257.376-.461.436zm2.126-.644c-.682.814-2.122-.352-.816-.833.684.033-.121-1.078.562-.363.137.387.072.824.254 1.196zm-.324-.322c-.522-1.3-.966 1.31.008.233l-.008-.233zm.57-1.107c.183-.533.408.377 0 0zm.605 1.228c.591.083-1.027.35-.232-.127-.679-1.038.214-1.014.232.127zm1.195-1.187c-.592-.568 1.106-.34.219.15.426.353.855 1.136-.014.587-.127-.227-.147-.489-.205-.737zm2.292-.066c-1.061-.155-.854.836-.194.461-1.248.995-1.566-1.154-.222-.903.213.04.396.222.416.442zm-.302-.042c-.342-.905-1.458.647 0 0zm1.7-.653c.663-1.338 1.488 1.638.716.344.056-.98-1.205.134-.342.426-.79.82-.283-1.366-1.085-.47.102.407.35 1.037-.358.75.409-.5-.562-1.261.562-1.158a.794.794 0 01.506.108zm1.721-.116c.52 1.3.966-1.308-.007-.232l.007.232zm-.323-.32c.67-.827 2.147.378.789.825-.427.022-.197 1.032-.608.384-.069-.395.091-.87-.18-1.21zm2.37.386c1.08-1.091-1.597-.639-.046.006l.046-.006zm.024.1c-1.902.093.688-2.213.461-.436.017.258-.258.376-.461.436zm1.775-1.584c-.741.172-.274 2.09-.868.907-.321-.887.276-.61.868-.907zm1.21.495c-.828-.758-.43 1.102 0 0zm.156-.389c1.16.99-1.93.995-.658.225.863-.563-1.178-.126-.029-.511.24-.074.712-.078.687.286zm1.195-1.058c.183-.533.409.378 0 0zm.606 1.229c.591.082-1.027.35-.232-.127-.68-1.039.214-1.015.232.127zm.416.015c.008-.79-.148-1.482.92-1.222.785.294.052 1.626.067.559-.608-1.108-.66.525-.52.56l-.287.054-.18.049zm2.84-1.008c-.734 1.67-1.98-1.435-.287-.512-1.542-.059-.41 1.556.287.512zm.115-1.172c.183-.533.408.378 0 0zm.605 1.229c.592.082-1.027.35-.232-.127-.679-1.039.215-1.015.232.127zm1.655-.39c-.681.815-2.121-.351-.815-.832.684.032-.122-1.079.561-.363.137.386.073.824.254 1.195zm-.323-.32c-.522-1.302-.966 1.308.007.231l-.007-.232zm1.319-.934c1.192-.058.653 1.775-.317 1.029-.53-.512-.222-1.379.086-.276.41.891.948-.652.23-.753zm1.119.87c.008-.791-.147-1.482.92-1.222.785.294.052 1.626.067.558-.608-1.107-.66.526-.52.56l-.287.055-.18.049zm1.627-1.402c-.593-.568 1.105-.34.218.15.427.352.855 1.135-.014.587-.126-.228-.146-.49-.204-.737zm2.5-.703c1.194-.058.654 1.775-.316 1.029-.53-.512-.221-1.379.087-.276.41.891.948-.652.23-.753zm1.068-.137c-.593-.568 1.105-.34.218.15.427.353.855 1.136-.014.587-.126-.227-.146-.489-.204-.737zm2.34.355c.327.176-.896.304-.33-.343-.474-.632-.062-1.557.141-.467.026.28.155.533.188.81zm1.286-.546c-.828-.757-.43 1.103 0 0zm.157-.388c1.159.99-1.931.995-.658.225.862-.563-1.179-.126-.03-.511.24-.074.712-.078.688.286zm.715.426c-.087-.572-.753-1.912.239-1.132 1.461-.068.811 1.568-.368 1.217l-.026-.023.155-.062zm.147-.432c1.175 1.27.255-1.911 0 0zm2.021-.04c1.08-1.091-1.597-.638-.046.006l.046-.006zm.024.1c-1.902.093.688-2.213.461-.435.017.257-.258.375-.461.435zm1.775-1.583c-.74.17-.274 2.088-.868.907-.321-.888.277-.611.868-.907zm1.544.225c-1.06-.154-.853.836-.194.461-1.247.995-1.566-1.153-.222-.902.213.04.397.22.416.441zm-.302-.041c-.342-.906-1.458.647 0 0zm2.676-.517c-1.061-.155-.854.835-.194.46-1.248.995-1.566-1.153-.222-.902.213.04.396.221.416.442zm-.302-.042c-.342-.906-1.458.647 0 0zm.603-.502c-.592-.569 1.106-.34.22.15.426.352.854 1.135-.015.586-.126-.227-.147-.489-.205-.736zm3.176.158c-.682.814-2.122-.352-.816-.832.684.032-.121-1.08.562-.364.137.387.072.824.254 1.196zm-.324-.321c-.522-1.301-.966 1.309.008.232l-.008-.232zm1.416.102c1.08-1.091-1.597-.638-.046.006l.046-.006zm.023.1c-1.902.094.688-2.213.462-.435.016.257-.258.375-.462.435zm1.29-.447c.329.175-.895.304-.328-.344-.475-.632-.063-1.557.14-.466.026.279.155.532.188.81zm1.096-.22c1.08-1.091-1.597-.639-.046.006l.046-.006zm.024.1c-1.902.093.688-2.213.461-.435.017.257-.258.375-.461.435zm1.775-1.583c-.74.17-.274 2.088-.868.907-.321-.888.276-.611.868-.907zm1.544.225c-1.06-.154-.853.836-.194.461-1.247.995-1.566-1.153-.222-.902.213.04.396.22.416.441zm-.302-.041c-.342-.906-1.458.647 0 0zM90.2 104.026c.663-1.337 1.489 1.638.717.345.055-.98-1.206.134-.342.426-.792.82-.284-1.367-1.086-.471.102.408.35 1.038-.358.751.41-.5-.561-1.262.562-1.158a.794.794 0 01.507.107zm2.285.018c-.828-.757-.43 1.103 0 0zm.157-.388c1.16.99-1.931.995-.658.225.862-.563-1.179-.126-.03-.511.24-.074.712-.078.688.286zm1.584-.684c.704.41-.175 2.15-.709 1.41.801.247.898-.877.033-.319-1.39-.542 1.167-1.864.676-1.091zm-.146.43c-1.18-1.268-.256 1.912 0 0zm.778.44c.008-.79-.147-1.482.92-1.222.786.294.052 1.626.067.558-.608-1.107-.66.526-.519.56l-.287.055-.181.049zm2.533-.952c-.828-.757-.43 1.103 0 0zm.156-.389c1.16.991-1.93.995-.658.226.863-.563-1.178-.127-.03-.512.24-.074.713-.078.688.286zm1.59-.578c.664-1.338 1.49 1.638.718.344.055-.98-1.206.134-.342.426-.792.82-.284-1.367-1.086-.47.102.407.35 1.037-.358.75.41-.5-.561-1.261.562-1.158a.794.794 0 01.507.108zm3.118-.178c-.827-.757-.43 1.103 0 0zm.157-.389c1.16.991-1.931.995-.658.226.863-.563-1.179-.127-.03-.512.24-.074.712-.078.688.286zm.95.371c.329.176-.895.304-.328-.343-.475-.632-.063-1.557.14-.467.026.28.155.533.188.81zm.25-1.43c.183-.532.409.378 0 0zm.605 1.23c.592.081-1.027.349-.232-.128-.679-1.039.215-1.015.232.127zm1.454-1.249c.276.44.426 2.07-.025 1.105-.645.117-1.687-.242-.862-.968.036-.119 1.547-.33.887-.137zm-.147.431c-1.18-1.269-.255 1.912 0 0zm1.344-.827c1.192-.058.653 1.775-.317 1.029-.53-.512-.222-1.379.086-.276.41.891.948-.652.23-.753zm1.972.313c-.828-.757-.43 1.103 0 0zm.157-.388c1.159.99-1.931.995-.658.225.862-.563-1.179-.127-.03-.512.24-.074.712-.078.688.287zm1.59-.58c.664-1.337 1.49 1.639.717.345.056-.98-1.205.134-.342.426-.791.82-.283-1.366-1.085-.47.102.407.35 1.037-.359.75.41-.5-.56-1.261.563-1.158a.794.794 0 01.506.108zm3.302-.883c.277.44.426 2.07-.025 1.105-.644.117-1.686-.242-.862-.969.036-.118 1.548-.329.887-.136zm-.147.43c-1.18-1.268-.255 1.912 0 0zm1.344-.826c1.193-.058.653 1.775-.317 1.029-.53-.512-.221-1.379.087-.276.41.89.948-.652.23-.753zm1.972.313c-.827-.758-.43 1.103 0 0zm.157-.389c1.16.99-1.931.995-.658.226.863-.563-1.179-.127-.03-.512.24-.074.713-.078.688.286zm1.735-.246c-1.061-.155-.854.836-.194.46-1.248.996-1.567-1.153-.222-.902.212.04.396.221.416.442zm-.303-.042c-.342-.905-1.457.647 0 0zm1.545-.84c-.74.171-.274 2.089-.868.907-.321-.888.277-.61.868-.907zm1.21.494c-.827-.757-.43 1.103 0 0zm.157-.388c1.16.99-1.931.995-.658.225.863-.563-1.179-.126-.03-.512.24-.074.713-.078.688.287zm.494-.428c-.592-.568 1.106-.34.22.15.426.352.854 1.136-.015.587-.126-.227-.147-.49-.205-.737zm2.475.436c-.574-.265-.959-1.596-.274-.606.519.754.73-1.546.714-.175-.114.271-.218.577-.44.781zm1.604-.452c1.08-1.091-1.597-.638-.046.006l.046-.006zm.023.1c-1.901.094.689-2.213.462-.435.017.257-.258.375-.462.435zm1.29-.447c.329.175-.895.304-.328-.344-.475-.632-.062-1.557.14-.466.026.279.155.532.188.81zm1-1.255c1.192-.059.652 1.774-.317 1.028-.53-.512-.222-1.378.086-.275.41.89.948-.653.23-.753zm1.409.179c.519 1.3.965-1.308-.008-.232l.008.232zm-.324-.32c.67-.827 2.147.378.789.825-.427.022-.197 1.032-.608.383-.069-.394.091-.87-.18-1.209zm1.655-.39c-.592-.569 1.106-.34.22.15.426.352.854 1.135-.015.586-.126-.227-.147-.489-.205-.736zm1.958.202c-.828-.757-.43 1.103 0 0zm.156-.389c1.16.99-1.93.995-.658.226.863-.563-1.178-.127-.03-.512.24-.074.713-.078.688.286zm.495-.427c-.593-.569 1.106-.34.219.15.426.352.854 1.135-.015.586-.126-.227-.146-.488-.204-.736zm2.291-.066c-1.06-.155-.853.835-.193.46-1.248.995-1.567-1.153-.223-.902.213.04.397.221.416.442zm-.302-.042c-.342-.906-1.458.647 0 0zm1.7-.654c.663-1.337 1.489 1.638.717.345.056-.98-1.205.133-.342.426-.791.82-.283-1.367-1.086-.471.102.408.35 1.038-.358.75.41-.499-.561-1.26.562-1.157a.794.794 0 01.507.107zm1.546.437c.214-.63.48.445 0 0z" font-family="Bitstream Vera Serif" font-size="12" font-weight="400"/>
 <path d="M9.67 72.62l130.139-30.632.272 1.156L9.941 73.776z"/>
 <path d="M81.928 54.932a7.872 3.572-13.245 11-15.325 3.607 7.872 3.572-13.245 1115.325-3.607z"/>
 <path d="M68.797 59.019c-.023-.1-.076-.233.02-.207.059-.014.145.002.083-.139l-.439-1.865-.174.041c-.023-.1-.077-.233.02-.207l.362-.085 1.217 1.478-.348-1.48-.174.04c-.023-.1-.076-.233.02-.206l.412-.097c.023.1.076.233-.02.206-.058.015-.144-.002-.083.14l.484 2.056-.24.057-1.238-1.51.357 1.515.174-.04c.023.1.076.232-.02.206l-.413.097zm2.224-.664c.18-.042.09-.427.041-.655-.068-.25-.11-.587-.277-.743-.195-.12-.25.215-.175.466.067.296.117.633.27.874.044.054.097.07.141.058zm.042.179c-.229.08-.544-.104-.686-.52-.146-.378-.179-.879.013-1.095.21-.235.575-.269.83.129.237.391.33 1.06.1 1.329a.449.449 0 01-.257.157zm.67-.476c-.121-.515.423-.376.359.091-.029.27-.297.201-.359-.091zm1.468-.076c-.023-.1-.076-.233.02-.206l.19-.045-.449-1.91-.216.357c-.009-.091-.083-.222-.031-.276.082-.13.156-.283.244-.4l.279-.065.52 2.212.257-.06c.023.1.077.233-.02.207l-.794.186zm.97-2.72l.203-.048.145 2.775-.202.048-.146-2.775zm.588.478c-.058.013-.129.066-.137-.088l-.093-.396c.237-.19.53-.343.84-.15.273.173.403.766.274 1.074-.124.333-.297.6-.447.896l.646-.153c-.013-.088-.065-.216-.056-.28.054-.001.132-.082.139.07l.14.595-1.01.238-.09-.386c.145-.313.344-.585.377-1.017.004-.29-.072-.674-.259-.86-.182-.15-.382.037-.336.353l.005.05.007.054zm2.093 1.236c.198-.054.07-.49.025-.734-.094-.404-.173-.824-.323-1.205-.125-.28-.373-.112-.292.19.088.516.208 1.035.365 1.533.044.14.14.247.225.216zm.043.185c-.228.081-.518-.142-.67-.522-.179-.441-.303-.967-.265-1.421.062-.601.622-.713.93-.172.226.405.349.93.373 1.405.018.39-.138.676-.368.71zm1.26-.491c.198-.055.07-.49.025-.734-.095-.405-.173-.824-.324-1.206-.124-.28-.373-.112-.291.19.088.516.207 1.035.364 1.533.045.14.14.247.225.217zm.043.185c-.229.08-.518-.142-.67-.523-.18-.441-.304-.966-.266-1.42.062-.602.622-.713.931-.172.225.405.348.93.372 1.405.018.39-.138.676-.367.71zm1.14-2.81l.097.415-.73.172c.04.173.08.346.122.52.14-.302.453-.324.703-.105.322.297.452 1.104.187 1.361-.201.207-.481.198-.746.128l-.121-.516c.124-.106.143.141.238.278.175.214.445.088.41-.256-.029-.295-.1-.658-.28-.857-.2-.194-.302.098-.401.217-.07.053-.067-.139-.098-.216l-.222-.942.84-.198z" fill="#fff" font-family="Bitstream Vera Serif" font-size="2.53" font-weight="700"/>
 <path d="M8.463 67.36c-.624-.94.916-.92 1.81-1.186l-1.295-8.87c-.925.173-2.322.854-2.025-.289 1.237-.226 2.61-.745 3.764-.791l9.617 6.08-1.083-7.422c-.923.174-2.313.85-2.016-.291l4.999-1.179c.623.942-.907.929-1.81 1.194l1.432 9.804c-1.118.54-1.713-.05-2.374-.498l-9.172-5.796 1.136 7.781c.918-.168 2.32-.856 2.024.283l-5.007 1.18zm17.255-4.068c-.605-.908.815-.917 1.705-1.162l-1.294-8.87c-.908.184-2.23.813-1.92-.313l11.464-2.704.336 2.3c-1.388.67-1.297-.252-1.36-1.007-.514-.276-1.906.394-2.757.48l-3.81.899.505 3.465 4.664-1.1c-.12-.712-.551-1.562.936-1.561.27 1.049.352 2.299.55 3.425-1.388.67-1.297-.252-1.36-1.008-1.528.333-3.116.731-4.667 1.089l.632 4.33 6.696-1.578c.016-.663-.743-1.67.753-1.676.546.237.266 1.362.499 1.936.028.693-1.779.572-2.526.922l-9.046 2.133zm28.081-6.622c-1.158.452-1.935.374-2.104-.55l-3.95-6.724-2.034 9.182c-1.158.451-1.936.373-2.105-.55l-4.59-7.806c-.989.662-2.265-.1-1.039-.522l4.717-1.112c.595.897-.769.925-1.666 1.16l4.082 6.943 2.02-9.15c1.155-.455 1.914-.359 2.086.555l3.995 6.778 1.857-8.437c-.9.373-2.277.5-1.588-.393l3.941-.929c.812 1.055-1.308.653-1.375 1.44L53.799 56.67zm6.92-2.147l-.345-2.356c1.96-.73 1.57 2.339 4.23 1.36 3.272.19 6.014-4.013 2.14-4.147-2.428-.188-5.932.638-7.023-1.298-1.25-1.907 1.458-4.334 4.264-4.708 1.653-.116 5.285-1.433 4.935.554.706.762-.642 2.025-1.108.927-.967-2.155-7.445-.44-6.419 2.066.762 1.396 3.335.824 5.125.894 2.877-.406 4.967 1.525 3.714 3.7-1.709 2.506-5.916 2.989-8.863 3.026l-.324-.007-.327-.011zm15.71-8.636c1.829-.502 4.515-.66 5.06-2.474.752-2.03-1.68-3.244-4.14-2.23-1.277.113-1.865.531-1.4 1.417l.48 3.287zm-2.98 6.15c-.605-.907.815-.917 1.705-1.162l-1.295-8.869c-.908.184-2.23.812-1.92-.314 2.892-.605 5.783-1.55 8.678-1.842 3.476-.226 4.324 3.603 1.185 5.218-1.62.885-3.501 1.087-5.265 1.56l.553 3.79c.827-.046 2.518-1.025 2.289.065-.437.472-1.89.494-2.71.795l-3.22.76zm13.617-7.089l5.227-1.232-3.331-4.303-1.896 5.535zm-3.478 4.698c-.79-1.053 1.315-.619 1.309-1.52l3.505-10.316c1.142-.432 1.984-.404 2.265.48l5.824 7.554c.981-.661 2.254.103 1.028.518l-4.698 1.107c-.894-1.003 1.478-.778 1.33-1.299l-1.377-1.8-5.99 1.412c-.288.851-.574 1.703-.861 2.554.92-.526 2.361-.219 1.35.441l-3.685.87zm18.29-9.76c1.829-.502 4.515-.66 5.06-2.474.751-2.03-1.68-3.244-4.14-2.23-1.277.113-1.865.532-1.4 1.418l.48 3.286zm-2.98 6.15c-.605-.907.815-.917 1.705-1.161l-1.295-8.87c-.908.184-2.23.813-1.92-.314 2.892-.604 5.782-1.55 8.677-1.842 3.477-.226 4.325 3.603 1.185 5.218-1.62.885-3.5 1.088-5.264 1.56l.553 3.791c.826-.047 2.518-1.025 2.288.064-.436.472-1.888.494-2.71.795l-3.22.76zm13.124-3.094c-.604-.908.816-.917 1.705-1.162l-1.294-8.87c-.908.184-2.23.813-1.92-.314l11.465-2.703.336 2.3c-1.389.67-1.297-.252-1.361-1.007-.514-.276-1.906.393-2.756.48l-3.811.899.505 3.464 4.665-1.1c-.12-.712-.552-1.562.936-1.56.269 1.049.352 2.299.55 3.425-1.389.67-1.298-.252-1.361-1.008-1.528.333-3.116.73-4.666 1.089l.632 4.33 6.696-1.578c.016-.663-.743-1.67.753-1.676.545.237.266 1.362.498 1.936.028.693-1.778.572-2.525.922-3.016.71-6.031 1.422-9.047 2.133zm21.8-10.452c2.18.002 2.8 1.725 4.013 2.708.344.84 1.258.72 2.319.35.872.645-.607.988-1.532 1.122-1.122.424-1.978.4-2.364-.419-1.174-1.005-1.88-2.446-3.592-2.986-.884.135-2.96.222-3.293.853l.56 3.84c.893-.126 2.419-.935 2.115.227-1.815.51-3.855.92-5.756 1.392-.605-.908.815-.917 1.705-1.162l-1.294-8.87c-.908.184-2.23.813-1.92-.313 3.028-.64 6.054-1.606 9.087-1.957 3.315-.247 4.085 3.714.702 4.93l-.361.147-.389.138zm-4.591.653c1.744-.535 4.06-.538 5.128-2.011 1.116-2.001-1.113-3.631-3.71-2.517-.868.289-2.52.23-1.908 1.175l.49 3.353z" font-family="Bitstream Vera Serif" font-size="16.934" font-weight="400"/>
 <g display="block">
  <path d="m8.879 77.153 64.318-14.951c3.185 17.16 5.781 30.986 10.732 45.597l-62.59 14.755c-4.56-15.003-9.275-28.632-12.46-45.401z" fill="url(#p)" stroke="#000" stroke-linecap="round" stroke-linejoin="bevel" stroke-width=".249"/>
  <path d="M59.519 68.622c-4.09 2.026-7.95 4.523-11.772 7.007-9.478 7.046-15.276 17.604-21.67 27.268 2.507-8.755 6.022-17.429 12.042-24.39 1.124-1.793 5.08-8.114.57-5.51-5.353 3.512-10.093 7.91-14.817 12.212-3.216 3.182-6.102 6.844-7.802 11.062 2.627 1.079 4.243-4.39 5.755-6.328 4.353-5.864 10.35-10.136 15.932-14.728-3.158 5.887-8.264 10.645-10.306 17.143-1.627 4.594-3.85 9.051-4.831 13.834-.285 5.47 3.876.156 4.734-2 7.382-11.616 14.473-24.373 26.852-31.394 1.88-1.52 2.81-1.078 1.307 1.064-4.309 7.016-10.021 12.99-14.941 19.549-3.764 5.415-6.26 11.573-8.696 17.663 3.355 2.158 5.691-3.232 8.366-4.626 9.364-8.682 19.59-16.353 29.545-24.33-2.703 5.85-4.407 12.378-9.107 17.06-1.862 2.938-6.751 6.822-4.927 10.312 3.438-1.586 6.75-3.721 10.209-5.447 3.94-2.182 7.813-4.583 11.073-7.72-3.549-.257-5.663 3.797-8.84 5.094-3.198 2.01-6.562 3.74-9.961 5.384.669-3.772 4.008-6.249 5.992-9.348 3.367-4.373 6.129-9.251 8.028-14.414.654-6.188-5.95-.006-7.885 1.726-9.767 7.7-19.485 15.48-28.888 23.627a60.25 60.25 0 0113.395-22.72c4.41-5.412 8.578-11.08 11.737-17.326l-.548.129-.546.147zm-3.234 2.264c-.433-.507.75-.134 0 0z"/>
 </g>
 <path d="m16.648 619.72 678.68-159.91-47.848-180.06-677.42 178.8 46.589 161.17z" fill="url(#q)" fill-rule="evenodd"/>
</svg>
