<?xml version="1.0" encoding="UTF-8"?>
<svg width="106.67" height="106.67" xmlns="http://www.w3.org/2000/svg" xmlns:xlink="http://www.w3.org/1999/xlink">
 <defs>
  <linearGradient id="b">
   <stop stop-color="#00de00" offset="0"/>
   <stop stop-color="#008b00" offset="1"/>
  </linearGradient>
  <linearGradient id="a">
   <stop stop-color="#0064b0" offset="0"/>
   <stop stop-color="#001d54" offset="1"/>
  </linearGradient>
  <linearGradient id="f" x1="14.648" x2="34.828" y1="55.672" y2="77.111" gradientTransform="scale(1.0885 .91873)" gradientUnits="userSpaceOnUse" xlink:href="#a"/>
  <linearGradient id="g" x1="18.528" x2="27.623" y1="34.641" y2="45.372" gradientTransform="scale(1.102 .90745)" gradientUnits="userSpaceOnUse" xlink:href="#a"/>
  <linearGradient id="h" x1="14.887" x2="4.327" y1="22.339" y2="11.382" gradientTransform="matrix(1.2798 -.30322 .17529 .73985 0 0)" gradientUnits="userSpaceOnUse" xlink:href="#b"/>
  <linearGradient id="i" x1="-12.721" x2="-7.866" y1="-26.417" y2="-38.154" gradientTransform="matrix(-1.2798 .30322 -.17529 -.73985 0 0)" gradientUnits="userSpaceOnUse" xlink:href="#b"/>
  <radialGradient id="j" cx="32.162" cy="35.217" r="31.681" gradientTransform="scale(1.0154 .98479)" gradientUnits="userSpaceOnUse">
   <stop stop-color="#fff" stop-opacity=".376" offset="0"/>
   <stop stop-color="#fff" stop-opacity="0" offset="1"/>
  </radialGradient>
 </defs>
 <g fill-rule="evenodd">
  <g stroke="#000040" stroke-width="1.056">
   <path transform="matrix(1.2113 0 0 1.1574 -2.057 9.694)" d="M34.185 28.769c-.493-.102-7.104 1.116-9.473 4.465-1.973 1.218-3.848 7.004-3.058 11.673.986.812 2.861 2.131 3.354 1.827 2.763-5.989-6.512-12.18 9.177-17.965z" fill="#fff" fill-opacity=".25"/>
   <path transform="matrix(1.2113 0 0 1.1574 -2.057 9.694)" d="M27.574 38.918c-1.974 6.192-.099 17.255 2.072 20.909 2.17.71 5.23 1.015 5.92.812.592-5.177-8.19-4.466-7.992-21.72z" fill="#fff" fill-opacity=".25"/>
   <path transform="matrix(1.2113 0 0 1.1574 -2.057 9.694)" d="M5.678 60.436c.086-.922-1.675-6.017 3.07-12.494 7.155-6.974 29.448-7.054 33.347.107 3.898 7.162 3.474 12.437 2.612 13.36-2.628 1.524-4.482 1.984-7.11 2.445 0 0-.648-7.666-1.548-10.382-.038-.093 1.114 4.14 1.547 10.384-.6 6.174-1.2 11.851-1.2 11.851-7.94.793-15.193.948-22.79-.173-.775-.71-2.565-9.139-2.785-12.809-.22-4.237.985-10.23.985-10.23-.258.212-1.2 8.198-.9 10.173-2.025.203-4.797-1.736-5.228-2.232z" fill="url(#f)" stroke-linejoin="round"/>
   <path transform="matrix(1.2113 0 0 1.1574 -2.057 9.694)" d="m33.998 36.196c0 4.634-4.568 8.396-10.196 8.396s-10.196-3.762-10.196-8.396c0-4.635 4.568-8.396 10.196-8.396s10.196 3.761 10.196 8.396z" fill="url(#g)" stroke-linejoin="round"/>
   <path d="M27.31 60.81c10.159-2.702 7.53-13.392 12.071-10.455-.358 2.232-1.792 10.102-12.071 10.455z" fill-opacity=".25" stroke="none"/>
   <path d="M35.557 97.46s5.259.353 5.856-.587c.598-.94 3.347-9.163 1.673-13.157-5.497-4.463 2.032 13.627-7.53 13.744z" fill-opacity=".24" stroke="none"/>
  </g>
  <g stroke="#000040" stroke-width="1.181">
   <path transform="matrix(1.0824 0 0 1.0342 52.26 -24.636)" d="M27.574 38.918c-1.974 6.192-.099 17.255 2.072 20.909 2.17.71 5.23 1.015 5.92.812.592-5.177-8.19-4.466-7.992-21.72z" fill="#fff" fill-opacity=".25"/>
   <path transform="matrix(1.0824 0 0 1.0342 52.26 -24.636)" d="M5.678 60.436c.086-.922-1.675-6.017 3.07-12.494 7.155-6.974 29.448-7.054 33.347.107 3.898 7.162 3.474 12.437 2.612 13.36-2.628 1.524-4.482 1.984-7.11 2.445 0 0-.648-7.666-1.548-10.382-.038-.093 1.114 4.14 1.547 10.384-.6 6.174-1.2 11.851-1.2 11.851-7.94.793-15.193.948-22.79-.173-.775-.71-2.565-9.139-2.785-12.809-.22-4.237.985-10.23.985-10.23-.258.212-1.2 8.198-.9 10.173-2.025.203-4.797-1.736-5.228-2.232z" fill="url(#f)" stroke-linejoin="round"/>
   <path transform="matrix(1.0824 0 0 1.0342 52.26 -24.636)" d="m33.998 36.196c0 4.634-4.568 8.396-10.196 8.396s-10.196-3.762-10.196-8.396c0-4.635 4.568-8.396 10.196-8.396s10.196 3.761 10.196 8.396z" fill="url(#g)" stroke-linejoin="round"/>
   <path d="M78.503 21.042c9.079-2.415 6.729-11.967 10.787-9.343-.32 1.995-1.602 9.028-10.787 9.343z" fill-opacity=".25" stroke="none"/>
   <path d="M85.873 53.793s4.7.315 5.233-.525c.534-.84 2.99-8.188 1.495-11.757-4.913-3.989 1.816 12.177-6.728 12.282z" fill-opacity=".24" stroke="none"/>
  </g>
  <path transform="matrix(3.2272 0 0 3.0836 2.498 4.226)" d="M7.468 14.507c.177.82 3.262 3.137 4.227 2.803.67-.366 4.204-7.082 8.77-6.203.577.359.333 2.873.968 2.838.733.09 3.749-4.711 3.4-5.694-.136-.624-5.866-3.825-6.578-3.377-.553.341 1.8 3.009 1.13 3.31 0 0-12.831.908-11.917 6.323z" fill="url(#h)" stroke="#004000" stroke-width=".396"/>
  <path transform="matrix(3.2272 0 0 3.0836 2.498 4.226)" d="M26.986 16.321c-.177-.82-3.262-3.137-4.227-2.802-.67.365-4.204 7.082-8.77 6.203-.576-.36-.332-2.874-.968-2.838-.732-.091-3.749 4.71-3.399 5.693.135.624 5.865 3.826 6.577 3.378.554-.342-1.8-3.01-1.13-3.311 0 0 12.832-.907 11.917-6.323z" fill="url(#i)" stroke="#004000" stroke-width=".396"/>
 </g>
 <path d="M78.016 4c-6.092 0-11.031 3.895-11.031 8.688 0 3.296 2.403 6.06 5.844 7.532-1.482.275-2.88.604-4.22 1.03-3.373-1.491-6.4-2.616-7.218-2.124-.838.494.435 2.593 1.75 4.75-.461.323-1.053.579-1.437.937a17.281 17.281 0 00-2.75 5.188c-8.959 1.178-25.287 4.35-30.688 11.969-.513-.052-.97-.22-1.5-.22-6.817 0-12.344 4.356-12.344 9.72 0 3.702 2.719 6.797 6.594 8.437-5.12.944-9.76 2.605-12.5 5.156-5.747 7.497-3.614 13.402-3.719 14.47.516.567 3.805 2.735 6.25 2.562-.065-1.28.14-2.64.25-4.032.086-1.302.066-1.94.219-3.25.344-2.535.719-4.468.719-4.468-.138.108-.46 2.244-.719 4.468-.137 1.01-.13 2.128-.219 3.25-.1 1.525-.266 3.34-.156 4.032-.03.002-.064-.003-.094 0v.062c.267 4.248 2.436 14.023 3.375 14.844 7.885 1.112 15.535.998 23.594.406.111 0 .106.002.219 0 1.275-.095 2.479-.094 3.781-.219 0 0 .284-2.855.375-3.687.78-2.567 1.424-5.627.906-8.469.082-.79.074-.749.157-1.562-.107-1.472-.31-2.307-.47-3.563.032.016.064.015.095.031.187 1.668.375 3.532.375 3.532 1.767-.296 3.271-.65 4.78-1.157 3.076 1.318 5.77 2.271 6.532 1.813.916-.54-.626-2.922-2.062-5.281.156-1.179-.04-2.972-.47-5.032 3.304-.254 40.167-3.405 37.345-19.375-.042-.184-.428-.521-.563-.75.89-.07 1.72-.07 2.625-.156 0 0 .263-2.542.344-3.281.683-2.246 1.217-4.877.812-7.406.082-.786.074-.75.157-1.563-.17-2.325-.476-3.95-.75-5.625-.275-1.917-.55-4.007-.938-5.125-.027-.061.45 2.15.938 5.125.414 2.9.75 5.625.75 5.625 2.845-.476 4.842-.955 7.687-2.531.932-.954 1.376-6.406-2.844-13.813-1.801-3.161-7.266-4.883-13.5-5.343 2.79-1.577 4.75-4 4.75-6.907 0-.034-.03-.06-.031-.093.07-.332.214-.778.25-1-.23-.149-.37-.145-.562-.22-.836-4.142-5.189-7.374-10.688-7.374zM64.141 38.25c-.006.552-.143 1.501-.094 1.813-.029.003-.064-.002-.093 0 0 .02-.002.043 0 .063.238 3.795 2.192 12.516 3.03 13.25.781.11 1.539.07 2.313.156-4.956 5.79-11.993 12.387-20.562 11.469-.492-.786-1.262-1.464-2.125-2.094-.625-2.653-.583-6.83-2.094-6.75-.794-.094-2.452 1.77-4.219 4.063-1.997-.502-4.157-.829-6.468-1a10.994 10.994 0 002.937-2.375c1.419.59 2.673.888 3.469.625 1.755-.914 9.645-14.519 20.406-18.25 1.041.511 2.256.916 3.313.843-.03-.565.109-1.174.125-1.78.021-.004.04-.03.062-.032z" fill="url(#j)" fill-rule="evenodd"/>
</svg>
