<?xml version="1.0" encoding="UTF-8"?>
<svg width="128" height="128" version="1.0" xmlns="http://www.w3.org/2000/svg" xmlns:xlink="http://www.w3.org/1999/xlink">
 <defs>
  <linearGradient id="e" x1="67.962" x2="67.962" y1="97.555" y2="128.05" gradientUnits="userSpaceOnUse">
   <stop stop-color="red" offset="0"/>
   <stop stop-color="red" stop-opacity="0" offset="1"/>
  </linearGradient>
  <filter id="d" x="-.227" y="-.232" width="1.454" height="1.464">
   <feGaussianBlur stdDeviation="12.716"/>
  </filter>
  <filter id="f" x="-.037" y="-.834" width="1.074" height="2.668">
   <feGaussianBlur stdDeviation="1.936"/>
  </filter>
  <radialGradient id="c" cx="63.578" cy="62.481" r="55.976" gradientTransform="matrix(1.8022 -.80693 .77043 1.7207 -98.412 8.955)" gradientUnits="userSpaceOnUse">
   <stop stop-color="red" offset="0"/>
   <stop stop-color="red" stop-opacity="0" offset="1"/>
  </radialGradient>
 </defs>
 <path d="M0 0h128v128H0z"/>
 <path transform="matrix(1.1965 0 0 1.1276 -16.637 -15.318)" d="M58 21c-3.465-7.735-13.811-7.703-23-10-7.032-1.758-8 6.059-8 11 0 11.34-1.85 12.466-9 22-3.877 5.169-3.202 10.989-2 17 2.18 10.904 2.587 7.826-3 19-3.436 6.873-6.78 11.439-3 19 7.97 15.94 33.571 6.858 39-4 2.711-5.423 11.436 11.873 12 13 4.032 8.064 14.81 12 24 12 5.316 0 3-16.72 3-21 0-8.44 22.6-3.52 30-5 6.343-1.269-2.39-15.792-4-17-9.42-7.064-13.17-10.152-11-21 1.17-5.847 11.27-10.08 13-17 1.525-6.1 4-9.607 4-17 0-11.11-15.88-5.06-20-3-5.975 2.988-8.42 7.355-15 9-7.004 1.751-11.684-9.368-14-14-3.535-7.07-7.718-2.565-10 2-.87 1.738-2 3.333-3 5z" fill="url(#c)" fill-rule="evenodd" filter="url(#d)" opacity=".689"/>
 <path d="M64 107.813c-16.387 0-30.95 7.947-40.031 20.187h4.75c8.45-10.053 21.112-16.438 35.281-16.438S90.831 117.948 99.281 128h4.75C94.95 115.76 80.387 107.812 64 107.812zm.719 5.093l-6 15.094h4.031l4.031-10.063L69.25 128h3.844L69.5 113.219a45.246 45.246 0 00-4.781-.313z" fill="url(#e)" fill-rule="evenodd"/>
 <path transform="matrix(1.1123 0 0 1.619 -9.525 -57.994)" d="m120.26 101.36a52.173 2.321 0 1 1-104.35 0 52.173 2.321 0 1 1 104.35 0z" filter="url(#f)" opacity=".863"/>
 <path d="M64 6.125c-27.48 0-49.813 22.333-49.813 49.813 0 27.479 22.334 49.812 49.813 49.812 27.48 0 49.813-22.333 49.813-49.813 0-27.479-22.334-49.812-49.813-49.812zm0 3.737c25.457 0 46.075 20.618 46.075 46.076 0 25.457-20.618 46.075-46.075 46.075-25.457 0-46.075-20.618-46.075-46.076C17.925 30.48 38.543 9.862 64 9.862zm20.848 6.628L49.459 46.01l1.46 3.679 33.929-28.293-5.344 21.87 3.358 2.102 6.395-26.25a44.491 44.491 0 00-4.41-2.628zm-46.893 3.358a45.172 45.172 0 00-4.117 3.387l17.315 43.36 3.941-.292-16.643-41.695L57.576 36.55l3.066-2.57-22.687-14.132zm29.812 18.6l-3.066 2.54 38.717 24.176L79.884 66.8l-.934 3.855 27.972-1.957a44.376 44.376 0 001.168-5.08l-40.323-25.17zm9.781 12.964L66.774 95.618l-8.584-21.52-3.942.264 10.482 26.307a44.826 44.826 0 004.76-.32l11.416-46.864-3.358-2.073zm-34.921.292L21.457 69.34a44.632 44.632 0 001.986 5.168l46.98-3.27.935-3.826-45.462 3.125 18.19-15.154-1.46-3.68z" fill="red" fill-rule="evenodd"/>
</svg>
