<svg width="400pt" height="400pt" xmlns="http://www.w3.org/2000/svg"><g fill-rule="evenodd"><path d="M116.165 143.025l54.267 34.765 61.899-121.253h37.308l61.051 113.621-34.765 16.111 94.967 10.175 43.244-66.986-44.092 18.654-71.225-124.644-142.451-1.696-60.203 121.253zM416.888 192.603l-57.488 26.3 72.187 128.477-16.93 34.023-131.107 1.599-.343-38.347-41.92 62.614 43.31 67.43-.568-34.957 140.666.783 63.256-120.888-71.063-127.034zM232.924 439.76l.58-64.008-126.574-.425-19.968-30.88 62.084-122.779 32.034 27.694-40.823-79.503-82.674-9.163L92.34 187.45 21.918 326.106l51.6 113.955 159.406-.3z" fill="#0a0" stroke="#000" stroke-width="10" stroke-linejoin="round"/><path d="M30.525 324.48c-.848 0 56.81-117.861 67.834-133.971-3.392-16.111-44.729-29.997-13.356-21.517 31.373 8.48 50.665-4.769 43.033 31.692-18.654 39.003-49.18 59.354-97.51 123.796z" fill="#fff" fill-opacity=".5"/><path d="M280.026 362.317c-1.696 52.572 29.768 37.713 29.885 44.728.113 5.908-30.097-18.015-30.945 48.123-17.806-25.438-27.133-34.237-27.557-46.638-.424-12.401 10.81-22.895 28.617-46.213zM293.381 89.606s32.221 59.354 43.244 80.552c-5.936 9.327-41.126 14.733-8.057 13.886 44.093 1.696 41.974 13.248 58.933-6.254-.848-27.134-94.968-87.336-94.12-88.184z" fill="#fff" fill-opacity=".498"/></g></svg>