<svg xmlns="http://www.w3.org/2000/svg" xmlns:xlink="http://www.w3.org/1999/xlink" width="128" height="128" version="1.0"><defs><linearGradient id="b"><stop offset="0" stop-color="#fff"/><stop offset="1" stop-color="#fff" stop-opacity="0"/></linearGradient><linearGradient xlink:href="#b" id="p" gradientUnits="userSpaceOnUse" x1="16.345" y1="85.444" x2="31.444" y2="90.444"/><linearGradient xlink:href="#a" id="e" x1="9.869" y1="63.18" x2="113.333" y2="63.18" gradientUnits="userSpaceOnUse"/><linearGradient xlink:href="#a" id="g" x1="90.86" y1="87.072" x2="96.754" y2="99.401" gradientUnits="userSpaceOnUse"/><linearGradient xlink:href="#a" id="f" x1="53.111" y1="120.889" x2="43.333" y2="86.222" gradientUnits="userSpaceOnUse"/><linearGradient xlink:href="#a" id="d" x1="107.85" y1="15.3" x2="112.037" y2="47.974" gradientUnits="userSpaceOnUse"/><linearGradient xlink:href="#a" id="i" x1="100.766" y1="53.079" x2="99.426" y2="29.978" gradientUnits="userSpaceOnUse"/><linearGradient xlink:href="#a" id="h" x1="105.936" y1="31.509" x2="107.467" y2="39.678" gradientUnits="userSpaceOnUse"/><linearGradient id="a"><stop offset="0" stop-color="#fff5ba"/><stop offset="1" stop-color="#fff9d7"/></linearGradient><linearGradient xlink:href="#b" x1="16.345" y1="85.444" x2="31.444" y2="90.444" gradientUnits="userSpaceOnUse"/><filter x="-.19" width="1.379" y="-.18" height="1.361" id="m"><feGaussianBlur stdDeviation="1.035"/></filter><filter id="l"><feGaussianBlur stdDeviation=".559"/></filter><filter x="-.218" width="1.435" y="-.099" height="1.198" id="k"><feGaussianBlur stdDeviation=".999"/></filter><filter x="-.24" width="1.48" y="-.128" height="1.256" id="j"><feGaussianBlur stdDeviation=".711"/></filter><filter id="o"><feGaussianBlur stdDeviation="1.442"/></filter><filter x="-.14" width="1.281" y="-.101" height="1.202" id="n"><feGaussianBlur stdDeviation="1.488"/></filter><filter id="c"><feGaussianBlur stdDeviation="2.421"/></filter></defs><metadata/><path d="M46.122 4.865c-10.17.036-20.296.658-30.344 2.187l-1 .594c-3.728 7.527-3.444 16.242-3.656 24.437.033 10.5.724 21.053 3.53 31.22 2.529 8.735 4.11 15.56 6.126 24.343-4.815.5-9.603 1.298-14.375 2.594-1.929 3.871-.923 8.555-.094 12.625 2.093 8.095 4.773 15.954 12.031 20.718.052.008.105.025.157.032l-.125.093c21.507.918 44.076 1.091 64.53 0 1.86-.099 3.71-.192 5.532-.312 7.29-.482 14.243-1.144 20.75-2l1.688-.5a14.647 14.647 0 002.906-3.281c.26-.4.523-.8.75-1.22.907-1.675 1.551-3.5 2.094-5.405-3.092-14.385-14.199-25.62-17.688-39.938-1.39-4.663-2.018-9.337-2.125-14.031 4.903-.579 9.734-1.659 14.656-1.688 6.505-4.345 9.501-12.636 9-21.062-1.292-7.997-1.427-15.017-7.343-24-22.088-2.664-44.628-5.486-67-5.406z" fill-rule="evenodd" filter="url(#c)" fill-opacity=".665"/><path d="M110.786 9.174l6.126 16.975c.95 6.744 1.7 13.451-1.021 19.528-3.543 7.364-5.094 6.76-7.02 7.658l-17.486 2.297 6.637-36.758 12.764-9.7z" fill="url(#d)" fill-rule="evenodd"/><path d="M14.667 6.222c17.505-1.908 35.241-2.196 53.11-1.555l42.445 4.666-9.333 12.223c-4.684 10.296-5.55 20.592-7.111 30.888-.25 9.42 2.345 17.575 5.333 25.556l14.222 31.333c-.899 3.257-.94 6.758-4.222 9.334l-14 2L24.89 122 19.11 80.889l-8.667-32.667c.362-11.955-2.533-23.16 2.035-36.085l2.188-5.915z" fill="url(#e)" fill-rule="evenodd"/><path d="M5.111 89.556l18.222-3.112 29.778-.888 37.817-.696c-2.021 5.63-.299 11.26 0 16.889 3.563 9.037 9.792 13.631 16.405 17.584l-48 3.334-41.555-.445c-5.148-3.112-8.109-9.347-11.556-14.889-.846-5.978-2.434-12.04-1.11-17.777z" fill="url(#f)" fill-rule="evenodd"/><path d="M90.918 84.522c8.18 4.902 7.903 9.437 10.725 14.106l-11.305.773-1.256-11.015 1.836-3.864z" fill="url(#g)" fill-rule="evenodd"/><path d="M109.892 41.337l-7.275 1.149 3.574-13.274c3.865 2.614 4.276 7.428 4.467 12.38l-.766-.255z" fill="url(#h)" fill-rule="evenodd"/><path d="M106.063 29.084L103 43.252c1.214 5.111 2.552 9.788 5.105 10.21l-14.678 1.404 2.553-18.89 2.042-6.764 8.041-.128z" fill="url(#i)" fill-rule="evenodd"/><path d="M44.342 3.52c-10.17.037-20.295.68-30.343 2.21l-1.012.583c-3.728 7.527-3.438 16.256-3.65 24.452.032 10.499.72 21.035 3.527 31.201 2.529 8.736 4.12 15.578 6.136 24.36-4.814.501-9.617 1.281-14.389 2.577-1.928 3.872-.92 8.571-.092 12.64 2.093 8.096 4.8 15.945 12.058 20.71.051.007.102.024.153.03l-.123.092c31.283 1.335 64.784 1.107 90.813-2.318l1.688-.504c3.13-2.6 4.652-6.1 5.737-9.91-3.092-14.384-14.214-25.597-17.703-39.915-1.39-4.663-2.01-9.357-2.117-14.051 4.903-.579 9.743-1.659 14.665-1.688 6.505-4.345 9.49-12.62 8.99-21.046-1.293-7.997-1.416-15.008-7.333-23.992-22.087-2.663-44.632-5.51-67.005-5.43zM38.85 5.148c23.574-.028 47.424 2.582 70.135 5.062-7.904 5.927-10.43 14.439-12.15 21.2-2.625 12.878-6.055 26.104-1.441 38.933 4.415 13.945 13.864 25.808 16.966 40.099-.236 3.67-2.19 6.482-4.786 8.283-7.46-4.602-13.565-10.357-16.046-18.899 3.5-.03 7.742-.177 10.769-.89-1.61-6.179-5.64-11.236-10.861-14.695l-.062.061c-16.474.688-35.577.338-52.033.982-5.963.162-11.852.308-17.702.798-1.924-9.01-5.362-15.838-7.486-24.82-2.424-10.215-3.881-20.576-3.59-31.11.127-8.068 1.008-16.678 4.878-23.992 7.745-.695 15.553-1.003 23.41-1.012zm71.884 5.43c3.537 7.198 5.995 15.132 6.381 23.164.207 6.944-.855 15.763-7.823 18.868-4.39-1.852-5.143-5.614-5.339-9.818 2.327-.63 5.417-1.278 7.271-.215-1.42-4.74.335-9.28-4.261-14.221-2.344.032-5.68.09-8.072-.045 2.018-6.345 6.362-13.038 11.843-17.733zm-5.891 19.942c-1.988 7.349-4.634 16.214 1.074 22.611-3.723.313-8.583.715-10.922.86.235-8.137 1.289-16.354 3.497-24.207 2.198-.205 4.284-.019 6.351.736zm1.565-.03c2.996.832 3.283 6.034 3.344 9.204-1.612 1.447-3.83.856-5.86 1.748-.072-3.757 1.513-7.376 2.516-10.952zM90.76 85.314c5.608 1.79 6.962 7.764 9.265 12.824-2.907.455-5.828.89-8.774.644-1.175-4.467-1.78-8.853-.491-13.468zm-1.994.03c-1.195 5.636-.373 11.437 1.687 16.752 2.338 6.785 7.84 13.248 14.634 16.782-29.767 1.868-56.743 4.057-87.039 2.607-6.954-3.932-10.223-13.494-12.088-20.709-.785-3.373-1.243-6.802-.705-10.247 11.088-2.213 21.773-4.44 33.257-3.835 15.855-.26 34.2-1.03 50.254-1.35z"/><path d="M16.556 8.613c-2.45.736-1.881 4.012-1.151 5.83.213 1.102 1.416 2.306 2.394 1.197.654-.484 1.06-1.661 1.308-2.017.467 1.737 2.683 1.059 3.389-.129.62-.422 1.45-2.643 1.326-.829.1 1.675 1.163 4.472 3.315 3.62 1.127-.525 1.601-1.815 2.864-2.119.842-.78-.626-1.519-1.326-.838-.771.033-2.144 1.642-2.09.286-.37-1.479-.68-3.548-2.22-4.209-1.477.163-2.246 1.884-3.37 2.551-.146-1.138-1.017-2.953-2.413-2.044-.629.262-1.035 1.89-1.188 1.51-.282-.87.374-2.672-.838-2.809zm32.306.848c-1.954.48-2.323 2.853-3.417 4.088-.922-1.09-2.375-2.08-3.914-1.473-.934.347-2.373 1.007-2.891-.286-1.493-.702-3.244.51-4.67 1.106-.969.35-2.436 1.81-1.086 2.633 1.477.381 1.69-1.934 2.873-1.666 1.758-.937 3.516 2.161 5.185.35.687-1.193 1.84.6 2.8.8 1.528 1.02 3.605.154 4.015-1.574.213-.484.284-2.23 1.086-1.28 1.183 1.196 2.24 2.628 3.5 3.674.659 2.2 3.385 2.2 5.01 1.127 1.62-.81 3.228-1.948 4.825-2.573 1.226 1.059 1.803 3.909 3.942 3.168 1.382-.614 1.53-2.548 3.195-2.79 1.78-.813 3.811-.396 5.268.903 1.61.912 2.931 3.128 4.918 2.928 2.304-.942 4.37-2.355 6.63-3.297 1.027 1.834 1.807 4.326 3.905 5.167 1.595.049 1.307-1.923.46-2.69-1.172-1.798-2.301-4.794-4.899-4.595-1.827.346-2.297 2.65-4.216 2.843-.927.679-2.196.799-2.958-.19-1.672-1.74-3.741-3.906-6.41-3.307-2.034.5-4.255 1.02-5.967 2.431-1.401.666-1.17-2.048-2.542-1.869-3.129-.528-5.338 2.695-8.334 2.597-1.365-2.554-3.836-4.312-5.906-6.162l-.273-.091-.13.028zM22.238 21.948c-2.49.137-3.479 3.13-4.678 4.568-1.434-1.175-2.942 2.654-.921 2.643 2.702-.557 3.084-4.252 5.424-5.323 1.148.21 1.006 1.993 2.293 2.118 1.929.682 3.836 1.633 4.964 3.398 2.132.718 3.779-1.347 5.083-2.652 1.095-.05 2.079-1.458 3.417-1.013 2.95.522 5.177 3.544 8.28 3.297 1.146-.326 1.175-1.955-.029-2.238-1.697-.78-3.86-.759-4.991-2.431-2.542-1.713-5.681.24-7.837 1.704-.818.94-2.723 2.155-3.555.59-.875-2.163-3.788-1.856-5.286-3.473-.625-.659-1.114-1.39-2.164-1.188zm46.221.783c-1.931.177-2.378 2.588-3.555 3.546-1.013-.901-1.476-3.13-3.297-2.588-1.532.262-2.715 2.516-4.337 1.832-1.176-1.738-3.42-.704-4.853.11-.924.62-1.531-.332-2.155-.8-1.46.257-1.568 2.641.055 2.726 1.57.266 3.331-.185 4.522-1.216 1.665 2.125 4.65.785 6.326-.617.973 2.002 4.165 3.527 5.756 1.363.73-.72.662-2.211 1.428-2.698 1.164 1.64 2.154 4.83 4.77 4.116 1.985-.377 3.168-2.368 5.019-2.892 1.32.324 1.424 2.253 2.892 2.487 1.559.514 4.327-.186 4.613 2.09.225 1.863 2.56 2.029 3.684.866.776-.702 2.406-1.678 1.778-2.864-1.225-.728-1.884 1.324-2.883 1.354-1.357-1.074-2.208-4.079-4.485-3.233-1.05 1.095-1.761-.779-2.689-1.289-1.269-1.417-3.809-2.09-5.037-.249-.477 1.305-2.211 2.417-3.454 1.262-1.484-.879-2.161-3.403-4.098-3.306zm17.69 10.848c-3.438 2.476-7.96.417-11.686 1.824-1.318 1.927-3.928-.672-5.479.985-.492 1.445 1.82 1.648 2.882 1.547 2.552-.332 5.07-2.118 7.663-1.013 2.34.32 4.663-1.767 6.888-.681.848.696 1.194 2.232 2.597 1.584 1.592-.654.063-2.414-.801-2.984-.655-.365-1.22-1.56-2.063-1.262zm-33.06.525c-3.752 1.04-7.694 3.75-11.64 1.98-1.464-.348-2.682 1.439-4.053 1.013-.553-.656-1.005-1.958-1.989-1.003-1.512.94-.247 2.882 1.179 2.956 1.301.395 3.001.034 3.647-1.271 2.583.463 5.692 1.664 7.957-.35 2.823-1.969 6.327-.687 9.264.184 2.205-.854 4.963-.365 6.88-1.842.466-1.607-1.902-.914-2.8-.764-2.117.537-4.693 1.243-6.502-.405-.597-.283-1.272-.563-1.943-.498zm-24.303.627c-2.915.884-6.028 2.373-9.062 1.263-.56.72-1.897 1.091-2.616.256.08-.692.04-1.792-1.013-1.243-2.076.654-1.116 4.13.977 3.628 1.423-.53 3.23-1.42 4.623-.386 1.485 1.049 2.912-.999 4.273-1.299 1.219.764 2.917-.589 3.564-1.648-.07-.405-.36-.584-.746-.571zm22.47 8.38c-2.18.497-4.293 1.674-6.023 2.975-.46-1.311-2.401-1.154-3.545-1.198-1.135-.156-2.22 1.447-.829 1.934 1.27.516 3.198.466 4.126-.165.441 1.464 1.847-.418 2.661-.617 3-1.47 6.396-.351 9.523.009 1.197.163 2.34-1.646.847-2.118-2.256-.196-4.56-.325-6.76-.82zM37.01 45.229c-2.23 1.46-5.103.645-7.57 1.28-3.415-.224-7.16-2.322-10.416-.24-.586 1.016-2.605-.546-2.708 1.216.12 1.97 2.596.708 3.638.194 1.428-.917 3.11-.562 4.531.156 3.642 1.069 7.558.382 11.198-.165.8-.604 2.499-1.232 2.054-2.395-.242-.009-.494-.3-.727-.046zm13.362 5.885c-2.458 1.768-5.65-.735-8.196.801-.734 1.393 1.663 1.657 2.652 1.814 3.208.18 6.58-1.67 9.609.04 3.732.807 7.598.585 11.36.623.886-.057 3.192-.759 1.971-1.915-4.146-.316-8.465.374-12.561-.71-1.565-.334-3.234-.999-4.835-.653zM37.25 53.048c-2.246 2.704-6.665 3.549-9.301 1.04-3.423-1.588-6.604 1.4-9.79 2.201-1.82.066-.666 1.855.608 1.262 2.869-.242 5.727-3.194 8.61-1.483 1.547 1.851 4.26 2.23 6.327 1.023 1.537-.593 3.033-2.305 4.743-1.455 1.142-.005 2.24-.925 2.745-1.86-.423-1.204-1.469.386-2.275-.332-.55-.165-1.067-.583-1.667-.396zm43.274 5.866c-1.984.256-2.757 2.554-4.034 3.555-1.087-.294-1.888 1.06-3.048 1.022-2.762.692-5.462-.854-8.076-1.29-2.128 1.199-4.18-1.73-6.428-.68-2.396 1.196-5.726.383-8.077 1.906-.399-1.788-2.76-2.278-3.96-.93-.735.803-1.058 1.406-1.528.091-.38-1.067-2.263-1.45-2.284.019.106 1.647.22 4.45 2.459 4.448 1.665-.11 1.725-2.26 2.495-3.122.87.614.929 3.093 2.266 1.805 2.063-1.726 5.248-.952 7.45-2.376 1.084.743 3.23-.991 3.757.507 1.487 1.469 4.011-1.069 5.498.709 1.743 1.653 4.64.99 6.723.285 1.018-.332 1.777-1.148 2.809-.783 1.783-.106 2.698-2.366 3.647-3.13.773 3.638 5.468 4.603 8.555 3.499.907-.274 2.405-1.467 1.326-2.34-2.092 1.068-4.907 1.307-6.667-.561-.939-.888-1.258-2.8-2.883-2.634zM31.55 61.226c-3.18 1.022-6.011 2.896-8.869 4.512-1.296.024-1.715-2.923-3.186-1.612-1.584 1.835 1.149 4.19 3.048 3.251 2.88-.81 4.882-3.544 7.79-4.116 2.232-.414 3.879 1.31 5.674 2.22 1.374.358 3.623-1.177 2.744-2.635-1.024-.812-2.156.905-3.122-.22-1.264-.646-2.585-1.599-4.08-1.4zm21.116 9.255c-1.956 1.298-3.84 3.163-4.208 5.59-.159.666-1.596.126-2.082-.166-1.21-.805-2.855-1.381-4.171-.534-1.517-1.119-3.214.474-4.762.01-.637-.537-1.296-.627-1.989-.167-1.497-.101-2.644-1.958-4.319-1.28-2.696.338-5.273 1.523-7.68 2.625-.736 1.1.867 1.735 1.694 1.133 1.629-.355 2.888-1.715 4.476-2.017 1.878-.026 3.716 1.822 5.488.994 1.352-.466 2.723 1.828 4.117.553.576-.772 1.304.675 2.192.24.748.037 1.753-.967 2.228-.774.954 2.409 4.11 1.94 5.729.525 1.175-1.195 2.128-2.77 2.753-4.467.978.717 3.255-.118 2.229-1.464-.45-.44-1.012-.966-1.695-.801zm38.66 2.247c-1.647 0-2.392 1.83-3.766 2.238-1.17-.853-2.302.072-3.232.948-.65.55-2.122 1.48-2.515.212-2.083-2.112-5.299-2.254-7.946-3.083-2.99 1.743-6.582 1.095-9.698.016-1.18-.2-2.383.175-3.426.313-1.049 1.418-3.447-.35-4.2 1.336-.058 1.994 2.648 1.666 3.601.562.605-.559 1.156-.7 1.824-.23 2.5.26 5.103 1.338 7.57.837 1.538.797 2.849-1.19 4.236-.985.97.937 2.711.558 3.85 1.473 2.135 1.217 5.062 3.143 7.376 1.17.73-.226 1.11-2.078 1.694-.94 1.83.965 3.218-1.494 4.67-2.237.67-.327 2.277-.924.939-1.603-.325 0-.652-.05-.976-.027zm-15.987 7.257c-2.128.669-2.523 3.494-4.448 4.319-1.271-.448-1.78-2.266-3.38-2.174-1.69-.027-3.292.737-4.963.387-1.786.862-3.283-1.384-4.973-1.667-2.166-.407-4.346.465-6.536.5-2.045.091-3.955 1-5.86 1.471-2.886-.257-6.228-1.322-8.785.608-1.407-.516-3.194-.055-4.255.967-.294 1.202 1.07.76 1.667.737 2.895.913 5.974-2.483 8.666-.433 3.496.79 6.536-2.493 10.038-1.63.864-.508 1.874-.905 2.873-.341 1.278.59 2.733.526 3.776 1.51 2.165 1.008 4.634.023 6.833-.24.815-1.001 1.773.728 2.394 1.134 1.02 1.405 3.32 1.909 4.32.202.94-.806 1.552-2.25 2.385-2.947.79 2.506 3.988 2.336 6.073 1.902 2.645-.562 5.3-.679 7.97-.539 1.885.119 4.301.896 5.867-.515-.365-1.341-2.337-1.241-3.536-1.446-3.01-.02-6.03.222-9.025.423-2.071.438-4.959.865-6.088-1.436-.226-.382-.447-.964-1.013-.792z" fill="#5b4d00"/><path d="M110.786 9.174l6.126 16.975c.95 6.744 1.7 13.451-1.021 19.528-3.543 7.364-5.094 6.76-7.02 7.658l-17.486 2.297 6.637-36.758 12.764-9.7z" fill="url(#d)" fill-rule="evenodd"/><path d="M106.667 28.667L109.777 42l4-.444c-1.6-9.204-4.313-9.745-7.11-12.89z" fill-rule="evenodd" fill-opacity=".667" filter="url(#j)"/><path d="M109.892 41.337l-7.275 1.149 3.574-13.274c3.865 2.614 4.276 7.428 4.467 12.38l-.766-.255z" fill="url(#h)" fill-rule="evenodd"/><path d="M105.333 29.333c-1.728 8.586-7.809 17.24 3.111 24.223l4.667-3.112c-10.915-2.141-5.793-13.716-7.778-21.11z" fill-rule="evenodd" fill-opacity=".667" filter="url(#k)"/><path d="M14.667 6.222c17.505-1.908 35.241-2.196 53.11-1.555l42.445 4.666-9.333 12.223c-4.684 10.296-5.55 20.592-7.111 30.888-.25 9.42 2.345 17.575 5.333 25.556l14.222 31.333c-.899 3.257-.94 6.758-4.222 9.334l-14 2L24.89 122 19.11 80.889l-8.667-32.667c.362-11.955-2.533-23.16 2.035-36.085l2.188-5.915z" fill="url(#e)" fill-rule="evenodd"/><path d="M106.063 29.084L103 43.252c1.214 5.111 2.552 9.788 5.105 10.21l-14.678 1.404 2.553-18.89 2.042-6.764 8.041-.128z" fill="url(#i)" fill-rule="evenodd"/><path d="M110.444 9.778c-16.673 28.842-10.122 34.709-9.555 44.666l-7.778-.888c5.351-32.079 9.868-35.258 17.333-43.778z" fill-rule="evenodd" fill-opacity=".667" filter="url(#l)"/><path d="M16.563 8.625c-2.45.736-1.887 3.995-1.157 5.813.213 1.102 1.428 2.296 2.406 1.187.654-.484 1.034-1.644 1.282-2 .467 1.737 2.7 1.063 3.406-.125.62-.422 1.437-2.658 1.313-.844.1 1.674 1.16 4.478 3.312 3.625 1.127-.524 1.612-1.821 2.875-2.125.842-.78-.613-1.493-1.313-.812-.77.032-2.147 1.637-2.093.281-.37-1.479-.68-3.558-2.219-4.219-1.477.163-2.25 1.895-3.375 2.563-.146-1.139-1.01-2.972-2.406-2.063-.629.262-1.035 1.911-1.188 1.531-.282-.87.368-2.675-.843-2.812zM49 9.438l-.125.03c-1.954.482-2.344 2.86-3.438 4.095-.922-1.09-2.367-2.107-3.906-1.5-.934.346-2.387 1.011-2.906-.282-1.492-.703-3.231.529-4.656 1.125-.97.35-2.444 1.802-1.094 2.625 1.477.381 1.693-1.923 2.875-1.656 1.758-.936 3.518 2.156 5.188.344.687-1.193 1.852.58 2.812.781 1.529 1.02 3.59.165 4-1.563.214-.483.292-2.23 1.094-1.28 1.183 1.196 2.24 2.64 3.5 3.687.658 2.2 3.375 2.198 5 1.125 1.62-.81 3.246-1.97 4.843-2.594 1.226 1.058 1.8 3.928 3.938 3.188 1.382-.615 1.523-2.571 3.188-2.813 1.779-.813 3.824-.392 5.28.906 1.61.912 2.92 3.138 4.907 2.938 2.305-.943 4.365-2.34 6.625-3.282 1.026 1.835 1.808 4.316 3.906 5.157 1.595.049 1.315-1.922.469-2.688-1.173-1.798-2.309-4.792-4.906-4.593-1.828.345-2.3 2.651-4.219 2.843-.928.68-2.175.802-2.938-.187-1.672-1.74-3.769-3.912-6.437-3.313-2.035.5-4.257 1.027-5.969 2.438-1.401.665-1.16-2.055-2.531-1.875-3.13-.528-5.348 2.691-8.344 2.594-1.365-2.554-3.836-4.306-5.906-6.157L49 9.437zM22.594 21.905a1.55 1.55 0 00-.344.032c-2.49.136-3.488 3.156-4.688 4.593-1.433-1.175-2.957 2.636-.937 2.625 2.702-.557 3.097-4.242 5.438-5.312 1.147.21.993 2 2.28 2.125 1.93.682 3.842 1.61 4.97 3.375 2.131.717 3.788-1.351 5.093-2.657 1.095-.05 2.068-1.444 3.407-1 2.95.522 5.179 3.529 8.28 3.282 1.147-.326 1.173-1.937-.03-2.219-1.698-.78-3.837-.765-4.97-2.438-2.541-1.712-5.687.255-7.843 1.72-.818.94-2.73 2.128-3.563.562-.875-2.163-3.783-1.853-5.28-3.469-.548-.576-1.008-1.205-1.813-1.219zm45.875.813c-1.932.177-2.386 2.604-3.563 3.562-1.013-.9-1.491-3.136-3.312-2.593-1.532.261-2.69 2.527-4.313 1.843-1.176-1.738-3.441-.72-4.875.094-.923.619-1.532-.313-2.156-.781-1.459.257-1.56 2.634.063 2.718 1.57.267 3.34-.188 4.53-1.218 1.666 2.125 4.637.777 6.313-.625.973 2.001 4.159 3.539 5.75 1.375.73-.72.672-2.232 1.438-2.719 1.165 1.64 2.165 4.838 4.781 4.125 1.985-.377 3.149-2.351 5-2.875 1.32.324 1.438 2.235 2.906 2.469 1.56.513 4.338-.183 4.625 2.093.225 1.863 2.533 2.038 3.656.875.777-.701 2.41-1.688 1.782-2.875-1.225-.728-1.877 1.314-2.875 1.344-1.357-1.073-2.192-4.065-4.469-3.218-1.05 1.095-1.76-.772-2.688-1.282-1.268-1.417-3.834-2.091-5.062-.25-.476 1.305-2.195 2.405-3.438 1.25-1.484-.879-2.157-3.41-4.093-3.312zm18 10.812a.859.859 0 00-.313.063c-3.44 2.475-7.961.405-11.687 1.812-1.319 1.928-3.949-.688-5.5.969-.492 1.445 1.843 1.663 2.906 1.563 2.551-.333 5.064-2.106 7.656-1 2.34.319 4.65-1.774 6.875-.688.848.696 1.191 2.21 2.594 1.563 1.592-.654.083-2.4-.781-2.97-.574-.319-1.068-1.278-1.75-1.312zm-33.375.563c-3.752 1.039-7.71 3.769-11.657 2-1.463-.348-2.66 1.425-4.03 1-.555-.657-1.017-1.955-2-1-1.513.94-.24 2.895 1.187 2.968 1.301.396 2.98.024 3.625-1.28 2.583.463 5.704 1.67 7.968-.344 2.824-1.969 6.345-.684 9.282.187 2.205-.854 4.958-.367 6.875-1.844.467-1.607-1.914-.931-2.813-.781-2.117.537-4.69 1.243-6.5-.406-.597-.283-1.267-.566-1.937-.5zm-24.313.625c-2.914.884-6.028 2.39-9.062 1.281-.56.72-1.907 1.085-2.625.25.079-.692.052-1.799-1-1.25-2.077.654-1.124 4.126.968 3.625 1.424-.531 3.233-1.41 4.625-.375 1.486 1.05 2.921-1.012 4.282-1.313 1.219.765 2.916-.565 3.562-1.624-.07-.405-.364-.607-.75-.594zm70.125 4.812c-1.114.182-1.902 1.101-2.531 1.969-.273.232-.02.416.188.188.504-.134.997-.453 1.156-.97.366-.474.752.125.844.47.44.501 1.025.048 1.406-.25.521.176.211 1.001.344 1.437.128.388-.29 1.227.25 1.313.534-.165 1.078-.543.906-1.188-.04-.558.046-1.132-.063-1.688-.04-.376-.142-.934-.656-.75-.47.24-1.187.56-1.406-.156-.1-.167-.23-.354-.438-.375zM51.25 43.125c-2.18.497-4.302 1.668-6.031 2.969-.461-1.311-2.388-1.176-3.532-1.219-1.134-.156-2.234 1.45-.843 1.938 1.27.515 3.228.474 4.156-.157.442 1.464 1.842-.425 2.656-.625 3-1.47 6.373-.329 9.5.032 1.198.163 2.368-1.653.875-2.126-2.256-.196-4.582-.317-6.781-.812zm-14.063 2a.298.298 0 00-.187.094c-2.23 1.46-5.095.646-7.563 1.281-3.414-.224-7.15-2.302-10.406-.219-.586 1.015-2.616-.543-2.718 1.219.119 1.97 2.614.702 3.656.188 1.428-.918 3.11-.563 4.531.156 3.642 1.068 7.547.36 11.188-.188.8-.603 2.507-1.212 2.062-2.375-.182-.007-.382-.181-.563-.156zm61.063 2.531c-1.05.282-2.147.78-2.688 1.782-.338.249.107.406.282.156.52-.114.92-.445 1.094-.938.43-.397.766.194 1 .5.338.401.632.838.906 1.282.467.437 1.218.175 1.625-.22.471-.472.658-1.111.969-1.687.1-.145.214-.65-.094-.375-.52.127-1.073.514-1.125 1.094-.016.363-.494.565-.563.094-.408-.608-.829-1.226-1.406-1.688zm-47.281 3.375c-.202.014-.394.05-.594.094-2.458 1.768-5.642-.755-8.188.781-.734 1.393 1.668 1.656 2.657 1.813 3.208.18 6.564-1.647 9.593.062 3.733.808 7.613.587 11.376.625.885-.057 3.189-.781 1.968-1.937-4.146-.316-8.467.396-12.562-.688-1.37-.293-2.837-.85-4.25-.75zM37.469 53c-.073.012-.144.04-.219.063-2.246 2.704-6.676 3.54-9.313 1.03-3.422-1.588-6.595 1.387-9.78 2.188-1.822.066-.65 1.875.624 1.282 2.869-.242 5.71-3.211 8.594-1.5 1.546 1.85 4.277 2.238 6.344 1.03 1.536-.592 3.008-2.318 4.718-1.468 1.142-.004 2.245-.908 2.75-1.844-.422-1.203-1.474.375-2.28-.343-.413-.124-.795-.391-1.22-.438a.822.822 0 00-.218 0zm43.062 5.906c-1.984.256-2.754 2.562-4.031 3.563-1.088-.294-1.903 1.07-3.063 1.031-2.762.692-5.447-.877-8.062-1.313-2.127 1.199-4.19-1.706-6.438-.656-2.395 1.197-5.71.384-8.062 1.907-.399-1.788-2.77-2.285-3.969-.938-.735.804-1.06 1.408-1.531.094-.379-1.067-2.26-1.47-2.281 0 .106 1.646.199 4.47 2.437 4.468 1.666-.11 1.73-2.262 2.5-3.124.87.614.945 3.1 2.282 1.812 2.062-1.726 5.235-.951 7.437-2.375 1.085.743 3.223-.998 3.75.5 1.486 1.469 4.013-1.09 5.5.688 1.743 1.653 4.668 1.018 6.75.312 1.018-.332 1.75-1.147 2.781-.781 1.783-.106 2.708-2.392 3.656-3.156.774 3.638 5.476 4.603 8.563 3.5.907-.275 2.391-1.44 1.313-2.313-2.093 1.068-4.896 1.306-6.657-.563-.938-.887-1.25-2.821-2.875-2.656zm-48.437 2.282a2.888 2.888 0 00-.532.03c-3.18 1.023-6.017 2.916-8.875 4.532-1.296.024-1.715-2.937-3.187-1.625-1.584 1.835 1.132 4.189 3.031 3.25 2.88-.81 4.904-3.553 7.813-4.125 2.231-.413 3.861 1.31 5.656 2.219 1.375.359 3.629-1.167 2.75-2.625-1.024-.813-2.159.907-3.125-.219-1.106-.565-2.26-1.379-3.531-1.438zm20.812 9.25c-.081 0-.164.01-.25.03-1.956 1.3-3.82 3.168-4.187 5.594-.159.667-1.609.136-2.094-.156-1.21-.805-2.84-1.378-4.156-.531-1.517-1.119-3.234.465-4.782 0-.637-.536-1.275-.617-1.968-.156-1.498-.102-2.67-1.96-4.344-1.281-2.696.337-5.249 1.522-7.656 2.624-.736 1.101.86 1.728 1.687 1.126 1.629-.355 2.881-1.698 4.469-2 1.878-.026 3.728 1.796 5.5.968 1.351-.466 2.7 1.837 4.094.563.576-.773 1.3.685 2.187.25.749.038 1.774-.974 2.25-.781.954 2.408 4.1 1.947 5.719.53 1.176-1.194 2.125-2.772 2.75-4.468.978.717 3.276-.123 2.25-1.469-.393-.384-.898-.847-1.469-.844zm38.407 2.28c-1.648 0-2.376 1.843-3.75 2.25-1.171-.852-2.32.062-3.25.938-.65.55-2.108 1.486-2.5.219-2.084-2.112-5.29-2.265-7.938-3.094-2.989 1.743-6.602 1.11-9.719.031-1.179-.2-2.363.174-3.406.313-1.048 1.417-3.467-.343-4.219 1.344-.058 1.994 2.672 1.667 3.625.562.605-.558 1.145-.72 1.813-.25 2.5.26 5.096 1.344 7.562.844 1.538.797 2.863-1.173 4.25-.969.97.937 2.706.553 3.844 1.469 2.135 1.217 5.062 3.129 7.375 1.156.73-.226 1.104-2.075 1.688-.937 1.83.964 3.236-1.507 4.687-2.25.67-.328 2.276-.915.938-1.594-.325-.001-.676-.055-1-.031zm-15.782 7.25c-.06 0-.117.01-.187.032-2.128.669-2.545 3.487-4.469 4.313-1.271-.448-1.776-2.28-3.375-2.188-1.691-.027-3.298.756-4.969.406-1.786.862-3.278-1.405-4.968-1.687-2.167-.407-4.342.465-6.532.5-2.044.092-3.939.997-5.843 1.469-2.887-.258-6.224-1.306-8.782.624-1.406-.515-3.22-.053-4.281.97-.294 1.201 1.09.74 1.688.718 2.895.913 5.965-2.488 8.656-.438 3.496.79 6.53-2.488 10.031-1.624.864-.508 1.876-.908 2.875-.344 1.278.59 2.738.547 3.781 1.531 2.166 1.008 4.645.012 6.844-.25.815-1.002 1.754.72 2.375 1.125 1.02 1.405 3.344 1.925 4.344.219.94-.806 1.542-2.273 2.375-2.969.79 2.505 3.977 2.34 6.062 1.906 2.645-.562 5.299-.67 7.969-.531 1.884.119 4.309.911 5.875-.5-.365-1.341-2.332-1.264-3.531-1.469-3.01-.02-6.036.236-9.031.438-2.071.437-4.965.864-6.094-1.438-.198-.334-.389-.81-.813-.812zm20.219 23.5c-1.976.508-2.38 2.797-3.688 4.032-1.663.84-3.381-.586-4.28-1.906-1.97.62-3.766 1.12-5.438 1.531a97.09 97.09 0 017.812 1.344c2.176-.184 3.994-1.89 4.688-3.906 1.553.093 1.835 2.623 3.656 2.25 1.444.118 2.765-3.192 3.406-.844.252 1.123 2.2 1.736 2.438.5-1.37-.726-2.605-2.83-4.281-1.188-1.225 2.186-2.73-.785-3.876-1.594-.137-.09-.29-.145-.437-.218zm-13.406 3.657c-18.693-2.385-18.04 4.427 0 0zm22.312 4c-1.525.931-3.18 1.119-4.937 1.281-1.592.483-3.203 1.129-4.906 1.063-17.898-1.272-7.206 2.504 2.468.125 1.746-.85 3.801-.319 5.5-1.156.665-.38 1.241-.887 1.875-1.313z" fill="#5b4d00"/><path d="M91.556 85.111c4.592.041 10.518 5.641 13.11 13.111l-7.333.667-5.777-13.778z" fill-rule="evenodd" fill-opacity=".667" filter="url(#m)"/><path d="M90.918 84.522c8.18 4.902 7.903 9.437 10.725 14.106l-11.305.773-1.256-11.015 1.836-3.864z" fill="url(#g)" fill-rule="evenodd"/><path d="M90.889 86.667c.42 10.95 3.454 21.877 20.222 29.777-4.114 5.67-12.571 3.741-18.889 5.556-6.161-12.657-10.375-25.015-1.333-35.333z" fill-opacity=".667" fill-rule="evenodd" filter="url(#n)"/><path d="M5.111 89.556l18.222-3.112 29.778-.888 37.817-.696c-2.021 5.63-.299 11.26 0 16.889 3.563 9.037 9.792 13.631 16.405 17.584l-48 3.334-41.555-.445c-5.148-3.112-8.109-9.347-11.556-14.889-.846-5.978-2.434-12.04-1.11-17.777z" fill="url(#f)" fill-rule="evenodd"/><path d="M44.342 3.52c-10.17.037-20.295.68-30.343 2.21l-1.012.583c-3.728 7.527-3.438 16.256-3.65 24.452.032 10.499.72 21.035 3.527 31.201 2.529 8.736 4.12 15.578 6.136 24.36-4.814.501-9.617 1.281-14.389 2.577-1.928 3.872-.92 8.571-.092 12.64 2.093 8.096 4.8 15.945 12.058 20.71.051.007.102.024.153.03l-.123.092c31.283 1.335 64.784 1.107 90.813-2.318l1.688-.504c3.13-2.6 4.652-6.1 5.737-9.91-3.092-14.384-14.214-25.597-17.703-39.915-1.39-4.663-2.01-9.357-2.117-14.051 4.903-.579 9.743-1.659 14.665-1.688 6.505-4.345 9.49-12.62 8.99-21.046-1.293-7.997-1.416-15.008-7.333-23.992-22.087-2.663-44.632-5.51-67.005-5.43zM38.85 5.148c23.574-.028 47.424 2.582 70.135 5.062-7.904 5.927-10.43 14.439-12.15 21.2-2.625 12.878-6.055 26.104-1.441 38.933 4.415 13.945 13.864 25.808 16.966 40.099-.236 3.67-2.19 6.482-4.786 8.283-7.46-4.602-13.565-10.357-16.046-18.899 3.5-.03 7.742-.177 10.769-.89-1.61-6.179-5.64-11.236-10.861-14.695l-.062.061c-16.474.688-35.577.338-52.033.982-5.963.162-11.852.308-17.702.798-1.924-9.01-5.362-15.838-7.486-24.82-2.424-10.215-3.881-20.576-3.59-31.11.127-8.068 1.008-16.678 4.878-23.992 7.745-.695 15.553-1.003 23.41-1.012zm71.884 5.43c3.537 7.198 5.995 15.132 6.381 23.164.207 6.944-.855 15.763-7.823 18.868-4.39-1.852-5.143-5.614-5.339-9.818 2.327-.63 5.417-1.278 7.271-.215-1.42-4.74.335-9.28-4.261-14.221-2.344.032-5.68.09-8.072-.045 2.018-6.345 6.362-13.038 11.843-17.733zm-5.891 19.942c-1.988 7.349-4.634 16.214 1.074 22.611-3.723.313-8.583.715-10.922.86.235-8.137 1.289-16.354 3.497-24.207 2.198-.205 4.284-.019 6.351.736zm1.565-.03c2.996.832 3.283 6.034 3.344 9.204-1.612 1.447-3.83.856-5.86 1.748-.072-3.757 1.513-7.376 2.516-10.952zM90.76 85.314c5.608 1.79 6.962 7.764 9.265 12.824-2.907.455-5.828.89-8.774.644-1.175-4.467-1.78-8.853-.491-13.468zm-1.994.03c-1.195 5.636-.373 11.437 1.687 16.752 2.338 6.785 7.84 13.248 14.634 16.782-29.767 1.868-56.743 4.057-87.039 2.607-6.954-3.932-10.223-13.494-12.088-20.709-.785-3.373-1.243-6.802-.705-10.247 11.088-2.213 21.773-4.44 33.257-3.835 15.855-.26 34.2-1.03 50.254-1.35z"/><path d="M81.998 18.79c-10.067.138-20.426.271-29.327 5.381-16.942 8.03-18.239 31.421-22.291 47.763-3.398 14.376-4.99 30.66-12.479 42.633 3.46-.722 6.884-1.58 9.317-4.69 2.411-6.073 3.247-11.56 3.738-17.031 7.997-7.221 17.422-11.782 28.831-11.951l1.052-1.41c-11.453 1.047-21.3 3.794-29.658 10.557.186-2.512.353-5.034.597-7.635C39.836 75.06 53.552 70.522 63.44 69.68l1.465-.98c-11.068.89-23.996 3.513-32.805 10.846.313-2.57.74-5.235 1.403-8.026 9.27-6.464 22.517-11.086 33.287-12.696l1.432-.95C56.156 59.544 44.36 61.6 34.158 68.302c.413-2.128.798-4.358 1.197-6.63 10.308-7.272 24.891-10.99 37.14-11.659l.652-.995c-13.432 1.233-26.18 2.67-37.378 10.362.44-2.446.939-4.94 1.491-7.395 11.593-10.042 23.774-14.283 39.33-12.722v-1.064c-15.476-.832-27.167 1.64-38.67 11.038.774-3.029 1.7-5.987 2.884-8.754 9.172-6.077 25.273-12.542 38.988-12.21l-.522-.719c-13.592.652-24.49 2.888-36.516 8.972 2.164-3.789 4.998-7.053 8.806-9.383 8.275-5.724 20.318-8.255 30.45-7.475l-.012-.877z" filter="url(#o)" transform="translate(-8 9)"/><path d="M72.443 27.346c-10.067.138-20.427.271-29.328 5.38-16.942 8.03-18.238 31.422-22.29 47.764-3.399 14.375-4.99 30.659-12.48 42.632 3.46-.721 6.884-1.58 9.318-4.689 2.41-6.074 3.247-11.56 3.738-17.031C29.397 94.18 38.823 89.62 50.23 89.45l1.052-1.41c-11.453 1.048-21.3 3.794-29.658 10.557.187-2.511.353-5.034.598-7.634 8.057-7.347 21.773-11.885 31.661-12.727l1.465-.98c-11.067.89-23.995 3.512-32.805 10.846.313-2.571.741-5.235 1.403-8.027 9.27-6.464 22.517-11.085 33.287-12.695l1.433-.95C46.6 68.098 34.804 70.155 24.602 76.857c.414-2.128.798-4.358 1.197-6.63 10.309-7.272 24.892-10.99 37.14-11.66l.653-.994c-13.432 1.233-26.18 2.67-37.379 10.362.44-2.446.939-4.94 1.492-7.395 11.592-10.043 23.773-14.284 39.33-12.723l-.001-1.064c-15.476-.832-27.167 1.64-38.67 11.039.775-3.029 1.7-5.988 2.885-8.755 9.172-6.077 25.272-12.541 38.987-12.21l-.522-.718c-13.591.652-24.49 2.887-36.515 8.972 2.164-3.79 4.997-7.053 8.805-9.383 8.276-5.724 20.318-8.255 30.45-7.476l-.011-.877z"/><path d="M80.443 18.346c-10.067.138-20.427.271-29.328 5.38-16.942 8.03-18.238 31.422-22.29 47.764-3.399 14.375-4.99 30.659-12.48 42.632 3.46-.721 6.884-1.58 9.318-4.689 2.41-6.074 3.247-11.56 3.738-17.031C37.397 85.18 46.823 80.62 58.23 80.45l1.052-1.41c-11.453 1.048-21.3 3.794-29.658 10.557.187-2.511.353-5.034.598-7.634 8.057-7.347 21.773-11.885 31.661-12.727l1.465-.98c-11.067.89-23.995 3.512-32.805 10.846.313-2.571.741-5.235 1.403-8.027 9.27-6.464 22.517-11.085 33.287-12.695l1.433-.95C54.6 59.098 42.804 61.155 32.602 67.857c.414-2.128.798-4.358 1.197-6.63 10.309-7.272 24.892-10.99 37.14-11.66l.653-.994c-13.432 1.233-26.18 2.67-37.379 10.362.44-2.446.939-4.94 1.492-7.395 11.592-10.043 23.773-14.284 39.33-12.723l-.001-1.064c-15.476-.832-27.167 1.64-38.67 11.039.775-3.029 1.7-5.988 2.885-8.755 9.172-6.077 25.272-12.541 38.987-12.21l-.522-.718c-13.591.652-24.49 2.887-36.515 8.972 2.164-3.79 4.997-7.053 8.805-9.383 8.276-5.724 20.318-8.255 30.45-7.476l-.011-.877z" fill="url(#p)" transform="translate(-8 9)"/></svg>