<svg xmlns="http://www.w3.org/2000/svg" xmlns:xlink="http://www.w3.org/1999/xlink" width="128" height="128" version="1.0"><defs><linearGradient id="a"><stop offset="0" stop-color="#735017"/><stop offset="1" stop-color="#93651d"/></linearGradient><linearGradient xlink:href="#a" id="d" x1="233" y1="184.362" x2="187" y2="101.362" gradientUnits="userSpaceOnUse" gradientTransform="matrix(.38514 0 0 .38514 -.28 41.711)"/><linearGradient xlink:href="#a" id="c" x1="221.692" y1="147.219" x2="164.314" y2="67.219" gradientUnits="userSpaceOnUse" gradientTransform="matrix(.38514 0 0 .38514 -.28 41.711)"/><linearGradient xlink:href="#a" id="b" x1="174.221" y1="106.763" x2="136.711" y2="54.502" gradientUnits="userSpaceOnUse" gradientTransform="matrix(.38514 0 0 .38514 -.28 41.711)"/></defs><metadata/><path d="M53.087 55.456c-2.934 4.825-2.769 10.638-4.55 15.815-1.625 3.003-5.625 3.266-8.57 4.128-4.402 1-7.464.762-12.407 2.118-2.446.45-2.652 2.945-3.99 4.972-1.127 2.622.112 5 1.95 6.422 2.902 2.924 4.988 3.452 9.268 2.451 5.71-.632 10.87-3.742 16.71-3.64 4.42-.575 9.017-.437 13.348-1.358 3.313-1.441 5.475-4.68 7.582-7.462 2.17-3.265-.553-6.824-2.612-9.327-3.664-5.431-9.02-9.325-14.61-12.578-.874-.217-1.706-2.798-2.12-1.541z" fill="url(#b)"/><path d="M76.123 71.343c-1.004.141-3.305-.132-3.326.581 2.483 2.924-.107 6.895-2.15 9.264-2.857 3.975-7.72 6.353-12.698 6.042-6.117.65-12.457.439-18.198 2.925-4.323 1.13-9.647 2.904-13.612-.265-2.373-1.632-.912-4.736-3.047-6.647-4.476.478-7.678 5.494-9.304 8.788-1.588 4.116 2.252 8.289 5.13 10.786 4.703 3.665 10.952 6.256 16.966 4.92 8.199-1.122 15.69-2.569 23.742-4.209 4.356-.07 9.07-.796 13.416-1.602 5.513-.258 11.211-1.553 15.37-5.38 3.542-2.885 7.17-6.468 8.1-11.097.058-4.649-3.832-8.052-6.969-10.976-2.899-2.612-6.853-3.535-10.688-3.122-.91-.012-1.821-.028-2.732-.008z" fill="url(#c)"/><path d="M96.079 78.745c-1.583.368.138 1.82.385 2.612 2.277 4.104-1.251 8.49-4.097 11.288-5.35 5.778-12.97 9.469-20.942 9.474-4.18.643-8.368.841-13.353 1.91-9.026 1.658-16.99 3.2-26.192 3.879-3.505-.234-6.661-1.699-9.923-2.922-1.782-.582-5.328-4.826-6.802-5.513-4.495-.181-6.866 6.483-6.152 10.682 1.269 2.72 7.558 6.708 10.78 7.541 11.26.056 17.854.467 25.995 1.414 13.807.428 27.76-1.26 41.238-4.486 9.175-2.283 17.137-9.294 19.878-18.448 1.563-3.916 3.678-9.305.281-12.833-2.986-2.576-7.055-4.638-11.096-4.598z" fill="url(#d)"/><path d="M54.165 52.285c-1.838.95-4.472 9.858-4.608 12.192.166 1.98-.54 6.669-2.919 8.315-4.043 2.791-12.77 3.042-15.945 3.343-3.465.264-7.125 2.734-7.39 6.434-5.478-.425-10.394 6.951-10.555 12.724-.312 2.007.438 2.358 1.345 3.515-2.27 1.18-6.816 6-5.764 11.285 1.247 3.344 8.12 7.768 11.324 8.067 3.493.632 20.568 1.585 24.012 1.827 6.427.783 35.903-2.567 44.128-4.164 6.14-1.55 8.259-4.235 11.97-6.63 3.21-2.024 5.485-7.041 6.876-10.59 1.236-3.243 2.785-6.43 3.361-9.877.349-2.273-.128-5.036-2.259-6.296-2.53-2.03-5.062-4.457-8.435-4.864-1.578-.279-3.245-.265-4.765.287-1.946-2.034-3.898-4.143-6.284-5.664-1.986-1.252-4.393-1.647-6.696-1.308-3.073.093-6.61-.257-9.648.49-2.206-3.018-4.403-5.884-7.33-8.263-2.638-2.292-5.177-4.82-8.2-6.544-1.702-.874-1.714-3.232-2.218-4.28zm-.74 3.348c1.305 2.165 3.945 2.883 5.847 4.394 3.54 2.27 6.756 5.07 9.218 8.495 1.633 2.124 3.582 4.2 4.312 6.836.462 2.788-1.884 4.999-3.557 6.91-1.602 1.902-3.518 3.974-6.199 4.058-4.885.416-9.769.852-14.654 1.277-3.912.296-7.374 2.41-11.25 2.896-2.9.695-6.143 1.177-8.85-.434-2.602-1.413-2.882-1.85-3.993-4.865-.346-1.858.038-4.663 1.866-5.551 1.147-1.66 3.367-2.174 5.277-2.647 4.368.106 14.145-1.17 16.898-4.628 1.557-1.865 2.163-9.248 2.867-11.219.596-1.885 1.303-3.78 2.218-5.522zm27.61 16.1c4.522-.312 8.39 2.66 11.192 5.905 2.157 2.317 4.558 5.355 3.756 8.738-1.993 5.377-6.592 9.28-11.273 12.331-5.834 3.628-24.053 4.036-27.711 5.06-4.808 1.207-23.056 4.945-27.879 3.432-5.207-1.212-10.314-3.855-13.349-8.399-1.92-2.144-2.159-6.484-.363-8.737 1.344-2.015 3.11-5.823 7.579-5.935.04 3.394 3.169 7.388 7.381 7.94 2.822.17 5.609-.583 8.345-1.182 3.09-.923 6.087-2.33 9.372-2.374 4.389-.434 8.783-.894 13.183-1.088 3.917-.497 7.319-2.916 9.676-5.998 1.598-1.833 4.453-6.365 1.922-9.5 2.13-.339 6.09-.145 8.168-.193zm15.895 7.421c3.116.102 5.96 1.7 8.557 3.298 2.083 1.282 3.412 3.668 3.094 6.141-.256 3.991-2.232 7.576-3.572 11.27-2.939 6.546-9.815 11.549-14.836 13.368-12.842 4.748-40.034 6.044-46.607 5.272-3.483-.513-17.727-.544-23.624-1.342-4.505-.676-9.74-5.375-10.729-7.172.685-7.734 4.64-9.746 5.69-10.168 2.991 4.16 10.71 7.02 15.203 8.34 4.045 1.034 21.844-2.406 26.806-3.612 3-.852 15.645-2.162 18.932-2.434 8.15-1.204 15.21-6.47 20-12.994 1.6-2.262 2.46-5.41.955-7.941-.29-1.168-2.247-2.281.131-2.026zM99.172 14.438c-6.117.498-11.731 5.725-12.01 11.971 1.181 6.02 9.159 8.776 11.735 14.047.686 3.065-4.776 6.14-3.44 9.192.75 1.455-.695 3.752-1.252 3.92 2.843.1 5.9-3.058 4.415-5.875-1.486-2.943 2.714-5 1.903-7.936-1.89-4.785-8.881-7.517-10.813-12.301-1.603-3.301.775-7.562 3.99-9.702 1.694-1.336 3.909-1.802 5.472-3.316zM67.59 18.29c-2.89.536-5.904 3.36-4.98 6.51 1.243 3.598 6.207 4.887 7.306 8.558-.316 2.76-5.32 5.24-4.491 8.243 1.283 3.05 4.265 5.123 5.126 8.39 2.506 1.006 3.04-1.04 1.977-2.964-1.538-2.01-5.076-3.15-5.02-6.156-.016-2.928 5.486-6.367 4.307-9.524-1.836-3.021-6.81-4.044-7.088-7.842-.647-1.3 1.186-4.855 2.863-5.215zm-35.048 5.006c-3.187-.221-7.144 1.814-7.147 5.385-.063 4.086 5.13 5.776 7.28 8.802 1.332 2.592-1.866 7.054-4.654 7.844-2.613 1.861-1.937 5.76.039 7.828 1.062 1.842 4.093 4.93 6.042 2.459.819-2.208-3.402-2.569-4.674-3.982-1.726-1.433.081-5.268 1.429-6.946 2.416-1.505 5.35-3.702 4.086-6.995-.795-2.678-5.3-4.084-6.624-6.461-1.341-1.867-.093-4.952 2.051-6.484.67-.56 1.436-.984 2.172-1.45zm92.771 17.73c-5.81 1.238-12.289 1.594-16.973 5.689-2.362 2.354-.689 6.03 1.3 8.033 1.55 2.64.755 3.456-1.172 5.204-2.355.893-3.677 8.844-.445 7.027 1.437-2.512 1.54-5.721 3.8-7.765 2.058-1.82.653-4.325-1.437-6.36-1.19-1.754-.375-5.176 1.524-6.908 2.585-2.127 6.226-1.134 9.17-2.38 1.579-.506 3.096-1.315 4.233-2.54zM6.16 49.618c-3.517.026-.557 4.622 2.286 3.522 2.638 2.066.421 6.814.317 9.619.209 3.518 4.95 5.365 6.006 8.46.845 2.34-4.811 4.869-1.92 6.308 2.532-.378 3.119-3.147 4.066-5.1.907-2.3-.916-4.121-2.894-5.64-2.295-1.728-3.926-4.364-3.182-7.134.971-3.022 1.269-7.359-1.73-8.416-.994-.518-2.022-.982-2.949-1.62z"/></svg>