<?xml version="1.0" encoding="UTF-8"?>
<svg width="106.67" height="106.67" xmlns="http://www.w3.org/2000/svg" xmlns:xlink="http://www.w3.org/1999/xlink">
 <defs>
  <linearGradient id="c">
   <stop stop-color="#d0d0d0" offset="0"/>
   <stop stop-color="#a6a3a3" offset="1"/>
  </linearGradient>
  <linearGradient id="a">
   <stop stop-color="#eeeeef" offset="0"/>
   <stop stop-color="#eeeeef" stop-opacity="0" offset="1"/>
  </linearGradient>
  <linearGradient id="f" x1="68.289" x2="25.701" y1="51.917" y2="24.944" gradientTransform="scale(.89256 1.1204)" gradientUnits="userSpaceOnUse" xlink:href="#c"/>
  <linearGradient id="g" x1="67.512" x2="63.214" y1="22.576" y2="37.499" gradientTransform="scale(1.0181 .98223)" gradientUnits="userSpaceOnUse" xlink:href="#a"/>
  <linearGradient id="h" x1="31.621" x2="46.099" y1="89.566" y2="60.886" gradientTransform="scale(1.0181 .98223)" gradientUnits="userSpaceOnUse" xlink:href="#a"/>
  <linearGradient id="d">
   <stop stop-color="#fded00" offset="0"/>
   <stop stop-color="#eaa600" offset="1"/>
  </linearGradient>
  <linearGradient id="n" x1="38.696" x2="28.947" y1="-68.063" y2="-60.323" gradientTransform="scale(.9105 1.0983)" gradientUnits="userSpaceOnUse" xlink:href="#d"/>
  <linearGradient id="i" x1="71.452" x2="60.567" y1="-29.097" y2="-16.187" gradientTransform="scale(1.0029 .99712)" gradientUnits="userSpaceOnUse" xlink:href="#c"/>
  <linearGradient id="j" x1="39.07" x2="22.69" y1="-77.68" y2="-57.829" gradientTransform="scale(1.0122 .98792)" gradientUnits="userSpaceOnUse" xlink:href="#d"/>
  <linearGradient id="k" x1="88.667" x2="75.682" y1="-4.448" y2="-17.167" gradientTransform="scale(.98568 1.0145)" gradientUnits="userSpaceOnUse" xlink:href="#a"/>
  <linearGradient id="l" x1="89.202" x2="88.669" y1="-6.358" y2="-6.878" gradientTransform="scale(.9542 1.048)" gradientUnits="userSpaceOnUse">
   <stop stop-color="#fff" offset="0"/>
   <stop stop-color="#fff" stop-opacity="0" offset="1"/>
  </linearGradient>
  <linearGradient id="m" x1="24.321" x2="14.759" y1="-76.386" y2="-65.391" gradientTransform="scale(1.1521 .86795)" gradientUnits="userSpaceOnUse" xlink:href="#d"/>
  <linearGradient id="o" x1="22.235" x2="29.839" y1="-64.578" y2="-74.328" gradientTransform="scale(1.019 .9814)" gradientUnits="userSpaceOnUse" xlink:href="#d"/>
 </defs>
 <path transform="rotate(9.141 51.449 50.457)" d="M64.66 6.061c-4.83 1.976-8.618 6.253-9.678 11.757-.673 3.493-.092 6.917 1.339 9.9-3.895 8.121-19.113 29.07-26.331 36.588-6.581.93-12.171 5.856-13.497 12.74-1.006 5.227.712 10.32 4.096 13.932l2.098-10.894a4.99 4.99 0 015.855-3.964l7.917 1.525a4.99 4.99 0 013.964 5.855l-2.186 11.354c4.83-1.977 8.619-6.253 9.679-11.757.842-4.372-.202-8.667-2.544-12.074 5.39-9.026 18.947-28.336 26.036-34.225 7.218-.328 13.57-5.527 14.996-12.929 1.007-5.228-.711-10.32-4.095-13.932L80.21 20.831a4.99 4.99 0 01-5.855 3.964l-7.917-1.525a4.99 4.99 0 01-3.965-5.855L64.661 6.06z" fill="url(#f)" stroke="#606060" stroke-linecap="round" stroke-linejoin="round" stroke-width="1.25"/>
 <path transform="rotate(9.141 51.449 50.457)" d="M63.934 7.289c-4.83 1.976-7.335 5.45-8.395 10.954-.672 3.493-.092 6.757 1.34 9.74 2.685 3.948 7.516 6.622 13.802 8.277 7.219-.328 13.571-4.403 14.997-11.805 1.007-5.228.412-10.321-2.972-13.932l-2.098 10.894a4.99 4.99 0 01-5.855 3.964l-8.88-1.685a4.99 4.99 0 01-3.965-5.856L63.934 7.29z" fill="url(#g)"/>
 <path transform="rotate(9.141 51.449 50.457)" d="M39.02 94.502c4.83-1.977 7.495-6.253 8.555-11.757.673-3.493.092-6.757-1.34-9.74-2.685-3.948-7.516-6.622-13.802-8.277-7.218.328-13.571 4.403-14.996 11.805-1.007 5.228-.413 10.321 2.971 13.932l2.098-10.894a4.99 4.99 0 015.856-3.964l8.88 1.685a4.99 4.99 0 013.964 5.856l-2.187 11.354z" fill="url(#h)"/>
 <g fill-rule="evenodd">
  <path transform="translate(1.25 92.5)" d="M42.78-42.4L48-48.447l28.715 29.401c2.519 1.375 4.236-.14 6.594 1.717 2.451 2.083 4.1 5.61 6.71 8.976l-5.862 6.07c-3.764-2.626-8.972-4.61-10.167-7.237-1.376-1.702 1.101-3.725-.435-5.267L42.78-42.4z" fill="url(#i)" stroke="#606060" stroke-width="1.141"/>
  <path transform="translate(1.25 92.5)" d="M49.787-50.094c.515-1.916-4.266-2.227-7.121-5.267-6.8-6.131-18.415-27.511-22.967-29.63C8.952-90.409-1.635-81.702 4.312-70.428 7.3-65.348 27.945-56.094 36.07-48.446c2.306 2.29 3.81 8.431 5.474 7.832 3.71-2.037 7.26-5.678 8.243-9.48z" fill="url(#j)" stroke="#aa4200" stroke-width="1.141"/>
  <path transform="translate(1.25 92.5)" d="M75.243-19.042c2.519 1.375 5.038.02 7.397 1.877 2.45 2.083 4.26 5.289 6.87 8.656l-5.702 5.588c-3.763-2.627-7.848-4.29-9.043-6.916-1.375-1.702-.183-5.17-1.72-6.712l2.198-2.493z" fill="url(#k)"/>
  <path d="M82.938 73.906c-2.224.097-4.26 1.028-5.844 2.818-1.585 1.79-2.688 4.526-2.688 4.526l.742.977s.415-3.44 1.92-5.14c1.506-1.701 5.235-2.348 6.703-2.412l-.834-.769z"/>
  <path transform="translate(1.25 92.5)" d="M83.788-2.408l5.94-6.1S87.96-9.63 87.96-10.432c0-.803-6.099 5.939-6.099 5.939.321 1.123 1.605 1.123 1.926 2.086z" fill="url(#l)"/>
  <path transform="translate(1.25 92.5)" d="M7.384-68.379s-2.087-1.284-.16-3.531c1.925-2.247 32.102 20.385 26.644 21.027-9.63-6.902-24.237-15.89-26.484-17.496z" fill="url(#m)"/>
  <path transform="translate(1.25 92.5)" d="M18.377-79.777c-1.765-3.21.803-3.852 3.21-2.729 3.05 2.729 16.052 22.633 17.818 24.238.16 3.692-19.102-17.657-21.028-21.51z" fill="url(#n)"/>
  <path transform="translate(1.25 92.5)" d="M13.064-74.22c-2.132-2.98-.11-4.998 2.414-4.166 3.153 2.05 23.096 23.318 21.967 24.167-.528.918-22.014-16.403-24.381-20z" fill="url(#o)"/>
 </g>
</svg>
