<svg xmlns="http://www.w3.org/2000/svg" width="128" height="128" version="1.0"><metadata/><path d="M38.158 12.4c-4.628.584-4.684 3.584-4.271 6.63.413 3.046 1.254 13.313 2.28 18.75.81 3.93 5.713 21.347 5.506 23.987 1.25 9.388-1.268 20.644-1.619 22.496 5.98-9.576 12.18-10.87 24.328-12.622.96-2.729 1.783-4.476 3.27-7.925-.37.143.089-.538-.33-.425-.704.085.596-3.762.596-9.65 0-5.89 4.645-36.404 4.025-42.808.24-5.113-4.906-5.75-8.006-3.923-3.1 1.827-4.751 24.808-5.371 28.463-.62 3.655-.743 27.454-2.568 27.522-3.303-1.023-2.66-9.061-4.131-13.505-.827-4.874-6.27-27.282-6.476-30.328-.207-3.046-1.53-6.817-7.233-6.663zm40.657 38.535c-2.755.153-6.146 4.122-6.146 4.122s-4.711 9.759-7.35 16.776c2.563-.163 4.972-.228 6.274-.31 3.948-.246 3.586 4.13 2.6 5.86-.335.585.19 2.19-1.503 3.365 5.513-2.452 9.895-18.704 9.895-18.704s1.197-1.056-.777-8.223c-.617-2.24-1.74-2.956-2.993-2.886zm5.347 10.736c-.09.265-.192.362-.192.362s-5.34 17.93-10.811 19.588c-1.914 2.372-6.075 5.581-10.438 5.997-5.182.494-4.282 1.513-4.282 1.513s2.037-1.62-2.898 3.323c-1.979 1.983-1.968 2.021-2.694 2.737 13.954 1.379 16.06 11.759 17.99 16.35.918.92 1.045 2.808.97 3.632 2.114.881 5.585 1.867 13.727 3.597s11.571-2.763 11.324-7.953c-.236-4.977 3.356-27.517.192-33.967-4.724 6.02-12.87 14.547-14.678 15.753-2.22 1.483-8.964-3.657-7.658-7.744 0 0 12.04-21.388 14.507-21.388.747-.396 1.903-.559 3.164-.468-1.338-.294-2.628-.354-3.59-.15-4.891.015-3.506 1.286-4.633-1.182zm9.288 1.95c-1.266-.093-2.425.07-3.174.468-2.468 0-13.826 20.515-13.826 20.515-1.48 3.213 3.702 7.66 5.922 6.178 2.221-1.483 13.578-13.842 17.032-19.28 2.59-5.07-2.156-7.604-5.954-7.882zM70.91 72.556c-3.947.247-16.175.222-21.569 3.824-7.31 4.142-12.084 12.667-12.366 12.814-5.428 4.943 1.973 21.506 4.687 26.202 3.207 6.179 17.511 4.69 26.394 3.206 1.727-1.235 4.44-3.704 1.725-6.423-1.96-4.664-4.655-15.168-19.204-16.275-.002.007-.02.026-.021.032l.127.096s-.161.065-.127-.096l-.054-.043c-.073-.005-.14-.016-.213-.02-.014-.06-.008-.093-.021-.15l.234.17c.024.002.051.01.075.011.097-.313.784-1.301 3.802-4.324 4.935-4.943.991-4.197.991-4.197s.496-.496 5.677-.99c5.182-.495 10.613-6.43 11.6-8.16.987-1.73 2.211-5.924-1.737-5.677z" fill="#999" fill-rule="evenodd"/></svg>