<svg xmlns="http://www.w3.org/2000/svg" width="128" height="128" version="1.0"><defs><filter id="a" x="-.155" width="1.311" y="-.61" height="2.221"><feGaussianBlur stdDeviation="3.809"/></filter></defs><metadata/><path d="M57.29 53.582c-2.002 2.25-4.486 2.772-6.236 7.163-.398 2.364-.713 5.935-.455 7.208-1.828 2.907-1.381 5.298-.685 8.396-1.915 2.852-4.954 4.198-6.538 7.405-1.043 1.607-2.975 1.045-4.455 2.134-1.36 1.49.395 1.415 1.345 1.273.417.793-4.726 4.585-2.376 4.88.148.597 2.841-2.219 3.689-3.147-.34.443-2.912 3.74-1.823 4.858.903.032 2.599-2.446 3.625-3.892-.945 1.75-1.737 2.645-1.127 3.969.5 1.086 2.15-2.099 2.275-2.332.565-1.045 1.07-1.99 1.398-3.06.115-.372.635-.418 1.335-.91 3.044-2.253 5.874-5.678 6.495-9.357 2.295-.982 2.768-1.85 4.59-3.535 3.576-3.36 5.955-8.35 6.642-13.034.587-4.06-1.927-9.997-7.699-8.02z" fill="#e9c6af" fill-rule="evenodd" stroke="#4c1413" stroke-width="1.0003572"/><path d="M71.644 47.896c-.348 1.034.61 2.445 1.013 3.252 2.908.46 5.648 2.04 8.219 3.817 2.73 5.555 6.098 17.61-3.3 17.665-5.645-1.67-13.041 1.273-18.107-1.79-3.21-1.187.014-2.981-1.137-5.877-.272-1.091-.344-2.198-.344-3.357 1.24-1.402.417-4.917.996-6.707.745-1.907 1.968-1.46 3.615-1.29 1.874-.975 1.333-2.288 2.772-4.18.635-2.966 4.68-4.709 6.273-1.533z" fill="#e9c6af" fill-rule="evenodd" stroke="#4c1413" stroke-width="1.0003572"/><path d="M342.679 433.606c-5.881-.67-12.061-.663-17.555 1.825-3.396 1.432-6.876.028-10.23-.462-6.38 2.941-.882 8.948 3.431 10.487 9.21.113 18.512 4.39 27.398 1.062 5.273-1.547 10.542 1.677 15.863.465 3.81-3.044 4.818-4.94 9.241-8.737.372-3.86-4.95-4.124-7.509-5.439-6.77 1.17-13.613 1.065-20.64.799z" fill-opacity=".783" fill-rule="evenodd" filter="url(#a)" transform="matrix(.9684 0 0 .9684 -271.086 -309.732)"/><path d="M57.904 110.67c-.948 0-1.433 2.45-2.615 3.042-3.74 1.508-7.842.56-6.996 4.12 2.48-.604 7.362.101 8.95-2.771 1.628-.945 3.04-1.088 4.884-1.31.311.864-.26 1.072-.618 2.205 1.438.103 1.594.423 2.155.085 1.137-.683 2.188.399 2.511-.895.277-1.11-.014-2.74-.223-3.58-.354-1.416-.042-2.157-1.565-2.461-2.555-.45-4.385.264-6.483 1.566z" fill="#1a1a1a" fill-rule="evenodd" stroke="#000" stroke-width="1.0003572"/><path d="M57.35 87.636c1.613 1.957-1.11 8.466-1.518 11.393-1.134 4.083 1.762 7.696 1.974 11.688 1.868.866 5.786-.388 7.652-1.381-1.414-5.087-4.19-10.768 1.598-16.842 1.543-1.549 1.998-5.149 1.926-7.287-1.974-1.226-5.172-.67-7.6-.67-2.286-.037.72-6.23-4.033 3.099z" fill="#1c0443" fill-rule="evenodd" stroke="#0b001c" stroke-width="1.0003572"/><path d="M66.807 110.052c-.27 2.429-1.427 3.914-3.314 5.542-1.703 1.551-1.032 4.3-3.13 5.37 2.083 2.812 6.59.395 8.27-1.566.628-.837.404-2.597.895-3.58.319-.639 1.74-1.294 2.235-1.79.744-.745 1.341-1.852 1.341 0 0 1.016.224 1.901.224 3.132.71 1.068 1.163-1.657 2.459-4.028 0-1.23-.49-2.277-.704-3.132-2.068-2.759-6.804-3.341-8.276.052z" fill="#1a1a1a" fill-rule="evenodd" stroke="#000" stroke-width="1.0003572"/><path d="M67.022 86.78c1.613 1.957-1.966 8.38-2.374 11.307-1.133 4.084 1.762 7.696 1.974 11.689 1.868.865 5.786-.388 7.652-1.382-1.414-5.086-1.878-13.592 3.91-19.666 1.543-1.549-.313-2.325-.385-4.462-1.975-1.227-5.172-.671-7.6-.671-2.287-.036-1.766 1.653-3.177 3.185z" fill="#1c0443" fill-rule="evenodd" stroke="#0b001c" stroke-width="1.0003572"/><path d="M55.354 8.37c-8.363 4.424-4.089 7.952-3.978 12.607 0 2.379-.17 4.929-.17 7.308.066 2.252.222 4.288-.272 6.49-.805 2.038-.87 3.37-.984 5.533.215 2.667 5.304 3.723 6.94 3.256-1.688.707-6.59-.162-6.854-2.627-1.05 8.685 2.515 8.954 3.992 9.3 4.902 1.878 13.778.077 18.563-2.141 4.556-3.75 4.26-8.318 5.083-13.56.068-6.963.088-15.87-2.873-22.36-.612-1.318-.567-2.276-1.547-3.33-4.464-4.313-12.851-1.617-17.9-.476z" fill="#e9c6af" fill-rule="evenodd" stroke="#4c1413" stroke-width="1.0003572"/><path d="M55.894 10.865c1.143 0-3.078-1.26-3.84-2.25-.392-2.306 3.23-3.966 7.382-5.245 3.407-1.156 13.447-3.162 17.267.956 3.33 3.074 3.646 7.572 4.757 11.656.784 4.49.023 9.041 0 13.559 0 1.369-1.378 2.9-1.065 4.148-1.509-.584-3.185 2.46-2.74-.58.02-3.547.11-7.072-.381-10.638-.777-3.673-2.86-1.614-6.004-1.343-2.877 2.767-1.551 5.469-1.16 8.86-1.33.67-3.62 1.603-3.159-.923-.1-3.647.331-7.29.476-10.942-.434-4.26-2.492-3.036-5.764-2.97-.7-1.4 2.656-4.183 1.72-5.118-2.617-.896-4.928.414-7.489.83zM46.497 40.96c1.122-2.616 2.285-4.24 5.233-5.71 1.616 0 .744 1.063 2.14.714 1.299-.325 2.396-.666 3.451-.138 3.082 2.218 3.385 7.493 3.096 10.963-1.14-1.13-2.13-3.496-2.395-5.237-.79-1.775-1.916-3.162-4.887-3.439-4.338-1.12-4.399 3.107-5.448 6.414-.305 1.217-.724-2.404-1.19-3.568z" fill="#241c1c" fill-rule="evenodd" stroke="#000" stroke-width="1.0003572"/><path d="M72.175 25.522c2.247-.715 4.636-6.846 7.538-1.27-.173 3.94-3.366 5.015-3.724 5.051-1.169.687-2.435.09-3.567-.476" fill="#e9c6af" fill-rule="evenodd" stroke="#4c1413" stroke-width="1.0003572"/><path d="M60.53 19.55c-2.52-.897-3.411.933-3.806 3.092.044 2.86 1.654 3.652 4.281 3.33 1.3-.324 1.558-.76 1.903-2.14.112-2.065-.69-3.328-2.378-4.282z" fill="#fff" fill-rule="evenodd" stroke="#333" stroke-width="1.0003572"/><path d="M57.555 24.8c-.374-1.496.375-2.633 1.786-2.633 1.262 0 .585 2.414.475 2.854-.198.792-1.751.417-2.261-.22z" fill-rule="evenodd" stroke="#000" stroke-width="1.0003572"/><path d="M49.351 24.308c-.678-2.203-.601-4.192 1.903-4.52 2.485.647 3.277 2.369 3.33 4.757-1.645 2.652-3.6 1.772-5.233-.237z" fill="#fff" fill-rule="evenodd" stroke="#333" stroke-width="1.0003572"/><path d="M52.919 25.021c.015-.258-1.717.997-2.383-.12.15-1.915.015-1.44.714-2.012 1.123-.92 1.613 3.057 1.669 2.132zM61.29 53.49c-1.831 1.88-1.374 4.618-1.374 7.056.292 2.133.925 7.211 2.953 7.66 3.469-.083 7.056-6.434 7.777-9.674 1.12-3.723 3.929-6.016 4.694-6.713 1.176 0 2.332.272 3.13.671.537.27 1.1.173 1.992 1.58-2.498-.934-3.972-1.063-5.346 1.33-1.155 1.734-1.946 3.653-2.682 5.594-.379 2.164.484 3.823 1.565 5.594 3.162 2.89 6.94.515 8.494-2.685.471-.944.447 2.078.447 3.132v3.357c-2.862 7.735-1.606 7.72-.67 16.335 0 1.38-1.556 1.45-2.683 2.014-3.415.058-6.786-1.427-10.283-.895-4.855.64-10.276 1.231-14.02-1.257-.294-6.697-.2-11.364 1.95-16.42.94-3.273.698-2.4-.4-5.319 0-.933.138-3.059.67-3.592 2.089-2.07-.05-8.942 3.787-7.767z" fill-rule="evenodd" stroke="#000" stroke-width="1.0003572"/><path d="M75.283 61.034c-.693 2.93-.751 2.84-.205 7.535.773 2.27 1.856 4.525 2.687 5.522-.226 3.427 1.302 5.318 3.387 7.713-.33 3.42-2.365 6.048-2.236 9.623-.153 1.909-2.12 2.333-2.906 3.994-.488 1.957 1.02 1.058 1.789.481.743.5-1.98 6.28.228 5.423.414.455 1.446-3.302 1.75-4.522-.089.552-.785 4.675.704 5.14.81-.4 1.125-3.386 1.341-5.146 0 1.989-.272 3.152.894 4.028.957.718.894-2.868.894-3.133 0-1.188-.004-2.26-.223-3.356-.076-.383.36-.67.742-1.435 1.608-3.429 2.471-7.787 1.27-11.32 1.553-1.954 1.557-2.943 2.359-5.291 1.551-4.655 1.273-10.177-.348-14.625-1.428-3.617-5.032-8.691-9.04-6.167M55.202 23.194c-.917 4.297-6.354 6.334-6.088 7.536 2.151.536 4.622.238 6.897.238" fill="#e9c6af" fill-rule="evenodd" stroke="#4c1413" stroke-width="1.0003572"/><path d="M83.061 67.185c-4.543-2.407-1.456 4.392 1.887 2.714 2.202-2.072-.836-8.856-1.887-2.714z" fill-rule="evenodd"/><path d="M77.223 24.45c1.869 1.4.832 4.089.15 5.34-.275.552-1.11 3.336-1.702 3.484-.504.126-.556-2.98-.8-3.162-1.177-.627-.892-1.225-1.007-2.461.408-1.757 1.721-4.48 3.36-3.2z" fill="#fff" fill-rule="evenodd" stroke="#333" stroke-width="1.0003572"/><path d="M58.414 74.24c2.53-.883 5.471-1.073 7.505.485 2.358 1.21 4.994 2.846 5.568 5.447" fill="none" stroke="#000" stroke-width="1.0003572"/><path d="M60.108 65.525c1.76.625 3.648.52 5.448.968.944 2.651.232 5.836-.243 8.595-.297 1.422-.793 1.715-2.178 1.695-1.614-.003-3.162-.49-4.721-.848-.631-2.997-.649-6.326.12-9.32.275-1.099.43-.861 1.574-1.09z" fill="#fff" fill-rule="evenodd" stroke="#333" stroke-width="1.0003572"/><path d="M60.255 71.048c-.774.603-.882 1.139-.942 2.054.033 1.002.556 1.268 1.284 1.797.905.54 1.336.224 2.14-.085.734-1.379.146-2.14-.514-3.167a5.887 5.887 0 00-1.968-.6zM75.32 33.129c-1.199 2.244-.563 4.966-1.627 7.19-1.87 3.028-1.204 6.58-3.252 9.586-2.009 3.4-5.075 3.657-8.303 5.05.13 1.856.322 3.762.342 5.65-.407 1.7.086 3.894.086 5.65M55.033 50.505c.404 1.69.494 4.098 2.055 4.707 1.462.368 3.463-.394 4.964-.17" fill="none" stroke="#333" stroke-width="1.0003572"/></svg>