<?xml version="1.0" encoding="UTF-8"?>
<svg width="128" height="128" version="1.0" xmlns="http://www.w3.org/2000/svg">
 <defs>
  <filter id="a" x="-.125" y="-.327" width="1.25" height="1.653">
   <feGaussianBlur stdDeviation="1.963"/>
  </filter>
 </defs>
 <path transform="matrix(.93743 0 0 .93743 106.22 41.59)" d="M-47.84 76.69c-1.872.605-6.113-.639-8.895-1.334-2.356-.59-4.727 1.17-5.782 2.224-1.413 1.413-1.725 4.217-1.334 5.781.832 3.328 5.382 3.105 7.561 2.669 2.008-.402 4.244 1.283 6.226 1.779 2.277.569 4.263.89 7.117.89 2.9 0 4.684 1.438 7.56 0 2.231-1.116 4.291-.773 6.227-2.224 1.512-1.135 2.226-3.124 2.668-4.893.784-3.135-1.876-3.607-3.558-4.447-2.16-1.08-5.906-.414-7.56 0-1.774.443-3.316-2.224-5.782-2.224-2 0-1.06 1.779-4.448 1.779z" fill-opacity=".728" fill-rule="evenodd" filter="url(#a)"/>
 <path d="M60.216 111.707c-2.977.585-5.427 1.145-7.954 2.983-.563.674-.537 1.325-.498 2.155.223.716.48 1.417.663 2.154 2.58.24 5.43 1.786 8.124.919 2.83.036 5.69-.955 8.034-2.66.54-1.602-.04-3.775-.166-5.55-2.61.82-5.577.687-8.203 0z" fill="#483737" fill-rule="evenodd" stroke="#241c1c" stroke-width="1.0002"/>
 <path d="M52.427 117.59c3.048-.521 6.095 1.479 9.268 1.054 2.948-.097 4.477-2.24 6.641-2.38" fill="#483737" fill-rule="evenodd" stroke="#241c1c" stroke-width="1.0002"/>
 <path d="M70.739 112.205c-2.372 1.267-5.943 1.916-8.286 3.894-.4.843-.384 1.817-.497 2.734.135 1.213.849 1.98 1.74 2.734 2.406.931 5.089.205 7.54-.248 2.151-.076 4.688-.569 6.186-2.209 2.315-2.165 1.927-4.221 1.686-7.237-2.79.211-5.572.332-8.37.332z" fill="#483737" fill-rule="evenodd" stroke="#241c1c" stroke-width="1.0002"/>
 <path d="M70.588 91.44c-.136.73-.834 2.627-.586 3.867.19.953.476 1.904.703 2.812.486 2.386-.418 4.67-.586 7.031.483 2.07-.128 5.342 1.289 6.796 2.465 1.864 6.248 1.777 7.617-.585-.235-.939-.057-1.498-.47-2.461-1.205-2.568-.634-5.497-.234-8.203.055-3.553.72-6.99.586-10.546-2.031-.75-7.037-.207-8.32 1.29zM60.159 91.323c-.136.73-.834 2.627-.586 3.867.884 2.62 1.007 5.068.351 7.734.015 2.615-.817 6.983 1.055 8.905 2.668 1.057 5.35 1.73 7.617-.586-1.168-3.61-1.26-6.902-.703-10.663.027-3.563.72-6.965.585-10.546-2.031-.75-7.037-.207-8.32 1.29z" fill="#64420c" fill-rule="evenodd" stroke="#382205" stroke-width="1.0002"/>
 <path d="M62.619 119.827c2.932.63 6.115.955 8.389.055 2.733-.362 5.17-.929 7.685-3.617" fill="#483737" fill-rule="evenodd" stroke="#241c1c" stroke-width="1.0002"/>
 <path d="M49.24 28.157c-10.313 6.727.488 16.8 2.361 24.349" fill="none" stroke="#120a04" stroke-width="1.0002"/>
 <path d="M55.734 77.163c-1.326.265-2.198 1.028-3.087 1.978-2.119 1.654-3.005 4.38-5.44 5.578-1.65.556-2.701.947-4.421.767-1.055-1.002-2.567-2.06-3.711-1.464-.028 1.206 2.144 1.939 3.018 2.724-.697 1.156-4.111 1.711-5.312 2.698-.283 2.64 3.133 1.327 4.316.333-.927 1.175-3.239 2.253-3.87 3.065 1.08 1.671 3.904-.114 5.108-1.263-1.34 1.239-3.288 1.853-1.756 3.358 1.804.307 3.015-1.348 4.366-2.378 2.316-1.429 4.877-2.402 7.024-4.109 2.684-2.99 7.603-5.061 9.06-8.902-.858-2.754-3.208-1.736-5.295-2.385z" fill="#e9d2af" fill-rule="evenodd" stroke="#3f2d10" stroke-width="1.0002"/>
 <path d="M60.257 59.427c-2.587 2.68-4.135 10.469-5.247 13.969-1.39 2.47-9.84 8.533-10.148 11.405 3.803.718 2.91 5.41 6.68 5.928.593-1.571 5.999-3.266 8.004-7.087 3.843-7.324 5.055-18.234 5.117-21.407" fill="#64420c" fill-rule="evenodd" stroke="#382205" stroke-width="1.0002"/>
 <path d="M84.443 93.896c-2.689-3.318-.837-8.288-.494-12.088-1.177-4.752 1.88-9.823.872-14.574-.447-2.977-1.435-5.658-2.93-8.254-1.711-2.313-3.996-3.63-6.9-3.778-3.724.546-7.485.043-11.184.848-2.73 1.187-4.61 3.155-4.914 6.1-.132 2.66.047 5.056-1.186 7.457-.372 4.267-1.787 8.6-1.187 12.879.858 4.979-1.279 7.022-.727 11.987 4.296-2.46 9.865 1.248 14.743.702 4.092-1.462 11.369 1.823 13.907-1.28z" fill="#64420c" fill-rule="evenodd" stroke="#382205" stroke-width="1.0002"/>
 <path d="M62.262 57.176l-.615 10.893 3.426 1.142 3.513.439 7.555-11.946-13.88-.528z" fill="#fff" fill-rule="evenodd" stroke="#000" stroke-width="1.0002"/>
 <path d="M63.147 58.058c.507 1.338 1.977 3.1 3.457 3.97 1.683-1.502 7.358-2.296 9.394-5.205-1.168-2.375-1.995-5.228-4.554-6.471-2.173-.248-4.282.356-6.35.958-1.667 1.3-2.32 5.08-1.947 6.748zM83.332 83.205c.53 3.127.474 6.743-.96 9.587-1.051 1.084-2.574-.486-3.354 1.078.311 1.354 1.62 1.7 2.876 2.037-.9 1.78-2.629 3.278-.84 5.273 1.161-.596 1.96-1.934 2.278-3.116.13 1.377-1.031 4.113 1.557 2.996 1.257-.942.645-2.32.72-3.715 1.004 1.554 1.307 3.889 2.636 1.199.133-1.207-.449-2.045-1.079-2.996-.164-1.216.272-2.49.48-3.715 1.527-2.583 1.96-5.458 2.396-8.388-1.74-2.288.03-5.496-1.438-7.789-.41-1.027-.8-1.907-1.438-2.756-2.698-.772-4.894.014-6.111 2.517-1.433 3.307 1.648 5.094 2.277 7.788z" fill="#e9d2af" fill-rule="evenodd" stroke="#3f2d10" stroke-width="1.0002"/>
 <path d="M75.504 64.254c.123 2.436 3.547 8.71 4.336 10.989.637 2.334.998 13.85 1.023 16.253 4.03-.428 5.71 1.392 9.735.124-.009-2.122 1.884-13.785-.653-15.067-.64-2.63-3.791-11.72-4.951-13.994-1.416-1.98-3.341-2.916-5.762-2.203" fill="#64420c" fill-rule="evenodd" stroke="#382205" stroke-width="1.0002"/>
 <path d="M65.791 14.582c-10.018-.059-13.981 6.551-14.115 15.149 0 1.799.831 5.338 1.277 7.121-.207 3.51-1.077 6.163-.041 9.59 1.205 4.847 4.46 7.427 9.15 8.472 4.164-.081 9.76-1.495 12.88-4.406 4.468-3.655 5.813-9.843 7.457-15.251.584-5.166-1.923-10.095-3.39-14.913-2.043-5.273-8.222-6.5-13.218-5.762z" fill="#e9d2af" fill-rule="evenodd" stroke="#3f2d10" stroke-width="1.0002"/>
 <path d="M52.912 21.36c-.618-9.454 25.169-12.576 26.515-5.1 7.244.556 7.28 19.112 5.481 25.498-7.473-.076-3.587-8.734-7.932-10.907-1.851-.463-2.47.956-4.067 1.355-3.384-2.174.038-8.865-5.423-11.184-2.667 1.077-6.047 2.74-8.812 0-2.364 0-3.75 1.144-5.762.339z" fill="#28170b" fill-rule="evenodd" stroke="#120a04" stroke-width="1.0002"/>
 <path d="M83.83 40.417c-1.513 0 1.095 5.392 1.357 6.44.406 1.625 3.347 4.011 4.406 5.423.899 1.199 4.764.06 5.761-.34 1.68-.67 3.634.245 4.407 1.018 2.41 2.41.968-1.113.338-2.373-.494-.99-2.755-2.32-3.728-3.05-1.653-1.24-1.99-2.668-3.389-4.067-1.335-1.336-2.936-1.356-4.745-1.356-1.13 0-3.024-1.418-4.406-1.695z" fill="#28170b" fill-rule="evenodd" stroke="#120a04" stroke-width="1.0002"/>
 <path d="m66.215 61.744-1.142 3.426-2.636-8.081 3.778 4.655z" fill="#fff" fill-rule="evenodd" stroke="#6b5532" stroke-width="1.0002"/>
 <path d="M51.78 52.53c.63 1.258 1.907 2.037 3.506 2.037 2.518.726 4.954 1.856 7.459 2.726 3.29.846 5.687-.833 8.118-2.726 4.097-2.118 8.342-5.724 9.197-10.455.24-1.982-.54-1.977-1.677-1.618-1.889 1.928-4.255 3.964-6.83 4.973-3.264.927-5.85 1.357-6.77-2.396-1.083-3.109-4.578-4.001-7.46-4.733-6.126-.265-7.463 7.727-5.542 12.192zm5.483-8.418c2.956-1.248 9.116 6.355 3.774 6.051-2.244-.747-2.71-2.2-4.044-.329-4.755 1.442-2.88-4.527.27-5.722z" fill="#28170b" fill-rule="evenodd" stroke="#120a04" stroke-width="1.0002"/>
 <path d="M60.098 30.322c-1.434 2.58-.324 4.092 2.748 3.72.944.34 2.91-1.546 2.459-2.797.338-3.36-3.217-3.432-5.207-.923z" fill="#fff" fill-rule="evenodd" stroke="#333" stroke-width="1.0002"/>
 <path d="M54.397 29.524c-2.014.37-2.96 1.623-2.567 3.488 2.325 3.5 6.748-1.536 2.567-3.488z" fill="#fff" fill-rule="evenodd" stroke="#37291e" stroke-width="1.0002"/>
 <path d="M58.072 31.89c-.399 2.31-2.636 3.386-3.835 4.553-.613 2.564-.245 4.404 2.636 3.835 2.013-.936 2.822-2.487 3.116-4.554M74.848 32.369c5.62-2.233 4.63 6.091.48 5.272M75.926 33.687c.816-1.431 2.965 1.131 0 2.516" fill="#e9d2af" fill-rule="evenodd" stroke="#3f2d10" stroke-width="1.0002"/>
 <path d="M55.675 47.228c.925.392 3.546.183 5.153 0" fill="none" stroke="#3f2d10" stroke-width="1.0002"/>
 <path d="M61.43 30.811c.37-.342-1.8-.98-1.677.959.094 1.503 1.91 1.86 2.516 1.438 1.217-.848-.252-2.696-.839-2.397zM53.39 30.534c.438-.91-2.087-.18-1.438 1.917.448 1.447 2.037.557 2.157.48 1.61-1.041.308-3.693-.72-2.397z" fill="#241509" fill-rule="evenodd" stroke="#000" stroke-width="1.0002"/>
 <path d="M66.742 61.832l.439 3.69 6.676-7.467-7.115 3.777z" fill="#fff" fill-rule="evenodd" stroke="#6b5532" stroke-width="1.0002"/>
 <path d="M74.647 53.75c-.266 2.774-5.072 15.011-10.014 15.636l4.217 5.095c1.053-6.032 7.759-14.507 9.311-18.71l-3.514-2.02zM63.052 57.352c.064 3.722-1.19 7.14 1.67 11.507l-4.568 3.953c.16-5.281-.251-10.706.745-15.778l2.153.318z" fill="#64420c" fill-rule="evenodd" stroke="#382205" stroke-width="1.0002"/>
 <path d="M65.073 69.826c-.353 7.762-.142 15.928 1.142 24.859" fill="none" stroke="#382205" stroke-width="1.0002"/>
 <path d="M63.232 75.888a1.01 1.142 0 11-2.02 0 1.01 1.142 0 112.02 0zM62.875 82.476a1.01 1.142 0 11-2.02 0 1.01 1.142 0 112.02 0zM63.494 88.8a1.01 1.142 0 11-2.02 0 1.01 1.142 0 112.02 0zM69.55 81.861a1.01 1.142 0 11-2.02 0 1.01 1.142 0 112.02 0zM70.253 88.098a1.01 1.142 0 11-2.02 0 1.01 1.142 0 112.02 0zM68.94 75.712a1.01 1.142 0 11-2.02 0 1.01 1.142 0 112.02 0z" fill="#382205"/>
 <path d="m76.452 74.95c0 1.612-1.28 0.808-2.857 0.808s-2.858 0.804-2.858-0.807c0-1.612 1.105-3.359 2.682-3.359s3.033 1.747 3.033 3.359z" fill="#b38d68" stroke="#28170b" stroke-linejoin="round" stroke-width="1.0002"/>
 <path d="M70.43 74.57l5.886-.177.176 2.284-5.885.176-.176-2.284z" fill="#64420c" fill-rule="evenodd" stroke="#382205" stroke-width="1.0002"/>
 <path d="M73.33 77.029l.263 3.513" fill="none" stroke="#382205" stroke-width="1.0002"/>
 <path d="M66.079 62.963l-3.851-2.982-.248 4.224 4.161-.621 3.851 1.801.435-4.534-4.348 2.112z" fill="#28170b" fill-rule="evenodd" stroke="#120a04" stroke-width="1.0002"/>
 <path d="M67.073 63.087a.994 1.304 0 11-1.988 0 .994 1.304 0 111.988 0z" fill="#28170b" stroke="#120a04" stroke-linejoin="round" stroke-width=".99998"/>
 <path d="M50.288 29.833s-1.83-.827-.658-2.019c.634-.645 1.316 1.177 1.316 1.177" fill="none" stroke="#000" stroke-width="1.0002"/>
 <path d="M46.127 20.759c3.19 5.575 43.1 8.868 44.862-1.209.072-13.424-51.823-6.353-44.862 1.209z" fill="#64420c" fill-rule="evenodd" stroke="#382205" stroke-width="1.0002"/>
 <path d="M52.955 17.38c-.672-6.144 6.83-11.914 14.96-11.394 9.24.59 17.79 4.412 16.944 12.844-.956 3.518-25.73 3.813-31.904-1.45z" fill="#64420c" fill-rule="evenodd" stroke="#382205" stroke-width="1.0002"/>
 <path d="M52.955 17.38c-.171-1.564.187-3.104.95-4.521 4.185 4.878 24.294 6.462 30.205.982.656 1.442.938 3.1.749 4.99-.956 3.517-25.73 3.812-31.904-1.452z" fill="#28170b" fill-rule="evenodd" stroke="#120a04" stroke-width="1.0002"/>
 <path transform="matrix(.62165 0 -.06206 .70273 -73.843 -99.802)" d="m228.4 187.39a5.568 5.303 0 1 1-11.136 0 5.568 5.303 0 1 1 11.136 0z" fill="#fff" fill-opacity=".27" stroke="#120a04" stroke-linejoin="round" stroke-width="1.513"/>
 <path d="M35.975 89.546c.91.692 2.794-1.206 2.088-.76-1.54-1.62-1.086-2.79-.396-2.117 4.614 4.797 14.787 20.663 18.723 26.019l2.6-1.163c-4.01-5.306-14.447-21.47-19.053-26.289-2.795-3.21-7.801-.575-3.962 4.31z" fill="#28170b" fill-rule="evenodd"/>
 <path d="M73.44 68.925c-2.213.109-2.268 1.73-1.648 3.448l1.142-.44c-.672-1.022-.478-1.734.484-1.778.714-.106 1.57.578 1.361 1.8l.615.308c.742-1.848-.13-2.993-1.954-3.338z" fill="#b38d68" fill-rule="evenodd" stroke="#28170b" stroke-width="1.0002"/>
 <path d="m71.683 69.474c-5.791 0.75-9.03 3.499-9.795 5.666s1.199 5.4 2.943 6.325l0.044-1.67c-1.473-0.78-2.445-2.523-1.8-4.348 0.644-1.824 2.985-3.844 8.388-5.006l0.22-0.967z" fill="#b38d68" fill-rule="evenodd" stroke="#28170b" stroke-width="1.0002"/>
 <path d="M52.352 27.31c1.656.834 3.313.429 4.97 2.733" fill="none" stroke="#3f2d10" stroke-width="1.0002"/>
</svg>
