<svg xmlns="http://www.w3.org/2000/svg" width="128" height="128" version="1.0"><defs><filter id="a"><feGaussianBlur stdDeviation="1.817"/></filter></defs><metadata/><path d="M52.25 123.5c10.893-2.91 24.516-.177 35.25-2 4.964-1.35 11.589 1.45 15.25-2.5.68-1.358-1.482-2.93-1.75-4-3.975-5.01-5.55-12.188-9.75-17-3.295-2.958-4.009-5.416 1-7.25 5.244-2.82 5.401-6.58 2-10-7.188-3.62-18.142-7.588-25.75-7-10.311-.662-17.76 8.5-28 8.5-4.5.687-7.77 3.828-8.5 8 .013 6.376 5.774 3.827 8.75 8.5 1.824 6.589-3.61 10.27-8.25 13.5-1.852 2.895-2.504 5.342-2.5 8.75 6.95 2.455 14.648 2.868 22.25 2.5z" fill-opacity=".695" fill-rule="evenodd" filter="url(#a)"/><path d="M73.963 30.631c-1.52.427 2.616 5.108 3.174 6.087.866 1.518 4.492 3.087 5.953 4.207 1.24.951 4.802-1.28 5.692-1.962 1.497-1.147 3.718-.778 4.712-.22 3.099 1.743.66-1.39-.328-2.478-.775-.854-3.421-1.555-4.603-2.014-2.01-.78-2.75-2.12-4.55-3.131-1.717-.966-3.33-.536-5.147-.027-1.135.319-3.437-.573-4.903-.462z" fill="#28170b" fill-rule="evenodd" stroke="#120a04"/><path d="M79.19 84.866c3.162-1.911 6.779-2.938 10.014-.92 1.547 3.166 1.637 7.065-1.018 9.63-1.532.864-2.76 1.493-4.586 1.994-5.561.3-12.062 1.624-17.566.18-1.777-1.174-1.508-3.008-.987-4.979 4.553-2.117 9.439-3.69 14.144-5.905z" fill="#00325c" fill-rule="evenodd" stroke="#00192e"/><path d="M54.143 87.052c-4.036-1.566-7.82-4.34-12.332-3.837-3.068.75-2.855 3.376-3.051 5.956-.347 2.134.285 3.567 2.027 4.748 4.702 2.818 10.054 2.789 15.316 2.254 3.393.348 7.383.401 9.305-2.836 1.109-4.445-8.287-4.961-11.265-6.285z" fill="#00325c" fill-rule="evenodd" stroke="#00192e"/><path d="M79.445 85.712c-2.805-3.461-.73-5.567-.372-9.53-1.228-4.958.306-9.843-.747-14.798-.465-3.106 2.397-5.976.836-8.684-1.784-2.413-6.292-3.536-9.32-3.69-3.887.569-7.81.044-11.668.883-2.847 1.24-7.81 2.166-8.127 5.24-.137 2.773 2.756 7.19 1.47 9.695-.387 4.452-1.709 9.48-1.082 13.944.894 5.194-1.347 3.82-.772 9 4.482-2.566 10.795 5.98 15.884 5.41 4.268-1.526 11.25-4.234 13.898-7.47z" fill="#1a1a1a" fill-rule="evenodd" stroke="#000"/><path d="M59.807 53.165c.657 4.86 9.389 5.336 13.35 1.778-.626-2.689-.793-5.782-3.1-7.65-2.15-.765-4.435-.649-6.68-.525-2 .927-3.555 4.613-3.57 6.397z" fill="#e9d2af" fill-rule="evenodd" stroke="#3f2d10"/><path d="M51.28 15.542c-1.41 4.8.633 10.454 1.891 15.156-1.823 5.854-1.586 11.191 3.967 15.861 6.424 2.089 20.154 3.055 22.354-5.99 1.366-11.377-1.113-4.824 1.473-14.329.855-12.313-3.514-20.66-15.09-19.765-8.002-.262-11.436 3.864-14.595 9.067z" fill="#e9d2af" fill-rule="evenodd" stroke="#3f2d10"/><path d="M66.36 33.141c-5.562-.312-8.43 2.973-11.61 4.943-.54.18-.915.909-1.335 1.4-1.68 3.514.759 7.342 3.902 9.528 2.633 1.528 5.315 2.031 8.203 1.529 2.73-.486 5.7-.35 8.111-1.647 3.984-.585 5.369-2.754 5.837-6.645-.175-2.648-1.475-5.784-3.736-7.083-2.947-.834-6.31-2.534-9.373-2.025zm-.775 3.369c1.816.525 5.342 1.592 6.743 2.768.563 2.322-.536 4.633-2.932 4.353-1.556-1.877-4.67-1.416-6.418.343-2.086.372-2.958-2.11-2.905-3.846.677-1.825 3.933-2.644 5.512-3.618zM65.913 12.613c4.481-1.03 3.745-2.096 4.886-3.49 8.927-.315 9.538 7.6 8.138 11.16 1.657-1.494.785-2.25 2.831-.808.47.403.115 4.06.035 4.535-.085.499-1.862 6.863-1.488 7.015 4.477-2.717 5.29-14.654.515-21.191-3.522-4.824-9.732-6.748-15.077-4.938C50.381 1.72 45.02 20.87 52.577 34.068c.882-2.986-1.633-8.984-.523-12.234.924-.823 1.167.804 2.36.676-4.017-8.132.395-12.527 5.778-13.373 1.383-1.224 1.352 3.041 5.72 3.476z" fill="#28170b" fill-rule="evenodd" stroke="#120a04"/><path d="M69.49 22.269c-1.415 2.975-.387 4.75 2.545 4.366.892.41 2.8-1.75 2.394-3.21.387-3.9-2.996-4.04-4.938-1.156zM61.578 20.138c-2.592.486-3.834 2.263-3.375 4.945 2.899 5.066 8.69-2.059 3.375-4.945z" fill="#fff" fill-rule="evenodd" stroke="#333"/><path d="M72.472 23.263c.525.02-.61-2.048-1.946-.525-1.036 1.18.044 2.78.802 2.915 1.524.268 1.798-2.18 1.144-2.39zM60.353 22.454c.473-.941-2.174-.224-1.533 1.974.442 1.518 2.114.617 2.241.538 1.698-1.058.385-3.847-.708-2.512z" fill-rule="evenodd" stroke="#000"/><path d="M64.304 25.964c-1.138 2.17-4.388 7.37.63 7.261 4.682-.01 2.255-5.317 2.122-7.34" fill="#e9d2af" fill-rule="evenodd" stroke="#3f2d10"/><path d="M63.222 39.74c.958.426 3.696.253 5.374.09" fill="none" stroke="#3f2d10"/><path d="M80.255 20.661c7.413-2.957 4.337 7.177.15 6.004M81.23 22.178c2.127-1.583 2.941 1.603-.175 2.997M52.738 22.74c-7.746-1.921-3.319 7.7.669 5.967M51.979 24.374c-2.323-1.278-2.696 1.99.581 2.946M86.714 64.775c3.648 1.152 4.59 5.124 6.188 7.955.277 2.176-1.682 3.271-3.536 4.242-2.559.386-4.199.504-6.187-1.06-.546-.546-2.131-3.221-2.298-3.89-.774-3.305 1.455-9.436 5.833-7.247z" fill="#e9d2af" fill-rule="evenodd" stroke="#3f2d10"/><path d="M75.95 61.43c.301.858.822 1.173 2.03 3.38 1.062 2.289 1.668 3.704 2.113 6.172 4.07-1.143 6.212-2.637 10.132-4.643-.781-1.968-1.933-3.876-2.679-5.864-1.117-2.594-2.917-3.183-4.506-5.318-1.84-1.448-2.457-1.936-4.56-3.136" fill="#1a1a1a" fill-rule="evenodd" stroke="#000"/><path d="M42.572 63.714c-3.648 1.152-5.473 6.008-7.071 8.839-.278 2.176 2.742 6.63 4.596 7.601 2.559.386 4.022-3.739 6.01-5.303.546-.546 2.132-3.221 2.299-3.89.773-3.305-1.456-9.436-5.834-7.247z" fill="#e9d2af" fill-rule="evenodd" stroke="#3f2d10"/><path d="M52.835 61.194c-.684 2.45.41 1.245-.915 3.383-1.184 2.23-2.544 6.483-3.121 8.923-4.003-1.36-7.255-5.199-11.06-7.413.885-1.923 3.263-3.905 4.115-5.85 1.256-2.53 2.493-2.486 4.195-4.533 1.563-1.192 2.007-2.795 5.244-2.919" fill="#1a1a1a" fill-rule="evenodd" stroke="#000"/><g stroke="#333"><path d="M52.777 103.918c2.39 1.586 4.806 4.61 7.85 5.81.994-.05 1.9-.559 2.82-.917 1.07-.74 1.429-1.799 1.686-3.017-.343-2.73-2.383-4.883-4.049-6.955-1.16-1.982-2.906-4.115-5.204-4.692-3.205-1.078-4.94.327-7.65 2.08 1.61 2.512 3.131 5.065 4.547 7.69z" fill="#e6e6e6" fill-rule="evenodd"/><path d="M64.044 107.686c-.893-3.073-2.198-6.226-4.194-7.906-1.723-2.383-3.488-4.385-7.286-5.386" fill="none"/></g><path d="M38.942 88.432c-.455 5.78 3.194 10.047 8.662 11.844 1.67.626 3.044 1.618 4.773 2.122 1.067-.984 2.06-2.267 3.182-3.359.662-.882 1.843-2.759 2.289-3.652-2.87-.633-6.518-3.271-8.955-5.32" fill="#00325c" fill-rule="evenodd" stroke="#00192e"/><g stroke="#333"><path d="M76.293 104.421c-2.298 1.719-4.54 4.874-7.51 6.243-.996.005-1.93-.452-2.867-.757-1.11-.68-1.529-1.716-1.854-2.918.19-2.746 2.105-5.01 3.652-7.172 1.046-2.044 2.67-4.271 4.932-4.976 3.14-1.257 4.95.048 7.754 1.646a117.971 117.971 0 00-4.107 7.934z" fill="#e6e6e6" fill-rule="evenodd"/><path d="M65.255 108.816c.72-3.117 1.845-6.339 3.743-8.128 1.586-2.477 3.237-4.575 6.972-5.788" fill="none"/></g><path d="M90.277 88.557c.482 3.993-1.56 6.814-4.066 9.723-2.835 1.753-4.677 3.613-7.87 4.743-1.066-.984-3.56-2.392-4.681-3.484-.742-1.609-1.547-2.99-1.988-4.368 2.07-.981 3.954-2.204 5.877-3.432 1.662-1.285 3.771-2.17 4.67-4.096" fill="#00325c" fill-rule="evenodd" stroke="#00192e"/><path d="M85.44 73.2c-3.59 1.112-2.735 3.351-3.734 4.441-2.115 2.544-5.015 4.957-8.24 5.754-1.573-.096-1.365-2.369-3.133-1.923-.86 1.166-.246 2.437.34 3.66-2.02.497-4.38.147-4.743 2.918 1.26.514 2.863.238 4.013-.314-1 1.04-3.956 1.978-1.313 3.268 1.6.355 2.274-1.065 3.43-1.954-.547 1.85-2.19 3.677.842 2.9 1.045-.713 1.314-1.743 1.638-2.888.851-.956 2.156-1.477 3.267-2.144 3.082-.546 5.652-2.157 8.268-3.802.63-2.93 4.37-3.71 5.189-6.43.535-1.021 1.319-1.398 1.558-2.48" fill="#e9d2af" fill-rule="evenodd" stroke="#3f2d10"/><path style="-inkscape-font-specification:Rufscript" d="M56.372 70.463c-.141 0-.352.089-.224-.14.035-1.09-.181-2.174-.153-3.266.006-.535.008-1.074.07-1.605.166-.285.545-.305.839-.362.61-.073 1.23-.09 1.842-.052.296.179.486.491.67.776.242.397.109.913-.209 1.226-.367.44-.937.622-1.342 1.016-.3.228-.19.658.116.82.385.263.856.417 1.149.8.163.217.337.478.31.759-.277.164-.769.103-.951-.217-.24-.224-.442-.521-.704-.706-.281-.1-.452-.744-.796-.346-.187.278-.15.641-.19.962.03.167-.188.177-.29.261l-.137.074zm.509-2.576c.63-.324 1.298-.64 1.77-1.184.22-.224.212-.62-.064-.795-.418-.329-.987-.26-1.486-.257-.457-.078-.267.512-.27.783.053.482.031.97.05 1.453zm4.9 2.587c.026-.754.104-1.518-.041-2.266-.074-.526-.146-1.054-.217-1.581-.227-.244-.627-.203-.937-.267-.38-.034-.897-.129-.992-.57-.026-.34.548-.134.776-.207 1.22-.003 2.45-.051 3.66.136.276.037.795.166.619.55-.225.253-.613.196-.919.2-.358-.01-.717-.033-1.075-.028-.281.36-.104.84-.052 1.248.098.857.087 1.729-.014 2.586.006.341-.232.656-.593.45-.112-.034-.226-.121-.215-.25zm3.97-1.66c-.23.215.005.63.045.91.089.345.272.74.087 1.081-.259.263-.82.093-.803-.314-.123-1.13-.116-2.27-.137-3.405.013-.364-.03-.743.067-1.097.386-.342.939-.365 1.427-.42.47-.018.97-.084 1.416.1.165.208.556.528.434.795-.722-.084-1.464-.258-2.191-.107-.386.088-.301.594-.321.894-.053.369.113.836.553.828.49.053 1.006-.251 1.477-.016.402.268-.009.715-.368.707-.554.103-1.125.081-1.685.044zm6.97 3.371c-.12-.432-.068-.893-.078-1.337.011-1.45.15-2.897.136-4.346-.07-.072-.283.33-.407.432-.334.39-.757.72-1.166 1.008.172.182.677.409.54.677-.265.354-.69.199-.87-.142-.512-.558-1.018-1.125-1.55-1.666.03 1.278.074 2.557.038 3.835-.001.35-.534.54-.75.27-.169-.315-.083-.692-.108-1.035a74.4 74.4 0 01.108-3.494c.012-.36.426-.453.714-.375.358.129.67.407.799.77.145.213.291.754.6.598.423-.4.86-.788 1.276-1.195.205-.261.538-.454.582-.81.177-.238.781-.27.776.128.056.747.02 1.5.066 2.248.018 1.155-.055 2.313.025 3.467.067.306.129.686-.207.867-.132.1-.385.3-.524.1z" font-size="12" font-weight="400" fill="#fff" font-family="Rufscript"/><path d="M119.25 93.625L119.5 97l34.25.25-.75-4-33.75.375z" fill="#333" fill-rule="evenodd" stroke="#000" stroke-width=".88" transform="matrix(1.17606 0 0 1.09763 -92.1 -7.348)"/><path d="M114.453 70.454c7.722.353 15.493-.324 23.24-.53 3.05.216 15.09-2.822 16.352.707.971 2.843 2.006 5.457 2.415 8.485.73 4.76.217 9.909 1.5 14.496-4.577 1.31-10.035.299-14.778.177-8.899-.888-18.381 1.166-27.198.177-.75-7.33-2.515-14.583-3.056-21.92.09-1.208-.257-1.326 1.525-1.592zM118.203 95.871c-3.422 2.64-3.554 7.098-6.36 10.451-1.621 2.264-3.478 3.934-4.368 6.584-.69 1.534-.074 1.47.728 2.566 9.75.198 18.206.468 27.15.064 8.888-1 18.245.142 27.048-1.259.812-.203.411-1.274-.091-1.944-.995-2.213-1.984-5.034-3.079-7.218-2.387-2.868-1.304-6.494-3.92-9.067-7.926-.495-17.94-.737-25.937-.556-3.239-.38-7.799.343-11.171.38z" fill="#333" fill-rule="evenodd" stroke="#000" stroke-width=".88" transform="matrix(1.17606 0 0 1.09763 -92.1 -7.348)"/><path d="M107.066 113.738c6.565-2.586 13.75.476 20.51-.436 9.096-.893 25.386-1.268 34.525-.655" fill="none" stroke="#000" stroke-width=".88" transform="matrix(1.17606 0 0 1.09763 -92.1 -7.348)"/><path d="M116.636 72.183c6.882.297 13.741-.274 20.61-.448 4.2-1.318 9.497-.125 13.712-.698 2.805.9 2.517 5.637 2.95 8.465.392 4.073.486 8.239 1.357 12.249-5.952.983-13.16.4-19.342.4-6.139-.506-11.785.35-17.885-.101-1.075-5.378-1.29-10.89-2.298-16.282-.496-1.682-1.078-3.104.896-3.585z" fill="#013e61" fill-rule="evenodd" stroke="#000" stroke-width=".88" transform="matrix(1.17606 0 0 1.09763 -92.1 -7.348)"/><path d="M85.448 70.618c-4.957.63-11.195-.658-16.134.79-8.078.19-16.162.806-24.256.48-1.52.345-1.728 1.14-1.543 2.16 8.894.097 17.788-.15 26.683-.83 5.653-1.68 11.307-.356 16.961-.528-.415-1.621-.194-1.617-1.71-2.072zM46.418 92.125c.098.525.182 1.055.294 1.578 7.173.495 13.84-.451 21.059.103 7.271 0 15.713.633 22.712-.446a34.627 34.627 0 01-.257-1.235c-7.567.154-14.912.927-22.726.388-7.026-.126-13.794.228-21.082-.388z" fill="#999" fill-rule="evenodd"/><path d="M119.553 98.213c-3.21 2.4-2.273 3.976-4.906 7.024-1.52 2.057-3.262 3.575-4.097 5.983 7.875-.657 19.234-.006 24.297-.173 3.578-1.406 17.482.3 24.845-.436-.932-2.011-1.86-2.984-2.888-4.969-2.24-2.606-.87-5.018-3.323-7.357-7.435-.45-16.83-.669-24.332-.505-3.038-.345-6.432.4-9.596.433z" fill="#b3b3b3" fill-rule="evenodd" stroke="#4d4d4d" stroke-width=".88" transform="matrix(1.17606 0 0 1.09763 -92.1 -7.348)"/><path d="M122.184 98.279c-5.038 8.839-7.071 12.551-7.071 12.551M112.373 107.913l45.785.089M114.582 105.438l41.808-.088M116.615 102.61l38.626.177M117.853 100.135l36.593.177M149.673 98.279l5.656 12.374M146.314 98.102l4.243 12.64M125.543 98.014l-3.27 9.9M128.371 97.925l-.53 9.723M131.553 97.925l.442 9.9M134.912 97.837l1.237 10.165M138.27 97.925l2.564 9.988M141.983 97.749l3.359 12.728" fill="none" stroke="#4d4d4d" stroke-width=".88" transform="matrix(1.17606 0 0 1.09763 -92.1 -7.348)"/><path d="M40.418 77.09c1.266 2.541 1.949 2.527 1.934 5.413.185 3.303 1.079 6.968 3.196 9.528 1.321.859 2.507-1.09 3.662.32-.003 1.449-1.253 2.104-2.453 2.738 1.328 1.602 3.432 2.725 2.074 5.168-1.318-.336-2.44-1.513-3.037-2.641.185 1.431 2.001 3.944-.89 3.408-1.497-.667-1.193-2.21-1.592-3.612-.663 1.813-.43 4.258-2.404 1.83-.415-1.196-.018-2.184.403-3.297-.115-1.275-.853-2.47-1.348-3.667-2.152-2.273-3.258-5.098-4.38-7.977 1.238-2.73-1.305-5.583-.343-8.255.179-1.14.312-2.516.764-3.527" fill="#e9d2af" fill-rule="evenodd" stroke="#3f2d10"/></svg>