<svg xmlns="http://www.w3.org/2000/svg" width="128" height="128" version="1.0"><defs><filter id="a" x="-.125" width="1.25" y="-.327" height="1.653"><feGaussianBlur stdDeviation="1.963"/></filter></defs><metadata/><path d="M443.835 124.983c-1.872.606-6.114-.639-8.895-1.334-2.357-.59-4.728 1.17-5.782 2.224-1.414 1.413-1.726 4.217-1.335 5.782.832 3.327 5.383 3.104 7.561 2.668 2.008-.401 4.245 1.284 6.227 1.78 2.276.568 4.263.889 7.116.889 2.9 0 4.684 1.438 7.56 0 2.232-1.116 4.291-.772 6.227-2.224 1.513-1.134 2.227-3.124 2.669-4.892.784-3.136-1.877-3.607-3.558-4.448-2.161-1.08-5.907-.414-7.561 0-1.773.443-3.316-2.224-5.782-2.224-2 0-1.06 1.78-4.447 1.78z" fill-opacity=".728" fill-rule="evenodd" filter="url(#a)" transform="translate(-387.042 -13.751)"/><path d="M55.56 109.34c-2.356 3.085-5.544 3.832-8.735 4.307-.6.719-.323.287-.28 1.173.237.764.51 1.512.706 2.298 2.752.257 5.793 1.905 8.667.98 3.018.039 6.07-1.018 8.57-2.836.577-1.71-.043-4.028-.178-5.922-2.784.875-5.948.733-8.75 0z" fill="#2b1100" fill-rule="evenodd" stroke="#0e0300"/><path d="M47.251 115.615c3.252-.556 6.502 1.578 9.887 1.124 3.144-.104 4.775-2.388 7.084-2.538" fill="none" stroke="#0e0300"/><path d="M66.785 109.87c-2.324 3.416-6.217 4.642-8.839 5.53-.427.898-.41.563-.53 1.541.144 1.294.905 2.112 1.856 2.917 2.567.993 5.429.218 8.044-.265 2.294-.08 5-.607 6.598-2.356 2.47-2.31 2.056-4.503 1.798-7.72-2.975.225-5.943.353-8.927.353z" fill="#2b1100" fill-rule="evenodd" stroke="#0e0300"/><path d="M48.499 70.97c-3.399 4.521-.072 8.06-.5 11.875-.777 1.642-1.245 2.713-2.625 3.875-1.516.067-2.619.834-3 2.125.886.894 2.152.588 3.375.5.363 1.36-1.622 3.133-1.75 4.75 1.777 2.124 3.265-1.392 3.375-3 .211 1.547-.653 4.063-.5 5.125 2.036.4 2.74-3.014 2.75-4.75-.04 1.903-.99 3.81 1.25 3.75 1.537-1.132 1.17-3.24 1.375-5 .604-2.774 1.727-5.402 2-8.25-.303-4.181 1.704-9.374-.125-13.25-2.69-1.35-3.627 1.152-5.625 2.25z" fill="#fca" fill-rule="evenodd" stroke="#3f2d10"/><path d="M55.179 54.915c-2.7 2.796-5.372 5.348-6.532 8.999-1.45 2.576-2.059 5.494-2.38 8.49 3.967.749 7.983-.038 11.917.503 1.8-4.78 1.493-10.027 1.59-15.063" fill="#999" fill-rule="evenodd" stroke="#4d4d4d"/><path d="M66.624 87.72c-.145.779-2.015 1.802-1.75 3.125-.487 3.515 1.534 7.202 1.25 11.5.515 2.208-1.887 5.823-.375 7.375 2.63 1.987 9.165 1.895 10.625-.625-1.018-3.858-2.097-7.493-1.5-11.5.058-3.791.767-7.456.625-11.25-2.167-.801-7.507-.221-8.875 1.375zM55.499 87.595c-.145.779-1.89 2.927-1.625 4.25.943 2.795 2.074 5.28 1.375 8.125.016 2.79-2.997 7.824-1 9.875 2.845 1.127 7.831 1.47 10.25-1-1.246-3.852-1.344-7.364-.75-11.375.029-3.8.768-7.43.625-11.25-2.167-.801-7.507-.221-8.875 1.375z" fill="#00325c" fill-rule="evenodd" stroke="#00192e"/><path d="M80.408 90.871c-2.805-3.461-.872-8.645-.515-12.609-1.228-4.957 1.962-10.247.91-15.203-.466-3.105-1.497-5.902-3.058-8.61-1.784-2.413-4.167-3.786-7.196-3.94-3.886.568-7.808.044-11.667.883-2.847 1.239-4.81 3.291-5.127 6.364-.137 2.774-.576 4.899-1.862 7.403-.387 4.452-1.864 8.846-1.237 13.31.894 5.194-.71 7.825-.134 13.005 4.482-2.566 10.29 1.302 15.38.732 4.267-1.526 11.858 1.902 14.506-1.335z" fill="#999" fill-rule="evenodd" stroke="#4d4d4d"/><path d="M79.374 80.095c.553 3.26.37 6.658-1.125 9.625-1.098 1.13-2.687-.507-3.5 1.125.325 1.412 1.69 1.773 3 2.125-.94 1.856-2.742 3.42-.875 5.5 1.21-.621 2.044-2.018 2.375-3.25.137 1.436-1.075 4.29 1.625 3.125 1.311-.983.672-2.42.75-3.875 1.048 1.62 1.364 4.056 2.75 1.25.14-1.258-.468-2.133-1.125-3.125-.171-1.268.283-2.598.5-3.875 1.593-2.694 2.67-5.444 3.125-8.5-1.815-2.387-.594-5.983-2.125-8.375-.427-1.072-.835-1.99-1.5-2.875-2.815-.805-5.105.014-6.375 2.625-1.78 3.53.024 6.21 2.5 8.5z" fill="#fca" fill-rule="evenodd" stroke="#3f2d10"/><path d="M71.083 59.95c.129 2.541-.106 5.246.716 7.623.665 2.435 1.733 4.543 1.76 7.05 4.204-.446 8.704-2.213 12.904-3.536-.441-2.07-1.011-4.102-1.414-6.187-.668-2.744-1.856-4.971-3.066-7.342-1.477-2.066-4.485-2.417-7.01-1.673" fill="#999" fill-rule="evenodd" stroke="#4d4d4d"/><path d="M58.193 53.487c-4.47 12.205 10.047 3.448 13.406-1.289-1.218-2.477-2.081-5.453-4.75-6.75-2.267-.259-4.467.372-6.625 1-1.738 1.356-2.42 5.298-2.03 7.04z" fill="#fca" fill-rule="evenodd" stroke="#3f2d10"/><path d="M60.952 8.135C50.5 8.074 46.367 14.969 46.227 23.938c0 1.876.867 5.568 1.332 7.428-.216 3.662-1.123 6.429-.042 10.003 1.256 5.057 4.653 7.748 9.545 8.839 4.344-.085 9.18-2.185 12.435-5.221 4.661-3.814 5.44-10.019 7.154-15.66.61-5.39-.38-10.155-1.91-15.182-2.132-5.5-8.578-6.78-13.79-6.01z" fill="#fca" fill-rule="evenodd" stroke="#3f2d10"/><path d="M45.015 15.888c-.94-10.6 27.9-15.943 30.16-6.003 9.866 3.145 2.89 21.403.593 27.599-1.374-.014-2.928-.183-2.708-.873 2.796-8.77 3.381-9.748-.441-11.505-1.931-.483-2.576.997-4.243 1.414-3.53-2.269.04-9.248-5.657-11.667-2.781 1.124-6.307 2.859-9.192 0-2.466 0-6.412 1.875-8.512 1.035z" fill="#a05a2c" fill-rule="evenodd" stroke="#603b00"/><path d="M55.399 24.44c-1.366 2.998-.309 4.756 2.616 4.323.899.395 2.146-1.797 1.716-3.25-.804-2.498-2.496-3.916-4.332-1.074zM49.024 22.94c-2.354.528-3.083 1.826-2.625 4.5 2.717 5.017 7.51-1.702 2.625-4.5z" fill="#fff" fill-rule="evenodd" stroke="#333"/><path d="M51.024 29.814c-.627 3.614-3.234 3.034-3.125 7.125 2.975-.6 4.943.156 5.25-2M70.399 26.69c5.863-2.33 4.83 6.354.5 5.5M71.524 28.064c.851-1.493 3.092 1.18 0 2.625" fill="#fca" fill-rule="evenodd" stroke="#3f2d10"/><path d="M49.649 41.94c.214 3.32 6.635 4.251 10.125-2.376" fill="none" stroke="#3f2d10"/><path d="M56.287 25.306c.386-.357-1.252-.648-1.125 1.375.098 1.567 1.742 1.065 2.375.625 1.27-.885-.638-2.313-1.25-2zM47.64 25.525c.457-.949-1.802-.937-1.125 1.25.467 1.51 2.16.618 2.25.5.93-1.21-.053-3.102-1.125-1.75z" fill-rule="evenodd" stroke="#000"/><path d="M54.135 68.946c-1.596 10.296 1.69 9.182 7.564 10.09 6.729.084 4.805-8.286 3.125-12.49-3.817-3.272-8.043-1.065-10.689 2.4z" fill="#ff0" fill-rule="evenodd" stroke="#9f854c"/><path d="M58.123 118.002c3.128.67 6.523 1.018 8.949.058 2.915-.386 5.516-.99 8.198-3.859" fill="none" stroke="#0e0300"/><path d="M55.311 73.696l8.487.433s-5.802 5.89-8.487-.433z" fill="#fff" fill-rule="evenodd" stroke="#000"/><path d="M58.602 70.015a1.212 1.516 0 11-2.425 0 1.212 1.516 0 112.425 0zM63.538 69.929a1.212 1.516 0 11-2.424 0 1.212 1.516 0 112.424 0z"/></svg>