<svg xmlns="http://www.w3.org/2000/svg" width="128" height="128" version="1.0"><defs><filter height="1.653" y="-.327" width="1.25" x="-.125" id="a"><feGaussianBlur stdDeviation="1.963"/></filter></defs><metadata/><path d="M523.31 24.985c-5.464.423-5.13-3.26-9.803.89-1.413 1.413-4.733 7.037-4.342 8.601 2.875 3.851 5.811-.128 10.418 1.44 2.276.57 8.022-9.103 10.875.514.825 2.78 2.429 2.002 5.305.564 2.231-1.116 4.291-.772 6.227-2.224 1.512-1.134 2.226-3.124 2.668-4.892.784-3.136-1.876-3.607-3.558-4.448-2.16-1.08-5.906-.413-7.56 0-2.278 5.227-6.006 3.027-10.23-.445z" fill-opacity=".728" fill-rule="evenodd" filter="url(#a)" transform="translate(-480 82)"/><path d="M107.883 111.978l-2.094 2.106c-10.378-6.209-19.676-13.797-25.904-25.315l2.04-2.492c6.687 10.655 15.34 19.222 25.958 25.7z" fill="#ccc" fill-rule="evenodd" stroke="gray"/><path d="M85.226 84.154c-.187.389-7.77 6.919-7.77 6.919l-.55-1.344s2.767-2.26 2.133-2.686c-.633-.426-5.071-6.88-5.071-6.88l2.101-1.624 5.84 6.531 2.144-1.962 1.173 1.046z" fill="#5c0027" fill-rule="evenodd" stroke="#2e0007"/><path d="M41.7 23.294s-2.122 10.96-.354 15.557c1.768 4.596 7.778 7.07 14.496 4.95 6.717-2.122 12.374-17.678 9.192-25.103-3.182-7.424-25.456-2.475-23.335 4.596z" fill="#e9d2af" fill-rule="evenodd" stroke="#7a6647"/><path d="M50.538 10.213C38.3 13.234 43.826 19.869 36.396 27.45l6.607.19c4.774-1.874 6.743-6.888 7.889-10.003 0 0 2.655 3.893 2.425 7.906 1.223.752 3.88-.543 6.128-.714 6.355-.484 1.367 7.908 19.684 14.081 7.3 2.461 22.164-.899 28.402-8.114-6.088 4.795-20.087 5.79-28.299 1.94 9.047.385 16.127-2.196 26.178-9.718-15.427 7.95-27.335 9.592-34.916-.164-7.796-10.033-13.945-12.642-19.956-12.642z" fill="#300000" fill-rule="evenodd" stroke="#0f0000"/><path d="M47.248 29.12s-4.96-2.388-3.922 2.377c1.039 4.765 3.99 2.626 3.922-2.377zM58.385 29.297s-4.96-2.388-3.922 2.377c1.039 4.764 3.99 2.626 3.922-2.377z" fill="#fff" fill-rule="evenodd" stroke="#4d4d4d"/><path d="M42.942 85.94c-2.43 2.328-4.787 2.798-7.295 7.075-3.106 6.582-1.622 10.3-1.089 14.61.35 1.327-2.148 3.834-5.204 6.572.485.713 1.385.947 2.298 1.166 4.074-4.472 12.022-3.342 7.123-8.946.917-2.888 3.81-5.27 2.701-8.676 8.312-1.645 9.105-4.409 13.53-6.632L42.942 85.94z" fill="purple" fill-rule="evenodd" stroke="#4f004f"/><path d="M48.875 86.125c-.31 3.351-1.783 5.25-.875 10.125 1.966 7.007 5.523 8.843 8.75 11.75 1.134.773.89 4.304.375 8.375.833.22 1.667-.192 2.5-.625.147-6.048 6.892-10.402-.48-11.426-1.2-2.782-.574-6.477-3.645-8.324 5.201-6.689 3.99-9.296 5.875-13.875l-12.5 4z" fill="purple" fill-rule="evenodd" stroke="#4f004f"/><path d="M56.25 46s7.5 5.5 9.25 8.25-1.25 16.25-3 20.25 1 15.25 1 15.25c-4.944 1.748-12.497 3.029-17.081 2.324-.993-.152.26-1.923-.734-2.08-2.645-.416-5.29-.836-7.935-.994 0 0 1.438-6.443 2.5-13 .248-1.53-.68-7.487-3.197-10.768-1.766-2.304-3.133-2.441-3.313-4.944-.484-6.744 4.724-3.514 7.76-14.288 0 0 12.25-1.25 14.75 0z" fill="purple" fill-rule="evenodd" stroke="#4f004f"/><path d="M47.625 45.5s-2.25 30.375-2.625 31 1.125 14.625 1.125 14.625" fill="none" stroke="#4f004f"/><path d="M42.75 45.375c-1.579 1.78 1.247 13.262 3.5 11.875 3.597-2.847 6.943-6.197 9.875-10.375l-13.375-1.5z" fill="#e9d2af" fill-rule="evenodd" stroke="#7a6647"/><path d="M46.677 30.458s-2.861-1.377-2.262 1.371c.599 2.748 2.3 1.515 2.262-1.37zM57.902 30.812s-2.861-1.378-2.262 1.37c.6 2.749 2.301 1.515 2.262-1.37z" fill="#00192e" fill-rule="evenodd"/><path d="M40 34c3.144-.734 6.303-1.508 10.75-5.5 3.462 3.364 7.489 6.276 14.25 7-2.654 4.714-4.89 9.345-1 12.75-8.6 1.589-16.25-5.83-23.5 0 1.722-4.75 1.776-9.5-.5-14.25zM47.75 61.25c2.952 3.503 6.08 6.18 11 .5M36.25 64.5c1.583.552 3.667.25 5.25-2.5" fill="purple" fill-rule="evenodd" stroke="#4f004f"/><path d="M39.5 74.5c7.515 2.148 15.419 1.569 23.25 1.5l.5 4.125c-7.917-.348-16.583.002-24.5-1.625.417-1.86.333-2.783.75-4z" fill="#5c0027" fill-rule="evenodd" stroke="#2e0007"/><path d="M38.875 106.5l-4.75-1.625L40.5 103l-6.875-3.125c4.157-3.492 5.996-1.575 8.25-.625L33.5 102l6 2.625-4.875 2.5M59.11 104.935L54.3 106.38l4.093-5.235-7.41 1.46c1.349-5.259 3.96-4.77 6.345-5.31l-5.21 7.11 6.407-1.357-2.509 4.87" fill="purple" fill-rule="evenodd" stroke="#4f004f" stroke-linejoin="bevel"/><path d="M68.128 58.738c2.226 3.06 4.136 6.753 5.038 12.463 1.665 2.244 3.166 4.488 5.134 6.731 1.496 1.292 2.086 1.185 1.922 5.133-1.074-1.633-1.944-1.606-3.61-1.17v2.918l-1.325-3.536c-1.923-2.028-4.315-5.46-6.54-8.397-2.07-2.424-4.094-5.17-5.834-9.9l5.215-4.242z" fill="#e9d2af" fill-rule="evenodd" stroke="#7a6647"/><path d="M63.443 53.965c1.995-2.143 7.371 5.42 6.983 6.099-3.299-.212-5.803 1.339-6.983 5.834-1.435-2.446-4.586-5.598-3.8-8.044" fill="purple" fill-rule="evenodd" stroke="#4f004f"/><path d="M43.202 75.002l-.619 1.679 10.96 7.16 2.299-2.564-12.64-6.275z" fill="#5c0027" fill-rule="evenodd" stroke="#2e0007"/><path d="M43.467 74.736s6.01 11.668 6.364 11.844c.354.177 3.094-1.06 2.74-1.59-.353-.53-5.833-10.607-5.833-10.607l-3.27.353z" fill="#5c0027" fill-rule="evenodd" stroke="#2e0007"/><path d="M35.313 64.625c-1.473 2.122-3.089 4.06-3.438 7.625 3.535 3.503 7.315 5.294 11 7.75.85.726 1.946 2.243 3.625 5.625 1.948.754 6.656-2.653 2.875-4.25-.671-.284-3.25-2.5-3.25-2.5l2.375-.25c-.507-1.813-3.157-1.178-4.75-1.75-1.989-2.137-3.223-4.706-6.25-6.25l.625-1.938-1.543-2.712-1.27-1.35z" fill="#e9d2af" fill-rule="evenodd" stroke="#7a6647"/><path d="M76.5 76.875l-1.625-6.25c-2.186.195-4.146 1.519-6 3.375l4.75 5.125c1.086-2.69 1.46-2.19 2.875-2.25zM43.508 76.203l-3.918-5.134c-1.94 1.026-3.235 3.005-4.225 5.434l6.363 2.887c-.04-2.9.5-2.584 1.78-3.187z" fill="purple" fill-rule="evenodd" stroke="#4f004f"/></svg>