<svg xmlns="http://www.w3.org/2000/svg" width="128" height="128" version="1.0"><defs><filter id="a" x="-.125" width="1.25" y="-.327" height="1.653"><feGaussianBlur stdDeviation="1.963"/></filter></defs><metadata/><path d="M373.748 21.566c-5.465.422-6.823-3.26-11.495.89-1.414 1.413-1.726 4.216-1.334 5.781 2.874 3.851 5.998 2.88 10.605 4.448 2.276.569 4.263.889 7.116.889 2.9 0 4.684 1.438 7.56 0 2.232-1.116 4.291-.772 6.227-2.224 1.513-1.134 2.227-3.124 2.669-4.892.784-3.135-1.877-3.607-3.558-4.448-2.161-1.08-5.907-.413-7.561 0-1.773.444-3.316-2.223-5.782-2.223-2 0-1.06 1.779-4.447 1.779z" transform="matrix(-1 0 0 1 445 89)" fill-opacity=".728" fill-rule="evenodd" filter="url(#a)"/><path d="M46.916 54.073L32.774 74.579l9.192 7.778S54.517 61.32 53.28 60.437c-1.238-.884-6.188-6.364-6.364-6.364z" fill="#7f0c11" fill-rule="evenodd" stroke="#560512"/><path d="M68.715 59.151c-.718-1.559 8.813 4.275 12.524 8.167 2.671-.854 9.254-3.373 11.718-4.768 1.849-.935 3.114-3.183 2.199-5.48-.243-1.497.284-2.733 1.47-3.37 1.056.686 1.014 1.988 1.176 3.203 1.406.08 2.739-2.225 4.295-2.68 2.44 1.308-.699 3.48-2.25 3.915 1.557-.107 3.845-1.466 4.915-1.532.806 1.913-2.393 3.297-4.09 3.659 1.855-.427 3.53-1.744 3.925.46-.795 1.736-2.934 1.806-4.615 2.364-2.593 1.156-13.68 9.209-16.413 10.056-4.155.554-13.662-3.671-17.829-4.673-1.868-2.36 2.307-7.141 2.975-9.32z" fill="#e9d2af" fill-rule="evenodd" stroke="#3f2d10"/><path d="M50.982 76.877c10.333 3.775 12.134.252 19.268-2.829 2.657 6.464 3.29 11.34 1.238 24.395l-24.396 3.36c1.776-9.662-2.055-16.43 3.89-24.926z" fill="#7f0c11" fill-rule="evenodd" stroke="#560512"/><path d="M74.313 62.75c.171-2.573-3.393-6.034-7.5-8.719.445-.402.8-.89 1.03-1.5.39-1.741-.292-5.675-2.03-7.031-1.889-.55-3.813-1.107-5.782-1.063-.281.007-.56.03-.843.063-2.369 1.15-3.31 3.602-4.344 5.875-1.666.683-5.214 2.23-6.938 3.688-2.298 1.944-4.852 9.557-3.968 12.562.883 3.005 7.252 12.103 6.5 14.156-.721 1.965-2.174 9.667.906 12 1.329 1.007 5.502 8.149-.375 18.922-.572 2.363-.916 3.48 1.062 6.016 1.66-.161 9.906 4.75 12.478 4.6 1.834-.106 1.972-1.024 1.838-1.666 1.186.163 1.984-.082 1.816-1.066.73.159 1.755-.495 1.306-1.65-.553-1.226-2.2-1.13-3.81-1.47-2.124-.446-4.007-1.178-4.972-2.53-2.318-.82-1.932-3.82-1.511-4.961 2.423-6.568.285-22.486.824-21.32.868-3.052 6.38 18.045 4.469 23.594-.17 4.74 3.242 2.47 10.655 6.49 2.47 1.605 3.455.35 4.051-.748 1.833.713 2.094.056 2.022-.888.751-.355 2.354-.81.897-1.385-1.013-5.433-11.247-1.272-10.969-7.094.188-3.927-1.008-19.837-2.467-21.548-1.546-1.813 5.271-10.627 1.708-20.186" fill="#e9d2af" fill-rule="evenodd" stroke="#3f2d10"/><path d="M51.674 63.887c1.495 3.45-4.22 12.065-4.875 14.875-.553 3.261-.495 7.034 1 10 1.098 1.131 2.687-.507 3.5 1.125-.325 1.412-1.69 1.773-3 2.125.94 1.857 2.742 3.42.875 5.5-1.21-.62-2.044-2.017-2.375-3.25-.137 1.437 1.076 4.29-1.625 3.125-1.31-.982-.672-2.42-.75-3.875-1.048 1.62-1.364 4.056-2.75 1.25-.139-1.258.468-2.133 1.125-3.125.171-1.268-.283-2.597-.5-3.875-1.593-2.694-2.045-5.694-2.5-8.75 1.815-2.386-.031-5.733 1.5-8.125-.629-.895 1.688-14.277 5.125-15.625" fill="#e9d2af" fill-rule="evenodd" stroke="#3f2d10"/><path d="M46.032 56.194c7.356 5.934 9.14 13.134 10.076 24.572l13.435-1.414c-2.08-10.375-7.23-18.852-18.738-28.285-2.523.931-4.469 1.067-4.773 5.127z" fill="#7f0c11" fill-rule="evenodd" stroke="#560512"/><path d="M49.39 78.998c10.334 3.775 16.555-.808 23.689-3.889 2.656 6.463 3.289 11.34 1.237 24.395l-24.218 2.121c1.775-9.13 3.601-14.837-.707-22.627z" fill="#7f0c11" fill-rule="evenodd" stroke="#560512"/><path d="M65.097 7.178c10.45-.062 14.584 6.834 14.724 15.802 0 1.876-.867 5.569-1.332 7.429.216 3.661 1.123 6.428.043 10.003-1.257 5.056-4.654 7.748-9.546 8.838-4.343-.085-10.18-1.56-13.435-4.596-4.66-3.813-6.064-10.268-7.778-15.91-.61-5.389 2.005-10.53 3.535-15.556 2.131-5.5 8.577-6.78 13.789-6.01z" fill="#e9d2af" fill-rule="evenodd" stroke="#3f2d10"/><path d="M78.532 14.249c.644-9.863-26.255-13.12-27.66-5.321-7.556.58-7.594 19.937-5.717 26.598 7.796-.08 3.742-9.111 8.274-11.378 1.931-.483 2.577.998 4.243 1.414 3.53-2.268-.04-9.248 5.657-11.667 2.782 1.124 6.307 2.86 9.192 0 2.466 0 3.91 1.194 6.01.354z" fill="#28170b" fill-rule="evenodd" stroke="#120a04"/><path d="M46.278 34.128c1.58 0-1.14 5.624-1.414 6.717-.424 1.695-3.492 4.185-4.596 5.657-.938 1.25-4.97.063-6.01-.354-1.752-.7-3.79.255-4.597 1.061-2.514 2.514-1.01-1.16-.353-2.475.516-1.032 2.874-2.42 3.889-3.182 1.725-1.293 2.076-2.783 3.535-4.242 1.393-1.393 3.063-1.415 4.95-1.415 1.18 0 3.155-1.479 4.596-1.767zM79.712 46.763c-.656 1.312-1.989 2.125-3.657 2.125-2.626.757-5.167 1.936-7.78 2.844-3.433.882-5.933-.87-8.47-2.844-4.273-2.21-8.702-5.97-9.593-10.906-.25-2.068.564-2.063 1.75-1.688 1.97 2.01 4.438 4.135 7.125 5.188 3.404.967 6.1 1.415 7.062-2.5 1.13-3.243 4.775-4.174 7.781-4.938 6.39-.276 7.785 8.061 5.782 12.72zm-5.719-8.781c-3.084-1.302-9.51 6.629-3.938 6.312 2.341-.78 2.828-2.294 4.22-.343 4.96 1.503 3.004-4.723-.282-5.97z" fill="#28170b" fill-rule="evenodd" stroke="#120a04"/><path d="M70.65 23.482c1.365 2.998.308 4.757-2.617 4.323-.898.396-2.77-1.796-2.34-3.25-.322-3.904 3.062-3.989 4.956-1.073zM76.65 21.482c2.353.529 3.458 2.326 3 5-2.718 5.018-7.886-2.202-3-5z" fill="#fff" fill-rule="evenodd" stroke="#333"/><path d="M73.15 25.232c.415 2.41 2.748 3.533 4 4.75.638 2.675.254 4.594-2.75 4-2.1-.976-2.944-2.594-3.25-4.75M55.65 25.732c-5.864-2.33-4.831 6.354-.5 5.5M54.524 27.107c-.85-1.493-3.092 1.18 0 2.625" fill="#e9d2af" fill-rule="evenodd" stroke="#3f2d10"/><path d="M75.65 41.232c-.966.41-3.7.191-5.376 0" fill="none" stroke="#3f2d10"/><path d="M68.326 25.262c-.387-.356 1.877-1.022 1.75 1-.098 1.568-1.993 1.94-2.625 1.5-1.27-.885.263-2.812.875-2.5zM77.15 24.878c-.458-.948 2.176-.187 1.5 2-.468 1.51-2.125.581-2.25.5-1.681-1.085-.322-3.852.75-2.5z" fill-rule="evenodd" stroke="#000"/><path d="M62.384 119.303c1.926.537 4.944 1.01 3.093 1.768M64.682 118.242c1.74.283 3.16.882 3.27 1.415M75.112 115.149c1.926.537 4.944 1.009 3.093 1.768M78.263 113.78c1.74.282 2.661 1.632 2.77 2.164" fill="none" stroke="#3f2d10"/><path d="M45.5 55.875c-.213-1.773-.531-4.099 1.125-4.875 1.88-1.97 10.876-1.146 4.375 5.125-.692.772-3.62-.132-5.5-.25zM48.875 52l-1.25 2.25M49.508 53.395l-2.516-.54" fill="#fdff00" fill-rule="evenodd" stroke="#804500"/><path d="M63 57.125c-1.233-.394-2.213-.159-2.125 2.75M67.378 61.443c-.88-.95-1.85-1.228-3.204 1.348M69.378 65.443c-.88-.95-1.85-1.228-3.204 1.348M68.003 58.068c-.88-.95-1.85-1.228-3.204 1.348" fill="none" stroke="#120a04"/></svg>