<svg xmlns="http://www.w3.org/2000/svg" width="128" height="128" version="1.0"><defs><filter id="a" x="-.125" width="1.25" y="-.327" height="1.653"><feGaussianBlur stdDeviation="1.963"/></filter></defs><metadata/><path transform="matrix(1.0228 0 0 1.0831 49.628 -61.641)" d="M8.835 155.983c-1.872.606-6.114-.639-8.895-1.334-2.357-.59-4.728 1.17-5.782 2.224-1.414 1.413-1.726 4.217-1.335 5.782.832 3.327 5.383 3.104 7.561 2.668 2.008-.401 4.245 1.284 6.227 1.78 2.276.568 4.263.889 7.116.889 2.9 0 4.684 1.438 7.56 0 2.232-1.116 4.291-.772 6.227-2.224 1.513-1.134 2.227-3.124 2.669-4.892.784-3.136-1.877-3.607-3.558-4.448-2.161-1.08-5.907-.414-7.561 0-1.773.443-3.316-2.224-5.782-2.224-2 0-1.06 1.78-4.447 1.78z" fill-opacity=".728" fill-rule="evenodd" filter="url(#a)"/><path d="M58.12 107.67c-2.949.58-6.524.87-9.027 2.691-.557.668-.62 1.047-.58 1.87.22.71 1.004 1.051 1.186 1.781 2.555.239 4.847 1.417 7.515.557 2.802.036 5.635-.327 7.955-2.016.536-1.588-.04-3.741-.164-5.501-2.584.812-4.285 1.3-6.886.618z" fill="#e6e6e6" fill-rule="evenodd" stroke="#333"/><path d="M49.08 112.793c3.019-.517 6.124.847 9.267.426 2.918-.097 4.433-1.512 6.576-1.651" fill="none" stroke="#333"/><path d="M67.921 108.517c-2.349 1.256-6.503.926-8.824 2.887-.396.835-.38 1.8-.492 2.71.134 1.201.664 1.077 1.546 1.825 2.383.922 5.217 1.087 7.644.637 2.13-.074 4.642-.563 6.126-2.188 2.292-2.146 1.554-3.034 1.315-6.023-2.762.21-4.545.152-7.315.152z" fill="#e6e6e6" fill-rule="evenodd" stroke="#333"/><path d="M51.015 70.345c-.707 1.103.113 3.476.178 4.734-.271 2.59 1.097 5.793.295 8.297-.586 3.56-2.393 2.77-3.687 3.663-1.407.062-2.306-.163-2.66 1.036.823.831 2.186.36 3.32.277.338 1.264-2.192 3.036-2.311 4.538.9.723 3.03-1.294 3.133-2.787.196 1.437-.606 3.775-.465 4.76 1.028.66 2.264-3.351 2.303-4.974-.037 1.768-.668 4.102 1.41 4.046.552-.177.337-2.447.527-4.082.56-2.578 2.353-5.58 2.607-8.227-.28-3.884 1.581-8.708-.116-12.309-2.497-1.253-2.68.008-4.534 1.028z" fill="#ffe6d5" fill-rule="evenodd" stroke="#3f2d10"/><path d="M56.528 56.493c-2.506 2.597-3.987 4.924-5.064 8.315-1.345 2.394-1.973 3.649-2.272 6.432 3.683.696 6.349.028 10 .53 1.672-4.442 1.511-7.877 1.603-12.556" fill="#ff9fec" fill-rule="evenodd" stroke="#42002a"/><path d="M67.153 86.968c.103 2.218.366 4.236.38 6.442.482 2.364.117 4.716-.049 7.055.478 2.052-.48 6.973.923 8.415 2.441 1.846 5.303 1.406 6.659-.934-.233-.93.386-2.722-.023-3.676-1.194-2.545-.628-5.448-.232-8.129.054-3.521.713-6.926.58-10.45-2.012-.745-6.968-.206-8.238 1.277zM57.532 86.675c-.134.723-.384 2.603-.138 3.832.876 2.596 1.262 5.464.613 8.106.015 2.591-1.428 7.715.426 9.62 2.642 1.047 4.237 1.98 6.482-.315-1.156-3.578-.982-8.166-.431-11.893.027-3.53.713-6.902.58-10.45-2.012-.745-6.262-.383-7.532 1.1z" fill="#00325c" fill-rule="evenodd" stroke="#00192e"/><path d="M79.574 88.395c-2.604-3.215-.435-6.53-.103-10.213-1.14-4.605 1.821-9.52.844-14.123-.433-2.885-1.39-5.483-2.838-7.999-1.656-2.241-3.869-3.517-6.68-3.66-3.608.528-7.25.041-10.831.82-2.643 1.151-4.465 3.058-4.76 5.912 1.385 2.41-1.716 7.484-4.398 9.976-.15 1.723 1.725 3.728 3.444 3.865 1.005 2.092.568 3.071.907 5.49.83 4.825-1.113 6.555-.58 11.367 4.161-2.384 7.179.21 11.903-.32 3.962-1.417 10.634 1.892 13.092-1.115z" fill="#ff9fec" fill-rule="evenodd" stroke="#42002a"/><path d="M81.435 79.911c-.362 2.967-1.603 5.721-2.178 9.04-1.512 2.406-3.933-.248-4.562.92.302 1.311 1.694 1.772 2.91 2.099-.54 1.603-1.305 2.555-.937 4.984 1.124-.577 2.148-3 2.455-4.144.127 1.334-.124 4.486 1.258 4.028.03-.538.687-2.435.759-3.787.973 1.505.642 4.705 1.928 2.098.13-1.168.128-2.731-.482-3.653-.159-1.178-.55-1.6-.348-2.787 1.479-2.503 2.71-6.102 3.133-8.94-1.247-3.59-2.28-7.474-3.348-10.47-8.592-1.495-3.676-1.424-4.855 1.002.31 2.719 1.96 7.735 4.267 9.61z" fill="#ffe6d5" fill-rule="evenodd" stroke="#3f2d10"/><path d="M72.417 60.234c.12 2.36.901 4.462 1.665 6.67.617 2.262.671 3.13.695 5.46 3.903-.415 6.206-1.493 10.105-2.722-.782-3.705-3.303-6.863-5.15-10.113-1.37-1.92-3.298-2.139-5.642-1.447" fill="#ff9fec" fill-rule="evenodd" stroke="#42002a"/><path d="M59.327 55.167c1.614 4.259 9.61 2.855 12.444-1.197-3.424-1.614-2.732-5.595-5.205-6.801-2.104-.24-2.025-.362-4.029.222-1.325 1.295-.51 6.541-3.21 7.776z" fill="#ffe6d5" fill-rule="evenodd" stroke="#3f2d10"/><path d="M65.6 12.15c-10.125-.06-14.838 6.092-14.973 14.784 0 1.818 1.812 6.103 2.263 7.906-.21 3.548-1.354 6.053-.307 9.517 1.218 4.9 4.509 7.509 9.249 8.566 4.208-.083 7.212-2.043 10.365-4.985 4.516-3.696 6.936-9.42 8.597-14.888.59-5.223-2.915-10.293-4.398-15.164-2.065-5.33-5.747-6.483-10.796-5.737z" fill="#ffe6d5" fill-rule="evenodd" stroke="#3f2d10"/><path d="M60.15 29.348c-1.117 2.418-.253 3.836 2.138 3.487.735.319 2.265-1.449 1.914-2.621.263-3.149-2.504-3.217-4.052-.866zM53.78 28.207c-1.924.426-2.827 1.876-2.452 4.032 2.221 4.047 6.446-1.775 2.452-4.032z" fill="#fff" fill-rule="evenodd" stroke="#333"/><path d="M56.423 32.896c-.403 2.336-1.913 2.424-3.125 3.603.802 1.703 3.459 2.194 3.813 1.523" fill="#ffe6d5" fill-rule="evenodd" stroke="#3f2d10"/><path d="M61.447 29.643c.316-.287-1.534-.824-1.43.807.08 1.264 1.629 1.565 2.145 1.21 1.038-.714-.214-2.269-.715-2.017zM52.649 30.09c.374-.764-1.78-.15-1.226 1.614.382 1.217 1.737.468 1.839.403 1.374-.875.263-3.107-.613-2.016z" fill-rule="evenodd" stroke="#000"/><path d="M59.173 114.126c2.904.623 6.232 1.565 8.484.673 2.706-.359 5.209-1.009 7.7-3.673" fill="none" stroke="#333"/><path d="M55.14 25.602c4.343-.385 10.711-.548 14.544-.619.187-.744.705-1.758.884-2.475-.53 3.706.652 7.243 1.414 10.784.738 3.599-.914 6.885-2.588 11.091 2.951 1.296 10.546.973 14.934-.381-3.063-5.409-1.805-9.406-1.209-13.008 1.405-10.179-1.453-15.632-9.369-22.097-4.36-1.311-7.669-1.847-12.109-.973-7.027 1.172-10.316 3.98-12.463 10.518-1.06 2.918-.884 5.873-.884 8.84 2.539-1.123 4.157-.809 6.846-1.68z" fill="#300000" fill-rule="evenodd" stroke="#000"/><path d="M54.835 45.931c.412-.046.95-.977 1.414-1.326.609-.096 1.36 2.054 2.652.177.954.898 1.856 1.324 3.094 1.238-1.012 2.248-6.881 1.769-7.16-.089z" fill="#d40000" fill-rule="evenodd" stroke="#560505"/><path d="M60.434 73.978c-2.303-.199-9.57-2.71-6.518-5.833 2.418-1.47 8.037 1.541 8.256 2.722.218 1.18-1.628 3.17-1.738 3.11z" fill="#fff" fill-rule="evenodd" stroke="gray"/><path d="M54.19 72.963c4.451.86 4.62-2.197 4.625-2.25" fill="none" stroke="#42002a"/><path d="M60.933 71.182c-.169-2.305 1.16-9.879 4.727-7.36 1.834 2.155-.25 8.18-1.38 8.583-1.131.402-3.388-1.105-3.347-1.223z" fill="#fff" fill-rule="evenodd" stroke="gray"/><path d="M63.53 71.565c1.627-1.641 8.21-5.613 8.654-1.268-.421 2.798-6.333 5.183-7.38 4.595-1.046-.59-1.39-3.28-1.275-3.327z" fill="#fff" fill-rule="evenodd" stroke="gray"/><path d="M64.946 74.322c2.068 1.032 7.9 6.042 3.913 7.822-2.79.476-6.905-4.392-6.674-5.57.232-1.178 2.68-2.348 2.761-2.252z" fill="#fff" fill-rule="evenodd" stroke="gray"/><path d="M62.973 75.282c-.813 2.164-5.192 8.484-7.376 4.702-.762-2.726 3.654-7.323 4.85-7.215 1.196.109 2.613 2.423 2.526 2.513z" fill="#fff" fill-rule="evenodd" stroke="gray"/><path d="M62.569 70.188s-1.14-1.126-2.48.687c-1.341 1.813 1.072 6.75 3.217 5.938 2.145-.813 3.284-6.25-.737-6.626z" fill="#ff0" fill-rule="evenodd" stroke="#d07f1d"/><path d="M63.44 73.838c1.362 2.56 7.67 3.37 9.265-.832" fill="none" stroke="#42002a"/><path d="M65.851 29.543c-.402 7.251-7.03 5.439-7.786 1.67 0-.87-.646-.536-1.427-.536.224 5.7-7.168 5.39-7.198.161-.255-4.43 7.33-5.167 7.28-.335.872.83.54.607 1.424.015.645-5.415 6.719-5.584 7.67-1.18 1.537.073 3.03-.288 4.5-.625" fill="none" stroke="#000"/></svg>