<?xml version="1.0" encoding="UTF-8"?>
<svg width="128" height="128" version="1.0" xmlns="http://www.w3.org/2000/svg">
 <defs>
  <filter id="a" x="-.123" y="-.185" width="1.246" height="1.369">
   <feGaussianBlur stdDeviation="2.233"/>
  </filter>
 </defs>
 <path d="M64.067 105.558c-2.606-2.251-6.304 1.497-10.221 1.497-7.552-.124-14.505 4.4-11.727 12.107 1.743 7.656 8.696 5.466 15.45 5.587 8.147-.374 16.863-6.46 13.65-10.21.84-.841 1.054-2.41 2.005-3.122 3.235-2.427 2.62-3.801 6.088-6.114 1.391-2.34 20.087-4.837 12.334-14.62-6.063-3.22-16.957 11.627-19.758 13.383-2.08 2.063-4.924 1.001-7.821 1.492z" fill-opacity=".77" fill-rule="evenodd" filter="url(#a)"/>
 <g stroke="#333" stroke-width="1.046">
  <path transform="matrix(.6922 -.65996 .65977 .6924 -175.09 192.6)" d="M282.9 109.142c2.356 1.638 6.339 1.45 8.575 3.839.318.942-.101 3.292-.096 4.278-.294 1.268-1.146 1.992-2.184 2.68-2.665.686-5.417-.417-7.957-1.203-2.27-.348-4.895-1.187-6.278-3.111-2.183-2.583-1.516-4.713-.884-7.877 2.929.571 5.862 1.045 8.825 1.394z" fill="#e6e6e6" fill-rule="evenodd"/>
  <path transform="matrix(.6922 -.65996 .65977 .6924 -175.09 192.6)" d="m290.5 118.79c-2.895 1.588-6.5-0.103-8.845-1.552-2.85-0.724-5.362-1.628-7.692-4.79" fill="none"/>
 </g>
 <path d="M63.868 86.236c2.725-1.923 9.146-2.501 13.499-4.983 2.4.64 4.781-.14 7.195-.167 2.078.618 5.447.196 6.841 1.728 1.747 2.625 1.427 6.472-1.062 7.722-.94-.296-1.521-.149-2.477-.628-2.54-1.385-5.558-.982-8.338-.74-3.621-.162-6.51 3.563-10.123 3.21-4.02-.255-7.137-4.927-5.535-6.142z" fill="#00325c" fill-rule="evenodd" stroke="#00192e"/>
 <path d="M52.968 122.583c-.817.225-2.908.383-3.67.149-1.779-1.003-1.77-4.87-.282-6.904.908-1.985 1.312-5.72 3.683-6.932 1.676.02 6.656-1.663 8.153.66-.456.402.347 2.629.007 3.084-3.206 4.3-3.015 8.849-7.891 9.943z" fill="#e6e6e6" fill-rule="evenodd" stroke="#333"/>
 <path d="M55.906 85.248c-.139.745-3.048 5.385-2.795 6.65.902 2.674-1.092 4.953-1.76 7.674-.53 2.668-1.241 8.522.669 10.483 2.004.959 7.01-.267 8.726-.597-1.192-3.685-.42-8.584.147-12.42.028-3.636 7.187-7.084 7.05-10.738-2.073-.766-10.729-2.579-12.037-1.052z" fill="#00325c" fill-rule="evenodd" stroke="#00192e"/>
 <path d="M81.864 83.83c-2.682-3.311-4.19-4.777-3.848-8.568-.83-3.35-.44-6.667-.496-9.997-.023-1.382 2.642-2.554 2.347-3.945-.25-1.667.478-3.475 1.276-5.013.623-1.202-1.31-2.369-1.966-3.506-1.706-2.308-6.017-3.382-8.913-3.53-3.716.544-7.467.043-11.157.845-2.723 1.185-10.903 3.256-11.206 6.195-.132 2.654 5.007 2.08 5.691 7.028-.37 4.258-1.17 10.131-.57 14.401.855 4.968-1.33 6.08-.78 11.034 4.287-2.455 8.353 2.84 13.219 2.295 4.081-1.46 13.871-4.143 16.403-7.24z" fill="#1a1a1a" fill-rule="evenodd" stroke="#000"/>
 <path d="M52.684 18.95c-1.348 4.591.605 9.999 1.809 14.496-1.744 5.6.511 9.69 5.82 14.158 6.145 1.998 13.02 1.569 18.334-5.053 1.307-10.883-.05-4.277 2.423-13.368.818-11.779-3.36-19.763-14.43-18.907-7.651-.25-10.935 3.697-13.956 8.674z" fill="#e9d2af" fill-rule="evenodd" stroke="#3f2d10"/>
 <path d="M63.366 46.439c-1.246.664-2.181 2.645-2.443 4.434 2.084 2.462 8.436 2.476 11.477.193-.599-2.572-.202-2.937-2.407-4.723M80.391 23.846c7.09-2.829 4.148 6.865.144 5.743M54.079 25.834c-7.408-1.837-3.175 7.366.639 5.708" fill="#e9d2af" fill-rule="evenodd" stroke="#3f2d10"/>
 <path d="M54.415 40.509c-.96 2.072-.098 3.497.76 5.41 1.255 1.796 2.646 1.529 4.734 1.776 1.4-1.137 1.644-1.434 1.69-3.212-.34-2.397-.78-1.76-2.704-2.79-1.293-.332-3.142-1.184-4.48-1.184zM79.195 39.763c1.22 1.93.55 3.456-.055 5.464-1.011 1.943-2.425 1.857-4.464 2.373-1.535-.946-1.816-1.21-2.091-2.967.028-2.42.546-1.846 2.32-3.116 1.24-.497 2.963-1.58 4.29-1.754z" fill="#28170b" fill-rule="evenodd" stroke="#120a04"/>
 <path d="M67.353 46.585c15.943-8.05 9.87-9.29 13.096-12.826 4.281-2.599 5.058-14.017.493-20.27-3.369-4.614-7.955-8.314-13.91-6.245-14.7-3.038-20.335 16.8-13.108 29.426 4.943 4.116 2.508 6.35 13.429 9.915z" fill="#28170b" fill-rule="evenodd" stroke="#120a04"/>
 <path d="M85.272 32.055c-.12-3.837-2.434-8.278-4.414-11.294-1.248-1.024-4.444-.646-5.524-2.307.028-1.682 3.263-.556 4.42-1.267-1.242-1.887-6.446-4.756-5.106-7.564 1.255.419 5.52 3.33 6.07 4.651-.152-1.665-4.55-6.649-1.794-5.965 1.42.805 3.807 4.618 4.164 6.254.665-2.09-1.713-7.639.132-4.78.377 1.397 2.177 5.24 1.756 6.524.088 1.482.773 2.884 1.226 4.284 2.019 2.683 4.38 7.675 5.404 11.04-1.232 3.142-.202 4.816-1.167 7.897-.19 1.319-.562 7.193-1.011 8.357-2.477 1.583-5.457 1.872-7.157-.792-2.074-3.565 2.937-11.689 3-15.038z" fill="#e9d2af" fill-rule="evenodd" stroke="#3f2d10"/>
 <path d="M77.704 53.055c.67-2.32 2.825-6.467 2.887-8.865 4.013.488 6.135 2.27 10.131 3.596-.451 1.974-3.388 5.01-3.804 6.997-.678 2.615-2.294 3.434-3.485 5.684-1.528 1.637-4.957 3.535-6.77 4.976" fill="#1a1a1a" fill-rule="evenodd" stroke="#000"/>
 <path d="M67.127 29.309c-1.668.2 3.288 6.493 3.761 7.554.734 1.646 7.63 4.085 9.045 5.42 1.201 1.135 6.712 1.218 7.74.669 1.732-.924 4.048-.224 5.035.481 3.08 2.202.872-1.291-.044-2.525-.72-.97-3.308-2.932-4.645-2.698-3.536.62-6.109-3.648-7.546-5.324-1.365-1.592-5.064-1.626-7.058-1.387-1.246.15-4.716-2.084-6.288-2.19z" fill="#28170b" fill-rule="evenodd" stroke="#120a04"/>
 <path d="M58.387 62.525c-.457.036-.371-.53-.237-.804.156-.31-.123-.45-.377-.463-.324-.25-.037-.837.358-.584.283.063.193-.259.22-.427.064-.6.028-1.231.302-1.784.23-.315.694-.182.94.041.287.2.553.6.36.947-.226.302-.631.095-.657-.236-.273-.41-.236.268-.28.465-.036.3-.064.6-.087.9.26.262.797-.17.944.315.006.428-.523.446-.838.47-.318.023-.275.333-.292.559-.012.244-.051.553-.331.626l-.014-.013-.011-.012zm3.618-2.33c.354-.045.784.17.803.561-.017.406-.491.706-.867.614-.406-.097-.22.557.059.596.353.118.63-.298.979-.111.322.349-.349.593-.626.63-.364.103-.763-.059-1.022-.317-.365-.434-.287-1.095.003-1.545.154-.22.38-.448.67-.429zm.118.523c-.219-.055-.337.273-.054.187.079-.025.162-.135.054-.187m3.923 2.107c-.326-.092-.32-.478-.4-.747.03-.208-.182-.558-.244-.174-.11.315-.421.618-.757.628-.41-.116-.587-.602-.553-.993.004-.42.184-.957.654-1.036.26.04.464-.089.463-.36.16-.712-.063-1.46.141-2.166.211-.27.796-.04.676.337.022.59-.01 1.181-.065 1.768.058.67.175 1.334.315 1.99.06.252.398.661-.057.73a.968.968 0 01-.173.023zm-1.215-1.284c.188-.113-.028-.523-.1-.194-.084.114-.052.525.1.194zm3.345.99c-.462-.092-.705-.584-.789-1.009a1.489 1.489 0 01.22-1.161.949.949 0 011.186-.061c.344.176.293.66.605.867.165.29.178.68-.05.942-.215.373-.678.438-1.07.42l-.102.003zm.3-.56c.376-.033.434-.603.138-.783-.109-.22-.453-.682-.635-.277-.055.345-.084.87.252 1.067.08.017.164.007.244-.007zm2.303.554c-.267-.212-.182-.62-.19-.924.037-.413-.052-.837.036-1.242.13-.286.618-.24.636.091.033.125.01.273.084.381.296-.071.734-.257.977.085.183.211.07.633-.248.507-.212-.025-.486-.126-.62.106-.207.285-.04.686-.193.964a.676.676 0 01-.482.032m4.908 0c-.302-.082-.49-.38-.525-.676-.243-.253-.335.333-.588.39-.263.185-.623.34-.943.233-.325-.24-.236-.679-.231-1.031.01-.544.288-1.181.867-1.307.347-.048.897-.112 1.006.33a.989.989 0 00.105.497c.076.218.171.432.27.635.048.323.664.596.25.894-.058.05-.14.05-.211.035zm-1.496-.61c.25-.267.492-.59.537-.96-.113-.368-.654-.107-.68.194-.036.258-.184.683.04.848a.275.275 0 00.103-.082" fill="#fff" font-family="handfont" font-size="6.517" font-weight="400"/>
 <path d="M48.179 25.467c1.097-3.679 4.482-10.37 7.167-12.78 1.47-.67 4.592.022 6.06-1.307.403-1.633-3.141-.882-4.079-1.865 1.683-1.506 7.482-2.415 6.904-5.472-1.32.083-6.221 1.272-7.091 2.41.573-1.571 6.166-4.197 3.328-4.242-1.579.416-4.93 2.424-5.693 3.914.555-2.19 4.864-5.398.335-3.106-.721 1.254-2.685 2.961-2.606 4.31-.464 1.41-1.485 2.59-2.28 3.828-2.638 2.077-7.22 9.31-9.07 12.302.387 3.353-.885 13.624-.739 16.85-.153 1.324.935 7.043 1.071 8.283 1.99 2.164 4.993-2.525 7.317-4.666 2.916-2.916-1.419-15.205-.624-18.46z" fill="#e9d2af" fill-rule="evenodd" stroke="#3f2d10"/>
 <path d="M53.874 52.165c-1.006-3.444-2.169-7.277-3.153-11.456-4.01.52-7.885 1.351-11.87 2.71.589 5.82 5.437 10.512 8.64 14.304 1.24 1.413 3.726 4.614 6.737 5.341" fill="#1a1a1a" fill-rule="evenodd" stroke="#000"/>
 <path d="M55.597 122.463c-.816.225-3.983.623-4.744.388-1.78-1.002-1.77-4.87-.283-6.903.908-1.986.932-3.318 3.302-4.53 1.676.02 5.483-1.076 6.98 1.248-4.76 4.184.14 8.587-5.255 9.797z" fill="#e6e6e6" fill-rule="evenodd" stroke="#333"/>
 <path d="M53.46 55.336c6.473 2.265 17.72 2.931 25.456.53-.71 3.554.203 12.516 1.255 16.271.718 3.67 2.108 6.336 4.225 8.655-3.18 3.979-23.346 6.226-27.318 5.234.331-2.925-.546-8.6-1.384-11.61-2.378-5.588-3.229-12.825-2.234-19.08z" fill="#f2f2f2" fill-rule="evenodd" stroke="#666"/>
 <path d="M60.869 65.859c-.243.019-.462.074-.353-.188-.25-1.137-.818-2.262-1.046-3.4-.111-.506-.235-1.017-.276-1.52.173-.305.722-.322 1.134-.385a19.233 19.233 0 012.472-.065c.471.191.833.52 1.161.828.417.418.306.938-.067 1.253-.427.46-1.237.634-1.646 1.103-.298.304.21.679.634.82.66.235 1.378.466 1.844.92.29.215.645.776-.04.653-.586.09-.986-.342-1.425-.598-.334-.29-.796-.4-1.134-.666-.363-.445-.98-.08-.82.297-.07.235.22.606-.02.759l-.418.189zm.06-2.633c.807-.347 1.688-.68 2.189-1.271.258-.266-.003-.678-.454-.826-.664-.266-1.39-.193-2.06-.182-.59-.017-.122.588-.083.858.179.471.27.948.409 1.421zm7.424 2.589c-.153-.79-.245-1.589-.646-2.368-.226-.518-.448-1.035-.669-1.553-.375-.247-.919-.201-1.363-.263-.534-.031-1.272-.122-1.515-.572-.095-.358.808-.137 1.133-.22 1.68-.012 3.364-.078 5.079.115.392.02 1.113.221.874.577-.359.252-.97.166-1.467.173-.414.059-1.108-.166-1.31.122-.123.504.349 1.02.477 1.53.25.796.461 1.602.475 2.391.126.431-.516.446-.922.245-.08-.042-.135-.11-.146-.177zm-5.326 9.006c-.267.25.201.698.341 1.008.196.325.501.7.338 1.021-.338.304-1.198.05-1.228-.398-.457-1.237-.769-2.484-1.082-3.727-.024-.324-.339-.802.173-.944.805-.288 1.788-.301 2.728-.304.556-.04 1.097.167 1.433.54.307.18.377.513-.115.355-.951-.088-1.953-.222-2.831-.034-.401.208-.128.694-.074 1.03.01.405.562.763 1.102.702.62-.002 1.22-.253 1.868-.036.624.27.166.729-.332.725-.742.11-1.536.094-2.32.062zm10.481 3.367c-.281-.457-.325-.946-.454-1.417-.337-1.46-.505-2.92-.881-4.38-.13-.058-.334.37-.497.49-.362.38-.846.708-1.321.994.296.186 1.02.409.916.685-.279.365-.904.21-1.238-.135-.85-.564-1.69-1.137-2.56-1.684.36 1.303.738 2.608 1.007 3.912.097.379-.7.578-1.023.229-.272-.37-.27-.78-.393-1.166-.248-1.146-.514-2.293-.684-3.437-.028-.402.657-.441 1.09-.304.45.159.868.4 1.103.73.254.215.592.765.979.602.499-.427 1.03-.833 1.508-1.273.255-.255.58-.49.595-.84.29-.218 1.092-.185 1.108.261.236.75.392 1.502.63 2.251.305 1.162.491 2.328.885 3.488.197.327.332.726-.107.911-.152.098-.44.275-.663.083z" font-family="Rufscript" font-size="12" font-weight="400"/>
</svg>
