<svg xmlns="http://www.w3.org/2000/svg" width="128" height="128" version="1.0"><defs><filter id="a" x="-.125" width="1.25" y="-.327" height="1.653"><feGaussianBlur stdDeviation="1.963"/></filter></defs><metadata/><path d="M39.913 111.732c-1.872.605-4.523 1.482-7.304.787-4.787-.483-9.145 2.665-8.53 7.121 2.874 3.851 10.4 2.509 15.007 4.077 2.276.569 7.363-3.04 8.878-5.457 1.663-2.652 9.8 6.9 12.677 5.462 5.926-.664 14.137-6.539 6.044-10.131-2.16-1.08-4.845-5.54-6.5-5.127-1.773.443-10.353 2.373-12.82 2.373-1.999 0-4.064.895-7.452.895z" transform="matrix(-1 0 0 1 113.245 0)" fill-opacity=".728" fill-rule="evenodd" filter="url(#a)"/><path d="M46.87 115.007l-1.59 1.944 1.678 2.829 1.68-1.06v2.474l4.154.442.265-1.59 1.591 1.767 3.536-2.033-.53-2.121 1.502.707 2.21-2.564-.707-2.386 1.502.177.707-2.917-.795-2.033.972.177-.265-2.564-1.237-.441-14.673 9.192z" fill="#241c1c" fill-rule="evenodd"/><path d="M51.755 106.793c-1.356 2.528-4.143 5.216-5.053 8.358.547 2.504 1.016 3.78 3.463 4.244 2.863 1.45 6.42.138 8.68-3.494 1.99-1.964 2.567-4.588 2.927-6.93.775-3.292-.786-4.887-2.784-7.422a117.974 117.974 0 01-7.233 5.244z" fill="#483737" fill-rule="evenodd" stroke="#241c1c"/><path d="M56.872 84.409c-2.177 2.724-1.962 3.797-4.825 8.185.519 2.546.912 5.586.733 8.104.515 2.209-1.494 5.094.017 6.646 2.63 1.988 6.665 1.895 8.125-.625-.166-9.207 3.813-13.171 4.648-20.68-2.167-.801-7.33-3.226-8.698-1.63z" fill="#00325c" fill-rule="evenodd" stroke="#00192e"/><path d="M67.25 114.625l-2 3.625 2.625 1.5 1.25-1.125.5 2 3.625 1 1.125-2 .875 2.25 3.5.125 1.25-1.75.75 1.375 3.875-.625v-1.5l1.75.5 1.5-2.625-3.5-2.125-17.125-.625z" fill="#241c1c" fill-rule="evenodd"/><path d="M76.44 110.214c3.175.624 5.789 1.221 8.485 3.182.6.72.573 1.413.53 2.298-.237.764-.51 1.513-.707 2.298-2.752.257-5.792 1.906-8.666.98-3.019.04-6.07-1.018-8.57-2.836-.577-1.71.043-4.027.177-5.922 2.784.875 5.949.733 8.75 0z" fill="#483737" fill-rule="evenodd" stroke="#241c1c"/><path d="M73.09 86.62c.145.778 3.188 5.63 2.923 6.953-.943 2.795.164 5.052.863 7.896-.016 2.79.872 7.45-1.125 9.5-2.846 1.127-5.707 1.846-8.125-.625 1.245-3.851.46-7.54-.134-11.551-.03-3.801-2.89-6.546-2.747-10.367 2.168-.8 6.977-3.403 8.345-1.807z" fill="#00325c" fill-rule="evenodd" stroke="#00192e"/><path d="M50.19 91.35c2.806-3.462 1.261-9.456.904-13.42 1.228-4.958-.307-9.843.746-14.798.466-3.106-2.396-5.975-.836-8.683 1.784-2.413 6.292-3.536 9.321-3.691 3.886.569 7.809.044 11.667.884 2.848 1.238 7.81 2.166 8.127 5.239.138 2.773-2.756 7.191-1.47 9.696.388 4.451 1.709 9.48 1.082 13.944-.894 5.193.64 7.355.065 12.534-4.482-2.565-9.734-.03-14.823-.6-4.268-1.525-12.134 2.13-14.782-1.106z" fill="#262d26" fill-rule="evenodd" stroke="#142214"/><path d="M70.36 54.914c-.657 4.859-9.39 5.336-13.35 1.777.626-2.689.793-5.782 3.1-7.65 2.149-.765 4.434-.648 6.679-.525 2 .928 3.555 4.614 3.57 6.398z" fill="#e9d2af" fill-rule="evenodd" stroke="#3f2d10"/><path d="M78.887 17.29c1.409 4.801-.634 10.454-1.892 15.156 1.823 5.854 1.586 11.192-3.966 15.862-6.425 2.088-20.155 3.054-22.354-5.99-1.367-11.378 1.113-4.825-1.473-14.33-.855-12.313 3.514-20.66 15.09-19.765 8.001-.262 11.436 3.865 14.595 9.068z" fill="#e9d2af" fill-rule="evenodd" stroke="#3f2d10"/><path d="M74.425 20.561s-7.16-4.508-7.072-2.563c.089 1.944 7.072 2.651 7.072 2.563zM63.807 34.89c5.561-.312 8.43 2.972 11.61 4.942.539.18.914.909 1.334 1.4 1.68 3.514-.571 13.717-3.714 15.903-.326-1.589-3.88-3.825-4.991-3.913-1.622-.852-1.51 3.477-3.15 3.192-.717-2.458-3.085-4.014-4.734-3.224-.925-.13-1.337 3.398-3.877 2.578.257-1.69-1.816-5.826-2.783-6.148-1.729-1.093-2.482-2.952-2.804-5.622.175-2.648 1.475-5.785 3.737-7.084 2.946-.834 6.309-2.534 9.372-2.025zm.774 3.368c-1.815.526-5.341 1.592-6.743 2.769-.563 2.321.537 4.632 2.932 4.352 1.556-1.877 4.67-1.416 6.418.344 2.086.372 2.958-2.11 2.905-3.847-.677-1.825-3.933-2.644-5.512-3.618z" fill="#372416" fill-rule="evenodd" stroke="#120a04"/><path d="M60.676 24.017c1.415 2.976.387 4.751-2.545 4.366-.891.41-2.8-1.75-2.394-3.21-.386-3.899 2.996-4.04 4.939-1.156zM68.589 21.886c2.592.486 3.834 2.263 3.375 4.945-2.9 5.066-8.69-2.058-3.375-4.945z" fill="#fff" fill-rule="evenodd" stroke="#333"/><path d="M57.3 25.719c-.624.02.721-2.049 2.305-.526 1.227 1.18-.052 2.781-.951 2.915-1.806.268-2.13-2.179-1.355-2.39zM69.18 25.1c-.473-.94 2.174-.223 1.533 1.976-.442 1.517-2.115.616-2.242.537-1.698-1.057-.385-3.846.709-2.512z" fill-rule="evenodd" stroke="#000"/><path d="M64.979 29.568c.613 1.833 1.444 6.911-3.812 5.583-1.036-3.599.441-6.641 1.944-7.518" fill="#e9d2af" fill-rule="evenodd" stroke="#3f2d10"/><path d="M67.121 42.55c-1.25-1.836-5.857-1.813-6.965.884" fill="none" stroke="#3f2d10"/><path d="M49.912 22.41c-7.414-2.958-4.337 7.177-.151 6.003M48.937 23.926c-2.128-1.583-2.942 1.604.174 2.998M77.428 24.488c7.747-1.92 3.32 7.7-.668 5.967M78.187 26.123c2.324-1.279 2.696 1.989-.58 2.945M92.397 38.903c2.058-2.59 3.828-5.921 3.95-9.241-2.573-2.67-3.051-4.566 1.13-3.088.073-2.08-.752-5.467 1.887-6.389.782 1.075.507 3.441-.195 5.672.813-1.192 2.543-1.713 1.87.08.94-.716 2.162-.562 1.44 1.458 1.7-.913 3.505-4.485 4.602-1.801-.485 1.17-3.206 3.499-4.26 4.05-.763 1.029-1.713 2.324-2.14 3.547.096 3.129-.956 5.974-2.032 8.87-2.792 2.803-4.3 8.501-7.935 10.486-2.854-.653-5.702-3.183-5.555-6.082.355-3.743 5.308-5.416 7.238-7.562z" fill="#e9d2af" fill-rule="evenodd" stroke="#3f2d10"/><path d="M75.918 53.058c1.706-1.86 8.334-8.111 9.506-10.328 4.947.025 5.715 7.386 8.843 10.485-1.34 1.639-5.732 2.076-7.045 3.744-2.964 2.42-7.042 5.635-11.008 5.195" fill="#262d26" fill-rule="evenodd" stroke="#142214"/><path d="M55.532 75.497l1.768-1.856 4.154.53 1.15-1.59 2.562-1.326 7.337.884c1.908 5.222 3.583 7.755 1.414 14.407 0 0-3.182 2.475-3.359 1.68-.177-.796-14.672-12.817-15.026-12.729z" fill="#1a1a1a" fill-rule="evenodd" stroke="#000"/><path d="M55.086 75.966L53.46 86.841c4.068 1.265 9.52 1.9 17.25 1.5 2.148-3.164 2.56-6.502 1.375-10l-1.25-4.875-8.125-.625-1.375 3.375c-4.19-1.04-5.709-.868-6.25-.25z" fill="#1a1a1a" fill-rule="evenodd" stroke="#000"/><path d="M65.166 8.998c-2.054-3.445 1.214-6.89 8-2.875 17.474 10.339 4.258 44.993 10.875 50.5-3.167-.193-5.024 4.68-4.375 4.5.138-6.893-4.735-13.104-5-2.25-3.979-7.652 4.236-13.152 2.729-21.567-.583 3.844-.723 7.234-3.604 9.192 4.089-15.261 3.437-27.678-4.25-35.875 2.766 3.934 2.732 6.85 3 9.875-1.374-4.762-2.777-9.5-7.375-11.5zM52.857 20.561s7.16-4.508 7.071-2.563c-.088 1.944-7.071 2.651-7.071 2.563z" fill="#372416" fill-rule="evenodd" stroke="#120a04"/><path d="M43.712 72.237c2.493 2.174 3.12 4.28 6.43 4.553 1.538-.346 3.033-1.118 4.85-.96-.892-.088-1.113.893-1.038 1.422-.6.358-.55.036-.778.808 2.073.168 3.245.304 4.045 2.982-1.161.709-1.685-.167-2.91-.528 1.155.867 4.222 1.323 1.818 3.017-1.822-.89-2.42-.714-3.697-1.382.835 1.74 4.218 3.036 1.1 2.753-1.145-.538-3.044-1.268-3.547-2.346-.993-.808-2.364-1.114-3.566-1.596-4.96-1.575-9.909-2.462-13-10.057.915-4.095 2.629-5.562 4.379-7.368.782-2.821 6.668.782 10.308 2.81-1.527 3.152-1.824 2.992-4.394 5.892z" fill="#e9d2af" fill-rule="evenodd" stroke="#3f2d10"/><path d="M52.38 64.501c-2.592 2.409-4.304 4.39-5.838 7.599-3.686-2.071-7.74-4.748-11.077-7.622 2.416-4.101 8.692-8.916 12.425-11.58 2.13-.973 3.469-1.051 5.92-.846" fill="#262d26" fill-rule="evenodd" stroke="#142214"/><path d="M63.291 9.248c2.695-7.662-11.654-4.085-16.125 6-2.75 10.125-4.125 26.625-3.625 32.5s2.625 8.375 2.625 8.375c-1.047-4.463-2.309-9.142-.125-10.375l3.25 12.375c-.184-4.64-2.594-9.836-.375-13.875 2.086-2.548 2.644 4.906 2.25 5.375 1.161-1.454 2.399-10.624.125-12.625-2.398-2.11 1.542-30.597 12-27.75z" fill="#372416" fill-rule="evenodd" stroke="#120a04"/><path d="M102.428 27.313c-1.06 2.122-2.968 1.731-1.554-1.362-.1 2.878-4.653 1.911-1.45-.514M97.484 26.379c3.085 2.476 1.203 4.413-1.51 2.49" fill="none" stroke="#3f2d10"/><path d="M73.166 14.123c9.567 2.168 3.693 29.867 1.375 31.313 2.564-10.536 2.82-21.85-.625-29.813l-.75-1.5zM52.541 18.873c-4.253 7.342-3.762 14.21-5 21.25 1.07-6.933-4.758-15.052 5.25-22.875l-.25 1.625z" fill="#6f5e51" fill-rule="evenodd"/><path d="M69.666 4.998c7.567 6.043 7.318 5.742 9.625 11.813-2.81-5.036-7.055-7.85-12.5-11.438l2.875-.375zM78.916 38.891c7.567 6.043-.871 13.922 1.436 19.993-2.81-5.036 1.797-13.728-1.772-19.316l.336-.677z" fill="#6f5e51" fill-rule="evenodd"/><path d="M58.583 82c1.307-1.515 2.288-3.216 5.167-3.833 3.773-.922 6.614 1.344 7 4.5-.65 3.77-3.71 5.192-6.197 6.666L58.583 82z" fill-rule="evenodd" stroke="#000"/><path d="M59.542 83.698l-.125 3.219 1.625.906 2.375-.344 1-1.594s-.282-2.53-.563-2.718c-.281-.188-2.375-.407-2.375-.407l-1.937.938z" fill="#150d25" fill-rule="evenodd"/><path d="M61.925 80.996c-2.82-.013-4.116 1.307-4.48 3.982.023 2.888 1.373 4.362 4.13 4.801 2.919-.058 4.452-1.495 4.918-4.274-.106-2.955-1.838-4.166-4.568-4.509zm0 1.614c1.05-.05 2.321.73 2.6 2.895.025 1.443-.93 2.075-3.04 2.307-1.078-.324-1.872-.667-2.071-2.746.005-1.01.488-2.272 2.511-2.456z" stroke="#4d4d4d" stroke-width="1.067"/><path d="M53.676 50.218c-4.646 1.87-1.142 16.604 1.149 25.544l.972-.176c-1.224-7.526-5.085-17.536-1.547-24.572l-.574-.796zM78.904 55.963c2.893 4.405-.01 8.945-6.275 17.855l-.266-1.06c1.667-7.615 6.4-8.805 6.01-17.944l.531 1.15z" fill-rule="evenodd"/><path d="M70.514 73.862l1.856-1.502" fill="none" stroke="#000"/><path d="M67.7 62.208l2.012-1.521 5.216.89c-.39 2.326-.296 3.898-.69 6.105-.096.544-.939 1.208-1.058 1.765l-.08 2.276-1.5.75-3.9-10.265z" fill="#1a1a1a" fill-rule="evenodd" stroke="#000"/><path d="M67.663 62.348l5.125.875c-.022 1.706-.03 3.398-.213 5.265l-.918 1.058-.056 2.927-3.063-.187.06-3.123-.781-.752-.154-6.063z" fill="#1a1a1a" fill-rule="evenodd" stroke="#000"/><path d="M72.797 63.408l2.386-1.768" fill="none" stroke="#000"/><path d="M68.554 63.512l.203 3.837 2.714.125.265-3.285-3.182-.677z" fill="gray" fill-rule="evenodd"/><path d="M71.922 69.658l2.386-1.768" fill="none" stroke="#000"/><path d="M63 75.63l.708-1.37.928 1.59.972-1.37.884 1.592.884-1.503.884 1.768 1.017-1.458" fill="none" stroke="gray" stroke-linejoin="bevel"/></svg>