<svg xmlns="http://www.w3.org/2000/svg" width="128" height="128" version="1.0"><defs><filter id="a" x="-.138" width="1.275" y="-.264" height="1.529"><feGaussianBlur stdDeviation="4.039"/></filter></defs><metadata/><path d="M34.648 92.114c0 1.6-3.181 3.183-2.651 4.773 8.905 6.725 10.257 12.067 18.208 15.38 1.21.302 6.198 4.778 7.247 5.303 4.647 2.002 5.813 3.912 11.668 2.475 1.14-.855 1.856-1.745 2.828-2.475 7.292-2.495 11.835-6.024 16.264-12.02 2.316-6.437 18.139 2.062 13.258-6.188-12.445-24.014-42.832-14.835-66.822-7.248z" fill-rule="evenodd" filter="url(#a)" fill-opacity=".761"/><path d="M73.963 35.131c-1.52.427 2.616 5.108 3.174 6.087.866 1.518 4.492 3.087 5.953 4.207 1.24.951 4.802-1.28 5.692-1.962 1.497-1.147 3.718-.778 4.712-.22 3.099 1.743.66-1.39-.328-2.478-.775-.854-3.421-1.555-4.603-2.014-2.01-.78-2.75-2.12-4.55-3.131-1.717-.966-3.33-.536-5.147-.027-1.135.319-3.437-.573-4.903-.462z" fill="#28170b" fill-rule="evenodd" stroke="#120a04"/><path d="M79.19 89.366c3.162-1.911 6.779-2.938 10.014-.92 1.547 3.166 1.637 7.065-1.018 9.63-1.532.864-2.76 1.493-4.586 1.994-5.561.3-12.062 1.624-17.566.18-1.777-1.174-1.508-3.008-.987-4.979 4.553-2.117 9.439-3.69 14.144-5.905z" fill="#00325c" fill-rule="evenodd" stroke="#00192e"/><path d="M54.143 91.552c-4.036-1.566-7.82-4.34-12.332-3.837-3.068.75-2.855 3.376-3.051 5.956-.347 2.134.285 3.567 2.027 4.748 4.702 2.818 10.054 2.789 15.316 2.254 3.393.348 7.383.401 9.305-2.836 1.109-4.445-8.287-4.961-11.265-6.285z" fill="#00325c" fill-rule="evenodd" stroke="#00192e"/><path d="M79.445 90.212c-2.805-3.461-.73-5.567-.372-9.53-1.228-4.958.306-9.843-.747-14.798-.465-3.106 2.397-5.976.836-8.684-1.784-2.413-6.292-3.536-9.32-3.69-3.887.569-7.81.044-11.668.883-2.847 1.24-7.81 2.166-8.127 5.24-.137 2.773 2.756 7.19 1.47 9.695-.387 4.452-1.709 9.48-1.082 13.944.894 5.194-1.347 3.82-.772 9 4.482-2.566 10.795 5.98 15.884 5.41 4.268-1.526 11.25-4.234 13.898-7.47z" fill="#1a1a1a" fill-rule="evenodd" stroke="#000"/><path d="M59.807 57.665c.657 4.86 9.389 5.336 13.35 1.778-.626-2.689-.793-5.782-3.1-7.65-2.15-.765-4.435-.649-6.68-.525-2 .927-3.555 4.613-3.57 6.397z" fill="#e9d2af" fill-rule="evenodd" stroke="#3f2d10"/><path d="M51.28 20.042c-1.41 4.8.633 10.454 1.891 15.156-1.823 5.854-1.586 11.191 3.967 15.861 6.424 2.089 20.154 3.055 22.354-5.99 1.366-11.377-1.113-4.824 1.473-14.329.855-12.313-3.514-20.66-15.09-19.765-8.002-.262-11.436 3.864-14.595 9.067z" fill="#e9d2af" fill-rule="evenodd" stroke="#3f2d10"/><path d="M66.36 37.641c-5.562-.312-8.43 2.973-11.61 4.943-.54.18-.915.909-1.335 1.4-1.68 3.514.759 7.342 3.902 9.528 2.633 1.528 5.315 2.031 8.203 1.529 2.73-.486 5.7-.35 8.111-1.647 3.984-.585 5.369-2.754 5.837-6.645-.175-2.648-1.475-5.784-3.736-7.083-2.947-.834-6.31-2.534-9.373-2.025zm-.775 3.369c1.816.525 5.342 1.592 6.743 2.768.563 2.322-.536 4.633-2.932 4.353-1.556-1.877-4.67-1.416-6.418.343-2.086.372-2.958-2.11-2.905-3.846.677-1.825 3.933-2.644 5.512-3.618zM65.913 17.113c4.481-1.03 3.745-2.096 4.886-3.49 8.927-.315 9.538 7.6 8.138 11.16 1.657-1.494.785-2.25 2.831-.808.47.403.115 4.06.035 4.535-.085.499-1.862 6.863-1.488 7.015 4.477-2.717 5.29-14.654.515-21.191-3.522-4.824-9.732-6.748-15.077-4.938C50.381 6.22 45.02 25.37 52.577 38.568c.882-2.986-1.633-8.984-.523-12.234.924-.823 1.167.804 2.36.676-4.017-8.132.395-12.527 5.778-13.373 1.383-1.224 1.352 3.041 5.72 3.476z" fill="#28170b" fill-rule="evenodd" stroke="#120a04"/><path d="M69.49 26.769c-1.415 2.975-.387 4.75 2.545 4.366.892.41 2.8-1.75 2.394-3.21.387-3.9-2.996-4.04-4.938-1.156zM61.578 24.638c-2.592.486-3.834 2.263-3.375 4.945 2.899 5.066 8.69-2.059 3.375-4.945z" fill="#fff" fill-rule="evenodd" stroke="#333"/><path d="M72.03 28.912c.525.02-.61-2.048-1.946-.525-1.036 1.18.044 2.781.802 2.915 1.525.268 1.798-2.18 1.144-2.39zM61.148 28.545c.473-.941-2.174-.224-1.533 1.974.442 1.518 2.115.617 2.242.538 1.698-1.058.385-3.847-.709-2.512z" fill-rule="evenodd" stroke="#000"/><path d="M64.304 30.464c-1.138 2.17-4.388 7.37.63 7.261 4.682-.01 2.255-5.317 2.122-7.34" fill="#e9d2af" fill-rule="evenodd" stroke="#3f2d10"/><path d="M63.222 44.24c.958.426 3.696.253 5.374.09" fill="none" stroke="#3f2d10"/><path d="M80.255 25.161c7.413-2.957 4.337 7.177.15 6.004M81.23 26.678c2.127-1.583 2.941 1.603-.175 2.997M52.738 27.24c-7.746-1.921-3.319 7.7.669 5.967M51.979 28.874c-2.323-1.278-2.696 1.99.581 2.946M86.714 69.275c3.648 1.152 4.59 5.124 6.188 7.955.277 2.176-1.682 3.271-3.536 4.242-2.559.386-4.199.504-6.187-1.06-.546-.546-2.131-3.221-2.298-3.89-.774-3.305 1.455-9.436 5.833-7.247z" fill="#e9d2af" fill-rule="evenodd" stroke="#3f2d10"/><path d="M75.95 65.93c.301.858.822 1.173 2.03 3.38 1.062 2.289 1.668 3.704 2.113 6.172 4.07-1.143 6.212-2.637 10.132-4.643-.781-1.968-1.933-3.876-2.679-5.864-1.117-2.594-2.917-3.183-4.506-5.318-1.84-1.448-2.457-1.936-4.56-3.136" fill="#1a1a1a" fill-rule="evenodd" stroke="#000"/><path d="M42.572 68.214c-3.648 1.152-5.473 6.008-7.071 8.839-.278 2.176 2.742 6.63 4.596 7.601 2.559.386 4.022-3.739 6.01-5.303.546-.546 2.132-3.221 2.299-3.89.773-3.305-1.456-9.436-5.834-7.247z" fill="#e9d2af" fill-rule="evenodd" stroke="#3f2d10"/><path d="M52.835 65.694c-.684 2.45.41 1.245-.915 3.383-1.184 2.23-2.544 6.483-3.121 8.923-4.003-1.36-7.255-5.199-11.06-7.413.885-1.923 3.263-3.905 4.115-5.85 1.256-2.53 2.493-2.486 4.195-4.533 1.563-1.192 2.007-2.795 5.244-2.919" fill="#1a1a1a" fill-rule="evenodd" stroke="#000"/><path d="M62.148 74.43c1.52-.48 3.74-.657 5.317-.829" fill="none" stroke="#006ca9"/><g stroke="#333"><path d="M52.777 108.418c2.39 1.586 4.806 4.61 7.85 5.81.994-.05 1.9-.559 2.82-.917 1.07-.74 1.429-1.799 1.686-3.017-.343-2.73-2.383-4.883-4.049-6.955-1.16-1.982-2.906-4.115-5.204-4.692-3.205-1.078-4.94.327-7.65 2.08 1.61 2.512 3.131 5.065 4.547 7.69z" fill="#e6e6e6" fill-rule="evenodd"/><path d="M64.044 112.186c-.893-3.073-2.198-6.226-4.194-7.906-1.723-2.383-3.488-4.385-7.286-5.386" fill="none"/></g><path d="M38.942 92.932c-.455 5.78 3.194 10.047 8.662 11.844 1.67.626 3.044 1.618 4.773 2.122 1.067-.984 2.06-2.267 3.182-3.359.662-.882 1.843-2.759 2.289-3.652-2.87-.633-6.518-3.271-8.955-5.32" fill="#00325c" fill-rule="evenodd" stroke="#00192e"/><g stroke="#333"><path d="M76.293 108.921c-2.298 1.719-4.54 4.874-7.51 6.243-.996.005-1.93-.452-2.867-.757-1.11-.68-1.529-1.716-1.854-2.918.19-2.746 2.105-5.01 3.652-7.172 1.046-2.044 2.67-4.271 4.932-4.976 3.14-1.257 4.95.048 7.754 1.646a117.971 117.971 0 00-4.107 7.934z" fill="#e6e6e6" fill-rule="evenodd"/><path d="M65.255 113.316c.72-3.117 1.845-6.339 3.743-8.128 1.586-2.477 3.237-4.575 6.972-5.788" fill="none"/></g><path d="M90.277 93.057c.482 3.993-1.56 6.814-4.066 9.723-2.835 1.753-4.677 3.613-7.87 4.743-1.066-.984-3.56-2.392-4.681-3.484-.742-1.609-1.547-2.99-1.988-4.368 2.07-.981 3.954-2.204 5.877-3.432 1.662-1.285 3.771-2.17 4.67-4.096" fill="#00325c" fill-rule="evenodd" stroke="#00192e"/><path style="-inkscape-font-specification:Rufscript" d="M57.037 74.957c-.16.006-.392.114-.258-.147-.006-1.226-.293-2.43-.307-3.657-.015-.6-.036-1.205.011-1.803.175-.326.6-.364.926-.44.681-.107 1.377-.153 2.064-.136.34.189.565.531.784.843.287.435.16 1.02-.183 1.384-.394.509-1.026.736-1.463 1.195-.327.268-.187.745.164.914.442.28.977.432 1.321.85.192.236.398.522.38.838-.304.196-.859.147-1.076-.204-.279-.241-.518-.566-.819-.762-.32-.1-.538-.816-.907-.355-.198.319-.141.725-.172 1.086.04.186-.205.207-.315.305l-.15.09zm.463-2.91c.692-.39 1.429-.771 1.935-1.401.24-.26.213-.704-.104-.889-.483-.352-1.118-.25-1.677-.227-.516-.068-.278.586-.271.89.08.538.076 1.085.117 1.627zm5.602 2.698c-.002-.848.054-1.707-.14-2.54-.105-.587-.207-1.176-.309-1.764-.265-.264-.712-.202-1.061-.26-.428-.023-1.012-.108-1.137-.599-.043-.38.609-.172.861-.264 1.368-.053 2.746-.159 4.11 0 .312.03.899.154.717.592-.242.293-.679.245-1.022.262-.402.004-.805-.007-1.206.014-.3.415-.082.946-.007 1.4A12.6 12.6 0 0164 74.488c.02.383-.233.746-.647.53-.126-.033-.258-.127-.25-.272zm4.384-2.027c-.25.25.031.706.088 1.018.113.383.335.819.142 1.21-.28.305-.915.137-.914-.32-.185-1.261-.224-2.54-.295-3.812 0-.41-.064-.832.03-1.233.418-.4 1.038-.448 1.582-.53.527-.04 1.085-.135 1.592.054.194.225.646.568.52.873-.813-.064-1.652-.23-2.461-.03-.43.116-.313.68-.323 1.016-.044.416.162.933.655.906.552.04 1.117-.324 1.655-.08.462.285.02.802-.383.809-.618.138-1.258.137-1.888.119zm7.955 3.491c-.152-.48-.113-.999-.143-1.497-.047-1.626.049-3.254-.028-4.879-.082-.077-.304.382-.439.502-.358.45-.819.839-1.265 1.178.2.198.776.431.634.737-.283.409-.765.252-.98-.122-.6-.605-1.19-1.22-1.808-1.805.086 1.432.187 2.865.2 4.3.014.393-.575.627-.828.332-.203-.345-.122-.772-.165-1.154a83.49 83.49 0 01-.024-3.923c-.001-.405.459-.527.785-.45.406.129.767.428.927.83.172.233.359.833.698.645.459-.466.932-.919 1.382-1.393.219-.301.584-.531.618-.932.19-.275.866-.335.876.11.094.837.085 1.681.168 2.519.067 1.295.034 2.597.172 3.887.087.34.172.764-.196.98-.145.118-.42.354-.584.135z" font-size="9.675" font-weight="400" fill="#fff" font-family="Rufscript"/><path d="M28.489 53.885c7.722 6.825 16.22 11.659 26.128 14.489 3.194.798 9.803 4.416 11.025 5.434-.247 10.485 2.438 21.01 1.813 33.808-5.654-1.534-11.18-5.15-17.218-6.64-3.233-1.634-15.215-2.103-19.181-5.736.27-4.832.821-9.963.151-14.791-.672-3.358-.152-6.872-.906-10.264-.21-4.8-2.099-10.91-1.812-16.3z" fill="#ececec" fill-rule="evenodd" stroke="#666"/><path d="M66.247 73.808c3.576-2.486 6.018-1.84 9.238-4.731 4.412-2.313 18.748-6.121 24.6-5.155-1.321 6.292-.154 4.292-.105 9.172.698 9.466-.2 18.781.605 27.771-4.147.48-13.869 3.07-18.027 4.336-2.216.878-16.122 3.797-16.311 2.264 1.444-6.25-.655-12.853-.756-19.017-.452-4.888 1.36-9.802.756-14.64z" fill="#ececec" fill-rule="evenodd" stroke="#666"/><path d="M90.622 73.136c-1.53.298-2.204 2.151-2.72 3.54-.589 1.97.27 4.005.718 5.94 2.275-.393 4.108-.85 6.12-1.26 1.738-.263 2.608-1.833 2.269-3.492-.415-1.72-1.539-3.615-2.7-4.848-.938-.711-2.583.009-3.687.12z" fill="#333" fill-rule="evenodd" stroke="#000" stroke-width=".99997389"/><path style="-inkscape-font-specification:handfont" d="M72.636 76.026c-.433-.18-.594-.778-1.015-.905-.25.38-.107.943-.462 1.262-.554-.044-.639-.885-.97-1.269-.051-.555-.9-1.057-.493-1.589.558-.102.462.724.73 1.034.174.255.305.907.583.868.25-.39.146-.88.333-1.271.567-.22.541.736.969.917.344.004.059-.68.16-.933.058-.436-.059-1.177.413-1.366.551.139.003.677.052 1.032-.055.656.055 1.319-.02 1.972a.316.316 0 01-.28.248zm2.346-.667c-.586.14-.512-.549-.533-.915-.071-.594-.141-1.189-.26-1.776-.42-.36.272-.722.594-.79.263-.163 1.01-.474.987.048-.347.308-1.097.212-1.17.806-.069.435.315.6.595.267.386-.405.804.223.264.37-.486.117-.828.498-.612 1.01-.01.306.071.601.392.32.34-.14.812-.85 1.145-.43.028.485-.718.477-.967.839-.137.096-.28.186-.435.25zm3.177-.71c-.558.062-1.122-.342-1.03-.943-.102-.538-.149-1.085-.266-1.617-.274-.51.01-1.099.53-1.297.515-.186 1.104.414 1.172.872-.144.332-.123.722.312.737.475.278.71.913.43 1.407-.211.446-.655.783-1.148.84zm.319-.535c.532-.267.77-1.131.15-1.447-.43-.226-1.297.097-1.084.675.05.346.078.851.536.88a.854.854 0 00.398-.108zM77.6 72.31c.53-.157.662-.923.116-1.152-.594-.005-.479.715-.358 1.098.018.2.125.112.242.054zm3.683 1.485c-.637.056-1.064-.58-1.12-1.15-.104-.568-.022-1.175.343-1.637.286-.547.957-.895 1.554-.653.456.202.028.602-.323.437-.518-.13-.842.36-1.007.774-.172.507-.13 1.106.152 1.565.469.443 1.026-.127 1.453-.341.647-.135.12.6-.208.649-.27.142-.553.27-.844.356zm3.392-.861c-.587.19-1.214-.245-1.307-.84-.21-.697-.245-1.532.201-2.147.434-.45 1.087-.167 1.531.104.633.429.994 1.274.712 2.01-.14.459-.559.771-1.022.844l-.058.015-.057.014zm.14-.438c.674-.274.74-1.22.361-1.76-.152-.403-.62.057-.786-.391-.336-.503-.703.17-.72.521-.074.514-.022 1.083.25 1.532.22.257.62.262.895.098zm2.511-.253c-.538.187-.345-.6-.458-.895-.112-.707-.24-1.413-.287-2.127.41-.677.84.715 1.215.268.086-.394.227-1.327.807-.831.293.38.446.85.66 1.278.203.456.404.924.707 1.322.016.473-.67.292-.625-.123-.324-.631-.574-1.298-.914-1.922-.34.256-.169 1.09-.72 1.077-.222-.136-.707-.623-.571-.02.082.625.22 1.24.316 1.863-.017.055-.066.115-.13.11zm4.226-.991c-.264-.057-1.2.059-.817-.414.633-.019.388-.714.303-1.146-.05-.488-.092-.981-.182-1.465-.23.367-1.071.054-.483-.25.443-.177 1.028-.662 1.48-.358-.048.391-.682.372-.488.867.088.668.15 1.34.265 2.004.111.163.739-.043.446.4-.138.181-.366.217-.524.362zm2.684-.806c-.637.056-1.064-.58-1.12-1.15-.103-.568-.021-1.176.344-1.637.285-.547.957-.895 1.554-.653.456.201.028.601-.323.437-.519-.13-.843.36-1.007.774-.172.507-.13 1.106.151 1.565.47.443 1.027-.128 1.453-.342.648-.134.121.601-.208.65-.27.142-.552.27-.844.356z" font-size="12" font-weight="400" font-family="handfont"/><path d="M32.711 61.323c8.811 6.015 18.652 11.294 28.39 13.806.862 3.529.438 7.38-.003 11.235-9.51-5.315-18.816-8.62-27.742-13.245.684-3.409-.389-8.001-.645-11.796z" fill="none" stroke="#666"/><path d="M31.125 67.625c-3.274-1.453-2.606 2.144-2 5-4.24.127-3.131 4.431 0 5.125-.491.267-1.752-.33-2 1.5.291 1.82 1.435 2.654 3 3.375.936.234 1.461.066 2.25-.25.927-.962-.418-2.504-1-3.625.765-.034 1.545-.44 2.5-1.125.104-.99-2.221-3.693-2.25-3.75 1.857-.392 3.664-.454 3.375-2.25-.68-1.954-2.069-3.135-3.875-4zM100.251 69.125c3.274-1.453 2.606 2.144 2 5 4.24.127 3.131 4.431 0 5.125.491.267 1.752-.33 2 1.5-.291 1.82-1.435 2.654-3 3.375-.936.234-1.461.066-2.25-.25-.927-.962.418-2.504 1-3.625-.765-.034-1.545-.44-2.5-1.125-.104-.99 2.221-3.693 2.25-3.75-1.856-.392-3.664-.454-3.375-2.25.68-1.954 2.069-3.135 3.875-4z" fill="#e9d2af" fill-rule="evenodd" stroke="#3f2d10"/><path d="M70 81.375c.336-.651.513-1.721 1.291-1.92.264.235.355.94.773.426.42-.44 1.058-.563 1.57-.19.788.416 1.775.065 2.397-.5.312-.234.653-.931.608-1.092-.271.423-.19 1.236.453 1.206.703.055 1.233-.649 1.944-.47.587.272 1.043-.113 1.103-.705.41-.446.863.486 1.387.246.566.075 1.384-.477 1.737-.389-.018.026-.074.112-.013.138M70.5 84.625c.763.104 1.446-.373 1.805-1.006.565-.234.885.456 1.29.7.681.348 1.063-.57 1.447-.963.382-.707 1.052-.456 1.592-.136.892.188 1.802-.028 2.639-.349.617-.27 1.288-.203 1.933-.278.52-.263.99.06 1.48.19.653.021.884-.857 1.525-.919a.598.598 0 01.414.136" fill="none" stroke="#0c0c0c"/><path d="M69.375 92c9.521-3.275 17.645-2.9 26.875-6.5L97 96.875c-9.321 1.098-18.275 4.726-27 6.125.416-3.917-.13-7.333-.625-11zM78.5 89.75c.405 3.647 1.614 6.757 1.125 11M87.5 87.875c1.094 4.261.92 7.253 1.375 10.875M41.599 66.918c.165 3.714 1.556 6.845.776 10.512M51.085 71.532c.822 4.763.194 6.338.412 10.064M34.388 82.355c9.857 2.43 16.93 7.385 26.515 9.336-.968 3.537-.437 7.074-.129 10.61-8.577-4.379-17.559-5.517-26.49-9.264.683-3.476.36-6.912.104-10.682zM43.025 85.152c.166 3.697.556 6.979-.223 10.722M52.261 88.607c.823 4.681-.055 6.545.163 10.249" fill="none" stroke="#666"/><path d="M36 79.875c.397.324.475.941.944 1.193.447.088.48-.526.774-.707.253.09.564.482.78.063.152-.184.319-.764.541-.327.23.343.354.804.739 1.01.324.095.72-.121.707-.47.552.814 1.016 1.74 1.83 2.331.398.307.96.264 1.36-.014.662-.424 1.235-.985 1.95-1.329.425.009.557.594.948.732.4.285.696-.325 1.019-.242.307.348.37.892.814 1.121.659.482 1.082 1.258 1.84 1.606.383.168.82.074 1.179-.112.446-.07.845.221 1.226.41.508.286 1.011.608 1.597.705.352.068.688.262.841.599.057.1.11.203.161.306" fill="none" stroke="#0c0c0c"/><path d="M73.375 95.75c-.34.067-.642-.175-.84-.424-.214-.282-.43-.615-.378-.986.073-.535.454-.957.825-1.322.259-.248.54-.56.927-.562.35.012.676.19.951.395.338.26.437.696.53 1.089.123.59-.2 1.186-.648 1.554-.279.235-.646.292-.985.387a.49.49 0 00-.368.424c-.065.275.095.527.2.768.142.31.323.602.458.915.185.574.089 1.192.23 1.774.046.37-.043.741-.026 1.112-.004-.636-.007-1.276-.106-1.905-.054-.226-.106-.487-.302-.634-.193-.1-.356.113-.438.264-.144.236-.147.534-.326.752-.205.289-.497.498-.776.705.042-.165.172-.311.263-.46.283-.398.566-.83 1.005-1.07.2-.115.44-.035.606.102.232.175.455.376.742.456.388.127.8.164 1.206.166M44.782 75.625c-.21.044-.397-.115-.52-.28-.132-.185-.266-.404-.233-.648.045-.353.28-.63.51-.87.16-.164.333-.37.573-.371.216.008.417.125.588.26.208.171.27.458.326.717.077.389-.123.781-.4 1.023-.172.155-.399.193-.609.255a.317.317 0 00-.227.28c-.04.18.059.346.124.505.088.204.2.396.283.602.114.379.055.785.141 1.17.03.243-.025.487-.015.731-.003-.418-.005-.84-.065-1.255-.034-.148-.066-.32-.187-.417-.12-.066-.22.075-.271.174-.089.156-.091.351-.202.495-.126.19-.306.328-.48.465.027-.11.108-.206.163-.304.175-.262.35-.546.622-.704.123-.076.271-.023.374.067.143.115.281.248.458.3.24.084.495.108.746.11M48.532 76.5c-.21.044-.397-.115-.52-.28-.132-.185-.266-.404-.233-.648.045-.353.28-.63.51-.87.16-.164.333-.37.573-.371.216.008.417.125.588.26.208.171.27.458.326.717.077.389-.123.781-.4 1.023-.172.155-.399.193-.609.255a.317.317 0 00-.227.28c-.04.18.059.346.124.505.088.204.2.396.283.602.114.379.055.785.141 1.17.03.243-.025.487-.015.731-.003-.418-.005-.84-.065-1.255-.034-.148-.066-.32-.187-.417-.12-.066-.22.075-.271.174-.089.156-.091.351-.202.495-.126.19-.306.328-.48.465.027-.11.108-.206.163-.304.175-.262.35-.546.622-.704.123-.076.271-.023.374.067.143.115.281.248.458.3.24.084.495.108.746.11M34.25 66.625c.316-.095.541-.358.78-.57.239-.214.456-.475.762-.59.212-.067.304.188.315.354.041.49-.003.982-.005 1.473-.002.545-.031 1.107.138 1.632.065.216.257.424.5.391.388-.054.698-.327.99-.568.388-.338.728-.728 1.109-1.073.158-.018-.004.276-.017.37-.266.8-.61 1.59-.692 2.437-.047.149.033.381.19.19.178-.146.312-.36.532-.445.238.029.15.371.156.543-.045.5-.152.991-.258 1.481.247-.023.531-.02.725.163.257.236.27.608.283.933.022.139.083.268.117.404M81.125 91.875c.502-.085.975-.278 1.467-.4.165-.05.416-.03.436.186.041.34-.071.676-.151 1.003-.205.775-.516 1.518-.695 2.3-.039.087-.038.355.085.168.228-.35.38-.747.492-1.148.227-.168.507-.25.776-.325.243-.053.52-.112.748.019.192.133.138.4.07.587-.175.415-.397.808-.581 1.218-.331.72-.676 1.44-.89 2.204-.025.165-.135.407.021.53.188.007.325-.157.46-.266.6-.577 1.1-1.25 1.605-1.909.123-.174.273-.343.33-.553-.095-.095-.235.183-.212.296.027.23.287.316.483.355.23.054.461-.014.68-.079.22-.038.277.237.33.392.016.057.032.114.046.172M91.375 96.25c-.34.067-.642-.175-.84-.424-.214-.282-.43-.615-.378-.986.073-.535.454-.957.825-1.322.259-.248.54-.56.927-.562.35.012.676.19.951.395.338.26.437.696.53 1.089.123.59-.2 1.186-.648 1.554-.279.235-.646.292-.985.387a.49.49 0 00-.368.424c-.065.275.095.527.2.768M94.694 90.461c.188.29.075.661-.084.937-.182.304-.412.628-.776.717-.524.13-1.057-.068-1.533-.278-.326-.148-.72-.294-.865-.653-.119-.33-.074-.698.015-1.03.117-.41.485-.663.815-.894.504-.334 1.177-.254 1.684.027.322.171.51.491.724.771a.49.49 0 00.53.185c.28-.041.454-.283.64-.47.235-.247.439-.523.68-.764M53.25 81.125c.27-.286.307-.705.347-1.077.05-.778.02-1.558.028-2.337.013-.36-.036-.727.053-1.079.04-.261.344-.216.482-.065.303.237.541.566.908.714.21.05.293.264.293.46.027.472.009.945.014 1.417-.003-.407-.015-.82.089-1.218.12-.567.356-1.11.379-1.695.001-.174.041-.48.29-.393.299.087.563.26.854.366.207.042.355.246.228.444-.098.274-.295.517-.298.82-.048.597.099 1.19.078 1.787-.007.297-.144.58-.122.877.057.256.355.314.57.371.635.162 1.256.378 1.858.633.19.1.13.347.055.503-.188.434-.528.808-.603 1.285-.016.253.025.506.005.757-.149.121-.364-.132-.535-.169-.404-.177-.813-.344-1.202-.555-.669-.341-1.32-.727-2.034-.969-.616-.213-1.183-.54-1.737-.877zM50.694 92.961c.188.29.075.661-.084.937-.182.304-.412.628-.776.717-.524.13-1.057-.068-1.533-.278-.326-.148-.72-.294-.865-.653-.119-.33-.074-.698.015-1.03.117-.41.485-.663.815-.894.504-.334 1.177-.254 1.684.027.322.171.51.491.724.771a.49.49 0 00.53.185c.28-.041.454-.283.64-.47.235-.247.439-.523.68-.764M36.5 85.375L40.75 87M36.875 88.75l4.375 1.5M39.25 92.125l-3.375-.875M55.154 98.125a5.985 5.985 0 01-1.318-1.99c-.139-.355-.194-.752-.082-1.122.171-.639.608-1.174.739-1.828.173-.592.58-1.15 1.175-1.366a.727.727 0 01.623.005c.527.229.944.639 1.36 1.022.332.313.668.648.836 1.083.202.49.288 1.018.415 1.531.097.539-.07 1.08-.29 1.567a7.177 7.177 0 00-.296.788c-.155.215-.431.277-.67.35-.565.14-1.175.187-1.736.008-.248-.084-.485-.295-.479-.575.002-.28.19-.527.152-.812-.03-.61-.384-1.134-.534-1.713-.069-.266-.125-.573.012-.827.18-.28.547-.326.853-.313.339.012.68.07 1 .184.289.14.403.486.374.79-.017.437-.174.854-.354 1.249-.113.168-.255-.13-.365-.153" fill="none" stroke="#666"/></svg>