<svg xmlns="http://www.w3.org/2000/svg" width="128" height="128" version="1.0"><defs><filter id="a" x="-.218" width="1.435" y="-.508" height="2.016"><feGaussianBlur stdDeviation="3.292"/></filter></defs><metadata/><path d="M387.141 155.605c-4.561-2.86-14.299-2.28-17.678 2.121-1.686 3.821 6.055 7.1 9.193 8.132 4.381.128 8.264.422 12.374 1.768 5.006-2.118 3.695-.917 5.657-1.768 3.629-1.613 8.29-3.741 8.839-8.132-.24-3.801-3.107-5.027-6.364-5.657-3.638 1.13-9.372.59-12.021 3.536z" transform="matrix(1.15152 0 0 .77501 -373.323 -6.364)" fill-opacity=".778" fill-rule="evenodd" filter="url(#a)"/><path d="M45.392 59.825c-.115-.46-2.468-1.57-3.174-1.186-1.117.61-2.584-2.292-3.014-2.88-.276-.378.52 2.89.72 4-2.299.315-5.82.066-8.144.066-1.04 0 .068.953.353 1.237-.945 1.492 6.242 2.602 9.583 2.484-.208-.51 2.15-.682 3.145-.185.58.289 1.414-1.434 1.414-2.122 0-.818-.072-1.008-.883-1.414z" fill="#f4e3d7" fill-rule="evenodd" stroke="#522f16"/><path d="M68.373 51.605c-4.56 2.641-8.449 7.082-11.491 11.49-3.778-1.245-6.86-2.08-10.689-3.087-1.103-.67.862 1.335-.978 3.44 4.178.38 6.778 3.763 10.253 5.481 8.205.049 16.288-10.952 16.617-18.562-.184-.368-3.32 1.395-3.712 1.238z" fill="#00a0ff" fill-rule="evenodd" stroke="#00598c"/><path d="M81.37 113.797l2.876-2.375-1 5.625-.75-.125-1.125-3.125zM69.746 114.547l2.875-2.375-1 5.625-.75-.125-1.125-3.125z" fill="#d40000" fill-rule="evenodd" stroke="#520000" stroke-opacity=".968"/><path d="M64.374 111.714c-1.85 1.604-4.461 3.382-4.446 6.704 3.071 1.076 5.764-2.351 8.708-3.534.6-.302 1.937.517 2.344-.127 2.521-2.02 1.956-2.881 1.455-3.936-.467-.295-1.045-.476-1.623-.667-2.308-.234-4.357.766-6.438 1.56zM76.62 112.922c-.984 1.903-1.025 3.896-1.25 8 3.382.016 4.762-3.39 7-5.375.476-.475.94-2.135 1.126-2.875 1.76-2.708 1.306-2.28.5-3.125-.537-.134-1.142-.125-1.75-.125-2.265.502-3.898 2.094-5.625 3.5z" fill="#d40000" fill-rule="evenodd" stroke="#520000" stroke-opacity=".968"/><path d="M86.757 83.248c.995 1.667 1.206 3.057 1.061 4.95-.262 3.943-1.646 7.44-4.712 9.832 1.346 3.842.115 8.094.646 10.674.253 1.265.243 1.7-.53 2.475-1.62 1.835-1.12 3.67-4.95 5.48-.859.644-1.591.199-1.591-.707-.787-3.665 2.187-5.417 2.121-8.662-1.34-3.384-1.414-7.017-1.414-10.607-.311-5.406-.158-10.882 2.298-15.645 2.183-2.915 5.942-.112 7.071 2.21zM74.383 84.132c.994 1.667 1.294 2.969 1.149 4.861-.262 3.943-3.149 7.44-6.215 9.833 1.658 2.44 1.676 7.521 2.06 10.762.254 1.265.244 1.7-.53 2.475-1.62 1.835-1.738 1.284-5.568 3.093-.859.644-3.445.15-3.445-.756 2.213-3.04 4.66-2.981 4.594-6.227-1.34-3.384-2.563-5.867-2.563-9.457-.312-5.406 3.642-11.413 6.099-16.175 2.182-2.916 3.29-.731 4.419 1.59z" fill="#f4e3d7" fill-rule="evenodd" stroke="#522f16"/><path d="M69.62 50.897c-3.129 4.5-4.288 8.559-7.547 12.995.062 1.403 1.336 4.372 3.67 4.638.79 1.97 1.458 3.378 2.442 5.565 3.133 4.138-.242 7.66-2.223 15.443 7.016-2.107 13.984-1.498 21.396-.407 2.968-5.684-1.243-11.603-2.741-15.448-.46-3.555 2.414-6.021 3.313-9.94 2.853-8.22 3.734-9.188-3.06-14.546-4.686-2.846-10.29-1.296-15.25 1.7z" fill="#00a0ff" fill-rule="evenodd" stroke="#00598c"/><path d="M72.99 40.465c.059 2.608.501 5.21-.37 7.707-.627 2.198-1.71 3.976-2.646 6-.402 3.411-1.495 7.537 2.184 7.823 5.46-.377 6.145-13.038 12.713-12.712-4.085-2.8-4.257-4-4.5-8.86-1.832-.317-5.286-.769-7.382.042z" fill="#f4e3d7" fill-rule="evenodd" stroke="#522f16"/><path d="M74.033 8.291c-3.583-.486-8.392 1.687-9.832 6.074-.505 5.394-.874 10.85-.78 16.28 1.662 6.277 1.139 13.357 9.009 17.386 11.208-2.503 13.04-12.062 14.535-18.78-1.383-6.379 1.16-11.62-3-17.068-2.858-2.578-7.47-4.554-9.932-3.892z" fill="#f4e3d7" fill-rule="evenodd" stroke="#522f16"/><path d="M68.914 25.808c.461.271-1.052 3.334-1.798 3.998.548.358.721.654 2.2.84" fill="none" stroke="#522f16"/><path d="M73.082 6.248C62.532 3.765 57.912 16.269 58.607 24.9c.18 4.597.203 6.581 3.456 9.605-.115.87-1.484 4.313-1.777 5.07 1.781-.755 3.158-1.688 3.722-3.566-.818-7.613-.73-11.608-.098-17.013.814-7.474 12.688-9.776 9.172-12.748z" fill="#ffd600" fill-rule="evenodd" stroke="#7e5a00"/><path d="M71.196 24.046c.22-3.233 3.667-5.069 5.732-3.772.352 1.937.077 4.146-1.16 6.093-3.56 1.935-4.305-.03-4.572-2.321z" fill="#fff" fill-rule="evenodd" stroke="#333"/><path d="M71.305 7.949c-2.286 3.728-.838 7.83 1.36 11.257 1.225 1.575 2.397 2.385 3.813 3.753 2.797 3.234 6.436 5.67 8.543 9.43 1.351 3.73-.913 7.59-1.006 11.557 7.148-5.646 9.18-11.523 8.396-17.062-.145-7.777.944-16.784-7.586-20.264-4.45-2.604-9.81-2.157-13.52 1.329z" fill="#ffd600" fill-rule="evenodd" stroke="#7e5a00"/><path d="M66.753 38.778c.73-.705 1.287-2.298 2.538-1.487.788.51 1.7 1.212 2.768.048.816-.89 4.314.968 4.942 1.525-.843.894-4.518 1.995-5.224 2.08-2.327.138-3.273-.638-5.024-2.166z" fill="#d40000" fill-rule="evenodd" stroke="#520000" stroke-opacity=".968"/><path d="M63.403 21.19c-.467 2.814.293 5.672 2.924 5.912 2.088-1.275 1.984-2.048 1.442-4.255-2.298-2.057-3.27-2.366-4.366-1.657z" fill="#fff" fill-rule="evenodd" stroke="#333"/><path d="M65.194 23.41c1.116-1.051 1.914.297 2.137.713.699 1.3.048 2.101-.895 2.454-2.165.251-2.195-2.861-1.242-3.167zM73.737 26.137c-.647.805-.92-3.321.333-3.345 1.467-.027 2.1 1.734 2.12 1.897.223 1.844-1.127 2.181-2.453 1.448z" fill="#00f" fill-rule="evenodd" stroke="#000041"/><path d="M84.106 76.177c-1.966 1.307-4.817 1.24-4.838 3.91 1.379 1.76 1.532 4.129 3.86 4.234 2.025-.632 4.015-2.405 3.069-3.895-.187-.748.342-3 .207-3.542-.197-.788-1.543-.707-2.298-.707z" fill="#f4e3d7" fill-rule="evenodd" stroke="#522f16"/><path d="M84.99 53.726c-1.564 1.034-1.078 3.054-.884 4.773.2.8 1.052 1.58 1.59 2.298 1.205 2.295 2.74 4.02 4.95 5.304-1.098 2.998-5.013 6.92-6.54 9.722-.191 1.535.608 1.183 1.59 2.298 4.666-2.636 8.789-8.903 10.96-13.611-1.28-3.308-4.633-5.492-6.717-8.486-1.276-1.54-3.015-2.116-4.95-2.298zM73.5 65.924c1.98 7.733 10.909 2.507 8.573-1.68M65.72 68.597c2.09.045 3.91-.736 4.597-3.027" fill="#00a0ff" fill-rule="evenodd" stroke="#00598c"/></svg>