<svg xmlns="http://www.w3.org/2000/svg" width="128" height="128" version="1.0"><defs><filter id="a" x="-.125" width="1.25" y="-.327" height="1.653"><feGaussianBlur stdDeviation="1.963"/></filter></defs><metadata/><path d="M60.835 110.983c-1.872.606-6.114-.639-8.895-1.334-2.357-.59-4.728 1.17-5.782 2.224-1.414 1.413-1.726 4.217-1.335 5.782.832 3.327 5.383 3.104 7.561 2.668 2.008-.401 4.245 1.284 6.227 1.78 2.276.568 4.263.889 7.116.889 2.9 0 4.684 1.438 7.56 0 2.232-1.116 4.291-.772 6.227-2.224 1.513-1.134 2.227-3.124 2.669-4.892.784-3.136-1.877-3.607-3.558-4.448-2.161-1.08-5.907-.414-7.561 0-1.773.443-3.316-2.224-5.782-2.224-2 0-1.06 1.78-4.447 1.78z" fill-opacity=".728" fill-rule="evenodd" filter="url(#a)"/><path d="M59.602 109.091c-3.176.624-5.79 1.221-8.486 3.182-.6.719-.572 1.413-.53 2.298.237.764.51 1.512.707 2.298 2.752.257 5.793 1.906 8.667.98 3.018.039 6.07-1.018 8.569-2.836.577-1.71-.042-4.027-.177-5.922-2.784.875-5.948.733-8.75 0z" fill="#e6e6e6" fill-rule="evenodd" stroke="#333"/><path d="M51.293 115.367c3.252-.557 6.502 1.577 9.887 1.124 3.144-.104 4.775-2.39 7.084-2.539" fill="none" stroke="#333"/><path d="M70.827 109.621c-2.53 1.352-6.34 2.044-8.839 4.155-.427.898-.41 1.938-.53 2.916.144 1.294.905 2.112 1.856 2.917 2.567.993 5.429.219 8.043-.265 2.295-.08 5-.607 6.6-2.356 2.469-2.31 2.055-4.503 1.797-7.72-2.975.225-5.944.353-8.927.353z" fill="#e6e6e6" fill-rule="evenodd" stroke="#333"/><path d="M61.906 53.551c-3.065 2.39-5.29 5.282-6.953 8.734-1.796 2.347-3.588 4.41-4.328 7.33 3.823 1.299 7.91 1.084 11.729 2.172 2.454-4.48 2.886-9.717 3.691-14.69" fill="#1a1a1a" fill-rule="evenodd" stroke="#000"/><path d="M70.666 87.471c-.145.779-1.64 2.177-1.375 3.5.203 1.016-.367 2.281-.125 3.25-.482 2.545-.821 4.857-1 7.375.515 2.209 1.863 6.198 3.375 7.75 2.63 1.988 6.665 1.895 8.125-.625-.25-1.001-.06-1.598-.5-2.625-3.299-2.633-5.709-6.02-1.125-9.125 2.492-4.704 1.67-7.092 1.5-10.875-2.168-.8-7.507-.221-8.875 1.375z" fill="#00325c" fill-rule="evenodd" stroke="#00192e"/><path d="M59.54 87.346c-.144.779-.889 2.802-.624 4.125.943 2.795-1.551 5.531-2.25 8.375.016 2.79 1.753 7.325 3.75 9.375 2.845 1.127 5.706 1.845 8.125-.625-1.246-3.852-4.594-7.113-4-11.125.029-3.8 7.143-6.93 7-10.75-2.168-.8-10.632-.971-12 .625z" fill="#00325c" fill-rule="evenodd" stroke="#00192e"/><path d="M81.835 92.695c-2.291-3.82.35-8.682 1.261-12.556-.52-5.08 3.382-9.87 3.036-14.925-.025-3.14-.653-6.053-1.818-8.954-1.427-2.64-3.594-4.334-6.57-4.913-3.928.018-7.738-1.052-11.677-.763-2.993.826-5.224 2.582-5.97 5.58-.525 2.727-.692 5.228-2.317 7.528-1.009 4.352-3.106 8.62-3.112 13.128.156 5.267-2.35 7.065-2.508 12.274 4.798-1.911 10.006 2.734 15.124 2.885 4.44-.911 11.474 3.549 14.55.716z" fill="#1a1a1a" fill-rule="evenodd" stroke="#000"/><path d="M59.986 11.97c-10.427.7-14.048 7.877-13.535 16.832.137 1.872 1.27 5.491 1.87 7.312.05 3.668-.653 6.494.685 9.98 1.621 4.952 5.205 7.389 10.164 8.12 4.325-.4 10.04-2.297 13.064-5.561 4.371-4.143 5.3-10.683 6.6-16.434.216-5.42-2.766-10.356-4.658-15.258-2.526-5.33-9.048-6.138-14.19-4.991z" fill="#e9d2af" fill-rule="evenodd" stroke="#3f2d10"/><path d="M47.102 20C45.74 10.21 72.332 5.005 74.3 12.68c7.579.029 9.026 19.332 7.638 26.112-7.78.488-4.395-8.815-9.08-10.746-1.961-.34-2.497 1.183-4.129 1.72-3.685-2.006-.633-9.227-6.49-11.225-2.693 1.324-6.083 3.31-9.169.67-2.459.179-3.813 1.474-5.968.79z" fill="#28170b" fill-rule="evenodd" stroke="#120a04"/><path d="M80.716 37.479c-1.575.115 1.547 5.526 1.9 6.597.546 1.66 3.787 3.919 4.995 5.307 1.027 1.18 4.961-.3 5.969-.79 1.696-.826 3.799-.022 4.661.723 2.69 2.325.924-1.23.173-2.494-.59-.992-3.043-2.205-4.11-2.89-1.815-1.165-2.274-2.625-3.836-3.974-1.49-1.288-3.157-1.188-5.04-1.05-1.175.085-3.253-1.246-4.712-1.429z" fill="#28170b" fill-rule="evenodd" stroke="#120a04"/><path d="M63.235 54.489c1.739 4.584 10.352 3.073 13.406-1.29-1.218-2.477-2.081-5.452-4.75-6.75-2.267-.258-4.467.372-6.625 1-1.739 1.356-2.42 5.299-2.03 7.04z" fill="#e9d2af" fill-rule="evenodd" stroke="#3f2d10"/><path d="M48.291 52.514c.75 1.26 2.138 1.975 3.801 1.854 2.675.564 5.295 1.554 7.968 2.27 3.487.63 5.853-1.3 8.24-3.453 4.1-2.515 8.244-6.589 8.774-11.576.099-2.08-.713-2.016-1.868-1.555-1.819 2.148-4.126 4.447-6.729 5.692-3.325 1.212-5.982 1.856-7.226-1.98-1.362-3.151-5.066-3.815-8.12-4.357-6.393.19-7.177 8.605-4.84 13.105zm5.065-9.174c2.98-1.523 9.966 5.92 4.386 6.01-2.391-.608-2.987-2.084-4.233-.036-4.838 1.86-3.34-4.492-.153-5.974z" fill="#28170b" fill-rule="evenodd" stroke="#120a04"/><path d="M55.635 28.635c-1.144 3.09.038 4.767 2.924 4.122.925.329 2.633-1.994 2.098-3.412.037-3.917-3.345-3.756-5.022-.71zM49.505 27.077c-2.309.699-3.28 2.572-2.628 5.205 3.076 4.807 7.704-2.77 2.628-5.205z" fill="#fff" fill-rule="evenodd" stroke="#333"/><path d="M53.27 30.563c-.24 2.434-2.485 3.723-3.645 5.028-.442 2.714.08 4.6 3.034 3.79 2.024-1.127 2.747-2.802 2.896-4.975M70.76 29.788c5.677-2.75 5.279 5.985.898 5.449M71.981 31.077c.74-1.55 3.17.952.191 2.618" fill="#e9d2af" fill-rule="evenodd" stroke="#3f2d10"/><path d="M51.94 46.702c.66-.217 3.058-1.153 5.361-.391" fill="none" stroke="#3f2d10"/><path d="M58.107 30.085c.36-.384-1.947-.883-1.673 1.125.212 1.556 2.129 1.79 2.727 1.305 1.202-.975-.466-2.786-1.054-2.43zM49.252 30.788c.387-.98-2.185-.029-1.35 2.104.576 1.472 2.161.424 2.28.335 1.597-1.205.04-3.866-.93-2.44z" fill-rule="evenodd" stroke="#000"/><path d="M62.165 117.753c3.128.67 6.523 1.018 8.949.058 2.915-.386 5.516-.99 8.198-3.859" fill="none" stroke="#333"/><path d="M42.942 58.332c9.911.902 25.898 3.088 34.086 8.132 1.05 1.876 1.832 3.836 1.057 5.833-2.485 7.8-1.711 16.12-5.493 23.512-1.093 1.811-2.258 2.323-4.647 2.298-9.512-2.358-22.976-3.953-32.53-6.894-1.725-1.031-2.353-2.535-2.534-4.243.22-8.993 2.887-17.883 5.59-26.517 1.156-1.5 2.367-2.02 4.471-2.12z" fill="#666" fill-rule="evenodd" stroke="#333"/><path d="M38.714 61.16c.507-.847 3.641-.353 4.95-.353 6.62 1.269 23.422 4 29.522 7.071 1.655 1.116 1.675 2.426 1.237 4.243-.633 8.708-2.462 17.353-4.95 25.632" fill="none" stroke="#333"/><path d="M91.125 67c3.177 3.487 4 7.063 3 11.75-.216.862-.546 1.468-.875 2.125-.144.288-1.154.632-1.625.75a8.066 8.066 0 01-2.125.25c-2.633-1.733-4.827-4.708-5.25-7.875-1.237-4.736 2.923-12.772 6.875-7z" fill="#e9d2af" fill-rule="evenodd" stroke="#3f2d10"/><path d="M76.84 61.652c.715 2.442 1.878 4.56 3.229 6.682 1.21 2.214 1.974 4.585 2.581 7.017 3.986-1.409 7.955-4.17 11.733-6.43-.908-1.913-1.934-3.758-2.81-5.692-1.286-2.514-3.785-3.566-5.512-5.591-1.916-1.668-4.096-2.152-6.38-.842" fill="#1a1a1a" fill-rule="evenodd" stroke="#000"/><path d="M39.605 65.58c-2.106 5.801-1.015 9.784-2.475 15.733-.108 1.98.69 3.399 2.298 4.42 8.089 2.946 16.897 3.788 25.456 5.126 1.97-.037 3.452-.976 4.066-2.828 2.312-5.154 1.05-8.639 1.945-14.143.745-2.625.171-3.42-2.299-4.419-7.758-3.335-16.143-4.198-24.218-6.717-3.269-.565-3.549.058-4.773 2.828z" fill="#fd5" fill-rule="evenodd" stroke="#333"/><path d="M88.055 78.13c-3.617 1.027-3.203 4.165-4.964 6.451-2.175 2.493-4.594 3.595-7.837 4.315-1.57-.134-.806-3.291-2.584-2.888-.888 1.145-.806 3.32-.249 4.558-2.031.448-4.891 1.468-5.321 4.23 1.247.544 3.365-1.12 4.529-1.645-1.026 1.016-3.85 3.027-1.239 4.38 1.59.393 2.146-2.155 3.323-3.016-.591 1.838-4.57 3.985-1.52 3.282 1.063-.689 3.648-2.073 4-3.21.873-.935 2.19-1.425 3.316-2.065 3.095-.472 5.229-2.756 7.883-4.338 2.173-1.783 4.933-2.869 5.816-5.568.559-1.009.753-3.603 1.018-4.679M32.75 71.625c.154.49-1.301-1.2-1.75.75-.439.782-.876 1.78.375 2.125-2.78 2.55.792 4.102 3.125 4.75 1.597.104 2.275.011 2.875-1.375-.618-1.126-1.927-1.528-3-2.5 1.014.626 3.772 2.792 4.125.938 1.065-1.528-1.535-2.825-2.875-3.313.953.083 1.96 1.416 3.125 0 .32-1.469-.532-2.093-1.625-2.875-1.896-.828-4.96-1.44-4.375 1.5z" fill="#e9d2af" fill-rule="evenodd" stroke="#3f2d10"/><path d="M66.995 20.871c-.97 2.828-2.702 5.782-2.298 8.603 1.243 2.524 3.845 1.962 5.362 0 .95-3.135-.936-5.568-3.064-8.603z" fill="#bbc9d3" fill-rule="evenodd" stroke="#274166"/><path d="M63.22 92.32c-.342-.227-1.782-.316-2.598-.52-.983-.246-1.04 1.22-1.212 1.905-.314 1.256.392 1.212 1.386 1.212.99 0 1.598.357 2.251.52.383.096.801-1.753.866-2.078.082-.409-.461-.693-.692-1.04zM55.253 91.28c-.343-.227-16.505-3.953-17.32-4.157-.984-.246-1.042 1.22-1.213 1.905-.314 1.256.392 1.213 1.386 1.213.99 0 16.32 3.993 16.974 4.157.382.095.8-1.753.866-2.079.082-.408-.462-.692-.693-1.039z" fill="none" stroke="#333"/></svg>