<svg xmlns="http://www.w3.org/2000/svg" width="128" height="128" version="1.0"><defs><filter id="a" x="-.169" width="1.338" y="-.63" height="2.261"><feGaussianBlur stdDeviation="5.778"/></filter></defs><metadata/><path d="M104 111a41 11 0 11-82 0 41 11 0 1182 0z" transform="matrix(1 0 0 .77273 4 25.727)" fill-opacity=".72" filter="url(#a)"/><path d="M94.93 38.463l-3.36 3.27-2.386 6.276-.972 6.452 1.856 15.114 2.828 5.215 3.005 1.856 4.862-5.656 2.298-16.176-3.8-12.286c-1.392-1.777-2.719-4.066-4.332-4.065z" fill="#502d16" fill-rule="evenodd"/><path d="M34.117 69.74c1.215-1.008 2.715 5.056 3.204 6.072.756 1.575-.014 5.45.077 7.289.078 1.561-3.783 3.223-4.85 3.567-1.794.58-2.753 2.618-2.858 3.753-.328 3.54-1.519-.247-1.853-1.678-.262-1.124.665-3.7.96-4.933.5-2.097-.182-3.467.009-5.523.182-1.961 1.452-3.044 2.904-4.25.907-.753 1.482-3.153 2.407-4.296z" fill="#28170b" fill-rule="evenodd" stroke="#120a04"/><path d="M109.997 47.38c1.638-2.355 2.77-6.057 5.158-8.293.943-.319 1.973-.18 2.96-.186 1.267.294 1.99 1.146 2.68 2.184.685 2.665-.418 5.417-1.204 7.958-.348 2.27-1.187 4.895-3.111 6.278-2.583 2.183-4.712 1.515-7.877.884a117.971 117.971 0 001.394-8.825z" fill="#e6e6e6" fill-rule="evenodd" stroke="#333"/><path d="M86.765 51.876c2.725-2.177 3.798-1.962 8.186-4.825 2.545.52 4.982-.445 7.5-.625 2.209.516 5.573.239 7.125 1.75 1.988 2.63 2.02 8.29-.5 9.75-1-.25-1.848-1.184-2.875-1.625-2.739-1.286-5.614-1.552-8.5-1.125-3.79.058-6.572 4.127-10.366 3.984-.8-2.167-2.166-5.916-.57-7.284z" fill="#00325c" fill-rule="evenodd" stroke="#00192e"/><path d="M119.085 39.727c.3 3.185.249 6.598-.988 8.894-.724 2.85-1.628 5.363-4.79 7.692" fill="none" stroke="#333"/><path d="M110.946 69.819c.624 3.176 1.221 5.789 3.182 8.485.719.6 1.413.573 2.298.53.764-.237 1.513-.51 2.298-.707.257-2.752 1.906-5.792.98-8.666.039-3.019-1.018-6.07-2.836-8.57-1.71-.577-4.027.043-5.922.177.875 2.784.733 5.949 0 8.75z" fill="#e6e6e6" fill-rule="evenodd" stroke="#333"/><path d="M117.222 78.127c-.557-3.251 1.577-6.501 1.124-9.886-.104-3.144-2.389-4.776-2.539-7.084" fill="none" stroke="#333"/><path d="M86.726 66.344c.78.145 5.63 3.188 6.954 2.923 2.795-.943 5.052.164 7.896.863 2.79-.016 7.325 3.122 9.375 1.125 1.127-2.846 1.97-7.956-.5-10.375-3.852 1.245-7.54.46-11.552-.134-3.8-.029-6.546-2.89-10.366-2.746-.8 2.167-3.403 6.976-1.807 8.344z" fill="#00325c" fill-rule="evenodd" stroke="#00192e"/><path d="M92.581 45.695c-3.211.18-10.58-.99-14.545-1.347-4.957 1.228-9.842-.307-14.797.746-3.106.466-5.975-2.396-8.684-.836-2.413 1.785-3.536 6.293-3.69 9.321.569 3.886.044 7.809.883 11.668 1.24 2.847 2.166 7.81 5.24 8.126 2.773.138 7.19-2.756 9.695-1.47 4.452.388 9.48 1.71 13.944 1.083 5.194-.895 7.856 2.14 13.035 1.564-2.566-4.482-.53-11.234-1.1-16.323-1.525-4.268 3.256-9.884.02-12.532z" fill="#1a1a1a" fill-rule="evenodd" stroke="#000"/><path d="M55.02 63.613c4.86-.656 5.336-9.388 1.778-13.35-2.689.627-5.782.794-7.65 3.1-.765 2.15-.649 4.435-.525 6.68.927 2 4.613 3.555 6.397 3.57z" fill="#e9d2af" fill-rule="evenodd" stroke="#3f2d10"/><path d="M17.397 72.14c4.8 1.41 10.454-.633 15.156-1.89 5.854 1.822 11.191 1.585 15.862-3.967 2.088-6.425 3.054-20.155-5.99-22.354-11.378-1.367-4.825 1.113-14.33-1.473-16.509-1.454-22.939 3.188-19.765 15.09-.262 8.001 3.864 11.436 9.067 14.595z" fill="#e9d2af" fill-rule="evenodd" stroke="#3f2d10"/><path d="M34.996 57.061c-.311 5.561 2.973 8.43 4.943 11.61.18.539.909.914 1.4 1.335 3.514 1.68 7.342-.76 9.528-3.902 1.529-2.633 2.031-5.315 1.529-8.203-.486-2.731-.35-5.701-1.647-8.111-.585-3.984-2.754-5.37-6.645-5.838-2.648.176-5.784 1.475-7.083 3.737-.834 2.946-2.534 6.309-2.025 9.372zm3.369.774c.525-1.815 1.592-5.341 2.768-6.743 2.322-.563 4.633.537 4.353 2.932-1.877 1.556-1.416 4.67.343 6.419.373 2.085-2.109 2.958-3.846 2.904-1.825-.676-2.644-3.933-3.618-5.512zM14.468 57.508c-1.03-4.482-2.096-3.745-3.49-4.886-1.834-10.7 7.288-9.903 11.16-8.139-1.494-1.656-2.249-.785-.808-2.83.403-.47 4.061-.115 4.535-.035.5.084 6.863 1.861 7.015 1.488-2.717-4.478-14.654-5.29-21.191-.516-4.824 3.523-6.748 9.733-4.938 15.077C3.575 73.04 22.724 78.402 35.923 70.843c-2.986-.881-8.983 1.633-12.234.523-.823-.923.804-1.166.676-2.36-8.132 4.018-12.527-.395-13.373-5.778-1.224-1.382 3.041-1.351 3.476-5.72z" fill="#28170b" fill-rule="evenodd" stroke="#120a04"/><path d="M24.124 53.93c2.976 1.415 4.751.388 4.366-2.544.41-.892-1.75-2.8-3.21-2.395-3.899-.386-4.04 2.997-1.156 4.939zM21.993 61.843c.486 2.592 2.263 3.834 4.945 3.375 5.066-2.9-2.059-8.69-4.945-3.375z" fill="#fff" fill-rule="evenodd" stroke="#333"/><path d="M25.118 50.949c.02-.526-2.048.61-.525 1.946 1.18 1.036 2.781-.044 2.915-.803.268-1.524-2.18-1.798-2.39-1.143zM24.309 63.068c-.941-.473-.224 2.174 1.975 1.533 1.517-.442.616-2.115.537-2.242-1.058-1.698-3.847-.385-2.512.709z" fill-rule="evenodd" stroke="#000"/><path d="M27.82 59.117c2.169 1.137 7.368 4.387 7.26-.63-.01-4.683-5.317-2.256-7.34-2.122" fill="#e9d2af" fill-rule="evenodd" stroke="#3f2d10"/><path d="M41.596 60.198c.425-.958.253-3.695.089-5.374" fill="none" stroke="#3f2d10"/><path d="M22.517 43.166c-2.958-7.414 7.176-4.337 6.003-.15M24.033 42.19c-1.583-2.127 1.604-2.94 2.997.175M24.594 70.682c-1.92 7.747 7.701 3.32 5.968-.668M26.23 71.442c-1.28 2.323 1.989 2.695 2.945-.582" fill="#e9d2af" fill-rule="evenodd" stroke="#3f2d10"/><path d="M102.34 55.677c1.035 1.993.028 3.223.028 5.396" fill="none" stroke="#634e00"/><path d="M88.025 24.73c-11.426.086-27.157 2.516-34.907 2.063-15.32 2.53-13.299 21.383-12.187 32.687-.256 11.217.741 17.803 5.75 27.844.939 1.1 2.187 1.925 3.687 2.531 9.789 3.958 30.19-1.288 43.75 1.094 5.187.911 11.522-7.761 11.683-19.325-1.47-.486-4.8-1.407-5.168-1.268-.514 1.326-2.723 5.54-5.702 5.5-2.66-.037-3.362-2.428-4.281-6.063-1.158-4.575-2.144-11.241-2.032-18.875.082-5.537 4.602-12.52 7.25-11.813 3.458.924 4.504 6.218 5.067 7.475 2.884-1.263 4.996.73 6.246-.568-.895-6.857-4.218-21.423-9.36-20.375-2.4-.686-5.988-.935-9.796-.907zm14.52 30.87c.73 2.295.022 3.484.069 5.323 1.34.311 2.881.42 4.692.26l-.188-3.986c-1.636-.51-2.487-1.54-4.574-1.598z" fill="#ddcf99" fill-rule="evenodd"/><path d="M97.554 25.623c-9.598-2.743-34.103 1.774-44.436 1.17-15.32 2.53-13.288 21.373-12.177 32.677-.256 11.216.724 17.82 5.733 27.86.939 1.1 2.19 1.923 3.69 2.53 9.789 3.957 30.186-1.284 43.746 1.098" fill="none" stroke="#000"/><path d="M107.28 57.222c.18 1.189.405 2.58.308 4.498M100.325 69.896c-.316 2.603-2.264 5.482-4.78 6.061-5.36-.225-5.893-11.135-7.098-17.78-.8-7.64 1.972-17.967 6.543-19.268 2.556-.73 4.585 4.091 5.378 7.326" fill="none" stroke="#634e00"/><path d="M83.243 77.668c2.682 5.86 3.983 9.426 9.125 13.125 1.564.313 4.507-.406 5.695-1 6.6-3.967 5.864-11.253 7.79-18.101m1.235-25.03c-.473-5.248-1.76-11.081-3.97-15.87-1.434-4.406-4.76-5.251-9-5.5" fill="none" stroke="#634e00"/><path d="M97.554 25.623c-9.598-2.743-34.103 1.774-44.436 1.17-15.32 2.53-13.288 21.373-12.177 32.677-.562 17.785-2.277 43.576 2.706 60.442 2.177.88 10.926-11.631 12.01-15.357 2.29 1.997 9.09 7.914 11.222 11.292 2.509-2.224 6.298-5.69 7.744-7.756 4.333 2.058 10.73 9.65 12.902 12.417 1.478-3.645.034-33.297-3.804-39.735-.344-.577-3.974-33.689.538-44.582 1.468-3.544 10.173-12.197 13.387-10.322" fill="#fff6d5" fill-rule="evenodd" stroke="#634e00"/><path d="M38.13 80.87c-2.286.15-2.239 2.078-.555 2.559 2.194.817 4.641 1.421 7 1.446 4.256-2.116-1.016-3.777-3.11-4.339 2.708 1.094 4.85 1.476 7.111-.222-.403-2.824-3.9-2.716-6.223-2.893 1.428-.099 3.626.099 5.112-1.001.505-1.261-.213-1.877-1.333-2.336-2.124-.593-4.947-.174-6.668-.557 1.103-1.692 3.552-3.336.445-5.84-2.26-.164-3.505 3.18-4.334 5.062-2.677 1.118-.949 3.085.514 4.045-4.002 1.575-.561 4.587 2.042 4.076zM40.38 38.561c-2.286-.15-2.239-2.078-.555-2.559 2.194-.817 4.641-1.421 7-1.446 4.256 2.116-1.016 3.777-3.11 4.339 2.708-1.094 4.85-1.476 7.111.222-.403 2.824-3.9 2.716-6.223 2.893 1.428.099 3.626-.099 5.112 1.001.505 1.261-.213 1.877-1.333 2.336-2.124.593-4.947.174-6.668.557 1.103 1.692 3.552 3.336.445 5.84-2.26.164-3.505-3.18-4.334-5.062-2.677-1.118-.949-3.085.514-4.045-4.002-1.575-.561-4.587 2.042-4.076z" fill="#e9d2af" fill-rule="evenodd" stroke="#3f2d10"/></svg>