<svg xmlns="http://www.w3.org/2000/svg" width="128" height="128" version="1.0"><defs><filter id="a" x="-.07" width="1.14" y="-.312" height="1.625"><feGaussianBlur stdDeviation="1.91"/></filter></defs><metadata/><path d="M175.5 158c-4.92.98-13.45.012-19.5-1.5-5.28 1.486-11.026 1.27-16.5 2.5-6.344 4.454 2.687 8.243 7 8.5 5.712.6 9.986-3.327 15.5-1 6.045.937 12.075-.364 18.5 0 7.05.743 12.457-3.981 19-5.5 3.746-.75 3.653-.389 3-3-13.164-9.031-16.712-4.177-27 0z" fill-opacity=".634" fill-rule="evenodd" filter="url(#a)" transform="translate(-110.34 -43.775)"/><path d="M45.047 79.005c-.817 2.104-2.296 1.931-3.89.884-1.951.215-3.704-.015-5.656-.354-3.288 2.304.57 3.528 2.652 4.066 1.345.673-.278 1.73-.708 1.945-2.177 1.457-5.783 1.303-3.358 4.066 2.085.036 2.71-1.98 4.596-1.238-1.733 3.02-5.477 3.473-3.005 5.48.76.57 2.428-1.158 3.005-1.59.92-.69.668-1.494 1.768-1.768.723-.181-.357 2.831-.884 3.358-.484 2.46 1.453 1.593 3.182-.53 1.456-1.04 2.015-3.134 2.475-4.773 1.392-2.106 3.509-3.245 4.242-5.834.385-3.02-1.76-3.937-4.42-3.712z" fill="#e9d2af" fill-rule="evenodd" stroke="#4c2f0a"/><path d="M59.202 57.31c-3.965 2.052-4.124 7.237-6.085 10.985-2.48 4.232-8.041 5.566-8.779 10.574 1.683 1.989 3.81 5.215 6.061 6.05 2.656-2.701 5.386-7.369 7.121-10.775 2.067-3.64 4.686-5.57 6.515-9.283" fill="#333" fill-rule="evenodd" stroke="#1a1a1a"/><path d="M57.52 112.472c-3.922 1.156-7.642 1.04-11.347 3.146-1.103.55-1.385.381-.84 1.468 3.071 2.231 8.944.956 12.608.21 2.553-.074 4.203-1.861 6.724-2.307.99.494-.124 1.542 1.261 1.888.667.166 2.377-.279 2.942-.42.976-1.348.912-4.006-.84-4.404-3.542-.367-6.993-.09-10.508.42z" fill="#1a1a1a" fill-rule="evenodd" stroke="#000"/><path d="M75.593 112.682c-3.212.5-3.538 3.236-6.805 3.413-1.99.187-4.998 1.536-4.823 3.565 3.508 2.193 6.222.542 10.133-.144 2.497-.066 3.267-3.752 5.488-3.898.99.494-.125 1.542 1.26 1.888.667.166 2.377-.279 2.942-.42.977-1.348 2.327-4.182.574-4.581-2.485-.095-6.288-.118-8.77.177z" fill="#1a1a1a" fill-rule="evenodd" stroke="#000"/><path d="M73.702 88.562c1.917 4.806 2.019 9.403 1.26 14.472.426 2.146-2.237 8.118-1.878 10.655 3.355-1.213 9.016-.576 12.462-.576 1.67-3.31-.397-8.857-.397-12.695-.518-4.204 2.922-8.054 3.263-12.066-4.227-.504-10.145-.792-14.71.21zM57.52 88.562c3.233 6.93 2.276 15.156-.253 23.26.804 2.25 8.365.23 11.391.23 1.42-4.671-.229-10.058 1.26-16.988.969-2.268 2.1-4.203 2.313-6.712-4.826-.64-10.23-.497-14.71.21z" fill="#333" fill-rule="evenodd" stroke="#1a1a1a"/><path d="M91.07 95.738c.152-6.92.997-15.735 1.271-22.742-.016-6.375.771-14.653-2.622-20.323-2.093-2.494-1.729-3.055-4.46-4.8-7.713 1.713-16.44-2.028-23.956 2.307C56.6 55.312 55.246 64.186 55 70.944c.568 8.95-.42 17.935-.42 26.846 4.642-.367 9.305-1.048 14.08-1.048 7.149-2.102 15.245 2.46 22.411-1.004z" fill="#333" fill-rule="evenodd" stroke="#1a1a1a"/><path d="M61.583 52.145l18.633.132-12.085 20.644-6.548-20.776z" fill="#fff" fill-rule="evenodd" stroke="#000"/><path d="M67.872 63.106l-.177 9.546c1.12-.854 1.886-3.037 3.005-5.304l.354-4.95-3.182.708z" fill="#d40000" fill-rule="evenodd" stroke="#520000"/><path d="M68.049 58.333l-1.061 3.182.884 1.59 3.712-.353-1.237-4.066-2.298-.353z" fill="#d40000" fill-rule="evenodd" stroke="#520000"/><path d="M70.17 57.979l2.475 4.596c1.485-2.466 3.037-4.85 4.773-6.894-2.409.298-5.471.632-7.248 2.298zM68.225 57.802l-3.182 5.48-2.12-7.601 5.302 2.121z" fill="#fff" fill-rule="evenodd" stroke="gray"/><path d="M67.267 72.703c-2.457-3.363-6.153-8.503-7.995-12.255.87.083 2.325.028 2.111-1.555-.947-1.941-3.965-3.58-5.383-5.939.921-.23 4.393-.773 5.593-.773 4.568 5.659 5.744 13.404 5.674 20.522zM85.68 47.243c-3.225 1.956-6.674 3.607-10.087 5.244.59 10.956-7.018 14.347-7.878 21.31 6.593-3.247 7.506-13.717 14.392-15.791.661-.66-2.355-.756-4.323-.452 1.93-4.702 8.53-5.603 12.519-8.633-1.549-.592-3.023-1.379-4.623-1.678z" fill="#333" fill-rule="evenodd" stroke="#1a1a1a"/><path d="M59.435 19.251c-4.281 7.419.237 17.543-3.269 30.218.915 5.525 4.956 7.104 8.265 8.213 3.77.761 7.437.726 10.626-1.493 6.89-4.111 10.926-8.899 13.341-16.445.257-5.578-2.338-11.169-2.321-16.78-.32-5.679-4.344-8.724-9.446-10.079-6.072-1.022-12.898 2.332-17.196 6.366z" fill="#e9d2af" fill-rule="evenodd" stroke="#4c2f0a"/><path d="M83.993 14.942c-5.365-.903-2.954-10.496-8.835-9.445-3.046-.39-6.167 2.249-9.445-.785-2.392 1.76-4.88 5.499-5.116 8.639 5.856 1.738 17.063 3.573 23.396 1.591z" fill="#333" fill-rule="evenodd" stroke="#1a1a1a"/><path d="M63.033 32.236c-2.938 6.337-6.622 4.835-8.047 8.54 2.594 4.378 5.883 2.947 9.051-.392M84.109 27.032c5.042-8.082 10.348 6.416 1.574 6.676" fill="#e9d2af" fill-rule="evenodd" stroke="#4c2f0a"/><path d="M56.408 48.79c6.723 4.994 15.482 3.06 20.62-3.66" fill="none" stroke="#4c2f0a"/><path d="M68.68 26.525c-1.288 2.103-1.655 5.587.556 6.942 5.454.078 5.234-2.94 5.287-5.83.01-3.244-4.74-3.572-5.844-1.112zM59.281 25.793c-2.469 3.04-1.687 5.938.824 6.917 1.282.5 2.76-1.501 3.34-3.231 1.148-2.877-1.074-5.157-4.164-3.686z" fill="#fff" fill-rule="evenodd" stroke="#333"/><path d="M60.357 28.343c-1.664 0-1.48 2.967-.557 3.888 2.747.52 4.285-4.386.557-3.888zM72.019 28.545c-.373-1.677-3.769 2.283-2.227 4.165 3.507.803 4.187-1.155 2.227-4.165zM60.697 12.232c9.131-1.8 13.228-1.921 20.588-1.095l1.522 4.42-22.64.374c-.045-2.077-.72-2.054.53-3.7z" fill-rule="evenodd" stroke="#000"/><path d="M56.796 23.704c-3.348-.646-6.865-.047-6.969-4.102 8.283-6.639 31.408-8.689 40.095-2.476 6.6 3.56.72 5.47-3.627 5.745-5.668-7.243-21.43-7.183-29.499.833z" fill="#333" fill-rule="evenodd" stroke="#1a1a1a"/><path d="M67.707 72.553c-.177 6.579-1.252 5.774-1.99 12.327-.366 1.575-.266 10.343.21 11.862" fill="none" stroke="#1a1a1a"/><path d="M91.893 84.308c-.875-.218-.658 3.437-1.061 4.243-1.939 1.546-3.278.676-3.89 3.359-.272 1.092 2.614-.629 3.713-.354 2.697 1.36-3.905 5.274-.884 6.894 2.093-.658 3.974-3.926 4.773-5.833.845 1.23-2.586 8.545.177 7.424 2.378-.76 1.776-4.978 2.298-6.894.456 1.912.17 4.943 2.475 4.596 1.895-1.64.98-6.318-1.06-8.662-.863-1.314-.519-3.175-.708-4.773-.874-4.095-4.72-4.246-5.833 0z" fill="#e9d2af" fill-rule="evenodd" stroke="#4c2f0a"/><path d="M88.812 56.637c5.41 5.053 4.302 9.147 7.552 13.609.316 3.497 1.524 9.635 2.134 13.072-1.624.577-6.26 3.854-7.775 2.517-.508-4.316-1.008-8.503-1.891-12.794-1.444-3.998-2.774-9.424-5.44-12.839" fill="#333" fill-rule="evenodd" stroke="#1a1a1a"/><path d="M75.296 68.055l7.602.177-.177 2.475-7.601-.354.176-2.298z" fill="none" stroke="#1a1a1a"/><path d="M86.035 27.35c2.86-1.429 3.476 2.534.625 4.125" fill="none" stroke="#4c2f0a"/></svg>