<svg xmlns="http://www.w3.org/2000/svg" width="128" height="128" version="1.0"><defs><filter height="1.653" y="-.327" width="1.25" x="-.125" id="a"><feGaussianBlur stdDeviation="1.963"/></filter></defs><metadata/><path d="M639.438 35.482c-5.465.422-6.823-3.26-11.495.89-1.413 1.413-1.725 4.217-1.334 5.781 2.875 3.851 5.999 2.88 10.605 4.448 2.277.569 4.263.89 7.116.89 2.9 0 4.684 1.438 7.561 0 2.231-1.116 4.29-.773 6.227-2.225 1.512-1.134 2.226-3.123 2.668-4.892.784-3.135-1.876-3.607-3.558-4.447-2.16-1.081-5.906-.414-7.56 0-1.774.443-3.317-2.224-5.782-2.224-2 0-1.06 1.779-4.448 1.779z" fill-opacity=".728" fill-rule="evenodd" filter="url(#a)" transform="translate(-580 76)"/><path d="M58.56 109.34c-2.356 3.085-5.544 3.832-8.735 4.307-.6.719-.323.287-.28 1.173.237.764.51 1.512.706 2.298 2.752.257 5.793 1.905 8.667.98 3.018.039 6.07-1.018 8.57-2.836.577-1.71-.043-4.028-.178-5.922-2.784.875-5.948.733-8.75 0z" fill="#2b1100" fill-rule="evenodd" stroke="#0e0300"/><path d="M50.251 115.615c3.252-.556 6.502 1.578 9.887 1.124 3.144-.104 4.775-2.388 7.084-2.538" fill="none" stroke="#0e0300"/><path d="M69.785 109.87c-2.324 3.416-6.217 4.642-8.839 5.53-.427.898-.41.563-.53 1.541.144 1.294.905 2.112 1.856 2.917 2.567.993 5.429.218 8.044-.265 2.294-.08 5-.607 6.598-2.356 2.47-2.31 2.056-4.503 1.798-7.72-2.975.225-5.943.353-8.927.353z" fill="#2b1100" fill-rule="evenodd" stroke="#0e0300"/><path d="M46.922 65.651c-2.9 1.59-6.17 2.528-9.463 2.085-1.428-.668-.4-2.705-2.208-2.94-1.228.77-1.123 2.177-1.027 3.53-2.062-.28-4.128-1.473-5.484.972.983.94 2.575 1.272 3.848 1.181-1.313.6-4.406.387-2.422 2.558 1.358.918 2.507-.156 3.908-.559-1.189 1.521-3.387 2.616-.282 3.008 1.234-.28 1.862-1.14 2.585-2.085 1.142-.576 2.547-.582 3.825-.795 3.067.625 6.982 1.906 10.019 1.337 1.661-2.495 6.186-2.582 7.945-4.811.873-.754 5.302-5.899 5.922-6.816-.16-2.923-1.683-4.82-4.566-5.166-4.872-1.597-14.15 2.152-12.6 8.501z" fill="#fca" fill-rule="evenodd" stroke="#3f2d10"/><path d="M69 45.375c-.281-.004-.564.015-.844.031-1.676.098-3.319.56-4.937 1.032-1.738 1.355-2.42 5.32-2.032 7.062-.02.055-.042.102-.062.156-3.781.883-3.765 1.503-4.538 2-6.405 4.112 1.103 18.943-1.243 20.875 2.84 7.107 6.284 5.754 9.562 6.719l16.25-3.375c1.223-8.228 4.253-15.404 2.127-22.795-.344-5.618-6.216-2.711-8.69-4.924-1.21-2.472-2.09-5.426-4.75-6.718a8.43 8.43 0 00-.843-.063z" fill="#fca" fill-rule="evenodd" stroke="#3f2d10"/><path d="M84.313 77.063c-8.886 3.784-23.306 7.136-28.744-.343-.014 3.958 1.338 7.916 2.493 11.874-.546.985-1.375 2.311-1.187 3.25.943 2.795 2.074 5.28 1.375 8.125.016 2.79-2.997 7.824-1 9.875 2.846 1.127 7.831 1.47 10.25-1-1.246-3.852-1.344-7.364-.75-11.375.02-2.541.353-5.004.531-7.5l.719-.031c-.131.286-.19.585-.125.906-.487 3.515 1.534 7.202 1.25 11.5.515 2.208-1.887 5.823-.375 7.375 2.63 1.988 9.165 1.895 10.625-.625-1.018-3.858-2.097-7.493-1.5-11.5.044-2.875.456-5.69.594-8.531h.031l5.813-12z" fill="#00325c" fill-rule="evenodd" stroke="#00192e"/><path d="M75.881 59.47c-3.102 4.082-2.843 13.827 3.664 14.438.553 3.26.37 6.658-1.125 9.625-1.097 1.13-2.686-.507-3.5 1.125.326 1.411 1.69 1.773 3 2.125-.939 1.856-2.741 3.419-.875 5.5 1.211-.622 2.045-2.018 2.375-3.25.138 1.436-1.075 4.29 1.625 3.125 1.312-.983.673-2.42.75-3.875 1.049 1.62 1.365 4.056 2.75 1.25.14-1.259-.467-2.133-1.125-3.125-.17-1.269.284-2.598.5-3.875 1.594-2.695 4.085-5.975 4.54-9.03-1.815-2.387-.417-6.691-1.949-9.083-.176-1.29-1.71-8.803-4.505-7.825M63.952 8.135C53.5 8.074 49.367 14.969 49.227 23.938c0 1.876.868 5.568 1.332 7.428-.216 3.662-1.123 6.429-.042 10.003 1.256 5.057 4.653 7.748 9.545 8.839 4.344-.085 11.037-.506 14.292-3.542 4.66-3.813 3.582-11.698 5.297-17.34.61-5.388-.38-10.154-1.91-15.18-2.132-5.5-8.578-6.78-13.79-6.011z" fill="#fca" fill-rule="evenodd" stroke="#3f2d10"/><path d="M51.727 8.464c8.783 1.243 15.879-4.807 25.742 2.482 2.97 4.029 6.07 8.586 3.774 14.782-.35 2.437-1.591 7.66-2.708 6.817 1.243-5.037.906-5.682-2.916-7.44-1.931-.482-2.4.114-4.066.53 2.72-8.907.3-8.827-5.834-10.782-4.696-4.302-11.542-1.396-13.611-1.945-.345-.53 1.719-3.604-.38-4.444z" fill="#a05a2c" fill-rule="evenodd" stroke="#603b00"/><path d="M57.957 25.765c-1.366 2.999.133 3.431 3.058 2.998.899.395 2.765-1.973 2.335-3.427-2.218-1.437-4.264-1.176-5.393.43zM51.14 24.265c-2.354.529-2.2.5-1.741 3.174 3.336 2.809 6.626-.376 1.741-3.174z" fill="#fff" fill-rule="evenodd" stroke="#333"/><path d="M54.024 29.814c-.627 3.614-2.35 1-2.241 5.092-.119 1.963 4.059 2.19 4.366.033M73.399 26.69c5.863-2.33 4.83 6.354.5 5.5M74.524 28.064c.851-1.493 3.092 1.18 0 2.625" fill="#fca" fill-rule="evenodd" stroke="#3f2d10"/><path d="M52.649 41.94c-.246-.047 2.957 2.025 6.413-.078" fill="none" stroke="#3f2d10"/><path d="M60.17 26.543c.387-.357-1.252-.647-1.125 1.375.099 1.567 1.743 1.065 2.375.625 1.27-.885-.637-2.313-1.25-2zM51.436 26.32c.457-.948-1.803-.937-1.125 1.25.467 1.51 2.159.619 2.25.5.93-1.21-.054-3.102-1.125-1.75z" fill-rule="evenodd" stroke="#000"/><path d="M61.123 118.002c3.128.67 6.523 1.018 8.949.058 2.915-.386 5.516-.99 8.198-3.859" fill="none" stroke="#0e0300"/><path d="M54.25 66c2.377 4.24 4.45 4.517 6.5 4.5M65.625 70.625c2.868-.244 5.59-1.215 8.125-3.125M61.5 53.625c.802.271 1.93-.109 2.125 1.375M66.5 55.375c-1.335-.386-.426-1.161 5.875-2.875M63.477 77.059c-.891-1.939 2.809-1.723 1.502-.265M69.789 66.093c-1.857-1.05 1.27-3.04 1.063-1.094M56.417 64.49c.79-1.983 3.184.846 1.228.905" fill="none" stroke="#3f2d10"/><path d="M84 20.5c.123 1.945.858 3.93 1.875 5.625C87.832 27.182 89.785 28.431 92 29c.04-2.43-2.095-4.57-3.5-6.625-1.304-1.38-2.72-1.635-4.5-1.875z" fill="#006ca9" fill-rule="evenodd" stroke="#003250"/><path d="M78.375 20.75c.787 2.538 3.892 1.78 6.25 1.25 1.01-.337 1.625-2.085 1.625-3-.558-1.31-1.907-2.156-2.875-3.25-.688-.688-3.674 1.704-4.375 2.125" fill="#006ca9" fill-rule="evenodd" stroke="#003250"/><path d="M50 14l-1.5 5.25c-.603 2.613 33.488 4.8 34.5 2.875.313-.596-.75-5.625-.75-5.625-10.846 2.64-21.737.853-32.25-2.5zM84.75 18c2.368-2.417 4.8-3.123 8-2.375 2.063 1.85 3.21 4.191 5.5 5.875-2.75 1.018-6.04-.962-8.75-2-1.622-.385-3.159-1.028-4.75-1.5z" fill="#006ca9" fill-rule="evenodd" stroke="#003250"/><path d="M19.875 25.875L16.625 27C17.881 40.946 21.119 54.461 30 66.75l3.625-.875c-7.75-12.333-12.333-25.667-13.75-40z" fill="#ccc" fill-rule="evenodd" stroke="gray"/><path d="M37.5 63.5c-.5 0-11.125 4.625-11.125 4.625l1.125 1.25s3.75-1.75 3.875-.875S36 77.25 36 77.25l2.75-1.375-3.875-9.375L38 65.25l-.5-1.75z" fill="#333" fill-rule="evenodd" stroke="#000"/></svg>