<svg xmlns="http://www.w3.org/2000/svg" width="128" height="128" version="1.0"><defs><filter id="a" x="-.063" width="1.126" y="-.195" height="1.389"><feGaussianBlur stdDeviation="2.233"/></filter></defs><metadata/><path d="M39.417 61.661c-8.736.033-17.742 1.705-24.907 6.906-2.655.842-7.093 2.485-6 6.063 1.323 2.794 5.41 1.55 7.844 1.156 2.425-.902 6.46-3.18 8.281-.187.736 3.024-3.202 3.578-5.218 4.343-2.737.351-10.984 2.975-9.346 6.11 1.278 3.338 3.315 9.508 6.387 8.11 1.843-.509 2.777-7.967 6.299-6.61 5.774 2.224 14.705-3.237 17.94-4.922 3.998-3.4 9.562-.054 14.249-1.078 2.46-.71 4.505.756 6.596 1.484 2.561.408 3.56-2.347 3.156-4.344 1.192-3.014 5.447-2.216 7.98-3.152 3.45-.383 6.844-1.405 10.145-2.004 3.33.914 7.56 3.623 10.531.5-2.127-5.997-8.86-7.688-14.437-8.844-9.699-1.682-19.852-.628-29.312-3.304-3.393-.15-6.792-.32-10.188-.227z" transform="matrix(.94881 0 0 .94877 32.98 33.645)" fill-opacity=".766" fill-rule="evenodd" filter="url(#a)"/><path d="M47.427 96.733c-3.312-1.71-7.824-2.654-10.846-3.069.827-2.064.566-5.56-1.78-5.545-1.232.61-.84 3.307-.877 4.593-3.433-1.837.87 5.786.625 4.4 1.132-.438 2.015.635 3.242.553 2.597 1.478 3.94 2.475 6.141 3.182 2.177.821 4.997 3.745 6.865 1.415.894-.63 4.493-4.846 5.164-5.655.123-2.775-1.433-2.502-4.123-3.1-3.513-.62-4.223 1.568-4.411 3.226z" fill="#e9d2af" fill-rule="evenodd" stroke="#3f2d10"/><path d="M9.125 43.451c5.276 11.5 11.596 26.526 15.387 38.596 1.4 3.726 3.282 9.876 5.82 12.897 3.37 5.05 5.864 10.666 9.299 15.677 2.363 2.828 2.757 6.437 4.89 9.346 2.438 1.811 4.138.736 3.903-2.14-.467-2.358-1.81-4.361-2.91-6.448-3.734-5.716-8.236-12.78-11.257-18.82-5.851-12.643-14.38-31.466-16.435-43.645-3.322-6.988-2.886-14.7-11.737-16.136-4.028 3.399 3 6.31 3.04 10.673z" fill="#502d16" fill-rule="evenodd" stroke="#2e180c"/><path d="M47.563 22.781c-19.196 3.245-29.66 11.432-40.907 15 14.915-.934 17.986 28.346 16.313 36.5 15.31-5.804 15.365-15.828 32.531-19.625 11.304-3.032 22.707-.562 33.719 2.407 11.472 3.105 18.279 4.765 35.937.593-3.807-9.61-5.605-15.228-5.062-23.281-1.223-4.761.824-6.25-1.563-10.594-11.295 6.775-22.505 3.685-34.312 1-12.067-3.376-24.36-3.638-36.656-2z" fill="#aee0fd" fill-rule="evenodd" stroke="#00527f"/><path d="M26.219 74.507c-1.123.352-2.668.235-4.08 0-.722-2.038-1.138-3.278.84-4.56.535 1.145.645 4.712-1.301 5.18-2.485.596-5.497 1.315-3.859-.5 1.801-.843 3.456-.957 3.72 1.2-.39 1.711-1.356 2.141-3 2.4-6.158 2.751 2.674-5.849 3.326-3.329.537 2.073-.73 5.406-.446 6.568" fill="none" stroke="#000"/><g stroke="#333" stroke-width="1.054"><path d="M209.337 90.923c1.854 2.19 3.33 5.769 5.919 7.77.968.228 1.98-.008 2.963-.095 1.234-.413 1.874-1.33 2.461-2.428.432-2.718-.927-5.353-1.949-7.808-.56-2.226-1.644-4.761-3.69-5.956-2.777-1.93-4.834-1.064-7.926-.136a117.971 117.971 0 012.222 8.653z" fill="#e6e6e6" fill-rule="evenodd" transform="matrix(.74165 -.59175 .59178 .74162 -99.065 151.588)"/><path d="M219.107 97.684c-.001-3.2-.375-6.592-1.823-8.762-.99-2.769-2.128-5.184-5.496-7.204" fill="none" transform="matrix(.74165 -.59175 .59178 .74162 -99.065 151.588)"/></g><path d="M89.775 99.432c.752-.02 2.777.267 3.951-.242.903-.392 1.783-.876 2.634-1.294 2.258-.989 4.71-.58 7.082-.915 1.946-.919 3.022-.331 4.16-2.043 1.32-2.835.599-7.153-2.03-8.005-.879.431-2.234.967-3.099 1.58-2.659.99-2.447 1.065-5.182 1.298-3.528.702-7.07.775-10.56 1.663-.311 2.17 1.291 7.007 3.044 7.958z" fill="#00325c" fill-rule="evenodd" stroke="#00192e"/><g stroke="#333" stroke-width="1.054"><path d="M211.177 102.01c1.278 2.973 2.41 5.403 4.894 7.627.829.436 1.502.263 2.358.035.697-.392 1.371-.817 2.098-1.174-.327-2.744.646-6.063-.862-8.679-.597-2.959-2.271-5.72-4.574-7.782-1.793-.205-3.928.888-5.753 1.418 1.44 2.538 1.967 5.661 1.84 8.555z" fill="#e6e6e6" fill-rule="evenodd" transform="matrix(.80035 -.50957 .5096 .80031 -109.21 125.735)"/><path d="M219.058 108.814c-1.227-3.062.176-6.688-.978-9.902-.762-3.052-3.339-4.167-3.97-6.393" fill="none" transform="matrix(.80035 -.50957 .5096 .80031 -109.21 125.735)"/></g><path d="M57.167 85.646c-3.36 1.52-.798-.38-3.1 2.433-2.18 1.763-4.863 2.65-6.196 5.18 3.235 2.049 3.155 5.343 6.434 7.198 3.263-3.585 4.037-6.212 5.888-10.618" fill="#1a1a1a" fill-rule="evenodd" stroke="#000"/><path d="M89.194 105.416c.751-.02 2.776.267 3.95-.243 2.405-1.432 4.802-2.074 7.579-1.992 2.585-.571 9.265-2.018 10.769-4.28.478-2.864-1.607-4.319-4.38-6.07-3.325 1.924-6.563 2.714-10.403 2.964-3.53.73-7.045.768-10.56 1.663-.311 2.17 1.291 7.007 3.045 7.958z" fill="#00325c" fill-rule="evenodd" stroke="#00192e"/><path d="M95.27 82.177c-3.62 2.184-8.24-.31-11.918-1.164-4.819.507-9.374-3.182-14.168-2.84-2.98.031-5.742.634-8.491 1.747-2.501 1.361-6.62 3.085-7.16 5.912.027 3.726-1.818 4.324-1.533 8.06.792 2.838 5.818 8.304 8.665 9.004 2.589.492 4.962.643 7.148 2.18 4.132.945 8.187 2.923 12.464 2.918 4.997-.162 6.71 2.211 11.652 2.347-1.825-4.547 2.569-9.5 2.698-14.356-.876-4.21 3.338-10.896.642-13.808z" fill="#1a1a1a" fill-rule="evenodd" stroke="#000"/><path d="M61.85 107.46c-2.915 1.164-11.117 2.11-14.167 1.315-1.268-.793-1.424-2.84-3.1-3.27-1.245.584.05 2.169-.015 3.454-2.159-.75-6.926-2.462-7.044 1.124.818.999 4.047.656 5.256.716-1.305.414-3.926.768-2.307 3.04 1.174 1.02 2.111-.07 3.477-.288-1.229.317-1.863 1.932-.611 3.15 1.195-.122 2.834-.366 3.623-1.173 1.142-.412 1.517-1.797 2.746-1.851 2.817.94 10.38.514 13.306.326 1.852-2.159 5.325-1.114 7.238-3.012.908-.61 2.424-10.803 3.113-11.596.186-2.771-4.234.534-6.909-.123-3.498-.698-2.13 7.02-4.606 8.189z" fill="#e9d2af" fill-rule="evenodd" stroke="#3f2d10"/><path style="-inkscape-font-specification:Rufscript" d="M60.005 102.326c-.038.031-.07.16-.095-.083-.269-1.032-.6-2.002-.871-3.033-.135-.504-.271-1.01-.39-1.523-.029-.304.066-.405.129-.523.142-.201.301-.353.472-.45.123.103.253.355.374.582.165.32.26.833.257 1.197.015.494-.09.788-.095 1.247-.021.28.117.659.239.744.168.164.331.205.506.502.098.167.21.374.275.644-.032.215-.177.264-.306.004-.12-.159-.25-.393-.365-.51-.1-.032-.309-.6-.298-.15.021.3.124.634.195.943.05.15-.005.208-.01.31l-.017.099zm-.522-2.53c.084-.442.18-.884.165-1.498.002-.259-.101-.628-.219-.732-.194-.219-.326-.03-.456.082-.14.026.06.539.127.795.137.44.255.902.383 1.353zm1.95 1.36c-.186-.714-.36-1.448-.588-2.118l-.46-1.438c-.121-.18-.216-.054-.314-.046-.109.05-.269.074-.406-.32-.094-.313.11-.244.151-.363.321-.268.633-.582 1-.67.081-.026.251-.018.302.381.005.287-.111.318-.191.388-.097.069-.197.126-.29.209.017.398.186.811.303 1.183.244.783.463 1.604.654 2.43.089.32.106.668-.041.553-.038-.007-.09-.065-.12-.189zm.623-2.425c-.003.267.17.613.256.88.108.292.25.615.285.961-.001.304-.192.266-.291-.12-.32-1.033-.608-2.105-.903-3.167-.089-.345-.196-.691-.26-1.044.014-.406.154-.548.268-.706.12-.12.235-.29.399-.214.096.158.28.373.316.651-.211.079-.451.077-.604.377-.08.167.072.624.143.91.08.357.242.76.356.657.143-.058.201-.456.385-.337.174.164.18.672.083.744a1 1 0 01-.433.408zm2.694 1.646c-.142-.38-.245-.824-.361-1.239-.366-1.364-.697-2.753-1.07-4.11-.036-.052.01.37.003.494.011.44-.016.842-.05 1.2.094.134.278.238.314.519.02.39-.131.337-.265.057-.278-.413-.555-.834-.833-1.228.333 1.194.67 2.386.986 3.594.089.33-.003.623-.13.416-.124-.258-.197-.631-.29-.947a228.917 228.917 0 01-.861-3.304c-.089-.342-.003-.52.093-.508.127.042.28.236.406.55.092.167.268.642.31.429.01-.468.026-.928.032-1.4-.012-.29.026-.544-.052-.888-.014-.263.137-.424.237-.05.205.69.386 1.404.589 2.097.298 1.081.574 2.185.888 3.25.096.274.209.617.166.86-.01.122-.025.366-.112.208z" font-size="12" font-weight="400" fill="#fff" font-family="Rufscript"/><path d="M64.98 86.833c-.827 2.267-1.13 4.54-1.292 6.92-.32 2.374-1.07 4.614-1.975 6.814 3.838 1.166 8.424 1.288 12.583 1.687.38-1.972.635-3.958 1.054-5.929.432-2.644-.886-4.854-1.066-7.373-.526-2.351-1.92-3.947-4.4-4.232" fill="#1a1a1a" fill-rule="evenodd" stroke="#000"/><path d="M49.854 43.148c-9.916-.058-13.838 6.484-13.97 14.993 0 1.78.822 5.283 1.263 7.047-.205 3.475-1.066 6.1-.04 9.491 1.192 4.798 4.415 7.351 9.057 8.386 4.12-.08 9.659-1.48 12.747-4.36 4.422-3.619 5.754-9.743 7.38-15.096.578-5.112-1.902-9.99-3.354-14.759-2.022-5.218-8.139-6.433-13.083-5.702z" fill="#e9d2af" fill-rule="evenodd" stroke="#3f2d10"/><path d="M37.107 49.856c-.612-9.357 24.91-12.446 26.243-5.048 7.17.55 7.206 18.916 5.425 25.236-7.397-.075-3.55-8.645-7.851-10.795-1.832-.458-2.444.946-4.026 1.342-3.348-2.153.039-8.775-5.367-11.07-2.64 1.067-5.985 2.713-8.722 0-2.34 0-3.71 1.132-5.702.335z" fill="#28170b" fill-rule="evenodd" stroke="#120a04"/><path d="M67.709 68.717c-1.499 0 1.082 5.336 1.342 6.373.402 1.609 3.313 3.97 4.36 5.367.89 1.187 4.716.06 5.703-.335 1.662-.665 3.597.242 4.361 1.006 2.386 2.386.96-1.1.336-2.348-.49-.98-2.728-2.297-3.69-3.019-1.637-1.227-1.97-2.64-3.355-4.025-1.321-1.322-2.905-1.342-4.696-1.342-1.119 0-2.993-1.403-4.361-1.677z" fill="#28170b" fill-rule="evenodd" stroke="#120a04"/><path d="M52.034 90.292c3.516 3.046 10.03-2.094 10.615-7.112-2.133-1.52-4.193-3.617-7.006-3.499-2.01.805-3.563 2.322-5.083 3.818-.841 1.915.365 5.514 1.474 6.793z" fill="#e9d2af" fill-rule="evenodd" stroke="#3f2d10"/><path d="M35.987 80.705c.622 1.245 1.887 2.016 3.469 2.016 2.492.719 4.903 1.837 7.383 2.698 3.256.837 5.629-.825 8.035-2.698 4.055-2.096 8.257-5.665 9.103-10.347.237-1.962-.535-1.957-1.66-1.601-1.87 1.907-4.211 3.923-6.76 4.921-3.23.918-5.79 1.343-6.702-2.371-1.071-3.077-4.53-3.96-7.383-4.685-6.063-.262-7.386 7.648-5.485 12.067zm5.426-8.331c2.926-1.236 9.023 6.29 3.736 5.989-2.221-.74-2.683-2.177-4.003-.326-4.707 1.426-2.85-4.48.267-5.663z" fill="#28170b" fill-rule="evenodd" stroke="#120a04"/><path d="M44.586 58.617c-1.296 2.845-.294 4.513 2.482 4.101.852.376 2.629-1.704 2.22-3.083.306-3.704-2.905-3.785-4.702-1.018zM38.893 56.72c-2.234.5-3.282 2.206-2.847 4.743 2.578 4.76 7.482-2.089 2.847-4.744z" fill="#fff" fill-rule="evenodd" stroke="#333"/><path d="M42.213 60.277c-.394 2.287-2.608 3.352-3.795 4.507-.606 2.537-.242 4.358 2.61 3.795 1.992-.926 2.792-2.461 3.083-4.507M58.818 60.751c5.563-2.21 4.583 6.029.474 5.219M59.885 62.056c.808-1.417 2.934 1.12 0 2.49" fill="#e9d2af" fill-rule="evenodd" stroke="#3f2d10"/><path d="M39.841 75.457c.916.388 3.51.182 5.1 0" fill="none" stroke="#3f2d10"/><path d="M48.205 59.64c.497.046-.47-1.973-1.816-.6-1.044 1.063-.105 2.636.607 2.803 1.43.334 1.818-1.97 1.209-2.203zM39.013 58.672c.347-.987-1.652-.195-1.138 2.082.354 1.571 1.612.605 1.707.52 1.274-1.13.243-4.01-.57-2.602z" fill-rule="evenodd" stroke="#000"/><path d="M10.98 34.433c-1.41.706-2.496 1.784-3.6 2.88-.606.454-.92.546-.96.6 2.473.983 4.949 1.18 7.2 2.759.696.697.429.24-.6.24-3.946.603-5.62-3.166-9.36-2.88-1.827.183-2.11 3.203-2.11 5.755 3.14 1.32 1.741-3.667 4.15-5.515.748 1.155-.718 4.087-3 4.32-.1-2.998 2.489-5.212 3.841-3.079.425.67.295 3.499.479 4.638" fill="none" stroke="#000"/><path d="M31.795 93.096c-2.204-.073-3.447.75-4.497 2.63-.13.537 1.095 1.242 2.121.938-.504.504-1.41 1.6-.894 2.067 1.264 1.144 2.91-.465 3.015-.544-.89.658-.684 1.923.425 2.12.804 0 1.175.034 1.757-.548 1.271-.794 1.121-2.94-.485-2.166-.058.015.682-1.028.764-1.358-.313-.685-1.064-.896-1.813-.563 1.038-1.797.596-2.227-.393-2.576z" fill="#e9d2af" fill-rule="evenodd" stroke="#3f2d10"/><path d="M68.236 44.385c20.089-2.713 33.561 12.284 50.028 2.474" fill="none"/></svg>