<svg xmlns="http://www.w3.org/2000/svg" width="128" height="128" version="1.0"><defs><filter id="a" x="-.058" width="1.116" y="-.262" height="1.525"><feGaussianBlur stdDeviation="1.893"/></filter></defs><metadata/><path d="M16.617 71.958c-.482 3.228-1.39 6.585 2.092 6.567 2.625-.9 7.096-3.634 9.918-3.713 5.572 1.865 9.418 5.144 15.531 5.257 6.28.892 14.755.231 20.874 2.132 4.988-6.075 12.216-6.554 17.346-8.121 1.69.005 3.22 2.35 4.773 3.005 2.912.61 6.79-1.577 7.105-4.387-2.317-1.768-8.678-2.931-11.171-4.629-12.959 2.953-26.045-2.548-38.89-3.182-8.867 1.945-18.858 4.53-27.578 7.071z" transform="matrix(1.21875 0 0 1.2196 5.68 6.059)" fill-opacity=".885" fill-rule="evenodd" filter="url(#a)"/><g stroke="#333" stroke-width=".892"><path d="M209.337 90.923c1.854 2.19 3.33 5.769 5.919 7.77.968.228 1.98-.008 2.963-.095 1.234-.413 1.874-1.33 2.461-2.428.432-2.718-.927-5.353-1.949-7.808-.56-2.226-1.644-4.761-3.69-5.956-2.777-1.93-4.834-1.064-7.926-.136a117.971 117.971 0 012.222 8.653z" fill="#e6e6e6" fill-rule="evenodd" transform="matrix(1.0941 -.24413 .24403 1.09483 -147.997 39.05)"/><path d="M219.107 97.684c-.001-3.2-.375-6.592-1.823-8.762-.99-2.769-2.128-5.184-5.496-7.204" fill="none" transform="matrix(1.0941 -.24413 .24403 1.09483 -147.997 39.05)"/></g><path d="M78.352 92.579c.888-.025 3.28.315 4.668-.287 1.066-.463 2.107-1.036 3.111-1.53 2.668-1.169 5.566-.685 8.367-1.082 2.3-1.086 6.278-1.193 7.622-3.217 1.56-3.352.507-7.755-2.598-8.763-1.039.51-1.738.442-2.76 1.167-2.699 2.056-6.267 2.125-9.53 2.337-4.169.83-8.353.915-12.478 1.966-.367 2.565 1.526 8.284 3.598 9.409z" fill="#00325c" fill-rule="evenodd" stroke="#00192e"/><g stroke="#333" stroke-width=".892"><path d="M211.177 102.01c1.278 2.973 2.41 5.403 4.894 7.627.829.436 1.502.263 2.358.035.697-.392 1.371-.817 2.098-1.174-.327-2.744.646-6.063-.862-8.679-.597-2.959-2.271-5.72-4.574-7.782-1.793-.205-3.928.888-5.753 1.418 1.44 2.538 1.967 5.661 1.84 8.555z" fill="#e6e6e6" fill-rule="evenodd" transform="matrix(.9456 -.60245 .60207 .9462 -152.662 122.946)"/><path d="M219.058 108.814c-1.227-3.062.176-6.688-.978-9.902-.762-3.052-3.339-4.167-3.97-6.393" fill="none" transform="matrix(.9456 -.60245 .60207 .9462 -152.662 122.946)"/></g><path d="M30.272 89.178c.35-4.392-3.663-9.876-4.594-13.36.245-1.751 2.766-1.321 2.422-3.337-1.23-1.063-2.703-.486-4.121.063-.38-2.303.217-4.911-2.85-5.558-.683 1.364-.513 3.18.004 4.515-1.075-1.21-.887-5.858-2.558-3.014-.536 1.758.012 3.897.905 5.266-2.02-.772-2.798-4.17-2.194-.712.707 1.231.714 3.023 1.966 3.486.994 1.034 1.743 1.697 2.393 2.998.342 3.494.658 6.929 2.27 9.997 1.243 1.806 2.641 6.374 6.034 7.343 1.096.687 12.949-6.294 14.137-5.932 3.079-1.136-3.953-3.87-4.532-7.075-.931-4.113-7.389 4.766-9.282 5.32z" fill="#e9d2af" fill-rule="evenodd" stroke="#3f2d10"/><path d="M43.858 75.695c-3.898 1.947-.959-.413-3.55 3.015-2.494 2.182-5.621 3.351-7.08 6.4 3.913 2.275 3.967 6.17 7.923 8.212 3.69-4.382 4.484-7.521 6.47-12.81" fill="#1a1a1a" fill-rule="evenodd" stroke="#000"/><path d="M81.749 98.923c.888-.024 3.28.315 4.668-.287 2.841-1.693 5.672-2.452 8.953-2.355 3.054-.675 10.947-2.386 12.724-5.06.564-3.386-1.898-5.106-5.175-7.176-3.929 2.273-7.754 3.209-12.29 3.503-4.173.864-8.324.909-12.478 1.966-.367 2.566 1.526 8.285 3.598 9.409z" fill="#00325c" fill-rule="evenodd" stroke="#00192e"/><path d="M88.927 71.449c-4.276 2.581-9.734-.366-14.08-1.376-5.693.598-11.075-3.763-16.74-3.36-3.52.038-6.784.751-10.032 2.067-2.955 1.61-7.82 3.648-8.46 6.989.033 4.405-2.146 5.113-1.81 9.53.936 3.355 6.875 9.818 10.237 10.645 3.06.581 5.863.76 8.446 2.576 4.882 1.118 9.672 3.457 14.726 3.451 5.904-.191 7.927 2.614 13.767 2.775-2.157-5.376 3.034-11.232 3.188-16.973-1.035-4.978 3.942-12.882.758-16.324z" fill="#1a1a1a" fill-rule="evenodd" stroke="#000"/><path d="M35.27 25.305c-11.716-.069-16.35 7.666-16.506 17.726 0 2.104.972 6.246 1.493 8.332-.243 4.108-1.26 7.211-.048 11.22 1.409 5.673 5.216 8.692 10.7 9.915 4.87-.096 11.413-1.75 15.062-5.155 5.224-4.278 6.797-11.518 8.719-17.847.683-6.044-2.248-11.811-3.963-17.45-2.39-6.169-9.616-7.605-15.457-6.741z" fill="#e9d2af" fill-rule="evenodd" stroke="#3f2d10"/><path d="M20.209 33.236c-.723-11.062 29.432-14.715 31.006-5.968 8.47.65 8.514 22.364 6.41 29.836-8.74-.09-4.196-10.22-9.276-12.763-2.165-.542-2.888 1.119-4.756 1.586-3.957-2.545.045-10.374-6.342-13.087-3.118 1.26-7.07 3.207-10.304 0-2.765 0-4.384 1.339-6.738.396z" fill="#28170b" fill-rule="evenodd" stroke="#120a04"/><path d="M56.365 55.535c-1.77 0 1.279 6.308 1.585 7.535.475 1.901 3.915 4.694 5.153 6.345 1.051 1.403 5.57.07 6.737-.396 1.964-.786 4.25.286 5.153 1.19 2.818 2.82 1.133-1.302.396-2.777-.579-1.158-3.222-2.715-4.36-3.569-1.933-1.45-2.327-3.122-3.963-4.759-1.561-1.562-3.433-1.586-5.549-1.586-1.321 0-3.536-1.66-5.152-1.983z" fill="#28170b" fill-rule="evenodd" stroke="#120a04"/><path d="M37.845 81.042c4.155 3.602 11.85-2.475 12.542-8.408-2.52-1.798-4.954-4.276-8.278-4.136-2.374.95-4.21 2.744-6.005 4.513-.994 2.264.431 6.52 1.741 8.031z" fill="#e9d2af" fill-rule="evenodd" stroke="#3f2d10"/><path d="M18.886 69.708c.735 1.472 2.23 2.384 4.099 2.384 2.944.85 5.793 2.171 8.723 3.19 3.846.989 6.65-.976 9.493-3.19 4.791-2.479 9.755-6.698 10.755-12.234.28-2.319-.633-2.313-1.962-1.893-2.209 2.255-4.975 4.638-7.987 5.82-3.816 1.084-6.84 1.587-7.917-2.805-1.266-3.638-5.353-4.682-8.723-5.538-7.164-.31-8.727 9.041-6.481 14.266zm6.41-9.85c3.458-1.46 10.66 7.436 4.415 7.081-2.624-.875-3.17-2.574-4.73-.386-5.56 1.687-3.368-5.297.316-6.695z" fill="#28170b" fill-rule="evenodd" stroke="#120a04"/><path d="M29.949 43.811c-1.667 3.684-.377 5.843 3.192 5.311 1.097.486 3.381-2.207 2.857-3.992.392-4.796-3.738-4.9-6.05-1.319zM22.627 41.354c-2.872.65-4.22 2.858-3.66 6.142 3.315 6.165 9.621-2.704 3.66-6.142z" fill="#fff" fill-rule="evenodd" stroke="#333"/><path d="M26.243 45.556c-.466 2.704-3.082 3.963-4.484 5.329-.717 3-.287 5.152 3.082 4.486 2.354-1.094 3.3-2.91 3.644-5.328M45.86 46.117c6.573-2.613 5.415 7.128.56 6.17M47.121 47.66c.954-1.675 3.467 1.323 0 2.944" fill="#e9d2af" fill-rule="evenodd" stroke="#3f2d10"/><path d="M23.284 63.817c2.239-2.147 4.742-1.087 6.182-.313" fill="none" stroke="#3f2d10"/><path d="M34.532 45.113c.642.015-.779-2.506-2.383-.612-1.243 1.468.102 3.416 1.03 3.567 1.865.303 2.156-2.708 1.353-2.955zM22.547 44.12c.558-1.165-2.657-.23-1.83 2.457.57 1.855 2.592.714 2.745.615 2.05-1.334.393-4.733-.915-3.072zM61.999 68.296c-6.5 3.687 1.96 15.297 4.976 18.648 3.573-3.21 5.752-4.884 6.358-9.739-.305-3.832-2.254-7.254-4.976-9.628-1.849-.667-4.568-.014-6.358.72z" fill-rule="evenodd" stroke="#000"/><path d="M67.404 49.154c-2.825-.66-4.41-2.02-4.324-4.955 1.912-.42 3.698.89 5.503 1.564.84 0 1.18-.246 1.18-1.043.456-3.19-.932-10.547 3.74-10.04.572 2.418.258 7.517-.072 10.04.264 1.05 1.064-.062 1.18-.521.681-2.304 2.688-10.474 5.982-8.867 1.507 1.25-3.555 9.617-2.969 12.127 3.021-.967 4.714-5.694 7.873-6.086 1.93 2.948-2.821 7.179-4.99 9.607-2.646 1.978-2.745 5.112-2.228 8.085.26 3.58.077 7.7-.917 11.215-.253 3.324-1.424 4.78-4.717 5.217-2.796 2.963-9.913 9.881-11.627-4.293.263-3.327 6.78-3.28 9.268-4.706.678-2.03.393-4.365.393-6.52.494-2.36-.363-4.494-.655-6.781 0-.627-.378-1.376-.524-1.956-.372-1.046-1.21-1.536-2.096-2.087z" fill="#e9d2af" fill-rule="evenodd" stroke="#3f2d10"/><path d="M70.17 66.473c-1.194 3.47-2.85 4.054 2.166 7.534" fill="none" stroke="#3f2d10"/><path d="M58.759 81.138c.651.66 2.912 1.427 3.753 2.27 1.076 1.505 3.306 2.527 4.613 3.834M55.553 68.618c2.455.224 5.125-.001 7.428-.783" fill="#1a1a1a" fill-rule="evenodd" stroke="#000"/><path d="M18.413 70.887c-.397.145-2.219 3.132-3.055 3.76-3.78 2.857-6.371 3.117-7.892 7.665 2.633-1.004 5.194-.889 7.35-2.66.388-.778 1.495-1.87 1.64-2.008-.768 1.472-1.321 2.158-2.109 2.946-1.083 1.684-1.624 4.597.359 7.13.806-3.003 1.098-6.162 4.069-6.924.42-.316.412-6.473.412-5.053 0 1.14-.42 4.072-.149 5.16.466 1.831 1.95 4.23 2.503 4.852.41-.82.239-2.209.469-3.13.204-.818.156-1.751.156-2.66.6-2.196.598-4.422.717-6.677-3.59-1.4-3.997-1.386-4.47-2.401z" fill="#f2f2f2" fill-rule="evenodd" stroke="#4d4d4d"/><path d="M35.245 49.521c-.946 2.813-2.635 5.752-2.242 8.558 1.213 2.51 3.751 1.952 5.231 0 .928-3.118-.913-5.54-2.989-8.558z" fill="#bbc9d3" fill-rule="evenodd" stroke="#274166"/><path style="-inkscape-font-specification:Rufscript" d="M50.403 96c-.06.055-.07.241-.223-.083-.979-1.333-2.057-2.56-3.04-3.89-.484-.65-.974-1.302-1.432-1.968-.188-.407-.045-.575.028-.757.193-.32.442-.578.737-.765.289.104.654.41.992.683.465.388.878 1.062 1.028 1.562.245.673.167 1.109.354 1.74.08.39.518.867.795.946.404.172.744.178 1.22.53.265.2.577.449.822.798.031.305-.234.418-.603.101-.307-.18-.663-.462-.942-.585-.211-.013-.87-.727-.654-.115.173.407.52.832.794 1.235.165.19.082.286.115.426l.01.142zm-2.13-3.308c-.027-.631-.03-1.268-.324-2.105-.11-.356-.474-.83-.751-.937-.478-.238-.657.062-.867.255-.266.08.353.721.598 1.05.461.562.896 1.16 1.345 1.737zm4.443 1.26c-.676-.922-1.338-1.874-2.08-2.723a945.89 945.89 0 01-1.533-1.83c-.32-.207-.453-.006-.642.036-.194.103-.5.185-.943-.312-.32-.4.112-.37.142-.546.518-.468.997-.995 1.683-1.23.151-.06.49-.102.764.43.135.39-.082.47-.209.59-.161.125-.335.235-.483.377.208.542.721 1.055 1.114 1.528a45.06 45.06 0 012.35 3.13c.313.412.498.883.156.771-.077.002-.206-.06-.319-.22zm.179-3.52c.11.367.601.788.888 1.126.34.368.76.767.981 1.23.13.418-.264.425-.628-.072-1.081-1.32-2.116-2.7-3.16-4.064-.326-.446-.689-.887-.97-1.351-.147-.561.068-.8.226-1.052.183-.201.336-.471.694-.418.259.187.717.425.909.795-.385.174-.86.245-1.031.706-.084.253.413.832.677 1.202.314.466.81.968.99.79.257-.122.2-.687.614-.581.416.17.647.866.487.994-.142.336-.405.527-.677.695zm6.037 1.42c-.444-.477-.842-1.054-1.251-1.587-1.315-1.757-2.573-3.559-3.9-5.306-.095-.06.18.507.22.678.213.599.334 1.16.422 1.663.24.154.66.236.847.612.21.53-.113.503-.5.16-.727-.479-1.458-.97-2.177-1.424 1.176 1.534 2.36 3.064 3.509 4.623.318.424.264.856-.074.61-.359-.315-.666-.804-.988-1.208a299.794 299.794 0 01-3.136-4.265c-.324-.44-.232-.71-.038-.725.27.019.656.237 1.042.627.255.202.81.799.799.493-.184-.645-.351-1.28-.545-1.93-.15-.394-.184-.755-.49-1.201-.141-.356.088-.624.447-.142.705.883 1.374 1.805 2.076 2.692 1.06 1.39 2.083 2.818 3.168 4.182.307.345.68.78.701 1.126.035.172.11.511-.132.322z" font-size="12" font-weight="400" fill="#fff" font-family="Rufscript"/></svg>