<svg xmlns="http://www.w3.org/2000/svg" width="128" height="128" version="1.0"><defs><filter id="a"><feGaussianBlur stdDeviation=".654"/></filter></defs><metadata/><path d="M48.75 55.25c-4.667 1.758-5.833 57.222-10 53.25 24.546-13.138 40.667-1 61-1.5-4.556-10.833-.166-40.667-9.25-48l-41.75-3.75z" stroke="#000" stroke-linejoin="round"/><path d="M55.528 107.247c-2.707-1.239.653-21.475 3.485-20.908l9.486 7.163c-5.564 6.7-5.122 11.148-6.97 16.455l-6-2.71zM81.634 108.021c2.708-1.238-.653-21.474-3.484-20.908l-9.487 7.163c5.564 6.7 5.122 11.149 6.97 16.456l6.001-2.71z" fill="#333" stroke="#000" stroke-linejoin="round"/><path d="M53.73 56.364l2.043 23.72c1.683 6.417 2.903 12.852 12.007 15.626 2.621 1.56 4.847 1.975 6.24-.023 8.443-2.417 8.117-8.791 10.266-14.048l-.409-24.464-29.656-.811h-.49z" fill="#333" stroke="#000" stroke-linejoin="round"/><path d="M55.651 79.814l6.455.811.245 5.542-7.19-.676.49-5.677zM64.066 66.775l.082 10.745 11.03.203.244-10.408-11.356-.54zM74.597 79.8l8.496-.54.899 5.474-9.15.608-.245-5.542z" fill="#333" stroke="#000" stroke-linejoin="round"/><path d="M88.675 57.531c2.535-1.383 12.84 13.536 10.257 16.886-1.057 1.372-5.196 9.472-7.113 11.388-1.916 1.917-8.03 9.812-8.03 9.812-.654-.162 1.715-7.113 1.046-5.567-.783 1.81-2.78 5.684-4.74 3.868-1.549-1.435 2.209-5.76 1.418-5.149-.974.754-4.493 3.536-5.439 2.624-1.239-1.193 2.457-3.882 3.151-4.493l5.202-3.011c-2.09-.67-3.743-1.59-3.559-3.56 2.795-.885 4.437.15 6.297.822l2.718-7.32c-4.084-2.327-7.477-6.064-9.054-11.4l7.846-4.9zM63.11 80.142l9.64.202.246 5.34-9.477-.271-.409-5.271z" fill="#333" stroke="#000" stroke-linejoin="round"/><path transform="matrix(.98357 0 0 .98357 -13.163 -1.692)" d="M71.375 86.375L122.25 55l1 2.875s-50.375 31.75-50.5 32.375c-.101.505-1.25-4.625-1.25-4.625l-.125.75z" fill="#ffbcbc" stroke="red" stroke-width="1.017" stroke-linejoin="round" filter="url(#a)"/><path d="M43.76 90.395l14.263-9.098c1.058 1.291-.613 2.81 3.934 3.811L46.466 95.436c-1.836-1.013-3.148-2.4-2.705-5.041z" fill="gray" stroke="#4d4d4d"/><path d="M48.093 58.76c-2.536-1.383-12.84 13.537-10.258 16.887 1.058 1.371 5.197 9.471 7.113 11.388 1.917 1.916 5.202 8.213 5.202 8.213 3.639-.904 5.81-3.644 7.392-7.118l-5.202-3.012c1.462-1.003 3.886-1.364 3.56-3.559-1.608-1.447-4.086.152-6.298.821l-2.718-7.32c4.085-2.326 7.477-6.064 9.054-11.399l-7.845-4.9z" fill="#333" stroke="#000" stroke-linejoin="round"/><path d="M43.467 59.565l9.006 3.914 5.82.477 2.5 1.402 13.568-.06 6.372-2.516 3.994-.34 8.245-2.859c-9.25-7.618-41.57-9.373-49.505-.018z" fill="#333" stroke="#000" stroke-linejoin="round"/><path d="M42.575 49.7c5.669 4.026 11.404 7.712 17.827 7.868l20.99-1.475c4.791-.738 9.583-2.543 14.375-5.902 0 0-4.6-10.819-4.6-11.802 0-.984-11.501-19.672-11.501-19.672H57.239l-9.2 11.065L42.574 49.7z"/><path d="M50.913 29.536c-.676 7.577-2.536 14.878 4.888 24.344l7.188 6.639c3.033-.85 6.21-1.574 11.501-.492 5.548-2.027 7.865-4.449 8.051-7.13 7.416-5.807 5.24-13.105 4.6-20.164l-4.6-13.77-28.177-.246-3.45 10.82z" fill="#333" stroke="#000" stroke-width="1.00029069"/><path d="M41.425 49.7c1.725-.24 3.45-1.413 5.175-4.918-.192-4.82.415-9.776 4.026-15.246 2.929-2.904 6.332-7.617 14.951-2.95l6.038-.492c2.828-1.844 6.001-2.8 10.351-.738 3.965 5.867 7.887 11.826 10.351 20.901l2.875 3.689c2.028-9.243-5.001-16.272-7.763-24.344-3.601-7.666 4.064-21.392-19.264-20.409C49.382 3.74 49.877 14.651 48.9 24.619c-3.763 8.722-6.008 17.012-7.476 25.08z" fill="#333" stroke="#000" stroke-width="1.00029069" stroke-linejoin="round"/><path d="M54.364 32.979c.485-2.889 3.929-5.191 10.35-2.705 0 0 1.726 7.869-10.35 2.705zM83.489 31.75c-.486-2.89-3.93-5.192-10.351-2.705 0 0-1.725 7.868 10.35 2.704zM65.865 40.11l-6.326 7.623 17.827-.246-7.188-8.115-4.313.738zM66.82 55.616l-4.693-4.933 13.226.16-5.333 5.25-3.2-.477z"/><path d="M64.76 6.124c-14.421.18-13.328 8.756-14.784 17.006 2.696-2.173 6.535 1.656 6.358 1.225-3.256-7.262-.947-15.961 8.426-18.231z" fill="#b3b3b3"/><path d="M45.268 120.024c1.316-.101 16.267 3.434 18.585-2.13-1.857-4.243-.577-7.858 0-11.615-4.739 1.646-7.329-.469-10.067-2.323l1.161 7.937c-3.111.802-6.044 1.247-10.647 5.034l.968 3.097zM92.118 119.443c-1.317-.101-16.268 3.434-18.586-2.13 1.857-4.242.577-7.858 0-11.615 4.739 1.646 7.329-.469 10.067-2.323l-1.161 7.937c3.111.802 6.044 1.248 10.648 5.034l-.968 3.097z" fill="#333" stroke="#000" stroke-linejoin="round"/><path d="M74.099 70.017a1.237 1.414 0 11-2.475 0 1.237 1.414 0 112.475 0z" fill="green"/><path d="M71.094 70.194a1.237 1.414 0 11-2.475 0 1.237 1.414 0 112.475 0z" fill="red"/></svg>