<svg xmlns="http://www.w3.org/2000/svg" width="128" height="128" version="1.0"><defs><filter height="1.653" y="-.327" width="1.25" x="-.125" id="a"><feGaussianBlur stdDeviation="1.963"/></filter></defs><metadata/><path d="M113.663-51.665c-5.465.423-6.823-3.26-11.495.89-1.413 1.413-1.726 4.217-1.334 5.782 2.874 3.85 5.998 2.88 10.605 4.447 2.276.57 4.263.89 7.116.89 2.9 0 4.684 1.438 7.56 0 2.232-1.116 4.292-.772 6.227-2.224 1.513-1.134 2.227-3.124 2.669-4.892.784-3.136-1.877-3.607-3.558-4.448-2.161-1.08-5.906-.414-7.56 0-1.774.443-3.317-2.224-5.783-2.224-2 0-1.06 1.78-4.447 1.78z" transform="matrix(1.12307 0 0 1.07352 -73.176 161.56)" fill-opacity=".728" fill-rule="evenodd" filter="url(#a)"/><path d="M68.467 103.955c-2.866.125-6.6-.899-9.766-.077-.774.626-1.208 1.57-1.74 2.4-.43 1.23-.097 2.296.412 3.433 1.885 2.005 4.8 2.545 7.367 3.24 2.104.92 6.271 2.616 8.47 1.73 3.225-1.015 4.05-4.172 3.46-7.184a117.976 117.976 0 01-8.203-3.542z" fill="#502d16" fill-rule="evenodd" stroke="#28170b"/><path d="M57.34 107.459c2.592 1.875 6.809 4.061 9.415 4.16 2.824.823 5.697 2.318 9.309.775" fill="#502d16" fill-rule="evenodd" stroke="#28170b"/><path d="M56.967 104.205c-2.866.125-6.6-.899-9.766-.077-.774.626-1.208 1.57-1.74 2.4-.43 1.23-.097 2.296.412 3.433 1.885 2.005 4.8 2.545 7.367 3.24 2.104.92 6.271 2.616 8.47 1.73 3.225-1.015 4.05-4.172 3.46-7.184a117.976 117.976 0 01-8.203-3.542z" fill="#502d16" fill-rule="evenodd" stroke="#28170b"/><path d="M56.482 86.032c-.145.779-.89 2.802-.625 4.125.203 1.016.508 2.031.75 3 .519 2.545-.446 4.982-.625 7.5.515 2.209-.137 5.698 1.375 7.25 2.63 1.988 6.665 1.895 8.125-.625-.25-1.001-.06-1.598-.5-2.625-1.286-2.74-.677-5.864-.25-8.75.058-3.79.768-7.456.625-11.25-2.167-.8-7.507-.221-8.875 1.375zM67.607 85.907c-.145.779-.89 2.802-.625 4.125.944 2.795 1.074 5.406.375 8.25.016 2.79-.872 7.45 1.125 9.5 2.846 1.127 5.706 1.845 8.125-.625-1.245-3.852-1.343-7.363-.75-11.375.029-3.8.769-7.43.625-11.25-2.167-.8-7.507-.221-8.875 1.375z" fill="#4d4d4d" fill-rule="evenodd" stroke="#1a1a1a"/><path d="M45.09 107.709c2.592 1.875 6.809 4.061 9.415 4.16 2.824.823 5.697 2.318 9.309.775" fill="#502d16" fill-rule="evenodd" stroke="#28170b"/><path d="M78.78 54.157c2.562 2.651 4.268 5.665 5.37 9.128 1.376 2.444.699 12.517 1.004 15.359-3.766.71-9.516-2.122-13.251-1.61-1.71-4.535 2.606-15.322 2.513-20.1" fill="#f2f2f2" fill-rule="evenodd" stroke="gray"/><path d="M70.975 48.784c-3.69.54-7.4.047-11.064.843-2.703 1.175-4.572 3.117-4.873 6.032-.13 2.631.036 5-1.186 7.376-.367 4.222-1.271 9.106-.676 13.34.444 2.577-1.156 17.385-2.025 19.14h30.401c.42-2.166-.7-17.856-.514-19.915 2.034-3.103.853-10.124-.316-14.91-.443-2.946-1.443-5.597-2.924-8.166-1.694-2.289-3.948-3.594-6.823-3.74z" fill="#f2f2f2" fill-rule="evenodd" stroke="gray"/><path d="M33.146 69.669c.894-2.682.745-21.607.745-21.607l2.83-11.474.746 11.623-2.235 22.054-2.086-.596z" fill="#4d4d4d" fill-rule="evenodd" stroke="#000"/><path d="M48.062 68.678c-2.726-1.558-5.458-3.872-6.734-6.754-.168-1.485 1.991-1.664 1.284-3.243-1.231-.611-2.319.171-3.366.92-.796-1.806-3.837-7.049-6.488-6.933-.274 1.261 3.228 5.693 3.933 6.678-1.136-.765-3.692-4.564-4.464-1.883-.069 1.553 2.562 3.142 3.583 4.075-1.82-.207-3.798-1.442-2.574 1.263.839.86 1.846.941 2.97 1.057 1.034.638 1.735 1.771 2.542 2.7 1.016 2.79 2.944 4.926 4.912 7.1 2.844.107 4.187 3.475 6.864 3.793 1.044.332 6.947-5.817 7.998-5.771 2.286-1.579-3.74 3.612-4.89 1.11-1.63-3.173-3.114-2.9-5.57-4.112z" fill="#e9d2af" fill-rule="evenodd" stroke="#3f2d10"/><path d="M56.251 54.377c-4.57.432-5.197 11.618-4.96 14.344-1.231 2.054-6.977-7.806-8.677-6.141-.357 2.434-3.192 4.204-5.486 5.464.234 1.915 14.067 14.942 15.229 13.297 3.101-1.706 15.89-17.264 11.613-21.351.444-2.368-.207-4.383-2.377-5.622" fill="#f2f2f2" fill-rule="evenodd" stroke="gray"/><path d="M73.544 51.617c-1.651 4.348-9.828 2.915-12.727-1.223 1.157-2.35 1.976-5.172 4.51-6.403 2.152-.245 4.24.353 6.29.949 1.65 1.286 2.296 5.025 1.927 6.677z" fill="#e9d2af" fill-rule="evenodd" stroke="#3f2d10"/><path d="M71.244 8.394c4.226.058 8.561 1.66 10.205 5.899 1.453 4.768 3.961 9.65 3.382 14.762-1.627 5.351-2.962 11.47-7.387 15.087-3.09 2.88-8.634 4.277-12.757 4.358-4.645-1.035-7.885-3.592-9.078-8.389-.86-2.843-1.576-2.604-1.281-5.322-1.081.69-2.304.982-3.798.682 1.256-4.624 3.402-3.413 4.545-7.394-.35-1.614-.683-3.364-.683-4.476.133-8.508 4.052-15.057 13.974-15 .928-.136 1.902-.22 2.878-.207z" fill="#e9d2af" fill-rule="evenodd" stroke="#3f2d10"/><path d="M56.26 20.98c2.234.502 2.538 2.058 2.103 4.594-2.58 4.76-6.74-1.939-2.103-4.593z" fill="#fff" fill-rule="evenodd" stroke="#333"/><g fill="#e9d2af" fill-rule="evenodd" stroke="#3f2d10" stroke-width="1.176"><path d="M192.158-132.543c5.863-2.33 4.83 6.354.5 5.5M193.283-131.168c.851-1.493 3.092 1.18 0 2.625" transform="matrix(.75966 .06342 -.07905 .94525 -92.078 141.548)"/></g><path d="M55.438 22.248c-.435-.9 2.067-.178 1.424 1.897-.444 1.432-2.017.551-2.136.474-1.596-1.03-.306-3.654.712-2.371z" fill-rule="evenodd" stroke="#000"/><path d="M55.935 14.382c2.546.709 5.396-1.628 6.171 1.186 1.064 2.213 2.417 3.331.95 5.69-.922 1.538-.372 5.923-1.187 8.775.354.354 4.895-3.083 5.459-3.083 1.139 3.184.376 6.515 0 9.96.733 5.19 13.239-.544 14.477 4.98 7.77-9.778 9.815-26.658-1.424-32.488-3.237-3.97-12.604-5.054-20.411-1.66-2.134 1.8-7.63 5.503-4.035 6.64z" fill="#1a1a1a" fill-rule="evenodd" stroke="#1a1a1a"/><path d="M55.945 40.76l3.278-.298" fill="none" stroke="#3f2d10"/><path d="M66.227 28.243l-7.898-2.384c.151-4.624-1.816-4.483-3.13-5.812l-2.874 1.421c.02-.053-.824-.33-.863.22-.02.277-.244.29-.072.69.124.29.709-.359.715-.08.033 1.586.222 4.722 1.009 5.349 1.165.928 4.768-1.043 4.768-1.043l8.345 1.639z" fill="none" stroke="#000"/><path d="M59.832 48.467l-7.06 2.74s10.959 7.165 14.014 7.481c3.056.316 12.329-4.53 12.329-5.795 0-1.264-5.163-5.268-5.163-5.268s-7.587 4.741-14.12.842zM43.71 61.428l-7.06 6.849 3.162 6.006c3.085-3.147 5.577-4.122 7.903-9.8l-4.004-3.055z" fill="#f2f2f2" fill-rule="evenodd" stroke="gray"/></svg>