<svg xmlns="http://www.w3.org/2000/svg" width="128" height="128" version="1.0"><defs><filter height="2.016" y="-.508" width="1.435" x="-.218" id="a"><feGaussianBlur stdDeviation="3.292"/></filter></defs><metadata/><path d="M65.886 55.545s-9.28-15.482-14.163-13.074c-4.885 2.409-20.08 12.596-19.757 19.535.116 2.51 10.865-3.201 10.865-3.201s-9.395 4.853-5.785 6.464c3.61 1.611 7.69-5.398 7.69-5.398s-7.784 8.906-3.357 8.588c4.428-.318 6.282-7.672 6.282-7.672s-5.046 10.431-1.403 9.156C49.9 68.67 50.5 63.83 51.06 63.256c.559-.573 8.337 2.076 10.86.691 2.522-1.384 3.2-5.714 3.966-8.402z" fill="#f2f2f2" stroke="gray"/><path d="M67.963 53.786c3.123.504 7.875 4.256 10.16 8.182 2.28 3.916 6.195 6.902 8.445 5.16 1.7.645 1.906-1.041 3.706-1.161 1.139-1.003 2.466-1.215 3.635-.55-.018 1.259-1.142 1.916-2.084 2.7.681 1.233 3.341 1.134 4.555 2.21.192 2.762-3.318 1.26-4.512.179.92 1.26 3.288 2.474 3.914 3.345-1.19 1.7-4.065-.27-5.275-1.515 1.349 1.343 3.355 2.06 1.7 3.569-1.892.25-3.09-1.523-4.458-2.649-2.577.405-9.037-1.518-11.952-5.113-2.741-3.379-5.387-4.117-5.33-5.954-2.681-3.222-6.747-2.063-8.117-6.123 1.002-2.838 3.412-1.685 5.613-2.28z" fill="#fca" fill-rule="evenodd" stroke="#3f2d10"/><path d="M69.22 80.069c1.036-.252 5.373-.272 6.499.152 8.424 3.172 29.783-24.955 19.766-31.506-1.592-1.042-.13-2.855-.388-4.99l3.457-1.568c-1.7 1.905-3.293 3.824-1.302 6.191 8.239 1.145-4.313 35.934-20.789 33.171-.493-.083-4.26-.452-5.955 1.007-.91.783-1.289-2.457-1.289-2.457z" fill="#803300" stroke="#2b1100"/><path d="M94.888 48.119L73.61 80.049" fill="none" stroke="#000"/><path d="M56.75 53.25S46 38.75 41.375 41.625 22.625 56.125 23.625 63c.362 2.486 10.5-4.25 10.5-4.25s-8.875 5.75-5.125 7 7.125-6.125 7.125-6.125-6.875 9.625-2.5 8.875 5.5-8.25 5.5-8.25-4 10.875-.5 9.25 3.625-6.5 4.125-7.125 8.5 1.25 10.875-.375 2.625-6 3.125-8.75z" fill="#f2f2f2" stroke="gray"/><path d="M63.25 45.406c-.281.007-.56 0-.844.032-2.429 1.18-3.371 3.742-4.437 6.062-1.01.292-5.6 1.841-7.719 6.75-2.375 5.5-.25 20.875 2 23.25s5.694 7.167 6.5 10.25c.807 3.087 7.984 11.845 1 14.5-1.983.754 4 4 8 3s4.375-2.75 3.25-4.625-2.875-5.375-1.5-10.375-2.375-14.25-3-16.625c3.182 3.041 5.125 7.25 10.375 7.5-.651.811-2.435 12.007-2.125 12.25 0 0-2.25 1.75 1 3.625s10.5 4 12.125 2.75 1.25-4-2.25-2.875c-3.25-3.125-2.516-12.223-3.375-17-.864-4.801-6.272-6.835-8.875-11.5-2.57-4.605.4-13.473-1.5-15.5-.06-.885-.3-1.977-.813-3.375.39-1.741-.293-5.707-2.03-7.063-1.89-.55-3.813-1.075-5.782-1.03z" fill="#fca" fill-rule="evenodd" stroke="#3f2d10"/><g fill="#008033" stroke="#002b11"><path d="M67 79.625c-13.668 4.207 2.79 8.993 4.75 13.5.454-2.764 9.69-25.314-4.75-13.5z"/><path d="M63.75 75.875c3 1.5 6.5 11.25 6.5 11.25-.775-6.376-2.2-9.504-3.625-12.625z"/></g><path d="M67.671 11.26c10.45-.061 14.585 6.834 14.724 15.803 0 1.876-.867 5.568-1.332 7.428.217 3.662.594 3.07-.487 6.644-1.257 5.057-4.654 7.749-9.546 8.84-4.343-.086-9.18-2.186-12.435-5.222-4.66-3.814-4.908-6.66-6.623-12.301-.61-5.39.38-10.155 1.91-15.182 2.132-5.5 8.578-6.78 13.79-6.01z" fill="#fca" fill-rule="evenodd" stroke="#3f2d10"/><path d="M83.608 19.013c.94-10.6-27.9-15.943-30.161-6.003-9.865 3.145-2.889 21.403-.593 27.599 1.374-.014 2.929-.183 2.709-.873-2.797-8.77-3.381-9.748.44-11.505 1.932-.483 2.577.997 4.244 1.414 3.529-2.269-.04-9.248 5.656-11.667 2.782 1.124 6.308 2.859 9.193 0 2.466 0 6.412 1.875 8.512 1.035z" fill="#cc9e47" fill-rule="evenodd" stroke="#946417"/><path d="M73.224 27.564c1.366 2.999.309 4.757-2.616 4.324-.899.395-2.146-1.797-1.716-3.25.803-2.498 2.496-3.916 4.332-1.074zM79.599 26.064c2.353.529 3.083 1.827 2.625 4.5-2.718 5.018-7.51-1.701-2.625-4.5z" fill="#fff" fill-rule="evenodd" stroke="#333"/><path d="M77.599 32.94c.626 3.613 3.234 3.033 3.125 7.124-2.975-.6-4.943.156-5.25-2M58.224 29.814c-5.864-2.33-4.83 6.355-.5 5.5M57.099 31.19c-.851-1.494-3.093 1.18 0 2.624" fill="#fca" fill-rule="evenodd" stroke="#3f2d10"/><path d="M79.15 42.59c-.093 2.357-6.128 3.56-9.948-.43" fill="none" stroke="#3f2d10"/><path d="M72.336 28.43c-.386-.356 1.252-.647 1.125 1.376-.098 1.567-1.743 1.065-2.375.625-1.27-.885.638-2.313 1.25-2zM80.983 28.65c-.458-.949 1.802-.937 1.125 1.25-.468 1.51-2.16.618-2.25.5-.93-1.21.053-3.102 1.125-1.75z" fill-rule="evenodd" stroke="#000"/><path d="M51.347 22.054c-.711-2.282-.048-3.962 3.006-4.596M55.767 13.48c.584-3.857 6.923-1.464 6.187.972M65.136 9.414c.427-2.584 4.445-3.53 6.983-3.535-1.244 2.419-.97 2.713-.089 4.684M75.124 10.387c1.968-.225 5.268 1.694 5.657-1.238 1.633 2.842.83 4.547-1.061 5.745M49.845 25.059c-.77 3.375-2.465 3.668-3.89 4.861 1.933 2.816 3.284 2.14 4.774 2.298M57.093 21.523c3.436-1.902 4.606-.277 3.8 4.42M69.555 14.276c1.624.564 5.61-.375 3.624 4.861" fill="#cc9e47" stroke="#946417"/><path d="M42.5 89.875l-1.25 3.5 5.125-1.875 1-3.375zM41.838 88.511l-3.042-2.135 5.267-1.43 2.766 2.178z" fill="#ccc" stroke="#666"/><path d="M41.125 88.5L65 81.5l.5 2-24 6.375z" fill="gray" stroke="#1a1a1a"/><path d="M63.207 82.792c-.103 7.16 5.421-.538 8.418-2.667-2.572.169-12.57-1.873-8.418 2.667z" fill="#a00" stroke="#500"/><path d="M63.374 106.61l-.883 2.121M65.407 106.787l1.15 2.386M67.97 106.256l.973 2.829" fill="#3f2d10" stroke="#3f2d10"/><path transform="matrix(.58198 0 0 .3917 -153.71 55.33)" d="M387.141 155.605c-4.561-2.86-14.299-2.28-17.678 2.121-1.686 3.821 6.055 7.1 9.193 8.132 4.381.128 8.264.422 12.374 1.768 5.006-2.118 3.695-.917 5.657-1.768 3.629-1.613 8.29-3.741 8.839-8.132-.24-3.801-3.107-5.027-6.364-5.657-3.638 1.13-9.372.59-12.021 3.536z" fill-opacity=".778" fill-rule="evenodd" filter="url(#a)"/><path d="M57.249 56.845c1.78 3.53-.525 11.334-3 13.625-.553 3.26-.37 6.658 1.125 9.625 1.098 1.13 2.686-.507 3.5 1.125-.325 1.412-1.69 1.773-3 2.125.94 1.856 2.742 3.42.875 5.5-1.21-.621-2.044-2.018-2.375-3.25-.137 1.436 1.075 4.29-1.625 3.125-1.311-.983-.672-2.42-.75-3.875-1.049 1.62-1.365 4.056-2.75 1.25-.14-1.258.468-2.133 1.125-3.125.17-1.268-.283-2.598-.5-3.875-1.594-2.694-2.67-5.444-3.125-8.5 1.814-2.387 1.093-11.108 2.625-13.5.427-1.072 4.335-3.24 5-4.125" fill="#fca" fill-rule="evenodd" stroke="#3f2d10"/></svg>