<?xml version="1.0" encoding="UTF-8"?>
<svg width="128" height="128" version="1.0" xmlns="http://www.w3.org/2000/svg">
 <defs>
  <filter id="a" x="-.125" y="-.327" width="1.25" height="1.653">
   <feGaussianBlur stdDeviation="1.963"/>
  </filter>
 </defs>
 <path transform="matrix(1.2297 -.069 .06144 .90977 -26.183 13.734)" d="M60.748 112.566c-5.465.422-6.823-3.26-11.495.89-1.414 1.412-1.726 4.216-1.334 5.781 2.874 3.851 5.998 2.88 10.605 4.448 2.276.569 4.263.889 7.116.889 2.9 0 4.684 1.438 7.56 0 2.232-1.116 4.291-.772 6.227-2.224 1.513-1.134 2.227-3.124 2.669-4.892.784-3.135-1.877-3.607-3.558-4.448-2.161-1.08-5.907-.413-7.561 0-1.773.444-3.316-2.223-5.782-2.223-2 0-1.06 1.779-4.447 1.779z" fill-opacity=".728" fill-rule="evenodd" filter="url(#a)"/>
 <path d="M69.35 39.278c-1.402.394 2.414 4.711 2.929 5.615.798 1.4 4.142 2.847 5.49 3.88 1.144.877 4.429-1.181 5.25-1.81 1.38-1.058 3.43-.717 4.346-.202 2.858 1.607.609-1.282-.302-2.286-.716-.788-3.156-1.435-4.246-1.858-1.854-.72-2.537-1.955-4.196-2.888-1.584-.89-3.072-.494-4.748-.024-1.047.293-3.17-.53-4.522-.427z" fill="#28170b" fill-rule="evenodd" stroke="#120a04" stroke-width="1.2747"/>
 <path d="M67.12 89.343c2.008 2.513 1.81 3.502 4.45 7.55-.479 2.348.411 4.596.576 6.918-.475 2.037.126 5.256-1.268 6.687-2.426 1.833-6.147 1.748-7.494-.577.23-.923.055-1.473.461-2.42 1.186-2.527.624-5.41.23-8.071-.053-3.497-3.805-6.062-3.674-9.562 2-.738 5.457-1.997 6.719-.525z" fill="#264426" fill-rule="evenodd" stroke="#182c18" stroke-width="1.2747"/>
 <path d="M71.636 111.14c2.172 1.51 5.218 2.186 7.28 4.389.294.87.166 1.82.171 2.729-.271 1.17-1.057 1.837-2.014 2.472-2.458.633-4.997-.385-7.34-1.11-2.093-.321-4.515-1.095-5.79-2.87-2.014-2.382-2.136-4.162-1.553-7.08 1.798-.119 1.302-7.227 1.413-8.9 2.266 2.708 7.585 1.683 8.873 1.695 1.746.287-1.489 8.622-1.04 8.675z" fill="#520" fill-rule="evenodd" stroke="#2b1100" stroke-width="1.2747"/>
 <path d="M78.325 119.153c-2.938.278-6.085.23-8.203-.911-2.63-.668-4.946-1.502-7.095-4.418" fill="#520" fill-rule="evenodd" stroke="#2b1100" stroke-width="1.2747"/>
 <path d="M53.775 89.307c-.134.718-2.94 5.193-2.696 6.413.87 2.578-.15 4.66-.796 7.284.015 2.573-.804 6.87 1.038 8.762 2.625 1.04 5.263 1.702 7.494-.576-1.149-3.553-.424-6.955.124-10.655.026-3.506 2.665-6.038 2.533-9.561-2-.74-6.435-3.14-7.697-1.667z" fill="#264426" fill-rule="evenodd" stroke="#182c18" stroke-width="1.2747"/>
 <path d="M50.57 111.646c-2.93.576-5.34 1.126-7.826 2.935-.554.663-.529 1.303-.49 2.12.22.705.472 1.395.653 2.12 2.538.237 5.342 1.757 7.993.903 2.785.036 5.599-.939 7.904-2.616.533-1.576-.039-3.714-.163-5.462-.487.14.991-7.392.35-9.522-2.266 1.08-7.714 1.374-8.835 1.218-1.888 2.437 1.7 8.513.414 8.304z" fill="#520" fill-rule="evenodd" stroke="#2b1100" stroke-width="1.2747"/>
 <path d="M42.907 117.435c2.999-.513 5.996 1.454 9.119 1.036 2.9-.096 4.404-2.203 6.534-2.34" fill="#520" fill-rule="evenodd" stroke="#2b1100" stroke-width="1.2747"/>
 <path d="M74.896 93.67c-2.587-3.193-1.162-8.722-.832-12.378-1.133-4.572.282-9.078-.689-13.649-.43-2.865 2.21-5.511.771-8.01-1.646-2.225-5.804-3.26-8.597-3.403-3.584.525-7.203.04-10.762.815-2.626 1.142-7.203 1.998-7.495 4.832-.127 2.559 2.542 6.633 1.355 8.943-.357 4.106-1.576 8.744-.998 12.861.825 4.79-.59 6.785-.06 11.562 4.135-2.366 8.979-.028 13.673-.553 3.936-1.407 11.192 1.965 13.634-1.02z" fill="#427742" fill-rule="evenodd" stroke="#2a4d2a" stroke-width="1.2747"/>
 <path d="M56.294 60.063c.605 4.482 8.66 4.921 12.313 1.64-.578-2.48-.732-5.334-2.86-7.057-1.982-.705-4.09-.598-6.16-.484-1.844.855-3.28 4.255-3.293 5.9z" fill="#e9d2af" fill-rule="evenodd" stroke="#3f2d10" stroke-width="1.2747"/>
 <path d="M48.429 25.36c-1.3 4.429.584 9.643 1.744 13.98-1.681 5.4-1.463 10.322 3.658 14.63 5.927 1.926 18.59 2.817 20.62-5.525 1.26-10.494-1.028-4.45 1.358-13.217.788-11.357-3.242-19.056-13.918-18.23-7.381-.242-10.549 3.564-13.462 8.363z" fill="#e9d2af" fill-rule="evenodd" stroke="#3f2d10" stroke-width="1.2747"/>
 <path d="M62.337 41.593c-5.13-.287-7.775 2.742-10.708 4.56-.497.165-.843.837-1.231 1.29-1.55 3.242.7 6.772 3.599 8.789 2.428 1.41 4.902 1.873 7.566 1.41 2.519-.448 5.258-.323 7.481-1.519 3.675-.54 4.952-2.54 5.384-6.129-.161-2.442-1.36-5.335-3.446-6.533-2.718-.77-5.82-2.337-8.645-1.868zm-.714 3.107c1.675.485 4.927 1.469 6.22 2.554.519 2.141-.495 4.273-2.705 4.014-1.435-1.73-4.307-1.306-5.92.317-1.923.344-2.728-1.945-2.679-3.547.624-1.684 3.628-2.44 5.084-3.338zM61.925 22.66c4.134-.95 3.455-1.934 4.507-3.22 8.076-.795 8.421 7.078 7.507 10.294 1.527-1.379.724-2.075 2.61-.746.434.372.107 3.746.033 4.183-.078.46-1.717 6.33-1.373 6.47 4.13-2.506 4.88-13.516.476-19.545-3.25-4.45-8.977-6.224-13.907-4.555-14.179-2.93-19.124 14.733-12.153 26.907.813-2.754-1.506-8.286-.482-11.284.852-.759 1.076.742 2.177.623-3.706-7.5.364-11.554 5.33-12.335 1.274-1.128 1.246 2.806 5.275 3.207z" fill="#28170b" fill-rule="evenodd" stroke="#120a04" stroke-width="1.2747"/>
 <path d="M65.226 31.565c-1.306 2.745-.358 4.382 2.346 4.027.823.379 2.583-1.614 2.209-2.961.356-3.596-2.764-3.726-4.555-1.066zM57.927 29.6c-2.39.448-3.536 2.087-3.113 4.56 2.674 4.674 8.015-1.898 3.113-4.56z" fill="#fff" fill-rule="evenodd" stroke="#333" stroke-width="1.2747"/>
 <path d="M67.975 32.482c.485.019-.562-1.89-1.795-.484-.955 1.088.04 2.565.74 2.688 1.406.248 1.659-2.01 1.055-2.204zM56.797 31.736c.436-.868-2.005-.207-1.414 1.821.408 1.4 1.95.568 2.067.496 1.567-.976.356-3.548-.653-2.317z" fill-rule="evenodd" stroke="#000" stroke-width="1.2747"/>
 <path d="M60.441 34.973c-1.049 2.001-4.046 6.797.581 6.698 4.32-.01 2.08-4.905 1.957-6.77" fill="#e9d2af" fill-rule="evenodd" stroke="#3f2d10" stroke-width="1.2747"/>
 <path d="M59.444 47.68c.883.393 3.408.234 4.957.083" fill="none" stroke="#3f2d10" stroke-width="1.2747"/>
 <path d="M75.154 30.083c6.838-2.728 4 6.62.139 5.537M76.053 31.481c1.963-1.46 2.713 1.48-.16 2.765M49.774 31.999c-7.146-1.771-3.062 7.103.616 5.505M49.073 33.507c-2.142-1.18-2.486 1.835.536 2.717" fill="#e9d2af" fill-rule="evenodd" stroke="#3f2d10" stroke-width="1.2747"/>
 <path d="M49.873 65.57c.454 2.302-1.231 2.42-1.435 4.731-.05 2.328.597 6.396 1.134 8.645-3.862.542-8.133-1.27-12.187-1.513-.07-1.951 1.066-4.571.96-6.527-.016-2.604 1.02-3.082 1.573-5.475.793-1.63 7.275-6.787 10.15-6.147" fill="#427742" fill-rule="evenodd" stroke="#2a4d2a" stroke-width="1.2747"/>
 <path d="M43.58 60.565c6.408 15.744 19.06 23.163 31.563 30.78l.522-6.521c-9.56-7.506-20.488-13.301-24.781-27.39l-7.304 3.13z" fill="#9c009c" fill-rule="evenodd" stroke="#3d003d" stroke-width="1.0192"/>
 <path d="M45 99.993c.577 2.117 1.93 4.101 3.32 5.372 1.187 1.047 2.467 1.905 3.781.83.768-1.75.073-3.685-.46-5.418-.752-2.184-1.885-4.372-3.113-5.396-2.842.122-3.505 2.038-3.528 4.612zm3.643-3.09c.963.88.684 1.796 1.383 3.827.826 2.406 2.614 5.888-1.014 3.251-1.285-1.173-1.776-2.232-2.306-4.173-.528-2.107-.115-2.527 1.937-2.905z" fill="#502d16" fill-rule="evenodd" stroke="#28170b" stroke-width="1.2747"/>
 <path d="M71.538 67.943c.149.826.576 1.19 1.353 3.376.631 2.24.975 3.618 1.018 5.93 3.875-.443 6.827-1.49 10.69-2.74-.422-1.907-1.973-3.814-2.36-5.734-.638-2.525-2.19-3.326-3.324-5.504-1.463-1.588-4.04-3.166-5.78-4.568" fill="#427742" fill-rule="evenodd" stroke="#2a4d2a" stroke-width="1.2747"/>
 <path d="M47.743 96.95c.122-5.166 6.946-6.275 9.776-8.486 4.687-5.723 10.541-8.256 14.63-13.172.574-.689.475-2.8 1.51-3.06.947-.494 3.28 1.221 2.766 2.675-.623.561-2.333.57-2.923 1.134-5.022 4.8-9.08 9.689-16.536 14.268-2.183 2.09-2.709 5.712-7.84 8.116l-1.383-1.476z" fill="#784421" fill-rule="evenodd" stroke="#28170b" stroke-width="1.0196"/>
 <path d="M47.627 80.51c1.256 2.781 3.243 5.638 5.915 7.138 1.422.3 1.795-1.771 3.258-.942.478 1.248-.38 2.227-1.202 3.171 1.675.937 3.859 1.205 3.502 3.758-1.246.149-2.603-.49-3.491-1.263.635 1.17 3.032 2.729.366 3.228-1.51-.077-1.76-1.506-2.57-2.58.032 1.78 1.045 3.807-1.46 2.373-.755-.89-.74-1.873-.749-2.97-.522-1.059-1.554-1.842-2.378-2.708-2.606-1.241-4.497-3.304-6.419-5.408.16-2.76-2.976-3.91-3.036-6.529l7.948 1.32c.052.483.143.958.316 1.413zM75.2 80.507c-1.637 2.574-4.009 5.12-6.867 6.226-1.45.095-1.525-2.008-3.09-1.394-.651 1.167.06 2.258.739 3.309-1.791.69-3.99.645-4 3.223 1.213.324 2.647-.117 3.635-.756-.794 1.068-3.389 2.272-.82 3.144 1.505.138 1.956-1.24 2.91-2.189-.285 1.758-1.575 3.62 1.109 2.556.873-.775.998-1.749 1.162-2.834.667-.974 1.8-1.603 2.738-2.343 2.757-.859 4.92-2.633 7.121-4.443.234-2.755 3.567-3.905 3.997-6.489.37-.997.007-2.53.1-3.547l-7.822 2.106c-.226 1.166-.336 2.391-.911 3.43z" fill="#e9d2af" fill-rule="evenodd" stroke="#3f2d10" stroke-width="1.2747"/>
 <path d="M44.94 27.75c11.31 1.882 23.48 1.288 35.476-.262-4.949-5.818-2.828-18.061-16.434-18.26-20.1-.037-12.869 12.695-19.042 18.521z" fill="#666" fill-rule="evenodd" stroke="#1a1a1a" stroke-width="1.0196"/>
 <path transform="matrix(1.0383 .39787 -.31893 1.2221 -364.1 -354.34)" d="M463.5 197.25l-.082 1.661 1.624.117-1.233 1.117 1.066 1.23-1.661-.082-.117 1.624-1.117-1.233-1.23 1.066.082-1.661-1.624-.117 1.233-1.117-1.066-1.23 1.661.082.117-1.624 1.117 1.233 1.23-1.066z" fill="#ffcb00" stroke="#974107" stroke-linejoin="round" stroke-width=".691"/>
 <path transform="matrix(1.0383 .39787 -.31893 1.2221 -362.89 -346.59)" d="M463.5 197.25l-.082 1.661 1.624.117-1.233 1.117 1.066 1.23-1.661-.082-.117 1.624-1.117-1.233-1.23 1.066.082-1.661-1.624-.117 1.233-1.117-1.066-1.23 1.661.082.117-1.624 1.117 1.233 1.23-1.066z" fill="#ffcb00" stroke="#974107" stroke-linejoin="round" stroke-width=".691"/>
 <path d="M64.252 68.36L62.5 65.501l4.98.277-1.937 2.674-1.291-.092z" fill="#500" fill-rule="evenodd" stroke="#2b0000" stroke-width="1.0196"/>
 <path d="M66.558 69.052a1.568 1.614 0 11-3.136 0 1.568 1.614 0 113.136 0z" fill="#ffcb00" stroke="#974107" stroke-linejoin="round" stroke-width=".50982"/>
 <path d="M69.417 68.36l-1.753-2.859 4.98.277-1.936 2.674-1.291-.092z" fill="#f0f" fill-rule="evenodd" stroke="purple" stroke-width="1.0196"/>
 <path d="M71.722 69.052a1.568 1.614 0 11-3.135 0 1.568 1.614 0 113.135 0z" fill="#ffcb00" stroke="#974107" stroke-linejoin="round" stroke-width=".50982"/>
 <path d="M64.898 74.078l-1.753-2.86 4.98.278-1.936 2.674-1.291-.092z" fill="#00f" fill-rule="evenodd" stroke="navy" stroke-width="1.0196"/>
 <path d="M67.203 74.77a1.568 1.614 0 11-3.135 0 1.568 1.614 0 113.135 0z" fill="#ffcb00" stroke="#974107" stroke-linejoin="round" stroke-width=".50982"/>
 <path d="M69.601 74.078l-1.752-2.86 4.98.278-1.937 2.674-1.291-.092z" fill="#0f0" fill-rule="evenodd" stroke="green" stroke-width="1.0196"/>
 <path d="M71.907 74.77a1.568 1.614 0 11-3.136 0 1.568 1.614 0 113.136 0z" fill="#ffcb00" stroke="#974107" stroke-linejoin="round" stroke-width=".50982"/>
 <path d="M62.264 21.307l-1.335-.765-1.077.895.315-1.505-1.185-.748 1.53-.165.345-1.358.63 1.403 1.398-.091-1.14 1.033.519 1.301zM62.264 17.32l-1.335-.765-1.077.896.315-1.506-1.185-.748 1.53-.165.345-1.358.63 1.404 1.398-.092-1.14 1.033.519 1.302zM62.562 25.094l-1.334-.765-1.077.896.315-1.506-1.185-.748 1.53-.165.345-1.358.63 1.404 1.398-.092-1.14 1.033.518 1.301zM57.58 21.307l-1.335-.765-1.077.895.315-1.505-1.185-.748 1.53-.165.345-1.358.63 1.403 1.398-.091-1.14 1.033.518 1.301zM66.848 21.108l-1.334-.766-1.078.896.316-1.505-1.185-.748 1.53-.165.345-1.358.63 1.403 1.398-.091-1.14 1.032.518 1.302z" fill="#ffcb00" stroke="#974107" stroke-linejoin="round" stroke-width=".38958"/>
</svg>
