<?xml version="1.0" encoding="UTF-8"?>
<svg width="128" height="128" version="1.0" xmlns="http://www.w3.org/2000/svg">
 <defs>
  <filter id="a" x="-.124" y="-.519" width="1.248" height="2.038">
   <feGaussianBlur stdDeviation="3.522"/>
  </filter>
 </defs>
 <path transform="translate(-225.49 -43.27)" d="m282.37 162c-6.715-1.84-22.407 1.723-27-4.5 2.001-9.998 26.455-8.545 34-8 9.532-1.555 17.962-1.011 27.5-1.5 3.058 0 4.659 3.58 6.5 4.5 2.048 1.614-9.868 10.538-13.5 11-6.393 1.988-20.589-0.28-27.5-1.5z" fill-opacity=".7" fill-rule="evenodd" filter="url(#a)"/>
 <path d="M43.261 78.98c-1.718 0-2.333 2.833-4 3.25-2.622.259-6.295.64-4.5 4 1.13 1.13 3.104-1.666 2.5.75-1.837 1.853-4.433 2.719-1.5 5 1.107.553 1.798-.65 2.5-1-2.202 1.624-2.657 2.82 1 3.25 1.633 1.464 2.088 1.911 4.75.75 1.659-1.587 2.234-4.018 2.5-6.25-.294-2.438 1.238-4.331 1.75-6.5-.389-2.118-3.135-2.533-5-3.25z" fill="#f4e3d7" fill-rule="evenodd" stroke="#432612"/>
 <path d="M52.261 62.73c-1.437 2.736-3.377 4.63-5.75 6.5-1.67 3.515-3.082 6.926-5 10.25 2.917.618 3.44 4.62 7.375 5.25 1.509-2.248 2.584-4.748 4.125-7 1.945-2.067 3.398-4.289 4.75-6.75" fill="#2b1100" fill-rule="evenodd" stroke="#120700"/>
 <path d="M54.261 109.931c-1.107 0-2.878-.446-4.016-1.014-2.11-1.989-3.418-.528-5.768.347-1.402.35-1.335 1.896-1.335 3.113 4.92 4.524 14.897 2.516 21.126.445.114-2.124.079-4.33-.222-6.449-3.628-.292-6.39 2.626-9.785 3.558z" fill="#5d6dd6" fill-rule="evenodd" stroke="#162167"/>
 <path d="M42.92 113.044c-1.11.444-.155 1.649-.445 2.808 2.755 1.104 6.465.417 9.632.417 3.77-.598 7.63-1.106 11.494-.904 1.01 0 .667-2.1.667-2.89-3.924-.872-7.67 1.142-11.563 1.459-3.428.5-6.506.113-9.785-.89z" fill="#e6e6e6" fill-rule="evenodd" stroke="#4d4d4d"/>
 <path d="M56.922 86.581c-.915.457.846 5.08 1.572 6.29.958 3.466-.268 6.86-2.201 9.749.048 2.623-1.208 5.075-1.56 7.544 5.005-.601 9.297-4.211 15.712-4.4 1.73 0 .87-2.878.629-4.088-1.27-5.194-.928-10.447-1.258-15.724 0-1.893-2.29-1.24-3.774-.943-3.169.604-6.405-.427-9.12 1.572z" fill="#364936" fill-rule="evenodd" stroke="#141b14"/>
 <path d="M64.784 93.814c1.49 4.706-1.063 5.764-1.073 10.52 0 1.98-1.077 4.947-1.443 6.777 4.215-2.265 14.384-.65 19.982-.64-.838-4.06-3.059-5.407-3.629-7.851-1.81-3.185-1.459-6.26-1.258-9.75v-4.717c-.41-4.58-9.465-2.684-12.894-1.886.186 2.234-.101 5.068.315 7.547z" fill="#364936" fill-rule="evenodd" stroke="#141b14"/>
 <path d="M77.761 56.23c.47 2.529 1.612 4.795 3.25 6.75 2.547 2.738.8 5.988 1 9.5 2.011 6.168-1.17 12.287-.25 18.5-3.298.277-6.768-.176-10.875-.125-8.346-.43-8.118-2.798-16.375-.25-2.105-6.896-1.288-6.716-1.125-10.625.338-3.359.405-7.918-.125-11.25-.689-3.349-2.278-6.644.25-9.25 1.196-1.874 2.631-2.773 4.75-3.25 3.785-1.001 7.787-1.089 11.5-2.25 3.187-1.049 5.43.84 8 2.25z" fill="#2b1100" fill-rule="evenodd" stroke="#120700"/>
 <path d="M60.011 51.48c2.867.082 5.687.068 8.5-.5 2.309-.32 4.02.04 6.25-1 1.635-.41 2.033.565 2.5 1.5.603 1.206-.125 2.985-.125 4.375-4.312 2.963-9.812.857-14.625 1.375-2.52.54-5.548 2.565-5.75-1-.194-3.346-.24-4.354 3.25-4.75z" fill="#2b1100" fill-rule="evenodd" stroke="#120700"/>
 <path d="M60.154 18.928c-3.544 2.438-7.516 4.978-9.254 9.064-1.819 4.636-.474 9.781 1.133 14.353.98 3.897.72 8.077.756 12.086 0 1.365.196 1.563 1.133 2.266 3.608 1.87 8.332-1.086 11.331-3.21 3.804-3.04 8.513-3.22 12.654-5.855 3.58-2.75 3.795-7.232 4.532-11.33 1.267-4.91-.377-8.98-3.588-12.653-4.844-4.008-12.467-7.436-18.697-4.721z" fill="#f4e3d7" fill-rule="evenodd" stroke="#432612"/>
 <path d="M69.03 12.884c-6.359-2.881-9.528-6.331-16.483-5.167-6.903 2.085-14.604 13.183-13.91 19.978 1.237-8.734 6.49-13.608 14.554-13.404-6.059 2.713-6.943 6.132-8.977 9.353 3.27-3.414 6.352-4.227 10.126-4.339 1.651 0 .224 3.274-.465 4.589 2.326-3.246 7.583-2.855 8.325 1.285 2.786-4.298 8.358-4.15 12.874-3.985 2.029-1.591 2.692-2.563 2.692-5.119.359-5.016-4.691-3.732-8.736-3.19zM54.866 52.353c4.952-.443 3.178 4.158 2.644 7.554-1.038 3.863.306 7.251.756 10.953.062-1.75-2.272-2.286-2.644-3.777-1.002-4.007-1.731-3.513-2.397-5.013-.649 2.414-.818 3.394-1.883 5.888-4.42-7.086 1.527-6.956 2.013-10.317 0-2.475-.193-3.157 1.511-5.288z" fill-rule="evenodd" stroke="#000"/>
 <path d="M76.85 19.178c4.625-8.521 12.891-3.714 17.504-2.918-2.32 1.138-7.657-.798-9.049 1.953 3.437.216 7.898.722 9.41 5.24-2.19-3.166-8.59-3.597-13.075-2.01.882 3.324 4.184 3.225 6.734 5.61-4.243-.954-6.313 2.351-5.746.94.27-.675 3.91 4.087 3.174 6.629-3.42-2.287-4.292-3.996-8.084-3.986-1.203 2.212-2.93.932-6.044 8.31.964-8.111-.758-14.6 5.177-19.768z" fill-rule="evenodd" stroke="#000"/>
 <path d="M78.85 32.147c1.813-1.917 3.591-2.03 5.667-.567 1.424 1.416 2.206 2.987 2.644 4.91.359 2.93-1.8 3.328-4.155 3.966-2.062.406-3.772.037-4.344-2.455" fill="#f4e3d7" fill-rule="evenodd" stroke="#432612"/>
 <path d="M51.88 30.588c-.492 1.055-.849 1.615-.852 3.761-.118 3.003 2.476 5.121 4.594 2.519.61-1.797.377-2.899.377-4.782-.417-2.106-2.32-2.155-4.118-1.498zM62.852 30.07c-2.006.186-3.364 2.043-3.818 3.965-.292 1.784.136 3.098 1.797 4.155 4.7-.416 4.6-3.407 4.267-5.288-.046-1.68-.325-2.597-2.246-2.833z" fill="#fff" fill-rule="evenodd" stroke="#333"/>
 <path d="M59.776 36.868c.718 1.46 2.764 1.345 3.589-.567-1.777-2.542-2.908-2.016-3.589.567zM55.363 35.738c-.108-1.353-3.666-.657-3.896.186-.108 1.812 3.798 3.246 3.896-.186z" fill-rule="evenodd" stroke="#000"/>
 <path d="M57.13 38.256c-.213 1.22-1.402 2.479-2.83 2.011-1.466-.48-1.54 1.127-1.256 2.261.463 1.617 3.474.194 3.9.194M54.3 48.199c1.202-.717 4.524-.608 6.798 1.133" fill="none" stroke="#432612"/>
 <path d="M62.49 115.046c3.711-1.75 7.646.062 11.563-.445 2.312-.319 4.584-.664 6.921-.667 2.006-2.712-.807-5.101-3.14-6.004-4.048-.877-7.467-1.702-11.342.222-2.303 1.736-4.64 3.86-4.003 6.894z" fill="#5d6dd6" fill-rule="evenodd" stroke="#162167"/>
 <path d="M62.392 114.198c-.466.466.07 2.116.32 2.614 3.353.098 6.744.608 10.006-.21 2.742-.02 5.864-.242 8.616-.375.186-.427.29-1.572-.11-2.613-2.994.259-6.436.194-9.395-.347-2.978.109-6.632-.19-9.437.931z" fill="#e6e6e6" fill-rule="evenodd" stroke="#4d4d4d"/>
 <path d="M78.511 80.73c.328.66.5 2.54.5 4 .158 2.83-2.839 2.755-4 4.75-.117 3.149 3.002 1.9 4.5.5 1.183-1.184 1.636-.614 2.5.25.758.757.523 2.545 1 3.5 2.52 2.517 2.3-3.302 4.25-1.5.586.586 1.887-2.513 2-2.625 1.213-1.213 2-.407 2-2.125-1.425-2.345-2.543-4.67-4.375-6.75-1.6-4.834-6.779-6.384-8.375 0z" fill="#f4e3d7" fill-rule="evenodd" stroke="#432612"/>
 <path d="M69.011 60.98c1.194 2.131 2.477 4.073 4.25 5.75.504 2.372.027 4.515 1.25 6.75-.172 3.57 1.8 6.389 2.75 9.75 3.44-3.399 7.79.485 10.625-3.875a127.429 127.429 0 00-3.875-6.375c-1.715-1.887-2.456-4.072-3-6.5-1.476-2.412-2.951-4.83-4.5-7.25" fill="#2b1100" fill-rule="evenodd" stroke="#120700"/>
 <path d="M37.261 86.98c2.484.57 1.719.988 1 4 2.704-1.758 3.944-.785 2.625 2.875-1.307.738 4.02-2.85 3.75.5M82.103 32.785c3.94-.88 3.07 5.954-1.06 4.596" fill="#f4e3d7" fill-rule="evenodd" stroke="#432612"/>
 <path d="M85.462 34.376c2.327-3.61 5.142 1.751 1.798 2.143M85.285 37.381c4.784-.082 3.96 5.57.177 2.652M82.81 38.618c3.31 3.147.078 6.478-.884 2.122" fill="none" stroke="#000"/>
</svg>
