<?xml version="1.0" encoding="UTF-8"?>
<svg width="128" height="128" version="1.0" xmlns="http://www.w3.org/2000/svg">
 <defs>
  <filter id="a" x="-.125" y="-.327" width="1.25" height="1.653">
   <feGaussianBlur stdDeviation="1.963"/>
  </filter>
 </defs>
 <path transform="translate(15.506 -.478)" d="M55.242 112.044c-5.465.422-6.823-3.26-11.495.89-1.413 1.413-1.725 4.217-1.334 5.781 2.874 3.851 5.998 2.88 10.605 4.448 2.277.569 4.263.89 7.116.89 2.9 0 4.684 1.438 7.561 0 2.231-1.116 4.29-.773 6.227-2.224 1.512-1.135 2.226-3.124 2.668-4.893.784-3.135-1.876-3.607-3.558-4.447-2.16-1.08-5.906-.414-7.56 0-1.774.443-3.317-2.224-5.782-2.224-2 0-1.06 1.779-4.448 1.779z" fill-opacity=".728" fill-rule="evenodd" filter="url(#a)"/>
 <path d="M71.88 112.059c-3.229.635-5.886 1.242-8.628 3.236-.61.73-.583 1.436-.54 2.337.242.777.52 1.538.72 2.337 2.798.261 5.89 1.937 8.813.996 3.07.04 6.172-1.035 8.714-2.884.587-1.738-.043-4.095-.18-6.022-2.83.89-6.05.746-8.898 0z" fill="#e6e6e6" fill-rule="evenodd" stroke="#333" stroke-width="1.0686"/>
 <path d="M63.432 118.44c3.306-.565 6.611 1.605 10.054 1.144 3.197-.106 4.856-2.43 7.203-2.581" fill="none" stroke="#333" stroke-width="1.0686"/>
 <path d="M83.296 112.598c-2.573 1.375-6.447 2.079-8.988 4.225-.435.914-.417 1.97-.54 2.966.147 1.316.921 2.148 1.888 2.966 2.61 1.01 5.52.222 8.18-.27 2.333-.081 5.084-.616 6.71-2.396 2.511-2.348 2.09-4.579 1.828-7.85-3.026.23-6.044.36-9.078.36z" fill="#e6e6e6" fill-rule="evenodd" stroke="#333" stroke-width="1.0686"/>
 <path d="M64.7 73.04c-.774 1.208-.833 2.437-.762 3.814-.298 2.836 1.133 5.52.254 8.262-.79 1.67-1.266 2.76-2.67 3.94-1.54.069-2.662.85-3.05 2.161.9.91 2.189.599 3.432.509.37 1.383-1.65 3.187-1.78 4.83 1.807 2.16 3.32-1.415 3.432-3.05.215 1.572-.663 4.132-.508 5.211 2.07.406 2.787-3.065 2.796-4.83-.04 1.936-1.006 3.875 1.272 3.813 1.562-1.15 1.19-3.294 1.398-5.084.614-2.821 1.756-5.493 2.034-8.39-.308-4.252 1.732-9.532-.128-13.474-2.735-1.372-3.688 1.172-5.72 2.288z" fill="#e9d2af" fill-rule="evenodd" stroke="#3f2d10" stroke-width="1.0686"/>
 <path d="M71.493 56.714c-2.745 2.843-4.572 6.074-5.752 9.786-1.474 2.62-2.984 4.952-3.31 7.999 4.033.761 8.118-.038 12.118.511 1.831-4.862 1.518-10.196 1.618-15.317" fill="#b54ab5" fill-rule="evenodd" stroke="#532153" stroke-width="1.0686"/>
 <path d="M83.132 90.073c-.148.793-.905 2.85-.636 4.195.207 1.034.517 2.066.763 3.05.527 2.59-.453 5.067-.636 7.628.524 2.246-.139 5.794 1.399 7.372 2.674 2.022 6.777 1.927 8.262-.635-.254-1.018-.06-1.625-.508-2.67-1.308-2.785-.689-5.963-.255-8.898.06-3.855.78-7.582.636-11.44-2.204-.814-7.634-.225-9.025 1.398zM71.819 89.946c-.148.793-.905 2.85-.636 4.195.96 2.842 1.092 5.498.382 8.39.016 2.836-.887 7.575 1.144 9.66 2.893 1.146 5.802 1.877 8.262-.635-1.267-3.917-1.366-7.488-.763-11.568.03-3.864.782-7.555.636-11.44-2.204-.814-7.634-.225-9.025 1.398z" fill="#00325c" fill-rule="evenodd" stroke="#00192e" stroke-width="1.0686"/>
 <path d="M97.15 93.278c-2.853-3.52-.888-8.791-.524-12.822-1.25-5.041 1.995-10.42.924-15.46-.474-3.158-1.522-6.002-3.109-8.756-1.814-2.454-4.237-3.85-7.317-4.007-3.952.578-7.941.045-11.865.898-2.895 1.26-4.89 3.347-5.213 6.472-.14 2.82.05 5.363-1.258 7.91-.394 4.526-1.896 9.122-1.259 13.662.91 5.281-1.357 7.449-.772 12.716 4.558-2.61 10.465 1.324 15.64.745 4.34-1.552 12.06 1.933 14.753-1.358z" fill="#b54ab5" fill-rule="evenodd" stroke="#532153" stroke-width="1.0686"/>
 <path d="M87.667 61.835c.13 2.583.781 4.953 1.618 7.37.675 2.476.872 5 .898 7.55 4.276-.454 8.852-2.25 13.123-3.595-.448-2.105-1.028-4.172-1.438-6.292-.679-2.79-2.904-4.42-4.134-6.83-1.502-2.102-3.545-3.095-6.112-2.338" fill="#b54ab5" fill-rule="evenodd" stroke="#532153" stroke-width="1.0686"/>
 <path d="M74.559 55.262c1.768 4.662 10.527 3.126 13.632-1.31-1.239-2.52-2.116-5.546-4.83-6.865-2.306-.263-4.543.378-6.737 1.017-1.768 1.379-2.46 5.388-2.065 7.158z" fill="#e9d2af" fill-rule="evenodd" stroke="#3f2d10" stroke-width="1.0686"/>
 <path d="M77.364 9.143c-10.628-.062-14.832 6.95-14.974 16.07 0 1.908.882 5.663 1.355 7.554-.22 3.724-1.143 6.537-.044 10.172 1.279 5.142 4.733 7.88 9.708 8.988 4.416-.086 10.352-1.586 13.662-4.674 4.74-3.878 6.166-10.441 7.91-16.179.62-5.48-2.04-10.708-3.596-15.819-2.167-5.593-8.722-6.895-14.021-6.112z" fill="#e9d2af" fill-rule="evenodd" stroke="#3f2d10" stroke-width="1.0686"/>
 <path d="M63.701 16.334c-.655-10.03 26.7-13.341 28.127-5.411 7.685.59 5.566 19.915 3.657 26.688-7.927-.08-1.648-8.905-6.257-11.21-1.963-.491-2.62 1.014-4.314 1.438-3.59-2.307.04-9.405-5.753-11.865-2.828 1.143-6.414 2.908-9.348 0-2.507 0-3.976 1.214-6.112.36z" fill="#28170b" fill-rule="evenodd" stroke="#120a04" stroke-width="1.0686"/>
 <path d="M71.717 25.723c-1.389 3.05-.314 4.837 2.66 4.396.914.403 2.818-1.826 2.381-3.305.327-3.97-3.115-4.056-5.04-1.09zM65.616 23.69c-2.394.537-3.517 2.365-3.051 5.084 2.763 5.103 8.018-2.24 3.05-5.085z" fill="#fff" fill-rule="evenodd" stroke="#333" stroke-width="1.0686"/>
 <path d="M69.175 27.503c-.423 2.451-2.796 3.592-4.068 4.83-.65 2.72-.26 4.671 2.797 4.068 2.135-.993 2.993-2.638 3.305-4.83M86.97 28.011c5.963-2.369 4.913 6.462.51 5.593M88.115 29.41c.865-1.519 3.145 1.2 0 2.669" fill="#e9d2af" fill-rule="evenodd" stroke="#3f2d10" stroke-width="1.0686"/>
 <path d="M66.633 43.773c.416 1.094 7.506 3.396 11.578.36" fill="none" stroke="#3f2d10" stroke-width="1.0686"/>
 <path d="M74.799 26.455c.393-.363-1.909-1.04-1.78 1.017.1 1.594 2.027 1.973 2.67 1.525 1.29-.9-.268-2.86-.89-2.542zM65.287 27.143c.465-.965-2.214-.19-1.525 2.034.475 1.535 2.16.59 2.288.508 1.708-1.103.327-3.917-.763-2.542z" fill-rule="evenodd" stroke="#000" stroke-width="1.0686"/>
 <path d="M74.487 120.868c3.182.682 6.634 1.035 9.1.059 2.965-.393 5.61-1.008 8.338-3.924" fill="none" stroke="#333" stroke-width="1.0686"/>
 <path d="m61.719 81.986 5.62-2.844 6.971 1.707-3.77 3.554-8.821-2.417z" fill="#4d4d4d" fill-rule="evenodd" stroke="#1a1a1a"/>
 <path d="M72.745 80.635l4.766-3.27 5.194 1.35 1.565 4.906 2.987.64-.355 15.357-3.628 1.564-10.529-20.547z" fill="#4d4d4d" fill-rule="evenodd" stroke="#1a1a1a"/>
 <path d="M61.797 82.145l8.234 2.08 2.966-3.575 5.737 1.52.99 5.198 3.663 1.259-.414 12.563-21.128-5.229-.048-13.816z" fill="#4d4d4d" fill-rule="evenodd" stroke="#1a1a1a"/>
 <path d="M54.297 92.647l18.946-5.613c2.479.398 8.418 6.632 5.335 11.801l-21.293 6.822c-7.06-.368-9.71-10.688-2.988-13.01z" fill="#4d4d4d" fill-rule="evenodd" stroke="#1a1a1a"/>
 <path d="M54.413 93.377c-4.88.648-5.036 9.521 2.419 11.375 4.831-.52 4.306-11.47-2.419-11.375z" fill-rule="evenodd"/>
 <path d="M66.058 88.882c7.035 1.604 8.026 9.308 4.695 12.797l5.62-2.204c2.017-3.642-.92-10.642-5.62-12.228l-4.695 1.635z" fill="#333" fill-rule="evenodd" stroke="#1a1a1a"/>
 <path d="m78.65 82.057 3.912-3.341m-2.49 8.602 4.269-3.697m3.059 0.853-4.126 3.982" fill="none" stroke="#1a1a1a"/>
 <path d="m73.456 81.702-1.92 2.63 6.9 2.204-0.355-3.412-4.625-1.422z" fill="#ccc" fill-rule="evenodd" stroke="gray"/>
 <path d="M54.602 94.02c-3.096 1.363-6.345 7.263 1.705 9.71 4.831-.519-6.042-2.31-1.705-9.71z" fill="#e6e6e6" fill-rule="evenodd"/>
 <path d="M83.08 85.39c3.98-11.843 6.153-18.895 7.624-32.62l1.566 1c-1.302 10.09-.501 12.7-6.693 30.43l-2.497 1.19zM63.098 81.108c-1.744-11.712 2.296-16.021 8.264-26.19l2.001-1.332c-5.7 9.75-11.14 15.675-7.767 26.332l-2.498 1.19z" fill="#1a1a1a" fill-rule="evenodd" stroke="#000"/>
 <path d="M57.816 91.742c7.035 1.604 8.026 9.308 4.695 12.797l5.62-2.204c2.017-3.643-.92-10.643-5.62-12.228l-4.695 1.635z" fill="#333" fill-rule="evenodd" stroke="#1a1a1a"/>
 <path d="M93.634 81.523c-.878 3.247-2.538 6.705-5.182 8.808-1.495.577-2.265-1.612-3.711-.452-.301 1.443.804 2.357 1.865 3.24-1.658 1.315-3.988 1.99-3.15 4.707 1.382-.058 2.746-.993 3.577-1.99-.486 1.385-2.82 3.504.17 3.578 1.629-.35 1.65-1.948 2.342-3.26.278 1.944-.467 4.327 2.007 2.326.665-1.102.477-2.168.292-3.364.383-1.244 1.368-2.278 2.112-3.366 2.62-1.809 4.314-4.387 6.036-7.015-.66-2.976 2.47-5.28 2.075-8.142.062-1.17-.174-1.817-.41-2.918l-8.264 2.7c-.02 1.687.59 3.455.241 5.148z" fill="#e9d2af" fill-rule="evenodd" stroke="#3f2d10" stroke-width="1.0686"/>
</svg>
