<svg xmlns="http://www.w3.org/2000/svg" width="128" height="128" version="1.0"><defs><filter id="a"><feGaussianBlur stdDeviation="1.728"/></filter></defs><metadata/><path d="M14.142 111.383c-.479 4.193 4.26 5.11 7.071 6.718 5.206 3.906 10.681 7.885 17.324 8.485 6.587-1.26 12.827-3.991 19.092-6.364 2.743-.92 6.666-.72 7.425-3.536.435-1.74-.4-4.196.707-5.303 6.637-1.878 9.074-6.754 13.435-11.314 7.724-2.886 2.104 6.067 0 8.84-3.656 3.428-10.453 8.88-6.364 14.141 4.181 2.032 10.162.227 14.496-1.768 6.335-3.544 4.548-14.65 9.192-19.091 3.165-2.223 7.464-1.363 11.314-2.829 6.768-3.6 5.54-12.373-1.06-15.203-6.499-2.503-34.179-9.296-34.296 1.061 1.904 4.467-1.718 6.108-3.889 10.96-1.477 2.399-13.66 5.32-15.556 4.95-6.067.681-11.36-1.464-16.617-3.182-5.058-.214-20.821 8.628-22.274 13.435z" fill-rule="evenodd" filter="url(#a)" fill-opacity=".84"/><g stroke="#333"><path d="M62.501 101.641c-2.996 1.225-5.57 1.064-7.837 3.508-.45.822-.165 2.747.047 3.608.38.704.793 1.385 1.137 2.118 2.75-.278 6.051.753 8.693-.709 2.97-.544 5.76-2.17 7.862-4.435.237-1.789-.818-3.944-1.315-5.777-2.564 1.395-5.696 1.866-8.587 1.687z" fill="#e6e6e6" fill-rule="evenodd"/><path d="M55.559 109.4c3.312.204 6.774.84 9.918-.802 3.064-.708 4.225-3.265 6.461-3.857" fill="none"/></g><path d="M38.975 122.73c.203.406 2.297 1.312 2.958.98 2.51-1.256 7.95-4.16 10.943-4.16 3.26-2.375 6.686-2.512 10.006-4.585-.247-.56.57-1.832.145-2.36-2.562-3.186-8.255-5.517-11.676-7.763-4.668-3.93-10.827-6.75-16.81-8.038-5.98 3.078-12.955 4.289-18.104 8.862 6.435 7.578 15.655 10.34 22.538 17.063z" fill="#333" fill-rule="evenodd" stroke="#1a1a1a"/><path d="M35.157 98.914c3.32 1.344 6.112 2.082 9.375 3.75 4.643 1.956 9.744 6.747 14.25 9-1.068 2.102-7.139 2.28-9.875 3.5-5.06.32-7.797 3.099-11.625 5.375-5.596-2.102-14.728-7.37-18.375-12.375 3.17-4.562 11.027-7.308 16.25-9.25z" fill="#b3b3b3" fill-rule="evenodd" stroke="#4d4d4d"/><path d="M66.209 74.736c-2.802 1.757-6.31 3.146-9.623 2.898-1.465-.583-.559-2.677-2.377-2.805-1.18.84-.993 2.24-.818 3.585-2.074-.159-4.207-1.227-5.417 1.293 1.037.881 2.646 1.118 3.911.953-1.275.675-4.375.646-2.266 2.695 1.409.837 2.492-.303 3.867-.787-1.096 1.588-3.227 2.81-.104 3.019 1.216-.352 1.792-1.248 2.458-2.234 1.106-.643 2.508-.731 3.772-1.019 3.098.443 6.043-.286 9.041-1.034 1.512-2.588 5.31-2.162 6.935-4.49.827-.805 1.52-1.533 2.084-2.486-.332-2.908-1.965-4.712-4.862-4.888-3.76-.063-4.254 3.62-6.601 5.3z" fill="#e9d2af" fill-rule="evenodd" stroke="#3f2d10"/><path d="M79.97 84.872c-5.218 1.325-13.41-2.545-17.854 1.06-1.126 2.414.34 6.385-.177 9.016.112 3.49-3.377 6.683-.53 9.192 3.428 1.64 9.182 1.754 11.667-.884 2.272-3.184-.58-7.637 1.945-10.606 5.321-1.738 10.214.697 14.142-4.596 2.129-5.276-4.33-7.518-8.662-7.071-.548 1.168-.33 2.587-.53 3.889z" fill="#00325c" fill-rule="evenodd" stroke="#00192e"/><path d="M76.64 52.061c-2.262 3.16-3.577 6.565-4.192 10.346-1.058 2.76-2.192 5.246-2.073 8.257 4.034.161 7.893-1.203 11.863-1.242 1.084-4.993.014-10.137-.624-15.134" fill="#1a1a1a" fill-rule="evenodd" stroke="#000"/><path d="M81.126 109.05c-1.93 2.123-5.284 4.054-6.93 6.881-.1.99.265 1.964.48 2.926.57 1.17 1.437 1.935 2.603 2.374 2.751.073 6.562-.743 8.862-2.076 2.135-.847 3.257-3.376 4.174-5.56 1.551-3.006.424-4.933-.899-7.876a117.971 117.971 0 01-8.29 3.33z" fill="#e6e6e6" fill-rule="evenodd" stroke="#333"/><path d="M79.073 120.868c3.172-.418 4.862-1.357 6.824-3.075 2.616-1.343 2.613-3.786 4.176-7.388" fill="none" stroke="#333"/><path d="M90.047 88.23c-1.267 0-8.34-1.114-9.192-.53-1.507 4.462-.376 9.404-.884 14.319-.283 4.113-1.105 6.094 1.767 9.192 6.982 2.2 11.064-3.36 9.723-3.535.664-3.55-2.506-10.02 1.984-11.335 1.304.74 5.035 2.784 7.797 2.795 3.554.015 7.028-.013 9-5.163.016-4.098-2.549-10.237-6.928-11.232-3.428 2.523-10.47-2.357-12.206 1.6-.267 1.066-1.061 2.741-1.061 3.89z" fill="#00325c" fill-rule="evenodd" stroke="#00192e"/><path d="M107.847 84.076c-3.28-3.015-3.126-8.55-3.35-12.524-1.938-4.725.445-10.424-1.32-15.173-.913-3.005-2.341-5.62-4.28-8.072-2.117-2.127-4.675-3.137-7.694-2.849-3.761 1.13-7.719 1.184-11.414 2.577-2.636 1.641-4.277 3.958-4.143 7.044.27 2.765.818 5.21-.089 7.876.267 4.46-.535 9.147.737 13.472 1.642 5.007-.876 4.566-1.301 8.856 2.098-.377 5.343 4.14 4.823 2.907.46-3.458 8.34-.264 12.873-.802 4-2.132 13.01.276 15.158-3.312z" fill="#1a1a1a" fill-rule="evenodd" stroke="#000"/><path d="M98.152 70.726c-1.4.174-2.366.901-3.363 1.82-2.332 1.559-3.463 4.327-6.089 5.386-1.76.452-2.882.777-4.658.458-1.02-1.122-2.315-1.48-3.552-.949-.121 1.253.924 2.032 1.773 2.916-.814 1.149-3.446.756-4.771 1.69-.498 2.724 3.157 1.62 4.464.678-1.055 1.151-3.542 2.095-4.261 2.891.994 1.822 4.07.182 5.41-.921-1.489 1.186-3.562 1.675-2.084 3.358 1.852.458 3.24-1.17 4.724-2.138 2.52-1.309 5.258-2.125 7.623-3.735 3.022-2.906 10.861-4.682 12.673-8.566-.111-.478-.284-8.87-.642-9.544-1.318-2.48-6.957 2.197-8.27 1.996-.516-.079 1.524 4.858 1.023 4.66z" fill="#e9d2af" fill-rule="evenodd" stroke="#3f2d10"/><path d="M93.943 53.012c-.113 2.542.302 4.922.896 7.366.43 2.487.387 4.977.175 7.475 4.228-.045 8.876-1.377 13.182-2.295-.242-2.103-.617-4.18-.82-6.294-.405-2.795-2.431-4.597-3.41-7.073-1.275-2.197-3.182-3.359-5.766-2.857" fill="#1a1a1a" fill-rule="evenodd" stroke="#000"/><path d="M74.131 6.752C63.813 8.41 60.868 15.89 62.204 24.76c.308 1.85 1.77 5.35 2.535 7.108.388 3.648-.052 6.526 1.601 9.874 2.07 4.782 5.864 6.879 10.869 7.15 4.27-.797 9.785-3.212 12.497-6.741 3.97-4.528 4.294-11.125 5.058-16.972-.285-5.416-3.708-10.057-6.044-14.764-3.006-5.075-9.575-5.278-14.589-3.663z" fill="#e9d2af" fill-rule="evenodd" stroke="#3f2d10"/><path d="M62.04 15.935C59.785 6.313 85.784-1.32 88.45 6.141c7.549-.67 10.767 18.418 10.01 25.298-7.703 1.202-5.188-8.373-10.031-9.864-1.985-.159-2.378 1.407-3.953 2.092-3.854-1.657-1.48-9.129-7.497-10.579-2.56 1.566-5.752 3.857-9.068 1.51-2.432.406-3.661 1.82-5.87 1.337z" fill="#28170b" fill-rule="evenodd" stroke="#120a04"/><path d="M97.122 30.244c-1.558.26 2.05 5.36 2.5 6.394.696 1.602 4.131 3.553 5.462 4.824 1.131 1.08 4.913-.755 5.871-1.336 1.612-.979 3.78-.372 4.708.29 2.893 2.068.806-1.31-.058-2.499-.679-.933-3.233-1.915-4.359-2.5-1.914-.992-2.505-2.403-4.185-3.603-1.603-1.145-3.253-.892-5.115-.582-1.162.194-3.354-.94-4.824-.988z" fill="#28170b" fill-rule="evenodd" stroke="#120a04"/><path d="M79.386 48.08c1.591 4.638 10.249 3.403 13.44-.86-1.138-2.515-1.906-5.516-4.532-6.898-2.257-.331-4.476.228-6.654.788-1.78 1.299-2.587 5.217-2.254 6.97z" fill="#e9d2af" fill-rule="evenodd" stroke="#3f2d10"/><path d="M66.22 48.202c.862 1.186 2.31 1.769 3.956 1.495 2.715.315 5.415 1.06 8.142 1.526 3.53.306 5.71-1.832 7.887-4.196 3.852-2.882 7.602-7.32 7.67-12.335-.092-2.08-.895-1.942-2.003-1.377-1.613 2.307-3.698 4.808-6.175 6.288-3.2 1.513-5.786 2.398-7.378-1.306-1.646-3.013-5.395-3.332-8.487-3.591-6.349.778-6.354 9.23-3.612 13.496zm4.198-9.602c2.828-1.791 10.47 4.976 4.921 5.58-2.437-.385-3.166-1.8-4.218.354-4.646 2.298-3.74-4.165-.703-5.934z" fill="#28170b" fill-rule="evenodd" stroke="#120a04"/><path d="M71.333 23.748c-.854 3.182.477 4.742 3.291 3.834.952.243 2.438-2.227 1.775-3.59-.324-3.904-3.676-3.432-5.066-.244zM65.086 22.76c-2.235.909-3.029 2.864-2.137 5.426 3.505 4.503 7.416-3.468 2.137-5.425z" fill="#fff" fill-rule="evenodd" stroke="#333"/><path d="M69.155 25.885c-.014 2.446-2.131 3.936-3.165 5.342-.191 2.744.503 4.574 3.37 3.494 1.91-1.307 2.476-3.042 2.425-5.22M86.5 23.502c5.4-3.261 5.808 5.474 1.396 5.343M87.835 24.674c.594-1.613 3.244.655.431 2.589" fill="#e9d2af" fill-rule="evenodd" stroke="#3f2d10"/><path d="M69.318 42.078c1.02.245 3.68-.42 5.302-.883" fill="none" stroke="#3f2d10"/><path d="M72.992 24.785c.323-.415-2.019-.7-1.561 1.274.354 1.53 2.284 1.587 2.835 1.048 1.107-1.081-.72-2.73-1.274-2.322zM64.635 26.353c.296-1.011-2.178.173-1.15 2.22.708 1.412 2.19.223 2.301.123 1.48-1.347-.316-3.853-1.15-2.343z" fill-rule="evenodd" stroke="#000"/><path d="M89.693 88.407c1.955-.133 4.025-.36 5.834.354 1.39.238 2.737.6 4.066 1.06" fill="none" stroke="#00192e"/><path d="M33.221 101.31c2.25 1.706 5.732 3.18 8.341 4.272 2.722 1.164 5.061 2.79 7.595 4.332 1.34.901 2.656 1.787 3.914 2.81M29.618 103.082c3.766 2.424 8.756 6.061 12.914 7.832 1.57.591 2.83 1.748 4.25 2.625M26.499 106.009c2.005 2.051 6.75 3.567 8.908 5.405 1.995 1.12 4.127 2.003 5.5 3.875.269.27.454.352.75.5" fill="none" stroke="#4d4d4d"/><path d="M51.907 109.164c-2.068.56-3.172 1.727-5.144 3.457-3.777.293-8.017 3.166-9.895 4.78M36.782 101.164c-3.363 2.349-9.223 4.504-13.063 6.037M38.43 103.899c-2.552 1.462-8.706 6.42-11.367 7.512M45.657 108.164c-1.646 1.183-3.19 2.372-5.125 3.25-2.196 1.078-3.776 2.838-5.481 4.533" fill="none" stroke="#4d4d4d"/><path d="M38.992 121.987c3.796-3.44 7.844-3.937 12.976-5.358 3.377-.476 6.707-2.82 9.935-3.956" fill="none" stroke="#1a1a1a"/><path d="M41.63 105.67c-1.906 1.223-3.69 2.605-5.473 3.994-.697.947-3.666 3.73-4.658 4.137" fill="none" stroke="#4d4d4d"/><path d="M17.877 94.39c4.283 1.901 7.8 5.17 12.198 6.888 2.076 2.012 2.814 4.811 3.643 7.48 1.549 4.861 3.182 6.055 5.978 14.05.071 1.015-.42 1.196-.228 1.582-3.417.535-9.958-4.719-13.482-7.047-3.928-.788-5.538-4.344-9.133-6.162-.46-3.759-2.813-6.497-2.955-10.376-.476-3.212-3.941-8.723-4.665-11.893 2.25.618 6.15 4.455 8.644 5.478z" fill="#333" fill-rule="evenodd" stroke="#1a1a1a"/><path d="M9.515 90.277c1.171 1.255 8.197 5.76 10.216 7.154 3.043 2.865 6.8 4.004 9.594 5.954 1.808 2.772 2.946 5.433 3.57 8.67.195 3.366 4.672 9.23 5.705 12.335" fill="none" stroke="#1a1a1a"/><path d="M24.613 107.013c-.762-.415-1.71.14-2.424.553-.952.637-1.305 1.816-1.8 2.805 1.116.638 2.065 1.093 3.073 1.631.84.504 1.77.14 2.214-.693.433-.886.622-2.098.562-3.04-.15-.637-1.112-.913-1.625-1.256z" fill="#00325c" fill-rule="evenodd" stroke="#00192e"/><path style="-inkscape-font-specification:Rufscript" d="M78.316 66.432c-.355.182-.164-.322-.274-.512-.17-.857-.442-1.695-.54-2.567a10.4 10.4 0 01-.113-1.053c.147-.317.54-.366.838-.464a8.64 8.64 0 011.34-.239c.309.14.549.404.743.675.206.37.042.819-.22 1.113-.287.352-.72.576-.939.982-.107.327.226.54.497.614.385.13.792.277 1.041.62.205.189.244.538-.123.52-.38.07-.619-.28-.898-.47-.284-.166-.544-.39-.838-.519-.334.13-.227.579-.21.86.092.247-.166.302-.304.44zm.079-2.213c.513-.384 1.09-.76 1.38-1.354.108-.305-.168-.567-.452-.61-.388-.09-.78.038-1.163.092-.245.218.026.58.045.855.078.336.122.679.19 1.017zm4.426 1.499c-.078-.69-.14-1.388-.387-2.042-.115-.376-.229-.751-.342-1.127-.298-.198-.674-.067-1.007-.09-.271.057-.905-.205-.635-.519.304-.07.615-.11.922-.17.955-.157 1.918-.34 2.89-.305.416-.058.537.507.102.571-.443.114-.906.122-1.355.207-.203.392.076.794.16 1.177.187.712.283 1.447.305 2.181.013.344-.445.42-.63.19l-.016-.035-.007-.038zm3.084-1.914c-.16.323.157.633.245.935.17.265.306.835-.163.858-.406.045-.447-.41-.518-.698-.231-.99-.4-1.996-.555-3.001-.113-.318.135-.544.405-.654a5.57 5.57 0 011.504-.37c.292-.053.541.086.731.3.188.13.222.436-.083.342-.557.015-1.14-.006-1.661.223-.286.25-.076.68-.054.999.078.37.492.454.8.328.325-.091.688-.301 1.02-.127.325.287-.141.642-.443.659-.399.119-.815.168-1.228.206zm6.254 1.875c-.194-.456-.204-.962-.294-1.444-.15-1.097-.231-2.204-.418-3.296-.185.139-.247.437-.417.618a5.983 5.983 0 01-.7.791c.194.133.729.29.466.597-.32.317-.66-.096-.904-.293-.423-.336-.844-.673-1.278-.994.196 1.078.414 2.154.547 3.243-.01.37-.633.488-.695.076-.125-.513-.174-1.042-.256-1.564a42.933 42.933 0 01-.25-2.067c.032-.359.513-.43.779-.285.401.136.561.55.83.836.287.268.452-.227.627-.388.31-.396.63-.789.883-1.223-.027-.343.42-.635.681-.361.191.64.24 1.316.394 1.967.176.975.257 1.97.502 2.93.162.297.088.663-.213.835-.079.068-.205.114-.284.022z" font-size="12" font-weight="400" fill="#fff" font-family="Rufscript"/></svg>