<svg xmlns="http://www.w3.org/2000/svg" width="128" height="128" version="1.0"><defs><filter id="a" x="-.125" width="1.25" y="-.327" height="1.653"><feGaussianBlur stdDeviation="1.963"/></filter></defs><metadata/><path d="M55.945 112.233c-1.872.606-6.114-.639-8.895-1.334-2.357-.59-4.728 1.17-5.782 2.224-1.414 1.413-1.726 4.217-1.335 5.782.832 3.327 5.383 3.104 7.561 2.668 2.008-.401 4.245 1.284 6.227 1.78 2.276.568 8.513-.361 11.366-.361 2.9 0 11.184 2.688 14.06 1.25 2.232-1.116 4.291-.772 6.227-2.224 1.513-1.134 2.227-3.124 2.669-4.892.784-3.136-1.877-3.607-3.558-4.448-2.161-1.08-5.907-.414-7.561 0-1.773.443-14.066-2.224-16.532-2.224-2 0-1.06 1.78-4.447 1.78z" fill-opacity=".728" fill-rule="evenodd" filter="url(#a)"/><g stroke="#333"><path d="M73.29 108.82c2.836-.438 5.59-3.322 8.855-3.136.881.462 2.199 2.453 2.883 3.163.662 1.12.545 2.232.268 3.446-1.455 2.336-4.209 3.436-6.59 4.62-1.883 1.314-4.362 2.518-6.69 2.08-3.363-.364-4.35-2.366-6.076-5.093a117.971 117.971 0 007.35-5.08z" fill="#e6e6e6" fill-rule="evenodd"/><path d="M85.454 110.561c-1 3.148-4.776 4.411-7.474 4.98-2.562 1.442-5.005 2.521-8.872 1.84" fill="none"/></g><path d="M70.404 90.91c2.177 2.725 1.962 3.797 4.825 8.186-.519 2.545.446 4.982.625 7.5-.515 2.209.137 5.698-1.375 7.25-2.63 1.988-6.665 1.895-8.125-.625.25-1.001.06-1.598.5-2.625 1.286-2.74.677-5.864.25-8.75-.058-3.791-4.126-6.572-3.984-10.366 2.168-.801 5.916-2.166 7.284-.57z" fill="#00325c" fill-rule="evenodd" stroke="#00192e"/><g stroke="#333"><path d="M54.411 110.7c-3.03-1.13-3.537-4.785-8.87-1.857-.892.286-1.24.886-1.679 1.657-.621 2.315 3.1 6.47 6.16 7.788 2.529 1.65 5.671 2.391 8.756 2.195 1.403-1.134 2.121-3.424 3.022-5.095-2.82-.753-5.416-2.568-7.389-4.687z" fill="#e6e6e6" fill-rule="evenodd"/><path d="M43.945 110.49c2.19 3.55 4.734 5.874 7.835 7.305 2.71 1.596 5.312.54 7.342 1.65" fill="none"/></g><path d="M55.936 90.871c-.145.78-3.187 5.63-2.923 6.954.944 2.795 1.212 5.177.513 8.021-.555 2.79-2.248 7.325-.25 9.375 2.845 1.127 5.706 1.845 8.125-.625-1.246-3.852-.335-7.165.259-11.177.028-3.8 2.764-6.92 2.62-10.74-2.166-.802-6.976-3.404-8.344-1.808z" fill="#00325c" fill-rule="evenodd" stroke="#00192e"/><path d="M46.774 80.301c-1.218 3.075-1.946 6.777-1.1 9.99.839 1.334 2.733.062 3.19 1.828-.612 1.313-2.021 1.383-3.376 1.455.532 2.01 1.97 3.914-.288 5.561-1.055-.859-1.58-2.398-1.647-3.672-.433 1.377.16 4.42-2.24 2.719-1.078-1.234-.154-2.507.072-3.946-1.362 1.366-2.177 3.683-2.95.65.126-1.259.901-1.988 1.75-2.822.432-1.205.263-2.6.317-3.895-.999-2.966-.817-5.994-.627-9.078 2.271-1.957 1.161-5.615 3.156-7.636.64-.96 1.23-1.772 2.065-2.5 2.92-.203 4.99 1.075 5.69 3.892.745 3.685-2.787 4.841-4.012 7.454zM79.853 80.837c.553 3.261.495 7.033-1 10-1.098 1.13-2.687-.507-3.5 1.125.325 1.412 1.69 1.773 3 2.125-.94 1.857-2.742 3.42-.875 5.5 1.21-.621 2.044-2.017 2.375-3.25.137 1.437-1.076 4.29 1.625 3.125 1.31-.983.672-2.42.75-3.875 1.048 1.62 1.364 4.056 2.75 1.25.139-1.258-.468-2.133-1.125-3.125-.171-1.268.283-2.597.5-3.875 1.593-2.694 2.045-5.694 2.5-8.75-1.815-2.386.031-5.733-1.5-8.125-.427-1.071-.836-1.99-1.5-2.875-2.815-.805-5.105.014-6.375 2.625-1.495 3.45 1.72 5.314 2.375 8.125z" fill="#e9d2af" fill-rule="evenodd" stroke="#3f2d10"/><path d="M78.71 94.851c-2.805-3.461-2.26-8.706-1.902-12.67-1.228-4.957 1.431-9.842.378-14.797-.465-3.106 2.397-5.976.836-8.684-1.784-2.413-6.292-3.536-9.32-3.69-3.887.569-7.81.044-11.668.883-2.847 1.24-7.81 2.166-8.127 5.24-.137 2.773 2.756 7.19 1.47 9.695-.387 4.452-.334 9.48.293 13.944.894 5.194-1.39 6.356-.814 11.535 4.481-2.566 8.733 2.97 13.822 2.4 4.268-1.526 12.384-.62 15.032-3.856z" fill="#1a1a1a" fill-rule="evenodd" stroke="#000"/><path d="M51.34 69.455c-1.053 3.6-1.562 6.37-2.59 10.74-4.194-.544-5.31-3.312-9.478-4.732.489-2.06 2.43-4.473 2.881-6.547.732-2.728 1.953-2.93 3.218-5.271 1.297-1.477 1.416-3.136 4.565-3.897" fill="#1a1a1a" fill-rule="evenodd" stroke="#000"/><path d="M50.14 21.542c-1.41 4.8.633 10.454 1.891 15.156-1.823 5.854.535 10.13 6.088 14.8 6.425 2.09 13.614 1.641 19.172-5.282 1.367-11.378-.052-4.471 2.534-13.976.855-12.313-3.514-20.66-15.09-19.765-8.002-.262-11.436 3.864-14.595 9.067z" fill="#e9d2af" fill-rule="evenodd" stroke="#3f2d10"/><path d="M61.488 51.518c-1.304.695-2.281 2.765-2.556 4.636 2.18 2.574 8.822 2.589 12.002.201-.625-2.688-.21-3.07-2.517-4.937M79.115 26.661c7.413-2.957 4.337 7.177.15 6.004M51.598 28.74c-7.747-1.921-3.319 7.7.669 5.967" fill="#e9d2af" fill-rule="evenodd" stroke="#3f2d10"/><path d="M76.926 70.877c.701 2.425.73 4.093.795 6.6 4.197-.51 5.304-1.484 9.483-2.87-.472-2.064-1.32-4.126-1.754-6.204-.71-2.733-2.399-3.59-3.645-5.942-1.598-1.711-4.961-4.585-6.858-6.092" fill="#1a1a1a" fill-rule="evenodd" stroke="#000"/><path d="M51.95 44.081c-1.003 2.166-.102 3.657.796 5.657 1.311 1.877 2.766 1.597 4.95 1.856 1.464-1.188 1.72-1.5 1.767-3.358-.356-2.505-.816-1.84-2.828-2.917-1.352-.347-3.285-1.238-4.685-1.238zM77.864 43.302c1.275 2.018.574 3.612-.058 5.712-1.057 2.03-2.536 1.942-4.668 2.48-1.606-.988-1.899-1.264-2.187-3.101.03-2.53.571-1.93 2.427-3.258 1.296-.519 3.098-1.652 4.486-1.833z" fill="#28170b" fill-rule="evenodd" stroke="#120a04"/><path d="M65.48 50.433c16.673-8.414 10.322-9.711 13.695-13.408 4.477-2.717 5.29-14.654.515-21.191-3.522-4.824-8.318-8.692-14.547-6.529C49.771 6.13 43.88 26.87 51.437 40.068c5.169 4.303 2.623 6.64 14.043 10.365z" fill="#28170b" fill-rule="evenodd" stroke="#120a04"/><path d="M63.653 36.438c-1.745.21 3.438 6.788 3.933 7.898.767 1.72 7.978 4.27 9.458 5.667 1.257 1.186 7.02 1.272 8.095.698 1.811-.966 4.233-.234 5.265.503 3.22 2.302.912-1.35-.046-2.64-.753-1.013-3.46-3.064-4.858-2.82-3.697.648-6.388-3.814-7.89-5.566-1.429-1.665-5.297-1.7-7.382-1.45-1.302.156-4.932-2.178-6.575-2.29z" fill="#28170b" fill-rule="evenodd" stroke="#120a04"/><path d="M57.915 66.002c-.127.005-.312.09-.205-.117-.005-.974-.233-1.93-.244-2.905-.012-.477-.029-.957.009-1.432.139-.26.476-.29.736-.35a9.125 9.125 0 011.639-.107c.27.15.449.422.622.669.229.346.127.81-.145 1.1-.313.404-.815.584-1.162.949-.26.212-.148.592.13.725.351.223.776.344 1.05.676.152.187.316.414.302.665-.242.156-.682.117-.855-.161-.222-.192-.412-.45-.65-.606-.255-.08-.428-.648-.721-.282-.157.253-.113.576-.137.863.032.148-.162.164-.25.242l-.12.07zm.367-2.312c.55-.31 1.135-.612 1.538-1.113.19-.207.169-.559-.083-.706-.384-.28-.888-.199-1.332-.18-.41-.054-.221.465-.216.707.064.427.06.862.093 1.292zm4.45 2.143c-.001-.673.043-1.356-.11-2.017-.084-.467-.165-.934-.246-1.401-.21-.21-.566-.16-.843-.207-.34-.018-.804-.085-.903-.476-.035-.302.483-.136.684-.21 1.087-.042 2.18-.125 3.265 0 .247.025.713.123.57.47-.193.233-.54.196-.812.209-.32.003-.64-.006-.959.01-.239.33-.065.753-.006 1.114.116.76.136 1.537.074 2.304.016.304-.186.592-.514.42-.1-.026-.205-.1-.2-.216zm3.483-1.61c-.199.2.025.561.07.809.09.304.266.65.113.96-.223.243-.727.11-.727-.253-.146-1.002-.177-2.018-.234-3.028 0-.325-.05-.661.024-.98.332-.317.824-.355 1.257-.42.418-.032.862-.108 1.265.042.153.18.512.451.413.694-.647-.051-1.313-.182-1.956-.023-.34.09-.249.539-.256.806-.035.33.128.741.52.72.439.03.887-.258 1.315-.063.367.225.016.637-.305.641-.49.11-1 .11-1.5.095zm6.319 2.773c-.121-.38-.09-.793-.114-1.189-.038-1.291.039-2.585-.022-3.875-.065-.062-.241.303-.348.398-.285.358-.651.667-1.006.936.16.157.617.342.504.586-.225.324-.608.2-.78-.098-.475-.48-.944-.968-1.435-1.433.069 1.137.15 2.276.16 3.415.01.313-.458.499-.659.265-.161-.275-.097-.614-.13-.918a66.302 66.302 0 01-.02-3.116c0-.322.365-.418.624-.357.323.102.61.34.737.66.136.184.284.66.553.512.365-.37.741-.73 1.099-1.107.173-.24.463-.422.49-.74.151-.219.688-.267.696.088.075.664.068 1.335.134 2 .053 1.029.026 2.063.136 3.088.07.27.137.607-.155.778-.116.094-.334.281-.464.107z" style="-inkscape-font-specification:Rufscript" font-size="7.685" font-weight="400" fill="#fff" font-family="Rufscript"/></svg>