<svg xmlns="http://www.w3.org/2000/svg" width="128" height="128" version="1.0"><defs><filter height="1.653" y="-.327" width="1.25" x="-.125" id="a"><feGaussianBlur stdDeviation="1.963"/></filter></defs><metadata/><path d="M80.31 109.985c-5.464.423-6.823-3.26-11.495.89-1.413 1.413-1.725 4.217-1.334 5.782 2.875 3.85 5.999 2.88 10.606 4.447 2.276.57 4.262.89 7.116.89 2.9 0 4.684 1.438 7.56 0 2.231-1.116 4.291-.772 6.227-2.224 1.512-1.134 2.226-3.124 2.668-4.892.784-3.136-1.876-3.607-3.558-4.448-2.16-1.08-5.906-.413-7.56 0-1.774.444-3.316-2.224-5.782-2.224-2 0-1.06 1.78-4.448 1.78z" fill-opacity=".728" fill-rule="evenodd" filter="url(#a)"/><path d="M45.342 2.089c-9.808 3.51-22.451.425-32.437 2.616-6.381 3.012-6.395 38.617-3.837 41.33 6.704 8.084 10.225-6.605 10.987-9.417.582 4.048-.818 7.545 3.837 9.243 6.275-.835 4.568-9.439 8.37-13.254-.731 2.509-2.846 2.238 2.965 3.663 9.426.609 13.852-5.724 13.08-13.777-.653-10.714.506-11.2-2.965-20.404z" fill="green" fill-rule="evenodd" stroke="#003200"/><path d="M80.975 79.671c-2.816-.287-5.915-1.194-8.021-3.106-.683-1.164 1.03-2.103-.131-3.147-1.24-.053-1.848.991-2.436 1.993-1.318-1.199-2.197-3.044-4.338-1.977.237 1.142 1.199 2.149 2.14 2.703-1.216-.214-3.294-1.866-2.948.63.512 1.307 1.843 1.107 3.026 1.503-1.575.496-3.657.202-1.657 1.986 1.006.402 1.865.1 2.833-.216 1.085.147 2.078.826 3.083 1.296 1.86 1.93 4.231 2.987 6.648 4.06 2.382-.955 6.648 1.762 8.97 1.042.98-.108 1.236-8.634 2.118-8.981 1.305-2.141-2.027-1.992-3.891-3.637-2.506-2.02-2.929 5.951-5.396 5.851z" fill="#e9d2af" fill-rule="evenodd" stroke="#3f2d10"/><path d="M86.483 108.525L39.95 26.045c-1.65-.783-3.467-2.251-4.035 1.357l47.733 82.914c2.105.57 2.65-.429 2.836-1.791z" fill="#aa6d00" fill-rule="evenodd" stroke="#623e00"/><path d="M45.348 2.139c6.971 3.506 5.768 6.648 4.597 9.791L20.75 23.491c-3.589-3-8.377-5.522-4.895-10.264L45.348 2.14zM17.63 14.155c3.395 1.067 5.706 2.91 2.973 8.371" fill="green" fill-rule="evenodd" stroke="#003200"/><path d="M36.086 27.36c-8.131 1.311-19.734.006-17.015-8.098M49.236 12.378c-.528 4.909-1.881 9.697-9.115 13.624" fill="none" stroke="#000"/><path d="M91.472 109.562c-2.453.107-5.648-.77-8.358-.066-.662.536-1.033 1.345-1.488 2.057-.368 1.053-.083 1.967.352 2.94 1.613 1.72 4.108 2.181 6.304 2.777 1.8.788 5.367 2.241 7.247 1.482 2.76-.87 3.467-3.574 2.961-6.155-2.379-.929-4.716-1.93-7.018-3.035z" fill="#e6e6e6" fill-rule="evenodd" stroke="#333"/><path d="M81.95 112.564c2.218 1.607 5.826 3.48 8.057 3.565 2.416.705 4.875 1.986 7.965.664" fill="none" stroke="#333"/><path d="M81.63 109.776c-2.452.107-5.647-.77-8.356-.066-.663.536-1.034 1.346-1.49 2.057-.367 1.053-.082 1.967.353 2.941 1.613 1.718 4.108 2.18 6.305 2.776 1.8.788 5.366 2.241 7.247 1.482 2.76-.87 3.466-3.574 2.96-6.155-2.379-.928-4.716-1.93-7.018-3.035z" fill="#e6e6e6" fill-rule="evenodd" stroke="#333"/><path d="M99.914 67.52c2.31 2.396 3.848 5.118 4.84 8.246 1.24 2.208-4.206 11.42-3.931 13.988-3.395.641-.114-7.28-3.48-6.817-1.542-4.097-1.278-8.591-1.362-12.907" fill="#6c5353" fill-rule="evenodd" stroke="#241c1c"/><path d="M81.216 94.204c-.125.668-.762 2.401-.535 3.535.174.87.434 1.74.642 2.57.443 2.181-.382 4.27-.535 6.427.44 1.892-.117 4.882 1.176 6.212 2.251 1.703 5.704 1.624 6.953-.536-.214-.857-.051-1.369-.428-2.249-1.1-2.347-.579-5.024-.214-7.497.05-3.248.657-6.389.535-9.64-1.854-.686-6.424-.19-7.594 1.178zM90.736 94.097c-.125.668-.762 2.401-.535 3.535.807 2.395.919 4.632.32 7.069.014 2.39-.746 6.383.963 8.14 2.435.966 4.883 1.581 6.953-.536-1.066-3.3-1.15-6.309-.642-9.746.025-3.257.658-6.366.535-9.64-1.854-.686-6.424-.19-7.594 1.178z" fill="#00325c" fill-rule="evenodd" stroke="#00192e"/><path d="M101.673 96.905c-2.4-2.966.323-6.98.629-10.376 1.834-2.803.762-9.132-.292-13.455-.398-2.661-1.28-5.057-2.616-7.378-1.527-2.067-3.566-3.244-6.158-3.376-3.325.487-6.682.038-9.984.757-2.436 1.062-4.116 2.82-4.387 5.453-.117 2.377.042 4.519-1.059 6.665-.33 3.814.117 7.9.653 11.726.765 4.45-2.853 6.062-2.36 10.5 3.834-2.198 8.805 1.116 13.16.627 3.652-1.307 10.148 1.63 12.414-1.143z" fill="#6c5353" fill-rule="evenodd" stroke="#241c1c"/><path d="M72.58 80.284c-2.457-1.407-4.92-3.497-6.07-6.1-.151-1.342 1.795-1.504 1.158-2.93-1.11-.552-2.09.154-3.035.83-.718-1.63-.772-3.674-3.162-3.57-.246 1.14.224 2.451.86 3.34-1.025-.69-2.254-3.045-2.95-.624-.062 1.403 1.235 1.761 2.155 2.605-1.64-.187-3.423-1.303-2.32 1.14.756.777 1.664.85 2.677.955.932.577 1.564 1.6 2.291 2.439.916 2.52 2.654 4.45 4.428 6.414 2.564.097 3.774 3.14 6.187 3.426.94.3 6.262-5.255 7.209-5.213 2.061-1.426-1.088-3.602-2.124-5.863-1.47-2.866-5.09 4.246-7.304 3.151z" fill="#e9d2af" fill-rule="evenodd" stroke="#3f2d10"/><path d="M79.961 67.366c-1.492 1.587-2.55 3.365-3.531 5.284-1.11 1.856-2.527 3.448-4.06 4.952 2.768 2.334 6.525 4.068 9.83 5.88 1.017-1.502 1.934-3.06 2.982-4.546 1.298-2.041.99-4.345 1.737-6.5.4-2.139-.187-3.96-2.143-5.079" fill="#6c5353" fill-rule="evenodd" stroke="#241c1c"/><path d="M95.548 64.873c-1.488 3.928-8.858 2.633-11.471-1.105 1.042-2.123 1.78-4.672 4.065-5.784 1.94-.222 3.822.318 5.669.857 1.487 1.162 2.07 4.54 1.737 6.032z" fill="#e9d2af" fill-rule="evenodd" stroke="#3f2d10"/><path d="M93.475 25.828c3.81.052 7.717 1.5 9.2 5.329 1.309 4.307 3.57 8.717 3.048 13.334-1.467 4.834-2.67 10.362-6.659 13.63-2.785 2.6-7.782 3.863-11.499 3.936-4.186-.935-7.107-3.245-8.183-7.578-.775-2.568-.345-4.64-.08-7.096-.974.623-2.076.887-3.423.616-2.373-1.114-1.662-2.654.134-4.177.825-.115 1.866-.052 2.888-.214-.315-1.458-.615-3.039-.615-4.044.12-7.684 3.652-13.6 12.595-13.548.836-.124 1.715-.2 2.594-.188z" fill="#e9d2af" fill-rule="evenodd" stroke="#3f2d10"/><path d="M79.97 37.198c2.013.453 2.959 1.993 2.566 4.284-2.325 4.3-6.747-1.886-2.567-4.284z" fill="#fff" fill-rule="evenodd" stroke="#333"/><g fill="#e9d2af" fill-rule="evenodd" stroke="#3f2d10" stroke-width="1.303"><path d="M192.158-132.543c5.863-2.33 4.83 6.354.5 5.5M193.283-131.168c.851-1.493 3.092 1.18 0 2.625" transform="matrix(.68474 .05729 -.07125 .85388 -53.738 146.111)"/></g><path d="M79.228 38.342c-.391-.812 1.863-.16 1.284 1.714-.4 1.294-1.819.498-1.926.429-1.438-.93-.275-3.301.642-2.143z" fill-rule="evenodd" stroke="#000"/><path d="M79.676 31.237c2.295.64 4.865-1.47 5.563 1.071.958 2 2.178 3.01.855 5.141-.83 1.39-.334 5.35-1.07 7.926.32.32 4.413-2.785 4.921-2.785 1.027 2.876.34 5.885 0 8.997.16 5.106 3.691 6.578 6.632 9.211 2.809-.843 5.99-2.132 6.418-4.712 7.004-8.833 8.847-24.081-1.283-29.347-2.919-3.587-11.362-4.566-18.399-1.5-1.924 1.626-6.878 4.971-3.637 5.998z" fill="#28170b" fill-rule="evenodd" stroke="#120a04"/><path d="M71.467 112.778c2.218 1.607 5.826 3.48 8.057 3.565 2.416.705 4.875 1.986 7.966.664" fill="none" stroke="#333"/><path d="M79.564 55.887c2.31 1.87 3.74.66 5.127-.707" fill="none" stroke="#3f2d10"/></svg>