<svg xmlns="http://www.w3.org/2000/svg" width="128" height="128" version="1.0"><defs><filter id="a" x="-.051" width="1.103" y="-.147" height="1.294"><feGaussianBlur stdDeviation="2.19"/></filter></defs><metadata/><path d="M83.875 88.875c-.915.183-2.131.05-2.75.875-.425.566-1.005 1.252-1.5 1.5-3.299 1.32-8.452 4.093-10.125 7.125-.567 1.362 1.985 2.346 1.25 3.625-2.528 3.801-6.011 5.202-10.25 3.5-3.635-1.217-8.717 1.977-12.25 4.25-4.911.77-4.395 4.938-7.75 6.5-5.655-4.435-8.398-9.824-16.125-8.75-3.912.416-6.467 3.05-5.875 6.125.873 4.694 7.047 7.536 10.75 8.75 5.525 1.627 7.29 1.372 12.375-2.5 4.702 5.392 10.494 2.833 14.625.875 3.842-4.802 10.858-2.605 8.125-10.5 2.623-3.028 6.298-4.888 9.25-7.625.96-1.89 4.29-1.567 6.25-2.25.734-.184.238-3.125 1-3.125 7.023-.77 14.403 2.239 21.125-.625 1.879-1.704-1.307 1.55-.875 3.25 5.966 2.285 13.64 1.398 13.125-2.125-.187-.747-4.066-3.265-4.25-4-.102-.407-.275-1.713.375-1.875 5.348.775 7.599-.746 10.25-2.375-2.661-4.13-7.334-.334-10.75-.5-8.78-.543-17.269-1.237-26-.125zM103 90.625c.654.163.488 2.762-.125 3.375-5.932 3.55-14.248.51-21 1.125-3.024 1.004-.423-2.068.25-3.125 1.838 1.721 5.728-.748 5.625-1.5 6.673.535 8.596-.35 15.25.125z" fill-rule="evenodd" filter="url(#a)"/><path d="M83.921 6.69c-1.322 3.65-1.162 7.637-1.79 11.453-1.15 2.536 5.811 2.05 6.206-.7-.068-1.107-1.006-5.062-.782-6.097 1.865-1.492 8.174-.293 11.408.053 1.578 2.325.77 5.267 1.733 7.8 2.147.117 5.612 1.142 6.121-.898-2.253-2.777-2.943-8.952-4.575-11.693-6.201-.664-12.08-.195-18.32.081zm28.996 58.597c-2.342.685-3.897-.363-6.389-.371-.503 3.249 1.293 8.768.819 11.743-5.866-1.182-14.503.24-20.413-.17-.466-3.488 1.42-7.114.433-10.146-1.28 0-6.754-.206-7.594.504-.024-.048-.073-.025-.115.169.011-.05.788.06.834.018-.637 7.144-3.688 15.39-2.813 22.66-5.054 2.609 12.46 1.574 6.855-.477.248-3.294.807-6.602 1.376-9.867 6.82-.063 16.306-.843 22.633.066.852 2.871 1.113 5.96 1.423 9.194-7.33 2.12 14.062 2.123 7.509-.34-3.258-6.91-3.681-15.878-4.558-22.983z" fill="#502d16" fill-rule="evenodd" stroke="#28170b"/><path d="M83 6c-1.549 4.07-1.636 8.514-2.5 12.768-1.307 2.827 5.684 2.286 6.25-.78 0-1.235-.185-5.25.104-6.402 1.957-1.664 7.683-.722 10.896-.336 1.434 2.592.443 5.872 1.25 8.695 2.14.131 5.542 1.273 6.177-1-2.082-3.096-1.715-9.39-3.177-12.445-6.16-.74-12.741-.808-19-.5zm25.366 65.323c-2.384.763-3.875-.405-6.366-.414-.705 3.622.75 9.775.091 13.091-5.792-1.318-14.518.268-20.402-.19-.25-3.888 1.86-7.93 1.061-11.31-1.279 0-6.741-.23-7.625.563-.02-.055-.071-.029-.125.187.014-.055.784.068.832.02-1.08 7.965-4.641 17.156-4.216 25.26-5.215 2.91 12.362 1.756 6.884-.53.452-3.672 1.216-7.36 1.987-11 6.825-.07 16.36-.94 22.63.073.674 3.201.744 6.644.853 10.25-7.46 2.364 13.93 2.367 7.53-.378-2.83-7.703-2.698-17.702-3.134-25.622z" fill="#784421" fill-rule="evenodd" stroke="#28170b"/><path d="M72.25 17c8.201 1.771 14.98-1.812 23.086-.543 4.424 1.951 17.799-3.401 20.164.793.515 8.631 2.648 16.999 2.987 25.677 2.284 12.614 1.77 18.432 2.763 27.823-7.822.905-17.274.256-25.5 3-2.538-.01-29.45.696-30.5-1.25 1.451-6.763 1.895-13.606 2-20.5-.285-5.816.582-11.57 1.75-17.25 1.397-5.814 1.122-12.112 3.25-17.75z" fill="#f9f9f9" fill-rule="evenodd" stroke="#333"/><path d="M83.833 20.44c-2.977 2.727-3.956 6.9-5.75 10.343.07 1.45 1.768 1.88 2.875 1.25-.801 1.75.205 3.466-.407 5.25-.366 1.78 2.194 2.033 2.594 1.688-1.442 3.656-4.482 6.75-5.312 10.562 1.95 2.577 4.514-.788 6.437-1.687.248.281-2.37 3.248-2.871 4.889-.907 1.765-1.648 5.178 1.402 4.986 3.153.468 6.735-2.112 9.032-2.5-1.871 1.505-3.97 5.69-.938 7 1.991.341 4.697-1.342 5.844-1.532-1.614 1.575-4.631 4.713-2.438 6.782 3.105.708 3.08-3.922 5.25-5.125 1.57-1.256 4.408-4.256 1.938-5.875-2.787-.734-5.704 1.502-7.969 1.937 1.371-2.496 5.545-4.295 4.719-7.437-2.513-1.943-5.416 1.095-8.057 1.407-1.865.74-3.714 1.578-5.662 1.874 2.158-5.507 8.026-9.33 8.969-15.344-2.2-2.651-4.676 1.313-6.313 2.625-2.957 2.953-2.745 1.53-.792-1.363 1.681-3.51 4.576-6.39 6.355-9.637-.003-2.224-3.108-2.248-3.867-.473-1.407 1.167-3.161 3.255-4.508 3.66.135-2.35 2.527-4.042 3.469-6.25 1.314-1.212 1.782-4.408-.75-4.187-1.219-.097-3.447 3.3-2 .844.842-1.283.826-3.902-1.25-3.688z" fill="#00325c"/><path d="M78.777 39.615c-3.861 2.745-5.744 7.462-8.813 10.875-1.092 1.725 1.213 4.286 2.625 2.281 1.778-2.628.161.183.25 1.688-.53 2.845 3.5 2.27 4.5.562 1.116-.87 3.486-3.815 4-3.5-.496 2.687 3.102 2.794 4.495 1.28.767-.51.74 1.88 2.099 1.658 2.702-.02 4.42-2.831 6.75-3.97 2.537-2.403.978.629.656 2.282-.693 2.025 1.111 4.612 3.25 3.156 3.34-1.576 5.175-5.035 7.875-7.406-1.607 2.092.483 6.543 3.125 4.313 2.14-1.18 3.008-4.32 5.781-4.157 2.098-1.433-.457-5.389-2.343-3.187-1.496.468-3.344 3.824-2.375.562.826-2.335-1.853-4.204-3.625-2.375-2.925 1.856-5.495 5.91-7.625 7.5.832-1.882 1.67-5.804-1.313-6-2.937.57-5.155 2.863-7.531 4.47 1.445-2.173-1.627-3.853-3.188-2.157-.718.329-2.79 3.416-2.25 1.219.998-2.736-3.243-4.116-4.437-1.657-2.228 2.365-2.624 2.839-1-.375.786-2.015 2.242-5.685-.094-7.062-.263-.05-.55-.05-.812 0z" fill="#006ca9"/><path d="M10.469 61.438C3.058 61.337-1.584 70.39 3.78 75.844c3.99 2.308 8.5 2.563 12.938 2.969 3.036 4.494 5.794 7.252 10.656 4.124 3.267-4.208 4.502-8.466 1.906-10.78-3.674-5.503-11.304-8.235-17.312-10.563a9.237 9.237 0 00-1.5-.157zm6.656 12.187c.663 0 1.437.61 2 .75.756.19 1.438.781 2.125 1.125.373.186 1.289 1.404 1.375 1.75.159.636.374 1.122.5 1.625.207.827-.288 1-1 1-.668 0-1.505-.788-1.875-1.25.046 0-1.64-.882-3.375-1.75-.96-.48-1-1.387-1-2.25 0-.816.514-1 1.25-1z" fill="#ffa400" fill-rule="evenodd" stroke="#7e3b00"/><g stroke="#333"><path d="M50.29 109.82c2.836-.438 5.59-3.322 8.855-3.136.881.462 2.199 2.453 2.883 3.163.662 1.12.545 2.232.268 3.446-1.455 2.336-4.209 3.436-6.59 4.62-1.883 1.314-4.362 2.518-6.69 2.08-3.363-.364-4.35-2.366-6.076-5.093a117.971 117.971 0 007.35-5.08z" fill="#e6e6e6" fill-rule="evenodd"/><path d="M62.454 111.561c-1 3.148-4.776 4.411-7.474 4.98-2.562 1.442-5.005 2.521-8.872 1.84" fill="none"/></g><path d="M47.404 91.91c2.177 2.725 1.962 3.797 4.825 8.186-.519 2.545.446 4.982.625 7.5-.515 2.209.137 5.698-1.375 7.25-2.63 1.988-6.665 1.895-8.125-.625.25-1.001.06-1.598.5-2.625 1.286-2.74.677-5.864.25-8.75-.058-3.791-4.126-6.572-3.984-10.366 2.168-.801 5.916-2.166 7.284-.57z" fill="#00325c" fill-rule="evenodd" stroke="#00192e"/><g stroke="#333"><path d="M31.411 111.7c-3.03-1.13-3.537-4.785-8.87-1.857-.892.286-1.24.886-1.679 1.657-.621 2.315 3.1 6.47 6.16 7.788 2.529 1.65 5.671 2.391 8.756 2.195 1.403-1.134 2.121-3.424 3.022-5.095-2.82-.753-5.416-2.568-7.389-4.687z" fill="#e6e6e6" fill-rule="evenodd"/><path d="M20.945 111.49c2.19 3.55 4.734 5.874 7.835 7.305 2.71 1.596 5.312.54 7.342 1.65" fill="none"/></g><path d="M32.936 91.871c-.145.78-3.187 5.63-2.923 6.954.944 2.795 1.212 5.177.513 8.021-.555 2.79-2.248 7.325-.25 9.375 2.845 1.127 5.706 1.845 8.125-.625-1.246-3.852-.335-7.165.259-11.177.028-3.8 2.764-6.92 2.62-10.74-2.166-.802-6.976-3.404-8.344-1.808z" fill="#00325c" fill-rule="evenodd" stroke="#00192e"/><path d="M24.9 85.426c-3.398 6.245-9.254 4.731-9.15-2.71 2.271-1.957 2.286-8.24 4.281-10.26.64-.96 1.23-1.773 2.065-2.501 2.92-.203 4.99 1.075 5.69 3.892-.537 3.227-4.864 7.823-2.887 11.58zM56.5 83c.662 2.364 1.46 3.918 3.75 4.125 5.842 1.2 4.176-6.747 2.875-10.75-4.84-7.697-7.953.014-6.625 6.625z" fill="#e9d2af" fill-rule="evenodd" stroke="#3f2d10"/><path d="M61.922 79.765c1.566-2.418 1.727-1.148 4.255-2.54 2.796-1.768 5.563-4.333 6.77-7.428.107-1.572.702-3.034 1.372-4.73 1.268-.702-.427 1.447.711 2.186.277-.714 1.825-.461 2.376-1.2.511-.685-.006-2.43.726-2.598 1.362-.312.982 1.335 1.904.971.347 1.316-1.51 2.244-2.205 3.314 1.16-.858 3.348-3.918 3.66-2.88.146 1.632-1.725 3.242-2.755 4.273 1.906-.303 2.929-2.572 1.768.335-.843.944-.9 1.952-2.077 2.127-1.057.72-1.742 1.947-2.548 2.962-.938 2.986-2.868 5.326-4.837 7.708-3.687 4.004-7.4 6.2-12.437 4.371" fill="#e9d2af" fill-rule="evenodd" stroke="#3f2d10"/><path d="M55.71 95.851c-2.805-3.461-2.26-8.706-1.902-12.67-1.228-4.957 1.431-9.842.378-14.797-.465-3.106 2.397-5.976.836-8.684-1.784-2.413-6.292-3.536-9.32-3.69-3.887.569-7.81.044-11.668.883-2.847 1.24-7.81 2.166-8.127 5.24-.137 2.773 2.756 7.19 1.47 9.695-.387 4.452-.334 9.48.293 13.944.894 5.194-1.39 6.356-.814 11.535 4.481-2.566 8.733 2.97 13.822 2.4 4.268-1.526 12.384-.62 15.032-3.856z" fill="#1a1a1a" fill-rule="evenodd" stroke="#000"/><path d="M28.34 70.455c-1.053 3.6-1.562 6.37-2.59 10.74-4.194-.544-5.31-3.312-9.478-4.732.489-2.06 2.43-4.473 2.881-6.547.732-2.728 1.953-2.93 3.218-5.271 1.297-1.477 1.416-3.136 4.565-3.897" fill="#1a1a1a" fill-rule="evenodd" stroke="#000"/><path d="M27.14 22.542c-1.41 4.8.633 10.454 1.891 15.156-1.823 5.854.535 10.13 6.088 14.8 6.425 2.09 13.614 1.641 19.172-5.282 1.367-11.378-.052-4.471 2.534-13.976.855-12.313-3.514-20.66-15.09-19.765-8.002-.262-11.436 3.864-14.595 9.067z" fill="#e9d2af" fill-rule="evenodd" stroke="#3f2d10"/><path d="M38.488 52.518c-1.304.695-2.281 2.765-2.556 4.636 2.18 2.574 8.822 2.589 12.002.201-.625-2.688-.21-3.07-2.517-4.937M56.115 27.661c7.413-2.957 4.337 7.177.15 6.004M28.598 29.74c-7.747-1.921-3.319 7.7.669 5.967" fill="#e9d2af" fill-rule="evenodd" stroke="#3f2d10"/><path d="M53.926 71.877c.701 2.425.73 4.093.795 6.6 4.197-.51 5.304-1.484 9.483-2.87-.472-2.064-1.32-4.126-1.754-6.204-.71-2.733-2.399-3.59-3.645-5.942-1.598-1.711-4.961-4.585-6.858-6.092" fill="#1a1a1a" fill-rule="evenodd" stroke="#000"/><path d="M28.95 45.081c-1.003 2.166-.102 3.657.796 5.657 1.311 1.877 2.766 1.597 4.95 1.856 1.464-1.188 1.72-1.5 1.767-3.358-.356-2.505-.816-1.84-2.828-2.917-1.352-.347-3.285-1.238-4.685-1.238zM54.864 44.302c1.275 2.018.574 3.612-.058 5.712-1.057 2.03-2.536 1.942-4.668 2.48-1.606-.988-1.899-1.264-2.187-3.101.03-2.53.57-1.93 2.427-3.258 1.296-.519 3.098-1.652 4.486-1.833z" fill="#28170b" fill-rule="evenodd" stroke="#120a04"/><path d="M42.48 51.433c16.673-8.414 10.322-9.711 13.695-13.408 4.477-2.717 5.29-14.654.515-21.191-3.522-4.824-8.318-8.692-14.547-6.529C26.771 7.13 20.88 27.87 28.437 41.068c5.169 4.303 2.623 6.64 14.043 10.365z" fill="#28170b" fill-rule="evenodd" stroke="#120a04"/><path d="M40.653 37.438c-1.745.21 3.438 6.788 3.933 7.898.767 1.72 7.978 4.27 9.458 5.667 1.257 1.186 7.02 1.272 8.095.698 1.811-.966 4.233-.234 5.265.503 3.22 2.302.912-1.35-.046-2.64-.753-1.013-3.46-3.064-4.858-2.82-3.697.648-6.388-3.814-7.89-5.566-1.429-1.665-5.297-1.7-7.382-1.45-1.302.156-4.932-2.178-6.575-2.29z" fill="#28170b" fill-rule="evenodd" stroke="#120a04"/><path d="M75.375 66.125c.43-3.406 1.283-8.371 3.5-11.375.299-.075 1.367.496 1.625.625.12 3.441-2.025 6.215-2.625 9.5-.163.653-.417.959-.625 1.375-.302.604-1.55.119-1.875-.125z" fill="#d38d5f" fill-rule="evenodd" stroke="#502d16"/><path d="M79.272 54.349c-.71-1.752-.852-2.319 1.654-3.236.162-.384 1.281-1.333 1.313-1.748.631.587 1.33 2.02 1.55 3.148-2.345 3.032-2.839 1.918-4.517 1.836z" fill="#4d4d4d" fill-rule="evenodd" stroke="#1a1a1a"/><path style="-inkscape-font-specification:Rufscript" d="M34.564 69.54c-.124.004-.305.088-.2-.116-.005-.953-.229-1.89-.239-2.844-.012-.468-.028-.938.008-1.403.137-.254.467-.284.721-.343a8.937 8.937 0 011.606-.105c.263.147.44.413.61.655.223.34.124.793-.143 1.077-.307.396-.798.573-1.138.93-.254.208-.145.58.127.71.344.219.76.337 1.028.663.15.183.31.405.296.651-.237.153-.668.115-.837-.158-.217-.188-.403-.44-.637-.593-.25-.078-.419-.635-.706-.276-.154.248-.11.563-.134.844.03.145-.16.161-.245.238l-.117.07zm.36-2.265c.539-.303 1.112-.6 1.506-1.09.186-.203.166-.547-.081-.691-.376-.274-.87-.195-1.305-.177-.401-.053-.216.455-.21.692.062.419.059.845.09 1.266zm4.359 2.099c-.002-.66.042-1.328-.109-1.976-.082-.457-.161-.915-.24-1.372-.206-.206-.554-.157-.826-.203-.333-.017-.787-.083-.885-.465-.033-.296.474-.134.67-.206 1.065-.042 2.136-.124 3.198 0 .243.024.7.12.558.46-.188.228-.528.191-.795.204-.313.003-.626-.005-.939.011-.234.323-.064.736-.005 1.09.113.745.132 1.506.072 2.256.015.299-.182.58-.504.412-.098-.025-.2-.098-.195-.211zm3.41-1.577c-.194.195.025.55.069.792.088.298.26.637.11.94-.217.239-.711.108-.71-.247-.144-.982-.175-1.976-.23-2.966 0-.319-.05-.648.023-.96.325-.31.808-.348 1.231-.412.41-.031.844-.105 1.239.042.15.175.502.442.405.68-.634-.05-1.286-.18-1.916-.023-.334.089-.243.528-.25.79-.035.323.125.726.509.704.43.03.869-.252 1.287-.061.36.22.016.623-.298.628-.48.108-.979.107-1.468.093zm6.19 2.716c-.119-.373-.089-.777-.112-1.164-.037-1.266.038-2.532-.021-3.796-.064-.06-.237.296-.342.39-.278.35-.637.653-.984.917.156.153.604.335.493.573-.22.318-.595.196-.763-.095-.466-.47-.926-.949-1.406-1.404.067 1.114.146 2.229.156 3.345.01.306-.448.488-.645.259-.158-.269-.095-.6-.128-.899a64.954 64.954 0 01-.019-3.051c0-.316.357-.41.61-.35.317.1.598.333.723.646.133.18.278.647.542.501.357-.362.726-.715 1.076-1.084.17-.234.454-.413.48-.725.148-.214.674-.26.682.086.073.65.066 1.308.13 1.96.053 1.007.027 2.02.134 3.024.068.265.135.594-.152.762-.113.092-.327.275-.454.105z" font-size="7.527" font-weight="400" fill="#fff" font-family="Rufscript"/><path style="text-align:end;-inkscape-font-specification:handfont" d="M109.944 34.724c-.898-.44-.16-2.043.76-1.675.972.156 1.707-1.189 1.088-1.939-.351-1.137-1-2.225-1.994-2.91-.572-.755.144-2.018 1.087-1.915 1.262-.178 2.596.577 3.081 1.758-.294 1.248-.018 2.566.522 3.708.211 1.739-1.531 3.408-3.26 3.091-.431 0-.86-.05-1.284-.118zm-25.222 9.001c.903-1.374 3.161-1.49 4.2-.217 11.426-10.053 2.187 5.62-.36 7.082-5.774 2.888-4.327-2.863-3.84-6.865zm2.352.008c-8.875 8.907 8.886 6.215 0 0zm10.146-.496c.09.056.097.06 0 0zm-1.736-1.467c.78-.461 1.907.32 1.75 1.212.224 2.093.856 4.11 1.31 6.158-.045.933-1.58 1.19-1.928.323-4.322.515-7.225 9.514-1.132-7.693zm6.295 9.662c.115-3.76 1.602-5.546-.484-9.398.422-.863 1.977-.386 1.848.564.559.764 1.992.122 1.8-.803.484-.867 2.055-.068 1.635.832-1.934 2.584-2.768 5.687-4.3 8.483-.14.142-.31.259-.5.322zm9.914-.026a5.316 5.316 0 01-3.119-1.454c.106-.913 1.543-1.206 1.998-.407.648.63 1.7.79 2.507.382-.717-2.78-4.757-3.162-2.536-6.766 1.125-.876 2.935-.64 3.797.496.087.949-1.44 1.4-1.883.555-3.625.719 1.534 3.873 2.502 5.146.335 1.207-.974 2.491-2.175 2.133-.362-.044-.725-.125-1.091-.085z" font-size="13.26" font-weight="400" text-anchor="end" fill="red" font-family="handfont"/><path d="M4.125 69.5c-1.593.575-1.036 1.86-.5 3.125.634 1.542 1.716 1.623 3.125 1.125.916-.962.637-2.268.5-3.5-.874-1.253-1.763-1.202-3.125-.75z" fill="#0f0" fill-rule="evenodd" stroke="green"/><path d="M6.625 65.375c.545 2.22 1.876 3.284 4.25 2.875.916-.962.637-2.268.5-3.5-1.45-1.6-4.028-1.268-4.75.625z" fill="#00f" fill-rule="evenodd" stroke="navy"/><path d="M14.75 64.75c-1.858 1.233-.753 3.468.75 4.5 2.551.257 3.216-1.058 3-3-.874-1.253-2.388-1.952-3.75-1.5zM82 50.5c-1.098 1.217-.368 2.248.5 3.375.788 1.054.625 2.254.625 3.5 1.388-.877 1.863-1.828 2.125-3.375.349-2.228-1.334-3.329-3.25-3.5z" fill="red" fill-rule="evenodd" stroke="maroon"/></svg>