<svg xmlns="http://www.w3.org/2000/svg" width="128" height="128" version="1.0"><defs><filter id="a" x="-.125" width="1.25" y="-.327" height="1.653"><feGaussianBlur stdDeviation="1.963"/></filter></defs><metadata/><path d="M52.021 113.306c-5.464.422-6.823-3.26-11.495.89-1.413 1.412-1.725 4.216-1.334 5.78 2.875 3.852 5.999 2.88 10.605 4.448 2.277.57 4.263.89 7.117.89 2.9 0 4.684 1.438 7.56 0 2.231-1.116 4.291-.772 6.227-2.224 1.512-1.134 2.226-3.124 2.668-4.892.784-3.135-1.876-3.607-3.558-4.448-2.16-1.08-5.906-.413-7.56 0-1.774.444-3.316-2.223-5.782-2.223-2 0-1.06 1.779-4.448 1.779z" fill-opacity=".728" fill-rule="evenodd" filter="url(#a)"/><path d="M42.24 117.526l-.89 1.781 1.644.617.411-1.233 1.096.342v1.165l1.37.205.137-1.027 1.096.205v1.165l1.508-.069.068-1.096 1.644.137v.822l2.398-.068.137-2.466-10.276-.48h-.342z" fill="#2b1100" fill-rule="evenodd" stroke="#000" stroke-width=".9998145"/><path d="M68.341 44.43c5.888-1.172 12.985 1.427 16.441 6.303 4.657 4.292 4.99 10.048 4.933 16.168-.552 5.854-.064 11.681-.548 17.537-2.358 5.71-11.002 8.333-16.442 6.576C65.953 83.63 58.336 63.41 57.38 52.926c-.793-5.609 6.694-6.399 10.961-8.495z" fill="green" fill-rule="evenodd" stroke="#002600" stroke-width=".9998145"/><path d="M50.646 88.701c-.143.764-.873 2.748-.613 4.046.925 2.741 1.053 5.302.367 8.092.016 2.736-.855 7.306 1.104 9.317 2.79 1.106 5.597 1.81 7.969-.613-1.222-3.778-1.318-7.222-.736-11.156.029-3.728.754-7.288.613-11.034-2.125-.786-7.362-.217-8.704 1.348z" fill="#00325c" fill-rule="evenodd" stroke="#00192e" stroke-width=".9998145"/><path d="M50.706 110.029c-3.115.612-5.678 1.197-8.323 3.12-.589.706-.562 1.386-.52 2.255.233.75.5 1.483.693 2.254 2.7.252 5.682 1.869 8.5.961 2.961.038 5.954-.999 8.405-2.782.567-1.677.027-7.238-.104-9.096-1.783.56-7.722-1.956-9.165-.461-.61.63 1.468 3.998.514 3.749z" fill="#520" fill-rule="evenodd" stroke="#2b1100" stroke-width=".9998145"/><path d="M61.557 88.824c-.142.764-.872 2.748-.613 4.046.2.997.498 1.992.736 2.942.509 2.496-.437 4.887-.613 7.356.505 2.166-.134 5.589 1.348 7.11 2.58 1.95 6.537 1.86 7.97-.612-.246-.982-.06-1.567-.491-2.575-1.261-2.686-.664-5.751-.245-8.582.056-3.718.753-7.313.613-11.034-2.126-.785-7.363-.217-8.705 1.349z" fill="#00325c" fill-rule="evenodd" stroke="#00192e" stroke-width=".9998145"/><path d="M52.878 118.725l-1.26 1.937 1.55 1.841.679-1.647 1.26.678-.194 1.357 1.55.097.29-1.454 1.55.194.291 1.066h2.035l.193-1.453 1.55.096.291 1.163 1.647-.29-.097-1.55 1.357-.388.678 1.26 1.453-.388-.388-1.357 1.454-.775.581 1.066 1.356-1.066-.968-1.26 1.55-.677-.872-2.422-17.536 3.972z" fill="#2b1100" fill-rule="evenodd" stroke="#000" stroke-width=".9998145"/><path d="M61.715 110.549c-2.482 1.326-6.217 2.005-8.669 4.074-.419.882-.402 1.902-.52 2.861.141 1.27.888 2.072 1.82 2.861 2.518.974 5.325.214 7.89-.26 2.25-.079 4.904-.595 6.472-2.31 1.349-1.262 1.778-3.657 1.85-6.076.057-1.925-.386-3.935-.498-5.333-1.807 1.175-6.786-.922-8.61.269-.912.596 1.242 3.914.265 3.914z" fill="#520" fill-rule="evenodd" stroke="#2b1100" stroke-width=".9998145"/><path d="M43.78 72.395c-.747 1.165-.804 2.35-.736 3.678-.286 2.736 1.093 5.325.246 7.97-.763 1.61-1.221 2.66-2.575 3.8-1.487.066-2.568.818-2.942 2.084.869.877 2.11.577 3.31.49.356 1.335-1.59 3.074-1.717 4.66 1.743 2.082 3.203-1.366 3.31-2.943.208 1.517-.64 3.985-.49 5.027 1.998.391 2.688-2.956 2.697-4.66-.04 1.868-.97 3.738 1.226 3.679 1.508-1.11 1.149-3.178 1.35-4.904.591-2.721 1.693-5.298 1.96-8.092-.296-4.1 1.672-9.194-.122-12.996-2.638-1.323-3.557 1.13-5.517 2.207z" fill="#e9d2af" fill-rule="evenodd" stroke="#3f2d10" stroke-width=".9998145"/><path d="M50.332 56.649c-2.648 2.742-4.41 5.858-5.549 9.439-1.421 2.526-2.877 4.776-3.192 7.714 3.89.734 7.83-.037 11.688.493 1.766-4.689 1.464-9.834 1.56-14.774" fill="#3d6348" fill-rule="evenodd" stroke="#29432f" stroke-width=".9998145"/><path d="M75.077 91.915c-2.751-3.395-.856-8.48-.505-12.367-1.205-4.862 1.924-10.051.892-14.911-.457-3.047-1.468-5.79-2.999-8.445-1.75-2.367-4.087-3.714-7.058-3.866-3.811.559-7.658.044-11.443.867-2.793 1.215-4.717 3.228-5.028 6.242-.135 2.72.048 5.172-1.214 7.629-.38 4.366-1.828 8.799-1.214 13.177.878 5.094-1.308 7.185-.744 12.265 4.396-2.517 10.093 1.277 15.084.718 4.187-1.497 11.632 1.865 14.23-1.31z" fill="#3d6348" fill-rule="evenodd" stroke="#29432f" stroke-width=".9998145"/><path d="M41.292 80.59l4.577-2.316 5.679 1.39-3.071 2.896-7.185-1.97z" fill="#4d4d4d" fill-rule="evenodd" stroke="#1a1a1a" stroke-width=".9998145"/><path d="M50.273 79.49l3.883-2.663 4.23 1.1 1.274 3.996 2.434.52-.29 12.51-2.955 1.273-8.576-16.735z" fill="#4d4d4d" fill-rule="evenodd" stroke="#1a1a1a" stroke-width=".9998145"/><path d="M41.355 80.72l6.708 1.694 2.415-2.911 4.673 1.238.806 4.234L58.942 86l-.338 10.233-17.209-4.259-.04-11.253z" fill="#4d4d4d" fill-rule="evenodd" stroke="#1a1a1a" stroke-width=".9998145"/><path d="M44.015 86.671l6.664-1.969c2.019.325 6.857 5.402 4.346 9.613l-8.576 2.954c-5.75-.3-7.91-8.706-2.434-10.598z" fill="#4d4d4d" fill-rule="evenodd" stroke="#1a1a1a" stroke-width=".9998145"/><path d="M44.247 87.54c-3.975.528-4.103 7.756 1.97 9.265 3.935-.423 3.507-9.342-1.97-9.265z" fill-rule="evenodd"/><path d="M44.826 86.208c5.73 1.306 6.538 7.582 3.825 10.424l4.577-1.796c1.644-2.967-.75-8.668-4.577-9.96l-3.825 1.332z" fill="#333" fill-rule="evenodd" stroke="#1a1a1a" stroke-width=".9998145"/><path d="M55.083 80.649l3.187-2.722M56.242 84.934l3.476-3.011M62.21 82.618l-3.36 3.243" fill="none" stroke="#1a1a1a" stroke-width=".9998145"/><path d="M50.853 80.36l-1.565 2.142 5.62 1.795-.289-2.78-3.766-1.158z" fill="#ccc" fill-rule="evenodd" stroke="gray" stroke-width=".9998145"/><path d="M44.537 87.927c-2.521 1.11-5.168 5.915 1.39 7.91 3.935-.424-4.922-1.883-1.39-7.91z" fill="#e6e6e6" fill-rule="evenodd"/><path d="M58.691 83.363c3.242-9.646 6.165-19.532 7.363-30.711l1.356-.388c-1.06 8.22-1.641 15.689-6.684 30.13l-2.035.97z" fill="#1a1a1a" fill-rule="evenodd" stroke="#000" stroke-width=".9998145"/><path d="M69.741 77.869c-2.46 2.114-3.698 3.237-6.948 3.481-1.505-.35-.932-2.514-2.715-2.372-1.022.987-.636 2.316-.269 3.596-2.035.15-4.26-.575-5.064 2.046 1.134.703 2.73.697 3.932.352-1.138.842-4.15 1.266-1.804 2.946 1.489.605 2.373-.659 3.635-1.33-.83 1.701-2.718 3.199.34 2.944 1.129-.52 1.557-1.472 2.058-2.526.98-.785 2.326-1.076 3.51-1.54 3.07-.023 5.818-1.16 8.617-2.324 1.088-2.732 4.834-2.873 6.07-5.37.683-.9-1.94-6.367-1.531-7.373-.747-2.773-7.008-.36-9.844-.107-3.655.489 2.044 5.605.013 7.577z" fill="#e9d2af" fill-rule="evenodd" stroke="#3f2d10" stroke-width=".9998145"/><path d="M65.931 61.588c.126 2.492.754 4.777 1.56 7.108.652 2.388.842 4.823.867 7.282 4.124-.437 8.538-2.17 12.657-3.467-.432-2.03-.991-4.024-1.387-6.069-.655-2.691-2.8-4.263-3.987-6.588-1.45-2.027-3.419-2.984-5.896-2.254" fill="#3d6348" fill-rule="evenodd" stroke="#29432f" stroke-width=".9998145"/><path d="M55.994 10.766c-10.25-.06-14.305 6.703-14.442 15.5 0 1.84.85 5.462 1.307 7.286-.213 3.591-1.102 6.305-.042 9.81 1.232 4.96 4.564 7.6 9.362 8.67 4.26-.084 9.985-1.53 13.177-4.508 4.572-3.74 5.948-10.071 7.63-15.605.597-5.285-1.967-10.327-3.468-15.257-2.09-5.395-8.413-6.65-13.524-5.896z" fill="#e9d2af" fill-rule="evenodd" stroke="#3f2d10" stroke-width=".9998145"/><path d="M42.817 17.702c-.633-9.673 25.75-12.867 27.128-5.22 7.411.57 7.449 19.556 5.608 26.089-7.646-.078-3.67-8.936-8.116-11.16-1.894-.473-2.527.979-4.161 1.387-3.462-2.225.04-9.07-5.548-11.443-2.729 1.103-6.187 2.804-9.016 0-2.419 0-3.836 1.17-5.895.347z" fill="#28170b" fill-rule="evenodd" stroke="#120a04" stroke-width=".9998145"/><path d="M74.45 37.2c-1.548 0 1.12 5.515 1.388 6.588.416 1.662 3.425 4.104 4.508 5.548.92 1.227 4.874.062 5.895-.347 1.718-.687 3.718.25 4.508 1.04 2.466 2.467.991-1.138.347-2.427-.507-1.012-2.82-2.374-3.815-3.12-1.691-1.27-2.036-2.73-3.467-4.162-1.367-1.366-3.004-1.387-4.855-1.387-1.157 0-3.094-1.45-4.508-1.734z" fill="#28170b" fill-rule="evenodd" stroke="#120a04" stroke-width=".9998145"/><path d="M53.289 55.249c1.705 4.496 10.153 3.014 13.148-1.265-1.195-2.43-2.041-5.348-4.66-6.62-2.223-.254-4.38.364-6.497.98-1.705 1.33-2.373 5.197-1.991 6.905z" fill="#e9d2af" fill-rule="evenodd" stroke="#3f2d10" stroke-width=".9998145"/><path d="M41.66 49.592c.642 1.287 1.95 2.085 3.585 2.085 2.576.742 5.069 1.898 7.632 2.789 3.366.865 5.819-.853 8.306-2.79 4.192-2.167 8.535-5.856 9.41-10.696.245-2.028-.553-2.023-1.716-1.655-1.933 1.971-4.353 4.055-6.989 5.087-3.338.949-5.983 1.389-6.927-2.452-1.107-3.18-4.683-4.093-7.632-4.842-6.267-.271-7.635 7.906-5.67 12.474zm5.608-8.612c3.025-1.278 9.327 6.501 3.862 6.191-2.296-.765-2.773-2.25-4.138-.337-4.865 1.475-2.947-4.632.276-5.854z" fill="#28170b" fill-rule="evenodd" stroke="#120a04" stroke-width=".9998145"/><path d="M50.548 26.758c-1.34 2.94-.303 4.665 2.566 4.24.881.388 2.717-1.762 2.296-3.187.315-3.83-3.004-3.913-4.862-1.053zM44.663 24.796c-2.309.519-3.392 2.282-2.943 4.904 2.666 4.922 7.734-2.16 2.943-4.904z" fill="#fff" fill-rule="evenodd" stroke="#333" stroke-width=".9998145"/><path d="M48.096 28.474c-.408 2.365-2.696 3.465-3.924 4.66-.626 2.623-.25 4.505 2.698 3.922 2.06-.957 2.886-2.544 3.187-4.658M65.26 28.965c5.75-2.285 4.737 6.232.49 5.394M66.363 30.313c.835-1.464 3.033 1.158 0 2.575" fill="#e9d2af" fill-rule="evenodd" stroke="#3f2d10" stroke-width=".9998145"/><path d="M45.644 44.167c.946.402 3.628.188 5.272 0" fill="none" stroke="#3f2d10" stroke-width=".9998145"/><path d="M53.257 27.853c.38-.35-1.84-1.003-1.716.98.096 1.538 1.954 1.904 2.574 1.472 1.246-.868-.257-2.76-.858-2.452zM45.022 27.823c.449-.93-2.135-.184-1.471 1.961.458 1.481 2.084.57 2.207.49 1.648-1.064.315-3.777-.736-2.451z" fill-rule="evenodd" stroke="#000" stroke-width=".9998145"/><path d="M76.014 50.46c-8.852-1.436-17.432 9.202-8.084 23.84l.411-2.056c-5.635-12.818 1.878-21.525 9.317-18.77l-1.644-3.015zM49.023 53.748c-.11-.07-9.208 7.606-2.604 22.195l.411-2.877c-2.764-11.243 4.599-17.07 4.522-18.77l-2.33-.548z" fill="green" fill-rule="evenodd" stroke="#002600" stroke-width=".9998145"/><path d="M79.85 67.312l5.617-1.233.686 17.126-6.166.685-.274-4.11M76.562 58.954c4.424.873 8.542-.4 12.605-2.055" fill="none" stroke="#002600" stroke-width=".9998145"/><path d="M42.415 79.875c-1.42-9.539 3.664-17.777 8.526-26.06l1.55.678c-4.643 7.941-10.789 15.733-8.041 24.414l-2.035.968z" fill="#1a1a1a" fill-rule="evenodd" stroke="#000" stroke-width=".9998145"/><path d="M63.535 107.244l-1.308 1.308 1.744.146M63.777 108.794l-1.308 1.308 1.744.146M52.248 106.372l-1.307 1.308 1.743.146M52.975 108.262l-1.308 1.307 1.744.146" fill="none" stroke="#2b1100" stroke-width=".9998145"/></svg>