<?xml version="1.0" encoding="UTF-8"?>
<svg width="128" height="128" version="1.0" xmlns="http://www.w3.org/2000/svg">
 <defs>
  <filter id="a" x="-.125" y="-.327" width="1.25" height="1.653">
   <feGaussianBlur stdDeviation="1.963"/>
  </filter>
 </defs>
 <path d="M24.534 2.831c6.229 10.982 16.974 15.906 29.192 16.447 9.525 0 18.278 1.241 27.898-1.06 7.835-1.399 16.488-5.14 21.062-11.938-1.344 4.222-2.176 9.917-1.293 14.855-1.49 5.995 2.513 4.914 4.546 10.734-7.933 4.473-16.377 11.37-24.341 11.375-12.006 1.566-23.13 2.794-37.858-.26-12.012-2.833-25.641-9.593-33.008-18.932 2.347-1.582 9.918-8.336 10.846-11.936.848-3.156 1.441-6.375 2.956-9.285z" fill="#ffcb6c" fill-rule="evenodd" stroke="#9e6400"/>
 <path transform="matrix(.96433 0 0 .96438 -6.216 3.94)" d="M82.445 112.733c-1.872.606-6.114-.639-8.895-1.334-2.357-.59-4.728 1.17-5.782 2.224-1.414 1.413-1.726 4.217-1.335 5.782.832 3.327 5.383 3.104 7.561 2.668 2.008-.401 4.245 1.284 6.227 1.78 2.276.568 8.513-.361 11.366-.361 2.9 0 11.184 2.688 14.06 1.25 2.232-1.116 4.291-.772 6.227-2.224 1.513-1.134 2.227-3.124 2.669-4.892.784-3.136-1.877-3.607-3.558-4.448-2.161-1.08-5.907-.414-7.561 0-1.773.443-14.066-2.224-16.532-2.224-2 0-1.06 1.78-4.447 1.78z" fill-opacity=".728" fill-rule="evenodd" filter="url(#a)"/>
 <g stroke="#333" stroke-width="1.037">
  <path transform="matrix(.69804 -.66537 .66534 .69807 -180.08 222.65)" d="M282.9 109.142c2.356 1.638 6.339 1.45 8.575 3.839.318.942-.101 3.292-.096 4.278-.294 1.268-1.146 1.992-2.184 2.68-2.665.686-5.417-.417-7.957-1.203-2.27-.348-4.895-1.187-6.278-3.111-2.183-2.583-1.516-4.713-.884-7.877 2.929.571 5.862 1.045 8.825 1.394z" fill="#e6e6e6" fill-rule="evenodd"/>
  <path transform="matrix(.69804 -.66537 .66534 .69807 -180.08 222.65)" d="m290.5 118.79c-2.895 1.588-6.5-0.103-8.845-1.552-2.85-0.724-5.362-1.628-7.692-4.79" fill="none"/>
 </g>
 <path d="M87.232 93.332c2.1 2.628 1.892 3.662 4.653 7.894-.5 2.455.43 4.805.602 7.233-.496 2.13.132 5.495-1.326 6.992-2.536 1.917-6.427 1.827-7.835-.603.242-.965.058-1.54.482-2.531 1.24-2.642.653-5.655.241-8.439-.055-3.655-3.979-6.338-3.841-9.996 2.09-.773 5.705-2.089 7.024-.55z" fill="#00325c" fill-rule="evenodd" stroke="#00192e"/>
 <g stroke="#333" stroke-width="1.037">
  <path transform="matrix(.81434 .51653 -.5165 .81439 -83.434 -113.01)" d="M260.462 110.091c-3.165.668-5.55-2.146-8.486 3.182-.6.719-.573 1.413-.53 2.298.716 2.288 6.082 3.804 9.374 3.278 3.018.039 6.07-1.018 8.569-2.836.577-1.71-.042-4.027-.177-5.922-2.784.875-5.949.733-8.75 0z" fill="#e6e6e6" fill-rule="evenodd"/>
  <path transform="matrix(.81434 .51653 -.5165 .81439 -83.434 -113.01)" d="m251.51 115.52c3.75 1.826 7.145 2.426 10.53 1.973 3.144-0.104 4.775-2.39 7.084-2.539" fill="none"/>
 </g>
 <path d="M73.28 92.057c-.14.751-3.074 5.43-2.819 6.706.91 2.695 1.169 4.993.494 7.736-.534 2.69-2.167 7.063-.24 9.04 2.743 1.087 5.502 1.78 7.835-.602-1.202-3.715-.323-6.91.25-10.779.027-3.665 2.665-6.674 2.527-10.358-2.09-.773-6.728-3.282-8.047-1.743z" fill="#00325c" fill-rule="evenodd" stroke="#00192e"/>
 <path d="M56.987 72.15c.058-3.188 1.126-8.117 3.073-10.662 1.241-.876 2.455.96 3.517-.442-.056-1.396-1.285-1.982-2.464-2.549 1.221-1.592 3.208-2.751 1.81-5.056-1.258.372-2.297 1.547-2.83 2.656.126-1.386 1.784-3.874-.983-3.251-1.418.697-1.068 2.173-1.402 3.538-.704-1.722-.57-4.087-2.383-1.675-.356 1.168.063 2.105.509 3.162-.064 1.233-.732 2.412-1.165 3.584-1.99 2.269-2.954 5.031-3.93 7.846 1.294 2.586-1.053 5.428-.028 7.968.213 1.092.437 2.035.909 2.993 2.523 1.265 9.272 2.602 10.942.354 2.145-3.124 1.059-12.606-5.575-8.465z" fill="#e9d2af" fill-rule="evenodd" stroke="#3f2d10"/>
 <g fill="#666" fill-rule="evenodd" stroke="#333" stroke-width="1.037">
  <path transform="matrix(-.4771 -.83809 -.83804 .47712 248.64 160.15)" d="M184 64.5c2.137.356 3.486 2.81 6.25 2-.836-2.011-1.958-3.258-4-4-1.667-.417-1.677.855-2.25 2z"/>
  <path transform="matrix(-.4771 -.83809 -.83804 .47712 248.64 160.15)" d="M186.25 59.875c1.734 0-3.475 1.449-4.25 3-1.042 2.084-.401 2.12 1.5 2.5 2.959.424 4.163-1.624 5.25-4 .576-1.152-1.752-1.313-2.5-1.5z"/>
 </g>
 <path d="M99.782 50.135c1.089-2.998 1.686-6.587.78-9.66-.845-1.263-2.635.016-3.125-1.673.553-1.283 1.91-1.39 3.213-1.497-.57-1.924-2.01-3.718.121-5.37 1.042.799 1.591 2.268 1.692 3.494.378-1.339-.279-4.256 2.082-2.683 1.074 1.159.219 2.411.041 3.806 1.275-1.356 1.996-3.613 2.825-.71-.085 1.217-.812 1.942-1.608 2.77-.381 1.173-.18 2.513-.195 3.762 1.046 2.832.955 5.756.859 8.734-2.134 1.95-.239 6.168-2.105 8.173-.59 1.184-1.86 3.19-2.644 3.915-2.81.277-4.84-3.067-5.594-5.763-.821-3.531 2.55-4.745 3.658-7.298z" fill="#e9d2af" fill-rule="evenodd" stroke="#3f2d10"/>
 <path d="M95.242 95.895c-2.705-3.338-2.18-8.396-1.835-12.218-1.184-4.78 1.38-9.492.365-14.27-.449-2.996 2.311-5.763.806-8.375-1.72-2.327-6.068-3.41-8.988-3.56-3.748.55-7.53.044-11.252.853-2.745 1.195-7.53 2.089-7.836 5.052-.133 2.676 2.657 6.936 1.417 9.351-.373 4.293-.322 9.142.283 13.447.862 5.009-1.34 6.13-.786 11.124 4.322-2.474 8.422 2.864 13.33 2.315 4.116-1.471 11.942-.598 14.496-3.719z" fill="#1a1a1a" fill-rule="evenodd" stroke="#000"/>
 <path d="M69.026 70.205c-2.343 2.756-1.712 6.923-4.337 10.365-3.477-2.129-5.54-6.934-8.65-9.824 1.24-1.621 3.898-2.982 5.112-4.63 1.717-2.114 2.872-1.81 4.907-3.375 1.723-.79 2.481-2.204 5.552-1.634" fill="#1a1a1a" fill-rule="evenodd" stroke="#000"/>
 <path d="M67.69 25.198c-1.359 4.63.611 10.081 1.824 14.616-1.758 5.645.516 9.77 5.87 14.273 6.197 2.014 13.13 1.582 18.49-5.095 1.317-10.972-.052-4.312 2.442-13.477.825-11.875-3.388-19.925-14.551-19.062-7.716-.253-11.028 3.727-14.075 8.745z" fill="#e9d2af" fill-rule="evenodd" stroke="#3f2d10"/>
 <path d="M78.633 54.106c-1.256.67-2.2 2.667-2.464 4.47 2.102 2.482 8.507 2.497 11.574.195-.603-2.593-.203-2.96-2.427-4.762M95.632 30.135c7.149-2.852 4.182 6.92.145 5.789M69.097 32.138c-7.47-1.852-3.201 7.427.644 5.756" fill="#e9d2af" fill-rule="evenodd" stroke="#3f2d10"/>
 <path d="M91.795 60.007c.538-2.373 3.124-3.257 3.044-5.674 4.07.254 6.636 5.95 10.738 7.05-2.746 3.132-3.67 4.644-5.718 8.38-1.441 1.738-5.723 5.177-7.463 6.734" fill="#1a1a1a" fill-rule="evenodd" stroke="#000"/>
 <path d="M69.436 46.934c-.968 2.089-.099 3.526.767 5.455 1.265 1.81 2.668 1.54 4.773 1.79 1.413-1.146 1.659-1.446 1.705-3.239-.344-2.416-.787-1.774-2.727-2.813-1.304-.334-3.168-1.193-4.518-1.193zM94.425 46.182c1.23 1.946.554 3.484-.055 5.51-1.02 1.957-2.446 1.871-4.502 2.391-1.548-.954-1.831-1.22-2.109-2.991.029-2.44.55-1.861 2.341-3.142 1.25-.5 2.987-1.593 4.325-1.768z" fill="#28170b" fill-rule="evenodd" stroke="#120a04"/>
 <path d="M82.483 53.06c16.078-8.115 9.954-9.366 13.207-12.93 4.318-2.621 5.1-14.133.497-20.437-3.397-4.652-8.022-8.383-14.028-6.296-14.824-3.064-20.506 16.937-13.218 29.666 4.985 4.15 2.53 6.403 13.542 9.996z" fill="#28170b" fill-rule="evenodd" stroke="#120a04"/>
 <path d="M80.721 39.563c-1.682.202 3.316 6.546 3.793 7.617.74 1.659 7.694 4.117 9.121 5.464 1.212 1.144 6.769 1.228 7.806.674 1.747-.931 4.082-.226 5.077.485 3.106 2.22.88-1.301-.044-2.546-.726-.977-3.336-2.955-4.685-2.72-3.565.625-6.16-3.677-7.609-5.367-1.377-1.606-5.107-1.64-7.118-1.399-1.256.15-4.756-2.1-6.34-2.208z" fill="#28170b" fill-rule="evenodd" stroke="#120a04"/>
 <g fill="#666" fill-rule="evenodd" stroke="#333" stroke-width="1.037">
  <path transform="matrix(.96433 0 0 .96438 -158.51 -55.41)" d="M184 64.5c2.137.356 3.486 2.81 6.25 2-.836-2.011-1.958-3.258-4-4-1.667-.417-1.677.855-2.25 2z"/>
  <path transform="matrix(.96433 0 0 .96438 -158.51 -55.41)" d="M186.25 59.875c1.734 0-3.475 1.449-4.25 3-1.042 2.084-.401 2.12 1.5 2.5 2.959.424 4.163-1.624 5.25-4 .576-1.152-1.752-1.313-2.5-1.5z"/>
  <path transform="matrix(-.96433 0 0 .96438 281.9 -51.121)" d="M184 64.5c2.137.356 3.486 2.81 6.25 2-.836-2.011-1.958-3.258-4-4-1.667-.417-1.677.855-2.25 2z"/>
  <path transform="matrix(-.96433 0 0 .96438 281.9 -51.121)" d="M186.25 59.875c1.734 0-3.475 1.449-4.25 3-1.042 2.084-.401 2.12 1.5 2.5 2.959.424 4.163-1.624 5.25-4 .576-1.152-1.752-1.313-2.5-1.5z"/>
  <path transform="matrix(.63062 -.72959 .72955 .63066 -154.22 121.48)" d="M184 64.5c2.137.356 3.486 2.81 6.25 2-.836-2.011-1.958-3.258-4-4-1.667-.417-1.677.855-2.25 2z"/>
  <path transform="matrix(.63062 -.72959 .72955 .63066 -154.22 121.48)" d="M186.25 59.875c1.734 0-3.475 1.449-4.25 3-1.042 2.084-.401 2.12 1.5 2.5 2.959.424 4.163-1.624 5.25-4 .576-1.152-1.752-1.313-2.5-1.5z"/>
 </g>
 <path d="m19.264 21.708c11.208 13.353 36.529 17.812 46.534 17.8" fill="none"/>
 <path d="M74.861 70.995c-.126.02-.303.125-.219-.095-.111-.979-.445-1.917-.562-2.896-.064-.478-.134-.96-.148-1.442.112-.275.448-.343.702-.432a9.247 9.247 0 011.638-.287c.287.121.497.375.699.605.268.323.216.8-.026 1.122-.271.441-.756.677-1.066 1.082-.237.243-.084.612.21.716.378.186.819.26 1.13.566.174.171.364.381.377.636-.227.183-.674.192-.878-.07-.244-.169-.463-.407-.72-.538-.265-.052-.5-.605-.756-.205-.13.272-.05.592-.043.883.047.145-.146.183-.226.271l-.112.084zm.117-2.365c.52-.372 1.076-.74 1.426-1.288.168-.23.109-.58-.161-.701-.416-.24-.915-.104-1.36-.036-.418-.01-.171.492-.14.735.112.422.156.86.235 1.29zm4.712 1.67c-.076-.678-.105-1.37-.332-2.018-.136-.46-.268-.922-.4-1.383-.235-.188-.587-.1-.871-.116-.344.02-.818.002-.96-.38-.068-.3.471-.19.665-.285 1.088-.162 2.18-.366 3.284-.357.252-.003.732.045.624.41-.167.256-.52.256-.793.299-.321.038-.644.064-.963.116-.205.357.016.763.116 1.12.2.752.304 1.532.325 2.31.05.304-.122.616-.471.479-.104-.016-.217-.079-.224-.196zm3.327-2c-.177.235.095.583.174.84.12.284.321.604.204.92-.197.268-.72.189-.759-.176-.257-.993-.4-2.01-.566-3.021-.036-.327-.124-.66-.084-.988.3-.356.791-.448 1.22-.561.417-.078.855-.202 1.276-.095.175.163.565.398.492.652-.656.02-1.341-.04-1.97.19-.333.13-.192.57-.17.84.001.336.21.732.602.667.445-.017.865-.356 1.316-.207.394.187.085.639-.236.679-.482.164-.994.22-1.499.26zm6.66 2.099c-.163-.37-.177-.788-.244-1.184-.179-1.295-.243-2.605-.445-3.897-.072-.054-.21.331-.307.44-.248.39-.582.74-.91 1.05.186.141.647.278.571.535-.19.35-.59.267-.794-.013-.531-.432-1.057-.871-1.601-1.286.193 1.137.398 2.274.533 3.42.045.312-.405.55-.633.337-.192-.258-.165-.606-.232-.908a67.112 67.112 0 01-.36-3.133c-.036-.324.321-.46.588-.428.336.068.651.276.814.583.157.171.358.634.613.455.326-.412.666-.816.984-1.233.148-.26.42-.476.413-.799.128-.236.663-.343.71.013.147.66.213 1.335.352 1.997.167 1.03.253 2.073.475 3.092.1.265.204.596-.071.8-.106.107-.305.32-.455.159z" fill="#fff" font-family="Rufscript" font-size="12" font-weight="400"/>
</svg>
