<svg xmlns="http://www.w3.org/2000/svg" width="128" height="128" version="1.0"><defs><filter height="1.653" y="-.327" width="1.25" x="-.125" id="a"><feGaussianBlur stdDeviation="1.963"/></filter></defs><metadata/><path d="M720.31 35.985c-5.464.423-6.823-3.26-11.495.89-1.413 1.413-1.725 4.217-1.334 5.782 2.875 3.85 5.999 2.88 10.606 4.447 2.276.57 4.262.89 7.116.89 2.9 0 2.616-3.26 5.493-4.7 2.23-1.115 6.358 3.928 8.294 2.476 1.512-1.134 2.226-3.124 2.668-4.892.784-3.136-1.876-3.607-3.558-4.448-2.16-1.08-4.026 1.278-5.68 1.692-1.774.443-5.196-3.916-7.662-3.916-2 0-1.06 1.78-4.448 1.78z" fill-opacity=".728" fill-rule="evenodd" filter="url(#a)" transform="translate(-665 77)"/><path d="M55.56 109.34c-2.356 3.085-5.544 3.832-8.735 4.307-.6.719-.323.287-.28 1.173.237.764.51 1.512.706 2.298 2.752.257 5.793 1.905 8.667.98 3.018.039 6.07-1.018 8.57-2.836.577-1.71-.043-4.028-.178-5.922-2.784.875-5.948.733-8.75 0z" fill="#2b1100" fill-rule="evenodd" stroke="#0e0300"/><path d="M47.251 115.615c3.252-.556 6.502 1.578 9.887 1.124 3.144-.104 4.775-2.388 7.084-2.538" fill="none" stroke="#0e0300"/><path d="M43.922 65.651c-2.9 1.59-4.046 2.653-7.338 2.21-1.454-.791-3.22 6.671.618 4.745 3.067.625 6.982 1.906 10.019 1.337 1.661-2.495 6.186-2.582 7.945-4.811.873-.754 5.302-5.899 5.922-6.816-.16-2.923-1.683-4.82-4.566-5.166-4.872-1.597-14.15 2.152-12.6 8.501z" fill="#fca" fill-rule="evenodd" stroke="#3f2d10"/><path d="M54.989 54.728c-4.231-.643-8.776 3.279-11.846 4.89 2.018 5.587 5.79 7.285 8.973 10.292 2.786-2.328 6.558-5.342 6.432-8.946" fill="#ececec" fill-rule="evenodd" stroke="#1b2a98"/><path d="M66 45.375c-.281-.004-.564.015-.844.031-1.676.098-3.319.56-4.937 1.032-1.738 1.355-2.42 5.32-2.032 7.062-.02.055-.042.102-.062.156-.676.158-1.197.296-1.656.438.374 1.479 1.26 4.059 2.906 4.281 2.299.31 13.973-3.396 14.969-5.281-1.055-.115-2.043-.305-2.75-.938-1.212-2.472-2.09-5.426-4.75-6.718a8.43 8.43 0 00-.844-.063z" fill="#fca" fill-rule="evenodd" stroke="#3f2d10"/><path d="M74.344 53.094c-.996 1.885-12.67 5.592-14.969 5.281-1.646-.222-2.532-2.802-2.906-4.281-2.111.651-2.24 1.155-2.875 1.562-6.406 4.113 1.096 18.943-1.25 20.875 2.84 7.107 6.284 5.754 9.562 6.719l16.25-3.375c1.223-8.228 4.251-15.39 2.125-22.781-.246-4.012-3.305-3.714-5.937-4z" fill="#ececec" fill-rule="evenodd" stroke="#1b2a98"/><path d="M81.313 77.063c-8.886 3.784-23.306 7.136-28.744-.343-1.073 3.163 1.338 7.916 2.493 11.874-.546.985-1.375 2.311-1.187 3.25.943 2.795 2.074 5.28 1.375 8.125.016 2.79-2.997 7.824-1 9.875 13.367 4.089 8.567-4.225 9.5-12.375.02-2.541.353-5.004.531-7.5l.719-.031c-.131.286-.19.585-.125.906-.487 3.515 1.534 7.202 1.25 11.5 7.77 4.435 9.798-.088 8.75-4.75.044-2.875.456-5.69.594-8.531h.031l5.813-12z" fill="#00325c" fill-rule="evenodd" stroke="#00192e"/><path d="M52.281 69.25v3c5.214 4.801 14.78 2.443 21.813.625l-1.563-1.313c-6.325.12-15.861 2.087-20.25-2.312z" fill="#1b2a98" fill-rule="evenodd"/><path d="M72.881 59.47c-3.102 4.082-2.843 13.827 3.664 14.438.553 3.26.37 6.658-1.125 9.625-1.097 1.13-2.686-.507-3.5 1.125.326 1.411 1.69 1.773 3 2.125-.939 1.856-2.741 3.419-.875 5.5 1.211-.622 2.045-2.018 2.375-3.25.138 1.436-1.075 4.29 1.625 3.125 1.312-.983.673-2.42.75-3.875 1.049 1.62 1.365 4.056 2.75 1.25.14-1.259-.467-2.133-1.125-3.125-.17-1.269.284-2.598.5-3.875 1.594-2.695 4.085-5.975 4.54-9.03-1.815-2.387-.417-6.691-1.949-9.083-.176-1.29-1.71-8.803-4.505-7.825M60.952 8.135C50.5 8.074 46.367 14.97 46.227 23.938c0 1.876.868 5.568 1.332 7.428-.216 3.662-1.123 6.429-.042 10.003 1.256 5.057 4.653 7.748 9.545 8.839 4.344-.085 11.037-.506 14.292-3.542 4.66-3.813 3.582-11.698 5.297-17.34.61-5.388-.38-10.154-1.91-15.18-2.132-5.5-8.578-6.78-13.79-6.01z" fill="#fca" fill-rule="evenodd" stroke="#3f2d10"/><path d="M48.727 8.464c8.783 1.243 15.879-4.807 25.742 2.482 2.97 4.029 6.07 8.586 3.774 14.782-.35 2.437-1.591 7.66-2.708 6.817 1.243-5.037.906-5.682-2.916-7.44-1.931-.482-2.4.114-4.066.53 2.72-8.907.3-8.827-5.834-10.782-4.696-4.302-11.542-1.396-13.611-1.945-.345-.53 1.719-3.604-.38-4.444z" fill="#a05a2c" fill-rule="evenodd" stroke="#603b00"/><path d="M54.957 25.765c-1.366 2.999.133 3.431 3.058 2.998.899.395 2.765-1.973 2.335-3.427-2.218-1.437-4.264-1.176-5.393.43zM48.14 24.265c-2.354.529-2.2.5-1.741 3.174 3.336 2.809 6.626-.376 1.741-3.174z" fill="#fff" fill-rule="evenodd" stroke="#333"/><path d="M51.024 29.814c-.627 3.614-2.35 1-2.241 5.092-.119 1.963 4.059 2.19 4.366.033M70.399 26.69c5.863-2.33 4.83 6.354.5 5.5M71.524 28.064c.851-1.493 3.092 1.18 0 2.625" fill="#fca" fill-rule="evenodd" stroke="#3f2d10"/><path d="M49.649 41.94c.066-.483 4.192.295 6.413-.078" fill="none" stroke="#3f2d10"/><path d="M57.17 26.543c.387-.357-1.252-.647-1.125 1.375.099 1.567 1.743 1.065 2.375.625 1.27-.885-.637-2.313-1.25-2zM48.436 26.32c.457-.948-1.803-.937-1.125 1.25.467 1.51 2.159.619 2.25.5.93-1.21-.054-3.102-1.125-1.75z" fill-rule="evenodd" stroke="#000"/><path d="M58.5 53.625c.802.271 1.93-.109 2.125 1.375M63.5 55.375c-1.335-.386-.426-1.161 5.875-2.875" fill="none" stroke="#3f2d10"/><path d="M81 20.5c.123 1.945.858 3.93 1.875 5.625C84.832 27.182 86.785 28.431 89 29c.04-2.43-2.095-4.57-3.5-6.625-1.304-1.38-2.72-1.635-4.5-1.875z" fill="red" fill-rule="evenodd" stroke="maroon"/><path d="M75.375 20.75c.787 2.538 3.892 1.78 6.25 1.25 1.01-.337 1.625-2.085 1.625-3-.558-1.31-1.907-2.156-2.875-3.25-.688-.688-3.674 1.704-4.375 2.125" fill="red" fill-rule="evenodd" stroke="maroon"/><path d="M81.75 18c2.368-2.417 4.8-3.123 8-2.375 2.063 1.85 3.21 4.191 5.5 5.875-2.75 1.018-6.04-.962-8.75-2-1.622-.385-3.159-1.028-4.75-1.5z" fill="red" fill-rule="evenodd" stroke="maroon"/><path d="M46.75 31c.78-1.559 6.42-2.84 6-2.375-.427.473-2.125-5-2.125-5 .64-3.905 3.587-6.82 6.5-9.75-2.823 2.515-6.01 4.518-7.25 9.25h-3.75c-1.424 2.444-.946 5.099.625 7.875z" fill-rule="evenodd" stroke="#000"/><path d="M79.5 24.125c-9.915-6.52-20.766-10.608-34-8.5C45.15 4.942 57.513 6.971 66.875 6c11.564 3.56 13.9 9.285 12.625 18.125z" fill="red" fill-rule="evenodd" stroke="maroon"/><path d="M65.625 100.125c3.414 1.72 6.822 1.335 10.875.5-.422 2.502 2.693 3.942-3.75 8.25L72 118.5c-1.437 1.27-1.594.652-2.25-.125v-9c-2.347-2.214-6.65-4.295-4.125-9.25z" fill="#a05a2c" fill-rule="evenodd" stroke="#502d16"/><path d="M38.25 66.25c1.338-.294 2.485 7.133-.5 8.625-4.353 2.314-12.816-9.04.5-8.625z" fill="#999" fill-rule="evenodd" stroke="#666"/><path d="M19.844 69.5c-.868 1.715-.157 4.166 1.843 4.969l.875-.5c-1.335-1.874-1.36-2.824-.78-3.969 1.218-1.064 3.062.27 5.03.906l6.563.594c1.276-1.07.474-1.967-.188-2.875l-6.343.719c-2.404-1.467-5.082-2.242-7 .156z" fill="#999" fill-rule="evenodd" stroke="#666"/><path d="M71.75 57.375c-3.19 2.893-.916 6.828-1 10.313 5.857.99 9.192-1.459 13.375-2.75-.656-3.57-1.8-8.9-5-10.563" fill="#ececec" fill-rule="evenodd" stroke="#1b2a98"/><path d="M52.844 56.375l-1.438 3c4.884 6.124 11.375 5.126 18.563 2.688L70.344 59c-7.023 3.933-15.862 2.89-17.5-2.625zM50.906 62.563v3c5.214 4.8 13.093 4.192 20.125 2.374l-.312-1.624c-6.325.12-15.424.648-19.813-3.75zM52.781 74.813l.25 2.312c5.214 4.801 16.843 1.755 23.875-.063l-.25-1c-6.325.12-19.486 3.15-23.875-1.25zM70.335 62.942l.521 2.795c7.379.795 7.574-2.28 12.458-3.138l-.066-2.697c-3.994 3.22-8.377 5.045-12.913 3.04z" fill="#1b2a98" fill-rule="evenodd"/><path d="M71.21 57.88l-1.291 2.67c7.378.794 8.636-1.469 11.645-3.638l-1.379-1.885c-2.806 3.157-4.439 4.857-8.975 2.853zM47.702 57.012l-1.953.982c1.59 5.791 2.387 5.21 4.968 7.874l1.666-1.636c-3.53-2.322-4.447-3.505-4.68-7.22zM51.14 55.074l-1.64.358c.16 2.754 1.674 3.354 1.904 3.999l1.667-1.637c-1.643-.516-2.293-1.039-1.931-2.72z" fill="#1b2a98" fill-rule="evenodd"/></svg>