<svg xmlns="http://www.w3.org/2000/svg" width="128" height="128" version="1.0"><defs><filter id="a" x="-.125" width="1.25" y="-.327" height="1.653"><feGaussianBlur stdDeviation="1.963"/></filter></defs><metadata/><path d="M69.73 68.102c-3.18.91-6.936 1.268-10.05.11-1.245-.967.208-2.727-1.504-3.355-1.367.479-1.576 1.874-1.781 3.216-1.949-.729-3.701-2.348-5.563-.263.75 1.135 2.23 1.81 3.492 2.002-1.413.295-4.383-.596-2.927 1.96 1.122 1.194 2.48.4 3.934.318-1.494 1.22-3.88 1.803-.939 2.87 1.266 0 2.069-.7 2.982-1.462 1.242-.31 2.613-.005 3.907.07 2.853 1.286 5.884 1.404 8.972 1.519 2.172-2.067 5.702-.601 7.91-2.387 1.018-.543 1.885-1.05 2.692-1.808.49-2.886-.577-5.072-3.312-6.047-3.594-1.105-5.092 2.296-7.814 3.257z" fill="#e9d2af" fill-rule="evenodd" stroke="#3f2d10"/><path d="M25.75 108.25c-3.688 2.096-8.395.18-11 3.75-1.367 3.359.047 4.604 3.25 5.5 2.446.611 4.152 1.25 7 1.25 6.261-1.703 12.468.205 18.75.25 6.056-.736 11.98.295 18 .25 1.378 0 2.952.29 4.125-.313 2.249 1.267 4.821 1.084 8.156 2.22 2.277.568 4.24.906 7.094.906 2.9 0 4.686 1.438 7.563 0 2.23-1.116 4.282-.767 6.218-2.22 1.513-1.134 2.246-3.137 2.688-4.906.784-3.135-1.881-3.596-3.563-4.437-2.16-1.08-5.908-.414-7.562 0-1.774.443-3.316-2.25-5.781-2.25-2 0-1.05 1.781-4.438 1.781-4.798.371-6.449-2.402-9.938-.281-11.298 1.171-30.727-3.419-40.562-1.5z" fill-opacity=".728" fill-rule="evenodd" filter="url(#a)"/><path d="M24.787 116.067c5.833.887 11.871-.063 17.963-.317 7.271-.287 14.49-.918 21.75-1.25 1.909 0 2.25.175 2.25-1.75-1.868-7.676-2.892-15.209-1.47-23.146 1.128-5.674.486-11.628-1.28-17.104-3.916-1.092-5.122-4.548-9.03-5.282-4.15 0-13.725-1.11-17.626-.329-6.191.787-13.231.157-19.457-.177-2.148 0-2.604.323-1.22 1.707.618 6.464-1.292 13.227.03 20.66 2.148 7.07.098 14.542 1.16 21.75.834 2.24 5.077 4.782 6.93 5.238z" fill="#ccc" fill-rule="evenodd"/><path d="M24.787 116.067c5.833.887 11.871-.063 17.963-.317 7.271-.287 14.49-.918 21.75-1.25 1.909 0 2.25.175 2.25-1.75-1.868-7.676-2.892-15.209-1.47-23.146 1.128-5.674.486-11.628-1.28-17.104-2.291 1.033-4.247 2.577-8.154 1.843-4.15 0-12.85-1.734-16.752-.954-6.191.787-7.856.157-14.082-.177-2.148 0-1.604 2.698-.22 4.082.618 6.464-1.542 9.352-.22 16.784 2.148 7.07-.652 5.793.41 13 .834 2.24-2.048 8.533-.195 8.989z" fill="#999" fill-rule="evenodd"/><path d="M84.942 106.472c-2.719.919-6.59.976-9.401 2.648-.569.816-.722 1.844-1.002 2.79-.07 1.3.546 2.232 1.352 3.182 2.37 1.4 5.32 1.106 7.978 1.058 2.277.298 5.032.223 6.896-1.24 2.815-1.874 2.767-4.105 3.04-7.321a117.973 117.973 0 01-8.863-1.117z" fill="#e6e6e6" fill-rule="evenodd" stroke="#333"/><path d="M85.012 85.471c-.145.779-.89 2.802-.625 4.125.204 1.016.508 2.031.75 3 .52 2.545-.445 4.982-.625 7.5.516 2.209-.136 5.698 1.375 7.25 2.63 1.988 6.665 1.895 8.125-.625-.25-1.001-.06-1.598-.5-2.625-1.286-2.74-.677-5.864-.25-8.75.058-3.791 7.309-7.633 7.166-11.427-2.167-.8-14.047-.044-15.416 1.552z" fill="#00325c" fill-rule="evenodd" stroke="#00192e"/><path d="M75.062 113.072c2.976 1.176 6.268 2.075 8.818 1.526 2.94.098 5.604-.072 8.721-2.46" fill="none" stroke="#333"/><path d="M79.527 108.35c-2.621 1.167-6.47 1.583-9.115 3.508-.49.865-.548 1.903-.739 2.87.05 1.301.751 2.172 1.642 3.043 2.488 1.176 5.399.61 8.041.315 2.295.085 5.031-.245 6.752-1.875 2.63-2.126 2.374-4.343 2.349-7.57-2.984.01-5.954-.076-8.93-.29z" fill="#e6e6e6" fill-rule="evenodd" stroke="#333"/><path d="M82.538 84.764c-.146.779-4.072 4.393-3.807 5.716.203 1.016.507 2.031.75 3 .518 2.545-.446 4.982-.625 7.5.515 2.209-.137 5.698 1.375 7.25 2.63 1.988 6.664 1.895 8.125-.625-.25-1.001-.06-1.598-.5-2.625-1.286-2.74-.677-5.864-.25-8.75.057-3.791 11.02-9.224 10.878-13.018-2.168-.8-14.578-.044-15.946 1.552z" fill="#00325c" fill-rule="evenodd" stroke="#00192e"/><path d="M70.302 115.837c3.072.895 6.433 1.485 8.921.702 2.936-.175 5.573-.59 8.456-3.258" fill="none" stroke="#333"/><path d="M72.171 9.185c-10.21 2.225-12.737 9.858-10.912 18.64.41 1.83 2.064 5.244 2.925 6.957.59 3.62.309 6.519 2.145 9.77 2.332 4.66 5.525 5.797 10.537 5.791 4.22-1.033 6.256-4.088 8.768-7.762 3.714-4.74 7.72-10.26 8.158-16.14-.583-5.392-4.259-9.837-6.852-14.407-3.282-4.9-9.852-4.74-14.769-2.85z" fill="#e9d2af" fill-rule="evenodd" stroke="#3f2d10"/><path d="M62.865 30.277c-.391 2.415-2.713 3.561-3.951 4.791-.612 2.681-.209 4.596 2.79 3.972 2.09-.997 2.917-2.624 3.202-4.783" fill="#e9d2af" fill-rule="evenodd" stroke="#3f2d10"/><path d="M63.45 25.293c-.677 3.225.739 4.71 3.499 3.647.963.19 2.31-2.359 1.573-3.683-.54-3.88-3.861-3.223-5.072.036z" fill="#fff" fill-rule="evenodd" stroke="#333"/><path d="M65.275 26.714c.3-.432-2.055-.587-1.489 1.359.44 1.508 2.37 1.457 2.89.89 1.045-1.142-.871-2.688-1.4-2.249z" fill-rule="evenodd" stroke="#000"/><path d="M95.28 26.523c-1.576.104 1.51 5.536 1.854 6.61.535 1.663 3.76 3.945 4.96 5.341 1.018 1.186 4.962-.265 5.973-.749 1.701-.814 3.8.004 4.656.755 2.675 2.343.932-1.224.19-2.492-.583-.997-3.028-2.227-4.09-2.92-1.807-1.176-2.255-2.64-3.808-4-1.482-1.297-3.15-1.209-5.032-1.084-1.177.078-3.245-1.268-4.703-1.461z" fill="#28170b" fill-rule="evenodd" stroke="#120a04"/><path d="M101.632 89.29c-2.742-3.07.953-9.244-1-12.882-.438-6.1-3.192-14.01-5.049-18.723-.972-2.986-3.886-3.47-5.872-5.884-2.159-2.085-3.05-2.235-6.063-1.887-3.738 1.203-3.27.76-6.938 2.225-2.603 1.692-4.2 4.04-4.005 7.123.322 2.758.919 5.193.064 7.875.353 4.455-2.832 9.51-1.477 13.809 1.74 4.974.954 6.738 2.377 11.751 3.996-3.27 11.778-.062 16.703-1.464 3.958-2.21 9.182 1.685 11.26-1.944z" fill="#1a1a1a" fill-rule="evenodd" stroke="#000"/><path d="M75.463 53.53c1.836 4.547 11.122 2.854 14.082-1.572-2.6-2.784-2.66-6.761-4.892-7.886-2.272-.21-4.458.467-6.602 1.14-1.71 1.393-3.014 6.586-2.588 8.319z" fill="#e9d2af" fill-rule="evenodd" stroke="#3f2d10"/><path d="M91.471 32.188c-4.923.139-5.082 3.758-6.752 5.74-2.078 1.01-3.7 2.65-5.68 3.804-.894.2-1.667.407-2.485.204-2.08-.555-3.777-1.998-5.595-3.101-2.46-.55-4.182-.696-6.721-.127-1.152 1.246-2.628 1.666-.263 4.83 3.442-.677 4.75-1.775 7.13-1.341 1.888.976 2.395 3.129.52 4.463-1.678.064-3.114.639-4.389-1.002-2.595.836-1.695 2.813-.45 4.424 1.559 4.126 4.541 4.158 8.533 2.635 2.553-.913 6.062-1.23 8.275-2.75 1.867-1.857 3.039-3.425 4.15-5.83.689-3.12 2.403-5.112 3.49-7.827-.012-1.707 1.809-3.267.237-4.122zM59.897 18.276C57.111 8.793 82.647-.267 85.723 7.036c7.917-1.097 12.204 17.748 7.964 24.748-.6-.592-2.026-.271-2.461-1.293-1.835-4.316-2.908-11.685-6.59-10.15-3.576-.356-1.397 3.786-2.044 4.624-6.271-2.214-1.892-9.258-7.938-10.358-2.468 1.705-5.53 4.169-8.97 2.01-2.405.539-3.554 2.02-5.787 1.66z" fill="#28170b" fill-rule="evenodd" stroke="#120a04"/><path d="M83.619 21.105c5.212-3.556 6.103 5.144 1.69 5.257M85.017 22.2c.504-1.642 3.276.475.574 2.562" fill="#e9d2af" fill-rule="evenodd" stroke="#3f2d10"/><path d="M66.488 44.355c1.031.188 1.334-.103 2.928-.657" fill="none" stroke="#3f2d10"/><path d="M63.666 73.497c-6.165.383-12.067 1.684-18.385.53-6.393-.741-12.84-.711-19.269-1.06-.995 0-1.284.4-1.767.884 1.067 4.995.068 10.141-.177 15.203.642 4.094.91 8.23 1.06 12.374-.254 4.71-.176 9.427-.176 14.142" fill="none" stroke="#333"/><path d="M24.787 116.067c5.833.887 11.871-.063 17.963-.317 7.271-.287 14.49-.918 21.75-1.25 1.909 0 2.25.175 2.25-1.75-1.868-7.676-2.892-15.209-1.47-23.146 1.128-5.674.486-11.628-1.28-17.104-3.916-1.092-5.122-4.548-9.03-5.282-4.15 0-13.725-1.11-17.626-.329-6.191.787-13.231.157-19.457-.177-2.148 0-2.604.323-1.22 1.707.618 6.464-1.292 13.227.03 20.66 2.148 7.07.098 14.542 1.16 21.75.834 2.24 5.077 4.782 6.93 5.238z" fill="none" stroke="#333"/><path d="M77.48 74.602c-3.18.91-6.936 1.268-10.05.11-1.245-.967.208-2.727-1.504-3.355-1.367.479-1.576 1.874-1.781 3.216-1.949-.729-3.701-2.348-5.563-.263.75 1.135 2.23 1.81 3.492 2.002-1.413.295-4.383-.596-2.927 1.96 1.122 1.194 2.48.4 3.934.318-1.494 1.22-3.88 1.803-.939 2.87 1.266 0 2.069-.7 2.982-1.462 1.242-.31 2.613-.005 3.907.07 2.853 1.286 5.884 1.404 8.972 1.519 2.172-2.067 5.702-.601 7.91-2.387 1.018-.543 1.885-1.05 2.692-1.808.49-2.886-.577-5.072-3.312-6.047-3.594-1.105-5.092 2.296-7.814 3.257z" fill="#e9d2af" fill-rule="evenodd" stroke="#3f2d10"/><path d="M85.873 59.702c-1.41 2.117-2.284 4.37-3.04 6.77-.917 2.35-2.241 4.46-3.714 6.489 3.643 2.146 9.21 3.454 13.371 4.894.88-1.925 2.206-4.25 3.124-6.165 1.258-2.573 1.15-9.278-1.294-11.107" fill="#1a1a1a" fill-rule="evenodd" stroke="#000"/><path d="M16.107 66.962c5.682 4.238 2.727 3.349 8.704 7.142M36.972 73.497c-1.864.97-3.347 3.327-4.596 4.95-.455 1.404-.846 2.038-1.767 2.828M38.917 82.16c-.365 1.461-3.957 3.276-4.596 5.833-.44 1.76-2.1 3.652-3.359 4.596-1.62 1.215-2.622 2.157-4.066 3.89-.82.983-1.072 1.458-1.414 2.828-.053.212-.276.413-.354.53M64.726 92.412c-.671 2.48-1.924 4.002-3.889 5.48-1.071 1.072-1.484 2.262-2.121 3.536M59.423 108.5c-2.022.871-3.868 2.086-5.657 3.358-1.13 1.059-1.502 2.556-2.828 3.359M19.648 95.418c.134 1.339 1.292 2.193 2.298 3.005.421.21 2.893 1.993 3.006 1.768-1.173 5.383-3.654 3.72-5.48 5.126" fill="none" stroke="#333"/><path d="M37.15 73.497c-1.248.5-2.41-2.232-3.36-3.182-.972-.972-2.695-.866-4.065-1.414M16.643 74.204c.212.808 3.092 4.176 3.89 6.188M46.518 66.957c.49.98 2.336 1.628 3.36 2.651.785.786 2.207.44 2.828 1.06" fill="none" stroke="#333"/><path style="-inkscape-font-specification:Rufscript" d="M72.909 68.012c-.048-.013-.117.073-.077-.189-.002-1.307-.087-2.626-.091-3.934-.005-.642-.011-1.289.003-1.921.052-.326.178-.315.276-.356.202-.03.41.006.614.108.1.243.168.635.233.994.086.5.048 1.106-.055 1.453-.117.494-.305.659-.435 1.094-.097.246-.055.772.049.994.131.353.29.58.393 1.069.057.274.119.603.113.938-.09.172-.255.052-.32-.348-.083-.292-.154-.667-.244-.912-.095-.147-.16-.936-.27-.49-.059.316-.042.755-.05 1.137.01.203-.062.195-.095.286l-.044.077zm.137-3.045c.206-.33.426-.648.577-1.257.07-.249.063-.724-.032-.96-.143-.434-.332-.404-.499-.447-.153-.136-.082.59-.08.916.024.582.022 1.166.034 1.748zm1.668 3.56c-.001-.904.016-1.813-.042-2.724l-.092-1.918c-.079-.314-.212-.302-.316-.407-.127-.076-.3-.238-.338-.777-.013-.41.181-.109.256-.176.407.11.817.166 1.223.503.093.07.268.273.214.717-.072.283-.202.179-.304.155-.12-.045-.24-.106-.36-.133-.089.405-.024.999-.001 1.493.043 1.038.05 2.083.027 3.102.006.41-.07.766-.193.485a.567.567 0 01-.074-.32zm1.304-1.625c-.074.255.012.788.03 1.145.034.406.095.881.039 1.257-.083.292-.272.036-.272-.45-.055-1.369-.067-2.736-.088-4.1 0-.437-.019-.895.009-1.31.124-.376.309-.351.471-.372.157.021.323-.011.474.252.057.263.192.684.155.993-.243-.167-.492-.446-.733-.331-.128.07-.093.685-.096 1.043-.013.437.048 1.014.195 1.045.164.11.332-.209.492.118.138.359.006.857-.114.814-.183.072-.374-.007-.562-.104zm2.368 4.693c-.045-.53-.034-1.078-.043-1.613-.014-1.738.015-3.462-.008-5.203-.024-.092-.09.37-.13.481a6.74 6.74 0 01-.377 1.102c.062.237.227.55.189.862-.085.401-.228.175-.292-.25-.179-.718-.354-1.445-.538-2.144.025 1.536.056 3.076.06 4.607.003.42-.172.598-.247.253-.06-.393-.037-.838-.05-1.25a319.28 319.28 0 01-.006-4.184c0-.433.136-.506.233-.384.121.187.229.55.276.999.051.268.107.93.208.771.136-.44.277-.865.411-1.315.065-.295.174-.495.184-.918.057-.27.258-.251.26.225.029.903.026 1.802.05 2.704.02 1.389.01 2.772.052 4.164.026.374.051.836-.058 1.021-.043.108-.125.326-.174.072z" font-size="12" font-weight="400" fill="#fff" font-family="Rufscript"/></svg>