<?xml version="1.0" encoding="UTF-8"?>
<svg width="128" height="128" version="1.0" xmlns="http://www.w3.org/2000/svg">
 <defs>
  <filter id="a" x="-.218" y="-.508" width="1.435" height="2.016">
   <feGaussianBlur stdDeviation="3.292"/>
  </filter>
 </defs>
 <path transform="matrix(-.99316 0 0 .66843 439.25 15.743)" d="M387.141 155.605c-4.561-2.86-14.299-2.28-17.678 2.121-1.686 3.821 6.055 7.1 9.193 8.132 4.381.128 8.264.422 12.374 1.768 5.006-2.118 3.695-.917 5.657-1.768 3.629-1.613 8.29-3.741 8.839-8.132-.24-3.801-3.107-5.027-6.364-5.657-3.638 1.13-9.372.59-12.021 3.536z" fill-opacity=".778" fill-rule="evenodd" filter="url(#a)"/>
 <path d="M47.088 119.378l-2.48-2.048.862 4.852.647-.108.97-2.696zM57.114 120.025l-2.48-2.048.863 4.851.647-.107.97-2.696z" fill="#fff" fill-rule="evenodd" stroke="#6b5532" stroke-width=".9996"/>
 <path d="M42.442 93.03c-.858 1.439-1.04 2.637-.915 4.27.226 3.4 1.42 6.416 4.064 8.48-1.161 3.313-.1 6.98-.557 9.206-.219 1.09-.21 1.467.457 2.134 1.397 1.583.965 3.166 4.27 4.727.74.555 1.371.171 1.371-.61.679-3.161-1.886-4.672-1.83-7.471 1.156-2.919 1.22-6.052 1.22-9.148.27-4.662.137-9.386-1.982-13.493-1.882-2.515-5.124-.097-6.098 1.906z" fill="#f4e3d7" fill-rule="evenodd" stroke="#522f16" stroke-width=".9996"/>
 <path d="M51.184 118.624c.85 1.641.885 3.36 1.078 6.9-2.916.014-4.106-2.925-6.037-4.636-.41-.41-.81-1.842-.97-2.48-1.519-2.335-1.127-1.967-.431-2.695.462-.116-.417-5.714.107-5.714 1.954.433 4.979 6.765 6.253 8.625z" fill="#fff" fill-rule="evenodd" stroke="#6b5532" stroke-width=".9996"/>
 <path d="M53.114 93.793c-.857 1.438-1.116 2.56-.99 4.193.225 3.4 2.715 6.416 5.36 8.48-1.43 2.104-1.446 6.487-1.778 9.282-.218 1.09-.21 1.467.458 2.134 1.397 1.584 1.499 1.108 4.802 2.669.741.555 2.971.129 2.971-.653-1.909-2.621-4.018-2.57-3.962-5.37 1.156-2.918 2.211-5.06 2.211-8.157.269-4.662-3.141-9.843-5.26-13.95-1.882-2.515-2.837-.63-3.812 1.372z" fill="#f4e3d7" fill-rule="evenodd" stroke="#522f16" stroke-width=".9996"/>
 <path d="M61.747 117.582c1.596 1.383 3.847 2.917 3.834 5.782-2.648.928-4.97-2.028-7.51-3.048-.517-.26-1.67.446-2.022-.11-2.174-1.741-1.687-2.484-1.255-3.394.403-.255.255-6.125.753-6.29 1.259-.127 4.903-1.428 4.344.987-.406 1.752-.098 4.762 1.856 6.073z" fill="#fff" fill-rule="evenodd" stroke="#6b5532" stroke-width=".9996"/>
 <path d="M54.313 61.013c-.028.007-.049.02-.058.04.279 6.458 7.15 15.789 14.115 15.748 2.949-1.458 5.145-4.326 8.69-4.647a3.175 3.175 0 01-.252-.33c.184.217.393.337.564.252.844-.421 2.84-.277 2.663.156 2.836.1 8.929-.835 8.127-2.1.242-.242 1.194-1.05.311-1.05-1.972 0-4.97.21-6.921-.058.169-.942.856-3.724.622-3.403-.365.5-1.619 2.967-2.567 2.45-.599-.327-2.585.621-2.683 1.011a2.997 2.997 0 00-.408.233c.038-.199.02-.255-.272-.077-3.249.853-5.873 1.568-9.08 2.624-2.582-3.741-5.87-7.518-9.74-9.76-.312.125-2.688-1.182-3.111-1.089z" fill="#f4e3d7" fill-rule="evenodd" stroke="#522f16" stroke-width=".9996"/>
 <path d="M47.703 81.292c-.834-1.32-3.147-2.68-4.355-3.889-.968 1.717-.256.833-1.09 0-.001-.002-.814 1.363-1.866.311-.394-.394-1.16 1.017-1.555.622-1.701-1.7-3.87 3.368-4.044 3.889-.019.056.87-.206 1.4 2.177.315 1.418-.324.965 0 .156.329-.823.074 2.274.933 2.489.18.045 1.999 3.177 2.489 3.421.564.283 1.254-.158 1.866-.31.19-.048.181-.435.933-.623 1.348-.337 3.461-2.06 4.355-2.955.862-.862 1.04-1.594.778-2.644-.175-.7-.283-1.286-.466-2.022-.169-.673-.408-.88.622-.622z" fill="#fff" fill-rule="evenodd" stroke="#6b5532" stroke-width=".9996"/>
 <path d="M48.15 58.778c-1.64-.012-3.802.597-5.294 1.503-5.765 4.547-4.457 5.148-2.036 12.126.763 3.325 6.049 6.742 5.658 9.76-2.582-1.194-11.595.383-8.671 13.59l-.117 17.686c12.272 4.504 19.505.46 28.148.61 3.3-11.103-10.432-30.569-10.028-31.984.835-1.856 3.05-5.357 3.72-7.029 2.53.324 3.187-1.326 3.24-2.517-2.766-3.765-3.76-7.204-6.416-11.023-2.63-1.59-5.47-2.703-8.204-2.722z" fill="#ad8768" fill-rule="evenodd" stroke="#37291e" stroke-width=".9996"/>
 <path d="M53.496 52.648c-.05 2.213.233 4.092.973 6.211.532 1.865 4.97 3.594 5.325 8.172-1.968.585-4.45 1.117-5.373 3.89-4.964-3.73-9.285-3.368-14.748.21C35 59.843 48.015 60.476 47.23 52.61c1.555-.268 4.486-.651 6.265.037z" fill="#f4e3d7" fill-rule="evenodd" stroke="#522f16" stroke-width=".9996"/>
 <path d="M35.78 25.447s5.719-10.339 12.318-10.779c4.833-.322 13.849 8.969 12.978 7.699-.86-1.253-24.33 2.534-25.296 3.08z" fill="#b99372" fill-rule="evenodd" stroke="#755538" stroke-width=".9996"/>
 <path d="M55.324 19.077c.492-.503-1.73-6.007-1.089-2.8.142.71-.01-5.091 2.022-5.6.677-.169.716 1.42 1.4 1.556 1.708.341.294-1.417 1.711 0 .28.28.722-.613 1.089-.467 2.246.899 5.99 2.276 7.31 3.267.472.353-.311 1.874-.311 2.488 0 .204.033 1.99-.467 2.489-1.147 1.147.979 2.333-.933 2.333-3.049 0-4.355-.463-4.355 1.244 0 .529-1.082-.547-1.555-.31-1.083.54-1.921.093-2.178-.934-.133-.535-.751-.842-1.244-1.089-.141-.07-.84-1.215-.933-1.4-.136-.27-.311-.518-.467-.777zM40.237 17.366c-.501-1.296-1.379-1.062-2.8-.778-.12.024.711.622-.778.622-.377 0-.725.208-1.088.311-.106.03.299.823-2.022 1.245-.671.121-1.348.207-2.022.31-1.018.157.194 1.851.622 2.023.77.308-.201 1.683 0 2.488.37 1.483 1.09 1.4 2.333 1.4.507 0 2.48.004 3.11-.311.988-.494 1.845-1.244 3.267-1.244 1.65 0 1.934-1.38 2.489-2.489.259-.518-.826-1.904-.934-2.333-.216-.865-1.339-.741-2.177-1.244z" fill="#fff" fill-rule="evenodd" stroke="#6b5532" stroke-width=".9996"/>
 <path d="m32.46 8.656c11.068-2e-3 10.7 3.32 12.91 8.865" fill="none" stroke="#412906" stroke-width=".9996"/>
 <path d="m39.848 38.286c-3.577-1.4-14.387-2.256-12.676-9.41 1.71-7.155 17.731-12.91 26.13-9.8 8.4 3.111 10.11 3.733 12.91 1.4s9.487-0.622 9.176 1.867c-0.31 2.488-24.497 18.742-35.54 15.943z" fill="#b99372" fill-rule="evenodd" stroke="#755538" stroke-width=".9996"/>
 <path d="M52.61 25.341c3.04-.412 7.122 1.432 8.344 5.156.43 4.578.742 9.209.663 13.816-1.41 5.328-.967 11.337-7.646 14.757-9.513-2.125-11.068-10.238-12.337-15.94 1.174-5.413-.985-9.862 2.547-14.485 2.426-2.189 6.34-3.866 8.429-3.304z" fill="#f4e3d7" fill-rule="evenodd" stroke="#522f16" stroke-width=".9996"/>
 <path d="M56.955 40.208c-.392.23.892 2.83 1.526 3.394-.466.303-.613.555-1.867.712" fill="none" stroke="#522f16" stroke-width=".9996"/>
 <path d="M53.417 23.607c8.954-2.107 12.874 8.506 12.285 15.83-.153 3.902-.172 5.586-2.933 8.153.098.738 1.26 3.66 1.508 4.302-1.512-.64-2.68-1.432-3.159-3.026.694-6.461.62-9.852.083-14.44-.69-6.342-10.768-8.296-7.784-10.819z" fill="#520" fill-rule="evenodd" stroke="#2b1100" stroke-width=".9996"/>
 <path d="M55.017 38.713c-.186-2.744-3.112-4.302-4.864-3.202-.299 1.645-.066 3.52.984 5.172 3.021 1.642 3.654-.026 3.88-1.97z" fill="#fff" fill-rule="evenodd" stroke="#37291e" stroke-width=".9996"/>
 <path d="M54.926 25.051c1.939 3.165.71 6.645-1.155 9.554-1.04 1.337-2.034 2.024-3.236 3.185-2.374 2.745-5.463 4.812-7.25 8.003-1.148 3.167.775 6.442.853 9.81-6.067-4.792-7.792-9.78-7.126-14.482.124-6.6-.801-14.244 6.439-17.198 3.777-2.21 8.325-1.83 11.475 1.128z" fill="#520" fill-rule="evenodd" stroke="#2b1100" stroke-width=".9996"/>
 <path d="M58.788 51.216c-.619-.598-1.092-1.95-2.154-1.262-.668.433-1.443 1.029-2.348.041-.693-.756-3.662.822-4.195 1.294.716.758 3.835 1.693 4.434 1.765 1.975.117 2.778-.541 4.263-1.838z" fill="#a00" fill-rule="evenodd" stroke="#2b0000" stroke-width=".9996"/>
 <path d="M61.632 36.29c.396 2.387-.25 4.813-2.482 5.017-1.772-1.083-1.683-1.739-1.224-3.612 1.95-1.746 2.776-2.008 3.706-1.406z" fill="#fff" fill-rule="evenodd" stroke="#37291e" stroke-width=".9996"/>
 <path d="M60.89 37.862c-.948-.892-1.625.253-1.814.605-.593 1.103-.04 1.784.76 2.083 1.837.213 1.862-2.428 1.053-2.688zM54.106 40.487c.548.683.78-2.818-.283-2.838-1.245-.024-1.783 1.471-1.8 1.61-.189 1.565.957 1.85 2.083 1.228z" fill="green" fill-rule="evenodd" stroke="#003e00" stroke-width=".9996"/>
 <path d="M52.073 72.825c-1.681 6.564-9.259 2.128-7.276-1.425M59.885 75.204c-1.774.038-3.318-.624-3.901-2.569" fill="#ad8768" fill-rule="evenodd" stroke="#37291e" stroke-width=".9996"/>
 <path d="M46.633 64.046c-.74.08-1.213 2.077-1.4 1.984-.394-.198-1.322-.559-1.322-.117 0 2.853-.18.33-1.75.33-1.161 0-1.28 1.57-1.321 2.197.522.393.311.215.66.564.198.198.352.483.526.758 4.4-2.22 8.175-2.01 12.404 1.167.922-2.773 3.398-3.303 5.366-3.888a6.95 6.95 0 00-.817-2.761c-.438-.14-.922-.259-1.205-.117-.32.16-.516.294-.642.408 2.288.542-.883.803 0 0a9.476 9.476 0 00-.35-.077c-1.28-.256-.598 1.83-.758 1.75-.787-.394-1.225-.502-1.225.777 0 1.824-.453-.335-.544-.214-.699.932-1.386-.064-2.644-1.322-.232-.232-.811.75-.875.428-.155-.775-1.791-2.059-2.528-1.322-1.227 1.227-.378-.28-1.439-.545-.051-.013-.086-.005-.136 0z" fill="#fff" fill-rule="evenodd" stroke="#6b5532" stroke-width=".9996"/>
 <path d="m45.568 82.527s5.5 2.53 6.16 2.86 4.289-1.54 4.289-1.54l1.1 2.31s-3.19 1.98-4.18 1.76-9.238-3.63-9.238-3.63l1.87-1.76z" fill="#8c684c" fill-rule="evenodd" stroke="#3d2c1c" stroke-width=".9996"/>
 <path d="M41.879 62.37c-4.475.467-6.586 7.137-8.466 10.678 1.752 3.799 4.992 8.793 8.71 11.199.08.762.269 1.86.155 2.314-.803 1.265.886 2.768 2.606 3.305 1.975-.09 2.116-2.103 3.285-3.597-.018-2.26-2.415-2.206-4.083-3.305a2.725 2.725 0 00-.019-.311c-1.296-2.379-4.629-5.699-5.56-8.244 1.876-1.089 3.177-2.563 4.199-4.51.457-.61 1.191-1.266 1.361-1.945" fill="#f4e3d7" fill-rule="evenodd" stroke="#522f16" stroke-width=".9996"/>
 <path d="M47.108 57.836a1.375 1.375 0 11-2.75 0 1.375 1.375 0 112.75 0z" fill="#fff" stroke="#6b5532" stroke-linejoin="round" stroke-width=".9998"/>
 <path d="M49.417 59.266a1.375 1.375 0 11-2.75 0 1.375 1.375 0 112.75 0z" fill="#fff" stroke="#6b5532" stroke-linejoin="round" stroke-width=".9998"/>
 <path d="M51.947 60.586a1.375 1.375 0 11-2.75 0 1.375 1.375 0 112.75 0z" fill="#fff" stroke="#6b5532" stroke-linejoin="round" stroke-width=".9998"/>
 <path d="M54.587 61.246a1.375 1.375 0 11-2.75 0 1.375 1.375 0 112.75 0zM57.337 60.586a1.375 1.375 0 11-2.75 0 1.375 1.375 0 112.75 0z" fill="#fff" stroke="#6b5532" stroke-linejoin="round" stroke-width=".9998"/>
 <path d="m53.047 73.839 2.64 2.42m-3.19-1e-3 2.53 1.98m-2.97 0.88 2.53 1.76m-2.42 1.539 2.31 1.21m1.1-9.239-1.98 1.65m1.43 0.66-2.2 1.54m1.32 0.77-1.32 1.87m1.32 1.099-1.32 2.2" fill="none" stroke="#37291e" stroke-width=".9996"/>
 <path d="M35.882 30.275l4.355-2.8 6.221-2.021 9.8-.623 9.487.623-.467-2.022-11.976-2.333-15.087 2.488-2.333 6.688z" fill="#b99372" fill-rule="evenodd"/>
 <path d="M36.037 30.586c8.117-7.904 18.693-5.48 28.775-5.132M56.88 16.121c.193-2.487.933-1.468.933.778 0 .183 3.255-4.089 3.733-2.177.26 1.04-1.728 2.85 0 1.555.668-.502.108 1.677.31 2.489.027.104 2.05-2.232.778.31-.041.084.942-1.211 1.245 0 .088.354.074.374.155.778" fill="none" stroke="#755538" stroke-width=".9996"/>
 <path d="M34.793 6.478l2.178 2.644-2.489 2.178M38.837 7.1l1.866 2.8-3.577 2.644M43.503 9.9l.467 3.733-4.51.622" fill="none" stroke="#412906" stroke-width=".9996"/>
 <path d="M78.033 68.538c-.591-.514-1.386-1.436-2.489-1.711-1.156-.29-1.8.512-2.022 1.4l-.311 1.244c-.126.503.741 1.059 1.244.933.556-.139.156 1.138.156 1.711 0 .114.624-.627 0 .933-.201.503 1.313-.017 1.555.467.036.072.747-.902 1.089.466.253 1.011 1.527-.976 1.555-1.088.173-.69-.004-1.726-.155-2.333-.213-.851-.29-1.19-.622-2.022z" fill="#fff" fill-rule="evenodd" stroke="#6b5532" stroke-width=".9996"/>
 <path d="M82.213 65.602c-.008-.003-.025 0-.04.02-.364.498-1.618 2.966-2.566 2.449-.599-.327-2.585.621-2.683 1.011-.01.005-.01.015-.02.02-.612.946-.597 1.892.856 2.838.947-.242 2.429-.084 2.275.292 2.836.1 8.929-.835 8.127-2.1.242-.242 1.194-1.05.311-1.05-1.972 0-4.97.21-6.921-.058.158-.883.778-3.378.66-3.422zM42.725 84.091c-.506-.3-1.431.156-2.333.156-.59 0-.67-.982-1.088-1.4-.097-.097.99-.516 1.71-.155.525.262.776-.893 1.245-1.245.158-.119.909-.383 1.244-.466.82-.205-.116-1.788.778 0 .48.961.801.06.466 1.4-.173.695-.295 1.395-.933 1.555-1.086.271 1.02.155-1.089.155z" fill="#fff" fill-rule="evenodd" stroke="#6b5532" stroke-width=".9996"/>
 <path d="M43.99 82.536l-2.412 1.342c.177.127.365.253.545.369.08.762.269 1.86.155 2.314-.803 1.265.886 2.768 2.606 3.305 1.975-.09 2.116-2.103 3.285-3.597-.018-2.26-2.415-2.206-4.083-3.305a2.725 2.725 0 00-.019-.311c-.02-.039-.056-.078-.078-.117z" fill="#fff" fill-rule="evenodd" stroke="#6b5532" stroke-width=".9996"/>
 <path d="M82.543 66.418c-1.985.762-2.102 3.513-1.603 5.294.41 1.55-.028 4.155.862 5.108 1.949.128.221-2.653.528-3.83-.029-1.694-1.023-4.068.446-5.269.148 1.728 2.95 2.377 1.782.424-.552-.642-.956-1.895-2.015-1.727z" fill="#28170b" fill-rule="evenodd"/>
 <path d="M81.765 78.959c-.366-.652-.518-1.426-1.4-1.867-.826-.413-1.967-.735-2.177-.777-.58-.116 1.447.062 1.711-.467.28-.559 1.367.219 1.866-.156.357-.267.69.977 1.09.778 1.093-.547-.265-1.92 1.088-1.244.642.32 1.431-.296 1.866-.622.906-.68-.192.815-.31.933-.653.652-1.13 1.013-1.556 1.866-.445.89 1.312 1.305-.311 1.711-.528.132-1.389-.06-1.867-.155z" fill="#fff" fill-rule="evenodd" stroke="#6b5532" stroke-width=".9996"/>
 <path d="M84.41 77.714l-3.111.311c-2.113 4.725 2.198 28.478 5 34.503l-.041-1.83c.819-5.097.343-25.947-1.848-32.984z" fill="#fff" fill-rule="evenodd" stroke="#6b5532" stroke-width=".9996"/>
 <path d="m55.027 76.698-2.2 1.54m-0.444 11.834 2.31 1.21m-0.33-1.65-1.32 2.2m0.741 2.013 2.31 1.21m-0.33-1.65-1.32 2.2m1.066 2.013 2.309 1.21m-0.33-1.65-1.32 2.2" fill="none" stroke="#37291e" stroke-width=".9996"/>
 <path d="m58.96 117.02 2.309 1.21m-0.33-1.65-1.32 2.2m-11.225-1.114 2.31 1.21m-0.33-1.65-1.32 2.2" fill="#6b5532" fill-rule="evenodd" stroke="#6b5532" stroke-width=".9996"/>
</svg>
