<svg xmlns="http://www.w3.org/2000/svg" width="128" height="128" version="1.0"><defs><filter id="a" x="-.115" width="1.229" y="-.25" height="1.5"><feGaussianBlur stdDeviation="4.598"/></filter></defs><metadata/><path d="M439 291c-2.1.672-12.752-.021-18.105 1.317-6.184-1.737-.692 3.61-6.723.633-2.078-16.073-31.54-20.704-45.672-16.95-5.987 1.497 12.772 12.544 13.5 14 35.587 9.242 19.335-17.222 29.795 7.075.689 10.823 21.792 14.865 31.205 14.925 6.218-2.417 21.214-2.564 24.95-8.27 3.134-6.268-12.848-8.955-15.95-9.73-5.743-1.436-6.22-3-13-3z" fill-opacity=".609" fill-rule="evenodd" filter="url(#a)" transform="translate(-349.575 -188.212)"/><path d="M49.356 65.374c2.769-1.342 4.385.953 4.692-2.798-.661-7.132.531-15.087-.813-22.36-.308-2.758-.208-.303-.313-3.083-6.988 1.229-15.108.032-23.171 3.049-1.954.488-1.143-7.302-.907-7.892-2.426-7.04-2.367-12.391-4.472-18.09-1.467-2.596-2.98.48-3.049 2.235-1.64 8.701 5.993 19.024 3.096 27.347 2.774 7.86 3.008 3.501 5.645 18.997-.255 4.62 3.85 4.986 4.8 1.031.403-6.897-2.263-13.423-.593-20.2.262-1.31 1.375-2.408 2.533-2.408 2.21.373 8.13-1.485 10.082-.547 1.595 2.516 1.042 5.873 1.002 8.787-1.079 5.226-1.068 10.873 1.468 15.932z" fill="#a40" fill-rule="evenodd" stroke="#301200"/><path d="M83.092 108.091c-2.687-.109-5.198-.28-6.882 2.058-.703 2.715-.099 5.096 2.343 6.467 2.27.815 4.287.195 6.443-.588.61-.307 1.523-.294 2.196-.294 2.92-1.29 4.162-5.36 3.514-8.378-2.514-.114-5.095.435-7.614.735z" fill="#520" fill-rule="evenodd" stroke="#170800"/><path d="M87.778 109.414c-1.84 3.078-2.435 6.537.44 9.112 4.578.77 8.473-1.064 12.884-3.527.419-2.327 1.09-6.573-1.903-7.202-4.406-.902-7.945-.06-11.421 1.617z" fill="#520" fill-rule="evenodd" stroke="#170800"/><path d="M21.006 49.267c2.954-2.164 5.074-5.625 8.132-7.778 4.242-1.527 8.578-1.323 12.904-1.944 2.544-.555 5.187-.354 7.778-.354 1.892 1.325.89 4 1.945 6.187-1.562 3.675-5.218 5.712-7.601 8.84-.87.383-.373-3.26-1.768-4.774-6.194-3.179-12.427-.552-18.738.354-1.126.281-1.631.286-2.652-.53z" fill="#a40" fill-rule="evenodd" stroke="#301200"/><path d="M39.987 74.213c2.768-1.342 4.385.953 4.692-2.799-.661-7.13.53-15.086-.813-22.358-.308-2.759-.208-.304-.313-3.084-6.988 1.229-15.108.032-23.172 3.049-1.953.488-1.142-7.302-.906-7.893-2.426-7.038-2.367-12.39-4.472-18.09-1.467-2.596-2.98.48-3.049 2.236-1.64 8.701 5.993 19.024 3.096 27.347 2.774 7.86 3.008 3.5 5.644 18.997-.254 4.62 3.852 4.986 4.802 1.031.402-6.897-2.264-13.423-.594-20.201.262-1.31 1.375-2.408 2.533-2.408 2.21.373 8.13-1.484 10.082-.546 1.595 2.516 1.042 5.873 1.001 8.787-1.078 5.226-1.067 10.873 1.469 15.932z" fill="#a40" fill-rule="evenodd" stroke="#301200"/><path d="M68.048 63.674c-5.282 1.218-11.924 1.656-17.318.61-3.073-1.08-3.044-4.917-3.049-7.724 0-.845-2.122-3.67-2.72-4.267-2.208-1.232-1.605 2.471-.938 4.47-.854 3.683.361 8.927-.204 12.4.21.84 1.71 1.494 2.236 1.625 7.849-.082 13.457.668 20.888 3.032 1.547-.76.957-8.454 1.105-10.146z" fill="#ffe6e5" fill-rule="evenodd" stroke="#561c00"/><path d="M73.784 63.21c-3.199-.015-2.292-.704-5.46-.92-3.608 3.348-2.437 8.38-2.025 12.16 3.46.992 3.355.71 6.089.107 3.65.612 7.105-2.927 8.13-6.301.266-2.313-.443-3.32-2.235-4.472-1.576.11-2.907-.857-4.499-.575z" fill="#cbcbeb" fill-rule="evenodd" stroke="#0e0e26"/><path d="M78.992 61.207c-.208.429-.679 1.551-.878 2.352-.17.681-.293 1.215-.293 1.91 0 .524-.764 1.534-1.025 2.058-.412.827-.934 1.105-1.171 2.058-.163.653-.536 1.122-.732 1.91-.116.463-.435 1.306-.586 1.91-.226.907-.293 1.67-.293 2.646 0 .893.094 1.7.293 2.499.23.926.365 1.468.732 2.204.365.733.418 1.28.732 1.911a5.82 5.82 0 001.171 1.617c.449.45.723 1.211 1.025 1.616.499.667.784.969 1.611 1.176.747.188 1.47.259 2.196.441.726.182 1.746 0 2.49 0 .915 0 1.763-.294 2.782-.294h2.782c1.296 0 1.545.041 2.05.294.632.318 2.31-.147 3.075-.147 1.25 0 1.985-.444 3.074-.882.78-.313 1.415-.048 2.197-.44.655-.33 1.287-.117 1.757-.588.442-.444 1.423-.547 2.05-1.176.645-.647.964-1.374 1.171-2.205.185-.743.147-1.55.147-2.351 0-.916-.293-1.378-.293-2.352 0-.944-.147-1.697-.147-2.645v-3.087c0-1.38-.293-2.632-.293-3.968 0-1.07-.474-2.494-.732-3.527-.226-.91-.863-2.037-1.317-2.646-.447-.597-.592-1.494-.733-2.058-.173-.695-.428-1.357-.732-1.763-.445-.597-.232-.925-1.025-1.323-.55-.276-2.004 0-2.635 0-.81 0-1.347-.588-2.343-.588h-3.514c-.83 0-1.684-.426-2.49-.588-.846-.17-1.923 0-2.781 0-1.18 0-2.126.664-2.782 1.323-.462.463-1.127.786-1.611 1.029-.682.342-1.166 1.02-1.61 1.616-.652.873-.893.99-1.319 2.058z" fill="#cbcbeb" fill-rule="evenodd" stroke="#0e0e26"/><path d="M77.42 12.67c-2.485 6.086-7.766 10.622-9.225 17.15-1.072 5.963.553 12.225 2.325 17.931 2.809 6.965 14.75 7.22 21.623 6.758 4.125-1.01 8.39-2.738 11.923-5.177 5.074-5.995 5.305-14.003 5.319-21.431-.973-6.434-2.55-14.25-8.085-18.356-3.815-3.303-7.338-5.003-12.468-4.82-4.745.997-8.668 3.991-11.412 7.945z" fill="#ffe6e5" fill-rule="evenodd" stroke="#561c00"/><path d="M72.6 48.743c.634 2.864 1.371 5.684 4.268 6.707 4.449.808 8.057-1.433 9.96-5.285" fill="#ffe6d5" fill-rule="evenodd" stroke="#562200"/><path d="M78.291 21.506c-3.015 1.047-10.04 2.09-11.992 5.894-.242 2.993.971 4.753 3.862 5.285 2.174-.289 4.5-.908 6.098-2.44" fill="#ffe6e5" fill-rule="evenodd" stroke="#561c00"/><path d="M86.422 13.782c-3.053-1.175-5.414.14-5.692 3.862.197 2.223 2.023 3.069 3.862 3.862 2.167.301 3.333-.867 4.269-2.643.392-2.432-.319-3.962-2.44-5.081z" fill="#fff" fill-rule="evenodd" stroke="#333"/><path d="M82.592 16.534c-.189-.756-1.411.225-.813 1.423.583 1.165 1.83-.21 1.83-1.017 0-.364-.678-.27-1.017-.406z" fill-rule="evenodd" stroke="#000"/><path d="M78.494 15.205c-1.505-2.29-4.364-2.46-6.972-.018-1.92 4.878 1.928 6.134 5.143 5.302 1.703-1.178 1.746-3.331 1.83-5.284z" fill="#fff" fill-rule="evenodd" stroke="#333"/><path d="M73.555 16.784c.014-.874-2.3-.3-1.423 1.423.068.132 2.897 1.034 1.423-1.423zM88.048 38.783c-.478-1.235-1.171-2.084-2.236-2.846-3.435-1.717-4.757-1.09-8.537-.813-4.503.33-7.794 1.152-7.318 4.065.537 2.691 1.783 3.654 4.472 3.659 3.268.225 5.654-1.557 8.334-3.049 1.536-.78 1.871-1.184 2.518-2.722" fill-rule="evenodd" stroke="#000"/><path d="M90.487 36.14c-2.504 1.115-2.302 3.537-2.44 5.895" fill="none" stroke="#562200"/><path d="M98.21 15.205c4.543.182 7.131-4.49 11.587-2.236 3.569 1.515 2.955 6.984 2.439 10.163.304 2.558-1.215 3.472-3.05 1.423-1.185-1.463-1.919-3.19-3.048-4.675-2.588-2.085-4.988.706-7.927-.204-2.223-1.44-2.38-3.35 0-4.471z" fill="#4d4d4d" fill-rule="evenodd" stroke="#1a1a1a"/><path d="M102.073 21.302c3.267-2.878 9.007-.349 5.691 4.472-1.592 1.516-3.239 2.186-4.878.61" fill="#ffe6e5" fill-rule="evenodd" stroke="#561c00"/><path d="M87.924 55.034c.852 1.902 2.507 4.184 2.514 6.086 3.152-1.913 6.472-2.856 10.079-3.293 1.955-.138 1.503-1.46.585-2.646-1.912-1.924-4.209-1.742-6.735-1.47-2.186.249-4.302.834-6.443 1.323zM80.774 56.24c2.147-.322 4.713-1.683 3.606-.237-1.107 1.446-1.648 4.3-3.045 5.5-1.376-1.25-2.459-1.356-2.953-2.975.827-2.193.246-1.967 2.392-2.288z" fill="#cbcbeb" fill-rule="evenodd" stroke="#0e0e26"/><path d="M84.728 56.254c.43-.863-.563 1.96-.797 2.895.53 1.288 2.184 1.368 3.554 1.617 1.43-.762 1.582-2.382.982-3.733-.791-1.243-2.394-.594-3.74-.779z" fill="green" fill-rule="evenodd" stroke="#094709"/><path d="M84.074 76.337c-1.162 3.593.45 7.063.629 10.59" fill="none" stroke="#0e0e26"/><path d="M84.987 60.031c-.78 2.15-.796 4.174-2.278 5.972-1.098 1.712-.752 3.763-.7 5.7.202 1.83.375 4.789 1.989 7.248 2.608-1.92.736-4.443.989-5.8 1.89-2.363 2.39-4.938 2.89-7.872.092-1.486-.659-2.783-.876-4.252 0-.36-.493-.572-.788-.724-.43-.223-.68-.272-1.226-.272z" fill="green" fill-rule="evenodd" stroke="#094709"/><path d="M76.692 84.686c.34 3.907 3.167 5.487 5.668 7.826 1.076 4.916-.464 9.988 1.025 15.138 1.667 1.025 4.225.725 6.15.353 2.005.65 8.547.515 10.396-.316-.63-6.21 2.964-12.348 5.418-17.82.787-2.77 1.53-5.95-.44-8.378-3.574 3.558-7.774 4.703-12.592 4.703-3.123.15-6.246.322-9.371.441-2.08-.113-4.486-.858-6.254-1.947z" fill="#0c0d1e" fill-rule="evenodd" stroke="#020206"/><path d="M102.112 76.433c.501 1.773 2.805 3.06 4.017 4.425.747.747 1.848.388.813 1.423-2.042 2.14-3.513 4.884-4.878 7.52-1.98.044-3.682-.853-5.691-.203.104 3.425 2.945 1.049 2.642 3.659-1.654 1.313-3.648 2.038-2.236 4.268.93.93 3.093-1.763 3.096-1.766.884-.885.907-.829.563.547-.353 1.412-1.314.918-.891 2.61 2.056.896 2.99-1.299 3.737-3.017.145 1.362-1.137 3.584 1.829 2.58.263-2.286.258-3.516 1.44-5.644.56-.56 1.828-1.471 2.015-2.22 2.704-3.09 5.987-7.483 5.63-11.657-2.685-1.861-2.886-4.846-5.161-6.809-.459-.344-.424-2.134-1.188-3.314-1.653-2.998-8.1-2.544-8.833.813.823 2.034 2.416 4.499 3.096 6.785z" fill="#ffe6e5" fill-rule="evenodd" stroke="#561c00"/><path d="M88.803 92.512c-1.46 2.254-1.608 4.873-1.464 7.496.504 2.323.51 5.94 1.024 8.24" fill="none" stroke="#020206"/><path d="M35.939 58c-1.414-.314-1.767-.579-1.308-2.414 1.716-1.372 6.844-.045 3.95 2.007 0 1.068-.567.042.61 1.22.852 1.502.795 2.575-.84 2.916-.79-.198.924.377 1.653.742 1.108.554-.476 2.136-.61 2.236-1.566 1.181-3.207 1.416-4.878.406-1.574-1.494-1.278-2.513.663-2.722-.469-.404-1.258-1.328-1.882-1.953-.742-.742-.225-1.339-.098-1.467.439-.438 2.12-.972 2.74-.972z" fill="#ffe6e5" fill-rule="evenodd" stroke="#561c00"/><path d="M75.58 39.066c-1.653-1.576-4.1-1.54-5.127.354-.18 2.513 3.264 3.147 5.127 3.005 1.829-.168 6.108-1.554 6.717-3.359-1.502-2.203-5.74-1.255-6.717 0z" fill="maroon" fill-rule="evenodd" stroke="#000"/><path d="M96.202 65.5c-1.897.264-2.609 2.155-3.359 3.713-.513 1.703 1.426 1.914 1.945 3.535-1.086 1.463-1.475 2.596-1.415 4.42 1.722.985 2.857-.235 4.243-1.414.617-.309.399 1.327.707 1.944.438.877 1.877-.286 2.121-.53 1.917-1.782 2.688-3.95 2.829-6.541-.578-3.9-3.43-6.092-7.071-5.127z" fill="#a0a0da" fill-rule="evenodd"/><path d="M100.933 76.93c-3.338-2.915-5.083-5.949-5.102-9.54-.018-3.59 1.803-6.154 5.612-5.653 1.451 1.11 2.901 1.963 4.591 2.65 2.295 1.443 3.557 3.878 4.421 6.36-2.674 2.795-6.538 3.795-9.522 6.183z" fill="#cbcbeb" fill-rule="evenodd" stroke="#0e0e26"/><path d="M14.288 26.817c.623-1.027 3.54-2.837 4.243-4.596 1.081-1.818 5.855-6.541 7.248-8.132 2.632 1.927 1.565 8.486 2.121 12.02.006 2.039-4.56 4.808-5.657 6.365-2.243 1.566-3.03 4.394-5.126 6.01-2.743-1.879-2.227-8.202-2.829-11.667z" fill="#a40" fill-rule="evenodd" stroke="#301200"/><path d="M50.174 40.075c-1.365 2.215-4.665 5.485-6.54 7.248" fill="none" stroke="#301200"/><path d="M76.039 52.667c.222-1.972 3.512-2.133 3.535.353" fill="none" stroke="#562200"/><path d="M103.553 22.353c4.78-2.035 2.742 3.303.345 2.412" fill="none" stroke="#561c00"/></svg>