<svg xmlns="http://www.w3.org/2000/svg" width="128" height="128" version="1.0"><defs><filter><feGaussianBlur stdDeviation=".654"/></filter></defs><metadata/><path d="M58.697 56.665c1.476 5.737-7.685 8.34-10.327 13.77l-6.885 2.458-6.393 2.214c-.527-2.214-2.974-2.214-6.64-4.427-1.188 2.623.787 2.584 1.968 5.902-2.586 1.031-5.801-.055-8.865 1.721.985 2.825 2.992.947 5.422 2.213-2.44 1.192-6.502 2.615-4.672 3.197 2.871 1.644 6.549-.838 7.64-1.014-1.01 2.158-4.66 4.163-4.935 5.194 4.36-1.14 6.193-.292 7.623-3.443 3.589-.122 5.635-.715 8.606-5.163l11.803-5.164c5.175-.202 9.484-5.707 8.114-7.869l-2.459-9.59zM57.027 109.235l-4.672-8.853 3.197-8.36 2.95-9.59 1.23-5.41 20.9-1.72 5.656 8.36-4.917 11.557.491 11.803-2.459 9.098-4.426-1.476-1.72-11.803-.493-7.13 1.722-4.673-1.476-.983-3.196-.492-5.656 2.213-3.934 7.623-.492 13.032-2.705-3.196z" fill="#1a1a1a"/><path d="M58.604 52.914c3.2-1.319 6.437-2.762 7.191 3.885L57.59 74.46c-2.67-4.55-4.474-7.309-7.928-7.78l8.942-13.767z" fill="#f2f2f2" stroke="#333" stroke-linejoin="round"/><path d="M64.415 50.72l18.07-1.369c10.68 15.523 6.57 27.926 2.737 38.056-7.23-2.028-10.712.227-12.859 4.008l-4.104-.024c-3.38-5.087-6.76-6.445-10.141-6.448-.06.14-2.998-28.688 6.297-34.223z" fill="#f2f2f2" stroke="#333"/><path d="M56.475 75.087c9.41 6.524 25.66 2.068 32.58 0l-.273 6.297c-12.125 3.743-25.79 2.908-32.307-.547v-5.75zM73.997 90.693l-1.643 7.94c3.492-.527 6.97-1.015 9.035 2.737l2.19-12.594c-2.632-1.555-5.525-1.512-9.582 1.917zM55.975 87.943l-3.113 8.582c3.528.142 7.583.046 8.902 4.121l4.256-10.31c-2.29-2.025-5.414-4.993-10.045-2.393z" fill="#f2f2f2" stroke="#333" stroke-linejoin="round"/><path d="M73.176 101.097s2.738-3.56 6.297-.822c2.18 1.678 3.012 8.214 3.012 8.214-2.883.215-5.232-1.709-8.762 1.095l-.547-8.487zM53.263 98.459s6.845-1.37 8.214 3.285c.776 2.64 1.917 5.75 1.917 5.75-2.883.214-5.232-1.709-8.762 1.095l-1.369-10.13z" fill="#f2f2f2" stroke="#333" stroke-linejoin="round"/><path d="M61.403 108.489c-1.79-.689-3.526-1.592-6.023.547-4.843 2.524-10.29 2.437-14.51 7.666l.547 2.738c9.881 3.463 15.778.615 21.355-2.738l-1.369-8.213z" fill="#f2f2f2" stroke="#333" stroke-linejoin="round"/><path d="M80.979 109.31c-1.79-.688-3.527-1.592-6.024.548-4.843 2.523-10.29 2.436-14.51 7.666l.547 2.738c9.882 3.462 15.779.615 21.356-2.738l-1.37-8.214z" fill="#f2f2f2" stroke="#333" stroke-linejoin="round"/><path d="M71.08 71.75c-1.039-.099-29.29 10.497-29.29 10.497-.993 2.421-1.744 4.801 2.369 6.337l29.989-12.351c.473-1.974-.187-3.585-3.068-4.483z"/><path d="M62.748 82.17l4 10.084 4.694-2.608L67.27 79.56l6.086-2.26-1.739-2.26-22.43 9.91.87 2.608 12.692-5.39z" fill="#333" stroke="#1a1a1a"/><path d="M47.026 70.6c6.18-2.534 6.286 1.118 8.215 4.796l-16.223 7.62c.025-4.057-.347-7.654-3.17-8.43L47.027 70.6z" fill="#f2f2f2" stroke="#333" stroke-linejoin="round"/><path d="M65.878 70.694L41.014 79.04l2.782 6.085s2.435.522 1.565-.695c-.87-1.218-2.086-4.695-2.086-4.695l22.777-7.824-.174-1.217z"/><path d="M61.01 71.215l4.868 7.65 4.347-1.912-4-8.172-5.215 2.434z" fill="#333" stroke="#1a1a1a" stroke-linejoin="round"/><path d="M82.846 55.138c1.475 5.737 3.626 10.8 4.426 17.213l-8.36 4.672-5.41 3.196c-.526-2.213-.515-4.426-4.18-6.639-1.188 2.623.409 5.246 2.459 7.869-3.803-1.055-8.002-3.497-10.574-.246.862 3.44 3.888 2.55 6.64 2.213-2.441 1.192-6.502 2.615-4.673 3.196 2.872 1.645 4.289.38 5.902-.491-2.227 2.331-2.921 3.641-3.197 4.672 4.013.077 5.701-2.751 7.131-5.902 3.59-.122 7.357 1.006 10.328-3.442l10.819-9.344c2.963-3.4.386-5.216-.984-7.377l-10.327-9.59z" fill="#1a1a1a"/><path d="M80.633 52.925c1.073-3.29 2.076-6.69 7.623-2.95l8.114 17.704c-5.195-.92-8.464-1.34-11.065.983l-4.672-15.737zM86.043 70.875c5.358-3.989 7.48-.924 9.835.492L81.371 84.891c-.984-3.935-2.238-7.327-5.164-7.377l9.836-6.639z" fill="#f2f2f2" stroke="#333" stroke-linejoin="round"/><path d="M70.305 79.236l6.148-.492c2.246.865 3.48 2.338 2.459 5.164l-6.394 3.442c-4.231-3.481-3.835-5.934-2.213-8.114zM55.833 30.487c.455-2.386.945-15.518 2.956-18.492 5.185-6.468 18.32-9.916 27.49-1.713 6.044 9.147 6.044 17.288 6.989 25.587.663 15.501-11.32 14.52-17.828 20.673-1.922.108-3.694 2.088-5.903-1.377-2.068-3.974-1.247-7.89-13.405-2.78-1.819 1.53-3.544 1.552-5.078-1.533-1.808-7.471 2.199-13.775 4.78-20.365z" fill="#f2f2f2" stroke="#333" stroke-linejoin="round"/><path d="M86.008 19.493c1.233 5.56-1.531 8.898-2.97 12.972-6.147-4.146-10.628-7.877-15.99-7.962-3.38.479-3.804-.338-8.312 2.935-1.87-1.909-1.755-4.314-.903-6.904 9.925 3.819 20.534.883 28.175-1.041z"/><path d="M57.555 17.067c10.49 4.61 24.446 2.063 32.188-1.014l.313 1.719c-11.413 2.92-23.405 6.009-33.416.939l.915-1.644z" fill="maroon"/><path d="M58.39 51.363c2.881-3.144 3.355-8.338 8.663-9.417 1.783 3.479 1.489 6.445 1.992 9.608-2.179-1.625-6.814-1.023-10.655-.19zM55.54 50.633a2.173 2.695-4.59 11-4.333.348 2.173 2.695-4.59 114.333-.348zM74.488 54.17a2.608 2.695-4.59 11-5.2.417 2.608 2.695-4.59 115.2-.417z"/><path d="M58.6 38.787c3.725-3.85 3.602-3.017 8.99-7.524 4.294 3.202 5.483 6.653 8.129 9.987-4.665-5.378-9.912-7.103-17.118-2.463z" fill="#999"/><path d="M43.796 83.386l-6.955 2.608 1.391 2.956 6.086-2.434-.522-3.13z"/><path d="M58.904 65.008l7.355 1.855 11.118.693-9.237-2.707.478-7.803-2.07 7.166-7.644.796z" fill="#b3b3b3"/><path d="M76.9 26.152c2.08.644 3.844 1.73 7.961-.478l-2.229 4.618-5.733-4.14z" fill="#fff"/></svg>