<svg xmlns="http://www.w3.org/2000/svg" width="128" height="128" version="1.0"><defs><filter id="a" x="-.063" width="1.126" y="-.195" height="1.389"><feGaussianBlur stdDeviation="2.233"/></filter></defs><metadata/><path d="M39.417 61.661c-8.736.033-17.742 1.705-24.907 6.906-2.655.842-7.093 2.485-6 6.063 1.323 2.794 5.41 1.55 7.844 1.156 2.425-.902 6.46-3.18 8.281-.187.736 3.024-3.202 3.578-5.218 4.343-2.737.351-10.984 2.975-9.346 6.11 1.278 3.338 3.315 9.508 6.387 8.11 1.843-.509 2.777-7.967 6.299-6.61 5.774 2.224 14.705-3.237 17.94-4.922 3.998-3.4 9.562-.054 14.249-1.078 2.46-.71 4.505.756 6.596 1.484 2.561.408 3.56-2.347 3.156-4.344 1.192-3.014 5.447-2.216 7.98-3.152 3.45-.383 6.844-1.405 10.145-2.004 3.33.914 7.56 3.623 10.531.5-2.127-5.997-8.86-7.688-14.437-8.844-9.699-1.682-19.852-.628-29.312-3.304-3.393-.15-6.792-.32-10.188-.227z" transform="matrix(.85707 0 0 .85659 44.819 32.055)" fill-opacity=".766" fill-rule="evenodd" filter="url(#a)"/><path d="M22.237 48.99c5.644 9.932 9.698 18.197 14.051 28.758 1.551 3.242 3.725 8.627 6.246 11.147 3.426 4.28 6.108 9.136 9.59 13.376 2.347 2.359 2.983 5.575 5.13 8.025 2.336 1.439 3.782.34 3.346-2.23-.605-2.084-1.97-3.781-3.123-5.572-3.806-4.85-8.408-10.853-11.598-16.051-6.253-10.915-12.59-22.423-15.39-33.217-3.534-6.027-3.743-12.997-11.82-13.599-3.36 3.372 3.191 5.442 3.568 9.363z" fill="#502d16" fill-rule="evenodd" stroke="#2e180c"/><path d="M39.41 34.5c-.486 0-1.607.158-2.78.158-6.523 3.09-13.973 7.906-20.677 12.13-3.436 4.523-8.046 7.962-13.04 10.734.298 2.767.05 4.555 4.925 10.773 1.942-.54 5.207 7.257 6.55 8.458.393-.97 2.104-.36 2.599-1.323 4.831-14.342 20.565-23.595 22.87-38.7 0-.956.013-1.312-.446-2.23z" fill="#c08b68" fill-rule="evenodd" stroke="#4c3220"/><path d="M5.063 58.353c6.994-2.914 10.57-10.778 17.397-13.821 5.338-3.112 10.317-6.696 16.059-9.14 1.405-.702 1.325-.25 2.007 1.114 1.646 4.638 10.633 10.333 9.814 15.16-6.822 2.834-12.675 7.162-17.397 12.93-3.9 5.877-11.267 7.376-16.06 11.815-2.025-1.424-2.73-4.078-4.237-6.02-2.278-2.284-8.724-8.558-7.583-12.038z" fill="#c08b68" fill-rule="evenodd" stroke="#4c3220"/><g stroke="#333" stroke-width="1.167"><path d="M209.337 90.923c1.854 2.19 3.33 5.769 5.919 7.77.968.228 1.98-.008 2.963-.095 1.234-.413 1.874-1.33 2.461-2.428.432-2.718-.927-5.353-1.949-7.808-.56-2.226-1.644-4.761-3.69-5.956-2.777-1.93-4.834-1.064-7.926-.136a117.971 117.971 0 012.222 8.653z" fill="#e6e6e6" fill-rule="evenodd" transform="matrix(.66994 -.53425 .53456 .66956 -74.458 138.539)"/><path d="M219.107 97.684c-.001-3.2-.375-6.592-1.823-8.762-.99-2.769-2.128-5.184-5.496-7.204" fill="none" transform="matrix(.66994 -.53425 .53456 .66956 -74.458 138.539)"/></g><path d="M96.123 91.451c.68-.019 2.508.24 3.57-.219.815-.353 1.61-.79 2.378-1.168 2.04-.893 4.255-.524 6.397-.827 1.758-.828 2.73-.298 3.758-1.843 1.192-2.56.541-6.459-1.833-7.228-.794.39-2.018.874-2.8 1.427-2.401.894-2.21.961-4.68 1.172-3.188.634-6.387.699-9.54 1.501-.28 1.96 1.167 6.327 2.75 7.185z" fill="#00325c" fill-rule="evenodd" stroke="#00192e"/><g stroke="#333" stroke-width="1.167"><path d="M211.177 102.01c1.278 2.973 2.41 5.403 4.894 7.627.829.436 1.502.263 2.358.035.697-.392 1.371-.817 2.098-1.174-.327-2.744.646-6.063-.862-8.679-.597-2.959-2.271-5.72-4.574-7.782-1.793-.205-3.928.888-5.753 1.418 1.44 2.538 1.967 5.661 1.84 8.555z" fill="#e6e6e6" fill-rule="evenodd" transform="matrix(.72297 -.46006 .46032 .72256 -83.623 115.199)"/><path d="M219.058 108.814c-1.227-3.062.176-6.688-.978-9.902-.762-3.052-3.339-4.167-3.97-6.393" fill="none" transform="matrix(.72297 -.46006 .46032 .72256 -83.623 115.199)"/></g><path d="M56.241 89.411c.267-3.354-2.8-7.542-3.512-10.202.187-1.337 2.114-1.009 1.851-2.549-.94-.811-2.066-.37-3.15.049-.29-1.758.165-3.75-2.179-4.245-.523 1.042-.393 2.43.002 3.448-.822-.923-.678-4.473-1.955-2.302-.41 1.343.01 2.977.692 4.022-1.545-.59-2.14-3.184-1.678-.544.541.94.546 2.31 1.503 2.662.76.79 1.333 1.297 1.83 2.29.261 2.668.503 5.291 1.735 7.634.95 1.38 2.02 4.868 4.614 5.608.838.524 9.9-4.807 10.808-4.53 2.354-.868-3.022-2.956-3.464-5.403-.712-3.14-5.65 3.64-7.097 4.062z" fill="#e9d2af" fill-rule="evenodd" stroke="#3f2d10"/><path d="M66.628 79.115c-2.98 1.487-.733-.315-2.714 2.302-1.907 1.667-4.297 2.56-5.413 4.888 2.991 1.737 3.033 4.711 6.058 6.271 2.82-3.347 3.428-5.744 4.946-9.783" fill="#1a1a1a" fill-rule="evenodd" stroke="#000"/><path d="M95.598 96.853c.679-.018 2.508.241 3.569-.219 2.172-1.293 4.337-1.872 6.845-1.799 2.335-.515 8.37-1.821 9.728-3.863.432-2.586-1.451-3.9-3.957-5.48-3.003 1.736-5.928 2.45-9.396 2.675-3.19.66-6.364.694-9.54 1.501-.28 1.96 1.167 6.327 2.75 7.185z" fill="#00325c" fill-rule="evenodd" stroke="#00192e"/><path d="M101.086 75.872c-3.27 1.972-7.442-.279-10.765-1.05-4.353.457-8.467-2.874-12.798-2.565-2.692.028-5.187.573-7.67 1.577-2.26 1.23-5.98 2.786-6.468 5.338.024 3.364-1.642 3.904-1.385 7.277.716 2.562 5.256 7.498 7.828 8.129 2.338.444 4.482.58 6.456 1.968 3.733.853 7.396 2.64 11.26 2.635 4.514-.146 6.06 1.996 10.525 2.12-1.65-4.106 2.32-8.578 2.437-12.963-.791-3.801 3.015-9.837.58-12.466z" fill="#1a1a1a" fill-rule="evenodd" stroke="#000"/><path d="M70.898 98.7c-2.633 1.05-10.042 1.904-12.797 1.186-1.146-.716-1.287-2.564-2.8-2.952-1.125.527.045 1.958-.014 3.118-1.95-.677-6.256-2.223-6.363 1.015.739.902 3.656.592 4.748.647-1.179.373-3.547.692-2.084 2.744 1.06.921 1.907-.063 3.14-.26-1.109.286-1.682 1.744-.551 2.844 1.08-.11 2.56-.33 3.273-1.06 1.032-.37 1.37-1.622 2.48-1.67 2.544.849 9.377.464 12.02.294 1.672-1.949 4.81-1.006 6.538-2.72.82-.55 2.19-9.753 2.812-10.469.167-2.502-3.825.483-6.241-.111-3.16-.63-1.924 6.338-4.161 7.393z" fill="#e9d2af" fill-rule="evenodd" stroke="#3f2d10"/><path style="-inkscape-font-specification:Rufscript" d="M70.048 93.758c-.032.031-.036.087-.12.036-.536-.118-1.123-.18-1.66-.296-.266-.055-.533-.11-.784-.177-.104-.066-.028-.152.01-.222a2.27 2.27 0 01.392-.414c.156-.047.354-.058.538-.07.252-.013.479.068.563.17.136.126.097.27.201.4.046.089.284.108.434.057.219-.059.402-.148.66-.174.144-.014.313-.027.447.007.019.079-.123.181-.324.19-.166.03-.36.045-.51.084-.114.052-.473.025-.353.142.096.069.285.097.436.138.09.01.045.06.064.091l.006.038zm-1.167-.372c-.019-.172-.024-.352-.188-.512-.062-.071-.26-.11-.41-.066-.259.06-.353.193-.465.303-.142.094.194.111.329.14.251.036.49.09.734.135zm2.397-.825c-.37-.082-.731-.176-1.136-.22l-.837-.11c-.172.025-.243.118-.344.18a.688.688 0 01-.51.162c-.174-.028.059-.134.073-.192.276-.27.53-.548.897-.797.081-.058.263-.16.414-.082.075.075-.041.156-.109.224-.086.078-.178.155-.257.235.115.099.395.108.61.137.448.065.88.155 1.283.264.171.033.274.118.09.177a.266.266 0 01-.174.022zm.074-1.047c.061.075.328.064.485.084.185.014.413.015.535.088.072.084-.14.19-.338.146-.59-.086-1.156-.203-1.726-.313-.178-.04-.376-.068-.53-.125-.083-.12.031-.245.114-.358.097-.106.178-.224.37-.304.141-.016.389-.07.495-.016-.206.152-.46.298-.55.475-.044.094.227.126.372.16.172.05.442.06.538-.038.137-.104.102-.248.326-.329.224-.062.354.074.268.153-.074.133-.214.257-.36.377zm3.256-1.203c-.242-.017-.46-.075-.684-.118-.718-.149-1.407-.325-2.131-.468-.052.008.1.096.122.134.119.113.187.24.238.36.132-.022.353-.107.46-.052.116.095-.058.173-.268.178-.394.058-.79.113-1.18.176.642.122 1.289.241 1.917.378.174.036.147.173-.036.193-.195.006-.363-.051-.54-.08a70.765 70.765 0 01-1.714-.376c-.177-.04-.13-.14-.025-.196.145-.066.355-.107.565-.1.138-.01.44.012.433-.072-.103-.134-.197-.27-.306-.403-.083-.072-.104-.165-.271-.21-.079-.064.043-.2.24-.16.384.063.75.147 1.133.212.579.113 1.139.246 1.731.344.168.016.37.041.385.133.02.04.062.116-.07.127z" font-size="12" font-weight="400" fill="#fff" font-family="Rufscript"/><path d="M73.726 80.076c-.748 2.047-1.022 4.098-1.167 6.248-.29 2.143-.967 4.165-1.785 6.151 3.468 1.053 7.61 1.164 11.366 1.524.345-1.78.574-3.574.953-5.353.39-2.387-.8-4.382-.963-6.657-.475-2.123-1.734-3.564-3.975-3.82" fill="#1a1a1a" fill-rule="evenodd" stroke="#000"/><path d="M60.062 40.635c-8.957-.053-12.5 5.854-12.62 13.536 0 1.607.743 4.77 1.142 6.363-.186 3.137-.963 5.507-.037 8.569 1.077 4.331 3.988 6.637 8.182 7.57 3.722-.072 8.725-1.336 11.514-3.936 3.995-3.267 5.198-8.796 6.667-13.628.522-4.616-1.719-9.02-3.03-13.326-1.827-4.711-7.352-5.808-11.818-5.148z" fill="#e9d2af" fill-rule="evenodd" stroke="#3f2d10"/><path d="M48.547 46.692c-.552-8.448 22.502-11.238 23.706-4.558 6.477.497 6.51 17.078 4.9 22.784-6.681-.068-3.207-7.805-7.091-9.746-1.655-.414-2.208.854-3.637 1.211-3.025-1.943.035-7.922-4.848-9.994-2.384.963-5.406 2.45-7.879 0-2.113 0-3.351 1.022-5.15.303z" fill="#28170b" fill-rule="evenodd" stroke="#120a04"/><path d="M76.19 63.72c-1.353 0 .978 4.817 1.213 5.754.363 1.452 2.992 3.584 3.939 4.846.804 1.07 4.26.053 5.151-.303 1.501-.6 3.249.218 3.94.908 2.154 2.154.866-.994.303-2.12-.443-.884-2.464-2.073-3.334-2.725-1.478-1.108-1.779-2.384-3.03-3.635-1.194-1.193-2.625-1.21-4.242-1.21-1.01 0-2.704-1.268-3.94-1.515z" fill="#28170b" fill-rule="evenodd" stroke="#120a04"/><path d="M62.031 83.199c3.176 2.75 9.06-1.891 9.59-6.421-1.927-1.373-3.788-3.266-6.33-3.16-1.815.727-3.219 2.097-4.591 3.448-.76 1.729.33 4.978 1.331 6.133z" fill="#e9d2af" fill-rule="evenodd" stroke="#3f2d10"/><path d="M47.536 74.543c.562 1.124 1.704 1.82 3.133 1.82 2.252.65 4.43 1.659 6.67 2.437 2.94.755 5.084-.745 7.258-2.436 3.663-1.893 7.458-5.115 8.222-9.343.215-1.77-.483-1.766-1.5-1.445-1.688 1.722-3.803 3.542-6.106 4.443-2.918.829-5.23 1.213-6.053-2.141-.968-2.778-4.092-3.575-6.67-4.23-5.476-.236-6.672 6.905-4.954 10.895zm4.901-7.522c2.643-1.115 8.15 5.679 3.375 5.408-2.006-.668-2.424-1.966-3.616-.295-4.252 1.288-2.575-4.045.241-5.113z" fill="#28170b" fill-rule="evenodd" stroke="#120a04"/><path d="M55.303 54.6c-1.17 2.57-.265 4.075 2.242 3.704.77.339 2.375-1.539 2.007-2.784.275-3.344-2.626-3.417-4.249-.92zM50.16 52.888c-2.017.452-2.964 1.992-2.57 4.283 2.328 4.298 6.757-1.886 2.57-4.283z" fill="#fff" fill-rule="evenodd" stroke="#333"/><path d="M53.16 56.1c-.356 2.065-2.356 3.026-3.428 4.069-.548 2.29-.219 3.935 2.357 3.426 1.8-.836 2.522-2.222 2.785-4.069M68.16 56.528c5.024-1.995 4.139 5.443.428 4.711M69.123 57.706c.73-1.279 2.65 1.01 0 2.249" fill="#e9d2af" fill-rule="evenodd" stroke="#3f2d10"/><path d="M51.018 69.805c.827.35 3.17.164 4.606 0" fill="none" stroke="#3f2d10"/><path d="M58.572 55.525c.449.042-.424-1.781-1.64-.543-.943.96-.095 2.381.548 2.532 1.291.302 1.642-1.778 1.092-1.99zM50.269 54.651c.313-.891-1.492-.176-1.028 1.88.32 1.418 1.456.545 1.542.47 1.151-1.02.22-3.62-.514-2.35z" fill-rule="evenodd" stroke="#000"/></svg>