<svg xmlns="http://www.w3.org/2000/svg" width="128" height="128" version="1.0"><defs><filter id="a" x="-.125" width="1.25" y="-.327" height="1.653"><feGaussianBlur stdDeviation="1.963"/></filter></defs><metadata/><path d="M516.748 456.566c-5.465.422-6.823-3.26-11.495.89-1.414 1.412-1.726 4.216-1.334 5.781 2.874 3.851 5.998 2.88 10.605 4.448 2.276.569 4.263.889 7.116.889 2.9 0 4.684 1.438 7.56 0 2.232-1.116 4.291-.772 6.227-2.224 1.513-1.134 2.227-3.124 2.669-4.892.784-3.135-1.877-3.607-3.558-4.448-2.161-1.08-5.907-.413-7.561 0-1.773.444-3.316-2.223-5.782-2.223-2 0-1.06 1.779-4.447 1.779z" transform="matrix(-1 0 0 1 586 -346)" fill-opacity=".728" fill-rule="evenodd" filter="url(#a)"/><path d="M68.438 107.34c2.355 3.085 5.543 3.832 8.735 4.307.6.719.323.287.28 1.173-.237.764-.51 1.512-.707 2.298-2.752.257-5.792 1.905-8.666.98-3.019.039-6.07-1.018-8.57-2.836-.577-1.71.043-4.028.177-5.922 2.784.875 5.95.733 8.75 0z" fill="#2b1100" fill-rule="evenodd" stroke="#0e0300"/><path d="M76.746 113.615c-3.251-.556-6.501 1.578-9.886 1.124-3.144-.104-4.775-2.388-7.084-2.538" fill="none" stroke="#0e0300"/><path d="M57.213 107.87c2.324 3.416 6.217 4.642 8.838 5.53.427.898.41.562.53 1.541-.143 1.294-.905 2.112-1.855 2.917-2.567.993-5.43.218-8.044-.265-2.294-.08-5-.607-6.599-2.356-2.47-2.31-2.055-4.503-1.798-7.72 2.976.225 5.944.353 8.928.353z" fill="#2b1100" fill-rule="evenodd" stroke="#0e0300"/><path d="M76.249 70.47c3.398 4.521.072 8.06.5 11.875.777 1.642 1.244 2.713 2.625 3.875 1.515.067 2.618.834 3 2.125-.886.894-2.152.588-3.375.5-.364 1.36 1.621 3.133 1.75 4.75-1.777 2.124-3.265-1.392-3.375-3-.211 1.547.653 4.063.5 5.125-2.037.4-2.74-3.014-2.75-4.75.04 1.903.99 3.81-1.25 3.75-1.537-1.132-1.17-3.24-1.375-5-.604-2.774-1.727-5.402-2-8.25.302-4.181-1.704-9.374.125-13.25 2.69-1.35 3.627 1.152 5.625 2.25z" fill="#fca" fill-rule="evenodd" stroke="#3f2d10"/><path d="M69.57 54.415c2.698 2.796 5.37 5.348 6.531 8.999 1.45 2.576 2.059 5.494 2.38 8.49-3.967.749-7.983-.038-11.917.503-1.8-4.78-1.493-10.027-1.591-15.063" fill="#a96a00" fill-rule="evenodd" stroke="#472c00"/><path d="M57.374 85.72c.145.779 2.014 1.802 1.75 3.125.487 3.515-1.534 7.202-1.25 11.5-.515 2.208 1.887 5.823.375 7.375-2.63 1.987-9.165 1.895-10.625-.625 1.018-3.858 2.097-7.493 1.5-11.5-.058-3.791-.768-7.456-.625-11.25 2.167-.801 7.507-.221 8.875 1.375zM68.499 85.595c.145.779 1.89 2.927 1.625 4.25-.944 2.795-2.074 5.28-1.375 8.125-.016 2.79 2.997 7.824 1 9.875-2.846 1.127-7.831 1.47-10.25-1 1.245-3.852 1.343-7.364.75-11.375-.029-3.8-.769-7.43-.625-11.25 2.167-.801 7.507-.221 8.875 1.375z" fill="#002f23" fill-rule="evenodd" stroke="#00140f"/><path d="M44.34 90.371c2.804-3.461.872-8.645.514-12.609 1.229-4.957-1.961-10.247-.909-15.203.466-3.105 1.497-5.902 3.057-8.61 1.785-2.413 4.168-3.786 7.196-3.94 3.886.568 7.809.044 11.668.883 2.847 1.239 4.81 3.291 5.126 6.364.138 2.774.576 4.899 1.863 7.403.387 4.452 4.614 8.846 3.987 13.31-.683 7.523-1.925 9.094-2.616 13.005-4.482-2.566-10.29 1.302-15.38.732-4.268-1.526-11.859 1.902-14.507-1.335z" fill="#a96a00" fill-rule="evenodd" stroke="#472c00"/><path d="M46.999 80.22c-.553 3.26-1.995 6.033-.5 9 1.097 1.13 2.686-.507 3.5 1.125-.325 1.412-1.69 1.773-3 2.125.94 1.856 2.741 3.42.875 5.5-1.21-.621-2.044-2.018-2.375-3.25-.137 1.436 1.075 4.29-1.625 3.125-1.311-.983-.672-2.42-.75-3.875-1.049 1.62-1.365 4.056-2.75 1.25-.14-1.258.468-2.133 1.125-3.125.17-1.268-.283-2.598-.5-3.875-1.594-2.694-2.67-5.444-3.125-8.5 1.814-2.387.593-5.983 2.125-8.375.427-1.072.835-1.99 1.5-2.875 2.815-.805 5.105.014 6.375 2.625 1.78 3.53 1.6 6.834-.875 9.125z" fill="#fca" fill-rule="evenodd" stroke="#3f2d10"/><path d="M53.664 59.45c-.128 2.541.107 5.246-.716 7.623-.664 2.435-1.732 4.543-1.758 7.05-4.205-.446-8.705-2.213-12.905-3.536.44-2.07 1.01-4.102 1.414-6.187.668-2.744 1.856-4.971 3.066-7.342 1.477-2.066 4.485-2.417 7.01-1.673" fill="#a96a00" fill-rule="evenodd" stroke="#472c00"/><path d="M66.554 52.988c4.47 12.204-10.047 3.447-13.405-1.29 1.218-2.477 2.08-5.453 4.75-6.75 2.267-.259 4.467.372 6.625 1 1.738 1.356 2.42 5.298 2.03 7.04z" fill="#fca" fill-rule="evenodd" stroke="#3f2d10"/><path d="M62.796 11.135c10.45-.061 14.585 6.834 14.724 15.803 0 1.876-.867 5.568-1.332 7.428.217 3.662 3.422 6.782 2.341 10.357-1.257 5.056-6.951 7.394-11.844 8.485-4.343-.085-9.18-2.185-12.435-5.221-4.66-3.814-5.438-10.019-7.153-15.66-.61-5.39.38-10.155 1.91-15.182 2.132-5.5 8.578-6.78 13.79-6.01z" fill="#fca" fill-rule="evenodd" stroke="#3f2d10"/><path d="M70.601 12.878c-4.382-3.94-18.02-4.69-22.03.007-9.864 3.145-2.888 21.403-.592 27.599 1.374-.014 2.929-.183 2.709-.873-2.797-8.77-3.381-9.748.44-11.505 1.932-.483 2.577.997 4.244 1.414 3.067-2.084-12.535-10.862 1.06-16.44 8.855-1.445 6.03-2.08 14.17-.202z" fill="#e6e6e6" fill-rule="evenodd" stroke="#b3b3b3"/><path d="M68.349 27.44c1.366 2.998.309 4.756-2.616 4.323-.899.395-2.146-1.797-1.716-3.25.803-2.498 2.496-3.916 4.332-1.074zM74.724 25.94c2.353.528 3.083 1.826 2.625 4.5-2.718 5.017-7.51-1.702-2.625-4.5z" fill="#fff" fill-rule="evenodd" stroke="#333"/><path d="M72.724 32.814c5.923 5.884 3.82 3.285 3.125 7.125-4.792 2.73-5.895 1.902-5.25-2M53.349 29.69c-5.864-2.33-4.83 6.354-.5 5.5M52.224 31.064c-.851-1.493-3.093 1.18 0 2.625" fill="#fca" fill-rule="evenodd" stroke="#3f2d10"/><path d="M75.69 43.525c-.214 3.322-7.166 7.788-10.656 1.16" fill="none" stroke="#3f2d10"/><path d="M67.108 28.66c-.387-.358 1.252-.648 1.125 1.374-.099 1.567-1.743 1.066-2.375.625-1.27-.885.637-2.313 1.25-2zM75.224 28.702c-.458-.949 1.802-.938 1.125 1.25-.468 1.51-2.16.618-2.25.5-.93-1.21.053-3.102 1.125-1.75z" fill-rule="evenodd" stroke="#000"/><path d="M65.875 116.002c-3.129.67-6.524 1.018-8.95.058-2.915-.386-5.515-.99-8.198-3.859" fill="none" stroke="#0e0300"/></svg>