<svg xmlns="http://www.w3.org/2000/svg" width="128" height="128" version="1.0"><defs><filter id="a" x="-.125" width="1.25" y="-.327" height="1.653"><feGaussianBlur stdDeviation="1.963"/></filter></defs><metadata/><path d="M113.663-51.665c-5.465.423-6.823-3.26-11.495.89-1.413 1.413-1.726 4.217-1.334 5.782 2.874 3.85 5.998 2.88 10.605 4.447 2.276.57 4.263.89 7.116.89 2.9 0 4.684 1.438 7.56 0 2.232-1.116 4.292-.772 6.227-2.224 1.513-1.134 2.227-3.124 2.669-4.892.784-3.136-1.877-3.607-3.558-4.448-2.161-1.08-5.906-.414-7.56 0-1.774.443-3.317-2.224-5.783-2.224-2 0-1.06 1.78-4.447 1.78z" transform="matrix(-1.12307 0 0 1.07352 198.267 166.269)" fill-opacity=".728" fill-rule="evenodd" filter="url(#a)"/><path d="M56.624 108.664c2.867.124 6.6-.899 9.766-.077.774.626 1.208 1.57 1.74 2.4.43 1.23.097 2.296-.412 3.433-1.885 2.005-4.8 2.545-7.367 3.24-2.104.92-6.271 2.615-8.469 1.729-3.226-1.015-4.05-4.171-3.46-7.183a117.976 117.976 0 008.202-3.542z" fill="#e6e6e6" fill-rule="evenodd" stroke="#333"/><path d="M67.752 112.167c-2.593 1.876-6.81 4.062-9.416 4.161-2.824.823-5.697 2.318-9.308.775" fill="none" stroke="#333"/><path d="M68.124 108.914c2.867.124 6.6-.899 9.766-.077.774.626 1.208 1.57 1.74 2.4.43 1.23.097 2.296-.412 3.433-1.885 2.005-4.8 2.545-7.367 3.24-2.104.92-6.271 2.615-8.469 1.729-3.226-1.015-4.05-4.171-3.46-7.183a117.976 117.976 0 008.202-3.542z" fill="#e6e6e6" fill-rule="evenodd" stroke="#333"/><path d="M49.472 77.7c3.291-.335 6.912-1.395 9.374-3.625.798-1.36-1.204-2.455.153-3.674 1.447-.062 2.159 1.157 2.846 2.327 1.54-1.4 2.567-3.553 5.07-2.307-.277 1.332-1.402 2.507-2.502 3.154 1.422-.25 3.85-2.178 3.445.735-.598 1.525-2.153 1.292-3.535 1.754 1.84.58 4.272.236 1.936 2.318-1.176.47-2.18.117-3.311-.253-1.268.173-2.429.964-3.603 1.513-2.173 2.253-4.944 3.487-7.769 4.739-2.783-1.114-7.768 2.056-10.481 1.216-1.147-.127-1.445-10.077-2.476-10.482-1.525-2.499 2.37-2.325 4.548-4.244 2.927-2.359 3.422 6.945 6.305 6.828z" fill="#e9d2af" fill-rule="evenodd" stroke="#3f2d10"/><path d="M46.345 59.186c-2.699 2.796-4.496 5.973-5.657 9.624-1.449 2.576-2.933 4.87-3.255 7.865 3.967.749 7.984-.038 11.917.503 1.801-4.78 1.493-10.027 1.591-15.063" fill="#1a1a1a" fill-rule="evenodd" stroke="#000"/><path d="M68.61 90.74c.144.78.889 2.803.624 4.126-.203 1.016-.508 2.03-.75 3-.519 2.545.446 4.982.625 7.5-.515 2.208.137 5.698-1.375 7.25-2.63 1.987-6.665 1.895-8.125-.625.25-1.001.06-1.598.5-2.625 1.286-2.74.677-5.864.25-8.75-.058-3.791-.767-7.456-.625-11.25 2.168-.801 7.507-.221 8.875 1.375zM57.484 90.616c.145.779.89 2.802.625 4.125-.943 2.795-1.074 5.406-.375 8.25-.016 2.79.872 7.45-1.125 9.5-2.845 1.127-5.706 1.845-8.125-.625 1.246-3.852 1.344-7.364.75-11.375-.029-3.8-.768-7.43-.625-11.25 2.168-.801 7.507-.221 8.875 1.375z" fill="#00325c" fill-rule="evenodd" stroke="#00192e"/><path d="M44.703 93.892c2.805-3.461-.377-8.145-.735-12.109-2.143-3.271-.89-10.658.34-15.703.467-3.105 1.497-5.902 3.058-8.61 1.784-2.413 4.167-3.786 7.196-3.94 3.886.568 7.808.044 11.667.883 2.847 1.239 4.81 3.291 5.127 6.364.137 2.774-.05 5.274 1.237 7.778.387 4.452-.136 9.221-.762 13.685-.895 5.194 3.334 7.075 2.758 12.255-4.481-2.566-10.29 1.302-15.38.732-4.267-1.526-11.858 1.902-14.506-1.335z" fill="#1a1a1a" fill-rule="evenodd" stroke="#000"/><path d="M78.701 74.495c2.871-1.643 5.75-4.082 7.093-7.12.177-1.566-2.097-1.754-1.353-3.419 1.298-.645 2.443.18 3.547.97.838-1.905.901-4.29 3.694-4.168.288 1.33-.261 2.86-1.004 3.899 1.197-.806 2.633-3.555 3.446-.728.073 1.637-1.442 2.055-2.518 3.039 1.918-.218 4-1.52 2.712 1.331-.884.907-1.945.993-3.13 1.115-1.088.672-1.826 1.867-2.676 2.846-1.07 2.941-3.102 5.194-5.174 7.485-2.996.113-4.41 3.664-7.23 3.999-1.1.35-7.318-6.133-8.425-6.084-2.408-1.664 1.271-4.204 2.482-6.843 1.717-3.344 5.948 4.956 8.536 3.678z" fill="#e9d2af" fill-rule="evenodd" stroke="#3f2d10"/><path d="M70.075 59.419c1.744 1.852 2.981 3.927 4.127 6.167 1.296 2.165 2.953 4.024 4.744 5.779-3.234 2.724-7.625 4.747-11.488 6.861-1.188-1.752-2.26-3.57-3.484-5.305-1.517-2.382-1.158-5.07-2.03-7.585-.468-2.496.219-4.621 2.504-5.928" fill="#1a1a1a" fill-rule="evenodd" stroke="#000"/><path d="M51.86 56.508c1.739 4.585 10.352 3.074 13.405-1.289-1.218-2.477-2.08-5.453-4.75-6.75-2.266-.259-4.466.372-6.625 1-1.738 1.356-2.419 5.298-2.03 7.04z" fill="#e9d2af" fill-rule="evenodd" stroke="#3f2d10"/><path d="M54.283 10.941c-4.452.061-9.019 1.75-10.75 6.219-1.53 5.026-4.172 10.173-3.563 15.562 1.715 5.642 3.121 12.093 7.782 15.907 3.254 3.035 9.094 4.508 13.437 4.593 4.893-1.09 8.306-3.787 9.563-8.843.906-2.997.403-5.417.093-8.282 1.139.727 2.426 1.036 4 .72 2.774-1.301 1.942-3.098-.156-4.876-.964-.134-2.18-.06-3.375-.25.368-1.7.719-3.546.719-4.719-.14-8.968-4.268-15.873-14.719-15.812a19.075 19.075 0 00-3.031-.219z" fill="#e9d2af" fill-rule="evenodd" stroke="#3f2d10"/><path d="M70.066 24.21c-2.354.529-3.459 2.327-3 5 2.717 5.018 7.885-2.201 3-5z" fill="#fff" fill-rule="evenodd" stroke="#333"/><path d="M61.519 32.083c-4.886-1.93-3.336 6.655.058 5.514M60.733 33.529c-.805-1.431-2.376 1.382.219 2.615" fill="#e9d2af" fill-rule="evenodd" stroke="#3f2d10"/><path d="M70.932 25.546c.457-.949-2.177-.187-1.5 2 .467 1.51 2.124.581 2.25.5 1.68-1.085.321-3.852-.75-2.5z" fill-rule="evenodd" stroke="#000"/><path d="M70.408 17.254c-2.681.747-5.684-1.716-6.5 1.25-1.12 2.333-2.546 3.512-1 6 .97 1.62.39 6.243 1.25 9.25-.374.373-5.156-3.25-5.75-3.25-1.2 3.356-.397 6.868 0 10.5-.186 5.958-4.313 7.676-7.75 10.75-3.283-.985-7-2.49-7.5-5.5-8.185-10.308-10.339-28.105 1.5-34.25 3.41-4.186 13.277-5.33 21.5-1.75 2.248 1.897 8.037 5.801 4.25 7zM57.658 53.004c3.497 3.501 7.253 1.785 10.75.5 2.262-1.16 3.927-5.606 5-7.75-3.352-2.312-1.183-4.048-1-6.25-1.95-1.58-5.103.831-6.25 2.5-.685 5.727-5.713 6.11-10.5 7.5-1.87 1.71.367 2.553 2 3.5z" fill="#28170b" fill-rule="evenodd" stroke="#120a04"/><path d="M46.719 43.514c1.668-.555-.853 8.078-.828 9.293.04 1.883-4.198 2.918-4.941 4.812-2.966 4.131-2.424 1.212-5.587 4.818-.432-4.041 1-7.6 1.667-9.51.582-2.115 2.09-3.406 4.082-4.068 1.244-.414 4.167-4.544 5.607-5.345z" fill="#28170b" fill-rule="evenodd" stroke="#120a04"/><path d="M80.002 112.417c-2.593 1.876-6.81 4.062-9.416 4.161-2.824.823-5.697 2.318-9.308.775" fill="none" stroke="#333"/><path style="-inkscape-font-specification:Rufscript" d="M45.554 70.307c-.126-.012-.311.048-.205-.145-.004-.974-.232-1.962-.243-2.937-.012-.479-.029-.961.008-1.432.14-.24.477-.224.736-.25a9.132 9.132 0 011.64.113c.269.186.448.482.622.753a.867.867 0 01-.145 1.08c-.313.362-.815.475-1.162.793-.26.178-.148.572.13.743.35.27.776.448 1.05.817.152.208.315.457.301.706-.242.123-.682.025-.855-.277-.22-.222-.41-.505-.65-.693-.254-.114-.427-.705-.72-.379-.158.232-.113.56-.137.844.031.152-.163.143-.25.21l-.12.054zm.368-2.262c.55-.236 1.135-.46 1.538-.906.19-.182.168-.537-.084-.717-.383-.332-.887-.319-1.331-.36-.41-.11-.222.435-.216.678.064.435.06.87.093 1.305zm4.45 2.741c-.002-.673.043-1.35-.111-2.031a232.49 232.49 0 01-.245-1.435c-.21-.238-.566-.236-.844-.32-.34-.064-.803-.194-.903-.597-.034-.307.484-.072.685-.118 1.086.104 2.18.167 3.264.44.248.057.714.218.57.546-.192.207-.54.122-.812.099-.32-.04-.64-.091-.958-.118-.239.297-.065.743-.006 1.112.116.776.135 1.556.074 2.314.016.306-.186.567-.514.351-.1-.04-.206-.128-.2-.243zm3.482-1.14c-.198.172.025.563.07.817.09.317.267.687.113.976-.222.213-.727.012-.726-.35-.147-1.023-.178-2.043-.234-3.06 0-.326-.051-.669.023-.977.333-.273.825-.245 1.258-.252.418.025.861.01 1.264.213.154.2.513.52.413.75-.646-.139-1.313-.36-1.955-.287-.341.045-.249.506-.257.772-.034.326.13.759.52.79.44.09.888-.138 1.315.114.367.274.016.638-.304.6-.49.044-1-.025-1.5-.107zm6.32 3.623c-.121-.397-.09-.806-.115-1.205-.037-1.296.04-2.58-.021-3.878-.065-.07-.242.27-.349.352-.285.32-.65.579-1.005.8.16.179.616.425.503.654-.224.294-.607.117-.779-.203-.475-.544-.945-1.095-1.435-1.627.068 1.147.149 2.296.16 3.438.01.313-.458.436-.659.175-.161-.296-.097-.626-.131-.935a66.467 66.467 0 01-.02-3.118c0-.322.365-.37.624-.274.323.146.61.423.737.76.136.202.285.698.554.586.365-.321.74-.63 1.098-.959.174-.216.464-.36.491-.674.15-.199.688-.174.696.181.075.675.067 1.344.133 2.018.054 1.036.027 2.067.137 3.107.07.28.137.625-.156.757-.115.079-.333.236-.464.045z" font-size="7.685" font-weight="400" fill="#fff" font-family="Rufscript"/></svg>