<svg xmlns="http://www.w3.org/2000/svg" width="128" height="128" version="1.0"><defs><filter id="a" x="-.125" width="1.25" y="-.327" height="1.653"><feGaussianBlur stdDeviation="1.963"/></filter></defs><metadata/><path d="M55.242 112.044c-5.465.422-6.823-3.26-11.495.89-1.413 1.413-1.725 4.217-1.334 5.781 2.874 3.851 5.998 2.88 10.605 4.448 2.277.569 4.263.89 7.116.89 2.9 0 4.684 1.438 7.561 0 2.231-1.116 4.29-.773 6.227-2.224 1.512-1.135 2.226-3.124 2.668-4.893.784-3.135-1.876-3.607-3.558-4.447-2.16-1.08-5.906-.414-7.56 0-1.774.443-3.317-2.224-5.782-2.224-2 0-1.06 1.779-4.448 1.779z" fill-opacity=".728" fill-rule="evenodd" filter="url(#a)"/><path d="M63.942 108.472c-2.719.919-6.59.976-9.401 2.648-.569.816-.722 1.844-1.002 2.79-.07 1.3.547 2.232 1.352 3.182 2.37 1.4 5.32 1.106 7.978 1.058 2.277.298 5.032.223 6.896-1.24 2.815-1.874 2.767-4.105 3.04-7.321a117.973 117.973 0 01-8.863-1.117z" fill="#e6e6e6" fill-rule="evenodd" stroke="#333"/><path d="M64.012 87.471c-.145.779-.89 2.802-.625 4.125.204 1.016.508 2.031.75 3 .52 2.545-.445 4.982-.625 7.5.516 2.209-.136 5.698 1.375 7.25 2.63 1.988 6.665 1.895 8.125-.625-.25-1.001-.06-1.598-.5-2.625-1.286-2.74-.677-5.864-.25-8.75.058-3.791 7.309-7.633 7.166-11.427-2.167-.8-14.047-.044-15.416 1.552z" fill="#00325c" fill-rule="evenodd" stroke="#00192e"/><path d="M54.062 115.072c2.976 1.176 6.268 2.075 8.818 1.526 2.94.098 5.604-.072 8.721-2.46" fill="none" stroke="#333"/><path d="M58.527 110.35c-2.621 1.167-6.47 1.583-9.115 3.508-.49.865-.548 1.903-.739 2.87.05 1.301.751 2.172 1.642 3.043 2.488 1.176 5.399.61 8.041.315 2.295.085 5.031-.245 6.752-1.875 2.63-2.126 2.374-4.343 2.349-7.57-2.984.01-5.954-.076-8.93-.29z" fill="#e6e6e6" fill-rule="evenodd" stroke="#333"/><path d="M61.538 86.764c-.146.779-4.072 4.393-3.807 5.716.203 1.016.507 2.031.75 3 .518 2.545-.446 4.982-.625 7.5.515 2.209-.137 5.698 1.375 7.25 2.63 1.988 6.664 1.895 8.125-.625-.25-1.001-.06-1.598-.5-2.625-1.286-2.74-.677-5.864-.25-8.75.057-3.791 11.02-9.224 10.878-13.018-2.168-.8-14.578-.044-15.946 1.552z" fill="#00325c" fill-rule="evenodd" stroke="#00192e"/><path d="M49.302 117.837c3.072.895 6.433 1.485 8.922.702 2.935-.175 5.572-.59 8.455-3.258" fill="none" stroke="#333"/><path d="M57.205 9.424c-10.45-.01-14.551 6.905-14.647 15.874.01 1.876.895 5.565 1.369 7.422-.199 3.663-1.092 6.434.006 10.003 1.281 5.05 4.156 6.844 9.054 7.91 4.343-.106 6.985-2.654 10.225-5.706 4.642-3.837 9.736-8.372 11.422-14.022.583-5.392-2.056-10.52-3.611-15.539-2.158-5.49-8.61-6.738-13.818-5.942z" fill="#e9d2af" fill-rule="evenodd" stroke="#3f2d10"/><path d="M43.602 28.037c-.898 2.276-3.412 2.899-4.884 3.835-1.172 2.488-1.187 4.445 1.876 4.477 2.255-.527 3.41-1.94 4.15-3.988" fill="#e9d2af" fill-rule="evenodd" stroke="#3f2d10"/><path d="M45.24 23.294c-1.351 3.005-.286 4.758 2.637 4.31.9.392 2.762-1.81 2.325-3.261.303-3.906-3.082-3.974-4.962-1.049z" fill="#fff" fill-rule="evenodd" stroke="#333"/><path d="M46.504 23.654c.385-.359-1.882-1.013-1.745 1.009.106 1.566 2.003 1.93 2.633 1.487 1.265-.891-.277-2.812-.888-2.496z" fill-rule="evenodd" stroke="#000"/><path d="M76.07 31.304c-1.562-.236.29 5.73.397 6.853.167 1.74 2.83 4.658 3.702 6.279.741 1.376 4.905.802 5.996.546 1.836-.432 3.71.817 4.387 1.733 2.111 2.861 1.172-.996.718-2.394-.356-1.098-2.481-2.822-3.371-3.726-1.513-1.536-1.638-3.062-2.864-4.722-1.17-1.585-2.817-1.855-4.684-2.136-1.165-.176-2.898-1.933-4.281-2.433z" fill="#28170b" fill-rule="evenodd" stroke="#120a04"/><path d="M80.632 91.29c-2.742-3.07.953-9.244-1-12.882-.438-6.1-3.192-14.01-5.049-18.723-.972-2.986-3.886-3.47-5.872-5.884-2.159-2.085-3.05-2.235-6.063-1.887-3.738 1.203-3.27.76-6.938 2.225-2.603 1.692-4.2 4.04-4.005 7.123.322 2.758.919 5.193.064 7.875.353 4.455-2.832 9.51-1.477 13.809 1.74 4.974.954 6.738 2.377 11.751 3.996-3.27 11.778-.062 16.703-1.464 3.958-2.21 9.182 1.685 11.26-1.944z" fill="#1a1a1a" fill-rule="evenodd" stroke="#000"/><path d="M54.463 55.53c1.836 4.547 11.122 2.854 14.082-1.572-2.6-2.784-2.66-6.761-4.892-7.886-2.272-.21-4.458.467-6.602 1.14-1.71 1.393-3.014 6.586-2.588 8.319z" fill="#e9d2af" fill-rule="evenodd" stroke="#3f2d10"/><path d="M71.137 36.023c-4.838-.918-5.768 2.584-7.823 4.163-2.246.541-4.181 1.796-6.363 2.5-.916.005-1.715.042-2.47-.331-1.913-.988-3.263-2.76-4.802-4.227-2.286-1.063-3.936-1.574-6.54-1.562-1.39.972-2.923 1.066-1.289 4.663 3.507.074 5.02-.718 7.251.215 1.636 1.357 1.671 3.568-.447 4.47-1.652-.296-3.178-.041-4.072-1.917-2.713.261-2.258 2.385-1.385 4.225.64 4.364 3.546 5.034 7.771 4.4 2.69-.346 6.185.094 8.672-.917 2.22-1.414 3.7-2.695 5.3-4.808 1.341-2.9 3.442-4.479 5.084-6.899.354-1.67 2.466-2.803 1.113-3.975zM43.27 15.68c-.693-9.86 26.19-13.248 27.633-5.457 7.968.623 8.125 19.949 2.485 25.88-.46-.707-1.921-.699-2.127-1.79-.869-4.609-.341-12.037-4.267-11.325-3.416-1.112-2.173 3.4-2.985 4.08-5.652-3.504.132-9.449-5.538-11.817-2.776 1.138-6.294 2.89-9.192.045-2.466.012-3.905 1.213-6.009.383z" fill="#28170b" fill-rule="evenodd" stroke="#120a04"/><path d="M65.838 23.516c5.851-2.358 4.86 6.33.526 5.498M66.97 24.886c.843-1.497 3.098 1.165.012 2.625" fill="#e9d2af" fill-rule="evenodd" stroke="#3f2d10"/><path d="M44.13 42.564c.967.404 1.325.185 3-.015" fill="none" stroke="#3f2d10"/><path d="M71.292 83.023c-.28 3.296-1.279 6.934-3.468 9.432-1.346.82-2.475-1.162-3.67.215-.038 1.448 1.192 2.139 2.373 2.807-1.373 1.563-3.51 2.626-2.222 5.107 1.328-.299 2.484-1.443 3.112-2.553-.226 1.425-2.113 3.885.793 3.432 1.515-.624 1.255-2.175 1.694-3.565.61 1.831.308 4.269 2.35 1.898.45-1.183.08-2.182-.308-3.307.152-1.27.924-2.444 1.453-3.627 2.216-2.21 3.403-5.002 4.608-7.847-1.16-2.765 1.464-5.544.578-8.242-.145-1.144-.311-2.135-.733-3.16-2.524-1.482-4.947-1.261-6.829.95-2.31 2.966.337 5.575.269 8.46z" fill="#e9d2af" fill-rule="evenodd" stroke="#3f2d10"/><path d="M64.76 63.768c.128 2.54.768 4.87 1.59 7.248.665 2.434.858 4.917.884 7.424 4.205-.446 9.455-2.713 13.655-4.035-.44-2.07-.76-4.728-1.164-6.813-.523-2.816-4.604-8.137-7.657-8.15" fill="#1a1a1a" fill-rule="evenodd" stroke="#000"/><path style="-inkscape-font-specification:Rufscript" d="M52.086 70.64c-.063-.007-.157.062-.103-.136-.003-.974-.118-1.951-.124-2.926-.006-.478-.014-.96.005-1.432.07-.247.241-.246.372-.284.274-.036.554-.023.83.04.137.174.228.462.316.725.116.367.064.821-.074 1.087-.158.376-.412.511-.588.844-.132.19-.075.58.066.738.178.254.393.413.531.77.078.2.16.442.153.692-.122.134-.345.056-.433-.238-.112-.212-.208-.487-.33-.664-.128-.103-.216-.687-.364-.347-.08.24-.057.566-.07.85.017.151-.082.15-.126.22l-.06.06zm.187-2.279c.278-.26.575-.51.779-.975.096-.19.085-.544-.043-.713-.194-.314-.45-.28-.674-.3-.208-.092-.112.445-.11.687.033.433.031.868.048 1.301zm2.254 2.542c-.001-.673.021-1.352-.057-2.027a437.2 437.2 0 01-.124-1.423c-.106-.229-.286-.211-.427-.283-.172-.048-.407-.157-.457-.556-.018-.305.245-.094.346-.149.55.055 1.105.07 1.654.294.125.046.361.186.288.52-.097.216-.273.147-.41.136-.163-.026-.325-.063-.486-.075-.121.308-.033.746-.003 1.112.059.771.068 1.55.037 2.31.008.306-.094.576-.26.375a.276.276 0 01-.101-.234zm1.764-1.297c-.101.181.012.563.035.815.045.312.135.674.057.97-.112.223-.368.045-.368-.318-.074-1.016-.09-2.034-.118-3.05 0-.325-.026-.665.012-.977.168-.287.417-.282.636-.308.212.006.437-.03.64.156.079.193.26.497.21.73-.327-.108-.665-.3-.99-.198-.173.06-.126.517-.13.784-.018.327.065.753.263.766.223.07.45-.178.666.055.186.258.008.638-.154.615-.248.066-.506.02-.76-.04zm3.2 3.34c-.061-.392-.045-.802-.058-1.2-.019-1.295.02-2.58-.01-3.877-.033-.067-.123.281-.177.367-.144.333-.33.608-.51.846.082.171.313.398.256.63-.114.305-.308.146-.395-.167-.24-.523-.478-1.053-.727-1.562.035 1.144.076 2.29.08 3.43.006.313-.23.457-.333.205-.081-.289-.049-.622-.066-.929-.012-1.04-.022-2.082-.01-3.118 0-.322.185-.385.316-.301.164.131.309.395.373.726.07.196.144.686.28.561.186-.337.376-.663.557-1.008.088-.223.235-.38.249-.696.076-.205.348-.204.352.15.038.671.034 1.341.068 2.013.027 1.033.013 2.065.069 3.1.035.277.07.62-.079.764-.058.084-.169.251-.235.066z" font-size="7.685" font-weight="400" fill="#fff" font-family="Rufscript"/></svg>