<svg xmlns="http://www.w3.org/2000/svg" width="128" height="128" version="1.0"><defs><filter id="a" x="-.046" width="1.093" y="-.212" height="1.423"><feGaussianBlur stdDeviation="1.929"/></filter></defs><metadata/><path d="M14.85 107.14c-4.52 2.327-1.424 5.899 2.12 6.718 1.644.41 6.173-.313 7.425 0 1.795 3.89-1.618 5.598 3.536 6.364 8.518-.647 17.193-1.06 25.81-1.06 3.33-.373 6.17-.856 8.838 1.413 2.064 2.042 5.041.976 7.778 1.768 1.542.386 3.351 2.121 4.95 2.121 1.768 0 5.303-.707 7.07-.707 7.941-.181 13.45-3.243 21.214-4.596 2.685 0 .6-2.828 3.536-2.828 4.962-.508 7.258-.758 2.475-5.657-14.87-8.259-42.271-10.057-57.983-6.01-11.903-.022-24.947 3.486-36.77 2.474z" transform="matrix(.98987 0 0 .98988 -2.867 .015)" fill-opacity=".848" fill-rule="evenodd" filter="url(#a)"/><path d="M63.147 68.024c-1.077.889-1.498 2.01-1.843 3.307-1.12 2.54-.595 5.453-2.226 7.732-1.23 1.312-1.995 2.18-3.648 2.856-1.449-.396-2.72-.007-3.471 1.094.564 1.111 1.85 1.206 3.029 1.494-.07 1.392-2.478 2.461-3.089 3.946 1.031 2.54 3.499-.323 4.09-1.805-.27 1.522-1.847 3.632-2.025 4.678 1.799.994 3.497-2.01 4.031-3.643-.614 1.782-2.087 3.292.042 3.913 1.791-.601 2.085-2.698 2.81-4.295 1.41-2.431 3.265-4.567 4.385-7.168.982-4.032 4.446-8.318 3.898-12.525-2.126-2.086-3.767-.013-5.983.416z" fill="#e9d2af" fill-rule="evenodd" stroke="#3f2d10"/><path d="M26.53 63.55c-.167-.042-.45 2.65-1.75 5.25-3.875 7.75-3.432 16.145-5.25 24.322-1.667 5.123-3.736 10.112-5.424 15.224-1.173 3.285 3.51 2.667 6.125 2.625 2.482-2.993 45.865-2.012 46.896-3.5-4.807-8.805 6.457-36.22 2.8-43.047-6.878 1.112-13.769 2.385-20.824 2.275-4.966-1.271-19.5 1.82-22.573-3.15z" fill="#bfb074" fill-rule="evenodd" stroke="#3f381d"/><path d="M71.519 50.399c-2.672 2.767-4.45 5.912-5.6 9.526-1.434 2.55-2.904 4.82-3.222 7.786 3.927.741 7.902-.037 11.797.498 1.782-4.733 1.477-9.925 1.574-14.91" fill="#1a1a1a" fill-rule="evenodd" stroke="#000"/><path d="M99.15 64.6c-12.571 4.771-25.365-2.558-37.973.524-6.03 1.74-33.888-5.594-34.822-1.575.555 4.464-.076 9.906-.175 14.35-.698 7.492-.576 15.151-1.925 22.573-1.459 5.413.35 10.427.35 15.749 0 .294 3.919-.91 4.2-1.05 11.84-1.185 19.714 1.382 29.398-.875 5.938-1.485 19.054 0 25.897 0 3.516-1.653 17.281 1.834 18.549-1.05v-6.3c.302-8.9-1.898-17.608-2.45-26.423.222-3.197 3.709-14.888-1.05-15.924z" fill="#f8edbf" fill-rule="evenodd" stroke="#3f381d"/><path d="M80.18 82.9c-5.472 2.358-20.867-.638-23.535 5.277-1.311 5.218.977 10.192 1.1 15.392-.188 4.764-.331 9.635 5.059 11.213 3.517 2.742 7.235 5.123 10.998 7.476 4.194-1.482 8.48-2.874 12.978-3.738 4.173-.461 8.151-1.28 12.098-2.638 1.82-.455 1.048-.675 1.54-2.639-.093-5.428 2.266-10.173 1.979-15.611v-3.958c.092-2.299-2.855-2.856-4.62-3.738-5.334-3.529-11.78-4.343-17.596-7.036z" fill="#784421" fill-rule="evenodd" stroke="#28170b"/><g stroke="#333" stroke-width="1.01"><path d="M32.738 82.342c-3.096-.945-5.682-1.65-8.984-1.19-.868.352-1.17.977-1.55 1.778-.15.786-.262 1.575-.459 2.36 2.307 1.523 4.213 4.41 7.184 4.947 2.644 1.455 5.834 1.96 8.895 1.534 1.314-1.237 1.86-3.573 2.633-5.308-2.868-.54-5.593-2.155-7.72-4.121z" fill="#e6e6e6" fill-rule="evenodd" transform="matrix(.98987 0 0 .98988 23.91 22.889)"/><path d="M22.168 84.992c4.89-2.522 8.372-1.318 11.387 2.124 3.019 1.27 4.65 2.36 3.709 4.211" fill="none" transform="matrix(.98987 0 0 .98988 23.91 22.889)"/></g><path d="M101.875 92.684c-4.368 1.061-12.03 2.461-16.415 3.629-2.999.368-5.77 1.406-8.579 2.418-1.735.434-2.2 1.42-2.2 3.518 1.071 4.527-.288 8.801-1.099 13.193-.128 2.31.46 4.105.083 6.395" fill="none" stroke="#28170b"/><g stroke="#333" stroke-width="1.01"><path d="M41.827 83.621c-2.53 1.352-6.34 2.044-8.839 4.155-.427.898-.41 1.938-.53 2.916.144 1.294.905 2.112 1.856 2.917 2.567.993 5.429.219 8.043-.265 2.295-.08 5-.607 6.6-2.356 2.469-2.31 2.055-4.503 1.797-7.72-2.975.225-5.944.353-8.927.353z" fill="#e6e6e6" fill-rule="evenodd" transform="matrix(.84793 .51075 -.51074 .84794 69.925 17.021)"/><path d="M33.165 91.753c2.354-3.808 8.456-4.63 11.15-4.04 2.915-.526 3.309-.214 5.997.24" fill="none" transform="matrix(.84793 .51075 -.51074 .84794 69.925 17.021)"/></g><path d="M56.947 88.452c-.16-.064 4.773 2.955 10.256 4.782 2.955 1.751 5.325 3.585 7.809 5.992" fill="none" stroke="#28170b"/><path d="M86.149 77.95c2.215 3.21 2.614 5.334 1.484 8.167.32 1.277-3.138 3.043-4.33 3.341-5.447.025-10.459.732-15.467 2.846-4.616 2.792-5.548 10.677-5.197 15.096-1.577 2.458-4.008-2.988-7.053-3.217-.141-5.08 3.112-8.099.743-12.003-.738-2.24.452-3.894 1.113-6.063 2.47-5.072 9.11-1.3 13.364-3.217.859-.859.99-1.792.99-3.217 2.363-3.1 10.74-3.205 14.353-1.732z" fill="#00325c" fill-rule="evenodd" stroke="#00192e"/><path d="M91.717 83.89c2.215 3.21 2.614 5.333 1.484 8.167.32 1.276-3.138 3.042-4.33 3.34-5.447.026-10.459.732-15.467 2.846-4.616 2.793-2.702 10.553-2.35 14.972C70 115.3 64.74 108.426 60.04 109.38c-3.482-4.337 4.225-7.356 1.856-11.26-.738-2.24.452-3.894 1.113-6.063 2.47-5.073 9.11-1.3 13.364-3.217.859-.86.99-1.792.99-3.218 2.363-3.099 10.74-3.205 14.353-1.732z" fill="#00325c" fill-rule="evenodd" stroke="#00192e"/><path d="M96.493 85.991c-2.777-3.426-.864-8.558-.51-12.481-1.216-4.907 1.942-10.144.9-15.05-.461-3.074-1.481-5.842-3.026-8.522-1.766-2.39-4.125-3.748-7.123-3.901-3.847.563-7.73.044-11.55.875-2.818 1.226-4.76 3.257-5.074 6.3-.136 2.745.048 5.22-1.225 7.699-.383 4.406-1.845 8.88-1.225 13.299.886 5.14-1.32 7.25-.75 12.378 4.436-2.54 10.186 1.288 15.223.724 4.225-1.51 11.739 1.883 14.36-1.32z" fill="#1a1a1a" fill-rule="evenodd" stroke="#000"/><path d="M91.1 67.694c-.04 3.502 1.335 6.73 3.674 9.275.993 1.236 2.32 1.974 3.85 2.274.576 0 2.7-2.228 2.8-2.624.538-3.553-.403-6.583 0-10.15 0-1.194-1.053-2.28-1.575-3.324-4.159-2.774-6.439 2.439-8.75 4.55z" fill="#e9d2af" fill-rule="evenodd" stroke="#3f2d10"/><path d="M87.262 55.383c.128 2.515.76 4.822 1.575 7.175.658 2.41.849 4.868.875 7.35 4.162-.443 8.617-2.191 12.774-3.5-.436-2.05-1-4.062-1.4-6.125-.661-2.716-2.827-4.302-4.025-6.65-1.462-2.045-3.45-3.01-5.949-2.274" fill="#1a1a1a" fill-rule="evenodd" stroke="#000"/><path d="M77.233 4.092c-10.345-.06-14.437 6.765-14.575 15.643 0 1.857.859 5.512 1.319 7.353-.214 3.625-1.112 6.364-.043 9.902 1.244 5.006 4.607 7.67 9.45 8.75 4.299-.085 10.076-1.545 13.298-4.55 4.614-3.775 6.003-10.165 7.7-15.75.603-5.334-1.985-10.423-3.5-15.398-2.11-5.445-8.49-6.712-13.649-5.95z" fill="#e9d2af" fill-rule="evenodd" stroke="#3f2d10"/><path d="M63.934 11.092c-.638-9.763 25.99-12.986 27.38-5.267 7.48.574 7.517 19.735 5.659 26.329-7.717-.079-3.704-9.02-8.19-11.263-1.912-.478-2.55.988-4.2 1.4-3.494-2.246.04-9.155-5.6-11.55-2.753 1.114-6.244 2.831-9.1 0-2.44 0-3.87 1.182-5.949.35z" fill="#28170b" fill-rule="evenodd" stroke="#120a04"/><path d="M95.86 30.77c-1.563 0 1.13 5.567 1.4 6.65.42 1.677 3.457 4.141 4.55 5.599.929 1.238 4.92.062 5.95-.35 1.733-.694 3.752.252 4.55 1.05 2.488 2.488 1-1.15.35-2.45-.512-1.022-2.846-2.397-3.85-3.15-1.708-1.28-2.055-2.755-3.5-4.2-1.379-1.378-3.031-1.4-4.9-1.4-1.167 0-3.122-1.464-4.55-1.75z" fill="#28170b" fill-rule="evenodd" stroke="#120a04"/><path d="M74.503 48.986c1.721 4.538 10.247 3.042 13.27-1.276-1.206-2.453-2.06-5.398-4.702-6.682-2.244-.256-4.422.368-6.558.99-1.72 1.342-2.395 5.244-2.01 6.968z" fill="#e9d2af" fill-rule="evenodd" stroke="#3f2d10"/><path d="M62.766 43.277c.65 1.299 1.969 2.104 3.62 2.104 2.6.75 5.115 1.916 7.702 2.815 3.397.873 5.872-.861 8.383-2.815 4.23-2.188 8.614-5.91 9.496-10.796.248-2.047-.558-2.042-1.732-1.67-1.95 1.99-4.393 4.093-7.053 5.134-3.37.958-6.039 1.401-6.99-2.474-1.118-3.21-4.727-4.132-7.703-4.888-6.326-.273-7.706 7.98-5.723 12.59zm5.661-8.692c3.053-1.29 9.413 6.562 3.898 6.249-2.317-.772-2.8-2.272-4.176-.34-4.91 1.488-2.975-4.675.278-5.91z" fill="#28170b" fill-rule="evenodd" stroke="#120a04"/><path d="M71.737 20.232c-1.352 2.968-.306 4.708 2.59 4.28.889.39 2.742-1.779 2.317-3.218.318-3.865-3.032-3.949-4.907-1.062zM65.798 18.252c-2.33.523-3.424 2.303-2.97 4.95 2.69 4.966 7.805-2.18 2.97-4.95z" fill="#fff" fill-rule="evenodd" stroke="#333"/><path d="M69.262 21.964c-.411 2.386-2.72 3.497-3.96 4.702-.632 2.648-.252 4.547 2.723 3.96 2.079-.966 2.913-2.568 3.217-4.703M86.585 22.459c5.804-2.306 4.781 6.29.495 5.444M87.699 23.82c.842-1.478 3.06 1.168 0 2.598" fill="#e9d2af" fill-rule="evenodd" stroke="#3f2d10"/><path d="M66.788 37.802c.955.405 3.661.19 5.32 0" fill="none" stroke="#3f2d10"/><path d="M76.095 20.963c.52.035-.542-2.045-1.91-.578-1.06 1.137-.039 2.753.708 2.908 1.5.31 1.844-2.103 1.202-2.33zM66.531 20.44c.453-.939-2.155-.185-1.484 1.98.462 1.495 2.103.575 2.227.495 1.663-1.074.318-3.813-.743-2.475z" fill-rule="evenodd" stroke="#000"/><path d="M98.075 71.516c.588-3.117 1.203-1.8 2.695-3.081 1.918-2.654 3.518-6.028 3.49-9.316-.48-1.485-2.608-.726-2.616-2.531.907-1.111 2.276-.835 3.594-.574-.021-2.06-.938-4.236 1.63-5.266.803 1.081.932 2.686.686 3.925.751-1.215.924-4.28 2.811-2.063.734 1.446-.462 2.442-1.03 3.769 1.64-.98 2.987-3.004 2.988.093-.427 1.179-1.348 1.69-2.366 2.283-.707 1.05-.886 2.43-1.252 3.659.235 3.09-.677 5.95-1.61 8.863-2.656 1.324-2.482 5.104-4.889 6.557-.848.764-1.612 1.4-2.59 1.896-2.851-.143-3.66-.282-3.645-3.76" fill="#e9d2af" fill-rule="evenodd" stroke="#3f2d10"/><path d="M75.577 120.31c.377-3.262.557-7.311.796-10.606.189-3.037.545-5.889.353-8.928 1.261-.692 3.03-.767 4.773-1.59 1.207 1.731-.53 5.917-.53 8.308.207 4.128.272 7.072-.354 11.137-1.979.173-3.115 1.3-5.038 1.68zM93.52 116.156c.304-2.585.884-6.753.884-9.37.623-3.96-.032-7.284.177-11.225 1.622-.068 3.697-1.028 5.303-1.06.514 2-.177 5.9-.177 8.397.276 4.174-.462 7.805-1.06 11.932-1.98.174-3.204.947-5.127 1.326z" fill="#784421" fill-rule="evenodd" stroke="#28170b"/><path d="M78 119.75c-1.137-.965-2.07-3.067-3-4.25 3.455-3.672 6.742-5.131 8.75-8 1.998-2.997 4.366-3.741 6.875-6.25 2.046-1.483 4.053-4.37 5.75-6.25.523 2.152 3.56 3.116 4.5 4.25-.997.748-3.056 3.806-4 4.75-3.778 3.195-6.743 6.09-10.625 9.125-3.254 3.38-4.005 4.629-8.25 6.625z" fill="#784421" fill-rule="evenodd" stroke="#28170b"/><path style="-inkscape-font-specification:Rufscript" d="M70.165 65.486c-.117-.009-.29.05-.19-.131-.004-.906-.216-1.82-.226-2.727-.012-.445-.027-.892.008-1.33.129-.226.442-.217.684-.245a8.475 8.475 0 011.523.08c.25.17.418.442.58.691a.81.81 0 01-.136 1.006c-.291.342-.758.454-1.08.755-.241.17-.138.534.12.689.327.245.722.404.977.744.141.19.293.419.28.65-.225.119-.634.034-.795-.243-.205-.203-.382-.464-.604-.635-.236-.102-.397-.65-.67-.341-.146.218-.104.523-.127.787.03.14-.151.135-.233.198l-.11.052zm.342-2.108c.511-.227 1.055-.445 1.43-.866.176-.171.157-.5-.078-.665-.356-.302-.825-.283-1.238-.314-.381-.096-.205.408-.2.633.06.404.056.808.086 1.212zm4.137 2.48c-.002-.625.04-1.255-.103-1.886-.078-.443-.154-.887-.228-1.33-.196-.218-.526-.211-.784-.285-.316-.054-.747-.167-.84-.541-.032-.285.45-.074.636-.12 1.01.08 2.028.123 3.035.36.23.049.664.191.53.498-.18.196-.502.122-.755.105-.297-.033-.594-.076-.891-.095-.222.28-.06.691-.005 1.034.108.72.125 1.443.068 2.15.015.284-.172.53-.478.333-.093-.035-.19-.115-.185-.222zm3.237-1.113c-.185.176.029.546.075.793.082.282.234.612.095.872-.207.201-.676.022-.675-.315-.137-.948-.165-1.896-.218-2.841 0-.303-.047-.62.022-.908.309-.259.766-.24 1.169-.253.389.016.8-.005 1.175.178.143.184.477.476.384.69-.6-.118-1.22-.313-1.818-.236-.317.047-.23.474-.238.722-.032.303.12.703.484.726.408.077.825-.142 1.222.086.341.25.015.593-.283.563-.456.048-.93-.008-1.394-.077zm5.874 3.272c-.112-.367-.084-.747-.106-1.118-.035-1.204.036-2.398-.02-3.605-.06-.064-.225.255-.324.333-.265.301-.605.548-.935.76.156.164.563.383.468.599-.209.277-.564.119-.724-.176-.442-.5-.878-1.004-1.334-1.49.063 1.064.138 2.131.148 3.192.01.291-.425.413-.612.173-.15-.273-.09-.58-.122-.867a61.781 61.781 0 01-.018-2.899c0-.3.34-.348.58-.264.3.131.567.384.685.695.127.186.264.646.515.537.339-.304.688-.598 1.02-.908.162-.204.432-.342.457-.634.14-.187.64-.172.647.158.07.625.062 1.248.124 1.874.05.962.024 1.92.126 2.885.065.26.128.58-.144.707-.107.074-.31.224-.431.048z" font-size="12" font-weight="400" fill="#fff" font-family="Rufscript"/></svg>