<svg xmlns="http://www.w3.org/2000/svg" width="128" height="128" version="1.0"><defs><filter id="a" x="-.065" width="1.13" y="-.177" height="1.354"><feGaussianBlur stdDeviation="2.142"/></filter></defs><metadata/><path d="M62 92.75c-5.153 4.227 5.828 11.755.5 15.75-1.165.874-4.477.75-6 .75-6.064-1.832-9.462-8.588-20.5-8-13.1.644-15.34 11.652-7.25 17.5 6.329 4.192 23.21 6.12 27.25-2 1.364-3.904 5.65-4.674 9.5-3.25 1.839.633 2.784 2.39 4.25 3.5 3.807 1.125 8.268 1.379 11.75-.25 9.8-3.902 15.474-4.7 23.75-6 1.73-.433.793-2.207.25-2.75-4.877-2.305-10.21-3.997-15-6.75-8.196-2.503-19.765-10.635-28.5-8.5zM84.5 102c2.984 3.877 14.567 4.306 16.25 5.25-8.357.67-35.205 14.387-30 4.5-1.086-3.484-7.079-13.187-6.25-16.25 4.594.478 13.996.374 20 6.5z" fill-opacity=".82" fill-rule="evenodd" filter="url(#a)"/><path d="M82.137 21.213c-11.019-7.763-18.416-5.804-20.657 6.201-.887 13.354 10.816 24.63 20.725 13.864 3.016 6.633 13.703 6.252 20.243 4.059 4.69-4.534 4.251-13.54 2.34-20.283-3.34-7.93-16.513-11.557-21.348-4.384-.367.582-.357.462-1.303.543z" fill="#333" fill-rule="evenodd" stroke="#000"/><path d="M67.454 78.376c3.809 1.936 8.144 2.205 12.238 3.2 4.457 4.055 19.264 3.25 19.867 5.343.627.79.355.83.082 1.248-6.228 1.602-13.048-2.424-19.12-3.513-4.426-.63-8.61-1.722-12.556-3.857-.855-.556-.897-1.303-.51-2.421z" fill="#4d4d4d" fill-rule="evenodd" stroke="#000"/><path d="M83.092 45.216c-3.068 7.003-5.922 14.279-9.067 24.395-4.079 8.518-5.186 17.53-9.574 26.015-.81 1.231-2.747.208-3.192-.666 2.185-8.511 5.814-16.788 8.244-25.265 3.71-7.784 6.452-15.82 10.563-23.699.853-1.296 1.122-1.414 3.026-.78z" fill="#4d4d4d" fill-rule="evenodd" stroke="#000"/><path d="M102.915 31.126c6.313-3.71 11.217-9.718 18.385-11.667 4.835 1.882-.822 21.707-.104 28.213-1.081 2.611-11.03-5.736-15.099-6.293-4.036-.598-2.685-6.838-3.182-10.253z" fill="#999" fill-rule="evenodd" stroke="#333"/><path d="M69.15 84.513c1.081 4.123 2.748 8.512 3.713 13.258 9.638-.273 18.68-4.518 27.047-6.54 1.894-.404 2.044-2.664 0-3.006-8.123.215-16.45 7.651-25.279 5.657-1.948-2.519-1.84-5.87-2.652-8.839-.683-2.895-.667-5.933-3.712-7.248-1.656 1.833-.01 4.741.884 6.718z" fill="#4d4d4d" fill-rule="evenodd" stroke="#000"/><path d="M80.5 45.75c-1.378 10.099-3.107 20.451-6.25 34.5-1.365 12.429-5.682 24.234-6.75 36.75 0 1.89 2.337 1.413 3.25.5 3.057-11.627 4.683-23.563 7.5-35.25 1.262-11.35 3.54-22.611 4.5-34.25 0-1.989-.172-2.25-2.25-2.25z" fill="#4d4d4d" fill-rule="evenodd" stroke="#000"/><path d="M84.258 45.28c3.536 9.56 7.47 19.29 13.586 32.322 4.03 11.837 9.39 19.773 13.148 31.76.41 1.844-1.975 1.885-3.064 1.192-5.507-10.687-8.27-19.334-13.555-30.131-3.695-10.807-8.361-21.305-11.823-32.458-.432-1.942-.32-2.234 1.708-2.685z" fill="#4d4d4d" fill-rule="evenodd" stroke="#000"/><path d="M82.637 26.673c-11.019-7.762-18.416-5.804-20.657 6.202-.887 13.353 10.816 24.63 20.725 13.863 3.016 6.634 13.703 6.253 20.243 4.06 4.69-4.534 4.251-13.541 2.34-20.283-3.34-7.93-16.513-11.558-21.348-4.384-.367.582-.357.461-1.303.542z" fill="#666" fill-rule="evenodd" stroke="#000"/><path d="M71.632 30.563c-2.32 1.192-2.932 2.936-3.25 5.471-.086 5.148 4.383 7.761 9 6.52 1.915-1.746 1.611-4.583 1.5-7.12-.56-3.719-4.213-4.582-7.25-4.871zM91.592 30.729c-2.647 1.28-3.347 3.166-3.71 5.91-.098 5.575 5.005 8.428 10.275 7.108 2.187-1.883 1.84-4.956 1.712-7.706-.638-4.03-4.809-4.984-8.277-5.312z" fill="#1a1a1a" fill-rule="evenodd" stroke="#000"/><path d="M107 30.75c5.02-2.955 10.46-5.857 15.875-6.953" fill="none" stroke="#333"/><path d="M74.439 39.253c.72 5.27.453 14.2 4.242 17.678 1.16 0 1.576.014 2.122-.53 2.077-4.736-.923-10.82-2.475-15.38-.603-2.11-2.2-3.867-3.89-1.768z" fill="#666" fill-rule="evenodd" stroke="#000"/><path d="M81.686 53.041c-.853 0-1.961-.786-3.535 0-2.692 3.876.541 10.157 3.005 13.612 1.105 2.19 2.23 1.637 3.359-.176.7-4.171-.436-9.891-2.829-13.436z" fill="#1a1a1a" fill-rule="evenodd" stroke="#000"/><path d="M84.515 64.532c-1.723-1.192-3.383-1.37-4.066.707" fill="none" stroke="#000"/><g><path d="M39.262 106.394c2.718.918 6.589.976 9.4 2.647.57.817.723 1.845 1.003 2.79.07 1.3-.547 2.232-1.353 3.182-2.368 1.401-5.319 1.107-7.977 1.059-2.277.297-5.033.222-6.896-1.241-2.816-1.873-2.767-4.105-3.041-7.32 2.972-.267 5.921-.627 8.864-1.117z" fill="#e6e6e6" fill-rule="evenodd" stroke="#333"/><path d="M39.441 85.393c.145.779.89 2.801.625 4.125-.203 1.016-.508 2.03-.75 3-.518 2.545.446 4.982.625 7.5-.515 2.208.137 5.698-1.375 7.25-2.63 1.987-6.665 1.894-8.125-.625.25-1.001.06-1.598.5-2.625 1.286-2.74.677-5.865.25-8.75-.058-3.791-7.308-7.633-7.166-11.427 2.168-.801 14.048-.045 15.416 1.552z" fill="#00325c" fill-rule="evenodd" stroke="#00192e"/><path d="M48.391 112.494c-2.975 1.175-6.267 2.075-8.818 1.526-2.939.098-5.603-.072-8.72-2.461" fill="none" stroke="#333"/><path d="M45.177 110.522c2.62 1.166 6.47 1.582 9.114 3.507.491.866.549 1.904.74 2.871-.051 1.301-.752 2.172-1.642 3.043-2.489 1.175-5.399.609-8.042.315-2.294.084-5.03-.246-6.75-1.876-2.63-2.126-2.375-4.343-2.35-7.57 2.984.01 5.954-.075 8.93-.29z" fill="#e6e6e6" fill-rule="evenodd" stroke="#333"/><path d="M42.166 86.935c.145.78 4.072 4.393 3.807 5.716-.203 1.017-.508 2.032-.75 3-.519 2.546.446 4.983.625 7.5-.515 2.21.137 5.699-1.375 7.25-2.63 1.988-6.665 1.895-8.125-.625.25-1 .06-1.598.5-2.625 1.286-2.739.677-5.864.25-8.75-.058-3.79-11.02-9.223-10.878-13.017 2.167-.801 14.578-.045 15.946 1.551z" fill="#00325c" fill-rule="evenodd" stroke="#00192e"/><path d="M54.401 118.009c-3.071.894-6.432 1.485-8.92.702-2.937-.175-5.574-.59-8.456-3.259" fill="none" stroke="#333"/><path d="M49.012 10.76c10.365 1.341 13.537 8.729 12.473 17.635-.252 1.86-1.606 5.402-2.316 7.183-.277 3.657.251 6.521-1.299 9.918-1.923 4.843-5.006 6.25-10 6.675-4.293-.667-6.584-3.536-9.403-6.98-4.107-4.405-8.571-9.56-9.514-15.38.119-5.423 3.399-10.167 5.59-14.943 2.849-5.165 9.408-5.569 14.47-4.107z" fill="#e9d2af" fill-rule="evenodd" stroke="#3f2d10"/><path d="M60.675 26.061c.952 3.155-.331 4.755-3.172 3.934-.943.271-2.505-2.152-1.884-3.535.205-3.912 3.57-3.542 5.056-.399z" fill="#fff" fill-rule="evenodd" stroke="#333"/><path d="M29.546 33.826c1.473.57-3.094 4.833-3.744 5.754-1.007 1.428-4.767 2.642-6.328 3.617-1.326.827-4.658-1.736-5.478-2.5-1.38-1.285-3.627-1.13-4.669-.67-3.252 1.438-.524-1.447.564-2.435.854-.777 3.554-1.22 4.775-1.564 2.075-.584 2.94-1.846 4.829-2.68 1.801-.797 3.366-.214 5.126.467 1.1.426 3.476-.24 4.925.01z" fill="#28170b" fill-rule="evenodd" stroke="#120a04"/><path d="M23.59 94.577c2.312-3.405-2.165-9.036-.71-12.9-.37-6.105 1.316-14.308 2.534-19.226.57-3.088 3.394-3.953 5.044-6.607 1.864-2.352 2.728-2.618 5.76-2.671 3.865.699 3.343.321 7.171 1.29 2.805 1.333 4.697 3.45 4.91 6.532.045 2.777-.225 5.269.977 7.815.238 4.462 4.062 9.052 3.287 13.493-1.068 5.16-.057 6.804-.806 11.962-4.393-2.715-11.683 1.493-16.75.753-4.215-1.668-8.88 2.883-11.418-.44z" fill="#1a1a1a" fill-rule="evenodd" stroke="#000"/><path d="M46.917 59.629c-3.271 3.652-11.43-1.096-12.71-6.265 3.39-1.735 4.8-5.455 7.28-5.754 2.209.574 4.035 1.953 5.823 3.316 1.134 1.89.596 7.218-.393 8.703z" fill="#e9d2af" fill-rule="evenodd" stroke="#3f2d10"/><path d="M31.76 35.337c4.916-.285 7.01 3.807 8.844 5.64 2.157.826 2.29 1.82 4.362 2.8.907.123 1.695.263 2.492-.01 2.024-.731 3.592-2.315 5.308-3.57 2.404-.759 4.107-1.052 6.686-.703 1.255 1.143 2.761 1.434.677 4.79-3.488-.38-4.886-1.36-7.218-.724-1.798 1.134-2.119 3.323-.135 4.49 1.676-.08 3.157.37 4.285-1.375 2.658.61 1.931 2.658.828 4.37-1.198 4.244-4.166 4.532-8.275 3.358-2.621-.69-6.144-.706-8.48-2.03-2.02-1.689-3.321-3.15-4.635-5.452-.954-3.049-2.834-4.886-4.149-7.498-.135-1.702-2.083-3.1-.59-4.086zM62.022 18.765c1.961-9.687-24.259-16.521-26.696-8.982-7.982-.412-10.634 18.732-5.809 25.342.547-.642 5.733-.899 5.59-2-.542-4.208.02-11.892 3.82-10.679 4.407.214 2.466 6.278 3.183 7.057 6.058-2.744-1.035-11.511 4.894-13.127 3.106 2.362 7.117 1.804 10.36-.643 2.443.331 2.465 3.582 4.658 3.032z" fill="#28170b" fill-rule="evenodd" stroke="#120a04"/><path d="M41.006 24.62c-5.498-3.095-5.639 5.65-1.233 5.383M39.707 25.832c-.644-1.594-3.223.754-.352 2.601" fill="#e9d2af" fill-rule="evenodd" stroke="#3f2d10"/><path d="M57.695 45.313c-1.011.276-3.213.262-4.848-.152" fill="none" stroke="#3f2d10"/><path d="M50.442 73.454c-1.577-.24-1.297-.051-2.881.022" fill="none" stroke="#006ca9"/><path d="M59.57 67.528c3.28-.427 6.868-1.589 9.266-3.888.76-1.381.103-3.795 2.925-5.426 1.445-.103-.685 2.845.036 3.995 1.5-1.442 3.965-4.374 6.501-3.2-.238 1.34-2.829 3.297-3.91 3.974 1.413-.29 5.036-2.66 4.714.262-.555 1.542-3.366 1.728-4.735 2.229 1.857.527 5.528-.135 3.252 2.012-1.162.502-3.427.429-4.568.091-1.263.208-2.4 1.033-3.558 1.614-2.108 2.314-4.844 3.625-7.632 4.956-2.814-1.035-5.472 1.712-8.208.949-1.15-.094-7.647 1.035-8.688.659-1.595-2.455.766-6.385 2.89-8.365 2.86-2.44 8.835.336 11.714.138z" fill="#e9d2af" fill-rule="evenodd" stroke="#3f2d10"/><path d="M36.96 62.598c2.543.091 4.882.697 7.27 1.485 2.445.629 4.93.786 7.437.775-.385 4.211-2.574 9.494-3.836 13.712-2.076-.41-4.738-.691-6.828-1.064-2.824-.482-8.203-4.486-8.26-7.538" fill="#1a1a1a" fill-rule="evenodd" stroke="#000"/><path d="M60.096 30.976c.597 2.373 3.008 3.315 4.348 4.434.84 2.619.602 4.561-2.44 4.197-2.167-.814-3.13-2.364-3.6-4.49" fill="#e9d2af" fill-rule="evenodd" stroke="#3f2d10"/><path d="M59.552 26.785c-.335-.405 1.997-.761 1.6 1.226-.308 1.54-2.235 1.655-2.802 1.134-1.14-1.047.637-2.752 1.202-2.36z" fill-rule="evenodd" stroke="#000"/></g></svg>