<?xml version="1.0" encoding="UTF-8"?>
<svg width="128" height="128" version="1.0" xmlns="http://www.w3.org/2000/svg">
 <path d="M36.844 88.287c-1.611-1.151-2.437-2.89-4.435-3.573-1.968 2.805 1.73 2.604-.077 4.513-2.111.06-5.698-.836-5.903 1.796.187 1.3 5.089.723 5.092.722 1.238-.178 1.223-.12.124.775-1.13.919-3.053-.475-3.728 1.133 1.11 1.95 4.622 1.175 6.25.247-.7 1.177-4.296 2.366-1.32 3.34 1.581-1.673 3.552-2.839 5.772-3.835 1.517-3.038 7.725-6.785-1.775-5.118z" fill="#4b584b" fill-rule="evenodd" stroke="#2a312a"/>
 <path d="M38.958 89.117c-.42-1.967 5.52-6.15 8.736-7.46-1.558-4.202 8.016-16.974 9.183-18.55 5.017-6.035 1.906 2.286 4.311 6.538.587 1.525-2.906 5.552-4.59 16.238-.891 5.655-16.348 6.86-16.664 7.855l-.976-4.62z" fill="#617161" fill-rule="evenodd" stroke="#4b584b"/>
 <path d="M53.538 65.091c-1.26 6.168-6.635 11.817-4.427 18.422.712 6.43 8.2 9.215 13.854 7.714 5.783-.176 15.788.695 16.738-6.945-.063-6.432 1.382-15.104-.93-21.19-2.167-7.165-12.01-3.465-17.738-3.768-3.481.211-6.002 2.832-7.497 5.767z" fill="#617161" fill-rule="evenodd" stroke="#4b584b"/>
 <path d="m74.14 55.875 4.065 4.773s-9.723-1.06-11.844 0.354-8.662 11.667-8.662 11.667l0.177-10.43-3.713 0.884c-1.515-1.895 12.387-11.165 19.976-7.248z" fill="#4b584b" stroke="#2a312a" stroke-linejoin="round"/>
 <path d="M51.966 16.554c-2.485 6.085-7.766 10.622-9.225 17.15-1.072 5.963.553 12.225 2.325 17.931 2.809 6.965 14.75 7.22 21.623 6.758 4.125-1.01 8.39-2.738 11.923-5.177 5.074-5.995 5.305-14.003 5.318-21.432-.972-6.434-2.55-14.249-8.084-18.355-3.815-3.303-7.338-5.003-12.468-4.82-4.745.997-8.669 3.991-11.412 7.945z" fill="#e7d4d3" fill-rule="evenodd" stroke="#422524"/>
 <path d="M47.146 52.626c.633 2.865 1.371 5.684 4.268 6.708 4.448.808 8.057-1.434 9.96-5.285M52.837 25.39c-3.015 1.046-10.04 2.09-11.992 5.894-.242 2.993.971 4.753 3.862 5.285 2.174-.29 4.5-.909 6.097-2.44" fill="#e7d4d3" fill-rule="evenodd" stroke="#422524"/>
 <path d="M60.967 17.666c-3.052-1.175-5.413.14-5.69 3.862.196 2.223 2.022 3.069 3.861 3.862 2.167.301 3.333-.868 4.269-2.643.392-2.432-.319-3.962-2.44-5.081z" fill="#fff" fill-rule="evenodd" stroke="#333"/>
 <path d="M58.199 22.54c-.19-.757-1.412.225-.813 1.422.582 1.165 1.829-.21 1.829-1.016 0-.365-.677-.271-1.016-.407z" fill-rule="evenodd" stroke="#000"/>
 <path d="M51.29 19.588c-1.505-2.29-4.364-2.459-6.972-.017-1.92 4.877 1.928 6.134 5.143 5.302 1.703-1.179 1.746-3.331 1.83-5.285z" fill="#fff" fill-rule="evenodd" stroke="#333"/>
 <path d="M47.412 23.29c.014-.874-2.301-.302-1.423 1.422.067.132 2.897 1.034 1.423-1.423zM62.594 42.667c-.478-1.235-1.172-2.084-2.236-2.846-3.436-1.718-4.757-1.09-8.537-.813-4.504.33-7.794 1.152-7.318 4.065.537 2.691 1.783 3.654 4.472 3.659 3.268.225 5.654-1.557 8.334-3.049 1.535-.78 1.871-1.184 2.518-2.722" fill-rule="evenodd" stroke="#000"/>
 <path d="m65.033 40.024c-2.504 1.114-2.302 3.537-2.44 5.895" fill="#e7d4d3" stroke="#422524"/>
 <path d="M77.844 11.844c-.688 2.2-17.487 4.645-25.594.25.553.877-3.813 5.34-1.594 4.187 5.119-2.658-1.717 13.48 6.844 17.282 3.512 7.525 12.482-15.93 23.188-9.813 1.129 1.486 1.845 3.225 3.03 4.688 1.835 2.05 3.367 1.12 3.063-1.438.516-3.179-5.368-13.641-8.937-15.156zM60.625 16C62.489 16 65 21.705 65 23.5s-2.702 1.796-4.125 3c-2.364 2-6.375-2.205-6.375-4s.511-7.5 6.125-6.5z" fill="#4d4d4d" fill-rule="evenodd" stroke="#1a1a1a"/>
 <path d="M76.619 25.186c3.267-2.878 9.007-.349 5.69 4.472-1.591 1.516-3.238 2.185-4.877.61" fill="#e7d4d3" fill-rule="evenodd" stroke="#422524"/>
 <path d="M51.238 88.57c.339 3.907 3.167 5.487 5.668 7.826 1.076 4.916.536 9.612 2.025 14.763 1.666 1.025 3.225 1.1 5.15.728 2.005.65 6.047.39 7.896-.44-.63-6.21 5.464-12.224 7.917-17.696.788-2.77 1.53-5.95-.439-8.378-3.574 3.558-7.774 4.703-12.592 4.703-3.124.15-6.246.322-9.371.441-2.08-.113-4.486-.858-6.254-1.948z" fill="#617161" fill-rule="evenodd" stroke="#4b584b"/>
 <path d="M54.074 116.423c-1.84 3.077-1.56 3.661 1.314 6.237 4.579.77 8.474-1.064 12.885-3.527.419-2.327-2.91-5.323-3.903-12.702-3.373-.69-3.588.092-6.331.962-.558.177.51 4.79 1.972 7.193 1.126 1.85-5.6 1.674-5.937 1.837z" fill="#4b584b" fill-rule="evenodd" stroke="#2a312a"/>
 <path d="M63.349 96.396c-1.46 2.254.4 7.524.544 10.147" fill="#617161" stroke="#4b584b"/>
 <path d="M50.125 42.95c-1.652-1.576-4.1-1.541-5.126.354-.18 2.513 3.264 3.146 5.126 3.005 1.83-.168 6.109-1.554 6.718-3.36-1.502-2.202-5.74-1.254-6.718.001z" fill="maroon" fill-rule="evenodd" stroke="#000"/>
 <path d="M71.455 66.026c-1.897.263-2.61 2.154-3.359 3.712-.513 1.703 1.426 1.914 1.945 3.535-1.086 1.463-1.475 2.596-1.415 4.42 1.722.985 2.857-.235 4.243-1.414.617-.309.399 1.327.707 1.944.438.877 1.877-.286 2.121-.53 1.917-1.782 2.688-3.95 2.829-6.54-.578-3.9-3.43-6.093-7.071-5.127z" fill="#515e51" fill-rule="evenodd"/>
 <path d="M50.585 56.55c.222-1.97 3.511-2.132 3.535.354M78.099 26.237c4.78-2.035 2.742 3.303.344 2.412" fill="#e7d4d3" stroke="#422524"/>
 <path d="M59.449 116.673c-1.84 3.077-1.56 3.661 1.314 6.237 4.579.77 8.474-1.064 12.885-3.527.419-2.327-3.035-6.448-.903-12.952-3.373-.69-6.588.342-9.331 1.212-.558.177.51 4.79 1.972 7.193 1.126 1.85-5.6 1.674-5.937 1.837zM76.433 94.039c-1.98.043-3.682-.854-5.691-.204.104 3.425 2.945 1.05 2.642 3.66-1.654 1.313-5.063 2.745-3.65 4.975.93.929 4.507-2.47 4.51-2.474.884-.884.907-.828.563.547-.353 1.412-2.729 1.449-2.305 3.141 2.056.896 4.404-1.83 5.15-3.547.147 1.361-2.02 4.467.946 3.464.263-2.287 1.143-4.4 2.323-6.529-.606-3.34 2.119-10.061-4.488-3.033z" fill="#4b584b" fill-rule="evenodd" stroke="#2a312a"/>
 <path d="M77.953 91.067c-1.515-1.323 1.404-5.862 3.194-8.838-3.766-2.43-10.053-12.353-10.063-14.314-.018-3.59 1.803-6.154 5.612-5.653 1.451 1.11 2.901 1.963 4.591 2.65 1.383.87 4.466 5.801 9.52 15.365 2.675 5.061-8.978 15.288-8.634 16.274-2.675 2.795-2.12-3.806-4.22-5.484z" fill="#617161" fill-rule="evenodd" stroke="#4b584b"/>
 <path d="m71.5 16.75 12.5-3.5c1.71 1.441 3.304 2.906 1.75 5l-13 4.5c-5.76-2.486-2.359-4.139-1.25-6z" fill="#333" stroke="#1a1a1a" stroke-linejoin="round"/>
 <path d="M71.75 17.75s-2.947 3.485 1.25 4c.785.096 1.46-4.058-1.25-4z" fill="red"/>
 <path d="M85.25 16.688c16.843 24.771-3.096 30.732-5.263 46.982l1.25.25c8.113-15.577 21.116-28.85 5.543-47.108l-1.53-.125zM55.46 11.621l1.934-.237C59.2 3.89 76.554 0 83.85 15.074l1.778-1c2.343-7.99-24.936-20.166-30.17-2.453z" font-family="Bitstream Vera Sans" font-weight="400" overflow="visible" style="block-progression:tb;text-indent:0;text-transform:none"/>
 <path d="M65.25 75s-8.125-1.25-8.375 2.625 3.875 11.125 6.25 10S72.875 79.5 65.25 75z" fill="#4b584b" stroke="#2a312a" stroke-linejoin="round"/>
 <path d="M53.094 66.563l-.063-1.626c-17.097 8.326 5.862 10.624 8.375 16.376 1.497.9 1.594.074.813-1.25-2.636-5.745-21.71-7.135-9.125-13.5z" font-family="Bitstream Vera Sans" font-weight="400" overflow="visible" style="block-progression:tb;text-indent:0;text-transform:none"/>
</svg>
