<?xml version="1.0" encoding="UTF-8"?>
<svg width="128" height="128" version="1.0" xmlns="http://www.w3.org/2000/svg">
 <defs>
  <filter id="a" x="-.125" y="-.327" width="1.25" height="1.653">
   <feGaussianBlur stdDeviation="1.963"/>
  </filter>
 </defs>
 <path d="M60.364 103.575c-5.465.423-6.823-3.26-11.495.89-1.413 1.413-1.725 4.217-1.334 5.782 2.875 3.85 5.999 2.88 10.605 4.447 2.277.57 4.263.89 7.117.89 2.9 0 4.683 1.438 7.56 0 2.231-1.116 4.291-.772 6.227-2.224 1.512-1.134 2.226-3.124 2.668-4.892.784-3.136-1.876-3.607-3.558-4.448-2.16-1.08-5.906-.414-7.56 0-1.774.443-3.316-2.224-5.782-2.224-2 0-1.06 1.78-4.448 1.78z" fill-opacity=".728" fill-rule="evenodd" filter="url(#a)"/>
 <g stroke-width=".9998">
  <path d="M61.94 103.685c-1.972 2.583-4.64 3.208-7.312 3.605-.502.602-.27.241-.235.982.199.64.428 1.266.592 1.924 2.304.215 4.848 1.594 7.254.82 2.526.032 5.08-.853 7.172-2.374.483-1.43-.035-3.37-.148-4.957-2.33.733-4.979.614-7.324 0z" fill="#2b1100" fill-rule="evenodd" stroke="#0e0300"/>
  <path d="M54.985 108.938c2.721-.466 5.442 1.32 8.275.94 2.631-.086 3.997-1.999 5.93-2.124" fill="none" stroke="#0e0300"/>
  <path d="M71.334 104.13c-1.945 2.858-5.203 3.884-7.397 4.627-.358.753-.343.472-.444 1.29.12 1.083.758 1.768 1.553 2.442 2.148.83 4.544.183 6.732-.222 1.92-.067 4.186-.508 5.523-1.972 2.068-1.933 1.721-3.769 1.505-6.462a98.74 98.74 0 01-7.472.296z" fill="#2b1100" fill-rule="evenodd" stroke="#0e0300"/>
  <path d="M56.03 71.57c-2.845 3.785-.061 6.747-.42 9.94-.65 1.374-1.04 2.27-2.196 3.243-1.269.056-2.192.698-2.511 1.778.741.749 1.801.493 2.824.419.305 1.139-1.357 2.623-1.464 3.976 1.487 1.777 2.733-1.166 2.825-2.511.176 1.294-.547 3.4-.419 4.29 1.705.334 2.294-2.523 2.302-3.976-.034 1.593-.828 3.19 1.046 3.138 1.286-.947.98-2.712 1.15-4.185.506-2.322 1.446-4.52 1.675-6.905-.253-3.5 1.426-7.846-.105-11.09-2.251-1.129-3.035.965-4.708 1.883z" fill="#fca" fill-rule="evenodd" stroke="#3f2d10"/>
  <path d="M61.62 58.133c-2.259 2.34-4.496 4.476-5.467 7.532-1.213 2.156-1.975 14.795-2.244 17.303 3.32.626 2.905 1.73 6.198 2.183 1.507-4.002 5.278-20.351 5.36-24.567" fill="#a30045" fill-rule="evenodd" stroke="#62002a"/>
  <path d="M71.2 85.59c-.122.652-1.687 1.508-1.465 2.615-.408 2.943 1.284 6.028 1.046 9.626.431 1.848-1.58 4.874-.314 6.172 2.201 1.664 7.67 1.586 8.893-.523-.852-3.228-1.755-6.27-1.255-9.625.048-3.173.642-6.24.523-9.416-1.814-.67-6.283-.185-7.429 1.15zM61.888 85.485c-.121.652-1.582 2.45-1.36 3.557.79 2.34 1.736 4.42 1.15 6.8.014 2.336-2.508 6.55-.836 8.266 2.382.943 6.554 1.23 8.579-.837-1.043-3.224-1.125-6.163-.628-9.52.024-3.181.643-6.22.523-9.417-1.814-.67-6.283-.185-7.428 1.151z" fill="#00325c" fill-rule="evenodd" stroke="#00192e"/>
  <path d="M84.122 100.06c-2.348-2.896-2.116-19.068-1.816-22.386-1.028-4.149 1.642-8.577.76-12.724-.39-2.6-1.252-4.94-2.558-7.207-1.493-2.02-3.488-3.169-6.023-3.298-3.253.476-6.536.037-9.765.74-2.383 1.036-4.026 2.754-4.291 5.326-.115 2.322-.482 4.1-1.559 6.196-.324 3.726-1.56 7.404-1.036 11.14.749 4.347-1.6 20.271-1.119 24.606 3.751-2.147 10.502-1.68 14.76-2.156 3.573-1.277 10.43 2.473 12.647-.236z" fill="#a30045" fill-rule="evenodd" stroke="#62002a"/>
  <path d="M70.98 85.053c-2.236.097-3.072 1.39-3.65 4.095l10.148 2.759 1.069-2.76-7.567-4.094z" fill="#dfd591" fill-rule="evenodd" stroke="#675d1b"/>
  <path d="M71.247 85.231c1.068 2.904-.65 4.321-3.115 5.34 7.452 2.163 15.105 2.925 22.342 6.588.657-.977.645-2.289.357-3.739l-19.584-8.189z" fill="#dfd591" fill-rule="evenodd" stroke="#675d1b"/>
  <path d="M81.871 79.208c.463 2.73.31 5.573-.942 8.056-.918.946-2.248-.424-2.93.941.383 1.036 2.57-.057 2.512 1.779-.786 1.554-2.74 3.04-1.178 4.781 1.014-.52 2.157-1.866 2.433-2.898.115 1.203-.633 3.947 1.627 2.972 1.098-.823.296-2.381.361-3.6.878 1.357 1.053 4.82 2.213 2.47.116-1.052-.303-3.208-.853-4.039-.143-1.061.237-2.174.419-3.243 1.333-2.255 2.234-4.556 2.615-7.114-1.518-1.998-.496-5.008-1.778-7.01-.358-.897-.7-1.665-1.256-2.407-2.356-.673-1.88-1.876-2.944.31.65 3.836 1.783 5.448-.299 9.002z" fill="#fca" fill-rule="evenodd" stroke="#3f2d10"/>
  <path d="M74.932 62.348c.108 2.126 5.576 8.922 6.264 10.912.556 2.038-.942 11.103-.92 13.201 3.52-.373 4.39 2.177 7.906 1.07-.37-1.733 2.301-10.232 1.963-11.977-.559-2.297-5.077-13.225-6.09-15.21-1.237-1.728-3.754-2.022-5.868-1.4" fill="#a30045" fill-rule="evenodd" stroke="#62002a"/>
  <path d="M64.143 56.938c-3.741 10.215 8.41 2.886 11.22-1.079-1.02-2.073-1.741-4.564-3.975-5.65-1.898-.216-3.739.311-5.545.837-1.455 1.135-2.025 4.435-1.7 5.892z" fill="#fca" fill-rule="evenodd" stroke="#3f2d10"/>
  <path d="M66.452 18.979c-8.747-.051-12.207 5.72-12.324 13.227 0 1.57.726 4.66 1.115 6.217-.181 3.065-.94 5.38-.036 8.372 1.052 4.233 3.895 6.486 7.99 7.398 3.635-.071 7.683-1.829 10.408-4.37 3.9-3.192 4.552-8.385 5.987-13.107.51-4.51-.318-8.5-1.6-12.706-1.783-4.604-7.178-5.675-11.54-5.031z" fill="#fca" fill-rule="evenodd" stroke="#3f2d10"/>
  <path d="M55.428 25.824c.993-7.804 21.037-13.7 22.93-5.38 8.256 2.632 2.417 17.913.495 23.1-1.15-.012-2.45-.154-2.267-.731 2.341-7.34 2.83-8.159-.369-9.63-1.616-.404-2.156.835-3.55 1.184-2.955-1.899.033-7.74-4.736-9.766-2.328.941-5.279 2.394-7.693 0-2.064 0-3.053 1.926-4.81 1.223z" fill="#a05a2c" fill-rule="evenodd" stroke="#603b00"/>
  <path d="M61.804 32.625c-1.143 2.51-.258 3.982 2.19 3.619.752.331 1.796-1.504 1.436-2.72-.672-2.09-2.089-3.278-3.626-.899zM56.469 31.37c-1.97.442-2.581 1.529-2.197 3.766 2.274 4.2 6.285-1.424 2.197-3.766z" fill="#fff" fill-rule="evenodd" stroke="#333"/>
  <path d="M58.143 37.124c-.525 3.024-2.707 2.539-2.616 5.964 2.49-.503 4.137.13 4.394-1.674M74.36 34.509c4.907-1.95 4.042 5.318.418 4.603M75.3 35.66c.713-1.25 2.59.987 0 2.197" fill="#fca" fill-rule="evenodd" stroke="#3f2d10"/>
  <path d="M56.992 47.273c.179 2.78 5.553 3.558 8.474-1.988" fill="none" stroke="#3f2d10"/>
  <path d="M63.437 33.884c.324-.298-1.047-.541-.941 1.151.082 1.312 1.459.892 1.988.523 1.062-.74-.534-1.935-1.047-1.674zM55.31 34.424c.383-.794-1.508-.784-.941 1.047.391 1.263 1.807.517 1.883.418.779-1.013-.045-2.596-.942-1.465z" fill-rule="evenodd" stroke="#000"/>
  <path d="M64.085 110.935c2.618.562 5.46.852 7.49.049 2.44-.323 4.616-.83 6.862-3.23" fill="none" stroke="#0e0300"/>
  <path d="m57.005 17.135-3.204 10.326c10.503 2.258 22.253 1.403 29.018-1.602l-3.738-11.394-22.076 2.67z" fill="#ac0127" fill-rule="evenodd" stroke="#300009"/>
  <path d="m62.567 8.995-15.666 12.818 28.472 2.934 12.474-13.616-25.28-2.136z" fill="#ac0127" fill-rule="evenodd" stroke="#300009"/>
  <path d="M68.33 33.398l.756 7.05c2.474.342 4.154-1.1 5.287-3.777l-4.532-3.65-1.51.377z" fill="#a30045" fill-rule="evenodd" stroke="#62002a"/>
  <path d="M65.56 15.522c-3.547 5.937-1.487 12.223 2.519 18.631 1.134.423 1.8-.092 2.266-1.007-5.084-6.402-4.303-11.202-1.837-17.133-.378-.969-1.151-1.412-2.947-.49z" fill="#ac0127" fill-rule="evenodd" stroke="#300009"/>
  <path d="M67.33 89.326c1.255-.62 2.324-1.314 2.404-2.404l1.87.89" fill="none" stroke="#675d1b"/>
 </g>
</svg>
