<svg xmlns="http://www.w3.org/2000/svg" width="128" height="128" version="1.0"><defs><filter height="1.625" y="-.312" width="1.14" x="-.07" id="a"><feGaussianBlur stdDeviation="1.91"/></filter></defs><metadata/><path d="M16.61 100.916l22.69 2.535 10.545-11.743-22.424-1.6-10.812 10.808z" fill="#006ca9" fill-rule="evenodd" stroke="#003250"/><path d="M38.275 77.595s-.583 2.216 1.107 3.615c1.691 1.4 3.382 2.682 3.557.467.175-2.216-3.323-6.59-4.664-4.082z" fill="#ffd200" fill-rule="evenodd" stroke="#6a5700"/><path d="M23.583 70.481c1.276-3.401 5.643-7.579 12.01-10.495 1.478 8.623 4.157 11.74 4.314 12.011.72 1.25 2.82 5.184-.466 7.347-5.351 3.523-6.767-6.523-15.858-8.863z" fill="#ffd200" fill-rule="evenodd" stroke="#6a5700"/><path d="M45.613 70.99c-1.763 1.15-2.79.214-3.427-1.447-1.596-.899-2.799-2.028-4.093-3.346-3.745-.045-1.488 2.983-.204 4.524-.592 5.58 6.56 7.832 9.052 5.488 1.935-2.079.81-3.941-1.328-5.219z" fill="#e9d2af" fill-rule="evenodd" stroke="#4c2f0a"/><path d="M66.394 57.359c-4.12-.604-5.313 8.136-8.838 9.91-4.182 1.855-9.12-.16-12.405 3.233.192 2.422.049 6.025 1.3 7.882 3.48-.6 8.09-2.651 11.258-4.288 3.547-1.633 4.366-5.284 7.772-7.102" fill="#d40000" fill-rule="evenodd" stroke="#520000"/><path d="M45.33 68.022c-.723.576-1.058 1.559-1.75 2.296.023 1.967 1.225 2.448-.231 3.997.66 3.546 1.168 4.343 4.405 4.89.795-.633 1.17-1.68 1.895-2.496.327-1.584.161-3.186-.131-4.765-.482-1.307-.935-2.392-2.014-3.274-.68-.309-1.414-.487-2.174-.648z" fill="#fff" fill-rule="evenodd" stroke="#b3b3b3"/><path d="M72.738 111.61c-4.92.98-13.45.013-19.5-1.5-.625.176-5.574-4.375-6.769-4.158-8.906 1.615-27.53 8.949-32.356 10.033-6.344 4.454 20.562 6.869 24.875 7.125 5.537.016 13.129-10.683 20.25-3 6.045.938 12.075-.364 18.5 0 7.05.743 12.457-3.981 19-5.5 3.746-.749 3.652-.389 3-3-13.164-9.031-16.713-4.177-27 0z" transform="matrix(.9328 0 0 .93295 3.412 8.221)" fill-opacity=".634" fill-rule="evenodd" filter="url(#a)"/><path d="M64.136 110.712c-3.658 1.078-7.13.97-10.585 2.935-1.029.513-1.292.355-.784 1.37 2.865 2.08 8.344.891 11.761.195 2.381-.069 3.921-1.736 6.273-2.152.923.46-.116 1.438 1.176 1.76.622.156 2.217-.259 2.744-.39.91-1.258.851-3.738-.784-4.11-3.303-.342-6.523-.083-9.8.392z" fill="#1a1a1a" fill-rule="evenodd" stroke="#000"/><path d="M80.994 110.907c-2.996.468-3.3 3.02-6.347 3.184-1.857.175-4.663 1.434-4.5 3.327 3.273 2.046 5.804.506 9.453-.135 2.33-.061 3.047-3.5 5.118-3.636.924.46-.115 1.438 1.177 1.76.622.156 2.216-.259 2.744-.39.91-1.258 2.17-3.903.535-4.275-2.318-.088-5.865-.11-8.18.165z" fill="#1a1a1a" fill-rule="evenodd" stroke="#000"/><path d="M79.23 88.405c1.788 4.484 1.883 8.772 1.176 13.501.397 2.003-2.087 7.574-1.752 9.941 3.13-1.132 8.41-.537 11.625-.537 1.558-3.088-.37-8.264-.37-11.844-.484-3.922 2.725-7.514 3.042-11.257-3.942-.47-9.463-.74-13.721.196zM64.136 88.405c3.016 6.465 2.123 14.14-.236 21.7.75 2.1 7.803.215 10.625.215 1.325-4.358-.213-9.384 1.176-15.85.903-2.115 1.958-3.92 2.157-6.26-4.501-.598-9.542-.464-13.722.195z" fill="#d40000" fill-rule="evenodd" stroke="#520000"/><path d="M95.432 95.1c.141-6.456.93-14.68 1.185-21.217-.015-5.948.719-13.67-2.446-18.96-1.952-2.328-1.612-2.85-4.16-4.479-7.195 1.598-15.335-1.892-22.346 2.152-4.388 4.788-5.65 13.067-5.881 19.372.53 8.35-.392 16.732-.392 25.046 4.33-.342 8.68-.978 13.133-.978 6.67-1.96 14.221 2.295 20.907-.936z" fill="#d40000" fill-rule="evenodd" stroke="#520000"/><path d="M67.926 54.43l17.38.123-11.272 19.26-6.108-19.383z" fill="#fff" fill-rule="evenodd" stroke="#000"/><path d="M73.792 64.655l-.165 8.906c1.044-.796 1.759-2.833 2.803-4.947l.33-4.618-2.968.66z" fill="#d40000" fill-rule="evenodd" stroke="#520000"/><path d="M73.957 60.202l-.99 2.97.825 1.483 3.463-.33-1.155-3.793-2.143-.33z" fill="#d40000" fill-rule="evenodd" stroke="#520000"/><path d="M75.936 59.873l2.308 4.288c1.386-2.302 2.833-4.525 4.452-6.432-2.246.278-5.103.59-6.76 2.144zM74.122 59.708l-2.969 5.112-1.978-7.091 4.947 1.979z" fill="#fff" fill-rule="evenodd" stroke="gray"/><path d="M73.228 73.609c-2.293-3.137-5.74-7.932-7.458-11.433.81.077 2.169.026 1.97-1.45-.884-1.812-3.7-3.341-5.022-5.541.86-.215 4.097-.721 5.217-.721 4.261 5.279 5.358 12.505 5.293 19.145zM90.403 49.857c-3.008 1.824-6.225 3.364-9.409 4.892.551 10.221-6.547 13.385-7.349 19.88 6.15-3.029 7.003-12.796 13.426-14.731.616-.616-2.197-.706-4.033-.422 1.8-4.387 7.957-5.228 11.678-8.054-1.445-.553-2.82-1.286-4.313-1.565z" fill="#d40000" fill-rule="evenodd" stroke="#520000"/><path d="M65.922 23.742c-3.993 6.921.22 16.366-3.05 28.192.854 5.154 4.623 6.627 7.71 7.662 3.518.71 6.937.676 9.912-1.394C86.921 54.367 90.686 49.9 92.94 42.86c.24-5.203-2.18-10.42-2.166-15.654-.297-5.298-4.052-8.14-8.81-9.403-5.665-.954-12.031 2.175-16.041 5.939z" fill="#e9d2af" fill-rule="evenodd" stroke="#4c2f0a"/><path d="M89.679 23.965c-1.03-4.817-2.1-10.518.308-14.547-2.841-.364.865 1.615-2.193-1.216-6.197-1.684-25.512 9.956-22.146 15.637 5.462 1.621 18.123 1.975 24.03.126z" fill="#d40000" fill-rule="evenodd" stroke="#520000"/><path d="M69.279 35.855c-2.741 5.913-6.178 4.512-7.508 7.969 2.42 4.083 5.488 2.749 8.444-.367M88.938 31c4.703-7.54 9.653 5.986 1.468 6.229" fill="#e9d2af" fill-rule="evenodd" stroke="#4c2f0a"/><path d="M64.79 51.942c5.296 1.45 9.939 2.402 15.094-2.6" fill="none" stroke="#4c2f0a"/><path d="M74.545 30.528c-1.2 1.962-1.543 5.212.52 6.477 5.087.072 4.882-2.744 4.931-5.44.01-3.026-4.421-3.332-5.451-1.037zM65.779 29.844c-2.304 2.837-1.574 5.54.768 6.454 1.196.467 2.575-1.4 3.115-3.014 1.072-2.684-1.002-4.811-3.883-3.44z" fill="#fff" fill-rule="evenodd" stroke="#333"/><path d="M66.782 32.224c-1.552 0-1.38 2.768-.52 3.627 2.563.485 3.997-4.091.52-3.627zM77.66 32.412c-.347-1.565-3.515 2.13-2.077 3.886 3.271.75 3.906-1.078 2.077-3.886z" fill-rule="evenodd" stroke="#000"/><path d="M73.639 73.47c-.166 6.137-1.17 5.386-1.858 11.5-.34 1.47-.247 9.649.196 11.066" fill="none" stroke="#520000"/><path d="M71.152 94.065c-1.196-2.027-3.249-.896-5.03-1.567-1.39-.7-2.803-.053-4.205.33-1.315.673-2.617.708-3.38 1.732.1 1.23.73 2.331 1.319 3.38 1.481.646 3.036.123 4.617.496 1.59.47 3.164.4 4.7 0 1.133-1.618 1.924-2.344 3.38-.66.886.886 3.872.66 5.194.66 2.277-.193 4.329.73 6.514 1.154 1.77.045 3.513-.02 5.277.248 2.307-.16 3.76-1.542 6.183-1.897 1.724-1.587 1.662-3.853 1.072-6.02-1.683-1.305-3.938-2.01-5.606-.495-2.11.913-4.583.23-6.761-.247-1.19-.238-2.751.379-3.875.66-1.692.143-3.006.138-4.37 1.237-.666.665-3.93-.172-4.947.082-.323.08-.11.766-.082.907z" fill="#fff" fill-rule="evenodd" stroke="#b3b3b3"/><path d="M86.018 91.442c-7.856 1.523-9.308 9.127 2.244 10.67 1.731-1.59.84-2.743 0-3.906-3.23-.785-5.664-1.85-2.594-3.294l21.163.933c.247-1.278.478-2.946-.175-4.373l-20.638-.03z" fill="#ffc5ff" fill-rule="evenodd" stroke="#f0f"/><path d="M86.018 91.442a10.743 10.743 0 00-3.207 1.167c1.324.388 2.36 1.137 3.061 2.303l3.877.175c-.256-1.265-.496-2.531-2.42-3.645h-1.311zm5.014 0c1.687 1.378 1.6 2.558 1.982 3.79l3.702.175c-.717-1.563.37-2.084-1.895-3.965h-3.79zm7.987.03l2.682 4.14 3.847.174c-.056-1.494-.292-2.973-2.186-4.314H99.02zm-13.001 6.064c-2.226-.289-3.725.585-5.189 1.516 1.046 1.197 2.98 2.209 5.918 2.799.075-1.475-.3-2.5 1.894-3.062-.13-.193-.24-.39-.379-.583a20.01 20.01 0 01-2.244-.67z" fill="#f0f" fill-rule="evenodd" stroke="purple"/><path d="M96.199 84.436c-.816-.204-.614 3.206-.99 3.959-1.808 1.442-3.35.455-3.92 2.958.851.2 1.631-.01 2.189.091.612.112 1.192-.34 1.566-.246 2.516 1.27-3.643 4.92-.824 6.432 1.952-.614 3.356-3.021 4.102-4.8.788 1.147-3.52 7.096-.943 6.051 2.219-.71 3.114-4.41 3.602-6.198.425 1.783-1.533 5.66.618 5.337 1.768-1.53 2.604-6.944.7-9.13-.804-1.227-.482-2.963-.659-4.454-.815-3.82-4.402-3.96-5.441 0z" fill="#e9d2af" fill-rule="evenodd" stroke="#4c2f0a"/><path d="M93.325 58.62c5.046 4.715 4.013 8.535 7.044 12.697.296 3.263 1.422 8.989 1.992 12.196-1.516.538-5.84 3.595-7.253 2.348-.474-4.027-.941-7.933-1.765-11.936-1.347-3.73-2.587-8.792-5.074-11.978M80.718 69.273l7.09.165-.165 2.31-7.09-.33.165-2.145z" fill="#d40000" fill-rule="evenodd" stroke="#520000"/><path d="M90.735 31.298c2.667-1.333 3.242 2.364.583 3.848" fill="none" stroke="#4c2f0a"/><path d="M98.195 82.438c-1.921.23-3.454 1.334-5.36 1.237-.205.103 1.016 2.108 1.072 2.391.687 2.039 2.373 1.337 4.04.825 1.644.312 2.262.307 3.051-1.237 1.606-1.334 2.861-.222 2.638-2.804-.57-1.726-1.343-1.991-3.05-2.226-1.018.29-1.483 1.232-2.391 1.814zM90.308 38.761c-2.005.657-2.362 2.631-3.586 4.082-1.92.576-3.398 1.875-5.276 2.478-1.39.347-2.703 1.156-3.935 1.895-.693.416-.999.437-1.837.437-1.568-.02-3.134.062-4.693 0-1.077-.455-2.254-.78-3.323-.466-1.973.197-3.207.704-4.577 2.186a21.47 21.47 0 01-.903 3.47c-.733 1.97-.062 2.984 1.545 4.11 1.146 1.378.963 2.838 2.303 4.14 1.279 1.043 1.513 2.555 1.982 4.024.662.882 2.356 1.995 3.323 2.478 1.453.688 2.48-.423 3.702-1.166 1.502-.543 3.144-1.604 4.78-2.303 2.191-.434 1.96-2.693 3.12-4.286 1.318-1.548 2.282-3.325 3.381-5.015 1.232-1.327 1.903-3.015 2.799-4.548 1.231-1.494 1.106-3.364 1.166-5.19.117-1.622.823-2.775.583-4.372-.161-.573-.496-1.703-.554-1.954zm-7.783 9.534c0 .932-.246 1.585-.73 2.39-.762 1.463-2.14 2.281-3.468 3.15-.866.577-2.075.191-2.973.64-2.265.107-4.245 1.504-6.443 1.342-.922-.462-2.244.087-3.119-.35-.197-.1-.86-1.314-.99-1.575-.36-.719-1.256-.822-1.487-1.399.652-1.864 1.912-2.043 3.556-1.487 1.663.458 3.247-.175 4.868-.466 1.016 0 2.012.32 3.12.32 1.76-.928 3.852-1.434 5.275-2.886.456-.608.841-.742 1.487-.904 1.054.103.842-.093.904 1.225z" fill="#fff" fill-rule="evenodd" stroke="#b3b3b3"/><path d="M23.583 70.831c.231.51 12.575-6.05 12.01-10.612-.396-3.194-15.471 5.536-12.01 10.612z" fill="#ffd200" fill-rule="evenodd" stroke="#6a5700"/><path d="M31.203 72.525c.205-6.601-9.437 4.07-1.635 2.038-1.259-.855-2.4 4.599 2.382 3.265-.696.53.1 1.457.474 1.712 1.519.204 3.428-2.303 3.51-2.138 2.357-4.834-2.75-3.826-2.698-2.989 2.563-2.683-.761-4.28-2.033-1.888z" fill="#e9d2af" fill-rule="evenodd" stroke="#4c2f0a"/><path d="M30.113 66.866c-.088.737-3.477 2.621-4.81 3.09-1.32.466-2.186-2.263-2.186-3.615 0-1.351 2.36-2.973 3.76-2.973s3.236 2.146 3.236 3.498z" fill="#ffd200" stroke="#6a5700" stroke-linejoin="bevel"/><path d="M16.61 100.916l22.69 2.535.668 18.816-23.893-4.137.534-17.214z" fill="#006ca9" fill-rule="evenodd" stroke="#003250"/><path d="M49.979 91.975L39.3 103.451l.668 18.816 10.811-14.946-.8-15.346z" fill="#006ca9" fill-rule="evenodd" stroke="#003250"/><path d="M34.543 90.19l-3.148 3.877-7.695-.845-2.566 2.682 8.017.904-3.936 4.81s-1.282 17.26-1.166 17.726l6.297 1.05.466-18.076 3.557-4.927 9.62 1.079.465 17.726 3.615-4.898-.933-15.51-10.785-1.167 2.856-3.965-4.664-.466z" fill="#00325c" fill-rule="evenodd" stroke="#00192e"/><path d="M68.04 21.768c-.682-.226-1.421-.149-2.13-.174-.756.032-1.633-.15-2.24.424-.57.533-.843 1.4-.66 2.159.37.949 1.215 1.628 2.067 2.134.704.324 1.51.17 2.258.132 1.395-.163 2.8-.067 4.201-.091 1.25.044 2.474.389 3.73.347.89.023 1.76.214 2.627.394 1.14.112 2.28-.12 3.422-.063 1.885-.012 3.772.025 5.656-.02 1.164-.123 2.308-.434 3.392-.87.758-.457.942-1.435.993-2.252.019-.676-.176-1.349-.453-1.959-.332-.66-1.152-.7-1.8-.667-1.897-.006-3.608.914-5.41 1.366-1.05.24-2.134.144-3.202.178-1.496.023-2.917-.505-4.34-.893a13.752 13.752 0 00-4.238-.653c-1.315-.054-2.597.238-3.874.508zM86.37 5.133c-.913 0-1.653-.187-2.376 1.018-.554.923.379 2.43.848 3.056.512.681 2.108.824 2.886 1.018 1.47.368 2.399.51 3.904.51 1.4 0 1.926.05 2.546-1.189.495-.99-.688-2.046-1.358-2.716-.872-.872-1.77-1.249-2.886-1.527-1.33-.333-2.112-.751-3.564-.17z" fill="#fff" fill-rule="evenodd" stroke="#b3b3b3"/></svg>