<svg xmlns="http://www.w3.org/2000/svg" width="128" height="128" version="1.0"><defs><filter id="a" x="-.125" width="1.25" y="-.327" height="1.653"><feGaussianBlur stdDeviation="1.963"/></filter></defs><metadata/><path d="M13.984 36.74c-.172 6.653 2.242 27.247 3.566 20.47 14.172-.449 53.484-3.454 67.713-3.826 11.662-.298 21.846 3.516 33.49 3.73.758.015 3.016-3.72 3.774-3.705-.07-4.84.336-10.9 1.324-16.29.396-3.261 2.33-8.682-.288-10.997-18.498.056-37.066 1.97-55.704 2.458-10.171 1.617-39.924 2.124-49.854 2.808-.383.645-4.228 2.38-4.02 5.353z" fill="#9100d2" fill-rule="evenodd" stroke="#49006b"/><path d="M14.153 59.9c14.172-.45 53.131-2.394 67.36-2.766 12.422-.318 24.868-.225 37.264.025-.07-4.84.336-10.9 1.324-16.29.396-3.261 2.33-8.682-.288-10.997-18.498.056-37.066 1.97-55.704 2.458-10.171 1.617-39.747.71-49.854 2.808-4.606 4.168-1.042 20.996-.102 24.762z" fill="#b000ff" fill-rule="evenodd" stroke="#49006b"/><path d="M177.242 112.044c-5.465.422-6.823-3.26-11.495.89-1.413 1.413-1.725 4.217-1.334 5.781 2.874 3.851 5.998 2.88 10.605 4.448 2.277.569 3.775-2.11 6.628-2.11 2.9 0 5.172 4.438 8.05 3 2.23-1.116 4.29-.773 6.226-2.224 1.512-1.135 2.226-3.124 2.668-4.893.784-3.135-1.876-3.607-3.558-4.447-2.16-1.08-5.906-.414-7.56 0-1.774.443-2.666 2.026-5.132 2.026-2 0-1.71-2.471-5.098-2.471z" transform="matrix(-1.53664 0 0 1 356.51 0)" fill-opacity=".728" fill-rule="evenodd" filter="url(#a)"/><path d="M65.301 110.064c1.128 2.638 5.434 2.026 6.063 5.236-.23.968-.54 2.652-1.059 3.49-.922.92-1.32 1.435-2.566 1.468-2.623-.832-7.553.485-9.29-1.529-1.739-1.498-3.166-5.016-3.318-7.381-.481-3.347 1.745-4.622 3.959-6.97 2.18 2.038 3.884 3.819 6.211 5.686z" fill="#e6e6e6" fill-rule="evenodd" stroke="#333"/><path d="M80.156 96.182c-.449.653-1.355 2.608-2.478 3.356-.863.574-1.797 1.075-2.654 1.587-2.168 1.431-1.267 5.426-2.923 7.331-1.928 1.196-5.882 2.53-8.048 2.557-3.265-.458-6.049-3.38-5.296-6.194.885-.53 1.703-2.147 2.741-2.56 3.129-.687 5.94-.389 5.84-4.943 2.644-2.718.242-10.565 3.029-13.143 2.098.968 9.953 9.913 9.79 12.009z" fill="#00325c" fill-rule="evenodd" stroke="#00192e"/><path d="M70.557 118.078c-2.975 1.175-6.444-.047-8.994-.596-2.94.098-4.72-2.9-6.07-8.471" fill="none" stroke="#333"/><path d="M87.836 110.35c2.622 1.167 6.47 1.583 9.115 3.508.49.865.548 1.903.74 2.87-.052 1.301-.752 2.172-1.642 3.043-2.489 1.176-5.4.61-8.042.315-2.294.085-5.031-.245-6.751-1.875-2.63-2.126-2.375-4.343-2.35-7.57 2.985.01 5.955-.076 8.93-.29z" fill="#e6e6e6" fill-rule="evenodd" stroke="#333"/><path d="M84.826 86.764c.145.779 4.071 4.393 3.807 5.716-.204 1.016-.508 2.031-.75 3-.519 2.545 1.946 5.107 2.125 7.625-.515 2.209-1.364 5.573-2.875 7.125-2.63 1.988-6.665 1.895-8.125-.625.25-1.001.06-1.598.5-2.625 1.843-2.786 3.756-6.12.25-8.75-.058-3.791-11.02-9.224-10.878-13.018 2.167-.8 14.578-.044 15.946 1.552z" fill="#00325c" fill-rule="evenodd" stroke="#00192e"/><path d="M97.061 117.837c-3.072.895-6.433 1.485-8.921.702-2.936-.175-5.573-.59-8.455-3.258" fill="none" stroke="#333"/><path d="M89.158 9.424c10.451-.01 14.552 6.905 14.647 15.874-.009 1.876-.894 5.565-1.368 7.422.198 3.663 1.092 6.434-.006 10.003-1.282 5.05-4.157 6.844-9.055 7.91-4.343-.106-6.985-2.654-10.225-5.706-4.642-3.837-9.735-8.372-11.422-14.022-.583-5.392 2.057-10.52 3.612-15.539 2.158-5.49 8.61-6.738 13.817-5.942z" fill="#e9d2af" fill-rule="evenodd" stroke="#3f2d10"/><path d="M105.802 26.54c-1.613-1.831-2.994.122-1.684 1.43.49.488.21 1.263.847 1.723 1.852 1.406 3.029.551 2.569-1.208-.07.527 1.775.845 2.392 1.03 1.462-.728 1.038-1.257.395-2.359.58.481 1.971 2.57 1.908-2.102-1.108-2.118-4.988-4.382-3.568-.486-2.754-4.69-4.121-1.073-2.86 1.972zM102.761 28.037c.899 2.276 3.412 2.899 4.885 3.835 1.171 2.488 1.186 4.445-1.877 4.477-2.255-.527-3.41-1.94-4.15-3.988" fill="#e9d2af" fill-rule="evenodd" stroke="#3f2d10"/><path d="M101.123 23.294c1.352 3.005.286 4.758-2.637 4.31-.9.392-2.762-1.81-2.325-3.261-.302-3.906 3.082-3.974 4.962-1.049z" fill="#fff" fill-rule="evenodd" stroke="#333"/><path d="M99.859 23.654c-.385-.359 1.882-1.013 1.745 1.009-.106 1.566-2.002 1.93-2.632 1.487-1.266-.891.276-2.812.887-2.496z" fill-rule="evenodd" stroke="#000"/><path d="M70.293 31.304c1.562-.236-.29 5.73-.397 6.853-.166 1.74-2.83 4.658-3.702 6.279-.74 1.376-4.905.802-5.996.546-1.836-.432-3.71.817-4.387 1.733-2.11 2.861-1.172-.996-.718-2.394.357-1.098 2.482-2.822 3.371-3.726 1.513-1.536 1.638-3.062 2.864-4.722 1.17-1.585 2.818-1.855 4.684-2.136 1.166-.176 2.899-1.933 4.281-2.433z" fill="#28170b" fill-rule="evenodd" stroke="#120a04"/><path d="M65.732 91.29c2.741-3.07-.953-9.244.999-12.882.439-6.1-.015-12.806 5.05-18.723.972-2.986 3.885-3.47 5.872-5.884 2.158-2.085 3.05-2.235 6.062-1.887 3.739 1.203 3.271.76 6.938 2.225 2.604 1.692 4.2 4.04 4.005 7.123-.322 2.758-.919 5.193-.063 7.875-.354 4.455 2.832 9.51 1.477 13.809-1.74 4.974-.955 6.738-2.377 11.751-3.997-3.27-11.78-.062-16.704-1.464-3.958-2.21-9.182 1.685-11.26-1.944z" fill="#1a1a1a" fill-rule="evenodd" stroke="#000"/><path d="M91.9 55.53c-1.835 4.547-11.122 2.854-14.082-1.572 2.6-2.784 2.66-6.761 4.892-7.886 2.272-.21 4.458.467 6.603 1.14 1.709 1.393 3.013 6.586 2.587 8.319z" fill="#e9d2af" fill-rule="evenodd" stroke="#3f2d10"/><path d="M75.226 36.023c4.839-.918 5.768 2.584 7.823 4.163 2.246.541 4.182 1.796 6.363 2.5.916.005 1.715.042 2.47-.331 1.913-.988 3.263-2.76 4.803-4.227 2.286-1.063 3.936-1.574 6.539-1.562 1.391.972 2.923 1.066 1.29 4.663-3.508.074-5.02-.718-7.252.215-1.636 1.357-1.671 3.568.447 4.47 1.652-.296 3.178-.041 4.072-1.917 2.714.261 2.258 2.385 1.386 4.225-.64 4.364-3.547 5.034-7.772 4.4-2.689-.346-6.184.094-8.671-.917-2.221-1.414-3.701-2.695-5.301-4.808-1.34-2.9-3.441-4.479-5.083-6.899-.355-1.67-2.466-2.803-1.114-3.975zM103.093 15.68c.693-9.86-26.19-13.248-27.633-5.457-7.967.623-8.124 19.949-2.485 25.88.46-.707 1.921-.699 2.127-1.79.87-4.609.342-12.037 4.267-11.325 3.416-1.112 2.174 3.4 2.985 4.08 5.653-3.504-.131-9.449 5.538-11.817 2.777 1.138 6.294 2.89 9.193.045 2.465.012 3.904 1.213 6.008.383z" fill="#28170b" fill-rule="evenodd" stroke="#120a04"/><path d="M80.526 23.516c-5.852-2.358-4.861 6.33-.527 5.498M79.394 24.886c-.844-1.497-3.098 1.165-.013 2.625" fill="#e9d2af" fill-rule="evenodd" stroke="#3f2d10"/><path d="M102.233 42.564c-.967.403-1.803-1.148-4.945 1.046" fill="none" stroke="#3f2d10"/><path d="M106.234 46.778c2.36-2.319 3.148-8.034 3.676-11.314-.227-1.56-.797-4.026-.5-5.825 1.091-.953.732 2.416 2 2.899.312-2.16-1.248-6.092 1.89-3.844.616 1.213 1.098 1.708.644 2.9 2.452-1.139.886-9.869 3.523-1.704.486 1.565-1.248 2.48-2.039 3.704 1.537-1.092 4.085-4.709 3.961-1.026-.624 1.101-2.629 3.079-3.743 3.498-.882.927-1.293 2.27-1.866 3.432-.288 3.117-1.806 9.187-3.228 11.93-2.87.87-7.96 7.913-10.603 8.954-.974.618-2.843 1.747-3.9 2.075-2.753-.998-3.128-3.629-2.627-6.488.618-3.736 9.896-7.544 12.812-9.191z" fill="#e9d2af" fill-rule="evenodd" stroke="#3f2d10"/><path style="-inkscape-font-specification:Rufscript" d="M88.497 73.07c-.047.025-.116.14-.076-.087-.002-.984-.088-1.917-.092-2.901-.004-.481-.01-.964.003-1.451.053-.284.179-.366.276-.468.203-.168.41-.29.614-.36.101.11.168.358.233.581.086.315.048.8-.054 1.135-.117.458-.305.717-.435 1.14-.098.255-.056.622.048.714.132.171.291.228.394.523.057.166.118.37.113.626-.09.195-.256.223-.32-.032-.083-.16-.155-.392-.244-.512-.095-.042-.16-.59-.27-.175-.059.28-.042.6-.051.894.012.145-.061.191-.094.284l-.045.09zm.138-2.395c.206-.398.425-.795.576-1.363.071-.239.063-.592-.031-.702-.144-.224-.333-.065-.499.023-.154.008-.083.504-.08.748.023.423.022.863.034 1.294zm1.667 1.484c0-.681.016-1.379-.042-2.024l-.091-1.381c-.08-.18-.212-.075-.316-.08-.128.035-.301.038-.339-.342-.013-.3.182-.212.257-.317.407-.21.817-.463 1.223-.502.092-.014.267.013.213.387-.072.266-.202.28-.304.336-.12.052-.24.093-.36.159-.089.37-.023.77-.001 1.127.043.752.05 1.535.027 2.32.006.305-.07.628-.192.504-.038-.01-.077-.07-.075-.187zm1.305-2.165c-.075.245.011.585.03.841.033.283.094.597.038.921-.083.28-.272.223-.272-.144-.055-.992-.067-2.015-.088-3.03 0-.328-.019-.66.009-.994.125-.372.309-.487.471-.62.157-.096.323-.24.474-.15.057.157.192.377.155.637-.243.048-.492.018-.733.278-.128.145-.093.584-.096.856-.013.34.048.73.195.648.164-.036.332-.397.492-.266.138.172.006.642-.114.696a1.3 1.3 0 01-.561.327zm2.367 1.834c-.046-.367-.034-.789-.043-1.186-.014-1.301.015-2.622-.008-3.919-.024-.052-.09.344-.13.457a8.977 8.977 0 01-.377 1.102c.062.134.226.252.188.515-.084.363-.227.296-.291.022-.179-.414-.354-.835-.538-1.23.025 1.14.056 2.28.06 3.432.003.314-.172.574-.247.368-.06-.253-.037-.605-.05-.908a180.772 180.772 0 01-.006-3.15c0-.326.136-.48.233-.458.121.054.229.25.276.555.051.165.107.625.208.432.136-.43.277-.852.411-1.288.065-.27.174-.499.184-.825.056-.244.258-.375.26-.018.029.66.026 1.34.05 2.003.02 1.033.01 2.084.052 3.104.026.264.051.594-.059.812-.043.113-.125.336-.173.18z" font-size="12" font-weight="400" fill="#fff" font-family="Rufscript"/><path d="M80.148 57.868c2.145-1.367 4.415-2.196 6.829-2.904 2.37-.87 4.504-2.151 6.562-3.583 2.073 3.685 3.27 9.277 4.626 13.466-1.942.84-4.293 2.12-6.226 3-2.598 1.206-9.3.964-11.079-1.516" fill="#1a1a1a" fill-rule="evenodd" stroke="#000"/><path d="M123.744 26l-4.066 4.242" fill="none" stroke="#49006b"/></svg>