<svg xmlns="http://www.w3.org/2000/svg" width="128" height="128" version="1.0"><defs><filter id="a" x="-.125" width="1.25" y="-.327" height="1.653"><feGaussianBlur stdDeviation="1.963"/></filter></defs><metadata/><path d="M68.963 32.631c-1.52.427 2.616 5.108 3.174 6.087.866 1.518 4.492 3.087 5.953 4.207 1.24.951 4.802-1.28 5.692-1.962 1.497-1.147 3.718-.778 4.712-.22 3.099 1.743.66-1.39-.328-2.478-.775-.854-3.421-1.555-4.603-2.014-2.01-.78-2.75-2.12-4.55-3.131-1.717-.966-3.33-.536-5.147-.027-1.135.319-3.437-.573-4.903-.462z" fill="#28170b" fill-rule="evenodd" stroke="#120a04"/><path d="M51.835 111.983c-1.872.606-6.114-.639-8.895-1.334-2.357-.59-4.728 1.17-5.782 2.224-1.414 1.413-1.726 4.217-1.335 5.782.832 3.327 5.383 3.104 7.561 2.668 2.008-.401 4.245 1.284 6.227 1.78 2.276.568 8.513-.361 11.366-.361 2.9 0 11.184 2.688 14.06 1.25 2.232-1.116 4.291-.772 6.227-2.224 1.513-1.134 2.227-3.124 2.669-4.892.784-3.136-1.877-3.607-3.558-4.448-2.161-1.08-5.907-.414-7.561 0-1.773.443-14.066-2.224-16.532-2.224-2 0-1.06 1.78-4.447 1.78z" fill-opacity=".728" fill-rule="evenodd" filter="url(#a)"/><path d="M71.04 110.142c2.356 1.638 6.058 2.77 8.294 5.158.319.943.18 1.973.186 2.959-.295 1.268-1.146 1.992-2.185 2.68-2.665.686-5.417-.417-7.957-1.203-2.27-.348-4.895-1.187-6.278-3.111-2.183-2.583-1.516-4.713-.884-7.877 2.929.571 5.862 1.045 8.825 1.394z" fill="#e6e6e6" fill-rule="evenodd" stroke="#333"/><path d="M66.544 86.91c2.177 2.725 1.962 3.797 4.825 8.186-.519 2.545.446 4.982.625 7.5-.515 2.209.137 5.698-1.375 7.25-2.63 1.988-6.665 1.895-8.125-.625.25-1.001.06-1.598.5-2.625 1.286-2.74.677-5.864.25-8.75-.058-3.791-4.126-6.572-3.984-10.366 2.168-.801 5.916-2.166 7.284-.57z" fill="#00325c" fill-rule="evenodd" stroke="#00192e"/><path d="M78.693 119.23c-3.185.3-6.597.249-8.894-.988-2.85-.724-5.362-1.628-7.692-4.79" fill="none" stroke="#333"/><path d="M48.602 111.091c-3.176.624-5.79 1.221-8.486 3.182-.6.719-.572 1.413-.53 2.298.237.764.51 1.512.707 2.298 2.752.257 5.793 1.906 8.667.98 3.018.039 6.07-1.018 8.569-2.836.577-1.71-.042-4.027-.177-5.922-2.784.875-5.948.733-8.75 0z" fill="#e6e6e6" fill-rule="evenodd" stroke="#333"/><path d="M40.293 117.367c3.252-.557 6.502 1.577 9.887 1.124 3.144-.104 4.775-2.39 7.084-2.539" fill="none" stroke="#333"/><path d="M52.076 86.871c-.145.78-3.187 5.63-2.923 6.954.944 2.795-.163 5.052-.862 7.896.016 2.79-.872 7.45 1.125 9.5 2.845 1.127 5.706 1.845 8.125-.625-1.246-3.852-.46-7.54.134-11.552.029-3.8 2.89-6.546 2.746-10.366-2.167-.8-6.977-3.403-8.345-1.807z" fill="#00325c" fill-rule="evenodd" stroke="#00192e"/><path d="M74.975 91.601c-2.805-3.461-1.26-9.456-.902-13.42-1.228-4.957.306-9.842-.747-14.797-.465-3.106 2.397-5.976.836-8.684-1.784-2.413-6.292-3.536-9.32-3.69-3.887.569-7.81.044-11.668.883-2.847 1.24-7.81 2.166-8.127 5.24-.137 2.773 2.756 7.19 1.47 9.695-.387 4.452-1.709 9.48-1.082 13.944.894 5.194-.64 7.356-.064 12.535 4.481-2.566 9.733-.03 14.822-.6 4.268-1.526 12.135 2.13 14.782-1.106z" fill="#1a1a1a" fill-rule="evenodd" stroke="#000"/><path d="M54.807 55.165c.657 4.86 9.389 5.336 13.35 1.778-.626-2.689-.793-5.782-3.1-7.65-2.15-.765-4.435-.649-6.68-.525-2 .927-3.555 4.613-3.57 6.397z" fill="#e9d2af" fill-rule="evenodd" stroke="#3f2d10"/><path d="M46.28 17.542c-1.41 4.8.633 10.454 1.891 15.156-1.823 5.854-1.586 11.191 3.967 15.861 6.424 2.089 20.154 3.055 22.354-5.99 1.366-11.377-1.113-4.824 1.473-14.329.855-12.313-3.514-20.66-15.09-19.765-8.002-.262-11.436 3.864-14.595 9.067z" fill="#e9d2af" fill-rule="evenodd" stroke="#3f2d10"/><path d="M61.36 35.141c-5.562-.312-8.43 2.973-11.61 4.943-.54.18-.915.909-1.335 1.4-1.68 3.514.759 7.342 3.902 9.528 2.633 1.528 5.315 2.031 8.203 1.529 2.73-.486 5.7-.35 8.111-1.647 3.984-.585 5.369-2.754 5.837-6.645-.175-2.648-1.475-5.784-3.736-7.083-2.947-.834-6.31-2.534-9.373-2.025zm-.775 3.369c1.816.525 5.342 1.592 6.743 2.768.563 2.322-.536 4.633-2.932 4.353-1.556-1.877-4.67-1.416-6.418.343-2.086.372-2.958-2.11-2.905-3.846.677-1.825 3.933-2.644 5.512-3.618zM60.913 14.613c4.481-1.03 3.745-2.096 4.886-3.49 8.755-.862 9.13 7.674 8.138 11.16 1.657-1.494.785-2.25 2.831-.808.47.403.115 4.06.035 4.535-.085.499-1.862 6.863-1.488 7.015 4.477-2.717 5.29-14.654.515-21.191-3.522-4.824-9.732-6.748-15.077-4.938C45.381 3.72 40.02 22.87 47.577 36.068c.882-2.986-1.633-8.984-.523-12.234.924-.823 1.167.804 2.36.676-4.017-8.132.395-12.527 5.778-13.373 1.383-1.224 1.352 3.041 5.72 3.476z" fill="#28170b" fill-rule="evenodd" stroke="#120a04"/><path d="M64.49 24.269c-1.415 2.975-.387 4.75 2.545 4.366.892.41 2.8-1.75 2.394-3.21.387-3.9-2.996-4.04-4.938-1.156zM56.578 22.138c-2.592.486-3.834 2.263-3.375 4.945 2.899 5.066 8.69-2.059 3.375-4.945z" fill="#fff" fill-rule="evenodd" stroke="#333"/><path d="M67.472 25.263c.525.02-.61-2.048-1.946-.525-1.036 1.18.044 2.78.802 2.915 1.524.268 1.798-2.18 1.144-2.39zM55.353 24.454c.473-.941-2.174-.224-1.533 1.974.442 1.518 2.114.617 2.241.538 1.698-1.058.385-3.847-.708-2.512z" fill-rule="evenodd" stroke="#000"/><path d="M59.304 27.964c-1.138 2.17-4.388 7.37.63 7.261 4.682-.01 2.255-5.317 2.122-7.34" fill="#e9d2af" fill-rule="evenodd" stroke="#3f2d10"/><path d="M58.222 41.74c.958.426 3.696.253 5.374.09" fill="none" stroke="#3f2d10"/><path d="M75.255 22.661c7.413-2.957 4.337 7.177.15 6.004M76.23 24.178c2.127-1.583 2.941 1.603-.175 2.997M47.738 24.74c-7.746-1.921-3.319 7.7.669 5.967M46.979 26.374c-2.323-1.278-2.696 1.99.581 2.946M78.29 77.721c.554 3.261.496 7.033-1 10-1.097 1.13-2.686-.507-3.5 1.125.326 1.412 1.69 1.773 3 2.125-.938 1.857-2.74 3.42-.874 5.5 1.21-.621 2.044-2.018 2.375-3.25.137 1.437-1.076 4.29 1.625 3.125 1.31-.983.672-2.42.75-3.875 1.048 1.62 1.364 4.056 2.75 1.25.139-1.258-.468-2.133-1.125-3.125-.171-1.268.283-2.597.5-3.875 1.593-2.694 2.045-5.694 2.5-8.75-1.815-2.386.031-5.733-1.5-8.125-.427-1.071-.836-1.99-1.5-2.875-2.815-.805-5.105.014-6.375 2.625-1.495 3.45 1.72 5.314 2.375 8.125z" fill="#e9d2af" fill-rule="evenodd" stroke="#3f2d10"/><path d="M70.95 63.43c.301.858.822 1.173 2.03 3.38 1.062 2.289 1.668 3.704 2.113 6.172 4.07-1.143 6.212-2.637 10.132-4.643-.781-1.968-1.933-3.876-2.679-5.864-1.117-2.594-2.917-3.183-4.506-5.318-1.84-1.448-2.457-1.936-4.56-3.136" fill="#1a1a1a" fill-rule="evenodd" stroke="#000"/><path d="M40.44 77.362c-1.22 3.075-1.947 6.777-1.1 9.99.838 1.334 2.732.062 3.189 1.827-.612 1.314-2.021 1.384-3.376 1.455.533 2.012 1.97 3.915-.288 5.562-1.055-.86-1.58-2.398-1.647-3.673-.433 1.377.16 4.42-2.24 2.72-1.077-1.234-.154-2.507.073-3.947-1.363 1.367-2.178 3.684-2.95.651.125-1.26.9-1.989 1.75-2.823.43-1.205.263-2.6.316-3.894-.999-2.966-.817-5.994-.626-9.078 2.27-1.958 1.16-5.615 3.156-7.636.64-.96 1.23-1.773 2.064-2.5 2.92-.203 4.99 1.074 5.69 3.892.746 3.685-2.786 4.84-4.011 7.454z" fill="#e9d2af" fill-rule="evenodd" stroke="#3f2d10"/><path d="M47.835 63.194c-.684 2.45.41 1.245-.915 3.383-1.184 2.23-2.544 6.483-3.121 8.923-4.003-1.36-7.255-5.199-11.06-7.413.885-1.923 3.263-3.905 4.115-5.85 1.256-2.53 2.493-2.486 4.195-4.533 1.563-1.192 2.007-2.795 5.244-2.919" fill="#1a1a1a" fill-rule="evenodd" stroke="#000"/><path style="-inkscape-font-specification:Rufscript" d="M52.944 70.184c-.126.005-.312.09-.205-.117-.005-.974-.233-1.931-.244-2.905-.012-.477-.028-.957.009-1.432.14-.26.476-.29.736-.35a9.125 9.125 0 011.639-.107c.27.15.449.422.623.669.228.346.127.81-.146 1.1-.313.404-.815.584-1.162.949-.26.212-.148.592.13.725.351.223.776.344 1.05.676.152.187.316.414.302.665-.242.156-.682.117-.855-.161-.221-.192-.411-.45-.65-.606-.254-.08-.428-.648-.72-.282-.158.253-.113.576-.138.863.032.148-.162.164-.25.242l-.12.07zm.367-2.312c.55-.31 1.136-.612 1.538-1.113.19-.207.169-.559-.083-.706-.384-.28-.888-.199-1.332-.18-.41-.054-.221.465-.215.707.064.427.06.862.092 1.292zm4.45 2.143c-.001-.673.043-1.356-.11-2.017a217.46 217.46 0 01-.246-1.401c-.21-.21-.566-.16-.843-.207-.34-.018-.803-.085-.903-.476-.035-.302.484-.136.684-.21 1.087-.042 2.18-.125 3.265 0 .247.025.714.123.57.47-.193.233-.54.196-.812.209-.32.003-.64-.006-.959.01-.239.33-.065.753-.005 1.114.115.76.135 1.537.073 2.304.016.304-.186.592-.514.42-.1-.026-.205-.1-.2-.216zm3.483-1.61c-.199.2.025.561.07.809.09.304.266.65.113.96-.222.243-.727.11-.726-.253-.147-1.002-.178-2.018-.235-3.028 0-.325-.05-.661.024-.98.332-.317.824-.355 1.257-.42.418-.032.862-.108 1.265.042.153.18.512.451.413.694-.647-.051-1.313-.183-1.956-.023-.34.09-.248.539-.256.806-.035.33.129.741.52.72.439.03.887-.258 1.315-.063.367.225.016.636-.304.641-.49.11-1 .11-1.5.095zm6.319 2.773c-.12-.38-.09-.793-.114-1.189-.037-1.291.039-2.585-.022-3.875-.065-.062-.241.303-.348.398-.285.358-.651.667-1.006.936.16.157.617.342.504.586-.225.324-.608.2-.779-.098-.476-.48-.945-.968-1.436-1.433.069 1.137.15 2.276.16 3.415.01.313-.458.499-.659.265-.16-.275-.097-.614-.13-.918a66.317 66.317 0 01-.02-3.116c0-.322.365-.418.624-.357.323.102.61.34.737.66.136.184.284.66.553.512.365-.37.741-.73 1.099-1.107.173-.24.463-.422.49-.74.151-.219.688-.267.697.088.074.664.067 1.335.133 2 .053 1.029.026 2.063.136 3.088.07.27.137.607-.155.778-.115.094-.334.281-.464.107z" font-size="7.685" font-weight="400" fill="#fff" font-family="Rufscript"/></svg>