<?xml version="1.0" encoding="UTF-8"?>
<svg width="128" height="128" version="1.0" xmlns="http://www.w3.org/2000/svg">
 <defs>
  <filter id="a" x="-.125" y="-.327" width="1.25" height="1.653">
   <feGaussianBlur stdDeviation="1.963"/>
  </filter>
 </defs>
 <path transform="matrix(-1.174 0 0 1 -101.89 -17)" d="M-147.252 128.566c-5.465.422-6.823-3.26-11.495.89-1.414 1.413-1.726 4.216-1.334 5.781 2.874 3.851 5.998 2.88 10.605 4.448 2.276.569 4.263.889 7.116.889 2.9 0 4.684 1.438 7.56 0 2.232-1.116 4.291-.772 6.227-2.224 1.513-1.134 2.227-3.124 2.669-4.892.784-3.135-1.877-3.607-3.558-4.448-2.161-1.08-5.907-.413-7.561 0-1.773.444-3.316-2.223-5.782-2.223-2 0-1.06 1.779-4.447 1.779z" fill-opacity=".728" fill-rule="evenodd" filter="url(#a)"/>
 <path d="m83.979 74.37 5.56-5.517-1.022 11.316-4.538-5.8z" fill="#b3b3b3" fill-rule="evenodd" stroke="#000" stroke-width="1.0001"/>
 <path d="M59.936 13.034c10.792-.713 11.706 8.65 13.872 16.639" fill="none" stroke="green" stroke-width="1.0001"/>
 <path d="M71.379 25.944l3.26-.802 12.35 50.216 17.827 23.28-11.268 7.612-12.167-34.008-8.345-38.743-2.777-1.236-.644-4.637 1.764-1.682z" fill="#1a1a1a" fill-rule="evenodd" stroke="#000" stroke-width="1.0001"/>
 <path d="m83.856 64.026c7.495 0.21 9.227 7.458 8.238 18.03" fill="none" stroke="#000" stroke-width="1.0001"/>
 <g fill-rule="evenodd" stroke-width="1.0001">
  <path d="m79.076 25.607-4.266-13.129 1.422-9.686c4.197 5.263 4.687 14.05 6.514 21.567l-3.67 1.248z" fill="#ccc" stroke="#1a1a1a"/>
  <path d="M77.288 24.664l3.651 14.144 5.659.51-3.56-16.587-5.75 1.933z" fill="#520" stroke="#2b1100"/>
  <path d="M75.524 28.037l8.764-2.328.642 2.608-8.764 2.328-.642-2.608zM77.088 34.395l8.764-2.328.641 2.609-8.764 2.328-.641-2.609z" fill="#1a1a1a" stroke="#000"/>
 </g>
 <path transform="matrix(.78332 -.69401 .64875 1.1314 -438.27 24.182)" d="M428.86 247.762a2.74 1.856 0 11-5.48 0 2.74 1.856 0 115.48 0z" fill="red" stroke="maroon" stroke-linejoin="round" stroke-width=".526"/>
 <path transform="matrix(.78332 -.69401 .64875 1.1314 -433.54 24.404)" d="M428.86 247.762a2.74 1.856 0 11-5.48 0 2.74 1.856 0 115.48 0z" fill="red" stroke="maroon" stroke-linejoin="round" stroke-width=".526"/>
 <path transform="matrix(.78332 -.69401 .64875 1.1314 -434.38 28.758)" d="M428.86 247.762a2.74 1.856 0 11-5.48 0 2.74 1.856 0 115.48 0z" fill="red" stroke="maroon" stroke-linejoin="round" stroke-width=".526"/>
 <path transform="matrix(.78332 -.69401 .64875 1.1314 -438.5 30.982)" d="M428.86 247.762a2.74 1.856 0 11-5.48 0 2.74 1.856 0 115.48 0z" fill="red" stroke="maroon" stroke-linejoin="round" stroke-width=".526"/>
 <path transform="matrix(.78332 -.69401 .64875 1.1314 -440.48 27.839)" d="M428.86 247.762a2.74 1.856 0 11-5.48 0 2.74 1.856 0 115.48 0z" fill="red" stroke="maroon" stroke-linejoin="round" stroke-width=".526"/>
 <path d="M59.759 10.044a2.602 1.763-35.042 11-4.261 2.989 2.602 1.763-35.042 114.261-2.989z" fill="#ffd600" stroke="#8b6600" stroke-linejoin="round" stroke-width=".49958"/>
 <g fill-rule="evenodd">
  <path d="M46.664 81.135c3.126-.318 6.565-1.324 8.903-3.443.758-1.29-1.143-2.331.145-3.488 1.375-.06 2.05 1.098 2.704 2.21 1.462-1.33 2.438-3.375 4.814-2.192-.263 1.265-1.33 2.382-2.375 2.996 1.35-.238 3.656-2.069 3.272.698-.569 1.448-2.046 1.227-3.358 1.666 1.748.55 4.058.224 1.839 2.201-1.117.446-2.071.111-3.145-.24-1.205.164-2.307.916-3.422 1.437-2.063 2.14-4.696 3.312-7.379 4.5-2.643-1.057-7.377 1.953-9.954 1.156-1.09-.12-1.373-9.57-2.352-9.955-1.448-2.374 2.25-2.209 4.32-4.031 2.78-2.24 3.25 6.596 5.988 6.485z" fill="#e9d2af" stroke="#3f2d10" stroke-width="1.0001"/>
  <path d="M43.694 63.552c-2.563 2.655-4.27 5.672-5.372 9.14-1.377 2.447-2.787 4.625-3.092 7.47 3.768.711 7.582-.036 11.319.478 1.71-4.54 1.417-9.523 1.51-14.307" fill="#427742" stroke="#2a4d2a" stroke-width="1.0001"/>
  <path d="M54.274 93.403c.138.74.845 2.66.593 3.917-.896 2.655-1.02 5.135-.356 7.836-.015 2.65.829 7.075-1.068 9.023-2.703 1.07-5.42 1.752-7.717-.594 1.183-3.658 1.276-6.993.712-10.804-.027-3.61-.73-7.056-.593-10.684 2.058-.761 7.13-.21 8.429 1.306z" fill="#264426" stroke="#182c18" stroke-width="1.0001"/>
  <path d="M54.8 110.376c2.722.118 4.925-.686 7.932.095.735.594 1.147 1.491 1.653 2.28.408 1.167.092 2.18-.392 3.26-1.79 1.905-4.559 2.417-6.997 3.077-1.998.873-5.956 2.484-8.043 1.642-3.064-.963-3.847-3.961-3.286-6.822.535-.208.037-7.523 1.196-9.125 2.37.818 6.278-.066 7.443-1.679.9 1.547.448 5.09.494 7.272z" fill="#520" stroke="#401a00" stroke-width="1.0001"/>
  <path d="M64.84 93.521c.138.74.845 2.661.593 3.918-.193.965-.482 1.93-.712 2.85-.492 2.417.424 4.731.594 7.123-.49 2.097.13 5.411-1.306 6.885-2.498 1.888-5.155 1.632-6.542-.761.238-.95.057-1.686.475-2.661 1.222-2.602-.532-5.234-.938-7.975-.055-3.6-.729-7.081-.593-10.685 2.058-.76 7.13-.21 8.429 1.306z" fill="#264426" stroke="#182c18" stroke-width="1.0001"/>
  <path d="M64.026 113.872c-2.463 1.78-6.467 3.857-8.943 3.952-2.682.78-5.411 2.2-8.841.735" fill="#520" stroke="#401a00" stroke-width="1.0001"/>
  <path d="M65.722 111.117c2.723.119 4.926-1.19 7.933-.409.735.595 1.147 1.492 1.652 2.28.408 1.167.092 2.18-.391 3.26-1.79 1.905-4.56 2.417-6.997 3.077-1.998.874-5.956 2.485-8.044 1.643-3.063-.964-3.68-4.633-3.118-7.494 1.276-.497-.649-5.21.27-8.268.749 1.648 6.567 1.18 8.233-.858 1.321 1.344-.122 7.05.462 6.77z" fill="#520" stroke="#401a00" stroke-width="1.0001"/>
  <path d="M42.134 96.515c2.665-3.288-.358-7.737-.698-11.501-2.035-3.108-.845-10.123.324-14.914.443-2.95 1.422-5.606 2.904-8.178 1.694-2.292 3.958-3.596 6.834-3.743 3.691.54 7.417.042 11.081.84 2.705 1.176 4.568 3.125 4.87 6.044.13 2.634-.047 5.008 1.175 7.387.367 4.228-.13 8.758-.725 12.998-.85 4.932 3.167 6.72 2.62 11.639-4.256-2.437-9.773 1.236-14.606.695-4.054-1.449-11.264 1.806-13.779-1.267z" fill="#427742" stroke="#2a4d2a" stroke-width="1.0001"/>
  <path d="M74.425 78.092c2.727-1.56 5.46-3.877 6.736-6.763.168-1.487-1.991-1.666-1.284-3.247 1.232-.612 2.32.171 3.368.92.796-1.808.856-4.073 3.509-3.957.274 1.263-.249 2.717-.954 3.702 1.137-.765 2.5-3.375 3.273-.691.07 1.555-1.37 1.952-2.391 2.887 1.821-.208 3.8-1.444 2.575 1.264-.84.86-1.847.943-2.972 1.058-1.033.64-1.735 1.774-2.542 2.704-1.017 2.793-2.946 4.933-4.915 7.11-2.845.106-4.188 3.479-6.867 3.797-1.044.332-6.95-5.825-8-5.779-2.288-1.58 1.207-3.992 2.357-6.498 1.63-3.177 5.65 4.706 8.107 3.493z" fill="#e9d2af" stroke="#3f2d10" stroke-width="1.0001"/>
  <path d="M66.232 63.773c1.656 1.759 2.832 3.73 3.92 5.857 1.23 2.057 2.805 3.822 4.505 5.489-3.071 2.587-7.241 4.509-10.91 6.516-1.129-1.664-2.147-3.391-3.31-5.038-1.44-2.263-1.1-4.816-1.928-7.204-.444-2.371.208-4.39 2.38-5.63" fill="#427742" stroke="#2a4d2a" stroke-width="1.0001"/>
  <path d="M48.932 61.009c1.652 4.354 9.832 2.918 12.732-1.225-1.157-2.353-1.976-5.179-4.511-6.41-2.153-.247-4.243.352-6.293.949-1.65 1.288-2.297 5.032-1.928 6.686z" fill="#e9d2af" stroke="#3f2d10" stroke-width="1.0001"/>
  <path d="M51.233 17.73c-4.228.058-8.565 1.662-10.21 5.907-1.453 4.773-3.962 9.662-3.383 14.78 1.628 5.359 2.964 11.486 7.39 15.108 3.091 2.883 8.638 4.282 12.762 4.363 4.647-1.036 7.889-3.597 9.083-8.4.86-2.846.383-5.144.089-7.865 1.081.69 2.304.983 3.799.682 2.634-1.234 1.844-2.941-.149-4.63-.916-.127-2.07-.057-3.205-.237.349-1.615.683-3.368.683-4.482-.133-8.518-4.054-15.076-13.98-15.018a18.117 18.117 0 00-2.879-.208z" fill="#e9d2af" stroke="#3f2d10" stroke-width="1.0001"/>
  <path d="M66.223 30.333c-2.235.502-3.284 2.21-2.85 4.749 2.582 4.766 7.49-2.091 2.85-4.75z" fill="#fff" stroke="#333" stroke-width="1.0001"/>
  <g fill="#e9d2af" stroke="#3f2d10" stroke-width="1.175">
   <path transform="matrix(-.75998 .0635 .07908 .94647 214.62 151.06)" d="m192.16-132.54c5.863-2.33 4.83 6.354 0.5 5.5m0.625-4.125c0.851-1.493 3.092 1.18 0 2.625"/>
  </g>
  <path d="M67.046 31.602c.434-.901-2.068-.179-1.425 1.9.444 1.433 2.018.55 2.137.474 1.596-1.03.306-3.659-.712-2.374z" stroke="#000" stroke-width="1.0001"/>
  <path d="M66.548 23.726c-2.546.71-5.398-1.63-6.173 1.187-1.064 2.216-2.418 3.336-.95 5.698.921 1.54.371 5.93 1.187 8.786-.355.355-4.897-3.087-5.461-3.087-1.14 3.188-.377 6.523 0 9.973-.177 5.659-4.097 7.29-7.36 10.21-3.118-.935-6.65-2.364-7.124-5.224-7.773-9.79-9.82-26.693 1.425-32.53 3.239-3.975 12.61-5.06 20.42-1.662 2.135 1.803 7.633 5.51 4.036 6.649zM54.439 57.68c3.321 3.326 6.888 1.696 10.21.475 2.149-1.102 3.73-5.324 4.748-7.361-3.183-2.195-1.123-3.845-.95-5.936-1.852-1.5-4.846.79-5.935 2.374-.65 5.44-5.426 5.805-9.973 7.124-1.776 1.624.35 2.425 1.9 3.324z" fill="#28170b" stroke="#120a04" stroke-width="1.0001"/>
  <path d="M44.05 48.666c1.583-.526-.81 7.673-.787 8.827.037 1.788-3.987 2.771-4.693 4.57-2.816 3.924-2.302 1.151-5.306 4.576-.41-3.838.95-7.218 1.583-9.032.553-2.008 1.984-3.235 3.877-3.864 1.182-.393 3.958-4.316 5.325-5.077z" fill="#28170b" stroke="#120a04" stroke-width="1.0001"/>
  <path d="M75.66 114.109c-2.462 1.781-6.467 3.857-8.943 3.952-2.681.781-5.41 2.201-8.84.736" fill="#520" stroke="#401a00" stroke-width="1.0001"/>
  <path d="m49.928 37.455c3.529 8.074 7.405 15.93 15.909 20.894l2.137-2.137c-6.847-3.806-11.99-10.678-15.671-20.182l-2.375 1.425z" fill="#333" stroke="#1a1a1a" stroke-width="1.0001"/>
  <path d="M37.581 48.852c14.643-7.02 23.425-17.833 27.306-31.817-10.606.474-19.694-12.71-31.817 1.424-7.822 12.203 2.22 20.437 4.511 30.393z" fill="#666" stroke="#1a1a1a" stroke-width="1.0001"/>
 </g>
 <path transform="matrix(.262 -.52647 .6499 .21224 -175.92 110.73)" d="M278.5 245.5l-2.52-1.135-2.536 1.094.3-2.746-1.824-2.075 2.705-.563 1.41-2.376 1.37 2.399 2.696.606-1.858 2.045.257 2.751z" fill="#ffcb00" stroke="#92420c" stroke-linejoin="round" stroke-width="1.053"/>
 <path d="M65.518 60.22c-10.406-1.669-21.913 10.345-23.941 26.378l.753 4.518c.411-6.416 10.498-27.526 24.526-28.075l-1.338-2.82z" fill="#9c009c" fill-rule="evenodd" stroke="#3d003d" stroke-width="1.0001"/>
</svg>
