<svg xmlns="http://www.w3.org/2000/svg" width="128" height="128" version="1.0"><defs><filter id="a" x="-.125" width="1.25" y="-.327" height="1.653"><feGaussianBlur stdDeviation="1.963"/></filter></defs><metadata/><path d="M29.919 61.636c-7.248-44.018-6.721-37.718-6.721-37.718l2.298-7.778 5.303 6.187 3.009 38.248-3.89 1.06z" fill="#999" fill-rule="evenodd" stroke="#4d4d4d"/><path d="M65.835 110.733c-1.872.606-6.114-.639-8.895-1.334-2.357-.59-4.728 1.17-5.782 2.224-1.414 1.413-1.726 4.217-1.335 5.782.832 3.327 5.383 3.104 7.561 2.668 2.008-.401 4.245 1.284 6.227 1.78 2.276.568 4.263.889 7.116.889 2.9 0 4.684 1.438 7.56 0 2.232-1.116 4.291-.772 6.227-2.224 1.513-1.134 2.227-3.124 2.669-4.892.784-3.136-1.877-3.607-3.558-4.448-2.161-1.08-5.907-.414-7.561 0-1.773.443-3.316-2.224-5.782-2.224-2 0-1.06 1.78-4.447 1.78z" fill-opacity=".728" fill-rule="evenodd" filter="url(#a)"/><path d="M64.602 108.841c-3.176.624-5.79 1.221-8.486 3.182-.6.719-.572 1.413-.53 2.298.237.764.51 1.512.707 2.298 2.752.257 5.793 1.906 8.667.98 3.018.039 6.07-1.018 8.569-2.836.577-1.71-.042-4.027-.177-5.922-2.784.875-5.948.733-8.75 0z" fill="#e6e6e6" fill-rule="evenodd" stroke="#333"/><path d="M56.293 115.117c3.252-.557 6.502 1.577 9.887 1.124 3.144-.104 4.775-2.39 7.084-2.539" fill="none" stroke="#333"/><path d="M75.827 109.371c-2.53 1.352-6.34 2.044-8.839 4.155-.427.898-.41 1.938-.53 2.916.144 1.294.905 2.112 1.856 2.917 2.567.993 5.429.219 8.043-.265 2.295-.08 5-.607 6.6-2.356 2.469-2.31 2.055-4.503 1.797-7.72-2.975.225-5.944.353-8.927.353z" fill="#e6e6e6" fill-rule="evenodd" stroke="#333"/><path d="M28.646 63.678l2.568 10.017 4.543-.724-.835-10.362-6.276 1.069z" fill="#999" fill-rule="evenodd" stroke="#4d4d4d"/><path d="M39.432 59.909c-12.067 1.86-14.875 2.24-14.875 2.24l2.805 3.226 10.992-1.827 1.078-3.64z" fill="#999" fill-rule="evenodd" stroke="#4d4d4d"/><path d="M62.19 68.932c-1.222-.698-7.175-5.71-11.921-1.931-2.802-.12-5.35 1.446-8.094.75-1.687-.674-2.785-1.075-4.03-2.381-.16-1.509-2.939-2.385-4.25-2.686-.838.939 1.49 2.007 1.653 3.222-2.246-.237-2.662 6.543-.472 6.542 2.806.432 5.498 1.39 8.357 1.487 4.155-.56 9.462 1.123 13.217-.941 1.181-2.768 6.758-2.135 5.54-4.062z" fill="#e9d2af" fill-rule="evenodd" stroke="#3f2d10"/><path d="M64.277 53.055c-3.433 1.82-6.128 4.281-8.364 7.392-2.178 1.999-4.3 3.718-5.537 6.466 3.54 1.943 7.601 2.443 11.173 4.178 3.196-3.986 4.532-9.068 6.188-13.825" fill="#1a1a1a" fill-rule="evenodd" stroke="#000"/><path d="M75.666 87.221c-.145.779-.89 2.802-.625 4.125.203 1.016.508 2.031.75 3 .518 2.545-.446 4.982-.625 7.5.515 2.209-.137 5.698 1.375 7.25 2.63 1.988 6.665 1.895 8.125-.625-.25-1.001-.06-1.598-.5-2.625-1.286-2.74-.677-5.864-.25-8.75.057-3.791.767-7.456.625-11.25-2.168-.8-7.507-.221-8.875 1.375zM64.54 87.096c-.144.779-.889 2.802-.624 4.125.943 2.795 1.074 5.406.375 8.25.016 2.79-.872 7.45 1.125 9.5 2.845 1.127 5.706 1.845 8.125-.625-1.246-3.852-1.344-7.363-.75-11.375.029-3.8.768-7.43.625-11.25-2.168-.8-7.507-.221-8.875 1.375z" fill="#00325c" fill-rule="evenodd" stroke="#00192e"/><path d="M89.45 90.373c-2.805-3.462-.873-8.646-.515-12.61-1.228-4.957 1.962-10.247.91-15.202-.467-3.106-1.497-5.903-3.058-8.61-1.784-2.414-4.167-3.787-7.196-3.942-3.886.57-7.808.045-11.667.884-2.847 1.24-4.81 3.291-5.127 6.364-.137 2.774.05 5.274-1.237 7.778-.387 4.452-1.864 8.971-1.238 13.435.895 5.194-1.334 7.325-.758 12.505 4.481-2.566 10.29 1.302 15.38.732 4.267-1.526 11.858 1.902 14.506-1.334z" fill="#1a1a1a" fill-rule="evenodd" stroke="#000"/><path d="M93.303 75.776c-2.52 2.143-5.79 4.023-9.104 4.256-1.533-.365-.939-2.568-2.757-2.432-1.047 1.002-.66 2.359-.292 3.665-2.075.142-4.34-.607-5.173 2.061 1.153.723 2.78.725 4.007.379-1.164.852-4.237 1.27-1.854 2.994 1.515.624 2.423-.66 3.714-1.337-.856 1.73-2.788 3.247.332 3.002 1.152-.524 1.594-1.493 2.11-2.565 1.002-.796 2.377-1.085 3.585-1.553 3.13-.008 5.939-1.155 8.798-2.327 1.122-2.78 4.942-2.906 6.214-5.445.702-.915 1.282-1.735 1.703-2.76-.748-2.83-2.623-4.379-5.516-4.135-3.729.48-3.687 4.196-5.767 6.197z" fill="#e9d2af" fill-rule="evenodd" stroke="#3f2d10"/><path d="M79.934 60.55c1.392 2.13 3.118 3.819 5.027 5.458 1.801 1.768 3.22 3.815 4.506 5.967 3.406-2.505 6.403-6.299 9.363-9.558-1.424-1.566-2.94-3.034-4.34-4.631-1.96-2.033-4.656-2.315-6.897-3.753-2.317-1.04-4.543-.87-6.35 1.045" fill="#1a1a1a" fill-rule="evenodd" stroke="#000"/><path d="M69.993 7.636C59.543 7.576 55.41 14.47 55.27 23.44c0 1.876.867 5.569 1.332 7.428-.216 3.662-1.123 6.429-.043 10.003 1.257 5.057 4.654 7.749 9.546 8.84 4.343-.086 10.18-1.561 13.435-4.597 4.66-3.814 6.064-10.268 7.779-15.91.609-5.389-2.006-10.53-3.536-15.556-2.131-5.5-8.577-6.78-13.789-6.01z" fill="#e9d2af" fill-rule="evenodd" stroke="#3f2d10"/><path d="M56.558 14.707c-.644-9.862 26.255-13.119 27.66-5.32 7.556.58 7.594 19.937 5.717 26.598-7.796-.08-3.742-9.111-8.274-11.378-1.931-.483-2.577.997-4.243 1.414-3.53-2.268.04-9.248-5.657-11.667-2.782 1.124-6.307 2.859-9.192 0-2.466 0-3.91 1.193-6.01.353z" fill="#28170b" fill-rule="evenodd" stroke="#120a04"/><path d="M88.812 34.586c-1.58 0 1.14 5.624 1.414 6.718.424 1.695 3.492 4.184 4.596 5.657.938 1.25 4.97.062 6.01-.354 1.752-.7 3.791.255 4.597 1.06 2.514 2.515 1.01-1.16.353-2.474-.516-1.032-2.874-2.421-3.889-3.182-1.725-1.294-2.076-2.783-3.535-4.243-1.393-1.393-3.063-1.414-4.95-1.414-1.18 0-3.155-1.48-4.596-1.768z" fill="#28170b" fill-rule="evenodd" stroke="#120a04"/><path d="M67.235 52.989c1.739 4.584 10.352 3.073 13.406-1.29-1.218-2.477-2.081-5.452-4.75-6.75-2.267-.258-4.467.372-6.625 1-1.739 1.356-2.42 5.299-2.03 7.04z" fill="#e9d2af" fill-rule="evenodd" stroke="#3f2d10"/><path d="M55.378 47.222c.656 1.312 1.989 2.125 3.657 2.125 2.626.757 5.167 1.936 7.78 2.844 3.433.882 5.933-.87 8.47-2.844 4.273-2.21 8.702-5.971 9.593-10.906.25-2.068-.564-2.063-1.75-1.688-1.97 2.01-4.438 4.135-7.125 5.188-3.404.967-6.1 1.415-7.062-2.5-1.13-3.243-4.775-4.174-7.781-4.938-6.39-.276-7.785 8.06-5.782 12.719zm5.72-8.781c3.083-1.303 9.509 6.629 3.937 6.312-2.341-.78-2.828-2.295-4.22-.344-4.96 1.504-3.004-4.722.282-5.968z" fill="#28170b" fill-rule="evenodd" stroke="#120a04"/><path d="M64.44 23.94c-1.365 3-.308 4.757 2.617 4.324.899.395 2.77-1.796 2.341-3.25.322-3.904-3.063-3.989-4.957-1.073zM58.44 21.94c-2.353.53-3.457 2.327-3 5 2.718 5.019 7.886-2.201 3-5z" fill="#fff" fill-rule="evenodd" stroke="#333"/><path d="M61.94 25.69c-.415 2.411-2.748 3.533-4 4.75-.638 2.675-.254 4.594 2.75 4 2.1-.975 2.944-2.593 3.25-4.75M79.44 26.19c5.864-2.329 4.831 6.355.5 5.5M80.566 27.566c.85-1.493 3.092 1.18 0 2.625" fill="#e9d2af" fill-rule="evenodd" stroke="#3f2d10"/><path d="M59.44 41.69c.966.41 3.7.192 5.376 0" fill="none" stroke="#3f2d10"/><path d="M65.703 24.307c.387-.357-1.877-1.022-1.75 1 .099 1.567 1.993 1.94 2.625 1.5 1.27-.885-.262-2.813-.875-2.5zM57.057 24.276c.457-.948-2.177-.187-1.5 2 .467 1.51 2.125.581 2.25.5 1.68-1.085.321-3.852-.75-2.5z" fill-rule="evenodd" stroke="#000"/><path d="M71.29 65.221c-1.166.458-1.356 2.881-1.374 4.125.438 1.191.958 3.356.375 4.875" fill="none" stroke="#006ca9"/><path d="M67.165 117.503c3.128.67 6.523 1.018 8.949.058 2.915-.386 5.516-.99 8.198-3.859" fill="none" stroke="#333"/><path style="-inkscape-font-specification:Rufscript" d="M63.26 67.107c-.137-.026-.338.019-.222-.18-.005-1.057-.253-2.154-.264-3.214-.014-.521-.032-1.046.009-1.553.15-.246.517-.193.799-.193.587.045 1.187.146 1.78.3.292.23.487.571.675.884.248.434.138.911-.158 1.157-.34.36-.884.428-1.261.735-.282.166-.161.605.141.821.381.33.843.57 1.14 1 .165.242.343.53.327.799-.262.108-.74-.046-.928-.392-.24-.265-.446-.593-.706-.823-.276-.15-.464-.812-.782-.489-.17.235-.122.597-.149.902.035.168-.176.137-.271.2l-.13.046zm.4-2.416c.597-.196 1.232-.377 1.669-.818.206-.177.183-.564-.09-.788-.417-.4-.964-.441-1.446-.533-.446-.164-.24.448-.234.712.07.48.065.952.1 1.427zm4.83 3.455c-.001-.73.047-1.46-.12-2.217-.09-.528-.179-1.056-.266-1.584-.229-.281-.614-.318-.916-.438-.369-.106-.872-.297-.98-.746-.037-.336.525-.026.743-.054 1.18.23 2.367.417 3.544.829.269.089.775.314.618.654-.208.204-.585.075-.88.02-.348-.077-.695-.168-1.042-.23-.259.296-.07.799-.006 1.206.126.855.147 1.703.08 2.52.018.334-.201.595-.558.326-.109-.054-.223-.161-.216-.286zm3.781-.863c-.216.18.034.64.088.936.096.34.273.746.11 1.03-.24.208-.789-.065-.788-.458-.16-1.126-.193-2.236-.254-3.348 0-.353-.055-.73.025-1.057.361-.26.896-.177 1.365-.138.455.072.936.103 1.373.368.167.233.557.62.449.857-.702-.22-1.426-.53-2.123-.521-.37.012-.27.522-.278.81-.038.35.14.838.564.914.477.145.964-.055 1.428.265.398.338.017.695-.33.62-.533-.006-1.086-.136-1.629-.278zm6.86 4.614c-.131-.445-.098-.884-.124-1.32-.04-1.412.043-2.796-.023-4.213-.07-.083-.262.268-.379.344-.309.317-.706.559-1.091.761.181.214.657.524.547.764-.244.295-.66.062-.846-.304-.516-.642-1.026-1.29-1.559-1.92.075 1.252.162 2.508.173 3.748.012.342-.496.425-.714.12-.175-.339-.105-.69-.142-1.03a72.306 72.306 0 01-.021-3.387c0-.35.396-.361.677-.23.35.194.662.525.8.904.148.235.309.79.601.696.396-.31.804-.604 1.192-.922.189-.216.504-.341.533-.68.164-.199.747-.114.756.272.08.74.073 1.467.144 2.206.059 1.13.03 2.246.148 3.386.076.312.15.694-.168.806-.125.073-.362.22-.504-.001z" font-size="12" font-weight="400" fill="#fff" font-family="Rufscript"/><path d="M71.049 60.833c8.291 1.904 19.814 3.829 26.808-2.092 11.637 23.399 5.863 34.588-9.833 46.428C69.85 93.956 65.15 83.603 71.05 60.833zM35.399 72.95c-2.751-.603-4.681.395-5.48 3.181 1.048 2.967 4.776 2.707 7.248 1.414 1.274-2.387.718-3.64-1.768-4.596z" fill="#999" fill-rule="evenodd" stroke="#4d4d4d"/><path d="M25.856 16.67l5.477 39.132" fill="none" stroke="#4d4d4d"/><path d="M27 66.25c.151.888.25 1.681 1.457 1.58-.953-.02-1.817 2.136-.494 2.045-1.584 1.746 1.7 2.426 2.912 2.5.701 0 1.495-1.477 1.625-1.625.153-1.251-.844-.78-2.037-.735-.619 0 1.579-.472 1.287-1.515-.122-.435-.4-.729-1.052-.552 1.712-1.01 1.683-1.242.677-2.073-1.437-.694-3.041-.352-4.375.375z" fill="#e9d2af" fill-rule="evenodd" stroke="#3f2d10"/><path d="M54.351 16.734c2.572 2.368 7.916 2.43 11.314 2.475 8.637 1.112 17.132-.767 25.632-1.944.545-1.56-.33-3.054-1.59-3.89-6.525 1.273-13.122 2.559-19.8 1.768C70.988 9.16 67.22 6.32 63.911 1.747c-3.045 2.951-6.276 5.715-6.201 11.805-.245.49-2.417-.5-2.475-.53-.683 1.015-.777 2.457-.884 3.712z" fill="#999" fill-rule="evenodd" stroke="#4d4d4d"/><path d="M63.375 6.625c-2.832.399-2.42 3.978-1.875 6.125 1.412.718 2.337.553 2.875-.875.223-2.025 1.229-4.476-1-5.25z" fill="none" stroke="#4d4d4d"/><path d="M7.98 8.849c-2.685 1.704 2.331 3.725 3.062 5.594 1.553 1.178 3.28 4.068 5 3.843 2.062-1.79-1.745-2.672-2.563-4.218-1.8-1.45-3.564-4.883-5.5-5.219zM4.958 25.595c-1.225 2.38 2.65 1.831 4.218 2.12 1.92-.433 6.273 1.26 5.876-1.526-1.35-1.153-4.677-.057-6.844-.5-1.012.203-2.845-1.042-3.25-.094zM16.864 35.021c-3.084 1.343-6.108 3.301-9.562 3.656-.894 3.242 2.616 1.556 4.28 1 2.286-.896 4.404-2.015 6.595-3.125-.448-.315-.537-2.31-1.313-1.53zM18.386 45.273c-2.133 1.471-4.274 3.005-6.72 3.812.174 3.207 3.218.727 4.782-.125 1.5-1.078 5.37-2.803 1.938-3.687zM42.159 8.471c-2.912 1.284-4.64 4.223-7.125 5.938.892 2.764 2.515.607 3.7-.6 1.49-1.4 2.734-2.95 4.644-3.682-.442-.231-.383-2.494-1.22-1.656zM46.054 19.378c-2.41 2.097-5.588 3.012-8.718 3.313-.508 2.545 1.545 1.971 3.218 1.531 2.609-.643 5.254-1.788 7.22-3.687-.522-.292-1.164-1.943-1.72-1.157zM37.796 31.894c-1.63 2.053 1.725 2.05 3.03 2.5 1.935.37 3.928.354 5.876.093.509-3.09-2.717-1.34-4.594-1.937-1.225.28-3.78-1.616-4.312-.656zM37.586 46.33c-1.92 1.921 2.105 2.88 3.524 3.785 1.665.57 4.605 2.46 4.32-.691a20.15 20.15 0 01-7.563-3.5l-.281.406zM22.586 2.203c-2.386 1.024.642 5.068 1.12 7.53.265 3.351 3.767 2.417 2.12-.253-1.09-2.402-1.748-5.123-2.772-7.572l-.44.277-.028.018z" fill="#ff0" fill-rule="evenodd" stroke="#ff8f00"/><path style="-inkscape-font-specification:Rufscript" d="M82.815 67.85c-3.419.18-7.011 1.77-5.592 3.924 2.04 1.772-2.1 6.284 1.045 5.16 3.787-.727 3.125-2.69 6.423-1.03 5.642-.405.874-3.197-.863-3.294 2.215-.825 4.106-3.961 5.798-1.908.79 1.438-.496 6.198 4.259 3.82 1.102-1.74.48-3.544 0-5.134 2.56.385 6.846-2.076 3.415-2.655-4.335-.331-9.529 1.988-13.134.917l-1.2.177-.151.023zm-.826 2.336c3.245-.718-1.756 2.317-.6.08l.6-.08zm13.36 9.32c-2.343.728-3.583 4.22-5.742 2.437-2.006-.542-3.84.231-5.817-.219-3.902.133-8.476 1.935-6.618 4.43-.407 1.543.045 6.127 4.442 3.764 1.327-1.29-1.7-2.614 2.139-2.662 3.032-1.375-.17 3.608 4.128 2.189 3.965-1.538-.857-5.59 4.24-3.441 2.096-.508 2.649-1.203 2.14.855-1.099 1.757 1.171 4.304 3.94 1.95.405-3.004.245-6.457-.864-9.258-.502-.251-1.292-.202-1.989-.044zm-12.91 4.755c2.771-.643 3.511.642.6.686-1.904 1.078-2.626-.697-.6-.686zm11.821-.22c-.706.001.481-.609 0 0z" font-size="15.73" font-weight="400" fill="none" stroke="#5e5e5e" font-family="Rufscript"/></svg>