<svg xmlns="http://www.w3.org/2000/svg" width="128" height="128" version="1.0"><defs><filter id="a" x="-.125" width="1.25" y="-.327" height="1.653"><feGaussianBlur stdDeviation="1.963"/></filter></defs><metadata/><path d="M81.835 155.983c-1.872.606-6.114-.639-8.895-1.334-2.357-.59-4.728 1.17-5.782 2.224-1.414 1.413-1.726 4.217-1.335 5.782.832 3.327 5.383 3.104 7.561 2.668 2.008-.401 4.245 1.284 6.227 1.78 2.276.568 4.263.889 7.116.889 2.9 0 4.684 1.438 7.56 0 2.232-1.116 4.291-.772 6.227-2.224 1.513-1.134 2.227-3.124 2.669-4.892.784-3.136-1.877-3.607-3.558-4.448-2.161-1.08-5.907-.414-7.561 0-1.773.443-3.316-2.224-5.782-2.224-2 0-1.06 1.78-4.447 1.78z" fill-opacity=".728" fill-rule="evenodd" filter="url(#a)" transform="translate(-30.5 -45.211)"/><path d="M50.102 108.88c-3.175.624-5.789 1.22-8.485 3.182-.6.719-.573 1.413-.53 2.298.237.764.51 1.512.707 2.298 2.752.257 5.792 1.906 8.666.98 3.019.039 6.07-1.018 8.57-2.836.577-1.71-.043-4.028-.177-5.922-2.784.875-5.949.733-8.75 0z" fill="#e6e6e6" fill-rule="evenodd" stroke="#333"/><path d="M41.794 115.155c3.251-.556 6.501 1.578 9.887 1.124 3.143-.104 4.775-2.388 7.083-2.538" fill="none" stroke="#333"/><path d="M61.328 109.41c-2.53 1.352-6.34 2.044-8.84 4.154-.426.9-.409 1.939-.53 2.917.145 1.294.906 2.112 1.857 2.917 2.566.993 5.428.218 8.043-.265 2.295-.08 5-.607 6.599-2.356 2.47-2.31 2.055-4.503 1.798-7.72-2.976.225-5.944.353-8.927.353z" fill="#e6e6e6" fill-rule="evenodd" stroke="#333"/><path d="M43.041 70.51c-.761 1.187-.82 2.396-.75 3.75-.292 2.79 1.115 5.428.25 8.125-.777 1.642-1.244 2.713-2.625 3.875-1.515.067-2.618.834-3 2.125.886.894 2.153.588 3.375.5.364 1.36-1.621 3.134-1.75 4.75 1.777 2.124 3.265-1.392 3.375-3 .212 1.547-.652 4.063-.5 5.125 2.037.4 2.741-3.014 2.75-4.75-.04 1.903-.989 3.81 1.25 3.75 1.537-1.132 1.17-3.24 1.375-5 .604-2.774 1.727-5.402 2-8.25-.302-4.181 1.704-9.374-.125-13.25-2.69-1.35-3.627 1.152-5.625 2.25z" fill="#e9d2af" fill-rule="evenodd" stroke="#3f2d10"/><path d="M49.721 54.455c-2.699 2.796-4.496 5.973-5.657 9.624-1.449 2.576-2.934 4.87-3.255 7.865 3.967.749 7.983-.037 11.917.503 1.8-4.78 1.493-10.026 1.591-15.063" fill="#1a1a1a" fill-rule="evenodd" stroke="#000"/><path d="M61.166 87.26c-.145.779-.89 2.802-.625 4.125.204 1.016.508 2.031.75 3 .519 2.545-.445 4.982-.625 7.5.515 2.209-.136 5.698 1.375 7.25 2.63 1.988 6.665 1.895 8.125-.625-.25-1.001-.06-1.598-.5-2.625-1.286-2.74-.677-5.864-.25-8.75.058-3.791.768-7.456.625-11.25-2.167-.801-7.507-.221-8.875 1.375zM50.041 87.135c-.145.779-.89 2.802-.625 4.125.944 2.795 1.074 5.406.375 8.25.016 2.79-.872 7.45 1.125 9.5 2.846 1.127 5.707 1.845 8.125-.625-1.245-3.852-1.343-7.364-.75-11.375.03-3.8.769-7.43.625-11.25-2.167-.801-7.507-.221-8.875 1.375z" fill="#00325c" fill-rule="evenodd" stroke="#00192e"/><path d="M74.95 90.411c-2.804-3.46-.872-8.645-.514-12.609-1.228-4.957 1.962-10.247.909-15.203-.466-3.105-1.497-5.902-3.057-8.61-1.784-2.413-4.167-3.786-7.196-3.94-3.886.568-7.809.044-11.668.883-2.847 1.24-4.81 3.291-5.126 6.364-.138 2.774.049 5.274-1.237 7.778-.388 4.452-1.864 8.971-1.238 13.435.895 5.194-1.334 7.325-.759 12.505 4.482-2.566 10.29 1.302 15.38.732 4.268-1.526 11.859 1.902 14.507-1.335z" fill="#1a1a1a" fill-rule="evenodd" stroke="#000"/><path d="M73.791 79.26c.553 3.261.496 7.033-1 10-1.097 1.13-2.686-.507-3.5 1.125.325 1.412 1.69 1.773 3 2.125-.939 1.856-2.741 3.42-.875 5.5 1.21-.621 2.045-2.018 2.375-3.25.137 1.436-1.075 4.29 1.625 3.125 1.312-.983.673-2.42.75-3.875 1.049 1.62 1.365 4.056 2.75 1.25.14-1.258-.467-2.133-1.125-3.125-.17-1.268.284-2.598.5-3.875 1.594-2.694 2.045-5.694 2.5-8.75-1.814-2.386.032-5.733-1.5-8.125-.427-1.071-.835-1.99-1.5-2.875-2.814-.805-5.104.014-6.375 2.625-1.494 3.45 1.72 5.314 2.375 8.125z" fill="#e9d2af" fill-rule="evenodd" stroke="#3f2d10"/><path d="M65.626 59.49c.128 2.541.768 4.871 1.59 7.249.665 2.434.858 4.917.885 7.424 4.204-.446 8.704-2.213 12.904-3.535-.44-2.07-1.01-4.103-1.414-6.188-.668-2.744-2.855-4.346-4.066-6.717-1.477-2.066-3.485-3.042-6.01-2.298" fill="#1a1a1a" fill-rule="evenodd" stroke="#000"/><path d="M55.494 7.675c-10.45-.061-14.585 6.834-14.724 15.803 0 1.876.867 5.568 1.332 7.428-.217 3.662-1.124 6.429-.043 10.003 1.257 5.057 4.653 7.749 9.546 8.84 4.343-.086 10.18-1.561 13.435-4.597 4.66-3.814 6.064-10.268 7.778-15.91.61-5.389-2.005-10.53-3.535-15.556-2.132-5.5-8.578-6.78-13.789-6.01z" fill="#e9d2af" fill-rule="evenodd" stroke="#3f2d10"/><path d="M42.059 14.746c-.645-9.862 26.255-13.119 27.66-5.32 7.556.58 7.594 19.937 5.717 26.598-7.796-.08-3.742-9.111-8.275-11.378-1.93-.483-2.576.997-4.242 1.414-3.53-2.269.04-9.248-5.657-11.667-2.782 1.124-6.308 2.859-9.193 0-2.465 0-3.91 1.193-6.01.353z" fill="#28170b" fill-rule="evenodd" stroke="#120a04"/><path d="M74.312 34.625c-1.58 0 1.141 5.624 1.415 6.718.423 1.695 3.491 4.184 4.596 5.657.938 1.25 4.97.062 6.01-.354 1.751-.7 3.79.255 4.596 1.06 2.514 2.515 1.011-1.16.354-2.474-.516-1.033-2.875-2.421-3.89-3.182-1.724-1.294-2.075-2.783-3.535-4.243-1.393-1.393-3.062-1.414-4.95-1.414-1.178 0-3.154-1.48-4.596-1.768z" fill="#28170b" fill-rule="evenodd" stroke="#120a04"/><path d="M52.736 53.028c1.739 4.584 10.352 3.073 13.405-1.29-1.218-2.477-2.08-5.452-4.75-6.75-2.267-.258-4.467.372-6.625 1-1.738 1.356-2.419 5.298-2.03 7.04z" fill="#e9d2af" fill-rule="evenodd" stroke="#3f2d10"/><path d="M40.879 47.26c.656 1.313 1.989 2.126 3.656 2.126 2.627.757 5.168 1.936 7.781 2.844 3.432.881 5.933-.87 8.47-2.844 4.273-2.21 8.701-5.971 9.593-10.906.25-2.068-.564-2.063-1.75-1.688-1.97 2.01-4.438 4.135-7.125 5.188-3.404.967-6.101 1.415-7.063-2.5-1.129-3.243-4.774-4.174-7.78-4.938-6.391-.276-7.786 8.06-5.782 12.719zm5.719-8.78c3.083-1.303 9.51 6.628 3.937 6.312-2.34-.78-2.828-2.295-4.219-.344-4.96 1.504-3.004-4.722.282-5.968z" fill="#28170b" fill-rule="evenodd" stroke="#120a04"/><path d="M49.941 23.98c-1.365 2.998-.309 4.756 2.617 4.323.898.395 2.77-1.797 2.34-3.25.322-3.904-3.062-3.99-4.957-1.073zM43.941 21.98c-2.353.528-3.458 2.326-3 5 2.718 5.017 7.886-2.202 3-5z" fill="#fff" fill-rule="evenodd" stroke="#333"/><path d="M47.441 25.73c-.415 2.41-2.749 3.532-4 4.75-.639 2.674-.255 4.593 2.75 4 2.1-.976 2.943-2.595 3.25-4.75M64.941 26.23c5.864-2.33 4.83 6.354.5 5.5M66.066 27.605c.852-1.493 3.093 1.18 0 2.625" fill="#e9d2af" fill-rule="evenodd" stroke="#3f2d10"/><path d="M44.941 41.73c.965.409 3.7.19 5.375 0" fill="none" stroke="#3f2d10"/><path d="M51.204 24.346c.387-.357-1.877-1.023-1.75 1 .098 1.567 1.993 1.94 2.625 1.5 1.27-.885-.263-2.813-.875-2.5zM42.558 24.315c.457-.948-2.178-.187-1.5 2 .467 1.51 2.124.581 2.25.5 1.68-1.085.321-3.852-.75-2.5z" fill-rule="evenodd" stroke="#000"/><path d="M52.666 117.542c3.128.67 6.523 1.018 8.948.058 2.916-.386 5.516-.99 8.199-3.859" fill="none" stroke="#333"/><path style="-inkscape-font-specification:Rufscript" d="M48.904 69.493c-.338.096-.112-.484-.19-.776-.058-1.187-.21-2.388-.2-3.565-.008-.476-.011-.953.014-1.42.156-.343.495-.266.76-.28.421.02.847.092 1.272.216.263.303.449.742.593 1.173.139.54-.037 1.052-.292 1.333-.298.373-.73.49-.98.95-.132.385.144.794.379.996.331.321.68.673.866 1.22.13.278.195.764-.116.64-.354-.007-.55-.55-.772-.917-.222-.365-.466-.691-.69-1.045-.331-.082-.313.594-.32.95.054.416-.144.391-.324.525zm.315-2.86c.503-.3 1.063-.564 1.388-1.227.13-.357-.088-.807-.338-.975-.339-.268-.705-.257-1.054-.336-.244.189-.041.77-.054 1.135.033.47.034.935.058 1.403zm3.808 3.694c.006-.93.028-1.868-.122-2.82-.062-.535-.123-1.07-.183-1.606-.236-.366-.577-.348-.864-.499-.252-.098-.562-.32-.63-.748.062-.427.496-.027.716-.093.947.187 1.905.315 2.846.776.305.06.47.747.118.772-.4.04-.818-.164-1.226-.228-.23-.063-.214.438-.197.695.096.683.161 1.368.175 2.046.013.63.012 1.265-.046 1.871-.054.423-.49.266-.584-.113l-.003-.053zm2.98-1.29c-.18.358.071.888.117 1.317.123.413.183 1.21-.24 1.057-.37-.101-.357-.71-.389-1.115a82.447 82.447 0 01-.167-4.138c-.066-.46.181-.658.436-.695.44-.072.901-.018 1.357.095.256.048.484.266.625.624.163.231.22.745-.08.48-.502-.2-1.024-.455-1.516-.36-.284.215-.143.858-.16 1.283.029.487.365.777.648.741.314.02.674-.135.965.236.26.502-.198.783-.47.686-.372 0-.75-.1-1.126-.211zm5.408 4.901c-.123-.672-.077-1.336-.104-2-.014-1.493.035-2.97-.012-4.471-.181.109-.27.474-.442.644a4.74 4.74 0 01-.717.76c.16.249.623.664.354.962-.323.288-.582-.385-.78-.738-.342-.604-.683-1.21-1.038-1.8.057 1.486.134 2.977.134 4.451-.05.48-.623.39-.632-.172-.055-.678-.041-1.348-.057-2.02-.01-.977-.019-1.954.003-2.922.068-.457.507-.362.73-.067.346.334.444.938.654 1.418.227.462.43-.12.605-.262.322-.396.652-.783.928-1.251.013-.459.446-.666.651-.205.101.911.07 1.814.137 2.724.05 1.343.013 2.674.127 4.026.105.43.02.876-.257.988-.08.068-.215.106-.284-.065z" font-size="12" font-weight="400" fill="#fff" font-family="Rufscript"/></svg>