<?xml version="1.0" encoding="UTF-8"?>
<svg width="128" height="128" version="1.0" xmlns="http://www.w3.org/2000/svg" xmlns:xlink="http://www.w3.org/1999/xlink">
 <path d="M84 13.656L18.344 41.531l-.032 7.657.875.968-.03 4.407-.876.468v3.782l1.625 2.5-.093 34.25-1.344 1.406-1.813 9.906 19.375 15.531 23.157-9.531-2.75-8.344-.344-31c1.44-8.922 8.368-12.902 15.312-16.656 2.69-1.036 5.461-1.744 8.188-1.938l.344 29-.907 4.813 15.127 8.524 15.436-6.18-1.406-9.125-1.688-2.5.125-38.344 1.563-3.188-.344-3.937-.688-.094-.094-4.75.844-1 .313-7.906L84 13.656zm-.156.594l23.906 6.406-70.156 30.157-18.719-8.938L83.844 14.25zm.375 1.344L21.5 42.125l16.281 7.188L104.031 21 84.22 15.594zm-.125.281l18.75 5.219-64.969 27.625-15.5-6.5 61.719-26.344zm23.375 5.25l-.094 6.906L75.437 41.72c-.674-.855-1.63-1.344-2.718-1.344-2.172 0-4.3 2.019-5.188 4.781L37.812 57.75l-.093-6.344 69.75-30.281zm-.906 7.75l.093 5.313-30.344 13.187c.06-.253.12-.489.157-.75.238-1.678-.025-3.196-.656-4.313l30.75-13.437zm.687 5.75l.406 3.25-1.5 3.125-.031 38.5 1.781 2.875-.094 2.781L96 90.187l-.594-31.374c-5.097-7.234-12.104-6.204-20.125-5.688-9.566 1.723-18.754 7.727-21.437 21.063l-.438 31.374-16.343 6.126.218-3.282-.062-2.906.187-34.906.094-2.844.406-3.25 30.25-13.125c.685.948 1.634 1.531 2.781 1.531 2.191 0 4.381-2.1 5.25-4.906l31.063-13.375zm-34.438 6.344c.246 0 .491.06.72.125l-.97 2.937c-.18-.105-.359-.178-.53-.156l.03-2.781c.257-.073.504-.125.75-.125zm-1.156.25l-.187 2.937a8.46 8.46 0 00-.719.532l-1.313-1.75c.664-.774 1.441-1.393 2.22-1.72zm2.406.062c.68.368 1.226 1.054 1.594 1.875l-2.406 1.5c-.13-.156-.23-.301-.344-.406l1.156-2.969zm-54.937 1.407l17.938 8.5-.032 6.406L19 49.062l.125-6.374zm50 .624l1.313 1.72a5.06 5.06 0 00-.407.75L68.125 45a8.148 8.148 0 011-1.688zm6.719.313c.222.662.319 1.39.281 2.156h-2.5a13.345 13.345 0 00-.156-.875l2.375-1.281zm-4.125.813c.4-.047.742.254 1.281.562.409 1.226-.014 2.248-.563 3.344-.782.744-1.013.338-1.812-.25-.53-1.151-.191-2.046.25-3.125.341-.346.603-.503.844-.532zm-3.688.906l1.844.906c-.064.321-.044.644.031 1l-2.281.781a5.788 5.788 0 01.031-1.406c.062-.433.215-.854.375-1.281zm-.656.437c-.067.276-.147.557-.188.844-.234 1.65.044 3.132.657 4.25L37.875 63.719l-.063-5.188 29.563-12.75zm8.719.375c-.007.063.009.125 0 .188-.113.798-.415 1.623-.813 2.406l-1.75-1.375c.129-.371.176-.737.156-1.125l2.407-.094zM69.938 47.5c.062.245.152.497.25.813.089.123.17.21.25.312l-2.157 1.531a5.928 5.928 0 01-.594-1.718l2.25-.938zm3.437.281l1.656 1.344.063-.031c-.368.654-.795 1.275-1.281 1.781l-1.094-2.156c.069-.06.112-.09.187-.157.197-.29.352-.54.469-.78zm-2.656 1.188c.154.17.304.298.437.375l-.469 2.937c-.913-.168-1.717-.882-2.28-1.843l2.312-1.47zm1.687 0l1.188 2.125c-.682.65-1.43 1.086-2.156 1.187l.093-2.843c.242-.013.538-.198.875-.47zm28.813.718c-2.304.536-4.02 3.249-4 5.97l.187 22.906c.02 2.72 1.759 4.63 4.063 4.093 2.304-.536 4.083-3.248 4.062-5.969l-.187-22.906c-.04-2.883-1.66-3.927-4.125-4.093zm-81.688.157l17.5 8.312L37 63.625l-17.406-8.563-.063-5.218zm82 .156c2.089-.02 3.85 1.947 3.5 4.188l.125 22.656c.018 2.279-2.034 5.272-3.687 5.656-1.653.384-3.577-1.627-3.594-3.906L97.5 55.813c-.017-2.28 1.972-5.397 3.625-5.782.142-.02.267-.03.406-.031zM80.75 53.063c5.588-.128 11.675.973 14.281 6.03l.688 31.22-1.219.5-.656-30.907c-6.53-7.308-13.554-6.114-22.219-3.812-8.106 3.556-15.657 10.42-16.156 17.375l.343 31.187-2.156.813.125-.156.344-31.188C56.727 61.192 66.204 55.169 75.469 53.5a48.534 48.534 0 015.281-.438zm21.344.406c-1.66 0-2.512 1.192-3.063 3.281-.55 2.089.153 3.031 1.813 3.031s2.543-.942 3.094-3.031c.55-2.089-.184-3.281-1.844-3.281zm-.5.218c.157.001.302.025.469.094 1.568 0 2.24 1.434 1.75 3.063-.486 1.61-1.913 2.887-3.157 2.812-1.167-.07-1.566-1.39-1.281-2.906.284-1.515 1.121-3.07 2.219-3.063zm-20.156 1.188c.221 10.233.299 19.796.5 30.031l-1.657-.812-.219-29.188c.459-.022.921-.04 1.376-.031zm.28 0c3.588.118 7.014 1.275 9.938 3.844.118 10.375.283 20.75.375 31.125l-9.812-4.781c-.192-10.178-.28-20.012-.5-30.188zm-62.812.688L37 64.343l-.031 3.22.156 3.03-.188 35-.218 2.907-.157 2.844L18.97 99.375l-.282-2.281 1.532-1.469-.032-34.5-1.343-2.375.062-3.188zm73 3.374c.405.371.804.76 1.188 1.188l.594 30.531-1.282-.625c-.036-10.328.51-20.81-.5-31.094zm-70.344 3.25c-1.122 3.02-.913 7.168.47 10.157.078.12.167.227.25.344.086.213.215.39.374.53 1.547 1.984 3.596 3.523 5.688 4.907 1.945 1.257 4.532 2.29 6.843 2.156.031-.08.065-.167.094-.25a.453.453 0 00.094-.312c.927-2.973.614-6.837-.719-9.656-1.587-2.421-3.924-4.177-6.312-5.75-1.948-1.264-4.462-2.26-6.782-2.126zm80.75.032a3.414 3.414 0 00-.687.062c-1.094.188-1.375.527-1.375 1.625l.031 5.938c0 1.098.406 1.375 1.5 1.187 1.094-.188 1.125-.62 1.125-1.719l.125-5.968c0-.824-.167-1.103-.719-1.125zm-.374.093c.63-.063 1.126.47.968 1.094l-.187 5.969c.163.807-.308 1.096-1 1.5-.646.377-1.289-.259-1.25-1.063l-.094-5.968c-.22-.572.231-1.447 1.281-1.469.095-.034.191-.053.281-.063zm-79.47.126l5.782 7.843 5.188-1.125c.445.495.84.998 1.187 1.469.045.108.082.232.125.344l-5.844 1.125 6.125 7.281a4.432 4.432 0 01-.312.563c-.41.037-.85.007-1.282-.063l-6.468-7.469-4.063.688a13.957 13.957 0 01-.625-.781c-.102-.237-.216-.486-.312-.75a.434.434 0 01.062-.188l3.719-.781-4.188-7.156c.127-.331.257-.668.438-.97.155-.015.312-.025.469-.03zm.188 0c.042 0 .083-.004.125 0 1.863.136 3.863 1.322 5.375 2.218 1.692 1.045 3.66 2.758 5.188 4.438l-5.063 1.031-5.625-7.688zm-1.187 1.187l4.093 6.938-3.687.687c-.76-2.233-1.237-5.232-.406-7.625zm64.969.719a6.508 6.508 0 00-1.438.125c-2.224 3.216.405 6.085 3.75 5.562 1.482-2.84.717-5.583-2.313-5.687zm.437.156c2.134.092 3.391 3.289 1.594 5.031-2.533 1.662-5.855-2.961-3.188-4.531.56-.365 1.102-.521 1.594-.5zm-1.125 1.344c-.853 1.77.222 3.35 2.063 3.062.922-1.775-.238-2.934-2.063-3.062zm.156.281c1.43.097 2.522 1.14 1.75 2.5-1.84.246-2.24-1.12-1.75-2.5zM47.97 69.094c-.662 0-1.398.12-2.157.406-3.034 1.143-5.583 4.296-5.624 7.125l-.344 22.844c-.042 2.829 2.465 4.08 5.5 2.937 3.034-1.142 5.614-4.296 5.656-7.125l.313-22.844c.03-2.121-1.358-3.344-3.344-3.343zm-.657.562c1.998-.02 3.62 1.466 3.594 3.219l-.437 22.781c-.032 2.157-2.522 5.364-5.125 6.344-2.604.98-5.094-.28-5.063-2.438l.344-23.03c.032-2.158 2.646-5.614 5.25-6.594a4.225 4.225 0 011.438-.282zm-12.5 1.5c.905 2.496 1.232 5.814.313 8l-5.813-6.937 5.5-1.063zm-8 1.344l6.282 7.313c-1.652-.356-3.352-1.32-4.657-2.094-1.875-1.163-3.902-2.733-5.406-4.469l3.782-.75zm20.125.281c-1.66 0-3.45 1.693-4 3.781-.55 2.09.34 3.813 2 3.813s3.481-1.724 4.032-3.813c.55-2.088-.372-3.78-2.032-3.78zm55.157.25c-1.66 0-2.7.85-3.25 2.938-.55 2.088.309 3 1.969 3 1.66 0 2.45-.88 3-2.969.55-2.089-.06-2.969-1.72-2.969zm-55.344.063c1.697-.151 2.254 1.777 2 3.469-.24 1.601-2.46 3.716-3.688 3.687-1.659-.04-2.403-1.974-1.968-3.438.434-1.46 2.07-3.76 3.656-3.718zm54.813.156c.168-.007.323.024.5.063 1.849-.085 1.556 1.028 1.437 2.656-.128 1.749-1.3 2.367-2.844 2.687-1.344.279-1.536-1.11-1.375-2.687.16-1.551 1.1-2.673 2.281-2.719zm-15.126 2.688a6.508 6.508 0 00-1.437.124c-2.224 3.217.405 6.086 3.75 5.563 1.482-2.84.717-5.583-2.313-5.688zm.438.156c2.134.092 3.391 3.289 1.594 5.031-2.533 1.662-5.855-2.962-3.188-4.531.56-.366 1.102-.521 1.594-.5zm-1.125 1.344c-.853 1.77.222 3.35 2.063 3.062.922-1.775-.238-2.934-2.063-3.063zm.156.28c1.43.098 2.522 1.142 1.75 2.5-1.84.246-2.24-1.12-1.75-2.5zm-59.375 1.72c-.775-.02-1.156.539-1.156 1.75 0 1.937.717 3.496 2.688 4.562 1.97 1.066 3.25.562 3.25-1.375s-.999-3.246-2.97-4.313c-.738-.4-1.347-.613-1.812-.624zm.25.562c.414-.046.927.082 1.469.375 1.445.782 2.594 2.526 2.594 3.906 0 1.38-1.15 1.876-2.594 1.094-1.445-.782-2.594-2.526-2.594-3.906 0-.863.436-1.393 1.125-1.469zm19.438 1.375c-1.094.188-2 1.214-2 2.313v5.968c0 1.098.906 1.813 2 1.625-1.197.165-1.937-1.037-1.782-1.594V83.72c-.17-.676.698-2.349 1.782-2.031 1.201-.487 2.05.715 1.75 1.437l.125 5.969c.149.534-1.208 2.096-1.875 2.187 1.094-.188 2-1.214 2-2.312V83c0-1.098-.906-1.813-2-1.625zm-18.938.188c-.852 1.77.222 3.35 2.063 3.062.922-1.775-.238-2.934-2.063-3.063zm.157.28c1.43.098 2.52 1.142 1.75 2.5-1.84.246-2.24-1.12-1.75-2.5zm52.843 2.72l13.406 7.03.126 4.907-14.407-8.031.875-3.75v-.156zM23 84.906c-.767-.008-1.439.286-1.844 1.094.003.052-.002.104 0 .156l-.031.031.031.063c.134 3.006-.622 6.104.688 8.875.07.107.145.208.218.313.105.278.245.528.47.687h.03c1.541 1.924 3.578 3.426 5.625 4.781 1.944 1.27 4.378 2.353 6.688 2.25l.031-.562c.05-.131.035-.283 0-.469l.282-7.344c-.788-3.469-4.193-5.83-7-7.687-1.274-.714-3.5-2.17-5.188-2.188zm.156.688c1.678.014 3.76 1.242 5.032 2 1.79.963 3.485 2.6 4.875 4.312l-4.97 1.031-5.343-7.312c.134-.015.266-.032.406-.031zm84.75.031l1.063 5.125-14.344 5.375-.094-4.594 13.375-5.906zm-85.344.031l5.407 7.531 5.312-1.03c.434.549.83 1.118 1.188 1.656L28.906 95l5.625 6.813c-.056.353-.1.7-.187 1a3.961 3.961 0 01-.719 0l-6.938-7.594-3.937.687c-.11-.123-.209-.25-.313-.375l-.656-1.312 3.875-.719-4.031-6.813c.014-.217.023-.438.031-.656.27-.206.576-.314.907-.375zm-.968 1.313l3.781 6.406-3.688.688c-.644-2.367-.261-4.727-.093-7.094zm25.281 5c-1.66 0-3.45 1.692-4 3.781-.55 2.089.34 3.813 2 3.813s3.45-1.724 4-3.813c.55-2.089-.34-3.781-2-3.781zm-.594.25a.892.892 0 01.469.031c1.726 0 2.547 2.068 2 3.656-.5 1.454-2.37 3.654-3.906 3.594-1.382-.054-2.318-2.06-1.688-3.688.518-1.339 1.982-3.4 3.125-3.593zm-11.718 1.75c.069.106.153.208.218.312-.054 2.066.087 5.065-.218 7.281l-5.438-6.53 5.438-1.063zm-7.938 1.344L33 102.719c-1.64-.349-3.269-1.478-4.625-2.281-1.84-1.137-3.952-2.683-5.5-4.376l3.75-.75zm-7.719 4.312L36.5 112.031l-.531 9.375-18.563-14.875 1.5-6.906zm39.719 12.719l-22.281 9.25.656-9.219.063.031 18.75-7.25 2.812 7.188z" fill="#5c2700" fill-rule="evenodd"/>
</svg>
