<?xml version="1.0" encoding="UTF-8"?>
<svg width="128" height="128" version="1.0" xmlns="http://www.w3.org/2000/svg" xmlns:xlink="http://www.w3.org/1999/xlink">
 <path d="M35.188 31.656l-17.72.469-3.218 2.531 3.531.157A29.217 29.217 0 009.375 40l-2.906.594-3.25 1.781.031.938 7.531 10.406 4.031 2.75c6.023-4.58 12.723-4.074 18.407.843 3.499 3.388 7.925 9.012 7.437 15.376l4.75 3.374c8.46-7.325 17.495-4.67 24.969 2.344 8.988 8.997 11.65 19.366 14.656 29.656l14.094 4.344 3.5-3.344-2.031-2.562c6.007-5.485 11.309-6.85 18.812-19.219l3.313 3.031 4.094-2.687-19.282-24.344-.875-.468-71.469-31.157zm.124.5l-.812 1.75-19.25.438 2.313-1.719 17.75-.469zm.157.25l71.156 31.313-1.656 1.625-70.125-31.469.625-1.469zm-1.25 1.969L104.5 65.75l15.656 20.313L103.97 67.25 34.188 34.937l-13.344-.062 13.375-.5zm-16.313.563l15.782 2.218 67.624 32.125L119.22 87c-3.1 6.584-11.607 13.95-18.906 19.281l-20.75-35.375L18.5 38.781l-8.719 1.25c1.872-1.857 4.416-3.594 8.125-5.093zm4.25.218l11.907.219 69.593 32L117.97 84.5l-16.375-15.688-.063-.03-.062-.032-67.594-32.031-11.719-1.563zm-3.343.157l-1.75 1.374-1.657-.25-.187.188 1.562.25-2.125 1.656.5.282 2.188-1.844 4.093.687-.906.875.594.094.938-.875 1.187.188.281-.313-1.156-.156 1-.969-.438-.313-1.218 1.188-4.125-.625 1.343-1.125-.125-.313zm-.375 4.406l-1.032 1.062L4.125 42.25 6.719 41l11.718-1.281zm13.468.156l-.093.344c.04.019.737.37.812.406l-1.969 2.063-1.718-1-.188.124 1.656 1.126-.812.874.406.282.813-.875 2.093 1.437v-.687l-1.812-1.032 2-2.093c.698.34 3.946 1.97 6.093 3.031l-2.28 2.406.28.25 2.407-2.468c4.544 2.245 6.661 3.293 12.5 6.187l-.563.75.375.344.657-.875c5.409 2.681 10.634 5.274 11.718 5.812l-2 2.157c-2.55-.826-5.039-1.523-7.031-2.438l1.313-1.531-.188-.094-1.5 1.469c-3.318-1.62-5.875-3.202-6.188-3.375l-.343.5c.482.268 2.793 1.407 6.125 3.031.046.023.109.04.156.063l-.563.562.563.063.375-.438c1.859.847 4.352 1.698 6.906 2.625l-.875.938.188.343 1.093-1.125c1.987.726 3.975 1.483 5.688 2.313.524.254 1.023.495 1.531.75l-1.344 1.093.376.188 1.374-1.063a141.323 141.323 0 016.188 3.344L74.5 67.031l.406.375 1.719-1.5c1.97 1.133 3.44 2.045 4.563 2.75l-.47.375-.124.531.906-.687c.954.602 1.594 1 1.594 1l.437-.906s-.506-.267-1.25-.688l3.438-2.656c1.486.983 3.05 1.956 4.625 2.938L85.03 73.03l.406.375c1.64-1.749 3.197-3.394 5.126-4.687.997.622 2.016 1.254 2.937 1.844l.344-.22a206.648 206.648 0 00-2.938-1.843 15.123 15.123 0 011.781-.969l-.312-.687-1.75 1.469c-1.595-.983-3.172-1.926-4.656-2.876l1.031-.78-.625-.22-.875.688c-.32-.207-.674-.428-.969-.625l.188.469c.18.123.377.251.562.375l-3.375 2.719c-1.1-.62-2.784-1.565-4.75-2.626l1.375-1.218-.344-.313-1.5 1.282a266.158 266.158 0 00-6.25-3.25L75.564 58l-.407-.375-5.125 4.094c-.894-.449-1.798-.898-2.719-1.344-1.493-.724-3.044-1.27-4.593-1.781l2-2.094 1.312.656.25-.406c.007-.027-.513-.313-1.156-.656l1.625-1.688-.469-.281-1.594 1.719c-2.231-1.171-6.859-3.492-11.718-5.907L54.03 48.5l-.437-.219L52.5 49.72c-4.38-2.175-8.594-4.275-12.438-6.125l1.532-1.563-.344-.343-1.625 1.718c-2.557-1.229-4.838-2.306-6.188-2.906l.344-.375-.468-.25-.376.406c-.497-.214-.891-.376-1.03-.406zm-13.156.094l60.188 31.5-1.094 1.062-59.938-31.625.844-.937zM17 41.5l60.344 31.656 16.25 29.969-17.313-29.25-59.437-31.25-13 .125L17 41.5zm-.344 1.469l59.438 31.093 21.437 36.844-10.562-4.5c-1.125-7.89-5.29-18.015-12.469-26.844-3.629-4.463-7.942-8.093-12.938-9.593-4.905-1.473-10.25-.178-16.218 3.719l-3.125-1.938c.217-5.686-2.741-11.57-6.438-15.563-6.252-6.154-13.473-6.645-20.843-2.437l-3.97-.125-7.593-10.344 13.281-.312zm-5.375 2.156l-.656 1.25a19.777 19.777 0 00-1.031-.75l-.125.219.937.906-.656 1.219.281.093c.218-.356.441-.706.656-1.062l1.813 1.75.188-.188c-.456-.779-1.07-1.414-1.75-1.968.285-.486.53-.97.718-1.407l-.375-.062zm4.5.344l-.562 1.781c-.33-.24-.673-.475-1-.719l-.063.282.906.812-.812 2.531.188-.062c.296-.766.683-1.424 1.03-2.125l2.438 2.187-.281.563.281.125.282-.438.656.594.281-.281c-.209-.261-.43-.512-.656-.75l.875-1.344-.625-.125-.563 1.156c-.78-.771-1.625-1.448-2.5-2.093a6.22 6.22 0 00.531-2.094h-.406zm8.406 5.843c3.962-.005 7.866 1.603 11.47 5.094 6.026 6.278 6.913 15.322 6.28 15.344l3.313 2.188c5.067-3.568 10.248-4.948 16.219-3.72 4.737 1.423 9.412 5.252 12.968 9.626 4.73 6.743 10.388 13.94 12.282 26.875l10.781 4.469-11.656-3.876c-2.16-10.317-7.546-22.138-14.781-29.562-7.627-8.076-16.827-9.073-25.782-2.719l-3.718-2.812c-.039-4.653-3.101-11.034-7.876-15.375-5.833-5.42-12.395-5.218-18.874-1.313l-3.344-1.656 3.469.25c3.063-1.828 6.169-2.809 9.25-2.813zM44.72 58.47l-.969 2.062c-.219-.124-.435-.253-.656-.375l.187.625c.088.061.163.127.25.188l-.562 1.218.343.22a9.57 9.57 0 00.626-1.188c1.265.87 2.516 1.695 3.75 2.468a41.257 41.257 0 00-.47 2.188l-1.312-.969-.093.25 1.343 1.031c-.166.891-.307 1.78-.406 2.688l.25-.063c.293-.702.522-1.437.719-2.187l2.593 1.969.282-.219-2.813-2.063c.183-.744.35-1.504.469-2.28.774.477 1.55.96 2.313 1.406l.03-.282a42.23 42.23 0 00-2.25-1.719c.1-.726.177-1.448.25-2.187l-.25.125c-.174.57-.346 1.143-.5 1.719a51.845 51.845 0 00-3.718-2.344c.297-.759.525-1.522.844-2.281h-.25zm62.125 5.468l18.594 23.47-2.47 1.624-17.593-23.75 1.469-1.344zM79.125 71.97L101.344 109l-2.375 2.156-20.875-38.531 1.031-.656zm20.719 3.437l-5.156 4.313A35.74 35.74 0 0193 77.563l-.406.124c.547.798 1.122 1.581 1.719 2.344l-1.063.906.188.282 1.093-.938c1.184 1.498 2.424 2.95 3.656 4.406L93.22 89.25l.406.438 4.906-4.594.156.187A196.32 196.32 0 00102.781 90l-.531.438.719.374.312-.28c.457.503 1.094 1.218 1.094 1.218l.281-.281s-.6-.715-1.031-1.25l5.969-5.313c.938.918 1.978 1.726 2.937 2.656.186.18.33.353.5.532a84.821 84.821 0 01-12.625 12.375l.156.344c4.89-3.393 9.287-7.433 12.907-12.25a20.231 20.231 0 011.937 2.53l.594-.562s-.905-1.109-2.188-2.437c.326-.444.657-.887.97-1.344l-.438-.281c-.32.403-.647.795-.969 1.187-.188-.19-.363-.37-.563-.562-.9-.845-1.911-1.668-2.843-2.531l1.687-1.5-.156-.25-1.813 1.5a13.72 13.72 0 01-1.093-1.157l-.25.344c.29.4.6.776.937 1.125l-6.094 5.031a329.292 329.292 0 00-3.906-4.75c-.08-.094-.17-.187-.25-.281l.594-.531-.219-.5-.719.656c-1.235-1.424-2.54-2.832-3.78-4.281l5.25-4.406-.313-.157zm-10.281 23.25l-.376.094c-.767 1.618-.879 3.499-1 5.375-.35-.139-.674-.258-.937-.406l-.219.25c.24.135.683.356 1.125.594-.035.518-.065 1.022-.125 1.53l.406-.25.157-1.03c.577.331 1.227.738 1.969 1.312.347.269.707.499 1.03.719L91.376 108l.469-.469.094-.437c1 .65 1.75 1.031 1.75 1.031l.28-.125-1.937-1.5.438-2.156-.406-.094-.376 2c-.372-.289-.363-.302-.78-.625a9.418 9.418 0 00-2.22-1.281l.876-5.688z" fill="#5c2700" fill-rule="evenodd"/>
</svg>
