<?xml version="1.0" encoding="UTF-8"?>
<svg width="128" height="128" version="1.0" xmlns="http://www.w3.org/2000/svg" xmlns:xlink="http://www.w3.org/1999/xlink">
 <path d="M47.344 26.563c-.805.048-1.642.477-2.594.843l.188 7.563-5 2.343c-.447.377-.384-.06-.438-.312l.344-3.281-1.563.937c-1.84-1.62-2.178-.894-3.875.032l-.031-.282-4.625 2.438.438-2.594-3.625 2-.157-1.188L22.5 36.25l.094-2.969c-1.013-.484-1.528-.692-2.657.438l-.093 2.187c-.35 0-.74-.062-.563.782.177.163.336.263.5.374l-.031.5c-3.846 2.164-7.48 4.652-11.094 7.188l.031-.938c-1.012-.484-2.028-.91-3.156.22l-.125 2.124c-.632.027-.385.438-.375.75.07.081.146.145.219.219-.843.595-1.683 1.197-2.531 1.781l-1.094 5 5.625-2.593-.219 2.5 5.782-2.907.218.032-1.406 3.656 6.25-3.125-1.313 2.75 4.875-1.532.438 3.5 3.156-2.03-1.156 1.937c1.753-.672 3.452-1.025 5.313-2.344l-1.97 3.625 6.688-.75-1.5 3 1.844-.125.281 8.656c1.742 2.166 2.793 1.061 3.625.688V62.75l4.563-1.25-1.282 2.719 5.907-.375-1.25 3.187 5.937-.344-1.468 4.157 6.5.312-3.157 3.813 8.219-1.375-2.625 4.281 8.156-.938-2.469 3.626 8.313.406.063 1.031.03.781v.063l-.406 1.875.438-.063.438 14.313c2.031 1.447 2.733 1.3 4.718.344V89.75c1.515.099 3.018.206 4.531.313L80 95.03l5 1.625-2.188 2.813 7.344.375-2.031 4.719 6-.72-2.906 7.876H99c10.39-7.56 20.11-15.892 28.969-25.219v-6.031h-2.219l.094-3.75a6.162 6.162 0 00-.25-.25l.469-1.438-2.157.406a3.39 3.39 0 00-1.437-.124v-3.907l-4.906.438 1.593-5.156-6.969 1.5L114 61.406l-6.781 1.5.875-6.343-7.906 2.53 2.374-5.468-8.062 2.219c-.092-.125-.19-.251-.281-.375l-.281-14.938c-3.39-1.501-2.877-.512-5.157.282l.188 7.562-5.75 2.344.875-4.344-9.5 2.406 1.031-5.406-6.5 2.813 2.031-4.282-5.406 1.938.656-3.75-5.656 2.062 1.188-3.437L55.28 40.5l.688-3.688-5.532 1.407-1.75.625L48.782 27a2.096 2.096 0 00-1.437-.438zm.187.375c.35.001.705.099 1.094.343l-.281 12.688c-1.025.539-1.95.259-2.782-.657l-.25-11.656c1.019-.43 1.635-.721 2.22-.718zm.563.718c-1.262.942-1.276.965-2.532.219l.126.125c.695.796.75.832 2.468-.219l-.062-.125zM21.375 33.22c.228.028.48.208.813.562l-.063 2.594c-.724.078-1.177.398-2-.313l.094-2.03c.48-.513.776-.86 1.156-.813zm.594.781c-.482.722-.904.206-1.5.125l.093.313c.545.213.8.585 1.344-.094L21.97 34zm14.281.125c.48-.061.938.252 1.594 1.094v11.343c-.813.2-1.604.751-3.094-.656l-.125-10.593c.656-.683 1.146-1.127 1.625-1.188zm3.313.094c-.025.122-.374 2.699-.376 2.812l-.218.75-.657.532v-3.25c.315-.026.907-.588 1.25-.844zm-5.438.718c-.101.832.272 1.186-.313 2.5-1.387.503-2.871 1.349-4.218 1.688a21.726 21.726 0 01-1.094-.25l-.313-.656c1.958-1.137 3.872-2.363 5.938-3.282zm-4.313.032l-.562 2.218-3.219.876c-.324-.123-.649-.239-.968-.376 1.636-1.541 3.474-2.237 4.75-2.718zm15.125.218L45 37.626l-.938.625c-1.254.039-2.843.891-3.874.344l-.407-.438c-.204-.263-.019-.332.094-.437l5.063-2.532zm-7.593.157c-1.262.278-1.523.486-2.469.093l.125.126c.651 1.016 1.741.343 2.531 0l-.187-.22zm-11 .031l-.719 1.406c-.274.24-.456.588-.781.813a25.79 25.79 0 01-2.063-1l3.563-1.219zm29.406 1.813c-.498 1.255-.363 2.598-1.594 3.75-1.06 1.034-2.267.581-3.468.28a53.694 53.694 0 01-1.126-.75l-.812-1.312 1.688-.75c1.683-.522 3.614-.751 5.312-1.218zm-35.656.093c.604.303 1.215.292 2 .094l-.032.875c-.996.242-1.474.145-2-.438l.032-.53zm2.375.25c.256.168.52.32.781.469l-.813.25.032-.719zm5.781.282c-.37.203-.732.432-1.094.656-.167-.054-.334-.1-.5-.157l1.594-.5zm11.125.25l.938 1.03 2.28-.25c-.163.14-.568.527-.843.782-1.14-.033-2.292-.166-3.438-.219v-.593l1.063-.75zm-19.656.093v.032c.86.732 1.675.734 2.718.624v-.25l.625-.28.094.124c-4.228 2.997-8.68 5.777-12.375 9.094a37.277 37.277 0 01-2.187-.313l.062-1.937c3.406-2.477 6.916-5.05 11.063-7.094zm14.5.032l.031.75c-.254-.059-.457-.183-.031-.75zM45 38.312l.031 1.063c-.304-.084-.517-.29-.562-.781.173-.103.353-.189.531-.282zm-12.625.032l-1.219 1.031c-.2-.024-.395-.064-.593-.094.608-.314 1.175-.652 1.812-.937zm-8.094.187c.009.004.023-.004.032 0l-.063.032c.01-.012.021-.02.031-.032zm9.219.188c.066.289.125.565.25.781-.503.004-1.002-.03-1.5-.063.408-.248.817-.488 1.25-.718zm-8.5.125c.331.136.663.26 1 .375-3.54 2.426-6.74 5.642-9.813 8.531-1.585.023-3.186-.014-4.843-.188 3.337-3.283 8.206-5.753 12.312-8.28L25 38.843zM44.125 39l.438.469c-.461.069-.938.106-1.407.125.353-.242.7-.456.969-.594zm17.406.094c-.689 1.257-.407 2.19-2.093 3.781-1.504.742-2.997.25-4.5.375l-.188-1.563c1.61-1.728 4.516-1.739 6.781-2.593zm-34.656.406c.01.003.022-.003.031 0 .354.1.704.201 1.063.281l.062.25c.278-.013.537-.047.782-.093.466.085.933.157 1.406.218l-8.563 7.25a56.566 56.566 0 01-4.843.344c3.023-2.98 6.037-6.445 10.062-8.25zm21.813.188l.156.28c-.05-.034-.107-.058-.157-.093v-.188zm42.718.406c.565-.08 1.143.175 2.313 1l.062 14.218c-1.4-.133-2.574 1.197-4.312-1.187l-.25-13c1.095-.523 1.622-.951 2.187-1.031zm-47.812.125c.459.002.919.044 1.375.062l.093.75-6.624 5.563c-.033-.03-.061-.064-.094-.094h-.032v-3.094c.93-.718 2.55-2.086 3.97-3.156.44-.009.874-.033 1.312-.031zm-12.625.062c1.088.115 2.204.176 3.312.219l.032.906-5.532 4.938c-1.845.304-3.698.625-5.562.875 2.453-2.401 4.805-4.894 7.75-6.938zm10.062 0c-1 .94-2.073 1.965-2.718 2.532v-2.407c.91-.04 1.816-.093 2.718-.125zm4.563.125c.892.693 1.698.683 2.75.469l-.063 2.5c-1.628 1.184-1.347 1.014-2.625.031l-.062-3zm20.593.125l-1.53 3.688-1.313.906c-1.005.354-2.526.52-3.063-.063l-.406-1.25.938-1.156 5.374-2.125zm-17.5.438c1.022.72 2.05 1.397 3.094 2.031-2.63 2.698-5.93 4.947-9.312 7.125a153.951 153.951 0 01-3.594-3.156c1.808-1.466 4.512-3.8 6.219-5l.031 1.687c1.884 2.146 1.89.959 3.531.157l.032-2.844zm40.813.593l.125.126c1.358 1.68 2.032 1.269 3.75.218l-.188-.25c-1.26.942-2.432.652-3.687-.093zm-55.188.063l.094 3.938c-.022-.025-.04-.038-.062-.063-1.584.21-3.153.462-4.719.719 1.536-1.544 3.072-3.119 4.688-4.594zm17.344.219c.36.083.733.148 1.094.125-.102.117-.208.228-.313.343-.26-.154-.522-.308-.78-.468zm2.313.437l.75 1.219 3.562.219-1.375.968c-1.234-.593-2.452-1.187-3.656-1.874l.719-.532zm16.625.094c-.938 1.418-1.083 3.171-2.813 4.25-.857.566-1.909.4-3 .031-.35-.355-.907-.643-.594-1.218l1.47-1.282 4.937-1.781zm-18.125 1.031c1.171.69 2.366 1.31 3.562 1.907L45.72 52.75c-.945-.742-1.885-1.475-2.813-2.25l9.563-7.094zM7 43.656c.41-.025.838.184 1.281.657l-.094 2.874c-1.01.07-1.69-.095-2.437-.968l.063-1.875c.384-.41.777-.663 1.187-.688zM75.25 44c-.63 1.458-.091 4.332-1.719 5.125l-3.906-.094-1.281-1.531c1.586-2.116 4.811-2.4 6.906-3.5zm-16.219.406l1.407 1.219 1.374-.063-1.062.844a66.744 66.744 0 01-3.063-1.343c.44-.232.887-.44 1.344-.657zm-51.156.063c-.481.722-1.185.143-1.781.062l.093.282c.545.213 1.081.678 1.625 0l.063-.344zm48.813 1.156c1.047.507 2.092.992 3.156 1.438l-10.688 8.28a98.84 98.84 0 01-2.875-2.124c3.26-2.683 6.507-5.391 10.407-7.594zm6.374.219l1.376 1.062 2.593.594-1.031.813a81.762 81.762 0 01-4.313-1.563c.448-.293.878-.585 1.344-.875l.032-.031zm-28.812.687c.057.065.1.129.156.188l.063 2.156-2.844 2.094c-.273-.683-.656-1.108-1.281-.969 1.372-1.107 2.64-2.293 3.906-3.469zm-.906.157c-1.401 1.19-2.764 2.354-3.938 3.437l-3.5-.344a62.207 62.207 0 002.407-2.25c1.683-.269 3.355-.566 5.03-.843zm50.312 0l-1.562 4.437-2.281.781c-1.497-.33-2.979-.674-4.47-1.031-.247-.37-.384-.795-.28-1.219 1.471-1.782 5.726-1.984 8.593-2.968zm-48.906.343c.907.766 1.895.896 3.094.563v2.75c-1.154.605-1.865.831-3.063-.094l-.031-3.219zm25.906.375a77.709 77.709 0 004.438 1.625l-11.531 9.25c-1.234-.77-2.487-1.562-3.688-2.406 3.415-2.847 6.753-5.734 10.781-8.469zm-54.968.125c.705.55 1.528.827 2.468.75l-.031.5c-.997.242-1.943-.074-2.469-.656l.032-.594zm-.344.094l-.032.875c1 .88 2.105.89 3.22.844l.03-1.125c.404.068.816.133 1.22.187a31.88 31.88 0 00-1.438 1.469l-.469.063c-1.471-.39-2.287-1.52-4.594-.97.688-.431 1.384-.88 2.063-1.343zm21.968.063l-3.03 2.718c-1.008-.589-2.042-1.146-3.626-.812.46-.402.903-.805 1.344-1.219a115.38 115.38 0 005.313-.688zm11 .062c1.095.985 2.2 1.96 3.313 2.906-1.687 1.081-3.377 2.156-5 3.282l-.563-.126-.843-1.75-2.532-.624c.612-.474 1.21-.96 1.813-1.438v.469c1.334 1.033 2.346.543 3.813.406V47.75zm29.813.156l1.063 1.375c-.768-.22-1.52-.448-2.282-.687.4-.238.798-.456 1.219-.688zm-57.656.594c1.559.182 3.098.24 4.656.25-.419.383-.835.763-1.25 1.125-.938-.474-1.875-.348-2.813-.25l-1.78.406c.355-.529.753-1.04 1.187-1.531zm9.875.031l-1.407 1.188c-1.257-.16-1.798-1.21-3.53-.625.122-.112.252-.23.374-.344a58.408 58.408 0 004.563-.219zm68.625.032L89 49.687c-.814 1.143-1.826 2.459-3.188 3.532-1.8-.389-3.603-.793-5.406-1.188 2.708-1.205 6.413-2.555 8.563-3.468zm-84.563.687c1.341.09 2.646 1.036 3.407 1.281-1.908 1.44-3.812 1.89-5.72 2.844.368-1.308.065-2.73 1.095-3.906.216-.092.436-.158.656-.188.192-.026.37-.044.562-.031zm61.407.031c1.945.634 3.901 1.2 5.874 1.719A637.31 637.31 0 0058.5 61.094a66.352 66.352 0 01-4.219-2.344c3.565-3.224 6.87-6.518 11.532-9.469zm-50.063.125c.85-.042 1.903.19 3.094.688-1.619 1.576-4.464 2.76-6.719 4.125l1.75-3.813c.367-.62 1.026-.957 1.875-1zm54.219.094l3.687.031c-.311.23-.624.487-.937.719-.919-.236-1.838-.494-2.75-.75zm-57.813.313c.733-.048 1.212.085 1.125.624L7.25 53.282c.086-.337.546-2.147.875-2.562.912-.217 2.81-.827 4.031-.907zm8.969.187c.902-.079 1.693.315 2.656.906-2 1.423-4.384 1.944-6.593 2.844.7-1.015.984-2.787 2.125-3.031.688-.45 1.27-.672 1.812-.719zm67.906.219l.031 2.281-2.5.813 2.47-3.094zm-62.562.062c.278.014.573.1.906.25l.5.188c.01.814-.795.857-1.313 1.25-.883 2.076-3.06 2.375-4.5 3.562-.024-.985-.363-2.123.375-2.781.566-.752 1.113-1.557 1.907-1.625.657-.4 1.29-.886 2.125-.844zm47.812 0c.113.167.25.3.375.438-.26-.064-.52-.123-.781-.188l.406-.25zm-43.844.125c.4-.108.636.087.375 1.188l-.937.875c-1.04 1.405-3.185 2.196-5.25 3.031 1.302-1.631 2.085-3.625 4.469-4.5.38-.074.944-.486 1.343-.594zm11.688.657c.918.773 1.817 1.54 2.75 2.28l-4.438 3.188-.937-1.468-1.563-.876 4.188-3.124zm30.594.218c.966.247 1.936.459 2.906.688-.6.172-1.175.543-2.219.906l.094 3.844c-3.046 2.323-6.011 4.693-8.844 7.125a56.046 56.046 0 01-5.562-2.407c4.323-3.59 8.823-7.084 13.625-10.156zm-40.75.532c.866-.123 1.727.865 2.593 1.124.42.476 1.385.528.844 1.75l-.875.782c-1.952 1.67-4.537 1.086-6.812 1.625 1.025-1.414 1.175-3.268 3.062-4.25.394-.68.794-.976 1.188-1.032zm44.406.53c.428-.031.891.01 1.406.157.172.05.347.115.531.188l.063 14.874c-1.404-.257-2.893.684-4.25-.843l-.25-9.344-.031-.906-.094-3.282c.9-.34 1.674-.772 2.625-.843zm12.719.376l.031 1.218c-.631-.14-1.273-.268-1.906-.406a12.673 12.673 0 011.875-.812zm-10.031.062c1.79.397 3.584.773 5.374 1.157-1.222.326-3.778.72-5.374-1.157zM78.75 53c1.71 1.531 4.024 1.628 6 1.625-.956.739-4.904 3.414-6.031 4.281L78.75 53zm-4.313.563l-.062.124c1.358 1.503 1.72 1.395 3.438.344l-.188-.25c-1.261.942-1.932.527-3.188-.218zm-28.906.28c.933.73 1.862 1.435 2.813 2.126l-3.907 3-1.124-1.657-1.72-.374a109.885 109.885 0 003.938-3.094zm56.688.188c-1.072 1.74-.876 3.595-3.219 5.219h-.063c-.357.237-1.055.225-1.812.125-.822-1.093-1.64-2.17-2.438-3.25 2.037-.681 5.882-1.382 7.532-2.094zm-16.094.282c.967.208 1.942.409 2.906.624.032.049.062.08.094.126l.031 1.124c-.65-.08-1.691.385-2.25.344-.483-.538-1.389-.847-1.125-1.812a2.31 2.31 0 01.344-.407zm-48.719.656c.532-.032 1.063-.012 1.594.468.72.65.531 1.148.594 1.688l-1.063 1.531c-1.614.435-2.697.463-3.781.5l-.5.032c-.407.016-.827.042-1.281.093.753-1.025.625-2.659 2.25-3.062L36.875 55c.177-.008.354-.02.531-.031zm47.563.218l1.687 1.688 2.531-.313.032 2.188c-2.651 1.711-7.992 5.472-10.5 7.375v-6.25c1.378-.947 5.012-3.849 6.25-4.688zm4.531.344c1.092 1.11 2.49.95 4.031.657.084.112.166.23.25.343l.031 5c-1.719.429-1.725 1.225-4.187.032L89.5 55.53zm-40.406.969c1.193.85 2.43 1.66 3.656 2.438l-3.438 2.75-1.718-2.5-2.094.218c1.232-.963 2.42-1.932 3.594-2.906zm58.625.531a16.828 16.828 0 01-1.531 5.907c-1.118 1.033-2.227.211-3.344.312l-3.25-2.906c2.342-1.485 5.32-2.709 8.125-3.313zm-13.5.094c.5.67 1.019 1.321 1.531 2-.613-.127-1.179-.249-1.5-.281l-.031-1.719zm-52.75.219c.56.004 1.126.258 1.687.25.277.653 1.276 1.241.5 2l-.406.718c-1.39 1.47-4.055 1.68-6.094 2.5.829-1.498 1.111-3.225 2.5-4.5l.813-.593c.336-.281.663-.378 1-.375zm32.062.281l.125 5.25c-1.12.891-2.215 1.812-3.312 2.719a49.482 49.482 0 01-4.969-1.5c2.516-2.376 5.295-4.465 8.156-6.469zm20.719 1.438l1.656.312c.497.657 1.02 1.308 1.531 1.969-4.82 4.503-10.368 8.949-15.906 13.156a70.92 70.92 0 01-2.812-6.75v-.844c2.512-1.936 7.883-5.685 10.531-7.281l.063 2.281c2.162 1.216 2.23.859 5 .094l-.063-2.938zm-56.031.156l-1.594 3.937 1.094-.312.25 5.625c-1.209.85-1.73 1.301-3.188-.5l-.031-8.5 3.469-.25zm15.281.218a66.953 66.953 0 004.125 2.344 629.66 629.66 0 00-3.531 2.813l-1-2.438-2.407-.312c.99-.79 1.902-1.597 2.813-2.407zm-6.938.188c.254-.01.514 0 .75.063 1.376.666.804 1.915 1.126 2.687l-.657.531c-1.911 1.476-3.838.69-5.75 1.032.745-1.145.587-2.556 2.25-3.438.711-.515 1.52-.845 2.282-.875zm50.75 0l1.626.313c-.262.253-.546.496-.813.75-.27-.355-.545-.708-.813-1.063zm2.032 1.125l3.187 2.844 2.594.281a49.63 49.63 0 01-2.5 2.438 145.106 145.106 0 01-3.969-4.938c.23-.207.46-.418.688-.625zm14.344.969c-.864 2.234-.868 4.771-2.594 6.718h-.031c-1.411.34-2.842-.05-4.282-.343.116-1.373-.686-2.866.344-4.125 2.022-1.57 4.376-1.505 6.563-2.25zM97.938 62a139.311 139.311 0 004 4.938c-5.26 4.656-11.649 8.695-17.563 13a85.27 85.27 0 01-2.438-4.626c5.533-4.3 10.881-8.73 16-13.312zm-39.657.125a56.982 56.982 0 005.5 2.438 121.265 121.265 0 00-3.687 3.374l-.313.032-.625-2.531-4.093-.626c1.055-.905 2.144-1.787 3.218-2.687zm-7.156.219c.6-.025 1.203.006 1.813.031.274.968.81 1.986.312 2.844-.384 2.105-4.399.962-6.594 1.437.61-1.017.04-2.452 2.063-3.469l.656-.468c.553-.258 1.15-.35 1.75-.375zm22.531 1l.063 2.937a46.706 46.706 0 01-2.906-.594 67.585 67.585 0 012.843-2.343zm32.469 1v3.937l3.781.906c-.884.76-1.79 1.5-2.687 2.25A90.344 90.344 0 01103 66.781c1.039-.818 2.085-1.63 3.125-2.437zm-41.531.5a50.617 50.617 0 004.812 1.5 187.382 187.382 0 00-5.062 4.375l-.781-2.313-1.626-.656a37 37 0 012.657-2.906zm-10.188.437c1.555-.081 2.826.246 4.157.5.655 1.108.525 2.102.374 3.094l-1.093 1.344c-2.042 1.177-4.544.311-6.813.469.691-1.372.502-3.174 2.094-4.094l1.281-1.313zm15.532 1.188c1.16.281 2.332.552 3.53.75.095.191.207.346.313.5l.063 3.031c-1.257 1.072-2.485 2.17-3.719 3.25l-1.156-3-3.469.094c1.353-1.649 2.85-3.18 4.438-4.625zm48.874.625c-.754 1.607-.924 3.416-2.312 4.812l-2.594.938c-.934-.596-2.46-.577-2.656-1.594-.683-.474-.31-1.484-.469-2.063 2.412-1.31 5.293-1.544 8.031-2.093zm-16.5.25a93.97 93.97 0 004.25 4.625A334.618 334.618 0 0188.22 86.156a106.34 106.34 0 01-3.469-5.562c5.905-3.998 11.725-8.647 17.563-13.25zm-28.156.844c1.043.998 2.511.8 4.094.53l.125.344.031 4.907c-1.72.429-1.632.943-4.094-.25l-.156-5.531zm-12.531.25c.383-.035.773.024 1.156.218 1.21.812.622 1.803.782 2.719l-.063.031-.688 1.031c-2.456 1.666-5.435 1.476-8.156 2.22 1.69-1.713 2.323-4.146 5.063-5.438.638-.405 1.268-.723 1.906-.781zm17.094 1.53A71.86 71.86 0 0080.875 75c-1.482 1.122-2.981 2.227-4.438 3.313l-.656-3-4.625-.844c.894-.875 1.8-1.74 2.719-2.594l.063 2.094c2.162 1.215 2.01 1.17 4.78.406v-4.406zm31.594.126l.093 1.5 2.469 1.062c-.73.706-1.478 1.405-2.219 2.094a67.036 67.036 0 01-2.781-2.656c.811-.668 1.635-1.327 2.438-2zm-41.47 1.281c.205 1.11.966 2.381.438 3.281l-.875 1.188c-2.775 1.425-5.537 1.122-8.312 1.687 1.368-1.795 1.9-4.051 4.093-5.375l.032-.031c.726-.976 2.936-.63 4.625-.75zm53.188.469c-.153 1.219.327 2.438-.312 3.656a5.536 5.536 0 00-1.25.594l-2.313.469c-1.157-.332-2.847.678-3.656-.813-.723-.719-.952-1.672-.156-2.625 2.566-.769 5.12-.852 7.687-1.281zm-14.812.781a73.23 73.23 0 002.875 2.688c-6.003 5.529-12.346 10.475-18.844 15.156a138.996 138.996 0 01-2.5-3.531c6.327-4.667 12.504-9.43 18.469-14.313zm6.156.938l.438 2.874 3.437.532.031.125c-.543.528-1.101 1.04-1.656 1.562a53.752 53.752 0 01-4.313-3.344c.685-.585 1.38-1.158 2.063-1.75zm-42.406 1.312c1.198-.096 3.128.675 4.469.75.602 1.383.399 2.55-.25 3.719-.257.2-.467.434-.657.687-2.732.844-5.934.25-8.906.375 1.482-1.698 2.45-4.153 4.438-5.094.193-.278.506-.405.906-.437zm54.937.5c-.163.308-.351.605-.531.906a4.69 4.69 0 00-.938-.625c.487-.08.985-.157 1.47-.281zm-44.656.438a80.95 80.95 0 002.469 4.624c-.65.48-1.303.95-1.938 1.438-1.415-2.191-2.835-2.125-4.25-3.188 1.254-.945 2.481-1.917 3.719-2.874zm29.438.03A62.966 62.966 0 00115 79.25c-6.08 5.65-12.853 10.965-20.125 16.094a193.214 193.214 0 01-3.125-4.156c6.383-4.944 12.701-10.033 18.938-15.344zm12.124.126c.737.017 1.51.338 2.47.75l-.126 7.031c-1.597.98-3.824.09-4.469-2h-.03c-.009-.004-.024.004-.032 0l-.094-4.688c.844-.824 1.545-1.11 2.281-1.093zm-2.78.687l.062 3.5-1.406-.594-.5-2.062c.61-.38 1.23-.631 1.843-.844zm4.906.281c-1.312.227-2.625.5-3.844.344l-.344.094c.807.777 1.689.939 2.438.75.748-.189 1.368-.627 1.937-.938l-.188-.25zm-7.313 1.157l.594 1.75 1.875.781v.813a45.75 45.75 0 01-3.719-2.282c.413-.355.842-.707 1.25-1.062zM77.5 79.219c.874.02 1.652.665 2.438 1.219.46.371.99.675 1 1.5l-1.594 1.218c-1.873.955-3.752.86-5.625 1.281-.077-2.228.78-4.063 2.875-5 .318-.156.615-.225.906-.218zm38.188.531A56.23 56.23 0 00120 82.5c-4.75 4.603-9.92 8.867-15.219 12.938l.031-.626c-3.681-2.092-4.492-.922-6.687.188v4.438c-.904-1.126-1.816-2.25-2.719-3.407 7.045-5.421 13.942-10.86 20.281-16.281zm12.156 1c-.294 1.705.23 3.884-.875 5.125a2.6 2.6 0 01-1.375.063l.031-1.407c.721-.368.727-.694.031-.969l.063-2.718c.71-.01 1.413-.014 2.125-.094zm-43.781.281a99.519 99.519 0 003.5 5.594c-.389.279-.767.566-1.157.844-.604-2.398-2.178-3.71-3.969-5.344.543-.349 1.085-.733 1.626-1.094zm-2.438 1.688c2.048 1.134 4.341 2.047 4 5.344l-1.438 1.093c-1.902.478-7.18.416-8.093.25.776-1.772 1.544-3.562 3.125-4.875.472-1.18 1.484-1.418 2.406-1.812zm39.031.5c1.373 1.436 2.69 1.846 4.469 1.437l-.031 1.594c-1.884.687-3.29 1.047-4.375-.844l-.063-2.187zm-.531.031l.031 2.438c1.448 1.232 1.541 2.554 5.406.874v-.124l.657.25c-8.113 8.724-17.005 16.41-26.531 23.25l-1.594-4.47-2.094-2.28c.717-.548 1.414-1.107 2.125-1.657v2.344c1.91 2.095 3.819 2.133 6.406 1.438l.094-3.188c.728-.295.585-.86.031-.938l.125-4.874c5.337-4.257 10.502-8.594 15.344-13.063zm-41.781.813l-2.75 5.5c.893.042 1.795.1 2.687.156L78.47 99c-2.329.693-3.003.607-4.094-.25l-.344-14.156 4.313-.531zm9.75 3.343c.82 1.198 1.648 2.37 2.5 3.531-.62.444-1.221.906-1.844 1.344.067-1.552-.963-2.79-1.656-4.125.337-.247.663-.502 1-.75zm-1.781 1.344c.655.215 1.247.525 1.437 1.438.037.88.485 1.597 0 2.687-.247 1.092-1.394 1.959-2.094 2.938-1.785.49-3.381-.5-5.062-.844 1.866-2.094 2.48-4.97 5.719-6.219zm4.812 2.906a199.653 199.653 0 003.125 4.125c-.696.488-1.39.984-2.094 1.469l-.719-3.344-1.937-.969c.546-.419 1.08-.86 1.625-1.28zm-2.438 1.969c.694-.097 1.3.332 1.876.938.095 1.435 2.177 2.059-.032 4.437-3.31.88-4.768.191-7.156.281 1.775-1.885 3.217-5.05 5.313-5.656zm11.938.906c1.053-.091 2.129.36 3.531.656l-.125 6.094c-1.557 1.155-4.145.943-5.219-.937l-.124-4.906c.68-.605 1.305-.852 1.937-.907zm2.813 1.313c-1.312.226-2.594.5-3.813.344l-.344.093c.807.777 1.689.939 2.438.75.749-.188 1.368-.627 1.937-.937l-.219-.25zm-8.626.625a450.56 450.56 0 003.22 4.031c-.895.657-1.796 1.321-2.688 1.969l-.781-3.125-1.782-1.313c.681-.522 1.353-1.04 2.031-1.562zm-2.593 2.125c.546-.027 1.296.553 1.969.906.14 1.117.58 2.302.187 3.313-1.142 1.215-3.711 1.024-5.594 1.5.554-2.284 1.604-4.198 3.219-5.657a.61.61 0 01.219-.062zm6.594 2.781c1.47 1.33 3.25 1.405 5.218.906l-.062 2.438c-2.111.931-3.883 1.155-5.094-.969l-.063-2.375zm-3.75 2.094c1.016.405 1.91 1.294 2.812 2.156.769 1.776 1.099 3.74 1.281 5.75l-7.531-.031c1.143-2.625 1.893-5.52 3.438-7.875z" fill="#5c2700" fill-rule="evenodd"/>
</svg>
