<?xml version="1.0" encoding="UTF-8"?>
<svg width="128" height="128" version="1.0" xmlns="http://www.w3.org/2000/svg" xmlns:xlink="http://www.w3.org/1999/xlink">
 <path d="M83.813 27.031L34.093 44.25 1.47 77.313l3.312 3.312 2.063-.781c3.264 10.307 11.163 17.28 17.875 24.937l-2.407 2.625 4.063 4.344.938-.406c.01.114.469.552.75.625 5.525 1.56 10.849 2.729 15.937-.563 2.521-3.953 6.969-5.865 10.25-9.125 1.58-1.689 1.82-3.016 0-4.406 2.915-13.838 16.337-25.458 29.875-32.938 6.821-3.768 13.582-6.584 19.125-7.906 3.631-.772 7.752-1.787 11.125.188 1.963-1.378 5.025-2.675 8.125-2.313 3.327-2.344 2.055-5.481.781-8.718l2.031-1.22-1.78-2.437-3.813.375c-2.522-3.01-5.694-6.01-11.594-8.656l4.125-1.188-.031-1.062-4.813-3.281-23.594-1.688zm1.374.813c7.216.686 14.891.965 22.126 1.406l2.812 1.906-23.438-.906-1.5-2.406zm-1.312.218l1.875 2.25L37.531 47.22 34.938 45l48.937-16.938zm2.313 3.157l24.562.531.156.344-24.406.218-47.938 16.782-28.218 26.875-4.5 3.469 32.125-31.313 48.218-16.906zm23.968 1.218l1.313.5-4.094 1-20.781 1.47-46.25 18.062L11.28 75.937 38.906 49.5l47.719-16.688 23.531-.374zm-3.437 1.876c3.074-.4 12.001 6.346 11.906 8.843l-17.656 2.407-47.156 25.062-28.782 33.813c-3.93-4.473-8.413-8.422-11.937-13.118-2.587-3.446-4.57-7.41-5.875-11.695l33.406-25.719 46.156-18.031 19.938-1.563zm-9.625 1.03l-.438.438.563.625-4.719.719v.625c2.03-.305 3.606-.601 5.125-.906l1.719 1.906-.406.063.25.437.53-.094 2.313 2.563.5-.25-2.156-2.438 6.281-1.218 3.844 4.062-1.719.438.188.562 1.969-.531.718.75.625-.063-.781-.843 2.031-.563-.125-.5-2.344.594-3.75-4.032 3.313-.624.063-.438-3.75.688-1.782-1.907-.625.188 1.75 1.843L100 38.626l-1.688-1.938c.122-.024.255-.037.376-.062v-.438l-.75.126-.844-.97zM84.313 38.5l-.438.313c1.916 2.88 4.245 5.458 6.656 7.968-2.476 1.133-4.961 2.24-7.437 3.532L80 46.687l-.25.376c.863 1.188 1.75 2.374 2.75 3.562a48.338 48.338 0 00-3.406 2l.375.438 3.562-1.813c.587.667 1.21 1.333 1.906 2l.438-.313-1.719-2 7.281-3.718c.477.493.958.978 1.438 1.468l.125-.437-1.063-1.281 1.532-.782-.313-.374c-.535.256-1.058.503-1.594.75l-6.75-8.063zm-.907 3.031c-4.54 2.296-9.334 4.284-14.156 6.407-.374-.416-.757-.822-1.125-1.25l-.188.374.782 1.094c-2.787 1.234-5.576 2.515-8.313 3.969L58 49.062l-.313.438 2.25 2.875c-.804.434-1.612.88-2.406 1.344l.063.625a83.207 83.207 0 012.718-1.5l5.407 6.937c-2.348 1.068-4.715 2.039-7.063 3.157L55.47 59.5l-.438.188c1.105 1.219 1.93 2.356 3 3.562-1.44.707-2.873 1.471-4.312 2.406l.25.563 4.656-2.344a25.868 25.868 0 002.406 2.25l.313-.25-2.125-2.313 6.812-3.437.719.938.313-.438-.563-.719.719-.375-.125-.375c-.294.142-.582.27-.875.407l-5.438-6.97c2.762-1.443 5.545-2.73 8.313-3.968l4.156 5.688.313-.313c-1.072-2.343-2.467-4.017-3.907-5.625 4.528-2.017 9.036-3.946 13.438-6.344l.312-.5zm39.719 1.5l1.125 1.688L103.312 48l-.968-1.563 20.781-3.406zm.719 2.25L103.75 50 58.187 75.438 28.064 111l-.875-.813 30.687-35.812.031-.031L103.47 49l20.375-3.719zm-89.813.25l2.719 2.344L4.781 79.219l-1.906-1.906L34.031 45.53zm88.844.375c1.727 2.649 2.452 6.72-.344 8.782a14.294 14.294 0 00-3.094.124l-.406-3.218-4.5 2.343c-3.592-1.606-8.263-.112-11.969.844-5.875 1.599-12.73 4.571-19.812 8.5-6.693 4.503-24.25 12.623-31.531 35.344l-6.657 1.094 1.282 4.687 9-4.156c.04.555-.193 1.137-.625 1.688-3.782 3.023-7.501 5.044-10.344 9.062-4.272 3.396-11.073 1.954-15.875.781l30.531-35.906 45.5-25.281 18.844-4.688zM101 46.438l1.688 1.843L57.28 73.563l-.031.03-2.656-2.28L101 46.436zm17.938 5.874l.062 2.594c-1.427.27-2.79.764-3.938 1.625l.47-2.031c-.025-.016-.039-.047-.063-.063l3.469-2.124zm-10.376 1.907c1.963-.076 3.936.103 5.907.5l-.313 1.218c-3.514-1.55-7.512-.693-11.125.094C79.794 63.27 60.88 76.055 53.22 97.938l-.875.124C55.686 83.48 69.019 71.37 82.812 63.72c7.013-3.89 14.155-6.958 19.938-8.532a23.814 23.814 0 015.813-.968zM39.97 59.375l-.375.313 9.125 11.624.5-.312-9.25-11.625zm-8.25 3.563l-.625.374c.406.569.793 1.147 1.187 1.72a157.94 157.94 0 00-6.125 4.562c-.416-.503-.833-.999-1.25-1.5l-.125.375 1 1.437c-2.677 2.115-5.287 4.296-7.875 6.5l-1.125-1.562-.312.312c.344.534.686 1.06 1.031 1.594-1 .854-2.005 1.704-3 2.563l.313.437 3.062-2.469c3.36 5.182 6.746 10.305 10.563 14.938l-5.532 5.031.313.438c2.123-1.668 4.138-3.307 5.718-4.876.52.62 1.058 1.243 1.594 1.844l.375-.437-1.437-1.969c.692-.727 1.29-1.44 1.75-2.125l-.188-.25-1.968 1.813-10.75-14.75 7.906-6.376 4.156 6c-.838.879-1.67 1.752-2.469 2.657l.313.5 2.562-2.531 4.125 5.968.375-.187c-1.126-2.347-2.43-4.464-3.812-6.469l5.187-5.063c1.632 2.314 3.375 4.58 5.438 6.75l.562-.624-5.187-6.907 3-2.937-.563-.375c-.961.886-1.921 1.796-2.875 2.687l-3.843-5.125 1-.781-.188-.313c-.358.246-.707.501-1.063.75l-1.218-1.624zm.843 2.5c1.22 1.783 2.39 3.596 3.626 5.374a161.24 161.24 0 00-5.157 5.063c-1.394-1.969-2.872-3.832-4.375-5.656l5.907-4.781zm21.313 6.593l2.719 2.313-30.344 35.812-2.563-2.781 2.063-2.25.031-.031.032.062 28.062-33.125zm0 26.781c.39.25.66.534.813.844l-8.532 3.906-1.093-3.374L51 99.311l.625-.093 2.25-.406z" fill="#5c2700" fill-rule="evenodd"/>
</svg>
