<svg xmlns="http://www.w3.org/2000/svg" width="128" height="128" version="1.0"><metadata/><path d="M86.375 8.969c-.917.003-1.86.11-2.813.312-2.36.698-4.452 2.32-6.156 4.906-1.25 4.068-5.48 6.987-8.625 9.97a114.256 114.256 0 01-9.125 6C49.873 35.924 39.19 41.038 32.5 44.061c-3.44 2.38-2.786 2.363-4 3.72l3.188 16.374c-.535.414-1.068.859-1.625 1.344-2.797 2.435-4.926 5.415-6.282 9.125l-.812.438.062.093-.25-.125.594.969c-1.212 4.688-.714 9.294.563 13.938 1.474 3.289 3.656 5.285 7.625 6.218L21.188 113.25l-6.563-3.031-2.688.375-2.406 4.031 8.156 3.688-3.843 5.906L17.156 126l1.907-.938 3.28-4.75 8.595 3.25 1.562-.218 1.594-3.531-8.75-4.5 11.281-19.094c2.162-.594 4.137-1.713 5.781-3.125.035-.027.06-.066.094-.094l12.188 6.406 1.78-1.25c-.24.721.53 2.301.813 3.25 1.809 4.034 4.66 6.115 10.594 6.688 2.97-.304 5.714-1.676 7.875-3.531 1.669-1.269 3.18-2.838 4.438-4.532 3.718-6.043 5.019-13.562 2.124-19.906l12.782-8.906c.223 1.525.548 3.033.969 4.562 1.808 4.034 4.658 6.115 10.593 6.688 2.97-.304 5.715-1.676 7.875-3.531 1.67-1.269 3.18-2.838 4.438-4.532 4.434-7.207 5.476-16.537 0-23.437-2.239-2.109-4.604-2.907-6.938-2.844-.582-.08-1.139-.133-1.656-.188l-3-23.812c-4.98-6.45-12.137-15.188-21-15.156zm.156.562c8.465.116 15.53 8.596 20.406 14.656l2.813 23.688c-.17-.01-.4-.036-.531-.031-3.052.102-4.844 1.595-7.031 3.5-2.495 2.171-4.453 4.77-5.813 7.937C90.301 63.56 81.089 69.611 75 73.875a9.007 9.007 0 00-1.75-.125c-1.085-.15-2.196-.302-2.813-.281-3.05.102-4.843 1.595-7.03 3.5-.82.713-1.547 1.502-2.25 2.312L58.468 57.75C54.49 51.399 48.73 46.973 42.25 43.406c-1.688-.741-3.474-.89-5.281-.781 6.31-3.002 14.106-7.241 22.812-12.375a121.876 121.876 0 009.407-6.156c.825-.34 1.406-.955 2.062-1.5a70.855 70.855 0 005.313-4.5c.62.25 1.333.713 2.03 1.156l-.093-.313-1.719-1.03c.862-.814 1.683-1.614 2.438-2.438 1.774.671 2.804 1.711 4.219 2.562v-.218c-1.629-1.332-2.916-2.132-4-2.594A34.352 34.352 0 0081.28 13c2.6 1.082 6.614 3.277 8.844 4.688l.031-.063c-2.844-1.99-5.686-3.772-8.531-5.094A23.59 23.59 0 0083.25 10c1.038-.424 2.176-.436 3.281-.469zm-3.812.688c-.386.694-.922 1.465-1.531 2.25-.505.026-1.102-.07-1.657-.094.348.071.812.26 1.344.469a40.4 40.4 0 01-2 2.312l-.781-.031c.227.054.419.123.625.188-.803.85-1.67 1.682-2.563 2.53l-.281.063c.06.004.125.051.188.063a95.935 95.935 0 01-5.5 4.812c2.404-2.338 6.678-5.646 7.937-9.437a11.635 11.635 0 014.219-3.125zm18.75 25.468l-.313.094.688 1.844-1.438.938-.781-2.407-.406.063.937 2.5-2.531 1.656L97 38.156l-.344.157.625 2.28-3.094 2.032.657 3.094-.938.468v.282l1-.532.375 1.782-1.219.75.313.218.969-.593.5 2.281 2.937-1.906.344 1.062.344-.093-.344-1.188 1.75-1.156c.327.884.658 1.788.875 2.718h.219a17.317 17.317 0 00-.656-3l1.718-1.124.688 2.25.281-.157-.719-2.25 1.75-1.125-.437-3 2.062-1.312-.125-.282-2 1.22-.406-2.626 1.031-.656-.125-.281-.969.593-.25-1.75-1.718 1.126-.625-1.75zm2.031 1.157l.219 1.437-.5.313.094.312.468-.281.406 2.625-.593.344.031.406.625-.375.375 2.438-1.5 1-.313-1-.187.28.281.876-1.75 1.187c-.216-.604-.452-1.197-.781-1.781l-.281.156c.175.654.394 1.28.625 1.907L99 47.874l-.219-.719-.375.219.25.719-2.594 1.75-.406-1.938.688-.437-.125-.344-.656.406-.376-1.75.72-.375v-.25l-.75.375-.563-2.593 2.812-1.907.563 2.094.437-.125-.656-2.219 2.531-1.75.188.5.219-.093-.188-.563 1.438-.969.218.594.25-.188-.219-.593 1.313-.875zm-66 6.531c1.169.006 2.273.323 3.438.688l-.063 1.03c-2.497 3.79-5.523 4.161-8.75 3.282L30.406 46c1.816-1.83 4.434-2.676 7.094-2.625zm36.469.531l-2.219 1.375c-.215-.26-.44-.497-.719-.812l-.219.031c.295.277.548.58.782.906l-1.875 1.157-.719-1.22-.219.282.75 1.031-2.25 1.407-.906-1.282-.188.157.907 1.25-2.281 1.437-.282-.375-.187.063.312.406-1.75 1.093c.783.71 1.094 1.344 1.282 1.97l-.813.562.031.125.813-.5c.212.813.257 1.625.812 2.625L68 53.469l.656 1 .188-.219-.625-.938 2.187-1.53c.295.497.563.968.563.968l.281-.188s-.3-.452-.656-.937l1.719-1.219.562.657.031-.188-.469-.563 1.72-1.218c.55.507 1.156.906 1.156.906l-.032-.25s-.427-.407-.844-.844l1.344-.968c-.332-.562-.746-.722-1.094-.907l.626-.5-.22-.093-.656.406c-.43-.322-.703-.894-.468-2.938zm-32.594.282c.177.056.35.098.531.156 3.955 1.472 8.45 4.816 12.657 9.593l-1.188.657c-5.321-1.937-9.169-4.856-12.094-9.657l.094-.75zm32.313 0c-.152 1.243.023 2.154.562 2.78l-.25.157.063.344.406-.313c.286.259.62.492 1.062.625l-1.281.907c-.082-.09-.181-.17-.25-.25l-.313.156c.088.101.182.213.282.312l-1.719 1.219-.219-.281-.094.156.188.219-1.688 1.187c-.136-.18-.27-.341-.406-.5l-.156.094a4.5 4.5 0 01.406.531l-2.219 1.563-.28-.407-.22.157.282.406-2.406 1.719c-.58-.635-.852-1.37-1.063-2.063l1.156-.687c.025.018.011-.005 0-.032-.013-.007.019.057-.219-.218l-1.03.718c-.212-.71-.384-1.343-.844-1.75L64.874 50l.813 1.094.156-.094-.813-1.094 2.219-1.468.344.468.187-.156-.312-.469 2.187-1.437.781 1.062.094.032-.719-1.22 1.844-1.187c.187.269.379.543.563.813l.219-.094a6.917 6.917 0 00-.594-.844l1.844-1.218zM41.093 45.25c.59 1.204 1.907 3.077 2.718 4.156l2.032 25.563c-1.176 1.03-3.095 1.026-3.532-.844l-2.218-27.75c.373-.447.646-.65 1-1.125zm-11 1.094l1.718 1.968c.633 2.152 1.07 3.79.344 5.97l-1.843.187L29 47.937a7.861 7.861 0 011.094-1.593zm9.687.343l1.25 15.72-4.156 2.968c-.308-.858-.882-1.751-1.656-2.781.581-3.533-.16-5.848-2.782-8.188 1.61-1.553.602-4.033.094-5.593 3.554 1.445 5.507-.074 7.25-2.126zm69.781 1.813c-3.527 1.006-6.815 3.799-9.187 7-4.427 7.21-5.483 16.54 0 23.438 3.182 3.007 6.647 3.414 9.875 2.343-1.119.472-2.29.718-3.625.813-4.851-.403-7.31-2.333-9.75-6.469-1.671-3.728-2.157-9.24-.813-14.656 1.303-3.8 3.966-7.1 6.688-9.469 1.901-1.655 4.204-2.757 6.813-3zm1.97.438c.277-.014.565-.011.843 0 2.023.078 4.076.833 5.938 2.437 5.452 6.514 3.982 15.897.062 22.75-4.005 6.05-11.778 9.565-17.438 4.031-5.498-6.517-4.087-15.353-.156-22.219 2.549-3.866 6.588-6.792 10.75-7zm-67.376.687c1.811 2.159 3.897 3.798 6.563 4.719L44.937 59l-.78-9.375zm66.875.813c-.438.016-.876.059-1.344.124-7.682 2.407-10.598 9.495-11.062 17 .065 6.985 3.696 12.793 11.156 11.75 7.685-2.403 10.692-9.924 11.156-17.437-.06-6.574-3.33-11.686-9.906-11.438zm.031.406c6.225-.37 8.922 5.704 9.282 11.375-.002.072-.029.147-.031.218-.052-.47-.222-.805-.5-.812l-.594.125c0-.249.005-.574 0-.688-.159-1.93-.862-3.677-1.906-5.218l.53-.657c.103-.852-1.619-2.839-2.75-2.5l-.28.532c-1.635-1.49-3.644-1.79-5.75-1.938.626-.331 1.31-.363 2-.437zm-1.718.781c.21.01.426.038.625.063l-.125 1.812-1.094.75c-.028-.85-.076-1.67-.094-2.594.233-.007.467-.042.688-.031zm-1.188.063c.071 3.13.2 6.445.281 9.562.097.287-1.295.889-1.187.188l-.938-8.657a14.258 14.258 0 011.844-1.093zm2.531.156c1.524.335 2.751 1.025 3.938 1.718l-4.063 7.407c-.31-.064-.522-.057-.718-.063l.844-9.062zm-4.724 1.414L106.22 56l-3.688 2.5-.719-.688c.86-1.51 1.63-2.603 2.93-3.748.265-.233.937-.59 1.221-.806zm9.662-.008c.885-.21 1.9 1.513 1.5 2.031l-5 6.25c-.402-.276-.786-.458-1.156-.531 1.57-2.531 2.85-5.467 4.656-7.75zm-5.781.531l-.219 3.532-.781.53a396.38 396.38 0 00-.094-3.312l1.094-.75zm-55 .5c.996 1.151 1.987 2.347 2.937 3.657l1.063 8.374-2.157-.062c-2.29-3.379-3.605-7.244-3.156-11.563l1.313-.406zm-3.594.25c.538.161 1.102.307 1.688.407-.492 2.493-.051 4.801.843 6.968-2.583 2.879-5.273 5.215-7.968 7.532L45 59.78l6.25-5.25zm-18.969.063c2.406 2.113 2.399 5.118 2.657 8.031l-2.813.938-1.688-8.47 1.844-.5zm84.781 1.562c.963 1.481 1.344 3.157 1.5 5.063.044.273.036.472.032.687L113 63.22a5.492 5.492 0 00-.594-1.375l4.656-5.688zm-10.812.094l.344 3.094-1.813 1.281-2.094-2 3.563-2.375zm3.375 1.156l-.188 3.375.094.094c-.217.016-.403.067-.656.094.005-1.072-.007-2.054-.031-3.032l.781-.53zm-8 .719l5 4.719c-.023.775-.037 1.53-.75 1.5L100.75 60c.26-.645.547-1.269.875-1.875zm5 1.375l.188 1.75c-.443-.178-.58.29-.876.438l-1.062-1 1.75-1.188zm-10.719.938c-.061.167-.13.33-.187.5-.269.875-.445 1.755-.594 2.624l-16.969 11.47a9.427 9.427 0 00-2.187-.938c5.967-4.12 14.16-9.558 19.937-13.656zm4.656.062l1.97 1.625-2.938 2c.219-1.237.535-2.458.969-3.625zm6.25.938l.063.437c.592.885 1.3.196 1.719-.313h.312c-.455.331-.895.774-1.312 1.282-1.112 1.916-1.186 3.896 0 5.75.268.204.527.358.781.469l-.781.093c.205-.976-1.129-1.2-1.563-1.344-.174.267-.33.494-.5.75a4.502 4.502 0 01-.531-1l.906-.25c.513-.796.1-1.476-.25-1.874l-1 .062c-.061-.37.042-.694.156-1.031l.313-.219.906.75c.54-.406 1.112-1.164.906-2.344l-.812-.75.688-.468zm3.063.03c.666-.083 1.503.339 2.156.72.22.316.148.719.25 1.062l-2.781-.063c-.742.587-1.15 1.337-1.156 2.126-.007.788.37 1.569.969 2.312l2.187-.063-.063.032c-.937 1.005-2.295 1.372-3.468.687-1.049-1.503-.659-3.872.094-5.437.464-.64 1.146-1.291 1.812-1.375zm-7.25.75l1.875 1.532c-.095.19-.15.397-.188.594l-1.906 1.312-3.062.25c.05-.539.13-1.063.219-1.594l3.062-2.093zm-48.719.032c.285.65.613 1.285.969 1.906l-8.719 9.281-.312-3.374c2.745-2.19 5.472-5.236 8.062-7.813zm65.594 0c.37.286.648 1.54-.219 2.313l-4.437.124c-.117-.484-.315-.916-.625-1.218l5.281-1.219zm-84.469.5c1.8 2.673 1.785 5.04-.343 7.313l-1.376-.688h-.03l-1.094-5.438 2.843-1.187zm6.063.406l.687 8.907-5.625-2.844c.855-1.137 1.09-2.135.907-3.156l4.03-2.907zm72.719.5c.246.18.686 1.025.75 1.5.06.455-.283 1.34-.72 1.844l-4.28.188c-.395-.546-.567-1.37-.563-1.782.004-.432.266-1.206.75-1.625l4.063-.125zm6.406.125c-.257 2.634-.965 5.19-2.156 7.469.573-1.996.911-4.056 1.062-6.125h.625c.216-.368.375-.855.469-1.344zm-25.156.094a22.325 22.325 0 00-.25 3.531l-14.25 9.719c-.129-.175-.24-.36-.376-.531a11.776 11.776 0 00-1.78-1.406l16.656-11.313zm17.718.094c-.72.648-1.243 1.613.063 2.5l.469.031c-.773-.941-.38-1.721-.126-2.5l-.406-.031zm-57.75.468c.408.692.852 1.375 1.313 2.032-.908 2.414-1.54 5.196.093 8.531-1.212 1.177-1.775 2.135-1.718 3.219L46.5 74.063l8.531-9.626zm-23.25.313l.188.969a22.852 22.852 0 00-3.719 3.937 26.219 26.219 0 00-1.781 3.469l-2.219 1.25c1.38-3.48 3.836-6.508 6.375-8.719.37-.322.756-.63 1.156-.906zm72.469.094c-.014.221-.015.433-.031.656l-1.031.094 1.062-.75zm14.531.281c-.067 2.034-.432 4.082-1.094 5.969l-4.437-3.563.594-.031c.841-.734.948-1.336 1.094-2.313l3.843-.062zm-13.375.719c.396.358.491.735.063 1.094l-6.125 1.53c-.116-.654-.073-1.497-.063-2.156l6.125-.468zm-73.312.406l.25 1.375c-1.311 1.15-2.354 2.51-3.188 4.031l-1.75.969c.385-.863.784-1.717 1.25-2.531a17.75 17.75 0 013.438-3.844zm26.781.375l1.094 8.719-3.157-.469c-1.392-2.44-1.162-5.37-.25-8.188l2.313-.062zm54.063.906l4.624 3.969a15.212 15.212 0 01-.78 1.719l-4.938-5.281c.116-.123.23-.242.344-.376l.75-.03zm-18.126.031a26.6 26.6 0 00.22 3.157l-12.938 8.937a16.86 16.86 0 00-1.438-2.406l14.156-9.688zm9.813.126c.133.299.32.646.563 1.03l-3.313-.28 2.75-.75zm1.906.5c.47-.015.856.662.438 1l-4.406 7.28a9.784 9.784 0 01-1.126-1.5c1.675-1.984 3.161-4.377 4.626-6.5.15-.198.311-.276.468-.28zm4.969.062l5.063 5.375c-1.445 1.903-3.299 3.497-5.594 4.531l-.625-9.094c.4-.174.788-.47 1.156-.812zm-79 .125l.25 1.313-2.469 1.343a15.523 15.523 0 012.219-2.656zm68.219.406l4.375.375a105.915 105.915 0 01-3.875 5.406c-.914-1.607-1.492-3.49-1.781-5.437l1.28-.344zm9.094.469l.812 9.031c-.28.118-.551.242-.844.344-.35.066-.7.096-1.031.125l-.094-9.406c.386-.026.771-.063 1.156-.094zm-1.657.156l.125 9.375c-2.186.081-3.903-.646-5.25-1.875l4.406-7.437c.237-.021.492-.042.72-.063zm-72.25.063l5.938 3.406.062.75-6.718-3.313c.284-.284.5-.577.718-.843zm-2.687.344l8.625 4.343c.184.983 1.779 2.365 3.312 1.656l13.563 6.844a21.926 21.926 0 00-1.313 2.719l-.156-.156-26.719-13.844 2.688-1.563zm-2.75 1.593l.062.219 26.844 13.781c-.057.142-.102.293-.156.438-.81.55-1.754 1.15-2.688 1.75L26.75 73.563l3.719-2.157zm-3.907 2.281v.032l27.782 14c-.96.615-1.911 1.228-2.75 1.781L23.562 75.437l3-1.75zm44.22.438c-3.528 1.006-6.816 3.799-9.188 7-4.428 7.21-5.483 16.54 0 23.438 3.182 3.007 6.647 3.414 9.875 2.343-1.12.472-2.29.718-3.625.813-4.852-.403-7.31-2.333-9.75-6.469-1.672-3.728-2.157-9.24-.813-14.656 1.303-3.8 3.966-7.1 6.688-9.469 1.9-1.655 4.204-2.757 6.812-3zm-24.594.188l8.593 4.562.032-.031c.125.49.358 1.012.718 1.594l-9.812-4.782c.447-.393.404-.95.468-1.344zm26.593.25c.278-.014.535-.011.813 0 2.022.078 4.076.833 5.937 2.437 5.453 6.514 3.983 15.897.063 22.75-4.005 6.05-11.778 9.565-17.438 4.031-5.499-6.517-4.087-15.353-.156-22.219 2.548-3.866 6.619-6.792 10.781-7zm-16.062.718l3.343.656.5 4c-.56.7-1.056 1.444-1.53 2.22L56.25 80.78c-2.241-2.42-.232-3.758.469-5.5zm15.531.781c-.438.017-.876.06-1.344.126-7.683 2.406-10.599 9.494-11.062 17 .065 6.984 3.695 12.792 11.156 11.75 7.685-2.404 10.692-9.925 11.156-17.438-.06-6.574-3.33-11.686-9.906-11.438zm-48.031.313c8.681 4.46 18.535 9.513 27.312 13.781l.719 2.219-26.156-13.031-1.875-2.969zm-.563.094l1.25 2c-.902 5.09-.077 10.322 3.344 14.625 1.212 1.145 2.484 1.89 3.75 2.344l-.219.343c-3.132-.846-5.1-2.726-7.031-6-1.533-3.418-2.053-8.342-1.094-13.312zm48.625 0c6.224-.37 8.921 5.704 9.281 11.375-.002.072-.028.147-.03.219-.052-.472-.223-.806-.5-.813l-.594.125c0-.249.005-.574 0-.688-.16-1.93-.862-3.677-1.907-5.218l.531-.656c.103-.853-1.619-2.84-2.75-2.5l-.28.53c-1.635-1.489-3.644-1.789-5.75-1.937.625-.331 1.31-.363 2-.437zm-1.906.781l-.633.362c-.003-.13.136-.197.133-.33.17-.006.335-.026.5-.032zm.625.031c1.056.112 1.975.427 2.813.813L70 80.594c-.027-.8-.02-1.717-.05-2.557L71 77.28zm-1.625.031c.07 3.131.2 6.446.281 9.563.096.287-1.295.889-1.187.188l-.938-8.657a14.258 14.258 0 011.844-1.094zm4.625.876c.646.31 1.25.652 1.844 1l-1.031 1.874-4.72 3.25c-.02-1.142-.055-2.262-.093-3.374l4-2.75zm-6.906.562l.062.568-2.375 1.62a14.813 14.813 0 012.313-2.188zm9.75.125c.885-.21 1.9 1.513 1.5 2.031l-5 6.25c-.403-.276-.786-.458-1.156-.531 1.57-2.531 2.85-5.467 4.656-7.75zm-51.438.438l1.125 1.874c-.013.178-.02.355-.031.532.051 5.462 2.305 10.19 6.844 11.5l-.844 1.375c-1.28-.43-2.533-1.153-3.688-2.281-3.229-3.828-4.054-8.443-3.406-13zm.875.374l26.032 12.907.906 2.844L28.78 83.624l-2.5-3.938zm40.938.282l.281 2.312-3.219 2.313-1.25-1.156c.292-.514.626-.994.969-1.47l3.219-2zm7.406 1.406l-2.844 5.219c-.87-.179-1.134-.06-1.687 0 .003-.724.011-1.42 0-2.094l4.531-3.125zm3.656.406c.08.122.147.25.219.375l-1.344 1 1.125-1.375zm-51.094.438l.22.375-.188.031c-.022-.125-.022-.27-.032-.406zm40.344.406l.375 3.156-1.375.938-2.125-1.969 3.125-2.125zm11.219 0c.621 1.268.903 2.663 1.031 4.219.044.273.036.472.031.687l-5.593 1.313a5.491 5.491 0 00-.594-1.375l2.406-2.938 2.719-1.906zm-51 .531l1.875 3.094.938.5a87.994 87.994 0 01-1.47 1.969c-.913-1.607-1.49-3.491-1.78-5.438l.437-.125zm35.094.594l5 4.719c-.023.775-.037 1.53-.75 1.5l-5.125-4.344c.26-.645.547-1.269.875-1.875zm-33.938.094L53.313 95.75l.906 2.781-24.032-12.625-1.28-2.062zM67.938 86l.093.875c-.442-.178-.58.29-.875.438l-.5-.47L67.937 86zm-6.157.125l.125.094-.218.187c.032-.093.059-.189.093-.281zm.282.219l2.28 1.875-3.687 2.5c.183-1.388.493-2.754.938-4.063l.468-.312zm-5.188.5a21.346 21.346 0 00-.719 3.375l-3.093 1.906-.72-2.406a117.676 117.676 0 014.532-2.875zm-25.906.125l1.281.656-1.813 3a9.784 9.784 0 01-1.125-1.5 33.768 33.768 0 001.657-2.156zm37.062.094l.063.437c.591.885 1.3.196 1.719-.313h.312c-.455.331-.896.774-1.313 1.282-1.11 1.916-1.186 3.896 0 5.75.269.204.528.358.782.469l-.781.093c.205-.976-1.13-1.2-1.563-1.344-.174.267-.33.494-.5.75a4.502 4.502 0 01-.531-1l.906-.25c.512-.796.1-1.476-.25-1.874l-1 .062c-.084-.501.15-.94.281-1.406l1.094.906c.54-.406 1.112-1.164.906-2.344l-.812-.75.687-.469zm3.063.03c.666-.083 1.472.339 2.125.72.22.316.179.719.281 1.062l-2.781-.063c-.742.587-1.15 1.337-1.156 2.126-.007.788.369 1.569.968 2.312l2.188-.063-.063.032c-.938 1.005-2.296 1.372-3.469.687-1.048-1.503-.658-3.872.094-5.437.464-.64 1.147-1.291 1.813-1.375zm9.625.782c.37.286.647 1.54-.219 2.313l-4.438.124c-.116-.484-.314-.916-.624-1.218l5.28-1.219zm-47.938.031l2.875 1.5-1.968 3.25a7.124 7.124 0 01-2.782-1.594l1.875-3.156zm31.688.438l1.25 1.031c-.278.557-.24 1.155-.281 1.75l-4.876.406c.018-.19.04-.373.063-.562l3.844-2.625zm10.562.937c.247.18.686 1.025.75 1.5.061.455-.282 1.34-.719 1.844l-4.28.188c-.395-.546-.567-1.37-.563-1.782.003-.432.265-1.206.75-1.625l4.062-.125zm6.406.125c-.257 2.634-.964 5.19-2.156 7.469.573-1.996.912-4.056 1.063-6.125h.625c.216-.368.374-.855.469-1.344zM74 89.594c-.721.648-1.243 1.613.063 2.5l.468.031c-.772-.941-.38-1.721-.125-2.5L74 89.594zm-37.781.125l1.906 1-12.188 21.531-8.906 12.969-2.312-1.188 3.719-5.906 2.468-3.656 15.313-24.75zm19.937.656a22.756 22.756 0 00-.125 3.5L54 95.281l-.844-2.875 3-2.031zM80 90.75c-.067 2.034-.432 4.082-1.094 5.969l-4.437-3.563.594-.031c.841-.734.948-1.336 1.093-2.313L80 90.75zm-41.375.219l.5.25-.313.531c-4.468 7.635-6.484 12.327-13.406 22.906l-4.156 6.719-2.406 3.313-1.094.406 2.813-4.219L25 114.531 38.625 90.97zm.75.406l.625.344a13.47 13.47 0 01-1.156.594l.531-.938zm27.25.094c.395.358.49.735.063 1.094l-6.126 1.53c-.115-.654-.072-1.497-.062-2.156l6.125-.468zm-25.875.625l1.219.625c-1.426 1.013-2.97 1.769-4.563 2.125l.907-1.625c.869-.318 1.691-.68 2.437-1.125zm33.406 1.062l4.625 3.969A15.21 15.21 0 0178 98.844l-4.938-5.281c.117-.123.23-.242.344-.376l.75-.03zm-8.312.156c.119.267.297.573.5.907l-2.906-.25 2.406-.656zm1.906.5c.47-.014.856.663.438 1l-4.407 7.282a9.784 9.784 0 01-1.125-1.5c1.675-1.985 3.161-4.378 4.625-6.5.151-.199.312-.277.469-.281zm4.969.063l5.062 5.375c-1.444 1.903-3.298 3.497-5.594 4.531l-.624-9.094c.4-.174.787-.47 1.156-.812zm-16.688.25c.053 1.089.196 2.194.375 3.281l-1.468 1-.876-2.937 1.97-1.344zm6.25.188l4.094.374a106.182 106.182 0 01-3.938 5.5c-.913-1.607-1.491-3.49-1.78-5.437l1.624-.438zm8.75.562l.813 9.031c-.28.118-.552.242-.844.344-.35.066-.7.096-1.031.125l-.094-9.406c.386-.026.77-.063 1.156-.094zm-1.656.156l.125 9.375c-2.186.081-3.903-.646-5.25-1.875l4.406-7.437c.236-.021.492-.042.719-.063zm-31.25.406a9.66 9.66 0 01-1.281.438l.031-.125c.42-.085.836-.175 1.25-.313zm-23.594 15.22l6.5 2.874-.468.75-7.72-3.312 1.688-.313zm-2.312.468l8.187 3.531L18 117.937l-7.844-3.437 2.063-3.375zm12.844 4.469l8.28 4.281-.437.188-8.375-3.5.532-.97zm-.625 1.187l7.937 3.844-1.563 2.531-8.25-3.469 1.875-2.906zm9.062 3.469l-1.188 2.594-.78.156 1.405-2.531.563-.219z" fill="#5c2700"/></svg>