<?xml version="1.0" encoding="UTF-8"?>
<svg width="128" height="128" version="1.0" xmlns="http://www.w3.org/2000/svg" xmlns:xlink="http://www.w3.org/1999/xlink">
 <path d="M69.875 8.313c-4.255.328-11.413.369-14.469 7.906l.188.375c-.884 2.64-1.855 5.285-3.844 8.062 2.15-1.6 3.7-2.918 5.531-4.343l.875 2c-1.103 2.57-3.167 5.483-4.125 7.75a60.145 60.145 0 013.875-4.125c-.917 4.911-.767 9.75-3.937 14.812 1.694-1 3.375-2.005 5.718-2.844-.811 4.356-2.56 8.15-4.53 11.844 2.935-4.313 6.331-6.364 10.03-8.813l-8.28 13.376c-1.189-1.232-2.12-2.694-3.782-3.657-.561-2.291-.868-5.02-.094-7.312l-7.281-.719c-1.721.068-2.177-2.397-3.031-4.063-2.845 1.288-4.543-.007-6.5-.718-2.758 1.52-5.334 1.928-8.375 1.312l-2.719 4.969c-1.842 2.455-4.025 4.153-4.875 8.813l.875 34.437L5.844 93l9.968 13.188 33.126 6.937 26.406-10.281-.938-.469 21.844-.438c2.15-2.531 1.53-4.945-1.156-6.906L95.03 95h-.062l-22.719.906v-.562h-4.094l.188-5.688-1.313-1.187-10.687 4.281c1.482-2.316 2.649-4.753 4.468-6.938l.126 4.282 6.124-4.656 6.907 7.156 5.5-2.875 4.219 2.25 5.5-.563 2.343.625L96.844 83c1.844 2.767 4.61 4.279 9.5 4.75 2.97-.304 5.714-1.675 7.875-3.531 1.669-1.268 3.18-2.838 4.437-4.531 4.435-7.208 5.476-16.538 0-23.438-2.238-2.109-4.604-2.906-6.937-2.844-.583-.08-1.14-.133-1.656-.187l-.626-.063c-.17-.01-.4-.035-.53-.031a8.19 8.19 0 00-1.876.281L92.187 20.938c-4.87-8.01-13.146-12.429-22.312-12.625zm-1.063 1.03c8.369-.108 17.854 5.226 22.47 12.032L103.874 47.5l.031.469c-4.108-.099-6.919 1.243-10.281 3.593a84.213 84.213 0 004.531-10.593c-3.219-.719-6.623-2.449-10.094-1.657 1.614-2.781 1.292-7.187 1.97-10.437-3.792 4.615-7.584 7.619-11.376 13.844 2.697-7.365 2.73-14.063 4.094-21.094-3.698 5.885-8.014 7.032-11.094 17.656.193-9.447-1.575-14.213-2.812-23.343-5.316 3.506-9.925 6.93-13.531 12.218 1.354-2.698 3.773-5.396 4.062-8.093a4.97 4.97 0 00.031-1.532l-6.5 4.625c2.262-1.88 2.613-3.667 2.969-5.437 1.082-6.042 7.52-8.095 12.938-8.375zM68.47 17c1.424 7.429 3.078 15.753 2.906 23.219l-4.719-.907-6.844-15.156c2.71-2.474 5.628-4.84 8.657-7.156zm-9.594 2.094c.09.684-.069 1.455-.344 2.281l-.656-1.5c.332-.253.64-.517 1-.781zm23.219 4.125c-.904 5.88-1.717 12.294-3.406 18.406L71.53 40.25c2.422-7.637 6.906-11.591 10.563-17.031zM59.25 24.656l6.719 14.782c-2.82 2.474-6.312 3.912-8.844 7.374 2.323-3.609 2.268-6.442 3.719-9.906-1.808.688-3.748.576-5.407 2.157 2.903-5.554 2.29-9.34 3.344-13.97.155-.146.312-.291.469-.437zm29.906 6.157c-.578 2.93-.336 5.999-1.812 8.78 3.281.219 6.562 1.105 9.844 1.657-.448 1.21-.846 2.457-1.25 3.719l-16.5-3.157c3.24-4.658 6.477-7.182 9.718-11zm-52.844 7.812c1.783.436 3.11 1.57 5.75.719.97 1.354 1.048 2.458 3.282 3.812l6.75 1.125c.203 2.171-.754 4.149.718 6.532 3.22 1.958 4.252 6.415 9.657 5.874-5.065 4.795-4.83 6.775-6.282 9.657-.794-14.961-9.164-23.328-17.687-25.469-2.245-.582-4.301-.688-6.188-.406-2.36.262-4.493 1.462-6.374 2.906l2.312-3.531c2.749.202 5.453-.408 8.063-1.219zm30.376 1.438l11.78 2.312c-.066.23-.149.458-.218.688l-11.313-2.126-8.78 14.438a7.231 7.231 0 01-.657-.5c2.97-5.059 6.221-10.229 9.188-14.813zm.374 1.78l1.626 3.813-7.032 10.875h.313l6.812-10.656 2.313 5.438-11.375 18.374c-.996-.968-1.868-1.999-2.594-3.03.921-4.535 3.523-6.674 5.781-10.094-1.906.094-3.238-.274-4.281-.876l8.438-13.843zm.657.126L95.25 47.03a32.22 32.22 0 01-1.219 3l-24.844-4.437-1.468-3.625zm-32.563.156c.99-.016 2.027.028 3.094.094 6.565 1.649 13.16 6.934 15.813 16.687L46.124 71.75l5.781 5-4.656 6.938 2.125.75 1.594-2.094 2.875-3.063-1.782 7.625 2.063.313.5-.781-.219 7.374L43.125 91.5l8.313-4.813-.094-.156h-.032l-1.906-1.406-7.468 1.938.593-3.157-1.156-1.125-2 .344.031-.469-2.187-1.031-14.813 5.188c1.575-3.006 3.213-5.991 7.188-7.688-2.618-1.312-6.614-2.705-6.469-5 4.447-2.148 4.25-3.47 7.906-5.531-4.201-3.665-6.561-4.664-7.687-7.063.084-1.25 1.663-1.957 3.093-3.281-.848-3.295-1.84-6.679-1.093-9.063 3.29-.285 3.883-1.453 9.187-2.124-2.847-.519-5.695-1.452-8.312-2.47 2.395-1.594 5.78-2.26 8.937-2.468zM79 42.469l16.688 3.312c-.06.18-.127.352-.188.532l-16.938-3.188c.142-.221.296-.444.438-.656zm-53.219 2.5c1.634.7 2.64 1.474 5.938 1.937-4.085.73-4.613 1.459-6.907 2.188-.69 2.955.345 5.92 1.25 8.875-1.589.77-2.55 2.15-3.5 3.562 2.143 4.014 5.226 4.711 7.844 7.063-3.716 1.866-5.327 3.727-7.968 5.594 1.552 3.26 3.732 3.694 5.718 5-3.165 1.838-4.343 4.528-6.031 7L21.75 52.78c.686-3.676 2.09-6.164 4.031-7.812zm43.469.781l24.656 4.563c-.339.695-.719 1.375-1.156 2.062A24.814 24.814 0 0196 50.719l3.719.687-3.656 5.219-24.688-5.563-2.125-5.312zm34.219 2.344l-18.063 26.5-.031.125-.875-.563 18.125-25.75c.283-.098.561-.208.844-.312zm.937.25l1.5 3.875c-.449.762-.884 1.544-1.344 2.312-.904.586-1.772 1.297-2.687 2.094-2.494 2.171-4.452 4.77-5.813 7.938-.876 1.908-1.241 3.737-1.374 5.53-1.973 3.047-3.957 6.107-5.844 9.063l-4.469 1.969 1.688-6.219 18.343-26.562zm-2.844.406l-1.624 2.313-3.313-.594c1.647-.66 3.287-1.174 4.938-1.719zM71.47 51.281l24.406 5.657-1.75 2.5-21.031-4.126-1.625-4.03zm-.313.219l1.813 4.25L62.28 71.781a17.143 17.143 0 01-2.375-1.906L71.156 51.5zm34.906 1.094l.376.968a8.44 8.44 0 00-1.407.657c.343-.545.688-1.09 1.031-1.625zm3.188 1.187c-3.528 1.006-6.815 3.8-9.188 7-4.427 7.21-5.482 16.54 0 23.438 3.183 3.007 6.647 3.414 9.876 2.344-1.12.471-2.29.717-3.626.812-4.85-.403-7.309-2.333-9.75-6.469-1.67-3.727-2.157-9.239-.812-14.656 1.302-3.8 3.965-7.099 6.688-9.469 1.9-1.655 4.204-2.757 6.812-3zm1.969.438c.277-.014.565-.011.844 0 2.022.078 4.076.833 5.937 2.437 5.453 6.514 3.983 15.898.063 22.75-4.006 6.05-11.779 9.565-17.438 4.031-5.499-6.516-4.087-15.353-.156-22.218 2.548-3.867 6.587-6.793 10.75-7zm-.5 1.5c-.439.016-.876.06-1.344.125-7.683 2.407-10.599 9.494-11.063 17 .066 6.985 3.696 12.792 11.157 11.75 7.685-2.404 10.691-9.925 11.156-17.438-.06-6.573-3.33-11.686-9.906-11.437zm-37.063.343l4 .813-15.719 25.531c-1.28.143-2.453.09-3.28-.562.64-4.018 4.29-5.925 7.124-8.406-1.06-.314-2.024-.773-2.937-1.313l10.812-16.063zm37.094.063c6.224-.37 8.921 5.704 9.281 11.375-.002.072-.028.147-.031.219-.052-.471-.222-.806-.5-.813l-.594.125c.001-.249.005-.573 0-.687-.158-1.93-.861-3.678-1.906-5.219l.531-.656c.103-.853-1.62-2.84-2.75-2.5l-.281.531c-1.635-1.49-3.644-1.79-5.75-1.938.626-.331 1.311-.362 2-.437zm-32.844.781l5.719 1.157-15.219 27.374-1.281-1.406L61.375 89l.156-4a16.046 16.046 0 014.157-3.156c-1.107.1-2.304.351-3.438.5l15.656-25.438zm31.25 0c.304.015.662.086 1.219.219 1.523.336 2.75 1.025 3.938 1.719l-4.063 7.406c-.549-.369-1.258-.177-1.688 0-.073-.971-.098-1.886-.124-2.75l1.53-2.563-1.562-4c.235-.007.47-.045.75-.03zm-1.312.063c.05 2.25.115 4.576.187 6.875v.343l.031-.03c.025.792.043 1.6.063 2.374.096.287-1.295.89-1.188.188L106 58.063a14.258 14.258 0 011.844-1.094zM83.78 58.094L89.5 59.25 72.594 90l-4-4.375L83.78 58.094zm21.781.312l.282 2.375-2.5 4.032-1.844-1.72c1.034-1.82 2.389-3.417 4.063-4.687zm2.813.094l.906 2.344-.875 1.437c-.019-1.317-.02-2.552-.031-3.781zm6.938.031c.884-.21 1.9 1.513 1.5 2.032l-5 6.25c-.403-.277-.786-.459-1.157-.532 1.57-2.531 2.851-5.467 4.656-7.75zm-25.626.75l3.97.813-9.688 13.843-2.156 8.532 1.593.094.031-.094 3.688-1.75-3.969 5.937.594.156-1.781 3.563-2.438-1.125-5.375 2.469-1.406-1.531L89.688 59.28zM54.313 60c.1.425.196.84.28 1.281l-6.28 10.344 5.812 4.906-.906.063-6.063-5.125L54.313 60zm51.562 1.188l.531 4.406-.812 1.344-2.094-1.97 2.375-3.78zm10.875.25c.962 1.48 1.343 3.156 1.5 5.062.043.273.036.472.031.688l-5.594 1.312a5.492 5.492 0 00-.593-1.375l4.656-5.688zm-62.031.656c.237 1.415.423 2.891.5 4.468l-4.25 6.563-1.907-1.688 5.657-9.343zm46.593 1.312l5 4.719c-.022.775-.036 1.53-.75 1.5l-5.124-4.344c.26-.645.546-1.269.874-1.875zm-1.062 2.375l1.625 1.344-2.5 4.031-.344.031c.07-2.216.682-3.322 1.219-5.406zm6.25.969l.063.406c.591.886 1.3.197 1.718-.312h.313c-.456.33-.896.773-1.313 1.281-1.111 1.916-1.186 3.896 0 5.75.269.204.528.358.781.469l-.78.094c.204-.977-1.13-1.2-1.563-1.344-.174.266-.33.493-.5.75a4.502 4.502 0 01-.531-1l.906-.25c.512-.797.1-1.476-.25-1.875l-1 .062c-.025-.15.012-.298.031-.437l.469-.781.875.718c.54-.406 1.112-1.164.906-2.344l-.531-.468.406-.719zm3.063 0c.666-.084 1.503.338 2.156.719.22.316.148.719.25 1.062l-2.781-.062c-.742.587-1.15 1.336-1.157 2.125-.007.789.37 1.57.969 2.312l2.188-.062-.063.031c-.938 1.005-2.296 1.372-3.469.688-1.048-1.504-.658-3.873.094-5.438.464-.64 1.146-1.291 1.813-1.375zm-53.344.281c2.808 2.357 4.807 6.32 8.687 6.531-3.598 2.591-6.345 5.75-8.531 9.282 2.483.4 4.974.726 7.688-.719-5.403 3.638-5.81 7.369-8.157 10.75l.313-25.844zm-1.032.125l-.28 9.469-3.688-3.281 3.968-6.188zm46.876.125l2.124 1.75c-.08.157-.12.305-.156.469l-.812 1.344-3.563.281 2.406-3.844zm17.124.25c.371.286.648 1.54-.218 2.313l-4.438.125c-.116-.484-.314-.916-.625-1.219l5.281-1.219zm-5.687 1.406c.247.18.686 1.025.75 1.5.061.455-.282 1.34-.719 1.844l-4.281.188c-.394-.546-.566-1.37-.563-1.781.004-.433.266-1.207.75-1.626l4.063-.124zm6.406.126c-.257 2.634-.965 5.189-2.156 7.468.573-1.996.912-4.056 1.063-6.125h.624c.217-.368.375-.855.47-1.344zm-7.437.187c-.721.648-1.244 1.614.062 2.5l.469.031c-.772-.941-.38-1.72-.125-2.5l-.406-.031zm6 1.156c-.067 2.035-.433 4.082-1.094 5.969l-4.438-3.563.594-.03c.842-.735.948-1.336 1.094-2.313l3.844-.063zm-23.813.25c-.095 1.972.057 3.898.125 5.844.078.533.179 1.064.281 1.594L90.75 85l-3.969 1.063 4.531-7.97-1.906.844a881.849 881.849 0 005.25-8.28zm10.469.375c.217.39.557 1.114.188 1.406l-6.032 1.47-.125-2.376 5.969-.5zm7.5 1.781l4.625 3.97a15.212 15.212 0 01-.781 1.718l-4.938-5.281c.117-.123.23-.242.344-.375l.75-.031zm-8.656.22l.719.968-2.438.344.688-1.125 1.03-.188zm2.25.437c.47-.015.856.662.437 1l-4.406 7.281a9.784 9.784 0 01-1.125-1.5c1.674-1.985 3.16-4.377 4.625-6.5.15-.199.312-.276.469-.281zm4.969.062l5.062 5.375c-1.444 1.904-3.298 3.498-5.594 4.531l-.625-9.093c.401-.175.788-.471 1.156-.813zm-9.72.219l-1.812 2.969c-.216-.756-.413-1.522-.531-2.313l2.344-.656zm-17.124.781l1 .313-1.875 7.062-1.063-.062 1.938-7.313zm25.156 0l.813 9.031c-.28.118-.552.242-.844.344-.35.066-.7.097-1.031.125l-.094-9.406c.386-.026.77-.063 1.156-.094zm-4.938.094l-3.624 5.063L100 78l2-3.219 2.563-.156zm3.282.063l.125 9.374c-2.186.081-3.903-.646-5.25-1.874l4.406-7.438c.236-.02.492-.042.719-.063zm-54.969 2.374h1.406L48.97 83.72l-.657-.438 1.782-2.094 2.781-4.124zm2.031.126l-.031 1.468c-.576 1.816-.741 3.982-1.156 6l-.938 1.375c-.01-.004-.021.005-.031 0l1.625-7.406-.844.344 1.375-1.781zm40.219 1.156c.181.903.375 1.808.625 2.719.177.393.395.736.594 1.093l-4.594 7.781-.719-4.906 4.094-6.687zm-5.281 1.094L85.5 86.561 84 86.25l4.313-6.031 1.53-.781zM36.906 82.28l1.094.375-14.063 4.875.282.094-1.594-.313 13.625-4.687.656-.344zm1.969.563c.013.177.029.3.063.375l-2.282.406 2.219-.781zm2.531.406l.657.844-6.438.781.313-.625 5.468-1zm-5.875.781l-.968 1.5 7.187-1-.094.375-9.5 4.375-7.218-1.5 10.593-3.75zm19.157.125l-.032 1.625-.937 1.125-.563-.594 1.532-2.156zM41.53 85.344l-.875 3.375 1.813-.375-4.188 2.187-5.531-1.156 8.781-4.031zm7.719.375l1.063.781-7.063.813 6-1.594zm40.5.531l-.844 4.625-5.094.344-1.562-.719L84 86.875l1.125.313-.031.062 4.656-1zm.594 0l1.125 5.313L89.438 91l.906-4.75zm-39.875.469l-7.875 4.687-4.063-.844 5.094-2.437 6.844-1.406zM22.03 87.5l33.094 7.063-4.031 1.468-31.313-7.656 2.25-.875zm93.344.813l-.844 2-.75-.126-2.781 6.5 2.219-1.124.719 2.062c-.117-.049-.227-.109-.344-.156-1.338-.517-2.495-.437-3.719.156-.325.432-.53.754-.625 1.063a1.314 1.314 0 00-.063.562c.002.013-.001.018 0 .031l-.03.281-3.594-2.593-2.282 1-1.062-.094-.125-.063a10.815 10.815 0 00-2.688 1.97c-3.054 2.009-4.011 4.987-4.156 7.843-.02 8.02 7.645 10.708 14.5 10.75 3.818-.225 7.507-1.748 9.625-5l-.063-.063c.432-.446.868-.897 1.22-1.437l.78-.625-1.25-.969v-2.875l-.218-.062c.072.999-.225 2.071-.969 3.219l-.031-.032c-.138.211-.307.4-.469.594l-1.813-3.063-1.312-2.5-2.594-1.53 1.5 4.156.813.937-1.156.469 2.75 3.125c-1.548 1.008-3.456 1.595-5.282 1.781l-.5-8.531-.312-.125-.344 1.031-1.25 3.688-.438-.75-.062 4.624c-1.718-.225-3.361-.757-4.781-1.593l3.781-4.875.063-.656-2.438 1.28.563-1.624-1.032 2.062 2.563-1.344-3.844 4.97a9.065 9.065 0 01-1.906-1.657c1.187-.853 3.262-3.096 4.219-4.094l.25-.719c-1.547 1.736-3.073 2.97-4.657 4.626-1.054-1.277-1.747-2.883-1.875-4.844a7.722 7.722 0 01.688-2.75l5.844 2.594 1.343-.094 1.125-.719-.781-1-5.813-3.25a8.592 8.592 0 012-1.531c1.77-.398 3.635.16 5.47.406l-.188 2.031c.847 1.084 1.168 2.564 6.625 1.688l.594-3.344c.08-.202.122-.387.156-.625-.016-.028-.015-.067-.031-.094-.543-.86-1.429-1.274-2.344-1.656l2.25-5.563-.844-3.75zm-95.906.187l31 7.781-5.907 2.156-31.25-7.53L19.47 88.5zm47.281.563l.813.906-11.72 4.312-1.062-.469 11.969-4.75zm48.469.593l.562 2.25-1.625 4.875-.812-1.719-1.531.782 2.218-4.781.625.062.563-1.469zm-102.25 1.375l31.218 7.531-4.937 1.813-32.219-7 5.938-2.344zm54.312.094l-.125 4.75-24.094 8.781-3-3.844 27.22-9.687zM7.97 94.438l31.343 6.812 2.75 3.375-31.468-6.781-2.625-3.406zM120.375 95l-3.938 2.594.907 1.125-.344 1.125 6-1.219-1.719-1.125.813-1.063L120.375 95zm-.063.5l1.126 1.063-.72.968 1.376.906-4.406.844.28-.562-.812-1.125 3.156-2.094zm-25.593.25c2.508.825 2.258 3.629 1.281 5.625l-22.844.344-.906-.469v-4.875l22.469-.625zm-27.563.531v.063l4.406-.063.032 3.594-25.156 9.063-3.188-4.063 23.906-8.594zm27.531.094l-.28.188c-.986 1.412-1.754 2.837-.188 4.25l.469-.188c-.942-1.57-.431-2.91 0-4.25zm10.876.875l2.687 1.844c-1.698-.33-3.444-.711-4.813-.219v.031c-3.176 1.681-4.335 4.209-4.468 6.844-.018 6.792 6.163 9.245 11.969 9.281 3.19-.188 6.257-1.478 8.062-4.156l.75-1.281.125.937.719.469-.281.656-.094-.094c-1.908 2.93-5.942 4.57-9.531 4.782-6.424.169-13.101-3.046-13.563-10.156.14-2.757 1.882-6.207 5.313-8.063l1.093.125 2.031-1zm6.25.375c.648.026 1.315.118 1.78.219 5.134 2.707-.805 4.503-3.437 2.5-.288-.2-.433-.386-.531-.594l.031-1h-.031c.114-.296.306-.572.469-.844.446-.239 1.07-.307 1.719-.281zm-.25.438c-.338.044-.57.206-.782.406-.253.239-.464.553-.687.937.43.74 1.203.971 1.969 1.25 1.364.382 1.97.137 2.78-.875-.211-.964-1.094-1.18-1.937-1.531-.56-.168-1.006-.232-1.344-.188zm-100.688.124l31.469 6.782 3.062 3.812-31.687-6.906-2.844-3.688zm101.344.157c.912-.064 1.897.333 2.469 1.406-.365.678-1.867 1.005-2.407.563-.463-.12-1.677-.797-1.906-.97.098-.155.23-.282.375-.406a2.615 2.615 0 011.469-.593zm-40.625 1.844l.031 1.53 2.406 1.032-24.812 9.719-2.532-3.219 24.907-9.063zm38 .187c.016.035.014.058.031.094 1.468 1.521 4.433 1.816 5.906.5l-.437 1.719c-1.797.522-5.337.785-5.594-1.126l.094-1.187zm-11.125.5c-1.108 1.543-1.629 3.28-1.719 5.063-.02 8.019 7.302 10.895 14.156 10.937 2.339-.138 4.621-.79 6.531-2-2.114 1.794-5.139 2.805-7.906 2.969-6.423.169-13.257-2.609-13.719-9.719.115-2.266.594-5.232 2.657-7.25zm2.812.313l6.125 3.406-.281.906-1.25-.219-5.656-2.562a8.911 8.911 0 011.062-1.531zM14 102.218l31.719 6.938 2.218 2.719-31.468-6.438L14 102.22zm99.031 2.25l2.031 1.407 1.313 2.375 1.75 3.156a8.226 8.226 0 01-1.344 1.156l-2.5-2.906.969-.375-.719-1.187-1.5-3.625zm-2.531 2.22l.219 7.874c-.66.015-1.345.008-2-.062l-.125-3.719.5.406 1.406-4.5z" fill="#5c2700"/>
</svg>
