<?xml version="1.0" encoding="UTF-8"?>
<svg width="128" height="128" version="1.0" xmlns="http://www.w3.org/2000/svg" xmlns:xlink="http://www.w3.org/1999/xlink">
 <g fill-rule="evenodd">
  <path d="M52.375.688l-.313.062-.312 3.188-11.094 25-12.843-7.907L8.968 45.22l-.063 10.593-2.312 1.47-.219 35.406 24.156 17.53 11.375-6.906.032 15.25 12.343 8.813 13.657-5.906.218-.75 41.438-16.031.219.656 14.218-6.094V44.875l-13.344-31-.374-3.25-.313.063-.313 3.187c-4.012 9.044-8.25 18.549-11.843 28l.031 22.188-.844-.532.156-24.625-13.374-21.468-11.344 4.25-9.688 4.78L52.72 3.75 52.375.687zm0 3.25h.063l12.687 30.468-8.813 4.625L55 36.063l-.375-3.25-.313.062L54 36.063 51.875 41l.5-37.063zm-.25.03l-.813 37.25-11.124-9.437L52.124 3.97zm-2.219 6.47l-2.625 6.874.375.188 2.563-6.938-.313-.124zm3.75.312l-.375.031L58.5 24.656l-2.063.594-.78-2.906-.282.062.781 2.907-2.5.718-.125-9.218-.312.062.218 9.219-.374.125.03.406.376-.094.062 3h.188l-.032-3.062 2.594-.782 2.469 9.063-2.469.906.125.344 2.407-.969.28 1 .282-.125-.281-.968 1.718-.688V34l-1.78.656-2.47-9.031L58.626 25l3.313 8.781.25.032-3.282-8.876 1.219-.375-.344-.28-1 .28-5.125-13.812zm56.688 3.625l13 30.656-13.406 6.594.406-37.25zm-.375.219l-.688 37.062-10.812-9.875 11.5-27.187zM50.125 16.78l-.5 4.282-3.375-1.313-.25.063 3.594 1.593-.407 3.375h.438l.313-3.218.812.375-.125-.5-.656-.25.406-4.407h-.25zm33.438 1L63.436 27.844l-.78-.657 9.75-4.968 11.156-4.438zm.124.563l12.626 21.031L76.436 50.25l-9.468-5.906-.938-10.313-2.375-5.437 20.032-10.25zm28.157.125l-.125.125 5.312 16.375h.188l-5.375-16.5zm-2.969.5l-.844 22.718L106 39.97c.261-.925.511-1.86.781-2.782h-.125a93.853 93.853 0 01-.844 2.626l-2.937-2.532 4.031-9.906-.25-.063-4 9.782-.844-.719-.124.375.843.688-1 2.437.25.125.969-2.375 2.969 2.438c-.4 1.201-.787 2.397-1.125 3.687l.312.188c.32-1.246.652-2.481 1-3.72l2.094 1.75-.125 3.563.375.063.125-3.344.438.375.062-.188-.5-.437.75-23.031h-.25zm-81 2.5l12.375 8.406-.938 1.5.5 9.781-7.624 2.625-.032.032h-.031L18.25 50.75l-8.344-5.5 17.969-23.781zm53.25.093l-.313.063 5.282 8.031-5.188 2.657.25.25 5.125-2.594 3.563 5.406-10.688 5.031-5.375-9.75c2.263-.923 4.523-1.877 6.781-2.812v-.125c-2.335.855-4.702 1.644-7.03 2.5l-.157-.313-.438.125.188.313c-2.043.76-4.045 1.599-5.969 2.625l.125.25a286.725 286.725 0 006.094-2.407l5.469 9.75-7.406 3.47.374.124 7.157-3.375 1.406 2.5.25-.187-1.344-2.438L90 35.625l.875 1.313.188-.188-.813-1.25.875-.406-.125-.25-.906.437-3.563-5.437 1.938-.969-.188-.313-1.937.97-5.219-7.97zm-35.281 2.125l-2.438 6.063-1.187-.938-.188.063 1.313 1.094-.625 1.531.125.188.656-1.594 4.906 4.093-.781 3.126.188.187.78-3.156L49.97 35.5l.25-.375-1.532-1.188.813-3.25-.25.063-.75 3.031-4.938-3.906 2.532-6.188h-.25zm65.281.313c.117 4.834-.067 9.73.063 14.563l.5.124c-.132-4.833-.068-9.854-.188-14.687h-.375zm-82.781 1.219c-.815 1.164-1.646 2.327-2.469 3.5l-.781-.5-.25.062.937.594c-3.749 5.34-7.593 10.716-11.593 15.656l.312.25c4.39-4.998 7.833-10.303 11.5-15.718l8.594 5.593-3.875 5.032.375.062 3.781-4.906 2.281 1.5.25-.25-2.343-1.5 2.218-2.844-.187-.313-2.313 2.97-8.656-5.532a263.56 263.56 0 012.344-3.406l-.125-.25zm12.031 7.531l10.813 9.688-2.344 5.25-5.157-7.47-2.906.626-.406-8.094zm25.25 2.563l.438 8.468-5.22-3.25-2.593 2.844-1.688-3.813 9.063-4.25zm-37.75.593a116.412 116.412 0 01-2.656 3.125l-1.407-1.062-.375.062 1.594 1.188c-2.11 2.393-4.255 4.768-6.125 7.343l.188.063c1.863-2.376 3.993-4.83 6.125-7.25l4.218 3.156.125-.187-4.156-3.157c.894-1.013 1.8-2.052 2.657-3.03l-.188-.25zm26.469.157L53.5 73.75l-10.813-9.844 11.657-27.843zm.375.218l12.843 30.875L54.5 73.281l.219-37zm62.468 2.625l-.25.25 2.313 4.407-7.688 3.78.126-4.843h-.313l-.094 4.969-.312.156-.125.313.437-.22L111.25 49l.25.063.031-1.47 7.875-3.718.781 1.469.25-.313-.687-1.312.844-.407-.188-.312-.844.406-2.374-4.5zm-20.53 1.375L96.5 63.188l-6.125-4.094c.74-.307 1.5-.565 2.25-.844v-.031h.063l.03-8.594-3.03-2.688-2.407 4.688-.375 5.406-9.937-6.343L96.656 40.28zm-53.844.407L17.125 53.156l-9.219 3.907 24.532-13 1.53-.5a107.543 107.543 0 00-3.28 1.687l-.625.125-.125.188.25-.032c-3.664 1.975-7.094 3.99-11.032 5.875l.375.313c4.235-2.003 7.765-4.186 11.657-6.344L33.813 45l.437-.375-2.469.438c.842-.462 1.67-.918 2.563-1.376l-.219-.156 8.688-2.843zm.687.218l5.031 7.5-6.593 14.813-.126 7.25-10.218 5L17.844 53.5 43.5 40.906zm17.281.25l25.875 16.157L68.25 80V67l-9.594-22.594 2.125-3.25zm37.625 1.657l10.531 9.437.126 19.344-10.376-6.969-.28-21.813zm-46.625 1.124l-1.812 4.407-.25-.094-.188.188.344.156-3.813 9.187-.28-.218-.188.187.375.281-1.563 3.782.375.312 1.532-3.844 1.656 1.219-.688 1.813.438.374.687-1.874 2.657 1.968-.75 5.907.437.124.688-5.78 1.218.906-.062-.313-1.125-.844 1.031-8.843-.313.124-1.093 8.438-2.594-1.938 1.094-3-.438-.25-1.093 2.938-1.626-1.219 3.75-9.281 1.22.563.187-.313-1.313-.531 1.75-4.344-.25-.188zm-10.187.094l-.25.125 1.937 3-9.937 4.625-1.157-2.25-.374.313 1.125 2.125-3.657 1.687.313.188 3.5-1.625 2.937 5.468c-1.453.666-2.943 1.266-4.531 1.688l-.625.375c1.802-.51 3.533-1.163 5.25-1.875l2.938 5.469.25-.063-2.876-5.531c2.857-1.203 5.643-2.594 8.407-3.938l-.188-.312c-2.895 1.2-5.536 2.766-8.312 4.063l-2.875-5.532 9.968-4.656 2.032 3.156.312-.312-2.031-3 1.594-.75-.188-.188-1.562.719-2-2.969zM57 44.5l-.188.25c1.293 6.926 4.482 13.222 7.126 19.719l-6.032 2.406-1.468-8.219-.313-.062 1.5 8.406-1.188.469v.25l1.22-.5.343 1.875h.313l-.344-1.969 6.062-2.406c.208.513.426 1.015.625 1.531l.188-.063-.594-1.53 1.063-.438v-.313l-1.188.469C61.584 57.809 59.033 51.245 57 44.5zm4 .563l-.188.312c.93.558 7.425 4.666 11.75 7.406l-2.53 3.438c-.597-.344-1.575-.917-1.782-1.032l-.25.188c.195.108 1.248.703 1.875 1.063l-1.656 2.28.25.188 1.625-2.312c1.968 1.13 3.584 2.031 5.531 3.156l-5.375 6.188.375.062 5.219-6.094c.816.472 2.469 1.407 2.469 1.407l.062-.25s-1.607-.928-2.375-1.376l2.625-3.062-.125-.188-2.719 3.126c-1.906-1.111-3.567-2.085-5.531-3.22l2.438-3.5c1.606 1.018 4.062 2.594 4.062 2.594l.188-.187s-2.483-1.59-4.094-2.625l.812-1.156-.062-.125-.875 1.218c-4.344-2.787-10.85-6.978-11.719-7.5zm-51.281.468l7.562 5.719-7.437 4.031-.125-9.75zm113.75.063l-.125 53.156-13.156 5.563-.5-51.75 13.78-6.97zm-33.5 1.937l2.25 2.532.125 7.687c-.362.131-1.648.576-2.563.938l-2.25-1.47.375-5.343 2.063-4.344zM17.313 53.75l13.156 21.813v33.406l-7.969-5.813.094-14.312-5.25-12.719-6.563 5.563-.469 13.062-3.468-2.156.25-34.719 10.218-4.125zm5.25.063l-.25.062L30.5 67.344c-.27.082-.544.174-.813.25l-.062.281c.346-.095.687-.21 1.031-.313l2.157 3.563.25-.063-2.188-3.562c2.585-.78 5.117-1.74 7.656-2.656l-.125-.25c-2.498.851-5.098 1.864-7.656 2.656l-8.188-13.438zm94.406 2.406l-2.938 6.593L114 75.094c2.212-.99 4.413-1.98 6.625-2.969V59.937l-3.656-3.718zm.187 1l2.938 3.187V71.72c-1.563.68-3.855 1.639-5.406 2.344l-.188-10.844 2.656-6zm-30.125.343l22.031 15.22.282 30.874-12.5 5.219V88.844L88.375 80.5l-6.969 12.813-.062 21.562-13.094 5.188V81.124l18.781-23.563zM16.72 62.22c-1.966.23-2.69 2.864-2.875 4.937 0 3.665 1.916 7.612 4.344 8.75 2.427 1.138 4.375-1.023 4.375-4.687 0-3.665-1.948-7.612-4.375-8.75-.388-.147-.738-.234-1.063-.25-.142-.007-.275-.016-.406 0zm.625.75c.042-.003.082 0 .125 0l.125 3.312c-.587.435-.899.977-.969 1.625l-2.219-1.219c.18-1.871 1.22-3.618 2.938-3.718zm.531.062c.099.014.21.007.313.032 1.296.607 2.598 2.642 3.312 4.843l-2.094.063c-.03-.654-.274-1.24-1.218-1.781l-.313-3.157zm24.656 1.344l10.657 10.563.5 51.218-11.25-8 .093-53.781zm45.563.594c-2.786.543-4.969 4.01-4.969 7.656 0 3.645 2.183 6.231 4.969 5.688 2.786-.544 4.969-4.011 4.969-7.657-.081-3.46-1.66-5.434-4.97-5.687zm-.063.5c.216-.01.396-.022.594 0-.018 1.07-.233 2.431-.219 3.469-.076-.019-.137-.046-.219-.063-.78.185-1.166.43-1.437.781l-1.813-1.625c.833-1.343 1.952-2.34 3.094-2.562zm1.156.125c1.544.42 2.467 1.828 2.97 3.406l-2 1.125c-.164-.517-.594-.826-1.282-1.063.01-1.024.284-2.42.313-3.468zm-71.25 1c.901.985.954 2.267 1.063 3.531.116.73-.265 1.336-.5 1.938-.618-.686-.993-1.763-1.344-2.657-.254-1.025.02-1.902.782-2.812zm-3.562.562l2.25 1.281c.01.367.047.77.125 1.188.042.222.08.414.125.625l-1.5 1.5c-.592-1.42-1-3.01-1-4.406 0-.062-.001-.126 0-.188zm52.969.781L67.813 121l-13.376 5.5-.406-52.188 13.313-6.374zm-45.719.344c.265.921.438 1.874.438 2.75 0 .945-.196 1.78-.5 2.5l-2.157-2.375c.012-.31.002-.665.032-1.094-.101-.623-.02-1.172 0-1.687l2.187-.094zm63 .313l1.813 1.531c-.145.321-.267.742-.47 1.219-.137.675-.191 1.306-.062 1.875l-1.969 1.187c-.196-.62-.343-1.273-.343-1.969 0-1.318.416-2.671 1.031-3.843zm3.563.781c1.48.193 1.487 1.19 1.468 2.469-.249 1.398-.917 2.064-2.094 2.625-1.034-.706-1.291-1.881-1.062-3 .19-1.156.82-1.579 1.688-2.094zm4.093.094c.12.46.23.92.281 1.375 0 .97-.23 1.95-.593 2.875l-2.063-1.094c.074-.202.135-.4.219-.625.083-.518.145-.949.125-1.313l2.031-1.218zm-75.25 1.344c.195.676.46 1.217 1.063 1.5l-.375 2.843c-.766-.57-1.478-1.584-2.063-2.812l1.375-1.531zm24.782.718l.093 30.625-10.812 7.125.375-33.219 10.343-4.53zm-22.47.063l2 2.469c-.691 1.231-1.798 1.868-2.905 1.5l.25-3.157c.394-.238.576-.52.656-.812zm70.376 1.469l2.062 1.187c-.692 1.484-1.775 2.719-2.906 3.281l-.844-2.687c.986-.26 1.335-.875 1.688-1.781zm-3.625.624c.223.467.585.91 1.219 1.282.135-.012.255-.043.374-.063l.532 2.875c-.04.01-.086.024-.125.031-1.535.3-3.06-.907-3.875-2.687l1.875-1.438zm-25.125 3.157l-2.938 6.625L58 95.75c2.212-.99 4.413-2.01 6.625-3V80.562l-3.656-3.718zm-22.625.062l-2.407 4.688-.062 8.687c1.805-.676 3.596-1.398 5.406-2.062v-.031h.063l.031-8.594-3.031-2.688zM17.125 77l4.906 11.969-.093 13.781-.563-.406V89.313l-4.438-11.594-4.968 4.594-.344 13.25-.844-.532.5-12.781L17.125 77zm30.719.219l-3.438 3.937-.125 11.438 6.594 2.937L50.906 84l-3.062-6.781zm-9.219.281l2.313 2.594.124 7.812c-.546.199-3.19 1.217-4.874 1.875l.312-7.875 2.125-4.406zm9.25.25l2.5 6.375.031 10.625-5.812-2.5.25-10.969 3.031-3.531zm13.281.156l2.907 2.938v11.469c-1.563.68-3.98 1.982-5.532 2.687L58.5 83.687l2.656-5.78zm-44.75.813l-.375 20.031-3.843-2.719.343-13.5 3.875-3.812zm.375.187l3.938 10.625-.063 12.5-3.968-2.812.093-20.313zm71.656 2.375l7.938 7.75-.094 20.063-.469.219v-20.47l-7.156-6.53-6.031 11.718-.063 20.375-.75.281.094-21.218 6.531-12.188zm.376 1.75l6.406 6.219-.063 20.313-6.187 2.374-.156-28.906zm-.282.563l.063 28.5-5.531 2.125.218-19.875 5.25-10.75z" fill="#5c2700"/>
  <path d="M13.313 83.656l-.282-.062 2.594 3.375.094-.344-2.406-2.969zM13.063 86.594l-.157.187 2.219 3.938.469-.063-2.531-4.062zM12.781 89.938l-.219.093 2.97 4.406.218-.187-2.969-4.313zM12.875 94.219l-.156.219 2.469 2.874.156-.093-2.469-3zM14.313 81.281l-.094.031 1.375 2.25.187-.156-1.469-2.125zM17 83.875l.063.188 1.406-.813-.438-.125-1.031.75zM18.969 86.188l-1.844.78v.282l2-.844-.156-.219zM20.125 89.969l-2.938.687.157.344 2.843-.688-.062-.343zM19.938 93.313l-2.875.906.156.25 2.937-.906-.218-.25zM20.219 97.219l-3.125 1.219v.25L20.28 97.5l-.062-.281zM94.75 89.813l-4.875 4.812.281.156 4.688-4.687-.094-.281zM94.5 93.75l-4.781 4.781.344.25 4.593-4.844-.156-.187zM94.781 100.844l-5.031 5.844.281.28 4.813-5.843-.063-.281zM94.313 106.75c-1.567.914-2.49 2.48-3.626 3.875l.313.188c.931-1.338 2.288-3 3.531-4.032l-.219-.031zM91.844 86.563l-2.406 2.656.28.187L92 86.687l-.156-.124zM86.406 88.938l-.281.03 2.063.876.093-.125-1.875-.781zM84.469 93.125l-.063.313 3.656 1.218.188-.312-3.781-1.219zM83.969 97.406l-.063.313 4.188 1.094.125-.344-4.25-1.063zM83.938 106.563l-.25.156 3.78 1 .25-.344-3.78-.813zM83.656 110.625l.125.094 3.719 1.312-.031-.312-3.813-1.094zM84.063 102.563l-.188.156 3.781 1 .125-.281-3.719-.876zM94.656 96.969L89.5 103l.156.094 5.063-5.906-.063-.22z"/>
 </g>
</svg>
