<svg xmlns="http://www.w3.org/2000/svg" xmlns:xlink="http://www.w3.org/1999/xlink" width="128" height="128" version="1.0"><defs><linearGradient id="a"><stop offset="0" stop-color="#b1b1b1"/><stop offset="1" stop-color="#e4e4e4"/></linearGradient><linearGradient xlink:href="#a" id="b" x1="14.184" y1="116.584" x2="52.93" y2="46.184" gradientUnits="userSpaceOnUse"/><linearGradient xlink:href="#a" id="d" x1="13.943" y1="95.067" x2="15.411" y2="91.397" gradientUnits="userSpaceOnUse"/><linearGradient xlink:href="#a" id="e" x1="62.623" y1="103.416" x2="64.886" y2="98.034" gradientUnits="userSpaceOnUse"/><filter id="c"><feGaussianBlur stdDeviation=".342"/></filter></defs><metadata/><g fill-rule="evenodd"><path d="M12.108 65.21l3.46-5.534 3.978-2.768 11.07-3.978 5.708-4.67 6.227-2.768 3.633-2.249 7.61-6.227 4.844-1.557 9.513 3.633 5.017 2.422 7.61.864 5.19 2.076 8.648 2.076 12.627 5.88 3.46 2.768 2.594 5.536 4.498 5.708 1.902 1.21 2.422 3.46c3.59 20.036-8.483 26.232-24.562 28.886.002 5.225-3.664 6.258-6.746 7.957-6.778 2.71-20.207 12.315-37.708-.692-21.335 5.233-40.014 4.786-48.087-18.335-.277-8.508-3.92-17.794 7.092-23.697z" fill="url(#b)"/><path d="M70.75 46.531l-4.355 6.93c-2.328 4.866-2.06 8.868-2.582 13.133 5.77-5.663 11.541-4.436 17.312-.688L71.25 46.344l-.5.187zm8.125-4.375c3.308 5.564 8.442 7.842 13.313 10.594-2.95-2.646-6.09-5.292-5.876-7.938l-5.53-2.437-1.907-.219zm-48.25 10.782l-11.094 3.968-3.968 2.782-3.47 5.53C1.11 71.109 4.74 80.353 5.032 88.845l.344.062 4.313-4.156 5.718-7.438 3.094-6.406 7.969-11.062 4.156-6.907zm71.094-2.782c4.616 5.05 1.838 11.154 2.406 16.782 2.032 4.133-.217 9.872-.5 14.874l2.75-8.812-.344-6.75 4.156-11.406-2.937-2.438-5.531-2.25zM87.688 97.563l1.562 6.75 1.813 3.5c3.002-1.61 6.443-2.743 6.5-7.72l-9.876-2.53zm-39.782 1.03l-2.25 10.22c2.439-.433 4.912-.943 7.438-1.563l-5.188-8.656zm30.407 14.376l-7.22.937c2.582.02 4.995-.368 7.22-.937zM24.34 93.386l-1.468-3.18v-8.195l3.792-5.993 4.525-6.115 2.813-5.137 1.59-4.281 7.217-5.137 2.201.611-7.094 5.993-7.828 15.534-4.647 5.626 1.223 10.519-2.324-.245z" fill-opacity=".157"/><path d="M12 90.094s-3.19.342-3.313 1.687c-.122 1.346 3.78 4.898 5.126 4.531 1.345-.366.878-5.362-1.813-6.218zm38.969 4.5c-.51.063-.91.291-1.063.75-.611 1.834-.48 5.763.375 6.375.856.611 3.788 2.314 5.5.969 1.713-1.346.351-6.36-.75-7.094 0 0-2.531-1.19-4.062-1z" filter="url(#c)" fill-opacity=".507"/><path d="M19.325 91.796l3.792.856 1.1 1.468-.611 2.446-2.324.123-3.425-.612-3.424-.612-2.447-.733-.978-1.101.49-2.446 1.712-1.468s1.223-2.202 2.813-1.1c1.59 1.1 3.424 3.424 3.302 3.18z" fill="url(#d)"/><path d="M54.183 91.43l-2.323 2.812-.857 3.303 1.224 4.158 3.669.734 2.69.612 3.548-.49 4.892 1.468 5.504.979 2.569-.612 2.69-1.468.979-2.446-1.835-4.158-3.547-2.691-2.813.734-3.67 1.223-2.445-.245-4.404-2.69-4.158-1.59-1.713.366z" fill="url(#e)"/></g><path d="M59.375 34.531c-3.977.153-6.578 2.938-9.344 5.313-2.766 2.374-5.729 4.345-9.156 5.312-3.484 1.169-6.217 3.488-8.75 6.063-3.632 1.522-7.936 3.944-12.063 5.218-2.058.726-3.672 2.14-5.218 3.626-1.502 1.647-2.625 3.66-2.625 5.718l.125.125c0-1.688 1.856-3.626 3.25-5.156 1.376-1.51 3.132-3.354 4.656-3.938 3.41-.807 6.536-1.799 9.625-3.406-2.014 2.447-2.565 4.866-4.438 7.438-3.2 4.24-6.399 8.425-8.906 13.125-.854 1.464-3.108 4.774-5.468 7.812-1.733 2.303-3.325 5.26-5.688 6.906l.094.188c2.643-1.498 4.52-4.112 6.375-6.469 2.386-3.072 4.528-6.566 5.437-8.125 1.996-4.77 5.583-8.905 8.594-13.187 4.412-6.06 8.103-12.239 15.219-14.813 3.637-1.056 6.483-3.797 9.281-6.218 3.224-2.823 6.977-4.992 11.031-2.47 2.136.54 3.92.446 4.938 2.532 1.565 1.72 2.931 3.587 4.156 5.531.115.183-3.083 3.854-4.75 8.907-1.766 5.35-2.025 12.086-1.906 12.28.07.116.363-3.69.968-6.812.079-.403 1.752 2.629 1.844 2.219.068-.3-1.544-2.984-1.469-3.281.333-1.301.707-2.618 1.188-3.813 1.903-4.728 4.739-8.655 4.844-8.468 2.058 3.653 4.373 8.767 6.094 12.593h.03v.032c6.467 10.946 9.551 22.072 9.47 34.75.281 4.395 2.061 10.478 4.093 14.343l.594-.469c-1.517-1.834-3.166-6.322-3.219-9.437-.005-.284 1.723.285 4.813 1 .333.077-.457 4.267-.125 4.344.831.192.789-4.258 1.531-4.094 1.897.42 3.301.69 3.281.5-.077-.74-5.984-1.344-9.531-3.125-1.001-.503-.411-2.878-.438-3.063.349-12.701-4.136-23.995-10-34.968-2.828-6.95-5.846-13.68-10.624-19.469 1.623.58 3.2 1.267 4.812 1.875 4.664.25 9.048 1.397 13.375 3.031.2.022 1.298 3.234 4.125 6.094 4.5 4.553 11.468 9.575 11.781 9.625.278.044-7.376-5.445-11.344-9.969-2.206-2.515-3.12-5.468-2.968-5.437 7.523 1.513 15.473 5.683 22 9.656-.233 1.396-.876 3.667-1.531 6.094-.677 2.507-1.37 5.153-1.532 7.25.477 4.702-.898 9.232-2.094 13.719l.22.062c1.117-4.47 3.42-8.839 2.874-13.688.15-1.947.827-4.568 1.5-7.062.591-2.19 1.36-3.429 1.656-4.938 1.294 1.253 1.776 2.138 2.438 3.782.641 1.662 1.302 3.41 2.75 4.968a38.804 38.804 0 013 2.344c.331.287-.911 4.73-.594 5.031.255.242 1.194-4.813 1.438-4.562.81.834 2.446 2.87 3.094 3.813l.218-.157c-1.716-2.785-3.766-5.126-6.437-7.125-1.246-1.318-1.912-2.996-2.563-4.656-.641-1.664-1.304-3.407-2.75-4.906-7.27-5.798-15.998-8.382-24.906-10.375-4.542-2.047-9.44-2.977-14.313-3.844-2.676-.98-5.088-2.398-7.437-4l-4.625-1.719zm-5.344 12.375c-1.428 1.405-2.154 3.62-3.843 4.313-.213.493-2.666 3.37-3.282 2.781-.926-.886-.138-5.484-.75-5 .403 1.62-.662 6.157-1.281 7.094-.722-.527-1.274-.73-2.469-.719a14.518 14.518 0 01-4.718 3.313c-2.175.995-3.098 3.006-3.876 5.156C31.582 70.326 26.197 74.99 23 81.25c-.061.12-1.043.118-2.219.094-.23-.005-.54-2.4-.781-2.406-.327-.009.199 2.382-.125 2.374-1.372-.033-3.374-.044-3.438.094-.016.331 6.232.573 6.22.906-.073 1.933-.259 4.781-.25 6.72.056 1.23.225 2.417.624 3.406-1.148-.595-2.478-1.042-3.312-1.313-.856-1.432-2.106-2.531-3.532-2.875-3.346-.212-5.142 2.215-5.218 5.094.9 2.38 3.996 2.53 6.187 3.312 1.684.66 3.644.435 5.469.375 1.197-.216 1.807-1.047 2.531-1.937.046-.188-.065-.818-.093-1 2.21-.594 4.612.026 6.875.469 1.992.62 3.954 1.73 6.03 2.78l9.594 1.407 1.25 2.125-1.437 2.875 1.75-2.563 4.344 6.344c.048-.105-.973-2.064-1.813-3.719-.126-.248 2.226.197 2.094-.062-.11-.214-2.303-.546-2.438-.75-1.214-1.834-2.494-4.451-2.437-4.969.71-6.396 1.465-12.062 1.125-18.062.89-6.509-.65-12.786-2.5-18.969-.2-1.36-.322-1.033-.938-2.281-.051-.91.853-3.317 1.626-3.907.424-.307.43-1.067.843-1.437 5.445.952 11.218-.62 15.969-3.469l-.594-.187c-4.085 2.997-9.99 3.621-14.156 3.25.27-.336.522-.7.719-1.125H51c.02-.045.043-.08.063-.125.604-.83 1.125-1.763 1.624-2.5l1.344-2.313zm-10.625 8.75l.688.688c-2.154 1.902-4.22 3.848-6.688 5.593-1.004 1.322-1.442 2.832-1.968 4.313C31.591 71.125 28.3 77.384 24.75 83c.436 3.437-.189 6.609 1.438 10.344l-1.188.25-1.928-4.408.303-6.78 11.188-18.031c1.032-1.735 1.305-3.687 3.374-5.125l5.47-3.594zM15.094 89.125c1.837.055 2.87 1.316 3.906 2.688 1.984 1.122 7.281 2.269 3.469 4.218-1.704.014-3.799.242-4.907-.312H17.5c-2.015-.628-5.056-.437-6.188-2.219-.05-1.869 1.932-3.866 3.782-4.375zm39.937 1.563a9.092 9.092 0 00-.906.03c-4.067 3.146-3.785 6.837-1.813 11.157 2.23 1.286 5.016 1.519 7.563 1.688h.094c2.65-.62 4.29-.188 6.031.437 1.742.625 2.82 1.17 5.563 1.219 5.292-.821 8.55-2.666 6.53-8.031-1.528-2.124-2.684-3.16-4.124-3.626-1.44-.464-5.21 1.925-7.688 1.938-4.388-1.433-6.877-4.76-11.25-4.813zm.219.968c4.233-.119 6.73 3.087 10.969 4.313 1.16.037 4.483-1.745 5.656-1.719-2.444 1.699-1.886 3.507-10.125 5.844l.125.125c4.34-.482 8.991-4.101 11.781-5.719 1.174.38 2.143 1.222 3.625 3.281 2.67 3.993-.492 6.46-4.375 6.875-2.11.006-4.618-.874-6.562-1.594-1.769-.634-3.7-1.084-6.469-.468-2.39-.088-4.784-.835-7.219-.969-2.524-3.564-1.211-7.045 1.719-9.906.299-.04.593-.055.875-.063z" fill-rule="evenodd"/></svg>