<?xml version="1.0" encoding="UTF-8"?>
<svg width="128" height="128" version="1.0" xmlns="http://www.w3.org/2000/svg" xmlns:xlink="http://www.w3.org/1999/xlink">
 <path d="M64.072 8.957c-1.08 6.608-.422 13.216-.447 19.824-2.929.188-5.852-.63-8.781-.937-7.387 3.74-15.94 5.896-24.969 7.406-3.14 6.053-10.272 9.677-15.844 14.25.267 1.318-.901 3.323-1.812 5.125-.75 1.648-1.37 3.318-1.25 5.25-.975 2.34-2.644 4.13-4.156 5.531.14 6.771.323 13.84-1.657 20.375 7.631 6.845 9.477 19.078 10.313 25.625 8.248.67 17.974 7.251 27.187 11.781 6.68-2.427 19.964-1.512 36.157.876 10.005-7.123 15.969-21.249 19.406-33.907.513 8.9.636 14.612 1.469 23.938 2.487 2.893 4.056 1.475 5.593.25-.994-8.756-1.85-18.358-2.625-27.281 3.017 2.106 10.394 4.67 21.063 5.312-.998-8.077-1.884-16.277-.281-24.469-1.238-2.281-2.187-4.915-2.344-7.562-1.316-1.513-2.067-4.595-3.031-6.813.094-1.396-1.121-2.977-1.97-4.187-2.054-2.707-5.932-5.775-10.343-9.875l-.25-.375C95.307 35.632 89.768 32.357 82.187 29c-8.836.594-10.571.786-17.312-.156l.5-9.813c17.81-3.406 24.583 1.181 29.228-5.74-9.078 2.328-19.36-1.362-29.072-2.197L64.72 9.31l-.647-.354zm.71 3.074c9.359-.167 18.877 3.557 28.625 2.244-4.58 5.099-19.358 2.066-29.036 4.027-.283-1.94-1.226-3.69.41-6.27zM55.25 28.375c2.804.317 5.29.621 8.438.938l.03 1.812-.312.125c-2.455.246-5.779-1.27-8.156-2.875zm-.438.188c2.313 1.888 5.92 2.852 8.19 3.343-4.769.466-9.3 2.028-14.044 2.713-6.524 1.412-12.138 1.777-17.864.819 9.263-1.716 16.989-4.354 23.718-6.876zm10 .812c5.51.437 10.72.602 17.063.094-4.487 1.322-11.257 1.925-15.813 2.062l-.718.032c-.052.001-.104-.002-.156 0a1.797 1.797 0 01-.344-.282l-.094.032.063-1.938zm17.844.031c7.007 3.274 13.434 7.038 22.406 9.875-6.226 1.109-12.925-.744-19.062-1.906-6.817-1.266-13.54-2.919-20.024-5.374 4.987-.083 11.7-.881 16.68-2.595zm-18.875 3.157c-.014.13.032.158 0 .312-2.842 8.942-10.791 19.064-17.36 27.552-5.806 7.712-12.897 16.278-21.577 21.604-3.76-4.924-6.499-11.059-11.578-15.103 22.875-6.707 36.47-20.265 50.515-34.365zm-.33-.458C49.83 46.08 35.617 60.387 13.062 66.344c.895-5.25 1.6-11.119 1.912-16.369 8.678-2.683 17.567-5.01 26.036-8.283 10.119-3.92 19.4-8.373 22.44-9.587zm2.13.158c6.227 3.5 13.13 4.149 20.055 5.55 6.637 1.024 15.665 3.422 19.77 1.906 3.218 4.95 6.55 10.602 11.102 14.996.203.196-.474.83-.263 1.018-8.27-.9-17.39-5.488-25.114-8.687-8.547-4.07-18.503-8.205-25.55-14.783zm-3.085-.11c-4.532 1.791-14.94 6.545-21.388 9.043-8.179 3.095-17.077 5.543-25.42 8.179 4.916-4.326 10.861-8.86 14.624-13.5 5.924 1.552 12.335.353 18.594-.906 3.038-.425 11.07-2.385 13.59-2.815zm1.749.43c1.332 9.986-9.713 39.88-17.616 58.781-6.631-2.986-13.729-7.428-21.097-8.942 8.325-5.642 15.147-13.815 21.405-21.578 6.03-8.909 14.427-17.598 17.308-28.262zm1.501.431c1.627 3.948 4.71 6.76 7.754 9.642 4.686 4.372 10.806 9.368 16.875 14 7.487 5.44 15.295 11.34 23.468 15.75l-14.78 12.906-.953.65c-5.893-7.956-11.437-16.602-17.052-24.76-5.82-8.993-13.154-20.733-15.312-28.188zm-.438.105c3.322 10.323 9.52 19.314 15.348 28.35 5.44 8.352 11.014 16.62 17 24.593-7.562 1.413-15.478 4.466-23.04 6.984-.784-2.567-1.463-5.48-1.99-8.109-3.155-16.35-5.65-35.254-7.318-51.818zm.67-.197c6.938 6.958 16.49 10.906 25.366 14.766 8.07 2.847 16.004 7.478 24.656 8.343-2.063 4.815-1.523 10.59-2 15.828-8.18-4.428-15.796-9.895-23.208-15.485-6.051-4.62-12.754-9.837-17.4-14.171-2.214-2.066-6.024-7.616-7.413-9.28zm-1.01.67c1.63 15.75 4.336 35.97 7.22 51.533.526 2.666 1.05 5.337 1.843 7.938-9-1.131-18-1.137-27-1.376 7.456-17.842 16.37-40.383 17.938-58.096zm41.47 6.97c4.015 3.694 7.764 6.935 9.593 9.344 1.236 1.224 1.154 3.095.938 4.469-4.689-3.983-7.44-8.984-10.531-13.813zm-92 10.344C14.396 56 13.5 61.095 12.53 66.188c-2.806-4.295.036-11.442 1.906-15.282zm103.468 3.313c.774 2.253 1.539 4.421 2.781 6.468-.213 1.876.263 3.612.97 5.313-1.045-1.588-1.79-3.634-2.657-5.406-.472-1.923-.364-3.927-1.531-5.75.192-.202.341-.405.437-.625zM114.5 72.406c.195-5.365-.116-12.976 2.531-17.562 2.066 5.884 1.95 12.535-2.531 17.562zM119.031 62c1.109 1.593 2.087 5.17 3.406 6.094-1.151 6.941-.505 14.382.438 21.906-3.657-5.208-6.9-10.96-8.125-17 3.142-2.493 4.247-7.19 4.281-11zm-108.75.281l1.938 4.188c.716 6.687-3.075 12.975-6.188 18.687 1.119-5.68 2.996-14.623 1.375-19.719.998-.994 2.153-1.807 2.875-3.156zm2.844 5.625c4.396 4.367 8.297 9.184 11.281 14.844-5.99-3.503-9.59-8.123-11.281-14.844zm-.281.781c.952 6.605 6.254 10.954 11.344 14.22-.41 8.967-5.186 19.195-8.344 27.937-.655-8.033-3.525-18.058-9.5-25.031 3.224-4.816 5.51-11.397 6.5-17.126zm101 4.47c-1.257 6.746-6.159 11.802-13.688 11.968 4.297-3.628 9.64-9.03 13.688-11.969zm.5.75c1.621 6.175 4.74 11.674 7.5 16.312-4.749-2.132-7.044-4.365-7.688-9.781l-.406-.032c-1.626 5.108-6.17 5.429-10.719 5.094 6.622-1.915 9.577-6.66 11.313-11.594zm-.406 7.156c.397 6.689 3.62 7.689 8.843 9.968.222.117.278.84.438.938-6.628.085-15.425-2.278-20.75-5.344-.252-.145.265-.85 0-.969 5.497 1.02 9.18.18 11.469-4.594zm-88.844 2.124c7.547.85 14.127 5.359 20.812 8.688-8.799 3.27-15.947-1.96-20.812-8.688zm-.344.094c4.71 6.979 13.528 13.224 21.438 8.875.224 9.698-2.266 20.953-3.876 30.406-7.786-4.616-16.954-9.176-25.968-11.75 2.973-8.508 7.519-18.566 8.406-27.53zM100 85.625c.803-.075 1.485.214 2 .438 0 0 2.666 27.064 2.625 27.562-.234 2.835-4.46 1.093-4.375.25L98.437 86.25c.552-.41 1.081-.58 1.563-.625zm-1.906 1.219c-4.71 7.865-12.775 10.286-22.469 6.594 7.329-2.835 14.987-5.878 22.469-6.594zm.125.969c-1.992 13.174-9.159 26.133-19.031 35.593.875-6.297 2.509-14.836.437-20.937 6.893-2.924 13.804-8.938 18.594-14.656zm-44.906 4.312c7.052.005 14.328.508 21.187 1.375-.01.355-.435 1.049-.438 1.406-9.264 5.717-19.22 4.58-27.156-2.625 1.12-.05 2.267-.102 3.407-.125.996-.02 1.992-.032 3-.031zm-6.626.281c5.635 7.046 20.965 9.634 27.376 2.813-.461 8.09 2.176 18.97 3.656 28-11.426-.934-23.336-2.457-34.813-.906 1.543-9.05 3.817-20.378 3.782-29.907zm28.376 1.375c5.238 2.3 11.184 2.365 16.374.25-3.396 3.303-7.386 6.144-12.28 8.281 2.384 6.91.588 14.092-.407 21.094-2.14-9.618-5.242-19.899-3.688-29.625z" fill="#5c2700"/>
</svg>
