<?xml version="1.0" encoding="UTF-8"?>
<svg width="128" height="128" version="1.0" xmlns="http://www.w3.org/2000/svg" xmlns:xlink="http://www.w3.org/1999/xlink">
 <path d="M74.656 10.156L55.531 17.5l.125 8.188.157.093-9.532 3.657.125 8.187 8.75 6.406 20.032-8.125v-.531l.718.531 20.031-8.125.063-8.25-9.844-5.562-2.844 1.094-8.656-4.907zm-.094.313l1.22.719-17.876 7.406-1.531-.969 18.188-7.156zm1.282.75l1.656.969-17.844 7.562-1.562-1.031 17.75-7.5zm1.75 1l1.844 1.094-17.844 7.656-1.75-1.125 17.75-7.625zm1.969 1.156l2 1.156-18.47 7.406-1.374-.875 17.843-7.687zm6.5.906L87.28 15 84.5 16.156V15.688h-.063l-.78-.438 2.406-.969zm-4.344.344l1.844 1.094-19 7.156L63.187 22l18.532-7.375zm5.625.406L89 16l-4.531 1.938.031-1.688 2.844-1.219zM84 16v1.969l-.906.343-.688-.968-.062-.094-.094-.031-.188-.125-.062.062-.094.032-1.906.656.125.437-4.938 3-6.718 2.594.031-1.719-2.969 1.157V25l-.687.25.031-2L84 16zm5.094.031l1.844 1.094-6.47 2.781v-1.875l4.626-2zm1.969 1.157l2 1.156-8.594 3.437v-1.75l6.594-2.843zm-9.47.343h.47l-16.25 10.094-.25.094.03-.25 16-9.938zm-.28.032l-1.126.656.126-.282 1-.375zm1 .093l.843 1.5L66.47 29.875l-1.031-1.563.062-.062 16.813-10.594zm-26.282.188l1.688 1.093.031.594-1.313-.968.032 1.593-.469-.218.031-2.094zM84 18.062v2.47l-1.031.405v-1.28l.75-.5-.563-.782.844-.313zm9.219.375l1.844 1.094-10.626 4v-1.625l8.782-3.468zm-35.281.625l1.406.938v.688l-1.438-1.063.032-.563zm-1.157.22l1.969 1.374-1.906 1-.063-2.375zm38.75.343l-.031 2.156-.906.344-.688-.969-.062-.093-.094-.032-.188-.125-.062.063-.094.031-1.906.656.125.438-4.938 3-6.718 2.593L80 25.97l-2.969 1.156v1.688l-.687.25.031-1.813 7.781-3.125.188-.281 11.187-4.219zm-12.937.25l.187 3.531-1.781.938-.031-3.375v-.032l1.625-1.062zM56 20.094l.5.187.031 1.625-.562-.281.031-1.531zm3.5 0l1.875 1.218.094.907-2.063-1.5.094-.625zm24.5.531v1.219l-1.031.375V21L84 20.625zm-25.156.094L61 22.25l-4.094 2.188-.062-2.72 2-1zm21.875.406l.187 3.25-.219.125-.062-3.313.094-.062zm-.313.188l.031.53-2.03.782 2-1.313zm12.688.03h.469l-16.25 10.095-.25.093.03-.25 16-9.937zm-.281.032l-1.126.656.126-.281 1-.375zm-31.282.031l1.375.907-.031.968-1.344-1v-.875zm32.282.063l.843 1.5L77.97 33.687l-1.031-1.562.062-.063L93.813 21.47zm-19.094.093l-6.313 3.813.031-1.344 6.282-2.468zm-18.75.157l.562.312.063 2.282.031.906.813.562-.063.782-1.469-1L55.938 24l.656.313-.657-.375.032-2.22zm39.531.156v2.469l-1.031.406v-1.281l.75-.5-.563-.782.844-.312zm-15.063.063l.063 1.25-7.406 2.875 4.969-3.25 2.374-.875zm3.563.03l.031 1.907-19.312 7.688.031-2.125.813-.313.343.563-.031 1.125 2.625-1 .063-.813 4.03-2.625 7.907-3.063.063 1.375 2.406-1.03v-1.313L84 21.969zm-22.906.345l.406.28 1.719 1.22-4.375 2.687-1.907-1.406v-.438l4.157-2.343zm1.937.062l1.188.781v2l-.594-.437v-.907L63 23.345l.031-.969zm5.188.031v.282l-2.25.937-.219-.188.125.47-.031 3.062-.063.031-.062-3.563h.031v-.03l2.469-1zm0 .344l-.156 2.844L66 26.844l.031-3.063 2.188-1.031zm25.875.938l.187 3.53-1.781.938-.031-3.375v-.031l1.625-1.063zm-30.875.25l.093 3.156h-.03l-1.97 1.187-.468-.312-1.875-1.407 4.25-2.625zm32.281.5v1.218l-1.031.375v-1.218l1.031-.375zm-31.875.437l.594.469.031 2.406-.594-.594-.031-2.281zm28.594.063l.187 3.25-.219.125L92.126 25l.094-.063zm-.313.187l.031.531-2.03.782 2-1.313zm-26.375.031l-.031 2-.313.188v.156l-.406.156.063-2.218.687-.282zm20.688.219l-6.313 3.813.031-1.344 6.282-2.469zm5.719.375L92 27l-7.406 2.875 4.969-3.25 2.374-.875zm3.562.031V27.5l-19.281 7.781.031-2.031.813-.313.343.563-.031 1.125 2.625-1 .063-.813 4.03-2.624L92 27.125l.063 1.375 2.406-1.031v-1.313l1.031-.375zm-37.969.094l1.188.844-.063.75-1.156-.813.031-.781zm-1.406.156l1.219.907-8.688 3.593-1.531-.968 9-3.532zm23.594.188v.281l-2.25.938-.219-.188.125.469-.031 3.062-.063.032-.062-3.563h.031v-.031l2.469-1zm0 .343l-.156 2.844-2.063 1.25.031-3.062 2.188-1.032zm-20.875.25l1.812 1.313.063.781-1.938-1.343.063-.75zm-1.375.22l1.437 1.03-8.5 3.625-1.562-1.03 8.625-3.626zm5.843.155l.094 2.625-1.968-1.437 1.874-1.188zm.344.22l.594.562v1.406l-.563-.25.563.406.094 2-1.719-1.312v-.688l1.063.782v-1.188l-.032-1.719zm12.063.093v1.469l-.469-.344v-.938l.469-.187zm-10.563.125l-.031.406-.156.063.531.906-.75.313.031-1.563.375-.125zm9.594.094v2.187l-.906.344-.688-.969-.062-.093-.094-.032-.188-.125-.062.063-.094.031-1.906.656.125.438-4.938 3-6.718 2.593.031-1.718-2.969 1.156v1.688l-.687.25L55.562 35l8.532-3.219.187.282 10.469-4.344zm-15.719.437l1.625 1.188-8.312 3.562-1.75-1.125 8.437-3.625zm1.813.125l1.406 1 .156.782L60.875 29l-.031-.719zm14.406.5l.469.375.031 2.407-.531-.532.031-2.25zm1.781.188l-.031 2-.313.187v.157l-.406.156.063-2.219.687-.281zm-8.75.218l-.031.407-1.906.843 1.937-1.25zm-7.531.22l1.469 1.093-8.375 3.375L52.469 33l8.281-3.594zm11.594.062h.469l-16.25 10.093-.25.094.03-.25 16-9.937zm-.281.031l-1.126.656.126-.281 1-.375zm1 .094l.843 1.5L57.22 41.812l-1.032-1.562.063-.063 16.813-10.593zm-26.282.187l1.688 1.094.031.594-1.313-.969.032 1.594-.469-.219.031-2.094zM74.75 30v2.469l-1.031.406v-1.281l.75-.5-.563-.782.844-.312zm-12.406.594l1.437 1.031-8.468 3.188-1.376-.876 8.407-3.343zM48.687 31l1.407.938v.687l-1.438-1.063.032-.562zm-1.156.219l1.969 1.375-1.906 1-.063-2.375zm27.688.062l.531.5v1.407l-.531-.22.531.376v1.812l-.563-.375.032-1.812V31.28zm1.437.157l-.031.406-.156.062.531.907-.75.312.031-1.563.375-.125zm-3.312.375l.187 3.53-1.781.938-.031-3.375v-.031l1.625-1.063zm-26.594.218l.5.188.031 1.625-.562-.282.031-1.53zm3.5 0l1.875 1.219.094.906-2.063-1.5.094-.625zm24.5.532v1.218l-1.031.375v-1.218l1.031-.376zm-25.156.093l2.156 1.532-4.094 2.187-.062-2.719 2-1zM79.78 33l-.031.406-1.906.844L79.78 33zm-8.312.063l.187 3.25-.219.124-.062-3.312.094-.063zm-.313.187l.031.531-2.03.782 2-1.313zm-18.875.094l1.375.906-.031.969-1.344-1v-.875zm13.188.156l-6.313 3.813.032-1.344 6.28-2.469zm-18.75.156l.562.313.063 2.281.031.906.813.563-.063.781-1.469-1 .032-1.563.656.313-.657-.375.032-2.219zm24.468.219l.063 1.25L63.844 38l4.968-3.25 2.376-.875zm3.563.031v1.719l-19.281 7.781.031-2.031.813-.313.343.563-.031 1.125 2.625-1 .063-.813 4.03-2.624 7.907-3.063.063 1.375 2.406-1.031V34.28l1.031-.375zm-22.906.344l.406.281 1.719 1.219-4.375 2.688-1.907-1.407v-.437l4.157-2.344zm39.75 0s-3.706.605-7.844 1.469c-4.138.863-8.787 1.158-11.344 2.562-3.678 2.086-4.139 6.045-11.594 6.563a4.95 4.95 0 00-1.593 0c-1.423.21-2.03.596-3.125 1.375v.468l-.657-.468-1.53.062-5.282-3.437.281-.532-5.593-3-33.157 13.5.125 2.282 5.969 3.312.531.594 2.688 3.906c-5.59 3.555-8.01 6.158-9.532 8.063-1.526 1.912-2.845 2.771-4.906 3.656h.313c2.287-.982 3.455-1.363 4.937-3.219 1.457-1.825 3.977-4.826 9.344-8.281l.125.188 1.25.124 4.781 3 .375.876 1.344.968-.094 14.406c1.096.78 2.265 1.603 3.688 1.813 1.422.21 2.615-.196 4.468-1.781l-.25-7.906 2.594 1.656.907.031c1.877 1.672 3.521 3.616 5.5 5.188l.843-.063 2.219 1.469-.188 14.5c.72 1.239 2.546 1.726 3.907 2.219 1.422.21 2.46-.384 4.312-1.97l-.125-8.062 2.469 2.063.938-.25 6.937 6.5.906.031 6.875 5.031.25.938 1.938 1.531L75.406 122c1.147.994 2.462 1.52 3.875 1.969 1.423.21 2.803-.352 4.656-1.938l-.468-13.219 23.469-9.968.03 9.812c2.623 2.91 5.813 2.652 8.782.406l-.375-13.78 4.688-2-.094-2.75-4.344-3.188.156-5.844c-4.833-3.144-6.493-1.098-8.906-.281l-2.281-2.063-1.375.094-7.625-5.156.219-.469-7.282-4.281-.062-1.063-3.813-2.094V59.75c-1.491-1.465-2.405-1.483-4.375-1.594-1.422.21-2.28.721-3.375 1.5v.032L75.47 58.5l-1.281.156-6.844-4.968-1.906.78-1.844-1.28-.032-6.876c-.694-.594-1.278-.98-1.812-1.218 5.934.026 5.44-3.158 10.906-6.282 2.297-1.261 7.269-2.112 11.375-2.968 4.107-.857 7.625-1.407 7.625-1.407l-.062-.187zm-37.813.063l1.188.78v2l-.594-.437v-.906l-.625-.469.031-.968zm5.188.03v.282l-2.25.938-.219-.188.125.469-.031 3.062-.063.032-.062-3.563h.031v-.031l2.469-1zm0 .344l-.157 2.844-2.062 1.25.031-3.062 2.188-1.032zm-5 1.188l.093 3.156h-.03l-1.97 1.188-.468-.313-1.875-1.406 4.25-2.625zm.406.938l.594.468.031 2.407-.594-.594-.031-2.282zm1.906.28l-.031 2-.313.188v.157l-.406.156.063-2.219.687-.281zm-8 .72l1.188.843-.063.75-1.156-.812.031-.782zm1.313.937l1.812 1.313.063.78L49.53 39.5l.063-.75zm4.468.375l.094 2.625-1.968-1.438 1.874-1.187zm.344.219l.594.562v1.407l-.563-.25.563.406v1.812l-1.625-1.125v-.687l1.063.781v-1.188l-.032-1.718zm1.5.218l-.031.407-.156.062.531.907-.75.312.031-1.563.375-.124zm-12.718.344l4.874 2.5-31.437 13.188-5.5-2.594 32.063-13.094zm8.406.313l1.406 1 .156.781-1.531-1.063-.031-.718zm7.437.906l-.031.406-1.906.844 1.937-1.25zm-11.125 1.969l5.282 3.312-20.97 9a5.611 5.611 0 00-1.124.063c-1.423.21-2.592.346-3.688 1.125v.906l-6.875 2.938-3.375-4.532 30.75-12.812zm11.875 1.875c.974-.022 2.094.382 3.5 1.531l-.062 7.031c-.017.024-.045.04-.063.063v.031c-1.246 1.63-4.405 2.258-6.687.469l-.125-7.594c1.007-.709 1.993-1.347 3.031-1.5.134-.02.267-.028.406-.031zm-5 1.75l1.344.843.063 3.97-20.782 8.75.032-3.282c-.805-.689-1.461-1.107-2.063-1.344l21.406-8.937zm7.782.218c-1.87 1.476-3.232 1.401-5.188.126l-.25.25c2.185 2.168 3.816 2.172 5.625-.126l-.188-.25zm-6.376 5.282l.032 2.031c2.732 2.34 5.677 1.842 7.343-.375l1.5 1.031L32 69.344l-5.531-4.594.875-.375v.969c2.908 2.231 5.383 1.994 8-.438l.031-3.937 20.813-8.75zm-45.53.968l5.874 2.844-.187 1.907-5.469-3.157-.219-1.593zM67.25 54.5l6.438 4.438-35.75 15.687-6.032-4.406L67.25 54.5zm-35.594 1.219c.974-.022 2.094.382 3.5 1.531l-.062 7.031c-1.145 2.015-5.006 3.288-7.438.813l.125-8.156c1.007-.71 2.43-1.035 3.469-1.188.134-.02.267-.028.406-.031zm-14.718.843l2.906 4.376-.063 1.78-2.937-4.374.093-1.782zm11.75 1.376l-.25.25c2.212 1.905 4.118 2.191 6.125.187l-.313-.25c-1.916 1.095-3.684 1.06-5.563-.188zm-1.282.218l-.062 5.5-.688.313-6-3 6.75-2.813zm53.375.313c.974-.022 2.094.382 3.5 1.531l-.062 7.031c-.775 1.906-3.552 2.82-6.75.563L77.344 60c1.007-.709 1.993-1.347 3.031-1.5.134-.02.267-.028.406-.031zm-5.719.406l1.876 1.469.156 4.562L55.594 74v-2.688c-1.373-1.348-2.269-2.06-3.938-2.25l23.407-10.187zm8.438 2c-1.91 1.02-3.37 1.166-5.313.25l-.124.25c2.072 1.823 3.836 1.536 5.624-.25l-.187-.25zm-63.25.531l6 2.813-.094 1.906-5.093-3.156-.907-.125.094-1.438zm6.313 4.188l5.343 4-.218.375-.282.594-4.937-3.5.093-1.47zm50.562.094l.094 2.187c2.747 2.353 5.776 1.904 7.437-.344v-.75l3.688 1.813-35.469 14.719-6.813-4.438 1.563-.656.031 1.531c2.747 2.353 6.276 1.717 7.938-.531v-4.406l21.531-9.126zm-49.25 2.874l3.406 2.47-.093 1.093L35 74.594l.156 7.812c-1.607 1.315-2.836 2.096-3.906 1.938-1.04-.154-2.336-1.04-3.344-1.75l-.031-14.031zm60.031.813l7.281 4.594-37.03 14.656-5.313-4.469 35.062-14.781zm-36.719.063c1.07-.158 2.487.749 4.094 2.062l-.062 7.031c-1.12 2.17-4.652 3.407-7.063 1.063l-.062-8.344c1.007-.709 2.055-1.66 3.093-1.813zm-2.656 1c-.356.272-.732.546-1.062.78l.125 6.188-2.657 1.125-5.624-4.094 9.218-4zm-16.75.437l6.125 4.25v.938l-2.593-1.688h-.032L31.625 72l.156-1.125zm17.032.938l-.126.124c1.77 2.655 3.724 2.848 5.876.063l-.5-.125c-1.523 1.707-3.434 1.122-5.25-.063zm46.343 2.718l7.5 5.281-36.75 14.907-6.469-5.844 35.72-14.344zm-55.937.563l5.5 4.219-.157 1.968-5.406-5.187-.781-.031.156-.907.688-.062zm6.406 4.125l6.688 4.469-.5 1.874-6.376-4.343c-.078-.113-.416-.106-.406-.219l.157-1.469.437-.312zm-19.344.281c-1.449 1.11-1.99 2.492-1.312 4.375.82 1.497 2.672 2.589 4.625 2.969 2.013.391 4-.228 5.625-1.156 2.299-1.314 3.837-3.493 1.218-5.688h-.156c1.968 2.063.721 4.517-1.156 5.531-1.312.71-3.582 1.53-5.344 1.188-1.704-.332-3.928-1.868-4.531-2.969-.69-1.635.05-3.314 1.031-4.25zm77.969.25l2.594 2.406.062 4.469-23 9.063.125-3.063c-1.491-1.465-3.092-1.858-5.062-1.969-1.332.568-2.788.762-3.906 1.969l.124 6.5L73 100l-6.094-5.125L104.25 79.75zm6.969.531c1.389.058 2.772.568 4 1.469l-.063 7.281c-1.001 1.94-4.896 2.992-7.906.313l-.031-7.781c1.214-.957 2.61-1.34 4-1.282zm2.344 1.844c-1.523 1.707-3.184 2.06-5 .875v.125c2.225 2.895 3.57 1.732 5.28-.594l-.28-.406zM47.624 83.25l4.313 2.875.093.938 3.063 2.562.062 7.719c-1.607 1.313-2.961 2.251-4.031 2.094-1.051-.156-2.417-1.03-3.438-1.75l-.062-14.438zm5 1.594l5.219 4.187-.032 2.125-5.25-4.437.063-1.875zm54.313 2.375l.03 2.406c2.731 2.534 5.695 1.975 8.594-.125l.032-1.531 3.5 2.656-37.781 15.25-7.876-5.375 1.75-.688.032 1.188c2.722 2.525 5.645 1.991 8.5-.125l.156-4.438 23.063-9.218zm-48.47 2.062H59l6.625 5.906.094 2.376-6.875-6.47-.438-.062.063-1.75zm20.75 1.813c1.07-.158 2.55.718 4.157 2.031l-.156 7.375c-1.199 1.694-5.302 2.383-7.625.563l-.031-8.126c1.007-.708 2.617-1.69 3.656-1.843zm40.438 0l-.062 1.719L81.28 109.28l.25-2.906 38.125-15.281zM81.812 93.5c-1.605 1.838-3.404 1.464-5.343.156l-.094.063c1.67 2.6 3.518 2.817 5.625.094l-.188-.313zm-35.75.031c-1.65 1.182-2.177 2.79-2.062 4.75 1.122 3.228 4.632 3.536 7.625 3.625v-.219c-2.748.033-6.09-.902-7.438-3.374-.19-1.572.744-3.516 1.844-4.532l.032-.25zM66.5 95.344l6.375 5.062.281 2.25-6.75-5 .094-2.312zm48.313.156l.28 12.906c-2.498 2.677-5.28 2.673-7.562 0l-.125-9.75 7.406-3.156zm-55.876 1.938l-.093.156c1.238 2.256.804 4.86-.063 6-.866 1.14-3.052 1.945-4.812 2.125-2.992.157-7.25-.771-9.375-2.969l-.094-.063c1.943 2.95 6.308 3.408 9.563 3.25 1.961-.2 3.864-.984 4.968-2.437 1.104-1.453 1.27-3.577-.093-6.063zM73.5 101.25l7.406 4.875-.156 3.281-6.813-5.531-.437-2.625zm42.375.813l.156.093c1.303.597 1.604 1.699 1.5 3.063l.313.219c-.018-2.125-.175-2.783-1.969-3.376zm-10.969 2.75c-1.194 2.87-.842 5.137.406 6.624 1.25 1.488 3.263 2.195 5.313 2.282 2.05.086 4.165-.424 5.625-1.531 1.46-1.108 2.201-2.92 1.406-5.032h-.031c.664 1.765-.359 4.087-1.563 5-1.203.913-3.338 1.422-5.187 1.344-1.85-.078-4.252-1.061-5.25-2.25-.998-1.189-1.632-3.73-.531-6.375l-.188-.063zm-28.937 1.093l5 3.969 2.125-.906.25 12.531c-1.607 1.313-3.024 2.252-4.094 2.094-1.039-.154-2.367-1.197-3.375-1.906l.094-15.782zm-2.219 10.5c-1.6 1.346-2.795 3.277-2.344 5.281.451 2.005 2.519 3.807 6.875 4.938h.156c-4.182-1.086-6.446-3.323-6.78-4.813-.336-1.49.704-3.991 2.124-5.187l-.031-.219zm10.719.781l-.031.25c1.853.21 2.817 1.295 3.124 2.5.308 1.206-.072 2.514-1.124 3.22l.03.062c1.432-.96 1.84-1.765 1.438-3.344-.402-1.579-1.227-2.438-3.437-2.688z" fill="#5c2700" fill-rule="evenodd"/>
</svg>
