<?xml version="1.0" encoding="UTF-8"?>
<svg width="128" height="128" version="1.0" xmlns="http://www.w3.org/2000/svg" xmlns:xlink="http://www.w3.org/1999/xlink">
 <path d="M63.469 33.875c-.531.075-1.09.324-1.688.75-1.5 2.477-1.332 5.431-.968 8.281-1.784.873-3.274 2.198-4.188 4.125-3.406 1.99-5.009 1.454-10.219 5.969-7.235 2.196-13.838 6.126-17.156 12.063-3.092 2.568-5.226 5.552-6.281 8.812v-.281c-1.992 5.974-1.383 11.01.781 14.781 2.164 3.77 5.682 7.172 10.063 10.031 4.207 2.747 9.205 5 14.562 6.594v.031l.063-.031c5.782 1.714 11.974 2.678 18.03 2.656 11.63-.042 24.626-3.15 34.313-8.5 8.554-4.668 16.952-11.88 13.781-23.031-.852-2.937-3.223-5.454-6.156-7.219-2.475-8.13-10.34-13.277-18.469-15.469-2.805-3.226-7.067-5.056-11.218-6.468-.81-1.9-2.23-3.183-3.938-4.032.082-1.978-.136-4.029-1.187-6.093-1.593-1.635-2.819-1.868-4.344-1.063-1.2.936-1.494 2.223-1.563 3.782-.041-1.734-.27-3.246-1.562-4.657-.953-.8-1.771-1.156-2.656-1.031zm.468.156c.673.027 1.379.325 2.157.938 1.333 1.823 1.59 4.102 1.437 6.281-.053.762.495 1.11-.281 2.219.193-.137.328-.287.406-.469.042.265.182.502.375.75-.029-.114.024-.203.031-.406-.744-1.343-.325-6.573 1.25-7.5a3.598 3.598 0 011.126-.344c.135-.015.275-.036.406-.031.918.03 1.738.552 2.531 1.406 1.977 3.539 1.083 7.126.688 10.281-.1.601-.207 1.766-.438 2.563a2.817 2.817 0 01-.219.875c-.669.65-1.833-.111-1.344-.75.121-1.553.869-3.855.813-5.469-.117-2.428.248-5.286-2.438-6.969-1.018.397-.663 1.137-1.28 3.157.06.507-.22 3.118-.594 3.156-.045.064-.042.051-.063.125.318-.094.31-.254.438-.594.093.034.178.076.28.125-.694 1.373-2.449.664-2.593-.125.065-.041.126-.066.188-.094.05.053.097.11.156.157v-.25c-.364-.438-.808-2.856-.75-3.313-.618-2.212-.263-2.847-1.281-3.563-2.686.843-2.32 3.797-2.438 6.188-.056 1.597.692 4.16.813 5.75.239.513-1.056.897-1.563.219-.117-.157.115-.403.031-.688-.26-.886-.364-2.207-.468-2.875-.396-3.278-1.259-7.141.718-10.062.605-.462 1.234-.714 1.907-.688zm1.094 2.5c.843 1.28.952 3.376 1.219 4.969-1.15.098-2.269.318-3.344.625-.45-2.311.029-5.1 2.125-5.594zm5.313 1.219c1.538.843 2.206 2.646 2.281 4.406a18.866 18.866 0 00-3.344-.625c.192-1.375.365-2.94 1.063-3.781zm-4.75 4.531c-.295.184-.591.398-.875.688-.003.056 0 .103 0 .156l-.031.219c-.57.084-1.13.186-1.688.312-.024-.274-.026-.536-.031-.812.796-.234 1.666-.41 2.625-.563zm3.562 0c.62.184 1.168.504 1.563 1-.362.902-1.275 1.67-2.156 1.938-1.58.218-2.814-.763-3.344-2.094.354-.298.775-.512 1.219-.688.04.132.067.262.124.376L66 43c.241 1.647 1.07 1.625 2.563 1.531.895-.074.745-.587 1.25-1.125-.285-.393-.496-.603-.72-.75.024-.114.042-.253.063-.375zm1.438 0c.7.118 1.372.315 2.031.532a7.388 7.388 0 01-.094.937c-.413-.105-.83-.204-1.25-.281-.004-.603-.27-.96-.687-1.188zm-9.688 1.344c.034.249.06.504.094.75-1.577.824-2.453 2.158-2.813 4.063.723 4.569 5.39 5.262 9.344 5.406 3.8.019 7.389-.789 8.781-4.188.128-.377.227-.772.344-1.156-.094-1.818-.873-3.076-2-3.875.035-.305.07-.598.094-.906 1.779 1.04 3.165 2.626 3.781 4.937-1.207 5.41-6.248 6.46-11.062 7.063-10.947-.81-14.097-8.58-6.563-12.094zm3.75.188l-.125 1.25c-.447.065-.883.176-1.312.28-.051-.37-.11-.72-.157-1.124.542-.155 1.07-.304 1.594-.407zM71.25 44c.395.11.791.232 1.188.375.004.363-.002.71-.032 1.063-.363-.114-.74-.209-1.125-.282L71.25 44zm-.438.031l.032 4.407c-2.103 1.306-4.072 1.273-6.063-.126l.5-3.718c.753.662 2.01 1.324 3.281 1.25 1.053.047 1.978-.977 2.25-1.813zM61.094 45c.052.325.09.664.125 1-.913.434-1.684 1.014-2.188 1.813.25-1.355.987-2.19 2.063-2.813zm13.468.375c.954.667 1.665 1.648 1.75 3.125-.031.163-.08.316-.124.469-.393-1.147-1.008-1.944-1.782-2.532.051-.352.11-.704.156-1.062zm-3.28.406c.36.06.716.13 1.062.219-.098.818-.265 1.578-.313 2.219-.035.309-.083.637-.125.968-.402.173-.503.222-.812 1-.206.346-.334.685-.031.938.843.578 1.584.894 2.656.719.747-.687 1.632-.963 1.062-1.907-.354-.08-.553-.296-.812-.312.152-.67.19-1.487.312-2.219.026-.182.036-.378.063-.562.824.519 1.481 1.234 1.812 2.25-1.092 3.482-5.312 4.162-8.625 4.281-3.477-.025-7.115-.925-8.344-4.313h.032c.023-1.11.889-1.876 2.093-2.406.034.268.07.508.126.75-.32-.14-.574.084-1 .094-.745.812.09 1.241.687 2.063 1.016.384 1.809.243 2.75-.157.347-.187.29-.558.156-.937-.148-.816-.243-.883-.594-1.125-.04-.283-.064-.58-.093-.844-.01-.128-.047-.299-.063-.438.392-.091.786-.189 1.188-.25l-.25 2.813c2.491 1.93 4.612 1.698 7.125.281l-.063-3.125zm-10.25 1.782c.156-.004.319.03.468.093-.01 1.044.667 1.148 1.75 1.094.254-.4.269-.642.219-1.125.12.099.244.177.343.25-.048.157.301.904-.03 1.344-.975.76-2.108.447-2.657.062-1.157-1.163-.701-1.706-.094-1.718zM79 47.624c6.003 1.69 11.36 5.001 12.469 11.594-.236 10.666-14.64 14.769-24 15.312-9.33-.312-23.362-5.13-23.25-15.312.413-6.043 6.064-8.934 12.093-11.438-.227.332-.274.812-.343 1.157-4.966.87-8.17 4.913-9.657 10 1.32 9.86 13.186 12 21.376 12.374 8.238-.239 19.999-2.612 21.374-12.374-.443-5.458-4.973-8.457-9.624-10.376-.047-.599-.277-.592-.438-.937zm-22.875 1.531c.008.412.058.798.094 1.188-5.275 2.01-8.623 5.207-9.125 9.125-.034-.177-.068-.349-.094-.532.478-5.066 4.728-8.053 9.125-9.78zm23.438.063c4.233 1.616 7.666 4.422 8.843 8.812-1.166-3.932-4.918-5.796-8.812-7.406a5.972 5.972 0 00-.031-1.406zm-.438.062c.364 2.625-.794 4.188-3.031 6.25-5.136 3.999-11.812 3.644-16.781-.062-1.404-1.693-3.01-3.214-2.907-5.407 1.49 4.276 6.88 5.758 11.063 6 4.463-.169 10.485-1.913 11.656-6.78zm-7.25.157c-.03.42-.007.855.219 1.28 1.12.407 1.58-.065 1.812-.843.725-.02 1.444.64-.125 1.688-.614.268-1.82.344-2.625-.594-.239-.497.267-1.149.25-1.313.131-.06.316-.135.469-.218zm-15.594 1.468c.272 1.939.997 3.634 2.782 5.219.63.438 1.272.825 1.937 1.156l-.625 2.875c3.851 4.455 11.385 4.152 15.25-.093l-.375-3.126c.021-.084.937-.631 1.281-.843 1.662-1.605 2.739-3.287 3.031-5.063 4.089 1.6 8.084 4.23 8.97 8.657-1.734 8.866-13.252 10.768-20.844 11.124-7.317-.25-18.091-2.34-20.376-10.406.156-3.866 3.518-7.42 8.97-9.5zm-10.531 3a12.42 12.42 0 00-1.563 2.907c-7.537 2.68-11.752 7.358-12.374 15.25 2.223 16.597 22.251 20.206 36.03 20.843 13.855-.413 33.725-4.405 36.032-20.844.086-7.719-5.98-12.46-12.375-15.656a10.9 10.9 0 00-1.156-2.25c9.26 2.374 16.389 9.122 18.5 18.5.452 6.094-4.64 13.294-11.938 17.375-7.298 4.082-17.792 6-28.969 6-11.176 0-21.02-3.122-28.343-7.156-7.6-4.186-12.52-9.695-11.844-16.313.423-10.585 9.323-15.51 18-18.656zm10.094 1.407c-4.335 1.607-3.527 3.702-.063 5.656l.063-.313c-3.039-1.328-2.967-3.628 0-5.031v-.313zm35.843 1.624l.188.344c5.936 2.513 10.06 6.604 11.125 12.657-1.488-5.154-4.771-7.352-10.313-9.938-.22-1.055-.628-2.056-1-3.063zm-16.812.126l.25 2.843c-4.07 3.844-10.9 3.835-14.313.157l.657-2.5c3.03 1.675 9.068 2.015 13.406-.5zm-30.938.437c-.086.315-.21.795-.25.938-.36.82-.475 1.805-.593 2.718-6.562 2.51-9.747 5.46-10.438 12.157-.084-.41-.19-.824-.25-1.25-.015-7.325 5.424-11.592 11.5-14.532.01-.03.023-.006.032-.031zm35.344.781l-.312.125c3.698 2.86-2.18 4.107-4.5 4.344l.125.313c3.808.015 8.757-2.348 4.687-4.782zm12.844 1.094c1.33 4.908-1.141 8.484-7.688 13.156-10.416 6.763-23.061 6.81-33.374 0-4.265-2.962-9.034-6.967-7.438-12.406 2.002 10.59 14.414 14.129 23.844 14.688 9.736-.365 22.924-4.315 24.656-15.438zm.688 1.438c6.465 2.791 9.43 4.809 10.374 11.812-2.543 15.72-22.12 18.95-35.343 19.563-12.575-.4-30.826-3.704-34.844-17.376-.078-7.406 3.948-10.399 10.094-13.187-.14 4.832 3.401 8.036 7.437 11.281a28.253 28.253 0 006.688 3.625l-.594 3.219c5.969 6.414 16.195 4.648 21.906.313l-.625-3.688a38.843 38.843 0 006.938-3.25c3.834-3.203 8.667-6.62 7.969-12.313zm-37.344 3.343v.25c4.606 4.224 10.082 5.074 15.812 2.781v-.374c-5.376 2.242-11.44 1.054-15.812-2.657zm-26.657 1.719a17.43 17.43 0 00-1.5 4.594l-1.937-.219a24.634 24.634 0 013.438-4.375zm65.594 1.469l-.687.375c3.313.898 3.496 4.01 3.406 7l.125.312c.363-3.698.74-6.389-2.844-7.687zm-49.531.156l-.25.125c-1.092 1.606-.858 2.462.531 3.906l.25-.187c-1.26-1.063-.735-2.387-.531-3.844zm-4.813 1.469l-.25.062c-1.759 3.681-1.173 7.115 1.094 11.656h.313c-1.964-4.422-2.729-8.429-1.157-11.718zm68.47.5l.124.031c.004.01-.003.022 0 .031 1.265.531 2.495 1.772 3.563 3.188l-2.594.5a14.998 14.998 0 00-.969-3.688c-.042-.017-.083-.046-.125-.062zM25.187 70.53l2.062.313c-.09.557-.18 1.134-.219 1.719 0 .34.037.664.063 1-.076 1.326-.138 2.663-.094 3.937.036.946.196 1.873.438 2.781L23 82.47c-.922-4.217.017-8.296 2.188-11.938zm87.343 2.563a24.674 24.674 0 011.781 2.937c.483 4.927-.74 8.814-2.968 12.125l-4.688-2.25c1.893-2.647 2.969-5.543 2.969-8.594.148-1.248.18-2.46.063-3.656l2.843-.562zm-3.5.844c.085 1.062.085 2.164-.125 3.374 0 6.111-4.42 11.7-11.719 15.782-7.297 4.081-17.323 6.687-28.5 6.687-11.176 0-21.199-2.449-28.437-6.531-7.238-4.082-12.548-9.76-12.781-15.875l.031-1.25c1.374 5.006 5.62 9.436 11.656 12.813 7.43 4.155 17.28 7.468 28.563 7.468 11.282 0 22.1-1.938 29.531-6.094 6.892-3.854 11.16-10.488 11.781-16.374zm-24.937.468l-.375.125c2.59 3.996-.544 6.398-4.156 8l.312.063c4.744-1.708 6.68-3.651 4.219-8.188zm-6.313 2l-.187.406.562 2.97c-5.63 4.3-16.193 4.812-21.062-.22l.562-2.874c6.527 2.334 13.52 2.026 20.125-.282zm36.906 1.656c1.189 4.351-.144 8.314-2.812 11.782l-.281-1.25c1.98-3.045 3.148-6.55 3.094-10.531zm-92.468.094c-.063 1.47.07 2.98.406 4.5l-.094.031-.062 1.376c-.39-1.941-.478-4.024-.25-5.907zm5.312 2.438c1.19 4.074 4.323 7.738 8.657 10.812l-3.532 4.219c-2.982-2.299-5.626-5.038-7.781-8.313a17.088 17.088 0 01-1.844-4.656l4.5-2.062zM22.72 83c.344 1.43.854 2.865 1.562 4.313 2.277 3.529 5.111 6.443 8.313 8.843l-.032 1c-3.596-2.579-6.551-5.56-8.468-8.687-.657-1.071-1.165-2.398-1.5-3.813L22.719 83zm30.5.875v.313c6.915 6.153 16.733 5.181 22.406 3.593v-.25c-5.426 1.519-15.91 2.125-22.406-3.656zm53.25 2.344l4.719 2.219c-2.431 3.491-6.012 6.326-9.97 9.03-.263.15-.54.291-.812.438l-4.781-3.25a41.915 41.915 0 001.875-.969c3.786-2.117 6.862-4.636 8.969-7.468zm4.937 2.656l.281 1.219c-2.718 3.426-6.738 6.35-10.968 8.625l-.156-.5.218-.125c4.315-2.41 8.095-5.464 10.625-9.219zm-74.812 2.781a41.87 41.87 0 003.218 2.031c2.929 1.652 6.302 3.038 10 4.126l-1.5 5.468c-5.579-1.623-10.875-4.036-15.406-7.469l3.688-4.156zm58.718 3.156L100 98.126c-4.548 2.41-9.968 4.37-15.625 5.75l-2.125-4.781c4.83-.963 9.249-2.434 13.063-4.281zm-62.406 1.563c4.548 3.338 9.824 5.661 15.375 7.25l.063 1c-5.216-1.546-10.09-3.72-14.157-6.375-.4-.262-.799-.541-1.187-.813l-.094-1.062zm17.313 1.563c4.672 1.335 9.858 2.18 15.375 2.406l.5 5.75c-5.745-.263-11.728-1.093-17.438-2.719l1.563-5.438zm50 .437l.281.469-.063.031c-4.761 2.63-10.341 4.72-16.156 6.156l.031-.594c5.74-1.398 11.204-3.469 15.907-6.062zm-18.375.813l2.125 4.78c-5.697 1.359-11.605 2.137-17.063 2.157-.103-.004-.209-.027-.312-.031l-.75-5.75c.91.034 1.824.062 2.75.062 4.641 0 9.093-.419 13.25-1.219zm-33.219 4.53c5.74 1.61 11.742 2.444 17.5 2.813v.75c-5.863-.023-11.878-.924-17.5-2.562v-1zm35.344.782l-.031.594c-5.75 1.393-11.714 2.167-17.376 2.187H66.5l.094-.719c.135.009.271.024.406.032 5.567-.02 11.382-.76 16.969-2.094z" fill="#5c2700"/>
</svg>
