<?xml version="1.0" encoding="UTF-8"?>
<svg width="128" height="128" version="1.0" xmlns="http://www.w3.org/2000/svg" xmlns:xlink="http://www.w3.org/1999/xlink">
 <path d="M52.719 9.188l-6.344 1.906.125.125.094 2.156.156.125-.219-.125.157 53.656L33.78 72.72l-1.187 2.062 1.937 2.281 1.563.782.093.094-.812 12.53c-.352 1.817.528 3.502 2 1.97l.719-12.782.968.875.376-.062 1.062-.188 1.438 1.563-.563.969 4.656 2.656 1.75 2.969 1.625.03 2.188 3.032-.157 2.813 3.907 1.03-.469 14.813c-1.215 1.907 1.837 4.694 2.313 1.781l.5-17.562 7.53-3.094 1.407 21.188c.448 1.313 1.879 1.029 1.781-.5l-.062-1.25 7.469-2.656.156 1.25c.746 1.23 2.114.503 1.75-.532l-2.344-21.687 9.094-3.781 1.219 22.718c.775 1.63 2.17 1.125 2.28-.687l-1.5-22.844 3.22-1.344-.157-1.469-3.969-4.437-4.53-2.281.5-1-3.813-1.531.187-.907L75 67l-1.313.063-1.718-2.25c1.366-.517 1.64-1.865 1.375-4.032a48.93 48.93 0 00-.781-4.218c-.34-1.464-.735-2.899-1.157-4-.265-.788-.608-1.303-1.094-1.688.849-1.695 1.817-3.311 3.126-4.719l-.844-.625c-1.515 1.346-2.291 3.1-3 4.907-.009-.004-.023.003-.031 0-.036-5.417-.273-10.834.124-16.25l6.438-2.407.031-3.281.406-.156L72 24.687l.156-.093-.687-.344-18.75-15.063zm-.094.406l18.188 14.812-6.47 2.782L47.5 11.344l5.125-1.75zm-5.375 2.312L64 27.625 63.656 29l-16.5-15.781.094-1.313zm-.344 1.844l.625.531.469.438-.125 53.843-.906-1.156-.063-53.656zm1.563 1.406l5.25 5v3.688l-5.313 7.531.063-16.219zm5.812 5.531l1 .938-1 1.406v-2.343zm1.219 1.188l.875.813-8 12 .031-2.5 5.719-8.344.156-.032v-.156l1.219-1.781zm1.344 1.281l3.843 3.625-6.562 7.125h-.406v.032l-4.532.312 7.657-11.094zM71.5 25l1.438 1.156-7.094 2.313L71.5 25zm-1.5.406l-4.594 2.782-.687-.625L70 25.405zm3.688 1.375L75.5 28.25l-7 2.844-2.469-2.313v-.093l7.656-1.907zm-12.594.407L63.53 29.5l-.093.344.374.312.25-.125 1.5 1.438v.343l.594.22 2.031 1.906c.54 5.612.245 11.057.25 16.562-1.454 1.174-1.928 3.966-2.562 5.781-.321 1.206-.614 2.355-.75 3.594l-1.281-.406-9.563 4.218v-29.5l6.813-7zm3.218.718l1.094 1.032-1.062.53-.031-1.562zm11.407.782l-.25 2.843-6.5 2.407-.156-2.376 6.906-2.875zm-10.063.562l-.062 1.625-1.094-1.063 1.156-.562zm.469.344l2.281 2.156-.062 1.75-2.031-1.938-.188-1.968zm3.219 20.75c-.138-.054-.25-.108-.406-.157a2.57 2.57 0 00-.344.188c.06-5.36.32-10.852.062-16l.094.094v.062h.031l.219.188.398-.326c-.47 5.317-.12 10.634-.054 15.95zM53.719 34.437l.25 29.376v.53L54 66.282l-5.75 2.563L48.375 35l5.344-.563zM72.687 45.75l.5.406c-1.321 1.35-2.263 2.923-3.062 4.563-.055-.037-.128-.06-.188-.094.618-1.701 1.214-3.403 2.75-4.875zm-3.843 4.844c.064-.01.129.01.187.031.84-.053 1.654 1.222 2.094 1.969.394 1.028.73 2.566 1.063 4 .331 1.434.77 3.187.937 4.406.503 2.704-.837 3.81-3.438 3.813-1.536-.123-3.59-.774-4.187-1.438-.583-1.996.032-4.851.625-6.781.221-2.257 1.754-5.848 2.719-6zm.375.406c-1.772.453-2.178 3.433-2.375 4.781-.626 1.551-1.153 5.23-1.156 6.875.736 1.58 4.05 1.274 5.593 1.907 3.151-1.71.802-5.359.5-7.5-.346-1.742-.42-5.236-2.562-6.063zm-.031.281c2.131.88 2.095 4.03 2.312 6.063.31 1.866 2.797 5.338-.25 7.031-.33-.088-.787-.171-1.281-.281-.01-.002-.022.002-.031 0l-3.47-2.344.282-1.344-.563-.187c.248-1.575.615-3.341.907-4.188.305-1.504.482-4.554 2.094-4.75zm-5.407 8.532l1.313.343c-.054.601-.035 1.24 0 1.907l-29.25 13.843-1.157-2.687 12-5.531v.343l1.376 1.25 6.187-2.844.031-2.25 9.5-4.374zm2.375.624l.281.063-.374 1.094-.063.031c.044-.37.088-.742.156-1.188zm-.094 1.688l2.657 1.656c-1.172-.301-2.336-.693-2.813-1.25.006-.085.022-.243.031-.343l.126-.063zm-.937.438c.022.248.026.489.063.75.947 1.052 2.747 1.574 4.437 1.718L39.5 78.812l-2.406-2.124-.625-.594 28.656-13.531zM71.156 65l1.969 2.094-7.719 3.812c-1.279-.34-2.784-.27-4.187-.031-3.248.761-5.8 2.6-6.907 5.563l-11.03 5.468-1.97-3.187L71.156 65zm3.313 2.313l3.094 2.312-.407.75-8.719 4.063c.008-.034.024-.06.032-.094-.267-1.712-1.207-2.683-2.438-3.188l7.313-3.687 1.125-.156zM77.188 71l3.968 1.063-.719 1.03-31.624 14.313-1.282-2.437 8.813-4.156c1.399.593 3.202.566 4.875.28 3.38-.788 5.993-2.716 7.031-5.874L77.188 71zM63 71.25c4.08.02 5.318 1.733 4.719 3.75-1.767-4.107-6.09-3.57-9.813-2.344.805-.473 1.84-.897 3.313-1.312.64-.06 1.241-.097 1.781-.094zm-.438.781c2.036.04 3.848.945 5.032 3.344-.21.513-.548 1.042-.969 1.563l-4.063-4.907zm-.593.031l4.312 5.282c-.834.914-1.962 1.777-3.312 2.5l-4.688-6.969c1.258-.436 2.493-.748 3.688-.813zm-4.375 1.063l4.812 7c-.33.159-.649.33-1 .469-1.026.161-2.052.29-3.031.25l-3.094-5.188c.432-.864.86-1.615 1.563-2.25.247-.1.5-.187.75-.281zm-23.657.094l1.5 3.031.094.063v.906c-.263-.054-.53-.105-.781-.313l-1.625-2.219.813-1.468zM81 73.563l3.813 1.718L52.75 90.094l-2.156-2.781L81 73.563zm4.375 2.28l3.063 3.438-13.313 5.5-.094-.812c-.387-.19-.72-.32-1.031-.188-.172.027-.356.184-.563.688l.094.969-6.719 2.75-.156-1.938c-.828-.152-1.123-.137-1.719.875l.126 1.781-9.157 3.781-3.343.594.906-2.844c2.259-1.036 31.391-14.361 31.906-14.593zm-30.406.407c.484.807 2.453 4.14 2.687 4.531-.86-.135-1.672-.449-2.406-1.125-.842-.458-.645-.626-.938-1.75.014-.364.441-1.308.657-1.656zm-19.157.188l.72.374 2.593 2.25-.125.782c-1.008-.858-1.772-1.484-2.813-2.344a.988.988 0 00-.28-.156l-.094-.906zm18.25.718c-.04.147-.06.286-.093.438.206 1.352.81 2.27 1.656 2.844L47 84.468l-3.656-1.906 10.718-5.406zm-17.53 1.063l1.187 1.094-.688 12.75c-.695 1.516-1.48-.11-1.312-1.282l.812-12.562zm4.312.75l1.75 2.625.031.687-.375.656c-.097-.073-.2-.14-.281-.218-.16-.151.598-.726.437-.875-.64-.597-1.006-1.238-1.625-1.813L40.75 79l.094-.031zm-.5.094l-.063.78c-.33.04-.757.19-1 .157l.157-.781.906-.156zm48.75.78l.094 1.094-13.876 5.594-.124-1.094 13.906-5.593zm-2.969 2.782l1.469 22.75c-.018 1.278-1.156 1.607-1.531.531l-1.157-22.781 1.219-.5zm-43.406.063l3.718 2.156-.093.312c-1.241-.811-2.608-1.402-3.875-2.062l.25-.406zm31.531 1.28c.225.053.392.29.406.438l2.719 24.406c.056.885-.65 1.077-1.156.126l-.125-.97.281-.093c.224-.608.054-1.1-.125-1.594l-.313.125-.218-2 .406-.156c.031-.465.323-.941-.188-1.406l-.343.125-.188-1.531.344-.126c.432-.673.325-1.187-.125-1.624l-.344.124-.25-2.124.219-.063c.429-.68.29-1.288 0-1.563l-.344.126-.219-2 .344-.126c.253-.65.042-1.074-.031-1.562l-.469.156-.187-1.75.437-.156c.27-.646.229-1.197-.031-1.563l-.531.188-.219-2 .5-.219c.154-.393.316-.817-.125-1.156l-.5.188-.156-1.5c.047-.323.146-.654.281-.688a.478.478 0 01.25-.031zM46.687 85l.157.094 1.343 2.187-.062.75c-.006-.004-.027.005-.031 0-.687-.695-.816-1.914-1.5-2.656l.093-.375zm26.907 1.063l.031.218-6.781 2.563v-.063l6.75-2.719zm.625.124c.104.194.355.507.125.813l-7.438 3-.031-.875 7.344-2.938zm-8.5.407c.199-.025.444.064.687.219l1.688 25.156c.05 1.815-1.395.928-1.125.375l-1.656-25.25c.126-.314.207-.476.406-.5zm8.031.875l.188 2-6.876 2.437L67 90.344l6.75-2.875zm-25.375.094l.031.062 1.032-.031v.437c-.195-.074-.78.06-1.126.063l.063-.531zm1.5 0h.094l2.656 3.093-.406 3.094-.157.344c-.03-.022-.069-.036-.093-.063-.512-.57.265-2.011 0-2.687-.528-1.345-1.292-2.068-2.219-3.031l.125-.75zm15.219 1.906l.062 1.156-9.281 3.75c-.09-.375-.187-.768-.25-1.094l9.469-3.812zm9.531 0c.386.294.246 1.005 0 1.125l-7.469 2.656-.094-1 7.563-2.781zM74.094 91l.187 1.75-7 2.469-.125-1.625L74.094 91zm.719 1.719c.015.331.42.58.062 1.125l-7.5 2.687-.063-1 7.5-2.812zm-19.5.656c.025.352.09.692.187 1.031-.632-.36-2.121-.014-3-.156l.156-.563 2.657-.312zm19.093.906l.25 2-7.125 2.5-.125-1.969 7-2.53zm-17.281.344l-.406 17.188c-.755 2.234-1.914-.265-1.344-2l.375-14.626 1.375-.562zm18.031 1.625c.473.169.218.807 0 1.188l-7.531 2.593-.094-1 7.625-2.781zm-.375 1.531L75 99.906l-7.219 2.5-.125-2.031 7.125-2.594zm.656 2.188c.347.246.549.737.188 1.219l-7.75 2.593-.031-1.062 7.594-2.75zm-.28 1.531l.187 1.563L68 105.624l-.094-1.531 7.25-2.594zm.687 1.563c.234.326.267.677.031 1.062l-7.781 2.813-.063-1 7.813-2.876zm-.375 1.406l.219 2-7.438 2.594-.125-1.782 7.344-2.812zm.625 2.125c.21.28.325.607.125 1.062l-7.875 2.688-.063-.938 7.813-2.812z" fill="#5c2700" fill-rule="evenodd"/>
</svg>
