<?xml version="1.0" encoding="UTF-8"?>
<svg width="128" height="128" version="1.0" xmlns="http://www.w3.org/2000/svg" xmlns:xlink="http://www.w3.org/1999/xlink">
 <path d="M108.781 24.031c-.952.007-1.893.055-2.844.094l.126 2.625c-.475.283-1.099.246-1.626.406l-.03-.531-1.907-1.781c-1.456.754-3.01 1.051-4.906 3.156l.187 2.469c-.805 2.87-.559 6.08-.375 9.031.432.915 1.23 1.537 2.031 2.125l-.28 9.156-3.313.938.125 2.875-1.344-.25-2.594-1.469-5.969 2.375.282 2.063-1.125.28-2.469-1.374-5.594 1.468.438 2.782H76.28L76 60.437l-2.375-1.468-4.906 1.593.312 2.126-1.719.28-2.5-1.374-4.53 1.187.312 2.438-2.344.656-2.563-1.313-4.718 1.376.062 2.093-2.75.625v-.031l-.187.063-2.438-1.438-5.375 1.281.094 2.156-2.344.75-.375-.343-2.375-1.281-2.156.593-.031-.5c.682-.548 1.249-1.19 1.593-1.937.073-3.285-.104-5.836-.156-8.75-.026-1.033-.376-2.087-1-3.032-.797-1.078-1.546-1.346-2.281-1.906L29.219 55v.719c-.641-.344-1.164-.299-1.75-.313l-.125-.562-1.157-2.157a17.54 17.54 0 00-2.843-.187c-.953.006-1.894.055-2.844.094l.125 2.625c-.474.283-1.098.246-1.625.406l-.031-.531-1.907-1.782c-1.455.755-3.01 1.052-4.906 3.157l.188 2.468c-.805 2.872-.56 6.081-.375 9.032.431.915 1.23 1.536 2.031 2.125l-1.375 40.5c6.144 6.803 17.688 5.612 22.563.344l-.063-1.407 21.344-7.625-.032-3.187 2.313-.75v1.937c.491.537 1.203.36 1.594-.625l-.032-1.781 4.438-1.469.031 1.75c.69.592.902.587 1.563-.75v-1.5l3.969-1.281v1.438c.544.554 1.74.396 1.812-.876v-1.124l2.688-.876c-.003.27.002 1.348 0 1.532.413.394.987.53 1.75-.813V92.22l3.656-1.156v1.562c1.728.567 1.61-.434 1.687-.656v-1.344l2.844 1.281 17.906-6.5c6.21 2.79 14.141 1.2 17.969-2.937l-2.094-41.031c.682-.549 1.25-1.191 1.594-1.938.072-3.285-.105-5.836-.156-8.75-.027-1.033-.376-2.087-1-3.031-.797-1.079-1.546-1.346-2.281-1.907l-2.032.72v.718c-.64-.344-1.164-.299-1.75-.313l-.125-.562-1.156-2.156a17.54 17.54 0 00-2.844-.188zm-.812.438c.359-.01.708.003 1.125 0 .832-.006 1.582.036 2.375.218l.687 1.25c-1.477-.29-2.745-.713-4.656-.218l-.656-1.125c.397-.08.766-.115 1.125-.125zm-1.719.187l.844 1.25.281 1.875-.969-1.218-.156-1.907zm-3.875.688l1.188 1.125c-1.429.396-2.42.775-3.407 2.187L98.5 27.75c1.033-1.29 2.214-1.746 3.875-2.406zm7 .687c1.069.02 2.016.279 3.031.469l.125 1.75c.877.296 2.016 1.26 2.5 1.219l-.187-2.625c.807.563 1.483 1.328 1.812 1.937.354.656.455 1.318.219 2.063l-.063 1.343c-2.199-2.6-5.43-3.289-8.687-2.906-2.37.393-4.886 1.154-6.594 2.938l-1.094-.688-.062-.25-.094-2c.878-1.443 2.238-1.963 3.781-2.406l.22 2.031c.716.023 1.516.044 3.406-.562l-.22-2.094c.622-.203 1.267-.189 1.907-.219zm7.25.469c.74.541 1.419.72 1.969 1.375.54.643.894 1.558.906 2.656l-2.125-.062c.165-.734-.085-1.16-.438-1.813-.35-.65-.718-1.344-1.5-1.906l1.188-.25zm-10.438.563l.813 1.156c-.734.293-1.356.565-2.281.468l-.031-1.218c.634.022.959-.078 1.5-.407zm7 .25c.495-.012.975.125 1.47.437l.03 1.219c-.511-.345-1.195-.81-1.812-.969l.031-.656c.093-.01.189-.03.281-.032zm-15.156.875l1.875.906.063 1.937c-.567-.116-1.097-.166-1.813-.656l-.125-2.188zm11.375 1.5c2.853-.049 5.404.567 7.25 2.937.018.298-.104.401-.281.594l-.781-1.532c-2.033.984-4.119 1.866-6.594 1.875l-.281 2.876c-1.108-.007-1.851.092-3.063-.376l-.25-2.343c-1.536-.28-2.76-.683-3.5-1.157 1.666-1.68 4.008-2.426 6.281-2.812.42-.03.812-.056 1.22-.063zm10.188 1.156l-.031 2.25-2.438-.407.094-1.75 2.375-.093zm-21.406.187l1.78.407.126.25-1.844.468-.281 1.282c-.1-.672-.007-1.733.219-2.407zm2.343 1.032c.707.859 1.888 1.399 4 1.843l-1.5.75c-1.522-.504-3.044.02-4.219-2l1.72-.593zm14.906.093l.688 1.907c-2.191.622-3.837 1.382-6.156 1.312l-.438-1.438c1.894-.175 3.787-.666 5.906-1.78zm1.75 1.032l2.438.25c-.217 1.465-1.378 2.412-2.5 3.218l-.281-2.375-.25-.562c.338-.147.471-.216.594-.532zm-18.78.187c1.065 1.44 2.899 1.353 4.5 1.938l-.063 2.656c1.37.437 2.506.73 7 .843l.094-2.718c2.46.058 4.333-.894 6.53-1.5l.407 2.843c1.254-.813 2.167-1.385 2.813-2.75.14 1.709.014 2.67-.126 4.438-2.271 3.674-6.81 4.605-10.75 4.656-3.85-.198-8.329-.912-10.718-4.343-.17-2.141-.81-4.33-.375-5.907l.437 1.063.25-1.219zm10.718.75l.469 1.594-.188 2.343-.344-1.687.063-2.25zm-3.969.063l.063 1.843-1.875 1.125.094-1.812 1.718-1.157zm.406 2.218c1.28.487 2.1.427 3.22.438l.25 1.406c-1.92.083-3.654-.04-5.407-.75l1.938-1.094zm-5.5 5.5c2.707 1.56 5.557 2.175 8.626 2.313 3.259.02 6.42-.354 9.187-2.188.858 6.903 1.862 33.222 2.281 40.188-6.846 5.155-12.692 4.65-16.75 2.844l-.062-28.438v-5l-2.563-1.313-1.156.313c.125-3.266.281-7.162.438-8.719zm.376 8.813l2.312.968-4.188 1.376-1.937-.97 3.813-1.374zM102.906 52v4.344L33.531 78.125l-.25-4.781 4.032-1.438.28 2.25 6.157-1.5-.281-2.281 4.593-1.063.126 2.063 6.093-1.688-.25-2.093L58 66.344l.188 2.125 5.374-1.531-.062-2.22 3.656-1.156.219 1.844 4.813-.75-.22-2.5 3.907-1.062.375 1.937 4.313-.781-.063-2.688 4.469-1.25.594 1.907 4.062-1 .031-2.407 3.969-1.656.406 2.907 5.063-1.438.062-3.125 3.75-1.5zm-6.375.563l1.969.937.094 2.188-2.125-1.094.062-2.032zm17.031.25c-1.365 2.52-2.315 3.813-2.062 8.843l5.406-1.312c-.474-1.557-.7-2.68-1.125-4.25-.513-1.582-1.143-2.037-2.219-3.282zm-91.03.124c.358-.01.708.003 1.124 0 .833-.005 1.582.037 2.375.22l.688 1.25c-1.478-.291-2.745-.714-4.657-.22l-.656-1.124c.398-.08.766-.115 1.125-.126zm-1.72.188l.844 1.25.282 1.875-.97-1.219-.155-1.906zm92.813.375c.783.751 1.333 1.672 1.688 2.781.368 1.152.622 2.434.968 3.688L112 61.094c.11-2.829.252-5.542 1.625-7.594zm-22.313.031l2.657 1.219-4.844 1.719-2.031-1.063 4.219-1.875zm-74.374.282l1.187 1.124c-1.428.397-2.42.776-3.406 2.188l-1.656-.906c1.032-1.29 2.213-1.746 3.874-2.407zm7 .687c1.069.02 2.015.278 3.03.469l.126 1.75c.876.295 2.016 1.26 2.5 1.218l-.188-2.624c.807.563 1.484 1.328 1.813 1.937.354.656.454 1.318.218 2.063l-.062 1.343c-2.2-2.6-5.43-3.289-8.688-2.906-2.369.393-4.886 1.154-6.593 2.938L15 60l-.063-.25-.093-2c.877-1.443 2.238-1.963 3.781-2.406l.219 2.031c.716.023 1.517.043 3.406-.563l-.219-2.093c.621-.203 1.266-.19 1.907-.219zm70.562.375l1.969.375 2.031.938-4.125 1.187.125-2.5zm-63.313.094c.741.54 1.42.72 1.97 1.375.54.643.894 1.558.906 2.656l-2.126-.063c.165-.733-.085-1.16-.437-1.812-.351-.65-.718-1.344-1.5-1.906l1.188-.25zm-10.437.562l.813 1.157c-.735.292-1.356.564-2.282.468l-.031-1.218c.635.022.96-.078 1.5-.407zm7 .25c.495-.011.974.125 1.469.438l.031 1.218c-.512-.344-1.195-.81-1.813-.968l.032-.657c.092-.008.189-.029.281-.03zm59.281.125l1.656.782.25 1.718L87 57.375l.031-1.469zm-74.437.75l1.875.907.062 1.937c-.566-.116-1.096-.166-1.812-.656l-.125-2.188zm90.312.063l-.031 28.125-15.531 5.562.031-19.781c-2.612-.633-6.005-1.1-8.938-1.094-8.797.022-18.383 3.245-25 11.438l.094 21.5-18.437 6.594L33.53 78.53l69.375-21.812zm-20.562.218l2 .938-4.094 1.063-1.781-.907 3.875-1.093zm4.531.907l2.094 1.031-2.813.594L85.531 58l1.344-.156zm-62.906.312c2.853-.048 5.404.568 7.25 2.938.018.298-.104.401-.282.593l-.78-1.53c-2.033.983-4.12 1.865-6.595 1.874l-.28 2.875c-1.108-.006-1.852.093-3.063-.375l-.25-2.344c-1.536-.28-2.76-.682-3.5-1.156 1.666-1.68 4.007-2.426 6.281-2.812.419-.03.811-.056 1.219-.063zm53.906.094l1.938.906.374 2.563-2.25-1.157-.062-2.312zm-43.719 1.063l-.031 2.25-2.438-.407.094-1.75 2.375-.093zM12.75 59.5l1.781.406.125.25-1.844.469-.28 1.281c-.1-.671-.008-1.732.218-2.406zm60.5.219l1.906.968-3.312 1.094-2.125-1.093 3.531-.97zm-58.156.812c.707.86 1.887 1.4 4 1.844l-1.5.75c-1.523-.504-3.044.02-4.219-2l1.719-.594zM30 60.625l.688 1.906c-2.192.622-3.838 1.383-6.157 1.313l-.437-1.438c1.894-.175 3.787-.666 5.906-1.781zm47.531.281l2.188 1.032-2.844.593L76.437 61l1.094-.094zm-8.156.125l1.969.938.312 2.093-2.125-1-.156-2.03zm-37.625.625l2.438.25c-.217 1.466-1.378 2.412-2.5 3.219l-.282-2.375-.25-.563c.338-.146.472-.215.594-.53zm-18.781.188c1.065 1.44 2.9 1.352 4.5 1.937l-.063 2.657c1.37.436 2.506.73 7 .843l.094-2.719c2.46.059 4.334-.893 6.531-1.5l.407 2.844c1.254-.813 2.166-1.386 2.812-2.75.14 1.708.014 2.67-.125 4.438-2.271 3.674-6.81 4.604-10.75 4.656-3.85-.198-8.33-.912-10.719-4.344-.17-2.14-.81-4.33-.375-5.906l.438 1.063.25-1.22zm51.562.343l2.156.97-3.718.968-1.75-.875 3.312-1.063zm-40.844.407l.47 1.593-.188 2.344-.344-1.687.063-2.25zm-3.968.062l.062 1.844-1.875 1.125.094-1.813 1.719-1.156zm47.812.563l1.344.062 2.156 1.032-3.031.53-.469-1.624zm-6.656.375l2.094 1 .218 1.75-2.25-1.188-.062-1.562zm-40.75 1.281c1.28.487 2.1.427 3.219.438l.25 1.406c-1.92.083-3.654-.04-5.407-.75l1.938-1.094zm35.25.094l2.219 1.187-3.844 1.125-2.156-1.125 3.781-1.187zm5.344.656l2.218 1.031-4.312 1.156-.281-1.718 2.375-.469zm-9.25 1l2.125 1.031.062 1.625-2-1.062-.187-1.594zm-6.032 1.313l2.094.874-4.437 1.032-1.844-.938 4.188-.969zm5.5.5l2.25 1.062-4.53 1.125-.313-1.75 2.593-.438zm-10.062.812l2.031.969.094 1.687-1.938-1.031-.187-1.625zm38 .531c2.948.004 5.748.393 8.25 1.094L87 90.531l-1.75.625.031-18.719c-2.582-.488-5.44-.81-7.969-.75-7.585.18-14.899 3.04-21.656 9.97l-.031 20.062-1.844.656-.125-21.188c6.32-8.064 16.376-11.417 25.219-11.406zm-64.25.594c2.707 1.56 5.556 2.174 8.625 2.313 3.26.02 6.421-.354 9.188-2.188.857 6.902 1.862 33.222 2.28 40.188-10.267 7.732-18.356 2.833-21.406-.282.287-6.892.646-33.393 1.313-40.031zm20.063.156l2.374.906-3.843 1.188-.063-1.406 1.532-.688zm5.968.531l2.407 1.22-4.876 1.156-.25-1.813 2.72-.563zM77.031 72.5a22.61 22.61 0 012.469.094v1.156l-2.906.844V72.53c.147-.004.29-.029.437-.031zm-.781.031l-.063 20.906c-.493.93-.766.87-1.03.657l.03-21.5c.356-.03.706-.047 1.063-.063zm-1.344.094c-.003.842.004 1.536 0 2.469L71.875 76l-.031-2.906a26.207 26.207 0 013.062-.469zm4.938 0l.312.031v.906l-.312.094v-1.031zm.594.063c.336.036.672.108 1.03.156l.094 19.187c-.3.834-.861.288-1.156.25l.031-19.594zm1.406.187c.152.021.285.04.437.063l-.437.124v-.187zm.969.219c.242.292.528.561-.032.969l-.937.28v-.968l.969-.281zm-11.22.031l.313 21.688c-.177 1.212-.828.504-1.219.53l-.25-21.906c.39-.107.766-.224 1.157-.312zm11.657 0c.376.068.785.11 1.125.188l.281 17.874-2.125-.874.781-.25c.808-.32.748-1.53-.156-1.657l-1.25.406v-2.374l1.438-.5c.375-.018.707-1.547-.156-1.626l-1.313.438v-2.313l1.188-.374c1.034-.789.446-1.802-.094-1.813l-1.094.344v-2.375l1.313-.406c.489-.782.32-1.503-.25-1.657l-1.094.313v-1.813l1.219-.344c.317-.425.335-.813.187-1.187zm-13.094.406l.031 2.938-3.968 1.187V75a26.612 26.612 0 013.937-1.469zm10 .344v.969l-3.562 1.062v-1.031l3.562-1zm0 1.281L80.187 77l-.312.094-.031-1.844.312-.094zm-14.312.031l.125 21.657c-.239.598-.583.702-.938.719l-.219-21.876c.337-.18.693-.335 1.032-.5zm13.656.157l-.031 1.875-2.875.844v-1.844l2.906-.875zm-4.594.031c-.001.381-.03.61-.031 1l-2.969.906-.031-1.031 3.031-.875zm-10.375.469l.031 2.281-4.5 1.313v-.594a31.707 31.707 0 014.47-3zm18.313.594c.478.469.692.89 0 1.124l-.969.282-.031-1.125 1-.281zm-12.656.28v1.063L66.25 78.97v-1.094l3.938-1.156zm4.687 0c-.003.739.003 1.12 0 1.876l-2.938.906-.03-1.906 2.968-.875zm5.313.532v1.125l-3.594 1.094v-1.125l3.594-1.094zm-10 .844v1.937L66.25 81.22V79.28l3.938-1.187zm-5.626.281v1.063l-4.468 1.343-.032-1.125 4.5-1.281zm15.626.375v2.438l-.282.093-.031-2.469.313-.062zm-5.313.094c-.002.467.002.689 0 1.156l-2.938.875V79.75l2.938-.906zm4.594.094l-.031 2.5-2.844.968v-2.594l2.875-.874zm-19.813.25L60 99.156c-.25.283-.449.87-.875.656l-.25-20c.255-.22.525-.414.781-.624zm4.907.562l.03 1.938-4.468 1.343-.031-1.969 4.468-1.312zm-5.97.344v1.125l-1.75.531a40.636 40.636 0 011.688-1.625l.063-.031zm11.626.187v1.125l-3.969 1.188v-1.125l3.969-1.188zm4.656.063c-.004 1.072.004 1.622 0 2.656L72 83.969l-.063-2.75 2.938-.875zm8.188.219c.122.445.474.914-.063 1.25l-1.125.374v-1.25l1.188-.374zm-54.344.53c-1.366 2.52-2.347 3.814-2.094 8.844l5.406-1.312c-.474-1.557-.67-2.679-1.093-4.25-.514-1.581-1.144-2.037-2.22-3.281zm29.875.407l.031 2-2.281.688V82.25c.03-.032.062-.062.093-.094l2.157-.656zm21.593.031v1.156l-3.624 1.157.03-1.125 3.594-1.188zm-9.968.219v2.813l-3.938 1.312-.031-2.938 3.969-1.187zm-41.438.031c.783.752 1.333 1.672 1.688 2.781.368 1.152.622 2.435.968 3.688l-4.28 1.125c.109-2.828.25-5.542 1.624-7.594zm35.813.156l.031 1.157-4.5 1.375v-1.156l4.469-1.376zm15.594 1.032l.03 2.344-.312.124v-2.406l.281-.062zm-.75.219v2.406l-2.876.937v-2.406l2.876-.938zm-4.563.124c-.002.411-.03.665-.031 1.063L72 85.281v-1l2.875-.969zm-10.25.126l.031 3-4.469 1.5-.03-3.126 4.468-1.374zm-6 .312v1.156l-2.25.688-.031-1.156 2.281-.688zm16.219.875c-.004.928.003 1.674 0 2.5l-2.813.938-.031-2.5 2.844-.938zm8.312 0c.23.196.459.93.094 1.094l-1.344.469-.031-1.126 1.281-.437zm-12.906.25v.969l-3.969 1.25v-.906l3.969-1.313zm-11.625.375l.031 3.188-2.281.78v-3.25l2.25-.718zm21.594.344v1.125l-3.656 1.25v-1.125l3.656-1.25zm-9.969.5v2.531l-3.938 1.344-.03-2.625 3.968-1.25zm-5.594.625v.875l-4.469 1.437v-.781l4.47-1.531zM80.22 87v2.344l-.281-.094v-2.156l.28-.094zm-.813.281V89.5l.156.063-3 .937v-2.25l2.844-.969zm-4.562.156c-.002.355.001.766 0 1.094l-2.781.938-.032-1.094 2.813-.938zm-10.188.407l.031 2.656L60.25 92l-.031-2.719 4.437-1.437zm18.25.844c1.21.306.498.905.188 1.187l-.938.281-.25-.094V89l1-.313zm-24.25.062v.75l-2.25.719-.031-.719 2.281-.75zm16.188.063c-.003.66-.028 1.726-.031 2.25l-2.72.874-.03-2.156 2.78-.969zm-4.594.156l.031 1.094-3.969 1.343v-1.125l3.938-1.312zm9.969.594v1.218l-3.656 1.156V90.72l3.656-1.156zm-21.563.187l.032 2.781-2.282.75V90.47l2.25-.719zm11.625.594V92.5l-3.969 1.281V91.72l3.97-1.375zm-5.594.5l.032 1.094-4.469 1.5v-1.094l4.438-1.5zm10.126.437c-.002.276.001.991 0 1.219l-2.72.875v-1.188l2.72-.906zm-10.094.969l.031 2.031-4.469 1.438V93.75l4.438-1.5zm5.562.5l.031 1.188-3.968 1.28-.031-1.187 3.968-1.281zm-11.594.125v1.063l-2.25.78-.03-1.093 2.28-.75zm.032 1.406v1.906l-2.282.75v-1.874l2.282-.782zm6.031.25v1.188l-4.438 1.437V95.97l4.438-1.438zM58.719 96.5v1.125l-2.282.75v-1.156l2.282-.719z" fill="#5c2700" fill-rule="evenodd"/>
</svg>
