<?xml version="1.0" encoding="UTF-8"?>
<svg width="128" height="128" version="1.0" xmlns="http://www.w3.org/2000/svg" xmlns:xlink="http://www.w3.org/1999/xlink">
 <g fill-rule="evenodd">
  <path d="M63.625 34.219l-8.93 4.243-.121 2.142-.544.864-1.6-1.971-46.086 21.94-.407 6.813 57.938 43 31.469-14.094L95.28 95l.188-.094v1.625c1.001.114 1.586-.329 2.094-.875l-.032-1.562.281-.125v1.437c.813.048 1.626.086 2.438-.844v-.843l1.25.812 24.5-10.75-.313-7.031-62.062-42.531zm0 .531l61.031 42.063-6.85 3.046-.64 1.422-1.265.105-.557 2.622-1.252-2.411-10.03 4.372V85l9.144-4.145.954.83.526 1.04.782-1.968 1.19-.18.511-1.306 5.769-2.521-59.063-40.531v-.094l-.063.031-.187-.125-8.228 3.832-.465 1.512-.614 1.288-1.427-1.634L9.063 61.437l24.358 18.21.46 1.72.846-.337.719 1.209.938-.376 27.647 20.668 26.844-11.75 1 .625-28 12.438-28.11-21.052-1.233.874-.495-1.715-.756.466-.628-1.955-25.278-18.93L52.371 39.86l1.634 1.676.79-.804.072-1.813 8.758-4.17zm-.406 1.781l.281 4.313-49.75 23.75-3.906-2.875 43.201-20.387 1.329 1.554.892-1.338.231-1.373 7.722-3.644zm.656.219l57.969 39.906-3.188 1.406L64 41.032l-.125-4.282zm-.219 4.688l54.282 36.937-1 .437-.456 1.585-1.315.075-.497 2.225-.402-1.242-1.253-.912-8.953 3.894-.156-3.124-2.094-1.594-11.406 4.906.063 5.75-26.406 11.531-27.394-20.318-1.08.523-.519-1.412-.715.265-.588-1.528-19.673-14.592 33.125-15.656c-.363.265-.776.618-1.25 1.093l-1.063 3.344 1.5 1.125 7.469-3.5c-.587-1.388-1.715-2.212-2.938-3-.388 0-.553-.172-.874-.063-.37-.012-.89.216-1.282.282l10.688-5.063c-.29.24-.576.513-.907.844L57.5 47.594 59 48.75l7.469-3.531c-.588-1.388-1.715-2.212-2.938-3-.388-.001-.365-.235-.687-.125-.195-.007-.41.012-.625.031l1.437-.688zm-1.093.968c-.79.474-2.173 1.524-2.844 2.25-.327 1.05-.8 2.006-.844 3.282l-.75-.407.656-3.156.782.469c.092-.15-.627-.56-.532-.688.877-1.167 2.594-1.664 3.532-1.75zm.437.375c.166-.019.337-.017.5 0 .996.346 2.045 1.613 2.5 2.219l-6.813 3c.132-.569.687-2.428.876-3.125.585-.99 1.775-1.96 2.937-2.094zm-1.563 1.063l-1.187 2.125.219.093 1.031-1.468.531 1.25.688-.188-.438-1.312.969.656.625-.938-.219-.156-.312.813L62.187 44l.25 1.531-1-1.687zm5.438 1.593l-7.75 3.594 9.281 6.875 7.5-3.75-9.031-6.718zm-.063.376l8.657 6.343-6.844 3.313-8.781-6.532 6.968-3.124zm-.25.25l.063 1.562.031-.031.281-1.5-.374-.032zm.032 1.75l-2.219 1.093.188.188 2.093-1.282h-.062zm.844.03l-.063.094 3.969 3.282h.156l-4.063-3.375zm-17.72.782c-.79.474-1.921 1.336-2.593 2.063-.327 1.05-.8 2.005-.844 3.28l-.75-.406.657-3.156.78.469c.094-.15-.626-.56-.53-.688.877-1.167 2.343-1.476 3.28-1.562zm.688.188c.166-.02.337-.017.5 0 .997.345 2.046 1.612 2.5 2.218l-6.812 3c.13-.568.686-2.428.875-3.125.586-.99 1.776-1.96 2.937-2.093zm13.063.124l-2.938.282.094.062 2.75-.125.094-.218zm.5.25l-.125.094 4.375 4 .156-.218-4.406-3.876zm-15.125.688L47.656 52l.219.094 1.031-1.469.532 1.25.687-.188-.438-1.312.97.656.624-.937-.218-.157-.313.813-1.156-.719.25 1.532-1-1.688zm22.5 1.531l-2.5 1.469.187.281 2.344-1.718-.031-.032zm-17.063.063l-7.718 3.562 9.25 6.907 7.5-3.75-9.032-6.72zm17.657.093l-.063.282c.95.217 1.884.207 2.844.375v-.094c-.938-.103-1.86-.368-2.781-.563zm-17.72.282l8.657 6.343-6.844 3.313-8.781-6.531 6.969-3.125zm-.25.25l.063 1.562.032-.031.28-1.5-.374-.031zm14.75 1.437l-.406.032.126 1.468h.124l.157-1.5zM54 53.844l-2.219 1.093.188.188 2.093-1.281H54zm.844.031l-.063.094 3.969 3.281h.156l-4.062-3.375zm24 .625a.519.519 0 00-.219.031c-1.015-.034-2.052.112-4.094 2.157L73.47 60.03l1.5 1.125 7.469-3.5c-.588-1.387-1.715-2.211-2.938-3-.291 0-.456-.136-.656-.156zm-39.313.156c-.388 0-.74-.172-1.062-.062-1.015-.035-1.865.05-3.907 2.093L33.5 60.032l1.5 1.125 7.469-3.5c-.588-1.387-1.715-2.211-2.938-3zm38.75.188c-.79.474-1.922 1.523-2.594 2.25-.326 1.05-.799 2.005-.843 3.281l-.75-.406.656-3.157.781.47c.093-.151-.626-.561-.531-.688.877-1.168 2.344-1.664 3.281-1.75zm-27.406.125l-2.938.281.094.063 2.75-.126.094-.218zm-12.5-.063c-.79.474-1.985 1.461-2.656 2.188-.327 1.05-.8 2.005-.844 3.281l-.75-.406.656-3.157.782.47c.092-.151-.627-.561-.532-.688.877-1.168 2.406-1.602 3.344-1.688zm.625.313a2.32 2.32 0 01.5 0c.996.345 2.045 1.612 2.5 2.218l-6.813 3c.132-.568.687-2.428.876-3.124.585-.99 1.775-1.96 2.937-2.094zm12.375 0l-.125.093 4.375 4 .156-.218-4.406-3.875zm27.594 0a2.32 2.32 0 01.5 0c.996.345 2.045 1.612 2.5 2.218l-6.813 3c.131-.568.687-2.428.875-3.124.586-.99 1.776-1.96 2.938-2.094zM37.438 56.28l-1.188 2.125.219.094 1.031-1.469.531 1.25.688-.187-.438-1.313.969.657.625-.938-.219-.156-.312.812-1.157-.718.25 1.53-1-1.687zm39.968 0l-1.187 2.125.219.094 1.03-1.469.532 1.25.688-.187-.438-1.313.969.657.625-.938-.219-.156-.313.812-1.156-.718.25 1.53-1-1.687zM58.75 57.438l-2.5 1.468.188.282 2.343-1.72-.031-.03zm.594.156l-.063.281c.95.217 1.884.207 2.844.375v-.094c-.938-.103-1.86-.368-2.781-.562zm-16.469.281l-7.75 3.563 9.281 6.906 7.5-3.75-9.031-6.719zm39.969 0l-7.75 3.563 9.281 6.906 7.5-3.75-9.031-6.719zm-40.031.375l8.656 6.344-6.844 3.312-8.781-6.531 6.968-3.125zm39.968 0l8.656 6.344-6.843 3.312-8.781-6.531 6.968-3.125zm-40.219.25l.063 1.563.031-.032.282-1.5-.376-.031zm39.97 0l.062 1.563.031-.032.281-1.5-.375-.031zm-26.407 1.063l-.406.03.125 1.47h.125l.156-1.5zm-13.531.687l-2.219 1.094.188.187 2.093-1.281h-.062zm39.968 0l-2.218 1.094.187.187 2.094-1.281h-.063zm-39.124.031l-.063.094 3.969 3.281h.156l-4.063-3.375zm39.968 0l-.062.094 3.969 3.281h.156l-4.063-3.375zm-16.875.563c-.049-.013-.107.004-.187.031-1.015-.035-2.24.174-4.281 2.219L61 66.437l1.5 1.126 7.469-3.5c-.588-1.388-1.715-2.212-2.938-3-.291-.001-.352-.182-.5-.22zm-.406.343c-.79.474-2.235 1.587-2.906 2.313-.327 1.05-.8 2.005-.844 3.281l-.75-.406.656-3.156.782.468c.092-.15-.627-.56-.532-.687.877-1.167 2.656-1.726 3.594-1.813zm-26.656.188l-2.938.281.094.063 2.75-.125.094-.219zm39.968 0l-2.937.281.094.063 2.75-.125.094-.219zm-51.812-.25c-.389 0-.678-.297-1-.188-1.015-.034-1.927.175-3.969 2.22L21.594 66.5l1.5 1.156 7.468-3.531c-.587-1.388-1.714-2.212-2.937-3zm12.344.5l-.125.094 4.375 4 .156-.219-4.406-3.875zm26.531 0c.166-.02.337-.017.5 0 .996.345 2.045 1.612 2.5 2.219l-6.813 3c.132-.569.687-2.429.876-3.125.585-.99 1.775-1.96 2.937-2.094zm13.438 0l-.126.094 4.376 4 .156-.219-4.406-3.875zm-53.157-.313c-.79.474-2.297 1.524-2.968 2.25-.327 1.05-.8 2.006-.844 3.282l-.75-.406.656-3.157.781.469c.093-.15-.626-.56-.531-.688.877-1.167 2.719-1.663 3.656-1.75zm-19.562.782l24.876 18.612 1.033 2.04.626-.376.83 1.871.774-1.093 28.205 21.102v6.156L7.03 67.844l.188-5.75zm19.875-.407c.166-.019.337-.016.5 0 .996.346 2.045 1.613 2.5 2.22l-6.813 3c.131-.57.687-2.429.875-3.126.586-.99 1.776-1.96 2.938-2.093zm37.843 1l-1.187 2.126.219.093L65 63.437l.531 1.25.688-.187-.438-1.313.969.657.625-.938-.219-.156-.312.813-1.156-.72.25 1.532-1-1.688zm-39.406.063l-1.187 2.125.218.094 1.032-1.469.531 1.25.688-.188-.438-1.312.969.656.625-.937-.219-.157-.313.813-1.156-.719.25 1.532-1-1.688zm21.813 1.094l-2.5 1.468.187.282 2.344-1.719-.031-.031zm39.968 0l-2.5 1.468.188.282 2.344-1.719-.031-.031zM47.938 64l-.063.281c.95.217 1.884.207 2.844.375v-.094c-.938-.103-1.86-.368-2.782-.562zm39.968 0l-.062.281c.95.217 1.884.207 2.844.375v-.094c-.938-.103-1.86-.368-2.782-.562zm-17.531.281l-7.75 3.563 9.281 6.906 7.5-3.75-9.031-6.719zm-.063.375L78.97 71l-6.844 3.313-8.781-6.532 6.968-3.125zm-39.343-.312l-7.75 3.594 9.281 6.874 7.5-3.75-9.031-6.718zm39.093.562l.063 1.563.031-.031.281-1.5-.374-.032zm-39.156-.187l8.657 6.344-6.844 3.312-8.782-6.531 6.97-3.125zm-.25.25l.063 1.562.031-.031.281-1.5-.375-.031zm65.281.75c-2.043.084-3.387.613-4.968 2.031l-1.063 3.344 1.469 1.125 7.5-3.5c-.587-1.388-1.715-2.212-2.938-3zm-51.218.25l-.407.031.126 1.469h.124l.157-1.5zm39.968 0l-.406.031.125 1.469h.125l.156-1.5zm9.97.25c-.791.474-1.86 1.211-2.532 1.937-.327 1.05-.8 2.006-.844 3.281l-.75-.406.656-3.156.782.469c.093-.15-.627-.56-.531-.688.877-1.167 2.28-1.351 3.218-1.437zm.75.062c.165-.019.336-.017.5 0 .996.346 2.045 1.613 2.5 2.219l-6.813 3c.13-.569.686-2.428.875-3.125.586-.99 1.776-1.96 2.937-2.094zm-25.313.375l-2.219 1.094.188.188 2.093-1.282h-.062zm.844.031l-.063.094 3.969 3.281H75l-4.063-3.374zm-40.25.032l-2.22 1.094.188.187 2.094-1.281h-.063zm.843.031l-.062.094 3.968 3.281h.157L31.53 66.75zm62.313.594l-1.188 2.125.219.094 1.031-1.47.531 1.25.688-.187-.438-1.312.97.656.624-.938-.219-.156-.312.813-1.156-.719.25 1.531-1-1.687zm-38.219.094c-.389-.001-.553-.235-.875-.126-1.015-.034-2.052.112-4.094 2.157l-1.062 3.344 1.5 1.156 7.468-3.531c-.587-1.388-1.714-2.212-2.937-3zm11.344.343l-2.938.281.094.063 2.75-.125.094-.219zm-12.563-.031c-.79.474-1.922 1.399-2.593 2.125-.327 1.05-.8 2.005-.844 3.281l-.75-.406.656-3.156.781.469c.093-.151-.626-.561-.531-.688.877-1.167 2.344-1.539 3.281-1.625zm.688.25c.166-.02.337-.017.5 0 .996.345 2.045 1.612 2.5 2.219l-6.813 3c.131-.569.687-2.429.875-3.125.586-.99 1.776-1.96 2.938-2.094zm12.375.031l-.125.094 4.375 4 .156-.219-4.406-3.875zm-39.906-.187l-2.938.281.094.063 2.75-.126.093-.218zm.5.25l-.125.094 4.375 4 .156-.22-4.407-3.874zm71.218.844l-7.75 3.562 9.281 6.906 7.5-3.75-9.03-6.719zm-45.75.124l-1.187 2.126.218.093 1.032-1.469.531 1.25.688-.187-.438-1.313.969.657.625-.938-.219-.156-.313.813-1.156-.72.25 1.532-1-1.688zm45.688.25l8.656 6.344-6.844 3.313-8.781-6.531 6.969-3.126zm-.25.25l.062 1.563.031-.031.282-1.5-.375-.031zm-24.125.688l-2.5 1.469.187.281 2.344-1.719-.031-.031zm.594.156l-.063.281c.95.217 1.884.208 2.844.376v-.094c-.938-.104-1.86-.368-2.781-.563zm-16.47.25l-7.75 3.594 9.282 6.906 7.5-3.781-9.031-6.719zm-23.53-.344l-2.5 1.47.187.28 2.344-1.718-.032-.031zm.593.157l-.062.281c.95.217 1.884.207 2.843.375v-.094c-.937-.103-1.859-.368-2.78-.562zm22.875.562l8.657 6.344-6.844 3.313-8.782-6.532 6.97-3.125zm-.25.25l.063 1.563.031-.031.281-1.5-.375-.032zM99 71.312l-2.219 1.094.188.188 2.094-1.281H99zm.844.032l-.063.094 3.969 3.28h.156l-4.062-3.374zm-17.625.562c-.055-.012-.107.004-.188.031-1.015-.034-2.177.175-4.219 2.22L76.75 77.5l1.5 1.125 7.469-3.5c-.588-1.388-1.715-2.212-2.938-3-.291 0-.397-.182-.562-.219zm-10 .469l-.406.031.124 1.469h.126l.156-1.5zm9.406 0c-.79.474-1.985 1.461-2.656 2.188-.327 1.05-.8 2.005-.844 3.28l-.75-.406.656-3.156.781.469c.093-.15-.626-.56-.53-.688.876-1.167 2.405-1.6 3.343-1.687zm14.25.063l-2.938.28.094.063 2.75-.125.094-.219zm-13.625.25c.166-.02.337-.017.5 0 .996.345 2.045 1.612 2.5 2.218l-6.813 3c.132-.568.687-2.428.876-3.125.585-.99 1.775-1.96 2.937-2.094zm14.125 0l-.125.093 4.375 4 .156-.219-4.406-3.874zm-63.563-.25l-.406.03.125 1.47h.125l.157-1.5zm25.876.593l-2.22 1.094.188.188 2.094-1.282h-.063zm.843.031l-.062.094 3.968 3.281h.157l-4.063-3.374zm21.157.688L79.5 75.875l.219.094L80.75 74.5l.531 1.25.688-.188-.438-1.312.969.656.625-.937-.219-.156-.312.812-1.156-.719.25 1.531-1-1.687zm-25.126.406l-2.937.281.094.063 2.75-.125.093-.219zm-11.343.219c-.389 0-.74-.234-1.063-.125-1.015-.035-1.864.112-3.906 2.156l-1.063 3.344 1.47 1.125 7.5-3.5c-.588-1.388-1.715-2.212-2.938-3zm11.843.031l-.124.094 4.374 4 .157-.219-4.407-3.875zm-13 .219c-.79.474-1.984 1.461-2.656 2.188-.326 1.05-.799 2.005-.843 3.28l-.75-.406.656-3.156.781.469c.093-.15-.627-.56-.531-.688.877-1.167 2.406-1.6 3.343-1.687zm60.688.281l-2.5 1.469.188.281 2.343-1.719-.031-.03zm-60.063.031c.166-.019.338-.016.5 0 .997.346 2.046 1.613 2.5 2.22l-6.812 3c.131-.57.686-2.429.875-3.126.586-.99 1.776-1.96 2.938-2.094zm60.657.126l-.063.28c.95.218 1.884.208 2.844.376v-.094c-.938-.103-1.86-.368-2.781-.563zm-18.219.28l-7.75 3.563 9.281 6.906 7.5-3.75-9.031-6.718zm-.063.376l8.657 6.344-6.844 3.312-8.781-6.531 6.969-3.125zm-.25.25l.063 1.562.031-.031.281-1.5-.374-.031zM42.126 76l-1.188 2.125.22.094 1.03-1.469.532 1.25.687-.188-.437-1.312.968.656.626-.937-.22-.156-.312.812-1.156-.719.25 1.531-1-1.687zm21.313.625l-2.5 1.469.187.281 2.344-1.719-.032-.031zm.593.156l-.062.281c.95.218 1.884.208 2.843.376v-.094c-.937-.104-1.859-.368-2.78-.563zm37.094.25l-.406.031.125 1.47h.125l.156-1.5zm24.25 0l.156 6.469-23.969 10.594.094-9.969-6.969 3.156.094 9.688-30.5 13.5-.156-6.25L92.719 91.53l-.156-4.937 10.906-5 .125 4.937 10.384-4.737 1.467 2.599.754-2.555 1.257-.314.543-1.276 7.376-3.217zm-77.813.563l-7.75 3.562 9.282 6.906 7.5-3.75-9.032-6.718zm38.282.125l-2.219 1.094.188.187 2.093-1.281h-.062zm.844.031l-.063.094 3.969 3.281h.156l-4.063-3.375zm-39.188.219l8.656 6.344-6.843 3.312-8.782-6.531 6.969-3.125zm-.25.25l.063 1.562.03-.031.282-1.5-.375-.031zm13.563.531l-.407.031.125 1.469h.125l.157-1.5zm21.906.094l-2.938.281.094.063 2.75-.126.094-.218zm-12.469.031a.495.495 0 00-.219.031c-1.015-.034-1.927.112-3.969 2.156L65 84.406l1.469 1.156 7.5-3.53c-.588-1.388-1.715-2.212-2.938-3-.291-.001-.546-.137-.781-.157zm12.969.219l-.125.094 4.375 4 .156-.22-4.406-3.874zm-13.406.125c-.79.474-1.923 1.523-2.594 2.25-.327 1.05-.8 2.005-.844 3.281l-.75-.406.656-3.156.781.468c.093-.15-.626-.56-.53-.687.876-1.168 2.343-1.664 3.28-1.75zm.687.375a2.32 2.32 0 01.5 0c.996.345 2.045 1.612 2.5 2.219l-6.813 3c.132-.57.687-2.429.876-3.126.585-.99 1.775-1.959 2.937-2.093zm-23.219.375l-2.218 1.094.187.187 2.094-1.281h-.063zm.844.031l-.063.094 3.97 3.281h.156L48.124 80zm53.531.219l1.469 1.187-10.656 4.719-1.625-1.156 10.812-4.75zm-32.719.437l-1.187 2.125.219.094L69 81.406l.531 1.25.688-.187-.438-1.313.969.656.625-.937-.219-.156-.312.812-1.156-.719.25 1.532-1-1.688zm-24.78.438l-2.938.281.093.063 2.75-.126.094-.218zm46.437.219l-2.5 1.468.187.281 2.344-1.718-.031-.031zm-45.938.03l-.125.094 4.375 4 .157-.218-4.407-3.875zm46.532.126l-.063.281c.95.217 1.884.207 2.844.375v-.094c-.938-.103-1.86-.368-2.781-.562zm-16.813.781l-7.75 3.594 9.25 6.875 7.531-3.75-9.031-6.719zm-.063.375l8.657 6.344-6.844 3.312-8.781-6.531 6.969-3.125zm-.25.25l.063 1.563.031-.032.281-1.5-.374-.031zm13.907.563l-.406.03.124 1.47h.126l.156-1.5zm-35.938.124l-2.5 1.47.188.28 2.343-1.718-.03-.031zm.594.157l-.063.281c.95.217 1.885.207 2.844.375v-.094c-.938-.103-1.86-.368-2.781-.562zm48.563.812L101.25 94l-1-.688v-.343l.438-.188c.567-1.046.341-1.854.093-2.656l-.5.219.031-1.031.376-.157c.567-1.046.341-1.854.093-2.656l-.437.219v-.875c-.082.017-.168.018-.25.031l.031-.75 1.063-.594zm-27.094.094l-2.219 1.094.188.187 2.093-1.281h-.062zm.844.031l-.063.094 3.969 3.281H79l-4.063-3.375zm15.937.781l1.25.97.156 4.718-1.219-.875-.187-4.813zm8.844.032v.469c-.66.089-1.31.214-1.906 1.062v.844l-.376.156-.03-.906c-.763-.174-1.405.25-2 .906v.906l-.25.125-.032-1.469 4.594-2.093zm-50.313.219l-.406.03.125 1.47h.125l.156-1.5zm21.563.062l-2.938.281.094.063 2.75-.125.094-.219zm-11.375.219c-.389-.001-.74-.11-1.063 0-1.015-.035-1.864-.013-3.906 2.031l-1.063 3.344 1.5 1.125 7.47-3.5c-.588-1.388-1.715-2.212-2.938-3zM71.469 86l-.125.094 4.375 4 .156-.219L71.469 86zm28.031.344c.193-.014.382.026.563.125v7.906c-.636.464-1.271.907-1.907.719l-.062-7.875c.239-.368.826-.835 1.406-.875zm-41.375-.125c-.79.474-1.672 1.461-2.344 2.187-.326 1.05-.799 2.006-.843 3.281l-.75-.406.656-3.156.781.469c.093-.15-.627-.56-.531-.688a4.262 4.262 0 013.031-1.687zm.938.312c.165-.019.337-.017.5 0 .996.346 2.045 1.613 2.5 2.219l-6.813 3c.131-.569.686-2.428.875-3.125.586-.99 1.776-1.96 2.938-2.094zm41.562.344c.264.57.338 1.212-.063 2.031l-.25.094.032-1.969.281-.156zm-43.125.719l-1.188 2.125.22.094 1.03-1.47.532 1.25.687-.187-.437-1.312.968.656.626-.938-.22-.156-.312.813-1.156-.719.25 1.531-1-1.687zm39.25 0c.127 0 .263.038.375.125l.094 7.844c-.528.327-.923.668-1.531.593v-7.875c.273-.356.68-.69 1.062-.687zm1.063.562v1.938l-.344.125-.031-1.906.374-.157zm-18.97.063l-2.5 1.469.188.28 2.344-1.718-.031-.031zm.594.156l-.062.281c.95.217 1.884.207 2.844.375v-.094c-.938-.103-1.86-.368-2.781-.562zm-16.5.813l-7.75 3.562 9.282 6.906 7.5-3.75-9.031-6.719zm32.47.03l.03 1.876-.218.094-.063-1.626.031-.25.22-.093zm-32.532.344l8.656 6.344-6.844 3.313-8.78-6.531 6.968-3.126zm-.25.25l.063 1.563.03-.031.282-1.5-.375-.031zm13.594.532l-.406.031.124 1.469h.126l.156-1.5zm21.594 0v1.125l-.313.125-.031-1.094.344-.156zm2.812.156c.264.57.338 1.212-.063 2.031l-.312.125.031-2 .344-.156zm-5.188.813v1.218l-.187.094-.031-1.219.219-.094zm-32.78.25l-2.22 1.093.188.188 2.094-1.281h-.063zm.843.03l-.063.094 3.97 3.282h.156L63.5 91.594zm34.313.188v1.938l-.282.125-.031-1.938.313-.125zm-38.282.906l-2.937.282.093.062 2.75-.125.094-.219zm35.907.126l.03 1.874-.187.094-.031-1.875.188-.094zm-35.407.124l-.125.094 4.375 4 .156-.219-4.406-3.874zm7.375 2.22l-2.5 1.468.188.281 2.344-1.719-.032-.03zm.594.156l-.063.28c.95.218 1.885.208 2.844.376v-.094c-.938-.103-1.86-.368-2.781-.563zm-3.219 1.968l-.406.031.125 1.47h.125l.156-1.5z" fill="#5c2700"/>
  <path d="M52.402 39.671l-.23.123.536 1.498.186-.123-.492-1.498zM54.021 41.37l-.142.034.456 1.52.098-.034-.412-1.52zM54.74 40.716l-.092.089.248.99.123-.28-.279-.8zM54.856 38.63c.203.563.244.959.516 1.493l.212-.204c-.196-.397-.572-.968-.77-1.364l.042.075z"/>
  <path d="M55.063 41.34l-.157.41.907.875 2.08.18-.05-.242-1.879-.043-.9-1.18z"/>
  <path d="M55.75 42.406c-.013.428-.04.854-.063 1.282l-.003-.026c.076-.445.289-.543.315-.99l-.249-.266zM54.505 42.557l-.42.027.342 1.523.823.674.09-.035-.777-.76-.058-1.429zM54.346 43.991l-.378 1.23-.01-.004.676-1.053-.288-.173zM113.148 80.713l-.217-.019 1.196.99.03-.033-1.009-.938zM114.628 82.656l-.017.105.711 1.305.174.01-.868-1.42zM115.38 80.548l-.181.102.82 1.223.247-.222-.886-1.103zM116.656 80.351l-.106.174.647.973.203-.143-.744-1.004zM117.067 78.855l-.07.014c-.019.664.55.89.858 1.405l.14-.25c-.321-.581-.373-.923-.928-1.169z"/>
  <path d="M117.424 81.32l-.345.235.515 1.195 1.219.688.035-.014-1.053-.88-.371-1.224zM115.637 83.799l-.306.333.52 1.502-.166 1.442-.754.896.034-.02.972-.796.25-1.469-.55-1.888z"/>
  <path d="M115.976 85.543l-.009.22c.403.653 1.155.124 1.83.364l.06.013c-.592-.255-1.255-.534-1.881-.597zM36.617 81.682l-.912 1.28.137.26.974-1.34-.2-.2zM34.87 80.81l-1.002 1.371.2.29 1.032-1.372-.23-.29zM35.365 82.006l-.903 1.643.14.166.933-1.674-.17-.135zM33.525 79.496L32.28 80.65l.229.228 1.246-1.092-.23-.29zM33.084 82.47l-.928 2.093.375 2 .052-.036.023-1.992.866-1.998-.388-.067z"/>
  <path d="M34.555 83.815l-.132 2.303-.96.812-.014.043 1.207-.66.165-2.677-.266.179zM32.281 84.25c-.357.22-.69.476-1.031.719l.01.018c.38-.229.824-.13 1.186-.383l-.165-.354z"/>
 </g>
</svg>
