<?xml version="1.0" encoding="UTF-8"?>
<svg width="128" height="128" xmlns="http://www.w3.org/2000/svg" xmlns:xlink="http://www.w3.org/1999/xlink">
 <path d="M39.389 42.008c-2.786-.929-4.083.253-5.267 1.832-1.374 1.832-2.676 2.603-3.664 4.58-.722 1.443-1.832 2.521-1.832 4.122 0 .603 9.128 2.224 10.305 2.519 2.48.62 5.386-.144 7.557-.687 2.655-.664 6.412-.772 6.412-3.893 0-2.063-4.09-4.319-5.267-5.496-1.125-1.124-4.325-1.71-5.725-2.061-1.29-.323-2.49-.928-3.664-.458M46.488 74.296c-.02-.025-4.201-.687-6.183-.687-2.125 0-3.503 1.442-4.81 2.748-1.975 1.976-5.012 2.698-6.411 5.496-.721 1.442-1.666 2.542-2.06 4.122-.218.87 5.071 1.374 5.495 1.374 3.845 0 6.677 1.193 10.534.23 2.793-.7 4.402-2.29 7.557-2.29 1.677 0 8.552-1.258 5.954-3.207-1.215-.91-1.926-1.558-3.206-2.519-1.486-1.114-4.503-3.128-5.725-4.35-1.274-1.275-1.096-2.564 1.832-1.833 2.957.74 6.542.033 9.389-.916 2.692-.897 8.35.352 10.533-1.832 1.507-1.506 1.366-3.289-.458-4.808-1.963-1.637-5.826-4.114-5.632-4.502.225-.45 1.19-1.52 3.2-1.52 4.196 0 8.97 1.811 13.195.755 2.325-.582 4.172-.936 6.412-1.832 1.68-.672 3.206-.35 3.206-2.29 0-1.42-2.141-3.057-2.977-3.893-1.444-1.444-3.121-2.627-4.809-3.893-1.74-1.306-3.562-1.374-5.725-1.374-3.112 0-4.499 1.23-6.87 3.206-2.059 1.716-2.64 4.375-3.206 6.64-.452 1.81-2.208 3.853-2.748 4.123-.59.295-4.178-.273-5.266 0-1.194.298-2.138 1.221-3.206 1.832-2.893 1.652-3.26 2.456-4.81 5.038-.863 1.44-1.138 2.265-1.602 4.121-.204.816-.975 1.936-1.603 2.061zM92.058 75.212c-.21 0-2.553.23-4.122.23-1.382 0-3.22.6-4.58 1.144-1.533.614-2.957 1.354-4.122 2.52-1.34 1.34-2.54 1.515-2.06 3.434.356 1.425 7.295 2.716 8.472 2.977.15.033 4.582.531 6.563.531 2.459 0 5.388.342 7.177-1.447 1.154-1.154.62-2.226-.458-3.664-1.218-1.624-3.795-2.878-5.038-4.122-.17-.17-.458-.152-.687-.229-.566-.188-.763-.916-1.145-1.374z" fill="#00a100" fill-rule="evenodd"/>
 <path d="M91.371 74.983c-.686-1.83 3.407 2.1 4.58 3.664 1.24 1.654 3.238 2.584 4.122 4.351.615 1.23-1.302 1.91-2.52 2.52-1.042.52-9.562 1.443-4.808-.459 1.451-.58 1.145-4.125 1.145-5.267 0-2.084-1.349-3.346-2.519-4.809zM77.402 47.046c-3.045-4.06 3.83 1.612 5.954 3.206.477.358.916.763 1.374 1.145 1.326 1.105 3.64 2.928 4.351 4.35 1.265 2.53-.752 2.65-3.893 3.436-3.487.871-6.374 2.85-3.893-.458.69-.92-.275-4.351-.458-5.267-.406-2.031-1.044-3.792-2.519-5.267-.345-.346-.61-.763-.916-1.145zM41.22 42.237c.642.424 2.773 1.437 4.352 1.832 1.82.455 3.185 1.846 4.35 3.206 1.002 1.168 2.22 1.967 2.978 2.977 1.212 1.616-2.068 3.274-3.211 3.274-1.34 0-3.215 1.067-4.117 1.067-1.469 0-.4-3.817-.687-5.257-.46-2.303-1.912-4.458-3.206-6.183-.205-.273-.305-.61-.458-.916zM42.824 73.151c-.317-1.586 3.01 1.211 4.58 1.603 1.271.318 2.727 2.332 3.893 3.206 1.296.973 2.395 2 3.893 2.748 2.776 1.388 1.743 3.236-.23 3.893-1.986.662-5.778 1.28-7.556.687-1.289-.43-.656-1.074-.23-3.206.458-2.284-.788-4.47-1.602-6.64-.415-1.108-2.013-1.776-2.748-2.29zM59.999 60.786c-1.38-1.38 3.93 1.05 5.49 2.221 1.489 1.116 3.988 2.306 5.34 3.66 1.025 1.024-.785 4.319-1.14 3.883-.496.993-3.309.821-4.195.998-6.346 1.27-3.257-.251-2.977-1.374.401-1.603.56-3.157.23-4.808-.29-1.447-1.846-3.317-2.748-4.58z" fill="#66a100" fill-rule="evenodd"/>
 <path d="M37.308 41.303c-3.133 0-3.756.218-5.326 2.083-2.164 2.572-4.167 6.348-4.167 7.718 0 1.751 1.061 1.079 2.238-1.39.623-1.305 2.11-3.455 3.319-4.784 2.109-2.32 2.304-2.383 5.865-2.084 2.04.171 4.29.495 4.94.772.649.277 1.157.259 1.157-.077 0-1.036-4.306-2.238-8.026-2.238zm8.952 2.932c-.426.427.46 1.434 3.782 4.013 2.768 2.15 2.701 2.108 2.701.85 0-1.061-5.874-5.471-6.483-4.863zm30.717 1.39c-.828-.15-1.585.004-2.856.385-3.65 1.094-6.992 4.69-7.949 8.49-.422 1.674-1.064 3.195-1.39 3.396-.324.2-.54.777-.54 1.312 0 2.082 1.2.782 4.014-4.322 4.249-7.71 7.066-9.02 12.58-5.789 2.083 1.222 2.933 1.482 2.932.85 0-.5-1.498-1.713-3.395-2.779-1.604-.9-2.568-1.394-3.396-1.544zm-15.899 14.2c-1.234-.19-2.55-.046-3.859.386-2.688.887-6.96 4.792-8.49 7.795-.555 1.091-1.287 2.152-1.62 2.392-.333.241-.46.95-.231 1.544.593 1.545.847 1.418 2.778-1.775 2.05-3.39 5.118-6.852 7.023-7.872 2.07-1.108 5.151-.862 6.946.54.885.69 2.391 1.442 3.319 1.698l1.698.463-1.698-1.39c-.928-.757-2.142-1.784-2.701-2.315-.797-.755-1.93-1.276-3.165-1.466zM44.254 72.714c-1.891-.363-3.864.076-6.483 1.235-6.109 2.701-11.238 7.805-10.22 10.458.536 1.398.946 1.19 2.16-1.158 2.637-5.098 9.208-8.915 13.925-8.915 1.905 0 3.111.692 6.097 3.396 2.049 1.855 4.217 3.34 4.862 3.319 1.077-.037 1.068-.112-.077-.85-.686-.441-2.696-2.212-4.476-3.935-2.139-2.07-3.898-3.188-5.788-3.55zm47.772 1.235c-.925-.237-1.991-.123-4.013.077-2.325.23-5.083.727-6.097 1.157-2.633 1.118-5.557 3.97-5.557 5.403 0 1.817 1.167 1.434 2.47-.772 1.274-2.156 3.797-3.146 9.879-3.859l3.859-.463 4.016 4.325c2.323 2.46 2.983 4.483 3.117 4.084.133-.399 1.012-1.687.044-2.698-.968-1.01-1.775-2.183-1.775-2.547 0-.364-1.279-1.63-2.856-2.855-1.37-1.065-2.16-1.616-3.087-1.852z" fill="#5c2700"/>
</svg>
