<?xml version="1.0" encoding="UTF-8"?>
<svg width="128" height="128" xmlns="http://www.w3.org/2000/svg" xmlns:xlink="http://www.w3.org/1999/xlink">
 <path d="M3.584 64.289c.382-1.344 2.434-2.434 3.941-3.941 1.487-1.487 2.641-3.167 4.204-4.73 1.435-1.435 2.708-3.084 3.941-4.73 1.442-1.921 8.809-4.255 10.773-4.991 1.377-.517 5.268 1.05 6.831 1.05h6.831c1.995 0 3.877-.031 5.518.789 2.037 1.018 4.364 1.656 6.306 2.627 1.647.824 4.881.892 6.568 1.314 2.899.725 4.444 3.344 6.832 3.941.714.179 2.799 2.428 3.415 2.89 1.348 1.011 2.296-1.438 2.89-2.627.714-1.428 3.976-3.067 5.518-3.067 3.382 0 6.462.523 9.984 1.228 2.55.51 5.022 1.066 7.094 2.102 1.736.868 4.077 1.313 5.78 1.313 1.82 0 3.306.767 4.73 1.051 1.558.312 2.364 1.642 3.678 2.628 1.71 1.282 2.994 2.731 4.467 4.204 1.722 1.722 2.372 3.813 4.73 4.992 1.372.686 2.836 1.523 3.94 2.627 1.507 1.507 3.101-.158 1.84 2.365-1.54 3.077-3.694 7.047-7.094 8.408-5.839 2.335-9.68 2.313-16.028 2.89-4.684.426-9.625.263-14.188.263-4.722 0-8.532-2.579-13.137-3.416-4.922-.895-10.014-2.847-13.925-5.78-1.01-.757-1.951-3.04-2.628-3.942-.504-.672 3.31-2.94 3.941-4.203.9-1.798-2.756 1.748-3.415 2.627-1.158 1.543-1.74 3.407-3.153 4.467-2.706 2.029-9.32 3.152-12.874 3.152-5.182 0-10.08.056-14.977-1.576-3.054-1.018-6.429-2.133-9.458-2.89-2.25-.563-4.316-1.789-6.832-2.628-.117-.039-.175-.175-.263-.262-2.136-2.137-3.93-1.28-5.254-5.255-.445-1.334-.895-1.045-.526-2.89z" fill="#00a100" fill-rule="evenodd"/>
 <path d="M89.238 55.618c1.4.445 4.117 1.997 6.043 3.153 3.24 1.944 5.534 5.55 7.094 8.67 1.35 2.699 2.306 5.926 3.679 8.671.889 1.779 1.05 3.028 1.05 4.992 0 1.81.05 3.56 1.577 3.941 2.23.558 3.411.115 5.268-.349 1.483-.37 3.09-1.827 4.466-2.515.597-.298.95-1.077 1.564-1.34 1.44-.617 4.996-2.338 4.996-3.94 0-2.493-.127-2.655-2.894-4.73-1.997-1.497-3.768-1.666-4.992-2.89-1.214-1.214-2.754-1.703-4.204-3.153-1.58-1.58-3.124-2.667-4.204-4.467-1.898-3.163-5.666-4.242-8.933-4.242-1.991 0-4.176-.02-6.043-.487-.619-.155-1.226-.35-1.84-.526-.347-.099-.7-.175-1.05-.262-.538-.135-1.051-.35-1.577-.526zM45.36 47.473c.456.246 3.576.843 5.255 2.102 1.589 1.192 4.439 1.79 6.306 2.102 2.13.355 3.915 1.025 5.517 2.627 1.425 1.425 3.546 1.444 4.993 2.89 1.569 1.57.391 2.631-.789 4.205a26.287 26.287 0 01-5.255 5.254c-1.233.926-2.831 2.657-3.152 3.941-.33 1.319-2.307 3.358-3.153 4.204-.139.139-.176.35-.263.526-1.075 2.15-5.278 3.199-3.678 0 1.083-2.167 2.101-3.86 2.101-6.569 0-2.412.335-4.968-.262-7.356-.589-2.354-2.136-4.436-3.416-6.569-1.015-1.691-2.073-3.358-2.89-4.992-.676-1.351-.97-.647-1.314-2.365z" fill="#66a100" fill-rule="evenodd"/>
 <path d="M33.99 45.37c-1.832-.043-3.58.189-6.76.563-5.485.645-7.472 1.357-11.052 4.083-3.213 2.446-3.15 2.402-7.603 7.744-2.116 2.538-4.22 5.026-4.717 5.562-1.144 1.231-1.204 1.76-.07 1.76.489 0 3.084-2.629 5.702-5.844 2.618-3.215 4.877-5.835 5.069-5.843.191-.008 1.465-.966 2.816-2.182 3.135-2.823 4.42-3.336 10.912-4.013 7.704-.804 18.158.546 21.331 2.746 1.404.972 3.152 1.618 4.435 1.619 3.08 0 7.586 1.9 11.053 4.646 1.663 1.318 3.027 2.647 3.027 2.887 0 .24-2.22 2.642-4.928 5.35-4.552 4.552-6.647 7.714-5.773 8.589.197.196 1.078-.619 1.972-1.76 2.762-3.53 10.234-10.49 11.264-10.49 1.428 0 1.85-.661 1.056-1.619-.547-.659-.12-1.387 1.9-3.309 2.922-2.78 4.092-2.968 9.645-1.478 8.587 2.304 12.982 3.335 14.714 3.379 1.015.026 3.474.42 5.491.845 3.428.723 3.845.937 5.562 3.731 2.349 3.823 5.607 6.782 10.067 9.082 1.947 1.003 3.761 2.082 4.083 2.393.744.721 1.384.652 1.83-.07.417-.674-1.932-2.35-5.772-4.154-3.615-1.697-6.956-4.878-8.66-8.237-1.627-3.208-2.15-3.578-4.716-3.59-1.078-.005-2.642-.3-3.52-.634-.878-.333-2.5-.641-3.59-.704-1.09-.062-5.69-1.056-10.209-2.182-11.359-2.832-12.903-2.767-16.614.704l-2.957 2.746-2.042-2.112c-2.182-2.252-10.485-5.9-12.601-5.562-.677.108-1.97-.34-2.816-.915-2.352-1.6-3.492-1.92-10.138-2.887-3.649-.53-5.56-.802-7.392-.844z" fill="#5c2700"/>
</svg>
