<?xml version="1.0" encoding="UTF-8"?>
<svg width="128" height="128" xmlns="http://www.w3.org/2000/svg" xmlns:xlink="http://www.w3.org/1999/xlink">
 <path d="M3.487 69.677c.988-.757 3.555-3.344 4.975-5.237 1.481-1.975 2.265-4.027 3.927-6.022 2.933-3.519 3.455-4.555 7.855-6.022 2.006-.669 2.435-.986 7.332-2.618.133-.045 2.067 1.91 3.404 2.356 4.417 1.473 7.06 2.22 9.95 3.666 2.42 1.21 4.41 4.459 7.069 3.927 2.852-.57 5.014-4.9 8.378-6.022l3.142-1.047c1.842-.614 3.532.523 5.499.523 2.673 0 4.944.262 7.593.262 1.914 0 7.95 6.213 8.64 7.593.652 1.304 5.149-.732 6.546-1.57 2.404-1.442 6.64-1.952 9.426-2.88 1.881-.628 4.938 1.57 7.07 1.57 2.436 0 4.187 1.047 6.284 1.571 2.71.678 3.015-.389 4.975 1.571 2.271 2.271 4.808 4.022 7.07 6.284 2.828 2.83 2.265 3.377-1.31 5.76-2.208 1.473-4.37 2.864-7.07 3.404-5.314 1.063-10.551 1.833-16.233 1.833-5.31 0-10.323 1.777-14.925-.523-2.523-1.262-4.627-3.319-6.545-5.237-1.162-1.161-1.613-1.927-1.31-3.142.389-1.553 3.122-3.32-.261 2.095-1.632 2.61-5.802 3.899-8.903 4.674-2.58.645-5.54-.524-8.117-.524-3.475 0-10.03-2.209-12.83-3.889-2-1.2-4.25-2.271-5.76-3.403-1.388-1.042-1.937.575-6.022 2.618-2.701 1.35-3.114 1.833-6.546 1.833-3.171 0-7.373.696-10.349-.048-3.078-.77-6.591-.902-9.7-1.42-1.131-.19-2.845-1.157-3.254-1.936z" fill="#00a100" fill-rule="evenodd"/>
 <path d="M24.957 51.087c.45 1.537 2.376 2.235 4.19 3.142 2.22 1.11 3.329 3.915 4.713 5.76 1.051 1.402.895 3.581 1.309 5.237.427 1.707.668 3.692.785 3.927.4.798 4.26-2.72 4.452-2.88 1.434-1.195 2.47-1.727 3.142-3.404.81-2.024 1.222-2.79.785-4.975-.346-1.733-3.394-1.042-4.975-1.832-2.937-1.47-5.71-3.666-9.164-3.666-1.11 0-3.93-1.048-5.237-1.31zM62.661 52.396c2.521.339 5.62 2.316 8.117 4.19 1.948 1.46 3.35 3.714 3.928 6.021.456 1.825.262 4.034.262 6.023 0 2.514-1.082 2.73.91 1.734.349-.175.835-1.036 1.184-1.21 1.555-.778 2.864-1.987 3.928-3.405 1.645-2.193 2.254-2.242 1.57-4.974-.554-2.218-4.423-4.163-5.76-5.499-1.376-1.377-2.568-1.808-4.189-2.618-1.544-.773-4.55-.262-6.284-.262h-3.666zM100.365 57.109l2.095.524c2.178.544 3.854-.262 6.022-.262 3.501 0 5.454 1.603 7.855 3.404 2.081 1.56 4.335 4.217 5.237 6.022.818 1.637 2.134 2.671 2.88 3.665 1.042.84-4.586 3.36-5.885 4.49-2.367 1.184-4.838 1.596-7.456 2.344-1.186.339 2.102-1.958 2.344-3.168.785-3.922-4.745-7.887-6.808-9.95-2.257-2.257-3.88-4.665-6.284-7.07z" fill="#66a100" fill-rule="evenodd"/>
 <path d="M30.384 49.43c-1.063-.306-2.343-.192-4.35.211-9.337 1.876-11.1 2.539-12.979 4.911-.997 1.26-1.824 2.496-1.824 2.736 0 .24-.812 1.658-1.824 3.157-1.012 1.5-2.262 3.622-2.806 4.7-.544 1.08-1.728 2.721-2.596 3.649-1.06 1.133-1.293 1.693-.701 1.684 1.63-.026 3.438-2.08 7.296-8.349 4.212-6.845 8.314-6.801 10.243-7.787 1.074-.55 2.175-1.274 2.385-1.614.782-1.264 4.391-.658 6.946 1.193 1.396 1.011 3.027 1.824 3.648 1.824 2.133 0 9.412 2.624 9.751 3.508.188.488-.405 1.698-1.332 2.666-.925.964-1.555 2.077-1.404 2.525.151.449-.516 1.31-1.473 1.894-1.89 1.156-2.328 2.316-.842 2.316 1.267 0 5.553-2.722 6.595-4.21.465-.664 1.613-1.548 2.526-1.964.912-.416 1.613-1.114 1.613-1.544 0-.91 4.343-4.571 7.086-5.963 1.041-.528 3.73-1.089 5.893-1.263 2.162-.174 4.335-.397 4.84-.49.507-.094 2.15.016 3.72.28 2.409.405 3.526 1.088 6.945 4.49 2.225 2.214 3.999 4.264 3.999 4.49 0 .226-1.513 1.886-3.368 3.718s-3.367 3.524-3.367 3.789c0 1.277 1.891.18 4.91-2.877 2.106-2.131 5.262-3.723 5.262-4.91 0-.844 1.2-1.544 1.544-1.544.344 0 1.71-.675 3.087-1.544 2.81-1.773 6.404-2.099 10.944-.982 1.518.373 4.381.481 6.314.28 2.764-.286 3.857-.082 5.192.772 2.414 1.545 6.745 6.062 7.226 7.577.224.706 1.431 1.968 2.666 2.807 1.234.839 1.216 1.131 1.643 1.131 1.436 0 2.164-.679-.03-1.973-1.214-.717-2.747-2.364-3.224-3.505-.47-1.125-1.056-2.192-1.546-2.599-.49-.407-1.085-1.302-.912-1.964.247-.946-1.106-1.472-2.245-1.474-.798 0-.898-.261-1.965-.912-1.435-.875-3.586-1.269-8.278-1.543-11-.643-14.426-.644-15.294.07-.462.38-2.2 1.403-3.789 2.245l-2.876 1.544-1.544-1.474c-.856-.793-1.543-1.786-1.543-2.245 0-.458-.812-1.497-1.824-2.245-1.994-1.474-.431-1.322-2.385-1.263-1.424.044-3.848-2.54-5.823-2.525-1.975.015-6.033.427-9.05.982-3.018.554-5.7.895-5.894.702-.58-.581-4.632 1.366-5.542 2.666-1.502 2.144-3.062 2.598-4.42 1.332-.696-.648-3.15-1.419-5.823-1.894-3.909-.694-4.936-1.157-6.384-2.806-1.155-1.315-1.954-2.079-3.017-2.385z" fill="#5c2700"/>
</svg>
