<?xml version="1.0" encoding="UTF-8"?>
<svg width="128" height="128" xmlns="http://www.w3.org/2000/svg" xmlns:xlink="http://www.w3.org/1999/xlink">
 <path d="M54.684 35.221c-1.128.46-3.158 2.598-4.58 3.664-1.81 1.358-4.16 2.09-5.954 3.435-1.517 1.138-2.475 2.143-3.893 3.206-1.67 1.253-2.963 3.65-4.35 5.038L34.76 51.71c-1.16 1.16-1.215 4.405-1.603 5.954-.404 1.617-1.67 4.037-2.051 5.564-.715 2.86 2.123 2.982 4.57 4.512 2.814 1.758 5.04 4.199 8.244 5.267.299.1.61.152.916.229.234.058.458.152.687.229 5.687 1.895 13.068.916 19.007.916 7.738 0 15.544-.916 23.128-.916 3.932 0 7.289-1.55 10.992-2.29 2.904-.58 5.454-2.948 2.52-4.122-1.253-.501-1.79-3.26-2.062-4.351-.546-2.187-2.332-3.93-3.893-5.267-1.504-1.29-3.075-2.617-4.58-4.122-.967-.967-1.235-2.7-1.832-3.893-1.44-2.88-3.421-2.974-6.182-3.664-2.756-.689-4.486-2.252-6.87-3.206-2.615-1.045-5.108-3.699-7.786-5.038-2.223-1.11-4.412-1.569-6.87-2.06-1.38-.277-3.166 0-4.58 0-1.076 0-.462.044-1.832-.23z" fill="#00a100" fill-rule="evenodd"/>
 <path d="M62.012 35.45c2.706 1.69 4.836 4.085 7.328 5.954 2.508 1.882 4.233 4.692 6.412 6.87 2.406 2.406 3.355 5.897 5.038 8.702.837 1.395 1.46 3.551 1.832 5.038.464 1.858.466 3.926.916 5.725.318 1.274.06 3.42-.23 4.58-.324 1.298 1.846.92 2.749 1.145 1.85.462 4.149-.23 5.953-.23 1.545 0 3.462-.834 4.81-1.373 1.635-.655 4.166-1.477 5.637-2.212 1.263-.632-.523-2.214-1.058-3.284-.897-1.796-1.95-2.906-3.206-4.58-.972-1.296-1.696-2.751-2.519-4.122-1.183-1.972-3.553-3.782-5.267-5.496-1.473-1.474-1.466-3.218-2.977-4.35-1.885-1.415-4.703-2.249-7.098-3.207-2.67-1.068-5.128-2.243-7.328-3.893-1.879-1.409-3.952-3-6.183-3.893-.606-.242-1.221-.458-1.832-.687-1.41-.528-1.43.241-2.977-.687z" fill="#66a100" fill-rule="evenodd"/>
 <path d="M56.739 33.874c-5.168 1.965-10.575 5.193-13.583 8.104-1.855 1.795-3.959 3.405-4.708 3.627-1.691.502-3.443 3.768-4.4 8.181-.4 1.849-1.285 4.699-2.006 6.329-1.476 3.337-1.645 4.09-.694 4.09 1.543 0 3.537-4.904 5.71-14.278.285-1.226 1.26-2.3 2.934-3.164 1.385-.715 3.764-2.61 5.248-4.168 1.62-1.699 4.683-3.754 7.717-5.17 4.325-2.02 5.531-2.262 8.335-1.93 3.73.442 8.56 2.96 10.11 5.325.718 1.094 2.79 2.189 6.638 3.473 7.734 2.582 10.598 4.495 10.65 7.178.012.604 1.48 2.277 3.242 3.704 3.973 3.219 4.689 4.181 5.248 6.637.244 1.072 1.382 2.896 2.547 4.09 2.034 2.087 3.164 2.427 3.164.927 0-.389-.742-1.315-1.62-2.007-.88-.691-1.765-2.256-2.007-3.473-.297-1.49-1.638-3.245-4.014-5.402-1.94-1.76-3.734-3.163-4.013-3.164-.278-.002-.463-.72-.463-1.621 0-2.303-3.958-5.38-8.875-6.869-2.223-.673-4.21-1.468-4.4-1.775-.189-.307-.813-.54-1.389-.54-.575 0-2.664-1.445-4.63-3.242-2.954-2.699-4.386-3.458-8.258-4.399-3.469-.843-5.148-.97-6.483-.463z" fill="#5c2700"/>
</svg>
