<?xml version="1.0" encoding="UTF-8"?>
<svg width="128" height="128" xmlns="http://www.w3.org/2000/svg" xmlns:xlink="http://www.w3.org/1999/xlink">
 <path d="M15.796 69.655c1.597-1.558 3.72-4.242 5.657-6.178 1.675-1.675 3.682-3.453 5.267-5.038 1.66-1.66 4.571-3.515 6.64-4.809 2.044-1.277 2.821-3.281 5.268-3.893 1.718-.43 2.798-1.933 4.58-2.29 1.535-.307 3.91-1.383 5.266-2.06l.916-.459c2.108-1.053 4.254-2.257 6.412-2.977 4.262-1.42 5.877-.916 10.305-.916.923 0 3.055 1.184 3.893 1.603 1.973.987 4.676 1.603 6.87 1.603 1.991 0 5.436 1.83 6.87 2.977 1.422 1.138 3.754 1.654 5.335 2.602 1.237.742 1.982 4.301 2.909 5.413l1.145 1.374c1.653 1.985 2.746 4.35 5.496 5.038 1.344.336 3.358 2.03 4.58 2.52 1.822.728 2.67 1.753 3.892 2.976 1.576 1.576 1.378 2.516-.458 4.351-2.76 2.76-7.28 4.568-10.991 5.496-4.836 1.209-9.51 1.043-14.198 2.748-3.133 1.14-16.013 2.293-19.465 1.603-.374-.075-.763 0-1.145 0-9.418 0-18.784-3.272-27.937-4.58-5.05-.721-9.966-.203-13.97-3.206-1.536-1.152-2.672-2.04-3.137-3.898z" fill="#00a100" fill-rule="evenodd"/>
 <path d="M61.07 41.493c.61.306.61.306 0 0-7.58-3.79 7.987 3.866 10.304 6.183 3.92 3.921 8.157 7.928 12.137 11.908 1.905 1.905 3.435 6.806 3.435 9.389 0 2.299.916 4.492.916 6.87 0 1.506.928 2.29 2.29 2.29 1.685 0 4.613-.792 6.402-1.15 1.606-.321 2.544-1.201 4.132-1.598 2.004-.501 6.832-1.498 7.688-3.21.585-1.17 1.14-2.1 1.14-3.367 0-2.282-4.151-5.304-5.87-6.164-2.143-1.072-4.453-2.351-6.851-2.83-2.1-.42-3.599-2.225-5.038-3.665-1.211-1.21-.541-4.186-1.842-5.486-1.434-1.435-3.535-2.584-5.257-3.445-3.5-1.75-7.05-2.274-10.534-3.435-3.029-1.01-6.097-1.352-8.93-2.06-2.091-.523-9.096-1.53-7.558-1.146.96.24 1.067.19 2.061.687" fill="#66a100" fill-rule="evenodd"/>
 <path d="M62.912 40.005c-3.935-.347-4.396-.233-8.336 2.16-2.297 1.396-5.17 2.672-6.328 2.779-5.76.531-18.275 8.82-27.244 18.06-3.414 3.517-6.174 6.583-6.174 6.791 0 .598 1.147.386 3.01-.463.945-.43 1.698-1.109 1.698-1.544 0-1.549 10.617-11.05 17.288-15.435 7.446-4.894 9.504-5.788 12.425-5.788 1.119 0 3.743-1.16 6.174-2.702 4.634-2.939 6.617-3.26 11.345-1.775 1.643.517 4.798 1.26 7.024 1.698 2.226.439 6.595 2.024 9.647 3.473 4.597 2.184 5.61 2.93 5.942 4.477.22 1.027.678 2.51 1.004 3.318.643 1.6 9.362 7.64 11.036 7.64.567 0 2.421 1.418 4.09 3.088 3.165 3.164 4.645 3.867 3.936 1.852-.77-2.191-3.737-4.862-7.486-6.637-6.676-3.161-9.356-5.361-9.801-8.104-.22-1.35-1.077-3.034-1.93-3.781-4.37-3.83-17.627-8.253-27.32-9.107z" fill="#5c2700"/>
</svg>
