<?xml version="1.0" encoding="UTF-8"?>
<svg width="128" height="128" xmlns="http://www.w3.org/2000/svg" xmlns:xlink="http://www.w3.org/1999/xlink">
 <path d="M18.056 69.38c.674-1.435 2.906-4.417 4.481-6.517 1.665-2.22 3.648-3.913 5.296-6.11 1.496-1.995 3.907-3.542 5.703-4.888 1.51-1.133 4.104-.91 6.11-.408 2.687.672 5.767-1.034 8.147-1.63 3.043-.76 5.68-1.221 8.961-1.221 2.97 0 6.448 1.714 9.37 2.444 3.37.842 4.752 2.544 7.995 4.165 2.58 1.29 4.608 2.2 7.03 3.41 3.61 1.805 7.532 3.683 11.3 5.19 2.51 1.004 1.113 1.52 2.865 3.272 3.645 3.645 2.494 5.96-.677 5.96-6.077 0-15.465 4.749-21.59 6.11-2.136.475-4.344.543-6.517.814-4.887.611-10.132.408-15.071.408-3.76 0-6.801-.815-10.591-.815-4.962 0-10.146-2.022-14.257-3.666-3.175-1.27-6.58-4.05-8.555-6.518z" fill="#00a100" fill-rule="evenodd"/>
 <path d="M49.83 49.42c3.913 3.237 8.077 5.634 11.405 8.962 3.388 3.388 6.634 6.711 8.962 10.591 1.53 2.551 1.895 5.402 2.444 8.147.623 3.117 4.73.956 6.924.407 4.064-1.016 8.05-2.317 11.813-3.259 3.052-.762 5.512-.299 6.21-3.09.381-2.283-1.75-4.883-4.815-6.11-2.65-2.268-4.492-4.653-7.455-5.394-2.562-.64-5.386-1.911-7.94-2.422-3.866-.773-5.712-4.605-9.626-5.387-3.115-.624-6.367-1.437-9.368-2.037l-2.037-.408c-1.951-.39-4.568 0-6.518 0z" fill="#66a100" fill-rule="evenodd"/>
 <path d="M53.01 48.152c-3.268.063-6.44.571-8.644 1.543-2.576 1.137-3.98 1.346-6.56 1.003-2.837-.376-3.664-.195-5.942 1.312-2.438 1.614-14.201 16.074-14.201 17.442 0 1.611 1.711.088 5.248-4.63 2.138-2.852 5.627-6.98 7.795-9.184l3.936-4.013 3.705.463c2.508.294 4.405.167 5.865-.463 5.082-2.195 6.02-2.474 9.03-2.47 1.745.002 4.381.3 5.865.694 3.52.936 13.905 5.243 15.204 6.329 1.315 1.099 6.537 3.705 7.41 3.705.371 0 2.306.635 4.321 1.389 3.398 1.271 6.473 3.66 9.339 7.254 1.234 1.549 2.546 2.017 2.546.85 0-.38-1.25-2.049-2.778-3.705-2.87-3.114-5.666-4.727-12.04-6.792-2.04-.66-4.473-1.748-5.402-2.392-2.735-1.898-11.042-5.742-15.281-7.1-2.733-.876-6.148-1.299-9.416-1.235z" fill="#5c2700"/>
</svg>
