<?xml version="1.0" encoding="UTF-8"?>
<svg width="128" height="128" xmlns="http://www.w3.org/2000/svg" xmlns:xlink="http://www.w3.org/1999/xlink">
 <path d="M16.273 46.268c-1.918 2.084-3.437 3.074-4.439 5.579-.525 1.314-1.374 2.167-1.374 3.81 0 .579 1.969.664 2.977.916 1.855.464 4.075.605 5.954.229 2.488-.497 5.168-1.21 7.328-2.29 1.372-.686 2.245-1.329 3.206-2.29.169-.169-2.36-2.457-2.748-2.748-1.968-1.476-4.608-1.994-6.87-2.748-.78-.26-3.22-.295-4.034-.458zM34.963 65.046c-3.537-1.18-5.427 2.313-7.167 4.053-1.712 1.712-3.934 4.07-5.803 5.94-2.44 2.44 1.872 2.12 4.039 2.602 2.918.648 5.699.916 8.702.916 2.883 0 6.83-.677 9.618-1.374.377-.095.763-.153 1.145-.23 1.362-.272 4.02-2.01 5.496-2.747 1.673-.837 1.836-1.162 2.29-2.977.182-.728-2.087-2.859-2.52-3.435-2.025-2.7-6.785-2.79-9.846-3.664-2.27-.649-7.548 1.27-8.015 1.374M61.984 58.863c-3.47.771-7.184 4.695-8.014 8.015-.38 1.521-.37 3.206 1.145 3.206 2.03 0 3.435-.515 5.495 0 3.081.77 6.263.916 9.39.916 3.413 0 3.364-3.554 5.037-4.81 1.476-1.106 4.378.11 3.664-2.747-.39-1.56-5.183-2.82-6.87-3.664-2.146-1.073-6.458-1.145-8.702-1.145-.389 0-.763.153-1.145.229zM106.639 54.283c-1.367 0-3.283 1.412-3.66 3.293-.397 1.99-2.123 3.746-3.205 5.19-1.441 1.92-1.756 4.34 1.369 4.34 4.451 0 6.742.654 11.45-.915 4.619-1.54 5.058.11 5.266-3.435-1.923-3.128-4.702-5.47-6.64-5.954-1.958-.49-3.369-1.005-4.58-2.519zM84.655 79.93c-1.96-.49-3.478 2.272-4.35 3.436-1.218 1.622-4.166 2.595-2.13 4.122.798.598 6.807.915 7.854.915 2.77 0 3.494.502 5.413-.457 1.488-.744 1.7-1.721 3.06-2.061.819-.205-.527-2.657-.687-2.977-.696-1.391-3.414-3.119-4.667-3.119-1.018 0-3.655.456-4.493.142z" fill="#00a100" fill-rule="evenodd"/>
 <path d="M106.639 55.886c-1.044-.746 2.718.857 3.893 3.206.66 1.32 1.043 3.027 1.374 4.35.42 1.68-.164 2.078 1.603 2.52 1.439.36 3.427-.443 3.893-1.374 1.093-2.188-.609-3.646-1.54-4.887-.966-1.288-4.985-3.059-6.475-3.357-1.183-.237-1.42-.015-2.748-.458zM86.487 80.389c-1.876-.536 4.565 1.084 5.038 2.977.327 1.308.458 2.463.458 3.664 0 1.505 2.688-1.387 3.893-2.29 1.302-.977-3.385-3.465-3.664-3.664-2.07-1.479-3.412-.225-5.725-.687zM66.335 58.176c-1.624-.406 3.241 1.056 4.58 2.061 1.429 1.072 2.061 2.7 2.061 4.35 0 1.094.422 2.147.687 3.207.308 1.232 3.127-1.493 4.264-2.061 1.715-.858.46-1.545-.142-2.748-1.062-2.125-6.257-3.489-8.473-4.122-1.096-.313-1.794-.293-2.977-.687zM39.772 64.588c-2.033 0 3.6 1.998 5.038 3.435.993.993 1.972 3.082 2.29 4.35.338 1.355.114 3.522 1.374 3.207 1.649-.413 3.584-.963 4.58-2.29 1.123-1.498-1.03-3.778-1.832-4.58-1.433-1.433-2.96-2.744-4.81-3.206-2.39-.598-4.374-.16-6.64-.916zM20.078 46.955c.437.437.174.174 0 0-2.767-2.767 4.704 3.244 5.267 5.496l.229.916c.673 2.692 1.581.469 3.435-.458 1.958-.979-.565-2.397-1.603-3.435-1.554-1.553-3.835-2.29-5.954-2.29-.464 0-.916-.152-1.374-.229z" fill="#66a100" fill-rule="evenodd"/>
 <path d="M19.569 45.262c-2.477 0-4.45.336-5.403 1.003-1.44 1.01-4.862 6.942-4.862 8.413 0 1.701 1.464.427 3.01-2.624 1.89-3.731 2.216-4.126 5.48-4.863 3.095-.698 6.18.314 8.798 2.779 2.133 2.009 3.627 2.544 3.627 1.389 0-.328-.794-1.029-1.698-1.62-.903-.593-2.384-1.844-3.318-2.78-1.427-1.426-2.336-1.697-5.634-1.697zm85.975 7.795l-1.93 2.238c-1.771 2.122-5.942 9.909-5.942 11.036 0 .272.32.463.695.463.375 0 1.453-1.728 2.47-3.858 1.016-2.131 2.437-4.45 3.087-5.171.649-.722 1.157-1.582 1.157-1.93 0-1.191 4.365.226 6.869 2.238 2.827 2.272 3.241 2.37 3.241 1.004 0-1.149-2.554-3.008-6.637-4.785l-3.01-1.235zm-42.833 3.936c-.986.128-1.723.441-2.624 1.003-2.815 1.756-6.27 6.881-6.252 9.261.014 1.803.071 1.785 1.235-.771.676-1.484 2.47-3.857 4.014-5.248 2.515-2.269 3.197-2.547 6.482-2.547 4.504 0 6.243.687 9.416 3.473 1.979 1.737 2.671 2 3.319 1.312.6-.639.576-.945 0-1.158-.427-.158-2.091-1.304-3.705-2.547-2.459-1.893-3.683-2.338-7.64-2.7-2.003-.184-3.26-.207-4.245-.078zM39.403 63.63c-5.69-.016-6.048.062-8.798 2.161-2.872 2.192-9.299 8.73-9.724 9.879-.608 1.64 1.379.16 5.788-4.322 2.912-2.96 5.705-5.248 7.023-5.634 1.211-.355 4.931-.507 8.181-.309l5.865.386 2.547 3.01c1.413 1.64 2.93 2.787 3.319 2.547.93-.575-4.349-6.286-6.56-7.1-.928-.342-4.367-.608-7.64-.618zM86.56 78.988c-3.338 0-3.928.19-6.406 2.547-1.5 1.427-2.701 3.09-2.701 3.705 0 .614.095 1.157.231 1.157.137 0 1.601-1.446 3.319-3.164 3.001-3.001 3.313-3.118 6.328-2.778 1.889.213 3.34.814 3.705 1.466.333.596 1.083 1.08 1.62 1.08.539 0 .927.324.927.695 0 .371.447.695 1.003.695 1.817 0 1.04-1.657-1.698-3.55-2.122-1.468-3.422-1.853-6.328-1.853z" fill="#5c2700"/>
</svg>
