<svg xmlns="http://www.w3.org/2000/svg" width="128" height="128" version="1.0"><metadata/><path d="M62.094 24.344l-15.657 5.5-.218.843-3.032 1.22-.812-.657-23.281 8.156.125 27.375.917.576-.01 2.001-.202.063-.018 2.828.293.44-.026 2.72-.289.155-.018 2.74.308.331-.007 2.518-.32.112-.003.516L57.03 107.97l18.719-6.688-.125-1.719 1.875-.718.26-.32 1.88-.688.444.042 2.353-.972.282-.343 1.278-.507.408.098 1.876-.716 1.5 1.562 13.188-4.938.062-26.78-.5-.657v-1.594l.156-.312v-2.844l-.187-.25-.05-2.497.237-.41v-2.78l-.194-.225.007-1.65.563-.532V49.72l-4.97-3.375-.687.187-1.5-1.281-.125-.469-29.5-20.062-1.125.375-1.062-.75zm-.094.531h.031l1 .594 1.25-.094L93.25 45l-.125.875 1.406.094.031 1.468 1.313-.656 4.281 2.907L57.22 64.5 20.406 39.656l21.969-7.781 1.531 2.313.125-2.22 1.375.188.157-.906 1.906.344-.657-1.313 14.282-5.062L63 27.28l-.719 1.657-1.281.968-2.906-.062.062.093 2.5.407-.25 1.312.188.063.375-1.313.343.063 1-.875 1.563 1.593-1.063 1.688.094.031 1-1.281 1.313.219-.313 3.062h.125l.438-2.937 1.625-.188.062-.031-1.625-.125v-.031l-1.25-.469-1.687-1.719.781-1.843 1.25.687.125-.031-1.219-1.032.032-.062L62 24.875zM19.844 40.188l37.125 25.156-.063 23.281-4.781 3.063-1.813 2.187-4.937-.063-2.438 1.126-1.156 1.437-14.5-10.031-.843-4.125.53-2.688-2.5-3.25-.718-6.156-3.719-3.469-.187-26.469zm80.562 9.968v1.313l-3 1.968-.969 4.032-3.156 2.312.031 2.813-.03-.032-1.313 1.563-2.281-.063.062.188 2.156.219.781 1.094v-.157l-.437-1.031 1.438-1.469 4.593.907 2.063 1.437-.125 26.563-11.906 4.124v-6.03l2.468-1.063L91 84.5c-.248-.448-.62-.56-1.125-.563v-2.874l-1.563.468V72.97h.032l.219-1.031h1.656l-.031.03 1.718 1.344-1.312-1.656.594-.656-.126.031-.812.531-1.531-.25v-.03L87.188 70l-.063.125 1.219 1.25-.875 1.094-12.719 5.094v22.062l-1.344-.375-3.844.188-1.156-2.907-3.781-2.156-1.813-3.25-5.156-2.5-.062-22.75 1.218 1.063-.187 1.374.625-1.25 1.719.438 2.718-1.5.438-.063 2.906.594 1.625 2.125.219-.031-1.781-2.219h-.031l-.032-.031-1.906-.625 2.281-.406 1.5-1.813-.094-.062-1.593 1.5-3.656.594-2.5 1.5-1.876-.5-1-1.407 42.22-15zM100.22 52v2.125l-1.969.625v2.813l1.969-.657.031 3.188-2.344.781v2.563l-.344-.063v-2.281l-3.906 1.281-.031-.156 1.031-.344v-2.75l-.219.063.813-.563 2.656-.906v-2.75l-.531.187.063-.218 2.624-.907v-1.937l.157-.094zm-.313.219l.031 1.718-2.468.844.344-1.125 2.093-1.437zM29.75 53.25l.125 14.281 10.688 6.625.75 1.75-1.188 1.469.875 1.219.156.125-.593-1.313 1-1.281 1.468.406.688 3.969 1.687.625-.031-.219-1.469-.375-.437-3.687 2 .781.656 1.375.125-.031-.313-1.406.938-.688-.094.031-1.281.344-2.25-1.188v.063L41.906 76l-.468-1.625-.063-12.406 1.969-1.407.75.47L45.28 63.5l.188.125-.813-2.406 1.125-.375v-.094l-1.25.156-.031-.125-1.156-.593-2.438.78L29.75 53.25zm70.688 1l.03 2.438-2.062.718v-2.531l2.031-.625zM30.5 54.5l1.375.969v10.468l-1.313.626L30.5 54.5zm67.25.656l.031 2.469-2.156.75 1-.688.688-2.374.437-.157zm-65.438.625l.438.313v10.031l-.438-.281V55.78zm.75.563l1.594 1.125.032 10.25c-.668 1.228-1.653.34-1.626-.344V56.344zm67 .906l-5.093 1.656L95 61.72 100.063 60v-2.75zm-.187.188l.031 2.468-4.781 1.625v-2.5l4.75-1.593zm-64.906.25L37 59.156V69l-2.031-1.344v-9.969zm59.5 1.624l.031 2.47-.875.28-.219-2.156.688-.468.375-.126zm-57.156.063l1.593 1.125.032 9.875c-.668 1.228-1.653.34-1.626-.344V59.375zm63.218.781l-.031 2.5-2.344.813h-.094l-.03-2.5 2.5-.813zm-61.312.563l1.468 1.062V71.5l-1.468-1.031v-9.75zm58.187.531l.031 2.094-3.75-.657-.03-.187 3.75-1.25zm2.844 1.625v1.969l-.188-.156v-1.563l-1.406.469-.062-.032-.031-.03h-.157l1.844-.657zm-.344.438l.031 1.28-1.187-.906 1.156-.374zm-67.781 3.03l.625.438v.656c-.088.363 1.061 1.942 2.031.75l2.219 1.5v.407c-.084.348.964 1.808 1.906.875l1.782 1.25v1.437L30.624 66.97l1.5-.625zm-11.844.938l.125.125v2.219l3.157 2.156.03.125-.03-.031v2.844l.468.312.032.281-3.688-2.593v2.812l5.063 3.5v-.969l.218.313v.75l.938.625-.032.188-3.343-2.344v2.812l3.093 2.156.032.157-.657-.469v2.813l1.22.843.03.188-6.593-4.625v-3.031l2.687 1.874v-2.75l-2.718-1.906V72.47l3.062 2.125v-2.75l-3.094-2.156V67.28zm.282.281l2.812 2.844.188 1.25-3-2.062v-2.031zm-.525 2.15l3.18 2.163.032 2.469-3.225-2.133.013-2.5zm3.68 3.132L24 74.875l-.281-.188v-1.843zm-3.187.125l3.563 2.5.125.937 1.093 1.5v.875l-4.78-3.281v-2.531zm67 .094v9.03c-.34-.252-.746-.082-.969.063l.032-8.719.937-.374zm-1.437.593l-.031 8.5-1.5.594v2.969l1.468-.469v.125c-.41.202-.864.422-1.281.656l1.281 2.531L86 95.124l-1.575.594.013-3.81 1.468-.563v-2.969l-.312-.344-1.188.406-.031-6.406 1.531-.594V78.47l-.312-.344-1.25.438-.031-4.188 1.78-.719zm-2.156.875v4.156l-1.626.563-.03-4.031 1.656-.688zm-2.032.844v4.031l-2 .688-.031-3.875 2.031-.844zm-61.859.252l2.797 1.936.031 2.5-2.84-1.914.012-2.522zm59.453.748l.031 3.844-2.187.75-.031-3.688 2.187-.906zm-2.563 1.063l.032 3.656-1.344.469v-3.594l1.313-.531zm-53.562.406l3.156 2.25-.281 2 .063.344-2.938-2.032v-2.562zm62.094.562v.219l-9.844 3.438v-.188l9.844-3.469zm-59.656.188l.78 1.062-.78-.531v-.531zm-5.407.062v2.813l5.063 3.469v-2.75l-5.063-3.532zm.157.25l4.75 3.313.03 2.5-4.78-3.281v-2.532zm64.812.156l.063 1.907-9.813 3.812V82.75l9.75-3.688zm4.375 2.188l-.013 2.688-.706.093-.219-.437c.149-.236.262-.524.438-.844-.064-.292-.201-.565-.688-.375a1.712 1.712 0 01-.218.375l-.031-.063v-.937l1.437-.5zm-5.781.938v6.406l-1.594.531-.031-6.313 1.625-.624zm2.094.124v.188c-.35.315-.594.742-.563 1.188a3.713 3.713 0 00-.406-.094c-.312.378-.113.621.094 1 .326.172.576.187.812.156l.031.063v.25l-1.344.468v-2.656l1.376-.563zm.843.157c.44-.05.903.21 1.156.437l.063.063c-.05.04-.102.09-.156.125L87.906 83a1.609 1.609 0 00-.625-.188c-.537-.032-.877.358-1.125 1.032a1.494 1.494 0 01-.25-.031c.181-.945.572-1.296 1-1.344zm-61.094.031l.563.406.5 2.813-1.031-.688-.032-2.531zm62.876.063c.14.027.29.005.312.312-.161.459-.372.858-.906 1.031-.185-.107-.584.038-.438-.406.483-.224.8-.55 1.031-.938zm-6.75.406v6.312L80 89.97l-.063-6.219 2-.781zm5.03.187c.195-.01.414.11.626.188-.105.06-.193.102-.313.187.026.244.113.357.25.438l-.031.719a9.876 9.876 0 00-.563.28l-.218-.437c.097-.035.169-.062.281-.094.164-.25.258-.505-.219-.718-.133.054-.235.073-.344.094.12-.49.327-.646.532-.657zm1.688.625l.5.719c-.175.408-.265.297-.375.313L88.375 84c.111-.064.207-.14.281-.219zm-3.312.031c.498.188.967.201 1.406.094.078.12.234.238.031.469-.44.207-.908.322-1.406.063-.053-.207-.45-.419-.031-.626zm-5.813.094l.031 6.188-2.124.75-.063-6.094 2.156-.844zm10.25.344c.53-.055.746.113.719.406l-4.719 1.625-.375-.25.938-.562.156.312c.365.045.656-.04.813-.344l-.157-.218c.306-.326.783-.385 1.219-.563l.219.375c.38.132.61-.082.781-.437l-.156-.25.562-.094zm-3.219.344l.438.75c-.088.174-.156.324-.313.156l-.406-.813c.087-.026.19-.06.281-.093zm-9.593.312L77 91l-1.375.469v-6.063l1.344-.5zm13.594.188l-.157 3.469-2.312.906-1.656-2.969 4.124-1.406zm-5.25 1.281l.593.188 1.875 3.187c-.318.165-.818-.067-1-.313l-1.469-3.062zm3.468.031c-.194-.005-.4.136-.594.625.125.286.276.596.75.531l.126.907.718-.281-.656-.844c.578-.072.366-.385.25-.688-.194-.079-.4-.244-.594-.25zm-3.312 1.906v.22l-9.844 3.437v-.188l9.844-3.469zM57 88.939l.219.124v.282l-.407-.281.188-.126zm28.375.03l.063 1.907-9.813 3.813v-2.032l9.75-3.687zM57.437 89l.438.188-.438.124V89zm-.75.125l.62.388v2.522l-1.87-1.285v-.781l1.25-.844zm1.376.156l1.312.625.031 1.406-1.968.688v-2.522l.624-.197zm28.5.313c.294.21.57.46.937.531v6l-.969-1.094.031-5.437zm-27.032.375l.25.125v1.125l1.407-.469.312.156-3.875 1.281V95l5.063-1.719v-1.719l.343.626v.937l.438-.156.125.187-3.75 1.219v2.813l5.062-1.72v-.656l.25.157v.312l.344-.125.25.156-2.719.907v2.812l5.063-1.719v-.53l.281.624-3.031 1v2.813l4.062-1.375.031.031h.126l-1.22.375v2.813l5.063-1.72v-1.812h.094v1.781l1.25-.437v.063L57.5 107.03v-3l2.188-.75v-2.75l-2.22.719v-3.219l2.032-.687v-2.75l-2.031.687-.032-3.156 2.094-.719V89.97zm-4.25.125v.687l1.938 1.344v3.125l-2.094-1.469v2.813l2.125 1.469v3.124l-2.344-1.656.032 2.813 2.312 1.594v.28l-4.969-3.5v2.813l4.969 3.438v.062L42.125 96.625l.063-.094 4.718 3.281v-2.75l-3.125-2.187.688-.375v.656l5.062 3.469v-2.75L46.844 94h.25l4.843 3.313v-2.75l-1.187-.844.094-.094L55 96.5v-2.75l-2.531-1.781.031-.031.063-.032 4.5 3.125v-2.75l-2.47-1.75.188-.125.344.25v-.469l.156-.093zm4.657.062l1.093.531-1.093.344v-.875zM55 90.281v.156l-.125-.093.125-.063zm-.5.313l2.406 1.719.032 2.5-4.313-2.97 1.875-1.25zm7.219.406l.812.375.032 1.813-4.782 1.624v-2.53L61.72 91zm-9.313 1.031l2.438 1.719.031 2.5-3.969-2.719 1.5-1.5zM84 92.094v3.625l-1.563.594-.03-3.626L84 92.094zm-20.813.375l.22.406-.22.063v-.47zm18.782.406l.022 3.89-1.95.719-.01-3.859 1.938-.75zm-18.313.406l.657 1.156.468.282v.656L60 97v-2.531l3.656-1.188zm-13 .531l1.125.782.032 2.5L47.28 94h3.188l.187-.188zm28.907 0l.03 3.594-2.093.781-.031-3.593 2.094-.781zM45.374 94h1.25l2.75 1.906.031 2.5-4.781-3.281v-.719l.75-.406zm9.906.031l2.048 1.41-.066 2.496-1.982-1.343V94.03zm-3.218.594l.03 2.813 5.063 3.5v-2.75l-5.093-3.563zm7.28.156l.032 2.469-1.995.678.022-2.478 1.942-.669zm17.657 0l.12 3.793-1.473.509-.022-3.77L77 94.78zm-24.781.094L57 98.188l.031 2.5-4.781-3.282-.031-2.531zm-8.563.063l3.063 2.156.031 2.469-4.531-3.094.937-1.25.5-.281zm22.25.5l2.063 1.28v.5l-4.781 1.657v-2.531l2.718-.906zm-16.187.5v2.812l5.062 3.5V99.5l-5.062-3.563zm.156.25l4.75 3.312.031 2.5-4.781-3.281v-2.531zm12.813.25l-5.063 1.656v2.812l5.063-1.719v-2.75zm-.157.187l.032 2.469-4.782 1.656v-2.531l4.75-1.594zm-15.437.469v2.844l5.062 3.468v-2.75l-5.062-3.562zm.156.25l4.75 3.344.031 2.5-4.781-3.282v-2.562zm21.156.156l.938 2.188-3.844 1.343-.031-2.531 2.937-1zm-3.312 1.156l-5.063 1.656v2.813l5.063-1.719v-2.75zm-.156.156l.03 2.47-4.78 1.656-.032-2.532 4.782-1.594zm8.312.688l.031 1.75-4.781 1.625v-2.531l1.625-.531 3.125-.313zm.406.094l1.094.312v.844l-1.094.375v-1.531zm-18.594.187l2.276 1.598v2.433l-2.276-1.5v-2.53zm13.032.719l-5.063 1.656v2.813l5.063-1.719v-2.75zm-8.563.188l.032 2.468-2.063.741-.031-2.522 2.062-.688zm8.407 0l.03 2.468-4.78 1.625v-2.531l4.75-1.563zm-15.5.28l4.838 3.357.053 2.5-4.892-3.325v-2.531zm10.25 1.407l-5.063 1.656v2.813l5.063-1.719v-2.75zm-.157.188l.032 2.468-4.782 1.625v-2.531l4.75-1.563z" fill="#5c2700" fill-rule="evenodd"/></svg>