<?xml version="1.0" encoding="UTF-8"?>
<svg width="128" height="128" version="1.0" xmlns="http://www.w3.org/2000/svg" xmlns:xlink="http://www.w3.org/1999/xlink">
 <path d="M84.75 5.219c-1.245.121-2.24 1.326-2.563 3.187v.031c-.126.816-.514 1.315-1.03 1.876-.518.56-1.166 1.131-1.72 1.968l-.03.063-.032.094c-.331 1.131-.42 3.352-.469 5.656-.049 2.277-.031 4.52-.031 5.531v.063c-.447 3.097-.722 6.242-.313 9.406-1.994-.028-3.499.88-4.812 2.25-.297.997.309 1.396.875 2.062.61 1.104 1.613 1.464 2.781 1.844 1.04-.064 2.084-.014 3.125 0 .247.258.52.51.844.75v.031c2.775 1.903 6.074 1.488 8.969.375.286.814.772 1.255 1.594 1.657 1.646.174 3.049-.264 4.374-1.188 1.794-1.847 1.29-3.58-.343-5.188l-.031-.03h-.032c-.578-.383-1.21-.72-1.875-.907-.01-.607-.082-1.396-.219-1.969C92.78 30.65 91.888 28.425 91 26.22c-.177-5.023-.55-13.54-3.25-18.219-.011-.037-.02-.058-.031-.094h-.031c-.288-.872-.662-1.575-1.157-2.031-.518-.478-1.158-.717-1.781-.656zm.094 1c.317-.031.65.083 1 .406s.719.848.969 1.656v.063l.03.062C89.34 12.65 89.825 21.356 90 26.375l-1.031 2.063-.406 2.937L87 32.844l.063.125 1.906-.782.375.657.187-.063-.156-.781.094-3.313.844-1.437c.78 1.923 1.577 3.871 2.53 5.75.157.656.142 1.082.094 1.625-.927.05-1.841.57-2.5 1.688-.22 1.012-.24 2.057-.25 3.093-2.761 1.105-5.739 1.481-8.218-.218-.921-.681-1.381-1.34-1.688-2.157-.306-.816-.448-1.793-.594-2.968v-.032c-.626-3.397-.313-6.797.188-10.25v-.094c0-1.006-.018-3.28.031-5.562.049-2.257.21-4.523.438-5.344.456-.663 1.012-1.184 1.562-1.781.176-.19.34-.403.5-.625l1.031 1.563-.062 1.874-.844 1.376v.03l1.125-1.093.25-1.563 1.719.376.031-.063L84 12l.031-.125L82.906 9.5c.122-.286.228-.593.281-.938.277-1.597 1.023-2.281 1.657-2.343zM32.75 10.53c-4.551-.048-5.462 5.335-5.938 9.125-.55 3.587 1.382 7.32.844 10.907-1.43 2.58-2.383 5.485-2.343 8.343V39c.87 2.853 2.034 5.473 3.843 7.844 3.624 1.17 6.82-.321 10-2.032h.032v-.03c.578-.557.95-1.176 1.218-1.844.787.071 1.734.269 2.719-.188v.031c1.056-.294 2.203-.407 2.781-1.656-.513-1.086-1.227-2.033-1.968-2.969-1.024-.569-1.942-.392-2.97-.093-.002-.168.003-.334 0-.5v-.032c.002-.011 0-.02 0-.031.398-2.94-.79-4.637-1.968-7.125-1.386-3.217-.5-7.582-.5-11.281-.992-3.497-2.073-7.341-5.75-8.563zm-.125.563c3.289.839 3.922 5.282 4.875 8.094-.006 2.32-.247 4.793 0 7.218l.156 5.875.938 2.532-2.125 5.843h.093l1.813-4-.219 1.125-.312 3.5-2.094 3.969h.188l2.5-3.656.187-3.688.531-3v-.062l-1.093-2.657.124-2.687c.087.25.145.505.25.75 1.235 2.282 1.725 4.587 1.563 7.156.276 2.367-.016 4.731-1.125 6.813-2.821 1.946-5.868 2.991-9.313 2.562-.904-1.447-.523-2.122-.687-3.125l1.25-2.125-.219-.25-1.437 2.344-.032 1.625c-1.267-2.053-1.255-4.142-2.125-6.438-.023-2.367.269-4.913 1.188-7.062l-.125 2.781 1.344 1.719.125-.125-1.157-1.531.344-3.907c.008-.062.025-.124.032-.187v-.156l1.53-1.594.032-.313-1.5 1.313c.237-3.278-.283-6.61-.313-9.906v-.094c.443-2.425 1.001-6.366 3.094-7.969l-.343 1.625.25.156.75-2.156c.326-.153.67-.269 1.062-.312zm45.656 23c.145 0 .29.023.438.031.003.02-.004.042 0 .063h-.031c.145 1.176.291 2.216.656 3.187.125.333.277.658.469.969-.78.16-1.6.504-2.344.531-1.177-.194-1.333-1.095-2.063-2.063-.375-.18-.99-.848-1.25-1.156 1.094-1.1 2.536-1.568 4.125-1.562zm14.906 1.062c.648.011 1.355.803 2.094 1.282 1.549 1.183 1.749 2.694.625 4.187-.979.814-2.56.387-3.781.469-.623-.175-1.105-.524-1.375-1.032-.011-.858.51-2.465.625-3.312.554-.892 1.168-1.605 1.813-1.594zm22.657 1.563c-1.969.283-2.79 1.709-3.531 3.406-1.364 2.83-2.88 5.581-4.063 8.5-.106 3.184.39 6.36.688 9.531-.218 1.231-1.221 2.458-1.938 3.563-3.952-12.884-20.926-22.563-41.188-22.563-15.05 0-28.213 5.344-35.624 13.375-.467-1.369-1.12-2.642-2-3.718v-.094l-.125-.063c-.821-.958-1.833-1.752-3.125-2.25l-.063-.031h-.063c-4.957-.34-5.762 5.366-6.093 9.219-.737 4.679-3.168 8.822-4.875 13.187-.415 4.915-.382 9.836-.031 14.75l.03.063.032.062c.32.856.705 1.535 1.156 2.094l-2.906-.906c-1.723.487-2.31 1.655-2.875 3.219-.017 1.369.924 1.999 1.938 2.718 2.617.327 4.857-.66 7.03-2-.137-.503-.436-.952-.75-1.375.695.232 1.455.378 2.345.438 3.338-.204 6.38-1.315 9.28-2.906l.063-.032.032-.062a6.676 6.676 0 001.25-2.125c7.428 7.847 20.395 13.08 35.187 13.125-.07.576-.124 1.179-.156 1.812-1.166.121-2.002 1.12-2.844 1.719-1.396.801-1.935 1.259-2.25 2.719.38 1.991 1.828 2.994 3.719 3.094 1.811.02 3.811-1.161 5-2.188 2.15.634 4.482.51 6.625 1.344 2.019.995 4.19.805 6.344.344 1.896-.672 3.459-2.14 4.124-4.407 1.36-.163 2.63-.506 3.626-1.406.16-1.044.008-2.184-.063-3.25-.155-.545-.754-.573-1.219-.75-1.277-.002-2.45-.076-3.687-.344a41.876 41.876 0 00-.656-1.562c11.95-3.934 20.747-11.566 23.062-20.688.614 1.242 1.585 2.286 3.063 3 3.117 1.183 6.076 1.768 9.343 1.031.227-.133.454-.253.656-.406.742.794 1.37 1.166 2.438 1 1.509-.415 3.314.157 4.375-1.75-.852-1-1.768-1.97-1-3.781-.982-.634-1.968-.614-2.969-.5.395-2.165.181-4.53-.344-6.531-.687-2.28-2.136-4.234-2.718-6.563-.458-3.632.796-7.637.969-11.437.365-2.547.395-4.585-.594-6.969l-.031-.063-.032-.03c-1.488-1.658-3.047-2.633-4.562-2.563zm.156.218c.1-.004.21.04.313.063l-1.938 3.719.219 3.281.187.094.188-3.25 1.937-3.625c.82.5 1.727 1.591 2.719 2.687 1.161 2.057.56 4.18.438 6.407-.365 3.813-.788 7.575-.532 11.406.501 1.948 1.237 3.822 1.906 5.718l-1.187 3.626-2.563 4.28-1.593.376.031.031 1.469-.125 3.187-4.375v-.031l.031-.063.938-2.812.094.281c1.105 3.947 1.02 8.832-2.375 11.313-2.21.833-4.696.123-7-.594l3.094.062 5.093-1.844 1.031-2.53h-.03l-1.157 2.062L115.344 75l-4.781-.25c-4.053-1.789-3.449-8.498-2.938-12.219a12.107 12.107 0 001.406-2.906c1.09-.909 2.058-1.739 2.813-3.563l-.156.032c-.022 1.033-1.355 1.547-2.282 2.218-.195-3.134-.605-6.455-.531-9.593 1.063-2.92 3.072-5.288 4.375-8.188v-.062c.458-1.542 1.358-3.027 2.75-3.532zm-72.938 1.407c.264-.024.499-.015.688.031.542.631.984 2.139 1.375 2.844-.43.386-1.665.9-2.438 1.187-.658.3-1.31-.222-2-.406.23-.967.285-1.997.282-3.031.565-.288 1.404-.562 2.093-.625zm22.5 1.218c19.999 0 37.33 10.333 40.97 23.282h.062c-.323 2.913-.608 6.107.312 8.656-1.883 9.252-10.848 16.994-22.969 20.938-.003-.01.004-.023 0-.032-.514-4.926-.206-9.874-.53-14.812-.048-1.57-.255-3.11-.563-4.625l22.062-2.813-25.094-7.594c-.053-.223-.674-2.188-.75-2.406l4.188-16.375L63 57.063l-25.594-7.938L50.47 65.156 31 78c-.014-.594-.027-1.183-.063-1.781-.188-3.15-.486-6.329.125-9.094.465-4.491.09-9.008-.53-13.469v-.031c-.052-.188-.1-.376-.157-.563 7.314-8.032 20.433-13.5 35.188-13.5zm17.407 4.594l-4.25 15.657a3.665 3.665 0 00-.844-.813c-1.598.017-3.273.683-4.344 1.313l-10.312-3.25 19.75-12.907zm-58.25 2.469c.897.357 1.625.985 2.25 1.719l1.281 5.406-.438 4.125-1.28 5.594.28.093 1.438-4.75 1.219 3.657-1.407 3.562 2-3.312-1.468-5.625.281-3.282-.438-3.156c.473 1.025.833 2.121 1.125 3.188.965 4.356 1.142 8.807 1.063 13.25-.59 3.134-.728 6.131-.5 9.281.183 3.06.03 5.787-1.656 7.75-1.088.672-2.214 1.329-3.375 1.875l-1.563-1.156-.531-1.25-.438-2.938-.062-.125-.25 3.125.094.219-2.5.219v.187l2.75.125.437.875 1.282 1.031c-1.475.63-2.983 1.101-4.532 1.25-2.656.119-3.824-2.144-4.968-4.28-.633-4.339-.649-10.05-.532-14.532.578-1.707 1.403-3.287 2.25-4.844-.43 1.186-.8 2.313-.406 4.094l.281-.031c-.34-2.268.556-4.122 1.157-6 1.001-1.934 1.885-3.921 2.156-6.25v-.062c.183-3.292.938-8.978 5-9.032zm13.125 2.781l24.906 7.782-11.844 8.124-13.062-15.906zm25.25 7.813l10.062 3.312c-1.527 1.202-2.563 3.033-3.437 5.219-1.183 2.696-1.084 5.657-.938 8.5l-10.031.938-7.688-9.907 12.032-8.062zm14 2.531c1.05.813 1.408 1.936 1.75 3.156.197 1.275.913 2.905 1.75 4.125 1.458 3.431 1.862 6.973 2.062 10.719.338 4.963.354 10.167.813 15.125 1.84 1.93 1.703 5.149 1.75 7.125-.583 1.973-1.844 3.706-3.469 4.281-1.646.583-3.675-.025-5.563-.781a5.249 5.249 0 00-.343-.188h2.437l3.656-1.78.063-.22 1.906-1.124-.094-.157-1.687.719.688-2.688-.22-.124-.968 3.312-3.5 1.5h-.094l.25-2.156-.062-.094-.875 2.25-3.438-.063c-1.939-.354-3.986-.159-5.812-1.124-.672-.48-1.594-1.251-2-2.594-.044-4.616 1.505-7.477 2.562-10.344l.031-.094v-.062c.055-4.666.671-7.139.75-11.906a28.312 28.312 0 01-.124-2.47l.093-.093h-.094c-.005-2.67.398-5.266 1.313-7.844.168-1.138.504-2.069.969-2.844a15.386 15.386 0 00-.281 4.344l.218-.062c-.173-2.18.974-4.052 1.625-6.031 1.056-.805 2.393-1.351 3.938-1.813zm2.75 3.125l24.125 7.25-21.094 2.469c-.518-1.608-1.268-4.214-1.969-6.125-.72-1.084-.863-2.342-1.062-3.594zM50.78 65.25l7.844 10.25-27.594 2.531 19.75-12.781zm73.125 6.313c.585-.022 1.041.25 1.375.718.106.756-.494 1.265.625 2.344.16 1.53-2.127 1.517-3.406 1.969-.752.184-1.087-.666-1.625-1.188 1.036-.977 1.713-2.22 2.094-3.594.002-.01-.003-.021 0-.03a2.47 2.47 0 01.937-.22zm-55.125 2.906c.035.663.074 1.331.094 2-.062 3.748-.762 6.393-1.063 9.625l-8.78-10.75 9.75-.875zm-9.937 1.281l8.937 10.625a30.872 30.872 0 00-.094 1.969c-.74 2.006-1.588 4.138-2 6.906-14.574-.03-27.658-5.33-35.062-13.188.323-1.173.421-2.448.406-3.75l27.813-2.562zM12 85.406c.982.117 2.605.89 3.469 1.344.935.39 1.27 1.61 1.812 2.438-1.24.636-3.114.41-4.531.937-.887.33.403-1.68.5-1.844.15-.254-1.59 1.837-1.875 1.844-.705-.299-1.282-1.31-1.625-1.875.575-1.182 1.09-2.31 2.25-2.844zm73.125 9.813c1.075.333 2.422-.046 3.625.094.455.54.349 2.64.375 3.406-.714.726-1.95.579-2.969.719-.153-1.445-.528-2.855-1.031-4.22zm-19.688 3.469V99c.247 1.41 1.168 2.36 2.094 3.375.285.158.58.26.875.375-1.362.809-2.7 1.662-4.281 1.75-1.515.005-2.397-.983-3-2.219-.043-.742.644-1.82 1.875-2.531.733-.651 1.538-.893 2.438-1.063z" fill="#5c2700"/>
</svg>
