<?xml version="1.0" encoding="UTF-8"?>
<svg width="128" height="128" version="1.0" xmlns="http://www.w3.org/2000/svg" xmlns:xlink="http://www.w3.org/1999/xlink">
 <path d="M69.825 36.53L4.999 58.723v3.213L.934 63.767l-.04.787 59.44 40.222 31.209-11.662v-.684l-.09-.03.09-.03-3.957-2.26v-4.195l1.517 1.13 4.73-1.725 2.053 1.547-2.44 1.22.12.089-.03.625 3.57 2.618 30.137-11.067-.003-.579-2.942-2.218V73.33l-54.473-36.8zm-.09.476l53.76 36.116-25.378 8.866-4.224-3.213-4.641 1.725-1.517-1.07 19.575-7.26-17.404-12.406 1.875-.862 19.188 13.744-14.756 5.385 2.797 2.35 21.777-7.467-29.155-19.992-16.214 6.277-1.904-1.1 16.511-6.218L69.438 37.72l-15.262 5.563L66.642 52l10.948-3.838-7.438-4.671-6.604 2.886-1.428-1.31 8.21-3.123 10.026 6.694-13.923 4.968-3.63-2.47-10.71 4.255-1.397-1.041 10.71-4.344-8.687-6.128-19.01 6.694 4.73 4.194 11.096-4.135 1.845 1.28-22.848 8.24-1.726-1.16 9.847-3.63-4.7-4.224-23.86 7.973 11.692 7.378 13.298-4.998L34.75 62.5 21.57 67.708l14.786 9.728 19.516-7.23-7.408-6.574-9.193 3.332-1.785-.982 19.1-6.872 1.13.952-8.18 3.153 7.705 6.516 17.88-6.754 8.33 4.91 7.437-2.946 1.25.773-7.408 2.946 6.218 3.956-18.089 7.408-8.151-5.92 1.517-.565 6.664 5.266 15.738-6.189-13.834-8.36-4.462 1.756 10.115 5.95-1.785.892-10.086-6.277-18.891 7.14 12.138 9.134-7.586 3.153-1.488-.892 6.754-2.5-11.484-8.33-10.502 3.987 22.76 15.59 14.041-4.82-8.27-5.92 1.844-.685 7.795 6.07 8.925-3.154-5.742-4.493 1.339-.476 6.456 5.355-26.389 9.52L6.011 58.634l63.725-21.628zm-.505 1.22v3.659l-7.676 3.064v1.636l-1.279.446-5.385-3.659 14.34-5.147zm.416.089L89.252 51.79l-5.236 1.934-2.945-2.023v-2.886L70.479 41.38l-.833.327v-3.391zm.209 5.89v5.385l-3.779 1.428-2.469-1.726v-2.618l6.248-2.469zm.416.03l6.307 3.778-5.533 2.023-.774-.476v-5.325zm-17.88.268v5.474l-2.201.773-.536-.387-10.918 4.046-4.373-3.778 18.028-6.128zm.417.119l7.675 5.384-4.79 1.964-2.885-2.053v-5.295zm9.163.833l1.22 1.13v2.44l-1.22-.833v-2.737zm-.417 1.517v.922l-.892-.595.892-.327zm19.1 1.993v5.444L66.88 59.407c-.125-.07-.249-.155-.387-.208v-5.206l14.161-5.028zm-10.591 1.13l.297.18-3.45 1.278-.358-.208 3.51-1.25zm-17.523.328l2.559 1.785-3.094 1.28-.09-1.429-1.279-.982 1.904-.654zm-20.885 1.1v5.326l-5.384 2.082.03.12-11.633 3.897-5.801-3.66 22.788-7.764zm.417.03l3.957 3.6-3.957 1.517v-5.117zm30.524.06v5.593l-5.207 2.053-.565-.506-4.522 1.606V55.51l10.294-3.897zm.416.208l3.064 2.142v5.058l-.03.06a5.508 5.508 0 00-.565-.12l-2.469-1.696v-5.444zm18.059.327l2.528 1.756-2.528.922v-2.678zm-29.483.03v1.488l-1.636.654v4.106L35.76 63.543V62.5l-2.707-1.457-6.397 2.44v-4.255l1.666 1.28 23.265-8.33zm39.836 1.19v5.325l-2.32 1.012.207.149-11.513 4.403-2.261-1.34v-3.45l15.887-6.099zm.416.208l27.965 19.19-5.325 1.814-22.61-16.095-.03-4.909zm-41.442 1.042l1.488 1.1v4.79l-.655.238-.833-.416v-5.712zm30.405.089l-.03.208-8.033 3.064-.089 5.653-15.202 5.623-2.29-1.904 3.182-1.19v-5.95l-.714-.744 5.028-1.904 1.874 1.309c-.247-.017-.501-.043-.743-.06-1.755-.016-3.246-.27-4.046 1.518.001.01-.002.02 0 .03l.03 3.57c2.796 2.03 5.07 1.253 8.062.178l-.12-3.69c.019-.03.043-.056.06-.088-.137-.298-.341-.498-.565-.685l13.596-4.938zm-7.735 3.45l2.052 1.34v3.213l-2.052.773v-5.325zm-23.116.596v1.785l.863.357-13.924 4.968.03 6.099 2.142 1.339 8.925-3.065.357-.089 1.964 1.785-13.864 5.117-8.568-5.533 7.914-3.094-.03-4.582 14.19-5.087zm-44.536.238l54.68 36.622v5.504L5.417 64.376V58.99zm58.34 0a5.584 5.584 0 011.725.178c.073.02.168.037.238.06.64.211 1.187.562 1.666 1.1-.697 1.251-2.278 1.277-3.63 1.37-1.556.063-3.203 0-3.629-1.37.568-1.426 2.29-1.251 3.63-1.338zm-37.515.357v4.284l-6.515 2.499-4.671-2.945 11.186-3.838zm36.414.09c-.837.068-1.47.408-1.666.951.57.89 1.533.843 2.559.922 1.215.162 2.215-.3 2.558-.922-.552-.88-1.55-.843-2.558-.922a4.702 4.702 0 00-.893-.03zm1.22.207c.11-.003.217-.007.327 0 .663.042 1.31.341 1.636.744-.523.76-1.543.627-2.29.684-.885.172-2.08-.156-2.142-.684.074-.962 1.385-.65 2.142-.714.106-.022.217-.026.327-.03zm25.764.447l16.6 11.989-4.85 1.844-8.508-6.039.03-2.023-2.023-1.25-1.25.477v-4.998zm-.417.119v5.057l-5.831 2.261-5.236-3.094 11.067-4.224zm-31.327.178v5.593l-2.975 1.13-4.73-3.897 7.705-2.826zm9.55.417l.09 3.094c-2.331 1.08-5.502 1.644-7.498-.209v-2.588c.705 1.043 2.4.875 3.719.952 1.533.022 2.908-.322 3.689-1.25zM4.999 62.144v2.38l55.187 37.129 27.4-9.699v-1.309L90.56 92.4l-30.286 11.246L1.4 63.929 5 62.144zm30.345.536v5.504l-7.794 3.153-5.474-3.54 13.268-5.117zM1.132 64.019l59.084 39.954-.03.417L1.102 64.495l.03-.476zm46.856.208v5.563l-8.508 3.064v-5.712l8.508-2.915zm.417.03l6.694 5.89-4.255 1.577-2.38-2.112-.06-5.355zm26.537.505l12.822 7.706-5.652 2.26-1.16-.683V72.14l-6.01-3.659v-3.719zm-.417.06v3.421l-3.54-2.112 3.54-1.31zm17.94 1.19v5.533l-1.458.625-5.682-3.362 7.14-2.796zm-55.127.119l1.725.982v5.712l-1.725-1.012v-5.682zm31 1.011v5.504l-1.875.684-.208-.148-2.231.803-.09.298-8.508 3.242-5.087-3.659 17.998-6.724zm.416.03l9.669 5.95v3.065l-2.737 1.1-6.932-4.611v-5.504zm24.127 1.25l7.914 5.712-8.955 3.421v-4.82l-.416-.327 1.457-.565v-3.421zm-12.346 3.927v3.005l-1.666.654v-2.797l1.666-.862zm10.889.505v4.85l-4.195 1.636-.06.893-4.343 1.695-2.678-2.142-1.963 1.012.03.03v2.975l-4.969 2.052v-5.503l18.178-7.498zm19.902.09v2.737L99.01 79.935l-1.993-1.755 14.31-5.236zm-42.78.089l6.664 4.492-2.232.833-6.098-4.7 1.666-.625zm43.197.178l2.261 1.548-2.261.773v-2.32zm12.138.268l.09 5.564-25.586 8.835v-5.563l25.496-8.836zm-59.53.744l8.479 6.307v5.266l-4.91-3.719-.326.12-3.243-2.351v-5.623zm16.6.119l.834.506-.834.327v-.833zm-17.017.417l.03 5.176 3.273 2.41-1.756.654-.089 5.95 2.47 1.875-7.468 2.588-3.272-2.231 5.563-2.291v-5.95l-6.872-5.117 8.121-3.064zm-15.916.03l10.68 7.675-4.968 1.963-5.712-4.165v-5.474zm-.416.118v5.504l-4.046 1.547-5.266-3.57 9.312-3.48zm76.696 3.035l2.201 1.785-29.453 10.62-3.004-2.2 2.171-1.042 1.934 1.458 26.15-9.282v-1.34zm-30.732 1.487v5.445L89.37 86.45v-5.503l4.195-1.518zm.416.03l3.987 3.005v5.385l-3.987-3.035V79.46zm32.874.417l.09.267-29.84 10.86-3.302-2.262-.03-.416 3.272 2.32 29.81-10.77zm-39.27.03l1.368 1.19v5.176l-1.368-.863v-5.504zm-39.627.832l5.355 3.838-1.19.476-.06 2.678-8.122-5.504 4.017-1.488zm39.21.03v4.79l-3.986-3.302 3.986-1.488zm-8.538.387l5.177 4.105-4.82 1.666-.357-.386v-5.385zm-16.363 1.904l.03 5.533-5.533 2.35-2.5-1.695V86.39l8.003-3.332zm3.54.208l7.498 5.653-5.028 1.755-2.44-1.874-.03-5.534zm12.406 1.012v2.469l.357.327-2.796.982-2.35-1.785 4.79-1.993zM52.481 85.29l1.368.982v2.677l-1.368-.922V85.29zm34.688.774v5.474l-26.656 9.609v-5.593l26.656-9.49zm4.046 6.426v.535L60.513 104.3v-.327L91.215 92.49z" fill="#5c2700" fill-rule="evenodd"/>
</svg>
