<?xml version="1.0" encoding="UTF-8"?>
<svg width="128" height="128" version="1.0" xmlns="http://www.w3.org/2000/svg" xmlns:xlink="http://www.w3.org/1999/xlink">
 <path d="M48.031 23.469c-5.363 1.818-9.983 5.286-14.843 8.187-4.898 2.632-8.57 6.565-12.97 8.5C12.95 42.59 7.633 48.78 2.157 53.813l.594.124c5.336-5.314 10.788-9.884 17.781-12.843 5.053-1.98 9.268-5.483 13.532-8.75 3.843-2.917 7.545-5.709 11.718-6.844-3.222 3.364-5.007 7.417-8.218 11-5.784 4.199-8.112 10.263-10.282 16.875-.937 3.366-1.503 6.846-2.093 10.344-2.828 1.684-4.654 4.105-7.313 6.031-4.91 1.414-7.964 5.274-10.688 9.375l.22.156c2.536-4.227 5.898-6.613 10.78-8.094 2.19-1.703 4.37-3.447 6.594-5.124-.356 2.015-.748 4.022-1.25 6.03-1.73 3.836-3.042 7.847-4.437 11.813-1.664 4.698-3.427 9.385-4.813 11.563l.219.406c1.525-2.397 3.99-6.7 5.656-11.406 1.667-4.707 3.156-9.687 4.282-11.938 1.368-6.27 2.29-11.629 3.687-17.906 1.658-5.954 4.556-12.43 10.781-17.094l.032-.031.03-.031c4.013-4.444 5.223-8.547 9.594-12 5.672 1.986 8.586 4.391 14.313 7.25 4.286 2.724 9.029 4.008 12.531 7.875 2.702 4.501 7.507 7.228 11.25 10.812 2.39 3.722 5.422 6.918 8.781 9.719 3.14 2.608 5.987 5.098 7.438 8.25-1.53-3.413-3.654-6.434-6.781-9.031-3.225-2.679-6.633-5.423-8.969-9.125l-.031-.032-.031-.03c-3.4-2.957-6.662-5.838-9.126-9.532 2.825-1.686 3.969-2.632 5.032-3.625.939-.877 2.012-1.886 4.062-3.438.182 3.305 2.8 5.266 5.063 7.25 2.032 2.48 3.977 4.98 5.031 8.032l.125-.188c-.581-2.906-2.608-6.154-4.344-8.468-2.259-1.65-3.53-3.736-4.25-6.282 2.087 1.406 4.887 2.345 7.844 3.25 3.637 1.113 7.418 2.233 10.125 4.125 1.423 3.877 5.134 9.26 7.656 12.375l.375-.156c-2.513-3.103-5.453-9.393-6.719-13-3.055-2.366-7.475-3.18-11.156-4.313l-9.5-4.843c-2.827 2.05-3.909 3.916-4.969 4.906-1 .935-2.139 2.243-4.718 3.844a24.345 24.345 0 01-.844-1.407v-.03l-.031-.063c-3.42-4.055-8.894-5.018-13.25-7.719h-.032l-.03-.031c-4.566-2.792-9.484-5.584-15.376-8.375zm13 19.687l.063.063c3.55 1.189 4.946 4.18 6.343 6.718 1.23 2.233 2.125 4.787 3.626 7.22l-1.032-.126-27.25 6.094c-4.016.367-6.249-1.669-6.687-5.313l-.188-.093c.116 4.426 2.58 6.364 6.719 6.406l.094 5.094.187 21.469c-1.134 2.17-3.655 3.22-5.687 4.53-1.874 1.37-3.84 2.666-4.469 4.876l.281-.031c.505-1.771 2.644-3.028 4.532-4.407 1.832-1.338 4.987-2.208 5.906-4.625l.812.469 6.875-1.438 5.5-1.5.532-.124.78-.157c.104.13.18.278.282.406l-1.813.376 2.157 2.5 1.593-.376c.267.362.53.736.782 1.094l-1.657.469L61.094 95l1.437-.406c.128.209.254.418.375.625l-1.843.469 1.468 2.124 1.532-.406c.023.05.04.107.062.156.07.157.121.338.188.5L63 98.344l.406 2.781 1.719-.344c.098.593.146 1.167.094 1.656-.14 1.305-1.916 4.337-3.25 5.657l-.594-1.188-3.781.125.781 1.875c-.715.166-1.435.336-2.156.5l-.719-1.437-3.438.156.813 2.031c-.881.196-1.79.4-2.688.594l-.812-1.563-3.438.126.907 2.156c-1.338.28-2.017.38-3.407.656v.813c7.46-1.521 13.499-3.007 20.094-4.594-.557.867-1.065 1.581-1.468 2-6.15 1.483-11.759 2.853-18.094 3.937l-.032.5c1.463-.292 2.48-.51 3.938-.812l2.438 5.906-4.344.781-.063.594 23.375-4.156c-.574.511-1.21 1.01-1.875 1.531l-21.437 3.844-.094.562 5.344-.937.718 1.719 4.47-.938-.813-1.563 1.5-.25.5 1.25 4.468-.937-.53-1.094 1.468-.25.594 1.469 4.5-.906-.656-1.344 4.593-.813.5 1.25 4.5-.937-.531-1.094 6.719-1.187.375 1.031 4.562-.656-.531-1.125 2.406-.438.5 1.156 4.5-.937-.5-1 1.688-.313.562 1.376 4.5-.938-.594-1.219 1.438-.25.406 1.031 3.875-.812.625-.125-.437-.875 1.5-.25.562 1.313 4.5-.938-.594-1.188 1.438-.25.531 1.25 4.031-.968-.437-1 .813-.281-.407-.563-3.125.563a7.701 7.701 0 001.531-1.313l1.25-.219-.187-.562-.531.094c1.063-1.477 1.682-3.31 1.812-5.22-.026-1.97-.707-3.36-1.844-4.218.6-3.058.333-6.358.75-9.469l-8.406-5.312c-.645-1.477-1.268-2.66-2.281-3.469-1.655-1.26-3.789-1.856-5.688-2.063-3.618 1.272-7.528 2.45-9.437 5.75l-10.781 3.782.344.125c.305 1.73.789 5.512.968 7.875a10.291 10.291 0 00-1.187 4.125c.018 1.377.353 2.477.937 3.312-.315.07-.599.15-.906.219l-.313-.688-3.343.313.406 1.094c-.166.038-.333.086-.5.125-.208-2.044-.903-4.017-2-5.938l1.781-.375-1.687-2.344-1.688.344c-.26-.348-.55-.71-.844-1.062l1.594-.438-1.344-2.219-2.124.563c-.205-.211-.413-.413-.626-.625l1.344-.375-2.125-2.313-1.562.47c-.242-.22-.503-.437-.75-.657l1.312-.313-1.969-2.374-1.937.437c-.107-.09-.206-.192-.313-.281l1.407-.281-.125-.126 7.187-2.28-.156-20.313-.531-6.5c-1.744-2.515-3.107-5.288-4.531-7.875-1.46-2.651-3.482-5.04-7.282-6.313zm8.688 14.25l1.594.125c.032.05.06.106.093.157L44.22 64l-.407-.438 25.907-6.156zm2.844.657l.093 5.25L44.5 69.906l-.156-5.187 28.218-6.656zM43.25 63.937l.469.407.031 4.937-.438-.437-.062-4.906zm29.438.22l.28 19.75-2.906.937-1.53.469-.22-20.188 4.376-.969zm-4.813 1.062l.219 19.812-1.031-1.812.062-17.844.75-.156zm-1.25.281v17.281l-13.656-7.625L53 68.47 66.625 65.5zm-1.75 1.156l-.125 4.438-3.125-.438.094-2.312-.25-.125-.125 2.375-3.094-.438v-1.969l-.281-.093v2.031l-.688-.094v.125l.719.125v2.563l-1.656-.688-.094.344 1.75.688.031 2.28a50.03 50.03 0 01-3.062-1.124l.125-5.219-.157-.125-.218 5.25a20.714 20.714 0 01-1.094-.5l-.25.188c.438.224.886.404 1.344.593l-.032.594.25.188.032-.688c.997.398 2.026.766 3.062 1.094v.531h.25v-.438c.912.288 1.83.55 2.719.876l-.063 1.093.376.094.03-1.063c.411.157.822.32 1.22.5v-.187c-.393-.18-.787-.342-1.188-.5l.094-2.063 1.687.657v4.344l.344.124s-.073-3.01-.094-4.343l2.344.906.031-.25-2.375-.969c-.002-.13 0-.525 0-.562h-.25v.469l-1.687-.688.156-3.375 3.125.531-.031.625.25.25.031-.812.813.125.03-.344-.843-.125.156-4.406-.281-.063zm-12.438 1.938l-.062 6.031-1.344-2L51 68.906l1.438-.312zm-1.937.437l.195 20.846-5.664 1.154-.406-20.719 5.875-1.28zm-7.063.563l.813.812.031 20.438-.968-.438.124-20.812zm14.813.719l3.063.53-.157 3.282-2.875-1.188-.031-2.624zm.031 2.968l2.844 1.125L61 76.47c-.892-.339-1.812-.638-2.719-.938v-2.25zm-7.25.063l1.344 2.094 14.25 7.78v.063l1.313 2.25-1.876.625-1.624-1.594-1.626.407c-.17-.14-.33-.268-.5-.406l1.344-.282-2.281-1.812-1.281.281c-.162-.132-.308-.275-.469-.406l1.313-.281-2.063-1.97-1.469.438c-.1-.083-.213-.167-.312-.25l1.093-.344-1.906-1.5-1.093.22c-.262-.226-.53-.435-.782-.657l.532-.156-1.126-1.313-.75.25c-.19-.176-.379-.357-.562-.531l.063-.031.343-.125-.781-.656-.406.062c-.23-.229-.474-.464-.688-.688v-1.468zm.032 1.875c6.03 6.308 18.004 14.245 23.03 21.031 1.928 2.601 3.097 5.417 3.344 8.219-.467.108-.944.236-1.406.344-.095-3.082-1.184-5.983-3.281-8.813-5.204-7.025-15.733-14.04-21.625-20.219l-.031-.031-.032-.031v-.5zm1 .531l.406.188-.219.093c-.087-.083-.165-.167-.25-.25l.063-.031zm-1 .438c.099.103.21.208.312.312l-.313.188v-.5zm.437.437c.174.176.351.354.531.531l-.656.219c-.096-.197-.204-.404-.281-.594l.406-.156zm2.219.156l.875.906-.407.094c-.31-.275-.642-.542-.937-.812l.469-.188zm-1.469.594c.235.23.475.456.719.688l-1.063.25c-.126-.214-.266-.419-.375-.626l.719-.312zm-1.188.281c1.41 3.122 4.648 6.454 7.344 9.75 2.832 3.463 5.793 7.149 7.219 10.313.713 1.582 1.146 3.073 1 4.437-.09.84-1.348 3.372-2.625 5.469-.37.088-.755.163-1.125.25 1.329-1.52 2.663-4.041 2.813-5.438.171-1.606-.242-3.285-1-4.968-1.518-3.368-4.42-6.853-7.25-10.313-2.535-3.1-5.035-6.164-6.376-8.937v-.563zm2.157.625c.233.22.479.436.718.656l-1.468.313c-.15-.224-.272-.437-.407-.656l1.157-.313zm2.968.438l1.5 1.125-.843.219c-.487-.407-.942-.79-1.407-1.188l.75-.156zm-5.03.125c.1.211.232.415.343.625l-.344.062.875 2.313.75-.25c.064.096.09.216.157.312l-.844.25 1.156 1.656.969-.218c.106.14.203.296.312.437l-1.312.281 1.656 1.782L56 85.875c.158.194.308.397.469.594l-1.688.406 1.594 1.438-5.219 1.465-.093-10.903.093-.031zm51 .219c1.96.555 3.923 1.134 4.968 1.968 1.157.924 2.135 2.07 3 4.156.324.476.703.85 1.125 1.22l2.688 2.03-19.813 5.844-.125-.094h.156c.79-.907 1.237-2.29 1.656-3.718.42-1.428.538-3.214.907-4.094-.221-1.773.958-2.829 1.781-4.313.627-.979 1.613-1.818 3.25-2.78 1.106 1.275 1.152 1.779.906 3.25.056.876.489 1.687.844 2.468h.313c-.305-.743-.493-1.584-.72-2.344.384-1.501-.08-2.628-.937-3.594zm-48 .093c.47.43.945.878 1.437 1.313l-1.875.5c-.381-.501-.733-.986-1.063-1.469l1.5-.344zm46.906.125c-.956.586-2.666 1.384-3.407 2.219-.806 1.26-1.18 2.762-1.625 4.813-.473 1.262-.797 2.576-1.156 3.874-.384 1.306-.548 3.117-1.031 3.876l-7.25-5.438c2.183-.702 3.92-2.121 5.875-3.25 1.652-3.61 5.029-5.29 8.594-6.094zm-49.407.469c.282.513.575 1.022.907 1.531l-.376.125-.718-1.625.187-.031zm7.094.625l1.594 1.531-1 .219c-.563-.46-1.141-.923-1.688-1.375l1.094-.375zm-2.938.281c.101.09.18.192.282.281l-1.969.594a54.785 54.785 0 01-.219-.281l1.907-.594zm.563.531c.485.424 1.003.855 1.5 1.282L55.312 83c-.321-.391-.66-.768-.968-1.156l2.031-.656zm-3.188 1.032c.256.364.537.726.813 1.094l-.594.124-.812-1.03.593-.188zm4.97.469c.156.134.31.271.468.406l-2.719.594c-.115-.139-.23-.269-.343-.407l2.593-.594zm3.187.124l1.562 1.25-.968.188c-.51-.416-.995-.807-1.5-1.219l.906-.219zm-2.407.563c.47.4.935.785 1.407 1.188l-3.188.656c-.346-.41-.683-.804-1.031-1.219l2.813-.625zm-4.187.906c.312.399.608.812.938 1.219l-.72.156-1.03-1.187.812-.188zm55.438.5l6.968 4.094-23.344 7.25-10.687-8.031 8.813-3.219c-.027.055-.069.1-.094.156-1.47.906-2.894 1.666-4.344 2.469l-2.344.875 8.875 6.5 21.063-6.281-.781-.438c-1.218-1.075-2.833-1.646-3.907-2.875-.073-.177-.147-.329-.219-.5zm-45.876.031l1.344 1.594-.937.188c-.567-.473-1.115-.968-1.688-1.438l1.282-.344zm-3.593.063c.182.155.35.313.531.469l-3.313.781c-.155-.186-.31-.375-.468-.563l3.25-.687zm.75.656c.537.46 1.062.913 1.593 1.375l-3.874.719c-.123-.15-.253-.288-.376-.438-.22-.268-.458-.569-.687-.843l3.344-.813zm-4.813 1.156c.209.256.412.49.625.75.129.157.248.312.375.47l-.875.187L55.406 87l1.25-.313zm6.719.5c.105.093.207.19.313.282l-3.938.844c-.09-.109-.192-.205-.281-.313l3.906-.813zm3.563.063L68.561 89l-.843.156a125.99 125.99 0 00-1.906-1.656l1.124-.25zm-2.813.594c.609.538 1.194 1.085 1.781 1.625l-4.531.844c-.436-.537-.864-1.084-1.313-1.626l4.063-.843zm18.219.437l11.031 8.313v.031l.063 6.656c-.692.895-1.2 1.95-1.532 3.063-3.014-1.26-5.509-3.435-7.219-6.063-1.422-4.31-1.777-8.063-2.343-12zm-23.813.75c.43.544.844 1.084 1.25 1.625l-1.062.375-1.594-1.719 1.406-.28zm59 .344c-.505 2.933-.215 5.985-.656 8.875-.94-.505-2.095-.731-3.438-.656-3.375 1.024-5.297 4.046-5.75 7.375-1.527.294-2.88.482-4.374.656l-.188-.344c-.274-3.33-2.54-4.87-5.813-4.687-1.345.408-2.46 1.16-3.343 2.094l.094-6.063 23.468-7.25zm-51.281.406c.26.241.527.478.781.719l-4.469 1.313c-.256-.331-.514-.669-.78-1l4.468-1.032zm3.781.344l1.531 1.563-.843.218c-.499-.489-1.028-.976-1.563-1.469l.875-.312zm-2.625.75c.522.501 1.043 1 1.531 1.5l-4.968 1.313c-.356-.51-.734-1.02-1.125-1.532l4.562-1.281zm-6.187 1.75c.36.52.707 1.02 1.031 1.531l-1.094.281-1.125-1.468 1.188-.344zm8.062.125c.194.202.407.392.594.594l-5.188 1.375c-.127-.2-.271-.394-.406-.594l5-1.375zm4.313.125l.844 1.313-1.22.343a36.988 36.988 0 00-1.156-1.281l1.532-.375zm-3.344.875c.384.426.744.826 1.094 1.25l-5.656 1.5c-.24-.464-.497-.944-.782-1.406l5.344-1.344zm1.438 1.688c.212.266.427.546.624.812.04.054.086.102.126.156l-6.188 1.281c-.054-.124-.1-.251-.156-.374-.057-.127-.127-.25-.188-.376l5.781-1.5zm-8.594.124c.273.482.521.968.75 1.438l-.969.25-1.094-1.344 1.313-.344zm12.937.626l.844 1.468-1.188.25c-.3-.492-.62-.981-.968-1.469l1.312-.25zm7.063.437c.286 1.265.616 2.56 1.062 3.906.971 1.664 2.191 2.944 3.594 4-.062.032-.123.066-.188.094-3.206.477-4.952-2-5.343-4.781.056-1.141.389-2.222.875-3.219zm-10.375.219c.337.494.66.993.937 1.5l-6.625 1.437a15.892 15.892 0 00-.594-1.656l6.282-1.281zm41.156 1.219c2.856-.092 4.599 2.444 4.969 5.062-.16 3.303-2.436 5.956-5.406 7.25-3.207.477-4.953-2-5.344-4.781.161-3.278 2.27-6.18 5.219-7.469.2-.03.372-.056.562-.063zM64.5 98.5c.208.558.402 1.124.531 1.688l-1.344.28-.218-1.75L64.5 98.5zm9.406.375c.986 1.968 1.544 4.005 1.625 6.031-1.618.378-3.161.753-4.75 1.125l-.469-.969-3.78.126.718 1.656c-.824.194-1.685.4-2.5.594 1.28-1.89 2.492-4.05 2.594-5 .072-.68-.018-1.393-.188-2.126l6.75-1.437zm40.156 0c-1.35.078-2.484 1.098-3.718 2.469-1.29 2.903-1.776 4.786-.063 7.25 2.724 2.017 4.402.796 6.375-1.375 1.288-2.79 1.84-4.808.125-7.313-1.026-.761-1.908-1.078-2.719-1.031zm-.093.563c.721-.037 1.485.17 2.281.656 1.846 2.13 1.211 4.641 0 6.906-1.494 1.945-3.381 2.652-5.5 1.344-1.84-2.136-1.217-4.64 0-6.906.931-1.222 2.016-1.94 3.219-2zm-40.031.78l-6.094 1.407-.281 2.531L75 103.031l-1.063-2.812zm-.157.5l.594 1.876-6.313.969.157-1.594 5.562-1.25zm23.969.344c2.856-.09 4.599 2.445 4.969 5.063-.155 3.21-2.31 5.793-5.156 7.125l-1 .188c-1.707.01-2.92-.89-3.688-2.188a6.086 6.086 0 01-.406-.813 7.829 7.829 0 01-.5-1.843c.161-3.278 2.27-6.18 5.219-7.469.2-.03.372-.056.562-.063zm.188.813c-1.35.078-2.485 1.098-3.72 2.469-1.29 2.903-1.775 4.786-.062 7.25 2.724 2.017 4.402.796 6.375-1.375 1.288-2.79 1.84-4.808.125-7.313-1.026-.761-1.908-1.078-2.719-1.031zm15.75.188c-.598.063-1.086.496-1.657 1.062-.743 1.125-.527 1.92 0 3 1.22.729 1.96.183 2.875-.719.744-1.124.527-1.919 0-3-.458-.272-.86-.382-1.219-.344zm-.157.25c.422.01.829.243 1.031.312.503.69.095 1.846-.124 2.563-.362.727-1.44.687-1.876.75-.5-.692-.346-2.003-.124-2.72.241-.728.672-.917 1.093-.906zm-15.687.124c.721-.036 1.485.17 2.281.657 1.846 2.13 1.211 4.641 0 6.906-1.494 1.945-3.381 2.652-5.5 1.344-1.84-2.136-1.217-4.64 0-6.906.931-1.222 2.016-1.94 3.219-2zm-17.094.876l.188.374c-.726.166-1.469.304-2.188.47l-.219-.532 2.219-.313zm2.188.312c.558.643 1.278 1.088 2.156 1.344-2.379.48-4.747.994-7.094 1.531.04-.569.067-1.131.031-1.688 1.631-.393 3.197-.782 4.906-1.187zm-5.47 1.313c.03.572.02 1.152-.03 1.718-.501.116-1 .227-1.5.344.068-.58.123-1.152.124-1.719.46-.111.941-.231 1.407-.344zm10.844 0c.347.238.698.47 1.063.687l2.281 4.594c.202.88.557 1.617 1.063 2.187l-2.844.5-3.406-7.687c.35.023.715.022 1.094 0 .265-.08.504-.184.75-.281zm9.25.124c-.597.064-1.085.497-1.656 1.063-.743 1.125-.527 1.92 0 3 1.22.729 1.96.183 2.875-.719.744-1.124.527-1.919 0-3-.458-.272-.86-.382-1.219-.344zm-.156.25c.422.012.829.244 1.031.313.503.69.095 1.846-.124 2.563-.362.727-1.44.687-1.876.75-.5-.692-.346-2.003-.124-2.72.241-.728.672-.917 1.093-.906zm-11.469.032l3.188 7.687-2.563.469-3.593-7.469c.988-.234 1.978-.453 2.969-.687zm-10.374.062c0 .55-.026 1.113-.094 1.656-.003.02.002.043 0 .063-4.305 1.013-8.592 2.058-12.875 3.094.469-.476 1.046-1.21 1.656-2.063 3.69-.89 7.445-1.811 11.313-2.75zm-5.5.156l.25.563c-.783.184-1.569.38-2.344.563l-.375-.907 2.469-.219zm37.53.157c.023 1.68.53 2.938 1.376 3.812l-1.063.188-1.562-3.781c.411-.073.807-.137 1.25-.22zm-1.968.344l1.563 3.78-1.688.313-1.844-3.812c.67-.078 1.331-.177 1.969-.281zm-15.375.03c.502.267 1.003.519 1.531.75a11.445 11.445 0 00-.281 1.688l-1.25-2.437zm-8.094.126l3.625 7.406-2.844.5-3.093-7.344c.771-.183 1.54-.38 2.312-.562zm20.906.344l1.782 3.718-3.125.531-.094-.218a10.115 10.115 0 001.438-4.031zm-23.53.28l2.812 7.407c-2.492.477-4.978.842-6.906 1.188l-.532-1.032c2.589-2.54 2.666-3.997 3.063-7.187.52-.123 1.041-.252 1.562-.375zm-2.157.5c-.314 2.62-.435 4.174-2.656 6.657l-.781-1.563c.985-1.576 1.594-3.14 1.874-4.718.521-.123 1.042-.252 1.563-.375zm-16.156.22l.312.624c-.803.189-1.63.376-2.437.563l-.438-1.031 2.563-.156zm14.125.28c-.265 1.336-.805 2.69-1.656 4.094l-1.626-3.343c1.093-.256 2.189-.493 3.282-.75zm-22.625.563l2.25.031.562 1.126c-.713.162-1.403.338-2.125.5l-.687-1.657zm18.812.313l1.781 3.781a20.451 20.451 0 01-2 2.563l-2.28-5.75c.833-.194 1.665-.4 2.5-.594zm-3.219.75l2.532 6.094c-.27.279-.547.561-.844.843l-3.656.656-3.125-6.406c1.7-.385 3.394-.795 5.093-1.187zm-19.28.125l.624 1.281c-.697.15-1.385.32-2.093.469l-.688-1.625 2.156-.125zm60.5.437a4.894 4.894 0 001.75.781l-11.72 2.094c.536-.38.99-.848 1.407-1.344l8.562-1.53zm-42.157.344l-2.781.719 2.281 5.406 2.719-.563-2.219-5.562zm50.031.094l.281.656-2.718.563-.281-.72 2.718-.5zm-54.687.281l3.031 6.406-3 .531-2.594-6.343c.856-.191 1.707-.4 2.563-.594zm4.218.375l1.907 4.438-1.531.5-2.032-4.594 1.656-.344zm45.063.313l.313.53-3.126.75-.312-.75 3.125-.53zm-52.531.062l2.593 6.313-1.593.28-3.032-6.156c.677-.148 1.356-.287 2.032-.437zm19.843.438l-2.78.718 1.156 2.156 2.718-.562-1.094-2.313zm-22.53.156l3.03 6.125-2.843.5-2.532-6.125c.781-.17 1.564-.33 2.344-.5zm49.187.406l.125.281-3.281.688-.157-.406 3.313-.563zm-27.094.188l.781 1.187-1.531.5-.906-1.344 1.656-.344zm-25.031.03l2.375 6.126-1.75.312-3.032-5.937c.802-.17 1.606-.328 2.407-.5zm19.718.313l.72 1.469a30.1 30.1 0 01-1.47 1.406l-1.062.188-.25-.563c.799-.844 1.495-1.674 2.063-2.5zm19.126.031l1.718.876-25.937 4.437 1.937-1.563 22.281-3.75zm-41.782.282l2.938 5.906-2.75.5-2.5-5.938c.77-.16 1.544-.306 2.312-.468zm49.219.156l.313.656-3.376.781-.343-.812 3.406-.625zm-6.281 1.125l.25.5-2.938.688-.312-.688 3-.5zm-19.406.25l.343.688-1.406.25a31.14 31.14 0 001.063-.938zm12.406.969l.281.562-3.031.5-.219-.531 2.969-.531zm-15.813.187l.063.188-.313.062c.087-.085.166-.165.25-.25zm4.781 1.75l.282.594-3.125.781-.313-.812 3.156-.563zm-9 1.594l.344.719-3.125.687-.344-.875 3.126-.531zm-5.906 1.031l.25.5-2.968.781-.313-.75 3.031-.53zm-5.968 1.031l.468.97-2.875.78L52 121.97l2.938-.531z" fill="#5c2700" fill-rule="evenodd"/>
 <path d="m74.423 83.452" fill="none" stroke="#000"/>
</svg>
