<?xml version="1.0" encoding="UTF-8"?>
<svg width="128" height="128" version="1.0" xmlns="http://www.w3.org/2000/svg" xmlns:xlink="http://www.w3.org/1999/xlink">
 <path d="M51.656 21.781c-13.526 0-24.837 10.025-27.5 23.313a62.018 62.018 0 00-3.687 2.031C10.579 53.3 2.003 62.302 2.312 74.688c-.716 3.249-.03 10.242-.03 12.937 0 10.321 6.991 19.602 18.187 26.281 11.195 6.68 26.62 10.813 43.625 10.813 6.43 0 12.64-.592 18.469-1.688l-.844-14.75c-.241-4.238 3.19-13.953 4.937-15.219l9.5 6.594c.563 1.217.935 2.454 1.281 3.688 1.486 5.293.979 10.957.813 14.625l2.719.906c1.83-.871 5.938-3.637 7.594-4.625 11.195-6.68 17.343-16.304 17.343-26.625 0-2.276.542-11.054 0-14.031-.811-12.372-8.925-19.54-18.219-26.469-8.451-5.043-19.312-8.584-31.437-10.031-4.754-9.098-13.97-15.313-24.594-15.313zm0 1c10.43 0 19.806 6.282 24.469 15.375 1.164 2.123 2.177 5.447 2.719 8.125-.372.32-.764.633-1.156.938l-.5-1.094A139.27 139.27 0 0174 46c.409-.616.454-1.102.438-1.875L73.656 41c-1.576-.635-2.208-1.975-2.969-3.375l-.062.063c.666 1.066.813 2.694 2.688 3.687.325.868.64 2.093.656 2.875.012.604-.424 1.128-.938 1.688-.062-.003-.125.001-.187 0-1.381.029-2.83.3-4.375 1.218-.81.16-1.594.358-2.344.625-.713-.251-1.464-.347-2.188-.468-.418-2.24-.67-5.292.594-6.938.667-1.293 1.66-2.235 2.188-3.594.62-1.303 1.483-2.478.719-4L63.5 29.25c-.643-1.115-1.292-2.035-2.438-2.688-1.25-.548-2.775-.136-4.187-.437l-.094.25c1.404.3 3.032.163 4.157.656 1.124.493 1.723 1.57 2.25 2.563L67 33c.571 1.19-.054 2.523-.594 3.656-.54 1.136-1.448 2.3-2.187 3.532-1.45 2.186-1.231 4.597-.813 7.03a5.975 5.975 0 01-.937-.28c-1.206-.461-2.567-1.182-3.438-2.344-.442-1.313-.455-2.987-1-4.438-.557-1.483-1.288-2.94-3.406-4.093l.031.062c1.934 1.053 2.535 2.927 3.032 4.25.275.733.341 1.536.437 2.375-.861-.548-1.76-.761-2.656-.656-1.091.128-2.15.637-3.219 1.281-2.138 1.288-4.038 3.851-6.469 4.75l.032.219c2.658-.984 4.812-3.401 6.843-4.625 1.016-.612 2.115-1.088 2.969-1.188.74-.086 1.779.353 2.594.938.067.442.162.88.312 1.312.84 1.389 2.301 2.035 3.688 2.75 1.09.417 2.004.396 2.968.657-1.718.714-3.375 1.643-5.062 2.593-1.56.698-3.284.74-4.344.532-1.06-.208-2.147-.368-3.125-.938l-.156.063c.99.577 2.026 1.16 3.281 1.406 1.255.246 2.725.14 4.438-.625 2.516-1.904 5.592-2.651 8.562-3.532 2.506-1.448 5.294-.968 8.094-.874l.031 1c-6.872 4.98-16.49 7.634-25.656 7.593-7.214-.032-14.661-1.77-20.625-4.656-.16-3.744-1.206-8.556-.281-11.5 3.14-.65 5.77-3.283 8.125-5.625 1.232-.883 2.461-1.254 3.656-1.438 1.623.424 2.89 1.163 3.344 1.657.49.532.477 1.552 1.375 2.187 1.97 1.301 2.484 3.845 3.437 6.282-.88-2.305-.854-5.189-3.218-6.75-.7-.495-.575-1.427-1.188-2.094-.483-.525-1.213-1.041-2.438-1.438.434-.035.86-.057 1.282-.093a52.559 52.559 0 006.093-.907c2.225.313 4.027 1.939 5.5 3.469l.157-.094c-1.5-1.526-2.955-3.475-5.657-3.781-2.03.362-4.1.414-6.156.531-2.068.18-4.256.66-6.562 2.313-2.068 2.1-4.525 3.648-7.125 4.968.635-1.481.56-2.202.5-3.656.265-1.222 1.256-2.216 2-3.187.794-.59 2.15-.622 3-1.5.994-.99 2.06-1.754 3.343-1.563v-.156c-1.627-.427-2.262.517-3.53 1.531-.702.724-2.105.648-3 1.313-.896.665-1.751 1.588-2.25 3.25.148 1.55-.35 2.95-.876 4.375-.054.026-.101.067-.156.093-.697 2.13-.803 4.324-.75 6.532-1.26-.804-2.385-1.688-2.594-3.157H26.5c.26 1.834 1.414 3.056 2.75 4 .055 1.285.147 2.568.219 3.844-1.89-.995-3.608-2.094-5.094-3.312C26.382 33.27 38.132 22.78 51.656 22.78zm24.938 15C88.42 39.332 98.892 43.07 107.156 48c11.002 6.564 18.063 15.564 18.063 25.438 0 4.457-1.473 8.894-4.031 12.968-2.119 3.757-5.538 7.269-9.157 10.156l-.469-.812c9.44-7.487 14.532-16.897 12.376-26.938-2.694-12.544-16.468-24.019-47.25-30.843-.03-.063-.064-.125-.094-.188zm.312.688c30.127 6.815 44.01 18.802 46.563 30.687 1.139 5.305-.004 10.626-2.781 15.594-1.67-9.143-7.745-17.052-16.282-23.063-6.38-4.492-14.144-7.909-22.5-10.03l3.344-2.344h.156c.022-.029.041-.065.063-.094l5.562-1.188 3.25 2.157.969 4.874L94.562 50l3.313-.969-.188-.125-3.53.813-2.938-2.157-5.656 1.5c.554-.816.986-1.892 1.5-2.812 1.836-.583 2.26-1.205 3.343-1.813l3.875 1.063.094-.188-3.906-1.156c-1.234.3-2.396 1.246-3.469 1.969-.142.18-.274.369-.406.563l-1.656-2.907-.188-.062 1.563 3.375c-.462.723-.883 1.506-1.344 2.218l-3.781 2.157c-.614-.15-1.225-.302-1.844-.438.955-1.724 1.37-3.485-.156-5.375a30.004 30.004 0 00-2.282-7.187zm-52.969 7.875l-.125.875c-.673.925-1.313 1.915.47 4.375.47.279.936.563 1.405.843.016 2.547.494 4.836.5 7.657-7.811 5.593-14.728 13.533-18.812 24.062-1.96-3.905-2.972-8.249-2.313-12.75 1.085-7.397 6.914-16.725 18.875-25.062zm-1.03.343c-11.933 8.35-17.31 16.737-18.438 24.438-1.156 7.883 2.166 14.955 7.218 20.406 7.284 7.859 19.327 12.324 31.532 14.906.737.156 1.478.298 2.218.438.46.087.983 1.396 1.376 2.156l-.032 1.25c-.433-.77-.903-2.452-1.312-2.531-9.465-1.825-17.971-4.987-24.75-9.031-8.992-5.287-17.54-12.781-17.344-23.156-.05-.688-.097-1.42-.125-2.126 0-9.873 6.904-19.217 17.906-25.78.563-.336 1.162-.649 1.75-.97zm55.687.563c1.976.947 1.325 2.472-.219 3.406-9.556 6.44-19.996 8.633-29.531 8-9.5-.63-18.084-4.067-23.625-7.656-1.794-1.374-1.83-3.669-.219-2.813 6.573 4.992 16.281 7.675 26.125 7.72 10.085.044 20.312-2.68 27.469-8.657zm.531 4.125c8.863 1.942 17.016 6.217 24.781 10.875 8.398 5.913 14.962 14.055 16.563 22.906-2.272 3.923-5.123 7.22-9.188 10.469-.17.137.455 1.959.281 2.094-.094.073-.345-.387-.53-.625-.006-.006.004-.026 0-.031-.073-.09-.15-.123-.188-.094-.192.146-.305 1.168-.5 1.312-.185.137-1-1.04-1.188-.906-1.609 1.157-3.703 2.455-5.5 3.469-1.153-2.875-2.817-5.09-4.719-6.813-3.28-4.3-8.789-6.803-14.312-7.969l-.125-.187a37.509 37.509 0 00-3.469 3.156l-8.5-6.062c1.91-.558 3.987-1.23 6.344-2.063l-.188-1.687c.03-.014.065-.017.094-.031l-2.969-3.063A46.386 46.386 0 0079.156 74c2.577-2.013.804-5.788-.625-5.375-.262.205-.542.396-.812.594-.745-5.405-.725-11.064.031-16.969.46-.29.92-.564 1.375-.875zm-2.375 1.5l-.031 17.063c-.667.45-1.358.873-2.063 1.28l-.187-14.25c-.56-1.281-1.312-1.412-2.531-1.218-.825.47-1.325 1.544-1.313 2.938V73.25c-1.069.46-2.163.873-3.281 1.25V64.281c-.784-2.512-2.755-2.83-5.094-2.906-2.843.486-4.236 2.216-4.688 4.938l-.156 10.406a55.43 55.43 0 01-4.093.344V62.468a2.154 2.154 0 00-2-2.25c-1.505.1-1.887.884-2.25 2.218l.062 14.688A54.788 54.788 0 0146.531 77l-.093-14.25c.016-1.413-.631-1.958-1.688-2.688-1.551-.182-1.997.562-2.5 1.813l.063 14.656a49.968 49.968 0 01-3-.562l.062-14.781c.013-1.466-.512-1.97-1.688-2.594-.988-.149-2.047.56-2.312 1.812l-.281 14.407c-.83-.27-1.651-.56-2.438-.876l.094-14.5c-.057-1.573-.771-2.1-1.969-2.906-1.003-.12-2.002.541-2.218 1.563v13.875a27.041 27.041 0 01-1.844-1.156c.386-5.896-.019-11.878-.032-17.782 5.637 3.164 13.422 5.742 22.032 6.313 8.996.596 18.869-1.008 28.031-6.469zm-4 3c.157.06 1.351 1.01 1.531 1.313l.063 14.468c-.676.363-2.734 1.144-3.438 1.469l.188-14.563c-.1-1.34.387-2.221 1.656-2.687zm-42.094.906c.885.362 1.672 1.824 1.844 2.719l-.156 14.188c-.722-.315-2.918-.991-3.594-1.344L29 58.03c.123-.457 1.194-1.305 1.656-1.25zm7 2c.47.07 1.495 1.18 1.407 2.25l-.063 15c-.754-.183-2.991-.752-3.719-.969l.438-14.593c.132-.888 1.379-1.45 1.937-1.688zm6.407 1.407c1.364.161 2.097 1.518 2.062 2.343l-.031 14.313c-.746-.07-2.798-.088-3.532-.188L42.5 61.937c-.118-.793 1.134-1.646 1.563-1.75zm7.187.437c.782.003 1.543.629 1.75 1.875v14.688c-.729.028-2.77-.035-3.5-.032l-.094-14.719c.26-1.196 1.062-1.815 1.844-1.812zm-25.125.25c-.108 3.074.145 6.028-.406 9.25a22.892 22.892 0 01-1.063-.875c-1.027-.054-2.21 3.53-.187 5.094 5.88 4.314 14.996 7.708 25.125 8.125l-.375 1.906c.041.003.083-.002.125 0l-.032 1.438c5.132-.213 8.89-.147 13.22-.688.324 1.159 2.43 7.6 4.03 12.531a1447.418 1447.418 0 013.376 10.563c-5.295.29-11.766-.437-19.157-1.156-.311-.03-1.279 1.811-1.593 1.78-.466-.044-.537-1.015-1-1.093-.415-.07-.585.855-1 .781-.543-.097-1.084-2.207-1.626-2.312a110.18 110.18 0 01-1.874-.375c-3.508-.742-7.015-1.64-10.407-2.719l6.063-1.75-2.969-4.188L25.125 100c-1.302-.594-2.569-1.203-3.781-1.875l12.875-3.688-2.938-4.187-12.968 3.219 1.625 3.844c-.38-.229-.757-.451-1.125-.688l-.75-3.313c-1.01.064-2.084-.032-2.844.657-1.004-.834-1.952-1.697-2.813-2.625A32.058 32.058 0 017.97 85.25c3.937-10.625 10.514-18.717 18.156-24.375zm36.969.938c1.586.082 3.016 1.127 3.687 2.593l.063 10.281c-2.565.801-6.17 1.646-8.875 2.032l.156-10.469c.119-2.391 2.148-3.855 4.281-4.406a3.92 3.92 0 01.688-.032zm36.875 1.124c-1.417.038-1.975.69-2.469 1.157-.064.028-.122.068-.188.094l-.03 1.656 4.968 3.656v-.313l.844-.343-.188-2.688c-.146-.676-.149-1.528-.5-2-.522-.408-.914-.81-2.437-1.219zm.062.188c.715.376 1.481.505 2.094 1.188.308.539.53 1.233.594 1.874l.031 2.438-.469.25.063-2.969c-.024-1.584-1.083-1.71-2-2.281-.877-.305-1.462-.143-2 .094.482-.32 1.034-.578 1.687-.594zm-.625.563c.243.005.484.073.781.187 1.512.606 2.038 1.424 1.938 2.375l-.281 2.406-4.25-2.844v-1.406c.56-.322 1.083-.734 1.812-.719zM96.5 66.094L85.219 70.75l4.625 4.313 11.781-5.438-5.125-3.531zm.063.375l4.187 3.062L89.875 74.5l-3.969-3.563c3.563-1.464 7.11-2.964 10.656-4.468zM106 68.78c-1.417.038-1.975.689-2.469 1.156-.063.029-.122.069-.187.094l-.031 1.656 4.968 3.657v-.313l.844-.344-.188-2.687c-.145-.676-.149-1.529-.5-2-.521-.408-.914-.81-2.437-1.219zm.063.188c.715.376 1.48.504 2.093 1.187.309.54.53 1.233.594 1.875l.031 2.438-.469.25.063-2.969c-.024-1.585-1.083-1.71-2-2.281-.877-.306-1.462-.143-2 .094.483-.32 1.034-.578 1.688-.594zm-.626.562c.244.005.484.074.782.188 1.511.606 2.038 1.423 1.937 2.375l-.281 2.406-4.25-2.844V70.25c.56-.323 1.083-.734 1.813-.719zm-26.562.188c1.209-.131 1.716 1.88-.5 3.562a49.718 49.718 0 01-3.219 2.125l-.687-.687-1.313.625-.844-.75-.937.375-.625-.594-.063.031v-.125l-1.093.375-.094-.094c3.321-1.186 6.416-2.743 9.125-4.78a1.25 1.25 0 01.25-.063zM25 70.844c6.203 4.77 15.321 6.72 25.094 6.75a69.186 69.186 0 005.687-.219l-.031.25-1.219.156v.094l-.062-.063-.188 1.032-2.187-.031-.125.937-1.782-.125-.468 2.281c-9.95-.388-18.843-3.875-24.5-8.281-1.129-.317-1.758-2.46-.219-2.781zm77.531 1.094L91.25 76.594l4.625 4.312 11.781-5.437-5.125-3.531zm.063.374l4.187 3.063-10.875 4.969-3.969-3.563c3.563-1.464 7.111-2.964 10.657-4.469zm10.656 2.282c-1.417.037-1.975.688-2.469 1.156-.063.028-.122.068-.187.094l-.031 1.656 4.968 3.656v-.312l.844-.344-.188-2.688c-.145-.676-.149-1.528-.5-2-.521-.408-.914-.81-2.437-1.218zm-42.969.062l2.313 1.969c-4.94 2.02-11.72 4.36-18.188 3.781l.407-2.312-.126-.094 1-.094-.156.906c.031 0 .063.002.094 0l.063 1.22c4.376-.13 9.299-.398 14.718-2.907l.125-1.219c.057-.02.1-.042.156-.062l-.906-1 .5-.188zm-1.312.094l.687.969c-4.265 1.548-9.145 2.807-13.594 2.625l.188-1c4.347-.377 8.695-1.217 12.719-2.594zm44.344.031c.715.376 1.48.505 2.093 1.188.309.539.53 1.233.594 1.875l.031 2.437-.469.25.063-2.969c-.024-1.584-1.083-1.709-2-2.28-.877-.306-1.462-.143-2 .093.483-.32 1.034-.578 1.688-.594zm-40.907.25l2.906 2.906c-7.748 3.456-16.305 5.071-23.53 4.594l.718-3.375 1.719-.094-.344 1.876c.03.003.063-.004.094 0v1.093c7.221.03 11.873-.838 19.156-3.969v-1.25c.042-.017.084-.044.125-.062l-1.688-1.594.844-.125zm1.938.125l3.844 3.969c-8.952 4.498-20.36 5.483-28.594 4.938l1-4.063 1.343-.031-.468 2.969h.031l.031.656c8.268.176 11.792-.097 24.594-4.219v-1.219c.021-.009.041-.022.063-.031l-2.844-2.594 1-.375zm38.344.188c.243.005.483.073.78.187 1.512.606 2.039 1.424 1.938 2.375l-.281 2.406-4.25-2.843v-1.406c.56-.323 1.083-.734 1.813-.72zm13.03.687c.296 2.856-.562 9.54-.562 11.594 0 9.873-5.935 19.561-16.937 26.125-1.08.644-5.873 3.842-7.031 4.438-.637-2.516-.33-9.922-1.126-14.657-2.07-5.314-5.723-8.355-9.28-10.031-.098-.054-.213-.102-.313-.156-1.195-.658-2.535-.944-3.844-1.281-1.924 1.706-5.31 7.774-5.625 15.53-.27 6.641.324 10.2.875 15-5.092.827-12.06 1.438-17.594 1.438-16.842 0-32.279-4.436-43.281-11-5.712-3.408-10.35-7.49-13.5-12l1-2.125c.565.045 1.323-.417 1.844-.437.75-.67.636-1.634 1-2.594l.812-.656.188-.125-1.281.437c-.358.911-.687 1.834-1.032 2.75-.272.028-.78-.022-1.187-.062L9 97.875l.375-3.5.313-1.656-.063-.063-.75 1.438L8.75 97.5l-.906 1.063L7 95.186l-.188-2.25-.187-.25v2.5l.719 3.97-.625.718c-2.433-3.855-3.782-8.002-3.782-12.313 0-1.896-.327-6.672-.25-9.718 1.981 8.142 8.58 16.385 17.782 21.875 6.868 4.098 15.36 6.87 24.781 8.781.707.144 1.09 1.371 1.469 2.281l-1.313 3-3.75 1.844-.875 2.406.188.063.937-2.438 2.063-.75 1.25 4.625.125-.062-.719-4.813 1.094-.406 1.093-3.25c.021.046.042.113.063.156.158-.093.922-.94 1.094-1.125.13.114.868 1.895 1.125 2.125.203-.27 1.108-2.58 1.718-2.5 4.281.561 8.723.875 13.282.875 3.814 0 9.033-.354 12.656-.75-.007-.192.003-.373 0-.562.162-8.553 1.62-16.66 9.438-20.656.614.088 1.4.258 2.28.5l.407 1.874-1.563.75-.062.063 1.875-.469.125-.781.75 1.531 4.094 1.938 2.062 2.812.25-.062-1.656-2.75 2-.156-2.406-.282-3.813-1.687-1.031-2.469c4.639 1.514 11.307 5.286 13.813 13.875 2.848-1.206 2.25-1.81 4.718-3.281.603-.36 1.206-.718 1.781-1.094.132-.086.382.272.626.563l.03.25-.156 1.468 1.25 2.594v.219l-.062.031.094.094.187 3.969.188-3.438 2 2.563.156-.063-2.094-3.281v-.156l-1.469-2.657.157-1.312c.052.033.12.055.156.031.217-.147.162-1.226.375-1.375.14-.098.625.905.969 1.438l.281 1.156h.156l1.406 3.375.126-.094-.907-3.25 2.406.063 1.876 2.187.093-.063-1.437-1.937 1.75.469-.063-.125-1.875-.594-.125-.156-3.094.031-.28-.75c.191-.139-.47-2.828-.282-2.969 7.76-5.797 12.552-13.203 13.469-21.125zm-13.937 32.031l-.031.313.031-.031v-.281zM70 76.063l.125.782c-5.304 1.827-9.432 2.967-13.938 2.781l-.062-.844c3.275-.094 6.422-.118 13.875-2.719zm2.656.938l.063.781c-6.014 2.856-12.258 4.204-18.469 3.813l.063-.625c6.566.636 13.089-1.733 18.343-3.969zm37.125.75L98.5 82.406l4.625 4.313 11.781-5.438-5.125-3.531zm.063.375l4.187 3.063-10.875 4.968-3.969-3.562c3.563-1.465 7.111-2.964 10.657-4.469zm-33.906.094l.062.937c-7.11 2.484-14.839 4.756-24.219 4.281l-.031-.5c7.685.123 16.437-1.392 24.188-4.718zm2.374 1.187l.157 1.125c-8.963 3.91-18.985 4.82-28.781 4.938l-.22-1.094c12.153.708 21.542-1.526 28.844-4.969zm-5.937 3.625l8.438 6.219a33.856 33.856 0 00-3.97 5c-1.238 2.67-1.8 8.54-1.906 13.406-1.393.26-3.044.459-4.874.563-.089-.297-1.704-5.734-3.282-10.594-1.61-4.96-3.738-11.587-4-12.531 2.774-.36 5.819-.967 9.594-2.063zm-45.031.906l-12.969 3.22 2.094 4.906 13.812-3.938-2.937-4.188zm-.157.376l2.344 3.624-12.75 3.563-1.843-4.063c4.084-1.008 8.16-2.074 12.25-3.124zm57.376 2.03l.968 1.688c-3.103 2.62-9.142 6.618-9.406 20.156l-.75-.937c-.046-5.639.657-9.536 2.344-12.5 1.971-2.783 3.059-5.51 6.844-8.406zm.312.126c3.7.503 8.717 2.681 11.969 5.875-2.435-1.66-5.065-2.699-7.438-3.406l.563-.876-.125-.062-.969.5-1.281-1.094-.188.125.75 1.063a60.731 60.731 0 00-2.312-.563l-.969-1.562zm-70.844.656l-1.781.313-.125.343.625 3.438.875 1.156 2.594-.188-2.188-5.062zm-.094.375L15.72 92l-1.625-.281v-2.094l-1.219-2 1.063-.125zm-1.156.125l.969 2.25-.156 1.656-.625-.281-.5-3.594.312-.031zm18.344 3l2.344 3.594-12.688 3.594c-.032-.019-.061-.044-.093-.063l-1.813-4.031c4.084-1.009 8.16-2.043 12.25-3.094zm55.719 2.313c1.563.35 3.52.976 5.406 1.968 1.82 1.33 2.92 2.8 3.688 4.313l-9.094-6.281zm-69.906.906c.21.01.423.07.656.156l.562 2.188a36.687 36.687 0 01-2.468-1.844c.362-.328.787-.523 1.25-.5zm94.53 2.312l.344.656v.032c.012.511.574 2.183.407 2.312-.007.005-.023 0-.031 0l-.313-1.125c.134-.103-.299-1.314-.406-1.875zm-17.062.094c2.581 1.866 4.678 4.55 4.938 8.25l.969 13.656-1.563-.25c.178-3.634.54-9.343-.969-14.719-.67-2.389-1.346-4.765-3.375-6.937zm16.438 1.219l.187.375v.031c-.203.214-.092 1.304-.312 1.469-.016.012-.043 0-.063 0l-.156-.656c.025.007.047.01.063 0 .179-.131.104-1.087.28-1.22zm.281.094c.198.138.426.357.594.437l.25.969c-.23-.275-.541-.776-.75-1l-.094-.406zm-74.875.03l2.313 3.594-6.063 1.688a73.105 73.105 0 01-6.781-2.594c3.512-.874 7.013-1.783 10.531-2.687zm73.156.094c.255.174.699.733.969.938l.063.625c-.293-.245-.701-.811-.938-.906l-.094-.656zm-.219.032l.063.719c-.546.4-1.082.802-1.625 1.187-1.967 1.174-1.775 1.348-3.469 2.531-.124-.383-.297-.731-.437-1.094 1.936-1.158 3.849-2.202 5.469-3.343zm-58.624 10.344c9.766 1.386 19.212 1.134 24.75.03l.78.563v.281c-3.136.298-8.723.563-12 .563-4.663 0-9.168.076-13.562-.531-.322-.045-1.049 2.155-1.281 2.594a.297.297 0 01-.125-.063l.063-2c.418-.223.999-1.49 1.374-1.438zm-2.438.406c.376.062.489.827.813 1.031l.062 1.875c-.331-.487-.493-1.744-.906-1.813-.01.006-.021.025-.032.032.005-.357.05-.761.063-1.125zm-.094.031c-.05.412-.14.882-.156 1.25-.276.28-.604.75-.844.875a.702.702 0 01-.156-.156l.063-1.188c.008.015.022.049.03.063.235-.343.698-.817 1.063-.844zm1.157 3.531l1.75 1.781-.75 6.657h.25l.53-3.5c1.174.926 3.015 1.435 4.22 2.219l.124 2.437h.063l.063-2.625-4.407-2.438.469-3.124-2.313-1.407z" fill="#5c2700"/>
</svg>
