<?xml version="1.0" encoding="UTF-8"?>
<svg width="128" height="128" xmlns="http://www.w3.org/2000/svg" xmlns:xlink="http://www.w3.org/1999/xlink">
 <path d="M18.573 47.035c.08 1.824-1.255 2.964-2.24 4.277-1.212 1.615-1.297 4.055-2.037 5.907-.711 1.777-1.167 3.556-2.037 5.295-.9 1.799-1.729 3.916-2.444 5.703-1.1 2.752-2.118 3.597-3.055 6.721-.58 1.933-1.95 3.316-2.444 5.295-.477 1.908.407 4.289.407 6.314v4.481c0 1.723.229 2.558 1.63 3.259 2.045 1.023 4.39.487 6.517 1.018 1.181.295 4.474 1.973 5.703 1.973 1.656 0 1.241-.08 3.017.314 1.884.419 25.994-1.428 29.308-3.084 2.013-1.007 4.921-1.488 7.425-2.258-.514-2.055 1.144-.235-3.089-3.259-1.45-1.036-2.16-1.888.335-1.056 1.772.59 3.213-.613 5.164.038 2.114.705 20.88-1.257 23.83-2.24 3.642-1.215 5.194-2.444 7.943-2.444 1.865 0 2.738.317 4.073-1.019.249-.248 4.648 3.421 7.978 2.589 2.5-.625 9.801-1.794 12.186-2.589.49-.163.95-.407 1.426-.61 2.45-1.051 4.783-.914 6.517-2.649.736-.736-2.246-6.32-2.851-6.924-2.405-2.405-3.844-4.918-7.332-5.5-1.673-.278-2.711-2.033-4.074-3.055-1.304-.978-1.573-3.904-2.037-5.295-1.196-3.589-3.62-6.644-5.499-9.776-1.499-2.499-3.569-4.792-5.703-6.925-3.524-3.525-1.188-4.718-6.313.407L89.45 43.37c-2.492 2.491-5.391 5.38-6.518 8.758-.504 1.514-2.921 7.365-4.684 6.925-.336-.084-.679-.136-1.018-.204-1.888-.378-1.91-3.362-2.24-4.685-.034-.131 0-.271 0-.407 0-2.011-2.99-5.912-3.667-7.943-.192-.576-.543-1.086-.815-1.63-2.77-5.542-6.911-10.468-10.387-15.682-1.902-2.854-6.556-3.083-9.369-5.092-1.276-.912-2.516 6.051-2.851 6.721-1.262 2.524-2.037 4.657-2.037 7.536 0 2.048-1.025 4.717-1.426 6.721-.604 3.025-2.297 5.726-3.055 8.758-.787 3.15-1.721 6.255-2.24 9.369-.395 2.369-2.105 1.307-3.259 1.018-.589-.147-1.725-1.066-2.444-1.425-.89-.445-1.642-2.68-2.037-3.666-1.072-2.68-2.81-5.052-4.888-7.129-2.358-2.358-4.646-3.178-7.943-4.277z" fill="#e4e4e4" fill-rule="evenodd"/>
 <path d="M18.37 48.257c1.63 1.23 1.613 2.787 2.036 4.48.355 1.421.263 2.884.611 4.278.447 1.788-.61 4.101-.61 5.906 0 2.225-.816 3.38-.816 4.888 0 1.611-.165 3.411.204 4.889.365 1.46.407 3.818.407 5.295 0 1.651.122 4.112.815 5.5.945 1.89 1.018 1.79 1.018 3.462 0 1.526-.203 2.932-.203 4.48 0 1.356.185 4.483-.683 5.35-1.112 1.112-7.622-.394-8.996-.394-2.432 0-3.669-1.665-6.208-2.511-1.075-.359-.61-2.984-.61-3.87 0-1.473-.204-2.844-.204-4.277 0-1.131-.204-2.657-.204-4.074 0-1.602-.177-3.366.204-4.888.334-1.34 1.356-2.272 1.833-3.462.661-1.654 2.044-2.93 3.055-4.277.953-1.272 2.038-2.856 2.444-4.481.462-1.848 2.037-3.127 2.037-5.092 0-1.965.704-3.9 1.425-5.703.767-1.915 2.97-3.399 2.444-5.5zM51.16 24.835v.203c0 1.3 2.112 4.653 2.445 6.314.336 1.684.579 3.077 1.222 4.685.566 1.416 1.018 2.395 1.018 3.87 0 2.147-.734 3.91-1.63 5.702-.685 1.372-.862 3.249-1.221 4.685-.438 1.751.203 3.46.203 5.906 0 1.746 1.234 3.307 1.63 4.888.44 1.764.814 3.195.814 5.092 0 2.435.611 4.83.611 7.332 0 1.899-.775 3.791-1.629 5.5l-2.037 4.073c-.86 1.719-3.839-1.352-4.48-1.833-1.074-.806-1.356-2.677-1.834-3.87-.755-1.89-2.182-3.142-3.055-4.888-.985-1.97-3.038-3.613-4.48-5.296-1.447-1.688-1.652-1.924-1.222-4.073.277-1.385 2.237-3.187 3.055-4.277 1.28-1.708 2.036-2.952 2.036-5.092 0-3.399.856-7.294 1.63-10.387.654-2.616-.051-5.347 1.018-8.554.505-1.516 1.973-3.13 2.648-4.481.671-1.343 1.643-2.268 2.24-3.463.318-.636.591-1.325 1.019-2.036zM94.543 38.277c-.136 1.396.29 4.338-.204 6.314-.326 1.305 0 2.348 0 3.666 0 1.593.497 3.097.815 4.684.327 1.635.303 3.352.61 4.889.317 1.582 1.293 3.264 1.834 4.888.526 1.58.203 2.727.203 4.277 0 1.377-.51 2.336-.203 3.87.337 1.687-2.176 2.036-3.463 2.036-1.201 0-2.523-.716-3.055-1.425-.87-1.161-2.015-2.072-3.055-2.852-1.017-.763-1.447-1.854-2.444-2.851-1.479-1.479-3.225-2.823-4.684-4.074-1.047-.897-1.222-2.075-1.222-3.462 0-1.271 1.357-3.121 1.63-4.48.383-1.92 2.8-3.056 3.869-4.482 1.046-1.394 1.652-2.694 2.444-4.277.828-1.656 2.481-2.723 3.259-4.277.6-1.201 2.509-2.058 3.666-2.444z" fill="#c8c8c8" fill-rule="evenodd"/>
 <path d="M51.652 19.893c-.276 0-.291.447-.078 1.003.46 1.199-.374 1.324-1.466.232-.581-.582-1.014-.179-1.775 1.543-1.084 2.451-3.86 12.699-5.094 18.832-.413 2.052-1.487 5.58-2.392 7.795-.905 2.214-2.14 6.185-2.779 8.875-.638 2.69-1.399 4.862-1.698 4.862-1.058 0-3.241-2.269-3.241-3.396 0-4.12-6.074-12.004-10.265-13.351-1.358-.437-2.648-1.237-2.855-1.775-.55-1.431-2.47-1.19-2.47.308 0 .705-.936 3-2.084 5.171-1.147 2.171-2.49 6.018-3.01 8.49-.707 3.362-1.796 5.672-4.321 9.338-1.857 2.695-3.396 5.295-3.396 5.711 0 .416-.308 1.08-.772 1.544-.584.584-.849 3.45-.849 9.261 0 8.077.013 8.346 1.312 7.95 1.793-.549 1.77-.454 2.315-3.01.319-1.495.085-3.52-.771-6.098-1.224-3.681-1.286-3.945-.155-6.328.65-1.368 2.079-3.474 3.164-4.63 2.567-2.736 5.943-9.977 5.943-12.89 0-2.415 1.79-7.717 2.624-7.717.271 0 .827.726 1.235 1.62 1.537 3.374 1.554 6.066.154 10.42-1.02 3.175-1.389 6.072-1.389 11.113 0 6.071.209 7.245 1.775 10.187 1.402 2.633 1.699 3.843 1.39 6.097-.214 1.56-.158 3.085.077 3.32.234.234.941-.08 1.62-.696 1.696-1.534 1.588-4.352-.54-11.808-2.296-8.044-2.404-13.253-.386-17.905 1.198-2.76 1.381-3.848.85-5.248-.372-.976-.695-3.016-.695-4.476 0-1.81-.29-2.624-.927-2.624-1.026 0-1.84-2.327-1.312-3.705.461-1.2 3.892.548 5.48 2.779a75.817 75.817 0 002.624 3.396c1.608 1.957 2.36 3.338 3.859 7.1.583 1.464 1.941 3.068 3.241 3.859 1.228.747 2.1 1.509 2.007 1.698-.483.982.015 1.863.849 1.543 1.308-.502 2.47 1.048 5.402 6.946 1.965 3.95 3.895 6.35 8.644 10.96 3.345 3.246 6.319 5.865 6.637 5.865 1.58 0 .099-2.195-5.093-7.41-3.14-3.153-5.778-6.219-5.789-6.868-.01-.65-.287-1.235-.617-1.235s-.753-1.057-1.003-2.392c-.76-4.049-2.466-6.913-4.554-7.64-1.774-.62-1.875-.84-1.08-2.24.476-.838 2.006-2.749 3.396-4.244 1.39-1.495 3.018-3.978 3.627-5.557.965-2.501.994-3.334.231-6.714-.48-2.132-.887-4.966-.849-6.251.077-2.58 2.775-11.5 3.473-11.5 1.634 0 4.768 6.986 4.785 10.65.004.825-.834 3.26-1.852 5.403-2.01 4.233-2.173 6.082-1.235 15.821.408 4.23.89 5.943 1.544 5.943.636 0 .849-.968.849-3.164 0-5.526.718-2.679.849 3.396.087 4.04.364 5.788.926 5.788 1.293 0 1.47-1.253.926-7.718-.304-3.61-1.096-7.4-1.93-9.338-1.852-4.309-1.771-5.63.618-10.342 2.353-4.64 2.476-6.41.772-10.805-1.567-4.04-2.377-9.647-1.39-9.647 1.24 0 8.637 7.495 11.423 11.577 1.473 2.157 3.12 5.537 3.627 7.486 1.154 4.43 3.594 9.483 6.483 13.506 1.25 1.741 2.277 4.023 2.315 5.17.037 1.124.233 1.946.463 1.853.23-.093 1.566 1.186 2.933 2.856 5.092 6.217 9.277 10.804 9.879 10.804 1.205 0 .546-1.562-1.62-4.013-6.432-7.273-9.72-11.89-9.03-12.58.16-.161 2.112 2.138 4.399 5.094 2.286 2.955 4.89 5.932 5.788 6.637 1.454 1.144 3.577 3.969 4.576 7.229.47 1.53 1.717 1.53 1.698 0-.03-2.447-2.714-6.167-6.429-10.162-2.115-2.275-4.629-5.226-5.556-6.56-.928-1.334-2.33-2.786-3.165-3.241-2.72-1.482-1.438-6.79 2.547-10.342 1.105-.985 3.12-3.403 4.4-5.402 1.279-2 2.634-3.859 3.01-4.09.436-.27.617 1.42.617 4.63 0 2.791.502 6.31 1.08 7.95.572 1.619 1.188 4.716 1.39 6.945.201 2.23.558 4.537.771 5.094.213.556.29 1.265.232 1.543-.06.279.57.464 1.312.464.881 0 1.312-.387 1.312-1.235 0-1.936-1.32-7.95-2.779-12.735-1.301-4.27-1.746-12.348-.694-12.348.313 0 1.757 1.48 3.241 3.241 2.083 2.473 2.805 3.966 3.087 6.483.279 2.481.867 3.824 2.547 5.557 1.215 1.254 2.73 3.704 3.319 5.48.979 2.95 1.458 3.399 5.557 5.557 5.606 2.95 6.178 3.46 8.412 7.331.998 1.731 1.878 3.244 2.006 3.396.13.152.892-.266 1.621-.926 1.303-1.179 1.238-1.221 0-3.627-1.771-3.443-4.327-5.675-9.493-8.104-5.357-2.52-5.701-2.875-6.946-7.563-1.412-5.322-1.718-5.939-4.939-10.496-1.606-2.274-2.933-4.45-2.933-4.863 0-.412-1.217-1.845-2.7-3.241-1.484-1.396-2.701-3.132-2.702-3.782-.001-1.441-1.854-1.558-2.393-.154-.213.556-.872 1.003-1.389 1.003s-.926.473-.926 1.004c0 .53-1.747 2.793-3.936 5.093-2.19 2.3-4.44 5.048-4.94 6.02-.498.972-1.698 3.09-2.7 4.708L77.66 57.17l-1.312-2.161c-.718-1.182-1.459-3.37-1.698-4.863-.703-4.4-6.354-14.459-10.496-18.676-5.624-5.727-11.941-11.577-12.502-11.577zm-.386 6.406c.377-.233.694.039.694.617 0 1.185-.348 1.399-.926.463-.213-.345-.145-.847.232-1.08zm-5.634 20.76c.224.225.272.825.077 1.312-.215.538-.354.4-.386-.385-.03-.712.085-1.15.309-.927zm58.423 5.171c.142-.425.639.034 1.08 1.004.504 1.106.505 1.775.078 1.775-.821 0-1.517-1.703-1.158-2.779zm-61.588 1.39c.02.556-.257 1.45-.617 2.006-.797 1.233-.797.157 0-1.698.382-.89.593-.976.617-.309zM19.546 79.241c.393 0 .694.324.694.695 0 .864-.469.864-1.003 0-.23-.371-.084-.695.309-.695z" fill="#5c2700"/>
</svg>
