<?xml version="1.0" encoding="UTF-8"?>
<svg width="128" height="128" xmlns="http://www.w3.org/2000/svg" xmlns:xlink="http://www.w3.org/1999/xlink">
 <path d="M33.039 58.357c-1.772-.014-2.426 1.785-4.481 3.841-.644.644-1.423 1.138-2.134 1.707-1.205.964-2.1 2.23-2.987 3.414-1.037 1.383-2.372 2.372-3.628 3.627-1.854 1.855-4.472 3.088-6.614 4.695-1.59 1.192-2.013.826-2.987 2.773-.605 1.21-2.965 2.959-3.841 4.055-1.038 1.297-.925 1.991-2.134 3.2-1.103 1.103-1.742.605-.213 2.134.586.586 1.422.853 2.134 1.28 1.54.925 3.132 1.755 4.907 2.347 2.69.897 5.56.728 8.322 1.28l1.067.214c1.846.37 5.35 1.667 7.052 1.242 1.441-.36 6.76 1.51 10.357-.676 4.166-1.414 11.523-3.35 15.75-2.41 2.326.517 4.483 1.49 5.034-.717.255-1.02-.03-2.407-.426-3.2-.613-1.225-1.795-1.206-2.134-2.56-.385-1.54.502-2.651.853-4.055.597-2.388-.152-3.505 2.774-2.774 1.622.406 2.958.672 4.481 1.28 4.15 1.66 8.61 1.708 13.016 1.708 3.02 0 6.121-2.164 9.175-2.774 1.6-.32 6.963-4.505 7.95-4.752 1.141-.285 4.087 5.19 3.359 7.739 2.725.681 4.326 2.126 6.827 3.627 1.938 1.163 4.57 1.707 6.828 1.707 4.202 0 7.849-.202 12.163-1.28 2.62-.655 3.414-.406 3.414-2.987 0-1.823-1.276-2.982-2.56-4.268-1.133-1.131-2.103-2.376-3.201-3.2-1.077-.808-1.827-2.374-2.348-3.414l-2.133-4.268c-.702-1.402-1.475-2.012-2.774-2.987-1.636-1.227-2.645-2.844-3.627-4.48-1.434-2.39-3.38-5.569-4.481-8.322-.118-.296-.285-.57-.427-.854a11.638 11.638 0 00-2.134-2.987c-1.569-1.57-3.288-.468-4.48.427-3.053 2.289-4.018 2.31-6.402 4.694-1.391 1.391-3.288 3.589-4.054 5.12-.89 1.783-2.077.883-3.414.214-1.29-.645-2.175-1.418-3.414-2.347-1.458-1.093-3.011-3.011-4.267-4.267-1.33-1.33-2.987-2.774-4.908-2.774-2.606 0-5.174-4.143-6.401-6.188-1.1-1.835-3.133-3.2-5.334-3.2-2.723 0-5.267 3.398-7.682 4.907-1.954 1.222-2.928 1.394-3.627 3.84-.437 1.532-1.312 2.69-1.707 4.268-.38 1.52-1.034 3.136-1.707 4.481-.72 1.439-1.481 2.11-2.134 3.414-.755 1.511-3.217 4.152-4.694 3.414-1.238-.62-2.09-1.621-2.774-2.987-.333-.666-2.746-1.618-3.2-1.92z" fill="#e4e4e4" fill-rule="evenodd"/>
 <path d="M33.465 57.504l-.213.427c-1.314 2.628-4.628 2.708-6.401 4.48l-1.067 1.067c-1.634 1.634-2.59 4.296-4.481 6.188-1.051 1.051-2.416 1.991-3.84 2.347-1.256.314-2.835 1.554-3.841 2.56L9.78 78.415c-1.313 1.313-2.95 2.907-4.48 4.055-.821.615-1.488 2.748-1.708 3.627-.263 1.051-.98 2.07.427 2.774 1.454.727 2.775 1.068 4.054 2.347 1.26 1.26 2.303 1.365 3.84 2.134 1.307.653 3.87.64 5.335.64 1.514 0 3.103.64 4.694.64 2.84 0 3.824.924 6.188-.427.644-.368.646-2.317.427-3.414-.276-1.377-.64-2.636-.64-4.054 0-1.51.14-2.622.426-4.054.309-1.542 1.112-2.742 1.494-4.268.437-1.748 1.74-3.514 2.347-5.334.52-1.558.915-3.021 1.28-4.48.355-1.42.427-3.21.427-4.695v-4.054c0-1.146-.18-1.115-.427-2.347zM60.137 39.154c-.36 1.233.663 3.75.213 5.548-.464 1.857-2.347 2.102-2.347 4.267 0 1.601-.64 2.89-.64 4.48 0 1.618 1.388 3.102 1.707 4.695.319 1.595.021 3.798-.64 5.121-.82 1.64-.94 3.373-1.707 4.908-.587 1.173-1.446 3.279-1.707 3.627-.706.942.967 2.147 1.494 3.2.438.877.426 2.042.426 3.201 0 1.523-.518 2.5-.853 3.84-.367 1.47.03 4.774-1.108 3.636-.927-.926-3.14-2.97-4.144-3.974-1.101-1.101-.763-2.595-1.15-4.142-.318-1.273-1.256-2.165-1.794-3.242-.666-1.331-1.133-2.581-2.473-3.586-1.432-1.074-2.209-2.51-3.414-3.414-1.334-1-1.92-2.702-1.92-4.267 0-1.445 2.42-2.633 3.414-3.628 1.313-1.313 1.488-3.34 3.2-4.48 1.293-.862 1.83-2.743 2.134-4.268.36-1.803 1.521-3.895 2.347-5.548l.427-.853c.475-.95 3.233-1.3 4.267-1.92 1.571-.943 3.614-1.566 4.268-3.201zM101.531 47.902c-.155.905-.983 2.997-1.28 4.481-.346 1.73-.66 3.492-1.067 5.12-.359 1.437-.502 2.864-.853 4.268-.378 1.51.892 2.969 1.707 4.054 1.092 1.457 1.054 3.767.426 5.335-.645 1.613-.522 3.678-.853 5.334-.263 1.316.109 2.878-.854 3.84-.237.238-.545-3.26-.853-3.413-1.524-.762-1.534-3.788-1.707-4.481-.437-1.747-1.847-2.841-2.56-4.267-.82-1.638-2.428-2.722-3.201-4.268-.886-1.771-3.047-2.584-3.414-4.054l-.213-.853c-.264-1.053 1.8-3.081 2.347-3.628 2.126-2.126 6.173-5.139 8.535-6.614 1.204-.753 2.225-.53 3.84-.854z" fill="#c8c8c8" fill-rule="evenodd"/>
 <path d="M58.686 37.292l-1.51 1.707c-.812.96-2.923 2.727-4.73 3.875-3.644 2.317-4.187 3.016-5.056 6.896-.879 3.921-2.527 7.142-5.385 10.376l-2.561 2.89-2.365-2.759c-1.316-1.495-2.699-2.692-3.086-2.692-2.635 0-10.137 5.832-10.968 8.537-.584 1.9-4.342 5.415-6.698 6.305-3.827 1.445-4.813 2.077-6.7 4.072-2.21 2.337-7.552 9.727-7.552 10.442 0 1.435 1.722.074 3.875-3.087 3.883-5.7 6.419-8.228 9.588-9.391 3.937-1.445 6.299-3.333 8.866-7.093 2.549-3.732 4.127-5.213 7.159-6.896l2.167-1.247 1.445 1.641c.788.881 2.154 2.681 3.02 4.007.867 1.325 3.209 4.026 5.255 6.041 2.926 2.884 3.927 4.282 4.531 6.502 1.275 4.685 2.88 6.994 6.173 8.866 1.909 1.085 3.021 2.095 3.021 2.758 0 .576.184 1.235.394 1.445.774.774 1.314.307 1.314-1.05 0-1.664-1.127-2.8-4.006-4.27-2.405-1.226-5.188-5.043-5.188-7.092 0-2.176-1.67-4.95-4.729-7.815-1.565-1.466-3.318-3.341-3.94-4.203l-1.117-1.577 2.956-3.02c2.925-2.992 6.253-8.879 6.304-11.1.054-2.362 1.468-4.309 4.532-6.238 1.736-1.094 3.525-2.332 3.94-2.693 1.31-1.139 1.267-.273-.131 4.4-.749 2.5-1.493 5.843-1.708 7.421-.343 2.52-.235 3.124 1.05 4.86 1.817 2.452 1.78 2.794-.065 7.75-2.982 8.01-3.045 8.727-1.182 8.012.486-.187 1.023-.887 1.182-1.576.16-.69.953-3.011 1.773-5.189 1.789-4.747 1.854-6.889.329-9.39-1.631-2.676-1.344-7.67.657-10.771.215-.334.57-1.973.788-3.612.341-2.577.606-2.956 1.707-2.956 1.726 0 3.58 1.694 4.072 3.744.594 2.48 1.139 2.985 6.042 5.45 4.861 2.445 10.245 7.171 10.245 8.998 0 .82.96 1.616 3.218 2.758 2.287 1.157 3.23 2.021 3.48 3.087.466 1.977 2.904 5.188 3.94 5.188 1.315 0 1.022-1.483-.525-2.496-.848-.556-1.547-1.689-1.773-2.89-.274-1.459-.817-2.218-2.036-2.757-2.107-.933-2.09-1.375.197-3.94 1.025-1.15 2.981-3.444 4.4-5.058 1.53-1.739 3.111-2.955 3.81-2.955.648 0 1.465-.283 1.838-.657 1.23-1.229 1.25-.13.066 2.167-.892 1.73-1.1 3.038-.92 5.583.189 2.65.032 3.603-.853 4.728-1.107 1.407-1.12 1.41.46 3.48 2.008 2.634 2.541 7.66 1.182 11.297-.498 1.33-.957 3.085-1.051 3.874-.203 1.708.85 2.514 1.116.854.102-.631.728-2.54 1.38-4.203 1.45-3.696 1.208-7.987-.591-11.624-.73-1.473-1.014-2.726-.723-3.087.271-.335.603-2.611.723-5.057.19-3.919.4-4.67 1.773-6.042l1.576-1.51 1.576 1.182c1.25.93 1.779 2.027 2.43 5.123.769 3.653 1.077 4.196 4.466 7.552 2.007 1.988 3.833 3.612 4.071 3.612.541 0 2.091 3.509 2.89 6.567.41 1.57 1.643 3.312 3.81 5.451 1.744 1.723 3.151 3.47 3.151 3.875 0 .405.485.722 1.117.722 1.912 0 1.372-1.198-2.43-5.122-2.909-3.002-3.846-4.444-4.663-7.159-.874-2.905-1.69-4.041-5.582-7.88-2.494-2.461-4.573-4.948-4.597-5.517-.05-1.167-.3-2.584-.788-4.531-.5-1.995-5.872-7.093-7.487-7.093-.747 0-1.469.245-1.642.525-.173.28-1.188.658-2.233.854-2.248.422-5.598 3.377-8.997 7.947-2.44 3.28-3.48 4.008-3.48 2.495 0-1.568-7.55-7.812-11.822-9.785-3.83-1.77-4.22-2.132-4.86-4.269-.872-2.912-2.277-4.154-6.239-5.516l-3.086-1.051zM32.876 61c-.272 0-.273 1.112-.065 2.495.578 3.857-.701 8.765-2.89 11.23-1.024 1.153-2.063 2.587-2.299 3.219-.81 2.17-1.386 7.255-1.05 8.931.227 1.14.648 1.708 1.379 1.708 1.136 0 1.262-.74.525-2.627-.694-1.779.76-6.732 2.758-9.523.993-1.387 2.216-3.807 2.693-5.385C35.426 66.083 34.866 61 32.877 61z" fill="#5c2700"/>
</svg>
