<?xml version="1.0" encoding="UTF-8"?>
<svg width="128" height="128" xmlns="http://www.w3.org/2000/svg" xmlns:xlink="http://www.w3.org/1999/xlink">
 <path d="M44.35 48.683c-1.362 2.968-2.415 4.165-4.685 6.11-1.155.99-2.112 2.938-2.648 4.277-.515 1.29-1.376 2.515-2.24 3.666-.95 1.267-1.967 2.986-3.055 4.073-.954.955-2.224 1.668-3.259 2.445-1.725 1.294-3.448 2.832-4.684 4.48-1.061 1.415-1.739 3.17-2.648 4.685-.96 1.6-1.42 3.045-2.24 4.684-1.049 2.097-2.95 2.719-4.074 4.685-.746 1.306-1.206 2.558-2.037 3.666-1.062 1.416 3.526.407 5.296.407 1.903 0 3.752.407 5.703.407 2.82 0 5.613.408 8.554.408 3.73 0 6.463.525 10.387 1.506 3.614.903 14.59-3.11 18.33-4.358 2.857-.952 3.543-3.682 6.518-4.277 2.302-.46 3.772-2.473 5.296-4.251 2.132-2.488 2.996-.52 6.314.585 1.187.396 2.444.543 3.666.815 3.552.79 6.608 2.27 10.183 3.462.47.157.95.272 1.426.408 2.987.853 8.237.334 11.202-.408 2.719-.68 5.26-.699 4.073-3.666-.696-1.74-1.902-2.92-3.258-4.277a44.784 44.784 0 00-4.481-3.87c-1.075-.806-1.904-2.178-2.444-3.258-.96-1.92-3.788-3.788-5.296-5.296-2.665-2.665-5.263-5.027-6.924-8.35-3.074-6.147-7.846-11.667-11.61-17.313-2.249-3.373-2.537-3.165-5.499-.203-2.762 2.762-5.852 4.742-8.35 7.74-2.049 2.457-2.374 5.688-4.481 8.146-1.121 1.308-1.154 2.376-2.24 2.648-1.67.417-2.822-4.563-3.056-5.5-.508-2.032-3.059-4.176-4.888-5.091-1.166-.583-1.729.113-2.851.815z" fill="#e4e4e4" fill-rule="evenodd"/>
 <path d="M74.697 38.295c2.414-2.414-.159 5.704-1.426 8.555-.98 2.207-2.353 4.501-3.462 6.72-.903 1.807-.685 4.542-1.426 6.518-.844 2.25-1.451 5.003-3.666 6.11-2.417 1.209-1.555.783-3.87.204-.896-.224-2.208-2.062-2.648-2.648-.898-1.198-1.056-1.556-2.24-2.444-1.19-.892-.47-2.563.204-3.462.907-1.21 1.585-2.967 2.24-4.277 1.067-2.134 3.187-4.205 4.888-5.907 1.266-1.266 2.835-3.254 4.481-3.666 2.426-.606 3.831-3.653 6.314-4.48.432-.145.407-.815.61-1.223zM45.572 49.09c.125 3.93.746 8.045-.781 11.8-.664 1.86-.962 3.825-1.128 5.785-.594 3.396-1.218 6.919-.363 10.33.477 1.96 1.176 3.922.969 5.973a344.43 344.43 0 00-.343 7.553c.262 1.436-.502 3.963-1.662 3.724-7.356-.148-15.885-.123-23.241-.26-2.317-.014-4.253-1.38-6.539-1.798-1.153-.779.294-2.01 1.146-2.277 1.103-.746 1.648-2.006 1.88-3.269 1.013-2.826 3.102-5.056 4.747-7.515 2.001-2.583 4.36-4.884 6.148-7.633 1.192-1.707 2.455-3.434 4.238-4.572 1.539-1.1 3.038-2.337 3.983-4.006 1.09-1.554 2.463-2.88 3.697-4.307 1.318-2.003 1.81-4.604 3.805-6.117 1.207-1.073 2.481-2.1 3.444-3.411z" fill="#c8c8c8" fill-rule="evenodd"/>
 <path d="M73.31 33.751c-.69.193-1.468.858-1.698 1.775-.265 1.053-.785 1.592-1.312 1.39-.485-.187-1.43.588-2.084 1.697-.65 1.1-1.91 2.294-2.779 2.624-1.543.587-8.356 10.307-9.801 13.97l-.772 1.852-.617-1.698c-1.99-5.013-2.746-6.123-5.634-8.49-2.852-2.337-3.18-2.463-3.782-1.389-.365.653-1.518 2.135-2.547 3.319-1.028 1.183-3.108 4.388-4.553 7.1-1.697 3.186-3.795 5.969-5.943 7.795-5.54 4.71-9.695 8.973-10.882 11.268-.619 1.197-1.814 2.98-2.701 3.936s-1.62 2.106-1.62 2.547c0 .44-.385 1.207-.85 1.698-1.555 1.641-4.553 6.562-4.553 7.486 0 .502.216 1.142.463 1.389.558.558.765.344 2.16-2.161.849-1.522 9.54-14.421 12.967-19.217.222-.312 1.524-.905 2.932-1.39 2.773-.953 6.686-5.666 9.184-11.113 1.827-3.983 3.95-6.951 4.708-6.483 1.268.784.152 8.928-2.084 15.204-1.183 3.32-1.35 9.484-.308 11.5.622 1.202.958 3.378.849 5.865-.118 2.665.124 4.39.772 5.17.885 1.068 1.108.933 2.238-1.388 1.36-2.798 1.51-4.416.617-6.174-.639-1.258-2.255-7.453-2.238-8.567.068-4.346 1.3-10.302 2.624-12.349.532-.821 1.184-3.873 1.39-6.868l.385-5.48 1.544 1.466c.86.81 2.209 3.492 3.01 5.943 1.935 5.928 3.557 8.423 6.56 10.265 4.382 2.687 8.481 5.999 10.727 8.566 1.89 2.162 2.23 2.317 2.238 1.08.006-.784-.604-2.186-1.312-3.086-1.477-1.878-10.574-8.94-12.348-9.57-1.398-.498-3.016-3.597-2.238-4.322.296-.277.683-.155.849.309.499 1.396 1.46.99 1.08-.463-.504-1.927 3.052-9.043 4.09-8.181.566.469 1.909-.613 4.631-3.705 2.11-2.396 4.12-4.842 4.477-5.48.356-.637.834-1.017 1.08-.771.74.74-4.914 17.571-6.406 19.063-1.353 1.353-.777 3.595 1.004 3.936.927.177 1.753.15 1.775-.077.47-5.001 1.012-7.074 3.01-11.114 1.311-2.653 2.555-6.118 2.778-7.718l.386-2.933 1.775 3.396c.967 1.862 2.399 4.072 3.164 4.94.766.867 1.539 2.085 1.775 2.7.237.617 1.801 1.974 3.396 3.01 3.43 2.23 4.008 2.941 6.252 6.947.935 1.67 2.369 4.157 3.164 5.556.795 1.4 3.434 4.481 5.865 6.792 2.432 2.31 4.72 4.766 5.094 5.48.621 1.184 4.032 3.586 5.248 3.704 1.246.122.26-2.483-1.62-4.322-1.139-1.113-2.518-2.917-3.088-4.013-1.027-1.977-2.94-4.214-9.107-10.496-1.762-1.795-3.241-3.416-3.241-3.627 0-.668-6.793-10.63-11.037-16.13-2.239-2.903-4.922-6.392-5.942-7.718-1.02-1.326-1.852-2.817-1.852-3.319 0-.853-.622-1.119-1.312-.926zM97.003 68.25c.042-.042.345.216.926.772.669.64 1.027 1.289.85 1.466-.178.178-.667-.34-1.159-1.157-.426-.71-.66-1.039-.617-1.08zm3.704 4.631c.442-.006 1.006.324 1.235.695.518.837.293.837-1.003 0-.608-.393-.714-.689-.232-.695zM42.13 75.581c.34 0 .732.647.926 1.39.452 1.727.075 1.727-.849 0-.399-.746-.42-1.39-.077-1.39z" fill="#5c2700"/>
</svg>
