<?xml version="1.0" encoding="UTF-8"?>
<svg width="128" height="128" xmlns="http://www.w3.org/2000/svg" xmlns:xlink="http://www.w3.org/1999/xlink">
 <path d="M42.551 27.499c-3.515 2.221-5.38 4.74-7.02 8.024-.961 1.92-2.288 2.718-4.013 4.012-2.439 1.83-4.822 4.468-7.522 6.269-1.606 1.07-2.844 2.955-4.012 4.513-1.439 1.918-2.79 3.552-4.263 5.517-1.587 2.115-2.398 4.654-4.263 6.519-.831.832.118 0-.25 0-2.866 0-4.623 9.713-5.266 12.287-.482 1.925-2.257 2.13-2.257 3.761 0 2.713 9.27 3.842 10.531 4.263 6.106 2.035 12.734 1.987 18.807 4.012 3.696 1.232 8.124 2.056 11.534 3.761 4.148 2.074 10.742 1.505 15.296 1.505 5.22 0 10.276-.251 15.546-.251 6.577 0 13.372-.752 19.81-.752 1.347 0 2.674-.335 4.012-.502 5.618-.702 11.67-5.729 17.05-7.522.533-.178 1.004-.502 1.505-.753 2.203-1.101 3.244-2.337 5.767-2.758.869-.145-.55-3.86-.752-4.263-.742-1.485-.888-3.53-1.504-4.764-.895-1.79-1.513-3.017-2.759-4.263-2.18-2.18-3.474-4.942-4.764-7.522-1.123-2.247-1.99-4.491-3.51-6.52a53.413 53.413 0 00-5.015-5.767c-2.792-2.791-5.964-1.951-10.281-6.269-1.478-1.478-3.64-2.813-5.266-4.764-1.207-1.449-1.82-3.429-3.009-5.015-1.713-2.285-5.609-3.078-7.773-3.51-2.85-.57-8.857 5.035-12.788 6.018l-2.006.501c-3.501.875-8.42-1.796-11.786-2.758-2.568-.734-3.145-.584-5.516-2.006-.792-.476-3.226-.588-4.263-1.003z" fill="#e4e4e4" fill-rule="evenodd"/>
 <path d="M12.461 60.598c.373.634 1.785 2.787 3.01 4.012l5.766 5.767c1.508 1.508 3.169 2.302 4.765 3.26.508.305.637 3.69.752 4.263.348 1.74 1.535 3.07 2.257 4.513.883 1.767.761 2.508-1.003 2.508-1.426 0-2.423.334-3.762 0-2.054-.514-4.45-.659-6.52-1.003-2.143-.358-4.283-1.51-6.268-2.006-2.403-.601-4.257-.857-6.412-1.719-1.476-.59-2.404-1.787-2.113-3.296-.239-.597 2.066-2.75 2.256-3.511.386-1.541 1.468-2.947 2.257-4.263 1.088-1.812 2.048-3.149 3.26-4.764.93-1.24 1.755-2.155 1.755-3.761zM63.113 33.517c.61.578 1.504 3.01 1.504 5.266 0 1.596.548 3.739 1.505 5.015 1.187 1.583 1.751 3.086 2.758 4.764.771 1.286 1.992 2.493 2.758 3.26 1.256 1.256-3.064.752-4.012.752-2.802 0-5.087-.908-7.773-1.505-.912-.202-1.839-.334-2.758-.501-1.398-.254-.522-3.587-.251-4.263.738-1.846 1.606-3.713 2.507-5.516.901-1.802 2.373-3.499 3.51-5.015.193-.256.252-2.214.252-2.257zM88.94 47.308c.463 1.649.845 3.379 1.254 5.015.379 1.517.892 3.067 1.253 4.514.445 1.779 1.953 3.707 3.26 5.015 2.721 2.72 5.283 8.36 6.018 12.036.57 2.851 2.148 4.618 3.761 6.77 1.105 1.472 2.678 4.698 3.31 5.96.475.952-2.57 1.042-3.047 1.994-.157.315-4.39 1.606-4.5 1.578-2.52-.63-2.707-.952-4.037-6.272-.802-3.209-2.162-6.39-3.01-9.78-.721-2.888-.597-6.075-1.253-9.027-.654-2.94-1.14-6.042-2.508-8.776-1.11-2.222-1.59-4.418-1.003-6.77.243-.971-.04-1.171.502-2.257z" fill="#c8c8c8" fill-rule="evenodd"/>
 <path d="M79.304 24.239c-.68-.168-1.078.105-1.775.617-5.447 4.002-6.277 4.505-7.64 4.245-.818-.157-3.453.047-5.789.463-6.908 1.23-11.107.827-16.053-1.544-4.618-2.214-5.695-2.24-8.875 0-1.936 1.363-7.18 7.924-8.876 11.114-.556 1.046-2.66 3.486-4.63 5.402C9.648 60.112 7.952 62.112 6.68 66.532c-.673 2.339-1.952 5.646-2.856 7.409-.903 1.762-1.62 3.488-1.62 3.859 0 1.163 2.416.804 4.322-.695 2.153-1.694 2.989-3.617 4.013-9.03.84-4.44 1.833-5.283 3.01-2.701.43.945 1.476 1.994 2.315 2.315.84.322 3.028 1.916 4.862 3.628 2.988 2.788 4.4 3.748 4.4 2.855 0-1.177-1.72-3.65-3.242-4.63-4.214-2.717-6.558-4.691-7.023-5.943-.527-1.417 1.84-7.332 2.933-7.332.33 0 .617-.77.617-1.698 0-.927.23-1.698.54-1.698 1.344 0 11.565-10.389 14.432-14.663 3.249-4.842 7.704-9.648 8.953-9.648.894 0 4.786 3.552 5.17 4.708.308.923 10.49 4.09 13.121 4.09 1.63 0 1.748.335 3.55 7.564.762 3.058 4.626 7.95 6.252 7.95 1.747 0 2.147-1.137.771-2.162-1.765-1.314-4.94-6.403-4.94-7.949 0-2.455 4.854-10.11 6.407-10.11.887 0 5.114-2.063 8.18-4.013 1.264-.804 1.681-.748 3.32.54 2.054 1.616 6.405 7.94 6.405 9.338 0 .488-.77 2.736-1.698 4.94-1.98 4.703-2.056 5.522-.618 7.717.593.905 1.462 2.967 1.93 4.554.471 1.598 1.34 2.97 1.93 3.087.909.18.923-.098.308-2.007-.396-1.228-1.057-3.225-1.543-4.399-1.182-2.848-.215-6.41 2.083-7.64.94-.504 1.562-1.248 1.39-1.698-.597-1.555.417-1.572 3.55.077 6.273 3.303 12.862 10.152 12.888 13.352.007.779.777 2.136 1.698 3.01.921.873 1.698 2.07 1.698 2.624 0 1.687 2.01 4.561 4.013 5.71 1.257.722 2.025 1.819 2.316 3.32.24 1.244.372 2.796.763 4.558.39 1.762 1.086 3.242 1.543 3.242 1.462 0 1.69-.808.772-2.624-.492-.974-.507-1.833-.532-3.016-.059-2.85-1.116-4.814-4.244-7.563-1.604-1.41-2.624-2.811-2.624-3.782 0-.86-.324-1.777-.695-2.006-.37-.23-.617-1.055-.617-1.775s-.318-1.235-.618-1.235-1.705-1.913-3.164-4.168c-3.216-4.969-7.014-8.187-13.12-11.113-2.813-1.348-5.068-2.925-5.788-4.09-4.716-7.629-6.075-9.236-9.493-11.423-1.741-1.114-2.717-1.762-3.396-1.93zM7.992 69.233c.224.224.272.825.077 1.312-.215.538-.353.4-.386-.386-.029-.711.085-1.15.31-.926z" fill="#5c2700"/>
</svg>
