<?xml version="1.0" encoding="UTF-8"?>
<svg width="128" height="128" xmlns="http://www.w3.org/2000/svg" xmlns:xlink="http://www.w3.org/1999/xlink">
 <path d="M60.235 40.09c0 .272 0 .272 0 0 0-2.365 2.589 4.08 4.48 5.5 1.264.947 3.795 1.27 5.296 1.832 2.128.798 4.428 1.373 6.11 3.055 2.738 2.738 7.563 4.794 8.554 8.758.478 1.91 1.442 3.743 1.833 5.703.489 2.442 1.825 3.65 2.852 5.703 1.016 2.032 1.76 4.408 3.666 6.314 1.263 1.263 2.126 3.746 3.055 5.295.33.55.679 1.086 1.018 1.63a20.578 20.578 0 011.63 3.258c.643 1.608 2.047 2.852-.815 2.852-2.59 0-4.773.83-7.128 1.222-2.664.444-10.143 3.986-13.142 2.486-2.416-1.208-9.761-8.817-11.095-11.04-1.613-2.688-4.045-4.83-5.5-7.74-1.06-2.12-1.397-4.628-2.444-6.721-.78-1.56-.814-3.778-.814-5.5 0-3.671-.815-7.475-.815-11.201 0-3.5.248-5.88 1.018-8.962.275-1.098 1.535-1.738 2.24-2.444z" fill="#e4e4e4" fill-rule="evenodd"/>
 <path d="M20.111 81.64c.56-.517.27-3.116.611-4.482.378-1.511.86-2.86 1.426-4.277.738-1.845 1.343-3.704 2.24-5.499 1.517-3.033 5.18-6.482 7.944-8.554 2.46-1.845 4.449-4.246 6.517-6.314 1.15-1.15 4.343-2.42 5.907-3.462 1.628-1.086 3.31-1.668 4.888-2.852 1.72-1.29 3.37-2.76 4.888-4.277 2.289-2.289 3.259-4.49 3.259 0 0 1.912.39 3.394.814 5.092.697 2.787.408 5.53.408 8.35 0 2.066.932 4.34 1.425 6.314.428 1.711.484 3.438.815 5.092.224 1.118.923 2.317 1.63 3.259.903 1.205 2.083 3.125 3.258 4.888 1.507 2.26 3.563 3.843 5.5 5.295 1 .75 4.934 3.676 4.934 5.716 0 .897-.49 6.798 2.062 7.676.617.513-19.58-1.448-24.309-2.393-2.333-.467-6.035-.408-8.35-.408-4.56 0-8.378.656-12.628-.407-1.062-.265-2.172-.272-3.259-.407-2.56-.32-6.02-2.51-7.536-4.277-.98-1.145-1.225-2.244-2.24-3.26-.198-.197-.136-.542-.204-.814z" fill="#c8c8c8" fill-rule="evenodd"/>
 <path d="M57.632 36.45c-.96.67-2.618 2.205-5.634 5.172-6.77 6.661-10.841 9.723-12.657 9.415-1.45-.245-9.478 5.811-12.503 9.416-3.04 3.625-4.082 5.917-6.097 14.046-1.479 5.968-1.574 8.223-.308 6.175.417-.675.634-.563 1.003.385.413 1.06.622.883 1.39-.926.491-1.161 1.25-3.842 1.697-6.02 1.18-5.753 2.012-7.707 4.476-10.727 5.07-6.212 5.317-6.442 12.58-9.879 1.982-.938 5.546-3.862 9.107-7.486 3.206-3.262 6.061-5.68 6.329-5.402.267.278 1.132 6.102 1.93 12.965 1.709 14.72 2.615 17.197 8.72 23.462 2.26 2.319 4.256 4.245 4.476 4.245.221 0 1.046.693 1.776 1.62 1.695 2.157 2.546 2.183 2.546 0 0-.949-.224-1.584-.54-1.389-.949.587-11.716-11.19-13.043-14.277-.88-2.048-1.377-5.866-1.852-13.43-.366-5.827-.589-10.755-.463-10.881.126-.126.942 1.212 1.775 2.933 1.432 2.957 1.57 3.087 3.627 2.7 1.562-.292 3.423.127 6.56 1.467 7.914 3.382 11.05 7.254 13.12 16.439 1.256 5.57 2.347 8.104 4.708 10.65.887.957 1.621 1.983 1.621 2.239 0 .255.385.821.849 1.312 1.16 1.224 4.251 6.045 4.785 7.486.475 1.281 1.775 1.623 1.775.463 0-.393.272-.522.617-.309.346.214.85.065 1.081-.309.23-.373-.683-2.125-2.007-3.858-1.386-1.816-2.207-3.612-2.006-4.245.192-.605-.147-1.667-.695-2.393-4.763-6.312-6.058-8.62-8.49-14.818-2.417-6.163-3.23-7.388-6.02-9.724-3.049-2.554-12.37-7.486-14.2-7.486-1.686 0-5.27-3.393-5.71-5.403-.246-1.117-.843-2.006-1.313-2.006s-1.116-.604-1.466-1.39c-.295-.66-.583-.9-1.544-.231z" fill="#5c2700"/>
</svg>
