<?xml version="1.0" encoding="UTF-8"?>
<svg width="128" height="128" xmlns="http://www.w3.org/2000/svg" xmlns:xlink="http://www.w3.org/1999/xlink">
 <path d="M51.643 38.845c.326-.01 2.948.737 4.366 1.091 1.6.4 2.179.762 3.492 1.747 1.167.875 1.723 1.642 2.62 2.837.816 1.089 1.647 2.205 2.183 3.275.645 1.29 1.93 2.72 2.837 3.93.705.938 1.88 2.011 2.402 3.055.465.932 1.82 2.04 2.619 2.838 1.084 1.083 2.435 1.763 3.711 2.401 1.851.926 4.634.326 6.549 1.092 2.188.875 3.604 2.32 5.457 3.71 1.3.975 2.523 2.087 3.493 3.057l4.147 4.147c1.782 1.782 1.772 2.54 0 5.02-1.073 1.503-2.532 2.97-3.493 3.93-.982.983-3.274 1.855-4.584 2.183-1.829.457-9.957 3.818-11.661 4.158-2.494.5-2.882-5.863-5.147-6.996-1.984-.992-3.033-3.18-3.493-5.02-.651-2.608-2.328-6.259-4.147-8.077-3.338-3.338-6.753-7.986-9.605-11.788-1.341-1.788-.83-4.67-1.528-6.767-.552-1.657 0-3.936 0-5.676 0-1.418.016-2.74-.218-4.147z" fill="#e4e4e4" fill-rule="evenodd"/>
 <path d="M50.988 37.099l.218.218c1.416 1.416 3.231 3.071 4.366 4.584.892 1.19 1.517 2.817 2.183 4.148.56 1.121 1.185 2.339 1.528 3.71.401 1.606.78 3.25 1.091 4.803.304 1.516.53 2.99.874 4.366.393 1.575 1.028 2.93 1.746 4.365.84 1.681 2.288 2.288 3.492 3.493l4.148 4.148c1.574 1.573 1.597 2.975 2.62 5.02.789 1.579 1.344 2.976 1.746 4.584.388 1.554.966 3.087 1.31 4.803.528 2.644-2.034 2.065-3.711 2.401-3.208.641-6.427 1.329-9.605 1.965-2.143.428-6.247-.143-8.295-.655-2.882-.72-6.444-.94-9.387-1.528-2.897-.58-5.821-.285-8.429-1.915-1.256-.785-2.575-1.857-3.71-2.709-.922-.69 2.978-4.19 3.408-4.763.157-.21.29-.436.436-.655 1.242-1.862 2.395-3.265 3.711-5.02a39.061 39.061 0 003.493-5.676c.627-1.254 1.314-2.41 1.964-3.71.534-1.068.437-3.53.437-4.803 0-2.384-.218-4.546-.218-6.986 0-1.81.436-3.593.436-5.457 0-3.435.513-3.862 2.183-7.203.74-1.478 1.965.894 1.965-1.528z" fill="#c8c8c8" fill-rule="evenodd"/>
 <path d="M49.475 35.937c-1.091.293-1.947 1.312-2.856 3.165-1.44 2.937-1.6 4.082-1.543 12.58l.077 9.338-2.316 3.319c-1.297 1.806-2.392 3.403-2.392 3.627 0 .224-.866 1.58-1.93 2.933-4.092 5.203-7.329 12.194-5.633 12.194.287 0 1.89-1.88 3.55-4.168 1.66-2.287 3.313-4.46 3.704-4.862 1.937-1.991 6.346-9.172 6.946-11.345.456-1.65.454-4.994 0-10.11-.955-10.777.382-13.58 5.248-10.96 4.108 2.213 7.563 9.2 7.64 15.59.046 3.705.28 4.495 2.162 6.638 1.17 1.333 3.287 3.056 4.708 3.781 3.266 1.667 4.2 3.056 6.637 10.265 1.084 3.208 2.144 6.158 2.392 6.56 2.16 3.493-1.235-9.123-3.859-14.355-.707-1.41-2.17-3.01-3.395-3.627-1.202-.605-3.317-2.14-4.708-3.473-2.021-1.937-2.547-2.967-2.547-4.94 0-4.325-1.26-9.3-3.087-12.194-1.406-2.227-1.566-2.875-.849-3.318 1.33-.823 3.259.697 5.711 4.476 4.822 7.43 7.752 11.153 9.184 11.73.832.336 3.778 1.41 6.56 2.393 7.337 2.594 7.85 2.943 12.966 8.027 2.56 2.544 4.813 4.448 5.017 4.245.651-.652-2.38-4.308-6.792-8.181-4.181-3.67-7.796-5.45-15.127-7.332-2.129-.547-3.453-1.464-5.016-3.473-1.174-1.51-2.308-2.902-2.547-3.087-.24-.186-1.287-1.973-2.315-4.013-1.971-3.911-4.066-6.083-7.41-7.718-1.112-.544-2.977-1.641-4.09-2.393-1.706-1.151-3-1.604-4.09-1.312z" fill="#5c2700"/>
</svg>
