<?xml version="1.0" encoding="UTF-8"?>
<svg width="128" height="128" xmlns="http://www.w3.org/2000/svg" xmlns:xlink="http://www.w3.org/1999/xlink">
 <path d="M53.31 28.373c-.125 1.695-2.447 4.141-3.51 6.269-.826 1.65-.832 3.582-1.505 5.265-.877 2.192-1.89 4.65-3.51 6.27-1.521 1.52-2.34 3.677-2.759 5.766-.407 2.037-2.469 3.154-4.262 2.257-1.372-.686-4.95.422-6.27.752-.59.148-1.17.335-1.754.502-.669.19-2.361 4.47-2.759 5.266-1.195 2.39-2.63 4.759-3.761 7.02-.674 1.348.115 3.052-.25 4.514-.737 2.946-2.615 5.48-4.013 8.275-1.139 2.278-3.41 3.312-4.513 5.516-1.05 2.099-1.92 2.727-3.26 4.514-3.58 4.774 2.369 2.118 5.266 5.015 2.002 2.002 5.91 3.504 7.773 2.758 1.804-.721 5.48-1.003 7.523-1.003 5.105 0 11.318.231 15.797-2.257 2.626-1.459 4.519-2.262 6.52-4.262 1.438-1.439 4.718-2.964 5.767-4.012.635-.636 3.324-4.904 4.575-4.28 1.13.566 4.896.718 6.104 1.02.845.211.436 3.844 1.106 4.513 1.086 1.086.717 2.114 2.006 2.759 2.084 1.041 5.784 1.02 7.522 2.758 2.431 2.43 1.876-.251 4.765-.251 4.026 0 10.253-.09 13.79-1.504 3.095-1.238 5.789-1.448 9.028-2.257 2.105-.527 5.182-1.335 4.513-4.012-.422-1.69-6.508-6.558-7.748-7.798-2.11-2.11-4.178-1.957-5.29-4.74-.14-.347-.335-.668-.502-1.003-1.065-2.13-1.28-4.643-1.756-7.02-1.042-5.212-4.367-9.383-7.773-12.789-.65-.65-5.522 6.831-5.767 7.272-1.465 2.636-2.56.372-3.51-2.006-.939-2.345-2.213-4.625-4.572-5.804-5.226-2.614-2.962-.738-5.208-5.23-1.561-3.122-2.003-5.597-5.265-7.772-2.6-1.734-3.884-4.386-6.018-6.52-2.59-2.589-2.8-3.296-6.52-3.761z" fill="#e4e4e4" fill-rule="evenodd"/>
 <path d="M33.5 56.206c-.879-.107-3.314.982-5.014 2.257-1.757 1.318-3.079 4.296-4.514 6.018-1.154 1.385-.914 5.322-1.253 7.02-.398 1.987-.85 3.206-1.756 5.016-1.235 2.471-2.319 4.012-4.012 6.269-1.69 2.252-3.589 4.033-5.265 6.268-.992 1.323-2.701 2.575-2.701 3.223 0 .688 8.086 4.296 8.719 4.801 1.903 1.523 7.91 1.687 9.277 1.003 1.29-.645 2.38-6.592 3.462-8.394.693-1.155 1.948-4.838 2.306-6.15.447-1.641-.502-2.99-.502-4.513 0-2.54-1.368-4.557-.752-7.02.862-3.448 1.405-7.125 2.257-10.532.367-1.47.251-4.01-.251-5.266zM56.57 28.373c0 .334 0 .334 0 0 0-5.925 1.504 6.612 1.504 9.027 0 1.279-.702 3.062-1.003 4.263-.429 1.716-1.859 3.394-2.507 5.015-.744 1.858-1.003 3.258-1.003 5.516 0 2.284.501 4.052.501 6.269 0 2.15 1.003 7.683 1.003 9.528 0 1.991-.788 3.627-2.256 3.26-1.524-.38-3.272-.943-4.514-1.254-1.631-.408-2.943-1.517-4.263-2.507-1.022-.767-1.535-3.414-1.755-4.514-.033-.164 0-.334 0-.501 0-2.765-1.53-4.687-.501-7.773.797-2.392 1.92-4.594 3.009-6.77 1.684-3.37 3.588-6.332 4.513-10.03l.25-1.004c.853-3.407 1.979-6.686 4.765-8.776.606-.454 1.51.126 2.257.25zM86.66 62.224l1.003 1.003c.844.845.501 3.615.501 4.764v5.015c0 1.825.202 3.207-.25 5.015-.509 2.034-2.248 3.726-2.759 5.768-.533 2.134-.49 3.236-1.504 5.265-.59 1.181-.502 2.658-.502 4.012 0 2.228-.989 1.637-3.26.502-1.966-.983-5.387-1.146-6.831-2.59-1.541-1.54-1.73-1.077-1.73-3.642 0-1.951 2.659-4.875 3.045-6.807.465-2.325 1.887-5.441 3.26-7.272 2.364-3.152 3.43-6.71 6.52-9.027 1.399-1.05 1.162-.325 2.507-2.006z" fill="#c8c8c8" fill-rule="evenodd"/>
 <path d="M55.245 24.937c-2.05 0-5.438 3.743-6.483 7.1-.778 2.502-1.518 4.193-4.322 10.42-.585 1.298-1.652 3.162-2.393 4.09-.74.927-1.561 2.669-1.775 3.936-.213 1.267-.525 2.581-.694 2.856-.17.274-2.075-.109-4.245-.85L31.397 51.1l-1.62 1.621c-2.272 2.183-5.655 6.528-6.87 8.953-1.352 2.7-2.764 8.985-2.624 11.5.095 1.693-.711 2.864-5.016 7.1C10.257 85.202 8.244 88.21 8.244 91c0 2.539 1.03 1.708 6.791-5.402 1.654-2.04 3.195-3.813 3.473-3.936.279-.124.54-.514.54-.927 0-.412.801-1.606 1.776-2.624 1.441-1.504 1.837-2.777 2.238-6.791.633-6.345 2.337-9.974 5.402-11.5 1.299-.646 2.732-1.65 3.164-2.238 1.018-1.382.558 3.216-.848 8.335-1.275 4.642-1.297 6.993-.232 12.349.77 3.878.744 4.854-.232 7.718-1.33 3.903-1.467 5.932-.308 5.556 1.101-.357 3.054-6.246 3.087-9.261.014-1.298-.306-4.025-.772-6.02-.76-3.254-.693-4.484.849-12.271 1.39-7.02 1.933-8.719 2.856-8.721 1.394-.004 2.276 1.294 2.006 2.933-.226 1.37 1.111 3.284 1.93 2.778.592-.366 2.006 3.297 2.006 5.17 0 1.588 3.037 3.62 6.792 4.632 3.497.941 5.87 2.506 9.879 6.328 1.985 1.894 3.14 2.494 3.627 2.007.487-.488-.334-1.638-2.624-3.86-4.324-4.193-6.468-5.568-10.65-6.79-3.958-1.157-4.643-1.825-5.326-5.094-.271-1.299-.797-2.717-1.158-3.165-1.258-1.563-.096-7.381 2.007-10.11 1.09-1.413 2.356-3.964 2.856-5.634.5-1.67 1.366-3.59 1.852-4.322.486-.732.847-1.949.849-2.701.007-2.62 1.373-6.26 3.01-8.026 2.041-2.203 2.258-2.2 1.852-.078-.234 1.224-.002 1.698.772 1.698 1.734 0 1.18 9.765-.695 12.426-1.563 2.217-2.619 5.053-2.315 6.097.108.37.374 3.125.617 6.174.347 4.332.698 5.447 1.39 5.017.966-.601 1.15-6.092.385-10.42-.325-1.842-.195-2.876.54-3.704 1.882-2.117 3.188-6.325 3.242-10.496.03-2.273.199-3.705.386-3.241.187.463.667.771 1.003.771 1.717 0 6.999 6.62 9.802 12.194.987 1.964 2.848 3.973 5.248 5.711 2.043 1.48 4.245 3.64 4.862 4.785 1.086 2.017 1.028 2.154-.695 5.094-.979 1.67-1.775 3.56-1.775 4.168 0 1.25-4.844 11.308-6.868 14.2-1.026 1.466-1.27 2.58-1.004 4.94.637 5.65 3.27 5.056 4.09-.926.51-3.712 3.83-10.735 6.02-12.812.847-.802 2.468-2.324 3.628-3.396l2.084-1.93.849 3.088c1.563 5.984 1.545 6.608.154 8.567-2.059 2.897-3.475 6.637-2.856 7.64.737 1.192 2.702-.311 2.702-2.084 0-.68.77-2.337 1.697-3.704 1.972-2.905 2-3.847.618-9.184-.842-3.25-.886-4.453-.232-6.637.442-1.476 1.077-2.702 1.39-2.702.312 0 .54-.57.54-1.312 0-1.557.097-1.567 2.392-.694 1.395.53 1.698 1.06 1.698 2.932 0 1.278.16 2.81.386 3.396.73 1.902 1.62 1.148 1.62-1.389 0-3.777.523-2.47 1.004 2.624.593 6.275.807 6.785 5.403 10.265 6.434 4.872 7.108 5.633 8.72 10.65.432 1.342 2.416 1.671 2.393.386-.025-1.425-2.643-6.86-3.859-7.95-.632-.566-2.943-2.376-5.094-4.012-4.669-3.553-4.947-3.985-5.556-9.185-.444-3.783-1.11-5.333-5.017-11.113-.632-.935-1.387-2.274-1.62-3.01-.234-.736-1.03-1.802-1.853-2.315-1.346-.84-1.607-.759-2.547.617-1.67 2.448-4.578 5.403-5.325 5.403-.378 0-1.272-.894-1.93-2.007-.657-1.114-1.749-2.189-2.392-2.393-1.581-.501-7.254-6.015-7.254-7.023 0-1.618-6.686-10.63-9.725-13.12-1.717-1.407-3.607-3.47-4.167-4.553-.674-1.303-1.531-1.93-2.547-1.93z" fill="#5c2700"/>
</svg>
