<svg xmlns="http://www.w3.org/2000/svg" xmlns:xlink="http://www.w3.org/1999/xlink" width="128" height="128" version="1.0"><defs><linearGradient xlink:href="#a" id="g" x1="61.95" y1="19.358" x2="69.961" y2="16.117" gradientUnits="userSpaceOnUse"/><linearGradient id="b"><stop offset="0" stop-color="#b1b1b1"/><stop offset="1" stop-color="#e4e4e4"/></linearGradient><linearGradient xlink:href="#a" id="d" x1="52.899" y1="41.985" x2="68.677" y2="54.216" gradientUnits="userSpaceOnUse"/><linearGradient xlink:href="#a" id="e" x1="68.433" y1="79.626" x2="81.459" y2="50.272" gradientUnits="userSpaceOnUse"/><linearGradient xlink:href="#a" id="f" x1="62.837" y1="24.923" x2="64.519" y2="21.743" gradientUnits="userSpaceOnUse"/><linearGradient id="a"><stop offset="0" stop-color="#c7a94c"/><stop offset="1" stop-color="#e2ca80"/></linearGradient><linearGradient xlink:href="#a" id="h" x1="67.882" y1="27.858" x2="73.386" y2="18.074" gradientUnits="userSpaceOnUse"/><linearGradient xlink:href="#b" id="i" x1="68.371" y1="59.781" x2="79.318" y2="42.841" gradientUnits="userSpaceOnUse"/><linearGradient xlink:href="#b" id="j" x1="47.64" y1="77.211" x2="60.544" y2="100.633" gradientUnits="userSpaceOnUse"/><linearGradient xlink:href="#b" id="k" x1="67.332" y1="100.847" x2="88.063" y2="80.238" gradientUnits="userSpaceOnUse"/><filter id="c" x="-.101" width="1.202" y="-.091" height="1.183"><feGaussianBlur stdDeviation="2.21"/></filter></defs><metadata/><g fill-rule="evenodd"><path d="M54.317 45.52c-2.507.578-21.483 4.677-17.002 4.06 1.064 13.717 5.08 24.501 1.396 38.068 6.66 3.37 17.424 12.522 23.807 15.737 14.213-3.889 16.091-8.822 26.557-11.779-7.055-6.778-10.703-17.08-15.06-24.318-3.956-6.606-10.249-13.755-16.358-19.767-2.956-1.832 1.076-2.51-3.34-2zM80.834 83.98z" filter="url(#c)" fill-opacity=".627"/><path d="M58.22 20.245l9.173 8.317-2.507 56.935c-6.181-4.688-12.437-9-18.47-14.432l5.566-26.725 5.137-20.181 1.1-3.914z" fill="url(#d)"/><path d="M81.214 23.975l-13.76 4.22-1.59 32.412-1.1 24.829.917.061 23.85-7.094-3.73-30.577-3.303-18.102-1.284-5.749z" fill="url(#e)"/><path d="M58.526 20.367l8.745 8.195.183.06v-.427L65.07 19.02l-6.543 1.346z" fill="url(#f)"/><path d="M58.28 20.183l12.905-4.403s4.22 0 3.608.184c-.612.183-9.907 3.119-9.907 3.119l-6.116 1.162-.49-.062z" fill="url(#g)"/><path d="M64.886 19.083l9.723-3.12 6.666 8.134-13.82 4.159-2.57-9.173z" fill="url(#h)"/><path d="M68.555 41.771l13.21-3.67 2.813 17.185-15.46 4.634-1.175-.17.612-17.979z" fill="url(#i)"/><path d="M46.906 71.187l-2.018 3.302-2.202 6.238-1.467 5.993 6.482 6.422 10.274 7.644 5.198 3.853.673-9.724.978-9.357-5.993-4.892-7.338-5.565-4.587-3.914z" fill="url(#j)"/><path d="M64.824 85.558l-.55 5.871-1.04 13.21 11.803-3.425 15.595-5.932 3.058-1.774s-1.285-6.849-1.285-7.094c0-.244-2.996-8.072-2.996-8.072l-3.058 1.162-14.188 3.853-7.339 2.201z" fill="url(#k)"/><path d="M58.22 20.245l9.173 8.317-2.507 56.935c-6.181-4.688-12.437-9-18.47-14.432l5.566-26.725 5.137-20.181 1.1-3.914z" fill-opacity=".157"/><path d="M58.526 20.367l8.745 8.195.183.06v-.427L65.07 19.02l-6.543 1.346zM46.906 71.187l-2.018 3.302-2.202 6.238-1.467 5.993 6.482 6.422 10.274 7.644 5.198 3.853.673-9.724.978-9.357-5.993-4.892-7.338-5.565-4.587-3.914z" fill-opacity=".157"/><path d="M58.28 20.183l12.905-4.403s4.22 0 3.608.184c-.612.183-9.907 3.119-9.907 3.119l-6.116 1.162-.49-.062z" fill="#fff" fill-opacity=".125"/></g><path d="M71.188 15.688l-13.25 4.406c-4.603 16.1-8.587 34.293-11.563 50.718-2.927 4.717-4.258 10.391-5.594 16.063 6.542 7.245 14.248 11.782 22.094 18.375 12.628-4.056 18.716-5.29 31.031-11.219l.438-.156-.125-.438c-.736-5.111-1.862-10.067-4.219-14.53-2.398-19.074-3.86-35.71-8.531-54.782l-6.531-8.281-3.75-.156zm3.187.562l6.531 7.719-13.312 4.187 13.187-3.843c4.876 18.76 6.145 35.332 8.094 54.093-10.15 3.392-13.144 3.54-23.594 6.906 1-21.292.987-36.188 2.313-57.156l-.156.032-2.126-9.157 9.063-2.781zm-3.42-.216l2.862.006-9.05 2.845-6.127 1.304 12.316-4.155zm-6.33 3.31l2.75 8.968-.063-.03L64.344 85c-5.09-4.956-11.028-7.894-17.031-13.875 2.543-16.676 6.205-34.99 11.03-50.688l8.704 7.888-8.086-7.757 5.664-1.224zM81.813 37.78l-13.47 3.688-.468 18.406.063-.313.906-17.718 12.781-3.438 2.594 16.719-15.031 4.625-.376.219 15.907-4.594-2.906-17.594zm-3.938 4.375c-.697.99-1.367 2.078-2.406 1.813l-1.375-.844c-.442.87-1.311 1.096-1.313 2.625l-2.375-1.219-.437.282 3.156 2.468c.294-1.693.514-3.746 1.375-2.718l1.031.624c1.498-.206 1.494-1.403 2.031-2.25l1.532 1.313 1.687-.063.094-.374-1.219-.407-1.781-1.25zm-.844 6L75 49.75l-1.75-1.094c-1.2-.763-1.896.75-2.844 1.125l.344.188c.844-.113 1.688-.768 2.531-.25.574.238.821.804 1.813.625 1.413.515 1.608-1.053 2.281-1.594l1.656.5.281-.469-2.28-.625zm4.375 2.907c-.815.06-1.363.793-2 1.28l-1.937-1.187-2.688 1.875.156.219 2.438-.969 1.938 1.188c1.142-.269 2.09-.7 3.124-1.938l-.124-.281a1.715 1.715 0 00-.907-.188zM46.937 71.53c6.245 6.026 11.901 8.905 17.657 14.156-.632 5.325-1.797 12.477-1.844 18.094-7.732-5.779-15.086-9.997-21.188-17.406 1.17-5.259 2.3-10.538 5.376-14.844zm42.188 7.219c2.659 4.833 3.61 9.667 4 14.5-11.346 5.642-16.905 7.169-29.219 10.875.365-5.644.73-12.834 1.094-18.188 10.398-3.501 13.774-3.816 24.125-7.187z" fill-rule="evenodd"/></svg>