<?xml version="1.0" encoding="UTF-8"?>
<svg width="128" height="128" version="1.0" xmlns="http://www.w3.org/2000/svg" xmlns:xlink="http://www.w3.org/1999/xlink">
 <path d="M71.188 15.688l-13.25 4.406c-4.603 16.1-8.587 34.293-11.563 50.718-2.927 4.717-4.258 10.391-5.594 16.063 6.542 7.245 14.248 11.782 22.094 18.375 12.628-4.056 18.716-5.29 31.031-11.219l.438-.156-.125-.438c-.736-5.111-1.862-10.067-4.219-14.53-2.398-19.074-3.86-35.71-8.531-54.782l-6.531-8.281-3.75-.156zm3.187.562l6.531 7.719-13.312 4.187 13.187-3.843c4.876 18.76 6.145 35.332 8.094 54.093-10.15 3.392-13.144 3.54-23.594 6.906 1-21.292.987-36.188 2.313-57.156l-.156.032-2.126-9.157 9.063-2.781zm-3.42-.216l2.862.006-9.05 2.845-6.127 1.304 12.316-4.155zm-6.33 3.31l2.75 8.968-.063-.03L64.344 85c-5.09-4.956-11.028-7.894-17.031-13.875 2.543-16.676 6.205-34.99 11.03-50.688l8.704 7.888-8.086-7.757 5.664-1.224zM81.813 37.78l-13.47 3.688-.468 18.406.063-.313.906-17.718 12.781-3.438 2.594 16.719-15.031 4.625-.376.219 15.907-4.594-2.906-17.594zm-3.938 4.375c-.697.99-1.367 2.078-2.406 1.813l-1.375-.844c-.442.87-1.311 1.096-1.313 2.625l-2.375-1.219-.437.282 3.156 2.468c.294-1.693.514-3.746 1.375-2.718l1.031.624c1.498-.206 1.494-1.403 2.031-2.25l1.532 1.313 1.687-.063.094-.374-1.219-.407-1.781-1.25zm-.844 6L75 49.75l-1.75-1.094c-1.2-.763-1.896.75-2.844 1.125l.344.188c.844-.113 1.688-.768 2.531-.25.574.238.821.804 1.813.625 1.413.515 1.608-1.053 2.281-1.594l1.656.5.281-.469-2.28-.625zm4.375 2.907c-.815.06-1.363.793-2 1.28l-1.937-1.187-2.688 1.875.156.219 2.438-.969 1.938 1.188c1.142-.269 2.09-.7 3.124-1.938l-.124-.281a1.715 1.715 0 00-.907-.188zM46.937 71.53c6.245 6.026 11.901 8.905 17.657 14.156-.632 5.325-1.797 12.477-1.844 18.094-7.732-5.779-15.086-9.997-21.188-17.406 1.17-5.259 2.3-10.538 5.376-14.844zm42.188 7.219c2.659 4.833 3.61 9.667 4 14.5-11.346 5.642-16.905 7.169-29.219 10.875.365-5.644.73-12.834 1.094-18.188 10.398-3.501 13.774-3.816 24.125-7.187z" fill="#5c2700" fill-rule="evenodd"/>
</svg>
