<?xml version="1.0" encoding="UTF-8"?>
<svg width="128" height="128" xmlns="http://www.w3.org/2000/svg" xmlns:xlink="http://www.w3.org/1999/xlink">
 <defs>
  <radialGradient id="b" cx="14.207" cy="222.04" r="8.252" gradientTransform="scale(1.3952 .71673)" gradientUnits="userSpaceOnUse">
   <stop offset="0"/>
   <stop stop-opacity="0" offset="1"/>
  </radialGradient>
  <filter id="c" x="-.109" y="-.212" width="1.218" height="1.424">
   <feGaussianBlur stdDeviation=".721"/>
  </filter>
 </defs>
 <path transform="matrix(2.4697 0 0 2.4697 17.533 -306.84)" d="M28.402 158.699a7.944 4.08 0 11-15.888 0 7.944 4.08 0 1115.888 0z" fill="url(#b)" fill-rule="evenodd" filter="url(#c)" opacity=".5"/>
 <path d="M64.315 84.629c-.927 1.221-3.517 2.075-3.595.444-.281-2.225.664-6.086-.73-8.064-2.02-3.039-4.778-5.48-6.988-8.37-1.593-1.47-3.913-2.125-5.018-4.112-2.219-3.127-2.724-7.161-2.172-10.883.167-2.11.202-4.867.848-6.902.907-.795.897 1.83 2.903 2.34 2.239 1.772 4.476 2.306 6.404 4.455.989 1.122 2 2.396 2.049 3.96.278 2.844-.954 5.838.325 8.558.768 1.486 2.179 2.497 3.054 3.915.75.891 1.003 2.777 2.547 2.439 1.597-.301 1.414-2.101 1.808-3.303.788-3.531 1.371-7.187.958-10.807-.351-2.617-1.399-5.062-2.449-7.458-.783-2.198-2.267-4.42-1.659-6.85.457-2.101 1.115-4.282 1.73-6.32.103-1.257 1.047-4.261 2.805-3.846 1.487.617 2.764 3.165 3.398 4.457.636 1.585.547 3.552 1.175 5.134.56 2.537-.2 5.098-.445 7.624-.528 2.8-.928 5.68-.46 8.52.222 1.314.281 2.656.358 3.915.726 1.147 2.414.683 2.7-.556 1.366-2.002 2.932-3.886 4.805-5.431 1.054-1.165.78-2.865 1.368-4.22 1.06-1.41 2.4.411 2.399 1.588.198 1.234 1.664 2.144 1.606 3.413-.064 1.34-1.218 2.783-1.085 4.138-.123 1.586-.549 3.382-1.883 4.25-1.598 1.35-3.765 2.746-3.796 4.986-.41 2.144-2.105 3.674-3.117 5.529-.667 1.18-1.97 1.709-2.86 2.64-1.042 1.385-.741 3.215-1.179 4.793-.414 1.182-1.97 1.91-3.058 1.148-.899-.405-1.719-1.097-2.746-1.124z" fill="#00b300" fill-rule="evenodd"/>
 <path d="M66.685 32.276c-.947 0-3.779 6.527-4.63 10.65-.795 3.849-.789 4.346.54 7.024 2.102 4.237 3.752 8.802 3.704 10.341-.023.742-.518 3.624-1.08 6.406-.563 2.783-1.066 5.094-1.08 5.171-.016.077-1.447-1.327-3.165-3.164-3.317-3.546-3.263-3.366-1.852-9.57.35-1.539-.117-2.412-3.165-5.634-3.776-3.993-6.406-5.693-7.872-5.171-.503.18.396 1.119 2.161 2.238 1.68 1.066 3.972 2.95 5.094 4.168 1.983 2.152 2.03 2.296 1.62 7.023l-.385 4.862 2.238 2.084c1.237 1.13 2.458 2.084 2.701 2.084.243 0 1.033 1.402 1.775 3.164 1.184 2.811 1.264 3.697.618 7.1-.405 2.133-.944 3.859-1.235 3.859-.292 0-.54.385-.54.849 0 .514 1.055.854 2.7.926 4.07.177 4.709.408 4.709 1.39 0 .494.323.848.694.848.371 0 .618-1.611.618-3.627 0-3.525.167-3.782 3.087-6.174 2.276-1.866 3.01-2.912 3.01-4.322 0-1.217 1.035-3.148 2.932-5.48 3.584-4.402 5.171-7.41 5.171-9.724 0-1.905-1.571-5.343-3.318-7.332-.605-.688-.958-1.412-.772-1.62.185-.21 0-.464-.463-.618-.47-.157-.847.237-.85.926-.008 2.978-1.521 6.22-4.321 9.184-1.658 1.755-3.22 3.164-3.396 3.164-.177 0-.517-1.664-.772-3.704-.344-2.752-.193-4.045.54-5.171.545-.835 1.21-3.706 1.467-6.329.389-3.977.208-5.303-.926-7.949-1.376-3.208-4.648-7.872-5.557-7.872zm-.463 3.01c1.028-.635 2.366.75 3.936 4.09 1.775 3.777 1.939 10.894.309 14.047-.99 1.913-1.031 2.895-.31 9.107.684 5.878.641 7.175-.153 8.103-.52.608-1.127 1.737-1.39 2.47-.42 1.175-.284 1.119 1.235-.309 1.306-1.227 1.698-1.33 1.698-.54 0 .573-1.232 2.311-2.701 3.936-2.554 2.825-2.672 2.925-2.778 1.312-.272-4.105.188-9.425 1.157-13.583l1.08-4.554-2.778-6.405c-1.517-3.55-2.778-6.889-2.778-7.41 0-1.679 2.765-9.826 3.473-10.264zm-19.603 11.19c-.368 0-.994.62-1.467 1.853-.442 1.154-.52 4.099-.231 7.795.526 6.716 1.18 7.84 7.1 12.348 2.508 1.91 3.984 3.808 5.557 7.023 2.348 4.8 2.281 4.631 2.393 8.258.105 3.445 1.269 3.157 1.62-.386.231-2.331-.25-3.846-2.392-8.103-2.134-4.24-3.39-5.76-6.637-8.258-2.205-1.697-4.44-3.827-5.017-4.708-1.158-1.767-1.663-10.782-.772-13.97.345-1.232.214-1.851-.154-1.851zm34.267 7.641c.544-.007 1.152.752 1.775 2.238 1.408 3.36.883 6.244-1.853 9.57-4.584 5.575-5.222 6.525-5.248 8.181-.018 1.212-.84 2.305-2.855 3.782-3.786 2.775-5.866 3.827-5.866 3.01 0-.363.554-1.059 1.235-1.544.68-.485 2.117-2.114 3.164-3.704 1.52-2.308 1.87-3.642 1.776-6.329-.137-3.854.394-5.083 3.627-8.412 1.274-1.312 2.557-3.325 2.855-4.476.389-1.5.845-2.309 1.39-2.316zM68.692 82.518c.53-.247.849.12.849 1.004 0 1.112-.406 1.389-2.007 1.389-2.217 0-2.72-.961-.849-1.62.65-.23 1.543-.556 2.007-.773z" fill="#5c2700"/>
</svg>
