<?xml version="1.0" encoding="UTF-8"?>
<svg width="128" height="128" xmlns="http://www.w3.org/2000/svg" xmlns:xlink="http://www.w3.org/1999/xlink">
 <defs>
  <radialGradient id="b" cx="14.207" cy="222.04" r="8.252" gradientTransform="scale(1.3952 .71673)" gradientUnits="userSpaceOnUse">
   <stop offset="0"/>
   <stop stop-opacity="0" offset="1"/>
  </radialGradient>
  <filter id="c" x="-.109" y="-.212" width="1.218" height="1.424">
   <feGaussianBlur stdDeviation=".721"/>
  </filter>
 </defs>
 <path transform="matrix(2.4697 0 0 2.4697 11.814 -311.5)" d="M28.402 158.699a7.944 4.08 0 11-15.888 0 7.944 4.08 0 1115.888 0z" fill="url(#b)" fill-rule="evenodd" filter="url(#c)" opacity=".5"/>
 <path d="M85.13 41.96c.488 1.146 1.774 4.754 1.774 6.658 0 2.018-1.708 3.65-2.34 4.913-.155.312.156 2.262 0 2.574-.883 1.767-2.552 2.637-3.275 4.445-.893 2.233-2.102 4.909-3.743 6.55-1.653 1.654-2.687 4.027-3.51 6.084-.62 1.549-1.002 3.775-1.403 5.38-.497 1.989-1.876 1.731-3.51 1.404-1.76-.352-3.268-.468-5.147-.468-1.619 0-2.542 2.078-3.992 1.716-1.379-.345-3.896-2.108-5.132-2.417-1.037-.26-2.716-1.335-3.743-2.106-.957-.717-1.647-2.51-2.106-3.276-1.002-1.67-2.223-4.27-3.042-6.316-.572-1.432-.701-3.28-.701-4.913 0-1.033-.95-2.834-1.404-3.744-1.015-2.03-.234-4.817-.234-7.019 0-2.447.872-3.72 1.404-5.848.494-1.976.995-3.396 1.871-5.148.865-1.73 1.432-4.155 2.34-2.34.298.597.936 2.184 1.17 2.808.706 1.883 2.34 3.55 2.34 5.615 0 1.767.614 3.569 1.403 5.147 1.101 2.203.34 4.657 1.404 6.785.635 1.271.936 3.48.936 4.899 1.964-1.858 2.943-3.104 3.275-4.43.399-1.596.303-3.317.702-4.914.525-2.1.736-4.047 1.638-5.849 1.13-2.26.828-4.75 1.433-7.17.518-2.075 2.626-3.177 4.167-3.948 3.049-1.524 3.056 4.335 3.056 6.673 0 2.058.468 4.71.468 6.785 0 2.222-1.1 3.16-.702 5.147.349 1.743.567 3.644 2.34 1.871 1.41-1.41 2.12-3.305 3.041-5.147 1.156-2.312 3.546-6.022 5.479-7.472 1.142-.856 2.335-2.084 3.743-2.929z" fill="#00b300" fill-rule="evenodd"/>
 <path d="M68.121 35.256c-.66.336-1.457 1.041-2.47 1.929-2.008 1.763-2.882 3.272-4.321 7.872-2.95 9.434-3.447 12.143-2.933 14.432l.463 2.161 1.775-3.704c.978-2.04 1.772-4.246 1.775-4.862.004-.617.58-3.051 1.312-5.403.781-2.505 1.08-4.344.695-4.476-1.769-.604 1.187-5.557 3.319-5.557 2.631 0 3.291 14.874.849 18.909-.562.927-1.496 2.404-2.084 3.318-.589.914-2.298 5.213-3.782 9.493-2.063 5.95-3.007 7.903-4.168 8.412-1.514.665-2.127 2.393-.848 2.393.37 0 .694.502.694 1.08 0 .579.272.831.618.618.345-.214.772-.064 1.003.308.262.424 1.038.3 2.084-.385 1.26-.826 2.6-1.009 5.248-.695 1.934.229 3.578.703 3.704 1.08.326.98 2.137.855 2.238-.154.047-.464.059-2.115 0-3.704-.137-3.739 1.894-8.31 5.403-12.117 1.521-1.65 3.96-5.565 5.402-8.644 2.21-4.718 2.624-6.237 2.624-9.956 0-2.428.318-4.63.695-4.862.377-.233.514-.67.309-1.004-.65-1.051-4.642.092-6.638 1.93-2.338 2.153-6.154 7.74-7.563 11.113-.572 1.369-1.182 2.47-1.39 2.47-.207 0-.16-2.463.078-5.48.262-3.329.116-7.426-.386-10.341-.624-3.623-1.206-5.562-2.084-6.174-.439-.307-.96-.337-1.62 0zm-19.294.385c-.68-.006-3.698 7.572-4.862 12.117-1.698 6.626-1.132 13.767 1.544 18.909.675 1.298 1.615 3.61 2.083 5.093.485 1.534 2.007 3.733 3.55 5.171 3.257 3.034 3.86 3.133 3.86.618 0-1.055.57-3.632 1.311-5.789 1.615-4.693 1.731-7.252.386-13.506-2.579-11.993-6.287-22.596-7.872-22.613zm-.309 2.933c.5-.523.929-.208 1.39.926 1.286 3.169 3.988 13.424 5.17 19.758l1.313 7.1-1.544 5.248-1.62 5.248-1.544-1.235c-.864-.7-2.333-3.248-3.242-5.634-.908-2.385-2.139-5.539-2.7-7.023-1.614-4.257-1.813-9.56-.541-14.123.62-2.226 1.402-4.984 1.698-6.097.597-2.245 1.122-3.644 1.62-4.168zm36.197 4.477c.185-.009.12 2.372-.078 5.248-.429 6.231-2.345 10.867-6.946 16.516-3.409 4.185-5.865 9.037-5.865 11.808 0 1.637-.006 1.692-.849.54-.868-1.187-1.002-1.203-2.007.231-.7 1-1.93 1.64-3.781 1.853-1.523.175-2.779.077-2.779-.232s.975-.681 2.161-.772c2.51-.19 2.88-.43 2.238-1.466-.291-.472-1.299-.518-2.624-.232-2.073.45-2.076.358-.926-.926.65-.724 1.158-1.452 1.158-1.698 0-.245 1.345-2.385 2.933-4.707 1.587-2.323 3.264-5.262 3.781-6.56.518-1.299 1.456-3.163 2.084-4.09.629-.928 1.366-2.342 1.62-3.165.925-2.978 8.372-12.28 9.88-12.348zM69.433 58.177c.251.067.386.517.386 1.39 0 .96-1.222 3.874-2.778 6.482-3.668 6.15-4.337 6.453-2.315 1.08 2.215-5.886 3.955-9.15 4.707-8.952z" fill="#5c2700"/>
</svg>
