<?xml version="1.0" encoding="UTF-8"?>
<svg width="128" height="128" version="1.0" xmlns="http://www.w3.org/2000/svg" xmlns:xlink="http://www.w3.org/1999/xlink">
 <path d="M41.031 27.5c-5.442-.076-12.305 1.38-21.718 6.125A30.62 30.62 0 0016.905 35c-5.325 1.36-9.668 5.204-11.375 10.094l-.062.062c-.075.486-.325 1.387-.469 2a16.14 16.14 0 00-.063 1.594c-1.331 9.09 4.198 14.608 11.094 19.469 7.284 4.89 16.463 8.925 23.344 13.594 4.176 5.31 7.622 11.149 11.656 16.562 3.919 4.912 9.419 9.23 23.063 13.563 6.429 1.355 12.606 1.607 18.312.937l.25.031v-.062c16.378-2.004 28.83-11.583 32.25-24.281a27.845 27.845 0 001.469-5.75c-.213-1.186-.808-2.245-1.563-3.22l-.093-.25-.063.032c-.931-1.147-2.089-2.126-3.187-3v-.563l-.031.063c.016-1.427-.218-2.908-.72-4.469-2.379-5.95-9.084-10.757-17.03-15.437-4.859-2.862-10.203-5.66-15.407-8.125-.051-.025-.105-.038-.156-.063l.375-.75-.25-1.781-11.063-5.156-1.874.468-.594 1.188-.719.031c-3.854-1.445-7.748-2.811-11.5-4.5-5.925-4.296-11.724-8.778-19.219-9.656a28.388 28.388 0 00-2.25-.125zm-.75.656a37.41 37.41 0 013.125.094l.563 1.656a24.798 24.798 0 00-3.75-.343 26.957 26.957 0 00-1.813.03c-1.331.277-3.065.669-4.906 1.095v-.125L31.062 29.5a34.404 34.404 0 019.22-1.344zm3.688.157c4.652.438 8.505 2.74 12.218 5.312l-.906.906c-3.4-2.2-6.906-3.846-10.906-4.562l-.406-1.657zm-13.563 1.406l2.407 1.125c-3.094.737-6.525 1.694-9.75 3.062l-2.032-.531c3.452-1.659 6.565-2.844 9.375-3.656zM42 30c.67.024 1.33.089 1.969.188l-.125 2.5c-2.426-.025-4.823.526-7.25.843-.947.124-1.875.206-2.813.282l-.218-2.657a77.508 77.508 0 014.906-.906A17.601 17.601 0 0142 30zm2.406.281c3.984.722 7.427 2.778 10.813 5.125l-.032 1.313c-3.184-1.597-6.486-3.355-10.03-3.969-.237-.025-.484-.02-.72-.031l-.03-2.438zm-11.406 1l.125 2.594c-1.24.115-2.473.261-3.688.688-1.933.677-3.786 1.827-5.625 2.812l-.03-3.219c3.023-1.283 6.278-2.211 9.218-2.875zm9.344 1.75a13.68 13.68 0 012 .094c.219-.026.411-.03.625 0 3.939 1.325 8.199 2.674 11.687 5 2.418 1.886 3.95 4.422 6 5.469 1.86.33 3.605.898 5.313 1.562l-.406 1.344-2.126.281-1.25 1.938-1.562.187-1.25 1.688-2.094.468L58 52.813l-2.281-.093-1.5 2.593-1.907-.03-1.5 2.312.063 2.375 9.813 6.156 2.624-.563.844-1.812L67 63.031l.656-1.656 2.906-.875.407-1.438 2.75-.812c.008-.568.07-1.09.437-1.344l2.531-.718.72-1.532 2.124-.468.563-1.376 2.062-.374.438-1.344 1.219-.219c.252.086.501.184.75.281 4.358 2.783 9.319 4.244 13.968 6.407 7.77 4.568 15.067 8.625 19.625 16.937.457 5.59-4.217 10.133-8.656 13.469-17.362 10.51-30.218 13.952-44.75 3.844C58.205 85.921 51.06 75.06 47.312 70 44.068 67.92 40.48 66.492 37 64.875c-8.03-4.514-19.51-8.867-23.438-18 1.274-4.908 4.76-6.375 8.876-8.031 2.582-1.26 4.888-2.9 7.125-3.688 1.501-.528 2.907-.701 4.25-.812.954-.08 1.876-.13 2.78-.219 1.89-.554 3.78-1.03 5.75-1.094zm-22.063.688l2.188.437c-3.079 1.366-5.834 3.077-7.657 5.282l-1.562-.563c1.946-2.234 4.463-3.763 7.031-5.156zm36.375.25c1.82 1.274 3.618 2.573 5.469 3.75 1.26.56 2.552 1.076 3.844 1.593L64.5 40.688c-3.272-1.292-5.853-3.842-8.75-5.813l.906-.906zm-33.531.468l.281 3.126c-.407.212-.811.44-1.218.624-2.974.9-5.225 2.208-7.157 4.626l.063-2.594c1.829-2.43 4.758-4.318 8.031-5.782zm-6.688.844c-3.547 2.064-5.402 5.153-6.437 8.907l-4.031.593c1.606-4.53 5.872-8.008 10.468-9.5zm39.25.438c2.784 2.037 5.5 4.107 8.688 5.437v2.5c-.48-.173-.955-.373-1.438-.593-1.833-.936-3.587-3.314-6.062-5.25a14.102 14.102 0 00-1.219-.844l.032-1.25zm-42.75 3.531l1.657.438c-1.422 1.823-2.208 3.977-2 6.5.607 1.71 1.47 3.253 2.5 4.687l-1.719.75c-1.263-1.61-2.272-3.39-2.906-5.375-.26-2.663.815-5.014 2.469-7zm53.563.281c2.144.85 4.307 1.656 6.469 2.469l-.469 1.219a4.779 4.779 0 00-1.031.093c-2.155-.773-4.31-1.557-6.438-2.406l1.469-1.375zm10.938 1.188l9.75 4.562-.72 1.625-1.5-.187-9.593-4.688.25-1.25 1.813-.062zm-62.782.156l-.125 2.656c-.57.95-.951 1.895-1.219 2.75-.064-.167-.128-.33-.187-.5.025-1.828.596-3.458 1.531-4.906zm50.313.531c1.856.77 3.724 1.525 5.594 2.25-.421.376-.41.923-.75 1.344l-1.032.063c-1.295-.427-2.6-.837-3.906-1.25l.063-.032.03-2.375zm8.375.782l1.75.062 9.5 4.719-.969 1.718-1.594-.03-9.031-5 .344-1.47zm-2.438 1.624l1.75.032 9.063 5-.375 1.843-1.813-.406v-.031l-9.25-4.813.625-1.624zM9.97 44.5c-.059.521-.101 1.061-.063 1.625l-.031 3.625c-.177 2.137.712 4.199 2.469 6.25l-4.313.938c-1.66-2.72-2.702-5.875-2.687-9.657.089-.75.272-1.482.5-2.187l4.125-.594zm58.406.938l1.625.187 9.219 4.906-.375 1.719-1.906-.219L68 46.906l.375-1.468zm19.281.187l.219 1.188-.594 1.718-2.219.188L85 47.375l1.75.031.906-1.781zm-44.281 1.063c-1.066-.065-2.199.405-3.531 1.374l.312.25c2.312-1.47 4.184-1.283 6.219.407l.219-.25c-1.14-1.13-2.153-1.717-3.219-1.782zm22.375.28l1.781.25 9.125 4.97-.844 2-2.312.093-8.75-5.187 1-2.125zm-55.281.626c.653 1.568 1.521 3.005 2.531 4.343l-.031 3.938c-1.735-2.144-2.584-4.393-2.438-6.156l-.062-2.125zm74.125.062l.062 1.375-.25 1.313-1.969.187-.28-1.218 1.718-.25.719-1.407zm-48.375.125c-.443.08-.923.628-1.094 1.407l-1.531.937-.094.375 1.656.406.125 1.844c2.402.202 4.576 1.085 7.407 0 1.498-1.242 2.199-2.644 2.03-4.219L42.907 50c-1.525.3-3 .779-4.843.125l-.938-.906c-.058-1.128-.463-1.517-.906-1.438zm52.062.594a194.41 194.41 0 0110.5 5.375l-.937.688a167.073 167.073 0 00-10.688-5.032l1.125-1.031zm-1.25.563l-.312.28c-.114-.048-.23-.082-.344-.124l.656-.157zm-50.906.124c.972.452 1.018 1.644.906 1.626.636.95 1.271.672 1.907.874 1.812.334 3.164-.14 4.312-.968l-.938 1.531c-1.929.129-4.014.544-6.093-.375l-.125-1.656h-1.125c.266.026 1.425-.302 1.156-1.032zM63 49.126l1.5.125 8.594 5.313-.656 1.562-2.188.281-8.313-5.468L63 49.124zm22.188.25c.457.19.908.368 1.374.563v1.718a15.255 15.255 0 00-1.624-.781c-.115-.046-.23-.082-.344-.125l.437-1.344.156-.031zm-3.344.125l.219 1.313-.25 1.218-1.813.157-.281-1.25 1.844.03.28-1.468zm5.219.625c3.59 1.508 7.249 3.165 10.718 4.938l.063 1.843c-3.779-1.34-7.37-2.93-10.813-4.968l.031-1.813zm-81.97.531c.342 2.485 1.283 4.709 2.626 6.719l-.282 1.719c-1.412-2.477-2.25-5.274-2.343-8.438zm10.126.407c2.208 3.005 5.224 5.457 8.531 7.562l-1.344.656c-3.047-1.393-6.267-4.593-8.75-7.343l1.563-.876zm46.312.093l8.438 5.469-.75 1.531-1.969.25-.031-.062-8.531-5.282.874-1.5 1.97-.406zm17.813.032l.281 1.28c.007.751-.097 1.186-.375 1.407-.41.325-1.153.234-1.906.156l-.156-1.406 2.03-.031.126-1.407zm-65.875 1.374c2.407 2.972 5.578 5.414 9 7.532l-.125 2.968c-2.684-1.614-5.278-3.38-7.719-5.406-.476-.43-.886-.892-1.281-1.343l.125-3.75zm63.375.313l.125 1.406c-.444.197-.223 1.108-.656 1.469l-2.25.5-.126-1.406 1.97-.344.937-1.625zm-20.781.313l2.218.156 8.438 5.406-1.031 1.688-2 .312-8.813-5.188 1.188-2.374zm43.156.78c4.223 2.287 8.297 4.83 12.156 7.688l-.813.688c-2.562-2.029-5.534-3.96-8.75-5.782a111.2 111.2 0 00-3.53-1.906l.937-.687zM36 54.657l-.219.344c2.142 2.398 4.49 2.35 6.938.219l-.282-.063c-2.392 1.126-4.5 1.35-6.437-.5zm37.344.563l.281 1.343-.281 1.313-2.313.469-.187-1.438 1.875-.437.625-1.25zm24.969.125c1.109.574 2.19 1.15 3.25 1.75 3.284 1.861 6.268 3.878 8.812 5.968v1.688c-3.873-2.51-7.592-5.27-11.656-7.469-.072-.036-.147-.058-.219-.093l-.188-1.844zm-45.72.375l1.938.093 8.594 5.313-.75 1.813-1.531-.313-8.907-5.125.657-1.781zm-5.093.718c-1.837 3.076-6.052 2.71-9.125 2.22l-.156.218c3.512 1.523 7.897 1.353 9.5-2.406l-.219-.032zm-34.719.063c.428.464.893.91 1.406 1.375 2.421 2.115 5.027 3.965 7.72 5.656l-4.345 2.532c-.105-.061-.206-.127-.312-.188-3.524-2.352-6.829-5.148-9.063-8.688l4.594-.687zm57.594.719l.281 1.406-.531 1.5-2.625.656-.188-1.5 2.282-.781.781-1.281zm-62.344.593c2.289 3.237 5.561 5.933 8.906 8.282.12.08.256.14.375.219l-.28 1.968c-3.832-2.153-6.917-5.205-9.376-8.812l.375-1.657zm43.375.126l8.875 5.218.157 2.188-9.094-5.531.062-1.876zm-27.25.937c3.415 2.13 7.08 3.894 10.5 5.563l-1.437.624c-3.193-1.765-6.794-3.53-10.25-5.593l1.187-.594zm42.813.656l.187 1.438-.656 1.562-2.5.594-.094-1.563 2.219-.656.844-1.375zm-44.094.813c3.373 2.052 6.945 3.785 10.25 5.437l-.031 3.094c-3.46-1.774-6.914-3.554-10.25-5.531l.031-3zm88.813 1.531c4.036 3.129 7.166 6.463 8.53 9.875.23.605.382 1.195.5 1.781l-1.937.313a13.32 13.32 0 00-.625-2.594c-1.311-3.041-3.874-5.908-7.187-8.594v-.062l.719-.719zM63.28 62l.188 1.5-.375 1.688-2.157.062-.093-1.75 2.062-.219.375-1.281zm47.688 1.563c3.005 2.56 5.31 5.22 6.469 7.906.315.775.503 1.54.624 2.281a24.694 24.694 0 00-7.124-8.563l.03-1.624zm-88.531.312c3.313 2.046 6.77 3.869 10.25 5.656l-2.938 3.563c-3.92-2.297-7.867-4.557-11.844-6.844l4.532-2.375zm73.624.031l-.062.219c5.702 1.138 9.882 3.424 10.25 9.625l.125.188c.623-7.398-4.578-8.536-10.313-10.032zm-10.75.125c-3.062.03-5.85 1.139-6.656 4.219.582 3.195 3.777 4.045 6.656 4.188 2.189.024 4.158-.454 5.97-1.626L86 67.782l6 .468c-.582-3.195-3.808-4.076-6.688-4.219zm.188.281c2.485.09 5.116 1.383 6.031 3.844l-7-.781 5.75 3.313c-1.323.942-3.318 1.006-4.969 1.124-2.612-.113-5.51-.947-6.218-3.656.52-2.846 3.941-3.597 6.406-3.844zm-50.469.313c.543.265 1.1.552 1.625.813 3.232 1.635 6.609 3.011 9.719 4.874l-1.563.75c-2.853-2.116-6.418-3.382-9.656-4.906-.458-.272-.984-.54-1.468-.812v-.063l1.343-.656zm-1.375 1.438c.37.185.764.378 1.125.562 3.374 1.666 6.877 2.94 9.75 5.094L44.25 75c-3.48-2.177-7.131-4.065-10.781-5.938l.031-.03.156-2.97zm-16 .5c3.73 2.439 7.888 4.677 11.969 6.906l-.063 2.156c-4.128-2.315-8.314-4.636-12.062-7.031l.156-2.031zm57.844.78l-.313.032c-2.573 2.71-1.887 5.87 1.594 6.594l.188-.219c-2.68-.557-3.556-4.209-1.469-6.406zm-42.531 2.313c3.73 1.915 7.452 3.81 11.062 5.906l-3.406 4.126c-.023-.041-.04-.085-.063-.126a744.767 744.767 0 00-10.624-6.374l3.03-3.532zm63.093.438c-2.397.029-3.94.829-4.78 2.969 1.026 3.543 5.207 3.224 8.093 2.156 2.29-1.61 1.35-3.375-.656-4.625L95.78 73.03l.281-2.937zm-.25.312l-.25 3.344 3.157-2.813c1.852 1.036 2.131 3.021.187 3.782-2.422 1.142-6.487 1.182-7.031-2 .433-1.74 2.33-2.084 3.938-2.313zM46.72 70.5c.032.02.061.043.093.063 2.343 3.166 4.522 6.388 6.813 9.53l-1.5.657c-1.231-1.83-2.4-3.674-3.563-5.5-.858-1.557-1.985-2.776-3.28-3.813l1.437-.937zM45 72.094a14.568 14.568 0 013.063 3.344 113.257 113.257 0 003.687 5.843l-.125 2.906c-1.858-2.784-3.217-5.576-5.594-8.03-.47-.315-.93-.636-1.406-.938L45 72.094zM29.75 73.53c3.76 2.054 7.441 4.11 10.625 6.281l.125.22-.438 2.218c-.123-.178-.251-.353-.374-.531-2.918-1.99-6.288-3.947-9.72-5.875l-.218-2.313zm91.063.75c.07.54.086 1.085.124 1.625-.15 4.744-3.619 8.785-7.406 12.031l-1.031-1.156c3.98-3.244 6.778-7.366 6.344-12.344l1.969-.156zM44.374 75.75c.386.226.774.456 1.156.688 2.338 2.673 4.027 5.884 5.938 8.874.02.033.043.062.062.094l-4.093 4.906c-2.428-3.26-4.61-6.72-6.594-10.28l.031-.157 3.5-4.125zm77.094.906c1.08.743 2.11 1.695 2.906 2.781l-2.875.72-.031-3.5zm-22.594 2.031c-4.112 2.563-8.248 2.767-12.5.626l-.25.093c4.72 3.463 8.813 1.778 13.25-.562l-.5-.156zm22.156.126l-.187 3.218c-.462 3.226-2.665 6.665-6.969 10.188l-.063-3.344c3.48-2.77 6.247-6.13 7.22-10.063zm3.594 1c.68 1.007 1.172 2.08 1.344 3.093-.853 4.95-2.878 9.462-5.813 13.375L114 92.937c4.583-3.68 6.981-7.315 7.5-10.937v-1.656l3.125-.531zm-83.906.593c2.255 3.882 4.344 7.26 6.437 10.219l.063 1.938c-2.341-3.379-4.69-6.747-7.032-10.126l.532-2.03zm13.218.094c2.688 3.662 5.513 7.205 8.876 10.375l-1.657 1.063c-3.314-3.22-6.145-6.968-8.75-10.813l1.532-.625zm-1.812 1.313c2.608 3.814 5.469 7.412 8.75 10.687l-.031 3.625c-3.431-3.218-6.369-7.08-8.782-11.25-.003-.005-.027.005-.03 0v-.031l.093-3.031zm-.563 3.624c2.617 4.304 5.632 8.102 9.094 11.22l-3.062 4.406c-3.841-3.097-7.156-6.722-10.094-10.657l4.063-4.969zm60.532 1.657l1.062 1.156a58.937 58.937 0 01-2.062 1.656c-2.774 1.88-5.622 3.625-8.5 5.125l-1.531-1.5c3.073-1.468 6.083-3.156 9-4.969.699-.467 1.38-.957 2.03-1.468zm1.312 2.094l.188 3.28c-.624.5-1.29.999-2 1.5-3.023 2.139-5.903 3.907-8.656 5.376l-.063-3.813c3.086-1.586 6.12-3.37 9.031-5.25.514-.356 1.01-.715 1.5-1.094zm10.844 1.062c-.946 2.45-2.23 4.743-3.75 6.875l-.125-.469c1.55-2 2.875-4.14 3.875-6.406zm-76.938.594c3.09 4.334 6.246 7.783 10.157 10.75l.125 2.562c-2.725-1.828-4.69-3.693-6.282-5.687-1.295-1.87-2.61-3.724-3.906-5.594v-.031l-.093-2zm15.75.25c.348.323.704.653 1.063.969 4.142 3.29 8.428 5.17 12.781 5.968l-1.875 1.75c-3.634-.919-7.249-2.58-10.812-5.125a40.274 40.274 0 01-2.656-2.312l1.5-1.25zM61.376 93a60.172 60.172 0 002.125 2c3.648 2.892 7.413 4.694 11.219 5.656l-.094 3.438c-5.063-1.388-9.49-4.06-13.313-7.531L61.376 93zm52.375.125l6.219 3.375c-2.842 3.722-6.514 6.91-10.813 9.344l-5.781-5.969c2.725-1.474 5.558-3.241 8.531-5.344.657-.464 1.258-.943 1.844-1.406zm-13.188.656l1.594 1.469c-3.779 1.935-7.616 3.47-11.5 4.406l-.812-2.094c3.612-.82 7.206-2.137 10.719-3.78zm1.813 2v3.875c-4.086 2.129-7.888 3.57-11.406 4.438l-.031-.125-.157-3.656c3.93-1.014 7.803-2.616 11.594-4.532zm17.781 1.188l.063.531c-2.838 3.859-6.53 7.154-10.906 9.688l-.094-1.032c4.346-2.437 8.06-5.56 10.937-9.187zM61.094 97c3.92 3.433 8.375 5.998 13.468 7.5l-1 4.969c-6.131-1.806-11.32-4.691-15.812-8.281L61.094 97zm28.125.719L90 99.813c-4.77 1.065-9.59 1.199-14.375.093l2.063-1.781c3.82.589 7.692.401 11.53-.406zm13.562 2.469l6.125 5.78c-4.841 2.697-10.445 4.455-16.531 5.094l-1.25-6.25c3.613-.919 7.495-2.425 11.656-4.624zm-12.625.28l.094 3.782c-2.548.58-4.956.87-7.219.906a30.365 30.365 0 01-7.937-.937l.094-.344-.063-3.125c4.978 1.179 10.028.93 15.031-.281zm-32.406 1.313c4.129 3.08 9.12 5.651 15.719 8.094v.031l.062 1.406c-7.194-2.34-12.129-4.632-15.719-7l-.062-2.53zM75 104.656a37.212 37.212 0 007.813 1.313 35.533 35.533 0 007.624-.969l1.657 6.094c-5.29.524-10.927.222-16.719-1.125-.556-.14-1.115-.28-1.656-.438L75 104.656zm34 1.625l-.063 1.094c-4.78 2.701-10.318 4.51-16.312 5.25l-.188-1.125c6.075-.708 11.702-2.53 16.563-5.219zm-35.344 3.688c.442.162.856.307 1.313.469H75l.031.03c5.913 1.376 11.695 1.664 17.125 1.063l.125 1.156c-5.657.657-11.7.35-17.906-1.093-.195-.062-.37-.126-.563-.188l-.156-1.437z" fill="#5c2700" fill-rule="evenodd"/>
</svg>
