<svg xmlns="http://www.w3.org/2000/svg" xmlns:xlink="http://www.w3.org/1999/xlink" width="128" height="128" version="1.0"><defs><linearGradient xlink:href="#a" id="l" gradientUnits="userSpaceOnUse" x1="89.225" y1="71.248" x2="87.146" y2="67.884" gradientTransform="translate(15.166 -6.91)"/><linearGradient id="c"><stop offset="0" stop-color="#573711"/><stop offset="1" stop-color="#8b571c"/></linearGradient><linearGradient id="a"><stop offset="0" stop-color="#c7a94c"/><stop offset="1" stop-color="#e2ca80"/></linearGradient><linearGradient xlink:href="#a" id="e" x1="33.903" y1="79.914" x2="62.616" y2="53.449" gradientUnits="userSpaceOnUse"/><linearGradient xlink:href="#a" id="f" x1="91.589" y1="96" x2="82.422" y2="47.395" gradientUnits="userSpaceOnUse"/><linearGradient xlink:href="#a" id="g" x1="84.211" y1="86.965" x2="87.88" y2="87.148" gradientUnits="userSpaceOnUse"/><linearGradient xlink:href="#a" id="h" x1="89.225" y1="72.807" x2="90.082" y2="95.251" gradientUnits="userSpaceOnUse"/><linearGradient xlink:href="#a" id="i" x1="83.416" y1="70.392" x2="86.535" y2="67.151" gradientUnits="userSpaceOnUse"/><linearGradient xlink:href="#a" id="j" x1="89.225" y1="71.248" x2="87.146" y2="67.884" gradientUnits="userSpaceOnUse"/><linearGradient xlink:href="#a" id="k" gradientUnits="userSpaceOnUse" x1="89.225" y1="72.807" x2="90.082" y2="95.251" gradientTransform="translate(15.411 -6.91)"/><linearGradient id="b"><stop offset="0" stop-color="#1e0c00"/><stop offset="1" stop-color="#4f1f00"/></linearGradient><linearGradient xlink:href="#a" id="m" gradientUnits="userSpaceOnUse" x1="83.416" y1="70.392" x2="86.535" y2="67.151" gradientTransform="translate(15.289 -6.85)"/><linearGradient xlink:href="#a" id="n" gradientUnits="userSpaceOnUse" x1="84.211" y1="86.965" x2="87.88" y2="87.148" gradientTransform="translate(15.289 -7.033)"/><linearGradient xlink:href="#a" id="o" x1="93.323" y1="83.846" x2="92.161" y2="86.414" gradientUnits="userSpaceOnUse"/><linearGradient xlink:href="#a" id="p" x1="91.733" y1="97.178" x2="97.42" y2="83.173" gradientUnits="userSpaceOnUse"/><linearGradient xlink:href="#b" id="q" x1="97.909" y1="88.8" x2="93.017" y2="96.322" gradientUnits="userSpaceOnUse"/><linearGradient xlink:href="#c" id="r" x1="59.574" y1="42.617" x2="66.91" y2="33.557" gradientUnits="userSpaceOnUse"/><linearGradient xlink:href="#c" id="s" x1="71.904" y1="49.997" x2="73.893" y2="36.12" gradientUnits="userSpaceOnUse"/><filter id="d"><feGaussianBlur stdDeviation="1.078"/></filter><filter id="t"><feGaussianBlur stdDeviation=".219"/></filter></defs><metadata/><g fill-rule="evenodd"><path d="M102.125 95.5l-3.375-1.375-10.5 4.125-1.375 4.125-6-1.75-13.625-17-6.875 23-57.5-37.5 38.125-21 63.625 44.625-2.5 2.75z" filter="url(#d)" fill-opacity=".562"/><path d="M9.773 68.151l44.886-29.146 3.633 2.25V48l7.438 2.076 1.73 3.719-4.757 54.573-10.725-8.044-24.302-18.508L9.773 68.151z" fill="url(#e)"/><path d="M62.53 108.454l20.065-8.908 43.33-19.287-39.957-37.016-1.47 3.287-8.909.173-4.757 5.967-3.546.952-4.756 54.832z" fill="url(#f)"/><path d="M9.773 68.151l44.886-29.146 3.633 2.25V48l7.438 2.076 1.73 3.719-4.757 54.573-10.725-8.044-24.302-18.508L9.773 68.151z" fill-opacity=".157"/><path d="M82.804 99.318l.673-28.498 2.935 1.468.245 30.088-3.853-3.058z" fill="url(#g)"/><path d="M86.657 102.315l-.184-29.905 3.609-.979 1.223 28.805-4.648 2.079z" fill="url(#h)"/><path d="M83.416 70.759l3.119-3.608-.184 5.137-2.935-1.53z" fill="url(#i)"/><path d="M86.412 72.471l3.608-1.04-3.485-4.586-.123 5.626z" fill="url(#j)"/><path d="M102.068 95.404l-.183-29.905 3.608-.978 1.223 28.804-4.648 2.08z" fill="url(#k)"/><path d="M101.579 65.56l3.608-1.04-3.486-4.586-.122 5.627z" fill="url(#l)"/><path d="M98.704 63.91l3.12-3.609-.184 5.137-2.936-1.529z" fill="url(#m)"/><path d="M98.521 85.191l.245-21.404 2.935 1.468.428 30.333c-.612-.39-1.197-1.025-1.657-1.415l-.002-7.425-1.949-1.557z" fill="url(#n)"/><path d="M90.57 81.583l4.587 1.468-4.403 5.87-.183-7.338z" fill="url(#o)"/><path d="M91.182 98.095l-.244-9.173 4.097-6.238 5.32 4.036-.244 7.461-8.929 3.914z" fill="url(#p)"/><path d="M92.283 97.484v-7.278l2.874-4.036 3.547 1.835.123 6.604-6.544 2.875z" fill="url(#q)"/><path d="M82.804 99.318l.673-28.498 2.935 1.468.245 30.088-3.853-3.058z" fill-opacity=".157"/><path d="M83.416 70.759l3.119-3.608-.184 5.137-2.935-1.53zM98.704 63.91l3.12-3.609-.184 5.137-2.936-1.529z" fill-opacity=".157"/><path d="M98.521 85.191l.245-21.404 2.935 1.468.428 30.333c-.612-.39-1.197-1.025-1.657-1.415l-.002-7.425-1.949-1.557zM90.57 81.583l4.587 1.468-4.403 5.87-.183-7.338z" fill-opacity=".157"/><path d="M55.685 39.258l13.877-10.341-1.812 24.616s-.928-.751-.928-.928c0-.177-.84-2.298-.84-2.298L58.16 48.23l.044-6.718-2.52-2.254z" fill="url(#r)"/><path d="M69.694 29.138L85.118 44.34l-.972 2.166-8.84.353-4.551 5.657-3.182 1.017 2.121-24.395z" fill="url(#s)"/><path d="M55.685 39.258l13.877-10.341-1.812 24.616s-.928-.751-.928-.928c0-.177-.84-2.298-.84-2.298L58.16 48.23l.044-6.718-2.52-2.254z" fill-opacity=".157"/><path d="M84.757 44.368l-1.99.95-7.091 1.298-5.622 4.584-1.816 1.47-2.076-2.248-7.524-3.46-.433-5.276-1.556-2.767-1.211.605 2.594 1.99.087 6.572 7.697 2.076 1.47 3.287 2.336-.52.951-.432 4.93-5.88 8.302.086.952-2.335z" filter="url(#t)" fill-opacity=".607"/></g><path d="M69.695 28.269L55.632 39.206l-1-.437L9.32 68.019l53.312 40.719L82.82 99.8l3.875 3.031 4.937-2.406-.093-2.062 8.562-4 1.938 1.75 4.593-2.375-.187-4.375 20-8.875L85.82 43.144l-.906.625-15.22-15.5zm.219 1.594l14.78 14.78-.75 1.376-8.718.5-4.531 5.687-2.469.5 1.688-22.843zm-1 .187l-1.407 22.813h-.03l-1.376-2.75-7.375-2.344-.344-6.406-2.468-1.938 13-9.375zm-14.188 9.125l3.188 2.219-.125 6.562-3.625 5.188c-1.54.246-3.067.588-4.594.906L44.1 57.331l-3.906-.5v.157l3.406.656-1.344 3.844 1.72-3.75.187.03 5.468-3.405c1.424-.293 2.976-.39 4.407-.657l2.343 7.563c-1.568 1.452-2.13 3.5-2.75 5.469.009.063.022.125.032.187l-5.75 6.5-3.47 1.344 3.688-1.094 5.688-6.062c.324 1.356.903 2.638 1.406 3.937.054.066.089.099.094.125.019-.02.044-.036.125-.062-.599-1.471-1.206-3.318-1.531-4.844.584-1.863 2.033-3.691 2.687-5.531l-2.312-7.625 4.187-4.938 7.469 1.781.844 3.97.03-.032-4.437 52.531-1.843-2-.625-5.594.062 4.938-2.719-2.969-.843-.344-2.032-5.625 1.032-3.062-1.282 3.062 1.907 5.47-6.657-2.845 7.844 3.594 4.563 6.125-51.375-39.687 44.312-28.813zm.688 53.094l.25-.625-.032-.063-.218.688zm4.5 7.062v-.187l-.032-.094.032.281zM44.444 74.77l-.437.125-.062.062.5-.187zM85.82 43.83l39.062 36.344-18.468 8.313-.75-24-3.875-4.813-3.22 4.063-.25 21.218-3.343-2.5-4.281-1.156-.375-10.031-3.75-4.813-3.375 4.25-.719 28.5-19.187 8.657 2-2.844.843-5.156 5.5-2.125 6.938 1.53-4.969-1.28 2.219-3.25-.094-.032-2.406 3.188-1.844-.469-5.281 2 .812-5.062 2.97-5.532-.095-.03-3.093 5.53-1.688 10.47-2.281 2.687 4.875-53.438 3.312-1.406 4.438-5.563 8.187-.062 3.344 4.031-.062 8.031 1.187 1.97-.75-2.126v-7.437l8.344 4.28.125-.187-8.438-4.468-.03.03v-.28l-2.907-4.188 1.375-2.844zm2.281 17.22l.094.28.031-.062-.125-.219zm13.875-.438l3.034 3.91-3.315.965.281-4.875zm-.531.406l.156 4.469-2.656-1.5 2.5-2.97zm-2.49 3.091l2.786 1.511.24 29.64-1.286-1.148-.094-7.47L98.79 85.3l.165-21.19zm6.267.429l.91 28.73-3.906 2-.312-29.774 3.308-.956zm-18.558 2.886l3.093 4-3.25.938 3.375-.75 1.25 28.312-4.327 1.977-.298-29.54-.062-.03.219-4.907zm-.313.313l-.031 4.53-2.75-1.468 2.781-3.062zm-2.75 3.25l2.81 1.432.117 29.546-3.49-2.572.563-28.406zm7.125 10.906l3.719 1.281-3.406 5.313-.313-6.594zm4.438 1.23l5.093 3.739-.156 6.687-1.187.531-.032-6.093-3.75-2-2.937 4.218.031 6.97-.812.468-.344-8.719 4.094-5.8zm.029 3.128l3.502 1.954.033 6.006-6.254 2.864-.039-6.859 2.758-3.965z" fill-rule="evenodd"/></svg>