<?xml version="1.0" encoding="UTF-8"?>
<svg width="128" height="128" version="1.0" xmlns="http://www.w3.org/2000/svg" xmlns:xlink="http://www.w3.org/1999/xlink">
 <path d="M66.063 27.75L52 38.688l-1-.438L5.687 67.5 59 108.219l20.188-8.938 3.874 3.031L88 99.906l-.094-2.062 8.563-4 1.937 1.75L103 93.219l-.188-4.375 20-8.875-40.624-37.344-.907.625-15.219-15.5zm.218 1.594l14.781 14.781-.75 1.375-8.718.5-4.531 5.688-2.47.5 1.688-22.844zm-1 .187l-1.406 22.813h-.031l-1.375-2.75-7.375-2.344-.344-6.406-2.469-1.938 13-9.375zm-14.187 9.125l3.187 2.219-.125 6.563-3.625 5.187c-1.539.246-3.067.588-4.593.906l-5.47 3.282-3.906-.5v.156l3.407.656-1.344 3.844 1.719-3.75.187.031L46 53.844c1.424-.293 2.975-.39 4.406-.657l2.344 7.563c-1.569 1.452-2.13 3.5-2.75 5.469.009.063.021.125.031.187l-5.75 6.5-3.468 1.344 3.687-1.094 5.688-6.062c.324 1.356.903 2.638 1.406 3.937.053.066.088.099.093.125.02-.02.045-.036.126-.062-.6-1.471-1.206-3.318-1.532-4.844.585-1.863 2.033-3.691 2.688-5.531l-2.313-7.625 4.188-4.938 7.468 1.782.844 3.968.032-.031-4.438 52.531-1.844-2-.625-5.594.063 4.938-2.719-2.969-.844-.344-2.031-5.624 1.031-3.063-1.281 3.063 1.906 5.468-6.656-2.844 7.844 3.594 4.562 6.125L6.781 67.47l44.313-28.813zm.687 53.094l.25-.625-.031-.063-.219.688zm4.5 7.063v-.188l-.031-.094.031.281zM40.813 74.25l-.438.125-.063.063.5-.188zm41.374-30.938l39.063 36.344-18.469 8.313-.75-24-3.875-4.813-3.219 4.063-.25 21.218-3.343-2.5-4.281-1.156-.376-10.031-3.75-4.813-3.374 4.25-.72 28.5-19.187 8.657 2-2.844.844-5.156 5.5-2.125 6.938 1.531-4.97-1.281 2.22-3.25-.094-.031-2.406 3.187-1.844-.469-5.281 2 .812-5.062 2.969-5.531-.094-.032-3.094 5.531-1.687 10.47-2.282 2.687 4.876-53.438 3.312-1.406 4.438-5.563L80 46.5l3.344 4.031-.063 8.032 1.188 1.968-.75-2.125V50.97l8.344 4.281.124-.188-8.437-4.468-.031.031v-.281l-2.906-4.188 1.374-2.843zm2.282 17.22l.094.28.03-.062-.124-.219zm13.875-.438l3.033 3.91-3.314.965.28-4.875zm-.531.406l.156 4.469-2.656-1.5 2.5-2.969zm-2.491 3.092l2.787 1.51.24 29.64-1.287-1.148-.093-7.469-1.813-1.344.166-21.19zm6.268.428l.91 28.73-3.906 2-.313-29.774 3.309-.956zm-18.559 2.886l3.094 4-3.25.938 3.375-.75 1.25 28.312-4.328 1.977-.297-29.54-.063-.03.22-4.907zm-.312.313l-.031 4.531-2.75-1.469 2.78-3.062zm-2.75 3.25l2.81 1.432.117 29.546-3.49-2.572.563-28.406zm7.125 10.906l3.719 1.281-3.407 5.313-.312-6.594zm4.437 1.23l5.094 3.739-.156 6.687-1.188.531-.031-6.093-3.75-2-2.938 4.219.032 6.968-.813.469-.344-8.719 4.094-5.8zm.03 3.128l3.501 1.954.034 6.006-6.254 2.864-.04-6.859 2.758-3.965z" fill="#5c2700" fill-rule="evenodd"/>
</svg>
