<?xml version="1.0" encoding="UTF-8"?>
<svg width="128" height="128" version="1.0" xmlns="http://www.w3.org/2000/svg" xmlns:xlink="http://www.w3.org/1999/xlink">
 <path d="M100.5 21.094l-1.75.375-.031.968-.625.032-1.25-.594-2 .438-.188 3.03L67 39.407h-3.406l-5.688-5.718-8.718-2.813-8.563-6.219-9.188.125-2.656.938 32.532 24.5-3.25 6.343 1.78 1.22 9.063-2.876L82.75 67.781l2.375-.906-1.469-9.406-2.25-6.75 14.25-4.688c3.436 2.566 7.861 3.299 11.906 2.719l12.626 15.656 2.5-1.406-.438-9.063-7.094-8.312c.404-.325.784-.662 1.125-1.031l-.312-5.563c.002-1.394.153-4.155.312-5.875l-2.906-4.218c-1.985-.77-3.221-2.149-5-3.25a4.067 4.067 0 00-.656-.344c-1.246-.486-2.681-.846-4-1.25l-3.219-3zm-.188.5c.158.118 1.391 1.33 2.782 2.406l-.969.438-2.938-2.563 1.126-.281zm-1.28.593l2.437 2.22L98.688 23l.374-.469-.03-.343zm-2.188.125l4.625 2.813-1.281.469-4.782-3.032 1.438-.25zm-1.813.282l4.938 3.625.312 3.968-2.875 2.344-.5 4.75 1.281 3.063-1.406 2.25.219.062 1.375-1.687 2.469 1.375-.031 3.156.124-.125.407-2.625h1.594l.062-.063-1.563-.5-2.718-1.78-1.25-3.094.375-3.72 1.812 3.282 3.719.813.063-.126-3.5-.78-1.75-4-.282.124 2.875-2.312 8.531 4.062-2.03.875-.157 12.688c-3.678.767-7.39-.423-10.688-2.438l.407-19.531-1.906-1.063c.024-.878.07-1.714.093-2.593zm-26.719.906l-6.651 6.721-.067 3.31c1.52.954 3.686 2.003 5.277 2.536.16.054.351-.538.624-.486.32.06.503.416.616.446.044-.187.038-1.187.339-1.16.183.017.414.91.465.837 1.42-2.031 3.264-4.77 4.804-6.892l-.094-3.372-5.313-1.94zm.157.375l4.5 1.625-5.25 6.625-1.344-.5.063-.031-.626-2.688 3.094-2.093 1.688-.063v-.063l-1.62-.204-.849-2.014-.015.067.578 2.058-3.22 1.968.344 2.844-3.656-1.375 5.652-5.582.66-.574zm35.031.25c.93.728 2.359 1.13 3.563 1.469l-1.25.687-3.344-1.625c.293-.341.806-.477 1.031-.531zM39.906 25l-2.156.75H29.5l1.969-.594L39.906 25zm62.563.063l2.844 1.343 5.406 3.532 2.687 4.312.938 3.688-.844-.594-2.063-4.25-8.562-4.125-.438-3.625.188-.063-.156-.218zm-61.938.062l8.469 6-2.156.969-8.75-6.032 2.437-.937zm61.313.438L102.25 29l-1.625.75-.219-3.688 1.438-.5zm-6.75.062l1.25.75L67.156 41.75l-1.937-1.063 29.875-15.062zm-21.781.188v3c-1.559 2.128-3.042 4.374-4.532 6.562.114-.9-.025-1.949.125-2.75L70.687 32l.626-3.156-.126-.063-.718 2.844-1.844.813c-.253.418-.35.938-.375 1.468l-.125-1.593 5.188-6.5zm34.468 0c.167.067.317.163.469.25 1.068 1.153 3.186 2.067 4.594 3.062l-1.813.531-4.875-3.156 1.625-.688zm-70.375.5l9 6-.375 2.968-.781.969 1.156-.563 3.344 2.438.125-.125-3.344-2.625.625-2.75 7.782 2.781 5.906 5.657 3.718.218-3.093 8.5L30.78 26.375l6.625-.063zm59.094.406l-.719 18.968-14.469 4.688-1.03-3.063-8.407-6.187-3.063 1.094.094 12.25-8.187 2.687 3.062-5.062 1.907-.157 1.874 1.626-.53.906h.062l.937-.938-1.969-1.812 1.907-2.657-.75-1.312h-.188l.469 1.156-1.938 2.5-1.406.063 1.5-2.469 1.719-6.844L96.5 26.72zm16.75 2.656l2.188 3.688-1.75.624-2.25-3.593 1.812-.719zm-10.75.125l8.188 3.813-1.594.562-8.156-3.688 1.562-.687zm-40.438 1.125l3.344 1.156-.812.625v.032l-1.375.374-.125.063 1.656-.063.625 1.626 1.594 1.03-5.031-2.187.124-2.656zm-12.718.719L57.03 34l-2.218.875-7.5-2.563 2.03-.968zm16.531.593l1.938.657.25 2.906-2.313-1.375-.656-1.625v-.125l.781-.438zm45.188 1.532l1.656 4-1.906.687-.907-3.125.156-.062-.28-.25-.5-.563 1.78-.687zm4.562.187l-.25 5-.844-.593-.625-3.688 1.719-.719zm-57.906.657l5.406 5.124-2.188 1.063-5.437-5.188 2.219-1zm51.562.937l3.188 8.063-2.25.75-2.625-8.22 1.687-.593zm-92.562.813l-4.841 2.61-.135 3.572 15.459 6.827 6.5-3.64-.358-3.713-16.625-5.657zm.156.343l15.844 5.344-4.282 2.438-1.468-.844.562-2.75-2.906-.657-.48.255c-.399-.346-2.265-1.007-3.145-1.317l-.25-.063c1.251.857 1.634.767 2.938 1.407l-2.907.843-.062.063 3.718-.875 2.608.625-.764 2.781 1.532.875-.97.563-12.374-5.532 1.187-.218v-.094l1.906-.188-.062-.187-1.781-.188.125-1.187-.25-.125-.094 1.375-2.031.375-.875-.406 4.281-2.313zm91.031.782l1.813 7.124 6.312 7.657 3.156 3.468.407 7.563-11.813-14.938.125-10.874zm5.094.562l1.5.938-3.063-.47L113 37.75zm-1.844.781l4.406 1.032c.085 1.754.19 3.771.25 4.78-.373.282-.73.534-1.093.782l-1.844-2.156-1.719-4.438zM12.125 39l1.094.469.625 1.656v-.063l.062-1.28 12.75 5.687.157 3.062-14.717-6.464.029-3.067zm54.125.781l-1.406.719-.125.344-3.094-.094 2.031-.906 2.594-.063zm-1.156 1.157l1.719 1.03-1.5 6.75-1.626 2.75-1.937-1.093 3.344-9.438zm6.719.593l7.78 5.813-2.218.781-8.031-5.75 2.469-.844zm-38.626.407l.376 3.218-6.22 3.469-.187-3.375.907-.5.593 1.125-.656 1-.063.125 1.157-.813.75.126-.063-.126-.656-.437-.469-1.313 4.532-2.5zm36 .968l8.094 5.563 3.313 9.968c-.699.032-1.527.054-2.188 0L78 55.782l-.094-.031-.375-3-.125-.031.125 2.875-2.562-1-.156.062 2.656 1.438c.144.678.24 1.482.406 2.187l-1 1.375.063.219 1.25-1.031c.701.446 1.736.283 2.593.281l1.438 7.594L69.53 54.625l-.344-11.719zm43.594.532l8.688 10.5-2.156.78-2.938-3.124-5.781-7.094 2.187-1.063zm-32.875 4.406l3.469 9.781-2.375.813-3.25-9.938 2.156-.656zm-39.062.468c-.953.007-1.894.055-2.844.094l.125 2.625c-.474.283-1.098.247-1.625.407l-.031-.532-1.907-1.781c-1.455.755-3.01 1.051-4.906 3.156l.188 2.469c-.805 2.871-.56 6.08-.375 9.031.431.916 1.23 1.537 2.031 2.125L31 81.72l-10.031-4.906-2.75.937c-.687.487-1.442.713-2.063 1.125l-6.312-4.688-4.094-.656-2.5 1.063 28.281 29.719 2.907-1 .812-2.47.781-.687c.465-.418 2.39-1.075 3.5-1.25l.563 2.719 4.875 7 1.687 1.156c.125.136.244.275.375.406 2.247-.746 4.24-1.906 5.657-3.437l-.063-1.406L119.938 80.5l-2.282-1.438-11.75-1.343L91.97 72.78 77.75 80.437l-6.75-2-19.031 4.157-.469.531-.906-17.406c.682-.549 1.061-1.097 1.406-1.844l.031-1.031-.5-3.5-2.312-2.813-.219-.218-1.188-1.157-.937-1.906-2-.281-.406-1.125h.031l-1.031-2.219c-.548-.351-1.847-1-2.625-1.313zm.187.407L43 49.75l.594 1.469-1.813-1.282-.75-1.218zm-1 .031c.23-.007.477-.002.719 0l.531 1.031a6.71 6.71 0 00-1.718.219l-.657-1.125c.398-.08.766-.114 1.125-.125zm-1.718.188l.843 1.25.282 1.874-.97-1.218-.156-1.907zm-3.876.687l1.188 1.125c-1.428.397-2.42.776-3.406 2.188l-1.657-.907c1.033-1.29 2.214-1.746 3.875-2.406zm7 .688c.129.002.25.022.376.03l2.062 1.47.031.03-1.343.626-1.344-1.188.062.125 1.063 1.625 1.875-.656.468 1.469c-1.422-.388-2.96-.462-4.5-.282-2.369.393-4.886 1.154-6.593 2.938l-1.094-.688-.063-.25-.093-2c.877-1.443 2.238-1.963 3.781-2.406l.219 2.032c.716.023 1.517.043 3.406-.563l-.219-2.094c.621-.203 1.266-.189 1.907-.218zm20.22.312l1.78 1.094L60 57.375l-1.531-1.031 3.187-5.719zm-23.407.719l.813 1.156c-.735.293-1.356.565-2.282.469l-.031-1.219c.635.023.96-.077 1.5-.406zm-8.156 1.125l1.875.906.062 1.938c-.566-.116-1.096-.167-1.812-.657l-.125-2.187zm14.937.968l1.594.126.688 1.53-2.532-.343.532-.5-.282-.813zm-3.562.532c1.138-.02 2.234.082 3.25.343l-.5.688 3.156.563c.482.368.928.809 1.344 1.343.018.299-.104.402-.282.594l-.78-1.531c-2.033.984-4.12 1.865-6.594 1.875l-.282 2.875c-1.107-.007-1.85.093-3.062-.375L37.469 58c-1.536-.28-2.76-.683-3.5-1.156 1.666-1.681 4.007-2.427 6.281-2.813.419-.03.811-.055 1.219-.062zm80.281.062l.594 8.719-2.156 1.188-.782-8.907 2.344-1zm-91.5 1.282l1.781.406.125.25-1.843.468-.282 1.282c-.1-.672-.007-1.733.219-2.407zm2.344 1.03c.707.86 1.887 1.4 4 1.844l-1.5.75c-1.523-.504-3.044.02-4.219-2l1.719-.593zm14.906.094l.688 1.907c-2.192.622-3.838 1.383-6.157 1.312l-.437-1.437c1.894-.175 3.787-.667 5.906-1.782zm1.75 1.032l1.719 1.875c-.486.621-1.142 1.134-1.782 1.593l-.28-2.374-.25-.563c.337-.147.47-.216.593-.531zm-18.781.187c1.065 1.44 2.9 1.353 4.5 1.938l-.063 2.156L33.97 63l-1.375.219.125.218 1.375.126 1 2 .187-.094-.843-2.25.906-.844c1.137.34 2.466.575 5.906.688l1.063 1.718 1.656-.375 3.781 1.5-.031-.125-3.063-1.687 2-1.438 1.532 1.032.03-.094-1.187-1.219-.625-1.25-.25-.031.563 1.25c-.804.435-1.729.97-2.532 1.5l-.124-.063-1.407.438-.75-1.5v-.032L42 60.376c2.46.058 4.334-.894 6.531-1.5l.407 2.844c.926-.601 1.666-1.06 2.25-1.813l.468 3.219c-.003.088-.022.17-.031.281-2.271 3.675-6.81 4.605-10.75 4.657-3.85-.199-8.33-.912-10.719-4.344-.17-2.14-.81-4.33-.375-5.907l.438 1.063.25-1.219zM83.187 58l1.594 8.688-1.937.687-1.688-8.469L83.187 58zm-42 .406l.47 1.594-.188 2.344-.344-1.688.063-2.25zm-3.968.063l.062 1.843-1.875 1.126.094-1.813 1.719-1.156zm.406 2.218c1.28.487 2.1.427 3.219.438l.25 1.406c-1.92.084-3.654-.04-5.407-.75l1.938-1.093zm-5.5 5.5c2.707 1.56 5.556 2.175 8.625 2.313 3.26.02 6.421-.354 9.188-2.188.857 6.903 1.862 33.222 2.28 40.188-1.703 1.283-3.335 2.194-4.906 2.844l.532-2.719-.125-.094.562-3.094 2.532-3.093-.188-.125-2.188 2.312-1.468-4.781-.032.125L48 102.906l.094-.031-.25.281-.563 2.969-4.531-3.938-2.219-6.374.094.062 6-4.594c.243-.995-.57-2.753-.5-4 1.367-1.782 2.413-3.739 3.469-5.719L47.875 76l-.094-.063 1.563 5.688c-.893 1.655-2.295 3.033-3.25 4.656l.031-2.75-2.563-1.281.626-3.563-.032-.03-.968 3.374-2.72-.469.094.157 2.5.781-.062.156 2.906 1.031c-.082 1.02-.228 2.27-.218 3.376-.482 1.264.195 2.605.562 3.843l-6.188 4.438-4.562-.313.344-3.875 2.125-2.281 3.156-1.125-.125-.219-3.25 1.156-1.594 1.563.25-2.875 1.688-.313v-.03l-1.938.062L35.5 91l-.906 3.625-3.125-2 2.125-2.313-1.188-2.218-.187.031 1.031 2.063-2.219 1.906c.247-10.145.662-21.605 1.094-25.906zm59.781 6.907l1.469 1.187L79.5 82.156 78 80.844l13.906-7.75zm.406.031l13.532 4.906.687.969-12.75-4.906-1.469-.969zm-86.28.75l3.374.469-2.062 1-3.438-.75 2.125-.719zm87.78.5l12.626 4.938-2.938 1.78-.313.563L99.22 81l.031.094 3.531 1.219-1.562 2.78-4.281 2.563.156.125 4.344-2.344 2.406-3.968 3.062-1.969.344.125 5.156.375c.282-.087.656.574.938.594l.594-.344 1.25.969.25-1 3.593.25-66.437 24.406-.938-18.594.063.031 2.187-1.843 18.438-4.25 6.906 2.437.5 2.719-1.844 3.125.094.031 2.344-2.906 2.25.594.062-.031-2.375-.876-.5-2.812 14.031-8.125zm-83.968.188l6 4.562c-.444.327-.842.689-1.156 1.188l-6.938-4.75 2.094-1zM4 74.813l3.125.874 7.344 5.063.437 3.688 2.344 1.03.063-.093-1.907-1.156-.469-3.719c.812-1.084 2.306-1.777 3.376-2.469 4.182 2.419 8.249 4.383 12.593 6.469l-.281 8.875 4.063 5.969L32.78 101l-2.187-2.188h-.438l.188-.156-1.063-2.844.032.188.53 2.781-2.093-.031-.156.031 2.718.469 2.063 2.344-.563 1.844L4 74.811zm16.813 2.374L31 82.376l-.063 1.594c-4.275-1.773-7.776-4.067-11.906-6.031l1.782-.75zm85.312.813l11.406 1.313 1.531.75-3.937-.282-.094 1-1.094-1.094-.5.657-.874-.75-5.5-.375-.938-1.219zm-35.188.75l1.032 1.125-18.25 4.219-1.75-1.031 18.968-4.313zm.532.094l6.156 1.937 1.125 1.031-6.188-1.843-1.093-1.125zM51.813 83.28l1.562.938-1.75 1.531-.094-1.969.282-.5zm-20.75 9.438l3.312 2.344 2.813 3.28-2.188.813c-1.279-1.93-3.193-4.508-4.25-6.125l.313-.312zm3.812 2.469l3.969.5.562 2.656c-.89-.044-1.44.39-2.218.844l.843-.75-3.156-3.25zm4.688.562l.343.031 2.219 6.375-1.563-.625-1-5.781zm59.812 3.188c-.416.253-.36 1.484-.844 1.718-.476.232-.933.176-1.344.625-.328.36-1.202-.01-1.53.313l-10.664 10.748.288 7.22 6.344 2.72 1.031-.97.656 1 1.032-.343.625 1.75 3.251 1.1c3.368-5.334 7.438-10.494 10.968-15.913l-.344-6.594-7.313-2.78-.719.562-1.437-1.156zm-62.531.093L35 100.687l-2.031.688 2.25-1.875 1.625-.469zm62.75.5l.937.781-.437 1.313.062.031-1.25 1.063.156.031 1.657-.75 1.844 1.188.062-.063-2.063-1.594.72-1.469-.126.032c.066-.137.135-.234.25-.188l6.781 2.406-10.968 13.876-3.875-1.344 2.531-.938.844-3.281 3.594-1.188 1.874-2-.124-.187-1.907 1.781-3 .813 1.094-1.438-1.969 1.688.094.031-.844 3.313-2.969.874-1.812-2.812.969-2.5-.188-.125-.906 1.813-1.688-.407-1 1.219.188.219.75-.813 1.438.438-.126.219 1.626 2.75-6.032-2.126 9.969-9.968 1.125-.313-.5 1.813.188-.063.906-1.937 1.406-1 .719-1.188zm-64.75 1.625l-.625 1.875-2.157.75.782-1.875 2-.75zm6 .875l1.656.719 4.844 4.25-.407 2.75-1.593-1.125-4.5-6.594zm67.625.781l.469 6.126c-3.229 5.327-7.256 9.811-10.75 14.937l-.47-7.156-.062-.031 10.813-13.876zm-23 9.75l6.719 2.344.03.063-.624 1.656-1.406.063-1.75-2.407-.126.219 1.188 2.25-1.281 1.5.062.063 1.563-1.126 1.781-.062 2.063 1.469-1.188 2.312-.656.781-5.844-2.5-.531-6.624zm7.187 2.532l4.594 1.594.469 7.593c-.812-.346-2.154-.934-2.813-1.281l-.375-1.813-1.094.657-.218-.5.062.031 1-2.531 1.688-.75-.031-.125-1.97.25-2.093-1.281.781-1.844z" fill="#5c2700" fill-rule="evenodd"/>
</svg>
