<?xml version="1.0" encoding="UTF-8"?>
<svg width="128" height="128" version="1.0" xmlns="http://www.w3.org/2000/svg" xmlns:xlink="http://www.w3.org/1999/xlink">
 <path d="M38.094 16.938v2.343C37.088 23.32 36.832 28.525 38 31.72l-.031 6.625c-.728 1.963-1.095 4.304-.063 6.093v2.438l-10.375-4.5-.125 1.688-1.343-.72.718 2.22-2.718-.844 1.312 1.531 11.844 5.563-.125 5.437.937-.063V58.5l1.813.469.75 3.375.281-8.813 27.688 13.032c-2.726 2.446-5.503 4.867-8.438 7.187l-6.719-3.125c-2.26.259-4.92 1.213-7.781 2.75l-1.156-.875 2.281-2.188.469-.78-.5-1.407c-2.415 1.24-4.703 2.641-6.907 4.156l-12.53-5.75V64.47c1.543.6 3.116 1.104 4.718.969-2.126-1.03-3.486-2.358-4.719-3.75V58.25l-2.218-.875 1.562-.281-.406-.625 1.031-.125v-.813c1.625.831 3.273 1.583 5.438 1.157-1.803-1.048-3.701-2.165-5.438-3.407v-4.468c-.167.067-.417.506-.594.343-.326-.3-.599-1.325-.906-1.156-.22.12.06 1.285-.156 1.813-.123.298-.713-.329-.844-.25l-.313.53c-.003.351.003.544 0 .876-.254 1.11-.76 2.251-.125 3.25.186 1.246.095 2.853.094 4.218-.39.044-.864 3.665-.062 4.876-.012.618-.014 1.157-.032 1.843L21.813 64l-1.03.531.405 1.25-4.156-.062-.906.469 7.906 3.968.032 2.875 1-.312.312.844h.781l.75 1.218.188-3.125 8.093 4.063c-5.185 4.131-9.956 8.814-14.75 13.437.22.534 1.189.318 1.47.656-.005.456.219 1.014.28 1.407l-3.53 1.75.03.125 3.25.094-1.03 1.343 2.124-.25-3.812 2.781c2.781-.138 5.57-.156 8.375-.124 10.659 6.06 17.404 6.656 23.937 5.78a42.541 42.541 0 002.782-.468c5.49-1.11 11.713-3.256 19.593-4.813a98.463 98.463 0 006.719-.937c7.17-5.114 13.397-11.17 19.438-17.563-.087-.99-.254-1.793-.5-2.812.6-.735.959-.733 1.218-1.375.012-.29-.89-.578-.937-.906-.192-1.122-.18-1.783-.125-2.188l.187-.25 2.781 1.156.188-1.406H103l-.875-1.937c.264-.161.56-.409.781-.688.68-.11 1.606.417 2.281.281.517-.133.707-1.161 1.094-1.468 1.032.06 1.8.42 2.563-.125l7.656-15.844-.406-2.313-.125-.75h-.031c-1.67-8.563-3.008-13.717-13.438-19.406-.832.303-1.627.64-2.406 1l-1.344-1.062 1.625-2.125-.969-.344-.344-1.281-3.843 5 1.312.031.313.781.719-.625.562.625a26.898 26.898 0 00-3.469 2.313l-1.844-1.532.563-.593-.063-.782-.874-.78-.094.218c-3.135 2.431-5.456 3.947-7.25 6.781l-7.063-3.187c-.195-.07-.95 2.913-1.062 2.843L77 33.75l-.594.406-.062-1.593-3.813-1.72-2 .095.844 1-1.594-.344.188 1-1.344-.157-1.781.594 20.281 9.688-5 12.218c-3.105 2.34-5.99 4.835-8.844 7.376l-18.187-7.938L54 55.938l-.313-2.157-.78 1.219-.313-1.719-11.625-5.062.031-2.563c2.138 1.013 4.275 1.998 6.688.813-2.61-1.28-4.648-2.963-6.594-4.875l.062-4.407-.5-.624.188-.75-.625-.47 1-.53.031-.938c1.21.801 2.455 1.437 3.813 1.281-2.003-2.224-2.862-4.084-3.75-5.937l.03-1.282c1.972 1.177 3.857 2.527 6.438 2.282-3.271-1.908-5.02-3.82-6.375-5.782l.032-2.562-1.063-4.125-.688 1.531-.25-1.468-.562 1.25-.781-2.125zm.187.906l.344 1.75.531-.625.532 1.062.562-1.687 1 3.937c-.014.636-.019 1.26-.031 1.875-1.019-1.52-1.84-3.062-2.938-4.687v-1.625zm12.094 1.593L50 23.063l5 13.532.781-3.063 1.125 1.688.719-4.157-3.031-6.53-1.875 3.874.593-5.156L52 22.812l-1.625-3.375zm-12.094.594c2.311 3.494 4.096 7.279 8.5 9.688-1.738.884-4.911-2.201-7.062-2.969 1.2 2.279 2.778 6.454 4.843 8.156-2.738-.273-4.694-2.266-6.28-3.343-.6-2.139-1.488-8.25 0-11.532zm12.407.219l.78 2.781 1.407.407-.219 4.78-2.218-5.062.25-2.906zm3.718 4.906l2.969 6.25-.656 2.844-1.125-2.344L55 35.5l-2.188-7 1.594-3.344zM99 25.563l.156.906 1 .375-1.937 2.281 1.344 1.031c-.372.181-.735.368-1.094.563l-.938-.782-.562.563-.25-.75-.813.125L99 25.562zm-58.594 1.843c.242.13.482.267.719.407-.006.319-.026.642-.031.968-.222-.457-.433-.907-.688-1.375zm62.032 2c.414.22.799.43 1.187.657-7.7 4.534-11.695 9.129-14.188 13.468L88.094 42c1.821-3.053 3.398-5.337 5.344-7.219h.03c.006-.005-.004-.026 0-.031 2.21-2.128 4.898-3.74 8.97-5.344zm-9.938.625l.438.407.03.656-.562.593 1.875 1.813c-.309.252-.61.516-.906.781l-2.281-1.5-1.688 2.094 1.719 1.688c-.391.445-.792.9-1.156 1.374-.124-.112-.546-.368-2.188-1.218l-2.375 2.687-.219-.906-.812.25c1.817-3.97 4.329-5.77 8.125-8.719zm11.375.188c.707.422 1.378.868 2 1.312-4.676 3.634-8.72 5.903-15.375 13.219l-.969-1.094c2.468-4.295 6.637-8.929 14.344-13.437zm-31.313.812l3.72 1.75-.126 1.75.625-.437.156 2.812 1.157-3.281 6.812 3.219c-.38.635-.756 1.331-1.094 2.125l.344.218c.025-.058.069-.098.094-.156l.75-.062.469.937 1.594-2.031 2.218 1.031a29.894 29.894 0 00-1.969 3.188L67.75 32.969l1.063-.282 1.343.063-.219-.938 1.876.532-.97-1.219 1.72-.094zm33.438.594a24.56 24.56 0 012.188 1.781c-6.083 4.145-11.22 8.631-16.032 13.219l-1.594-1.813c6.518-7.142 10.734-9.54 15.438-13.187zm-67.625.313c.889.513 1.749 1.152 2.625 1.75-.009.34-.024.63-.031 1-.004.206-1.027.414-1.032.624-.003.182.63.316.626.5-.006.27-.214.505-.22.782l.563.562-.093 4.157c-.798-.796-1.594-1.64-2.407-2.5l-.031-6.876zm52.719 1.25l2 1.343a26.733 26.733 0 00-1.688 1.688l-1.562-1.532 1.25-1.5zm17.156.28c.623.575 1.2 1.15 1.719 1.75-9.005 7.257-17.497 14.67-25.906 22.032l-1.126-.281.47.875C69.953 69.623 56.69 81.289 41.936 92.156c-.892-.16-1.777-.328-2.656-.5L60.25 74.187l.219.094c8.047-6.269 13.551-12.62 22.031-18.875h.031c.005-.003-.005-.027 0-.031 3.235-2.384 6.187-5.28 10.594-7.625l-.906-1.031c4.796-4.573 10.002-9.144 16.031-13.25zm1.781 1.813c.531.62 1.006 1.263 1.438 1.907-6.07 4.949-11.962 9.898-17.75 14.843l-.313-1.156L92.625 53c-1.947 1.666-3.88 3.306-5.813 4.969l-2.624-.688c8.384-7.373 16.859-14.76 25.843-22zM87.75 37l1.938 1.313c-.054.072-.104.145-.157.218l-2.219-1L87.75 37zm23.781.313c.301.455.588.909.844 1.374A1661.35 1661.35 0 0194.5 54.657l-.719-2.47c5.801-4.96 11.675-9.919 17.75-14.874zm.938 1.5c.358.663.659 1.35.937 2.03A1320.547 1320.547 0 0195.22 57.188l-.688-2.374a1751.736 1751.736 0 0017.938-16zm-74.281.312c2.596 2.398 5.136 5.625 8.562 7.031-2.26 1.468-6.266-1.055-8.563-1.875-.905-1.774-.916-3.531 0-5.156zM72 39.969L48.187 42.75l3.438 1.719-1.156.656 1.687.531-2.968 1.969 19.374-3.031-1.25-1.063 4-.687-2.5-.532L72 39.97zm-1 .468l-2.906 2 1.562.344-2.937.782 1.219.843-16.876 2.563 2.063-1.532-1.969-.28 1.688-.938-3.157-1.157L71 40.438zm42.469.532c.22.549.418 1.098.594 1.656a1051.905 1051.905 0 01-16.407 15.344l-2.344-.438-.062-.218a1301.774 1301.774 0 0018.219-16.344zM87.844 42.78l4.25 4.969c-3.562 1.811-6.074 4.314-9.094 6.531l4.844-11.5zm26.281.063c.207.68.38 1.373.531 2.062a672.357 672.357 0 01-13.969 13.625L97.844 58c5.475-4.995 10.92-10.036 16.281-15.156zm-86.438.062L52.47 53.688l.312 1.687.688-.375.562 1.906.75-1.906.969.125 17.188 7.5A1477.444 1477.444 0 0069 66.156L25.844 45.937l-.844-.78 2.781 1.03-1.156-1.687 1.188-.125-.125-1.469zm10.782 1.688c.768.253 1.526.61 2.281.968l-.063 2.532-2.218-.969v-2.531zm76.25.468c.117.553.193 1.1.281 1.657a774.843 774.843 0 01-12.375 12.156l-1.781-.313c4.716-4.404 9.36-8.897 13.875-13.5zm.312 1.813c.085.551.127 1.104.188 1.656a589.744 589.744 0 01-10 10.813l-2.375-.438a856.329 856.329 0 0012.187-12.031zm-89.187 1.5c.178-.145.572 1.16.75 1.094l.343-.25.032 3.843a25.239 25.239 0 01-2.25-1.843c.014-.219.015-.4.031-.625l.219-.688.781.157.094-1.688zm89.406.406c.014.136.05.27.063.407a67.467 67.467 0 01-1.907 3.624c-1.18 1.5-5.442 6.845-11.531 13.782l-.344-3.219c.777-.795 1.57-1.578 2.344-2.375l3-1.344-1.469-.281c3.34-3.503 6.617-7.03 9.844-10.594zm.594.719l.25 1.969c-2.526 5.429-4.627 10.409-7.656 15.218-.46.347-1.643.258-2.22.313-.474.206-.78 1.103-1.187 1.406-.755-.432-1.332-.328-2.156-.187 4.461-5.206 8.701-10.997 12.969-18.719zM24.5 51.531c2.18 1.765 4.608 3.71 7.375 4.969-1.838.174-5.51-1.668-7.406-2.531-.618-.945-.025-1.648.031-2.438zm13.313.563l2.812 1.312-.125 7.813-.563-2.782-1.624-.406-.094-1.187-.782.125.376-4.875zm55.593 0l.344 1.312-2.625 6.875c-.072-.057-.143-.666-.219-1.031l2.5-7.156zm-.906 1.218l-1.719 4.626c-.318.276-.65.535-.969.812L87 58.031c1.828-1.575 3.66-3.141 5.5-4.718zm1.313.407l.624 2.437-2.03 1.938 1.406-4.375zm18.874.281c-2.968 5.041-6.527 9.759-10.593 14.438l-.188-1.563c5.447-6.2 9.075-10.725 10.781-12.875zm-88.124.313c.834.282 1.623.659 2.406 1.062v.719l-1.032.312.313.594-1.625.344 2.375.968v3.032c-.809-.935-1.597-1.875-2.5-2.782-.01-1.389.017-2.821.063-4.25zm69.906 2.03l.406 1.594.219.938-3.438 3c-.477-.404-.936-.84-1.406-1.281l1.219.406.844-2.656 2.156-2zM83.78 57.626l6.875 1.75c-.053.383-.056.883-.187.844l-6.406-2.063-.282-.531zm-.344.313l1.094 2c-12.87 11.088-25.573 22.092-39.219 32.78-1.03-.155-2.055-.353-3.062-.53 14.703-10.847 27.852-22.52 41.188-34.25zm11.938.093l10.406 1.844-1.281.469-8.906-1.625-.219-.688zm-4.688.157l-.28.718-.407-.093c.23-.207.458-.417.688-.626zm-6.343.437l5.094 1.688c1.294 1.306 2.8 2.402 4.374 3.28h.032a21.39 21.39 0 001.562.813c.17 1.812.993 2.171 2.656 1.438l.188-.375c.826.206 1.611.312 2.375.344l.469 1.874c-4.358 1.014-10.724-3.607-15.125-6.062l-1.625-3zm10.75.313l.781.156-.25 2.718-1.813 1.626a17.12 17.12 0 01-2.062-1.5l3.344-2.97v-.03zM24.438 59c2.149 2.17 4.168 4.818 6.75 6.125-2.518-.32-4.749-1.274-6.782-2.188-.553-1.355.044-2.739.032-3.937zm71.812.188l2.344.468-.469 5.5c-.155.25-.3.47-.469.625-1.132.452-1.348.03-1.812-1l.406-5.594zm2.656.53l1.656.344-1.937 2 .281-2.343zm-14.312.344l1.187 2.22C73.756 72.727 61.56 83.041 49.312 93.218a103.469 103.469 0 01-3.78-.469c13.596-10.657 26.253-21.642 39.062-32.688zm16.094.032l1.843.375-.937.937-.813.313.031.187-.187.5-2.313 2.375.313-2.5 2.063-2.187zm2 .406l.937.188-1.719.624.781-.812zm.75.688l-1.938 2-.125-1.094 2.063-.907zM95.624 62l-.219 2.281a12.898 12.898 0 01-1.469-.781l1.688-1.5zm-9.375.125c.957.445 2.01 1.072 3.094 1.75L87.5 65.531l-.094-.812.156-.188-1.312-2.406zm-.406.313l1.062 2c-11.145 9.72-22.432 19.37-33.812 29.124a90.893 90.893 0 01-3.532-.312C61.794 83.087 73.9 72.83 85.844 62.437zm15.031.03l.719 6.47-1.063-5.282.344-1.187zm-.375.282l-.313.875.407 1.844c-.829-.055-1.6-.171-2.313-.313v-.125l.031-.031 2.188-2.25zm-75.906.656c.796.288 1.618.613 2.437.938v2.062l-2.406-1.125c-.012-.73-.019-1.21-.031-1.875zm64.844.532c.736.461 1.477.933 2.25 1.406l-5.563 4.937-2.938-.125 4.407-3.594-.094-.874 1.938-1.75zM22 64.344l17.5 8.125c-1.396.97-2.731 2.009-4.063 3.062l-18.874-9.437.53-.25 4.5.187-.687-1.312L22 64.344zm64.625.5L82 70.344l1.813.125A2243.682 2243.682 0 0157.186 93.78c-1.33-.03-2.634-.133-3.906-.219 11.212-9.61 22.344-19.134 33.344-28.718zm.406.312l.188 1.25-4.5 3.719h-.094l4.406-4.969zm4.781.25c.776.472 1.55.941 2.344 1.344l-1.625 1.688-.406-.063.75-1.844-6.094 3.781h-.312l5.344-4.906zm2.5 1.406c.462.23.944.44 1.407.626L93.688 69.5l-1.032-.25.656-.688-.562-.093 1.563-1.656zm-2.187.5l-.219 1.126.813.312-.75.438 1.281.468-3.094 2.906-.875-2.156-2.062-.094 4.906-3zm3.75.188c.867.335 1.712.562 2.563.656L96 70.844l-1.438-1.219-3.28 5.719-.907-2.219 5.5-5.625zm5.219.438l.219.75-1.594 1.843h-.031L97.03 71.72 96.187 71l2.626-2.813c.775.047 1.54-.003 2.28-.25zm-54.719.843l.563.813-.313.469-2.719 2.437 1.219 1.156c-.594.33-1.204.685-1.813 1.063l-2.343-1.125-3.782 2.906 2 1.094c-.574.437-1.172.872-1.75 1.344l-1.843-1.063-3.063 2.719 1.844 1.031a73.668 73.668 0 00-1.875 1.781l-1.813-.937-2.843 2.625 1.843 1.25c-.36.397-.706.81-1.062 1.219l-2.156-1.094-3.563 2.625 1.407 1.219-1.407.593c-.436-.326-.485-.799-.656-1.281-.289-.394-.765-.312-.906-.625 7.824-6.78 14.575-14.627 25.031-20.219zm54.969.063l.094.344 1.28 1.75-2.75-.376 1.376-1.718zm-6.625 1.344l2.25 1.874c-.04.044-.085.082-.125.126-6.137 6.686-13.412 13.334-19.719 19.75-1.926.375-3.792.686-5.594.937 6.384-6.053 12.723-12.128 18.938-18.281l.812 1.969 3.438-6.376zm-70.219.187l2.344 1.156-.063 2.75-.468-1h-.72l-.468-.812-.719.219.094-2.313zm59.469.094l3.469.25c-8.63 7.669-17.43 15.27-26.25 23.031a86.417 86.417 0 01-3.844.031A2593.486 2593.486 0 0083.969 70.47zm3.562.25l1.375.094.344.812C81.446 78.937 73.598 86.139 65.781 93.5c-1.42.11-2.806.21-4.156.25 8.78-7.771 17.356-15.246 25.906-23.031zm12.188.156l2.719.219.062 1.187-2.969-1.312.188-.094zm-46.375.25l.531.219c-9.44 5.212-16.653 11.699-23.219 18.531-.877-.185-1.743-.384-2.625-.563 5.957-6.935 13.252-14.944 25.313-18.187zm45.875 0l.406.156c-.095.108-.187.206-.281.313-.359.404-.707.794-1.063 1.187l-.844-.719 1.782-.937zm-7.313.219l-1.594 1.625-.03-.094 1.624-1.531zM54 71.406l3.313 1.469c-7.918 5.656-15.866 11.518-22.282 17.906-1.302-.274-2.608-.538-3.906-.812C37.58 83.265 44.734 76.52 54 71.406zm35.313.406l1.093 2.594a1125.915 1125.915 0 01-19.094 18.5c-1.755.24-3.444.428-5.093.563 7.725-7.274 15.416-14.423 23.094-21.656zm10.093.22c.052.616.026 1.376.094 1.843.043.295.82.594.813.781-.174.459-1.027.936-1.188 1.406.344.808.228 1.423.188 2.22-4.844 5.515-10.94 11.169-19.032 17.437-21.685 4.74-43.195-.783-59.406.719l2.906-2.282-1.812-.062 1.187-1.719-3.718.469c2.509-1.03 5.095-1.865 7.5-3.156 14.752 4.35 29.115 5.251 43.937 3.812 3.204-.311 6.433-.731 9.688-1.25 6.74-8.068 12.185-12.743 18.843-20.219zm-2.281.156l.969.812c-5.916 6.51-11.515 11.657-17.875 18.313-.972.217-1.904.408-2.844.593 6.656-6.405 13.325-12.733 19.594-19.531.056-.06.101-.128.156-.188zm-39.656.75l2.593 1.156-21.124 17.5c-1.198-.236-2.381-.502-3.563-.75C41.735 84.542 49.514 78.657 57.438 73l.03-.063zm-16.532 1.03l2 .97c-1.144.726-2.294 1.554-3.468 2.437l-1.782-.938 3.25-2.468zm-5.374 4.282l1.593.938a68.08 68.08 0 00-2.531 2.187L33 80.531l2.563-2.281zm-4.782 4.594l1.469.812a77.11 77.11 0 00-2.313 2.406l-1.718-1.124 2.562-2.094zm71.531 2.937l-1.156.406.188 8.532c-.731.274-1.345-.277-2-.531-1.531-.605-3.063-.682-4.594-.626 2.527.262 4.951.652 6.594 1.782 3.795 2.61 6.123 3.216 10.312 5.125 1.697.715 3.613 1.24 4.688 2.5-.398-.936-1.53-1.606-2.875-2.188l.5-13.875-1.438.563-2.719 1.75-2.156-2.281-1.562.656-1.281 1.375-2.5-3.188zm-.062.188l2.438 3.156-.47.531-2.906-3.312.938-.375zm-75.906 1l1.968.937c-.327.38-.646.767-.968 1.156l-2.625 1.094-1-1.156 2.625-2.031zm81.031.219l2.125 2.218-.5.344-2.656-1.969 1.031-.594zm6.344.03l-.5 13.47a41.2 41.2 0 00-.938-.376l.25-12.437 1.188-.656zm-12 .407l2.125 2.719-.031 6-1.75-.844-.344-7.875zm4.406.594l1.438 1.094-.157 8.78L104 96.438l.094-5.78.25.312 1.781-2.75zm5.719.312l-.094 11.656-1.688-.812.157-9.781 1.625-1.063zm-4.125.906l1.25.97 1.062-.688-.281 9.5-2.156-1.031.125-8.75zm-78.781 7.5c.663.013 1.334.045 2 .063l.343 1.156c-.758-.383-1.54-.775-2.343-1.219zm2.187.063c1.206.034 2.414.076 3.625.125l.875 3a53.98 53.98 0 01-4.125-1.844L31.125 97zm3.875.156c1.096.046 2.181.072 3.281.125l.907 4.094a38.699 38.699 0 01-3.22-1.094L35 97.156zm3.469.156c1.054.052 2.129.102 3.187.157l1.063 4.75a31.004 31.004 0 01-3.219-.75l-1.031-4.156zm3.437.157c1.192.061 2.396.127 3.594.187l.938 4.938a27.28 27.28 0 01-3.5-.344l-1.032-4.781zm3.938.187c1.073.054 2.14.109 3.218.156l.782 4.657c-1.026.09-2.058.147-3.125.125l-.875-4.938zm23.437.156c-.958.225-1.89.456-2.781.688l-.281-.531c1.017-.041 2.04-.09 3.062-.156zm-20 .032c1.294.056 2.574.083 3.875.125.043 1.31.646 2.572 1.032 3.844a37.01 37.01 0 01-2.782.5c-.436.058-.873.082-1.312.124l-.813-4.593zm4.032.125c1.37.043 2.745.074 4.124.094l.563 2.812a70.38 70.38 0 01-3.531.875c-.355-1.15-.915-2.75-1.157-3.781zm12.718 0l.313.562c-1.274.334-2.434.67-3.594 1a22.226 22.226 0 01-.469-1.469c1.245-.016 2.498-.044 3.75-.093zm-8.375.094c1.423.018 2.849.015 4.282 0 .148.55.4 1.02.624 1.53-1.518.433-2.996.84-4.374 1.22l-.532-2.75zm-31.906 3.53L8.437 111.75l2.72.188-.97 1.53 2.657-.218-.031 1.469c6.176-2.707 6.897-3.963 13.968-5.031l-.437-1.094 1.5-1.875-1.657-.531.72-1.75-3.25 1.437 2.093-4.281zm-.906 1l-2.188 4.126L26.22 105l-.938 1.75 2 .188-1.375 1.687-.187.625c-5.275 1.092-7.832 2.792-12.5 4.813l.5-1.344-3.031.469 1.562-1.657-2.469.031 15.063-8.968z" fill="#5c2700" fill-rule="evenodd"/>
</svg>
