<?xml version="1.0" encoding="UTF-8"?>
<svg width="128" height="128" version="1.0" xmlns="http://www.w3.org/2000/svg" xmlns:xlink="http://www.w3.org/1999/xlink">
 <path d="M59.875 16.719c-1.238.008-2.285.978-3.375 1.875l-1.25 9.656c.336 1.347.604 2.698.813 4.063l-17.876-3.376-9 4.063 4.47 7.219 8.03 1.5-3.5 1.781-5.437 7.438 10.688 3.5L56.5 48.343c-.072 2.665.348 5.473.25 8.093l-.688 16.313c-1.48 6.083-1.705 12.167-.187 18.25l.188 3.688c.011-3.772-4.05-2.582-5.188-1.876-1.032 1.613-2.092 6.09-3.281 8.97-1.958 2.05-1.355 5.356 1.468 6.718 2.655-.04 4.853-1.336 7-2.75 1.299.745 2.63 1.307 4.126.969 2.118 1.736-.41.879 2.312 1.187 2.407-.047 4.113-1.99 6.438-2.25 1.851.442 2.589-.304 2.874-2.125-1.673-3.636.455-3.707-3-4.844-.681-3.145-3.877-2.526-6.624-2.312 1.867-8.965 1.177-21.647.312-31.75.335-4.035.114-7.798.969-12.094-.054-1.76.019-3.68.093-5.656L82 52.188l8.813-6.282-7.313-8.031-5.125-1.219 6.344-2.812 6.844-8.688-13.407-3.25c-5.395 3.32-9.271 6.718-15.187 9l-.657-12.937c-.896-.919-1.694-1.255-2.437-1.25zm-.688 1.187c.652-.005 1.341.435 2.126 1.157l.062 13.312c.016.072.018.146.031.219l-.062-.032c-1.5 1.7-1.342 5.305-.782 13.47l1.688.5c-.003 2.286.406 4.714.406 6.906-.08 3.107-.87 7.678-1.156 11.312 1.702 11.568 1.231 22.775.125 33.875-2.258 1.17-3.105 3.693-2 7.313-1.084.47-1.86-.197-2.875-1.407l.125-13.156c-1.609-6.209-1.196-12.416.188-18.625l.124-17.969c-.048-2.308.04-4.561.126-6.812l1.718-.813c1.243-5.085.723-13.058-.968-13.687l-.782.406c-.14-1.55-.35-3.129-.656-4.75l.875-9.656c.452-1.105 1.036-1.557 1.688-1.563zm1.938 1.532c-1.06.417-2.16 1.225-3.063.062l-.187.375c1.053 2.394 1.93.866 3 .188l.25-.625zm-2.594 2.906l-.281.062-.844 6.094.313 3.375h.187l.032-3.031.593-6.5zm19.719.031l9.156 2.063-8.969-1.563c-5.403 4.408-9.769 6.857-15.187 9.344l.406.75c5.272-2.445 10.071-5.81 14.688-9.313l10.531 1.094 1.906.438-6.375 8.28-6.875 2.97L63.25 33.03a32.108 32.108 0 00-.219-1.156c6.005-2.187 9.85-6.003 15.219-9.5zm4.125 4.594l-1.031 2.812-3-.812-.719 2.343c-.594-1.39-1.792-2.33-2.688-3.093-1.197 1.122-1.133 3.194-1.312 4.781l.094.094c.088-1.188 1.203-2.352 1.5-3.5l2.844 2.812 1-2.375 2.5.25 1.25-2.062 1 .343.156-.093-1.594-1.5zM38.531 29.5l17.688 3.844c.043.33.058.669.093 1l-.53.281.093-.438c-5.793-1.905-11.8-2.673-17.688-4.062L38 30.25c3.006.963 6.118 1.657 9.188 2.406l8.406 2.063-13.157 6.656-8.156-1.594-4.187-6.468L38.53 29.5zm22.875 3.781l21.375 4.907 7.531 7.562-8.406 6-20.781-6.156c-.052-4-1.286-7.15.281-12.313zm-22.125.532c-1.048.874-1.622 2.216-2.25 3.406L35.125 35h-.281L37 38.469 39.406 35l1.25 2.719c.68-1.047 1.356-1.58 2.25-2.438 1.134.416 2.154 1.593 3.188 2.25l.156-.062c-1.183-.858-1.96-2.404-3.313-2.969-.889.32-1.44 1.116-2.03 1.813-.204-1.534-.783-1.881-1.626-2.5zm22.219.374l-.313.126 20.563 4.874 8.063 6.657h.062l-7.438-7.313L61.5 34.188zm-3.688.532c.175.13.331.31.47.5l-19.25 9.156-4.657 5.438 4.188-5.938 19.25-9.156zm.563.656c1.708 2.678.444 9.933 0 11.406L43.5 53.875l-9.531-3.188 5.531-5.75 18.531-9.062.344-.5zm9.094 2.906l-1.438 2.407-.781-.5-.281-.094 1.25 3.218 1.156-3.5 2.375 3.907 2.875-1.469c-.223 1.105.04 2.038.438 3.063a.997.997 0 00.718.343c2.106-.262 3.844-1.618 5.875-2.218l.031-.25c-1.927.616-3.883 1.128-5.874 1.468v-4.468l-3.907 2.75-2.437-4.657zm-14.844 4.782l-2.563 1.562-1.187-.469-.719 2c-.828-.733-2.007-.879-2.843-1.062-.64.829-.45 1.911-.407 2.906-.727-1.017-1.712-1.574-2.656-2.063-1.222.898-1.36 2.647-1.656 4.063l.062.094C40.811 49 42.085 48.04 42.5 47.03l3.031 2.688c.075-1.217.301-2.43.407-3.657l2.78 1.5.813-2.28.532.093 2.624-2.219-.062-.093zm6.344 4.75l-.219.812-.188.813-.5 23.374c-.226 5.944-1.275 11.83-.374 17.876l-.532 12 .657-2.532.343-9.219c-1.773-6.264-.079-12.192.219-18.25l.594-24.874zM52.28 92.75c.347-.009.723.068 1.094.188l-2.094 3.812-.968 3.188-2.657 4.124.125.063 2-2.375-.593 1.969.874 2.094.126-.25-.532-1.907 1.875-6.781 3-3.406c1.076.7 1.823 1.794 1.344 2.719l-.094 5.874-1.281-1.843-.188.156L55.75 104v.719c-1.516 1.189-4.301 3.365-6.5 3.375-1.947-.99-2.374-4.72-1.219-6.031 1.366-3.11 2.399-5.665 3.157-8.938.294-.255.672-.364 1.093-.375zm11.938 3.813c1.939-.047 3.722.197 4.094 1.968a50.734 50.734 0 00-2.063-.594c-1.38-.135-2.604-.022-3.625.282l-.344-1.563c.634-.029 1.291-.078 1.938-.094zm.562 2.312a9.49 9.49 0 011.406.063c1.093.191 1.83.365 2.407.593-1.554.58-2.565 1.469-3.156 2.625l.312.219c1.002-1.807 2.5-1.87 3.938-2.156.564.615.917 1.583 1.562 3.281-.187 1.173-1.003 1.21-2.063 1.156-2.408.045-4.275 1.72-6.5 2.438-1.09-.012-1.893-.473-2.437-1.156.39-1.208.352-2.557 2-3.344l-.219-.188c-1.387.107-1.793 1.434-2.312 2.625-.892-2.372.604-5.974 5.062-6.156z" fill="#5c2700" fill-rule="evenodd"/>
</svg>
