<?xml version="1.0" encoding="UTF-8"?>
<svg width="128" height="128" version="1.0" xmlns="http://www.w3.org/2000/svg" xmlns:xlink="http://www.w3.org/1999/xlink">
 <path d="M59.89 16.719c-1.237.008-2.316.978-3.406 1.875l-1.218 9.656 1.093 5-9.968 1.531-1.438 10.938.875 1.062.531 6.969 3.375 3.313 6.47-3.032-.157 18.719c-1.48 6.083-1.674 12.167-.156 18.25l-.032 4.469c-1.31.193-2.528 1.164-3.656 1.844-1.032 1.612-2.03 3.353-3.219 4.906-1.958 2.05-2.73 4.919.094 6.281h.094c2.531.023 5.226-1.488 6.906-2.75 1.298.745 2.63 1.307 4.125.969 2.119 1.736 4.684 2.472 7.406 2.781 2.407-.047 4.113-1.99 6.438-2.25 1.851.441 2.59-.304 2.875-2.125-1.673-3.637-4.67-5.301-8.125-6.438h.125c.507-3.49-3.373-4.914-6.313-4.78l-.093-29.282c.399-4.802-.027-9.196 1.562-14.594l12.406-5.75L83.047 35l-10.813-4.469c-3.043.476-6.29 1.223-9.343 1.782l-.563-14.344c-.896-.919-1.695-1.255-2.437-1.25zm-.718 1.187c.652-.005 1.372.435 2.156 1.157l.063 13.312c-.936.17-.938.17-1.907.344-.753.135-1.375.241-2.125.375l-.718-3.969.843-9.656c.452-1.105 1.036-1.557 1.688-1.563zm1.937 1.532c-1.06.417-2.16 1.225-3.062.062l-.188.375c1.053 2.394 1.93.866 3 .188l.25-.625zM71.484 31.53l1.782.438-22.907 5.343-2.656-2.093c7.893-1.295 15.917-2.235 23.781-3.688zm3.375 1.063l7.25 2.625-6.156 8.218-14.469 6.938h-.03v.031l-10.938 5.657.125-8.313-1.313-.969 1.469-8.562 24.062-5.625zm-27.718 3.218l2.656 2.313-1.063 8.563 1.032.874v8.22l-2.844-2.344-.5-6.657-.875-1.062 1.594-9.907zm23.062 1.313l-2.25.031-4.594 3.032-1.812-1.813-2.906 2.781-1.813-1.5-.594 3.094c-1.135-.237-1.89-1.272-2.656-2.063l-.344.063c.816 1.553 1.825 2.365 3.407 2.75l.875-2.406 1.062.5 2.969-2.813 1.562 2.032c2.505-1.413 4.21-3.04 7.22-2.688l3.03.375.125-.031-3.125-1.344h-.156zm-1.406 5.125l-1.094 2.094-1.344-.563-.28.157 2.062 1.718 1.125-2.156.937-.406.031-.313-1.437-.531zm-6.688 2.594l-2.718 2.843-1.657-1.593-1.968 3.312-1.094-2.031-.375.094 1.469 3.75 2.343-3.813 1.22.563L61.983 46l.813.875.219-.094-.907-1.937zm.97 5.656c-1.732 5.555-1.04 9.5-1.563 14.25l.125 33.875c-2.258 1.17-3.136 3.693-2.032 7.313-1.083.47-1.829-.197-2.843-1.407l.125-13.156c-1.61-6.209-1.228-12.416.156-18.625l.156-19.188 5.875-3.062zm-.47 43.781c2.534-.117 5.193 1.888 5.688 4.25-.666-.207-1.34-.41-2.031-.594-1.38-.135-2.604-.022-3.625.282l-.032-3.938zm-6.75 1.906l-.093 8.594-.032-.062c-1.516 1.189-4.3 3.365-6.5 3.375-1.947-.99-.78-3.75.375-5.063l.032-.031.03-.031c1.417-1.508 1.653-3.347 2.595-4.969.902-.577 2.552-1.338 3.593-1.813zm10.313 2.75c3.652.642 8.81 2.529 10.187 6.157-.187 1.172-1.003 1.209-2.062 1.156-2.41.044-4.244 1.72-6.469 2.438-2.036.112-3.924-.583-5.687-1.5l.53-1.75v-.032l3.688-3.156-.156-.094-3.781 2.625-.875-2.281-.125.094.687 2.656-.78 1.469c-.33-.186-.647-.37-.97-.563-1.741-4.79 1.526-7.208 5.813-7.219z" fill="#5c2700" fill-rule="evenodd"/>
</svg>
