<svg xmlns="http://www.w3.org/2000/svg" xmlns:xlink="http://www.w3.org/1999/xlink" width="128" height="128" version="1.0"><defs><linearGradient id="a"><stop offset="0" stop-color="#6a3c1d"/><stop offset="1" stop-color="#8f5127"/></linearGradient><linearGradient id="b"><stop offset="0" stop-color="#b1b1b1"/><stop offset="1" stop-color="#e4e4e4"/></linearGradient><linearGradient xlink:href="#a" id="d" x1="57.119" y1="61.83" x2="61.522" y2="61.83" gradientUnits="userSpaceOnUse"/><linearGradient xlink:href="#a" id="e" x1="52.838" y1="53.207" x2="74.487" y2="35.228" gradientUnits="userSpaceOnUse"/><linearGradient xlink:href="#a" id="f" x1="51.37" y1="37.98" x2="68.861" y2="32.292" gradientUnits="userSpaceOnUse"/><linearGradient xlink:href="#a" id="g" x1="45.133" y1="42.811" x2="49.291" y2="49.66" gradientUnits="userSpaceOnUse"/><linearGradient xlink:href="#b" id="j" x1="51.86" y1="105.678" x2="54.428" y2="98.523" gradientUnits="userSpaceOnUse"/><linearGradient xlink:href="#b" id="i" x1="64.213" y1="97.545" x2="65.62" y2="95.588" gradientUnits="userSpaceOnUse"/><linearGradient xlink:href="#b" id="h" x1="65.62" y1="107.513" x2="70.451" y2="100.664" gradientUnits="userSpaceOnUse"/><filter id="c" x="-.118" width="1.236" y="-.081" height="1.162"><feGaussianBlur stdDeviation="1.858"/></filter></defs><metadata/><g fill-rule="evenodd"><path d="M48.846 53.178c-3.076 1.062-1.266 3.675-1.942 5.483-1.494 1.647 4.28 4.625-.719 4.427-2.626.703-8.79-.342-7.63 2.398.276 1.648-1.195 3.746.424 5.095 1.563 1.832.206 4.381 3.983 5.515 2.13 1.306 4.898-1.065 7.49-1.35.582 4.092 1.923 8.203 2.258 12.284-.53 2.844-.4 5.816.771 8.707 1.785 2.992 1.39 6.102 2.177 9.147.689 2.184 5.94 1.503 8.472 2.942 4.023 1.319 6.297-1.172 9.924-.876 4.098-.12.928-2.75-1.306-3.436-3.09-.82-5.606-1.606-6.926-3.557-2.524-.977-6.093-.334-5.33-2.69-1.164-6.036-2.956-12.08-3.481-18.11-.059-2.094-.185-4.254.124-6.283 3.316-1.344 7.323-2.141 10.818-3.359 2.656-1.278 5.694-4.124 6.144-5.646-3.368-.776-6.89-1.34-10.028-2.472-3.255.004-6.445.64-9.688.866-1.446-.756-.939-3.118-1.56-4.508-.814-1.397.427-3.507-1.994-4.371-.635-.16-1.323-.258-1.98-.206zm-8.245 11.55c1.818.726 2.537 1.386 0 0zm14.044 35.34c-3.764.554-4.958 2.664-6.345 4.572-2.591 1.435.526 3.973 3.54 2.61 3.085-.75 4.561-2.122 3.345-4.21l-.54-2.971zm9.368 1.683c1.068.234-3.653.375-.44.067l.44-.067zm-5.046 2.84c.57 1.096.09 1.457 0 0z" fill-opacity=".627" filter="url(#c)"/><path d="M56.997 18.777L55.529 29.05l1.345 4.036-.367 22.016.245 17.735-1.1 5.626-.245 7.828.978 5.137-.122 13.577 2.446 1.467 1.712-.122-.978-2.202.611-3.302 2.569-1.835-.612-32.534.367-7.583 1.101-8.807-1.345-18.346-.245-13.21-1.712-1.345H58.83l-1.834 1.59z" fill="url(#d)"/><path d="M49.78 56.448l.612-8.561-1.346-1.223 1.101-8.684 24.218-5.871 8.317 3.18-6.483 8.684L49.78 56.448z" fill="url(#e)"/><path d="M50.27 37.98l-3.547-2.936 25.685-4.28 2.446 1.59L50.27 37.98z" fill="url(#f)"/><path d="M50.147 38.102L46.723 34.8l-1.59 10.885.978.979.49 6.727 3.424 3.302.367-8.806-1.223-1.101.978-8.684z" fill="url(#g)"/><path d="M50.147 38.102L46.723 34.8l-1.59 10.885.978.979.49 6.727 3.424 3.302.367-8.806-1.223-1.101.978-8.684z" fill-opacity=".157"/><path d="M50.27 37.98l-3.547-2.936 25.685-4.28 2.446 1.59L50.27 37.98zM58.709 17.31l-1.468 1.1.856 1.835.979.611 1.957-1.1 1.1-1.101-.733-.857-2.691-.489z" fill="#fff" fill-opacity=".125"/><path d="M60.177 106.473l-.612-2.813.367-2.935 2.69-1.713 3.181-.489 2.935.367 3.18 1.468 1.957 1.1 1.468 1.713 1.223 1.345-.122 1.713-1.345.856-3.058-.122-3.303 2.201-4.158-.367-4.403-2.324z" fill="url(#h)"/><path d="M62.256 98.279l-.122-4.281 2.324.122 2.935 1.223.856 1.468.856 2.324-3.914-.734-2.813.734-.122-.856z" fill="url(#i)"/><path d="M56.14 95.588l-3.791 1.834-1.223 2.08-1.957 3.302-1.59 3.058.489 1.59 1.1.734 2.325-.245 4.647-2.935v-9.418z" fill="url(#j)"/><path d="M56.14 95.588l-3.791 1.834-1.223 2.08-1.957 3.302-1.59 3.058.489 1.59 1.1.734 2.325-.245 4.647-2.935v-9.418z" fill-opacity=".157"/></g><path d="M59.89 16.719c-1.237.008-2.316.978-3.406 1.875l-1.218 9.656 1.093 5-9.968 1.531-1.438 10.938.875 1.062.531 6.969 3.375 3.313 6.47-3.032-.157 18.719c-1.48 6.083-1.674 12.167-.156 18.25l-.032 4.469c-1.31.193-2.528 1.164-3.656 1.844-1.032 1.612-2.03 3.353-3.219 4.906-1.958 2.05-2.73 4.919.094 6.281h.094c2.531.023 5.226-1.488 6.906-2.75 1.298.745 2.63 1.307 4.125.969 2.119 1.736 4.684 2.472 7.406 2.781 2.407-.047 4.113-1.99 6.438-2.25 1.851.441 2.59-.304 2.875-2.125-1.673-3.637-4.67-5.301-8.125-6.438h.125c.507-3.49-3.373-4.914-6.313-4.78l-.093-29.282c.399-4.802-.027-9.196 1.562-14.594l12.406-5.75L83.047 35l-10.813-4.469c-3.043.476-6.29 1.223-9.343 1.782l-.563-14.344c-.896-.919-1.695-1.255-2.437-1.25zm-.718 1.187c.652-.005 1.372.435 2.156 1.157l.063 13.312c-.936.17-.938.17-1.907.344-.753.135-1.375.241-2.125.375l-.718-3.969.843-9.656c.452-1.105 1.036-1.557 1.688-1.563zm1.937 1.532c-1.06.417-2.16 1.225-3.062.062l-.188.375c1.053 2.394 1.93.866 3 .188l.25-.625zM71.484 31.53l1.782.438-22.907 5.343-2.656-2.093c7.893-1.295 15.917-2.235 23.781-3.688zm3.375 1.063l7.25 2.625-6.156 8.218-14.469 6.938h-.03v.031l-10.938 5.657.125-8.313-1.313-.969 1.469-8.562 24.062-5.625zm-27.718 3.218l2.656 2.313-1.063 8.563 1.032.874v8.22l-2.844-2.344-.5-6.657-.875-1.062 1.594-9.907zm23.062 1.313l-2.25.031-4.594 3.032-1.812-1.813-2.906 2.781-1.813-1.5-.594 3.094c-1.135-.237-1.89-1.272-2.656-2.063l-.344.063c.816 1.553 1.825 2.365 3.407 2.75l.875-2.406 1.062.5 2.969-2.813 1.562 2.032c2.505-1.413 4.21-3.04 7.22-2.688l3.03.375.125-.031-3.125-1.344h-.156zm-1.406 5.125l-1.094 2.094-1.344-.563-.28.157 2.062 1.718 1.125-2.156.937-.406.031-.313-1.437-.531zm-6.688 2.594l-2.718 2.843-1.657-1.593-1.968 3.312-1.094-2.031-.375.094 1.469 3.75 2.343-3.813 1.22.563L61.983 46l.813.875.219-.094-.907-1.937zm.97 5.656c-1.732 5.555-1.04 9.5-1.563 14.25l.125 33.875c-2.258 1.17-3.136 3.693-2.032 7.313-1.083.47-1.829-.197-2.843-1.407l.125-13.156c-1.61-6.209-1.228-12.416.156-18.625l.156-19.188 5.875-3.062zm-.47 43.781c2.534-.117 5.193 1.888 5.688 4.25-.666-.207-1.34-.41-2.031-.594-1.38-.135-2.604-.022-3.625.282l-.032-3.938zm-6.75 1.906l-.093 8.594-.032-.062c-1.516 1.189-4.3 3.365-6.5 3.375-1.947-.99-.78-3.75.375-5.063l.032-.031.03-.031c1.417-1.508 1.653-3.347 2.595-4.969.902-.577 2.552-1.338 3.593-1.813zm10.313 2.75c3.652.642 8.81 2.529 10.187 6.157-.187 1.172-1.003 1.209-2.062 1.156-2.41.044-4.244 1.72-6.469 2.438-2.036.112-3.924-.583-5.687-1.5l.53-1.75v-.032l3.688-3.156-.156-.094-3.781 2.625-.875-2.281-.125.094.687 2.656-.78 1.469c-.33-.186-.647-.37-.97-.563-1.741-4.79 1.526-7.208 5.813-7.219z" fill-rule="evenodd"/></svg>