<?xml version="1.0" encoding="UTF-8"?>
<svg width="128" height="128" version="1.0" xmlns="http://www.w3.org/2000/svg" xmlns:xlink="http://www.w3.org/1999/xlink">
 <path d="M59.469 16.25c-1.626.084-3.283.854-2.969 2.344l-1.25 9.656.5 2.156-20.156 3c.478 2.02 1.372 3.955 1.093 6.125l1.813 1.5 3-.062.188 6.437L37 49c-.049 3.208.423 4.916.375 8.125.376 1.077.922 1.294 1.906 1.531l.5-.125L40.25 64l1.906.906 8.063-.25 5.906-1.781-.063 9.875c-1.48 6.083-1.705 12.167-.187 18.25v4.469c-1.31.193-2.56 1.164-3.688 1.844-1.032 1.612-1.373 3.353-2.562 4.906-1.958 2.05-4.51 5.169-1.688 6.531 2.655-.04 5.978-1.586 8.126-3 1.298.745 2.629 1.307 4.124.969 2.119 1.736 4.715 2.472 7.438 2.781 2.407-.047 4.113-1.99 6.438-2.25 1.851.441 1.652-.617 1.937-2.438-1.673-3.636-3.733-4.988-7.188-6.124.339-3.618-3.018-4.59-6.187-4.782l-.469-28.812c.106-1.267.514-2.981.563-4.219l17.468-5.281 5 1.343.75-4.562-1.25-3.031-1.28-.907 2-.75L86 39.22l-1.438-1.094 1.126-.313-1.657-8.78h-.218l-7.126-.157-.968-.406-1.344-.063-.813-.406-2.968.219-7.844 1.156-.438-11.406c.378-1.2-1.217-1.803-2.843-1.719zm.312.594c1.338.038 2.455.715 1.532 2.218l.656 10.532-5.125.656-.657-1.219L57.5 19.47c-1.515-1.666.561-2.674 2.281-2.625zm1.344 2.593c-1.06.418-2.16 1.226-3.063.063l-.187.375c1.226 2.134 1.93.866 3 .188l.25-.625zm12.25 9.063l.25.219c-.458.082-8.912 1.583-17.594 3.156l-18.843 2.594c.792 1.812 1.173 3.788 1.28 5.875l-1.218-.969c.389-2.576-.616-3.76-.969-5.594l34.313-5.093 2.781-.188zm.5.063l1.813.25.874.312 4.97.063-4.782.312-2.656-.875-.188.031-.031-.093zm.156.687l2.156.875-4.156 1.438 2.5.656-10.562 3-1.219-.032-.125.438-4.5 1.281c-.131-.532-.335-1.025-.688-1.281l-2.218 2.094-.375.125-2.157-2.188-.656 2.969-2.5.719-2.187-2.188-.125-.062 1.687 2.437-3.312.938v.031l-6.5-.063c-.121-1.887-.345-3.723-1.125-5.28 6.056-.784 12.493-1.598 18.5-2.688 8.824-1.599 17.38-3.185 17.562-3.219zm9.75.406l.75 7.438-4.687 1.781V39L62.28 43.281c-.075-.082-.145-.17-.218-.25a1.91 1.91 0 00-.907.532l-5.406 1.343-.281-.75c-.445.31-.892.735-1.344 1.125l-1.406.344c-.165-.079-.344-.156-.344-.156l-.125.062c.015.093.043.141.063.219l-3.376.813.126.312 3.312-.844c.449 1.076 1.591.073 2.594-.625l.281-.093.313.968 1.75-.875 3.437 1.532c.258-.952.678-2.148 1.094-3.032l1.218 1.532 1.313-1.782-.188-.312-1.062.781a9.849 9.849 0 01-.625-.625l17.344-4.344v.157l5.781.25-1.156 7.562L78.53 50l-31.375 6.375-.031-.063-7.031 1.532-.125-8.032 9.062-2.656-.093-.593-.032-.094-5.031.531-.219-5.781 2.532-.719H46l3-.875 1.156 1.688 2.125-1.938.094-.688 1.844-.53 1.25 1.28c.353-.719.724-1.363 1.125-1.968l.906-.25.531 1.031 4.719.625.781-3.313 4.282.782-.47 1.656c1.179.598 2.328.033 3.47-.406l-.126-.125c-.558.246-1.892-.136-2.468.062l.875-2.125-4.719-.156 10.688-3.063-2.594-.593 4.25-1.438 7.062-.5zM75 33.47l-1.563 1.25-2.593-.875-.25.125 3.219 2.218 1.312-2.656L75 33.47zm1.75.187l-.25.375c-.192 1.023.67 1.749 1.313 2.438l.25-.313-1.313-2.5zM62.594 35.75l-.563 2-3.656.469c-.077-.354-.126-.78-.219-1.188l4.438-1.281zm-9.938.781l1.469 1.5-1.719.5.25-2zm4.532.094l.25.469-.72.187c.154-.223.301-.44.47-.656zm-2.157 1.281l-.062.063-.032-.032.094-.03zm28.938.407l1.125.874L81.188 39l2.78-.688zm-32 .468l-.063.344-1.656.938-.594-.594 2.313-.688zm-9.032 2.157l-.03 6.437-.657-.094L42 40.97l.938-.032zm30.5.624l-1.062.907-2.063-.282-1.5 1.47.126.062 1.562-.875 2.156.687 1-1.218 1.5.218v-.437l-1.719-.532zm-12.562 2.344c-.326.51-.49 1.159-.719 1.782l-2.843-.876 3.562-.906zm-4.469 1.125l-.468.407-.094-.25.562-.157zm-2.875.719c-.082.062-.168.132-.25.188 0-.01-.112-.068-.156-.094l.406-.094zm18.907 1.063l-2.094 1.812-3.094-1.031-1.188 1.531-1.593-1.094-1.563 2.532-2.531-.438v.188l2.844 1.593 1.562-3.031 1.5 1.625 1.344-1.719 2.938.969L72.874 47l-.438-.188zM48.311 47l-9.218 2.313.156 8.53c-.504-.095-.987-.646-1.375-.843 0-.706-.076-7.364-.063-8l5.094-1.563v.313l5.407-.75zm34.626 1.594l.812.812-3.781.313 2.969-1.125zm-4.344 1.562l.062.188h5.281l1.72 2.375-.844 3.656-5.032-1.156-29.719 8.75h-7.03l-.97-4.625 5.282-2.625-.063-.094 18.438-3.813-.969 3.688-6.719-.25-.812.844-.938-.594-2.968 2.469-2.126-.063-.124.188 2.406 1.062 2.437-2.906 1.157.938 1.062-1.376 7.25.25.813-3.5 3.218 1.344 5.656-2.812-.062-.25-5.656 2-3.375-1.094 12.625-2.594zm-24.813.188l-3.687 2.093-2.344-1.03v.25l2.406 1.906 3.219-2.5 1.219 2.406 1.5-2.063 1.312 1.157 1.125-1.532-.25-.187-1.187.906-1.219-.969-1.063 1.094-1.03-1.531zm-7.562 6.562l-4.813 2-1.218-.406 6.03-1.594zm-5.532 2l.75.625.594 4.594-1.25-.313-.093-4.906zm21.032 2.282c-.038 1.163-.083 2.33-.219 3.562l.125 33.875c-2.258 1.17-3.105 3.693-2 7.313-1.084.47-1.86-.197-2.875-1.407l.125-13.156c-1.609-6.209-1.54-12.291-.156-18.5l.406-10.313 4.594-1.374zm.906 33.093c1.083-.05 2.175.288 3.125.875l-1.375 1.656.375.25 1.781-1.312c.883.756 1.56 1.725 1.781 2.781a50.734 50.734 0 00-2.062-.594c-1.38-.135-2.604-.022-3.625.282V94.28zm-6.75 1.906l-.125 8.532c-.719.564-2.019 1.328-3.406 2 .257-1.571.358-3.376 1.562-5l-.125-.063c-1.637 1.708-2.542 3.55-2.5 5.563-1.2.503-2.393.87-3.281.875-1.947-.99.47-3.75 1.625-5.063 1.626-1.158 1.901-3.283 2.625-5.031.903-.577 2.584-1.338 3.625-1.813zm10.313 2.75c.546.096 1.097.205 1.656.344l.844 3.938-2.25 1.906.218 2.219.125-.063.094-1.875 1.938-1.781 1.968 1.906 1.563.219-.063-.188-1.219-.562-1.812-1.75-.063-3.563c2.69.878 5.183 2.384 6.188 5.032-.187 1.172-.003 1.584-1.063 1.531-2.408.044-4.275 1.72-6.5 2.438-4.41-.492-6.25-1.901-7.437-2.532-1.742-4.79 1.526-7.208 5.813-7.219z" fill="#5c2700" fill-rule="evenodd"/>
</svg>
