<svg xmlns="http://www.w3.org/2000/svg" xmlns:xlink="http://www.w3.org/1999/xlink" width="128" height="128" version="1.0"><defs><linearGradient xlink:href="#a" id="h" x1="66.292" y1="47.336" x2="90.877" y2="42.444" gradientUnits="userSpaceOnUse"/><linearGradient id="a"><stop offset="0" stop-color="#6a3c1d"/><stop offset="1" stop-color="#8f5127"/></linearGradient><linearGradient xlink:href="#a" id="e" x1="43.909" y1="52.901" x2="59.321" y2="36.023" gradientUnits="userSpaceOnUse"/><linearGradient xlink:href="#a" id="f" x1="63.968" y1="47.092" x2="80.725" y2="28.623" gradientUnits="userSpaceOnUse"/><linearGradient xlink:href="#a" id="g" x1="39.384" y1="39.692" x2="56.997" y2="34.433" gradientUnits="userSpaceOnUse"/><linearGradient id="b"><stop offset="0" stop-color="#b1b1b1"/><stop offset="1" stop-color="#e4e4e4"/></linearGradient><linearGradient xlink:href="#a" id="d" x1="57.364" y1="61.769" x2="61.644" y2="61.769" gradientUnits="userSpaceOnUse"/><linearGradient xlink:href="#b" id="k" x1="64.213" y1="97.85" x2="67.026" y2="96.444" gradientUnits="userSpaceOnUse"/><linearGradient xlink:href="#b" id="j" x1="51.615" y1="106.779" x2="55.896" y2="94.915" gradientUnits="userSpaceOnUse"/><linearGradient xlink:href="#b" id="i" x1="64.335" y1="104.149" x2="66.27" y2="100.358" gradientUnits="userSpaceOnUse"/><filter id="c" x="-.087" width="1.174" y="-.107" height="1.215"><feGaussianBlur stdDeviation="2.24"/></filter></defs><metadata/><g fill-rule="evenodd"><path d="M45.188 57.188c-3.861.653-1.588 3.23-2.032 4.933-.177 1.224 1.551 3.93 1.554 4.132-1.942-1.545-6.367-.934-9.341-1.555-3.344-.331-6.688-.664-10.034-.981-2.374.824-6.498 1.386-7.722 2.382 2.208 1.278 3.113 3.746 6.652 3.846 2.185.396 9.126.47 4.153 1.382-2.512 1.007-3.49 2.85-5.483 4.16 3.936.417 8.297 2.348 11.94 1.728l12.321-3.395c-1.705 1.575.45 4.058.265 5.982.501 2.564 1.01 5.128 1.403 7.691-1.414 3.298.006 6.849 1.594 10.23.477 1.036 1.01 2.673-1.386 1.172-4.571-1.31-4.278 1.847-5.017 3.371-.841 1.581-3.117 3.654.778 4.89 3.684.76 5.95-2.719 9.013-.932 2.687-.242 5.684 1.407 8.07-.135 2.945-.125 7.177-.727 3.814-2.8-2.027-1.49-4.399-3.13-8.308-2.476-1.47-1.08-.396-3.6-.923-5.244-.462-4.641-2.523-9.277-3.437-13.915.224-2.74-.324-5.632-.651-8.301 4.137.543 8.421 1.296 12.62 1.908 3.853.698 7.776 1.544 10.344-.41 1.717-.94 6.794-1.675 2.502-2.981-3.407-1.728-6.375-3.983-11.253-3.948-.488-.478 4.517-1.022 6.063-1.69 1.407-1.51 4.579-3.385 4.887-4.668-3.396-.492-7.478-1.002-11.512-1.506-4.374.14-7.105 2.996-11.526 3.68-1.78.516-4.985 1.225-4.502 1.897-.592-2.553-1.605-5.155-1.94-7.679-.598-.642-1.92-.53-2.907-.769zm.759 9.278c.624.294-.523 0 0 0zm1.647 2.148c.632 1.319.491 4.211.396 4.51-.007-1.497.033-3-.396-4.51zm9.27 32.492c-.735 1.381 5.518.457 1.686.927-2.07-.277-3.418 1.732-3.653 1.473-.06-1.075 2.708-1.237 1.967-2.4zm-1.966 2.835c.707 1.378-.218 1.712 0 0z" fill-opacity=".627" filter="url(#c)"/><path d="M61.767 18.043l1.223 31.311.122 3.425-.978 9.051v2.69l.489 7.829.367 12.475-.734 9.908-.245 3.791-2.079 1.835-.611 3.18.733 2.813-2.568-.122-1.346-1.468.367-12.72-1.1-8.807.367-7.46 1.1-3.67.123-23.973 1.834-1.467.612-5.871-.122-2.813-1.224-3.914-1.1.122-.979-5.87.734-9.663 2.446-1.468 2.569.856z" fill="url(#d)"/><path d="M33.268 50.455l5.015-6.482 19.814-9.785 1.224 2.08v5.014l-.612 5.749-15.167 7.216-10.274-3.792z" fill="url(#e)"/><path d="M63.112 31.13l7.828-3.791 7.339-5.137 12.842 3.057-6.36 8.562-7.094 2.813-15.044-3.302-.122-2.08.611-.122z" fill="url(#f)"/><path d="M56.63 32.598L38.283 29.05 29.6 32.965l4.526 7.094 8.317 1.712 14.555-7.094-.367-2.08z" fill="url(#g)"/><path d="M61.644 32.965l-1.1 1.835-.245 3.302.49 7.705 21.159 6.116 8.929-5.993-7.706-8.195-21.527-4.77z" fill="url(#h)"/><path d="M36.815 29.785l19.203 4.77.612-.367-.49-1.835-18.101-3.302-1.224.734zM38.283 43.606l.734 1.345 19.692-9.662-.979-1.468-19.447 9.785zM62.99 32.843l10.274-5.504 5.26-3.792 10.518 1.1-10.886-2.568-6.36 4.648-9.05 4.77.244 1.346zM61.4 33.21l21.893 4.77 7.461 7.95-.489.244-8.072-7.094-21.282-5.014.489-.857zM59.443 17.31l-2.202 1.222 1.957 2.324 2.936-1.835-1.101-1.345-1.59-.367z" fill="#fff" fill-opacity=".125"/><path d="M33.513 50.578l5.626-5.871-.734-1.101-4.892 6.972zM56.63 34.677l-20.06-5.015-6.849 3.547 3.914 6.728 9.174 1.834 13.82-7.094z" fill-opacity=".157"/><path d="M64.213 98.523l-3.18 1.101-1.468 2.446.122 3.67 1.59 1.467 1.835.367 3.425-1.59 4.036-.734s1.468-1.467.979-1.223c-.49.245-.979-3.67-.979-3.67l-3.058-1.711-3.302-.123z" fill="url(#i)"/><path d="M56.14 105.25l-2.69 1.713-2.447.978-2.079.367-2.201-2.935.489-2.08 1.59-3.302 1.834-5.749.245-1.345 3.18-.367 2.446 1.957-.122 2.324v5.748l-.245 2.691z" fill="url(#j)"/><path d="M62.378 98.523l-.367-1.957 2.813-.122 2.202.122 1.59 1.59.122 1.101-4.158-.856-2.202.122z" fill="url(#k)"/><path d="M56.14 105.25l-2.69 1.713-2.447.978-2.079.367-2.201-2.935.489-2.08 1.59-3.302 1.834-5.749.245-1.345 3.18-.367 2.446 1.957-.122 2.324v5.748l-.245 2.691z" fill-opacity=".157"/></g><path d="M59.875 16.719c-1.238.008-2.285.978-3.375 1.875l-1.25 9.656c.336 1.347.604 2.698.813 4.063l-17.876-3.376-9 4.063 4.47 7.219 8.03 1.5-3.5 1.781-5.437 7.438 10.688 3.5L56.5 48.343c-.072 2.665.348 5.473.25 8.093l-.688 16.313c-1.48 6.083-1.705 12.167-.187 18.25l.188 3.688c.011-3.772-4.05-2.582-5.188-1.876-1.032 1.613-2.092 6.09-3.281 8.97-1.958 2.05-1.355 5.356 1.468 6.718 2.655-.04 4.853-1.336 7-2.75 1.299.745 2.63 1.307 4.126.969 2.118 1.736-.41.879 2.312 1.187 2.407-.047 4.113-1.99 6.438-2.25 1.851.442 2.589-.304 2.874-2.125-1.673-3.636.455-3.707-3-4.844-.681-3.145-3.877-2.526-6.624-2.312 1.867-8.965 1.177-21.647.312-31.75.335-4.035.114-7.798.969-12.094-.054-1.76.019-3.68.093-5.656L82 52.188l8.813-6.282-7.313-8.031-5.125-1.219 6.344-2.812 6.844-8.688-13.407-3.25c-5.395 3.32-9.271 6.718-15.187 9l-.657-12.937c-.896-.919-1.694-1.255-2.437-1.25zm-.688 1.187c.652-.005 1.341.435 2.126 1.157l.062 13.312c.016.072.018.146.031.219l-.062-.032c-1.5 1.7-1.342 5.305-.782 13.47l1.688.5c-.003 2.286.406 4.714.406 6.906-.08 3.107-.87 7.678-1.156 11.312 1.702 11.568 1.231 22.775.125 33.875-2.258 1.17-3.105 3.693-2 7.313-1.084.47-1.86-.197-2.875-1.407l.125-13.156c-1.609-6.209-1.196-12.416.188-18.625l.124-17.969c-.048-2.308.04-4.561.126-6.812l1.718-.813c1.243-5.085.723-13.058-.968-13.687l-.782.406c-.14-1.55-.35-3.129-.656-4.75l.875-9.656c.452-1.105 1.036-1.557 1.688-1.563zm1.938 1.532c-1.06.417-2.16 1.225-3.063.062l-.187.375c1.053 2.394 1.93.866 3 .188l.25-.625zm-2.594 2.906l-.281.062-.844 6.094.313 3.375h.187l.032-3.031.593-6.5zm19.719.031l9.156 2.063-8.969-1.563c-5.403 4.408-9.769 6.857-15.187 9.344l.406.75c5.272-2.445 10.071-5.81 14.688-9.313l10.531 1.094 1.906.438-6.375 8.28-6.875 2.97L63.25 33.03a32.108 32.108 0 00-.219-1.156c6.005-2.187 9.85-6.003 15.219-9.5zm4.125 4.594l-1.031 2.812-3-.812-.719 2.343c-.594-1.39-1.792-2.33-2.688-3.093-1.197 1.122-1.133 3.194-1.312 4.781l.094.094c.088-1.188 1.203-2.352 1.5-3.5l2.844 2.812 1-2.375 2.5.25 1.25-2.062 1 .343.156-.093-1.594-1.5zM38.531 29.5l17.688 3.844c.043.33.058.669.093 1l-.53.281.093-.438c-5.793-1.905-11.8-2.673-17.688-4.062L38 30.25c3.006.963 6.118 1.657 9.188 2.406l8.406 2.063-13.157 6.656-8.156-1.594-4.187-6.468L38.53 29.5zm22.875 3.781l21.375 4.907 7.531 7.562-8.406 6-20.781-6.156c-.052-4-1.286-7.15.281-12.313zm-22.125.532c-1.048.874-1.622 2.216-2.25 3.406L35.125 35h-.281L37 38.469 39.406 35l1.25 2.719c.68-1.047 1.356-1.58 2.25-2.438 1.134.416 2.154 1.593 3.188 2.25l.156-.062c-1.183-.858-1.96-2.404-3.313-2.969-.889.32-1.44 1.116-2.03 1.813-.204-1.534-.783-1.881-1.626-2.5zm22.219.374l-.313.126 20.563 4.874 8.063 6.657h.062l-7.438-7.313L61.5 34.188zm-3.688.532c.175.13.331.31.47.5l-19.25 9.156-4.657 5.438 4.188-5.938 19.25-9.156zm.563.656c1.708 2.678.444 9.933 0 11.406L43.5 53.875l-9.531-3.188 5.531-5.75 18.531-9.062.344-.5zm9.094 2.906l-1.438 2.407-.781-.5-.281-.094 1.25 3.218 1.156-3.5 2.375 3.907 2.875-1.469c-.223 1.105.04 2.038.438 3.063a.997.997 0 00.718.343c2.106-.262 3.844-1.618 5.875-2.218l.031-.25c-1.927.616-3.883 1.128-5.874 1.468v-4.468l-3.907 2.75-2.437-4.657zm-14.844 4.782l-2.563 1.562-1.187-.469-.719 2c-.828-.733-2.007-.879-2.843-1.062-.64.829-.45 1.911-.407 2.906-.727-1.017-1.712-1.574-2.656-2.063-1.222.898-1.36 2.647-1.656 4.063l.062.094C40.811 49 42.085 48.04 42.5 47.03l3.031 2.688c.075-1.217.301-2.43.407-3.657l2.78 1.5.813-2.28.532.093 2.624-2.219-.062-.093zm6.344 4.75l-.219.812-.188.813-.5 23.374c-.226 5.944-1.275 11.83-.374 17.876l-.532 12 .657-2.532.343-9.219c-1.773-6.264-.079-12.192.219-18.25l.594-24.874zM52.28 92.75c.347-.009.723.068 1.094.188l-2.094 3.812-.968 3.188-2.657 4.124.125.063 2-2.375-.593 1.969.874 2.094.126-.25-.532-1.907 1.875-6.781 3-3.406c1.076.7 1.823 1.794 1.344 2.719l-.094 5.874-1.281-1.843-.188.156L55.75 104v.719c-1.516 1.189-4.301 3.365-6.5 3.375-1.947-.99-2.374-4.72-1.219-6.031 1.366-3.11 2.399-5.665 3.157-8.938.294-.255.672-.364 1.093-.375zm11.938 3.813c1.939-.047 3.722.197 4.094 1.968a50.734 50.734 0 00-2.063-.594c-1.38-.135-2.604-.022-3.625.282l-.344-1.563c.634-.029 1.291-.078 1.938-.094zm.562 2.312a9.49 9.49 0 011.406.063c1.093.191 1.83.365 2.407.593-1.554.58-2.565 1.469-3.156 2.625l.312.219c1.002-1.807 2.5-1.87 3.938-2.156.564.615.917 1.583 1.562 3.281-.187 1.173-1.003 1.21-2.063 1.156-2.408.045-4.275 1.72-6.5 2.438-1.09-.012-1.893-.473-2.437-1.156.39-1.208.352-2.557 2-3.344l-.219-.188c-1.387.107-1.793 1.434-2.312 2.625-.892-2.372.604-5.974 5.062-6.156z" fill-rule="evenodd"/></svg>