<?xml version="1.0" encoding="UTF-8"?>
<svg width="128" height="128" version="1.0" xmlns="http://www.w3.org/2000/svg" xmlns:xlink="http://www.w3.org/1999/xlink">
 <path d="M29.063 6.813l.093 8.562 8.157 18.406c-3.114 1.57-3.323 3.083-3.344 4.657 1.11.355 2.09.544 3 .687-1.33 1.958-.472 4.273.937 6.688 1.685.047 3.407-1.726 4-2.22l8.5 1.72c2.762 1.73 5.442 4.363 6.094 8.624.323.558-.445 2.015-.5 2.657l.688.187.03 2.032c-.43 1.957-.29 3.999-.343 6.03l-13.406 5.344-.657 26.25c-2.111 1.154-4.415 2.2-6.562 3.126l-.094 2.312 22.094 20.219 34.75-13.969.125-2.563-7.344-6.687-.875-24.625-8.812-7.781c.346-2.864 1.555-5.45 2.562-8.094 1.13-6.453.494-12.73-1.062-18.938-2.015 1.917-4.328 3.712-6.813 4.594 1.319-3.461.798-6.74-3.687-7.687-.043-.28-1.13-.422-1.156-.719-.098-.44 2.106-1.247 2-1.688-.174-.716-1.639-1.19-1.813-1.906.159-.617 1.623-.523 1.563-1.031-.138-1.165-.646-2.082-1.188-2.906 1.713-3.872 1.813-8.03-.594-11.438.432 2.752-.382 5.105-1.937 7.813-1.945-1.725-4.222-.992-6.282 1.468-2.183-2.504-3.33-6.552-5.468-9.125 1.818 4.33-1.393 9.707 4.093 13.25l-.5 3.594.407.532c.093 1.011.216 2.014.375 3-2.438.878-4.257-.173-6.75 2.968-1.599-.298-3.259-2.514-4.438-4.156.772-1.563.796-3.16.844-3.5.306-.37-2.644-1.03-4.219.094l-5.343-19.969-7.126-5.813zm1.062 1.812l5.406 4.469 5.875 20.75c-.568 1.657-1.146 2.058-2.906 1.218l-8.625-19.718-.094-6.625 9.782 24.656-9.438-24.75zm35.688 9.656c1.306 2.965 1.344 5.566-.376 8.938-.145-.23-.3-.465-.406-.688-.316-.585-.623-1.09-.969-1.5.513-1.59 1.851-3.69 1.75-6.75zM52.75 19.656c2.552 3.201 2.678 8.548 7.656 8.594-.052.867.392 1.8-2.062 2.156-4.39.173-6.256-7.541-5.594-10.75zm7.688 4.563c.154-.018.313-.012.468 0 2.653.43 4.94 3.791 5.5 6.718l-8.031.97-2.563 1.468c-.024-.9.467-2.042.657-2.906.397.218.804.455 1.281.656 2.407-.222 3.842-1.037 3.563-2.969-1.577-.122-2.76-.84-3.75-1.843.77-1.161 1.795-1.972 2.874-2.094zm4.312 7.406c-.146.572 1.418 1.717 1.563 2.563.08.472-1.31.841-1.313.968.163.873.592 1.827.781 2.438l-3.781 1-5.5-2.875c-.074-.423-.14-.858-.188-1.282.502-1.114 1.302-1.983 2.938-2.124l5.5-.688zm-21.094.844c1.113-.084 1.941.28 1.25 1.093-1.26 7.528-8.301 4.895-9.937 4.407-.537-1.79 1.471-2.795 2.531-3.719l.5 1.094c3.535 1.378 3.264-.458 3.906-1.407l-.218-.874a4.925 4.925 0 011.968-.594zm12.938 3.75c2.446.865 4.39 4.212 9.468 1.656.389 1.475.136 3.196-2.968 4.125-1.706 1.108-4.29-.58-5.844-3.125-.236-.872-.478-1.75-.656-2.656zm-12.032.375c1.935 3.307 5.638 4.616 8.97 5.812.153 1.16 1.548 2.834-1.72 2.625l-9.343-1.937c1.407-1.513.926-2.168.968-3.063-.435 2.383-2.998 4.026-5.062 5.219-2.101-1.361-1.713-4.639-.906-6l-.094-.063c4.033.523 6.119-.899 7.188-2.593zm22 .125c2.41.091 4.97 1.596 3.032 7.281-2 .652-4.11.809-6.219 1.219.185 3.131.63 6.324.875 9.5-2.07 1.384-5.357 2.317-7.688 1.562l.844-2.5c-1.755-2.851-2.737-6.141-5.781-8.187l.969.156c3.846-.832 1.59-2.146 1.625-3.875-1.426-.412-2.91-.792-4.313-1.344 2.59-2.575 3.948-2.136 6.282-2.75.06.38.133.775.187 1.157 2.314 2.974 4.86 4.944 8.281 2.843 2.351-1.227 2.171-3.369 1.906-5.062zm10.22 3.531c1.96 5.736 2.156 12.076.937 17.813-1.054 2.946-3.092 6.37-2.625 9.968-2.432-3.588-7.396-3.934-10.5-5.687 1.023-4.942-.09-11.742-.625-16.782 1.7-.454 3.938-.587 5.937-1.187 2.391-.718 4.969-2.307 6.875-4.125zm-3.75 4.875l-3.313 1.063.562 4.406h.313l-.5-4.188 3.031-1.062-.094-.219zm-11.813.219c-1.464 1.85-1.026 3.711-4.625 5.562l.468-.062c3.582-.768 2.863-3.524 4.313-5.407l-.156-.093zm13.593 3.312l-.374.032.28 2.406 3.25-.657-.187-.28-2.75.624-.219-2.125zm-5.062 2.625L65.687 52l.188 2.219.313-.063-.282-2.062 3.813-.594.031-.219zm8 .813l-3.063.875.344 3.25.438-.094-.375-2.938 2.687-.812-.031-.281zm-13.438 3.25c.165 2.4.198 4.81-.093 7.125.85.43 2.2.942 3.062 1.281-2.323.834-2.146 3.22-3.031 4.875 5.127-.338 9.106.61 9.063 4.219.076 1.95-2.548 1.672-3.563 1.875l-6.219-4.406-.375.093c1.052-3.806.339-7.43-.968-11l-.094.188c1.173 3.828 1.447 7.507.437 11.093l-2.406.47 1.156 7.062c.847.991-1.992 3.699-3.781 1.75l-3.625-7.313c5.208-4.482 2.211-8.955 3.313-13.437v-.094l.093-2.313c2.069.764 5.058-.788 7.032-1.468zm7.47.687l-2.75.469.093.219 2.25-.438.531 4.907.438.03-.563-5.187zm-3.532 8.125c2.479.96 4.946 2.016 7.25 4.375a12.547 12.547 0 010-1.281l7.906 6.844-24.344 9.719-15.218-13.594 12.468-4.906c-.021.397-.046 1.171-.093 1.562-3.217 1.295-5.372 2.367-5.688 6 .447 2.231 2.682 3.827 5.282 5.375l.062-.094L57 80.72c1.275.964 3.593 1.475 5.375-1.375 3.555-.27 6.94-.362 9.5-1.406 4.414-1.76 7.614-4.7 4.188-8.907-1.808-1.328-5.822-1.697-10.532-2.344.32-1.147 1.285-2.341 2.719-2.53zM66 66.875c4.739.652 8.242 1.446 9.719 2.531 3.545 3.262-1.104 6.888-4.031 8.125-2.316.945-6.442.75-9.75.969l-1.032-6.906 2.344-.875 6.188 4.75c3.177-.43 5.003-1.38 5-3.031-3.62-5.285-7.332-4.447-10-4.032.18-.44 1.434-1.044 1.562-1.531zm-9.875.594c-.31 1.853-1.012 3.593-2.781 5.094l2.187 4.874c-2.29-1.483-4.152-3.542-4.406-4.812.205-2.737 3.014-4.235 5-5.156zm-12.625 3l14.781 14.406-.031 26.969-2.125-3.281-.469-4.22-2.25-2.874 3.032-6.656-3.094 5.562-.875-3.063-.125.063.531 3.844-.094.187 2.5 3.031.032 3.657-2.626-1.469-3.906-5.719-.156.031 3.438 5.657.03.031.032.063 3.531 2.062 1.75 3.906-14-12.156 2.313-1.719 2.218-1.156-.156-.063-2.062.72L45.656 95l.125-.125v-.031l1.375-1.719-1.468 1.281-.97-4.781-.124-.031.687 5.156-.093.094.062 3.625-2.094 1.125.344-29.125zm3.656 22.656l.157-.156v-.063l-.157.219zM84 74.531l.656 28.875-4.812-2.062.875-3.875 2.406-2.063-2.719-2.781-.187-.125 2.219 2.969-2.063 1.469-3.281-.97.25-1.624-2.094-2.313 1.688 2.531-.407 1.063-3.875-2.594.063.219 3.969 3.031 3.5 1-.72 3.5-2.156.844v.125l2.094-.156 4.875 2.937-24.719 9.031 1.032-2.218 8.031-2.375.063-.125-3.407.812.75-2.625-.062-.187-1.031 2.844-4.438 1.156-.531-2.813L63 105.625l2.031-1.938 2.156 1.032.063-.094c.97.536 2.25 1.438 2.25 1.438l.125-.22s-1.263-1.226-2.125-1.687l.969-1.812 2.75.906.094-.031-3-1.313-1.438 2.188-1.5-.813.188-3.281 2.406-1-2.719.688-.188 3.343-2.406 1.781-2.062-5 1.687-3.656-1.437-3.031 1 3.094-1.657 3.656 2.282 5.531-3.125 2.563.875 3.281-1.313 1.875.125-28.313L84 74.532zM42.312 97.125l-.093 3.563 16.343 14 26.907-9.876-.063-5.312 5.813 6.094-33.188 12.875-21-18.75 5.282-2.594zm-5.937 2.656l21.438 19.313.25 2.219-21.75-19.344.062-2.188zm55.563 6.188l-.126 1.719-33.406 13.374-.093-1.906 33.624-13.187z" fill="#5c2700" fill-rule="evenodd"/>
</svg>
