<svg xmlns="http://www.w3.org/2000/svg" xmlns:xlink="http://www.w3.org/1999/xlink" width="128" height="128" version="1.0"><defs><linearGradient xlink:href="#a" id="e" x1="56.079" y1="117.328" x2="85.006" y2="104.914" gradientUnits="userSpaceOnUse"/><linearGradient id="b"><stop offset="0" stop-color="#b49900"/><stop offset=".5" stop-color="#ffda0a"/><stop offset="1" stop-color="#c6a800"/></linearGradient><linearGradient id="a"><stop offset="0" stop-color="#b1b1b1"/><stop offset="1" stop-color="#e4e4e4"/></linearGradient><linearGradient xlink:href="#a" id="g" x1="44.643" y1="110.234" x2="46.111" y2="108.522" gradientUnits="userSpaceOnUse"/><linearGradient xlink:href="#a" id="m" x1="65.609" y1="117.848" x2="87.83" y2="106.84" gradientUnits="userSpaceOnUse"/><linearGradient xlink:href="#a" id="f" x1="43.848" y1="101.122" x2="56.752" y2="84.977" gradientUnits="userSpaceOnUse"/><linearGradient xlink:href="#a" id="n" x1="61.022" y1="110.632" x2="80.919" y2="76.324" gradientUnits="userSpaceOnUse"/><linearGradient xlink:href="#b" id="o" x1="23.914" y1="-16.908" x2="38.746" y2="34.768" gradientUnits="userSpaceOnUse"/><linearGradient xlink:href="#a" id="d" x1="46.967" y1="70.239" x2="78.768" y2="73.358" gradientUnits="userSpaceOnUse"/><linearGradient xlink:href="#b" id="i" x1="52.843" y1="47.395" x2="69.535" y2="44.324" gradientUnits="userSpaceOnUse"/><linearGradient xlink:href="#b" id="l" x1="66.382" y1="62.176" x2="75.691" y2="48.338" gradientUnits="userSpaceOnUse"/><linearGradient xlink:href="#b" id="k" x1="34.271" y1="37.669" x2="43.368" y2="33.345" gradientUnits="userSpaceOnUse"/><linearGradient xlink:href="#b" id="j" x1="64.346" y1="21.103" x2="55.697" y2="33.5" gradientUnits="userSpaceOnUse"/><linearGradient xlink:href="#b" id="h" x1="50.028" y1="72.801" x2="101.381" y2="31.524" gradientUnits="userSpaceOnUse"/><filter id="c"><feGaussianBlur stdDeviation="1.932"/></filter></defs><metadata/><g fill-rule="evenodd"><path d="M10.371 46.277c.615 1.764.71 3.607 1.644 5.323 3.59 4.056 7.434 8.17 10.864 12.191-1.051.026-2.537.861-2.527 1.813-.855 1.158 1.296 1.109 2.625 1.314.261.52-.239 1.831.476 2.734.689.831 1.695 2.392 2.947 1.245 1.217-.625 2.49-1.144 4.266-.696 2.461.277 5.06.414 7.433.944 2.153 1.258 4.61 2.355 5.82 4.105 1.206.92 1.598 1.892 1.112 2.92 1.327.737.83 1.995 1.07 3.003-.149.98.793 2.258.385 3.06-4.083 1.11-9.85 4.179-13.99 5.218 1.093 5.783 2.187 5.685 3.281 11.468-1.984.709-1.001.753-3.036 1.41 4.54 6.62 16.437 15.344 23.899 19.28 6.708-4.107 28.874-9.795 32.972-15.418-.793-2.34-7.042 2.383-9.344.355-1.514-5.399-3.048-10.797-4.574-16.195-3.304-1.68-6.62-3.351-9.928-5.028-.372-2.605 1.854-4.823 1.191-7.467-.221-3.448-1.678-6.969-3.762-10.315-1.832 1.112-3.822 2.427-6.444 2.906.208-1.012.688-2.023-.392-3.037-.465-1.364-2.674-1.906-4.497-2.094-2.976-.565 1.518-1.29-.123-1.984-2.787-1.153.002-1.023-.394-1.916-.94-.962-1.593-1.912-.907-2.887.593-1.621-.033-3.467-1.523-5.033-1.281-1.815.07.628-.417 1.242-.308 1.005-.511 2.038-1.208 2.934-1.45-.751-2.82-.992-4.14-.33-1.169.812-2.337 1.442-3.497-.039-1.776-1.328-3.051-2.884-4.615-4.309 1.087 2.142.511 4.513 2.88 6.42.572.916 3.367 1.38 2.764 2.376-.321 1.05.553 1.852 1.014 2.796 1.176 1.4-.106 1.662-1.988 1.648-2.05-.127-2.547 1.582-4.368 1.658a26.317 26.317 0 01-5.351-2.7c.339-.818 1.552-2.226-.265-2.697-1.253-.295-3.038 1.008-3.499-.288-2.907-4.117-6.088-8.185-8.194-12.448l-7.66-3.482z" fill-opacity=".706" filter="url(#c)"/><path d="M42.503 70.208L57.73 84.335l25.135-10.152L68.188 61.28l-13.393 3.975-12.292 4.953z" fill="url(#d)"/><path d="M35.653 99.44l21.405 19.326 33.757-13.149-9.846-9.907-38.16.306-7.156 3.425z" fill="url(#e)"/><path d="M42.136 70.025l-.428 30.577 15.961 13.516.061-29.844-15.594-14.25z" fill="url(#f)"/><path d="M35.103 99.563l-.306 2.263 22.138 19.997.49-.244-.367-2.875-21.955-19.141z" fill="url(#g)"/><path d="M70.063 63.125l-7 2.188-7.626 13.124-.687 2.438 2.938 3.719 25.25-10.469-12.876-11zm13.75 35.813l.343 5.53-26.469 9.688-.687 4.938 34.063-13.5-7.25-6.656z" fill="#fff" fill-opacity=".125"/><path d="M55.331 78.326l-3.27-2.298-2.033-2.74.088-2.21 2.563-2.829 2.829-.972 8.839-.53 2.563.353 5.834 1.061 2.298.972 1.414 3.27-2.033 3.271-4.42 2.21-5.568.972-3.447-.088-5.657-.442z" fill="url(#h)"/><path d="M28.195 7.524l.173 7.611 8.302 18.94-2.421 1.211-.952 2.682 3.027.864-.692 1.557.173 2.854 1.298 2.422 3.719-2.162 5.102.778 3.979.778 3.805 3.806 2.249 4.757-.606 2.421.692.692-.173 2.422-.26 2.508.087 5.535c.165 2.402-1.78 3.99-3.228 5.47l2.796 5.514 1.384 2.421 1.556.52 1.817-.693.951-1.556-1.563-7.34 3.16-.956 5.938 4.44c1.424-.357 2.707.551 4.341-1.704l-.688-2.44c-2.807-2.93-5.688-2.831-8.819-2.444l1.004-1.664.778-1.644 1.99-1.297 3.891 1.557 3.287 2.94.346-3.632 2.421-6.4.433-3.978v-6.141L76.54 41.6l-.52-1.816-1.816 1.557-2.94 1.902-2.422 1.125.865-3.027-.865-3.114-1.297-1.21-2.335-.606-.865-.433-.087-.605 1.817-1.384-1.903-2.248 1.73-.52-1.211-3.026 1.21-3.633.087-3.373-1.384-3.978v2.421l-1.297 3.633-.865 1.557-2.075-1.298-1.99.779-2.248 1.643-1.903-2.595-2.94-5.621.172 2.075v2.076l.173 3.46 1.298 2.68 2.335 2.163-.52 1.124-.086 2.422.433.26.346 3.459-3.806.519-2.94 2.335h-.606l-2.508-1.73-2.248-2.422 1.297-3.46-.951-.605-3.027.692-4.152-13.146-1.47-6.832-6.832-5.276z" fill="url(#i)"/><path d="M42.378 70.14l13.8-5.068c-1.095.598-.24 1.092-.773 2.24-.034 2.746-2.018 4.357-2.643 5.616.872 2 .923 2.944 2.359 5.13.503.767-.85 2.342-.457 3.197.59 1.284 2.867 1.978 3.109 3.156l-.087 29.838-.778 4.756.173 2.768-22.054-19.805.087-2.25 6.486-3.286.778-26.291z" fill-opacity=".157"/><path d="M51.563 18.5v6l2.062 4.125 1.688 1.875-.563 3 2.875-1.438 3.813-.312 4.374-.688-1.062-2.937-1.688-2.438-2.187-1.5H58.75l-1.688 1.25-.874 1-1.563-1.937-1.563-3.188-1.5-2.812z" fill="url(#j)"/><path d="M42.688 32.094l-1.594.5-.563.125.25 1.218-.656 1.157-.938.562-1.28-.25-.782-.312-.625-1.219-2.063 1.344-.937 1.906-.094 1.156 3.782.813 2.374-.063 1.782-.687L43 37l1.406-2.875-.062-1.469-1.657-.562z" fill="url(#k)"/><path d="M75.719 40l-2.531 2.125-3.157 1.781-5.156 1.219-2.125.313 1.031 10.343-.5 6.532 3.688 1.53 5.062 2.282 2.406 2.313-.124-2.5 2.437-7.094.844-5.344v-3.594l-.719-6.656L75.719 40z" fill="url(#l)"/><path d="M57.18 118.766v2.935l34.064-13.821.06-2.324-34.124 13.21z" fill="url(#m)"/><path d="M57.486 114.118l.367-29.6 25.44-10.396.734 30.456-26.541 9.54z" fill="url(#n)"/><path d="M28.107 7.438l.442 7.867 8.75 19.799 1.415.707.707-.265 1.326-1.503s-5.215-20.683-5.745-21.301c-.53-.62-6.806-5.215-6.895-5.304z" fill="url(#o)"/></g><path d="M28.063 6.813l.093 8.562 8.157 18.406c-3.114 1.57-3.323 3.083-3.344 4.657 1.11.355 2.09.544 3 .687-1.33 1.958-.472 4.273.937 6.688 1.685.047 3.407-1.726 4-2.22l8.5 1.72c2.762 1.73 5.442 4.363 6.094 8.624.323.558-.445 2.015-.5 2.657l.688.187.03 2.032c-.43 1.957-.29 3.999-.343 6.03l-13.406 5.344-.657 26.25c-2.111 1.154-4.415 2.2-6.562 3.126l-.094 2.312 22.094 20.219 34.75-13.969.125-2.563-7.344-6.687-.875-24.625-8.812-7.781c.346-2.864 1.555-5.45 2.562-8.094 1.13-6.453.494-12.73-1.062-18.938-2.015 1.917-4.328 3.712-6.813 4.594 1.319-3.461.798-6.74-3.687-7.687-.043-.28-1.13-.422-1.156-.719-.098-.44 2.106-1.247 2-1.688-.174-.716-1.639-1.19-1.813-1.906.159-.617 1.623-.523 1.563-1.031-.138-1.165-.646-2.082-1.188-2.906 1.713-3.872 1.813-8.03-.594-11.438.432 2.752-.382 5.105-1.937 7.813-1.945-1.725-4.222-.992-6.282 1.468-2.183-2.504-3.33-6.552-5.468-9.125 1.818 4.33-1.393 9.707 4.093 13.25l-.5 3.594.407.532c.093 1.011.216 2.014.375 3-2.438.878-4.257-.173-6.75 2.968-1.599-.298-3.259-2.514-4.438-4.156.772-1.563.796-3.16.844-3.5.306-.37-2.644-1.03-4.219.094l-5.343-19.969-7.126-5.813zm1.062 1.812l5.406 4.469 5.875 20.75c-.568 1.657-1.146 2.058-2.906 1.218l-8.625-19.718-.094-6.625 9.782 24.656-9.438-24.75zm35.688 9.656c1.306 2.965 1.344 5.566-.376 8.938-.145-.23-.3-.465-.406-.688-.316-.585-.623-1.09-.969-1.5.513-1.59 1.851-3.69 1.75-6.75zM51.75 19.656c2.552 3.201 2.678 8.548 7.656 8.594-.052.867.392 1.8-2.062 2.156-4.39.173-6.256-7.541-5.594-10.75zm7.688 4.563c.154-.018.313-.012.468 0 1.326.096 2.652 1.235 3.532 2.562.97 1.577 1.773 2.315 1.968 4.157l-8.031.968-2.563 1.469c-.024-.9.467-2.042.657-2.906.397.218.804.455 1.281.656 2.407-.222 3.842-1.037 3.563-2.969-1.577-.122-2.76-.84-3.75-1.843.77-1.161 1.795-1.972 2.874-2.094zm4.312 7.406c-.146.572 1.418 1.717 1.563 2.563.08.472-1.31.841-1.313.968.163.873.592 1.827.781 2.438l-3.781 1-5.5-2.875c-.074-.423-.14-.858-.188-1.282.502-1.114 1.302-1.983 2.938-2.124l5.5-.688zm-21.094.844c1.113-.084 1.941.28 1.25 1.093-1.26 7.528-8.301 4.895-9.937 4.407-.537-1.79 1.471-2.795 2.531-3.719l.5 1.094c3.535 1.378 3.264-.458 3.906-1.407l-.218-.874a4.925 4.925 0 011.968-.594zm12.938 3.75c2.446.865 4.39 4.212 9.468 1.656.389 1.475.136 3.196-2.968 4.125-1.706 1.108-4.29-.58-5.844-3.125-.236-.872-.478-1.75-.656-2.656zm-12.032.375c1.935 3.307 5.638 4.616 8.97 5.812.153 1.16 1.548 2.834-1.72 2.625l-9.343-1.937c1.407-1.513.926-2.168.968-3.063-.435 2.383-2.998 4.026-5.062 5.219-2.101-1.361-1.713-4.639-.906-6l-.094-.063c4.033.523 6.119-.899 7.188-2.593zm22 .125c2.41.091 4.97 1.596 3.032 7.281-2 .652-4.11.809-6.219 1.219.185 3.131.63 6.324.875 9.5-2.07 1.384-5.357 2.317-7.688 1.562l.844-2.5c-1.755-2.851-2.737-6.141-5.781-8.187l.969.156c3.846-.832 1.59-2.146 1.625-3.875-1.426-.412-2.91-.792-4.313-1.344 2.59-2.575 3.948-2.136 6.282-2.75.06.38.133.775.187 1.157 2.314 2.974 4.86 4.944 8.281 2.843 2.351-1.227 2.171-3.369 1.907-5.062zm10.22 3.531c1.96 5.736 2.156 12.076.937 17.813-1.054 2.946-3.092 6.37-2.625 9.968-2.432-3.588-7.396-3.934-10.5-5.687 1.023-4.942-.09-11.742-.625-16.782 1.7-.454 3.938-.587 5.937-1.187 2.391-.718 4.969-2.307 6.875-4.125zm-3.75 4.875l-3.313 1.063.562 4.406h.313l-.5-4.188 3.031-1.062-.094-.219zm-11.813.219c-1.464 1.85-1.026 3.711-4.625 5.562l.468-.062c3.582-.768 2.863-3.524 4.313-5.407l-.156-.093zm13.593 3.312l-.374.032.28 2.406 3.25-.657-.187-.28-2.75.624-.219-2.125zm-5.062 2.625L64.687 52l.188 2.219.313-.063-.282-2.062 3.813-.594.031-.219zm8 .813l-3.063.875.344 3.25.438-.094-.375-2.938 2.687-.812-.031-.281zm-13.438 3.25c.165 2.4.198 4.81-.093 7.125.85.43 2.2.942 3.062 1.281-2.323.834-2.146 3.22-3.031 4.875 5.127-.338 9.106.61 9.063 4.219.076 1.95-2.548 1.672-3.563 1.875l-6.219-4.406-.375.093c1.052-3.806.339-7.43-.968-11l-.094.188c1.173 3.828 1.447 7.507.437 11.093l-2.406.47 1.156 7.062c.847.991-1.992 3.699-3.781 1.75l-3.625-7.313c5.208-4.482 2.211-8.955 3.313-13.437v-.094l.093-2.313c2.069.764 5.058-.788 7.032-1.468zm7.47.687l-2.75.469.093.219 2.25-.438.531 4.907.438.03-.563-5.187zm-3.532 8.125c2.479.96 4.946 2.016 7.25 4.375a12.547 12.547 0 010-1.281l7.906 6.844-24.344 9.719-15.218-13.594 12.468-4.906c-.021.397-.046 1.171-.093 1.562-3.217 1.295-5.372 2.367-5.688 6 .447 2.231 2.682 3.827 5.282 5.375l.062-.094L56 80.72c1.275.964 3.593 1.475 5.375-1.375 3.555-.27 6.94-.362 9.5-1.406 4.414-1.76 7.614-4.7 4.188-8.907-1.808-1.328-5.822-1.697-10.532-2.344.32-1.147 1.285-2.341 2.719-2.53zM65 66.875c4.739.652 8.242 1.446 9.719 2.531 3.545 3.262-1.104 6.888-4.031 8.125-2.316.945-6.442.75-9.75.969l-1.032-6.906 2.344-.875 6.188 4.75c3.177-.43 5.003-1.38 5-3.031-3.62-5.285-7.332-4.447-10-4.032.18-.44 1.434-1.044 1.562-1.531zm-9.875.594c-.31 1.853-1.012 3.593-2.781 5.094l2.187 4.874c-2.29-1.483-4.152-3.542-4.406-4.812.205-2.737 3.014-4.235 5-5.156zm-12.625 3l14.781 14.406-.031 26.969-2.125-3.281-.469-4.22-2.25-2.874 3.032-6.656-3.094 5.562-.875-3.063-.125.063.531 3.844-.094.187 2.5 3.031.032 3.657-2.626-1.469-3.906-5.719-.156.031 3.438 5.657.03.031.032.063 3.531 2.062 1.75 3.906-14-12.156 2.313-1.719 2.218-1.156-.156-.063-2.062.72L44.656 95l.125-.125v-.031l1.375-1.719-1.468 1.281-.97-4.781-.124-.031.687 5.156-.093.094.062 3.625-2.094 1.125.344-29.125zm3.656 22.656l.157-.156v-.063l-.157.219zM83 74.531l.656 28.875-4.812-2.062.875-3.875 2.406-2.063-2.719-2.781-.187-.125 2.219 2.969-2.063 1.469-3.281-.97.25-1.624-2.094-2.313 1.688 2.531-.407 1.063-3.875-2.594.063.219 3.969 3.031 3.5 1-.72 3.5-2.156.844v.125l2.094-.156 4.875 2.937-24.719 9.031 1.032-2.218 8.031-2.375.063-.125-3.407.812.75-2.625-.062-.187-1.031 2.844-4.438 1.156-.531-2.813L62 105.625l2.031-1.938 2.156 1.032.063-.094c.97.536 2.25 1.438 2.25 1.438l.125-.22s-1.263-1.226-2.125-1.687l.969-1.812 2.75.906.094-.031-3-1.313-1.438 2.188-1.5-.813.188-3.281 2.406-1-2.719.688-.188 3.343-2.406 1.781-2.062-5 1.687-3.656-1.437-3.031 1 3.094-1.657 3.656 2.282 5.531-3.125 2.563.875 3.281-1.313 1.875.125-28.313L83 74.532zM41.312 97.125l-.093 3.563 16.343 14 26.907-9.876-.063-5.312 5.813 6.094-33.188 12.875-21-18.75 5.282-2.594zm-5.937 2.656l21.438 19.313.25 2.219-21.75-19.344.062-2.188zm55.563 6.188l-.126 1.719-33.406 13.374-.093-1.906 33.624-13.187z" fill-rule="evenodd"/></svg>