<svg xmlns="http://www.w3.org/2000/svg" xmlns:xlink="http://www.w3.org/1999/xlink" width="128" height="128" version="1.0"><defs><linearGradient xlink:href="#b" id="h" x1="52.5" y1="35.313" x2="73" y2="40.313" gradientUnits="userSpaceOnUse"/><linearGradient id="c"><stop offset="0" stop-color="#8dbbdc"/><stop offset="1" stop-color="#dadada"/></linearGradient><linearGradient id="b"><stop offset="0" stop-color="#b49900"/><stop offset=".5" stop-color="#ffda0a"/><stop offset="1" stop-color="#c6a800"/></linearGradient><linearGradient xlink:href="#a" id="e" x1="27.522" y1="101.362" x2="39.765" y2="89.773" gradientUnits="userSpaceOnUse"/><linearGradient xlink:href="#a" id="f" x1="49.297" y1="117.449" x2="64.346" y2="94.962" gradientUnits="userSpaceOnUse"/><linearGradient xlink:href="#a" id="g" x1="82.854" y1="104.562" x2="90.984" y2="88.649" gradientUnits="userSpaceOnUse"/><linearGradient id="a"><stop offset="0" stop-color="#b1b1b1"/><stop offset="1" stop-color="#e4e4e4"/></linearGradient><linearGradient xlink:href="#b" id="i" x1="62.125" y1="28.813" x2="68.5" y2="31.188" gradientUnits="userSpaceOnUse"/><linearGradient xlink:href="#b" id="j" x1="67.688" y1="25.875" x2="69" y2="17.063" gradientUnits="userSpaceOnUse"/><linearGradient xlink:href="#c" id="l" x1="62.314" y1="72.649" x2="58.037" y2="72.13" gradientUnits="userSpaceOnUse"/><linearGradient xlink:href="#c" id="k" x1="55.662" y1="63.875" x2="59.353" y2="64.74" gradientUnits="userSpaceOnUse"/><filter id="d"><feGaussianBlur stdDeviation="1.009"/></filter></defs><metadata/><g fill-rule="evenodd"><path d="M30.25 108.25c-2.127.709-11.287-6.904-6-16.5 3.416-6.201 13-10.5 13-10.5l-6-24L24 61.5l-2-4.75L30.25 54l-3-4.75 7.25-5.5-.25 8.5L41 50.5l1 3.75L36.75 56l3.75 22.25s6.25-1.5 10 .25 7.25 5 7.25 8.75-22.25 25.75-27.5 21z" fill-opacity=".557" filter="url(#d)"/><path d="M47.222 84.93l-4.152-1.384-3.978 1.903-6.746 3.805-1.557 1.557-.519 1.557-1.038 1.902-1.73 3.46-1.037 2.075 1.21 3.979 2.941 3.286H32l1.384-9.167 2.075-4.152 3.633-3.286 4.324-2.422 3.806-3.113z" fill="url(#e)"/><path d="M53.795 78.357l-1.73 1.384-3.114 2.075-1.73 3.114-4.324 3.978-5.016 2.768-2.422 3.113-3.286 6.4v5.708l-.692 2.94c.587 2.771 2.09 3.25 3.287 4.498 0 0 2.94 1.384 4.15 2.422 1.212 1.038 3.287.692 5.017 1.73 1.73 1.037 4.843 1.556 4.843 1.556l4.67 2.076 5.19 2.595 3.286.691 4.67-.691 2.422-1.211 3.114-3.287 3.978-2.248 2.768-7.438 1.556-5.708-.605-4.498-.865-2.162-.432-5.794-4.498-4.844-5.535-2.594-7.438-3.287-1.383-2.767-.692 2.075-2.422.173-2.421-1.73-.346-1.037z" fill="url(#f)"/><path d="M80.086 107.243l1.73 1.557 3.287.865 6.4-1.384 3.286-1.384 2.076-1.73L96 99.806l-2.076-5.189-1.73-3.978-2.94-3.287-2.595-1.73-4.324 1.211s-3.286.52-3.978.52c-.692 0-5.362-.174-5.362-.174l4.324 3.114 1.038 2.422.519 3.805-.087 1.73c.995 1.383 1.727 2.767 1.125 4.151l.172 4.843z" fill="url(#g)"/><path d="M62 39.25H50l.875-1.75 1.25-5.875 6 2.875L68 36.75h8l-1.25 3.5-1 4.25-2.875-2.125-4.5-2.5L62 39.25z" fill="url(#h)"/><path d="M60.5 34.75s1.375-3.875 1.375-4.375.375-6.625.375-6.625L71.5 26l-1.875 2.625-1.75 4-.25 3.75-4.125-.75-3-.875z" fill="url(#i)"/><path d="M62.25 23.875l-2-1.875.25-1.125 2.25-.125 4.75.125s3.25.75 4.875 1.5 2.75 2.375 2.75 2.375l-.75.625-3 .5-4.625-1-4.5-1z" fill="url(#j)"/><path d="M54.624 79.475l5.038-40.482 4.42.353-7.779 41.455-1.679-1.326z" fill="url(#k)"/><path d="M63.816 39.612l-7.336 41.1 2.21.265 9.457-40.481-4.33-.884z" fill="url(#l)"/><path d="M47.222 84.93l-4.152-1.384-3.978 1.903-6.746 3.805-1.557 1.557-.519 1.557-1.038 1.902-1.73 3.46-1.037 2.075 1.21 3.979 2.941 3.286H32l1.384-9.167 2.075-4.152 3.633-3.286 4.324-2.422 3.806-3.113z" fill-opacity=".157"/><path d="M32.875 102.875l1.25-5.375 4.25-6.75.875.25-2.875 6-.125 6.75c-1.066-.41-1.715-1.653-3.375-.875zM43.5 102.25c0-.5 1.5-3 1.5-3l5.75-1-1.25 3.125 1.625 10.5c-1.387-2.38-1.508-7.796-4.375-6.625.226-2.963-1.526-2.96-3.25-3zM13.875 103.375c2.929 2.873 1.99 3.988 1.375 5.25 5.794-1.837 11.215-3.114 14.375-1l-1.75-3.5-6.625 1.625-3.375-.75-4-1.625zM61.5 117.125c.125-.5 3.75-2.625 3.75-2.625l3-5.625.125-3.625 3.875 5-.625 4.375L70.25 119c-1.321-3.825-5.108-3.354-8.75-1.875zM74.875 102.875l-4.75-6.625-4.5-5.75v2.125l1 4.875.375 4.25c2.115-4.47 5.152-.181 7.875 1.125zM87.375 103.125c.918-3.453 3.007-2.221 4.875-1.875l-3.625-3-2.375-1.375 1.625 4.25-.5 2zM106.625 118.125l-4.5-4.875-1.5-.375.25 6c1.712-2.707 3.71-1.991 5.75-.75zM77.5 115.125l2.5-7.75 3 2.25h3.125c-3.279.891-6.339 2.293-8.625 5.5z" fill-opacity=".157"/></g><path d="M61.625 3.906l-.125.188c-.652 4.22.706 8.104 2 12l.375-.063c-.159-4-.474-8.125-2.25-12.125zm-20.063.344c2.17 4.832 3.927 9.802 8 14l.126-.125c-1.293-4.667-4.537-9.208-7.75-13.875h-.376zm48.094 1.375c-3.53 2.606-7.114 5.104-10 9l.063.125c4.127-1.81 7.07-4.958 9.875-8.75l.062-.375zM26.75 17.438c4.16 3.848 8.84 6.484 14 8h.125c-3.745-3.589-8.132-6.41-13.875-8h-.25zm35.906 2.843a10.48 10.48 0 00-1.968.219c-1.099.673-.849 1.238-.407 2.25.284.381.72.807 1.282 1.281.011.106.021.208.03.313-.61.479-.958 1.146.063 1.625.004.685-.027.772-.093 1.437-.932.173-1.334 1.148-.157 1.907-.114.735-.273 1.212-.437 1.937-.571-.072-1.094.58-.282 1.438-.176.707-.345 1.101-.53 1.812l-8.844-3.688c.944 3.554-.39 6.282-2 8.907l10.28-.032-5.187 38.126c-.073-.01-.584.07-.656.062l-1.188 1.313c-1.487.096-2.615 1.302-3.718 2.406l-.063.031-.031.063a14.79 14.79 0 01-1.5 2.124c-2.004-.287-3.804-.578-5.688.157V84c-.008.006-.023-.006-.03 0-4 2.019-8.22 3.282-11.157 6.844-.36 1.596-1.005 3.316-1.938 4.625-.95 1.266-2.274 2.172-2.437 3.937.13 1.216.52 2.372.969 3.5-2.256.183-4.336 1.384-6.344 2.375-.437-.395-2.037-.052-2.875-.406-3.016-1.872-6.308-2.47-9.75-2.094l-.25.094c3.35-.047 6.708.871 9.688 2.375.674.334 2.244.608 3 .719-2.519 1.64-6.083 2.817-8.094 5.469l.156-.032c2.053-2.707 5.689-3.105 8.594-5.219 1.825-1.026 4.42-1.34 6.562-1.656.764 1.346 1.522 3.195 3.188 4.094-.322 1.414.07 1.876.531 3 3.217 6.21 11.24 7.06 17.313 8.844h.062c2.298.709 4.12 1.975 6.063 3.094 1.943 1.118 4.003 2.616 6.656 2.687 2.73.01 4.99-.174 7-1.906 1.752-1.783 3.515-3.255 5.687-4.5 3.324-1.93 4.472-5.975 5.25-9.5.272-.775.507-1.56.75-2.344.893 1.037 2.113 1.982 3.656 2.063h.094c2.075-.244 5.311-.41 8.125-1.126 1.676 2.195 5.476 3.017 8.094 4.063-.13 1.894.787 4.168.688 6.063l.093-.126c.162-1.828.115-3.666.188-5.5 1.1.573 1.997 1.194 2.437 1.782 1.136 1.515 3.406 4.093 4.656 5.344l.22-.063c-1.186-1.185-2.981-4.433-4.063-5.875-1.673-1.853-4.068-2.739-6.344-3.625 3.98-1.704 7.445-1.249 11.375-.594l-.063-.062c-5.664-1.245-7.969-.617-12.75-.25l-2.687-1.781c3.24-1.317 4.296-3.767 3.031-7.157A27.413 27.413 0 0091.875 90.5c-1.488-2.319-2.905-5.086-6-5.063l-.031.032h-.031c-3.594 1.543-9.005 1.253-12.626 1.281-3.674-2.005-8.132-3.512-12.187-5.313-.469-.208-.304-2.6-.781-2.75L68 41.594l6.281 3.593c-.05-3.032.698-6.06 2.531-9.093a44.956 44.956 0 01-8.906-.032c.045-.227.08-.46.125-.687.342-.227.517-.461.156-.688.15-.728.307-1.435.5-2.156.66-.205.665-.56.282-1 .146-.461.313-.916.5-1.375.411-.156 1.036-.17.437-1 .16-.324.341-.644.531-.968.658.1.592-.403.563-.875.199-.291.395-.584.625-.875.918.277 2.509-.292 3.563-.688.921-.637.668-.964.374-1.844-2.039-1.494-4.597-2.137-7-2.843-1.928-.414-3.928-.832-5.906-.782zm.875.844c1.599-.044 3.296.214 4.844.5 2.364.595 5.2 1.306 6.563 3.063-1.075.686-2.269.92-3.563.906-3.07-.506-6.1-1.09-8.938-2.063-.788-.48-1.943-1.082-1.624-1.937.825-.295 1.759-.443 2.718-.469zm37.313 3.406c-4.667.826-9.334 2.864-14 5l.187.313c4.851-.562 9.607-2.568 14.125-5.125l-.312-.188zm-38.313.032l2.157.718 4.062 4.125c-.24.543-.631 1.647-.813 2.188l-5.374-6.313c-.008-.24-.015-.475-.032-.718zm3.688.843l2.406.688 1.156 1.375c-.203.334-.608 1.166-.781 1.5l-2.781-3.563zm3.875.907l.375.093c-.046.063-.331.78-.375.844v-.938zm-7.531.625l5.218 5.156c-.146.516-.383 1.768-.5 2.281l-4.875-5.719c.076-.628.132-1.07.157-1.718zm-.313 2.968l4.844 4.844c.21-.085-.1.898-.156 1.188-.22-.032-1.312-.185-1.532-.22l-3.594-3.78c.152-.676.322-1.34.438-2.032zm-9.656 2.969c7.109 2.968 14.843 4.817 22.625 4.469l-1.781 6.093c-8.483-6.31-15.184-4.607-22.344-4.968l1.5-5.594zm8.937.188L64.5 35.53a53.982 53.982 0 01-3.375-.781c.144-.555.268-1.126.406-1.688zm-34.343 5.906c-1.381.01-2.802.102-4.25.281v.25c5.105 2.487 10.573 1.205 16 1.125l.124-.125c-3.866-.9-7.733-1.562-11.874-1.531zm32.656.562l3.875.563L56.187 80c-.439-.097-.885-.176-1.312-.25l4.969-40.219zm4.062.782l3.75.718-9.062 39.532-1.844-.313 7.156-39.938zM84.094 41.5l-.063.25c5.13 1.51 10.224 3.108 16 3l.063-.25c-4.71-2.039-10.305-2.603-16-3zm-3.719 9.156l-.25.438c1.654 3.427 6.147 6.884 10 10.625l.25-.063c-3.063-4.027-5.978-8.252-10-11zm-39.531.875c-6 .694-10.5 3.106-16.5 5.75l.062.438c5.44-.786 11.01-2.918 16.625-5.875l-.187-.313zm30.718 8.719c2.233 4.717 3.888 9.723 8 13.5l.126-.5c-1.374-4.759-4.994-8.543-7.876-13h-.25zm-25.406.625c-3.578 2.426-7.033 5.055-9.625 9.125l.063.25c4.404-2.085 6.919-5.657 9.75-9l-.188-.375zm7.438 18.531c.087-.028.172-.013.25 0 .444.073.557 1.621.625 1.625.426.73-.034.88.718 1.313.88.506 1.884.881 2.876 1.281 1.982.8 3.823 1.658 4.468 3.406.932 1.186 1.463 2.59 2.032 3.969.598 1.879 1.542 4.102 1.843 6.188-.108 2.023-.393 4.028.438 5.874.526.878.566 2.123 1.062 2.907.036 1.48.308 2.29-.437 3.562-1.12 3.666-3.376 5.462-6.25 7.438l.031.25c3.562-1.218 5.235-4.128 7.094-7.188.539-.92.627-1.783.844-2.844.318.553 1.003 1.066 1.374 1.72.31.545.604 1.074.813 1.53.209.457.313.87.313.97-.006 3.036-.857 6.405-2.563 8.968-1.706 2.563-4.194 4.313-7.625 4.344-2.42-.065-4.287-.938-6.188-2.031-1.893-1.09-3.797-1.863-6.25-2.626-2.951-1.211-6.043-2.59-9.062-3.624 1.31-1.279 1.269-2.475 2.563-3.626 1.475-1.312 2.745-2.576 3.124-4.093.558-2.231 1.904-4.907 3.376-7.031.407 3.601 1.087 7.988 2.406 11.437l.218-.125c-1.397-3.654-1.154-7.89-1.593-11.844.673-1.052 1.28-2.169 1.718-3.375-.046-1.176.033-2.248.657-3.187.642-.642 1.91-1.215 2.812-2.125l-.093-.25c-.797.803-2.231 1.137-3 1.906-.719.717-1.207 1.722-1.282 3.188-1.89.76-3.949.98-5.937 1.374-1.235.973-1.447 2.533-1.782 4l.25.438c.152-1.266 1.426-2.87 2.094-3.906 1.589-.451 3.163-.168 4.782-.5-1.651 3.27-4.669 6.046-5.594 9.75-.28 1.12-2.094 2.222-3.532 3.5-1.358 1.208-1.4 2.26-2.843 3.719-2.32-.874-4.72-2.41-6.032-4.438-.569-1.386-.505-2.94.47-5.156-.013-5.596 1.76-10.08 5.374-14.25-.86 1.719-1.843 3.81-2.375 5.937-.509 2.21-.202 4.355.407 6.5l.343-.156c-.54-1.987-.37-4.048-.187-6.094.669-2.607 3.293-5.795 4.25-7.687 3.637-2.29 6.534-4.033 8.937-8.031.946-.947 1.422-1.527 2.594-1.626.086-.007.858-1.084 1.469-1.28zm6.125.594c.053-.03.14-.027.218 0 .296.102.666 2.517.97 2.625 3.892 1.386 8.522 3.348 11.687 5.063.242.295 1.043.578 1.5.843 1.902 1.015 3.015 2.327 3.687 3.906.672 1.58.898 3.42.969 5.47 1.976 4.079.979 8.014-.281 12.124-.518 3.644-2.042 6.576-4.813 8.969-2.062.804-3.16 2.449-4.562 4.063-.628.52-.28-.72-.594-.563 1.96-2.885 3.999-7.681 4.188-11.094 0-.445-.176-.87-.407-1.375a21.319 21.319 0 00-.844-1.625c-.634-1.115-1.351-2.244-1.562-2.719-.53-1.192-1.645-2.272-2.156-3.124-.806-1.345-.844-3.711-.844-5.282v-.062c-.173-1.284-.718-4.91-1-6.219 1.342 1.701 3.071 5.596 5.031 6.938 1.613 1.818 3.153 3.613 4.219 5.718l.344-.219c-1.138-2.245-2.193-4.36-3.813-6.187l-.062-.031c-2.442-1.707-3.934-4.328-5.656-6.688-.484-1.423-1.554-2.61-2.47-3.844-.927-2.052-2.822-2.682-4.78-3.437-1.004-.405-1.16-1.334-1.938-1.781 1.293-.28 1.546-.171 2.25-.031.505.159.348-1.233.719-1.438zM42.78 84.188c1.048.017 2.132.602 3.125.937-2.88 2.763-5.976 4.334-9.281 6.531v.031h-.031c-4.873 3.903-3.305 10.065-5.157 15.157-1.412-.805-2.323-1.713-2.968-2.844-1.777-3.177-1.601-5.49.406-8.375.902-1.202 1.884-2.516 2.313-4.188 2.88-3.204 6.876-4.953 10.562-7.03a2.42 2.42 0 011.031-.22zm43.344 1.687c2.56.191 3.724 3.405 5.031 5.313 2.57 2.876 3.749 6.503 4.781 10.218v.031l.032.063c1.524 3.12-.057 4.81-2.813 6.063-2.817 1-6.758 1.209-9.281 1.5-1.564-.173-2.41-1.166-3.406-2.25.728-2.93.056-5.608-1.5-8.844-.073-2.101.468-4.176-.281-5.938-.71-1.67-2.355-2.909-4.25-4 1.825.006 4.317-.19 6.406-.406 1.981.913 2.998 1.924 3.75 3.969.304 1.96.353 3.925 1.625 5.5.195 1.226.806 2.83 1.156 4.187.159 1.049.013 1.944-1.031 3.469l.094.313c1.128-1.649 2.129-2.671 1.937-3.938-.14-.923-.5-1.823-.875-2.938 1.755 1.172 3.577 2.04 5.063 3.532v-.375c-1.449-2.46-4.545-3.149-6.47-5.156-.491-1.45-.227-3.346-.53-4.844-.357-1.907-.91-3.458-2.47-4.375 1.289-.214 1.92-.623 3.032-1.094z" fill-rule="evenodd"/></svg>