<svg xmlns="http://www.w3.org/2000/svg" xmlns:xlink="http://www.w3.org/1999/xlink" width="128" height="128" version="1.0"><defs><linearGradient xlink:href="#c" id="n" x1="50.381" y1="34.574" x2="56.657" y2="52.251" gradientUnits="userSpaceOnUse"/><linearGradient id="d"><stop offset="0" stop-color="#e3cf6f"/><stop offset="1" stop-color="#faeca9"/></linearGradient><linearGradient id="a"><stop offset="0" stop-color="#6a3c1d"/><stop offset="1" stop-color="#8f5127"/></linearGradient><linearGradient xlink:href="#a" id="h" x1="9.514" y1="82.595" x2="11.589" y2="87.005" gradientUnits="userSpaceOnUse"/><linearGradient xlink:href="#a" id="i" x1="46.486" y1="112.303" x2="47.222" y2="116.281" gradientUnits="userSpaceOnUse"/><linearGradient xlink:href="#a" id="j" x1="77.751" y1="76.411" x2="79.395" y2="76.411" gradientUnits="userSpaceOnUse"/><linearGradient xlink:href="#a" id="k" x1="120.303" y1="82.378" x2="122.292" y2="84.8" gradientUnits="userSpaceOnUse"/><linearGradient id="b"><stop offset="0" stop-color="#c223c2"/><stop offset="1" stop-color="#ff00dc"/></linearGradient><linearGradient xlink:href="#b" id="l" x1="75.66" y1="17.382" x2="78.135" y2="13.316" gradientUnits="userSpaceOnUse"/><linearGradient xlink:href="#c" id="m" x1="62.097" y1="58.638" x2="69.881" y2="26.465" gradientUnits="userSpaceOnUse"/><linearGradient id="c"><stop offset="0" stop-color="#7d9cb7"/><stop offset="1" stop-color="#99c8f0"/></linearGradient><linearGradient xlink:href="#c" id="o" x1="35.886" y1="63.211" x2="53.475" y2="104.4" gradientUnits="userSpaceOnUse"/><linearGradient xlink:href="#c" id="p" x1="59.839" y1="103.34" x2="77.251" y2="82.392" gradientUnits="userSpaceOnUse"/><linearGradient xlink:href="#c" id="q" x1="76" y1="75.5" x2="66.688" y2="74.063" gradientUnits="userSpaceOnUse"/><linearGradient xlink:href="#c" id="r" x1="89.375" y1="66.656" x2="84.75" y2="69.156" gradientUnits="userSpaceOnUse"/><linearGradient xlink:href="#c" id="s" x1="91.063" y1="88.875" x2="104" y2="61.063" gradientUnits="userSpaceOnUse"/><linearGradient xlink:href="#d" id="t" x1="42.292" y1="55.092" x2="43.33" y2="53.622" gradientUnits="userSpaceOnUse"/><linearGradient xlink:href="#d" id="u" x1="75.589" y1="58.465" x2="74.292" y2="55.005" gradientUnits="userSpaceOnUse"/><linearGradient id="e"><stop offset="0" stop-color="#1a1a1a"/><stop offset="1" stop-color="#2b2b2b"/></linearGradient><linearGradient xlink:href="#e" id="g" x1="79.972" y1="78.421" x2="83.905" y2="90.53" gradientUnits="userSpaceOnUse"/><filter id="f"><feGaussianBlur stdDeviation="2.041"/></filter></defs><metadata/><g fill-rule="evenodd"><path d="M45.622 28.693c2.111 6.866 12.366 2.613 17.714 5.063 5.828 2.606 12.521 1.548 17.189-.631-5.038.54-11.499 1.19-15.764-2.742-5.72-1.22-12.825.354-19.139-1.69zm2.206 5.42c-1.903 1.64.622 7.98-.738 2.506-3.735-1.398-4.619 5.145-8.121 6.266-5.064 4.182-11.829 6.975-19.026 8.836-3.585 4.248.864 10.116-.607 14.936-.016 5.466.396 11.147-1.862 16.132-.088 5.805 8.847 4.588 13.078 7.943 8.672 3.604 15.421 8.968 22.098 14.409 6.932 2.618 8.972-6.48 15.74-6.083 10.003-14.742-1.997-43.772 6.88-4.738 8.993-24.244-18.393-31.836 17.113-4.242 3.305-1.792 13.081-1.721 11.246-5.852-3.916-5.432-9.3-10.312-12.514-15.996-8.324-18.702-14.857-15.64-31.765-25.136-4.294-2.619-8.082-5.716-11.522-8.981zm.12 13.155c.954 19.985.949 19.985 0 0zm23.298 48.36c.438.876.56 1.12 0 0z" fill-opacity=".627" filter="url(#f)"/><path d="M74.61 99.869c.814-7.827 7.104-11.246 21.281-8.317L78.768 55.47s-9.051 43.542-8.562 43.542c.49 0 4.403 1.101 4.403.857z" fill="url(#g)"/><path d="M8.562 81.038l1.73 5.621.605 2.25.606-.087.951-.692-1.297-6.833-1.298-.346-1.297.087z" fill="url(#h)"/><path d="M44.627 111.74l2.162-.864.952-.087.605 6.487-.951.519-1.557-2.854-1.211-3.2z" fill="url(#i)"/><path d="M77.838 56.822l-.087 3.892.173 14.53-.086 20.67.865 1.037L80 96.432l-.26-25.6.26-10.291-1.557-4.67-.605.95z" fill="url(#j)"/><path d="M120.043 87.957l.173-1.643.173-1.73-.605-3.287.865-.605 1.643.605-.433 2.681-.518 3.979-.779.086-.519-.086z" fill="url(#k)"/><path d="M63.551 11.062l3.447 1.06 8.486.973h5.126l2.74-.353.884.972-.707 2.74.177.53 1.502.53 5.039.354 8.485-.177-4.773 1.326-7.16 1.238-2.298.265-2.828-.619-.442-2.033c-.224-.966-.874-1.08-1.503-1.237l-3.27.353-3.8.177-4.155-.972-4.596-1.06-.354-4.067z" fill="url(#l)"/><path d="M57.188 62.063l4.562-1.25 15-6.063 11.438-5.563 7.75-3.812-1-.875-6.063-3.938-8.625-5.5-9.063-7.5-6.687-9.5-.938.313-.124 2.688-1.5 10.875-1.626 13.187L58.25 57.25l-1.063 4.813z" fill="url(#m)"/><path d="M30.848 40.054l6.098-1.503 9.546-4.243 6.187-4.42 4.155-3.8 6.629-7.424-.089 1.59-1.149 10.254-1.944 13.17-2.917 18.296-1.856-.972-5.48-3.536-3.8-2.21-2.387-1.679-5.569-4.154-5.568-6.187-1.503-1.503-.353-1.68z" fill="url(#n)"/><path d="M21.655 83.452l1.15-2.298 3.358-9.457 3.712-19.8.707-10.252.796 3.447.619 2.21 1.149 1.679 1.767.884 2.74-.265 1.061 3.623 1.591 2.21 1.768 1.326 1.768.177 1.59.353 2.299-.176.265 2.032.884 1.945 1.414.972 3.27.354 3.713-.177.353 1.414-.884 10.165-.53 20.064-.619 16.529-4.861-6.187-7.248-9.104-5.392-5.127-5.038-3.359-6.894-2.563-4.508-.619z" fill="url(#o)"/><path d="M55.596 109.88l.973-29.521.176-8.044 1.238-10.43c6.857-2.01 12.96-4.776 19.268-7.336l-.707 3.094-3.093 7.424-4.596 5.304-4.066 2.651.176 1.238L67.794 77l2.475 4.773 1.502 4.95 1.15 6.806.743 4.684.582 2.121-3.447.089-5.392 2.74-5.656 3.8-3.624 3.27-.53-.353z" fill="url(#p)"/><path d="M64.938 73.5l1.5 1.938 2.437 3.5 1.063 2.437 1.437 3.75.625 2.938.75 5.187.438 2.563.5 2.374.25 1.313 1.874-9.625 1.063-8.625.688-9.688.374-10.374-.25-6.126-.874 1.25L75 62.188l-3.625 5.874-4.313 3.563-2.5 1.5.376.375z" fill="url(#q)"/><path d="M78.125 55.125l3.063 8.563L84 70.938l2.25 5.187 1.563 3.5 2.937 4.75 4.625 6.188 1.063 1.124-.5-3.374-3.813-11.688-.875-3.563-.375-2.687-.313-2.688.626-4.374.124-.75-1.874-.188-4.063-1.313-4.813-3.937-2.437-2z" fill="url(#r)"/><path d="M97 91.563l1.688-1.376 4.124-1.812 7.25-1.563-5-10.187-4.75-11.813-2.937-9.687-1.125-8.563-2.5-.687-5.875 3.188-5.938 3.062-4.25 2.313.313.937 1.563 1.063 2.75 2.624 2.812 1.813 1.875 1 2.438.625 2 .125-.5 1.563-.313 2.874.25 3.813.75 3.875 1.063 3.875 3.062 9.125.688 4.313.562-.5z" fill="url(#s)"/><path d="M30.813 41.688l.437 4.624 1.313 2.438 2.312 1 2.75-.125.938 3 1.562 3 2.313 1.313 2.124.374 3.25-.25v1.5l.876 2.25 2 1.5 2.562.126 3.875-.126-6.313-4.187-6.562-4.063-5.688-4.374L32 42.312l-1.188-.624z" fill="url(#t)"/><path d="M58.292 62.01l2.422.78 5.189.518 3.113-1.21 1.73-.693 1.99-1.297 4.15-5.276 1.644-.173 3.113.52 2.94-.26 2.076-.605 2.768-1.644 3.978-4.238 1.903-2.94-6.486 3.113-8.13 4.325-3.546 1.384-3.46 1.73-11.07 4.497-3.46 1.124-.864.346z" fill="url(#u)"/></g><path d="M63.25 9.938c.174 2.756.461 5.658-.063 8.343C53.136 31.013 43.078 35.8 30.492 40.094 24.243 54.239 19.446 69.992 11.844 84l-.563-2.969c-1.216-.708-2.606-.264-2.875.344l2.25 7.594c.646-.175 1.292.422 1.938-.531l-.406-2.657c1.745.343 6.887-.95 9.641-2.17 13.244 1.252 20.733 10.843 28.327 20.826-.56 2.83-1.154 5.656-1.812 8.47l-.157-2.22c-1.383-.216-2.594.598-3.874 1L47 118.064c.52.041 1.042.24 1.563-.376l-.032-1.906c2.438-1.656 2.836-4.096 7.313-4.969 6.173-3.597 10.663-11.086 18.843-10 1.461-8.856 2.376-17.78 2.938-26.718l.063 22.187c.41.875.935.978 2.374.188l-.03-34.906c4.62 12.493 9.64 23.965 16.406 31 3.808-3.537 7.231-4.478 13.78-5.435l9.5-.878.282.094a92.806 92.806 0 00-.211 1.418c.092 1.12 1.166.275 1.773.363l.907-6.969c-1.06-.688-2.026-.638-2.972.156l.284.688c.284.768.419 1.456.438 2.094-.03-.003-.063.002-.094 0-2.233-.15-6.798-5.908-12.563-15.188-4.319-6.953-8.197-14.97-10.968-21.687a63.398 63.398 0 01-.156-1.938C84.29 37.053 71.596 30.421 64.53 17.594l-.25-2.25c4.344.913 7.473 3.169 13.938 1.75 4.136-1.273 2.34 1.94 3.5 3.218 3.672 1.732 11.69-1.44 17.437-2.375l-.094-.375c-5.083-.51-15.88.98-15.25-1.53.434-1.704 1.368-3.709-1.593-3.376-6.13.508-12.246.081-18.375-1.625l-.125-1.062-.469-.031zm.625 1.562c5.527 1.705 11.358 2.397 17.563 1.844 3.598-.816 2.43.906 1.718 2.812-.866 3.269 9.532 1.383 14.406 1.782-5.048.642-10.107 2.743-15.156 1.937-1.125-1.26-.855-4.197-4.094-3.344-5.204 1.275-9.335-.683-14.062-1.562l-.375-3.469zm.469 7c6.79 14.042 19.539 18.441 30.594 26.406C82.97 51.831 70.874 57.562 57.874 61.72c2.65-15.744 4.165-29.047 5.938-43.063.204.047.394 0 .53-.156zm-1.156.5c-1.52 14.678-3.017 26.615-6.313 42.719-3.9-2.696-9.602-5.586-14.469-9.219-4.835-3.61-8.795-8.292-11.312-11.906C43.829 37.473 53.48 32.206 63.187 19zM30.312 40.969c.03.042.065.083.094.125-1.892 13.859-2.8 27.61-8.75 41.75-2.28 1.506-5.222 2.989-9.531 2.687l-.188-1.062.032-.031c11.14-20.92 12.395-29.222 18.343-43.47zm.97 1.343c2.638 3.459 6.428 7.205 10.843 10.5l14.219 9.344c-7.729.746-8.514-2.261-8.469-5.218-9.045.833-8.526-3.96-10.188-7.47-5.439.884-6.078-2.849-6.406-7.156zm-.532.47c.091 4.61 1.475 8.644 6.688 6.874.537 6.316 4.048 8.56 10.124 7.594.478 7.042 4.177 5.613 9.243 5.101-1.651 13.261-3.947 27.144-6.367 40.524-6.996-9.5-15.65-18.324-28.438-19.625 6.745-13.88 7.592-26.94 8.75-40.469zm64.688 3.28L91 61.813c-4.394 1.133-8.34-3.291-12.25-6.437-.06-.156-.126-.313-.188-.469 8.163 1.73 12.606-2.674 16.876-8.843zm-.97.25c-3.887 3.955-5.03 10.321-16.124 7.97 5.212-2.68 10.767-5.325 16.125-7.97zm1.25.344c.064.135.125.271.188.407 1.631 14.253 7.53 26.707 13.469 39.437-4.48.946-8.684 1.954-12.531 4.563-2.022-9.386-8.07-18.562-5.344-28.157.061-.215-.032-.514-.063-.781.669-5.265 2.85-10.313 4.282-15.469zm1.063 2.25c6.055 12.895 12.422 26.053 23.188 36.313-2.904 1.041-5.831 1.864-9.563 1.219-6.316-12.102-12.015-24.114-13.625-37.532zm-20.437 6.125c-1.668 2.484-2.922 4.512-5.594 6.25-2.667 1.463-8.077 2.457-12.094.782 6.027-2.038 11.9-4.424 17.688-7.032zm.344.375c-1.816 7.635-3.795 12.506-12.376 17.438-2.004-3.21-4.491-6.3-6.25-9.656.048-.325.106-.645.157-.97.115-.038.228-.085.343-.124 4.165 1.815 8.485 1.897 11.376.312 2.618-1.436 4.698-4.29 6.75-7zm2.53 1.094c3.35 3.268 6.619 6.37 11.688 6.438-1.641 10.14 3.103 18.628 5.188 27.687-9.956-9.72-12.435-22.261-16.875-34.125zm-1.78.25c.498 14.252-.945 28.506-3.5 42.219-1.66-9.511-1.624-18.014-8.75-25.469 7.13-3.34 9.91-9.833 12.25-16.75zm.874.094c.44 1.23.899 2.44 1.344 3.656l-.219 35.688c-.532.659-.583.53-1.218-.094l-.156-30.281a421.2 421.2 0 00.25-8.97zM57.22 62.562c-1.1 15.738-1.306 31.452-1.969 47.22-1.463-2.176-2.957-4.399-4.563-6.594 2.554-13.514 4.242-27.05 6.376-40.563.053-.017.102-.045.156-.063zm.812 1c1.795 3.367 4.129 6.363 6.188 9.594-.338.481-.147 1.029.437 1.625 7.943 6.248 6.995 16.102 9.188 24.844-6.835 1.01-12.39 5.791-17.906 9.969 1.01-15.203-.137-30.468 2.093-46.031zM11.146 81.733l.166 2.798c-.404.18-.882.14-1.218.344l-1.08-3.067c.649-.191 1.164-.737 2.132-.075zm108.922.058c.447-1.23 1.63-.48 2.078-.271l-.646 2.918c-.311-.21-.691-.269-1.094-.313l-.338-2.334zM11.375 84.875l.125.594a17.745 17.745 0 01-.75-.094l.625-.5zm110.031.156l-.25 1.5-.75-1.062 1-.438zM10.25 85.47l.938.531.374-.094.387 2.135c-.26.808-.91.32-1.17.401l-.529-2.973zm110.031.969l.844.28-.156 1.063c-.523.274-.685.007-.75-.406l.062-.938zM50.375 104.75c1.467 1.973 2.945 3.926 4.469 5.781-3.4 1.35-4.114 3.163-6.282 4.719l-.124-1.156c.722-3.113 1.332-6.231 1.937-9.344zm-2.82 6.524l.226 2.632-1.687.781-1.125-2.624c.27-.32 1.753-1.422 2.586-.789zm-.086 3.445l-.688 1.531-.656-1.5 1.344-.031zm.457.327l.074.485-.91.514.836-1zm.168.985l.125.938-.813.687-.593-1.344 1.28-.28z" fill-rule="evenodd"/></svg>