<svg xmlns="http://www.w3.org/2000/svg" width="128" height="128" version="1.0"><metadata/><path d="M62.094 8.406c-2.7 4.87-3.711 10.176-3.907 15.594-1.5 1.084-2.685 2.608-3.374 4.656a44.728 44.728 0 00-1.22 6.469L29.5 42.469c-.197 1.436-2.322 1.632.438 4.968l3.78.5c-.358 1.016-1.269 1.848.376 3.532.926.704 2.23.463 3.625 0-.349 1.181-1.1 2.313.343 3.718 1.532.625 3.063.306 4.594-.718-.317.765-1.224 1.413.688 2.625 1.286.827 2.83-.147 4.343-.907-.178 1.256.778 1.604 1.75 1.938 2.735-.14 5.102-1.08 7.532-2.219a45.145 45.145 0 002.781 5.125c-2.47 1.267-4.013 3.076-4.844 5.157v7.624l1.563 2.563L56.312 79l-1.562 2.531a100.007 100.007 0 00-.188 3.125c-.006.159-.306.279-.312.438-.308 7.799.015 16.15.156 24.219.003.158.435.278.438.437.011.734.026 1.458.031 2.188-2.353 1.054-3.961 3.598-5.906 5.468 5.61 5.038 19.363 9.582 32.875-1.094-1.2-2.374-3.36-3.662-5.875-4.718.017-1.01.04-2.01.062-3.031.004-.193.402-.214.406-.407.025-1.089-.026-2.41 0-3.5.004-.133-.315-.21-.312-.344.092-3.762.208-7.504.25-10.968.003-.25.498-.594.5-.844.016-1.746-.141-3.926-.156-5.688-.002-.176-.342-.416-.344-.593-.022-2.065-.072-3.56-.156-5.656l-1.531-2.126-.282-2.937 1.781-2.438.157-6.156c-.785-2.576-2.735-4.36-4.75-6.031a32.85 32.85 0 003.062-6.375c2.043.923 4.45 1.564 7.031 1.813 1.202.115 2.16 1.093 3.094 2.124l3.531 1.72c.006.031.027.06.032.093v-.094l.406.219c-.948-2.844-.648-5.968-1.406-8.906a18.034 18.034 0 00-3.156-2.907c1.525-.278 2.01-.433 2.624-1.03.07-.993.732-1.886-.5-3.094.797.6 1.955.116 3.22-.688.993-1.65.164-2.694-.157-3.906.843-.19 1.698-.344 2.313-1.219.396-1.271.093-2.402-.688-3.438 1.219-.113 2.438-.332 3.656-1.374.197-1.131 1.305-2.276-.875-3.407 1.567-1.091 3.326-1.941 4.594-3.406 1.164-1.52.973-3.042-.219-4.563-7.519 1.762-14.605 4.845-21.719 7.782-.021-.574-.049-1.15-.062-1.719a14.255 14.255 0 00-1.563-2.125c1.232-4.164 3.318-4.028-1.656-16.594-2.515 4.327-3.764 8.311-3.562 13.25-1.155-.404-2.406-.72-3.781-1-.532-.059-1.063-.013-1.594 0 .384-3.197.403-6.829-2.125-13.625zm-.032 1.688c2.174 6.055 1.757 13.566 1.157 19.468l.25-.03c.42-2.7.394-4.76.687-6.97a14.67 14.67 0 011.594-.062c4.02.324 8.274 2.422 9.969 6.344a29.15 29.15 0 00-.125 1.968c-.504-.487-.767-.372-1.688-.28-1.904.335-1.904 1.523-2.031 3.218-.047 2.303.354 3.793 2 5.438 1.155.607 1.271.168 2.188-.407a53.02 53.02 0 01.187 4.157c-2.243-1.2-5.023-.202-7 1.093-.626-.016-1.196.229-1.781.407-2.127 1.408-3.361 3.425-3.781 5.874.47 3.693 4.832 2.669 7.5 2.032.84.71 1.813 1.354 2.937 1.906-.809 2.133-1.885 4.425-3.375 6.938 2.029 1.113 3.577 2.655 4.594 4.593-.669 1.082-1.303 1.663-2 .625-.582-2.441-2.413-3.875-4.438-5.156 1.75 1.287 2.852 3.433 3.5 5.625a14.277 14.277 0 01-4.031 1.219c-.112-1.135-.83-2.089-1.344-3.063l-.031.063c.29 1.031.703 2.062.438 3.094-.982.246-2.024.317-3.032-.22l-.531-3.124-.063.031-.468 2.969c-2.652.275-5.174-.885-7.813-1.563 1.028-2.73 2.651-4.469 5.063-5.125a39.383 39.383 0 01-3.094-5.5c1.014-.484 2.207-1.097 3.281-1.593 1.316-1.516.762-1.811-.781-2.657 1.339-1.106.535-2.456-.469-3.187 1.483-1.122 1.226-2.275.719-3.719 2.07-1.39 1.405-3.102.688-5.125 1.647-2.342 1.633-4.101.718-6.594l-.031.063-.063-.157-7.093 2.157c.196-1.915.495-3.853.875-5.844.485-1.772 1.527-3.134 2.843-4.156a65.03 65.03 0 000 3.25L58.25 28c-.075-6.25 1.49-12.762 3.813-17.906zm11 1.031c2.055 5.314 2.747 9.394 1.344 14.813-1.246-1.25-2.67-2.094-4.281-2.72-.405-4.609.86-7.739 2.938-12.093zm-11.156 1.25c-1.28 4.699-2.359 6.175-2.062 11.531h.093c-.194-4.869.902-5.094 1.782-9.062.823 4.67 1.008 7.01.781 11.562l.031-.062c.513-5.416 1.057-4.769-.625-13.969zm35.563 11c2.096 2.57-1.66 4.782-3.75 6.031l-16.813 5.907-.25.312c-.066-1.565-.122-3.126-.187-4.656 6.752-2.797 13.582-6.364 21-7.594zm-4.188 7.188c1.248.995 1.983 2.036.594 2.812-.684.974-2.554 1.007-3.656 1.563l-12.813 3.718.094.219 13.156-3.281c.45.704.767 1.437.188 2.312-.468.996-1.23 1.145-2.125 1.5l-9.406 2.625-.032.188L88.97 40c.272 1.118.43 2.223-.219 3.156-.98.624-1.895 1.263-3.438.938l-4.25 1.156-.062.156 4.781-.687c.435.547.828 1.139.281 2.187-.654.477-.883 1.109-2.374 1.282a18.861 18.861 0 00-2-1.188c-1.506-1.32-3.062-2.74-4.97-3.813.115-2.475.069-4.905-.03-7.312l16.593-5.313zm-18.937.312c.532-.108.8.229 1.25.469-.003.52.013 1.02.031 1.531-1.13-1.185-1.096-.818-2.25.094-.8 1.216-.673 1.839-.094 3.062 1.136 1.176 1.349.922 2.5 0 .023-.034.042-.06.063-.093.07.85.117 1.705.187 2.562-.732.609-1.25.486-2.062.375-1.39-1.378-1.472-3.325-1.531-5.188-.054-1.445.448-2.036 1.656-2.718.094-.037.17-.078.25-.094zm-6.5.156c-2.724.492-2.865 2.677-3.094 5.063.084 2.568.336 4.11 2.938 4.812 2.715-.5 2.773-2.624 3-5-.087-2.536-.274-4.175-2.844-4.875zm-.063.375c1.985.597 2.254 2.662 2.438 4.5-.057 2.02-.58 3.728-2.438 4.532-2.021-.59-2.283-2.67-2.469-4.532.055-2.032.599-3.707 2.47-4.5zm6.688 1.375c.218-.003.353.262.781.375.598.937.36 1.654 0 2.594-.715.689-.653.181-1.344 0-.598-.937-.36-1.654 0-2.594.271-.259.432-.373.563-.375zm-12.875.157c.532 2.207.74 4.432-.938 6.437.429 1.57 1.516 2.997-.625 5.125-.007 1.223.892 2.365-.625 3.688.358.996 1.934 1.206.407 3.25 1.775.828 1.732 1.175.874 2.5-3.658 2.22-7.406 2.275-11.062 3.25-.894-.124-1.374-.654-1.531-1.407l5.843-3.031-.218-.156-6.282 2.562.063.125c-1.225.462-2.624 1.249-3.781.844-.604-.59-.571-1.265-.469-1.906l10.469-3.907.093-.156-10.874 3.313v.031c-1.356.526-2.83 1.342-4.157.781-.906-.9-.591-1.932-.343-2.906l18.124-6.125v-.281L38.189 50.53v.032c-1.106.244-2.18.705-3.094.093-1.182-.582-.758-1.785-.5-2.812l23.031-7.125-.063-.25-23.25 6.562-3.468-.468c-2.554-1.29-1.45-2.75-.625-3.813 10.566-2.686 21.026-5.389 31.375-9.813zm6.156 1.093c-.23-.032-.454.2-1.031.657-.8 1.215-.83 2.276-.25 3.5 1.136 1.175 1.348.67 2.5-.25.8-1.216.392-1.746-.188-2.97-.565-.592-.8-.905-1.031-.937zm-.156.875c1.238-.064 1.217 1.532.75 2.75-.715.69-.654.182-1.344 0-.598-.937-.36-1.685 0-2.625.231-.082.417-.116.594-.125zm6.031 7.969c2.744-.259 4.538 1.459 6.281 3.344a23.058 23.058 0 00-3.312-1.032c-.801-.479-3.205-.153-4.531-.124 5.73-.076 10.509 3.142 14.53 7.062.663 1.921.927 4.186 1.25 6.25-1.096-2.442-3.91-3.974-5.937-5-2.376-1.203-5.188-1.972-6.5-3.969-1.895-2.051-4.067-2.3-6.219-.687l.22.093c1.747-.827 4.066-.31 5.5.938 1.54 2.346 4.691 2.894 7 4.063 1.982 1.003 4.979 2.922 6.062 5.25.03.177.061.358.094.53-.17-.067-1.06-.383-1.25-.53-.405-.313-1.06-.355-1.532-.876-.942-1.04-1.838-2.715-3.5-2.874-3.939.036-7.278-1.264-10.719-3.22-2.495.825-5.038.69-6.374-1.78.195-2.182 1.514-4.12 3.124-5.438 1.37-1.137 2.603-.314 4.032.156.02 0-.084-.124-.063-.125-.737-.516-1.434-.79-2.187-.843 1.588-.722 2.914-1.093 4.031-1.188zm2.063 23.656c.05.114.11.228.156.344l.125 5.719-.125.187c-8.355 2.499-14.36 1.367-20.438.375l.094-6.531c2.256 1.138 5.334 2.227 8.469 2.094 1.457.73 2.95.41 4.281.187 2.27.223 4.252-.435 4.75-1.531 1.057.697 1.963-.124 2.688-.844zm-.438 7.063L73.969 75.5c-4.336 1.288-9.768 2.029-16.938.531L55.47 73.72c6.263.942 12.634 1.583 19.781-.125zM74 75.969l.125 2.625c-4.393 1.384-9.977 1.996-17.313.344L57 76.28c6.848 2.216 12.145 1.585 17-.312zm.313 2.906l1.28 1.813c.01.108.022.205.032.312-6.504 3.096-13.625 2.473-20.281.688.003-.032-.004-.063 0-.094l1.343-2.219c7.163 2.719 13.017 1.264 17.626-.5zm1.343 2.469c.16 1.722.3 3.336.375 5.062-1.17-.139-2.096.04-3.062.313-.654.68-.877 1.9-.875 2.937-.231.789.062 1.472 1.062 2.594l2.906.906c-.016 3.705-.146 7.42-.25 11.125l-2.78 1.688-.094 1.281-.22.188 3 1.156c-.021 1.024-.05 2.038-.062 3.062-3.179 2.397-7.102 3.791-10.25 3.75-3.12-.04-6.879-1.457-10.062-3.156h-.032c0-.815-.019-1.624-.03-2.438 2.342 1.148 3.683 4.165 15.343-2.343l-.156-1.063c-4.18-1.332-8.352.17-12.531-4.406.061-1.543-.017-3.04-.063-4.375-.059-1.711.444-3.364 3.156-5.344 2.366.147 4.024-.678 7.594 1.125 1.35-.681 2.022-1.605 2.469-2.969.012-.467-.136-.918-.406-1.343-.094-.892-.214-1.694-1.594-2.125-4.549-.004-9.399-.904-14-2.25.06-.904.128-1.811.218-2.719 6.615 2.434 13.51 3.28 20.344-.656zm-20.594 3.625c4.283 1.21 8.548 2.1 13.594 2.344.909-.268 1.382.516 1.781 1.437-.343-.42-.804-.81-1.374-1.188-4.762-.195-9.457-.813-14.032-2.218.004-.125.021-.25.032-.375zm-.25.531c3.87 2.43 9.393 2.165 14.063 2.594 1.092.74 1.857 1.781 1.844 2.312-.013.507-1.124 1.64-2.188 2.344-2.875-1.41-5.452-1.21-7.812-.938-2.484 1.4-2.956 3.07-3.344 5.813.068 1.98.274 3.815.031 5.531 1.14 1.955 3.6 2.799 5.75 3.469 1.558.391 4.725.379 6.219.75-3.488 2.724-9.268 4.905-14.094 2.094-.277-.207-.422-.306-.468-.5-.146-7.702-.648-15.498-.22-23.281.005-.08.107-.13.22-.188zm19.938 1.188c.444-.004.876.046 1.313.03.001.055-.002.103 0 .157l-2.75.75c-.383.523-.687.962-.907 1.344.144-.736.38-1.542.844-1.813a2.544 2.544 0 011.5-.469zm1.375.374c.103.047.31.004.313.126.04 1.487.083 3.22.03 4.906-.003.128-.297.323-.374.469l-2.719-.876c-1.424-1.332-.86-2.156.063-3.624l2.687-1zm-18.219 15.594c3.663 3.602 8.038 2.911 12.094 4.156l.094.47c-2.208-.687-4.698-.617-6.938-1.126-1.897-.476-3.868-1.57-5.281-3.062.013-.147.021-.292.031-.438zm17.907 1.906v.063l-2.438 2.219-.125-.688 2.563-1.594zm.062.438c.1.085.285.157.281.281-.022.826-.137 1.612-.156 2.438-.002.087-.083.209-.156.344l-2.188-.72L75.875 105zm.063 7.031c2.347.701 4.082 2.169 5.25 4.344-7.545 6.702-22.137 8.627-31.75 1.125 1.88-1.752 3.523-4.328 5.75-4.813 3.285 1.747 6.926 2.989 10.25 3.032 3.415.044 7.116-1.09 10.5-3.688z" fill="#5c2700" fill-rule="evenodd"/></svg>