<?xml version="1.0" encoding="UTF-8"?>
<svg width="128" height="128" version="1.0" xmlns="http://www.w3.org/2000/svg" xmlns:xlink="http://www.w3.org/1999/xlink">
 <path d="M62.906 2.5l-.468 13.688L51.25 30.566c-.18 1.17 1.719 1.647 2.624 2.402-1.062 3.898-1.692 8.3-.25 13.593.817.808 1.829 1.366 2.813 1.938-1.11 13.99-1.85 24.306-.844 38.281-1.326.035-8.112 1.177-10.817 5.386.356.602.939 1.017 1.4 1.537-1.586 6.576-2.398 7.545-2.764 21.452 7.025 5.708 16.098 7.444 24.868 7.86 6.073-.56 16.325-1.886 22.375-7.86.644-7.19-.402-14.052-2.875-20.781l1.66-.755c-1.781-4.605-6.09-6.64-10.566-7.995-.619-13.588-1.85-25.338-4.125-37.281l2.781-2.125c.899-4.828.015-9.22-1.844-13.657.828-.554 1.777-1.385 2.01-2.176L63.72 15.625l-.282-3.99c3.318-.887 4.584.576 6.657 2.62 8.443.076 13.11-3.29 19.875-3.724l-.156-.812c-5.635.1-11.71.03-17.313-.598-.39-1.85-.975-3.065-2.594-3.684-2.092-.781-4.21-.939-6.38-.697l-.089-2.24h-.53zm4.532 3.125c.8-.015 1.56.034 2.312.25 1.48.565 2.128 2.051 2.375 3.875 1.602 1.113 13.474.417 16.313.469-2.808.162-9.314 3.274-18.126 3.156-1.81-2.701-3.76-3.464-6.874-3.125V6.125c1.284-.222 2.666-.474 4-.5zm-4.25 10.25c.16-.01.38.06.656.281l8.343 9.563c-.431.405-.742 1.139-1.343 1.187l.187.282 1.531-1.063 1.157 1.344c-.214.355-.602.82-.969 1.187-.196.197-.41.45-.625.688l-.875-1-.344.25c.113.132.503.594.906 1.062-.245.251-.489.478-.75.625l.094.219c.297-.167.588-.383.875-.594l.406.469.376-.25-.438-.5c.257-.207.523-.398.75-.625.42-.42.733-.737.938-1.125l2.53 2.875c-2.57 3.135-7.738 3.56-11.53 3.813-4.565.195-9.312-.574-12.47-4.094l1-1.375c1.238.979 2.628 1.54 4.063 1.937-.05.232-.117.454-.156.688l.406.156c.077-.24.142-.48.219-.719 1.88.465 3.836.672 5.688 1l-.188-.406c-1.823-.324-3.648-.619-5.344-1.094.36-1.12.74-2.237 1-3.375.344.085.676.178 1.063.313l.062-.188c-.435-.152-.746-.26-1.093-.375.112-.518.212-1.03.28-1.562l-.156-.188c-.167.537-.378 1.062-.562 1.594-.698-.245-1.497-.568-2.813-1.281l6.563-9.188c.156-.238.296-.513.563-.531zm-7.376 10.063c1.388.753 2.242 1.028 2.97 1.218-.383 1.1-.72 2.22-1 3.344-1.393-.433-2.699-1-3.844-1.906l1.874-2.657zm19.053 7.083c1.81 3.884 2.89 7.12 2.166 12.766-3.384 3.048-8.109 4.051-12.182 3.89-4.05-.159-8.188-1.154-10.641-3.214-.487-5.603-.888-8.723.432-13.27 3.25 1.566 7.06 2.022 10.61 1.963 3.297-.112 6.611-.77 9.615-2.135zm-2.177 3.041c-.656.846-.807 1.76-.876 2.782l.094 3.406L75.437 41l-.53-2.75c-.497-1.02-1.307-1.595-2.22-2.188zm.25.72c.301.303 1.37 1.305 1.593 1.624l.5 2.407-2.781 1V38.75c-.108-.685.597-1.292.688-1.969zm-13.344 2.03c-1.58.748-2.416 1.614-2.813 3.25l-.093 4.094 4.78 1.657.188-4.907c-.468-1.389-.33-2.845-2.062-4.093zm-.125.47c.628.663 1.698 2.224 1.656 3.656l-.031 4.25-3.813-1.282.032-3.812c.154-1.035 1.36-2.256 2.156-2.813zm14.615 9.483c2.46 13.007 3.462 25.39 4.27 40.917-8.09 5.638-18.073 4.44-22.135.079-1.167-15.965-.399-25.589.796-40.632 2.208 1.008 5.144 1.484 7.829 1.59 3 .118 6.397-.503 9.24-1.954zm-4.74 8.391c-.908.765-1.285 1.79-1.656 2.875l.062 4.25L72 62.625l-.438-3.438c-.233-1.436-1.442-1.409-2.218-2.03zm.125.438c.61.228 1.393.965 1.687 1.5l.531 3.281-3.593 1.563-.031-3.97c.209-.735.965-1.864 1.406-2.374zM59.28 68.437c-1.035.31-1.526 1.024-2.093 1.844l-.063 3.625 4.188.969.312-3.469c-.416-1.354-1.32-2.221-2.344-2.969zm-.093.438c.888.623 1.813 1.982 2.062 2.656l-.125 2.781-3.75-.656.188-3.156c.176-.393.942-1.29 1.624-1.625zm11.53 10.656c-1.174.936-1.663 2.235-2.156 3.594l.063 5.281 5.5-2-.531-4.312c-.71-1.475-1.856-1.86-2.875-2.563zm.188.5c.993.303 1.711 1.582 2.156 2.438l.688 3.5L69 87.906l-.063-4.719c.214-1.016 1.353-2.358 1.97-3.156zm7.938 6.156a13.609 13.609 0 017.406 4.22 8.927 8.927 0 01-.625.968c-1.117-1.374-2.761-2.217-4.219-3.25l-.094.188c1.572.964 3.025 2.06 4 3.468-1.526 1.804-3.532 2.622-5.53 3.25l.093.313c1.964-.618 4.114-1.21 5.781-3.063.17.296.314.615.438.938l.375-.438a5.683 5.683 0 00-.469-.906 8.32 8.32 0 00.656-.969c.661.817 1.166 1.607 1.438 2.25-5.525 3.916-14.282 6.86-22.313 6.875-8.043.015-15.61-2.904-19.344-7.781.335-.62.79-1.182 1.344-1.688.344 1.054.98 1.92 1.75 2.657-.276.238-.557.461-.843.687l.406.281.843-.593c.012.01.02.021.032.031 1.125.962 2.44 1.737 3.562 2.594l-.093-.344c-1.131-.864-1.99-1.77-2.97-2.625l1.47-1-.25-.375c-.657.19-1.193.546-1.688.938-.802-.747-1.47-1.623-1.75-2.626a11.687 11.687 0 012.031-1.28c.18 1.192 1.36 1.608 2.282 2.406l.312-.313c-.939-.687-1.498-1.41-1.938-2.406 1.437-.644 3.014-1.121 4.532-1.438.079 1.02.15 1.992.25 3.063 7.747 6.856 15.199 4.046 23.062 0 .455-1.053.121-2.78.063-4.031zM47.28 94.72c4.316 3.962 11.237 5.7 18.438 5.687 7.585-.014 15.506-1.98 21.219-5.5 2.74 6.186 2.988 13.25 2.651 20.068-1.61 1.517-3.528 2.515-5.776 3.557l-.657-8.5c-.974-2.949-3.362-4.212-6.031-5.375-2.774 1.905-4.733 4.634-4.906 8.031.445 2.9.47 5.878.562 8.813a44.299 44.299 0 01-4.5.25c-8.465.077-17.588-1.685-23.594-6.531.427-7.239-.575-12.694 2.594-20.5zm4.157 5.875c-.912.37-2.101 1.037-2.532 2.375l-.281 3.969 4.313 1.812.406-4c-.334-1.748-.41-3.039-1.907-4.156zm-.032.5c.762.999 1.666 2.702 1.532 3.562l-.126 3.469-3.874-1.375.187-3.625c.276-.816 1.656-1.742 2.281-2.031zm25.787 4.228c2.347 1.044 4.857 2.596 5.411 4.803l.36 8.87c-1.469 1.017-6.628 2.103-9.407 2.562-.023-3.052-.33-6.177-.786-9.166.2-2.867 2.474-5.235 4.422-7.069z" fill="#5c2700" fill-rule="evenodd"/>
</svg>
