<svg xmlns="http://www.w3.org/2000/svg" height="128" width="128"><defs><filter id="a"><feGaussianBlur stdDeviation="2.597"/></filter></defs><path d="M93.313 15.781c-.124 1.373-3.503 4.646-6.782 10.656-7.728 7.081-13.308 12.779-18.344 16.375-4.013 2.227-5.578 6.516-8.03 11.282.846 4.185 2.978 15.168-.97 20.125-2.835 6.961-7.01 13.382-9 20.687-.972 5.737-10.287 8.806-7.156 14.813 1.481 3.397 4.445 4.61 7.657 4.719 2.238.286 4.736-.28 7.187-1.094a6.46 6.46 0 00.938-.344c2.444-.676 4.84-1.492 7.25-2.281C67.906 99.144 70.608 87.548 76 77.063c1.012-5.226 9.06-4.518 9.281-10.782 2.979-6.547 5.513-10.203 2.156-17.187-1.92-4.934-3.07-14.233-.562-19.907.014-.025.049-.036.063-.062.017-.038.013-.087.03-.125a11.98 11.98 0 011.376-2.031 47.592 47.592 0 012.062-1.532c2.12-1.162 4.005-1.383 5.781-1.062 3.905 1.003 6.765 5.392 12 6.719 2.8 1.467 5.966 2.379 9.876 1.593-9.893-2.616-7.994-14.363-24.75-16.906z" transform="matrix(1 0 0 .8582 0 16.238)" fill-opacity=".352" fill-rule="evenodd" filter="url(#a)"/><path d="M25.269 48.135l-.692 20.979 5.072 1.383 1.844 44.033 16.83 8.991 5.302-2.305 12.219-8.991-1.614-13.14.46-23.977-.46-7.608 1.152-.46V53.897l-1.844-7.838-8.53 5.533-6.916 2.767-5.533 3.919-17.29-10.144z" fill="#fff8dc" fill-rule="evenodd"/><path d="M43.25 22.315l-2.996 5.994-8.53 9.452-4.842 6.455-1.383 3.919 16.83 9.862 10.63-5.853c4.052-1.353 7.206-3.424 10.54-5.943l-9.643-11.207-8.992-13.832-1.613 1.153z" fill="#7fffd4" fill-rule="evenodd"/><path d="M43.481 7.56l6.686.922 2.766 3.228 2.536 6.685 4.15 2.767 11.757.922 14.063-1.153-1.383 1.614-14.293 4.15-10.375 1.383-3.458-.461-2.536-2.305-1.383-4.38-5.302-3.459-3.228-.23V7.56z" fill="red" fill-rule="evenodd"/><path d="M43.942 21.623l-5.763 9.452-9.683 10.374-3.227 7.378-.692 20.518 5.302 1.383-.691 11.527 2.075 17.06.46 15.446 17.06 8.76.692-7.608-2.075-14.062-.23-15.216-.692-11.988-3.688 2.075-.23-.461.23-17.982-2.306-4.38 1.383-14.525.462-8.99 1.613-8.761z" fill="#060000" fill-opacity=".282" fill-rule="evenodd"/><path d="M53.856 56.434l-2.306 4.15s-3.227 3.689-1.383 4.15c1.844.46 10.272-2.626 10.272-2.626l-6.583-5.674zM38.41 81.333s2.766 4.61 2.766 6.455c0 1.844.23 4.61.23 4.61l-6.685-2.766 1.383-6.916 2.305-1.383zM30.11 64.273c1.383.46 6.686 2.766 6.686 2.766l-.692-5.302-1.383-2.536-2.536.46-2.075 4.612zM54.317 120.524l-.461-8.3 3.458-9.912L61.233 106l2.075 5.533.46 2.767-9.451 6.224z" fill="#8b4513" fill-rule="evenodd"/><path d="M43.25 7.204l6.622.803 3.412 4.817 2.007 5.418 2.408 10.236-4.214-2.208-.602-4.214-4.616-3.613-4.215-1.405-.803-9.834z" fill="#060000" fill-opacity=".282" fill-rule="evenodd"/><path d="M42.288 8.027c.005 1.971.494 3.917.4 5.9.157 2.104.655 4.324.576 6.346-1.551 6.522-6.344 11.562-10.674 16.4-1.96 2.277-4.253 4.318-5.833 6.887-.758 1.25-.823 2.907-1.557 4.078-1.296.592-.613 1.015-.838 2.185-.2 5.937.004 11.886-.226 17.822.248.752-.304 2.902.458 2.762 1.11-.885 2.41.26 3.618.427 1.169.178.386.473.843.578-.875 3.264-.18 6.705-.29 10.042.203 7.527 1.952 14.933 1.925 22.478.105 3.686.305 7.368.474 11.051-1.218.66.353.404.949.737a213.524 213.524 0 0115.365 8.103c1.01.192.865 1.265 1.963.693.558-.655 1.377-1.189 2.315-1.621 5.389-3.121 10.8-6.506 14.978-11.19 1.246-1.172-.878-.225-1.435.083-.728.762-1.704 2.034-1.446.218-.17-3.23-1.997-6.141-4.035-8.542-.679-.6-1.578-1.469-2.426-1.515-1.143.497-1.034.741-.804 1.305-.604-.546-2.2.588-.896 1.343-.914 2.904-2.46 5.877-2.418 9.037.354 1.566-.179 3.036-.653 4.51 1.277-1.08 1.049.41 1.057 1.372-.198.758 1.771-.164 1.4-.863.164-1.7.91.309 0 1.04-.797 1.062-2.294 1.51-3.39 2.288-.988.55-2.29 1.588-1.712-.302.081-1.593.35-3.168.519-4.752-.695.077-.066-1.806-.256-2.59.076-3.477-.984-6.845-1.38-10.282-.696-4.128-.78-8.308-.777-12.483-.055-5.492-.145-10.991-.8-16.45-1.554.834.705-.426 1.231-.695 4.752-2.59 9.812-4.658 15.06-6.039.742 8.391.766 16.83.246 25.235-.26 6.172-.06 12.356.496 18.508 1.212-.306 1.637-1.04 1.229-2.23-.815-7.857-.492-15.768-.106-23.64.188-6.1-.193-12.193-.465-18.284.603-.37 2.325-1.774.611-1.187-5.137 1.374-10.203 3.075-14.924 5.553a56.323 56.323 0 00-7.316 4.219c-.03-3.333-.679-6.647-.352-9.99.16-2.715.181-5.433.21-8.152 1.707-.403 2.499-2.215 4.033-2.971 3.164-2.089 7.063-2.635 10.292-4.628 2.69-1.467 4.551-2.341 6.728-4.488.62-.768-.815-.914-1.19-.39-3.423 3-7.506 5.128-11.801 6.579-3.077 1.082-5.962 2.827-8.177 5.24-1.369-.444-1.234-2.092-1.42-3.266-.307-2.708.733-5.364.517-8.09-.024-5.885.451-11.776 1.706-17.531.325-2.055.76-4.1.826-6.184 3.134 5.12 6.253 10.349 10.6 14.552 2.492 2.582 5.31 6.076 7.044 9.256 1.26-.398 1.87-1.056.94-1.996-3.284-5.243-9.255-9.767-12.588-14.982-2.15-3.141-4.373-6.483-5.962-9.821-.06-.875-.658-2.382.812-1.845 2.742.512 5.155 2.429 6.573 4.779.597 1.931.594 4.464 2.694 5.47 3.272 1.682 7.057.483 10.452-.14 6.393-1.14 12.92-2.24 18.807-5.11 1.337-.605 2.406-1.62 3.6-2.45-8.466.647-17.033 2.269-25.493.807-2.042-.356-4.181-.87-5.534-2.582-2.112-2.345-2.307-5.72-3.704-8.41-2.266-2.763-6.065-3.134-9.39-3.31.602-1.06-2.323.76-1.279 1.118zm3.48.249c2.376.29 5.21 1.099 6.296 3.422 1.223 3.323 1.97 7.36 5.29 9.292 1.762 1.088 3.956 1.218 5.968 1.535 7.002.93 14.046-.25 21.033-.789-5.911 2.95-12.506 3.997-18.941 5.175-3.185.57-6.743 1.706-9.787.073-2.364-1.36-1.1-4.767-3.178-6.373-1.864-2.189-4.623-4.18-7.596-3.91-.8.5-.464-1.722-.701-2.41-.254-2.042.056-4.132-.35-6.158l1.966.143zm-2.664 17.433c-.693 4.527-1.776 8.998-1.985 13.59-.388 4.602-.044 9.25-.914 13.802-.064 1.054.074 2.127.276 3.164-4.846-2.694-10.017-4.887-14.444-8.282 1.029-.683.179-.617 1.026-1.591.45-2.304 1.799-4.236 3.421-5.878 4.56-5.233 9.79-10.099 12.792-16.468l-.172 1.663zm21.2 20.748c-1.462.23-.598 1.565-.492 2.539 1.271 5.838 1.438 11.865 1.31 17.826 1.147-.307 1.685-.987 1.378-2.195.157-6.18-.553-12.345-1.762-18.399l-.434.23zm-37.05 4.064c4.426 2.728 9.191 4.835 13.655 7.505.233.77 1.315.185.912 1.554.173 4.99-.72 9.99.045 14.964.033.92.501 2.937-.838 1.647-2.642-1.723-5.283-3.482-8.035-5.025-2.241-1.035-4.665-1.578-7.007-2.332-.817.377-.337-1.612-.52-2.28.254-5.634.432-11.269.497-16.908l1.292.875zm26.71 5.218c-1.048.442-.827.797-1.503 1.532-1.681 2.662-2.902 6-3.223 9.085 2.6-1.582 6.45-1.868 9.339-2.902.91-.334 1.926-.644 2.469-1.513-.571-.004-.856-1.274-1.39-1.905-1.27-2.086-3.753-2.821-5.48-4.428l-.156.097-.056.034zm1.612 2.595c1.522.912 2.886 2.077 3.603 3.743-.413.462-1.738.602-2.512.872-1.605.487-3.353.689-4.875 1.341-.787.597.038-1.728.06-2.35.39-1.695 1.414-3.136 2.09-4.72l1.634 1.114zm-21.263.235c-.607.006-1.382-.128-1.937.384-1.636.917-2.19 2.94-2.68 4.606-.923.53.067 1.218-.173 1.932.838-.612 1.59-.7 2.39.022 1.149.557 2.286 1.087 3.424 1.67.594-.272.347 1.297 1.573.099.513-.573-.004-1.749.074-2.556-.274-2.015-.138-4.502-1.905-5.843-.262-.12-.464-.705-.766-.314zm-.091 1.497c1.48 1.512 1.082 3.815 1.423 5.739-1.593-.625-2.87-1.925-4.555-2.315.324-1.32.747-2.958 1.869-3.736.571-.015.851-.24 1.263.312zm-2.75 11.883c3.317 1.6 6.265 3.85 9.392 5.773.99-.93 1.143-.216 2.195-.954-1.18 1.149.865.533 1.42.035 1.058-.902 1.79-1.095 1.635.57.954 7.436.427 14.983.92 22.454.35 4.612 1.438 9.136 1.828 13.738.016 2.507-.09 5.126-.204 7.504-.068 1.117.018 2.347-1.246 1.138-4.337-2.172-8.27-5.182-12.813-6.951-1.289-.152-1.622-.793-2.067-.894-.485-4.99-.53-10.237-.745-15.33-.427-7.73-2.411-15.41-1.462-23.181.062-1.443.18-2.912-.064-4.342l1.212.44zm6.568 8.585c-.958.393-.918.902-1.626 1.577-1.776 1.862-1.579 5.542-1.936 7.929.83 1.178 1.45 1.2 2.015 1.224 1.443.722 2.928 1.357 4.428 1.954.116.325 1.76-.007 1.52-.872-.794-3.98-1.006-8.443-3.84-11.623-.572-.099-.521-.153-.56-.189zm.526 2.572c1.471 2.651 1.79 5.713 2.31 8.648a66.276 66.276 0 01-5.122-2.36c.137-2.386.5-4.806 1.423-7.02.807-.76.868.24 1.389.732zm20.097 21.229c.83.638-1.566 1.206-.34-.084.006-.39.23.07.34.084zm1.383 1.766c-1.46 1.088-.83-2.052-.123-.174l.105.15.018.024zm-1.04 1.697c.22 1.84-1.411.989-.629-.256.01-.516.46.246.628.256zm1.526 1.452c1.028.748.401 2.461-.565 1.037-.28-.182.09-2.244.565-1.037zm-2.195 1.48c-.524 1.211-1.34-1.81-.083-.081l.083.082zm3.966.166c.672 1.528-1.158 1.334-.14.045.043.02.139-.447.14-.045zM56 111.16c-.192.932-.867 2.97-.282.897.089-.296.182-.626.282-.897zm4.173 1.12c-.448.81-1.401-1.53-.092-.074l.092.075zm-2.378.292c-.254.678-.664 2.685-1.171 1.206.364-.693.075-2.423 1.17-1.206zm3.72 1.012c-.578 2.097-1.1-1.267-.075-.08l.076.08zm-2.634-.057c.885.434-.596 3.062-.745 1.696.26-.428.398-1.692.745-1.696zm3.715.846c-.795 1.007-.071-.504-.01-.121l.01.12zm-2.48 1.44c-.298 1.103-.996 1.387-.394.03.227-.42.13-.556.393-.03zm-3.533.114c-.5 2.328-1.082-.969-.03-.029l.03.03z"/><metadata/></svg>