<?xml version="1.0" encoding="UTF-8"?>
<svg width="128" height="128" version="1.0" xmlns="http://www.w3.org/2000/svg" xmlns:xlink="http://www.w3.org/1999/xlink">
 <path d="M65.625 6.719c-2.499.017-5.006.148-7.5.25l.375 6.843c-1.245.744-2.9.644-4.281 1.063l-.063-1.406-5.031-4.656c-3.82 1.98-7.87 2.726-12.844 8.25l.469 6.53c-2.112 7.535-1.451 15.946-.969 23.688 1.132 2.402 3.242 4.05 5.344 5.594l-3.656 54.063c6.86 9.574 17.656 12.146 28.75 13.656.704-.129.203-.698.469-1.25.967-.173 1.97-.375 2.968-.563l.406 1.031.376-.093.218-1.125c1.232-.236 2.473-.492 3.719-.75l.469 1.25.375-.031.156-1.407c1.054-.224 2.084-.477 3.125-.719l.375 1.282.438-.031.187-1.47c1.032-.245 2.065-.485 3.063-.75.015.126.562 1.126.562 1.126l.25-.063s.176-1.158.156-1.312a88.308 88.308 0 002.844-.844c.017.127.153.642.313.875 3.652-1.263 7.337-4.914 10-7.906l-5.47-55.469c1.79-1.44 3.22-3.134 4.126-5.094.19-8.62-.271-15.291-.406-22.937-.07-2.71-.988-5.522-2.626-8-2.09-2.83-4.008-3.53-5.937-5l-5.344 1.875-.062 3.281c-1.5-.786-2.45-2.559-4.844-1.781l-.031-1.875-3-5.656c-2.48-.389-4.97-.486-7.469-.47zm.781.5c2.185-.016 4.357.178 6.438.656l2.25 4.375c-3.877-.762-8.36-1.89-13.375-.594l-1.782-3.781a34.518 34.518 0 016.47-.656zm-7.469.593l2.282 3.782.718 4.969-2.718-2.875-.282-5.876zm-10 1.657l3.532 3.906c-3.748 1.04-6.85 2.139-9.438 5.844l-5.156-2.532c2.71-3.385 6.703-5.486 11.063-7.218zm17.032 2.5c.404-.016.796-.008 1.187 0 2.805.053 5.336.688 8 1.187l.406 4.219c2.3.776 4.623 1.491 6.438 3.563l-.469-6.875c2.118 1.478 3.919 3.464 4.781 5.062.93 1.72 1.119 3.483.5 5.438l-.156 3.906c-5.77-6.823-14.202-8.974-22.75-7.969-6.216 1.03-12.831 3.007-17.312 7.688l-2.875-1.782-.188-.656-.187-5.281c2.302-3.787 5.825-5.15 9.875-6.313l.593 5.313c1.88.06 3.949.121 8.907-1.469l-.594-5.469a18.901 18.901 0 013.844-.562zm20.25 0c1.944 1.42 4.15 2.781 5.594 4.5 1.416 1.687 2.468 4.4 2.5 7.281l-6.47.406c.434-1.926.082-3.6-.843-5.312-.922-1.708-2.917-3.713-4.969-5.188l4.188-1.687zM58.78 14l2.657 3.438c-1.927.768-4.54 2.033-6.97 1.78l-.28-3.812c1.665.06 3.175-.543 4.593-1.406zm17.907 1.313c2.126-.123 3.529 1.455 4.28 2.25l-.03 1.406c-1.344-.905-3.131-1.46-4.75-1.875l-.032-1.719c.184-.034.357-.052.531-.063zm-39.25 2.312L42.343 20l.156 5.031c-1.486-.304-2.902-.433-4.781-1.718l-.282-5.688zm28.687 3.125c5.809-.13 17.369 2.03 20.5 8.875.048.783-.504 1.058-.969 1.563L83.5 26.813c-2.85 1.644-5.88 2.718-9 3.468-.013-.006-1.423-.637-2-.906l2.5-1.906c.645.38 2.031 1.187 2.031 1.187l.188-.562s-.773-.34-1.875-.875l1.031-.813-.188-.343-1.25.937a49.877 49.877 0 01-2.562-1.344c.311-.179.632-.363.938-.531L73 24.812c-.364.183-.733.368-1.094.563-.909-.583-1.757-1.217-2.625-1.781l1.406-.782-.906.063-.875.469c-.765-.464-1.573-.85-2.5-1.032l-.312.188c.754.361 1.483.758 2.219 1.156l-3.75 1.969a109.157 109.157 0 01-2.626-1.281l-.093.25c.36.189 1.515.75 2.375 1.187l-4.75 2.5a235.688 235.688 0 00-3.657-1.468l-.187.375c.288.108 2.103.91 3.25 1.406l-3.5 1.843-2.188-1.062-.25.281 2.032 1-.969.5.719.375.968-.531 4.344 2.125c-.423.28-.863.58-1.281.844l-.063.375c.564-.329 1.136-.67 1.72-1.032l3.624 1.782-.844.625.47.406.968-.75.969.469.219-.344-.376 3.781c-2.905-.017-4.852.197-8.03-1.031l-.626-6.156c-4.03-.735-7.746-2.196-9.687-3.438 4.371-4.41 10.971-6.706 16.937-7.718.554-.106 1.264-.17 2.094-.188zm2.625 3.125c.975.537 1.94 1.104 2.906 1.656a57.044 57.044 0 00-3.219 1.907c-1.154-.544-2.313-1.072-3.343-1.563l3.656-2zm-31.25.438l5 1.78.281.657-4.718 1.656-.813 2.938c-.262-1.762-.343-5.263.25-7.032zm56.938.03l.03 6.157-6.937-1.063.219-4.625 6.688-.468zm-22.282 1.47c1.266.728 1.581.916 2.469 1.437l-2.563 1.906c-1.028-.48-1.45-.695-3.03-1.437a88.056 88.056 0 013.124-1.907zm-7.406.25c1.295.656 1.767.893 3.281 1.656-1.287.83-2.542 1.673-3.781 2.531-.474-.2-.756-.287-1.313-.531-.976-.43-1.861-.778-2.78-1.157l4.593-2.5zM44.219 27.28c1.856 2.255 5.112 4.053 10.656 5.219l-4.094 2.938c-3.995-1.323-8.667-1.013-11.75-6.313l5.188-1.844zm39.093.25l2.157 5.438c-5.75 1.632-11.196 3.934-17.281 3.75l-1.282-4.657c4.97-.459 10.846-1.606 16.406-4.53zM68.594 28c1.339.674 2.111 1.07 2.969 1.5l-2.407 1.781c-.613.087-1.227.145-1.844.219a85.466 85.466 0 01-2.562-1.031c1.277-.844 2.571-1.65 3.844-2.469zm-9.031.875c1.22.53 1.768.765 3.156 1.375.372.164.645.271.968.406-1.098.763-2.187 1.476-3.25 2.188l-4.343-2.063 3.468-1.906zM72 29.719l1.563.781a56.7 56.7 0 01-3.376.625L72 29.719zm-33.75.25c2.796 3.78 7.77 4.809 11.969 6.343l.156 6.313c3.593 1.147 5.583 2.015 17.375 2.313l.563-7.188c6.456.152 12.077-2.377 17.843-3.969l.719 7c3.291-2.135 6.275-3.983 7.969-7.562.367 4.482-.104 9.081-.469 13.718-5.96 9.642-18.382 11.46-28.719 11.594-10.103-.52-22.604-2.432-28.875-11.437-.447-5.617-1.328-11.302-.187-15.438l.843 2.032.813-3.72zm49.313.218l7.062 1.125c-.569 3.846-4.211 6.384-7.156 8.5l-.688-6.25-.656-1.468c.887-.385 1.117-1.079 1.438-1.907zm-23.376.657c.985.399 1.605.653 2.094.812-.041.005-.083-.004-.125 0l-.187 1.969-1.531 1.156-3.626-1.75c1.101-.69 2.237-1.436 3.376-2.187zm2.438 1.75l1.094 4.75-.5 6.187-1.094-4.031.5-6.906zm-10.438.218l.5 5.532-5.468 3.281v-5.281l4.968-3.532zm9.72 1.594l-.094 1-.75-.343.843-.657zm-8.75 4.5c3.358 1.278 5.501 1.348 8.437 1.375L66.28 44c-5.037.219-10.431.081-15.031-1.781l5.906-3.313zM90.28 53.063c2.251 18.112 4.275 36.347 5.375 54.624a23.69 23.69 0 01-1.219 1.344l-.53-2.25c-.6.548-1.214 1.004-1.813 1.438L91.156 106l-2.75 1.531-2.906-10c-2.452-2.293-4.997-3.63-7.625-4.687l-.063-4.344-2.937-.063-.563-3.124-5.562 1.374 1 3.126-2.594 1.28 2.031 2.688c-2.082 1.991-3.832 4.28-5.437 6.719-.771 4.18-1.11 8.41-1.344 12.656l-3.656-.906-.219 3a48.68 48.68 0 01-3.437-.906l-.407 3.5c-7.36-2.351-13.77-6.857-16.218-11.031.752-18.086 1.874-35.925 3.625-53.344 7.102 4.091 15.416 5.137 23.468 5.5 8.552.052 17.46-1.095 24.72-5.907zm-6.625 13c-1.729 1.72-2.444 4.373-2.812 6.812l.969 8.906-2.25 1.063.78 3.719c1.553-.145 2.914-.742 4.188-1.5l.781 2.562c-.05.564 4.704-1.014 6.876-3.188l-.844-2.968 1.781-1.625-1.063-4.594-2 1.25-1.124-9.156c-1.622-1.054-3.391-1.283-5.282-1.281zm-31.562.843c-1.728 1.034-2.622-.573-5.25 3.313l-.344 8.187a34.041 34.041 0 01-2.188-1l-.437 4.531c.92.721.719 1.167 3 1.907l-.25 2.875c2.207 1.064 4.73 1.81 7.688 2.125l-.063-3.094c1.468.329 2.958.567 4.5.563l.406-3.876a37.416 37.416 0 01-2.343-.374l-.126-9.97c-.749-2.401-2.53-3.898-4.593-5.187zm33.562.125c1.185.014 1.301.45 2.375 1l1.438 8.625c-.801.818-1.616 1.616-2.906 1.781l-.907-11.406zm-34.875.906c.63 3.886.324 7.771.157 11.657-1.374.152-2.385-.6-3.438-1.25l.344-7.875c.884-1.034 1.588-2.427 2.937-2.531zm32.157.407L85.656 79c-.95 1.343-2.15 1.432-3.25 2.031l-.562-8.156v-.031c-.012-1.922.12-2.884 1.094-4.5zm-29.97.156c1.454.878 2.013 1.948 2.72 3.719l.124 9.156c-1.533-.017-2.692-.782-3.906-1.438.162-3.89.113-7.863 1.063-11.437zm38.907 7.219l.688 3.906c-.504.74-1 1.435-1.782 1.656-.73.207-1.546.352-2.375.625l-1-2.562c.999-.66 1.894-1.435 2.625-2.438l1.844-1.187zM44.781 78c1.548.75 3.744 2.247 5.532 2.5.095.036.185.09.28.125l-.468 3.344c-1.758-.559-4.146-.824-5.781-2L44.78 78zm42.157 1.656l.874 2.375c-2.124 1.411-4.625 3.665-7.156 4.125l-.75-3.031c2.128-1.138 4.357-1.585 6.5-3.156.183-.101.353-.205.531-.313zm-35.782 1.188c.451.152.916.28 1.375.406 1.941.88 4.213 1.308 6.063 1.594l-.344 2.781c-2.3-.1-5.356-.9-7.656-1.531l.562-3.25zm39.75 1.031l.344 2c-.641 1.435-3.03 3.056-5.656 3.375l-.688-2.438c1.131-.71 2.21-1.515 3.313-2.28l.062-.032v.031c.768-.29 1.683-.389 2.625-.656zm-43.594 2.094c.754.227 1.693.484 3 .781 1.158.294 2.308.6 3.47.875l.156 2.75c-1.992-.313-5.008-1.06-6.876-1.906l.25-2.5zm26.532 1.969l.656 2.75v.187h.063l.718 3c-.856-.3-1.722-.598-2.594-.906-.45.291-.89.619-1.312.937L69.5 87.094l4.344-1.156zm1.125 2.968l2.312.063.125 3.687a64.79 64.79 0 00-1.875-.687l-.562-3.063zm-5.031 1.406l.687 2.157c-.401.328-.778.68-1.156 1.031l-1.719-2.25 2.188-.938zm2.968 1.25c.032-.005.063.005.094 0 6.288 1.532 8.564 4.154 12.188 6.407 1.537 4.982 3.139 10.143 3.874 15.437-.543.346-1.086.681-1.656 1l-3.969-15.25c-2.526-3.1-6.13-4.412-9.78-5.687-3.372 1.9-5.36 4.468-6.72 8.031L65.5 119.469c-.801.027-1.598.013-2.406-.031-.198-6.293-.06-12.458 1.031-18.688 2.259-3.732 5.545-6.963 8.719-9.156.022-.005.04-.027.062-.031zm.875 3.032c.89.37 1.786.591 2.656.812l.25 2.656c-.908.083-1.813.199-2.718.313l-.281-3.656h-.094c.062-.044.125-.082.187-.125zm-1.062.75l.25 3.125c-1.24.148-2.545.318-3.063.375l-.031-1.031c.839-1.019 1.817-1.753 2.844-2.47zm4.75.344c.309.086.608.174.906.28.872.312 1.696.738 2.469 1.438-1.032.236-2.032.46-3.156.531l-.22-2.25zM81.406 98c.376.428.743.916 1.094 1.531l.531 2-1.219.125c-.022-.195-.04-.47-.062-.656-.108-.952-.219-1.777-.281-2.406-.032-.316-.047-.39-.063-.594zm-.937.594c.004.044-.005.047 0 .094.063.637.173 1.483.281 2.437.021.188.04.46.063.656l-2.72.313-.312-3.156c1.139-.14 2.36-.303 2.688-.344zm-3.688.437l.313 3.188-2.844.344-.219-3.188a162.59 162.59 0 002.75-.344zm-7.844.188l.126 3.937-1.313.156.156-1.562c.274-.998.636-1.816 1.031-2.531zm4.094.281l.219 3.156-3.188.375-.124-3.187a256.49 256.49 0 003.093-.344zm10.25 3l.875 3.406-1.781.375c-.153-1.28-.306-2.473-.438-3.625l1.344-.156zm-2.344.281c.135 1.172.282 2.384.438 3.688l-2.813.562-.374-3.937 2.75-.313zm-3.75.438l.376 4-2.907.562-.312-4.219 2.844-.343zm-3.843.469l.312 4.28-3.375.657-.156-4.563 3.219-.374zm-4.219.5l.156 4.656-2.062.406.469-4.906 1.437-.156zm21.375 2.624l.75 2c-.698.469-1.396.896-2.094 1.344l-.656-2.312.031.031 1.969-1.063zm-6.094.094L85.5 111l-2.5.5a552.106 552.106 0 00-.531-4.219l1.937-.375zm9.188.5l.531 1.969a28.51 28.51 0 01-4.188 3.469l-.656-2.313c1.474-.867 2.95-1.705 4.313-3.125zm-12.094.063c.155 1.408.35 2.813.531 4.219l-2.969.593-.406-4.25 2.844-.562zm-3.844.75l.406 4.25-3.03.594-.313-4.282 2.937-.562zm-3.937.75l.312 4.312-3.562.719-.156-4.375 3.406-.656zm-4.406.875l.187 4.344-2.813.562.563-4.344 2.063-.562zm16.437 2.125l.5 1.875c-.916.287-1.867.573-2.844.844-.059-.466-.181-1.393-.281-2.188l2.625-.531zm-3.594.719c.103.818.224 1.825.281 2.28-.982.263-2.011.505-3.03.75l-.25-2.437 3-.594zm-22.969.187l3.188.781c-.038.71-.091 1.416-.125 2.125a22.138 22.138 0 01-3.25-.437l.188-2.469zm18.97.625l.25 2.438c-1.029.24-2.052.463-3.094.687l-.188-2.531 3.031-.594zm-4.032.813l.188 2.53c-1.239.26-2.462.514-3.688.75l-.094-2.562 3.594-.719zm-18.656.562c2.257.763 4.523 1.18 6.781 1.5-.047.987-.108 1.983-.156 2.969A34.28 34.28 0 0155.25 118l.219-3.125zm14.062.344l.094 2.562c-1.072.203-2.151.409-3.188.594-.033.006-.062.02-.093.031l.156-2.531 3.031-.656z" fill="#5c2700" fill-rule="evenodd"/>
</svg>
