<?xml version="1.0" encoding="UTF-8"?>
<svg width="128" height="128" version="1.0" xmlns="http://www.w3.org/2000/svg" xmlns:xlink="http://www.w3.org/1999/xlink">
 <path d="M72.375 4.156L58.75 8.906l.156 5.031-4.687-3.906L36.656 17l-.156 5.219-3.813 1.187-3.156-3.781-14.156 4.719.031 18.281 3 2.469-2.468 55.062 3.937 2.719-2.969 10.344 8.157 5.937 8.687-6.687 17.813 12.281 56.25-22.219-.657-14.844 6.75-2.718-7.656-18.031-1.031-23.063 2.531-1.156-.719-15.375L95.875 19.5l-4.594 2.125-1.062-5.594-6.469-4.5-2.281 1.219-.594-2.813-8.5-5.78zm.094.5l7.062 5.188-6.312 3.062-3.063-2.219-4.437 1.782-5.781-3.313 12.53-4.5zM59.53 9.375l6.25 4-.031 4.063-6.219-3.563v-4.5zm20.625.781l.594 3.094-4.531 2.25.187 1.594-3.094 1.437.063-4.562 6.781-3.813zm-25.969.594l5.157 4.469-14.969 5.5-6.438-3.375 16.25-6.594zm15.376 1.219c.141 3.225.642 6.646.656 9.875-9.901 5.035-20.605 9.348-30.719 13.937L35.281 32 35 31.781l-.281.157-3.594 1.812.156-4-2.062-2.656 4.656-2-.25 5.343 10.813-3.968.25-4.782 15.156-5.968.406 5.625 6.5-3.157-.063-5.062 2.876-1.156zm1.03.281l1.75 1.281.344 5.813 3.97 2.437.312-5.531 5.844 3.844-.094 5.312 4.687 2.75-2.281 1.125.469 5.219-14.906-12.438c-.017-3.125-.018-6.688-.094-9.812zm13 0l5.376 4.156-5.906 3.094-5.594-3.938 6.125-3.312zm-23.062 3.031l5.657 3.063-5.094 1.968-.563-5.03zm29.344 1.594l.813 4.656-7.313 3.563v-4.625l6.5-3.594zm-52.5.938l6.344 3.687.062 4.344-6.718-4.125.312-3.907zm38.781.312l.063 2.688-2.375-1.438 2.312-1.25zm19.781 2c3.182 2.36 6.434 5.154 9.5 7.438-4.407 2.693-9.243 4.634-14 6.625l-4.968-4.813 7.719-3.5-3.782-2.75 5.531-3zm-66.468.188l3.25 4.625-4.813 1.906 2.219 2.625-6.313 2.656-7.53-7.563 13.187-4.25zM70.187 22.5l15.876 13.25-3.25 1.219-5.438-4.313-11.75 5.157.5 5.093-4.906 2-3-3.125-7.25 4-3.125-3.656-4.188 2.344-.718-1-.344-4.75-2.282-2.188c9.812-4.936 20.295-8.633 29.876-14.031zm18.688.406l3.406 2.813-3.687 1.625.281-4.438zm-51.594.125l5.813 3.282-8.813 3.375.25-4.532-.687-.937 3.437-1.188zm50.782.532l-.032 3.78-3.594-2.124 3.626-1.657zm-71.75 1.656l6.812 7.625h-.094l-.375 5.593 5.032 5.657-.22-7.25 6.657 6.468-.031 5.407 7.187 5.187.282-6.968 7.718 7.25c-.4 4.784-.491 9.646-.593 14.468l-32.72-26.312.345-17.125zm89.75 3.093l.843 14.188-57.219 25.938c.085-4.787-.273-9.826.094-14.594l13.094-5.813 1 5.219L74 48.875l-.344-4.75 9.875-4.75.75 5.125 8.969-3.938-.813-5.687c4.612-2.034 9.356-3.854 13.626-6.563zM86.03 30.22l5.625 4.906.688 4.094-5.594-3.688-.719-5.312zm-55.219.062l-.156 3.75-4 2-.187.344v.156l-2.75 1.282.312-4.688 6.782-2.844zm4.032 2.688L41.03 38.5l-6.375 3.938-6.312-6.126 6.5-3.343zm42.406.156l6.313 5.375L73 43.969l-6.563-5.844 10.813-5zm9.656 3.094l5.469 3.875-7.313 2.968-.656-4.374-.719-1.032 3.22-1.437zm-60.312.843l.031 4.313-2.938-2.5 2.907-1.813zm39.656 1.813l6.438 5.688.937 3.593-6.875-5.062-.5-4.219zm-24.563.438l.563 4.187-7.156 3.813.031-3.97 6.563-4.03zm16.5 3.156l4.532 4.812-13 5.938L42.03 46l5.688-3.25 2.781 3.625 7.688-3.906zm8 .812l6.563 5.032-8.125 3.5-.844-4.25v-.032l-.031-.156-.094.031-.343-.343-1.344-1.376 4.218-2.406zm-23.656.75l.469.563-2.281 1.375-.282 6.531-5.156-4.156 7.25-4.313zm62.313.032L106.125 87l.656 14.844-10.437 4.125-2.625-19.438L82 81.656l-11.375 12-.25 22.531-17.719 7 .157-55.124 52.03-24zm-85.469 1.812l29.313 24.094 3.562-1.781-.844 55.093-17.343-11.844 2.187-22.062.031-.031-.031-.031h-.031l-7.875-3.938-5.563 7.25-.031.031-.031.094-2.563 9.094L16.5 100l2.875-54.125zM93.463 56.54l-3.282 5.281-.156 11.813-1.375.844v4.218l12.75-6.625v-4.656l-1.844 1-.78-10.031-5.313-1.844zm.406 1.188l4.562 1.125.688 9.875-8.094 4.187-.5-10.969 3.344-4.218zm-59.463 9.366c-1.796.113-3.097 1.435-4.687 2.062l.187 7.531-2.718-1.718-.344 4.5 14.937 8.406-.062-5.594s-1.142-.522-2.657-1.219l.688-6.75c-1.001-2.649-2.657-5.052-4.531-7.187a4.088 4.088 0 00-.813-.031zm66.557 1.321l.312 3.313-12.156 6.28.187-3.28 11.657-6.313zm-66.65-.853c.17-.002.329.02.5.094 2.369 1.808 2.613 4.728 3.906 6.75l-.094 6.656-8.25-4.343.344-6.875c1.194-.569 2.4-2.26 3.593-2.281zm71.874.282l7.094 16.812-6.156 1.938-.938-18.75zm-44 3.812l-3.28 5.281L58.624 89l-1.25.719v4.219l12.75-6.626v-4.656l-1.844 1L67.5 73.5l-5.313-1.844zm.407 1.188l4.562 1.125.156 10.219-7.656 4.218-.5-11.344 3.438-4.218zm-34.938 2.875c4.138 2.32 9.12 5.294 13.657 6.656l.093 4.656-14.031-7.594c-.169-.676.262-3.61.281-3.718zm54.407 6.094l11.312 5.156 2.438 19.25-1.657.594-2.562-18.938-8.969-3.469-9.125 9.375.094 21.125-2.219.906-.313-21.843 11-12.156zm-12.157 1.406l-.094 3.844-11.968 6.374V89.97l12.062-6.75zm12.969 2.375l8.469 2.594 1.844 19-2.75 1.093 1.874-2.906-.156-.156-2.844 3.5-4.187 1.656-.063-.719c2.301-3.88 4.035-8.23 6.22-12.156L91 97.344c-2.075 3.633-3.994 7.362-6.063 11l-.562-6.219 6.313-13.281-.188-.125-6.25 12.062-.594-6.875 2.813-6.156-.219-.063-2.688 5.282-.624-6.844-.25.063.312 5.374-4.781-1.312-.063.313 4.875 1.75.25 4.343-7.906-2.937-.188.125 8.157 3.781.344 6.281-8.532-3.437-.312.156 8.906 4.031.344 6.125-.125.063-9.313-3.125-.125.344 8.406 3.156-8.687 3.437-.281-20.719 8.906-8.343zM28.562 86l6.094 3.719-5.468 6.406-5.5-3.375L28.563 86zm6.5 4.75l-1.718 21.156-8.063 5.781 4.688-21 5.093-5.937zm-11.53 2.781l5.312 3.531-4.344 20.47-7.125-4.5 6.156-19.5z" fill="#5c2700" fill-rule="evenodd"/>
</svg>
