<svg xmlns="http://www.w3.org/2000/svg" xmlns:xlink="http://www.w3.org/1999/xlink" width="128" height="128" version="1.0"><defs><linearGradient xlink:href="#a" id="G" x1="66.048" y1="41.866" x2="71.23" y2="48.621" gradientUnits="userSpaceOnUse" gradientTransform="translate(5 1)"/><linearGradient id="a"><stop offset="0" stop-color="#b1b1b1"/><stop offset="1" stop-color="#e4e4e4"/></linearGradient><linearGradient xlink:href="#a" id="d" x1="23.524" y1="54.659" x2="44.108" y2="99.114" gradientUnits="userSpaceOnUse" gradientTransform="translate(5 1)"/><linearGradient xlink:href="#a" id="e" x1="36.204" y1="85.986" x2="34.308" y2="78.159" gradientUnits="userSpaceOnUse" gradientTransform="translate(5 1)"/><linearGradient xlink:href="#a" id="h" x1="29.11" y1="108.125" x2="35.47" y2="104.333" gradientUnits="userSpaceOnUse" gradientTransform="translate(5 1)"/><linearGradient xlink:href="#a" id="g" x1="23.973" y1="99.379" x2="25.441" y2="111.977" gradientUnits="userSpaceOnUse" gradientTransform="translate(5 1)"/><linearGradient xlink:href="#a" id="f" x1="29.477" y1="91.123" x2="33.146" y2="92.591" gradientUnits="userSpaceOnUse" gradientTransform="translate(5 1)"/><linearGradient xlink:href="#a" id="i" x1="59.687" y1="118.276" x2="97.726" y2="53.207" gradientUnits="userSpaceOnUse" gradientTransform="translate(5 1)"/><linearGradient xlink:href="#a" id="j" x1="61.767" y1="86.414" x2="62.134" y2="92.652" gradientUnits="userSpaceOnUse" gradientTransform="translate(5 1)"/><linearGradient xlink:href="#a" id="k" x1="98.46" y1="69.78" x2="95.096" y2="76.385" gradientUnits="userSpaceOnUse" gradientTransform="translate(5 1)"/><linearGradient xlink:href="#b" id="l" x1="86.229" y1="96.933" x2="78.401" y2="110.265" gradientUnits="userSpaceOnUse" gradientTransform="translate(5 1)"/><linearGradient xlink:href="#a" id="m" x1="108" y1="84.029" x2="113.626" y2="76.813" gradientUnits="userSpaceOnUse" gradientTransform="translate(5 1)"/><linearGradient xlink:href="#a" id="P" x1="68.688" y1="26.689" x2="66.328" y2="42.084" gradientUnits="userSpaceOnUse" gradientTransform="translate(5 1)"/><linearGradient xlink:href="#a" id="O" x1="67.51" y1="14.563" x2="42.256" y2="33.763" gradientUnits="userSpaceOnUse" gradientTransform="translate(5 1)"/><linearGradient xlink:href="#a" id="N" x1="23.361" y1="37.857" x2="30.945" y2="32.03" gradientUnits="userSpaceOnUse" gradientTransform="translate(5 1)"/><linearGradient xlink:href="#a" id="M" x1="22.872" y1="39.508" x2="39.485" y2="32.763" gradientUnits="userSpaceOnUse" gradientTransform="translate(5 1)"/><linearGradient xlink:href="#a" id="L" x1="32.169" y1="40.319" x2="40.792" y2="33.4" gradientUnits="userSpaceOnUse" gradientTransform="translate(5 1)"/><linearGradient xlink:href="#a" id="K" x1="36.171" y1="47.411" x2="41.648" y2="41.703" gradientUnits="userSpaceOnUse" gradientTransform="translate(5 1)"/><linearGradient xlink:href="#a" id="J" x1="35.632" y1="48.605" x2="45.665" y2="45.212" gradientUnits="userSpaceOnUse" gradientTransform="translate(5 1)"/><linearGradient xlink:href="#a" id="I" x1="49.277" y1="51.112" x2="56.062" y2="42.016" gradientUnits="userSpaceOnUse" gradientTransform="translate(5 1)"/><linearGradient xlink:href="#a" id="H" x1="64.346" y1="51.546" x2="64.692" y2="43.239" gradientUnits="userSpaceOnUse" gradientTransform="translate(5 1)"/><linearGradient id="b"><stop offset="0" stop-color="#6a3c1d"/><stop offset="1" stop-color="#8f5127"/></linearGradient><linearGradient xlink:href="#a" id="F" x1="71.237" y1="44.217" x2="78.96" y2="33.86" gradientUnits="userSpaceOnUse" gradientTransform="translate(5 1)"/><linearGradient xlink:href="#a" id="E" x1="83.669" y1="42.592" x2="85.518" y2="36.023" gradientUnits="userSpaceOnUse" gradientTransform="translate(5 1)"/><linearGradient xlink:href="#a" id="D" x1="86.706" y1="32.154" x2="91.053" y2="40.303" gradientUnits="userSpaceOnUse" gradientTransform="translate(5 1)"/><linearGradient xlink:href="#a" id="C" x1="56.067" y1="64.137" x2="102.545" y2="34.386" gradientUnits="userSpaceOnUse" gradientTransform="translate(5 1)"/><linearGradient xlink:href="#a" id="B" x1="92.465" y1="33.85" x2="100.031" y2="21.396" gradientUnits="userSpaceOnUse" gradientTransform="translate(5 1)"/><linearGradient xlink:href="#a" id="z" x1="83.538" y1="25.382" x2="91.529" y2="18.203" gradientUnits="userSpaceOnUse" gradientTransform="translate(5 1)"/><linearGradient xlink:href="#a" id="y" x1="84.31" y1="25.504" x2="89.219" y2="16.331" gradientUnits="userSpaceOnUse" gradientTransform="translate(5 1)"/><linearGradient xlink:href="#a" id="x" x1="78.49" y1="18.904" x2="86.612" y2="9.564" gradientUnits="userSpaceOnUse" gradientTransform="translate(5 1)"/><linearGradient xlink:href="#a" id="w" x1="73.142" y1="19.572" x2="80.545" y2="12.307" gradientUnits="userSpaceOnUse" gradientTransform="translate(5 1)"/><linearGradient xlink:href="#a" id="v" x1="74.281" y1="19.144" x2="81.336" y2="9.726" gradientUnits="userSpaceOnUse" gradientTransform="translate(5 1)"/><linearGradient xlink:href="#a" id="u" x1="69.778" y1="16.542" x2="73.785" y2="4.344" gradientUnits="userSpaceOnUse" gradientTransform="translate(5 1)"/><linearGradient xlink:href="#a" id="t" x1="59.778" y1="12.037" x2="63.583" y2="19.475" gradientUnits="userSpaceOnUse" gradientTransform="translate(5 1)"/><linearGradient xlink:href="#a" id="s" x1="59.443" y1="17.431" x2="62.929" y2="8.783" gradientUnits="userSpaceOnUse" gradientTransform="translate(5 1)"/><linearGradient xlink:href="#a" id="r" x1="37.305" y1="15.841" x2="59.81" y2="15.841" gradientUnits="userSpaceOnUse" gradientTransform="translate(5 1)"/><linearGradient xlink:href="#a" id="q" x1="38.25" y1="18.599" x2="42.496" y2="24.48" gradientUnits="userSpaceOnUse" gradientTransform="translate(5 1)"/><linearGradient xlink:href="#a" id="p" x1="33.391" y1="25.932" x2="38.589" y2="19.359" gradientUnits="userSpaceOnUse" gradientTransform="translate(5 1)"/><linearGradient xlink:href="#a" id="o" x1="15.9" y1="26.115" x2="33.758" y2="26.115" gradientUnits="userSpaceOnUse" gradientTransform="translate(5 1)"/><linearGradient xlink:href="#a" id="n" x1="19.735" y1="34.292" x2="46.819" y2="65.6" gradientUnits="userSpaceOnUse" gradientTransform="translate(5 1)"/><linearGradient xlink:href="#a" id="A" gradientUnits="userSpaceOnUse" x1="77.807" y1="22.314" x2="87.859" y2="38.538" gradientTransform="translate(5 1)"/><filter id="c"><feGaussianBlur stdDeviation="1.793"/></filter></defs><metadata/><g fill-rule="evenodd"><path d="M53.5 123.5l-18-8-9 1-6.5-2 4-8.5-5.54-3.641-3.928-44.362L10 55l-4.5-9 10-4 7.5 3.5 37.5-5 41 49-48 34z" transform="matrix(1 0 0 .96386 1 3.464)" fill-opacity=".579" filter="url(#c)"/><path d="M23.854 46.319l-2.768 54.832 36.152 23.698.519-56.39-3.633 1.903-30.27-24.043z" fill="url(#d)"/><path d="M32.275 76.162l-.489 4.158 15.044 8.195-.244-5.137-5.994-2.568-8.317-4.648z" fill="url(#e)"/><path d="M35.088 77.507l.367-7.094 3.425-2.079.978.122 3.058 4.159 1.468 3.302-.367 6.36-8.929-4.77z" fill="#d59163"/><path d="M23.854 46.319l-2.768 54.832 36.152 23.698.519-56.39-3.633 1.903-30.27-24.043z" fill-opacity=".157"/><path d="M33.743 86.558l-5.26 6.972 5.994 4.159 5.993-7.094-6.727-4.037z" fill="url(#f)"/><path d="M28.361 94.02l-6.238 20.058 7.584 5.626 4.647-21.893-5.993-3.792z" fill="url(#g)"/><path d="M40.47 91.084l-6.238 6.727-4.77 21.771 9.051-6.36 1.957-22.138z" fill="url(#h)"/><path d="M33.743 86.558l-5.26 6.972 5.994 4.159 5.993-7.094-6.727-4.037zM28.361 94.02l-6.238 20.058 7.584 5.626 4.647-21.893-5.993-3.792z" fill-opacity=".157"/><path d="M57.349 68.701l-.367 56.385 55.284-21.893-2.324-58.71L57.35 68.702z" fill="url(#i)"/><path d="M62.608 90.717l12.476-6.727-.122 4.28-12.354 6.483v-4.036z" fill="url(#j)"/><path d="M93.797 75.673l12.598-6.727v4.158l-12.598 6.36v-3.791z" fill="url(#k)"/><path d="M78.998 116.28l-.123-21.65 8.562-8.928 9.051 3.303 2.691 19.325-20.181 7.95z" fill="url(#l)"/><path d="M64.198 89.25l-.244-11.131 3.424-5.015 5.015 1.468.49 10.64-8.562 5.016-.123-.979zM95.51 73.838l-.245-11.13 3.302-4.526 5.137 1.223.734 10.52-8.928 5.014v-1.101z" fill="#d59163"/><path d="M111.777 88.27l6.85-2.446-7.829-18.468.979 20.915z" fill="url(#m)"/><path d="M20.411 25.525l.122 17.98 33.391 27.153.49-15.778-7.95-7.828-.612 6.972-6.483-4.159.123-5.87-7.217-6.36v5.992l-4.158-4.28.367-5.627-8.073-8.195z" fill="url(#n)"/><path d="M35.7 31.03l-1.835-2.936 4.893-2.08-4.281-5.259L20.9 25.281l7.584 8.195h1.1l6.116-2.447z" fill="url(#o)"/><path d="M38.39 24.914l3.915-1.835 6.482 4.159-9.662 3.547.244-4.526-.978-1.345z" fill="url(#p)"/><path d="M41.693 23.568l.367-5.259 7.339 3.914-.49 4.892-7.216-3.547z" fill="url(#q)"/><path d="M42.305 18.554l17.245-7.217 5.26 5.137-15.534 5.871-6.971-3.791z" fill="url(#r)"/><path d="M65.544 21.856l5.87-2.69-.244-.49-6.727-3.67 1.1 2.202v4.648z" fill="url(#s)"/><path d="M71.17 18.92l-.245-4.892-6.85-3.791s-.366 4.158 0 4.892c1.59 1.1 7.34 4.159 7.095 3.792z" fill="url(#t)"/><path d="M71.048 13.906l4.158-1.59 3.18 2.202 6.972-3.548-8.073-5.626-13.087 4.77 6.85 3.792z" fill="url(#u)"/><path d="M85.48 10.726l.856 3.302-4.525 2.569-.367 2.08-3.18 1.467-.367-5.504 7.583-3.914z" fill="url(#v)"/><path d="M81.566 18.676l-3.424 1.345 3.302 2.447.122-3.792z" fill="url(#w)"/><path d="M81.933 16.597l6.727-3.547 6.238 4.525-6.727 3.303-6.238-4.281z" fill="url(#x)"/><path d="M94.898 17.33l1.223 5.627-7.95 3.547-.245-5.626 6.972-3.547z" fill="url(#y)"/><path d="M93.675 23.813l-.245 5.137-4.892-2.935 5.137-2.202z" fill="url(#z)"/><path d="M74.969 12.438l.594 10.874 15.78 13.344-.718-5.75.594-.968 2-1.063-.031.313 5.374-2.688-5-2.563-.343 4.813-5.156-2.625.093-5-6.719-4.531v5.625l-3.406-1.844.219-5.844-3.281-2.094z" fill="url(#A)"/><path d="M94.653 23.69l6.36-3.057 10.764 8.195-14.8 7.094-6.604-5.626 7.95-3.303-3.67-3.302z" fill="url(#B)"/><path d="M111.532 28.95l.856 14.677-58.586 26.909.856-15.656 13.576-6.116.857 4.893 9.907-3.914-.856-4.403 10.885-5.26.612 4.648 8.317-3.302-.734-5.871 14.31-6.605z" fill="url(#C)"/><path d="M90.495 30.54l.611 5.993 6.85 4.77-.856-5.626-6.605-5.137z" fill="url(#D)"/><path d="M91.84 37.023l-4.036 1.1 1.346 1.835.733 5.015 8.073-3.792-6.116-4.158z" fill="url(#E)"/><path d="M89.15 39.836l-11.13 5.381-6.972-6.237 11.374-5.137 6.728 5.993z" fill="url(#F)"/><path d="M71.048 39.224l.367 5.137 7.583 5.26-.612-4.526-7.338-5.87z" fill="url(#G)"/><path d="M71.292 44.239l-5.015 2.08 2.202 2.323.856 5.015 9.418-4.036-7.46-5.382z" fill="url(#H)"/><path d="M63.22 43.016l5.626 5.993-14.555 5.626-8.317-7.46 6.605-3.548 3.057 3.547 7.584-4.158z" fill="url(#I)"/><path d="M48.665 45.829l-1.101-1.223-7.95 4.28 6.36 5.505v-7.094l2.69-1.468z" fill="url(#J)"/><path d="M47.686 44.728l-.244-4.892-7.828 4.28.122 5.26 7.95-4.648z" fill="url(#K)"/><path d="M46.83 39.591l-7.094-6.482-7.583 4.28 7.583 6.605 7.094-4.403z" fill="url(#L)"/><path d="M31.908 43.505l-4.036-4.036 4.159-1.957-.123 5.993z" fill="url(#M)"/><path d="M28.361 38.857l.367-4.892 7.217-3.303-.123 4.77-4.036 1.958-3.425 1.467z" fill="url(#N)"/><path d="M44.75 37.39l30.7-14.31-.122-11.009-3.791 1.59.122 5.504-5.748 2.813-.734-5.504-16.023 5.75-.122 5.014-10.152 3.914.49-4.893-.735-.734-4.525 2.569 1.957 2.813-.122 4.526 4.403-2.202 4.403 4.159z" fill="url(#O)"/><path d="M44.629 37.023l27.764-12.354 3.058-1.59 16.634 14.066-4.526 1.223-5.259-4.525-11.62 5.137.857 5.137-5.26 2.446-3.057-3.792-7.339 4.403-2.813-3.791-4.159 2.446-1.345-.856-.367-5.137-2.568-2.813z" fill="url(#P)"/><path d="M20.411 25.525l.122 17.98 33.391 27.153.49-15.778-7.95-7.828-.612 6.972-6.483-4.159.123-5.87-7.217-6.36v5.992l-4.158-4.28.367-5.627-8.073-8.195zM41.693 23.568l.367-5.259 7.339 3.914-.49 4.892-7.216-3.547zM71.17 18.92l-.245-4.892-6.85-3.791s-.366 4.158 0 4.892c1.59 1.1 7.34 4.159 7.095 3.792zM74.969 12.438l.594 10.874 15.78 13.344-.718-5.75.594-.968 2-1.063-.031.313 5.374-2.688-5-2.563-.343 4.813-5.156-2.625.093-5-6.719-4.531v5.625l-3.406-1.844.219-5.844-3.281-2.094z" fill-opacity=".157"/><path d="M90.495 30.54l.611 5.993 6.85 4.77-.856-5.626-6.605-5.137zM71.048 39.224l.367 5.137 7.583 5.26-.612-4.526-7.338-5.87z" fill-opacity=".157"/></g><path d="M77.375 5.156L63.75 9.906l.156 5.031-4.687-3.906L41.656 18l-.156 5.219-3.813 1.187-3.156-3.781-14.156 4.719.031 18.281 3 2.469-2.468 55.062 3.937 2.719-2.969 10.344 8.157 5.937 8.687-6.687 17.813 12.281 56.25-22.219-.657-14.844 6.75-2.718-7.656-18.031-1.031-23.063 2.531-1.156-.719-15.375-11.156-7.844-4.594 2.125-1.062-5.594-6.469-4.5-2.281 1.219-.594-2.813-8.5-5.78zm.094.5l7.062 5.188-6.312 3.062-3.063-2.219-4.437 1.782-5.781-3.313 12.53-4.5zM64.53 10.375l6.25 4-.031 4.063-6.219-3.563v-4.5zm20.625.781l.594 3.094-4.531 2.25.187 1.594-3.094 1.437.063-4.562 6.781-3.813zm-25.969.594l5.157 4.469-14.969 5.5-6.438-3.375 16.25-6.594zm15.376 1.219c.141 3.225.642 6.646.656 9.875-9.901 5.035-20.605 9.348-30.719 13.937L40.281 33 40 32.781l-.281.157-3.594 1.812.156-4-2.062-2.656 4.656-2-.25 5.343 10.813-3.968.25-4.782 15.156-5.968.406 5.625 6.5-3.157-.063-5.062 2.876-1.156zm1.03.281l1.75 1.281.344 5.813 3.97 2.437.312-5.531 5.844 3.844-.094 5.312 4.687 2.75-2.281 1.125.469 5.219-14.906-12.438c-.017-3.125-.018-6.688-.094-9.812zm13 0l5.376 4.156-5.906 3.094-5.594-3.938 6.125-3.312zm-23.062 3.031l5.656 3.063-5.093 1.968-.563-5.03zm29.344 1.594l.813 4.656-7.313 3.563v-4.625l6.5-3.594zm-52.5.938l6.344 3.687.062 4.344-6.718-4.125.312-3.907zm38.781.312l.063 2.688-2.375-1.438 2.312-1.25zm19.781 2c3.182 2.36 6.434 5.154 9.5 7.438-4.407 2.693-9.243 4.634-14 6.625l-4.968-4.813 7.719-3.5-3.782-2.75 5.531-3zm-66.468.188l3.25 4.625-4.813 1.906 2.219 2.625-6.313 2.656-7.53-7.563 13.187-4.25zM75.187 23.5l15.876 13.25-3.25 1.219-5.438-4.313-11.75 5.157.5 5.093-4.906 2-3-3.125-7.25 4-3.125-3.656-4.188 2.344-.718-1-.344-4.75-2.282-2.188c9.812-4.936 20.295-8.633 29.876-14.031zm18.688.406l3.406 2.813-3.687 1.625.281-4.438zm-51.594.125l5.813 3.282-8.813 3.375.25-4.532-.687-.937 3.437-1.188zm50.782.532l-.032 3.78-3.594-2.124 3.626-1.657zm-71.75 1.656l6.812 7.625h-.094l-.375 5.593 5.032 5.657-.22-7.25 6.657 6.468-.031 5.407 7.187 5.187.282-6.968 7.718 7.25c-.4 4.784-.491 9.646-.593 14.468l-32.72-26.312.345-17.125zm89.75 3.093l.843 14.188-57.219 25.938c.085-4.787-.273-9.826.094-14.594l13.094-5.813 1 5.219L79 49.875l-.344-4.75 9.875-4.75.75 5.125 8.969-3.938-.813-5.687c4.612-2.034 9.356-3.854 13.626-6.563zM91.03 31.22l5.625 4.906.688 4.094-5.594-3.688-.719-5.312zm-55.219.062l-.156 3.75-4 2-.187.344v.156l-2.75 1.282.312-4.688 6.782-2.844zm4.032 2.688L46.03 39.5l-6.375 3.938-6.312-6.126 6.5-3.343zm42.406.156l6.313 5.375L78 44.969l-6.563-5.844 10.813-5zm9.656 3.094l5.469 3.875-7.313 2.968-.656-4.374-.719-1.032 3.22-1.437zm-60.312.843l.031 4.313-2.938-2.5 2.907-1.813zm39.656 1.813l6.438 5.688.937 3.593-6.875-5.062-.5-4.219zm-24.563.438l.563 4.187-7.156 3.813.031-3.97 6.563-4.03zm16.5 3.156l4.532 4.812-13 5.938L47.03 47l5.688-3.25 2.781 3.625 7.688-3.906zm8 .812l6.563 5.032-8.125 3.5-.844-4.25v-.032l-.031-.156-.094.031-.344-.343-1.343-1.376 4.219-2.406zm-23.656.75l.469.563-2.281 1.375-.282 6.531-5.156-4.156 7.25-4.313zm62.313.032L111.125 88l.656 14.844-10.437 4.125-2.625-19.438L87 82.656l-11.375 12-.25 22.531-17.719 7 .157-55.124 52.03-24zm-85.469 1.812l29.313 24.094 3.562-1.781-.844 55.093-17.343-11.844 2.187-22.062.031-.031-.031-.031h-.031l-7.875-3.938-5.563 7.25-.031.031-.031.094-2.563 9.094L21.5 101l2.875-54.125zM98.463 57.54l-3.282 5.281-.156 11.813-1.375.844v4.218l12.75-6.625v-4.656l-1.844 1-.78-10.031-5.313-1.844zm.406 1.188l4.562 1.125.688 9.875-8.094 4.187-.5-10.969 3.344-4.218zm-59.463 9.366c-1.796.113-3.097 1.435-4.687 2.062l.187 7.531-2.718-1.718-.344 4.5 14.937 8.406-.062-5.594s-1.142-.522-2.657-1.219l.688-6.75c-1.001-2.649-2.657-5.052-4.531-7.187a4.088 4.088 0 00-.813-.031zm66.557 1.321l.312 3.313-12.156 6.28.187-3.28 11.657-6.313zm-66.65-.853c.17-.002.329.02.5.094 2.369 1.808 2.613 4.728 3.906 6.75l-.094 6.656-8.25-4.343.344-6.875c1.194-.569 2.4-2.26 3.593-2.281zm71.874.282l7.094 16.812-6.156 1.938-.938-18.75zm-44 3.812l-3.28 5.281L63.624 90l-1.25.719v4.219l12.75-6.626v-4.656l-1.844 1L72.5 74.5l-5.313-1.844zm.407 1.188l4.562 1.125.156 10.219-7.656 4.218-.5-11.344 3.438-4.218zm-34.938 2.875c4.138 2.32 9.12 5.294 13.657 6.656l.093 4.656-14.031-7.594c-.169-.676.262-3.61.281-3.718zm54.407 6.094l11.312 5.156 2.438 19.25-1.657.594-2.562-18.938-8.969-3.469-9.125 9.375.094 21.125-2.219.906-.313-21.843 11-12.156zm-12.157 1.406l-.094 3.844-11.968 6.374V90.97l12.062-6.75zm12.969 2.375l8.469 2.594 1.844 19-2.75 1.093 1.874-2.906-.156-.156-2.844 3.5-4.187 1.656-.063-.719c2.301-3.88 4.035-8.23 6.22-12.156L96 98.344c-2.075 3.633-3.994 7.362-6.063 11l-.562-6.219 6.313-13.281-.188-.125-6.25 12.062-.594-6.875 2.813-6.156-.219-.063-2.688 5.282-.624-6.844-.25.063.312 5.374-4.781-1.312-.063.313 4.875 1.75.25 4.343-7.906-2.937-.188.125 8.157 3.781.344 6.281-8.532-3.437-.312.156 8.906 4.031.344 6.125-.125.063-9.313-3.125-.125.344 8.406 3.156-8.687 3.437-.281-20.719 8.906-8.343zM33.562 87l6.094 3.719-5.468 6.406-5.5-3.375L33.563 87zm6.5 4.75l-1.718 21.156-8.063 5.781 4.688-21 5.093-5.937zm-11.53 2.781l5.312 3.531-4.344 20.47-7.125-4.5 6.156-19.5z" fill-rule="evenodd"/></svg>