<?xml version="1.0" encoding="UTF-8"?>
<svg width="128" height="128" version="1.0" xmlns="http://www.w3.org/2000/svg" xmlns:xlink="http://www.w3.org/1999/xlink">
 <path d="M48.438 13.125L29.405 24.219l-.468 19.906-16.344 10.406.031 25.157L4.437 82.5l.063 6.125 55.656 37.313 64.656-22.782.032-6.25-10.313-7.219a1.615 1.615 0 00-.469-.906l-4.78-3.687v-5.406l-.032-17.75L91 49l-.781-15.906-19.156-12.969v-.219c3.537.953 7.02.838 10.562.469-.996-.677-2.305-.847-3.594-2.063 2.339-.113 3.986-1.834 5.438-2.687-4.134.592-8.213 1.78-12.406 0V14.5c-.25-.5-.271-.375-.688.125l-.031 5.031-9.656-6.531h-12.25zm1.03.375l11 .094L64 15.969l-10.469.094L49.47 13.5zm-1.062.156L52.5 16.25 34.875 27.375l-4.625-3.031 18.156-10.688zm5.282 2.5H64.28l4.438 2.969-10.688-.25-4.343-2.719zm17.374.032c2.791.89 7.59 1.351 10.938.062-.548.977-3.543 1.665-4.688 1.656.464.728 1.84 1.725 3.157 2.157-2.793.678-6.395.068-9.406-.532v-3.343zm-18.28.218L56.905 19 40.438 31l-5.407-3.531 17.75-11.063zm5.437 2.625l10.75.282 1.375.937v1.969l-7.656-.375-4.47-2.813zm-1.063.125l4.657 2.938-15.5 12.718-5.72-3.718 16.563-11.938zm13.907 1.563l2.437 1.656-2.438-.125v-1.531zm-8.22 1.218l7.5.438-.03 3-2.657-.406-4.812-3.032zm-.78.313l4.656 2.938-13.531 14.125-6.72-4.407L62.063 22.25zm9 .188l2.75.156 6.28 4.218-9.03-1.343v-3.032zM30.03 24.905l7.594 5.032v1.625l-3.375-2.25v1.625l-4.281-2.844.062-3.188zm37.813.188l2.469.375v1.187l-2.47-1.562zm-.875.25l3.344 2.093L59 43.094l-5.688-3.719L66.97 25.344zm4.094.25L80.406 27l6.656 4.5-15.937-4.344-.063-.031v-1.531zm-.313 2l.125.031 6.656 9.5-8.312 2.844-3.563-5.125 5.094-7.25zm.531.156l10 2.844 3.344 4.125-6.938 2.375-6.406-9.344zm-41.312.625l3.531 2.313v3l-3.594-2.376.063-2.937zm7.843 1.688l12.75 8.468v1.594l-4.5-3v1.563l-5.312-3.47v-1.593l-2.969-1.969.032-1.593zm-3.03.093l5.468 3.657.094 14.624-5.75-3.906.187-14.375zm46.968.563L89.719 33l-4.938 1.688-3.031-3.97zm-48.063.093l.563.375-.031 2.97-.563-.376.032-2.968zm-3.78.72l3.593 2.374v.032l.094.03.625.407-.032 2.844-4.312-2.813.031-2.875zM35.5 32v12.063l3.875 2.78-.125-12.312L35.5 32zm.313.563l3.124 2.187.126 11.563-3.25-2.407V32.563zm53.937 1.124c.064 1.136.104 2.299.125 3.376l-3.688 1.218V36.22l-.937.312V35.22l4.5-1.532zm-59.906.97l3.406 2.218v2.438l-3.438-2.25.032-2.407zm35.625.406l3.594 4.968-9.313 3.157 5.719-8.126zm19.594.218l.03 1.313-5.406 1.875-.03 1.937-5.563 1.844.031-3.219 10.938-3.75zM40.75 35.5l2.219 1.469v2.968L40.75 38.47V35.5zm44.875 1.438v14.624l-5.594 1.688.219-14.281 5.375-2.032zm-52.188.03l.75.5-.03 2.438-.75-.5.03-2.437zm9.72.126L46.062 39l-.032 2.938-2.906-1.907.031-2.937zm46.75.156l.156 3.188-3.876 1.25v-3.22c1.237-.412 2.482-.819 3.72-1.218zm-60.094.063l4.343 2.843V42.5l-4.375-2.844.032-2.343zm16.78.656l5.47 3.656.093 14.625-5.75-3.906.188-14.375zm4.157.687l7.906 5.25L58.625 47l-6.063-4v-1.563L50.72 40.22l.031-1.563zm33.938 0l-3.75 1.282v11.874l3.874-1.156-.124-12zm-43.938.063l2.219 1.468v.032l3.062 2-.031 2.75-5.25-3.438V38.72zm33.188.406v3.188l-3.47 1.156V41.25l-6.5 2.25-.03 2.125-.657.219.032-3.094 10.624-3.625zm10.312.188l.281 11.03-3.25 1-.062-11.218 3.031-.813zm-36.938.5v12.062l3.876 2.781-.126-12.312-3.75-2.532zm-17.53.062l3.468 2.281v3.094l-3.531-2.313.062-3.062zm17.843.5l3.125 2.188.125 11.562-3.25-2.406V40.375zm32.031.25v3.188L70.47 46.78v-3.125l9.187-3.031zm10.406 0l.126 2.594-4 1.281v-2.594l3.874-1.281zM40.75 41.781l2.313 1.532h-.094v2.343L40.75 44.22V41.78zm29.156.188v14.625l-5.594 1.687L64.5 44l5.406-2.031zm-36.469.312l.72.469-.032 2.063 6.625 4.593v-2.312l2.219 1.437v3.125l-9.563-6.281.032-3.094zm29.688.532v3.03l.094.032-4.032 1.313.032-3.032 3.906-1.343zm-33.406.374l7.593 5.032v1.406l-7.624-5.313.03-1.124zm22.843.126l2.188 1.437v2.969l-2.188-1.438v-2.968zm-9.406.062L46 45.25l-.031 2.375-2.844-1.844.031-2.406zm47.032.031l.156 2.75-4.156 1.375V44.72l4-1.313zm-21.22.282l-3.75 1.28v11.876l3.876-1.157-.125-12zM79.657 44l-.031 2.625-5.531 1.781.031-2.625L79.656 44zm-11.125.344l.25 11.031-3.25 1.031-.031-11.218 3.031-.844zM40.75 44.5l2.219 1.438V46h.093l2.907 1.906v2.313l-5.219-3.375V44.5zm-11.5.281l3.063 2.125-14.344 10.282-4.063-2.626 15.344-9.78zm25.688.094l3.687 2.438-.031 2.937-3.688-2.438.032-2.937zm9 .906v3.094l-4.782 1.563.032-3.063 4.75-1.594zm10 .063v2.625l-3.47 1.125v-2.625l3.47-1.125zm16.406.531l.094 2.281-4.25 1.407v-2.344l4.156-1.344zm-37.781.188l6 3.968-.032 2.625-5.968-3.906v-2.688zm27.062.28l-.031 2.844-9.125 2.97V49.78l9.156-2.937zm-47.063.25l4.47 3.126-14.188 10.093-4.719-3.03 14.438-10.188zm4.938 1.25l13 8.594v1.907L37.469 49.75l.031-1.406zm5.656.313L45.97 50.5l-.032 2.125 6.626 4.594v-2.375l2.25 1.468V59.5l-11.688-7.719.031-3.125zm47.313.188l.125 2.937-6.625 2.157-3.375.374.031-.687 5.563-1.781V50.25l4.28-1.406zm-26.531.218l-.032 2.657-.593.187V49.25l.624-.188zm-.813.25l.031 2.657-4.031 1.312.031-2.656 3.969-1.313zm-10.563.22l2.188 1.437v2.406l-2.188-1.438v-2.406zm27.032.343l-.031 2.344-5.594 1.812.031-2.343 5.594-1.813zm11.437.406l1.688 1.157-1.656-.188-.032-.969zm-53.75.094l4.188 2.906-14 10L23 60.406l14.281-10.031zm17.657.719l3.593 2.375-.031 2.375-3.594-2.375.032-2.375zm36.156.437l2 .188 7.156 4.937-21.969-.812-1.125-.782 14-1.593-.062-1.938zm-17.281.219v2.344l-3.344 1.093v-2.343l3.344-1.094zm-9.907.094l-.062 5.562-4.813 1.563.125-5.563 4.75-1.562zM90.594 52l.062 1.188-5.75.656L90.594 52zm-38.031.219l5.937 3.906-.031 2.281-5.907-3.843v-2.344zm27 .187v1.563l.874-.282v.657l-4.312.468-6.844 3.907V57.25l1.188-.375v-1.5l9.094-2.969zM41.687 53.47l4.532 3.156-13.813 9.844-4.781-3.063 14.063-9.937zm-28.374 1.718l5.062 3.282v2.875l-5.031-3.282h-.031v-2.874zm62.78.157l1.282.875-29.031 20.5-5.313-3.406 13.5-9.5 2.157 1.5 17.406-9.97zm2.594.812l21.782.657 6.562 4.53-25-2.843-3.344-2.344zm-1.093.219l3.531 2.406L53.75 80.22l-5.281-3.406 29.125-20.438zM55 56.438l3.469 2.28-.032 3.157-3.468-2.281.031-3.157zm-8.531.343l4.656 3.25-13.594 9.75-4.968-3.219 13.906-9.78zm4.218.282l7.75 5.124-.03 2.157-1.594-1.094-4.907-3.438-.031-.03-.188-.157-.03.031-1-.718.03-1.876zm18.407.25l.031 1.468-10.063 3.25.032-2.937 4.75-1.563V59l5.25-1.688zm-55.781.968l9.75 6.344v3.313l-.313-.22V65.25l-6.5-4.313-.031 2.563-2.907-1.906V58.28zm5.25.313l9.687 6.25v2.906l-9.719-6.313.032-2.843zm63.25.312l10.562 1.313 4.281 5.687-8.094 2.781-6.75-9.78zm-.22.157l6.813 9.656-7.844 2.719-5.218-7.376-.188.188 5.25 7.219-9.281 3.187-3.406-4.562 7.625-6.031 6.25-5zm-13.093.093l-5.188 2.969v-1.281l5.188-1.688zm-17.156 1.032l4.937 3.437-13.406 9.594-5.219-3.375 13.688-9.656zm41.437.062l9.25 1.156 1.656 2.063-6.874 2.375-4.032-5.594zm-29.656.656l.031 1.313-4.125 2.343.032-2.343 4.062-1.313zm39.25.532l5.344.656-3.844 1.312-1.5-1.968zm-85.594.343l5.469 3.657.094 18.124-3.813-2.593.032-1.031 2.812 2.03-.125-15.75-3.75-2.53v15.5l.875.624v1.063l-1.781-1.219.187-17.875zm-3.468.063l.187.125v2.906l-.188-.125v-2.906zm.374.25l2.532 1.656v2.906l-2.563-1.687.031-2.875zm94.813.125l.031 3.781-11.5 3.906.031-3.656 11.438-4.031zM17.812 64.25l3.125 2.188.125 15-3.25-2.407V64.25zm5.438.5l10.813 7.031v.719L28.5 68.812l-.031 2.657-5.25-3.438.031-3.281zm5.188.219L39.5 72.125v2.938l-11.094-7.22.032-2.874zM13.313 65l2.906 1.906-.032 3.406-2.906-1.874.031-3.438zm95.218 1.188l.031 3.156-5.718 1.937.031-3.187 5.656-1.906zm-11.656.124v3.626l-10.906 3.718.031-3.531 2.719-.938.031-.03 8.125-2.844zM22.75 68l5.563 3.625h-.063v2.844l-5.531-3.563L22.75 68zm79.938.156v3.188L91.28 75.219l.031-3.188 11.376-3.875zm-89.407.531l.219.157v3.031l-.094-.063-.125.032v-3.156zm.406.25l2.5 1.626-.03 3.03-2.5-1.624.03-3.031zm94.876.626l.03 3.093-11.624 3.938.031-3.125 11.563-3.906zm-79.532.093l5.469 3.656.094 18.126-5.75-3.907.187-17.875zm56.782.531v3.532l-5.844 1.969h-.156v.062l-5.532 1.875.031-3.375 11.5-4.063zM67.5 70.25l3.438 4.469-9.563 3.312-1.406-1.781 7.531-6zm-44.781.906l.343.219v3.406l-.343-.219v-3.406zm.531.344l5.219 3.406-.032 3.375-5.218-3.406.031-3.375zm6.5.063v15.5l3.875 2.78-.125-15.75-3.75-2.53zm-1.313.124l.032.032v2.906l-.063-.031.032-2.906zm5.813.22l10.125 6.624v.594l-3.125-2.063v2.72L35 75.687v-2.563l-.781-.5.031-.719zm-20.969.062l2.875 1.875v3.281l-2.875-1.844V71.97zm77.844.125v3.187l-11.156 3.781.031-3.187 11.125-3.781zm-61.063.031l3.125 2.188.126 15-3.25-2.407V72.125zm9.625.125l10.126 6.531v3l-10.157-6.594.032-2.937zm68.907.594l.031 3.469-5.781 1.968.031-3.5 5.719-1.937zm-11.781.687v3.125l-10.844 3.656.031-3.124 10.813-3.657zm-22.688.781v3.376l-10.906 3.687.031-3.25 8.125-2.844 2.75-.969zm-51.406.5l5.531 3.626v3.03l-5.531-3.593v-3.063zm79.969.032v3.469l-1.532.53-1.906-1.468c-.513.209-1.72.352-.969 1.969l.406.312-3.656 1.25v-1l-3.687 1.25.031-2.469 11.313-3.843zm-89.407.687l.219.125v3.063l-.219-.156V75.53zm.406.25l2.47 1.594-.032 2.563 2.25 1.53v.407l-4.719-3.063.031-3.03zm66.126.156v3.157L68.53 82.938l.031-3.188 11.25-3.813zM35 75.97c1.495.985 3 1.959 4.5 2.937v2.875l-4.531-2.906.031-2.906zm24.781.437l1.375 1.688-6.187 2.125 4.812-3.813zm48.844.125l.031 3.188-4.437 1.5-2.906-2.25 7.312-2.438zm-22.813.719v3.125l-11.53 3.906.03-3.125 11.5-3.906zm13.563.531l14.5 11.469c.288.494.535 1.321-.438.938l-.562-.407.75-.531-.469-.219-.594.5-13.78-10.281c-.793-.86-.039-1.447.593-1.469zm-57.594.125l5.469 3.656.094 18.126-5.75-3.907.187-17.875zm-19.062.219l.343.219v3.312l-.375-.25.032-3.281zm40.343.063v3.25l-8.812 2.968-.031-3.094 8.843-3.124zm-39.812.28l5.156 3.376v3.25L23.22 81.75l.031-3.281zm21.313.157l8.687 5.688.031 3.28-5.531-3.624v-2.594l-3.219-2.125.032-.625zm46.624.125v2.469L79.97 85.03l.031-2.5 11.188-3.781zm-77.906.063l9.875 6.437h-.093v2.656l-9.782-6.5v-2.594zM50 78.874l3.219 2.094L53.25 84l-3.281-2.125.031-3zm-10.313.156c.51.333 1.024.666 1.532 1v2.844l-1.563-1 .032-2.844zm-4.718.125c2.063 1.332 4.127 2.664 6.187 4l.032 3.438-6.22-4.063v-3.375zm7.531.656v15.5l3.875 2.782-.125-15.75-3.75-2.531zm25.875 0V83l-10.031 3.406.031-3.219 10-3.374zm30.531 0l2.906 2.22L97 83.655l.031-3.219 1.875-.624zm9.75.126V83l-1.469.5-2.75-2.156 4.22-1.406zm-96.031.218v1.688l41.031 27.375L78.22 100.5l4.375 3.469v.062l-3.719 1.375 5.531 5.125-24.375 8.813L5.5 82.625l7.125-2.469zm30.188.219l3.124 2.188.126 15-3.25-2.407V80.375zm54.03.125v3.219L95 84.344l.031-3.219 1.813-.625zm-2.468.344v13.094l-.594.25-.187-12.594-9.656 3.25L84 97.656l-.906.313V85.188l-9.75 3.468v12.719l-.75.281V88.281l21.781-7.437zm-20.25.375v3.125l-7.375 2.5-.125-.063v.094l-3.406 1.156.031-3.125 10.875-3.687zm-55.594.375l4.157 2.812v-2.75l5.562 3.625v3l-9.719-6.312v-.375zm74.75.5v.719L84.5 96.843v-1.28l8.375-13.344.406-.125zm8.719.062l.688.531-.063 2.376L95 87.624v-3.094l7-2.375zm-9.344.156L84.47 95.25v-1.438l7-11.093 1.187-.406zm-12.844.282v2.469l-7.78 2.656v1l-3.5 1.187.03-3.5 11.25-3.812zm11.438.187l-6.781 10.75v-1.437l5.594-8.906 1.187-.407zm-56.281.031c1.486.975 3.03 1.988 4.531 2.97v3l-4.531-2.938v-3.031zm68.219.25l8.656 6.594.062 5.031L103 88.781l.188-5.719zm-9.907.032l.031 1.344-8.093 12.78-.719.25v-.312l8.781-14.062zm-88.062.094L59.78 120l.094 5L5.25 88.219l-.031-5.031zm103.437.03l.031 1.407-1.28-.969 1.25-.437zm-50.469.032v3.188L54.25 87.78v-3.187l3.938-1.344zm31.626.031l-5.344 8.5-.031-1.406 4.25-6.719 1.124-.375zm-1.376.469l-4 6.313V88.5l2.72-4.313 1.28-.437zm-40.687.531l2.063 1.344v2.906l-2.063-1.344v-2.906zm39.156 0l-2.469 3.906-.03-1.593 1.218-1.875 1.281-.438zm6.406.438v1.437L86.594 96.72l-1.094.406 7.813-12.406zm-7.968.094l-.938 1.468v-1.156l.938-.313zm-22.281.156v3.125L60.406 89l-.093-.094-.126.156-5.906 2-.031-3.093 8.813-3zm39.562.281l-.063 3.25-5.593 1.875.031-3.219 5.625-1.906zm-79.375.063l10.813 7.03v2.907l-10.844-7.219.031-2.719zM50 85.75l3.281 2.156.032 2.875-3.344-2.156L50 85.75zm32.656 0v1.031l-.812-.75.812-.281zm-42.937.156c.483.317 1.024.672 1.468.969l-.03 2.969-1.5-.969.062-2.969zm-4.75.219l6.187 4v3.25l-6.218-4 .03-3.25zm46.625 0l1.062.969.031 1.594-2.312-2.126 1.219-.437zm11.719.313l.03 1.5-5.28 8.25-1.22.437 6.47-10.188zm-24.938.03v3.5l-.094.032-.281-.906-.875-.406.656-1.376-.812-.374 1.406-.47zm11.75.188L82.688 89v1.563l-3.782-3.47 1.219-.437zm24.531.094l-.094 2.719 4.063 2.5 2.531-1.813-1.906.281.25-1.562-1.469.438-.094-2.376-1.062 1.688-.781-1.563-.594 1.25-.844-1.562zm-38.062.313l-.063 1.374-.656-.312-.594.594 1.063.531-.813 1.688-1.469.5-1.75-1.157 1-1.125-1.187.031-.656.75-.907-.812 6.032-2.063zm.312.03l.594.376-.5.906-.219-.094.125-1.187zm11.75.094l4.031 3.688.032 1.531-5.25-4.812 1.187-.406zm18.156.032v3.219l-1.843.624.031-3.218 1.813-.625zm-49.062.25l5.563 3.625.03 3.406-5.593-3.656v-3.375zm29.469.219l5.5 5v1.562l-6.688-6.125 1.188-.438zm-48.813.156l6.532 4.375v-2.594l4.562 2.969v3l-11.094-7.219v-.531zm47.407.375l6.906 6.312v1.438l-8-7.375 1.094-.375zm17.53 0v1.5l-3.78 5.969-1.25.437 5.03-7.906zm-27.468.156l2.031.875.313.75-1.719-.875-.063-.031-.937-.469.375-.25zm8.563.313l8.312 7.562v1.375l-8.906-8.25v-.469l.594-.219zm28.124.03v.47l.157.093v1.781l-7.75 2.72v-2.5l7.594-2.563zm-30.53.188v3.25L67.5 93.687l-1.438-.968.594-2 1.594-.531.125.062-.031-.094 3.687-1.25zm-11.626.344l.75.719-.187.187-1.063-.437.5-.469zm2.625 0l-1.312 1.406-.063.063-.656.75-.156-.438 1.375-1.687.812-.094zm-3.093.094l-.438.531 1.563.563-.47.562.407.719.813-.875 1.093.969-4.562 1.562.031-3.5 1.563-.531zm6.53.031l.22.063.187.062-.969 3.125-.406-.281.375-1.063-.063-.031-.374 1.063-.25-.157 1.28-2.781zm36.438.031l1.594 1.031-1.625.563.031-1.594zm-35.875.156l1 .532-1.312.437.312-.969zm6.813.126l8.906 8.218v.188l-.844.281-8.031-7.406-.031-1.281zm-15.656.25v3.5l-3.876 1.312-.03-3.5 3.906-1.313zm35.187.093v1.531l-2.281 3.563-1.281.469 3.562-5.563zm19.031.031l1.094.844c.453-.097.713-.285.875-.5l8.938 6.313-20.75 7.75-6.032-5.531-3.656 1.343-4.344-3.437 16.688-5.938 7.187 4.688v-5.531zm-50.219.344L69 94.937l.813 1.25.03.094-6.218-4.437-.063.062 6.157 4.531L68 96l-6.063-5.281.126-.156.124-.157zm-14.437.75l2.063 1.344v2.969l-2.063-1.344v-2.969zm17.656.031l-.406.844-.719-.469 1.125-.374zm8.469.094l7.844 7.188-1.156.406-6.688-6.094v-1.5zm19.5.563l.031 1.531-.812 1.219-1.25.437 2.031-3.187zm-30.313.125v3.187l-4.78 1.656h-.094v.032l-3.876 1.312v-3.219l8.75-2.968zm.188.156l1.219 1.063v.03l-.906 1.813-.344.125.031-3.031zm8.781.219L72 95.438l-2.094.718-.719-1.375-.624-.406v-.844l3.468-1.187zm-37.781.125l10.188 6.656v3l-10.22-6.781.032-2.875zm15.75.156l3.375 2.188.031 3-3.437-2.25.031-2.938zm-10.313.094l1.47.969-.032 2.374 6.625 4.407V98l2.063 1.344v2.969l-10.157-6.594.032-3zm34.188.375l6.406 5.875-1.125.406-5.281-4.844v-1.437zm-9.25.25l.281.281-1.781 4.781-.031-1.781 1.531-3.281zm3.75.25v.656l-.656-.438.656-.218zm-3.344.094l.375.374-1.031 3.25-1.094 1.25 1.75-4.874zm28.375 0v.624l-.531.188.531-.813zm-27.812.53l2.281 2.032.5.094v.312l-4.594 1.531.813-.75 1-3.218zm-17.844.22l5.656 3.687.032 3.25-5.688-3.688v-3.25zm26.125.437l5 4.563-1.063.406-3.906-3.563-.031-1.406zm-10.406.375l-.657 1.344L63 98.5l-4.656 1.563.031-3.094 5.094-1.719zm8.531.375v3.25l-8.781 2.969.031-3.125.219-.188 5.843-2 .876.188-.22-.406L72 95.624zm-3.469.75l.438.094-.438.156v-.25zm5.375.219l3.625 3.312-1.219.438-2.406-2.188v-1.562zm14.406.312l4.344 3.438-9.875 3.625v-.094l-4.344-3.469 9.876-3.5zm-30.124.125v3.094l-3.844 1.313-.032-3.094 3.876-1.313zm66.093.063l.063 5.625-21.656 7.656v-5.594l21.593-7.687zM73.906 98.5l2.125 1.938-1.25.468-.844-.781-.03-1.625zM63 98.719l.031.219.032-.032v3l-8.72 2.938v-3.219L63 98.719zm9 .344v2.812l-3.469 1.219.031-2.875L72 99.063zm-27.375.156L53.469 105l.031 3.156-8.906-5.906.031-3.031zm5.375.25l3.438 2.219.03 3-3.5-2.282L50 99.47zm46.219.031l.125 1.906-2.969 1.063-.188-1.875L96.22 99.5zm.406 0l5.563 5.219.062 4.469-1-.47-.094-1.218-1.562-.906-.031-1.469-1.376-.75.032-1.844-1.5-.937-.094-2.094zm-28.25.781v2.875l-10.031 3.563.031-3.063 10-3.375zm5.563.156l.593.532-.594.219v-.75zm19.03.25l.22 1.844-10.094 3.594-.063-.063-.187-1.687 10.125-3.688zm3.407 1.094l1.281.844-2.906 1.031-1.219-.875 2.844-1zm-3.031 1.063l1.187.875-9.969 3.531v-.094l-1.124-.812 9.906-3.5zm4.531.062v1.375l-2.688.969-.218-1.313 2.906-1.03zm-39.688.813v3.062l-3.812 1.344-.031-3.094 3.843-1.312zm36.594.281l.188 1.313-10.125 3.593-.219-1.344L94.781 104zm-12.125.438l.188 1.687.062.063-1.844.656-1.468-1.281 3.062-1.126zm15.5.093l.938.5-3 1.063-.844-.531 2.906-1.032zm1.063.875l.031 1.063-2.594.906-.125-.969-.062-.031 2.75-.969zm-4.188.25l.844.531-9.844 3.532-.844-.594 9.844-3.469zm-11.781.75l1.156.875v.031l-2.031.72-1.063-.938 1.938-.688zm13.031.031l.063.032.094 1-10.094 3.594-.156-1.094 10.093-3.531zm3.188.344l1.031.656-2.781 1-.969-.687 2.719-.969zm-15.031.844l.187 1.344V109l-.844.281-1.156-1.031 1.813-.625zm16.312.156l-.031.875-2.656.906-.063-.812 2.75-.969zm-4.219.031l1 .688-9.906 3.531V112l-1-.688 9.906-3.5zm1.344.97l.063.812-10.22 3.5-.062-.75 10.219-3.563zm3.094.124l1.031.531-2.969 1.032-.937-.531v-.063l2.875-.969zm-16 .313l.875.562-1.063.375-.719-.625.907-.312zm17.312.5v1l-2.562.875.031-.719-.313-.156 2.844-1zm-4.312.219V110l.937.531L88.937 114l-1.093-.656 10.125-3.406zM86 110.03l.094 1.094v.031l-.938.313.25-.75-.375-.344.969-.344zm13.313.719l.218.125-.031.781-10.156 3.5.031-.906-.031-.031 9.969-3.469zm-14.75.281v5.531l-24.126 8.72-.124-5.438 24.25-8.813zm1.874.344l1.063.719-2.313.812v-1.094l1.25-.437zm1.063 1.031l.063.75-2.344.781-.031-.718 2.312-.813zm.156 1.031l1.125.594-3.562 1.25v-1.031l2.437-.813zm1.5.844l-.031.938-3.813 1.312-.062-.875 3.906-1.375z" fill="#5c2700" fill-rule="evenodd"/>
</svg>
