<?xml version="1.0" encoding="UTF-8"?>
<svg width="128" height="128" xmlns="http://www.w3.org/2000/svg" xmlns:xlink="http://www.w3.org/1999/xlink">
 <defs>
  <radialGradient id="b" cx="14.207" cy="222.04" r="8.252" gradientTransform="scale(1.3952 .71673)" gradientUnits="userSpaceOnUse">
   <stop offset="0"/>
   <stop stop-opacity="0" offset="1"/>
  </radialGradient>
  <filter id="c" x="-.109" y="-.212" width="1.218" height="1.424">
   <feGaussianBlur stdDeviation=".721"/>
  </filter>
 </defs>
 <path d="M58.947 22.291c-1.584 1.597-3.305 3.212-4.393 5.32-.919 1.735-2.367 3.046-3.737 4.41-1.761 1.802-2.715 3.043-3.979 5.176-.686 1.497-2.286 4.219-2.797 5.787-.316 1.785 3.127.5 4.149.693 2.088-.13 4.269.351 6.37.334 1.475.028 2.81-1.712 4.259-1.275 1.19.824 1.223 2.148 1.183 3.701-.724 1.336-1.157 1.2-2.352 1.892-3.077 1.788-5.106 4.545-7.63 6.91-2.571 2.573-4.364 5.166-6.98 7.692-1.044.767-2.178 4.68-.414 4.791 3.419.126 7.27-2.102 10.709-1.812 1.791.236 3.595.402 5.388.557 1.066 1.118-1.584 2.312-1.634 3.681-.775 1.656-2.215 2.958-3.956 3.835-1.7 1-2.801 1.98-4.426 3.098-2.06 1.179-4.294 1.62-5.929 3.376-1.434.996-.365 5.114 1.591 4.49 1.533-.269 3.056-.041 4.59.024 1.9-.055 3.896-.411 5.68.46 1.47.648 3.024 1.185 4.655 1.064 2.557.045 5.015.796 7.393 1.662 2.656.537 5.348-.162 7.993-.43 2.416-.03 4.827.202 7.242.232 1.677-.181 4.081 1.428 5.123-.575 1.09-1.771-.756-3.181-1.392-4.695-.582-1.93-1.601-3.753-2.849-5.36-1.662-1.838-3.604-2.304-5.406-3.99-1.475-.996-4.025-2.684-5.615-3.423.992-1.03 3.885-.623 5.298-1.022 1.663-.419 3.558-.952 5.178-.38 2.376.854 4.447 1.186 6.976 1.033 1.355-.976.585-2.608-.693-3.286-2.06-1.48-4.342-3.25-5.268-5.837-.88-2.12-1.733-3.195-3.472-4.76-1-1.219-3.038-2.2-4.582-2.408-1.623-.751-3.233-3.395-2.055-4.752 1.734-.828 4.604-.239 6.438-.393 2.261-.035 4.212-.412 6.436-.034 1.345-.102 3.828.887 4.59-.243-1.13-1.31-.936-1.838-2.453-2.578-1.51-.382-3.733-1.779-4.57-3.096-1.364-1.972-2.502-4.369-5.022-5.06-2.79-.75-5.514-3.027-7.18-5.187-1.373-1.81-2.575-4.635-4.428-5.986-.84-.557-3.002-7.417-6.261-10.104" fill="#00b300" fill-rule="evenodd"/>
 <path transform="matrix(2.4697 0 0 2.4697 16.741 -292.59)" d="M28.402 158.699a7.944 4.08 0 11-15.888 0 7.944 4.08 0 1115.888 0z" fill="url(#b)" fill-rule="evenodd" filter="url(#c)" opacity=".5"/>
 <path d="M60.706 16.924c-.433.247-.912.884-1.235 1.775-1.36 3.754-2.378 5.289-5.17 8.258-1.57 1.67-4.044 4.398-5.558 6.02-1.513 1.621-2.778 3.514-2.778 4.244 0 .731-.894 2.11-2.006 3.087-1.113.977-2.007 2.32-2.007 2.933 0 1.815 1.765 2.837 3.859 2.238 1.025-.293 3.888-.59 6.405-.617 3.13-.033 4.776-.287 5.171-.926.458-.74.755-.645 1.39.54.67 1.251.569 1.61-.464 2.393-.678.514-1.52.991-1.929 1.003-.866.025-3.305 2.293-5.711 5.402-.928 1.2-2.857 3.285-4.322 4.63-4.056 3.726-6.483 6.39-6.483 7.178 0 1.456 2.163 3.705 3.55 3.705.79 0 2.82-.664 4.477-1.466 2.391-1.158 3.36-1.31 4.785-.772 1.068.403 2.458.424 3.395.077 2.015-.745 2.496-.197 1.235 1.312-.544.651-1.287 1.965-1.698 2.933-.492 1.16-1.49 1.888-2.855 2.16-1.138.228-2.673 1.165-3.473 2.084-.8.92-2.273 1.862-3.242 2.084-3.13.718-4.732 2.651-4.94 5.866l-.153 2.932 2.855.232c1.755.127 3.366-.233 4.245-.849 1.291-.905 1.747-.864 3.936.309 1.338.717 3.373 1.312 4.553 1.312 3.455 0 4.245.604 4.245 3.087 0 1.241-.329 3.041-.772 4.013-.639 1.403-.619 1.885.078 2.315.613.38.674.683.154 1.004-.409.252-1.08 1.053-1.466 1.775-.598 1.116-.503 1.312.771 1.312.824 0 2.23-.661 3.087-1.467 1.39-1.306 1.736-1.423 3.242-.617.928.497 1.849.775 2.084.54.234-.235 1.004-.14 1.698.232 1.04.557 1.234.45 1.234-.695v-1.389l2.702 1.39c3.082 1.572 3.211 1.357 1.466-2.393-.702-1.509-1.422-3.804-1.62-5.171-.335-2.304-.242-2.54 1.543-2.933 1.06-.233 3.748-.061 6.02.386 4.012.79 4.73.668 8.026-1.158.111-.061-.547-1.192-1.466-2.547-.92-1.354-1.92-3.38-2.161-4.476-.43-1.958-1.416-3.138-2.084-2.47-.187.187-.06.936.309 1.621.368.686 1.171 2.536 1.775 4.168 1.47 3.973.814 4.541-4.168 3.55-4.137-.823-10.342-.776-10.342.077 0 .965-4.012.544-4.399-.463-.226-.59-.993-.933-1.852-.772-.798.15-1.466.328-1.466.386 0 .059-.71.216-1.544.309-.835.092-1.466-.046-1.466-.309s-1.735-.602-3.782-.772c-2.627-.218-3.97-.716-4.63-1.62-.852-1.164-1.19-1.219-4.014-.463-4.288 1.147-5.17 1.081-5.17-.54 0-1.613 1.53-3.32 2.932-3.32.53 0 2.306-1.02 3.936-2.237 1.63-1.218 3.728-2.585 4.708-3.01.98-.426 2.25-1.578 2.778-2.624.529-1.047 1.355-2.533 1.853-3.319 1.581-2.496.432-3.732-3.01-3.319-1.821.219-3.122.058-3.396-.386-.545-.88-4.19-.316-6.869 1.081-5.613 2.928-4.447-.91 1.775-5.788 1.183-.928 3.368-3.37 4.862-5.48 1.494-2.11 3.571-4.122 4.554-4.476.983-.354 2.43-1.31 3.241-2.084 1.437-1.373 1.417-1.452.309-4.09-1.147-2.73-2.533-3.41-4.013-1.93-.867.867-2.552 1.388-4.168 1.235a73.093 73.093 0 00-4.245-.232c-1.762-.04-3.164-.178-3.164-.308s.57-.825 1.312-1.621c.742-.796 1.39-2.08 1.39-2.856 0-.775.508-1.893 1.157-2.47 1.683-1.494 4.862-5.241 4.862-5.71 0-.218 1.202-1.494 2.624-2.856 2.312-2.215 5.48-7.777 5.48-9.57 0-.706-.34-.864-.772-.617zm2.16 2.16c0 .807 4.903 9.578 5.48 9.802.32.124.534.57.54 1.004.014.888 1.845 2.547 7.873 7.1 2.292 1.73 4.838 3.996 5.634 5.016.796 1.02 1.778 1.853 2.16 1.853 1.007 0 4.696 3.199 4.091 3.55-.565.328-3.508.168-8.72-.54-7.471-1.016-10.905 2.353-6.098 6.02 1.24.946 2.755 1.697 3.319 1.697 1.178 0 4.553 2.527 4.553 3.396 0 .32.333 1.364.695 2.315.362.952.932 1.775 1.312 1.775.946 0 .932-.273-.772-3.781-1.195-2.46-2.188-3.401-5.016-4.785-3.76-1.84-5.431-3.366-4.631-4.168.504-.505 5.83-.546 12.734-.154 2.827.16 4.13-.027 4.554-.695.944-1.49.744-1.852-1.93-3.55-1.391-.883-4.744-3.63-7.486-6.097-2.743-2.466-6.21-5.138-7.64-5.943-1.432-.804-2.625-1.683-2.625-1.929s-.603-1.192-1.389-2.084c-.785-.891-1.72-2.453-2.084-3.473-.363-1.02-.977-1.852-1.312-1.852-.334 0-.54-.35-.54-.849 0-.5-.647-1.614-1.389-2.47-.742-.855-1.312-1.39-1.312-1.157zm22.382 43.529c-.5-.074-.849.141-.849.771a.7.7 0 00.695.695c.916 0 4.013 3.098 4.013 4.013 0 .93-2.394.872-4.167-.077-1.438-.77-3.414-.817-9.956-.309-3.128.244-3.754.512-3.936 1.698-.119.774.046 1.39.386 1.39s1.305.647 2.16 1.389c.856.742 1.965 1.312 2.393 1.312.428 0 1.753.77 3.01 1.698 1.257.927 2.722 1.697 3.241 1.697 1.5 0-4.338-4.542-6.946-5.402-3.045-1.005-3.006-1.716.155-2.238 4.284-.708 7.459-.55 9.493.617 1.306.75 2.51 1.014 3.781.695 1.71-.43 1.92-.676 1.544-2.624-.429-2.224-3.517-5.103-5.017-5.325z" fill="#5c2700"/>
</svg>
