<?xml version="1.0" encoding="UTF-8"?>
<svg width="128" height="128" xmlns="http://www.w3.org/2000/svg" xmlns:xlink="http://www.w3.org/1999/xlink">
 <defs>
  <radialGradient id="b" cx="14.207" cy="222.04" r="8.252" gradientTransform="scale(1.3952 .71673)" gradientUnits="userSpaceOnUse">
   <stop offset="0"/>
   <stop stop-opacity="0" offset="1"/>
  </radialGradient>
  <filter id="c" x="-.109" y="-.212" width="1.218" height="1.424">
   <feGaussianBlur stdDeviation=".721"/>
  </filter>
 </defs>
 <path d="M52.882 17.246c-1.452 1.188-1.432 3.21-2.026 4.844-1.41 2.02-3.724 2.212-4.86 4.52-.83 2.646-1.78 4.86-2.558 7.517-.21 2.373.72 4.437.028 6.817-.535 2.78-.655 5.73-2.46 7.961-1.923 3.094-1.054 7.437 1.66 9.784a39.575 39.575 0 015.48 6.985c1.777 2.32 4.244 4.08 5.642 6.697 1.206 2.012 2.89 3.657 4.31 5.505.876 1.092 1.595 2.385 2.752 3.197 1.554.382 2.277-1.616 3.716-1.818 1.572-.518 2.961.73 4.53.687 2.844.301 5.846-1.074 7.343-3.527a6.784 6.784 0 00.432-4.358c-.786-2.53-2.51-5.094-2.296-7.796.012-2.739.503-5.463.489-8.195-.555-3.891-2.533-6.963-4.188-10.39-1.12-2.166-2.41-4.445-3.189-6.73-.908-2.407-2.744-4.47-2.952-7.118-.338-2.183.302-5.41-.73-7.457-.828-1.845-1.77-3.107-2.666-4.916-1.308-1.706-3.963-1.807-5.901-2.202-.856-.13-1.716.21-2.556-.007z" fill="#00b300" fill-rule="evenodd"/>
 <path transform="matrix(2.4697 0 0 2.4697 16.863 -293.97)" d="M28.402 158.699a7.944 4.08 0 11-15.888 0 7.944 4.08 0 1115.888 0z" fill="url(#b)" fill-rule="evenodd" filter="url(#c)" opacity=".5"/>
 <path d="M55.181 16.595c-2.436 0-5.325 2.216-5.325 4.09 0 .638-.427 1.352-.926 1.544-1.697.651-5.094 6.627-5.865 10.342-.577 2.778-.582 4.153 0 5.557.666 1.609.473 2.443-1.158 5.865-1.043 2.188-2.114 4.121-2.393 4.245-.946.42-.487 6.633.54 7.486.543.45 1.14 1.437 1.39 2.238.609 1.946 3.928 6.817 7.486 10.96 10.786 12.555 11.728 13.753 12.04 16.284.173 1.407.454 3.578.694 4.785.298 1.497.126 2.725-.617 3.859-1.024 1.562-1.037 1.713.231 2.392.742.397 1.39 1.342 1.39 2.084 0 1.099.228 1.156 1.234.617.68-.363 1.606-1.12 2.084-1.698 1.198-1.442 2.855-1.314 5.017.386 3.036 2.389 3.496.766 1.157-4.167-1.792-3.78-2.476-7.646-2.16-11.5.057-.696.931-1.27 2.392-1.543 2.37-.445 5.278-3.207 6.097-5.789.277-.873-.19-2.435-1.235-4.244-1.443-2.497-1.584-3.685-1.62-9.802-.039-6.357-.191-7.206-1.776-9.493-1.007-1.454-1.775-3.42-1.775-4.707 0-2.143-1.805-6.175-2.778-6.175-.26 0-1.185-2.049-2.007-4.553-.821-2.504-1.762-4.839-2.084-5.248-.321-.41-.389-2.145-.154-3.859.311-2.27.154-3.608-.617-4.785-1.49-2.274-6.651-5.17-9.262-5.17zm1.467 1.158c1.18.323 2.597 1.171 4.322 2.547 1.834 1.462 1.98 1.924 2.084 6.02.062 2.463.414 4.873.771 5.325.358.451.832 1.936 1.08 3.318.25 1.383 1.573 3.953 2.856 5.634 1.676 2.196 2.316 3.713 2.316 5.48 0 1.646.61 3.24 1.852 4.862 1.763 2.305 1.85 2.813 1.93 10.265.075 7.101.258 8.086 1.697 10.033L77.1 73.32l-1.312 2.547-1.312 2.47-6.097.386c-3.34.191-6.378.509-6.792.772-.868.551-5.73-4.908-7.409-8.336-.612-1.25-2.748-3.532-4.708-5.093-2.26-1.801-4.125-4.047-5.093-6.097-.84-1.778-1.862-3.688-2.316-4.245-1.835-2.25-1.593-5.55.772-10.265 2.224-4.433 2.944-7.949 1.62-7.949-.89 0-.138-5.837 1.081-8.258 1.174-2.329 3.727-4.906 4.554-4.63.906.301 1.763-1.303 1.775-3.396.007-1.212.584-2.28 1.698-3.01.971-.637 1.907-.787 3.087-.463zm10.805 62.05c1.271.568 1.216.668-.695 1.39-2.274.858-3.289.162-1.698-1.158.684-.568 1.477-.64 2.393-.232z" fill="#5c2700"/>
</svg>
