<?xml version="1.0" encoding="UTF-8"?>
<svg width="128" height="128" xmlns="http://www.w3.org/2000/svg" xmlns:xlink="http://www.w3.org/1999/xlink">
 <defs>
  <radialGradient id="b" cx="14.207" cy="222.04" r="8.252" gradientTransform="scale(1.3952 .71673)" gradientUnits="userSpaceOnUse">
   <stop offset="0"/>
   <stop stop-opacity="0" offset="1"/>
  </radialGradient>
  <filter id="c" x="-.109" y="-.212" width="1.218" height="1.424">
   <feGaussianBlur stdDeviation=".721"/>
  </filter>
 </defs>
 <path d="M71.605 30.096c.845 2.066 2.895 3.573 3.062 5.917-.085 4.864.163 9.86 1.989 14.43.768 2.207.968 4.556 1.036 6.875.337 3.002.804 5.993 1.31 8.97.748 2.268 2.562 4.157 2.697 6.626-.2 1.294-1.61 1.803-2.733 2.021-3.668.936-7.528.747-11.213.018-3.528-.383-7.071.056-10.572.484-1.016.06-2.381-.23-2.61-1.398-.314-1.47.18-2.943.274-4.409.339-2.604.504-5.372 1.983-7.635 1.19-2.025 2.854-3.706 4.366-5.481 1.36-2.011 2.143-4.362 2.632-6.722.34-2.592.017-5.216.317-7.812.203-2.326.662-4.758 2.088-6.667 1.24-1.366 3.218-2.033 3.99-3.816.34-.563.754-1.14 1.384-1.4z" fill="#00b300" fill-rule="evenodd"/>
 <path transform="matrix(2.4697 0 0 2.4697 19.715 -302.04)" d="M28.402 158.699a7.944 4.08 0 11-15.888 0 7.944 4.08 0 1115.888 0z" fill="url(#b)" fill-rule="evenodd" filter="url(#c)" opacity=".5"/>
 <path d="M71.903 29.607c-.64 0-2.02 1.017-3.01 2.316-.99 1.298-2.285 2.392-2.933 2.392-1.6 0-3.604 7.872-3.087 12.271.409 3.474-1.033 7.276-4.09 10.573-.893.963-1.621 2.315-1.621 3.01 0 1.314-3.302 7.907-4.322 8.644-.32.232-.074 1.147.54 2.084.875 1.334.918 1.758.232 2.007-.664.24-.637.672-.077 1.62 1.059 1.796 4.621 2.33 8.258 1.235 1.696-.51 3.32-.693 3.627-.386.307.308.713 2.257.926 4.322.328 3.173.212 4.012-1.003 5.557-.791 1.006-1.467 2.417-1.467 3.087 0 .67-.323 1.392-.694 1.62-.371.23-.618.732-.618 1.081 0 .953 2.549.694 4.245-.386 1.21-.77 2.117-.765 5.017-.154 2.607.55 3.953.54 4.785 0 1.339-.87 1.182-3.608-.232-4.399-1.467-.82-2.4-4.942-1.62-7.178.673-1.93 3.885-3.472 7.331-3.472 1.347 0 1.453-.221 1.08-2.084-.231-1.16-.385-2.438-.385-2.856 0-.417-.752-1.678-1.698-2.778-1.389-1.615-1.705-2.475-1.39-4.4.225-1.366-.057-4.084-.694-6.405-.61-2.226-1.062-5.24-1.003-6.637.074-1.74-.214-2.66-.926-2.933-.834-.32-1.08-1.588-1.08-6.637 0-3.68-.28-6.535-.695-6.792-.39-.241-.6-.746-.463-1.158.358-1.075-1.56-3.164-2.933-3.164zm-.077 1.158l1.157 1.698c.842 1.284 1.088 3.254 1.08 7.872-.007 4.807.271 6.45 1.158 7.486.625.73 1.118 2.469 1.158 3.859.04 1.39.425 4.148.85 6.097.423 1.948.605 4.382.385 5.48-.29 1.45.106 2.826 1.39 5.016 2.409 4.111 2.274 5.571-.464 6.174-4.176.92-6.862.942-8.026.077-.644-.477-1.057-1.027-.85-1.234 1.113-1.113-2.68-1.022-6.096.154-4.211 1.449-6.86 1.707-8.335.772-.664-.42-.716-.734-.155-1.08.426-.264.613-1.062.386-1.776-.255-.803.34-2.807 1.62-5.17 1.14-2.104 2.085-4.438 2.085-5.249 0-.81.744-2.202 1.62-3.087 3.201-3.235 5.124-9.446 3.936-12.657-.76-2.057.91-7.34 2.624-8.258.694-.371 1.3-1.016 1.312-1.466.014-.451.747-1.71 1.621-2.779l1.544-1.93z" fill="#5c2700"/>
</svg>
