<?xml version="1.0" encoding="UTF-8"?>
<svg width="128" height="128" xmlns="http://www.w3.org/2000/svg" xmlns:xlink="http://www.w3.org/1999/xlink">
 <defs>
  <radialGradient id="b" cx="14.207" cy="222.04" r="8.252" gradientTransform="scale(1.3952 .71673)" gradientUnits="userSpaceOnUse">
   <stop offset="0"/>
   <stop stop-opacity="0" offset="1"/>
  </radialGradient>
  <filter id="c" x="-.109" y="-.212" width="1.218" height="1.424">
   <feGaussianBlur stdDeviation=".721"/>
  </filter>
 </defs>
 <path d="M57.186 53.476c-1.164-1.164 2.24-1.626-.458-2.3-2.18-.546-5.624 1.266-6.946 2.588-1.713 1.713-.416 2.097-1.876 3.192-1.39 1.042-4.055 1.264-4.055 3.07 0 1.58-.067 3.176.234 4.68.266 1.333 0 3.08 0 4.445 0 2.136-2.254-1.058-2.34-1.404-.322-1.287-1.59-2.244-2.106-3.275-.721-1.444-1.403-3.043-1.403-4.68 0-1.786-.062-3.151.702-4.678.902-1.806 2.158-2.861 3.509-4.211 1.547-1.547 2.394-2.315 4.211-3.042 1.476-.59 3.07-.936 4.68-.936 2.05 0 4.07 3.296 5.297 4.523.862.862 1.83-1.915 3.125-2.885 1.374-1.03 2.961-1.676 4.679-2.106 1.594-.398 3.463-.234 5.147-.234 1.698 0 2.97.1 4.445.468 1.193.299 2.791 2.796 3.744 3.51.877.658-.062 3.286-.234 3.977-.434 1.734-.936 2.612-.936 4.445 0 2.1-1.79 3.896-3.276 5.381-.717.717-.453-2.09-1.17-2.807-1.103-1.104-.935-1.75-.935-3.51 0-2.083-.369-2.24-1.638-3.51-1.537-1.536-.24-2.808-3.041-3.508-1.456-.364-3.598.322-4.446 1.17-.321.32-.763.498-1.17.701-1.685.843-6.654 3.47-5.146 2.34 1.705-1.279-.297 1.43 1.403-1.404z" fill="#00b300" fill-rule="evenodd"/>
 <path transform="matrix(2.4697 0 0 2.4697 9.703 -311.55)" d="M28.402 158.699a7.944 4.08 0 11-15.888 0 7.944 4.08 0 1115.888 0z" fill="url(#b)" fill-rule="evenodd" filter="url(#c)" opacity=".5"/>
 <path d="M69.8 45.692c-4.475-.617-6.846.222-10.65 3.859-1.924 1.838-3.073 3.728-3.936 6.483-1.286 4.101-1.339 4.13 1.234 10.033 1.003 2.298 1.014 2.534-.617 5.942-1.368 2.858-1.661 4.153-1.312 6.483.348 2.32.749 2.994 1.93 3.165.815.117 2.683.032 4.167-.155l2.701-.309.077-3.395c.01-1.855-.268-4.271-.54-5.326-.305-1.184-.08-3.032.54-4.862.904-2.66.92-3.372-.077-6.868-.61-2.14-1.368-4.124-1.698-4.477-1.698-1.814.883-4.523 3.936-4.09.464.066 1.268.185 1.775.231.617.057.852.733.695 2.084-.207 1.775-.022 2.084 1.466 2.084 1.47 0 1.53.106.927 1.235-1.104 2.062-.763 3.173 1.08 4.013 1.403.64 1.56 1.045 1.003 2.084-.517.966-.388 1.475.54 2.315 1.13 1.023 1.276 1.072 2.316-.077.617-.681 1.158-1.893 1.158-2.624 0-.731.287-1.577.617-1.93.33-.352.863-2.481 1.235-4.707 1.252-7.49-.766-10.115-8.567-11.191zm-16.13.54c-1.209-.232-2.935-.074-4.785.54-6.765 2.247-12.744 9.86-11.808 15.05.248 1.376.625 2.793.849 3.164.224.371.508.818.54 1.004.177 1.018 1.9 4.013 2.315 4.013.269 0 .655.647.85 1.389.478 1.83 2.76 1.677 3.781-.232.616-1.15.625-2.033.077-3.473-.438-1.153-.576-3.499-.308-5.865.375-3.318.66-3.932 1.62-3.627 1.364.432 2.936-1.203 3.86-4.014.584-1.778.995-2.007 3.01-1.852 1.696.131 2.451-.14 3.086-1.157.716-1.147.703-1.446-.154-1.776-.565-.216-1.003-.864-1.003-1.389 0-.969-.721-1.543-1.93-1.775zm15.358 1.775c7.01.83 8.898 3.037 7.64 9.03-.438 2.09-1.028 4.01-1.311 4.245-.283.235-1.22-.236-2.007-1.004-1.05-1.025-1.313-1.911-1.08-3.473.258-1.732.023-2.249-1.158-2.624-.849-.27-1.343-.884-1.235-1.543.102-.619-.017-1.543-.308-2.007-1.137-1.812-7.566-.46-10.188 2.161-1.6 1.6-2.299.761-.772-.926 2.322-2.565 6.95-4.27 10.42-3.859zm-17.365.54c1.587.051 2.238.224 1.39.386-1.472.282-4.789 4.578-4.94 6.406-.039.471-.449-.368-.926-1.852l-.926-2.701-1.08 2.546c-.597 1.38-1.08 2.927-1.08 3.473 0 .547-.247 1.16-.618 1.39-.89.55-.895 8.825 0 10.496 1.085 2.027.173 1.577-1.621-.85-2.338-3.162-3.427-7.73-2.47-10.264 1.766-4.67 7.85-9.17 12.271-9.03zm5.017 9.185c.185.456.248 1.35.077 2.006-.17.656-.372.264-.386-.849-.013-1.113.124-1.614.309-1.157zm3.627 2.546c.371.23.695.855.695 1.39 0 .534-.324.926-.695.926-.37 0-.694-.626-.694-1.39 0-.763.323-1.155.694-.926zm-1.62 18.677c.17.17-.13.689-.695 1.158-.641.532-1.08.602-1.08.154 0-.815 1.307-1.78 1.775-1.312z" fill="#5c2700"/>
</svg>
