<?xml version="1.0" encoding="UTF-8"?>
<svg width="128" height="128" xmlns="http://www.w3.org/2000/svg" xmlns:xlink="http://www.w3.org/1999/xlink">
 <defs>
  <radialGradient id="b" cx="14.207" cy="222.04" r="8.252" gradientTransform="scale(1.3952 .71673)" gradientUnits="userSpaceOnUse">
   <stop offset="0"/>
   <stop stop-opacity="0" offset="1"/>
  </radialGradient>
  <filter id="c" x="-.109" y="-.212" width="1.218" height="1.424">
   <feGaussianBlur stdDeviation=".721"/>
  </filter>
 </defs>
 <path transform="matrix(2.4697 0 0 2.4697 15.484 -295.34)" d="M28.402 158.699a7.944 4.08 0 11-15.888 0 7.944 4.08 0 1115.888 0z" fill="url(#b)" fill-rule="evenodd" filter="url(#c)" opacity=".5"/>
 <path d="M49.055 21.045c-.212.214.446 1.129 1.467 2.007 1.02.878 1.852 1.782 1.852 2.007 0 .225.918 1.563 2.007 2.932 1.895 2.384 1.971 2.749 1.852 8.721-.069 3.431-.34 6.25-.618 6.252-.278 0-.54-.324-.54-.695 0-.37-.447-.694-1.003-.694-.557 0-1.003-.324-1.003-.695 0-.371-.403-.617-.927-.617-.523 0-1.735-1.033-2.7-2.239-.967-1.205-2.105-2.561-2.47-3.01-.366-.448-.618-1.403-.618-2.16 0-1.675-1.316-1.897-1.39-.232-.028.65-.228 2.452-.385 3.936-.315 2.979.933 5.999 2.47 6.097.544.035 1.81.42 2.855.849s2.333.772 2.856.772c.523 0 1.4.832 1.93 1.852s1.86 2.55 3.01 3.396c1.148.846 2.16 2.053 2.16 2.701 0 .648.347 1.815.85 2.547 1.323 1.93 2.067 15.127.848 15.127-.496 0-3.086-2.095-5.788-4.708-3.196-3.09-6.104-5.279-8.335-6.174-5.315-2.134-5.41-2.114-6.638-6.252-.807-2.72-1.759-4.53-3.318-5.865-2.27-1.942-5.399-2.487-7.255-1.312-1.67 1.057.854 2.917 3.242 2.392 1.783-.391 2.126-.145 3.704 2.547.957 1.633 1.775 3.585 1.775 4.322 0 1.89 4.26 5.402 9.57 7.872 1.376.64 2.636 1.42 2.856 1.775.594.961-3.613.018-6.483-1.466-2.45-1.266-2.45-1.274-6.406.463-5.734 2.518-5.806 2.63-6.02 4.63-.215 2.021.726 2.28 2.393.772.599-.542 2.919-1.537 5.17-2.238 3.962-1.233 4.191-1.257 6.406-.077 1.26.67 3.123 1.296 4.168 1.312 2.624.04 3.956.861 8.335 5.17l3.782 3.705-1.853 1.544c-1.722 1.374-1.874 1.768-1.543 4.708.32 2.834.066 3.698-2.007 7.177-1.298 2.18-2.204 4.425-2.006 4.94.39 1.016 3.859.74 3.859-.31 0-.327.446-.616 1.003-.616.556 0 1.573-.648 2.315-1.39 1.7-1.699 3.081-1.699 6.252 0 1.384.742 2.668 1.39 2.855 1.39.738 0 .322-3.707-.54-4.708-1.304-1.515-2.47-6.698-2.47-11.114 0-3.52.16-3.992 2.701-6.483 1.5-1.469 3.04-2.7 3.396-2.7.356 0 .692-.309.695-.773.007-1.093 3.114-2.547 5.48-2.547 1.017 0 2.858-.585 4.09-1.312 4.486-2.647 12.124-5.483 12.966-4.785.444.37.99.476 1.234.232.715-.714.58-2.817-.231-3.087-.884-.295-11.702 1.86-12.812 2.547-1.167.721-.331-9.51.927-11.345 2.493-3.64 9.133-9.262 10.959-9.262 1.046 0 1.837-2.099 1.08-2.855-.678-.678-2.855.037-2.855.926 0 .331-.308.609-.772.617-.464.009-2.078 1.067-3.55 2.393-1.473 1.326-3.137 2.814-3.705 3.241-.568.428-2.342 2.164-3.936 3.936l-2.933 3.242.464 4.013.463 4.013-3.165 1.852c-1.763 1.035-4.526 3.008-6.097 4.4-1.57 1.39-3.082 2.546-3.318 2.546-.237 0-.386-1.428-.386-3.164 0-1.736-.343-4.063-.772-5.248-.823-2.276-.765-2.663 1.544-6.406 1.17-1.896 1.445-3.347 1.389-7.331-.039-2.728.29-5.733.694-6.715.406-.982.783-2.099.85-2.47.272-1.531 1.98-5.093 2.469-5.093.29 0 .54-.57.54-1.312 0-2.034-1.718-1.616-3.55.849-1.79 2.407-3.859 7.897-3.859 10.341 0 .856-.252 2.895-.617 4.477-.365 1.582-.882 3.687-1.08 4.708-.2 1.02-.59 1.852-.927 1.852-1.12 0-2.752-2.06-2.778-3.55-.016-.903-.908-2.014-2.238-2.856l-2.161-1.39v-6.405c0-6.04-.104-6.602-2.007-9.338a160.944 160.944 0 01-2.933-4.4c-1.003-1.57-4.147-3.34-4.785-2.7zm12.117 59.967c.371-.229.695-.084.695.309s-.324.772-.695.772c-.864 0-.864-.547 0-1.08z" fill="#5c2700"/>
</svg>
