<?xml version="1.0" encoding="UTF-8"?>
<svg width="128" height="128" xmlns="http://www.w3.org/2000/svg" xmlns:xlink="http://www.w3.org/1999/xlink">
 <defs>
  <radialGradient id="b" cx="14.207" cy="222.04" r="8.252" gradientTransform="scale(1.3952 .71673)" gradientUnits="userSpaceOnUse">
   <stop offset="0"/>
   <stop stop-opacity="0" offset="1"/>
  </radialGradient>
  <filter id="c" x="-.109" y="-.212" width="1.218" height="1.424">
   <feGaussianBlur stdDeviation=".721"/>
  </filter>
 </defs>
 <path d="M67.379 22.8c-.385-.213-2.8.817-4.211 1.17-1.784.446-2.09 2.26-2.34 3.51-.282 1.409-.234 2.913-.234 4.445 0 1.927.567 3.454-.702 5.147-1.033 1.377-3.082 3.006-4.099 4.362-1.435 1.913-1.484 4.894-2.505 6.936-.724 1.448.438 3.071.053 4.611-.476 1.905-.468 2.045-.468 3.977 0 1.529 1.122 3.195 1.872 4.445.763 1.272 1.786 1.83 2.808 2.34 1.785.893 2.021 2.873 2.807 4.445.646 1.292 1.486 2.606 2.34 3.744 1.11 1.481 1.668 2.822 3.041 3.509 1.724.862 3.882.936 5.849.936 1.34 0 3.916-1.111 5.381-1.404 2.066-.413 1.14-2.294 1.599-4.128.587-2.348 2.144-4.998 2.144-7.336 0-1.65.8-3.434 1.17-4.913.363-1.452-.823-1.904-.823-3.47 0-1.516-.245-3.953-.717-5.133-.675-1.688-.527-3.953-1.267-5.435-.768-1.535-1.336-2.404-2.34-3.743-.925-1.233-1.993-2.04-1.676-3.621.356-1.783.453-3.72.453-5.547 0-1.789-.024-3.234-1.419-4.28-2.085-1.564-5.527-2.584-6.716-4.567z" fill="#00b300" fill-rule="evenodd"/>
 <path transform="matrix(2.4697 0 0 2.4697 19.896 -292.4)" d="M28.402 158.699a7.944 4.08 0 11-15.888 0 7.944 4.08 0 1115.888 0z" fill="url(#b)" fill-rule="evenodd" filter="url(#c)" opacity=".5"/>
 <path d="M68.184 22.628c-1.591-.467-2.96-.257-4.013.695-.73.66-1.543 1.004-1.775.771-.232-.232-1.067.39-1.852 1.39-1.157 1.473-1.367 2.588-1.235 5.942.148 3.777-.029 4.404-2.084 7.1-3.64 4.776-4.564 6.983-4.399 10.883.083 1.952-.256 4.98-.772 6.714-1.117 3.756-.707 4.502 3.705 6.637 2.761 1.337 3.04 1.69 4.399 6.252 2.27 7.616 3.356 10.127 5.17 12.04 1.517 1.597 1.699 2.336 1.699 7.254 0 4.367-.348 5.908-1.467 7.718-.771 1.248-1.389 2.59-1.389 3.01 0 1.128 1.278.99 3.319-.463 1.592-1.134 2-1.202 3.473-.386 2.22 1.228 4.707 1.228 4.708 0 0-.535-.361-1.213-.772-1.467-.453-.28-.55-1.43-.309-2.932.218-1.364.061-4.276-.309-6.483-1.013-6.05-.39-8.656 2.624-10.65 1.755-1.162 2.759-2.453 3.319-4.323 1.03-3.435 1.092-5.103.077-4.476-.858.53-.775-.089 1.08-5.094 2.069-5.58.292-15.053-4.013-21.3-1.657-2.407-1.745-3.013-1.312-6.02.767-5.324.468-6.247-2.7-9.416-1.785-1.785-3.58-2.929-5.172-3.396zm-.54 1.312c1.441.303 3.202 1.47 4.785 3.242l2.47 2.855-.386 5.017c-.35 4.664-.223 5.291 1.389 7.64 3.316 4.833 3.985 6.754 4.322 12.657.28 4.917.136 6.279-1.08 9.03-.821 1.855-1.467 4.614-1.467 6.483 0 2.938-.218 3.397-2.006 4.322-3.806 1.968-4.478 1.059-3.782-5.094.482-4.257 2.42-9.56 4.245-11.576.769-.85.898-1.417.385-1.93-1.101-1.102-3.174-.455-3.395 1.08-.108.752-.776 1.73-1.467 2.162-1.075.671-1.353.602-1.698-.772-.221-.884-1.095-1.824-1.929-2.084-.834-.26-2.202-1.206-3.087-2.084-1.78-1.764-2.491-1.938-3.164-.849-.248.401.403 1.518 1.389 2.547 1.99 2.078 4.196 8.521 4.862 14.2.428 3.657.388 3.711-.926 2.548-.733-.65-1.782-1.158-2.315-1.158-.56 0-1.684-1.722-2.625-4.09-1.53-3.854-4.622-7.41-6.56-7.41-.402 0-1.213-.441-1.775-1.003-.911-.911-.914-1.397 0-4.476.664-2.234.898-4.523.618-6.56-.402-2.924-.236-3.469 2.47-7.41 4.384-6.384 4.623-7.017 3.935-9.415-.333-1.162-.352-2.904-.077-3.936.523-1.96 3.123-3.795 4.63-3.241.512.188.653-.033.387-.463-.317-.513.272-.564 1.852-.232z" fill="#5c2700"/>
</svg>
