<?xml version="1.0" encoding="UTF-8"?>
<svg width="128" height="128" xmlns="http://www.w3.org/2000/svg" xmlns:xlink="http://www.w3.org/1999/xlink">
 <defs>
  <radialGradient id="b" cx="14.207" cy="222.04" r="8.252" gradientTransform="scale(1.3952 .71673)" gradientUnits="userSpaceOnUse">
   <stop offset="0"/>
   <stop stop-opacity="0" offset="1"/>
  </radialGradient>
  <filter id="c" x="-.109" y="-.212" width="1.218" height="1.424">
   <feGaussianBlur stdDeviation=".721"/>
  </filter>
 </defs>
 <path d="M53.721 49.072c.145 1.042-.363 2.469-1.638 3.744-1.254 1.254-.75 2.34-2.807 2.34-1.452 0-3.794 3.56-4.68 4.444-1.212 1.213-1.914 2.611-3.509 3.978-1.633 1.4-2.17.208-2.573-1.404-.299-1.195.175-3.04.468-4.211.393-1.575.647-2.932 1.404-4.445 1.022-2.046 1.747-4.286 3.909-5.367 1.197-.598 2.574-2.295 3.66-3.11 1.255-.94 3.079 1.384 3.66 2.16.674.898 3.268.376 3.978.234 1.64-.329 3.284-3.381 4.06-4.416.748-.997 3.83.472 4.83.672 2.179.436 3.008.268 4.211 1.872 1.008 1.343 1.035 2.97 1.404 4.445.398 1.592-.075 3.603.234 5.147.317 1.585.702 2.745.702 4.445 0 1.535-2.164-1.167-2.34-1.871-.436-1.745-1.92-1.3-3.275-1.638-.952-.238-1.83-1.706-2.106-2.807-.601-2.407-2.876-2.089-4.679-1.638-4.054 1.014-2.685 3.996-3.743-.234-.155-.62-.907-1.683-1.17-2.34z" fill="#00b300" fill-rule="evenodd"/>
 <path transform="matrix(2.4697 0 0 2.4697 10.215 -310.58)" d="M28.402 158.699a7.944 4.08 0 11-15.888 0 7.944 4.08 0 1115.888 0z" fill="url(#b)" fill-rule="evenodd" filter="url(#c)" opacity=".5"/>
 <path d="M63.516 41.67c-3.74-.114-3.899-.072-5.71 2.393-1.368 1.86-2.288 2.55-3.397 2.393-.834-.119-1.543-.711-1.543-1.235 0-.524-.772-1.137-1.775-1.39-2.724-.683-6.187 1.663-9.57 6.484-2.532 3.607-2.91 4.682-3.242 8.643-.318 3.802-.208 4.744.772 5.557 1.052.873 1.381.761 3.164-1.235 1.274-1.425 2.334-2.111 3.01-1.852 1.528.586 2.933-.846 2.933-3.01 0-1.677.226-1.864 2.161-1.775 2.27.105 2.43-.2 3.627-5.325.47-2.012.482-1.946 1.158 1.003.527 2.296.452 3.82-.386 6.946-1.225 4.573-1.032 9.912.463 12.194.584.892.895 2.295.695 3.396-.19 1.046.02 2.398.463 2.933.601.724.57 1.128 0 1.698-.549.548-.521.992 0 1.62.43.518 1.95.848 3.704.772l2.933-.154V77.79c0-2.377-.435-4.897-1.158-6.406-.789-1.648-1.063-3.14-.771-4.476.819-3.753.572-9.872-.463-12.349-.821-1.964-.84-2.575-.155-3.01 1.517-.961 2.256-.127 2.47 2.779.208 2.825.224 2.816 2.701 2.624 2.14-.166 2.516.007 2.701 1.312.12.835.75 1.855 1.467 2.238.732.392 1.312 1.402 1.312 2.315 0 .893.269 1.792.617 2.007 1.137.703 1.892-1.698 1.312-4.245-.31-1.359-.782-5.156-1.003-8.412-.371-5.462-.504-6.113-2.47-8.18-1.888-1.988-2.596-2.212-6.02-2.316zm-4.244 2.47l4.244.31c5.137.304 5.924 1.172 6.56 7.022.522 4.793.28 6.287-.694 4.09-.527-1.188-1.115-1.44-2.779-1.311-1.983.153-2.138-.02-2.083-1.93.032-1.133-.485-2.569-1.08-3.164-.995-.994-1.254-.928-3.705.695-3.354 2.219-4.082 1.188-1.93-2.856l1.467-2.856zm-9.956 1.776c.786.036 1.498.34 2.16 1.003 1.283 1.282 1.309 1.733.618 4.476-.721 2.864-1.93 4.111-1.93 2.007 0-2.035-1.372-1.682-2.469.617-.629 1.318-1.484 2.393-1.93 2.393-.974 0-3.01 2.906-3.01 4.322 0 1.117-2.257 2.604-2.932 1.929-1.081-1.081-.265-5.525 1.698-9.261 2.61-4.97 5.436-7.595 7.795-7.486zm6.946 18.29c.37-.229.623-.222.617.078-.006.3-.258.987-.617 1.543-.564.872-.686.906-.695-.077-.006-.627.324-1.314.695-1.543z" fill="#5c2700"/>
</svg>
