<?xml version="1.0" encoding="UTF-8"?>
<svg width="128" height="128" xmlns="http://www.w3.org/2000/svg" xmlns:xlink="http://www.w3.org/1999/xlink">
 <defs>
  <radialGradient id="b" cx="14.207" cy="222.04" r="8.252" gradientTransform="scale(1.3952 .71673)" gradientUnits="userSpaceOnUse">
   <stop offset="0"/>
   <stop stop-opacity="0" offset="1"/>
  </radialGradient>
  <filter id="c" x="-.109" y="-.212" width="1.218" height="1.424">
   <feGaussianBlur stdDeviation=".721"/>
  </filter>
 </defs>
 <path d="M64.044 31.146c0 .312 0 .312 0 0-1.681 2.689-.72 5.925-1.403 8.656-.395 1.578-.352 3.51-.936 4.68-.576 1.15-2.028 2.26-3.042 3.275-1.162 1.162-2.316 2.23-3.275 3.509-1.06 1.414-1.451 3.698-1.872 5.381-.51 2.042-1.232 3.822-1.637 5.849-.384 1.918-1.624 3.453-2.106 5.381-.44 1.76-1.447 2.569-.273 3.743.662.662 4.84.206 5.888.468 2.934.734 6.923.975 9.675.975 2.33 0 5.033-1.443 7.404-1.443 2.845 0 2.543-.686 4.445-1.637 1.508-.754 1.404-2.93 1.404-4.68 0-1.63-.1-3.174-.702-4.679-.248-.618-.468-1.247-.702-1.871-.707-1.887-1.769-3.954-2.34-5.381-.773-1.935-3.54-2.838-4.913-4.212-1.193-1.193-.702-4.252-.702-5.849 0-1.654-.548-3.362-.935-4.913-.469-1.873-.556-2.983-1.404-4.679l-.468-.936c-.398-.795-1.404-1.091-2.106-1.637z" fill="#00b300" fill-rule="evenodd"/>
 <path transform="matrix(2.4697 0 0 2.4697 14.456 -306.28)" d="M28.402 158.699a7.944 4.08 0 11-15.888 0 7.944 4.08 0 1115.888 0z" fill="url(#b)" fill-rule="evenodd" filter="url(#c)" opacity=".5"/>
 <path d="M64.273 29.993c-.58.033-1.117.526-1.466 1.466-.31.835-.816 3.47-1.08 5.866-.729 6.598-1.534 8.117-6.097 11.345-1.4.99-3.624 6.015-4.09 9.261-.268 1.855-.96 4.29-1.544 5.402-.585 1.113-1.003 2.269-.926 2.547.076.278-.3.463-.85.463-1.727 0-2.044 3.087-.463 4.785 1.208 1.296 2.169 1.585 6.406 1.621h4.94l-.31 3.01c-.16 1.67-.477 3.98-.77 5.094-.294 1.113-.566 3.039-.618 4.244-.052 1.206.19 2.161.54 2.161.862 0 2.701-1.969 2.701-2.855 0-.44.949-.543 2.393-.309 1.291.21 2.48.127 2.7-.231.222-.358 1.475-.462 2.702-.232 1.227.23 2.34.105 2.547-.231.208-.337-.52-1.983-1.62-3.628-2.668-3.986-2.392-6.113.77-6.791 1.3-.279 4.1-.59 6.252-.695 3.548-.174 3.892-.32 3.55-1.544-.207-.742-.616-3.176-.849-5.402-.496-4.753-3.079-10.597-5.71-12.811-3.248-2.733-4.832-6.306-4.4-9.956.393-3.315-1.103-9.956-2.238-9.956-.332 0-.768-.57-1.003-1.312-.287-.904-.886-1.345-1.467-1.312zm.464 2.624c1.374 0 2.716 4.967 2.624 9.724-.085 4.35.06 5.144 2.006 8.027 1.18 1.747 2.548 3.343 3.01 3.627 2.047 1.259 4.05 6.609 4.09 10.882.054 5.699-.52 6.938-7.03 6.396-2.596-.216-5.382 1.087-5.939 1.048-2.822.414-5.787-1.256-9.218-.974l-4.439-.064v-2.316c0-1.347.712-3.334 1.698-4.785.928-1.365 1.698-3.185 1.698-4.013 0-3.429 2.964-10.658 4.554-11.113 2.355-.675 4.301-4.187 4.939-8.876.837-6.152 1.238-7.563 2.007-7.563z" fill="#5c2700"/>
</svg>
