<?xml version="1.0" encoding="UTF-8"?>
<svg width="128" height="128" xmlns="http://www.w3.org/2000/svg" xmlns:xlink="http://www.w3.org/1999/xlink">
 <defs>
  <radialGradient id="b" cx="14.207" cy="222.04" r="8.252" gradientTransform="scale(1.3952 .71673)" gradientUnits="userSpaceOnUse">
   <stop offset="0"/>
   <stop stop-opacity="0" offset="1"/>
  </radialGradient>
  <filter id="c" x="-.109" y="-.212" width="1.218" height="1.424">
   <feGaussianBlur stdDeviation=".721"/>
  </filter>
 </defs>
 <path transform="matrix(2.4697 0 0 2.4697 3.773 -300.57)" d="M28.402 158.699a7.944 4.08 0 11-15.888 0 7.944 4.08 0 1115.888 0z" fill="url(#b)" fill-rule="evenodd" filter="url(#c)" opacity=".5"/>
 <path d="M56.817 25.81c-1.165-.004.298 4.36 2.933 8.722 1.477 2.444 2.701 4.99 2.701 5.634 0 1.893 3.075 4.476 5.326 4.476 2.327 0 4.117 2.067 4.09 4.708-.013 1.28-.803 2.307-3.319 4.013-1.842 1.25-3.984 3.16-4.707 4.322-.724 1.162-2.831 3.638-4.708 5.48-1.877 1.84-3.447 3.828-3.473 4.399-.033.708-.176.612-.54-.31-.294-.741-.413-1.755-.232-2.237.181-.483-.268-1.5-1.003-2.316-.736-.816-1.922-2.56-2.624-3.859-.703-1.298-1.807-2.746-2.47-3.241-2.638-1.967-4.56-4.356-4.94-6.097-1.154-5.298-3.075-7.486-9.03-10.187-3.165-1.436-8.103-1.847-8.103-.695 0 .371.539.617 1.235.617.697 0 1.7.447 2.161 1.004.462.556 1.311 1.003 1.93 1.003 1.385 0 5.85 2.308 7.563 3.859.792.717 1.31 2.036 1.312 3.55.003 2.62 2.088 6.792 3.473 6.869.469.026-.265.427-1.62.926-1.778.654-3.248.758-5.249.309-2.254-.507-3.206-.425-5.248.617-3.047 1.555-5.166 3.794-4.553 4.785.247.4.742.595 1.08.386.338-.209 1.142-.072 1.852.309.941.503 1.55.41 2.084-.232.404-.486 2.17-.884 4.013-.926 1.84-.042 4.285-.58 5.403-1.158 1.118-.578 2.653-1.08 3.395-1.08 2.004 0 4.785 1.436 4.785 2.47 0 .497.287.926.618.926.846 0 1.478 1.912 1.852 5.248.306 2.73-.032 3.961-3.318 10.805-.572 1.189-.496 2.249.385 4.707 1.412 3.94 1.426 5.484.078 7.41-.956 1.364-.96 1.56 0 1.929.582.223 1.715 0 2.546-.54.874-.567 3.163-1 5.403-1.004 3.329-.005 3.859.162 3.859 1.235 0 .688.524 1.235 1.08 1.235 1.555 0 1.204-3.802-.54-6.251-1.335-1.875-1.442-2.978-1.466-9.88-.026-7.357.017-7.904 1.775-10.495 1.018-1.501 1.845-3.033 1.852-3.473.007-.44 1.156-2.513 2.547-4.554 1.967-2.885 3.366-4.071 6.251-5.402 2.063-.952 5.648-3.59 8.104-5.943 5.366-5.142 9.18-6.76 13.969-5.865 3.737.698 5.023-.1 4.476-2.856-.335-1.692-.48-1.715-2.778-1.08-1.332.367-3.596.458-5.017.231-1.83-.292-3.108-.1-4.322.695-2.477 1.623-2.895.493-1.852-4.476.604-2.876.671-4.577.232-5.017-1.156-1.155-2.525 1.075-5.248 8.258-2.713 7.154-4.44 10.265-5.557 10.265-.363 0-.618-.488-.618-1.08 0-1.693-3.989-5.017-6.02-5.017-2.467 0-4.784-1.747-4.784-3.628 0-1.308-1.91-4.566-3.396-5.788-.226-.185-.984-1.79-1.698-3.55-.715-1.761-1.605-3.163-1.93-3.164zm33.65 13.507c.37 0 .247.257-.309.617-.557.36-1.327.617-1.698.617-.37 0-.248-.257.309-.617.556-.36 1.327-.617 1.698-.617zM33.124 58.842c.37 0 .248.258-.309.618-.556.36-1.327.694-1.698.694-.37 0-.247-.334.309-.694.557-.36 1.327-.618 1.698-.618z" fill="#5c2700"/>
</svg>
