<?xml version="1.0" encoding="UTF-8"?>
<svg width="128" height="128" xmlns="http://www.w3.org/2000/svg" xmlns:xlink="http://www.w3.org/1999/xlink">
 <defs>
  <radialGradient id="b" cx="14.207" cy="222.04" r="8.252" gradientTransform="scale(1.3952 .71673)" gradientUnits="userSpaceOnUse">
   <stop offset="0"/>
   <stop stop-opacity="0" offset="1"/>
  </radialGradient>
  <filter id="c" x="-.109" y="-.212" width="1.218" height="1.424">
   <feGaussianBlur stdDeviation=".721"/>
  </filter>
 </defs>
 <path transform="matrix(2.4697 0 0 2.4697 13.88 -294.93)" d="M28.402 158.699a7.944 4.08 0 11-15.888 0 7.944 4.08 0 1115.888 0z" fill="url(#b)" fill-rule="evenodd" filter="url(#c)" opacity=".5"/>
 <path d="M50.957 25.71c1.25 2.09 2.11 2.316 5.293 2.316.247 0 4.115-1.69 5.294-1.985 2.507-.627 5.233-.542 7.28.993 1.804 1.353 3.949 2.956 5.624 4.632 1.526 1.526 3.36 2.768 4.963 3.97l5.294 3.97c1.138.854 1.763 2.131 2.647 3.31.783 1.044 0 3.364 0 4.962 0 2.167 1.072 4.13 1.985 5.956 1.165 2.33-1.007 4.589-2.647 5.955-1.661 1.385-4.141 1.59-5.956 2.317-1.407.563-3.094 3.425-3.97 4.3-1.868 1.87-.122 3.385-3.64 3.971-1.941.324-3.784.956-5.624 1.324-2.307.461-4.361-.512-6.287-.993-2.001-.5-3.19-.873-4.3-1.985-6.084-3.436-5.524-4.431-8.452-3.525-2.44.976-3.764-.131-5.756-1.128-2.575-1.287-4.969-1.289-6.968-3.288-2.038-2.037-3.028-1.526-4.281-4.032-.753-1.505.337-4.06.661-5.356.58-2.319 1.219-3.473 2.772-5.026 1.052-1.052 2.448-2.406 3.495-3.453 1.668-1.668-.95-4.23 1.985-4.963 1.83-.457 3.542-1.79 4.301-3.308 1.134-2.27 1.28-4.464 2.647-6.287.76-1.013 2.669-1.87 3.64-2.647z" fill="#00b300" fill-rule="evenodd"/>
 <path d="M65.51 24.666c-2.823 0-9.88 1.38-10.883 2.16-1.257.98-.97 2.086.386 1.544 3.417-1.367 8.817-2.439 10.728-2.084a4.846 4.846 0 013.318 2.316c.716 1.21 2.28 2.275 4.322 3.01 1.966.706 3.426 1.75 3.86 2.7.386.85 1.892 2.103 3.318 2.78 4.971 2.356 7.319 6.024 5.711 9.029-.423.791-.398 1.77.154 2.855.457.898 1.223 2.942 1.698 4.554.765 2.594.724 3.103-.308 4.245-1.753 1.936-4.757 3.27-5.557 2.47-.834-.835-2.161-.148-2.161 1.157 0 .535-.25 1.003-.618 1.003-1.408 0-3.395 2.374-3.395 4.09 0 2.948-2.427 3.995-9.725 4.168-5.23.124-6.57-.034-7.64-1.003-.715-.647-1.637-1.158-2.007-1.158-.37 0-1.305-.786-2.16-1.698-1.454-1.546-7.85-3.56-10.034-3.164-.469.085-1.459-.303-2.238-.849-.78-.546-1.92-.751-2.47-.54-.605.232-1.602-.439-2.547-1.62-1.88-2.354-2.836-1.744-1.62 1.002 1.09 2.463 3.11 3.798 4.244 2.856.509-.422 1.157-.391 1.775 0 .673.425.728.61.155.617-.464.006-.85.3-.85.695 0 .395.833.697 1.853.617 3.214-.25 5.634.052 5.634.695 0 .341-1.418.499-3.087.386-1.973-.133-3.01.031-3.01.54 0 .94 2.677 3.357 3.936 3.55 2.417.371 5.587 2.541 6.56 4.477.598 1.188 2.352 3.453 3.86 5.016l2.7 2.856-2.084 5.48c-1.176 3.005-2.16 6.061-2.16 6.79 0 .73-.447 1.485-1.004 1.699-.556.213-1.003.59-1.003.849s3.205.483 7.1.463c3.895-.02 7.023-.262 7.023-.54 0-.279.86-.54 1.93-.54 1.371 0 2.069-.37 2.315-1.313.329-1.257-1.152-5.063-2.778-7.023-1.078-1.299-1.147-6.274-.077-7.563 1.435-1.73 8.513-6.329 9.724-6.329 1.402 0 2.911-3.564 3.319-7.949.275-2.97 2.47-8.042 2.47-5.711 0 1.609 1.724.752 3.935-2.007 2.459-3.066 2.532-5.063.309-9.724-.887-1.861-1.008-2.683-.386-4.708.487-1.587.558-2.95.154-3.704-.892-1.668-6.751-6.715-7.794-6.715-.48 0-1.429-.832-2.161-1.852-.733-1.02-2.51-2.436-3.936-3.164-1.426-.728-3.545-2.33-4.708-3.55-1.457-1.528-2.72-2.161-4.09-2.161zm-13.661.694c-1.186-.763-3.785.463-6.02 2.856-1.286 1.377-1.447 1.97-.849 3.087 1.21 2.26.891 2.698-3.396 4.862-4.029 2.034-4.043 2.103-3.627 4.322.351 1.873.172 2.352-.926 2.701-1.743.553-5.452 4.775-5.48 6.251-.012.637-.458 1.75-1.003 2.47-1.27 1.679-1.313 3.065 0 4.94 1.067 1.523 3.01 2.078 3.01.848 0-.37-.413-.694-.926-.694-3.911 0 1.527-11.935 5.942-13.043 1.518-.38 1.584-.583.927-2.47-.394-1.13-.558-2.221-.386-2.392.17-.171 1.93-1.146 3.936-2.161 3.518-1.782 3.712-1.914 3.627-4.477-.085-2.573 1.498-5.001 3.396-5.093.37-.018 1.141-.33 1.698-.695.876-.575.918-.77.077-1.312zm26.549 39.515c.76-.292.88.195.617 2.16-.68 5.101-.856 5.387-5.788 8.645-2.69 1.776-5.186 3.605-5.557 4.09-.48.628-.689.088-.617-1.852.077-2.1-.192-2.915-1.235-3.473-1.982-1.06-.755-1.666 4.553-2.47 5.079-.77 7.024-2.249 7.024-5.17 0-.847.473-1.727 1.003-1.93zM50.46 65.8c.505 0 1.676.728 2.624 1.62.948.894 2.792 2.2 4.09 2.934 1.299.733 2.327 1.683 2.238 2.083-.088.401.158.56.618.386.58-.22.948.739 1.08 3.087.105 1.858.105 3.348 0 3.319-3.298-.925-5.27-2.174-5.71-3.627-.651-2.144-4.51-7.077-5.558-7.1-.697-.016-.72-.245-.154-.927.413-.498.553-1.145.309-1.39-.244-.243-.043-.385.463-.385z" fill="#5c2700"/>
</svg>
