<?xml version="1.0" encoding="UTF-8"?>
<svg width="128" height="128" xmlns="http://www.w3.org/2000/svg" xmlns:xlink="http://www.w3.org/1999/xlink">
 <defs>
  <radialGradient id="b" cx="14.207" cy="222.04" r="8.252" gradientTransform="scale(1.3952 .71673)" gradientUnits="userSpaceOnUse">
   <stop offset="0"/>
   <stop stop-opacity="0" offset="1"/>
  </radialGradient>
  <filter id="c" x="-.109" y="-.212" width="1.218" height="1.424">
   <feGaussianBlur stdDeviation=".721"/>
  </filter>
 </defs>
 <path d="M62.308 16.336c2.099.544 2.454 2.335 3.042 3.51.846 1.693 1.339 3.932 2.105 5.849a54 54 0 001.872 4.211c.782 1.565 1.475 2.98 2.574 4.445.983 1.312 1.677 2.019 3.041 3.042 1.255.94 2.671 2.535 3.275 3.743.886 1.772 1.432 3.39 2.574 4.913.965 1.286.796 2.924.468 3.743-.564 1.41-4.722 1.17-6.083 1.17-1.944 0-2.047-1.228-3.51.234-1.152 1.153 2.61 3.733 3.14 3.865 1.262.316 1.747.76 2.476 2.218.884 1.768 1.283 3.66 2.573 5.381.931 1.242 1.92 2.326 2.808 3.51.747.996 1.403 2.382 1.403 3.743 0 1.466-.895 1.968-2.105 2.573-1.282.641-3.315-.468-4.68-.468-1.366 0-3.154-.234-4.679-.234-2.437 0 1.065 2.703 1.638 3.276 1.15 1.15 1.575 3.664 1.872 5.147.312 1.559.837 2.91 1.638 3.977 1.004 1.34 1.544 1.639 1.871 3.276.46 2.302-2.33 1.869-3.977 2.34-1.252.357-3.775-.009-4.68-.235-1.516-.379-3.091-1.312-4.21-1.871-1.418-.71-2.98-1.227-4.446-2.106-.299-.18-.624-.312-.936-.468-1.376-.688-2.515-.366-3.977 0-1.51.378-2.74 1.236-3.743 2.574-.788 1.05-2.244.853-3.51 1.17-1.688.422-3.509 1.557-3.509-.702 0-1.543.117-2.574.468-3.978.384-1.537 1.182-2.351 2.34-3.51 1.1-1.1 1.373-2.688 2.34-3.976.708-.946 1.515-2.177 2.339-3.276.838-1.118 1.769-3.099 2.105-4.445 1.179-4.715 1.951-2.36-.935-1.638-2.379.595-4.808 1.525-7.253 2.34-2.497.832-2.051-.385-.936-1.872.957-1.276 2.295-2.25 3.041-3.743.74-1.48 1.846-2.522 2.574-3.977l.468-.936c.743-1.486 1.925-2.627 3.041-3.744 1.216-1.215 2.258-2.903 1.872-4.445-.415-1.66-1.384-2.34-3.275-2.34-2.208 0-2.812.469-4.446.469-2.803 0-1.598-1.482-.701-3.276.836-1.673 1.878-3.408 2.573-5.147.759-1.897 1.314-3.42 2.808-4.913 1.014-1.014 1.88-2.506 2.807-3.743.92-1.227 1.018-2.947.702-4.212-.411-1.645-.166-4.715.234-6.316.661-2.645 1.48-3.12 3.51-5.148z" fill="#00b300" fill-rule="evenodd"/>
 <path transform="matrix(2.4697 0 0 2.4697 15.995 -287.86)" d="M28.402 158.699a7.944 4.08 0 11-15.888 0 7.944 4.08 0 1115.888 0z" fill="url(#b)" fill-rule="evenodd" filter="url(#c)" opacity=".5"/>
 <path d="M61.977 16.646c-.173-.293-.948.445-2.238 2.393-1.635 2.469-1.96 3.64-2.083 8.18-.142 5.228-.153 5.286-3.01 8.335-2.125 2.268-2.882 3.693-2.933 5.326-.068 2.16-1.893 5.34-4.013 7.1-2.504 2.078-.197 3.011 4.167 1.698 2.815-.847 3.416-.82 4.785.077.925.606 1.37 1.292 1.08 1.775-1.567 2.613-5.42 7.908-7.022 9.647-1.027 1.113-2.068 2.65-2.316 3.473-.248.824-1.3 2.366-2.392 3.396-1.092 1.03-2.007 2.14-2.007 2.47 0 .908 7.323-.17 8.953-1.312 1.707-1.196 3.147-1.296 2.006-.155-.445.446-.849 1.56-.849 2.47 0 1.044-.924 2.56-2.546 4.09-2.438 2.3-6.06 9.145-5.249 9.956.209.208.028.815-.385 1.312-.557.671-.518.927.077.926.495 0 .65.48.386 1.313-.593 1.866.254 1.758 5.788-.927 4.934-2.393 6.637-2.522 6.637-.386 0 .684.586 1.567 1.235 1.93.963.539 1.158 1.603 1.158 5.788 0 3.632-.269 5.305-.926 5.711-.512.316-.72.899-.464 1.312.334.54.81.595 1.776.078.814-.436 2.8-.586 5.016-.31 4.453.557 5.088-.295 3.087-4.167-1.005-1.945-1.218-3.358-.926-5.48.371-2.699.414-2.774 2.084-2.315.972.268 3.465.431 5.48.386 5.655-.126 6.984-3.344 2.855-6.869-.988-.843-1.721-1.852-1.62-2.238.476-1.826-1.373-6.08-2.933-6.791-.91-.414-1.621-1.018-1.621-1.312 0-.88 4.437-1.403 5.788-.695 1.5.785 5.786.206 6.483-.849 1.373-2.078.487-4.893-2.47-7.795-2.129-2.09-3.083-3.633-3.395-5.48-.468-2.769-.943-3.264-4.014-4.321-2.063-.71-3.72-2.608-2.932-3.396.256-.256.9-.174 1.389.231 1.185.984 8.587.227 9.03-.926.183-.477-.346-2.844-1.158-5.248-1.543-4.566-3.604-7.064-7.795-9.493-2.074-1.202-2.636-2.177-4.245-6.791-1.51-4.332-4.167-10.378-5.17-11.731-.097-.13-.535-.01-.927.231-.46.285-.071 1.67 1.08 3.936.98 1.929 2.606 5.885 3.628 8.799 1.526 4.349 2.24 5.53 4.09 6.637 3.832 2.29 5.926 4.732 7.332 8.49.743 1.985 1.39 3.858 1.39 4.167 0 .897-4.79 1.38-6.02.617-.772-.478-1.7-.424-3.01.078-2.934 1.121-2.183 3.328 1.775 5.402 2.769 1.451 3.273 2.062 3.627 4.245.275 1.697 1.147 3.179 2.624 4.476 1.215 1.066 2.526 2.558 2.933 3.319 1.72 3.214.071 5.615-2.779 4.09-1.624-.87-9.053-.159-9.724.926-.246.399.594 1.637 1.93 2.779 1.727 1.476 2.59 2.865 2.932 4.785.265 1.484 1.335 3.803 2.393 5.093 2.373 2.895 2.435 3.224.154 4.09-2.3.875-8.337-.45-9.493-2.083-.471-.666-1.814-1.181-3.241-1.235-2.846-.107-3.845-.567-3.242-1.543.286-.462-.35-.6-1.852-.31l-2.315.464 1.852-1.235c1.768-1.144 2.475-2.256 1.39-2.238-.279.004-1.887.824-3.55 1.775-2.671 1.526-9.494 3.082-9.494 2.16 0-2.037 2.588-6.608 4.785-8.489 1.597-1.367 2.699-2.834 2.702-3.704.002-.806.574-2.437 1.312-3.55.737-1.113 1.31-2.192 1.312-2.47.008-.965-2.14-.52-5.48 1.158-1.847.927-3.963 1.698-4.708 1.698-1.27 0-1.252-.137.386-2.084.96-1.142 1.775-2.52 1.775-3.087 0-.568.726-1.612 1.62-2.316 1.643-1.291 7.796-10.195 7.796-11.267 0-.319-.69-1.282-1.544-2.084-1.332-1.252-1.865-1.344-3.859-.772-1.277.366-2.918.695-3.627.695-1.173 0-1.173-.085-.232-1.158 1.801-2.054 3.252-5.622 2.856-6.869-.236-.743.18-1.67 1.08-2.47.802-.711 2.348-2.503 3.396-3.936 1.733-2.368 1.836-2.948 1.467-6.482-.357-3.417-.188-4.293 1.466-7.332 1.17-2.15 1.64-3.49 1.466-3.782zM50.632 86.414c1.42.008 1.564.183.772.695-1.333.861-3.542.861-3.01 0 .23-.371 1.24-.7 2.238-.695zm15.59 11.5c.371 0 .695.323.695.694 0 .371-.324.618-.695.618-.37 0-.617-.247-.617-.618 0-.37.246-.694.617-.694z" fill="#5c2700"/>
</svg>
