<?xml version="1.0" encoding="UTF-8"?>
<svg width="128" height="128" xmlns="http://www.w3.org/2000/svg" xmlns:xlink="http://www.w3.org/1999/xlink">
 <defs>
  <radialGradient id="b" cx="14.207" cy="222.04" r="8.252" gradientTransform="scale(1.3952 .71673)" gradientUnits="userSpaceOnUse">
   <stop offset="0"/>
   <stop stop-opacity="0" offset="1"/>
  </radialGradient>
  <filter id="c" x="-.109" y="-.212" width="1.218" height="1.424">
   <feGaussianBlur stdDeviation=".721"/>
  </filter>
 </defs>
 <path d="M57.147 12.955c2.035-.598 3.26 2.105 4.517 3.15 2.31 3.912 2.751 8.514 3.95 12.816 1.07 4.098 2.425 8.445 5.697 11.348 1.279 1.243 3.084 3.36 3.475 5.168-1.32 1.589-3.855.913-5.657.995-2.017.04-1.53 1.896-.816 3.018.862 1.76 1.597 3.605 2.702 5.245 1.38 2.197 2.982 4.24 4.547 6.305.587 2.25 2.076 4.826 4.258 6.034 1.194 1.951-2.766 2.493-4.121 2.232-1.85.024-3.688-.225-5.536-.257-1.462 1.57 1.284 2.655 2.142 3.69 1.54 1.516 2.026 3.713 2.293 5.777.813 3.38 2.919 6.334 5.526 8.582-.676 1.745-2.696.347-3.97.257-2.954-.103-5.894.507-8.852.3a28.322 28.322 0 01-6.406-.552c-2.414-.081-4.477 1.397-6.722 2.053-1.694.538-3.314 1.086-4.728 1.95-1.987.035-1.686-2.484-.653-3.474.871-1.347 2.12-2.146 2.25-3.829.993-2.565 3.02-4.629 3.674-7.344.802-2.065.982-4.32.83-6.503.417-1.588-1.047-3.738-2.79-2.854-2.491.762-4.675 2.961-7.446 2.463-2.012-.837-.675-3.383.35-4.525 1.298-1.906 2.505-3.914 4.242-5.46 2.26-2.862 2.22-6.947 4.805-9.608.83-1.276 2.342-2.572 1.87-4.251-1.202-1.727-2.703-1.115-5.158-1.022-1.799-.61-3.66 1.3-5.052.147-.86-1.817.362-4.165.852-5.852 1.034-2.859 1.52-6.09 4.055-7.977 1.975-1.955 3.299-4.661 3.182-7.477.364-2.365 1.45-4.575 1.6-6.98.444-1.449 1.092-1.954 1.09-3.565z" fill="#00b300" fill-rule="evenodd"/>
 <path transform="matrix(2.4697 0 0 2.4697 16.653 -290.76)" d="M28.402 158.699a7.944 4.08 0 11-15.888 0 7.944 4.08 0 1115.888 0z" fill="url(#b)" fill-rule="evenodd" filter="url(#c)" opacity=".5"/>
 <path d="M58.904 14.271c-.17.322.308 1.373 1.544 2.933 1.115 1.408 2.414 3.964 2.855 5.634.442 1.67 1.26 4.874 1.852 7.1 1.413 5.303 2.216 6.692 5.866 10.728 1.678 1.855 3 3.743 3.01 4.167.027 1.131-1.598 1.587-4.245 1.158-1.933-.314-2.34-.132-2.701 1.003-.538 1.695.143 4.659 1.235 5.325.935.572 4.326 5.667 5.788 8.644.545 1.11 2.016 3.004 3.241 4.245 1.226 1.241 2.076 2.579 1.93 3.01-.27.793-4.205 1.034-8.49.463-3.293-.439-3.376.946-.231 4.09 1.465 1.466 2.556 2.77 2.392 2.933-.472.473 2.338 6.553 4.168 8.953.916 1.201 1.698 2.294 1.698 2.47 0 .422-8.46.131-15.05-.54-4.352-.445-5.942-.367-9.261.694-2.884.921-4.013 1.621-4.013 2.47 0 1.518.09 1.543 3.859-.464 2.098-1.117 4.237-1.726 6.25-1.698 2.477.035 2.764.204 1.544.695-.823.331-1.7 1.325-1.929 2.238-.315 1.254-.096 9.264.309 11.114.03.136.786.036 1.62-.232 3.047-.976 5.748-1.11 7.1-.386.828.443 1.545.451 1.776.077.386-.624-.93-4.145-1.775-4.785-.245-.185-.484-1.879-.618-3.781l-.308-3.473 5.248-.386c2.87-.239 6.013-.234 6.946 0 1.96.492 2.272-.72.463-1.698-1.61-.87-5.294-7.292-5.866-10.187-.263-1.334-1.56-3.434-2.932-4.863-1.559-1.622-2.04-2.546-1.39-2.546.558 0 1.306.302 1.698.694.392.392 2.362.654 4.322.54 2.94-.17 3.647-.49 4.09-1.697.429-1.165.059-1.917-1.775-3.705-1.266-1.235-2.71-3.132-3.164-4.245-.847-2.078-4.819-8.134-6.406-9.724-.489-.49-.848-1.322-.848-1.852s-.062-1.13-.155-1.39c-.093-.258 1.081-.501 2.624-.54 2.828-.07 4.982-1.219 4.94-2.624-.013-.418-1.553-2.436-3.396-4.476-4.02-4.449-5.411-7.362-7.023-14.51-1.403-6.219-1.892-7.267-4.477-10.032-1.316-1.409-2.144-1.866-2.315-1.544zm-2.084.54c-.651-.651-1.536 1.528-1.93 4.63-.65 5.135-1.886 8.197-4.553 11.423-1.407 1.703-2.546 3.527-2.547 4.09 0 .564-.647 2.602-1.389 4.554-2.334 6.142-1.75 7.459 2.547 5.943 2.774-.979 6.988-.57 7.41.694.125.378-1.158 2.333-2.856 4.322-2.527 2.96-3.092 4.024-2.933 5.866.166 1.93-.334 2.765-3.396 5.865-3.245 3.286-3.514 3.862-3.319 6.251.193 2.357.419 2.555 1.93 2.393.927-.1 3.29-.932 5.248-1.852 1.958-.921 3.66-1.621 3.782-1.621.121 0 .244 1.913.308 4.245.104 3.76-.134 4.496-1.93 6.869-1.112 1.47-1.995 3.1-2.006 3.627-.01.527-.543 1.56-1.157 2.238-.97 1.072-.976 1.235-.078 1.235 1.318 0 2.282-1.263 2.856-3.55.249-.992.886-1.968 1.39-2.161 1.88-.722 3.08-4.4 2.855-8.721-.21-4.02-.266-4.19-2.084-4.4-1.04-.12-3.225.466-4.862 1.235-3.704 1.741-5.017 1.743-5.017.078 0-1.256 1.763-3.696 5.557-7.718 1.374-1.457 1.742-2.403 1.466-3.782-.295-1.479.178-2.523 2.702-5.48 2.23-2.613 3.074-4.116 2.932-5.325-.194-1.66-.263-1.69-5.71-1.62l-5.558.077.386-1.775c1.083-4.42 3.686-10.23 5.48-12.194 1.083-1.186 2.315-3.267 2.701-4.63 1.118-3.95 2.173-10.408 1.775-10.806zm6.869 80.342c.131-.031.284.228.463.694.228.595-.006 1.41-.54 1.853-1.054.874-1.184.415-.386-1.621.22-.56.332-.895.463-.926z" fill="#5c2700"/>
</svg>
