<?xml version="1.0" encoding="UTF-8"?>
<svg width="128" height="128" xmlns="http://www.w3.org/2000/svg" xmlns:xlink="http://www.w3.org/1999/xlink">
 <defs>
  <radialGradient id="b" cx="14.207" cy="222.04" r="8.252" gradientTransform="scale(1.3952 .71673)" gradientUnits="userSpaceOnUse">
   <stop offset="0"/>
   <stop stop-opacity="0" offset="1"/>
  </radialGradient>
  <filter id="c" x="-.109" y="-.212" width="1.218" height="1.424">
   <feGaussianBlur stdDeviation=".721"/>
  </filter>
 </defs>
 <path d="M68.929 38.939c.804 3.989 2.722 7.569 3.258 11.612.773 2.09 2.385 4.32 2.992 6.479 1.24 2.04 3.025 3.57 4.043 5.75 1.483 1.845 2.394 3.842 2.505 6.32.363 2.036 1.103 4.03 1.098 6.114-.47 2.476-3.516 3.952-5.786 2.934-5.056-1.259-10.314-1.73-15.51-1.288-3.81.058-8.7-1.467-12.041-3.425.14-.936-1.202-1.137.3-1.68.588-1.022.67-3.118.722-4.333.336-1.6 2.048-2.625 3.154-3.821 1.083-1.555 1.54-3.447 1.69-5.31.712-3.11.283-6.375 1.997-9.135 1.957-3.776 3.683-7.697 4.242-11.923.33-1.875 1.222-5.502 2.698-6.404 0 0 4.516 5.128 4.638 8.11z" fill="#00b300" fill-rule="evenodd"/>
 <path transform="matrix(2.4697 0 0 2.4697 17.378 -300.62)" d="M28.402 158.699a7.944 4.08 0 11-15.888 0 7.944 4.08 0 1115.888 0z" fill="url(#b)" fill-rule="evenodd" filter="url(#c)" opacity=".5"/>
 <path d="M64.038 30.302c-1.525 0-3.17 4.547-3.704 10.264-.302 3.231-.864 5.065-1.776 6.02-2.586 2.708-3.25 4.31-3.627 8.875-.356 4.326-.931 6.191-2.392 7.95-2.743 3.3-1.882 3.902-1.882 4.402 0 1.172-.275.647 1.187-1.47a229.29 229.29 0 012.624-3.704c.639-.88 1.339-3.677 1.62-6.56.415-4.226.776-5.402 2.47-7.332 1.623-1.848 2.108-3.18 2.47-6.715.421-4.107 2.16-10.65 2.856-10.65.171 0 1.195.942 2.238 2.084 1.471 1.61 1.966 2.942 2.238 5.942.193 2.128 1.09 5.423 2.007 7.255.916 1.832 1.87 4.663 2.083 6.329.31 2.406.93 3.522 3.01 5.402 2.915 2.635 5.089 6.775 6.56 12.426.937 3.597.915 3.818-.463 5.402-1.195 1.375-1.633 1.54-2.778.926-.758-.406-5.989-.846-11.577-1.003-6.701-.189-10.61-.584-11.5-1.158-.741-.478-2.465-1.053-3.858-1.312l-2.547-.463 1.698-2.547c1.74-2.56.83-3.482-.05-3.473-.995.01-2.35 5.475-1.957 6.715.249.781 1.303 1.406 2.856 1.698 1.366.256 3.38.9 4.476 1.466 1.328.687 2.902.953 4.785.695 2.69-.37 2.875-.344 2.702 1.234-.4 3.64-1.135 7.502-1.776 9.57-.371 1.199-.465 2.478-.231 2.856.601.973 1.384.906 2.392-.309 1.651-1.989 3.073-2.366 5.094-1.312 3.93 2.05 5.449.64 3.319-3.087-.53-.927-.99-3.3-1.004-5.248-.027-3.993-.068-3.968 5.48-2.778l3.55.771 2.084-2.546c1.975-2.353 2.085-2.615 1.235-4.245-.505-.968-.924-2.473-.926-3.319-.007-2.603-3.97-9.783-6.792-12.27-2.381-2.1-2.782-2.904-3.319-6.715-.331-2.357-1.008-4.715-1.543-5.326-.536-.61-1.492-3.533-2.084-6.482-1.102-5.493-2.822-8.258-5.248-8.258zm.617 56.725c.208.208-.002.777-.463 1.235-.666.66-.674.575-.308-.386.253-.665.564-1.057.771-.85z" fill="#5c2700"/>
</svg>
