<?xml version="1.0" encoding="UTF-8"?>
<svg width="128" height="128" xmlns="http://www.w3.org/2000/svg" xmlns:xlink="http://www.w3.org/1999/xlink">
 <defs>
  <radialGradient id="b" cx="14.207" cy="222.04" r="8.252" gradientTransform="scale(1.3952 .71673)" gradientUnits="userSpaceOnUse">
   <stop offset="0"/>
   <stop stop-opacity="0" offset="1"/>
  </radialGradient>
  <filter id="c" x="-.109" y="-.212" width="1.218" height="1.424">
   <feGaussianBlur stdDeviation=".721"/>
  </filter>
 </defs>
 <path d="M61.525 27.755c-.348.058-2.805.468-4.446.468-1.796 0-3.533.766-5.147 1.17-1.318.33-3.296 2.368-3.977 3.275-.985 1.313-2.08 2.314-3.275 3.51-1.102 1.1-2.426 2.191-3.276 3.04-.692.693-.677 2.946-.936 3.978-.371 1.486-1.85 3.254-2.807 4.211-1.524 1.524-2.278 2.537-3.041 4.446-.677 1.69-.936 2.982-.936 4.913 0 1.824-.09 3.29.234 4.913.369 1.844.649 3.283 1.871 4.913.983 1.31 2.566 2.332 3.744 3.51 1.024 1.023 2.07 1.268 3.275 1.871 1.301.65 1.49 1.343 2.106 2.574.708 1.416.667 2.971 1.403 4.445.6 1.197 2.342 2.515 3.51 2.807 1.524.381 3.024 1.224 4.679 1.638 2.349.587 5.273.234 7.72.234 3.195 0 6.267-1.099 9.359-1.872 1.334-.333 2.425-1.095 3.51-1.637 1.458-.73 1.75-1.629 2.339-2.808.663-1.327.773-1.763 1.75-2.74 1.06-1.06 2.945-2.317 4.567-2.641 1.799-.36 2.066-1.43 3.553-2.174 1.638-.819 3.867-3.04 5.337-4.143 1.383-1.037 2.047-2.748 3.275-3.977 1.226-1.225.936-2.99.936-4.68 0-1.472-1.637-3.105-1.993-4.527-.344-1.375-.182-2.74-1.048-3.895-1.308-1.743-2.927-3.16-4.445-4.679-1.479-1.479-3.323-1.685-4.913-3.275-1.389-1.389-2.289-3.224-3.744-4.68-2.857-2.857-6.162-4.285-9.607-6.438-1.474-.922-3.645.163-5.132-.58-1.458-.73-2.954-.275-4.445-1.17z" fill="#00b300" fill-rule="evenodd"/>
 <path transform="matrix(2.4697 0 0 2.4697 10.064 -288.61)" d="M28.402 158.699a7.944 4.08 0 11-15.888 0 7.944 4.08 0 1115.888 0z" fill="url(#b)" fill-rule="evenodd" filter="url(#c)" opacity=".5"/>
 <path d="M61.553 26.881c-3.26 0-14.046 2.866-14.046 4.708 0 .727-2.764 3.53-5.634 5.711-2.05 1.559-2.566 2.315-2.316 3.628.218 1.137-.19 2.282-1.389 3.627-2.544 2.856-5.612 8.55-6.251 11.654-.484 2.35-.224 3.407 1.93 7.95 2.35 4.958 2.63 5.27 5.788 6.405 3.452 1.241 5.6 3.449 4.939 5.17-.214.559.553 2.329 1.775 3.937 1.72 2.262 3.097 3.166 6.251 4.245 3.916 1.338 3.963 1.43 3.86 3.704-.297 6.47-1.06 8.76-3.705 11.268-2.633 2.494-3.423 4.862-1.62 4.862.537 0 1.246-.308 1.543-.772.296-.463 1.529-1.571 2.7-2.392 2.279-1.596 3.202-1.243 3.705 1.466.137.738.774 1.488 1.467 1.62 1.058.205 1.184-.094.926-1.851-.238-1.624-.024-2.084.849-2.084.618 0 1.458.678 1.852 1.543.591 1.298 1.21 1.62 3.627 1.621 1.613 0 3.827.49 4.94 1.08 3.949 2.093 3.065-.125-2.238-5.479-2.957-2.985-5.608-6.057-5.866-6.869-.258-.811-.235-2.757 0-4.322.385-2.565.76-2.967 3.627-4.399 1.75-.873 3.82-1.553 4.631-1.466 1.637.176 4.245-2.054 4.245-3.627 0-.557.323-1.004.694-1.004a.711.711 0 00.695-.694c0-1.426-2.07-.587-2.47 1.003-.391 1.561-3.37 2.997-6.174 3.01-.464.002-.849.29-.849.617 0 .832-2.56 1.423-3.01.695-.641-1.038 2.35-4.343 6.946-7.718 6.83-5.015 8.626-7.337 10.65-13.66 1.426-4.452 1.578-5.775.927-6.56-.45-.542-1.07-.815-1.39-.618-.897.555-2.46 4.383-2.932 7.178-.261 1.545-.93 2.866-1.775 3.318-.758.406-1.267.894-1.08 1.08.794.795-8.825 10.343-10.42 10.343-.248 0-.487-3.28-.54-7.255-.102-7.783-.56-8.884-3.164-7.178-1.3.853-1.463 1.245-.849 2.393.46.861.53 2.806.232 5.17-.262 2.08-.429 5.376-.386 7.333.067 3.115-.126 3.66-1.467 4.167-1.298.49-1.663.249-2.624-1.543-1.202-2.244-4.296-5.062-7.718-7.1-1.707-1.018-4.649-5.498-4.476-6.792.135-1.006-1.493-2.896-3.01-3.473-2.387-.908-2.525-.515-.849 2.47.796 1.417 1.568 3.184 1.698 3.858.41 2.131 2.912 5.077 6.946 8.181 3.798 2.922 6.174 5.674 6.174 7.178 0 .496-1.09.614-3.241.308-2.5-.355-3.615-.977-5.325-2.855-1.206-1.324-2.238-2.933-2.238-3.55 0-2.243-2.122-5.42-3.936-5.866-3.088-.76-4.6-2.146-6.56-6.02-2.445-4.83-2.343-8.178.463-13.66 1.165-2.278 2.372-4.09 2.7-4.09.33 0 .618-.375.618-.772 0-.398.447-1.142 1.003-1.698.557-.557 1.004-1.662 1.004-2.47 0-.93 1.295-2.6 3.473-4.476 1.892-1.63 3.664-3.785 4.013-4.785.779-2.234 8.564-3.538 11.73-3.627 2.49-.071 3.38-1.776.927-1.776zm4.785 1.004c-5.217-.475-4.39.655 1.003 1.389 1.873.255 4.27 1.105 5.326 1.852 1.055.748 3.49 2.117 5.402 3.087 2.79 1.415 3.473 2.12 3.473 3.473 0 2.19 1.163 3.338 4.168 4.168 2.923.807 5.204 3.163 6.945 7.1.709 1.602 1.615 2.856 2.007 2.856.878 0 .926-1.096.077-1.621-.342-.212-.774-1.273-1.003-2.315-.229-1.042-1.53-2.957-2.856-4.322-2.23-2.296-3.09-2.776-4.476-2.547-.978.161-3.017-2.27-3.473-4.168-.249-1.036-.905-2.075-1.543-2.315-.639-.24-3.346-1.8-5.943-3.396-3.865-2.374-5.519-2.914-9.107-3.241zm28.633 24.85c-.235.235-.105 1.36.309 2.548.413 1.187.771 2.839.771 3.704 0 2.061-3.836 7.168-6.405 8.49-1.113.572-2.117 1.537-2.239 2.16-.178.917.238.793 2.316-.617 2.882-1.956 4.01-3.073 6.251-6.251 1.303-1.848 1.488-2.67 1.158-5.634-.382-3.428-1.301-5.26-2.161-4.4zM84.938 70.333c-.872-.225-1.916-.265-2.47.078-.605.373-.48.71.463 1.08 1.845.722 2.851.68 3.319-.077.259-.42-.44-.855-1.312-1.08zm-2.856 1.93c-1.516-.298-3.878 1.293-3.087 2.084.615.615 1.544.531 1.544-.155 0-.328.708-.804 1.543-1.08l1.467-.54-1.467-.31z" fill="#5c2700"/>
</svg>
