<?xml version="1.0" encoding="UTF-8"?>
<svg width="128" height="128" xmlns="http://www.w3.org/2000/svg" xmlns:xlink="http://www.w3.org/1999/xlink">
 <defs>
  <radialGradient id="b" cx="14.207" cy="222.04" r="8.252" gradientTransform="scale(1.3952 .71673)" gradientUnits="userSpaceOnUse">
   <stop offset="0"/>
   <stop stop-opacity="0" offset="1"/>
  </radialGradient>
  <filter id="c" x="-.109" y="-.212" width="1.218" height="1.424">
   <feGaussianBlur stdDeviation=".721"/>
  </filter>
 </defs>
 <path d="M61.274 50.559c.743.09 3.436-.722 4.68.936.986 1.315 2.538 1.863 4.445 2.34 1.516.378 1.881-.466 2.807-.235 2.064.516 2.395 2.106 5.147 2.106 1.554 0 1.44.737 2.574 1.872 1.333 1.333 2.898.9 3.977 2.34 1.332 1.775 1.651.647 2.106-1.17.19-.762-2.26-2.545-2.808-3.276-1.37-1.827-3.46-3.449-4.61-5.751-1.047-2.092-2.695-3.69-4.529-5.065-.77-.577-4.128.288-4.898.288-1.878 0-3.714.285-5.381.702-2.677.67-3.754 2.35-5.381 3.977-1.215 1.214-.257 2.048-.234 2.106.468 1.171 2.053-.907 2.105-1.17zM54.022 49.623c-.542.962-1.999 1.872-3.744 1.872-1.118 0-1.977 1.509-2.807 2.34-1.08 1.08-1.653 2.12-2.808 3.275-1.097 1.097-3.43.896-4.913 1.637-1.24.621-1.955 2.608-2.807 3.744-1.597 2.128-2.814.086-3.978 1.638-1.221 1.628-1.226 2.616-3.041 3.977-1.308.98-1.33 2.881-2.574 1.637-.432-.431.947-3.763 1.17-4.21.589-1.177.864-2.52 1.17-3.744.239-.955.687-2.048.936-3.042.347-1.386 1.094-2.27 1.404-3.509.392-1.57.569-2.744.935-4.211.45-1.798 1.68-2.973 2.106-4.68.299-1.194 2.229-2.49 3.275-3.275 1.333-1 2.41-1.673 3.744-2.34 1.196-.597 3.257-.701 4.679-.701 4.228 0 3.921-.992 6.317 1.404 1.054 1.054 2.652 2.742 2.929 4.128.218 1.091-1.782 3.003-1.993 4.06z" fill="#00b300" fill-rule="evenodd"/>
 <path transform="matrix(2.4697 0 0 2.4697 10.516 -307.45)" d="M28.402 158.699a7.944 4.08 0 11-15.888 0 7.944 4.08 0 1115.888 0z" fill="url(#b)" fill-rule="evenodd" filter="url(#c)" opacity=".5"/>
 <path d="M47.468 38.231c-1.924.077-3.886.42-5.017 1.004-5.228 2.703-10.97 10.523-9.878 13.428.172.458-.461 2.266-1.39 4.09-.927 1.826-1.697 3.845-1.697 4.477 0 .632-.624 2.59-1.39 4.322-1.454 3.288-1.504 5.807-.154 6.251.436.144 2.084-1.383 3.627-3.473 1.563-2.114 3.157-3.73 3.628-3.55 1.102.423 1.705.009 4.013-3.087 1.637-2.196 2.186-2.511 3.782-2.16 1.669.366 2.038.024 3.936-2.933 3.042-4.74 4.35-5.69 6.714-5.171 1.926.423 2.028.539 2.547 5.942.757 7.889.573 9.672-1.003 11.886-1.108 1.556-1.366 2.898-1.312 6.56.106 7.32.4 7.904 4.322 8.335 6.386.701 7.698.312 6.56-2.161-.384-.834-.973-2.957-1.39-4.708-.69-2.902-.611-3.514.927-6.406 1.67-3.142 1.678-3.165.386-4.553-1.174-1.26-2.779-8.899-2.779-13.275 0-1.852 2.99-1.664 6.329.386 1.99 1.223 2.886 1.477 3.55.926.669-.555 1.273-.34 2.238.772.977 1.127 1.842 1.391 3.782 1.235 2.23-.18 2.574-.013 2.932 1.466.296 1.218.956 1.772 2.316 1.93 1.411.164 2.132.815 2.855 2.547 1.767 4.228 3.442 2.618 2.238-2.161-.596-2.37-1.947-4.367-5.093-7.795-2.328-2.536-4.412-5.142-4.63-5.789-.767-2.26-3.694-3.785-7.256-3.704-2.59.059-4.263.623-7.254 2.47-4.457 2.75-5.403 2.96-5.403 1.08 0-1.457-4.052-6.386-6.251-7.563-.937-.502-2.861-.695-4.785-.618zm-1.62 2.007c3.805-.602 5.888.155 8.643 3.164 1.561 1.705 1.518 1.79.154 1.08-1.805-.938-7.137-1.044-10.341-.154-1.427.397-3.81 2.161-6.02 4.4-2.022 2.046-3.84 3.704-4.09 3.704-.252 0-.222-1.22.154-2.701.624-2.46 2.136-4.133 7.255-8.258.516-.416 2.395-.943 4.244-1.235zm25.005 4.785c2.403 0 6.56 1.765 6.56 2.778 0 .24.752 1.54 1.698 2.933.945 1.394 1.654 2.67 1.543 2.778-.11.11-1.244.375-2.547.618-2.048.382-2.634.15-3.936-1.467-1.451-1.803-1.484-1.782-2.392-.54-.907 1.24-1.032 1.218-3.473-.926-2.558-2.246-3.641-2.449-7.41-1.08-1.074.39-1.034.24.31-.85 3.103-2.514 7.019-4.244 9.647-4.244zm-21.841.695c3.786 0 4.103.135 4.09 1.543-.01 1.044-.663 1.774-2.161 2.47-1.198.556-3.132 2.447-4.245 4.167-1.75 2.705-2.29 3.07-3.859 2.779-1.553-.29-2.058.115-3.936 2.778-2.26 3.208-3.318 3.845-3.318 2.084 0-.557-.262-.942-.54-.926-.279.016-1.797 2.065-3.396 4.553-3.298 5.13-3.446 3.97-.618-4.167 1.295-3.727 2.408-5.364 5.943-8.953 5.42-5.503 6.933-6.328 12.04-6.328zm8.566 6.56c.187.463.187 1.234 0 1.698-.187.463-.308.078-.308-.85 0-.927.121-1.312.308-.848zm24.08 1.775c.244.067.758.397 1.62 1.08 1.167.924 2.14 1.96 2.161 2.238.02.279-.693.463-1.62.463-1.007 0-1.698-.355-1.698-.926 0-.526-.204-1.562-.463-2.238-.192-.5-.245-.684 0-.617zM60.279 70.49c.188.464.188 1.235 0 1.698-.187.464-.308.079-.308-.849 0-.927.121-1.312.308-.849z" fill="#5c2700"/>
</svg>
