<?xml version="1.0" encoding="UTF-8"?>
<svg width="128" height="128" version="1.0" xmlns="http://www.w3.org/2000/svg" xmlns:xlink="http://www.w3.org/1999/xlink">
 <path d="M84.531 14.563L61.47 24.687 52.062 21.5l-17.03 15.656-.032.032L6.625 50.5l.156 7.156 2.782 2.157v1.906c.748.243 1.703.66 2.812.968-1.046 6.555-.157 13.017.031 19.907l-2.875 2.531v.125l-7.75 3.625.032 2.781 36.53 27.594 26.782-12.531 11.969 9.125 33.469-16.031-.032-2.376-7.75-5.75L100.062 90l26.282-12.594-.094-2.625-12.344-7.375c.303-7.541.32-12.939-.031-18.937.88-.279 1.828-.688 2.813-1.313v-1.25l1.28-.593-.03-7.126L84.53 14.564zm.188.374L116.78 37.75l-5.187-.375-3.906-4.531-4.157 1.125-3.844-3.875-.062.187 3.25 3.5c-1.253.11-2.339.466-3.625.594L95 32.406v.063l3.875 2-2.594 2.187.125.125 2.844-2.187c1.353-.065 2.732-.23 4.094-.344v.031l4.094-1 3.718 4.157-6.062-.188.031-.031-1.5-1.188 1.219 1.407-1.719 2.718h-.063l-7.53.469.124.125 7.031-.344-1.968 2.157-3.875.468.187.188 3.875-.5 2.406-2.469 1.876-2.625 6.468.25 4.938.469-24.469 11.281-30.469-24.719 22.532-9.937-2.376 3.187h-3.03l-3.907 3.657L72.656 21h-.062l2.437 1.125 3.781-3.531.657-.032.344 3.094-2.938 1.032.125.187 2.938-.906 1.656 2.812h.125l-1.625-3.125-.25-3.125 2.312-.093.781-1.094 1.72 2.812 5.343.875.156.844-1.312 4.688 2.937 1.375.063-.063-2.563-1.469 1.031-3.843.563 2.843 6.344 1.063.062-.063L91 25.156l-.875-4.312-5.156-.75-1.688-3.188 1.438-1.968zm-32.375 7.188l17.906 15-.844 2.625-2.355.479-2.114 1.927L61 40.313l-2.594 2.437h.188l2.468-2.063 3.344 1.97-1.187 1.562v.093l-3.407.47.126.062 3.28-.188-.062 3.157.063-.063.437-3.094 1.313-1.875 2.262-2.261.394 3.542.077-.105-.02-3.466 2.13-.272 1.532-2.094 16.812 14-2.469-.594-2.093-2.156v.063l1.812 2.28-.75 1.22h.063l.906-1 2.406.906-11.5 17.187.219-3.594 2.344-5.187-.844-3.031 2.438-.344 3.406-3.281h-.063l-3.312 2.875-2.469.312 4.594-6.5-5.031 6.344.062-.188-.875-2.5 1.563-3.624-2.84-.935 2.433 1.122-1.531 3.375 1 3-.031.031 1.156 3.25-2.375 4.969-1.688-1.281 1.438-4.375h-.063l-1.687 3.906-3.344-4.188 1.141-2.614.953-1.51-.125-.188-.813 1.313-1.5-3.376-.062-.062 1.219 3.75-1.25 2.469-3.75-1.907-.719-3.906-.125.063.62 3.824-3.433 1.332 3.274-1.118 4.183 2.077 3.645 4.395 2.023 1.959-.437 4.187-40-33.281L38 38.03l1.781-1.593 7.938 3.656.812 4.437.063.125L48 40.125l2.688.125.062-.125-3.188-.469-7.406-3.562.594-.532 3.656-2.53 4.375 2.937 2.438-.782-.063-.062-2.187.5-4.782-2.813-3.687 2.5-2.688 2.282-2.406-.375L51.594 22.53l-.532 1.813 4 2.062L54 33.22h.125L55 28.562l1.688.594.124-.25-1.75-.75.376-2-3.75-1.937.656-2.094zm1.437.281l7.5 2.532 40.594 33.187-13.031-5.781.75-1.063 2.187 1.032h.125l-2.094-1.376.063-.062-1.563-1.344.438-2.062h-.125l-.594 1.687L85.781 48l-.75-1.906-.062.125.375 2.062 2.531 1.344L89.219 51l-.844 1L72 38.25l2.75.531L77 42.094l.125-.063-1.781-3.062 1.344-.219v-.063l-1.594-.156L70.53 37 53.875 23l4 2.813 1.375-.188 4.625 3.281.063-.062-4.25-3.282 1.343-.156 1.469.844.063-.063-1.438-1.125-2.938.313-4.406-2.969zm-5.468 10.438l-3.813.062.438.313 3.437-.25-.063-.125zm-13.407 4.718l-.667 2.87-1.864 1.63.25.063 1.938-1.531 3.156 1.625.656 3.406.125-.188-.469-3.093 1.719 1.468.063-.062L38 42.062l-.031-.218-3.407-1.594.782-2.625 30.062 25L39.97 74.813l.906-4.5 3.438.03-.157-3.718 5.532-1.406-.063-.063-5.25 1.094.5-4.844h-.063l-.406 2.375-3.031-1.093 2.938 1.687-.344 1.969.093 3.562-3.624-.156.03.063-4.75-1.157-2.218-3.094-.219-2.5-.156 2.344-5.063-1.781-.187.063 5.438 2.25 2.124 2.937 5 1.438-.906 4.656-31.75-24.063 6.25-.406 9.094-4.813 3.133 4.295 2.96 1.924.313 3.594h.125l-.187-3.75-3.063-1.781 7.25.718 3.719 3.126.063-.063-3.813-3.313-7.188-.656-2.843-4.218 7.375 1.25v-.063l-7.563-1.594L14 50.188l-6.531.374 27.437-13zm82.656.75l.094 6.657-19.687 9.468L97 53.72l19.188-9.313L116 40.72 93.625 50.875l-1.156-1.156 25.094-11.407zm-2.25 2.97l-.906 2.093-1.781-.625-1.906 1.5-3.25.969-.031.093 2.906-.53-.781.937.124.031 1.188-1.063 1.781-1.437 1.969.344 1.125-2.063.125 2.625-7 3.438h-.031l-2.281-.282-2.5-.406-.22.032 2.032.75-2.938 1.874-2.718-.937-.063.031 2.469 1.032-3.063.937.094.031 3.281-.843.126.062 3.593-2.156 1.219.343-11.063 5.407-2.874-2.438 21.374-9.75zm1 4.812v.843c-1.578 1.238-3.394 1.664-5.312 1.688l5.313-2.531zm-2.687 2.468c.635 9.766.088 15.191-.063 20.032-1.08 1.09-3.97 1.51-4.874.031-.352-6.635-1.002-12.825-.126-18.844l1.907-.906c.514.03 1.05.033 1.625-.031a9.068 9.068 0 001.531-.282zm-5.438 1.407c-.552 4.646-.228 9.254.032 14.031l-2.969-1.781c.144-3.7.236-6.966.219-9.969.655-.257 1.328-.554 2.031-1v-.969l.688-.312zm-1.062.5v.562c-1.384 1.085-2.965 1.51-4.625 1.625l4.625-2.187zM7.312 51l32 24.281-.218 5.938-1.282-5.344-5.968-1.469-1.657-4.625 1.125 4.094-5.25-3.531.532-2.875-.157.031.157-.063-1.094-1.75.563 1.876-1.813.312 1.969-.094-.469 2.719 5.719 3.875.062.281 5.907 1.531 1.437 5.626L7 57.343l.031-6 1.532 3.407 2.218 1.125 5.688 8.188h.125l-2.282-3.5 3.813.937h.125l-4.188-1.281-3.03-4.657-2.157-.937L7.312 51zm97.938 1.344c.015 3.912-.155 6.871-.281 9.593a155.61 155.61 0 00-.281-9.374c.18-.057.376-.15.562-.22zm-16.656.281l14.281 6.156L76.469 70.72l12.125-18.094zm15.844.031c.634 9.765.088 15.19-.063 20.032-.917.925-3.14 1.356-4.344.562-.043-1.2-.084-2.392-.156-3.625.88-.278 1.828-.688 2.813-1.313v-1.874l1.406-.657-.594-7-4.344-3.375c.046-.407.099-.813.156-1.218l2.563-1.22c.333.006.671.01 1.031-.03a9.068 9.068 0 001.531-.282zm-15.376 1.688L79.72 67.53l-.625.844.906-.406 20.438-9.125-11-4.344-.376-.156zm9.876 0c-.03.28-.039.563-.063.843l-.25-.218V54.5l.313-.156zm-9.532.406l9.875 4.125-17.719 8 1.22-.844 2.562-1.281-.063-.063-2.388.997.388-1.746-.156-.063-.594 1.781-1.687 1.125 8-11.625-.156 1.688 1.687.718-1.156 2.094-3.281 1.532.156.062 2.594-1.063-.5 1.063.093.25-1.687 1 .187.094 1.625-.782.313.876h1.312l-.094-.157-.968-.281-.406-.969.593-1.281.188-.094 1.333-2.085.417 1.335-.219 1.094.188.031.468-1 1.438-.031.406 1.031.188-.031-.396-1.057 2.114.057-.062-.031-1.969-.313-1.75.219-.594-1.5-2.002-.85.502-2.025zm13.781 4.313l.657 6.562L76.438 78.25l-.188-7.063 26.938-12.124zm-93.343.968c.016.011.045.02.062.032l3.281 2.53a11.388 11.388 0 01-3.343-1.218v-1.344zm91.437 1.282L77.5 71.936l.156 3.876 23.906-10.47-.28-4.03zm-.156.593l.188 3.063L78.25 75.313l1.469-1.844 1.562.219 2.781-2.063 2.844-.469.031-.062-2.374.219.687-1.532h-.094l-1.062 1.594-2.781 1.969-1.376-.281-.874-1.188-.126.094.438 1.094-1.5 2.124-.188-3.093L100.281 62 99 62.969l-.094.406-3.375 1.406-.094.344L98.75 64l-.469 1.844-1.5-.219-2.812 1.906-1.594-1.094-1.625.157.063.219 1.374-.032 1.313.969-1.25.531-2.344-.219.031.063 2.313.594 1.969-.875L96.938 66l1.624.094.313-1.063 1.719-.031-.031-.281L99 64.53l.375-1.219 1.75-1.406zm4.125.625l2.969 1.844c.028.535.037 1.085.062 1.625l-2.844-1.719-.25-.187c.025-.568.041-1.02.063-1.563zm-39.719.157l9.813 8.187-1.719 1.406-2.313-3.562-.187.031c-.42-.747-2.336-1.716-3.313-2.375.582.878 1.621 1.615 3 2.438l-3.656.687.188.313L71.219 69l1.906 3.094L71.656 72l1.75.625v-.094l2.313-1.344.062.063.188 6.719-10.594-8.125.156-7.156zm-52.812.093c.297.074.616.142.937.188l2.281 1.75.032 2.125c.519.169 1.175.414 1.875.656.215 6.838-.158 11.277-.282 15.25-1.08 1.09-3.97 1.51-4.875.031-.374-7.058-1.12-13.62.032-20zm52.343.344l.032 6.75L39.53 82.094l.063-6.656 25.468-12.313zm39.907 1.25H105l1.125.688 1.625 1.062a10.299 10.299 0 01-2.906 1.406c.03-1.08.08-2.087.094-3.094.017-.013.016-.045.03-.062zm-41.375.594L41.03 75.875l-.125 3.469.313-.063.343.281.094.25L63.813 68.97l-.22-4zm-47.344.187c.194.135.428.254.719.375.019.008.043.024.062.031l2.938 2.25A11.528 11.528 0 0116.25 66.5v-1.344zm47.125.25l.125 2.938-1.25-.313-.656-1.562-.094-.031.438 1.5-2.126-.532-1.687 2.563.031.062L60 67.937l2.5.75-1 .688 1.25-.5.281.094-9.281 4.594-.063-.47 1.594-1.312-1.562 1.063-.344-1.531V72L52 72.219l1.438.094-.094 1.406-11.657 5.75.532-2.406 1.718.124.563-1.062 1.563.469 1.593-2.25 2.407.594.03-.032-2.218-.719 1.375-1.03h-.125l-1.469.937-.156-.031-1.438 2.28-1.406-.5.782-1.437-.094-.062-1.532 2.531-1.968-.188-.657 2.188-.03-2.781 22.218-10.688zm44.563.719l.374.219c.031.697.075 1.388.094 2.094l-.375.312-2.5 2.219v2.094c2.156 1.564 6.337 2.776 11.156.25l-.03-1.97 2.656 1.532-19.188 8.781c.016-.995.032-2.024.031-2.969 2.077.356 4.604.155 7.344-1.28l-.063-2.657-2.75-2.031c.044-1.002.061-1.852.094-2.781a12.695 12.695 0 003.25-1.188l-.094-2.625zm-.188.219l.094 2.25a9.429 9.429 0 01-3.063 1.156c.023-.655.045-1.345.063-1.969 1.17-.319 2.197-.812 2.906-1.437zm-5.438.531v1.219c-1.78 1.396-3.874 1.77-6.062 1.687-.196-.018-.395-.06-.594-.094l4-1.843c.923-.202 1.825-.493 2.656-.969zm-84.218.719c.232.077.439.15.687.219-.701 4.393-.526 8.75-.281 13.218l-.563.25c.21-5.294.27-9.555.157-13.687zm95.812.25l11.438 6.687L100 86.687c.022-.62.045-1.281.063-1.874l20.03-9.532-.187-2.281-3.281-1.969v-.375l-2.75-2.031.031-.781zm-94.781.062c.37.092.778.144 1.188.188l2.03 1.562v1.688c.513.166 1.156.417 1.845.656.263 7.218-.092 11.776-.22 15.875-1.079 1.09-3.97 1.51-4.874.031-.374-7.058-1.12-13.62.031-20zm89.406.906c1.428 1.783 3.893 1.102 5.188.063l2.719 1.781c-3.705 2.57-7.29 2.155-10.47.375l2.563-2.219zm-8.906.907c.635 9.765.088 15.19-.063 20.031-1.08 1.09-3.97 1.51-4.874.031-.367-6.92-1.089-13.363-.032-19.625l.594-.281a9.35 9.35 0 002.844.125 9.068 9.068 0 001.531-.281zm-77 .156l2.969 2.281c-.97-.229-1.972-.605-2.969-1.156v-1.125zm42.656.406l.781.594.032 1.875c.749.243 1.703.66 2.812.969-1.046 6.555-.157 13.016.031 19.906l-2.874 2.531v2.094c1.626 1.18 4.408 2.117 7.75 1.438l-1.407 1.25v2.093c2.156 1.565 6.337 2.745 11.156.219l-.062-2.656-2.75-2c.357-8.24.37-13.82 0-20.156.88-.279 1.828-.689 2.813-1.313v-1.813l4-1.843c.04 1.892.142 3.792.25 5.719l-.344.28v2.094c.138.1.314.185.469.282.049.987.097 1.965.124 2.969l-2.874 2.53v2.094c1.626 1.181 4.408 2.117 7.75 1.438l-1.407 1.25v2.094c2.156 1.564 6.337 2.745 11.156.219l.094-2.47 2.156 1.72-28.5 13.218-10.874-8.656-26.282 12.625L8.25 86.562l1.281-.593v1.25c1.724 1.25 4.767 2.246 8.375 1.312l-1.968 1.719v2.094c1.559 1.131 4.185 2.052 7.343 1.531l-.968.875v2.094c1.63 1.183 4.429 2.156 7.78 1.469l-1.468 1.28v2.094c1.8 1.307 5.05 2.349 8.875 1.188l-2.125 1.875v2.094c2.155 1.564 6.337 2.776 11.156.25l-.062-2.656-2.75-2.032c.357-8.239.37-13.82 0-20.156.88-.278 1.828-.688 2.812-1.313v-1.75l.5-.25c-.807 6.205-.022 12.346.157 18.876l-2.876 2.53v2.094c2.156 1.565 6.368 2.745 11.188.22L55.406 100l-2.75-2c.357-8.239.371-13.82 0-20.156.88-.279 1.829-.688 2.813-1.313l.031-1.594.469-.25c-.842 6.258-.055 12.447.125 19.032l-2.875 2.531v2.094c2.155 1.564 6.336 2.776 11.156.25l-.063-2.656-2.75-2.032c.357-8.239.371-13.82 0-20.156.88-.278 1.829-.688 2.813-1.313V70.72l.906-.438zm29 .063c-.352 2.524-.418 5.028-.375 7.562-.054.014-.103.052-.156.063.049-2.617.022-5.022-.031-7.375l.562-.25zm-.781.344c.149 6.26-.164 10.51-.281 14.28-1.08 1.09-3.971 1.51-4.875.032-.213-4.02-.559-7.869-.594-11.625l5.75-2.688zm-29.531.124L64 72.22c-1.78 1.396-3.875 1.77-6.063 1.687-.072-.006-.146-.022-.218-.031 2.033-1.1 4.161-2.102 6.25-3.063zm52.468.063l.094 2.281c-3.246 1.96-8.5 1.71-10.719-.156l.032-1.781c3.394 2.441 8.434 1.56 10.594-.344zm-50.062.25l3.313 2.531c-1.08-.22-2.195-.632-3.313-1.25v-1.281zm-41.938.969c.242.08.46.147.72.219a41.934 41.934 0 00-.5 5.812l-.126.063c.006-2.101-.031-4.116-.093-6.094zm1.063.312c.167.042.353.065.531.094l2.625 2v1.688c.542.176 1.23.436 1.969.687.235 6.998-.156 11.473-.281 15.5-1.08 1.09-3.971 1.51-4.875.031-.374-7.058-1.12-13.62.031-20zm79.031.563l2.719 1.781c-2.452 1.7-4.86 2.07-7.125 1.625-.015-.937-.031-1.886-.063-2.813 1.434.9 3.376.284 4.47-.593zm15.063.031l.094 2.188-19.594 9.312c.017-.642.02-1.916.031-2.531L119.594 73zm-50.344.813c.266.065.555.115.844.156l2.344 1.781v1.781c.534.174 1.212.409 1.937.656.242 7.056-.155 11.548-.281 15.594-1.08 1.09-3.971 1.51-4.875.031-.374-7.057-1.12-13.62.031-20zm-7.938.03c.635 9.766.089 15.191-.062 20.032-1.08 1.09-3.971 1.51-4.875.031-.362-6.828-1.06-13.19-.063-19.375l1-.469c.76.117 1.569.163 2.47.063a9.068 9.068 0 001.53-.281zm-32.374.876L31.905 77a11.941 11.941 0 01-2.968-1.156v-1.125zm96.843 0l.281 2.562-26.25 12.563c.03-.676.289-2.139.313-2.781l25.656-12.344zm-18.531.25l.063 2.281c-2.023 1.221-4.799 1.567-7.157 1.219-.001-.596-.023-1.166-.031-1.75 2.749.418 5.633-.435 7.125-1.75zm-52.156.156v1.188c-1.781 1.395-3.875 1.77-6.063 1.687l6.063-2.875zm28.093.563v1.218c-1.78 1.396-3.874 1.77-6.062 1.688-.155-.015-.312-.04-.469-.063l4.063-1.906c.852-.203 1.7-.498 2.469-.938zm-10.468.25l3.219 2.468a11.79 11.79 0 01-3.22-1.219v-1.25zm-41.844 1.03c.202.066.38.129.594.188-.833 5.218-.447 10.388-.157 15.75l-.656-.5c.267-6.165.353-10.819.219-15.437zm.938.282c.158.039.332.064.5.094l3.093 2.375v1.625c.437.142.965.358 1.532.562.22 6.882-.157 11.325-.282 15.313-1.08 1.09-3.97 1.51-4.875.031-.374-7.058-1.12-13.62.032-20zm20.593.688c.635 9.765.089 15.19-.062 20.03-1.08 1.09-3.971 1.51-4.875.032-.36-6.77-1.054-13.084-.094-19.219l1.25-.594c.7.09 1.435.122 2.25.032a9.068 9.068 0 001.531-.281zm41.5.312c.019.87.054 1.748.094 2.625-.105.017-.207.046-.313.063.03-.928.046-1.787.063-2.657.051-.014.105-.016.156-.031zm-19.312.031c.222.073.42.153.656.219-.837 5.246-.447 10.419-.156 15.813l-.688-.5c.268-6.193.325-10.893.188-15.532zm5.906.25c.635 9.765.088 15.19-.063 20.031-1.08 1.09-3.97 1.51-4.874.032-.375-7.058-1.12-13.62.03-20a9.524 9.524 0 003.376.219 9.068 9.068 0 001.531-.282zM24.656 79c-.015 3.119.206 6.26.375 9.469l-.75-.563c.144-3.318.231-6.194.25-8.875l.125-.031zm21.532.281l-.032 1.438c-1.78 1.396-3.874 1.77-6.062 1.687-.091-.008-.187-.016-.282-.031 2.048-1.12 4.259-2.149 6.376-3.094zm41.593.438c.024.017.04.046.063.062.034.618.062 1.252.094 1.875-.066-.048-.127-.105-.188-.156l.031-1.781zm-52.094.219l2.844 2.187c-.441-.107-.891-.23-1.343-.406a12.528 12.528 0 01-1.5-.719v-1.063zm58.344 1.156c.03.614.06 1.225.094 1.844-.177.016-.355.018-.531.03a317 317 0 00.062-1.812c.125-.018.25-.043.375-.062zm-75.5.75c.028.489.067.976.094 1.469l-.75-.532.031-.687.625-.25zm18.657.125c.337.118.656.24 1.03.344-.83 5.207-.445 10.367-.156 15.718l-1.093-.781c.264-6.096.346-10.714.218-15.281zm6.28.375c.636 9.765.09 15.19-.062 20.031-1.08 1.09-3.97 1.51-4.875.031-.374-7.058-1.12-13.62.032-20 .14.035.292.065.437.094l.219.156.187-.094c.778.122 1.61.165 2.532.063a9.068 9.068 0 001.53-.281zm-30.937.625c1.428 1.782 3.893 1.102 5.188.062l.906.594c.038.703.063 1.415.094 2.125-3.092 1.419-6.065.94-8.75-.563l2.562-2.218zm81.594.219c.023.424.048.853.063 1.28l-.657.282c.02-.513.043-.996.063-1.5.176-.012.35-.044.531-.063zm.094 1.937c.005.125-.007.25 0 .375l-.313-.219.313-.156zm-6.031.063c1.427 1.782 3.892 1.101 5.187.062l.875.563c.038.72.064 1.459.094 2.187-3.089 1.415-6.036.908-8.719-.594l2.563-2.219zm-78.344.187c2.68 1.928 6.401 1.77 8.906.688.023.554.047 1.096.063 1.656l-.563.5c-3.05.833-6.687.408-8.438-1.063l.032-1.781zm-1.969 1.313l31.5 24.687-.094 2.313L7.813 89.061l.062-2.374zm-.688.187l.094 2.219 31.938 25.031L65.28 101.5l11.031 8.656 29.782-14.094-.125-1.75 3.687 2.782-32.562 16.156-11.875-9.5-26.938 12.844-35.906-27.5 4.813-2.219zm78.313.719c2.671 1.921 6.34 1.76 8.844.687.017.438.05.872.062 1.313l-1.187 1.062c-2.893.597-6.128.083-7.75-1.281l.031-1.781zm-66.563.5c1.428 1.782 3.893 1.102 5.188.062l.906.625c.036.695.066 1.391.094 2.094-3.101 1.435-6.057.945-8.75-.563l2.563-2.218zM2.282 89.53L38.156 117l.25 1.75L2.438 91.781l-.157-2.25zm92.25.438c1.428 1.782 3.893 1.102 5.188.062l2.719 1.781c-3.705 2.57-7.29 2.155-10.47.376l2.563-2.22zM16.25 90.5c2.69 1.935 6.402 1.781 8.906.688.013.346.022.682.032 1.03l-1.563 1.376c-2.805.497-5.845 0-7.406-1.313l.031-1.781zm86.188 1.531l.093 2.25c-3.246 1.96-8.5 1.74-10.719-.125l.032-1.781c3.394 2.441 8.434 1.56 10.594-.344zm-77.126.563c1.428 1.782 3.893 1.102 5.188.062l.844.531c.04.756.062 1.518.093 2.282-3.065 1.375-6.023.834-8.687-.656l2.563-2.22zm79.876 1.219l.468.624.156 1.532L76.5 109.625l-.156-2.219 28.844-13.594zM69.061 94c1.428 1.782 3.893 1.102 5.188.063l.875.562c.038.72.064 1.46.094 2.188-3.089 1.414-6.036.907-8.719-.594L69.063 94zm-12.843.094c1.427 1.782 3.893 1.102 5.187.062l2.719 1.781c-3.705 2.57-7.289 2.155-10.469.376l2.563-2.22zM22.625 95c2.662 1.915 6.31 1.781 8.813.719.017.45.05.889.062 1.344L30.437 98c-2.918.632-6.202.16-7.843-1.219L22.625 95zm41.5 1.156l.063 2.281c-3.247 1.96-8.469 1.71-10.688-.156l.031-1.781c3.395 2.441 8.434 1.56 10.594-.344zm2.25.25c2.671 1.922 6.34 1.76 8.844.688.017.438.05.871.062 1.312l-1.187 1.063c-2.893.596-6.128.082-7.75-1.281l.031-1.782zm43.594 1l.375 2.125-32.875 15.875v-1.969l32.5-16.03zm-78.344.031c1.428 1.783 3.893 1.102 5.188.063l1.28.844c.032.59.037 1.186.063 1.781-3.211 1.616-6.312 1.088-9.093-.469l2.562-2.219zm15.688.75c1.427 1.783 3.892 1.102 5.187.063l2.719 1.781c-3.705 2.57-7.29 2.155-10.469.375l2.563-2.219zm28.093.594c1.428 1.782 3.893 1.102 5.188.063l2.719 1.781c-3.705 2.57-7.29 2.154-10.47.375l2.563-2.219zm-10.281.063l.094 2.281L39.406 113.5l.157-2.25 25.562-12.406zm.563.125l10.218 8 .094 2.25-10.469-7.938.156-2.312zm-36.75.875c2.797 2.012 6.719 1.776 9.218.562.026.607.077 1.2.094 1.813l-.375.312c-3.15 1.05-7.113.654-8.969-.906l.032-1.781zm26.28.406l.094 2.25c-3.246 1.96-8.499 1.74-10.718-.125l.031-1.781c3.394 2.441 8.434 1.56 10.594-.344zm28.094.594l.094 2.25c-3.246 1.96-8.5 1.74-10.719-.125l.032-1.781c3.394 2.44 8.434 1.56 10.594-.344zm-44.937 1.75c1.428 1.782 3.893 1.102 5.188.062l2.718 1.781c-3.704 2.57-7.289 2.155-10.468.376l2.562-2.22zM65 104.125l.094 2.125-26.5 12.438v-1.75L65 104.124zm.344.438l11.5 9.156.156 1.625-11.5-8.594-.156-2.188zm-19.063.093l.094 2.281c-3.247 1.96-8.5 1.71-10.719-.156l.032-1.781c3.394 2.441 8.433 1.56 10.593-.344z" fill="#5c2700" fill-rule="evenodd"/>
</svg>
