<svg xmlns="http://www.w3.org/2000/svg" width="128" height="128" version="1.0"><metadata/><path d="M66.188 20.938l-30.063 13.25-1.188 2.062 1.938 2.281 1.563.782.093.093-3.687 57.282c.18.599 1.25 1.069 2.812.156l.032-.5.78-15.5L56.157 98.75l-.593 15.625c.892.152 1.55.715 3.062-.219l.344-15.281 11.312-4.781 1.156 17.719c.747.46 1.403.222 2.032-.376l-.125-1.75 8.562-3 .219 1.907c.609.2 1.351.666 2.031-.625l-2.062-18.875 6.937-2.938.969 17.969c1.004.823 1.847.206 2.688-.438L88.811 43.97l3.22-1.344-.157-1.469-3.969-4.437-4.531-2.282.5-1-3.813-1.53.188-.907-2.906-2.531-1.313.062-1.844-2.437-1.156-.032-4.219-2.843.282-1.344-2.906-.938zm-.063.343l2.656.688-.375 1.093-30.219 14.313-1.156-2.688 29.094-13.406zm2.281 2.313l4.156 2.625L41.844 40.28l-2.407-2.125-.624-.593 29.593-13.97zm5.094 2.875l1.969 2.093-29.844 14.813-1.969-3.188L73.5 26.47zm3.313 2.312l3.093 2.313-.406.75-30.156 14.093-3.657-1.906 30-15.093 1.126-.157zm2.718 3.688L83.5 33.53l-.719 1.032-31.625 14.312-1.281-2.438L79.531 32.47zm-43.25 2.218l1.5 3.032.094.062v.907c-.263-.055-.53-.105-.781-.313l-1.625-2.219.812-1.468zm47.063.344l3.812 1.719-32.062 14.813-2.157-2.782 30.407-13.75zm4.375 2.282l3.062 3.437-13.312 5.5-.094-.813c-.387-.19-.72-.319-1.031-.187-.172.027-.356.184-.563.688l.094.968-6.719 2.75L69 47.72c-.828-.153-1.123-.137-1.719.875l.125 1.781-9.156 3.781-3.344.594.907-2.844c2.258-1.036 31.39-14.362 31.906-14.593zm-49.563.593l.719.375 2.594 2.25-.125.782c-1.009-.859-1.772-1.484-2.813-2.344a.988.988 0 00-.281-.157l-.094-.906zm.719 1.782l1.188 1.093-2.97 55.438c-.903.971-1.335.529-1.75.031l3.532-56.563zm4.313.75l1.75 2.624.03.688-.374.656c-.098-.073-.2-.14-.282-.218-.16-.152.598-.726.438-.876-.64-.596-1.007-1.237-1.625-1.812l-.031-1.031.093-.032zm-.5.093l-.063.782c-.331.039-.758.19-1 .156l.156-.782.907-.156zm-2.25.594l.968.875 6.375 11.969-.906.031-6.469-12.063.032-.812zm51 .188l.093 1.093L77.656 48l-.125-1.094 13.906-5.593zm-48.594.437l1.437 1.563-.562.968 1.593.907-1.062 1.374-2.469-4.624 1.063-.188zm-2.469.813l2.875 5.312-3.375 4.281.5-9.593zm48.094 1.53l3.719 59.25c-.584.94-1.167.62-1.75.626l-1.094-20.125.156-.063-.188-.562-1.156-21.375v-.5l-.906-16.75 1.219-.5zm-43.406.063l3.718 2.157-.093.312c-.759-.618-1.99-1.076-3.032-1.594l-.125-.125-.031.032c-.238-.123-.484-.242-.688-.376l.25-.406zm41.75.625l.062.875-8.531 8.782-.125-1.22 7.969-8.187.624-.25zm-41.344.5l.687.407-1.406 1.843-.406-.781 1.125-1.469zm39.937.094l-6.562 6.781-.813-.781-.312-2.813 7.687-3.187zm-9.062.094c.321-.115.638.21.656.406l6.844 62c-.386.823-1.02.571-1.406.5l-.188-1.781.281-.094c.554-.705.36-1.483-.094-1.438l-.312.094-.25-2.062.375-.125c.554-.706.36-1.483-.094-1.438l-.406.125-.25-2.312.313-.094c.553-.705.328-1.483-.126-1.438l-.312.094-.25-2.5.344-.125c.554-.705.36-1.483-.094-1.437l-.406.125-.281-2.719.156-.063c.554-.705.328-1.482-.125-1.437l-.156.063-.25-2.313.187-.063c.554-.705.36-1.482-.094-1.437l-.25.094-.187-2 .156-.063c.554-.705.36-1.483-.094-1.437l-.219.062-.25-2.125.25-.094c.554-.705.36-1.482-.093-1.437l-.281.094-.282-2.75.094-.031c.385-.267 1.044-.963.031-1.407l-.25.094-.219-2 .25-.094c.554-.705.36-1.483-.093-1.437l-.281.094-.25-2.126.28-.093c.224-.608.055-1.101-.124-1.594l-.313.125-.219-2 .407-.156c.03-.466.323-.941-.188-1.406l-.344.124-.187-1.53.344-.126c.432-.673.325-1.187-.125-1.625l-.344.125-.25-2.125.219-.062c.429-.68.29-1.289 0-1.563l-.344.125-.219-2 .344-.125c.252-.65.041-1.075-.031-1.562l-.469.156-.188-1.75.438-.156c.269-.646.229-1.197-.031-1.563l-.531.188-.22-2 .5-.219c.155-.393.317-.817-.124-1.156l-.5.187-.156-1.5c.047-.322.146-.653.28-.687zm-30.031.281l2.062 1.188 1.469 2.593-3.313 1.344-1.656-3.125 1.438-2zm40.562.344l.813 14.781-7.72-7.625 6.907-7.156zm-37.844.375l.157.093 1.343 2.188-.062.75c-.007-.004-.027.005-.032 0-.687-.695-.815-1.914-1.5-2.656l.094-.375zm26.907 1.062l.03.219-6.78 2.563v-.063l6.75-2.719zm.624.125c.105.194.355.507.126.813l-7.438 3-.031-.875 7.344-2.938zm-33.218.375l.437.813-3.343 4.437-.626.25.063-1 3.469-4.5zm24.718.032c.2-.025.444.063.688.218l4.219 62.563c.131.534-.258 1.111-1.188.5l-4.125-62.781c.127-.315.208-.476.406-.5zm8.032.874l.094 1.157-1-.782.906-.374zm-25.375.094l.031.063 1.031-.032v.438c-.194-.074-.78.06-1.125.063l.063-.532zm1.5 0h.093l2.657 3.094-.407 3.094-.156.343c-.03-.022-.07-.035-.093-.062-.512-.57.265-2.011 0-2.688-.31-.788-.797-1.455-1.344-2.093l.062-.032-.125-.062c-.25-.286-.532-.565-.812-.844l.125-.75zm-8.313.032l1.25 2.343-4.187 1.657 2.937-4zm30.938.406l1.406 1.093.031.376-1.375.5-1.469-1.376 1.407-.593zm-24.719.437l1.625.032.5.718-4.75 2.032-.781-1.438 3.406-1.344zm22.938.313l1.5 1.343-5.157 1.813-.062-1.563 3.719-1.593zm-20.594.718l1.468 2.032-.03.718-5.75.25-.532-1 4.844-2zm14.968 0l.063 1.157-9.281 3.75c-.09-.376-.188-.768-.25-1.094l9.468-3.813zm9.532 0c.386.294.246 1.006 0 1.126L69.5 54.718l-.094-1 7.563-2.782zm-31.594.844l.813 1.5-1.907.844-4.468.188V54l5.562-2.219zM78.094 52l.437.438-.344.374-.093-.812zm-1.656.469l.03.406-.406-.281.376-.125zm-.657.25l.75.593.094.907-7 2.468-.125-1.624 6.281-2.344zm-8.219.031l.25 3.813-1.187-.282-.156-3.093 1.094-.438zm-1.374.563l.124 2.906-4.593-1.063 4.468-1.843zM46.28 53.5l.282.5-1.688.094 1.406-.594zm33.407.063L87.218 61l-2.374-.563-6.125-5.906.969-.968zm-25.813.468l-.063 1.125L40 55.5l-.219-.375v-.344l14.094-.75zm23.281.157c.016.331.42.58.063 1.124L69.719 58l-.063-1 7.5-2.813zm-19.5.656c.026.351.091.692.188 1.031-.632-.36-2.121-.015-3-.156l.156-.563 2.656-.312zm20.813 0l5.5 5.406-5.125-1.188-.438-4.156.063-.062zm-17.375.562l6.75 1.532.031.78-7.844-1.874 1.063-.438zm-7.313.125v.25l.344.094-2.5 3.125-.938-.313-1.624-3.03 4.718-.126zm-5.093.125l8.437 15.813-.031 1.156-.407-.406-8.906-16.531.907-.032zm-1.22.032l1.282 2.374-6.688-2.25 5.407-.124zm29.282.062l.031.219-2.437 2.718-2.563.907L75 56.375l1.75-.625zm-37.031.031l.062.063.125.312.125-.062 17.063 16.875L57 75.313 39.594 58.186l.125-2.406zm1.625.032l7.593 2.562.47.906-8.75-2.875L40.25 56l.344-.156.75-.032zm13.187.156l1.532.406L52 61.156l-.625-1.187 3.156-4zm4.938.125l-1.344 57.625-1.875.281 1.844-57.344 1.375-.562zm.437.093l6.438 1.532.25 6.312-6.813-2.281.125-5.563zm16.907.126L77 57.75l-1.344.469-.437-.063 1.594-1.843zm-20.438.156l1.313.343L57.53 61l-3.906-1.313 2.75-3.218zm18.063.125l-1.313 1.312-1.438-.312 2.75-1zM41 56.75l8.594 2.844.625 1.156-2.25 2.875L41 56.75zm36.5.969c.473.168.218.806 0 1.187L69.969 61.5l-.094-1 7.625-2.781zm-6.281.031l1.656.406-.594.594L70 58.187l1.219-.437zm-4.531.031l1.218.313.344 5.031-1.25 1.25-.313-6.594zm8.343.594l.125.031-.219.063.094-.094zm-5.281.125l.25.063 1.594.843-.594.469-1.188-.5-.062-.875zm-30.188.063l.626.624 16.124 35.25-.03 1-.626-.656L39.47 60.156l.093-1.593zm31.25.187l1.188.281-.188.188-1-.469zm-19.937.281l.594.188-.313.375-.281-.563zm26.25.219l.094.875-1.625-.313 1.531-.562zm1.781.156l8.688 1.969-.094.563-.625.28-.25-.062L79 60.344l-.094-.938zm-9.062.219l.781.344-.75.281-.031-.625zm-29 .188l5.687 5.593-2.031 2.5-3.656-8.094zm12.625.062l4.062 1.375-.031.656-4.5-1.468.469-.563zm21.75.063l2.031.468.063.75-2.657-1 .563-.218zm-1 .374l3 1.094-1.063.375-2.875-1.125.938-.343zm-34.75.22l4 8.718-4.719 5.906.719-14.625zm13.375.124l4.656 1.5-.25 6.375-1.094.438-4-7.531.688-.782zm26.187.032l7.094 1.687.25.25-5.969 2.406-1.125-2-.25-2.343zm-6.156.03l2.906 1.188-5.656 1.969v-.094l2.75-3.062zm-.75.344l-2.031 2.188L70 61.969l.188-.188 1.937-.718zm-21.688.063l.594 1.125L49 64.625l-.75-.719 2.188-2.781zm27.344.313c.347.245.548.737.188 1.218l-7.75 2.594-.031-1.063 7.593-2.75zm-18 .593l6.844 2.313v.156l-.531.219-6.344-2.063.031-.625zm27.969.438l.094 1.625-8.094 3.25-.156-1.594 8.156-3.281zm-36.531.093l3.75 6.907-.782.281-4.937-4.875 1.969-2.313zm8.531.376l5.969 1.968-6.063 2.656.094-4.624zm17.75.03l.188 1.563-5.876 2.063-1.343-1.125 7.031-2.5zm-9.25.532l.094 1.219-8.188 8.437-.625.25.032-.969L68.25 63.5zm11.156.625L80 65.188l-.469.187-.125-1.25zm8.469.344l.063.906-7.532 8.063-.125-1.282 6.875-7.406.719-.281zm-9.688.062c.235.327.268.677.032 1.063l-7.781 2.812-.063-1 7.813-2.875zm-11.75.438L63.5 68l-3.906 1.781.062-1.844 6.782-2.968zm19.907.125L82.688 69l-1.126-1.938 4.782-1.968zm-17.969.156l.313 4.5-1.407.563-.187-3.72 1.281-1.343zm-21.563.438l.688.687-2.406 2.813-.375-.844 2.093-2.656zm23.47.124l1.093.938-.938.313-.093-.032-.063-1.219zm17.656 0l.75 13.844-5.157-9.125 4.406-4.719zm-10.126.126l.032.25-4.469 1.75-.219-.22 4.656-1.78zm.063.53l.156 1.47-7.437 2.593-.094-1.125 7.375-2.937zm-30.125.157l4.156 4.063-5.187 2.093-1.469-3.219 2.5-2.937zm18.938.406l.156 3.438-5.688 2.281 5.532-5.719zm14.5.188l1.187 2.125-.594.625-1.344-2.438.75-.312zM80 67.688l1.438 2.656-1.22 1.312-.406-3.875.188-.094zm-7.25.187l.25.219-1.469.562c-.075-.077-.164-.155-.219-.219l1.438-.562zm5.688.188c.21.28.325.606.124 1.062l-7.874 2.688-.063-.938 7.813-2.813zm-15.47.468l-3.406 3.531.032-2 3.375-1.53zm8.032 0c.087.08.178.173.25.25l-.75.281-.031-.312.531-.219zm-13.781.406l-.063 1.844-.031.031-.813-1.53.907-.344zm20.937.594l.25 2.125-.469.156-1.874-1.53 2.093-.75zm-34.5.125l.375.844-4.437 5.188-.875.343v-.187l4.937-6.188zm11.469.125l.813 1.5-.126.063-1.343-1.313.656-.25zm13.563.344l.124 1.625-9.343 3.75.031-1.656 9.188-3.719zm6.937.313l1.844 1.53-1.625.563-1.688-1.562 1.469-.531zm-31.438.406l1.157 2.531-5.032 2.031 3.876-4.562zm39.032 0l5.531 9.719.063 1.406-.97-.906-5.218-9.563.594-.656zm-31.063.094l1.375 1.343-5.906 2.469-.781-1.688 5.312-2.124zm21.594.156l1.594 1.594-4.5 1.53-.156-2.03 3.062-1.094zm-17.656.437l.093.188-.156-.156.063-.032zm22.812.156c.602.15.385.882.031 1.032l-2.28.812-5.72 1.969-.062-.938 8.031-2.874zm3.375.188l4.469 8.156-6.25-5.844-.063-.374 1.844-1.938zm-13.437.344l.344 5.344-1.688-.407-.156-4.312 1.5-.625zm-15.063.312l2.875 2.844-8.468.656-.407-.937 6-2.563zm13.125.5l.156 4.031-6.343-1.5 6.187-2.53zm11.25.188l.063.219-.75.812-.625-.563 1.312-.468zm.438.344l.125 1.218-.438.469-2 .688 1.156-1.22 1.157-1.156zm-33.125.093l.781 1.656-2.5 1.032-5 .375.063-.406 6.656-2.657zm30.968.188l.782.687-1.469 1.594-4.656 1.594-.125-1.906 5.469-1.97zm4.126.937l7.624 7.313-2.687-.656-4.719-4.594-.219-2.063zm-1.282.313c.547-.146.398.8-.156 1.125L71.187 79l-.062-1.063 8.156-2.843zm-22.375.5l.094.094-.031.78-8.25.72-.375-.876 8.562-.718zm-10.5.062l.188.469-1.563.125 1.375-.594zM60 75.844l9.219 2.125.062 1.062-9.812-2.375v-.594l.531-.218zm-13.25.594l.406.874L39 77.97l-.375-.313.063-.531 8.062-.688zm32.125 0l.281 2.75-.781.28-2.531-.562 1.812-2.031 1.219-.438zm-21.906.312l-.625 17.188-7.5-16.5 8.125-.688zm20.218.313l-1.656 1.78-1.562-.343.344-.406 2.874-1.031zm-17.75.03l7.688 1.813.219 6.25c.05.042.106.062.156.094l-8.438 9 .376-17.156zm-12.187.47l7.469 16.312L39.5 78.594l1.094-.469 6.656-.563zm33.625.093l3.531 3.531-3.25-.78-.281-2.75zm-42.281.5L56.25 96.187l-.094 1.907L38.47 80.406l.125-2.25zm35.156.156l-.125.126-.156-.032.281-.094zm-.719.282l4.813 1.031-2.625.906-3.969-1.062-.031-.219 1.812-.656zM67.562 79l1.75.406.22 3.656-1.688 1.813c-.032-.006-.062-.023-.094-.031L67.562 79zm12.094.219c.602.149.385.882.031 1.031l-2.468.844h-.031l-.032.031-5.687 1.969-.063-1 3.688-1.281h.031l4.531-1.594zm-8.406.531l1.063.281-.97 1.125-.093-1.406zm1.406.375l1.281.344-.687.719-1.844.624-.031-.218 1.281-1.469zm1.531.438l.5.124-.906.313.406-.438zm5.094.062l.094.906-1.719-.344 1.625-.562zm1.938.125l7.312 1.688.313.28v.157l-.125.594-.313.125-7.062-1.688-.125-1.156zm-4.125.625l2.344.531.093.875-7.875 2.656-.125-1.624 1.031-.876 4.532-1.562zm4.281.906l5.438 1.281.5.5-5.5 2.313-.438-4.094zm-1.406.5c.601.15.384.913.031 1.063l-8.25 2.875-.063-1.031 8.282-2.907zm-8.156.406l-.313.282v-.156l.313-.126zm-2.22.438l.063 1.281L59.5 95.781l-.469.188.032-1.063 10.53-11.281zm19.344.406L89 85.72l-6.938 2.937-.187-1.719 7.063-2.906zm-9.28.156l.218 2-8 2.626-.125-1.844 7.906-2.781zm-9.938 1.344l.375 5.781-9.75 4.094 9.156-9.812c.072-.018.146-.04.219-.063zm10.625.688c.601.149.384.882.031 1.031l-8.406 2.938-.063-1.032 8.438-2.937zM80 87.594l.281 2.062-2.031.906-6.094 2.032L72 90.469l8-2.875zm.688 2.344c.6.149.384.913.03 1.062l-8.468 2.875-.125-1 8.563-2.938zm-.313 1.406l.281 2.75-8.219 2.687-.187-2.531 8.125-2.906zm-10.25.437l.125 1.906-11.125 4.72-.063-2.063 11.063-4.563zm11.188 2.25c.6.15.384.882.03 1.031l-8.812 3-.094-1 8.876-3.03zm-.5 1.469l.25 2.531-8.344 2.719-.219-2.375 8.313-2.875zm.843 2.5c.601.149.385.913.031 1.063l-8.874 2.968-.063-.969L81.656 98zm-.469 1.438l.25 2.343L73 104.562l-.156-2.25 8.344-2.874zm.907 2.28c.601.15.384.914.031 1.063l-9.063 3.063-.062-1 9.094-3.125zm-.531 1.47l.25 2.093-8.563 2.813-.156-1.969 8.469-2.938zm.812 2.062c.601.149.385.913.031 1.063l-9.094 3.062-.062-.969 9.125-3.156z" fill="#5c2700" fill-rule="evenodd"/></svg>