<?xml version="1.0" encoding="UTF-8"?>
<svg width="128" height="128" version="1.0" xmlns="http://www.w3.org/2000/svg" xmlns:xlink="http://www.w3.org/1999/xlink">
 <path d="M91.281 1.188c-2.983 7.965-6.376 17.258-9.375 25.218l-.406-4.718-15.781-14.75L46.125 3.25 33.25 20.281l-3.625-3.187-1.906 2 2.25 1.625-1.344 3.031c-.17.357-1.6-1.38-2.281-1.156-.858.28-.974 2.532-1.188 3.062l2.032 1.157-1.5 3.343-3.063-2.093-1.594 2.718 10.032 5.907-5.844 58.78-.688.344-4.156 4.063-.5 5.563-12.281 14.25 2.593.343 7.688-4.531 3.906 1.125-.281 1.719 2.875.937 1.5-.937.063-.469 6.562 1.938-.063 1.843 2.844.938 1.594-1.094v-.406l15.063 4.437 44.75-17.219-3.844-13.343-5.156-2.063-1.72-18.781 20.75 25.563 1.782-2.313-2.125-1.813 1.438-2.343 1.874 1.125 1.22-2.406-1.688-1.594 1.125-2.531 2.375 1.437 1.719-1.688-2.688-2.156-26.844-23.625-1.656-19.437 21.781-36.625-3-.625-1.469 2.093-2.656-1.28 1.031-1.75-2.218-1.438-1 2.125-2.375-1.125.625-2.25-2.688-.282zm.281.375l1.75.28-.718 2.282 3.312 1.406.938-2.25 1.656.875-1.313 2.219 3.47 1.469c.202.026 1.36-2.316 1.562-2.125l2.062.218-27.812 46c.65.68 1.157 1.6 1.094 2.844-.008.546-.21 1.044-.344 1.563l36.406 31.281-1.094 1.031-2.375-1.875-1.625 3.531 1.844 1.75-.781 1.72-2.125-1.157-1.719 2.938 2.031 1.874-1.125 1.47-30.312-37.938c-2.07 1.086-3.245.997-4.594.562l-13.438 51-2.437-.625.563-3.031-5.876-1.313-.687 3-3-.843 1.469-2.656-4.219-.938-1.625 1.563-1.313-.376 26.126-45.656.187-.031v-.031l-.094-.063.438-.781c-1.21-.99-1.99-1.891-1.813-3.125L21.812 30.531l.875-1.375 3.22 1.813 2.03-4.438-2.28-1.468.905-2.094 2.532 1.625 1.875-3.719-2.313-2 1.032-.969L68.53 52.813c.776-.803 1.313-2.416 5.125-2.126C79.56 34.849 85.568 17.37 91.562 1.563zm-45.28 2.53l18.5 3.595-11.438 20.156-17.625-5.5-1.594-1.563L46.281 4.094zm45.624 1.095l-9.719 25.5 1.844.906L95.156 6.53l-3.25-1.343zm.344.656l2.281.906L83.875 31l-1.188-.531L92.25 5.844zm-44.781.968l-1.532 1.97-1.343-.313-.157.375.97.469L40.593 16l-1.282-.375-.312.406 1.125.532-1.688 2.093.344.344 2.032-2.156 3.062 1.125.313-.344-3.032-1.313L46.031 9.5l4.313.75-1.875 2.563.468.093 1.844-2.5 1.532.25.156-.25-1.438-.594 1.157-1.687-.438-.219-1.313 1.782-3.937-.72 1.375-1.78-.406-.375zm48.625.125L84.406 31.845l2.219.875 13.75-24-4.281-1.781zm.406.75l2.969 1.344L86.5 32.188l-1.469-.626L96.5 7.688zM66 8l14.969 13.875-27.125 6.375L66 8zm-4.063.969l-.906 1.656L59 10.094l-.063.125 1.75 1-2.124 3.937-2.313-1.031.531-1.344-.312-.094L55.656 14l-1.093-.25-.313.281 1.188.438L54 17.656l-1.75-.812c.147-.285.47-1.165.563-1.375l-.657.281c-.102.23-.278.631-.468 1l-4.25-.938.093.376 3.782 1.156a200.282 200.282 0 01-2.594 4.625l.281.125c1.007-1.448 2.262-2.985 2.719-4.657l2.343.907.876.218-.626-.656 1.626-3.218 2.343 1.124-.687 1.126.843.468.626-1.406.843.094-.812-.563 2.062-3.937.719.281.25-.969-.625-.031.719-1.688-.282-.218zm4.47 3l-1.532 11.687 9.563-2.343-4.407-5.907-3.625-3.437zm.78 2.406l2.282 1.281-4.031 7.156 1.75-8.437zm4.688.219l-.469.281 4.125 4.469-1.156.406.063.5 1.624-.344 1 1.188.25-.407-.687-.843 1.031-.157-.125-.406-1.344.157-4.312-4.844zm-2.156 1.312l.969 1.5v.032l.156 3.78-2.094.5v-3.812l.969-2zM61.5 17.75l-.438.313.376 1.156-.782.375.25.25.719-.188 1.25 3.719-3.031.719-.938-2.469-.437.125.875 2.438-1 .53.093.313 1.094-.312.438 1.218.468-.187-.28-1.188 2.812-.875.312.907.25-.125-1.406-4.938 1.625-.437v-.282l-1.75.22-.5-1.282zm9.656.438l1.625 2.562-1.5.375-.125-2.938zm-2.844.593l.032 3.032-1.688.406 1.656-3.438zM54.97 20.625l-.657 1.25-2.562-.813-.313.5 2.563.72-1.5 3.155.469.063 1.468-2.531 1.344.406.063-.469-1.157-.593.72-1.438-.438-.25zm-23.407.094L29.5 25.312 49.094 40.72l1.312-2.438L31.563 20.72zm.313 1.625L49.719 38.28l-.875 1.594L30.469 25.25l1.406-2.906zm48.75.343l.5 5.782c-2.009 5.35-4.006 10.728-5.531 14.812-.849 2.271-1.56 4.196-2.063 5.563-.185.504-.342.84-.469 1.187-1.862.224-3.523.34-4.687 1.875l-1.969-1.812-1.594-16.719-7.5 1.844.094 6.656-3.531-3.219.125-9.875 26.625-6.093zm-43.156 1.22L53.03 28.78l-.156 9-15.406-13.875zm37.812 1.218l-.281.063.875 6.843-4.625 1.344-.219-2.25-.281.063.219 2.28-1.313.376.156.187 1.157-.343 1 10.906.281.031-1-11 4.656-1.375.313 2.469.281-.032-.313-2.5 1.97-.593-.032-.219-1.969.563-.875-6.813zm-46.594 1.75L26.5 31.844l20.281 12.375c.325-.797.8-1.814 1.438-2.313L28.687 26.875zm.438 1.156L47.656 41.97l-.968 1.781-19.22-12.281 1.657-3.438zm52.594 4.063L74.53 50.719l.688.343 8.094-18.124-1.594-.844zm.187.5l.875.531-7.625 17.594-.344-.063 7.094-18.062zm1.906.531l-8.437 17.969.563.343L85.811 34l-2-.875zm.282.469l1.156.5-9.375 17.093-.25-.218 8.469-17.375zm-19.656.125l.75 7.875-2.22.406-.593-7.563 2.063-.718zm-2.688.937l.656 7.469-2.062.344-.5-7.438 1.906-.375zm-2.219.438l.25 7.343-1.593.157-.344-.313-.219-6.781 1.906-.406zm-28 1.843l21.125 13.157-.593 36.375-2.594 4.5c-.032-1.32-.088-4.183-.125-7.031l1 .187.062-.438-1.062-.218c-.007-.562-.032-1.362-.032-1.781L49 81.624c0 .503-.003 1.076 0 1.781l-3.094-.625.25-4.062 2.844.469.063-.313-2.876-.469.188-3.25-.375-.062-.219 3.25L37 76.875l-.063.375 8.813 1.406-.25 4.031-1.219-.25-.062.5 1.25.25-.094 1.157.438-.063.062-1.031 3.125.625c.015 3.242.058 7.244.063 7.813l-4.657 8.093.782-13-15.126-3.375-.718 16-.375.188-1.469-.281.094-1.22-1.875-.437 5.812-60.719zm20.219 2.626l-1.281 2.124 16.156 12.938.875-1.188-15.75-13.874zm-17.625.5L33.375 48c-.363-.07-.734-.15-1.094-.219l-.187.313c.417.088.831.17 1.25.25l-.094.968h.313l.062-.906c2.298.433 4.621.76 6.938 1.094l-.063.969.25.062.063-1 1.5.219.124-.188c-.539-.07-1.08-.166-1.624-.25l.187-2.78-.25-.063-.188 2.812c-2.303-.359-4.623-.81-6.906-1.25l.594-7.843-.125-.126zm17.781.187l15.219 13.313-.375.687-15.688-12.594.844-1.406zm13.313 2.156l.719 7.25-2.563-2.312-.344-4.594 2.188-.344zm-2.75.469l.312 3.906-2.375-2.156-.062-1.406 2.125-.344zm-12.657.094l-1.5 2.218L65.376 56.25l.563-.938c-5.173-4.304-11.585-8.19-16.126-12.343zM59.72 43l.062 1.063-1.093-1 1.03-.063zm-9.813.688l15.719 11.718-.281.5L49 45.22l.906-1.532zm32.532.093l1.437 17.063-1.594-1.219-1.187-13.531 1.344-2.313zm-1.72 2.844l.657 7.5-2.125.594-.375-5.063 1.844-3.031zm-2.406 3.938l.344 4.03-.812.126c.098-.85.122-1.729-.563-2.469l1.031-1.688zm-24.656.156l3.907 2.437.156 10.657 8.843-1.97-14 24.094 1.094-35.218zm-22.5.531l-1.125 11.781L50.688 66l.562-12.688-20.094-2.062zm.438.5l4.375.5-.469 5.5-4.313-.594.407-5.406zm4.75.531l4.468.5-.5 5.657-4.468-.626.5-5.53zm4.937.532l4.594.53-.281 5.813-4.813-.656.5-5.688zm16.657.562l1.906 1.188-1.875.312-.032-1.5zm-11.5.031l4.312.469-.313 5.969-4.374-.625.374-5.813zm24.687.188c-1.822.793-3.342 1.956-1.969 5.156l4.469 1.531c3.755-.743 3.721-3.002 2.969-4.593l-5.469-2.094zm.188.531l4.593 1.688c1.087.716 1.388 2.918-2.531 4l-3.75-1.407c-.538-1.048-.458-3.278 1.688-4.281zm10.156 1l.406 4.188-2.406-1.813-.156-2.031 2.156-.344zm-21.031.031l.53 7.594-2.874.594L58 55.469l2.438-.313zm.656.188l2.5 1.562.406 5-2.469.594-.437-7.156zm17.625.25L78.813 57l-1.094-.844c-.004-.127.021-.27.031-.406l.969-.156zM75.53 56c-2.012.334-2.968 1.651-2.312 3l.25.125c-.115-1.244 1.06-2.168 2.219-3.094L75.53 56zm2.219 1.188c-.086.73.076 1.384-.094 2.03l11 10.688 1.438-1.562L77.75 57.188zm-13.531.093l1.344.844c.077.79.454 1.602 1.312 2.344l.063.718-2.313.657-.406-4.563zm-33.063.313l4.313.625-.438 4.937-4.25-.562.375-5zm46.875.312l11.469 10.5-.781.813-10.813-10.125.125-1.188zm-42.219.375l4.47.657-.438 4.843-4.5-.593.468-4.907zM40.75 59l4.813.688-.25 4.812-5-.656L40.75 59zm36.781.656c.027.173-.388.583-.687.782l9.781 11.5 1.188-1.313c-3.461-3.568-6.579-7.775-10.282-10.969zm-31.5.094l4.407.656-.25 4.719-4.5-.594.343-4.781zm31.563.281l9.719 10.407-.813.687-9.188-10.656.282-.438zm-10.656.5c.086.073.153.148.25.219l-.126.219-.124-.438zm1.218.594L58.937 78l2.563 1.063 7.219-17.657-.563-.281zm.063.25l.281.188-7.313 17.03-1.687-.718 8.719-16.5zm1.375.156L62.656 79.25l3.125.688 4.5-18.094-.687-.313zm6.344.032l.406.5.281 5.187-2.406.375-.063-5.375c.722-.132 1.243-.479 1.781-.688zm-6.282.312l.375.031-4.469 17.532-2.406-.407 6.5-17.156zm2.563.188c.605.204 1.101.24 1.531.218l.219 14.688 9.812-2.625-.469-3.531 1.532 1.937 2.375 21.75c-8.698 2.72-17.264 5.867-25.875 8.844l.625-2.031 9.437-2.907L69.062 74l3.157-11.938zm-16.75.343l-.25.032-.063 6.78-1.25.438v.313l1.219-.438v1.188l.219-.063.031-1.219 1.781-.656.157 6.906.187-.03-.063-6.97 3.376-1.218-.188-.219-3.188 1.156-.03-1.75h-.282l.031 1.844-1.781.625.094-6.719zm21.5.438l2.562 3.25.063.844-2.406.406-.22-4.5zM36.25 64.812l-.656 5.75-4.375-.874.156-1.532H31l-.156 1.469-.625-.125-.125.313.718.156-.875 8.75.438.062.813-8.75 4.375.906-.188 1.626.375.124.188-1.687 3.843.813-.406 3.25.313.124.406-3.312 3.062.625.188-.375-3.219-.656.188-1.469-.313-.063-.188 1.47-3.843-.75.593-5.72-.312-.124zm44.188 2.376l2.437 3.062.313 3.656-2.282.656-.656-7.343.188-.031zm-.782.187l.594 7.25-2.469.75-.469-7.656 2.344-.344zm-2.969.5l.563 7.656-2.969.906-.031-8.25 2.438-.312zm14.594 1.5l-1.437 1.531 18.406 18.875 1.625-3.687-18.594-16.719zm.063.688l17.75 16.25-1.063 2.406-17.594-17.813.907-.844zm-2.281 1.656l-1.72 1.812 17.782 21.438 2.531-3.344L90 72.656l-.938-.937zm0 .531l17.78 19.313-1.874 2.718-17.125-20.75 1.219-1.281zm-20.313 3l.25 2.906-1.094.313.844-3.219zm12 2.375l-.281.063.219 1.687-1.438.406.125.313 1.375-.375.75 5.5-4.344 1.5-.781-4.844-.344.031.781 4.938-1.03.344.218.28.875-.28.813 5.124.406.282-.875-5.531 4.344-1.47.25 1.813.343-.156-.25-1.75 2.031-.688-.218-.374-1.875.656-.813-5.469 2.781-.781-.156-.281-2.656.75-.25-1.688zm-22.563 1.531l-14.343 25.625 4.875 1.375 12.093-26.094-2.624-.906zm10.907 0l1.125 11.438-2.406.281-.72-9.344.563-2.156 1.438-.219zm-10.719.594l1.594.594c-3.9 8.214-7.508 16.954-11.5 25.125l-3.688-.938L58.375 79.75zm3.594.563L50.844 106.75l7 2 7.656-27.5-3.531-.938zm.281.687l2.719.688-7.5 26.25-5.657-1.72L62.25 81zm4.375 2.344l.594 7.625-2.406.406-.032-1.031 1.844-7zm-35.813.844L44.47 87.5l-.688 13.406-1.468 2.531.406-14.906-10.25-2.594-.75 12.25-1.688.876.782-14.876zm2.157 2.406l9.218 2.469-.437 11.843-9.5-2.437.719-11.875zm.937.687L33 92.22l2.5-2.25-2.156 5.469 3.343-3.97-2.53 6.876 4.28-5.563-2.25 6.25.063-.062 3.625-4.813-1.688 5.281 2.25-2.25v2.532l1.063-5-2.281 2.625L41.5 91l-3.344 3.844 2.469-5-4.813 5.062 2.75-5.937-3.437 3.187 2.094-3.969-3.625 2.72.312-3.626zm36.282 3.656l.624 7-2.28.657-.657-7.344 2.313-.313zm-2.907.47l.625 7.468-2.5.781-.469-7.906 2.344-.344zm-2.969.624l.626 7.875-2.876.844 2.25-8.719zm23.344 1.938l2.375 1.062-3.187 1.219-1.219-.469c.864-.303 1.729-.605 2.594-.906l-.563-.906zm4.25 1.437l.5 1.781-4.156 1.532-.563-1.781 4.22-1.532zm-6.594.5l1.188.5-8.75 3.375-1.5-.656c3.021-1.078 6.037-2.156 9.063-3.219zm2.094 1.156l.406 1.844-9 3.313-.718-1.75 9.312-3.406zM25 97.156l-.063.438-.53.094.593-.532zm67.5.344l.688 2.438-8.344 3.187-.688-2.531L92.5 97.5zm-67.281.156l1.718.563-.656.094-1.687-.438.625-.219zm-.938.469l1.719.531-.656 3.781-1.375-.124.312-4.188zm-.437.031L23.78 99l-.843.75-.594-.281 1.5-1.313zm3.312.25l-.25 3.594-1.031.188.438-3.563.843-.219zm4.344.781l5.313 1.438-2.126-.469-1.218.438-.313 3.937-7.031-1.969 1.125-.468.063-.875 4.187-2.031zm44.25.094l1.406.719-11.625 4.469h-.156l-1.531-.938c3.968-1.411 7.938-2.833 11.906-4.25zm-52 .063l-.063.75-.468-.219.531-.531zm3.688.687l.468.156-.531.282.063-.438zm-6.438.031l1.813.626-.594 2.468-.313.219-1.25-.344.344-2.969zm72.25.126l.75 2.687-3.438 1.375-1.218-2.563 3.906-1.5zm-58.25.218l1.813.531-.844.22-1.719-.438.75-.313zm42.813.156l.593 1.813-12.187 4.5-.438-1.906 12.031-4.406zm-54.844.157l.625.219-.094 1.312-.719.5.188-2.031zm60.812 0l.656 2.562-10.812 4.125-.563-2.719 10.72-3.968zm-46.437.062l3.187.875-3.812 2.219.625-3.094zm-3.469.25l1.75.438-.625 3.406-.188.125-1.218-.344.281-3.625zm3.031.063l-.531 2.969-.844.5.407-3.032.968-.437zm4.938.531l.031 1.469-6.813 5.156.22-2.5 6.562-4.125zm47.218.156l1.22 2.563-9.782 3.906-.688-2.938 9.25-3.53zm-65.75 1.094l-.218 1.625-13 14.531-1.469.344 14.688-16.5zm.375 0L34.75 106l-.094 2.094-11.187-3.5.218-1.719zm70.407.375l.625 2.25-8 3.219-.906-2.188 8.28-3.281zm-73.5.281l.781.219-.875.625.094-.844zm42.781.156l1.688.97-4.72 1.812.688-1.938c.782-.277 1.562-.566 2.344-.844zm-21.469.657l-.625 1.062-.562-.187 1.187-.875zm30.813.469l.469 2.75-11.344 4.312-.407-2.875 11.282-4.188zm-49.219.218l1.469.469-.938 12.906-2.218-.375 1.687-13zm41.938.063l.343 1.969-6.125 2.25.75-2.376 5.032-1.843zm13.968.375l.719 2.906-12.219 4.875-.562-3.156 12.062-4.625zm-53.875.219l.813.187-.469 6.875h-.031v.375L25.53 118l-1.062.563 1.062-12.876zm69.313.218l.437 1.594-2.969 1.219-.656-1.531 3.188-1.282zm-55.125.063l.406.094-3.594 6.406-.093-2.219 2.093-3.375 1.188-.906zm-12.844.125l.813.25-.938 1.281.125-1.531zm13.563.062l.656.188-.657 1.312 2.25.719 1.626-1.844.406.125-.813 3.281-4.718-1.406 1.25-2.375zm-17.72.156l-.187 1.907-2.062 3.062-2.344 3.406-6.969 3.938 11.563-12.313zm5.626.25l.781.25-2.563 3.126.125-1.376 1.657-2zm57.187.063l.75 2.25-10.875 4.375-.625-2.375 10.75-4.25zM45 106.75l2.469.781L46.187 110l4.032 1.25.531-2.281.563.187-.157 2.906-6.875-2.03.719-3.282zm-14.875.375l2.813.875-.094 3.031-3.407-.875.688-3.031zm-.531.188l-.625 2.718-1.313-.344 1.938-2.374zm61.75 0l.625 1.53-9.688 3.938-.469-1.625 9.532-3.844zm-53.531.093l-1.407 2.188-.062-1.094 1.468-1.094zm-4.407.719l1.219.375.125 13.219-1.813-.563.47-13.031zm2.657.406l.437 12.844-1.094.5-.125-12.938.782-.406zm3.093.469l8.625 2.531-.468 3.125-9.063-2.281.906-3.375zm21.875.125l.407 2.906-9.563 3.625c.039-1.062.06-2.098.094-3.125l3.468-1.312-.343 1.031 3.468.625 1-3.188 1.47-.562zm-8.968.125l1.906.031.218.063-.062 2.031-2.125.781c.03-.987.062-1.981.063-2.906zm-29.626.063l-.218 2.468-1.094-.312c.602-1.062 1.125-1.99 1.313-2.156zm31.907.062l1.593.406-.343 1.063-1.063.406-.187-1.875zm-15.719.188l-.656 2.75-.688-.157 1.344-2.594zm-11.219.406l5.344 1.406-.969 3-5.468-1.5.156-1.75.937-1.156zm39.5.281l.5 3.188-11.344 4.53-.437-3.406 11.281-4.312zm7.438.813l.562 2.374-11.656 4.688-.375-2.531 11.469-4.531zm7.156.218l.469 1.625-12.75 5.188-.375-1.75L81.5 111.28zm-33.469.313l3.125.937-.156 3.063-3.344-.844.375-3.156zm-27.093.219l1.25.343-.157 1.875-2.062-.625c.335-.515.66-1.057.968-1.594zm11.843.343l-.093 2.5-.532-.156.625-2.344zm4.313.344l5.718 1.5-.718 3.219-5.438-1.469-.093-2.219.53-1.031zm-10.813.75l.375.094-.531 1.937.156-2.031zm.75.219l5.657 1.5-.094 2.281-6-1.844.437-1.937zm-7.25.219l.532.156-.657 1.5-1-.25c.358-.316.733-.827 1.125-1.406zm.844.28l1.375.407-.156 1.563-2.032-.532.813-1.437zm22.406.094l7.938 2.094-.157 3.438-8.343-2.281.562-3.25zm12.375.594l.25 3.469-3.843 1.531c.01-1.22.019-2.44.062-3.656l3.531-1.344zm-29.312.938l4.937 1.469-.812 1.53-4.25-1.406.125-1.593zm36.468.125l.313 2.562-11.031 4.438a64.667 64.667 0 01-.032-2.75l10.75-4.25zm-25.906.344l.407.093-.313 1.813-.094-1.906zm.813.187l9 2.438-.375 2.656-9.157-2.781.532-2.313zm30.968.281l.22 1.781-11.688 4.75-.157-1.874 11.626-4.657zm-37.187.594l1.344.406-.063 1.844-1.968-.656.687-1.594zm5.531 1.656l4.75 1.438-.406 1.406-4.281-1.25-.063-1.594zm10.032 0l3.968 1.063-.125 2.875-4.218-1.281.374-2.657zm-4.876 1.563l8.688 2.594-.063 1.468-9.03-2.656.406-1.406zm14.594.969l-.093 1.968-4.47 1.813a40.388 40.388 0 01-.124-1.906l4.687-1.876z" fill="#5c2700" fill-rule="evenodd"/>
</svg>
