<?xml version="1.0" encoding="UTF-8"?>
<svg width="128" height="128" version="1.0" xmlns="http://www.w3.org/2000/svg" xmlns:xlink="http://www.w3.org/1999/xlink">
 <path d="M87.25 18.125l-47.5 10.688L24.875 50.5l14.719-2.438-.032 2.063c-3.881 2.175-4.832 6.664-5.03 10.813 0 .372.032.732.062 1.093-.816.367-1.637.695-2.469 1.032l-3.875 1.562c-.404 1.37 1.046 2.29 1.563 3.25l3.53-2.219c.035-.122.067-.23.094-.344.48-.302.956-.605 1.438-.874.202.992.486 1.928.844 2.78-.684 1.333-.615 2.68-.407 4.094-.014 1.88.2 3.775 0 5.907.136 3.726 2.98 6.007 5.844 7.875l1.032 25.5c9.119 7.042 17.392 8.8 28.593 8.125 9.25-1.156 16.015-4.66 21.063-7.469l.562-27.875c1.979-1.552 3.172-3.651 3.406-6.156-.017-2.483-.136-4.966-.187-7.438-.114-3.467-2.674-5.708-5.313-7.531l-.124-16.563 11.406-3.187L87.25 18.125zm-.313.938l13.657 23.03L52.656 55.5 42.22 29.281l44.718-10.218zm-11.062 3.5l-.281.062 1.281 2.156-2.938.625-.03.282 3.093-.72 2.125 3.595.219.03-2.125-3.687 8.094-1.875h-.157l-8.031 1.688-1.25-2.157zM63.906 26.28l-.468.094c.102.223.769 1.593 1.156 2.406L46 33.156l-1.219-3.031-.437-.125 1.312 3.219-.781.187.219.25.656-.156 7.781 19.219h.375l-7.781-19.313 18.594-4.343c.958 2.015 1.542 3.228 2.687 5.625l-5.469 1.28.22.25 5.374-1.28c.845 1.768 2.031 4.28 2.031 4.28l.344.063s-1.177-2.558-2.031-4.406l19.344-4.563 4.906 9.22-6.219 1.812.313.187 6.062-1.718.969 1.812.25.031-1-1.906 3.344-.969-.188-.25-3.281.938-4.844-9.219 4.344-1.031-.25-.188-4.219 1-1.812-3.468-.375.03 1.875 3.5-19.344 4.532c-1.126-2.438-1.67-3.657-2.594-5.656l3.469-.813-.25-.25-3.344.782c-.37-.803-1.03-2.201-1.125-2.407zM40.188 29.47l1.03.031 10.876 26.406-1.282.5L40.72 30.25c-.378-.156-.134.162-.469-.094L27.281 49.563l-1.375.406 14.282-20.5zm.25 2.218l5.28 12.625-.187 6.626c-1.366-.918-3.08-1.354-5.156-1.063l.063.063c-.082 0-.17-.036-.25-.032l.25-18.218zm-.532.657L39.625 47l-11.25 2.25 11.531-16.906zm45.813 2.25l-10.281 2.468-.844-1.906-.375-.031.906 2.031-1.594.375.313.188 1.375-.344 2.656 5.875-16.469 4.031-4.843-11.968-.376-.094 5 12.125-3.374.812.374.063 3.063-.75 1.313 3.218.28.094-1.374-3.375 16.468-4 1.407 3.125.25.032-1.406-3.22 3.156-.78-.156-.126-3.063.75-2.594-5.874 10.25-2.532-.062-.187zM38.28 38.469l-4.343 7.062-2-.031-.438.406 2.25-.031-.406.625.343.219.5-.875 3.938-.063-.156.375.031.094.219-.469h.75l.25-.218h-.875l.781-1.594-.25-.125-.656 1.718-3.844-.03 3.969-7.032-.063-.031zm51.157 7.312l.406 18.063c-1.138.957-2.52 1.305-3.25 1.25.53-1.595-.21-2.514-1.219-3.594-.251-.89-.851-1.742-1.656-2.5l.031-4.156 1.75-.438c1.979-2.422 2.683-4.95 1.656-7.875l2.281-.75zm-43.126.625l2.938 7.532-1 .218c-.493-.979-1.119-1.833-1.875-2.531l-.063-5.219zm40.188.407c1.329 2.428.084 4.855-1.469 6.687l-2.531.625-.844-6.063 4.844-1.25zm-5.469 1.562l.938 5.781-3.25.844-1.406-5.781 3.718-.844zm-4.25 1.063l1.469 5.687-2.656.875-1.281-5.875 2.468-.688zm-35.062.656c10.32-.004 8.97 21.193.656 21.437 2.37-.721 4.348-2.756 5.313-6.406.798-3.01.279-6.351-.563-9.656-.773-2.989-3.168-4.837-5.406-5.375zm-.438.187c1.534 0 3.031 1.474 4.125 3.313 1.095 1.839 2.25 4.724 2.25 7.593-.146 4.31-1.714 9.097-6.281 10.344-3.55-.7-5.042-4.104-5.719-7.5.75-.39 1.5-.747 2.282-1.062.668 2.09 1.393 2.674 2.78 2.875 1.866.407 2.482-1.323 3-4.719.118-3.246-1.69-5.46-3.906-5.094v.032h-.062c-.92.46-1.486.95-2.031 1.78-.308.649-.317 1.777-.188 2.657-.726.446-1.484.855-2.25 1.219-.033-.329-.069-.662-.093-.969.059-4.385 1.536-9.24 6.093-10.469zm32.532 0l.968 5.688-1.906.468-1.313-5.53 2.25-.626zm-2.876.875l1.376 5.594-2.626.563-1.156-5.563 2.406-.594zm-2.906.875l1.031 5.438-2.687.531-.906-5.406 2.562-.563zm-3.187.844l1.125 5.344-1.813.312-1.719-5.093 2.407-.563zm-2.813.5l1.469 5.5-2.438.406-.406-5.343 1.375-.563zm-1.875.719l.282 5.437-2.157.407-.75-5.126 2.625-.718zm-10.531.781l.75 1.938 2.719-.75.25 5.093-1.719.407L49 55.03l.625-.156zm33.125.188l-.031 3.124a7.717 7.717 0 00-1.875-.937c-1.206-.399-2.565-.658-3.938-.781l5.844-1.407zm-25.844.062l.75 4.875L54 61.094l-.375-5.125 3.281-.844zm-17 1.281c1.352.023 2.415 2.407 2.875 4.063.274 1.94-.752 3.71-2.218 4.875-1.324-.207-1.581-1.465-2.032-2.594.219-.082.434-.173.657-.25l1.906-.406c1.173-.992.85-1.5.75-2.157-.448-.964-.896-.67-1.344-1l-1.438.5c-.316.243-.639.47-.968.688-.116-.662-.075-1.326.156-1.813.229-.481.506-1.53 1.656-1.906zm1.188.125c1.552.487 2.248 2.261 2.343 4.282-.206 2.254-.469 4.707-2.343 4.75 1.635-1.23 1.957-2.905 2-5.126-.229-1.175-.84-3.041-2-3.906zm34.906.5c.84-.036 2.198.166 4.875.657.62.113 1.858.652 1.938 1.53-1.744-.481-5.977-1.554-7.938-1.874.308-.184.621-.291 1.125-.313zm-26.625.438l1.688 4.25-1.438.343c.115-1.535.046-3.11-.25-4.593zm21.563.375c.148-.014.277-.008.406 0 4.208.363 8.045 1.122 11.375 2.156v.438c-1.79-.5-4.017-.813-6.469-.813-3.073-.002-6.954.967-9.719 2.344.037-.7.538-2.117.969-2.625.939-.806 2.4-1.405 3.438-1.5zm-3.532.937c-.937.68-1.339 2.352-1.625 2.844-4.141 0-7.978.45-11.219 1.219l-.624-1.032 13.468-3.03zm-26.937.532c1.39.469 1.809 1.56.062 2.374l-.937.188-.219-2.063 1.094-.5zm43.25.124c.266.279 1.09 1.623 1.25 1.907-.2-.088-1.029-.514-1.25-.594v-1.313zm-7.5.626c3.1.261 8.486.696 10.281 3.53-.263.415-.626.753-1.031 1.063-2.968-1.33-6.1-2.41-8.875-2.281-2.788.13-5.653 1.432-8.188 3.156-.04-.015-.085-.015-.125-.031-1.112-.247-1.811-1.552-1.344-2.563 2.605-1.665 6.272-2.796 9.282-2.874zm-37.781.406l.187 1.656c-2.086.73-3.502 1.81-5.125 2.844.102-.625.008-1.141-.594-1.688 2.088-.84 4.046-1.213 5.532-2.812zm15.374 1.375l.594 1.031a30.1 30.1 0 00-3.093.906c-.766.276-1.435.582-2.063.907.149-.623.237-1.255.313-1.907l4.25-.937zm12.25.343l-.562 1.657.75 3.75c-.977.454-1.01 1.298-.719 1.969l-.062-.094c-2.225-.173-3.696-.118-5.438.031-1.947.167-3.601.53-4.968 1l-.282-7.25c3.685-.826 7.546-.962 11.282-1.063zm10.563.5c2.814-.087 5.723.687 8.5 2.25-2.412 1.55-6.507 1.74-9 1.97-2.584-.023-5.11-.396-7.5-1.282 2.424-1.882 5.155-2.85 8-2.938zm-22.125.657l.313 7.25c-2.1.767-3.5 1.815-4.25 2.969-1.236-.526-2.24-1.097-2.97-1.72a4.99 4.99 0 01-.812-.906 4.264 4.264 0 01-.218-1.03c1.064-1.074 1.85-2.553 2.374-4.22.723-.564 1.577-1.122 2.626-1.5.957-.346 1.946-.61 2.937-.843zm35.813.093c2.402 1.515 3.794 3.588 4.312 6.344 0 1.268-.49 2.504-1.406 3.688l-6.969-3.75c.951-.492.315-2.787-.031-2.219l.281-1.844c2.822-.08 3.686-.898 3.813-2.219zm-57.876.094c.836.439.405 1.01.532 1.625-2.159 1.568-2.224 1.603-2.594 1.844-.093.061-.13.095-.313.219-.824-.612-1.338-1.54-1.437-2.406l3.813-1.282zM30.375 67c.608-.666.23-2.286-1-1.969h-.063c.491.169 1.132 1.19.844 1.906l.219.063zm36.438-1.75c.566.43 1.289.79 2.187 1.094 1.888.637 4.44 1.031 7.25 1.031 3.22.012 6.45-.437 9.281-2l-.375 2.344c-.467.09-1.75.511-2.219.594l.126-.876-.282-.03-.062.906c-1.154.184-2.542.416-3.688.53l-.062-.624h-.188l-.031.625c-1.122.09-2.713.247-3.813.25-.02-.28.1-.888.063-1.063h-.25c.013.062-.082.902-.063 1.094-1.162-.029-3.066-.255-4.187-.406l-.125-1.063-.313-.031.157 1.094c-.718-.126-2.18-.596-2.875-.781l-.531-2.688zm19.562 2.688c.034.383.251.854-.281 1.374-6.681 2.818-13.052 2.052-19.594.813-1.275-.555-.747-1.585-.313-1.938 5.341 2.607 16.393 1.266 20.188-.25zm-50.063.53c.734 1.47 1.57 2.118 2.907 2.97l-.125 3.093c.509.21.875.45 1.25.656H39.25c-1.9-1.668-3.166-3.836-2.938-6.718zm26.313 1.188c.553-.003 1.129.007 1.719.031l.031 6.407c-4.934-.126-9.377-.892-12.625-2.063-.38-.137-.746-.291-1.094-.437h.063c1.098-1.775 5.094-3.892 11.906-3.938zm1.969.063c.349.017.7.035 1.062.062.341.59.898.977 1.188.688l.844 4.344c-.252.187-.557.099-.157 1.187-.332.008-1.411.125-1.75.125-.412 0-.812-.022-1.219-.031l.032-6.375zm21.187.125l7.281 3.812c-.196.24-.392.484-.624.719-4.459 3.965-10.208 5.996-16.126 7.063l-.874-.938c3.51.111 6.771-.781 9-2.469l.156-.125.031-.219.188-1.28c.807.377 1.109-2.248.25-1.938l.718-4.625zm-39.687.5v3.969c-1.839.474-4.074 1.845-6.344-.157l-.031-2.344a7.54 7.54 0 002.031-.124c1.715.16 3.169-.36 4.344-1.344zm38.593.469l-.593 3.75c-.33.065-1.086.22-1.406.28l.28-3.624c.415-.095 1.304-.303 1.72-.406zm-2.093.5l-.25 3.562c-.984.169-2.297.397-3.219.5l-.094-3.438a62.118 62.118 0 003.563-.624zm12.562.03c-.105 1.418-.05 4.42.188 5.688a11 11 0 01-1.063 2.781l-.437-5.75c.516-.961 1.037-2.226 1.312-2.718zm-27.094.063c.618.184 1.744.314 2.376.438l.437 3.625c-.554-.121-1.65-.461-2.219-.625l-.594-3.438zm2.657.469c1.017.147 2.766.328 3.812.344.016 1.084.018 2.542.063 3.625-.918-.054-2.544-.089-3.469-.25l-.406-3.719zm8.031.063l.094 3.468c-1.053.089-2.924.521-3.938.5-.022-1.083-.1-2.573-.125-3.656 1.05-.022 2.896-.187 3.969-.313zm-32.125.343c.074.072.14.152.219.219 1.09.928 2.599 1.732 4.468 2.406 2.228.803 4.95 1.418 7.97 1.781l-3.97 4.844.032.031c-4.106-.784-7.793-1.959-10.813-3.25-1.73-.735-3.449-1.633-4.875-2.78l1.688.062c.965.28 2.302.2 5.312-.875l-.031-2.438zm-10.438 1.063c.584.895 1.282 1.657 2.063 2.344l-.344 5.406a10.373 10.373 0 01-1.593-3.875c.13-1.263-.002-2.59-.126-3.875zm57.376 1.219l.5 5.656c-3.136 5.21-10.325 7.311-17.282 8.281l-.25-6.406c6.108-.934 12.051-2.847 16.625-7 .122-.124.268-.307.406-.531zM85 74.75c.605.096.308.926 0 1.438-6.517 1.822-12.267 2.204-17.25.062l-.219-1.063C73.46 77.38 78.975 76.225 85 74.75zm-46.438 1.219c1.656 1.369 3.641 2.381 5.594 3.281 3.092 1.321 6.844 2.327 11 2.969l-.187 6.375c-6.562-.798-13.434-2.546-16.782-7.094l.376-5.531zm20.97.75c1.974.227 4.07.344 6.25.344.441 0 1.535-.052 1.968-.063.223.357.131.149.531.281l.219 1.438.063.281.25.094a19.596 19.596 0 006.03 1.375l1.282 1c-3.642.643-7.344.94-10.844 1.062-3.389 0-6.614-.349-9.625-.906l3.875-4.906zm24.156.344l.093.406c-3.192 2.32-9.103 3.035-14.406 1l-.094-1.063c1.69.416 3.825.817 5.438.844.005.088-.031.625-.031.625l.312.094-.031-.781c2.712-.066 5.693-.3 8.719-1.126zm-7.376 5.062l.032 6.469c-3.955.524-7.81.688-10.781.844-2.783-.23-6.481-.361-10.313-.813l.313-6.344c3.08.455 6.37.719 9.812.719 3.534-.13 7.26-.327 10.938-.875zm15.782 1.281l-.25 8.938a61.615 61.615 0 01-7.031 2.812l-.907-7.5c2.875-1.036 5.638-2.413 8.188-4.25zM41.719 85.47c2.083 1.084 4.256 1.9 6.468 2.562l-.28 6.75c-2.002-.666-3.999-1.395-5.97-2.25l-.218-7.062zm41.875 2.312l.906 7.469A55.99 55.99 0 0167.312 98v-7.625c5.556-.13 11.116-.783 16.282-2.594zm-35.094.344c5.51 1.604 11.32 2.117 17.063 2.313.48-.002.957-.022 1.437-.032l-.063 7.625c-6.325-.023-12.588-1.148-18.718-3.156l.281-6.75zm43.344 4.469l-.313 11.344c-4.824 2.035-9.665 3.655-14.5 4.656L76.5 97.563c5.068-.899 10.186-2.535 15.344-4.97zm-49.906.281c4.318 1.878 8.675 3.315 13.062 4.25l-.063 11.063c-4.261-1.179-8.49-3.058-12.687-5.813l-.313-9.5zm13.437 4.313c6.857 1.416 13.784 1.642 20.813.437l.53 11.031c-7.18 1.448-14.368 1.528-21.468-.375l.125-11.094zm-13.125 5.374a49.67 49.67 0 005.406 3.094l-.031 7.875a47.577 47.577 0 01-5.125-3.312l-.25-7.656zm49.281 1.594l-.187 6.5a99.098 99.098 0 01-5.313 2.75l-.5-6.969a98.265 98.265 0 006-2.28zm-43.5 1.688c6.05 2.9 12.082 4.157 18.125 4.187l.063 8.281c-5.89.104-11.93-1.096-18.281-4.593l.093-7.875zm37.25.687l.5 7c-4.094 1.932-8.975 3.724-14.937 4.469-1.41.176-2.825.274-4.25.313l-.063-8.282c6.223-.02 12.457-1.336 18.75-3.5z" fill="#5c2700"/>
</svg>
