<svg xmlns="http://www.w3.org/2000/svg" xmlns:xlink="http://www.w3.org/1999/xlink" width="128" height="128" version="1.0"><defs><linearGradient xlink:href="#b" id="o" x1="41.059" y1="53.226" x2="45.287" y2="53.226" gradientUnits="userSpaceOnUse"/><linearGradient id="e"><stop offset="0" stop-color="#1a1a1a"/><stop offset="1" stop-color="#2b2b2b"/></linearGradient><linearGradient id="b"><stop offset="0" stop-color="#6a3c1d"/><stop offset="1" stop-color="#8f5127"/></linearGradient><linearGradient id="a"><stop offset="0" stop-color="#b1b1b1"/><stop offset="1" stop-color="#e4e4e4"/></linearGradient><linearGradient xlink:href="#a" id="h" x1="50.27" y1="86.414" x2="81.459" y2="114.79" gradientUnits="userSpaceOnUse"/><linearGradient xlink:href="#a" id="i" x1="52.96" y1="78.954" x2="71.062" y2="89.717" gradientUnits="userSpaceOnUse"/><linearGradient xlink:href="#a" id="j" x1="48.557" y1="84.824" x2="58.22" y2="68.19" gradientUnits="userSpaceOnUse"/><linearGradient xlink:href="#a" id="k" x1="60.788" y1="70.698" x2="60.911" y2="80.482" gradientUnits="userSpaceOnUse"/><linearGradient xlink:href="#b" id="l" x1="74.976" y1="68.924" x2="81.948" y2="77.975" gradientUnits="userSpaceOnUse"/><linearGradient id="c"><stop offset="0" stop-color="#007dff"/><stop offset="1" stop-color="#58abff"/></linearGradient><linearGradient xlink:href="#b" id="m" x1="76.454" y1="63.395" x2="76.454" y2="70.919" gradientUnits="userSpaceOnUse"/><linearGradient xlink:href="#c" id="n" x1="76.281" y1="63.784" x2="81.038" y2="67.027" gradientUnits="userSpaceOnUse"/><linearGradient id="f"><stop offset="0" stop-color="#c2a05c"/><stop offset="1" stop-color="#d6be91"/></linearGradient><linearGradient id="d"><stop offset="0" stop-color="#4a585b"/><stop offset="1" stop-color="#5e7074"/></linearGradient><linearGradient xlink:href="#b" id="p" x1="84.233" y1="55.395" x2="88.683" y2="55.395" gradientUnits="userSpaceOnUse"/><linearGradient xlink:href="#d" id="q" x1="57.416" y1="51" x2="86.903" y2="19.844" gradientUnits="userSpaceOnUse"/><linearGradient xlink:href="#b" id="r" x1="35.162" y1="37.481" x2="49.293" y2="47.94" gradientUnits="userSpaceOnUse"/><linearGradient xlink:href="#b" id="s" x1="37.721" y1="41.82" x2="38.834" y2="46.494" gradientUnits="userSpaceOnUse"/><linearGradient xlink:href="#e" id="t" x1="54.625" y1="56.375" x2="55.625" y2="61.25" gradientUnits="userSpaceOnUse"/><linearGradient xlink:href="#e" id="u" x1="38.802" y1="54.129" x2="45.255" y2="66.371" gradientUnits="userSpaceOnUse"/><linearGradient xlink:href="#e" id="v" x1="47.509" y1="66.482" x2="49.144" y2="60.781" gradientUnits="userSpaceOnUse"/><linearGradient xlink:href="#e" id="w" x1="34.781" y1="62.018" x2="35.355" y2="63.653" gradientUnits="userSpaceOnUse"/><linearGradient xlink:href="#b" id="x" x1="39.819" y1="59.168" x2="42.338" y2="63.322" gradientUnits="userSpaceOnUse"/><linearGradient xlink:href="#f" id="y" x1="30.361" y1="64.515" x2="31.245" y2="66.194" gradientUnits="userSpaceOnUse"/><linearGradient xlink:href="#e" id="z" x1="39.112" y1="59.278" x2="40.924" y2="61.112" gradientUnits="userSpaceOnUse"/><filter id="g"><feGaussianBlur stdDeviation="1.628"/></filter></defs><metadata/><g fill-rule="evenodd"><path d="M59.828 66.261L17.649 77.158 38.254 88.96c10.093-2.945 20.138-5.925 30.262-8.847-10.06 2.99-20.219 5.908-30.24 8.927L17.845 77.433c-4.6 2.75-3.678 6.744-7.223 9.765-1.641 1.417.701 2.737 3.418 1.457 4.193-.458 9.975-2.196 7.172-4.683.932.611 2.303 3.895 1.37 5.556-1.382 1.988.75 4.51-2.5 6.065-2.654 1.097.646 2.271 1.998.71 6.708-.57 4.027 3.731 6.895 5.375 2.421 2.261 6.792 3.268 8.334 5.797 2.737 2.799 4.178 3.775 6.843 6.572 2.118 1.806 8.776 2.894 13.551 4.473 11.647.706 18.049-4.032 26.262-7.733 2.946-1.038 7.186-2.51 5.326-4.645-2.786-3.933.353-4.812-2.368-8.758 3.61-3.223-.605-7.68-7.34-9.52-4.56-2.214-4.288-5.46-7.124-8.066-3.613-1.302 4.853-1.316 5.745-2.423 4.66-2.042-3.559-4.105-6.361-5.622-4.015-1.825-7.978-3.678-12.014-5.492zM28.413 84.888c1.883.511 6.833 4.097 2.133 2.728-1.205-.82-1.469-1.814-2.133-2.728zm41.713-3.93c.946.115-.518.527 0 0zm.535 1.334c.488.534-1.23.686 0 0zm-.722 1.565c.037 3.161-7.925 2.59-12.173 3.437-6.361 1.437-11.87 3.57-18.384 4.877 10.163-2.79 20.37-5.543 30.557-8.314zm-38.623 5.051c1.366.172-.352.453 0 0zm3.603-.167l.621.334-.62-.334zm-2.831.685c.774.405 1.859 1.503.512.44l-.512-.44zm3.6 1.171c1.597.69-.29.407 0 0zm.053 2.234l.229.38-.23-.38zm49.092.009c-.73.75-1.37.838 0 0zm-4.628 2.791c-.964.607-1.729.481 0 0zm-43.023 5.623c2.314-.07 8.619.395 2.745.304-.928-.038-1.863-.126-2.745-.304zm10.988.278c2.052-.28 3.014.129 0 0zm35.133-2.324c-5.84 2.696-13.782 4.042-21.683 4.941 7.649-1.216 15.477-2.452 21.683-4.941zm-42.376 5.772c1.721.028 2.506.257 0 0zm8.195.156c1.433-.186 2.4.146 0 0z" filter="url(#g)" fill-opacity=".685"/><path d="M42.197 110.265l-.856-25.44 5.748 2.568 6.728 1.59 15.533 1.1 10.03-1.467 5.503-1.345 7.217-4.037v1.59L91.488 111l-6.605 3.18c-4.429 2.739-9.198 3.437-13.943 4.28l-10.519-.122-9.785-2.69-5.87-3.425-2.569-1.957z" fill="url(#h)"/><path d="M35.715 71.37l2.324 3.18 7.094 4.893 10.029 2.568 11.986.612 9.174-.856 8.44-2.202 5.992-3.18 2.324-2.08 2.324-4.525.367 7.461-2.813 5.504-4.526 2.691-6.237 2.446-13.822 1.835-11.374-.367-7.584-1.223-4.77-1.835-4.403-1.957-3.425-3.424-1.345-2.691.245-6.85z" fill="url(#i)"/><path d="M35.837 67.456v2.691l1.59 4.281 4.892 3.547 10.764 3.547 8.806 1.1 5.137.123 8.806-.856 5.871-1.223 7.584-3.302 4.525-3.67 1.468-3.18-2.813-6.36-1.59-1.223c-4.132-.751-5.193-3.998-8.869-4.962-3.578-.938-8.791-1.84-15.349.559l-16.634 3.914-14.188 5.014z" fill="url(#j)"/><path d="M46.478 70.025l2.08-4.281 3.669-2.202 6.36-1.1 7.828-.612-.123 2.69 2.446 11.865H62.99l-7.583-.978-5.504-1.713-3.18-1.834-.245-1.835z" fill="url(#k)"/><path d="M42.197 110.265l-.856-25.44 5.748 2.568 6.728 1.59 15.533 1.1 10.03-1.467 5.503-1.345 7.217-4.037v1.59L91.488 111l-6.605 3.18c-4.647 2.656-9.295 3.904-13.943 4.28l-10.519-.122-9.785-2.69-5.87-3.425-2.569-1.957z" fill-opacity=".157"/><path d="M35.715 71.37l2.324 3.18 7.094 4.893 10.029 2.568 11.986.612 9.174-.856 8.44-2.202 5.992-3.18 2.324-2.08 2.324-4.525.367 7.461-2.813 5.504-4.526 2.691-6.237 2.446-13.822 1.835-11.374-.367-7.584-1.223-4.77-1.835-4.403-1.957-3.425-3.424-1.345-2.691.245-6.85z" fill-opacity=".157"/><path d="M46.478 70.025l2.08-4.281 3.669-2.202 6.36-1.1 7.828-.612-.123 2.69 2.446 11.865H62.99l-7.583-.978-5.504-1.713-3.18-1.834-.245-1.835z" fill-opacity=".157"/><path d="M68.86 78.464l-2.812-13.943 2.079 1.223 3.791 1.1 3.058.123 5.871-.244 1.957-.612 3.425-1.468-1.713 13.21-2.079.856-6.605 1.712-4.158-.856-2.813-1.1z" fill="url(#l)"/><path d="M66.681 62.79l4.584-2.163 3.978-.951 3.46.173 5.362 1.297 2.421 1.903.071.856-2.925 1.998-2.854.692-5.016.519-6.66-.952-2.594-1.384-.086-1.124.26-.865z" fill="url(#m)"/><path d="M68.497 65.643l1.384-.951 3.027-1.47 3.027-.779 2.768.26 1.643.26 1.903.432 3.2 1.47c-1.737 1.098-3.47 2.207-5.881 1.73l-4.844.432-3.624-.323-2.603-1.06z" fill="url(#n)"/><path d="M66.092 68.045l4.642 1.102 7.396.236 4.72-.787 3.542-.944.236.865-.315 1.18-3.54.945-5.902.865-7.396-.472-3.068-.787-.63-.393-.315-.944.63-.866zM67.43 74.812l3.068.944 3.226.315 3.383-.079 2.99-.393 4.091-.866h1.18l-.078 1.495-1.495.472-3.62.787-2.281.315h-4.406l-3.383-.551-2.282-.55-.394-1.89z" fill="#1a1a1a"/><path d="M39.39 74.256l.89-43.507 5.898 13.909.222 29.82-1.78.446-2.003.445-2.225-.445-1.002-.668z" fill="url(#o)"/><path d="M83.009 60.347l.333-5.675 1.67-.556 1.78-2.448.667-2.782-1.112-2.448 3.894-.89V64.13l-1.763.985-2.754.128.7-1.302-.745-1.814-2.225-1.224-.445-.556z" fill="url(#p)"/><path d="M52.631 55.674l-11.35-27.04L87.349 18.51l13.687 23.923L52.63 55.674z" fill="url(#q)"/><path d="M25.37 50.221l14.688-21.03h1.224l11.35 26.705-2.115.723-10.014-25.314-12.908 18.582-2.225.334z" fill="url(#r)"/><path d="M27.818 49.554l12.574-18.36-.668 16.468-11.906 1.892z" fill="url(#s)"/><path d="M27.818 49.554l12.574-18.36-.668 16.468-11.906 1.892z" fill-opacity=".157"/><path d="M25.37 50.221l14.688-21.03h1.224l11.35 26.705-2.003.556-10.126-25.147-12.908 18.582-2.225.334z" fill-opacity=".157"/><path d="M86.84 46.358l.367 1.223.184 2.69-2.08 3.548-35.836 8.623-.062-3.425-1.162-4.831 1.346.06.917 2.447 2.569-1.04 32.045-8.806 1.712-.49z" fill="url(#t)"/><path d="M40.26 50.174l1.46-.044 2.695 1.502 2.166 3.315.574 2.121.751 4.022-.353 3.624-1.856 4.331-3.005 2.165-1.415.53s-1.546-.22-1.944-.397c-.398-.177-3.933-5.568-3.933-5.568l-.53-5.083s.397-3.889.53-4.375c.132-.486 1.988-3.845 1.988-3.845l2.873-2.298z" fill="url(#u)"/><path d="M40.747 49.953l1.547-.044 2.077.53 1.9 1.282 1.9 2.563.885 2.608.441 4.242-.662 4.464-1.9 3.27s-1.017 1.414-1.194 1.547c-.177.133-1.282.619-1.282.619l-1.149.442-1.812.176s.752-.397 1.326-.574c.575-.177 2.21-1.68 2.21-1.68l1.856-3.093.884-2.652v-2.342l-.354-3.712-1.149-3.668-1.59-2.122-1.724-1.105-1.724-.53-.486-.22z" fill="url(#v)"/><path d="M32.483 63.079l4.33-1.945 1.769-1.06.75 2.253s-1.502.177-1.944.442c-.442.266-3.138 1.812-3.138 1.812l-1.016.752.044-1.282-.795-.972z" fill="url(#w)"/><path d="M38.272 62.814l.751 1.812 1.37.972 1.017.22.751-.309.663-.84.707-2.386-.088-3.138-.84-1.856-1.635-1.06h-1.016l-1.37.795-.663 1.282-.221 2.254 1.281-.575.133 2.342-.84.487z" fill="url(#x)"/><path d="M28.505 64.67l3.89-1.37 1.016.618-.354 1.547-3.226 2.122-1.06-1.37-.266-1.547z" fill="url(#y)"/><path d="M28.505 64.714l1.414.442.221.442.221 1.149-.397.751-1.15-1.414-.353-.884.044-.486zM40.703 56.361l1.193 1.635.84 1.459.22.795-.132 2.387-1.635 2.43-.53.62 1.016.043.884-.707.751-1.812.133-1.988.088-1.37-.707-2.078-.751-.972-1.37-.442z" fill-opacity=".157"/><path d="M39.112 59.632l.22 2.695 1.282-.309 1.017-.751.22-.884-.706-1.105-1.15.044-.883.31z" fill="url(#z)"/></g><path d="M87.25 18.125l-47.5 10.688L24.875 50.5l14.719-2.438-.032 2.063c-3.881 2.175-4.832 6.664-5.03 10.813 0 .372.032.732.062 1.093-.816.367-1.637.695-2.469 1.032l-3.875 1.562c-.404 1.37 1.046 2.29 1.563 3.25l3.53-2.219c.035-.122.067-.23.094-.344.48-.302.956-.605 1.438-.874.202.992.486 1.928.844 2.78-.684 1.333-.615 2.68-.407 4.094-.014 1.88.2 3.775 0 5.907.136 3.726 2.98 6.007 5.844 7.875l1.032 25.5c9.119 7.042 17.392 8.8 28.593 8.125 9.25-1.156 16.015-4.66 21.063-7.469l.562-27.875c1.979-1.552 3.172-3.651 3.406-6.156-.017-2.483-.136-4.966-.187-7.438-.114-3.467-2.674-5.708-5.313-7.531l-.124-16.563 11.406-3.187L87.25 18.125zm-.313.938l13.657 23.03L52.656 55.5 42.22 29.281l44.718-10.218zm-11.062 3.5l-.281.062 1.281 2.156-2.938.625-.03.282 3.093-.72 2.125 3.595.219.03-2.125-3.687 8.094-1.875h-.157l-8.031 1.688-1.25-2.157zM63.906 26.28l-.468.094c.102.223.769 1.593 1.156 2.406L46 33.156l-1.219-3.031-.437-.125 1.312 3.219-.781.187.219.25.656-.156 7.781 19.219h.375l-7.781-19.313 18.594-4.343c.958 2.015 1.542 3.228 2.687 5.625l-5.469 1.28.22.25 5.374-1.28c.845 1.768 2.031 4.28 2.031 4.28l.344.063s-1.177-2.558-2.031-4.406l19.344-4.563 4.906 9.22-6.219 1.812.313.187 6.062-1.718.969 1.812.25.031-1-1.906 3.344-.969-.188-.25-3.281.938-4.844-9.219 4.344-1.031-.25-.188-4.219 1-1.812-3.468-.375.03 1.875 3.5-19.344 4.532c-1.126-2.438-1.67-3.657-2.594-5.656l3.469-.813-.25-.25-3.344.782c-.37-.803-1.03-2.201-1.125-2.407zM40.188 29.47l1.03.031 10.876 26.406-1.282.5L40.72 30.25c-.378-.156-.134.162-.469-.094L27.281 49.563l-1.375.406 14.282-20.5zm.25 2.218l5.28 12.625-.187 6.626c-1.366-.918-3.08-1.354-5.156-1.063l.063.063c-.082 0-.17-.036-.25-.032l.25-18.218zm-.532.657L39.625 47l-11.25 2.25 11.531-16.906zm45.813 2.25l-10.281 2.468-.844-1.906-.375-.031.906 2.031-1.594.375.313.188 1.375-.344 2.656 5.875-16.469 4.031-4.843-11.968-.376-.094 5 12.125-3.374.812.374.063 3.063-.75 1.313 3.218.28.094-1.374-3.375 16.468-4 1.407 3.125.25.032-1.406-3.22 3.156-.78-.156-.126-3.063.75-2.594-5.874 10.25-2.532-.062-.187zM38.28 38.469l-4.343 7.062-2-.031-.438.406 2.25-.031-.406.625.343.219.5-.875 3.938-.063-.156.375.031.094.219-.469h.75l.25-.218h-.875l.781-1.594-.25-.125-.656 1.718-3.844-.03 3.969-7.032-.063-.031zm51.157 7.312l.406 18.063c-1.138.957-2.52 1.305-3.25 1.25.53-1.595-.21-2.514-1.219-3.594-.251-.89-.851-1.742-1.656-2.5l.031-4.156 1.75-.438c1.979-2.422 2.683-4.95 1.656-7.875l2.281-.75zm-43.126.625l2.938 7.532-1 .218c-.493-.979-1.119-1.833-1.875-2.531l-.063-5.219zm40.188.407c1.329 2.428.084 4.855-1.469 6.687l-2.531.625-.844-6.063 4.844-1.25zm-5.469 1.562l.938 5.781-3.25.844-1.406-5.781 3.718-.844zm-4.25 1.063l1.469 5.687-2.656.875-1.281-5.875 2.468-.688zm-35.062.656c10.32-.004 8.97 21.193.656 21.437 2.37-.721 4.348-2.756 5.313-6.406.798-3.01.279-6.351-.563-9.656-.773-2.989-3.168-4.837-5.406-5.375zm-.438.187c1.534 0 3.031 1.474 4.125 3.313 1.095 1.839 2.25 4.724 2.25 7.593-.146 4.31-1.714 9.097-6.281 10.344-3.55-.7-5.042-4.104-5.719-7.5.75-.39 1.5-.747 2.282-1.062.668 2.09 1.393 2.674 2.78 2.875 1.866.407 2.482-1.323 3-4.719.118-3.246-1.69-5.46-3.906-5.094v.032h-.062c-.92.46-1.486.95-2.031 1.78-.308.649-.317 1.777-.188 2.657-.726.446-1.484.855-2.25 1.219-.033-.329-.069-.662-.093-.969.059-4.385 1.536-9.24 6.093-10.469zm32.532 0l.968 5.688-1.906.468-1.313-5.53 2.25-.626zm-2.876.875l1.376 5.594-2.626.563-1.156-5.563 2.406-.594zm-2.906.875l1.031 5.438-2.687.531-.906-5.406 2.562-.563zm-3.187.844l1.125 5.344-1.813.312-1.719-5.093 2.407-.563zm-2.813.5l1.469 5.5-2.438.406-.406-5.343 1.375-.563zm-1.875.719l.282 5.437-2.157.407-.75-5.126 2.625-.718zm-10.531.781l.75 1.938 2.719-.75.25 5.093-1.719.407L49 55.03l.625-.156zm33.125.188l-.031 3.124a7.717 7.717 0 00-1.875-.937c-1.206-.399-2.565-.658-3.938-.781l5.844-1.407zm-25.844.062l.75 4.875L54 61.094l-.375-5.125 3.281-.844zm-17 1.281c1.352.023 2.415 2.407 2.875 4.063.274 1.94-.752 3.71-2.218 4.875-1.324-.207-1.581-1.465-2.032-2.594.219-.082.434-.173.657-.25l1.906-.406c1.173-.992.85-1.5.75-2.157-.448-.964-.896-.67-1.344-1l-1.438.5c-.316.243-.639.47-.968.688-.116-.662-.075-1.326.156-1.813.229-.481.506-1.53 1.656-1.906zm1.188.125c1.552.487 2.248 2.261 2.343 4.282-.206 2.254-.469 4.707-2.343 4.75 1.635-1.23 1.957-2.905 2-5.126-.229-1.175-.84-3.041-2-3.906zm34.906.5c.84-.036 2.198.166 4.875.657.62.113 1.858.652 1.938 1.53-1.744-.481-5.977-1.554-7.938-1.874.308-.184.621-.291 1.125-.313zm-26.625.438l1.688 4.25-1.438.343c.115-1.535.046-3.11-.25-4.593zm21.563.375c.148-.014.277-.008.406 0 4.208.363 8.045 1.122 11.375 2.156v.438c-1.79-.5-4.017-.813-6.469-.813-3.073-.002-6.954.967-9.719 2.344.037-.7.538-2.117.969-2.625.939-.806 2.4-1.405 3.438-1.5zm-3.532.937c-.937.68-1.339 2.352-1.625 2.844-4.141 0-7.978.45-11.219 1.219l-.624-1.032 13.468-3.03zm-26.937.532c1.39.469 1.809 1.56.062 2.374l-.937.188-.219-2.063 1.094-.5zm43.25.124c.266.279 1.09 1.623 1.25 1.907-.2-.088-1.029-.514-1.25-.594v-1.313zm-7.5.626c3.1.261 8.486.696 10.281 3.53-.263.415-.626.753-1.031 1.063-2.968-1.33-6.1-2.41-8.875-2.281-2.788.13-5.653 1.432-8.188 3.156-.04-.015-.085-.015-.125-.031-1.112-.247-1.811-1.552-1.344-2.563 2.605-1.665 6.272-2.796 9.282-2.874zm-37.781.406l.187 1.656c-2.086.73-3.502 1.81-5.125 2.844.102-.625.008-1.141-.594-1.688 2.088-.84 4.046-1.213 5.532-2.812zm15.374 1.375l.594 1.031a30.1 30.1 0 00-3.093.906c-.766.276-1.435.582-2.063.907.149-.623.237-1.255.313-1.907l4.25-.937zm12.25.343l-.562 1.657.75 3.75c-.977.454-1.01 1.298-.719 1.969l-.062-.094c-2.225-.173-3.696-.118-5.438.031-1.947.167-3.601.53-4.968 1l-.282-7.25c3.685-.826 7.546-.962 11.282-1.063zm10.563.5c2.814-.087 5.723.687 8.5 2.25-2.412 1.55-6.507 1.74-9 1.97-2.584-.023-5.11-.396-7.5-1.282 2.424-1.882 5.155-2.85 8-2.938zm-22.125.657l.313 7.25c-2.1.767-3.5 1.815-4.25 2.969-1.236-.526-2.24-1.097-2.97-1.72a4.99 4.99 0 01-.812-.906 4.264 4.264 0 01-.218-1.03c1.064-1.074 1.85-2.553 2.374-4.22.723-.564 1.577-1.122 2.626-1.5.957-.346 1.946-.61 2.937-.843zm35.813.093c2.402 1.515 3.794 3.588 4.312 6.344 0 1.268-.49 2.504-1.406 3.688l-6.969-3.75c.951-.492.315-2.787-.031-2.219l.281-1.844c2.822-.08 3.686-.898 3.813-2.219zm-57.876.094c.836.439.405 1.01.532 1.625-2.159 1.568-2.224 1.603-2.594 1.844-.093.061-.13.095-.313.219-.824-.612-1.338-1.54-1.437-2.406l3.813-1.282zM30.375 67c.608-.666.23-2.286-1-1.969h-.063c.491.169 1.132 1.19.844 1.906l.219.063zm36.438-1.75c.566.43 1.289.79 2.187 1.094 1.888.637 4.44 1.031 7.25 1.031 3.22.012 6.45-.437 9.281-2l-.375 2.344c-.467.09-1.75.511-2.219.594l.126-.876-.282-.03-.062.906c-1.154.184-2.542.416-3.688.53l-.062-.624h-.188l-.031.625c-1.122.09-2.713.247-3.813.25-.02-.28.1-.888.063-1.063h-.25c.013.062-.082.902-.063 1.094-1.162-.029-3.066-.255-4.187-.406l-.125-1.063-.313-.031.157 1.094c-.718-.126-2.18-.596-2.875-.781l-.531-2.688zm19.562 2.688c.034.383.251.854-.281 1.374-6.681 2.818-13.052 2.052-19.594.813-1.275-.555-.747-1.585-.313-1.938 5.341 2.607 16.393 1.266 20.188-.25zm-50.063.53c.734 1.47 1.57 2.118 2.907 2.97l-.125 3.093c.509.21.875.45 1.25.656H39.25c-1.9-1.668-3.166-3.836-2.938-6.718zm26.313 1.188c.553-.003 1.129.007 1.719.031l.031 6.407c-4.934-.126-9.377-.892-12.625-2.063-.38-.137-.746-.291-1.094-.437h.063c1.098-1.775 5.094-3.892 11.906-3.938zm1.969.063c.349.017.7.035 1.062.062.341.59.898.977 1.188.688l.844 4.344c-.252.187-.557.099-.157 1.187-.332.008-1.411.125-1.75.125-.412 0-.812-.022-1.219-.031l.032-6.375zm21.187.125l7.281 3.812c-.196.24-.392.484-.624.719-4.459 3.965-10.208 5.996-16.126 7.063l-.874-.938c3.51.111 6.771-.781 9-2.469l.156-.125.031-.219.188-1.28c.807.377 1.109-2.248.25-1.938l.718-4.625zm-39.687.5v3.969c-1.839.474-4.074 1.845-6.344-.157l-.031-2.344a7.54 7.54 0 002.031-.124c1.715.16 3.169-.36 4.344-1.344zm38.593.469l-.593 3.75c-.33.065-1.086.22-1.406.28l.28-3.624c.415-.095 1.304-.303 1.72-.406zm-2.093.5l-.25 3.562c-.984.169-2.297.397-3.219.5l-.094-3.438a62.118 62.118 0 003.563-.624zm12.562.03c-.105 1.418-.05 4.42.188 5.688a11 11 0 01-1.063 2.781l-.437-5.75c.516-.961 1.037-2.226 1.312-2.718zm-27.094.063c.618.184 1.744.314 2.376.438l.437 3.625c-.554-.121-1.65-.461-2.219-.625l-.594-3.438zm2.657.469c1.017.147 2.766.328 3.812.344.016 1.084.018 2.542.063 3.625-.918-.054-2.544-.089-3.469-.25l-.406-3.719zm8.031.063l.094 3.468c-1.053.089-2.924.521-3.938.5-.022-1.083-.1-2.573-.125-3.656 1.05-.022 2.896-.187 3.969-.313zm-32.125.343c.074.072.14.152.219.219 1.09.928 2.599 1.732 4.468 2.406 2.228.803 4.95 1.418 7.97 1.781l-3.97 4.844.032.031c-4.106-.784-7.793-1.959-10.813-3.25-1.73-.735-3.449-1.633-4.875-2.78l1.688.062c.965.28 2.302.2 5.312-.875l-.031-2.438zm-10.438 1.063c.584.895 1.282 1.657 2.063 2.344l-.344 5.406a10.373 10.373 0 01-1.593-3.875c.13-1.263-.002-2.59-.126-3.875zm57.376 1.219l.5 5.656c-3.136 5.21-10.325 7.311-17.282 8.281l-.25-6.406c6.108-.934 12.051-2.847 16.625-7 .122-.124.268-.307.406-.531zM85 74.75c.605.096.308.926 0 1.438-6.517 1.822-12.267 2.204-17.25.062l-.219-1.063C73.46 77.38 78.975 76.225 85 74.75zm-46.438 1.219c1.656 1.369 3.641 2.381 5.594 3.281 3.092 1.321 6.844 2.327 11 2.969l-.187 6.375c-6.562-.798-13.434-2.546-16.782-7.094l.376-5.531zm20.97.75c1.974.227 4.07.344 6.25.344.441 0 1.535-.052 1.968-.063.223.357.131.149.531.281l.219 1.438.063.281.25.094a19.596 19.596 0 006.03 1.375l1.282 1c-3.642.643-7.344.94-10.844 1.062-3.389 0-6.614-.349-9.625-.906l3.875-4.906zm24.156.344l.093.406c-3.192 2.32-9.103 3.035-14.406 1l-.094-1.063c1.69.416 3.825.817 5.438.844.005.088-.031.625-.031.625l.312.094-.031-.781c2.712-.066 5.693-.3 8.719-1.126zm-7.376 5.062l.032 6.469c-3.955.524-7.81.688-10.781.844-2.783-.23-6.481-.361-10.313-.813l.313-6.344c3.08.455 6.37.719 9.812.719 3.534-.13 7.26-.327 10.938-.875zm15.782 1.281l-.25 8.938a61.615 61.615 0 01-7.031 2.812l-.907-7.5c2.875-1.036 5.638-2.413 8.188-4.25zM41.719 85.47c2.083 1.084 4.256 1.9 6.468 2.562l-.28 6.75c-2.002-.666-3.999-1.395-5.97-2.25l-.218-7.062zm41.875 2.312l.906 7.469A55.99 55.99 0 0167.312 98v-7.625c5.556-.13 11.116-.783 16.282-2.594zm-35.094.344c5.51 1.604 11.32 2.117 17.063 2.313.48-.002.957-.022 1.437-.032l-.063 7.625c-6.325-.023-12.588-1.148-18.718-3.156l.281-6.75zm43.344 4.469l-.313 11.344c-4.824 2.035-9.665 3.655-14.5 4.656L76.5 97.563c5.068-.899 10.186-2.535 15.344-4.97zm-49.906.281c4.318 1.878 8.675 3.315 13.062 4.25l-.063 11.063c-4.261-1.179-8.49-3.058-12.687-5.813l-.313-9.5zm13.437 4.313c6.857 1.416 13.784 1.642 20.813.437l.53 11.031c-7.18 1.448-14.368 1.528-21.468-.375l.125-11.094zm-13.125 5.374a49.67 49.67 0 005.406 3.094l-.031 7.875a47.577 47.577 0 01-5.125-3.312l-.25-7.656zm49.281 1.594l-.187 6.5a99.098 99.098 0 01-5.313 2.75l-.5-6.969a98.265 98.265 0 006-2.28zm-43.5 1.688c6.05 2.9 12.082 4.157 18.125 4.187l.063 8.281c-5.89.104-11.93-1.096-18.281-4.593l.093-7.875zm37.25.687l.5 7c-4.094 1.932-8.975 3.724-14.937 4.469-1.41.176-2.825.274-4.25.313l-.063-8.282c6.223-.02 12.457-1.336 18.75-3.5z"/></svg>