<svg xmlns="http://www.w3.org/2000/svg" width="1043.542" height="664.076" viewBox="0 0 978.321 622.571"><metadata/><path d="M63.478 622.397c-2.405-.389-6.468-2.855-9.028-5.48-4.376-4.49-4.515-5.461-2.327-16.253 7.465-36.815 10.219-131.61 4.655-160.262-1.279-6.588-2.303-14.172-2.275-16.853.029-2.682-.88-18.259-2.016-34.616-2.744-39.482-2.85-37.65 2.684-46.076l4.853-7.39-4.198-9.733c-2.309-5.353-6.79-14.291-9.96-19.861-14.25-25.049-14.927-27.102-15.109-45.817-.15-15.373-.947-19.269-5.762-28.134C17.34 217.83 8.545 190.891 6.344 174.8c-.299-2.181-1.12-5.304-1.824-6.94-.704-1.635-2.19-10.558-3.302-19.827-1.999-16.672-1.963-16.911 3.37-22.305 2.966-3 6.386-5.453 7.6-5.453 1.215 0 4.705-2.23 7.756-4.956 3.051-2.727 6.221-4.957 7.045-4.957.824 0 5.726-1.865 10.892-4.144 13.12-5.787 16.537-7.136 25.341-10.003 4.244-1.381 7.716-3.225 7.716-4.096s1.386-1.584 3.079-1.584c1.693 0 8.406-1.776 14.918-3.946 6.511-2.17 19.959-4.738 29.884-5.706 14.416-1.406 19.664-2.841 26.1-7.138 9.47-6.325 22.456-9.689 26.112-6.765 1.713 1.37 6.966.714 16.753-2.095 8.61-2.47 20.282-4.119 29.467-4.162 16.846-.078 32.716-3.273 47.788-9.62 10.674-4.495 30.893-5.673 36.352-2.117 2.588 1.685 2.006 2.905-3.6 7.549-3.679 3.046-6.691 6.366-6.695 7.377 0 1.011-4.171 3.488-9.26 5.505-10.657 4.223-12.487 7.856-2.578 5.117 3.67-1.014 6.931-1.844 7.246-1.844.315 0 5.331-4.538 11.148-10.084C311.124 49.76 315.56 48.123 327.82 51.47c6.137 1.675 13.428 2.12 20.286 1.24 28.246-3.625 83.552 2.224 82.722 8.75-1.412 11.104 3.926 15.791 15.996 14.047 8.216-1.187 10.144-.638 18.793 5.347 9.29 6.429 10.385 6.682 30.284 7.015 15.371.256 23.784 1.446 32.925 4.654 6.753 2.37 23.354 6.397 36.89 8.948 21.579 4.065 26.903 4.401 43.21 2.725 30.989-3.185 44.53-8.265 57.204-21.463 9.188-9.567 16.168-10.35 30.018-3.367l8.953 4.514 6.025-5.805c6.586-6.347 10.142-6.506 29.064-1.3 8.664 2.383 10.165 2.325 13.103-.506 4.342-4.184 1.995-7.544-5.268-7.544-3.19 0-6.94-1.324-8.332-2.941-2.102-2.44-1.596-3.285 2.968-4.957 3.026-1.109 8.62-2.016 12.432-2.016 5.788 0 8.224-1.548 14.783-9.395 15.058-18.013 25.404-23.455 47.978-25.239 35.551-2.809 43.911-4.374 59.07-11.058 4.764-2.1 12.171-4.7 16.462-5.778 4.29-1.078 13.4-3.4 20.243-5.161 11.713-3.015 13.522-2.98 30.864.588 22.058 4.539 23.662 7.64 6.938 13.415-6.317 2.18-14.792 6.46-18.834 9.507-4.094 3.086-11.768 6.318-17.322 7.295-30.622 5.383-42.121 11.296-17.673 9.088 17.368-1.57 20.815 1.173 13.14 10.45-8.67 10.478-10.592 15.875-10.821 30.39-.277 17.505-2.753 23.366-10.503 24.86-5.45 1.05-8.186 3.499-15.998 14.321-1.691 2.344-6.615 5.283-10.942 6.532-4.327 1.25-9.675 4.486-11.884 7.192-5.869 7.19-22.867 12.47-39.613 12.303-7.74-.076-15.842-1.051-18.004-2.166-3.214-1.657-3.93-1.354-3.93 1.663 0 4.908-7.774 11.676-15.432 13.436-7.554 1.736-22.613 12.078-36.32 24.942-5.638 5.292-11.146 9.622-12.24 9.622-1.095 0-9.135 4.487-17.868 9.97-14.862 9.334-15.416 9.927-8.675 9.286 9.183-.873 15.361-4.068 26.07-13.484 6.146-5.404 12.86-8.76 23.663-11.832 21.75-6.184 41.604-13.069 50.992-17.684 4.49-2.207 9.838-4.014 11.884-4.014 2.046 0 6.944-2.092 10.885-4.648 6.555-4.253 21.048-9.207 35.534-12.145 7.39-1.5 22.56 2.38 21.524 5.504-.432 1.302-5.183 5.49-10.56 9.307-10.277 7.296-10.664 8.727-6.278 23.2.964 3.18-.103 5.638-3.931 9.057-6.681 5.967-35.375 46.968-39.457 56.381-2.477 5.714-2.617 8.375-.706 13.466 3.486 9.29 1.005 16.014-6.953 18.845-9.91 3.525-33.176 7.715-39.265 7.071l-5.307-.561 6.363 5.728c5.986 5.388 6.804 5.584 13.792 3.303 9.728-3.174 29.157-2.38 39.52 1.616 6.134 2.365 8.529 4.56 9.364 8.586.855 4.117 4.64 7.451 15.842 13.953 12.334 7.158 17.054 8.744 29.123 9.783 15.736 1.356 25.638 5.147 34.783 13.318l5.933 5.302-4.29 3.348c-2.36 1.841-7.818 3.916-12.128 4.61-4.31.694-8.803 1.932-9.983 2.75-5.36 3.718-21.657 25.212-22.7 29.938-3.557 16.13-11.55 19.04-33.815 12.316-18.258-5.514-22.672-5.18-40.746 3.084l-15.68 7.17 5.839 4.838c4.932 4.089 7.495 4.72 16.53 4.076 5.88-.42 11.555-1.27 12.61-1.892 2.236-1.317 55.992 1.937 60.56 3.665 7.887 2.984 50.852 4.283 83.662 2.528 8.101-.433 15.322-.223 16.046.466 3.506 3.338-1.885 12.018-9.93 15.991-10.628 5.248-11.152 5.312-54.798 6.635-36.415 1.104-51.944 3.14-62.243 8.161-7.03 3.428-7.31 5.115-.578 3.487 7.077-1.712 19.582 5.789 18.192 10.911-.66 2.432-11.144 8.628-30.146 17.816-22.029 10.651-32.397 16.997-42.51 26.017-15.58 13.899-26.216 17.932-40.914 15.515-24.792-4.077-27.09-4.116-42.016-.73-13.894 3.153-15.858 3.188-22.225.39-16.622-7.305-56.183-17.155-65.626-16.34-7.844.677-6.136 3.876 3.086 5.782 4.527.936 11.749 3.099 16.049 4.807 6.54 2.598 7.717 3.94 7.201 8.212-.457 3.792-1.941 5.241-5.76 5.628-9.765.989-21.104 4.755-25.091 8.335-8.288 7.44-26.046 6.538-37.163-1.89-6.99-5.298-26.034-9.853-35.876-8.58-9.506 1.228-14.443-.068-46.932-12.312-60.895-22.95-62.098-23.278-80.965-22.052-13.607.883-18.205.467-22.119-2.004-4.69-2.96-6.84-8.612-3.276-8.612.915 0 3.325-1.17 5.356-2.6 6.762-4.765-17.247-1.645-29.227 3.797-9.694 4.404-11.658 4.68-17.88 2.512-6.516-2.27-7.806-1.961-18.947 4.541-6.575 3.838-17.973 9.047-25.329 11.577-7.356 2.53-14.824 5.785-16.596 7.234-1.772 1.448-6.401 3.215-10.288 3.927-3.886.712-7.992 1.96-9.124 2.776-1.132.815-7.15 2.098-13.375 2.852-6.224.755-14.094 2.149-17.49 3.098-27.491 7.69-38.664 10.92-49.182 14.22-13.182 4.136-17.412 2.543-13.231-4.984 1.628-2.932 1.477-3.615-.658-2.975-1.525.457-6.606 6.295-11.292 12.973-4.687 6.677-11.26 14.72-14.607 17.873-3.347 3.153-6.92 7.01-7.94 8.572-6.838 10.464-46.977 34.105-62.475 36.794-4.004.695-8.67 1.863-10.368 2.595-1.697.732-5.054 1.013-7.46.625zm58.021-49.08c3.88-3.524 7.053-8.248 7.053-10.497 0-3.556-.767-3.877-5.886-2.462-13.061 3.61-16.748 7.332-16.748 16.909 0 6.194 6.13 4.64 15.581-3.95zm640.798-62.235c0-2.329-6.017-4.505-8.45-3.056a2.125 2.125 0 00-.721 2.98c1.513 2.36 9.171 2.422 9.171.076zm31.602-18.87c3.43-2.704 4.99-5.166 3.743-5.909-1.176-.7-2.72-.367-3.431.742-.711 1.108-4.016 2.015-7.344 2.015-5.69 0-8.062 3.35-4.68 6.609 2.377 2.29 5.643 1.326 11.712-3.457zm-504.39-32.547c1.11-1.07 1.692-6.408 1.292-11.864-.4-5.455-.03-9.503.82-8.995.851.509 2.436-1.327 3.522-4.08 1.212-3.071 5.972-6.956 12.328-10.059 5.694-2.78 10.666-4.82 11.049-4.533.382.287 5.713-1.59 11.845-4.171 26.891-11.32 31.46-13.143 32.588-13.01.657.078 2.42-1.037 3.915-2.478 1.495-1.441 3.928-2.62 5.406-2.62 1.478 0 3.774-1.262 5.102-2.803 2.333-2.709 19.615-11.489 23.81-12.096 8.23-1.193 15.184-3.71 14.254-5.161-.612-.953 1.255-2.772 4.148-4.042s5.26-3.066 5.26-3.99c0-.925 3.704-3.109 8.23-4.854 4.527-1.745 8.231-3.826 8.231-4.624 0-.797 3.935-2.621 8.745-4.053 4.81-1.432 10.134-4.029 11.831-5.77 1.698-1.742 4.013-3.193 5.144-3.226 1.132-.033 9.924-3.825 19.539-8.427 9.614-4.601 18.91-8.366 20.658-8.366 1.748 0 8.52 1.34 15.05 2.98 13.673 3.431 18.086 2.104 22.914-6.893 3.686-6.867 1.422-14.906-4.726-16.787-7.051-2.156-10.413-7.864-11.767-19.976-1.532-13.707-.891-12.356-6.112-12.892-12.996-1.333-22.75 2.784-20.424 8.623.553 1.39-.442 5.864-2.21 9.944-1.77 4.08-2.67 8.27-2.002 9.313.67 1.042-.256 1.895-2.056 1.895s-3.855 1.562-4.566 3.47c-2.684 7.198-12.054 13.085-51.988 32.664-12.967 6.357-24.181 12.503-24.922 13.657-.74 1.154-1.938 2.02-2.66 1.925-1.326-.174-12.181 4.86-31.148 14.446-5.658 2.86-11.332 5.203-12.608 5.207-1.276.004-3.392 1.254-4.702 2.775-1.311 1.522-5.708 3.368-9.772 4.103-7.135 1.29-29.53 10.865-34.35 14.688-1.294 1.026-10.673 5.18-20.841 9.23l-18.489 7.363-9.593-5.196c-13.402-7.26-18.89-6.839-24.215 1.857-2.375 3.879-4.319 7.886-4.319 8.905 0 1.019 5.093 4.622 11.317 8.007 6.225 3.384 11.784 6.881 12.354 7.77 1.61 2.51 1.63 10.279.045 16.957-1.217 5.13-.704 6.38 3.33 8.115 5.036 2.165 17.246.442 20.743-2.928zm248.15-13.248l6.132-4.972-2.968-10.953c-2.6-9.595-2.594-11.315.051-13.865 1.662-1.6 3.782-2.939 4.711-2.973.93-.035 4.237-2.222 7.349-4.862 7.243-6.143 7.081-12.656-.457-18.386-6.767-5.143-11.794-4.156-23.81 4.676-7.2 5.292-19.186 6.936-24.143 3.313-1.384-1.012-7.146-3.48-12.804-5.487-5.659-2.005-13.529-5.004-17.49-6.664-3.96-1.66-7.665-3.108-8.23-3.217-.566-.11-6.388-2.171-12.938-4.582-15.01-5.524-21.071-5.443-30.962.415-8.922 5.284-8.588 5.689 9.4 11.351 7.092 2.233 17.783 6.204 23.758 8.826 5.975 2.621 12.17 4.766 13.768 4.766 1.597 0 3.413.793 4.034 1.763.622.97 3.404 2.313 6.183 2.985 2.778.672 11.641 4.077 19.696 7.567l14.645 6.344-.48 10.002c-.263 5.501.637 12.01 2.001 14.463 3.492 6.282 14.484 6.033 22.554-.51zm217.612-41.949c9.171-4.586 10.685-9.579 2.91-9.604-6.882-.022-22.868 4.862-26.91 8.222-1.787 1.485-4.565 2.728-6.173 2.763-2.222.048-2.07.688.633 2.666 4.572 3.346 18.6 1.424 29.54-4.047zm-365.32-42.342c4.482-2.203 8.148-4.714 8.148-5.578 0-.865-6.713-4.092-14.918-7.17-8.204-3.08-19.547-7.604-25.205-10.055-5.659-2.45-17.233-7.358-25.72-10.905-32.282-13.49-37.04-15.955-37.35-19.348-.49-5.325-.935-6.981-3.482-12.958-1.308-3.07-2.378-6.395-2.378-7.39 0-.994-2.344-3.287-5.209-5.096-3.947-2.492-6.76-2.86-11.617-1.518-10.805 2.986-11.823 7.118-4.897 19.873l6.056 11.15-4.227 3.204a1532.79 1532.79 0 01-9.564 7.168c-2.936 2.181-5.61 5.75-5.944 7.931-.334 2.181-1.287 4.456-2.118 5.055-2.407 1.735 4.272 9.551 11.046 12.927 8.067 4.02 16.088 2.247 23.483-5.19 3.2-3.22 7.286-5.852 9.08-5.852 1.793 0 13.657 3.497 26.364 7.773 12.706 4.275 23.102 7.288 23.102 6.696 0-.592 1.396.04 3.102 1.404 3.382 2.705 27.163 11.615 31.445 11.781 1.46.057 6.321-1.7 10.803-3.902zm464.424-1.21c6.568-1.696 5.742-4.698-1.292-4.698-5.624 0-15.912-3.266-26.822-8.515-3.917-1.885-5.149-1.866-5.83.088-.475 1.363-3.215 2.479-6.088 2.479-9.098 0-1.89 5.04 11.2 7.831 6.521 1.39 12.783 2.804 13.915 3.14 3.56 1.059 10.113.916 14.917-.325zm-44.392-25.731c3.247-1.934-3.938-6.725-10.086-6.725-2.652 0-7.3-1.561-10.33-3.47-3.028-1.908-4.878-2.487-4.11-1.285.859 1.342-1.747 3.091-6.766 4.54-9.084 2.623-10.575 5.592-3.534 7.04 2.546.523 6.482 1.378 8.745 1.898 5.203 1.197 23.006-.167 26.08-1.998zm-399.618-6.894c10.355-2.14 13.818-5.231 15.546-13.88.426-2.132 2.728-6.52 5.116-9.752 3.426-4.635 4.432-9.226 4.773-21.769.237-8.742-.165-15.894-.893-15.894-3.31 0-6.328 6.431-5.344 11.389 1.675 8.443-3.435 17.524-13.206 23.467-5.56 3.383-9.094 4.523-9.588 3.095-1.46-4.22-8.718-2.397-10.727 2.695-1.076 2.726-2.465 4.956-3.087 4.956-.622 0-2.01-2.23-3.086-4.956-1.944-4.926-10.288-7.21-10.288-2.817 0 3.564-13.015-.125-16.988-4.815-1.987-2.346-4.646-8.07-5.91-12.719-2.388-8.792-14.226-21.037-15.836-16.382-.453 1.31.206 3.375 1.465 4.588 1.26 1.213 2.29 6.444 2.29 11.624 0 5.594 1.086 10.062 2.675 11.004 4.297 2.547 11.252 13.125 12.035 18.306 1.677 11.092 26.673 16.899 51.053 11.86zm-35.451-32.722c2.987-2.88 3.427-2.88 5.1 0 2.012 3.466 8.903 4.256 10.836 1.242.768-1.198 3.087-1.09 6.233.292 5.833 2.56 12.265-1.041 10.368-5.806-.672-1.687-.089-2.494 1.45-2.006 1.415.45 2.869 2.754 3.23 5.123.835 5.465 3.221 5.449 8.545-.058 3.2-3.31 4.133-6.702 3.863-14.045-.312-8.495.378-10.26 5.635-14.4 3.295-2.597 7.234-4.753 8.753-4.792 4.173-.108 11.733-6.612 11.605-9.985-.062-1.636.628-6.98 1.534-11.875 1.035-5.59.802-11.12-.628-14.87-4.172-10.938-4.414-18.323-.777-23.671 2.662-3.916 3.268-8.2 2.597-18.361-.519-7.849-1.88-13.576-3.339-14.044-1.354-.435-1.94-1.607-1.3-2.605.64-.997.128-1.813-1.137-1.813-1.265 0-1.7-.935-.968-2.078 1.617-2.52-12.489-15.766-16.79-15.766-1.683 0-2.57-.767-1.968-1.704 1.301-2.03-15.034-8.575-17.595-7.05-.975.581-1.774-.334-1.774-2.034 0-1.7-1.157-3.207-2.572-3.347-16.47-1.64-22.818-1.188-35.494 2.523-7.921 2.32-16.01 4.99-17.976 5.932-1.965.943-4.447 1.714-5.516 1.714-3.352 0-15.483 8.551-20.635 14.546-8.758 10.19-15.004 35.241-8.718 34.959 3.883-.174 8.607-5.917 8.607-10.463 0-6.376 7.359-14.183 15.093-16.013 3.208-.758 7.77-3.118 10.138-5.244 4.886-4.386 6.57-3.895 4.795 1.397-1.378 4.11-10.518 8.818-14.36 7.397-1.403-.519-4.27.887-6.37 3.123-3.725 3.965-3.721 4.14.129 6.947 3.555 2.592 3.594 2.885.387 2.942-2.063.037-4.11 2.17-4.866 5.072-.718 2.755-3.05 5.91-5.183 7.01-4.332 2.234-5.42 13.46-1.657 17.087 1.59 1.533.973 4.782-2.174 11.439-3.884 8.216-4.134 10.493-2.151 19.57 3.037 13.9 7.124 18.216 21.65 22.869 12.705 4.069 19.671 11.201 19.037 19.49-.317 4.147 6.2 14.506 9.125 14.506 1.082 0 3.44-1.417 5.238-3.15zm-1.506-31.383c0-4.65 7.527-24.399 10.587-27.778 2.173-2.399 20.172 16.552 20.232 21.3.024 1.98-.96 5.41-2.188 7.622-2.221 3.998-2.262 3.996-7.218-.49l-4.984-4.512-8.214 4.225-8.215 4.226v-4.593zm42.18-28.913c-.698-1.09-3.794-1.983-6.879-1.983-3.947 0-6.582-1.614-8.9-5.453-7.808-12.928 8.62-27.693 26.107-23.464 13.4 3.24 17.968 18.685 8.285 28.016-5.175 4.987-16.17 6.69-18.612 2.884zm-66.83-4.196c-9-3.46-12.387-7.843-12.387-16.029 0-11.712 6.953-17.447 21.153-17.447 12.187 0 18.295 4.165 20.736 14.14 1.374 5.614-2.053 17.652-5.704 20.031-3.162 2.061-17.736 1.635-23.797-.695zm325.178-26.04c5.837-6.744 4.947-11.953-1.352-7.901-2.242 1.443-6.995 9.08-6.995 11.24 0 2.678 4.8.758 8.347-3.34zm43.132-25.776l4.313-4.461-4.748-1.29c-9.252-2.512-15.038-1.74-17.697 2.362-3.563 5.497-1.52 7.85 6.818 7.85 4.61 0 8.473-1.523 11.314-4.461zM420.675 92.594c3.459-2.108 3.755-1.966-12.719-6.066-13.093-3.259-24.084-.317-24.229 6.485-.045 2.152 33.352 1.772 36.948-.42z"/></svg>