<svg xmlns="http://www.w3.org/2000/svg" width="1856.072" height="1942.327"><metadata/><path d="M751.743 1602.715v3.97c.924.21 1.85.414 2.768.644 2.565.73 5.103 1.538 7.609 2.424 1.203.381 2.399.78 3.588 1.197a125.104 125.104 0 017.744 3.293c1.009.43 2.01.872 3.006 1.328a122.483 122.483 0 017.836 4.248c.787.43 1.568.868 2.344 1.314a119.627 119.627 0 017.789 5.25c.586.4 1.168.804 1.746 1.213 2.61 1.98 5.125 4.061 7.54 6.237.422.353.84.71 1.255 1.068a113.455 113.455 0 017.08 7.152c.298.307.594.615.888.924a110.463 110.463 0 016.413 7.947c.217.276.433.552.648.829 2.07 2.872 3.99 5.833 5.754 8.87l.293.467c1.782 3.103 3.4 6.282 4.848 9.526l.18.363a103.1 103.1 0 013.855 10.113l.052.147a35.953 35.953 0 00-18.539-5.191c-19.856 0-35.953 16.096-35.953 35.953 0 19.856 16.097 35.953 35.953 35.953a35.955 35.955 0 0018.545-5.201 102.96 102.96 0 01-2.508 6.738c-.343.896-.7 1.788-1.068 2.676a104.833 104.833 0 01-3.799 7.771c-.38.74-.768 1.474-1.166 2.205a107.25 107.25 0 01-4.545 7.254c-.489.749-.987 1.493-1.496 2.23a110.028 110.028 0 01-5.203 6.659 110.82 110.82 0 01-1.842 2.215 112.997 112.997 0 01-5.775 6.015c-.731.737-1.474 1.465-2.227 2.184a116.092 116.092 0 01-6.166 5.258c-.896.74-1.804 1.47-2.724 2.185-1.255.936-2.536 1.84-3.83 2.729-.88.604-1.764 1.207-2.662 1.789a120.03 120.03 0 01-3.125 2.043 122.07 122.07 0 01-6.739 3.781c-1.184.646-2.38 1.273-3.588 1.88a124.795 124.795 0 01-6.814 3.015c-1.354.58-2.72 1.139-4.096 1.673-2.237.82-4.5 1.576-6.787 2.27-1.511.49-3.033.951-4.564 1.385-.836.219-1.677.422-2.518.625l43-5.787 44.408-13.358 63.7 11.986c29.716 9.93 58.974 22.15 91.267 19.194l22.816 2.525c10.958 2.304-.726 5.854-4.457 10.606-10.796 11.37-12.578 23.15 6.15 35.861 21.024 7.118 46.404 4.975 57.49 33.213l7.91 24.555.722 6.199.637-1.977.636 1.977-.017-3.899 8.65-26.855c11.085-28.238 36.465-26.095 57.488-33.213 18.73-12.712 16.947-24.492 6.15-35.861-3.73-4.752-15.414-8.302-4.456-10.606l22.816-2.525c13.64-.178 25.255-1.568 35.856-3.569 20.654-3.897 37.183-10.272 55.412-15.625l63.703-11.986 44.404 13.358 43 5.787c-.84-.203-1.681-.406-2.517-.625a127.704 127.704 0 01-4.565-1.385c-2.287-.694-4.55-1.45-6.787-2.27a125.527 125.527 0 01-4.096-1.673 124.795 124.795 0 01-6.814-3.014 122.942 122.942 0 01-3.588-1.881 122.07 122.07 0 01-6.738-3.781 120.03 120.03 0 01-3.125-2.043 119.983 119.983 0 01-2.662-1.79 118.839 118.839 0 01-3.83-2.728c-.92-.716-1.829-1.444-2.725-2.185a116.092 116.092 0 01-6.166-5.258 114.007 114.007 0 01-2.227-2.184 112.997 112.997 0 01-5.775-6.015 110.82 110.82 0 01-1.842-2.215c-1.825-2.16-3.56-4.38-5.203-6.658a108.072 108.072 0 01-1.496-2.23 107.25 107.25 0 01-4.545-7.255c-.398-.73-.786-1.466-1.166-2.205a104.833 104.833 0 01-3.799-7.771c-.369-.888-.725-1.78-1.068-2.676a102.96 102.96 0 01-2.508-6.738 35.955 35.955 0 0018.545 5.2c19.856 0 35.953-16.096 35.953-35.952 0-19.857-16.097-35.953-35.953-35.953a35.953 35.953 0 00-18.54 5.19l.054-.146a103.1 103.1 0 013.855-10.113l.18-.363a105.191 105.191 0 014.847-9.526l.293-.466a107.665 107.665 0 015.754-8.871c.215-.277.431-.553.649-.829a110.463 110.463 0 016.412-7.947c.294-.31.59-.617.888-.924a113.455 113.455 0 017.08-7.152c.416-.359.834-.715 1.254-1.068a116.543 116.543 0 017.541-6.237c.578-.409 1.16-.813 1.747-1.213a119.627 119.627 0 017.789-5.25c.775-.446 1.557-.884 2.343-1.314a122.483 122.483 0 017.836-4.248 124.63 124.63 0 013.006-1.328c2.538-1.182 5.12-2.28 7.744-3.293 1.19-.417 2.385-.816 3.588-1.197a127.322 127.322 0 017.61-2.424c.918-.23 1.843-.435 2.767-.645v-3.969H751.743z" fill="#2a271e" stroke-width=".25" stroke-linejoin="round"/><path d="M1082.492 594.007c-104.218.717-208.06 32.24-294.682 90.296-99.841 66.168-176.123 166.932-212.745 280.973-28.12 86.624-33.878 180.469-15.861 269.785 23.132 117.562 87.038 226.587 178.514 304.016 69.562 59.295 154.477 100.202 244.165 117.823 106.323 21.17 218.982 8.83 318.21-34.817 106.797-46.283 197.405-128.581 253.852-230.348 61.074-108.99 82.362-239.767 58.195-362.41-22.494-119.107-87.117-229.665-179.776-307.813-92.195-78.753-211.86-124.192-333.026-127.218-5.612-.25-11.23-.317-16.846-.287z" fill="#a4a4a6" stroke-width="2"/><path d="M70.983.003c-9.294.069-18.83 1.942-25.264 3.08-10.265 1.814-16.446 7.76-17.625 22.39-1.898 23.552-.517 49.463 1.67 72.936 1.99 21.362-18.743 7.132-18.525 24.494.247 19.742-3.692 48.088 1.51 66.75 2.42 8.684 13.932-.675 17.31 7.047 7.287 16.659 2.227 51.323 2.482 69.842.12 8.64 4.944 49.019-1.015 53.453C20.594 328.128.402 308.01.038 332.035c-.315 20.726 1.448 41.264 1.584 61.956.185 28.33 14.066 24.102 30.675 24.619 7.576.235 4.634 22.574 4.934 31.621.335 10.09.526 20.18.644 30.28.425 36.105.426 72.224.383 108.333-.046 38.602-.193 77.207-.6 115.805-.077 7.466 3.16 51.102-3.41 53.84-4.895 2.04-14.217-.537-15.47 9.168-1.408 10.901-.725 22.974-.83 33.984-.103 10.714-4.184 39.985 2.26 49.2 4.05 5.793 20.736 2.619 20.738 7.546 0 15.75.018 31.502.018 47.252.025 78.024.38 156.04 1.187 234.057.068 6.645 2.97 27.525-.658 32.508-5.79 7.951-7.972 6.57-15.723 7.582-3.254.425-5.41 1.736-5.976 6.105-2.614 20.165-.425 42.966-.156 63.287.133 10.11-1.551 24.495 6.421 29.91 4.792 3.255 15.499-1.959 15.729 7.776.272 11.523.345 23.056.46 34.584.254 25.184-.581 49.502.41 74.53 2.885 72.939 1.042 146.747 1.577 219.804.483 65.955 1.079 131.907 1.16 197.867.023 19.22.105 38.448.514 57.66.112 5.257-1.436 19.807 2.63 23.477 3.713 3.35 13.735-12.14 13.747-17.116.026-10.933 27.707-30.848 34.521-37.292 1.319 16.909 18.738-8.05 18.715-13.698l-.193-47.181c-.068-16.684-.173-33.371-.154-50.055.015-6.961-2.082-24.13 1.646-30.268 6.824-11.23 26.301 19.076 31.758 24.188 17.56 16.447 38.142 26.147 59.51 26.35 16.283.153 35.868-6.77 49.177-20.036 8.134-8.107 15.572-17.989 21.461-29.187 2.903-5.52 5.43-11.428 7.405-17.678 1.8-5.7 2.061-17.687 5.19-21.982 8.069-11.083-3.992-52.772-8.587-63.037-8.92-19.932-23.65-31.716-40.52-32.264-15.79-.514-34.23 1.085-44.56 20.568-3.552 6.7.317 20.856 3.018 26.858 4.847 10.773 13.13 6.04 21.127 8.498 15.015 4.613 20.38 31.577 5.705 42.828-16.171 12.397-37.68-5.26-48.625-21.713-21.488-32.3-21.728-82.606-22.465-123.508-.346-19.207-4.186-43.404-1.205-62.389 2.07-13.178 8.508-5.7 15.37-1.246 9.412 6.108 19.782 9.588 29.981 12.123 37.275 9.265 82.234-2.886 107.102-45.963 7.106-12.31 14.85-26.624 20.611-42.449 8.37-22.992 9.433-42.408 9.381-67.855-.093-45.68-18.925-90.13-49.715-109.36-17.978-11.228-38.097-11.311-55.58 1.641-7.264 5.381-13.366 12.678-17.865 22.223-3.48 7.381-11.705 23.25-11.283 32.486.829 18.152 21.96 33.41 33.611 24.846 6.188-4.55 3.872-17.632 11.18-22.436 9.187-6.039 19.992-2.082 27.334 6.852 25.18 30.642 14.212 85.138-10.2 108.832-28.144 27.317-73.146 12.32-96.501-19.022-10.323-13.852-23.11-53.235-13.54-72 4.78-9.373 17.192 1.318 20.971-8.38 2.11-5.417 1.068-15.46 1.104-21.303.13-20.817.168-42.308-1.99-62.957-1.298-12.412-9.837-12.156-17.116-15.866-9.357-4.768-6.951-20.564-7.22-32.119-2.241-96.206-.475-192.573-4.102-288.728 6.013-.337 17.39 1.888 22.453-3.746 8.246-9.177 4.099-43.341 4.03-55.205-.062-10.556.356-21.807-.948-32.264-.587-4.705-12.166-3.737-15.056-4.717-14.197-4.812.104-40.595 3.664-50.389 15.98-43.974 56.665-70.303 91.53-63.783 29.863 5.584 52.552 40.55 49.63 82.244-1.217 17.366-11.175 43.685-27.506 38.758-15.652-4.722-24.446-42.423-42.475-20.857-12.82 15.336-1.594 49.169 8.721 62.033 12.555 15.657 27.327 27.074 45.006 26.906 38.733-.368 65.628-44.567 70.736-94.043 5.96-57.732-10.481-109.093-43.754-145.267-23.727-25.798-57.562-30.504-86.664-25.262-2.689.484-29.646 10.111-29.135 4.404 1.437-16.025 22.402-38.14 30.6-48.465 11.192-14.094 23.471-26.652 36.834-36.605 8.325-6.2 27.922-22.728 37.78-17.28 5.321 2.942 3.422 15.501 7.363 20.862 6.463 8.794 20.194 6.952 28.312 7.03 8.852.083 23.002 3.32 31.041-3.7 8.633-7.539 4.144-28.367 17.121-25.447 19.696 4.431 47.947 14.038 61.778 35.008 8.214 12.454 12.934 30.581 2.832 43.117-12.921 16.033-18.31-6.14-29.883-10.291-10.558-3.788-20.594 7.1-19.485 21.52.225 2.925 8.476 42.574 10.086 39.609a25.621 25.621 0 01-.474-5.653c.75-.572 15.608 17.003 18.795 18.725 6.783 3.666 13.353 5.969 20.642 5.408 15.81-1.215 29.348-5.466 42.43-18.373 30.153-29.751 20.745-98.004 1.916-132.166-4.648-8.432-10.021-16.203-15.535-23.566-4.626-6.178-12.713-12.03-15.817-19.764-3.421-8.525 4.729-6.948 8.02-7.113 19.372-.971 38.776-1.08 58.158-1.317 47.838-.585 95.746-1.31 143.58.112 3.823.113 7.956-.24 11.737.722 5.925 1.509 4.458 9.076 5.212 15.116 1.056 8.445 7.213 9.228 12.448 9.73 6.437.618 12.924.348 19.377.697l85.35.862.06.015c12.094.145 33.675 4.95 31.828-17.549-1.47-17.922 20.222-10.9 29.389-11.113 22.026-.512 44.084-1.081 66.113-.78 16.103.222 24.183-1.233 26.135 21.409.86 9.978 15.46 5.121 21.77 5.121 12.952 0 25.905.084 38.857-.082 1.95-.025 4.825.314 7.875.443V546.436h128.48l1.245-106.877v-.008c9.61.693 20.346-1.267 28.322-1.326 12.553-.092 29.116 3.206 41.246-2.893 5.092-2.56 3.704-9.77 3.996-15.697.837-16.972 52.518-9.985 59.17-10.139 16.24-.373 32.54-1.063 48.78-.343 13.003.575 6.648 8.764 14.677 19.99 5.769 8.066 18.252 6.442 27.408 5.77l.047-.01.12-.005c1.557-.113 3.043-.203 4.35-.203.08 0 .153.046.23.067l82.09-2.424.024.023c11.33-1.34 23.894 4.57 25.606-15.28 1.187-13.77 7.987-10.504 16.445-10.638 33.197-.524 66.396-.973 99.594-1.447 57.862-.826 117.7 6.342 174.045-13.869 61.167-21.942 97.303-128.899 47.693-195.688-26.589-35.792-71.325-37.2-96.363 1.844-6.635 10.346-13.57 22.121-7.83 33.947 11.593 24.063 35.978-11.549 48.953 12.53 8.484 15.743.55 37.827-10.262 46.678-14.971 12.257-34.526 13.796-51.474 14.53-7.864.342-34.647 5.996-40.684-4.698-4.59-8.131 6.801-32.11 9.014-38.778 13.162-39.664 22.369-88.6 8.322-130.904-16.877-50.83-45.653-80.647-85.713-90.563-36.57-9.05-75.315 23.392-93.686 64.82-6.514 14.691-13.578 47.362.856 58.182 22.794 17.087 26.236-20.832 39.039-34.64 31.413-33.88 82.283-6.048 82.447 51.02.16 55.229-29.42 95.977-65.543 113.892-17.427 8.643-36.067 11.165-54.482 11.59-5.728.132-11.46.07-17.188.076-8.052.009-5.873-5.326-10.918-13.416-4.627-7.421-13.842-5.261-20.195-5.387-20.582-.407-41.173.108-61.754.424-14.517.223-29.162-.115-43.646 1.478-4.013.442-10.538.48-12.834 6.108-3.214 7.875-.857 12.42-8.725 12.773-6.517.294-13.038.688-19.56.5-13.436-.385-10.06-7.944-3.825-19.162 22.558-40.578 34.93-106.295 10.157-149.836-24.247-42.615-66.437-50.865-100.477-24.687-10.972 8.437-33.021 37.042-23.41 55.406 17.999 34.393 31.512-2.548 53.469-2.057 19.023.426 32.22 18.943 25.748 44.473-6.056 23.884-23.087 37.46-40.83 39.268-5.419.551-14.809 2.033-15.961-7.967-.956-8.291-3.97-18.6-11.282-19.35-18.038-1.848-38.215 1.14-56.377 1.977-9.356.431-18.287 2.198-18.287 18.375 0 10.498-11.916 7.022-17.224 7.23-24.444.961-48.945 1.503-73.399 1.033-9.686-.185-9.634-.75-13.619-14.185-3.716-12.53-19.284-9.408-26.908-9.559-11.448-.226-22.899-.312-34.348-.17-4.908.062-13.147-1.856-16.742 4.268-3.916 6.67-.146 15.98-3.475 22.121-3.864 7.129-18.574 2.457-23.52 1.535-16.858-3.141-32.668-14.173-39.507-36.715-8.697-28.668 10.298-57.567 31.094-54.11 6.836 1.135 12.105 11.229 18.941 9.778 8.511-1.805 11.062-17.145 12.04-26.697 2.157-21.083-23.515-36.555-35.276-39.9-35.463-10.087-73.092 20.608-83.033 68.855-7.48 36.298.986 75.662 18.57 103.469 3.873 6.124 17.866 21.172 15.871 30.076-1.696 7.57-20.865 4.06-24.834 4.012-2.481-.03-9.78 1.532-9.78-4.121 0-3.693-6.11-15.95-9.429-15.932l-60.484.324c-15.682.084-31.384-.04-47.06.604-5.744.236-15.887-1.204-20.815 4.203-3.091 3.391-.433 11.77-4.264 13.775-4.938 2.585-45.396 9.39-45.396-4.224 0-7.321 8.337-18.628 11.672-23.545 6.675-9.843 12.302-21.233 16.503-33.383 5.422-15.678 9.538-36.983 7.504-54.19-5.362-45.368-25.097-76.582-57.33-87.708-16.263-5.614-35.93.268-49.818 12.832-10.546 9.54-30.7 36.995-21.56 57.183 10.235 22.611 29.868-.034 42.093-3.04 22.304-5.486 29.113 20.511 15.986 42.792-12.154 20.632-31.712 31.4-50.101 36.844-8.153 2.414-44.66 14.704-48.461-3.072-2.22-10.386 2.789-19.234 5.318-28.44 3.104-11.294 5.65-22.97 7.604-34.738 4.11-24.767 3.844-51.134-4.096-74.453-14.895-43.747-47.967-65.567-80.71-73.793-38.726-9.73-81.9 17.742-92.259 72.57-3.636 19.247.669 45.43 11.871 58.98 5.565 6.73 15.872 2.05 21.036-3.087 5.663-5.325 6.311-4.871 3.574-13.37-17.757-55.134 50.609-65.36 69.29-26.658 21.738 45.033-5.418 104.741-38.403 120.467-11.59 5.525-45.801 22.35-45.801-6.521 0-24.34-39.36-14.536-51.192-14.112-4.672.168-17.448-2.333-19.375 5.727-.847 3.544-.904 20.8-2.814 23.224-1.661 2.11-11.085.745-13.232.643-33.627-1.604-65.073-9.409-95.752-28.992-5.078-3.241-36.012-27.071-24.778-39.227 7.495-8.109 11.246-10.484 13.66-23.933 2.086-11.619.08-22.997-1.017-34.703-1.175-12.522-5.698-16.485-15.25-16.485-7.937 0-11.731-4.94-7.29-15.125 11.52-26.414 35.678-30.84 54.094-15.299 6.993 5.902 9.842 16.88 8.55 27.916-.653 5.567-2.487 11.074-5.68 14.762-2.07 2.391-8.505 4.387-8.432 9.227.408 27.074 33.451 18.67 42.686 9.605 17.358-17.04 18.682-51.752 12.789-77.197-6.699-28.92-23.905-46.926-43.637-58.025-19.484-10.962-42.44-9.33-62.211.417-5.679 2.8-53.56 45.53-50.883 49.206-8.316-11.422 4.419-43.247-6.248-55.116C89.331 1.664 80.28-.067 70.987.002zm33.555 231.234c2.51.252 9.121 20.625 11.103 24.14 5.532 9.815 11.937 18.846 18.842 26.846 10.453 12.111 22.02 21.565 32.107 34.469l-3.906 2.039c-8.263 4.315-20.464 1.892-29.086 1.73-10.3-.191-24.536 4.172-27.346-13.003-1.156-7.072-2.959-76.346-1.714-76.221zm80.947 185.836c12.536.042 25.039.482 37.455 1.681 1.702.164 4.196.1 5.601 1.727 7.028 8.135-5.532 15.4-9.58 18.809-14.618 12.307-28.075 27.924-40.533 44.03-4.99 6.452-24.14 25.77-24.14 36.417 0 4.667-7.43 11.93-9.4 14.86-4.658 6.921-8.354 14.739-12.304 22.407-5.956 11.568-12.057 39.226-20.48 46.375-.29.247-1.354-23.283-1.361-24.65-.112-21.238.095-42.474-.118-63.713-.32-32.112-1.636-64.18-2.11-96.289 23.714-.148 47.701-1.527 71.595-1.648 1.792-.01 3.584-.012 5.375-.006z"/><path d="M1047.867 600.968c-25.796 3.431-51.907 5.028-77.114 11.874-18.707 3.606-36.974 8.798-54.881 15.287-25.098 7.218-48.353 19.247-72.15 29.766-22.13 13.012-45.22 24.531-65.489 40.443-15.836 10.612-30.651 22.512-44.625 35.47-20.298 16.418-37.029 36.547-54.845 55.495-15.32 20.608-32.104 40.213-44.579 62.766-10.45 15.938-19.458 32.664-27.282 50.038-12.306 23.03-19.876 48.091-28.908 72.487-6.085 24.938-13.908 49.523-16.613 75.145-3.42 18.756-5.206 37.675-5.645 56.73-1.69 22.804-1.065 45.748.966 68.496 2.983 23.508 4.764 47.224 11.032 70.165 3.604 18.708 8.797 36.975 15.286 54.882 7.217 25.098 19.246 48.354 29.765 72.15 13.012 22.131 24.532 45.22 40.443 65.49 10.612 15.837 22.512 30.651 35.471 44.625 16.418 20.297 36.546 37.029 55.494 54.846 20.607 15.32 40.212 32.104 62.766 44.578 15.938 10.451 32.665 19.46 50.039 27.283 23.029 12.306 48.09 19.876 72.484 28.908 24.938 6.085 49.523 13.908 75.145 16.614 18.756 3.42 37.676 5.205 56.73 5.645 22.804 1.69 45.748 1.064 68.496-.966 23.508-2.983 47.224-4.762 70.166-11.032 18.707-3.605 36.974-8.798 54.881-15.287 25.1-7.219 48.358-19.25 72.157-29.77 22.126-13.008 45.21-24.524 65.474-40.433 15.838-10.614 30.655-22.515 44.63-35.477 20.298-16.418 37.03-36.546 54.846-55.494 15.32-20.607 32.104-40.212 44.579-62.766 10.451-15.937 19.458-32.664 27.282-50.037 12.306-23.03 19.876-48.092 28.908-72.488 6.086-24.943 13.91-49.534 16.618-75.162 3.42-18.744 5.2-37.652 5.64-56.694 1.692-22.81 1.066-45.761-.966-68.515-2.982-23.509-4.761-47.225-11.031-70.167-3.606-18.707-8.798-36.973-15.287-54.88-7.218-25.1-19.25-48.36-29.77-72.16-13.008-22.125-24.524-45.21-40.433-65.473-10.614-15.838-22.515-30.656-35.476-44.632-16.417-20.298-36.546-37.029-55.494-54.845-20.607-15.32-40.212-32.105-62.765-44.58-15.938-10.45-32.664-19.458-50.038-27.281-23.03-12.307-48.09-19.876-72.486-28.909-24.944-6.086-49.534-13.91-75.163-16.618-18.742-3.42-37.65-5.2-56.691-5.64-20.555-1.82-40.995-.662-61.568.123z" stroke-width="2"/><path d="M1084.115 697.071c-172.754-.942-340.636 112.258-402.482 273.76-52.71 134.06-34.811 294.745 50.448 411.584 84.933 118.07 231.749 190.763 377.64 180.572 131.75-7.927 259.695-77.794 333.191-188.052 72.523-106.635 96.41-246.53 57.12-370.019-36.976-121.73-129.386-226.584-248.11-274.006-52.99-22.11-110.333-34.078-167.807-33.839z" fill="#639580" stroke-width="2"/><path d="M1081.89 720.675c-164.011.178-322.32 109.11-379.866 262.65-53.538 139.09-24.677 307.37 75.747 418.317 92.185 103.912 239.442 157.66 376.773 132.594 129.84-22.6 247.866-110.147 302.531-230.54 53.385-115.432 51.556-256.406-10.674-368.1-60.921-111.519-175.33-193.765-302.075-210.438-20.662-3.031-41.547-4.633-62.435-4.483z" fill="#1a1b1d" stroke-width="2"/><path d="M778.928 824.043l612.891 612.891M1084.115 697.071l1.27 866.854M651.951 1130.5h866.862M778.898 1436.988l612.776-612.775" fill="none" fill-rule="evenodd" stroke="#000" stroke-width="11.3"/><path d="M1078.467 731.978C919.92 733.725 767.891 839.698 712.23 988.08c-53.223 138.794-21.206 306.866 81.683 414.762 96.435 102.52 249.524 149.84 386.528 114.665 127.256-31.675 237.798-128.509 280.596-253.016 41.836-117.959 26.25-256.204-46.268-359.072-71.282-103.146-192.754-171.53-318.874-173.221a441.308 441.308 0 00-17.428-.22z" fill="#a5a3a4" stroke-width="2"/><path d="M1029.679 513.407c-1.077 0-1.782 6.566-1.782 6.566l1.32 26.463-13.767-.2-1.894 11.491-6.188.504c-5.12-2.372-4.414-6.254-5.303-9.723l-1.388-3.408c-2.163-4.528-4.217-3.704-6.883-.506l-1.072 5.43h-5.178c-2.585 5.575-6.131 7.376-11.238 3.031-1.915-3.431-4.693-3.152-5.366.252-5.491-.226-11.931.888-14.912-9.879.127-5.295-2.575-3.989-4.285-5l-.715-3.213c-3.424-2.072-3.341-8.704-12.857-2.857v5.715l-3.912.588-1.64 3.535c-1.689 6.725-6.63 8.211-11.24 10.228-7.35 3-15.272 2.767-23.107 3.03l-9.209.744c-2.174.562-4.4.035-5.609 1.697-1.334 2.47-1.773 5.243-.728 8.664 1.158 2.212 1.605 1.76 3.404 1.729 2.298-1.2 4.874-.73 7.398-.573 26.917 2.97 35.017 11.047 38.573 20.358 3.789.36 4.763 2.471 4.203 6.45 4.562 6.152 6.775 2.915 10.082 2.478 1.044-2.111 2.191-2.741 1.95-4.21-.218-1.336-.617-3.828 2.136-4.206l4.129-.512c-2.225-10.204 6.441-10.555 13.837-12.055 2.007 4.183 3.865 9.256 7.948.983 1.82-2.5 4.78-1.01 7.5-.358l5 5.358c.916-.477 1.783-1.46 2.857-.358 3.037 1.273 1.31 3.048 1.485 4.621 1.78 2.384 3.501 5.258 5.933 2.272l3.031-10.985c1.329-2.987 3.02-2.71 4.672-2.777l6.188.504.377 35.986s20.709 1.643 20.33.885c-.379-.758-2.778-8.334-2.778-8.334l1.172-16.807 61.305-2.462 61.305 2.462 1.172 16.807s-2.401 7.576-2.78 8.334 20.33-.885 20.33-.885l.38-35.986 6.187-.504c1.652.067 3.343-.21 4.672 2.777l3.029 10.985c2.432 2.986 4.154.112 5.935-2.272.175-1.573-1.552-3.348 1.485-4.62 1.074-1.104 1.94-.12 2.857.357l5-5.358c2.72-.653 5.68-2.142 7.5.358 4.083 8.273 5.94 3.2 7.946-.983 7.396 1.5 16.064 1.85 13.84 12.055l4.126.512c2.753.378 2.354 2.87 2.135 4.207-.24 1.468.91 2.098 1.953 4.209 3.307.437 5.52 3.674 10.082-2.479-.56-3.978.414-6.088 4.203-6.45 3.556-9.31 11.654-17.387 38.57-20.357 2.525-.157 5.103-.627 7.401.573 1.8.032 2.246.483 3.404-1.729 1.045-3.42.604-6.194-.73-8.664-1.208-1.662-3.435-1.135-5.61-1.697l-9.206-.744c-7.835-.263-15.757-.03-23.108-3.03-4.61-2.017-9.55-3.503-11.238-10.228l-1.643-3.535-3.912-.588v-5.715c-9.516-5.847-9.433.785-12.857 2.857l-.713 3.213c-1.71 1.011-4.414-.295-4.287 5-2.98 10.767-9.419 9.653-14.91 9.88-.673-3.405-3.453-3.684-5.368-.253-5.107 4.345-8.653 2.544-11.238-3.031h-5.176l-1.074-5.43c-2.666-3.198-4.718-4.022-6.88.506l-1.39 3.408c-.888 3.47-.184 7.351-5.304 9.723l-6.188-.504-1.892-11.49-13.768.2 1.32-26.464s-.706-6.566-1.783-6.566z" fill-rule="evenodd" stroke-width=".25"/><g><path d="M773.171 1155.572l12.932 4.52c10.928 3.567 21.855 2.976 32.783 2.623l36.428-2.857 137.857 2.857 222.858 1.428 19.63 3.415 26.084-.557c5.845-.613 11.568-1.715 16.473-6.087 17.112-9.444 23.873-4.397 31.82-1.01 8.076 6.586 16.536 11.712 29.294.505 8.694-7.353 19.265-5.95 30.81 0 7.896 5.57 14.292 12.339 31.314 10.607l22.902-3.179c-5.577-12.172-3.392-21.281-3.438-31.61l1.306-16.877c-2.238-17.169-12.686-20.902-25.315-21.065l-213.648-2.526-38.89-2.02-152.628-.31c-31.428-1.306-64.545-8.524-93.572-1.428-15.238 7.294-27.619 7.262-40-1.072-6.185-8.48-18.607-4.185-31.428 2.5-6.774 11.392-17.378 6.5-27.857 2.143-13.554-10.882-27.638-13.28-42.143-8.929 9.131 16.97 16.29 34.545 13.176 55.282z" fill="#55534f" fill-rule="evenodd" stroke="#000" stroke-width="11.3"/></g><g fill-rule="evenodd" stroke="#000" stroke-width="11.3"><path d="M1271.743 908.43l-342.5 347.142-86.072 74.643c-38.767 40.594 14.358 80.815 42.5 52.5l73.929-91.429 342.143-364.285z" fill="#91711e"/><path d="M876.68 976.056l132.857 101.03 80.285 57.06L1195.48 1232l16.681 18.824 47.648 61.89 13.319 16.472c7.53 7.258 15.56 13.891 25.758 17.814 63.181 18.015 86.484-64.364 54.285-87.143-5.454-5.808-11.701-11.088-20-15l-30-13.572-28.571-12.143-43.571-20.714-100.715-65-90-67.857-155-108.571z" fill="#91711e"/><path d="M1170.314 841.286c18.112 6.172 47.225 8.831 66.429 42.857 7.671 37.921 33.52 64.936 79.286 80 18.224 8.919 33.408 20.878 47.857 33.572 22.01 20.657 42.696 39.593 62.857 52.857-11.974-20.77-27.316-40.418-45-59.286-8.408-19.132-20.028-34.25-21.429-62.143-3.538-36.448-26.938-60.694-68.571-74.285-10.528-4.825-22.22-11.045-42.143-27.143L1205.314 787z" fill="#776d54" stroke-linejoin="round"/><path d="M850.314 1040.572c-12.981-15.057-30.29-27.95-36.428-46.429-3.914-7.38-7.676-14.761-7.857-22.142.088-14.068-.075-28.157 9.247-41.456 6.316-9.01 16.986-17.656 35.038-25.687 5.223-2.389 11.013-4.494 20-5 10.905-1.334 15.26-.484 20.715 0 18.865.63 34.153 6.627 49.285 12.857z" fill="#776d54"/><path d="M815.276 930.545l-32.819-64.259" fill="none"/></g><g fill-rule="evenodd" stroke="#000" stroke-width="11.3"><path d="M1073.171 999.858l.332 115.837-4.617 60.591c8.688 47.635 19.947 100.3 4.143 181.407l38.142.205c-4.66-44.726-13.536-94.025 9.858-183.755l-3.781-96.847 5.21-76.01z" fill="#566e9c"/><path d="M1043.355 1341.731c33.38-5.108 65.944-7.94 97.985-1.01 1.804 29.085-5.445 63.945 21.718 70.206l1.01 15.657c-16.499.494-34.513 10.109-51.012 17.173-7.9-7.37-14.893-12.284-22.665-12.912-6.286-.508-13.082 1.79-21.277 7.861l-45.962-12.122.505-18.182c35.485-18.345 16.51-43.541 19.698-66.67z" fill="#566e9c"/><path d="M1142.059 1378.117l25.545 2-.505-39.396h-25.759zM1045.215 1369.424c-.022-.21-1.86-27.693-1.86-27.693l-23.738-4.545 2.525 31.82z" fill="#566e9c"/><path d="M1073.171 754.858c-72.33 99.003-36.732 219.368-5 259.285 22.971 14.995 30.553 12.48 54.286 2.858 40.185-29.617 59.09-189.85 1.429-260-11.98-8.092-19.112-11.5-26.506-11.198-6.63.27-13.47 3.523-24.209 9.055z" fill="#91711e"/><path d="M1097.38 745.803l-11.994-25.136" fill="none"/><path d="M1105.007 1436.989l-28-3.197-7.893 4.914c12.744 5.612 36.894 9.067 43.942 5.05z" fill="none" stroke-linejoin="round"/></g><g><path d="M1037.8 1097.022l-1.263 45.71c4.062 18.48 16.66 23.594 29.294 29.546 17.206 2.8 36.755 2.67 59.347-1.262 9.294-3.03 16.294-8.927 20.203-18.688 5.162-17.827 3.313-33.317.505-48.487-4.164-12.167-13.599-19.064-23.739-25.254-19.518-3.928-38.733-4.826-57.578-2.02-11.02 3.493-21.136 9.556-26.77 20.455z" fill="#556e9f" fill-rule="evenodd" stroke="#000" stroke-width="11.3"/></g><g fill="none" fill-rule="evenodd" stroke="#000" stroke-width="11.3"><path d="M1424.356 1167.837l58.959 41.327M1426.743 1050.572l60.843 31.45M1205.314 787l44.062-25.367M1046.652 802.676L998.886 837 954.6 884.143l-14.286 28.572M850.314 1040.572c-12.465 20.777-40.687 31.05-61.054 46.559-9.17-2.389-19.331-3.454-32.517-.488l-75.275 30.835M836.582 1379.304l-33.862 42.803M1207.487 1516.896l-20.943-38.541-12.121-25.254-7.324-20.203-3.473-13.169 1.958-21.176 2.02-18.436-.505-39.396 45.062-89.896M1090.391 1430.845l2.967 41.196-.264 64.304M1013.33 1332.843l6.922 12.348 3.405 63.21-.505 18.183-6.41 15.774L972.458 1517M959.6 1291.286l28.214 23.929 31.803 21.97M1356.211 1328.456l55.85 44.085"/></g></svg>