<svg xmlns="http://www.w3.org/2000/svg" width="106.667" height="106.667"><path d="M21.565 93.59c4.047 6.061 8.744 6.147 17.349 2.916 9.168-4.51 8.393-7.601 9.385-12.968-1.953-8.04-13.058-11.258-11.357-1.954-13.894-15.598-16.84 1.126-10.7 5.21-4.384-.102-6.896-.293-4.677 6.795z" transform="matrix(.42173 0 0 .40736 -1.513 3.01)" fill="#fff" fill-rule="evenodd" stroke="#000" stroke-width="3.016" stroke-linejoin="round"/><path d="M48.57 89.157c-3.302-3.595-20.36 5.989-15.733 11.084 2.93 2.361 17.404-2.405 15.733-11.084z" transform="matrix(.42173 0 0 .40736 -1.513 3.01)" fill="#fff" fill-rule="evenodd" stroke="#000" stroke-width="3.016" stroke-linejoin="round"/><path d="M179.285 182.287l-12.696 8.08s9.234 7.31-2.308 25.007c24.238-15.005 15.004-33.087 15.004-33.087z" transform="matrix(.42173 0 0 .40736 -1.513 3.01)" fill-rule="evenodd" stroke="#000" stroke-width="1pt"/><path d="M101.876 130.63s-28.491-14.367-47.059 6.247c-18.568 20.615-45.96 40.083-23.463 46.1 22.497 6.019 67.371-25.691 69.79-35.519 2.418-9.827.732-16.828.732-16.828zM154.165 107.432s2.758-31.789 30.055-36.746c27.297-4.957 58.259-18.024 51.55 4.277-6.708 22.301-57.273 43.803-66.904 40.693-9.631-3.11-14.7-8.224-14.7-8.224z" transform="matrix(.42173 0 0 .40736 -1.513 3.01)" fill="#fff" fill-opacity=".25" fill-rule="evenodd" stroke="#000" stroke-width="3.016" stroke-linejoin="round"/><path d="M108.135 110.898s-33.017-25.226-56.237-10.042c-23.22 15.183-57.116 36.735-36.904 48.303 20.211 11.569 83.195-10.032 88.044-18.915 4.85-8.883 5.097-19.346 5.097-19.346zM137.734 90.72s0-41.55 26.162-50.784c26.162-9.234 63.866-23.084 60.788 0-3.078 23.084-58.48 60.018-68.483 58.48-10.003-1.54-18.467-7.695-18.467-7.695z" transform="matrix(.42173 0 0 .40736 -1.513 3.01)" fill="#fff" fill-opacity=".25" fill-rule="evenodd" stroke="#000" stroke-width="3.016" stroke-linejoin="round"/><path d="M94.644 143.044c51.554 67.713 114.65 72.33 81.564-36.934-22.315-27.7-93.106 16.928-81.564 36.934z" transform="matrix(.42173 0 0 .40736 -1.513 3.01)" fill="#ff0" fill-rule="evenodd" stroke="#000" stroke-width="3.016" stroke-linejoin="round"/><path d="M92.323 115.286c7.369 33.493 71.675 18.086 60.288-21.435-11.388-24.785-66.986-2.01-60.288 21.435z" transform="matrix(.42173 0 0 .40736 -1.513 3.01)" fill="#ff0" fill-rule="evenodd" stroke="#000" stroke-width="3.016" stroke-linejoin="round"/><path d="M105.391 48.734c12.172-2.87 24.82 6.544 28.232 21.013 3.412 14.47-3.698 28.542-15.87 31.412-12.171 2.87-24.819-6.543-28.23-21.013-3.413-14.469 3.697-28.541 15.868-31.412z" transform="matrix(.42173 0 0 .40736 -1.513 3.01)" fill="#ff0" fill-rule="evenodd" stroke="#000" stroke-width="3.016" stroke-linejoin="round"/><path d="M109.297 77.867c0 3.398-3.895 8.054-7.08 8.054-3.186 0-7.606-5.199-7.606-8.597 0-3.398 3.634-6.698 6.82-6.698 3.185 0 7.866 3.843 7.866 7.24z" transform="matrix(.42173 0 0 .40736 -1.513 3.01)" fill="#fff" fill-rule="evenodd" stroke="#000" stroke-width="3.016" stroke-linejoin="round"/><path d="M43.786 33.184c-1.491-.54-4.722 2.435-3.79 3.695 2.126 2.598 5.676-2.181 3.79-3.695z" fill-rule="evenodd"/><path d="M43.803 35.582c-.696-.813-2.76.252-1.95 1.468 1.445.495 2.416-1.153 1.95-1.468z" fill="#fff" fill-opacity=".75" fill-rule="evenodd"/><path d="M108.41 93.77c9.691 5.39 16.27-.679 19.031-8.413" transform="matrix(.42173 0 0 .40736 -1.513 3.01)" fill="none" stroke="#000" stroke-width="3.016" stroke-linejoin="round"/><path d="M112.42 51.65s-17.417-35.503 13.396-36.173c30.814-.67 30.144-.67 30.144-.67" transform="matrix(.42173 0 0 .40736 -1.513 3.01)" fill="none" stroke="#000" stroke-width="3.016"/><path d="M43.691 23.123c-.79.127-11.202 3.055-5.93 15.276-3.032-11.839 9.488-14.512 5.93-15.276z" fill="#fff" fill-opacity=".5" fill-rule="evenodd"/><path d="M96.343 65.717c-32.154-16.077-50.91-24.785-54.259-7.369-3.35 17.417-3.35 16.747-3.35 16.747" transform="matrix(.42173 0 0 .40736 -1.513 3.01)" fill="none" stroke="#000" stroke-width="3.016"/><path d="M68.368 10.574c-3.545 4.105-8.719.285-7.156-2.207 3.604-6.087 9.689-1.716 7.156 2.207z" fill-rule="evenodd"/><path d="M66.014 5.889c-2.531-1.413-6.709 3.977-3.524 4.974 1.266 1.159-.908-4.53 3.524-4.974z" fill="#fff" fill-opacity=".5" fill-rule="evenodd"/><path d="M94.26 141.12c8.848 6.156 60.403 1.924 80.793-36.934l3.463 14.235c-1.154 3.078-32.702 36.935-74.638 35.78-2.309-1.154-9.619-13.08-9.619-13.08z" transform="matrix(.42173 0 0 .40736 -1.513 3.01)" fill-rule="evenodd" stroke="#000" stroke-width="1pt" stroke-linejoin="round"/><path d="M113.88 164.205c28.086 1.539 60.789-25.393 68.099-34.242l2.308 11.927s-37.704 36.165-60.403 30.779c-1.924 0-10.003-8.464-10.003-8.464z" transform="matrix(.42173 0 0 .40736 -1.513 3.01)" fill-rule="evenodd" stroke="#000" stroke-width="1pt"/><path d="M134.656 181.902c16.16-1.923 43.09-15.389 50.4-28.085 0 4.617.77 10.003-.77 16.928-6.155 3.847-26.16 21.545-38.472 16.928-3.848-1.154-8.464-3.847-11.158-5.77z" transform="matrix(.42173 0 0 .40736 -1.513 3.01)" fill-rule="evenodd" stroke="#000" stroke-width="1pt" stroke-linejoin="round"/><path d="M69.878 81.184c.984.713 1.028 5.499-1.75 9.333 5.337-8.875 4.509-8.392 4.509-9.96 0-1.567-2.759.627-2.759.627z" fill="#fff" fill-opacity=".5" fill-rule="evenodd"/><path d="M38.31 45.723c-1.044 3.527 1.217 9.742 6.26 10.414 6.608 2.016 14.782-2.855 16.173-5.543 2.086-2.687 3.652-7.895-.87-11.59.87 4.871.348 7.223-.695 8.735-5.913 5.375-9.913 5.543-14.434 5.543-4.695-.168-5.739-5.207-6.434-7.56z" fill-opacity=".12" fill-rule="evenodd"/><path d="M40.049 56.305s-2.26 1.344-1.218 4.032c1.044 2.687 16 21.836 29.39 19.653-16.347-2.52-21.738-22.341-28.172-23.685z" fill="#fff" fill-opacity=".5" fill-rule="evenodd"/><path d="M96.901 108.153s-37.935 13.195-46.595.825l-8.659-12.37M141.847 90.422c24.329-22.267 25.153-10.309 24.74-25.153-.411-14.845-.411-16.082-.411-16.082M101.437 127.12s-22.679 15.258-23.916 23.505c-1.237 8.246 3.299 26.802 3.299 26.802M149.682 103.617c40.822-4.536 39.585-10.72 45.358-1.65 5.773 9.072 11.133 31.751 11.133 31.751M147.62 95.37s16.081-10.308 22.679-11.133c6.598-.825 33.812 4.536 33.812 4.536M98.963 116.812c-33.4 10.309-31.338 4.948-34.225 10.309-2.886 5.36-10.308 20.617-10.308 20.617" transform="matrix(.42173 0 0 .40736 -1.513 3.01)" fill="none" stroke="#000" stroke-width="3.016" stroke-linejoin="round"/><path d="M181.287 36.236c-.633 7.26-4.71 9.595-13.807 10.9-10.208.455-11.015-2.628-14.466-6.856-2.154-7.989 6.035-16.151 9.018-7.176 4.68-20.357 15.307-7.111 11.886-.577 3.796-2.198 5.906-3.574 7.37 3.709z" transform="matrix(.42173 0 0 .40736 -1.513 3.01)" fill="#fff" fill-rule="evenodd" stroke="#000" stroke-width="3.016" stroke-linejoin="round"/><path d="M155.478 45.336c1.167-4.74 20.731-4.54 19.126 2.152-1.433 3.48-16.416 6.262-19.126-2.152zM223.118 138.88c-2.426-6.872-6.957-8.115-16.092-7.106-9.998 2.108-10.01 5.295-12.295 10.25-.092 8.274 9.877 14.133 10.524 4.697 9.615 18.544 16.597 3.064 11.653-2.408 4.225 1.18 6.612 1.985 6.21-5.432z" transform="matrix(.42173 0 0 .40736 -1.513 3.01)" fill="#fff" fill-rule="evenodd" stroke="#000" stroke-width="3.016" stroke-linejoin="round"/><path d="M195.854 136.513c2.313 4.299 21.208-.78 17.982-6.86-2.256-3.01-17.46-1.963-17.982 6.86zM97.035 180.849c-2.752-6.75-7.337-7.774-16.414-6.33-9.885 2.583-9.744 5.767-11.79 10.827.303 8.268 10.54 13.644 10.736 4.188 10.49 18.063 16.725 2.267 11.525-2.963 4.276.977 6.699 1.667 5.943-5.722z" transform="matrix(.42173 0 0 .40736 -1.513 3.01)" fill="#fff" fill-rule="evenodd" stroke="#000" stroke-width="3.016" stroke-linejoin="round"/><path d="M69.689 179.787c2.516 4.183 21.147-1.793 17.634-7.711-2.398-2.9-17.534-1.128-17.634 7.71zM63.023 165.106c3.486-6.4 1.38-10.6-5.48-16.717-8.255-6.021-10.632-3.899-15.845-2.283-6.211 5.466-3.9 16.795 3.548 10.965-7.354 19.55 8.824 14.387 9.585 7.052 1.948 3.93 2.946 6.243 8.192.983z" transform="matrix(.42173 0 0 .40736 -1.513 3.01)" fill="#fff" fill-rule="evenodd" stroke="#000" stroke-width="3.016" stroke-linejoin="round"/><path d="M46.547 143.255c-1.648 4.594 14.765 15.244 17.127 8.78.729-3.692-10.218-14.294-17.127-8.78zM211.66 107.37c-6.823-2.565-7.974-7.12-6.78-16.233 2.309-9.953 5.495-9.9 10.496-12.086 8.274.076 13.93 10.16 4.483 10.617 18.346 9.988 2.728 16.656-2.643 11.602 1.094 4.248 1.851 6.65-5.556 6.1z" transform="matrix(.42173 0 0 .40736 -1.513 3.01)" fill="#fff" fill-rule="evenodd" stroke="#000" stroke-width="3.016" stroke-linejoin="round"/><path d="M209.843 80.063c4.251 2.4-1.208 21.188-7.221 17.84-2.965-2.317-1.611-17.495 7.221-17.84z" transform="matrix(.42173 0 0 .40736 -1.513 3.01)" fill="#fff" fill-rule="evenodd" stroke="#000" stroke-width="3.016" stroke-linejoin="round"/><path d="M18.115 34.847c-.33 5.414-6.76 5.516-7.028 2.586-.828-7.025 6.661-7.24 7.028-2.586z" fill-rule="evenodd"/><path d="M13.401 32.55c-2.87.412-2.92 7.232.215 6.092 1.71.153-3.469-3.05-.215-6.092z" fill="#fff" fill-opacity=".5" fill-rule="evenodd"/><path d="M52.286 30.923c-.406 1.323-2.533 2.655-3.817 2.261-1.285-.394-2.446-2.965-2.04-4.288.406-1.324 2.265-2.16 3.55-1.766 1.284.394 2.713 2.47 2.307 3.793z" fill="#fff" fill-rule="evenodd" stroke="#000" stroke-width="1.25" stroke-linejoin="round"/><path d="M51.979 29.212c-1.268-.953-5.229.943-4.707 2.421 1.27 3.108 6.066-.42 4.707-2.42z" fill-rule="evenodd"/><path d="M51.245 31.032c-.51-.94-2.752-.333-2.214 1.027 1.308.787 2.603-.621 2.214-1.027z" fill="#fff" fill-opacity=".75" fill-rule="evenodd"/></svg>