<?xml version="1.0" encoding="UTF-8"?>
<svg width="106.67" height="106.67" xmlns="http://www.w3.org/2000/svg" xmlns:xlink="http://www.w3.org/1999/xlink">
 <defs>
  <linearGradient id="i" x1="56.781" x2="71.735" y1="95.344" y2="51.135" gradientTransform="matrix(.92226 0 0 .77516 5.233 5.025)" gradientUnits="userSpaceOnUse" xlink:href="#a"/>
  <linearGradient id="d">
   <stop stop-color="#005c00" offset="0"/>
   <stop stop-color="#000500" offset="1"/>
  </linearGradient>
  <linearGradient id="a">
   <stop stop-color="#d10000" offset="0"/>
   <stop stop-color="red" offset="1"/>
  </linearGradient>
  <linearGradient id="h" x1="34.97" x2="72.997" y1="58.807" y2="27.183" gradientTransform="matrix(.80771 0 0 .8851 5.233 5.025)" gradientUnits="userSpaceOnUse" xlink:href="#a"/>
  <linearGradient id="g" x1="37.557" x2="77.604" y1="78.376" y2="24.415" gradientTransform="matrix(.86183 0 0 .82952 5.233 5.025)" gradientUnits="userSpaceOnUse">
   <stop stop-color="#1e0000" offset="0"/>
   <stop stop-color="#643700" offset="1"/>
  </linearGradient>
  <linearGradient id="j" x1="79.637" x2="81.827" y1="22.246" y2="39.095" gradientTransform="matrix(.82643 0 0 .86505 5.233 5.025)" gradientUnits="userSpaceOnUse">
   <stop stop-color="#4c2d00" offset="0"/>
   <stop stop-color="#7c5400" offset="1"/>
  </linearGradient>
  <linearGradient id="k" x1="31.251" x2="41.482" y1="-2.538" y2="-.177" gradientTransform="scale(1.0142 .98595)" gradientUnits="userSpaceOnUse" xlink:href="#d"/>
  <radialGradient id="m" cx="30.743" cy="33.98" r="35.109" gradientTransform="scale(1.0239 .97667)" gradientUnits="userSpaceOnUse">
   <stop stop-color="#fff" stop-opacity=".485" offset="0"/>
   <stop stop-color="#fff" stop-opacity="0" offset="1"/>
  </radialGradient>
 </defs>
 <path d="M85.177 56.579c4.51-1.794 5.803-4.611 8.713-8.013 1.2-.843 2.875-.102 4.075-.945.427-1.425-.012-3.725-1.668-3.35-3.91 2.738-7.502 7.535-11.253 11.383-3.435-2.42-6.711-2.94-10.146-3.936-.296.492-1.101 4.082-.452 4.04 3.313.96 6.942 1.446 10.73.82zM36.4 97.24c1.651-4.76 10.753-3.001 15.092-7.619 2.559-4.748.379-14.603-.929-16.45-1.44-.128-1.51.674-1.642 1.496.266 4.408-1.21 10.24 1.748 14.332-9.692.89-10.833 5.739-15.299 4.571-.712 1.065-.791 2.921 1.03 3.67zM72.913 90.153c-.426-2.337 4.867-8.472 3.796-14.453-1.944-7.494-7.908-10.345-10.984-14.02-1.134.825-2.384.72-1.938 1.453 2.432 2.885 7.859 10.056 11.554 12.468-4.777 5.545-.687 8.4-4.99 12.995.116 1.627 1.18 2.305 2.562 1.557zM12.843 44.21c-4.511 1.793-5.804 4.61-8.714 8.012-1.2.842-2.875.102-4.075.944-.427 1.426.012 3.726 1.668 3.351 3.91-2.739 7.502-7.536 11.253-11.383 3.435 2.42 6.711 2.94 10.146 3.936.296-.492 1.101-4.082.452-4.04-3.313-.96-6.942-1.446-10.73-.82zM61.62 3.548c-1.652 4.76-10.754 3-15.093 7.619-2.559 4.748-.379 14.603.929 16.449 1.44.129 1.51-.674 1.642-1.495-.266-4.408 1.21-10.241-1.748-14.332 9.692-.89 10.833-5.74 15.299-4.571.712-1.065.791-2.921-1.03-3.67zM25.106 10.635c.426 2.337-4.867 8.471-3.796 14.452 1.944 7.495 7.908 10.346 10.984 14.021 1.134-.825 2.384-.72 1.938-1.453-2.432-2.885-7.859-10.056-11.554-12.468 4.777-5.546.687-8.4 4.99-12.995-.116-1.628-1.18-2.305-2.562-1.557z" fill-rule="evenodd"/>
 <path d="m56.445 23.337 19.977 21.304s-8.065 40.553-48.324 25.28c-16.62-37.23 28.44-46.67 28.347-46.584z" fill="url(#g)" fill-rule="evenodd" stroke="#1c0000" stroke-width=".908"/>
 <path d="M54.828 21.49l10.637 11.354c-3.698-.06-29.175 20.468-39.894 37.628C5.68 31.574 54.922 21.402 54.828 21.49z" fill="url(#h)" fill-rule="evenodd" stroke="#600000" stroke-width=".908"/>
 <path d="m78.541 47.13-10.449-11.53c-0.24 3.69-22.78 27.408-40.758 36.69 37.146 23 51.301-25.246 51.207-25.16z" fill="url(#i)" fill-rule="evenodd" stroke="#600000" stroke-width=".908"/>
 <path d="m57.338 23.555 18.753 20.35c10.801-12.554-5.704-30.467-18.753-20.35z" fill="url(#j)" fill-rule="evenodd" stroke="#3f0000" stroke-width=".908"/>
 <path transform="matrix(.54818 .5949 -.61378 .56558 47.712 1.567)" d="M41.948.094a6.086 5.899 0 11-12.173 0 6.086 5.899 0 1112.173 0z" fill="url(#k)" stroke="#002000" stroke-linecap="round" stroke-linejoin="round" stroke-width="1.25"/>
 <path d="M49.558 41.57c-2.48-2.692-6.68-2.844-9.399-.34-2.717 2.505-2.925 6.718-.444 9.41.35.38.803.6 1.214.878a172.288 172.288 0 019.434-8.636c-.248-.445-.444-.922-.805-1.313zM28.396 43.625c-1.225-1.33-2.884-1.925-4.53-1.902-1.658 3.087-2.678 6.61-2.844 10.607 2.23 1.497 5.182 1.475 7.184-.37 2.355-2.17 2.432-5.902.19-8.335z" fill-rule="evenodd"/>
 <path d="M54.961 34.242a5.994 5.802 47.34 11-8.123-8.815 5.994 5.802 47.34 118.123 8.815z"/>
 <path d="M66.684 65.924c-2.569-2.086-6.302-1.759-8.32.728-1.832 2.255-1.47 5.922.498 8.065 3.43-1.884 6.23-4.757 8.585-7.708-.25-.3-.448-.83-.763-1.085z" fill-rule="evenodd"/>
 <path d="M47.785 76.231a5.994 5.802 47.34 11-8.123-8.815 5.994 5.802 47.34 118.123 8.815zM73.347 58.053a5.994 5.802 47.34 11-8.124-8.816 5.994 5.802 47.34 118.124 8.816z"/>
 <path transform="matrix(.54818 .5949 -.61378 .56558 58.797 11.733)" d="M41.948.094a6.086 5.899 0 11-12.173 0 6.086 5.899 0 1112.173 0z" fill="url(#k)" stroke="#002000" stroke-linecap="round" stroke-linejoin="round" stroke-width="1.25"/>
 <path d="M61.678 3.544c-1.652 4.76-10.756 2.976-15.094 7.594-1.808 3.353-1.225 9.172-.281 13-4.8 1.83-10.67 4.733-15.657 9.093-2.58-3.126-5.48-6.479-7.906-8.062 4.777-5.546.667-8.405 4.969-13-.115-1.628-1.181-2.31-2.563-1.563.426 2.338-4.851 8.488-3.78 14.47 1.294 4.992 4.21 7.793 7.03 10.28-2.547 2.664-4.618 5.8-5.937 9.438-3.005-.752-6.196-1.15-9.563-.594-4.51 1.794-5.808 4.598-8.718 8-1.2.843-2.863.095-4.063.938-.427 1.425 0 3.75 1.656 3.375 3.91-2.74 7.5-7.56 11.25-11.407 2.851 2.01 5.624 2.689 8.438 3.438-1.14 6.03-.29 13.211 4.156 21.906.52-.832 1.227-1.685 1.813-2.531.266.67.41 1.28.718 1.969.743.282 1.404.411 2.125.656-.958.558-1.937 1.235-2.875 1.719 8.316 5.148 15.422 6.62 21.532 5.968-.164 3.705-.447 7.669 1.78 10.75-9.69.89-10.814 5.73-15.28 4.563-.713 1.065-.79 2.94 1.03 3.687 1.653-4.759 10.756-3.007 15.095-7.625 1.641-3.045 1.277-8.057.5-11.843 6.42-1.552 11.502-5.557 15.468-10.22 2.575 3.117 5.46 6.456 7.875 8.032-4.777 5.546-.698 8.405-5 13 .115 1.628 1.181 2.31 2.563 1.563-.426-2.338 4.883-8.488 3.812-14.47-1.355-5.223-4.484-8.06-7.406-10.624 2.343-3.166 4.253-6.33 5.656-9.219 3.174.863 6.624 1.312 10.22.719 4.51-1.794 5.808-4.598 8.718-8 1.2-.843 2.862-.095 4.062-.938.428-1.425 0-3.718-1.656-3.343-3.91 2.739-7.53 7.527-11.281 11.375-2.864-2.018-5.611-2.716-8.438-3.47.933-2.365 1.954-5.077 1.938-5.062l-2.125-2.375.031-.125-4.594-4.875-3.75-4.156c-.001.02-.06.072-.062.094l-2.625-2.813c.013 0 .05-.031.062-.03L54.896 21.48c.018-.016-2.864.77-5.687 1.657.15-3.867.542-8.118-1.813-11.375 9.692-.89 10.847-5.73 15.313-4.563.712-1.065.79-2.908-1.031-3.656zm5.875 14.469a4.908 4.908 0 00-3.532 1.312c-.5.46-.86.98-1.125 1.563-1.845.417-3.705 1.264-5.5 2.656l18.75 20.344c1.654-1.923 2.61-3.978 3.094-6.032.915-.15 1.83-.45 2.563-1.125a4.94 4.94 0 00.28-6.968c-1.135-1.233-2.767-1.652-4.312-1.438-1.322-2.423-3.228-4.5-5.593-5.875-.102-1.026-.436-2.027-1.188-2.844a4.961 4.961 0 00-3.437-1.593z" fill="url(#m)" fill-rule="evenodd"/>
</svg>
