<svg width="146.667" height="146.667" xmlns="http://www.w3.org/2000/svg"><metadata/><g fill-rule="evenodd"><path d="M29.959 102.189c9.569-8.234 1.353-15.932 7.84-29.333 2.736-4.241 4.76-8.089 9.376-14.062-3.152-10.88 2.013-20.614 10.212-25.183-2.075-3.086-7.406-14.538 1.453-27.197.681 4.92 5.33 12.312 6.045 10.527 1.428-3.57 1.831-2.963 6.665-4.698 10.536-1.965 24.941.737 31.85 9.864 1.506 1.712 6.02-4.674 9.692-5.754-.417 6.279-3.312 11.323-1.909 13.003 2.807 3.36 6.455 9.615 6.293 14.809 2.361 2.457 2.459 7.619-.757 10.066 1.69 5.717 1.703 11.989 2.26 16.665-.2 12.217-17.638 15.024-26.416 12.776-2.457 2.797-4.66 9.858-7.313 16.468-1.1 5.107-4.52 27.122-13.602 33.364-1.883-.558-4.568-2.199-5.866-4.406-1.706-.573-2.842 1.558-4.082 3.636-3.395-9.95-21.244-24.103-31.741-30.545z" fill="#f9cd98"/><path d="M66.378 51.234S78.731 37.037 84.816 34.64c6.084-2.397-14.382-7.928-21.388-9.22-7.006-1.29-3.135 25.076 2.95 25.814z" fill-opacity=".094"/><path d="M61.417 35.178s-.532-1.953 1.066-2.574c1.775-1.332 6.656 1.242 7.633 3.55.355 1.864 0 2.041-1.42 2.663-.09 1.154 1.242 2.929-.444 2.84-3.906 1.953-8.699-2.485-8.166-4.704.089-1.687 1.331-.799 1.331-1.775z" fill-opacity=".376"/><path d="M61.236 35.396c-1.007 3.775 6.307 7.618 8.053 2.517-.17-3.523-6.795-6.324-8.053-2.517z"/><path d="M58.61 7.39c-.365 2.92-3.267 16.258.004 15.251 3.272-1.006 4.917-2.231 5.843-4.861-1.87-1.535-4.186-6.761-5.847-10.39zM105.767 23.974c1.703-1.703 5.76-6.005 6.767-6.76.399 3.38-2.437 10.467-2.185 11.977-1.443-1.703-4.078-4.21-4.582-5.217z" fill-opacity=".502"/><path d="M83.383 69.371s19.255 10.472 24.288 8.458c1.855-3.148.627-21.544 1.13-23.81.503-2.264-24.412-2.516-25.418 15.352z" fill-opacity=".251"/><path d="M84.261 70.526s25.798 10.422 29.322 8.157c4.026 1.258-27.99 14.927-29.322-8.157z" fill-opacity=".251"/><path d="M108.974 54.07s1.337 19.377-.173 22.146c-1.51 2.768 2.517 3.474 5.285 2.215 7.081-.35 3.272-21.14 2.013-22.901-1.258-1.762-2.092-2.468-7.125-1.46z" fill-opacity=".251"/><path d="M111.356 53.255s6.445 2.663 7.716-2.42c.181-1.86-.308-3.854-1.677-7.042.673-3.415-3.62-7.57-6.053-7.854-9.319 0-27.52 5.455-20.318 11.385 7.2 5.93 15.249 5.083 20.332 5.93z" fill-opacity=".502"/><path d="M62.44 65.955s-.127 5.652 2.813 10.2c1.47 2.273 3.74 4.276 7.14 5.068 3.398.793 8.475.778 14.377-1.583l-1.056-1.934c-5.747 2.3-8.784 2.633-11.858 1.917-3.074-.717-5.654-1.883-6.99-3.951l-4.426-9.717z"/><path d="M77.712 66.398c-1.909-.21-3.572.114-4.945.618-2.745 1.009-4.327 2.813-4.327 2.813l1.58.152s.736-.923 3.18-1.821c2.443-.898 7.037.426 11.342 3.295l-.593-3.236c-2.295-1.53-4.328-1.61-6.237-1.82z"/><path d="M59.254 74.434c-1.27 8.472-2.474 55.625 12.775 59.861 9.608-10.772 13.586-37.037 20.265-50.118-2.317-1.836-2.033-1.68-5.857-4.296-14.702 6.419-23.37-1-27.183-5.447z" fill="#a06a46"/><path d="M79.469 18.783s4.425-7.061 7.928-5.955c12.354 1.475 28.026 21.455 28.21 24.762.184 2.212-3.378-5.037-9.646-2.087-1.476 2.028-1.048-18.564-26.492-16.72z" fill-opacity=".251"/><path d="M95.11 40.518c-.806-.067-1.84.057-2.25.857-.438 1.168 1.214 2.35 1.75 2.725 3.027 2.15 7.89 3.548 8.82 2.785.534-1.288-2.409-3.228-3.513-4.168-1.574-1.41-2.668-1.876-4.807-2.2zm2.601 1.937c1.001.66 2.887 2.054 3.72 2.913-1.827.081-5.278-1.908-7.18-3.35-.021-.028 2.39-.297 3.46.437zM106.422 47.565l-1.733.728s.414 1.172 1.19 2.349c.776 1.177 2.533 2.04 4.53 2.146 1.712.09 3.978.521 3.663.407-.628-.23-1.25-.71-3.042-.805-1.507-.638-3.028-1.858-3.68-2.847a7.839 7.839 0 01-.928-1.978zM54.867 45.308s-.308 5.824-.123 12.24c.092 3.208.119 6.952.575 9.822.456 2.87 2.278 6.442 3.473 7.8l.532-1.23c-.833-.947-2.16-4.368-2.602-7.15-.443-2.783-.848-5.306-.94-8.483-.183-6.352.124-16.89.124-16.89l-1.039 3.891z"/><path d="M54.737 35.962c-1.562 7.257-3.408 19.025-7.41 31.167-4 12.142-8.14 22.376-12.9 28.214l-.988 3.237c5.012-6.147 11.166-18.884 15.185-31.08 4.02-12.196 7.205-25.41 8.413-33.206l-2.3 1.668z"/><path d="M35.034 94.563s-1.966-23.965 12.784-35.581c.554-.37-7.99-13.648 8.05-23.605-1.843 13.644-14.087 52.917-20.834 59.186z" fill="#a06a46"/><path d="M105.65 52.2c-9.948-.832-19.111 4.735-20.815 10.597-1.697 2.244-1.54 5.053-1.656 7.398 7.033 3.582 14.158 6.816 21.98 8.314 3.522 1.246 4.686-2.203 4.447-5.064.474-6.656-.01-13.369.177-20.007-.89-1.27-2.75-1.099-4.134-1.237zm-.032 1.237c4.539-.84 2.441 4.035 2.902 6.804-.017 5.43.431 10.95-.665 16.302-2.184 1.943-6.21-.353-8.9-1.006-4.976-.93-10.874-3.613-13.854-6.638.244-6.165 4.226-11.398 9.876-13.477a27.486 27.486 0 0110.641-1.985z"/><path d="M112.202 52.973c-1.147.288-2.64-.143-3.456.922-.356.982.009 2.059-.02 3.08.353 5.876.602 11.781.106 17.657-.554 1.273-1.155 3.015-.096 4.192 1.37 1.072 3.564 1.277 5.156.886 1.488-.4 3.647-1.05 4.443-2.494 1.363-2.414.946-5.553.965-8.26-.01-4.502-.863-9.03-2.237-13.323-.814-1.81-2.88-3.016-4.861-2.66zm1.792 1.36c1.96.696 2.444 2.437 2.739 4.252 1.028 5.436 1.936 11.964.282 17.36-.667 1.725-2.757 2-4.389 2.345-1.05.292-2.51.25-3.128-.794-.328-1.28.772-2.447.676-3.763.367-6.36.06-12.738-.352-19.09 1.378-.202 2.775-.552 4.172-.31z"/><path d="M82.383 69.62c.113 4.04 2.525 8.542 5.559 11.41 3.384 3.24 8.362 3.958 12.858 3.593 4.28-.386 8.573-1.457 12.335-3.575 1.139-.39 2.438-2.348.641-2.751-.972.37-2.181.382-3.263.2-5.232-.803-10.234-2.632-15.23-4.324-3.867-1.374-9.102-2.995-12.9-4.552zm2.836 2.084c7.22 2.853 11.657 6.613 21.677 8.098 1.868.338 4.224.372 6.11-.217-2.56 1.8-5.014 2.641-8.031 3.316-4.389.85-9.87.999-13.936-1.133-3.739-1.908-5.472-6.084-5.82-10.064zM110.771 34.556c-6.632.196-13.335 2.642-19.193 5.818-2.29 1.12-5.343 4.206-3.266 6.575 4.328 4.606 11.724 5.834 17.839 6.23 2.417.092 4.793.466 7.112 1.126 1.397.321 2.673.012 3.465.805.54-1.968 2.23-3.587 2.194-5.131.172-2.962-1.475-5.326-1.498-8.253-.795-2.993-3.548-6.573-6.653-7.17zm1.196 1.935c2.77.845 4.254 3.278 4.525 6.217.01 2.482 1.754 4.582 1.55 7.146.183 2.686-2.301 3.997-4.482 3.286-3.934-1.323-8.874-1.52-12.878-2.532-3.829-.785-7.613-1.877-10.405-4.658-1.688-1.671.12-3.849 1.737-4.686 5.337-3.143 10.743-4.7 16.86-5.163.38-.018 2.714.392 3.093.39z"/><path d="M81.803 62.683c.181 2.364-.241 5.122.51 7.377.553.748 2.329.189 1.58-.436-1.038-3.46-1.492-7.31-1.357-10.905.098-1.852.194-3.712.678-5.84-1.372 2.142-1.656 6.054-1.411 9.804zM57.454 32.934c-5.557 3.099-11.191 9.508-11.727 16.146-.373 3.444-.028 6.356 1.145 9.558C38.556 65.4 34.52 77.127 34.751 87.122a53.797 53.797 0 00-.036 8.937c3.764-4.1 6.292-9.401 8.515-14.4 5.365-13.533 9.344-27.495 12.614-41.691.427-1.923 1.346-5.083 1.61-7.034zm-1.397 2.508c-2.39 12.603-6.308 25.892-10.639 37.94-2.443 6.387-5.853 13.633-9.5 19.457-.155-10.602 2.19-22.79 9.6-30.756 1.35-1.676 4.568-2.36 2.6-4.912-1.947-5.01-1.662-11.046 1.783-15.357 1.43-1.92 4.205-4.997 6.156-6.372zM57.758 73.251c-1.828 14.962-.533 30.408 2.564 45.178 1.45 5.44 6.097 13.695 11.197 17.096 1.953-3.206 5.488-5.555 6.95-9.534 5.273-13.093 7.99-29.713 14.445-42.402-1.975-1.483-5.29-3.01-7.106-5.34-8.145 3.785-20.653 2.657-26.453-4.39-.51-.551-1.123-.026-1.597-.608zm1.535 2.538c5.927 7.066 17.45 9.533 26.737 4.51 1.88 1.01 2.86 3.446 5.253 3.42-4.204 7.237-6.996 19.829-8.87 27.876-1.552 6.386-6.093 17.707-10.911 22.26-2.141-1.897-3.875-2.922-5.748-6.746-5.694-10.016-6.286-20.98-6.82-32.208-.165-6.255-.54-12.881.36-19.112zM64.457 31.944c-1.706-.286-3.343 1.375-3.186 3.25.26.967-1.25.388-1.107 1.48-.422 1.685.74 3.048 1.92 4.112 1.803 1.605 3.655 2.263 5.95 1.194.848-.13 1.814-.653 1.481-1.626-.295-.807-.728-1.69.365-1.87.771-.704.711-2.015.393-2.908-1.044-2.034-.953-2.378-3.06-3.07-.32-.094-2.424-.52-2.756-.562zm.023.97c2.052.362 4.001 1.547 5.18 3.273.59.966 0 2.012-1.1 2.16-.585.68.097 1.887.235 2.724-.9.064-1.769.674-2.74.464-1.977-.213-3.83-1.458-4.806-3.185-.546-.836-.394-2.092.713-2.276.814-.753-.28-2.052.725-2.716.542-.345 1.135-.572 1.793-.444z"/><path d="M62.571 34.468c1.065-1.154 4.26-.444 4.882 1.508-2.84 1.066-5.68.533-4.882-1.508z" fill="#fff" fill-opacity=".784"/><path d="M59.504 5.282c-6.415 7.909-7.998 19.76-2.514 28.621-8.598 5.22-12.272 12.988-9.932 25.036-6.085 5.497-12.344 15.62-12.376 25.474-.004 6.169.953 13.683-4.85 17.797.932 3.276 9.452 6.215 12.552 9.86 7.566 6.389 16.006 13.005 19.438 22.624 1.487-3.638 4.343-6.202 6.883-1.808 3.322 2.48 2.462 1.713 3.598 1.004 2.077-2.718 6.653-10.775 7.666-12.835 3.55-8.508 4.62-18.062 8.515-26.423 1.835-5.194 3.85-12.753 10.615-9.97 8.115.078 16.826-2.124 18.95-11.098.453-5.907.334-12.126-.746-17.936 4.055-6.526.763-14.51-2.093-21.374-5.82-4.832-1.312-12.425-1.56-18.417-6.41 2.777-8.047 4.695-9.484 5.944-7.778-9.633-21.986-11.81-33.612-9.186-6.197.425-5.65 6.85-8.385.919-1.406-2.552-2.395-5.32-2.665-8.232zm-.87 2.243c.493 2.382 4.017 8.672 5.656 10.265 1.01-.73 1.831-1.826 3.885-3.17 10.26-3.76 22.577-1.784 31.356 4.67 1.746 1.65 3.388 2.336 5.42 3.989 2.158-1.547 3.89-4.89 7.39-6.15 1.174 1.302-3.801 11.98-1.376 13.064 4.252 4.303 5.282 10.624 7.025 15.82 3.084 5.417-4.385 8.709-.474 14.247.234 6 3.093 13.207-1.698 18.182-6.022 5.757-15.359 6.762-23.212 5.038-3.881 4.958-5.189 11.37-7.696 17.03-2.445 11.149-5.085 24.978-13.332 33.525-1.499-.274-4.438-3.853-5.84-5.278-1.275-.735-2.267-.571-3.7 3.248-6.001-11.834-17.276-19.857-27.79-27.424-6.329-2.334 3.693-7.592 1.658-12.987-.432-7.6-.457-17.008 4.432-23.194 2.875-5.532 9.396-7.767 6.357-14.518-.572-8.852 4.15-16.41 11.85-19.546-5.272-7.663-5.023-19.2.09-26.811z"/></g><path d="M67.3 87.04c0 4.764-.183 8.5.95 11.929 1.129 3.414 2.296 6.502 5.41 8.821 1.437 1.304 2.977 3.34 3.028 5.96.05 2.639-.52 5.647-1.313 8.5-1.587 5.706-4.16 12.112-4.16 12.112l.089.044s3.664-5.966 5.29-11.812c.813-2.923 1.398-6.04 1.344-8.875-.055-2.835-.758-5.444-2.688-7.125h-.031v-.031c-2.949-2.185-4.717-4.748-5.781-7.97-1.065-3.22-1.407-7.108-1.407-11.812l-.732.26z" fill-rule="evenodd"/><path d="M61.375 99.281l-.513.558c.574.894 1.23 2.348 2.67 4.255 1.439 1.907 3.106 4.363 4.562 7.344 2.911 5.96 5.362 12.078 2.92 22.183l.312.67c2.516-10.409.898-17.262-2.107-23.416-1.503-3.077-3.218-5.585-4.688-7.531-1.47-1.947-2.716-3.379-3.156-4.063zM85.585 83.286l-.344-.197s-.613 1.245-1.053 3.505c-.441 2.26-1.24 5.736-3.246 9.973-4.203 8.874-.022 21.326-.022 21.326l.183-.054s-3.077-12.613.835-20.87c2.05-4.33 2.52-7.893 2.982-10.255.46-2.361.665-3.428.665-3.428zM36.3 81.205c1.466 1.85 3.193 1.887 4.79 2.83l.816-1.191c-1.869-.546-2.573-1.48-5.607-1.639zM38.406 74.344c2.197 1.64 3.875 1.985 5.813 2.977l.884-1.74c-2.232-.413-3.429-1.084-6.697-1.237zM41.625 67.438c1.301 1.636 3.915 3.634 5.024 4.317-.435-.29.73-1.642.25-1.908-1.142-.694-2.955-1.995-5.274-2.41zM43.88 62.893c1.165 1.812 4.145 3.548 4.598 3.759l-.197-1.715s-.647-1.397-4.402-2.044zM52.554 51.295c-1.992.516-2.17-.133-5.974 1.549 2.045.72 3.83.146 5.746.218l.228-1.767zM47.214 45.777c.518 1.165 5.76 3.702 5.853 3.732 0 0 .215-1.446.214-1.447-.074-.024-2.637-2.156-6.067-2.285zM49.652 41.031s2.471 3.559 4.656 4.384l.12-1.786s-.763-.915-4.776-2.598zM54.807 40.88c.538.218 1.2-1.317.709-1.135-.437.265-2.584-1.44-2.885-1.725-.202-.148 1.338 2.758 2.176 2.86z" fill-rule="evenodd"/></svg>