<svg xmlns="http://www.w3.org/2000/svg" width="477" height="343"><metadata/><path d="M85 256c4.897 1.444 16.924.229 12.802-7.895-2.288-4.508-13.049-10.183-17.802-11.529-7.162-2.029-19.197 6.777-10 12.424l-2 6c-7.701-3.68-9.896-14.942-9.27-23 .442-5.667 5.559-11.643 7.586-17 5.537-14.635 10.086-29.018 14.393-44 1.722-5.989 2.232-17.323 7.438-21.272 4.879-3.701 12.371-4.24 17.849-6.966 4.038-2.01 6.676-6.145 11.019-7.488 9.325-2.883 18.512-2.14 22.985-12.274 9.444 14.257 17.328 27.542 18.895 45 1.114 12.411-7.358 25.136-10.218 37-1.999 8.293-1.383 16.74-3.561 25-2.717 10.3-8.016 19.82-10.601 30-1.56 6.141-.162 13.128-2.079 18.999-3.431 10.509-23.018 16.789-20.689 29.996 1.076 6.103 8.192 7.303 13.253 8.339 11.752 2.405 24.403.921 36-.895 3.862-.605 8.551.142 11.566-2.873 7.279-7.278-1.321-21.031 1.037-29.566 1.689-6.117 7.475-11.447 10.497-17 6.57-12.076 12.133-24.797 15.9-38h1c.24 11.638 3.049 26.224 7.514 37 2.819 6.804 10.078 16.566 9.88 24-.34 12.74-19.643 21.073-10.385 35.981 9.314 14.997 31.328-.091 42.991-2.73 6.394-1.447 14.968.447 18.106-7.294 4.332-10.684-4.461-20.812-5.936-30.957-1.689-11.61.492-23.291-1.635-35-1.556-8.569-8.531-18.54-8.297-27 .164-5.953 4.39-13.002 5.762-19l38 17.845L313 231c.07 8.5-.163 18.656 1.329 27 .713 3.985 4.455 8.011 3.314 12.13-2.225 8.026-21.87 16.261-17.449 24.765 2.43 4.674 9.138 6.275 13.806 7.475 11.822 3.04 42.795 7.607 51.486-3.478 3.83-4.885 3.512-13.013 3.514-18.892.006-14.818 1.568-30.517-2-45 12.868 7.935 15.794 23.881 22.244 37 2.234 4.544 6.889 11.75 5.366 16.985-2.35 8.074-26.437 20.681-15.292 31.582 3.09 3.023 8.707 3.248 12.682 4.458 11.502 3.5 46.415 9.212 51.852-6.04 5.081-14.254 3.784-39.425.248-53.985-2.081-8.569-6.915-16.002-7.76-25-.777-8.279 4.958-16.658 5.57-25 .851-11.613-2.739-21.811-3.096-33-.229-7.198 2.186-14.61 2.186-22 10.984 29.115-.514 60.441 7.481 90 1.164 4.303 1.619 28.706 10.238 26.248 3.232-.921 4.188-6.525 3.539-9.248-2.83-11.882-7.956-22.387-7.984-35-.014-6.272 2.852-12.736 3.553-19 4.139-36.992 9.92-88.436-21.831-115.561-14.158-12.095-29.494-20.93-44.996-30.944-12.131-7.836-24.546-16.986-39-20.105-10.602-2.287-22.224 1.094-33 .57-23.496-1.142-46.575-5.59-70-7.79-10.66-1.002-21.219 1.054-32-.974-23.165-4.357-40.298-21.862-63-27.587-7.191-1.814-19.653-.57-27 .72-6.938 1.219-10.612 6.078-16.015 9.926-15.69 11.173-36.267 29.09-44.955 46.744-5.333 10.838-5.905 25.322-9.326 37.001-4.987 17.023-14.46 31.186-17.265 49-2.937 18.657 1.562 38.255 1.561 57 0 14.092-7.884 31.33-2.867 45 7.014 19.109 44.246 25.423 46.867 0z"/><metadata/></svg>