<svg xmlns="http://www.w3.org/2000/svg" width="404" height="174"><metadata/><path d="M106 128.88v1c-5.993 3.144-6.663 11.818-1.721 16.584 9.338 9.005 22.688 10.734 33.721 16.125 4.868 2.378 12.269 5.273 15.971-.935 3.033-5.084-1.802-13.139-3.971-17.775 10.082.267 20.91 7.44 30.985 4.196 7.255-2.336 6.882-10.588 0-13.302-7.229-2.85-16.475.085-23.985.106 6.739-8.534 30.062-5 41-5 10.657 0 21.347.246 32-.015 4.419-.108 9.733-2.159 14-.497 6.73 2.621 12.423 9.778 19 13.333 8.466 4.576 17.113 4.842 26 7.638 11.054 3.478 17.991 6.963 30 6.198 13.047-.832 7.878-10.29 0-14.93-5.232-3.082-12.75-.429-17.682-3.754-7.881-5.312 4.324-18.279 8.682-21.33 1.524-1.068 3.184-1.947 5-2.388 15.897-3.856 6.29 18.713 19 13.745 5.603 9.846 7.293-12.916 6.053-16.956-1.678-5.468-8.474-7.51-13.053-10.044 7.072-2.945 12.175-8.688 19-11.721 10.958-4.871 23.081-6.891 34-12.537 5.239-2.71 14.326-6.974 14.793-13.741.421-6.094-6.383-8.085-10.793-10.245-11.408-5.588-24.479-11.753-34.715-19.176-6.815-4.942-16.609-14.382-25.285-15.081-11.091-.894-14.177 5.39-23.09 8.898-4.745 1.868-11.973-.049-16.91-.567-34.774-3.646-71.456-21.269-107-15.505-35.881 5.819-66.662 23.314-86.934 53.675-8.05 12.056-8.9 29.108-20.07 38.81-8.48 7.366-17.042 1.141-25.996-1.32-6.713-1.845-12.18-1.672-19-1.505-3.952.097-12.213-1.094-14.914 2.7-1.595 2.24 1.13 3.721 2.973 4.087 6.836 1.355 13.116.025 19.941 2.368 22.219 7.627 49.504 19.866 73 18.86z"/><metadata/></svg>