<svg xmlns="http://www.w3.org/2000/svg" width="299" height="590"><metadata/><path d="M64.62 35.942c.217 8.532 6.498 13.352 10.896 20 5.313 8.032 8.86 18.293 9.05 28 .408 20.735-9.48 40.944-15.841 60-1.485 4.45-.066 8.556-.79 13-1.733 10.642-5.476 20.052-6.225 31-1.8 26.268 7.82 52.077 6.866 78-.516 14.022-13.479 23.348-10.728 39 2.08 11.84 16.344 20.931 16.772 32 13.236 16.151 3.08 36.523 3.079 55 0 11.644 1.263 23.353.542 35-.44 7.12-3.703 14.03-5.107 21-2.094 10.395-2.416 21.546-4.25 32-1.004 5.718 1.173 11.33.432 17-1.15 8.803-5.459 14.853-7.91 23-2.251 7.48-2.2 15.591-4.358 23-1.534 5.268-7.016 11.654-11.471 14.757-3.838 2.673-10.585 5.501-10.18 11.228.555 7.825 10.51 4.493 15.223 3.856 11.387-1.54 18.016-17.53 23.204-26.84 5.94-10.66 4.193-19.456 5.914-31 1.07-7.174 5.29-13.675 6.443-21 .972-6.174-.743-12.927.753-18.962.848-3.42 3.835-5.786 5.124-9.054 3.343-8.476 6.166-19.897 6.562-28.985h1c.998 19.797 6.012 37.738 9.222 57 1.792 10.75.677 22.11.778 33 .045 4.856 1.91 9.346-.278 14-1.966 4.185-4.27 11.327-7.222 14.75-2.944 3.415-9.11 2.888-10.167 8.222-.716 3.62 3.707 5.833 6.667 6.306 6.031.963 19.292 1.166 21.083-6.278.765-3.179-2.066-4.602-2.027-7.389.078-5.678 7.17-11.253 7.861-17.61 2.274-20.908-4.729-42.339-6.834-63-1.308-12.85 2.583-25.508 1.89-38-.564-10.138-2.36-20.325-3.14-30.39-.217-2.812 1.373-9.698-1.833-9.61l1-24c13.803 2.676 25.93 4.066 40 3.998 3.793-.018 12.285-2.909 15.272-.306 4.676 4.074 2.901 13.197 6.528 18.217 8.825 12.216 12.4 23.531 18.512 37.09 2.866 6.357 8.251 13.106 9.46 20 4.528 25.81-7.354 52.346-19.69 74-6.158 10.808-6.845 23.48-19.082 30-2.145 7.651-20.309 10.937-17.377 18.892 2.14 5.806 9.147 3.42 13.377 2.133 10.572-3.217 24.13-9.12 29.03-20.025 1.997-4.442 1.862-9.465 3.568-14 5.06-13.45 11.541-26.209 17.958-39 6.702-13.359 17.247-24.453 19.158-40 1.554-12.649-6.714-21.616-6.714-34h1c4.548 9.752 12.613 16.141 16.151 27 2.844 8.728.505 17.16.888 26 .906 20.877 5.287 50.777-7.738 68.957-4.364 6.09-12.414 7.032-18.3 11.043v1c12.601 16.933 42.375-1.219 40.89-20-2.614-33.044 7.593-66.98 3.935-101-1.087-10.11-8.837-11.424-12.223-19.209-8.035-18.47-5.644-35.303-2.81-54.79 1.273-8.766-.329-17.526 5.207-25 2.798 20.764 5.3 42.18 8.3 63 2.078 14.415 6.303 29.365 6.685 44 .23 8.812 1.784 16.37 3.301 25 .548 3.112 1.68 8.143 5.715 8.247 6.975.181 5.556-10.164 5.17-14.248-1.01-10.643 4.31-39.998-9.17-44-.006-8.125-3.352-15.029-3.91-23-1.966-27.998-1.536-65.85-23.606-86.869-11.75-11.192-28.093-20.343-42.485-27.869-6.552-3.426-15.555-5.326-21-10.262-2.454.491-6.72-.12-6-3-5.166-1.39-9.162-7.334-13-10.91-16.432-15.312-21.5-36.902-31.583-56.01-3.098-5.874-10.92-6.655-13.559-13.084-2.582-6.29-.157-14.346-1.322-20.996-1.513-8.645-1.657-17.276-2.706-26-.344-2.865-2.264-6.489-.83-9-5.72-14.658 2.844-38.594 3.91-54 .43-6.19-.219-14.007 5.42-18.258 7.605-5.733 31.991 4.686 34.293-8.753 1.434-8.365-19.335-7.666-22.623-16.989 5.79-.533 14.82-10.596 6.852-14.954-7.28-3.981-14.664 9.281-22.847 7.265-5.62-1.384-7.774-7.077-13.006-9.164-8.837-3.524-19.022-1.251-27.999-4.252-8.918-2.98-16.578-10.692-26-11.707-6.87-.74-16.742 6.113-11.396 13.628C45.116 29.634 56.66 34.24 64.62 35.942z"/><metadata/></svg>