<svg xmlns="http://www.w3.org/2000/svg" width="329" height="402"><metadata/><path d="M74 195c1.373 17.391 3.917 35.623.78 53-1.268 7.021-6.703 13.076-8.737 20-2.636 8.974-1.929 18.801-3.251 28-1.382 9.608-11.025 29.286-4.05 37.682 4.606 5.545 19.43 7.065 22.516-.701 2.849-7.171-2.123-12.348-2.67-18.981-.711-8.642 1.354-26.872 4.406-35 3.219-8.574 9.877-15.648 15.072-23 13.769-19.489 31.648-39.848 40.934-62h1c2.101 5.455 7.647 8.194 9.684 13.174 1.516 3.706-.86 8.858-.587 12.826.366 5.308 3.962 9.818 4.201 15 .522 11.307-9.563 20.378-10.891 31-.646 5.166 3.447 10.677 5.703 15 4.254 8.152 7.265 16.914 11.751 25 10.181 18.353 26.218 38.594 48.139 23 0 11.664 5.058 20.641 5.625 32 .32 6.398-1.735 15.369 2.889 20.772 6.148 7.185 33.553 6.89 35.239-4.773 1.659-11.471-13.182-9.534-15.436-18.018-5.711-21.493-6.882-45.846-8.407-67.981-1.776-25.793-6.121-46.69 9.09-70 7.306 8.601 4.587 15.841 6.666 26 6.48 31.66-3.649 65.225 4.853 97 3.272 12.231 13.725 14.001 24.481 14 5.336 0 12.084.559 13.678-6.005 3.327-13.695-14.465-12.647-17.399-22.038-5.164-16.523.429-33.562 1.631-49.957 1.265-17.266-2.494-40.136 5.417-55.981 3.19-6.389 11.699-8.826 16.554-14.112 5.125-5.58 9.862-19.594 12.231-26.907 5.209-16.079 10.08-34.038 10.849-51 .249-5.511-2.053-10.767-1.857-16 .194-5.167 4.15-9.58 3.462-15-1.032-8.135-11.229-12.35-12.213-20-.649-5.04 2.518-11.042 3.322-16 1.485-9.158 2.234-18.73 3.275-28 .636-5.67 2.307-12.792-1.678-17.721-5.195-6.426-17.876-4.82-24.272-1.61-6.984 3.506-12.105 9.525-19 13.057-12.601 6.454-33.811 8.641-48 6.337-13.037-2.118-20.759-18.029-32-23.685-4.189-2.108-11.219-5.125-15.772-2.35-3.945 2.404-3.233 8.034-3.228 11.972.014 11.713 4.371 19.393 7.487 30 .889 3.025 2.187 11.935-.844 13.957-3.793 2.53-9.473-1.872-13.643-1.539-13.797 1.101-33.399 2.658-46 8.632-13.713 6.502-23.977 22.205-34.053 32.946-12.726 13.567-27.91 25.549-38.4 41.043-4.012 5.928-4.175 12.904-7.515 18.961-7.765 14.082-16.646 27.441-18.851 44-2.288 17.181 5.277 41.609 25.804 25.471C55.56 225.799 62.525 207.743 74 195m117 36l3.464 31L208 317c-5.252-.664-12.138-.536-16.791-3.303-5.807-3.454-8.591-11.967-11.457-17.697-11.626-23.237-10.674-47.786 11.248-65z"/><metadata/></svg>