<svg xmlns="http://www.w3.org/2000/svg" width="429" height="202"><metadata/><path d="M245.88 187.88l3 12h2l5-6c.595 3.71 1.312 5.805 5 7 3.328-5.29 7.924-1.874 13-1l-2-9c9.123-1.525.085-8.82 0-14l-42-3v-2c11.523-4.275 22.427-16.493 23-29 17.678 9.278 33.986 3.031 52 1 1.796 11.648 30.68 21.275 40 15l14 5.443 10 9.556 18-2v-2l-7-3 12-3c-2.953-4.57-10.016-3.986-15-4v-1l6-5c-8.115-5.41-22.467 2.767-32-2-6.88-3.44-8.098-24.774-1-23l-1-4h1l2 2-1 4c2.397-.086 3.474 1.715 6 2 4.68.527 9.396-1.552 14-2 10.636-1.034 18.401 1.541 29-.667 5.745-1.197 16.292-5.155 19.5-10.5 3.281-5.469-5.489-20.118-8.5-24.833-11.375-17.803-25.454-23.612-42-35.333-6.456-4.573-10.996-11.56-19-13.667-6.705 8.71-17.672 2.013-18 16-11.413-4.745-22.455-6.963-34-10.75-6.697-2.195-12.247-6.72-19-8.814-24.47-7.584-48.312-6.805-72 2.51-7.28 2.864-13.894 4.144-19.96 9.494-7.684 6.775-13.369 15.77-18.377 24.56-5.319 9.335-10.467 17.56-13.458 28-3.183 11.11 3.417 20.16 3.794 31l2 3 2-1 7 15c-13.312-5.535-29.169-14.772-38.08-26.39-9.324-12.154-10.945-27.84-18.526-40.61-9.478-15.966-22.701-29.56-34.939-43.285-6.122-6.867-13.126-12.94-19.13-19.755-4.74-5.38-8.539-12.53-16.325-13.746-3.336-.521-6.7.044-10 .515-23.246 3.322-14.641 21.67-8.536 37.271 11.582 29.596 29.627 55.966 48.402 81 4.176 5.568 6.164 12.546 10.663 17.83 15.178 17.824 45.94 31.437 69.471 31.166 12.884-.148 25.103-5.115 38-3.825 18.818 1.881 36.402 11.35 55 12.83z"/><metadata/></svg>