<svg xmlns="http://www.w3.org/2000/svg" width="431" height="485"><metadata/><path d="M17.758 200.033c-.663 2.49-1.236 7.037 2.926 6.534 5.37-.649 13.617-13.507 18.374-16.934 3.617-2.606 8.572-1.177 12.7-2.129 7.426-1.714 13.75-6.275 19-11.47.615 17.08-2.199 33.961-1.996 51 .262 21.99 4.412 43.194 5.907 65 .642 9.366-1.34 18.756-.817 28 .4 7.062-.468 16.22 1.34 23 2.985 11.197 6.566 18.784 6.566 31 0 10.547-2.434 21.933-1.892 32 .328 6.088 3.068 11.925 3.719 18 .646 6.041-1.892 16.214 5.278 19.257 6.693 2.84 32.146 5.51 28.191-6.254-2.39-7.113-11.046-8.429-14.457-15.019-4.169-8.05-1.033-20.806-11.839-23.985l-2.617-46 3.528-20 .507-26 11.177-43 10.405-32h2c1.68 19.268 5.28 38.456 3.91 58-.704 10.053-8.168 20.23-7.27 30 .655 7.145 6.561 13.233 8.766 20 6.61 20.29 14.484 41.78 23.513 61 3.834 8.162 10.997 17.048 12.728 26 .754 3.902-2.803 10.995.956 13.972 2.302 1.824 6.673.976 9.397 1.043 6.44.158 27.463 4.69 30.15-4.124 1.978-6.49-9.849-13.009-14.15-15.89-17.406-11.66-27.53-26.688-35.104-46-5.983-15.26-11.71-37.516-9.823-54 2.693-23.535 13.404-45.68 17.927-69 13.854 11.353 41.382 18.407 59 21 0 13.608.325 30.377 8.65 41.984 3.993 5.57 12.45 7.657 15.233 14.02 1.354 3.096-.14 6.727.511 9.995 1.966 9.871 5.586 19.937 6.381 30 .796 10.064-5.058 19.961-8.165 29-4.058 11.804-4.562 24.944-5.496 37-.297 3.833-3.189 8.202-2.663 11.891.983 6.905 17.02 4.187 21.55 3.11-.09 4.306-2.405 10.851.027 14.72 3.787 6.028 20.685 5.266 26.972 5.28 4.344.008 16.316 3.324 18.338-2.276 1.147-3.178-2.069-5.656-3.709-7.895-6.259-8.54-14.548-9.792-21.35-17.043-8.992-9.584-9.35-28.54-10.189-40.787-.74-10.792-2.146-25.82 2.054-35.985 2.22-5.37 7.568-8.238 9.337-14.015 2.705-8.83-.508-18.847 4.594-26.957 8.148-12.953 24.134-12.91 24.925-31.043h1c10.482 28.58 47.747 19.275 63.471.896 19.482-22.772 27.22-51.67 26.514-80.896-.372-15.439.38-30.603 1.845-46 .822-8.634-.913-13.428 4.17-21h1c9.646 9.038 28.85 1.244 25.606-13-3.628-15.932-23.14-21.444-36.606-26 1.095-3.86 2.772-7.956 2.863-12 .21-9.216-7.793-13.23-15.863-12.278-14.08 1.662-28.355 7.871-40 15.922-11.008 7.61-24.675 22.15-25.776 36.356-.598 7.718 3.02 15.188 1.776 23-18.044-19.592-27.894-52.182-31.787-78-1.383-9.172 6.12-19.268 1.33-27.895-2.154-3.88-6.74-5.17-10.543-6.871-10.356-4.635-26.623-8.756-38-7.02-25.854 3.942-17.96 50.902-47.957 42.352-13.802-3.934-7.203-20.445-10.646-29.551-5.719-15.124-22.516-12.456-34.397-12.144-4.12.109-8-1.496-11.999.22-7.455 3.197-11.732 12.41-13.332 19.91-3.464 16.228-1.08 32.358-8.164 47.91-1.874 4.113-5.759 7.111-7.975 11.09-11.139 19.986-20.212 37.855-40.53 50.815-9.078 5.791-18.64 6.308-28 10.854-6.645 3.228-27.007 10.6-13 19.33z"/><metadata/></svg>