<svg xmlns="http://www.w3.org/2000/svg" width="515" height="225"><metadata/><path d="M229.12 16.517l-1.785 16 4.694 13-8.79 13.71-7.71 7.798-14.408-3.596-40-16.941-16-6.971 1-6h4c-.79-4.556-3.728-5.355-8-6v7l-1 5-64 2.296-63 10.704v4c14.343.12 21.079 15.33 32.09 22.736 6.403 4.307 15.655 3.26 22.91 4.743 9.414 1.925 19.935 7.61 27.896 12.872 7.918 5.234 7.683 18.558 14.332 22.62 5.786 3.536 19.275-.183 25.772-.801 17.78-1.692 52.736 1.095 60.967 19.83 2.479 5.643-3.92 9.807-2.967 16l10-7c1.914 5.45 6.66 6.338 10.406 10.29 9.68 10.218 21.009 18.148 29.62 29.325 2.775 3.6 3.132 16.363 9.766 13.762 6.047-2.371 7.49-13.472 11.598-18.092 5.386-6.057 12.506-9.398 18.61-14.48 7.142-5.947 12.973-13.01 21-17.805 3.514 11.857 11.356 2.375 2-4 10.76-13.901 35.928-18.12 52-22.26 6.548-1.687 10.91-4.17 18-3.65 8.43.618 15.86 5.03 24 5.91 3.263-17.247 33.837-29.422 50-31.83 5.17-.77 13.356 1.536 17.697.097 3.54-1.173 3.622-8.172 6.45-10.738 7.078-6.422 19.85-11.56 28.853-14.53-1.226-7.06-22.304-10.166-29-11.922-31.955-8.38-65.02-12.077-98-12.077 0-2.695.773-7.14-1.028-9.396-3.15-3.946-7.382-.003-7.972 3.396h5v4c-10.865.497-19.513 6.89-29 11.25-7.636 3.508-16.134 5.43-24 8.343-7.03 2.602-17.776 7.138-24.91 2.549-4.802-3.09-7.23-9.32-9.861-14.142-1.928-3.535-5.28-7.053-6.216-11-1.687-7.105 1.927-15.731 1.987-23l-20 5.916-33-6.916z"/><metadata/></svg>