<svg xmlns="http://www.w3.org/2000/svg" width="540" height="228"><metadata/><path d="M144 84c0 17.54-2.868 42.557-16.21 55.787C118.343 149.155 89.798 153.856 95 172c-3.445 2.434-2.757 6.207-3.901 10-2.163 7.167-8.751 13.882-6.65 21.961 1.882 7.238 12.956 15.337 20.442 12.026 12.05-5.33-3.959-12.938-6.028-17.042-2.072-4.108 1.225-11.56 3.926-14.72 7.589-8.878 21.992-13.694 32.211-18.551 6.246-2.969 10.505-8.066 16-12.04 14.492-10.481 34.317-19.805 37-39.634 6.078 6.963 16.201 16.392 16.91 26 .592 8.034-1.018 16.779-4.504 23.999-1.967 4.074-7.19 8.411-7.188 13.013.002 5.202 6.891 12.141 10.111 15.984 6.805 8.124 17.578 19.731 28.671 20.805 9.263.897 21.777.04 19-11.801l-3 1c-3.2-8.365-11.609-2.066-18-5.272-6.712-3.365-12.726-18.418-12.735-25.689-.01-8.464 11.038-13.238 14.689-20.039 2.807-5.23 3.446-11.431 5.391-17 2.143-6.136 6.88-11.714 8.261-18 1.852-8.432-2.019-22.84-4.606-31 6.062 4.677 9.798 10.12 17 13.626 20.851 10.152 50.341 9.374 73 9.374-3.462 14.543-1.501 31.076-3.285 46-1.572 13.142-7.775 26.63-5.247 40 1.987 10.511 19.065 22.006 29.304 14.258 11.43-8.651-8.891-14.136-14.772-14.258 3.917-8.139 1.713-18.25 3.017-27 .82-5.501 5.116-9.64 6.454-15 3.12-12.492 1.791-34.722 13.142-43.487 3.962-3.059 11.573-2.616 16.387-3.513 3.795 15.976 18.39 24.129 29.907 34.464 4.607 4.134 7.197 9.936 11.393 14.443 4.997 5.367 11.899 8.815 17.415 13.588 6.441 5.573 11.276 12.762 18.285 17.872 8.6 6.269 13.928 7.453 24 9.007 3.861.596 9.183 1.321 10.562-3.483 2.892-10.079-21.174-16.159-27.562-21.27-19.415-15.532-33.243-38.645-45.931-59.621-3.998-6.609-9.441-21.213-5.041-28.7 3.181-5.411 12.517-7.063 17.972-9.3 6.127 9.672 17.936 4.945 26.957 6.603 5.544 1.018 7.417 7.97 14 7.125 3.79-.487 5.407-3.952 7.719-6.523 9.111-10.131 6.615-28.297-.36-40.205-2.143-3.658-5.047-9.018-9.359-10.333-5.293-1.613-9.544 1.554-14.957-1.146-13.724-6.846-25.266-7.532-40-10.136-5.904-1.044-11.184-4.037-17-5.056-16-2.805-38.043-1.805-54 1-6.724 1.181-11.47 6.584-18 8.139-12.338 2.938-26.495-.468-39-.468-18.742 0-36.55 3.146-55 3.96-17.826.788-35.73-.711-53 5.144-12.099 4.102-23.815 14.025-34 21.547-24.523 18.108-46.74 40.091-72 57.01-15.822 10.598-39.517.987-53.468 18.379-5.809 7.243-6.48 20.021-5.347 28.96.635 5.01 3.891 10.139 9.706 8.551 4.502-1.23 3.644-6.051 4.927-9.551 1.684-4.594 5.587-9.279 10.182-11.142 3.776-1.531 8.086-.522 12-1.577 9.911-2.673 21.576-6.101 31-10.321 8.307-3.72 15.565-10.806 23-16.047 14.933-10.528 29.729-20.212 43-32.913z"/><metadata/></svg>