<svg xmlns="http://www.w3.org/2000/svg" width="417" height="623"><metadata/><path d="M111 545v-1c8.674-6.699 9.713-18.63 16.26-27 7.014-8.967 16.624-16.103 22.391-26 5.893-10.112 6.913-22.081 12.581-32 6.601-11.551 17.339-21.373 19.768-35h1c0 13.304-8.264 46.313 10 50v1c-11.724 3.232-27.234 20.039-14.775 31.606 7.267 6.746 27.448 8.1 36.775 6.394.759 9.62-2.29 30.174 4.514 37.697 4.901 5.418 15.046 2.669 21.486 4.202 19.406 4.619 48.579 18.888 65.775 2.583 11.45-10.856.549-38.906-12.776-43.257-11.843-3.869-24.097 2.774-35.999 2.775.707-16.179 16.983-34.299 24.982-48 11.377-19.486 14.867-43.395 8.018-65h1c7.43 17.22 20.305 39.899 34.17 52.674 9.28 8.551 23.304 14.51 30.273 25.326 3.295 5.114-.131 13.247-.103 19 .035 7.179 3.363 15.27 5.66 22-9.966 2.379-16.253 2.821-14 15-2.144-1.746-4.982-5.384-7.981-5.365-7.133.044-2.449 11.53-.37 14.321 4.831 6.485 12.301 4.591 19.352 5.134 14.551 1.118 33.598 8.158 42.909-8.091 7.197-12.558 1.584-32.956 2.92-46.999 2.467-25.919-12.949-44.93-23.572-67-17.808-37.001-36.325-75.076-36.258-117 .029-18.295 5.165-35.821 5.961-54 1.313-29.991-2.49-60.631 1.224-90 .953-7.532 6.901-13.72 12.815-17.96 4.139-2.967 10.664-5.869 9.644-12.041-2.41-14.571-9.472-27.236-16.818-39.891-1.959-3.374-6.674-3.818-8.223-7.333-3.321-7.536 6.928-13.054 3.654-20.587-2.109-4.852-11.108-9.505-14.972-13.474C325.663 44.748 315.507 27.562 298 20.352 271.907 9.607 236.851 40.725 230.043 64c-3.443 11.773-2.015 30.329-13.048 38.2-12.792 9.125-26.957 15.243-38.995 25.974-9.116 8.125-14.937 19.289-24.09 27.161-8.165 7.023-20.26 9.327-26.779 17.68-6.406 8.21-7.91 17.573-11.737 26.985-5.184 12.75-10.006 24.655-13.815 38-3.15 11.032-9.077 21.023-12.09 32-4.58 16.678-5.008 35.738-6.659 53-1.65 17.256-5.933 34.579-4.74 52 1.09 15.929 13.694 23.351 16.771 38 1.22 5.806-3.064 12.193-3.687 18-1.43 13.313.544 26.828-.283 40-.725 11.554-17 21.581-23.127 31-8.558 13.155-8.802 28.175-13.153 43-3.24 11.039-8.886 19.783-6.082 32 3.412 14.861 15.383 14.822 27.471 18.44 18.568 5.556 36.882 15.563 57 8.771 9.356-3.159 22.474-16.399 17.991-27.196-2.295-5.527-9.361-9.641-13.991-13.116A1059.865 1059.865 0 00111 545m153-222l9.541 42L284 389h-1c-8.229-19.629-31.183-28.529-44-44l25-22m21 67l-1 1 1-1m5 10l1 4h-1v-4m59 138l-1 1 1-1z"/><metadata/></svg>