<svg xmlns="http://www.w3.org/2000/svg" width="455" height="321"><metadata/><path d="M38.88 103.454h5l-1-5 8 4v-5l8 2c-17.518 11.552-43.562 16.101-48 41l5-2v8l4-4h5v4c4.08-1.335 5.499-5.452 9.018-7.895 14.55-10.098 32.977-22.763 50.981-18.105v1c-8.752 4.164-13.33 12.501-21 18.072-5.065 3.678-10.776 4.544-13 10.928l10-2-8 16 5-3h1l5 17h4l-1-6 10 9 1-6 3 6h4c-.425-5.434-.53-10.544-.065-16 1.548-18.155 13.692-24.58 28.976-15.092 7.93 4.923 13.764 13.457 20.18 20.053 10.404 10.7 21.192 21.46 32.91 30.753 8.36 6.63 18.237 11.607 27 17.797 4.837 3.418 9.35 4.321 11 10.49-9.646 2.204-19.214 2.854-29 .71-4.775-1.046-9.07-4.15-14-4.436-2.906-.169-23.018-1.58-15 3.725v2l-20 6v2l7 1c-5.702 9.938-12.964 13.33 3 13l1 11c8.237-3.913 12.587-5 22-5l-1 6c7.893-1.212 15.892-6.466 24-8.486 9.657-2.406 19.251-1.262 29-.428 4.186.36 18.63 2.57 14.927 9.59-2.95 5.592-9.628 5.781-14.928 6.65-13.009 2.13-24.696-2.267-38 1.674v2l5 3-15 5v2l7 2-10 16 23 1c-2.602 3.302-3.675 5.045-2 9h1c6.981-4.335 17.635-7.224 18 4 12.833-2.15 24.435-19.732 36-25.864 13.891-7.366 32.248-8.223 46.961-13.77 5.516-2.08 7.364-8.876 13.04-10.723 3.15-1.026 6.742.418 10 .172 9.93-.75 18.887-3.875 26-10.815 5.064 7.994 17.968 4.937 26 4.17 22.58-2.158 44.618-8.896 67-10.545 6.89-.508 22.703-4.519 22.703-13.625 0-9.22-17.556-7.693-23.704-8.035-27.177-1.514-53.623-4.464-80-10.965 12.721-41.774 2.91-100.102-29.289-131.79-11.13-10.953-23.885-14.348-36.71-21.576-16.922-9.537-34.204-14.89-52-22.506-17.19-7.356-34.639-16.16-53-20.113-10.566-2.274-21.33-1.87-32-3.198-16.695-2.078-34.053-11.431-51-9.643C59.546 12.934 34.285 30.132 23 59.454c-1.93 5.012-7.297 9.276-6.648 15 .811 7.158 5.625 7.361 9.84 11.56 4.315 4.3 9.853 12.014 12.687 17.44m166 208l-1 1 1-1z"/><metadata/></svg>