<svg xmlns="http://www.w3.org/2000/svg" width="425" height="345"><metadata/><path d="M42 9l7 21c-9.797.081-14.32 5.67-23 8.348-3.902 1.204-8.094-.026-11.98 1.086-3.139.897-4.944 3.284-4.772 6.57C10 60.457 33.746 60.486 44 62c.865 10.575 6.131 18.997 5.996 30-.112 9.139-5.993 17.975-2.528 27 4.043 10.528 19.858 13.536 21.188 25 1.648 14.206-7.645 28.513-10.188 42-1.986 10.528-1.03 30.485 12.532 32l-3-7 6 2-3-30h1c.766 9.623 3.274 23.186 14 26l-1-4 6-1-3-7 3 1c.935-6.138-6.736-5.413-8.486-11.019C79.306 176.708 85.95 168.675 90 160h1c2.797 5.344 7.41 7.194 11.576 11.209C113.477 181.716 124.194 192.861 140 195c1.956 23.943 12.936 46.339 9 71-14.118 0-39.405-5.646-47 10l49 1c-10.46 13.329-36.438 5.081-51 4.09-7.497-.511-18.53.566-21 8.91 21.724-1.266 43.215 3.745 65 4.004 6.404.076 18.287 2.719 23.721-1.607C172.248 288.794 171 281.082 171 276c25.739-.071 15.879-21.689 20-39 13.44 4.01 27.377 2.538 41 0 2.766 9.603 9.486 18.445 14.548 27 8.38 14.162 17.797 30.588 31.452 40.363 8.811 6.307 20.881 9.033 31 12.571 34.397 12.028 73.094 13.528 109 18.066-.705-9.048-24.108-10.462-32-11.576-22.208-3.133-44.138-10.109-65-18.052-9.763-3.717-21.269-6.871-28.829-14.476-23.859-24-31.702-62.259-33.132-94.896-.783-17.895 5.153-38.434-5.033-55C233.649 107.89 189.005 86.26 151 82.174c-19.078-2.052-38.55 2.95-57-4.293C79.113 72.037 82.562 50.317 70 44c3.06-10.999-4.53-14.953-9.31-24-1.875-3.548-4.03-13.468-8.69-7L42 9m31 173l-1 1 1-1m101 61l-3 19h-1c-2.346-7.401-2.282-13.614 4-19z"/><metadata/></svg>