<svg xmlns="http://www.w3.org/2000/svg" width="376" height="331"><metadata/><path d="M96 128c2.132 7.263 7.958 14.302 8.386 22 1.006 18.088-12.333 36.37-19.605 52-2.854 6.134-3.774 14.457-7.52 19.965-4.693 6.903-15.456-.172-22.261-.794-4.86-.445-9.324.146-8 5.829-1.96 1.728-1.647 3.662 1.149 4.568 7.83 2.537 16.068 3.078 23.851 6.432-3.18 1.709-7.007 5.658-.941 6.768 5.944 1.088 7.456-3.128 12.07-5.208 5.681-2.561 10.718-2.759 15.686-7.229 5.01-4.508 6.835-11.574 10.047-17.331 4.21-7.547 10.428-14.333 14.138-22h1c0 22.724 3.647 50.568-5.879 71.941-2.994 6.718-18.955 2.447-20.2 9.189-.779 4.22 7.25 2.304 9.079 1.87v1c-9.69 4.065-14.867 17.754 0 14 .678 4.06 3.401 5.973 6 2 6.404 1.444 7.53-4.922 12.44-7.812 5.452-3.209 10.915-4.164 15.335-9.228 11.194-12.822 12.177-36.444 19.086-51.96 3.368-7.563 10.575-13.572 13.26-21.004 1.952-5.401-5.32-14.715-3.29-17.406 3.056-4.053 15.08.983 19.169 1.567 12.084 1.724 29.953-4.672 42-7.157v1c-31.219 15.472-32.716 48.25-21.077 77 4.055 10.016 13.498 17.832 14.077 29-10.081 0-20.487-6.239-29.995-4.848-10.869 1.59-8.338 22.195-1.549 27.284 5.4 4.047 9.463-1.631 14.544-2.523 11.85-2.08 30.68 2.915 40.772-6.332 4.325-3.963 2.659-9.453 3.441-14.581 1.442-9.456 3.982-19.414 5.787-29h2c4.345 9.1 20.247 19.715 30 22.1 7.496 1.833 18.94 1.157 23 8.9-9.198-3.957-26.719-8.583-35.852-2.142C264.65 293.967 288.763 299.714 294 300c-1.183 6.473.558 13.58 8.961 10.258 10.622-4.2 23.209-13.534 30.899-22.038 2.181-2.411 5.886-3.86 6.662-7.275 1.39-6.114-5.811-10.919-9.692-14.405-10.237-9.195-29.224-14.199-30.725-29.54-2.238-22.87 16.404-35.198 25.352-54 7.582-15.933 4.79-39.258 1.543-56 11.717 6.275 15.402 21.353 15.961 34 1.177 26.643-15.027 48.478-7.251 76 2.105 7.452 4.891 20.956 12.395 24.968 5.252 2.807 8.421-2.233 7.501-6.968-3.718-19.14-7.059-33.189-2.37-53 3.854-16.284 8.709-31.283 9.854-48 .363-5.306 1.978-10.848-.176-16-3.792-9.073-12.921-21.802-21.914-26.08-7.135-3.394-15.644-3.181-23-6.025-6.028-2.33-10.168-7.465-16-10.121-11.413-5.197-23.458-7.722-35-12.238-20.181-7.896-41.841-17.482-58.961-31.134C198.425 44.735 192.677 32.81 182 25.97 152.754 7.234 105.188 4.74 74 18.529 59.728 24.839 50.123 37.945 42.572 51c-2.045 3.535-6.292 7.714-6.277 12 .016 4.264 4.201 7.434 6.02 11 3.018 5.914 5.191 13.456 6.105 20 1.052 7.537-4.643 12.687-3.952 20 .587 6.206 2.772 19.341 7.76 23.436C63.682 146.842 86.134 134.983 96 128z"/><metadata/></svg>