<svg xmlns="http://www.w3.org/2000/svg" height="120" width="120"><metadata/><path d="M47.115 9.37l.128.042-.128-.042zm-.382-.071c-4.152 4.756 7.337 2.59 9.74 4.393 3.545 4.324 7.112-.382 10.469-2.34-3.426 1.462 4.357 1.986 5.026-.015-1.108.013-.536.927-.814-.113-5.128-4.04-8.244 6.777-12.685 1.136-3.583-2.598-8.688.94-11.736-3.061zm25.235 2.038h.05-.05zm.05 0c-3.62 1.663 1.725 3.142 4.161 2.64 1.952 2.235 10.936 1.037 8.994-.093-4.297.474-10.31-1.193-12.602-2.757-.198.008-.338.287-.554.21zm12.131 3.356c-2.245.269-7.25 2.171-7.392 3.101 8.087-2.422 17.488-4.505 25.366-.24 5.73 3.005 4.804 10.59 8.14 15.388 2.541 4.533 7.58 9.532 4.908 15.098-3.537 2.58-2.774 7.328-5.71 10.968-2.958 5.707-9.9 1.138-14.462 4.432-5.097 2.115-14.6.888-14.23-6.268.2-6.323 5.486-12.419 2.021-18.689-2.061-2.184-3.799-9.735-7.404-6.448 3.789 4.503 8.322 10.379 5.65 16.573-1.286 4.655-4.4 10.524-.562 14.757 5.226 4.093 11.963 1.89 17.628.13 7.189 1.407 13.445-3.327 15.996-9.942.526-4.21 5.83-7.377 3.551-12.474-2.337-5.743-7.082-10.338-8.2-16.623-.83-4.546-3.819-8.515-8.47-9.586-5.414-1.834-11.343-1.502-16.83-.177zm-37.72-3.497c-1.249-1.41-10.474-.952-12.116 3.148-.266 5.377 7.447-.516 10.632 2.458 1.936.959 6 5.673 6.088 2.336-3.312-3.72-8.747-5.18-13.293-3.813-4.366-1.204 1.623-5.097 4.334-3.453 1.134.324 3.443-.044 4.355-.676zm4.877 8.614c-5.267 1.21-4.102 1.81-3.61 1.6 5.79-1.863 9.796 4.929 10.423 10.187.722 5.263 1.237 11.269-1.582 15.984-3.085 1.458.126-5.79-2.327-7.926-1.378-3.119-3.389-10.544-7.918-7.738-1.409-.88.409-7.549 1.34-10.33-.573-1.46-4.297 3.766-3.687 6.856-1.472 4.904.687 11.357-.89 15.322-6.373 3.808-14.177 7.166-21.683 5.173-.502-.474-1.243-2.326-2.398-3.995-.895-3.364-9.191-2.32-11.26 1.707-5.652 6.2-6.206 17.051-.365 23.257 3.412 4.049 10.269-3.417 9.031 3.788.48 6.036-1.056 12.62 1.698 18.222 6.88 8.44 21.12 8.671 29.073 1.635-.021 6.126.678 14.213 7.525 16.507 6.468 3.073 15.91-2.106 14.827-9.73.098-3.581-4.86-8.674 1.196-5.841 9.536 2.42 19.345.052 29 .98 2.502.959 5.679-1.582 4.019-1.712.607-2.736-4.002-7.86-3.047-12.098-.664-5.68.902-14.287-.746-18.47-4.06 2.425-.12 10.147-1.505 14.361-.06 5.66.223 11.78 3.744 16.506-7.697-.8-15.373.545-23.066.07-4.943-.342-10.306-1.6-14.407-3.97 1.693-3.239 5.247-9.053 3.778-11.493-1.455.61 6.133-8.054 2.934-6.94-3.382 2.65-3.806 8.617-8.246 10.655-3.756 1.071-6.515 1.188-10.826 1.653-4.26 3.18.504-5.352-3.623-2.129-.84 4.624-.227 10.36-4.247 13.433-7.649 3.869-18.058 2.172-23.964-4.079-2.824-4.306-1.801-9.922-1.932-14.838-.114-4.788-1.266-8.98 3.064-12.14 3.218-3.857.09-10.464.873-13.363 7.822.252 15.244-3.25 21.733-7.313.232 7.575 9.418 8.418 13.6 3.406 5.096-5.883 3.391-14.632.939-21.302-1.12-3.201-3.75-6.253-7.468-5.895zm-4.34 20.973c2.252 1.975 8.887 9.186 3.285 6.727-3.561-1.113-3.072-5.357-3.284-6.727zM11.54 43.92c-1.76.759 1.192.31 2.975 1.484 3.709 2.962 2.184 12.075-.936 12.322-3.496 2.156-6.657-1.852-7.753-2.52C5.48 51.49 9.103 45.24 11.54 43.92zm55.197 36.185c-.362 3.646-2.583 12.13-5.78 5.625-3.393-2.437 5.06-2.991 5.78-5.625zm-24.244 1.252c-3.65 1.366-.355 2.444 1.375.389.445-.286-1.746-.075-1.375-.389zm-6.115.29c-3.717 1.032-.35 3.51 1.522 1.155.622-.353-2.08-.698-1.522-1.154zm-6.69.977c-2.944 1.46-1.281 2 .659.227l-.658-.227zm15.198 1.982c-3.35 1.496-.657 2.27 1.124.335l.044-.03-1.168-.305zm12.309.27c3.141 4.15 6.358 6.87 8.66 11.472 2.95 3.882.655 11.217-1.14 12.51-.566.495-2.837 1.708-.661.218-6.191 1.935-13.67-2.369-14.172-9.115-.808-4.172-1.08-14.136 1.41-14.217-1.179 3.98 4.14 10.215 6.134 14.567 2.534 2.06 3.05-2.316.495-3.817-1.062-3.92-9.627-12.99-.726-11.619zm-21.943 2.817c-4.206.9.523 4.312 2.372 1.977 1.915-.681-2.499-.973-2.372-1.977zm-9.853.587c-4.05 1.08.297 3.278 2.045 1.193 1.635-.626-1.86-.72-2.045-1.193zm10.823 4.105c-4.055 1.645.713 2.463 2.347.58 1.897-.871-2.17-.222-2.347-.58z"/></svg>