<svg xmlns="http://www.w3.org/2000/svg" height="160" width="160"><metadata/><path d="M83.012 17.316c-5.066 1.846-9.37 8.198-10.4 13.903-2.076 5.33-6.524 13-11.573 16.377 1.825 2.441 6.5-4.256 8.502-5.144-1.245 2.519-4.261 5.32-1.972 8.201 3.141 3.943 9.294 5.67 13.486 2.3 4.275-3.175 6.03-8.458 9.09-12.634 1.886-2.983 1.245-6.974-1.533-9.176-1.13-1.507-2.964-3.94-4.946-2.123-3.481.03-9.342 4.375-12.3 9.988 1.377-4.028 6.178-14.658 8.434-18.211 9.962-2.694 20.742 2.881 29.405 7.762 1.202-1.046 5.397 3.095 7.384 3.062 12.23 7.621 15.41 24.545 13.818 38.478.017 4.297-2.164 1.098-3.42-2.127-2.337-5.254-8.158-12.085-3.516-16.078-1.293-2.505-1.85-.284-3.537.293-1.69.744-5.101 2.281-3.283 4.6 6.929 5.838 8.484 12.448 13.365 19.71 4.242 8.479 12.865 20.655 11.262 30.544-1.348 6.822-10.594 13.322-17.41 13.435-6.147.92-13.698 1.843-19.378-1.027-4.322-3.37-8.13-7.903-10.6-12.7-2.837-7.43-3.391-18.515-3.55-26.426.37-12.263 3.797-23.13 10.728-33.28-4.13 2.083-6.782 2.961-10.895 5.075 2.469 5.27-2.143 10.167-2.087 15.48-.84 6.608.49 16.447.292 23.078-6.917.464-11.389 1.341-17.207 5.04-10.355 3.28-24.421 7.27-36.284 5.24-1.323-.272-8.567-1.07-2.147-3.987 5.247-1.9 10.724-3.301 15.93-5.429 6.475-2.648 13.083-5.116 19.505-7.805 1.754-1.277 3.59-2.623 4.2-4.824-1.692 1.84-8.986 5.1-13.923 6.266-8.404 2.999-17.1 5.864-25.673 8.32-5.812 1.768-5.459 4.393-7.547 5.02-3.068-1.959-7.284-10.682-7.773-15.566-.166-4.07.635-9.162.498-13.257.212-2.766 6.053-5.671 8.674-6.68 1.99-1.156 2.798-4.242 4.253-5.652 1.886-.785 4.252-.91 6.646-.973 4.441-1.724 8.918-1.787 13.4-3.506 3.847-.995 7.206-.275 11.053-1.272-1.374-2.858-4.65-1.775-6.893-.978-7.361 1.332-14.65 3.668-22.214 3.648 1.006-1.965 1.817-4.136.438-6.202-2.292-4.474-6.93-7.236-11.336-9.31-4.745-1.286-9.24 2.058-12.325 5.307-4.757 5.908-6.29 14.31-4.254 21.569 1.734 3.785 6.77 2.93 10.09 2.354.34 6.188-2.465 12.639.46 18.568 1.787 5.747 3.602 13.184 10.097 15.187 15.89 4.496 33.155 1.44 47.712-5.882 4.317-1.756 9.258-3.596 13.882-2.49 1.385 1.924-.044 4.593.717 6.837.803 8.517 6.502 15.685 13.548 20.153 3.658 2.556 7.895 5.07 12.539 4.152 9.01-.717 18.242-3.797 24.98-9.966 5-4.681 7.06-12.432 4.023-18.747-2.31-6.5-7.94-11.363-10.172-17.787-1.117-10.396-.336-21-2.27-31.284-2.024-8.023-8.323-14.491-15.928-17.527-1.242-1.316-3.575-1.384-4.605-2.069-3.181-2.869-7.555-4.26-11.388-6.166-5.005-2.348-10.496-4.05-16.072-3.662zm3.526 14.052c2.795 1.315 2.03 9.309-.29 10.553.807-5.957-5.99-7.477-8.946-6.393 1.305-.98 5.722-6.295 9.236-4.16zM12.436 48.846c6.82 3.15 2.212 7.415-.562 9.2-2.24-.01-2.905-3.675-2.806-5.302.373-1.171 2.752-2.874 3.368-3.898z"/></svg>