<svg xmlns="http://www.w3.org/2000/svg" xmlns:xlink="http://www.w3.org/1999/xlink" width="320" height="320" version="1.0"><defs><linearGradient xlink:href="#a" id="m" gradientUnits="userSpaceOnUse" gradientTransform="translate(-51.685 -22.128) scale(1.13294)" x1="121.504" y1="249.008" x2="151.193" y2="239.302"/><linearGradient id="c"><stop offset="0" stop-color="#e10000"/><stop offset="1" stop-color="#ff4f4f"/></linearGradient><linearGradient id="b"><stop offset="0" stop-color="#eaeaea"/><stop offset="1" stop-color="#fff"/></linearGradient><linearGradient id="d"><stop offset="0" stop-color="#656565"/><stop offset="1" stop-color="#989898"/></linearGradient><linearGradient id="e"><stop offset="0" stop-color="#9fa4a7"/><stop offset="1" stop-color="#c5c8c9"/></linearGradient><linearGradient xlink:href="#a" id="p" gradientUnits="userSpaceOnUse" gradientTransform="translate(-27.794 8.98) scale(1.23103)" x1="213.197" y1="202.119" x2="244.077" y2="178.291"/><linearGradient xlink:href="#b" id="o" gradientUnits="userSpaceOnUse" gradientTransform="translate(-51.685 -22.128) scale(1.13294)" x1="173.713" y1="102.982" x2="165.434" y2="94.12"/><linearGradient xlink:href="#c" id="n" gradientUnits="userSpaceOnUse" gradientTransform="translate(-38.918 16.22) scale(1.23103)" x1="79.715" y1="149.052" x2="84.766" y2="148.69"/><linearGradient id="a"><stop offset="0" stop-color="#494949"/><stop offset="1" stop-color="#9c9c9c"/></linearGradient><linearGradient xlink:href="#a" id="l" gradientUnits="userSpaceOnUse" gradientTransform="translate(-51.685 -22.128) scale(1.13294)" x1="157.385" y1="252.37" x2="196.206" y2="219.842"/><linearGradient xlink:href="#a" id="k" gradientUnits="userSpaceOnUse" gradientTransform="translate(-27.794 8.98) scale(1.23103)" x1="189.312" y1="201.773" x2="218.95" y2="183.069"/><linearGradient xlink:href="#d" id="j" gradientUnits="userSpaceOnUse" gradientTransform="translate(-51.685 -22.128) scale(1.13294)" x1="303.951" y1="124.032" x2="279.603" y2="97.447"/><linearGradient xlink:href="#d" id="i" gradientUnits="userSpaceOnUse" gradientTransform="translate(-51.685 -22.128) scale(1.13294)" x1="125.315" y1="113.118" x2="85.227" y2="86.112"/><linearGradient xlink:href="#d" id="h" gradientUnits="userSpaceOnUse" gradientTransform="translate(-51.685 -22.128) scale(1.13294)" x1="165.147" y1="147.774" x2="145.314" y2="125.044"/><linearGradient xlink:href="#b" id="g" gradientUnits="userSpaceOnUse" gradientTransform="translate(-51.685 -22.128) scale(1.13294)" x1="207.178" y1="205.109" x2="195.362" y2="196.247"/><linearGradient xlink:href="#e" id="f" gradientUnits="userSpaceOnUse" gradientTransform="translate(-51.685 -22.128) scale(1.13294)" x1="257.962" y1="220.869" x2="-4.99" y2="-37.737"/></defs><metadata/><g fill-rule="evenodd"><path d="M48.828 37.706l.496 1.982c.063.252-.02 1.128-.248 2.302-.227 1.173-.546 2.705-.85 4.46-.607 3.511-1.074 8-.247 12.923 1.077 6.417 6.032 13.673 11.081 20.924 5.03 7.222 10.12 14.433 11.648 20.428-.059.186-.134.33-.177.532-1.774 5.297-8.687 2.458-11.896 5.947 1.286 1.671 4.52 3.098.036 2.974-3.964.231-8.554 6.972-3.364 8.993.858.223 1.876.246 2.833.425-11.222 24.022-20.726 28.834-28.822 35.387-4.697 3.8-8.731 6.198-13.053 10.455-3.854 3.796-1.102 10.505-.575 13.142 1.46 7.3 8.643 12.06 16.746 14.622 8.104 2.562 17.204 2.958 22.978 1.274 15.955-4.653 24.37-12.479 32.713-24.995.594-.89 1.492-2.858 2.125-3.824 3.91 22.561-.37 45.598-4.214 59.586-1.603 5.837-4.719 12.144-7.647 18.34l-1.628 1.592c.863.777-3.762 10.253-4.603 15.047 0 0 4.405 3.351 6.019 3.824.223.065 13.731 3.16 14.693 3.257l15.86-1.7c.925-3.577 1.523-7.327 2.054-11.718 0 0-.39-.43-.39-1.487 0-.018 1.413-13.826 2.55-19.508.23-1.149 1.344-6.352 2.407-11.33.796-3.725 1.258-5.83 1.629-7.576 1.174 4.336 3.383 14.71 3.399 17.596.015 2.886.212 6.577-.177 10.55l-1.133 11.507-.39 1.522s.577 8.552.248 11.967c0 0 11.01 1.38 13.206 1.168.086.045 10.22-.888 13.595-2.23l12.25-4.85s-2.134-10.042-3.717-15.012c0 0-1.128-.124-1.629-1.7-2.23-7.018-4.848-15.956-5.488-19.153-.36-1.803-1.431-9.46-2.23-17.844 5.251 6.71 14.574 10.877 27.545 11.365 8.778.33 19.346-1.177 31.297-4.496-.011.11-.265 2.633-.46 4.354-.39 3.443-2.352 23.646-4.32 25.668l-4.071 14.976s9.651 2.24 11.577 2.62c2.366-1.134 14.546-.346 16.994-.318 1.476-1.251 2.263-.489 3.364-.744 5.566.69 8.918.463 10.444.673 1.568-.538 13.999-3.49 15.436-3.151l9.701-4.426c-2.044-4.733-1.606-11.79-3.257-14.48-2.152-2.59-1.591-27.032-1.664-37.316-.073-10.284-.45-20.539-2.054-29.421-1.365-7.562-3.72-14.04-7.54-18.8.114-.193-2.71-2.148-8.746-7.329-2.946-1.451-6.149-2.348-9.559-2.726-6.246-.692-13.118.149-20.074 1.487-13.913 2.677-28.23 7.429-38.45 6.727-14.534-1.568-21.294-4.102-26.8-9.099-4.875-4.424-3.873-3.766-9.772-11.33l-.035-.14c-.384-1.534-1.079-2.595-1.806-3.577-.727-.982-1.511-1.925-2.23-3.363-1.152-2.304-4.994-5.303-5.524-5.382-.53-.078-3.33.533-3.832.666-.952.253 14.66-10.687 23.517-16.845 12.13-8.435 23.717-17.594 25.74-27.757.697-3.506 4.88-14.792 5.168-16.924-3.928.436-11.311 2.019-17.17 3.187-5.873 1.17-11.645 2.603-15.472 4.744-16.16 9.04-26.31 27.055-39.016 41.812-1.408-1.613-8.413-6.946-11.117-10.125-2.134-.815-4.403-1.22-6.692-1.523l-.424-2.16h-.036c-3.753-18.337-14.99-37.414-19.755-43.263-1.426-1.75-4.82-4.215-8.143-6.55-1.662-1.168-3.268-2.274-4.603-3.222s-2.397-1.76-2.797-2.16l-1.452-1.451zM82.463 97.29c4.84-.016 9.858.834 12.78 4.85 1.92-.606 6.304 5.577 8.002 6.727-.541.62-1.112 1.2-1.664 1.806.027-.065-10.948 3.311-14.834 1.027-5.283 3.357-11.915-2.23-16.782 2.549-3.971 4.063-11.37 7.114-15.861 2.337-.513-5.556 6.866-4.05 8.284-7.223-5.276-3.419 4.783-3.707 7.506-3.611 3.541.56 3.171-2.799-.106-1.523 2.048-1.5 2.653-8.606 5.134-3.363 1.287 3.404 9.166 3.497 3.646-.035-2.352-1.272-5.661-3.088-.814-3.328 1.491-.108 3.095-.207 4.709-.213zm176.455 144.202c.669 4.4.065 8.498 1.593 11.542-.821.729-7.224 3.572-8.355 3.895.163-.488-2.266-10.055-2.266-10.055l-.531 1.062s1.817 8.787 1.416 9.028c-.238.143-10.394 2.458-13.135 2.726-.067-.184-1.456-7.102-1.983-12.108l-.743.602c.53 5.035 1.485 11.335 1.593 11.648-4.152.342-8.11.389-11.223-.213-.05-.66-.631-9.96.354-11.931 3.526-.502 30.54-6.339 33.28-6.196zm-180.846 3.895c2.585-.859 30.93 5.78 31.015 8.32-.54 4.524-.393 7.205-1.31 10.833-.236.175-13.945 1.81-14.551 1.204-.054-.053 2.797-10.409 2.797-10.409l-.956-.602s-3.91 10.258-3.647 10.586c-.405-.048-10.707-1.643-10.834-1.77-.007-.066 4.39-11.966 4.39-11.966l-1.026.141s-4.927 11.133-4.922 11.259c-1.469-.44-5.33-2.367-5.664-2.797.834-4.5 2.24-9.516 4.708-14.8zm121.685.07c10.819.007 22.381.99 24.5 1.983.11.051-.21 11.96-.106 12.746 0 0-13.768.176-16.357.248-.009-.027 3.505-11.507 3.505-11.507l-.637-.354s-4.49 12.04-4.39 12.25c.006.014-9.96-2.094-10.126-2.23 1.41-3.017 2.516-7.884 3.611-13.135zm-46.38 1.169c1.465 1.262 2.403 11.047 3.329 14.303-.308.337-9.83 3.332-11.967 3.789-.704-2.819-5.382-10.551-5.382-10.551l-.389.779s5.014 10.345 4.957 10.373c-1.057.529-11.14 2.441-11.86 1.417-1.559-2.213-2.125-12.18-2.125-12.18l-.39.744s.18 8.53 1.169 11.79c-.233.698-10.545-.464-10.834-.744.328-3.47-.064-7.454.177-11.47 0 0 27.709-8.178 33.316-8.25z" fill="url(#f)"/><path d="M222.757 205.69l-8.192-3.567-12.156-3.567-17.706-1.85-12.289 1.585-11.099 4.097-8.853 5.813-3.303 3.04 7.928 4.492 11.628 2.378 19.027-.66 24.709-5.814 10.174-4.096.132-1.85z" fill="url(#g)"/><path d="M128.546 123.107l4.36 6.078 1.85 4.625.66 3.7-1.981 5.285-3.568 7.532-1.717 5.417-2.247-2.246-1.85-6.607-3.17-.792.528-7.004-.397-3.303-1.453-2.114.793-12.553 4.36-1.585 3.832 3.567z" fill="url(#h)"/><path d="M103.44 108.573l-5.285-5.022-4.36-3.831-7.4-3.04-12.288.925-2.907 2.643-1.718 3.7-6.739 1.982-2.907 1.057 1.586 2.246v.925l-4.889 1.85-2.775 2.378-.132 2.511 3.04 1.982 4.624.66 5.682-2.114 5.02-4.096 9.646-.132 5.814-.528s10.439-.132 13.346-.925c1.718-1.322 2.775-3.171 2.643-3.171z" fill="url(#i)"/><path d="M239.13 146.974l7.892-7.437 10.473-11.688 5.768-7.285 8.5-13.205 4.705-10.777 3.946-18.214.607-8.955-.303-4.401 1.214.151 2.884 5.465 6.678-2.884 1.063 1.821 2.58 5.768 3.491 1.366 4.402-2.429 2.276 4.402 3.795 1.062 3.795 4.554-1.366 1.821-10.17 4.25-11.687 9.866-11.84 13.053-7.588 9.41-10.17 13.965-6.981 9.865-5.616 8.045-8.348-7.59z" fill="url(#j)"/><path d="M225.34 247.181l-9.189-1.378-16.998-.689-3.675 13.323 10.566 2.986 18.836-.69.46-13.552z" fill="url(#k)"/><path d="M119.675 254.072l14.931-3.904 10.107-2.298 8.729-1.607 1.838 4.134 1.837 10.107v.69l-10.796 3.445-2.067 1.608-12.404 1.608-12.175-.919s-.23-11.256 0-12.864z" fill="url(#l)"/><path d="M109.568 253.154l-17.228-6.662-14.471-1.608-3.216 7.35-2.067 7.81 6.202 3.676 13.323 2.757 16.079-1.379 1.378-11.944z" fill="url(#m)"/><path d="M66.554 125.724l4.705-1.062 6.071 1.366 4.25 4.402.455 3.49-2.884 5.161s-4.401 3.795-5.92 3.795c-1.517 0-6.677.91-8.195-.152-1.518-1.063-3.643-1.214-3.795-3.187-.152-1.974.152-8.348 1.366-9.866 1.214-1.518 4.098-3.795 3.947-3.947z" fill="#fff"/><path d="M65.681 131.386c-1.305-.009-2.613.287-3.895.602-.518 2.52-.64 6.129-.53 7.54.151 1.974 2.27 2.125 3.788 3.187 1.518 1.063 6.66.177 8.178.177 1.167 0 3.551-1.893 4.815-2.939-1.478-5.535-6.784-8.531-12.356-8.567z"/><path d="M42.179 145.039c5.372 2.198 7.754 2.732 11.977 6.167l7.06 14.138c4.394 5.78 8.34 12.317 8.319 22.422-9.348 7.483-16.217 8.026-30.42 6.503l-16.459-5.854s-5.246-1.344-5.67-2.095c-1.122-1.985-3.453-8.384-3.453-8.384s.247-9 .37-9.493c.123-.493 6.806-6.81 6.806-6.81 9.408-7.118 14.104-10.077 21.47-16.594z" fill="#eaeaea"/><path d="M60.102 183.746c.246.185 2.154 1.908 2.154 1.908l3.447 5.109 3.57 8.678-.308 4.616-2.77 3.508s-3.693 1.416-4 1.231a663.6 663.6 0 01-3.324-2.092s-1.847-4.124-1.847-4.555c0-.43-.492-7.201-.43-7.693.061-.493-.616-4.493-.247-4.801.37-.308 3.816-5.786 3.755-5.909z" fill="url(#n)"/><path d="M115.798 116.238l19.095-16.104 18.174-14.033 11.043-15.414 4.141-6.442-12.423 5.061-13.803 6.672-8.513 8.742s-18.634 20.936-19.785 22.776c-1.15 1.84-2.07 2.99-2.07 2.99l4.14 5.752z" fill="url(#o)"/><path d="M258.876 240.75l-27.105 4.594-6.431 1.837-.46 13.553 12.404.23 14.701-2.987 9.648-4.134-2.757-13.093z" fill="url(#p)"/><path d="M48.838 37.717l.5 1.962c.063.252-.042 1.135-.27 2.308-.227 1.174-.542 2.708-.846 4.463-.607 3.51-1.057 8.002-.23 12.926 1.077 6.416 6.03 13.677 11.079 20.927 5.03 7.223 10.127 14.433 11.656 20.428-.059.185-.15.337-.192.538-1.774 5.298-8.679 2.435-11.887 5.925 1.285 1.67 4.522 3.124.038 3-3.964.231-8.576 6.942-3.385 8.964.857.223 1.89.244 2.847.423-11.222 24.022-21.441 29.06-29.622 35.507-.983.775-3.245 2.704-3.809 3.27-7.26 5.034-11.24 7.094-11.848 13.85-.344 3.817.185 7.43 1.346 10.27 1.154 2.823 2.943 4.899 5.27 5.617.008.003.034-.007.039 0 1.394.614 2.724 1.599 3.962 1.532 2.662 1.781 5.681 2.547 8.964 3.585 8.103 2.563 19.304 3.136 22.966 1.27.187.184.457.711.577 2.385.026.78-.049 1.428.039 2.27.313 3.005 1.076 6.254 2.808 8.386 1.78 2.19 4.628 2.226 6.925.961 2.297-1.265 4.154-3.827 4.154-7.001 0-3.214-4.109-10.67-4.193-10.81 7.067-3.045 18.956-13.072 22.39-21.197.416-.985 1.521-2.843 2.154-3.808 3.91 22.56-.389 45.601-4.232 59.59-1.604 5.836-4.727 12.116-7.655 18.31l-1.616 1.617c.863.777-3.775 10.247-4.616 15.041 0 0 4.426 3.336 6.04 3.809.223.065 13.733 3.173 14.695 3.27l15.85-1.693c.924-3.578 1.507-7.342 2.038-11.733 0 0-.384-.405-.384-1.462 0-.018 1.402-13.86 2.539-19.543.23-1.149 1.36-6.332 2.423-11.31.796-3.726 1.245-5.833 1.616-7.578 1.174 4.335 3.408 14.694 3.424 17.58.015 2.887.196 6.606-.193 10.58l-1.115 11.502-.385 1.5s.56 8.55.23 11.964c0 0 11 1.405 13.196 1.193.085.044 10.243-.89 13.618-2.231l12.234-4.848s-2.149-10.071-3.732-15.041c0 0-1.115-.118-1.616-1.693-2.23-7.019-4.862-15.961-5.5-19.158-.361-1.802-1.433-9.427-2.232-17.811 5.25 6.71 14.612 10.86 27.583 11.348 8.778.33 19.325-1.18 31.276-4.5-.011.11-.267 2.625-.462 4.346-.39 3.443-2.341 23.676-4.309 25.698l-4.078 14.965s9.654 2.236 11.58 2.616c2.365-1.135 14.555-.335 17.003-.308 1.476-1.251 2.247-.514 3.347-.77 5.567.69 8.938.483 10.464.693 1.568-.538 13.99-3.494 15.426-3.154l9.695-4.424c-2.044-4.733-1.619-11.814-3.27-14.504-2.152-2.589-1.581-27.031-1.654-37.315-.073-10.284-.436-20.508-2.04-29.391-1.364-7.562-3.373-13.629-7.193-18.389.114-.193 16.463-24.056 25.66-35.584 9.841-12.337 20.596-22.209 26.351-26.852 3.277-2.644 5.544-3.168 7.27-3.77 1.727-.602 3.272-1.236 4.348-1.885.538-.324.976-.622 1.231-1.077.127-.228.197-.524.154-.808-.041-.268-.202-.498-.385-.692.022.04-.31-.61-.461-.885-.303-.55-.727-1.286-1.308-2-1.163-1.43-2.955-2.847-5.463-2.847-.34 0-2.284-4.358-2.655-4.386-.37-.028-5.09 2.538-6.27 2.039-1.18-.5-2.463-3.097-2.693-3.847-.23-.75-.522-1.685-.885-2.5-.362-.816-2.082-2.387-2.5-2.347-.418.04-.851.235-1.193.577-1.742 1.742-4.315 2.455-4.27 2.5.065.065-1.57-2.918-2.039-3.731-.47-.814-.887-1.522-1.385-1.962-.124-.11-1.693.488-1.731.692 0 0 .385 2.52.385 4.77-1.149 10.636-.936 21.994-10.233 39.394-8.177 15.3-22.019 28.578-31.045 37.43-2.947-1.451-6.13-2.314-9.54-2.692-6.247-.692-13.126.123-20.082 1.462-13.913 2.677-28.212 7.434-38.431 6.732-14.535-1.568-21.307-4.082-26.814-9.08-4.874-4.423-3.872-3.784-9.771-11.348l-.038-.154c-.384-1.533-1.081-2.595-1.809-3.577-.727-.983-1.512-1.909-2.23-3.347-1.152-2.304-4.972-5.307-5.502-5.386-.53-.078-1.114-.018-1.616.116-.952.253-.963-.135-1.654.153 0 0 14.071-10.267 22.928-16.426 12.13-8.435 23.714-17.612 25.736-27.775.698-3.506 4.905-14.796 5.194-16.927-3.929.436-11.337 2.025-17.196 3.193-5.872 1.17-11.637 2.59-15.465 4.732-16.16 9.04-26.302 27.06-39.008 41.816-1.408-1.613-8.414-6.938-11.118-10.117-2.134-.815-4.406-1.236-6.694-1.539l-.423-2.154h-.038C81.823 76.007 71.03 56.8 66.265 50.95c-1.426-1.75-5.255-4.089-8.579-6.425-1.662-1.167-3.281-2.244-4.616-3.193-1.335-.948-2.408-1.792-2.809-2.192l-1.423-1.424zm1.385 2.308c.58.476 5.153 4.261 6.809 5.425 3.311 2.327 7.092 4.67 8.271 6.116 10.278 12.615 16.705 30.71 19.581 44.818-.434-.18-1.318-.212-1.962-.27-3.863.225-9.31.041-11.54 3.193-1.914-6.08-6.662-12.871-11.388-19.658-5.044-7.243-9.69-14.482-10.694-20.466a37.586 37.586 0 01.038-12.54c.298-1.724.843-6.122.885-6.618zM174.71 59.183s-4.724 12.214-5.463 15.927c-1.883 9.465-13.187 18.677-25.274 27.083-12.088 8.405-24.375 16.16-29.16 23.197l.423.423c1.044-1.535 2.432-2.728 4.27-4.386 0 0 .858 5.953.23 8.464-.329 1.317-1.17 3.683-.961 4.04.419.712 1.636 1.08 2.116 3 .404 1.615-.433 4.41-.731 6.617-.149 1.102-.21 2.111.385 2.885.297.386 2.406.75 3.039.615.014.03-.017-.014 0 .039.078.254.572 3.76.769 4.154.493.987.918 1.957 1.346 2.77.428.814 1.966 2.23 2.347 2.155.38-.076 1.559-2.292 1.885-3.924.149-.743 2.415-5.946 2.77-6.656 1.172-2.344 1.7-3.937 2.847-6.232.607-1.214.378-2.709.038-4.077 5.893 7.477 2.815 3.983 7.963 8.655 5.71 5.182 12.955 7.875 27.622 8.925 16.512 1.183 22.845-3.974 38.585-6.309 6.954-1.032 13.638-2.133 19.696-1.462 3.185.353 7.663 1.18 9.925 3 2.74 1.992 7.345 6.548 7.54 6.772 4.554 5.2 6.318 11.986 7.425 18.119 1.582 8.761 1.966 18.974 2.04 29.237.072 10.263-.184 20.601.268 29.66.153 3.057.534 5.714.885 8.425-9.923 1.74-26.766 4.319-31.891 6.617.206-5.021.415-11.022.23-17.35-.21-7.21-.828-14.844-2.385-21.851-1.207-5.435-4.125-14.266-8.117-19.196l-.384.346c3.294 4.069 4.926 9.971 6.501 16.003-9.374-4.927-22.175-8.477-35.084-8.655-13.194-.182-26.872 4.303-36.854 14.426l-4.655-4.04c-.702-7.596-1.919-15.664-1.424-20.35l-.423-.077c-1.11 10.51 2.196 35.562 2.962 39.393.672 3.357 2.77 10.095 5.002 17.119.386 1.218.613 2.02 1 3.231-.308.003-24.433 5.127-31.776 7.194.17-2.119.994-7.236 1.115-10.925.132-4.001.192-8.89-.038-12.657-.177-2.902-2.325-12.631-3.809-18.003v-.077h-.038c-.817-2.956-1.177-4.666-2.039-7.694-1.22-4.284-3.78-11.777-3.847-12.003-.033-.112-1.897-3.795-1.923-3.847.004.015-.009.048 0 .077.017.058 3.435 11.8 4.654 16.08.85 2.981 1.235 4.618 2.04 7.54-.13.618-1.056 4.908-2.078 9.695-1.063 4.978-2.186 10.159-2.424 11.348-1.112 5.562-1.746 12.344-2.5 18.85-.212-.089-21.892-7.814-29.853-7.424 2.902-6.158 6.013-12.524 7.656-18.504 3.876-14.11 8.022-37.607 3.962-60.551 2.148-3.243 4.38-6.495 6.617-8.733l-.808-.27c-3.464 3.465-7.623 8.16-9.771 12.85-4.354 9.503-14.556 17.345-22.12 20.658-1.633-2.584-3.347-5.117-3.347-5.117l-.231-.269c2.781-6.539 6.713-11.493 8.579-14.734l-1.154.077c-2.121 3.357-15.355 24.093-25.967 24.582-2.048.095-2.666.433-10.118-1.923-2.905-.919-5.508-2.242-7.886-3.732.556-.166 2.489-.826 2.654-3.5.636-3.544-2.59-7.187-3.5-11.35l-.808-.46c-.113 4.91 2.636 10.117 2.392 12.938-1.083.371-2.474 2.54-5.393 1.295-2.714-1.158-3.962-2.633-5.04-5.27-1.078-2.638-1.392-6.069-1.23-9.733.31-7.03 5.093-8.272 6.462-9.656 1.436-1.45 5.1-3.841 5.91-4.301l2.297-2.336c7.832-5.615 19.703-12.688 30.57-36.064 0 0 6.046.376 7.772-2.193 4.427-5.011 10.594-4.85 16.542-3.77 3.53-1.421 13.426-1.341 16.042-1.27-.762.794-1.446 1.624-2.232 2.385l.962-.23c16.257-15.751 26.721-37.275 45.087-47.549 3.585-2.006 9.319-3.453 15.157-4.616 5.838-1.164 12.002-2.5 16.157-3.54zm-5.54 4.347c-1.803.248-12.135 4.868-16.542 6.579-4.406 1.71-11.296 5.983-11.695 6.386-.797.805-9.25 9.624-12.81 13.503-3.56 3.878-7.232 8.041-10.271 11.733-3.04 3.692-5.418 6.891-6.502 9.117l.885-.577c.98-2.013 3.483-4.181 6.501-7.848 3.019-3.666 6.643-7.787 10.195-11.656 3.552-3.869 11.824-12.971 12.618-13.772.397-.4 7.13-4.15 11.502-5.848 3.948-1.532 11.26-4.868 14.273-5.808-.82 2.16-5.728 7.097-7.579 10.04-2.138 3.398-4.419 6.649-5.693 8.348-.809 1.078-3.677 3.615-7.425 6.655-3.748 3.04-8.443 6.682-13.041 10.233-4.599 3.552-17.967 15.16-18.12 15.465l.231.385c.008-.015 13.981-11.412 18.581-14.965 4.6-3.553 9.278-7.18 13.041-10.233 3.764-3.053 7-5.345 8.04-6.732 1.3-1.732 3.189-5.109 5.348-8.54 2.159-3.432 8.12-10.137 8.463-12.465zm111.986 1.885c.265.29.644.817 1.038 1.5.45.78 2.032 3.764 2.232 3.963.246.247.812.55 1.77.308.957-.241 5.37-2.838 5.462-2.847.09-.009 1.657 5.11 1.808 5.463.356.832 1.216 2.25 2.808 2.924 1.592.673 3.805.431 6.463-1.847.114-.097 2.12 4.27 2.924 4.27 2.07 0 3.535 1.18 4.578 2.462.52.641.948 1.334 1.23 1.847.142.256.96 1.646.5 1.923-.917.554-3.145 1.177-4.846 1.77-1.702.593-6.035 2.063-7.964 3.731-5.865 5.075-17.827 16.48-27.698 28.853-8.557 10.726-23.243 32.79-23.813 33.584-2.17-2.4-6.554-5.553-7.501-6.078 9.129-9.023 25.178-26.144 33.16-41.51 8.244-15.866 8.255-29.766 7.849-40.316zM82.46 97.307c4.84-.016 9.85.83 12.772 4.847 1.919-.607 6.304 5.582 8.002 6.732-.541.62-1.102 1.163-1.654 1.77.027-.065-10.963 3.323-14.85 1.039-5.282 3.357-11.905-2.24-16.772 2.539-3.971 4.062-11.36 7.124-15.85 2.346-.512-5.555 6.853-4.06 8.271-7.232-5.276-3.42 4.779-3.674 7.502-3.578 3.541.561 3.2-2.815-.077-1.539 2.048-1.5 2.636-8.59 5.116-3.346 1.288 3.403 9.175 3.493 3.655-.039-2.353-1.272-5.655-3.106-.808-3.347a68.502 68.502 0 014.693-.192zm42.24 23.043c.323.041 6.017 5.362 7.04 8.348.382 1.115 1.278 1.803 1.616 3.155.2.803.755 2.072 1.116 3.424.36 1.351.491 2.709.076 3.539-1.18 2.36-1.707 3.953-2.846 6.232-.36.72-2.693 5.963-2.885 6.924-.316 1.578-.647 2.559-.885 2.924-.12.183-.824-.648-1.231-1.423-.408-.775-2.145-7.083-2.309-7.271-.163-.188-2.018-.104-2.346-.154-.328-.05-.868-1.335-.731-2.347.273-2.023 1.24-4.809.692-7.001-.524-2.096-1.316-2.737-1.538-3.116-.112-.19.1-2.134.423-3.424.673-2.695.7-7.083.538-8.848.71-.306 2.948-1.003 3.27-.962zm-52.203 3.655c-3.343-.399-6.31.673-8.387 3.116-2.076 2.443-3.32 6.142-3.577 11.08-.082 1.562.83 3 2.27 4s3.455 1.659 5.693 1.731c4.475.145 13.936-2.985 14.195-10.964.038-1.143-.848-2.409-1.692-3.654-1.688-2.492-4.509-4.833-8.502-5.31zm-.154 1.077c3.613.43 6.149 2.605 7.694 4.886.773 1.14 1.673 2.292 1.539 3.27-.942 6.86-8.993 9.672-13.08 9.54-2.044-.066-3.78-.652-5.001-1.5-1.221-.848-1.865-1.917-1.808-3 .249-4.776 1.42-8.25 3.27-10.426 1.849-2.176 4.35-3.132 7.386-2.77zm-11.04 60.744c.33.45 5.654 6.561 7.5 15.657.545 2.68-1.589 4.966-3.538 6.04-1.95 1.074-4.158 1.017-5.579-.731-1.468-1.807-2.198-4.83-2.5-7.733-.114-1.098-.12-5.772-.077-6.309-.579-1.904.67-3.158 2.154-3.885.303.646.616 1.268 1.27 2.924.128.325 2.076 4.041 3 11.002.02.146.616.115.616.115s-.139-1.709-.385-3.924c-.195-1.754-2.11-7.408-2.193-7.617-.826-2.094-1.412-3.351-1.577-3.693.041-.975.367-1.584 1.308-1.846zm-6.233 6.309c0-.578.211 1.637.23 1.154-.92 1.289-2.52.881-3.846 1.192 1.712-1.198 2.593-1.78 3.616-2.346zm131.297 5.193c13.138.488 21.341 1.497 35.47 8.694.084.349.266.649.346 1-12.48 6.177-40.92 11.064-49.703 10.734-9.828-.37-17.432-2.86-22.697-6.886 9.214-8.733 23.708-14.02 36.584-13.542zm36.008 10.772c1.466 6.901 2.177 14.388 2.385 21.504.182 6.233-.036 11.752-.23 16.735-3.16-1.01-21.203-2.21-24.044-1.924.807-4.009 1.582-8.175 2.192-12.272.756-5.075 1.378-9.818 1.77-13.272.196-1.727.44-4.594.462-4.808a181.48 181.48 0 0017.465-5.963zm36.546 33.391c.669 4.4.05 8.497 1.577 11.541-.821.73-7.216 3.563-8.348 3.886.163-.488-2.27-10.04-2.27-10.04l-.538 1.076s1.825 8.762 1.424 9.002c-.238.143-10.377 2.463-13.119 2.732-.067-.184-1.473-7.112-2-12.118l-.731.615c.53 5.036 1.47 11.344 1.577 11.656-4.151.342-8.082.371-11.194-.23-.051-.66-.64-9.954.346-11.926 3.526-.502 30.536-6.337 33.276-6.194zm-180.846 3.886c2.584-.859 30.922 5.808 31.007 8.348-.54 4.524-.391 7.182-1.308 10.81-.236.174-13.936 1.799-14.542 1.192-.054-.053 2.808-10.386 2.808-10.386l-.961-.616s-3.918 10.251-3.655 10.58c-.405-.049-10.721-1.643-10.849-1.77-.007-.067 4.386-11.965 4.386-11.965l-1 .154s-4.93 11.146-4.924 11.272c-1.47-.44-5.32-2.378-5.655-2.808.834-4.5 2.224-9.528 4.693-14.811zm121.68.077c10.818.006 22.386 1.007 24.505 2 .109.051-.22 11.948-.116 12.734 0 0-13.76.159-16.35.23-.008-.026 3.502-11.502 3.502-11.502l-.616-.346s-4.523 12.063-4.424 12.272c.006.013-9.95-2.096-10.117-2.232 1.41-3.016 2.52-7.905 3.616-13.156zm-46.395 1.154c1.465 1.262 2.421 11.054 3.347 14.31-.308.337-9.828 3.353-11.964 3.81-.704-2.82-5.386-10.542-5.386-10.542l-.384.77s5.02 10.32 4.962 10.348c-1.057.529-11.166 2.448-11.887 1.424-1.558-2.213-2.116-12.157-2.116-12.157l-.385.731s.166 8.513 1.155 11.772c-.233.698-10.522-.45-10.81-.731.328-3.47-.087-7.447.153-11.464 0 0 27.708-8.2 33.315-8.271z"/><path d="M100.798 250.945s-20.182-5.046-21.303-4.298c-1.121.747-4.859 10.464-4.111 12.333.747 1.868 21.676-.56 25.414-8.035zM136.297 251.784s-14.65 2.737-15.355 3.885c-.706 1.148-.41 7.987 1.05 9.372 1.461 1.385 14.036-4.904 14.305-13.257zM245.36 245.47s-16.929 2.194-17.715 3.288c-.786 1.094-1.239 6.833.119 8.32 1.357 1.485 16.728-3.296 17.596-11.607zM215.45 247.088s-13.105-1.734-14.147-.88c-1.043.853-2.875 7.153-1.948 8.939.927 1.786 13.108-.254 16.094-8.059zM24.979 161.11s-9.205 4.42-9.953 12.26c-.871 9.146 2.133 11.325 3.925 10.677 8.304-3.007-1.073-10.605 6.028-22.938zM64.172 133.22s-2.616 2.055-.374 5.979c1.188 2.078 3.177-2.056 8.222-1.869 1.722.064-3.924-5.232-7.848-4.11zM57.376 190.835s-.843 14.596 3.924 15.323c5.37.819-1.868-9.157-3.924-15.323zM282.618 77.347c-1.495 24.23-18.874 48.46-38.12 67.271-3.342 3.265 1.868 5.232 1.868 5.232 20.617-27.095 33.013-44.66 41.484-68.58.747-4.11-.56-1.12-5.232-3.923z" fill="#fff" fill-opacity=".502"/><path d="M42.26 145.011l-.372.17c13.56 4.366 15.368 11.27 17.106 17.178.935 3.178 3.568 5.538 5.728 9.014 2.16 3.475 3.928 8.429 4.274 16.499l1.231-.392c-.354-8.257-2.578-12.71-4.82-16.32-2.243-3.608-4.406-6.377-5.22-9.147-1.762-5.988-3.965-12.505-17.927-17.002z"/></g></svg>