<?xml version="1.0" encoding="UTF-8"?>
<svg width="320" height="320" version="1.0" xmlns="http://www.w3.org/2000/svg" xmlns:xlink="http://www.w3.org/1999/xlink">
 <defs>
  <linearGradient id="u" x1="173.71" x2="165.43" y1="102.98" y2="94.12" gradientTransform="matrix(.8879 0 0 .8879 -12.745 -9.306)" gradientUnits="userSpaceOnUse" xlink:href="#c"/>
  <linearGradient id="a">
   <stop stop-color="#38c12c" offset="0"/>
   <stop stop-color="#16ff00" offset="1"/>
  </linearGradient>
  <linearGradient id="b">
   <stop stop-color="#494949" offset="0"/>
   <stop stop-color="#9c9c9c" offset="1"/>
  </linearGradient>
  <linearGradient id="c">
   <stop stop-color="#eaeaea" offset="0"/>
   <stop stop-color="#fff" offset="1"/>
  </linearGradient>
  <linearGradient id="e">
   <stop stop-color="#656565" offset="0"/>
   <stop stop-color="#989898" offset="1"/>
  </linearGradient>
  <linearGradient id="g">
   <stop stop-opacity=".669" offset="0"/>
   <stop stop-opacity="0" offset="1"/>
  </linearGradient>
  <linearGradient id="h" x1="130.11" x2="132.94" y1="370.97" y2="326.27" gradientTransform="matrix(1 0 -.52818 1 169.78 0)" gradientUnits="userSpaceOnUse" xlink:href="#a"/>
  <linearGradient id="i" x1="347.9" x2="79.903" y1="295.15" y2="339" gradientUnits="userSpaceOnUse" xlink:href="#a"/>
  <linearGradient id="v" x1="213.2" x2="244.08" y1="202.12" y2="178.29" gradientTransform="matrix(.96478 0 0 .96478 5.979 15.074)" gradientUnits="userSpaceOnUse" xlink:href="#b"/>
  <linearGradient id="t" x1="79.715" x2="84.766" y1="149.05" y2="148.69" gradientTransform="matrix(.96478 0 0 .96478 -2.74 20.748)" gradientUnits="userSpaceOnUse">
   <stop stop-color="#e10000" offset="0"/>
   <stop stop-color="#ff4f4f" offset="1"/>
  </linearGradient>
  <linearGradient id="s" x1="121.5" x2="151.19" y1="249.01" y2="239.3" gradientTransform="matrix(.8879 0 0 .8879 -12.745 -9.306)" gradientUnits="userSpaceOnUse" xlink:href="#b"/>
  <linearGradient id="r" x1="157.38" x2="196.21" y1="252.37" y2="219.84" gradientTransform="matrix(.8879 0 0 .8879 -12.745 -9.306)" gradientUnits="userSpaceOnUse" xlink:href="#b"/>
  <linearGradient id="q" x1="189.31" x2="218.95" y1="201.77" y2="183.07" gradientTransform="matrix(.96478 0 0 .96478 5.979 15.074)" gradientUnits="userSpaceOnUse" xlink:href="#b"/>
  <linearGradient id="p" x1="303.95" x2="279.6" y1="124.03" y2="97.447" gradientTransform="matrix(.8879 0 0 .8879 -12.745 -9.306)" gradientUnits="userSpaceOnUse" xlink:href="#e"/>
  <linearGradient id="o" x1="125.32" x2="85.227" y1="113.12" y2="86.112" gradientTransform="matrix(.8879 0 0 .8879 -12.745 -9.306)" gradientUnits="userSpaceOnUse" xlink:href="#e"/>
  <linearGradient id="n" x1="165.15" x2="145.31" y1="147.77" y2="125.04" gradientTransform="matrix(.8879 0 0 .8879 -12.745 -9.306)" gradientUnits="userSpaceOnUse" xlink:href="#e"/>
  <linearGradient id="m" x1="207.18" x2="195.36" y1="205.11" y2="196.25" gradientTransform="matrix(.8879 0 0 .8879 -12.745 -9.306)" gradientUnits="userSpaceOnUse" xlink:href="#c"/>
  <linearGradient id="l" x1="257.96" x2="-4.99" y1="220.87" y2="-37.737" gradientTransform="matrix(.8879 0 0 .8879 -12.745 -9.306)" gradientUnits="userSpaceOnUse">
   <stop stop-color="#9fa4a7" offset="0"/>
   <stop stop-color="#c5c8c9" offset="1"/>
  </linearGradient>
  <radialGradient id="k" cx="15.434" cy="194.09" r="65" gradientTransform="matrix(-1 0 0 -.24615 110.43 252.78)" gradientUnits="userSpaceOnUse" xlink:href="#g"/>
 </defs>
 <g fill-rule="evenodd">
  <path transform="matrix(.96478 0 0 .96478 6.836 -86.47)" d="M138.396 272.406c-24.268.113-48.539 2.295-64.774 7.5-24.207 7.761-48.39 17.777-55.78 38.219-.216.599-2.113 8.754-1.768 13.072 1.803 22.563 112.13 35.993 167.69 39.022 55.562 3.028 108.672-20.18 120.468-42.514.785-1.485-1.087-14.182-1.06-17.315.13-14.91-88.611-32.954-122.827-36.171-12.83-1.207-27.388-1.88-41.949-1.813z" fill="url(#h)"/>
  <path transform="matrix(.96478 0 0 .96478 6.836 -86.47)" d="m180.35 274.22c-34.214-3.218-80.745-2.65-106.72 5.678-24.208 7.76-48.388 17.791-55.778 38.233s117.08 36.34 172.64 39.37c55.561 3.028 100.18-21.957 111.97-44.291 11.796-22.334-87.904-35.773-122.12-38.99z" fill="url(#i)"/>
  <path d="M140.367 175.858c-23.436.105-46.891 2.183-62.65 7.236-4.314 1.383-8.54 2.964-12.753 4.552-2.772 1.04-5.513 2.094-8.17 3.256-1.513.665-3.062 1.278-4.523 1.99-.012.006-.018.025-.03.03-1.207.59-2.332 1.245-3.497 1.87-1.384.738-2.816 1.438-4.13 2.23-2.426 1.463-4.732 3.616-6.875 5.292-2.149 1.68-4.11 2.883-5.91 4.809-3.596 3.837-6.423 8.177-8.23 13.175-.047.13-.08.289-.15.573-.071.283-.173.67-.272 1.115-.197.891-.44 2.058-.663 3.347-.445 2.577-.837 5.601-.663 7.778.232 2.914 2.216 5.592 5.457 8.08 3.24 2.488 7.77 4.794 13.325 6.965 11.112 4.341 26.47 8.893 43.25 12.06 33.56 6.33 73.407 9.903 100.23 11.365 26.878 1.465 53.141-3.808 74.138-11.758 20.996-7.95 36.742-18.93 42.54-29.908.18-.34.187-.702.211-1.206.024-.503.032-1.132 0-1.839-.063-1.414-.294-11.692-.332-13.296.388-2.016-.84-3.992-2.05-5.818-1.678-2.534-4.708-4.827-8.713-6.995-8.009-4.335-20.01-8.08-33.405-11.246-26.79-6.332-58.895-9.767-75.418-11.32-12.396-1.167-26.655-2.4-40.717-2.337zm0 .965c14.035-.068 28.069.586 40.43 1.748 16.46 1.548 48.844 6.903 37.566 4.764 12.48 1.908 25.742 4.235 37.928 7.115 4.01.948 7.501 2.054 11.185 3.105l.15-.09c.003.04 0 .08 0 .12 8.526 2.441 16.362 5.06 21.829 8.02 3.929 2.127 6.82 4.381 8.351 6.693.313.472 1.7 3.847 1.704 3.996-.145.592-.955 2.561-1.282 3.18-5.608 10.617-19.144 22.58-37.957 30.903-18.814 8.323-42.892 13.034-69.615 11.577-26.776-1.46-70.203-5.46-106.005-12.12-17.9-3.33-33.913-7.763-44.952-12-5.52-2.117-9.792-4.324-12.422-6.572-1.315-1.124-2.192-2.246-2.653-3.346-.46-1.1-.527-2.16-.12-3.287.003-.008-.003-.021 0-.03a35.18 35.18 0 013.346-6.813c.004-.007-.004-.024 0-.03 1.345-2.132 3.539-3.933 5.291-5.804 1.76-1.88 9.588-8.669 11.985-10.115 9.585-5.786 21.62-10.07 33.284-13.809 15.568-4.99 38.566-7.093 61.957-7.205zm158.736 39.013c.151 1.882.302 3.685.542 6.15.177 1.807.33 3.565.392 4.945.031.69.022 1.265 0 1.718-.022.453-.11.795-.12.814-5.583 10.57-21.159 21.554-42.028 29.456-20.87 7.902-47.018 12.763-73.745 11.306-26.781-1.46-66.781-5.439-100.277-11.758-16.747-3.16-31.862-6.914-42.872-11.216-5.505-2.15-9.992-4.415-13.115-6.814-3.123-2.398-4.667-4.692-4.869-7.22-.159-1.99.029-5.191.468-7.734.08-.463.162-.779.24-1.206.542 1.293 1.534 2.52 2.925 3.709 2.782 2.377 7.15 4.614 12.723 6.753 11.147 4.278 27.173 8.152 45.103 11.487 35.862 6.67 79.297 11.23 106.126 12.693 26.88 1.465 51.112-3.855 70.066-12.24 18.955-8.386 32.637-19.823 38.41-30.753.016-.03.015-.06.03-.09z"/>
 </g>
 <path transform="matrix(.86088 0 0 .86088 32.25 36.106)" d="M160 205a65 16 0 11-130 0 65 16 0 11130 0z" fill="url(#k)"/>
 <path transform="matrix(.86088 0 0 .86088 125.83 35.141)" d="M160 205a65 16 0 11-130 0 65 16 0 11130 0z" fill="url(#k)"/>
 <path d="M66.028 37.586l.389 1.554c.05.197-.016.884-.194 1.803-.179.92-.428 2.12-.666 3.496-.476 2.752-.842 6.27-.194 10.128.844 5.029 4.727 10.716 8.684 16.398 3.942 5.66 7.93 11.312 9.129 16.01-.046.146-.105.259-.139.417-1.39 4.151-6.808 1.927-9.323 4.661 1.007 1.31 3.542 2.428.028 2.33-3.106.182-6.704 5.464-2.636 7.049.672.175 1.47.192 2.22.332-8.795 18.827-16.243 22.598-22.588 27.733-3.68 2.98-6.843 4.858-10.23 8.195-3.02 2.975-.864 8.232-.45 10.299 1.144 5.721 6.773 9.45 13.124 11.46 6.35 2.008 13.482 2.318 18.007.998 12.505-3.646 19.1-9.78 25.639-19.59.464-.697 1.168-2.239 1.664-2.996 3.064 17.682-.29 35.736-3.302 46.698-1.256 4.575-3.698 9.518-5.993 14.373l-1.276 1.249c.676.609-2.948 8.035-3.607 11.792 0 0 3.452 2.626 4.717 2.997.175.051 10.761 2.476 11.515 2.552l12.43-1.331c.725-2.805 1.194-5.743 1.61-9.185 0 0-.306-.337-.306-1.165 0-.014 1.107-10.835 1.998-15.289.18-.9 1.054-4.977 1.887-8.879.623-2.92.985-4.57 1.276-5.937.92 3.398 2.652 11.528 2.664 13.79.012 2.262.166 5.154-.139 8.268l-.888 9.018-.305 1.193s.452 6.702.194 9.379c0 0 8.63 1.081 10.35.915.067.035 8.01-.696 10.655-1.748l9.6-3.801s-1.673-7.87-2.913-11.765c0 0-.885-.097-1.277-1.332-1.747-5.5-3.8-12.505-4.3-15.01-.283-1.413-1.122-7.414-1.749-13.985 4.116 5.258 11.423 8.524 21.588 8.907 6.88.259 15.162-.922 24.528-3.524a331.56 331.56 0 01-.36 3.413c-.307 2.698-1.844 18.531-3.386 20.116l-3.191 11.737s7.564 1.756 9.073 2.053c1.854-.889 11.4-.27 13.319-.25 1.156-.98 1.773-.382 2.636-.582 4.362.54 6.989.363 8.185.527 1.229-.421 10.971-2.735 12.098-2.47l7.602-3.468c-1.601-3.709-1.258-9.24-2.552-11.348-1.687-2.03-1.247-21.186-1.304-29.245-.058-8.06-.353-16.096-1.61-23.058-1.07-5.926-2.916-11.003-5.91-14.734.09-.15-2.123-1.683-6.853-5.743-2.31-1.138-4.82-1.84-7.492-2.137-4.895-.542-10.28.117-15.732 1.166-10.904 2.098-22.125 5.822-30.134 5.272-11.39-1.23-16.689-3.215-21.004-7.131-3.82-3.467-3.035-2.952-7.658-8.88l-.028-.11c-.3-1.202-.845-2.033-1.415-2.803-.57-.77-1.184-1.508-1.748-2.636-.903-1.805-3.913-4.156-4.329-4.217-.415-.062-2.61.417-3.003.522-.746.198 11.49-8.376 18.43-13.203 9.507-6.61 18.588-13.788 20.173-21.753.546-2.748 3.824-11.593 4.05-13.263-3.078.342-8.864 1.582-13.456 2.497-4.603.917-9.126 2.04-12.126 3.718-12.664 7.085-20.619 21.204-30.577 32.77-1.103-1.265-6.593-5.445-8.712-7.936-1.673-.64-3.451-.956-5.245-1.193l-.333-1.693h-.027C91.888 67.61 83.082 52.658 79.347 48.074c-1.117-1.37-3.777-3.302-6.382-5.133-1.302-.915-2.56-1.782-3.607-2.525-1.046-.743-1.878-1.379-2.192-1.692l-1.138-1.138zm26.36 46.698c3.793-.013 7.726.654 10.017 3.801 1.503-.475 4.94 4.37 6.27 5.272-.424.486-.871.94-1.304 1.415.022-.05-8.58 2.595-11.626.805-4.14 2.63-9.337-1.747-13.152 1.998-3.112 3.184-8.911 5.575-12.43 1.831-.402-4.354 5.38-3.174 6.493-5.66-4.136-2.68 3.748-2.906 5.882-2.83 2.775.439 2.485-2.194-.083-1.194 1.605-1.176 2.079-6.745 4.023-2.636 1.01 2.668 7.184 2.741 2.858-.027-1.844-.997-4.437-2.42-.638-2.609 1.168-.084 2.426-.162 3.69-.166zm138.29 113.013c.524 3.448.052 6.66 1.249 9.045-.644.572-5.662 2.8-6.548 3.053.127-.382-1.776-7.88-1.776-7.88l-.416.832s1.424 6.887 1.11 7.075c-.187.112-8.146 1.927-10.294 2.137-.053-.144-1.141-5.566-1.554-9.49l-.583.472c.415 3.947 1.164 8.884 1.249 9.129-3.254.268-6.357.305-8.796-.167-.04-.516-.495-7.805.277-9.35 2.764-.394 23.935-4.968 26.082-4.856zm-141.73 3.052c2.025-.673 24.24 4.53 24.306 6.52-.424 3.547-.308 5.648-1.027 8.491-.185.137-10.929 1.419-11.404.944-.042-.042 2.192-8.158 2.192-8.158l-.75-.472s-3.063 8.04-2.857 8.297c-.317-.038-8.39-1.288-8.49-1.388-.006-.052 3.44-9.378 3.44-9.378l-.805.11s-3.86 8.726-3.856 8.824c-1.152-.345-4.177-1.854-4.44-2.192.654-3.526 1.755-7.457 3.69-11.598zm95.365.056c8.479.005 17.54.775 19.201 1.553.086.04-.165 9.373-.083 9.99 0 0-10.79.137-12.82.194-.006-.021 2.748-9.018 2.748-9.018l-.5-.278s-3.518 9.437-3.44 9.6c.005.011-7.805-1.64-7.936-1.747 1.106-2.364 1.972-6.179 2.83-10.294zm-36.348.915c1.148.99 1.883 8.658 2.608 11.21-.241.264-7.704 2.611-9.378 2.969-.552-2.209-4.218-8.269-4.218-8.269l-.305.61s3.93 8.108 3.885 8.13c-.829.415-8.73 1.913-9.296 1.11-1.22-1.733-1.664-9.544-1.664-9.544l-.306.582s.14 6.686.916 9.24c-.182.547-8.264-.363-8.49-.583.257-2.72-.05-5.842.138-8.99 0 0 21.716-6.408 26.11-6.465z" fill="url(#l)" fill-rule="evenodd"/>
 <path d="m202.34 169.24-6.42-2.796-9.528-2.796-13.876-1.45-9.63 1.243-8.7 3.21-6.937 4.557-2.59 2.381 6.214 3.521 9.113 1.864 14.912-0.517 19.365-4.557 7.973-3.21 0.104-1.45z" fill="url(#m)" fill-rule="evenodd"/>
 <path d="M128.504 104.516l3.417 4.764 1.45 3.624.518 2.9-1.553 4.142-2.796 5.903-1.347 4.245-1.76-1.76-1.45-5.178-2.485-.621.414-5.489-.31-2.588-1.14-1.657.622-9.838 3.417-1.243 3.003 2.796z" fill="url(#n)" fill-rule="evenodd"/>
 <path d="M108.829 93.125l-4.143-3.935-3.417-3.003-5.799-2.382-9.63.725-2.279 2.071-1.346 2.9-5.281 1.553-2.278.829 1.242 1.76v.725l-3.831 1.45-2.175 1.864-.104 1.967 2.382 1.554 3.625.517 4.452-1.657 3.936-3.21 7.56-.103 4.556-.415s8.18-.103 10.459-.724c1.346-1.036 2.174-2.486 2.07-2.486z" fill="url(#o)" fill-rule="evenodd"/>
 <path d="M215.17 123.22l6.185-5.828 8.208-9.16 4.52-5.709 6.662-10.349 3.687-8.446 3.093-14.274.476-7.018-.238-3.45.952.119 2.26 4.282 5.234-2.26.832 1.428 2.023 4.52 2.736 1.07 3.45-1.903 1.784 3.45 2.973.833 2.974 3.568-1.07 1.428-7.97 3.33-9.16 7.732-9.278 10.23-5.948 7.375-7.97 10.944-5.471 7.732-4.402 6.305-6.542-5.948z" fill="url(#p)" fill-rule="evenodd"/>
 <path d="M204.362 201.755l-7.2-1.08-13.322-.54-2.88 10.44 8.28 2.341 14.762-.54.36-10.621z" fill="url(#q)" fill-rule="evenodd"/>
 <path d="M121.552 207.155l11.702-3.06 7.92-1.8 6.841-1.26 1.44 3.24 1.44 7.921v.54l-8.46 2.7-1.62 1.26-9.722 1.26-9.541-.72s-.18-8.82 0-10.08z" fill="url(#r)" fill-rule="evenodd"/>
 <path d="m113.63 206.44-13.502-5.22-11.341-1.26-2.52 5.76-1.62 6.121 4.86 2.88 10.441 2.16 12.602-1.08 1.08-9.36z" fill="url(#s)" fill-rule="evenodd"/>
 <path d="M79.92 106.567l3.687-.832 4.759 1.07 3.33 3.45.357 2.736-2.26 4.044s-3.45 2.974-4.64 2.974c-1.189 0-5.233.714-6.423-.119-1.19-.832-2.855-.951-2.974-2.498-.118-1.546.12-6.542 1.071-7.732.952-1.19 3.212-2.974 3.093-3.093z" fill="#fff" fill-rule="evenodd"/>
 <path d="M79.236 111.004c-1.023-.006-2.048.225-3.052.472-.406 1.975-.501 4.804-.416 5.91.119 1.546 1.779 1.665 2.969 2.497 1.19.833 5.22.139 6.41.139.913 0 2.782-1.484 3.773-2.303-1.159-4.339-5.317-6.687-9.684-6.715z" fill-rule="evenodd"/>
 <path d="M60.817 121.704c4.21 1.723 6.077 2.141 9.387 4.834l5.533 11.08c3.443 4.53 6.536 9.653 6.52 17.572-7.327 5.864-12.71 6.29-23.841 5.097l-12.899-4.588s-4.112-1.053-4.444-1.642c-.88-1.555-2.706-6.57-2.706-6.57s.193-7.054.29-7.44c.097-.387 5.334-5.338 5.334-5.338 7.373-5.578 11.054-7.897 16.826-13.005z" fill="#eaeaea" fill-rule="evenodd"/>
 <path d="M74.864 152.04c.193.145 1.688 1.495 1.688 1.495l2.701 4.004 2.798 6.801-.241 3.618-2.171 2.75s-2.894 1.109-3.135.964c-.242-.145-2.605-1.64-2.605-1.64s-1.447-3.232-1.447-3.57c0-.337-.386-5.643-.338-6.03.048-.385-.482-3.52-.193-3.762.29-.24 2.99-4.534 2.943-4.63z" fill="url(#t)" fill-rule="evenodd"/>
 <path d="m118.51 99.133 14.965-12.62 14.244-11 8.654-12.08 3.246-5.048-9.737 3.967-10.818 5.229-6.67 6.851s-14.605 16.407-15.506 17.85c-0.902 1.442-1.623 2.344-1.623 2.344l3.245 4.507z" fill="url(#u)" fill-rule="evenodd"/>
 <path d="m230.65 196.71-21.243 3.6-5.04 1.44-0.36 10.622 9.72 0.18 11.522-2.34 7.561-3.24-2.16-10.262z" fill="url(#v)" fill-rule="evenodd"/>
 <path d="M66.036 37.595l.392 1.538c.05.197-.033.89-.211 1.809-.179.92-.425 2.121-.663 3.497-.477 2.751-.829 6.272-.181 10.13.844 5.029 4.726 10.719 8.683 16.401 3.941 5.66 7.936 11.311 9.135 16.01-.047.145-.117.264-.15.422-1.391 4.151-6.802 1.908-9.317 4.643 1.007 1.309 3.544 2.448.03 2.351-3.106.181-6.721 5.44-2.653 7.025.672.175 1.481.191 2.231.332-8.794 18.826-16.803 22.775-23.215 27.827-.77.607-2.543 2.119-2.985 2.563-5.69 3.945-8.809 5.56-9.286 10.854-.269 2.991.145 5.823 1.056 8.05.904 2.212 2.306 3.838 4.13 4.401.006.002.026-.006.03 0 1.093.481 2.135 1.253 3.106 1.2 2.085 1.397 4.452 1.997 7.024 2.81 6.351 2.009 15.129 2.458 18 .995.146.145.357.558.452 1.87.02.61-.039 1.119.03 1.778.245 2.356.843 4.902 2.2 6.573 1.396 1.717 3.627 1.745 5.428.754 1.8-.992 3.256-3 3.256-5.488 0-2.518-3.22-8.362-3.287-8.472 5.539-2.386 14.856-10.244 17.547-16.612.327-.772 1.193-2.228 1.689-2.985 3.064 17.682-.305 35.739-3.317 46.702-1.257 4.574-3.705 9.496-6 14.35l-1.266 1.267c.677.609-2.958 8.031-3.618 11.788 0 0 3.47 2.615 4.734 2.985.175.051 10.763 2.487 11.517 2.563l12.421-1.327c.725-2.804 1.182-5.754 1.598-9.195 0 0-.301-.318-.301-1.146 0-.014 1.099-10.863 1.99-15.316.18-.9 1.066-4.963 1.899-8.864l1.266-5.94c.92 3.399 2.672 11.517 2.683 13.779.012 2.262.155 5.177-.15 8.291l-.875 9.015-.301 1.175s.438 6.7.18 9.377c0 0 8.622 1.1 10.342.935.067.035 8.028-.697 10.673-1.75l9.587-3.798s-1.684-7.893-2.924-11.788c0 0-.874-.092-1.267-1.327-1.747-5.5-3.81-12.509-4.31-15.014-.283-1.413-1.123-7.388-1.75-13.96 4.116 5.26 11.453 8.512 21.617 8.895 6.88.259 15.146-.926 24.512-3.528-.009.086-.209 2.058-.362 3.407-.306 2.698-1.835 18.555-3.377 20.14l-3.196 11.728s7.566 1.753 9.075 2.05c1.854-.89 11.408-.263 13.326-.241 1.157-.98 1.76-.403 2.623-.603 4.363.54 7.005.378 8.2.543 1.23-.422 10.964-2.739 12.09-2.473l7.598-3.467c-1.601-3.71-1.268-9.258-2.562-11.366-1.687-2.03-1.24-21.185-1.297-29.245-.057-8.06-.341-16.072-1.598-23.034-1.07-5.926-2.643-10.68-5.638-14.411.09-.152 12.903-18.854 20.11-27.888 7.713-9.669 16.142-17.405 20.652-21.044 2.569-2.073 4.345-2.483 5.698-2.955 1.353-.472 2.564-.969 3.407-1.477.422-.254.765-.487.965-.844.1-.179.155-.411.12-.634-.032-.21-.157-.39-.3-.542a27.81 27.81 0 00-.363-.694c-.237-.43-.57-1.008-1.025-1.567-.91-1.12-2.315-2.232-4.28-2.232-.267 0-1.79-3.414-2.081-3.437-.29-.022-3.99 1.99-4.915 1.598-.925-.39-1.93-2.427-2.11-3.015-.18-.588-.41-1.32-.693-1.96-.285-.638-1.633-1.87-1.96-1.838a1.548 1.548 0 00-.935.452c-1.365 1.365-3.382 1.924-3.346 1.96.05.05-1.23-2.287-1.598-2.925-.368-.638-.696-1.192-1.086-1.537-.097-.087-1.326.382-1.356.542 0 0 .301 1.975.301 3.739-.9 8.335-.733 17.236-8.02 30.873-6.407 11.991-17.256 22.397-24.33 29.335-2.31-1.138-4.804-1.815-7.477-2.11-4.895-.543-10.286.096-15.738 1.145-10.904 2.098-22.11 5.826-30.119 5.276-11.39-1.229-16.698-3.199-21.014-7.115-3.82-3.467-3.034-2.967-7.658-8.894l-.03-.12c-.3-1.203-.847-2.035-1.417-2.805-.57-.77-1.185-1.495-1.749-2.623-.902-1.805-3.896-4.159-4.31-4.22a3.245 3.245 0 00-1.267.09c-.747.198-.755-.105-1.297.12 0 0 11.028-8.046 17.97-12.873 9.505-6.61 18.584-13.803 20.17-21.768.546-2.747 3.843-11.595 4.07-13.266-3.08.342-8.885 1.588-13.477 2.503-4.603.917-9.12 2.03-12.12 3.708-12.664 7.085-20.614 21.207-30.572 32.772-1.103-1.264-6.594-5.437-8.713-7.929-1.672-.639-3.452-.968-5.246-1.206l-.331-1.688h-.03c-2.942-14.371-11.4-29.424-15.135-34.009-1.118-1.37-4.119-3.204-6.724-5.034-1.302-.916-2.571-1.76-3.618-2.503-1.046-.743-1.887-1.405-2.2-1.718l-1.116-1.116zm1.085 1.81c.455.372 4.04 3.338 5.337 4.25 2.595 1.824 5.558 3.66 6.482 4.794 8.055 9.886 13.092 24.068 15.346 35.124-.34-.141-1.034-.166-1.538-.211-3.028.176-7.297.032-9.045 2.502-1.499-4.766-5.22-10.087-8.924-15.406-3.953-5.677-7.594-11.35-8.381-16.04a29.457 29.457 0 01.03-9.828c.234-1.35.66-4.797.693-5.186zm97.563 15.013s-3.702 9.572-4.281 12.482c-1.476 7.418-10.335 14.638-19.808 21.225-9.473 6.588-19.103 12.666-22.853 18.18l.331.332c.819-1.203 1.907-2.138 3.347-3.437 0 0 .673 4.665.18 6.633-.257 1.032-.917 2.886-.753 3.165.328.559 1.282.847 1.658 2.352.317 1.266-.34 3.457-.572 5.186-.117.864-.165 1.655.301 2.26.233.304 1.886.588 2.382.483.01.024-.013-.01 0 .03.061.2.448 2.947.603 3.256.386.773.72 1.534 1.055 2.171.335.638 1.54 1.748 1.84 1.689.298-.06 1.22-1.797 1.476-3.076.117-.582 1.893-4.66 2.171-5.215.919-1.838 1.332-3.086 2.231-4.885.476-.952.297-2.123.03-3.195 4.619 5.86 2.206 3.121 6.241 6.783 4.475 4.061 10.153 6.172 21.647 6.995 12.942.926 17.905-3.115 30.24-4.945 5.45-.808 10.688-1.672 15.436-1.145 2.497.276 6.006.925 7.779 2.351 2.147 1.56 5.756 5.131 5.91 5.306 3.567 4.077 4.95 9.395 5.818 14.2 1.24 6.867 1.54 14.871 1.598 22.914.057 8.043-.144 16.146.211 23.245.12 2.396.418 4.478.693 6.603-7.776 1.364-20.976 3.385-24.993 5.186.161-3.935.325-8.638.18-13.598-.164-5.65-.649-11.633-1.869-17.124-.946-4.26-3.233-11.181-6.361-15.045l-.302.271c2.582 3.19 3.862 7.815 5.096 12.542-7.347-3.86-17.38-6.644-27.496-6.783-10.34-.143-21.06 3.373-28.883 11.306l-3.649-3.166c-.55-5.953-1.503-12.276-1.115-15.949l-.332-.06c-.87 8.236 1.721 27.87 2.322 30.873.526 2.63 2.17 7.911 3.92 13.416.302.955.48 1.584.783 2.533-.24.001-19.148 4.018-24.903 5.638.133-1.66.78-5.671.874-8.563.103-3.135.15-6.967-.03-9.919-.139-2.275-1.822-9.9-2.985-14.11v-.06h-.03c-.64-2.317-.922-3.657-1.598-6.03-.956-3.357-2.963-9.23-3.015-9.406-.026-.088-1.487-2.975-1.507-3.015.003.011-.007.037 0 .06.013.045 2.693 9.248 3.648 12.602.665 2.336.967 3.62 1.598 5.91-.101.483-.827 3.845-1.628 7.597-.833 3.902-1.713 7.962-1.9 8.894-.871 4.359-1.369 9.674-1.96 14.773-.165-.07-17.156-6.124-23.395-5.818 2.274-4.827 4.712-9.816 6-14.502 3.038-11.058 6.287-29.473 3.105-47.455 1.683-2.542 3.432-5.09 5.186-6.844l-.634-.211c-2.715 2.715-5.974 6.394-7.657 10.07-3.412 7.448-11.408 13.594-17.336 16.19-1.28-2.025-2.623-4.01-2.623-4.01l-.181-.211c2.18-5.125 5.26-9.007 6.723-11.547l-.904.06c-1.663 2.63-12.034 18.882-20.351 19.266-1.605.074-2.09.339-7.93-1.508-2.276-.72-4.316-1.757-6.18-2.924.436-.13 1.95-.648 2.08-2.744.499-2.777-2.029-5.632-2.743-8.894l-.633-.362c-.089 3.85 2.066 7.93 1.875 10.14-.85.292-1.94 1.991-4.227 1.015-2.127-.907-3.105-2.063-3.95-4.13-.844-2.067-1.09-4.756-.964-7.628.243-5.509 3.991-6.482 5.065-7.567 1.125-1.137 3.997-3.01 4.63-3.371l1.802-1.83c6.137-4.401 15.44-9.944 23.958-28.265 0 0 4.738.295 6.09-1.718 3.47-3.927 8.303-3.8 12.965-2.955 2.767-1.113 10.522-1.05 12.572-.995-.597.622-1.133 1.273-1.749 1.87l.754-.182c12.74-12.344 20.941-29.212 35.335-37.264 2.81-1.572 7.303-2.706 11.878-3.618 4.576-.912 9.407-1.96 12.663-2.774zm-4.341 3.407c-1.414.195-9.511 3.815-12.964 5.156-3.454 1.34-8.853 4.689-9.166 5.005-.625.63-7.25 7.542-10.04 10.582-2.79 3.04-5.667 6.302-8.05 9.195-2.381 2.894-4.245 5.401-5.095 7.146l.694-.452c.768-1.578 2.73-3.278 5.095-6.15 2.366-2.874 5.206-6.104 7.99-9.136 2.783-3.032 9.267-10.166 9.889-10.794.31-.313 5.588-3.252 9.014-4.582 3.094-1.201 8.825-3.816 11.185-4.553-.642 1.693-4.488 5.563-5.939 7.87-1.675 2.662-3.463 5.21-4.462 6.542-.633.844-2.881 2.833-5.819 5.215-2.937 2.383-6.616 5.237-10.22 8.02-3.604 2.784-14.081 11.881-14.2 12.12l.18.302c.006-.012 10.957-8.944 14.562-11.728 3.605-2.785 7.271-5.628 10.22-8.02 2.95-2.393 5.487-4.189 6.302-5.276 1.018-1.358 2.499-4.004 4.19-6.693 1.693-2.69 6.365-7.944 6.634-9.769zm87.764 1.478c.208.226.505.64.814 1.175.352.61 1.592 2.95 1.749 3.106.193.193.636.43 1.387.24.75-.188 4.21-2.223 4.28-2.23.072-.007 1.3 4.005 1.418 4.281.28.652.953 1.764 2.2 2.291 1.249.528 2.983.339 5.066-1.447.089-.076 1.661 3.347 2.291 3.347 1.623 0 2.77.925 3.588 1.93.408.502.743 1.044.965 1.447.11.2.751 1.29.392 1.507-.72.434-2.466.922-3.8 1.387-1.333.465-4.729 1.617-6.24 2.924-4.597 3.977-13.972 12.916-21.708 22.612-6.706 8.406-18.215 25.699-18.662 26.32-1.7-1.88-5.136-4.352-5.879-4.763 7.154-7.071 19.732-20.49 25.989-32.531 6.46-12.435 6.469-23.329 6.15-31.596zM92.387 84.296c3.792-.012 7.719.651 10.009 3.8 1.503-.476 4.94 4.374 6.27 5.275-.423.486-.863.912-1.296 1.387.022-.05-8.591 2.604-11.637.814-4.14 2.631-9.33-1.755-13.145 1.99-3.112 3.184-8.902 5.583-12.422 1.839-.401-4.354 5.37-3.181 6.482-5.668-4.135-2.68 3.745-2.879 5.88-2.804 2.775.44 2.508-2.206-.06-1.206 1.604-1.176 2.065-6.732 4.01-2.623 1.008 2.668 7.19 2.738 2.863-.03-1.844-.997-4.432-2.434-.633-2.623a53.688 53.688 0 013.678-.15zm33.103 18.06c.253.032 4.716 4.202 5.517 6.542.3.874 1.002 1.413 1.267 2.472.157.63.592 1.624.874 2.684.283 1.059.386 2.123.06 2.773-.925 1.85-1.338 3.099-2.23 4.884-.283.565-2.111 4.674-2.262 5.427-.247 1.236-.507 2.005-.693 2.292-.094.143-.646-.508-.965-1.116-.32-.607-1.68-5.55-1.809-5.698-.128-.148-1.582-.082-1.84-.12-.256-.04-.679-1.047-.572-1.84.214-1.586.972-3.769.543-5.487-.41-1.642-1.032-2.145-1.206-2.442-.087-.148.079-1.673.331-2.683.528-2.112.549-5.551.422-6.935.557-.24 2.31-.786 2.563-.753zm-40.912 2.864c-2.62-.313-4.946.527-6.573 2.442-1.627 1.914-2.602 4.814-2.804 8.683-.064 1.224.65 2.351 1.78 3.135 1.128.784 2.708 1.3 4.461 1.357 3.507.113 10.922-2.34 11.125-8.592.03-.897-.665-1.888-1.326-2.865-1.323-1.952-3.534-3.787-6.663-4.16zm-.12.844c2.831.338 4.818 2.042 6.029 3.829.605.894 1.311 1.797 1.206 2.563-.738 5.376-7.047 7.58-10.25 7.477-1.603-.052-2.963-.511-3.92-1.176-.957-.665-1.461-1.503-1.417-2.352.195-3.743 1.113-6.465 2.562-8.17 1.45-1.705 3.41-2.455 5.79-2.171zm-8.654 47.606c.26.352 4.432 5.142 5.88 12.27.426 2.1-1.246 3.892-2.774 4.734-1.529.841-3.26.797-4.372-.573-1.15-1.416-1.723-3.785-1.96-6.06-.09-.86-.094-4.524-.06-4.945-.454-1.492.526-2.475 1.688-3.045.238.507.483.994.995 2.292.101.255 1.628 3.167 2.352 8.622.015.115.482.09.482.09s-.108-1.339-.301-3.074c-.153-1.375-1.654-5.806-1.719-5.97-.648-1.642-1.107-2.626-1.236-2.894.032-.765.287-1.242 1.025-1.447zm-4.884 4.944c0-.453.165 1.283.181.905-.722 1.01-1.976.69-3.015.934 1.342-.94 2.033-1.395 2.834-1.839zm102.9 4.07c10.296.383 16.724 1.173 27.797 6.814.066.273.209.508.271.784-9.78 4.84-32.07 8.67-38.953 8.411-7.701-.29-13.66-2.24-17.788-5.396 7.222-6.844 18.58-10.988 28.672-10.613zm28.219 8.442c1.149 5.409 1.707 11.276 1.87 16.853.142 4.885-.029 9.21-.182 13.115-2.476-.79-16.616-1.73-18.843-1.507.633-3.142 1.24-6.407 1.719-9.618a316.93 316.93 0 001.386-10.401c.154-1.354.346-3.601.362-3.769a142.227 142.227 0 0013.688-4.673zm28.642 26.17c.524 3.447.038 6.659 1.236 9.044-.644.572-5.656 2.792-6.542 3.045.127-.382-1.78-7.869-1.78-7.869l-.421.845s1.43 6.866 1.115 7.055c-.186.111-8.132 1.93-10.28 2.14-.053-.144-1.155-5.573-1.568-9.497l-.573.482c.415 3.947 1.151 8.89 1.236 9.136-3.254.268-6.334.29-8.774-.181-.04-.517-.5-7.801.272-9.346 2.763-.394 23.931-4.967 26.079-4.854zM88.949 200.34c2.026-.673 24.234 4.551 24.3 6.542-.423 3.546-.306 5.628-1.024 8.472-.185.137-10.922 1.41-11.397.935-.042-.042 2.201-8.14 2.201-8.14l-.754-.483s-3.07 8.034-2.864 8.29c-.317-.037-8.402-1.286-8.502-1.386-.006-.052 3.437-9.376 3.437-9.376l-.784.12s-3.863 8.735-3.859 8.834c-1.151-.345-4.17-1.863-4.432-2.201.654-3.526 1.743-7.467 3.678-11.607zm95.362.06c8.479.005 17.545.789 19.205 1.568.086.04-.172 9.363-.09 9.98 0-.001-10.784.124-12.814.18-.007-.02 2.744-9.015 2.744-9.015l-.482-.271s-3.545 9.454-3.468 9.618c.006.01-7.798-1.643-7.929-1.75 1.106-2.363 1.975-6.195 2.834-10.31zm-36.36.904c1.148.99 1.898 8.664 2.623 11.216-.241.264-7.702 2.627-9.376 2.985-.552-2.21-4.221-8.261-4.221-8.261l-.301.603s3.934 8.087 3.889 8.11c-.829.414-8.75 1.918-9.316 1.115-1.221-1.733-1.659-9.527-1.659-9.527l-.301.573s.13 6.672.904 9.226c-.182.547-8.245-.353-8.471-.573.257-2.72-.069-5.836.12-8.985 0 0 21.715-6.425 26.11-6.482z" fill-rule="evenodd"/>
 <path d="M106.757 204.704s-15.816-3.954-16.695-3.368c-.878.586-3.807 8.2-3.222 9.665.586 1.465 16.988-.439 19.917-6.297zM134.578 205.362s-11.48 2.145-12.033 3.045c-.553.9-.322 6.26.823 7.345s11-3.844 11.21-10.39zM220.053 200.414s-13.267 1.719-13.884 2.576c-.616.858-.97 5.356.093 6.52 1.064 1.165 13.11-2.582 13.79-9.096zM196.611 201.682s-10.27-1.36-11.087-.69c-.817.669-2.253 5.606-1.526 7.006.727 1.4 10.273-.2 12.613-6.316zM47.337 134.299s-7.214 3.464-7.8 9.61c-.683 7.167 1.671 8.875 3.076 8.366 6.508-2.356-.84-8.31 4.724-17.976zM78.053 112.441s-2.05 1.611-.292 4.687c.93 1.628 2.49-1.611 6.443-1.465 1.35.05-3.075-4.1-6.15-3.222zM72.727 157.595s-.66 11.44 3.076 12.01c4.208.641-1.465-7.177-3.076-12.01zM249.252 68.653c-1.171 18.99-14.791 37.98-29.875 52.722-2.619 2.559 1.464 4.1 1.464 4.1 16.158-21.235 25.873-35.001 32.512-53.747.585-3.221-.44-.878-4.1-3.075z" fill="#fff" fill-opacity=".502" fill-rule="evenodd"/>
 <path d="M60.88 121.683l-.29.132c10.627 3.422 12.044 8.834 13.405 13.464.733 2.49 2.797 4.34 4.49 7.063 1.692 2.724 3.078 6.607 3.35 12.931l.964-.307c-.277-6.47-2.02-9.961-3.778-12.79-1.757-2.828-3.453-4.998-4.091-7.169-1.38-4.692-3.107-9.8-14.05-13.324z" fill-rule="evenodd"/>
</svg>
