<svg xmlns="http://www.w3.org/2000/svg" width="128" height="128"><metadata/><path d="M74.206 25.71c-1.532.418-2.282 1.082-3.21 2.094-3.977 4.058-7.394 10.559-11.18 14.799-5.02-2.575-10.358-4.201-15.779-4.244-5.813-.046-15.818 1.9-20.32 6.937l-.163.081c-.45 2.973-.551 4.259-1.089 6.53-.501-.41-.971-.845-1.414-1.334-5.725-6.834-9.297-14.703-10.392-23.476l-.925-.653c-1.162 5.048-1.496 9.383-1.305 14.907.007 5.412 1.258 11.234 4.679 14.282 1.81 1.769 3.746 2.75 5.93 3.59.505.032 1.22.415 1.714.3-.687 2.33-1.416 2.98-2.612 5.55-5.486 10.123-15.12 31.406 2.122 35.091 3.527-.149 6.142-1.003 8.188-2.285.088.21.903-.101 1.279-.109 2.054-.04 4.123-.058 6.175-.163 7.27-.372 12.344-4.167 16.838-9.602 5.224-5.612 8.05-10.49 13.901-8.624 6.278 3.412 11.081 9.32 16.213 14.255l1.85-1.143c-5.455-4.698-9.9-10.801-16.131-14.418-7.006-2.769-13.623 6.353-17.737 10.746-7.222 8.732-12.105 6.369-21.517 8.46 2.592-1.949 4.199-4.698 5.63-7.59 1.295 2.194 3.224 1.53 4.843-1.278l.38-.436-2.937-2.91c2.427-4.635 5.64-8.854 13.166-10.011 3.78-.36 8.768-.904 12.54-.626l.218-.245c-3.821-.18-7.628-.326-11.452-.081-9.68 1.25-12.998 6.292-15.67 11.561 0 0-1.597 2.95-1.55 3.074-2.397 4.732-5.193 9.09-12.676 10.337-17.25-3.537-7.492-24.918-1.905-34.82 1.255-2.597 1.6-3.31 2.367-5.876a8.217 8.217 0 002.748-2.557c.362-.587.188-.96.244-1.523 0 0-.942-1.06-1.577-1.496.223-.782 1.304-4.748 2.067-8.243.03-.138.025.11.054-.027l2.422-1.333c3.566-2.41 8.9-3.082 13.193-3.427 18.012-1.452 31.33 10.671 39.88 25.08 4.387 10.083 11.131 16.88 20.43 22.416l1.332-.87c-9.414-5.276-16.018-12.37-20.62-22.225-4.93-8.172-12.51-16.009-21.218-20.865l-.055-.027c3.076-4.038 7.555-11.408 10.882-15.152.172.494.534 1.053.598 1.523.802 5.912 1.26 8.38 1.387 14.336.229 3.637.446 6.7 1.007 7.59 2.436-1.163 8.608-5.13 11.29-7.672 2.65-1.766 5.02-4.738 6.011-4.923.927 6.6-.372 17.605-1.251 24.238-.019.14-.487 4.242-.381 4.189 2.661-1.346 3.897-2.498 5.658-4.734 4.547-5.05 7.536-10.28 10.582-13.737 2.433-2.848 6.11-5.974 7.508-5.223.314 1.186-.908 8.795-2.367 15.995-2.233 6.856-4.514 20.387-9.004 26.469-.154.14 1.665-.584 1.823-.735 4.095-6.185 6.128-18.107 8.215-24.7.966-3.686 3.79-14.683 1.877-18.58-1.758.212-5.453 2.852-7.508 5.087-5.487 5.23-12.01 14.814-13.248 15.833-.398.466-1.048.897-1.66 1.332.188-.798.333-1.604.382-2.121.54-5.736 1.033-11.573 1.251-17.329.035-.926.024-1.847.027-2.774-.32-2.458-1.025-3.81-1.958-4.57-1.347.371-6.02 5.201-8.705 7.725-4.238 3.48-8.238 6.15-8.134 1.224-.26-5.302-.383-10.614-.707-15.913-.175-2.847-.232-5.037-.544-4.951zm-64.39 5.467c1.87 7.853 4.088 13.894 9.494 20.457 1.29 1.424 2.84 2.493 4.434 3.536.015 1.552-1.54 3.12-2.693 3.102-2.18-.76-3.86-.61-6.746-3.129-3.71-3.564-4.683-9.136-4.761-14.309-.315-3.393-.07-6.7.272-9.657zM46.703 51.88c-1.542-.013-3.063.035-4.597.245-5.565.94-10.077 2.864-12.214 7.671-.142.075-1.695 6.72-1.632 6.746h.925c6.003 1.746 12.85-1.603 16.92-6.093 1.84-2.069 3.592-5.49 4.679-8.08h-.027c-1.37-.25-2.648-.477-4.054-.49zM44.8 53.02c1.4.014 2.802.123 4.298.245-1.013 2.537-3.16 5.411-5.005 7.481a18.45 18.45 0 01-3.101 2.72c-.1.218.737-2.904.136-4.189-1.976-3.02-5.684-2.716-8.732-1.414 1.724-2.45 4.414-3.863 8.106-4.543a26.245 26.245 0 014.298-.3zm-12.404 6.801c2.028.106 4.429 3.7 1.17 5.631-1.665.762-2.385-.849-3.347-1.115.116-1.122-.105-2.665.49-3.264.366-.93 1.01-1.287 1.687-1.252zm4.679 26.197c.66.59 1.846 1.644 2.638 2.176-.5.333-3.022 1.994-3.074 2.095-.091-.583-.402-1.308-1.06-2.177 0 0 1.377-1.852 1.496-2.094z"/></svg>