<?xml version="1.0" encoding="UTF-8"?>
<svg width="128" height="128" xmlns="http://www.w3.org/2000/svg" xmlns:xlink="http://www.w3.org/1999/xlink">
 <defs>
  <linearGradient id="b">
   <stop stop-color="#e7b078" offset="0"/>
   <stop stop-color="#e7b078" stop-opacity="0" offset="1"/>
  </linearGradient>
  <linearGradient id="a">
   <stop stop-color="#fff" offset="0"/>
   <stop stop-color="#fff" stop-opacity="0" offset="1"/>
  </linearGradient>
  <linearGradient id="c" x1="305" x2="297.38" y1="933.36" y2="757.36" gradientTransform="matrix(.17082 0 0 .17082 3.922 -25.446)" gradientUnits="userSpaceOnUse" xlink:href="#b"/>
  <linearGradient id="d" x1="290.79" x2="324.9" y1="530.49" y2="460.64" gradientTransform="matrix(.17082 0 0 .17082 3.922 -25.446)" gradientUnits="userSpaceOnUse" xlink:href="#a"/>
  <linearGradient id="e" x1="128.74" x2="168.34" y1="641.77" y2="567.04" gradientTransform="matrix(.17082 0 0 .17082 3.922 -25.446)" gradientUnits="userSpaceOnUse" xlink:href="#a"/>
  <linearGradient id="f" x1="156.98" x2="246.78" y1="302.48" y2="287.27" gradientTransform="matrix(.17082 0 0 .17082 3.922 -25.446)" gradientUnits="userSpaceOnUse" xlink:href="#a"/>
  <linearGradient id="g" x1="571.83" x2="485.5" y1="350.7" y2="270.17" gradientTransform="matrix(.17082 0 0 .17082 3.922 -25.446)" gradientUnits="userSpaceOnUse" xlink:href="#a"/>
  <linearGradient id="h" x1="103.69" x2="105.37" y1="40.249" y2="57.799" gradientUnits="userSpaceOnUse" xlink:href="#a"/>
  <linearGradient id="i" x1="51.897" x2="71.385" y2="18.462" gradientUnits="userSpaceOnUse" xlink:href="#b"/>
 </defs>
 <g fill-rule="evenodd">
  <path d="M35.578 8.842c-3.828 9.105-6.479 21.616 1.539 29.265-6.35 9.424-1.072 22.724-9.156 31.534-3.434 1.677-8.838 10.232-4.308 14.538 1.042 4.099 3.227 6.832 5.555 8.023 3.251 2.745 8.275 3.128 11.376 4.794 3.673 6.948 2.174 15.243-1.307 21.952 3.134 1.935 9.798-3.306 9.542-1.947-.965 4.248-6.863 13.686 1.183 8.325 3.847-.576 7.156-5.512 8.124-7.532-.373 9.735 3.627.316 5.977-3.551 3.13-8.688-4.175-15.889-7.072-23.436 5.14-5.942 2.644 2.195 6.53 4.014 9.12 4.83 22.557.433 27.232-8.719.693-7.816 1.99-15.6 1.953-23.465 7.97-.39 15.835-2.216 22.341-7.042-5.864-7.337-15.913-14.2-25.418-9.292-1.841-4.664 5.814-4.934 7.16-8.906 7.258-9.044 2.644-21.124-2.544-29.916-.6 8.063-.757 17.315-8.461 22.185-3.102 3.29-5.812-3.372-9.619-3.632-2.656-1.638-3.057-6.962-7.474-7.977-8.047-4.134-20.335-.493-23.004 8.628-5.97-6.791-6.27-16.075-7.545-24.56l-2.604 6.717z"/>
  <path d="M37.348 9.525c.318 10.457 5.547 16.958 9.138 21.14 2.418 2.816-5.062 8.609-7.638 6.548-7.501-6.001-5.865-19.641-1.5-27.688z" fill="#9e4100"/>
  <path d="M54.347 88.886c1.727 9.139 14.281 18.161 5.643 28.664 0-3.82-2.32-7.093-2.456-11.185-.272 3.001 1.5 14.731-9.138 17.595 2.046-4.637 3.683-9.957 3.683-16.23-1.5 4.091-5.183 9.956-9.957 9.274 4.5-9.138 2.455-17.322-.546-22.369-3-5.046 8.133-1.111 12.77-5.749z" fill="#fff"/>
  <path transform="matrix(.9469 0 0 .9469 .217 5.794)" d="M57.165 87.752c1.825 9.651 15.083 19.18 5.96 30.272 0-4.034-2.449-7.49-2.593-11.812-.288 3.169 1.584 15.557-9.651 18.582 2.16-4.898 3.89-10.516 3.89-17.142-1.585 4.322-5.475 10.516-10.516 9.795 4.753-9.65 2.593-18.293-.576-23.623-3.17-5.33 8.589-1.174 13.486-6.072z" fill="url(#c)"/>
  <path d="M56.897 25.386c-11.172 1.282-14.672 9.58-18.642 14.387-3.436 3.36-2.827 20.365-4.6 24.048-1.774 3.683-11.583 14.837-7.073 23.17 2.792 5.156 9.255 2.409 12.665.828-.348 1.682-5.29 2.934-7.605 3.55 1.154 1.05 6.728 4.223 13.138 2.723 9.957-2.046 15.631-8.319 17.814-9.41.136 2.182-.666 5.975 1.213 8.049 3.955 4.364 20.182 2.44 25.093-6.836.157-5.97 2.341-15.684 1.982-24.944 7.154-.933 14.472-.587 21.098-5.74-6.124-7.616-14.914-11.577-23.702-6.126-1.055-2.247-.032-5.936-1.96-7.709-1.62-14.741-17.598-16.508-29.42-15.99z" fill="#e7b078"/>
  <path d="M25.32 83.182s9.264-5.72 10.865-8.121c1.601-2.402 9.264-7.892 10.751-13.268 1.487-5.375 6.146-14.15 10.409-17.425 14.67-11.268 19.534-6.357 19.33 4.272-.166 8.577-5.834 26.192-15.327 28.708-9.493 2.517-18.03 12.387-22.304 10.637-4.056 1.718-12.047 5.304-13.725-4.803z" fill="#f7e5d3"/>
  <path d="M95.452 13.89c12.14 23.596-12.301 31.181-14.757 31.454-2.455.273-6.164-4.559-4.118-7.014 2.36-2.83 19.83-8.21 18.875-24.44z" fill="#9e4100"/>
  <path d="M28.346 72.676s3.819 3.273 8.184 1.91c1.359-.426-2.183 8.592-5.865 9.138-3.683.545-6.138.273-6.411-2.183-.393-1.97.682-6.547 4.092-8.865z" fill="#000100"/>
  <path d="M63.501 50.278c-1.407.111-2.915 1.214-3.407 1.597a7.836 7.836 0 00-1.37-.015c-3.588.47-7.487 1.82-9.098 5.328-1.27 2.241-1.691 4.834-1.537 7.395.696 2.199 3.057 2.365 5.035 2.27 5.252-.162 10.413-4.049 10.903-9.438.229-1.284.046-2.505-.015-3.786.506-.61 2.227-1.467 3.073-1.476-.648-.59-3.095.645-3.968.657-.107-.056-.21-.13-.318-.182-.049-.695 2.168-1.49 3.305-1.79-2.191-.388-3.71.942-4.422 1.366a8.003 8.003 0 00-.45-.122c-.007-.604 1.153-1.298 2.967-1.759a2.267 2.267 0 00-.698-.045z"/>
  <path d="M63.133 53.776c-2.566-1.88-5.785-1.12-9.008.22-4.454 1.85-5.688 8.852-5.456 10.36.545 3.546 15.851 2.704 14.464-10.58z" fill="#fff"/>
  <path d="M55.302 58.39c-2.166.063-4.314.614-6.106 2.098-.463 1.76-.615 3.284-.525 3.867.436 2.836 10.44 3.012 13.778-4.44a1.217 1.217 0 00-.414-.605c-1.955-.477-4.351-.988-6.733-.92z" fill="#009fff"/>
  <path d="M53.988 62.399c-1.635.004-3.486.178-5.11.248-.044.002-.285.082-.328.085-.106.764.036 1.499.085 1.817.316 2.048 5.721 2.594 9.882-.02-.034-1.64-2.095-2.136-4.529-2.13z"/>
  <path transform="matrix(.9469 0 0 .9469 .217 5.794)" d="M55.607 51.23c-3.03 2.613-3.422 6.475-3.677 9.505-.03 2.085 4.926 2.775 6.869 1.734 1.942-1.04 5.966-5.827 6.382-8.602-3.122 1.873-6.937.416-9.574-2.637z" fill="url(#d)"/>
  <path transform="matrix(.9469 0 0 .9469 .217 5.794)" d="M28.412 70.794c-2.266 1.943-4.394 6.869-3.191 9.505.412.904 4.509 2.22 7.7.832 1.943-1.18 4.163-5.827 4.371-6.799-.902.07-8.325.07-8.88-3.538z" fill="url(#e)"/>
  <path transform="matrix(.9469 0 0 .9469 .217 5.794)" d="M40.22 32.083c-6.463-7.449-4.65-18.703-1.752-26.272-2.174 12.26 4.47 23.614 5.98 24.098 1.51.483-3.624 1.389-4.228 2.174z" fill="url(#f)"/>
  <path transform="matrix(.9469 0 0 .9469 .217 5.794)" d="M100.823 10.143c.25 13.971-12.557 19.991-18.925 24.148-1.363 1.107-1.464 3.443.47 5.153 2.825 1.487 22.321-13.76 18.455-29.3z" fill="url(#g)"/>
  <path transform="matrix(.9469 0 0 .9469 .217 5.794)" d="M94.718 46.411c4.935-4.482 17.855-.844 21.301 4.823-2.813 1.474-15.272 6.699-20.095 4.823-1.345-.523 2.68-5.895-1.206-9.646z" fill="url(#h)"/>
  <path d="M71.016 28.617s4.467-3.69-.874-7.478c-8.352-7.381-28.65-.292-21.949 14.956 2.331 3.302 2.525 2.573 3.69 2.913-3.204-4.807-.97-10.1-.97-10.1s-1.166 7.43 6.603 7.187c-4.758-3.157-3.302-9.13-3.302-9.13s-.582 4.468 2.331 5.05c-.291-2.233-.315-5.122 3.496-6.02 2.647-.705 6.41 7.769 10.975 2.622z" fill="#fff"/>
  <path transform="matrix(.9469 0 0 .9469 .217 5.794)" d="M74.77 24.103s4.717-3.898-.924-7.898C65.026 8.41 43.59 15.897 50.666 32c2.462 3.487 2.667 2.718 3.898 3.077C51.18 30 53.538 24.41 53.538 24.41s-1.23 7.846 6.975 7.59c-5.026-3.333-3.487-9.641-3.487-9.641s-.616 4.718 2.461 5.333c-.308-2.359-.333-5.41 3.692-6.359 2.795-.743 6.77 8.205 11.59 2.77z" fill="url(#i)"/>
 </g>
</svg>
