<?xml version="1.0" encoding="UTF-8"?>
<svg width="128" height="128" version="1.0" xmlns="http://www.w3.org/2000/svg">
 <path d="M47.867 91.25l-10.781.188-10.594.968-9.375 1.406-8.031.72.25.874 8.5.969 9.343.094 9.032.437 8.218 1.5 2.47 1 .968-8.156zm62.219 1.594l-4.594.812-6 1.594 2.469 5.719-4.688 1.531 6.625.25 7.875-1.25 1.781-.438-6.812-.968-.094-.156 3.625-1.25 5.125-1.844.625-.906-3.906-.344-5.031.781-1.157-.063 3.907-2.656.25-.812zm-22.438 11.5l-12.187.25 4.843 5.937 11.688 8.219.062-.719-6.093-8.312 2.656 1.594L95.242 116l2.656 1.25-.625-1.5-3.687-3.813-3.907-2.812.813-.438L96.679 110c-.85-3.38-5.963-3.81-9.03-5.656z" fill="#213040" overflow="visible"/>
 <path d="M74.054 11c-6.274.292-10.33 3.298-13.036 8.638-9.167 2.034-14.562 9.228-13.62 19.33 1.6 6.117 8.393 8.583 14 8.782C54.322 61.397 51.04 75.944 48.33 90.932L46.65 99.5l-.22 1.375c9.436 3.618 18.25 4.275 28.282 4.281L88.21 104c3.22-.363 5.711-.318 8.593-1l4.683-2.173-1.745-5.952c-4.083-10.363-8.345-20.198-11.594-31.031 1.914-.331 3.805-.832 5.875-.782 2.313 1.313 3.594 3.657 6.938 3.938l.031.031.156-.219c-.6-2.809-3.416-3.604-5.125-5.406 2.417-.208 5.092.62 7.25-.625l.094-.25c-1.307-2.292-4.563-1.52-6.844-2.281 1.188-1.27 3.682-1.829 3.563-3.813l-.157-.187-.03.031c-3.055-.193-4.71 2.813-7.063 4.219l-5.625.063a63.03 63.03 0 01-.125-15.407c2.132.154 4.667.453 6.78.75l.22 9.094c1.527.435 3.618-.095 4.968-.719l.188-.5.344.25c1.32.43 1.895.47 3.156-.218l-.625-7.407c2.103.338 4.769.5 6.281.469 2.75-.056 4.986-.773 7.75-2.313.881-.482.135-1.128-.062-1.718-2.807-1.454-4.38-3.01-6.75-5.032-.38-.51-.977.1-1.25.22-7.88-6.603-7.93-6.207-12.094-8.657.376-.472.587-1.289.531-2.219-.076-1.275-.638-2.283-1.312-2.437-.567-.845-1.486-1.47-2.938-1.657-1.623.1-2.742 1.103-3.437 2.407-.609-.575-1.136-.408-1.907-.5C85.237 16.674 80.644 11.162 74.054 11z" fill="#636e79" font-family="Bitstream Vera Sans" font-weight="400" overflow="visible" style="block-progression:tb;text-indent:0;text-transform:none"/>
 <path d="M94.242 41.75l.094 10.906 1.75.313 2.718-.469.563-1.063 1.125.75 1.406-.093.75-.438-.253-6.78.127-.849-.968-.465-7.312-1.812zM86.898 23.031l-2.187 1.125-1.438 3 .375 4.25 1.563 1.625 1.625.375 1.5-.437 1.625-1.438.125-.875 1.875.563 1.75-.063 1.562-2.062s.375-1.625.375-1.875-.937-4.5-.937-4.5l-2.375-1.438-1.813.938-1 1.75-1.187-.5-1.438-.438z" fill="#fff" overflow="visible"/>
 <path d="M83.208 57.96c-.438-.062-4.458 2.165-4.458 2.165l-2.25 2.938L74.938 68h1.625l2.687-.188h2.188L83 68.75l.063.313-1.125.562-3.625.125-.25.25.75 1.188 1.875 1.874c.25.25 1.187 2.063 1.187 2.063l-.062.938s-1.375-.126-1.5-.376-4.625-3.937-4.625-3.937v.938l.812 3-.526 3.632-2.107-5.986-.554 8.416.75.75 2.441.48c.882-.747 1.764-.891 2.646.519l12.1 2.376 4.875.312L96 80.562l-1.687-1.25s-.563-1.25.187-1.75 2.438-.875 2.438-.875l2.5-7.062-4.996-2.886c-1.79.961-4.488-.487-4.342-3.297l-6.892-5.482z" fill="#ffde00" overflow="visible"/>
 <path d="M74.063 11c-6.274.292-10.42 2.848-13.126 8.188-9.166 2.034-14.473 9.678-13.53 19.78 1.598 6.117 8.392 8.583 14 8.782-7.077 13.647-10.978 28.106-13.688 43.094C34.537 90.667 21.586 93.1 8.53 94.5H8.5c-.237.516-.421 1.448.094 1.625 12.859 1.597 25.246-.768 38.062 3.375l-.218 1.375c9.435 3.618 18.249 4.275 28.28 4.281 5.087 7.032 11.12 10.083 16.97 14.063 1.081-.323 1.102-.646 1.218-.969-1.802-2.73-2.668-4.82-6.219-7.938 3.834 2.376 7.108 6.148 11.5 7.126l.157-.188c-1.83-3.542-5.011-5.936-8.125-8.281l6.75 1.156.094-.125c-.692-3.23-5.896-4-8.844-6 3.22-.363 5.711-.318 8.594-1 5.864 1.085 11.238-.777 16.78-1.625.834-.29.413-.413.376-.594l-7.063-.656c3.084-1.18 6.402-1.765 9.25-3.531.465-.441.353-.833-.125-1.156-3.208-.487-6.555.33-9.875.843l4.219-2.719-.156-.874c-4.147-.035-6.981 1.454-10.469 2.187-1.205-3.058-2.45-6.057-3.656-9.063l-.813-.03c1.944 4.654 4.038 9.573 6.063 15.03-17.86 6.055-36.279 3.692-54.25-.25 2.242-18.626 7.449-35.602 15.156-52.687 1.403-.013 2.375-.237 4.031-.469l-.062-.25c-1.599.224-3.081-.082-4.438-.062-5.929.189-10.066-1.798-12.843-7.407-7.412-16.767 24.6-31.378 27.03-7.468l.25.062c-.36-4.366-1.63-8.072-3.937-10.5 1.249-1.214 2.139-2.008 3.775-2.208 1.136-2.554 1.337-2.311 2.76-3.33-.568.908-1.455 1.736-.782 2.892.325-.013-.013.035.315.05.354-.552.635-1.178 1.242-1.478-.799.768-.575 1.214-.617 1.855.278.023-.07-.047.209-.007-.085-.698 1.1-1.165 2.248-1.95-.87.756-1.53 1.513-1.337 2.27 1.63.277 3.222.824 4.594 1.5l.187-.25c-1.301-.727-2.341-1.08-3.906-1.469-.996-.28 1.044-2.115 1.531-2.843-1.498.57-1.966.965-2.625 1.375l.531-1.375c-.699.388-1.527.735-2.094 1.53-.514-1.266 1.657-2.41 2.438-3.437-2.072 1.008-4.947 2.247-5.094 4.063-1.844.346-2.3 1.18-3.781 2.437-2.392-2.259-5.796-3.256-10.281-2.312 2.204-5.814 7.438-6.844 12.531-6.907 6.782-.052 10.108 4.916 12.25 10.782-.847.154-1.532.745-2.094 1.562C82.498 26.79 82.285 29.58 83.5 32c1.95 2.53 5.506 1.574 6.813-.875 1.736 1.243 3.145.592 4.5-.844a5.83 5.83 0 00.687-1.406c4.62 2.193 8.664 5.274 12.813 8.219l-.72 7.125c-.65.288-1.466-.128-2.937-.125-3.429-1.451-8.427-2.171-12.75-2.875l4.875-2.938c.183-.937-.157-.69-.625-.812l-4.906 3.625c-.944-.157-1.915-.302-2.75-.469l.125.125c.795.159 1.6.347 2.406.531l-1.687 1.25.312.063 1.938-1.188c.758.178 1.523.365 2.281.563l.031 1.187a66.786 66.786 0 00-9.969-.312v.25c.975-.032 1.708.107 2.657.156-.934 6.747-.624 12.23.5 18l.75.594c-.203-1.099-.442-1.904-.594-3.032 1.595.54 3.922.303 5.813.25 1.915-1.177 3.807-4.001 6.53-4.437.9.61-2.343 2.5-3.374 3.594l-.063.468c2.146.72 4.774-.063 6.563 1.907-2.323.995-4.771.208-7.094.406v.469c1.563 1.656 4.463 2.923 4.625 4.812-2.961-.447-3.927-2.5-6-3.687-2.195-.201-3.651.082-5.156.343l.844.5.03.063c1.315-.25 2.646-.472 4.063-.438 2.313 1.313 3.594 3.657 6.938 3.938l.031.031.156-.219c-.6-2.809-3.416-3.604-5.125-5.406 2.417-.208 5.092.62 7.25-.625l.094-.25c-1.307-2.292-4.563-1.52-6.844-2.281 1.188-1.27 3.682-1.829 3.563-3.813l-.156-.187-.032.031c-3.053-.193-4.708 2.813-7.062 4.219l-5.625.063a63.03 63.03 0 01-.125-15.407c2.132.154 4.667.453 6.781.75L94.094 53c1.527.435 3.68.155 5.031-.469l.25-.937.281.687c1.32.43 1.833.22 3.094-.468.283-2.419.006-4.757-.281-7.094 2.103.337 4.425.187 5.937.156 2.75-.056 4.986-.773 7.75-2.313.881-.482.135-1.128-.062-1.718-2.807-1.454-4.38-3.01-6.75-5.032-.38-.51-.977.1-1.25.22-1.106-.927-1.764-1.448-2.594-2.126l3.813-4.25-.313-.125-4.281 3.75c-.303-.244-.762-.63-1.031-.843l5.124-7.813-.187-.063-5.688 7.282c-.413-.32-.811-.653-1.156-.907l2.125-4.125-.187-.062-2.625 3.719c-1.753-1.234-2.828-1.761-5.094-3.094.376-.472.587-1.289.531-2.219-.076-1.275-.638-2.283-1.312-2.437-.567-.845-1.486-1.47-2.938-1.657-1.623.1-2.742 1.103-3.437 2.407-.609-.575-1.136-.408-1.906-.5C85.245 16.674 80.651 11.162 74.061 11zm18.156 10.625c1.068.163 1.738.663 2.187 1.344-.439.442-.716 1.33-.656 2.343.083 1.394.776 2.483 1.531 2.47-.135.644-.41 1.167-.812 1.937-1.229 1.652-2.381 1.598-4 .656.036-.109.061-.208.094-.313.508-.392.815-1.335.75-2.437-.064-1.06-.447-1.954-.97-2.313-.213-.414-.449-.845-.78-1.312.566-1.385 1.23-2.041 2.656-2.375zm-28.781 1.188c-8.497-.03-15.092 7.758-13.126 15.468l.282-.312c-1.37-11.446 14.225-20.35 21.093-8.094l.188.094c-1.156-4.163-4.774-7.188-8.438-7.157zm23.593.593c.572-.034 1.188.151 1.906.563.41.54.665.909.844 1.187-.767.046-1.334 1.212-1.25 2.625.079 1.316.704 2.367 1.406 2.469-.09.266-.193.525-.25.781-1.32 2.06-3.055 2.82-4.937.875-1.629-2.498-1.057-3.981-.344-6.687.868-1.121 1.673-1.756 2.625-1.813zm8.281 11.438l-15.25 1.375v.25l15.313-.625c.933-.606.04-.69-.063-1zm-.874 1.906L77.811 42l.188.25 16.75-4.563c.419-.704-.132-.682-.313-.937zm.093 5.406c2.675.72 5.088.863 7.5 1.813.245 2.735.666 5.756.281 7.468-.797.568-.702.839-2.437.47.346-2.056-.686-5.82-1.094-7.876l-.094.188c.262 2.074.296 5.838 0 7.968-1.194.594-2.9.565-4.093.282.07-2.875-.241-7.616-.25-9.219l.187-1.094zM69.72 63.438l-.156.187c1.702 1.506 2.804 3.612 5.124 4.5 2.698.26 6.182-1.208 8.094.781-.984.817-3.291.5-4.937.75l-.094.219c.366 2.147 4.4 4.112 3.75 5.875-2.122-.387-3.865-3.094-5.781-4.406l-.313.406c.167 2.281 1.19 5.442.469 7.031l-2.281-7.219c-1.532-2.481-5.648-3.656-8.563-4.75l-.062.25c2.988.786 5.608 2.74 8.156 4.938.715 3.121 1.894 5.005 2.844 7.5l.531-.063c.547-2.479-.542-4.958-.813-7.437 2.01 1.385 3.006 4.014 6.032 4.156l.187-.156c.22-2.897-2.541-4.073-3.812-6.094 1.708-.24 3.571.295 5.125-.719l.031-.25c-1.493-2.493-5.48-.833-8.219-1.25-1.856-1.757-3.541-2.833-5.312-4.25zM43.656 92c1.354-.017 2.71-.026 4.063 0-.376 2.125-.559 4.41-1.188 7-3.275-1.058-6.562-1.722-9.843-2.156 1.027-2.812 4.224-3.617 6.968-4.844zm-1.937.031c-2.443 1.332-5.08 2.564-5.875 4.719-3.782-.456-7.567-.633-11.344-.75 1.334-1.88 3.377-2.71 5.563-3.313 3.881-.316 7.774-.558 11.656-.656zm-14.563.906c-1.532.627-2.843 1.512-3.656 2.938l.063.094c-2.986-.088-5.963-.172-8.938-.344.38-.906 1.725-1.323 3.063-1.75l-.063-.031c3.184-.32 6.347-.62 9.531-.906zm82.5.532l-3.969 2.844c-.11.281.04.425.157.593 3.24-.115 5.903-1.658 9.625-.687-2.848 1.932-5.99 2.062-9 3.344-.59.161-.193.476 0 .75l6.187.906c-4.825.625-10.05 2.108-14.125 1.125 1.564-.39 2.19-.851 3.594-1.344-.65-1.734-1.51-3.803-2.188-5.531 3.237-.664 7.382-2.107 9.72-2zm-94.031.594c-1.098.435-1.778.908-1.938 1.5-1.197-.08-2.398-.158-3.593-.282-.322-.033-.021-.62-.344-.656 1.956-.178 3.919-.367 5.875-.563zm71.563 10.562c3.03 1.708 7.578 1.9 9.093 5.125-2.135-.633-4.27-1.398-6.406-1.125l-.563.406c2.74 2.468 6.903 4.684 8.126 7.656l-11.626-7.156-.187.188c3.039 3.508 4.563 6.175 6 8.562-5.032-3.945-10.958-6.876-15.094-13.062 3.58-.034 7.184-.219 10.656-.594z" font-family="Bitstream Vera Sans" font-weight="400" overflow="visible" style="block-progression:tb;text-indent:0;text-transform:none"/>
 <path d="M95.492 23.344c-.414.579.056 2.217.565 2.607.534-.944-.351-2.197-.565-2.607zm-5.125 2.383c-.944.844.1 2.527.52 2.607.446-.59-.306-2.197-.52-2.607z" fill="#fff"/>
 <path d="M109.127 36.46c.18.889.169 1.746-.354 2.518 2.012 1.237 4.416 1.79 6.894 2.21-2.407-.895-4.479-2.796-6.54-4.729z" fill="#fff" overflow="visible"/>
 <path d="M82.955 57.822l-4.299 2.334 1.438 1.282L91.469 67.5l7.25 2.281.281-.219c-1.61-1.008-3.017-1.795-4.52-2.803-2.512 1.595-4.788-.984-4.344-3.31L87.78 61l-2.465-2.352-2.36-.826zM78.438 63l-.157 1.531.688 1.781.937.688 1.188.156s1.101-.529.969-.75c-.133-.22-.4-1.198-.532-1.375-.132-.177-1.643-1.635-1.687-1.812L78.438 63zm13.343 7.313a1.334 1.334 0 00-.469.093l-.843 1.156-.125 1.813.781 1.906 1.25.438.969-.656.656-.75s.405-.659-.125-1.72c-.464-.927-1.063-2.308-2.094-2.28zm-6.719.343c-.35.009-.906 1-.906 1l-.281 1.219 1.156 1.469 1 .312 1-.531.031-1.094-.437-.906-1.406-1.406a.212.212 0 00-.156-.063zm-7 4.406l-.624.47-.5 1.874.28 1.188.97.531h.78l1.063-.313s.328-.984.063-1.25c-.265-.265-.943-1.666-1.031-1.843-.089-.177-1-.656-1-.656zm6.97 3.907c-.086-.018-.148.009-.22.031l-1.187 1.063-.156 1.124.937 1.657 1.031.312s1.081.221 1.126 0c.044-.22.374-1.344.374-1.344s.078-1.052-.187-1.406c-.232-.31-1.119-1.314-1.719-1.437zm7.374 2.75l-.656.094-.344 1.562.531 1.625 1.407.031s.48-.264.656-.75c.177-.486-.009-1.315-.406-1.625-.398-.31-.569-.628-1.188-.937z" fill="#ffb400" overflow="visible"/>
 <path d="M83.075 57.522c-1.691.535-3.282 1.255-4.762 2.29-2.022 3-2.84 4.316-3.626 7.907l.626.219c.187-2.241 1.3-3.771 3.187-7.313 6.134 4.058 12.788 8.023 20.188 9.438-.46 3.264-1.839 4.118-2.532 6.5-2.712.567-2.783 2.47-.75 4.218.21 1.643.969 3.735.094 4.844-5.49-.07-10.955-1.143-16.031-2.375-1.445-2.196-2.196-.818-3.188-.75-.87-.21-1.724-.419-2.594-.625.156-1.79.053-6.65.22-8.438l-.438-.312-.656 9.281c1.126.288 2.248.554 3.374.813.998-.137 2.09-1.892 2.938.656 5.812 1.215 11.626 2.083 17.438 2.781l-.157-6.375c-3.233-1.413-2.702-2.443.625-3.187l3-7.75a24.837 24.837 0 01-5.592-2.704c-2.258 1.308-4.518-.698-3.92-3.22-2.278-1.841-3.354-3.045-4.926-5.042-1.034-.158-1.396-.139-2.518-.856zm1.144.728c1.894 2.761 3.133 3.637 5.848 5.544-.582 2.449 2.095 4.052 4.16 3.211 1.41.88 2.79 1.684 4.054 2.433-6.423-1.576-13.598-5.403-19.125-9.063 1.473-1.138 3.305-1.609 5.063-2.125zm-5.469 4.406c-.868.021-.938 1.097-.625 2.532.787 1.956 1.026 2.15 3.063 2.093 2.557-1.18.727-2.399-.72-3.937-.755-.5-1.324-.697-1.718-.688zm.25.875c.294.011.659.097 1.031 0 1.233 1.257 1.95 2.051 1 3.313-1.252.1-1.771-.55-2.281-1.594-.495-1.54-.24-1.737.25-1.719zm12.219 6.407c-1.172.261-1.416 2.342-1.063 3.906.691 3.513 4.645 2.27 4.125-1.25-.344-.866-.922-1.685-1.562-2.219-.607-.4-1.11-.525-1.5-.438zM85 70.53c-2.04.994-1.403 2.443-.344 4.063 2.188.688 2.988.098 2.531-1.938-.39-1.184-1.24-1.597-2.187-2.125zm7.25.094c.459.383 1.153 1.723 1.438 2.438.553 2.455-2.098 2.75-2.938 1.03-.81-2.461.505-3.208 1.5-3.468zm-7.469.344c.698.27 1.819 1.397 2.188 2 .335 1.188-.687 1.337-1.813 1.312-.822-.97-.683-2.301-.375-3.312zm-6.937 4.094c-1.205.034-1.169 1.642-1.125 3.124.982 1.362 2.262 1.335 3.625.657.638-1.507-.251-2.602-1.438-3.531-.423-.18-.784-.258-1.062-.25zm.437.312c1.47.673 1.735 2.799 1.531 3.438-.759.401-2.026-.26-2.624-.532-.45-1.414.888-2.71 1.093-2.906zm6.563 3.313c-.6.024-1.158.535-1.531 1.718-.033 1.072.516 1.87 1.093 2.719.47.373 1.224.246 1.813.25 1.387-.524 1.257-1.394.937-2.688-.695-1.254-1.542-2.032-2.312-2zm.219.53c.45-.03.959.38 1.53 1.563.35 3.703-2.403 1.975-2.874.156.309-.89.765-1.678 1.344-1.718zm7.156 2.313c-1.581.077-1.171 2.212-.438 3.531 1.804.56 2.715-.137 2.281-2.03-.229-.546-.595-1.064-1.03-1.407a2.702 2.702 0 00-.813-.094zm-.094.313c.252.198 1.586.986 1.75 1.375.675 1.342-1.434 1.275-1.719 1.625-.523-.723-.361-2.224-.031-3z" font-family="Bitstream Vera Sans" font-weight="400" overflow="visible" style="block-progression:tb;text-indent:0;text-transform:none"/>
</svg>
