<svg xmlns="http://www.w3.org/2000/svg" xmlns:xlink="http://www.w3.org/1999/xlink" width="170.667" height="170.667"><defs><linearGradient id="c"><stop offset="0" stop-color="#fff"/><stop offset="1" stop-color="#fff" stop-opacity="0"/></linearGradient><linearGradient id="b"><stop offset="0" stop-color="#004c32"/><stop offset="1" stop-color="#1b3129"/></linearGradient><linearGradient id="a"><stop offset="0"/><stop offset="1" stop-color="#fff"/></linearGradient><linearGradient xlink:href="#a" id="e" x1="118.718" y1="26.923" x2="118.205" y2="34.359" gradientUnits="userSpaceOnUse"/><linearGradient xlink:href="#a" id="f" x1="123.628" y1="43.512" x2="124.9" y2="53.169" gradientUnits="userSpaceOnUse"/><linearGradient xlink:href="#b" id="d" x1="88.974" y1="79.85" x2="34.872" y2="22.051" gradientUnits="userSpaceOnUse"/><linearGradient xlink:href="#c" id="g" x1="202.308" y1="131.282" x2="101.795" y2="73.333" gradientUnits="userSpaceOnUse"/><linearGradient xlink:href="#c" id="h" gradientUnits="userSpaceOnUse" x1="202.308" y1="131.282" x2="101.795" y2="98.333"/><linearGradient xlink:href="#c" id="i" x1="-33.741" y1="-22.594" x2="112.656" y2="73.406" gradientUnits="userSpaceOnUse"/></defs><metadata/><path d="M80.208 12.482c3.27 6.647-3.137 4.78-6.063 6.032 4.355 3.131 14.023 3.739 3.505 5.392-6.073 4.278 2.933.21 4.901 2.576 4.035 3.812.71 9.828-4.537 9.619-8.93 4.761-16.588 13.733-16.684 24.318-.672 7.695-10.157-1.471-12.128 5.457-2.694 5.461-3.333 12.259-10.12 6.231-4.716 3.139 8.288 4.632 2.344 8.25-8.098 1.56.274 4.236 4.057 1.896 2.493-1.61-5.66 11.739 1.023 5.136 2.528-5.93 7.66 9.625 8.268.814-1.14-3.05-5.231-9.803.809-10.314 9.823 1.35 9.145 13.277 11.928 20.39 3.369 11.108 16.642 12.884 22.978 21.297 4.222 11.26-7.436 20.902-17.163 23.894-8.38 3.392-18.409 4.54-25.9-1.55-5.217-3.744-11.662-7.904-11.843-15.063.371 15.478 16.586 26.325 31.276 23.948 14.14-.7 30.095-6.756 35.147-21.214 4.188-11.469-.49-26.243-12.802-30.25-5.72-2.128-12.988-6.764-9.903-13.921 3.898-3.23 9.297-6.127 13.375-9.688 6.433-2.115 6.73 8.348 5.375 12-5.76 4.963-.596 5.598 3.157 1.907 1.53 1.86 6.336 8.76 6.375 2.843-3.546-7.18 3.962-3.841 7.468-2.78 3.075-3.294-9.146-3.136-5.468-7.75 7.356-2.996.385-7.195-3.471-2.473-3.291 2.44-4.822-5.241-6.967-7.31-1.379-5.458-9.59-2.74-9.781-8.28.158-3.216 6.36-11.128 7.272-7.415-.117 5.578 3.984 8.912 9.339 8.645 3.718.4 3.784 6.4 7.858 5.926-2.935-7.761 4.731.033 5.972-2.28-8.765-4.03 7.22-5.406 1.091-6.703-7.037 1.428-7.356 2.967-4.157-4.517-4.23-2.446-5.53 6.505-10.469 1.844-5.238-3.561 1.468-10.27 6.344-8.532 9.17 2.305 17.853-3.436 25.594-7.593 5.972-6.238-2.604-12.635-8.18-14.754-6.047-3.392-13.94-7.003-19.82-1.246-5.628 4.098-10.947-2.948-16.992-1.904-4.258.11-8.664-5.058-3.258-7.534 3.943-5.929-6.05-1.155-5.938 3.156-.435-2.947.227-8.334-3.812-8.5z" opacity=".2"/><path d="M79.895 11.639c1.038 5.537-.804 5.728-6.04 5.608-2.66 3.371 7.237 4.224 6.315 5.21-4.402-.858-8.252 6.096-2.039 4.487 4.605-3.683 8.164 6.898 2.577 7.6-8.084 1.839-13.885 9.025-17.94 15.814-2.57 3.813-.384 9.655-3.81 12.718-3.423.078-7.876-2.825-9.82 1.65-2.665 2.191-2.605 8.008-4.894 9.038-2.221-2.508-9.258-3.277-6.327 1.334 3.8.897 5.84 5.209.603 5.26-4.792 2.307 1.856 4.844 4.332 3.156 5.866-1.896-2.85 3.993.48 6.468 3.272 1.997 4.227-6.182 6.527-1.737.806 4.67 7.299 4.529 5.63-.763-.814-2.665-4.895-7.557-.281-8.906 8.218.861 9.36 10.748 10.53 17.219 2.37 10.765 13.09 15.575 21.438 21.031 6.867 5.482 2.541 15.803-3.474 20.036-7.256 5.827-16.912 8.828-26.124 8.67-7.66-1.86-14.597-6.906-19.498-12.918-1.758-1.84-2.031-11.706-3.156-6.587-.393 13.903 12.664 25.533 26.257 25.681 11.62.043 24.304-2.228 33.363-9.948 10.06-8.473 13.103-24.845 5.177-35.653-4.506-7.266-15.014-7.22-19.572-14.083-1.708-3.362-.558-8.032 3.511-8.854 4.184-1.6 6.833-6.692 11.266-7.063 3.747 1.931 3.061 7.725 2.657 11.063-3.964.993-3.82 9.315.75 5.187 2.476-3.792 4.793-.094 5.693 2.617 4.73 2.639 5.51-2.683 3.213-5.773 2.55-3.107 5.922 3.913 9.094.625 2.144-4.372-8.99-3.347-5.875-7.75 4.896-1.224 4.154-7.196-1.17-5.307-3.338 2.302-5.61 3.694-7.3-1.224-2.234-3.877-4.825-9.005-10.03-8.813-4.546-2.761.668-8.15 3.36-10.325 1.59 1.15 1.198 8.946 6.077 8.575 3.383.421 7.018 1.025 8.344 4.688 2.659 3.447 6.046 2.502 4.594-1.688 2.586 3.064 9.253 3.057 4.705-1.512-2.56-1.8 8.779-3.057 3.4-4.87-5.03-1.202-8.361 2.959-4.944-3.71-1.69-5.166-6.136 2.006-8.13 1.63-3.78.14-5.687-4.002-2.781-6.475 5.389-3.7 12.474 1.57 17.985-2.447 5.324-2.559 12.276-3.766 15.695-8.894 3.085-6.588-4.128-11.073-9.16-13.482-5.942-2.938-13.33-7.547-19.545-2.745-3.056 2.86-7.27 3.011-10.632.606-3.911-2.313-10.667.06-12.843-4.726.325-2.71 6.973-4.657 2.562-7.25-4.316-2.158-6.524 9.056-6.437 1-.648-1.547-2.38-3.93-4.313-3.468z" opacity=".2"/><path d="M120.12 22.54c-1.36-.398-2.757.278-4.244.34-5.061.213-7.48 6.687-12.584 3.404-6.47-4.079-10.098-.566-13.785-4.012-3.402-1.935 6.27-4.432 2.969-7.531-1.48-2.355-5.506-2.836-7.364 1.88.492-4.683-6.969-8.962-6.548-2.91 1.983 4.05 1.077 2.866-3.377 2.182-6.717 1.758.113 6.076 3.043 6.306-2.924-.537-8.498 5.52-.493 6.041 4.088-5.024 7.6 5.156 2.745 5.592-5.55.636-9.48 5.012-13.126 8.74C61.8 48.25 60.344 53.075 60.14 59.09c-.191 5.66-3.733 2.34-7.146 2.214-4.255-.514-7.413 7.853-8.51 11.732-5.015-2.529-6.2-3.852-7.812-.74-2.604 5.024 7.632 4.677 3.796 6.92-7.31.54-5.64 7.672 3.336 4.885-5.535 6.62 1.892 8.937 3.448 5.023 1.257-3.572 2.017-.158 3.035 1.622 5.6 6.109 8.182-2.754 4.027-7.445-2.356-5.072 2.946-4.971 5.98-1.484 3.803 4.37 3.255 8.893 4.689 14.145 4.115 17.56 24.882 17.49 25.03 27.33.252 16.818-25.69 22.084-31.533 21.73-5.457-.329-15.244-7.16-19.393-12.027-2.742-3.216-1.08-10.322-4.527-10.104-1.745 6.094.756 12.634 4.277 17.734 15.171 21.976 50.262 7.843 55.08 2.824 3.533-3.678 9.83-8.846 10.805-19.213.768-8.16-.793-13.09-3.39-17.319-7.367-11.993-24.88-8.96-20.56-21.26 3.79-1.701 7.16-4.16 10.305-6.852 5.931-6.283 6.358 3.44 6.047 7.771-5.687 3.286-3.493 10.947 1.627 6.414 4.488-4.991 1.915 2.785 6.416 3.304 10.017.836-1.347-9.896 4.913-6.76 4.306 5.01 12.836-1.299 2.965-4.37-7.416-2.666 3.841-3.492 1.753-7.405-1.365-3.013-6.1-3-9.888.735-3.175-3.684-5.325-11.129-10.446-12.162-7.057.268-2.135-6.888.832-8.894-.021 1.83.986 5.167 2.786 7.193 1.643 1.442 4.564.917 6.622 1.792 4.706-.413 3.304 8.307 11.335 5.756-4.75-8.78 6.126 5.435 5.361-4.398-2.469-2.677-2.546-1.502.072-2.69 9.484-3.524-2.867-5.982-4.334-4.067 4.281-6.399-3.938-7.947-6.85-1.996-1.664-.212-5.628-1.2-4.311-3.613l.008-.019c.021-.039.022-.07.047-.11 2.217-5.735 9.896-1.256 14.455-2.344 2.745-.655 13.52-5.281 16.889-7.18 5.82-3.278 5.728-10.329.962-13.879-4.741-4.316-17.767-9.21-18.22-9.342z" opacity=".2"/><path d="M80.426 9.982c-4.96-.264.035 7.503-4.061 5.339-3.212-1.224-6.828 3.445-3.106 5.341 4.857 1.466-.91 2.717-.333 5.57.923 3.185 5.334 3.211 7.344 1.473 3.794 2.139.834 6.68-2.946 6.26-6.372 2.852-11.434 8.53-15.134 14.335-2.896 3.878-1.87 9.247-3.764 13.276-3.554-.752-8.402-2.258-10.394 2.11-2.718 1.868-2.422 8.46-5.334 7.649-2.69-2.615-7.065-1.584-7.178 2.429-.888 3.183 8.038 4.498 2.469 5.218-4.295.873-2.989 6.905 1.186 6.385 4.469-.882 1.184 1.594 2.189 4.615 1.712 3.102 6.195 1.728 7.031-1.343.696 3.552 6.49 7.321 8.281 2.593 1.765-3.836-1.669-7.067-2.093-10.53 4.806-1.613 7.926 5.326 8.479 9.47.87 9.26 6.01 17.88 14.36 22.218 4.89 3.442 13.493 6.317 11.598 13.874-3.387 11.665-16.71 16.449-27.687 17.662-8.568.865-15.786-5.856-21.625-11.381-2.714-3.089-.435-10.267-5.813-10.563-3.333 15.057 10.044 29.916 24.865 30.954 12.36 1.082 25.505-1.725 35.698-8.954 8.096-6.926 12.918-17.691 10.8-28.38-.98-9.434-8.763-16.21-17.222-19.36-4.198-1.484-8.726-5.17-6.578-10.103 4.905-1.986 8.509-6.22 13.03-8.594 2.091 2.28 3.216 8.017.25 10.031-2.952 2.306-1.879 9.146 2.657 7.188 3.235-3.47 3.946-1.863 5.813 1.53 3.063 2.295 9.032-.277 6.53-4.5-1.842-4.171 3.608 2.335 6.032.095 4.417-1.247 2.124-6.67-1.586-7.041-5.755-1.434.631-2.871 1.617-5.616-.29-5.572-7.787-5.146-10.687-1.812-3.478-4.49-5.707-12.058-12.5-12.031-3.165-1.423 3.138-9.554 2.75-4.063 1.135 5.117 6.337 5.465 10.594 6.063 2.424 3.142 5.453 7.71 10.218 5.53-.304-3.93 2.607.95 5.563-1.968 1.418-3.565-2.634-5.423 2.687-6.437 3.945-3.435-2.967-5.468-5.781-4.813 2.397-4.588-4.524-6.896-7.129-3.464-1.426 4.105-7.64-.238-3.234-2.526 5.404-1.664 11.544 1.9 16.694-1.672 6-2.97 14.558-4.127 17.263-11.057 1.954-7.935-6.422-12.244-12.369-15.043-5.459-2.75-11.85-6.122-17.787-2.613-3.012 2.771-7.058 3.969-10.569 1.395-3.579-2.42-9.008-.143-11.869-3.582 2.11-1.787 6.383-4.891 2.78-7.464-2.177-3.924-6.844 1.797-7.436-.525-1.203-1.33-2.586-3.124-4.563-3.168z" opacity=".2"/><path d="M80.301 9.264c-4.895 1.382-1.47 6.876-7.538 6.008-4.895 2.115 1.059 6.384.839 7.737-4.837 3.866 3.4 9.29 6.543 5.442 4.185 5.231-5.702 4.172-7.844 7.406-7.43 5.969-13.937 14.048-13.906 24.031-1.782 2.203-8.208-2.441-10.182 2.348-3.698 2.299-2.875 11.808-8.233 6.976-5.349-1.454-7.276 7.751-1.679 8.927-5.635.596-4.427 8.74 1.061 7.991 2.38.026-.135 6.945 4.783 6.384 4.131-1.33 4.329-2.498 7.688 1.28 6.497 2.565 7.623-7.65 3.875-11.062-.352-5.251 7.594 4.134 6.57 7.262.737 10.56 7.378 19.694 16.745 24.333 5.354 2.614 12.124 7.278 8.56 14.124-5.762 10.644-19.503 15.452-30.96 14.503-7.851-3.068-17.534-8.276-18.366-17.655-1.05-6.277-7.54-4.1-5.768 2.027.859 16.811 18.058 28.928 34.246 26.488 14.666-.72 31.03-6.673 37.229-21.134 5.855-12.617 1.524-30.455-12.46-35.549-4.162-1.886-13.058-5.573-8.52-10.984 4.385-1.682 7.603-5.995 11.63-7.665 2.572 4.485.198 8.038-2.059 11.68-2.025 5.35 5.234 7.596 7.948 3.234.348 5.323 11.137 6.42 10.423-.101-1.283-2.638 7.23 1.843 7.938-3.281 1.617-4.029-4.336-5.532-6.063-6.875 6.186-1.72 3.348-10.133-2.406-8.97-4.599 2.458-6.84 1.636-8.719-3.593-4.692-5.392-4.246-4.074 2.224-2.792 4.138.667 5.353 8.089 10.76 6.148 2.594-2.123 8.234.567 8.19-5.413-1.65-2.982 7.936-5.824 1.108-8.943-4.087 1.834-7.49-6.921-3.47-5.125 7.264-3.125 16.32-4.735 21.532-11.125 4.334-7.413-3.101-14.432-9.601-16.957-6.766-3.62-15.43-8.27-22.43-2.546-4.882 4.595-9.944-2.48-15.496-1.368-8.41-.267 2.964-4.329-.53-8.186-1.594-3.411-6.142-2.882-8.35-1.568-1.387-1.5-3.016-3.618-5.312-3.437zm33.563 44.843c-2.114 1.8-8.849 4.83-4.824.008 1.61-.077 3.226-.411 4.824-.008zM94.55 61.264c6.271 5.126-2.902 5.19-1.512 1.176.403-.216 1.497-3.486 1.512-1.176z" opacity=".2"/><path d="M118.068 20.746c-1.358-.4-2.756.277-4.243.34-5.062.212-7.48 6.686-12.584 3.403-6.471-4.079-10.098-.566-13.785-4.012-3.402-1.935 6.27-4.431 2.969-7.531-1.48-2.355-5.506-2.836-7.365 1.88.492-4.683-6.968-8.962-6.547-2.91 1.982 4.05 1.076 2.866-3.377 2.183-6.717 1.757.112 6.075 3.042 6.305-2.923-.537-8.498 5.52-.492 6.041 4.088-5.023 7.6 5.157 2.745 5.593-5.55.635-9.48 5.012-13.126 8.739-5.556 5.679-7.012 10.504-7.215 16.518-.192 5.66-3.733 2.34-7.146 2.214-4.256-.514-7.413 7.853-8.51 11.732-5.015-2.528-6.2-3.852-7.812-.74-2.604 5.024 7.631 4.677 3.796 6.92-7.31.54-5.64 7.672 3.336 4.885-5.536 6.62 1.891 8.937 3.448 5.023 1.257-3.572 2.017-.158 3.035 1.622 5.6 6.109 8.182-2.754 4.027-7.445-2.356-5.072 2.946-4.97 5.98-1.484 3.803 4.37 3.254 8.893 4.688 14.145 4.115 17.56 24.882 17.49 25.03 27.33.252 16.818-25.688 22.084-31.532 21.73-5.458-.329-15.244-7.16-19.394-12.027-2.742-3.216-1.079-10.322-4.526-10.104-1.746 6.094.756 12.634 4.277 17.734 15.171 21.976 50.262 7.843 55.08 2.824 3.532-3.678 9.83-8.846 10.805-19.212.767-8.162-.793-13.09-3.391-17.32-7.366-11.993-24.879-8.96-20.56-21.26 3.79-1.701 7.16-4.16 10.306-6.851 5.931-6.284 6.358 3.438 6.046 7.77-5.686 3.287-3.492 10.947 1.628 6.414 4.488-4.991 1.915 2.785 6.416 3.305 10.017.835-1.347-9.897 4.912-6.761 4.307 5.01 12.837-1.299 2.965-4.369-7.415-2.667 3.842-3.493 1.754-7.406-1.366-3.013-6.1-3-9.888.735-3.175-3.684-5.325-11.129-10.446-12.162-7.057.268-2.135-6.888.832-8.894-.021 1.83.986 5.167 2.786 7.193 1.643 1.442 4.563.917 6.622 1.792 4.706-.413 3.304 8.307 11.335 5.756-4.75-8.78 6.125 5.435 5.361-4.398-2.469-2.677-2.546-1.502.072-2.689 9.483-3.525-2.868-5.983-4.335-4.068 4.282-6.399-3.937-7.947-6.849-1.996-1.664-.212-5.628-1.199-4.312-3.613.004-.006.005-.012.008-.018.022-.04.023-.072.048-.112 2.217-5.734 9.896-1.255 14.455-2.343 2.745-.655 13.52-5.28 16.889-7.18 5.82-3.278 5.728-10.329.962-13.879-4.741-4.315-17.767-9.21-18.22-9.342z" fill="url(#d)"/><path d="M125.641 28.462c.267-.955-8.494-3.367-9.744-2.052-1.456 1.533-3.005 2.75-1.172 3.999 1.34.913 10.518-.522 10.916-1.947z" fill="url(#e)" fill-rule="evenodd"/><path d="M129.912 44.166c.267.954-6.641 4.467-8.271 3.671-.425-.207-2.93-2.231-1.097-3.48 1.34-.913 8.97-1.617 9.368-.19z" fill="url(#f)" fill-rule="evenodd"/><path d="M118.068 20.746c-1.358-.4-2.756.277-4.243.34-5.062.212-7.48 6.686-12.584 3.403-6.471-4.079-10.098-.566-13.785-4.012-3.402-1.935 6.27-4.431 2.969-7.531-1.48-2.355-5.506-2.836-7.365 1.88.492-4.683-6.968-8.962-6.547-2.91 1.982 4.05 1.076 2.866-3.377 2.183-6.717 1.757.112 6.075 3.042 6.305-2.923-.537-8.498 5.52-.492 6.041 4.088-5.023 7.6 5.157 2.745 5.593-5.55.635-9.48 5.012-13.126 8.739-5.556 5.679-7.012 10.504-7.215 16.518-.192 5.66-3.733 2.34-7.146 2.214-4.256-.514-7.413 7.853-8.51 11.732-5.015-2.528-6.2-3.852-7.812-.74-2.604 5.024 7.631 4.677 3.796 6.92-7.31.54-5.64 7.672 3.336 4.885-5.536 6.62 1.891 8.937 3.448 5.023 1.257-3.572 2.017-.158 3.035 1.622 5.6 6.109 8.182-2.754 4.027-7.445-2.356-5.072 2.946-4.97 5.98-1.484 3.803 4.37 3.254 8.893 4.688 14.145 4.115 17.56 24.882 17.49 25.03 27.33.252 16.818-25.688 22.084-31.532 21.73-5.458-.329-15.244-7.16-19.394-12.027-2.742-3.216-1.079-10.322-4.526-10.104-1.746 6.094.756 12.634 4.277 17.734 15.171 21.976 50.262 7.843 55.08 2.824 3.532-3.678 9.83-8.846 10.805-19.212.767-8.162-.793-13.09-3.391-17.32-7.366-11.993-24.879-8.96-20.56-21.26 3.79-1.701 7.16-4.16 10.306-6.851 5.931-6.284 6.358 3.438 6.046 7.77-5.686 3.287-3.492 10.947 1.628 6.414 4.488-4.991 1.915 2.785 6.416 3.305 10.017.835-1.347-9.897 4.912-6.761 4.307 5.01 12.837-1.299 2.965-4.369-7.415-2.667 3.842-3.493 1.754-7.406-1.366-3.013-6.1-3-9.888.735-3.175-3.684-5.325-11.129-10.446-12.162-7.057.268-2.135-6.888.832-8.894-.021 1.83.986 5.167 2.786 7.193 1.643 1.442 4.563.917 6.622 1.792 4.706-.413 3.304 8.307 11.335 5.756-4.75-8.78 6.125 5.435 5.361-4.398-2.469-2.677-2.546-1.502.072-2.689 9.483-3.525-2.868-5.983-4.335-4.068 4.282-6.399-3.937-7.947-6.849-1.996-1.664-.212-5.628-1.199-4.312-3.613.004-.006.005-.012.008-.018.022-.04.023-.072.048-.112 2.217-5.734 9.896-1.255 14.455-2.343 2.745-.655 13.52-5.28 16.889-7.18 5.82-3.278 5.728-10.329.962-13.879-4.741-4.315-17.767-9.21-18.22-9.342z" fill="url(#g)"/><path d="M118.068 20.746c-1.358-.4-2.756.277-4.243.34-5.062.212-7.48 6.686-12.584 3.403-6.471-4.079-10.098-.566-13.785-4.012-3.402-1.935 6.27-4.431 2.969-7.531-1.48-2.355-5.506-2.836-7.365 1.88.492-4.683-6.968-8.962-6.547-2.91 1.982 4.05 1.076 2.866-3.377 2.183-6.717 1.757.112 6.075 3.042 6.305-2.923-.537-8.498 5.52-.492 6.041 4.088-5.023 7.6 5.157 2.745 5.593-5.55.635-9.48 5.012-13.126 8.739-5.556 5.679-7.012 10.504-7.215 16.518-.192 5.66-3.733 2.34-7.146 2.214-4.256-.514-7.413 7.853-8.51 11.732-5.015-2.528-6.2-3.852-7.812-.74-2.604 5.024 7.631 4.677 3.796 6.92-7.31.54-5.64 7.672 3.336 4.885-5.536 6.62 1.891 8.937 3.448 5.023 1.257-3.572 2.017-.158 3.035 1.622 5.6 6.109 8.182-2.754 4.027-7.445-2.356-5.072 2.946-4.97 5.98-1.484 3.803 4.37 3.254 8.893 4.688 14.145 4.115 17.56 24.882 17.49 25.03 27.33.252 16.818-25.688 22.084-31.532 21.73-5.458-.329-15.244-7.16-19.394-12.027-2.742-3.216-1.079-10.322-4.526-10.104-1.746 6.094.756 12.634 4.277 17.734 15.171 21.976 50.262 7.843 55.08 2.824 3.532-3.678 9.83-8.846 10.805-19.212.767-8.162-.793-13.09-3.391-17.32-7.366-11.993-24.879-8.96-20.56-21.26 3.79-1.701 7.16-4.16 10.306-6.851 5.931-6.284 6.358 3.438 6.046 7.77-5.686 3.287-3.492 10.947 1.628 6.414 4.488-4.991 1.915 2.785 6.416 3.305 10.017.835-1.347-9.897 4.912-6.761 4.307 5.01 12.837-1.299 2.965-4.369-7.415-2.667 3.842-3.493 1.754-7.406-1.366-3.013-6.1-3-9.888.735-3.175-3.684-5.325-11.129-10.446-12.162-7.057.268-2.135-6.888.832-8.894-.021 1.83.986 5.167 2.786 7.193 1.643 1.442 4.563.917 6.622 1.792 4.706-.413 3.304 8.307 11.335 5.756-4.75-8.78 6.125 5.435 5.361-4.398-2.469-2.677-2.546-1.502.072-2.689 9.483-3.525-2.868-5.983-4.335-4.068 4.282-6.399-3.937-7.947-6.849-1.996-1.664-.212-5.628-1.199-4.312-3.613.004-.006.005-.012.008-.018.022-.04.023-.072.048-.112 2.217-5.734 9.896-1.255 14.455-2.343 2.745-.655 13.52-5.28 16.889-7.18 5.82-3.278 5.728-10.329.962-13.879-4.741-4.315-17.767-9.21-18.22-9.342z" fill="url(#h)"/><path d="M78 10.063c2.047 6.541-3.139 5.009-6.625 6.437 1.456 2.458 11.4 3.326 2.219 6.188-2.778 5.175 5.265-.687 6.875 2.687 3.316 3.766-.039 8.624-4.625 8.469C66.7 38.548 58.918 47.78 58.813 58.5c-.62 7.027-9.248-1.45-11.407 4.406-3.658 2.632-2.249 13.078-8.093 7.938-6.807-4.19-3.779 4.696.718 4.937.61 3.15-12.145 5.002-1.375 6.125 8.683-2.99 1.297 1.7 2.75 6.031 4.715-3.317 5.957-2.97 10.25 2 5.831-3.033-5.765-11.543 1.75-13.343 9.983 1.44 8.668 13.873 11.907 20.906 3.115 8.942 12.778 11.683 19.468 17.25-42.116-52.037 14.564-91.837 53.875-78.25a8.48 8.48 0 00-.594-2.781c-5.209-6.567-14.109-9.928-21.906-11.969-6.082-.134-11.053 8.025-17.156 2.875-3.95-2.358-11.347-.032-13.219-5.125 3.738-2.393 5.368-9.855-.844-5.656-4.216 8.703-.988-3.84-6.937-3.781z" fill="url(#i)"/></svg>