<?xml version="1.0" encoding="UTF-8"?>
<svg width="128" height="128" xmlns="http://www.w3.org/2000/svg" xmlns:xlink="http://www.w3.org/1999/xlink">
 <defs>
  <linearGradient id="a">
   <stop stop-color="#dc8432" offset="0"/>
   <stop stop-color="#f79438" offset="1"/>
  </linearGradient>
  <linearGradient id="e" x1="94.551" x2="123.4" y1="106.73" y2="69.872" gradientUnits="userSpaceOnUse">
   <stop stop-color="#3f1f00" offset="0"/>
   <stop stop-color="#572b00" offset="1"/>
  </linearGradient>
  <linearGradient id="f" x1="90.705" x2="149.04" y1="176.92" y2="136.86" gradientUnits="userSpaceOnUse" xlink:href="#a"/>
  <linearGradient id="g" x1="41.346" x2="48.718" y1="100.32" y2="91.346" gradientUnits="userSpaceOnUse" xlink:href="#a"/>
  <linearGradient id="h" x1="157.37" x2="165.06" y1="88.141" y2="79.487" gradientUnits="userSpaceOnUse" xlink:href="#a"/>
 </defs>
 <path transform="matrix(.66122 0 0 .66122 -3.251 -5.543)" d="M101.65 31.747c-.21.079-2.69 5.608-2.931 6.41-.674 2.246-1.062 4.884-1.5 7.406-.471-.166-2.69-.221-3.344-.22-2.16-5.093-5.629-13.945-5.414-10.087.1 1.798.413 7.822.32 10.275-1.668.085-3.381.1-5 .313-2.135-5.378-5.345-16.641-4.602-12.185.302 1.814 1.588 11.029 1.102 12.81-9.223 1.986-17.296 7.149-22.625 20.5-1.065 3.638-3.266 8.883-3.906 12.312a68.263 68.263 0 00-5.031-.031c-7.99.293-14.431 1.891-19.875 10.906-5.4 11.686 6.928 25.36 22.187 25.031-.129 1.75-.105 5.723-.281 7.532-2.232.964-5.514 3.122-7.594 4.281-10.493 5.573-17.193 23.315-15.781 35.688 3.472 31.875 54.74 33.212 79.531 31.5 40.364-2.269 71.695-19.998 78.875-41.97 2.134-12.64-6.837-21.225-19.312-27.187-.557-5.918-1.459-13.544-3.969-19.031 14.377-5.78 20.384-22.782 10.531-31.281-8.684-5.958-16.416-5.1-23.812-2.063-1.906.783-5.639 1.099-7.375 2.063-10.928-16.01-22.115-26.671-39.719-27.25-.34-.008.445-16.067-.475-15.722z" fill="url(#e)"/>
 <path transform="matrix(.66122 0 0 .66122 -3.251 -5.543)" d="m159.94 130.13-48.077-10.897-32.051-3.205-33.654 8.333-13.141 17.308-2.885 27.564 22.436 16.987 50.641 7.372 44.872-8.013 31.41-22.436 5.128-17.628-15.384-19.551s-9.616 0-9.295 4.166z" fill="url(#f)" fill-rule="evenodd"/>
 <path d="M39.534 66.019l-1.258-9.228 2.377-6.292 7.55-1.678 4.754 5.872 1.678 15.52 1.398 1.399h9.648l6.152.839.14-15.8 5.313-5.174 6.712.56 3.495 7.41-2.936 12.864-14.262 1.118-1.678 6.013-2.796 3.775-11.885 2.097 2.237-12.164-4.894-2.098-11.745-5.033z" fill="#fff" fill-rule="evenodd"/>
 <path transform="matrix(.66122 0 0 .66122 -3.251 -5.543)" d="M52.679 88.132s-8.09-2.368-11.246-.987c-2.184.956-6.906 6.906-6.906 6.906l1.973 6.51 9.47 5.92s2.763-.395 5.92-1.382c1.19-.372.789-14.797.789-16.967z" fill="url(#g)" fill-rule="evenodd"/>
 <path transform="matrix(.66122 0 0 .66122 -3.251 -5.543)" d="M148.296 83.05s6.652-5.661 10.089-5.907c2.377-.17 9.325 2.9 9.325 2.9l1.282 6.682-3.46 7.475s-4.799 3.105-8.052 3.7c-1.227.225-8.174-12.928-9.184-14.85z" fill="url(#h)" fill-rule="evenodd"/>
 <path d="M64.772 3.156c-1.195 8.981-1.764 13.084-4.654 18.674-2.265-3.615-4.307-7.217-6.36-12.103-.089 4.99 1.295 11.037-.702 13.06L45.7 4.002c.978 7.144 3.439 17.252 2.934 21.428-6.232 1.522-11.865 5.159-15.25 13.638-.704 2.406-1.188 4.696-1.611 6.963-.92-.047-1.87-.055-2.81-.02-5.284.193-10.7 1.89-14.3 7.852-3.57 7.726 4.789 17.926 14.878 17.708a149.692 149.692 0 01-.29 3.513c-1.475.637-2.922 1.3-4.297 2.066-6.939 3.685-11.678 16.822-10.745 25.003 2.296 21.077 36.836 22.684 53.229 21.551 26.689-1.5 48.584-13.966 53.331-28.494 1.411-8.359-4.21-14.676-12.46-18.618-.367-3.913-1.604-7.674-3.264-11.302 9.506-3.822 13.044-16.759 6.53-22.379-5.743-3.94-11.372-3.268-16.263-1.26-1.26.517-2.468 1.14-3.616 1.777-7.017-10.281-15.218-18.05-26.345-18.845-1.253-3.752.673-15.133-.579-21.428zm-1.033 15.036c.622-.233-1.398 7.591.31 9.719 10.087 1.453 20.703 6.944 27.13 18.7 6.191 8.282 14.554 23.058 12.44 32.359 3.675-3.44 17.47 7.891 11.86 18.803-2.668 5.712-12.949 17.897-35.437 20.87-27.406 2.845-59.076.586-61.576-18.597-.212-7.407 4.097-18.247 10.31-22.358 7.547-3.2 16.095-4.393 24.631-4.504-4.272 2.24-7.145 5.68-6.054 8.554 1.82 6.24 8.18 4.952 12.646 4.794 5.68-.104 12.83-7.886 10.786-12.253 14.398 1.894 26.446 5.554 30.044 6.302 2.828.71 2.431-1.116.476-1.673a240.032 240.032 0 00-15.704-4.34c.925-2.504 2.19-7.032 2.582-9.463 2.642-10.893-2.79-15.426-8.513-15.25-.381.012-.775.03-1.157.083-4.096.532-7.1 4.521-8.203 8.348-.737 3.492-.803 9.482-.104 13.307-5.253-.744-10.19-1.116-14.815-1.157.228-2.695.263-7.168.02-9.547-.213-9.104-4.49-12.78-9.03-12.956a9.644 9.644 0 00-3.14.414c-.366.11-.72.242-1.075.392-3.82 1.573-5.687 6.185-5.765 10.167.192 3.572 1.68 9.401 3.348 12.914a56.393 56.393 0 00-6.736 1.818c-.789-13.705-.448-22.287 5.165-37.235 1.414-3.57 5.87-6.4 11.675-7.852 2.054-1.95.36-7.03.088-8.67-.546-3.274 1.39 3.876 3.074 8.133.92 1.77 2.46 1.2 2.79-.351.12-1.893.374-6.534.294-7.978-.156-2.797 2.182 4.233 3.57 7.833.73 1.076 1.045 1.146 1.57.124.309-1.878 2.361-9.398 2.5-9.45zm39.425 24.038c4.411-.057 8.715 1.789 9.67 8.183.159 6.153-5.23 10.561-9.009 12.398-2.843-5.492-6.51-10.691-9.67-15.683-.379-.604-.793-1.166-1.178-1.757 1.555-1.235 5.913-3.085 10.187-3.14zm.847 2.17c-1.339-.005-2.737.373-4.09.93-1.204.495-2.901 2.045-4.01 2.645-.235.628 1.163-.34 1.695-.393 3.16-1.402 7.519-3.436 10.166 1.674 1.557 3.226-2.146 7.75-4.67 9.154-.272.551-.181 1.702.414 1.611 0 0 8.086-6.054 6.488-11.261-1.665-3.259-3.76-4.352-5.993-4.36zm-74.883 3.678c1 .025 1.744.154 2.19.351-1.027 6.639-1.158 12.926-1.55 19.692-4.172.011-10.749-1.25-13.141-6.901-3.04-10.658 7.406-13.27 12.5-13.142zm16.035 2.583c4.451-.286 7.012 4.46 7.934 8.885-4.917-2.662-11.338-3.078-13.617-.082-.476-4.15.365-7.888 4.773-8.679.314-.065.613-.105.91-.124zm-18.887.6c-3.901.138-7.5 1.445-7.769 7.293.698 5.402 9.897 7.108 9.898 7.108.579-.163.869-.788.392-1.177-2.878-.236-8.122-2.825-8.038-6.406.298-5.747 5.119-5.694 8.576-5.724.505-.172 1.321-.497.847-.97-1.257-.089-2.605-.171-3.906-.125zm53.725 1.198c5.12.285 6.302 4.733 6.033 9.546-4.062-3.842-9.918-4.701-12.893-2.397.612-4.132 2.397-7.524 6.86-7.15zm-29.735 7.893c2.228-.267 2.733 5.748.972 6.22-3.076.822-3.736-5.888-.972-6.22zM83.1 62.046c2.22.318 1.555 6.179-.268 6.179-3.184 0-2.489-6.572.268-6.179zM62.974 72.192c1.476-.064 3.054.22 4.65.992 2.165.958.678 8.385-2.955 9.567-4.079.69-10.216-4.977-7.832-7.852 1.511-1.504 3.677-2.6 6.137-2.707zm31.47 23.04c-9.626 4.639-47.047 8.79-54.984 5.351l-6.84 2.025c8.097 4.076 49.303-.944 58.849-5.455l2.975-1.921z"/>
</svg>
