<?xml version="1.0" encoding="UTF-8"?>
<svg width="128" height="128" xmlns="http://www.w3.org/2000/svg">
 <g stroke="#000">
  <path d="M75.563 111.476c-2.272.992-4.422 2.45-4.422 5.03 0 2.176 2.422 4.133 4.422 4.778 13.935 4.49 25.753-10.31 6.764-10.31-2.248 0-4.67-.307-6.764.502zM41.016 110.287c-3.816.957-7.367 4.955-4.569 9.164 5.394 8.114 30.172-.668 22.386-8.477-2.692-.982-15.335-1.245-17.817-.687zM53.466 61.226c-15.605 11.308-19.295-5.99-22.386-7.33-6.599-1.324-9.39 1.413-7.86 9.085 3.667 3.965 8.291 12.738 12.428 14.28 7.854 2.626 14.688-1.81 17.132-9.163.653-1.962 1.125-4.67.686-6.872z" overflow="visible"/>
  <path d="M57.113 50.598c-1.144 3.496-2.338 3.847-3.178 7.39C51.429 68.557 39.708 76.699 42.03 88.67c3.168 16.324 30.226 21.324 41.182 7.208 4.554-5.04 3.404-13.847 2.489-19.082-1.332-6.862-12.59-24.96-20.218-28.534-4.225-1.98-4.347 1.708-8.37 2.336zM40.136 7.471c-8.284-1.383-11.564 8.616-9.05 13.276 1 1.856 3.425.397 5.735 1.554 7.304 3.659 8.571-5.871 6.163-8.284-1.403-1.28-.638-6.177-2.848-6.546zM86.226 8.147c7.188-3.409 11.631 1.877 11.649 7.12.009 2.765-2.574 1.11-5.342 2.934-12.269 8.08-9.995-.315-8.064-3.78 1.03-1.666-.337-5.28 1.757-6.274z" overflow="visible"/>
  <path d="M37.495 23.639c-8.005 32.107 33.103 44.007 47.35 23.363 13.387-19.397 4.436-36.915-16.942-36.915C52.68 9.57 41.517 8.337 37.495 23.64z" fill="#fff" overflow="visible"/>
  <path d="M55.508 21.58c-4.692-1.374-12.148-2.397-14.496 2.299-3.177 6.355-.636 19.195 5.303 18.561 15.12-1.613 16.756-12.468 9.193-20.86zM51.181 91.044c-2.548.255-5.254 5.224-5.969 8.092-1.21 4.856 5.097 21.334 12.336 16.494 2.695-1.802-1.27-8.653 0-10.767 3.621-6.03 4.645-13.819-6.367-13.819zM75.965 90.17c6.896.402 11.152 7.311 10.684 12.193-.953 9.959-14.344 20.048-14.537 9.262-.048-2.703 2.684-7.744 2.684-10.728 0-2.582-7.168-5.359-6.867-7.607.159-1.186 7.03-1.608 8.036-3.12z" overflow="visible"/>
  <path d="M62.126 65.016c-10.98 1.677-21.03 16.476-17.928 29.116 7.384 11.794 29.41 14.136 39.025 1.747.504-.557.912-1.179 1.284-1.819 2.969-7.88-1.368-14.014-3.852-17.095-5.53-7.926-10.735-12.082-18.529-11.95z" fill="#fff" overflow="visible"/>
  <path d="M75.646 58.861c3.205.56 9.472 1.145 12.69 2.22 10.466 3.5 6.942 20.141 2.513 26.803-1.471 2.213-7.555 1.808-8.909-.229-2.901-4.365 3.197-10.084 1.6-14.89-1.07-3.215-9.15-10.753-7.894-13.904z" overflow="visible"/>
  <path d="M58.513 30.242c-.707 6.692-2.736 7.955-6.983 7.955-5.13 0-6.452-3.738-6.452-8.131 0-4.394 2.205-7.778 6.452-7.778s7.445 3.585 6.983 7.954z" fill="#fff" fill-rule="evenodd"/>
  <path transform="matrix(1.2632 0 0 1 -17.306 -1.768)" d="M59.043 32.806a3.359 5.392 0 11-6.717 0 3.359 5.392 0 116.717 0z" fill-rule="evenodd" stroke-width=".89"/>
  <path d="M56.038 29.359a3.005 3.005 0 11-6.01 0 3.005 3.005 0 116.01 0z" fill="#fff" fill-rule="evenodd"/>
  <path d="M70.199 19.99c4.692-1.375 12.148-2.398 14.495 2.298 3.178 6.355.636 19.195-5.303 18.561-15.12-1.613-16.756-12.468-9.192-20.86z" overflow="visible"/>
  <path d="M67.194 28.652c.707 6.691 2.735 7.954 6.982 7.954 5.131 0 6.453-3.738 6.453-8.131 0-4.394-2.206-7.778-6.453-7.778s-7.444 3.585-6.982 7.955z" fill="#fff" fill-rule="evenodd"/>
  <path transform="matrix(-1.2632 0 0 1 145.49 -3.359)" d="M59.043 32.806a3.359 5.392 0 11-6.717 0 3.359 5.392 0 116.717 0z" fill-rule="evenodd" stroke-width=".89"/>
  <path d="M72.674 27.768a3.005 3.005 0 106.01 0 3.005 3.005 0 10-6.01 0z" fill="#fff" fill-rule="evenodd"/>
  <path d="m59.22 39.258c-14.528 8.039 15.753 9.93 10.43 1.945-3.147-3.395-6.479-3.48-10.43-1.945z" overflow="visible"/>
  <path d="M68.059 40.054a3.712 1.856 0 11-7.425 0 3.712 1.856 0 117.425 0z" fill="#fff" fill-rule="evenodd"/>
  <path d="M53.867 48.522c.147 2.454 9.72 4.428 10.01.666 1.934 3.904 9.018 1.86 10.076-1.414M63.938 49.313l-.313-3.25" fill="none" overflow="visible"/>
 </g>
</svg>
