<?xml version="1.0" encoding="UTF-8"?>
<svg width="128" height="128" xmlns="http://www.w3.org/2000/svg" xmlns:xlink="http://www.w3.org/1999/xlink">
 <defs>
  <linearGradient id="a">
   <stop stop-color="#dc8432" offset="0"/>
   <stop stop-color="#f79438" offset="1"/>
  </linearGradient>
  <linearGradient id="c">
   <stop stop-color="#dadada" offset="0"/>
   <stop stop-color="#fff" offset="1"/>
  </linearGradient>
  <linearGradient id="e" x1="94.551" x2="123.4" y1="106.73" y2="69.872" gradientUnits="userSpaceOnUse">
   <stop stop-color="#3f1f00" offset="0"/>
   <stop stop-color="#572b00" offset="1"/>
  </linearGradient>
  <linearGradient id="f" x1="90.705" x2="149.04" y1="176.92" y2="136.86" gradientUnits="userSpaceOnUse" xlink:href="#a"/>
  <linearGradient id="g" x1="41.346" x2="48.718" y1="100.32" y2="91.346" gradientUnits="userSpaceOnUse" xlink:href="#a"/>
  <linearGradient id="h" x1="157.37" x2="165.06" y1="88.141" y2="79.487" gradientUnits="userSpaceOnUse" xlink:href="#a"/>
  <linearGradient id="i" x1="56.731" x2="80.207" y1="70.833" y2="38.809" gradientUnits="userSpaceOnUse" xlink:href="#c"/>
  <linearGradient id="j" x1="118.91" x2="114.1" y1="7.372" y2="13.782" gradientUnits="userSpaceOnUse" xlink:href="#c"/>
  <linearGradient id="k" x1="89.103" x2="75.641" y1="12.5" y2="23.077" gradientUnits="userSpaceOnUse" xlink:href="#c"/>
 </defs>
 <path transform="matrix(.6366 0 0 .6366 6.491 1.184)" d="M95.797 45.26c-15.416-.119-29.963 1.242-38.134 21.717-1.065 3.638-3.265 8.886-3.906 12.316-1.391-.071-3.603-.106-5.024-.054-7.99.293-14.43 1.917-19.874 10.932-5.4 11.685 6.91 25.344 22.17 25.015-.13 1.75-.097 5.739-.273 7.547-2.231.965-5.533 3.106-7.613 4.266-10.494 5.573-17.188 23.33-15.777 35.702 3.473 31.875 54.745 33.202 79.536 31.49 40.363-2.27 71.705-20.008 78.885-41.979 2.133-12.64-6.845-21.227-19.32-27.189-.556-5.918-1.443-13.525-3.953-19.011 14.377-5.78 20.367-22.802 10.514-31.3-8.684-5.959-16.42-5.077-23.817-2.04-1.906.782-5.63 1.073-7.367 2.037-10.928-16.01-22.111-26.669-39.715-27.248-2.117-.048-4.13-2.185-6.332-2.202z" fill="url(#e)"/>
 <path transform="matrix(.6366 0 0 .6366 6.491 1.184)" d="m159.94 130.13-48.077-10.897-32.051-3.205-33.654 8.333-13.141 17.308-2.885 27.564 22.436 16.987 50.641 7.372 44.872-8.013 31.41-22.436 5.128-17.628-15.384-19.551s-9.616 0-9.295 4.166z" fill="url(#f)" fill-rule="evenodd"/>
 <path d="M47.683 70.08l-1.212-8.885 2.289-6.057 7.269-1.616 4.577 5.654 1.615 14.942 1.346 1.346h9.288l5.923.808.135-15.211 5.115-4.98 6.462.538 3.365 7.134-2.827 12.384-13.73 1.077-1.616 5.789-2.692 3.634-11.442 2.02 2.154-11.712-4.712-2.019-11.307-4.846z" fill="#fff" fill-rule="evenodd"/>
 <path transform="matrix(.6366 0 0 .6366 6.491 1.184)" d="M52.679 88.132s-8.09-2.368-11.246-.987c-2.184.956-6.906 6.906-6.906 6.906l1.973 6.51 9.47 5.92s2.763-.395 5.92-1.382c1.19-.372.789-14.797.789-16.967z" fill="url(#g)" fill-rule="evenodd"/>
 <path transform="matrix(.6366 0 0 .6366 6.491 1.184)" d="M148.296 83.05s6.652-5.661 10.089-5.907c2.377-.17 9.325 2.9 9.325 2.9l1.282 6.682-3.46 7.475s-4.799 3.105-8.052 3.7c-1.227.225-8.174-12.928-9.184-14.85z" fill="url(#h)" fill-rule="evenodd"/>
 <path d="M67.475 29.996c-9.814-.075-20.503 1.097-25.705 14.13-.678 2.317-1.16 4.536-1.568 6.719a30.585 30.585 0 00-2.688-.034c-5.087.186-10.308 1.832-13.774 7.57-3.437 7.44 4.603 17.257 14.317 17.047-.082 1.114-.163 2.226-.275 3.377-1.42.614-2.809 1.263-4.133 2-6.68 3.548-11.248 16.179-10.349 24.055 2.21 20.291 35.462 21.85 51.244 20.76 25.695-1.444 46.769-13.45 51.34-27.437 1.358-8.047-4.052-14.125-11.993-17.92-.354-3.768-1.53-7.386-3.129-10.879 9.152-3.68 12.557-16.147 6.285-21.558-5.528-3.792-10.963-3.13-15.671-1.196-1.214.498-2.36 1.091-3.466 1.705-6.957-10.192-15.096-17.895-26.303-18.264-1.347-.03-2.73-.065-4.132-.075zm-.784 2.99c10.942.237 23.54 5.275 30.717 18.402 5.96 7.974 14.008 22.203 11.972 31.158 3.538-3.312 16.83 7.6 11.429 18.105-2.57 5.5-12.471 17.238-34.122 20.1-26.384 2.74-56.881.548-59.289-17.92-.204-7.13 3.941-17.552 9.923-21.51 7.266-3.08 15.505-4.239 23.724-4.345-4.113 2.157-6.882 5.47-5.831 8.238 1.752 6.007 7.872 4.772 12.171 4.62 5.47-.1 12.352-7.595 10.384-11.8 13.861 1.824 25.464 5.352 28.929 6.073 2.723.682 2.33-1.073.447-1.61-5.28-1.648-10.31-3.04-15.108-4.187.892-2.411 2.105-6.764 2.483-9.105 2.543-10.487-2.687-14.865-8.197-14.695-.367.011-.74.045-1.107.096-3.944.513-6.831 4.348-7.894 8.032-.71 3.362-.784 9.136-.11 12.818-5.058-.717-9.802-1.088-14.255-1.128.22-2.594.254-6.896.02-9.187-.205-8.765-4.329-12.312-8.698-12.48a9.255 9.255 0 00-3.02.398c-.351.106-.703.234-1.044.378-3.678 1.515-5.475 5.966-5.55 9.8.184 3.439 1.612 9.05 3.218 12.432a54.045 54.045 0 00-6.47 1.74c-.76-13.195-.446-21.45 4.958-35.84 1.884-4.76 9.285-8.245 18.154-8.568.712-.026 1.436-.03 2.166-.014zm42.256 14.194c4.246-.056 8.377 1.724 9.297 7.88.152 5.925-5.026 10.17-8.665 11.938-2.738-5.288-6.275-10.302-9.317-15.108-.365-.581-.75-1.122-1.121-1.691 1.497-1.19 5.69-2.965 9.806-3.02zm.804 2.077c-1.29-.005-2.623.37-3.926.907-1.159.477-2.798 1.96-3.865 2.537-.227.604 1.11-.314 1.623-.364 3.042-1.35 7.25-3.31 9.799 1.61 1.499 3.105-2.068 7.456-4.497 8.808-.263.531-.174 1.641.399 1.554 0 0 7.789-5.831 6.25-10.844-1.603-3.137-3.634-4.2-5.783-4.208zm-72.093 3.54c.962.025 1.688.162 2.118.352-.99 6.39-1.122 12.45-1.499 18.965-4.017.01-10.336-1.21-12.639-6.65-2.927-10.26 7.115-12.789 12.02-12.666zm15.452 2.497c4.285-.276 6.737 4.295 7.626 8.554-4.735-2.562-10.913-2.966-13.107-.082-.459-3.996.356-7.587 4.6-8.348.302-.063.595-.106.88-.124zm-18.189.578c-3.756.134-7.215 1.39-7.474 7.02.671 5.201 9.523 6.835 9.523 6.836.558-.158.83-.753.372-1.128-2.77-.226-7.817-2.713-7.736-6.161.286-5.534 4.93-5.486 8.258-5.515.487-.166 1.262-.479.805-.935-1.21-.085-2.496-.162-3.748-.117zm51.725 1.162c4.93.275 6.056 4.539 5.797 9.173-3.911-3.7-9.533-4.515-12.398-2.297.59-3.978 2.305-7.237 6.601-6.876zM58.02 64.632c2.145-.257 2.632 5.536.936 5.99-2.961.792-3.598-5.67-.936-5.99zm31.598 1.63c2.138.305 1.501 5.941-.255 5.941-3.064 0-2.4-6.32.255-5.94zM70.253 76.02c1.42-.062 2.94.22 4.476.962 2.085.923.658 8.07-2.84 9.208-3.926.664-9.852-4.796-7.557-7.564 1.455-1.448 3.552-2.503 5.92-2.606zm30.297 22.183c-9.267 4.467-45.3 8.462-52.942 5.15l-6.587 1.947c7.795 3.923 47.464-.897 56.655-5.24l2.874-1.857z"/>
 <path transform="matrix(.6366 0 0 .6366 6.491 1.184)" d="M84.264 5.593c-11.025 1.832-18.605 7.002-24.06 12.663C43.975 21.818 37 30.204 21.668 33.423 35.212 43.18 49.888 60.89 53.71 72.26c19.356 1.67 57.14-7.44 70.844-17.963-3.711-13.005 13.828-36.9 14.193-49.135 0 0-25.594 2.093-36.321 3.997-5.941-2.42-12.976-4.585-18.162-3.565z" fill="url(#i)"/>
 <path transform="matrix(.6366 0 0 .6366 6.491 1.184)" d="M26.282 33.013S50 20.513 55.77 18.91c5.77-1.602 51.282-11.218 51.282-11.218l31.731-2.243-10.256 7.692-44.872 12.18-36.539 6.41s-19.23 3.205-20.833 1.282z" fill="url(#j)" fill-rule="evenodd"/>
 <path transform="matrix(.6366 0 0 .6366 6.491 1.184)" d="M55.128 29.487L62.5 15.385l7.372-5.77L81.73 5.45l19.551 2.884 8.333 10.898-41.025 9.295-13.462.961z" fill="url(#k)" fill-rule="evenodd"/>
 <path d="M60.133 3.667c-7.019 1.167-11.978 4.458-15.451 8.062-10.331 1.728-17.06 8.548-26.82 10.597 8.621 6.21 19.983 18.562 22.417 25.8 12.321 1.063 38.26-5.544 46.983-12.243-2.363-8.279 8.668-24.836 8.9-32.625 0 0-17.908 1.198-24.737 2.41-3.782-1.54-7.991-2.65-11.292-2zM57.94 5.746c5.907-.554 12.71 3.432 15.326 5.872-8.13 3.79-19.458 6.761-28.363 7.43.523-3.55 1.529-10.289 11.634-13.078.472-.108.936-.18 1.403-.224zm33.57.399c-2.877 1.081-7.91 3.732-12.066 4.841-.9-.627-3.073-3.377-4.55-4.166 1.182-.215 13.797-1.964 16.617-.675zM42.655 14.06c-1.152 1.487-2.507 4.257-3.219 5.603-3.329.601-11.103 1.634-13.537 2.04l16.756-7.643zm50.483-6.263c-2.268 8.219-9.36 21.391-10.198 27.894-2.88 2.846-30.982 11.43-40.512 10.727-1.368-3.531-10.385-16.85-16.951-22.544 16.178-.638 58.242-8.702 67.661-16.077z"/>
</svg>
