<svg xmlns="http://www.w3.org/2000/svg" width="128" height="128"><defs><linearGradient><stop offset="0"/><stop offset="1" stop-color="#e56900"/></linearGradient><linearGradient><stop offset="0" stop-color="#c8c8c8"/><stop offset="1" stop-color="#fff"/></linearGradient><linearGradient><stop offset="0"/><stop offset="1" stop-color="#727272"/></linearGradient><linearGradient><stop offset="0" stop-color="#d36100"/><stop offset="1" stop-color="#ff7400"/></linearGradient></defs><g fill-rule="evenodd"><path d="M117.313 43.338a1128.47 1128.47 0 00-40.422.453c-2.93.847-4.93 3.326-7.382 4.989-2.508 2.017-4.937 4.19-7.815 5.676-2.21.264-4.524.024-6.58 1.064-2.49.707-4.31 3.344-7.082 2.73-9.7-.743-19.988 1.505-27.547 7.895-5.344 4.21-10.356 8.83-15.618 13.13-1.499.448-.716 2.416.599 1.141 1.973-1.023 3.833-3.844 5.81-3.801 2.186-.06 3.675-2.306 5.615-3.172 8.206-5.602 16.658-11.539 26.556-13.604 2.167-.3 4.434-.287 6.546.302 1.58 1.494 1.724 4.01 3.613 5.323.424 1.457 1.387 2.928 3.044 2.325 1.375.905-2.032 4.03.86 3.462 2.23-.527 4.26-4.006 6.63-2.346 1.042 1.431 2.524 3.943 4.506 2.14 2.366-1.439-3.18-3.538.41-4.077 2.94-1.49 4.404-4.646 6.118-7.288 1.229-2.224 2.305-4.649 2.344-7.233-1.848-.984-2.939 1.918-4.593 2.413-2.02 1.379-4.169 2.613-6.506 3.364-2.543-.556.52-2.9 1.702-3.297 5.052-3.676 10.095-7.766 16.212-9.48 3.815-.479 7.65.19 11.474.186 8.337.403 16.695.815 25.037.515 1.694.326 5.455-2.736 2.072-2.716-1.868-.034-3.735-.04-5.603-.094zm5.646 1.506c.216.235-.29.02 0 0zM64.588 67.336c1.484-.982 1.989 2.55.303.929-.316-.137-.696-.661-.303-.93z"/><path d="M70.618 69.387c-2.394.714-4.88 2.565-4.88 2.565-.586.85-.872 1.459.356 3.31.617-2.753 2.863-5.275 7.876-5.508-.34-.983-2.7-.745-3.352-.367z"/></g><metadata/></svg>