<?xml version="1.0" encoding="UTF-8"?>
<svg width="128" height="128" xmlns="http://www.w3.org/2000/svg" xmlns:xlink="http://www.w3.org/1999/xlink">
 <defs>
  <linearGradient id="l" x1="133.96" x2="138.7" y1="123.34" y2="132.49" gradientTransform="scale(1.0698 .93474)" gradientUnits="userSpaceOnUse" xlink:href="#a"/>
  <linearGradient id="b">
   <stop offset="0"/>
   <stop stop-color="#727272" offset="1"/>
  </linearGradient>
  <linearGradient id="a">
   <stop stop-color="#d36100" offset="0"/>
   <stop stop-color="#ff7400" offset="1"/>
  </linearGradient>
  <linearGradient id="j" x1="299.67" x2="302.9" y1="64.242" y2="66.33" gradientTransform="scale(.5742 1.7416)" gradientUnits="userSpaceOnUse" xlink:href="#a"/>
  <linearGradient id="k" x1="176.18" x2="182" y1="89.561" y2="97.719" gradientTransform="scale(.798 1.2531)" gradientUnits="userSpaceOnUse" xlink:href="#a"/>
  <linearGradient id="i" x1="100.14" x2="79.627" y1="91.971" y2="111.94" gradientTransform="scale(1.3707 .72957)" gradientUnits="userSpaceOnUse" xlink:href="#b"/>
  <linearGradient id="h" x1="205.34" x2="173.22" y1="150.52" y2="202.44" gradientTransform="scale(1.3583 .7362)" gradientUnits="userSpaceOnUse" xlink:href="#b"/>
  <linearGradient id="g" x1="149.94" x2="140.13" y1="125.36" y2="111.17" gradientTransform="scale(1.1368 .8797)" gradientUnits="userSpaceOnUse" xlink:href="#b"/>
  <linearGradient id="f" x1="119.99" x2="155.26" y1="124.32" y2="85.55" gradientTransform="scale(1.0504 .95206)" gradientUnits="userSpaceOnUse">
   <stop stop-color="#c8c8c8" offset="0"/>
   <stop stop-color="#fff" offset="1"/>
  </linearGradient>
  <linearGradient id="m" x1="131.36" x2="136.5" y1="136.03" y2="127.09" gradientTransform="scale(1.0775 .92808)" gradientUnits="userSpaceOnUse">
   <stop offset="0"/>
   <stop stop-color="#e56900" offset="1"/>
  </linearGradient>
 </defs>
 <g fill-rule="evenodd">
  <path d="M115.8 46.94c2.46.084 4.561-.06 6.995.343.235.593-.835.683-1.854.863.452.644-.189 1.042-.8 1.003-3.06.408-6.263.243-9.343.216-8.735-.17-17.41-.718-26.14-.99-.433.136-1.588.105-1.854.279-3.826 1.166-7.206 3.472-10.486 5.7-2.497 1.715-4.865 3.775-7.338 5.523-1.003 1.281 1.524 1.703 2.323 1.244 3.435-1.433 6.55-3.57 9.37-5.98.217 1.111.052 1.45.012 2.006-.585 3.087-2.18 5.716-3.884 8.316-1.112 1.552-2.201 2.857-3.847 3.884-.655.301-1.402.39-2.108.457.018.11.18.722.202.83.017.227.56.29.713.427.46.382.718.949 1.137 1.376.174.181.03.083-.058.35-.116.347-.016.416-.394.534-.165.058-.497-.068-.66-.114-.068.204-.036.55-.241.622-.493.215-.723.191-1.232.05-.265-.08-.524.093-.52-.203a.852.852 0 00-.254-.622c-.507-.613-.97-1.271-1.599-1.752.084-.122-.236-.4-.496-.558-.033-.04-.529-.31-.546-.356-.261.181-.726.272-1.028.356-1.631 1.329-3.067 2.438-5.167 2.818-.463-.714.316-.975.622-1.676.648-.902-.757-1.851-1.346-2.285-.054.33-.15.684-.482.813-.227.073-.215.064-.394.279-.336-.516-.47-1.137-.558-1.74-.004-.029.003-.059 0-.088-.333-.299-.299-.747-.597-1.08-.054-.028-.638-.502-.647-.558-.995-1.17-1.66-2.057-2.032-3.567-.243-.83-1.54-1.058-2.285-1.282-1.617-.161-3.462-.15-5.078-.064.279.197-.513.709-.847.614-3.985.637-7.543 2.289-11.112 4.121-5.391 2.793-10.257 6.066-15.234 9.522-1.128.748-2.01 1.68-3.25 2.234-.43.327-.894-.027-.953-.47-2.037 1.64-4.084 3.464-6.436 4.622-1.814-.182 1.168-1.27 1.587-1.854 4.921-4.217 9.835-8.473 14.879-12.53 4.89-3.797 10.804-6.236 16.96-6.92 3.724-.461 7.487-.439 11.223-.151 3.052-2.245 6.73-4.094 10.626-3.593 1.988-.621 3.538-2.186 5.218-3.364 3.013-2.283 5.81-4.868 9.001-6.907 1.632-.508 3.42-.227 5.116-.38 11.703-.265 23.41-.412 35.116-.318zM63.927 69.83s-.055 1.218.774 1.384c.829.165 1.654.502 1.765.723.11.221-.555-1.78-.61-2.057l-1.93-.05z" fill="#fff"/>
  <path transform="matrix(-.40625 0 0 .40625 125.32 23.047)" d="M145.024 94.548c-8.122-2.763-24.366-13.815-25.454-15.406-.838 4.354 3.851 16.327 7.2 21.184 2.764 4.354 9.546 13.648 12.98 14.486 3.432.837 9.377.753 11.136.418 1.758-.335 5.191 2.177 7.368 4.103 2.177 1.926 8.206 5.359 10.802 5.275 1.172.251-2.094-5.024-2.01-5.861-.251-2.596 2.01-3.266 2.596-4.354-3.768.921-5.36.754-10.216 1.088-4.186.168-10.885-1.59-14.485-9.378-.587-4.019-1.256-9.545.083-11.555z" fill="url(#f)"/>
  <path transform="matrix(-.40625 0 0 .40625 125.32 23.047)" d="m176.84 109.37c-8.709 3.266-11.807-2.68-14.486-5.024 5.359 6.615 2.26 10.215-1.424 9.127-7.703-1.926-14.904-17.333-5.023-23.194 0.418-1.256-5.862 1.005-7.536-0.335 1.674 2.93 0.418 4.773-2.764 4.69-2.26-1.006-1.59 10.214-0.418 11.805s4.521 8.709 12.225 8.792c7.703 0.084 18.17-1.34 19.426-5.861z" fill="url(#g)"/>
  <path transform="matrix(-.40625 0 0 .40625 125.32 23.047)" d="M201.125 96.977s7.87 0 11.723 1.004c3.851 1.005 26.961 7.704 32.32 10.55 5.359 2.848 25.12 17.25 30.814 22.608 5.693 5.36 17.249 14.067 17.75 15.24.503 1.172-1.339 1.004-2.344.167-1.004-.837-14.067-10.885-14.067-10.885s.838 2.177 0 2.177c-.837 0-21.435-12.895-23.78-14.57-3.684-3.851-23.277-14.569-24.784-15.239-1.508-.67-21.77-10.048-24.283-9.88-2.512.167-3.349-1.172-3.349-1.172z" fill="url(#h)"/>
  <path transform="matrix(-.40625 0 0 .40625 125.32 23.047)" d="m102.32 62.479s14.905-0.837 15.743-0.502c0.837 0.334 35 24.282 36.004 24.784 1.005 0.503 3.517 3.182 1.34 3.182s-4.354 1.507-7.2 0c-2.848-1.507-27.298-19.593-30.312-20.598s-13.565-6.866-15.574-6.866z" fill="url(#i)"/>
  <path d="M84.721 48.095c.76.729-1.188.536-1.622.82-3.827 1.167-7.197 3.427-10.476 5.656-2.498 1.714-4.865 3.608-7.338 5.356-1.004 1.282 1.022 1.47 1.82 1.01 3.435-1.433 6.548-3.568 9.368-5.978.936-.491.545 1.353.505 1.91-.585 3.087-2.176 5.877-3.88 8.476-1.111 1.553-2.248 3.193-3.893 4.221-1.468.675-3.126.633-4.696.45-1.053-.144-1.645.858-2.55 1.109-1.631 1.329-3.47 2.548-5.57 2.929-.462-.714.431-1.65.738-2.35.664-.926-.593-1.318-1.164-1.765-2.307-1.508-4.226-3.743-4.895-6.463-.243-.829-1.534-.548-2.28-.773-5.264-.524-10.579.392-15.61 1.92-4.353 1.394-8.838 2.95-12.362 5.916-.636.243-1.053.776-2.005 1.222.455-.568 1.48-1.317 2.157-1.967 3.921-3.08 8.858-4.754 13.62-6.108 4.9-1.316 10.054-2.098 15.117-1.395.84.141 1.997.11 1.907 1.291.687 2.583 2.586 4.646 4.798 6.055.757.443 1.863 1.047 1.26 2.113-.248.583-1.39 2.103-.077 1.393 1.559-.524 2.9-1.492 4.174-2.505 1.011-.39 1.856-1.424 3.093-1.103 1.496.185 3.168.193 4.473-.66 1.997-1.588 3.396-3.785 4.685-5.954 1.18-2.162 2.302-4.47 2.49-6.963.06-.822-.91.559-1.334.708-2.537 1.939-5.24 3.735-8.239 4.874-.935.308-2.813.172-2.376-1.265.22-.942 1.262-1.227 1.909-1.826 4.505-3.339 8.987-6.824 14.114-9.168 1.319-.567 2.7-1.066 4.14-1.186z"/>
  <path d="M115.61 46.762c2.46.085 4.954-.06 7.388.343.6 1.515-4.995 1.238-5.991 1.436-.76.314-3.193-.232-1.296-.472 1.266-.046 6.07-.166 6.614-.57-5.7-.374-11.421-.222-17.13-.252-9.741.085-19.487.116-29.22.518-2.557 1.355-4.656 3.428-6.958 5.16-2.348 1.8-4.58 3.824-7.228 5.176-1.814.207-3.865-.07-5.679.698-2.024.64-3.732 1.98-5.526 3.02-8.05-.665-16.592.01-23.7 4.178-5.006 2.884-9.145 6.969-13.596 10.602a713.28 713.28 0 00-6.783 5.824c3.096-1.915 5.808-4.387 8.595-6.715 1.032.51-1.677 1.81-2.226 2.552-2.241 1.754-4.359 3.767-6.927 5.03-1.814-.181 1.103-1.785 1.522-2.37 4.922-4.216 9.831-8.472 14.875-12.529 4.891-3.797 10.803-6.23 16.96-6.913 3.723-.462 7.493-.442 11.229-.154 3.052-2.245 6.73-4.094 10.626-3.593 1.987-.621 3.536-2.182 5.216-3.36 3.013-2.284 5.809-4.867 9-6.906 1.631-.507 3.423-.228 5.118-.382 11.703-.264 23.41-.415 35.116-.32z"/>
  <path d="M121.31 47.956c.921.72-.634 1.405-1.307 1.363-3.06.408-6.16.293-9.24.266-9.772-.19-19.525-.915-29.296-1.122-1.422.022-2.88-.1-4.274.229-4.708 3.353-9.631 6.401-14.264 9.863-.473.28-.805.676-.678 1.183-.77.352-.69-.584-.318-.99 1.717-1.504 3.669-2.713 5.529-4.029 3.195-2.184 6.43-4.318 9.608-6.522 1.492-.352 3.05-.219 4.571-.24 10.75.232 21.481 1.098 32.237 1.153 2.211-.037 4.457.036 6.632-.426.797-.012.321-.546.8-.728zM43.966 62.364c.544.151.015.323-.466.556-3.985.637-7.737 2.455-11.306 4.288-5.39 2.792-10.37 6.284-15.348 9.74-1.128.748-2.223 1.572-3.463 2.127-.548.417-1.372-.077-1-.752.246-.438.665.072.432.393.711-.169 1.315-.623 1.938-.989 2.884-1.888 5.664-3.93 8.551-5.816 4.587-3.01 9.337-5.858 14.495-7.785 1.951-.71 4.101-1.509 6.167-1.762zM66.423 65.77c.18.043-.188.729-.262 1.076-.525 1.132-1.326 2.002-2.47 2.505-1.375.627-2.882.83-4.375.77a17.324 17.324 0 01-4.114-.681c-.228-.098-.127-.505.122-.477.288.061.567.155.857.21 1.843.422 3.768.612 5.644.297 1.17-.206 2.366-.579 3.203-1.443.524-.533 1.294-2.284 1.395-2.256zM60.08 63.812c.218-.01-.01.41-.143.57-.49 1.019-.802 1.834-1.625 2.614-.723.677-1.641 1.2-2.646 1.268-.846.066-1.487-.256-2.21-.685-.66-.542-.272-.406-.04-.385.193.031.344.174.525.238.75.348 1.63.45 2.42.18.966-.316 1.802-.966 2.423-1.747.45-.57 1.201-2.055 1.296-2.053z"/>
  <path transform="matrix(-.40625 0 0 .40625 125.32 23.047)" d="m171.66 107.95s2.04-1.36 2.448 0.137c0.408 1.496-0.136 7.073-1.088 8.025s-1.768 0-1.768-0.816-0.136-6.529 0.408-7.345z" fill="url(#j)"/>
  <path d="M55.002 66.49c.274-.016.594-.006.792.213.129.197.087.446.136.667.102.858.213 1.733.081 2.595-.052.333-.208.704-.544.835-.227.073-.436-.113-.559-.284-.336-.516-.476-1.133-.565-1.735-.062-.53-.123-1.068-.07-1.602.012-.342.308-.61.63-.67.033-.008.066-.014.099-.018zm.089.521c-.248-.012-.356.276-.329.483-.01.843.098 1.698.41 2.485.062.179.354.163.344-.046.13-.818.005-1.644-.094-2.457-.03-.133-.001-.285-.07-.403-.066-.068-.173-.084-.261-.062z"/>
  <path d="M58.377 62.58c-.476-.17-1.565 1.157-1.53 1.6.748.577 1.496-1.123 1.53-1.6z" fill="#4a0000"/>
  <path d="M58.442 62.289c.165.014.273.217.196.363-.188.556-.397 1.123-.774 1.582-.227.27-.557.48-.92.47-.14.01-.279-.084-.294-.228-.07-.455.118-.906.373-1.274.262-.37.593-.727 1.034-.877a.802.802 0 01.385-.036zm-.155.332c-.432.138-1.07.826-1.168 1.251-.015.055-.047.452.042.398.123-.064.41-.182.495-.289.187-.254.52-1.069.631-1.36z"/>
  <path d="M53.989 64.383c0-1.429-1.123-1.292-1.53-1.292 0 .646.407.952 1.53 1.292z" fill="#4a0000"/>
  <path d="M52.97 62.885c.405.066.803.268 1.04.611.162.234.25.525.227.81-.014.14-.162.24-.298.215a2.066 2.066 0 01-1.549-.86 1.729 1.729 0 01-.246-.469.258.258 0 01.224-.298c.198-.04.403-.042.602-.009zm-.408.393c.176.195.415.833 1.411.914a3.706 3.706 0 00-.254-.518c-.085-.088-.322-.346-.445-.37-.078-.013-1.009-.28-.712-.026z"/>
  <path transform="matrix(-.40625 0 0 .40625 125.32 23.047)" d="m144.46 110.13s2.72 1.224 2.856 1.769c0.137 0.544-2.312 6.665-3.128 8.025s-2.857 4.625-3.945 3.945-2.04-1.497-1.632-2.177 4.353-2.992 4.625-3.944c0.272-0.953 1.224-6.938 1.224-7.618z" fill="url(#k)"/>
  <path transform="matrix(-.40625 0 0 .40625 125.32 23.047)" d="m151.67 114.62s3.4 0.68 2.177 2.04c-1.225 1.36-5.985 3.4-6.393 4.625-0.409 1.224-0.137 3.673-1.769 3.809s-3.536 0.544-3.944-0.408c-0.409-0.952 3.536-5.033 4.08-5.033s2.993-0.544 3.537-1.224 1.632-3.537 2.312-3.809z" fill="url(#l)"/>
  <path transform="matrix(-.40625 0 0 .40625 125.32 23.047)" d="M138.828 122.013s3.098-2.764 3.768-3.685c.67-.92 1.34-.837 1.842-.418.503.418-1.088 3.349.251 2.428 1.34-.921 2.596-1.591 3.099-.837.502.753-.503 1.59-.67 2.763-.67 1.088-.503 2.428-1.005 2.847-2.26.25-4.522.335-4.69-.586-.167-.922-2.176-.252-2.595-2.512z" fill="url(#m)"/>
  <path d="M66.72 67.456c.22.054.198.322.207.5.062.814.098 1.636.26 2.44.017.226.222.344.375.48.46.383.948.735 1.367 1.163.174.18.366.422.278.69-.116.346-.297.737-.675.855-.356.124-.747-.035-1.002-.293-.394-.363-.71-.805-.987-1.262-.24-.44-.396-.921-.59-1.383a20.1 20.1 0 01-.683-2.013c-.09-.22.08-.396.237-.522.326-.315.72-.619 1.186-.66l.026.005zm-.292.673c-.23.12-.448.264-.635.444.196.779.3 1.558.585 2.307.162.4.508.778.755 1.135.235.35.489.698.816.967.164.148.474.219.592-.02.082-.167.26-.388.058-.542-.525-.53-1.149-.95-1.704-1.447-.216-.25-.227-.598-.29-.907-.086-.613-.124-1.23-.172-1.847l-.005-.09z"/>
  <path d="M63.8 69.335c.198.064.225.295.28.465.213.496.491 1.002.961 1.297.205.13.445.206.689.197.188.002.382.04.53.165.316.226.585.51.89.75.31.267.644.518.873.86.193.358-.015.845-.392.977-.493.216-1.06.188-1.569.048-.265-.08-.517-.305-.514-.6 0-.222-.033-.465-.206-.623-.507-.613-1.139-1.105-1.768-1.587-.247-.176-.508-.332-.768-.49-.178-.22-.108-.535.007-.767.186-.361.55-.653.962-.692h.025zm-.165.609c-.193.054-.369.223-.395.426-.008.152.146.213.253.28.809.501 1.527 1.136 2.186 1.819.227.258.407.595.37.949.016.172.214.222.358.234.36.056.765.091 1.084-.119.138-.078.087-.28-.018-.366-.479-.434-.97-.856-1.467-1.268-.234-.159-.535-.046-.785-.157-.528-.16-.955-.555-1.236-1.021a3.597 3.597 0 01-.35-.777z"/>
 </g>
</svg>
