<svg xmlns="http://www.w3.org/2000/svg" xmlns:xlink="http://www.w3.org/1999/xlink" width="128" height="128"><defs><linearGradient xlink:href="#a" id="c" x1="501.13" y1="339.796" x2="471.161" y2="256.134" gradientUnits="userSpaceOnUse" gradientTransform="matrix(1.16673 0 0 1.16673 -85.758 -63.6)"/><linearGradient id="a"><stop offset="0" stop-color="#e6e3e1"/><stop offset="1" stop-color="#fff"/></linearGradient><linearGradient xlink:href="#b" id="d" gradientUnits="userSpaceOnUse" x1="398.737" y1="301.711" x2="432.452" y2="344.167" gradientTransform="matrix(1.16673 0 0 1.16673 -85.758 -63.6)"/><linearGradient id="b"><stop offset="0" stop-color="#6e4527"/><stop offset="1" stop-color="#b97443"/></linearGradient><linearGradient xlink:href="#b" id="e" gradientUnits="userSpaceOnUse" x1="552.951" y1="300.462" x2="572.305" y2="326.685" gradientTransform="matrix(1.16673 0 0 1.16673 -85.758 -63.6)"/><linearGradient xlink:href="#b" id="f" gradientUnits="userSpaceOnUse" x1="518.612" y1="367.268" x2="534.845" y2="364.146" gradientTransform="matrix(1.16673 0 0 1.16673 -85.758 -63.6)"/><linearGradient xlink:href="#b" id="g" gradientUnits="userSpaceOnUse" x1="526.728" y1="368.516" x2="558.57" y2="359.151" gradientTransform="matrix(1.16673 0 0 1.16673 -85.758 -63.6)"/><linearGradient xlink:href="#b" id="h" gradientUnits="userSpaceOnUse" x1="456.668" y1="372.922" x2="469.75" y2="372.922" gradientTransform="matrix(1.16673 0 0 1.16673 -85.758 -63.6)"/><linearGradient xlink:href="#b" id="i" gradientUnits="userSpaceOnUse" x1="428.706" y1="367.268" x2="454.304" y2="374.76" gradientTransform="matrix(1.16673 0 0 1.16673 -85.758 -63.6)"/></defs><metadata/><path d="M481.53 255.43c-8.663.338-16.562 5.59-21.33 12.76 1.65.368 1.418 1.196.984 2.37-.264.848-2.344-1.176-2.77-1.75-2.603-4.362-8.22-4.511-12.689-5.469-5.305-.33-9.426 4.11-13.235 7.147-3.017 2.283-3.202 6.723-.365 9.206 2.902 2.915.333 1.875-2.297.893-3.991-1.127-8.42-.785-12.506-.328-5.314.997-5.194 7.568-3.427 11.485 3.243.35 6.673.466 9.261 2.662 5.6-4.312 12.933-7.964 19.944-5.36 3.84.643 8.13 4.766 5.688 8.86-2.713 4.198-7.477 8.488-5.724 14 1.04 10.585-6.602 19.346-14.147 25.705-5.771 2.53-12.523 2.238-17.793 6.016-1.36 1.009-1.271 4.745-1.552 7.182 0 9.458 10.21 15.887 19.084 13.92 7.77-1.066 13.65-6.825 19.11-12.06-1.033-.495-1.918-3.203-.29-1.604 5.362 7.144 14.12 11.857 23.261 11.303 5.687.225 11.673-3.084 13.49-8.459-.72-1.895-.24-3.35.985-.693 1.925 3.74 4.579 7.613 9.224 7.693 10.585.837 20.704-6.455 25.085-15.787-.358-1.738.234-3.99 1.75-1.385 6.582 7.52 18.5 9.677 27.054 4.265 7.189-4.164 12.011-11.728 13.855-19.761 6.523-5.053 11.421-14.401 7.401-22.423-1.575-2.998-4.526-7.558-8.459-5.141-2.712-.175-5.368-2.992-8.482-3.002-2.23-.408-6.801-1.163-5.006-4.297 2.011-7.659-1.97-16.94-9.846-19.244-9.11-3.162-19.586-.087-27.163 4.922-.449-3.831 4.114-5.384 7-6.527-5.462-4.887-10.82-10.3-17.144-13.89-6.085-2.045-12.451-3.67-18.952-3.21z" fill="url(#c)" transform="matrix(.56177 .0609 -.0609 .56177 -183.09 -150.36)"/><path d="M438.652 289.994c-6.803.585-12.502 5.682-18.996 6.818 1.054-.829 2.23-1.561-.002-2.56-6.899-3.918-15.557-.696-21.947 2.925-10.623 7.097-20.825 17.084-23.553 30.006-1.085 6.344 1.796 13.65 7.875 16.116 5.016 1.357 10.632 1.362 15.715.547 4.494-4.956 9.238-9.952 12.433-15.751 1.101.836-1.044 3.838-1.313 5.25-1.611 3.736-4.006 7.026-6.453 10.246 6.71-1.311 13.581-2.757 19.324-6.636 3.449.977 7.985 1.763 9.99-2.078 5.075-6.141 11.078-13.473 10.245-21.877-.342-1.668-1.342-3.199-2.77-4.12 3.082-4.48 7.189-10.33 4.958-15.97-1.064-1.88-3.356-2.984-5.506-2.916z" fill="url(#d)" transform="matrix(.56177 .0609 -.0609 .56177 -183.09 -150.36)"/><path d="M579.134 292.838c-5.648 1.316-10.361 4.843-15.715 6.964 3.311 1.546 7.14 2.812 9.152 6.052 5.094-1.837 8.805-7.055 7.292-12.542-.002-.678-.071-.848-.73-.474z" fill="url(#e)" transform="matrix(.56177 .0609 -.0609 .56177 -183.09 -150.36)"/><path d="M519.74 345.158c.105 2.18-3.324 5.753-1.094 6.746 2.285.454 2.654 2.224 2.174 4.411-.146 8.081 1.42 16.094 4.462 23.554 3.338-2.279 9.872-1.88 9.953-7.074-2.001-6.797 2.937-13.956.438-20.782-5.58-1.346-12.642-2.668-15.605-8.204l-.328 1.35z" fill="url(#f)" transform="matrix(.56177 .0609 -.0609 .56177 -183.09 -150.36)"/><path d="M552.736 348.403c-4.348 2.549-9.56 3.244-14.547 2.48 1.572 6.747 5.03 13.11 6.198 19.944 4.962-1.945 10.134-3.551 15.24-4.813.7-5.78-4.155-10.478-5.635-15.788-.545-.574.02-3.003-1.256-1.823z" fill="url(#g)" transform="matrix(.56177 .0609 -.0609 .56177 -183.09 -150.36)"/><path d="M447.402 353.69c-1.044 2.414.533 4.841.985 6.928-.606 9.899.79 19.802.51 29.715 4.376-.415 8.654-1.456 12.944-2.37.536-8.312 1.012-16.798-.912-24.975-5.364-1.97-9.704-5.837-13.235-10.319l-.16.561-.132.46z" fill="url(#h)" transform="matrix(.56177 .0609 -.0609 .56177 -183.09 -150.36)"/><path d="M444.413 359.013c-3.877 5.104-9.96 8.384-16.408 8.24-2.855 4.487-8.555 10.023-4.885 15.606 1.659 2.69 5.759.932 8.458 2.005 3.126.379 5.908 1.69 8.642 3.245 1.704-7.458 4.022-14.973 6-22.312-.342-2.682-1.077-5.319-.787-8.06l-1.02 1.276z" fill="url(#i)" transform="matrix(.56177 .0609 -.0609 .56177 -183.09 -150.36)"/><path d="M43.27 41.045c-1.331-.177-2.839.417-3.989 1.506l.154.286c1.77-.812 4.322-.7 4.638 1.21-.302 1.012-.272.755-.867 1.626l-.134.305c.591-.883 3.823-.305 2.715-2.975-.567-1.219-1.483-1.82-2.518-1.958zM26.898 45.64c-1.759-.01-3.136 1.32-1.946 3.025 1.222 1.027 2.829 1.33 4.226 2.059 1.623.377 2.025-1.739 2.44-2.466-.785-1.37-2.892-2.233-4.72-2.618z"/><path d="M109.838 90.631c-3.292.372-6.77.94-9.716 2.076-1.372 1.134-.955 3.336-.826 4.946 1.918.688 3.345-.877 4.098-2.436.487-.898 2.52-1.01 2.128.438.262 1.56 1.82 3.657 3.53 2.413 2.375-.896 1.64-3.845 1.155-5.677-.43-.465.53-2.123-.369-1.76zM95.432 93.92c-2.624.685-5.24 1.398-7.826 2.218.354 2.397.051 5.233 1.028 7.344 2.352.794 2.805-2.247 3.35-3.76.717-1.666 2.826-.1 3.604.784.845 1.406 2.683.016 1.942-1.282-.429-1.826-1.459-3.51-1.757-5.392l-.32.082-.021.005zm-61.746-1.43c-2.47.391-4.722 2.02-6.193 3.991-.824.803-.341 2.487.929 1.945 1.402-.378 2.616-1.333 3.59-2.346 1.234.316 3.038 1.066 2.572 2.662.724 1.913 3.795 1.877 4.251-.223.487-1.536.147-3.217.74-4.728-1.872-.745-3.9-1.09-5.889-1.301zm19.768 4.609c-2.722.102-5.656.916-8.184-.204-1.386-.104-1.226.442-.504 1.396.264 1.05-.04 2.138-1.186 2.338-1.275.516-2.358 3.04-.73 3.672 2.125-.75 3.399-3.165 5.722-3.462 1.019 1.115 1.537 3.45 3.22 3.56 1.36-1.283.809-3.652 1.55-5.302-.145-.543 1.235-2.32.112-1.998z" fill="#28170b"/><path d="M73.152 21.873c-5.622-.628-10.922.534-16.14 4.637-2.269-1.602-4.993-2.65-7.805-2.464-3.506.18-7.158 2.164-8.503 5.532-.505.625-.133 2.354-.786 2.274-2.621-.981-5.908-1.254-8.194.662-1.687 1.36-2.735 3.567-2.476 5.748-3.456-.15-6.816.976-9.82 2.609-7.17 3.206-22.55 16.773-11.11 24.139 3.173 2.209 4.217 2.504 6.644 2.91 3.233.717 6.576.882 9.873.633-.593 1.414-.842 3.045-.546 4.575 1.094 4.382 5.149 6.994 9.174 8.476-1.987 2.753-3.575 5.804-4.749 8.99-.603.79.116 1.05.731 1.342-.216.729-1.094 1.559-1.613 2.286-.979 1.25-2.145 2.358-3.074 3.643-.722 1.548 1.795 1.886 2.747 2.488 1.574-.034 2.644-1.638 4.136-2.096 1.237 1.045 2.619 2.345 4.57 2.77 1.797.201 3.669-.719 4.454-2.381.636-1.156.953-2.447 1.426-3.67-1.02-.483-.383-1.374-.07-1.07.311-.911 2.837-8.943 3.067-9.323-.148 1.655-2.17 10.366-2.497 11.997.133.072.244.133.332.204-.752 1.59-1.88 4.39-3.06 5.684-1.18 3.517 3.86 2.658 5.725 1.902.948-.252 2.315-1.462 2.97-1.128.473 1.468 2.156 1.85 3.35 2.52 1.439.095 1.476-1.782 2.128-2.684.553-1.166.518-3.456.728-5.01-.963-.55 2.365-.26.561-1.91.608-3.834-.044-9.548-.62-13.7 4.719 2.302 9.317.906 12.884-2.9 3.787 6.546 11.067 6.576 17.086 3.115.825-.573 1.774-2.454 2.204-2.457.639 5.15-1.134 10.283-.375 15.429.043.02.085.043.128.064-.244 2.551-.956 5.97-.231 7.575.575 1.239 1.985 1.641 3.07 2.304 1.363.625 2.12-1.043 2.818-1.902.674-.978.035-3.477.904-4.3.933 1.067 3.384 3.532 4.743 3.969 1.63.08.992-1.973.826-2.96-.27-.997-1.805-5.054-1.978-6.467.393-.42.512-1.183.349-1.816-1.906-1.32.13-8.848.368-10.39.21 2.129.133 10.068.16 12.2-2.262 1.635 5.267 6.964 3.716 4.582 1.003 1.002 1.378-1.524 2.183-1.954.826-.617 1.8 1.159 2.798 1.398 1.126.649 2.261 1.313 3.335 2.03 1.592.547 1.19-1.537 1.596-2.439.249-1.63.273-3.35 1.177-4.793.601-1.152-.037-1.373-.633-2.714-1.737-1.276-.92-1.72-1.056-2.069-.729-2.217-3.085-6.64-3.8-8.938 3.256-1.893 4.838-5.806 6.214-9.134.031.017.057.046.094.06 5.163-2.066 6.087-8.995 8.666-11.546 1.485-1.674 3.62-6.91 4.496-8.983-.51-.273-.655-.274-.828-.292-.094-.17-.101-.284-.603-.655-3.74-.001-7.385 1.028-10.967 1.996-4.25.321-4.764-.1-4.451-3.398.485-2.458.042-6.068-1.63-7.978-2.31-2.791-5.824-3.376-9.09-4.744-1.443-.708-4.188-.92-6.745-.58-.082-.564-.453-1.378-1.344-2.52-1.778-2.894-4.197-5.043-7.109-6.551-3.664-1.422-7.155-2.45-10.528-2.827zm-.509.956c3.736.323 7.187 1.8 9.834 3.021 1.158.754 6.288 6.052 8.038 8.235-2.621.639-4.617 1.946-3.974 4.018 7.97-4.887 21.955-3.537 20.226 8.191.144.999-1.34 2.505-.456 3.119 1.392 1.424 3.553 1.33 5.022 2.33.749.477 1.43 1.055 2.218 1.454 1.03-.415 2.175-.742 2.886.431 2.946 3.478 3.349 9.579-4.14 14.565.033.018.067.025.096.044-3.912 11.234-17.149 15.868-24.39 4.569-.262.82-.691 1.29-.559 2.197-2.845 5.301-11.654 9.51-16.744 6.324-1.745-.998-2.42-5.211-3.627-5.246a5.133 5.133 0 00-.006 1.92c-2.904 4.43-7.201 4.1-12.23 2.6-2.934-1.273-5.664-3.334-7.214-6.19-1.416-1.699-1.056-.806-1.797-.684.227.427.458.824.694 1.22-3.884 3.002-7.66 5.876-12.759 5.308-4.074-.281-7.535-3.461-7.838-7.439-.21-.85.55-3.11.72-4.455.545-.064.954-.163.743-.492 1.78-.995 4.138-1.163 5.76-1.364 1.585-.152 3.78-.53 4.613-.899 9.14-6.585 9.583-11.483 9.352-15.23-.096-1.55 2.623-4.254 4.075-5.877 2.585-4.41-3.904-6.878-7.431-6.687-2.514.257-4.826 1.394-7.02 2.576-1.28-1.238-3.108-1.584-4.797-1.919-1.254-5.815 2.118-6.081 5.345-5.47 3.18.03 3.931.873 6.934 2.1-1.899-3.755-5.424-5.246 4.63-9.912 2.135-.731 4.146.444 6.292 1.187 3.288 1.286 1.704 2.893 5.002 4.216-1.013-1.557.976-1.256-.524-2.315 4.195-4.686 8.793-5.812 13.026-5.446zm-26.69 16.772c5.488 1.501.702 8.098-1.626 10.338 4.555 3.223-2.27 11.46-6.814 14.984-1.158.52-3.13-.343-4.225-.66-3.19 1.728-6.836 2.182-10.398 2.495 2.173-2.248 4.247-5.108 5.15-8.035-.821-.444-.012.21-.816-.24-2.024 3.163-5.154 5.701-8.027 8.296a130.96 130.96 0 01-2.285-.062c-2.379-.257-4.858-.497-7-1.652-8.217-8.277 3.893-19.57 11.453-23.411 3.244-1.953 10.66-3.814 13.707-.385-.836.304-1.36.638-.39 1.12 3.232-.43 8.204-3.103 11.272-2.788zm78.506 10.128c.386 4.616-3.04 5.662-4.36 6.183-.87-1.647-2.6-2.519-4.126-3.446 3.194-.98 5.446-2.343 8.486-2.737zm-81.19-8.684c-1.33-.177-2.838.417-3.988 1.506l.154.286c1.77-.812 4.322-.7 4.638 1.21-.302 1.012-.272.755-.867 1.626l-.134.305c.591-.883 3.823-.305 2.715-2.975-.567-1.219-1.483-1.82-2.518-1.958zM26.898 45.64c-1.759-.01-3.136 1.32-1.946 3.025 1.222 1.027 2.829 1.33 4.226 2.059 1.623.377 2.025-1.739 2.44-2.466-.785-1.37-2.892-2.233-4.72-2.618zm61.27 29.678c1.091 2.307 4.995 4 7.94 4.955.709 3.349-1.575 6.895-1.76 10.172 1.251 3.667-3.454 3.283-5.266 4.114-1.458-5.215-1.521-10.563-.628-15.032-.884-.423-.839-.65-1.722-1.062-.117.293.837-1.592 1.437-3.147zm18.17 4.008c.327 3.049 3.143 7.74 2.4 9.714-2.336.3-6.025 1.019-8.283 1.646-.106-2.624-1.764-7.734-2.175-10.717 2.671.631 5.555.481 8.057-.643zm-59.33-3.6c1.785 2.773 3.861 4.761 6.43 6.122.55 4.243-.245 9.475-.98 13.56-2.25.22-4.499.511-6.763.514.433-3.938.676-7.896.897-11.85.13-1.713.322-3.42.704-5.097-.598-.452-.759-2.222-.288-3.25zm-2.082 2.891c-.273 2.113.131 1.888.036 4.015-.51.553-4.057 9.874-4.567 11.35-.494-.302-.98-.62-1.425-.996-2.17-1.134-4.603-1.631-6.995-2.006-2.511-3.42 1.262-6.192 3.157-8.605 4.032.292 6.931-.913 9.794-3.758zm64.935 12.347c-.571 2.426 2.647 6.022-2.112 7.203-1.477-.655-1.988-2.227-2.039-3.726-3.78-1.212-2.336 3.657-6.116 2.943-.745-6.222 2.213-4.109 2.414-5.013 2.108-.594 5.666-1.2 7.853-1.407zM95.52 94.246c.32 2.186 3.38 7.102.668 6.425-.909-1.022-2.31-2.287-3.781-1.96-1.652 1.075-.908 5.287-3.668 4.455-.452-1.7-.61-4.914-.78-6.79 4.69-1.456 5.69-1.605 7.56-2.13zm-61.788-1.44c1.843.217 3.685.55 5.431 1.195-.652 1.794.167 4.963-1.818 5.734-.75.455-2.897-.592-2.389-1.59.109-1.576-1.903-1.996-3.053-2.454-2.01 2.373-6.25 3.996-3.722.287 1.688-1.453 3.35-2.89 5.551-3.173zm19.754 4.618c-1.95 5.786-.484 10.014-4.704 3.13-1.659-.488-4.406 2.941-5.948 3.416-.48.125-1.34-2.385 2.006-3.574.399-.79.524-2.377-.305-3.1.546-.216 1.444.003 1.86.404 2.347.305 4.734-.148 7.091-.276z"/></svg>