<svg xmlns="http://www.w3.org/2000/svg" width="400pt" height="400pt"><metadata/><defs><filter id="a"><feGaussianBlur stdDeviation="6.576"/></filter></defs><path d="M166.378 68.843c3.597 0 35.974-23.983 88.737-26.38 71.948-8.395 101.927 38.372 101.927 38.372-2.398 5.995 49.164-37.174 79.143-33.576 32.377 4.796 45.568 19.186 41.97 49.164-2.398 19.187-22.784 27.58-27.58 37.174 2.398 4.796 28.779 20.386 28.779 62.356s-26.381 64.753-25.182 64.753c1.199 0 26.38 41.97 7.195 67.152-19.186 25.182-73.148 1.2-81.542-3.597-8.394 2.398-8.394 19.186-32.377 22.784-23.983 3.597-53.961-7.195-53.961-7.195l-11.991-9.593 129.507 135.502L221.538 337.45c-15.588 4.797-11.991 8.394-56.36 13.19-37.173 0-28.78-7.194-40.77-11.991-14.39 9.593-73.148 22.785-92.335-13.19-15.588-45.567 8.395-56.36 13.191-64.754-4.796-10.792-20.385-28.78-17.987-62.355 0-43.17 10.792-64.754 20.385-71.95-4.796-9.592-23.982-47.965 17.987-71.948 69.55-17.987 99.53 15.59 100.729 14.39z" fill-opacity=".498" fill-rule="evenodd" filter="url(#a)"/><path d="M151.815 54.28c3.597 0 35.974-23.983 88.737-26.381 71.948-8.394 101.927 38.372 101.927 38.372-2.398 5.996 49.164-37.173 79.143-33.576 32.377 4.797 45.568 19.187 41.97 49.165-2.398 19.187-22.784 27.58-27.58 37.174 2.398 4.796 28.779 20.386 28.779 62.356s-26.381 64.753-25.182 64.753c1.199 0 26.38 41.97 7.195 67.152-19.186 25.182-73.148 1.2-81.542-3.597-8.394 2.398-8.394 19.186-32.377 22.784-23.983 3.597-53.961-7.195-53.961-7.195l-11.991-9.593L396.44 451.196 206.975 322.888c-15.588 4.797-11.991 8.394-56.36 13.19-37.173 0-28.78-7.194-40.77-11.991-14.39 9.593-73.148 22.785-92.335-13.19-15.589-45.567 8.394-56.36 13.19-64.754-4.796-10.792-20.384-28.78-17.986-62.355 0-43.17 10.792-64.754 20.385-71.95-4.796-9.592-23.983-47.965 17.987-71.948 69.55-17.987 99.53 15.59 100.729 14.39z" fill="#fff" fill-rule="evenodd" stroke="#000" stroke-width="10" stroke-linejoin="round"/><metadata/></svg>