<?xml version="1.0" encoding="UTF-8"?>
<svg width="400pt" height="400pt" xmlns="http://www.w3.org/2000/svg">
 <defs>
  <filter id="a">
   <feGaussianBlur stdDeviation="5.907"/>
  </filter>
 </defs>
 <path d="m177.83 71.015c3.597 0 35.974-23.982 88.737-26.38 71.948-8.395 101.93 38.371 101.93 38.371-2.398 5.996 49.164-37.174 79.143-33.576 32.377 4.796 45.568 19.186 41.97 49.164-2.398 19.187-22.784 27.581-27.58 37.174 2.398 4.796 28.78 20.386 28.78 62.356s-26.382 64.753-25.183 64.753c1.2 0 26.381 41.97 7.195 67.152s-73.148 1.2-81.542-3.597c-8.394 2.398-13.32 47.474-119.18 52.271-87.336 0-124.25-33.085-136.24-37.882-14.39 9.593-73.148 22.785-92.335-13.19-15.589-45.567 8.394-56.36 13.19-64.754-4.796-10.792-20.385-28.779-17.986-62.355 0-43.17 10.792-64.754 20.385-71.949-4.796-9.593-23.983-47.966 17.987-71.948 69.55-17.987 99.53 15.589 100.73 14.39z" fill-opacity=".498" fill-rule="evenodd" filter="url(#a)"/>
 <path d="m158.29 57.516c3.597 0 35.974-23.982 88.737-26.38 71.948-8.395 101.93 38.372 101.93 38.372-2.398 5.995 49.164-37.174 79.143-33.576 32.377 4.796 45.568 19.186 41.97 49.164-2.398 19.187-22.784 27.581-27.58 37.174 2.398 4.796 28.779 20.386 28.779 62.356s-26.381 64.753-25.182 64.753 26.381 41.97 7.195 67.152-73.148 1.2-81.542-3.597c-8.394 2.398-13.32 47.474-119.18 52.271-87.336 0-124.25-33.085-136.24-37.882-14.39 9.593-73.148 22.785-92.334-13.19-15.589-45.567 8.394-56.36 13.19-64.754-4.796-10.792-20.385-28.779-17.987-62.355 0-43.17 10.793-64.754 20.386-71.949-4.797-9.593-23.983-47.966 17.987-71.948 69.55-17.988 99.529 15.588 100.73 14.39z" fill="#fff" fill-rule="evenodd" stroke="#000" stroke-linejoin="round" stroke-width="10"/>
</svg>
