<svg xmlns="http://www.w3.org/2000/svg" width="400pt" height="400pt"><metadata/><defs><filter id="a"><feGaussianBlur stdDeviation="6.406"/></filter></defs><path d="M260.407 28.813C143.853 32.034 26.712 93.26 23.61 212.907c1.61 56.82 33.53 97.264 79.883 122.437-21.023 5.059-37.888 16.552-38.486 34.625.299 8.261 4.6 14.85 11.399 19.813-8.494.76-16.473 4.756-16.7 12.344.492 15.026 36.492 13.493 37.23-1.407-.007-.817-.167-1.552-.368-2.28 35.779 8.86 89.38-2.874 91.005-32.595-.01-1.142-.15-2.228-.306-3.312C320.734 383.49 488.1 323.598 493.712 192.657c-.776-112.285-116.75-167.065-233.305-163.844z" fill-opacity=".498" fill-rule="evenodd" filter="url(#a)"/><path d="M481.015 178.085c-9.31 217.208-463.89 239.296-470.097 20.248 6.206-239.296 468.545-244.817 470.097-20.248z" font-size="12" fill="#fff" fill-rule="evenodd" stroke="#000" stroke-width="10" stroke-linejoin="round"/><path d="M174.879 351.282c-2.427 44.382-120.95 48.896-122.567 4.138 1.618-48.896 122.162-50.024 122.567-4.138z" font-size="12" fill="#fff" fill-rule="evenodd" stroke="#000" stroke-width="10" stroke-linejoin="round"/><path d="M84.242 386.164c-.738 14.9-36.745 16.415-37.236 1.389.491-16.415 37.113-16.794 37.236-1.389z" font-size="12" fill="#fff" fill-rule="evenodd" stroke="#000" stroke-width="10" stroke-linejoin="round"/><metadata/></svg>