<svg xmlns="http://www.w3.org/2000/svg" width="400pt" height="400pt"><metadata/><defs><filter id="a"><feGaussianBlur stdDeviation="6.534"/></filter></defs><path d="M261.215 25.577C145.064 28.798 28.329 90.023 25.236 209.67c2.716 96.185 91.59 145.845 191.214 152.937-4.976 5.259-8.028 11.616-8.275 19.125.696 19.346 23.166 29.461 48.643 31.156-.812 1.407-1.352 2.965-1.405 4.75.49 15.027 36.366 13.494 37.1-1.406-.018-2.32-.93-4.24-2.35-5.844 21.583-4.836 39.235-15.92 40.153-32.78-.082-9.354-5.3-16.655-13.313-22.095 92.829-19.74 172.866-76.114 176.709-166.093-.773-112.285-116.346-167.065-232.497-163.844z" fill-opacity=".498" fill-rule="evenodd" filter="url(#a)"/><path d="M479.366 178.085C470.09 395.293 17.081 417.381 10.897 198.333c6.184-239.296 466.923-244.817 468.47-20.248z" font-size="12" fill="#fff" fill-rule="evenodd" stroke="#000" stroke-width="10" stroke-linejoin="round"/><path d="M315.975 366.282c-2.42 44.382-120.53 48.896-122.143 4.138 1.612-48.896 121.74-50.024 122.143-4.138z" font-size="12" fill="#fff" fill-rule="evenodd" stroke="#000" stroke-width="10" stroke-linejoin="round"/><path d="M278.172 404.914c-.734 14.9-36.617 16.415-37.107 1.389.49-16.415 36.985-16.794 37.107-1.389z" font-size="12" fill="#fff" fill-rule="evenodd" stroke="#000" stroke-width="10" stroke-linejoin="round"/><metadata/></svg>