<svg xmlns="http://www.w3.org/2000/svg" width="400pt" height="400pt"><metadata/><defs><filter id="a"><feGaussianBlur stdDeviation="6.406"/></filter></defs><path d="M260.12 23.959C143.55 20.737 27.561 75.518 26.785 187.802c5.613 130.942 173 190.834 306.486 169.875-.156 1.085-.297 2.17-.307 3.313 1.626 29.72 55.234 41.454 91.017 32.594-.201.728-.36 1.464-.367 2.281.737 14.9 36.742 16.433 37.234 1.406-.227-7.588-8.207-11.584-16.702-12.344 6.8-4.963 11.101-11.55 11.4-19.812-.598-18.073-17.467-29.566-38.49-34.625 46.358-25.173 78.282-65.617 79.892-122.438C493.845 88.405 376.69 27.18 260.12 23.96z" fill-opacity=".498" fill-rule="evenodd" filter="url(#a)"/><path d="M10.92 182.94c9.31 217.207 463.949 239.296 470.156 20.248C474.869-36.108 12.47-41.63 10.919 182.939z" font-size="12" fill="#fff" fill-rule="evenodd" stroke="#000" stroke-width="10" stroke-linejoin="round"/><path d="M317.094 356.137c2.428 44.382 120.965 48.895 122.583 4.137-1.618-48.895-122.178-50.024-122.583-4.137z" font-size="12" fill="#fff" fill-rule="evenodd" stroke="#000" stroke-width="10" stroke-linejoin="round"/><path d="M407.743 391.018c.737 14.9 36.749 16.416 37.24 1.39-.491-16.416-37.117-16.795-37.24-1.39z" font-size="12" fill="#fff" fill-rule="evenodd" stroke="#000" stroke-width="10" stroke-linejoin="round"/><metadata/></svg>