<svg xmlns="http://www.w3.org/2000/svg" width="400pt" height="400pt"><metadata/><defs><filter id="a"><feGaussianBlur stdDeviation="6.73"/></filter></defs><path d="M89.69 40.064l336.96 2.398c20.813.148 56.056 5.474 63.554 34.775 8.661 38.533 11.547 211.948-2.399 238.63-10.281 21.522-19.828 28.699-29.977 34.775-30.065 14.443-170.28 11.99-170.28 11.99l131.906 100.73-195.46-101.928H78.898c-20.36 0-38.979-12.803-45.568-40.771C21.86 269.88 19.626 127.45 30.932 94.025 41.646 63.487 59.652 39.85 89.69 40.064z" fill-opacity=".498" fill-rule="evenodd" filter="url(#a)"/><path d="M76.745 28.737l336.96 2.398c20.813.148 56.056 5.474 63.554 34.775 8.661 38.533 11.547 211.948-2.399 238.631-10.281 21.521-19.828 28.698-29.977 34.774-30.065 14.443-170.28 11.991-170.28 11.991l131.906 100.729-195.46-101.928-145.096.001c-20.36 0-38.979-12.804-45.568-40.772C8.915 258.553 6.681 116.123 17.988 82.698c10.714-30.538 28.72-54.175 58.758-53.961z" fill="#fff" fill-rule="evenodd" stroke="#000" stroke-width="10" stroke-linejoin="round"/><metadata/></svg>