<svg xmlns="http://www.w3.org/2000/svg" width="400pt" height="400pt"><metadata/><defs><filter id="a"><feGaussianBlur stdDeviation="6.622"/></filter></defs><path d="M89.69 43.3l336.96 2.398c20.813.149 56.056 5.474 63.554 34.775 8.661 38.533 11.547 211.948-2.399 238.631-10.281 21.521-19.828 28.698-29.977 34.774-30.065 14.443-170.28 11.991-170.28 11.991l-21.584 86.34-41.97-87.539-145.096.001c-20.36 0-38.979-12.804-45.568-40.772-11.471-50.783-13.704-193.213-2.398-226.638 10.714-30.538 28.72-54.175 58.758-53.96z" fill-opacity=".498" fill-rule="evenodd" filter="url(#a)"/><path d="M76.745 28.737l336.96 2.398c20.813.148 56.056 5.474 63.554 34.775 8.661 38.533 11.547 211.948-2.399 238.631-10.281 21.521-19.828 28.698-29.977 34.774-30.065 14.443-170.28 11.991-170.28 11.991l-21.584 86.339-41.97-87.538-145.096.001c-20.36 0-38.979-12.804-45.568-40.772C8.915 258.553 6.681 116.123 17.988 82.698c10.714-30.538 28.72-54.175 58.758-53.961z" fill="#fff" fill-rule="evenodd" stroke="#000" stroke-width="10" stroke-linejoin="round"/><metadata/></svg>