<svg xmlns="http://www.w3.org/2000/svg" width="400pt" height="400pt"><metadata/><defs><filter id="a"><feGaussianBlur stdDeviation="6.868"/></filter></defs><path d="M253.273 30.84C144.113 32.596 47.828 93.438 27.386 179.748 4.023 278.387 88.522 373.109 216.01 391.184l1.279-.062.7.562-2.892.094 181.075 85.125-73.398-89.719c88.176-19.472 149.993-72.14 166.524-141.937 23.362-98.64-61.167-193.362-188.656-211.438a302.763 302.763 0 00-47.37-2.968zm69.045 356.376h.274v.468l-.274-.468z" font-size="12" fill-opacity=".498" fill-rule="evenodd" filter="url(#a)"/><path d="M240.663 22.75C131.502 24.504 35.217 85.347 14.775 171.656-8.587 270.296 75.91 365.018 203.4 383.094l1.279-.063.7.563-2.892.094 181.076 85.125-73.399-89.72c88.177-19.472 149.993-72.14 166.524-141.937 23.363-98.64-61.167-193.362-188.656-211.437a302.763 302.763 0 00-47.37-2.969zm69.045 356.375h.274v.469l-.274-.469z" font-size="12" fill="#fff" fill-rule="evenodd" stroke="#000" stroke-width="10" stroke-linejoin="round"/><metadata/></svg>