<svg xmlns="http://www.w3.org/2000/svg" width="400pt" height="400pt"><metadata/><defs><filter id="a"><feGaussianBlur stdDeviation="6.923"/></filter></defs><path d="M257.44 30.84C148.26 32.596 51.96 93.438 31.514 179.748 8.157 278.346 92.596 373.022 220.02 391.153c.027.152-.018.377-.03.594l-.731.031-99.292 92.344 204.003-95.844-2.01.063 1.31-1 2.923-.094-2.223 1.031 2.802-.094v-.968h.03c88.273-19.445 150.16-72.131 166.704-141.97 23.367-98.639-61.177-193.36-188.687-211.437a302.865 302.865 0 00-47.378-2.968z" font-size="12" fill-opacity=".498" fill-rule="evenodd" filter="url(#a)"/><path d="M241.674 22.75c-109.18 1.754-205.48 62.597-225.926 148.906-23.357 98.6 61.082 193.276 188.505 211.406.027.152-.018.377-.03.594l-.731.031-99.292 92.344 204.003-95.844-2.01.063 1.31-1 2.923-.094-2.223 1.031 2.802-.093v-.969h.03c88.273-19.445 150.16-72.131 166.704-141.969 23.367-98.64-61.177-193.362-188.688-211.437a302.865 302.865 0 00-47.377-2.969z" font-size="12" fill="#fff" fill-rule="evenodd" stroke="#000" stroke-width="10" stroke-linejoin="round"/><metadata/></svg>