<svg xmlns="http://www.w3.org/2000/svg" width="400pt" height="400pt"><metadata/><defs><filter id="a"><feGaussianBlur stdDeviation="6.896"/></filter></defs><path d="M253.302 32.459C143.418 34.213 46.495 95.055 25.918 181.365 2.4 280.005 87.459 374.727 215.793 392.802l1.256-.03c-.041.233.034.329-.03.562l-2.145.062 60.033 85.688 47.5-89.25-4.26.156c.135-.005 2.696-.125 2.696-.125l1.686-1 .398-.031-.52 1 .673-.032v-.968h.031c88.843-19.445 151.13-72.131 167.78-141.969 23.517-98.64-61.572-193.362-189.906-211.438a306.759 306.759 0 00-47.683-2.968z" font-size="12" fill-opacity=".498" fill-rule="evenodd" filter="url(#a)"/><path d="M240.608 22.75C130.724 24.504 33.8 85.347 13.223 171.656c-23.517 98.64 61.542 193.362 189.876 211.438l1.256-.031c-.041.233.034.329-.03.562l-2.146.063 60.033 85.687 47.5-89.25-4.26.156c.136-.005 2.697-.125 2.697-.125l1.685-1 .399-.031-.521 1 .674-.031v-.969h.03c88.843-19.445 151.13-72.131 167.781-141.969 23.517-98.64-61.572-193.362-189.906-211.437a306.759 306.759 0 00-47.683-2.969z" font-size="12" fill="#fff" fill-rule="evenodd" stroke="#000" stroke-width="10" stroke-linejoin="round"/><metadata/></svg>