<svg xmlns="http://www.w3.org/2000/svg" width="400pt" height="400pt"><metadata/><defs><filter id="a"><feGaussianBlur stdDeviation="5.81"/></filter></defs><path d="M274.764 333.767l84.17 26.684c15.59-14.389 29.98-29.978 45.567-40.77 20.386 5.995 73.148 19.185 81.542 22.782l-20.385-68.35 31.177-55.16-31.177-52.763 14.39-76.745-79.144 21.584-63.554-41.97-79.144 53.962-74.347-49.165-56.36 50.364-82.74-14.39 34.775 69.55-40.77 64.754 40.77 41.97-25.182 82.741 76.744-32.377 46.768 49.165 96.9-51.866z" fill-opacity=".498" fill-rule="evenodd" filter="url(#a)"/><path d="M259.984 313.83l84.17 26.684c15.589-14.389 29.979-29.978 45.567-40.771 20.386 5.996 73.148 19.186 81.542 22.783l-20.385-68.35 31.177-55.161-31.177-52.762 14.389-76.745-79.143 21.584-63.554-41.97-79.144 53.962-74.347-49.165-56.36 50.364-82.74-14.39 34.775 69.55-40.771 64.754 40.77 41.97-25.181 82.741 76.744-32.377 46.768 49.165 96.9-51.866z" fill="#fff" fill-rule="evenodd" stroke="#000" stroke-width="10" stroke-linejoin="round"/><metadata/></svg>