<svg xmlns="http://www.w3.org/2000/svg" width="400pt" height="400pt"><metadata/><defs><filter id="a"><feGaussianBlur stdDeviation="6.592"/></filter></defs><path d="M234.844 324.318l224.24 161.885L297.2 321.92l77.944 32.377c13.19-20.385 20.385-23.983 32.376-38.373 20.386 5.996 73.148 19.186 81.542 22.783l-20.385-68.35 31.177-55.16-31.177-52.763 14.39-76.745-79.144 21.584-63.554-41.97-79.144 53.962L186.878 70.1l-56.36 50.364-82.74-14.39 34.775 69.55-40.77 64.754 40.77 41.97-25.182 82.741 76.744-32.377 52.763 47.966 47.966-56.36z" fill-opacity=".498" fill-rule="evenodd" filter="url(#a)"/><path d="M217.045 308.137l224.24 161.885-161.884-164.283 77.944 32.377c13.19-20.385 20.385-23.983 32.376-38.373 20.386 5.996 73.148 19.186 81.542 22.783l-20.385-68.35 31.177-55.161-31.177-52.762 14.389-76.745-79.143 21.584-63.554-41.97-79.144 53.962-74.347-49.165-56.36 50.364-82.74-14.39 34.775 69.55-40.771 64.754 40.77 41.97-25.181 82.741 76.744-32.377 52.763 47.966 47.966-56.36z" fill="#fff" fill-rule="evenodd" stroke="#000" stroke-width="10" stroke-linejoin="round"/><metadata/></svg>