<?xml version="1.0" encoding="UTF-8"?>
<svg width="400pt" height="400pt" xmlns="http://www.w3.org/2000/svg">
 <defs>
  <filter id="a">
   <feGaussianBlur stdDeviation="7.125"/>
  </filter>
 </defs>
 <path d="m329.31 300.78 73.375 49.05-51.44-83.255 100.79 22.912-59.677-51.55h111.4l-103.44-31.506 91.505-39.99-77.05-16.125 39.93-49.35-62.925 9.22 23.128-62.704-59.982 38.897-14.1-57.782-42.633 51.786c0-3.597-25.025-51.051-26.351-51.051s-25.793 50.084-25.793 50.084l-44.652-46.254-11.206 54.416-41.827-46.591s-0.915 52.051-3.567 52.051-63.338-32.271-63.338-32.271 14.562 59.281 14.562 60.713-65.844-10.326-65.844-10.326l54.226 42.76-57.462 19.514s48.166 36.207 46.84 37.639-42.583 37.824-42.583 37.824 73.535-1.791 72.21-1.791c-0.147 1.199-70.313 54.543-70.313 55.975 0 1.431 76.347-19.082 76.347-19.082l-51.442 74.533 85.775-60.446-11.046 66.803 43.458-42.389 16.973 44.053 34.92-39.524 196.01 174.77-154.92-175.47 64.848 26.905-4.707-52.448z" fill-opacity=".498" fill-rule="evenodd" filter="url(#a)"/>
 <path d="m307.02 286.21 73.375 49.05-51.44-83.254 100.79 22.912-59.678-51.551h111.4l-103.44-31.505 91.505-39.99-77.05-16.125 39.93-49.35-62.925 9.22 23.128-62.704-59.982 38.896-14.099-57.78-42.634 51.784c0-3.596-25.025-51.05-26.35-51.05-1.327 0-25.794 50.084-25.794 50.084l-44.652-46.255-11.206 54.416-41.827-46.592s-0.914 52.052-3.566 52.052-63.338-32.271-63.338-32.271 14.561 59.281 14.561 60.713-65.844-10.326-65.844-10.326l54.227 42.76-57.463 19.515s48.167 36.207 46.84 37.639c-1.326 1.432-42.582 37.824-42.582 37.824s73.534-1.791 72.208-1.791c-0.146 1.199-70.312 54.543-70.312 55.974 0 1.432 76.347-19.081 76.347-19.081l-51.441 74.532 85.775-60.446-11.046 66.803 43.457-42.389 16.973 44.053 34.92-39.525 196.01 174.77-154.92-175.47 64.849 26.905-4.708-52.449z" fill="#fff" fill-rule="evenodd" font-size="12" stroke="#000" stroke-linejoin="round" stroke-width="10"/>
</svg>
