<svg xmlns="http://www.w3.org/2000/svg" width="400pt" height="400pt"><metadata/><defs><filter id="a"><feGaussianBlur stdDeviation="7.107"/></filter></defs><path d="M320.592 299.102l57.295 53.845L351.57 260.1l99.506 22.913-58.919-51.551h109.98l-102.124-31.505 90.341-39.99-76.07-16.126 39.423-49.35-62.125 9.22 22.834-62.704-59.219 38.897-13.92-57.781-42.092 51.785c0-3.597-24.706-51.05-26.015-51.05-1.31 0-25.466 50.084-25.466 50.084l-44.083-46.255-11.064 54.416-41.295-46.592s-.903 52.052-3.521 52.052S85.209 54.29 85.209 54.29s14.376 59.282 14.376 60.713c0 1.432-65.007-10.326-65.007-10.326l53.537 42.761-56.731 19.513s47.553 36.208 46.244 37.64c-1.31 1.431-42.041 37.824-42.041 37.824s72.6-1.792 71.29-1.792c-.144 1.2-69.417 54.543-69.417 55.975 0 1.432 75.376-19.082 75.376-19.082l-50.788 74.534 84.684-60.446-17.898 65.603 49.897-41.19-13.538 35.66 64.77-31.131-160.71 178.37 201.285-179.069 24.406 43.694 25.648-64.44z" fill-opacity=".498" fill-rule="evenodd" filter="url(#a)"/><path d="M297.007 287.775l57.294 53.846-26.316-92.848 99.505 22.913-58.918-51.551h109.98L376.428 188.63l90.34-39.99-76.07-16.125 39.424-49.351-62.125 9.22 22.833-62.703-59.218 38.896-13.92-57.781L275.6 62.58c0-3.597-24.707-51.05-26.016-51.05-1.309 0-25.465 50.084-25.465 50.084L180.035 15.36l-11.063 54.416-41.295-46.592s-.903 52.052-3.522 52.052c-2.618 0-62.532-32.271-62.532-32.271S76 102.245 76 103.678c0 1.431-65.006-10.326-65.006-10.326l53.537 42.76-56.732 19.513s47.554 36.208 46.245 37.64C52.733 194.696 12 231.089 12 231.089s72.6-1.791 71.29-1.791c-.143 1.199-69.417 54.542-69.417 55.974 0 1.432 75.376-19.082 75.376-19.082l-50.788 74.534 84.685-60.446-17.898 65.603 49.897-41.19-13.538 35.66 64.77-31.13-160.71 178.368 201.285-179.067 24.406 43.693 25.648-64.44z" font-size="12" fill="#fff" fill-rule="evenodd" stroke="#000" stroke-width="10" stroke-linejoin="round"/><metadata/></svg>