<?xml version="1.0" encoding="UTF-8"?>
<svg width="400pt" height="400pt" xmlns="http://www.w3.org/2000/svg">
 <defs>
  <filter id="a">
   <feGaussianBlur stdDeviation="6.999"/>
  </filter>
 </defs>
 <path d="m316.66 307.19 69.825 52.646-38.453-91.648 100.77 22.913-59.669-51.552h111.38l-103.42-31.505 91.491-39.99-77.039-16.125 39.926-49.35-62.916 9.22 23.124-62.704-59.972 38.897-14.098-57.782-42.627 51.787c0-3.597-25.021-51.051-26.347-51.051s-25.79 50.085-25.79 50.085l-44.644-46.256-11.205 54.417-41.82-46.592s-0.915 52.051-3.566 52.051c-2.652 0-63.328-32.271-63.328-32.271s14.559 59.281 14.559 60.713-65.834-10.326-65.834-10.326l54.218 42.761-57.453 19.513s48.159 36.207 46.833 37.639-42.577 37.824-42.577 37.824 73.524-1.79 72.198-1.79c-0.146 1.198-70.301 54.542-70.301 55.974 0 1.431 76.335-19.082 76.335-19.082l-51.434 74.531 85.762-60.445-18.125 65.603 50.531-41.19 2.811 44.053 49.074-39.524 35.495 157.98 12.676-156.28 35.338 26.905 8.273-50.05z" fill-opacity=".498" fill-rule="evenodd" filter="url(#a)"/>
 <path d="m299.15 289.39 69.825 52.647-38.453-91.648 100.77 22.912-59.669-51.551h111.38l-103.42-31.505 91.49-39.99-77.038-16.125 39.926-49.35-62.916 9.22 23.124-62.704-59.972 38.896-14.098-57.781-42.627 51.785c0-3.597-25.021-51.05-26.347-51.05s-25.79 50.084-25.79 50.084l-44.644-46.255-11.205 54.416-41.82-46.592s-0.915 52.052-3.566 52.052c-2.652 0-63.329-32.271-63.329-32.271s14.56 59.28 14.56 60.713c0 1.431-65.834-10.326-65.834-10.326l54.218 42.76-57.454 19.514s48.16 36.207 46.833 37.639c-1.325 1.432-42.576 37.824-42.576 37.824s73.524-1.791 72.198-1.791c-0.146 1.199-70.301 54.542-70.301 55.974s76.335-19.081 76.335-19.081l-51.434 74.533 85.762-60.446-18.125 65.603 50.531-41.189 2.811 44.053 49.074-39.525 35.495 157.98 12.676-156.28 35.338 26.905 8.273-50.05z" fill="#fff" fill-rule="evenodd" font-size="12" stroke="#000" stroke-linejoin="round" stroke-width="10"/>
</svg>
