<svg xmlns="http://www.w3.org/2000/svg" width="400pt" height="400pt"><metadata/><defs><filter id="a"><feGaussianBlur stdDeviation="6.272"/></filter></defs><path d="M316.22 307.193l69.379 52.646-38.207-91.648 100.128 22.913-59.286-51.552H498.9L396.14 208.047l90.905-39.99-76.546-16.125 39.67-49.35-62.513 9.22 22.976-62.704-59.589 38.897-14.007-57.782L294.68 82c0-3.597-24.86-51.051-26.178-51.051-1.317 0-25.625 50.085-25.625 50.085l-44.359-46.256-11.133 54.417-41.553-46.592s-.908 52.051-3.543 52.051c-2.635 0-62.923-32.271-62.923-32.271s14.466 59.281 14.466 60.713c0 1.432-65.413-10.326-65.413-10.326l53.872 42.761-57.087 19.513s47.851 36.207 46.534 37.639c-1.317 1.432-42.304 37.824-42.304 37.824s73.053-1.79 71.736-1.79c-.145 1.198-69.852 54.542-69.852 55.974 0 1.431 75.847-19.082 75.847-19.082L56.06 360.14l85.214-60.445-18.01 65.603 50.209-41.19 2.793 44.053 48.76-39.524 28.939 64.132 18.924-62.432L308 357.243l8.22-50.05z" fill-opacity=".498" fill-rule="evenodd" filter="url(#a)"/><path d="M297.234 289.393l69.379 52.647-38.207-91.648 100.128 22.912-59.287-51.551h110.668l-102.763-31.505 90.906-39.99-76.546-16.125 39.67-49.35-62.514 9.22 22.977-62.704-59.59 38.896-14.006-57.781-42.355 51.785c0-3.597-24.861-51.05-26.178-51.05-1.318 0-25.625 50.084-25.625 50.084l-44.359-46.255-11.133 54.416-41.553-46.592s-.909 52.052-3.543 52.052c-2.635 0-62.924-32.271-62.924-32.271s14.467 59.28 14.467 60.713c0 1.431-65.413-10.326-65.413-10.326l53.871 42.76-57.086 19.514s47.851 36.207 46.534 37.639c-1.318 1.432-42.304 37.824-42.304 37.824s73.053-1.791 71.736-1.791c-.145 1.199-69.852 54.542-69.852 55.974 0 1.432 75.847-19.081 75.847-19.081l-51.105 74.533 85.214-60.446-18.01 65.603 50.209-41.189 2.792 44.053 48.76-39.525 30.522 54.424 17.342-52.723 35.111 26.905 8.22-50.05z" font-size="12" fill="#fff" fill-rule="evenodd" stroke="#000" stroke-width="10" stroke-linejoin="round"/><metadata/></svg>