<svg xmlns="http://www.w3.org/2000/svg" width="128" height="128"><metadata/><g fill-rule="evenodd"><path d="M59.031 17.344c-4.503 1.555-9.47-2.203-13.828 1.347-9.38 6.227-8.538 19.35-10.172 29.309-3.283 1.987-.793 6.417-3.312 9.125 1.33 5.158-4.225 4.833-7.969 5.625-6.81 1.633-14.651.209-20.531 4.594.97 11.44 14.124 15.448 23.453 18.208 25.753 6.393 53.143 7.603 79.243 2.584 8.034-1.781 19.847-5.28 19.46-15.448-1.84-9.778-14.074-12.205-22.438-10.344-4.264-10.027-2.797-21.352-6.468-31.563-6.614-14.084-23.885-15.738-37.438-13.437z"/><path d="M99.813 63.125c-19.778 6.183-67.274 8.68-91.313 3.688-1.665.368-2.854.818-3.094 1.5.68 24.112 112.437 28.189 117.531 7.812 3.057-7.981-8.339-15.11-22.093-11.375-.383-.135-.731-.742-1.031-1.625z" fill="#4c2200"/><path d="M66.781 18.5c-5.774.26-10.415 1.368-11.625 1.75-1.188-.68-2.904-2.044-7.281-.656C37.149 22.385 37.863 45.789 35.937 57.5c20.471-1.507 43.37-.27 63.126 2.469-1.394-7.856-2.033-23.09-4.313-28.157-5.519-11.78-18.346-13.745-27.969-13.312z" fill="#632d00"/><path d="M46.314 60.526c-5.87.102-9.908.41-10.673.962a4.407 4.407 0 01-.629.353c-.075.215-.139.475-.22.667-8.899 3.9-27.884 3.515-29.152 5.457 31.615 10.086 92.146-1.19 96.792-3.488.774-3.417-42.263-4.194-56.118-3.951z" fill="#b16f37"/><path d="M46.314 60.054c-5.87.103-9.908.411-10.673.963a4.407 4.407 0 01-.629.353c-.075.214-.139.475-.22.667-8.899 3.899-24.135 3.431-28.319 5.374 35.102 9.88 98.658-3.934 95.793-3.156.19-3.25-42.097-4.443-55.952-4.2z" fill="#8e4000"/><path d="M49.567 19.416c9.283 7.585-.962 28.924-4.754 33.452-6.793 9.51 22.754 8.83 20.886.85-9.679-4.416-9.849-16.133-9.51-31.755-1.563-1.677-3.735-.51-6.622-2.547z" fill="#371800"/><path d="M35.473 50.107c19.471-13.867 47.773-.522 63 5.308 1.11 1.093 3.859 8.273 3.15 8.146-13.57-2.222-54.44-3.886-67.516-1.169-.594.255-1.166-5.34.39-6.53 1.843-1.583-.135-4.381.976-5.755z"/><path d="M62.306 31.506C60.1 11.541 88.186 19.55 88.204 37.768c-3.778-10.51-21.176-18.752-25.898-6.262zM49.719 21.344c-4.564.276-9.828 13.812-8.383 13.437 2.428-7.646 9.721-14.5 10.135-4.618.847-2.757 1.417-7.389-1.752-8.82z" fill="#512400"/></g></svg>