<svg width="400pt" height="400pt" xmlns="http://www.w3.org/2000/svg" xmlns:xlink="http://www.w3.org/1999/xlink"><defs><linearGradient id="b"><stop offset="0" stop-color="#fff" stop-opacity=".175"/><stop offset="1" stop-color="#fff" stop-opacity=".375"/></linearGradient><linearGradient id="a"><stop offset="0" stop-opacity=".408"/><stop offset="1" stop-opacity="0"/></linearGradient><linearGradient xlink:href="#a" id="c" x1=".485" y1=".511" x2=".412" y2=".602"/><linearGradient xlink:href="#b" id="d" x1=".507" y1=".123" x2=".327" y2="1.096"/><linearGradient xlink:href="#b" id="e"/></defs><g fill-rule="evenodd"><path d="M93.858 201.903c2.914-12.972 5.827-102.336 32.05-100.895C219.14 103.891 315.285 7.32 385.21 222.082c215.6 100.894 14.991 181.97-155.692 174.763-168.657-7.06-312.657-128.64-135.66-194.942z" font-size="12" fill="#1f3379" fill-opacity=".992" stroke="#000" stroke-width="10" stroke-linejoin="round"/><path d="M89.488 230.73c107.8 67.743 285.525 25.944 292.81-7.207 10.196 11.53 0 43.24 0 43.24-46.617 60.537-272.415 47.565-297.18 4.324-2.914-11.53 2.913-36.033 4.37-40.357z" font-size="12" stroke="#000" stroke-width="5"/><path d="M130.277 122.628c27.679-24.503 148.59 10.09 164.614 28.827 5.828 31.71-148.59 7.207-164.614-28.827z" fill="url(#c)"/><path d="M130.277 158.662c13.111 30.269 64.098 100.895 150.047 33.151-71.381 2.883-101.973-5.765-150.047-33.15z" fill="url(#d)"/><path d="M160.87 99.567c18.937 8.648 138.392 41.799 151.503 31.71 14.567-5.766 11.654-8.649 4.37-10.09-11.654 7.207-32.049 11.53-155.874-21.62z" fill="url(#e)"/><path d="M106.97 246.584c17.48 8.649 71.38 20.18 91.775 21.62 14.568 10.09 7.284 25.945 1.457 37.476-39.333 0-84.492-10.09-96.146-23.062-7.284-12.972-4.37-23.061 2.913-36.034z" font-size="12" fill="#fff" fill-opacity=".317" stroke="#000" stroke-width="2.504"/></g></svg>