<?xml version="1.0" encoding="UTF-8"?>
<svg width="320" height="320" xmlns="http://www.w3.org/2000/svg" xmlns:xlink="http://www.w3.org/1999/xlink">
 <defs>
  <linearGradient id="a">
   <stop stop-color="#fff" stop-opacity=".175" offset="0"/>
   <stop stop-color="#fff" stop-opacity=".375" offset="1"/>
  </linearGradient>
  <linearGradient id="g" x1=".331" x2=".728" y1=".018" y2=".455">
   <stop stop-opacity=".408" offset="0"/>
   <stop stop-opacity="0" offset="1"/>
  </linearGradient>
  <linearGradient id="f" x1=".419" x2=".739" y1=".193" y2=".754" xlink:href="#a"/>
  <linearGradient id="e" x1=".36" x2=".529" y1=".066" y2=".789" xlink:href="#a"/>
 </defs>
 <path d="M191.971 79.948a16.914 16.914 0 00-4.906 1C145.6 98.737 102.964 78.567 86.378 97.542c-10.92 12.49-16.898 37.715-19.875 53.937l-.25.063c-.16.883-.27 2.071-.407 3.125-1.018 5.886-1.647 10.341-1.78 11.437-30.796 13.452-65.29 60.29-45.22 53.594 45.02-36.764 214.634-67.52 264.188-62.969 5.468-5.671-10.51-11.624-48.531-21.406 1.211-10.247-19.733-56.557-42.532-55.375z" fill-opacity=".039" fill-rule="evenodd"/>
 <path d="M194.704 80.667a16.914 16.914 0 00-4.906 1C148.332 99.455 105.696 79.286 89.11 98.26c-10.919 12.492-16.897 37.716-19.875 53.938l-.25.062c-.16.884-.27 2.072-.406 3.125-1.019 5.887-1.647 10.342-1.781 11.438-30.796 13.451-65.289 60.29-45.22 53.594 45.021-36.764 214.635-67.52 264.188-62.97 5.468-5.67-10.51-11.623-48.531-21.405 1.212-10.247-19.732-56.557-42.531-55.375z" fill-opacity=".039" fill-rule="evenodd"/>
 <path d="M197.612 82.12a16.914 16.914 0 00-4.907 1c-41.466 17.79-84.1-2.38-100.687 16.594-10.92 12.492-16.897 37.716-19.875 53.938l-.25.062c-.16.884-.27 2.072-.406 3.125-1.019 5.887-1.647 10.342-1.782 11.438-30.795 13.451-65.288 60.29-45.218 53.594 45.02-36.764 214.634-67.52 264.187-62.97 5.468-5.67-10.51-11.623-48.531-21.405 1.212-10.247-19.732-56.557-42.531-55.375z" fill-opacity=".039" fill-rule="evenodd"/>
 <path d="M201.489 82.605a16.914 16.914 0 00-4.906 1c-41.466 17.79-84.101-2.38-100.688 16.594-10.919 12.491-16.897 37.715-19.875 53.938l-.25.062c-.16.883-.27 2.071-.406 3.125-1.018 5.886-1.647 10.342-1.781 11.438-30.796 13.451-65.289 60.29-45.22 53.593 45.021-36.763 214.635-67.52 264.188-62.968 5.468-5.672-10.51-11.624-48.53-21.407 1.21-10.246-19.733-56.556-42.532-55.375z" fill-opacity=".039" fill-rule="evenodd"/>
 <path d="M205.85 83.575a16.914 16.914 0 00-4.905 1c-41.466 17.788-84.102-2.381-100.688 16.593-10.919 12.492-16.897 37.716-19.875 53.938l-.25.062c-.16.884-.27 2.072-.406 3.125-1.019 5.886-1.647 10.342-1.781 11.438-30.796 13.451-65.289 60.29-45.22 53.594 45.021-36.764 214.635-67.52 264.188-62.97 5.468-5.67-10.51-11.623-48.531-21.405 1.212-10.247-19.732-56.557-42.531-55.375z" fill-opacity=".039" fill-rule="evenodd"/>
 <path d="M125.36 111.27c31.846-3.65 52.51.957 68.919 12.41" fill="none" stroke="#000" stroke-width="1.264"/>
 <path d="m186.54 75.92a16.808 16.808 0 0 0-4.887 1.008c-41.466 17.788-84.117-2.372-100.7 16.602-15.872 18.158-21.806 64.493-22.302 68.546-30.796 13.451-65.298 60.3-45.228 53.603 45.02-36.763 214.62-67.533 264.18-62.982 5.468-5.67-10.504-11.614-48.525-21.396 1.212-10.247-19.733-56.564-42.532-55.382z" fill="#005d00" fill-rule="evenodd" stroke="#000" stroke-width="1.264"/>
 <path d="m58.624 162.02c32.306-9.668 108.08-25.765 170.08-30.566-0.948-4.469-0.588-4.987-1.758-9.025-25.484-2.371-126.27 15.235-166.12 25.074-0.88 4.84-1.32 13.198-2.198 14.517z" fill-opacity=".992" fill-rule="evenodd"/>
 <path d="m163.99 129.94s30.288-6.022 34.909-4.647c2.997 2.73 1.707 5.668-0.666 7.335-3.997 1.667-27.478 4.752-32.515 4.918-2.331-0.105-4.059-5.605-1.728-7.606z" fill="#fff" fill-opacity=".483" fill-rule="evenodd"/>
 <path transform="translate(158.78 198.26)" d="m1.613-111.3c-10.623 5.889-68.152 26.516-76.637 22.149-9.044-1.993-7.959-5.914-3.74-7.189 7.418 2.957 9.27 11.257 80.377-14.96z" fill="url(#e)" fill-rule="evenodd"/>
 <path transform="translate(158.78 198.26)" d="m37.972-105.3c-5.649 16.832-18.18 41.28-73.914 25.442 41.218-4 48.646-12.038 73.914-25.442z" fill="url(#f)" fill-rule="evenodd"/>
 <path transform="translate(158.78 198.26)" d="M35-111.475c-21.213-6.944-64.122 12.785-72.31 23.767.53 12.232 64.9-7.658 72.31-23.767z" fill="url(#g)" fill-rule="evenodd"/>
</svg>
