<?xml version="1.0" encoding="UTF-8"?>
<svg width="400pt" height="400pt" xmlns="http://www.w3.org/2000/svg" xmlns:xlink="http://www.w3.org/1999/xlink">
 <defs>
  <radialGradient id="b" cx=".34" cy=".328" r=".281">
   <stop stop-color="#fff" stop-opacity=".467" offset="0"/>
   <stop stop-color="#fff" stop-opacity=".108" offset="1"/>
  </radialGradient>
 </defs>
 <g fill-rule="evenodd">
  <path d="m479.63 251.64a230.32 229.37 0 1 0-460.63 0 230.32 229.37 0 1 0 460.63 0h-230.32z" fill="#00f" font-size="12"/>
  <path d="m118.72 81.156c-56.036 77.88-71.232 35.141-56.986 78.83 14.247 43.689-23.744 76.93 27.543 42.74 51.287-34.192 39.89-81.68 82.63-45.59 42.739 36.092 87.377-8.547 63.633 49.388-23.744 57.936 11.398 142.46 42.74 42.74 31.342-99.725-42.74-46.539-12.347-118.72 30.392-72.182 76.93-88.328 21.844-100.68-75.03 37.99-106.37 84.528-136.76 60.784s-30.392-8.547-32.292-9.497zm286.83 107.32c-10.448 66.483-4.75 89.277-38.94 84.528-34.192-4.748-62.685-17.095-37.991 31.342 24.694 48.438 84.529 7.599 52.237 56.986-32.292 49.388-7.598 57.935-76.93 82.63-69.333 24.693-48.439 36.09-41.79 37.04 46.538-1.9 202.3-38.94 217.5-216.54-33.242-132.02-73.132-74.082-74.082-75.981zm-321.97 189.95c15.196-26.593 18.045-39.89 37.04-26.593 18.996 13.297 4.75 8.548 39.89 22.795 35.142 14.246 26.594-24.694 47.488 2.849 20.895 27.543-5.698 24.694-13.296 49.387-7.598 24.694-57.936 27.544-57.936 16.146 0-11.397-39.89 4.75-53.186-64.583z" fill="#00bd00"/>
  <path d="m267.83 69.759c-9.497-8.548-49.387 46.538-82.629 44.638-33.241-1.9-40.84-1.9-71.232 8.548s-40.84 60.785-15.196 52.237c7.598-31.342 68.383-56.036 95.926-44.639s42.739 34.192 54.136 42.74c-2.85-62.685 1.9-63.634 18.995-103.52zm-160.51 311.52c10.447 8.548 26.593 27.543 40.84 13.297 37.99-1.9 56.035-15.197 43.689 4.748-39.89 4.75-8.548 32.292-44.64 36.091-6.648-6.648-66.482-39.89-39.89-54.136zm324.82-165.26c-0.949 22.794 36.092 85.478 0 83.579-36.09-1.9-56.035-11.397-53.186 0.95 2.85 12.346 46.538 9.497 46.538 33.241s-43.689 77.88-62.684 94.976-54.136 25.644-63.634 36.09c142.46-3.798 221.29-231.74 132.97-248.84z" fill="#b77719"/>
  <path transform="matrix(1.0475 0 0 1.05 -36.719 -19.064)" d="m492.92 257.81a219.87 218.44 0 1 0-439.74 0 219.87 218.44 0 1 0 439.74 0h-219.87z" fill="url(#b)" font-size="12"/>
 </g>
</svg>
