<?xml version="1.0" encoding="UTF-8"?>
<svg width="400pt" height="400pt" xmlns="http://www.w3.org/2000/svg" xmlns:xlink="http://www.w3.org/1999/xlink">
 <defs>
  <radialGradient id="b" cx=".34" cy=".328" r=".281">
   <stop stop-color="#fff" stop-opacity=".467" offset="0"/>
   <stop stop-color="#fff" stop-opacity=".108" offset="1"/>
  </radialGradient>
 </defs>
 <path d="m479.63 251.64a230.32 229.37 0 1 0-460.63 0 230.32 229.37 0 1 0 460.63 0h-230.32z" fill="#00f" fill-rule="evenodd" font-size="12"/>
 <path d="m118.72 81.156c-56.036 77.88-71.232 35.141-56.986 78.83 14.247 43.689-23.744 76.93 27.543 42.74 51.287-34.192 39.89-81.68 82.63-45.59 42.739 36.092 87.377-8.547 63.633 49.388-23.744 57.936 11.398 142.46 42.74 42.74 31.342-99.725-42.74-46.539-12.347-118.72 30.392-72.182 76.93-88.328 21.844-100.68-75.03 37.99-106.37 84.528-136.76 60.784s-30.392-8.547-32.292-9.497zm286.83 107.32c-10.448 66.483-4.75 89.277-38.94 84.528-34.192-4.748-62.685-17.095-37.991 31.342 24.694 48.438 84.529 7.599 52.237 56.986-32.292 49.388-7.598 57.935-76.93 82.63-69.333 24.693-48.439 36.09-41.79 37.04 46.538-1.9 202.3-38.94 217.5-216.54-33.242-132.02-73.132-74.082-74.082-75.981zm-321.97 189.95c15.196-26.593 18.045-39.89 37.04-26.593 18.996 13.297 4.75 8.548 39.89 22.795 35.142 14.246 26.594-24.694 47.488 2.849 20.895 27.543-5.698 24.694-13.296 49.387-7.598 24.694-57.936 27.544-57.936 16.146 0-11.397-39.89 4.75-53.186-64.583z" fill="#00bd00" fill-rule="evenodd"/>
 <path transform="matrix(1.0475 0 0 1.05 -36.719 -19.064)" d="m492.92 257.81a219.87 218.44 0 1 0-439.74 0 219.87 218.44 0 1 0 439.74 0h-219.87z" fill="url(#b)" fill-rule="evenodd" font-size="12"/>
</svg>
