<?xml version="1.0" encoding="UTF-8"?>
<svg width="400pt" height="400pt" xmlns="http://www.w3.org/2000/svg" xmlns:xlink="http://www.w3.org/1999/xlink">
 <defs>
  <linearGradient id="b" x1="1" x2="1.167" y1=".531" y2=".539" spreadMethod="repeat">
   <stop offset="0"/>
   <stop stop-color="#fff" offset="1"/>
  </linearGradient>
 </defs>
 <g fill-rule="evenodd" stroke="#000" stroke-linejoin="round" stroke-width="10">
  <path d="M254.747 53.006s5.538-3.956 10.285-3.956c3.955.792 8.702 2.374 9.493 4.747.792 2.374 1.583 340.981 1.583 341.773 0 .791-3.957-6.33-11.076-6.33-5.539.791-6.329 1.583-12.658 5.539-6.33 3.956 3.164-340.19 2.373-341.773z" fill="#00005b"/>
  <path d="m275.32 54.589c-0.791 0 0.791 337.82 1.582 339.4 0.791-0.791 204.9-21.36 204.9-21.36l-1.582-333.86-204.9 15.823z" fill="#122466"/>
  <path d="m475.48 41.14s-60.918 7.12-80.697 18.195c-34.809 14.24-51.424 12.659-90.189 4.747-36.393-10.285-36.393-7.12-36.393-7.12l-3.955 12.658 88.607 30.855 117.09-44.304 5.538-15.032z" fill="#d0d6d8"/>
  <path transform="matrix(.96565 0 0 .96676 9.104 12.652)" d="m265.03 57.753c-0.791 0 56.171 17.405 88.607 17.405 32.437 0 40.208-13.259 73.464-24.552 28.34-12.112 46.026-11.321 46.026-11.321l-1.61 324.01s-38.425-15.386-73.235 6.274c-34.811 11.841-83.725 16.534-108.9 13.559-16.161-2.155-24.354-13.612-24.354-13.612v-311.76z" fill="#f2f2f2"/>
  <path d="m464.4 361.55 11.076-11.076-0.791-308.54-7.912 9.494-2.373 310.13z" fill="url(#b)"/>
  <path d="m253.96 54.589c0.79 0-0.791 337.82-1.582 339.4-0.791-0.791-204.9-21.36-204.9-21.36l1.581-333.86 204.9 15.823z" fill="#122466"/>
  <path d="m53.798 41.14s60.918 7.12 80.697 18.195c34.809 14.24 51.424 12.659 90.189 4.747 36.393-10.285 36.393-7.12 36.393-7.12l3.955 12.658-88.607 30.855-117.09-44.304-5.537-15.032z" fill="#d0d6d8"/>
  <path transform="matrix(-.96565 0 0 .96676 520.17 12.652)" d="m265.03 57.753c-0.791 0 56.171 17.405 88.607 17.405 32.437 0 40.208-13.259 73.464-24.552 28.34-12.112 46.026-11.321 46.026-11.321l-1.61 324.01s-38.425-15.386-73.235 6.274c-34.811 11.841-83.725 16.534-108.9 13.559-16.161-2.155-24.354-13.612-24.354-13.612v-311.76z" fill="#f2f2f2"/>
  <path transform="matrix(-1 0 0 1 529.27 0)" d="m464.4 361.55 11.076-11.076-0.791-308.54-7.912 9.494-2.373 310.13z" fill="url(#b)"/>
 </g>
</svg>
