<svg width="400pt" height="400pt" xmlns="http://www.w3.org/2000/svg" xmlns:xlink="http://www.w3.org/1999/xlink"><defs><linearGradient id="a"><stop offset="0"/><stop offset="1" stop-color="#fff"/></linearGradient><linearGradient xlink:href="#a" id="b" x1=".508" y1="1.077" x2=".508" y2="1.038" gradientUnits="objectBoundingBox" spreadMethod="repeat"/><linearGradient xlink:href="#a" id="c" x1="1.222" y1=".461" x2="1.167" y2=".461" gradientUnits="objectBoundingBox" spreadMethod="repeat"/></defs><g fill-rule="evenodd"><path d="M126.582 38.766l299.05 1.582 2.375 386.868L125 428.798l1.582-390.032z" fill="#122466" stroke="#000" stroke-width="10" stroke-linejoin="round"/><path d="M128.956 38.766c-10.285-1.583-58.545 4.747-58.545 37.183 8.703 31.646 63.292-10.284 64.083-20.57.791-10.284-5.538-17.404-5.538-16.613z" fill="#12242b" stroke="#000" stroke-width="10" stroke-linejoin="round"/><path d="M71.203 64.873c-12.659 4.747-11.867 379.747-7.12 390.032 4.746 10.285 3.955 10.285 3.955 10.285l3.165-390.823v-9.494z" fill="#122466" stroke="#000" stroke-width="10" stroke-linejoin="round"/><path d="M125.791 42.721l281.646 3.956s-15.031 7.12-30.064 11.867c-11.076 6.33-25.316 18.988-25.316 18.196L76.74 74.367S80.697 62.5 96.52 53.797C113.924 43.513 125 43.513 125.791 42.721z" fill="url(#b)" stroke="#000" stroke-width="10" stroke-linejoin="round"/><path d="M408.228 45.886v373.418c-.791.791-15.823 0-27.69 7.912-11.076 4.746-22.943 24.525-26.899 30.063l-.791-382.12s21.361-18.988 27.69-19.78c6.329-.79 28.482-9.493 27.69-9.493z" transform="matrix(1 0 0 1.01923 0 -.882)" fill="url(#c)" stroke="#000" stroke-width="9.905" stroke-linejoin="round"/><path d="M71.203 75.158l299.05 1.582 2.374 386.868L69.62 465.19l1.582-390.032z" fill="#122466" stroke="#000" stroke-width="10" stroke-linejoin="round"/><path d="M167.721 458.86s184.922.615 194.416-5.714c9.494-6.329.205-253.779.205-253.779s31.645 264.24-194.62 259.494z" fill-opacity=".498"/></g></svg>