<?xml version="1.0" encoding="UTF-8"?>
<svg width="128" height="128" xmlns="http://www.w3.org/2000/svg" xmlns:xlink="http://www.w3.org/1999/xlink">
 <defs>
  <linearGradient id="h">
   <stop stop-color="#937541" offset="0"/>
   <stop stop-color="#524124" offset="1"/>
  </linearGradient>
  <linearGradient id="f">
   <stop stop-color="#d3b46b" offset="0"/>
   <stop stop-color="#ad9457" offset="1"/>
  </linearGradient>
  <linearGradient id="g">
   <stop stop-color="#c6a965" offset="0"/>
   <stop stop-color="#b79d5d" offset="1"/>
  </linearGradient>
  <linearGradient id="o" x1="438.71" x2="363.25" y1="123.37" y2="192.05" gradientTransform="matrix(.32351 0 0 .52463 -19.7 -8.36)" gradientUnits="userSpaceOnUse" xlink:href="#f"/>
  <linearGradient id="n" x1="112.91" x2="46.404" y1="318.34" y2="375.61" gradientTransform="matrix(.57191 0 0 .29676 -19.7 -8.36)" gradientUnits="userSpaceOnUse" xlink:href="#g"/>
  <linearGradient id="m" x1="202.97" x2="111.2" y1="274.57" y2="292.66" gradientTransform="matrix(.43839 0 0 .38715 -19.7 -8.36)" gradientUnits="userSpaceOnUse" xlink:href="#g"/>
  <linearGradient id="l" x1="527.32" x2="492.42" y1="150.89" y2="167.67" gradientTransform="matrix(.22886 0 0 .7416 -19.7 -8.36)" gradientUnits="userSpaceOnUse" xlink:href="#f"/>
  <linearGradient id="k" x1="326.82" x2="217.16" y1="130.02" y2="238.83" gradientTransform="matrix(.37875 0 0 .44811 -19.7 -8.36)" gradientUnits="userSpaceOnUse" xlink:href="#h"/>
  <linearGradient id="j" x1="235.61" x2="114.06" y1="116.75" y2="252.57" gradientTransform="matrix(.34386 0 0 .49358 -19.7 -8.36)" gradientUnits="userSpaceOnUse" xlink:href="#h"/>
 </defs>
 <path d="M67.897 35.477L17.617 58.22 1.43 93.973s11.748 1.495 17.061 2.357l.47 15.152 72.203 12.648 25.328-32.599.261-12.704 9.494-13.119-10.459-23.667-47.892-6.564z" fill="#79673d"/>
 <path d="M18.948 58.826c1.412-.941 49.121-22.85 49.121-22.85l2.41 54.895s-50.714 19.984-50.714 19.043c0-.942-.817-51.088-.817-51.088z" fill="url(#j)" fill-rule="evenodd"/>
 <path d="M115.09 43.02l-47.021-7.009 2.346 54.9 44.8.787-.126-48.678z" fill="url(#k)" fill-rule="evenodd"/>
 <g fill-rule="evenodd">
  <path d="m69.538 11.615 44.513 6.154v69.744l-43.077-3.487-1.436-72.41z" fill="#1b2b65"/>
  <path d="M65.026 16.333c2.39-.37 4.645-1.55 5.953-2.732l42.034 5.945-5.116 3.557-42.871-6.77z" fill="#efefef"/>
  <path d="m63.385 14.487 44.512 6.154v69.744l-43.076-3.488-1.436-72.41z" fill="#1b2b65"/>
  <path d="M107.623 20.707c2.931.193 4.645-.966 6.223-2.938v69.744l-6.154 2.872-.07-69.678z" fill="#1c2f6f"/>
  <path d="m51.282 16.744 54.154 6.153v69.744l-49.846-2.667-4.308-73.23z" fill="#1b6d65"/>
  <path d="M48.205 21.872c2.39-.37 3.21-1.756 4.517-2.938l51.675 5.74-5.115 3.557-51.077-6.36z" fill="#efefef"/>
  <path d="M44.103 19.41l55.179 6.36v69.743l-54.974-3.487-.205-72.616z" fill="#1b6d65"/>
  <path d="M99.007 25.835c2.932.194 4.645-.966 6.224-2.938v69.744l-6.154 2.872-.07-69.678z" fill="#1e7f75"/>
  <path d="M31.795 22.282l62.77 8.205v69.744L32 97.769l-.205-75.487z" fill="#ad2b65"/>
  <path d="M27.897 27.205c2.39-.37 4.85-1.14 6.159-2.322l59.47 7.38-5.116 3.558-60.513-8.616z" fill="#efefef"/>
  <path d="M24.41 25.77l64 7.589v69.744H25.436L24.41 25.769z" fill="#ad2b65"/>
  <path d="M88.135 33.425c2.932.193 4.646-.966 6.224-2.938v69.744l-6.154 2.872-.07-69.678z" fill="#c23071"/>
 </g>
 <path d="M90.66 68.1c1.413-1.883 24.456-24.915 24.456-24.915l-.044 48.397-24.534 31.245.123-54.727z" fill="url(#l)" fill-rule="evenodd"/>
 <path d="M18.62 58.918L91.131 68.1l-.47 54.854-70.864-12.477-1.177-51.559z" fill="url(#m)" fill-rule="evenodd"/>
 <path d="M18.62 58.849l.726 37.157c8.824 2.341 61.635 10.677 62.106 9.735.47-.942 9.749-37.766 9.749-36.865L18.62 58.849z" fill="#79673d" fill-rule="evenodd"/>
 <path d="m18.62 58.849-15.302 33.735s76.042 12.478 76.512 11.536 10.83-35.785 10.83-35.785l-72.04-9.485z" fill="url(#n)" fill-rule="evenodd"/>
 <path d="M90.716 70.011l9.874 32.42 15.023-21.863-.704-37.659-24.193 27.102z" fill="#79673d" fill-rule="evenodd"/>
 <path d="m90.536 68.03 10.954 30.44 23.307-32.489-9.888-23.072-24.373 25.122z" fill="url(#o)" fill-rule="evenodd"/>
</svg>
