<?xml version="1.0" encoding="UTF-8"?>
<svg width="400pt" height="400pt" xmlns="http://www.w3.org/2000/svg" xmlns:xlink="http://www.w3.org/1999/xlink">
 <defs>
  <linearGradient id="b" x1=".47" x2=".052" y1=".523" y2=".32" spreadMethod="reflect">
   <stop stop-color="#de9500" offset="0"/>
   <stop stop-color="#ffff0f" offset="1"/>
  </linearGradient>
 </defs>
 <g fill-rule="evenodd">
  <path d="m70.348 480.5s25.651 3.825 52.176-39.75c13.263-9.474 20.842-9.475 31.262-21.789 13.263-23.683 1.895-34.104-8.526-37.893-13.263 0-7.579-4.737-33.157 1.894-25.576 19.895-23.682 21.79-24.63 46.42 2.842 31.261-8.6 44.486-17.125 51.118z" stroke="#000" stroke-width="1pt"/>
  <path d="m155.68 298.65c16.105-73.89 231.15-283.25 231.15-283.25v0l0.948-0.947c-0.948 0-81.47 235.88-175.26 312.62-14.21-16.104-17.052-10.42-27.473-19.894-7.578-2.842-30.314-7.578-29.367-8.525z" fill="#8a6f1a" stroke="#000" stroke-linejoin="round" stroke-width="10"/>
  <g transform="translate(-9.153 8.01)" fill="url(#b)" stroke="#000" stroke-linejoin="round" stroke-width="10">
   <path d="m126.94 360.74c30.315-58.734 31.262-62.524 31.262-62.524s8.526-2.841 22.736-3.789c13.262 4.737 17.051 5.684 26.524 12.315 5.684 11.368 12.316 17.999 12.316 17.999l-47.366 61.576s-17.999-25.577-45.472-25.577z"/>
   <path d="M121.257 371.164c.948 0 19.894 1.895 26.525 3.79 6.632 1.894 20.841 14.209 21.789 16.104.947 1.894 1.894 0 4.736 1.894 2.842 1.895 12.353-8.169 12.353-11.01-3.79-8.527-15.354-20.09-29.564-22.933-14.21-4.737-35.446-7.973-38.287-2.29-1.895 3.79-4.183 10.656-3.236 11.603.947.948 6.632 4.737 5.684 2.842zM158.757 302.6s12.708-1.894 23.129.948c8.526 1.894 14.96 2.84 23.487 11.367 4.737 6.632 6.236 14.408 12.867 14.408 6.632 0 10.065-5.525 10.065-11.209-1.895-5.684-6.631-11.368-14.21-18.946-7.579-5.684-19.894-10.421-31.261-14.21-11.369-.947-23.684-3.79-30.315 3.789-.948 4.737.948 8.526.948 8.526l5.29 5.328z"/>
  </g>
  <path d="m171.27 282.9c-4.737-20.841 165.35-213.86 196.61-240.39 31.26-26.525-179.56 207.23-179.56 244.18-1.895 1.895-18-2.842-17.052-3.79z" fill="#fff" fill-opacity=".348"/>
  <path d="M73.94 477.3s18.824-6.987 15.982-28.776c-2.842-21.788-.554-28.616 5.13-42.826 8.526-12.315 17.053-19.893 19.894-17.999 7.579 6.631-4.736 8.526-10.42 23.683s-5.328 24.63-9.118 41.682c-4.736 18-21.468 25.185-21.468 24.237z" fill="#fff"/>
 </g>
</svg>
