<svg width="400pt" height="400pt" xmlns="http://www.w3.org/2000/svg"><path d="M42.5 88.75h425l2.5 317.5H43.75L42.5 88.75z" fill="#797b90" fill-rule="evenodd" stroke="#000" stroke-width="10" stroke-linejoin="round"/><path d="M216.25 101.25l232.5 1.25v58.75h-232.5v-60z" fill="#acb0b4" fill-rule="evenodd" stroke="#000" stroke-width="10" stroke-linejoin="round"/><path d="M226.25 110H440v42.5H226.25V110z" fill="#acc5b4" fill-rule="evenodd" stroke="#000" stroke-width="10" stroke-linejoin="round"/><path d="M53.75 147.5h35v33.75h-35V147.5z" transform="matrix(1 0 0 .85185 25 63.102)" fill="#a8a8a8" fill-rule="evenodd" stroke="#000" stroke-width="10.835" stroke-linejoin="round"/><path d="M53.75 147.5h35v33.75h-35V147.5z" transform="matrix(1 0 0 .85185 76.25 63.102)" fill="#a8a8a8" fill-rule="evenodd" stroke="#000" stroke-width="10.835" stroke-linejoin="round"/><path d="M53.75 147.5h35v33.75h-35V147.5z" transform="matrix(1 0 0 .85185 127.5 64.352)" fill="#a8a8a8" fill-rule="evenodd" stroke="#000" stroke-width="10.835" stroke-linejoin="round"/><path d="M53.75 147.5h35v33.75h-35V147.5z" transform="matrix(1 0 0 .85185 183.75 64.352)" fill="#a8a8a8" fill-rule="evenodd" stroke="#000" stroke-width="10.835" stroke-linejoin="round"/><path d="M53.75 147.5h35v33.75h-35V147.5z" transform="matrix(1 0 0 .85185 237.5 63.102)" fill="#a8a8a8" fill-rule="evenodd" stroke="#000" stroke-width="10.835" stroke-linejoin="round"/><path d="M53.75 147.5h35v33.75h-35V147.5z" transform="matrix(1 0 0 .85185 291.25 64.352)" fill="#a8a8a8" fill-rule="evenodd" stroke="#000" stroke-width="10.835" stroke-linejoin="round"/><path d="M53.75 147.5h35v33.75h-35V147.5z" transform="matrix(1 0 0 .85185 343.75 63.102)" fill="#a8a8a8" fill-rule="evenodd" stroke="#000" stroke-width="10.835" stroke-linejoin="round"/><path d="M53.75 147.5h35v33.75h-35V147.5z" transform="matrix(1 0 0 .85185 25 116.852)" fill="#a8a8a8" fill-rule="evenodd" stroke="#000" stroke-width="10.835" stroke-linejoin="round"/><path d="M53.75 147.5h35v33.75h-35V147.5z" transform="matrix(1 0 0 .85185 76.25 116.852)" fill="#a8a8a8" fill-rule="evenodd" stroke="#000" stroke-width="10.835" stroke-linejoin="round"/><path d="M53.75 147.5h35v33.75h-35V147.5z" transform="matrix(1 0 0 .85185 127.5 118.102)" fill="#a8a8a8" fill-rule="evenodd" stroke="#000" stroke-width="10.835" stroke-linejoin="round"/><path d="M53.75 147.5h35v33.75h-35V147.5z" transform="matrix(1 0 0 .85185 183.75 118.102)" fill="#a8a8a8" fill-rule="evenodd" stroke="#000" stroke-width="10.835" stroke-linejoin="round"/><path d="M53.75 147.5h35v33.75h-35V147.5z" transform="matrix(1 0 0 .85185 237.5 116.852)" fill="#a8a8a8" fill-rule="evenodd" stroke="#000" stroke-width="10.835" stroke-linejoin="round"/><path d="M53.75 147.5h35v33.75h-35V147.5z" transform="matrix(1 0 0 .85185 291.25 118.102)" fill="#a8a8a8" fill-rule="evenodd" stroke="#000" stroke-width="10.835" stroke-linejoin="round"/><path d="M53.75 147.5h35v33.75h-35V147.5z" transform="matrix(1 0 0 .85185 343.75 116.852)" fill="#a8a8a8" fill-rule="evenodd" stroke="#000" stroke-width="10.835" stroke-linejoin="round"/><path d="M53.75 147.5h35v33.75h-35V147.5z" transform="matrix(1 0 0 .85185 25 170.602)" fill="#a8a8a8" fill-rule="evenodd" stroke="#000" stroke-width="10.835" stroke-linejoin="round"/><path d="M53.75 147.5h35v33.75h-35V147.5z" transform="matrix(1 0 0 .85185 76.25 170.602)" fill="#a8a8a8" fill-rule="evenodd" stroke="#000" stroke-width="10.835" stroke-linejoin="round"/><path d="M53.75 147.5h35v33.75h-35V147.5z" transform="matrix(1 0 0 .85185 127.5 171.852)" fill="#a8a8a8" fill-rule="evenodd" stroke="#000" stroke-width="10.835" stroke-linejoin="round"/><path d="M53.75 147.5h35v33.75h-35V147.5z" transform="matrix(1 0 0 .85185 183.75 171.852)" fill="#a8a8a8" fill-rule="evenodd" stroke="#000" stroke-width="10.835" stroke-linejoin="round"/><path d="M53.75 147.5h35v33.75h-35V147.5z" transform="matrix(1 0 0 .85185 237.5 170.602)" fill="#a8a8a8" fill-rule="evenodd" stroke="#000" stroke-width="10.835" stroke-linejoin="round"/><path d="M53.75 147.5h35v33.75h-35V147.5z" transform="matrix(1 0 0 .85185 291.25 171.852)" fill="#a8a8a8" fill-rule="evenodd" stroke="#000" stroke-width="10.835" stroke-linejoin="round"/><path d="M53.75 147.5h35v33.75h-35V147.5z" transform="matrix(1 0 0 .85185 343.75 170.602)" fill="#a8a8a8" fill-rule="evenodd" stroke="#000" stroke-width="10.835" stroke-linejoin="round"/><path d="M53.75 147.5h35v33.75h-35V147.5z" transform="matrix(1 0 0 .85185 25 221.852)" fill="#a8a8a8" fill-rule="evenodd" stroke="#000" stroke-width="10.835" stroke-linejoin="round"/><path d="M53.75 147.5h35v33.75h-35V147.5z" transform="matrix(1 0 0 .85185 76.25 221.852)" fill="#a8a8a8" fill-rule="evenodd" stroke="#000" stroke-width="10.835" stroke-linejoin="round"/><path d="M53.75 147.5h35v33.75h-35V147.5z" transform="matrix(1 0 0 .85185 127.5 223.102)" fill="#a8a8a8" fill-rule="evenodd" stroke="#000" stroke-width="10.835" stroke-linejoin="round"/><path d="M53.75 147.5h35v33.75h-35V147.5z" transform="matrix(1 0 0 .85185 183.75 223.102)" fill="#a8a8a8" fill-rule="evenodd" stroke="#000" stroke-width="10.835" stroke-linejoin="round"/><path d="M53.75 147.5h35v33.75h-35V147.5z" transform="matrix(1 0 0 .85185 237.5 221.852)" fill="#a8a8a8" fill-rule="evenodd" stroke="#000" stroke-width="10.835" stroke-linejoin="round"/><path d="M53.75 147.5h35v33.75h-35V147.5z" transform="matrix(1 0 0 .85185 291.25 223.102)" fill="#a8a8a8" fill-rule="evenodd" stroke="#000" stroke-width="10.835" stroke-linejoin="round"/><path d="M53.75 147.5h35v33.75h-35V147.5z" transform="matrix(1 0 0 .85185 343.75 221.852)" fill="#a8a8a8" fill-rule="evenodd" stroke="#000" stroke-width="10.835" stroke-linejoin="round"/><path d="M423.75 116.25L425 140M407.5 126.25h-15v-10h16.25L410 140h0M385 137.5h5M353.75 117.5h17.5v10h-15s1.25 12.5 0 12.5h16.25M317.5 116.25v12.5l18.75 1.25v13.75" fill="none" stroke="#000" stroke-width="10" stroke-linejoin="round"/><path d="M61.25 112.5l77.5 1.25M58.75 133.75L137.5 135" fill="none" stroke="#fff" stroke-width="12.5" stroke-linejoin="round"/><path d="M53.183 274.702c1.582-6.33-11.076-148.734 4.747-177.215 28.48-3.165 128.164-1.583 151.898 3.164-53.797 3.165-151.898-41.14-156.645 174.05z" fill="#fff" fill-opacity=".5" fill-rule="evenodd"/></svg>