<?xml version="1.0" encoding="UTF-8"?>
<svg width="400pt" height="400pt" xmlns="http://www.w3.org/2000/svg" xmlns:xlink="http://www.w3.org/1999/xlink">
 <defs>
  <linearGradient id="b" x1=".615" x2=".25" y1=".539" y2=".32" spreadMethod="reflect">
   <stop stop-color="#de9500" offset="0"/>
   <stop stop-color="#ffff0f" offset="1"/>
  </linearGradient>
 </defs>
 <g fill-rule="evenodd">
  <path d="m99.879 380.68-23.865 101.65 99.727-70.71s-8.687-60.104-75.862-30.936z" fill="#cca89d" stroke="#000" stroke-linejoin="round" stroke-width="10"/>
  <path d="m100.76 380.68 224.51-318.2s21.213-26.517 45.078-11.49c7.072 1.767 5.304 0 19.446 10.606 3.535 2.651 5.303 23.865 5.303 23.865s-220.97 326.15-220.97 327.04c0 0.883-3.536-19.446-22.981-30.053-17.678-10.606-49.497-0.883-50.381-1.767z" fill="#c96400" stroke="#000" stroke-linejoin="round" stroke-width="10"/>
  <path d="M75.13 483.206l7.955-31.82c0-.884 10.607-.884 14.142 3.536 3.536.884 4.42 7.955 4.42 7.955L75.13 483.206z" stroke="#000" stroke-width="1pt"/>
  <path d="m315.55 74.852 43.31-52.15s18.561-19.445 37.123-9.722c18.561 9.723 9.722 4.42 18.562 10.607 7.954 12.374-2.652 35.355-3.536 35.355s-36.239 58.337-36.239 58.337 8.838-10.607-6.188-18.562c-16.793-22.097-53.916-23.865-53.032-23.865z" fill="#fc64e3" stroke="#000" stroke-linejoin="round" stroke-width="10"/>
  <path d="M305.824 87.226c-.884 0 36.239-47.73 36.239-47.73s15.026-1.767 28.284 1.768c15.027 6.188 8.839 1.768 19.446 9.723 9.722 7.955 11.49 26.517 11.49 26.517l-28.284 44.194s.884-8.839-7.955-18.561c-14.142-11.491-28.285-13.259-37.123-16.795-12.375-1.767-22.981 1.768-22.097.884z" fill="url(#b)" stroke="#000" stroke-linejoin="round" stroke-width="10"/>
  <path d="m76.875 481.74c0-1.25 6.875-27.5 8.75-27.5s8.125 1.25 8.125 3.125c-10.625 6.25-15 22.5-16.875 24.375z" fill="#fff"/>
  <path d="m120.03 365.52c17.756-28.041 229.25-329.7 235.51-333.85 87.73-36.35-173.89 246.61-235.51 333.85z" fill="#fff" fill-opacity=".504"/>
  <path d="m91.54 448.82c0-2.544 7.938-45.246 13.025-59.66 1.696 0 31.102-12.992 40.429 2.272-33.068 5.087-51.758 50.605-53.454 57.388z" fill="#fff" fill-opacity=".502"/>
  <path d="m394.28 17.532s19.502 4.24 19.502 10.175c5.087 16.959-4.24 26.286-10.175 36.46 1.696-16.11 5.088-23.74-9.327-46.635z" fill-opacity=".25"/>
 </g>
</svg>
