<svg width="400pt" height="400pt" xmlns="http://www.w3.org/2000/svg"><path d="M12.723 111.042l475.292 13.632v220.833L12.723 369.136V111.042z" fill="#f3f3f3" fill-rule="evenodd" stroke="#000" stroke-width="10" stroke-linejoin="round"/><path d="M14.091 111.024L260 276.25l226.591-152.845" font-size="12" fill="none" stroke="#000" stroke-width="10" stroke-linejoin="round"/><path d="M12.5 368.75S185 225 185 226.25s0 0 0 0" font-size="12" fill="none" stroke="#000" stroke-width="10" stroke-linejoin="round"/><path d="M485.682 345.303L329.66 224.675" transform="matrix(1 0 0 .9826 0 6.391)" font-size="12" fill="none" stroke="#000" stroke-width="10" stroke-linejoin="round"/><g stroke="#000" stroke-width="10" stroke-linejoin="round" fill="none"><path d="M201.25 141.25l72.5.625M183.75 152.5h47.5M105 131.25h132.5M125 141.25h61.25M110 153.75h41.25"/><g><path d="M270 130l53.75-1.25M347.5 128.75h15M295 142.5c52.5-1.25 52.5-1.25 52.5 0M260 150l52.5 1.25"/></g></g><path d="M17.267 255.538c0-6.362-5.453-125.412 6.361-138.135 21.811-4.544 216.29 4.544 229.013 5.453-68.159 7.27-242.644-33.625-235.374 132.682z" fill="#fff" fill-opacity=".496" fill-rule="evenodd"/><path d="M395.32 345.507c10.905 0 85.425-3.635 87.243-7.27 1.817-3.635.908-56.344 0-70.885-2.727 12.723 3.635 67.25-87.243 78.155z" fill-opacity=".25" fill-rule="evenodd"/></svg>