<svg width="400pt" height="400pt" xmlns="http://www.w3.org/2000/svg"><path d="M177.5 471.25s-72.5-10-90-21.25-27.5-12.5-36.25-37.5c-2.5-27.5-10-41.25 0-60S85 317.5 100 301.25s167.5-127.5 177.5-132.5c5-1.25 17.5-11.25 38.75-15 20-2.5 38.75-6.25 65-6.25s55 8.75 71.25 13.75l16.25 5" transform="matrix(1.09013 0 0 1.12277 -42.914 -67.947)" fill="#88a3bd" fill-rule="evenodd" stroke="#000" stroke-width="11.299" stroke-linejoin="round"/><path d="M163.75 348.75c15-16.25 180-157.5 228.75-171.25s71.25-20 80-7.5 17.5 30 17.5 41.25-3.75 46.25-3.75 46.25-283.75 207.5-290 208.75-13.75 13.75-25-2.5-26.25-22.5-26.25-52.5c3.75-35 6.25-50 18.75-62.5z" transform="matrix(1.09013 0 0 1.12277 -42.914 -67.947)" fill="#6f93b4" fill-rule="evenodd" stroke="#000" stroke-width="11.299" stroke-linejoin="round"/><path d="M186.179 233.645c2.5 0 78.821 28.855 78.821 28.855s73.75-56.25 105-75c33.75-11.25 87.5-23.75 87.5-23.75s-57.5-18.75-75-17.5c-5 0-75 6.25-85 11.25-15 5-110.071 77.395-111.321 76.145z" transform="matrix(1.09013 0 0 1.12277 -42.914 -67.947)" fill="#ffa3bd" fill-rule="evenodd" stroke="#000" stroke-width="9.039" stroke-linejoin="round"/><path d="M265 263.75l92.5 87.5s79.37-57.773 128.647-93.613C495.837 233.047 490 215 488.75 205s-12.5-41.25-27.5-40c-22.5 0-68.75 10-101.25 25-30 21.25-97.5 76.25-95 73.75z" transform="matrix(1.09013 0 0 1.12277 -42.914 -67.947)" fill="#e19dae" fill-rule="evenodd" stroke="#000" stroke-width="9.039" stroke-linejoin="round"/><path d="M51.25 411.273l100.014 20.023L481.236 183.82S487.5 195 487.5 196.25s-331.25 250-331.25 250L56.25 425l-5-13.727z" transform="matrix(1.09013 0 0 1.12277 -42.914 -67.947)" fill="#fff" fill-rule="evenodd" stroke="#000" stroke-width="9.039" stroke-linejoin="round"/><path d="M150 435l7.5 12.5" transform="matrix(1.09013 0 0 1.12277 -42.914 -67.947)" fill="none" stroke="#000" stroke-width="9.039" stroke-linejoin="round"/><path d="M26.25 396.25c6.25-5 20-1.25 32.5-1.25s28.75 3.75 37.5 12.5 10 5 20 21.25S147.5 450 128.75 450s-67.5-10-76.25-17.5-11.25-3.75-23.75-18.75c-11.25-32.5-2.5-16.25-2.5-17.5z" fill-opacity=".25" fill-rule="evenodd"/><path d="M98.961 353.486c-30.845-2.57-64.26-6.426-80.968-20.563 5.14-14.138 125.95-116.954 125.95-116.954S6.426 330.352 98.961 353.486z" fill="#fff" fill-opacity=".5" fill-rule="evenodd"/></svg>