<?xml version="1.0" encoding="UTF-8"?>
<svg width="106.67" height="106.67" xmlns="http://www.w3.org/2000/svg" xmlns:xlink="http://www.w3.org/1999/xlink">
 <defs>
  <linearGradient id="c" x1="145.63" x2="145.63" y1="712.78" y2="772.32" gradientTransform="scale(1.8064 .55358)" gradientUnits="userSpaceOnUse">
   <stop stop-color="#fff" offset="0"/>
   <stop stop-color="#fff" stop-opacity="0" offset="1"/>
  </linearGradient>
  <radialGradient id="d" cx="124.36" cy="1082.2" r="54.578" fx="125.14" fy="1084" gradientTransform="scale(2.1759 .45958)" gradientUnits="userSpaceOnUse">
   <stop stop-color="#fff" stop-opacity="0" offset="0"/>
   <stop stop-color="#fff" stop-opacity=".68" offset="1"/>
  </radialGradient>
 </defs>
 <path d="m48.741 40.684 24.267 46.782 8.675 11.026-4.525-13.44-23.983-46.21-4.434 1.842z" fill="#9e9d9b" fill-rule="evenodd"/>
 <path d="M53.3 48.945L73.155 87.38l7.415 9.21-26.084-48.314-1.184.67z" fill="#fff" fill-rule="evenodd"/>
 <path d="M47.853 40.989c8.222 15.824 16.418 31.664 24.643 47.486 2.892 3.675 10.641 12.053 10.036 11.262-1.466-4.29-2.683-10.532-4.195-14.803-8.064-15.541-15.96-30.555-24.02-46.098-1.864.774-4.604 1.368-6.464 2.153zm1.74.634l3.272-1.364c7.9 15.244 16.018 29.074 23.891 44.33 1.11 3.293 2.22 7.634 3.33 10.927-2.157-2.787-4.584-5.164-6.684-7.99L49.593 41.623z" fill-rule="evenodd"/>
 <path d="M33.441 8.39c-11.529 5.718-18.946 14.267-16.557 19.085.469.947 1.315 1.65 2.41 2.166 1.478 1.974 3.52 4.875 4.878 7.753-3.244 4.31-4.463 8.485-2.903 11.631 3.352 6.76 18.207 6.225 33.158-1.188 14.95-7.414 24.368-18.915 21.016-25.674-1.678-3.384-6.257-4.888-12.276-4.648-1.877-2.111-3.564-4.542-4.34-7.17.349-1.32.343-2.544-.172-3.583-.066-.132-.164-.24-.243-.364.004-.037.002-.074.007-.112-.033-.033-.089-.046-.127-.075-2.981-4.18-13.798-3.3-24.85 2.18z" fill="#008200"/>
 <path transform="matrix(.25613 -.127 .1535 .30958 -92.66 -79.76)" d="M336.25 417.362a77.5 23.75 0 11-155 0 77.5 23.75 0 11155 0z" fill="url(#c)"/>
 <path d="m57.951 10.495c-3.27 6.28-11.14 11.373-18.565 14.79-3.712 1.709-7.438 2.921-10.659 3.503s-6.112 1.202-7.722 0.502l-0.325 0.45c2.027 0.882 4.92 0.88 8.272 0.274s7.165-1.844 10.962-3.592c7.595-3.495 15.137-9.001 18.622-15.694l-0.585-0.233zm4.738 7.881c-2.506 6.067-8.913 12.43-16.071 16.066-7.159 3.638-15.395 5.053-21.434 3.247l-0.176 0.326c6.517 1.95 14.819 1.284 22.18-2.457 7.363-3.74 13.288-10.397 15.965-16.881l-0.464-0.3z" fill-rule="evenodd"/>
 <path transform="rotate(-26.376 -128.31 124.13) scale(.25548)" d="m157.5 487.36c46.517 35.184 173.92 40.207 228.75-5-7.918 63.23-200.88 72.48-228.75 5z" fill="url(#d)" fill-rule="evenodd"/>
 <path d="M33.318 7.925c-6.102 3.12-12.112 7.114-15.858 12.992-1.55 2.425-2.725 7.535 1.64 8.645 2.004 1.084 1.442 2.85 2.695 4.672 1.144 1.725 3.071 2.859.997 4.516-1.966 3.184-3.748 8.343-1.326 11.637 2.839 3.657 7.885 4.03 12.208 3.91 9.836-.515 19.241-4.204 27.515-9.38 5.829-3.836 11.549-8.517 14.603-14.946 1.583-3.215 1.672-7.648-1.28-10.125-2.984-2.546-7.119-2.942-10.893-2.858-1.642-2.205-4.86-4.498-4.514-7.419.306-2.141-.12-4.18-1.902-5.187-4.068-2.133-8.928-1.32-13.219-.4-3.694.89-7.263 2.26-10.666 3.943zm.557 1.123c5.88-2.823 12.341-5.116 18.952-4.652 2.424.192 5.666 1.319 5.771 4.179-.57 1.79.167 3.49 1.055 5.035.965 1.61 2.18 2.967 3.608 4.168 1.873.215 3.697.34 5.575.824 3.148.49 6.617 2.584 6.794 6.09.149 4.59-2.908 9.003-5.867 12.213-7.037 7.167-16.147 11.94-25.707 14.847-5.773 1.598-12.078 2.411-17.918.494-2.832-.869-5.135-3.618-4.741-6.68.215-2.921 1.874-5.483 3.441-7.83 0-1.582-1.395-2.892-2.054-4.291-.972-1.456-1.718-3.16-2.897-4.449-2.401-.833-3.232-3.587-2.198-5.714 2.198-4.996 6.72-8.469 11.163-11.404a53.946 53.946 0 015.023-2.83z"/>
</svg>
