<svg xmlns="http://www.w3.org/2000/svg" xmlns:xlink="http://www.w3.org/1999/xlink" width="160" height="160"><defs><linearGradient id="a"><stop offset="0" stop-color="#fff" stop-opacity=".5"/><stop offset="1" stop-color="#fff" stop-opacity="0"/></linearGradient><linearGradient xlink:href="#a" id="c" x1=".035" y1=".859" x2=".816" y2=".047"/><linearGradient xlink:href="#a" id="b" x1="-.944" y1=".781" x2="4.111" y2=".375"/></defs><g fill-rule="evenodd"><path d="M98.82 62.146c-9.104 18.23-30.55 22.255-51.744 16.303-20.808-9.23-31.404-31.516-23.65-49.745 8.139-14.565 29.391-21.29 51.357-14.181 20.809 9.23 31.79 29.394 24.037 47.623z" fill="#eaffff"/><path d="M87.823 75.005c23.026-15.683 15.736-45.141-1.361-59.772-23.143-18.85-54.303-4.777-64.169 12.884C41.625-2.214 76.258 15.738 83.23 22.665c8.498 7.622 24.303 36.235 4.594 52.34z" fill="#7f7f7f" stroke="#000" stroke-width="2.5" stroke-linejoin="bevel"/><path d="M30.73 18.432c-22.496 14.851-17.814 44.56 3.944 60.794 24.182 17.168 39.276 4.605 53.819-4.677-23.177 14.619-39.64 4.523-48.503.114-12.043-6.73-29.03-33.722-9.26-56.23z" fill="#bfbfbf" stroke="#000" stroke-width="2.5" stroke-linejoin="bevel"/><path d="M22.758 27.919c-11.572 14.657-3.086 34.136 5.785 43.78 3.472-6.944-19.864-22.18-5.785-43.78z" fill="url(#b)"/><path d="M51.197 12.885C27.86 12.5 10.934 40.596 36.199 68.947c28.35-9.643-21.067-47.769 14.998-56.062z" fill="#fff"/><path d="M82.24 79.943c14.723 13.2 30.968 51.02 41.12 55.081 8.123 1.523 13.708-3.3 13.961-12.438-1.523-11.422-38.328-37.059-46.958-48.48-1.777.253-7.107 3.553-8.122 5.837z" fill="#442400" stroke="#000" stroke-width="2.5" stroke-linejoin="round"/><path d="M88.552 84.547c10.099 13.177 29.505 48.096 33.951 48.262.508-2.538 3.904-5.654 8.473-7.684-14.722-12.692-19.406-9.453-42.424-40.578z" fill="url(#c)"/><path d="M122.188 133.29c.09-2.75 6.022-9.73 14.318-8.13-2.03 5.33-4.673 12.953-14.318 8.13z" fill-opacity=".5"/></g></svg>