<svg width="400pt" height="400pt" xmlns="http://www.w3.org/2000/svg"><path d="M159.81 75.95c8.702-2.374 21.361-2.374 45.095-3.165 23.734-1.582 119.462-2.374 128.165 2.373 10.285 3.165 8.702 291.139 6.329 322.786-2.374 31.645-3.956 46.676-4.747 49.05-59.072 3.955-116.561 4.746-177.216-.001-4.747-26.107-15.822-326.74 2.374-371.044z" transform="matrix(1 0 0 1.07573 0 7.035)" fill="#4b537b" fill-rule="evenodd" stroke="#000" stroke-width="9.642" stroke-linejoin="round"/><path d="M174.177 107.595c15.032-.791 113.007 0 136.741 0 6.329 15.032 15.823 105.222 11.867 118.671-13.053.923-30.127 11.481-39.05 2.027-13.783-15.394-62.636-16.449-78.892-.395-9.552 8.969-25.452-1.368-38.704-2.423 0-43.249 1.709-78.587 8.038-117.88z" transform="matrix(1 0 0 1.07573 0 7.035)" fill="#807f7f" fill-rule="evenodd" stroke="#000" stroke-width="9.642" stroke-linejoin="round"/><path d="M184.335 124.209c-3.956 3.956-3.165 81.488 0 83.861 4.483 2.637 111.815 4.483 117.88.791 5.274-2.901 4.22-76.213 0-83.07-5.802-3.955-110.496-3.164-117.88-1.582z" transform="matrix(1 0 0 1.07573 0 7.035)" fill="#80a47f" fill-rule="evenodd" stroke="#000" stroke-width="9.642" stroke-linejoin="round"/><path d="M174.051 271.36c3.956-3.955 40.348-3.163 43.512-.79 3.956 5.538 2.373 30.854 0 32.436-2.637 3.165-40.084 3.165-43.513 0-2.373-5.802-1.581-28.217.001-31.646z" transform="matrix(1 0 0 .83844 -8.703 87.658)" fill="#807f7f" fill-rule="evenodd" stroke="#000" stroke-width="6.826"/><path d="M174.051 271.36c3.956-3.955 40.348-3.163 43.512-.79 3.956 5.538 2.373 30.854 0 32.436-2.637 3.165-40.084 3.165-43.513 0-2.373-5.802-1.581-28.217.001-31.646z" transform="matrix(1 0 0 .83844 48.26 87.658)" fill="#807f7f" fill-rule="evenodd" stroke="#000" stroke-width="6.826"/><path d="M174.051 271.36c3.956-3.955 40.348-3.163 43.512-.79 3.956 5.538 2.373 30.854 0 32.436-2.637 3.165-40.084 3.165-43.513 0-2.373-5.802-1.581-28.217.001-31.646z" transform="matrix(1 0 0 .83844 105.222 88.321)" fill="#807f7f" fill-rule="evenodd" stroke="#000" stroke-width="6.826"/><path d="M174.051 271.36c3.956-3.955 40.348-3.163 43.512-.79 3.956 5.538 2.373 30.854 0 32.436-2.637 3.165-40.084 3.165-43.513 0-2.373-5.802-1.581-28.217.001-31.646z" transform="matrix(1 0 0 .83844 -7.911 133.427)" fill="#807f7f" fill-rule="evenodd" stroke="#000" stroke-width="6.826"/><path d="M174.051 271.36c3.956-3.955 40.348-3.163 43.512-.79 3.956 5.538 2.373 30.854 0 32.436-2.637 3.165-40.084 3.165-43.513 0-2.373-5.802-1.581-28.217.001-31.646z" transform="matrix(1 0 0 .83844 49.05 133.427)" fill="#807f7f" fill-rule="evenodd" stroke="#000" stroke-width="6.826"/><path d="M174.051 271.36c3.956-3.955 40.348-3.163 43.512-.79 3.956 5.538 2.373 30.854 0 32.436-2.637 3.165-40.084 3.165-43.513 0-2.373-5.802-1.581-28.217.001-31.646z" transform="matrix(1 0 0 .83844 106.013 134.09)" fill="#807f7f" fill-rule="evenodd" stroke="#000" stroke-width="6.826"/><path d="M174.051 271.36c3.956-3.955 40.348-3.163 43.512-.79 3.956 5.538 2.373 30.854 0 32.436-2.637 3.165-40.084 3.165-43.513 0-2.373-5.802-1.581-28.217.001-31.646z" transform="matrix(1 0 0 .83844 -8.703 178.533)" fill="#807f7f" fill-rule="evenodd" stroke="#000" stroke-width="6.826"/><path d="M174.051 271.36c3.956-3.955 40.348-3.163 43.512-.79 3.956 5.538 2.373 30.854 0 32.436-2.637 3.165-40.084 3.165-43.513 0-2.373-5.802-1.581-28.217.001-31.646z" transform="matrix(1 0 0 .83844 48.26 178.533)" fill="#807f7f" fill-rule="evenodd" stroke="#000" stroke-width="6.826"/><path d="M174.051 271.36c3.956-3.955 40.348-3.163 43.512-.79 3.956 5.538 2.373 30.854 0 32.436-2.637 3.165-40.084 3.165-43.513 0-2.373-5.802-1.581-28.217.001-31.646z" transform="matrix(1 0 0 .83844 105.222 179.197)" fill="#807f7f" fill-rule="evenodd" stroke="#000" stroke-width="6.826"/><path d="M206.092 234.572c6.725-12.262 24.921-15.426 36.787-14.635 15.032 0 27.691.791 34.415 9.493 4.747 28.481 0 41.535-9.098 43.513-7.911 3.956-42.722 5.143-47.864 1.977-10.68-2.373-16.218-13.449-14.24-40.348z" transform="matrix(1 0 0 1.07573 0 7.035)" fill="#807f7f" fill-rule="evenodd" stroke="#000" stroke-width="6.026" stroke-linejoin="round"/><path d="M285.206 265.427c-.791-6.725 4.351-13.054 12.263-20.174 7.911-7.12 15.822-13.054 22.151-13.449 6.33-.396 16.615 7.911 16.615 13.053 0 6.725-3.561 10.285-10.682 18.988-12.262 13.845-18.987 16.219-23.734 15.427-5.933-1.187-16.217-7.911-16.613-13.845z" transform="matrix(1 0 0 1.07573 0 7.035)" fill="#807f7f" fill-rule="evenodd" stroke="#000" stroke-width="6.026"/><path d="M285.206 265.427c-.791-6.725 4.351-13.054 12.263-20.174 7.911-7.12 15.822-13.054 22.151-13.449 6.33-.396 16.615 7.911 16.615 13.053 0 6.725-3.561 10.285-10.682 18.988-12.262 13.845-18.987 16.219-23.734 15.427-5.933-1.187-16.217-7.911-16.613-13.845z" transform="matrix(0 -1.07573 1 0 -75.06 615.35)" fill="#807f7f" fill-rule="evenodd" stroke="#000" stroke-width="6.026" stroke-linejoin="round"/><path d="M288.611 69.956l33.743 1.436s-.719-28.718-1.436-45.23c.718-15.795-3.59-21.538-4.308-21.538h-22.256s-3.59 7.18-3.59 17.948c-1.435 22.974-2.153 47.384-2.153 47.384z" transform="matrix(1 0 0 1.07573 0 7.035)" fill="#4b537b" fill-rule="evenodd" stroke="#000" stroke-width="9.642" stroke-linejoin="round"/><path d="M274.97 70.674s54.563 2.154 54.563 3.59 5.026-2.872 0-10.051c-7.179-5.026-36.614-7.898-48.819-3.59-6.462 7.897-5.744 11.487-5.744 10.05z" transform="matrix(1 0 0 1.07573 0 7.035)" fill="#626a7b" fill-rule="evenodd" stroke="#000" stroke-width="9.642" stroke-linejoin="round"/><path d="M197.5 154.885h76.25M201.25 222.385h37.5-37.5zM261.25 221.135H285" fill="none" stroke="#000" stroke-width="3.75"/><path d="M223.75 269.885h33.564c1.25 0 .904 11.25.186 11.25h-33.564l-.186-11.25z" fill="#0f0" fill-rule="evenodd"/><path d="M324.507 265.44s-13.64 3.59-13.64 4.308 11.487 9.333 11.487 9.333l2.153-13.641zM297.226 297.03v-12.205l14.359 10.051-14.359 2.154zM178.048 269.748l-7.179 7.897 11.487 10.051 6.461-7.897h0" fill="none" stroke="#000" stroke-width="3.75"/><path d="M179.484 320.516l7.897-5.026v17.949M233.329 316.208l2.154-4.307h15.077c-.718 0-15.077 19.384-15.077 19.384l15.795-.718M293.636 314.772h16.513l-7.898 7.18 8.616 2.871v10.769s-5.026 2.872-5.744 2.872-12.923-.718-12.923-.718M189.535 372.925s-10.769 13.641-11.487 13.641h12.205s.718 7.897 0 7.897-.718-21.538-.718-21.538zM252.714 372.925l-13.641.718s-.718 7.18 0 7.18 15.077 1.435 15.077 1.435.717 10.052 0 10.052c-.718 0-13.641.717-13.641.717M308.713 375.079h-12.205v15.795h15.077v-7.898l-15.077-.718" transform="matrix(1 0 0 .77941 0 75.328)" fill="none" stroke="#000" stroke-width="4.248"/><path d="M174.051 271.36c3.956-3.955 40.348-3.163 43.512-.79 3.956 5.538 2.373 30.854 0 32.436-2.637 3.165-40.084 3.165-43.513 0-2.373-5.802-1.581-28.217.001-31.646z" transform="matrix(1 0 0 .83844 -8.703 222.658)" fill="#807f7f" fill-rule="evenodd" stroke="#000" stroke-width="6.826"/><path d="M174.051 271.36c3.956-3.955 40.348-3.163 43.512-.79 3.956 5.538 2.373 30.854 0 32.436-2.637 3.165-40.084 3.165-43.513 0-2.373-5.802-1.581-28.217.001-31.646z" transform="matrix(1 0 0 .83844 48.26 222.658)" fill="#807f7f" fill-rule="evenodd" stroke="#000" stroke-width="6.826"/><path d="M174.051 271.36c3.956-3.955 40.348-3.163 43.512-.79 3.956 5.538 2.373 30.854 0 32.436-2.637 3.165-40.084 3.165-43.513 0-2.373-5.802-1.581-28.217.001-31.646z" transform="matrix(1 0 0 .83844 105.222 223.32)" fill="#807f7f" fill-rule="evenodd" stroke="#000" stroke-width="6.826"/><path d="M178.048 411.181h13.641l-.718 17.949M233.329 411.181l16.513.718v9.334l-15.795-.718-.718-9.334zM234.047 420.515v8.615h16.513l-.718-7.897M307.995 428.412v-16.513h-18.667s-.717 8.616 0 8.616c.718 0 18.667.718 18.667.718M308.713 429.13h-15.077M236.201 452.822l16.513.718v17.23l-17.231.718.718-18.666zM295.072 456.411v16.513h.718M306.559 457.129v16.513M290.046 460.719c.718 0 21.604 2.48 21.604 2.48M288.611 468.616l22.256 1.436M175.894 459.283l18.667 10.769s0 .718-.718.718M177.33 470.77l15.795-12.205M176.612 464.309h17.231" fill="none" stroke="#000" stroke-width="3.75"/><path d="M191.046 207.544c-1.582-7.911-4.747-37.975 1.582-61.709 11.076-1.582 77.532 0 90.19 1.582-12.658 0-90.19 12.659-91.772 60.127z" fill="#fff" fill-opacity=".5" fill-rule="evenodd"/><path d="M156.587 189.939c0-10.44 2.088-94.997 10.44-97.084 4.175-1.044 82.468-3.132 110.654-2.088-114.83 9.395-114.83-13.571-121.094 99.172z" fill="#fff" fill-opacity=".5" fill-rule="evenodd"/></svg>