<?xml version="1.0" encoding="UTF-8"?>
<svg width="400pt" height="400pt" xmlns="http://www.w3.org/2000/svg" xmlns:xlink="http://www.w3.org/1999/xlink">
 <defs>
  <linearGradient id="d">
   <stop stop-color="#fff" stop-opacity=".683" offset="0"/>
   <stop stop-color="#fff" stop-opacity=".142" offset="1"/>
  </linearGradient>
  <linearGradient id="c">
   <stop stop-opacity=".075" offset="0"/>
   <stop stop-opacity=".2" offset="1"/>
  </linearGradient>
 </defs>
 <g fill-rule="evenodd">
  <path d="m56.457 76.414c22.314 27.701 283.16 47.706 338.56 0.77-26.162-43.86-337.03-35.396-338.56-0.77z" fill="#a3a47f" stroke="#000" stroke-linejoin="round" stroke-width="10"/>
  <path d="m378.78 84.747c1.524-23.928-304.44-13.753-305.74-4.98-52.87-28.756 345.72-39.967 305.74 4.98z" fill-opacity=".3"/>
  <path d="m56.48 75.762c28.284 35.355 307.59 40.658 340.3 0.884-4.066 13.988-16.204 13.469-15.153 30.334 0 10.607 1.895 292.28 0.127 309.08-30.936 44.194-292.57 52.149-319.97-1.768-0.884-36.239-1.01-304.18-1.01-310.37 1.83-18.566-5.714-21.368-4.293-28.155z" fill="#cccc7f" stroke="#000" stroke-linejoin="round" stroke-width="10"/>
  <path d="m382.71 140.28s30.01-27.7 56.171-26.931c38.474 4.617 45.399 100.03 32.318 149.28-7.695 45.398-53.864 70.022-87.72 75.408l-1.538-35.395s51.554-11.542 57.709-41.552c6.157-13.85 15.391-100.8-5.385-102.34s-51.555 25.393-51.555 25.393v-43.86z" fill="#cccc7f" stroke="#000" stroke-linejoin="round" stroke-width="10"/>
  <path d="m65.59 95.65c71.049 25.578 281.35 17.052 304.09 6.631-5.684 24.631-287.99 28.42-304.09-6.631z" fill-opacity=".3"/>
  <path transform="translate(8.75 -15)" d="m219.78 463.05c77.68-3.789 112.73-6.631 149.68-33.156 0-9.473 0.947-178.1 0.947-178.1s-15.157 154.41-150.62 211.25z" fill="url(#c)"/>
  <path transform="translate(8.75 -15)" d="m202.73 144.75c-36.945 2.842-121.26 0-143.99-18-0.947 20.841 0.947 268.09 0.947 268.09 19.894-94.732 29.367-226.41 143.05-250.09z" fill="url(#d)"/>
  <path d="m450.2 236.8c19.893 5.684 12.315 33.157 8.526 47.366-9.474 17.052-37.893 38.841-52.103 42.63 18.947-17.052 48.313-55.893 43.577-89.996z" fill="#fff" fill-opacity=".51"/>
 </g>
</svg>
