<?xml version="1.0" encoding="UTF-8"?>
<svg width="213.33" height="213.33" xmlns="http://www.w3.org/2000/svg" xmlns:xlink="http://www.w3.org/1999/xlink">
 <defs>
  <linearGradient id="b" x1="112" x2="-29.11" y1="125.17" y2="-21.866" gradientTransform="matrix(1.0473 0 0 .95486 46.25 53.75)" gradientUnits="userSpaceOnUse">
   <stop stop-color="#f8f5da" offset="0"/>
   <stop stop-color="#fff" offset="1"/>
  </linearGradient>
 </defs>
 <path d="M17.5 31.25h168.75c12.5 62.5-20 105 0 153.75H17.5c-25-51.25 8.75-100 0-153.75z" fill="url(#b)" stroke="#000" stroke-linecap="round" stroke-linejoin="bevel" stroke-width="2.5"/>
 <g fill-rule="evenodd">
  <path d="M41.487 30.546c0-4.865.94-6.373 1.975-8.112 4.04-2.118 6.451-3.38 15.32-4.241 6.192.118 10.832.359 13.344.991 1.274.321 1.918.703 2.185.976.267.273.417.513.373 1.363l-.01.153.01.153c.351 3.835.522 22.442.555 39.64.033 17.115-.036 33.003-.036 33.157-.473 3.663-1.286 4.556-3.477 6.927-2.157 1.714-2.36 2.103-6.9 2.314l-.064.008H64.7c-5.116.453-6.861.668-11.46-.508-3.114-2.164-4.503-4.902-4.342-6.749.062-.717.062-1.818.072-3.774.011-1.956.007-4.574 0-7.628-.012-6.106-.05-13.96-.1-21.715-.099-15.509-.576-25.048-.227-27.492l-5.462.04c0 3.142.129 11.982.228 27.485.05 7.75.088 15.596.1 21.69.006 3.048.01 5.66 0 7.596s-.05 3.382-.055 3.427c-.362 4.174 2.376 8.324 6.927 11.281l.383.25.446.121c5.541 1.473 8.697 1.258 13.9.798.045-.004.08-.004.127-.008 5.295-.27 7.877-1.755 10.276-3.644l.164-.13.137-.145c2.428-2.628 4.266-5.116 4.842-9.708l.01-.13v-.128s.069-16.129.036-33.343c-.033-17.214-.13-35.186-.574-40.027.013-1.628-.52-3.253-1.693-4.451-1.247-1.274-2.945-1.989-4.815-2.46-3.74-.94-8.565-1.05-14.946-1.169l-.182-.008-.173.016c-10.075.965-13.832 2.923-18.296 5.25l-.692.363-.364.637c-.937 1.66-2.94 4.684-2.94 10.934-.35.976 5.81.59 5.461 0z" fill="#939292"/>
  <g fill="#fff" fill-opacity=".4">
   <path d="M77.525 22.266l.976 74.66c-1.323 2.91-3.562 5.866-6.49 6.892 3.075-2.677 4.88-5.76 4.643-7.895 0-1.185-.552-73.657-.552-73.657h1.423zM47.473 98.227l-.369-60.342-1.24.16 1.058 60.182h.551zM41.134 29.301c.43 1.504-1.437-3.062 1.076-7.426-2.513 2.645-3.297 5.727-3.534 8.098l2.458-.672z"/>
  </g>
  <path d="M58.378 12.091c-6.967.57-15.707.967-19.974 6.425-3.9 4.871-4.043 8.743-3.526 13.192 1.985.099 7.055.65 7.768-.719.21-2.545-.045-6.356 2.703-7.695 4.622-2.478 9.975-3.38 15.169-3.391 4.157.255 8.7-1.08 12.47 1.576 1.62 1.285.707 14.396 1.036 16.25.487 22.56.56 35.246.53 57.811-.106 3.485-3.304 5.971-6.473 7.18-4.756.455-9.667 1.744-14.36.324-3.02-1.824-3.464-3.775-3.565-9.049.051-18.149-.115-36.297-.438-54.443.432-2.212.11-5.052-2.721-4.335-1.573.165-3.325-.341-4.753.389-.815 2.884-.126 6.14-.302 9.179.154 17.858.308 35.724.222 53.579.523 4.853 4.192 8.926 8.382 11.11 5.98 1.825 12.331 1.3 18.42.438 4.703-.87 8.818-3.987 10.989-8.247 1.827-3.11 2.098-6.775 1.905-10.296-.012-22.059.195-44.124-.355-66.178-.165-3.184.04-6.985-2.797-9.174-4.253-3.244-9.95-3.05-15.033-3.355-1.764-.07-3.539-.477-5.297-.571zm.523 2.285c5.721.339 11.314.429 16.739 2.64 4.648 2.529 4.18 5.74 4.21 8.7.572 23.426.365 44.5.356 67.93-.563 8.875-5.902 13.943-12.076 14.611-5.532.632-11.984.984-17.342-.9-3.63-2.301-6.75-6.662-6.13-11.24.108-19.46-.122-38.919-.28-58.378.886.29 3.343-.71 3.145.611-.13 10.469.133 20.938.076 31.41.076 9.557.038 19.133.075 28.68.746 2.979 3.064 5.893 6.049 6.788 4.929 1.255 10.04.415 14.969-.101 4.631-1.466 7.922-6.368 7.722-11.21.007-23.185.208-46.377-.405-69.556.334-2.878-.135-3.666-3.317-5.232-3.987-2.071-10.236-1.743-14.918-1.65-5.297.49-10.669 1.635-15.225 4.494-1.671 2.376-1.529 4.495-1.62 7.345-2.641.932-3.813.682-3.787-.055.404-2.435-.196-5.983 2.557-9.013 4.877-5.427 12.87-5.317 19.202-5.874z"/>
 </g>
</svg>
