<?xml version="1.0" encoding="UTF-8"?>
<svg width="400pt" height="400pt" xmlns="http://www.w3.org/2000/svg" xmlns:xlink="http://www.w3.org/1999/xlink">
 <defs>
  <linearGradient id="b" x1=".615" x2=".25" y1=".539" y2=".32" spreadMethod="reflect">
   <stop stop-color="#de9500" offset="0"/>
   <stop stop-color="#ffff0f" offset="1"/>
  </linearGradient>
 </defs>
 <g fill-rule="evenodd">
  <path d="m66.713 11.43c-11.64 149.06 35.262 212.69-1.695 451.94 0 0 333.23 3.392 332.38 3.392 43.456-250-25.204-331.33 2.657-396.83-53.798-0.735-67.099-59.355-67.099-59.355l-266.25 0.848z" fill="#fff" stroke="#000" stroke-linejoin="round" stroke-width="10"/>
  <path d="m332.96 11.43-0.85 59.355h68.682c3.392-5.088-64.441-57.659-67.832-59.355z" fill="#eeebff" stroke="#000" stroke-linejoin="round" stroke-width="10"/>
  <path transform="matrix(.74118 0 0 .71897 165.02 93.073)" d="m99.879 380.68-23.865 101.65 99.727-70.71s-8.687-60.104-75.862-30.936z" fill="#cca89d" stroke="#000" stroke-linejoin="round" stroke-width="13.699"/>
  <path transform="matrix(.74118 0 0 .71897 165.02 93.073)" d="m100.76 380.68 224.51-318.2s21.213-26.517 45.078-11.49c7.072 1.767 5.304 0 19.446 10.606 3.535 2.651 5.303 23.865 5.303 23.865s-220.97 326.15-220.97 327.04c0 0.883-3.536-19.446-22.981-30.053-17.678-10.606-49.497-0.883-50.381-1.767z" fill="#c96400" stroke="#000" stroke-linejoin="round" stroke-width="13.699"/>
  <path transform="matrix(.74118 0 0 .71897 165.02 93.073)" d="M75.13 483.206l7.955-31.82c0-.884 10.607-.884 14.142 3.536 3.536.884 4.42 7.955 4.42 7.955L75.13 483.206z" stroke="#000" stroke-linejoin="round" stroke-width="17.123"/>
  <path transform="matrix(.74118 0 0 .71897 165.02 93.073)" d="m315.55 74.852 43.31-52.15s18.561-19.445 37.123-9.722c18.561 9.723 9.722 4.42 18.562 10.607 7.954 12.374-2.652 35.355-3.536 35.355s-36.239 58.337-36.239 58.337 8.838-10.607-6.188-18.562c-16.793-22.097-53.916-23.865-53.032-23.865z" fill="#fc64e3" stroke="#000" stroke-linejoin="round" stroke-width="13.699"/>
  <path transform="matrix(.74118 0 0 .71897 165.02 93.073)" d="M305.824 87.226c-.884 0 36.239-47.73 36.239-47.73s15.026-1.767 28.284 1.768c15.027 6.188 8.839 1.768 19.446 9.723 9.722 7.955 11.49 26.517 11.49 26.517l-28.284 44.194s.884-8.839-7.955-18.561c-14.142-11.491-28.285-13.259-37.123-16.795-12.375-1.767-22.981 1.768-22.097.884z" fill="url(#b)" stroke="#000" stroke-linejoin="round" stroke-width="13.699"/>
  <path d="M221.993 438.629c0-.899 5.096-19.772 6.485-19.772 1.39 0 6.022.899 6.022 2.247-7.875 4.494-11.117 16.177-12.507 17.525z" fill="#fff"/>
  <path d="m255.61 355.76c10.684-16.46 137.15-188.49 140.92-190.93 52.79-21.337-103.84 139.72-140.92 190.93z" fill="#fff" fill-opacity=".504"/>
  <path d="m234.51 414.15c0-1.829 7.542-34.139 11.312-44.503 1.257 0 21.127-3.026 28.04 7.949-24.51 3.657-38.095 31.677-39.352 36.554z" fill="#fff" fill-opacity=".502"/>
  <path d="m457.25 105.68s14.455 3.048 14.455 7.315c3.77 12.193-3.143 18.899-7.542 26.215 1.257-11.583 3.771-17.07-6.913-33.53z" fill-opacity=".25"/>
 </g>
</svg>
