<?xml version="1.0" encoding="UTF-8"?>
<svg width="213.33" height="213.33" xmlns="http://www.w3.org/2000/svg" xmlns:xlink="http://www.w3.org/1999/xlink">
 <defs>
  <linearGradient id="e" x1="145.63" x2="145.63" y1="712.78" y2="772.32" gradientTransform="scale(1.8064 .55358)" gradientUnits="userSpaceOnUse">
   <stop stop-color="#fff" offset="0"/>
   <stop stop-color="#fff" stop-opacity="0" offset="1"/>
  </linearGradient>
  <linearGradient id="d" x1="112" x2="-29.11" y1="125.17" y2="-21.866" gradientTransform="matrix(1.0473 0 0 .95486 46.25 53.75)" gradientUnits="userSpaceOnUse">
   <stop stop-color="#f8f5da" offset="0"/>
   <stop stop-color="#fff" offset="1"/>
  </linearGradient>
  <radialGradient id="f" cx="124.36" cy="1082.2" r="54.578" fx="125.14" fy="1084" gradientTransform="scale(2.1759 .45958)" gradientUnits="userSpaceOnUse">
   <stop stop-color="#fff" stop-opacity="0" offset="0"/>
   <stop stop-color="#fff" stop-opacity=".68" offset="1"/>
  </radialGradient>
 </defs>
 <path d="M17.5 31.25h168.75V185H17.5V31.25z" fill="url(#d)" stroke="#000" stroke-linecap="round" stroke-linejoin="bevel" stroke-width="2.5"/>
 <path d="M37.491 44.434L51.636 73.24c2.372.126 4.395-1.493 4.499-3.286l-14.21-27.362-4.434 1.842z" fill="#9e9d9b" fill-rule="evenodd"/>
 <path d="M42.05 52.695l10.255 20.458 2.18-.214-11.25-20.914-1.184.67z" fill="#fff" fill-rule="evenodd"/>
 <path d="M36.603 44.739c8.222 15.824 6.644 12.99 14.87 28.812 2.892 1.058 5.085-.84 5.492-3.715-8.064-15.541-5.837-11.707-13.897-27.25-1.865.774-4.605 1.368-6.465 2.153zm1.74.634l3.272-1.364c7.9 15.244 5.896 10.226 13.77 25.481.237 2.247-1.081 3.146-3.006 3.113-7.936-15.302-6.1-11.93-14.036-27.23z" fill-rule="evenodd"/>
 <path d="M22.191 12.14C10.662 17.859 3.245 26.408 5.634 31.226c.469.947 1.315 1.65 2.41 2.166 1.478 1.974 3.52 4.875 4.878 7.753-3.244 4.31-4.463 8.485-2.903 11.631 3.352 6.76 18.207 6.225 33.158-1.188 14.95-7.414 24.368-18.915 21.016-25.674-1.678-3.384-6.257-4.888-12.276-4.648-1.877-2.111-3.564-4.542-4.34-7.17.349-1.32.343-2.544-.172-3.583-.066-.132-.164-.24-.243-.364.004-.037.002-.074.007-.112-.033-.033-.089-.046-.127-.075-2.981-4.18-13.798-3.3-24.85 2.18z" fill="red"/>
 <path transform="matrix(.25613 -.127 .1535 .30958 -103.91 -76.01)" d="M336.25 417.362a77.5 23.75 0 11-155 0 77.5 23.75 0 11155 0z" fill="url(#e)"/>
 <path d="m46.701 14.245c-3.27 6.28-11.14 11.373-18.565 14.79-3.712 1.709-7.438 2.921-10.659 3.503s-6.112 1.202-7.722 0.502l-0.325 0.45c2.027 0.882 4.92 0.88 8.272 0.274s7.165-1.844 10.962-3.592c7.595-3.495 15.137-9.001 18.622-15.694l-0.585-0.233zm4.738 7.881c-2.506 6.067-8.913 12.43-16.071 16.066-7.159 3.638-15.395 5.053-21.434 3.247l-0.176 0.326c6.517 1.95 14.819 1.284 22.18-2.457 7.363-3.74 13.288-10.397 15.965-16.881l-0.464-0.3z" fill-rule="evenodd"/>
 <path transform="rotate(-26.376 -125.93 150.01) scale(.25548)" d="m157.5 487.36c46.517 35.184 173.92 40.207 228.75-5-7.918 63.23-200.88 72.48-228.75 5z" fill="url(#f)" fill-rule="evenodd"/>
 <path d="M22.068 11.675C15.966 14.795 9.956 18.79 6.21 24.667c-1.55 2.425-2.725 7.535 1.64 8.645 2.004 1.084 1.442 2.85 2.695 4.672 1.144 1.725 3.071 2.859.997 4.516-1.966 3.184-3.748 8.343-1.326 11.637 2.839 3.657 7.885 4.03 12.208 3.91 9.836-.515 19.241-4.204 27.515-9.38 5.829-3.836 11.549-8.517 14.603-14.946 1.583-3.215 1.672-7.648-1.28-10.125-2.984-2.546-7.119-2.942-10.893-2.858-1.642-2.205-4.86-4.498-4.514-7.419.306-2.141-.12-4.18-1.902-5.187-4.068-2.133-8.928-1.32-13.219-.4-3.694.89-7.263 2.26-10.666 3.943zm.557 1.123c5.88-2.823 12.341-5.116 18.952-4.652 2.424.192 5.666 1.319 5.771 4.179-.57 1.79.167 3.49 1.055 5.035.965 1.61 2.18 2.967 3.608 4.168 1.873.215 3.697.34 5.575.824 3.148.49 6.617 2.584 6.794 6.09.149 4.59-2.908 9.003-5.867 12.213-7.037 7.167-16.146 11.94-25.707 14.847-5.773 1.598-12.078 2.411-17.918.494-2.832-.869-5.135-3.618-4.741-6.68.215-2.921 1.874-5.483 3.441-7.83 0-1.582-1.395-2.892-2.054-4.291-.972-1.456-1.718-3.16-2.897-4.449-2.401-.833-3.232-3.587-2.198-5.714 2.198-4.996 6.72-8.469 11.163-11.404a53.946 53.946 0 015.023-2.83z"/>
</svg>
