<?xml version="1.0" encoding="UTF-8"?>
<svg width="213.33" height="213.33" xmlns="http://www.w3.org/2000/svg" xmlns:xlink="http://www.w3.org/1999/xlink">
 <defs>
  <linearGradient id="e" x1="145.63" x2="145.63" y1="712.78" y2="772.32" gradientTransform="scale(1.8064 .55358)" gradientUnits="userSpaceOnUse">
   <stop stop-color="#fff" offset="0"/>
   <stop stop-color="#fff" stop-opacity="0" offset="1"/>
  </linearGradient>
  <linearGradient id="d" x1="112" x2="-29.11" y1="125.17" y2="-21.866" gradientTransform="matrix(1.0782 0 0 .98305 52.688 40.42)" gradientUnits="userSpaceOnUse">
   <stop stop-color="#f8f5da" offset="0"/>
   <stop stop-color="#fff" offset="1"/>
  </linearGradient>
  <radialGradient id="f" cx="124.36" cy="1082.2" r="54.578" fx="125.14" fy="1084" gradientTransform="scale(2.1759 .45958)" gradientUnits="userSpaceOnUse">
   <stop stop-color="#fff" stop-opacity="0" offset="0"/>
   <stop stop-color="#fff" stop-opacity=".68" offset="1"/>
  </radialGradient>
 </defs>
 <path d="m10.22 18.544 175.02-2.574c3.861 53.192-11.582 105.1 11.582 159.58h-172.44c-24.022-52.334-9.436-104.67-14.156-157z" fill="url(#d)" stroke="#000" stroke-linecap="round" stroke-linejoin="bevel" stroke-width="2.5"/>
 <path d="M47.937 64.082l20.587 41.926c3.452.184 6.397-2.173 6.547-4.783L54.39 61.402l-6.453 2.68z" fill="#9e9d9b" fill-rule="evenodd"/>
 <path d="M54.573 76.106l14.924 29.776 3.173-.313-16.374-30.438-1.723.975z" fill="#fff" fill-rule="evenodd"/>
 <path d="M46.644 64.526c11.968 23.031 9.67 18.906 21.642 41.935 4.21 1.539 7.4-1.224 7.994-5.408-11.737-22.619-8.496-17.039-20.227-39.66-2.714 1.126-6.701 1.99-9.409 3.133zm2.533.923l4.762-1.985c11.498 22.187 8.58 14.883 20.04 37.086.346 3.27-1.572 4.578-4.374 4.53-11.55-22.27-8.877-17.361-20.428-39.631z" fill-rule="evenodd"/>
 <path d="M25.669 17.081c-16.78 8.32-27.576 20.765-24.1 27.777.684 1.378 1.916 2.4 3.51 3.152 2.15 2.873 5.122 7.096 7.1 11.284-4.723 6.274-6.497 12.35-4.226 16.929 4.878 9.838 26.5 9.06 48.26-1.73 21.76-10.79 35.465-27.53 30.587-37.367-2.442-4.925-9.108-7.114-17.868-6.765-2.73-3.072-5.186-6.611-6.316-10.436.508-1.92.5-3.702-.25-5.214-.096-.192-.24-.35-.354-.53.006-.054.003-.108.01-.163-.048-.049-.129-.067-.184-.11-4.34-6.084-20.083-4.803-36.17 3.173z" fill="#00ac00"/>
 <path transform="matrix(.37279 -.18485 .22342 .45057 -157.86 -111.22)" d="M336.25 417.362a77.5 23.75 0 11-155 0 77.5 23.75 0 11155 0z" fill="url(#e)"/>
 <path d="M61.341 20.144c-4.76 9.141-16.215 16.553-27.02 21.526-5.403 2.487-10.825 4.252-15.513 5.099-4.689.847-8.897 1.75-11.239.73l-.474.655c2.951 1.284 7.16 1.28 12.04.398 4.878-.881 10.428-2.683 15.955-5.227 11.053-5.087 22.03-13.101 27.103-22.842l-.852-.34zM68.237 31.615c-3.647 8.83-12.972 18.09-23.39 23.383-10.42 5.294-22.407 7.354-31.196 4.726l-.256.474c9.485 2.837 21.568 1.869 32.283-3.576s19.338-15.133 23.235-24.57l-.676-.437z" fill-rule="evenodd"/>
 <path transform="scale(.37183) rotate(-26.375 -505.21 624.43)" d="m157.5 487.36c46.517 35.184 173.92 40.207 228.75-5-7.918 63.23-200.88 72.48-228.75 5z" fill="url(#f)" fill-rule="evenodd"/>
 <path d="M25.49 16.404c-8.882 4.54-17.63 10.353-23.081 18.908-2.256 3.53-3.966 10.968 2.387 12.583 2.916 1.578 2.098 4.148 3.923 6.8 1.665 2.51 4.469 4.16 1.45 6.573-2.862 4.634-5.454 12.142-1.93 16.937 4.133 5.322 11.477 5.865 17.77 5.689 14.314-.748 28.003-6.117 40.045-13.65 8.484-5.584 16.808-12.396 21.254-21.753 2.304-4.68 2.433-11.132-1.863-14.737-4.343-3.706-10.361-4.282-15.854-4.16-2.39-3.209-7.073-6.547-6.57-10.798.446-3.116-.174-6.084-2.769-7.549-5.92-3.105-12.993-1.92-19.239-.583-5.376 1.295-10.571 3.29-15.523 5.74zm.81 1.634c8.557-4.108 17.962-7.446 27.584-6.77 3.527.28 8.246 1.919 8.4 6.081-.83 2.605.242 5.079 1.534 7.33 1.405 2.342 3.173 4.316 5.252 6.064 2.726.314 5.381.495 8.114 1.2 4.58.714 9.63 3.761 9.888 8.864.216 6.68-4.233 13.103-8.54 17.775-10.24 10.431-23.5 17.378-37.415 21.61-8.402 2.325-17.577 3.508-26.078.718-4.121-1.265-7.473-5.265-6.9-9.722.313-4.252 2.727-7.98 5.008-11.395 0-2.304-2.03-4.21-2.989-6.247-1.415-2.118-2.501-4.6-4.217-6.475-3.495-1.212-4.703-5.22-3.199-8.316 3.2-7.272 9.781-12.326 16.247-16.598a78.515 78.515 0 017.311-4.119z"/>
</svg>
