<?xml version="1.0" encoding="UTF-8"?>
<svg width="128" height="128" xmlns="http://www.w3.org/2000/svg" xmlns:xlink="http://www.w3.org/1999/xlink">
 <defs>
  <linearGradient id="h">
   <stop stop-color="#937541" offset="0"/>
   <stop stop-color="#524124" offset="1"/>
  </linearGradient>
  <linearGradient id="f">
   <stop stop-color="#d3b46b" offset="0"/>
   <stop stop-color="#ad9457" offset="1"/>
  </linearGradient>
  <linearGradient id="g">
   <stop stop-color="#c6a965" offset="0"/>
   <stop stop-color="#b79d5d" offset="1"/>
  </linearGradient>
  <linearGradient id="o" x1="438.71" x2="363.25" y1="123.37" y2="192.05" gradientTransform="matrix(.32351 0 0 .52463 -19.084 -24.618)" gradientUnits="userSpaceOnUse" xlink:href="#f"/>
  <linearGradient id="n" x1="112.91" x2="46.404" y1="318.34" y2="375.61" gradientTransform="matrix(.57191 0 0 .29676 -19.084 -24.618)" gradientUnits="userSpaceOnUse" xlink:href="#g"/>
  <linearGradient id="m" x1="202.97" x2="111.2" y1="274.57" y2="292.66" gradientTransform="matrix(.43839 0 0 .38715 -19.084 -24.618)" gradientUnits="userSpaceOnUse" xlink:href="#g"/>
  <linearGradient id="l" x1="527.32" x2="492.42" y1="150.89" y2="167.67" gradientTransform="matrix(.22886 0 0 .7416 -19.084 -24.618)" gradientUnits="userSpaceOnUse" xlink:href="#f"/>
  <linearGradient id="k" x1="326.82" x2="217.16" y1="130.02" y2="238.83" gradientTransform="matrix(.37875 0 0 .44811 -19.084 -24.618)" gradientUnits="userSpaceOnUse" xlink:href="#h"/>
  <linearGradient id="j" x1="235.61" x2="114.06" y1="116.75" y2="252.57" gradientTransform="matrix(.34386 0 0 .49358 -19.084 -24.618)" gradientUnits="userSpaceOnUse" xlink:href="#h"/>
 </defs>
 <path d="M68.512 19.218l-50.28 22.743L2.047 77.714s11.748 1.495 17.06 2.358l.47 15.152L91.78 107.87l25.327-32.598.261-12.704 9.494-13.12-10.458-23.667-47.893-6.564z" fill="#79673d"/>
 <path d="m19.563 42.568c1.413-0.942 49.122-22.85 49.122-22.85l2.41 54.895s-50.715 19.984-50.715 19.042-0.817-51.087-0.817-51.087z" fill="url(#j)" fill-rule="evenodd"/>
 <path d="m115.7 26.762-47.021-7.01 2.346 54.9 44.8 0.787-0.125-48.677z" fill="url(#k)" fill-rule="evenodd"/>
 <path d="M91.276 51.841c1.412-1.883 24.455-24.914 24.455-24.914l-.044 48.396-24.533 31.245.122-54.727z" fill="url(#l)" fill-rule="evenodd"/>
 <path d="M19.236 42.66l72.51 9.181-.47 54.854-70.863-12.477-1.177-51.558z" fill="url(#m)" fill-rule="evenodd"/>
 <path d="M19.236 42.59l.725 37.157c8.824 2.341 61.635 10.677 62.106 9.735.471-.941 9.75-37.765 9.75-36.865L19.235 42.59z" fill="#79673d" fill-rule="evenodd"/>
 <path d="M19.236 42.59L3.933 76.326S79.975 88.803 80.446 87.86c.471-.941 10.83-35.784 10.83-35.784l-72.04-9.487z" fill="url(#n)" fill-rule="evenodd"/>
 <path d="M91.331 53.753l9.874 32.42 15.023-21.863-.703-37.66L91.33 53.754z" fill="#79673d" fill-rule="evenodd"/>
 <path d="M91.151 51.772l10.954 30.44 23.308-32.49-9.888-23.071L91.15 51.77z" fill="url(#o)" fill-rule="evenodd"/>
</svg>
