<svg xmlns="http://www.w3.org/2000/svg" xmlns:xlink="http://www.w3.org/1999/xlink" width="400" height="400" version="1.0"><defs><linearGradient xlink:href="#a" id="g" gradientTransform="matrix(1.18322 0 0 .84515 1 53)" x1="293.391" y1="44.554" x2="201.497" y2="119.481" gradientUnits="userSpaceOnUse"/><linearGradient id="b"><stop offset="0" stop-color="#e0e0e0"/><stop offset="1" stop-color="#fff"/></linearGradient><linearGradient xlink:href="#a" id="j" gradientTransform="matrix(1.07479 0 0 .93041 1 53)" x1="278.579" y1="292.695" x2="185.435" y2="206.96" gradientUnits="userSpaceOnUse"/><linearGradient xlink:href="#a" id="i" gradientTransform="matrix(.92394 0 0 1.08233 1 53)" x1="105.501" y1="249.098" x2="181.912" y2="184.142" gradientUnits="userSpaceOnUse"/><linearGradient xlink:href="#a" id="f" gradientTransform="matrix(1.4649 0 0 .68264 1 53)" x1="242.889" y1="281.307" x2="155.258" y2="210.247" gradientUnits="userSpaceOnUse"/><linearGradient xlink:href="#a" id="e" gradientTransform="matrix(1.12611 0 0 .88801 1 53)" x1="59.088" y1="219.267" x2="154.067" y2="158.917" gradientUnits="userSpaceOnUse"/><linearGradient id="a"><stop offset="0" stop-color="#e3b681"/><stop offset="1" stop-color="#fde8b0"/></linearGradient><linearGradient xlink:href="#a" id="h" gradientTransform="matrix(1.36713 0 0 .73146 1 53)" x1="77.193" y1="33.315" x2="146.549" y2="114.866" gradientUnits="userSpaceOnUse"/><linearGradient xlink:href="#a" id="l" gradientTransform="matrix(1.08012 0 0 .92582 1 53)" x1="286.476" y1="118.483" x2="272.27" y2="142.415" gradientUnits="userSpaceOnUse"/><linearGradient xlink:href="#a" id="k" gradientTransform="matrix(.88075 0 0 1.1354 1 53)" x1="118.926" y1="96.168" x2="137.293" y2="112.799" gradientUnits="userSpaceOnUse"/><linearGradient xlink:href="#b" id="d" gradientTransform="matrix(1.14023 0 0 .87701 1 53)" x1="211.84" y1="162.05" x2="164.58" y2="115.264" gradientUnits="userSpaceOnUse"/><linearGradient xlink:href="#b" id="c" gradientTransform="matrix(.67336 0 0 1.4851 1 53)" x1="212.287" y1="86.987" x2="179.596" y2="60.986" gradientUnits="userSpaceOnUse"/></defs><metadata/><path d="M150.464 116.214s-38.571-6.428-38.035-2.678c.535 3.75 6.428 16.071 7.5 28.928 1.071 12.857 3.75 37.5 5.892 43.929 2.143 6.428 4.286 4.821 4.286 4.821s16.602 5.683 19.286 5.357c3.214 2.679-1.072-71.25 1.071-80.357z" fill="url(#c)" fill-rule="evenodd"/><path d="M150.464 100.143s69.107 5.893 73.929 5.357c4.821-.536 53.036-3.75 56.25-3.75 3.214 0-4.286 28.393-3.214 31.607 1.071 3.214 0 48.75.535 50.357.536 1.607-66.783 13.632-74.527 15.234-5.437 1.14-17.616 4.052-18.151 6.73-.536 2.68-28.929-3.75-31.072-8.035-2.143-4.286-11.785-26.786-10.714-30.536 1.071-3.75 1.607-43.928 2.679-48.75 1.071-4.821 4.821-13.393 4.285-18.214z" fill="url(#d)" fill-rule="evenodd"/><path d="M180.518 207.586c.947 5.684-7.579 66.313-7.579 66.313l-42.63-18.947-21.314-8.052-40.261-28.894-21.315-12.315-12.789-8.526 9-9.473 23.209-14.21L87.206 158.8l19.42 17.525 16.579 12.315s23.21 9.474 25.104 8.053c1.894-1.421 32.209 10.894 32.209 10.894z" fill="url(#e)" fill-rule="evenodd"/><path d="M185.728 203.797l19.42-5.21 42.156-7.58 39.314-7.578 26.525-5.684 12.315 3.79 8.526 11.367 10.894 9.474 19.42 11.841 9 3.79-10.894 3.315-20.368 3.316-26.051 7.578-42.63 13.263-28.42 9.947-29.366 6.631-13.737 3.316-16.578-49.261.474-12.315z" fill="url(#f)" fill-rule="evenodd"/><path d="M316.459 175.377l-24.63-18.473-15.158-3.315 1.895-52.103-46.42 3.315 4.264-7.105 8.526-11.841 15.157-9.947 24.157 9.947 32.682 10.42 26.052 8.053 28.42 13.262-3.79 13.263-13.736 11.841s-18.998 15.43-26.525 23.683c-4.263 8.526-10.894 9-10.894 9z" fill="url(#g)" fill-rule="evenodd"/><path d="M211.536 103.357l-20.357-37.5-24.643 10.179-21.429 8.035-26.25 6.429-18.214 3.75-20.893 4.821-36.429 4.822 11.25 9.643 16.072 16.607 15 17.678 4.821 8.036 12.486-4.821 15.907-6.429L112.43 113l33.214 2.679.536-15.536 9.642-1.072 30 3.75 25.715.536z" fill="url(#h)" fill-rule="evenodd"/><path d="M84.036 229.786l1.607 27.321-1.607 37.5L113.5 319.25l45 18.75 16.071 1.607 3.215-60.536-1.607-12.321-8.572 6.964-36.964-19.285-25.714-9.108-20.893-15.535z" fill="url(#i)" fill-rule="evenodd"/><path d="M184.75 214.786l17.679 49.821 18.75-2.143 36.428-10.178 46.607-15.536L316 233.536l-1.607 23.571 1.071 46.072-1.607 4.821-18.75 4.821-43.393 15.536-36.428 3.75-34.822 6.964h-8.035l4.821-63.75 1.607-49.821 5.893-10.714z" fill="url(#j)" fill-rule="evenodd"/><path d="M119.393 144.607l-16.34 5.893c-5.357 1.607-8.303 3.482-9.374 4.286-1.34 6.428 4.285 14.464 4.285 14.464l17.143 14.464 12.857 5.357-4.821-27.321s-3.75-16.071-3.75-17.143z" fill="url(#k)" fill-rule="evenodd"/><path d="M279.036 151.304l1.607 32.142 35.893-5.892-21.161-18.215-16.34-8.035z" fill="url(#l)" fill-rule="evenodd"/><path d="M201.435 62.565c-2.967 1.986-6.751 1.253-10.046 2.256-5.547 1.021-10.597 3.603-15.539 6.2-19.051 9.26-39.21 16.618-60.225 19.775-18.647 3.732-37.1 9.407-56.254 9.746-3.69-.074-7.5-.074-11.05-1.107-1.165-2.68-4.004.969-5.908 1.462-1.76 1.261-5.414 2.331-5.968 3.714 1.984 2.062 4.386 3.549 6.819 4.992 5.796 3.602 11.854 6.976 16.608 11.967 6.99 6.438 14.676 12.622 19.117 21.218 2.186 5.013 3.229 10.438 3.801 15.851-1.092 1.83-.874 1.58-1.249 1.775.265 2.41-4.012 2.882-5.466 5.082-10.765 9.326-23.59 15.768-35.383 23.623-3.739 2.926-6.927 6.638-11.243 8.767-.389 1.884 3.421 1.544 4.635 2.734 14.74 6.516 28.074 15.708 41.253 24.875 2.484 2.56 7.356 3.994 6.69 8.23.994 12.195 2.94 24.55.648 36.723-.553 4.46-1.92 8.75-3.328 12.993-1.145 4.547-1.53 9.28-3.114 13.715.941-.674 2.964-1.143.772-.186-2.01 2.047 3.088 1.72 4.134 2.834 17.147 7.098 30.393 20.663 46.467 29.612 11.728 6.705 26.016 6.884 37.544 14.04 1.974 2.56 4.767-.145 6.55-1.4 2.441-.75-4.449 2.597-.6 1.254 8.447-2.63 17.165-4.247 25.696-6.555 17.031-3.438 34.906-.589 51.6-6.037 17.765-5.262 35.368-11.112 52.572-17.999 2.575-.519 6.471-2.43 8.38-1.338 2.84-.436 5.984-2.932 8.96-4.105 1.994-.654 3.265-1.564 2.188-3.698-.703-4.394-.774-8.92-2.182-13.172-2.486-18.4-1.805-37.023-1.853-55.529 1.334-2.316 4.682-2.055 6.839-3.34 8.166-2.936 16.54-5.381 25.125-6.73 5.832-2.093 11.898.536 17.83.313 3.084-.772 4.834-4.406 8.343-3.84 1.52-1.082 5.822-3.476 1.485-3.886-5.267-1.465-10.254-3.799-15.177-6.148-10.145-5.106-19.736-11.696-27.198-20.331-3.997-4.818-7.147-10.66-7.54-17.01.997-2.253 2.413-4.302 3.049-6.698 4.237-8.522 12.328-12.48 19.892-19.446 6.993-4.883 14.458-9.515 19.741-16.348 3.08-4.356 4.811-9.46 7.42-14.082 2.357-.994-.52-2.015-1.745-1.922-16.266-5.186-30.627-15.608-47.65-18.526-5.717-.746-11.267-2.29-16.781-3.93-9.04-2.69-18.053-5.567-26.786-9.127-4.817-2.279-10.624-3.855-13.577-8.67-.716-1.814-.91-5.197-3.34-2.84-2.216 1.383-2.01.013-.126-.894.784-.509 2.89-2.11.918-.69-2.695 2.171-5.88 3.481-9.079 4.684-6.872 3.099-12.57 8.284-17.255 14.108-3.362 3.61-6.644 7.405-8.841 11.846-2.182 2.175-5.478.845-8.181 1.07-2.764-.04-5.527.018-8.29-.03-4.68-3.743-8.19-8.885-9.916-14.626-1.552-3.21-2.973-6.631-2.554-10.28.192-4.616 1.218-9.644-1.262-13.864l-.215-.527-.155-.548zm-10.399 6.948c2.023 6.91 7.278 12.54 8.337 19.783 1.685 4.599 4.893 8.379 7.65 12.354-1.756 1.513-4.873.188-7.255.56-13.324-.315-26.829-.609-39.8-3.971-3.05-.312-5.258-3.355-8.022-3.516-2.31 1.414-4.359 3.257-6.773 4.54-2.135 1.256-4.342 2.382-6.537 3.527.11 2.41 2.88 3.75 3.194 6.264 1.757 3.192-2.263 2.456-4.125 2.628-6.078.292-12.401.271-18.108-2.121-1.802-2.912-4.535-.501-6.56.65l-7.713 4.168c1.438 1.73 3.063 3.34 4.345 5.172 4.115 6.967 5.088 15.142 7.03 22.848.321 3.305-4.153 2.606-6.114 4.032-4.849 2.016-9.556 4.362-14.154 6.896-11.983-12.564-25.123-23.942-37.635-35.961-3.544-3.618-7.072-7.414-9.26-12.039 25.34-5.222 50.945-9.116 76.184-14.83 17.059-4.074 34.035-9.109 49.677-17.176 4.938-2.185 10.297-3.228 15.64-3.808zm66.674 9.005c9.16 2.174 17.518 6.767 26.64 9.081 14.686 4.347 29.794 7.438 43.953 13.416 13.07 4.815 27.14 8.558 37.832 17.964 2.346 1.345 2.877 3.332 1.342 5.541-2.751 6.522-7.702 11.74-12.878 16.421-11.612 10.937-24.773 20.186-35.602 31.958-3.624-.08-7.51-1.128-9.698-4.229-6.412-6.532-14.414-11.366-23.029-14.398-2.114-1.067-5.718-1.06-4.675-4.329-.32-14.064-1.835-28.614 2.728-42.205.858-2.675 2.185-5.451 1.857-8.3-1.234-2.535-4.494-1.7-6.671-1.178-14.052 2.78-28.355 4.427-42.69 4.44-.586-4.846 1.946-9.741 6.009-12.359 2.946-2.306 5.797-4.75 8.436-7.39 2.095-1.553 4.134-3.208 6.446-4.433zM152.454 101.67c25.615.293 50.992 5.295 76.644 4.48 13.953 1.212 27.786-2.538 41.74-1.533 3.628-.61 4.5 3.782 3.835 6.453.209 6.57.862 13.127.573 19.708-.231 12.312-.902 24.616-.81 36.934-.145 5.551-.459 11.1-1.063 16.622-20.88 4.174-41.823 8.053-62.627 12.604-6.238 1.306-12.563 2.245-18.784 3.592-2.762.56-6.21 2.985-8.159 3.325 1.051-.505-.28 1.165-2.476-.705-4.92-2.978-10.75-3.947-16.314-5.05-2.756-.92-6.957-.179-8.85-1.91-1.848-8.797-5.438-17.088-7.998-25.674-1.647-7.29-1.682-14.848-1.404-22.285.474-11.61 2.598-23.074 3.21-34.67 1.086-2.205-.25-4.692.378-7.018.543-1.867-1.19-5.844 2.105-4.873zm-34.46 15.41c7.872.415 15.79.56 23.574 1.922 3.105.017 1.591 4.173 1.92 6.139-.114 6.545 1.466 12.981 1.173 19.528-.187 9.32-1.916 18.505-2.95 27.747.659 7.282 3.082 14.245 4.53 21.375.815 3.217-3.78.401-5.458.576-2.79-.612-5.553-1.375-8.228-2.384-2.388-9.11-3.533-18.562-6.99-27.375-2.708-9.137-1.698-18.913-4.486-28.04-1.548-6.397-2.762-12.902-3.084-19.487zm-.532 29.017c1.967 9.111 4.47 18.332 3.656 27.74.198 4.241 1.54 8.335 1.735 12.577-2.324-.912-3.957-2.959-6.12-4.168-8.629-6.49-16.64-14.166-22.117-23.546-.974-2.455.896-4.53 3.312-5.03 2.765-.492 13.22-3.91 19.534-7.573zm164.3 9.922c5.668 1.347 10.766 4.501 14.827 8.634 4.464 4.076 8.723 8.683 14.5 10.892 1.525.59 2.74 1.151.395 1.273-8.39 1.606-16.774 3.25-25.15 4.926-2.152-4.647-3.992-9.542-4.151-14.72-.304-3.661-.273-7.338-.422-11.005zm-197.469 5.985c6.507 4.159 11.565 10.146 17.901 14.537a121.087 121.087 0 0030.344 16.627c12.517 4.483 26.014 6.618 37.54 13.573 3.361 1.623 4.183 5.715 4.906 9.04 1.177 7.483-.26 15.069-1.743 22.401-1.55 6.142-2.538 12.412-2.782 18.746-.243 3.828-.415 7.662-.78 11.482-3.848-1.622-7.788-3.09-11.303-5.385-10.771-5.809-22.644-9.1-34.457-12.023-16.156-5.344-29.492-16.376-42.504-26.945-7.383-6.435-16.667-9.923-24.781-15.258-6.324-4.115-12.547-9.343-15.094-16.694 9.283-8.742 20.872-14.373 31.172-21.75 3.935-2.678 7.813-5.442 11.581-8.351zm229.86 16.832c12.749 6.111 21.367 17.821 32.635 25.978 7.078 5.194 15.564 8.07 22.518 13.455-11.87 1.683-23.326 5.352-34.93 8.244-21.856 6.006-43.526 12.665-65.236 19.166-16.33 5.483-32.196 13.273-49.559 14.887-2.705.207-5.43.212-8.131-.067-1.629 1.998-4.785 3.102-5.38-.317-4.15-6.692-8.897-13.525-9.573-21.615-1.628-9.59-5.875-18.446-8.35-27.807 1.46-2.43.477-6.953 3.3-7.907 19.972-5.966 40.836-7.78 61.18-12.036 20.526-3.907 40.986-8.15 61.526-11.981zM184.061 225.48c2.46 6.968 3.832 14.316 6.977 21.039 2.72 7.825 2.76 16.506 6.885 23.846 2.498.994 4.023-2.443 6.525-2.444 27.144-8.218 54.916-14.173 82.066-22.367 9.096-2.998 17.932-6.71 26.826-10.246-.965 19.43 2.302 39-.784 58.327-.89 3.893-2.091 7.774-2.057 11.804-.72 2.807-4.18 2.171-6.288 3.028-5.794 1.938-11.345 4.535-17.107 6.574-15.057 5.713-30.54 10.457-46.462 13.04-13.208 2.397-26.762 2.35-39.866 5.412a427.666 427.666 0 00-20.624 4.546c-.474-9.167 1.647-18.316.477-27.472-.739-13.664-2.9-27.592.386-41.1.954-6.788.848-13.67 1.269-20.504.337-7.843.737-15.696 1.777-23.483zm-97.879 8.94c7.652 6.643 16.218 12.61 26.092 15.357 9.123 3.06 18.148 6.659 26.223 11.966 5.767 3.519 11.632 6.909 17.79 9.694 4.215 2.438 8.663 4.535 12.845 6.981 2.392.079 3.743-2.901 5.984-2.999-.959 17.789-5.823 35.402-4.534 53.338-.233 2.473.691 6.609-.659 8.022-11.885-2.545-24.677-3.165-35.228-9.814-5.99-3.818-11.48-8.508-18.119-11.22-9.224-4.398-19.278-8.538-25.665-16.91-2.168-3.015-3.794-6.61-3.983-10.35.756-4.474 1.676-9.105.732-13.638.579-11.158-1.17-22.245-1.536-33.374-.042-2.35-.021-4.703.058-7.053z"/></svg>