<svg width="400pt" height="400pt" xmlns="http://www.w3.org/2000/svg"><path d="M260.233 13.16c-6.412 0-13.127.11-19.885.34-13.517.457-27.118 1.37-38.619 2.78-11.5 1.412-20.07 2.294-27.804 6.861-15.933 9.41-27.53 20.095-29.932 37.116l-.07.556v.557l-1.047 256.164 20.932.062 1.046-255.423c1.715-11.37 6.379-15.16 20.688-23.61-.125.073 8.577-2.64 19.048-3.925 10.47-1.285 23.573-2.156 36.56-2.596 12.988-.44 25.915-.432 36.108 0 5.096.216 9.515.534 12.768.927 3.252.393 5.693 1.223 4.744.803 11.997 6.113 17.15 6.902 24.665 20.953v372.457c0 18.645-3.601 24.425-7.57 31.09-15.482 8.118-24.724 12.956-58.714 16.255-23.732-.454-41.514-1.377-51.143-3.801-4.882-1.23-7.35-2.695-8.373-3.74-1.022-1.044-1.597-1.966-1.43-5.222l.035-.588-.035-.587c-1.346-14.699-2.001-86.012-2.128-151.924-.126-65.594.137-126.485.14-127.078 1.813-14.035 4.926-17.46 13.326-26.547 8.266-6.568 9.043-8.058 26.444-8.87l.244-.03h.244c19.607-1.737 26.295-2.56 43.922 1.947 11.933 8.295 17.255 18.787 16.64 25.866-.238 2.748-.237 6.967-.279 14.464-.041 7.496-.023 17.533 0 29.235.048 23.403.194 53.504.384 83.225.38 59.44.872 117.405.872 117.405l20.932-.155s-.492-57.959-.872-117.374c-.19-29.708-.336-59.774-.384-83.132-.024-11.679-.041-21.692 0-29.112.042-7.42.194-12.96.21-13.134 1.389-15.998-9.104-31.902-26.549-43.235l-1.465-.958-1.71-.463c-21.237-5.645-33.332-4.821-53.27-3.06-.177.016-.312.015-.49.03-20.292 1.035-30.19 6.729-39.386 13.97l-.627.494-.524.556c-9.305 10.075-16.352 19.608-18.56 37.209l-.034.494v.495s-.267 61.814-.14 127.788c.127 65.975.5 134.855 2.198 153.409-.048 6.238 1.993 12.467 6.49 17.059 4.778 4.881 11.289 7.622 18.454 9.425 14.33 3.608 32.826 4.03 57.283 4.482l.698.03.662-.061c38.615-3.698 53.014-11.203 70.122-20.119l2.65-1.39 1.396-2.442c3.592-6.361 11.269-17.954 11.269-41.906V50.43l-.942-1.793c-10.042-19.767-23.38-25.327-34.712-31.182l-.28-.155-.313-.123c-3.992-1.769-7.082-2.09-11.268-2.596-4.186-.506-9.109-.848-14.618-1.082-5.508-.233-11.59-.34-18-.34z" fill="#939292" fill-rule="evenodd" stroke="#000" stroke-width="10" stroke-linejoin="round"/><g fill="#fff" fill-rule="evenodd" fill-opacity=".4"><path d="M149.75 53.789l-1.818 259.002s8.18.909 7.27 0c-.909-.909 1.817-259.911 1.817-259.911s3.224-7.27 9.585-16.358c6.362-9.088-16.855 6.361-16.855 17.267zM179.796 464.998L177.07 173.28s9.088-24.51 17.267-29.963c5.452-5.452-13.632 23.6-12.723 31.78 0 4.544 3.635 289.9 3.635 289.9h-5.453zM298.52 168.295l.909 244.462 2.726.909V168.295h-3.634zM325.812 51.971l1.817 384.414s0 9.997-3.635 15.45c-3.635 5.452-4.544 9.087-4.544 9.087s11.815-14.54 12.723-23.628c.91-6.361-2.726-386.232 0-384.414l-6.36-.909z"/></g></svg>