<?xml version="1.0" encoding="UTF-8"?>
<svg width="160" height="160" xmlns="http://www.w3.org/2000/svg" xmlns:xlink="http://www.w3.org/1999/xlink">
 <defs>
  <linearGradient id="c" x1=".934" x2=".037" y1=".54" y2=".667">
   <stop stop-color="#ffb700" offset="0"/>
   <stop stop-color="#ffb700" stop-opacity="0" offset="1"/>
  </linearGradient>
  <linearGradient id="d" x1="1.023" x2=".351" y1=".889" y2=".348">
   <stop stop-color="#000081" offset="0"/>
   <stop stop-color="#000081" stop-opacity="0" offset="1"/>
  </linearGradient>
 </defs>
 <g fill-rule="evenodd">
  <path d="m40.954 91.663c14.478-35.494 68.132-73.928 93.89-82.132 14.477-5.778 10.529 4.953 3.07 11.144-50.016 34.255-48.26 83.782-77.217 83.37-7.02 0-21.937-2.89-19.743-12.382z" fill="#0000d6" stroke="#000" stroke-width="1pt"/>
  <path d="M41.587 91.97c9.684-32.234 77.224-81.287 98.578-83.389-77.72 47.885-63.566 65.17-84.92 87.594-4.967 1.868-14.403.233-13.658-4.205z" fill="#fff" fill-opacity=".251"/>
  <path d="M39.199 93.313c-7.459 4.54-31.15 40.86-32.028 45.812-1.316 4.128 3.071 5.366 5.265 2.477 1.755-2.064-.439-5.366 3.948-9.906 6.581-6.603 19.305-3.714 36.854-14.032 18.427-7.016 5.704-31.367-14.04-24.35z" fill="#ffe100" stroke="#000" stroke-width="1pt"/>
  <path d="m7.61 140.78c0.496-6.306 18.899-31.094 22.26-36.428 0.877-2.064 2.789-4.758 4.544-5.996s5.57-0.927 6.275 1.277c1.2 4.073-3.419 5.817-7.177 4.594-8.228 6.486-22.335 28.83-23.709 36.553-0.877 1.651-2.193 1.651-2.193 0z"/>
  <path d="m50.602 93.46c-7.487 3.872-6.196 24.784 2.066 23.494 16.523-5.422 6.712-22.72-2.066-23.494z" fill="url(#c)"/>
  <path d="M6.97 140.19c1.808-4.906 27.367-45.956 32.789-45.956 2.065-.774 8.52-2.84 9.553.258C12.392 119.793 9.036 145.87 6.97 140.19z" fill="#fff" fill-opacity=".498"/>
  <path d="M59.38 102.238c20.654 9.036 34.854-42.341 56.024-62.995C78.227 81.067 56.8 92.169 59.38 102.238z" fill="url(#d)"/>
 </g>
</svg>
