<svg width="400pt" height="400pt" xmlns="http://www.w3.org/2000/svg"><path d="M128.75 72.5c262.5 1.25 333.75 1.25 333.75 1.25L373.75 370H35l93.75-297.5z" fill="#e6e6e6" fill-rule="evenodd" stroke="#000" stroke-width="10" stroke-linejoin="round"/><path d="M305 88.75L445 90l-15 48.75s-142.5 2.5-142.5 1.25 20-51.25 17.5-51.25z" fill="#a6a6a6" fill-rule="evenodd" stroke="#000" stroke-width="3.75"/><path d="M36.25 366.25s-1.25 37.5 0 37.5 340 1.25 340 1.25v-38.75h-340zM465 71.25l1.25 116.25-18.75 60-2.5-33.75c-26.25 62.5-46.25 105-67.5 191.25l-1.25-38.75 88.75-295z" fill="#a6a6a6" fill-rule="evenodd" stroke="#000" stroke-width="10" stroke-linejoin="round"/><path d="M145 86.25l93.75 1.25c-20 13.75-76.25 222.5-71.25 233.75 3.75 1.25-101.25 2.5-100 1.25 19.583-86.25 42.917-163.75 77.5-236.25z" fill="none" stroke="#000" stroke-width="10" stroke-linejoin="round"/><path d="M66.25 322.5v33.75H175l13.75-37.5L185 290c9.583-55.833 21.667-100.417 43.75-141.25l5 27.5 16.25-45-13.75-43.75c-35.833 77.083-52.917 146.667-70 235h-100z" fill="#a6a6a6" fill-rule="evenodd" stroke="#000" stroke-width="10" stroke-linejoin="round"/><path d="M308.75 92.5c2.5 0 127.5 1.25 127.5 1.25l-11.25 40s-131.25 2.5-131.25 1.25 17.5-42.5 15-42.5z" fill="#a6c9a6" fill-rule="evenodd" stroke="#000" stroke-width="3.75"/><path d="M407.5 190l-10 33.75-43.75 1.25 20-36.25L407.5 190z" transform="matrix(.97117 -.05142 .04126 .7794 21.048 19.747)" font-size="12" fill="#f3f3f3" fill-rule="evenodd" stroke="#000" stroke-width="7.174"/><path d="M353.75 225v10H400l15-33.75-6.25-11.25L395 225h-41.25z" transform="matrix(.97117 -.05142 .04126 .7794 21.048 19.747)" font-size="12" fill="#f3f3f3" fill-rule="evenodd" stroke="#000" stroke-width="7.174"/><path d="M407.5 190l-10 33.75-43.75 1.25 20-36.25L407.5 190z" transform="matrix(.97117 -.05142 .04126 .7794 -34.846 21.73)" font-size="12" fill="#f3f3f3" fill-rule="evenodd" stroke="#000" stroke-width="7.174"/><path d="M353.75 225v10H400l15-33.75-6.25-11.25L395 225h-41.25z" transform="matrix(.97117 -.05142 .04126 .7794 -34.846 21.73)" font-size="12" fill="#f3f3f3" fill-rule="evenodd" stroke="#000" stroke-width="7.174"/><path d="M407.5 190l-10 33.75-43.75 1.25 20-36.25L407.5 190z" transform="matrix(.97117 -.05142 .04126 .7794 -89.526 23.647)" font-size="12" fill="#f3f3f3" fill-rule="evenodd" stroke="#000" stroke-width="7.174"/><path d="M353.75 225v10H400l15-33.75-6.25-11.25L395 225h-41.25z" transform="matrix(.97117 -.05142 .04126 .7794 -89.526 23.647)" font-size="12" fill="#f3f3f3" fill-rule="evenodd" stroke="#000" stroke-width="7.174"/><path d="M407.5 190l-10 33.75-43.75 1.25 20-36.25L407.5 190z" transform="matrix(.97117 -.05142 .04126 .7794 2.705 61.105)" font-size="12" fill="#f3f3f3" fill-rule="evenodd" stroke="#000" stroke-width="7.174"/><path d="M353.75 225v10H400l15-33.75-6.25-11.25L395 225h-41.25z" transform="matrix(.97117 -.05142 .04126 .7794 2.705 61.105)" font-size="12" fill="#f3f3f3" fill-rule="evenodd" stroke="#000" stroke-width="7.174"/><path d="M407.5 190l-10 33.75-43.75 1.25 20-36.25L407.5 190z" transform="matrix(.97117 -.05142 .04126 .7794 -53.189 63.087)" font-size="12" fill="#f3f3f3" fill-rule="evenodd" stroke="#000" stroke-width="7.174"/><path d="M353.75 225v10H400l15-33.75-6.25-11.25L395 225h-41.25z" transform="matrix(.97117 -.05142 .04126 .7794 -53.189 63.087)" font-size="12" fill="#f3f3f3" fill-rule="evenodd" stroke="#000" stroke-width="7.174"/><path d="M407.5 190l-10 33.75-43.75 1.25 20-36.25L407.5 190z" transform="matrix(.97117 -.05142 .04126 .7794 -107.868 65.005)" font-size="12" fill="#f3f3f3" fill-rule="evenodd" stroke="#000" stroke-width="7.174"/><path d="M353.75 225v10H400l15-33.75-6.25-11.25L395 225h-41.25z" transform="matrix(.97117 -.05142 .04126 .7794 -107.868 65.005)" font-size="12" fill="#f3f3f3" fill-rule="evenodd" stroke="#000" stroke-width="7.174"/><path d="M407.5 190l-10 33.75-43.75 1.25 20-36.25L407.5 190z" transform="matrix(.97117 -.05142 .04126 .7794 -14.356 104.283)" font-size="12" fill="#f3f3f3" fill-rule="evenodd" stroke="#000" stroke-width="7.174"/><path d="M353.75 225v10H400l15-33.75-6.25-11.25L395 225h-41.25z" transform="matrix(.97117 -.05142 .04126 .7794 -14.356 104.283)" font-size="12" fill="#f3f3f3" fill-rule="evenodd" stroke="#000" stroke-width="7.174"/><path d="M407.5 190l-10 33.75-43.75 1.25 20-36.25L407.5 190z" transform="matrix(.97117 -.05142 .04126 .7794 -70.25 106.265)" font-size="12" fill="#f3f3f3" fill-rule="evenodd" stroke="#000" stroke-width="7.174"/><path d="M353.75 225v10H400l15-33.75-6.25-11.25L395 225h-41.25z" transform="matrix(.97117 -.05142 .04126 .7794 -70.25 106.265)" font-size="12" fill="#f3f3f3" fill-rule="evenodd" stroke="#000" stroke-width="7.174"/><path d="M407.5 190l-10 33.75-43.75 1.25 20-36.25L407.5 190z" transform="matrix(.97117 -.05142 .04126 .7794 -124.93 108.183)" font-size="12" fill="#f3f3f3" fill-rule="evenodd" stroke="#000" stroke-width="7.174"/><path d="M353.75 225v10H400l15-33.75-6.25-11.25L395 225h-41.25z" transform="matrix(.97117 -.05142 .04126 .7794 -124.93 108.183)" font-size="12" fill="#f3f3f3" fill-rule="evenodd" stroke="#000" stroke-width="7.174"/><path d="M407.5 190l-10 33.75-43.75 1.25 20-36.25L407.5 190z" transform="matrix(.97117 -.05142 .04126 .7794 -32.072 148.112)" font-size="12" fill="#f3f3f3" fill-rule="evenodd" stroke="#000" stroke-width="7.174"/><path d="M353.75 225v10H400l15-33.75-6.25-11.25L395 225h-41.25z" transform="matrix(.97117 -.05142 .04126 .7794 -32.072 148.112)" font-size="12" fill="#f3f3f3" fill-rule="evenodd" stroke="#000" stroke-width="7.174"/><path d="M407.5 190l-10 33.75-43.75 1.25 20-36.25L407.5 190z" transform="matrix(.97117 -.05142 .04126 .7794 -87.966 150.094)" font-size="12" fill="#f3f3f3" fill-rule="evenodd" stroke="#000" stroke-width="7.174"/><path d="M353.75 225v10H400l15-33.75-6.25-11.25L395 225h-41.25z" transform="matrix(.97117 -.05142 .04126 .7794 -87.966 150.094)" font-size="12" fill="#f3f3f3" fill-rule="evenodd" stroke="#000" stroke-width="7.174"/><path d="M407.5 190l-10 33.75-43.75 1.25 20-36.25L407.5 190z" transform="matrix(.97117 -.05142 .04126 .7794 -142.646 152.012)" font-size="12" fill="#f3f3f3" fill-rule="evenodd" stroke="#000" stroke-width="7.174"/><path d="M353.75 225v10H400l15-33.75-6.25-11.25L395 225h-41.25z" transform="matrix(.97117 -.05142 .04126 .7794 -142.646 152.012)" font-size="12" fill="#f3f3f3" fill-rule="evenodd" stroke="#000" stroke-width="7.174"/><path d="M206.25 330h162.5M202.5 342.5h155M197.5 352.5c3.75 0 148.75 1.25 148.75 1.25" fill="none" stroke="#000" stroke-width="6.25"/><path d="M90 331.25l36.25-1.25v20l-13.75 8.75h-35l12.5-27.5z" fill="#030000" fill-rule="evenodd" stroke="#000" stroke-width="1pt"/><path d="M107.5 356.25s-1.25 31.25-17.5 67.5c-13.75 5-18.75 13.75-33.75 17.5-18.75 2.5-35 1.25-40-12.5-6.25-15-11.25-20-6.25-45s6.25-40 22.5-62.5c17.5-22.5 25-28.75 25-28.75S46.25 325 46.25 326.25s-5 12.5-10 20-10 15-11.25 26.25-2.5 10-1.25 22.5-1.25 26.25 8.75 27.5 15 3.75 25 0c10-5 23.75-12.5 26.25-30s3.75-35 3.75-37.5 20 1.25 20 1.25z" fill="#030000" fill-rule="evenodd" stroke="#000" stroke-width="1pt"/><path d="M78.895 296.433c-.974-.974 57.466-199.672 74.024-202.594 16.558-2.922 38.96.974 47.726 4.87-18.506 7.792-63.31 40.909-121.75 197.724z" fill="#fff" fill-opacity=".498" fill-rule="evenodd"/><path d="M131.491 399.677s224.995 4.87 237.657-1.948c1.949-13.636 5.845-23.376 0-27.272-13.636 9.74-43.83 21.428-237.657 29.22z" fill-opacity=".25" fill-rule="evenodd"/><path d="M423.693 228.252c1.948-8.766 34.09-128.57 36.038-122.725 3.896 5.844 1.948 60.389 1.948 80.843-8.766-6.818 7.792-91.557-37.986 41.882zM209.411 166.89s19.481-61.363 25.325-62.337c5.844-.974 9.74 27.272 9.74 27.272s-5.844-23.376-35.065 35.065zM179.217 283.771c-2.922 15.584-9.74 30.194-7.792 42.856 1.948 12.662 4.87 14.61 4.87 14.61 3.896-9.74.974-33.116 2.922-57.466z" fill-opacity=".247" fill-rule="evenodd"/></svg>