<svg width="400pt" height="400pt" xmlns="http://www.w3.org/2000/svg"><g font-size="12"><path d="M311.809 8.108c-.826.19-92.847 277.162-92.847 277.162s50.516 15.35 49.69 15.54c-.827.191 78.76-217.366 43.157-292.702z" fill="#dadadb" fill-rule="evenodd" stroke="#000" stroke-width="10" stroke-linejoin="round"/><path d="M267.366 300.285s-45.401 119.053-36.999 136.734c-.363 10.786-33.796 59.453-55.41 59.926-18.636 1.171-79.934-13.49-70.106-73.75 11.686-61.998 61.956-40.508 81.83-42.838 19.877-2.331 53.66-79.181 30.214-95.57 26.165 6.88 49.812 17.276 50.471 15.498zm-89.355 88.178c-67.788-17.88-80.967 88.46-20.588 94.693 67.696 2.879 67.126-87.127 20.588-94.693z" fill="#3f3f3f" fill-rule="evenodd" stroke="#000" stroke-width="10" stroke-linejoin="bevel"/><path d="M166.478 6.397c.835.148 106.68 272.138 106.68 272.138s-49.68 17.874-48.845 18.022c.835.148-89.602-213.128-57.835-290.16z" fill="#dadadb" fill-rule="evenodd" stroke="#000" stroke-width="10" stroke-linejoin="bevel"/><path d="M242.995 257.852c-15.262.848-17.806 24.59 0 25.438 16.959-.848 16.959-25.438 0-25.438zM231.124 266.332c1.696 0 16.959 15.262 16.959 15.262M237.908 260.396c.848 0 16.11 15.263 16.11 15.263" fill="none" stroke="#000" stroke-width="6.25"/><path d="M311.6 21.282c.847 0-61.05 186.543-61.05 186.543s6.627 12.797 9.17 11.949c2.544-.848 58.663-189.165 51.88-198.492z" fill="#e6ffff" fill-opacity=".75" fill-rule="evenodd"/><path d="M233.109 265.781l3.531-4.948 16.242 15.525-3.951 4.1-15.822-14.677z" fill-opacity=".319" fill-rule="evenodd"/><path d="M319.25 379.536c66.803-21.269 85.318 84.273 25.328 93.536-67.464 6.283-71.426-83.637-25.327-93.536zm-93.68-83.569s51.337 116.617 43.834 134.698c.906 10.754 36.747 57.678 58.356 57.061 18.672.233 79.154-17.495 66.306-77.185-14.791-61.33-63.916-37.338-83.883-38.665-19.968-1.327-57.576-76.38-34.986-93.927-25.785 8.188-48.878 19.76-49.627 18.018z" fill="#3f3f40" fill-rule="evenodd" stroke="#000" stroke-width="10" stroke-linejoin="bevel"/></g></svg>