<svg width="160" height="160" xmlns="http://www.w3.org/2000/svg" xmlns:xlink="http://www.w3.org/1999/xlink"><defs><linearGradient id="b"><stop offset="0" stop-opacity=".125"/><stop offset="1" stop-opacity=".031"/></linearGradient><linearGradient id="a"><stop offset="0" stop-color="#fff" stop-opacity=".251"/><stop offset="1" stop-color="#fff" stop-opacity=".063"/></linearGradient><linearGradient xlink:href="#a" id="e" x1="-.032" y1=".395" x2=".989" y2=".663"/><linearGradient xlink:href="#b" id="f" x1=".412" y1=".97" x2=".059" y2=".015"/><linearGradient xlink:href="#a" id="c" x1=".572" y1=".258" x2=".812" y2=".576"/><linearGradient xlink:href="#b" id="d" x1=".65" y1=".707" x2=".555" y2=".641"/><linearGradient xlink:href="#a" id="g" x1="-.69" y1="-.904" x2=".81" y2=".621"/></defs><metadata/><path d="M41.01 80.466c12.273-12.256 45.022-6.48 63.326-25.644 11.179-12.395 32.937-14.54 38.457-7.198 5.033 8.551-3.736 27.185-23.107 30.625-25.625 5.125-42.285 28.958-46.376 39.654-27.779 16.044-49.097-14.039-32.3-37.437z" fill="#ae5e00" fill-rule="evenodd" stroke="#000" stroke-width="1.168" transform="matrix(1.11558 0 0 1.16807 -12.987 -23.44)"/><path d="M40.755 80.497c12.274-12.256 45.552-5.686 63.856-24.85 11.18-12.396 32.408-15.07 37.928-7.728 5.033 8.552-3.736 26.92-23.107 30.36-25.625 5.126-42.285 28.959-46.376 39.655-27.779 16.044-49.097-14.039-32.3-37.437z" fill="url(#c)" fill-rule="evenodd" transform="matrix(1.11558 0 0 1.16807 -12.987 -23.44)"/><path d="M41.043 80.625c12.274-12.256 45.023-6.48 63.326-25.644 11.18-12.396 32.937-14.54 38.457-7.199 5.034 8.552-3.735 27.185-23.106 30.625-25.626 5.125-42.285 28.958-46.377 39.655-27.778 16.044-49.097-14.04-32.3-37.437z" fill="url(#d)" fill-rule="evenodd" transform="matrix(1.11558 0 0 1.16807 -12.987 -23.44)"/><path d="M28.094 45.344l-12.438 8.531c.358.429 3.037 46.944 4.469 68.188l69.156 16.78c.722-.368 9.555-6.658 9.813-6.968l-4-73.625-67-12.906z" fill="#ae5e00" fill-rule="evenodd" stroke="#000" stroke-width="1.168" transform="matrix(1.11558 0 0 1.16807 -12.987 -23.44)"/><path d="M6.77 42.566l74.647 16.868 3.461 76.544-73.634-18.376L6.77 42.566z" fill="#0f001a" fill-rule="evenodd"/><path d="M55.744 71.364c16.323 2.993 36.318 33.734 17.547 50.329M39.421 70.548c-29.245 8.025-8.297 50.6 12.786 52.641" fill="none" stroke="#fff" stroke-width=".548" transform="matrix(1.11558 0 0 1.16807 -12.987 -23.44)"/><path d="M52.081 70.97c-41.257-8.503-32.258 44.387-1.43 52.546 40.928 11.502 36.466-45.308 1.43-52.546z" fill="none" stroke="#271e2d" stroke-width="1.168" transform="matrix(1.11558 0 0 1.16807 -12.987 -23.44)"/><path d="M16.395 53.979l11.78-7.951 66.208 12.84-8.865 10.839-69.123-15.728z" fill="url(#e)" fill-rule="evenodd" transform="matrix(1.11558 0 0 1.16807 -12.987 -23.44)"/><path d="M85.522 69.907l8.466-10.846 4.497 72.883-9.391 6.746-3.572-68.783z" fill="url(#f)" fill-rule="evenodd" transform="matrix(1.11558 0 0 1.16807 -12.987 -23.44)"/><path d="M42.123 82.954l-3.014-.67L45.64 95.18l-9.043 10.885 3.182 1.005M49.487 83.878l-.952 11.562M48.535 97.617l-.817 11.154M53.431 84.422l-1.768 26.525M63.225 87.823c-8.841-3.128-11.29 22.716-.816 25.028M62.273 92.584c-3.4 3.128-3.4 12.786-.544 14.962M64.993 91.768c3.673 3.264 3.673 16.05-1.224 17.683M65.538 86.87c10.337 4.626 7.617 28.43-1.497 27.478" fill="none" stroke="#fff" stroke-width=".548" transform="matrix(1.11558 0 0 1.16807 -12.987 -23.44)"/><path d="M52.516 84.61l-4.092-1.005-.643 9.392-5.256-10.838-4.751-1.166 6.809 14.058-9.355 11.478 5.123 1.256 7.006-8.584-.693 10.132 4.092 1.004 1.76-25.728m10.948 7.1c1.247.307 2.163 1.29 2.748 2.953.585 1.662.785 3.848.6 6.56-.185 2.7-.672 4.712-1.461 6.036-.79 1.325-1.808 1.835-3.055 1.529-1.254-.308-2.174-1.292-2.759-2.954-.585-1.662-.785-3.843-.6-6.543.184-2.711.672-4.73 1.461-6.054.79-1.325 1.812-1.834 3.066-1.526m.328-4.808c-2.55-.626-4.63.067-6.237 2.08-1.607 2.012-2.553 5.103-2.838 9.273-.285 4.159.215 7.599 1.499 10.32 1.283 2.72 3.2 4.394 5.751 5.02 2.544.624 4.623-.07 6.238-2.08 1.607-2.012 2.553-5.097 2.837-9.256.285-4.17-.214-7.616-1.498-10.337-1.29-2.723-3.208-4.396-5.752-5.02" font-size="12" font-weight="700" fill="none" stroke="#271e2d" stroke-width="1.095" font-family="Bitstream Vera Sans" writing-mode="lr" transform="matrix(1.11558 0 0 1.16807 -12.987 -23.44)"/><path d="M17.757 56.502L84.67 70.943l3.102 65.53-66.005-15.731-4.01-64.24z" fill="url(#g)" fill-rule="evenodd" transform="matrix(1.11558 0 0 1.16807 -12.987 -23.44)"/></svg>