<?xml version="1.0" encoding="UTF-8"?>
<svg width="400pt" height="400pt" xmlns="http://www.w3.org/2000/svg">
 <path transform="matrix(1.2449 0 0 1.138 -24.918 -67.185)" d="m296.98 150.87-197.11 225.39 154.68-0.884 90.157-223.62-47.73-0.883z" fill="red" fill-rule="evenodd" stroke="#000" stroke-linejoin="bevel" stroke-width="3.15"/>
 <path transform="matrix(1.2449 0 0 1.138 -24.918 -67.185)" d="m98.995 376.26s-14.142 15.027-17.678 35.356l184.73 2.651 85.737-256.33s-1.768-4.419-7.071-5.303c-2.652 5.303-90.157 223.62-90.157 223.62h-155.56z" fill="red" fill-rule="evenodd" stroke="#000" stroke-linejoin="bevel" stroke-width="8.401"/>
 <path transform="matrix(1.2449 0 0 1.138 -24.918 -67.185)" d="m112.1 370.95 40.293-47.73h117.19l-19.445 47.73h-138.04z" fill="#bfbfbf" fill-rule="evenodd" stroke="#000" stroke-linejoin="bevel" stroke-width="8.401"/>
 <path transform="matrix(1.2449 0 0 1.138 -24.918 -67.185)" d="m331.46 160.59-117.56 150.26-0.884-87.505 112.25-83.968s12.375-7.955 6.187 21.213z" fill="red" fill-rule="evenodd" stroke="#000" stroke-linejoin="bevel" stroke-width="5.251"/>
 <path transform="matrix(1.2449 0 0 1.138 -24.918 -67.185)" d="m212.13 223.34-110.49 0.884 177.66-88.388s38.891-6.187 49.498 1.768c-0.884-2.651-116.67 87.504-116.67 85.736z" fill="red" fill-rule="evenodd" stroke="#000" stroke-linejoin="bevel" stroke-width="8.401"/>
 <path transform="matrix(1.2449 0 0 1.138 -24.918 -67.185)" d="m213.9 310.85-112.25-1.768-1e-3 -84.852 110.49-1e-3 1.768 86.621z" fill="none" stroke="#000" stroke-linejoin="bevel" stroke-width="3.15"/>
 <path transform="matrix(1.2449 0 0 1.138 -24.918 -67.185)" d="m106.07 309.08v20.329l99.879 1e-3 81.317-111.37s-72.478 91.924-73.362 91.924-107.83 0.884-107.83-0.884z" fill="#bfbfbf" fill-rule="evenodd" stroke="#000" stroke-linejoin="round" stroke-width="8.401"/>
 <path transform="matrix(1.2449 0 0 1.138 -24.918 -67.185)" d="m304.94 194.18 0.884 24.749 25.632-47.73-1.767-9.722-24.749 32.703z" fill="none" stroke="#000" stroke-linejoin="bevel" stroke-width="5.251"/>
 <path transform="matrix(1.2449 0 0 1.138 -24.918 -67.185)" d="m305.96 219.06-8.086-0.131v-16.794l7.071-7.955 1.015 24.88z" fill="#790000" fill-rule="evenodd" stroke="#000" stroke-linejoin="bevel" stroke-width="5.251"/>
 <path transform="matrix(1.2449 0 0 1.138 -24.918 -67.185)" d="M94.774 308.613l117.935 1.523 21.321-25.891s19.291-58.888 22.845-62.442c1.777-1.777 9.75-19.27 10.216-19.354.639-.207 1.967-20.751 1.967-20.751-5.584-1.015-85.482-6.015-85.482-5.507 0 .507-88.294 43.151-88.294 43.151l-.508 89.271z" fill="red" fill-rule="evenodd" stroke="#000" stroke-linejoin="bevel" stroke-width="8.401"/>
 <path transform="matrix(1.2449 0 0 1.138 -10.382 -66.03)" d="m135.54 357.86c6.092 0.508 29.444 1.524 33.505 1.016 9.138-3.046-41.628-6.6-33.505-1.016z" fill="none" stroke="#000" stroke-linejoin="bevel" stroke-width="3.15"/>
 <path transform="matrix(1.2449 0 0 1.138 49.026 -66.607)" d="m135.54 357.86c6.092 0.508 29.444 1.524 33.505 1.016 9.138-3.046-41.628-6.6-33.505-1.016z" fill="none" stroke="#000" stroke-linejoin="bevel" stroke-width="3.15"/>
 <path d="M156.971 286.089v20.006l11.541.769.001-21.545-11.542.77zM106.956 185.289s130.809 3.078 130.809 2.308c0-.769 61.557-38.473 61.557-38.473M237.765 187.597l.769 89.258" fill="none" stroke="#000" stroke-width="6.25"/>
 <path d="m207.76 182.98c-18.467 1.539-85.411 0-100.03-2.309 10.773-3.846 60.788-27.7 70.791-26.93-28.471 14.619 3.847 26.161 29.24 29.239z" fill="#fff" fill-opacity=".5" fill-rule="evenodd"/>
 <path d="m287.78 107.57s-39.242 19.236-49.245 23.083c23.084-0.769 37.703 5.387 54.631 2.309-16.158-4.617-16.158-17.698-5.386-25.392zm-143.12 258.54c-3.078-0.769-36.743 2.211-42.899 4.519-6.156 6.926-28.47 24.529-3.078 24.529 104.07-1.152-69.443-5.964 45.977-29.048zm18.467-174.67c-1.539 0-52.72-5.32-63.866-1.538-3.847 20.775-2.308 72.329-1.54 87.718 19.238-71.56 43.86-83.871 65.406-86.18z" fill="#fff" fill-opacity=".498" fill-rule="evenodd"/>
 <path d="m240.84 265.31c3.078-1.539-2.309-57.71 1.539-76.946 16.928-11.543 33.856-20.776 53.862-33.857-43.859 36.165-43.09 75.408-55.401 110.8z" fill-opacity=".25" fill-rule="evenodd"/>
 <path d="m314.71 158.36c16.928-26.931 28.47-26.931 60.788-59.248-32.318 25.391-70.791 38.473-60.788 59.248zm43.86-2.308c0-0.769 18.467-24.623 20.775-24.623-11.541 15.389-23.083 53.093-20.775 24.623zm-57.71 240.07c-3.078-13.85-3.078-34.626 1.539-45.399 4.616-10.772 100.8-235.46 102.34-235.46-7.695 28.47-63.096 150.05-103.88 280.86zm-48.562-88.028s41.55-3.847 46.937 0.769c0.769 8.465-16.93 38.474-16.93 36.935 15.39-30.01-6.924-39.243-30.007-37.704z" fill-opacity=".247" fill-rule="evenodd"/>
 <path d="m166.42 309.46c-4.617 5.386-34.626 33.856-31.549 37.703 3.078 2.309 17.7-0.769 40.013 1.539-2.309-3.847-53.093 5.387-8.464-39.242z" fill="#fff" fill-opacity=".5" fill-rule="evenodd"/>
 <path d="m140.11 294.64c0.396-1.583-23.853-5.388-26.162-0.77-2.308 4.616 1.166 5.608 0.396 6.378s-1.934-4.84 25.766-5.609z" fill="#fff" fill-opacity=".498" fill-rule="evenodd"/>
 <path d="m232.38 301.48c-0.769 3.848-4.616-6.155 0.77-11.541s16.928-9.234 16.928-9.234c-0.769 0-16.159 12.311-17.698 20.775z" fill-opacity=".247" fill-rule="evenodd"/>
</svg>
